<?xml version="1.0" encoding="UTF-8" standalone="no"?>
<!DOCTYPE svg PUBLIC "-//W3C//DTD SVG 1.1//EN"
 "http://www.w3.org/Graphics/SVG/1.1/DTD/svg11.dtd">
<!-- Generated by graphviz version 2.43.0 (0)
 -->
<!-- Title: lmmp_alloc_marker Pages: 1 -->
<svg width="138pt" height="175pt"
 viewBox="0.00 0.00 137.50 175.00" xmlns="http://www.w3.org/2000/svg" xmlns:xlink="http://www.w3.org/1999/xlink">

<svg id="main" version="1.1" xmlns="http://www.w3.org/2000/svg" xmlns:xlink="http://www.w3.org/1999/xlink" xml:space="preserve" onload="init(evt)">
<style type="text/css"><![CDATA[
.node, .edge {opacity: 0.7;}
.node.selected, .edge.selected {opacity: 1;}
.edge:hover path { stroke: red; }
.edge:hover polygon { stroke: red; fill: red; }
]]></style>
<script type="application/ecmascript" xlink:href="../../svg.min.js"/>
<svg id="graph" class="graph">
<g id="graph0" class="graph" transform="scale(1 1) rotate(0) translate(4 171)">
<title>lmmp_alloc_marker</title>
<!-- Node1 -->
<g id="Node000001" class="node">
<title>Node1</title>
<g id="a_Node000001"><a xlink:title=" ">
<polygon fill="#999999" stroke="transparent" points="107,-49 0,-49 0,0 107,0 107,-49"/>
<text text-anchor="start" x="5.5" y="-36.5" font-family="Helvetica,sans-Serif" font-size="10.00">lmmp_alloc_marker</text>
<text text-anchor="start" x="52" y="-21.5" font-family="Helvetica,sans-Serif" font-size="10.00"> </text>
<text text-anchor="start" x="52" y="-6.5" font-family="Helvetica,sans-Serif" font-size="10.00"> </text>
<polygon fill="#666666" stroke="#666666" points="0.5,-31.5 0.5,-31.5 107.5,-31.5 107.5,-31.5 0.5,-31.5"/>
<polygon fill="#666666" stroke="#666666" points="0.5,-16.5 0.5,-16.5 107.5,-16.5 107.5,-16.5 0.5,-16.5"/>
<polygon fill="none" stroke="#666666" points="0,0 0,-49 107,-49 107,0 0,0"/>
</a>
</g>
</g>
<!-- Node2 -->
<g id="Node000002" class="node">
<title>Node2</title>
<g id="a_Node000002"><a xlink:title=" ">
<polygon fill="white" stroke="transparent" points="73.5,-167 33.5,-167 33.5,-118 73.5,-118 73.5,-167"/>
<text text-anchor="start" x="38.5" y="-154.5" font-family="Helvetica,sans-Serif" font-size="10.00">void *</text>
<text text-anchor="start" x="51.5" y="-139.5" font-family="Helvetica,sans-Serif" font-size="10.00"> </text>
<text text-anchor="start" x="51.5" y="-124.5" font-family="Helvetica,sans-Serif" font-size="10.00"> </text>
<polygon fill="#666666" stroke="#666666" points="33.5,-149.5 33.5,-149.5 73.5,-149.5 73.5,-149.5 33.5,-149.5"/>
<polygon fill="#666666" stroke="#666666" points="33.5,-134.5 33.5,-134.5 73.5,-134.5 73.5,-134.5 33.5,-134.5"/>
<polygon fill="none" stroke="#666666" points="33.5,-118 33.5,-167 73.5,-167 73.5,-118 33.5,-118"/>
</a>
</g>
</g>
<!-- Node2&#45;&gt;Node1 -->
<g id="edge1_Node000001_Node000002" class="edge">
<title>Node2&#45;&gt;Node1</title>
<g id="a_edge1_Node000001_Node000002"><a xlink:title=" ">
<path fill="none" stroke="#63b8ff" d="M53.5,-117.75C53.5,-101.48 53.5,-79.62 53.5,-61.26"/>
<polygon fill="none" stroke="#63b8ff" points="53.5,-61.22 49.5,-55.22 53.5,-49.22 57.5,-55.22 53.5,-61.22"/>
</a>
</g>
<text text-anchor="middle" x="91.5" y="-92" font-family="Helvetica,sans-Serif" font-size="10.00" fill="grey"> +heap_marker</text>
<text text-anchor="middle" x="91.5" y="-81" font-family="Helvetica,sans-Serif" font-size="10.00" fill="grey">+pool_marker</text>
<text text-anchor="middle" x="91.5" y="-70" font-family="Helvetica,sans-Serif" font-size="10.00" fill="grey">+stack_marker</text>
</g>
</g>
</svg>
</svg>

<style type='text/css'>
<![CDATA[
[data-mouse-over-selected='false'] { opacity: 0.7; }
[data-mouse-over-selected='true']  { opacity: 1.0; }
]]>
</style>
<script type="application/ecmascript"><![CDATA[
document.addEventListener('DOMContentLoaded', (event) => {
  highlightEdges();
  highlightAdjacentNodes();
});
]]></script>
</svg>
