<?xml version="1.0" encoding="UTF-8" standalone="no"?>
<!DOCTYPE svg PUBLIC "-//W3C//DTD SVG 1.1//EN"
 "http://www.w3.org/Graphics/SVG/1.1/DTD/svg11.dtd">
<!-- Generated by graphviz version 2.43.0 (0)
 -->
<!-- Title: lamina::IntervalUnion::complement Pages: 1 -->
<!--zoomable 248 -->

<svg id="main" version="1.1" xmlns="http://www.w3.org/2000/svg" xmlns:xlink="http://www.w3.org/1999/xlink" xml:space="preserve" onload="init(evt)">
<style type="text/css"><![CDATA[
.node, .edge {opacity: 0.7;}
.node.selected, .edge.selected {opacity: 1;}
.edge:hover path { stroke: red; }
.edge:hover polygon { stroke: red; fill: red; }
]]></style>

<defs>
  <circle id="rim" cx="0" cy="0" r="7"/>
  <circle id="rim2" cx="0" cy="0" r="3.5"/>
  <g id="zoomPlus">
    <use xlink:href="#rim" fill="#404040"><set attributeName="fill" to="#808080" begin="zoomplus.mouseover" end="zoomplus.mouseout"/></use>
    <path d="M-4,0h8M0,-4v8" fill="none" stroke="white" stroke-width="1.5" pointer-events="none"/>
  </g>
  <g id="zoomMin">
    <use xlink:href="#rim" fill="#404040"><set attributeName="fill" to="#808080" begin="zoomminus.mouseover" end="zoomminus.mouseout"/></use>
    <path d="M-4,0h8" fill="none" stroke="white" stroke-width="1.5" pointer-events="none"/>
  </g>
  <g id="arrowUp" transform="translate(30 24)">
    <use xlink:href="#rim"/>
    <path pointer-events="none" fill="none" stroke="white" stroke-width="1.5" d="M0,-3.0v7 M-2.5,-0.5L0,-3.0L2.5,-0.5"/>
  </g>
  <g id="arrowRight" transform="rotate(90) translate(36 -43)">
    <use xlink:href="#rim"/>
    <path pointer-events="none" fill="none" stroke="white" stroke-width="1.5" d="M0,-3.0v7 M-2.5,-0.5L0,-3.0L2.5,-0.5"/>
  </g>
  <g id="arrowDown" transform="rotate(180) translate(-30 -48)">
    <use xlink:href="#rim"/>
    <path pointer-events="none" fill="none" stroke="white" stroke-width="1.5" d="M0,-3.0v7 M-2.5,-0.5L0,-3.0L2.5,-0.5"/>
  </g>
  <g id="arrowLeft" transform="rotate(270) translate(-36 17)">
    <use xlink:href="#rim"/>
    <path pointer-events="none" fill="none" stroke="white" stroke-width="1.5" d="M0,-3.0v7 M-2.5,-0.5L0,-3.0L2.5,-0.5"/>
  </g>
  <g id="resetDef">
    <use xlink:href="#rim2" fill="#404040"><set attributeName="fill" to="#808080" begin="reset.mouseover" end="reset.mouseout"/></use>
  </g>
</defs>
<script type="application/ecmascript">
var viewWidth = 653;
var viewHeight = 248;
var sectionId = 'dynsection-3';
</script>
<script type="application/ecmascript" xlink:href="../../svg.min.js"/>
<svg id="graph" class="graph">
<g id="viewport">
<title>lamina::IntervalUnion::complement</title>
<!-- Node1 -->
<g id="Node000001" class="node">
<title>Node1</title>
<g id="a_Node000001"><a xlink:title="求补集">
<polygon fill="#999999" stroke="#666666" points="122,-135 0,-135 0,-105 122,-105 122,-135"/>
<text text-anchor="start" x="8" y="-123" font-family="Helvetica,sans-Serif" font-size="10.00">lamina::IntervalUnion</text>
<text text-anchor="middle" x="61" y="-112" font-family="Helvetica,sans-Serif" font-size="10.00">::complement</text>
</a>
</g>
</g>
<!-- Node2 -->
<g id="Node000002" class="node">
<title>Node2</title>
<g id="a_Node000002"><a xlink:href="../../de/d2c/classlamina_1_1IntervalUnion.html#a2b56d26a10b685e3fa718da6c240e4f0" target="_top" xlink:title="构造空集">
<polygon fill="white" stroke="#666666" points="453,-240 331,-240 331,-210 453,-210 453,-240"/>
<text text-anchor="start" x="339" y="-228" font-family="Helvetica,sans-Serif" font-size="10.00">lamina::IntervalUnion</text>
<text text-anchor="middle" x="392" y="-217" font-family="Helvetica,sans-Serif" font-size="10.00">::empty</text>
</a>
</g>
</g>
<!-- Node1&#45;&gt;Node2 -->
<g id="edge1_Node000001_Node000002" class="edge">
<title>Node1&#45;&gt;Node2</title>
<g id="a_edge1_Node000001_Node000002"><a xlink:title=" ">
<path fill="none" stroke="#63b8ff" d="M75.94,-135.24C93.27,-153.1 124.67,-182.04 158,-196 209.67,-217.64 273,-224.41 320.59,-226.03"/>
<polygon fill="#63b8ff" stroke="#63b8ff" points="320.71,-229.53 330.8,-226.31 320.9,-222.54 320.71,-229.53"/>
</a>
</g>
</g>
<!-- Node4 -->
<g id="Node000004" class="node">
<title>Node4</title>
<g id="a_Node000004"><a xlink:href="../../de/d2c/classlamina_1_1IntervalUnion.html#add405122c217357d94361266e2584436" target="_top" xlink:title="构造全实数轴">
<polygon fill="white" stroke="#666666" points="280,-135 158,-135 158,-105 280,-105 280,-135"/>
<text text-anchor="start" x="166" y="-123" font-family="Helvetica,sans-Serif" font-size="10.00">lamina::IntervalUnion</text>
<text text-anchor="middle" x="219" y="-112" font-family="Helvetica,sans-Serif" font-size="10.00">::entire_line</text>
</a>
</g>
</g>
<!-- Node1&#45;&gt;Node4 -->
<g id="edge3_Node000001_Node000004" class="edge">
<title>Node1&#45;&gt;Node4</title>
<g id="a_edge3_Node000001_Node000004"><a xlink:title=" ">
<path fill="none" stroke="#63b8ff" d="M122.31,-120C130.6,-120 139.17,-120 147.63,-120"/>
<polygon fill="#63b8ff" stroke="#63b8ff" points="147.85,-123.5 157.85,-120 147.85,-116.5 147.85,-123.5"/>
</a>
</g>
</g>
<!-- Node6 -->
<g id="Node000006" class="node">
<title>Node6</title>
<g id="a_Node000006"><a xlink:href="../../df/dd1/structlamina_1_1Endpoint.html#a33fa9fe16d10318d428c2c7d882f5e7e" target="_top" xlink:title="构造负无穷端点">
<polygon fill="white" stroke="#666666" points="645,-123.5 504,-123.5 504,-104.5 645,-104.5 645,-123.5"/>
<text text-anchor="middle" x="574.5" y="-111.5" font-family="Helvetica,sans-Serif" font-size="10.00">lamina::Endpoint::neg_inf</text>
</a>
</g>
</g>
<!-- Node1&#45;&gt;Node6 -->
<g id="edge10_Node000001_Node000006" class="edge">
<title>Node1&#45;&gt;Node6</title>
<g id="a_edge10_Node000001_Node000006"><a xlink:title=" ">
<path fill="none" stroke="#63b8ff" d="M110.37,-135.05C187.04,-156.7 340.82,-191.09 468,-163 497.76,-156.43 529.09,-140.58 549.8,-128.67"/>
<polygon fill="#63b8ff" stroke="#63b8ff" points="551.69,-131.62 558.52,-123.53 548.13,-125.59 551.69,-131.62"/>
</a>
</g>
</g>
<!-- Node7 -->
<g id="Node000007" class="node">
<title>Node7</title>
<g id="a_Node000007"><a xlink:href="../../df/dd1/structlamina_1_1Endpoint.html#ab310ed526ff9093da297dc16c17eed2c" target="_top" xlink:title="构造正无穷端点">
<polygon fill="white" stroke="#666666" points="644.5,-86.5 504.5,-86.5 504.5,-67.5 644.5,-67.5 644.5,-86.5"/>
<text text-anchor="middle" x="574.5" y="-74.5" font-family="Helvetica,sans-Serif" font-size="10.00">lamina::Endpoint::pos_inf</text>
</a>
</g>
</g>
<!-- Node1&#45;&gt;Node7 -->
<g id="edge11_Node000001_Node000007" class="edge">
<title>Node1&#45;&gt;Node7</title>
<g id="a_edge11_Node000001_Node000007"><a xlink:title=" ">
<path fill="none" stroke="#63b8ff" d="M117.07,-104.98C130.4,-101.69 144.65,-98.46 158,-96 227.56,-83.18 245.4,-81.23 316,-77 375.6,-73.43 443.09,-73.58 494.02,-74.55"/>
<polygon fill="#63b8ff" stroke="#63b8ff" points="494.24,-78.05 504.31,-74.76 494.38,-71.06 494.24,-78.05"/>
</a>
</g>
</g>
<!-- Node9 -->
<g id="Node000009" class="node">
<title>Node9</title>
<g id="a_Node000009"><a xlink:href="../../de/d2c/classlamina_1_1IntervalUnion.html#a05c8c0306654d3b22f4512580f94787e" target="_top" xlink:title="判断并集是否为全实数轴">
<polygon fill="white" stroke="#666666" points="280,-30 158,-30 158,0 280,0 280,-30"/>
<text text-anchor="start" x="166" y="-18" font-family="Helvetica,sans-Serif" font-size="10.00">lamina::IntervalUnion</text>
<text text-anchor="middle" x="219" y="-7" font-family="Helvetica,sans-Serif" font-size="10.00">::is_entire_line</text>
</a>
</g>
</g>
<!-- Node1&#45;&gt;Node9 -->
<g id="edge9_Node000001_Node000009" class="edge">
<title>Node1&#45;&gt;Node9</title>
<g id="a_edge9_Node000001_Node000009"><a xlink:title=" ">
<path fill="none" stroke="#63b8ff" d="M78.84,-104.78C97.37,-88.5 128.46,-62.52 158,-44 163.09,-40.81 168.58,-37.72 174.1,-34.83"/>
<polygon fill="#63b8ff" stroke="#63b8ff" points="176.01,-37.78 183.35,-30.15 172.85,-31.54 176.01,-37.78"/>
</a>
</g>
</g>
<!-- Node3 -->
<g id="Node000003" class="node">
<title>Node3</title>
<g id="a_Node000003"><a xlink:href="../../de/d2c/classlamina_1_1IntervalUnion.html#a5cc11ccc4c021cb57b147bc7b439e3e8" target="_top" xlink:title=" ">
<polygon fill="white" stroke="#666666" points="635.5,-215 513.5,-215 513.5,-185 635.5,-185 635.5,-215"/>
<text text-anchor="start" x="521.5" y="-203" font-family="Helvetica,sans-Serif" font-size="10.00">lamina::IntervalUnion</text>
<text text-anchor="middle" x="574.5" y="-192" font-family="Helvetica,sans-Serif" font-size="10.00">::IntervalUnion</text>
</a>
</g>
</g>
<!-- Node2&#45;&gt;Node3 -->
<g id="edge2_Node000002_Node000003" class="edge">
<title>Node2&#45;&gt;Node3</title>
<g id="a_edge2_Node000002_Node000003"><a xlink:title=" ">
<path fill="none" stroke="#63b8ff" d="M453.1,-216.68C469.16,-214.45 486.64,-212.03 503.19,-209.74"/>
<polygon fill="#63b8ff" stroke="#63b8ff" points="503.93,-213.17 513.35,-208.33 502.97,-206.24 503.93,-213.17"/>
</a>
</g>
</g>
<!-- Node5 -->
<g id="Node000005" class="node">
<title>Node5</title>
<g id="a_Node000005"><a xlink:href="../../db/d7f/structlamina_1_1Interval.html#ab8d0ef3adfd59eaf374ec9058cacd5b6" target="_top" xlink:title="构造整条实数轴 (&#45;∞, +∞)">
<polygon fill="white" stroke="#666666" points="468,-105.5 316,-105.5 316,-86.5 468,-86.5 468,-105.5"/>
<text text-anchor="middle" x="392" y="-93.5" font-family="Helvetica,sans-Serif" font-size="10.00">lamina::Interval::entire_line</text>
</a>
</g>
</g>
<!-- Node4&#45;&gt;Node5 -->
<g id="edge4_Node000004_Node000005" class="edge">
<title>Node4&#45;&gt;Node5</title>
<g id="a_edge4_Node000004_Node000005"><a xlink:title=" ">
<path fill="none" stroke="#63b8ff" d="M280.29,-111.54C290.89,-110.05 302.06,-108.48 313.06,-106.94"/>
<polygon fill="#63b8ff" stroke="#63b8ff" points="313.68,-110.39 323.09,-105.53 312.7,-103.45 313.68,-110.39"/>
</a>
</g>
</g>
<!-- Node8 -->
<g id="Node000008" class="node">
<title>Node8</title>
<g id="a_Node000008"><a xlink:href="../../de/d2c/classlamina_1_1IntervalUnion.html#a402aeb53acdaff960293366942120173" target="_top" xlink:title="从单个区间构造并集">
<polygon fill="white" stroke="#666666" points="453,-154 331,-154 331,-124 453,-124 453,-154"/>
<text text-anchor="start" x="339" y="-142" font-family="Helvetica,sans-Serif" font-size="10.00">lamina::IntervalUnion</text>
<text text-anchor="middle" x="392" y="-131" font-family="Helvetica,sans-Serif" font-size="10.00">::from_single</text>
</a>
</g>
</g>
<!-- Node4&#45;&gt;Node8 -->
<g id="edge7_Node000004_Node000008" class="edge">
<title>Node4&#45;&gt;Node8</title>
<g id="a_edge7_Node000004_Node000008"><a xlink:title=" ">
<path fill="none" stroke="#63b8ff" d="M280.29,-126.7C293.39,-128.15 307.36,-129.71 320.81,-131.2"/>
<polygon fill="#63b8ff" stroke="#63b8ff" points="320.64,-134.7 330.97,-132.33 321.42,-127.75 320.64,-134.7"/>
</a>
</g>
</g>
<!-- Node5&#45;&gt;Node6 -->
<g id="edge5_Node000005_Node000006" class="edge">
<title>Node5&#45;&gt;Node6</title>
<g id="a_edge5_Node000005_Node000006"><a xlink:title=" ">
<path fill="none" stroke="#63b8ff" d="M468.24,-103.5C476.63,-104.34 485.2,-105.19 493.64,-106.04"/>
<polygon fill="#63b8ff" stroke="#63b8ff" points="493.57,-109.55 503.86,-107.06 494.26,-102.58 493.57,-109.55"/>
</a>
</g>
</g>
<!-- Node5&#45;&gt;Node7 -->
<g id="edge6_Node000005_Node000007" class="edge">
<title>Node5&#45;&gt;Node7</title>
<g id="a_edge6_Node000005_Node000007"><a xlink:title=" ">
<path fill="none" stroke="#63b8ff" d="M468.24,-88.08C476.86,-87.17 485.67,-86.25 494.34,-85.33"/>
<polygon fill="#63b8ff" stroke="#63b8ff" points="494.86,-88.8 504.44,-84.27 494.13,-81.84 494.86,-88.8"/>
</a>
</g>
</g>
<!-- Node8&#45;&gt;Node3 -->
<g id="edge8_Node000008_Node000003" class="edge">
<title>Node8&#45;&gt;Node3</title>
<g id="a_edge8_Node000008_Node000003"><a xlink:title=" ">
<path fill="none" stroke="#63b8ff" d="M437.62,-154.08C462.33,-162.43 493.25,-172.88 519.34,-181.7"/>
<polygon fill="#63b8ff" stroke="#63b8ff" points="518.49,-185.1 529.08,-184.99 520.73,-178.47 518.49,-185.1"/>
</a>
</g>
</g>
</g>
</svg>

<g id="navigator" transform="translate(0 0)" fill="#404254">
  <rect fill="#f2f5e9" fill-opacity="0.5" stroke="#606060" stroke-width=".5" x="0" y="0" width="60" height="60"/>
  <use id="zoomplus" xlink:href="#zoomPlus" x="17" y="9" onmousedown="handleZoom(evt,'in')"/>
  <use id="zoomminus" xlink:href="#zoomMin" x="42" y="9" onmousedown="handleZoom(evt,'out')"/>
  <use id="reset" xlink:href="#resetDef" x="30" y="36" onmousedown="handleReset()"/>
   <use id="arrowup" xlink:href="#arrowUp" x="0" y="0" onmousedown="handlePan(0,-1)"/>
  <use id="arrowright" xlink:href="#arrowRight" x="0" y="0" onmousedown="handlePan(1,0)"/>
  <use id="arrowdown" xlink:href="#arrowDown" x="0" y="0" onmousedown="handlePan(0,1)"/>
  <use id="arrowleft" xlink:href="#arrowLeft" x="0" y="0" onmousedown="handlePan(-1,0)"/>
</g>
<svg viewBox="0 0 15 15" width="100%" height="30px" preserveAspectRatio="xMaxYMin meet">
 <g id="arrow_out" transform="scale(0.3 0.3)">
  <a xlink:href="classlamina_1_1IntervalUnion_aa23445cfef2515c76137ac931141397e_cgraph_org.svg" target="_base">
   <rect id="button" ry="5" rx="5" y="6" x="6" height="38" width="38"
        fill="#f2f5e9" fill-opacity="0.5" stroke="#606060" stroke-width="1.0"/>
   <path id="arrow"
     d="M 11.500037,31.436501 C 11.940474,20.09759 22.043105,11.32322 32.158766,21.979434 L 37.068811,17.246167 C 37.068811,17.246167 37.088388,32 37.088388,32 L 22.160133,31.978069 C 22.160133,31.978069 26.997745,27.140456 26.997745,27.140456 C 18.528582,18.264221 13.291696,25.230495 11.500037,31.436501 z"
     style="fill:#404040;"/>
  </a>
 </g>
</svg>

<style type='text/css'>
<![CDATA[
[data-mouse-over-selected='false'] { opacity: 0.7; }
[data-mouse-over-selected='true']  { opacity: 1.0; }
]]>
</style>
<script type="application/ecmascript"><![CDATA[
document.addEventListener('DOMContentLoaded', (event) => {
  highlightEdges();
  highlightAdjacentNodes();
});
]]></script>
</svg>
