<?xml version="1.0" encoding="UTF-8" standalone="no"?>
<!DOCTYPE svg PUBLIC "-//W3C//DTD SVG 1.1//EN"
 "http://www.w3.org/Graphics/SVG/1.1/DTD/svg11.dtd">
<!-- Generated by graphviz version 2.43.0 (0)
 -->
<!-- Title: lamina::IntervalUnion::empty Pages: 1 -->
<svg width="512pt" height="305pt"
 viewBox="0.00 0.00 512.00 304.91" xmlns="http://www.w3.org/2000/svg" xmlns:xlink="http://www.w3.org/1999/xlink">
<g id="graph0" class="graph" transform="scale(1 1) rotate(0) translate(4 300.91)">
<title>lamina::IntervalUnion::empty</title>
<!-- Node1 -->
<g id="Node000001" class="node">
<title>Node1</title>
<g id="a_Node000001"><a xlink:title="构造空集">
<polygon fill="#999999" stroke="#666666" points="504,-174 382,-174 382,-144 504,-144 504,-174"/>
<text text-anchor="start" x="390" y="-162" font-family="Helvetica,sans-Serif" font-size="10.00">lamina::IntervalUnion</text>
<text text-anchor="middle" x="443" y="-151" font-family="Helvetica,sans-Serif" font-size="10.00">::empty</text>
</a>
</g>
</g>
<!-- Node2 -->
<g id="Node000002" class="node">
<title>Node2</title>
<g id="a_Node000002"><a xlink:href="../../db/d26/classlamina_1_1InequalitySolver.html#a9af1d18fde887233edcaa36e76226f94" target="_top" xlink:title=" ">
<polygon fill="white" stroke="#666666" points="346,-270 197,-270 197,-240 346,-240 346,-270"/>
<text text-anchor="start" x="205" y="-258" font-family="Helvetica,sans-Serif" font-size="10.00">lamina::InequalitySolver</text>
<text text-anchor="middle" x="271.5" y="-247" font-family="Helvetica,sans-Serif" font-size="10.00">::build_parametric_solution</text>
</a>
</g>
</g>
<!-- Node1&#45;&gt;Node2 -->
<g id="edge1_Node000001_Node000002" class="edge">
<title>Node1&#45;&gt;Node2</title>
<g id="a_edge1_Node000001_Node000002"><a xlink:title=" ">
<path fill="none" stroke="#63b8ff" d="M417.79,-180.71C399.24,-196.44 372.41,-217.27 346,-231 339.69,-234.28 332.84,-237.23 325.95,-239.85"/>
<polygon fill="#63b8ff" stroke="#63b8ff" points="420.17,-183.28 425.46,-174.11 415.6,-177.98 420.17,-183.28"/>
</a>
</g>
</g>
<!-- Node3 -->
<g id="Node000003" class="node">
<title>Node3</title>
<g id="a_Node000003"><a xlink:href="../../db/d26/classlamina_1_1InequalitySolver.html#a52f3cb8d15f7d98c4cfe1d8c39f910fc" target="_top" xlink:title="求解含参数的不等式，返回分段结果">
<polygon fill="white" stroke="#666666" points="161,-270 0,-270 0,-240 161,-240 161,-270"/>
<text text-anchor="start" x="8" y="-258" font-family="Helvetica,sans-Serif" font-size="10.00">lamina::InequalitySolver</text>
<text text-anchor="middle" x="80.5" y="-247" font-family="Helvetica,sans-Serif" font-size="10.00">::solve_parametric_inequality</text>
</a>
</g>
</g>
<!-- Node1&#45;&gt;Node3 -->
<g id="edge11_Node000001_Node000003" class="edge">
<title>Node1&#45;&gt;Node3</title>
<g id="a_edge11_Node000001_Node000003"><a xlink:title=" ">
<path fill="none" stroke="#63b8ff" d="M431.03,-183.06C416.34,-212 387.26,-259.17 346,-279 271.82,-314.65 172.49,-288.92 119.15,-270.07"/>
<polygon fill="#63b8ff" stroke="#63b8ff" points="434.21,-184.53 435.46,-174.01 427.92,-181.46 434.21,-184.53"/>
</a>
</g>
</g>
<!-- Node4 -->
<g id="Node000004" class="node">
<title>Node4</title>
<g id="a_Node000004"><a xlink:href="../../de/d2c/classlamina_1_1IntervalUnion.html#aa23445cfef2515c76137ac931141397e" target="_top" xlink:title="求补集">
<polygon fill="white" stroke="#666666" points="332.5,-222 210.5,-222 210.5,-192 332.5,-192 332.5,-222"/>
<text text-anchor="start" x="218.5" y="-210" font-family="Helvetica,sans-Serif" font-size="10.00">lamina::IntervalUnion</text>
<text text-anchor="middle" x="271.5" y="-199" font-family="Helvetica,sans-Serif" font-size="10.00">::complement</text>
</a>
</g>
</g>
<!-- Node1&#45;&gt;Node4 -->
<g id="edge4_Node000001_Node000004" class="edge">
<title>Node1&#45;&gt;Node4</title>
<g id="a_edge4_Node000001_Node000004"><a xlink:title=" ">
<path fill="none" stroke="#63b8ff" d="M379.19,-176.79C361.53,-181.79 342.5,-187.18 325.48,-192"/>
<polygon fill="#63b8ff" stroke="#63b8ff" points="380.17,-180.15 388.83,-174.06 378.26,-173.41 380.17,-180.15"/>
</a>
</g>
</g>
<!-- Node5 -->
<g id="Node000005" class="node">
<title>Node5</title>
<g id="a_Node000005"><a xlink:href="../../de/d2c/classlamina_1_1IntervalUnion.html#aa83b81b9266a6e5c3db552ea1bc6d022" target="_top" xlink:title="与另一个并集求交">
<polygon fill="white" stroke="#666666" points="332.5,-78 210.5,-78 210.5,-48 332.5,-48 332.5,-78"/>
<text text-anchor="start" x="218.5" y="-66" font-family="Helvetica,sans-Serif" font-size="10.00">lamina::IntervalUnion</text>
<text text-anchor="middle" x="271.5" y="-55" font-family="Helvetica,sans-Serif" font-size="10.00">::intersect</text>
</a>
</g>
</g>
<!-- Node1&#45;&gt;Node5 -->
<g id="edge5_Node000001_Node000005" class="edge">
<title>Node1&#45;&gt;Node5</title>
<g id="a_edge5_Node000001_Node000005"><a xlink:title=" ">
<path fill="none" stroke="#63b8ff" d="M417.79,-137.29C399.24,-121.56 372.41,-100.73 346,-87 339.69,-83.72 332.84,-80.77 325.95,-78.15"/>
<polygon fill="#63b8ff" stroke="#63b8ff" points="415.6,-140.02 425.46,-143.89 420.17,-134.72 415.6,-140.02"/>
</a>
</g>
</g>
<!-- Node7 -->
<g id="Node000007" class="node">
<title>Node7</title>
<g id="a_Node000007"><a xlink:href="../../de/d2c/classlamina_1_1IntervalUnion.html#a9e38024922cb0ecbd306a0d45859c64e" target="_top" xlink:title="从字符串解析区间并集">
<polygon fill="white" stroke="#666666" points="332.5,-126 210.5,-126 210.5,-96 332.5,-96 332.5,-126"/>
<text text-anchor="start" x="218.5" y="-114" font-family="Helvetica,sans-Serif" font-size="10.00">lamina::IntervalUnion</text>
<text text-anchor="middle" x="271.5" y="-103" font-family="Helvetica,sans-Serif" font-size="10.00">::parse</text>
</a>
</g>
</g>
<!-- Node1&#45;&gt;Node7 -->
<g id="edge7_Node000001_Node000007" class="edge">
<title>Node1&#45;&gt;Node7</title>
<g id="a_edge7_Node000001_Node000007"><a xlink:title=" ">
<path fill="none" stroke="#63b8ff" d="M379.19,-141.21C361.53,-136.21 342.5,-130.82 325.48,-126"/>
<polygon fill="#63b8ff" stroke="#63b8ff" points="378.26,-144.59 388.83,-143.94 380.17,-137.85 378.26,-144.59"/>
</a>
</g>
</g>
<!-- Node8 -->
<g id="Node000008" class="node">
<title>Node8</title>
<g id="a_Node000008"><a xlink:href="../../db/d26/classlamina_1_1InequalitySolver.html#ad7aab28f2d96ad0eb07ff291a650afb8" target="_top" xlink:title="求解单个不等式">
<polygon fill="white" stroke="#666666" points="339.5,-174 203.5,-174 203.5,-144 339.5,-144 339.5,-174"/>
<text text-anchor="start" x="211.5" y="-162" font-family="Helvetica,sans-Serif" font-size="10.00">lamina::InequalitySolver</text>
<text text-anchor="middle" x="271.5" y="-151" font-family="Helvetica,sans-Serif" font-size="10.00">::solve_inequality</text>
</a>
</g>
</g>
<!-- Node1&#45;&gt;Node8 -->
<g id="edge8_Node000001_Node000008" class="edge">
<title>Node1&#45;&gt;Node8</title>
<g id="a_edge8_Node000001_Node000008"><a xlink:title=" ">
<path fill="none" stroke="#63b8ff" d="M371.74,-159C361.16,-159 350.27,-159 339.75,-159"/>
<polygon fill="#63b8ff" stroke="#63b8ff" points="371.76,-162.5 381.76,-159 371.76,-155.5 371.76,-162.5"/>
</a>
</g>
</g>
<!-- Node9 -->
<g id="Node000009" class="node">
<title>Node9</title>
<g id="a_Node000009"><a xlink:href="../../db/d26/classlamina_1_1InequalitySolver.html#a2244f0ce0ad6b3b5781a8c7ced636447" target="_top" xlink:title="求解有理不等式 numerator/denominator ≷ 0">
<polygon fill="white" stroke="#666666" points="344.5,-30 198.5,-30 198.5,0 344.5,0 344.5,-30"/>
<text text-anchor="start" x="206.5" y="-18" font-family="Helvetica,sans-Serif" font-size="10.00">lamina::InequalitySolver</text>
<text text-anchor="middle" x="271.5" y="-7" font-family="Helvetica,sans-Serif" font-size="10.00">::solve_rational_inequality</text>
</a>
</g>
</g>
<!-- Node1&#45;&gt;Node9 -->
<g id="edge12_Node000001_Node000009" class="edge">
<title>Node1&#45;&gt;Node9</title>
<g id="a_edge12_Node000001_Node000009"><a xlink:title=" ">
<path fill="none" stroke="#63b8ff" d="M428.62,-134.91C412.42,-107.85 382.69,-64.41 346,-39 341.03,-35.56 335.54,-32.59 329.87,-30.03"/>
<polygon fill="#63b8ff" stroke="#63b8ff" points="425.71,-136.87 433.78,-143.74 431.76,-133.34 425.71,-136.87"/>
</a>
</g>
</g>
<!-- Node2&#45;&gt;Node3 -->
<g id="edge2_Node000002_Node000003" class="edge">
<title>Node2&#45;&gt;Node3</title>
<g id="a_edge2_Node000002_Node000003"><a xlink:title=" ">
<path fill="none" stroke="#63b8ff" d="M186.64,-255C178.17,-255 169.59,-255 161.17,-255"/>
<polygon fill="#63b8ff" stroke="#63b8ff" points="186.89,-258.5 196.89,-255 186.89,-251.5 186.89,-258.5"/>
</a>
</g>
</g>
<!-- Node3&#45;&gt;Node3 -->
<g id="edge3_Node000003_Node000003" class="edge">
<title>Node3&#45;&gt;Node3</title>
<g id="a_edge3_Node000003_Node000003"><a xlink:title=" ">
<path fill="none" stroke="#63b8ff" d="M113.76,-280.6C109.21,-284.97 98.13,-288 80.5,-288 50.81,-288 39.68,-279.41 47.1,-270.28"/>
<polygon fill="#63b8ff" stroke="#63b8ff" points="117.26,-280.32 113.9,-270.28 110.26,-280.23 117.26,-280.32"/>
</a>
</g>
</g>
<!-- Node6 -->
<g id="Node000006" class="node">
<title>Node6</title>
<g id="a_Node000006"><a xlink:href="../../db/d26/classlamina_1_1InequalitySolver.html#ac97e2561a906111e54c90d494d0fef92" target="_top" xlink:title="求解不等式组（取交集）">
<polygon fill="white" stroke="#666666" points="148.5,-126 12.5,-126 12.5,-96 148.5,-96 148.5,-126"/>
<text text-anchor="start" x="20.5" y="-114" font-family="Helvetica,sans-Serif" font-size="10.00">lamina::InequalitySolver</text>
<text text-anchor="middle" x="80.5" y="-103" font-family="Helvetica,sans-Serif" font-size="10.00">::solve_inequalities</text>
</a>
</g>
</g>
<!-- Node5&#45;&gt;Node6 -->
<g id="edge6_Node000005_Node000006" class="edge">
<title>Node5&#45;&gt;Node6</title>
<g id="a_edge6_Node000005_Node000006"><a xlink:title=" ">
<path fill="none" stroke="#63b8ff" d="M201.28,-80.58C181.36,-85.64 159.82,-91.11 140.57,-96"/>
<polygon fill="#63b8ff" stroke="#63b8ff" points="202.39,-83.91 211.22,-78.06 200.66,-77.13 202.39,-83.91"/>
</a>
</g>
</g>
<!-- Node8&#45;&gt;Node3 -->
<g id="edge10_Node000008_Node000003" class="edge">
<title>Node8&#45;&gt;Node3</title>
<g id="a_edge10_Node000008_Node000003"><a xlink:title=" ">
<path fill="none" stroke="#63b8ff" d="M209.47,-177.65C205.2,-179.34 201.01,-181.13 197,-183 162.1,-199.28 124.82,-224.02 102.33,-239.84"/>
<polygon fill="#63b8ff" stroke="#63b8ff" points="210.76,-180.9 218.88,-174.1 208.29,-174.36 210.76,-180.9"/>
</a>
</g>
</g>
<!-- Node8&#45;&gt;Node6 -->
<g id="edge9_Node000008_Node000006" class="edge">
<title>Node8&#45;&gt;Node6</title>
<g id="a_edge9_Node000008_Node000006"><a xlink:title=" ">
<path fill="none" stroke="#63b8ff" d="M201.28,-141.42C181.36,-136.36 159.82,-130.89 140.57,-126"/>
<polygon fill="#63b8ff" stroke="#63b8ff" points="200.66,-144.87 211.22,-143.94 202.39,-138.09 200.66,-144.87"/>
</a>
</g>
</g>
</g>
</svg>
