<?xml version="1.0" encoding="UTF-8" standalone="no"?>
<!DOCTYPE svg PUBLIC "-//W3C//DTD SVG 1.1//EN"
 "http://www.w3.org/Graphics/SVG/1.1/DTD/svg11.dtd">
<!-- Generated by graphviz version 2.43.0 (0)
 -->
<!-- Title: include/lammp/impl/longlong.h Pages: 1 -->
<!--zoomable 159 -->

<svg id="main" version="1.1" xmlns="http://www.w3.org/2000/svg" xmlns:xlink="http://www.w3.org/1999/xlink" xml:space="preserve" onload="init(evt)">
<style type="text/css"><![CDATA[
.node, .edge {opacity: 0.7;}
.node.selected, .edge.selected {opacity: 1;}
.edge:hover path { stroke: red; }
.edge:hover polygon { stroke: red; fill: red; }
]]></style>

<defs>
  <circle id="rim" cx="0" cy="0" r="7"/>
  <circle id="rim2" cx="0" cy="0" r="3.5"/>
  <g id="zoomPlus">
    <use xlink:href="#rim" fill="#404040"><set attributeName="fill" to="#808080" begin="zoomplus.mouseover" end="zoomplus.mouseout"/></use>
    <path d="M-4,0h8M0,-4v8" fill="none" stroke="white" stroke-width="1.5" pointer-events="none"/>
  </g>
  <g id="zoomMin">
    <use xlink:href="#rim" fill="#404040"><set attributeName="fill" to="#808080" begin="zoomminus.mouseover" end="zoomminus.mouseout"/></use>
    <path d="M-4,0h8" fill="none" stroke="white" stroke-width="1.5" pointer-events="none"/>
  </g>
  <g id="arrowUp" transform="translate(30 24)">
    <use xlink:href="#rim"/>
    <path pointer-events="none" fill="none" stroke="white" stroke-width="1.5" d="M0,-3.0v7 M-2.5,-0.5L0,-3.0L2.5,-0.5"/>
  </g>
  <g id="arrowRight" transform="rotate(90) translate(36 -43)">
    <use xlink:href="#rim"/>
    <path pointer-events="none" fill="none" stroke="white" stroke-width="1.5" d="M0,-3.0v7 M-2.5,-0.5L0,-3.0L2.5,-0.5"/>
  </g>
  <g id="arrowDown" transform="rotate(180) translate(-30 -48)">
    <use xlink:href="#rim"/>
    <path pointer-events="none" fill="none" stroke="white" stroke-width="1.5" d="M0,-3.0v7 M-2.5,-0.5L0,-3.0L2.5,-0.5"/>
  </g>
  <g id="arrowLeft" transform="rotate(270) translate(-36 17)">
    <use xlink:href="#rim"/>
    <path pointer-events="none" fill="none" stroke="white" stroke-width="1.5" d="M0,-3.0v7 M-2.5,-0.5L0,-3.0L2.5,-0.5"/>
  </g>
  <g id="resetDef">
    <use xlink:href="#rim2" fill="#404040"><set attributeName="fill" to="#808080" begin="reset.mouseover" end="reset.mouseout"/></use>
  </g>
</defs>
<script type="application/ecmascript">
var viewWidth = 2046;
var viewHeight = 159;
var sectionId = 'dynsection-1';
</script>
<script type="application/ecmascript" xlink:href="../../svg.min.js"/>
<svg id="graph" class="graph">
<g id="viewport">
<title>include/lammp/impl/longlong.h</title>
<!-- Node1 -->
<g id="Node000001" class="node">
<title>Node1</title>
<g id="a_Node000001"><a xlink:title=" ">
<polygon fill="#999999" stroke="#666666" points="1106,-151 992,-151 992,-121 1106,-121 1106,-151"/>
<text text-anchor="start" x="1000" y="-139" font-family="Helvetica,sans-Serif" font-size="10.00">include/lammp/impl</text>
<text text-anchor="middle" x="1049" y="-128" font-family="Helvetica,sans-Serif" font-size="10.00">/longlong.h</text>
</a>
</g>
</g>
<!-- Node2 -->
<g id="Node000002" class="node">
<title>Node2</title>
<g id="a_Node000002"><a xlink:href="../../dc/da5/rand__state_8h.html" target="_top" xlink:title=" ">
<polygon fill="white" stroke="#666666" points="136,-85 22,-85 22,-55 136,-55 136,-85"/>
<text text-anchor="start" x="30" y="-73" font-family="Helvetica,sans-Serif" font-size="10.00">include/lammp/impl</text>
<text text-anchor="middle" x="79" y="-62" font-family="Helvetica,sans-Serif" font-size="10.00">/rand_state.h</text>
</a>
</g>
</g>
<!-- Node1&#45;&gt;Node2 -->
<g id="edge1_Node000001_Node000002" class="edge">
<title>Node1&#45;&gt;Node2</title>
<g id="a_edge1_Node000001_Node000002"><a xlink:title=" ">
<path fill="none" stroke="#63b8ff" d="M981.85,-134.81C831.36,-133.61 455.91,-126.32 145,-85 142.1,-84.61 139.13,-84.17 136.14,-83.68"/>
<polygon fill="#63b8ff" stroke="#63b8ff" points="981.84,-138.31 991.86,-134.88 981.89,-131.31 981.84,-138.31"/>
</a>
</g>
</g>
<!-- Node4 -->
<g id="Node000004" class="node">
<title>Node4</title>
<g id="a_Node000004"><a xlink:href="../../df/db3/arith__seqprod_8c.html" target="_top" xlink:title=" ">
<polygon fill="white" stroke="#666666" points="286,-85 154,-85 154,-55 286,-55 286,-85"/>
<text text-anchor="start" x="162" y="-73" font-family="Helvetica,sans-Serif" font-size="10.00">src/lammp/NumTh/arith</text>
<text text-anchor="middle" x="220" y="-62" font-family="Helvetica,sans-Serif" font-size="10.00">_seqprod.c</text>
</a>
</g>
</g>
<!-- Node1&#45;&gt;Node4 -->
<g id="edge3_Node000001_Node000004" class="edge">
<title>Node1&#45;&gt;Node4</title>
<g id="a_edge3_Node000001_Node000004"><a xlink:title=" ">
<path fill="none" stroke="#63b8ff" d="M981.17,-133.19C848.79,-129.07 546.87,-116.75 295,-85 292.11,-84.64 289.16,-84.23 286.19,-83.79"/>
<polygon fill="#63b8ff" stroke="#63b8ff" points="981.45,-136.7 991.55,-133.51 981.66,-129.7 981.45,-136.7"/>
</a>
</g>
</g>
<!-- Node5 -->
<g id="Node000005" class="node">
<title>Node5</title>
<g id="a_Node000005"><a xlink:href="../../df/dea/binvert__1_8c.html" target="_top" xlink:title=" ">
<polygon fill="white" stroke="#666666" points="468,-79.5 304,-79.5 304,-60.5 468,-60.5 468,-79.5"/>
<text text-anchor="middle" x="386" y="-67.5" font-family="Helvetica,sans-Serif" font-size="10.00">src/lammp/NumTh/binvert_1.c</text>
</a>
</g>
</g>
<!-- Node1&#45;&gt;Node5 -->
<g id="edge4_Node000001_Node000005" class="edge">
<title>Node1&#45;&gt;Node5</title>
<g id="a_edge4_Node000001_Node000005"><a xlink:title=" ">
<path fill="none" stroke="#63b8ff" d="M981.61,-130.54C874.51,-123.14 658.92,-106.92 477,-85 464.15,-83.45 450.32,-81.48 437.41,-79.51"/>
<polygon fill="#63b8ff" stroke="#63b8ff" points="981.42,-134.04 991.63,-131.23 981.9,-127.06 981.42,-134.04"/>
</a>
</g>
</g>
<!-- Node6 -->
<g id="Node000006" class="node">
<title>Node6</title>
<g id="a_Node000006"><a xlink:href="../../da/d9a/gcd__2_8c.html" target="_top" xlink:title=" ">
<polygon fill="white" stroke="#666666" points="632,-79.5 486,-79.5 486,-60.5 632,-60.5 632,-79.5"/>
<text text-anchor="middle" x="559" y="-67.5" font-family="Helvetica,sans-Serif" font-size="10.00">src/lammp/NumTh/gcd_2.c</text>
</a>
</g>
</g>
<!-- Node1&#45;&gt;Node6 -->
<g id="edge5_Node000001_Node000006" class="edge">
<title>Node1&#45;&gt;Node6</title>
<g id="a_edge5_Node000001_Node000006"><a xlink:title=" ">
<path fill="none" stroke="#63b8ff" d="M981.73,-127.74C900.74,-118.77 760.68,-102.54 641,-85 629.85,-83.37 617.89,-81.43 606.64,-79.52"/>
<polygon fill="#63b8ff" stroke="#63b8ff" points="981.46,-131.23 991.79,-128.85 982.23,-124.27 981.46,-131.23"/>
</a>
</g>
</g>
<!-- Node7 -->
<g id="Node000007" class="node">
<title>Node7</title>
<g id="a_Node000007"><a xlink:href="../../da/dfb/is__prime__ulong_8c.html" target="_top" xlink:title=" ">
<polygon fill="white" stroke="#666666" points="768,-85 650,-85 650,-55 768,-55 768,-85"/>
<text text-anchor="start" x="658" y="-73" font-family="Helvetica,sans-Serif" font-size="10.00">src/lammp/NumTh/is</text>
<text text-anchor="middle" x="709" y="-62" font-family="Helvetica,sans-Serif" font-size="10.00">_prime_ulong.c</text>
</a>
</g>
</g>
<!-- Node1&#45;&gt;Node7 -->
<g id="edge6_Node000001_Node000007" class="edge">
<title>Node1&#45;&gt;Node7</title>
<g id="a_edge6_Node000001_Node000007"><a xlink:title=" ">
<path fill="none" stroke="#63b8ff" d="M981.89,-122.96C927.01,-113.03 847.42,-98.45 778,-85 774.76,-84.37 771.44,-83.72 768.08,-83.06"/>
<polygon fill="#63b8ff" stroke="#63b8ff" points="981.38,-126.42 991.85,-124.76 982.63,-119.54 981.38,-126.42"/>
</a>
</g>
</g>
<!-- Node8 -->
<g id="Node000008" class="node">
<title>Node8</title>
<g id="a_Node000008"><a xlink:href="../../d5/d56/multinomial_8c.html" target="_top" xlink:title=" ">
<polygon fill="white" stroke="#666666" points="963.5,-79.5 786.5,-79.5 786.5,-60.5 963.5,-60.5 963.5,-79.5"/>
<text text-anchor="middle" x="875" y="-67.5" font-family="Helvetica,sans-Serif" font-size="10.00">src/lammp/NumTh/multinomial.c</text>
</a>
</g>
</g>
<!-- Node1&#45;&gt;Node8 -->
<g id="edge7_Node000001_Node000008" class="edge">
<title>Node1&#45;&gt;Node8</title>
<g id="a_edge7_Node000001_Node000008"><a xlink:title=" ">
<path fill="none" stroke="#63b8ff" d="M1001.2,-117.42C967.68,-105.09 924.34,-89.15 898.16,-79.52"/>
<polygon fill="#63b8ff" stroke="#63b8ff" points="1000.22,-120.79 1010.81,-120.95 1002.64,-114.22 1000.22,-120.79"/>
</a>
</g>
</g>
<!-- Node9 -->
<g id="Node000009" class="node">
<title>Node9</title>
<g id="a_Node000009"><a xlink:href="../../dd/ded/nCr_8c.html" target="_top" xlink:title=" ">
<polygon fill="white" stroke="#666666" points="1116,-79.5 982,-79.5 982,-60.5 1116,-60.5 1116,-79.5"/>
<text text-anchor="middle" x="1049" y="-67.5" font-family="Helvetica,sans-Serif" font-size="10.00">src/lammp/NumTh/nCr.c</text>
</a>
</g>
</g>
<!-- Node1&#45;&gt;Node9 -->
<g id="edge8_Node000001_Node000009" class="edge">
<title>Node1&#45;&gt;Node9</title>
<g id="a_edge8_Node000001_Node000009"><a xlink:title=" ">
<path fill="none" stroke="#63b8ff" d="M1049,-110.6C1049,-99.8 1049,-87.78 1049,-79.84"/>
<polygon fill="#63b8ff" stroke="#63b8ff" points="1045.5,-110.8 1049,-120.8 1052.5,-110.8 1045.5,-110.8"/>
</a>
</g>
</g>
<!-- Node10 -->
<g id="Node000010" class="node">
<title>Node10</title>
<g id="a_Node000010"><a xlink:href="../../dc/d74/nPr_8c.html" target="_top" xlink:title=" ">
<polygon fill="white" stroke="#666666" points="1267.5,-79.5 1134.5,-79.5 1134.5,-60.5 1267.5,-60.5 1267.5,-79.5"/>
<text text-anchor="middle" x="1201" y="-67.5" font-family="Helvetica,sans-Serif" font-size="10.00">src/lammp/NumTh/nPr.c</text>
</a>
</g>
</g>
<!-- Node1&#45;&gt;Node10 -->
<g id="edge9_Node000001_Node000010" class="edge">
<title>Node1&#45;&gt;Node10</title>
<g id="a_edge9_Node000001_Node000010"><a xlink:title=" ">
<path fill="none" stroke="#63b8ff" d="M1091.89,-116.94C1121.01,-104.68 1158.19,-89.02 1180.77,-79.52"/>
<polygon fill="#63b8ff" stroke="#63b8ff" points="1090.22,-113.85 1082.36,-120.95 1092.93,-120.3 1090.22,-113.85"/>
</a>
</g>
</g>
<!-- Node11 -->
<g id="Node000011" class="node">
<title>Node11</title>
<g id="a_Node000011"><a xlink:href="../../d8/df4/generic_2div_8c.html" target="_top" xlink:title=" ">
<polygon fill="white" stroke="#666666" points="1418.5,-79.5 1285.5,-79.5 1285.5,-60.5 1418.5,-60.5 1418.5,-79.5"/>
<text text-anchor="middle" x="1352" y="-67.5" font-family="Helvetica,sans-Serif" font-size="10.00">src/lammp/generic/div.c</text>
</a>
</g>
</g>
<!-- Node1&#45;&gt;Node11 -->
<g id="edge10_Node000001_Node000011" class="edge">
<title>Node1&#45;&gt;Node11</title>
<g id="a_edge10_Node000001_Node000011"><a xlink:title=" ">
<path fill="none" stroke="#63b8ff" d="M1116.45,-120.75C1176.21,-108.13 1261.5,-90.12 1311.37,-79.58"/>
<polygon fill="#63b8ff" stroke="#63b8ff" points="1115.41,-117.4 1106.35,-122.89 1116.86,-124.24 1115.41,-117.4"/>
</a>
</g>
</g>
<!-- Node12 -->
<g id="Node000012" class="node">
<title>Node12</title>
<g id="a_Node000012"><a xlink:href="../../df/db6/generic_2inv_8c.html" target="_top" xlink:title=" ">
<polygon fill="white" stroke="#666666" points="1569.5,-79.5 1436.5,-79.5 1436.5,-60.5 1569.5,-60.5 1569.5,-79.5"/>
<text text-anchor="middle" x="1503" y="-67.5" font-family="Helvetica,sans-Serif" font-size="10.00">src/lammp/generic/inv.c</text>
</a>
</g>
</g>
<!-- Node1&#45;&gt;Node12 -->
<g id="edge11_Node000001_Node000012" class="edge">
<title>Node1&#45;&gt;Node12</title>
<g id="a_edge11_Node000001_Node000012"><a xlink:title=" ">
<path fill="none" stroke="#63b8ff" d="M1116.65,-127.18C1192.59,-118.14 1319.39,-102.29 1428,-85 1438.2,-83.38 1449.15,-81.44 1459.44,-79.54"/>
<polygon fill="#63b8ff" stroke="#63b8ff" points="1115.8,-123.76 1106.28,-128.41 1116.63,-130.71 1115.8,-123.76"/>
</a>
</g>
</g>
<!-- Node13 -->
<g id="Node000013" class="node">
<title>Node13</title>
<g id="a_Node000013"><a xlink:href="../../d2/dce/mul__1_8c.html" target="_top" xlink:title=" ">
<polygon fill="white" stroke="#666666" points="1736.5,-79.5 1587.5,-79.5 1587.5,-60.5 1736.5,-60.5 1736.5,-79.5"/>
<text text-anchor="middle" x="1662" y="-67.5" font-family="Helvetica,sans-Serif" font-size="10.00">src/lammp/generic/mul_1.c</text>
</a>
</g>
</g>
<!-- Node1&#45;&gt;Node13 -->
<g id="edge12_Node000001_Node000013" class="edge">
<title>Node1&#45;&gt;Node13</title>
<g id="a_edge12_Node000001_Node000013"><a xlink:title=" ">
<path fill="none" stroke="#63b8ff" d="M1116.05,-130.25C1216.8,-122.76 1413.11,-106.79 1579,-85 1590.74,-83.46 1603.35,-81.49 1615.12,-79.52"/>
<polygon fill="#63b8ff" stroke="#63b8ff" points="1115.73,-126.77 1106.02,-130.99 1116.25,-133.75 1115.73,-126.77"/>
</a>
</g>
</g>
<!-- Node14 -->
<g id="Node000014" class="node">
<title>Node14</title>
<g id="a_Node000014"><a xlink:href="../../dd/d9e/mul__basecase_8c.html" target="_top" xlink:title=" ">
<polygon fill="white" stroke="#666666" points="1883.5,-85 1754.5,-85 1754.5,-55 1883.5,-55 1883.5,-85"/>
<text text-anchor="start" x="1762.5" y="-73" font-family="Helvetica,sans-Serif" font-size="10.00">src/lammp/generic/mul</text>
<text text-anchor="middle" x="1819" y="-62" font-family="Helvetica,sans-Serif" font-size="10.00">_basecase.c</text>
</a>
</g>
</g>
<!-- Node1&#45;&gt;Node14 -->
<g id="edge13_Node000001_Node000014" class="edge">
<title>Node1&#45;&gt;Node14</title>
<g id="a_edge13_Node000001_Node000014"><a xlink:title=" ">
<path fill="none" stroke="#63b8ff" d="M1116.3,-132.81C1240.98,-128.17 1516.1,-115.18 1746,-85 1748.69,-84.65 1751.42,-84.26 1754.19,-83.84"/>
<polygon fill="#63b8ff" stroke="#63b8ff" points="1116.01,-129.32 1106.15,-133.18 1116.27,-136.31 1116.01,-129.32"/>
</a>
</g>
</g>
<!-- Node15 -->
<g id="Node000015" class="node">
<title>Node15</title>
<g id="a_Node000015"><a xlink:href="../../da/de8/tiny_8c.html" target="_top" xlink:title=" ">
<polygon fill="white" stroke="#666666" points="2038,-79.5 1902,-79.5 1902,-60.5 2038,-60.5 2038,-79.5"/>
<text text-anchor="middle" x="1970" y="-67.5" font-family="Helvetica,sans-Serif" font-size="10.00">src/lammp/generic/tiny.c</text>
</a>
</g>
</g>
<!-- Node1&#45;&gt;Node15 -->
<g id="edge14_Node000001_Node000015" class="edge">
<title>Node1&#45;&gt;Node15</title>
<g id="a_edge14_Node000001_Node000015"><a xlink:title=" ">
<path fill="none" stroke="#63b8ff" d="M1116.39,-133.77C1259.77,-130.54 1605.44,-119.53 1893,-85 1904.47,-83.62 1916.81,-81.62 1928.18,-79.55"/>
<polygon fill="#63b8ff" stroke="#63b8ff" points="1115.93,-130.28 1106.01,-133.99 1116.09,-137.27 1115.93,-130.28"/>
</a>
</g>
</g>
<!-- Node3 -->
<g id="Node000003" class="node">
<title>Node3</title>
<g id="a_Node000003"><a xlink:href="../../df/de3/mprand_8c.html" target="_top" xlink:title=" ">
<polygon fill="white" stroke="#666666" points="158,-19 0,-19 0,0 158,0 158,-19"/>
<text text-anchor="middle" x="79" y="-7" font-family="Helvetica,sans-Serif" font-size="10.00">src/lammp/mprand/mprand.c</text>
</a>
</g>
</g>
<!-- Node2&#45;&gt;Node3 -->
<g id="edge2_Node000002_Node000003" class="edge">
<title>Node2&#45;&gt;Node3</title>
<g id="a_edge2_Node000002_Node000003"><a xlink:title=" ">
<path fill="none" stroke="#63b8ff" d="M79,-44.75C79,-35.72 79,-26.03 79,-19.27"/>
<polygon fill="#63b8ff" stroke="#63b8ff" points="75.5,-44.84 79,-54.84 82.5,-44.84 75.5,-44.84"/>
</a>
</g>
</g>
</g>
</svg>

<g id="navigator" transform="translate(0 0)" fill="#404254">
  <rect fill="#f2f5e9" fill-opacity="0.5" stroke="#606060" stroke-width=".5" x="0" y="0" width="60" height="60"/>
  <use id="zoomplus" xlink:href="#zoomPlus" x="17" y="9" onmousedown="handleZoom(evt,'in')"/>
  <use id="zoomminus" xlink:href="#zoomMin" x="42" y="9" onmousedown="handleZoom(evt,'out')"/>
  <use id="reset" xlink:href="#resetDef" x="30" y="36" onmousedown="handleReset()"/>
   <use id="arrowup" xlink:href="#arrowUp" x="0" y="0" onmousedown="handlePan(0,-1)"/>
  <use id="arrowright" xlink:href="#arrowRight" x="0" y="0" onmousedown="handlePan(1,0)"/>
  <use id="arrowdown" xlink:href="#arrowDown" x="0" y="0" onmousedown="handlePan(0,1)"/>
  <use id="arrowleft" xlink:href="#arrowLeft" x="0" y="0" onmousedown="handlePan(-1,0)"/>
</g>
<svg viewBox="0 0 15 15" width="100%" height="30px" preserveAspectRatio="xMaxYMin meet">
 <g id="arrow_out" transform="scale(0.3 0.3)">
  <a xlink:href="longlong_8h__dep__incl_org.svg" target="_base">
   <rect id="button" ry="5" rx="5" y="6" x="6" height="38" width="38"
        fill="#f2f5e9" fill-opacity="0.5" stroke="#606060" stroke-width="1.0"/>
   <path id="arrow"
     d="M 11.500037,31.436501 C 11.940474,20.09759 22.043105,11.32322 32.158766,21.979434 L 37.068811,17.246167 C 37.068811,17.246167 37.088388,32 37.088388,32 L 22.160133,31.978069 C 22.160133,31.978069 26.997745,27.140456 26.997745,27.140456 C 18.528582,18.264221 13.291696,25.230495 11.500037,31.436501 z"
     style="fill:#404040;"/>
  </a>
 </g>
</svg>

<style type='text/css'>
<![CDATA[
[data-mouse-over-selected='false'] { opacity: 0.7; }
[data-mouse-over-selected='true']  { opacity: 1.0; }
]]>
</style>
<script type="application/ecmascript"><![CDATA[
document.addEventListener('DOMContentLoaded', (event) => {
  highlightEdges();
  highlightAdjacentNodes();
});
]]></script>
</svg>
