<?xml version="1.0" encoding="UTF-8" standalone="no"?>
<!DOCTYPE svg PUBLIC "-//W3C//DTD SVG 1.1//EN"
 "http://www.w3.org/Graphics/SVG/1.1/DTD/svg11.dtd">
<!-- Generated by graphviz version 2.43.0 (0)
 -->
<!-- Title: lamina::Solver::solve_linear_system Pages: 1 -->
<svg width="676pt" height="365pt"
 viewBox="0.00 0.00 676.00 365.44" xmlns="http://www.w3.org/2000/svg" xmlns:xlink="http://www.w3.org/1999/xlink">
<g id="graph0" class="graph" transform="scale(1 1) rotate(0) translate(4 361.44)">
<title>lamina::Solver::solve_linear_system</title>
<!-- Node1 -->
<g id="Node000001" class="node">
<title>Node1</title>
<g id="a_Node000001"><a xlink:title="求解线性方程组。">
<polygon fill="#999999" stroke="#666666" points="119,-240.5 0,-240.5 0,-210.5 119,-210.5 119,-240.5"/>
<text text-anchor="start" x="8" y="-228.5" font-family="Helvetica,sans-Serif" font-size="10.00">lamina::Solver::solve</text>
<text text-anchor="middle" x="59.5" y="-217.5" font-family="Helvetica,sans-Serif" font-size="10.00">_linear_system</text>
</a>
</g>
</g>
<!-- Node2 -->
<g id="Node000002" class="node">
<title>Node2</title>
<g id="a_Node000002"><a xlink:href="../../d6/db0/classSymbolicFactory.html#ab9193b63564a64ab94045fa10e45f149" target="_top" xlink:title="创建加法节点，自动扁平化嵌套加法并消除零项。">
<polygon fill="white" stroke="#666666" points="499,-216 343,-216 343,-197 499,-197 499,-216"/>
<text text-anchor="middle" x="421" y="-204" font-family="Helvetica,sans-Serif" font-size="10.00">SymbolicFactory::create_add</text>
</a>
</g>
</g>
<!-- Node1&#45;&gt;Node2 -->
<g id="edge1_Node000001_Node000002" class="edge">
<title>Node1&#45;&gt;Node2</title>
<g id="a_edge1_Node000001_Node000002"><a xlink:title=" ">
<path fill="none" stroke="#63b8ff" d="M119.06,-222.41C177.06,-219.34 266.58,-214.61 332.92,-211.1"/>
<polygon fill="#63b8ff" stroke="#63b8ff" points="333.15,-214.6 342.95,-210.57 332.78,-207.61 333.15,-214.6"/>
</a>
</g>
</g>
<!-- Node3 -->
<g id="Node000003" class="node">
<title>Node3</title>
<g id="a_Node000003"><a xlink:href="../../d6/db0/classSymbolicFactory.html#ae5389b9fe65a2b6c15996a29c0314396" target="_top" xlink:title="创建大整数数值节点。">
<polygon fill="white" stroke="#666666" points="668,-317.5 535,-317.5 535,-287.5 668,-287.5 668,-317.5"/>
<text text-anchor="start" x="543" y="-305.5" font-family="Helvetica,sans-Serif" font-size="10.00">SymbolicFactory::create</text>
<text text-anchor="middle" x="601.5" y="-294.5" font-family="Helvetica,sans-Serif" font-size="10.00">_number</text>
</a>
</g>
</g>
<!-- Node1&#45;&gt;Node3 -->
<g id="edge5_Node000001_Node000003" class="edge">
<title>Node1&#45;&gt;Node3</title>
<g id="a_edge5_Node000001_Node000003"><a xlink:title=" ">
<path fill="none" stroke="#63b8ff" d="M74.37,-240.53C91.58,-258.26 122.64,-287.36 155,-303.5 231.89,-341.83 257.68,-338.43 343,-348.5 411.86,-356.63 431.23,-363.14 499,-348.5 522.56,-343.41 547.24,-332.38 566.36,-322.39"/>
<polygon fill="#63b8ff" stroke="#63b8ff" points="568.11,-325.42 575.27,-317.6 564.8,-319.25 568.11,-325.42"/>
</a>
</g>
</g>
<!-- Node4 -->
<g id="Node000004" class="node">
<title>Node4</title>
<g id="a_Node000004"><a xlink:href="../../d6/db0/classSymbolicFactory.html#a3c8860af8deed80da97fcb7256d270be" target="_top" xlink:title="创建乘法节点，自动扁平化嵌套乘法并消除单位元。">
<polygon fill="white" stroke="#666666" points="487.5,-339.5 354.5,-339.5 354.5,-309.5 487.5,-309.5 487.5,-339.5"/>
<text text-anchor="start" x="362.5" y="-327.5" font-family="Helvetica,sans-Serif" font-size="10.00">SymbolicFactory::create</text>
<text text-anchor="middle" x="421" y="-316.5" font-family="Helvetica,sans-Serif" font-size="10.00">_multiply</text>
</a>
</g>
</g>
<!-- Node1&#45;&gt;Node4 -->
<g id="edge3_Node000001_Node000004" class="edge">
<title>Node1&#45;&gt;Node4</title>
<g id="a_edge3_Node000001_Node000004"><a xlink:title=" ">
<path fill="none" stroke="#63b8ff" d="M87.02,-240.68C105.54,-250.72 131.14,-263.45 155,-271.5 217.13,-292.45 290.39,-306.32 344.12,-314.6"/>
<polygon fill="#63b8ff" stroke="#63b8ff" points="343.85,-318.1 354.26,-316.13 344.89,-311.17 343.85,-318.1"/>
</a>
</g>
</g>
<!-- Node5 -->
<g id="Node000005" class="node">
<title>Node5</title>
<g id="a_Node000005"><a xlink:href="../../d6/db0/classSymbolicFactory.html#a26d73bee3ae5c9b4140a40093ec6ee8e" target="_top" xlink:title="创建变量节点。">
<polygon fill="white" stroke="#666666" points="487.5,-178.5 354.5,-178.5 354.5,-148.5 487.5,-148.5 487.5,-178.5"/>
<text text-anchor="start" x="362.5" y="-166.5" font-family="Helvetica,sans-Serif" font-size="10.00">SymbolicFactory::create</text>
<text text-anchor="middle" x="421" y="-155.5" font-family="Helvetica,sans-Serif" font-size="10.00">_variable</text>
</a>
</g>
</g>
<!-- Node1&#45;&gt;Node5 -->
<g id="edge6_Node000001_Node000005" class="edge">
<title>Node1&#45;&gt;Node5</title>
<g id="a_edge6_Node000001_Node000005"><a xlink:title=" ">
<path fill="none" stroke="#63b8ff" d="M119.21,-214.85C131.06,-212.72 143.42,-210.52 155,-208.5 218.81,-197.34 291.33,-185.06 344.35,-176.14"/>
<polygon fill="#63b8ff" stroke="#63b8ff" points="345.07,-179.57 354.36,-174.46 343.91,-172.67 345.07,-179.57"/>
</a>
</g>
</g>
<!-- Node6 -->
<g id="Node000006" class="node">
<title>Node6</title>
<g id="a_Node000006"><a xlink:href="../../d1/d42/namespacelamina.html#ae7b0ac83faa7f2075065934ce0f5286a" target="_top" xlink:title="对增广矩阵进行高斯消元">
<polygon fill="white" stroke="#666666" points="307,-93 155,-93 155,-74 307,-74 307,-93"/>
<text text-anchor="middle" x="231" y="-81" font-family="Helvetica,sans-Serif" font-size="10.00">lamina::gaussian_eliminate</text>
</a>
</g>
</g>
<!-- Node1&#45;&gt;Node6 -->
<g id="edge7_Node000001_Node000006" class="edge">
<title>Node1&#45;&gt;Node6</title>
<g id="a_edge7_Node000001_Node000006"><a xlink:title=" ">
<path fill="none" stroke="#63b8ff" d="M78.64,-210.3C110.78,-183.38 177.46,-127.52 210.53,-99.81"/>
<polygon fill="#63b8ff" stroke="#63b8ff" points="213.12,-102.2 218.54,-93.1 208.63,-96.84 213.12,-102.2"/>
</a>
</g>
</g>
<!-- Node11 -->
<g id="Node000011" class="node">
<title>Node11</title>
<g id="a_Node000011"><a xlink:href="../../d1/d42/namespacelamina.html#a2a3ae10e9dc99c420909b2bf256cc565" target="_top" xlink:title=" ">
<polygon fill="white" stroke="#666666" points="292,-262.5 170,-262.5 170,-232.5 292,-232.5 292,-262.5"/>
<text text-anchor="start" x="178" y="-250.5" font-family="Helvetica,sans-Serif" font-size="10.00">lamina::isolate_linear</text>
<text text-anchor="middle" x="231" y="-239.5" font-family="Helvetica,sans-Serif" font-size="10.00">_coeff</text>
</a>
</g>
</g>
<!-- Node1&#45;&gt;Node11 -->
<g id="edge12_Node000001_Node000011" class="edge">
<title>Node1&#45;&gt;Node11</title>
<g id="a_edge12_Node000001_Node000011"><a xlink:title=" ">
<path fill="none" stroke="#63b8ff" d="M119.31,-233.13C132.34,-234.82 146.27,-236.63 159.71,-238.38"/>
<polygon fill="#63b8ff" stroke="#63b8ff" points="159.49,-241.88 169.86,-239.69 160.39,-234.94 159.49,-241.88"/>
</a>
</g>
</g>
<!-- Node2&#45;&gt;Node3 -->
<g id="edge2_Node000002_Node000003" class="edge">
<title>Node2&#45;&gt;Node3</title>
<g id="a_edge2_Node000002_Node000003"><a xlink:title=" ">
<path fill="none" stroke="#63b8ff" d="M473.14,-216.01C481.98,-218.52 490.92,-221.64 499,-225.5 528.65,-239.66 558.06,-263.31 577.53,-280.67"/>
<polygon fill="#63b8ff" stroke="#63b8ff" points="575.23,-283.31 584.99,-287.45 579.94,-278.13 575.23,-283.31"/>
</a>
</g>
</g>
<!-- Node4&#45;&gt;Node3 -->
<g id="edge4_Node000004_Node000003" class="edge">
<title>Node4&#45;&gt;Node3</title>
<g id="a_edge4_Node000004_Node000003"><a xlink:title=" ">
<path fill="none" stroke="#63b8ff" d="M487.71,-316.4C499.74,-314.92 512.4,-313.36 524.7,-311.84"/>
<polygon fill="#63b8ff" stroke="#63b8ff" points="525.44,-315.28 534.93,-310.58 524.58,-308.33 525.44,-315.28"/>
</a>
</g>
</g>
<!-- Node7 -->
<g id="Node000007" class="node">
<title>Node7</title>
<g id="a_Node000007"><a xlink:href="../../dc/d25/classSymbolicExpr.html#ac8782568f037f8055277e5d8b80ec6d6" target="_top" xlink:title="创建加法表达式。">
<polygon fill="white" stroke="#666666" points="474.5,-56 367.5,-56 367.5,-37 474.5,-37 474.5,-56"/>
<text text-anchor="middle" x="421" y="-44" font-family="Helvetica,sans-Serif" font-size="10.00">SymbolicExpr::add</text>
</a>
</g>
</g>
<!-- Node6&#45;&gt;Node7 -->
<g id="edge8_Node000006_Node000007" class="edge">
<title>Node6&#45;&gt;Node7</title>
<g id="a_edge8_Node000006_Node000007"><a xlink:title=" ">
<path fill="none" stroke="#63b8ff" d="M280.41,-73.97C305.1,-69.11 335.32,-63.17 361.31,-58.05"/>
<polygon fill="#63b8ff" stroke="#63b8ff" points="362.29,-61.43 371.42,-56.06 360.94,-54.56 362.29,-61.43"/>
</a>
</g>
</g>
<!-- Node8 -->
<g id="Node000008" class="node">
<title>Node8</title>
<g id="a_Node000008"><a xlink:href="../../dc/d25/classSymbolicExpr.html#ad03189fc8a4db7762f7c1ca890674bbc" target="_top" xlink:title="创建乘法表达式。">
<polygon fill="white" stroke="#666666" points="486,-19 356,-19 356,0 486,0 486,-19"/>
<text text-anchor="middle" x="421" y="-7" font-family="Helvetica,sans-Serif" font-size="10.00">SymbolicExpr::multiply</text>
</a>
</g>
</g>
<!-- Node6&#45;&gt;Node8 -->
<g id="edge9_Node000006_Node000008" class="edge">
<title>Node6&#45;&gt;Node8</title>
<g id="a_edge9_Node000006_Node000008"><a xlink:title=" ">
<path fill="none" stroke="#63b8ff" d="M248,-73.89C269.11,-61.59 307.7,-40.32 343,-27.5 348.93,-25.35 355.21,-23.39 361.52,-21.62"/>
<polygon fill="#63b8ff" stroke="#63b8ff" points="362.65,-24.94 371.43,-19 360.87,-18.17 362.65,-24.94"/>
</a>
</g>
</g>
<!-- Node9 -->
<g id="Node000009" class="node">
<title>Node9</title>
<g id="a_Node000009"><a xlink:href="../../dc/d25/classSymbolicExpr.html#adeb760bb6f4f28879108394537eca293" target="_top" xlink:title="创建整数数值表达式。">
<polygon fill="white" stroke="#666666" points="484.5,-130 357.5,-130 357.5,-111 484.5,-111 484.5,-130"/>
<text text-anchor="middle" x="421" y="-118" font-family="Helvetica,sans-Serif" font-size="10.00">SymbolicExpr::number</text>
</a>
</g>
</g>
<!-- Node6&#45;&gt;Node9 -->
<g id="edge10_Node000006_Node000009" class="edge">
<title>Node6&#45;&gt;Node9</title>
<g id="a_edge10_Node000006_Node000009"><a xlink:title=" ">
<path fill="none" stroke="#63b8ff" d="M280.41,-93.03C305.1,-97.89 335.32,-103.83 361.31,-108.95"/>
<polygon fill="#63b8ff" stroke="#63b8ff" points="360.94,-112.44 371.42,-110.94 362.29,-105.57 360.94,-112.44"/>
</a>
</g>
</g>
<!-- Node10 -->
<g id="Node000010" class="node">
<title>Node10</title>
<g id="a_Node000010"><a xlink:href="../../dc/d25/classSymbolicExpr.html#ab03922681e30190ba7c73d2c1e58aa40" target="_top" xlink:title="创建幂运算表达式。">
<polygon fill="white" stroke="#666666" points="480.5,-93 361.5,-93 361.5,-74 480.5,-74 480.5,-93"/>
<text text-anchor="middle" x="421" y="-81" font-family="Helvetica,sans-Serif" font-size="10.00">SymbolicExpr::power</text>
</a>
</g>
</g>
<!-- Node6&#45;&gt;Node10 -->
<g id="edge11_Node000006_Node000010" class="edge">
<title>Node6&#45;&gt;Node10</title>
<g id="a_edge11_Node000006_Node000010"><a xlink:title=" ">
<path fill="none" stroke="#63b8ff" d="M307.11,-83.5C321.6,-83.5 336.71,-83.5 350.99,-83.5"/>
<polygon fill="#63b8ff" stroke="#63b8ff" points="351.22,-87 361.22,-83.5 351.22,-80 351.22,-87"/>
</a>
</g>
</g>
<!-- Node11&#45;&gt;Node2 -->
<g id="edge13_Node000011_Node000002" class="edge">
<title>Node11&#45;&gt;Node2</title>
<g id="a_edge13_Node000011_Node000002"><a xlink:title=" ">
<path fill="none" stroke="#63b8ff" d="M292,-234.41C315.87,-229.21 343.12,-223.27 366.33,-218.21"/>
<polygon fill="#63b8ff" stroke="#63b8ff" points="367.31,-221.57 376.34,-216.02 365.82,-214.73 367.31,-221.57"/>
</a>
</g>
</g>
<!-- Node11&#45;&gt;Node3 -->
<g id="edge15_Node000011_Node000003" class="edge">
<title>Node11&#45;&gt;Node3</title>
<g id="a_edge15_Node000011_Node000003"><a xlink:title=" ">
<path fill="none" stroke="#63b8ff" d="M292.03,-256.46C355.59,-265.95 456.07,-280.94 524.97,-291.23"/>
<polygon fill="#63b8ff" stroke="#63b8ff" points="524.5,-294.69 534.9,-292.71 525.53,-287.77 524.5,-294.69"/>
</a>
</g>
</g>
<!-- Node11&#45;&gt;Node4 -->
<g id="edge14_Node000011_Node000004" class="edge">
<title>Node11&#45;&gt;Node4</title>
<g id="a_edge14_Node000011_Node000004"><a xlink:title=" ">
<path fill="none" stroke="#63b8ff" d="M265.83,-262.63C287.73,-272.3 316.92,-284.96 343,-295.5 351.46,-298.92 360.5,-302.44 369.29,-305.8"/>
<polygon fill="#63b8ff" stroke="#63b8ff" points="368.11,-309.09 378.7,-309.36 370.59,-302.55 368.11,-309.09"/>
</a>
</g>
</g>
<!-- Node11&#45;&gt;Node5 -->
<g id="edge16_Node000011_Node000005" class="edge">
<title>Node11&#45;&gt;Node5</title>
<g id="a_edge16_Node000011_Node000005"><a xlink:title=" ">
<path fill="none" stroke="#63b8ff" d="M257.39,-232.36C279.5,-219.59 312.66,-201.37 343,-188.5 348.39,-186.21 354.06,-184.01 359.78,-181.92"/>
<polygon fill="#63b8ff" stroke="#63b8ff" points="361.15,-185.15 369.42,-178.52 358.82,-178.55 361.15,-185.15"/>
</a>
</g>
</g>
<!-- Node12 -->
<g id="Node000012" class="node">
<title>Node12</title>
<g id="a_Node000012"><a xlink:href="../../d1/d42/namespacelamina.html#aa135e8800657ebb5349f183a9970942d" target="_top" xlink:title=" ">
<polygon fill="white" stroke="#666666" points="463.5,-253 378.5,-253 378.5,-234 463.5,-234 463.5,-253"/>
<text text-anchor="middle" x="421" y="-241" font-family="Helvetica,sans-Serif" font-size="10.00">lamina::to_ptr</text>
</a>
</g>
</g>
<!-- Node11&#45;&gt;Node12 -->
<g id="edge17_Node000011_Node000012" class="edge">
<title>Node11&#45;&gt;Node12</title>
<g id="a_edge17_Node000011_Node000012"><a xlink:title=" ">
<path fill="none" stroke="#63b8ff" d="M292,-246.22C316.53,-245.7 344.62,-245.1 368.23,-244.6"/>
<polygon fill="#63b8ff" stroke="#63b8ff" points="368.46,-248.1 378.39,-244.39 368.32,-241.1 368.46,-248.1"/>
</a>
</g>
</g>
</g>
</svg>
