<?xml version="1.0" encoding="UTF-8" standalone="no"?>
<!DOCTYPE svg PUBLIC "-//W3C//DTD SVG 1.1//EN"
 "http://www.w3.org/Graphics/SVG/1.1/DTD/svg11.dtd">
<!-- Generated by graphviz version 2.43.0 (0)
 -->
<!-- Title: lamina::Solver::elimination_ideal Pages: 1 -->
<svg width="579pt" height="49pt"
 viewBox="0.00 0.00 579.00 49.00" xmlns="http://www.w3.org/2000/svg" xmlns:xlink="http://www.w3.org/1999/xlink">
<g id="graph0" class="graph" transform="scale(1 1) rotate(0) translate(4 45)">
<title>lamina::Solver::elimination_ideal</title>
<!-- Node1 -->
<g id="Node000001" class="node">
<title>Node1</title>
<g id="a_Node000001"><a xlink:title="计算消元理想，消去前 elim_count 个变量。">
<polygon fill="#999999" stroke="#666666" points="149,-35.5 0,-35.5 0,-5.5 149,-5.5 149,-35.5"/>
<text text-anchor="start" x="8" y="-23.5" font-family="Helvetica,sans-Serif" font-size="10.00">lamina::Solver::elimination</text>
<text text-anchor="middle" x="74.5" y="-12.5" font-family="Helvetica,sans-Serif" font-size="10.00">_ideal</text>
</a>
</g>
</g>
<!-- Node2 -->
<g id="Node000002" class="node">
<title>Node2</title>
<g id="a_Node000002"><a xlink:href="../../d3/d3c/namespacelamina_1_1anonymous__namespace_02solver_8cpp_03.html#a03ef1cc28cebd5bbb66f0a63605bc5b0" target="_top" xlink:title=" ">
<polygon fill="white" stroke="#666666" points="360,-35.5 185,-35.5 185,-5.5 360,-5.5 360,-35.5"/>
<text text-anchor="start" x="193" y="-23.5" font-family="Helvetica,sans-Serif" font-size="10.00">lamina::anonymous_namespace</text>
<text text-anchor="middle" x="272.5" y="-12.5" font-family="Helvetica,sans-Serif" font-size="10.00">{solver::cpp}::to_poly</text>
</a>
</g>
</g>
<!-- Node1&#45;&gt;Node2 -->
<g id="edge1_Node000001_Node000002" class="edge">
<title>Node1&#45;&gt;Node2</title>
<g id="a_edge1_Node000001_Node000002"><a xlink:title=" ">
<path fill="none" stroke="#63b8ff" d="M149.04,-20.5C157.39,-20.5 166,-20.5 174.6,-20.5"/>
<polygon fill="#63b8ff" stroke="#63b8ff" points="174.67,-24 184.67,-20.5 174.67,-17 174.67,-24"/>
</a>
</g>
</g>
<!-- Node3 -->
<g id="Node000003" class="node">
<title>Node3</title>
<g id="a_Node000003"><a xlink:href="../../d7/d8e/classlamina_1_1anonymous__namespace_02solver_8cpp_03_1_1PolyBuilder.html#ad634d3633bbcf1a47851421ddd06c16a" target="_top" xlink:title=" ">
<polygon fill="white" stroke="#666666" points="571,-41 396,-41 396,0 571,0 571,-41"/>
<text text-anchor="start" x="404" y="-29" font-family="Helvetica,sans-Serif" font-size="10.00">lamina::anonymous_namespace</text>
<text text-anchor="start" x="404" y="-18" font-family="Helvetica,sans-Serif" font-size="10.00">{solver::cpp}::PolyBuilder</text>
<text text-anchor="middle" x="483.5" y="-7" font-family="Helvetica,sans-Serif" font-size="10.00">::get_result</text>
</a>
</g>
</g>
<!-- Node2&#45;&gt;Node3 -->
<g id="edge2_Node000002_Node000003" class="edge">
<title>Node2&#45;&gt;Node3</title>
<g id="a_edge2_Node000002_Node000003"><a xlink:title=" ">
<path fill="none" stroke="#63b8ff" d="M360.02,-20.5C368.49,-20.5 377.13,-20.5 385.7,-20.5"/>
<polygon fill="#63b8ff" stroke="#63b8ff" points="385.71,-24 395.71,-20.5 385.71,-17 385.71,-24"/>
</a>
</g>
</g>
</g>
</svg>
