<?xml version="1.0" encoding="UTF-8" standalone="no"?>
<!DOCTYPE svg PUBLIC "-//W3C//DTD SVG 1.1//EN"
 "http://www.w3.org/Graphics/SVG/1.1/DTD/svg11.dtd">
<!-- Generated by graphviz version 2.43.0 (0)
 -->
<!-- Title: PowerNode::accept Pages: 1 -->
<svg width="610pt" height="51pt"
 viewBox="0.00 0.00 610.00 50.50" xmlns="http://www.w3.org/2000/svg" xmlns:xlink="http://www.w3.org/1999/xlink">
<g id="page0,1_graph0" class="graph" transform="scale(1 1) rotate(0) translate(4 46.5)">
<title>PowerNode::accept</title>
<!-- Node1 -->
<g id="Node000001" class="node">
<title>Node1</title>
<g id="a_Node000001"><a xlink:title="接受 Visitor 访问.">
<polygon fill="#999999" stroke="#666666" points="110,-24.5 0,-24.5 0,-5.5 110,-5.5 110,-24.5"/>
<text text-anchor="middle" x="55" y="-12.5" font-family="Helvetica,sans-Serif" font-size="10.00">PowerNode::accept</text>
</a>
</g>
</g>
<!-- Node2 -->
<g id="Node000002" class="node">
<title>Node2</title>
<g id="a_Node000002"><a xlink:href="../../d4/dd1/classlamina_1_1detail_1_1SymbolicVisitor.html#a233ca4c20e4703b6c0a06533357d7f56" target="_top" xlink:title=" ">
<polygon fill="white" stroke="#666666" points="281,-30 146,-30 146,0 281,0 281,-30"/>
<text text-anchor="start" x="154" y="-18" font-family="Helvetica,sans-Serif" font-size="10.00">lamina::detail::Symbolic</text>
<text text-anchor="middle" x="213.5" y="-7" font-family="Helvetica,sans-Serif" font-size="10.00">Visitor::visit</text>
</a>
</g>
</g>
<!-- Node1&#45;&gt;Node2 -->
<g id="edge1_Node000001_Node000002" class="edge">
<title>Node1&#45;&gt;Node2</title>
<g id="a_edge1_Node000001_Node000002"><a xlink:title=" ">
<path fill="none" stroke="#63b8ff" d="M110.3,-15C118.55,-15 127.19,-15 135.8,-15"/>
<polygon fill="#63b8ff" stroke="#63b8ff" points="135.88,-18.5 145.88,-15 135.88,-11.5 135.88,-18.5"/>
</a>
</g>
</g>
<!-- Node3 -->
<g id="Node000003" class="node">
<title>Node3</title>
<g id="a_Node000003"><a xlink:href="../../d0/d3a/namespacelamina_1_1detail.html#a9e31448c7d53c33d5be1a6bd9a631cbf" target="_top" xlink:title=" ">
<polygon fill="white" stroke="#666666" points="431,-24.5 317,-24.5 317,-5.5 431,-5.5 431,-24.5"/>
<text text-anchor="middle" x="374" y="-12.5" font-family="Helvetica,sans-Serif" font-size="10.00">lamina::detail::node</text>
</a>
</g>
</g>
<!-- Node2&#45;&gt;Node3 -->
<g id="edge2_Node000002_Node000003" class="edge">
<title>Node2&#45;&gt;Node3</title>
<g id="a_edge2_Node000002_Node000003"><a xlink:title=" ">
<path fill="none" stroke="#63b8ff" d="M281.26,-15C289.68,-15 298.29,-15 306.71,-15"/>
<polygon fill="#63b8ff" stroke="#63b8ff" points="306.84,-18.5 316.84,-15 306.84,-11.5 306.84,-18.5"/>
</a>
</g>
</g>
<!-- Node3&#45;&gt;Node3 -->
<g id="edge3_Node000003_Node000003" class="edge">
<title>Node3&#45;&gt;Node3</title>
<g id="a_edge3_Node000003_Node000003"><a xlink:title=" ">
<path fill="none" stroke="#63b8ff" d="M349.34,-24.58C337.34,-33.23 345.56,-42.5 374,-42.5 392.66,-42.5 402.62,-38.51 403.87,-33.32"/>
<polygon fill="#63b8ff" stroke="#63b8ff" points="406.79,-31.38 398.66,-24.58 400.77,-34.97 406.79,-31.38"/>
</a>
</g>
</g>
<!-- Node4 -->
<g id="Node000004" class="node">
<title>Node4</title>
<g id="a_Node000004"><a xlink:href="../../dd/d4b/structlamina_1_1detail_1_1SymbolicExprAccess.html#a1043af2b4ddea84e31b86e2ac5189ab3" target="_top" xlink:title=" ">
<polygon fill="white" stroke="#666666" points="602,-30 467,-30 467,0 602,0 602,-30"/>
<text text-anchor="start" x="475" y="-18" font-family="Helvetica,sans-Serif" font-size="10.00">lamina::detail::Symbolic</text>
<text text-anchor="middle" x="534.5" y="-7" font-family="Helvetica,sans-Serif" font-size="10.00">ExprAccess::node</text>
</a>
</g>
</g>
<!-- Node3&#45;&gt;Node4 -->
<g id="edge4_Node000003_Node000004" class="edge">
<title>Node3&#45;&gt;Node4</title>
<g id="a_edge4_Node000003_Node000004"><a xlink:title=" ">
<path fill="none" stroke="#63b8ff" d="M431.33,-15C439.58,-15 448.19,-15 456.76,-15"/>
<polygon fill="#63b8ff" stroke="#63b8ff" points="456.79,-18.5 466.79,-15 456.79,-11.5 456.79,-18.5"/>
</a>
</g>
</g>
</g>
</svg>
