<?xml version="1.0" encoding="UTF-8" standalone="no"?>
<!DOCTYPE svg PUBLIC "-//W3C//DTD SVG 1.1//EN"
 "http://www.w3.org/Graphics/SVG/1.1/DTD/svg11.dtd">
<!-- Generated by graphviz version 2.43.0 (0)
 -->
<!-- Title: src/lammp/to_str.c Pages: 1 -->
<svg width="350pt" height="269pt"
 viewBox="0.00 0.00 349.50 269.00" xmlns="http://www.w3.org/2000/svg" xmlns:xlink="http://www.w3.org/1999/xlink">
<g id="graph0" class="graph" transform="scale(1 1) rotate(0) translate(4 265)">
<title>src/lammp/to_str.c</title>
<!-- Node1 -->
<g id="Node000001" class="node">
<title>Node1</title>
<g id="a_Node000001"><a xlink:title=" ">
<polygon fill="#999999" stroke="#666666" points="218.5,-261 111.5,-261 111.5,-242 218.5,-242 218.5,-261"/>
<text text-anchor="middle" x="165" y="-249" font-family="Helvetica,sans-Serif" font-size="10.00">src/lammp/to_str.c</text>
</a>
</g>
</g>
<!-- Node2 -->
<g id="Node000002" class="node">
<title>Node2</title>
<g id="a_Node000002"><a xlink:href="../../d3/d70/base__table_8h.html" target="_top" xlink:title=" ">
<polygon fill="white" stroke="#666666" points="177.5,-206 70.5,-206 70.5,-176 177.5,-176 177.5,-206"/>
<text text-anchor="start" x="78.5" y="-194" font-family="Helvetica,sans-Serif" font-size="10.00">../../include/lammp</text>
<text text-anchor="middle" x="124" y="-183" font-family="Helvetica,sans-Serif" font-size="10.00">/impl/base_table.h</text>
</a>
</g>
</g>
<!-- Node1&#45;&gt;Node2 -->
<g id="edge1_Node000001_Node000002" class="edge">
<title>Node1&#45;&gt;Node2</title>
<g id="a_edge1_Node000001_Node000002"><a xlink:title=" ">
<path fill="none" stroke="#63b8ff" d="M158.95,-241.87C153.9,-234.67 146.48,-224.07 139.76,-214.49"/>
<polygon fill="#63b8ff" stroke="#63b8ff" points="142.5,-212.29 133.89,-206.11 136.77,-216.31 142.5,-212.29"/>
</a>
</g>
</g>
<!-- Node3 -->
<g id="Node000003" class="node">
<title>Node3</title>
<g id="a_Node000003"><a xlink:href="../../d6/d39/lmmpn_8h.html" target="_top" xlink:title=" ">
<polygon fill="white" stroke="#666666" points="134.5,-134.5 65.5,-134.5 65.5,-115.5 134.5,-115.5 134.5,-134.5"/>
<text text-anchor="middle" x="100" y="-122.5" font-family="Helvetica,sans-Serif" font-size="10.00">../lmmpn.h</text>
</a>
</g>
</g>
<!-- Node1&#45;&gt;Node3 -->
<g id="edge14_Node000001_Node000003" class="edge">
<title>Node1&#45;&gt;Node3</title>
<g id="a_edge14_Node000001_Node000003"><a xlink:title=" ">
<path fill="none" stroke="#63b8ff" d="M116.15,-241.95C95.5,-235.65 73.38,-224.77 61,-206 47.18,-185.05 66.59,-158.48 82.64,-141.86"/>
<polygon fill="#63b8ff" stroke="#63b8ff" points="85.39,-144.06 90.08,-134.56 80.49,-139.06 85.39,-144.06"/>
</a>
</g>
</g>
<!-- Node11 -->
<g id="Node000011" class="node">
<title>Node11</title>
<g id="a_Node000011"><a xlink:href="../../d8/dd0/mparam_8h.html" target="_top" xlink:title=" ">
<polygon fill="white" stroke="#666666" points="341.5,-206 234.5,-206 234.5,-176 341.5,-176 341.5,-206"/>
<text text-anchor="start" x="242.5" y="-194" font-family="Helvetica,sans-Serif" font-size="10.00">../../include/lammp</text>
<text text-anchor="middle" x="288" y="-183" font-family="Helvetica,sans-Serif" font-size="10.00">/impl/mparam.h</text>
</a>
</g>
</g>
<!-- Node1&#45;&gt;Node11 -->
<g id="edge10_Node000001_Node000011" class="edge">
<title>Node1&#45;&gt;Node11</title>
<g id="a_edge10_Node000001_Node000011"><a xlink:title=" ">
<path fill="none" stroke="#63b8ff" d="M182.89,-241.99C200.14,-233.79 226.84,-221.09 249.01,-210.55"/>
<polygon fill="#63b8ff" stroke="#63b8ff" points="250.66,-213.63 258.19,-206.18 247.66,-207.31 250.66,-213.63"/>
</a>
</g>
</g>
<!-- Node12 -->
<g id="Node000012" class="node">
<title>Node12</title>
<g id="a_Node000012"><a xlink:href="../../d8/daa/tmp__alloc_8h.html" target="_top" xlink:title=" ">
<polygon fill="white" stroke="#666666" points="259.5,-140 152.5,-140 152.5,-110 259.5,-110 259.5,-140"/>
<text text-anchor="start" x="160.5" y="-128" font-family="Helvetica,sans-Serif" font-size="10.00">../../include/lammp</text>
<text text-anchor="middle" x="206" y="-117" font-family="Helvetica,sans-Serif" font-size="10.00">/impl/tmp_alloc.h</text>
</a>
</g>
</g>
<!-- Node1&#45;&gt;Node12 -->
<g id="edge11_Node000001_Node000012" class="edge">
<title>Node1&#45;&gt;Node12</title>
<g id="a_edge11_Node000001_Node000012"><a xlink:title=" ">
<path fill="none" stroke="#63b8ff" d="M169.71,-241.85C174.35,-233.04 181.4,-218.87 186,-206 192.53,-187.71 197.76,-166.33 201.23,-150.28"/>
<polygon fill="#63b8ff" stroke="#63b8ff" points="204.73,-150.62 203.34,-140.12 197.88,-149.2 204.73,-150.62"/>
</a>
</g>
</g>
<!-- Node2&#45;&gt;Node3 -->
<g id="edge2_Node000002_Node000003" class="edge">
<title>Node2&#45;&gt;Node3</title>
<g id="a_edge2_Node000002_Node000003"><a xlink:title=" ">
<path fill="none" stroke="#63b8ff" d="M118.67,-175.8C115.19,-166.5 110.6,-154.27 106.85,-144.26"/>
<polygon fill="#63b8ff" stroke="#63b8ff" points="110.11,-142.98 103.32,-134.84 103.55,-145.44 110.11,-142.98"/>
</a>
</g>
</g>
<!-- Node4 -->
<g id="Node000004" class="node">
<title>Node4</title>
<g id="a_Node000004"><a xlink:title=" ">
<polygon fill="#e0e0e0" stroke="#999999" points="91,-74 29,-74 29,-55 91,-55 91,-74"/>
<text text-anchor="middle" x="60" y="-62" font-family="Helvetica,sans-Serif" font-size="10.00">stdbool.h</text>
</a>
</g>
</g>
<!-- Node3&#45;&gt;Node4 -->
<g id="edge3_Node000003_Node000004" class="edge">
<title>Node3&#45;&gt;Node4</title>
<g id="a_edge3_Node000003_Node000004"><a xlink:title=" ">
<path fill="none" stroke="#63b8ff" d="M94.1,-115.37C88.25,-106.81 79.13,-93.47 71.79,-82.74"/>
<polygon fill="#63b8ff" stroke="#63b8ff" points="74.46,-80.45 65.93,-74.17 68.68,-84.4 74.46,-80.45"/>
</a>
</g>
</g>
<!-- Node5 -->
<g id="Node000005" class="node">
<title>Node5</title>
<g id="a_Node000005"><a xlink:title=" ">
<polygon fill="#e0e0e0" stroke="#999999" points="231,-74 181,-74 181,-55 231,-55 231,-74"/>
<text text-anchor="middle" x="206" y="-62" font-family="Helvetica,sans-Serif" font-size="10.00">stdio.h</text>
</a>
</g>
</g>
<!-- Node3&#45;&gt;Node5 -->
<g id="edge4_Node000003_Node000005" class="edge">
<title>Node3&#45;&gt;Node5</title>
<g id="a_edge4_Node000003_Node000005"><a xlink:title=" ">
<path fill="none" stroke="#63b8ff" d="M115.64,-115.37C132.94,-105.82 161.05,-90.31 181.33,-79.12"/>
<polygon fill="#63b8ff" stroke="#63b8ff" points="183.23,-82.06 190.3,-74.17 179.85,-75.93 183.23,-82.06"/>
</a>
</g>
</g>
<!-- Node6 -->
<g id="Node000006" class="node">
<title>Node6</title>
<g id="a_Node000006"><a xlink:href="../../dd/d90/lmmp_8h.html" target="_top" xlink:title=" ">
<polygon fill="white" stroke="#666666" points="163,-74 109,-74 109,-55 163,-55 163,-74"/>
<text text-anchor="middle" x="136" y="-62" font-family="Helvetica,sans-Serif" font-size="10.00">lmmp.h</text>
</a>
</g>
</g>
<!-- Node3&#45;&gt;Node6 -->
<g id="edge5_Node000003_Node000006" class="edge">
<title>Node3&#45;&gt;Node6</title>
<g id="a_edge5_Node000003_Node000006"><a xlink:title=" ">
<path fill="none" stroke="#63b8ff" d="M105.31,-115.37C110.58,-106.81 118.79,-93.47 125.39,-82.74"/>
<polygon fill="#63b8ff" stroke="#63b8ff" points="128.41,-84.52 130.67,-74.17 122.44,-80.85 128.41,-84.52"/>
</a>
</g>
</g>
<!-- Node7 -->
<g id="Node000007" class="node">
<title>Node7</title>
<g id="a_Node000007"><a xlink:title=" ">
<polygon fill="#e0e0e0" stroke="#999999" points="56,-19 0,-19 0,0 56,0 56,-19"/>
<text text-anchor="middle" x="28" y="-7" font-family="Helvetica,sans-Serif" font-size="10.00">stddef.h</text>
</a>
</g>
</g>
<!-- Node6&#45;&gt;Node7 -->
<g id="edge6_Node000006_Node000007" class="edge">
<title>Node6&#45;&gt;Node7</title>
<g id="a_edge6_Node000006_Node000007"><a xlink:title=" ">
<path fill="none" stroke="#63b8ff" d="M118.65,-54.98C101.43,-46.54 74.8,-33.47 54.85,-23.68"/>
<polygon fill="#63b8ff" stroke="#63b8ff" points="56.19,-20.43 45.67,-19.17 53.1,-26.72 56.19,-20.43"/>
</a>
</g>
</g>
<!-- Node8 -->
<g id="Node000008" class="node">
<title>Node8</title>
<g id="a_Node000008"><a xlink:title=" ">
<polygon fill="#e0e0e0" stroke="#999999" points="127.5,-19 74.5,-19 74.5,0 127.5,0 127.5,-19"/>
<text text-anchor="middle" x="101" y="-7" font-family="Helvetica,sans-Serif" font-size="10.00">stdint.h</text>
</a>
</g>
</g>
<!-- Node6&#45;&gt;Node8 -->
<g id="edge7_Node000006_Node000008" class="edge">
<title>Node6&#45;&gt;Node8</title>
<g id="a_edge7_Node000006_Node000008"><a xlink:title=" ">
<path fill="none" stroke="#63b8ff" d="M130.22,-54.75C125.38,-47.42 118.32,-36.73 112.36,-27.7"/>
<polygon fill="#63b8ff" stroke="#63b8ff" points="115.1,-25.5 106.67,-19.09 109.26,-29.36 115.1,-25.5"/>
</a>
</g>
</g>
<!-- Node9 -->
<g id="Node000009" class="node">
<title>Node9</title>
<g id="a_Node000009"><a xlink:title=" ">
<polygon fill="#e0e0e0" stroke="#999999" points="198.5,-19 145.5,-19 145.5,0 198.5,0 198.5,-19"/>
<text text-anchor="middle" x="172" y="-7" font-family="Helvetica,sans-Serif" font-size="10.00">stdlib.h</text>
</a>
</g>
</g>
<!-- Node6&#45;&gt;Node9 -->
<g id="edge8_Node000006_Node000009" class="edge">
<title>Node6&#45;&gt;Node9</title>
<g id="a_edge8_Node000006_Node000009"><a xlink:title=" ">
<path fill="none" stroke="#63b8ff" d="M141.94,-54.75C146.98,-47.34 154.34,-36.5 160.51,-27.41"/>
<polygon fill="#63b8ff" stroke="#63b8ff" points="163.44,-29.33 166.17,-19.09 157.65,-25.39 163.44,-29.33"/>
</a>
</g>
</g>
<!-- Node10 -->
<g id="Node000010" class="node">
<title>Node10</title>
<g id="a_Node000010"><a xlink:title=" ">
<polygon fill="#e0e0e0" stroke="#999999" points="269.5,-19 216.5,-19 216.5,0 269.5,0 269.5,-19"/>
<text text-anchor="middle" x="243" y="-7" font-family="Helvetica,sans-Serif" font-size="10.00">string.h</text>
</a>
</g>
</g>
<!-- Node6&#45;&gt;Node10 -->
<g id="edge9_Node000006_Node000010" class="edge">
<title>Node6&#45;&gt;Node10</title>
<g id="a_edge9_Node000006_Node000010"><a xlink:title=" ">
<path fill="none" stroke="#63b8ff" d="M153.19,-54.98C170.25,-46.54 196.63,-33.47 216.4,-23.68"/>
<polygon fill="#63b8ff" stroke="#63b8ff" points="218.09,-26.75 225.5,-19.17 214.98,-20.47 218.09,-26.75"/>
</a>
</g>
</g>
<!-- Node12&#45;&gt;Node5 -->
<g id="edge13_Node000012_Node000005" class="edge">
<title>Node12&#45;&gt;Node5</title>
<g id="a_edge13_Node000012_Node000005"><a xlink:title=" ">
<path fill="none" stroke="#63b8ff" d="M206,-109.84C206,-102.21 206,-92.7 206,-84.45"/>
<polygon fill="#63b8ff" stroke="#63b8ff" points="209.5,-84.27 206,-74.27 202.5,-84.27 209.5,-84.27"/>
</a>
</g>
</g>
<!-- Node12&#45;&gt;Node6 -->
<g id="edge12_Node000012_Node000006" class="edge">
<title>Node12&#45;&gt;Node6</title>
<g id="a_edge12_Node000012_Node000006"><a xlink:title=" ">
<path fill="none" stroke="#63b8ff" d="M189.05,-109.84C178.58,-101.09 165.14,-89.85 154.41,-80.88"/>
<polygon fill="#63b8ff" stroke="#63b8ff" points="156.41,-77.99 146.49,-74.27 151.92,-83.36 156.41,-77.99"/>
</a>
</g>
</g>
</g>
</svg>
