<?xml version="1.0" encoding="UTF-8" standalone="no"?>
<!DOCTYPE svg PUBLIC "-//W3C//DTD SVG 1.1//EN"
 "http://www.w3.org/Graphics/SVG/1.1/DTD/svg11.dtd">
<!-- Generated by graphviz version 2.43.0 (0)
 -->
<!-- Title: include/lammp/impl/prime_table.h Pages: 1 -->
<svg width="1261pt" height="104pt"
 viewBox="0.00 0.00 1260.50 104.00" xmlns="http://www.w3.org/2000/svg" xmlns:xlink="http://www.w3.org/1999/xlink">
<g id="graph0" class="graph" transform="scale(1 1) rotate(0) translate(4 100)">
<title>include/lammp/impl/prime_table.h</title>
<!-- Node1 -->
<g id="Node000001" class="node">
<title>Node1</title>
<g id="a_Node000001"><a xlink:title=" ">
<polygon fill="#999999" stroke="#666666" points="708,-96 594,-96 594,-66 708,-66 708,-96"/>
<text text-anchor="start" x="602" y="-84" font-family="Helvetica,sans-Serif" font-size="10.00">include/lammp/impl</text>
<text text-anchor="middle" x="651" y="-73" font-family="Helvetica,sans-Serif" font-size="10.00">/prime_table.h</text>
</a>
</g>
</g>
<!-- Node2 -->
<g id="Node000002" class="node">
<title>Node2</title>
<g id="a_Node000002"><a xlink:href="../../d9/d3a/factorial_8c.html" target="_top" xlink:title=" ">
<polygon fill="white" stroke="#666666" points="158,-24.5 0,-24.5 0,-5.5 158,-5.5 158,-24.5"/>
<text text-anchor="middle" x="79" y="-12.5" font-family="Helvetica,sans-Serif" font-size="10.00">src/lammp/NumTh/factorial.c</text>
</a>
</g>
</g>
<!-- Node1&#45;&gt;Node2 -->
<g id="edge1_Node000001_Node000002" class="edge">
<title>Node1&#45;&gt;Node2</title>
<g id="a_edge1_Node000001_Node000002"><a xlink:title=" ">
<path fill="none" stroke="#63b8ff" d="M583.7,-74.22C490.09,-65.92 315.34,-49.45 167,-30 154.88,-28.41 141.86,-26.47 129.65,-24.54"/>
<polygon fill="#63b8ff" stroke="#63b8ff" points="583.61,-77.73 593.88,-75.12 584.23,-70.76 583.61,-77.73"/>
</a>
</g>
</g>
<!-- Node3 -->
<g id="Node000003" class="node">
<title>Node3</title>
<g id="a_Node000003"><a xlink:href="../../da/dfb/is__prime__ulong_8c.html" target="_top" xlink:title=" ">
<polygon fill="white" stroke="#666666" points="294,-30 176,-30 176,0 294,0 294,-30"/>
<text text-anchor="start" x="184" y="-18" font-family="Helvetica,sans-Serif" font-size="10.00">src/lammp/NumTh/is</text>
<text text-anchor="middle" x="235" y="-7" font-family="Helvetica,sans-Serif" font-size="10.00">_prime_ulong.c</text>
</a>
</g>
</g>
<!-- Node1&#45;&gt;Node3 -->
<g id="edge2_Node000001_Node000003" class="edge">
<title>Node1&#45;&gt;Node3</title>
<g id="a_edge2_Node000001_Node000003"><a xlink:title=" ">
<path fill="none" stroke="#63b8ff" d="M583.83,-71.57C513.6,-62.47 400.28,-46.99 303,-30 300.15,-29.5 297.24,-28.98 294.3,-28.43"/>
<polygon fill="#63b8ff" stroke="#63b8ff" points="583.5,-75.06 593.87,-72.87 584.4,-68.12 583.5,-75.06"/>
</a>
</g>
</g>
<!-- Node4 -->
<g id="Node000004" class="node">
<title>Node4</title>
<g id="a_Node000004"><a xlink:href="../../d5/d56/multinomial_8c.html" target="_top" xlink:title=" ">
<polygon fill="white" stroke="#666666" points="489.5,-24.5 312.5,-24.5 312.5,-5.5 489.5,-5.5 489.5,-24.5"/>
<text text-anchor="middle" x="401" y="-12.5" font-family="Helvetica,sans-Serif" font-size="10.00">src/lammp/NumTh/multinomial.c</text>
</a>
</g>
</g>
<!-- Node1&#45;&gt;Node4 -->
<g id="edge3_Node000001_Node000004" class="edge">
<title>Node1&#45;&gt;Node4</title>
<g id="a_edge3_Node000001_Node000004"><a xlink:title=" ">
<path fill="none" stroke="#63b8ff" d="M586.32,-63.44C537.65,-50.98 472.94,-34.42 434.27,-24.52"/>
<polygon fill="#63b8ff" stroke="#63b8ff" points="585.58,-66.87 596.14,-65.95 587.32,-60.08 585.58,-66.87"/>
</a>
</g>
</g>
<!-- Node5 -->
<g id="Node000005" class="node">
<title>Node5</title>
<g id="a_Node000005"><a xlink:href="../../dd/ded/nCr_8c.html" target="_top" xlink:title=" ">
<polygon fill="white" stroke="#666666" points="642,-24.5 508,-24.5 508,-5.5 642,-5.5 642,-24.5"/>
<text text-anchor="middle" x="575" y="-12.5" font-family="Helvetica,sans-Serif" font-size="10.00">src/lammp/NumTh/nCr.c</text>
</a>
</g>
</g>
<!-- Node1&#45;&gt;Node5 -->
<g id="edge4_Node000001_Node000005" class="edge">
<title>Node1&#45;&gt;Node5</title>
<g id="a_edge4_Node000001_Node000005"><a xlink:title=" ">
<path fill="none" stroke="#63b8ff" d="M626.37,-59.26C612.54,-47.61 596.01,-33.69 585.5,-24.84"/>
<polygon fill="#63b8ff" stroke="#63b8ff" points="624.23,-62.03 634.13,-65.8 628.74,-56.68 624.23,-62.03"/>
</a>
</g>
</g>
<!-- Node6 -->
<g id="Node000006" class="node">
<title>Node6</title>
<g id="a_Node000006"><a xlink:href="../../dc/d74/nPr_8c.html" target="_top" xlink:title=" ">
<polygon fill="white" stroke="#666666" points="793.5,-24.5 660.5,-24.5 660.5,-5.5 793.5,-5.5 793.5,-24.5"/>
<text text-anchor="middle" x="727" y="-12.5" font-family="Helvetica,sans-Serif" font-size="10.00">src/lammp/NumTh/nPr.c</text>
</a>
</g>
</g>
<!-- Node1&#45;&gt;Node6 -->
<g id="edge5_Node000001_Node000006" class="edge">
<title>Node1&#45;&gt;Node6</title>
<g id="a_edge5_Node000001_Node000006"><a xlink:title=" ">
<path fill="none" stroke="#63b8ff" d="M675.63,-59.26C689.46,-47.61 705.99,-33.69 716.5,-24.84"/>
<polygon fill="#63b8ff" stroke="#63b8ff" points="673.26,-56.68 667.87,-65.8 677.77,-62.03 673.26,-56.68"/>
</a>
</g>
</g>
<!-- Node7 -->
<g id="Node000007" class="node">
<title>Node7</title>
<g id="a_Node000007"><a xlink:href="../../d1/db8/trialdiv_8c.html" target="_top" xlink:title=" ">
<polygon fill="white" stroke="#666666" points="964,-24.5 812,-24.5 812,-5.5 964,-5.5 964,-24.5"/>
<text text-anchor="middle" x="888" y="-12.5" font-family="Helvetica,sans-Serif" font-size="10.00">src/lammp/NumTh/trialdiv.c</text>
</a>
</g>
</g>
<!-- Node1&#45;&gt;Node7 -->
<g id="edge6_Node000001_Node000007" class="edge">
<title>Node1&#45;&gt;Node7</title>
<g id="a_edge6_Node000001_Node000007"><a xlink:title=" ">
<path fill="none" stroke="#63b8ff" d="M712.9,-63.29C758.97,-50.84 819.96,-34.37 856.46,-24.52"/>
<polygon fill="#63b8ff" stroke="#63b8ff" points="711.75,-59.97 703.01,-65.95 713.58,-66.73 711.75,-59.97"/>
</a>
</g>
</g>
<!-- Node8 -->
<g id="Node000008" class="node">
<title>Node8</title>
<g id="a_Node000008"><a xlink:href="../../d2/d9c/prime__table_8c.html" target="_top" xlink:title=" ">
<polygon fill="white" stroke="#666666" points="1115.5,-30 982.5,-30 982.5,0 1115.5,0 1115.5,-30"/>
<text text-anchor="start" x="990.5" y="-18" font-family="Helvetica,sans-Serif" font-size="10.00">src/lammp/global/prime</text>
<text text-anchor="middle" x="1049" y="-7" font-family="Helvetica,sans-Serif" font-size="10.00">_table.c</text>
</a>
</g>
</g>
<!-- Node1&#45;&gt;Node8 -->
<g id="edge7_Node000001_Node000008" class="edge">
<title>Node1&#45;&gt;Node8</title>
<g id="a_edge7_Node000001_Node000008"><a xlink:title=" ">
<path fill="none" stroke="#63b8ff" d="M718.22,-70.12C783.43,-60.41 885.11,-44.92 973,-30 976.04,-29.48 979.15,-28.95 982.29,-28.4"/>
<polygon fill="#63b8ff" stroke="#63b8ff" points="717.46,-66.7 708.08,-71.63 718.49,-73.62 717.46,-66.7"/>
</a>
</g>
</g>
<!-- Node9 -->
<g id="Node000009" class="node">
<title>Node9</title>
<g id="a_Node000009"><a xlink:href="../../df/dd5/memory_8c.html" target="_top" xlink:title=" ">
<polygon fill="white" stroke="#666666" points="1252.5,-24.5 1133.5,-24.5 1133.5,-5.5 1252.5,-5.5 1252.5,-24.5"/>
<text text-anchor="middle" x="1193" y="-12.5" font-family="Helvetica,sans-Serif" font-size="10.00">src/lammp/memory.c</text>
</a>
</g>
</g>
<!-- Node1&#45;&gt;Node9 -->
<g id="edge8_Node000001_Node000009" class="edge">
<title>Node1&#45;&gt;Node9</title>
<g id="a_edge8_Node000001_Node000009"><a xlink:title=" ">
<path fill="none" stroke="#63b8ff" d="M718.17,-75C810.27,-67.67 980.77,-52.4 1125,-30 1134.77,-28.48 1145.25,-26.5 1155,-24.51"/>
<polygon fill="#63b8ff" stroke="#63b8ff" points="717.84,-71.51 708.14,-75.79 718.39,-78.49 717.84,-71.51"/>
</a>
</g>
</g>
</g>
</svg>
