<?xml version="1.0" encoding="UTF-8" standalone="no"?>
<!DOCTYPE svg PUBLIC "-//W3C//DTD SVG 1.1//EN"
 "http://www.w3.org/Graphics/SVG/1.1/DTD/svg11.dtd">
<!-- Generated by graphviz version 2.43.0 (0)
 -->
<!-- Title: include/polynomial.hpp Pages: 1 -->
<svg width="1249pt" height="192pt"
 viewBox="0.00 0.00 1249.39 192.00" xmlns="http://www.w3.org/2000/svg" xmlns:xlink="http://www.w3.org/1999/xlink">
<g id="graph0" class="graph" transform="scale(1 1) rotate(0) translate(4 188)">
<title>include/polynomial.hpp</title>
<!-- Node1 -->
<g id="Node000001" class="node">
<title>Node1</title>
<g id="a_Node000001"><a xlink:title="一元多项式模板类 Polynomial&lt;T&gt;，支持四则运算、GCD、求导、求值。">
<polygon fill="#999999" stroke="#666666" points="459.86,-184 328.86,-184 328.86,-165 459.86,-165 459.86,-184"/>
<text text-anchor="middle" x="394.36" y="-172" font-family="Helvetica,sans-Serif" font-size="10.00">include/polynomial.hpp</text>
</a>
</g>
</g>
<!-- Node2 -->
<g id="Node000002" class="node">
<title>Node2</title>
<g id="a_Node000002"><a xlink:href="../../d9/d15/integration_8hpp.html" target="_top" xlink:title="符号积分引擎：策略模式，支持查表、幂律、换元、部分分式、分部积分。">
<polygon fill="white" stroke="#666666" points="147.86,-129 18.86,-129 18.86,-110 147.86,-110 147.86,-129"/>
<text text-anchor="middle" x="83.36" y="-117" font-family="Helvetica,sans-Serif" font-size="10.00">include/integration.hpp</text>
</a>
</g>
</g>
<!-- Node1&#45;&gt;Node2 -->
<g id="edge1_Node000001_Node000002" class="edge">
<title>Node1&#45;&gt;Node2</title>
<g id="a_edge1_Node000001_Node000002"><a xlink:title=" ">
<path fill="none" stroke="#63b8ff" d="M334.21,-163.25C275.81,-153.3 188.19,-138.36 133.47,-129.04"/>
<polygon fill="#63b8ff" stroke="#63b8ff" points="333.95,-166.75 344.4,-164.98 335.13,-159.85 333.95,-166.75"/>
</a>
</g>
</g>
<!-- Node3 -->
<g id="Node000003" class="node">
<title>Node3</title>
<g id="a_Node000003"><a xlink:href="../../d8/da1/integration_8cpp.html" target="_top" xlink:title=" ">
<polygon fill="white" stroke="#666666" points="240.86,-19 133.86,-19 133.86,0 240.86,0 240.86,-19"/>
<text text-anchor="middle" x="187.36" y="-7" font-family="Helvetica,sans-Serif" font-size="10.00">src/integration.cpp</text>
</a>
</g>
</g>
<!-- Node1&#45;&gt;Node3 -->
<g id="edge30_Node000001_Node000003" class="edge">
<title>Node1&#45;&gt;Node3</title>
<g id="a_edge30_Node000001_Node000003"><a xlink:title=" ">
<path fill="none" stroke="#63b8ff" d="M318.8,-170.08C212.53,-164.48 29.56,-151.66 9.36,-129 -2.53,-115.65 -5.55,-80.62 17.36,-55 32.82,-37.72 89.85,-25.27 133.64,-18.01"/>
<polygon fill="#63b8ff" stroke="#63b8ff" points="318.67,-173.58 328.84,-170.6 319.03,-166.59 318.67,-173.58"/>
</a>
</g>
</g>
<!-- Node5 -->
<g id="Node000005" class="node">
<title>Node5</title>
<g id="a_Node000005"><a xlink:href="../../d5/d53/newton__raphson_8hpp.html" target="_top" xlink:title="数值求根：Newton&#45;Raphson 迭代、二分法、Sturm 实根隔离。">
<polygon fill="white" stroke="#666666" points="346.36,-129 190.36,-129 190.36,-110 346.36,-110 346.36,-129"/>
<text text-anchor="middle" x="268.36" y="-117" font-family="Helvetica,sans-Serif" font-size="10.00">include/newton_raphson.hpp</text>
</a>
</g>
</g>
<!-- Node1&#45;&gt;Node5 -->
<g id="edge4_Node000001_Node000005" class="edge">
<title>Node1&#45;&gt;Node5</title>
<g id="a_edge4_Node000001_Node000005"><a xlink:title=" ">
<path fill="none" stroke="#63b8ff" d="M364.72,-161.03C341.42,-151.23 309.56,-137.83 288.98,-129.17"/>
<polygon fill="#63b8ff" stroke="#63b8ff" points="363.55,-164.33 374.12,-164.98 366.26,-157.88 363.55,-164.33"/>
</a>
</g>
</g>
<!-- Node9 -->
<g id="Node000009" class="node">
<title>Node9</title>
<g id="a_Node000009"><a xlink:href="../../d9/d39/poly__utils_8hpp.html" target="_top" xlink:title="符号表达式与多项式之间的转换工具，以及高斯消元。">
<polygon fill="white" stroke="#666666" points="812.86,-129 689.86,-129 689.86,-110 812.86,-110 812.86,-129"/>
<text text-anchor="middle" x="751.36" y="-117" font-family="Helvetica,sans-Serif" font-size="10.00">include/poly_utils.hpp</text>
</a>
</g>
</g>
<!-- Node1&#45;&gt;Node9 -->
<g id="edge8_Node000001_Node000009" class="edge">
<title>Node1&#45;&gt;Node9</title>
<g id="a_edge8_Node000001_Node000009"><a xlink:title=" ">
<path fill="none" stroke="#63b8ff" d="M461.76,-163.49C528.79,-153.54 630.52,-138.44 693.85,-129.04"/>
<polygon fill="#63b8ff" stroke="#63b8ff" points="461.1,-160.05 451.72,-164.98 462.13,-166.98 461.1,-160.05"/>
</a>
</g>
</g>
<!-- Node10 -->
<g id="Node000010" class="node">
<title>Node10</title>
<g id="a_Node000010"><a xlink:href="../../d4/d0a/root__of__utils_8hpp.html" target="_top" xlink:title="RootOf 表达式的构造、化简与数值求值。">
<polygon fill="white" stroke="#666666" points="1209.86,-74 1072.86,-74 1072.86,-55 1209.86,-55 1209.86,-74"/>
<text text-anchor="middle" x="1141.36" y="-62" font-family="Helvetica,sans-Serif" font-size="10.00">include/root_of_utils.hpp</text>
</a>
</g>
</g>
<!-- Node1&#45;&gt;Node10 -->
<g id="edge28_Node000001_Node000010" class="edge">
<title>Node1&#45;&gt;Node10</title>
<g id="a_edge28_Node000001_Node000010"><a xlink:title=" ">
<path fill="none" stroke="#63b8ff" d="M470.22,-167.72C555.8,-160.7 699.02,-147.47 821.36,-129 924.41,-113.44 1044.64,-87.44 1104.12,-74.05"/>
<polygon fill="#63b8ff" stroke="#63b8ff" points="469.76,-164.24 460.07,-168.54 470.32,-171.22 469.76,-164.24"/>
</a>
</g>
</g>
<!-- Node12 -->
<g id="Node000012" class="node">
<title>Node12</title>
<g id="a_Node000012"><a xlink:href="../../d2/d12/solve__polynomial_8hpp.html" target="_top" xlink:title="多项式方程闭式求解：三次、四次公式，有理根检验，无平方因子分解。">
<polygon fill="white" stroke="#666666" points="578.36,-74 416.36,-74 416.36,-55 578.36,-55 578.36,-74"/>
<text text-anchor="middle" x="497.36" y="-62" font-family="Helvetica,sans-Serif" font-size="10.00">include/solve_polynomial.hpp</text>
</a>
</g>
</g>
<!-- Node1&#45;&gt;Node12 -->
<g id="edge29_Node000001_Node000012" class="edge">
<title>Node1&#45;&gt;Node12</title>
<g id="a_edge29_Node000001_Node000012"><a xlink:title=" ">
<path fill="none" stroke="#63b8ff" d="M409.81,-157.3C431.94,-134.1 471.89,-92.21 489.11,-74.16"/>
<polygon fill="#63b8ff" stroke="#63b8ff" points="407.16,-155.01 402.79,-164.66 412.23,-159.84 407.16,-155.01"/>
</a>
</g>
</g>
<!-- Node2&#45;&gt;Node3 -->
<g id="edge2_Node000002_Node000003" class="edge">
<title>Node2&#45;&gt;Node3</title>
<g id="a_edge2_Node000002_Node000003"><a xlink:title=" ">
<path fill="none" stroke="#63b8ff" d="M56.44,-105C35.24,-92.55 11.42,-73.29 25.36,-55 38.63,-37.6 91.97,-25.32 133.86,-18.12"/>
<polygon fill="#63b8ff" stroke="#63b8ff" points="54.8,-108.09 65.24,-109.89 58.21,-101.98 54.8,-108.09"/>
</a>
</g>
</g>
<!-- Node4 -->
<g id="Node000004" class="node">
<title>Node4</title>
<g id="a_Node000004"><a xlink:href="../../d1/db4/symbolic_8cpp.html" target="_top" xlink:title=" ">
<polygon fill="white" stroke="#666666" points="132.36,-74 34.36,-74 34.36,-55 132.36,-55 132.36,-74"/>
<text text-anchor="middle" x="83.36" y="-62" font-family="Helvetica,sans-Serif" font-size="10.00">src/symbolic.cpp</text>
</a>
</g>
</g>
<!-- Node2&#45;&gt;Node4 -->
<g id="edge3_Node000002_Node000004" class="edge">
<title>Node2&#45;&gt;Node4</title>
<g id="a_edge3_Node000002_Node000004"><a xlink:title=" ">
<path fill="none" stroke="#63b8ff" d="M83.36,-99.66C83.36,-90.93 83.36,-80.99 83.36,-74.09"/>
<polygon fill="#63b8ff" stroke="#63b8ff" points="79.86,-99.75 83.36,-109.75 86.86,-99.75 79.86,-99.75"/>
</a>
</g>
</g>
<!-- Node6 -->
<g id="Node000006" class="node">
<title>Node6</title>
<g id="a_Node000006"><a xlink:href="../../dd/d65/newton__raphson_8cpp.html" target="_top" xlink:title=" ">
<polygon fill="white" stroke="#666666" points="360.36,-74 226.36,-74 226.36,-55 360.36,-55 360.36,-74"/>
<text text-anchor="middle" x="293.36" y="-62" font-family="Helvetica,sans-Serif" font-size="10.00">src/newton_raphson.cpp</text>
</a>
</g>
</g>
<!-- Node5&#45;&gt;Node6 -->
<g id="edge5_Node000005_Node000006" class="edge">
<title>Node5&#45;&gt;Node6</title>
<g id="a_edge5_Node000005_Node000006"><a xlink:title=" ">
<path fill="none" stroke="#63b8ff" d="M276.84,-100.53C281.05,-91.6 285.95,-81.22 289.31,-74.09"/>
<polygon fill="#63b8ff" stroke="#63b8ff" points="273.59,-99.21 272.49,-109.75 279.92,-102.2 273.59,-99.21"/>
</a>
</g>
</g>
<!-- Node7 -->
<g id="Node000007" class="node">
<title>Node7</title>
<g id="a_Node000007"><a xlink:href="../../d9/d5a/root__of__utils_8cpp.html" target="_top" xlink:title=" ">
<polygon fill="white" stroke="#666666" points="554.86,-19 439.86,-19 439.86,0 554.86,0 554.86,-19"/>
<text text-anchor="middle" x="497.36" y="-7" font-family="Helvetica,sans-Serif" font-size="10.00">src/root_of_utils.cpp</text>
</a>
</g>
</g>
<!-- Node5&#45;&gt;Node7 -->
<g id="edge6_Node000005_Node000007" class="edge">
<title>Node5&#45;&gt;Node7</title>
<g id="a_edge6_Node000005_Node000007"><a xlink:title=" ">
<path fill="none" stroke="#63b8ff" d="M230.37,-106.48C200.19,-95 165.88,-76.3 184.36,-55 216.74,-17.69 358.33,-10.85 439.55,-10.07"/>
<polygon fill="#63b8ff" stroke="#63b8ff" points="229.36,-109.84 239.96,-109.96 231.75,-103.26 229.36,-109.84"/>
</a>
</g>
</g>
<!-- Node8 -->
<g id="Node000008" class="node">
<title>Node8</title>
<g id="a_Node000008"><a xlink:href="../../d2/dab/solve__visitor_8cpp.html" target="_top" xlink:title=" ">
<polygon fill="white" stroke="#666666" points="741.36,-19 625.36,-19 625.36,0 741.36,0 741.36,-19"/>
<text text-anchor="middle" x="683.36" y="-7" font-family="Helvetica,sans-Serif" font-size="10.00">src/solve_visitor.cpp</text>
</a>
</g>
</g>
<!-- Node5&#45;&gt;Node8 -->
<g id="edge7_Node000005_Node000008" class="edge">
<title>Node5&#45;&gt;Node8</title>
<g id="a_edge7_Node000005_Node000008"><a xlink:title=" ">
<path fill="none" stroke="#63b8ff" d="M244.01,-104.28C224.49,-91.13 202.6,-71.24 217.36,-55 224.16,-47.52 501.98,-24.78 625.36,-15.02"/>
<polygon fill="#63b8ff" stroke="#63b8ff" points="242.36,-107.38 252.68,-109.8 246.13,-101.48 242.36,-107.38"/>
</a>
</g>
</g>
<!-- Node9&#45;&gt;Node3 -->
<g id="edge20_Node000009_Node000003" class="edge">
<title>Node9&#45;&gt;Node3</title>
<g id="a_edge20_Node000009_Node000003"><a xlink:title=" ">
<path fill="none" stroke="#63b8ff" d="M679.67,-116.19C609.04,-112.3 498.77,-101.89 407.36,-74 389.3,-68.49 387.09,-61.51 369.36,-55 324.78,-38.64 271.85,-26.47 234.6,-19.03"/>
<polygon fill="#63b8ff" stroke="#63b8ff" points="679.62,-119.69 689.79,-116.72 679.99,-112.7 679.62,-119.69"/>
</a>
</g>
</g>
<!-- Node9&#45;&gt;Node4 -->
<g id="edge27_Node000009_Node000004" class="edge">
<title>Node9&#45;&gt;Node4</title>
<g id="a_edge27_Node000009_Node000004"><a xlink:title=" ">
<path fill="none" stroke="#63b8ff" d="M679.36,-112.79C542.67,-101.94 248.86,-78.63 132.38,-69.39"/>
<polygon fill="#63b8ff" stroke="#63b8ff" points="679.47,-116.31 689.72,-113.61 680.03,-109.33 679.47,-116.31"/>
</a>
</g>
</g>
<!-- Node9&#45;&gt;Node6 -->
<g id="edge21_Node000009_Node000006" class="edge">
<title>Node9&#45;&gt;Node6</title>
<g id="a_edge21_Node000009_Node000006"><a xlink:title=" ">
<path fill="none" stroke="#63b8ff" d="M679.5,-110.18C592.08,-100.07 445.66,-83.12 360.46,-73.26"/>
<polygon fill="#63b8ff" stroke="#63b8ff" points="679.26,-113.68 689.6,-111.35 680.07,-106.73 679.26,-113.68"/>
</a>
</g>
</g>
<!-- Node9&#45;&gt;Node8 -->
<g id="edge25_Node000009_Node000008" class="edge">
<title>Node9&#45;&gt;Node8</title>
<g id="a_edge25_Node000009_Node000008"><a xlink:title=" ">
<path fill="none" stroke="#63b8ff" d="M823.52,-116.99C895.81,-113.78 999.92,-103.91 1025.36,-74 1030.84,-67.57 1030.94,-61.34 1025.36,-55 1006.97,-34.05 834.31,-20.03 741.6,-13.95"/>
<polygon fill="#63b8ff" stroke="#63b8ff" points="822.94,-113.51 813.1,-117.42 823.23,-120.51 822.94,-113.51"/>
</a>
</g>
</g>
<!-- Node9&#45;&gt;Node10 -->
<g id="edge9_Node000009_Node000010" class="edge">
<title>Node9&#45;&gt;Node10</title>
<g id="a_edge9_Node000009_Node000010"><a xlink:title=" ">
<path fill="none" stroke="#63b8ff" d="M823.22,-108.73C896.43,-98.79 1008.82,-83.51 1078.57,-74.03"/>
<polygon fill="#63b8ff" stroke="#63b8ff" points="822.6,-105.29 813.16,-110.1 823.54,-112.22 822.6,-105.29"/>
</a>
</g>
</g>
<!-- Node11 -->
<g id="Node000011" class="node">
<title>Node11</title>
<g id="a_Node000011"><a xlink:href="../../da/db6/solve__polynomial_8cpp.html" target="_top" xlink:title=" ">
<polygon fill="white" stroke="#666666" points="1211.36,-19 1071.36,-19 1071.36,0 1211.36,0 1211.36,-19"/>
<text text-anchor="middle" x="1141.36" y="-7" font-family="Helvetica,sans-Serif" font-size="10.00">src/solve_polynomial.cpp</text>
</a>
</g>
</g>
<!-- Node9&#45;&gt;Node11 -->
<g id="edge23_Node000009_Node000011" class="edge">
<title>Node9&#45;&gt;Node11</title>
<g id="a_edge23_Node000009_Node000011"><a xlink:title=" ">
<path fill="none" stroke="#63b8ff" d="M823.23,-117.12C951.3,-113.92 1208.16,-103.82 1235.36,-74 1257.73,-49.48 1209.93,-29.73 1174.64,-19.09"/>
<polygon fill="#63b8ff" stroke="#63b8ff" points="823.03,-113.63 813.12,-117.37 823.2,-120.63 823.03,-113.63"/>
</a>
</g>
</g>
<!-- Node9&#45;&gt;Node12 -->
<g id="edge13_Node000009_Node000012" class="edge">
<title>Node9&#45;&gt;Node12</title>
<g id="a_edge13_Node000009_Node000012"><a xlink:title=" ">
<path fill="none" stroke="#63b8ff" d="M700.76,-107.94C653.15,-98.01 582.74,-83.31 538.49,-74.08"/>
<polygon fill="#63b8ff" stroke="#63b8ff" points="700.05,-111.37 710.55,-109.98 701.48,-104.52 700.05,-111.37"/>
</a>
</g>
</g>
<!-- Node13 -->
<g id="Node000013" class="node">
<title>Node13</title>
<g id="a_Node000013"><a xlink:href="../../d4/d2c/inequality__solver_8cpp.html" target="_top" xlink:title=" ">
<polygon fill="white" stroke="#666666" points="1000.86,-19 863.86,-19 863.86,0 1000.86,0 1000.86,-19"/>
<text text-anchor="middle" x="932.36" y="-7" font-family="Helvetica,sans-Serif" font-size="10.00">src/inequality_solver.cpp</text>
</a>
</g>
</g>
<!-- Node9&#45;&gt;Node13 -->
<g id="edge19_Node000009_Node000013" class="edge">
<title>Node9&#45;&gt;Node13</title>
<g id="a_edge19_Node000009_Node000013"><a xlink:title=" ">
<path fill="none" stroke="#63b8ff" d="M823.14,-116.88C947.72,-113.32 1193.26,-102.7 1219.36,-74 1225.05,-67.75 1224.86,-61.41 1219.36,-55 1205.3,-38.58 1081.27,-24.19 1000.93,-16.48"/>
<polygon fill="#63b8ff" stroke="#63b8ff" points="822.83,-113.39 812.93,-117.16 823.02,-120.38 822.83,-113.39"/>
</a>
</g>
</g>
<!-- Node14 -->
<g id="Node000014" class="node">
<title>Node14</title>
<g id="a_Node000014"><a xlink:href="../../d4/d9a/parametric__solver_8cpp.html" target="_top" xlink:title=" ">
<polygon fill="white" stroke="#666666" points="738.36,-74 596.36,-74 596.36,-55 738.36,-55 738.36,-74"/>
<text text-anchor="middle" x="667.36" y="-62" font-family="Helvetica,sans-Serif" font-size="10.00">src/parametric_solver.cpp</text>
</a>
</g>
</g>
<!-- Node9&#45;&gt;Node14 -->
<g id="edge22_Node000009_Node000014" class="edge">
<title>Node9&#45;&gt;Node14</title>
<g id="a_edge22_Node000009_Node000014"><a xlink:title=" ">
<path fill="none" stroke="#63b8ff" d="M729.06,-104.42C713.81,-94.81 694.1,-82.37 681.11,-74.17"/>
<polygon fill="#63b8ff" stroke="#63b8ff" points="727.54,-107.61 737.87,-109.98 731.28,-101.69 727.54,-107.61"/>
</a>
</g>
</g>
<!-- Node15 -->
<g id="Node000015" class="node">
<title>Node15</title>
<g id="a_Node000015"><a xlink:href="../../db/df9/solve__transcendental_8cpp.html" target="_top" xlink:title=" ">
<polygon fill="white" stroke="#666666" points="914.36,-74 756.36,-74 756.36,-55 914.36,-55 914.36,-74"/>
<text text-anchor="middle" x="835.36" y="-62" font-family="Helvetica,sans-Serif" font-size="10.00">src/solve_transcendental.cpp</text>
</a>
</g>
</g>
<!-- Node9&#45;&gt;Node15 -->
<g id="edge24_Node000009_Node000015" class="edge">
<title>Node9&#45;&gt;Node15</title>
<g id="a_edge24_Node000009_Node000015"><a xlink:title=" ">
<path fill="none" stroke="#63b8ff" d="M773.67,-104.42C788.92,-94.81 808.63,-82.37 821.62,-74.17"/>
<polygon fill="#63b8ff" stroke="#63b8ff" points="771.45,-101.69 764.86,-109.98 775.19,-107.61 771.45,-101.69"/>
</a>
</g>
</g>
<!-- Node16 -->
<g id="Node000016" class="node">
<title>Node16</title>
<g id="a_Node000016"><a xlink:href="../../d6/d94/solver_8cpp.html" target="_top" xlink:title=" ">
<polygon fill="white" stroke="#666666" points="1015.86,-74 932.86,-74 932.86,-55 1015.86,-55 1015.86,-74"/>
<text text-anchor="middle" x="974.36" y="-62" font-family="Helvetica,sans-Serif" font-size="10.00">src/solver.cpp</text>
</a>
</g>
</g>
<!-- Node9&#45;&gt;Node16 -->
<g id="edge26_Node000009_Node000016" class="edge">
<title>Node9&#45;&gt;Node16</title>
<g id="a_edge26_Node000009_Node000016"><a xlink:title=" ">
<path fill="none" stroke="#63b8ff" d="M797.11,-107.63C838.88,-97.7 899.81,-83.22 938.25,-74.08"/>
<polygon fill="#63b8ff" stroke="#63b8ff" points="796.11,-104.27 787.19,-109.98 797.73,-111.08 796.11,-104.27"/>
</a>
</g>
</g>
<!-- Node10&#45;&gt;Node7 -->
<g id="edge10_Node000010_Node000007" class="edge">
<title>Node10&#45;&gt;Node7</title>
<g id="a_edge10_Node000010_Node000007"><a xlink:title=" ">
<path fill="none" stroke="#63b8ff" d="M1062.76,-57.03C931.54,-46.23 670.83,-24.78 555.07,-15.25"/>
<polygon fill="#63b8ff" stroke="#63b8ff" points="1062.5,-60.52 1072.75,-57.85 1063.07,-53.54 1062.5,-60.52"/>
</a>
</g>
</g>
<!-- Node10&#45;&gt;Node8 -->
<g id="edge12_Node000010_Node000008" class="edge">
<title>Node10&#45;&gt;Node8</title>
<g id="a_edge12_Node000010_Node000008"><a xlink:title=" ">
<path fill="none" stroke="#63b8ff" d="M1062.78,-54.41C971.49,-43.84 823,-26.66 741.5,-17.23"/>
<polygon fill="#63b8ff" stroke="#63b8ff" points="1062.46,-57.89 1072.8,-55.57 1063.27,-50.94 1062.46,-57.89"/>
</a>
</g>
</g>
<!-- Node10&#45;&gt;Node11 -->
<g id="edge11_Node000010_Node000011" class="edge">
<title>Node10&#45;&gt;Node11</title>
<g id="a_edge11_Node000010_Node000011"><a xlink:title=" ">
<path fill="none" stroke="#63b8ff" d="M1141.36,-44.66C1141.36,-35.93 1141.36,-25.99 1141.36,-19.09"/>
<polygon fill="#63b8ff" stroke="#63b8ff" points="1137.86,-44.75 1141.36,-54.75 1144.86,-44.75 1137.86,-44.75"/>
</a>
</g>
</g>
<!-- Node12&#45;&gt;Node3 -->
<g id="edge15_Node000012_Node000003" class="edge">
<title>Node12&#45;&gt;Node3</title>
<g id="a_edge15_Node000012_Node000003"><a xlink:title=" ">
<path fill="none" stroke="#63b8ff" d="M437.4,-53.25C379.19,-43.3 291.85,-28.36 237.3,-19.04"/>
<polygon fill="#63b8ff" stroke="#63b8ff" points="437.11,-56.75 447.56,-54.98 438.29,-49.85 437.11,-56.75"/>
</a>
</g>
</g>
<!-- Node12&#45;&gt;Node7 -->
<g id="edge16_Node000012_Node000007" class="edge">
<title>Node12&#45;&gt;Node7</title>
<g id="a_edge16_Node000012_Node000007"><a xlink:title=" ">
<path fill="none" stroke="#63b8ff" d="M497.36,-44.66C497.36,-35.93 497.36,-25.99 497.36,-19.09"/>
<polygon fill="#63b8ff" stroke="#63b8ff" points="493.86,-44.75 497.36,-54.75 500.86,-44.75 493.86,-44.75"/>
</a>
</g>
</g>
<!-- Node12&#45;&gt;Node8 -->
<g id="edge18_Node000012_Node000008" class="edge">
<title>Node12&#45;&gt;Node8</title>
<g id="a_edge18_Node000012_Node000008"><a xlink:title=" ">
<path fill="none" stroke="#63b8ff" d="M537.08,-52.18C571.86,-42.27 621.66,-28.08 653.25,-19.08"/>
<polygon fill="#63b8ff" stroke="#63b8ff" points="535.91,-48.88 527.25,-54.98 537.82,-55.61 535.91,-48.88"/>
</a>
</g>
</g>
<!-- Node12&#45;&gt;Node11 -->
<g id="edge17_Node000012_Node000011" class="edge">
<title>Node12&#45;&gt;Node11</title>
<g id="a_edge17_Node000012_Node000011"><a xlink:title=" ">
<path fill="none" stroke="#63b8ff" d="M588.97,-54.87C768.67,-39.23 967.64,-23.74 1070.94,-15.84"/>
<polygon fill="#63b8ff" stroke="#63b8ff" points="588.45,-51.4 578.79,-55.76 589.06,-58.38 588.45,-51.4"/>
</a>
</g>
</g>
<!-- Node12&#45;&gt;Node13 -->
<g id="edge14_Node000012_Node000013" class="edge">
<title>Node12&#45;&gt;Node13</title>
<g id="a_edge14_Node000012_Node000013"><a xlink:title=" ">
<path fill="none" stroke="#63b8ff" d="M577.29,-53.76C659.43,-43.75 785.97,-28.34 863.72,-18.86"/>
<polygon fill="#63b8ff" stroke="#63b8ff" points="576.76,-50.3 567.25,-54.98 577.6,-57.25 576.76,-50.3"/>
</a>
</g>
</g>
</g>
</svg>
