<?xml version="1.0" encoding="UTF-8" standalone="no"?>
<!DOCTYPE svg PUBLIC "-//W3C//DTD SVG 1.1//EN"
 "http://www.w3.org/Graphics/SVG/1.1/DTD/svg11.dtd">
<!-- Generated by graphviz version 2.43.0 (0)
 -->
<!-- Title: lamina::anonymous_namespace{integration::cpp}::rd_is_zero_poly Pages: 1 -->
<svg width="407pt" height="67pt"
 viewBox="0.00 0.00 407.00 67.00" xmlns="http://www.w3.org/2000/svg" xmlns:xlink="http://www.w3.org/1999/xlink">

<svg id="main" version="1.1" xmlns="http://www.w3.org/2000/svg" xmlns:xlink="http://www.w3.org/1999/xlink" xml:space="preserve" onload="init(evt)">
<style type="text/css"><![CDATA[
.node, .edge {opacity: 0.7;}
.node.selected, .edge.selected {opacity: 1;}
.edge:hover path { stroke: red; }
.edge:hover polygon { stroke: red; fill: red; }
]]></style>
<script type="application/ecmascript" xlink:href="../../svg.min.js"/>
<svg id="graph" class="graph">
<g id="graph0" class="graph" transform="scale(1 1) rotate(0) translate(4 63)">
<title>lamina::anonymous_namespace{integration::cpp}::rd_is_zero_poly</title>
<!-- Node1 -->
<g id="Node000001" class="node">
<title>Node1</title>
<g id="a_Node000001"><a xlink:title=" ">
<polygon fill="#999999" stroke="#666666" points="399,-41 224,-41 224,0 399,0 399,-41"/>
<text text-anchor="start" x="232" y="-29" font-family="Helvetica,sans-Serif" font-size="10.00">lamina::anonymous_namespace</text>
<text text-anchor="start" x="232" y="-18" font-family="Helvetica,sans-Serif" font-size="10.00">{integration::cpp}::rd_is</text>
<text text-anchor="middle" x="311.5" y="-7" font-family="Helvetica,sans-Serif" font-size="10.00">_zero_poly</text>
</a>
</g>
</g>
<!-- Node1&#45;&gt;Node1 -->
<g id="edge1_Node000001_Node000001" class="edge">
<title>Node1&#45;&gt;Node1</title>
<g id="a_edge1_Node000001_Node000001"><a xlink:title=" ">
<path fill="none" stroke="#63b8ff" d="M348.66,-50.96C343.14,-55.74 330.75,-59 311.5,-59 280.7,-59 267.47,-50.65 271.8,-41.1"/>
<polygon fill="#63b8ff" stroke="#63b8ff" points="352.1,-51.65 351.2,-41.1 345.32,-49.91 352.1,-51.65"/>
</a>
</g>
</g>
<!-- Node2 -->
<g id="Node000002" class="node">
<title>Node2</title>
<g id="a_Node000002"><a xlink:href="../../d3/db9/namespacelamina_1_1anonymous__namespace_02integration_8cpp_03.html#af90ac3aabce12d3df0ee7519f35e250b" target="_top" xlink:title=" ">
<polygon fill="white" stroke="#666666" points="188,-35.5 0,-35.5 0,-5.5 188,-5.5 188,-35.5"/>
<text text-anchor="start" x="8" y="-23.5" font-family="Helvetica,sans-Serif" font-size="10.00">lamina::anonymous_namespace</text>
<text text-anchor="middle" x="94" y="-12.5" font-family="Helvetica,sans-Serif" font-size="10.00">{integration::cpp}::rd_poly_to_sym</text>
</a>
</g>
</g>
<!-- Node1&#45;&gt;Node2 -->
<g id="edge2_Node000001_Node000002" class="edge">
<title>Node1&#45;&gt;Node2</title>
<g id="a_edge2_Node000001_Node000002"><a xlink:title=" ">
<path fill="none" stroke="#63b8ff" d="M213.56,-20.5C205.14,-20.5 196.63,-20.5 188.24,-20.5"/>
<polygon fill="#63b8ff" stroke="#63b8ff" points="213.78,-24 223.78,-20.5 213.78,-17 213.78,-24"/>
</a>
</g>
</g>
<!-- Node2&#45;&gt;Node2 -->
<g id="edge3_Node000002_Node000002" class="edge">
<title>Node2&#45;&gt;Node2</title>
<g id="a_edge3_Node000002_Node000002"><a xlink:title=" ">
<path fill="none" stroke="#63b8ff" d="M131.81,-46.1C126.64,-50.47 114.04,-53.5 94,-53.5 60.25,-53.5 47.59,-44.91 56.03,-35.78"/>
<polygon fill="#63b8ff" stroke="#63b8ff" points="135.31,-45.83 131.97,-35.78 128.31,-45.72 135.31,-45.83"/>
</a>
</g>
</g>
</g>
</svg>
</svg>

<style type='text/css'>
<![CDATA[
[data-mouse-over-selected='false'] { opacity: 0.7; }
[data-mouse-over-selected='true']  { opacity: 1.0; }
]]>
</style>
<script type="application/ecmascript"><![CDATA[
document.addEventListener('DOMContentLoaded', (event) => {
  highlightEdges();
  highlightAdjacentNodes();
});
]]></script>
</svg>
