<?xml version="1.0" encoding="UTF-8" standalone="no"?>
<!DOCTYPE svg PUBLIC "-//W3C//DTD SVG 1.1//EN"
 "http://www.w3.org/Graphics/SVG/1.1/DTD/svg11.dtd">
<!-- Generated by graphviz version 2.43.0 (0)
 -->
<!-- Title: lamina::anonymous_namespace{integration::cpp}::rd_var_minus Pages: 1 -->
<svg width="350pt" height="101pt"
 viewBox="0.00 0.00 350.00 101.00" xmlns="http://www.w3.org/2000/svg" xmlns:xlink="http://www.w3.org/1999/xlink">

<svg id="main" version="1.1" xmlns="http://www.w3.org/2000/svg" xmlns:xlink="http://www.w3.org/1999/xlink" xml:space="preserve" onload="init(evt)">
<style type="text/css"><![CDATA[
.node, .edge {opacity: 0.7;}
.node.selected, .edge.selected {opacity: 1;}
.edge:hover path { stroke: red; }
.edge:hover polygon { stroke: red; fill: red; }
]]></style>
<script type="application/ecmascript" xlink:href="../../svg.min.js"/>
<svg id="graph" class="graph">
<g id="graph0" class="graph" transform="scale(1 1) rotate(0) translate(4 97)">
<title>lamina::anonymous_namespace{integration::cpp}::rd_var_minus</title>
<!-- Node1 -->
<g id="Node000001" class="node">
<title>Node1</title>
<g id="a_Node000001"><a xlink:title=" ">
<polygon fill="#999999" stroke="#666666" points="177,-61.5 0,-61.5 0,-31.5 177,-31.5 177,-61.5"/>
<text text-anchor="start" x="8" y="-49.5" font-family="Helvetica,sans-Serif" font-size="10.00">lamina::anonymous_namespace</text>
<text text-anchor="middle" x="88.5" y="-38.5" font-family="Helvetica,sans-Serif" font-size="10.00">{integration::cpp}::rd_var_minus</text>
</a>
</g>
</g>
<!-- Node1&#45;&gt;Node1 -->
<g id="edge3_Node000001_Node000001" class="edge">
<title>Node1&#45;&gt;Node1</title>
<g id="a_edge3_Node000001_Node000001"><a xlink:title=" ">
<path fill="none" stroke="#63b8ff" d="M55.45,-61.78C48.11,-70.91 59.12,-79.5 88.5,-79.5 105.94,-79.5 116.91,-76.47 121.41,-72.1"/>
<polygon fill="#63b8ff" stroke="#63b8ff" points="124.91,-71.82 121.55,-61.78 117.91,-71.73 124.91,-71.82"/>
</a>
</g>
</g>
<!-- Node2 -->
<g id="Node000002" class="node">
<title>Node2</title>
<g id="a_Node000002"><a xlink:href="../../dc/d25/classSymbolicExpr.html#ac8782568f037f8055277e5d8b80ec6d6" target="_top" xlink:title="创建加法表达式。">
<polygon fill="white" stroke="#666666" points="331,-93 224,-93 224,-74 331,-74 331,-93"/>
<text text-anchor="middle" x="277.5" y="-81" font-family="Helvetica,sans-Serif" font-size="10.00">SymbolicExpr::add</text>
</a>
</g>
</g>
<!-- Node1&#45;&gt;Node2 -->
<g id="edge1_Node000001_Node000002" class="edge">
<title>Node1&#45;&gt;Node2</title>
<g id="a_edge1_Node000001_Node000002"><a xlink:title=" ">
<path fill="none" stroke="#63b8ff" d="M165.56,-61.55C183.14,-65.03 201.58,-68.68 218.27,-71.98"/>
<polygon fill="#63b8ff" stroke="#63b8ff" points="217.91,-75.48 228.4,-73.98 219.27,-68.61 217.91,-75.48"/>
</a>
</g>
</g>
<!-- Node3 -->
<g id="Node000003" class="node">
<title>Node3</title>
<g id="a_Node000003"><a xlink:href="../../dc/d25/classSymbolicExpr.html#adeb760bb6f4f28879108394537eca293" target="_top" xlink:title="创建整数数值表达式。">
<polygon fill="white" stroke="#666666" points="341,-56 214,-56 214,-37 341,-37 341,-56"/>
<text text-anchor="middle" x="277.5" y="-44" font-family="Helvetica,sans-Serif" font-size="10.00">SymbolicExpr::number</text>
</a>
</g>
</g>
<!-- Node1&#45;&gt;Node3 -->
<g id="edge2_Node000001_Node000003" class="edge">
<title>Node1&#45;&gt;Node3</title>
<g id="a_edge2_Node000001_Node000003"><a xlink:title=" ">
<path fill="none" stroke="#63b8ff" d="M177.25,-46.5C186.12,-46.5 195.05,-46.5 203.74,-46.5"/>
<polygon fill="#63b8ff" stroke="#63b8ff" points="203.8,-50 213.8,-46.5 203.8,-43 203.8,-50"/>
</a>
</g>
</g>
<!-- Node4 -->
<g id="Node000004" class="node">
<title>Node4</title>
<g id="a_Node000004"><a xlink:href="../../dc/d25/classSymbolicExpr.html#a1718e8c497b928507b31acb089cc64ff" target="_top" xlink:title="创建变量表达式。">
<polygon fill="white" stroke="#666666" points="342,-19 213,-19 213,0 342,0 342,-19"/>
<text text-anchor="middle" x="277.5" y="-7" font-family="Helvetica,sans-Serif" font-size="10.00">SymbolicExpr::variable</text>
</a>
</g>
</g>
<!-- Node1&#45;&gt;Node4 -->
<g id="edge4_Node000001_Node000004" class="edge">
<title>Node1&#45;&gt;Node4</title>
<g id="a_edge4_Node000001_Node000004"><a xlink:title=" ">
<path fill="none" stroke="#63b8ff" d="M165.56,-31.45C183.14,-27.97 201.58,-24.32 218.27,-21.02"/>
<polygon fill="#63b8ff" stroke="#63b8ff" points="219.27,-24.39 228.4,-19.02 217.91,-17.52 219.27,-24.39"/>
</a>
</g>
</g>
</g>
</svg>
</svg>

<style type='text/css'>
<![CDATA[
[data-mouse-over-selected='false'] { opacity: 0.7; }
[data-mouse-over-selected='true']  { opacity: 1.0; }
]]>
</style>
<script type="application/ecmascript"><![CDATA[
document.addEventListener('DOMContentLoaded', (event) => {
  highlightEdges();
  highlightAdjacentNodes();
});
]]></script>
</svg>
