<?xml version="1.0" encoding="UTF-8" standalone="no"?>
<!DOCTYPE svg PUBLIC "-//W3C//DTD SVG 1.1//EN"
 "http://www.w3.org/Graphics/SVG/1.1/DTD/svg11.dtd">
<!-- Generated by graphviz version 2.43.0 (0)
 -->
<!-- Title: lamina::anonymous_namespace{integration::cpp}::rd_poly_to_sym Pages: 1 -->
<!--zoomable 387 -->

<svg id="main" version="1.1" xmlns="http://www.w3.org/2000/svg" xmlns:xlink="http://www.w3.org/1999/xlink" xml:space="preserve" onload="init(evt)">
<style type="text/css"><![CDATA[
.node, .edge {opacity: 0.7;}
.node.selected, .edge.selected {opacity: 1;}
.edge:hover path { stroke: red; }
.edge:hover polygon { stroke: red; fill: red; }
]]></style>

<defs>
  <circle id="rim" cx="0" cy="0" r="7"/>
  <circle id="rim2" cx="0" cy="0" r="3.5"/>
  <g id="zoomPlus">
    <use xlink:href="#rim" fill="#404040"><set attributeName="fill" to="#808080" begin="zoomplus.mouseover" end="zoomplus.mouseout"/></use>
    <path d="M-4,0h8M0,-4v8" fill="none" stroke="white" stroke-width="1.5" pointer-events="none"/>
  </g>
  <g id="zoomMin">
    <use xlink:href="#rim" fill="#404040"><set attributeName="fill" to="#808080" begin="zoomminus.mouseover" end="zoomminus.mouseout"/></use>
    <path d="M-4,0h8" fill="none" stroke="white" stroke-width="1.5" pointer-events="none"/>
  </g>
  <g id="arrowUp" transform="translate(30 24)">
    <use xlink:href="#rim"/>
    <path pointer-events="none" fill="none" stroke="white" stroke-width="1.5" d="M0,-3.0v7 M-2.5,-0.5L0,-3.0L2.5,-0.5"/>
  </g>
  <g id="arrowRight" transform="rotate(90) translate(36 -43)">
    <use xlink:href="#rim"/>
    <path pointer-events="none" fill="none" stroke="white" stroke-width="1.5" d="M0,-3.0v7 M-2.5,-0.5L0,-3.0L2.5,-0.5"/>
  </g>
  <g id="arrowDown" transform="rotate(180) translate(-30 -48)">
    <use xlink:href="#rim"/>
    <path pointer-events="none" fill="none" stroke="white" stroke-width="1.5" d="M0,-3.0v7 M-2.5,-0.5L0,-3.0L2.5,-0.5"/>
  </g>
  <g id="arrowLeft" transform="rotate(270) translate(-36 17)">
    <use xlink:href="#rim"/>
    <path pointer-events="none" fill="none" stroke="white" stroke-width="1.5" d="M0,-3.0v7 M-2.5,-0.5L0,-3.0L2.5,-0.5"/>
  </g>
  <g id="resetDef">
    <use xlink:href="#rim2" fill="#404040"><set attributeName="fill" to="#808080" begin="reset.mouseover" end="reset.mouseout"/></use>
  </g>
</defs>
<script type="application/ecmascript">
var viewWidth = 570;
var viewHeight = 387;
var sectionId = 'dynsection-16';
</script>
<script type="application/ecmascript" xlink:href="../../svg.min.js"/>
<svg id="graph" class="graph">
<g id="viewport">
<title>lamina::anonymous_namespace{integration::cpp}::rd_poly_to_sym</title>
<!-- Node1 -->
<g id="Node000001" class="node">
<title>Node1</title>
<g id="a_Node000001"><a xlink:title=" ">
<polygon fill="#999999" stroke="#666666" points="188,-238.5 0,-238.5 0,-208.5 188,-208.5 188,-238.5"/>
<text text-anchor="start" x="8" y="-226.5" font-family="Helvetica,sans-Serif" font-size="10.00">lamina::anonymous_namespace</text>
<text text-anchor="middle" x="94" y="-215.5" font-family="Helvetica,sans-Serif" font-size="10.00">{integration::cpp}::rd_poly_to_sym</text>
</a>
</g>
</g>
<!-- Node1&#45;&gt;Node1 -->
<g id="edge13_Node000001_Node000001" class="edge">
<title>Node1&#45;&gt;Node1</title>
<g id="a_edge13_Node000001_Node000001"><a xlink:title=" ">
<path fill="none" stroke="#63b8ff" d="M56.03,-238.78C47.59,-247.91 60.25,-256.5 94,-256.5 114.04,-256.5 126.64,-253.47 131.81,-249.1"/>
<polygon fill="#63b8ff" stroke="#63b8ff" points="135.31,-248.83 131.97,-238.78 128.31,-248.72 135.31,-248.83"/>
</a>
</g>
</g>
<!-- Node2 -->
<g id="Node000002" class="node">
<title>Node2</title>
<g id="a_Node000002"><a xlink:href="../../dc/d25/classSymbolicExpr.html#ac8782568f037f8055277e5d8b80ec6d6" target="_top" xlink:title="创建加法表达式。">
<polygon fill="white" stroke="#666666" points="365,-379 258,-379 258,-360 365,-360 365,-379"/>
<text text-anchor="middle" x="311.5" y="-367" font-family="Helvetica,sans-Serif" font-size="10.00">SymbolicExpr::add</text>
</a>
</g>
</g>
<!-- Node1&#45;&gt;Node2 -->
<g id="edge1_Node000001_Node000002" class="edge">
<title>Node1&#45;&gt;Node2</title>
<g id="a_edge1_Node000001_Node000002"><a xlink:title=" ">
<path fill="none" stroke="#63b8ff" d="M105.46,-238.55C125.24,-265.76 170.93,-322.96 224,-351.5 231.38,-355.47 239.55,-358.56 247.83,-360.97"/>
<polygon fill="#63b8ff" stroke="#63b8ff" points="247.01,-364.38 257.57,-363.51 248.77,-357.6 247.01,-364.38"/>
</a>
</g>
</g>
<!-- Node3 -->
<g id="Node000003" class="node">
<title>Node3</title>
<g id="a_Node000003"><a xlink:href="../../dc/d25/classSymbolicExpr.html#ad03189fc8a4db7762f7c1ca890674bbc" target="_top" xlink:title="创建乘法表达式。">
<polygon fill="white" stroke="#666666" points="376.5,-342 246.5,-342 246.5,-323 376.5,-323 376.5,-342"/>
<text text-anchor="middle" x="311.5" y="-330" font-family="Helvetica,sans-Serif" font-size="10.00">SymbolicExpr::multiply</text>
</a>
</g>
</g>
<!-- Node1&#45;&gt;Node3 -->
<g id="edge2_Node000001_Node000003" class="edge">
<title>Node1&#45;&gt;Node3</title>
<g id="a_edge2_Node000001_Node000003"><a xlink:title=" ">
<path fill="none" stroke="#63b8ff" d="M113.99,-238.78C138.21,-257.6 182,-289.41 224,-308.5 234.1,-313.09 245.28,-316.99 256.14,-320.22"/>
<polygon fill="#63b8ff" stroke="#63b8ff" points="255.43,-323.65 266,-323 257.33,-316.91 255.43,-323.65"/>
</a>
</g>
</g>
<!-- Node4 -->
<g id="Node000004" class="node">
<title>Node4</title>
<g id="a_Node000004"><a xlink:href="../../dc/d25/classSymbolicExpr.html#adeb760bb6f4f28879108394537eca293" target="_top" xlink:title="创建整数数值表达式。">
<polygon fill="white" stroke="#666666" points="562,-128 435,-128 435,-109 562,-109 562,-128"/>
<text text-anchor="middle" x="498.5" y="-116" font-family="Helvetica,sans-Serif" font-size="10.00">SymbolicExpr::number</text>
</a>
</g>
</g>
<!-- Node1&#45;&gt;Node4 -->
<g id="edge3_Node000001_Node000004" class="edge">
<title>Node1&#45;&gt;Node4</title>
<g id="a_edge3_Node000001_Node000004"><a xlink:title=" ">
<path fill="none" stroke="#63b8ff" d="M121.29,-238.65C176.43,-268.24 306.7,-326.56 399,-275.5 452.61,-245.85 480.96,-173.46 491.97,-138.31"/>
<polygon fill="#63b8ff" stroke="#63b8ff" points="495.45,-138.88 494.95,-128.3 488.74,-136.89 495.45,-138.88"/>
</a>
</g>
</g>
<!-- Node5 -->
<g id="Node000005" class="node">
<title>Node5</title>
<g id="a_Node000005"><a xlink:href="../../dc/d25/classSymbolicExpr.html#ab03922681e30190ba7c73d2c1e58aa40" target="_top" xlink:title="创建幂运算表达式。">
<polygon fill="white" stroke="#666666" points="371,-266 252,-266 252,-247 371,-247 371,-266"/>
<text text-anchor="middle" x="311.5" y="-254" font-family="Helvetica,sans-Serif" font-size="10.00">SymbolicExpr::power</text>
</a>
</g>
</g>
<!-- Node1&#45;&gt;Node5 -->
<g id="edge4_Node000001_Node000005" class="edge">
<title>Node1&#45;&gt;Node5</title>
<g id="a_edge4_Node000001_Node000005"><a xlink:title=" ">
<path fill="none" stroke="#63b8ff" d="M188.27,-237.78C206.17,-240.52 224.61,-243.35 241.57,-245.94"/>
<polygon fill="#63b8ff" stroke="#63b8ff" points="241.5,-249.48 251.92,-247.53 242.56,-242.56 241.5,-249.48"/>
</a>
</g>
</g>
<!-- Node6 -->
<g id="Node000006" class="node">
<title>Node6</title>
<g id="a_Node000006"><a xlink:href="../../d3/db9/namespacelamina_1_1anonymous__namespace_02integration_8cpp_03.html#a72482a7ebf18661039f6ecfc06191698" target="_top" xlink:title=" ">
<polygon fill="white" stroke="#666666" points="399,-211 224,-211 224,-170 399,-170 399,-211"/>
<text text-anchor="start" x="232" y="-199" font-family="Helvetica,sans-Serif" font-size="10.00">lamina::anonymous_namespace</text>
<text text-anchor="start" x="232" y="-188" font-family="Helvetica,sans-Serif" font-size="10.00">{integration::cpp}::rd_is</text>
<text text-anchor="middle" x="311.5" y="-177" font-family="Helvetica,sans-Serif" font-size="10.00">_zero_poly</text>
</a>
</g>
</g>
<!-- Node1&#45;&gt;Node6 -->
<g id="edge5_Node000001_Node000006" class="edge">
<title>Node1&#45;&gt;Node6</title>
<g id="a_edge5_Node000001_Node000006"><a xlink:title=" ">
<path fill="none" stroke="#63b8ff" d="M188.27,-209.22C196.77,-207.92 205.4,-206.59 213.93,-205.29"/>
<polygon fill="#63b8ff" stroke="#63b8ff" points="214.53,-208.74 223.89,-203.76 213.47,-201.82 214.53,-208.74"/>
</a>
</g>
</g>
<!-- Node7 -->
<g id="Node000007" class="node">
<title>Node7</title>
<g id="a_Node000007"><a xlink:href="../../d3/db9/namespacelamina_1_1anonymous__namespace_02integration_8cpp_03.html#a7b04b30c1262807066eed8d8ab11b5b5" target="_top" xlink:title=" ">
<polygon fill="white" stroke="#666666" points="399,-133.5 224,-133.5 224,-103.5 399,-103.5 399,-133.5"/>
<text text-anchor="start" x="232" y="-121.5" font-family="Helvetica,sans-Serif" font-size="10.00">lamina::anonymous_namespace</text>
<text text-anchor="middle" x="311.5" y="-110.5" font-family="Helvetica,sans-Serif" font-size="10.00">{integration::cpp}::rd_num_int</text>
</a>
</g>
</g>
<!-- Node1&#45;&gt;Node7 -->
<g id="edge7_Node000001_Node000007" class="edge">
<title>Node1&#45;&gt;Node7</title>
<g id="a_edge7_Node000001_Node000007"><a xlink:title=" ">
<path fill="none" stroke="#63b8ff" d="M125.88,-208.46C163.96,-189.9 228.79,-158.31 270.61,-137.94"/>
<polygon fill="#63b8ff" stroke="#63b8ff" points="272.22,-141.04 279.68,-133.52 269.16,-134.75 272.22,-141.04"/>
</a>
</g>
</g>
<!-- Node8 -->
<g id="Node000008" class="node">
<title>Node8</title>
<g id="a_Node000008"><a xlink:href="../../d3/db9/namespacelamina_1_1anonymous__namespace_02integration_8cpp_03.html#a714a8e21bccdb540d411c9392bf05993" target="_top" xlink:title=" ">
<polygon fill="white" stroke="#666666" points="399,-67.5 224,-67.5 224,-37.5 399,-37.5 399,-67.5"/>
<text text-anchor="start" x="232" y="-55.5" font-family="Helvetica,sans-Serif" font-size="10.00">lamina::anonymous_namespace</text>
<text text-anchor="middle" x="311.5" y="-44.5" font-family="Helvetica,sans-Serif" font-size="10.00">{integration::cpp}::rd_num_rat</text>
</a>
</g>
</g>
<!-- Node1&#45;&gt;Node8 -->
<g id="edge10_Node000001_Node000008" class="edge">
<title>Node1&#45;&gt;Node8</title>
<g id="a_edge10_Node000001_Node000008"><a xlink:title=" ">
<path fill="none" stroke="#63b8ff" d="M107.2,-208.34C128.66,-182.42 175.49,-129.03 224,-94.5 236.04,-85.93 250.09,-78.26 263.33,-71.9"/>
<polygon fill="#63b8ff" stroke="#63b8ff" points="265.19,-74.9 272.78,-67.51 262.24,-68.55 265.19,-74.9"/>
</a>
</g>
</g>
<!-- Node9 -->
<g id="Node000009" class="node">
<title>Node9</title>
<g id="a_Node000009"><a xlink:href="../../dc/d25/classSymbolicExpr.html#a1718e8c497b928507b31acb089cc64ff" target="_top" xlink:title="创建变量表达式。">
<polygon fill="white" stroke="#666666" points="376,-19 247,-19 247,0 376,0 376,-19"/>
<text text-anchor="middle" x="311.5" y="-7" font-family="Helvetica,sans-Serif" font-size="10.00">SymbolicExpr::variable</text>
</a>
</g>
</g>
<!-- Node1&#45;&gt;Node9 -->
<g id="edge14_Node000001_Node000009" class="edge">
<title>Node1&#45;&gt;Node9</title>
<g id="a_edge14_Node000001_Node000009"><a xlink:title=" ">
<path fill="none" stroke="#63b8ff" d="M100.35,-208.43C114.34,-171.36 155.72,-75.34 224,-28.5 228.07,-25.71 232.47,-23.32 237.06,-21.28"/>
<polygon fill="#63b8ff" stroke="#63b8ff" points="238.65,-24.42 246.71,-17.55 236.12,-17.89 238.65,-24.42"/>
</a>
</g>
</g>
<!-- Node6&#45;&gt;Node6 -->
<g id="edge6_Node000006_Node000006" class="edge">
<title>Node6&#45;&gt;Node6</title>
<g id="a_edge6_Node000006_Node000006"><a xlink:title=" ">
<path fill="none" stroke="#63b8ff" d="M277.31,-211.1C273.59,-220.65 284.98,-229 311.5,-229 328.07,-229 338.74,-225.74 343.5,-220.96"/>
<polygon fill="#63b8ff" stroke="#63b8ff" points="346.94,-221.62 345.69,-211.1 340.11,-220.1 346.94,-221.62"/>
</a>
</g>
</g>
<!-- Node7&#45;&gt;Node4 -->
<g id="edge8_Node000007_Node000004" class="edge">
<title>Node7&#45;&gt;Node4</title>
<g id="a_edge8_Node000007_Node000004"><a xlink:title=" ">
<path fill="none" stroke="#63b8ff" d="M399.04,-118.5C407.6,-118.5 416.23,-118.5 424.62,-118.5"/>
<polygon fill="#63b8ff" stroke="#63b8ff" points="424.74,-122 434.74,-118.5 424.74,-115 424.74,-122"/>
</a>
</g>
</g>
<!-- Node7&#45;&gt;Node7 -->
<g id="edge9_Node000007_Node000007" class="edge">
<title>Node7&#45;&gt;Node7</title>
<g id="a_edge9_Node000007_Node000007"><a xlink:title=" ">
<path fill="none" stroke="#63b8ff" d="M278.8,-133.78C271.54,-142.91 282.44,-151.5 311.5,-151.5 328.76,-151.5 339.61,-148.47 344.06,-144.1"/>
<polygon fill="#63b8ff" stroke="#63b8ff" points="347.56,-143.82 344.2,-133.78 340.56,-143.73 347.56,-143.82"/>
</a>
</g>
</g>
<!-- Node8&#45;&gt;Node4 -->
<g id="edge11_Node000008_Node000004" class="edge">
<title>Node8&#45;&gt;Node4</title>
<g id="a_edge11_Node000008_Node000004"><a xlink:title=" ">
<path fill="none" stroke="#63b8ff" d="M354.94,-67.64C386.95,-79.06 430.41,-94.57 460.9,-105.44"/>
<polygon fill="#63b8ff" stroke="#63b8ff" points="460.11,-108.88 470.71,-108.94 462.47,-102.29 460.11,-108.88"/>
</a>
</g>
</g>
<!-- Node8&#45;&gt;Node8 -->
<g id="edge12_Node000008_Node000008" class="edge">
<title>Node8&#45;&gt;Node8</title>
<g id="a_edge12_Node000008_Node000008"><a xlink:title=" ">
<path fill="none" stroke="#63b8ff" d="M278.8,-67.78C271.54,-76.91 282.44,-85.5 311.5,-85.5 328.76,-85.5 339.61,-82.47 344.06,-78.1"/>
<polygon fill="#63b8ff" stroke="#63b8ff" points="347.56,-77.82 344.2,-67.78 340.56,-77.73 347.56,-77.82"/>
</a>
</g>
</g>
</g>
</svg>

<g id="navigator" transform="translate(0 0)" fill="#404254">
  <rect fill="#f2f5e9" fill-opacity="0.5" stroke="#606060" stroke-width=".5" x="0" y="0" width="60" height="60"/>
  <use id="zoomplus" xlink:href="#zoomPlus" x="17" y="9" onmousedown="handleZoom(evt,'in')"/>
  <use id="zoomminus" xlink:href="#zoomMin" x="42" y="9" onmousedown="handleZoom(evt,'out')"/>
  <use id="reset" xlink:href="#resetDef" x="30" y="36" onmousedown="handleReset()"/>
   <use id="arrowup" xlink:href="#arrowUp" x="0" y="0" onmousedown="handlePan(0,-1)"/>
  <use id="arrowright" xlink:href="#arrowRight" x="0" y="0" onmousedown="handlePan(1,0)"/>
  <use id="arrowdown" xlink:href="#arrowDown" x="0" y="0" onmousedown="handlePan(0,1)"/>
  <use id="arrowleft" xlink:href="#arrowLeft" x="0" y="0" onmousedown="handlePan(-1,0)"/>
</g>
<svg viewBox="0 0 15 15" width="100%" height="30px" preserveAspectRatio="xMaxYMin meet">
 <g id="arrow_out" transform="scale(0.3 0.3)">
  <a xlink:href="namespacelamina_1_1anonymous__namespace_02integration_8cpp_03_af90ac3aabce12d3df0ee7519f35e250b_cgraph_org.svg" target="_base">
   <rect id="button" ry="5" rx="5" y="6" x="6" height="38" width="38"
        fill="#f2f5e9" fill-opacity="0.5" stroke="#606060" stroke-width="1.0"/>
   <path id="arrow"
     d="M 11.500037,31.436501 C 11.940474,20.09759 22.043105,11.32322 32.158766,21.979434 L 37.068811,17.246167 C 37.068811,17.246167 37.088388,32 37.088388,32 L 22.160133,31.978069 C 22.160133,31.978069 26.997745,27.140456 26.997745,27.140456 C 18.528582,18.264221 13.291696,25.230495 11.500037,31.436501 z"
     style="fill:#404040;"/>
  </a>
 </g>
</svg>

<style type='text/css'>
<![CDATA[
[data-mouse-over-selected='false'] { opacity: 0.7; }
[data-mouse-over-selected='true']  { opacity: 1.0; }
]]>
</style>
<script type="application/ecmascript"><![CDATA[
document.addEventListener('DOMContentLoaded', (event) => {
  highlightEdges();
  highlightAdjacentNodes();
});
]]></script>
</svg>
