<?xml version="1.0" encoding="UTF-8" standalone="no"?>
<!DOCTYPE svg PUBLIC "-//W3C//DTD SVG 1.1//EN"
 "http://www.w3.org/Graphics/SVG/1.1/DTD/svg11.dtd">
<!-- Generated by graphviz version 2.43.0 (0)
 -->
<!-- Title: lamina::anonymous_namespace{integration::cpp}::make_cos_scaled Pages: 1 -->
<svg width="349pt" height="138pt"
 viewBox="0.00 0.00 349.00 138.00" xmlns="http://www.w3.org/2000/svg" xmlns:xlink="http://www.w3.org/1999/xlink">
<g id="graph0" class="graph" transform="scale(1 1) rotate(0) translate(4 134)">
<title>lamina::anonymous_namespace{integration::cpp}::make_cos_scaled</title>
<!-- Node1 -->
<g id="Node000001" class="node">
<title>Node1</title>
<g id="a_Node000001"><a xlink:title=" ">
<polygon fill="#999999" stroke="#666666" points="175,-85 0,-85 0,-44 175,-44 175,-85"/>
<text text-anchor="start" x="8" y="-73" font-family="Helvetica,sans-Serif" font-size="10.00">lamina::anonymous_namespace</text>
<text text-anchor="start" x="8" y="-62" font-family="Helvetica,sans-Serif" font-size="10.00">{integration::cpp}::make</text>
<text text-anchor="middle" x="87.5" y="-51" font-family="Helvetica,sans-Serif" font-size="10.00">_cos_scaled</text>
</a>
</g>
</g>
<!-- Node1&#45;&gt;Node1 -->
<g id="edge2_Node000001_Node000001" class="edge">
<title>Node1&#45;&gt;Node1</title>
<g id="a_edge2_Node000001_Node000001"><a xlink:title=" ">
<path fill="none" stroke="#63b8ff" d="M52.95,-85.1C49.18,-94.65 60.7,-103 87.5,-103 104.25,-103 115.03,-99.74 119.84,-94.96"/>
<polygon fill="#63b8ff" stroke="#63b8ff" points="123.28,-95.62 122.05,-85.1 116.45,-94.09 123.28,-95.62"/>
</a>
</g>
</g>
<!-- Node2 -->
<g id="Node000002" class="node">
<title>Node2</title>
<g id="a_Node000002"><a xlink:href="../../dc/d25/classSymbolicExpr.html#aab72f8248a52deff206dee781aca74ea" target="_top" xlink:title="创建余弦函数表达式。">
<polygon fill="white" stroke="#666666" points="329,-130 223,-130 223,-111 329,-111 329,-130"/>
<text text-anchor="middle" x="276" y="-118" font-family="Helvetica,sans-Serif" font-size="10.00">SymbolicExpr::cos</text>
</a>
</g>
</g>
<!-- Node1&#45;&gt;Node2 -->
<g id="edge1_Node000001_Node000002" class="edge">
<title>Node1&#45;&gt;Node2</title>
<g id="a_edge1_Node000001_Node000002"><a xlink:title=" ">
<path fill="none" stroke="#63b8ff" d="M153.57,-85.04C172.09,-90.79 192.32,-96.98 211,-102.5 217.25,-104.35 223.85,-106.25 230.35,-108.11"/>
<polygon fill="#63b8ff" stroke="#63b8ff" points="229.83,-111.6 240.41,-110.95 231.74,-104.86 229.83,-111.6"/>
</a>
</g>
</g>
<!-- Node3 -->
<g id="Node000003" class="node">
<title>Node3</title>
<g id="a_Node000003"><a xlink:href="../../dc/d25/classSymbolicExpr.html#ad03189fc8a4db7762f7c1ca890674bbc" target="_top" xlink:title="创建乘法表达式。">
<polygon fill="white" stroke="#666666" points="341,-93 211,-93 211,-74 341,-74 341,-93"/>
<text text-anchor="middle" x="276" y="-81" font-family="Helvetica,sans-Serif" font-size="10.00">SymbolicExpr::multiply</text>
</a>
</g>
</g>
<!-- Node1&#45;&gt;Node3 -->
<g id="edge3_Node000001_Node000003" class="edge">
<title>Node1&#45;&gt;Node3</title>
<g id="a_edge3_Node000001_Node000003"><a xlink:title=" ">
<path fill="none" stroke="#63b8ff" d="M175.2,-73.33C183.72,-74.2 192.31,-75.08 200.69,-75.93"/>
<polygon fill="#63b8ff" stroke="#63b8ff" points="200.49,-79.43 210.79,-76.96 201.2,-72.46 200.49,-79.43"/>
</a>
</g>
</g>
<!-- Node4 -->
<g id="Node000004" class="node">
<title>Node4</title>
<g id="a_Node000004"><a xlink:href="../../dc/d25/classSymbolicExpr.html#adeb760bb6f4f28879108394537eca293" target="_top" xlink:title="创建整数数值表达式。">
<polygon fill="white" stroke="#666666" points="339.5,-56 212.5,-56 212.5,-37 339.5,-37 339.5,-56"/>
<text text-anchor="middle" x="276" y="-44" font-family="Helvetica,sans-Serif" font-size="10.00">SymbolicExpr::number</text>
</a>
</g>
</g>
<!-- Node1&#45;&gt;Node4 -->
<g id="edge4_Node000001_Node000004" class="edge">
<title>Node1&#45;&gt;Node4</title>
<g id="a_edge4_Node000001_Node000004"><a xlink:title=" ">
<path fill="none" stroke="#63b8ff" d="M175.2,-56.13C184.32,-55.25 193.53,-54.36 202.47,-53.5"/>
<polygon fill="#63b8ff" stroke="#63b8ff" points="202.81,-56.98 212.43,-52.54 202.14,-50.02 202.81,-56.98"/>
</a>
</g>
</g>
<!-- Node5 -->
<g id="Node000005" class="node">
<title>Node5</title>
<g id="a_Node000005"><a xlink:href="../../dc/d25/classSymbolicExpr.html#a1718e8c497b928507b31acb089cc64ff" target="_top" xlink:title="创建变量表达式。">
<polygon fill="white" stroke="#666666" points="340.5,-19 211.5,-19 211.5,0 340.5,0 340.5,-19"/>
<text text-anchor="middle" x="276" y="-7" font-family="Helvetica,sans-Serif" font-size="10.00">SymbolicExpr::variable</text>
</a>
</g>
</g>
<!-- Node1&#45;&gt;Node5 -->
<g id="edge5_Node000001_Node000005" class="edge">
<title>Node1&#45;&gt;Node5</title>
<g id="a_edge5_Node000001_Node000005"><a xlink:title=" ">
<path fill="none" stroke="#63b8ff" d="M158.21,-43.94C183.33,-36.53 210.89,-28.41 232.93,-21.91"/>
<polygon fill="#63b8ff" stroke="#63b8ff" points="234.04,-25.23 242.64,-19.04 232.06,-18.52 234.04,-25.23"/>
</a>
</g>
</g>
</g>
</svg>
