<?xml version="1.0" encoding="UTF-8" standalone="no"?>
<!DOCTYPE svg PUBLIC "-//W3C//DTD SVG 1.1//EN"
 "http://www.w3.org/Graphics/SVG/1.1/DTD/svg11.dtd">
<!-- Generated by graphviz version 2.43.0 (0)
 -->
<!-- Title: lmmp_mul_toom62_ Pages: 1 -->
<svg width="584pt" height="772pt"
 viewBox="0.00 0.00 584.00 772.23" xmlns="http://www.w3.org/2000/svg" xmlns:xlink="http://www.w3.org/1999/xlink">
<g id="graph0" class="graph" transform="scale(1 1) rotate(0) translate(4 768.23)">
<title>lmmp_mul_toom62_</title>
<!-- Node1 -->
<g id="Node000001" class="node">
<title>Node1</title>
<g id="a_Node000001"><a xlink:title=" ">
<polygon fill="#999999" stroke="#666666" points="117,-510 0,-510 0,-491 117,-491 117,-510"/>
<text text-anchor="middle" x="58.5" y="-498" font-family="Helvetica,sans-Serif" font-size="10.00">lmmp_mul_toom62_</text>
</a>
</g>
</g>
<!-- Node2 -->
<g id="Node000002" class="node">
<title>Node2</title>
<g id="a_Node000002"><a xlink:href="../../d6/d39/lmmpn_8h.html#a1eb04fffd70d523647b7b4ed64a438c5" target="_top" xlink:title="大数加法静态内联函数 [dst,na]=[numa,na]+[numb,nb]">
<polygon fill="white" stroke="#666666" points="423.5,-719 349.5,-719 349.5,-700 423.5,-700 423.5,-719"/>
<text text-anchor="middle" x="386.5" y="-707" font-family="Helvetica,sans-Serif" font-size="10.00">lmmp_add_</text>
</a>
</g>
</g>
<!-- Node1&#45;&gt;Node2 -->
<g id="edge1_Node000001_Node000002" class="edge">
<title>Node1&#45;&gt;Node2</title>
<g id="a_edge1_Node000001_Node000002"><a xlink:title=" ">
<path fill="none" stroke="#63b8ff" d="M60.9,-510.14C66.12,-542.24 87.65,-646.03 153,-690.5 208.29,-728.12 288.98,-725.12 339.31,-718.24"/>
<polygon fill="#63b8ff" stroke="#63b8ff" points="339.87,-721.69 349.26,-716.78 338.85,-714.77 339.87,-721.69"/>
</a>
</g>
</g>
<!-- Node3 -->
<g id="Node000003" class="node">
<title>Node3</title>
<g id="a_Node000003"><a xlink:href="../../da/dc7/add__n_8c.html#afa05758121cca6aa6b21256d5a959871" target="_top" xlink:title="无进位的n位加法 [dst,n] = [numa,n] + [numb,n]">
<polygon fill="white" stroke="#666666" points="573.5,-700 488.5,-700 488.5,-681 573.5,-681 573.5,-700"/>
<text text-anchor="middle" x="531" y="-688" font-family="Helvetica,sans-Serif" font-size="10.00">lmmp_add_n_</text>
</a>
</g>
</g>
<!-- Node1&#45;&gt;Node3 -->
<g id="edge3_Node000001_Node000003" class="edge">
<title>Node1&#45;&gt;Node3</title>
<g id="a_edge3_Node000001_Node000003"><a xlink:title=" ">
<path fill="none" stroke="#63b8ff" d="M60.19,-510.13C63.27,-545.36 79.13,-667.86 153,-719.5 261.24,-795.16 321.17,-757.54 450,-728.5 470,-723.99 490.87,-713.87 506.27,-705.21"/>
<polygon fill="#63b8ff" stroke="#63b8ff" points="508.22,-708.12 515.1,-700.07 504.7,-702.07 508.22,-708.12"/>
</a>
</g>
</g>
<!-- Node4 -->
<g id="Node000004" class="node">
<title>Node4</title>
<g id="a_Node000004"><a xlink:href="../../d5/db9/add__n__sub__n_8c.html#accedf10c55a5675d82795f37a9fdf356" target="_top" xlink:title="同时执行n位加法和减法 ([dsta,n],[dstb,n]) = ([numa,n]+[numb,n],[numa,n]&#45;[numb,n])">
<polygon fill="white" stroke="#666666" points="446,-643 327,-643 327,-624 446,-624 446,-643"/>
<text text-anchor="middle" x="386.5" y="-631" font-family="Helvetica,sans-Serif" font-size="10.00">lmmp_add_n_sub_n_</text>
</a>
</g>
</g>
<!-- Node1&#45;&gt;Node4 -->
<g id="edge4_Node000001_Node000004" class="edge">
<title>Node1&#45;&gt;Node4</title>
<g id="a_edge4_Node000001_Node000004"><a xlink:title=" ">
<path fill="none" stroke="#63b8ff" d="M65.04,-510.13C77.63,-531.02 110.61,-580.4 153,-602.5 203.56,-628.87 268.38,-635.67 316.73,-636.41"/>
<polygon fill="#63b8ff" stroke="#63b8ff" points="316.76,-639.91 326.78,-636.48 316.81,-632.91 316.76,-639.91"/>
</a>
</g>
</g>
<!-- Node7 -->
<g id="Node000007" class="node">
<title>Node7</title>
<g id="a_Node000007"><a xlink:href="../../d6/d39/lmmpn_8h.html#ac665827dbfcf2cb4f0c7de1734d4f0d2" target="_top" xlink:title="大数乘以单limb并累加操作 [numa,n] += [numb,n] * b">
<polygon fill="white" stroke="#666666" points="438.5,-495 334.5,-495 334.5,-476 438.5,-476 438.5,-495"/>
<text text-anchor="middle" x="386.5" y="-483" font-family="Helvetica,sans-Serif" font-size="10.00">lmmp_addmul_1_</text>
</a>
</g>
</g>
<!-- Node1&#45;&gt;Node7 -->
<g id="edge7_Node000001_Node000007" class="edge">
<title>Node1&#45;&gt;Node7</title>
<g id="a_edge7_Node000001_Node000007"><a xlink:title=" ">
<path fill="none" stroke="#63b8ff" d="M117.03,-497.85C175.26,-495.17 264.97,-491.05 324.43,-488.31"/>
<polygon fill="#63b8ff" stroke="#63b8ff" points="324.61,-491.81 334.44,-487.85 324.29,-484.81 324.61,-491.81"/>
</a>
</g>
</g>
<!-- Node8 -->
<g id="Node000008" class="node">
<title>Node8</title>
<g id="a_Node000008"><a xlink:href="../../d1/d49/shl_8c.html#a95add671de39d53ba0f2431f74c7a12a" target="_top" xlink:title="加法结合左移1位操作 [dst,n] = [numa,n] + ([numb,n] &lt;&lt; 1)">
<polygon fill="white" stroke="#666666" points="272.5,-93 167.5,-93 167.5,-74 272.5,-74 272.5,-93"/>
<text text-anchor="middle" x="220" y="-81" font-family="Helvetica,sans-Serif" font-size="10.00">lmmp_addshl1_n_</text>
</a>
</g>
</g>
<!-- Node1&#45;&gt;Node8 -->
<g id="edge8_Node000001_Node000008" class="edge">
<title>Node1&#45;&gt;Node8</title>
<g id="a_edge8_Node000001_Node000008"><a xlink:title=" ">
<path fill="none" stroke="#63b8ff" d="M60.58,-490.67C66.77,-435.79 99.46,-167.59 153,-107.5 156.46,-103.62 160.6,-100.36 165.1,-97.63"/>
<polygon fill="#63b8ff" stroke="#63b8ff" points="166.8,-100.69 174.1,-93.01 163.6,-94.46 166.8,-100.69"/>
</a>
</g>
</g>
<!-- Node9 -->
<g id="Node000009" class="node">
<title>Node9</title>
<g id="a_Node000009"><a xlink:href="../../d6/d39/lmmpn_8h.html#a27b630fe59d53b8174b5ddb04202e556" target="_top" xlink:title="大数比较函数（内联）">
<polygon fill="white" stroke="#666666" points="425,-606 348,-606 348,-587 425,-587 425,-606"/>
<text text-anchor="middle" x="386.5" y="-594" font-family="Helvetica,sans-Serif" font-size="10.00">lmmp_cmp_</text>
</a>
</g>
</g>
<!-- Node1&#45;&gt;Node9 -->
<g id="edge9_Node000001_Node000009" class="edge">
<title>Node1&#45;&gt;Node9</title>
<g id="a_edge9_Node000001_Node000009"><a xlink:title=" ">
<path fill="none" stroke="#63b8ff" d="M67.59,-510.08C82.5,-526.96 116.15,-561.6 153,-576.5 213.19,-600.83 289.12,-602.54 337.51,-600.41"/>
<polygon fill="#63b8ff" stroke="#63b8ff" points="337.89,-603.9 347.7,-599.89 337.53,-596.91 337.89,-603.9"/>
</a>
</g>
</g>
<!-- Node10 -->
<g id="Node000010" class="node">
<title>Node10</title>
<g id="a_Node000010"><a xlink:href="../../d6/d39/lmmpn_8h.html#a72d4d8c682124218c7a0c7c3e5f818ce" target="_top" xlink:title="不等长大数乘法操作 [dst,na+nb] = [numa,na] * [numb,nb]">
<polygon fill="white" stroke="#666666" points="257,-56 183,-56 183,-37 257,-37 257,-56"/>
<text text-anchor="middle" x="220" y="-44" font-family="Helvetica,sans-Serif" font-size="10.00">lmmp_mul_</text>
</a>
</g>
</g>
<!-- Node1&#45;&gt;Node10 -->
<g id="edge10_Node000001_Node000010" class="edge">
<title>Node1&#45;&gt;Node10</title>
<g id="a_edge10_Node000001_Node000010"><a xlink:title=" ">
<path fill="none" stroke="#63b8ff" d="M60.24,-490.7C64.87,-432.19 91.54,-129.44 153,-64.5 158.45,-58.74 165.55,-54.76 173.07,-52.02"/>
<polygon fill="#63b8ff" stroke="#63b8ff" points="174.12,-55.36 182.72,-49.18 172.14,-48.65 174.12,-55.36"/>
</a>
</g>
</g>
<!-- Node11 -->
<g id="Node000011" class="node">
<title>Node11</title>
<g id="a_Node000011"><a xlink:href="../../d1/d49/shl_8c.html#a6d5aca3454f13e3fcaedba3a15b03823" target="_top" xlink:title="大数左移操作 [dst,na] = [numa,na]&lt;&lt;shl，dst的低shl位填充0">
<polygon fill="white" stroke="#666666" points="421.5,-532 351.5,-532 351.5,-513 421.5,-513 421.5,-532"/>
<text text-anchor="middle" x="386.5" y="-520" font-family="Helvetica,sans-Serif" font-size="10.00">lmmp_shl_</text>
</a>
</g>
</g>
<!-- Node1&#45;&gt;Node11 -->
<g id="edge11_Node000001_Node000011" class="edge">
<title>Node1&#45;&gt;Node11</title>
<g id="a_edge11_Node000001_Node000011"><a xlink:title=" ">
<path fill="none" stroke="#63b8ff" d="M117.03,-504.38C180.87,-508.69 282.54,-515.55 340.72,-519.48"/>
<polygon fill="#63b8ff" stroke="#63b8ff" points="340.85,-522.99 351.06,-520.18 341.32,-516.01 340.85,-522.99"/>
</a>
</g>
</g>
<!-- Node12 -->
<g id="Node000012" class="node">
<title>Node12</title>
<g id="a_Node000012"><a xlink:href="../../d6/d39/lmmpn_8h.html#ab6382940233ad6954ef892141066bc8a" target="_top" xlink:title="大数减法静态内联函数 [dst,na]=[numa,na]&#45;[numb,nb]">
<polygon fill="white" stroke="#666666" points="423,-122 350,-122 350,-103 423,-103 423,-122"/>
<text text-anchor="middle" x="386.5" y="-110" font-family="Helvetica,sans-Serif" font-size="10.00">lmmp_sub_</text>
</a>
</g>
</g>
<!-- Node1&#45;&gt;Node12 -->
<g id="edge12_Node000001_Node000012" class="edge">
<title>Node1&#45;&gt;Node12</title>
<g id="a_edge12_Node000001_Node000012"><a xlink:title=" ">
<path fill="none" stroke="#63b8ff" d="M63.34,-490.86C74.74,-462.77 110.3,-379.06 153,-317.5 216.83,-225.48 228.28,-191.25 323,-131.5 328.29,-128.16 334.2,-125.38 340.21,-123.08"/>
<polygon fill="#63b8ff" stroke="#63b8ff" points="341.36,-126.38 349.68,-119.82 339.09,-119.76 341.36,-126.38"/>
</a>
</g>
</g>
<!-- Node13 -->
<g id="Node000013" class="node">
<title>Node13</title>
<g id="a_Node000013"><a xlink:href="../../d3/d44/sub__n_8c.html#ae0e05032a43c35021a6d6859ed51f467" target="_top" xlink:title="无借位的n位减法 [dst,n] = [numa,n] &#45; [numb,n]">
<polygon fill="white" stroke="#666666" points="573,-122 489,-122 489,-103 573,-103 573,-122"/>
<text text-anchor="middle" x="531" y="-110" font-family="Helvetica,sans-Serif" font-size="10.00">lmmp_sub_n_</text>
</a>
</g>
</g>
<!-- Node1&#45;&gt;Node13 -->
<g id="edge14_Node000001_Node000013" class="edge">
<title>Node1&#45;&gt;Node13</title>
<g id="a_edge14_Node000001_Node000013"><a xlink:title=" ">
<path fill="none" stroke="#63b8ff" d="M59.08,-490.73C57.72,-445.8 58.01,-256.93 153,-154.5 166.62,-139.81 303.26,-97.88 323,-94.5 378.63,-84.97 393.9,-88.27 450,-94.5 461.6,-95.79 473.98,-98.1 485.44,-100.64"/>
<polygon fill="#63b8ff" stroke="#63b8ff" points="484.7,-104.06 495.24,-102.92 486.29,-97.25 484.7,-104.06"/>
</a>
</g>
</g>
<!-- Node14 -->
<g id="Node000014" class="node">
<title>Node14</title>
<g id="a_Node000014"><a xlink:href="../../d1/d0a/mul__toom__eval_8c.html#ad5101b25e1eb55014d6a66e6376eb797" target="_top" xlink:title="通用高阶 Toom 求值：k次多项式在 x = +1 和 x = &#45;1 处求值">
<polygon fill="white" stroke="#666666" points="287,-681 153,-681 153,-662 287,-662 287,-681"/>
<text text-anchor="middle" x="220" y="-669" font-family="Helvetica,sans-Serif" font-size="10.00">lmmp_toom_eval_pm1_</text>
</a>
</g>
</g>
<!-- Node1&#45;&gt;Node14 -->
<g id="edge15_Node000001_Node000014" class="edge">
<title>Node1&#45;&gt;Node14</title>
<g id="a_edge15_Node000001_Node000014"><a xlink:title=" ">
<path fill="none" stroke="#63b8ff" d="M63.1,-510.29C73.18,-536.38 104.18,-608.3 153,-647.5 158.24,-651.71 164.28,-655.21 170.53,-658.13"/>
<polygon fill="#63b8ff" stroke="#63b8ff" points="169.2,-661.37 179.78,-661.98 171.9,-654.9 169.2,-661.37"/>
</a>
</g>
</g>
<!-- Node15 -->
<g id="Node000015" class="node">
<title>Node15</title>
<g id="a_Node000015"><a xlink:href="../../d1/d0a/mul__toom__eval_8c.html#a4ebbdc3171082a4955bb5049a0b4b50a" target="_top" xlink:title="通用高阶 Toom 求值：k次多项式在 x = +2 和 x = &#45;2 处求值">
<polygon fill="white" stroke="#666666" points="287,-567 153,-567 153,-548 287,-548 287,-567"/>
<text text-anchor="middle" x="220" y="-555" font-family="Helvetica,sans-Serif" font-size="10.00">lmmp_toom_eval_pm2_</text>
</a>
</g>
</g>
<!-- Node1&#45;&gt;Node15 -->
<g id="edge20_Node000001_Node000015" class="edge">
<title>Node1&#45;&gt;Node15</title>
<g id="a_edge20_Node000001_Node000015"><a xlink:title=" ">
<path fill="none" stroke="#63b8ff" d="M86.2,-510.04C112.65,-519.49 153.35,-534.04 182.73,-544.54"/>
<polygon fill="#63b8ff" stroke="#63b8ff" points="181.62,-547.86 192.22,-547.93 183.98,-541.27 181.62,-547.86"/>
</a>
</g>
</g>
<!-- Node17 -->
<g id="Node000017" class="node">
<title>Node17</title>
<g id="a_Node000017"><a xlink:href="../../d3/d50/mul__toom__interp7_8c.html#ac98c4398ab96bdf8294b73757bcc8e38" target="_top" xlink:title="Toom插值计算（7点插值）：用于Toom&#45;44、Toom&#45;53、Toom&#45;62 乘法算法">
<polygon fill="white" stroke="#666666" points="280.5,-345 159.5,-345 159.5,-326 280.5,-326 280.5,-345"/>
<text text-anchor="middle" x="220" y="-333" font-family="Helvetica,sans-Serif" font-size="10.00">lmmp_toom_interp7_</text>
</a>
</g>
</g>
<!-- Node1&#45;&gt;Node17 -->
<g id="edge25_Node000001_Node000017" class="edge">
<title>Node1&#45;&gt;Node17</title>
<g id="a_edge25_Node000001_Node000017"><a xlink:title=" ">
<path fill="none" stroke="#63b8ff" d="M69,-490.67C95.32,-463.44 169.45,-386.76 202.61,-352.45"/>
<polygon fill="#63b8ff" stroke="#63b8ff" points="205.32,-354.69 209.75,-345.07 200.28,-349.83 205.32,-354.69"/>
</a>
</g>
</g>
<!-- Node25 -->
<g id="Node000025" class="node">
<title>Node25</title>
<g id="a_Node000025"><a xlink:href="../../d6/d39/lmmpn_8h.html#afa8f36d4b874f3c5482caaf4c63ef6d5" target="_top" xlink:title="大数判零函数（内联）">
<polygon fill="white" stroke="#666666" points="264,-19 176,-19 176,0 264,0 264,-19"/>
<text text-anchor="middle" x="220" y="-7" font-family="Helvetica,sans-Serif" font-size="10.00">lmmp_zero_q_</text>
</a>
</g>
</g>
<!-- Node1&#45;&gt;Node25 -->
<g id="edge38_Node000001_Node000025" class="edge">
<title>Node1&#45;&gt;Node25</title>
<g id="a_edge38_Node000001_Node000025"><a xlink:title=" ">
<path fill="none" stroke="#63b8ff" d="M60.07,-490.68C63.8,-429.29 86.82,-98.56 153,-27.5 156.79,-23.43 161.41,-20.24 166.42,-17.75"/>
<polygon fill="#63b8ff" stroke="#63b8ff" points="167.81,-20.97 175.78,-13.99 165.2,-14.48 167.81,-20.97"/>
</a>
</g>
</g>
<!-- Node2&#45;&gt;Node3 -->
<g id="edge2_Node000002_Node000003" class="edge">
<title>Node2&#45;&gt;Node3</title>
<g id="a_edge2_Node000002_Node000003"><a xlink:title=" ">
<path fill="none" stroke="#63b8ff" d="M423.83,-704.66C440.38,-702.45 460.27,-699.8 478.34,-697.39"/>
<polygon fill="#63b8ff" stroke="#63b8ff" points="478.99,-700.83 488.44,-696.04 478.07,-693.89 478.99,-700.83"/>
</a>
</g>
</g>
<!-- Node5 -->
<g id="Node000005" class="node">
<title>Node5</title>
<g id="a_Node000005"><a xlink:href="../../da/dc7/add__n_8c.html#aa06f92c7f9a675b88556524c8e09ecbd" target="_top" xlink:title="带进位的n位加法 [dst,n] = [numa,n] + [numb,n] + c">
<polygon fill="white" stroke="#666666" points="576,-653 486,-653 486,-634 576,-634 576,-653"/>
<text text-anchor="middle" x="531" y="-641" font-family="Helvetica,sans-Serif" font-size="10.00">lmmp_add_nc_</text>
</a>
</g>
</g>
<!-- Node4&#45;&gt;Node5 -->
<g id="edge5_Node000004_Node000005" class="edge">
<title>Node4&#45;&gt;Node5</title>
<g id="a_edge5_Node000004_Node000005"><a xlink:title=" ">
<path fill="none" stroke="#63b8ff" d="M446.28,-637.63C455.97,-638.3 465.97,-639.01 475.54,-639.68"/>
<polygon fill="#63b8ff" stroke="#63b8ff" points="475.5,-643.18 485.72,-640.39 475.99,-636.2 475.5,-643.18"/>
</a>
</g>
</g>
<!-- Node6 -->
<g id="Node000006" class="node">
<title>Node6</title>
<g id="a_Node000006"><a xlink:href="../../d3/d44/sub__n_8c.html#af53a20c46d5cd5ee5f6a599b04aec190" target="_top" xlink:title="带借位的n位减法 [dst,n] = [numa,n] &#45; [numb,n] &#45; c">
<polygon fill="white" stroke="#666666" points="575.5,-616 486.5,-616 486.5,-597 575.5,-597 575.5,-616"/>
<text text-anchor="middle" x="531" y="-604" font-family="Helvetica,sans-Serif" font-size="10.00">lmmp_sub_nc_</text>
</a>
</g>
</g>
<!-- Node4&#45;&gt;Node6 -->
<g id="edge6_Node000004_Node000006" class="edge">
<title>Node4&#45;&gt;Node6</title>
<g id="a_edge6_Node000004_Node000006"><a xlink:title=" ">
<path fill="none" stroke="#63b8ff" d="M437.74,-623.98C450.26,-621.61 463.73,-619.06 476.4,-616.66"/>
<polygon fill="#63b8ff" stroke="#63b8ff" points="477.19,-620.07 486.36,-614.77 475.89,-613.19 477.19,-620.07"/>
</a>
</g>
</g>
<!-- Node12&#45;&gt;Node13 -->
<g id="edge13_Node000012_Node000013" class="edge">
<title>Node12&#45;&gt;Node13</title>
<g id="a_edge13_Node000012_Node000013"><a xlink:title=" ">
<path fill="none" stroke="#63b8ff" d="M423.09,-112.5C439.92,-112.5 460.33,-112.5 478.79,-112.5"/>
<polygon fill="#63b8ff" stroke="#63b8ff" points="478.81,-116 488.81,-112.5 478.81,-109 478.81,-116"/>
</a>
</g>
</g>
<!-- Node14&#45;&gt;Node2 -->
<g id="edge16_Node000014_Node000002" class="edge">
<title>Node14&#45;&gt;Node2</title>
<g id="a_edge16_Node000014_Node000002"><a xlink:title=" ">
<path fill="none" stroke="#63b8ff" d="M262.51,-681.09C285.91,-686.49 315.2,-693.26 339.33,-698.83"/>
<polygon fill="#63b8ff" stroke="#63b8ff" points="338.79,-702.3 349.32,-701.14 340.36,-695.48 338.79,-702.3"/>
</a>
</g>
</g>
<!-- Node14&#45;&gt;Node3 -->
<g id="edge17_Node000014_Node000003" class="edge">
<title>Node14&#45;&gt;Node3</title>
<g id="a_edge17_Node000014_Node000003"><a xlink:title=" ">
<path fill="none" stroke="#63b8ff" d="M287.29,-675.58C344.48,-679.09 425.92,-684.1 478.37,-687.33"/>
<polygon fill="#63b8ff" stroke="#63b8ff" points="478.26,-690.83 488.46,-687.95 478.69,-683.84 478.26,-690.83"/>
</a>
</g>
</g>
<!-- Node14&#45;&gt;Node4 -->
<g id="edge18_Node000014_Node000004" class="edge">
<title>Node14&#45;&gt;Node4</title>
<g id="a_edge18_Node000014_Node000004"><a xlink:title=" ">
<path fill="none" stroke="#63b8ff" d="M262.51,-661.91C284.32,-656.87 311.23,-650.66 334.32,-645.32"/>
<polygon fill="#63b8ff" stroke="#63b8ff" points="335.33,-648.68 344.29,-643.02 333.76,-641.86 335.33,-648.68"/>
</a>
</g>
</g>
<!-- Node14&#45;&gt;Node9 -->
<g id="edge19_Node000014_Node000009" class="edge">
<title>Node14&#45;&gt;Node9</title>
<g id="a_edge19_Node000014_Node000009"><a xlink:title=" ">
<path fill="none" stroke="#63b8ff" d="M236.06,-661.94C255.53,-649.87 290.79,-629.06 323,-615.5 328.36,-613.24 334.07,-611.13 339.79,-609.19"/>
<polygon fill="#63b8ff" stroke="#63b8ff" points="340.91,-612.51 349.35,-606.1 338.76,-605.85 340.91,-612.51"/>
</a>
</g>
</g>
<!-- Node15&#45;&gt;Node4 -->
<g id="edge22_Node000015_Node000004" class="edge">
<title>Node15&#45;&gt;Node4</title>
<g id="a_edge22_Node000015_Node000004"><a xlink:title=" ">
<path fill="none" stroke="#63b8ff" d="M235.31,-567.09C254.55,-579.64 290.15,-601.66 323,-615.5 327.51,-617.4 332.29,-619.17 337.11,-620.81"/>
<polygon fill="#63b8ff" stroke="#63b8ff" points="336.4,-624.26 346.99,-623.96 338.53,-617.59 336.4,-624.26"/>
</a>
</g>
</g>
<!-- Node15&#45;&gt;Node9 -->
<g id="edge23_Node000015_Node000009" class="edge">
<title>Node15&#45;&gt;Node9</title>
<g id="a_edge23_Node000015_Node000009"><a xlink:title=" ">
<path fill="none" stroke="#63b8ff" d="M261.24,-567.04C284.48,-572.55 313.84,-579.51 338.18,-585.28"/>
<polygon fill="#63b8ff" stroke="#63b8ff" points="337.39,-588.69 347.93,-587.59 339.01,-581.88 337.39,-588.69"/>
</a>
</g>
</g>
<!-- Node15&#45;&gt;Node11 -->
<g id="edge24_Node000015_Node000011" class="edge">
<title>Node15&#45;&gt;Node11</title>
<g id="a_edge24_Node000015_Node000011"><a xlink:title=" ">
<path fill="none" stroke="#63b8ff" d="M265.95,-547.94C289.4,-542.95 317.98,-536.87 341.32,-531.9"/>
<polygon fill="#63b8ff" stroke="#63b8ff" points="342.25,-535.28 351.3,-529.78 340.79,-528.43 342.25,-535.28"/>
</a>
</g>
</g>
<!-- Node16 -->
<g id="Node000016" class="node">
<title>Node16</title>
<g id="a_Node000016"><a xlink:href="../../d6/d39/lmmpn_8h.html#a344093e8760ed368490d9a527ea2c6e9" target="_top" xlink:title="大数加单精度数静态内联函数 [dst,na]=[numa,na]+x">
<polygon fill="white" stroke="#666666" points="429,-569 344,-569 344,-550 429,-550 429,-569"/>
<text text-anchor="middle" x="386.5" y="-557" font-family="Helvetica,sans-Serif" font-size="10.00">lmmp_add_1_</text>
</a>
</g>
</g>
<!-- Node15&#45;&gt;Node16 -->
<g id="edge21_Node000015_Node000016" class="edge">
<title>Node15&#45;&gt;Node16</title>
<g id="a_edge21_Node000015_Node000016"><a xlink:title=" ">
<path fill="none" stroke="#63b8ff" d="M287.43,-558.31C302.79,-558.49 318.91,-558.69 333.54,-558.87"/>
<polygon fill="#63b8ff" stroke="#63b8ff" points="333.86,-562.37 343.9,-558.99 333.95,-555.37 333.86,-562.37"/>
</a>
</g>
</g>
<!-- Node17&#45;&gt;Node3 -->
<g id="edge26_Node000017_Node000003" class="edge">
<title>Node17&#45;&gt;Node3</title>
<g id="a_edge26_Node000017_Node000003"><a xlink:title=" ">
<path fill="none" stroke="#63b8ff" d="M280.63,-342.98C340.74,-351.8 427.73,-368.51 450,-393.5 530.25,-483.55 421.06,-560.85 486,-662.5 489.11,-667.36 493.4,-671.54 498.08,-675.07"/>
<polygon fill="#63b8ff" stroke="#63b8ff" points="496.5,-678.22 506.79,-680.74 500.32,-672.35 496.5,-678.22"/>
</a>
</g>
</g>
<!-- Node17&#45;&gt;Node7 -->
<g id="edge27_Node000017_Node000007" class="edge">
<title>Node17&#45;&gt;Node7</title>
<g id="a_edge27_Node000017_Node000007"><a xlink:title=" ">
<path fill="none" stroke="#63b8ff" d="M225.68,-345.16C238.02,-369.56 273.89,-434.14 323,-467.5 325.29,-469.05 327.71,-470.47 330.21,-471.77"/>
<polygon fill="#63b8ff" stroke="#63b8ff" points="329.03,-475.08 339.59,-475.96 331.89,-468.69 329.03,-475.08"/>
</a>
</g>
</g>
<!-- Node17&#45;&gt;Node11 -->
<g id="edge31_Node000017_Node000011" class="edge">
<title>Node17&#45;&gt;Node11</title>
<g id="a_edge31_Node000017_Node000011"><a xlink:title=" ">
<path fill="none" stroke="#63b8ff" d="M224.03,-345.25C233.53,-374.22 265.61,-460.5 323,-504.5 328.48,-508.7 334.91,-511.92 341.52,-514.39"/>
<polygon fill="#63b8ff" stroke="#63b8ff" points="340.65,-517.79 351.24,-517.5 342.78,-511.12 340.65,-517.79"/>
</a>
</g>
</g>
<!-- Node17&#45;&gt;Node12 -->
<g id="edge35_Node000017_Node000012" class="edge">
<title>Node17&#45;&gt;Node12</title>
<g id="a_edge35_Node000017_Node000012"><a xlink:title=" ">
<path fill="none" stroke="#63b8ff" d="M233.13,-325.94C248.02,-313.56 272.99,-290.58 287,-265.5 317.06,-211.66 280.11,-175.81 323,-131.5 327.77,-126.57 333.77,-122.91 340.16,-120.2"/>
<polygon fill="#63b8ff" stroke="#63b8ff" points="341.42,-123.46 349.7,-116.85 339.1,-116.86 341.42,-123.46"/>
</a>
</g>
</g>
<!-- Node17&#45;&gt;Node13 -->
<g id="edge36_Node000017_Node000013" class="edge">
<title>Node17&#45;&gt;Node13</title>
<g id="a_edge36_Node000017_Node000013"><a xlink:title=" ">
<path fill="none" stroke="#63b8ff" d="M268.14,-345.04C318.3,-352.38 397.52,-355.57 450,-316.5 510.38,-271.55 525.21,-174.22 528.84,-132.33"/>
<polygon fill="#63b8ff" stroke="#63b8ff" points="532.33,-132.52 529.58,-122.29 525.35,-132.01 532.33,-132.52"/>
</a>
</g>
</g>
<!-- Node18 -->
<g id="Node000018" class="node">
<title>Node18</title>
<g id="a_Node000018"><a xlink:href="../../d8/d18/divexact_8h.html#a1a80f4549ea3c65f78c59c78487bee8b" target="_top" xlink:title="精确除以15（[dst,na] = [numa,na] / 15）">
<polygon fill="white" stroke="#666666" points="450,-307 323,-307 323,-288 450,-288 450,-307"/>
<text text-anchor="middle" x="386.5" y="-295" font-family="Helvetica,sans-Serif" font-size="10.00">lmmp_divexact_by15_</text>
</a>
</g>
</g>
<!-- Node17&#45;&gt;Node18 -->
<g id="edge28_Node000017_Node000018" class="edge">
<title>Node17&#45;&gt;Node18</title>
<g id="a_edge28_Node000017_Node000018"><a xlink:title=" ">
<path fill="none" stroke="#63b8ff" d="M262.51,-325.91C284.32,-320.87 311.23,-314.66 334.32,-309.32"/>
<polygon fill="#63b8ff" stroke="#63b8ff" points="335.33,-312.68 344.29,-307.02 333.76,-305.86 335.33,-312.68"/>
</a>
</g>
</g>
<!-- Node19 -->
<g id="Node000019" class="node">
<title>Node19</title>
<g id="a_Node000019"><a xlink:href="../../d8/d18/divexact_8h.html#a6d9813900f18ed81dc52345e094b1d49" target="_top" xlink:title="精确除以3（[dst,na] = [numa,na] / 3）">
<polygon fill="white" stroke="#666666" points="447,-270 326,-270 326,-251 447,-251 447,-270"/>
<text text-anchor="middle" x="386.5" y="-258" font-family="Helvetica,sans-Serif" font-size="10.00">lmmp_divexact_by3_</text>
</a>
</g>
</g>
<!-- Node17&#45;&gt;Node19 -->
<g id="edge29_Node000017_Node000019" class="edge">
<title>Node17&#45;&gt;Node19</title>
<g id="a_edge29_Node000017_Node000019"><a xlink:title=" ">
<path fill="none" stroke="#63b8ff" d="M236.06,-325.94C255.53,-313.87 290.79,-293.06 323,-279.5 328.36,-277.24 334.07,-275.13 339.79,-273.19"/>
<polygon fill="#63b8ff" stroke="#63b8ff" points="340.91,-276.51 349.35,-270.1 338.76,-269.85 340.91,-276.51"/>
</a>
</g>
</g>
<!-- Node20 -->
<g id="Node000020" class="node">
<title>Node20</title>
<g id="a_Node000020"><a xlink:href="../../d8/d18/divexact_8h.html#a505f89ad6b53d699bf6e7ba9d78cb350" target="_top" xlink:title="精确除以9（[dst,na] = [numa,na] / 9）">
<polygon fill="white" stroke="#666666" points="447,-233 326,-233 326,-214 447,-214 447,-233"/>
<text text-anchor="middle" x="386.5" y="-221" font-family="Helvetica,sans-Serif" font-size="10.00">lmmp_divexact_by9_</text>
</a>
</g>
</g>
<!-- Node17&#45;&gt;Node20 -->
<g id="edge30_Node000017_Node000020" class="edge">
<title>Node17&#45;&gt;Node20</title>
<g id="a_edge30_Node000017_Node000020"><a xlink:title=" ">
<path fill="none" stroke="#63b8ff" d="M228.94,-325.82C244.85,-307.04 282.59,-265.49 323,-242.5 326.88,-240.3 331.03,-238.32 335.3,-236.56"/>
<polygon fill="#63b8ff" stroke="#63b8ff" points="336.6,-239.81 344.73,-233.02 334.14,-233.25 336.6,-239.81"/>
</a>
</g>
</g>
<!-- Node21 -->
<g id="Node000021" class="node">
<title>Node21</title>
<g id="a_Node000021"><a xlink:href="../../de/d50/shr_8c.html#a279d8acece60ee1176a17c9e829710f7" target="_top" xlink:title="加法后右移1位 [dst,n] = ([numa,n] + [numb,n]) &gt;&gt; 1">
<polygon fill="white" stroke="#666666" points="439.5,-196 333.5,-196 333.5,-177 439.5,-177 439.5,-196"/>
<text text-anchor="middle" x="386.5" y="-184" font-family="Helvetica,sans-Serif" font-size="10.00">lmmp_shr1add_n_</text>
</a>
</g>
</g>
<!-- Node17&#45;&gt;Node21 -->
<g id="edge32_Node000017_Node000021" class="edge">
<title>Node17&#45;&gt;Node21</title>
<g id="a_edge32_Node000017_Node000021"><a xlink:title=" ">
<path fill="none" stroke="#63b8ff" d="M231.58,-325.69C245.27,-312.68 269.45,-288.67 287,-265.5 305.78,-240.71 298.49,-224.63 323,-205.5 325.43,-203.61 328.04,-201.9 330.77,-200.37"/>
<polygon fill="#63b8ff" stroke="#63b8ff" points="332.33,-203.5 339.83,-196.02 329.3,-197.19 332.33,-203.5"/>
</a>
</g>
</g>
<!-- Node22 -->
<g id="Node000022" class="node">
<title>Node22</title>
<g id="a_Node000022"><a xlink:href="../../de/d50/shr_8c.html#ae14dbc62d030ce3e6de8fa8590195f07" target="_top" xlink:title="减法后右移1位 [dst,n] = ([numa,n] &#45; [numb,n]) &gt;&gt; 1">
<polygon fill="white" stroke="#666666" points="439,-159 334,-159 334,-140 439,-140 439,-159"/>
<text text-anchor="middle" x="386.5" y="-147" font-family="Helvetica,sans-Serif" font-size="10.00">lmmp_shr1sub_n_</text>
</a>
</g>
</g>
<!-- Node17&#45;&gt;Node22 -->
<g id="edge33_Node000017_Node000022" class="edge">
<title>Node17&#45;&gt;Node22</title>
<g id="a_edge33_Node000017_Node000022"><a xlink:title=" ">
<path fill="none" stroke="#63b8ff" d="M232.51,-325.94C246.97,-313.39 271.76,-290.05 287,-265.5 311.26,-226.43 289.52,-200.02 323,-168.5 324.68,-166.92 326.48,-165.47 328.38,-164.14"/>
<polygon fill="#63b8ff" stroke="#63b8ff" points="330.31,-167.07 337.24,-159.06 326.83,-161 330.31,-167.07"/>
</a>
</g>
</g>
<!-- Node23 -->
<g id="Node000023" class="node">
<title>Node23</title>
<g id="a_Node000023"><a xlink:href="../../de/d50/shr_8c.html#a5a6e9b6e715cedac419406deab5b44bb" target="_top" xlink:title="大数右移操作 [dst,na] = [numa,na]&gt;&gt;shr，dst的高shr位填充0">
<polygon fill="white" stroke="#666666" points="422,-458 351,-458 351,-439 422,-439 422,-458"/>
<text text-anchor="middle" x="386.5" y="-446" font-family="Helvetica,sans-Serif" font-size="10.00">lmmp_shr_</text>
</a>
</g>
</g>
<!-- Node17&#45;&gt;Node23 -->
<g id="edge34_Node000017_Node000023" class="edge">
<title>Node17&#45;&gt;Node23</title>
<g id="a_edge34_Node000017_Node000023"><a xlink:title=" ">
<path fill="none" stroke="#63b8ff" d="M228.62,-345.15C244.25,-364.3 281.94,-407.25 323,-430.5 328.61,-433.68 334.83,-436.33 341.1,-438.54"/>
<polygon fill="#63b8ff" stroke="#63b8ff" points="340.34,-441.97 350.93,-441.65 342.45,-435.29 340.34,-441.97"/>
</a>
</g>
</g>
<!-- Node24 -->
<g id="Node000024" class="node">
<title>Node24</title>
<g id="a_Node000024"><a xlink:href="../../d6/d39/lmmpn_8h.html#ae06f06d2ffac6a09cec86306781607ce" target="_top" xlink:title="大数乘以单limb并累减操作 [numa,n] &#45;= [numb,n] * b">
<polygon fill="white" stroke="#666666" points="438,-421 335,-421 335,-402 438,-402 438,-421"/>
<text text-anchor="middle" x="386.5" y="-409" font-family="Helvetica,sans-Serif" font-size="10.00">lmmp_submul_1_</text>
</a>
</g>
</g>
<!-- Node17&#45;&gt;Node24 -->
<g id="edge37_Node000017_Node000024" class="edge">
<title>Node17&#45;&gt;Node24</title>
<g id="a_edge37_Node000017_Node000024"><a xlink:title=" ">
<path fill="none" stroke="#63b8ff" d="M238.42,-345.09C258.51,-355.98 292.68,-373.99 323,-387.5 331.41,-391.25 340.6,-394.97 349.28,-398.33"/>
<polygon fill="#63b8ff" stroke="#63b8ff" points="348.2,-401.66 358.79,-401.95 350.69,-395.12 348.2,-401.66"/>
</a>
</g>
</g>
</g>
</svg>
