<?xml version="1.0" encoding="UTF-8" standalone="no"?>
<!DOCTYPE svg PUBLIC "-//W3C//DTD SVG 1.1//EN"
 "http://www.w3.org/Graphics/SVG/1.1/DTD/svg11.dtd">
<!-- Generated by graphviz version 2.43.0 (0)
 -->
<!-- Title: lamina::anonymous_namespace{interval::cpp}::parse_quadratic_surd Pages: 1 -->
<!--zoomable 151 -->

<svg id="main" version="1.1" xmlns="http://www.w3.org/2000/svg" xmlns:xlink="http://www.w3.org/1999/xlink" xml:space="preserve">

<style type="text/css"><![CDATA[
.node, .edge {opacity: 0.7;}
.node.selected, .edge.selected {opacity: 1;}
.edge:hover path { stroke: red; }
.edge:hover polygon { stroke: red; fill: red; }
]]></style>

<defs>
  <circle id="rim" cx="0" cy="0" r="7"/>
  <circle id="rim2" cx="0" cy="0" r="3.5"/>
  <g id="zoomPlus">
    <use xlink:href="#rim" fill="#404040"><set attributeName="fill" to="#808080" begin="zoomplus.mouseover" end="zoomplus.mouseout"/></use>
    <path d="M-4,0h8M0,-4v8" fill="none" stroke="white" stroke-width="1.5" pointer-events="none"/>
  </g>
  <g id="zoomMin">
    <use xlink:href="#rim" fill="#404040"><set attributeName="fill" to="#808080" begin="zoomminus.mouseover" end="zoomminus.mouseout"/></use>
    <path d="M-4,0h8" fill="none" stroke="white" stroke-width="1.5" pointer-events="none"/>
  </g>
  <g id="arrowUp" transform="translate(30 24)">
    <use xlink:href="#rim"/>
    <path pointer-events="none" fill="none" stroke="white" stroke-width="1.5" d="M0,-3.0v7 M-2.5,-0.5L0,-3.0L2.5,-0.5"/>
  </g>
  <g id="arrowRight" transform="rotate(90) translate(36 -43)">
    <use xlink:href="#rim"/>
    <path pointer-events="none" fill="none" stroke="white" stroke-width="1.5" d="M0,-3.0v7 M-2.5,-0.5L0,-3.0L2.5,-0.5"/>
  </g>
  <g id="arrowDown" transform="rotate(180) translate(-30 -48)">
    <use xlink:href="#rim"/>
    <path pointer-events="none" fill="none" stroke="white" stroke-width="1.5" d="M0,-3.0v7 M-2.5,-0.5L0,-3.0L2.5,-0.5"/>
  </g>
  <g id="arrowLeft" transform="rotate(270) translate(-36 17)">
    <use xlink:href="#rim"/>
    <path pointer-events="none" fill="none" stroke="white" stroke-width="1.5" d="M0,-3.0v7 M-2.5,-0.5L0,-3.0L2.5,-0.5"/>
  </g>
  <g id="resetDef">
    <use xlink:href="#rim2" fill="#404040"><set attributeName="fill" to="#808080" begin="reset.mouseover" end="reset.mouseout"/></use>
  </g>
</defs>
<script type="application/ecmascript" xlink:href="../../svg.min.js"/>
<svg id="graph" class="graph" data-view-width="933" data-view-height="151" data-section-id="dynsection-15">
<g id="viewport">
<title>lamina::anonymous_namespace{interval::cpp}::parse_quadratic_surd</title>
<!-- Node1 -->
<g id="Node000001" class="node">
<title>Node1</title>
<g id="a_Node000001"><a xlink:title=" ">
<polygon fill="#999999" stroke="#666666" points="200,-104.5 0,-104.5 0,-74.5 200,-74.5 200,-104.5"/>
<text text-anchor="start" x="8" y="-92.5" font-family="Helvetica,sans-Serif" font-size="10.00">lamina::anonymous_namespace</text>
<text text-anchor="middle" x="100" y="-81.5" font-family="Helvetica,sans-Serif" font-size="10.00">{interval::cpp}::parse_quadratic_surd</text>
</a>
</g>
</g>
<!-- Node1&#45;&gt;Node1 -->
<g id="edge5_Node000001_Node000001" class="edge">
<title>Node1&#45;&gt;Node1</title>
<g id="a_edge5_Node000001_Node000001"><a xlink:title=" ">
<path fill="none" stroke="#63b8ff" d="M58.87,-104.78C49.73,-113.91 63.44,-122.5 100,-122.5 121.71,-122.5 135.36,-119.47 140.96,-115.1"/>
<polygon fill="#63b8ff" stroke="#63b8ff" points="144.46,-114.83 141.13,-104.78 137.46,-114.71 144.46,-114.83"/>
</a>
</g>
</g>
<!-- Node2 -->
<g id="Node000002" class="node">
<title>Node2</title>
<g id="a_Node000002"><a xlink:href="../../d8/da7/classRational.html#a3bbd6ff67c590da76ddfcbd48cd3de0a" target="_top" xlink:title="默认构造，值为 0">
<polygon fill="white" stroke="#666666" points="585,-99 481,-99 481,-80 585,-80 585,-99"/>
<text text-anchor="middle" x="533" y="-87" font-family="Helvetica,sans-Serif" font-size="10.00">Rational::Rational</text>
</a>
</g>
</g>
<!-- Node1&#45;&gt;Node2 -->
<g id="edge1_Node000001_Node000002" class="edge">
<title>Node1&#45;&gt;Node2</title>
<g id="a_edge1_Node000001_Node000002"><a xlink:title=" ">
<path fill="none" stroke="#63b8ff" d="M138.68,-104.59C165.37,-114.43 202.27,-126.37 236,-131.5 322.56,-144.65 347.2,-148.95 433,-131.5 458.98,-126.22 486.6,-113.87 506.05,-103.92"/>
<polygon fill="#63b8ff" stroke="#63b8ff" points="507.94,-106.89 515.16,-99.13 504.68,-100.69 507.94,-106.89"/>
</a>
</g>
</g>
<!-- Node3 -->
<g id="Node000003" class="node">
<title>Node3</title>
<g id="a_Node000003"><a xlink:href="../../dc/d09/namespacelamina_1_1anonymous__namespace_02interval_8cpp_03.html#a28d44df3e89dbcadfc2e33f5c9e05041" target="_top" xlink:title=" ">
<polygon fill="white" stroke="#666666" points="433,-104.5 236,-104.5 236,-74.5 433,-74.5 433,-104.5"/>
<text text-anchor="start" x="244" y="-92.5" font-family="Helvetica,sans-Serif" font-size="10.00">lamina::anonymous_namespace</text>
<text text-anchor="middle" x="334.5" y="-81.5" font-family="Helvetica,sans-Serif" font-size="10.00">{interval::cpp}::exact_number_value</text>
</a>
</g>
</g>
<!-- Node1&#45;&gt;Node3 -->
<g id="edge2_Node000001_Node000003" class="edge">
<title>Node1&#45;&gt;Node3</title>
<g id="a_edge2_Node000001_Node000003"><a xlink:title=" ">
<path fill="none" stroke="#63b8ff" d="M200.28,-89.5C208.61,-89.5 217.07,-89.5 225.46,-89.5"/>
<polygon fill="#63b8ff" stroke="#63b8ff" points="225.67,-93 235.67,-89.5 225.67,-86 225.67,-93"/>
</a>
</g>
</g>
<!-- Node4 -->
<g id="Node000004" class="node">
<title>Node4</title>
<g id="a_Node000004"><a xlink:href="../../d8/da7/classRational.html#a5a1002c57217ddf7468ad67f626ccf78" target="_top" xlink:title="计算 n 次方根（返回新值）">
<polygon fill="white" stroke="#666666" points="387,-56 282,-56 282,-37 387,-37 387,-56"/>
<text text-anchor="middle" x="334.5" y="-44" font-family="Helvetica,sans-Serif" font-size="10.00">Rational::radicand</text>
</a>
</g>
</g>
<!-- Node1&#45;&gt;Node4 -->
<g id="edge6_Node000001_Node000004" class="edge">
<title>Node1&#45;&gt;Node4</title>
<g id="a_edge6_Node000001_Node000004"><a xlink:title=" ">
<path fill="none" stroke="#63b8ff" d="M182.32,-74.46C211.82,-69 244.64,-62.93 272.14,-57.85"/>
<polygon fill="#63b8ff" stroke="#63b8ff" points="272.82,-61.28 282.01,-56.02 271.54,-54.4 272.82,-61.28"/>
</a>
</g>
</g>
<!-- Node3&#45;&gt;Node2 -->
<g id="edge3_Node000003_Node000002" class="edge">
<title>Node3&#45;&gt;Node2</title>
<g id="a_edge3_Node000003_Node000002"><a xlink:title=" ">
<path fill="none" stroke="#63b8ff" d="M433.17,-89.5C445.91,-89.5 458.67,-89.5 470.57,-89.5"/>
<polygon fill="#63b8ff" stroke="#63b8ff" points="470.8,-93 480.8,-89.5 470.8,-86 470.8,-93"/>
</a>
</g>
</g>
<!-- Node3&#45;&gt;Node3 -->
<g id="edge4_Node000003_Node000003" class="edge">
<title>Node3&#45;&gt;Node3</title>
<g id="a_edge4_Node000003_Node000003"><a xlink:title=" ">
<path fill="none" stroke="#63b8ff" d="M299.7,-104.78C291.96,-113.91 303.56,-122.5 334.5,-122.5 352.87,-122.5 364.42,-119.47 369.16,-115.1"/>
<polygon fill="#63b8ff" stroke="#63b8ff" points="372.66,-114.82 369.3,-104.78 365.66,-114.72 372.66,-114.82"/>
</a>
</g>
</g>
<!-- Node4&#45;&gt;Node2 -->
<g id="edge7_Node000004_Node000002" class="edge">
<title>Node4&#45;&gt;Node2</title>
<g id="a_edge7_Node000004_Node000002"><a xlink:title=" ">
<path fill="none" stroke="#63b8ff" d="M386.7,-56.02C401.65,-58.93 418.01,-62.22 433,-65.5 449.88,-69.19 468.3,-73.56 484.62,-77.55"/>
<polygon fill="#63b8ff" stroke="#63b8ff" points="483.94,-80.99 494.48,-79.98 485.61,-74.19 483.94,-80.99"/>
</a>
</g>
</g>
<!-- Node5 -->
<g id="Node000005" class="node">
<title>Node5</title>
<g id="a_Node000005"><a xlink:href="../../d8/da7/classRational.html#ade4ddf0f6fad43ed54e014ea023ad9b7" target="_top" xlink:title="牛顿迭代法计算 n 次方根（就地修改）">
<polygon fill="white" stroke="#666666" points="597,-56 469,-56 469,-37 597,-37 597,-56"/>
<text text-anchor="middle" x="533" y="-44" font-family="Helvetica,sans-Serif" font-size="10.00">Rational::radicand_self</text>
</a>
</g>
</g>
<!-- Node4&#45;&gt;Node5 -->
<g id="edge8_Node000004_Node000005" class="edge">
<title>Node4&#45;&gt;Node5</title>
<g id="a_edge8_Node000004_Node000005"><a xlink:title=" ">
<path fill="none" stroke="#63b8ff" d="M387.13,-46.5C409.02,-46.5 434.93,-46.5 458.74,-46.5"/>
<polygon fill="#63b8ff" stroke="#63b8ff" points="458.8,-50 468.8,-46.5 458.8,-43 458.8,-50"/>
</a>
</g>
</g>
<!-- Node6 -->
<g id="Node000006" class="node">
<title>Node6</title>
<g id="a_Node000006"><a xlink:href="../../d8/da7/classRational.html#acc5dc6a747c2973b0b52598fbe8dc4ad" target="_top" xlink:title=" ">
<polygon fill="white" stroke="#666666" points="776,-93 633,-93 633,-74 776,-74 776,-93"/>
<text text-anchor="middle" x="704.5" y="-81" font-family="Helvetica,sans-Serif" font-size="10.00">Rational::integer_nth_root</text>
</a>
</g>
</g>
<!-- Node5&#45;&gt;Node6 -->
<g id="edge9_Node000005_Node000006" class="edge">
<title>Node5&#45;&gt;Node6</title>
<g id="a_edge9_Node000005_Node000006"><a xlink:title=" ">
<path fill="none" stroke="#63b8ff" d="M577.65,-56.03C599.61,-60.82 626.43,-66.68 649.65,-71.75"/>
<polygon fill="#63b8ff" stroke="#63b8ff" points="649.19,-75.23 659.7,-73.94 650.68,-68.39 649.19,-75.23"/>
</a>
</g>
</g>
<!-- Node8 -->
<g id="Node000008" class="node">
<title>Node8</title>
<g id="a_Node000008"><a xlink:href="../../d8/da7/classRational.html#aadcc78cb84b56391f8bcb9fbf8d9941e" target="_top" xlink:title=" ">
<polygon fill="white" stroke="#666666" points="752,-56 657,-56 657,-37 752,-37 752,-56"/>
<text text-anchor="middle" x="704.5" y="-44" font-family="Helvetica,sans-Serif" font-size="10.00">Rational::pow10</text>
</a>
</g>
</g>
<!-- Node5&#45;&gt;Node8 -->
<g id="edge11_Node000005_Node000008" class="edge">
<title>Node5&#45;&gt;Node8</title>
<g id="a_edge11_Node000005_Node000008"><a xlink:title=" ">
<path fill="none" stroke="#63b8ff" d="M597.12,-46.5C613.33,-46.5 630.68,-46.5 646.56,-46.5"/>
<polygon fill="#63b8ff" stroke="#63b8ff" points="646.76,-50 656.76,-46.5 646.76,-43 646.76,-50"/>
</a>
</g>
</g>
<!-- Node9 -->
<g id="Node000009" class="node">
<title>Node9</title>
<g id="a_Node000009"><a xlink:href="../../d8/da7/classRational.html#a3d410504846bf492103a5c2a8b53d7c6" target="_top" xlink:title=" ">
<polygon fill="white" stroke="#666666" points="755.5,-19 653.5,-19 653.5,0 755.5,0 755.5,-19"/>
<text text-anchor="middle" x="704.5" y="-7" font-family="Helvetica,sans-Serif" font-size="10.00">Rational::simplify</text>
</a>
</g>
</g>
<!-- Node5&#45;&gt;Node9 -->
<g id="edge12_Node000005_Node000009" class="edge">
<title>Node5&#45;&gt;Node9</title>
<g id="a_edge12_Node000005_Node000009"><a xlink:title=" ">
<path fill="none" stroke="#63b8ff" d="M577.65,-36.97C599.61,-32.18 626.43,-26.32 649.65,-21.25"/>
<polygon fill="#63b8ff" stroke="#63b8ff" points="650.68,-24.61 659.7,-19.06 649.19,-17.77 650.68,-24.61"/>
</a>
</g>
</g>
<!-- Node7 -->
<g id="Node000007" class="node">
<title>Node7</title>
<g id="a_Node000007"><a xlink:href="../../d8/da7/classRational.html#a5ed9a9edfd91fe997aca9a26644d0413" target="_top" xlink:title=" ">
<polygon fill="white" stroke="#666666" points="925,-93 812,-93 812,-74 925,-74 925,-93"/>
<text text-anchor="middle" x="868.5" y="-81" font-family="Helvetica,sans-Serif" font-size="10.00">Rational::power_leq</text>
</a>
</g>
</g>
<!-- Node6&#45;&gt;Node7 -->
<g id="edge10_Node000006_Node000007" class="edge">
<title>Node6&#45;&gt;Node7</title>
<g id="a_edge10_Node000006_Node000007"><a xlink:title=" ">
<path fill="none" stroke="#63b8ff" d="M776.08,-83.5C784.57,-83.5 793.21,-83.5 801.63,-83.5"/>
<polygon fill="#63b8ff" stroke="#63b8ff" points="801.76,-87 811.76,-83.5 801.76,-80 801.76,-87"/>
</a>
</g>
</g>
</g>
</svg>

<g id="navigator" transform="translate(0 0)" fill="#404254">
  <rect fill="#f2f5e9" fill-opacity="0.5" stroke="#606060" stroke-width=".5" x="0" y="0" width="60" height="60"/>
  <use id="zoomplus" xlink:href="#zoomPlus" x="17" y="9" data-zoom="in"/>
  <use id="zoomminus" xlink:href="#zoomMin" x="42" y="9" data-zoom="out"/>
  <use id="reset" xlink:href="#resetDef" x="30" y="36" data-reset="true"/>
  <use id="arrowup" xlink:href="#arrowUp" x="0" y="0" data-pan-x="0" data-pan-y="-1"/>
  <use id="arrowright" xlink:href="#arrowRight" x="0" y="0" data-pan-x="1" data-pan-y="0"/>
  <use id="arrowdown" xlink:href="#arrowDown" x="0" y="0" data-pan-x="0" data-pan-y="1"/>
  <use id="arrowleft" xlink:href="#arrowLeft" x="0" y="0" data-pan-x="-1" data-pan-y="0"/>
</g>
<svg viewBox="0 0 15 15" width="100%" height="30px" preserveAspectRatio="xMaxYMin meet">
 <g id="arrow_out" transform="scale(0.3 0.3)">
  <a xlink:href="namespacelamina_1_1anonymous__namespace_02interval_8cpp_03_a30b00b6bdd153f1f75ac83e81e57430a_cgraph_org.svg" target="_base">
   <rect id="button" ry="5" rx="5" y="6" x="6" height="38" width="38"
        fill="#f2f5e9" fill-opacity="0.5" stroke="#606060" stroke-width="1.0"/>
   <path id="arrow"
     d="M 11.500037,31.436501 C 11.940474,20.09759 22.043105,11.32322 32.158766,21.979434 L 37.068811,17.246167 C 37.068811,17.246167 37.088388,32 37.088388,32 L 22.160133,31.978069 C 22.160133,31.978069 26.997745,27.140456 26.997745,27.140456 C 18.528582,18.264221 13.291696,25.230495 11.500037,31.436501 z"
     style="fill:#404040;"/>
  </a>
 </g>
</svg>

<style type='text/css'>
<![CDATA[
[data-mouse-over-selected='false'] { opacity: 0.7; }
[data-mouse-over-selected='true']  { opacity: 1.0; }
]]>
</style>
</svg>
