<?xml version="1.0" encoding="UTF-8" standalone="no"?>
<!DOCTYPE svg PUBLIC "-//W3C//DTD SVG 1.1//EN"
 "http://www.w3.org/Graphics/SVG/1.1/DTD/svg11.dtd">
<!-- Generated by graphviz version 2.43.0 (0)
 -->
<!-- Title: miller_rabin_32 Pages: 1 -->
<svg width="393pt" height="27pt"
 viewBox="0.00 0.00 393.00 27.00" xmlns="http://www.w3.org/2000/svg" xmlns:xlink="http://www.w3.org/1999/xlink">
<g id="graph0" class="graph" transform="scale(1 1) rotate(0) translate(4 23)">
<title>miller_rabin_32</title>
<!-- Node1 -->
<g id="Node000001" class="node">
<title>Node1</title>
<g id="a_Node000001"><a xlink:title=" ">
<polygon fill="#999999" stroke="#666666" points="92,-19 0,-19 0,0 92,0 92,-19"/>
<text text-anchor="middle" x="46" y="-7" font-family="Helvetica,sans-Serif" font-size="10.00">miller_rabin_32</text>
</a>
</g>
</g>
<!-- Node2 -->
<g id="Node000002" class="node">
<title>Node2</title>
<g id="a_Node000002"><a xlink:href="../../d1/d59/longlong_8h.html#a9e3ed8e7225076ed482e70e7901e8138" target="_top" xlink:title=" ">
<polygon fill="white" stroke="#666666" points="254,-19 128,-19 128,0 254,0 254,-19"/>
<text text-anchor="middle" x="191" y="-7" font-family="Helvetica,sans-Serif" font-size="10.00">_udiv64by64_q_preinv</text>
</a>
</g>
</g>
<!-- Node1&#45;&gt;Node2 -->
<g id="edge1_Node000001_Node000002" class="edge">
<title>Node1&#45;&gt;Node2</title>
<g id="a_edge1_Node000001_Node000002"><a xlink:title=" ">
<path fill="none" stroke="#63b8ff" d="M92.25,-9.5C100.36,-9.5 109,-9.5 117.66,-9.5"/>
<polygon fill="#63b8ff" stroke="#63b8ff" points="117.8,-13 127.8,-9.5 117.8,-6 117.8,-13"/>
</a>
</g>
</g>
<!-- Node3 -->
<g id="Node000003" class="node">
<title>Node3</title>
<g id="a_Node000003"><a xlink:href="../../d1/d59/longlong_8h.html#a104e813f9a9e8493d73ecabb3e46ff95" target="_top" xlink:title=" ">
<polygon fill="white" stroke="#666666" points="385,-19 290,-19 290,0 385,0 385,-19"/>
<text text-anchor="middle" x="337.5" y="-7" font-family="Helvetica,sans-Serif" font-size="10.00">_umul64to64hi_</text>
</a>
</g>
</g>
<!-- Node2&#45;&gt;Node3 -->
<g id="edge2_Node000002_Node000003" class="edge">
<title>Node2&#45;&gt;Node3</title>
<g id="a_edge2_Node000002_Node000003"><a xlink:title=" ">
<path fill="none" stroke="#63b8ff" d="M254.12,-9.5C262.6,-9.5 271.28,-9.5 279.66,-9.5"/>
<polygon fill="#63b8ff" stroke="#63b8ff" points="279.71,-13 289.71,-9.5 279.71,-6 279.71,-13"/>
</a>
</g>
</g>
</g>
</svg>
