<?xml version="1.0" encoding="UTF-8" standalone="no"?>
<!DOCTYPE svg PUBLIC "-//W3C//DTD SVG 1.1//EN"
 "http://www.w3.org/Graphics/SVG/1.1/DTD/svg11.dtd">
<!-- Generated by graphviz version 2.43.0 (0)
 -->
<!-- Title: mont64_R2 Pages: 1 -->
<svg width="429pt" height="101pt"
 viewBox="0.00 0.00 429.00 101.00" xmlns="http://www.w3.org/2000/svg" xmlns:xlink="http://www.w3.org/1999/xlink">
<g id="graph0" class="graph" transform="scale(1 1) rotate(0) translate(4 97)">
<title>mont64_R2</title>
<!-- Node1 -->
<g id="Node000001" class="node">
<title>Node1</title>
<g id="a_Node000001"><a xlink:title=" ">
<polygon fill="#999999" stroke="#666666" points="421,-37 349,-37 349,-18 421,-18 421,-37"/>
<text text-anchor="middle" x="385" y="-25" font-family="Helvetica,sans-Serif" font-size="10.00">mont64_R2</text>
</a>
</g>
</g>
<!-- Node2 -->
<g id="Node000002" class="node">
<title>Node2</title>
<g id="a_Node000002"><a xlink:href="../../da/dfb/is__prime__ulong_8c.html#a5b8958560dd61c64a0061b614b571a84" target="_top" xlink:title="判断素数（无试除法）">
<polygon fill="white" stroke="#666666" points="313,-56 179,-56 179,-37 313,-37 313,-56"/>
<text text-anchor="middle" x="246" y="-44" font-family="Helvetica,sans-Serif" font-size="10.00">lmmp_is_prime_notrial_</text>
</a>
</g>
</g>
<!-- Node1&#45;&gt;Node2 -->
<g id="edge1_Node000001_Node000002" class="edge">
<title>Node1&#45;&gt;Node2</title>
<g id="a_edge1_Node000001_Node000002"><a xlink:title=" ">
<path fill="none" stroke="#63b8ff" d="M338.62,-33.79C330.41,-34.93 321.69,-36.14 313.02,-37.34"/>
<polygon fill="#63b8ff" stroke="#63b8ff" points="339.29,-37.23 348.72,-32.39 338.33,-30.3 339.29,-37.23"/>
</a>
</g>
</g>
<!-- Node6 -->
<g id="Node000006" class="node">
<title>Node6</title>
<g id="a_Node000006"><a xlink:href="../../da/dfb/is__prime__ulong_8c.html#a8c65765939c5ad563330e5b5ec64db36" target="_top" xlink:title="计算 base^exp 对 mod 取模">
<polygon fill="white" stroke="#666666" points="311,-19 181,-19 181,0 311,0 311,-19"/>
<text text-anchor="middle" x="246" y="-7" font-family="Helvetica,sans-Serif" font-size="10.00">lmmp_powmod_ulong_</text>
</a>
</g>
</g>
<!-- Node1&#45;&gt;Node6 -->
<g id="edge5_Node000001_Node000006" class="edge">
<title>Node1&#45;&gt;Node6</title>
<g id="a_edge5_Node000001_Node000006"><a xlink:title=" ">
<path fill="none" stroke="#63b8ff" d="M338.67,-21.54C329.85,-20.38 320.44,-19.15 311.15,-17.93"/>
<polygon fill="#63b8ff" stroke="#63b8ff" points="338.35,-25.03 348.72,-22.86 339.26,-18.09 338.35,-25.03"/>
</a>
</g>
</g>
<!-- Node3 -->
<g id="Node000003" class="node">
<title>Node3</title>
<g id="a_Node000003"><a xlink:href="../../da/dfb/is__prime__ulong_8c.html#aafc215215e7c96c0ee428e7ce962ae87" target="_top" xlink:title="判断素数">
<polygon fill="white" stroke="#666666" points="136.5,-93 6.5,-93 6.5,-74 136.5,-74 136.5,-93"/>
<text text-anchor="middle" x="71.5" y="-81" font-family="Helvetica,sans-Serif" font-size="10.00">lmmp_is_prime_ulong_</text>
</a>
</g>
</g>
<!-- Node2&#45;&gt;Node3 -->
<g id="edge2_Node000002_Node000003" class="edge">
<title>Node2&#45;&gt;Node3</title>
<g id="a_edge2_Node000002_Node000003"><a xlink:title=" ">
<path fill="none" stroke="#63b8ff" d="M190.68,-58.15C166.98,-63.23 139.54,-69.12 117.07,-73.94"/>
<polygon fill="#63b8ff" stroke="#63b8ff" points="191.53,-61.55 200.58,-56.03 190.07,-54.7 191.53,-61.55"/>
</a>
</g>
</g>
<!-- Node4 -->
<g id="Node000004" class="node">
<title>Node4</title>
<g id="a_Node000004"><a xlink:href="../../da/dfb/is__prime__ulong_8c.html#aed3f451d80cd78fbb938c820c2784316" target="_top" xlink:title="大于n的下一个素数">
<polygon fill="white" stroke="#666666" points="143,-56 0,-56 0,-37 143,-37 143,-56"/>
<text text-anchor="middle" x="71.5" y="-44" font-family="Helvetica,sans-Serif" font-size="10.00">lmmp_next_prime_ulong_</text>
</a>
</g>
</g>
<!-- Node2&#45;&gt;Node4 -->
<g id="edge3_Node000002_Node000004" class="edge">
<title>Node2&#45;&gt;Node4</title>
<g id="a_edge3_Node000002_Node000004"><a xlink:title=" ">
<path fill="none" stroke="#63b8ff" d="M168.56,-46.5C160.09,-46.5 151.5,-46.5 143.11,-46.5"/>
<polygon fill="#63b8ff" stroke="#63b8ff" points="168.8,-50 178.8,-46.5 168.8,-43 168.8,-50"/>
</a>
</g>
</g>
<!-- Node5 -->
<g id="Node000005" class="node">
<title>Node5</title>
<g id="a_Node000005"><a xlink:href="../../da/dfb/is__prime__ulong_8c.html#a16767c399d3f5b8d0111792d8104c963" target="_top" xlink:title="小于等于n的上一个素数">
<polygon fill="white" stroke="#666666" points="143,-19 0,-19 0,0 143,0 143,-19"/>
<text text-anchor="middle" x="71.5" y="-7" font-family="Helvetica,sans-Serif" font-size="10.00">lmmp_prev_prime_ulong_</text>
</a>
</g>
</g>
<!-- Node2&#45;&gt;Node5 -->
<g id="edge4_Node000002_Node000005" class="edge">
<title>Node2&#45;&gt;Node5</title>
<g id="a_edge4_Node000002_Node000005"><a xlink:title=" ">
<path fill="none" stroke="#63b8ff" d="M190.68,-34.85C166.98,-29.77 139.54,-23.88 117.07,-19.06"/>
<polygon fill="#63b8ff" stroke="#63b8ff" points="190.07,-38.3 200.58,-36.97 191.53,-31.45 190.07,-38.3"/>
</a>
</g>
</g>
</g>
</svg>
