<?xml version="1.0" encoding="UTF-8" standalone="no"?>
<!DOCTYPE svg PUBLIC "-//W3C//DTD SVG 1.1//EN"
 "http://www.w3.org/Graphics/SVG/1.1/DTD/svg11.dtd">
<!-- Generated by graphviz version 2.43.0 (0)
 -->
<!-- Title: lmmp_powmod_uint_ Pages: 1 -->
<svg width="702pt" height="64pt"
 viewBox="0.00 0.00 702.00 64.00" xmlns="http://www.w3.org/2000/svg" xmlns:xlink="http://www.w3.org/1999/xlink">
<g id="graph0" class="graph" transform="scale(1 1) rotate(0) translate(4 60)">
<title>lmmp_powmod_uint_</title>
<!-- Node1 -->
<g id="Node000001" class="node">
<title>Node1</title>
<g id="a_Node000001"><a xlink:title="计算 base^exp 对 mod 取模">
<polygon fill="#999999" stroke="#666666" points="122,-37 0,-37 0,-18 122,-18 122,-37"/>
<text text-anchor="middle" x="61" y="-25" font-family="Helvetica,sans-Serif" font-size="10.00">lmmp_powmod_uint_</text>
</a>
</g>
</g>
<!-- Node2 -->
<g id="Node000002" class="node">
<title>Node2</title>
<g id="a_Node000002"><a xlink:href="../../d1/d59/longlong_8h.html#a88a29f1ee77bc94b09524c46ace0abc0" target="_top" xlink:title=" ">
<polygon fill="white" stroke="#666666" points="260,-56 182,-56 182,-37 260,-37 260,-56"/>
<text text-anchor="middle" x="221" y="-44" font-family="Helvetica,sans-Serif" font-size="10.00">_udiv64_gen</text>
</a>
</g>
</g>
<!-- Node1&#45;&gt;Node2 -->
<g id="edge1_Node000001_Node000002" class="edge">
<title>Node1&#45;&gt;Node2</title>
<g id="a_edge1_Node000001_Node000002"><a xlink:title=" ">
<path fill="none" stroke="#63b8ff" d="M122.18,-34.74C138.64,-36.72 156.25,-38.83 171.93,-40.72"/>
<polygon fill="#63b8ff" stroke="#63b8ff" points="171.57,-44.2 181.92,-41.92 172.41,-37.25 171.57,-44.2"/>
</a>
</g>
</g>
<!-- Node6 -->
<g id="Node000006" class="node">
<title>Node6</title>
<g id="a_Node000006"><a xlink:href="../../d1/d59/longlong_8h.html#a9e3ed8e7225076ed482e70e7901e8138" target="_top" xlink:title=" ">
<polygon fill="white" stroke="#666666" points="284,-19 158,-19 158,0 284,0 284,-19"/>
<text text-anchor="middle" x="221" y="-7" font-family="Helvetica,sans-Serif" font-size="10.00">_udiv64by64_q_preinv</text>
</a>
</g>
</g>
<!-- Node1&#45;&gt;Node6 -->
<g id="edge6_Node000001_Node000006" class="edge">
<title>Node1&#45;&gt;Node6</title>
<g id="a_edge6_Node000001_Node000006"><a xlink:title=" ">
<path fill="none" stroke="#63b8ff" d="M122.18,-20.64C130.58,-19.69 139.28,-18.7 147.87,-17.72"/>
<polygon fill="#63b8ff" stroke="#63b8ff" points="148.35,-21.19 157.89,-16.58 147.55,-14.23 148.35,-21.19"/>
</a>
</g>
</g>
<!-- Node3 -->
<g id="Node000003" class="node">
<title>Node3</title>
<g id="a_Node000003"><a xlink:href="../../d1/d59/longlong_8h.html#a2ed1638447039b40aefbd0e7a0898946" target="_top" xlink:title=" ">
<polygon fill="white" stroke="#666666" points="446,-56 320,-56 320,-37 446,-37 446,-56"/>
<text text-anchor="middle" x="383" y="-44" font-family="Helvetica,sans-Serif" font-size="10.00">_udiv64_gen_internal_</text>
</a>
</g>
</g>
<!-- Node2&#45;&gt;Node3 -->
<g id="edge2_Node000002_Node000003" class="edge">
<title>Node2&#45;&gt;Node3</title>
<g id="a_edge2_Node000002_Node000003"><a xlink:title=" ">
<path fill="none" stroke="#63b8ff" d="M260.32,-46.5C275.1,-46.5 292.51,-46.5 309.46,-46.5"/>
<polygon fill="#63b8ff" stroke="#63b8ff" points="309.94,-50 319.94,-46.5 309.94,-43 309.94,-50"/>
</a>
</g>
</g>
<!-- Node4 -->
<g id="Node000004" class="node">
<title>Node4</title>
<g id="a_Node000004"><a xlink:href="../../d1/d59/longlong_8h.html#a88d1f2d7a3692c44ed3447565014b5b7" target="_top" xlink:title=" ">
<polygon fill="white" stroke="#666666" points="694,-56 630,-56 630,-37 694,-37 694,-56"/>
<text text-anchor="middle" x="662" y="-44" font-family="Helvetica,sans-Serif" font-size="10.00">_clz_u64_</text>
</a>
</g>
</g>
<!-- Node3&#45;&gt;Node4 -->
<g id="edge3_Node000003_Node000004" class="edge">
<title>Node3&#45;&gt;Node4</title>
<g id="a_edge3_Node000003_Node000004"><a xlink:title=" ">
<path fill="none" stroke="#63b8ff" d="M446.16,-46.5C499.14,-46.5 573.79,-46.5 619.7,-46.5"/>
<polygon fill="#63b8ff" stroke="#63b8ff" points="619.88,-50 629.88,-46.5 619.88,-43 619.88,-50"/>
</a>
</g>
</g>
<!-- Node5 -->
<g id="Node000005" class="node">
<title>Node5</title>
<g id="a_Node000005"><a xlink:href="../../d1/d59/longlong_8h.html#ab8639909cb5e1089ffc5f3f5b9b9da40" target="_top" xlink:title=" ">
<polygon fill="white" stroke="#666666" points="594,-37 482,-37 482,-18 594,-18 594,-37"/>
<text text-anchor="middle" x="538" y="-25" font-family="Helvetica,sans-Serif" font-size="10.00">_udiv128by64to64_</text>
</a>
</g>
</g>
<!-- Node3&#45;&gt;Node5 -->
<g id="edge4_Node000003_Node000005" class="edge">
<title>Node3&#45;&gt;Node5</title>
<g id="a_edge4_Node000003_Node000005"><a xlink:title=" ">
<path fill="none" stroke="#63b8ff" d="M446.23,-38.77C454.58,-37.73 463.17,-36.67 471.58,-35.62"/>
<polygon fill="#63b8ff" stroke="#63b8ff" points="472.22,-39.07 481.71,-34.37 471.35,-32.13 472.22,-39.07"/>
</a>
</g>
</g>
<!-- Node5&#45;&gt;Node4 -->
<g id="edge5_Node000005_Node000004" class="edge">
<title>Node5&#45;&gt;Node4</title>
<g id="a_edge5_Node000005_Node000004"><a xlink:title=" ">
<path fill="none" stroke="#63b8ff" d="M594.29,-36.11C602.89,-37.45 611.64,-38.81 619.85,-40.09"/>
<polygon fill="#63b8ff" stroke="#63b8ff" points="619.5,-43.58 629.92,-41.66 620.58,-36.66 619.5,-43.58"/>
</a>
</g>
</g>
<!-- Node7 -->
<g id="Node000007" class="node">
<title>Node7</title>
<g id="a_Node000007"><a xlink:href="../../d1/d59/longlong_8h.html#a104e813f9a9e8493d73ecabb3e46ff95" target="_top" xlink:title=" ">
<polygon fill="white" stroke="#666666" points="430.5,-19 335.5,-19 335.5,0 430.5,0 430.5,-19"/>
<text text-anchor="middle" x="383" y="-7" font-family="Helvetica,sans-Serif" font-size="10.00">_umul64to64hi_</text>
</a>
</g>
</g>
<!-- Node6&#45;&gt;Node7 -->
<g id="edge7_Node000006_Node000007" class="edge">
<title>Node6&#45;&gt;Node7</title>
<g id="a_edge7_Node000006_Node000007"><a xlink:title=" ">
<path fill="none" stroke="#63b8ff" d="M284.32,-9.5C297.75,-9.5 311.88,-9.5 325.09,-9.5"/>
<polygon fill="#63b8ff" stroke="#63b8ff" points="325.46,-13 335.46,-9.5 325.46,-6 325.46,-13"/>
</a>
</g>
</g>
</g>
</svg>
