<?xml version="1.0" encoding="UTF-8" standalone="no"?>
<!DOCTYPE svg PUBLIC "-//W3C//DTD SVG 1.1//EN"
 "http://www.w3.org/Graphics/SVG/1.1/DTD/svg11.dtd">
<!-- Generated by graphviz version 2.43.0 (0)
 -->
<!-- Title: lmmp_is_prime_ulong_ Pages: 1 -->
<!--zoomable 290 -->

<svg id="main" version="1.1" xmlns="http://www.w3.org/2000/svg" xmlns:xlink="http://www.w3.org/1999/xlink" xml:space="preserve" onload="init(evt)">
<style type="text/css"><![CDATA[
.node, .edge {opacity: 0.7;}
.node.selected, .edge.selected {opacity: 1;}
.edge:hover path { stroke: red; }
.edge:hover polygon { stroke: red; fill: red; }
]]></style>

<defs>
  <circle id="rim" cx="0" cy="0" r="7"/>
  <circle id="rim2" cx="0" cy="0" r="3.5"/>
  <g id="zoomPlus">
    <use xlink:href="#rim" fill="#404040"><set attributeName="fill" to="#808080" begin="zoomplus.mouseover" end="zoomplus.mouseout"/></use>
    <path d="M-4,0h8M0,-4v8" fill="none" stroke="white" stroke-width="1.5" pointer-events="none"/>
  </g>
  <g id="zoomMin">
    <use xlink:href="#rim" fill="#404040"><set attributeName="fill" to="#808080" begin="zoomminus.mouseover" end="zoomminus.mouseout"/></use>
    <path d="M-4,0h8" fill="none" stroke="white" stroke-width="1.5" pointer-events="none"/>
  </g>
  <g id="arrowUp" transform="translate(30 24)">
    <use xlink:href="#rim"/>
    <path pointer-events="none" fill="none" stroke="white" stroke-width="1.5" d="M0,-3.0v7 M-2.5,-0.5L0,-3.0L2.5,-0.5"/>
  </g>
  <g id="arrowRight" transform="rotate(90) translate(36 -43)">
    <use xlink:href="#rim"/>
    <path pointer-events="none" fill="none" stroke="white" stroke-width="1.5" d="M0,-3.0v7 M-2.5,-0.5L0,-3.0L2.5,-0.5"/>
  </g>
  <g id="arrowDown" transform="rotate(180) translate(-30 -48)">
    <use xlink:href="#rim"/>
    <path pointer-events="none" fill="none" stroke="white" stroke-width="1.5" d="M0,-3.0v7 M-2.5,-0.5L0,-3.0L2.5,-0.5"/>
  </g>
  <g id="arrowLeft" transform="rotate(270) translate(-36 17)">
    <use xlink:href="#rim"/>
    <path pointer-events="none" fill="none" stroke="white" stroke-width="1.5" d="M0,-3.0v7 M-2.5,-0.5L0,-3.0L2.5,-0.5"/>
  </g>
  <g id="resetDef">
    <use xlink:href="#rim2" fill="#404040"><set attributeName="fill" to="#808080" begin="reset.mouseover" end="reset.mouseout"/></use>
  </g>
</defs>
<script type="application/ecmascript">
var viewWidth = 722;
var viewHeight = 290;
var sectionId = 'dynsection-8';
</script>
<script type="application/ecmascript" xlink:href="../../svg.min.js"/>
<svg id="graph" class="graph">
<g id="viewport">
<title>lmmp_is_prime_ulong_</title>
<!-- Node1 -->
<g id="Node000001" class="node">
<title>Node1</title>
<g id="a_Node000001"><a xlink:title="判断素数">
<polygon fill="#999999" stroke="#666666" points="130,-57 0,-57 0,-38 130,-38 130,-57"/>
<text text-anchor="middle" x="65" y="-45" font-family="Helvetica,sans-Serif" font-size="10.00">lmmp_is_prime_ulong_</text>
</a>
</g>
</g>
<!-- Node2 -->
<g id="Node000002" class="node">
<title>Node2</title>
<g id="a_Node000002"><a xlink:href="../../da/dfb/is__prime__ulong_8c.html#a5b8958560dd61c64a0061b614b571a84" target="_top" xlink:title="判断素数（无试除法）">
<polygon fill="white" stroke="#666666" points="300,-150 166,-150 166,-131 300,-131 300,-150"/>
<text text-anchor="middle" x="233" y="-138" font-family="Helvetica,sans-Serif" font-size="10.00">lmmp_is_prime_notrial_</text>
</a>
</g>
</g>
<!-- Node1&#45;&gt;Node2 -->
<g id="edge1_Node000001_Node000002" class="edge">
<title>Node1&#45;&gt;Node2</title>
<g id="a_edge1_Node000001_Node000002"><a xlink:title=" ">
<path fill="none" stroke="#63b8ff" d="M83.14,-57.1C112.22,-73.39 171.39,-106.54 205.72,-125.78"/>
<polygon fill="#63b8ff" stroke="#63b8ff" points="204.27,-128.98 214.7,-130.81 207.69,-122.87 204.27,-128.98"/>
</a>
</g>
</g>
<!-- Node15 -->
<g id="Node000015" class="node">
<title>Node15</title>
<g id="a_Node000015"><a xlink:href="../../d2/d9c/prime__table_8c.html#a6831aedda8d6aecc9a39f285b4314961" target="_top" xlink:title="根据全局素数表判断一个数是否为素数">
<polygon fill="white" stroke="#666666" points="297,-57 169,-57 169,-38 297,-38 297,-57"/>
<text text-anchor="middle" x="233" y="-45" font-family="Helvetica,sans-Serif" font-size="10.00">lmmp_is_prime_table_</text>
</a>
</g>
</g>
<!-- Node1&#45;&gt;Node15 -->
<g id="edge17_Node000001_Node000015" class="edge">
<title>Node1&#45;&gt;Node15</title>
<g id="a_edge17_Node000001_Node000015"><a xlink:title=" ">
<path fill="none" stroke="#63b8ff" d="M130.18,-47.5C139.49,-47.5 149.14,-47.5 158.62,-47.5"/>
<polygon fill="#63b8ff" stroke="#63b8ff" points="158.81,-51 168.81,-47.5 158.81,-44 158.81,-51"/>
</a>
</g>
</g>
<!-- Node17 -->
<g id="Node000017" class="node">
<title>Node17</title>
<g id="a_Node000017"><a xlink:href="../../d1/d98/prime__table_8h.html#a0c15c84948a73895982010925d3475dc" target="_top" xlink:title="校验是否能被3,5,7,11整除，能够整除则返回1，否则返回0">
<polygon fill="white" stroke="#666666" points="276,-20 190,-20 190,-1 276,-1 276,-20"/>
<text text-anchor="middle" x="233" y="-8" font-family="Helvetica,sans-Serif" font-size="10.00">trial_div35711</text>
</a>
</g>
</g>
<!-- Node1&#45;&gt;Node17 -->
<g id="edge19_Node000001_Node000017" class="edge">
<title>Node1&#45;&gt;Node17</title>
<g id="a_edge19_Node000001_Node000017"><a xlink:title=" ">
<path fill="none" stroke="#63b8ff" d="M108.75,-37.97C130.51,-33.12 157.13,-27.19 180.06,-22.08"/>
<polygon fill="#63b8ff" stroke="#63b8ff" points="180.97,-25.46 189.97,-19.87 179.45,-18.63 180.97,-25.46"/>
</a>
</g>
</g>
<!-- Node3 -->
<g id="Node000003" class="node">
<title>Node3</title>
<g id="a_Node000003"><a xlink:href="../../df/dea/binvert__1_8c.html#a3926a6e48ffe7baef646e599da10ed2c" target="_top" xlink:title="计算 a 在2^64下的逆元">
<polygon fill="white" stroke="#666666" points="458,-245 336,-245 336,-226 458,-226 458,-245"/>
<text text-anchor="middle" x="397" y="-233" font-family="Helvetica,sans-Serif" font-size="10.00">lmmp_binvert_ulong_</text>
</a>
</g>
</g>
<!-- Node2&#45;&gt;Node3 -->
<g id="edge2_Node000002_Node000003" class="edge">
<title>Node2&#45;&gt;Node3</title>
<g id="a_edge2_Node000002_Node000003"><a xlink:title=" ">
<path fill="none" stroke="#63b8ff" d="M245.98,-150.2C264.46,-164.84 301.43,-192.87 336,-211.5 343.15,-215.35 351.06,-218.95 358.72,-222.12"/>
<polygon fill="#63b8ff" stroke="#63b8ff" points="357.64,-225.46 368.22,-225.9 360.23,-218.95 357.64,-225.46"/>
</a>
</g>
</g>
<!-- Node4 -->
<g id="Node000004" class="node">
<title>Node4</title>
<g id="a_Node000004"><a xlink:href="../../da/dfb/is__prime__ulong_8c.html#af56434be5b0fe38cda274865b648ed81" target="_top" xlink:title=" ">
<polygon fill="white" stroke="#666666" points="443,-169 351,-169 351,-150 443,-150 443,-169"/>
<text text-anchor="middle" x="397" y="-157" font-family="Helvetica,sans-Serif" font-size="10.00">miller_rabin_63</text>
</a>
</g>
</g>
<!-- Node2&#45;&gt;Node4 -->
<g id="edge3_Node000002_Node000004" class="edge">
<title>Node2&#45;&gt;Node4</title>
<g id="a_edge3_Node000002_Node000004"><a xlink:title=" ">
<path fill="none" stroke="#63b8ff" d="M300.36,-148.28C313.73,-149.85 327.66,-151.49 340.61,-153"/>
<polygon fill="#63b8ff" stroke="#63b8ff" points="340.42,-156.51 350.76,-154.19 341.24,-149.55 340.42,-156.51"/>
</a>
</g>
</g>
<!-- Node7 -->
<g id="Node000007" class="node">
<title>Node7</title>
<g id="a_Node000007"><a xlink:href="../../da/dfb/is__prime__ulong_8c.html#a87d0ea14b09217834f90a3ac9d08f7b7" target="_top" xlink:title=" ">
<polygon fill="white" stroke="#666666" points="443,-282 351,-282 351,-263 443,-263 443,-282"/>
<text text-anchor="middle" x="397" y="-270" font-family="Helvetica,sans-Serif" font-size="10.00">miller_rabin_64</text>
</a>
</g>
</g>
<!-- Node2&#45;&gt;Node7 -->
<g id="edge6_Node000002_Node000007" class="edge">
<title>Node2&#45;&gt;Node7</title>
<g id="a_edge6_Node000002_Node000007"><a xlink:title=" ">
<path fill="none" stroke="#63b8ff" d="M239.86,-150.06C253.76,-171.92 290.95,-225.87 336,-254.5 338.58,-256.14 341.31,-257.63 344.14,-259"/>
<polygon fill="#63b8ff" stroke="#63b8ff" points="342.82,-262.24 353.4,-262.93 345.56,-255.8 342.82,-262.24"/>
</a>
</g>
</g>
<!-- Node10 -->
<g id="Node000010" class="node">
<title>Node10</title>
<g id="a_Node000010"><a xlink:href="../../da/dfb/is__prime__ulong_8c.html#a63d49bcb1bdca169e3c3755afd13383a" target="_top" xlink:title=" ">
<polygon fill="white" stroke="#666666" points="433,-132 361,-132 361,-113 433,-113 433,-132"/>
<text text-anchor="middle" x="397" y="-120" font-family="Helvetica,sans-Serif" font-size="10.00">mont63_R2</text>
</a>
</g>
</g>
<!-- Node2&#45;&gt;Node10 -->
<g id="edge9_Node000002_Node000010" class="edge">
<title>Node2&#45;&gt;Node10</title>
<g id="a_edge9_Node000002_Node000010"><a xlink:title=" ">
<path fill="none" stroke="#63b8ff" d="M300.36,-133.13C317.11,-131.27 334.73,-129.31 350.22,-127.59"/>
<polygon fill="#63b8ff" stroke="#63b8ff" points="351.01,-131.02 360.56,-126.44 350.24,-124.06 351.01,-131.02"/>
</a>
</g>
</g>
<!-- Node12 -->
<g id="Node000012" class="node">
<title>Node12</title>
<g id="a_Node000012"><a xlink:href="../../da/dfb/is__prime__ulong_8c.html#a3c6b5b1826581e26ab693c636c4ad214" target="_top" xlink:title=" ">
<polygon fill="white" stroke="#666666" points="433,-95 361,-95 361,-76 433,-76 433,-95"/>
<text text-anchor="middle" x="397" y="-83" font-family="Helvetica,sans-Serif" font-size="10.00">mont64_R2</text>
</a>
</g>
</g>
<!-- Node2&#45;&gt;Node12 -->
<g id="edge11_Node000002_Node000012" class="edge">
<title>Node2&#45;&gt;Node12</title>
<g id="a_edge11_Node000002_Node000012"><a xlink:title=" ">
<path fill="none" stroke="#63b8ff" d="M260.34,-130.94C280.88,-123.54 310.18,-113.14 336,-104.5 342.19,-102.43 348.75,-100.29 355.18,-98.23"/>
<polygon fill="#63b8ff" stroke="#63b8ff" points="356.64,-101.44 365.11,-95.07 354.51,-94.77 356.64,-101.44"/>
</a>
</g>
</g>
<!-- Node13 -->
<g id="Node000013" class="node">
<title>Node13</title>
<g id="a_Node000013"><a xlink:href="../../da/dfb/is__prime__ulong_8c.html#a5615a788b13e0ecb185191eac7731f64" target="_top" xlink:title=" ">
<polygon fill="white" stroke="#666666" points="574.5,-67 505.5,-67 505.5,-48 574.5,-48 574.5,-67"/>
<text text-anchor="middle" x="540" y="-55" font-family="Helvetica,sans-Serif" font-size="10.00">to_mont63</text>
</a>
</g>
</g>
<!-- Node2&#45;&gt;Node13 -->
<g id="edge13_Node000002_Node000013" class="edge">
<title>Node2&#45;&gt;Node13</title>
<g id="a_edge13_Node000002_Node000013"><a xlink:title=" ">
<path fill="none" stroke="#63b8ff" d="M243.28,-130.75C259.97,-113.97 296.96,-80.13 336,-66.5 388.35,-48.22 452.94,-48.99 495.01,-52.32"/>
<polygon fill="#63b8ff" stroke="#63b8ff" points="494.93,-55.82 505.2,-53.21 495.54,-48.85 494.93,-55.82"/>
</a>
</g>
</g>
<!-- Node14 -->
<g id="Node000014" class="node">
<title>Node14</title>
<g id="a_Node000014"><a xlink:href="../../da/dfb/is__prime__ulong_8c.html#ad8b05069196143e0bf6fbb77d011695d" target="_top" xlink:title=" ">
<polygon fill="white" stroke="#666666" points="574.5,-216 505.5,-216 505.5,-197 574.5,-197 574.5,-216"/>
<text text-anchor="middle" x="540" y="-204" font-family="Helvetica,sans-Serif" font-size="10.00">to_mont64</text>
</a>
</g>
</g>
<!-- Node2&#45;&gt;Node14 -->
<g id="edge15_Node000002_Node000014" class="edge">
<title>Node2&#45;&gt;Node14</title>
<g id="a_edge15_Node000002_Node000014"><a xlink:title=" ">
<path fill="none" stroke="#63b8ff" d="M255.45,-150.07C275.79,-158.76 307.41,-171.3 336,-178.5 389.91,-192.08 453.64,-199.52 495.11,-203.25"/>
<polygon fill="#63b8ff" stroke="#63b8ff" points="494.9,-206.74 505.16,-204.12 495.5,-199.77 494.9,-206.74"/>
</a>
</g>
</g>
<!-- Node5 -->
<g id="Node000005" class="node">
<title>Node5</title>
<g id="a_Node000005"><a xlink:href="../../da/dfb/is__prime__ulong_8c.html#a76bf7544867c3184a913d84e73eee2ea" target="_top" xlink:title=" ">
<polygon fill="white" stroke="#666666" points="579,-151 501,-151 501,-132 579,-132 579,-151"/>
<text text-anchor="middle" x="540" y="-139" font-family="Helvetica,sans-Serif" font-size="10.00">mont63_mul</text>
</a>
</g>
</g>
<!-- Node4&#45;&gt;Node5 -->
<g id="edge4_Node000004_Node000005" class="edge">
<title>Node4&#45;&gt;Node5</title>
<g id="a_edge4_Node000004_Node000005"><a xlink:title=" ">
<path fill="none" stroke="#63b8ff" d="M443,-153.76C458.06,-151.83 474.92,-149.68 490.25,-147.72"/>
<polygon fill="#63b8ff" stroke="#63b8ff" points="491.11,-151.14 500.58,-146.4 490.22,-144.2 491.11,-151.14"/>
</a>
</g>
</g>
<!-- Node6 -->
<g id="Node000006" class="node">
<title>Node6</title>
<g id="a_Node000006"><a xlink:href="../../da/dfb/is__prime__ulong_8c.html#a09b589a54109a5a9dced4befcf7e9115" target="_top" xlink:title=" ">
<polygon fill="white" stroke="#666666" points="714,-105 622,-105 622,-86 714,-86 714,-105"/>
<text text-anchor="middle" x="668" y="-93" font-family="Helvetica,sans-Serif" font-size="10.00">mont63_reduce</text>
</a>
</g>
</g>
<!-- Node5&#45;&gt;Node6 -->
<g id="edge5_Node000005_Node000006" class="edge">
<title>Node5&#45;&gt;Node6</title>
<g id="a_edge5_Node000005_Node000006"><a xlink:title=" ">
<path fill="none" stroke="#63b8ff" d="M567.11,-131.97C585.69,-125.18 610.89,-115.99 631.33,-108.52"/>
<polygon fill="#63b8ff" stroke="#63b8ff" points="632.73,-111.74 640.93,-105.02 630.33,-105.16 632.73,-111.74"/>
</a>
</g>
</g>
<!-- Node8 -->
<g id="Node000008" class="node">
<title>Node8</title>
<g id="a_Node000008"><a xlink:href="../../da/dfb/is__prime__ulong_8c.html#a8f3d20c000cfd992da354801dfb78ca4" target="_top" xlink:title=" ">
<polygon fill="white" stroke="#666666" points="579,-272 501,-272 501,-253 579,-253 579,-272"/>
<text text-anchor="middle" x="540" y="-260" font-family="Helvetica,sans-Serif" font-size="10.00">mont64_mul</text>
</a>
</g>
</g>
<!-- Node7&#45;&gt;Node8 -->
<g id="edge7_Node000007_Node000008" class="edge">
<title>Node7&#45;&gt;Node8</title>
<g id="a_edge7_Node000007_Node000008"><a xlink:title=" ">
<path fill="none" stroke="#63b8ff" d="M443,-269.31C458.06,-268.24 474.92,-267.04 490.25,-265.96"/>
<polygon fill="#63b8ff" stroke="#63b8ff" points="490.86,-269.42 500.58,-265.22 490.36,-262.44 490.86,-269.42"/>
</a>
</g>
</g>
<!-- Node9 -->
<g id="Node000009" class="node">
<title>Node9</title>
<g id="a_Node000009"><a xlink:href="../../da/dfb/is__prime__ulong_8c.html#a957ff205940c424623cd07a24b498ab1" target="_top" xlink:title=" ">
<polygon fill="white" stroke="#666666" points="714,-244 622,-244 622,-225 714,-225 714,-244"/>
<text text-anchor="middle" x="668" y="-232" font-family="Helvetica,sans-Serif" font-size="10.00">mont64_reduce</text>
</a>
</g>
</g>
<!-- Node8&#45;&gt;Node9 -->
<g id="edge8_Node000008_Node000009" class="edge">
<title>Node8&#45;&gt;Node9</title>
<g id="a_edge8_Node000008_Node000009"><a xlink:title=" ">
<path fill="none" stroke="#63b8ff" d="M579.15,-254.02C590.24,-251.56 602.55,-248.82 614.37,-246.2"/>
<polygon fill="#63b8ff" stroke="#63b8ff" points="615.13,-249.61 624.14,-244.03 613.61,-242.78 615.13,-249.61"/>
</a>
</g>
</g>
<!-- Node11 -->
<g id="Node000011" class="node">
<title>Node11</title>
<g id="a_Node000011"><a xlink:href="../../d6/d39/lmmpn_8h.html#a0e18de45dc66b950aa2d4e01a8ff94d0" target="_top" xlink:title="单精度数除法（除数为1个limb）">
<polygon fill="white" stroke="#666666" points="586,-104 494,-104 494,-85 586,-85 586,-104"/>
<text text-anchor="middle" x="540" y="-92" font-family="Helvetica,sans-Serif" font-size="10.00">lmmp_div_1_s_</text>
</a>
</g>
</g>
<!-- Node10&#45;&gt;Node11 -->
<g id="edge10_Node000010_Node000011" class="edge">
<title>Node10&#45;&gt;Node11</title>
<g id="a_edge10_Node000010_Node000011"><a xlink:title=" ">
<path fill="none" stroke="#63b8ff" d="M433.22,-115.51C448.56,-112.46 466.9,-108.82 483.98,-105.43"/>
<polygon fill="#63b8ff" stroke="#63b8ff" points="484.72,-108.85 493.85,-103.47 483.36,-101.98 484.72,-108.85"/>
</a>
</g>
</g>
<!-- Node12&#45;&gt;Node11 -->
<g id="edge12_Node000012_Node000011" class="edge">
<title>Node12&#45;&gt;Node11</title>
<g id="a_edge12_Node000012_Node000011"><a xlink:title=" ">
<path fill="none" stroke="#63b8ff" d="M433.22,-87.75C448.42,-88.72 466.56,-89.88 483.5,-90.96"/>
<polygon fill="#63b8ff" stroke="#63b8ff" points="483.65,-94.47 493.85,-91.62 484.09,-87.49 483.65,-94.47"/>
</a>
</g>
</g>
<!-- Node13&#45;&gt;Node6 -->
<g id="edge14_Node000013_Node000006" class="edge">
<title>Node13&#45;&gt;Node6</title>
<g id="a_edge14_Node000013_Node000006"><a xlink:title=" ">
<path fill="none" stroke="#63b8ff" d="M572.8,-67.09C588.76,-71.9 608.31,-77.8 625.45,-82.97"/>
<polygon fill="#63b8ff" stroke="#63b8ff" points="624.63,-86.38 635.22,-85.91 626.65,-79.68 624.63,-86.38"/>
</a>
</g>
</g>
<!-- Node14&#45;&gt;Node9 -->
<g id="edge16_Node000014_Node000009" class="edge">
<title>Node14&#45;&gt;Node9</title>
<g id="a_edge16_Node000014_Node000009"><a xlink:title=" ">
<path fill="none" stroke="#63b8ff" d="M574.77,-214C586.85,-216.69 600.77,-219.78 614.08,-222.74"/>
<polygon fill="#63b8ff" stroke="#63b8ff" points="613.58,-226.21 624.1,-224.97 615.1,-219.38 613.58,-226.21"/>
</a>
</g>
</g>
<!-- Node16 -->
<g id="Node000016" class="node">
<title>Node16</title>
<g id="a_Node000016"><a xlink:href="../../d2/d9c/prime__table_8c.html#af5e76d78983e57b2468d365a69354c73" target="_top" xlink:title="计算小于等于 n 的素数数量">
<polygon fill="white" stroke="#666666" points="455,-19 339,-19 339,0 455,0 455,-19"/>
<text text-anchor="middle" x="397" y="-7" font-family="Helvetica,sans-Serif" font-size="10.00">lmmp_prime_cnt16_</text>
</a>
</g>
</g>
<!-- Node15&#45;&gt;Node16 -->
<g id="edge18_Node000015_Node000016" class="edge">
<title>Node15&#45;&gt;Node16</title>
<g id="a_edge18_Node000015_Node000016"><a xlink:title=" ">
<path fill="none" stroke="#63b8ff" d="M274.88,-37.91C296.35,-32.87 322.86,-26.66 345.6,-21.32"/>
<polygon fill="#63b8ff" stroke="#63b8ff" points="346.48,-24.71 355.41,-19.02 344.88,-17.9 346.48,-24.71"/>
</a>
</g>
</g>
</g>
</svg>

<g id="navigator" transform="translate(0 0)" fill="#404254">
  <rect fill="#f2f5e9" fill-opacity="0.5" stroke="#606060" stroke-width=".5" x="0" y="0" width="60" height="60"/>
  <use id="zoomplus" xlink:href="#zoomPlus" x="17" y="9" onmousedown="handleZoom(evt,'in')"/>
  <use id="zoomminus" xlink:href="#zoomMin" x="42" y="9" onmousedown="handleZoom(evt,'out')"/>
  <use id="reset" xlink:href="#resetDef" x="30" y="36" onmousedown="handleReset()"/>
   <use id="arrowup" xlink:href="#arrowUp" x="0" y="0" onmousedown="handlePan(0,-1)"/>
  <use id="arrowright" xlink:href="#arrowRight" x="0" y="0" onmousedown="handlePan(1,0)"/>
  <use id="arrowdown" xlink:href="#arrowDown" x="0" y="0" onmousedown="handlePan(0,1)"/>
  <use id="arrowleft" xlink:href="#arrowLeft" x="0" y="0" onmousedown="handlePan(-1,0)"/>
</g>
<svg viewBox="0 0 15 15" width="100%" height="30px" preserveAspectRatio="xMaxYMin meet">
 <g id="arrow_out" transform="scale(0.3 0.3)">
  <a xlink:href="is__prime__ulong_8c_aafc215215e7c96c0ee428e7ce962ae87_cgraph_org.svg" target="_base">
   <rect id="button" ry="5" rx="5" y="6" x="6" height="38" width="38"
        fill="#f2f5e9" fill-opacity="0.5" stroke="#606060" stroke-width="1.0"/>
   <path id="arrow"
     d="M 11.500037,31.436501 C 11.940474,20.09759 22.043105,11.32322 32.158766,21.979434 L 37.068811,17.246167 C 37.068811,17.246167 37.088388,32 37.088388,32 L 22.160133,31.978069 C 22.160133,31.978069 26.997745,27.140456 26.997745,27.140456 C 18.528582,18.264221 13.291696,25.230495 11.500037,31.436501 z"
     style="fill:#404040;"/>
  </a>
 </g>
</svg>

<style type='text/css'>
<![CDATA[
[data-mouse-over-selected='false'] { opacity: 0.7; }
[data-mouse-over-selected='true']  { opacity: 1.0; }
]]>
</style>
<script type="application/ecmascript"><![CDATA[
document.addEventListener('DOMContentLoaded', (event) => {
  highlightEdges();
  highlightAdjacentNodes();
});
]]></script>
</svg>
