<?xml version="1.0" encoding="UTF-8" standalone="no"?>
<!DOCTYPE svg PUBLIC "-//W3C//DTD SVG 1.1//EN"
 "http://www.w3.org/Graphics/SVG/1.1/DTD/svg11.dtd">
<!-- Generated by graphviz version 2.43.0 (0)
 -->
<!-- Title: mont64_reduce Pages: 1 -->
<svg width="734pt" height="102pt"
 viewBox="0.00 0.00 734.00 102.00" xmlns="http://www.w3.org/2000/svg" xmlns:xlink="http://www.w3.org/1999/xlink">
<g id="graph0" class="graph" transform="scale(1 1) rotate(0) translate(4 98)">
<title>mont64_reduce</title>
<!-- Node1 -->
<g id="Node000001" class="node">
<title>Node1</title>
<g id="a_Node000001"><a xlink:title=" ">
<polygon fill="#999999" stroke="#666666" points="726,-57 634,-57 634,-38 726,-38 726,-57"/>
<text text-anchor="middle" x="680" y="-45" font-family="Helvetica,sans-Serif" font-size="10.00">mont64_reduce</text>
</a>
</g>
</g>
<!-- Node2 -->
<g id="Node000002" class="node">
<title>Node2</title>
<g id="a_Node000002"><a xlink:href="../../da/dfb/is__prime__ulong_8c.html#a6c6f3a3638969740e3fe0ef641de863b" target="_top" xlink:title=" ">
<polygon fill="white" stroke="#666666" points="598,-57 515,-57 515,-38 598,-38 598,-57"/>
<text text-anchor="middle" x="556.5" y="-45" font-family="Helvetica,sans-Serif" font-size="10.00">from_mont64</text>
</a>
</g>
</g>
<!-- Node1&#45;&gt;Node2 -->
<g id="edge1_Node000001_Node000002" class="edge">
<title>Node1&#45;&gt;Node2</title>
<g id="a_edge1_Node000001_Node000002"><a xlink:title=" ">
<path fill="none" stroke="#63b8ff" d="M623.54,-47.5C615.06,-47.5 606.45,-47.5 598.37,-47.5"/>
<polygon fill="#63b8ff" stroke="#63b8ff" points="623.76,-51 633.76,-47.5 623.76,-44 623.76,-51"/>
</a>
</g>
</g>
<!-- Node4 -->
<g id="Node000004" class="node">
<title>Node4</title>
<g id="a_Node000004"><a xlink:href="../../da/dfb/is__prime__ulong_8c.html#a8f3d20c000cfd992da354801dfb78ca4" target="_top" xlink:title=" ">
<polygon fill="white" stroke="#666666" points="595.5,-94 517.5,-94 517.5,-75 595.5,-75 595.5,-94"/>
<text text-anchor="middle" x="556.5" y="-82" font-family="Helvetica,sans-Serif" font-size="10.00">mont64_mul</text>
</a>
</g>
</g>
<!-- Node1&#45;&gt;Node4 -->
<g id="edge3_Node000001_Node000004" class="edge">
<title>Node1&#45;&gt;Node4</title>
<g id="a_edge3_Node000001_Node000004"><a xlink:title=" ">
<path fill="none" stroke="#63b8ff" d="M638.07,-59.96C622.09,-64.83 604.06,-70.32 589.11,-74.88"/>
<polygon fill="#63b8ff" stroke="#63b8ff" points="639.16,-63.29 647.71,-57.03 637.12,-56.59 639.16,-63.29"/>
</a>
</g>
</g>
<!-- Node10 -->
<g id="Node000010" class="node">
<title>Node10</title>
<g id="a_Node000010"><a xlink:href="../../da/dfb/is__prime__ulong_8c.html#ad8b05069196143e0bf6fbb77d011695d" target="_top" xlink:title=" ">
<polygon fill="white" stroke="#666666" points="591,-20 522,-20 522,-1 591,-1 591,-20"/>
<text text-anchor="middle" x="556.5" y="-8" font-family="Helvetica,sans-Serif" font-size="10.00">to_mont64</text>
</a>
</g>
</g>
<!-- Node1&#45;&gt;Node10 -->
<g id="edge10_Node000001_Node000010" class="edge">
<title>Node1&#45;&gt;Node10</title>
<g id="a_edge10_Node000001_Node000010"><a xlink:title=" ">
<path fill="none" stroke="#63b8ff" d="M638.07,-35.04C622.09,-30.17 604.06,-24.68 589.11,-20.12"/>
<polygon fill="#63b8ff" stroke="#63b8ff" points="637.12,-38.41 647.71,-37.97 639.16,-31.71 637.12,-38.41"/>
</a>
</g>
</g>
<!-- Node3 -->
<g id="Node000003" class="node">
<title>Node3</title>
<g id="a_Node000003"><a xlink:href="../../da/dfb/is__prime__ulong_8c.html#a8c65765939c5ad563330e5b5ec64db36" target="_top" xlink:title="计算 base^exp 对 mod 取模">
<polygon fill="white" stroke="#666666" points="479,-57 349,-57 349,-38 479,-38 479,-57"/>
<text text-anchor="middle" x="414" y="-45" font-family="Helvetica,sans-Serif" font-size="10.00">lmmp_powmod_ulong_</text>
</a>
</g>
</g>
<!-- Node2&#45;&gt;Node3 -->
<g id="edge2_Node000002_Node000003" class="edge">
<title>Node2&#45;&gt;Node3</title>
<g id="a_edge2_Node000002_Node000003"><a xlink:title=" ">
<path fill="none" stroke="#63b8ff" d="M504.62,-47.5C496.33,-47.5 487.66,-47.5 479.11,-47.5"/>
<polygon fill="#63b8ff" stroke="#63b8ff" points="504.86,-51 514.86,-47.5 504.86,-44 504.86,-51"/>
</a>
</g>
</g>
<!-- Node4&#45;&gt;Node3 -->
<g id="edge4_Node000004_Node000003" class="edge">
<title>Node4&#45;&gt;Node3</title>
<g id="a_edge4_Node000004_Node000003"><a xlink:title=" ">
<path fill="none" stroke="#63b8ff" d="M509.48,-72.38C490.68,-67.43 469.24,-61.78 451.55,-57.12"/>
<polygon fill="#63b8ff" stroke="#63b8ff" points="508.76,-75.81 519.32,-74.97 510.54,-69.04 508.76,-75.81"/>
</a>
</g>
</g>
<!-- Node5 -->
<g id="Node000005" class="node">
<title>Node5</title>
<g id="a_Node000005"><a xlink:href="../../da/dfb/is__prime__ulong_8c.html#a87d0ea14b09217834f90a3ac9d08f7b7" target="_top" xlink:title=" ">
<polygon fill="white" stroke="#666666" points="460,-94 368,-94 368,-75 460,-75 460,-94"/>
<text text-anchor="middle" x="414" y="-82" font-family="Helvetica,sans-Serif" font-size="10.00">miller_rabin_64</text>
</a>
</g>
</g>
<!-- Node4&#45;&gt;Node5 -->
<g id="edge5_Node000004_Node000005" class="edge">
<title>Node4&#45;&gt;Node5</title>
<g id="a_edge5_Node000004_Node000005"><a xlink:title=" ">
<path fill="none" stroke="#63b8ff" d="M507.19,-84.5C491.9,-84.5 475.08,-84.5 460.04,-84.5"/>
<polygon fill="#63b8ff" stroke="#63b8ff" points="507.48,-88 517.48,-84.5 507.48,-81 507.48,-88"/>
</a>
</g>
</g>
<!-- Node6 -->
<g id="Node000006" class="node">
<title>Node6</title>
<g id="a_Node000006"><a xlink:href="../../da/dfb/is__prime__ulong_8c.html#a5b8958560dd61c64a0061b614b571a84" target="_top" xlink:title="判断素数（无试除法）">
<polygon fill="white" stroke="#666666" points="313,-56 179,-56 179,-37 313,-37 313,-56"/>
<text text-anchor="middle" x="246" y="-44" font-family="Helvetica,sans-Serif" font-size="10.00">lmmp_is_prime_notrial_</text>
</a>
</g>
</g>
<!-- Node5&#45;&gt;Node6 -->
<g id="edge6_Node000005_Node000006" class="edge">
<title>Node5&#45;&gt;Node6</title>
<g id="a_edge6_Node000005_Node000006"><a xlink:title=" ">
<path fill="none" stroke="#63b8ff" d="M361.35,-72.68C337.94,-67.32 310.64,-61.07 288.59,-56.02"/>
<polygon fill="#63b8ff" stroke="#63b8ff" points="360.58,-76.09 371.11,-74.91 362.14,-69.27 360.58,-76.09"/>
</a>
</g>
</g>
<!-- Node7 -->
<g id="Node000007" class="node">
<title>Node7</title>
<g id="a_Node000007"><a xlink:href="../../da/dfb/is__prime__ulong_8c.html#aafc215215e7c96c0ee428e7ce962ae87" target="_top" xlink:title="判断素数">
<polygon fill="white" stroke="#666666" points="136.5,-93 6.5,-93 6.5,-74 136.5,-74 136.5,-93"/>
<text text-anchor="middle" x="71.5" y="-81" font-family="Helvetica,sans-Serif" font-size="10.00">lmmp_is_prime_ulong_</text>
</a>
</g>
</g>
<!-- Node6&#45;&gt;Node7 -->
<g id="edge7_Node000006_Node000007" class="edge">
<title>Node6&#45;&gt;Node7</title>
<g id="a_edge7_Node000006_Node000007"><a xlink:title=" ">
<path fill="none" stroke="#63b8ff" d="M190.68,-58.15C166.98,-63.23 139.54,-69.12 117.07,-73.94"/>
<polygon fill="#63b8ff" stroke="#63b8ff" points="191.53,-61.55 200.58,-56.03 190.07,-54.7 191.53,-61.55"/>
</a>
</g>
</g>
<!-- Node8 -->
<g id="Node000008" class="node">
<title>Node8</title>
<g id="a_Node000008"><a xlink:href="../../da/dfb/is__prime__ulong_8c.html#aed3f451d80cd78fbb938c820c2784316" target="_top" xlink:title="大于n的下一个素数">
<polygon fill="white" stroke="#666666" points="143,-56 0,-56 0,-37 143,-37 143,-56"/>
<text text-anchor="middle" x="71.5" y="-44" font-family="Helvetica,sans-Serif" font-size="10.00">lmmp_next_prime_ulong_</text>
</a>
</g>
</g>
<!-- Node6&#45;&gt;Node8 -->
<g id="edge8_Node000006_Node000008" class="edge">
<title>Node6&#45;&gt;Node8</title>
<g id="a_edge8_Node000006_Node000008"><a xlink:title=" ">
<path fill="none" stroke="#63b8ff" d="M168.56,-46.5C160.09,-46.5 151.5,-46.5 143.11,-46.5"/>
<polygon fill="#63b8ff" stroke="#63b8ff" points="168.8,-50 178.8,-46.5 168.8,-43 168.8,-50"/>
</a>
</g>
</g>
<!-- Node9 -->
<g id="Node000009" class="node">
<title>Node9</title>
<g id="a_Node000009"><a xlink:href="../../da/dfb/is__prime__ulong_8c.html#a16767c399d3f5b8d0111792d8104c963" target="_top" xlink:title="小于等于n的上一个素数">
<polygon fill="white" stroke="#666666" points="143,-19 0,-19 0,0 143,0 143,-19"/>
<text text-anchor="middle" x="71.5" y="-7" font-family="Helvetica,sans-Serif" font-size="10.00">lmmp_prev_prime_ulong_</text>
</a>
</g>
</g>
<!-- Node6&#45;&gt;Node9 -->
<g id="edge9_Node000006_Node000009" class="edge">
<title>Node6&#45;&gt;Node9</title>
<g id="a_edge9_Node000006_Node000009"><a xlink:title=" ">
<path fill="none" stroke="#63b8ff" d="M190.68,-34.85C166.98,-29.77 139.54,-23.88 117.07,-19.06"/>
<polygon fill="#63b8ff" stroke="#63b8ff" points="190.07,-38.3 200.58,-36.97 191.53,-31.45 190.07,-38.3"/>
</a>
</g>
</g>
<!-- Node10&#45;&gt;Node3 -->
<g id="edge12_Node000010_Node000003" class="edge">
<title>Node10&#45;&gt;Node3</title>
<g id="a_edge12_Node000010_Node000003"><a xlink:title=" ">
<path fill="none" stroke="#63b8ff" d="M512,-21.95C492.54,-27.08 469.87,-33.05 451.33,-37.93"/>
<polygon fill="#63b8ff" stroke="#63b8ff" points="513.07,-25.29 521.85,-19.36 511.29,-18.52 513.07,-25.29"/>
</a>
</g>
</g>
<!-- Node10&#45;&gt;Node6 -->
<g id="edge11_Node000010_Node000006" class="edge">
<title>Node10&#45;&gt;Node6</title>
<g id="a_edge11_Node000010_Node000006"><a xlink:title=" ">
<path fill="none" stroke="#63b8ff" d="M511.65,-13.2C469.76,-16.05 404.92,-21.14 349,-28.5 331.62,-30.79 312.68,-33.94 295.89,-36.97"/>
<polygon fill="#63b8ff" stroke="#63b8ff" points="512.03,-16.68 521.78,-12.53 511.57,-9.7 512.03,-16.68"/>
</a>
</g>
</g>
</g>
</svg>
