<?xml version="1.0" encoding="UTF-8" standalone="no"?>
<!DOCTYPE svg PUBLIC "-//W3C//DTD SVG 1.1//EN"
 "http://www.w3.org/Graphics/SVG/1.1/DTD/svg11.dtd">
<!-- Generated by graphviz version 2.43.0 (0)
 -->
<!-- Title: miller_rabin_63 Pages: 1 -->
<svg width="342pt" height="27pt"
 viewBox="0.00 0.00 342.00 27.00" xmlns="http://www.w3.org/2000/svg" xmlns:xlink="http://www.w3.org/1999/xlink">
<g id="graph0" class="graph" transform="scale(1 1) rotate(0) translate(4 23)">
<title>miller_rabin_63</title>
<!-- Node1 -->
<g id="Node000001" class="node">
<title>Node1</title>
<g id="a_Node000001"><a xlink:title=" ">
<polygon fill="#999999" stroke="#666666" points="92,-19 0,-19 0,0 92,0 92,-19"/>
<text text-anchor="middle" x="46" y="-7" font-family="Helvetica,sans-Serif" font-size="10.00">miller_rabin_63</text>
</a>
</g>
</g>
<!-- Node2 -->
<g id="Node000002" class="node">
<title>Node2</title>
<g id="a_Node000002"><a xlink:href="../../da/dfb/is__prime__ulong_8c.html#a76bf7544867c3184a913d84e73eee2ea" target="_top" xlink:title=" ">
<polygon fill="white" stroke="#666666" points="206,-19 128,-19 128,0 206,0 206,-19"/>
<text text-anchor="middle" x="167" y="-7" font-family="Helvetica,sans-Serif" font-size="10.00">mont63_mul</text>
</a>
</g>
</g>
<!-- Node1&#45;&gt;Node2 -->
<g id="edge1_Node000001_Node000002" class="edge">
<title>Node1&#45;&gt;Node2</title>
<g id="a_edge1_Node000001_Node000002"><a xlink:title=" ">
<path fill="none" stroke="#63b8ff" d="M92.33,-9.5C100.64,-9.5 109.34,-9.5 117.74,-9.5"/>
<polygon fill="#63b8ff" stroke="#63b8ff" points="117.78,-13 127.78,-9.5 117.78,-6 117.78,-13"/>
</a>
</g>
</g>
<!-- Node3 -->
<g id="Node000003" class="node">
<title>Node3</title>
<g id="a_Node000003"><a xlink:href="../../da/dfb/is__prime__ulong_8c.html#a09b589a54109a5a9dced4befcf7e9115" target="_top" xlink:title=" ">
<polygon fill="white" stroke="#666666" points="334,-19 242,-19 242,0 334,0 334,-19"/>
<text text-anchor="middle" x="288" y="-7" font-family="Helvetica,sans-Serif" font-size="10.00">mont63_reduce</text>
</a>
</g>
</g>
<!-- Node2&#45;&gt;Node3 -->
<g id="edge2_Node000002_Node000003" class="edge">
<title>Node2&#45;&gt;Node3</title>
<g id="a_edge2_Node000002_Node000003"><a xlink:title=" ">
<path fill="none" stroke="#63b8ff" d="M206.31,-9.5C214.33,-9.5 222.94,-9.5 231.44,-9.5"/>
<polygon fill="#63b8ff" stroke="#63b8ff" points="231.71,-13 241.71,-9.5 231.71,-6 231.71,-13"/>
</a>
</g>
</g>
</g>
</svg>
