<?xml version="1.0" encoding="UTF-8" standalone="no"?>
<!DOCTYPE svg PUBLIC "-//W3C//DTD SVG 1.1//EN"
 "http://www.w3.org/Graphics/SVG/1.1/DTD/svg11.dtd">
<!-- Generated by graphviz version 2.43.0 (0)
 -->
<!-- Title: include/solve_polynomial.hpp Pages: 1 -->
<svg width="1600pt" height="357pt"
 viewBox="0.00 0.00 1599.50 357.00" xmlns="http://www.w3.org/2000/svg" xmlns:xlink="http://www.w3.org/1999/xlink">
<g id="graph0" class="graph" transform="scale(1 1) rotate(0) translate(4 353)">
<title>include/solve_polynomial.hpp</title>
<!-- Node1 -->
<g id="Node000001" class="node">
<title>Node1</title>
<g id="a_Node000001"><a xlink:title="多项式方程闭式求解：三次、四次公式，有理根检验，无平方因子分解。">
<polygon fill="#999999" stroke="#666666" points="1208,-349 1046,-349 1046,-330 1208,-330 1208,-349"/>
<text text-anchor="middle" x="1127" y="-337" font-family="Helvetica,sans-Serif" font-size="10.00">include/solve_polynomial.hpp</text>
</a>
</g>
</g>
<!-- Node2 -->
<g id="Node000002" class="node">
<title>Node2</title>
<g id="a_Node000002"><a xlink:href="../../d5/df2/symbolic_8hpp.html" target="_top" xlink:title="符号表达式主类 SymbolicExpr 及其工厂方法、运算接口。">
<polygon fill="white" stroke="#666666" points="396,-239 314,-239 314,-220 396,-220 396,-239"/>
<text text-anchor="middle" x="355" y="-227" font-family="Helvetica,sans-Serif" font-size="10.00">symbolic.hpp</text>
</a>
</g>
</g>
<!-- Node1&#45;&gt;Node2 -->
<g id="edge1_Node000001_Node000002" class="edge">
<title>Node1&#45;&gt;Node2</title>
<g id="a_edge1_Node000001_Node000002"><a xlink:title=" ">
<path fill="none" stroke="#63b8ff" d="M1045.71,-335.65C942.77,-331.1 760.21,-319.92 606,-294 529.03,-281.06 440.99,-256.46 392.31,-241.97"/>
<polygon fill="#63b8ff" stroke="#63b8ff" points="393.13,-238.56 382.54,-239.04 391.12,-245.26 393.13,-238.56"/>
</a>
</g>
</g>
<!-- Node8 -->
<g id="Node000008" class="node">
<title>Node8</title>
<g id="a_Node000008"><a xlink:title=" ">
<polygon fill="#e0e0e0" stroke="#999999" points="1370.5,-19 1323.5,-19 1323.5,0 1370.5,0 1370.5,-19"/>
<text text-anchor="middle" x="1347" y="-7" font-family="Helvetica,sans-Serif" font-size="10.00">vector</text>
</a>
</g>
</g>
<!-- Node1&#45;&gt;Node8 -->
<g id="edge67_Node000001_Node000008" class="edge">
<title>Node1&#45;&gt;Node8</title>
<g id="a_edge67_Node000001_Node000008"><a xlink:title=" ">
<path fill="none" stroke="#63b8ff" d="M1208.02,-332.53C1322.54,-321.83 1518,-294.23 1518,-230.5 1518,-230.5 1518,-230.5 1518,-118.5 1518,-54.25 1430.63,-26.67 1380.8,-16.17"/>
<polygon fill="#63b8ff" stroke="#63b8ff" points="1381.27,-12.69 1370.78,-14.18 1379.9,-19.56 1381.27,-12.69"/>
</a>
</g>
</g>
<!-- Node11 -->
<g id="Node000011" class="node">
<title>Node11</title>
<g id="a_Node000011"><a xlink:title=" ">
<polygon fill="#e0e0e0" stroke="#999999" points="122,-19 78,-19 78,0 122,0 122,-19"/>
<text text-anchor="middle" x="100" y="-7" font-family="Helvetica,sans-Serif" font-size="10.00">string</text>
</a>
</g>
</g>
<!-- Node1&#45;&gt;Node11 -->
<g id="edge70_Node000001_Node000011" class="edge">
<title>Node1&#45;&gt;Node11</title>
<g id="a_edge70_Node000001_Node000011"><a xlink:title=" ">
<path fill="none" stroke="#63b8ff" d="M1045.95,-339.22C787.54,-340.47 0,-335.66 0,-230.5 0,-230.5 0,-230.5 0,-118.5 0,-75.15 43.91,-41.83 73.54,-24.28"/>
<polygon fill="#63b8ff" stroke="#63b8ff" points="75.61,-27.13 82.58,-19.14 72.16,-21.04 75.61,-27.13"/>
</a>
</g>
</g>
<!-- Node18 -->
<g id="Node000018" class="node">
<title>Node18</title>
<g id="a_Node000018"><a xlink:href="../../d1/de8/rational_8hpp.html" target="_top" xlink:title="精确有理数 Rational，基于 BigInt 分子/分母表示，自动约分。">
<polygon fill="white" stroke="#666666" points="439.5,-129 364.5,-129 364.5,-110 439.5,-110 439.5,-129"/>
<text text-anchor="middle" x="402" y="-117" font-family="Helvetica,sans-Serif" font-size="10.00">rational.hpp</text>
</a>
</g>
</g>
<!-- Node1&#45;&gt;Node18 -->
<g id="edge66_Node000001_Node000018" class="edge">
<title>Node1&#45;&gt;Node18</title>
<g id="a_edge66_Node000001_Node000018"><a xlink:title=" ">
<path fill="none" stroke="#63b8ff" d="M1060.24,-329.99C1009.03,-322.68 936.88,-310.67 875,-294 702.38,-247.49 503.9,-164.65 430.88,-133.14"/>
<polygon fill="#63b8ff" stroke="#63b8ff" points="431.99,-129.81 421.42,-129.05 429.21,-136.23 431.99,-129.81"/>
</a>
</g>
</g>
<!-- Node24 -->
<g id="Node000024" class="node">
<title>Node24</title>
<g id="a_Node000024"><a xlink:title=" ">
<polygon fill="#e0e0e0" stroke="#999999" points="1188,-129 1130,-129 1130,-110 1188,-110 1188,-129"/>
<text text-anchor="middle" x="1159" y="-117" font-family="Helvetica,sans-Serif" font-size="10.00">memory</text>
</a>
</g>
</g>
<!-- Node1&#45;&gt;Node24 -->
<g id="edge69_Node000001_Node000024" class="edge">
<title>Node1&#45;&gt;Node24</title>
<g id="a_edge69_Node000001_Node000024"><a xlink:title=" ">
<path fill="none" stroke="#63b8ff" d="M1128.25,-329.95C1132.95,-297.95 1149.58,-184.68 1156.23,-139.4"/>
<polygon fill="#63b8ff" stroke="#63b8ff" points="1159.73,-139.63 1157.72,-129.22 1152.8,-138.61 1159.73,-139.63"/>
</a>
</g>
</g>
<!-- Node32 -->
<g id="Node000032" class="node">
<title>Node32</title>
<g id="a_Node000032"><a xlink:href="../../d0/d3e/polynomial_8hpp.html" target="_top" xlink:title="一元多项式模板类 Polynomial&lt;T&gt;，支持四则运算、GCD、求导、求值。">
<polygon fill="white" stroke="#666666" points="1319,-184 1227,-184 1227,-165 1319,-165 1319,-184"/>
<text text-anchor="middle" x="1273" y="-172" font-family="Helvetica,sans-Serif" font-size="10.00">polynomial.hpp</text>
</a>
</g>
</g>
<!-- Node1&#45;&gt;Node32 -->
<g id="edge53_Node000001_Node000032" class="edge">
<title>Node1&#45;&gt;Node32</title>
<g id="a_edge53_Node000001_Node000032"><a xlink:title=" ">
<path fill="none" stroke="#63b8ff" d="M1142.92,-329.87C1156.88,-321.81 1177.21,-308.8 1192,-294 1223.43,-262.55 1250.39,-217.38 1263.85,-192.89"/>
<polygon fill="#63b8ff" stroke="#63b8ff" points="1266.96,-194.5 1268.62,-184.03 1260.8,-191.18 1266.96,-194.5"/>
</a>
</g>
</g>
<!-- Node34 -->
<g id="Node000034" class="node">
<title>Node34</title>
<g id="a_Node000034"><a xlink:href="../../d9/d39/poly__utils_8hpp.html" target="_top" xlink:title="符号表达式与多项式之间的转换工具，以及高斯消元。">
<polygon fill="white" stroke="#666666" points="968.5,-294 883.5,-294 883.5,-275 968.5,-275 968.5,-294"/>
<text text-anchor="middle" x="926" y="-282" font-family="Helvetica,sans-Serif" font-size="10.00">poly_utils.hpp</text>
</a>
</g>
</g>
<!-- Node1&#45;&gt;Node34 -->
<g id="edge62_Node000001_Node000034" class="edge">
<title>Node1&#45;&gt;Node34</title>
<g id="a_edge62_Node000001_Node000034"><a xlink:title=" ">
<path fill="none" stroke="#63b8ff" d="M1094.71,-329.98C1060.38,-320.93 1005.94,-306.58 968.23,-296.64"/>
<polygon fill="#63b8ff" stroke="#63b8ff" points="969.11,-293.25 958.55,-294.08 967.32,-300.02 969.11,-293.25"/>
</a>
</g>
</g>
<!-- Node35 -->
<g id="Node000035" class="node">
<title>Node35</title>
<g id="a_Node000035"><a xlink:title=" ">
<polygon fill="#e0e0e0" stroke="#999999" points="1591.5,-294 1546.5,-294 1546.5,-275 1591.5,-275 1591.5,-294"/>
<text text-anchor="middle" x="1569" y="-282" font-family="Helvetica,sans-Serif" font-size="10.00">utility</text>
</a>
</g>
</g>
<!-- Node1&#45;&gt;Node35 -->
<g id="edge68_Node000001_Node000035" class="edge">
<title>Node1&#45;&gt;Node35</title>
<g id="a_edge68_Node000001_Node000035"><a xlink:title=" ">
<path fill="none" stroke="#63b8ff" d="M1208.07,-332.39C1290.1,-325.54 1420.41,-312.88 1532,-294 1533.46,-293.75 1534.95,-293.48 1536.46,-293.2"/>
<polygon fill="#63b8ff" stroke="#63b8ff" points="1537.31,-296.6 1546.39,-291.13 1535.88,-289.74 1537.31,-296.6"/>
</a>
</g>
</g>
<!-- Node3 -->
<g id="Node000003" class="node">
<title>Node3</title>
<g id="a_Node000003"><a xlink:href="../../d8/d09/bigint_8hpp.html" target="_top" xlink:title="任意精度整数 BigInt，底层调用 LAMMP 实现高性能大数运算。">
<polygon fill="white" stroke="#666666" points="685.5,-74 620.5,-74 620.5,-55 685.5,-55 685.5,-74"/>
<text text-anchor="middle" x="653" y="-62" font-family="Helvetica,sans-Serif" font-size="10.00">bigint.hpp</text>
</a>
</g>
</g>
<!-- Node2&#45;&gt;Node3 -->
<g id="edge2_Node000002_Node000003" class="edge">
<title>Node2&#45;&gt;Node3</title>
<g id="a_edge2_Node000002_Node000003"><a xlink:title=" ">
<path fill="none" stroke="#63b8ff" d="M367.55,-219.98C383.14,-208.26 406.59,-186.19 397,-165 384.43,-137.22 336.1,-133.1 356,-110 388.27,-72.54 535.76,-66.16 610.02,-65.37"/>
<polygon fill="#63b8ff" stroke="#63b8ff" points="610.45,-68.87 620.42,-65.29 610.39,-61.87 610.45,-68.87"/>
</a>
</g>
</g>
<!-- Node9 -->
<g id="Node000009" class="node">
<title>Node9</title>
<g id="a_Node000009"><a xlink:title=" ">
<polygon fill="#e0e0e0" stroke="#999999" points="189.5,-19 140.5,-19 140.5,0 189.5,0 189.5,-19"/>
<text text-anchor="middle" x="165" y="-7" font-family="Helvetica,sans-Serif" font-size="10.00">cstdlib</text>
</a>
</g>
</g>
<!-- Node2&#45;&gt;Node9 -->
<g id="edge52_Node000002_Node000009" class="edge">
<title>Node2&#45;&gt;Node9</title>
<g id="a_edge52_Node000002_Node000009"><a xlink:title=" ">
<path fill="none" stroke="#63b8ff" d="M313.81,-226.84C252.88,-223.43 143.28,-213.29 119,-184 80.28,-137.29 127.06,-61.28 151.69,-27.55"/>
<polygon fill="#63b8ff" stroke="#63b8ff" points="154.74,-29.31 157.96,-19.22 149.15,-25.1 154.74,-29.31"/>
</a>
</g>
</g>
<!-- Node2&#45;&gt;Node11 -->
<g id="edge44_Node000002_Node000011" class="edge">
<title>Node2&#45;&gt;Node11</title>
<g id="a_edge44_Node000002_Node000011"><a xlink:title=" ">
<path fill="none" stroke="#63b8ff" d="M313.96,-227.16C250.23,-224.15 131.99,-214.49 105,-184 66.43,-140.43 83.2,-63.87 93.77,-28.88"/>
<polygon fill="#63b8ff" stroke="#63b8ff" points="97.2,-29.67 96.91,-19.08 90.53,-27.54 97.2,-29.67"/>
</a>
</g>
</g>
<!-- Node12 -->
<g id="Node000012" class="node">
<title>Node12</title>
<g id="a_Node000012"><a xlink:title=" ">
<polygon fill="#e0e0e0" stroke="#999999" points="1006,-19 946,-19 946,0 1006,0 1006,-19"/>
<text text-anchor="middle" x="976" y="-7" font-family="Helvetica,sans-Serif" font-size="10.00">iostream</text>
</a>
</g>
</g>
<!-- Node2&#45;&gt;Node12 -->
<g id="edge51_Node000002_Node000012" class="edge">
<title>Node2&#45;&gt;Node12</title>
<g id="a_edge51_Node000002_Node000012"><a xlink:title=" ">
<path fill="none" stroke="#63b8ff" d="M366.13,-219.67C398.14,-194.45 490.41,-123.11 526,-110 676.47,-54.57 734.62,-129.68 885,-74 913.88,-63.31 942.17,-41.21 959.35,-26.12"/>
<polygon fill="#63b8ff" stroke="#63b8ff" points="961.77,-28.65 966.85,-19.36 957.08,-23.46 961.77,-28.65"/>
</a>
</g>
</g>
<!-- Node13 -->
<g id="Node000013" class="node">
<title>Node13</title>
<g id="a_Node000013"><a xlink:title=" ">
<polygon fill="#e0e0e0" stroke="#999999" points="1172,-19 1108,-19 1108,0 1172,0 1172,-19"/>
<text text-anchor="middle" x="1140" y="-7" font-family="Helvetica,sans-Serif" font-size="10.00">algorithm</text>
</a>
</g>
</g>
<!-- Node2&#45;&gt;Node13 -->
<g id="edge48_Node000002_Node000013" class="edge">
<title>Node2&#45;&gt;Node13</title>
<g id="a_edge48_Node000002_Node000013"><a xlink:title=" ">
<path fill="none" stroke="#63b8ff" d="M396.25,-227.87C479.9,-225.9 675.12,-217.75 835,-184 910.22,-168.12 931.95,-166.61 999,-129 1050.33,-100.2 1100.75,-51.55 1125.02,-26.48"/>
<polygon fill="#63b8ff" stroke="#63b8ff" points="1127.57,-28.88 1131.95,-19.23 1122.51,-24.04 1127.57,-28.88"/>
</a>
</g>
</g>
<!-- Node16 -->
<g id="Node000016" class="node">
<title>Node16</title>
<g id="a_Node000016"><a xlink:title=" ">
<polygon fill="#e0e0e0" stroke="#999999" points="252,-19 208,-19 208,0 252,0 252,-19"/>
<text text-anchor="middle" x="230" y="-7" font-family="Helvetica,sans-Serif" font-size="10.00">limits</text>
</a>
</g>
</g>
<!-- Node2&#45;&gt;Node16 -->
<g id="edge47_Node000002_Node000016" class="edge">
<title>Node2&#45;&gt;Node16</title>
<g id="a_edge47_Node000002_Node000016"><a xlink:title=" ">
<path fill="none" stroke="#63b8ff" d="M313.55,-226.23C255.95,-222.12 156.25,-211.18 134,-184 91.02,-131.5 171.12,-57 210.26,-25.49"/>
<polygon fill="#63b8ff" stroke="#63b8ff" points="212.68,-28.05 218.37,-19.11 208.35,-22.55 212.68,-28.05"/>
</a>
</g>
</g>
<!-- Node2&#45;&gt;Node18 -->
<g id="edge17_Node000002_Node000018" class="edge">
<title>Node2&#45;&gt;Node18</title>
<g id="a_edge17_Node000002_Node000018"><a xlink:title=" ">
<path fill="none" stroke="#63b8ff" d="M342.49,-219.95C326.37,-207.82 301.76,-184.9 314,-165 323.45,-149.64 340.02,-139.39 356.25,-132.64"/>
<polygon fill="#63b8ff" stroke="#63b8ff" points="357.6,-135.87 365.71,-129.06 355.12,-129.32 357.6,-135.87"/>
</a>
</g>
</g>
<!-- Node21 -->
<g id="Node000021" class="node">
<title>Node21</title>
<g id="a_Node000021"><a xlink:title=" ">
<polygon fill="#e0e0e0" stroke="#999999" points="245,-74 207,-74 207,-55 245,-55 245,-74"/>
<text text-anchor="middle" x="226" y="-62" font-family="Helvetica,sans-Serif" font-size="10.00">map</text>
</a>
</g>
</g>
<!-- Node2&#45;&gt;Node21 -->
<g id="edge49_Node000002_Node000021" class="edge">
<title>Node2&#45;&gt;Node21</title>
<g id="a_edge49_Node000002_Node000021"><a xlink:title=" ">
<path fill="none" stroke="#63b8ff" d="M315.75,-219.97C271.67,-208.04 202.35,-181.63 172,-129 161.14,-110.17 181.62,-91.57 200.39,-79.42"/>
<polygon fill="#63b8ff" stroke="#63b8ff" points="202.33,-82.34 209.06,-74.16 198.69,-76.36 202.33,-82.34"/>
</a>
</g>
</g>
<!-- Node23 -->
<g id="Node000023" class="node">
<title>Node23</title>
<g id="a_Node000023"><a xlink:href="../../d9/d89/symbolic__ast_8hpp.html" target="_top" xlink:title="AST 节点定义：NumberNode, VariableNode, AddNode, MultiplyNode, PowerNode, FunctionNode,...">
<polygon fill="white" stroke="#666666" points="826,-184 724,-184 724,-165 826,-165 826,-184"/>
<text text-anchor="middle" x="775" y="-172" font-family="Helvetica,sans-Serif" font-size="10.00">symbolic_ast.hpp</text>
</a>
</g>
</g>
<!-- Node2&#45;&gt;Node23 -->
<g id="edge27_Node000002_Node000023" class="edge">
<title>Node2&#45;&gt;Node23</title>
<g id="a_edge27_Node000002_Node000023"><a xlink:title=" ">
<path fill="none" stroke="#63b8ff" d="M396.04,-223.32C470.19,-213.96 626.88,-194.19 713.75,-183.23"/>
<polygon fill="#63b8ff" stroke="#63b8ff" points="714.25,-186.69 723.74,-181.97 713.38,-179.75 714.25,-186.69"/>
</a>
</g>
</g>
<!-- Node2&#45;&gt;Node24 -->
<g id="edge43_Node000002_Node000024" class="edge">
<title>Node2&#45;&gt;Node24</title>
<g id="a_edge43_Node000002_Node000024"><a xlink:title=" ">
<path fill="none" stroke="#63b8ff" d="M396.18,-228.21C545.54,-226.85 1053.3,-219.65 1116,-184 1133.49,-174.05 1145.32,-153.72 1152.07,-138.73"/>
<polygon fill="#63b8ff" stroke="#63b8ff" points="1155.34,-139.98 1155.94,-129.4 1148.88,-137.3 1155.34,-139.98"/>
</a>
</g>
</g>
<!-- Node25 -->
<g id="Node000025" class="node">
<title>Node25</title>
<g id="a_Node000025"><a xlink:title=" ">
<polygon fill="#e0e0e0" stroke="#999999" points="231.5,-129 180.5,-129 180.5,-110 231.5,-110 231.5,-129"/>
<text text-anchor="middle" x="206" y="-117" font-family="Helvetica,sans-Serif" font-size="10.00">variant</text>
</a>
</g>
</g>
<!-- Node2&#45;&gt;Node25 -->
<g id="edge45_Node000002_Node000025" class="edge">
<title>Node2&#45;&gt;Node25</title>
<g id="a_edge45_Node000002_Node000025"><a xlink:title=" ">
<path fill="none" stroke="#63b8ff" d="M343.06,-219.84C317.67,-201.44 258.06,-158.23 226.47,-135.34"/>
<polygon fill="#63b8ff" stroke="#63b8ff" points="228.15,-132.23 218,-129.2 224.04,-137.9 228.15,-132.23"/>
</a>
</g>
</g>
<!-- Node30 -->
<g id="Node000030" class="node">
<title>Node30</title>
<g id="a_Node000030"><a xlink:title=" ">
<polygon fill="#e0e0e0" stroke="#999999" points="189.5,-184 142.5,-184 142.5,-165 189.5,-165 189.5,-184"/>
<text text-anchor="middle" x="166" y="-172" font-family="Helvetica,sans-Serif" font-size="10.00">cmath</text>
</a>
</g>
</g>
<!-- Node2&#45;&gt;Node30 -->
<g id="edge46_Node000002_Node000030" class="edge">
<title>Node2&#45;&gt;Node30</title>
<g id="a_edge46_Node000002_Node000030"><a xlink:title=" ">
<path fill="none" stroke="#63b8ff" d="M324.63,-219.98C290.44,-210.4 235.05,-194.86 199.59,-184.92"/>
<polygon fill="#63b8ff" stroke="#63b8ff" points="200.28,-181.48 189.71,-182.15 198.39,-188.22 200.28,-181.48"/>
</a>
</g>
</g>
<!-- Node31 -->
<g id="Node000031" class="node">
<title>Node31</title>
<g id="a_Node000031"><a xlink:title=" ">
<polygon fill="#e0e0e0" stroke="#999999" points="387.5,-184 322.5,-184 322.5,-165 387.5,-165 387.5,-184"/>
<text text-anchor="middle" x="355" y="-172" font-family="Helvetica,sans-Serif" font-size="10.00">functional</text>
</a>
</g>
</g>
<!-- Node2&#45;&gt;Node31 -->
<g id="edge50_Node000002_Node000031" class="edge">
<title>Node2&#45;&gt;Node31</title>
<g id="a_edge50_Node000002_Node000031"><a xlink:title=" ">
<path fill="none" stroke="#63b8ff" d="M355,-219.75C355,-212.8 355,-202.85 355,-194.13"/>
<polygon fill="#63b8ff" stroke="#63b8ff" points="358.5,-194.09 355,-184.09 351.5,-194.09 358.5,-194.09"/>
</a>
</g>
</g>
<!-- Node4 -->
<g id="Node000004" class="node">
<title>Node4</title>
<g id="a_Node000004"><a xlink:title=" ">
<polygon fill="#e0e0e0" stroke="#999999" points="708,-19 616,-19 616,0 708,0 708,-19"/>
<text text-anchor="middle" x="662" y="-7" font-family="Helvetica,sans-Serif" font-size="10.00">lammp/lmmp.h</text>
</a>
</g>
</g>
<!-- Node3&#45;&gt;Node4 -->
<g id="edge3_Node000003_Node000004" class="edge">
<title>Node3&#45;&gt;Node4</title>
<g id="a_edge3_Node000003_Node000004"><a xlink:title=" ">
<path fill="none" stroke="#63b8ff" d="M654.49,-54.75C655.67,-47.8 657.36,-37.85 658.84,-29.13"/>
<polygon fill="#63b8ff" stroke="#63b8ff" points="662.32,-29.53 660.54,-19.09 655.42,-28.36 662.32,-29.53"/>
</a>
</g>
</g>
<!-- Node5 -->
<g id="Node000005" class="node">
<title>Node5</title>
<g id="a_Node000005"><a xlink:title=" ">
<polygon fill="#e0e0e0" stroke="#999999" points="824,-19 726,-19 726,0 824,0 824,-19"/>
<text text-anchor="middle" x="775" y="-7" font-family="Helvetica,sans-Serif" font-size="10.00">lammp/lmmpn.h</text>
</a>
</g>
</g>
<!-- Node3&#45;&gt;Node5 -->
<g id="edge4_Node000003_Node000005" class="edge">
<title>Node3&#45;&gt;Node5</title>
<g id="a_edge4_Node000003_Node000005"><a xlink:title=" ">
<path fill="none" stroke="#63b8ff" d="M672.6,-54.98C692.32,-46.42 722.95,-33.11 745.58,-23.28"/>
<polygon fill="#63b8ff" stroke="#63b8ff" points="747.26,-26.37 755.04,-19.17 744.48,-19.94 747.26,-26.37"/>
</a>
</g>
</g>
<!-- Node6 -->
<g id="Node000006" class="node">
<title>Node6</title>
<g id="a_Node000006"><a xlink:title=" ">
<polygon fill="#e0e0e0" stroke="#999999" points="439.5,-19 344.5,-19 344.5,0 439.5,0 439.5,-19"/>
<text text-anchor="middle" x="392" y="-7" font-family="Helvetica,sans-Serif" font-size="10.00">lammp/numth.h</text>
</a>
</g>
</g>
<!-- Node3&#45;&gt;Node6 -->
<g id="edge5_Node000003_Node000006" class="edge">
<title>Node3&#45;&gt;Node6</title>
<g id="a_edge5_Node000003_Node000006"><a xlink:title=" ">
<path fill="none" stroke="#63b8ff" d="M620.47,-56.89C576.18,-47.9 496.41,-31.7 443.83,-21.02"/>
<polygon fill="#63b8ff" stroke="#63b8ff" points="444.51,-17.59 434.02,-19.03 443.12,-24.45 444.51,-17.59"/>
</a>
</g>
</g>
<!-- Node7 -->
<g id="Node000007" class="node">
<title>Node7</title>
<g id="a_Node000007"><a xlink:title=" ">
<polygon fill="#e0e0e0" stroke="#999999" points="530,-19 458,-19 458,0 530,0 530,-19"/>
<text text-anchor="middle" x="494" y="-7" font-family="Helvetica,sans-Serif" font-size="10.00">lmmc/init.h</text>
</a>
</g>
</g>
<!-- Node3&#45;&gt;Node7 -->
<g id="edge6_Node000003_Node000007" class="edge">
<title>Node3&#45;&gt;Node7</title>
<g id="a_edge6_Node000003_Node000007"><a xlink:title=" ">
<path fill="none" stroke="#63b8ff" d="M627.45,-54.98C600.88,-46.13 559.06,-32.19 529.33,-22.28"/>
<polygon fill="#63b8ff" stroke="#63b8ff" points="530.34,-18.92 519.75,-19.08 528.13,-25.56 530.34,-18.92"/>
</a>
</g>
</g>
<!-- Node3&#45;&gt;Node8 -->
<g id="edge7_Node000003_Node000008" class="edge">
<title>Node3&#45;&gt;Node8</title>
<g id="a_edge7_Node000003_Node000008"><a xlink:title=" ">
<path fill="none" stroke="#63b8ff" d="M685.54,-61.01C801.57,-52.15 1194.4,-22.15 1312.89,-13.1"/>
<polygon fill="#63b8ff" stroke="#63b8ff" points="1313.46,-16.57 1323.17,-12.32 1312.93,-9.59 1313.46,-16.57"/>
</a>
</g>
</g>
<!-- Node3&#45;&gt;Node9 -->
<g id="edge8_Node000003_Node000009" class="edge">
<title>Node3&#45;&gt;Node9</title>
<g id="a_edge8_Node000003_Node000009"><a xlink:title=" ">
<path fill="none" stroke="#63b8ff" d="M620.44,-57.22C615.61,-56.4 610.68,-55.63 606,-55 429.27,-31.25 379.86,-48.47 199.86,-18.86"/>
<polygon fill="#63b8ff" stroke="#63b8ff" points="200.23,-15.37 189.79,-17.17 199.07,-22.27 200.23,-15.37"/>
</a>
</g>
</g>
<!-- Node10 -->
<g id="Node000010" class="node">
<title>Node10</title>
<g id="a_Node000010"><a xlink:title=" ">
<polygon fill="#e0e0e0" stroke="#999999" points="598,-19 548,-19 548,0 598,0 598,-19"/>
<text text-anchor="middle" x="573" y="-7" font-family="Helvetica,sans-Serif" font-size="10.00">cstring</text>
</a>
</g>
</g>
<!-- Node3&#45;&gt;Node10 -->
<g id="edge9_Node000003_Node000010" class="edge">
<title>Node3&#45;&gt;Node10</title>
<g id="a_edge9_Node000003_Node000010"><a xlink:title=" ">
<path fill="none" stroke="#63b8ff" d="M640.15,-54.98C627.86,-46.84 609.09,-34.41 594.52,-24.76"/>
<polygon fill="#63b8ff" stroke="#63b8ff" points="596.36,-21.78 586.09,-19.17 592.49,-27.61 596.36,-21.78"/>
</a>
</g>
</g>
<!-- Node3&#45;&gt;Node11 -->
<g id="edge10_Node000003_Node000011" class="edge">
<title>Node3&#45;&gt;Node11</title>
<g id="a_edge10_Node000003_Node000011"><a xlink:title=" ">
<path fill="none" stroke="#63b8ff" d="M620.45,-57.16C615.62,-56.35 610.69,-55.6 606,-55 399.71,-28.58 342.1,-53.47 132.37,-18.68"/>
<polygon fill="#63b8ff" stroke="#63b8ff" points="132.71,-15.18 122.26,-16.97 131.54,-22.09 132.71,-15.18"/>
</a>
</g>
</g>
<!-- Node3&#45;&gt;Node12 -->
<g id="edge11_Node000003_Node000012" class="edge">
<title>Node3&#45;&gt;Node12</title>
<g id="a_edge11_Node000003_Node000012"><a xlink:title=" ">
<path fill="none" stroke="#63b8ff" d="M685.91,-58.99C737.17,-51.82 839.41,-36.97 935.89,-19.12"/>
<polygon fill="#63b8ff" stroke="#63b8ff" points="936.61,-22.54 945.8,-17.27 935.33,-15.66 936.61,-22.54"/>
</a>
</g>
</g>
<!-- Node3&#45;&gt;Node13 -->
<g id="edge12_Node000003_Node000013" class="edge">
<title>Node3&#45;&gt;Node13</title>
<g id="a_edge12_Node000003_Node000013"><a xlink:title=" ">
<path fill="none" stroke="#63b8ff" d="M685.72,-60.69C771.45,-53.24 1002.01,-32.76 1097.9,-18.98"/>
<polygon fill="#63b8ff" stroke="#63b8ff" points="1098.45,-22.44 1107.83,-17.5 1097.42,-15.51 1098.45,-22.44"/>
</a>
</g>
</g>
<!-- Node14 -->
<g id="Node000014" class="node">
<title>Node14</title>
<g id="a_Node000014"><a xlink:title=" ">
<polygon fill="#e0e0e0" stroke="#999999" points="326,-19 270,-19 270,0 326,0 326,-19"/>
<text text-anchor="middle" x="298" y="-7" font-family="Helvetica,sans-Serif" font-size="10.00">iomanip</text>
</a>
</g>
</g>
<!-- Node3&#45;&gt;Node14 -->
<g id="edge13_Node000003_Node000014" class="edge">
<title>Node3&#45;&gt;Node14</title>
<g id="a_edge13_Node000003_Node000014"><a xlink:title=" ">
<path fill="none" stroke="#63b8ff" d="M620.42,-57.41C615.59,-56.56 610.67,-55.73 606,-55 486.4,-36.22 455.19,-40.23 336,-19 335.9,-18.98 335.8,-18.96 335.7,-18.95"/>
<polygon fill="#63b8ff" stroke="#63b8ff" points="336.65,-15.57 326.17,-17.09 335.31,-22.44 336.65,-15.57"/>
</a>
</g>
</g>
<!-- Node15 -->
<g id="Node000015" class="node">
<title>Node15</title>
<g id="a_Node000015"><a xlink:title=" ">
<polygon fill="#e0e0e0" stroke="#999999" points="1089.5,-19 1024.5,-19 1024.5,0 1089.5,0 1089.5,-19"/>
<text text-anchor="middle" x="1057" y="-7" font-family="Helvetica,sans-Serif" font-size="10.00">stdexcept</text>
</a>
</g>
</g>
<!-- Node3&#45;&gt;Node15 -->
<g id="edge14_Node000003_Node000015" class="edge">
<title>Node3&#45;&gt;Node15</title>
<g id="a_edge14_Node000003_Node000015"><a xlink:title=" ">
<path fill="none" stroke="#63b8ff" d="M685.57,-60.35C747.51,-54.18 886.75,-39.42 1014.52,-18.95"/>
<polygon fill="#63b8ff" stroke="#63b8ff" points="1015.17,-22.39 1024.49,-17.34 1014.06,-15.48 1015.17,-22.39"/>
</a>
</g>
</g>
<!-- Node3&#45;&gt;Node16 -->
<g id="edge15_Node000003_Node000016" class="edge">
<title>Node3&#45;&gt;Node16</title>
<g id="a_edge15_Node000003_Node000016"><a xlink:title=" ">
<path fill="none" stroke="#63b8ff" d="M620.44,-57.28C615.6,-56.46 610.68,-55.67 606,-55 456.65,-33.73 414.32,-46.88 262.42,-18.97"/>
<polygon fill="#63b8ff" stroke="#63b8ff" points="262.72,-15.46 252.25,-17.07 261.44,-22.35 262.72,-15.46"/>
</a>
</g>
</g>
<!-- Node17 -->
<g id="Node000017" class="node">
<title>Node17</title>
<g id="a_Node000017"><a xlink:title=" ">
<polygon fill="#e0e0e0" stroke="#999999" points="928,-19 842,-19 842,0 928,0 928,-19"/>
<text text-anchor="middle" x="885" y="-7" font-family="Helvetica,sans-Serif" font-size="10.00">lmmc/config.h</text>
</a>
</g>
</g>
<!-- Node3&#45;&gt;Node17 -->
<g id="edge16_Node000003_Node000017" class="edge">
<title>Node3&#45;&gt;Node17</title>
<g id="a_edge16_Node000003_Node000017"><a xlink:title=" ">
<path fill="none" stroke="#63b8ff" d="M685.75,-56.02C725.35,-46.97 792.3,-31.68 837.55,-21.34"/>
<polygon fill="#63b8ff" stroke="#63b8ff" points="838.45,-24.72 847.42,-19.08 836.89,-17.9 838.45,-24.72"/>
</a>
</g>
</g>
<!-- Node18&#45;&gt;Node3 -->
<g id="edge20_Node000018_Node000003" class="edge">
<title>Node18&#45;&gt;Node3</title>
<g id="a_edge20_Node000018_Node000003"><a xlink:title=" ">
<path fill="none" stroke="#63b8ff" d="M439.58,-110.57C485.32,-100.91 562.37,-84.64 610.31,-74.51"/>
<polygon fill="#63b8ff" stroke="#63b8ff" points="611.31,-77.88 620.37,-72.39 609.86,-71.03 611.31,-77.88"/>
</a>
</g>
</g>
<!-- Node18&#45;&gt;Node11 -->
<g id="edge24_Node000018_Node000011" class="edge">
<title>Node18&#45;&gt;Node11</title>
<g id="a_edge24_Node000018_Node000011"><a xlink:title=" ">
<path fill="none" stroke="#63b8ff" d="M379.45,-109.98C357.06,-101.38 321.85,-87.48 292,-74 274.79,-66.23 271.59,-61.87 254,-55 231.85,-46.34 170.62,-29.41 132.38,-19.11"/>
<polygon fill="#63b8ff" stroke="#63b8ff" points="132.82,-15.6 122.25,-16.39 131,-22.36 132.82,-15.6"/>
</a>
</g>
</g>
<!-- Node18&#45;&gt;Node14 -->
<g id="edge21_Node000018_Node000014" class="edge">
<title>Node18&#45;&gt;Node14</title>
<g id="a_edge21_Node000018_Node000014"><a xlink:title=" ">
<path fill="none" stroke="#63b8ff" d="M413.2,-109.9C428.2,-97.33 451.47,-73.41 438,-55 431.78,-46.5 375.34,-30.45 336.05,-20.13"/>
<polygon fill="#63b8ff" stroke="#63b8ff" points="336.78,-16.7 326.22,-17.57 335.02,-23.48 336.78,-16.7"/>
</a>
</g>
</g>
<!-- Node18&#45;&gt;Node15 -->
<g id="edge23_Node000018_Node000015" class="edge">
<title>Node18&#45;&gt;Node15</title>
<g id="a_edge23_Node000018_Node000015"><a xlink:title=" ">
<path fill="none" stroke="#63b8ff" d="M439.55,-114.83C513.64,-107.36 676.15,-89.74 730,-74 749.28,-68.36 751.76,-60.75 771,-55 872.96,-24.55 905.14,-37.08 1014.37,-18.98"/>
<polygon fill="#63b8ff" stroke="#63b8ff" points="1015.2,-22.39 1024.47,-17.26 1014.03,-15.49 1015.2,-22.39"/>
</a>
</g>
</g>
<!-- Node18&#45;&gt;Node17 -->
<g id="edge18_Node000018_Node000017" class="edge">
<title>Node18&#45;&gt;Node17</title>
<g id="a_edge18_Node000018_Node000017"><a xlink:title=" ">
<path fill="none" stroke="#63b8ff" d="M439.68,-114.04C507.58,-105.8 647.76,-87.76 695,-74 715.06,-68.16 718.41,-62.26 738,-55 772.78,-42.11 813.16,-30.09 842.79,-21.8"/>
<polygon fill="#63b8ff" stroke="#63b8ff" points="844.09,-25.07 852.8,-19.03 842.23,-18.32 844.09,-25.07"/>
</a>
</g>
</g>
<!-- Node19 -->
<g id="Node000019" class="node">
<title>Node19</title>
<g id="a_Node000019"><a xlink:title=" ">
<polygon fill="#e0e0e0" stroke="#999999" points="876,-74 780,-74 780,-55 876,-55 876,-74"/>
<text text-anchor="middle" x="828" y="-62" font-family="Helvetica,sans-Serif" font-size="10.00">lmmc/numeric.h</text>
</a>
</g>
</g>
<!-- Node18&#45;&gt;Node19 -->
<g id="edge19_Node000018_Node000019" class="edge">
<title>Node18&#45;&gt;Node19</title>
<g id="a_edge19_Node000018_Node000019"><a xlink:title=" ">
<path fill="none" stroke="#63b8ff" d="M439.75,-114.07C505.89,-106.26 646.99,-89.43 766,-74 767.27,-73.83 768.56,-73.67 769.86,-73.5"/>
<polygon fill="#63b8ff" stroke="#63b8ff" points="770.49,-76.94 779.95,-72.16 769.57,-70 770.49,-76.94"/>
</a>
</g>
</g>
<!-- Node20 -->
<g id="Node000020" class="node">
<title>Node20</title>
<g id="a_Node000020"><a xlink:title=" ">
<polygon fill="#e0e0e0" stroke="#999999" points="357,-74 301,-74 301,-55 357,-55 357,-74"/>
<text text-anchor="middle" x="329" y="-62" font-family="Helvetica,sans-Serif" font-size="10.00">sstream</text>
</a>
</g>
</g>
<!-- Node18&#45;&gt;Node20 -->
<g id="edge22_Node000018_Node000020" class="edge">
<title>Node18&#45;&gt;Node20</title>
<g id="a_edge22_Node000018_Node000020"><a xlink:title=" ">
<path fill="none" stroke="#63b8ff" d="M390.27,-109.98C379.27,-102 362.58,-89.88 349.4,-80.31"/>
<polygon fill="#63b8ff" stroke="#63b8ff" points="351.09,-77.21 340.94,-74.17 346.98,-82.88 351.09,-77.21"/>
</a>
</g>
</g>
<!-- Node18&#45;&gt;Node21 -->
<g id="edge25_Node000018_Node000021" class="edge">
<title>Node18&#45;&gt;Node21</title>
<g id="a_edge25_Node000018_Node000021"><a xlink:title=" ">
<path fill="none" stroke="#63b8ff" d="M373.72,-109.98C341.19,-100.19 288.05,-84.19 255.15,-74.28"/>
<polygon fill="#63b8ff" stroke="#63b8ff" points="255.82,-70.83 245.24,-71.29 253.8,-77.53 255.82,-70.83"/>
</a>
</g>
</g>
<!-- Node22 -->
<g id="Node000022" class="node">
<title>Node22</title>
<g id="a_Node000022"><a xlink:title=" ">
<polygon fill="#e0e0e0" stroke="#999999" points="428.5,-74 375.5,-74 375.5,-55 428.5,-55 428.5,-74"/>
<text text-anchor="middle" x="402" y="-62" font-family="Helvetica,sans-Serif" font-size="10.00">stdint.h</text>
</a>
</g>
</g>
<!-- Node18&#45;&gt;Node22 -->
<g id="edge26_Node000018_Node000022" class="edge">
<title>Node18&#45;&gt;Node22</title>
<g id="a_edge26_Node000018_Node000022"><a xlink:title=" ">
<path fill="none" stroke="#63b8ff" d="M402,-109.75C402,-102.8 402,-92.85 402,-84.13"/>
<polygon fill="#63b8ff" stroke="#63b8ff" points="405.5,-84.09 402,-74.09 398.5,-84.09 405.5,-84.09"/>
</a>
</g>
</g>
<!-- Node23&#45;&gt;Node3 -->
<g id="edge37_Node000023_Node000003" class="edge">
<title>Node23&#45;&gt;Node3</title>
<g id="a_edge37_Node000023_Node000003"><a xlink:title=" ">
<path fill="none" stroke="#63b8ff" d="M723.96,-171.83C658.58,-168.5 550.74,-158.55 526,-129 499.1,-96.86 563.95,-79.4 610.54,-71.3"/>
<polygon fill="#63b8ff" stroke="#63b8ff" points="611.17,-74.75 620.46,-69.67 610.03,-67.84 611.17,-74.75"/>
</a>
</g>
</g>
<!-- Node23&#45;&gt;Node8 -->
<g id="edge29_Node000023_Node000008" class="edge">
<title>Node23&#45;&gt;Node8</title>
<g id="a_edge29_Node000023_Node000008"><a xlink:title=" ">
<path fill="none" stroke="#63b8ff" d="M826.15,-165.32C871.84,-157.55 940.41,-144.72 999,-129 1118.12,-97.04 1255.69,-45.81 1315.99,-22.61"/>
<polygon fill="#63b8ff" stroke="#63b8ff" points="1317.26,-25.87 1325.32,-19 1314.73,-19.34 1317.26,-25.87"/>
</a>
</g>
</g>
<!-- Node23&#45;&gt;Node11 -->
<g id="edge30_Node000023_Node000011" class="edge">
<title>Node23&#45;&gt;Node11</title>
<g id="a_edge30_Node000023_Node000011"><a xlink:title=" ">
<path fill="none" stroke="#63b8ff" d="M723.73,-171.17C618.34,-165.98 380.73,-152.05 303,-129 228.66,-106.96 152.83,-52.35 118.69,-25.66"/>
<polygon fill="#63b8ff" stroke="#63b8ff" points="120.57,-22.69 110.56,-19.22 116.22,-28.18 120.57,-22.69"/>
</a>
</g>
</g>
<!-- Node23&#45;&gt;Node13 -->
<g id="edge32_Node000023_Node000013" class="edge">
<title>Node23&#45;&gt;Node13</title>
<g id="a_edge32_Node000023_Node000013"><a xlink:title=" ">
<path fill="none" stroke="#63b8ff" d="M826.04,-169.66C867.67,-164.78 926.92,-153.78 973,-129 1014.81,-106.52 1011.16,-82.28 1050,-55 1068.29,-42.15 1090.84,-31.01 1108.8,-23.09"/>
<polygon fill="#63b8ff" stroke="#63b8ff" points="1110.44,-26.19 1118.24,-19.03 1107.67,-19.76 1110.44,-26.19"/>
</a>
</g>
</g>
<!-- Node23&#45;&gt;Node15 -->
<g id="edge40_Node000023_Node000015" class="edge">
<title>Node23&#45;&gt;Node15</title>
<g id="a_edge40_Node000023_Node000015"><a xlink:title=" ">
<path fill="none" stroke="#63b8ff" d="M826.25,-168.51C862.47,-163.11 910.96,-151.95 948,-129 984.96,-106.1 982.3,-86.76 1012,-55 1021.19,-45.17 1031.89,-34.56 1040.55,-26.16"/>
<polygon fill="#63b8ff" stroke="#63b8ff" points="1043.05,-28.62 1047.83,-19.16 1038.19,-23.57 1043.05,-28.62"/>
</a>
</g>
</g>
<!-- Node23&#45;&gt;Node17 -->
<g id="edge38_Node000023_Node000017" class="edge">
<title>Node23&#45;&gt;Node17</title>
<g id="a_edge38_Node000023_Node000017"><a xlink:title=" ">
<path fill="none" stroke="#63b8ff" d="M826.14,-165.68C866.56,-158.32 918.23,-145.92 931,-129 955.14,-97.01 921.89,-50.78 900.52,-26.61"/>
<polygon fill="#63b8ff" stroke="#63b8ff" points="902.91,-24.04 893.57,-19.04 897.75,-28.77 902.91,-24.04"/>
</a>
</g>
</g>
<!-- Node23&#45;&gt;Node18 -->
<g id="edge36_Node000023_Node000018" class="edge">
<title>Node23&#45;&gt;Node18</title>
<g id="a_edge36_Node000023_Node000018"><a xlink:title=" ">
<path fill="none" stroke="#63b8ff" d="M723.8,-166.79C660.4,-158.4 549.13,-143.37 454,-129 452.7,-128.8 451.39,-128.6 450.06,-128.4"/>
<polygon fill="#63b8ff" stroke="#63b8ff" points="450.18,-124.87 439.76,-126.78 449.09,-131.79 450.18,-124.87"/>
</a>
</g>
</g>
<!-- Node23&#45;&gt;Node19 -->
<g id="edge39_Node000023_Node000019" class="edge">
<title>Node23&#45;&gt;Node19</title>
<g id="a_edge39_Node000023_Node000019"><a xlink:title=" ">
<path fill="none" stroke="#63b8ff" d="M783.06,-164.95C790.71,-156.43 802.02,-142.69 809,-129 816.28,-114.73 821.26,-97.2 824.29,-84.18"/>
<polygon fill="#63b8ff" stroke="#63b8ff" points="827.78,-84.6 826.46,-74.09 820.93,-83.13 827.78,-84.6"/>
</a>
</g>
</g>
<!-- Node23&#45;&gt;Node21 -->
<g id="edge42_Node000023_Node000021" class="edge">
<title>Node23&#45;&gt;Node21</title>
<g id="a_edge42_Node000023_Node000021"><a xlink:title=" ">
<path fill="none" stroke="#63b8ff" d="M723.93,-173.74C643.92,-172.86 484.83,-166.06 356,-129 315.97,-117.49 273.26,-94.25 248.13,-79.3"/>
<polygon fill="#63b8ff" stroke="#63b8ff" points="249.77,-76.2 239.4,-74.02 246.15,-82.19 249.77,-76.2"/>
</a>
</g>
</g>
<!-- Node23&#45;&gt;Node24 -->
<g id="edge28_Node000023_Node000024" class="edge">
<title>Node23&#45;&gt;Node24</title>
<g id="a_edge28_Node000023_Node000024"><a xlink:title=" ">
<path fill="none" stroke="#63b8ff" d="M826.39,-166.41C904.15,-155.68 1050.01,-135.54 1119.82,-125.91"/>
<polygon fill="#63b8ff" stroke="#63b8ff" points="1120.52,-129.34 1129.95,-124.51 1119.57,-122.41 1120.52,-129.34"/>
</a>
</g>
</g>
<!-- Node23&#45;&gt;Node25 -->
<g id="edge31_Node000023_Node000025" class="edge">
<title>Node23&#45;&gt;Node25</title>
<g id="a_edge31_Node000023_Node000025"><a xlink:title=" ">
<path fill="none" stroke="#63b8ff" d="M723.69,-171.33C628.9,-166.83 420.14,-154.72 246,-129 244.55,-128.79 243.08,-128.55 241.59,-128.3"/>
<polygon fill="#63b8ff" stroke="#63b8ff" points="242.21,-124.86 231.73,-126.46 240.92,-131.74 242.21,-124.86"/>
</a>
</g>
</g>
<!-- Node26 -->
<g id="Node000026" class="node">
<title>Node26</title>
<g id="a_Node000026"><a xlink:title=" ">
<polygon fill="#e0e0e0" stroke="#999999" points="921.5,-129 856.5,-129 856.5,-110 921.5,-110 921.5,-129"/>
<text text-anchor="middle" x="889" y="-117" font-family="Helvetica,sans-Serif" font-size="10.00">typeindex</text>
</a>
</g>
</g>
<!-- Node23&#45;&gt;Node26 -->
<g id="edge33_Node000023_Node000026" class="edge">
<title>Node23&#45;&gt;Node26</title>
<g id="a_edge33_Node000023_Node000026"><a xlink:title=" ">
<path fill="none" stroke="#63b8ff" d="M793.32,-164.98C811.66,-156.46 840.11,-143.23 861.23,-133.41"/>
<polygon fill="#63b8ff" stroke="#63b8ff" points="862.76,-136.56 870.35,-129.17 859.81,-130.21 862.76,-136.56"/>
</a>
</g>
</g>
<!-- Node27 -->
<g id="Node000027" class="node">
<title>Node27</title>
<g id="a_Node000027"><a xlink:title=" ">
<polygon fill="#e0e0e0" stroke="#999999" points="627.5,-129 534.5,-129 534.5,-110 627.5,-110 627.5,-129"/>
<text text-anchor="middle" x="581" y="-117" font-family="Helvetica,sans-Serif" font-size="10.00">unordered_map</text>
</a>
</g>
</g>
<!-- Node23&#45;&gt;Node27 -->
<g id="edge34_Node000023_Node000027" class="edge">
<title>Node23&#45;&gt;Node27</title>
<g id="a_edge34_Node000023_Node000027"><a xlink:title=" ">
<path fill="none" stroke="#63b8ff" d="M743.83,-164.98C710.84,-155.97 658.6,-141.7 622.23,-131.76"/>
<polygon fill="#63b8ff" stroke="#63b8ff" points="622.98,-128.34 612.41,-129.08 621.14,-135.09 622.98,-128.34"/>
</a>
</g>
</g>
<!-- Node28 -->
<g id="Node000028" class="node">
<title>Node28</title>
<g id="a_Node000028"><a xlink:title=" ">
<polygon fill="#e0e0e0" stroke="#999999" points="732,-129 646,-129 646,-110 732,-110 732,-129"/>
<text text-anchor="middle" x="689" y="-117" font-family="Helvetica,sans-Serif" font-size="10.00">unordered_set</text>
</a>
</g>
</g>
<!-- Node23&#45;&gt;Node28 -->
<g id="edge35_Node000023_Node000028" class="edge">
<title>Node23&#45;&gt;Node28</title>
<g id="a_edge35_Node000023_Node000028"><a xlink:title=" ">
<path fill="none" stroke="#63b8ff" d="M761.18,-164.98C747.85,-156.77 727.42,-144.18 711.69,-134.49"/>
<polygon fill="#63b8ff" stroke="#63b8ff" points="713.42,-131.44 703.07,-129.17 709.75,-137.4 713.42,-131.44"/>
</a>
</g>
</g>
<!-- Node29 -->
<g id="Node000029" class="node">
<title>Node29</title>
<g id="a_Node000029"><a xlink:title=" ">
<polygon fill="#e0e0e0" stroke="#999999" points="800,-129 750,-129 750,-110 800,-110 800,-129"/>
<text text-anchor="middle" x="775" y="-117" font-family="Helvetica,sans-Serif" font-size="10.00">atomic</text>
</a>
</g>
</g>
<!-- Node23&#45;&gt;Node29 -->
<g id="edge41_Node000023_Node000029" class="edge">
<title>Node23&#45;&gt;Node29</title>
<g id="a_edge41_Node000023_Node000029"><a xlink:title=" ">
<path fill="none" stroke="#63b8ff" d="M775,-164.75C775,-157.8 775,-147.85 775,-139.13"/>
<polygon fill="#63b8ff" stroke="#63b8ff" points="778.5,-139.09 775,-129.09 771.5,-139.09 778.5,-139.09"/>
</a>
</g>
</g>
<!-- Node32&#45;&gt;Node3 -->
<g id="edge60_Node000032_Node000003" class="edge">
<title>Node32&#45;&gt;Node3</title>
<g id="a_edge60_Node000032_Node000003"><a xlink:title=" ">
<path fill="none" stroke="#63b8ff" d="M1269.92,-164.64C1264.41,-150.32 1251.41,-122.44 1230,-110 1227.11,-108.32 829.65,-78.63 696.16,-68.71"/>
<polygon fill="#63b8ff" stroke="#63b8ff" points="696.14,-65.19 685.91,-67.94 695.62,-72.17 696.14,-65.19"/>
</a>
</g>
</g>
<!-- Node32&#45;&gt;Node8 -->
<g id="edge54_Node000032_Node000008" class="edge">
<title>Node32&#45;&gt;Node8</title>
<g id="a_edge54_Node000032_Node000008"><a xlink:title=" ">
<path fill="none" stroke="#63b8ff" d="M1319.07,-169.07C1368.92,-163.21 1443.63,-150.97 1461,-129 1493.75,-87.59 1419.69,-44.17 1376.05,-23.25"/>
<polygon fill="#63b8ff" stroke="#63b8ff" points="1377.53,-20.08 1366.99,-19.02 1374.57,-26.42 1377.53,-20.08"/>
</a>
</g>
</g>
<!-- Node32&#45;&gt;Node11 -->
<g id="edge55_Node000032_Node000011" class="edge">
<title>Node32&#45;&gt;Node11</title>
<g id="a_edge55_Node000032_Node000011"><a xlink:title=" ">
<path fill="none" stroke="#63b8ff" d="M1266.12,-164.97C1253.94,-150.6 1227.03,-121.95 1197,-110 1075.98,-61.84 741.74,-85.42 612,-74 586.83,-71.78 207.03,-29.42 132.49,-18.52"/>
<polygon fill="#63b8ff" stroke="#63b8ff" points="132.72,-15.01 122.28,-16.86 131.6,-21.92 132.72,-15.01"/>
</a>
</g>
</g>
<!-- Node32&#45;&gt;Node12 -->
<g id="edge56_Node000032_Node000012" class="edge">
<title>Node32&#45;&gt;Node12</title>
<g id="a_edge56_Node000032_Node000012"><a xlink:title=" ">
<path fill="none" stroke="#63b8ff" d="M1272.64,-164.9C1271.62,-151.43 1267.74,-125.33 1253,-110 1219.57,-75.22 1084.78,-37.62 1016.32,-20.28"/>
<polygon fill="#63b8ff" stroke="#63b8ff" points="1016.88,-16.81 1006.33,-17.77 1015.18,-23.6 1016.88,-16.81"/>
</a>
</g>
</g>
<!-- Node32&#45;&gt;Node13 -->
<g id="edge57_Node000032_Node000013" class="edge">
<title>Node32&#45;&gt;Node13</title>
<g id="a_edge57_Node000032_Node000013"><a xlink:title=" ">
<path fill="none" stroke="#63b8ff" d="M1298.51,-164.9C1314.69,-157.96 1334.35,-146.44 1344,-129 1359.93,-100.22 1364.63,-80.61 1344,-55 1324.12,-30.32 1236.24,-18.59 1182.51,-13.64"/>
<polygon fill="#63b8ff" stroke="#63b8ff" points="1182.52,-10.13 1172.25,-12.74 1181.91,-17.1 1182.52,-10.13"/>
</a>
</g>
</g>
<!-- Node32&#45;&gt;Node15 -->
<g id="edge58_Node000032_Node000015" class="edge">
<title>Node32&#45;&gt;Node15</title>
<g id="a_edge58_Node000032_Node000015"><a xlink:title=" ">
<path fill="none" stroke="#63b8ff" d="M1283.31,-164.93C1297.13,-152.39 1318.54,-128.52 1306,-110 1282.03,-74.6 1164.28,-38.78 1099.65,-21.36"/>
<polygon fill="#63b8ff" stroke="#63b8ff" points="1100.33,-17.92 1089.76,-18.73 1098.52,-24.68 1100.33,-17.92"/>
</a>
</g>
</g>
<!-- Node32&#45;&gt;Node18 -->
<g id="edge61_Node000032_Node000018" class="edge">
<title>Node32&#45;&gt;Node18</title>
<g id="a_edge61_Node000032_Node000018"><a xlink:title=" ">
<path fill="none" stroke="#63b8ff" d="M1226.66,-170.88C1109.36,-164.23 791.14,-145.98 526,-129 500.88,-127.39 472.91,-125.48 449.9,-123.88"/>
<polygon fill="#63b8ff" stroke="#63b8ff" points="449.93,-120.38 439.71,-123.17 449.44,-127.36 449.93,-120.38"/>
</a>
</g>
</g>
<!-- Node33 -->
<g id="Node000033" class="node">
<title>Node33</title>
<g id="a_Node000033"><a xlink:title=" ">
<polygon fill="#e0e0e0" stroke="#999999" points="1452,-129 1396,-129 1396,-110 1452,-110 1452,-129"/>
<text text-anchor="middle" x="1424" y="-117" font-family="Helvetica,sans-Serif" font-size="10.00">numeric</text>
</a>
</g>
</g>
<!-- Node32&#45;&gt;Node33 -->
<g id="edge59_Node000032_Node000033" class="edge">
<title>Node32&#45;&gt;Node33</title>
<g id="a_edge59_Node000032_Node000033"><a xlink:title=" ">
<path fill="none" stroke="#63b8ff" d="M1297.26,-164.98C1322.32,-156.19 1361.63,-142.39 1389.83,-132.49"/>
<polygon fill="#63b8ff" stroke="#63b8ff" points="1391.02,-135.78 1399.3,-129.17 1388.7,-129.18 1391.02,-135.78"/>
</a>
</g>
</g>
<!-- Node34&#45;&gt;Node2 -->
<g id="edge63_Node000034_Node000002" class="edge">
<title>Node34&#45;&gt;Node2</title>
<g id="a_edge63_Node000034_Node000002"><a xlink:title=" ">
<path fill="none" stroke="#63b8ff" d="M883.08,-279.52C779.71,-269.92 517.28,-245.56 406.06,-235.24"/>
<polygon fill="#63b8ff" stroke="#63b8ff" points="406.38,-231.75 396.1,-234.31 405.73,-238.72 406.38,-231.75"/>
</a>
</g>
</g>
<!-- Node34&#45;&gt;Node23 -->
<g id="edge65_Node000034_Node000023" class="edge">
<title>Node34&#45;&gt;Node23</title>
<g id="a_edge65_Node000034_Node000023"><a xlink:title=" ">
<path fill="none" stroke="#63b8ff" d="M913.9,-274.84C888.05,-256.36 827.23,-212.86 795.34,-190.05"/>
<polygon fill="#63b8ff" stroke="#63b8ff" points="797.33,-187.17 787.16,-184.2 793.26,-192.86 797.33,-187.17"/>
</a>
</g>
</g>
<!-- Node34&#45;&gt;Node32 -->
<g id="edge64_Node000034_Node000032" class="edge">
<title>Node34&#45;&gt;Node32</title>
<g id="a_edge64_Node000034_Node000032"><a xlink:title=" ">
<path fill="none" stroke="#63b8ff" d="M953.52,-274.94C1015.4,-255.68 1165.57,-208.94 1235.73,-187.1"/>
<polygon fill="#63b8ff" stroke="#63b8ff" points="1236.97,-190.38 1245.48,-184.07 1234.89,-183.7 1236.97,-190.38"/>
</a>
</g>
</g>
</g>
</svg>
