<?xml version="1.0" encoding="UTF-8" standalone="no"?>
<!DOCTYPE svg PUBLIC "-//W3C//DTD SVG 1.1//EN"
 "http://www.w3.org/Graphics/SVG/1.1/DTD/svg11.dtd">
<!-- Generated by graphviz version 2.43.0 (0)
 -->
<!-- Title: lamina::ReplacementVisitor::get_result Pages: 1 -->
<svg width="709pt" height="470pt"
 viewBox="0.00 0.00 709.00 470.00" xmlns="http://www.w3.org/2000/svg" xmlns:xlink="http://www.w3.org/1999/xlink">
<g id="graph0" class="graph" transform="scale(1 1) rotate(0) translate(4 466)">
<title>lamina::ReplacementVisitor::get_result</title>
<!-- Node1 -->
<g id="Node000001" class="node">
<title>Node1</title>
<g id="a_Node000001"><a xlink:title=" ">
<polygon fill="#999999" stroke="#666666" points="701,-270 549,-270 549,-240 701,-240 701,-270"/>
<text text-anchor="start" x="557" y="-258" font-family="Helvetica,sans-Serif" font-size="10.00">lamina::ReplacementVisitor</text>
<text text-anchor="middle" x="625" y="-247" font-family="Helvetica,sans-Serif" font-size="10.00">::get_result</text>
</a>
</g>
</g>
<!-- Node2 -->
<g id="Node000002" class="node">
<title>Node2</title>
<g id="a_Node000002"><a xlink:href="../../d5/d68/classlamina_1_1Matcher.html#a1e55632a78e0381ed1df6d935d2d42f9" target="_top" xlink:title="将绑定结果代入模板表达式">
<polygon fill="white" stroke="#666666" points="513,-264.5 375,-264.5 375,-245.5 513,-245.5 513,-264.5"/>
<text text-anchor="middle" x="444" y="-252.5" font-family="Helvetica,sans-Serif" font-size="10.00">lamina::Matcher::replace</text>
</a>
</g>
</g>
<!-- Node1&#45;&gt;Node2 -->
<g id="edge1_Node000001_Node000002" class="edge">
<title>Node1&#45;&gt;Node2</title>
<g id="a_edge1_Node000001_Node000002"><a xlink:title=" ">
<path fill="none" stroke="#63b8ff" d="M538.79,-255C530.18,-255 521.5,-255 513.1,-255"/>
<polygon fill="#63b8ff" stroke="#63b8ff" points="538.87,-258.5 548.87,-255 538.87,-251.5 538.87,-258.5"/>
</a>
</g>
</g>
<!-- Node3 -->
<g id="Node000003" class="node">
<title>Node3</title>
<g id="a_Node000003"><a xlink:href="../../de/d21/classlamina_1_1TableLookupStrategy.html#adb653c8d927ce8cb6842fd4e443e15f5" target="_top" xlink:title="尝试对表达式进行积分">
<polygon fill="white" stroke="#666666" points="339,-378 181,-378 181,-348 339,-348 339,-378"/>
<text text-anchor="start" x="189" y="-366" font-family="Helvetica,sans-Serif" font-size="10.00">lamina::TableLookupStrategy</text>
<text text-anchor="middle" x="260" y="-355" font-family="Helvetica,sans-Serif" font-size="10.00">::try_integrate</text>
</a>
</g>
</g>
<!-- Node2&#45;&gt;Node3 -->
<g id="edge2_Node000002_Node000003" class="edge">
<title>Node2&#45;&gt;Node3</title>
<g id="a_edge2_Node000002_Node000003"><a xlink:title=" ">
<path fill="none" stroke="#63b8ff" d="M417.84,-269.93C383.17,-290.5 321.06,-327.36 286.31,-347.98"/>
<polygon fill="#63b8ff" stroke="#63b8ff" points="420.03,-272.7 426.85,-264.58 416.46,-266.68 420.03,-272.7"/>
</a>
</g>
</g>
<!-- Node5 -->
<g id="Node000005" class="node">
<title>Node5</title>
<g id="a_Node000005"><a xlink:href="../../d5/dd7/classlamina_1_1RewriteVisitor.html#ad4525a1d56870715e59dda9c7e5aa927" target="_top" xlink:title=" ">
<polygon fill="white" stroke="#666666" points="322.5,-246 197.5,-246 197.5,-216 322.5,-216 322.5,-246"/>
<text text-anchor="start" x="205.5" y="-234" font-family="Helvetica,sans-Serif" font-size="10.00">lamina::RewriteVisitor</text>
<text text-anchor="middle" x="260" y="-223" font-family="Helvetica,sans-Serif" font-size="10.00">::try_match</text>
</a>
</g>
</g>
<!-- Node2&#45;&gt;Node5 -->
<g id="edge4_Node000002_Node000005" class="edge">
<title>Node2&#45;&gt;Node5</title>
<g id="a_edge4_Node000002_Node000005"><a xlink:title=" ">
<path fill="none" stroke="#63b8ff" d="M364.8,-244.69C350.7,-242.83 336.19,-240.92 322.65,-239.13"/>
<polygon fill="#63b8ff" stroke="#63b8ff" points="364.6,-248.19 374.97,-246.03 365.51,-241.25 364.6,-248.19"/>
</a>
</g>
</g>
<!-- Node4 -->
<g id="Node000004" class="node">
<title>Node4</title>
<g id="a_Node000004"><a xlink:href="../../d6/d86/classlamina_1_1LinearSubstitutionStrategy.html#a81a69fc739ab7b461f1c0b7263842f8c" target="_top" xlink:title="尝试对表达式进行积分">
<polygon fill="white" stroke="#666666" points="145,-462 0,-462 0,-432 145,-432 145,-462"/>
<text text-anchor="start" x="8" y="-450" font-family="Helvetica,sans-Serif" font-size="10.00">lamina::LinearSubstitution</text>
<text text-anchor="middle" x="72.5" y="-439" font-family="Helvetica,sans-Serif" font-size="10.00">Strategy::try_integrate</text>
</a>
</g>
</g>
<!-- Node3&#45;&gt;Node4 -->
<g id="edge3_Node000003_Node000004" class="edge">
<title>Node3&#45;&gt;Node4</title>
<g id="a_edge3_Node000003_Node000004"><a xlink:title=" ">
<path fill="none" stroke="#63b8ff" d="M224.58,-382.98C202.32,-395.42 172.47,-411.25 145,-423 137.66,-426.14 129.75,-429.15 121.97,-431.91"/>
<polygon fill="#63b8ff" stroke="#63b8ff" points="226.33,-386 233.32,-378.04 222.89,-379.91 226.33,-386"/>
</a>
</g>
</g>
<!-- Node6 -->
<g id="Node000006" class="node">
<title>Node6</title>
<g id="a_Node000006"><a xlink:href="../../d5/dd7/classlamina_1_1RewriteVisitor.html#a1174973396ded627bf4e267a3f17387d" target="_top" xlink:title=" ">
<polygon fill="white" stroke="#666666" points="135,-414 10,-414 10,-384 135,-384 135,-414"/>
<text text-anchor="start" x="18" y="-402" font-family="Helvetica,sans-Serif" font-size="10.00">lamina::RewriteVisitor</text>
<text text-anchor="middle" x="72.5" y="-391" font-family="Helvetica,sans-Serif" font-size="10.00">::visit</text>
</a>
</g>
</g>
<!-- Node5&#45;&gt;Node6 -->
<g id="edge5_Node000005_Node000006" class="edge">
<title>Node5&#45;&gt;Node6</title>
<g id="a_edge5_Node000005_Node000006"><a xlink:title=" ">
<path fill="none" stroke="#63b8ff" d="M242.87,-254.54C217.59,-290.85 169.05,-358.1 145,-375 140.18,-378.39 134.84,-381.33 129.32,-383.87"/>
<polygon fill="#63b8ff" stroke="#63b8ff" points="245.95,-256.24 248.77,-246.03 240.2,-252.25 245.95,-256.24"/>
</a>
</g>
</g>
<!-- Node7 -->
<g id="Node000007" class="node">
<title>Node7</title>
<g id="a_Node000007"><a xlink:href="../../d5/dd7/classlamina_1_1RewriteVisitor.html#a2d2cbbe6e38cf135c2dcdd0fb53ae4f8" target="_top" xlink:title=" ">
<polygon fill="white" stroke="#666666" points="135,-366 10,-366 10,-336 135,-336 135,-366"/>
<text text-anchor="start" x="18" y="-354" font-family="Helvetica,sans-Serif" font-size="10.00">lamina::RewriteVisitor</text>
<text text-anchor="middle" x="72.5" y="-343" font-family="Helvetica,sans-Serif" font-size="10.00">::visit</text>
</a>
</g>
</g>
<!-- Node5&#45;&gt;Node7 -->
<g id="edge6_Node000005_Node000007" class="edge">
<title>Node5&#45;&gt;Node7</title>
<g id="a_edge6_Node000005_Node000007"><a xlink:title=" ">
<path fill="none" stroke="#63b8ff" d="M237.84,-253.13C216.26,-274.61 180.92,-306.82 145,-327 139.06,-330.34 132.59,-333.31 126.04,-335.92"/>
<polygon fill="#63b8ff" stroke="#63b8ff" points="240.33,-255.59 244.88,-246.02 235.36,-250.67 240.33,-255.59"/>
</a>
</g>
</g>
<!-- Node8 -->
<g id="Node000008" class="node">
<title>Node8</title>
<g id="a_Node000008"><a xlink:href="../../d5/dd7/classlamina_1_1RewriteVisitor.html#a1d038d92bb09fca7adf1992c3dd120f7" target="_top" xlink:title=" ">
<polygon fill="white" stroke="#666666" points="135,-318 10,-318 10,-288 135,-288 135,-318"/>
<text text-anchor="start" x="18" y="-306" font-family="Helvetica,sans-Serif" font-size="10.00">lamina::RewriteVisitor</text>
<text text-anchor="middle" x="72.5" y="-295" font-family="Helvetica,sans-Serif" font-size="10.00">::visit</text>
</a>
</g>
</g>
<!-- Node5&#45;&gt;Node8 -->
<g id="edge7_Node000005_Node000008" class="edge">
<title>Node5&#45;&gt;Node8</title>
<g id="a_edge7_Node000005_Node000008"><a xlink:title=" ">
<path fill="none" stroke="#63b8ff" d="M215.73,-250.12C194.56,-259.24 168.61,-270.08 145,-279 137.04,-282.01 128.51,-285.04 120.22,-287.88"/>
<polygon fill="#63b8ff" stroke="#63b8ff" points="217.31,-253.25 225.1,-246.06 214.53,-246.82 217.31,-253.25"/>
</a>
</g>
</g>
<!-- Node9 -->
<g id="Node000009" class="node">
<title>Node9</title>
<g id="a_Node000009"><a xlink:href="../../d5/dd7/classlamina_1_1RewriteVisitor.html#a97438c9a9d47358d5846e03a9a9893e1" target="_top" xlink:title=" ">
<polygon fill="white" stroke="#666666" points="135,-270 10,-270 10,-240 135,-240 135,-270"/>
<text text-anchor="start" x="18" y="-258" font-family="Helvetica,sans-Serif" font-size="10.00">lamina::RewriteVisitor</text>
<text text-anchor="middle" x="72.5" y="-247" font-family="Helvetica,sans-Serif" font-size="10.00">::visit</text>
</a>
</g>
</g>
<!-- Node5&#45;&gt;Node9 -->
<g id="edge8_Node000005_Node000009" class="edge">
<title>Node5&#45;&gt;Node9</title>
<g id="a_edge8_Node000005_Node000009"><a xlink:title=" ">
<path fill="none" stroke="#63b8ff" d="M187.47,-240.25C170.21,-242.49 151.92,-244.85 135.16,-247.02"/>
<polygon fill="#63b8ff" stroke="#63b8ff" points="188.02,-243.71 197.49,-238.96 187.12,-236.77 188.02,-243.71"/>
</a>
</g>
</g>
<!-- Node10 -->
<g id="Node000010" class="node">
<title>Node10</title>
<g id="a_Node000010"><a xlink:href="../../d5/dd7/classlamina_1_1RewriteVisitor.html#ae39ac7eab444b6b9ebdda5db74fe4562" target="_top" xlink:title=" ">
<polygon fill="white" stroke="#666666" points="135,-222 10,-222 10,-192 135,-192 135,-222"/>
<text text-anchor="start" x="18" y="-210" font-family="Helvetica,sans-Serif" font-size="10.00">lamina::RewriteVisitor</text>
<text text-anchor="middle" x="72.5" y="-199" font-family="Helvetica,sans-Serif" font-size="10.00">::visit</text>
</a>
</g>
</g>
<!-- Node5&#45;&gt;Node10 -->
<g id="edge9_Node000005_Node000010" class="edge">
<title>Node5&#45;&gt;Node10</title>
<g id="a_edge9_Node000005_Node000010"><a xlink:title=" ">
<path fill="none" stroke="#63b8ff" d="M187.47,-221.75C170.21,-219.51 151.92,-217.15 135.16,-214.98"/>
<polygon fill="#63b8ff" stroke="#63b8ff" points="187.12,-225.23 197.49,-223.04 188.02,-218.29 187.12,-225.23"/>
</a>
</g>
</g>
<!-- Node11 -->
<g id="Node000011" class="node">
<title>Node11</title>
<g id="a_Node000011"><a xlink:href="../../d5/dd7/classlamina_1_1RewriteVisitor.html#a773f5ef24dec7c401125e5fde25a52db" target="_top" xlink:title=" ">
<polygon fill="white" stroke="#666666" points="135,-174 10,-174 10,-144 135,-144 135,-174"/>
<text text-anchor="start" x="18" y="-162" font-family="Helvetica,sans-Serif" font-size="10.00">lamina::RewriteVisitor</text>
<text text-anchor="middle" x="72.5" y="-151" font-family="Helvetica,sans-Serif" font-size="10.00">::visit</text>
</a>
</g>
</g>
<!-- Node5&#45;&gt;Node11 -->
<g id="edge10_Node000005_Node000011" class="edge">
<title>Node5&#45;&gt;Node11</title>
<g id="a_edge10_Node000005_Node000011"><a xlink:title=" ">
<path fill="none" stroke="#63b8ff" d="M215.73,-211.88C194.56,-202.76 168.61,-191.92 145,-183 137.04,-179.99 128.51,-176.96 120.22,-174.12"/>
<polygon fill="#63b8ff" stroke="#63b8ff" points="214.53,-215.18 225.1,-215.94 217.31,-208.75 214.53,-215.18"/>
</a>
</g>
</g>
<!-- Node12 -->
<g id="Node000012" class="node">
<title>Node12</title>
<g id="a_Node000012"><a xlink:href="../../d5/dd7/classlamina_1_1RewriteVisitor.html#a6739ad24bf21c16b532402f8d322a1e9" target="_top" xlink:title=" ">
<polygon fill="white" stroke="#666666" points="135,-126 10,-126 10,-96 135,-96 135,-126"/>
<text text-anchor="start" x="18" y="-114" font-family="Helvetica,sans-Serif" font-size="10.00">lamina::RewriteVisitor</text>
<text text-anchor="middle" x="72.5" y="-103" font-family="Helvetica,sans-Serif" font-size="10.00">::visit</text>
</a>
</g>
</g>
<!-- Node5&#45;&gt;Node12 -->
<g id="edge11_Node000005_Node000012" class="edge">
<title>Node5&#45;&gt;Node12</title>
<g id="a_edge11_Node000005_Node000012"><a xlink:title=" ">
<path fill="none" stroke="#63b8ff" d="M237.84,-208.87C216.26,-187.39 180.92,-155.18 145,-135 139.06,-131.66 132.59,-128.69 126.04,-126.08"/>
<polygon fill="#63b8ff" stroke="#63b8ff" points="235.36,-211.33 244.88,-215.98 240.33,-206.41 235.36,-211.33"/>
</a>
</g>
</g>
<!-- Node13 -->
<g id="Node000013" class="node">
<title>Node13</title>
<g id="a_Node000013"><a xlink:href="../../d5/dd7/classlamina_1_1RewriteVisitor.html#adbcb8cb7d3d205ca3714db568fc3f690" target="_top" xlink:title=" ">
<polygon fill="white" stroke="#666666" points="135,-78 10,-78 10,-48 135,-48 135,-78"/>
<text text-anchor="start" x="18" y="-66" font-family="Helvetica,sans-Serif" font-size="10.00">lamina::RewriteVisitor</text>
<text text-anchor="middle" x="72.5" y="-55" font-family="Helvetica,sans-Serif" font-size="10.00">::visit</text>
</a>
</g>
</g>
<!-- Node5&#45;&gt;Node13 -->
<g id="edge12_Node000005_Node000013" class="edge">
<title>Node5&#45;&gt;Node13</title>
<g id="a_edge12_Node000005_Node000013"><a xlink:title=" ">
<path fill="none" stroke="#63b8ff" d="M245.67,-206.46C227.13,-174.53 190.63,-119.06 145,-87 140.18,-83.61 134.84,-80.67 129.32,-78.13"/>
<polygon fill="#63b8ff" stroke="#63b8ff" points="242.85,-208.59 250.83,-215.56 248.94,-205.13 242.85,-208.59"/>
</a>
</g>
</g>
<!-- Node14 -->
<g id="Node000014" class="node">
<title>Node14</title>
<g id="a_Node000014"><a xlink:href="../../d5/dd7/classlamina_1_1RewriteVisitor.html#a6a41770e5b9bdcad676cf4c051452c5c" target="_top" xlink:title=" ">
<polygon fill="white" stroke="#666666" points="135,-30 10,-30 10,0 135,0 135,-30"/>
<text text-anchor="start" x="18" y="-18" font-family="Helvetica,sans-Serif" font-size="10.00">lamina::RewriteVisitor</text>
<text text-anchor="middle" x="72.5" y="-7" font-family="Helvetica,sans-Serif" font-size="10.00">::visit</text>
</a>
</g>
</g>
<!-- Node5&#45;&gt;Node14 -->
<g id="edge13_Node000005_Node000014" class="edge">
<title>Node5&#45;&gt;Node14</title>
<g id="a_edge13_Node000005_Node000014"><a xlink:title=" ">
<path fill="none" stroke="#63b8ff" d="M250.74,-206.13C235.96,-165.38 201.18,-84.38 145,-39 140.72,-35.54 135.92,-32.58 130.89,-30.03"/>
<polygon fill="#63b8ff" stroke="#63b8ff" points="247.52,-207.54 254.15,-215.81 254.13,-205.22 247.52,-207.54"/>
</a>
</g>
</g>
</g>
</svg>
