<?xml version="1.0" encoding="UTF-8" standalone="no"?>
<!DOCTYPE svg PUBLIC "-//W3C//DTD SVG 1.1//EN"
 "http://www.w3.org/Graphics/SVG/1.1/DTD/svg11.dtd">
<!-- Generated by graphviz version 2.43.0 (0)
 -->
<!-- Title: lmmp_prime_size_ Pages: 1 -->
<!--zoomable 159 -->

<svg id="main" version="1.1" xmlns="http://www.w3.org/2000/svg" xmlns:xlink="http://www.w3.org/1999/xlink" xml:space="preserve" onload="init(evt)">
<style type="text/css"><![CDATA[
.node, .edge {opacity: 0.7;}
.node.selected, .edge.selected {opacity: 1;}
.edge:hover path { stroke: red; }
.edge:hover polygon { stroke: red; fill: red; }
]]></style>

<defs>
  <circle id="rim" cx="0" cy="0" r="7"/>
  <circle id="rim2" cx="0" cy="0" r="3.5"/>
  <g id="zoomPlus">
    <use xlink:href="#rim" fill="#404040"><set attributeName="fill" to="#808080" begin="zoomplus.mouseover" end="zoomplus.mouseout"/></use>
    <path d="M-4,0h8M0,-4v8" fill="none" stroke="white" stroke-width="1.5" pointer-events="none"/>
  </g>
  <g id="zoomMin">
    <use xlink:href="#rim" fill="#404040"><set attributeName="fill" to="#808080" begin="zoomminus.mouseover" end="zoomminus.mouseout"/></use>
    <path d="M-4,0h8" fill="none" stroke="white" stroke-width="1.5" pointer-events="none"/>
  </g>
  <g id="arrowUp" transform="translate(30 24)">
    <use xlink:href="#rim"/>
    <path pointer-events="none" fill="none" stroke="white" stroke-width="1.5" d="M0,-3.0v7 M-2.5,-0.5L0,-3.0L2.5,-0.5"/>
  </g>
  <g id="arrowRight" transform="rotate(90) translate(36 -43)">
    <use xlink:href="#rim"/>
    <path pointer-events="none" fill="none" stroke="white" stroke-width="1.5" d="M0,-3.0v7 M-2.5,-0.5L0,-3.0L2.5,-0.5"/>
  </g>
  <g id="arrowDown" transform="rotate(180) translate(-30 -48)">
    <use xlink:href="#rim"/>
    <path pointer-events="none" fill="none" stroke="white" stroke-width="1.5" d="M0,-3.0v7 M-2.5,-0.5L0,-3.0L2.5,-0.5"/>
  </g>
  <g id="arrowLeft" transform="rotate(270) translate(-36 17)">
    <use xlink:href="#rim"/>
    <path pointer-events="none" fill="none" stroke="white" stroke-width="1.5" d="M0,-3.0v7 M-2.5,-0.5L0,-3.0L2.5,-0.5"/>
  </g>
  <g id="resetDef">
    <use xlink:href="#rim2" fill="#404040"><set attributeName="fill" to="#808080" begin="reset.mouseover" end="reset.mouseout"/></use>
  </g>
</defs>
<script type="application/ecmascript">
var viewWidth = 592;
var viewHeight = 159;
var sectionId = 'dynsection-15';
</script>
<script type="application/ecmascript" xlink:href="../../svg.min.js"/>
<svg id="graph" class="graph">
<g id="viewport">
<title>lmmp_prime_size_</title>
<!-- Node1 -->
<g id="Node000001" class="node">
<title>Node1</title>
<g id="a_Node000001"><a xlink:title="估计 n 范围内的素数数量">
<polygon fill="#999999" stroke="#666666" points="584,-83 475,-83 475,-64 584,-64 584,-83"/>
<text text-anchor="middle" x="529.5" y="-71" font-family="Helvetica,sans-Serif" font-size="10.00">lmmp_prime_size_</text>
</a>
</g>
</g>
<!-- Node2 -->
<g id="Node000002" class="node">
<title>Node2</title>
<g id="a_Node000002"><a xlink:href="../../d5/d56/multinomial_8c.html#a352349f8bed333eaeba3b6323b996e58" target="_top" xlink:title=" ">
<polygon fill="white" stroke="#666666" points="423.5,-144 335.5,-144 335.5,-125 423.5,-125 423.5,-144"/>
<text text-anchor="middle" x="379.5" y="-132" font-family="Helvetica,sans-Serif" font-size="10.00">factor_size_int</text>
</a>
</g>
</g>
<!-- Node1&#45;&gt;Node2 -->
<g id="edge1_Node000001_Node000002" class="edge">
<title>Node1&#45;&gt;Node2</title>
<g id="a_edge1_Node000001_Node000002"><a xlink:title=" ">
<path fill="none" stroke="#63b8ff" d="M500.11,-87.39C482.67,-95.7 459.76,-106.22 439,-114.5 429.73,-118.2 419.47,-121.85 410.17,-125"/>
<polygon fill="#63b8ff" stroke="#63b8ff" points="501.69,-90.51 509.19,-83.03 498.66,-84.2 501.69,-90.51"/>
</a>
</g>
</g>
<!-- Node5 -->
<g id="Node000005" class="node">
<title>Node5</title>
<g id="a_Node000005"><a xlink:href="../../dd/ded/nCr_8c.html#a352349f8bed333eaeba3b6323b996e58" target="_top" xlink:title=" ">
<polygon fill="white" stroke="#666666" points="423.5,-105 335.5,-105 335.5,-86 423.5,-86 423.5,-105"/>
<text text-anchor="middle" x="379.5" y="-93" font-family="Helvetica,sans-Serif" font-size="10.00">factor_size_int</text>
</a>
</g>
</g>
<!-- Node1&#45;&gt;Node5 -->
<g id="edge4_Node000001_Node000005" class="edge">
<title>Node1&#45;&gt;Node5</title>
<g id="a_edge4_Node000001_Node000005"><a xlink:title=" ">
<path fill="none" stroke="#63b8ff" d="M464.73,-82.98C450.94,-85.03 436.67,-87.15 423.89,-89.05"/>
<polygon fill="#63b8ff" stroke="#63b8ff" points="465.27,-86.44 474.65,-81.5 464.24,-79.51 465.27,-86.44"/>
</a>
</g>
</g>
<!-- Node8 -->
<g id="Node000008" class="node">
<title>Node8</title>
<g id="a_Node000008"><a xlink:href="../../d9/d3a/factorial_8c.html#a9608ffdc19b75bf43b36242eb277cec4" target="_top" xlink:title=" ">
<polygon fill="white" stroke="#666666" points="436.5,-67.5 322.5,-67.5 322.5,-37.5 436.5,-37.5 436.5,-67.5"/>
<text text-anchor="start" x="330.5" y="-55.5" font-family="Helvetica,sans-Serif" font-size="10.00">lmmp_odd_factorial</text>
<text text-anchor="middle" x="379.5" y="-44.5" font-family="Helvetica,sans-Serif" font-size="10.00">_uint_</text>
</a>
</g>
</g>
<!-- Node1&#45;&gt;Node8 -->
<g id="edge7_Node000001_Node000008" class="edge">
<title>Node1&#45;&gt;Node8</title>
<g id="a_edge7_Node000001_Node000008"><a xlink:title=" ">
<path fill="none" stroke="#63b8ff" d="M464.63,-64.44C455.28,-63.11 445.72,-61.75 436.55,-60.45"/>
<polygon fill="#63b8ff" stroke="#63b8ff" points="464.26,-67.92 474.65,-65.86 465.24,-60.99 464.26,-67.92"/>
</a>
</g>
</g>
<!-- Node10 -->
<g id="Node000010" class="node">
<title>Node10</title>
<g id="a_Node000010"><a xlink:href="../../dc/d74/nPr_8c.html#a7f1696f78a67b1a57414b3489f3be0cd" target="_top" xlink:title=" ">
<polygon fill="white" stroke="#666666" points="439,-19 320,-19 320,0 439,0 439,-19"/>
<text text-anchor="middle" x="379.5" y="-7" font-family="Helvetica,sans-Serif" font-size="10.00">lmmp_odd_nPr_uint_</text>
</a>
</g>
</g>
<!-- Node1&#45;&gt;Node10 -->
<g id="edge9_Node000001_Node000010" class="edge">
<title>Node1&#45;&gt;Node10</title>
<g id="a_edge9_Node000001_Node000010"><a xlink:title=" ">
<path fill="none" stroke="#63b8ff" d="M502.3,-59C484.71,-49.6 460.85,-37.48 439,-28.5 430.7,-25.09 421.55,-21.87 413,-19.09"/>
<polygon fill="#63b8ff" stroke="#63b8ff" points="500.91,-62.23 511.37,-63.91 504.24,-56.07 500.91,-62.23"/>
</a>
</g>
</g>
<!-- Node3 -->
<g id="Node000003" class="node">
<title>Node3</title>
<g id="a_Node000003"><a xlink:href="../../d5/d56/multinomial_8c.html#abfed94c16a1b2457fdb2e9b6088abbe9" target="_top" xlink:title=" ">
<polygon fill="white" stroke="#666666" points="284,-150.5 151,-150.5 151,-120.5 284,-120.5 284,-150.5"/>
<text text-anchor="start" x="159" y="-138.5" font-family="Helvetica,sans-Serif" font-size="10.00">lmmp_odd_multinomial</text>
<text text-anchor="middle" x="217.5" y="-127.5" font-family="Helvetica,sans-Serif" font-size="10.00">_uint_</text>
</a>
</g>
</g>
<!-- Node2&#45;&gt;Node3 -->
<g id="edge2_Node000002_Node000003" class="edge">
<title>Node2&#45;&gt;Node3</title>
<g id="a_edge2_Node000002_Node000003"><a xlink:title=" ">
<path fill="none" stroke="#63b8ff" d="M324.95,-134.83C311.85,-134.92 297.68,-135.01 284.09,-135.09"/>
<polygon fill="#63b8ff" stroke="#63b8ff" points="325.22,-138.33 335.2,-134.77 325.18,-131.33 325.22,-138.33"/>
</a>
</g>
</g>
<!-- Node4 -->
<g id="Node000004" class="node">
<title>Node4</title>
<g id="a_Node000004"><a xlink:href="../../d5/d56/multinomial_8c.html#afc3b233e0d09b1a7fb4a78f31cff001b" target="_top" xlink:title=" ">
<polygon fill="white" stroke="#666666" points="115,-145 0,-145 0,-126 115,-126 115,-145"/>
<text text-anchor="middle" x="57.5" y="-133" font-family="Helvetica,sans-Serif" font-size="10.00">lmmp_multinomial_</text>
</a>
</g>
</g>
<!-- Node3&#45;&gt;Node4 -->
<g id="edge3_Node000003_Node000004" class="edge">
<title>Node3&#45;&gt;Node4</title>
<g id="a_edge3_Node000003_Node000004"><a xlink:title=" ">
<path fill="none" stroke="#63b8ff" d="M140.78,-135.5C132.14,-135.5 123.45,-135.5 115.13,-135.5"/>
<polygon fill="#63b8ff" stroke="#63b8ff" points="140.87,-139 150.87,-135.5 140.87,-132 140.87,-139"/>
</a>
</g>
</g>
<!-- Node6 -->
<g id="Node000006" class="node">
<title>Node6</title>
<g id="a_Node000006"><a xlink:href="../../dd/ded/nCr_8c.html#acf2a5abfcb591c5bfef6480f7b0d99d1" target="_top" xlink:title=" ">
<polygon fill="white" stroke="#666666" points="277,-102 158,-102 158,-83 277,-83 277,-102"/>
<text text-anchor="middle" x="217.5" y="-90" font-family="Helvetica,sans-Serif" font-size="10.00">lmmp_odd_nCr_uint_</text>
</a>
</g>
</g>
<!-- Node5&#45;&gt;Node6 -->
<g id="edge5_Node000005_Node000006" class="edge">
<title>Node5&#45;&gt;Node6</title>
<g id="a_edge5_Node000005_Node000006"><a xlink:title=" ">
<path fill="none" stroke="#63b8ff" d="M324.86,-94.49C309.54,-94.21 292.76,-93.89 277.15,-93.6"/>
<polygon fill="#63b8ff" stroke="#63b8ff" points="325.14,-98 335.2,-94.69 325.27,-91 325.14,-98"/>
</a>
</g>
</g>
<!-- Node7 -->
<g id="Node000007" class="node">
<title>Node7</title>
<g id="a_Node000007"><a xlink:href="../../dd/ded/nCr_8c.html#a9df9f98aa994cfd62b54926b1439d4b7" target="_top" xlink:title="计算 nCr 组合数 ( nCr = n! / (r!(n&#45;r)!) )">
<polygon fill="white" stroke="#666666" points="93.5,-102 21.5,-102 21.5,-83 93.5,-83 93.5,-102"/>
<text text-anchor="middle" x="57.5" y="-90" font-family="Helvetica,sans-Serif" font-size="10.00">lmmp_nCr_</text>
</a>
</g>
</g>
<!-- Node6&#45;&gt;Node7 -->
<g id="edge6_Node000006_Node000007" class="edge">
<title>Node6&#45;&gt;Node7</title>
<g id="a_edge6_Node000006_Node000007"><a xlink:title=" ">
<path fill="none" stroke="#63b8ff" d="M147.42,-92.5C128.79,-92.5 109.4,-92.5 93.51,-92.5"/>
<polygon fill="#63b8ff" stroke="#63b8ff" points="147.67,-96 157.67,-92.5 147.67,-89 147.67,-96"/>
</a>
</g>
</g>
<!-- Node9 -->
<g id="Node000009" class="node">
<title>Node9</title>
<g id="a_Node000009"><a xlink:href="../../d9/d3a/factorial_8c.html#a0cd11bd3b5c525a0307a4528ff30bd03" target="_top" xlink:title=" ">
<polygon fill="white" stroke="#666666" points="265.5,-62 169.5,-62 169.5,-43 265.5,-43 265.5,-62"/>
<text text-anchor="middle" x="217.5" y="-50" font-family="Helvetica,sans-Serif" font-size="10.00">lmmp_factorial_</text>
</a>
</g>
</g>
<!-- Node8&#45;&gt;Node9 -->
<g id="edge8_Node000008_Node000009" class="edge">
<title>Node8&#45;&gt;Node9</title>
<g id="a_edge8_Node000008_Node000009"><a xlink:title=" ">
<path fill="none" stroke="#63b8ff" d="M312,-52.5C296.44,-52.5 280.19,-52.5 265.67,-52.5"/>
<polygon fill="#63b8ff" stroke="#63b8ff" points="312.09,-56 322.09,-52.5 312.09,-49 312.09,-56"/>
</a>
</g>
</g>
<!-- Node11 -->
<g id="Node000011" class="node">
<title>Node11</title>
<g id="a_Node000011"><a xlink:href="../../dc/d74/nPr_8c.html#af69f80dd939d5c75bbddc2ecc8155a65" target="_top" xlink:title=" ">
<polygon fill="white" stroke="#666666" points="253,-19 182,-19 182,0 253,0 253,-19"/>
<text text-anchor="middle" x="217.5" y="-7" font-family="Helvetica,sans-Serif" font-size="10.00">lmmp_nPr_</text>
</a>
</g>
</g>
<!-- Node10&#45;&gt;Node11 -->
<g id="edge10_Node000010_Node000011" class="edge">
<title>Node10&#45;&gt;Node11</title>
<g id="a_edge10_Node000010_Node000011"><a xlink:title=" ">
<path fill="none" stroke="#63b8ff" d="M309.77,-9.5C290.32,-9.5 269.97,-9.5 253.43,-9.5"/>
<polygon fill="#63b8ff" stroke="#63b8ff" points="309.83,-13 319.83,-9.5 309.83,-6 309.83,-13"/>
</a>
</g>
</g>
</g>
</svg>

<g id="navigator" transform="translate(0 0)" fill="#404254">
  <rect fill="#f2f5e9" fill-opacity="0.5" stroke="#606060" stroke-width=".5" x="0" y="0" width="60" height="60"/>
  <use id="zoomplus" xlink:href="#zoomPlus" x="17" y="9" onmousedown="handleZoom(evt,'in')"/>
  <use id="zoomminus" xlink:href="#zoomMin" x="42" y="9" onmousedown="handleZoom(evt,'out')"/>
  <use id="reset" xlink:href="#resetDef" x="30" y="36" onmousedown="handleReset()"/>
   <use id="arrowup" xlink:href="#arrowUp" x="0" y="0" onmousedown="handlePan(0,-1)"/>
  <use id="arrowright" xlink:href="#arrowRight" x="0" y="0" onmousedown="handlePan(1,0)"/>
  <use id="arrowdown" xlink:href="#arrowDown" x="0" y="0" onmousedown="handlePan(0,1)"/>
  <use id="arrowleft" xlink:href="#arrowLeft" x="0" y="0" onmousedown="handlePan(-1,0)"/>
</g>
<svg viewBox="0 0 15 15" width="100%" height="30px" preserveAspectRatio="xMaxYMin meet">
 <g id="arrow_out" transform="scale(0.3 0.3)">
  <a xlink:href="prime__table_8h_abe42e35d952690561e872515a36de632_icgraph_org.svg" target="_base">
   <rect id="button" ry="5" rx="5" y="6" x="6" height="38" width="38"
        fill="#f2f5e9" fill-opacity="0.5" stroke="#606060" stroke-width="1.0"/>
   <path id="arrow"
     d="M 11.500037,31.436501 C 11.940474,20.09759 22.043105,11.32322 32.158766,21.979434 L 37.068811,17.246167 C 37.068811,17.246167 37.088388,32 37.088388,32 L 22.160133,31.978069 C 22.160133,31.978069 26.997745,27.140456 26.997745,27.140456 C 18.528582,18.264221 13.291696,25.230495 11.500037,31.436501 z"
     style="fill:#404040;"/>
  </a>
 </g>
</svg>

<style type='text/css'>
<![CDATA[
[data-mouse-over-selected='false'] { opacity: 0.7; }
[data-mouse-over-selected='true']  { opacity: 1.0; }
]]>
</style>
<script type="application/ecmascript"><![CDATA[
document.addEventListener('DOMContentLoaded', (event) => {
  highlightEdges();
  highlightAdjacentNodes();
});
]]></script>
</svg>
