<?xml version="1.0" encoding="UTF-8" standalone="no"?>
<!DOCTYPE svg PUBLIC "-//W3C//DTD SVG 1.1//EN"
 "http://www.w3.org/Graphics/SVG/1.1/DTD/svg11.dtd">
<!-- Generated by graphviz version 2.43.0 (0)
 -->
<!-- Title: lmmp_prime_cache_init_ Pages: 1 -->
<svg width="467pt" height="161pt"
 viewBox="0.00 0.00 467.00 160.50" xmlns="http://www.w3.org/2000/svg" xmlns:xlink="http://www.w3.org/1999/xlink">
<g id="graph0" class="graph" transform="scale(1 1) rotate(0) translate(4 156.5)">
<title>lmmp_prime_cache_init_</title>
<!-- Node1 -->
<g id="Node000001" class="node">
<title>Node1</title>
<g id="a_Node000001"><a xlink:title="初始化素数表缓存">
<polygon fill="#999999" stroke="#666666" points="459,-77 320,-77 320,-58 459,-58 459,-77"/>
<text text-anchor="middle" x="389.5" y="-65" font-family="Helvetica,sans-Serif" font-size="10.00">lmmp_prime_cache_init_</text>
</a>
</g>
</g>
<!-- Node2 -->
<g id="Node000002" class="node">
<title>Node2</title>
<g id="a_Node000002"><a xlink:href="../../d9/d3a/factorial_8c.html#a9608ffdc19b75bf43b36242eb277cec4" target="_top" xlink:title=" ">
<polygon fill="white" stroke="#666666" points="274.5,-152.5 160.5,-152.5 160.5,-122.5 274.5,-122.5 274.5,-152.5"/>
<text text-anchor="start" x="168.5" y="-140.5" font-family="Helvetica,sans-Serif" font-size="10.00">lmmp_odd_factorial</text>
<text text-anchor="middle" x="217.5" y="-129.5" font-family="Helvetica,sans-Serif" font-size="10.00">_uint_</text>
</a>
</g>
</g>
<!-- Node1&#45;&gt;Node2 -->
<g id="edge1_Node000001_Node000002" class="edge">
<title>Node1&#45;&gt;Node2</title>
<g id="a_edge1_Node000001_Node000002"><a xlink:title=" ">
<path fill="none" stroke="#63b8ff" d="M358.59,-81.27C337.81,-90.69 309.4,-103.27 284,-113.5 276.59,-116.49 268.64,-119.53 260.93,-122.4"/>
<polygon fill="#63b8ff" stroke="#63b8ff" points="360.2,-84.38 367.85,-77.06 357.3,-78.01 360.2,-84.38"/>
</a>
</g>
</g>
<!-- Node4 -->
<g id="Node000004" class="node">
<title>Node4</title>
<g id="a_Node000004"><a xlink:href="../../d5/d56/multinomial_8c.html#abfed94c16a1b2457fdb2e9b6088abbe9" target="_top" xlink:title=" ">
<polygon fill="white" stroke="#666666" points="284,-104.5 151,-104.5 151,-74.5 284,-74.5 284,-104.5"/>
<text text-anchor="start" x="159" y="-92.5" font-family="Helvetica,sans-Serif" font-size="10.00">lmmp_odd_multinomial</text>
<text text-anchor="middle" x="217.5" y="-81.5" font-family="Helvetica,sans-Serif" font-size="10.00">_uint_</text>
</a>
</g>
</g>
<!-- Node1&#45;&gt;Node4 -->
<g id="edge3_Node000001_Node000004" class="edge">
<title>Node1&#45;&gt;Node4</title>
<g id="a_edge3_Node000001_Node000004"><a xlink:title=" ">
<path fill="none" stroke="#63b8ff" d="M309.81,-77.68C301.21,-78.8 292.52,-79.92 284.1,-81.01"/>
<polygon fill="#63b8ff" stroke="#63b8ff" points="310.38,-81.14 319.84,-76.38 309.48,-74.2 310.38,-81.14"/>
</a>
</g>
</g>
<!-- Node6 -->
<g id="Node000006" class="node">
<title>Node6</title>
<g id="a_Node000006"><a xlink:href="../../dd/ded/nCr_8c.html#acf2a5abfcb591c5bfef6480f7b0d99d1" target="_top" xlink:title=" ">
<polygon fill="white" stroke="#666666" points="277,-56 158,-56 158,-37 277,-37 277,-56"/>
<text text-anchor="middle" x="217.5" y="-44" font-family="Helvetica,sans-Serif" font-size="10.00">lmmp_odd_nCr_uint_</text>
</a>
</g>
</g>
<!-- Node1&#45;&gt;Node6 -->
<g id="edge5_Node000001_Node000006" class="edge">
<title>Node1&#45;&gt;Node6</title>
<g id="a_edge5_Node000001_Node000006"><a xlink:title=" ">
<path fill="none" stroke="#63b8ff" d="M309.78,-57.78C298.76,-56.41 287.6,-55.04 277.04,-53.73"/>
<polygon fill="#63b8ff" stroke="#63b8ff" points="309.49,-61.27 319.84,-59.02 310.35,-54.32 309.49,-61.27"/>
</a>
</g>
</g>
<!-- Node8 -->
<g id="Node000008" class="node">
<title>Node8</title>
<g id="a_Node000008"><a xlink:href="../../dc/d74/nPr_8c.html#a7f1696f78a67b1a57414b3489f3be0cd" target="_top" xlink:title=" ">
<polygon fill="white" stroke="#666666" points="277,-19 158,-19 158,0 277,0 277,-19"/>
<text text-anchor="middle" x="217.5" y="-7" font-family="Helvetica,sans-Serif" font-size="10.00">lmmp_odd_nPr_uint_</text>
</a>
</g>
</g>
<!-- Node1&#45;&gt;Node8 -->
<g id="edge7_Node000001_Node000008" class="edge">
<title>Node1&#45;&gt;Node8</title>
<g id="a_edge7_Node000001_Node000008"><a xlink:title=" ">
<path fill="none" stroke="#63b8ff" d="M356.01,-54.13C335.53,-45.93 308.43,-35.51 284,-27.5 274.92,-24.52 265.03,-21.63 255.75,-19.06"/>
<polygon fill="#63b8ff" stroke="#63b8ff" points="354.91,-57.45 365.49,-57.95 357.52,-50.96 354.91,-57.45"/>
</a>
</g>
</g>
<!-- Node3 -->
<g id="Node000003" class="node">
<title>Node3</title>
<g id="a_Node000003"><a xlink:href="../../d9/d3a/factorial_8c.html#a0cd11bd3b5c525a0307a4528ff30bd03" target="_top" xlink:title=" ">
<polygon fill="white" stroke="#666666" points="105.5,-147 9.5,-147 9.5,-128 105.5,-128 105.5,-147"/>
<text text-anchor="middle" x="57.5" y="-135" font-family="Helvetica,sans-Serif" font-size="10.00">lmmp_factorial_</text>
</a>
</g>
</g>
<!-- Node2&#45;&gt;Node3 -->
<g id="edge2_Node000002_Node000003" class="edge">
<title>Node2&#45;&gt;Node3</title>
<g id="a_edge2_Node000002_Node000003"><a xlink:title=" ">
<path fill="none" stroke="#63b8ff" d="M150.12,-137.5C135.16,-137.5 119.57,-137.5 105.59,-137.5"/>
<polygon fill="#63b8ff" stroke="#63b8ff" points="150.35,-141 160.35,-137.5 150.35,-134 150.35,-141"/>
</a>
</g>
</g>
<!-- Node5 -->
<g id="Node000005" class="node">
<title>Node5</title>
<g id="a_Node000005"><a xlink:href="../../d5/d56/multinomial_8c.html#afc3b233e0d09b1a7fb4a78f31cff001b" target="_top" xlink:title=" ">
<polygon fill="white" stroke="#666666" points="115,-99 0,-99 0,-80 115,-80 115,-99"/>
<text text-anchor="middle" x="57.5" y="-87" font-family="Helvetica,sans-Serif" font-size="10.00">lmmp_multinomial_</text>
</a>
</g>
</g>
<!-- Node4&#45;&gt;Node5 -->
<g id="edge4_Node000004_Node000005" class="edge">
<title>Node4&#45;&gt;Node5</title>
<g id="a_edge4_Node000004_Node000005"><a xlink:title=" ">
<path fill="none" stroke="#63b8ff" d="M140.78,-89.5C132.14,-89.5 123.45,-89.5 115.13,-89.5"/>
<polygon fill="#63b8ff" stroke="#63b8ff" points="140.87,-93 150.87,-89.5 140.87,-86 140.87,-93"/>
</a>
</g>
</g>
<!-- Node7 -->
<g id="Node000007" class="node">
<title>Node7</title>
<g id="a_Node000007"><a xlink:href="../../dd/ded/nCr_8c.html#a9df9f98aa994cfd62b54926b1439d4b7" target="_top" xlink:title="计算 nCr 组合数 ( nCr = n! / (r!(n&#45;r)!) )">
<polygon fill="white" stroke="#666666" points="93.5,-56 21.5,-56 21.5,-37 93.5,-37 93.5,-56"/>
<text text-anchor="middle" x="57.5" y="-44" font-family="Helvetica,sans-Serif" font-size="10.00">lmmp_nCr_</text>
</a>
</g>
</g>
<!-- Node6&#45;&gt;Node7 -->
<g id="edge6_Node000006_Node000007" class="edge">
<title>Node6&#45;&gt;Node7</title>
<g id="a_edge6_Node000006_Node000007"><a xlink:title=" ">
<path fill="none" stroke="#63b8ff" d="M147.42,-46.5C128.79,-46.5 109.4,-46.5 93.51,-46.5"/>
<polygon fill="#63b8ff" stroke="#63b8ff" points="147.67,-50 157.67,-46.5 147.67,-43 147.67,-50"/>
</a>
</g>
</g>
<!-- Node9 -->
<g id="Node000009" class="node">
<title>Node9</title>
<g id="a_Node000009"><a xlink:href="../../dc/d74/nPr_8c.html#af69f80dd939d5c75bbddc2ecc8155a65" target="_top" xlink:title=" ">
<polygon fill="white" stroke="#666666" points="93,-19 22,-19 22,0 93,0 93,-19"/>
<text text-anchor="middle" x="57.5" y="-7" font-family="Helvetica,sans-Serif" font-size="10.00">lmmp_nPr_</text>
</a>
</g>
</g>
<!-- Node8&#45;&gt;Node9 -->
<g id="edge8_Node000008_Node000009" class="edge">
<title>Node8&#45;&gt;Node9</title>
<g id="a_edge8_Node000008_Node000009"><a xlink:title=" ">
<path fill="none" stroke="#63b8ff" d="M147.6,-9.5C128.73,-9.5 109.08,-9.5 93.05,-9.5"/>
<polygon fill="#63b8ff" stroke="#63b8ff" points="147.67,-13 157.67,-9.5 147.67,-6 147.67,-13"/>
</a>
</g>
</g>
</g>
</svg>
