<?xml version="1.0" encoding="UTF-8" standalone="no"?>
<!DOCTYPE svg PUBLIC "-//W3C//DTD SVG 1.1//EN"
 "http://www.w3.org/Graphics/SVG/1.1/DTD/svg11.dtd">
<!-- Generated by graphviz version 2.43.0 (0)
 -->
<!-- Title: lmmp_mul_toom52_ Pages: 1 -->
<!--zoomable 438 -->

<svg id="main" version="1.1" xmlns="http://www.w3.org/2000/svg" xmlns:xlink="http://www.w3.org/1999/xlink" xml:space="preserve" onload="init(evt)">
<style type="text/css"><![CDATA[
.node, .edge {opacity: 0.7;}
.node.selected, .edge.selected {opacity: 1;}
.edge:hover path { stroke: red; }
.edge:hover polygon { stroke: red; fill: red; }
]]></style>

<defs>
  <circle id="rim" cx="0" cy="0" r="7"/>
  <circle id="rim2" cx="0" cy="0" r="3.5"/>
  <g id="zoomPlus">
    <use xlink:href="#rim" fill="#404040"><set attributeName="fill" to="#808080" begin="zoomplus.mouseover" end="zoomplus.mouseout"/></use>
    <path d="M-4,0h8M0,-4v8" fill="none" stroke="white" stroke-width="1.5" pointer-events="none"/>
  </g>
  <g id="zoomMin">
    <use xlink:href="#rim" fill="#404040"><set attributeName="fill" to="#808080" begin="zoomminus.mouseover" end="zoomminus.mouseout"/></use>
    <path d="M-4,0h8" fill="none" stroke="white" stroke-width="1.5" pointer-events="none"/>
  </g>
  <g id="arrowUp" transform="translate(30 24)">
    <use xlink:href="#rim"/>
    <path pointer-events="none" fill="none" stroke="white" stroke-width="1.5" d="M0,-3.0v7 M-2.5,-0.5L0,-3.0L2.5,-0.5"/>
  </g>
  <g id="arrowRight" transform="rotate(90) translate(36 -43)">
    <use xlink:href="#rim"/>
    <path pointer-events="none" fill="none" stroke="white" stroke-width="1.5" d="M0,-3.0v7 M-2.5,-0.5L0,-3.0L2.5,-0.5"/>
  </g>
  <g id="arrowDown" transform="rotate(180) translate(-30 -48)">
    <use xlink:href="#rim"/>
    <path pointer-events="none" fill="none" stroke="white" stroke-width="1.5" d="M0,-3.0v7 M-2.5,-0.5L0,-3.0L2.5,-0.5"/>
  </g>
  <g id="arrowLeft" transform="rotate(270) translate(-36 17)">
    <use xlink:href="#rim"/>
    <path pointer-events="none" fill="none" stroke="white" stroke-width="1.5" d="M0,-3.0v7 M-2.5,-0.5L0,-3.0L2.5,-0.5"/>
  </g>
  <g id="resetDef">
    <use xlink:href="#rim2" fill="#404040"><set attributeName="fill" to="#808080" begin="reset.mouseover" end="reset.mouseout"/></use>
  </g>
</defs>
<script type="application/ecmascript">
var viewWidth = 578;
var viewHeight = 438;
var sectionId = 'dynsection-1';
</script>
<script type="application/ecmascript" xlink:href="../../svg.min.js"/>
<svg id="graph" class="graph">
<g id="viewport">
<title>lmmp_mul_toom52_</title>
<!-- Node1 -->
<g id="Node000001" class="node">
<title>Node1</title>
<g id="a_Node000001"><a xlink:title=" ">
<polygon fill="#999999" stroke="#666666" points="117,-224 0,-224 0,-205 117,-205 117,-224"/>
<text text-anchor="middle" x="58.5" y="-212" font-family="Helvetica,sans-Serif" font-size="10.00">lmmp_mul_toom52_</text>
</a>
</g>
</g>
<!-- Node2 -->
<g id="Node000002" class="node">
<title>Node2</title>
<g id="a_Node000002"><a xlink:href="../../d6/d39/lmmpn_8h.html#a1eb04fffd70d523647b7b4ed64a438c5" target="_top" xlink:title="大数加法静态内联函数 [dst,na]=[numa,na]+[numb,nb]">
<polygon fill="white" stroke="#666666" points="420.5,-430 346.5,-430 346.5,-411 420.5,-411 420.5,-430"/>
<text text-anchor="middle" x="383.5" y="-418" font-family="Helvetica,sans-Serif" font-size="10.00">lmmp_add_</text>
</a>
</g>
</g>
<!-- Node1&#45;&gt;Node2 -->
<g id="edge1_Node000001_Node000002" class="edge">
<title>Node1&#45;&gt;Node2</title>
<g id="a_edge1_Node000001_Node000002"><a xlink:title=" ">
<path fill="none" stroke="#63b8ff" d="M62,-224.01C69.96,-252.21 97.46,-335.92 153,-375.5 207.33,-414.22 286.46,-421.77 336.18,-422.22"/>
<polygon fill="#63b8ff" stroke="#63b8ff" points="336.32,-425.72 346.32,-422.21 336.32,-418.72 336.32,-425.72"/>
</a>
</g>
</g>
<!-- Node4 -->
<g id="Node000004" class="node">
<title>Node4</title>
<g id="a_Node000004"><a xlink:href="../../d5/db9/add__n__sub__n_8c.html#accedf10c55a5675d82795f37a9fdf356" target="_top" xlink:title="同时执行n位加法和减法 ([dsta,n],[dstb,n]) = ([numa,n]+[numb,n],[numa,n]&#45;[numb,n])">
<polygon fill="white" stroke="#666666" points="443,-317 324,-317 324,-298 443,-298 443,-317"/>
<text text-anchor="middle" x="383.5" y="-305" font-family="Helvetica,sans-Serif" font-size="10.00">lmmp_add_n_sub_n_</text>
</a>
</g>
</g>
<!-- Node1&#45;&gt;Node4 -->
<g id="edge3_Node000001_Node000004" class="edge">
<title>Node1&#45;&gt;Node4</title>
<g id="a_edge3_Node000001_Node000004"><a xlink:title=" ">
<path fill="none" stroke="#63b8ff" d="M75.14,-224.01C93.27,-234.63 124.31,-251.62 153,-261.5 205.62,-279.63 267.62,-291.53 313.9,-298.67"/>
<polygon fill="#63b8ff" stroke="#63b8ff" points="313.42,-302.14 323.83,-300.17 314.46,-295.21 313.42,-302.14"/>
</a>
</g>
</g>
<!-- Node7 -->
<g id="Node000007" class="node">
<title>Node7</title>
<g id="a_Node000007"><a xlink:href="../../d6/d39/lmmpn_8h.html#a27b630fe59d53b8174b5ddb04202e556" target="_top" xlink:title="大数比较函数（内联）">
<polygon fill="white" stroke="#666666" points="422,-354 345,-354 345,-335 422,-335 422,-354"/>
<text text-anchor="middle" x="383.5" y="-342" font-family="Helvetica,sans-Serif" font-size="10.00">lmmp_cmp_</text>
</a>
</g>
</g>
<!-- Node1&#45;&gt;Node7 -->
<g id="edge6_Node000001_Node000007" class="edge">
<title>Node1&#45;&gt;Node7</title>
<g id="a_edge6_Node000001_Node000007"><a xlink:title=" ">
<path fill="none" stroke="#63b8ff" d="M68.32,-224.07C83.82,-240.3 117.71,-273.15 153,-290.5 211.86,-319.43 286.96,-333.3 334.9,-339.63"/>
<polygon fill="#63b8ff" stroke="#63b8ff" points="334.64,-343.12 345,-340.9 335.51,-336.18 334.64,-343.12"/>
</a>
</g>
</g>
<!-- Node8 -->
<g id="Node000008" class="node">
<title>Node8</title>
<g id="a_Node000008"><a xlink:href="../../d6/d39/lmmpn_8h.html#a72d4d8c682124218c7a0c7c3e5f818ce" target="_top" xlink:title="不等长大数乘法操作 [dst,na+nb] = [numa,na] * [numb,nb]">
<polygon fill="white" stroke="#666666" points="257,-73 183,-73 183,-54 257,-54 257,-73"/>
<text text-anchor="middle" x="220" y="-61" font-family="Helvetica,sans-Serif" font-size="10.00">lmmp_mul_</text>
</a>
</g>
</g>
<!-- Node1&#45;&gt;Node8 -->
<g id="edge7_Node000001_Node000008" class="edge">
<title>Node1&#45;&gt;Node8</title>
<g id="a_edge7_Node000001_Node000008"><a xlink:title=" ">
<path fill="none" stroke="#63b8ff" d="M63.52,-204.73C74.18,-180.03 105.65,-114.75 153,-81.5 159.01,-77.28 165.98,-74.04 173.08,-71.57"/>
<polygon fill="#63b8ff" stroke="#63b8ff" points="174.21,-74.88 182.77,-68.64 172.19,-68.18 174.21,-74.88"/>
</a>
</g>
</g>
<!-- Node9 -->
<g id="Node000009" class="node">
<title>Node9</title>
<g id="a_Node000009"><a xlink:href="../../d6/d39/lmmpn_8h.html#ab6382940233ad6954ef892141066bc8a" target="_top" xlink:title="大数减法静态内联函数 [dst,na]=[numa,na]&#45;[numb,nb]">
<polygon fill="white" stroke="#666666" points="256.5,-110 183.5,-110 183.5,-91 256.5,-91 256.5,-110"/>
<text text-anchor="middle" x="220" y="-98" font-family="Helvetica,sans-Serif" font-size="10.00">lmmp_sub_</text>
</a>
</g>
</g>
<!-- Node1&#45;&gt;Node9 -->
<g id="edge8_Node000001_Node000009" class="edge">
<title>Node1&#45;&gt;Node9</title>
<g id="a_edge8_Node000001_Node000009"><a xlink:title=" ">
<path fill="none" stroke="#63b8ff" d="M67.23,-204.73C82.05,-186.57 116.29,-147.39 153,-124.5 159.77,-120.28 167.38,-116.65 174.97,-113.59"/>
<polygon fill="#63b8ff" stroke="#63b8ff" points="176.38,-116.8 184.5,-110 173.91,-110.25 176.38,-116.8"/>
</a>
</g>
</g>
<!-- Node10 -->
<g id="Node000010" class="node">
<title>Node10</title>
<g id="a_Node000010"><a xlink:href="../../d3/d44/sub__n_8c.html#ae0e05032a43c35021a6d6859ed51f467" target="_top" xlink:title="无借位的n位减法 [dst,n] = [numa,n] &#45; [numb,n]">
<polygon fill="white" stroke="#666666" points="425.5,-19 341.5,-19 341.5,0 425.5,0 425.5,-19"/>
<text text-anchor="middle" x="383.5" y="-7" font-family="Helvetica,sans-Serif" font-size="10.00">lmmp_sub_n_</text>
</a>
</g>
</g>
<!-- Node1&#45;&gt;Node10 -->
<g id="edge10_Node000001_Node000010" class="edge">
<title>Node1&#45;&gt;Node10</title>
<g id="a_edge10_Node000001_Node000010"><a xlink:title=" ">
<path fill="none" stroke="#63b8ff" d="M72.82,-204.81C90.42,-192.38 122.73,-170.85 153,-157.5 209.75,-132.47 241.14,-160.26 287,-118.5 319.16,-89.22 291,-56.95 323,-27.5 325.78,-24.94 328.92,-22.74 332.26,-20.85"/>
<polygon fill="#63b8ff" stroke="#63b8ff" points="333.9,-23.95 341.49,-16.56 330.94,-17.61 333.9,-23.95"/>
</a>
</g>
</g>
<!-- Node11 -->
<g id="Node000011" class="node">
<title>Node11</title>
<g id="a_Node000011"><a xlink:href="../../d1/d0a/mul__toom__eval_8c.html#ad5101b25e1eb55014d6a66e6376eb797" target="_top" xlink:title="通用高阶 Toom 求值：k次多项式在 x = +1 和 x = &#45;1 处求值">
<polygon fill="white" stroke="#666666" points="287,-366 153,-366 153,-347 287,-347 287,-366"/>
<text text-anchor="middle" x="220" y="-354" font-family="Helvetica,sans-Serif" font-size="10.00">lmmp_toom_eval_pm1_</text>
</a>
</g>
</g>
<!-- Node1&#45;&gt;Node11 -->
<g id="edge11_Node000001_Node000011" class="edge">
<title>Node1&#45;&gt;Node11</title>
<g id="a_edge11_Node000001_Node000011"><a xlink:title=" ">
<path fill="none" stroke="#63b8ff" d="M64.69,-224.24C77.05,-246.55 110.39,-301.77 153,-332.5 158.71,-336.62 165.21,-340.1 171.85,-343.03"/>
<polygon fill="#63b8ff" stroke="#63b8ff" points="171.01,-346.46 181.59,-346.92 173.6,-339.96 171.01,-346.46"/>
</a>
</g>
</g>
<!-- Node12 -->
<g id="Node000012" class="node">
<title>Node12</title>
<g id="a_Node000012"><a xlink:href="../../d1/d0a/mul__toom__eval_8c.html#a4ebbdc3171082a4955bb5049a0b4b50a" target="_top" xlink:title="通用高阶 Toom 求值：k次多项式在 x = +2 和 x = &#45;2 处求值">
<polygon fill="white" stroke="#666666" points="287,-252 153,-252 153,-233 287,-233 287,-252"/>
<text text-anchor="middle" x="220" y="-240" font-family="Helvetica,sans-Serif" font-size="10.00">lmmp_toom_eval_pm2_</text>
</a>
</g>
</g>
<!-- Node1&#45;&gt;Node12 -->
<g id="edge16_Node000001_Node000012" class="edge">
<title>Node1&#45;&gt;Node12</title>
<g id="a_edge16_Node000001_Node000012"><a xlink:title=" ">
<path fill="none" stroke="#63b8ff" d="M113.94,-224.06C127.03,-226.36 141.14,-228.83 154.63,-231.2"/>
<polygon fill="#63b8ff" stroke="#63b8ff" points="154.35,-234.7 164.8,-232.99 155.56,-227.81 154.35,-234.7"/>
</a>
</g>
</g>
<!-- Node15 -->
<g id="Node000015" class="node">
<title>Node15</title>
<g id="a_Node000015"><a xlink:href="../../da/d7f/mul__toom__interp6_8c.html#a5479cf130e909e3d594782131ef3ca22" target="_top" xlink:title="Toom插值计算（6点插值）：用于Toom&#45;43和Toom&#45;52 乘法算法">
<polygon fill="white" stroke="#666666" points="280.5,-186 159.5,-186 159.5,-167 280.5,-167 280.5,-186"/>
<text text-anchor="middle" x="220" y="-174" font-family="Helvetica,sans-Serif" font-size="10.00">lmmp_toom_interp6_</text>
</a>
</g>
</g>
<!-- Node1&#45;&gt;Node15 -->
<g id="edge21_Node000001_Node000015" class="edge">
<title>Node1&#45;&gt;Node15</title>
<g id="a_edge21_Node000001_Node000015"><a xlink:title=" ">
<path fill="none" stroke="#63b8ff" d="M99.75,-204.91C120.8,-199.9 146.76,-193.71 169.07,-188.39"/>
<polygon fill="#63b8ff" stroke="#63b8ff" points="170.12,-191.74 179.04,-186.02 168.5,-184.93 170.12,-191.74"/>
</a>
</g>
</g>
<!-- Node20 -->
<g id="Node000020" class="node">
<title>Node20</title>
<g id="a_Node000020"><a xlink:href="../../d6/d39/lmmpn_8h.html#afa8f36d4b874f3c5482caaf4c63ef6d5" target="_top" xlink:title="大数判零函数（内联）">
<polygon fill="white" stroke="#666666" points="264,-36 176,-36 176,-17 264,-17 264,-36"/>
<text text-anchor="middle" x="220" y="-24" font-family="Helvetica,sans-Serif" font-size="10.00">lmmp_zero_q_</text>
</a>
</g>
</g>
<!-- Node1&#45;&gt;Node20 -->
<g id="edge29_Node000001_Node000020" class="edge">
<title>Node1&#45;&gt;Node20</title>
<g id="a_edge29_Node000001_Node000020"><a xlink:title=" ">
<path fill="none" stroke="#63b8ff" d="M61.98,-204.66C69.85,-175.45 97.16,-88.47 153,-44.5 157.04,-41.32 161.59,-38.7 166.38,-36.54"/>
<polygon fill="#63b8ff" stroke="#63b8ff" points="167.71,-39.79 175.79,-32.94 165.2,-33.25 167.71,-39.79"/>
</a>
</g>
</g>
<!-- Node3 -->
<g id="Node000003" class="node">
<title>Node3</title>
<g id="a_Node000003"><a xlink:href="../../da/dc7/add__n_8c.html#afa05758121cca6aa6b21256d5a959871" target="_top" xlink:title="无进位的n位加法 [dst,n] = [numa,n] + [numb,n]">
<polygon fill="white" stroke="#666666" points="567.5,-392 482.5,-392 482.5,-373 567.5,-373 567.5,-392"/>
<text text-anchor="middle" x="525" y="-380" font-family="Helvetica,sans-Serif" font-size="10.00">lmmp_add_n_</text>
</a>
</g>
</g>
<!-- Node2&#45;&gt;Node3 -->
<g id="edge2_Node000002_Node000003" class="edge">
<title>Node2&#45;&gt;Node3</title>
<g id="a_edge2_Node000002_Node000003"><a xlink:title=" ">
<path fill="none" stroke="#63b8ff" d="M419.7,-410.91C437.71,-406.01 459.83,-399.98 479.06,-394.74"/>
<polygon fill="#63b8ff" stroke="#63b8ff" points="480.08,-398.09 488.81,-392.09 478.24,-391.34 480.08,-398.09"/>
</a>
</g>
</g>
<!-- Node5 -->
<g id="Node000005" class="node">
<title>Node5</title>
<g id="a_Node000005"><a xlink:href="../../da/dc7/add__n_8c.html#aa06f92c7f9a675b88556524c8e09ecbd" target="_top" xlink:title="带进位的n位加法 [dst,n] = [numa,n] + [numb,n] + c">
<polygon fill="white" stroke="#666666" points="570,-298 480,-298 480,-279 570,-279 570,-298"/>
<text text-anchor="middle" x="525" y="-286" font-family="Helvetica,sans-Serif" font-size="10.00">lmmp_add_nc_</text>
</a>
</g>
</g>
<!-- Node4&#45;&gt;Node5 -->
<g id="edge4_Node000004_Node000005" class="edge">
<title>Node4&#45;&gt;Node5</title>
<g id="a_edge4_Node000004_Node000005"><a xlink:title=" ">
<path fill="none" stroke="#63b8ff" d="M443.26,-299.5C452.03,-298.3 461.05,-297.07 469.73,-295.89"/>
<polygon fill="#63b8ff" stroke="#63b8ff" points="470.29,-299.35 479.73,-294.53 469.35,-292.41 470.29,-299.35"/>
</a>
</g>
</g>
<!-- Node6 -->
<g id="Node000006" class="node">
<title>Node6</title>
<g id="a_Node000006"><a xlink:href="../../d3/d44/sub__n_8c.html#af53a20c46d5cd5ee5f6a599b04aec190" target="_top" xlink:title="带借位的n位减法 [dst,n] = [numa,n] &#45; [numb,n] &#45; c">
<polygon fill="white" stroke="#666666" points="569.5,-335 480.5,-335 480.5,-316 569.5,-316 569.5,-335"/>
<text text-anchor="middle" x="525" y="-323" font-family="Helvetica,sans-Serif" font-size="10.00">lmmp_sub_nc_</text>
</a>
</g>
</g>
<!-- Node4&#45;&gt;Node6 -->
<g id="edge5_Node000004_Node000006" class="edge">
<title>Node4&#45;&gt;Node6</title>
<g id="a_edge5_Node000004_Node000006"><a xlink:title=" ">
<path fill="none" stroke="#63b8ff" d="M443.26,-315.08C452.14,-316.23 461.27,-317.41 470.04,-318.54"/>
<polygon fill="#63b8ff" stroke="#63b8ff" points="469.78,-322.03 480.15,-319.84 470.68,-315.09 469.78,-322.03"/>
</a>
</g>
</g>
<!-- Node9&#45;&gt;Node10 -->
<g id="edge9_Node000009_Node000010" class="edge">
<title>Node9&#45;&gt;Node10</title>
<g id="a_edge9_Node000009_Node000010"><a xlink:title=" ">
<path fill="none" stroke="#63b8ff" d="M256.65,-95.07C267.13,-92.25 278.15,-87.98 287,-81.5 310.28,-64.47 299.83,-44.69 323,-27.5 325.82,-25.41 328.87,-23.56 332.07,-21.93"/>
<polygon fill="#63b8ff" stroke="#63b8ff" points="333.6,-25.08 341.35,-17.86 330.78,-18.67 333.6,-25.08"/>
</a>
</g>
</g>
<!-- Node11&#45;&gt;Node2 -->
<g id="edge12_Node000011_Node000002" class="edge">
<title>Node11&#45;&gt;Node2</title>
<g id="a_edge12_Node000011_Node000002"><a xlink:title=" ">
<path fill="none" stroke="#63b8ff" d="M245.18,-366.08C272.73,-377 317.94,-394.92 348.91,-407.19"/>
<polygon fill="#63b8ff" stroke="#63b8ff" points="347.83,-410.53 358.42,-410.96 350.41,-404.02 347.83,-410.53"/>
</a>
</g>
</g>
<!-- Node11&#45;&gt;Node3 -->
<g id="edge13_Node000011_Node000003" class="edge">
<title>Node11&#45;&gt;Node3</title>
<g id="a_edge13_Node000011_Node000003"><a xlink:title=" ">
<path fill="none" stroke="#63b8ff" d="M287.12,-362.17C342.67,-366.94 420.96,-373.66 472.09,-378.05"/>
<polygon fill="#63b8ff" stroke="#63b8ff" points="471.99,-381.55 482.25,-378.92 472.59,-374.58 471.99,-381.55"/>
</a>
</g>
</g>
<!-- Node11&#45;&gt;Node4 -->
<g id="edge14_Node000011_Node000004" class="edge">
<title>Node11&#45;&gt;Node4</title>
<g id="a_edge14_Node000011_Node000004"><a xlink:title=" ">
<path fill="none" stroke="#63b8ff" d="M252.52,-346.94C277.87,-339.25 313.67,-328.38 341.29,-320"/>
<polygon fill="#63b8ff" stroke="#63b8ff" points="342.5,-323.29 351.06,-317.04 340.47,-316.59 342.5,-323.29"/>
</a>
</g>
</g>
<!-- Node11&#45;&gt;Node7 -->
<g id="edge15_Node000011_Node000007" class="edge">
<title>Node11&#45;&gt;Node7</title>
<g id="a_edge15_Node000011_Node000007"><a xlink:title=" ">
<path fill="none" stroke="#63b8ff" d="M287.15,-351.58C303.15,-350.4 319.94,-349.15 334.89,-348.04"/>
<polygon fill="#63b8ff" stroke="#63b8ff" points="335.2,-351.52 344.91,-347.29 334.68,-344.54 335.2,-351.52"/>
</a>
</g>
</g>
<!-- Node12&#45;&gt;Node4 -->
<g id="edge18_Node000012_Node000004" class="edge">
<title>Node12&#45;&gt;Node4</title>
<g id="a_edge18_Node000012_Node000004"><a xlink:title=" ">
<path fill="none" stroke="#63b8ff" d="M251.48,-252.01C262.86,-255.97 275.74,-260.94 287,-266.5 304.02,-274.91 305.75,-281.57 323,-289.5 327.02,-291.35 331.29,-293.07 335.61,-294.66"/>
<polygon fill="#63b8ff" stroke="#63b8ff" points="334.5,-297.98 345.1,-297.9 336.77,-291.35 334.5,-297.98"/>
</a>
</g>
</g>
<!-- Node12&#45;&gt;Node7 -->
<g id="edge19_Node000012_Node000007" class="edge">
<title>Node12&#45;&gt;Node7</title>
<g id="a_edge19_Node000012_Node000007"><a xlink:title=" ">
<path fill="none" stroke="#63b8ff" d="M230.18,-252.27C247,-269.63 284.57,-305.94 323,-326.5 326.91,-328.59 331.09,-330.47 335.36,-332.16"/>
<polygon fill="#63b8ff" stroke="#63b8ff" points="334.18,-335.46 344.78,-335.55 336.55,-328.87 334.18,-335.46"/>
</a>
</g>
</g>
<!-- Node13 -->
<g id="Node000013" class="node">
<title>Node13</title>
<g id="a_Node000013"><a xlink:href="../../d6/d39/lmmpn_8h.html#a344093e8760ed368490d9a527ea2c6e9" target="_top" xlink:title="大数加单精度数静态内联函数 [dst,na]=[numa,na]+x">
<polygon fill="white" stroke="#666666" points="426,-280 341,-280 341,-261 426,-261 426,-280"/>
<text text-anchor="middle" x="383.5" y="-268" font-family="Helvetica,sans-Serif" font-size="10.00">lmmp_add_1_</text>
</a>
</g>
</g>
<!-- Node12&#45;&gt;Node13 -->
<g id="edge17_Node000012_Node000013" class="edge">
<title>Node12&#45;&gt;Node13</title>
<g id="a_edge17_Node000012_Node000013"><a xlink:title=" ">
<path fill="none" stroke="#63b8ff" d="M276.13,-252.06C293.85,-255.13 313.41,-258.52 330.87,-261.55"/>
<polygon fill="#63b8ff" stroke="#63b8ff" points="330.43,-265.02 340.88,-263.28 331.62,-258.13 330.43,-265.02"/>
</a>
</g>
</g>
<!-- Node14 -->
<g id="Node000014" class="node">
<title>Node14</title>
<g id="a_Node000014"><a xlink:href="../../d1/d49/shl_8c.html#a6d5aca3454f13e3fcaedba3a15b03823" target="_top" xlink:title="大数左移操作 [dst,na] = [numa,na]&lt;&lt;shl，dst的低shl位填充0">
<polygon fill="white" stroke="#666666" points="418.5,-243 348.5,-243 348.5,-224 418.5,-224 418.5,-243"/>
<text text-anchor="middle" x="383.5" y="-231" font-family="Helvetica,sans-Serif" font-size="10.00">lmmp_shl_</text>
</a>
</g>
</g>
<!-- Node12&#45;&gt;Node14 -->
<g id="edge20_Node000012_Node000014" class="edge">
<title>Node12&#45;&gt;Node14</title>
<g id="a_edge20_Node000012_Node000014"><a xlink:title=" ">
<path fill="none" stroke="#63b8ff" d="M287.15,-238.81C304.14,-237.87 322.02,-236.87 337.64,-236"/>
<polygon fill="#63b8ff" stroke="#63b8ff" points="338.27,-239.47 348.06,-235.42 337.89,-232.48 338.27,-239.47"/>
</a>
</g>
</g>
<!-- Node15&#45;&gt;Node3 -->
<g id="edge22_Node000015_Node000003" class="edge">
<title>Node15&#45;&gt;Node3</title>
<g id="a_edge22_Node000015_Node000003"><a xlink:title=" ">
<path fill="none" stroke="#63b8ff" d="M280.65,-179.85C338.39,-184.31 420.55,-194.26 444,-215.5 488.12,-255.46 448.12,-294.24 480,-344.5 485.4,-353.01 493.28,-360.67 500.89,-366.84"/>
<polygon fill="#63b8ff" stroke="#63b8ff" points="498.82,-369.66 508.91,-372.92 503.06,-364.09 498.82,-369.66"/>
</a>
</g>
</g>
<!-- Node15&#45;&gt;Node10 -->
<g id="edge28_Node000015_Node000010" class="edge">
<title>Node15&#45;&gt;Node10</title>
<g id="a_edge28_Node000015_Node000010"><a xlink:title=" ">
<path fill="none" stroke="#63b8ff" d="M265.33,-166.93C273.38,-163.49 281.09,-158.83 287,-152.5 326.46,-110.25 282.39,-68.65 323,-27.5 325.7,-24.77 328.8,-22.44 332.13,-20.47"/>
<polygon fill="#63b8ff" stroke="#63b8ff" points="333.89,-23.51 341.4,-16.03 330.87,-17.2 333.89,-23.51"/>
</a>
</g>
</g>
<!-- Node15&#45;&gt;Node14 -->
<g id="edge24_Node000015_Node000014" class="edge">
<title>Node15&#45;&gt;Node14</title>
<g id="a_edge24_Node000015_Node000014"><a xlink:title=" ">
<path fill="none" stroke="#63b8ff" d="M248.03,-186.04C274.82,-195.49 316.03,-210.04 345.77,-220.54"/>
<polygon fill="#63b8ff" stroke="#63b8ff" points="344.79,-223.9 355.38,-223.93 347.12,-217.3 344.79,-223.9"/>
</a>
</g>
</g>
<!-- Node16 -->
<g id="Node000016" class="node">
<title>Node16</title>
<g id="a_Node000016"><a xlink:href="../../d8/d18/divexact_8h.html#a6d9813900f18ed81dc52345e094b1d49" target="_top" xlink:title="精确除以3（[dst,na] = [numa,na] / 3）">
<polygon fill="white" stroke="#666666" points="444,-93 323,-93 323,-74 444,-74 444,-93"/>
<text text-anchor="middle" x="383.5" y="-81" font-family="Helvetica,sans-Serif" font-size="10.00">lmmp_divexact_by3_</text>
</a>
</g>
</g>
<!-- Node15&#45;&gt;Node16 -->
<g id="edge23_Node000015_Node000016" class="edge">
<title>Node15&#45;&gt;Node16</title>
<g id="a_edge23_Node000015_Node000016"><a xlink:title=" ">
<path fill="none" stroke="#63b8ff" d="M259.32,-166.98C268.96,-163.44 278.86,-158.72 287,-152.5 309.05,-135.66 300.5,-117.73 323,-101.5 325.07,-100.01 327.26,-98.64 329.54,-97.38"/>
<polygon fill="#63b8ff" stroke="#63b8ff" points="331.11,-100.51 338.65,-93.07 328.12,-94.18 331.11,-100.51"/>
</a>
</g>
</g>
<!-- Node17 -->
<g id="Node000017" class="node">
<title>Node17</title>
<g id="a_Node000017"><a xlink:href="../../de/d50/shr_8c.html#a279d8acece60ee1176a17c9e829710f7" target="_top" xlink:title="加法后右移1位 [dst,n] = ([numa,n] + [numb,n]) &gt;&gt; 1">
<polygon fill="white" stroke="#666666" points="436.5,-56 330.5,-56 330.5,-37 436.5,-37 436.5,-56"/>
<text text-anchor="middle" x="383.5" y="-44" font-family="Helvetica,sans-Serif" font-size="10.00">lmmp_shr1add_n_</text>
</a>
</g>
</g>
<!-- Node15&#45;&gt;Node17 -->
<g id="edge25_Node000015_Node000017" class="edge">
<title>Node15&#45;&gt;Node17</title>
<g id="a_edge25_Node000015_Node000017"><a xlink:title=" ">
<path fill="none" stroke="#63b8ff" d="M263.44,-166.98C272.01,-163.52 280.41,-158.84 287,-152.5 317.47,-123.22 291.74,-92.93 323,-64.5 324.29,-63.33 325.65,-62.23 327.08,-61.2"/>
<polygon fill="#63b8ff" stroke="#63b8ff" points="328.94,-64.17 335.78,-56.08 325.39,-58.14 328.94,-64.17"/>
</a>
</g>
</g>
<!-- Node18 -->
<g id="Node000018" class="node">
<title>Node18</title>
<g id="a_Node000018"><a xlink:href="../../de/d50/shr_8c.html#ae14dbc62d030ce3e6de8fa8590195f07" target="_top" xlink:title="减法后右移1位 [dst,n] = ([numa,n] &#45; [numb,n]) &gt;&gt; 1">
<polygon fill="white" stroke="#666666" points="436,-167 331,-167 331,-148 436,-148 436,-167"/>
<text text-anchor="middle" x="383.5" y="-155" font-family="Helvetica,sans-Serif" font-size="10.00">lmmp_shr1sub_n_</text>
</a>
</g>
</g>
<!-- Node15&#45;&gt;Node18 -->
<g id="edge26_Node000015_Node000018" class="edge">
<title>Node15&#45;&gt;Node18</title>
<g id="a_edge26_Node000015_Node000018"><a xlink:title=" ">
<path fill="none" stroke="#63b8ff" d="M280.68,-169.48C293.65,-167.95 307.41,-166.33 320.47,-164.8"/>
<polygon fill="#63b8ff" stroke="#63b8ff" points="321.25,-168.23 330.77,-163.59 320.43,-161.28 321.25,-168.23"/>
</a>
</g>
</g>
<!-- Node19 -->
<g id="Node000019" class="node">
<title>Node19</title>
<g id="a_Node000019"><a xlink:href="../../de/d50/shr_8c.html#a5a6e9b6e715cedac419406deab5b44bb" target="_top" xlink:title="大数右移操作 [dst,na] = [numa,na]&gt;&gt;shr，dst的高shr位填充0">
<polygon fill="white" stroke="#666666" points="419,-130 348,-130 348,-111 419,-111 419,-130"/>
<text text-anchor="middle" x="383.5" y="-118" font-family="Helvetica,sans-Serif" font-size="10.00">lmmp_shr_</text>
</a>
</g>
</g>
<!-- Node15&#45;&gt;Node19 -->
<g id="edge27_Node000015_Node000019" class="edge">
<title>Node15&#45;&gt;Node19</title>
<g id="a_edge27_Node000015_Node000019"><a xlink:title=" ">
<path fill="none" stroke="#63b8ff" d="M247.7,-166.94C259.73,-162.6 274.1,-157.35 287,-152.5 303.07,-146.46 306.77,-144.1 323,-138.5 328.29,-136.67 333.88,-134.85 339.43,-133.1"/>
<polygon fill="#63b8ff" stroke="#63b8ff" points="340.79,-136.34 349.31,-130.05 338.72,-129.66 340.79,-136.34"/>
</a>
</g>
</g>
</g>
</svg>

<g id="navigator" transform="translate(0 0)" fill="#404254">
  <rect fill="#f2f5e9" fill-opacity="0.5" stroke="#606060" stroke-width=".5" x="0" y="0" width="60" height="60"/>
  <use id="zoomplus" xlink:href="#zoomPlus" x="17" y="9" onmousedown="handleZoom(evt,'in')"/>
  <use id="zoomminus" xlink:href="#zoomMin" x="42" y="9" onmousedown="handleZoom(evt,'out')"/>
  <use id="reset" xlink:href="#resetDef" x="30" y="36" onmousedown="handleReset()"/>
   <use id="arrowup" xlink:href="#arrowUp" x="0" y="0" onmousedown="handlePan(0,-1)"/>
  <use id="arrowright" xlink:href="#arrowRight" x="0" y="0" onmousedown="handlePan(1,0)"/>
  <use id="arrowdown" xlink:href="#arrowDown" x="0" y="0" onmousedown="handlePan(0,1)"/>
  <use id="arrowleft" xlink:href="#arrowLeft" x="0" y="0" onmousedown="handlePan(-1,0)"/>
</g>
<svg viewBox="0 0 15 15" width="100%" height="30px" preserveAspectRatio="xMaxYMin meet">
 <g id="arrow_out" transform="scale(0.3 0.3)">
  <a xlink:href="mul__toom52_8c_a6e486c83153cc33617f91c3a1ea7b3ff_cgraph_org.svg" target="_base">
   <rect id="button" ry="5" rx="5" y="6" x="6" height="38" width="38"
        fill="#f2f5e9" fill-opacity="0.5" stroke="#606060" stroke-width="1.0"/>
   <path id="arrow"
     d="M 11.500037,31.436501 C 11.940474,20.09759 22.043105,11.32322 32.158766,21.979434 L 37.068811,17.246167 C 37.068811,17.246167 37.088388,32 37.088388,32 L 22.160133,31.978069 C 22.160133,31.978069 26.997745,27.140456 26.997745,27.140456 C 18.528582,18.264221 13.291696,25.230495 11.500037,31.436501 z"
     style="fill:#404040;"/>
  </a>
 </g>
</svg>

<style type='text/css'>
<![CDATA[
[data-mouse-over-selected='false'] { opacity: 0.7; }
[data-mouse-over-selected='true']  { opacity: 1.0; }
]]>
</style>
<script type="application/ecmascript"><![CDATA[
document.addEventListener('DOMContentLoaded', (event) => {
  highlightEdges();
  highlightAdjacentNodes();
});
]]></script>
</svg>
