<?xml version="1.0" encoding="UTF-8" standalone="no"?>
<!DOCTYPE svg PUBLIC "-//W3C//DTD SVG 1.1//EN"
 "http://www.w3.org/Graphics/SVG/1.1/DTD/svg11.dtd">
<!-- Generated by graphviz version 2.43.0 (0)
 -->
<!-- Title: lamina::detail::GaussianEliminator Pages: 1 -->
<!--zoomable 441 -->

<svg id="main" version="1.1" xmlns="http://www.w3.org/2000/svg" xmlns:xlink="http://www.w3.org/1999/xlink" xml:space="preserve" onload="init(evt)">
<style type="text/css"><![CDATA[
.node, .edge {opacity: 0.7;}
.node.selected, .edge.selected {opacity: 1;}
.edge:hover path { stroke: red; }
.edge:hover polygon { stroke: red; fill: red; }
]]></style>

<defs>
  <circle id="rim" cx="0" cy="0" r="7"/>
  <circle id="rim2" cx="0" cy="0" r="3.5"/>
  <g id="zoomPlus">
    <use xlink:href="#rim" fill="#404040"><set attributeName="fill" to="#808080" begin="zoomplus.mouseover" end="zoomplus.mouseout"/></use>
    <path d="M-4,0h8M0,-4v8" fill="none" stroke="white" stroke-width="1.5" pointer-events="none"/>
  </g>
  <g id="zoomMin">
    <use xlink:href="#rim" fill="#404040"><set attributeName="fill" to="#808080" begin="zoomminus.mouseover" end="zoomminus.mouseout"/></use>
    <path d="M-4,0h8" fill="none" stroke="white" stroke-width="1.5" pointer-events="none"/>
  </g>
  <g id="arrowUp" transform="translate(30 24)">
    <use xlink:href="#rim"/>
    <path pointer-events="none" fill="none" stroke="white" stroke-width="1.5" d="M0,-3.0v7 M-2.5,-0.5L0,-3.0L2.5,-0.5"/>
  </g>
  <g id="arrowRight" transform="rotate(90) translate(36 -43)">
    <use xlink:href="#rim"/>
    <path pointer-events="none" fill="none" stroke="white" stroke-width="1.5" d="M0,-3.0v7 M-2.5,-0.5L0,-3.0L2.5,-0.5"/>
  </g>
  <g id="arrowDown" transform="rotate(180) translate(-30 -48)">
    <use xlink:href="#rim"/>
    <path pointer-events="none" fill="none" stroke="white" stroke-width="1.5" d="M0,-3.0v7 M-2.5,-0.5L0,-3.0L2.5,-0.5"/>
  </g>
  <g id="arrowLeft" transform="rotate(270) translate(-36 17)">
    <use xlink:href="#rim"/>
    <path pointer-events="none" fill="none" stroke="white" stroke-width="1.5" d="M0,-3.0v7 M-2.5,-0.5L0,-3.0L2.5,-0.5"/>
  </g>
  <g id="resetDef">
    <use xlink:href="#rim2" fill="#404040"><set attributeName="fill" to="#808080" begin="reset.mouseover" end="reset.mouseout"/></use>
  </g>
</defs>
<script type="application/ecmascript">
var viewWidth = 505;
var viewHeight = 441;
var sectionId = 'dynsection-0';
</script>
<script type="application/ecmascript" xlink:href="../../svg.min.js"/>
<svg id="graph" class="graph">
<g id="viewport">
<title>lamina::detail::GaussianEliminator</title>
<!-- Node1 -->
<g id="Node000001" class="node">
<title>Node1</title>
<g id="a_Node000001"><a xlink:title="增量式高斯消元器，用于检测向量线性相关性">
<polygon fill="#999999" stroke="transparent" points="405.5,-123 246.5,-123 246.5,0 405.5,0 405.5,-123"/>
<text text-anchor="start" x="267" y="-110.5" font-family="Helvetica,sans-Serif" font-size="10.00">lamina::detail::Gaussian</text>
<text text-anchor="start" x="301" y="-99.5" font-family="Helvetica,sans-Serif" font-size="10.00">Eliminator</text>
<text text-anchor="start" x="324.5" y="-84.5" font-family="Helvetica,sans-Serif" font-size="10.00"> </text>
<text text-anchor="start" x="251" y="-69.5" font-family="Helvetica,sans-Serif" font-size="10.00">+</text>
<text text-anchor="start" x="264" y="-69.5" font-family="Helvetica,sans-Serif" font-size="10.00">GaussianEliminator()</text>
<text text-anchor="start" x="251" y="-54.5" font-family="Helvetica,sans-Serif" font-size="10.00">+</text>
<text text-anchor="start" x="264" y="-54.5" font-family="Helvetica,sans-Serif" font-size="10.00">bool add_vector(const</text>
<text text-anchor="start" x="264" y="-43.5" font-family="Helvetica,sans-Serif" font-size="10.00"> std::vector&lt; Rational</text>
<text text-anchor="start" x="264" y="-32.5" font-family="Helvetica,sans-Serif" font-size="10.00"> &gt; &amp;v, std::vector&lt; Rational</text>
<text text-anchor="start" x="264" y="-21.5" font-family="Helvetica,sans-Serif" font-size="10.00"> &gt; &amp;combination)</text>
<text text-anchor="start" x="251" y="-6.5" font-family="Helvetica,sans-Serif" font-size="10.00">+</text>
<text text-anchor="start" x="264" y="-6.5" font-family="Helvetica,sans-Serif" font-size="10.00">size_t rank() const</text>
<polygon fill="#666666" stroke="#666666" points="247,-94.5 247,-94.5 406,-94.5 406,-94.5 247,-94.5"/>
<polygon fill="#666666" stroke="#666666" points="247,-79.5 247,-79.5 406,-79.5 406,-79.5 247,-79.5"/>
<polygon fill="none" stroke="#666666" points="246.5,0 246.5,-123 405.5,-123 405.5,0 246.5,0"/>
</a>
</g>
</g>
<!-- Node2 -->
<g id="Node000002" class="node">
<title>Node2</title>
<g id="a_Node000002"><a xlink:title=" ">
<polygon fill="white" stroke="transparent" points="195.5,-241 70.5,-241 70.5,-181 195.5,-181 195.5,-241"/>
<text text-anchor="start" x="76" y="-229" font-family="Helvetica,sans-Serif" font-size="10.00">std::vector&lt; std::vector</text>
<text text-anchor="start" x="96" y="-218" font-family="Helvetica,sans-Serif" font-size="10.00">&lt; Rational &gt; &gt;</text>
<text text-anchor="start" x="131.5" y="-203" font-family="Helvetica,sans-Serif" font-size="10.00"> </text>
<text text-anchor="start" x="131.5" y="-188" font-family="Helvetica,sans-Serif" font-size="10.00"> </text>
<polygon fill="#666666" stroke="#666666" points="71,-213 71,-213 196,-213 196,-213 71,-213"/>
<polygon fill="#666666" stroke="#666666" points="71,-198 71,-198 196,-198 196,-198 71,-198"/>
<polygon fill="none" stroke="#666666" points="70.5,-181 70.5,-241 195.5,-241 195.5,-181 70.5,-181"/>
</a>
</g>
</g>
<!-- Node2&#45;&gt;Node1 -->
<g id="edge1_Node000001_Node000002" class="edge">
<title>Node2&#45;&gt;Node1</title>
<g id="a_edge1_Node000001_Node000002"><a xlink:title=" ">
<path fill="none" stroke="#63b8ff" d="M171.13,-180.86C189.97,-166.46 213.57,-148.43 236.62,-130.81"/>
<polygon fill="none" stroke="#63b8ff" points="236.91,-130.59 239.25,-123.76 246.45,-123.3 244.11,-130.12 236.91,-130.59"/>
</a>
</g>
<text text-anchor="middle" x="256.5" y="-155" font-family="Helvetica,sans-Serif" font-size="10.00" fill="grey"> &#45;combinations_</text>
<text text-anchor="middle" x="256.5" y="-144" font-family="Helvetica,sans-Serif" font-size="10.00" fill="grey">&#45;rows_</text>
</g>
<!-- Node3 -->
<g id="Node000003" class="node">
<title>Node3</title>
<g id="a_Node000003"><a xlink:title=" ">
<polygon fill="white" stroke="transparent" points="104,-337 0,-337 0,-288 104,-288 104,-337"/>
<text text-anchor="start" x="5" y="-324.5" font-family="Helvetica,sans-Serif" font-size="10.00">vector&lt; Rational &gt;</text>
<text text-anchor="start" x="50" y="-309.5" font-family="Helvetica,sans-Serif" font-size="10.00"> </text>
<text text-anchor="start" x="50" y="-294.5" font-family="Helvetica,sans-Serif" font-size="10.00"> </text>
<polygon fill="#666666" stroke="#666666" points="0,-319.5 0,-319.5 104,-319.5 104,-319.5 0,-319.5"/>
<polygon fill="#666666" stroke="#666666" points="0,-304.5 0,-304.5 104,-304.5 104,-304.5 0,-304.5"/>
<polygon fill="none" stroke="#666666" points="0,-288 0,-337 104,-337 104,-288 0,-288"/>
</a>
</g>
</g>
<!-- Node3&#45;&gt;Node2 -->
<g id="edge2_Node000002_Node000003" class="edge">
<title>Node3&#45;&gt;Node2</title>
<g id="a_edge2_Node000002_Node000003"><a xlink:title=" ">
<path fill="none" stroke="#63b8ff" d="M47.65,-287.93C47.06,-278.37 47.98,-267.58 53,-259 55.33,-255.01 58.15,-251.33 61.31,-247.93"/>
<polygon fill="none" stroke="#63b8ff" points="61.55,-247.71 63.26,-240.7 70.38,-239.58 68.67,-246.59 61.55,-247.71"/>
</a>
</g>
<text text-anchor="middle" x="82" y="-262" font-family="Helvetica,sans-Serif" font-size="10.00" fill="grey"> +elements</text>
</g>
<!-- Node4 -->
<g id="Node000004" class="node">
<title>Node4</title>
<g id="a_Node000004"><a xlink:title=" ">
<polygon fill="white" stroke="transparent" points="308.5,-337 217.5,-337 217.5,-288 308.5,-288 308.5,-337"/>
<text text-anchor="start" x="223" y="-324.5" font-family="Helvetica,sans-Serif" font-size="10.00">std::vector&lt; T &gt;</text>
<text text-anchor="start" x="261.5" y="-309.5" font-family="Helvetica,sans-Serif" font-size="10.00"> </text>
<text text-anchor="start" x="261.5" y="-294.5" font-family="Helvetica,sans-Serif" font-size="10.00"> </text>
<polygon fill="#666666" stroke="#666666" points="218,-319.5 218,-319.5 309,-319.5 309,-319.5 218,-319.5"/>
<polygon fill="#666666" stroke="#666666" points="218,-304.5 218,-304.5 309,-304.5 309,-304.5 218,-304.5"/>
<polygon fill="none" stroke="#666666" points="217.5,-288 217.5,-337 308.5,-337 308.5,-288 217.5,-288"/>
</a>
</g>
</g>
<!-- Node4&#45;&gt;Node2 -->
<g id="edge3_Node000002_Node000004" class="edge">
<title>Node4&#45;&gt;Node2</title>
<g id="a_edge3_Node000002_Node000004"><a xlink:title=" ">
<path fill="none" stroke="orange" d="M207.62,-304.12C185.18,-298.37 160.87,-288.16 145,-270 138.1,-262.1 134.79,-251.29 133.31,-241.14"/>
<polygon fill="orange" stroke="orange" points="206.9,-307.54 217.43,-306.39 208.47,-300.72 206.9,-307.54"/>
</a>
</g>
<text text-anchor="middle" x="215.5" y="-262" font-family="Helvetica,sans-Serif" font-size="10.00" fill="grey"> &lt; std::vector&lt; Rational &gt; &gt;</text>
</g>
<!-- Node6 -->
<g id="Node000006" class="node">
<title>Node6</title>
<g id="a_Node000006"><a xlink:title=" ">
<polygon fill="white" stroke="transparent" points="382.5,-235.5 269.5,-235.5 269.5,-186.5 382.5,-186.5 382.5,-235.5"/>
<text text-anchor="start" x="275" y="-223" font-family="Helvetica,sans-Serif" font-size="10.00">std::vector&lt; size_t &gt;</text>
<text text-anchor="start" x="324.5" y="-208" font-family="Helvetica,sans-Serif" font-size="10.00"> </text>
<text text-anchor="start" x="324.5" y="-193" font-family="Helvetica,sans-Serif" font-size="10.00"> </text>
<polygon fill="#666666" stroke="#666666" points="270,-218 270,-218 383,-218 383,-218 270,-218"/>
<polygon fill="#666666" stroke="#666666" points="270,-203 270,-203 383,-203 383,-203 270,-203"/>
<polygon fill="none" stroke="#666666" points="269.5,-186.5 269.5,-235.5 382.5,-235.5 382.5,-186.5 269.5,-186.5"/>
</a>
</g>
</g>
<!-- Node4&#45;&gt;Node6 -->
<g id="edge7_Node000006_Node000004" class="edge">
<title>Node4&#45;&gt;Node6</title>
<g id="a_edge7_Node000006_Node000004"><a xlink:title=" ">
<path fill="none" stroke="orange" d="M283.31,-279.42C292.3,-265.22 302.68,-248.83 310.96,-235.76"/>
<polygon fill="orange" stroke="orange" points="280.32,-277.6 277.93,-287.92 286.24,-281.34 280.32,-277.6"/>
</a>
</g>
<text text-anchor="middle" x="321.5" y="-262" font-family="Helvetica,sans-Serif" font-size="10.00" fill="grey"> &lt; size_t &gt;</text>
</g>
<!-- Node5 -->
<g id="Node000005" class="node">
<title>Node5</title>
<g id="a_Node000005"><a xlink:title=" ">
<polygon fill="white" stroke="transparent" points="271.5,-433 254.5,-433 254.5,-384 271.5,-384 271.5,-433"/>
<text text-anchor="start" x="260" y="-420.5" font-family="Helvetica,sans-Serif" font-size="10.00">T</text>
<text text-anchor="start" x="261.5" y="-405.5" font-family="Helvetica,sans-Serif" font-size="10.00"> </text>
<text text-anchor="start" x="261.5" y="-390.5" font-family="Helvetica,sans-Serif" font-size="10.00"> </text>
<polygon fill="#666666" stroke="#666666" points="255,-415.5 255,-415.5 272,-415.5 272,-415.5 255,-415.5"/>
<polygon fill="#666666" stroke="#666666" points="255,-400.5 255,-400.5 272,-400.5 272,-400.5 255,-400.5"/>
<polygon fill="none" stroke="#666666" points="254.5,-384 254.5,-433 271.5,-433 271.5,-384 254.5,-384"/>
</a>
</g>
</g>
<!-- Node5&#45;&gt;Node4 -->
<g id="edge4_Node000004_Node000005" class="edge">
<title>Node5&#45;&gt;Node4</title>
<g id="a_edge4_Node000004_Node000005"><a xlink:title=" ">
<path fill="none" stroke="#63b8ff" d="M263,-383.78C263,-373.32 263,-360.79 263,-349.23"/>
<polygon fill="none" stroke="#63b8ff" points="263,-349.21 259,-343.21 263,-337.21 267,-343.21 263,-349.21"/>
</a>
</g>
<text text-anchor="middle" x="292" y="-358" font-family="Helvetica,sans-Serif" font-size="10.00" fill="grey"> +elements</text>
</g>
<!-- Node6&#45;&gt;Node1 -->
<g id="edge5_Node000001_Node000006" class="edge">
<title>Node6&#45;&gt;Node1</title>
<g id="a_edge5_Node000001_Node000006"><a xlink:title=" ">
<path fill="none" stroke="#63b8ff" d="M326,-186.3C326,-172.27 326,-153.67 326,-135.16"/>
<polygon fill="none" stroke="#63b8ff" points="326,-135.06 322,-129.06 326,-123.06 330,-129.06 326,-135.06"/>
</a>
</g>
<text text-anchor="middle" x="347.5" y="-149.5" font-family="Helvetica,sans-Serif" font-size="10.00" fill="grey"> &#45;pivots_</text>
</g>
<!-- Node7 -->
<g id="Node000007" class="node">
<title>Node7</title>
<g id="a_Node000007"><a xlink:title=" ">
<polygon fill="white" stroke="transparent" points="427.5,-337 388.5,-337 388.5,-288 427.5,-288 427.5,-337"/>
<text text-anchor="start" x="394" y="-324.5" font-family="Helvetica,sans-Serif" font-size="10.00">size_t</text>
<text text-anchor="start" x="406.5" y="-309.5" font-family="Helvetica,sans-Serif" font-size="10.00"> </text>
<text text-anchor="start" x="406.5" y="-294.5" font-family="Helvetica,sans-Serif" font-size="10.00"> </text>
<polygon fill="#666666" stroke="#666666" points="389,-319.5 389,-319.5 428,-319.5 428,-319.5 389,-319.5"/>
<polygon fill="#666666" stroke="#666666" points="389,-304.5 389,-304.5 428,-304.5 428,-304.5 389,-304.5"/>
<polygon fill="none" stroke="#666666" points="388.5,-288 388.5,-337 427.5,-337 427.5,-288 388.5,-288"/>
</a>
</g>
</g>
<!-- Node7&#45;&gt;Node1 -->
<g id="edge8_Node000001_Node000007" class="edge">
<title>Node7&#45;&gt;Node1</title>
<g id="a_edge8_Node000001_Node000007"><a xlink:title=" ">
<path fill="none" stroke="#63b8ff" d="M427.01,-287.97C431.99,-279.18 435.38,-268.92 433,-259 422.33,-214.48 398.8,-169.3 376.52,-133.5"/>
<polygon fill="none" stroke="#63b8ff" points="376.4,-133.32 369.81,-130.4 369.97,-123.19 376.57,-126.11 376.4,-133.32"/>
</a>
</g>
<text text-anchor="middle" x="462" y="-208.5" font-family="Helvetica,sans-Serif" font-size="10.00" fill="grey"> &#45;basis_count_</text>
</g>
<!-- Node7&#45;&gt;Node6 -->
<g id="edge6_Node000006_Node000007" class="edge">
<title>Node7&#45;&gt;Node6</title>
<g id="a_edge6_Node000006_Node000007"><a xlink:title=" ">
<path fill="none" stroke="#63b8ff" d="M388.57,-287.92C378.02,-275.13 364.82,-259.1 353.26,-245.08"/>
<polygon fill="none" stroke="#63b8ff" points="353.21,-245.02 346.31,-242.93 345.58,-235.76 352.48,-237.84 353.21,-245.02"/>
</a>
</g>
<text text-anchor="middle" x="400" y="-262" font-family="Helvetica,sans-Serif" font-size="10.00" fill="grey"> +elements</text>
</g>
</g>
</svg>

<g id="navigator" transform="translate(0 0)" fill="#404254">
  <rect fill="#f2f5e9" fill-opacity="0.5" stroke="#606060" stroke-width=".5" x="0" y="0" width="60" height="60"/>
  <use id="zoomplus" xlink:href="#zoomPlus" x="17" y="9" onmousedown="handleZoom(evt,'in')"/>
  <use id="zoomminus" xlink:href="#zoomMin" x="42" y="9" onmousedown="handleZoom(evt,'out')"/>
  <use id="reset" xlink:href="#resetDef" x="30" y="36" onmousedown="handleReset()"/>
   <use id="arrowup" xlink:href="#arrowUp" x="0" y="0" onmousedown="handlePan(0,-1)"/>
  <use id="arrowright" xlink:href="#arrowRight" x="0" y="0" onmousedown="handlePan(1,0)"/>
  <use id="arrowdown" xlink:href="#arrowDown" x="0" y="0" onmousedown="handlePan(0,1)"/>
  <use id="arrowleft" xlink:href="#arrowLeft" x="0" y="0" onmousedown="handlePan(-1,0)"/>
</g>
<svg viewBox="0 0 15 15" width="100%" height="30px" preserveAspectRatio="xMaxYMin meet">
 <g id="arrow_out" transform="scale(0.3 0.3)">
  <a xlink:href="classlamina_1_1detail_1_1GaussianEliminator__coll__graph_org.svg" target="_base">
   <rect id="button" ry="5" rx="5" y="6" x="6" height="38" width="38"
        fill="#f2f5e9" fill-opacity="0.5" stroke="#606060" stroke-width="1.0"/>
   <path id="arrow"
     d="M 11.500037,31.436501 C 11.940474,20.09759 22.043105,11.32322 32.158766,21.979434 L 37.068811,17.246167 C 37.068811,17.246167 37.088388,32 37.088388,32 L 22.160133,31.978069 C 22.160133,31.978069 26.997745,27.140456 26.997745,27.140456 C 18.528582,18.264221 13.291696,25.230495 11.500037,31.436501 z"
     style="fill:#404040;"/>
  </a>
 </g>
</svg>

<style type='text/css'>
<![CDATA[
[data-mouse-over-selected='false'] { opacity: 0.7; }
[data-mouse-over-selected='true']  { opacity: 1.0; }
]]>
</style>
<script type="application/ecmascript"><![CDATA[
document.addEventListener('DOMContentLoaded', (event) => {
  highlightEdges();
  highlightAdjacentNodes();
});
]]></script>
</svg>
