<?xml version="1.0" encoding="UTF-8" standalone="no"?>
<!DOCTYPE svg PUBLIC "-//W3C//DTD SVG 1.1//EN"
 "http://www.w3.org/Graphics/SVG/1.1/DTD/svg11.dtd">
<!-- Generated by graphviz version 2.43.0 (0)
 -->
<!-- Title: lamina::PropertyStore::SymbolProperties Pages: 1 -->
<!--zoomable 367 -->

<svg id="main" version="1.1" xmlns="http://www.w3.org/2000/svg" xmlns:xlink="http://www.w3.org/1999/xlink" xml:space="preserve" onload="init(evt)">
<style type="text/css"><![CDATA[
.node, .edge {opacity: 0.7;}
.node.selected, .edge.selected {opacity: 1;}
.edge:hover path { stroke: red; }
.edge:hover polygon { stroke: red; fill: red; }
]]></style>

<defs>
  <circle id="rim" cx="0" cy="0" r="7"/>
  <circle id="rim2" cx="0" cy="0" r="3.5"/>
  <g id="zoomPlus">
    <use xlink:href="#rim" fill="#404040"><set attributeName="fill" to="#808080" begin="zoomplus.mouseover" end="zoomplus.mouseout"/></use>
    <path d="M-4,0h8M0,-4v8" fill="none" stroke="white" stroke-width="1.5" pointer-events="none"/>
  </g>
  <g id="zoomMin">
    <use xlink:href="#rim" fill="#404040"><set attributeName="fill" to="#808080" begin="zoomminus.mouseover" end="zoomminus.mouseout"/></use>
    <path d="M-4,0h8" fill="none" stroke="white" stroke-width="1.5" pointer-events="none"/>
  </g>
  <g id="arrowUp" transform="translate(30 24)">
    <use xlink:href="#rim"/>
    <path pointer-events="none" fill="none" stroke="white" stroke-width="1.5" d="M0,-3.0v7 M-2.5,-0.5L0,-3.0L2.5,-0.5"/>
  </g>
  <g id="arrowRight" transform="rotate(90) translate(36 -43)">
    <use xlink:href="#rim"/>
    <path pointer-events="none" fill="none" stroke="white" stroke-width="1.5" d="M0,-3.0v7 M-2.5,-0.5L0,-3.0L2.5,-0.5"/>
  </g>
  <g id="arrowDown" transform="rotate(180) translate(-30 -48)">
    <use xlink:href="#rim"/>
    <path pointer-events="none" fill="none" stroke="white" stroke-width="1.5" d="M0,-3.0v7 M-2.5,-0.5L0,-3.0L2.5,-0.5"/>
  </g>
  <g id="arrowLeft" transform="rotate(270) translate(-36 17)">
    <use xlink:href="#rim"/>
    <path pointer-events="none" fill="none" stroke="white" stroke-width="1.5" d="M0,-3.0v7 M-2.5,-0.5L0,-3.0L2.5,-0.5"/>
  </g>
  <g id="resetDef">
    <use xlink:href="#rim2" fill="#404040"><set attributeName="fill" to="#808080" begin="reset.mouseover" end="reset.mouseout"/></use>
  </g>
</defs>
<script type="application/ecmascript">
var viewWidth = 540;
var viewHeight = 367;
var sectionId = 'dynsection-2';
</script>
<script type="application/ecmascript" xlink:href="../../svg.min.js"/>
<svg id="graph" class="graph">
<g id="viewport">
<title>lamina::PropertyStore::SymbolProperties</title>
<!-- Node1 -->
<g id="Node000001" class="node">
<title>Node1</title>
<g id="a_Node000001"><a xlink:title=" ">
<polygon fill="#999999" stroke="transparent" points="309,-60 192,-60 192,0 309,0 309,-60"/>
<text text-anchor="start" x="197.5" y="-48" font-family="Helvetica,sans-Serif" font-size="10.00">lamina::PropertyStore</text>
<text text-anchor="start" x="204.5" y="-37" font-family="Helvetica,sans-Serif" font-size="10.00">::SymbolProperties</text>
<text text-anchor="start" x="249" y="-22" font-family="Helvetica,sans-Serif" font-size="10.00"> </text>
<text text-anchor="start" x="249" y="-7" font-family="Helvetica,sans-Serif" font-size="10.00"> </text>
<polygon fill="#666666" stroke="#666666" points="192.5,-32 192.5,-32 309.5,-32 309.5,-32 192.5,-32"/>
<polygon fill="#666666" stroke="#666666" points="192.5,-17 192.5,-17 309.5,-17 309.5,-17 192.5,-17"/>
<polygon fill="none" stroke="#666666" points="192,0 192,-60 309,-60 309,0 192,0"/>
</a>
</g>
</g>
<!-- Node2 -->
<g id="Node000002" class="node">
<title>Node2</title>
<g id="a_Node000002"><a xlink:title=" ">
<polygon fill="white" stroke="transparent" points="49,-161.5 0,-161.5 0,-112.5 49,-112.5 49,-161.5"/>
<text text-anchor="start" x="5.5" y="-149" font-family="Helvetica,sans-Serif" font-size="10.00">Domain</text>
<text text-anchor="start" x="23" y="-134" font-family="Helvetica,sans-Serif" font-size="10.00"> </text>
<text text-anchor="start" x="23" y="-119" font-family="Helvetica,sans-Serif" font-size="10.00"> </text>
<polygon fill="#666666" stroke="#666666" points="0.5,-144 0.5,-144 49.5,-144 49.5,-144 0.5,-144"/>
<polygon fill="#666666" stroke="#666666" points="0.5,-129 0.5,-129 49.5,-129 49.5,-129 0.5,-129"/>
<polygon fill="none" stroke="#666666" points="0,-112.5 0,-161.5 49,-161.5 49,-112.5 0,-112.5"/>
</a>
</g>
</g>
<!-- Node2&#45;&gt;Node1 -->
<g id="edge1_Node000001_Node000002" class="edge">
<title>Node2&#45;&gt;Node1</title>
<g id="a_edge1_Node000001_Node000002"><a xlink:title=" ">
<path fill="none" stroke="#63b8ff" d="M36.49,-112.26C43.66,-100.32 53.85,-86.6 66.5,-78 99.94,-55.27 143.56,-43.53 179.95,-37.47"/>
<polygon fill="none" stroke="#63b8ff" points="180.12,-37.44 185.44,-32.58 191.98,-35.62 186.66,-40.49 180.12,-37.44"/>
</a>
</g>
<text text-anchor="middle" x="127" y="-81" font-family="Helvetica,sans-Serif" font-size="10.00" fill="grey"> +most_specific_domain</text>
</g>
<!-- Node3 -->
<g id="Node000003" class="node">
<title>Node3</title>
<g id="a_Node000003"><a xlink:title=" ">
<polygon fill="white" stroke="transparent" points="213.5,-167 67.5,-167 67.5,-107 213.5,-107 213.5,-167"/>
<text text-anchor="start" x="72.5" y="-155" font-family="Helvetica,sans-Serif" font-size="10.00">std::unordered_set</text>
<text text-anchor="start" x="72.5" y="-144" font-family="Helvetica,sans-Serif" font-size="10.00">&lt; Sign, lamina::SignHash &gt;</text>
<text text-anchor="start" x="138.5" y="-129" font-family="Helvetica,sans-Serif" font-size="10.00"> </text>
<text text-anchor="start" x="138.5" y="-114" font-family="Helvetica,sans-Serif" font-size="10.00"> </text>
<polygon fill="#666666" stroke="#666666" points="67.5,-139 67.5,-139 213.5,-139 213.5,-139 67.5,-139"/>
<polygon fill="#666666" stroke="#666666" points="67.5,-124 67.5,-124 213.5,-124 213.5,-124 67.5,-124"/>
<polygon fill="none" stroke="#666666" points="67.5,-107 67.5,-167 213.5,-167 213.5,-107 67.5,-107"/>
</a>
</g>
</g>
<!-- Node3&#45;&gt;Node1 -->
<g id="edge2_Node000001_Node000003" class="edge">
<title>Node3&#45;&gt;Node1</title>
<g id="a_edge2_Node000001_Node000003"><a xlink:title=" ">
<path fill="none" stroke="#63b8ff" d="M171.14,-106.75C183.54,-94.92 198,-81.11 211.16,-68.55"/>
<polygon fill="none" stroke="#63b8ff" points="211.34,-68.38 212.92,-61.34 220.02,-60.09 218.44,-67.13 211.34,-68.38"/>
</a>
</g>
<text text-anchor="middle" x="217" y="-81" font-family="Helvetica,sans-Serif" font-size="10.00" fill="grey"> +signs</text>
</g>
<!-- Node4 -->
<g id="Node000004" class="node">
<title>Node4</title>
<g id="a_Node000004"><a xlink:title=" ">
<polygon fill="white" stroke="transparent" points="117.5,-263 85.5,-263 85.5,-214 117.5,-214 117.5,-263"/>
<text text-anchor="start" x="90.5" y="-250.5" font-family="Helvetica,sans-Serif" font-size="10.00">Sign</text>
<text text-anchor="start" x="99.5" y="-235.5" font-family="Helvetica,sans-Serif" font-size="10.00"> </text>
<text text-anchor="start" x="99.5" y="-220.5" font-family="Helvetica,sans-Serif" font-size="10.00"> </text>
<polygon fill="#666666" stroke="#666666" points="85.5,-245.5 85.5,-245.5 117.5,-245.5 117.5,-245.5 85.5,-245.5"/>
<polygon fill="#666666" stroke="#666666" points="85.5,-230.5 85.5,-230.5 117.5,-230.5 117.5,-230.5 85.5,-230.5"/>
<polygon fill="none" stroke="#666666" points="85.5,-214 85.5,-263 117.5,-263 117.5,-214 85.5,-214"/>
</a>
</g>
</g>
<!-- Node4&#45;&gt;Node3 -->
<g id="edge3_Node000003_Node000004" class="edge">
<title>Node4&#45;&gt;Node3</title>
<g id="a_edge3_Node000003_Node000004"><a xlink:title=" ">
<path fill="none" stroke="#63b8ff" d="M110.74,-213.92C114.91,-203.29 119.95,-190.44 124.68,-178.36"/>
<polygon fill="none" stroke="#63b8ff" points="124.71,-178.27 123.18,-171.23 129.09,-167.1 130.63,-174.15 124.71,-178.27"/>
</a>
</g>
<text text-anchor="middle" x="137.5" y="-188" font-family="Helvetica,sans-Serif" font-size="10.00" fill="grey"> +keys</text>
</g>
<!-- Node5 -->
<g id="Node000005" class="node">
<title>Node5</title>
<g id="a_Node000005"><a xlink:title=" ">
<polygon fill="white" stroke="transparent" points="267,-263 136,-263 136,-214 267,-214 267,-263"/>
<text text-anchor="start" x="141.5" y="-250.5" font-family="Helvetica,sans-Serif" font-size="10.00">std::unordered_set&lt; K &gt;</text>
<text text-anchor="start" x="200" y="-235.5" font-family="Helvetica,sans-Serif" font-size="10.00"> </text>
<text text-anchor="start" x="200" y="-220.5" font-family="Helvetica,sans-Serif" font-size="10.00"> </text>
<polygon fill="#666666" stroke="#666666" points="136.5,-245.5 136.5,-245.5 267.5,-245.5 267.5,-245.5 136.5,-245.5"/>
<polygon fill="#666666" stroke="#666666" points="136.5,-230.5 136.5,-230.5 267.5,-230.5 267.5,-230.5 136.5,-230.5"/>
<polygon fill="none" stroke="#666666" points="136,-214 136,-263 267,-263 267,-214 136,-214"/>
</a>
</g>
</g>
<!-- Node5&#45;&gt;Node3 -->
<g id="edge4_Node000003_Node000005" class="edge">
<title>Node5&#45;&gt;Node3</title>
<g id="a_edge4_Node000003_Node000005"><a xlink:title=" ">
<path fill="none" stroke="orange" d="M181.77,-205.31C174.23,-193.02 165.69,-179.09 158.34,-167.1"/>
<polygon fill="orange" stroke="orange" points="178.83,-207.22 187.04,-213.92 184.8,-203.57 178.83,-207.22"/>
</a>
</g>
<text text-anchor="middle" x="244" y="-188" font-family="Helvetica,sans-Serif" font-size="10.00" fill="grey"> &lt; Sign, lamina::SignHash &gt;</text>
</g>
<!-- Node6 -->
<g id="Node000006" class="node">
<title>Node6</title>
<g id="a_Node000006"><a xlink:title=" ">
<polygon fill="white" stroke="transparent" points="210,-359 193,-359 193,-310 210,-310 210,-359"/>
<text text-anchor="start" x="198.5" y="-346.5" font-family="Helvetica,sans-Serif" font-size="10.00">K</text>
<text text-anchor="start" x="200" y="-331.5" font-family="Helvetica,sans-Serif" font-size="10.00"> </text>
<text text-anchor="start" x="200" y="-316.5" font-family="Helvetica,sans-Serif" font-size="10.00"> </text>
<polygon fill="#666666" stroke="#666666" points="193.5,-341.5 193.5,-341.5 210.5,-341.5 210.5,-341.5 193.5,-341.5"/>
<polygon fill="#666666" stroke="#666666" points="193.5,-326.5 193.5,-326.5 210.5,-326.5 210.5,-326.5 193.5,-326.5"/>
<polygon fill="none" stroke="#666666" points="193,-310 193,-359 210,-359 210,-310 193,-310"/>
</a>
</g>
</g>
<!-- Node6&#45;&gt;Node5 -->
<g id="edge5_Node000005_Node000006" class="edge">
<title>Node6&#45;&gt;Node5</title>
<g id="a_edge5_Node000005_Node000006"><a xlink:title=" ">
<path fill="none" stroke="#63b8ff" d="M201.5,-309.78C201.5,-299.32 201.5,-286.79 201.5,-275.23"/>
<polygon fill="none" stroke="#63b8ff" points="201.5,-275.21 197.5,-269.21 201.5,-263.21 205.5,-269.21 201.5,-275.21"/>
</a>
</g>
<text text-anchor="middle" x="218.5" y="-284" font-family="Helvetica,sans-Serif" font-size="10.00" fill="grey"> +keys</text>
</g>
<!-- Node7 -->
<g id="Node000007" class="node">
<title>Node7</title>
<g id="a_Node000007"><a xlink:title=" ">
<polygon fill="white" stroke="transparent" points="269.5,-161.5 231.5,-161.5 231.5,-112.5 269.5,-112.5 269.5,-161.5"/>
<text text-anchor="start" x="236.5" y="-149" font-family="Helvetica,sans-Serif" font-size="10.00">Parity</text>
<text text-anchor="start" x="248.5" y="-134" font-family="Helvetica,sans-Serif" font-size="10.00"> </text>
<text text-anchor="start" x="248.5" y="-119" font-family="Helvetica,sans-Serif" font-size="10.00"> </text>
<polygon fill="#666666" stroke="#666666" points="231.5,-144 231.5,-144 269.5,-144 269.5,-144 231.5,-144"/>
<polygon fill="#666666" stroke="#666666" points="231.5,-129 231.5,-129 269.5,-129 269.5,-129 231.5,-129"/>
<polygon fill="none" stroke="#666666" points="231.5,-112.5 231.5,-161.5 269.5,-161.5 269.5,-112.5 231.5,-112.5"/>
</a>
</g>
</g>
<!-- Node7&#45;&gt;Node1 -->
<g id="edge6_Node000001_Node000007" class="edge">
<title>Node7&#45;&gt;Node1</title>
<g id="a_edge6_Node000001_Node000007"><a xlink:title=" ">
<path fill="none" stroke="#63b8ff" d="M250.5,-112.44C250.5,-100.59 250.5,-85.87 250.5,-72.23"/>
<polygon fill="none" stroke="#63b8ff" points="250.5,-72.11 246.5,-66.11 250.5,-60.11 254.5,-66.11 250.5,-72.11"/>
</a>
</g>
<text text-anchor="middle" x="270.5" y="-81" font-family="Helvetica,sans-Serif" font-size="10.00" fill="grey"> +parity</text>
</g>
<!-- Node8 -->
<g id="Node000008" class="node">
<title>Node8</title>
<g id="a_Node000008"><a xlink:title=" ">
<polygon fill="white" stroke="transparent" points="363.5,-161.5 287.5,-161.5 287.5,-112.5 363.5,-112.5 363.5,-161.5"/>
<text text-anchor="start" x="292.5" y="-149" font-family="Helvetica,sans-Serif" font-size="10.00">Boundedness</text>
<text text-anchor="start" x="323.5" y="-134" font-family="Helvetica,sans-Serif" font-size="10.00"> </text>
<text text-anchor="start" x="323.5" y="-119" font-family="Helvetica,sans-Serif" font-size="10.00"> </text>
<polygon fill="#666666" stroke="#666666" points="287.5,-144 287.5,-144 363.5,-144 363.5,-144 287.5,-144"/>
<polygon fill="#666666" stroke="#666666" points="287.5,-129 287.5,-129 363.5,-129 363.5,-129 287.5,-129"/>
<polygon fill="none" stroke="#666666" points="287.5,-112.5 287.5,-161.5 363.5,-161.5 363.5,-112.5 287.5,-112.5"/>
</a>
</g>
</g>
<!-- Node8&#45;&gt;Node1 -->
<g id="edge7_Node000001_Node000008" class="edge">
<title>Node8&#45;&gt;Node1</title>
<g id="a_edge7_Node000001_Node000008"><a xlink:title=" ">
<path fill="none" stroke="#63b8ff" d="M314.61,-112.31C309.18,-101.46 302.15,-88.67 294.5,-78 292.39,-75.05 290.1,-72.09 287.73,-69.18"/>
<polygon fill="none" stroke="#63b8ff" points="287.72,-69.18 280.78,-67.23 279.9,-60.07 286.85,-62.02 287.72,-69.18"/>
</a>
</g>
<text text-anchor="middle" x="338.5" y="-81" font-family="Helvetica,sans-Serif" font-size="10.00" fill="grey"> +boundedness</text>
</g>
<!-- Node9 -->
<g id="Node000009" class="node">
<title>Node9</title>
<g id="a_Node000009"><a xlink:title=" ">
<polygon fill="white" stroke="transparent" points="531.5,-161.5 381.5,-161.5 381.5,-112.5 531.5,-112.5 531.5,-161.5"/>
<text text-anchor="start" x="386.5" y="-149" font-family="Helvetica,sans-Serif" font-size="10.00">optional&lt; lamina::Interval &gt;</text>
<text text-anchor="start" x="454.5" y="-134" font-family="Helvetica,sans-Serif" font-size="10.00"> </text>
<text text-anchor="start" x="454.5" y="-119" font-family="Helvetica,sans-Serif" font-size="10.00"> </text>
<polygon fill="#666666" stroke="#666666" points="381.5,-144 381.5,-144 531.5,-144 531.5,-144 381.5,-144"/>
<polygon fill="#666666" stroke="#666666" points="381.5,-129 381.5,-129 531.5,-129 531.5,-129 381.5,-129"/>
<polygon fill="none" stroke="#666666" points="381.5,-112.5 381.5,-161.5 531.5,-161.5 531.5,-112.5 381.5,-112.5"/>
</a>
</g>
</g>
<!-- Node9&#45;&gt;Node1 -->
<g id="edge8_Node000001_Node000009" class="edge">
<title>Node9&#45;&gt;Node1</title>
<g id="a_edge8_Node000001_Node000009"><a xlink:title=" ">
<path fill="none" stroke="#63b8ff" d="M429.75,-112.36C415.78,-100.88 397.98,-87.54 380.5,-78 361.83,-67.82 340.51,-59.05 320.61,-51.94"/>
<polygon fill="none" stroke="#63b8ff" points="320.43,-51.88 313.45,-53.7 309.09,-47.95 316.07,-46.14 320.43,-51.88"/>
</a>
</g>
<text text-anchor="middle" x="421" y="-81" font-family="Helvetica,sans-Serif" font-size="10.00" fill="grey"> +bounds</text>
</g>
</g>
</svg>

<g id="navigator" transform="translate(0 0)" fill="#404254">
  <rect fill="#f2f5e9" fill-opacity="0.5" stroke="#606060" stroke-width=".5" x="0" y="0" width="60" height="60"/>
  <use id="zoomplus" xlink:href="#zoomPlus" x="17" y="9" onmousedown="handleZoom(evt,'in')"/>
  <use id="zoomminus" xlink:href="#zoomMin" x="42" y="9" onmousedown="handleZoom(evt,'out')"/>
  <use id="reset" xlink:href="#resetDef" x="30" y="36" onmousedown="handleReset()"/>
   <use id="arrowup" xlink:href="#arrowUp" x="0" y="0" onmousedown="handlePan(0,-1)"/>
  <use id="arrowright" xlink:href="#arrowRight" x="0" y="0" onmousedown="handlePan(1,0)"/>
  <use id="arrowdown" xlink:href="#arrowDown" x="0" y="0" onmousedown="handlePan(0,1)"/>
  <use id="arrowleft" xlink:href="#arrowLeft" x="0" y="0" onmousedown="handlePan(-1,0)"/>
</g>
<svg viewBox="0 0 15 15" width="100%" height="30px" preserveAspectRatio="xMaxYMin meet">
 <g id="arrow_out" transform="scale(0.3 0.3)">
  <a xlink:href="structlamina_1_1PropertyStore_1_1SymbolProperties__coll__graph_org.svg" target="_base">
   <rect id="button" ry="5" rx="5" y="6" x="6" height="38" width="38"
        fill="#f2f5e9" fill-opacity="0.5" stroke="#606060" stroke-width="1.0"/>
   <path id="arrow"
     d="M 11.500037,31.436501 C 11.940474,20.09759 22.043105,11.32322 32.158766,21.979434 L 37.068811,17.246167 C 37.068811,17.246167 37.088388,32 37.088388,32 L 22.160133,31.978069 C 22.160133,31.978069 26.997745,27.140456 26.997745,27.140456 C 18.528582,18.264221 13.291696,25.230495 11.500037,31.436501 z"
     style="fill:#404040;"/>
  </a>
 </g>
</svg>

<style type='text/css'>
<![CDATA[
[data-mouse-over-selected='false'] { opacity: 0.7; }
[data-mouse-over-selected='true']  { opacity: 1.0; }
]]>
</style>
<script type="application/ecmascript"><![CDATA[
document.addEventListener('DOMContentLoaded', (event) => {
  highlightEdges();
  highlightAdjacentNodes();
});
]]></script>
</svg>
