<?xml version="1.0" encoding="UTF-8" standalone="no"?>
<!DOCTYPE svg PUBLIC "-//W3C//DTD SVG 1.1//EN"
 "http://www.w3.org/Graphics/SVG/1.1/DTD/svg11.dtd">
<!-- Generated by graphviz version 2.43.0 (0)
 -->
<!-- Title: lmmp_vec_elem_mul_ Pages: 1 -->
<svg width="412pt" height="194pt"
 viewBox="0.00 0.00 412.00 194.35" xmlns="http://www.w3.org/2000/svg" xmlns:xlink="http://www.w3.org/1999/xlink">

<svg id="main" version="1.1" xmlns="http://www.w3.org/2000/svg" xmlns:xlink="http://www.w3.org/1999/xlink" xml:space="preserve" onload="init(evt)">
<style type="text/css"><![CDATA[
.node, .edge {opacity: 0.7;}
.node.selected, .edge.selected {opacity: 1;}
.edge:hover path { stroke: red; }
.edge:hover polygon { stroke: red; fill: red; }
]]></style>
<script type="application/ecmascript" xlink:href="../../svg.min.js"/>
<svg id="graph" class="graph">
<g id="graph0" class="graph" transform="scale(1 1) rotate(0) translate(4 190.35)">
<title>lmmp_vec_elem_mul_</title>
<!-- Node1 -->
<g id="Node000001" class="node">
<title>Node1</title>
<g id="a_Node000001"><a xlink:title="计算向量的累乘">
<polygon fill="#999999" stroke="#666666" points="127,-111 0,-111 0,-92 127,-92 127,-111"/>
<text text-anchor="middle" x="63.5" y="-99" font-family="Helvetica,sans-Serif" font-size="10.00">lmmp_vec_elem_mul_</text>
</a>
</g>
</g>
<!-- Node2 -->
<g id="Node000002" class="node">
<title>Node2</title>
<g id="a_Node000002"><a xlink:href="../../df/dd5/memory_8c.html#a9addf0b27643f70bce967ca4ef842ae9" target="_top" xlink:title="内存释放函数（调用lmmp_heap_free_fn）">
<polygon fill="white" stroke="#666666" points="404,-167 334,-167 334,-148 404,-148 404,-167"/>
<text text-anchor="middle" x="369" y="-155" font-family="Helvetica,sans-Serif" font-size="10.00">lmmp_free</text>
</a>
</g>
</g>
<!-- Node1&#45;&gt;Node2 -->
<g id="edge1_Node000001_Node000002" class="edge">
<title>Node1&#45;&gt;Node2</title>
<g id="a_edge1_Node000001_Node000002"><a xlink:title=" ">
<path fill="none" stroke="#63b8ff" d="M72.8,-111.01C88.42,-128.09 124.1,-163.38 163,-176.5 219.16,-195.45 288.58,-181.88 330.52,-169.96"/>
<polygon fill="#63b8ff" stroke="#63b8ff" points="331.71,-173.26 340.31,-167.07 329.73,-166.55 331.71,-173.26"/>
</a>
</g>
</g>
<!-- Node3 -->
<g id="Node000003" class="node">
<title>Node3</title>
<g id="a_Node000003"><a xlink:href="../../d6/d39/lmmpn_8h.html#a72077acd9fd2661f5f23e0f365100e23" target="_top" xlink:title="基础乘法运算 [dst,na+nb] = [numa,na] * [numb,nb]">
<polygon fill="white" stroke="#666666" points="293,-167 168,-167 168,-148 293,-148 293,-167"/>
<text text-anchor="middle" x="230.5" y="-155" font-family="Helvetica,sans-Serif" font-size="10.00">lmmp_mul_basecase_</text>
</a>
</g>
</g>
<!-- Node1&#45;&gt;Node3 -->
<g id="edge2_Node000001_Node000003" class="edge">
<title>Node1&#45;&gt;Node3</title>
<g id="a_edge2_Node000001_Node000003"><a xlink:title=" ">
<path fill="none" stroke="#63b8ff" d="M87.34,-111.09C107.15,-119.22 136.7,-130.89 163,-139.5 169.04,-141.48 175.44,-143.41 181.79,-145.23"/>
<polygon fill="#63b8ff" stroke="#63b8ff" points="181.09,-148.67 191.67,-147.99 182.98,-141.93 181.09,-148.67"/>
</a>
</g>
</g>
<!-- Node4 -->
<g id="Node000004" class="node">
<title>Node4</title>
<g id="a_Node000004"><a xlink:href="../../dc/d42/ele__mul_8h.html#a48b36d4b3ba2f760a92fb710528cbc24" target="_top" xlink:title="释放优先队列">
<polygon fill="white" stroke="#666666" points="296,-130 165,-130 165,-111 296,-111 296,-130"/>
<text text-anchor="middle" x="230.5" y="-118" font-family="Helvetica,sans-Serif" font-size="10.00">lmmp_num_heap_free_</text>
</a>
</g>
</g>
<!-- Node1&#45;&gt;Node4 -->
<g id="edge3_Node000001_Node000004" class="edge">
<title>Node1&#45;&gt;Node4</title>
<g id="a_edge3_Node000001_Node000004"><a xlink:title=" ">
<path fill="none" stroke="#63b8ff" d="M127.35,-108.74C136.38,-109.78 145.74,-110.86 154.97,-111.92"/>
<polygon fill="#63b8ff" stroke="#63b8ff" points="154.57,-115.4 164.91,-113.06 155.37,-108.44 154.57,-115.4"/>
</a>
</g>
</g>
<!-- Node5 -->
<g id="Node000005" class="node">
<title>Node5</title>
<g id="a_Node000005"><a xlink:href="../../dc/d42/ele__mul_8h.html#a3f1fdd0756f87a25ec2b37abad571462" target="_top" xlink:title="初始化优先队列">
<polygon fill="white" stroke="#666666" points="294.5,-93 166.5,-93 166.5,-74 294.5,-74 294.5,-93"/>
<text text-anchor="middle" x="230.5" y="-81" font-family="Helvetica,sans-Serif" font-size="10.00">lmmp_num_heap_init_</text>
</a>
</g>
</g>
<!-- Node1&#45;&gt;Node5 -->
<g id="edge5_Node000001_Node000005" class="edge">
<title>Node1&#45;&gt;Node5</title>
<g id="a_edge5_Node000001_Node000005"><a xlink:title=" ">
<path fill="none" stroke="#63b8ff" d="M127.35,-94.64C136.81,-93.61 146.64,-92.54 156.3,-91.49"/>
<polygon fill="#63b8ff" stroke="#63b8ff" points="156.72,-94.96 166.28,-90.4 155.96,-88 156.72,-94.96"/>
</a>
</g>
</g>
<!-- Node6 -->
<g id="Node000006" class="node">
<title>Node6</title>
<g id="a_Node000006"><a xlink:href="../../dc/d42/ele__mul_8h.html#a780a7839017e3df721884ddfe82e1994" target="_top" xlink:title="将队列中所有元素相乘">
<polygon fill="white" stroke="#666666" points="296,-56 165,-56 165,-37 296,-37 296,-56"/>
<text text-anchor="middle" x="230.5" y="-44" font-family="Helvetica,sans-Serif" font-size="10.00">lmmp_num_heap_mul_</text>
</a>
</g>
</g>
<!-- Node1&#45;&gt;Node6 -->
<g id="edge6_Node000001_Node000006" class="edge">
<title>Node1&#45;&gt;Node6</title>
<g id="a_edge6_Node000001_Node000006"><a xlink:title=" ">
<path fill="none" stroke="#63b8ff" d="M89.02,-91.98C108.85,-84.42 137.55,-73.78 163,-65.5 169.91,-63.25 177.27,-61.01 184.47,-58.89"/>
<polygon fill="#63b8ff" stroke="#63b8ff" points="185.52,-62.23 194.15,-56.09 183.58,-55.5 185.52,-62.23"/>
</a>
</g>
</g>
<!-- Node7 -->
<g id="Node000007" class="node">
<title>Node7</title>
<g id="a_Node000007"><a xlink:href="../../dc/d42/ele__mul_8h.html#a0508ec12d5f288ce55595891b9ea6a2f" target="_top" xlink:title="入队">
<polygon fill="white" stroke="#666666" points="298,-19 163,-19 163,0 298,0 298,-19"/>
<text text-anchor="middle" x="230.5" y="-7" font-family="Helvetica,sans-Serif" font-size="10.00">lmmp_num_heap_push_</text>
</a>
</g>
</g>
<!-- Node1&#45;&gt;Node7 -->
<g id="edge7_Node000001_Node000007" class="edge">
<title>Node1&#45;&gt;Node7</title>
<g id="a_edge7_Node000001_Node000007"><a xlink:title=" ">
<path fill="none" stroke="#63b8ff" d="M74.88,-91.79C91.97,-76.28 127.68,-45.91 163,-28.5 167.66,-26.2 172.64,-24.14 177.71,-22.3"/>
<polygon fill="#63b8ff" stroke="#63b8ff" points="179.12,-25.52 187.49,-19.02 176.89,-18.88 179.12,-25.52"/>
</a>
</g>
</g>
<!-- Node4&#45;&gt;Node2 -->
<g id="edge4_Node000004_Node000002" class="edge">
<title>Node4&#45;&gt;Node2</title>
<g id="a_edge4_Node000004_Node000002"><a xlink:title=" ">
<path fill="none" stroke="#63b8ff" d="M266.65,-130.03C284.2,-134.78 305.59,-140.58 324.19,-145.62"/>
<polygon fill="#63b8ff" stroke="#63b8ff" points="323.34,-149.02 333.91,-148.26 325.17,-142.27 323.34,-149.02"/>
</a>
</g>
</g>
</g>
</svg>
</svg>

<style type='text/css'>
<![CDATA[
[data-mouse-over-selected='false'] { opacity: 0.7; }
[data-mouse-over-selected='true']  { opacity: 1.0; }
]]>
</style>
<script type="application/ecmascript"><![CDATA[
document.addEventListener('DOMContentLoaded', (event) => {
  highlightEdges();
  highlightAdjacentNodes();
});
]]></script>
</svg>
