<?xml version="1.0" encoding="UTF-8" standalone="no"?>
<!DOCTYPE svg PUBLIC "-//W3C//DTD SVG 1.1//EN"
 "http://www.w3.org/Graphics/SVG/1.1/DTD/svg11.dtd">
<!-- Generated by graphviz version 2.43.0 (0)
 -->
<!-- Title: lamina::RationalDecompositionStrategy::integrate_term Pages: 1 -->
<svg width="344pt" height="335pt"
 viewBox="0.00 0.00 344.00 335.00" xmlns="http://www.w3.org/2000/svg" xmlns:xlink="http://www.w3.org/1999/xlink">

<svg id="main" version="1.1" xmlns="http://www.w3.org/2000/svg" xmlns:xlink="http://www.w3.org/1999/xlink" xml:space="preserve" onload="init(evt)">
<style type="text/css"><![CDATA[
.node, .edge {opacity: 0.7;}
.node.selected, .edge.selected {opacity: 1;}
.edge:hover path { stroke: red; }
.edge:hover polygon { stroke: red; fill: red; }
]]></style>
<script type="application/ecmascript" xlink:href="../../svg.min.js"/>
<svg id="graph" class="graph">
<g id="graph0" class="graph" transform="scale(1 1) rotate(0) translate(4 331)">
<title>lamina::RationalDecompositionStrategy::integrate_term</title>
<!-- Node1 -->
<g id="Node000001" class="node">
<title>Node1</title>
<g id="a_Node000001"><a xlink:title="对单个部分分式项 numerator(x)/factor(x)^power 求积分。">
<polygon fill="#999999" stroke="#666666" points="170,-172.5 0,-172.5 0,-142.5 170,-142.5 170,-172.5"/>
<text text-anchor="start" x="8" y="-160.5" font-family="Helvetica,sans-Serif" font-size="10.00">lamina::RationalDecomposition</text>
<text text-anchor="middle" x="85" y="-149.5" font-family="Helvetica,sans-Serif" font-size="10.00">Strategy::integrate_term</text>
</a>
</g>
</g>
<!-- Node2 -->
<g id="Node000002" class="node">
<title>Node2</title>
<g id="a_Node000002"><a xlink:href="../../dc/d25/classSymbolicExpr.html#ac8782568f037f8055277e5d8b80ec6d6" target="_top" xlink:title="创建加法表达式。">
<polygon fill="white" stroke="#666666" points="324.5,-327 217.5,-327 217.5,-308 324.5,-308 324.5,-327"/>
<text text-anchor="middle" x="271" y="-315" font-family="Helvetica,sans-Serif" font-size="10.00">SymbolicExpr::add</text>
</a>
</g>
</g>
<!-- Node1&#45;&gt;Node2 -->
<g id="edge1_Node000001_Node000002" class="edge">
<title>Node1&#45;&gt;Node2</title>
<g id="a_edge1_Node000001_Node000002"><a xlink:title=" ">
<path fill="none" stroke="#63b8ff" d="M94.78,-172.76C112.21,-201.7 154.01,-264.65 206,-298.5 209.15,-300.55 212.52,-302.38 216.02,-304.03"/>
<polygon fill="#63b8ff" stroke="#63b8ff" points="214.9,-307.35 225.48,-307.94 217.58,-300.88 214.9,-307.35"/>
</a>
</g>
</g>
<!-- Node3 -->
<g id="Node000003" class="node">
<title>Node3</title>
<g id="a_Node000003"><a xlink:href="../../d8/d1e/classlamina_1_1Polynomial.html#aa4209c719c18fc882b702d88e397bdf4" target="_top" xlink:title="获取多项式的次数">
<polygon fill="white" stroke="#666666" points="326.5,-289.5 215.5,-289.5 215.5,-259.5 326.5,-259.5 326.5,-289.5"/>
<text text-anchor="start" x="223.5" y="-277.5" font-family="Helvetica,sans-Serif" font-size="10.00">lamina::Polynomial</text>
<text text-anchor="middle" x="271" y="-266.5" font-family="Helvetica,sans-Serif" font-size="10.00">::degree</text>
</a>
</g>
</g>
<!-- Node1&#45;&gt;Node3 -->
<g id="edge2_Node000001_Node000003" class="edge">
<title>Node1&#45;&gt;Node3</title>
<g id="a_edge2_Node000001_Node000003"><a xlink:title=" ">
<path fill="none" stroke="#63b8ff" d="M102.34,-172.79C124.44,-192.82 165.72,-228.02 206,-250.5 208.99,-252.17 212.12,-253.77 215.32,-255.29"/>
<polygon fill="#63b8ff" stroke="#63b8ff" points="213.91,-258.49 224.47,-259.37 216.77,-252.1 213.91,-258.49"/>
</a>
</g>
</g>
<!-- Node4 -->
<g id="Node000004" class="node">
<title>Node4</title>
<g id="a_Node000004"><a xlink:href="../../dc/d25/classSymbolicExpr.html#ad3021252aa7c5e17c1e8a8523a83ac5b" target="_top" xlink:title="创建自然对数表达式。">
<polygon fill="white" stroke="#666666" points="320,-241 222,-241 222,-222 320,-222 320,-241"/>
<text text-anchor="middle" x="271" y="-229" font-family="Helvetica,sans-Serif" font-size="10.00">SymbolicExpr::ln</text>
</a>
</g>
</g>
<!-- Node1&#45;&gt;Node4 -->
<g id="edge3_Node000001_Node000004" class="edge">
<title>Node1&#45;&gt;Node4</title>
<g id="a_edge3_Node000001_Node000004"><a xlink:title=" ">
<path fill="none" stroke="#63b8ff" d="M115.02,-172.67C138.98,-184.79 174.1,-201.66 206,-213.5 211.21,-215.43 216.72,-217.28 222.24,-218.99"/>
<polygon fill="#63b8ff" stroke="#63b8ff" points="221.52,-222.43 232.11,-221.94 223.53,-215.73 221.52,-222.43"/>
</a>
</g>
</g>
<!-- Node5 -->
<g id="Node000005" class="node">
<title>Node5</title>
<g id="a_Node000005"><a xlink:href="../../d1/d42/namespacelamina.html#a663848db291e1fce3ffce8b9d4779e7d" target="_top" xlink:title=" ">
<polygon fill="white" stroke="#666666" points="330.5,-204 211.5,-204 211.5,-185 330.5,-185 330.5,-204"/>
<text text-anchor="middle" x="271" y="-192" font-family="Helvetica,sans-Serif" font-size="10.00">lamina::make_arctan</text>
</a>
</g>
</g>
<!-- Node1&#45;&gt;Node5 -->
<g id="edge4_Node000001_Node000005" class="edge">
<title>Node1&#45;&gt;Node5</title>
<g id="a_edge4_Node000001_Node000005"><a xlink:title=" ">
<path fill="none" stroke="#63b8ff" d="M160.84,-172.55C178.14,-176.03 196.29,-179.68 212.7,-182.98"/>
<polygon fill="#63b8ff" stroke="#63b8ff" points="212.18,-186.44 222.68,-184.98 213.56,-179.58 212.18,-186.44"/>
</a>
</g>
</g>
<!-- Node6 -->
<g id="Node000006" class="node">
<title>Node6</title>
<g id="a_Node000006"><a xlink:href="../../dc/d25/classSymbolicExpr.html#ad03189fc8a4db7762f7c1ca890674bbc" target="_top" xlink:title="创建乘法表达式。">
<polygon fill="white" stroke="#666666" points="336,-167 206,-167 206,-148 336,-148 336,-167"/>
<text text-anchor="middle" x="271" y="-155" font-family="Helvetica,sans-Serif" font-size="10.00">SymbolicExpr::multiply</text>
</a>
</g>
</g>
<!-- Node1&#45;&gt;Node6 -->
<g id="edge5_Node000001_Node000006" class="edge">
<title>Node1&#45;&gt;Node6</title>
<g id="a_edge5_Node000001_Node000006"><a xlink:title=" ">
<path fill="none" stroke="#63b8ff" d="M170.19,-157.5C178.74,-157.5 187.37,-157.5 195.8,-157.5"/>
<polygon fill="#63b8ff" stroke="#63b8ff" points="195.95,-161 205.95,-157.5 195.95,-154 195.95,-161"/>
</a>
</g>
</g>
<!-- Node7 -->
<g id="Node000007" class="node">
<title>Node7</title>
<g id="a_Node000007"><a xlink:href="../../dc/d25/classSymbolicExpr.html#adeb760bb6f4f28879108394537eca293" target="_top" xlink:title="创建整数数值表达式。">
<polygon fill="white" stroke="#666666" points="334.5,-130 207.5,-130 207.5,-111 334.5,-111 334.5,-130"/>
<text text-anchor="middle" x="271" y="-118" font-family="Helvetica,sans-Serif" font-size="10.00">SymbolicExpr::number</text>
</a>
</g>
</g>
<!-- Node1&#45;&gt;Node7 -->
<g id="edge6_Node000001_Node000007" class="edge">
<title>Node1&#45;&gt;Node7</title>
<g id="a_edge6_Node000001_Node000007"><a xlink:title=" ">
<path fill="none" stroke="#63b8ff" d="M160.84,-142.45C178.14,-138.97 196.29,-135.32 212.7,-132.02"/>
<polygon fill="#63b8ff" stroke="#63b8ff" points="213.56,-135.42 222.68,-130.02 212.18,-128.56 213.56,-135.42"/>
</a>
</g>
</g>
<!-- Node8 -->
<g id="Node000008" class="node">
<title>Node8</title>
<g id="a_Node000008"><a xlink:href="../../dc/d25/classSymbolicExpr.html#ab03922681e30190ba7c73d2c1e58aa40" target="_top" xlink:title="创建幂运算表达式。">
<polygon fill="white" stroke="#666666" points="330.5,-93 211.5,-93 211.5,-74 330.5,-74 330.5,-93"/>
<text text-anchor="middle" x="271" y="-81" font-family="Helvetica,sans-Serif" font-size="10.00">SymbolicExpr::power</text>
</a>
</g>
</g>
<!-- Node1&#45;&gt;Node8 -->
<g id="edge7_Node000001_Node000008" class="edge">
<title>Node1&#45;&gt;Node8</title>
<g id="a_edge7_Node000001_Node000008"><a xlink:title=" ">
<path fill="none" stroke="#63b8ff" d="M116.08,-142.28C140.05,-130.5 174.68,-114.26 206,-102.5 211.98,-100.25 218.35,-98.09 224.67,-96.09"/>
<polygon fill="#63b8ff" stroke="#63b8ff" points="225.96,-99.35 234.49,-93.07 223.91,-92.66 225.96,-99.35"/>
</a>
</g>
</g>
<!-- Node9 -->
<g id="Node000009" class="node">
<title>Node9</title>
<g id="a_Node000009"><a xlink:href="../../dc/d25/classSymbolicExpr.html#a521dfd712070d4f40d313de79d3f637c" target="_top" xlink:title="创建平方根表达式，等价于 operand^(1/2)。">
<polygon fill="white" stroke="#666666" points="325,-56 217,-56 217,-37 325,-37 325,-56"/>
<text text-anchor="middle" x="271" y="-44" font-family="Helvetica,sans-Serif" font-size="10.00">SymbolicExpr::sqrt</text>
</a>
</g>
</g>
<!-- Node1&#45;&gt;Node9 -->
<g id="edge8_Node000001_Node000009" class="edge">
<title>Node1&#45;&gt;Node9</title>
<g id="a_edge8_Node000001_Node000009"><a xlink:title=" ">
<path fill="none" stroke="#63b8ff" d="M101.77,-142.31C123.55,-122.1 164.84,-86.48 206,-65.5 210.35,-63.28 215.01,-61.28 219.75,-59.48"/>
<polygon fill="#63b8ff" stroke="#63b8ff" points="221.23,-62.67 229.52,-56.07 218.93,-56.06 221.23,-62.67"/>
</a>
</g>
</g>
<!-- Node10 -->
<g id="Node000010" class="node">
<title>Node10</title>
<g id="a_Node000010"><a xlink:href="../../dc/d25/classSymbolicExpr.html#a1718e8c497b928507b31acb089cc64ff" target="_top" xlink:title="创建变量表达式。">
<polygon fill="white" stroke="#666666" points="335.5,-19 206.5,-19 206.5,0 335.5,0 335.5,-19"/>
<text text-anchor="middle" x="271" y="-7" font-family="Helvetica,sans-Serif" font-size="10.00">SymbolicExpr::variable</text>
</a>
</g>
</g>
<!-- Node1&#45;&gt;Node10 -->
<g id="edge9_Node000001_Node000010" class="edge">
<title>Node1&#45;&gt;Node10</title>
<g id="a_edge9_Node000001_Node000010"><a xlink:title=" ">
<path fill="none" stroke="#63b8ff" d="M95.97,-142.31C114.43,-115.35 156.61,-59.13 206,-28.5 209.39,-26.4 213.03,-24.51 216.79,-22.83"/>
<polygon fill="#63b8ff" stroke="#63b8ff" points="218.3,-26 226.3,-19.05 215.72,-19.49 218.3,-26"/>
</a>
</g>
</g>
</g>
</svg>
</svg>

<style type='text/css'>
<![CDATA[
[data-mouse-over-selected='false'] { opacity: 0.7; }
[data-mouse-over-selected='true']  { opacity: 1.0; }
]]>
</style>
<script type="application/ecmascript"><![CDATA[
document.addEventListener('DOMContentLoaded', (event) => {
  highlightEdges();
  highlightAdjacentNodes();
});
]]></script>
</svg>
