<?xml version="1.0" encoding="UTF-8" standalone="no"?>
<!DOCTYPE svg PUBLIC "-//W3C//DTD SVG 1.1//EN"
 "http://www.w3.org/Graphics/SVG/1.1/DTD/svg11.dtd">
<!-- Generated by graphviz version 2.43.0 (0)
 -->
<!-- Title: lamina::RationalDecompositionStrategy::solve_coefficients Pages: 1 -->
<svg width="472pt" height="182pt"
 viewBox="0.00 0.00 472.00 182.00" xmlns="http://www.w3.org/2000/svg" xmlns:xlink="http://www.w3.org/1999/xlink">

<svg id="main" version="1.1" xmlns="http://www.w3.org/2000/svg" xmlns:xlink="http://www.w3.org/1999/xlink" xml:space="preserve" onload="init(evt)">
<style type="text/css"><![CDATA[
.node, .edge {opacity: 0.7;}
.node.selected, .edge.selected {opacity: 1;}
.edge:hover path { stroke: red; }
.edge:hover polygon { stroke: red; fill: red; }
]]></style>
<script type="application/ecmascript" xlink:href="../../svg.min.js"/>
<svg id="graph" class="graph">
<g id="graph0" class="graph" transform="scale(1 1) rotate(0) translate(4 178)">
<title>lamina::RationalDecompositionStrategy::solve_coefficients</title>
<!-- Node1 -->
<g id="Node000001" class="node">
<title>Node1</title>
<g id="a_Node000001"><a xlink:title="求解部分分式各项的待定系数。">
<polygon fill="#999999" stroke="#666666" points="170,-147 0,-147 0,-117 170,-117 170,-147"/>
<text text-anchor="start" x="8" y="-135" font-family="Helvetica,sans-Serif" font-size="10.00">lamina::RationalDecomposition</text>
<text text-anchor="middle" x="85" y="-124" font-family="Helvetica,sans-Serif" font-size="10.00">Strategy::solve_coefficients</text>
</a>
</g>
</g>
<!-- Node2 -->
<g id="Node000002" class="node">
<title>Node2</title>
<g id="a_Node000002"><a xlink:href="../../d8/d1e/classlamina_1_1Polynomial.html#aa4209c719c18fc882b702d88e397bdf4" target="_top" xlink:title="获取多项式的次数">
<polygon fill="white" stroke="#666666" points="464,-174 353,-174 353,-144 464,-144 464,-174"/>
<text text-anchor="start" x="361" y="-162" font-family="Helvetica,sans-Serif" font-size="10.00">lamina::Polynomial</text>
<text text-anchor="middle" x="408.5" y="-151" font-family="Helvetica,sans-Serif" font-size="10.00">::degree</text>
</a>
</g>
</g>
<!-- Node1&#45;&gt;Node2 -->
<g id="edge1_Node000001_Node000002" class="edge">
<title>Node1&#45;&gt;Node2</title>
<g id="a_edge1_Node000001_Node000002"><a xlink:title=" ">
<path fill="none" stroke="#63b8ff" d="M170.05,-139.06C224.01,-143.59 293.03,-149.39 342.73,-153.56"/>
<polygon fill="#63b8ff" stroke="#63b8ff" points="342.46,-157.05 352.72,-154.4 343.04,-150.07 342.46,-157.05"/>
</a>
</g>
</g>
<!-- Node3 -->
<g id="Node000003" class="node">
<title>Node3</title>
<g id="a_Node000003"><a xlink:href="../../d8/d1e/classlamina_1_1Polynomial.html#aa814387a30feaf66a7487b1f9aac3354" target="_top" xlink:title="多项式带余除法">
<polygon fill="white" stroke="#666666" points="317,-126 206,-126 206,-96 317,-96 317,-126"/>
<text text-anchor="start" x="214" y="-114" font-family="Helvetica,sans-Serif" font-size="10.00">lamina::Polynomial</text>
<text text-anchor="middle" x="261.5" y="-103" font-family="Helvetica,sans-Serif" font-size="10.00">::div_mod</text>
</a>
</g>
</g>
<!-- Node1&#45;&gt;Node3 -->
<g id="edge2_Node000001_Node000003" class="edge">
<title>Node1&#45;&gt;Node3</title>
<g id="a_edge2_Node000001_Node000003"><a xlink:title=" ">
<path fill="none" stroke="#63b8ff" d="M170.18,-121.87C178.73,-120.84 187.32,-119.81 195.62,-118.81"/>
<polygon fill="#63b8ff" stroke="#63b8ff" points="196.07,-122.28 205.58,-117.61 195.24,-115.33 196.07,-122.28"/>
</a>
</g>
</g>
<!-- Node3&#45;&gt;Node2 -->
<g id="edge3_Node000003_Node000002" class="edge">
<title>Node3&#45;&gt;Node2</title>
<g id="a_edge3_Node000003_Node000002"><a xlink:title=" ">
<path fill="none" stroke="#63b8ff" d="M307.98,-126.06C322.15,-130.75 337.93,-135.97 352.67,-140.85"/>
<polygon fill="#63b8ff" stroke="#63b8ff" points="351.59,-144.18 362.18,-144 353.79,-137.53 351.59,-144.18"/>
</a>
</g>
</g>
<!-- Node4 -->
<g id="Node000004" class="node">
<title>Node4</title>
<g id="a_Node000004"><a xlink:href="../../d8/d1e/classlamina_1_1Polynomial.html#a5ab9f08024d7084b47a746f72ba9f850" target="_top" xlink:title="判断是否为零多项式">
<polygon fill="white" stroke="#666666" points="464,-126 353,-126 353,-96 464,-96 464,-126"/>
<text text-anchor="start" x="361" y="-114" font-family="Helvetica,sans-Serif" font-size="10.00">lamina::Polynomial</text>
<text text-anchor="middle" x="408.5" y="-103" font-family="Helvetica,sans-Serif" font-size="10.00">::is_zero</text>
</a>
</g>
</g>
<!-- Node3&#45;&gt;Node4 -->
<g id="edge4_Node000003_Node000004" class="edge">
<title>Node3&#45;&gt;Node4</title>
<g id="a_edge4_Node000003_Node000004"><a xlink:title=" ">
<path fill="none" stroke="#63b8ff" d="M317.32,-111C325.53,-111 334.06,-111 342.46,-111"/>
<polygon fill="#63b8ff" stroke="#63b8ff" points="342.6,-114.5 352.6,-111 342.6,-107.5 342.6,-114.5"/>
</a>
</g>
</g>
<!-- Node5 -->
<g id="Node000005" class="node">
<title>Node5</title>
<g id="a_Node000005"><a xlink:href="../../d8/d1e/classlamina_1_1Polynomial.html#ae491492c9a43d1dee5f86b4adf803cfa" target="_top" xlink:title="获取首项系数">
<polygon fill="white" stroke="#666666" points="464,-78 353,-78 353,-48 464,-48 464,-78"/>
<text text-anchor="start" x="361" y="-66" font-family="Helvetica,sans-Serif" font-size="10.00">lamina::Polynomial</text>
<text text-anchor="middle" x="408.5" y="-55" font-family="Helvetica,sans-Serif" font-size="10.00">::lead_coeff</text>
</a>
</g>
</g>
<!-- Node3&#45;&gt;Node5 -->
<g id="edge5_Node000003_Node000005" class="edge">
<title>Node3&#45;&gt;Node5</title>
<g id="a_edge5_Node000003_Node000005"><a xlink:title=" ">
<path fill="none" stroke="#63b8ff" d="M307.98,-95.94C322.15,-91.25 337.93,-86.03 352.67,-81.15"/>
<polygon fill="#63b8ff" stroke="#63b8ff" points="353.79,-84.47 362.18,-78 351.59,-77.82 353.79,-84.47"/>
</a>
</g>
</g>
<!-- Node6 -->
<g id="Node000006" class="node">
<title>Node6</title>
<g id="a_Node000006"><a xlink:href="../../d8/d1e/classlamina_1_1Polynomial.html#aa1bfcf8f305d62777bcfbebda559d87e" target="_top" xlink:title="去除高次零系数">
<polygon fill="white" stroke="#666666" points="464,-30 353,-30 353,0 464,0 464,-30"/>
<text text-anchor="start" x="361" y="-18" font-family="Helvetica,sans-Serif" font-size="10.00">lamina::Polynomial</text>
<text text-anchor="middle" x="408.5" y="-7" font-family="Helvetica,sans-Serif" font-size="10.00">::trim</text>
</a>
</g>
</g>
<!-- Node3&#45;&gt;Node6 -->
<g id="edge6_Node000003_Node000006" class="edge">
<title>Node3&#45;&gt;Node6</title>
<g id="a_edge6_Node000003_Node000006"><a xlink:title=" ">
<path fill="none" stroke="#63b8ff" d="M278.88,-95.81C296.31,-80.18 325.16,-55.82 353,-39 355.49,-37.5 358.09,-36.03 360.74,-34.62"/>
<polygon fill="#63b8ff" stroke="#63b8ff" points="362.54,-37.63 369.92,-30.02 359.41,-31.38 362.54,-37.63"/>
</a>
</g>
</g>
</g>
</svg>
</svg>

<style type='text/css'>
<![CDATA[
[data-mouse-over-selected='false'] { opacity: 0.7; }
[data-mouse-over-selected='true']  { opacity: 1.0; }
]]>
</style>
<script type="application/ecmascript"><![CDATA[
document.addEventListener('DOMContentLoaded', (event) => {
  highlightEdges();
  highlightAdjacentNodes();
});
]]></script>
</svg>
