<?xml version="1.0" encoding="UTF-8" standalone="no"?>
<!DOCTYPE svg PUBLIC "-//W3C//DTD SVG 1.1//EN"
 "http://www.w3.org/Graphics/SVG/1.1/DTD/svg11.dtd">
<!-- Generated by graphviz version 2.43.0 (0)
 -->
<!-- Title: lamina::MultipleIntegralEngine::evaluate Pages: 1 -->
<svg width="1342pt" height="914pt"
 viewBox="0.00 0.00 1342.00 914.00" xmlns="http://www.w3.org/2000/svg" xmlns:xlink="http://www.w3.org/1999/xlink">
<g id="graph0" class="graph" transform="scale(1 1) rotate(0) translate(4 910)">
<title>lamina::MultipleIntegralEngine::evaluate</title>
<!-- Node1 -->
<g id="Node000001" class="node">
<title>Node1</title>
<g id="a_Node000001"><a xlink:title="计算迭代积分。">
<polygon fill="#999999" stroke="#666666" points="134,-390 0,-390 0,-360 134,-360 134,-390"/>
<text text-anchor="start" x="8" y="-378" font-family="Helvetica,sans-Serif" font-size="10.00">lamina::MultipleIntegral</text>
<text text-anchor="middle" x="67" y="-367" font-family="Helvetica,sans-Serif" font-size="10.00">Engine::evaluate</text>
</a>
</g>
</g>
<!-- Node2 -->
<g id="Node000002" class="node">
<title>Node2</title>
<g id="a_Node000002"><a xlink:href="../../d8/dbb/classlamina_1_1Integrator.html#a402db653f362c6fd002e9e84d05c9dda" target="_top" xlink:title="判断表达式是否依赖指定变量">
<polygon fill="white" stroke="#666666" points="289,-906 185,-906 185,-876 289,-876 289,-906"/>
<text text-anchor="start" x="193" y="-894" font-family="Helvetica,sans-Serif" font-size="10.00">lamina::Integrator</text>
<text text-anchor="middle" x="237" y="-883" font-family="Helvetica,sans-Serif" font-size="10.00">::depends_on</text>
</a>
</g>
</g>
<!-- Node1&#45;&gt;Node2 -->
<g id="edge1_Node000001_Node000002" class="edge">
<title>Node1&#45;&gt;Node2</title>
<g id="a_edge1_Node000001_Node000002"><a xlink:title=" ">
<path fill="none" stroke="#63b8ff" d="M69.18,-390.12C75.26,-464.64 105.36,-792.29 170,-867 171.94,-869.25 174.12,-871.28 176.46,-873.13"/>
<polygon fill="#63b8ff" stroke="#63b8ff" points="174.68,-876.15 184.97,-878.7 178.52,-870.3 174.68,-876.15"/>
</a>
</g>
</g>
<!-- Node4 -->
<g id="Node000004" class="node">
<title>Node4</title>
<g id="a_Node000004"><a xlink:href="../../d1/d42/namespacelamina.html#ae842e6ea2486d48553126a9ab66986bf" target="_top" xlink:title=" ">
<polygon fill="white" stroke="#666666" points="295,-840 179,-840 179,-810 295,-810 295,-840"/>
<text text-anchor="start" x="187" y="-828" font-family="Helvetica,sans-Serif" font-size="10.00">lamina::has_integral</text>
<text text-anchor="middle" x="237" y="-817" font-family="Helvetica,sans-Serif" font-size="10.00">_node_check</text>
</a>
</g>
</g>
<!-- Node1&#45;&gt;Node4 -->
<g id="edge3_Node000001_Node000004" class="edge">
<title>Node1&#45;&gt;Node4</title>
<g id="a_edge3_Node000001_Node000004"><a xlink:title=" ">
<path fill="none" stroke="#63b8ff" d="M69.85,-390.06C78.39,-457.53 115.92,-731.43 170,-796 172.59,-799.1 175.58,-801.87 178.82,-804.36"/>
<polygon fill="#63b8ff" stroke="#63b8ff" points="177.05,-807.38 187.32,-809.97 180.9,-801.54 177.05,-807.38"/>
</a>
</g>
</g>
<!-- Node5 -->
<g id="Node000005" class="node">
<title>Node5</title>
<g id="a_Node000005"><a xlink:href="../../d8/dbb/classlamina_1_1Integrator.html#ad041f93ff9d1cca47ad39439338ec2e5" target="_top" xlink:title="计算不定积分">
<polygon fill="white" stroke="#666666" points="464,-390 360,-390 360,-360 464,-360 464,-390"/>
<text text-anchor="start" x="368" y="-378" font-family="Helvetica,sans-Serif" font-size="10.00">lamina::Integrator</text>
<text text-anchor="middle" x="412" y="-367" font-family="Helvetica,sans-Serif" font-size="10.00">::integrate</text>
</a>
</g>
</g>
<!-- Node1&#45;&gt;Node5 -->
<g id="edge5_Node000001_Node000005" class="edge">
<title>Node1&#45;&gt;Node5</title>
<g id="a_edge5_Node000001_Node000005"><a xlink:title=" ">
<path fill="none" stroke="#63b8ff" d="M134.13,-375C196.43,-375 289,-375 349.67,-375"/>
<polygon fill="#63b8ff" stroke="#63b8ff" points="349.87,-378.5 359.87,-375 349.87,-371.5 349.87,-378.5"/>
</a>
</g>
</g>
<!-- Node7 -->
<g id="Node000007" class="node">
<title>Node7</title>
<g id="a_Node000007"><a xlink:href="../../dc/d25/classSymbolicExpr.html#ad03189fc8a4db7762f7c1ca890674bbc" target="_top" xlink:title="创建乘法表达式。">
<polygon fill="white" stroke="#666666" points="1169.5,-445.5 1039.5,-445.5 1039.5,-426.5 1169.5,-426.5 1169.5,-445.5"/>
<text text-anchor="middle" x="1104.5" y="-433.5" font-family="Helvetica,sans-Serif" font-size="10.00">SymbolicExpr::multiply</text>
</a>
</g>
</g>
<!-- Node1&#45;&gt;Node7 -->
<g id="edge56_Node000001_Node000007" class="edge">
<title>Node1&#45;&gt;Node7</title>
<g id="a_edge56_Node000001_Node000007"><a xlink:title=" ">
<path fill="none" stroke="#63b8ff" d="M72.42,-390.46C94.73,-464.8 202.16,-782 411,-782 411,-782 411,-782 744,-782 857.96,-782 908.05,-799.84 994,-725 1077.7,-652.12 1097.63,-508.33 1102.2,-455.8"/>
<polygon fill="#63b8ff" stroke="#63b8ff" points="1105.71,-455.76 1102.99,-445.52 1098.73,-455.23 1105.71,-455.76"/>
</a>
</g>
</g>
<!-- Node24 -->
<g id="Node000024" class="node">
<title>Node24</title>
<g id="a_Node000024"><a xlink:href="../../d1/d42/namespacelamina.html#a581a2886a13064c468f1d1b5cd47b9cd" target="_top" xlink:title=" ">
<polygon fill="white" stroke="#666666" points="971.5,-219.5 871.5,-219.5 871.5,-200.5 971.5,-200.5 971.5,-219.5"/>
<text text-anchor="middle" x="921.5" y="-207.5" font-family="Helvetica,sans-Serif" font-size="10.00">lamina::sym_sub</text>
</a>
</g>
</g>
<!-- Node1&#45;&gt;Node24 -->
<g id="edge57_Node000001_Node000024" class="edge">
<title>Node1&#45;&gt;Node24</title>
<g id="a_edge57_Node000001_Node000024"><a xlink:title=" ">
<path fill="none" stroke="#63b8ff" d="M134.23,-361.97C245.49,-340.11 477.02,-294.72 673,-257 737.29,-244.63 811.01,-230.65 861.16,-221.18"/>
<polygon fill="#63b8ff" stroke="#63b8ff" points="862,-224.59 871.18,-219.29 860.7,-217.71 862,-224.59"/>
</a>
</g>
</g>
<!-- Node26 -->
<g id="Node000026" class="node">
<title>Node26</title>
<g id="a_Node000026"><a xlink:href="../../d8/dbb/classlamina_1_1Integrator.html#a7477aee41552c2e8aa5065d0b8094fc3" target="_top" xlink:title="计算定积分">
<polygon fill="white" stroke="#666666" points="289,-271 185,-271 185,-241 289,-241 289,-271"/>
<text text-anchor="start" x="193" y="-259" font-family="Helvetica,sans-Serif" font-size="10.00">lamina::Integrator</text>
<text text-anchor="middle" x="237" y="-248" font-family="Helvetica,sans-Serif" font-size="10.00">::integrate_def</text>
</a>
</g>
</g>
<!-- Node1&#45;&gt;Node26 -->
<g id="edge42_Node000001_Node000026" class="edge">
<title>Node1&#45;&gt;Node26</title>
<g id="a_edge42_Node000001_Node000026"><a xlink:title=" ">
<path fill="none" stroke="#63b8ff" d="M89.28,-359.93C118.86,-338.97 172.56,-300.94 206.14,-277.15"/>
<polygon fill="#63b8ff" stroke="#63b8ff" points="208.49,-279.77 214.63,-271.14 204.45,-274.06 208.49,-279.77"/>
</a>
</g>
</g>
<!-- Node30 -->
<g id="Node000030" class="node">
<title>Node30</title>
<g id="a_Node000030"><a xlink:href="../../d0/d72/classlamina_1_1MultipleIntegralEngine.html#a9e8912e950bc44aa699254ad17c93785" target="_top" xlink:title="校验步骤列表是否合法。">
<polygon fill="white" stroke="#666666" points="304,-223 170,-223 170,-193 304,-193 304,-223"/>
<text text-anchor="start" x="178" y="-211" font-family="Helvetica,sans-Serif" font-size="10.00">lamina::MultipleIntegral</text>
<text text-anchor="middle" x="237" y="-200" font-family="Helvetica,sans-Serif" font-size="10.00">Engine::validate</text>
</a>
</g>
</g>
<!-- Node1&#45;&gt;Node30 -->
<g id="edge58_Node000001_Node000030" class="edge">
<title>Node1&#45;&gt;Node30</title>
<g id="a_edge58_Node000001_Node000030"><a xlink:title=" ">
<path fill="none" stroke="#63b8ff" d="M74.98,-359.75C88.96,-330.81 123.15,-267.62 170,-232 171.81,-230.62 173.71,-229.32 175.68,-228.08"/>
<polygon fill="#63b8ff" stroke="#63b8ff" points="177.6,-231.02 184.64,-223.1 174.2,-224.9 177.6,-231.02"/>
</a>
</g>
</g>
<!-- Node3 -->
<g id="Node000003" class="node">
<title>Node3</title>
<g id="a_Node000003"><a xlink:href="../../d1/d42/namespacelamina.html#ad31d159f4e943798241e39b1cbf96507" target="_top" xlink:title="判断符号节点是否依赖指定变量">
<polygon fill="white" stroke="#666666" points="480,-900.5 344,-900.5 344,-881.5 480,-881.5 480,-900.5"/>
<text text-anchor="middle" x="412" y="-888.5" font-family="Helvetica,sans-Serif" font-size="10.00">lamina::depends_on_var</text>
</a>
</g>
</g>
<!-- Node2&#45;&gt;Node3 -->
<g id="edge2_Node000002_Node000003" class="edge">
<title>Node2&#45;&gt;Node3</title>
<g id="a_edge2_Node000002_Node000003"><a xlink:title=" ">
<path fill="none" stroke="#63b8ff" d="M289.44,-891C303.28,-891 318.56,-891 333.47,-891"/>
<polygon fill="#63b8ff" stroke="#63b8ff" points="333.72,-894.5 343.72,-891 333.72,-887.5 333.72,-894.5"/>
</a>
</g>
</g>
<!-- Node4&#45;&gt;Node4 -->
<g id="edge4_Node000004_Node000004" class="edge">
<title>Node4&#45;&gt;Node4</title>
<g id="a_edge4_Node000004_Node000004"><a xlink:title=" ">
<path fill="none" stroke="#63b8ff" d="M207.12,-840.28C200.48,-849.41 210.44,-858 237,-858 252.77,-858 262.69,-854.97 266.76,-850.6"/>
<polygon fill="#63b8ff" stroke="#63b8ff" points="270.26,-850.32 266.88,-840.28 263.26,-850.23 270.26,-850.32"/>
</a>
</g>
</g>
<!-- Node6 -->
<g id="Node000006" class="node">
<title>Node6</title>
<g id="a_Node000006"><a xlink:href="../../d8/dbb/classlamina_1_1Integrator.html#a933c2400bb71a25a6f1e81c5cab0130b" target="_top" xlink:title=" ">
<polygon fill="white" stroke="#666666" points="795,-296 691,-296 691,-266 795,-266 795,-296"/>
<text text-anchor="start" x="699" y="-284" font-family="Helvetica,sans-Serif" font-size="10.00">lamina::Integrator</text>
<text text-anchor="middle" x="743" y="-273" font-family="Helvetica,sans-Serif" font-size="10.00">::apply_linearity</text>
</a>
</g>
</g>
<!-- Node5&#45;&gt;Node6 -->
<g id="edge6_Node000005_Node000006" class="edge">
<title>Node5&#45;&gt;Node6</title>
<g id="a_edge6_Node000005_Node000006"><a xlink:title=" ">
<path fill="none" stroke="#63b8ff" d="M450.1,-359.94C506.13,-341.23 612.95,-310.4 680.67,-293.13"/>
<polygon fill="#63b8ff" stroke="#63b8ff" points="681.93,-296.42 690.78,-290.58 680.22,-289.63 681.93,-296.42"/>
</a>
</g>
</g>
<!-- Node14 -->
<g id="Node000014" class="node">
<title>Node14</title>
<g id="a_Node000014"><a xlink:href="../../d8/dbb/classlamina_1_1Integrator.html#af8e2012a43068412619b9afa2a5188c7" target="_top" xlink:title="递归积分入口">
<polygon fill="white" stroke="#666666" points="637,-538 520,-538 520,-508 637,-508 637,-538"/>
<text text-anchor="start" x="528" y="-526" font-family="Helvetica,sans-Serif" font-size="10.00">lamina::Integrator</text>
<text text-anchor="middle" x="578.5" y="-515" font-family="Helvetica,sans-Serif" font-size="10.00">::integrate_recursive</text>
</a>
</g>
</g>
<!-- Node5&#45;&gt;Node14 -->
<g id="edge16_Node000005_Node000014" class="edge">
<title>Node5&#45;&gt;Node14</title>
<g id="a_edge16_Node000005_Node000014"><a xlink:title=" ">
<path fill="none" stroke="#63b8ff" d="M429.68,-390.01C458.87,-416.27 519.32,-470.66 553.18,-501.12"/>
<polygon fill="#63b8ff" stroke="#63b8ff" points="551,-503.87 560.78,-507.95 555.68,-498.66 551,-503.87"/>
</a>
</g>
</g>
<!-- Node6&#45;&gt;Node5 -->
<g id="edge7_Node000006_Node000005" class="edge">
<title>Node6&#45;&gt;Node5</title>
<g id="a_edge7_Node000006_Node000005"><a xlink:title=" ">
<path fill="none" stroke="#63b8ff" d="M704.65,-296.15C648.5,-314.88 541.74,-345.69 474.14,-362.92"/>
<polygon fill="#63b8ff" stroke="#63b8ff" points="472.89,-359.63 464.05,-365.46 474.6,-366.41 472.89,-359.63"/>
</a>
</g>
</g>
<!-- Node6&#45;&gt;Node7 -->
<g id="edge8_Node000006_Node000007" class="edge">
<title>Node6&#45;&gt;Node7</title>
<g id="a_edge8_Node000006_Node000007"><a xlink:title=" ">
<path fill="none" stroke="#63b8ff" d="M795.08,-281.59C849.93,-284.79 936.86,-297.56 994,-344 1022.38,-367.07 1001.54,-395.03 1030,-418 1031.57,-419.27 1033.22,-420.45 1034.93,-421.55"/>
<polygon fill="#63b8ff" stroke="#63b8ff" points="1033.46,-424.73 1043.92,-426.4 1036.78,-418.57 1033.46,-424.73"/>
</a>
</g>
</g>
<!-- Node8 -->
<g id="Node000008" class="node">
<title>Node8</title>
<g id="a_Node000008"><a xlink:href="../../dc/d25/classSymbolicExpr.html#adeb760bb6f4f28879108394537eca293" target="_top" xlink:title="创建整数数值表达式。">
<polygon fill="white" stroke="#666666" points="1168,-257.5 1041,-257.5 1041,-238.5 1168,-238.5 1168,-257.5"/>
<text text-anchor="middle" x="1104.5" y="-245.5" font-family="Helvetica,sans-Serif" font-size="10.00">SymbolicExpr::number</text>
</a>
</g>
</g>
<!-- Node6&#45;&gt;Node8 -->
<g id="edge9_Node000006_Node000008" class="edge">
<title>Node6&#45;&gt;Node8</title>
<g id="a_edge9_Node000006_Node000008"><a xlink:title=" ">
<path fill="none" stroke="#63b8ff" d="M795.13,-276.31C856.74,-270.65 960.71,-261.11 1030.69,-254.68"/>
<polygon fill="#63b8ff" stroke="#63b8ff" points="1031.13,-258.16 1040.76,-253.76 1030.49,-251.19 1031.13,-258.16"/>
</a>
</g>
</g>
<!-- Node9 -->
<g id="Node000009" class="node">
<title>Node9</title>
<g id="a_Node000009"><a xlink:href="../../dc/d25/classSymbolicExpr.html#acc2ea5b99b699087717f3ac42433e4b8" target="_top" xlink:title="对表达式进行化简。">
<polygon fill="white" stroke="#666666" points="985.5,-95.5 857.5,-95.5 857.5,-76.5 985.5,-76.5 985.5,-95.5"/>
<text text-anchor="middle" x="921.5" y="-83.5" font-family="Helvetica,sans-Serif" font-size="10.00">SymbolicExpr::simplify</text>
</a>
</g>
</g>
<!-- Node6&#45;&gt;Node9 -->
<g id="edge10_Node000006_Node000009" class="edge">
<title>Node6&#45;&gt;Node9</title>
<g id="a_edge10_Node000006_Node000009"><a xlink:title=" ">
<path fill="none" stroke="#63b8ff" d="M757.85,-265.7C790.19,-229.97 870.5,-141.24 904.69,-103.47"/>
<polygon fill="#63b8ff" stroke="#63b8ff" points="907.5,-105.58 911.61,-95.82 902.31,-100.89 907.5,-105.58"/>
</a>
</g>
</g>
<!-- Node11 -->
<g id="Node000011" class="node">
<title>Node11</title>
<g id="a_Node000011"><a xlink:href="../../d1/d42/namespacelamina.html#ae1ead7a217c0cba5a6362056a695f9b9" target="_top" xlink:title=" ">
<polygon fill="white" stroke="#666666" points="994,-371.5 849,-371.5 849,-352.5 994,-352.5 994,-371.5"/>
<text text-anchor="middle" x="921.5" y="-359.5" font-family="Helvetica,sans-Serif" font-size="10.00">lamina::valid_dependency</text>
</a>
</g>
</g>
<!-- Node6&#45;&gt;Node11 -->
<g id="edge12_Node000006_Node000011" class="edge">
<title>Node6&#45;&gt;Node11</title>
<g id="a_edge12_Node000006_Node000011"><a xlink:title=" ">
<path fill="none" stroke="#63b8ff" d="M790.4,-296.04C798.03,-298.83 805.79,-301.86 813,-305 842.01,-317.65 873.89,-335.02 895.34,-347.25"/>
<polygon fill="#63b8ff" stroke="#63b8ff" points="893.72,-350.35 904.13,-352.31 897.21,-344.29 893.72,-350.35"/>
</a>
</g>
</g>
<!-- Node10 -->
<g id="Node000010" class="node">
<title>Node10</title>
<g id="a_Node000010"><a xlink:href="../../d3/da1/classNormalizationVisitor.html#abefa11f3ddef7d3918dec3102f6fbd40" target="_top" xlink:title="获取规范化结果">
<polygon fill="white" stroke="#666666" points="1333,-101 1216,-101 1216,-71 1333,-71 1333,-101"/>
<text text-anchor="start" x="1224" y="-89" font-family="Helvetica,sans-Serif" font-size="10.00">NormalizationVisitor</text>
<text text-anchor="middle" x="1274.5" y="-78" font-family="Helvetica,sans-Serif" font-size="10.00">::get_result</text>
</a>
</g>
</g>
<!-- Node9&#45;&gt;Node10 -->
<g id="edge11_Node000009_Node000010" class="edge">
<title>Node9&#45;&gt;Node10</title>
<g id="a_edge11_Node000009_Node000010"><a xlink:title=" ">
<path fill="none" stroke="#63b8ff" d="M985.66,-86C1047.64,-86 1141.86,-86 1205.47,-86"/>
<polygon fill="#63b8ff" stroke="#63b8ff" points="1205.8,-89.5 1215.8,-86 1205.8,-82.5 1205.8,-89.5"/>
</a>
</g>
</g>
<!-- Node12 -->
<g id="Node000012" class="node">
<title>Node12</title>
<g id="a_Node000012"><a xlink:href="../../dc/d25/classSymbolicExpr.html#a12ea2bce8fc0fa5da98a0cfae9030c2f" target="_top" xlink:title="对表达式关于指定变量求导。">
<polygon fill="white" stroke="#666666" points="1179,-332.5 1030,-332.5 1030,-313.5 1179,-313.5 1179,-332.5"/>
<text text-anchor="middle" x="1104.5" y="-320.5" font-family="Helvetica,sans-Serif" font-size="10.00">SymbolicExpr::differentiate</text>
</a>
</g>
</g>
<!-- Node11&#45;&gt;Node12 -->
<g id="edge13_Node000011_Node000012" class="edge">
<title>Node11&#45;&gt;Node12</title>
<g id="a_edge13_Node000011_Node000012"><a xlink:title=" ">
<path fill="none" stroke="#63b8ff" d="M966.78,-352.46C991.74,-347.08 1023.12,-340.32 1049.52,-334.63"/>
<polygon fill="#63b8ff" stroke="#63b8ff" points="1050.33,-338.04 1059.37,-332.51 1048.85,-331.19 1050.33,-338.04"/>
</a>
</g>
</g>
<!-- Node12&#45;&gt;Node10 -->
<g id="edge15_Node000012_Node000010" class="edge">
<title>Node12&#45;&gt;Node10</title>
<g id="a_edge15_Node000012_Node000010"><a xlink:title=" ">
<path fill="none" stroke="#63b8ff" d="M1122.08,-313.37C1138.19,-303.38 1162.56,-286.5 1179,-267 1220.35,-217.95 1250.47,-147.79 1264.56,-110.88"/>
<polygon fill="#63b8ff" stroke="#63b8ff" points="1267.89,-111.99 1268.11,-101.4 1261.33,-109.54 1267.89,-111.99"/>
</a>
</g>
</g>
<!-- Node13 -->
<g id="Node000013" class="node">
<title>Node13</title>
<g id="a_Node000013"><a xlink:href="../../d3/d1a/classDifferentiationVisitor.html#a069c6a379bd1b15007f02ed883114ab9" target="_top" xlink:title="获取求导结果">
<polygon fill="white" stroke="#666666" points="1334,-338 1215,-338 1215,-308 1334,-308 1334,-338"/>
<text text-anchor="start" x="1223" y="-326" font-family="Helvetica,sans-Serif" font-size="10.00">DifferentiationVisitor</text>
<text text-anchor="middle" x="1274.5" y="-315" font-family="Helvetica,sans-Serif" font-size="10.00">::get_result</text>
</a>
</g>
</g>
<!-- Node12&#45;&gt;Node13 -->
<g id="edge14_Node000012_Node000013" class="edge">
<title>Node12&#45;&gt;Node13</title>
<g id="a_edge14_Node000012_Node000013"><a xlink:title=" ">
<path fill="none" stroke="#63b8ff" d="M1179.19,-323C1187.65,-323 1196.25,-323 1204.65,-323"/>
<polygon fill="#63b8ff" stroke="#63b8ff" points="1204.76,-326.5 1214.76,-323 1204.76,-319.5 1204.76,-326.5"/>
</a>
</g>
</g>
<!-- Node14&#45;&gt;Node7 -->
<g id="edge31_Node000014_Node000007" class="edge">
<title>Node14&#45;&gt;Node7</title>
<g id="a_edge31_Node000014_Node000007"><a xlink:title=" ">
<path fill="none" stroke="#63b8ff" d="M584.57,-538.17C595.46,-568.12 624.12,-634.6 673,-665 794.43,-740.53 874.36,-765.33 994,-687 1075.55,-633.6 1096.71,-504.74 1101.9,-455.54"/>
<polygon fill="#63b8ff" stroke="#63b8ff" points="1105.39,-455.85 1102.85,-445.56 1098.42,-455.19 1105.39,-455.85"/>
</a>
</g>
</g>
<!-- Node14&#45;&gt;Node11 -->
<g id="edge40_Node000014_Node000011" class="edge">
<title>Node14&#45;&gt;Node11</title>
<g id="a_edge40_Node000014_Node000011"><a xlink:title=" ">
<path fill="none" stroke="#63b8ff" d="M585.23,-507.98C596.92,-479.64 626.39,-418.66 673,-391 722.7,-361.5 787.93,-354.9 838.95,-355.32"/>
<polygon fill="#63b8ff" stroke="#63b8ff" points="838.89,-358.82 848.95,-355.49 839.01,-351.82 838.89,-358.82"/>
</a>
</g>
</g>
<!-- Node15 -->
<g id="Node000015" class="node">
<title>Node15</title>
<g id="a_Node000015"><a xlink:href="../../d8/dbb/classlamina_1_1Integrator.html#aa964c6f76a91b1a15966f67fab623474" target="_top" xlink:title=" ">
<polygon fill="white" stroke="#666666" points="795,-430 691,-430 691,-400 795,-400 795,-430"/>
<text text-anchor="start" x="699" y="-418" font-family="Helvetica,sans-Serif" font-size="10.00">lamina::Integrator</text>
<text text-anchor="middle" x="743" y="-407" font-family="Helvetica,sans-Serif" font-size="10.00">::check_cycle</text>
</a>
</g>
</g>
<!-- Node14&#45;&gt;Node15 -->
<g id="edge17_Node000014_Node000015" class="edge">
<title>Node14&#45;&gt;Node15</title>
<g id="a_edge17_Node000014_Node000015"><a xlink:title=" ">
<path fill="none" stroke="#63b8ff" d="M602.09,-507.98C630.39,-489.18 679.02,-456.86 710.84,-435.71"/>
<polygon fill="#63b8ff" stroke="#63b8ff" points="712.94,-438.51 719.34,-430.06 709.07,-432.68 712.94,-438.51"/>
</a>
</g>
</g>
<!-- Node18 -->
<g id="Node000018" class="node">
<title>Node18</title>
<g id="a_Node000018"><a xlink:href="../../d1/d42/namespacelamina.html#af9c7851c330c76a4cd18ae36e1713aae" target="_top" xlink:title=" ">
<polygon fill="white" stroke="#666666" points="986,-677.5 857,-677.5 857,-658.5 986,-658.5 986,-677.5"/>
<text text-anchor="middle" x="921.5" y="-665.5" font-family="Helvetica,sans-Serif" font-size="10.00">lamina::make_expr_ptr</text>
</a>
</g>
</g>
<!-- Node14&#45;&gt;Node18 -->
<g id="edge28_Node000014_Node000018" class="edge">
<title>Node14&#45;&gt;Node18</title>
<g id="a_edge28_Node000014_Node000018"><a xlink:title=" ">
<path fill="none" stroke="#63b8ff" d="M587.44,-538.29C601.19,-563.03 631.95,-611.38 673,-634 726.15,-663.29 795.14,-670.72 846.77,-671.43"/>
<polygon fill="#63b8ff" stroke="#63b8ff" points="846.84,-674.93 856.86,-671.49 846.88,-667.93 846.84,-674.93"/>
</a>
</g>
</g>
<!-- Node19 -->
<g id="Node000019" class="node">
<title>Node19</title>
<g id="a_Node000019"><a xlink:href="../../dc/d25/classSymbolicExpr.html#a1718e8c497b928507b31acb089cc64ff" target="_top" xlink:title="创建变量表达式。">
<polygon fill="white" stroke="#666666" points="986,-499.5 857,-499.5 857,-480.5 986,-480.5 986,-499.5"/>
<text text-anchor="middle" x="921.5" y="-487.5" font-family="Helvetica,sans-Serif" font-size="10.00">SymbolicExpr::variable</text>
</a>
</g>
</g>
<!-- Node14&#45;&gt;Node19 -->
<g id="edge41_Node000014_Node000019" class="edge">
<title>Node14&#45;&gt;Node19</title>
<g id="a_edge41_Node000014_Node000019"><a xlink:title=" ">
<path fill="none" stroke="#63b8ff" d="M589.72,-538.1C604.97,-559.13 635.91,-596.29 673,-611 730.84,-633.94 756.24,-636.5 813,-611 860,-589.88 894.83,-536.93 910.8,-508.59"/>
<polygon fill="#63b8ff" stroke="#63b8ff" points="913.95,-510.14 915.66,-499.68 907.8,-506.79 913.95,-510.14"/>
</a>
</g>
</g>
<!-- Node20 -->
<g id="Node000020" class="node">
<title>Node20</title>
<g id="a_Node000020"><a xlink:href="../../d8/dbb/classlamina_1_1Integrator.html#a71d322b0c8340b7935d6d5a121fea59f" target="_top" xlink:title=" ">
<polygon fill="white" stroke="#666666" points="802,-602 684,-602 684,-572 802,-572 802,-602"/>
<text text-anchor="start" x="692" y="-590" font-family="Helvetica,sans-Serif" font-size="10.00">lamina::Integrator</text>
<text text-anchor="middle" x="743" y="-579" font-family="Helvetica,sans-Serif" font-size="10.00">::dispatch_strategies</text>
</a>
</g>
</g>
<!-- Node14&#45;&gt;Node20 -->
<g id="edge26_Node000014_Node000020" class="edge">
<title>Node14&#45;&gt;Node20</title>
<g id="a_edge26_Node000014_Node000020"><a xlink:title=" ">
<path fill="none" stroke="#63b8ff" d="M613.02,-538.01C630.74,-545.77 652.91,-555.22 673,-563 677.76,-564.84 682.72,-566.7 687.71,-568.52"/>
<polygon fill="#63b8ff" stroke="#63b8ff" points="686.7,-571.87 697.29,-571.96 689.07,-565.28 686.7,-571.87"/>
</a>
</g>
</g>
<!-- Node21 -->
<g id="Node000021" class="node">
<title>Node21</title>
<g id="a_Node000021"><a xlink:href="../../dc/d25/classSymbolicExpr.html#abc98503493872cfc56a71bbf7137ca49" target="_top" xlink:title="判断表达式是否为数值节点。">
<polygon fill="white" stroke="#666666" points="813,-553.5 673,-553.5 673,-534.5 813,-534.5 813,-553.5"/>
<text text-anchor="middle" x="743" y="-541.5" font-family="Helvetica,sans-Serif" font-size="10.00">SymbolicExpr::is_number</text>
</a>
</g>
</g>
<!-- Node14&#45;&gt;Node21 -->
<g id="edge27_Node000014_Node000021" class="edge">
<title>Node14&#45;&gt;Node21</title>
<g id="a_edge27_Node000014_Node000021"><a xlink:title=" ">
<path fill="none" stroke="#63b8ff" d="M637.25,-530.46C645.51,-531.53 654.13,-532.64 662.71,-533.75"/>
<polygon fill="#63b8ff" stroke="#63b8ff" points="662.39,-537.24 672.76,-535.05 663.29,-530.3 662.39,-537.24"/>
</a>
</g>
</g>
<!-- Node22 -->
<g id="Node000022" class="node">
<title>Node22</title>
<g id="a_Node000022"><a xlink:href="../../d8/dbb/classlamina_1_1Integrator.html#aa96105e4b760b421c30bfdaf01a044ad" target="_top" xlink:title=" ">
<polygon fill="white" stroke="#666666" points="804,-516 682,-516 682,-486 804,-486 804,-516"/>
<text text-anchor="start" x="690" y="-504" font-family="Helvetica,sans-Serif" font-size="10.00">lamina::Integrator</text>
<text text-anchor="middle" x="743" y="-493" font-family="Helvetica,sans-Serif" font-size="10.00">::make_integral_node</text>
</a>
</g>
</g>
<!-- Node14&#45;&gt;Node22 -->
<g id="edge29_Node000014_Node000022" class="edge">
<title>Node14&#45;&gt;Node22</title>
<g id="a_edge29_Node000014_Node000022"><a xlink:title=" ">
<path fill="none" stroke="#63b8ff" d="M637.25,-515.18C648.47,-513.66 660.34,-512.06 671.91,-510.49"/>
<polygon fill="#63b8ff" stroke="#63b8ff" points="672.53,-513.94 681.97,-509.13 671.59,-507 672.53,-513.94"/>
</a>
</g>
</g>
<!-- Node23 -->
<g id="Node000023" class="node">
<title>Node23</title>
<g id="a_Node000023"><a xlink:href="../../d8/dbb/classlamina_1_1Integrator.html#acc7ce748ee8a3a60eb901a29f0fd0556" target="_top" xlink:title=" ">
<polygon fill="white" stroke="#666666" points="795,-344 691,-344 691,-314 795,-314 795,-344"/>
<text text-anchor="start" x="699" y="-332" font-family="Helvetica,sans-Serif" font-size="10.00">lamina::Integrator</text>
<text text-anchor="middle" x="743" y="-321" font-family="Helvetica,sans-Serif" font-size="10.00">::resolve_cycle</text>
</a>
</g>
</g>
<!-- Node14&#45;&gt;Node23 -->
<g id="edge32_Node000014_Node000023" class="edge">
<title>Node14&#45;&gt;Node23</title>
<g id="a_edge32_Node000014_Node000023"><a xlink:title=" ">
<path fill="none" stroke="#63b8ff" d="M584.38,-507.61C595.28,-475.57 624.52,-401.09 673,-358 676.79,-354.63 681.02,-351.62 685.48,-348.93"/>
<polygon fill="#63b8ff" stroke="#63b8ff" points="687.16,-352 694.27,-344.15 683.81,-345.85 687.16,-352"/>
</a>
</g>
</g>
<!-- Node15&#45;&gt;Node7 -->
<g id="edge23_Node000015_Node000007" class="edge">
<title>Node15&#45;&gt;Node7</title>
<g id="a_edge23_Node000015_Node000007"><a xlink:title=" ">
<path fill="none" stroke="#63b8ff" d="M795.13,-417.99C856.28,-421.56 959.16,-427.57 1029.11,-431.65"/>
<polygon fill="#63b8ff" stroke="#63b8ff" points="1029,-435.15 1039.19,-432.24 1029.41,-428.17 1029,-435.15"/>
</a>
</g>
</g>
<!-- Node15&#45;&gt;Node11 -->
<g id="edge24_Node000015_Node000011" class="edge">
<title>Node15&#45;&gt;Node11</title>
<g id="a_edge24_Node000015_Node000011"><a xlink:title=" ">
<path fill="none" stroke="#63b8ff" d="M788.54,-400C807.16,-393.88 829.06,-386.87 849,-381 856.8,-378.7 865.11,-376.38 873.2,-374.19"/>
<polygon fill="#63b8ff" stroke="#63b8ff" points="874.16,-377.55 882.92,-371.58 872.35,-370.79 874.16,-377.55"/>
</a>
</g>
</g>
<!-- Node16 -->
<g id="Node000016" class="node">
<title>Node16</title>
<g id="a_Node000016"><a xlink:href="../../dc/d25/classSymbolicExpr.html#aea4c251b3fd9994c77fb8b26dae96d5f" target="_top" xlink:title="执行符号除法。">
<polygon fill="white" stroke="#666666" points="981,-408.5 862,-408.5 862,-389.5 981,-389.5 981,-408.5"/>
<text text-anchor="middle" x="921.5" y="-396.5" font-family="Helvetica,sans-Serif" font-size="10.00">SymbolicExpr::divide</text>
</a>
</g>
</g>
<!-- Node15&#45;&gt;Node16 -->
<g id="edge18_Node000015_Node000016" class="edge">
<title>Node15&#45;&gt;Node16</title>
<g id="a_edge18_Node000015_Node000016"><a xlink:title=" ">
<path fill="none" stroke="#63b8ff" d="M795.05,-410.37C812.74,-408.77 832.88,-406.94 851.76,-405.23"/>
<polygon fill="#63b8ff" stroke="#63b8ff" points="852.15,-408.71 861.79,-404.32 851.52,-401.74 852.15,-408.71"/>
</a>
</g>
</g>
<!-- Node15&#45;&gt;Node18 -->
<g id="edge22_Node000015_Node000018" class="edge">
<title>Node15&#45;&gt;Node18</title>
<g id="a_edge22_Node000015_Node000018"><a xlink:title=" ">
<path fill="none" stroke="#63b8ff" d="M764.04,-430.07C778.75,-441.79 798.6,-459.03 813,-477 858.7,-534.02 896.33,-612.98 912.28,-648.87"/>
<polygon fill="#63b8ff" stroke="#63b8ff" points="909.14,-650.42 916.36,-658.18 915.55,-647.61 909.14,-650.42"/>
</a>
</g>
</g>
<!-- Node15&#45;&gt;Node19 -->
<g id="edge25_Node000015_Node000019" class="edge">
<title>Node15&#45;&gt;Node19</title>
<g id="a_edge25_Node000015_Node000019"><a xlink:title=" ">
<path fill="none" stroke="#63b8ff" d="M779.83,-430.01C790.51,-434.49 802.23,-439.43 813,-444 838.61,-454.86 867.6,-467.27 889.01,-476.46"/>
<polygon fill="#63b8ff" stroke="#63b8ff" points="887.71,-479.71 898.28,-480.44 890.47,-473.28 887.71,-479.71"/>
</a>
</g>
</g>
<!-- Node16&#45;&gt;Node7 -->
<g id="edge19_Node000016_Node000007" class="edge">
<title>Node16&#45;&gt;Node7</title>
<g id="a_edge19_Node000016_Node000007"><a xlink:title=" ">
<path fill="none" stroke="#63b8ff" d="M969.11,-408.53C992.77,-413.36 1021.71,-419.28 1046.67,-424.38"/>
<polygon fill="#63b8ff" stroke="#63b8ff" points="1046.23,-427.87 1056.73,-426.44 1047.64,-421.01 1046.23,-427.87"/>
</a>
</g>
</g>
<!-- Node16&#45;&gt;Node8 -->
<g id="edge20_Node000016_Node000008" class="edge">
<title>Node16&#45;&gt;Node8</title>
<g id="a_edge20_Node000016_Node000008"><a xlink:title=" ">
<path fill="none" stroke="#63b8ff" d="M980.15,-389.45C985.13,-387.19 989.85,-384.41 994,-381 1022.88,-357.28 1006.59,-334.14 1030,-305 1043.53,-288.16 1062.98,-273.36 1078.48,-263.06"/>
<polygon fill="#63b8ff" stroke="#63b8ff" points="1080.55,-265.89 1087.07,-257.54 1076.77,-260 1080.55,-265.89"/>
</a>
</g>
</g>
<!-- Node17 -->
<g id="Node000017" class="node">
<title>Node17</title>
<g id="a_Node000017"><a xlink:href="../../dc/d25/classSymbolicExpr.html#ab03922681e30190ba7c73d2c1e58aa40" target="_top" xlink:title="创建幂运算表达式。">
<polygon fill="white" stroke="#666666" points="1164,-408.5 1045,-408.5 1045,-389.5 1164,-389.5 1164,-408.5"/>
<text text-anchor="middle" x="1104.5" y="-396.5" font-family="Helvetica,sans-Serif" font-size="10.00">SymbolicExpr::power</text>
</a>
</g>
</g>
<!-- Node16&#45;&gt;Node17 -->
<g id="edge21_Node000016_Node000017" class="edge">
<title>Node16&#45;&gt;Node17</title>
<g id="a_edge21_Node000016_Node000017"><a xlink:title=" ">
<path fill="none" stroke="#63b8ff" d="M981.27,-399C998.26,-399 1016.97,-399 1034.53,-399"/>
<polygon fill="#63b8ff" stroke="#63b8ff" points="1034.72,-402.5 1044.72,-399 1034.72,-395.5 1034.72,-402.5"/>
</a>
</g>
</g>
<!-- Node22&#45;&gt;Node19 -->
<g id="edge30_Node000022_Node000019" class="edge">
<title>Node22&#45;&gt;Node19</title>
<g id="a_edge30_Node000022_Node000019"><a xlink:title=" ">
<path fill="none" stroke="#63b8ff" d="M804.25,-497.25C817.91,-496.39 832.57,-495.48 846.72,-494.6"/>
<polygon fill="#63b8ff" stroke="#63b8ff" points="847.15,-498.08 856.91,-493.96 846.71,-491.09 847.15,-498.08"/>
</a>
</g>
</g>
<!-- Node23&#45;&gt;Node8 -->
<g id="edge34_Node000023_Node000008" class="edge">
<title>Node23&#45;&gt;Node8</title>
<g id="a_edge34_Node000023_Node000008"><a xlink:title=" ">
<path fill="none" stroke="#63b8ff" d="M795.45,-319.54C846.15,-309.97 925.71,-294.3 994,-278 1016.14,-272.71 1040.59,-266.09 1060.76,-260.42"/>
<polygon fill="#63b8ff" stroke="#63b8ff" points="1061.92,-263.73 1070.58,-257.63 1060.01,-256.99 1061.92,-263.73"/>
</a>
</g>
</g>
<!-- Node23&#45;&gt;Node11 -->
<g id="edge39_Node000023_Node000011" class="edge">
<title>Node23&#45;&gt;Node11</title>
<g id="a_edge39_Node000023_Node000011"><a xlink:title=" ">
<path fill="none" stroke="#63b8ff" d="M795.05,-338.54C815.17,-342.31 838.46,-346.66 859.46,-350.59"/>
<polygon fill="#63b8ff" stroke="#63b8ff" points="859.09,-354.08 869.56,-352.48 860.38,-347.2 859.09,-354.08"/>
</a>
</g>
</g>
<!-- Node23&#45;&gt;Node16 -->
<g id="edge33_Node000023_Node000016" class="edge">
<title>Node23&#45;&gt;Node16</title>
<g id="a_edge33_Node000023_Node000016"><a xlink:title=" ">
<path fill="none" stroke="#63b8ff" d="M770.49,-344.1C791.31,-355.47 821.32,-370.8 849,-381 854.54,-383.04 860.4,-384.93 866.3,-386.66"/>
<polygon fill="#63b8ff" stroke="#63b8ff" points="865.62,-390.1 876.19,-389.41 867.49,-383.36 865.62,-390.1"/>
</a>
</g>
</g>
<!-- Node23&#45;&gt;Node24 -->
<g id="edge35_Node000023_Node000024" class="edge">
<title>Node23&#45;&gt;Node24</title>
<g id="a_edge35_Node000023_Node000024"><a xlink:title=" ">
<path fill="none" stroke="#63b8ff" d="M794.77,-313.91C801.08,-311.3 807.31,-308.33 813,-305 849.82,-283.46 885.49,-248.22 905.07,-227.26"/>
<polygon fill="#63b8ff" stroke="#63b8ff" points="907.79,-229.46 911.98,-219.72 902.64,-224.73 907.79,-229.46"/>
</a>
</g>
</g>
<!-- Node24&#45;&gt;Node7 -->
<g id="edge37_Node000024_Node000007" class="edge">
<title>Node24&#45;&gt;Node7</title>
<g id="a_edge37_Node000024_Node000007"><a xlink:title=" ">
<path fill="none" stroke="#63b8ff" d="M938.42,-219.56C954.86,-230.27 980.02,-249.16 994,-272 1028.88,-329.01 982.71,-370.78 1030,-418 1030.94,-418.94 1031.92,-419.83 1032.94,-420.68"/>
<polygon fill="#63b8ff" stroke="#63b8ff" points="1031.12,-423.68 1041.37,-426.37 1035.04,-417.88 1031.12,-423.68"/>
</a>
</g>
</g>
<!-- Node24&#45;&gt;Node8 -->
<g id="edge38_Node000024_Node000008" class="edge">
<title>Node24&#45;&gt;Node8</title>
<g id="a_edge38_Node000024_Node000008"><a xlink:title=" ">
<path fill="none" stroke="#63b8ff" d="M968.17,-219.59C992.49,-224.69 1022.58,-231.01 1048.21,-236.39"/>
<polygon fill="#63b8ff" stroke="#63b8ff" points="1047.65,-239.85 1058.15,-238.48 1049.09,-233 1047.65,-239.85"/>
</a>
</g>
</g>
<!-- Node25 -->
<g id="Node000025" class="node">
<title>Node25</title>
<g id="a_Node000025"><a xlink:href="../../dc/d25/classSymbolicExpr.html#ac8782568f037f8055277e5d8b80ec6d6" target="_top" xlink:title="创建加法表达式。">
<polygon fill="white" stroke="#666666" points="1158,-176.5 1051,-176.5 1051,-157.5 1158,-157.5 1158,-176.5"/>
<text text-anchor="middle" x="1104.5" y="-164.5" font-family="Helvetica,sans-Serif" font-size="10.00">SymbolicExpr::add</text>
</a>
</g>
</g>
<!-- Node24&#45;&gt;Node25 -->
<g id="edge36_Node000024_Node000025" class="edge">
<title>Node24&#45;&gt;Node25</title>
<g id="a_edge36_Node000024_Node000025"><a xlink:title=" ">
<path fill="none" stroke="#63b8ff" d="M962.67,-200.46C989.5,-194.08 1024.99,-185.65 1053.62,-178.85"/>
<polygon fill="#63b8ff" stroke="#63b8ff" points="1054.52,-182.23 1063.44,-176.52 1052.9,-175.42 1054.52,-182.23"/>
</a>
</g>
</g>
<!-- Node26&#45;&gt;Node5 -->
<g id="edge44_Node000026_Node000005" class="edge">
<title>Node26&#45;&gt;Node5</title>
<g id="a_edge44_Node000026_Node000005"><a xlink:title=" ">
<path fill="none" stroke="#63b8ff" d="M259.91,-271.07C290.5,-292.12 346.14,-330.39 380.69,-354.15"/>
<polygon fill="#63b8ff" stroke="#63b8ff" points="378.77,-357.08 388.99,-359.86 382.74,-351.31 378.77,-357.08"/>
</a>
</g>
</g>
<!-- Node26&#45;&gt;Node8 -->
<g id="edge47_Node000026_Node000008" class="edge">
<title>Node26&#45;&gt;Node8</title>
<g id="a_edge47_Node000026_Node000008"><a xlink:title=" ">
<path fill="none" stroke="#63b8ff" d="M289.04,-241.09C294.34,-238.49 299.45,-235.48 304,-232 326.05,-215.16 315.89,-194.74 340,-181 432,-128.57 471.61,-162 577.5,-162 577.5,-162 577.5,-162 744,-162 855.86,-162 887.06,-158.19 994,-191 1025.77,-200.75 1059.22,-219.6 1080.67,-232.95"/>
<polygon fill="#63b8ff" stroke="#63b8ff" points="1079.04,-236.06 1089.36,-238.47 1082.79,-230.15 1079.04,-236.06"/>
</a>
</g>
</g>
<!-- Node26&#45;&gt;Node9 -->
<g id="edge48_Node000026_Node000009" class="edge">
<title>Node26&#45;&gt;Node9</title>
<g id="a_edge48_Node000026_Node000009"><a xlink:title=" ">
<path fill="none" stroke="#63b8ff" d="M289.32,-243.02C294.76,-240.06 299.82,-236.44 304,-232 342.72,-190.81 295.43,-144.78 340,-110 416.95,-49.96 709.32,-66.98 847.42,-78.86"/>
<polygon fill="#63b8ff" stroke="#63b8ff" points="847.22,-82.36 857.49,-79.75 847.83,-75.39 847.22,-82.36"/>
</a>
</g>
</g>
<!-- Node26&#45;&gt;Node18 -->
<g id="edge46_Node000026_Node000018" class="edge">
<title>Node26&#45;&gt;Node18</title>
<g id="a_edge46_Node000026_Node000018"><a xlink:title=" ">
<path fill="none" stroke="#63b8ff" d="M247.21,-271.29C287.38,-336.22 455.14,-589.27 673,-665 730.81,-685.1 800.91,-683.76 851.73,-678.62"/>
<polygon fill="#63b8ff" stroke="#63b8ff" points="852.38,-682.07 861.95,-677.51 851.63,-675.11 852.38,-682.07"/>
</a>
</g>
</g>
<!-- Node26&#45;&gt;Node19 -->
<g id="edge55_Node000026_Node000019" class="edge">
<title>Node26&#45;&gt;Node19</title>
<g id="a_edge55_Node000026_Node000019"><a xlink:title=" ">
<path fill="none" stroke="#63b8ff" d="M279.69,-271.13C328.9,-289.2 413.01,-320.81 484,-351 569.27,-387.27 585.03,-409.9 673,-439 730.09,-457.89 796.99,-471.17 846.83,-479.43"/>
<polygon fill="#63b8ff" stroke="#63b8ff" points="846.45,-482.92 856.88,-481.07 847.58,-476.01 846.45,-482.92"/>
</a>
</g>
</g>
<!-- Node26&#45;&gt;Node24 -->
<g id="edge52_Node000026_Node000024" class="edge">
<title>Node26&#45;&gt;Node24</title>
<g id="a_edge52_Node000026_Node000024"><a xlink:title=" ">
<path fill="none" stroke="#63b8ff" d="M289.21,-251.95C370.51,-245.59 534.15,-233.03 673,-224 737.29,-219.82 811.01,-215.74 861.16,-213.07"/>
<polygon fill="#63b8ff" stroke="#63b8ff" points="861.38,-216.57 871.18,-212.54 861.01,-209.58 861.38,-216.57"/>
</a>
</g>
</g>
<!-- Node26&#45;&gt;Node25 -->
<g id="edge43_Node000026_Node000025" class="edge">
<title>Node26&#45;&gt;Node25</title>
<g id="a_edge43_Node000026_Node000025"><a xlink:title=" ">
<path fill="none" stroke="#63b8ff" d="M289.16,-242.35C294.56,-239.52 299.66,-236.1 304,-232 333.52,-204.1 307.26,-172.04 340,-148 425.52,-85.21 471.41,-124 577.5,-124 577.5,-124 577.5,-124 744,-124 850.64,-124 973.83,-142.89 1044.79,-155.62"/>
<polygon fill="#63b8ff" stroke="#63b8ff" points="1044.41,-159.11 1054.88,-157.46 1045.66,-152.23 1044.41,-159.11"/>
</a>
</g>
</g>
<!-- Node26&#45;&gt;Node26 -->
<g id="edge45_Node000026_Node000026" class="edge">
<title>Node26&#45;&gt;Node26</title>
<g id="a_edge45_Node000026_Node000026"><a xlink:title=" ">
<path fill="none" stroke="#63b8ff" d="M207.12,-271.28C200.48,-280.41 210.44,-289 237,-289 252.77,-289 262.69,-285.97 266.76,-281.6"/>
<polygon fill="#63b8ff" stroke="#63b8ff" points="270.26,-281.32 266.88,-271.28 263.26,-281.23 270.26,-281.32"/>
</a>
</g>
</g>
<!-- Node27 -->
<g id="Node000027" class="node">
<title>Node27</title>
<g id="a_Node000027"><a xlink:href="../../dc/d25/classSymbolicExpr.html#a6c3512f5d73f0e72f241b086a5ca6f03" target="_top" xlink:title="将表达式中指定变量替换为给定值。">
<polygon fill="white" stroke="#666666" points="481,-52.5 343,-52.5 343,-33.5 481,-33.5 481,-52.5"/>
<text text-anchor="middle" x="412" y="-40.5" font-family="Helvetica,sans-Serif" font-size="10.00">SymbolicExpr::substitute</text>
</a>
</g>
</g>
<!-- Node26&#45;&gt;Node27 -->
<g id="edge49_Node000026_Node000027" class="edge">
<title>Node26&#45;&gt;Node27</title>
<g id="a_edge49_Node000026_Node000027"><a xlink:title=" ">
<path fill="none" stroke="#63b8ff" d="M289.28,-243.46C294.8,-240.43 299.89,-236.67 304,-232 352.15,-177.28 292.92,-127.65 340,-72 345.32,-65.71 352.22,-60.77 359.62,-56.89"/>
<polygon fill="#63b8ff" stroke="#63b8ff" points="361.54,-59.86 369.18,-52.52 358.63,-53.49 361.54,-59.86"/>
</a>
</g>
</g>
<!-- Node29 -->
<g id="Node000029" class="node">
<title>Node29</title>
<g id="a_Node000029"><a xlink:href="../../dc/d25/classSymbolicExpr.html#a31881f352e7ca6ecc7b856939027b493" target="_top" xlink:title="将表达式求值为浮点数。">
<polygon fill="white" stroke="#666666" points="484,-209.5 340,-209.5 340,-190.5 484,-190.5 484,-209.5"/>
<text text-anchor="middle" x="412" y="-197.5" font-family="Helvetica,sans-Serif" font-size="10.00">SymbolicExpr::to_numeric</text>
</a>
</g>
</g>
<!-- Node26&#45;&gt;Node29 -->
<g id="edge53_Node000026_Node000029" class="edge">
<title>Node26&#45;&gt;Node29</title>
<g id="a_edge53_Node000026_Node000029"><a xlink:title=" ">
<path fill="none" stroke="#63b8ff" d="M284.36,-240.99C311.78,-232.12 346.12,-221 372.12,-212.58"/>
<polygon fill="#63b8ff" stroke="#63b8ff" points="373.21,-215.91 381.65,-209.5 371.06,-209.25 373.21,-215.91"/>
</a>
</g>
</g>
<!-- Node27&#45;&gt;Node10 -->
<g id="edge50_Node000027_Node000010" class="edge">
<title>Node27&#45;&gt;Node10</title>
<g id="a_edge50_Node000027_Node000010"><a xlink:title=" ">
<path fill="none" stroke="#63b8ff" d="M449.9,-33.43C470.42,-28.43 496.48,-22.63 520,-19 617.87,-3.91 642.97,0 742,0 742,0 742,0 922.5,0 1034.54,0 1161.07,-41.85 1227.35,-67.16"/>
<polygon fill="#63b8ff" stroke="#63b8ff" points="1226.49,-70.58 1237.08,-70.92 1229.01,-64.05 1226.49,-70.58"/>
</a>
</g>
</g>
<!-- Node28 -->
<g id="Node000028" class="node">
<title>Node28</title>
<g id="a_Node000028"><a xlink:href="../../d2/d6b/classSubstituteVisitor.html#aa058fe9fecbc4e0293622b177c53a226" target="_top" xlink:title=" ">
<polygon fill="white" stroke="#666666" points="630.5,-58 526.5,-58 526.5,-28 630.5,-28 630.5,-58"/>
<text text-anchor="start" x="534.5" y="-46" font-family="Helvetica,sans-Serif" font-size="10.00">SubstituteVisitor::</text>
<text text-anchor="middle" x="578.5" y="-35" font-family="Helvetica,sans-Serif" font-size="10.00">get_result</text>
</a>
</g>
</g>
<!-- Node27&#45;&gt;Node28 -->
<g id="edge51_Node000027_Node000028" class="edge">
<title>Node27&#45;&gt;Node28</title>
<g id="a_edge51_Node000027_Node000028"><a xlink:title=" ">
<path fill="none" stroke="#63b8ff" d="M481.33,-43C492.89,-43 504.83,-43 516.19,-43"/>
<polygon fill="#63b8ff" stroke="#63b8ff" points="516.44,-46.5 526.44,-43 516.44,-39.5 516.44,-46.5"/>
</a>
</g>
</g>
<!-- Node29&#45;&gt;Node29 -->
<g id="edge54_Node000029_Node000029" class="edge">
<title>Node29&#45;&gt;Node29</title>
<g id="a_edge54_Node000029_Node000029"><a xlink:title=" ">
<path fill="none" stroke="#63b8ff" d="M386.41,-209.58C373.97,-218.23 382.5,-227.5 412,-227.5 431.36,-227.5 441.69,-223.51 442.99,-218.32"/>
<polygon fill="#63b8ff" stroke="#63b8ff" points="445.82,-216.25 437.59,-209.58 439.87,-219.93 445.82,-216.25"/>
</a>
</g>
</g>
</g>
</svg>
