<?xml version="1.0" encoding="UTF-8" standalone="no"?>
<!DOCTYPE svg PUBLIC "-//W3C//DTD SVG 1.1//EN"
 "http://www.w3.org/Graphics/SVG/1.1/DTD/svg11.dtd">
<!-- Generated by graphviz version 2.43.0 (0)
 -->
<!-- Title: include/relation_store.hpp Pages: 1 -->
<svg width="893pt" height="280pt"
 viewBox="0.00 0.00 892.51 280.00" xmlns="http://www.w3.org/2000/svg" xmlns:xlink="http://www.w3.org/1999/xlink">
<g id="graph0" class="graph" transform="scale(1 1) rotate(0) translate(4 276)">
<title>include/relation_store.hpp</title>
<!-- Node1 -->
<g id="Node000001" class="node">
<title>Node1</title>
<g id="a_Node000001"><a xlink:title="RelationStore class for storing relational constraints between symbolic expressions.">
<polygon fill="#999999" stroke="#666666" points="752.01,-272 609.01,-272 609.01,-253 752.01,-253 752.01,-272"/>
<text text-anchor="middle" x="680.51" y="-260" font-family="Helvetica,sans-Serif" font-size="10.00">include/relation_store.hpp</text>
</a>
</g>
</g>
<!-- Node2 -->
<g id="Node000002" class="node">
<title>Node2</title>
<g id="a_Node000002"><a xlink:href="../../d4/d10/assumption__context_8hpp.html" target="_top" xlink:title="AssumptionContext class with scoped push/pop management.">
<polygon fill="white" stroke="#666666" points="524.51,-217 412.51,-217 412.51,-187 524.51,-187 524.51,-217"/>
<text text-anchor="start" x="420.51" y="-205" font-family="Helvetica,sans-Serif" font-size="10.00">include/assumption</text>
<text text-anchor="middle" x="468.51" y="-194" font-family="Helvetica,sans-Serif" font-size="10.00">_context.hpp</text>
</a>
</g>
</g>
<!-- Node1&#45;&gt;Node2 -->
<g id="edge1_Node000001_Node000002" class="edge">
<title>Node1&#45;&gt;Node2</title>
<g id="a_edge1_Node000001_Node000002"><a xlink:title=" ">
<path fill="none" stroke="#63b8ff" d="M639.99,-250.32C605.72,-240.86 556.42,-227.26 519.47,-217.06"/>
<polygon fill="#63b8ff" stroke="#63b8ff" points="639.11,-253.71 649.68,-252.99 640.97,-246.96 639.11,-253.71"/>
</a>
</g>
</g>
<!-- Node9 -->
<g id="Node000009" class="node">
<title>Node9</title>
<g id="a_Node000009"><a xlink:href="../../d8/def/inference__engine_8cpp.html" target="_top" xlink:title="Implementation of the InferenceEngine class.">
<polygon fill="white" stroke="#666666" points="807.51,-145.5 669.51,-145.5 669.51,-126.5 807.51,-126.5 807.51,-145.5"/>
<text text-anchor="middle" x="738.51" y="-133.5" font-family="Helvetica,sans-Serif" font-size="10.00">src/inference_engine.cpp</text>
</a>
</g>
</g>
<!-- Node1&#45;&gt;Node9 -->
<g id="edge16_Node000001_Node000009" class="edge">
<title>Node1&#45;&gt;Node9</title>
<g id="a_edge16_Node000001_Node000009"><a xlink:title=" ">
<path fill="none" stroke="#63b8ff" d="M695.84,-245.19C702.66,-237.2 710.32,-227.13 715.51,-217 727.89,-192.82 734.49,-161.01 737.12,-145.82"/>
<polygon fill="#63b8ff" stroke="#63b8ff" points="693.2,-242.89 689.16,-252.68 698.42,-247.55 693.2,-242.89"/>
</a>
</g>
</g>
<!-- Node12 -->
<g id="Node000012" class="node">
<title>Node12</title>
<g id="a_Node000012"><a xlink:href="../../d8/dcd/inference__engine_8hpp.html" target="_top" xlink:title="InferenceEngine class for deriving properties of composite expressions.">
<polygon fill="white" stroke="#666666" points="706.51,-211.5 546.51,-211.5 546.51,-192.5 706.51,-192.5 706.51,-211.5"/>
<text text-anchor="middle" x="626.51" y="-199.5" font-family="Helvetica,sans-Serif" font-size="10.00">include/inference_engine.hpp</text>
</a>
</g>
</g>
<!-- Node1&#45;&gt;Node12 -->
<g id="edge13_Node000001_Node000012" class="edge">
<title>Node1&#45;&gt;Node12</title>
<g id="a_edge13_Node000001_Node000012"><a xlink:title=" ">
<path fill="none" stroke="#63b8ff" d="M665.53,-245.27C655.48,-234.39 642.65,-220.49 634.51,-211.67"/>
<polygon fill="#63b8ff" stroke="#63b8ff" points="663.18,-247.89 672.54,-252.87 668.33,-243.15 663.18,-247.89"/>
</a>
</g>
</g>
<!-- Node13 -->
<g id="Node000013" class="node">
<title>Node13</title>
<g id="a_Node000013"><a xlink:href="../../d6/d25/relation__store_8cpp.html" target="_top" xlink:title="Implementation of RelationStore for storing relational constraints.">
<polygon fill="white" stroke="#666666" points="884.51,-211.5 762.51,-211.5 762.51,-192.5 884.51,-192.5 884.51,-211.5"/>
<text text-anchor="middle" x="823.51" y="-199.5" font-family="Helvetica,sans-Serif" font-size="10.00">src/relation_store.cpp</text>
</a>
</g>
</g>
<!-- Node1&#45;&gt;Node13 -->
<g id="edge17_Node000001_Node000013" class="edge">
<title>Node1&#45;&gt;Node13</title>
<g id="a_edge17_Node000001_Node000013"><a xlink:title=" ">
<path fill="none" stroke="#63b8ff" d="M710.86,-249.08C738.49,-237.78 778.53,-221.4 802.69,-211.52"/>
<polygon fill="#63b8ff" stroke="#63b8ff" points="709.23,-245.97 701.3,-252.99 711.88,-252.45 709.23,-245.97"/>
</a>
</g>
</g>
<!-- Node3 -->
<g id="Node000003" class="node">
<title>Node3</title>
<g id="a_Node000003"><a xlink:href="../../dd/d5e/normalization__visitor_8hpp.html" target="_top" xlink:title="规范化访问器，合并同类项、化简数值运算、处理矩阵算术。">
<polygon fill="white" stroke="#666666" points="230.01,-151 69.01,-151 69.01,-121 230.01,-121 230.01,-151"/>
<text text-anchor="start" x="77.01" y="-139" font-family="Helvetica,sans-Serif" font-size="10.00">include/visitors/normalization</text>
<text text-anchor="middle" x="149.51" y="-128" font-family="Helvetica,sans-Serif" font-size="10.00">_visitor.hpp</text>
</a>
</g>
</g>
<!-- Node2&#45;&gt;Node3 -->
<g id="edge2_Node000002_Node000003" class="edge">
<title>Node2&#45;&gt;Node3</title>
<g id="a_edge2_Node000002_Node000003"><a xlink:title=" ">
<path fill="none" stroke="#63b8ff" d="M402.16,-187.69C348.72,-176.97 273.81,-161.94 219.44,-151.03"/>
<polygon fill="#63b8ff" stroke="#63b8ff" points="401.72,-191.17 412.21,-189.71 403.09,-184.31 401.72,-191.17"/>
</a>
</g>
</g>
<!-- Node8 -->
<g id="Node000008" class="node">
<title>Node8</title>
<g id="a_Node000008"><a xlink:href="../../df/d4a/assumption__context_8cpp.html" target="_top" xlink:title="Implementation of the AssumptionContext class.">
<polygon fill="white" stroke="#666666" points="401.01,-145.5 248.01,-145.5 248.01,-126.5 401.01,-126.5 401.01,-145.5"/>
<text text-anchor="middle" x="324.51" y="-133.5" font-family="Helvetica,sans-Serif" font-size="10.00">src/assumption_context.cpp</text>
</a>
</g>
</g>
<!-- Node2&#45;&gt;Node8 -->
<g id="edge9_Node000002_Node000008" class="edge">
<title>Node2&#45;&gt;Node8</title>
<g id="a_edge9_Node000002_Node000008"><a xlink:title=" ">
<path fill="none" stroke="#63b8ff" d="M427.51,-182.78C399.98,-170.54 364.96,-154.98 343.67,-145.52"/>
<polygon fill="#63b8ff" stroke="#63b8ff" points="426.34,-186.09 436.9,-186.95 429.19,-179.7 426.34,-186.09"/>
</a>
</g>
</g>
<!-- Node2&#45;&gt;Node9 -->
<g id="edge10_Node000002_Node000009" class="edge">
<title>Node2&#45;&gt;Node9</title>
<g id="a_edge10_Node000002_Node000009"><a xlink:title=" ">
<path fill="none" stroke="#63b8ff" d="M534.76,-185.3C587.67,-172.75 659.81,-155.65 702.54,-145.53"/>
<polygon fill="#63b8ff" stroke="#63b8ff" points="533.7,-181.95 524.78,-187.66 535.32,-188.76 533.7,-181.95"/>
</a>
</g>
</g>
<!-- Node10 -->
<g id="Node000010" class="node">
<title>Node10</title>
<g id="a_Node000010"><a xlink:href="../../d2/d89/query__interface_8cpp.html" target="_top" xlink:title="Implementation of the QueryInterface class.">
<polygon fill="white" stroke="#666666" points="651.01,-145.5 520.01,-145.5 520.01,-126.5 651.01,-126.5 651.01,-145.5"/>
<text text-anchor="middle" x="585.51" y="-133.5" font-family="Helvetica,sans-Serif" font-size="10.00">src/query_interface.cpp</text>
</a>
</g>
</g>
<!-- Node2&#45;&gt;Node10 -->
<g id="edge11_Node000002_Node000010" class="edge">
<title>Node2&#45;&gt;Node10</title>
<g id="a_edge11_Node000002_Node000010"><a xlink:title=" ">
<path fill="none" stroke="#63b8ff" d="M502.99,-182.14C525.17,-170 552.93,-154.82 569.93,-145.52"/>
<polygon fill="#63b8ff" stroke="#63b8ff" points="501.27,-179.09 494.18,-186.95 504.63,-185.23 501.27,-179.09"/>
</a>
</g>
</g>
<!-- Node11 -->
<g id="Node000011" class="node">
<title>Node11</title>
<g id="a_Node000011"><a xlink:href="../../d6/d94/solver_8cpp.html" target="_top" xlink:title=" ">
<polygon fill="white" stroke="#666666" points="502.01,-145.5 419.01,-145.5 419.01,-126.5 502.01,-126.5 502.01,-145.5"/>
<text text-anchor="middle" x="460.51" y="-133.5" font-family="Helvetica,sans-Serif" font-size="10.00">src/solver.cpp</text>
</a>
</g>
</g>
<!-- Node2&#45;&gt;Node11 -->
<g id="edge12_Node000002_Node000011" class="edge">
<title>Node2&#45;&gt;Node11</title>
<g id="a_edge12_Node000002_Node000011"><a xlink:title=" ">
<path fill="none" stroke="#63b8ff" d="M465.46,-176.6C464.11,-165.8 462.6,-153.78 461.61,-145.84"/>
<polygon fill="#63b8ff" stroke="#63b8ff" points="462.02,-177.31 466.73,-186.8 468.96,-176.44 462.02,-177.31"/>
</a>
</g>
</g>
<!-- Node4 -->
<g id="Node000004" class="node">
<title>Node4</title>
<g id="a_Node000004"><a xlink:href="../../da/dfb/expand__visitor_8hpp.html" target="_top" xlink:title="展开访问器，将乘积和幂展开为多项式形式。">
<polygon fill="white" stroke="#666666" points="144.51,-85 14.51,-85 14.51,-55 144.51,-55 144.51,-85"/>
<text text-anchor="start" x="22.51" y="-73" font-family="Helvetica,sans-Serif" font-size="10.00">include/visitors/expand</text>
<text text-anchor="middle" x="79.51" y="-62" font-family="Helvetica,sans-Serif" font-size="10.00">_visitor.hpp</text>
</a>
</g>
</g>
<!-- Node3&#45;&gt;Node4 -->
<g id="edge3_Node000003_Node000004" class="edge">
<title>Node3&#45;&gt;Node4</title>
<g id="a_edge3_Node000003_Node000004"><a xlink:title=" ">
<path fill="none" stroke="#63b8ff" d="M126.45,-113.92C116.13,-104.49 104.23,-93.61 95,-85.16"/>
<polygon fill="#63b8ff" stroke="#63b8ff" points="124.23,-116.63 133.97,-120.8 128.95,-111.47 124.23,-116.63"/>
</a>
</g>
</g>
<!-- Node5 -->
<g id="Node000005" class="node">
<title>Node5</title>
<g id="a_Node000005"><a xlink:href="../../d1/db4/symbolic_8cpp.html" target="_top" xlink:title=" ">
<polygon fill="white" stroke="#666666" points="128.51,-19 30.51,-19 30.51,0 128.51,0 128.51,-19"/>
<text text-anchor="middle" x="79.51" y="-7" font-family="Helvetica,sans-Serif" font-size="10.00">src/symbolic.cpp</text>
</a>
</g>
</g>
<!-- Node3&#45;&gt;Node5 -->
<g id="edge8_Node000003_Node000005" class="edge">
<title>Node3&#45;&gt;Node5</title>
<g id="a_edge8_Node000003_Node000005"><a xlink:title=" ">
<path fill="none" stroke="#63b8ff" d="M59.06,-122.06C38.17,-114.64 18.34,-103.05 5.51,-85 -2.22,-74.14 -1.06,-66.61 5.51,-55 15.47,-37.38 35.5,-25.97 52.21,-19.12"/>
<polygon fill="#63b8ff" stroke="#63b8ff" points="58.11,-125.44 68.7,-125.19 60.27,-118.78 58.11,-125.44"/>
</a>
</g>
</g>
<!-- Node6 -->
<g id="Node000006" class="node">
<title>Node6</title>
<g id="a_Node000006"><a xlink:href="../../da/d7b/limit__visitor_8hpp.html" target="_top" xlink:title="极限访问器，通过代入和 L&#39;Hôpital 法则计算极限。">
<polygon fill="white" stroke="#666666" points="278.51,-85 162.51,-85 162.51,-55 278.51,-55 278.51,-85"/>
<text text-anchor="start" x="170.51" y="-73" font-family="Helvetica,sans-Serif" font-size="10.00">include/visitors/limit</text>
<text text-anchor="middle" x="220.51" y="-62" font-family="Helvetica,sans-Serif" font-size="10.00">_visitor.hpp</text>
</a>
</g>
</g>
<!-- Node3&#45;&gt;Node6 -->
<g id="edge5_Node000003_Node000006" class="edge">
<title>Node3&#45;&gt;Node6</title>
<g id="a_edge5_Node000003_Node000006"><a xlink:title=" ">
<path fill="none" stroke="#63b8ff" d="M172.89,-113.92C183.36,-104.49 195.42,-93.61 204.79,-85.16"/>
<polygon fill="#63b8ff" stroke="#63b8ff" points="170.35,-111.5 165.26,-120.8 175.03,-116.7 170.35,-111.5"/>
</a>
</g>
</g>
<!-- Node7 -->
<g id="Node000007" class="node">
<title>Node7</title>
<g id="a_Node000007"><a xlink:href="../../d2/dab/solve__visitor_8cpp.html" target="_top" xlink:title=" ">
<polygon fill="white" stroke="#666666" points="412.51,-79.5 296.51,-79.5 296.51,-60.5 412.51,-60.5 412.51,-79.5"/>
<text text-anchor="middle" x="354.51" y="-67.5" font-family="Helvetica,sans-Serif" font-size="10.00">src/solve_visitor.cpp</text>
</a>
</g>
</g>
<!-- Node3&#45;&gt;Node7 -->
<g id="edge7_Node000003_Node000007" class="edge">
<title>Node3&#45;&gt;Node7</title>
<g id="a_edge7_Node000003_Node000007"><a xlink:title=" ">
<path fill="none" stroke="#63b8ff" d="M204.05,-117.97C243.78,-105.57 295.91,-89.29 327.22,-79.52"/>
<polygon fill="#63b8ff" stroke="#63b8ff" points="203,-114.63 194.49,-120.95 205.08,-121.32 203,-114.63"/>
</a>
</g>
</g>
<!-- Node4&#45;&gt;Node5 -->
<g id="edge4_Node000004_Node000005" class="edge">
<title>Node4&#45;&gt;Node5</title>
<g id="a_edge4_Node000004_Node000005"><a xlink:title=" ">
<path fill="none" stroke="#63b8ff" d="M79.51,-44.75C79.51,-35.72 79.51,-26.03 79.51,-19.27"/>
<polygon fill="#63b8ff" stroke="#63b8ff" points="76.01,-44.84 79.51,-54.84 83.01,-44.84 76.01,-44.84"/>
</a>
</g>
</g>
<!-- Node6&#45;&gt;Node5 -->
<g id="edge6_Node000006_Node000005" class="edge">
<title>Node6&#45;&gt;Node5</title>
<g id="a_edge6_Node000006_Node000005"><a xlink:title=" ">
<path fill="none" stroke="#63b8ff" d="M177.25,-51.05C151.7,-40.45 120.5,-27.51 100.33,-19.14"/>
<polygon fill="#63b8ff" stroke="#63b8ff" points="176.15,-54.39 186.73,-54.99 178.84,-47.92 176.15,-54.39"/>
</a>
</g>
</g>
<!-- Node12&#45;&gt;Node9 -->
<g id="edge14_Node000012_Node000009" class="edge">
<title>Node12&#45;&gt;Node9</title>
<g id="a_edge14_Node000012_Node000009"><a xlink:title=" ">
<path fill="none" stroke="#63b8ff" d="M650.38,-187.36C672.43,-174.76 704.52,-156.42 723.28,-145.7"/>
<polygon fill="#63b8ff" stroke="#63b8ff" points="648.56,-184.37 641.61,-192.37 652.03,-190.45 648.56,-184.37"/>
</a>
</g>
</g>
<!-- Node12&#45;&gt;Node10 -->
<g id="edge15_Node000012_Node000010" class="edge">
<title>Node12&#45;&gt;Node10</title>
<g id="a_edge15_Node000012_Node000010"><a xlink:title=" ">
<path fill="none" stroke="#63b8ff" d="M615.56,-183.91C607.72,-171.68 597.49,-155.7 591.21,-145.91"/>
<polygon fill="#63b8ff" stroke="#63b8ff" points="612.63,-185.84 620.98,-192.37 618.53,-182.06 612.63,-185.84"/>
</a>
</g>
</g>
</g>
</svg>
