<?xml version="1.0" encoding="UTF-8" standalone="no"?>
<!DOCTYPE svg PUBLIC "-//W3C//DTD SVG 1.1//EN"
 "http://www.w3.org/Graphics/SVG/1.1/DTD/svg11.dtd">
<!-- Generated by graphviz version 2.43.0 (0)
 -->
<!-- Title: lamina::SolveOptions Pages: 1 -->
<svg width="358pt" height="175pt"
 viewBox="0.00 0.00 358.00 175.00" xmlns="http://www.w3.org/2000/svg" xmlns:xlink="http://www.w3.org/1999/xlink">

<svg id="main" version="1.1" xmlns="http://www.w3.org/2000/svg" xmlns:xlink="http://www.w3.org/1999/xlink" xml:space="preserve" onload="init(evt)">
<style type="text/css"><![CDATA[
.node, .edge {opacity: 0.7;}
.node.selected, .edge.selected {opacity: 1;}
.edge:hover path { stroke: red; }
.edge:hover polygon { stroke: red; fill: red; }
]]></style>
<script type="application/ecmascript" xlink:href="../../svg.min.js"/>
<svg id="graph" class="graph">
<g id="graph0" class="graph" transform="scale(1 1) rotate(0) translate(4 171)">
<title>lamina::SolveOptions</title>
<!-- Node1 -->
<g id="Node000001" class="node">
<title>Node1</title>
<g id="a_Node000001"><a xlink:title="方程求解选项，控制数值求解行为和结果形式。">
<polygon fill="#999999" stroke="transparent" points="189.5,-49 74.5,-49 74.5,0 189.5,0 189.5,-49"/>
<text text-anchor="start" x="80" y="-36.5" font-family="Helvetica,sans-Serif" font-size="10.00">lamina::SolveOptions</text>
<text text-anchor="start" x="130.5" y="-21.5" font-family="Helvetica,sans-Serif" font-size="10.00"> </text>
<text text-anchor="start" x="130.5" y="-6.5" font-family="Helvetica,sans-Serif" font-size="10.00"> </text>
<polygon fill="#666666" stroke="#666666" points="75,-31.5 75,-31.5 190,-31.5 190,-31.5 75,-31.5"/>
<polygon fill="#666666" stroke="#666666" points="75,-16.5 75,-16.5 190,-16.5 190,-16.5 75,-16.5"/>
<polygon fill="none" stroke="#666666" points="74.5,0 74.5,-49 189.5,-49 189.5,0 74.5,0"/>
</a>
</g>
</g>
<!-- Node2 -->
<g id="Node000002" class="node">
<title>Node2</title>
<g id="a_Node000002"><a xlink:title=" ">
<polygon fill="white" stroke="transparent" points="32,-167 0,-167 0,-118 32,-118 32,-167"/>
<text text-anchor="start" x="5" y="-154.5" font-family="Helvetica,sans-Serif" font-size="10.00">bool</text>
<text text-anchor="start" x="14" y="-139.5" font-family="Helvetica,sans-Serif" font-size="10.00"> </text>
<text text-anchor="start" x="14" y="-124.5" font-family="Helvetica,sans-Serif" font-size="10.00"> </text>
<polygon fill="#666666" stroke="#666666" points="0,-149.5 0,-149.5 32,-149.5 32,-149.5 0,-149.5"/>
<polygon fill="#666666" stroke="#666666" points="0,-134.5 0,-134.5 32,-134.5 32,-134.5 0,-134.5"/>
<polygon fill="none" stroke="#666666" points="0,-118 0,-167 32,-167 32,-118 0,-118"/>
</a>
</g>
</g>
<!-- Node2&#45;&gt;Node1 -->
<g id="edge1_Node000001_Node000002" class="edge">
<title>Node2&#45;&gt;Node1</title>
<g id="a_edge1_Node000001_Node000002"><a xlink:title=" ">
<path fill="none" stroke="#63b8ff" d="M16.72,-117.87C18.37,-101.85 22.93,-81.09 35,-67 42.65,-58.07 52.56,-51.01 63.12,-45.44"/>
<polygon fill="none" stroke="#63b8ff" points="63.44,-45.29 67.16,-39.11 74.29,-40.16 70.58,-46.34 63.44,-45.29"/>
</a>
</g>
<text text-anchor="middle" x="81.5" y="-92" font-family="Helvetica,sans-Serif" font-size="10.00" fill="grey"> +allow_numeric</text>
<text text-anchor="middle" x="81.5" y="-81" font-family="Helvetica,sans-Serif" font-size="10.00" fill="grey">+has_initial_guess</text>
<text text-anchor="middle" x="81.5" y="-70" font-family="Helvetica,sans-Serif" font-size="10.00" fill="grey">+return_rootof</text>
</g>
<!-- Node3 -->
<g id="Node000003" class="node">
<title>Node3</title>
<g id="a_Node000003"><a xlink:title=" ">
<polygon fill="white" stroke="transparent" points="143.5,-167 120.5,-167 120.5,-118 143.5,-118 143.5,-167"/>
<text text-anchor="start" x="126" y="-154.5" font-family="Helvetica,sans-Serif" font-size="10.00">int</text>
<text text-anchor="start" x="130.5" y="-139.5" font-family="Helvetica,sans-Serif" font-size="10.00"> </text>
<text text-anchor="start" x="130.5" y="-124.5" font-family="Helvetica,sans-Serif" font-size="10.00"> </text>
<polygon fill="#666666" stroke="#666666" points="121,-149.5 121,-149.5 144,-149.5 144,-149.5 121,-149.5"/>
<polygon fill="#666666" stroke="#666666" points="121,-134.5 121,-134.5 144,-134.5 144,-134.5 121,-134.5"/>
<polygon fill="none" stroke="#666666" points="120.5,-118 120.5,-167 143.5,-167 143.5,-118 120.5,-118"/>
</a>
</g>
</g>
<!-- Node3&#45;&gt;Node1 -->
<g id="edge2_Node000001_Node000003" class="edge">
<title>Node3&#45;&gt;Node1</title>
<g id="a_edge2_Node000001_Node000003"><a xlink:title=" ">
<path fill="none" stroke="#63b8ff" d="M132,-117.75C132,-101.48 132,-79.62 132,-61.26"/>
<polygon fill="none" stroke="#63b8ff" points="132,-61.22 128,-55.22 132,-49.22 136,-55.22 132,-61.22"/>
</a>
</g>
<text text-anchor="middle" x="195.5" y="-86.5" font-family="Helvetica,sans-Serif" font-size="10.00" fill="grey"> +max_newton_iterations</text>
<text text-anchor="middle" x="195.5" y="-75.5" font-family="Helvetica,sans-Serif" font-size="10.00" fill="grey">+max_roots</text>
</g>
<!-- Node4 -->
<g id="Node000004" class="node">
<title>Node4</title>
<g id="a_Node000004"><a xlink:title=" ">
<polygon fill="white" stroke="transparent" points="317.5,-167 246.5,-167 246.5,-118 317.5,-118 317.5,-167"/>
<text text-anchor="start" x="252" y="-154.5" font-family="Helvetica,sans-Serif" font-size="10.00">lmmc_real_t</text>
<text text-anchor="start" x="280.5" y="-139.5" font-family="Helvetica,sans-Serif" font-size="10.00"> </text>
<text text-anchor="start" x="280.5" y="-124.5" font-family="Helvetica,sans-Serif" font-size="10.00"> </text>
<polygon fill="#666666" stroke="#666666" points="247,-149.5 247,-149.5 318,-149.5 318,-149.5 247,-149.5"/>
<polygon fill="#666666" stroke="#666666" points="247,-134.5 247,-134.5 318,-134.5 318,-134.5 247,-134.5"/>
<polygon fill="none" stroke="#666666" points="246.5,-118 246.5,-167 317.5,-167 317.5,-118 246.5,-118"/>
</a>
</g>
</g>
<!-- Node4&#45;&gt;Node1 -->
<g id="edge3_Node000001_Node000004" class="edge">
<title>Node4&#45;&gt;Node1</title>
<g id="a_edge3_Node000001_Node000004"><a xlink:title=" ">
<path fill="none" stroke="#63b8ff" d="M280.66,-117.8C278.52,-101.54 273.17,-80.53 260,-67 244.39,-50.97 222.55,-41.13 201.32,-35.09"/>
<polygon fill="none" stroke="#63b8ff" points="201.26,-35.07 194.46,-37.46 189.63,-32.1 196.43,-29.71 201.26,-35.07"/>
</a>
</g>
<text text-anchor="middle" x="313.5" y="-86.5" font-family="Helvetica,sans-Serif" font-size="10.00" fill="grey"> +initial_guess</text>
<text text-anchor="middle" x="313.5" y="-75.5" font-family="Helvetica,sans-Serif" font-size="10.00" fill="grey">+tolerance</text>
</g>
</g>
</svg>
</svg>

<style type='text/css'>
<![CDATA[
[data-mouse-over-selected='false'] { opacity: 0.7; }
[data-mouse-over-selected='true']  { opacity: 1.0; }
]]>
</style>
<script type="application/ecmascript"><![CDATA[
document.addEventListener('DOMContentLoaded', (event) => {
  highlightEdges();
  highlightAdjacentNodes();
});
]]></script>
</svg>
