<?xml version="1.0" encoding="UTF-8" standalone="no"?>
<!DOCTYPE svg PUBLIC "-//W3C//DTD SVG 1.1//EN"
 "http://www.w3.org/Graphics/SVG/1.1/DTD/svg11.dtd">
<!-- Generated by graphviz version 2.43.0 (0)
 -->
<!-- Title: add_numbers Pages: 1 -->
<svg width="397pt" height="156pt"
 viewBox="0.00 0.00 397.00 155.50" xmlns="http://www.w3.org/2000/svg" xmlns:xlink="http://www.w3.org/1999/xlink">
<g id="graph0" class="graph" transform="scale(1 1) rotate(0) translate(4 151.5)">
<title>add_numbers</title>
<!-- Node1 -->
<g id="Node000001" class="node">
<title>Node1</title>
<g id="a_Node000001"><a xlink:title="两个数值节点相加">
<polygon fill="#999999" stroke="#666666" points="389,-67.5 306,-67.5 306,-48.5 389,-48.5 389,-67.5"/>
<text text-anchor="middle" x="347.5" y="-55.5" font-family="Helvetica,sans-Serif" font-size="10.00">add_numbers</text>
</a>
</g>
</g>
<!-- Node2 -->
<g id="Node000002" class="node">
<title>Node2</title>
<g id="a_Node000002"><a xlink:href="../../d3/da1/classNormalizationVisitor.html#a6daa7a65d8c26c7b3431604010bc7607" target="_top" xlink:title="展开两个节点的乘积（分配律）">
<polygon fill="white" stroke="#666666" points="270,-116 153,-116 153,-86 270,-86 270,-116"/>
<text text-anchor="start" x="161" y="-104" font-family="Helvetica,sans-Serif" font-size="10.00">NormalizationVisitor</text>
<text text-anchor="middle" x="211.5" y="-93" font-family="Helvetica,sans-Serif" font-size="10.00">::expand_product</text>
</a>
</g>
</g>
<!-- Node1&#45;&gt;Node2 -->
<g id="edge1_Node000001_Node000002" class="edge">
<title>Node1&#45;&gt;Node2</title>
<g id="a_edge1_Node000001_Node000002"><a xlink:title=" ">
<path fill="none" stroke="#63b8ff" d="M306.82,-70.73C291.89,-75.52 274.78,-81.01 259.26,-85.99"/>
<polygon fill="#63b8ff" stroke="#63b8ff" points="308.31,-73.93 316.76,-67.54 306.17,-67.27 308.31,-73.93"/>
</a>
</g>
</g>
<!-- Node4 -->
<g id="Node000004" class="node">
<title>Node4</title>
<g id="a_Node000004"><a xlink:href="../../d3/da1/classNormalizationVisitor.html#a7026607e231a8b38c0ba77245c3497e3" target="_top" xlink:title=" ">
<polygon fill="white" stroke="#666666" points="117,-73 0,-73 0,-43 117,-43 117,-73"/>
<text text-anchor="start" x="8" y="-61" font-family="Helvetica,sans-Serif" font-size="10.00">NormalizationVisitor</text>
<text text-anchor="middle" x="58.5" y="-50" font-family="Helvetica,sans-Serif" font-size="10.00">::visit</text>
</a>
</g>
</g>
<!-- Node1&#45;&gt;Node4 -->
<g id="edge7_Node000001_Node000004" class="edge">
<title>Node1&#45;&gt;Node4</title>
<g id="a_edge7_Node000001_Node000004"><a xlink:title=" ">
<path fill="none" stroke="#63b8ff" d="M295.73,-58C245.72,-58 169.43,-58 117.16,-58"/>
<polygon fill="#63b8ff" stroke="#63b8ff" points="295.99,-61.5 305.99,-58 295.99,-54.5 295.99,-61.5"/>
</a>
</g>
</g>
<!-- Node6 -->
<g id="Node000006" class="node">
<title>Node6</title>
<g id="a_Node000006"><a xlink:href="../../d3/da1/classNormalizationVisitor.html#ad226fbf9c7c7ec672931f19c7d41ff0c" target="_top" xlink:title=" ">
<polygon fill="white" stroke="#666666" points="270,-30 153,-30 153,0 270,0 270,-30"/>
<text text-anchor="start" x="161" y="-18" font-family="Helvetica,sans-Serif" font-size="10.00">NormalizationVisitor</text>
<text text-anchor="middle" x="211.5" y="-7" font-family="Helvetica,sans-Serif" font-size="10.00">::visit</text>
</a>
</g>
</g>
<!-- Node1&#45;&gt;Node6 -->
<g id="edge6_Node000001_Node000006" class="edge">
<title>Node1&#45;&gt;Node6</title>
<g id="a_edge6_Node000001_Node000006"><a xlink:title=" ">
<path fill="none" stroke="#63b8ff" d="M306.82,-45.27C291.89,-40.48 274.78,-34.99 259.26,-30.01"/>
<polygon fill="#63b8ff" stroke="#63b8ff" points="306.17,-48.73 316.76,-48.46 308.31,-42.07 306.17,-48.73"/>
</a>
</g>
</g>
<!-- Node2&#45;&gt;Node2 -->
<g id="edge2_Node000002_Node000002" class="edge">
<title>Node2&#45;&gt;Node2</title>
<g id="a_edge2_Node000002_Node000002"><a xlink:title=" ">
<path fill="none" stroke="#63b8ff" d="M235.31,-126.6C232.05,-130.97 224.12,-134 211.5,-134 190.25,-134 182.28,-125.41 187.59,-116.28"/>
<polygon fill="#63b8ff" stroke="#63b8ff" points="238.81,-126.31 235.41,-116.28 231.81,-126.24 238.81,-126.31"/>
</a>
</g>
</g>
<!-- Node3 -->
<g id="Node000003" class="node">
<title>Node3</title>
<g id="a_Node000003"><a xlink:href="../../db/d5d/classExpandVisitor.html#a2731daa407bca7bd12ddb50faa92b489" target="_top" xlink:title=" ">
<polygon fill="white" stroke="#666666" points="114,-147.5 3,-147.5 3,-128.5 114,-128.5 114,-147.5"/>
<text text-anchor="middle" x="58.5" y="-135.5" font-family="Helvetica,sans-Serif" font-size="10.00">ExpandVisitor::visit</text>
</a>
</g>
</g>
<!-- Node2&#45;&gt;Node3 -->
<g id="edge3_Node000002_Node000003" class="edge">
<title>Node2&#45;&gt;Node3</title>
<g id="a_edge3_Node000002_Node000003"><a xlink:title=" ">
<path fill="none" stroke="#63b8ff" d="M143.07,-117.52C127.85,-121.25 112.19,-125.09 98.6,-128.42"/>
<polygon fill="#63b8ff" stroke="#63b8ff" points="144.1,-120.87 152.98,-115.09 142.44,-114.07 144.1,-120.87"/>
</a>
</g>
</g>
<!-- Node2&#45;&gt;Node4 -->
<g id="edge4_Node000002_Node000004" class="edge">
<title>Node2&#45;&gt;Node4</title>
<g id="a_edge4_Node000002_Node000004"><a xlink:title=" ">
<path fill="none" stroke="#63b8ff" d="M147.88,-83.17C136.04,-79.8 123.78,-76.3 112.28,-73.03"/>
<polygon fill="#63b8ff" stroke="#63b8ff" points="147.11,-86.59 157.69,-85.96 149.03,-79.86 147.11,-86.59"/>
</a>
</g>
</g>
<!-- Node5 -->
<g id="Node000005" class="node">
<title>Node5</title>
<g id="a_Node000005"><a xlink:href="../../db/d5d/classExpandVisitor.html#a704fee9de344e5cfc09c1f94281d4b16" target="_top" xlink:title=" ">
<polygon fill="white" stroke="#666666" points="114,-110.5 3,-110.5 3,-91.5 114,-91.5 114,-110.5"/>
<text text-anchor="middle" x="58.5" y="-98.5" font-family="Helvetica,sans-Serif" font-size="10.00">ExpandVisitor::visit</text>
</a>
</g>
</g>
<!-- Node2&#45;&gt;Node5 -->
<g id="edge5_Node000002_Node000005" class="edge">
<title>Node2&#45;&gt;Node5</title>
<g id="a_edge5_Node000002_Node000005"><a xlink:title=" ">
<path fill="none" stroke="#63b8ff" d="M142.76,-101C133.26,-101 123.59,-101 114.37,-101"/>
<polygon fill="#63b8ff" stroke="#63b8ff" points="142.98,-104.5 152.98,-101 142.98,-97.5 142.98,-104.5"/>
</a>
</g>
</g>
</g>
</svg>
