<?xml version="1.0" encoding="UTF-8" standalone="no"?>
<!DOCTYPE svg PUBLIC "-//W3C//DTD SVG 1.1//EN"
 "http://www.w3.org/Graphics/SVG/1.1/DTD/svg11.dtd">
<!-- Generated by graphviz version 2.43.0 (0)
 -->
<!-- Title: VariablesVisitor Pages: 1 -->
<svg width="349pt" height="831pt"
 viewBox="0.00 0.00 348.50 831.00" xmlns="http://www.w3.org/2000/svg" xmlns:xlink="http://www.w3.org/1999/xlink">
<g id="graph0" class="graph" transform="scale(1 1) rotate(0) translate(4 827)">
<title>VariablesVisitor</title>
<!-- Node1 -->
<g id="Node000001" class="node">
<title>Node1</title>
<g id="a_Node000001"><a xlink:title=" ">
<polygon fill="#999999" stroke="transparent" points="219,-268 74,-268 74,0 219,0 219,-268"/>
<text text-anchor="start" x="108.5" y="-256" font-family="Helvetica,sans-Serif" font-size="10.00">VariablesVisitor</text>
<text text-anchor="start" x="145" y="-241" font-family="Helvetica,sans-Serif" font-size="10.00"> </text>
<text text-anchor="start" x="78.5" y="-226" font-family="Helvetica,sans-Serif" font-size="10.00">+</text>
<text text-anchor="start" x="91.5" y="-226" font-family="Helvetica,sans-Serif" font-size="10.00">void visit(AddNode</text>
<text text-anchor="start" x="91.5" y="-215" font-family="Helvetica,sans-Serif" font-size="10.00"> &amp;node) override</text>
<text text-anchor="start" x="78.5" y="-200" font-family="Helvetica,sans-Serif" font-size="10.00">+</text>
<text text-anchor="start" x="91.5" y="-200" font-family="Helvetica,sans-Serif" font-size="10.00">void visit(FunctionNode</text>
<text text-anchor="start" x="91.5" y="-189" font-family="Helvetica,sans-Serif" font-size="10.00"> &amp;node) override</text>
<text text-anchor="start" x="78.5" y="-174" font-family="Helvetica,sans-Serif" font-size="10.00">+</text>
<text text-anchor="start" x="91.5" y="-174" font-family="Helvetica,sans-Serif" font-size="10.00">void visit(LogicalNode</text>
<text text-anchor="start" x="91.5" y="-163" font-family="Helvetica,sans-Serif" font-size="10.00"> &amp;node) override</text>
<text text-anchor="start" x="78.5" y="-148" font-family="Helvetica,sans-Serif" font-size="10.00">+</text>
<text text-anchor="start" x="91.5" y="-148" font-family="Helvetica,sans-Serif" font-size="10.00">void visit(MatrixNode</text>
<text text-anchor="start" x="91.5" y="-137" font-family="Helvetica,sans-Serif" font-size="10.00"> &amp;node) override</text>
<text text-anchor="start" x="78.5" y="-122" font-family="Helvetica,sans-Serif" font-size="10.00">+</text>
<text text-anchor="start" x="91.5" y="-122" font-family="Helvetica,sans-Serif" font-size="10.00">void visit(MultiplyNode</text>
<text text-anchor="start" x="91.5" y="-111" font-family="Helvetica,sans-Serif" font-size="10.00"> &amp;node) override</text>
<text text-anchor="start" x="78.5" y="-96" font-family="Helvetica,sans-Serif" font-size="10.00">+</text>
<text text-anchor="start" x="91.5" y="-96" font-family="Helvetica,sans-Serif" font-size="10.00">void visit(NumberNode</text>
<text text-anchor="start" x="91.5" y="-85" font-family="Helvetica,sans-Serif" font-size="10.00"> &amp;node) override</text>
<text text-anchor="start" x="78.5" y="-70" font-family="Helvetica,sans-Serif" font-size="10.00">+</text>
<text text-anchor="start" x="91.5" y="-70" font-family="Helvetica,sans-Serif" font-size="10.00">void visit(PowerNode</text>
<text text-anchor="start" x="91.5" y="-59" font-family="Helvetica,sans-Serif" font-size="10.00"> &amp;node) override</text>
<text text-anchor="start" x="78.5" y="-44" font-family="Helvetica,sans-Serif" font-size="10.00">+</text>
<text text-anchor="start" x="91.5" y="-44" font-family="Helvetica,sans-Serif" font-size="10.00">void visit(RelationalNode</text>
<text text-anchor="start" x="91.5" y="-33" font-family="Helvetica,sans-Serif" font-size="10.00"> &amp;node) override</text>
<text text-anchor="start" x="78.5" y="-18" font-family="Helvetica,sans-Serif" font-size="10.00">+</text>
<text text-anchor="start" x="91.5" y="-18" font-family="Helvetica,sans-Serif" font-size="10.00">void visit(VariableNode</text>
<text text-anchor="start" x="91.5" y="-7" font-family="Helvetica,sans-Serif" font-size="10.00"> &amp;node) override</text>
<polygon fill="#666666" stroke="#666666" points="74.5,-251 74.5,-251 219.5,-251 219.5,-251 74.5,-251"/>
<polygon fill="#666666" stroke="#666666" points="74.5,-236 74.5,-236 219.5,-236 219.5,-236 74.5,-236"/>
<polygon fill="none" stroke="#666666" points="74,0 74,-268 219,-268 219,0 74,0"/>
</a>
</g>
</g>
<!-- Node2 -->
<g id="Node000002" class="node">
<title>Node2</title>
<g id="a_Node000002"><a xlink:href="../../da/dcb/classSymbolicVisitor.html" target="_top" xlink:title="AST 访问者基类（Visitor 模式）。">
<polygon fill="white" stroke="transparent" points="145,-609 0,-609 0,-315 145,-315 145,-609"/>
<text text-anchor="start" x="34.5" y="-597" font-family="Helvetica,sans-Serif" font-size="10.00">SymbolicVisitor</text>
<text text-anchor="start" x="71" y="-582" font-family="Helvetica,sans-Serif" font-size="10.00"> </text>
<text text-anchor="start" x="4.5" y="-567" font-family="Helvetica,sans-Serif" font-size="10.00">+</text>
<text text-anchor="start" x="17.5" y="-567" font-family="Helvetica,sans-Serif" font-size="10.00">virtual ~SymbolicVisitor</text>
<text text-anchor="start" x="17.5" y="-556" font-family="Helvetica,sans-Serif" font-size="10.00">()=default</text>
<text text-anchor="start" x="4.5" y="-541" font-family="Helvetica,sans-Serif" font-size="10.00">+</text>
<text text-anchor="start" x="17.5" y="-541" font-family="Helvetica,sans-Serif" font-size="10.00">virtual void visit</text>
<text text-anchor="start" x="17.5" y="-530" font-family="Helvetica,sans-Serif" font-size="10.00">(AddNode &amp;node)=0</text>
<text text-anchor="start" x="4.5" y="-515" font-family="Helvetica,sans-Serif" font-size="10.00">+</text>
<text text-anchor="start" x="17.5" y="-515" font-family="Helvetica,sans-Serif" font-size="10.00">virtual void visit</text>
<text text-anchor="start" x="17.5" y="-504" font-family="Helvetica,sans-Serif" font-size="10.00">(FunctionNode &amp;node)=0</text>
<text text-anchor="start" x="4.5" y="-489" font-family="Helvetica,sans-Serif" font-size="10.00">+</text>
<text text-anchor="start" x="17.5" y="-489" font-family="Helvetica,sans-Serif" font-size="10.00">virtual void visit</text>
<text text-anchor="start" x="17.5" y="-478" font-family="Helvetica,sans-Serif" font-size="10.00">(LogicalNode &amp;node)</text>
<text text-anchor="start" x="4.5" y="-463" font-family="Helvetica,sans-Serif" font-size="10.00">+</text>
<text text-anchor="start" x="17.5" y="-463" font-family="Helvetica,sans-Serif" font-size="10.00">virtual void visit</text>
<text text-anchor="start" x="17.5" y="-452" font-family="Helvetica,sans-Serif" font-size="10.00">(MatrixNode &amp;node)=0</text>
<text text-anchor="start" x="4.5" y="-437" font-family="Helvetica,sans-Serif" font-size="10.00">+</text>
<text text-anchor="start" x="17.5" y="-437" font-family="Helvetica,sans-Serif" font-size="10.00">virtual void visit</text>
<text text-anchor="start" x="17.5" y="-426" font-family="Helvetica,sans-Serif" font-size="10.00">(MultiplyNode &amp;node)=0</text>
<text text-anchor="start" x="4.5" y="-411" font-family="Helvetica,sans-Serif" font-size="10.00">+</text>
<text text-anchor="start" x="17.5" y="-411" font-family="Helvetica,sans-Serif" font-size="10.00">virtual void visit</text>
<text text-anchor="start" x="17.5" y="-400" font-family="Helvetica,sans-Serif" font-size="10.00">(NumberNode &amp;node)=0</text>
<text text-anchor="start" x="4.5" y="-385" font-family="Helvetica,sans-Serif" font-size="10.00">+</text>
<text text-anchor="start" x="17.5" y="-385" font-family="Helvetica,sans-Serif" font-size="10.00">virtual void visit</text>
<text text-anchor="start" x="17.5" y="-374" font-family="Helvetica,sans-Serif" font-size="10.00">(PowerNode &amp;node)=0</text>
<text text-anchor="start" x="4.5" y="-359" font-family="Helvetica,sans-Serif" font-size="10.00">+</text>
<text text-anchor="start" x="17.5" y="-359" font-family="Helvetica,sans-Serif" font-size="10.00">virtual void visit</text>
<text text-anchor="start" x="17.5" y="-348" font-family="Helvetica,sans-Serif" font-size="10.00">(RelationalNode &amp;node)</text>
<text text-anchor="start" x="4.5" y="-333" font-family="Helvetica,sans-Serif" font-size="10.00">+</text>
<text text-anchor="start" x="17.5" y="-333" font-family="Helvetica,sans-Serif" font-size="10.00">virtual void visit</text>
<text text-anchor="start" x="17.5" y="-322" font-family="Helvetica,sans-Serif" font-size="10.00">(VariableNode &amp;node)=0</text>
<polygon fill="#666666" stroke="#666666" points="0.5,-592 0.5,-592 145.5,-592 145.5,-592 0.5,-592"/>
<polygon fill="#666666" stroke="#666666" points="0.5,-577 0.5,-577 145.5,-577 145.5,-577 0.5,-577"/>
<polygon fill="none" stroke="#666666" points="0,-315 0,-609 145,-609 145,-315 0,-315"/>
</a>
</g>
</g>
<!-- Node2&#45;&gt;Node1 -->
<g id="edge1_Node000001_Node000002" class="edge">
<title>Node2&#45;&gt;Node1</title>
<g id="a_edge1_Node000001_Node000002"><a xlink:title=" ">
<path fill="none" stroke="#63b8ff" d="M107.94,-304.87C110.73,-292.6 113.52,-280.28 116.27,-268.18"/>
<polygon fill="none" stroke="#63b8ff" points="104.51,-304.16 105.71,-314.69 111.34,-305.71 104.51,-304.16"/>
</a>
</g>
</g>
<!-- Node3 -->
<g id="Node000003" class="node">
<title>Node3</title>
<g id="a_Node000003"><a xlink:title=" ">
<polygon fill="white" stroke="transparent" points="84,-716 61,-716 61,-667 84,-667 84,-716"/>
<text text-anchor="start" x="66.5" y="-703.5" font-family="Helvetica,sans-Serif" font-size="10.00">int</text>
<text text-anchor="start" x="71" y="-688.5" font-family="Helvetica,sans-Serif" font-size="10.00"> </text>
<text text-anchor="start" x="71" y="-673.5" font-family="Helvetica,sans-Serif" font-size="10.00"> </text>
<polygon fill="#666666" stroke="#666666" points="61.5,-698.5 61.5,-698.5 84.5,-698.5 84.5,-698.5 61.5,-698.5"/>
<polygon fill="#666666" stroke="#666666" points="61.5,-683.5 61.5,-683.5 84.5,-683.5 84.5,-683.5 61.5,-683.5"/>
<polygon fill="none" stroke="#666666" points="61,-667 61,-716 84,-716 84,-667 61,-667"/>
</a>
</g>
</g>
<!-- Node3&#45;&gt;Node2 -->
<g id="edge2_Node000002_Node000003" class="edge">
<title>Node3&#45;&gt;Node2</title>
<g id="a_edge2_Node000002_Node000003"><a xlink:title=" ">
<path fill="none" stroke="#63b8ff" d="M72.5,-666.58C72.5,-654.48 72.5,-638.64 72.5,-621.14"/>
<polygon fill="none" stroke="#63b8ff" points="72.5,-621.11 68.5,-615.11 72.5,-609.11 76.5,-615.11 72.5,-621.11"/>
</a>
</g>
<text text-anchor="middle" x="110.5" y="-641" font-family="Helvetica,sans-Serif" font-size="10.00" fill="grey"> #MAX_DEPTH</text>
<text text-anchor="middle" x="110.5" y="-630" font-family="Helvetica,sans-Serif" font-size="10.00" fill="grey">#current_depth</text>
</g>
<!-- Node4 -->
<g id="Node000004" class="node">
<title>Node4</title>
<g id="a_Node000004"><a xlink:title=" ">
<polygon fill="white" stroke="transparent" points="281.5,-486.5 163.5,-486.5 163.5,-437.5 281.5,-437.5 281.5,-486.5"/>
<text text-anchor="start" x="168.5" y="-474" font-family="Helvetica,sans-Serif" font-size="10.00">std::set&lt; std::string &gt;</text>
<text text-anchor="start" x="220.5" y="-459" font-family="Helvetica,sans-Serif" font-size="10.00"> </text>
<text text-anchor="start" x="220.5" y="-444" font-family="Helvetica,sans-Serif" font-size="10.00"> </text>
<polygon fill="#666666" stroke="#666666" points="163.5,-469 163.5,-469 281.5,-469 281.5,-469 163.5,-469"/>
<polygon fill="#666666" stroke="#666666" points="163.5,-454 163.5,-454 281.5,-454 281.5,-454 163.5,-454"/>
<polygon fill="none" stroke="#666666" points="163.5,-437.5 163.5,-486.5 281.5,-486.5 281.5,-437.5 163.5,-437.5"/>
</a>
</g>
</g>
<!-- Node4&#45;&gt;Node1 -->
<g id="edge3_Node000001_Node000004" class="edge">
<title>Node4&#45;&gt;Node1</title>
<g id="a_edge3_Node000001_Node000004"><a xlink:title=" ">
<path fill="none" stroke="#63b8ff" d="M216.97,-437.29C209.19,-403.91 194.38,-340.39 180.34,-280.16"/>
<polygon fill="none" stroke="#63b8ff" points="180.27,-279.85 175.01,-274.92 177.54,-268.17 182.8,-273.1 180.27,-279.85"/>
</a>
</g>
<text text-anchor="middle" x="199" y="-289" font-family="Helvetica,sans-Serif" font-size="10.00" fill="grey"> +vars</text>
</g>
<!-- Node5 -->
<g id="Node000005" class="node">
<title>Node5</title>
<g id="a_Node000005"><a xlink:title=" ">
<polygon fill="white" stroke="transparent" points="218,-716 159,-716 159,-667 218,-667 218,-716"/>
<text text-anchor="start" x="164.5" y="-703.5" font-family="Helvetica,sans-Serif" font-size="10.00">std::string</text>
<text text-anchor="start" x="187" y="-688.5" font-family="Helvetica,sans-Serif" font-size="10.00"> </text>
<text text-anchor="start" x="187" y="-673.5" font-family="Helvetica,sans-Serif" font-size="10.00"> </text>
<polygon fill="#666666" stroke="#666666" points="159.5,-698.5 159.5,-698.5 218.5,-698.5 218.5,-698.5 159.5,-698.5"/>
<polygon fill="#666666" stroke="#666666" points="159.5,-683.5 159.5,-683.5 218.5,-683.5 218.5,-683.5 159.5,-683.5"/>
<polygon fill="none" stroke="#666666" points="159,-667 159,-716 218,-716 218,-667 159,-667"/>
</a>
</g>
</g>
<!-- Node5&#45;&gt;Node4 -->
<g id="edge4_Node000004_Node000005" class="edge">
<title>Node5&#45;&gt;Node4</title>
<g id="a_edge4_Node000004_Node000005"><a xlink:title=" ">
<path fill="none" stroke="#63b8ff" d="M192.07,-666.58C198.07,-626.46 210.19,-545.38 217.19,-498.55"/>
<polygon fill="none" stroke="#63b8ff" points="217.2,-498.46 214.13,-491.94 218.97,-486.6 222.04,-493.12 217.2,-498.46"/>
</a>
</g>
<text text-anchor="middle" x="215.5" y="-635.5" font-family="Helvetica,sans-Serif" font-size="10.00" fill="grey"> +keys</text>
</g>
<!-- Node6 -->
<g id="Node000006" class="node">
<title>Node6</title>
<g id="a_Node000006"><a xlink:title=" ">
<polygon fill="white" stroke="transparent" points="237.5,-823 139.5,-823 139.5,-763 237.5,-763 237.5,-823"/>
<text text-anchor="start" x="144.5" y="-811" font-family="Helvetica,sans-Serif" font-size="10.00">std::basic_string&lt;</text>
<text text-anchor="start" x="170" y="-800" font-family="Helvetica,sans-Serif" font-size="10.00"> Char &gt;</text>
<text text-anchor="start" x="186.5" y="-785" font-family="Helvetica,sans-Serif" font-size="10.00"> </text>
<text text-anchor="start" x="186.5" y="-770" font-family="Helvetica,sans-Serif" font-size="10.00"> </text>
<polygon fill="#666666" stroke="#666666" points="139.5,-795 139.5,-795 237.5,-795 237.5,-795 139.5,-795"/>
<polygon fill="#666666" stroke="#666666" points="139.5,-780 139.5,-780 237.5,-780 237.5,-780 139.5,-780"/>
<polygon fill="none" stroke="#666666" points="139.5,-763 139.5,-823 237.5,-823 237.5,-763 139.5,-763"/>
</a>
</g>
</g>
<!-- Node6&#45;&gt;Node5 -->
<g id="edge5_Node000005_Node000006" class="edge">
<title>Node6&#45;&gt;Node5</title>
<g id="a_edge5_Node000005_Node000006"><a xlink:title=" ">
<path fill="none" stroke="#63b8ff" d="M188.5,-752.8C188.5,-740.38 188.5,-727.03 188.5,-716.06"/>
<polygon fill="none" stroke="#63b8ff" points="185,-752.95 188.5,-762.95 192,-752.95 185,-752.95"/>
</a>
</g>
</g>
<!-- Node7 -->
<g id="Node000007" class="node">
<title>Node7</title>
<g id="a_Node000007"><a xlink:title=" ">
<polygon fill="white" stroke="transparent" points="312.5,-716 236.5,-716 236.5,-667 312.5,-667 312.5,-716"/>
<text text-anchor="start" x="241.5" y="-703.5" font-family="Helvetica,sans-Serif" font-size="10.00">std::set&lt; K &gt;</text>
<text text-anchor="start" x="272.5" y="-688.5" font-family="Helvetica,sans-Serif" font-size="10.00"> </text>
<text text-anchor="start" x="272.5" y="-673.5" font-family="Helvetica,sans-Serif" font-size="10.00"> </text>
<polygon fill="#666666" stroke="#666666" points="236.5,-698.5 236.5,-698.5 312.5,-698.5 312.5,-698.5 236.5,-698.5"/>
<polygon fill="#666666" stroke="#666666" points="236.5,-683.5 236.5,-683.5 312.5,-683.5 312.5,-683.5 236.5,-683.5"/>
<polygon fill="none" stroke="#666666" points="236.5,-667 236.5,-716 312.5,-716 312.5,-667 236.5,-667"/>
</a>
</g>
</g>
<!-- Node7&#45;&gt;Node4 -->
<g id="edge6_Node000004_Node000007" class="edge">
<title>Node7&#45;&gt;Node4</title>
<g id="a_edge6_Node000004_Node000007"><a xlink:title=" ">
<path fill="none" stroke="orange" d="M266.76,-656.65C256.1,-610 237.15,-527.1 227.89,-486.6"/>
<polygon fill="orange" stroke="orange" points="263.39,-657.61 269.03,-666.58 270.22,-656.05 263.39,-657.61"/>
</a>
</g>
<text text-anchor="middle" x="303" y="-635.5" font-family="Helvetica,sans-Serif" font-size="10.00" fill="grey"> &lt; std::string &gt;</text>
</g>
<!-- Node8 -->
<g id="Node000008" class="node">
<title>Node8</title>
<g id="a_Node000008"><a xlink:title=" ">
<polygon fill="white" stroke="transparent" points="283,-817.5 266,-817.5 266,-768.5 283,-768.5 283,-817.5"/>
<text text-anchor="start" x="271.5" y="-805" font-family="Helvetica,sans-Serif" font-size="10.00">K</text>
<text text-anchor="start" x="273" y="-790" font-family="Helvetica,sans-Serif" font-size="10.00"> </text>
<text text-anchor="start" x="273" y="-775" font-family="Helvetica,sans-Serif" font-size="10.00"> </text>
<polygon fill="#666666" stroke="#666666" points="266.5,-800 266.5,-800 283.5,-800 283.5,-800 266.5,-800"/>
<polygon fill="#666666" stroke="#666666" points="266.5,-785 266.5,-785 283.5,-785 283.5,-785 266.5,-785"/>
<polygon fill="none" stroke="#666666" points="266,-768.5 266,-817.5 283,-817.5 283,-768.5 266,-768.5"/>
</a>
</g>
</g>
<!-- Node8&#45;&gt;Node7 -->
<g id="edge7_Node000007_Node000008" class="edge">
<title>Node8&#45;&gt;Node7</title>
<g id="a_edge7_Node000007_Node000008"><a xlink:title=" ">
<path fill="none" stroke="#63b8ff" d="M274.5,-768.42C274.5,-756.49 274.5,-741.75 274.5,-728.44"/>
<polygon fill="none" stroke="#63b8ff" points="274.5,-728.26 270.5,-722.26 274.5,-716.26 278.5,-722.26 274.5,-728.26"/>
</a>
</g>
<text text-anchor="middle" x="291.5" y="-737" font-family="Helvetica,sans-Serif" font-size="10.00" fill="grey"> +keys</text>
</g>
</g>
</svg>
