<?xml version="1.0" encoding="UTF-8" standalone="no"?>
<!DOCTYPE svg PUBLIC "-//W3C//DTD SVG 1.1//EN"
 "http://www.w3.org/Graphics/SVG/1.1/DTD/svg11.dtd">
<!-- Generated by graphviz version 2.43.0 (0)
 -->
<!-- Title: _irrational_sqrt Pages: 1 -->
<svg width="530pt" height="286pt"
 viewBox="0.00 0.00 530.00 286.00" xmlns="http://www.w3.org/2000/svg" xmlns:xlink="http://www.w3.org/1999/xlink">
<g id="graph0" class="graph" transform="scale(1 1) rotate(0) translate(4 282)">
<title>_irrational_sqrt</title>
<!-- Node1 -->
<g id="Node000001" class="node">
<title>Node1</title>
<g id="a_Node000001"><a xlink:title="计算浮点数的平方根（封装 LMMC 接口）">
<polygon fill="#999999" stroke="#666666" points="522,-148 432,-148 432,-129 522,-129 522,-148"/>
<text text-anchor="middle" x="477" y="-136" font-family="Helvetica,sans-Serif" font-size="10.00">_irrational_sqrt</text>
</a>
</g>
</g>
<!-- Node2 -->
<g id="Node000002" class="node">
<title>Node2</title>
<g id="a_Node000002"><a xlink:href="../../d8/df2/classIrrational.html#a2267a7604bb152d417ea31aacfd0f4f1" target="_top" xlink:title="转换为浮点数近似值">
<polygon fill="white" stroke="#666666" points="396,-148 281,-148 281,-129 396,-129 396,-148"/>
<text text-anchor="middle" x="338.5" y="-136" font-family="Helvetica,sans-Serif" font-size="10.00">Irrational::to_double</text>
</a>
</g>
</g>
<!-- Node1&#45;&gt;Node2 -->
<g id="edge1_Node000001_Node000002" class="edge">
<title>Node1&#45;&gt;Node2</title>
<g id="a_edge1_Node000001_Node000002"><a xlink:title=" ">
<path fill="none" stroke="#63b8ff" d="M421.61,-138.5C413.2,-138.5 404.5,-138.5 396.05,-138.5"/>
<polygon fill="#63b8ff" stroke="#63b8ff" points="421.68,-142 431.68,-138.5 421.68,-135 421.68,-142"/>
</a>
</g>
</g>
<!-- Node3 -->
<g id="Node000003" class="node">
<title>Node3</title>
<g id="a_Node000003"><a xlink:href="../../d8/df2/classIrrational.html#a251fb2cdb8eb23671fa747304d8ecf02" target="_top" xlink:title="判断是否为负数">
<polygon fill="white" stroke="#666666" points="244,-278 121,-278 121,-259 244,-259 244,-278"/>
<text text-anchor="middle" x="182.5" y="-266" font-family="Helvetica,sans-Serif" font-size="10.00">Irrational::is_negative</text>
</a>
</g>
</g>
<!-- Node2&#45;&gt;Node3 -->
<g id="edge2_Node000002_Node000003" class="edge">
<title>Node2&#45;&gt;Node3</title>
<g id="a_edge2_Node000002_Node000003"><a xlink:title=" ">
<path fill="none" stroke="#63b8ff" d="M327.05,-157.08C312.08,-182.02 282.18,-226 245,-250.5 239.8,-253.93 233.93,-256.72 227.93,-258.98"/>
<polygon fill="#63b8ff" stroke="#63b8ff" points="330.19,-158.65 332.2,-148.25 324.14,-155.12 330.19,-158.65"/>
</a>
</g>
</g>
<!-- Node5 -->
<g id="Node000005" class="node">
<title>Node5</title>
<g id="a_Node000005"><a xlink:href="../../d8/df2/classIrrational.html#ac0a62e17b960c848c194a272a1781423" target="_top" xlink:title="判断是否为正数">
<polygon fill="white" stroke="#666666" points="242,-241 123,-241 123,-222 242,-222 242,-241"/>
<text text-anchor="middle" x="182.5" y="-229" font-family="Helvetica,sans-Serif" font-size="10.00">Irrational::is_positive</text>
</a>
</g>
</g>
<!-- Node2&#45;&gt;Node5 -->
<g id="edge4_Node000002_Node000005" class="edge">
<title>Node2&#45;&gt;Node5</title>
<g id="a_edge4_Node000002_Node000005"><a xlink:title=" ">
<path fill="none" stroke="#63b8ff" d="M321.01,-155.34C303.57,-172.27 274.53,-198.01 245,-213.5 238.69,-216.81 231.7,-219.59 224.75,-221.89"/>
<polygon fill="#63b8ff" stroke="#63b8ff" points="323.53,-157.77 328.17,-148.25 318.6,-152.8 323.53,-157.77"/>
</a>
</g>
</g>
<!-- Node6 -->
<g id="Node000006" class="node">
<title>Node6</title>
<g id="a_Node000006"><a xlink:href="../../d8/df2/classIrrational.html#ab3fc26a40adf9c9a295108c0565d4929" target="_top" xlink:title="判断是否为零">
<polygon fill="white" stroke="#666666" points="233,-204 132,-204 132,-185 233,-185 233,-204"/>
<text text-anchor="middle" x="182.5" y="-192" font-family="Helvetica,sans-Serif" font-size="10.00">Irrational::is_zero</text>
</a>
</g>
</g>
<!-- Node2&#45;&gt;Node6 -->
<g id="edge5_Node000002_Node000006" class="edge">
<title>Node2&#45;&gt;Node6</title>
<g id="a_edge5_Node000002_Node000006"><a xlink:title=" ">
<path fill="none" stroke="#63b8ff" d="M306.73,-152.09C288.88,-159.73 265.87,-169.18 245,-176.5 236.5,-179.48 227.22,-182.38 218.5,-184.95"/>
<polygon fill="#63b8ff" stroke="#63b8ff" points="308.28,-155.24 316.07,-148.06 305.5,-148.81 308.28,-155.24"/>
</a>
</g>
</g>
<!-- Node7 -->
<g id="Node000007" class="node">
<title>Node7</title>
<g id="a_Node000007"><a xlink:href="../../d8/df2/classIrrational.html#ac2590845a71a25a047bd3c01fec83c78" target="_top" xlink:title=" ">
<polygon fill="white" stroke="#666666" points="239,-167 126,-167 126,-148 239,-148 239,-167"/>
<text text-anchor="middle" x="182.5" y="-155" font-family="Helvetica,sans-Serif" font-size="10.00">Irrational::operator*</text>
</a>
</g>
</g>
<!-- Node2&#45;&gt;Node7 -->
<g id="edge6_Node000002_Node000007" class="edge">
<title>Node2&#45;&gt;Node7</title>
<g id="a_edge6_Node000002_Node000007"><a xlink:title=" ">
<path fill="none" stroke="#63b8ff" d="M270.63,-146.75C260.12,-148.05 249.36,-149.37 239.15,-150.63"/>
<polygon fill="#63b8ff" stroke="#63b8ff" points="271.1,-150.22 280.59,-145.52 270.24,-143.27 271.1,-150.22"/>
</a>
</g>
</g>
<!-- Node8 -->
<g id="Node000008" class="node">
<title>Node8</title>
<g id="a_Node000008"><a xlink:href="../../d8/df2/classIrrational.html#a3ff70259b3eb80a20cd5d646969fbfc1" target="_top" xlink:title=" ">
<polygon fill="white" stroke="#666666" points="238,-130 127,-130 127,-111 238,-111 238,-130"/>
<text text-anchor="middle" x="182.5" y="-118" font-family="Helvetica,sans-Serif" font-size="10.00">Irrational::operator/</text>
</a>
</g>
</g>
<!-- Node2&#45;&gt;Node8 -->
<g id="edge7_Node000002_Node000008" class="edge">
<title>Node2&#45;&gt;Node8</title>
<g id="a_edge7_Node000002_Node000008"><a xlink:title=" ">
<path fill="none" stroke="#63b8ff" d="M270.37,-130.65C259.6,-129.39 248.56,-128.1 238.12,-126.88"/>
<polygon fill="#63b8ff" stroke="#63b8ff" points="270.25,-134.16 280.59,-131.85 271.07,-127.21 270.25,-134.16"/>
</a>
</g>
</g>
<!-- Node9 -->
<g id="Node000009" class="node">
<title>Node9</title>
<g id="a_Node000009"><a xlink:href="../../d8/df2/classIrrational.html#a534821a017a2333df0ff38f1fc27f297" target="_top" xlink:title=" ">
<polygon fill="white" stroke="#666666" points="240.5,-93 124.5,-93 124.5,-74 240.5,-74 240.5,-93"/>
<text text-anchor="middle" x="182.5" y="-81" font-family="Helvetica,sans-Serif" font-size="10.00">Irrational::operator&lt;</text>
</a>
</g>
</g>
<!-- Node2&#45;&gt;Node9 -->
<g id="edge8_Node000002_Node000009" class="edge">
<title>Node2&#45;&gt;Node9</title>
<g id="a_edge8_Node000002_Node000009"><a xlink:title=" ">
<path fill="none" stroke="#63b8ff" d="M304.34,-124.93C286.81,-117.93 264.86,-109.42 245,-102.5 235.61,-99.23 225.31,-95.93 215.88,-93.03"/>
<polygon fill="#63b8ff" stroke="#63b8ff" points="303.52,-128.37 314.1,-128.86 306.13,-121.88 303.52,-128.37"/>
</a>
</g>
</g>
<!-- Node10 -->
<g id="Node000010" class="node">
<title>Node10</title>
<g id="a_Node000010"><a xlink:href="../../d8/df2/classIrrational.html#acb156247c5601fb410c58b00586db529" target="_top" xlink:title=" ">
<polygon fill="white" stroke="#666666" points="245,-56 120,-56 120,-37 245,-37 245,-56"/>
<text text-anchor="middle" x="182.5" y="-44" font-family="Helvetica,sans-Serif" font-size="10.00">Irrational::operator==</text>
</a>
</g>
</g>
<!-- Node2&#45;&gt;Node10 -->
<g id="edge9_Node000002_Node000010" class="edge">
<title>Node2&#45;&gt;Node10</title>
<g id="a_edge9_Node000002_Node000010"><a xlink:title=" ">
<path fill="none" stroke="#63b8ff" d="M320.12,-121.51C302.5,-105.12 273.79,-80.63 245,-65.5 237.88,-61.76 229.9,-58.62 222.1,-56.04"/>
<polygon fill="#63b8ff" stroke="#63b8ff" points="318.17,-124.49 327.83,-128.83 322.99,-119.41 318.17,-124.49"/>
</a>
</g>
</g>
<!-- Node11 -->
<g id="Node000011" class="node">
<title>Node11</title>
<g id="a_Node000011"><a xlink:href="../../d8/df2/classIrrational.html#a8b9ce42959ff3c9133e8471a142abec3" target="_top" xlink:title="计算整数次幂">
<polygon fill="white" stroke="#666666" points="226,-19 139,-19 139,0 226,0 226,-19"/>
<text text-anchor="middle" x="182.5" y="-7" font-family="Helvetica,sans-Serif" font-size="10.00">Irrational::pow</text>
</a>
</g>
</g>
<!-- Node2&#45;&gt;Node11 -->
<g id="edge10_Node000002_Node000011" class="edge">
<title>Node2&#45;&gt;Node11</title>
<g id="a_edge10_Node000002_Node000011"><a xlink:title=" ">
<path fill="none" stroke="#63b8ff" d="M326.91,-120.33C311.79,-95.94 281.71,-52.85 245,-28.5 239.23,-24.67 232.64,-21.58 225.98,-19.1"/>
<polygon fill="#63b8ff" stroke="#63b8ff" points="323.96,-122.22 332.13,-128.97 329.96,-118.6 323.96,-122.22"/>
</a>
</g>
</g>
<!-- Node4 -->
<g id="Node000004" class="node">
<title>Node4</title>
<g id="a_Node000004"><a xlink:href="../../d8/df2/classIrrational.html#af3bf58b0e6ccde3a0af67f70b3db7a8e" target="_top" xlink:title="取绝对值">
<polygon fill="white" stroke="#666666" points="84,-278 0,-278 0,-259 84,-259 84,-278"/>
<text text-anchor="middle" x="42" y="-266" font-family="Helvetica,sans-Serif" font-size="10.00">Irrational::abs</text>
</a>
</g>
</g>
<!-- Node3&#45;&gt;Node4 -->
<g id="edge3_Node000003_Node000004" class="edge">
<title>Node3&#45;&gt;Node4</title>
<g id="a_edge3_Node000003_Node000004"><a xlink:title=" ">
<path fill="none" stroke="#63b8ff" d="M110.57,-268.5C101.53,-268.5 92.53,-268.5 84.19,-268.5"/>
<polygon fill="#63b8ff" stroke="#63b8ff" points="110.75,-272 120.75,-268.5 110.75,-265 110.75,-272"/>
</a>
</g>
</g>
</g>
</svg>
