<?xml version="1.0" encoding="UTF-8" standalone="no"?>
<!DOCTYPE svg PUBLIC "-//W3C//DTD SVG 1.1//EN"
 "http://www.w3.org/Graphics/SVG/1.1/DTD/svg11.dtd">
<!-- Generated by graphviz version 2.43.0 (0)
 -->
<!-- Title: SymbolicVisitor::DepthGuard Pages: 1 -->
<!--zoomable 520 -->

<svg id="main" version="1.1" xmlns="http://www.w3.org/2000/svg" xmlns:xlink="http://www.w3.org/1999/xlink" xml:space="preserve" onload="init(evt)">
<style type="text/css"><![CDATA[
.node, .edge {opacity: 0.7;}
.node.selected, .edge.selected {opacity: 1;}
.edge:hover path { stroke: red; }
.edge:hover polygon { stroke: red; fill: red; }
]]></style>

<defs>
  <circle id="rim" cx="0" cy="0" r="7"/>
  <circle id="rim2" cx="0" cy="0" r="3.5"/>
  <g id="zoomPlus">
    <use xlink:href="#rim" fill="#404040"><set attributeName="fill" to="#808080" begin="zoomplus.mouseover" end="zoomplus.mouseout"/></use>
    <path d="M-4,0h8M0,-4v8" fill="none" stroke="white" stroke-width="1.5" pointer-events="none"/>
  </g>
  <g id="zoomMin">
    <use xlink:href="#rim" fill="#404040"><set attributeName="fill" to="#808080" begin="zoomminus.mouseover" end="zoomminus.mouseout"/></use>
    <path d="M-4,0h8" fill="none" stroke="white" stroke-width="1.5" pointer-events="none"/>
  </g>
  <g id="arrowUp" transform="translate(30 24)">
    <use xlink:href="#rim"/>
    <path pointer-events="none" fill="none" stroke="white" stroke-width="1.5" d="M0,-3.0v7 M-2.5,-0.5L0,-3.0L2.5,-0.5"/>
  </g>
  <g id="arrowRight" transform="rotate(90) translate(36 -43)">
    <use xlink:href="#rim"/>
    <path pointer-events="none" fill="none" stroke="white" stroke-width="1.5" d="M0,-3.0v7 M-2.5,-0.5L0,-3.0L2.5,-0.5"/>
  </g>
  <g id="arrowDown" transform="rotate(180) translate(-30 -48)">
    <use xlink:href="#rim"/>
    <path pointer-events="none" fill="none" stroke="white" stroke-width="1.5" d="M0,-3.0v7 M-2.5,-0.5L0,-3.0L2.5,-0.5"/>
  </g>
  <g id="arrowLeft" transform="rotate(270) translate(-36 17)">
    <use xlink:href="#rim"/>
    <path pointer-events="none" fill="none" stroke="white" stroke-width="1.5" d="M0,-3.0v7 M-2.5,-0.5L0,-3.0L2.5,-0.5"/>
  </g>
  <g id="resetDef">
    <use xlink:href="#rim2" fill="#404040"><set attributeName="fill" to="#808080" begin="reset.mouseover" end="reset.mouseout"/></use>
  </g>
</defs>
<script type="application/ecmascript">
var viewWidth = 189;
var viewHeight = 520;
var sectionId = 'dynsection-0';
</script>
<script type="application/ecmascript" xlink:href="../../svg.min.js"/>
<svg id="graph" class="graph">
<g id="viewport">
<title>SymbolicVisitor::DepthGuard</title>
<!-- Node1 -->
<g id="Node000001" class="node">
<title>Node1</title>
<g id="a_Node000001"><a xlink:title="深度守卫，进入时递增深度，超限时抛出异常。">
<polygon fill="#999999" stroke="transparent" points="181,-64 0,-64 0,0 181,0 181,-64"/>
<text text-anchor="start" x="20" y="-52" font-family="Helvetica,sans-Serif" font-size="10.00">SymbolicVisitor::DepthGuard</text>
<text text-anchor="start" x="89" y="-37" font-family="Helvetica,sans-Serif" font-size="10.00"> </text>
<text text-anchor="start" x="4.5" y="-22" font-family="Helvetica,sans-Serif" font-size="10.00">+</text>
<text text-anchor="start" x="17.5" y="-22" font-family="Helvetica,sans-Serif" font-size="10.00">DepthGuard(SymbolicVisitor &amp;v)</text>
<text text-anchor="start" x="4.5" y="-7" font-family="Helvetica,sans-Serif" font-size="10.00">+</text>
<text text-anchor="start" x="17.5" y="-7" font-family="Helvetica,sans-Serif" font-size="10.00">~DepthGuard()</text>
<polygon fill="#666666" stroke="#666666" points="0.5,-47 0.5,-47 181.5,-47 181.5,-47 0.5,-47"/>
<polygon fill="#666666" stroke="#666666" points="0.5,-32 0.5,-32 181.5,-32 181.5,-32 0.5,-32"/>
<polygon fill="none" stroke="#666666" points="0,0 0,-64 181,-64 181,0 0,0"/>
</a>
</g>
</g>
<!-- Node2 -->
<g id="Node000002" class="node">
<title>Node2</title>
<g id="a_Node000002"><a xlink:href="../../da/dcb/classSymbolicVisitor.html" target="_top" xlink:title="AST 访问者基类（Visitor 模式）。">
<polygon fill="white" stroke="transparent" points="163,-405 18,-405 18,-111 163,-111 163,-405"/>
<text text-anchor="start" x="52.5" y="-393" font-family="Helvetica,sans-Serif" font-size="10.00">SymbolicVisitor</text>
<text text-anchor="start" x="89" y="-378" font-family="Helvetica,sans-Serif" font-size="10.00"> </text>
<text text-anchor="start" x="22.5" y="-363" font-family="Helvetica,sans-Serif" font-size="10.00">+</text>
<text text-anchor="start" x="35.5" y="-363" font-family="Helvetica,sans-Serif" font-size="10.00">virtual ~SymbolicVisitor</text>
<text text-anchor="start" x="35.5" y="-352" font-family="Helvetica,sans-Serif" font-size="10.00">()=default</text>
<text text-anchor="start" x="22.5" y="-337" font-family="Helvetica,sans-Serif" font-size="10.00">+</text>
<text text-anchor="start" x="35.5" y="-337" font-family="Helvetica,sans-Serif" font-size="10.00">virtual void visit</text>
<text text-anchor="start" x="35.5" y="-326" font-family="Helvetica,sans-Serif" font-size="10.00">(AddNode &amp;node)=0</text>
<text text-anchor="start" x="22.5" y="-311" font-family="Helvetica,sans-Serif" font-size="10.00">+</text>
<text text-anchor="start" x="35.5" y="-311" font-family="Helvetica,sans-Serif" font-size="10.00">virtual void visit</text>
<text text-anchor="start" x="35.5" y="-300" font-family="Helvetica,sans-Serif" font-size="10.00">(FunctionNode &amp;node)=0</text>
<text text-anchor="start" x="22.5" y="-285" font-family="Helvetica,sans-Serif" font-size="10.00">+</text>
<text text-anchor="start" x="35.5" y="-285" font-family="Helvetica,sans-Serif" font-size="10.00">virtual void visit</text>
<text text-anchor="start" x="35.5" y="-274" font-family="Helvetica,sans-Serif" font-size="10.00">(LogicalNode &amp;node)</text>
<text text-anchor="start" x="22.5" y="-259" font-family="Helvetica,sans-Serif" font-size="10.00">+</text>
<text text-anchor="start" x="35.5" y="-259" font-family="Helvetica,sans-Serif" font-size="10.00">virtual void visit</text>
<text text-anchor="start" x="35.5" y="-248" font-family="Helvetica,sans-Serif" font-size="10.00">(MatrixNode &amp;node)=0</text>
<text text-anchor="start" x="22.5" y="-233" font-family="Helvetica,sans-Serif" font-size="10.00">+</text>
<text text-anchor="start" x="35.5" y="-233" font-family="Helvetica,sans-Serif" font-size="10.00">virtual void visit</text>
<text text-anchor="start" x="35.5" y="-222" font-family="Helvetica,sans-Serif" font-size="10.00">(MultiplyNode &amp;node)=0</text>
<text text-anchor="start" x="22.5" y="-207" font-family="Helvetica,sans-Serif" font-size="10.00">+</text>
<text text-anchor="start" x="35.5" y="-207" font-family="Helvetica,sans-Serif" font-size="10.00">virtual void visit</text>
<text text-anchor="start" x="35.5" y="-196" font-family="Helvetica,sans-Serif" font-size="10.00">(NumberNode &amp;node)=0</text>
<text text-anchor="start" x="22.5" y="-181" font-family="Helvetica,sans-Serif" font-size="10.00">+</text>
<text text-anchor="start" x="35.5" y="-181" font-family="Helvetica,sans-Serif" font-size="10.00">virtual void visit</text>
<text text-anchor="start" x="35.5" y="-170" font-family="Helvetica,sans-Serif" font-size="10.00">(PowerNode &amp;node)=0</text>
<text text-anchor="start" x="22.5" y="-155" font-family="Helvetica,sans-Serif" font-size="10.00">+</text>
<text text-anchor="start" x="35.5" y="-155" font-family="Helvetica,sans-Serif" font-size="10.00">virtual void visit</text>
<text text-anchor="start" x="35.5" y="-144" font-family="Helvetica,sans-Serif" font-size="10.00">(RelationalNode &amp;node)</text>
<text text-anchor="start" x="22.5" y="-129" font-family="Helvetica,sans-Serif" font-size="10.00">+</text>
<text text-anchor="start" x="35.5" y="-129" font-family="Helvetica,sans-Serif" font-size="10.00">virtual void visit</text>
<text text-anchor="start" x="35.5" y="-118" font-family="Helvetica,sans-Serif" font-size="10.00">(VariableNode &amp;node)=0</text>
<polygon fill="#666666" stroke="#666666" points="18.5,-388 18.5,-388 163.5,-388 163.5,-388 18.5,-388"/>
<polygon fill="#666666" stroke="#666666" points="18.5,-373 18.5,-373 163.5,-373 163.5,-373 18.5,-373"/>
<polygon fill="none" stroke="#666666" points="18,-111 18,-405 163,-405 163,-111 18,-111"/>
</a>
</g>
</g>
<!-- Node2&#45;&gt;Node1 -->
<g id="edge1_Node000001_Node000002" class="edge">
<title>Node2&#45;&gt;Node1</title>
<g id="a_edge1_Node000001_Node000002"><a xlink:title=" ">
<path fill="none" stroke="#63b8ff" d="M90.5,-110.72C90.5,-98.32 90.5,-86.55 90.5,-76.09"/>
<polygon fill="none" stroke="#63b8ff" points="90.5,-76.02 86.5,-70.02 90.5,-64.02 94.5,-70.02 90.5,-76.02"/>
</a>
</g>
<text text-anchor="middle" x="112" y="-85" font-family="Helvetica,sans-Serif" font-size="10.00" fill="grey"> +visitor</text>
</g>
<!-- Node3 -->
<g id="Node000003" class="node">
<title>Node3</title>
<g id="a_Node000003"><a xlink:title=" ">
<polygon fill="white" stroke="transparent" points="102,-512 79,-512 79,-463 102,-463 102,-512"/>
<text text-anchor="start" x="84.5" y="-499.5" font-family="Helvetica,sans-Serif" font-size="10.00">int</text>
<text text-anchor="start" x="89" y="-484.5" font-family="Helvetica,sans-Serif" font-size="10.00"> </text>
<text text-anchor="start" x="89" y="-469.5" font-family="Helvetica,sans-Serif" font-size="10.00"> </text>
<polygon fill="#666666" stroke="#666666" points="79.5,-494.5 79.5,-494.5 102.5,-494.5 102.5,-494.5 79.5,-494.5"/>
<polygon fill="#666666" stroke="#666666" points="79.5,-479.5 79.5,-479.5 102.5,-479.5 102.5,-479.5 79.5,-479.5"/>
<polygon fill="none" stroke="#666666" points="79,-463 79,-512 102,-512 102,-463 79,-463"/>
</a>
</g>
</g>
<!-- Node3&#45;&gt;Node2 -->
<g id="edge2_Node000002_Node000003" class="edge">
<title>Node3&#45;&gt;Node2</title>
<g id="a_edge2_Node000002_Node000003"><a xlink:title=" ">
<path fill="none" stroke="#63b8ff" d="M90.5,-462.58C90.5,-450.48 90.5,-434.64 90.5,-417.14"/>
<polygon fill="none" stroke="#63b8ff" points="90.5,-417.11 86.5,-411.11 90.5,-405.11 94.5,-411.11 90.5,-417.11"/>
</a>
</g>
<text text-anchor="middle" x="128.5" y="-437" font-family="Helvetica,sans-Serif" font-size="10.00" fill="grey"> #MAX_DEPTH</text>
<text text-anchor="middle" x="128.5" y="-426" font-family="Helvetica,sans-Serif" font-size="10.00" fill="grey">#current_depth</text>
</g>
</g>
</svg>

<g id="navigator" transform="translate(0 0)" fill="#404254">
  <rect fill="#f2f5e9" fill-opacity="0.5" stroke="#606060" stroke-width=".5" x="0" y="0" width="60" height="60"/>
  <use id="zoomplus" xlink:href="#zoomPlus" x="17" y="9" onmousedown="handleZoom(evt,'in')"/>
  <use id="zoomminus" xlink:href="#zoomMin" x="42" y="9" onmousedown="handleZoom(evt,'out')"/>
  <use id="reset" xlink:href="#resetDef" x="30" y="36" onmousedown="handleReset()"/>
   <use id="arrowup" xlink:href="#arrowUp" x="0" y="0" onmousedown="handlePan(0,-1)"/>
  <use id="arrowright" xlink:href="#arrowRight" x="0" y="0" onmousedown="handlePan(1,0)"/>
  <use id="arrowdown" xlink:href="#arrowDown" x="0" y="0" onmousedown="handlePan(0,1)"/>
  <use id="arrowleft" xlink:href="#arrowLeft" x="0" y="0" onmousedown="handlePan(-1,0)"/>
</g>
<svg viewBox="0 0 15 15" width="100%" height="30px" preserveAspectRatio="xMaxYMin meet">
 <g id="arrow_out" transform="scale(0.3 0.3)">
  <a xlink:href="structSymbolicVisitor_1_1DepthGuard__coll__graph_org.svg" target="_base">
   <rect id="button" ry="5" rx="5" y="6" x="6" height="38" width="38"
        fill="#f2f5e9" fill-opacity="0.5" stroke="#606060" stroke-width="1.0"/>
   <path id="arrow"
     d="M 11.500037,31.436501 C 11.940474,20.09759 22.043105,11.32322 32.158766,21.979434 L 37.068811,17.246167 C 37.068811,17.246167 37.088388,32 37.088388,32 L 22.160133,31.978069 C 22.160133,31.978069 26.997745,27.140456 26.997745,27.140456 C 18.528582,18.264221 13.291696,25.230495 11.500037,31.436501 z"
     style="fill:#404040;"/>
  </a>
 </g>
</svg>

<style type='text/css'>
<![CDATA[
[data-mouse-over-selected='false'] { opacity: 0.7; }
[data-mouse-over-selected='true']  { opacity: 1.0; }
]]>
</style>
<script type="application/ecmascript"><![CDATA[
document.addEventListener('DOMContentLoaded', (event) => {
  highlightEdges();
  highlightAdjacentNodes();
});
]]></script>
</svg>
