<?xml version="1.0" encoding="UTF-8" standalone="no"?>
<!DOCTYPE svg PUBLIC "-//W3C//DTD SVG 1.1//EN"
 "http://www.w3.org/Graphics/SVG/1.1/DTD/svg11.dtd">
<!-- Generated by graphviz version 2.43.0 (0)
 -->
<!-- Title: lamina::lsr::anonymous_namespace{lsr_expr::cpp}::ExprParser::interval Pages: 1 -->
<!--zoomable 293 -->

<svg id="main" version="1.1" xmlns="http://www.w3.org/2000/svg" xmlns:xlink="http://www.w3.org/1999/xlink" xml:space="preserve">

<style type="text/css"><![CDATA[
.node, .edge {opacity: 0.7;}
.node.selected, .edge.selected {opacity: 1;}
.edge:hover path { stroke: red; }
.edge:hover polygon { stroke: red; fill: red; }
]]></style>

<defs>
  <circle id="rim" cx="0" cy="0" r="7"/>
  <circle id="rim2" cx="0" cy="0" r="3.5"/>
  <g id="zoomPlus">
    <use xlink:href="#rim" fill="#404040"><set attributeName="fill" to="#808080" begin="zoomplus.mouseover" end="zoomplus.mouseout"/></use>
    <path d="M-4,0h8M0,-4v8" fill="none" stroke="white" stroke-width="1.5" pointer-events="none"/>
  </g>
  <g id="zoomMin">
    <use xlink:href="#rim" fill="#404040"><set attributeName="fill" to="#808080" begin="zoomminus.mouseover" end="zoomminus.mouseout"/></use>
    <path d="M-4,0h8" fill="none" stroke="white" stroke-width="1.5" pointer-events="none"/>
  </g>
  <g id="arrowUp" transform="translate(30 24)">
    <use xlink:href="#rim"/>
    <path pointer-events="none" fill="none" stroke="white" stroke-width="1.5" d="M0,-3.0v7 M-2.5,-0.5L0,-3.0L2.5,-0.5"/>
  </g>
  <g id="arrowRight" transform="rotate(90) translate(36 -43)">
    <use xlink:href="#rim"/>
    <path pointer-events="none" fill="none" stroke="white" stroke-width="1.5" d="M0,-3.0v7 M-2.5,-0.5L0,-3.0L2.5,-0.5"/>
  </g>
  <g id="arrowDown" transform="rotate(180) translate(-30 -48)">
    <use xlink:href="#rim"/>
    <path pointer-events="none" fill="none" stroke="white" stroke-width="1.5" d="M0,-3.0v7 M-2.5,-0.5L0,-3.0L2.5,-0.5"/>
  </g>
  <g id="arrowLeft" transform="rotate(270) translate(-36 17)">
    <use xlink:href="#rim"/>
    <path pointer-events="none" fill="none" stroke="white" stroke-width="1.5" d="M0,-3.0v7 M-2.5,-0.5L0,-3.0L2.5,-0.5"/>
  </g>
  <g id="resetDef">
    <use xlink:href="#rim2" fill="#404040"><set attributeName="fill" to="#808080" begin="reset.mouseover" end="reset.mouseout"/></use>
  </g>
</defs>
<script type="application/ecmascript" xlink:href="../../svg.min.js"/>
<svg id="graph" class="graph" data-view-width="566" data-view-height="293" data-section-id="dynsection-10">
<g id="viewport">
<title>lamina::lsr::anonymous_namespace{lsr_expr::cpp}::ExprParser::interval</title>
<!-- Node1 -->
<g id="Node000001" class="node">
<title>Node1</title>
<g id="a_Node000001"><a xlink:title=" ">
<polygon fill="#999999" stroke="#666666" points="152,-133.5 0,-133.5 0,-92.5 152,-92.5 152,-133.5"/>
<text text-anchor="start" x="8" y="-121.5" font-family="Helvetica,sans-Serif" font-size="10.00">lamina::lsr::anonymous</text>
<text text-anchor="start" x="8" y="-110.5" font-family="Helvetica,sans-Serif" font-size="10.00">_namespace{lsr_expr::cpp}</text>
<text text-anchor="middle" x="76" y="-99.5" font-family="Helvetica,sans-Serif" font-size="10.00">::ExprParser::interval</text>
</a>
</g>
</g>
<!-- Node2 -->
<g id="Node000002" class="node">
<title>Node2</title>
<g id="a_Node000002"><a xlink:href="../../d8/d6a/namespacelamina_1_1lsr_1_1anonymous__namespace_02lsr__expr_8cpp_03.html#ad3ccc611b94a6f2e20435c0987430d26" target="_top" xlink:title=" ">
<polygon fill="white" stroke="#666666" points="340,-266.5 188,-266.5 188,-225.5 340,-225.5 340,-266.5"/>
<text text-anchor="start" x="196" y="-254.5" font-family="Helvetica,sans-Serif" font-size="10.00">lamina::lsr::anonymous</text>
<text text-anchor="start" x="196" y="-243.5" font-family="Helvetica,sans-Serif" font-size="10.00">_namespace{lsr_expr::cpp}</text>
<text text-anchor="middle" x="264" y="-232.5" font-family="Helvetica,sans-Serif" font-size="10.00">::expression_failure</text>
</a>
</g>
</g>
<!-- Node1&#45;&gt;Node2 -->
<g id="edge1_Node000001_Node000002" class="edge">
<title>Node1&#45;&gt;Node2</title>
<g id="a_edge1_Node000001_Node000002"><a xlink:title=" ">
<path fill="none" stroke="#63b8ff" d="M94.84,-133.59C115.4,-156.28 151.12,-192.66 188,-216 190.58,-217.63 193.27,-219.21 196.02,-220.72"/>
<polygon fill="#63b8ff" stroke="#63b8ff" points="194.51,-223.88 205.01,-225.33 197.71,-217.65 194.51,-223.88"/>
</a>
</g>
</g>
<!-- Node4 -->
<g id="Node000004" class="node">
<title>Node4</title>
<g id="a_Node000004"><a xlink:href="../../d0/d3a/namespacelamina_1_1detail.html#aadd9ee6d804ecfa450cbaced381efdeb" target="_top" xlink:title=" ">
<polygon fill="white" stroke="#666666" points="322.5,-189 205.5,-189 205.5,-159 322.5,-159 322.5,-189"/>
<text text-anchor="start" x="213.5" y="-177" font-family="Helvetica,sans-Serif" font-size="10.00">lamina::detail::make</text>
<text text-anchor="middle" x="264" y="-166" font-family="Helvetica,sans-Serif" font-size="10.00">_expression_ptr</text>
</a>
</g>
</g>
<!-- Node1&#45;&gt;Node4 -->
<g id="edge4_Node000001_Node000004" class="edge">
<title>Node1&#45;&gt;Node4</title>
<g id="a_edge4_Node000001_Node000004"><a xlink:title=" ">
<path fill="none" stroke="#63b8ff" d="M138.31,-133.58C154.46,-138.97 171.88,-144.73 188,-150 193.88,-151.92 200.03,-153.92 206.17,-155.89"/>
<polygon fill="#63b8ff" stroke="#63b8ff" points="205.17,-159.25 215.76,-158.98 207.31,-152.59 205.17,-159.25"/>
</a>
</g>
</g>
<!-- Node6 -->
<g id="Node000006" class="node">
<title>Node6</title>
<g id="a_Node000006"><a xlink:href="../../d0/d3a/namespacelamina_1_1detail.html#aea502a76fff503e0f55363f674f65fa4" target="_top" xlink:title=" ">
<polygon fill="white" stroke="#666666" points="337,-122.5 191,-122.5 191,-103.5 337,-103.5 337,-122.5"/>
<text text-anchor="middle" x="264" y="-110.5" font-family="Helvetica,sans-Serif" font-size="10.00">lamina::detail::make_node</text>
</a>
</g>
</g>
<!-- Node1&#45;&gt;Node6 -->
<g id="edge7_Node000001_Node000006" class="edge">
<title>Node1&#45;&gt;Node6</title>
<g id="a_edge7_Node000001_Node000006"><a xlink:title=" ">
<path fill="none" stroke="#63b8ff" d="M152.12,-113C161.52,-113 171.18,-113 180.68,-113"/>
<polygon fill="#63b8ff" stroke="#63b8ff" points="180.92,-116.5 190.92,-113 180.92,-109.5 180.92,-116.5"/>
</a>
</g>
</g>
<!-- Node7 -->
<g id="Node000007" class="node">
<title>Node7</title>
<g id="a_Node000007"><a xlink:href="../../d0/d3a/namespacelamina_1_1detail.html#a9e31448c7d53c33d5be1a6bd9a631cbf" target="_top" xlink:title=" ">
<polygon fill="white" stroke="#666666" points="321,-67.5 207,-67.5 207,-48.5 321,-48.5 321,-67.5"/>
<text text-anchor="middle" x="264" y="-55.5" font-family="Helvetica,sans-Serif" font-size="10.00">lamina::detail::node</text>
</a>
</g>
</g>
<!-- Node1&#45;&gt;Node7 -->
<g id="edge9_Node000001_Node000007" class="edge">
<title>Node1&#45;&gt;Node7</title>
<g id="a_edge9_Node000001_Node000007"><a xlink:title=" ">
<path fill="none" stroke="#63b8ff" d="M146.52,-92.44C171.58,-85.03 199.07,-76.91 221.04,-70.41"/>
<polygon fill="#63b8ff" stroke="#63b8ff" points="222.13,-73.74 230.72,-67.54 220.14,-67.02 222.13,-73.74"/>
</a>
</g>
</g>
<!-- Node9 -->
<g id="Node000009" class="node">
<title>Node9</title>
<g id="a_Node000009"><a xlink:href="../../d4/d81/classlamina_1_1Result.html#a70191f302f20c27ad54a360736f2ab47" target="_top" xlink:title=" ">
<polygon fill="white" stroke="#666666" points="331,-30 197,-30 197,0 331,0 331,-30"/>
<text text-anchor="start" x="205" y="-18" font-family="Helvetica,sans-Serif" font-size="10.00">lamina::Result&lt; ExprPtr</text>
<text text-anchor="middle" x="264" y="-7" font-family="Helvetica,sans-Serif" font-size="10.00"> &gt;::success</text>
</a>
</g>
</g>
<!-- Node1&#45;&gt;Node9 -->
<g id="edge12_Node000001_Node000009" class="edge">
<title>Node1&#45;&gt;Node9</title>
<g id="a_edge12_Node000001_Node000009"><a xlink:title=" ">
<path fill="none" stroke="#63b8ff" d="M103.55,-92.21C125.28,-75.98 157.33,-53.77 188,-39 191.81,-37.16 195.8,-35.42 199.86,-33.78"/>
<polygon fill="#63b8ff" stroke="#63b8ff" points="201.34,-36.96 209.43,-30.12 198.84,-30.42 201.34,-36.96"/>
</a>
</g>
</g>
<!-- Node2&#45;&gt;Node2 -->
<g id="edge2_Node000002_Node000002" class="edge">
<title>Node2&#45;&gt;Node2</title>
<g id="a_edge2_Node000002_Node000002"><a xlink:title=" ">
<path fill="none" stroke="#63b8ff" d="M229.45,-266.6C225.68,-276.15 237.2,-284.5 264,-284.5 280.75,-284.5 291.53,-281.24 296.34,-276.46"/>
<polygon fill="#63b8ff" stroke="#63b8ff" points="299.78,-277.12 298.55,-266.6 292.95,-275.59 299.78,-277.12"/>
</a>
</g>
</g>
<!-- Node3 -->
<g id="Node000003" class="node">
<title>Node3</title>
<g id="a_Node000003"><a xlink:href="../../d4/d81/classlamina_1_1Result.html#a98c750bac3d54d9b81d02a5c64a0f860" target="_top" xlink:title=" ">
<polygon fill="white" stroke="#666666" points="534,-261 400,-261 400,-231 534,-231 534,-261"/>
<text text-anchor="start" x="408" y="-249" font-family="Helvetica,sans-Serif" font-size="10.00">lamina::Result&lt; ExprPtr</text>
<text text-anchor="middle" x="467" y="-238" font-family="Helvetica,sans-Serif" font-size="10.00"> &gt;::failure</text>
</a>
</g>
</g>
<!-- Node2&#45;&gt;Node3 -->
<g id="edge3_Node000002_Node000003" class="edge">
<title>Node2&#45;&gt;Node3</title>
<g id="a_edge3_Node000002_Node000003"><a xlink:title=" ">
<path fill="none" stroke="#63b8ff" d="M340.13,-246C356.38,-246 373.58,-246 389.87,-246"/>
<polygon fill="#63b8ff" stroke="#63b8ff" points="389.88,-249.5 399.88,-246 389.88,-242.5 389.88,-249.5"/>
</a>
</g>
</g>
<!-- Node4&#45;&gt;Node4 -->
<g id="edge5_Node000004_Node000004" class="edge">
<title>Node4&#45;&gt;Node4</title>
<g id="a_edge5_Node000004_Node000004"><a xlink:title=" ">
<path fill="none" stroke="#63b8ff" d="M230.95,-189.28C223.61,-198.41 234.62,-207 264,-207 281.44,-207 292.41,-203.97 296.91,-199.6"/>
<polygon fill="#63b8ff" stroke="#63b8ff" points="300.41,-199.32 297.05,-189.28 293.41,-199.23 300.41,-199.32"/>
</a>
</g>
</g>
<!-- Node5 -->
<g id="Node000005" class="node">
<title>Node5</title>
<g id="a_Node000005"><a xlink:href="../../dd/d4b/structlamina_1_1detail_1_1SymbolicExprAccess.html#a712fed6f6bc25756300804478624c98d" target="_top" xlink:title=" ">
<polygon fill="white" stroke="#666666" points="558,-189 376,-189 376,-159 558,-159 558,-189"/>
<text text-anchor="start" x="384" y="-177" font-family="Helvetica,sans-Serif" font-size="10.00">lamina::detail::Symbolic</text>
<text text-anchor="middle" x="467" y="-166" font-family="Helvetica,sans-Serif" font-size="10.00">ExprAccess::make_expression_ptr</text>
</a>
</g>
</g>
<!-- Node4&#45;&gt;Node5 -->
<g id="edge6_Node000004_Node000005" class="edge">
<title>Node4&#45;&gt;Node5</title>
<g id="a_edge6_Node000004_Node000005"><a xlink:title=" ">
<path fill="none" stroke="#63b8ff" d="M322.6,-174C336.08,-174 350.82,-174 365.57,-174"/>
<polygon fill="#63b8ff" stroke="#63b8ff" points="365.76,-177.5 375.76,-174 365.76,-170.5 365.76,-177.5"/>
</a>
</g>
</g>
<!-- Node6&#45;&gt;Node6 -->
<g id="edge8_Node000006_Node000006" class="edge">
<title>Node6&#45;&gt;Node6</title>
<g id="a_edge8_Node000006_Node000006"><a xlink:title=" ">
<path fill="none" stroke="#63b8ff" d="M235.02,-122.58C220.93,-131.23 230.59,-140.5 264,-140.5 286.97,-140.5 298.72,-136.12 299.23,-130.57"/>
<polygon fill="#63b8ff" stroke="#63b8ff" points="301.9,-128.3 292.98,-122.58 296.39,-132.61 301.9,-128.3"/>
</a>
</g>
</g>
<!-- Node7&#45;&gt;Node7 -->
<g id="edge10_Node000007_Node000007" class="edge">
<title>Node7&#45;&gt;Node7</title>
<g id="a_edge10_Node000007_Node000007"><a xlink:title=" ">
<path fill="none" stroke="#63b8ff" d="M235.02,-67.58C220.93,-76.23 230.59,-85.5 264,-85.5 286.97,-85.5 298.72,-81.12 299.23,-75.57"/>
<polygon fill="#63b8ff" stroke="#63b8ff" points="301.9,-73.3 292.98,-67.58 296.39,-77.61 301.9,-73.3"/>
</a>
</g>
</g>
<!-- Node8 -->
<g id="Node000008" class="node">
<title>Node8</title>
<g id="a_Node000008"><a xlink:href="../../dd/d4b/structlamina_1_1detail_1_1SymbolicExprAccess.html#a1043af2b4ddea84e31b86e2ac5189ab3" target="_top" xlink:title=" ">
<polygon fill="white" stroke="#666666" points="534.5,-73 399.5,-73 399.5,-43 534.5,-43 534.5,-73"/>
<text text-anchor="start" x="407.5" y="-61" font-family="Helvetica,sans-Serif" font-size="10.00">lamina::detail::Symbolic</text>
<text text-anchor="middle" x="467" y="-50" font-family="Helvetica,sans-Serif" font-size="10.00">ExprAccess::node</text>
</a>
</g>
</g>
<!-- Node7&#45;&gt;Node8 -->
<g id="edge11_Node000007_Node000008" class="edge">
<title>Node7&#45;&gt;Node8</title>
<g id="a_edge11_Node000007_Node000008"><a xlink:title=" ">
<path fill="none" stroke="#63b8ff" d="M321.26,-58C342.31,-58 366.59,-58 389.18,-58"/>
<polygon fill="#63b8ff" stroke="#63b8ff" points="389.42,-61.5 399.42,-58 389.42,-54.5 389.42,-61.5"/>
</a>
</g>
</g>
</g>
</svg>

<g id="navigator" transform="translate(0 0)" fill="#404254">
  <rect fill="#f2f5e9" fill-opacity="0.5" stroke="#606060" stroke-width=".5" x="0" y="0" width="60" height="60"/>
  <use id="zoomplus" xlink:href="#zoomPlus" x="17" y="9" data-zoom="in"/>
  <use id="zoomminus" xlink:href="#zoomMin" x="42" y="9" data-zoom="out"/>
  <use id="reset" xlink:href="#resetDef" x="30" y="36" data-reset="true"/>
  <use id="arrowup" xlink:href="#arrowUp" x="0" y="0" data-pan-x="0" data-pan-y="-1"/>
  <use id="arrowright" xlink:href="#arrowRight" x="0" y="0" data-pan-x="1" data-pan-y="0"/>
  <use id="arrowdown" xlink:href="#arrowDown" x="0" y="0" data-pan-x="0" data-pan-y="1"/>
  <use id="arrowleft" xlink:href="#arrowLeft" x="0" y="0" data-pan-x="-1" data-pan-y="0"/>
</g>
<svg viewBox="0 0 15 15" width="100%" height="30px" preserveAspectRatio="xMaxYMin meet">
 <g id="arrow_out" transform="scale(0.3 0.3)">
  <a xlink:href="classlamina_1_1lsr_1_1anonymous__namespace_02lsr__expr_8cpp_03_1_1ExprParser_a8d81baab39c73d9b790aa1e915ce3d4f_cgraph_org.svg" target="_base">
   <rect id="button" ry="5" rx="5" y="6" x="6" height="38" width="38"
        fill="#f2f5e9" fill-opacity="0.5" stroke="#606060" stroke-width="1.0"/>
   <path id="arrow"
     d="M 11.500037,31.436501 C 11.940474,20.09759 22.043105,11.32322 32.158766,21.979434 L 37.068811,17.246167 C 37.068811,17.246167 37.088388,32 37.088388,32 L 22.160133,31.978069 C 22.160133,31.978069 26.997745,27.140456 26.997745,27.140456 C 18.528582,18.264221 13.291696,25.230495 11.500037,31.436501 z"
     style="fill:#404040;"/>
  </a>
 </g>
</svg>

<style type='text/css'>
<![CDATA[
[data-mouse-over-selected='false'] { opacity: 0.7; }
[data-mouse-over-selected='true']  { opacity: 1.0; }
]]>
</style>
</svg>
