<?xml version="1.0" encoding="UTF-8" standalone="no"?>
<!DOCTYPE svg PUBLIC "-//W3C//DTD SVG 1.1//EN"
 "http://www.w3.org/Graphics/SVG/1.1/DTD/svg11.dtd">
<!-- Generated by graphviz version 2.43.0 (0)
 -->
<!-- Title: lamina::MultipleIntegralEngine Pages: 1 -->
<svg width="186pt" height="149pt"
 viewBox="0.00 0.00 186.00 149.00" xmlns="http://www.w3.org/2000/svg" xmlns:xlink="http://www.w3.org/1999/xlink">
<g id="graph0" class="graph" transform="scale(1 1) rotate(0) translate(4 145)">
<title>lamina::MultipleIntegralEngine</title>
<!-- Node1 -->
<g id="Node000001" class="node">
<title>Node1</title>
<g id="a_Node000001"><a xlink:title="多重（迭代）积分引擎：按由内到外的顺序依次对若干积分变量求积分。">
<polygon fill="#999999" stroke="transparent" points="178,-141 0,-141 0,0 178,0 178,-141"/>
<text text-anchor="start" x="30" y="-128.5" font-family="Helvetica,sans-Serif" font-size="10.00">lamina::MultipleIntegral</text>
<text text-anchor="start" x="72" y="-117.5" font-family="Helvetica,sans-Serif" font-size="10.00">Engine</text>
<text text-anchor="start" x="87" y="-102.5" font-family="Helvetica,sans-Serif" font-size="10.00"> </text>
<text text-anchor="start" x="4" y="-87.5" font-family="Helvetica,sans-Serif" font-size="10.00">+</text>
<text text-anchor="start" x="17" y="-87.5" font-family="Helvetica,sans-Serif" font-size="10.00">std::shared_ptr&lt; Symbolic</text>
<text text-anchor="start" x="17" y="-76.5" font-family="Helvetica,sans-Serif" font-size="10.00">Expr &gt; evaluate(const Symbolic</text>
<text text-anchor="start" x="17" y="-65.5" font-family="Helvetica,sans-Serif" font-size="10.00">Expr &amp;integrand, const std</text>
<text text-anchor="start" x="17" y="-54.5" font-family="Helvetica,sans-Serif" font-size="10.00">::vector&lt; IntegrationStep &gt;</text>
<text text-anchor="start" x="17" y="-43.5" font-family="Helvetica,sans-Serif" font-size="10.00"> &amp;steps, Integrator &amp;integrator)</text>
<text text-anchor="start" x="6.5" y="-28.5" font-family="Helvetica,sans-Serif" font-size="10.00">&#45;</text>
<text text-anchor="start" x="17" y="-28.5" font-family="Helvetica,sans-Serif" font-size="10.00">bool validate(const</text>
<text text-anchor="start" x="17" y="-17.5" font-family="Helvetica,sans-Serif" font-size="10.00"> std::vector&lt; IntegrationStep</text>
<text text-anchor="start" x="17" y="-6.5" font-family="Helvetica,sans-Serif" font-size="10.00"> &gt; &amp;steps) const</text>
<polygon fill="#666666" stroke="#666666" points="0,-112.5 0,-112.5 178,-112.5 178,-112.5 0,-112.5"/>
<polygon fill="#666666" stroke="#666666" points="0,-97.5 0,-97.5 178,-97.5 178,-97.5 0,-97.5"/>
<polygon fill="none" stroke="#666666" points="0,0 0,-141 178,-141 178,0 0,0"/>
</a>
</g>
</g>
</g>
</svg>
