<?xml version="1.0" encoding="UTF-8" standalone="no"?>
<!DOCTYPE svg PUBLIC "-//W3C//DTD SVG 1.1//EN"
 "http://www.w3.org/Graphics/SVG/1.1/DTD/svg11.dtd">
<!-- Generated by graphviz version 2.43.0 (0)
 -->
<!-- Title: src/property_store.cpp Pages: 1 -->
<!--zoomable 412 -->

<svg id="main" version="1.1" xmlns="http://www.w3.org/2000/svg" xmlns:xlink="http://www.w3.org/1999/xlink" xml:space="preserve" onload="init(evt)">
<style type="text/css"><![CDATA[
.node, .edge {opacity: 0.7;}
.node.selected, .edge.selected {opacity: 1;}
.edge:hover path { stroke: red; }
.edge:hover polygon { stroke: red; fill: red; }
]]></style>

<defs>
  <circle id="rim" cx="0" cy="0" r="7"/>
  <circle id="rim2" cx="0" cy="0" r="3.5"/>
  <g id="zoomPlus">
    <use xlink:href="#rim" fill="#404040"><set attributeName="fill" to="#808080" begin="zoomplus.mouseover" end="zoomplus.mouseout"/></use>
    <path d="M-4,0h8M0,-4v8" fill="none" stroke="white" stroke-width="1.5" pointer-events="none"/>
  </g>
  <g id="zoomMin">
    <use xlink:href="#rim" fill="#404040"><set attributeName="fill" to="#808080" begin="zoomminus.mouseover" end="zoomminus.mouseout"/></use>
    <path d="M-4,0h8" fill="none" stroke="white" stroke-width="1.5" pointer-events="none"/>
  </g>
  <g id="arrowUp" transform="translate(30 24)">
    <use xlink:href="#rim"/>
    <path pointer-events="none" fill="none" stroke="white" stroke-width="1.5" d="M0,-3.0v7 M-2.5,-0.5L0,-3.0L2.5,-0.5"/>
  </g>
  <g id="arrowRight" transform="rotate(90) translate(36 -43)">
    <use xlink:href="#rim"/>
    <path pointer-events="none" fill="none" stroke="white" stroke-width="1.5" d="M0,-3.0v7 M-2.5,-0.5L0,-3.0L2.5,-0.5"/>
  </g>
  <g id="arrowDown" transform="rotate(180) translate(-30 -48)">
    <use xlink:href="#rim"/>
    <path pointer-events="none" fill="none" stroke="white" stroke-width="1.5" d="M0,-3.0v7 M-2.5,-0.5L0,-3.0L2.5,-0.5"/>
  </g>
  <g id="arrowLeft" transform="rotate(270) translate(-36 17)">
    <use xlink:href="#rim"/>
    <path pointer-events="none" fill="none" stroke="white" stroke-width="1.5" d="M0,-3.0v7 M-2.5,-0.5L0,-3.0L2.5,-0.5"/>
  </g>
  <g id="resetDef">
    <use xlink:href="#rim2" fill="#404040"><set attributeName="fill" to="#808080" begin="reset.mouseover" end="reset.mouseout"/></use>
  </g>
</defs>
<script type="application/ecmascript">
var viewWidth = 1547;
var viewHeight = 412;
var sectionId = 'dynsection-0';
</script>
<script type="application/ecmascript" xlink:href="../../svg.min.js"/>
<svg id="graph" class="graph">
<g id="viewport">
<title>src/property_store.cpp</title>
<!-- Node1 -->
<g id="Node000001" class="node">
<title>Node1</title>
<g id="a_Node000001"><a xlink:title="Implementation of the PropertyStore class.">
<polygon fill="#999999" stroke="#666666" points="698.5,-404 573.5,-404 573.5,-385 698.5,-385 698.5,-404"/>
<text text-anchor="middle" x="636" y="-392" font-family="Helvetica,sans-Serif" font-size="10.00">src/property_store.cpp</text>
</a>
</g>
</g>
<!-- Node2 -->
<g id="Node000002" class="node">
<title>Node2</title>
<g id="a_Node000002"><a xlink:href="../../d7/dd8/property__store_8hpp.html" target="_top" xlink:title="PropertyStore class for mapping symbol names to declared properties.">
<polygon fill="white" stroke="#666666" points="1294.5,-349 1185.5,-349 1185.5,-330 1294.5,-330 1294.5,-349"/>
<text text-anchor="middle" x="1240" y="-337" font-family="Helvetica,sans-Serif" font-size="10.00">property_store.hpp</text>
</a>
</g>
</g>
<!-- Node1&#45;&gt;Node2 -->
<g id="edge1_Node000001_Node000002" class="edge">
<title>Node1&#45;&gt;Node2</title>
<g id="a_edge1_Node000001_Node000002"><a xlink:title=" ">
<path fill="none" stroke="#63b8ff" d="M698.65,-388C813.77,-377.9 1057.88,-356.48 1174.85,-346.22"/>
<polygon fill="#63b8ff" stroke="#63b8ff" points="1175.43,-349.68 1185.08,-345.32 1174.81,-342.71 1175.43,-349.68"/>
</a>
</g>
</g>
<!-- Node16 -->
<g id="Node000016" class="node">
<title>Node16</title>
<g id="a_Node000016"><a xlink:title=" ">
<polygon fill="#e0e0e0" stroke="#999999" points="64,-19 0,-19 0,0 64,0 64,-19"/>
<text text-anchor="middle" x="32" y="-7" font-family="Helvetica,sans-Serif" font-size="10.00">algorithm</text>
</a>
</g>
</g>
<!-- Node1&#45;&gt;Node16 -->
<g id="edge66_Node000001_Node000016" class="edge">
<title>Node1&#45;&gt;Node16</title>
<g id="a_edge66_Node000001_Node000016"><a xlink:title=" ">
<path fill="none" stroke="#63b8ff" d="M573.35,-388.83C418.84,-376.46 32,-340.06 32,-285.5 32,-285.5 32,-285.5 32,-118.5 32,-87.19 32,-50.77 32,-29.23"/>
<polygon fill="#63b8ff" stroke="#63b8ff" points="35.5,-29.18 32,-19.18 28.5,-29.18 35.5,-29.18"/>
</a>
</g>
</g>
<!-- Node3 -->
<g id="Node000003" class="node">
<title>Node3</title>
<g id="a_Node000003"><a xlink:href="../../de/db0/assumption_8hpp.html" target="_top" xlink:title="Core enumerations and forward declarations for the Assumption System.">
<polygon fill="white" stroke="#666666" points="1363.5,-294 1268.5,-294 1268.5,-275 1363.5,-275 1363.5,-294"/>
<text text-anchor="middle" x="1316" y="-282" font-family="Helvetica,sans-Serif" font-size="10.00">assumption.hpp</text>
</a>
</g>
</g>
<!-- Node2&#45;&gt;Node3 -->
<g id="edge2_Node000002_Node000003" class="edge">
<title>Node2&#45;&gt;Node3</title>
<g id="a_edge2_Node000002_Node000003"><a xlink:title=" ">
<path fill="none" stroke="#63b8ff" d="M1252.21,-329.98C1263.78,-321.92 1281.38,-309.65 1295.16,-300.03"/>
<polygon fill="#63b8ff" stroke="#63b8ff" points="1297.37,-302.76 1303.57,-294.17 1293.36,-297.02 1297.37,-302.76"/>
</a>
</g>
</g>
<!-- Node4 -->
<g id="Node000004" class="node">
<title>Node4</title>
<g id="a_Node000004"><a xlink:href="../../dc/de2/interval_8hpp.html" target="_top" xlink:title="区间与区间并集 IntervalUnion，用于不等式解集表示。">
<polygon fill="white" stroke="#666666" points="1456.5,-294 1381.5,-294 1381.5,-275 1456.5,-275 1456.5,-294"/>
<text text-anchor="middle" x="1419" y="-282" font-family="Helvetica,sans-Serif" font-size="10.00">interval.hpp</text>
</a>
</g>
</g>
<!-- Node2&#45;&gt;Node4 -->
<g id="edge3_Node000002_Node000004" class="edge">
<title>Node2&#45;&gt;Node4</title>
<g id="a_edge3_Node000002_Node000004"><a xlink:title=" ">
<path fill="none" stroke="#63b8ff" d="M1268.76,-329.98C1298.94,-321.05 1346.57,-306.94 1380.1,-297.02"/>
<polygon fill="#63b8ff" stroke="#63b8ff" points="1381.42,-300.28 1390.02,-294.08 1379.43,-293.57 1381.42,-300.28"/>
</a>
</g>
</g>
<!-- Node11 -->
<g id="Node000011" class="node">
<title>Node11</title>
<g id="a_Node000011"><a xlink:title=" ">
<polygon fill="#e0e0e0" stroke="#999999" points="1431.5,-19 1384.5,-19 1384.5,0 1431.5,0 1431.5,-19"/>
<text text-anchor="middle" x="1408" y="-7" font-family="Helvetica,sans-Serif" font-size="10.00">vector</text>
</a>
</g>
</g>
<!-- Node2&#45;&gt;Node11 -->
<g id="edge64_Node000002_Node000011" class="edge">
<title>Node2&#45;&gt;Node11</title>
<g id="a_edge64_Node000002_Node000011"><a xlink:title=" ">
<path fill="none" stroke="#63b8ff" d="M1294.7,-338.91C1346.87,-337.01 1426.01,-328 1485,-294 1517.1,-275.5 1539,-267.55 1539,-230.5 1539,-230.5 1539,-230.5 1539,-118.5 1539,-67.82 1479.91,-36.5 1441.1,-21.4"/>
<polygon fill="#63b8ff" stroke="#63b8ff" points="1442.32,-18.11 1431.72,-17.9 1439.87,-24.67 1442.32,-18.11"/>
</a>
</g>
</g>
<!-- Node14 -->
<g id="Node000014" class="node">
<title>Node14</title>
<g id="a_Node000014"><a xlink:title=" ">
<polygon fill="#e0e0e0" stroke="#999999" points="1278,-19 1234,-19 1234,0 1278,0 1278,-19"/>
<text text-anchor="middle" x="1256" y="-7" font-family="Helvetica,sans-Serif" font-size="10.00">string</text>
</a>
</g>
</g>
<!-- Node2&#45;&gt;Node14 -->
<g id="edge60_Node000002_Node000014" class="edge">
<title>Node2&#45;&gt;Node14</title>
<g id="a_edge60_Node000002_Node000014"><a xlink:title=" ">
<path fill="none" stroke="#63b8ff" d="M1242.33,-329.74C1245.73,-317.36 1252.44,-294.14 1260,-275 1286.43,-208.07 1314.05,-199.17 1330,-129 1339.52,-87.14 1300.5,-46.52 1275.51,-25.43"/>
<polygon fill="#63b8ff" stroke="#63b8ff" points="1277.64,-22.65 1267.67,-19.06 1273.22,-28.08 1277.64,-22.65"/>
</a>
</g>
</g>
<!-- Node18 -->
<g id="Node000018" class="node">
<title>Node18</title>
<g id="a_Node000018"><a xlink:title=" ">
<polygon fill="#e0e0e0" stroke="#999999" points="1031.5,-19 966.5,-19 966.5,0 1031.5,0 1031.5,-19"/>
<text text-anchor="middle" x="999" y="-7" font-family="Helvetica,sans-Serif" font-size="10.00">stdexcept</text>
</a>
</g>
</g>
<!-- Node2&#45;&gt;Node18 -->
<g id="edge65_Node000002_Node000018" class="edge">
<title>Node2&#45;&gt;Node18</title>
<g id="a_edge65_Node000002_Node000018"><a xlink:title=" ">
<path fill="none" stroke="#63b8ff" d="M1185.22,-338.1C982.3,-335.91 285,-321.75 285,-230.5 285,-230.5 285,-230.5 285,-173.5 285,-135.58 308.37,-127.54 342,-110 458.33,-49.32 505.97,-97.76 635,-74 669.67,-67.62 677.41,-61.79 712,-55 816.83,-34.41 846.84,-37.7 956.34,-19.02"/>
<polygon fill="#63b8ff" stroke="#63b8ff" points="957.22,-22.42 966.47,-17.26 956.02,-15.52 957.22,-22.42"/>
</a>
</g>
</g>
<!-- Node30 -->
<g id="Node000030" class="node">
<title>Node30</title>
<g id="a_Node000030"><a xlink:title=" ">
<polygon fill="#e0e0e0" stroke="#999999" points="444.5,-129 351.5,-129 351.5,-110 444.5,-110 444.5,-129"/>
<text text-anchor="middle" x="398" y="-117" font-family="Helvetica,sans-Serif" font-size="10.00">unordered_map</text>
</a>
</g>
</g>
<!-- Node2&#45;&gt;Node30 -->
<g id="edge61_Node000002_Node000030" class="edge">
<title>Node2&#45;&gt;Node30</title>
<g id="a_edge61_Node000002_Node000030"><a xlink:title=" ">
<path fill="none" stroke="#63b8ff" d="M1185.42,-338.05C985.43,-336.15 302.75,-327.24 271,-294 219.65,-240.24 325.07,-165.12 374.41,-134.41"/>
<polygon fill="#63b8ff" stroke="#63b8ff" points="376.48,-137.24 383.19,-129.04 372.83,-131.27 376.48,-137.24"/>
</a>
</g>
</g>
<!-- Node31 -->
<g id="Node000031" class="node">
<title>Node31</title>
<g id="a_Node000031"><a xlink:title=" ">
<polygon fill="#e0e0e0" stroke="#999999" points="1245,-129 1159,-129 1159,-110 1245,-110 1245,-129"/>
<text text-anchor="middle" x="1202" y="-117" font-family="Helvetica,sans-Serif" font-size="10.00">unordered_set</text>
</a>
</g>
</g>
<!-- Node2&#45;&gt;Node31 -->
<g id="edge62_Node000002_Node000031" class="edge">
<title>Node2&#45;&gt;Node31</title>
<g id="a_edge62_Node000002_Node000031"><a xlink:title=" ">
<path fill="none" stroke="#63b8ff" d="M1236.77,-329.75C1233.6,-320.86 1228.84,-306.64 1226,-294 1213.53,-238.51 1206.47,-171.49 1203.57,-139.41"/>
<polygon fill="#63b8ff" stroke="#63b8ff" points="1207.04,-138.92 1202.69,-129.26 1200.07,-139.52 1207.04,-138.92"/>
</a>
</g>
</g>
<!-- Node35 -->
<g id="Node000035" class="node">
<title>Node35</title>
<g id="a_Node000035"><a xlink:title=" ">
<polygon fill="#e0e0e0" stroke="#999999" points="1511,-239 1455,-239 1455,-220 1511,-220 1511,-239"/>
<text text-anchor="middle" x="1483" y="-227" font-family="Helvetica,sans-Serif" font-size="10.00">optional</text>
</a>
</g>
</g>
<!-- Node2&#45;&gt;Node35 -->
<g id="edge63_Node000002_Node000035" class="edge">
<title>Node2&#45;&gt;Node35</title>
<g id="a_edge63_Node000002_Node000035"><a xlink:title=" ">
<path fill="none" stroke="#63b8ff" d="M1294.64,-334.32C1353.4,-328.72 1441.68,-316.74 1466,-294 1478.1,-282.68 1481.95,-263.78 1483.01,-249.53"/>
<polygon fill="#63b8ff" stroke="#63b8ff" points="1486.51,-249.46 1483.36,-239.34 1479.51,-249.21 1486.51,-249.46"/>
</a>
</g>
</g>
<!-- Node5 -->
<g id="Node000005" class="node">
<title>Node5</title>
<g id="a_Node000005"><a xlink:href="../../d5/df2/symbolic_8hpp.html" target="_top" xlink:title="符号表达式主类 SymbolicExpr 及其工厂方法、运算接口。">
<polygon fill="white" stroke="#666666" points="520,-239 438,-239 438,-220 520,-220 520,-239"/>
<text text-anchor="middle" x="479" y="-227" font-family="Helvetica,sans-Serif" font-size="10.00">symbolic.hpp</text>
</a>
</g>
</g>
<!-- Node4&#45;&gt;Node5 -->
<g id="edge4_Node000004_Node000005" class="edge">
<title>Node4&#45;&gt;Node5</title>
<g id="a_edge4_Node000004_Node000005"><a xlink:title=" ">
<path fill="none" stroke="#63b8ff" d="M1381.41,-276.13C1378.57,-275.71 1375.74,-275.32 1373,-275 1054.08,-237.76 667.6,-231.65 530.36,-230.67"/>
<polygon fill="#63b8ff" stroke="#63b8ff" points="530.17,-227.17 520.15,-230.61 530.13,-234.17 530.17,-227.17"/>
</a>
</g>
</g>
<!-- Node4&#45;&gt;Node11 -->
<g id="edge56_Node000004_Node000011" class="edge">
<title>Node4&#45;&gt;Node11</title>
<g id="a_edge56_Node000004_Node000011"><a xlink:title=" ">
<path fill="none" stroke="#63b8ff" d="M1420.08,-274.84C1422.26,-256.53 1427,-212.54 1427,-175.5 1427,-175.5 1427,-175.5 1427,-118.5 1427,-86.56 1418.84,-50.1 1413.22,-28.77"/>
<polygon fill="#63b8ff" stroke="#63b8ff" points="1416.58,-27.81 1410.56,-19.09 1409.83,-29.66 1416.58,-27.81"/>
</a>
</g>
</g>
<!-- Node4&#45;&gt;Node14 -->
<g id="edge57_Node000004_Node000014" class="edge">
<title>Node4&#45;&gt;Node14</title>
<g id="a_edge57_Node000004_Node000014"><a xlink:title=" ">
<path fill="none" stroke="#63b8ff" d="M1417.98,-274.67C1413.66,-241.18 1393.87,-120.57 1327,-55 1314.26,-42.5 1297.42,-31.77 1283.34,-23.97"/>
<polygon fill="#63b8ff" stroke="#63b8ff" points="1284.59,-20.67 1274.12,-19.06 1281.3,-26.85 1284.59,-20.67"/>
</a>
</g>
</g>
<!-- Node27 -->
<g id="Node000027" class="node">
<title>Node27</title>
<g id="a_Node000027"><a xlink:title=" ">
<polygon fill="#e0e0e0" stroke="#999999" points="1321,-129 1263,-129 1263,-110 1321,-110 1321,-129"/>
<text text-anchor="middle" x="1292" y="-117" font-family="Helvetica,sans-Serif" font-size="10.00">memory</text>
</a>
</g>
</g>
<!-- Node4&#45;&gt;Node27 -->
<g id="edge58_Node000004_Node000027" class="edge">
<title>Node4&#45;&gt;Node27</title>
<g id="a_edge58_Node000004_Node000027"><a xlink:title=" ">
<path fill="none" stroke="#63b8ff" d="M1408.91,-274.83C1399.19,-266.22 1384.32,-252.42 1373,-239 1344.61,-205.35 1316.83,-161.71 1302.34,-137.9"/>
<polygon fill="#63b8ff" stroke="#63b8ff" points="1305.29,-136.02 1297.14,-129.26 1299.3,-139.63 1305.29,-136.02"/>
</a>
</g>
</g>
<!-- Node4&#45;&gt;Node35 -->
<g id="edge59_Node000004_Node000035" class="edge">
<title>Node4&#45;&gt;Node35</title>
<g id="a_edge59_Node000004_Node000035"><a xlink:title=" ">
<path fill="none" stroke="#63b8ff" d="M1429.28,-274.98C1438.84,-267.07 1453.28,-255.11 1464.78,-245.58"/>
<polygon fill="#63b8ff" stroke="#63b8ff" points="1467.06,-248.24 1472.53,-239.17 1462.6,-242.85 1467.06,-248.24"/>
</a>
</g>
</g>
<!-- Node6 -->
<g id="Node000006" class="node">
<title>Node6</title>
<g id="a_Node000006"><a xlink:href="../../d8/d09/bigint_8hpp.html" target="_top" xlink:title="任意精度整数 BigInt，底层调用 LAMMP 实现高性能大数运算。">
<polygon fill="white" stroke="#666666" points="626.5,-74 561.5,-74 561.5,-55 626.5,-55 626.5,-74"/>
<text text-anchor="middle" x="594" y="-62" font-family="Helvetica,sans-Serif" font-size="10.00">bigint.hpp</text>
</a>
</g>
</g>
<!-- Node5&#45;&gt;Node6 -->
<g id="edge5_Node000005_Node000006" class="edge">
<title>Node5&#45;&gt;Node6</title>
<g id="a_edge5_Node000005_Node000006"><a xlink:title=" ">
<path fill="none" stroke="#63b8ff" d="M437.72,-227.38C405.86,-224.07 363.68,-213.84 342,-184 322.67,-157.39 320.86,-135.2 342,-110 368.17,-78.81 486.05,-69.47 550.9,-66.68"/>
<polygon fill="#63b8ff" stroke="#63b8ff" points="551.36,-70.17 561.21,-66.27 551.08,-63.17 551.36,-70.17"/>
</a>
</g>
</g>
<!-- Node12 -->
<g id="Node000012" class="node">
<title>Node12</title>
<g id="a_Node000012"><a xlink:title=" ">
<polygon fill="#e0e0e0" stroke="#999999" points="271.5,-19 222.5,-19 222.5,0 271.5,0 271.5,-19"/>
<text text-anchor="middle" x="247" y="-7" font-family="Helvetica,sans-Serif" font-size="10.00">cstdlib</text>
</a>
</g>
</g>
<!-- Node5&#45;&gt;Node12 -->
<g id="edge55_Node000005_Node000012" class="edge">
<title>Node5&#45;&gt;Node12</title>
<g id="a_edge55_Node000005_Node000012"><a xlink:title=" ">
<path fill="none" stroke="#63b8ff" d="M437.76,-225.55C404.65,-221.2 358.77,-210.46 328,-184 279.33,-142.14 258,-64.71 250.45,-29.19"/>
<polygon fill="#63b8ff" stroke="#63b8ff" points="253.85,-28.36 248.47,-19.23 246.99,-29.72 253.85,-28.36"/>
</a>
</g>
</g>
<!-- Node5&#45;&gt;Node14 -->
<g id="edge47_Node000005_Node000014" class="edge">
<title>Node5&#45;&gt;Node14</title>
<g id="a_edge47_Node000005_Node000014"><a xlink:title=" ">
<path fill="none" stroke="#63b8ff" d="M520.21,-226.51C594.27,-222.37 754.5,-210.9 887,-184 970.23,-167.1 988.93,-154.29 1070,-129 1088.95,-123.09 1226.43,-88.49 1240,-74 1251.28,-61.95 1254.91,-43.14 1255.94,-29.12"/>
<polygon fill="#63b8ff" stroke="#63b8ff" points="1259.44,-29.24 1256.31,-19.12 1252.44,-28.98 1259.44,-29.24"/>
</a>
</g>
</g>
<!-- Node15 -->
<g id="Node000015" class="node">
<title>Node15</title>
<g id="a_Node000015"><a xlink:title=" ">
<polygon fill="#e0e0e0" stroke="#999999" points="142,-19 82,-19 82,0 142,0 142,-19"/>
<text text-anchor="middle" x="112" y="-7" font-family="Helvetica,sans-Serif" font-size="10.00">iostream</text>
</a>
</g>
</g>
<!-- Node5&#45;&gt;Node15 -->
<g id="edge54_Node000005_Node000015" class="edge">
<title>Node5&#45;&gt;Node15</title>
<g id="a_edge54_Node000005_Node000015"><a xlink:title=" ">
<path fill="none" stroke="#63b8ff" d="M437.89,-226.1C396.06,-222.15 330.51,-211.68 281,-184 208.87,-143.67 147.89,-63.01 123.45,-27.71"/>
<polygon fill="#63b8ff" stroke="#63b8ff" points="126.06,-25.33 117.54,-19.03 120.27,-29.27 126.06,-25.33"/>
</a>
</g>
</g>
<!-- Node5&#45;&gt;Node16 -->
<g id="edge51_Node000005_Node000016" class="edge">
<title>Node5&#45;&gt;Node16</title>
<g id="a_edge51_Node000005_Node000016"><a xlink:title=" ">
<path fill="none" stroke="#63b8ff" d="M437.91,-226.41C390.63,-222.69 311.6,-212.41 250,-184 162.57,-143.68 79.31,-61.17 46.59,-26.46"/>
<polygon fill="#63b8ff" stroke="#63b8ff" points="49.09,-24.01 39.72,-19.07 43.97,-28.78 49.09,-24.01"/>
</a>
</g>
</g>
<!-- Node19 -->
<g id="Node000019" class="node">
<title>Node19</title>
<g id="a_Node000019"><a xlink:title=" ">
<polygon fill="#e0e0e0" stroke="#999999" points="204,-19 160,-19 160,0 204,0 204,-19"/>
<text text-anchor="middle" x="182" y="-7" font-family="Helvetica,sans-Serif" font-size="10.00">limits</text>
</a>
</g>
</g>
<!-- Node5&#45;&gt;Node19 -->
<g id="edge50_Node000005_Node000019" class="edge">
<title>Node5&#45;&gt;Node19</title>
<g id="a_edge50_Node000005_Node000019"><a xlink:title=" ">
<path fill="none" stroke="#63b8ff" d="M437.88,-225.75C400.84,-221.54 346.34,-210.9 307,-184 247.31,-143.18 206.09,-64.04 189.79,-28.52"/>
<polygon fill="#63b8ff" stroke="#63b8ff" points="192.97,-27.06 185.69,-19.36 186.58,-29.91 192.97,-27.06"/>
</a>
</g>
</g>
<!-- Node21 -->
<g id="Node000021" class="node">
<title>Node21</title>
<g id="a_Node000021"><a xlink:href="../../d1/de8/rational_8hpp.html" target="_top" xlink:title="精确有理数 Rational，基于 BigInt 分子/分母表示，自动约分。">
<polygon fill="white" stroke="#666666" points="988.5,-129 913.5,-129 913.5,-110 988.5,-110 988.5,-129"/>
<text text-anchor="middle" x="951" y="-117" font-family="Helvetica,sans-Serif" font-size="10.00">rational.hpp</text>
</a>
</g>
</g>
<!-- Node5&#45;&gt;Node21 -->
<g id="edge20_Node000005_Node000021" class="edge">
<title>Node5&#45;&gt;Node21</title>
<g id="a_edge20_Node000005_Node000021"><a xlink:title=" ">
<path fill="none" stroke="#63b8ff" d="M520.22,-226C604.44,-220.49 793.39,-206.05 854,-184 884.54,-172.89 915.13,-150.54 933.57,-135.55"/>
<polygon fill="#63b8ff" stroke="#63b8ff" points="935.93,-138.14 941.37,-129.05 931.44,-132.76 935.93,-138.14"/>
</a>
</g>
</g>
<!-- Node24 -->
<g id="Node000024" class="node">
<title>Node24</title>
<g id="a_Node000024"><a xlink:title=" ">
<polygon fill="#e0e0e0" stroke="#999999" points="759,-74 721,-74 721,-55 759,-55 759,-74"/>
<text text-anchor="middle" x="740" y="-62" font-family="Helvetica,sans-Serif" font-size="10.00">map</text>
</a>
</g>
</g>
<!-- Node5&#45;&gt;Node24 -->
<g id="edge52_Node000005_Node000024" class="edge">
<title>Node5&#45;&gt;Node24</title>
<g id="a_edge52_Node000005_Node000024"><a xlink:title=" ">
<path fill="none" stroke="#63b8ff" d="M481.76,-219.74C484.42,-210.85 488.29,-196.62 490,-184 490.55,-179.92 489.3,-113.1 492,-110 523.8,-73.45 659.61,-84.05 707,-74 708.27,-73.73 709.56,-73.45 710.87,-73.15"/>
<polygon fill="#63b8ff" stroke="#63b8ff" points="711.98,-76.48 720.87,-70.72 710.33,-69.68 711.98,-76.48"/>
</a>
</g>
</g>
<!-- Node26 -->
<g id="Node000026" class="node">
<title>Node26</title>
<g id="a_Node000026"><a xlink:href="../../d9/d89/symbolic__ast_8hpp.html" target="_top" xlink:title="AST 节点定义：NumberNode, VariableNode, AddNode, MultiplyNode, PowerNode, FunctionNode,...">
<polygon fill="white" stroke="#666666" points="845,-184 743,-184 743,-165 845,-165 845,-184"/>
<text text-anchor="middle" x="794" y="-172" font-family="Helvetica,sans-Serif" font-size="10.00">symbolic_ast.hpp</text>
</a>
</g>
</g>
<!-- Node5&#45;&gt;Node26 -->
<g id="edge30_Node000005_Node000026" class="edge">
<title>Node5&#45;&gt;Node26</title>
<g id="a_edge30_Node000005_Node000026"><a xlink:title=" ">
<path fill="none" stroke="#63b8ff" d="M520.18,-221.57C574.52,-212.43 670.61,-196.26 733.29,-185.71"/>
<polygon fill="#63b8ff" stroke="#63b8ff" points="734.15,-189.12 743.43,-184.01 732.99,-182.22 734.15,-189.12"/>
</a>
</g>
</g>
<!-- Node5&#45;&gt;Node27 -->
<g id="edge46_Node000005_Node000027" class="edge">
<title>Node5&#45;&gt;Node27</title>
<g id="a_edge46_Node000005_Node000027"><a xlink:title=" ">
<path fill="none" stroke="#63b8ff" d="M520.27,-229.25C621.43,-230.3 889.3,-228.29 1107,-184 1163.88,-172.43 1227.28,-148 1263.13,-133.04"/>
<polygon fill="#63b8ff" stroke="#63b8ff" points="1264.64,-136.21 1272.49,-129.09 1261.91,-129.76 1264.64,-136.21"/>
</a>
</g>
</g>
<!-- Node28 -->
<g id="Node000028" class="node">
<title>Node28</title>
<g id="a_Node000028"><a xlink:title=" ">
<polygon fill="#e0e0e0" stroke="#999999" points="552.5,-129 501.5,-129 501.5,-110 552.5,-110 552.5,-129"/>
<text text-anchor="middle" x="527" y="-117" font-family="Helvetica,sans-Serif" font-size="10.00">variant</text>
</a>
</g>
</g>
<!-- Node5&#45;&gt;Node28 -->
<g id="edge48_Node000005_Node000028" class="edge">
<title>Node5&#45;&gt;Node28</title>
<g id="a_edge48_Node000005_Node000028"><a xlink:title=" ">
<path fill="none" stroke="#63b8ff" d="M491.88,-219.99C502.61,-212.08 517.2,-199.26 524,-184 530.25,-169.96 530.59,-152.42 529.6,-139.32"/>
<polygon fill="#63b8ff" stroke="#63b8ff" points="533.06,-138.73 528.5,-129.17 526.1,-139.49 533.06,-138.73"/>
</a>
</g>
</g>
<!-- Node33 -->
<g id="Node000033" class="node">
<title>Node33</title>
<g id="a_Node000033"><a xlink:title=" ">
<polygon fill="#e0e0e0" stroke="#999999" points="398.5,-184 351.5,-184 351.5,-165 398.5,-165 398.5,-184"/>
<text text-anchor="middle" x="375" y="-172" font-family="Helvetica,sans-Serif" font-size="10.00">cmath</text>
</a>
</g>
</g>
<!-- Node5&#45;&gt;Node33 -->
<g id="edge49_Node000005_Node000033" class="edge">
<title>Node5&#45;&gt;Node33</title>
<g id="a_edge49_Node000005_Node000033"><a xlink:title=" ">
<path fill="none" stroke="#63b8ff" d="M462.29,-219.98C445.79,-211.57 420.3,-198.59 401.12,-188.81"/>
<polygon fill="#63b8ff" stroke="#63b8ff" points="402.51,-185.59 392.01,-184.17 399.33,-191.83 402.51,-185.59"/>
</a>
</g>
</g>
<!-- Node34 -->
<g id="Node000034" class="node">
<title>Node34</title>
<g id="a_Node000034"><a xlink:title=" ">
<polygon fill="#e0e0e0" stroke="#999999" points="481.5,-184 416.5,-184 416.5,-165 481.5,-165 481.5,-184"/>
<text text-anchor="middle" x="449" y="-172" font-family="Helvetica,sans-Serif" font-size="10.00">functional</text>
</a>
</g>
</g>
<!-- Node5&#45;&gt;Node34 -->
<g id="edge53_Node000005_Node000034" class="edge">
<title>Node5&#45;&gt;Node34</title>
<g id="a_edge53_Node000005_Node000034"><a xlink:title=" ">
<path fill="none" stroke="#63b8ff" d="M474.05,-219.75C469.94,-212.49 463.97,-201.95 458.9,-192.98"/>
<polygon fill="#63b8ff" stroke="#63b8ff" points="461.83,-191.07 453.86,-184.09 455.74,-194.52 461.83,-191.07"/>
</a>
</g>
</g>
<!-- Node7 -->
<g id="Node000007" class="node">
<title>Node7</title>
<g id="a_Node000007"><a xlink:title=" ">
<polygon fill="#e0e0e0" stroke="#999999" points="770,-19 678,-19 678,0 770,0 770,-19"/>
<text text-anchor="middle" x="724" y="-7" font-family="Helvetica,sans-Serif" font-size="10.00">lammp/lmmp.h</text>
</a>
</g>
</g>
<!-- Node6&#45;&gt;Node7 -->
<g id="edge6_Node000006_Node000007" class="edge">
<title>Node6&#45;&gt;Node7</title>
<g id="a_edge6_Node000006_Node000007"><a xlink:title=" ">
<path fill="none" stroke="#63b8ff" d="M614.89,-54.98C636.08,-46.34 669.13,-32.87 693.3,-23.02"/>
<polygon fill="#63b8ff" stroke="#63b8ff" points="694.79,-26.19 702.73,-19.17 692.15,-19.7 694.79,-26.19"/>
</a>
</g>
</g>
<!-- Node8 -->
<g id="Node000008" class="node">
<title>Node8</title>
<g id="a_Node000008"><a xlink:title=" ">
<polygon fill="#e0e0e0" stroke="#999999" points="388,-19 290,-19 290,0 388,0 388,-19"/>
<text text-anchor="middle" x="339" y="-7" font-family="Helvetica,sans-Serif" font-size="10.00">lammp/lmmpn.h</text>
</a>
</g>
</g>
<!-- Node6&#45;&gt;Node8 -->
<g id="edge7_Node000006_Node000008" class="edge">
<title>Node6&#45;&gt;Node8</title>
<g id="a_edge7_Node000006_Node000008"><a xlink:title=" ">
<path fill="none" stroke="#63b8ff" d="M561.45,-56.73C518.14,-47.73 441.14,-31.73 390.06,-21.11"/>
<polygon fill="#63b8ff" stroke="#63b8ff" points="390.72,-17.67 380.21,-19.07 389.29,-24.53 390.72,-17.67"/>
</a>
</g>
</g>
<!-- Node9 -->
<g id="Node000009" class="node">
<title>Node9</title>
<g id="a_Node000009"><a xlink:title=" ">
<polygon fill="#e0e0e0" stroke="#999999" points="501.5,-19 406.5,-19 406.5,0 501.5,0 501.5,-19"/>
<text text-anchor="middle" x="454" y="-7" font-family="Helvetica,sans-Serif" font-size="10.00">lammp/numth.h</text>
</a>
</g>
</g>
<!-- Node6&#45;&gt;Node9 -->
<g id="edge8_Node000006_Node000009" class="edge">
<title>Node6&#45;&gt;Node9</title>
<g id="a_edge8_Node000006_Node000009"><a xlink:title=" ">
<path fill="none" stroke="#63b8ff" d="M571.51,-54.98C548.48,-46.27 512.46,-32.63 486.37,-22.75"/>
<polygon fill="#63b8ff" stroke="#63b8ff" points="487.49,-19.44 476.9,-19.17 485.02,-25.98 487.49,-19.44"/>
</a>
</g>
</g>
<!-- Node10 -->
<g id="Node000010" class="node">
<title>Node10</title>
<g id="a_Node000010"><a xlink:title=" ">
<polygon fill="#e0e0e0" stroke="#999999" points="592,-19 520,-19 520,0 592,0 592,-19"/>
<text text-anchor="middle" x="556" y="-7" font-family="Helvetica,sans-Serif" font-size="10.00">lmmc/init.h</text>
</a>
</g>
</g>
<!-- Node6&#45;&gt;Node10 -->
<g id="edge9_Node000006_Node000010" class="edge">
<title>Node6&#45;&gt;Node10</title>
<g id="a_edge9_Node000006_Node000010"><a xlink:title=" ">
<path fill="none" stroke="#63b8ff" d="M587.73,-54.75C582.41,-47.34 574.64,-36.5 568.12,-27.41"/>
<polygon fill="#63b8ff" stroke="#63b8ff" points="570.83,-25.18 562.16,-19.09 565.14,-29.26 570.83,-25.18"/>
</a>
</g>
</g>
<!-- Node6&#45;&gt;Node11 -->
<g id="edge10_Node000006_Node000011" class="edge">
<title>Node6&#45;&gt;Node11</title>
<g id="a_edge10_Node000006_Node000011"><a xlink:title=" ">
<path fill="none" stroke="#63b8ff" d="M626.55,-61.07C650.24,-59.33 683.11,-56.95 712,-55 967.48,-37.8 1031.51,-35.97 1287,-19 1316.47,-17.04 1349.96,-14.68 1374.23,-12.94"/>
<polygon fill="#63b8ff" stroke="#63b8ff" points="1374.63,-16.42 1384.35,-12.21 1374.13,-9.44 1374.63,-16.42"/>
</a>
</g>
</g>
<!-- Node6&#45;&gt;Node12 -->
<g id="edge11_Node000006_Node000012" class="edge">
<title>Node6&#45;&gt;Node12</title>
<g id="a_edge11_Node000006_Node000012"><a xlink:title=" ">
<path fill="none" stroke="#63b8ff" d="M561.37,-59.99C505.98,-53.79 389.85,-39.74 281.9,-18.98"/>
<polygon fill="#63b8ff" stroke="#63b8ff" points="282.3,-15.5 271.82,-17.02 280.96,-22.37 282.3,-15.5"/>
</a>
</g>
</g>
<!-- Node13 -->
<g id="Node000013" class="node">
<title>Node13</title>
<g id="a_Node000013"><a xlink:title=" ">
<polygon fill="#e0e0e0" stroke="#999999" points="660,-19 610,-19 610,0 660,0 660,-19"/>
<text text-anchor="middle" x="635" y="-7" font-family="Helvetica,sans-Serif" font-size="10.00">cstring</text>
</a>
</g>
</g>
<!-- Node6&#45;&gt;Node13 -->
<g id="edge12_Node000006_Node000013" class="edge">
<title>Node6&#45;&gt;Node13</title>
<g id="a_edge12_Node000006_Node000013"><a xlink:title=" ">
<path fill="none" stroke="#63b8ff" d="M600.77,-54.75C606.56,-47.26 615.06,-36.28 622.14,-27.13"/>
<polygon fill="#63b8ff" stroke="#63b8ff" points="625.01,-29.14 628.36,-19.09 619.47,-24.86 625.01,-29.14"/>
</a>
</g>
</g>
<!-- Node6&#45;&gt;Node14 -->
<g id="edge13_Node000006_Node000014" class="edge">
<title>Node6&#45;&gt;Node14</title>
<g id="a_edge13_Node000006_Node000014"><a xlink:title=" ">
<path fill="none" stroke="#63b8ff" d="M626.83,-60.87C739.8,-51.83 1111.74,-22.05 1223.78,-13.08"/>
<polygon fill="#63b8ff" stroke="#63b8ff" points="1224.1,-16.56 1233.79,-12.28 1223.54,-9.59 1224.1,-16.56"/>
</a>
</g>
</g>
<!-- Node6&#45;&gt;Node15 -->
<g id="edge14_Node000006_Node000015" class="edge">
<title>Node6&#45;&gt;Node15</title>
<g id="a_edge14_Node000006_Node000015"><a xlink:title=" ">
<path fill="none" stroke="#63b8ff" d="M561.32,-61.5C489.23,-56.82 311,-43.75 152.12,-19"/>
<polygon fill="#63b8ff" stroke="#63b8ff" points="152.59,-15.53 142.17,-17.43 151.5,-22.45 152.59,-15.53"/>
</a>
</g>
</g>
<!-- Node6&#45;&gt;Node16 -->
<g id="edge15_Node000006_Node000016" class="edge">
<title>Node6&#45;&gt;Node16</title>
<g id="a_edge15_Node000006_Node000016"><a xlink:title=" ">
<path fill="none" stroke="#63b8ff" d="M561.23,-62.06C480.28,-58.21 264.25,-46.19 74.33,-19.02"/>
<polygon fill="#63b8ff" stroke="#63b8ff" points="74.56,-15.52 64.16,-17.55 73.56,-22.44 74.56,-15.52"/>
</a>
</g>
</g>
<!-- Node17 -->
<g id="Node000017" class="node">
<title>Node17</title>
<g id="a_Node000017"><a xlink:title=" ">
<polygon fill="#e0e0e0" stroke="#999999" points="948,-19 892,-19 892,0 948,0 948,-19"/>
<text text-anchor="middle" x="920" y="-7" font-family="Helvetica,sans-Serif" font-size="10.00">iomanip</text>
</a>
</g>
</g>
<!-- Node6&#45;&gt;Node17 -->
<g id="edge16_Node000006_Node000017" class="edge">
<title>Node6&#45;&gt;Node17</title>
<g id="a_edge16_Node000006_Node000017"><a xlink:title=" ">
<path fill="none" stroke="#63b8ff" d="M626.64,-59.27C678.54,-52.36 783.26,-37.73 881.65,-19.14"/>
<polygon fill="#63b8ff" stroke="#63b8ff" points="882.6,-22.52 891.76,-17.21 881.28,-15.65 882.6,-22.52"/>
</a>
</g>
</g>
<!-- Node6&#45;&gt;Node18 -->
<g id="edge17_Node000006_Node000018" class="edge">
<title>Node6&#45;&gt;Node18</title>
<g id="a_edge17_Node000006_Node000018"><a xlink:title=" ">
<path fill="none" stroke="#63b8ff" d="M626.66,-60.36C688.78,-54.19 828.4,-39.45 956.5,-18.95"/>
<polygon fill="#63b8ff" stroke="#63b8ff" points="957.17,-22.39 966.49,-17.34 956.06,-15.48 957.17,-22.39"/>
</a>
</g>
</g>
<!-- Node6&#45;&gt;Node19 -->
<g id="edge18_Node000006_Node000019" class="edge">
<title>Node6&#45;&gt;Node19</title>
<g id="a_edge18_Node000006_Node000019"><a xlink:title=" ">
<path fill="none" stroke="#63b8ff" d="M561.38,-61.36C496.82,-56.77 348.13,-44.43 214.28,-18.97"/>
<polygon fill="#63b8ff" stroke="#63b8ff" points="214.74,-15.5 204.26,-17.04 213.41,-22.37 214.74,-15.5"/>
</a>
</g>
</g>
<!-- Node20 -->
<g id="Node000020" class="node">
<title>Node20</title>
<g id="a_Node000020"><a xlink:title=" ">
<polygon fill="#e0e0e0" stroke="#999999" points="874,-19 788,-19 788,0 874,0 874,-19"/>
<text text-anchor="middle" x="831" y="-7" font-family="Helvetica,sans-Serif" font-size="10.00">lmmc/config.h</text>
</a>
</g>
</g>
<!-- Node6&#45;&gt;Node20 -->
<g id="edge19_Node000006_Node000020" class="edge">
<title>Node6&#45;&gt;Node20</title>
<g id="a_edge19_Node000006_Node000020"><a xlink:title=" ">
<path fill="none" stroke="#63b8ff" d="M626.95,-56.13C667.48,-47.07 736.59,-31.61 783.01,-21.23"/>
<polygon fill="#63b8ff" stroke="#63b8ff" points="783.84,-24.63 792.84,-19.03 782.32,-17.8 783.84,-24.63"/>
</a>
</g>
</g>
<!-- Node21&#45;&gt;Node6 -->
<g id="edge23_Node000021_Node000006" class="edge">
<title>Node21&#45;&gt;Node6</title>
<g id="a_edge23_Node000021_Node000006"><a xlink:title=" ">
<path fill="none" stroke="#63b8ff" d="M913.47,-112.93C846.63,-103.01 707.41,-82.34 636.9,-71.87"/>
<polygon fill="#63b8ff" stroke="#63b8ff" points="637.01,-68.35 626.6,-70.34 635.98,-75.27 637.01,-68.35"/>
</a>
</g>
</g>
<!-- Node21&#45;&gt;Node14 -->
<g id="edge27_Node000021_Node000014" class="edge">
<title>Node21&#45;&gt;Node14</title>
<g id="a_edge27_Node000021_Node000014"><a xlink:title=" ">
<path fill="none" stroke="#63b8ff" d="M974.81,-109.85C998.03,-101.26 1034.25,-87.47 1065,-74 1082.66,-66.27 1086.02,-61.96 1104,-55 1144.55,-39.32 1193,-26.03 1224.12,-18.16"/>
<polygon fill="#63b8ff" stroke="#63b8ff" points="1225.11,-21.52 1233.97,-15.71 1223.42,-14.73 1225.11,-21.52"/>
</a>
</g>
</g>
<!-- Node21&#45;&gt;Node17 -->
<g id="edge24_Node000021_Node000017" class="edge">
<title>Node21&#45;&gt;Node17</title>
<g id="a_edge24_Node000021_Node000017"><a xlink:title=" ">
<path fill="none" stroke="#63b8ff" d="M929.21,-109.87C914.36,-102.69 895.84,-90.91 887,-74 878.52,-57.77 890.74,-39.18 902.64,-26.32"/>
<polygon fill="#63b8ff" stroke="#63b8ff" points="905.23,-28.68 909.82,-19.13 900.28,-23.74 905.23,-28.68"/>
</a>
</g>
</g>
<!-- Node21&#45;&gt;Node18 -->
<g id="edge26_Node000021_Node000018" class="edge">
<title>Node21&#45;&gt;Node18</title>
<g id="a_edge26_Node000021_Node000018"><a xlink:title=" ">
<path fill="none" stroke="#63b8ff" d="M941.05,-109.66C928.27,-97.19 908.98,-73.85 920,-55 928.68,-40.14 944.35,-29.86 959.46,-22.95"/>
<polygon fill="#63b8ff" stroke="#63b8ff" points="960.85,-26.17 968.73,-19.08 958.15,-19.71 960.85,-26.17"/>
</a>
</g>
</g>
<!-- Node21&#45;&gt;Node20 -->
<g id="edge21_Node000021_Node000020" class="edge">
<title>Node21&#45;&gt;Node20</title>
<g id="a_edge21_Node000021_Node000020"><a xlink:title=" ">
<path fill="none" stroke="#63b8ff" d="M934.06,-109.86C919.16,-101.78 897.34,-88.78 881,-74 865.61,-60.09 851.31,-41.06 841.99,-27.47"/>
<polygon fill="#63b8ff" stroke="#63b8ff" points="844.83,-25.43 836.37,-19.06 839.01,-29.32 844.83,-25.43"/>
</a>
</g>
</g>
<!-- Node22 -->
<g id="Node000022" class="node">
<title>Node22</title>
<g id="a_Node000022"><a xlink:title=" ">
<polygon fill="#e0e0e0" stroke="#999999" points="1209,-74 1113,-74 1113,-55 1209,-55 1209,-74"/>
<text text-anchor="middle" x="1161" y="-62" font-family="Helvetica,sans-Serif" font-size="10.00">lmmc/numeric.h</text>
</a>
</g>
</g>
<!-- Node21&#45;&gt;Node22 -->
<g id="edge22_Node000021_Node000022" class="edge">
<title>Node21&#45;&gt;Node22</title>
<g id="a_edge22_Node000021_Node000022"><a xlink:title=" ">
<path fill="none" stroke="#63b8ff" d="M984.74,-109.98C1020.68,-100.91 1077.72,-86.52 1117.13,-76.57"/>
<polygon fill="#63b8ff" stroke="#63b8ff" points="1118.16,-79.92 1127,-74.08 1116.44,-73.14 1118.16,-79.92"/>
</a>
</g>
</g>
<!-- Node23 -->
<g id="Node000023" class="node">
<title>Node23</title>
<g id="a_Node000023"><a xlink:title=" ">
<polygon fill="#e0e0e0" stroke="#999999" points="985,-74 929,-74 929,-55 985,-55 985,-74"/>
<text text-anchor="middle" x="957" y="-62" font-family="Helvetica,sans-Serif" font-size="10.00">sstream</text>
</a>
</g>
</g>
<!-- Node21&#45;&gt;Node23 -->
<g id="edge25_Node000021_Node000023" class="edge">
<title>Node21&#45;&gt;Node23</title>
<g id="a_edge25_Node000021_Node000023"><a xlink:title=" ">
<path fill="none" stroke="#63b8ff" d="M951.99,-109.75C952.78,-102.8 953.9,-92.85 954.89,-84.13"/>
<polygon fill="#63b8ff" stroke="#63b8ff" points="958.38,-84.42 956.03,-74.09 951.42,-83.63 958.38,-84.42"/>
</a>
</g>
</g>
<!-- Node21&#45;&gt;Node24 -->
<g id="edge28_Node000021_Node000024" class="edge">
<title>Node21&#45;&gt;Node24</title>
<g id="a_edge28_Node000021_Node000024"><a xlink:title=" ">
<path fill="none" stroke="#63b8ff" d="M916.53,-109.96C880.65,-101.05 822.86,-86.65 773,-74 771.74,-73.68 770.46,-73.35 769.16,-73.02"/>
<polygon fill="#63b8ff" stroke="#63b8ff" points="769.74,-69.56 759.19,-70.47 768.01,-76.34 769.74,-69.56"/>
</a>
</g>
</g>
<!-- Node25 -->
<g id="Node000025" class="node">
<title>Node25</title>
<g id="a_Node000025"><a xlink:title=" ">
<polygon fill="#e0e0e0" stroke="#999999" points="1056.5,-74 1003.5,-74 1003.5,-55 1056.5,-55 1056.5,-74"/>
<text text-anchor="middle" x="1030" y="-62" font-family="Helvetica,sans-Serif" font-size="10.00">stdint.h</text>
</a>
</g>
</g>
<!-- Node21&#45;&gt;Node25 -->
<g id="edge29_Node000021_Node000025" class="edge">
<title>Node21&#45;&gt;Node25</title>
<g id="a_edge29_Node000021_Node000025"><a xlink:title=" ">
<path fill="none" stroke="#63b8ff" d="M963.69,-109.98C975.83,-101.84 994.36,-89.41 1008.75,-79.76"/>
<polygon fill="#63b8ff" stroke="#63b8ff" points="1010.72,-82.65 1017.08,-74.17 1006.82,-76.84 1010.72,-82.65"/>
</a>
</g>
</g>
<!-- Node26&#45;&gt;Node6 -->
<g id="edge40_Node000026_Node000006" class="edge">
<title>Node26&#45;&gt;Node6</title>
<g id="a_edge40_Node000026_Node000006"><a xlink:title=" ">
<path fill="none" stroke="#63b8ff" d="M742.99,-166.63C711.99,-160.57 672.77,-149.37 643,-129 625.82,-117.24 611.99,-97.56 603.46,-83.22"/>
<polygon fill="#63b8ff" stroke="#63b8ff" points="606.4,-81.29 598.43,-74.31 600.3,-84.74 606.4,-81.29"/>
</a>
</g>
</g>
<!-- Node26&#45;&gt;Node11 -->
<g id="edge32_Node000026_Node000011" class="edge">
<title>Node26&#45;&gt;Node11</title>
<g id="a_edge32_Node000026_Node000011"><a xlink:title=" ">
<path fill="none" stroke="#63b8ff" d="M845.08,-167.64C900.83,-160.7 992.5,-147.67 1070,-129 1147.2,-110.4 1165.06,-100.27 1240,-74 1288,-57.17 1343.04,-36.01 1376.66,-22.87"/>
<polygon fill="#63b8ff" stroke="#63b8ff" points="1378.34,-25.97 1386.38,-19.06 1375.79,-19.45 1378.34,-25.97"/>
</a>
</g>
</g>
<!-- Node26&#45;&gt;Node14 -->
<g id="edge33_Node000026_Node000014" class="edge">
<title>Node26&#45;&gt;Node14</title>
<g id="a_edge33_Node000026_Node000014"><a xlink:title=" ">
<path fill="none" stroke="#63b8ff" d="M845.08,-167.12C893.97,-160.29 969.46,-147.81 1033,-129 1054.21,-122.72 1058.02,-117.01 1079,-110 1139.52,-89.77 1166.91,-112.24 1218,-74 1233.23,-62.6 1243.55,-43.15 1249.55,-28.77"/>
<polygon fill="#63b8ff" stroke="#63b8ff" points="1252.84,-29.97 1253.16,-19.38 1246.31,-27.46 1252.84,-29.97"/>
</a>
</g>
</g>
<!-- Node26&#45;&gt;Node16 -->
<g id="edge35_Node000026_Node000016" class="edge">
<title>Node26&#45;&gt;Node16</title>
<g id="a_edge35_Node000026_Node000016"><a xlink:title=" ">
<path fill="none" stroke="#63b8ff" d="M757.84,-164.93C722.52,-156.41 667.33,-142.66 620,-129 593.53,-121.36 587.71,-116.76 561,-110 350.36,-56.67 291.25,-61.46 74.33,-19.22"/>
<polygon fill="#63b8ff" stroke="#63b8ff" points="74.7,-15.73 64.22,-17.24 73.36,-22.6 74.7,-15.73"/>
</a>
</g>
</g>
<!-- Node26&#45;&gt;Node18 -->
<g id="edge43_Node000026_Node000018" class="edge">
<title>Node26&#45;&gt;Node18</title>
<g id="a_edge43_Node000026_Node000018"><a xlink:title=" ">
<path fill="none" stroke="#63b8ff" d="M812.74,-164.9C828.29,-157.11 850.32,-144.49 866,-129 893.72,-101.62 884.26,-81.31 913,-55 928.03,-41.24 948.11,-30.54 965.08,-23.08"/>
<polygon fill="#63b8ff" stroke="#63b8ff" points="966.79,-26.16 974.66,-19.06 964.08,-19.7 966.79,-26.16"/>
</a>
</g>
</g>
<!-- Node26&#45;&gt;Node20 -->
<g id="edge41_Node000026_Node000020" class="edge">
<title>Node26&#45;&gt;Node20</title>
<g id="a_edge41_Node000026_Node000020"><a xlink:title=" ">
<path fill="none" stroke="#63b8ff" d="M758.56,-164.99C739.74,-158.48 718.24,-147.38 707,-129 698.48,-115.06 694.65,-77.73 712,-55 721.47,-42.59 756.83,-30.31 786.56,-21.8"/>
<polygon fill="#63b8ff" stroke="#63b8ff" points="787.69,-25.12 796.38,-19.06 785.81,-18.37 787.69,-25.12"/>
</a>
</g>
</g>
<!-- Node26&#45;&gt;Node21 -->
<g id="edge39_Node000026_Node000021" class="edge">
<title>Node26&#45;&gt;Node21</title>
<g id="a_edge39_Node000026_Node000021"><a xlink:title=" ">
<path fill="none" stroke="#63b8ff" d="M819.22,-164.98C845.36,-156.16 886.4,-142.31 915.73,-132.41"/>
<polygon fill="#63b8ff" stroke="#63b8ff" points="917.22,-135.6 925.58,-129.08 914.98,-128.96 917.22,-135.6"/>
</a>
</g>
</g>
<!-- Node26&#45;&gt;Node22 -->
<g id="edge42_Node000026_Node000022" class="edge">
<title>Node26&#45;&gt;Node22</title>
<g id="a_edge42_Node000026_Node000022"><a xlink:title=" ">
<path fill="none" stroke="#63b8ff" d="M845.19,-165.09C886.67,-157.61 946.35,-145.32 997,-129 1017.27,-122.47 1021.23,-117.93 1041,-110 1069.82,-98.44 1102.93,-86.24 1127.07,-77.55"/>
<polygon fill="#63b8ff" stroke="#63b8ff" points="1128.26,-80.83 1136.49,-74.16 1125.9,-74.25 1128.26,-80.83"/>
</a>
</g>
</g>
<!-- Node26&#45;&gt;Node24 -->
<g id="edge45_Node000026_Node000024" class="edge">
<title>Node26&#45;&gt;Node24</title>
<g id="a_edge45_Node000026_Node000024"><a xlink:title=" ">
<path fill="none" stroke="#63b8ff" d="M762.95,-164.87C745.25,-158.18 724.55,-146.95 714,-129 705.08,-113.84 715.1,-95.04 725.18,-81.85"/>
<polygon fill="#63b8ff" stroke="#63b8ff" points="727.93,-84.01 731.61,-74.08 722.54,-79.55 727.93,-84.01"/>
</a>
</g>
</g>
<!-- Node26&#45;&gt;Node27 -->
<g id="edge31_Node000026_Node000027" class="edge">
<title>Node26&#45;&gt;Node27</title>
<g id="a_edge31_Node000026_Node000027"><a xlink:title=" ">
<path fill="none" stroke="#63b8ff" d="M845.32,-170.61C928.74,-165.47 1099.11,-153.07 1252.53,-129.05"/>
<polygon fill="#63b8ff" stroke="#63b8ff" points="1253.28,-132.47 1262.61,-127.45 1252.19,-125.56 1253.28,-132.47"/>
</a>
</g>
</g>
<!-- Node26&#45;&gt;Node28 -->
<g id="edge34_Node000026_Node000028" class="edge">
<title>Node26&#45;&gt;Node28</title>
<g id="a_edge34_Node000026_Node000028"><a xlink:title=" ">
<path fill="none" stroke="#63b8ff" d="M749.16,-164.93C703.34,-156.12 630.15,-141.9 567,-129 565.57,-128.71 564.1,-128.41 562.62,-128.1"/>
<polygon fill="#63b8ff" stroke="#63b8ff" points="563.31,-124.67 552.81,-126.05 561.88,-131.52 563.31,-124.67"/>
</a>
</g>
</g>
<!-- Node29 -->
<g id="Node000029" class="node">
<title>Node29</title>
<g id="a_Node000029"><a xlink:title=" ">
<polygon fill="#e0e0e0" stroke="#999999" points="788.5,-129 723.5,-129 723.5,-110 788.5,-110 788.5,-129"/>
<text text-anchor="middle" x="756" y="-117" font-family="Helvetica,sans-Serif" font-size="10.00">typeindex</text>
</a>
</g>
</g>
<!-- Node26&#45;&gt;Node29 -->
<g id="edge36_Node000026_Node000029" class="edge">
<title>Node26&#45;&gt;Node29</title>
<g id="a_edge36_Node000026_Node000029"><a xlink:title=" ">
<path fill="none" stroke="#63b8ff" d="M787.73,-164.75C782.41,-157.34 774.64,-146.5 768.12,-137.41"/>
<polygon fill="#63b8ff" stroke="#63b8ff" points="770.83,-135.18 762.16,-129.09 765.14,-139.26 770.83,-135.18"/>
</a>
</g>
</g>
<!-- Node26&#45;&gt;Node30 -->
<g id="edge37_Node000026_Node000030" class="edge">
<title>Node26&#45;&gt;Node30</title>
<g id="a_edge37_Node000026_Node000030"><a xlink:title=" ">
<path fill="none" stroke="#63b8ff" d="M742.64,-166.63C668.43,-156.69 531.72,-138.4 454.66,-128.08"/>
<polygon fill="#63b8ff" stroke="#63b8ff" points="455.03,-124.6 444.65,-126.74 454.1,-131.54 455.03,-124.6"/>
</a>
</g>
</g>
<!-- Node26&#45;&gt;Node31 -->
<g id="edge38_Node000026_Node000031" class="edge">
<title>Node26&#45;&gt;Node31</title>
<g id="a_edge38_Node000026_Node000031"><a xlink:title=" ">
<path fill="none" stroke="#63b8ff" d="M845.2,-167.37C913.59,-159.09 1038.51,-143.69 1145,-129 1146.25,-128.83 1147.52,-128.65 1148.8,-128.47"/>
<polygon fill="#63b8ff" stroke="#63b8ff" points="1149.35,-131.93 1158.75,-127.05 1148.36,-125 1149.35,-131.93"/>
</a>
</g>
</g>
<!-- Node32 -->
<g id="Node000032" class="node">
<title>Node32</title>
<g id="a_Node000032"><a xlink:title=" ">
<polygon fill="#e0e0e0" stroke="#999999" points="857,-129 807,-129 807,-110 857,-110 857,-129"/>
<text text-anchor="middle" x="832" y="-117" font-family="Helvetica,sans-Serif" font-size="10.00">atomic</text>
</a>
</g>
</g>
<!-- Node26&#45;&gt;Node32 -->
<g id="edge44_Node000026_Node000032" class="edge">
<title>Node26&#45;&gt;Node32</title>
<g id="a_edge44_Node000026_Node000032"><a xlink:title=" ">
<path fill="none" stroke="#63b8ff" d="M800.27,-164.75C805.59,-157.34 813.36,-146.5 819.88,-137.41"/>
<polygon fill="#63b8ff" stroke="#63b8ff" points="822.86,-139.26 825.84,-129.09 817.17,-135.18 822.86,-139.26"/>
</a>
</g>
</g>
</g>
</svg>

<g id="navigator" transform="translate(0 0)" fill="#404254">
  <rect fill="#f2f5e9" fill-opacity="0.5" stroke="#606060" stroke-width=".5" x="0" y="0" width="60" height="60"/>
  <use id="zoomplus" xlink:href="#zoomPlus" x="17" y="9" onmousedown="handleZoom(evt,'in')"/>
  <use id="zoomminus" xlink:href="#zoomMin" x="42" y="9" onmousedown="handleZoom(evt,'out')"/>
  <use id="reset" xlink:href="#resetDef" x="30" y="36" onmousedown="handleReset()"/>
   <use id="arrowup" xlink:href="#arrowUp" x="0" y="0" onmousedown="handlePan(0,-1)"/>
  <use id="arrowright" xlink:href="#arrowRight" x="0" y="0" onmousedown="handlePan(1,0)"/>
  <use id="arrowdown" xlink:href="#arrowDown" x="0" y="0" onmousedown="handlePan(0,1)"/>
  <use id="arrowleft" xlink:href="#arrowLeft" x="0" y="0" onmousedown="handlePan(-1,0)"/>
</g>
<svg viewBox="0 0 15 15" width="100%" height="30px" preserveAspectRatio="xMaxYMin meet">
 <g id="arrow_out" transform="scale(0.3 0.3)">
  <a xlink:href="property__store_8cpp__incl_org.svg" target="_base">
   <rect id="button" ry="5" rx="5" y="6" x="6" height="38" width="38"
        fill="#f2f5e9" fill-opacity="0.5" stroke="#606060" stroke-width="1.0"/>
   <path id="arrow"
     d="M 11.500037,31.436501 C 11.940474,20.09759 22.043105,11.32322 32.158766,21.979434 L 37.068811,17.246167 C 37.068811,17.246167 37.088388,32 37.088388,32 L 22.160133,31.978069 C 22.160133,31.978069 26.997745,27.140456 26.997745,27.140456 C 18.528582,18.264221 13.291696,25.230495 11.500037,31.436501 z"
     style="fill:#404040;"/>
  </a>
 </g>
</svg>

<style type='text/css'>
<![CDATA[
[data-mouse-over-selected='false'] { opacity: 0.7; }
[data-mouse-over-selected='true']  { opacity: 1.0; }
]]>
</style>
<script type="application/ecmascript"><![CDATA[
document.addEventListener('DOMContentLoaded', (event) => {
  highlightEdges();
  highlightAdjacentNodes();
});
]]></script>
</svg>
