<?xml version="1.0" encoding="UTF-8" standalone="no"?>
<!DOCTYPE svg PUBLIC "-//W3C//DTD SVG 1.1//EN"
 "http://www.w3.org/Graphics/SVG/1.1/DTD/svg11.dtd">
<!-- Generated by graphviz version 2.43.0 (0)
 -->
<!-- Title: lmmc_blas_daxpy Pages: 1 -->
<svg width="403pt" height="64pt"
 viewBox="0.00 0.00 403.00 64.00" xmlns="http://www.w3.org/2000/svg" xmlns:xlink="http://www.w3.org/1999/xlink">
<g id="graph0" class="graph" transform="scale(1 1) rotate(0) translate(4 60)">
<title>lmmc_blas_daxpy</title>
<!-- Node1 -->
<g id="Node000001" class="node">
<title>Node1</title>
<g id="a_Node000001"><a xlink:title=" ">
<polygon fill="#999999" stroke="#666666" points="395,-37 290,-37 290,-18 395,-18 395,-37"/>
<text text-anchor="middle" x="342.5" y="-25" font-family="Helvetica,sans-Serif" font-size="10.00">lmmc_blas_daxpy</text>
</a>
</g>
</g>
<!-- Node2 -->
<g id="Node000002" class="node">
<title>Node2</title>
<g id="a_Node000002"><a xlink:href="dense_8c.html#a7e592a539e50cb974a9eda60b6aa6da6" target="_top" xlink:title="向量 AXPY 运算： 。">
<polygon fill="white" stroke="#666666" points="254,-37 158,-37 158,-18 254,-18 254,-37"/>
<text text-anchor="middle" x="206" y="-25" font-family="Helvetica,sans-Serif" font-size="10.00">lmmc_vec_axpy</text>
</a>
</g>
</g>
<!-- Node1&#45;&gt;Node2 -->
<g id="edge1_Node000001_Node000002" class="edge">
<title>Node1&#45;&gt;Node2</title>
<g id="a_edge1_Node000001_Node000002"><a xlink:title=" ">
<path fill="none" stroke="#63b8ff" d="M279.88,-27.5C271.29,-27.5 262.57,-27.5 254.29,-27.5"/>
<polygon fill="#63b8ff" stroke="#63b8ff" points="279.88,-31 289.88,-27.5 279.88,-24 279.88,-31"/>
</a>
</g>
</g>
<!-- Node3 -->
<g id="Node000003" class="node">
<title>Node3</title>
<g id="a_Node000003"><a xlink:href="itersolve_8c.html#ae2e84a40cba8627963f842c9e8ad819f" target="_top" xlink:title="稳定双共轭梯度法（BiCGSTAB）求解一般非对称稀疏系统 A*x = b。">
<polygon fill="white" stroke="#666666" points="122,-56 0,-56 0,-37 122,-37 122,-56"/>
<text text-anchor="middle" x="61" y="-44" font-family="Helvetica,sans-Serif" font-size="10.00">lmmc_bicgstab_solve</text>
</a>
</g>
</g>
<!-- Node2&#45;&gt;Node3 -->
<g id="edge2_Node000002_Node000003" class="edge">
<title>Node2&#45;&gt;Node3</title>
<g id="a_edge2_Node000002_Node000003"><a xlink:title=" ">
<path fill="none" stroke="#63b8ff" d="M147.7,-35.11C139.3,-36.23 130.63,-37.38 122.18,-38.5"/>
<polygon fill="#63b8ff" stroke="#63b8ff" points="148.33,-38.56 157.78,-33.77 147.41,-31.62 148.33,-38.56"/>
</a>
</g>
</g>
<!-- Node4 -->
<g id="Node000004" class="node">
<title>Node4</title>
<g id="a_Node000004"><a xlink:href="itersolve_8c.html#aba3cf403ebcc77de7d1922680a602188" target="_top" xlink:title="共轭梯度法（CG）求解对称正定稀疏系统 A*x = b。">
<polygon fill="white" stroke="#666666" points="107,-19 15,-19 15,0 107,0 107,-19"/>
<text text-anchor="middle" x="61" y="-7" font-family="Helvetica,sans-Serif" font-size="10.00">lmmc_cg_solve</text>
</a>
</g>
</g>
<!-- Node2&#45;&gt;Node4 -->
<g id="edge3_Node000002_Node000004" class="edge">
<title>Node2&#45;&gt;Node4</title>
<g id="a_edge3_Node000002_Node000004"><a xlink:title=" ">
<path fill="none" stroke="#63b8ff" d="M147.66,-20.28C134.21,-18.59 120.06,-16.81 107.23,-15.19"/>
<polygon fill="#63b8ff" stroke="#63b8ff" points="147.42,-23.78 157.78,-21.56 148.3,-16.83 147.42,-23.78"/>
</a>
</g>
</g>
</g>
</svg>
