<?xml version="1.0" encoding="UTF-8" standalone="no"?>
<!DOCTYPE svg PUBLIC "-//W3C//DTD SVG 1.1//EN"
 "http://www.w3.org/Graphics/SVG/1.1/DTD/svg11.dtd">
<!-- Generated by graphviz version 2.43.0 (0)
 -->
<!-- Title: /home/runner/work/docs/docs/LMMC/src/dense.c Pages: 1 -->
<!--zoomable 258 -->

<svg id="main" version="1.1" xmlns="http://www.w3.org/2000/svg" xmlns:xlink="http://www.w3.org/1999/xlink" xml:space="preserve" onload="init(evt)">
<style type="text/css"><![CDATA[
.node, .edge {opacity: 0.7;}
.node.selected, .edge.selected {opacity: 1;}
.edge:hover path { stroke: red; }
.edge:hover polygon { stroke: red; fill: red; }
]]></style>

<defs>
  <circle id="rim" cx="0" cy="0" r="7"/>
  <circle id="rim2" cx="0" cy="0" r="3.5"/>
  <g id="zoomPlus">
    <use xlink:href="#rim" fill="#404040"><set attributeName="fill" to="#808080" begin="zoomplus.mouseover" end="zoomplus.mouseout"/></use>
    <path d="M-4,0h8M0,-4v8" fill="none" stroke="white" stroke-width="1.5" pointer-events="none"/>
  </g>
  <g id="zoomMin">
    <use xlink:href="#rim" fill="#404040"><set attributeName="fill" to="#808080" begin="zoomminus.mouseover" end="zoomminus.mouseout"/></use>
    <path d="M-4,0h8" fill="none" stroke="white" stroke-width="1.5" pointer-events="none"/>
  </g>
  <g id="arrowUp" transform="translate(30 24)">
    <use xlink:href="#rim"/>
    <path pointer-events="none" fill="none" stroke="white" stroke-width="1.5" d="M0,-3.0v7 M-2.5,-0.5L0,-3.0L2.5,-0.5"/>
  </g>
  <g id="arrowRight" transform="rotate(90) translate(36 -43)">
    <use xlink:href="#rim"/>
    <path pointer-events="none" fill="none" stroke="white" stroke-width="1.5" d="M0,-3.0v7 M-2.5,-0.5L0,-3.0L2.5,-0.5"/>
  </g>
  <g id="arrowDown" transform="rotate(180) translate(-30 -48)">
    <use xlink:href="#rim"/>
    <path pointer-events="none" fill="none" stroke="white" stroke-width="1.5" d="M0,-3.0v7 M-2.5,-0.5L0,-3.0L2.5,-0.5"/>
  </g>
  <g id="arrowLeft" transform="rotate(270) translate(-36 17)">
    <use xlink:href="#rim"/>
    <path pointer-events="none" fill="none" stroke="white" stroke-width="1.5" d="M0,-3.0v7 M-2.5,-0.5L0,-3.0L2.5,-0.5"/>
  </g>
  <g id="resetDef">
    <use xlink:href="#rim2" fill="#404040"><set attributeName="fill" to="#808080" begin="reset.mouseover" end="reset.mouseout"/></use>
  </g>
</defs>
<script type="application/ecmascript">
var viewWidth = 658;
var viewHeight = 258;
var sectionId = 'dynsection-0';
</script>
<script type="application/ecmascript" xlink:href="svg.min.js"/>
<svg id="graph" class="graph">
<g id="viewport">
<title>/home/runner/work/docs/docs/LMMC/src/dense.c</title>
<!-- Node1 -->
<g id="Node000001" class="node">
<title>Node1</title>
<g id="a_Node000001"><a xlink:title="稠密矩阵 / 向量运算实现。">
<polygon fill="#999999" stroke="#666666" points="304.5,-250 170.5,-250 170.5,-220 304.5,-220 304.5,-250"/>
<text text-anchor="start" x="178.5" y="-238" font-family="Helvetica,sans-Serif" font-size="10.00">/home/runner/work/docs</text>
<text text-anchor="middle" x="237.5" y="-227" font-family="Helvetica,sans-Serif" font-size="10.00">/docs/LMMC/src/dense.c</text>
</a>
</g>
</g>
<!-- Node2 -->
<g id="Node000002" class="node">
<title>Node2</title>
<g id="a_Node000002"><a xlink:title=" ">
<polygon fill="#e0e0e0" stroke="#999999" points="51,-19 0,-19 0,0 51,0 51,-19"/>
<text text-anchor="middle" x="25.5" y="-7" font-family="Helvetica,sans-Serif" font-size="10.00">math.h</text>
</a>
</g>
</g>
<!-- Node1&#45;&gt;Node2 -->
<g id="edge1_Node000001_Node000002" class="edge">
<title>Node1&#45;&gt;Node2</title>
<g id="a_edge1_Node000001_Node000002"><a xlink:title=" ">
<path fill="none" stroke="#63b8ff" d="M190.88,-219.97C148.28,-204.65 86.96,-175.83 53.5,-129 31.96,-98.86 26.79,-54.45 25.67,-29.44"/>
<polygon fill="#63b8ff" stroke="#63b8ff" points="29.16,-29.05 25.4,-19.14 22.16,-29.23 29.16,-29.05"/>
</a>
</g>
</g>
<!-- Node3 -->
<g id="Node000003" class="node">
<title>Node3</title>
<g id="a_Node000003"><a xlink:title=" ">
<polygon fill="#e0e0e0" stroke="#999999" points="418,-184 365,-184 365,-165 418,-165 418,-184"/>
<text text-anchor="middle" x="391.5" y="-172" font-family="Helvetica,sans-Serif" font-size="10.00">string.h</text>
</a>
</g>
</g>
<!-- Node1&#45;&gt;Node3 -->
<g id="edge2_Node000001_Node000003" class="edge">
<title>Node1&#45;&gt;Node3</title>
<g id="a_edge2_Node000001_Node000003"><a xlink:title=" ">
<path fill="none" stroke="#63b8ff" d="M274.39,-219.99C300.2,-210.18 334.35,-197.21 359.1,-187.81"/>
<polygon fill="#63b8ff" stroke="#63b8ff" points="360.65,-190.96 368.76,-184.14 358.17,-184.42 360.65,-190.96"/>
</a>
</g>
</g>
<!-- Node4 -->
<g id="Node000004" class="node">
<title>Node4</title>
<g id="a_Node000004"><a xlink:href="memory__bridge_8h.html" target="_top" xlink:title="内存分配抽象层，可在标准库 malloc 与 LAMMP 栈分配器之间切换。">
<polygon fill="white" stroke="#666666" points="539,-184 436,-184 436,-165 539,-165 539,-184"/>
<text text-anchor="middle" x="487.5" y="-172" font-family="Helvetica,sans-Serif" font-size="10.00">memory_bridge.h</text>
</a>
</g>
</g>
<!-- Node1&#45;&gt;Node4 -->
<g id="edge3_Node000001_Node000004" class="edge">
<title>Node1&#45;&gt;Node4</title>
<g id="a_edge3_Node000001_Node000004"><a xlink:title=" ">
<path fill="none" stroke="#63b8ff" d="M297.38,-219.99C341.46,-209.67 400.53,-195.85 441.06,-186.37"/>
<polygon fill="#63b8ff" stroke="#63b8ff" points="442.01,-189.74 450.95,-184.05 440.41,-182.92 442.01,-189.74"/>
</a>
</g>
</g>
<!-- Node6 -->
<g id="Node000006" class="node">
<title>Node6</title>
<g id="a_Node000006"><a xlink:href="internal_8h.html" target="_top" xlink:title="LMMC 内部使用的公共工具（仅源文件可见）。">
<polygon fill="white" stroke="#666666" points="126,-129 63,-129 63,-110 126,-110 126,-129"/>
<text text-anchor="middle" x="94.5" y="-117" font-family="Helvetica,sans-Serif" font-size="10.00">internal.h</text>
</a>
</g>
</g>
<!-- Node1&#45;&gt;Node6 -->
<g id="edge5_Node000001_Node000006" class="edge">
<title>Node1&#45;&gt;Node6</title>
<g id="a_edge5_Node000001_Node000006"><a xlink:title=" ">
<path fill="none" stroke="#63b8ff" d="M200.47,-219.83C181.26,-211.32 158.17,-199.19 140.5,-184 125.38,-171.01 112.5,-152.1 104.25,-138.29"/>
<polygon fill="#63b8ff" stroke="#63b8ff" points="107.11,-136.24 99.1,-129.3 101.04,-139.72 107.11,-136.24"/>
</a>
</g>
</g>
<!-- Node7 -->
<g id="Node000007" class="node">
<title>Node7</title>
<g id="a_Node000007"><a xlink:href="config_8h.html" target="_top" xlink:title="LMMC 实数类型与基本运算抽象。">
<polygon fill="white" stroke="#666666" points="211.5,-74 125.5,-74 125.5,-55 211.5,-55 211.5,-74"/>
<text text-anchor="middle" x="168.5" y="-62" font-family="Helvetica,sans-Serif" font-size="10.00">lmmc/config.h</text>
</a>
</g>
</g>
<!-- Node1&#45;&gt;Node7 -->
<g id="edge12_Node000001_Node000007" class="edge">
<title>Node1&#45;&gt;Node7</title>
<g id="a_edge12_Node000001_Node000007"><a xlink:title=" ">
<path fill="none" stroke="#63b8ff" d="M225.68,-219.83C210.46,-200.63 184.64,-164.66 173.5,-129 169.01,-114.61 167.88,-97.55 167.81,-84.74"/>
<polygon fill="#63b8ff" stroke="#63b8ff" points="171.32,-84.41 167.98,-74.36 164.32,-84.3 171.32,-84.41"/>
</a>
</g>
</g>
<!-- Node10 -->
<g id="Node000010" class="node">
<title>Node10</title>
<g id="a_Node000010"><a xlink:title=" ">
<polygon fill="#e0e0e0" stroke="#999999" points="649.5,-184 557.5,-184 557.5,-165 649.5,-165 649.5,-184"/>
<text text-anchor="middle" x="603.5" y="-172" font-family="Helvetica,sans-Serif" font-size="10.00">blas_backend.h</text>
</a>
</g>
</g>
<!-- Node1&#45;&gt;Node10 -->
<g id="edge11_Node000001_Node000010" class="edge">
<title>Node1&#45;&gt;Node10</title>
<g id="a_edge11_Node000001_Node000010"><a xlink:title=" ">
<path fill="none" stroke="#63b8ff" d="M304.63,-223.27C374.27,-212.14 481.94,-194.93 547.26,-184.49"/>
<polygon fill="#63b8ff" stroke="#63b8ff" points="548.04,-187.91 557.36,-182.87 546.94,-181 548.04,-187.91"/>
</a>
</g>
</g>
<!-- Node11 -->
<g id="Node000011" class="node">
<title>Node11</title>
<g id="a_Node000011"><a xlink:href="dense_8h.html" target="_top" xlink:title="稠密矩阵 / 向量数据结构与基本运算（含 BLAS Level 1 / 2 接口）。">
<polygon fill="white" stroke="#666666" points="268.5,-129 182.5,-129 182.5,-110 268.5,-110 268.5,-129"/>
<text text-anchor="middle" x="225.5" y="-117" font-family="Helvetica,sans-Serif" font-size="10.00">lmmc/dense.h</text>
</a>
</g>
</g>
<!-- Node1&#45;&gt;Node11 -->
<g id="edge13_Node000001_Node000011" class="edge">
<title>Node1&#45;&gt;Node11</title>
<g id="a_edge13_Node000001_Node000011"><a xlink:title=" ">
<path fill="none" stroke="#63b8ff" d="M227.8,-219.86C221.8,-210.23 214.66,-196.93 211.5,-184 207.77,-168.75 212.23,-151.33 217.07,-138.6"/>
<polygon fill="#63b8ff" stroke="#63b8ff" points="220.39,-139.73 221.06,-129.16 213.95,-137 220.39,-139.73"/>
</a>
</g>
</g>
<!-- Node13 -->
<g id="Node000013" class="node">
<title>Node13</title>
<g id="a_Node000013"><a xlink:href="linear__algebra_8h.html" target="_top" xlink:title="稠密矩阵直接分解接口（LU、Cholesky、QR）。">
<polygon fill="white" stroke="#666666" points="346.5,-184 220.5,-184 220.5,-165 346.5,-165 346.5,-184"/>
<text text-anchor="middle" x="283.5" y="-172" font-family="Helvetica,sans-Serif" font-size="10.00">lmmc/linear_algebra.h</text>
</a>
</g>
</g>
<!-- Node1&#45;&gt;Node13 -->
<g id="edge17_Node000001_Node000013" class="edge">
<title>Node1&#45;&gt;Node13</title>
<g id="a_edge17_Node000001_Node000013"><a xlink:title=" ">
<path fill="none" stroke="#63b8ff" d="M248.64,-219.84C255.18,-211.52 263.48,-200.96 270.34,-192.23"/>
<polygon fill="#63b8ff" stroke="#63b8ff" points="273.18,-194.29 276.61,-184.27 267.67,-189.96 273.18,-194.29"/>
</a>
</g>
</g>
<!-- Node5 -->
<g id="Node000005" class="node">
<title>Node5</title>
<g id="a_Node000005"><a xlink:title=" ">
<polygon fill="#e0e0e0" stroke="#999999" points="514,-129 461,-129 461,-110 514,-110 514,-129"/>
<text text-anchor="middle" x="487.5" y="-117" font-family="Helvetica,sans-Serif" font-size="10.00">stdlib.h</text>
</a>
</g>
</g>
<!-- Node4&#45;&gt;Node5 -->
<g id="edge4_Node000004_Node000005" class="edge">
<title>Node4&#45;&gt;Node5</title>
<g id="a_edge4_Node000004_Node000005"><a xlink:title=" ">
<path fill="none" stroke="#63b8ff" d="M487.5,-164.75C487.5,-157.8 487.5,-147.85 487.5,-139.13"/>
<polygon fill="#63b8ff" stroke="#63b8ff" points="491,-139.09 487.5,-129.09 484,-139.09 491,-139.09"/>
</a>
</g>
</g>
<!-- Node6&#45;&gt;Node2 -->
<g id="edge10_Node000006_Node000002" class="edge">
<title>Node6&#45;&gt;Node2</title>
<g id="a_edge10_Node000006_Node000002"><a xlink:title=" ">
<path fill="none" stroke="#63b8ff" d="M81.15,-109.81C69.84,-101.79 53.99,-88.9 44.5,-74 35.81,-60.35 30.93,-42.54 28.3,-29.25"/>
<polygon fill="#63b8ff" stroke="#63b8ff" points="31.74,-28.6 26.59,-19.35 24.84,-29.8 31.74,-28.6"/>
</a>
</g>
</g>
<!-- Node6&#45;&gt;Node7 -->
<g id="edge6_Node000006_Node000007" class="edge">
<title>Node6&#45;&gt;Node7</title>
<g id="a_edge6_Node000006_Node000007"><a xlink:title=" ">
<path fill="none" stroke="#63b8ff" d="M106.39,-109.98C117.65,-101.92 134.79,-89.65 148.21,-80.03"/>
<polygon fill="#63b8ff" stroke="#63b8ff" points="150.3,-82.84 156.39,-74.17 146.23,-77.15 150.3,-82.84"/>
</a>
</g>
</g>
<!-- Node8 -->
<g id="Node000008" class="node">
<title>Node8</title>
<g id="a_Node000008"><a xlink:title=" ">
<polygon fill="#e0e0e0" stroke="#999999" points="285.5,-74 229.5,-74 229.5,-55 285.5,-55 285.5,-74"/>
<text text-anchor="middle" x="257.5" y="-62" font-family="Helvetica,sans-Serif" font-size="10.00">stddef.h</text>
</a>
</g>
</g>
<!-- Node6&#45;&gt;Node8 -->
<g id="edge8_Node000006_Node000008" class="edge">
<title>Node6&#45;&gt;Node8</title>
<g id="a_edge8_Node000006_Node000008"><a xlink:title=" ">
<path fill="none" stroke="#63b8ff" d="M120.69,-109.98C147.94,-101.13 190.8,-87.19 221.28,-77.28"/>
<polygon fill="#63b8ff" stroke="#63b8ff" points="222.68,-80.5 231.11,-74.08 220.51,-73.85 222.68,-80.5"/>
</a>
</g>
</g>
<!-- Node9 -->
<g id="Node000009" class="node">
<title>Node9</title>
<g id="a_Node000009"><a xlink:title=" ">
<polygon fill="#e0e0e0" stroke="#999999" points="107,-74 54,-74 54,-55 107,-55 107,-74"/>
<text text-anchor="middle" x="80.5" y="-62" font-family="Helvetica,sans-Serif" font-size="10.00">stdint.h</text>
</a>
</g>
</g>
<!-- Node6&#45;&gt;Node9 -->
<g id="edge9_Node000006_Node000009" class="edge">
<title>Node6&#45;&gt;Node9</title>
<g id="a_edge9_Node000006_Node000009"><a xlink:title=" ">
<path fill="none" stroke="#63b8ff" d="M92.19,-109.75C90.33,-102.72 87.66,-92.62 85.35,-83.84"/>
<polygon fill="#63b8ff" stroke="#63b8ff" points="88.71,-82.86 82.77,-74.09 81.94,-84.65 88.71,-82.86"/>
</a>
</g>
</g>
<!-- Node7&#45;&gt;Node2 -->
<g id="edge7_Node000007_Node000002" class="edge">
<title>Node7&#45;&gt;Node2</title>
<g id="a_edge7_Node000007_Node000002"><a xlink:title=" ">
<path fill="none" stroke="#63b8ff" d="M145.52,-54.98C122,-46.27 85.21,-32.63 58.56,-22.75"/>
<polygon fill="#63b8ff" stroke="#63b8ff" points="59.49,-19.36 48.89,-19.17 57.05,-25.93 59.49,-19.36"/>
</a>
</g>
</g>
<!-- Node11&#45;&gt;Node7 -->
<g id="edge16_Node000011_Node000007" class="edge">
<title>Node11&#45;&gt;Node7</title>
<g id="a_edge16_Node000011_Node000007"><a xlink:title=" ">
<path fill="none" stroke="#63b8ff" d="M216.34,-109.98C208,-102.23 195.47,-90.58 185.32,-81.14"/>
<polygon fill="#63b8ff" stroke="#63b8ff" points="187.53,-78.42 177.82,-74.17 182.76,-83.54 187.53,-78.42"/>
</a>
</g>
</g>
<!-- Node11&#45;&gt;Node8 -->
<g id="edge14_Node000011_Node000008" class="edge">
<title>Node11&#45;&gt;Node8</title>
<g id="a_edge14_Node000011_Node000008"><a xlink:title=" ">
<path fill="none" stroke="#63b8ff" d="M230.78,-109.75C235.21,-102.42 241.66,-91.73 247.12,-82.7"/>
<polygon fill="#63b8ff" stroke="#63b8ff" points="250.14,-84.46 252.31,-74.09 244.15,-80.84 250.14,-84.46"/>
</a>
</g>
</g>
<!-- Node12 -->
<g id="Node000012" class="node">
<title>Node12</title>
<g id="a_Node000012"><a xlink:href="status_8h.html" target="_top" xlink:title="LMMC 通用状态码定义。">
<polygon fill="white" stroke="#666666" points="389.5,-74 303.5,-74 303.5,-55 389.5,-55 389.5,-74"/>
<text text-anchor="middle" x="346.5" y="-62" font-family="Helvetica,sans-Serif" font-size="10.00">lmmc/status.h</text>
</a>
</g>
</g>
<!-- Node11&#45;&gt;Node12 -->
<g id="edge15_Node000011_Node000012" class="edge">
<title>Node11&#45;&gt;Node12</title>
<g id="a_edge15_Node000011_Node000012"><a xlink:title=" ">
<path fill="none" stroke="#63b8ff" d="M244.94,-109.98C264.49,-101.42 294.88,-88.11 317.32,-78.28"/>
<polygon fill="#63b8ff" stroke="#63b8ff" points="318.95,-81.39 326.71,-74.17 316.14,-74.98 318.95,-81.39"/>
</a>
</g>
</g>
<!-- Node13&#45;&gt;Node8 -->
<g id="edge18_Node000013_Node000008" class="edge">
<title>Node13&#45;&gt;Node8</title>
<g id="a_edge18_Node000013_Node000008"><a xlink:title=" ">
<path fill="none" stroke="#63b8ff" d="M283.57,-164.71C283.47,-152.31 282.53,-129.06 277.5,-110 275.07,-100.79 270.91,-91.08 267.01,-83.09"/>
<polygon fill="#63b8ff" stroke="#63b8ff" points="270.05,-81.35 262.37,-74.05 263.83,-84.55 270.05,-81.35"/>
</a>
</g>
</g>
<!-- Node13&#45;&gt;Node11 -->
<g id="edge19_Node000013_Node000011" class="edge">
<title>Node13&#45;&gt;Node11</title>
<g id="a_edge19_Node000013_Node000011"><a xlink:title=" ">
<path fill="none" stroke="#63b8ff" d="M274.18,-164.98C265.69,-157.23 252.94,-145.58 242.62,-136.14"/>
<polygon fill="#63b8ff" stroke="#63b8ff" points="244.73,-133.33 234.99,-129.17 240.01,-138.5 244.73,-133.33"/>
</a>
</g>
</g>
</g>
</svg>

<g id="navigator" transform="translate(0 0)" fill="#404254">
  <rect fill="#f2f5e9" fill-opacity="0.5" stroke="#606060" stroke-width=".5" x="0" y="0" width="60" height="60"/>
  <use id="zoomplus" xlink:href="#zoomPlus" x="17" y="9" onmousedown="handleZoom(evt,'in')"/>
  <use id="zoomminus" xlink:href="#zoomMin" x="42" y="9" onmousedown="handleZoom(evt,'out')"/>
  <use id="reset" xlink:href="#resetDef" x="30" y="36" onmousedown="handleReset()"/>
   <use id="arrowup" xlink:href="#arrowUp" x="0" y="0" onmousedown="handlePan(0,-1)"/>
  <use id="arrowright" xlink:href="#arrowRight" x="0" y="0" onmousedown="handlePan(1,0)"/>
  <use id="arrowdown" xlink:href="#arrowDown" x="0" y="0" onmousedown="handlePan(0,1)"/>
  <use id="arrowleft" xlink:href="#arrowLeft" x="0" y="0" onmousedown="handlePan(-1,0)"/>
</g>
<svg viewBox="0 0 15 15" width="100%" height="30px" preserveAspectRatio="xMaxYMin meet">
 <g id="arrow_out" transform="scale(0.3 0.3)">
  <a xlink:href="dense_8c__incl_org.svg" target="_base">
   <rect id="button" ry="5" rx="5" y="6" x="6" height="38" width="38"
        fill="#f2f5e9" fill-opacity="0.5" stroke="#606060" stroke-width="1.0"/>
   <path id="arrow"
     d="M 11.500037,31.436501 C 11.940474,20.09759 22.043105,11.32322 32.158766,21.979434 L 37.068811,17.246167 C 37.068811,17.246167 37.088388,32 37.088388,32 L 22.160133,31.978069 C 22.160133,31.978069 26.997745,27.140456 26.997745,27.140456 C 18.528582,18.264221 13.291696,25.230495 11.500037,31.436501 z"
     style="fill:#404040;"/>
  </a>
 </g>
</svg>

<style type='text/css'>
<![CDATA[
[data-mouse-over-selected='false'] { opacity: 0.7; }
[data-mouse-over-selected='true']  { opacity: 1.0; }
]]>
</style>
<script type="application/ecmascript"><![CDATA[
document.addEventListener('DOMContentLoaded', (event) => {
  highlightEdges();
  highlightAdjacentNodes();
});
]]></script>
</svg>
