<?xml version="1.0" encoding="UTF-8" standalone="no"?>
<!DOCTYPE svg PUBLIC "-//W3C//DTD SVG 1.1//EN"
 "http://www.w3.org/Graphics/SVG/1.1/DTD/svg11.dtd">
<!-- Generated by graphviz version 2.43.0 (0)
 -->
<!-- Title: /home/runner/work/docs/docs/LMMC/src/eigen.c Pages: 1 -->
<svg width="634pt" height="258pt"
 viewBox="0.00 0.00 634.00 258.00" xmlns="http://www.w3.org/2000/svg" xmlns:xlink="http://www.w3.org/1999/xlink">
<g id="graph0" class="graph" transform="scale(1 1) rotate(0) translate(4 254)">
<title>/home/runner/work/docs/docs/LMMC/src/eigen.c</title>
<!-- Node1 -->
<g id="Node000001" class="node">
<title>Node1</title>
<g id="a_Node000001"><a xlink:title="特征值、奇异值、伪逆与条件数算法实现。">
<polygon fill="#999999" stroke="#666666" points="343.5,-250 209.5,-250 209.5,-220 343.5,-220 343.5,-250"/>
<text text-anchor="start" x="217.5" y="-238" font-family="Helvetica,sans-Serif" font-size="10.00">/home/runner/work/docs</text>
<text text-anchor="middle" x="276.5" y="-227" font-family="Helvetica,sans-Serif" font-size="10.00">/docs/LMMC/src/eigen.c</text>
</a>
</g>
</g>
<!-- Node2 -->
<g id="Node000002" class="node">
<title>Node2</title>
<g id="a_Node000002"><a xlink:title=" ">
<polygon fill="#e0e0e0" stroke="#999999" points="51,-19 0,-19 0,0 51,0 51,-19"/>
<text text-anchor="middle" x="25.5" y="-7" font-family="Helvetica,sans-Serif" font-size="10.00">math.h</text>
</a>
</g>
</g>
<!-- Node1&#45;&gt;Node2 -->
<g id="edge1_Node000001_Node000002" class="edge">
<title>Node1&#45;&gt;Node2</title>
<g id="a_edge1_Node000001_Node000002"><a xlink:title=" ">
<path fill="none" stroke="#63b8ff" d="M209.23,-226.35C151.41,-215.65 72.3,-190.05 39.5,-129 22.4,-97.18 22.1,-53.72 23.65,-29.25"/>
<polygon fill="#63b8ff" stroke="#63b8ff" points="27.15,-29.42 24.46,-19.17 20.17,-28.86 27.15,-29.42"/>
</a>
</g>
</g>
<!-- Node3 -->
<g id="Node000003" class="node">
<title>Node3</title>
<g id="a_Node000003"><a xlink:title=" ">
<polygon fill="#e0e0e0" stroke="#999999" points="505,-184 452,-184 452,-165 505,-165 505,-184"/>
<text text-anchor="middle" x="478.5" y="-172" font-family="Helvetica,sans-Serif" font-size="10.00">string.h</text>
</a>
</g>
</g>
<!-- Node1&#45;&gt;Node3 -->
<g id="edge2_Node000001_Node000003" class="edge">
<title>Node1&#45;&gt;Node3</title>
<g id="a_edge2_Node000001_Node000003"><a xlink:title=" ">
<path fill="none" stroke="#63b8ff" d="M324.88,-219.99C360.95,-209.54 409.44,-195.5 442.22,-186.01"/>
<polygon fill="#63b8ff" stroke="#63b8ff" points="443.23,-189.36 451.86,-183.22 441.28,-182.64 443.23,-189.36"/>
</a>
</g>
</g>
<!-- Node4 -->
<g id="Node000004" class="node">
<title>Node4</title>
<g id="a_Node000004"><a xlink:href="memory__bridge_8h.html" target="_top" xlink:title="内存分配抽象层，可在标准库 malloc 与 LAMMP 栈分配器之间切换。">
<polygon fill="white" stroke="#666666" points="626,-184 523,-184 523,-165 626,-165 626,-184"/>
<text text-anchor="middle" x="574.5" y="-172" font-family="Helvetica,sans-Serif" font-size="10.00">memory_bridge.h</text>
</a>
</g>
</g>
<!-- Node1&#45;&gt;Node4 -->
<g id="edge3_Node000001_Node000004" class="edge">
<title>Node1&#45;&gt;Node4</title>
<g id="a_edge3_Node000001_Node000004"><a xlink:title=" ">
<path fill="none" stroke="#63b8ff" d="M343.75,-220.8C397.39,-210.27 471.5,-195.72 521.12,-185.98"/>
<polygon fill="#63b8ff" stroke="#63b8ff" points="521.87,-189.4 531.01,-184.04 520.53,-182.53 521.87,-189.4"/>
</a>
</g>
</g>
<!-- Node6 -->
<g id="Node000006" class="node">
<title>Node6</title>
<g id="a_Node000006"><a xlink:href="internal_8h.html" target="_top" xlink:title="LMMC 内部使用的公共工具（仅源文件可见）。">
<polygon fill="white" stroke="#666666" points="112,-129 49,-129 49,-110 112,-110 112,-129"/>
<text text-anchor="middle" x="80.5" y="-117" font-family="Helvetica,sans-Serif" font-size="10.00">internal.h</text>
</a>
</g>
</g>
<!-- Node1&#45;&gt;Node6 -->
<g id="edge5_Node000001_Node000006" class="edge">
<title>Node1&#45;&gt;Node6</title>
<g id="a_edge5_Node000001_Node000006"><a xlink:title=" ">
<path fill="none" stroke="#63b8ff" d="M209.17,-221.08C181.68,-213.49 150.74,-201.78 126.5,-184 110.09,-171.96 97.16,-152.33 89.24,-138.08"/>
<polygon fill="#63b8ff" stroke="#63b8ff" points="92.33,-136.44 84.58,-129.23 86.14,-139.71 92.33,-136.44"/>
</a>
</g>
</g>
<!-- Node7 -->
<g id="Node000007" class="node">
<title>Node7</title>
<g id="a_Node000007"><a xlink:href="config_8h.html" target="_top" xlink:title="LMMC 实数类型与基本运算抽象。">
<polygon fill="white" stroke="#666666" points="211.5,-74 125.5,-74 125.5,-55 211.5,-55 211.5,-74"/>
<text text-anchor="middle" x="168.5" y="-62" font-family="Helvetica,sans-Serif" font-size="10.00">lmmc/config.h</text>
</a>
</g>
</g>
<!-- Node1&#45;&gt;Node7 -->
<g id="edge11_Node000001_Node000007" class="edge">
<title>Node1&#45;&gt;Node7</title>
<g id="a_edge11_Node000001_Node000007"><a xlink:title=" ">
<path fill="none" stroke="#63b8ff" d="M209.29,-220.21C189.95,-212.79 171,-201.42 159.5,-184 139.31,-153.42 151.47,-108.22 160.81,-83.42"/>
<polygon fill="#63b8ff" stroke="#63b8ff" points="164.06,-84.72 164.54,-74.14 157.56,-82.12 164.06,-84.72"/>
</a>
</g>
</g>
<!-- Node10 -->
<g id="Node000010" class="node">
<title>Node10</title>
<g id="a_Node000010"><a xlink:href="dense_8h.html" target="_top" xlink:title="稠密矩阵 / 向量数据结构与基本运算（含 BLAS Level 1 / 2 接口）。">
<polygon fill="white" stroke="#666666" points="356.5,-129 270.5,-129 270.5,-110 356.5,-110 356.5,-129"/>
<text text-anchor="middle" x="313.5" y="-117" font-family="Helvetica,sans-Serif" font-size="10.00">lmmc/dense.h</text>
</a>
</g>
</g>
<!-- Node1&#45;&gt;Node10 -->
<g id="edge12_Node000001_Node000010" class="edge">
<title>Node1&#45;&gt;Node10</title>
<g id="a_edge12_Node000001_Node000010"><a xlink:title=" ">
<path fill="none" stroke="#63b8ff" d="M285.91,-219.72C291.86,-210.03 299.21,-196.71 303.5,-184 308.42,-169.44 310.94,-152.18 312.22,-139.33"/>
<polygon fill="#63b8ff" stroke="#63b8ff" points="315.71,-139.61 313.05,-129.35 308.73,-139.02 315.71,-139.61"/>
</a>
</g>
</g>
<!-- Node12 -->
<g id="Node000012" class="node">
<title>Node12</title>
<g id="a_Node000012"><a xlink:href="eigen_8h.html" target="_top" xlink:title="特征值 / 奇异值分解、伪逆与条件数接口。">
<polygon fill="white" stroke="#666666" points="434,-184 351,-184 351,-165 434,-165 434,-184"/>
<text text-anchor="middle" x="392.5" y="-172" font-family="Helvetica,sans-Serif" font-size="10.00">lmmc/eigen.h</text>
</a>
</g>
</g>
<!-- Node1&#45;&gt;Node12 -->
<g id="edge16_Node000001_Node000012" class="edge">
<title>Node1&#45;&gt;Node12</title>
<g id="a_edge16_Node000001_Node000012"><a xlink:title=" ">
<path fill="none" stroke="#63b8ff" d="M304.28,-219.99C323.12,-210.49 347.85,-198.02 366.34,-188.69"/>
<polygon fill="#63b8ff" stroke="#63b8ff" points="368.02,-191.77 375.37,-184.14 364.86,-185.52 368.02,-191.77"/>
</a>
</g>
</g>
<!-- Node13 -->
<g id="Node000013" class="node">
<title>Node13</title>
<g id="a_Node000013"><a xlink:href="linear__algebra_8h.html" target="_top" xlink:title="稠密矩阵直接分解接口（LU、Cholesky、QR）。">
<polygon fill="white" stroke="#666666" points="294.5,-184 168.5,-184 168.5,-165 294.5,-165 294.5,-184"/>
<text text-anchor="middle" x="231.5" y="-172" font-family="Helvetica,sans-Serif" font-size="10.00">lmmc/linear_algebra.h</text>
</a>
</g>
</g>
<!-- Node1&#45;&gt;Node13 -->
<g id="edge19_Node000001_Node000013" class="edge">
<title>Node1&#45;&gt;Node13</title>
<g id="a_edge19_Node000001_Node000013"><a xlink:title=" ">
<path fill="none" stroke="#63b8ff" d="M265.61,-219.84C259.21,-211.52 251.08,-200.96 244.37,-192.23"/>
<polygon fill="#63b8ff" stroke="#63b8ff" points="247.11,-190.06 238.24,-184.27 241.57,-194.33 247.11,-190.06"/>
</a>
</g>
</g>
<!-- Node5 -->
<g id="Node000005" class="node">
<title>Node5</title>
<g id="a_Node000005"><a xlink:title=" ">
<polygon fill="#e0e0e0" stroke="#999999" points="601,-129 548,-129 548,-110 601,-110 601,-129"/>
<text text-anchor="middle" x="574.5" y="-117" font-family="Helvetica,sans-Serif" font-size="10.00">stdlib.h</text>
</a>
</g>
</g>
<!-- Node4&#45;&gt;Node5 -->
<g id="edge4_Node000004_Node000005" class="edge">
<title>Node4&#45;&gt;Node5</title>
<g id="a_edge4_Node000004_Node000005"><a xlink:title=" ">
<path fill="none" stroke="#63b8ff" d="M574.5,-164.75C574.5,-157.8 574.5,-147.85 574.5,-139.13"/>
<polygon fill="#63b8ff" stroke="#63b8ff" points="578,-139.09 574.5,-129.09 571,-139.09 578,-139.09"/>
</a>
</g>
</g>
<!-- Node6&#45;&gt;Node2 -->
<g id="edge10_Node000006_Node000002" class="edge">
<title>Node6&#45;&gt;Node2</title>
<g id="a_edge10_Node000006_Node000002"><a xlink:title=" ">
<path fill="none" stroke="#63b8ff" d="M71.62,-109.71C63.52,-101.24 51.73,-87.71 44.5,-74 37.02,-59.83 32.06,-42.29 29.09,-29.24"/>
<polygon fill="#63b8ff" stroke="#63b8ff" points="32.44,-28.2 26.97,-19.12 25.59,-29.63 32.44,-28.2"/>
</a>
</g>
</g>
<!-- Node6&#45;&gt;Node7 -->
<g id="edge6_Node000006_Node000007" class="edge">
<title>Node6&#45;&gt;Node7</title>
<g id="a_edge6_Node000006_Node000007"><a xlink:title=" ">
<path fill="none" stroke="#63b8ff" d="M94.64,-109.98C108.29,-101.77 129.19,-89.18 145.28,-79.49"/>
<polygon fill="#63b8ff" stroke="#63b8ff" points="147.34,-82.33 154.1,-74.17 143.73,-76.33 147.34,-82.33"/>
</a>
</g>
</g>
<!-- Node8 -->
<g id="Node000008" class="node">
<title>Node8</title>
<g id="a_Node000008"><a xlink:title=" ">
<polygon fill="#e0e0e0" stroke="#999999" points="285.5,-74 229.5,-74 229.5,-55 285.5,-55 285.5,-74"/>
<text text-anchor="middle" x="257.5" y="-62" font-family="Helvetica,sans-Serif" font-size="10.00">stddef.h</text>
</a>
</g>
</g>
<!-- Node6&#45;&gt;Node8 -->
<g id="edge8_Node000006_Node000008" class="edge">
<title>Node6&#45;&gt;Node8</title>
<g id="a_edge8_Node000006_Node000008"><a xlink:title=" ">
<path fill="none" stroke="#63b8ff" d="M108.94,-109.98C138.96,-100.99 186.44,-86.78 219.62,-76.84"/>
<polygon fill="#63b8ff" stroke="#63b8ff" points="220.85,-80.13 229.42,-73.91 218.84,-73.42 220.85,-80.13"/>
</a>
</g>
</g>
<!-- Node9 -->
<g id="Node000009" class="node">
<title>Node9</title>
<g id="a_Node000009"><a xlink:title=" ">
<polygon fill="#e0e0e0" stroke="#999999" points="107,-74 54,-74 54,-55 107,-55 107,-74"/>
<text text-anchor="middle" x="80.5" y="-62" font-family="Helvetica,sans-Serif" font-size="10.00">stdint.h</text>
</a>
</g>
</g>
<!-- Node6&#45;&gt;Node9 -->
<g id="edge9_Node000006_Node000009" class="edge">
<title>Node6&#45;&gt;Node9</title>
<g id="a_edge9_Node000006_Node000009"><a xlink:title=" ">
<path fill="none" stroke="#63b8ff" d="M80.5,-109.75C80.5,-102.8 80.5,-92.85 80.5,-84.13"/>
<polygon fill="#63b8ff" stroke="#63b8ff" points="84,-84.09 80.5,-74.09 77,-84.09 84,-84.09"/>
</a>
</g>
</g>
<!-- Node7&#45;&gt;Node2 -->
<g id="edge7_Node000007_Node000002" class="edge">
<title>Node7&#45;&gt;Node2</title>
<g id="a_edge7_Node000007_Node000002"><a xlink:title=" ">
<path fill="none" stroke="#63b8ff" d="M145.52,-54.98C122,-46.27 85.21,-32.63 58.56,-22.75"/>
<polygon fill="#63b8ff" stroke="#63b8ff" points="59.49,-19.36 48.89,-19.17 57.05,-25.93 59.49,-19.36"/>
</a>
</g>
</g>
<!-- Node10&#45;&gt;Node7 -->
<g id="edge15_Node000010_Node000007" class="edge">
<title>Node10&#45;&gt;Node7</title>
<g id="a_edge15_Node000010_Node000007"><a xlink:title=" ">
<path fill="none" stroke="#63b8ff" d="M290.2,-109.98C266.25,-101.23 228.72,-87.51 201.67,-77.62"/>
<polygon fill="#63b8ff" stroke="#63b8ff" points="202.81,-74.32 192.22,-74.17 200.41,-80.89 202.81,-74.32"/>
</a>
</g>
</g>
<!-- Node10&#45;&gt;Node8 -->
<g id="edge13_Node000010_Node000008" class="edge">
<title>Node10&#45;&gt;Node8</title>
<g id="a_edge13_Node000010_Node000008"><a xlink:title=" ">
<path fill="none" stroke="#63b8ff" d="M304.5,-109.98C296.31,-102.23 283.99,-90.58 274.03,-81.14"/>
<polygon fill="#63b8ff" stroke="#63b8ff" points="276.33,-78.5 266.66,-74.17 271.52,-83.59 276.33,-78.5"/>
</a>
</g>
</g>
<!-- Node11 -->
<g id="Node000011" class="node">
<title>Node11</title>
<g id="a_Node000011"><a xlink:href="status_8h.html" target="_top" xlink:title="LMMC 通用状态码定义。">
<polygon fill="white" stroke="#666666" points="411.5,-74 325.5,-74 325.5,-55 411.5,-55 411.5,-74"/>
<text text-anchor="middle" x="368.5" y="-62" font-family="Helvetica,sans-Serif" font-size="10.00">lmmc/status.h</text>
</a>
</g>
</g>
<!-- Node10&#45;&gt;Node11 -->
<g id="edge14_Node000010_Node000011" class="edge">
<title>Node10&#45;&gt;Node11</title>
<g id="a_edge14_Node000010_Node000011"><a xlink:title=" ">
<path fill="none" stroke="#63b8ff" d="M322.58,-109.75C330.59,-102.03 342.46,-90.6 352.12,-81.28"/>
<polygon fill="#63b8ff" stroke="#63b8ff" points="354.81,-83.55 359.59,-74.09 349.96,-78.51 354.81,-83.55"/>
</a>
</g>
</g>
<!-- Node12&#45;&gt;Node10 -->
<g id="edge17_Node000012_Node000010" class="edge">
<title>Node12&#45;&gt;Node10</title>
<g id="a_edge17_Node000012_Node000010"><a xlink:title=" ">
<path fill="none" stroke="#63b8ff" d="M379.81,-164.98C367.67,-156.84 349.14,-144.41 334.75,-134.76"/>
<polygon fill="#63b8ff" stroke="#63b8ff" points="336.68,-131.84 326.42,-129.17 332.78,-137.65 336.68,-131.84"/>
</a>
</g>
</g>
<!-- Node12&#45;&gt;Node11 -->
<g id="edge18_Node000012_Node000011" class="edge">
<title>Node12&#45;&gt;Node11</title>
<g id="a_edge18_Node000012_Node000011"><a xlink:title=" ">
<path fill="none" stroke="#63b8ff" d="M390.54,-164.66C386.63,-147.09 377.82,-107.45 372.6,-83.95"/>
<polygon fill="#63b8ff" stroke="#63b8ff" points="376.01,-83.16 370.42,-74.16 369.18,-84.68 376.01,-83.16"/>
</a>
</g>
</g>
<!-- Node13&#45;&gt;Node8 -->
<g id="edge20_Node000013_Node000008" class="edge">
<title>Node13&#45;&gt;Node8</title>
<g id="a_edge20_Node000013_Node000008"><a xlink:title=" ">
<path fill="none" stroke="#63b8ff" d="M233.63,-164.66C237.86,-147.09 247.4,-107.45 253.06,-83.95"/>
<polygon fill="#63b8ff" stroke="#63b8ff" points="256.48,-84.7 255.42,-74.16 249.67,-83.06 256.48,-84.7"/>
</a>
</g>
</g>
<!-- Node13&#45;&gt;Node10 -->
<g id="edge21_Node000013_Node000010" class="edge">
<title>Node13&#45;&gt;Node10</title>
<g id="a_edge21_Node000013_Node000010"><a xlink:title=" ">
<path fill="none" stroke="#63b8ff" d="M244.67,-164.98C257.27,-156.84 276.5,-144.41 291.44,-134.76"/>
<polygon fill="#63b8ff" stroke="#63b8ff" points="293.59,-137.54 300.09,-129.17 289.79,-131.66 293.59,-137.54"/>
</a>
</g>
</g>
</g>
</svg>
