<?xml version="1.0" encoding="UTF-8" standalone="no"?>
<!DOCTYPE svg PUBLIC "-//W3C//DTD SVG 1.1//EN"
 "http://www.w3.org/Graphics/SVG/1.1/DTD/svg11.dtd">
<!-- Generated by graphviz version 2.43.0 (0)
 -->
<!-- Title: lmmc_svd_result_destroy Pages: 1 -->
<svg width="297pt" height="64pt"
 viewBox="0.00 0.00 297.00 64.00" xmlns="http://www.w3.org/2000/svg" xmlns:xlink="http://www.w3.org/1999/xlink">
<g id="graph0" class="graph" transform="scale(1 1) rotate(0) translate(4 60)">
<title>lmmc_svd_result_destroy</title>
<!-- Node1 -->
<g id="Node000001" class="node">
<title>Node1</title>
<g id="a_Node000001"><a xlink:title="释放 lmmc_svd 输出结果。">
<polygon fill="#999999" stroke="#666666" points="142,-37 0,-37 0,-18 142,-18 142,-37"/>
<text text-anchor="middle" x="71" y="-25" font-family="Helvetica,sans-Serif" font-size="10.00">lmmc_svd_result_destroy</text>
</a>
</g>
</g>
<!-- Node2 -->
<g id="Node000002" class="node">
<title>Node2</title>
<g id="a_Node000002"><a xlink:href="dense_8c.html#ad3ffb292f06884dbb65e2cf5b3074c69" target="_top" xlink:title="销毁矩阵，释放其拥有的底层缓冲区。">
<polygon fill="white" stroke="#666666" points="289,-56 178,-56 178,-37 289,-37 289,-56"/>
<text text-anchor="middle" x="233.5" y="-44" font-family="Helvetica,sans-Serif" font-size="10.00">lmmc_mat_destroy</text>
</a>
</g>
</g>
<!-- Node1&#45;&gt;Node2 -->
<g id="edge1_Node000001_Node000002" class="edge">
<title>Node1&#45;&gt;Node2</title>
<g id="a_edge1_Node000001_Node000002"><a xlink:title=" ">
<path fill="none" stroke="#63b8ff" d="M142.4,-35.83C150.78,-36.83 159.31,-37.84 167.61,-38.82"/>
<polygon fill="#63b8ff" stroke="#63b8ff" points="167.26,-42.3 177.6,-40 168.08,-35.35 167.26,-42.3"/>
</a>
</g>
</g>
<!-- Node3 -->
<g id="Node000003" class="node">
<title>Node3</title>
<g id="a_Node000003"><a xlink:href="dense_8c.html#aeda4a0d3e0c54b575a9b78413118e5f0" target="_top" xlink:title="销毁向量，释放其拥有的底层缓冲区。">
<polygon fill="white" stroke="#666666" points="288,-19 179,-19 179,0 288,0 288,-19"/>
<text text-anchor="middle" x="233.5" y="-7" font-family="Helvetica,sans-Serif" font-size="10.00">lmmc_vec_destroy</text>
</a>
</g>
</g>
<!-- Node1&#45;&gt;Node3 -->
<g id="edge2_Node000001_Node000003" class="edge">
<title>Node1&#45;&gt;Node3</title>
<g id="a_edge2_Node000001_Node000003"><a xlink:title=" ">
<path fill="none" stroke="#63b8ff" d="M142.4,-19.6C151.12,-18.63 159.99,-17.63 168.6,-16.67"/>
<polygon fill="#63b8ff" stroke="#63b8ff" points="169.02,-20.14 178.57,-15.55 168.24,-13.18 169.02,-20.14"/>
</a>
</g>
</g>
</g>
</svg>
