<?xml version="1.0" encoding="UTF-8" standalone="no"?>
<!DOCTYPE svg PUBLIC "-//W3C//DTD SVG 1.1//EN"
 "http://www.w3.org/Graphics/SVG/1.1/DTD/svg11.dtd">
<!-- Generated by graphviz version 2.43.0 (0)
 -->
<!-- Title: lmmc_svd Pages: 1 -->
<svg width="248pt" height="175pt"
 viewBox="0.00 0.00 248.00 175.00" xmlns="http://www.w3.org/2000/svg" xmlns:xlink="http://www.w3.org/1999/xlink">

<svg id="main" version="1.1" xmlns="http://www.w3.org/2000/svg" xmlns:xlink="http://www.w3.org/1999/xlink" xml:space="preserve" onload="init(evt)">
<style type="text/css"><![CDATA[
.node, .edge {opacity: 0.7;}
.node.selected, .edge.selected {opacity: 1;}
.edge:hover path { stroke: red; }
.edge:hover polygon { stroke: red; fill: red; }
]]></style>
<script type="application/ecmascript" xlink:href="svg.min.js"/>
<svg id="graph" class="graph">
<g id="graph0" class="graph" transform="scale(1 1) rotate(0) translate(4 171)">
<title>lmmc_svd</title>
<!-- Node1 -->
<g id="Node000001" class="node">
<title>Node1</title>
<g id="a_Node000001"><a xlink:title="计算奇异值分解：A = U * Σ * V^T。">
<polygon fill="#999999" stroke="#666666" points="67,-93 0,-93 0,-74 67,-74 67,-93"/>
<text text-anchor="middle" x="33.5" y="-81" font-family="Helvetica,sans-Serif" font-size="10.00">lmmc_svd</text>
</a>
</g>
</g>
<!-- Node2 -->
<g id="Node000002" class="node">
<title>Node2</title>
<g id="a_Node000002"><a xlink:href="dense_8c.html#a0fc9bc3b95589478a194ea553bd69c8f" target="_top" xlink:title="分配并初始化一个 rows × cols 的稠密矩阵，所有元素置零。">
<polygon fill="white" stroke="#666666" points="224,-167 119,-167 119,-148 224,-148 224,-167"/>
<text text-anchor="middle" x="171.5" y="-155" font-family="Helvetica,sans-Serif" font-size="10.00">lmmc_mat_create</text>
</a>
</g>
</g>
<!-- Node1&#45;&gt;Node2 -->
<g id="edge1_Node000001_Node000002" class="edge">
<title>Node1&#45;&gt;Node2</title>
<g id="a_edge1_Node000001_Node000002"><a xlink:title=" ">
<path fill="none" stroke="#63b8ff" d="M43.76,-93.31C56.11,-105.83 79.21,-127.32 103,-139.5 106.7,-141.4 110.63,-143.11 114.65,-144.65"/>
<polygon fill="#63b8ff" stroke="#63b8ff" points="113.54,-147.97 124.14,-147.95 115.84,-141.36 113.54,-147.97"/>
</a>
</g>
</g>
<!-- Node3 -->
<g id="Node000003" class="node">
<title>Node3</title>
<g id="a_Node000003"><a xlink:href="dense_8c.html#ad3ffb292f06884dbb65e2cf5b3074c69" target="_top" xlink:title="销毁矩阵，释放其拥有的底层缓冲区。">
<polygon fill="white" stroke="#666666" points="227,-130 116,-130 116,-111 227,-111 227,-130"/>
<text text-anchor="middle" x="171.5" y="-118" font-family="Helvetica,sans-Serif" font-size="10.00">lmmc_mat_destroy</text>
</a>
</g>
</g>
<!-- Node1&#45;&gt;Node3 -->
<g id="edge2_Node000001_Node000003" class="edge">
<title>Node1&#45;&gt;Node3</title>
<g id="a_edge2_Node000001_Node000003"><a xlink:title=" ">
<path fill="none" stroke="#63b8ff" d="M67.23,-92.65C78.56,-95.8 91.33,-99.33 103,-102.5 110,-104.4 117.41,-106.4 124.67,-108.34"/>
<polygon fill="#63b8ff" stroke="#63b8ff" points="123.84,-111.74 134.4,-110.94 125.64,-104.98 123.84,-111.74"/>
</a>
</g>
</g>
<!-- Node4 -->
<g id="Node000004" class="node">
<title>Node4</title>
<g id="a_Node000004"><a xlink:href="dense_8c.html#a91c39f6be5b8dd41c7140b2e170f665e" target="_top" xlink:title="计算矩阵转置：dst = src^T。">
<polygon fill="white" stroke="#666666" points="240,-93 103,-93 103,-74 240,-74 240,-93"/>
<text text-anchor="middle" x="171.5" y="-81" font-family="Helvetica,sans-Serif" font-size="10.00">lmmc_mat_transpose_to</text>
</a>
</g>
</g>
<!-- Node1&#45;&gt;Node4 -->
<g id="edge3_Node000001_Node000004" class="edge">
<title>Node1&#45;&gt;Node4</title>
<g id="a_edge3_Node000001_Node000004"><a xlink:title=" ">
<path fill="none" stroke="#63b8ff" d="M67.08,-83.5C74.95,-83.5 83.71,-83.5 92.71,-83.5"/>
<polygon fill="#63b8ff" stroke="#63b8ff" points="92.92,-87 102.92,-83.5 92.92,-80 92.92,-87"/>
</a>
</g>
</g>
<!-- Node5 -->
<g id="Node000005" class="node">
<title>Node5</title>
<g id="a_Node000005"><a xlink:href="dense_8c.html#ab1ff7e1a56dc108100975e953774a2ad" target="_top" xlink:title="分配并初始化一个长度为 size 的稠密向量，所有元素置零。">
<polygon fill="white" stroke="#666666" points="223,-56 120,-56 120,-37 223,-37 223,-56"/>
<text text-anchor="middle" x="171.5" y="-44" font-family="Helvetica,sans-Serif" font-size="10.00">lmmc_vec_create</text>
</a>
</g>
</g>
<!-- Node1&#45;&gt;Node5 -->
<g id="edge4_Node000001_Node000005" class="edge">
<title>Node1&#45;&gt;Node5</title>
<g id="a_edge4_Node000001_Node000005"><a xlink:title=" ">
<path fill="none" stroke="#63b8ff" d="M67.08,-74.64C84.61,-69.87 106.5,-63.91 125.62,-58.71"/>
<polygon fill="#63b8ff" stroke="#63b8ff" points="126.6,-62.07 135.33,-56.07 124.76,-55.32 126.6,-62.07"/>
</a>
</g>
</g>
<!-- Node6 -->
<g id="Node000006" class="node">
<title>Node6</title>
<g id="a_Node000006"><a xlink:href="dense_8c.html#aeda4a0d3e0c54b575a9b78413118e5f0" target="_top" xlink:title="销毁向量，释放其拥有的底层缓冲区。">
<polygon fill="white" stroke="#666666" points="226,-19 117,-19 117,0 226,0 226,-19"/>
<text text-anchor="middle" x="171.5" y="-7" font-family="Helvetica,sans-Serif" font-size="10.00">lmmc_vec_destroy</text>
</a>
</g>
</g>
<!-- Node1&#45;&gt;Node6 -->
<g id="edge5_Node000001_Node000006" class="edge">
<title>Node1&#45;&gt;Node6</title>
<g id="a_edge5_Node000001_Node000006"><a xlink:title=" ">
<path fill="none" stroke="#63b8ff" d="M43.82,-73.92C56.24,-61.69 79.41,-40.65 103,-28.5 107.49,-26.19 112.29,-24.13 117.19,-22.3"/>
<polygon fill="#63b8ff" stroke="#63b8ff" points="118.34,-25.61 126.67,-19.06 116.07,-18.98 118.34,-25.61"/>
</a>
</g>
</g>
</g>
</svg>
</svg>

<style type='text/css'>
<![CDATA[
[data-mouse-over-selected='false'] { opacity: 0.7; }
[data-mouse-over-selected='true']  { opacity: 1.0; }
]]>
</style>
<script type="application/ecmascript"><![CDATA[
document.addEventListener('DOMContentLoaded', (event) => {
  highlightEdges();
  highlightAdjacentNodes();
});
]]></script>
</svg>
