<?xml version="1.0" encoding="UTF-8" standalone="no"?>
<!DOCTYPE svg PUBLIC "-//W3C//DTD SVG 1.1//EN"
 "http://www.w3.org/Graphics/SVG/1.1/DTD/svg11.dtd">
<!-- Generated by graphviz version 2.43.0 (0)
 -->
<!-- Title: lmmc_cond Pages: 1 -->
<svg width="432pt" height="175pt"
 viewBox="0.00 0.00 432.00 175.00" xmlns="http://www.w3.org/2000/svg" xmlns:xlink="http://www.w3.org/1999/xlink">

<svg id="main" version="1.1" xmlns="http://www.w3.org/2000/svg" xmlns:xlink="http://www.w3.org/1999/xlink" xml:space="preserve" onload="init(evt)">
<style type="text/css"><![CDATA[
.node, .edge {opacity: 0.7;}
.node.selected, .edge.selected {opacity: 1;}
.edge:hover path { stroke: red; }
.edge:hover polygon { stroke: red; fill: red; }
]]></style>
<script type="application/ecmascript" xlink:href="svg.min.js"/>
<svg id="graph" class="graph">
<g id="graph0" class="graph" transform="scale(1 1) rotate(0) translate(4 171)">
<title>lmmc_cond</title>
<!-- Node1 -->
<g id="Node000001" class="node">
<title>Node1</title>
<g id="a_Node000001"><a xlink:title="计算矩阵的 2&#45;范数条件数：κ₂(A) = σ_max / σ_min。">
<polygon fill="#999999" stroke="#666666" points="73,-111 0,-111 0,-92 73,-92 73,-111"/>
<text text-anchor="middle" x="36.5" y="-99" font-family="Helvetica,sans-Serif" font-size="10.00">lmmc_cond</text>
</a>
</g>
</g>
<!-- Node2 -->
<g id="Node000002" class="node">
<title>Node2</title>
<g id="a_Node000002"><a xlink:href="eigen_8c.html#a1631a4e13e9d6edff7115e2b0526bd1d" target="_top" xlink:title="计算奇异值分解：A = U * Σ * V^T。">
<polygon fill="white" stroke="#666666" points="213.5,-93 146.5,-93 146.5,-74 213.5,-74 213.5,-93"/>
<text text-anchor="middle" x="180" y="-81" font-family="Helvetica,sans-Serif" font-size="10.00">lmmc_svd</text>
</a>
</g>
</g>
<!-- Node1&#45;&gt;Node2 -->
<g id="edge1_Node000001_Node000002" class="edge">
<title>Node1&#45;&gt;Node2</title>
<g id="a_edge1_Node000001_Node000002"><a xlink:title=" ">
<path fill="none" stroke="#63b8ff" d="M73.21,-96.96C92.31,-94.53 115.97,-91.52 136.07,-88.96"/>
<polygon fill="#63b8ff" stroke="#63b8ff" points="136.74,-92.4 146.21,-87.67 135.85,-85.46 136.74,-92.4"/>
</a>
</g>
</g>
<!-- Node8 -->
<g id="Node000008" class="node">
<title>Node8</title>
<g id="a_Node000008"><a xlink:href="eigen_8c.html#abfa5e95f384f44c01900307960ead05f" target="_top" xlink:title="释放 lmmc_svd 输出结果。">
<polygon fill="white" stroke="#666666" points="251,-130 109,-130 109,-111 251,-111 251,-130"/>
<text text-anchor="middle" x="180" y="-118" font-family="Helvetica,sans-Serif" font-size="10.00">lmmc_svd_result_destroy</text>
</a>
</g>
</g>
<!-- Node1&#45;&gt;Node8 -->
<g id="edge7_Node000001_Node000008" class="edge">
<title>Node1&#45;&gt;Node8</title>
<g id="a_edge7_Node000001_Node000008"><a xlink:title=" ">
<path fill="none" stroke="#63b8ff" d="M73.21,-106.29C81.12,-107.36 89.81,-108.52 98.71,-109.72"/>
<polygon fill="#63b8ff" stroke="#63b8ff" points="98.44,-113.21 108.81,-111.08 99.37,-106.28 98.44,-113.21"/>
</a>
</g>
</g>
<!-- Node3 -->
<g id="Node000003" class="node">
<title>Node3</title>
<g id="a_Node000003"><a xlink:href="dense_8c.html#a0fc9bc3b95589478a194ea553bd69c8f" target="_top" xlink:title="分配并初始化一个 rows × cols 的稠密矩阵，所有元素置零。">
<polygon fill="white" stroke="#666666" points="408,-93 303,-93 303,-74 408,-74 408,-93"/>
<text text-anchor="middle" x="355.5" y="-81" font-family="Helvetica,sans-Serif" font-size="10.00">lmmc_mat_create</text>
</a>
</g>
</g>
<!-- Node2&#45;&gt;Node3 -->
<g id="edge2_Node000002_Node000003" class="edge">
<title>Node2&#45;&gt;Node3</title>
<g id="a_edge2_Node000002_Node000003"><a xlink:title=" ">
<path fill="none" stroke="#63b8ff" d="M213.63,-83.5C235.92,-83.5 266.13,-83.5 292.86,-83.5"/>
<polygon fill="#63b8ff" stroke="#63b8ff" points="292.91,-87 302.91,-83.5 292.91,-80 292.91,-87"/>
</a>
</g>
</g>
<!-- Node4 -->
<g id="Node000004" class="node">
<title>Node4</title>
<g id="a_Node000004"><a xlink:href="dense_8c.html#ad3ffb292f06884dbb65e2cf5b3074c69" target="_top" xlink:title="销毁矩阵，释放其拥有的底层缓冲区。">
<polygon fill="white" stroke="#666666" points="411,-130 300,-130 300,-111 411,-111 411,-130"/>
<text text-anchor="middle" x="355.5" y="-118" font-family="Helvetica,sans-Serif" font-size="10.00">lmmc_mat_destroy</text>
</a>
</g>
</g>
<!-- Node2&#45;&gt;Node4 -->
<g id="edge3_Node000002_Node000004" class="edge">
<title>Node2&#45;&gt;Node4</title>
<g id="a_edge3_Node000002_Node000004"><a xlink:title=" ">
<path fill="none" stroke="#63b8ff" d="M213.63,-90.46C237.96,-95.65 271.73,-102.85 300.11,-108.9"/>
<polygon fill="#63b8ff" stroke="#63b8ff" points="299.39,-112.33 309.9,-110.99 300.85,-105.48 299.39,-112.33"/>
</a>
</g>
</g>
<!-- Node5 -->
<g id="Node000005" class="node">
<title>Node5</title>
<g id="a_Node000005"><a xlink:href="dense_8c.html#a91c39f6be5b8dd41c7140b2e170f665e" target="_top" xlink:title="计算矩阵转置：dst = src^T。">
<polygon fill="white" stroke="#666666" points="424,-56 287,-56 287,-37 424,-37 424,-56"/>
<text text-anchor="middle" x="355.5" y="-44" font-family="Helvetica,sans-Serif" font-size="10.00">lmmc_mat_transpose_to</text>
</a>
</g>
</g>
<!-- Node2&#45;&gt;Node5 -->
<g id="edge4_Node000002_Node000005" class="edge">
<title>Node2&#45;&gt;Node5</title>
<g id="a_edge4_Node000002_Node000005"><a xlink:title=" ">
<path fill="none" stroke="#63b8ff" d="M213.63,-76.54C237.96,-71.35 271.73,-64.15 300.11,-58.1"/>
<polygon fill="#63b8ff" stroke="#63b8ff" points="300.85,-61.52 309.9,-56.01 299.39,-54.67 300.85,-61.52"/>
</a>
</g>
</g>
<!-- Node6 -->
<g id="Node000006" class="node">
<title>Node6</title>
<g id="a_Node000006"><a xlink:href="dense_8c.html#ab1ff7e1a56dc108100975e953774a2ad" target="_top" xlink:title="分配并初始化一个长度为 size 的稠密向量，所有元素置零。">
<polygon fill="white" stroke="#666666" points="407,-19 304,-19 304,0 407,0 407,-19"/>
<text text-anchor="middle" x="355.5" y="-7" font-family="Helvetica,sans-Serif" font-size="10.00">lmmc_vec_create</text>
</a>
</g>
</g>
<!-- Node2&#45;&gt;Node6 -->
<g id="edge5_Node000002_Node000006" class="edge">
<title>Node2&#45;&gt;Node6</title>
<g id="a_edge5_Node000002_Node000006"><a xlink:title=" ">
<path fill="none" stroke="#63b8ff" d="M196.63,-73.8C216.85,-61.59 253.47,-40.63 287,-27.5 292.08,-25.51 297.46,-23.66 302.88,-21.97"/>
<polygon fill="#63b8ff" stroke="#63b8ff" points="304.02,-25.28 312.62,-19.09 302.03,-18.57 304.02,-25.28"/>
</a>
</g>
</g>
<!-- Node7 -->
<g id="Node000007" class="node">
<title>Node7</title>
<g id="a_Node000007"><a xlink:href="dense_8c.html#aeda4a0d3e0c54b575a9b78413118e5f0" target="_top" xlink:title="销毁向量，释放其拥有的底层缓冲区。">
<polygon fill="white" stroke="#666666" points="410,-167 301,-167 301,-148 410,-148 410,-167"/>
<text text-anchor="middle" x="355.5" y="-155" font-family="Helvetica,sans-Serif" font-size="10.00">lmmc_vec_destroy</text>
</a>
</g>
</g>
<!-- Node2&#45;&gt;Node7 -->
<g id="edge6_Node000002_Node000007" class="edge">
<title>Node2&#45;&gt;Node7</title>
<g id="a_edge6_Node000002_Node000007"><a xlink:title=" ">
<path fill="none" stroke="#63b8ff" d="M213.79,-88.61C226.05,-91.47 239.71,-95.86 251,-102.5 270.77,-114.14 267.2,-127.9 287,-139.5 290.02,-141.27 293.22,-142.87 296.52,-144.31"/>
<polygon fill="#63b8ff" stroke="#63b8ff" points="295.42,-147.64 306.01,-147.99 297.95,-141.12 295.42,-147.64"/>
</a>
</g>
</g>
<!-- Node8&#45;&gt;Node4 -->
<g id="edge8_Node000008_Node000004" class="edge">
<title>Node8&#45;&gt;Node4</title>
<g id="a_edge8_Node000008_Node000004"><a xlink:title=" ">
<path fill="none" stroke="#63b8ff" d="M251.07,-120.5C263.78,-120.5 276.99,-120.5 289.54,-120.5"/>
<polygon fill="#63b8ff" stroke="#63b8ff" points="289.91,-124 299.91,-120.5 289.91,-117 289.91,-124"/>
</a>
</g>
</g>
<!-- Node8&#45;&gt;Node7 -->
<g id="edge9_Node000008_Node000007" class="edge">
<title>Node8&#45;&gt;Node7</title>
<g id="a_edge9_Node000008_Node000007"><a xlink:title=" ">
<path fill="none" stroke="#63b8ff" d="M225.68,-130.03C248.26,-134.84 275.85,-140.73 299.7,-145.81"/>
<polygon fill="#63b8ff" stroke="#63b8ff" points="299.16,-149.28 309.67,-147.94 300.62,-142.43 299.16,-149.28"/>
</a>
</g>
</g>
</g>
</svg>
</svg>

<style type='text/css'>
<![CDATA[
[data-mouse-over-selected='false'] { opacity: 0.7; }
[data-mouse-over-selected='true']  { opacity: 1.0; }
]]>
</style>
<script type="application/ecmascript"><![CDATA[
document.addEventListener('DOMContentLoaded', (event) => {
  highlightEdges();
  highlightAdjacentNodes();
});
]]></script>
</svg>
