<?xml version="1.0" encoding="UTF-8" standalone="no"?>
<!DOCTYPE svg PUBLIC "-//W3C//DTD SVG 1.1//EN"
 "http://www.w3.org/Graphics/SVG/1.1/DTD/svg11.dtd">
<!-- Generated by graphviz version 2.43.0 (0)
 -->
<!-- Title: /home/runner/work/docs/docs/LMMC/src/fft.c Pages: 1 -->
<svg width="444pt" height="203pt"
 viewBox="0.00 0.00 444.25 203.00" xmlns="http://www.w3.org/2000/svg" xmlns:xlink="http://www.w3.org/1999/xlink">

<svg id="main" version="1.1" xmlns="http://www.w3.org/2000/svg" xmlns:xlink="http://www.w3.org/1999/xlink" xml:space="preserve" onload="init(evt)">
<style type="text/css"><![CDATA[
.node, .edge {opacity: 0.7;}
.node.selected, .edge.selected {opacity: 1;}
.edge:hover path { stroke: red; }
.edge:hover polygon { stroke: red; fill: red; }
]]></style>
<script type="application/ecmascript" xlink:href="svg.min.js"/>
<svg id="graph" class="graph">
<g id="graph0" class="graph" transform="scale(1 1) rotate(0) translate(4 199)">
<title>/home/runner/work/docs/docs/LMMC/src/fft.c</title>
<!-- Node1 -->
<g id="Node000001" class="node">
<title>Node1</title>
<g id="a_Node000001"><a xlink:title="True N&#45;point FFT with radix&#45;2 Cooley&#45;Tukey and Bluestein chirp&#45;z.">
<polygon fill="#999999" stroke="#666666" points="206.25,-195 72.25,-195 72.25,-165 206.25,-165 206.25,-195"/>
<text text-anchor="start" x="80.25" y="-183" font-family="Helvetica,sans-Serif" font-size="10.00">/home/runner/work/docs</text>
<text text-anchor="middle" x="139.25" y="-172" font-family="Helvetica,sans-Serif" font-size="10.00">/docs/LMMC/src/fft.c</text>
</a>
</g>
</g>
<!-- Node2 -->
<g id="Node000002" class="node">
<title>Node2</title>
<g id="a_Node000002"><a xlink:title=" ">
<polygon fill="#e0e0e0" stroke="#999999" points="122.75,-19 71.75,-19 71.75,0 122.75,0 122.75,-19"/>
<text text-anchor="middle" x="97.25" y="-7" font-family="Helvetica,sans-Serif" font-size="10.00">math.h</text>
</a>
</g>
</g>
<!-- Node1&#45;&gt;Node2 -->
<g id="edge1_Node000001_Node000002" class="edge">
<title>Node1&#45;&gt;Node2</title>
<g id="a_edge1_Node000001_Node000002"><a xlink:title=" ">
<path fill="none" stroke="#63b8ff" d="M71.95,-169.73C47.42,-162.74 22.08,-150.48 7.25,-129 -19.56,-90.17 37.72,-46.42 72.73,-24.54"/>
<polygon fill="#63b8ff" stroke="#63b8ff" points="74.77,-27.39 81.51,-19.22 71.14,-21.41 74.77,-27.39"/>
</a>
</g>
</g>
<!-- Node3 -->
<g id="Node000003" class="node">
<title>Node3</title>
<g id="a_Node000003"><a xlink:title=" ">
<polygon fill="#e0e0e0" stroke="#999999" points="69.75,-129 16.75,-129 16.75,-110 69.75,-110 69.75,-129"/>
<text text-anchor="middle" x="43.25" y="-117" font-family="Helvetica,sans-Serif" font-size="10.00">string.h</text>
</a>
</g>
</g>
<!-- Node1&#45;&gt;Node3 -->
<g id="edge2_Node000001_Node000003" class="edge">
<title>Node1&#45;&gt;Node3</title>
<g id="a_edge2_Node000001_Node000003"><a xlink:title=" ">
<path fill="none" stroke="#63b8ff" d="M116.01,-164.84C100.85,-155.6 81.14,-143.59 66.07,-134.4"/>
<polygon fill="#63b8ff" stroke="#63b8ff" points="67.72,-131.31 57.36,-129.09 64.08,-137.29 67.72,-131.31"/>
</a>
</g>
</g>
<!-- Node4 -->
<g id="Node000004" class="node">
<title>Node4</title>
<g id="a_Node000004"><a xlink:href="memory__bridge_8h.html" target="_top" xlink:title="内存分配抽象层，可在标准库 malloc 与 LAMMP 栈分配器之间切换。">
<polygon fill="white" stroke="#666666" points="190.75,-129 87.75,-129 87.75,-110 190.75,-110 190.75,-129"/>
<text text-anchor="middle" x="139.25" y="-117" font-family="Helvetica,sans-Serif" font-size="10.00">memory_bridge.h</text>
</a>
</g>
</g>
<!-- Node1&#45;&gt;Node4 -->
<g id="edge3_Node000001_Node000004" class="edge">
<title>Node1&#45;&gt;Node4</title>
<g id="a_edge3_Node000001_Node000004"><a xlink:title=" ">
<path fill="none" stroke="#63b8ff" d="M139.25,-164.84C139.25,-157.21 139.25,-147.7 139.25,-139.45"/>
<polygon fill="#63b8ff" stroke="#63b8ff" points="142.75,-139.27 139.25,-129.27 135.75,-139.27 142.75,-139.27"/>
</a>
</g>
</g>
<!-- Node6 -->
<g id="Node000006" class="node">
<title>Node6</title>
<g id="a_Node000006"><a xlink:href="config_8h.html" target="_top" xlink:title="LMMC 实数类型与基本运算抽象。">
<polygon fill="white" stroke="#666666" points="258.25,-74 172.25,-74 172.25,-55 258.25,-55 258.25,-74"/>
<text text-anchor="middle" x="215.25" y="-62" font-family="Helvetica,sans-Serif" font-size="10.00">lmmc/config.h</text>
</a>
</g>
</g>
<!-- Node1&#45;&gt;Node6 -->
<g id="edge5_Node000001_Node000006" class="edge">
<title>Node1&#45;&gt;Node6</title>
<g id="a_edge5_Node000001_Node000006"><a xlink:title=" ">
<path fill="none" stroke="#63b8ff" d="M162.62,-164.81C175.25,-156 190.08,-143.58 199.25,-129 207.68,-115.6 211.67,-98 213.56,-84.72"/>
<polygon fill="#63b8ff" stroke="#63b8ff" points="217.09,-84.72 214.74,-74.39 210.13,-83.93 217.09,-84.72"/>
</a>
</g>
</g>
<!-- Node7 -->
<g id="Node000007" class="node">
<title>Node7</title>
<g id="a_Node000007"><a xlink:href="numeric_8h.html" target="_top" xlink:title="数值常量、特殊值、近似比较与基本数学补充函数。">
<polygon fill="white" stroke="#666666" points="349.25,-129 253.25,-129 253.25,-110 349.25,-110 349.25,-129"/>
<text text-anchor="middle" x="301.25" y="-117" font-family="Helvetica,sans-Serif" font-size="10.00">lmmc/numeric.h</text>
</a>
</g>
</g>
<!-- Node1&#45;&gt;Node7 -->
<g id="edge7_Node000001_Node000007" class="edge">
<title>Node1&#45;&gt;Node7</title>
<g id="a_edge7_Node000001_Node000007"><a xlink:title=" ">
<path fill="none" stroke="#63b8ff" d="M178.06,-164.99C205.45,-155.1 241.77,-141.98 267.87,-132.56"/>
<polygon fill="#63b8ff" stroke="#63b8ff" points="269.11,-135.83 277.33,-129.14 266.73,-129.24 269.11,-135.83"/>
</a>
</g>
</g>
<!-- Node5 -->
<g id="Node000005" class="node">
<title>Node5</title>
<g id="a_Node000005"><a xlink:title=" ">
<polygon fill="#e0e0e0" stroke="#999999" points="153.75,-74 100.75,-74 100.75,-55 153.75,-55 153.75,-74"/>
<text text-anchor="middle" x="127.25" y="-62" font-family="Helvetica,sans-Serif" font-size="10.00">stdlib.h</text>
</a>
</g>
</g>
<!-- Node4&#45;&gt;Node5 -->
<g id="edge4_Node000004_Node000005" class="edge">
<title>Node4&#45;&gt;Node5</title>
<g id="a_edge4_Node000004_Node000005"><a xlink:title=" ">
<path fill="none" stroke="#63b8ff" d="M137.27,-109.75C135.68,-102.72 133.39,-92.62 131.41,-83.84"/>
<polygon fill="#63b8ff" stroke="#63b8ff" points="134.82,-83.07 129.2,-74.09 127.99,-84.62 134.82,-83.07"/>
</a>
</g>
</g>
<!-- Node6&#45;&gt;Node2 -->
<g id="edge6_Node000006_Node000002" class="edge">
<title>Node6&#45;&gt;Node2</title>
<g id="a_edge6_Node000006_Node000002"><a xlink:title=" ">
<path fill="none" stroke="#63b8ff" d="M196.29,-54.98C177.23,-46.42 147.59,-33.11 125.71,-23.28"/>
<polygon fill="#63b8ff" stroke="#63b8ff" points="127.11,-20.07 116.56,-19.17 124.25,-26.46 127.11,-20.07"/>
</a>
</g>
</g>
<!-- Node7&#45;&gt;Node6 -->
<g id="edge9_Node000007_Node000006" class="edge">
<title>Node7&#45;&gt;Node6</title>
<g id="a_edge9_Node000007_Node000006"><a xlink:title=" ">
<path fill="none" stroke="#63b8ff" d="M287.44,-109.98C274.1,-101.77 253.67,-89.18 237.95,-79.49"/>
<polygon fill="#63b8ff" stroke="#63b8ff" points="239.67,-76.44 229.32,-74.17 236,-82.4 239.67,-76.44"/>
</a>
</g>
</g>
<!-- Node8 -->
<g id="Node000008" class="node">
<title>Node8</title>
<g id="a_Node000008"><a xlink:title=" ">
<polygon fill="#e0e0e0" stroke="#999999" points="332.25,-74 276.25,-74 276.25,-55 332.25,-55 332.25,-74"/>
<text text-anchor="middle" x="304.25" y="-62" font-family="Helvetica,sans-Serif" font-size="10.00">stddef.h</text>
</a>
</g>
</g>
<!-- Node7&#45;&gt;Node8 -->
<g id="edge8_Node000007_Node000008" class="edge">
<title>Node7&#45;&gt;Node8</title>
<g id="a_edge8_Node000007_Node000008"><a xlink:title=" ">
<path fill="none" stroke="#63b8ff" d="M301.75,-109.75C302.14,-102.8 302.71,-92.85 303.2,-84.13"/>
<polygon fill="#63b8ff" stroke="#63b8ff" points="306.7,-84.27 303.77,-74.09 299.71,-83.88 306.7,-84.27"/>
</a>
</g>
</g>
<!-- Node9 -->
<g id="Node000009" class="node">
<title>Node9</title>
<g id="a_Node000009"><a xlink:href="status_8h.html" target="_top" xlink:title="LMMC 通用状态码定义。">
<polygon fill="white" stroke="#666666" points="436.25,-74 350.25,-74 350.25,-55 436.25,-55 436.25,-74"/>
<text text-anchor="middle" x="393.25" y="-62" font-family="Helvetica,sans-Serif" font-size="10.00">lmmc/status.h</text>
</a>
</g>
</g>
<!-- Node7&#45;&gt;Node9 -->
<g id="edge10_Node000007_Node000009" class="edge">
<title>Node7&#45;&gt;Node9</title>
<g id="a_edge10_Node000007_Node000009"><a xlink:title=" ">
<path fill="none" stroke="#63b8ff" d="M316.03,-109.98C330.43,-101.69 352.56,-88.94 369.45,-79.22"/>
<polygon fill="#63b8ff" stroke="#63b8ff" points="371.29,-82.19 378.2,-74.17 367.79,-76.13 371.29,-82.19"/>
</a>
</g>
</g>
</g>
</svg>
</svg>

<style type='text/css'>
<![CDATA[
[data-mouse-over-selected='false'] { opacity: 0.7; }
[data-mouse-over-selected='true']  { opacity: 1.0; }
]]>
</style>
<script type="application/ecmascript"><![CDATA[
document.addEventListener('DOMContentLoaded', (event) => {
  highlightEdges();
  highlightAdjacentNodes();
});
]]></script>
</svg>
