<?xml version="1.0" encoding="UTF-8" standalone="no"?>
<!DOCTYPE svg PUBLIC "-//W3C//DTD SVG 1.1//EN"
 "http://www.w3.org/Graphics/SVG/1.1/DTD/svg11.dtd">
<!-- Generated by graphviz version 2.43.0 (0)
 -->
<!-- Title: /home/runner/work/docs/docs/LMMC/src/internal.h Pages: 1 -->
<svg width="1094pt" height="115pt"
 viewBox="0.00 0.00 1094.00 115.00" xmlns="http://www.w3.org/2000/svg" xmlns:xlink="http://www.w3.org/1999/xlink">
<g id="graph0" class="graph" transform="scale(1 1) rotate(0) translate(4 111)">
<title>/home/runner/work/docs/docs/LMMC/src/internal.h</title>
<!-- Node1 -->
<g id="Node000001" class="node">
<title>Node1</title>
<g id="a_Node000001"><a xlink:title="LMMC 内部使用的公共工具（仅源文件可见）。">
<polygon fill="#999999" stroke="#666666" points="602,-107 460,-107 460,-77 602,-77 602,-107"/>
<text text-anchor="start" x="468" y="-95" font-family="Helvetica,sans-Serif" font-size="10.00">/home/runner/work/docs</text>
<text text-anchor="middle" x="531" y="-84" font-family="Helvetica,sans-Serif" font-size="10.00">/docs/LMMC/src/internal.h</text>
</a>
</g>
</g>
<!-- Node2 -->
<g id="Node000002" class="node">
<title>Node2</title>
<g id="a_Node000002"><a xlink:href="dense_8c.html" target="_top" xlink:title="稠密矩阵 / 向量运算实现。">
<polygon fill="white" stroke="#666666" points="134,-35.5 0,-35.5 0,-5.5 134,-5.5 134,-35.5"/>
<text text-anchor="start" x="8" y="-23.5" font-family="Helvetica,sans-Serif" font-size="10.00">/home/runner/work/docs</text>
<text text-anchor="middle" x="67" y="-12.5" font-family="Helvetica,sans-Serif" font-size="10.00">/docs/LMMC/src/dense.c</text>
</a>
</g>
</g>
<!-- Node1&#45;&gt;Node2 -->
<g id="edge1_Node000001_Node000002" class="edge">
<title>Node1&#45;&gt;Node2</title>
<g id="a_edge1_Node000001_Node000002"><a xlink:title=" ">
<path fill="none" stroke="#63b8ff" d="M449.43,-83.44C370.6,-75.43 248.01,-61.16 143,-41 134.97,-39.46 126.53,-37.57 118.32,-35.58"/>
<polygon fill="#63b8ff" stroke="#63b8ff" points="449.48,-86.96 459.78,-84.48 450.18,-79.99 449.48,-86.96"/>
</a>
</g>
</g>
<!-- Node3 -->
<g id="Node000003" class="node">
<title>Node3</title>
<g id="a_Node000003"><a xlink:href="eigen_8c.html" target="_top" xlink:title="特征值、奇异值、伪逆与条件数算法实现。">
<polygon fill="white" stroke="#666666" points="286,-35.5 152,-35.5 152,-5.5 286,-5.5 286,-35.5"/>
<text text-anchor="start" x="160" y="-23.5" font-family="Helvetica,sans-Serif" font-size="10.00">/home/runner/work/docs</text>
<text text-anchor="middle" x="219" y="-12.5" font-family="Helvetica,sans-Serif" font-size="10.00">/docs/LMMC/src/eigen.c</text>
</a>
</g>
</g>
<!-- Node1&#45;&gt;Node3 -->
<g id="edge2_Node000001_Node000003" class="edge">
<title>Node1&#45;&gt;Node3</title>
<g id="a_edge2_Node000001_Node000003"><a xlink:title=" ">
<path fill="none" stroke="#63b8ff" d="M451,-74.93C405.22,-65.51 346.76,-53.12 295,-41 287.71,-39.29 280.04,-37.42 272.49,-35.53"/>
<polygon fill="#63b8ff" stroke="#63b8ff" points="450.37,-78.37 460.86,-76.95 451.77,-71.51 450.37,-78.37"/>
</a>
</g>
</g>
<!-- Node4 -->
<g id="Node000004" class="node">
<title>Node4</title>
<g id="a_Node000004"><a xlink:href="interp_8c.html" target="_top" xlink:title="一维插值算法实现：线性、三次样条（多种边界条件）、Lagrange、PCHIP、Akima、二维插值。">
<polygon fill="white" stroke="#666666" points="438,-35.5 304,-35.5 304,-5.5 438,-5.5 438,-35.5"/>
<text text-anchor="start" x="312" y="-23.5" font-family="Helvetica,sans-Serif" font-size="10.00">/home/runner/work/docs</text>
<text text-anchor="middle" x="371" y="-12.5" font-family="Helvetica,sans-Serif" font-size="10.00">/docs/LMMC/src/interp.c</text>
</a>
</g>
</g>
<!-- Node1&#45;&gt;Node4 -->
<g id="edge3_Node000001_Node000004" class="edge">
<title>Node1&#45;&gt;Node4</title>
<g id="a_edge3_Node000001_Node000004"><a xlink:title=" ">
<path fill="none" stroke="#63b8ff" d="M489.11,-72.81C462.3,-61.16 428.04,-46.28 403.33,-35.54"/>
<polygon fill="#63b8ff" stroke="#63b8ff" points="488.06,-76.16 498.62,-76.94 490.84,-69.74 488.06,-76.16"/>
</a>
</g>
</g>
<!-- Node5 -->
<g id="Node000005" class="node">
<title>Node5</title>
<g id="a_Node000005"><a xlink:href="nonlinear_8c.html" target="_top" xlink:title="标量非线性方程求根算法实现。">
<polygon fill="white" stroke="#666666" points="605.5,-35.5 456.5,-35.5 456.5,-5.5 605.5,-5.5 605.5,-35.5"/>
<text text-anchor="start" x="464.5" y="-23.5" font-family="Helvetica,sans-Serif" font-size="10.00">/home/runner/work/docs</text>
<text text-anchor="middle" x="531" y="-12.5" font-family="Helvetica,sans-Serif" font-size="10.00">/docs/LMMC/src/nonlinear.c</text>
</a>
</g>
</g>
<!-- Node1&#45;&gt;Node5 -->
<g id="edge4_Node000001_Node000005" class="edge">
<title>Node1&#45;&gt;Node5</title>
<g id="a_edge4_Node000001_Node000005"><a xlink:title=" ">
<path fill="none" stroke="#63b8ff" d="M531,-66.75C531,-56.31 531,-44.49 531,-35.54"/>
<polygon fill="#63b8ff" stroke="#63b8ff" points="527.5,-66.94 531,-76.94 534.5,-66.94 527.5,-66.94"/>
</a>
</g>
</g>
<!-- Node6 -->
<g id="Node000006" class="node">
<title>Node6</title>
<g id="a_Node000006"><a xlink:href="ode_8c.html" target="_top" xlink:title="ODE 初值问题求解器实现：Euler / RK4 / RK45。">
<polygon fill="white" stroke="#666666" points="758,-35.5 624,-35.5 624,-5.5 758,-5.5 758,-35.5"/>
<text text-anchor="start" x="632" y="-23.5" font-family="Helvetica,sans-Serif" font-size="10.00">/home/runner/work/docs</text>
<text text-anchor="middle" x="691" y="-12.5" font-family="Helvetica,sans-Serif" font-size="10.00">/docs/LMMC/src/ode.c</text>
</a>
</g>
</g>
<!-- Node1&#45;&gt;Node6 -->
<g id="edge5_Node000001_Node000006" class="edge">
<title>Node1&#45;&gt;Node6</title>
<g id="a_edge5_Node000001_Node000006"><a xlink:title=" ">
<path fill="none" stroke="#63b8ff" d="M572.89,-72.81C599.7,-61.16 633.96,-46.28 658.67,-35.54"/>
<polygon fill="#63b8ff" stroke="#63b8ff" points="571.16,-69.74 563.38,-76.94 573.94,-76.16 571.16,-69.74"/>
</a>
</g>
</g>
<!-- Node7 -->
<g id="Node000007" class="node">
<title>Node7</title>
<g id="a_Node000007"><a xlink:href="quadrature_8c.html" target="_top" xlink:title="一元数值积分实现：梯形、Simpson、Gauss、自适应、Romberg、Tanh&#45;Sinh、Gauss&#45;Hermite、Gauss&#45;Laguerre。">
<polygon fill="white" stroke="#666666" points="933.5,-35.5 776.5,-35.5 776.5,-5.5 933.5,-5.5 933.5,-35.5"/>
<text text-anchor="start" x="784.5" y="-23.5" font-family="Helvetica,sans-Serif" font-size="10.00">/home/runner/work/docs</text>
<text text-anchor="middle" x="855" y="-12.5" font-family="Helvetica,sans-Serif" font-size="10.00">/docs/LMMC/src/quadrature.c</text>
</a>
</g>
</g>
<!-- Node1&#45;&gt;Node7 -->
<g id="edge6_Node000001_Node000007" class="edge">
<title>Node1&#45;&gt;Node7</title>
<g id="a_edge6_Node000001_Node000007"><a xlink:title=" ">
<path fill="none" stroke="#63b8ff" d="M607.85,-74.91C654.01,-65.19 713.9,-52.51 767,-41 775.11,-39.24 783.63,-37.38 792.04,-35.52"/>
<polygon fill="#63b8ff" stroke="#63b8ff" points="606.99,-71.51 597.92,-76.99 608.43,-78.36 606.99,-71.51"/>
</a>
</g>
</g>
<!-- Node8 -->
<g id="Node000008" class="node">
<title>Node8</title>
<g id="a_Node000008"><a xlink:href="sparse__direct_8c.html" target="_top" xlink:title=" ">
<polygon fill="white" stroke="#666666" points="1086,-41 952,-41 952,0 1086,0 1086,-41"/>
<text text-anchor="start" x="960" y="-29" font-family="Helvetica,sans-Serif" font-size="10.00">/home/runner/work/docs</text>
<text text-anchor="start" x="960" y="-18" font-family="Helvetica,sans-Serif" font-size="10.00">/docs/LMMC/src/sparse</text>
<text text-anchor="middle" x="1019" y="-7" font-family="Helvetica,sans-Serif" font-size="10.00">_direct.c</text>
</a>
</g>
</g>
<!-- Node1&#45;&gt;Node8 -->
<g id="edge7_Node000001_Node000008" class="edge">
<title>Node1&#45;&gt;Node8</title>
<g id="a_edge7_Node000001_Node000008"><a xlink:title=" ">
<path fill="none" stroke="#63b8ff" d="M612.32,-84.29C695.77,-76.66 829.14,-62.42 943,-41 945.95,-40.45 948.95,-39.84 951.97,-39.2"/>
<polygon fill="#63b8ff" stroke="#63b8ff" points="611.79,-80.82 602.15,-85.21 612.42,-87.79 611.79,-80.82"/>
</a>
</g>
</g>
</g>
</svg>
