<?xml version="1.0" encoding="UTF-8" standalone="no"?>
<!DOCTYPE svg PUBLIC "-//W3C//DTD SVG 1.1//EN"
 "http://www.w3.org/Graphics/SVG/1.1/DTD/svg11.dtd">
<!-- Generated by graphviz version 2.43.0 (0)
 -->
<!-- Title: lmmc_gmres_solve Pages: 1 -->
<svg width="429pt" height="138pt"
 viewBox="0.00 0.00 429.00 138.00" xmlns="http://www.w3.org/2000/svg" xmlns:xlink="http://www.w3.org/1999/xlink">

<svg id="main" version="1.1" xmlns="http://www.w3.org/2000/svg" xmlns:xlink="http://www.w3.org/1999/xlink" xml:space="preserve" onload="init(evt)">
<style type="text/css"><![CDATA[
.node, .edge {opacity: 0.7;}
.node.selected, .edge.selected {opacity: 1;}
.edge:hover path { stroke: red; }
.edge:hover polygon { stroke: red; fill: red; }
]]></style>
<script type="application/ecmascript" xlink:href="svg.min.js"/>
<svg id="graph" class="graph">
<g id="graph0" class="graph" transform="scale(1 1) rotate(0) translate(4 134)">
<title>lmmc_gmres_solve</title>
<!-- Node1 -->
<g id="Node000001" class="node">
<title>Node1</title>
<g id="a_Node000001"><a xlink:title="重启型 GMRES 求解一般非对称稀疏系统 A*x = b。">
<polygon fill="#999999" stroke="#666666" points="112,-74 0,-74 0,-55 112,-55 112,-74"/>
<text text-anchor="middle" x="56" y="-62" font-family="Helvetica,sans-Serif" font-size="10.00">lmmc_gmres_solve</text>
</a>
</g>
</g>
<!-- Node2 -->
<g id="Node000002" class="node">
<title>Node2</title>
<g id="a_Node000002"><a xlink:href="sparse_8c.html#aa713e5ac22639c42d574987d15e1d02d" target="_top" xlink:title="稀疏矩阵&#45;稠密向量乘法：y = A * x。">
<polygon fill="white" stroke="#666666" points="301,-130 148,-130 148,-111 301,-111 301,-130"/>
<text text-anchor="middle" x="224.5" y="-118" font-family="Helvetica,sans-Serif" font-size="10.00">lmmc_sparse_mat_vec_mul</text>
</a>
</g>
</g>
<!-- Node1&#45;&gt;Node2 -->
<g id="edge1_Node000001_Node000002" class="edge">
<title>Node1&#45;&gt;Node2</title>
<g id="a_edge1_Node000001_Node000002"><a xlink:title=" ">
<path fill="none" stroke="#63b8ff" d="M77.24,-74.07C95.45,-82.4 123.09,-94.39 148,-102.5 154.46,-104.6 161.3,-106.57 168.12,-108.39"/>
<polygon fill="#63b8ff" stroke="#63b8ff" points="167.5,-111.84 178.05,-110.92 169.23,-105.06 167.5,-111.84"/>
</a>
</g>
</g>
<!-- Node4 -->
<g id="Node000004" class="node">
<title>Node4</title>
<g id="a_Node000004"><a xlink:href="dense_8c.html#ab3b3522edc7a0e0d928ebf48e9044f12" target="_top" xlink:title="逐元素复制向量内容：dst = src。">
<polygon fill="white" stroke="#666666" points="272,-93 177,-93 177,-74 272,-74 272,-93"/>
<text text-anchor="middle" x="224.5" y="-81" font-family="Helvetica,sans-Serif" font-size="10.00">lmmc_vec_copy</text>
</a>
</g>
</g>
<!-- Node1&#45;&gt;Node4 -->
<g id="edge3_Node000001_Node000004" class="edge">
<title>Node1&#45;&gt;Node4</title>
<g id="a_edge3_Node000001_Node000004"><a xlink:title=" ">
<path fill="none" stroke="#63b8ff" d="M112.44,-70.83C129.92,-72.82 149.24,-75.03 166.8,-77.03"/>
<polygon fill="#63b8ff" stroke="#63b8ff" points="166.58,-80.53 176.91,-78.18 167.38,-73.57 166.58,-80.53"/>
</a>
</g>
</g>
<!-- Node5 -->
<g id="Node000005" class="node">
<title>Node5</title>
<g id="a_Node000005"><a xlink:href="dense_8c.html#ab1ff7e1a56dc108100975e953774a2ad" target="_top" xlink:title="分配并初始化一个长度为 size 的稠密向量，所有元素置零。">
<polygon fill="white" stroke="#666666" points="276,-56 173,-56 173,-37 276,-37 276,-56"/>
<text text-anchor="middle" x="224.5" y="-44" font-family="Helvetica,sans-Serif" font-size="10.00">lmmc_vec_create</text>
</a>
</g>
</g>
<!-- Node1&#45;&gt;Node5 -->
<g id="edge4_Node000001_Node000005" class="edge">
<title>Node1&#45;&gt;Node5</title>
<g id="a_edge4_Node000001_Node000005"><a xlink:title=" ">
<path fill="none" stroke="#63b8ff" d="M112.44,-58.51C128.58,-56.76 146.29,-54.85 162.74,-53.07"/>
<polygon fill="#63b8ff" stroke="#63b8ff" points="163.23,-56.54 172.79,-51.98 162.47,-49.58 163.23,-56.54"/>
</a>
</g>
</g>
<!-- Node6 -->
<g id="Node000006" class="node">
<title>Node6</title>
<g id="a_Node000006"><a xlink:href="dense_8c.html#aeda4a0d3e0c54b575a9b78413118e5f0" target="_top" xlink:title="销毁向量，释放其拥有的底层缓冲区。">
<polygon fill="white" stroke="#666666" points="279,-19 170,-19 170,0 279,0 279,-19"/>
<text text-anchor="middle" x="224.5" y="-7" font-family="Helvetica,sans-Serif" font-size="10.00">lmmc_vec_destroy</text>
</a>
</g>
</g>
<!-- Node1&#45;&gt;Node6 -->
<g id="edge5_Node000001_Node000006" class="edge">
<title>Node1&#45;&gt;Node6</title>
<g id="a_edge5_Node000001_Node000006"><a xlink:title=" ">
<path fill="none" stroke="#63b8ff" d="M78.77,-54.96C97.03,-47.18 123.9,-36.26 148,-28.5 155.51,-26.08 163.52,-23.78 171.41,-21.66"/>
<polygon fill="#63b8ff" stroke="#63b8ff" points="172.5,-25 181.29,-19.09 170.73,-18.22 172.5,-25"/>
</a>
</g>
</g>
<!-- Node3 -->
<g id="Node000003" class="node">
<title>Node3</title>
<g id="a_Node000003"><a xlink:href="dense_8c.html#a27b27349658ae70afe3533afff02d6ea" target="_top" xlink:title="将向量所有元素设为同一值。">
<polygon fill="white" stroke="#666666" points="421,-130 337,-130 337,-111 421,-111 421,-130"/>
<text text-anchor="middle" x="379" y="-118" font-family="Helvetica,sans-Serif" font-size="10.00">lmmc_vec_fill</text>
</a>
</g>
</g>
<!-- Node2&#45;&gt;Node3 -->
<g id="edge2_Node000002_Node000003" class="edge">
<title>Node2&#45;&gt;Node3</title>
<g id="a_edge2_Node000002_Node000003"><a xlink:title=" ">
<path fill="none" stroke="#63b8ff" d="M301.3,-120.5C309.92,-120.5 318.55,-120.5 326.75,-120.5"/>
<polygon fill="#63b8ff" stroke="#63b8ff" points="326.86,-124 336.86,-120.5 326.86,-117 326.86,-124"/>
</a>
</g>
</g>
</g>
</svg>
</svg>

<style type='text/css'>
<![CDATA[
[data-mouse-over-selected='false'] { opacity: 0.7; }
[data-mouse-over-selected='true']  { opacity: 1.0; }
]]>
</style>
<script type="application/ecmascript"><![CDATA[
document.addEventListener('DOMContentLoaded', (event) => {
  highlightEdges();
  highlightAdjacentNodes();
});
]]></script>
</svg>
