<?xml version="1.0" encoding="UTF-8" standalone="no"?>
<!DOCTYPE svg PUBLIC "-//W3C//DTD SVG 1.1//EN"
 "http://www.w3.org/Graphics/SVG/1.1/DTD/svg11.dtd">
<!-- Generated by graphviz version 2.43.0 (0)
 -->
<!-- Title: lmmc_cg_solve Pages: 1 -->
<svg width="430pt" height="175pt"
 viewBox="0.00 0.00 430.00 175.00" xmlns="http://www.w3.org/2000/svg" xmlns:xlink="http://www.w3.org/1999/xlink">

<svg id="main" version="1.1" xmlns="http://www.w3.org/2000/svg" xmlns:xlink="http://www.w3.org/1999/xlink" xml:space="preserve" onload="init(evt)">
<style type="text/css"><![CDATA[
.node, .edge {opacity: 0.7;}
.node.selected, .edge.selected {opacity: 1;}
.edge:hover path { stroke: red; }
.edge:hover polygon { stroke: red; fill: red; }
]]></style>
<script type="application/ecmascript" xlink:href="svg.min.js"/>
<svg id="graph" class="graph">
<g id="graph0" class="graph" transform="scale(1 1) rotate(0) translate(4 171)">
<title>lmmc_cg_solve</title>
<!-- Node1 -->
<g id="Node000001" class="node">
<title>Node1</title>
<g id="a_Node000001"><a xlink:title="共轭梯度法（CG）求解对称正定稀疏系统 A*x = b。">
<polygon fill="#999999" stroke="#666666" points="92,-93 0,-93 0,-74 92,-74 92,-93"/>
<text text-anchor="middle" x="46" y="-81" font-family="Helvetica,sans-Serif" font-size="10.00">lmmc_cg_solve</text>
</a>
</g>
</g>
<!-- Node2 -->
<g id="Node000002" class="node">
<title>Node2</title>
<g id="a_Node000002"><a xlink:href="sparse_8c.html#aa713e5ac22639c42d574987d15e1d02d" target="_top" xlink:title="稀疏矩阵&#45;稠密向量乘法：y = A * x。">
<polygon fill="white" stroke="#666666" points="281,-167 128,-167 128,-148 281,-148 281,-167"/>
<text text-anchor="middle" x="204.5" y="-155" font-family="Helvetica,sans-Serif" font-size="10.00">lmmc_sparse_mat_vec_mul</text>
</a>
</g>
</g>
<!-- Node1&#45;&gt;Node2 -->
<g id="edge1_Node000001_Node000002" class="edge">
<title>Node1&#45;&gt;Node2</title>
<g id="a_edge1_Node000001_Node000002"><a xlink:title=" ">
<path fill="none" stroke="#63b8ff" d="M57.99,-93.11C72.86,-105.62 100.68,-127.32 128,-139.5 132.46,-141.49 137.16,-143.27 141.96,-144.87"/>
<polygon fill="#63b8ff" stroke="#63b8ff" points="141.3,-148.33 151.88,-147.91 143.34,-141.64 141.3,-148.33"/>
</a>
</g>
</g>
<!-- Node4 -->
<g id="Node000004" class="node">
<title>Node4</title>
<g id="a_Node000004"><a xlink:href="dense_8c.html#a7e592a539e50cb974a9eda60b6aa6da6" target="_top" xlink:title="向量 AXPY 运算： 。">
<polygon fill="white" stroke="#666666" points="252.5,-130 156.5,-130 156.5,-111 252.5,-111 252.5,-130"/>
<text text-anchor="middle" x="204.5" y="-118" font-family="Helvetica,sans-Serif" font-size="10.00">lmmc_vec_axpy</text>
</a>
</g>
</g>
<!-- Node1&#45;&gt;Node4 -->
<g id="edge3_Node000001_Node000004" class="edge">
<title>Node1&#45;&gt;Node4</title>
<g id="a_edge3_Node000001_Node000004"><a xlink:title=" ">
<path fill="none" stroke="#63b8ff" d="M87.3,-93.03C107.4,-97.78 131.89,-103.57 153.21,-108.61"/>
<polygon fill="#63b8ff" stroke="#63b8ff" points="152.53,-112.04 163.06,-110.94 154.14,-105.23 152.53,-112.04"/>
</a>
</g>
</g>
<!-- Node6 -->
<g id="Node000006" class="node">
<title>Node6</title>
<g id="a_Node000006"><a xlink:href="dense_8c.html#ab3b3522edc7a0e0d928ebf48e9044f12" target="_top" xlink:title="逐元素复制向量内容：dst = src。">
<polygon fill="white" stroke="#666666" points="252,-93 157,-93 157,-74 252,-74 252,-93"/>
<text text-anchor="middle" x="204.5" y="-81" font-family="Helvetica,sans-Serif" font-size="10.00">lmmc_vec_copy</text>
</a>
</g>
</g>
<!-- Node1&#45;&gt;Node6 -->
<g id="edge5_Node000001_Node000006" class="edge">
<title>Node1&#45;&gt;Node6</title>
<g id="a_edge5_Node000001_Node000006"><a xlink:title=" ">
<path fill="none" stroke="#63b8ff" d="M92.27,-83.5C109.32,-83.5 128.94,-83.5 146.91,-83.5"/>
<polygon fill="#63b8ff" stroke="#63b8ff" points="146.98,-87 156.98,-83.5 146.98,-80 146.98,-87"/>
</a>
</g>
</g>
<!-- Node7 -->
<g id="Node000007" class="node">
<title>Node7</title>
<g id="a_Node000007"><a xlink:href="dense_8c.html#ab1ff7e1a56dc108100975e953774a2ad" target="_top" xlink:title="分配并初始化一个长度为 size 的稠密向量，所有元素置零。">
<polygon fill="white" stroke="#666666" points="256,-56 153,-56 153,-37 256,-37 256,-56"/>
<text text-anchor="middle" x="204.5" y="-44" font-family="Helvetica,sans-Serif" font-size="10.00">lmmc_vec_create</text>
</a>
</g>
</g>
<!-- Node1&#45;&gt;Node7 -->
<g id="edge6_Node000001_Node000007" class="edge">
<title>Node1&#45;&gt;Node7</title>
<g id="a_edge6_Node000001_Node000007"><a xlink:title=" ">
<path fill="none" stroke="#63b8ff" d="M87.3,-73.97C107.4,-69.22 131.89,-63.43 153.21,-58.39"/>
<polygon fill="#63b8ff" stroke="#63b8ff" points="154.14,-61.77 163.06,-56.06 152.53,-54.96 154.14,-61.77"/>
</a>
</g>
</g>
<!-- Node8 -->
<g id="Node000008" class="node">
<title>Node8</title>
<g id="a_Node000008"><a xlink:href="dense_8c.html#aeda4a0d3e0c54b575a9b78413118e5f0" target="_top" xlink:title="销毁向量，释放其拥有的底层缓冲区。">
<polygon fill="white" stroke="#666666" points="259,-19 150,-19 150,0 259,0 259,-19"/>
<text text-anchor="middle" x="204.5" y="-7" font-family="Helvetica,sans-Serif" font-size="10.00">lmmc_vec_destroy</text>
</a>
</g>
</g>
<!-- Node1&#45;&gt;Node8 -->
<g id="edge7_Node000001_Node000008" class="edge">
<title>Node1&#45;&gt;Node8</title>
<g id="a_edge7_Node000001_Node000008"><a xlink:title=" ">
<path fill="none" stroke="#63b8ff" d="M58.3,-73.91C73.29,-61.66 101.01,-40.6 128,-28.5 133.37,-26.09 139.1,-23.95 144.91,-22.06"/>
<polygon fill="#63b8ff" stroke="#63b8ff" points="146.15,-25.34 154.72,-19.11 144.14,-18.64 146.15,-25.34"/>
</a>
</g>
</g>
<!-- Node3 -->
<g id="Node000003" class="node">
<title>Node3</title>
<g id="a_Node000003"><a xlink:href="dense_8c.html#a27b27349658ae70afe3533afff02d6ea" target="_top" xlink:title="将向量所有元素设为同一值。">
<polygon fill="white" stroke="#666666" points="411.5,-167 327.5,-167 327.5,-148 411.5,-148 411.5,-167"/>
<text text-anchor="middle" x="369.5" y="-155" font-family="Helvetica,sans-Serif" font-size="10.00">lmmc_vec_fill</text>
</a>
</g>
</g>
<!-- Node2&#45;&gt;Node3 -->
<g id="edge2_Node000002_Node000003" class="edge">
<title>Node2&#45;&gt;Node3</title>
<g id="a_edge2_Node000002_Node000003"><a xlink:title=" ">
<path fill="none" stroke="#63b8ff" d="M281.27,-157.5C293.37,-157.5 305.63,-157.5 316.99,-157.5"/>
<polygon fill="#63b8ff" stroke="#63b8ff" points="317.14,-161 327.14,-157.5 317.14,-154 317.14,-161"/>
</a>
</g>
</g>
<!-- Node5 -->
<g id="Node000005" class="node">
<title>Node5</title>
<g id="a_Node000005"><a xlink:href="blas__backend_8c.html#a77d8acb0c6a8edc5545f017725fa5b53" target="_top" xlink:title=" ">
<polygon fill="white" stroke="#666666" points="422,-130 317,-130 317,-111 422,-111 422,-130"/>
<text text-anchor="middle" x="369.5" y="-118" font-family="Helvetica,sans-Serif" font-size="10.00">lmmc_blas_daxpy</text>
</a>
</g>
</g>
<!-- Node4&#45;&gt;Node5 -->
<g id="edge4_Node000004_Node000005" class="edge">
<title>Node4&#45;&gt;Node5</title>
<g id="a_edge4_Node000004_Node000005"><a xlink:title=" ">
<path fill="none" stroke="#63b8ff" d="M252.65,-120.5C269.54,-120.5 288.86,-120.5 306.8,-120.5"/>
<polygon fill="#63b8ff" stroke="#63b8ff" points="306.89,-124 316.89,-120.5 306.89,-117 306.89,-124"/>
</a>
</g>
</g>
</g>
</svg>
</svg>

<style type='text/css'>
<![CDATA[
[data-mouse-over-selected='false'] { opacity: 0.7; }
[data-mouse-over-selected='true']  { opacity: 1.0; }
]]>
</style>
<script type="application/ecmascript"><![CDATA[
document.addEventListener('DOMContentLoaded', (event) => {
  highlightEdges();
  highlightAdjacentNodes();
});
]]></script>
</svg>
