<?xml version="1.0" encoding="UTF-8" standalone="no"?>
<!DOCTYPE svg PUBLIC "-//W3C//DTD SVG 1.1//EN"
 "http://www.w3.org/Graphics/SVG/1.1/DTD/svg11.dtd">
<!-- Generated by graphviz version 2.43.0 (0)
 -->
<!-- Title: lmmc/itersolve.h Pages: 1 -->
<svg width="370pt" height="302pt"
 viewBox="0.00 0.00 370.00 302.00" xmlns="http://www.w3.org/2000/svg" xmlns:xlink="http://www.w3.org/1999/xlink">

<svg id="main" version="1.1" xmlns="http://www.w3.org/2000/svg" xmlns:xlink="http://www.w3.org/1999/xlink" xml:space="preserve" onload="init(evt)">
<style type="text/css"><![CDATA[
.node, .edge {opacity: 0.7;}
.node.selected, .edge.selected {opacity: 1;}
.edge:hover path { stroke: red; }
.edge:hover polygon { stroke: red; fill: red; }
]]></style>
<script type="application/ecmascript" xlink:href="svg.min.js"/>
<svg id="graph" class="graph">
<g id="graph0" class="graph" transform="scale(1 1) rotate(0) translate(4 298)">
<title>lmmc/itersolve.h</title>
<!-- Node1 -->
<g id="Node000001" class="node">
<title>Node1</title>
<g id="a_Node000001"><a xlink:title="稀疏线性系统的迭代求解器（CG / BiCGSTAB / GMRES / MINRES / LSQR）。">
<polygon fill="#999999" stroke="#666666" points="347.5,-294 248.5,-294 248.5,-275 347.5,-275 347.5,-294"/>
<text text-anchor="middle" x="298" y="-282" font-family="Helvetica,sans-Serif" font-size="10.00">lmmc/itersolve.h</text>
</a>
</g>
</g>
<!-- Node2 -->
<g id="Node000002" class="node">
<title>Node2</title>
<g id="a_Node000002"><a xlink:title=" ">
<polygon fill="#e0e0e0" stroke="#999999" points="362,-74 306,-74 306,-55 362,-55 362,-74"/>
<text text-anchor="middle" x="334" y="-62" font-family="Helvetica,sans-Serif" font-size="10.00">stddef.h</text>
</a>
</g>
</g>
<!-- Node1&#45;&gt;Node2 -->
<g id="edge1_Node000001_Node000002" class="edge">
<title>Node1&#45;&gt;Node2</title>
<g id="a_edge1_Node000001_Node000002"><a xlink:title=" ">
<path fill="none" stroke="#63b8ff" d="M302.25,-274.73C313.21,-251.58 342.21,-186.71 352,-129 353.41,-120.67 353.61,-118.29 352,-110 350.21,-100.8 346.52,-91.09 342.94,-83.1"/>
<polygon fill="#63b8ff" stroke="#63b8ff" points="346.09,-81.57 338.62,-74.06 339.77,-84.59 346.09,-81.57"/>
</a>
</g>
</g>
<!-- Node3 -->
<g id="Node000003" class="node">
<title>Node3</title>
<g id="a_Node000003"><a xlink:href="numeric_8h.html" target="_top" xlink:title="数值常量、特殊值、近似比较与基本数学补充函数。">
<polygon fill="white" stroke="#666666" points="306,-129 210,-129 210,-110 306,-110 306,-129"/>
<text text-anchor="middle" x="258" y="-117" font-family="Helvetica,sans-Serif" font-size="10.00">lmmc/numeric.h</text>
</a>
</g>
</g>
<!-- Node1&#45;&gt;Node3 -->
<g id="edge2_Node000001_Node000003" class="edge">
<title>Node1&#45;&gt;Node3</title>
<g id="a_edge2_Node000001_Node000003"><a xlink:title=" ">
<path fill="none" stroke="#63b8ff" d="M295.85,-274.74C289.58,-249.2 271.23,-174.43 262.6,-139.23"/>
<polygon fill="#63b8ff" stroke="#63b8ff" points="265.94,-138.18 260.16,-129.31 259.15,-139.85 265.94,-138.18"/>
</a>
</g>
</g>
<!-- Node7 -->
<g id="Node000007" class="node">
<title>Node7</title>
<g id="a_Node000007"><a xlink:href="precond_8h.html" target="_top" xlink:title="迭代求解器使用的预处理子接口。">
<polygon fill="white" stroke="#666666" points="272.5,-239 177.5,-239 177.5,-220 272.5,-220 272.5,-239"/>
<text text-anchor="middle" x="225" y="-227" font-family="Helvetica,sans-Serif" font-size="10.00">lmmc/precond.h</text>
</a>
</g>
</g>
<!-- Node1&#45;&gt;Node7 -->
<g id="edge7_Node000001_Node000007" class="edge">
<title>Node1&#45;&gt;Node7</title>
<g id="a_edge7_Node000001_Node000007"><a xlink:title=" ">
<path fill="none" stroke="#63b8ff" d="M286.27,-274.98C275.27,-267 258.58,-254.88 245.4,-245.31"/>
<polygon fill="#63b8ff" stroke="#63b8ff" points="247.09,-242.21 236.94,-239.17 242.98,-247.88 247.09,-242.21"/>
</a>
</g>
</g>
<!-- Node9 -->
<g id="Node000009" class="node">
<title>Node9</title>
<g id="a_Node000009"><a xlink:href="sparse_8h.html" target="_top" xlink:title="稀疏矩阵数据结构、构造器与基本运算。">
<polygon fill="white" stroke="#666666" points="193.5,-184 104.5,-184 104.5,-165 193.5,-165 193.5,-184"/>
<text text-anchor="middle" x="149" y="-172" font-family="Helvetica,sans-Serif" font-size="10.00">lmmc/sparse.h</text>
</a>
</g>
</g>
<!-- Node1&#45;&gt;Node9 -->
<g id="edge19_Node000001_Node000009" class="edge">
<title>Node1&#45;&gt;Node9</title>
<g id="a_edge19_Node000001_Node000009"><a xlink:title=" ">
<path fill="none" stroke="#63b8ff" d="M248.24,-277.62C221.16,-271.96 189,-260.84 168,-239 156.42,-226.96 151.86,-208.15 150.09,-194.12"/>
<polygon fill="#63b8ff" stroke="#63b8ff" points="153.57,-193.76 149.18,-184.12 146.6,-194.4 153.57,-193.76"/>
</a>
</g>
</g>
<!-- Node3&#45;&gt;Node2 -->
<g id="edge3_Node000003_Node000002" class="edge">
<title>Node3&#45;&gt;Node2</title>
<g id="a_edge3_Node000003_Node000002"><a xlink:title=" ">
<path fill="none" stroke="#63b8ff" d="M270.21,-109.98C281.78,-101.92 299.38,-89.65 313.16,-80.03"/>
<polygon fill="#63b8ff" stroke="#63b8ff" points="315.37,-82.76 321.57,-74.17 311.36,-77.02 315.37,-82.76"/>
</a>
</g>
</g>
<!-- Node4 -->
<g id="Node000004" class="node">
<title>Node4</title>
<g id="a_Node000004"><a xlink:href="config_8h.html" target="_top" xlink:title="LMMC 实数类型与基本运算抽象。">
<polygon fill="white" stroke="#666666" points="192,-74 106,-74 106,-55 192,-55 192,-74"/>
<text text-anchor="middle" x="149" y="-62" font-family="Helvetica,sans-Serif" font-size="10.00">lmmc/config.h</text>
</a>
</g>
</g>
<!-- Node3&#45;&gt;Node4 -->
<g id="edge4_Node000003_Node000004" class="edge">
<title>Node3&#45;&gt;Node4</title>
<g id="a_edge4_Node000003_Node000004"><a xlink:title=" ">
<path fill="none" stroke="#63b8ff" d="M240.49,-109.98C223.03,-101.5 195.99,-88.35 175.83,-78.54"/>
<polygon fill="#63b8ff" stroke="#63b8ff" points="177.36,-75.4 166.83,-74.17 174.29,-81.69 177.36,-75.4"/>
</a>
</g>
</g>
<!-- Node6 -->
<g id="Node000006" class="node">
<title>Node6</title>
<g id="a_Node000006"><a xlink:href="status_8h.html" target="_top" xlink:title="LMMC 通用状态码定义。">
<polygon fill="white" stroke="#666666" points="86,-74 0,-74 0,-55 86,-55 86,-74"/>
<text text-anchor="middle" x="43" y="-62" font-family="Helvetica,sans-Serif" font-size="10.00">lmmc/status.h</text>
</a>
</g>
</g>
<!-- Node3&#45;&gt;Node6 -->
<g id="edge6_Node000003_Node000006" class="edge">
<title>Node3&#45;&gt;Node6</title>
<g id="a_edge6_Node000003_Node000006"><a xlink:title=" ">
<path fill="none" stroke="#63b8ff" d="M223.46,-109.98C186.58,-100.89 128.01,-86.46 87.66,-76.51"/>
<polygon fill="#63b8ff" stroke="#63b8ff" points="88.36,-73.08 77.81,-74.08 86.69,-79.87 88.36,-73.08"/>
</a>
</g>
</g>
<!-- Node5 -->
<g id="Node000005" class="node">
<title>Node5</title>
<g id="a_Node000005"><a xlink:title=" ">
<polygon fill="#e0e0e0" stroke="#999999" points="174.5,-19 123.5,-19 123.5,0 174.5,0 174.5,-19"/>
<text text-anchor="middle" x="149" y="-7" font-family="Helvetica,sans-Serif" font-size="10.00">math.h</text>
</a>
</g>
</g>
<!-- Node4&#45;&gt;Node5 -->
<g id="edge5_Node000004_Node000005" class="edge">
<title>Node4&#45;&gt;Node5</title>
<g id="a_edge5_Node000004_Node000005"><a xlink:title=" ">
<path fill="none" stroke="#63b8ff" d="M149,-54.75C149,-47.8 149,-37.85 149,-29.13"/>
<polygon fill="#63b8ff" stroke="#63b8ff" points="152.5,-29.09 149,-19.09 145.5,-29.09 152.5,-29.09"/>
</a>
</g>
</g>
<!-- Node7&#45;&gt;Node2 -->
<g id="edge8_Node000007_Node000002" class="edge">
<title>Node7&#45;&gt;Node2</title>
<g id="a_edge8_Node000007_Node000002"><a xlink:title=" ">
<path fill="none" stroke="#63b8ff" d="M241.23,-219.83C266.83,-205.11 315.67,-172.54 335,-129 341.23,-114.97 340.39,-97.42 338.32,-84.33"/>
<polygon fill="#63b8ff" stroke="#63b8ff" points="341.69,-83.32 336.34,-74.17 334.82,-84.66 341.69,-83.32"/>
</a>
</g>
</g>
<!-- Node7&#45;&gt;Node6 -->
<g id="edge18_Node000007_Node000006" class="edge">
<title>Node7&#45;&gt;Node6</title>
<g id="a_edge18_Node000007_Node000006"><a xlink:title=" ">
<path fill="none" stroke="#63b8ff" d="M177.49,-221.89C150.48,-215.97 117.65,-204.83 95,-184 65.47,-156.84 51.83,-109.91 46.29,-84.01"/>
<polygon fill="#63b8ff" stroke="#63b8ff" points="49.69,-83.16 44.33,-74.02 42.82,-84.51 49.69,-83.16"/>
</a>
</g>
</g>
<!-- Node8 -->
<g id="Node000008" class="node">
<title>Node8</title>
<g id="a_Node000008"><a xlink:href="dense_8h.html" target="_top" xlink:title="稠密矩阵 / 向量数据结构与基本运算（含 BLAS Level 1 / 2 接口）。">
<polygon fill="white" stroke="#666666" points="192,-129 106,-129 106,-110 192,-110 192,-129"/>
<text text-anchor="middle" x="149" y="-117" font-family="Helvetica,sans-Serif" font-size="10.00">lmmc/dense.h</text>
</a>
</g>
</g>
<!-- Node7&#45;&gt;Node8 -->
<g id="edge9_Node000007_Node000008" class="edge">
<title>Node7&#45;&gt;Node8</title>
<g id="a_edge9_Node000007_Node000008"><a xlink:title=" ">
<path fill="none" stroke="#63b8ff" d="M223.32,-219.61C220.55,-206.67 214.09,-182.3 202,-165 193.83,-153.31 181.83,-142.88 171.32,-135.07"/>
<polygon fill="#63b8ff" stroke="#63b8ff" points="173.14,-132.07 162.95,-129.15 169.1,-137.79 173.14,-132.07"/>
</a>
</g>
</g>
<!-- Node7&#45;&gt;Node9 -->
<g id="edge13_Node000007_Node000009" class="edge">
<title>Node7&#45;&gt;Node9</title>
<g id="a_edge13_Node000007_Node000009"><a xlink:title=" ">
<path fill="none" stroke="#63b8ff" d="M212.79,-219.98C201.22,-211.92 183.62,-199.65 169.84,-190.03"/>
<polygon fill="#63b8ff" stroke="#63b8ff" points="171.64,-187.02 161.43,-184.17 167.63,-192.76 171.64,-187.02"/>
</a>
</g>
</g>
<!-- Node8&#45;&gt;Node2 -->
<g id="edge10_Node000008_Node000002" class="edge">
<title>Node8&#45;&gt;Node2</title>
<g id="a_edge10_Node000008_Node000002"><a xlink:title=" ">
<path fill="none" stroke="#63b8ff" d="M178.72,-109.98C210.61,-100.85 261.34,-86.32 296.08,-76.36"/>
<polygon fill="#63b8ff" stroke="#63b8ff" points="297.22,-79.68 305.87,-73.56 295.29,-72.95 297.22,-79.68"/>
</a>
</g>
</g>
<!-- Node8&#45;&gt;Node4 -->
<g id="edge12_Node000008_Node000004" class="edge">
<title>Node8&#45;&gt;Node4</title>
<g id="a_edge12_Node000008_Node000004"><a xlink:title=" ">
<path fill="none" stroke="#63b8ff" d="M149,-109.75C149,-102.8 149,-92.85 149,-84.13"/>
<polygon fill="#63b8ff" stroke="#63b8ff" points="152.5,-84.09 149,-74.09 145.5,-84.09 152.5,-84.09"/>
</a>
</g>
</g>
<!-- Node8&#45;&gt;Node6 -->
<g id="edge11_Node000008_Node000006" class="edge">
<title>Node8&#45;&gt;Node6</title>
<g id="a_edge11_Node000008_Node000006"><a xlink:title=" ">
<path fill="none" stroke="#63b8ff" d="M131.97,-109.98C115.07,-101.54 88.94,-88.47 69.36,-78.68"/>
<polygon fill="#63b8ff" stroke="#63b8ff" points="70.85,-75.51 60.34,-74.17 67.72,-81.77 70.85,-75.51"/>
</a>
</g>
</g>
<!-- Node9&#45;&gt;Node2 -->
<g id="edge14_Node000009_Node000002" class="edge">
<title>Node9&#45;&gt;Node2</title>
<g id="a_edge14_Node000009_Node000002"><a xlink:title=" ">
<path fill="none" stroke="#63b8ff" d="M193.56,-173.03C230.74,-170.24 282.69,-160.4 315,-129 326.98,-117.36 331.48,-98.5 333.14,-84.35"/>
<polygon fill="#63b8ff" stroke="#63b8ff" points="336.64,-84.49 333.94,-74.24 329.66,-83.93 336.64,-84.49"/>
</a>
</g>
</g>
<!-- Node9&#45;&gt;Node4 -->
<g id="edge17_Node000009_Node000004" class="edge">
<title>Node9&#45;&gt;Node4</title>
<g id="a_edge17_Node000009_Node000004"><a xlink:title=" ">
<path fill="none" stroke="#63b8ff" d="M132.89,-164.86C114.06,-153.52 86.69,-132.39 97,-110 102.75,-97.52 113.91,-87.24 124.42,-79.71"/>
<polygon fill="#63b8ff" stroke="#63b8ff" points="126.57,-82.49 132.97,-74.05 122.7,-76.65 126.57,-82.49"/>
</a>
</g>
</g>
<!-- Node9&#45;&gt;Node6 -->
<g id="edge16_Node000009_Node000006" class="edge">
<title>Node9&#45;&gt;Node6</title>
<g id="a_edge16_Node000009_Node000006"><a xlink:title=" ">
<path fill="none" stroke="#63b8ff" d="M135.75,-164.87C123.44,-156.5 104.95,-143.05 91,-129 76.9,-114.8 63.39,-96.34 54.31,-82.98"/>
<polygon fill="#63b8ff" stroke="#63b8ff" points="56.99,-80.69 48.55,-74.3 51.16,-84.57 56.99,-80.69"/>
</a>
</g>
</g>
<!-- Node9&#45;&gt;Node8 -->
<g id="edge15_Node000009_Node000008" class="edge">
<title>Node9&#45;&gt;Node8</title>
<g id="a_edge15_Node000009_Node000008"><a xlink:title=" ">
<path fill="none" stroke="#63b8ff" d="M149,-164.75C149,-157.8 149,-147.85 149,-139.13"/>
<polygon fill="#63b8ff" stroke="#63b8ff" points="152.5,-139.09 149,-129.09 145.5,-139.09 152.5,-139.09"/>
</a>
</g>
</g>
</g>
</svg>
</svg>

<style type='text/css'>
<![CDATA[
[data-mouse-over-selected='false'] { opacity: 0.7; }
[data-mouse-over-selected='true']  { opacity: 1.0; }
]]>
</style>
<script type="application/ecmascript"><![CDATA[
document.addEventListener('DOMContentLoaded', (event) => {
  highlightEdges();
  highlightAdjacentNodes();
});
]]></script>
</svg>
