<?xml version="1.0" encoding="UTF-8" standalone="no"?>
<!DOCTYPE svg PUBLIC "-//W3C//DTD SVG 1.1//EN"
 "http://www.w3.org/Graphics/SVG/1.1/DTD/svg11.dtd">
<!-- Generated by graphviz version 2.43.0 (0)
 -->
<!-- Title: lmmc_lu_solve Pages: 1 -->
<svg width="459pt" height="199pt"
 viewBox="0.00 0.00 459.00 198.50" xmlns="http://www.w3.org/2000/svg" xmlns:xlink="http://www.w3.org/1999/xlink">
<g id="graph0" class="graph" transform="scale(1 1) rotate(0) translate(4 194.5)">
<title>lmmc_lu_solve</title>
<!-- Node1 -->
<g id="Node000001" class="node">
<title>Node1</title>
<g id="a_Node000001"><a xlink:title="利用 LU 分解结果求解线性系统 A*x = b。">
<polygon fill="#999999" stroke="#666666" points="451,-104.5 361,-104.5 361,-85.5 451,-85.5 451,-104.5"/>
<text text-anchor="middle" x="406" y="-92.5" font-family="Helvetica,sans-Serif" font-size="10.00">lmmc_lu_solve</text>
</a>
</g>
</g>
<!-- Node2 -->
<g id="Node000002" class="node">
<title>Node2</title>
<g id="a_Node000002"><a xlink:href="dense_8c.html#a98c17c86b6e315487faa542c9e32d5f6" target="_top" xlink:title="计算方阵的逆矩阵。">
<polygon fill="white" stroke="#666666" points="295,-190.5 206,-190.5 206,-171.5 295,-171.5 295,-190.5"/>
<text text-anchor="middle" x="250.5" y="-178.5" font-family="Helvetica,sans-Serif" font-size="10.00">lmmc_mat_inv</text>
</a>
</g>
</g>
<!-- Node1&#45;&gt;Node2 -->
<g id="edge1_Node000001_Node000002" class="edge">
<title>Node1&#45;&gt;Node2</title>
<g id="a_edge1_Node000001_Node000002"><a xlink:title=" ">
<path fill="none" stroke="#63b8ff" d="M389.12,-112.06C374.03,-127.31 349.97,-149.16 325,-162 315.74,-166.76 305.2,-170.4 295.04,-173.14"/>
<polygon fill="#63b8ff" stroke="#63b8ff" points="391.73,-114.4 396.16,-104.78 386.7,-109.54 391.73,-114.4"/>
</a>
</g>
</g>
<!-- Node3 -->
<g id="Node000003" class="node">
<title>Node3</title>
<g id="a_Node000003"><a xlink:href="optimize_8c.html#a3e35090ba16f1cd0bc42eb12d47a37cd" target="_top" xlink:title="Levenberg&#45;Marquardt 非线性最小二乘。">
<polygon fill="white" stroke="#666666" points="325,-153 176,-153 176,-123 325,-123 325,-153"/>
<text text-anchor="start" x="184" y="-141" font-family="Helvetica,sans-Serif" font-size="10.00">lmmc_minimize_levenberg</text>
<text text-anchor="middle" x="250.5" y="-130" font-family="Helvetica,sans-Serif" font-size="10.00">_marquardt</text>
</a>
</g>
</g>
<!-- Node1&#45;&gt;Node3 -->
<g id="edge2_Node000001_Node000003" class="edge">
<title>Node1&#45;&gt;Node3</title>
<g id="a_edge2_Node000001_Node000003"><a xlink:title=" ">
<path fill="none" stroke="#63b8ff" d="M361.02,-107.32C343.58,-112.21 323.35,-117.87 305.07,-122.99"/>
<polygon fill="#63b8ff" stroke="#63b8ff" points="362.25,-110.61 370.93,-104.54 360.36,-103.87 362.25,-110.61"/>
</a>
</g>
</g>
<!-- Node4 -->
<g id="Node000004" class="node">
<title>Node4</title>
<g id="a_Node000004"><a xlink:href="optimize_8c.html#a3c6ac4b02bb9b610d5c0ce5ee5f53e2a" target="_top" xlink:title="Broyden 法求解非线性方程组 F(x) = 0。">
<polygon fill="white" stroke="#666666" points="308.5,-104.5 192.5,-104.5 192.5,-85.5 308.5,-85.5 308.5,-104.5"/>
<text text-anchor="middle" x="250.5" y="-92.5" font-family="Helvetica,sans-Serif" font-size="10.00">lmmc_nleq_broyden</text>
</a>
</g>
</g>
<!-- Node1&#45;&gt;Node4 -->
<g id="edge3_Node000001_Node000004" class="edge">
<title>Node1&#45;&gt;Node4</title>
<g id="a_edge3_Node000001_Node000004"><a xlink:title=" ">
<path fill="none" stroke="#63b8ff" d="M350.47,-95C336.92,-95 322.35,-95 308.68,-95"/>
<polygon fill="#63b8ff" stroke="#63b8ff" points="350.6,-98.5 360.6,-95 350.6,-91.5 350.6,-98.5"/>
</a>
</g>
</g>
<!-- Node5 -->
<g id="Node000005" class="node">
<title>Node5</title>
<g id="a_Node000005"><a xlink:href="optimize_8c.html#a7432413caf0678e69700583f4327adb8" target="_top" xlink:title="Newton 法求解非线性方程组 F(x) = 0。">
<polygon fill="white" stroke="#666666" points="306.5,-67.5 194.5,-67.5 194.5,-48.5 306.5,-48.5 306.5,-67.5"/>
<text text-anchor="middle" x="250.5" y="-55.5" font-family="Helvetica,sans-Serif" font-size="10.00">lmmc_nleq_newton</text>
</a>
</g>
</g>
<!-- Node1&#45;&gt;Node5 -->
<g id="edge4_Node000001_Node000005" class="edge">
<title>Node1&#45;&gt;Node5</title>
<g id="a_edge4_Node000001_Node000005"><a xlink:title=" ">
<path fill="none" stroke="#63b8ff" d="M355.53,-83.07C334.7,-78.06 310.8,-72.29 291.16,-67.56"/>
<polygon fill="#63b8ff" stroke="#63b8ff" points="354.93,-86.53 365.47,-85.47 356.57,-79.73 354.93,-86.53"/>
</a>
</g>
</g>
<!-- Node9 -->
<g id="Node000009" class="node">
<title>Node9</title>
<g id="a_Node000009"><a xlink:href="ode_8c.html#a87929e66754ebcc121215966ea76df21" target="_top" xlink:title="Rosenbrock&#45;Wanner GRK4T 求解器（线性隐式，四阶，每步一次 LU）。">
<polygon fill="white" stroke="#666666" points="314,-30 187,-30 187,0 314,0 314,-30"/>
<text text-anchor="start" x="195" y="-18" font-family="Helvetica,sans-Serif" font-size="10.00">lmmc_ode_rosenbrock</text>
<text text-anchor="middle" x="250.5" y="-7" font-family="Helvetica,sans-Serif" font-size="10.00">_grk4t_solve</text>
</a>
</g>
</g>
<!-- Node1&#45;&gt;Node9 -->
<g id="edge8_Node000001_Node000009" class="edge">
<title>Node1&#45;&gt;Node9</title>
<g id="a_edge8_Node000001_Node000009"><a xlink:title=" ">
<path fill="none" stroke="#63b8ff" d="M385.28,-79.16C369.65,-67.18 346.86,-50.97 325,-40 317.77,-36.37 309.89,-33.07 302.07,-30.15"/>
<polygon fill="#63b8ff" stroke="#63b8ff" points="383.14,-81.93 393.18,-85.32 387.45,-76.41 383.14,-81.93"/>
</a>
</g>
</g>
<!-- Node6 -->
<g id="Node000006" class="node">
<title>Node6</title>
<g id="a_Node000006"><a xlink:href="ode_8c.html#a2c9e233460a5ccf6433318b6ebbd0121" target="_top" xlink:title="隐式 Euler 法求解器（A&#45;稳定，适用于刚性问题）。">
<polygon fill="white" stroke="#666666" points="140,-116 0,-116 0,-86 140,-86 140,-116"/>
<text text-anchor="start" x="8" y="-104" font-family="Helvetica,sans-Serif" font-size="10.00">lmmc_ode_implicit_euler</text>
<text text-anchor="middle" x="70" y="-93" font-family="Helvetica,sans-Serif" font-size="10.00">_solve</text>
</a>
</g>
</g>
<!-- Node5&#45;&gt;Node6 -->
<g id="edge5_Node000005_Node000006" class="edge">
<title>Node5&#45;&gt;Node6</title>
<g id="a_edge5_Node000005_Node000006"><a xlink:title=" ">
<path fill="none" stroke="#63b8ff" d="M200.06,-69.91C179.39,-74.89 155.15,-80.73 133.29,-85.99"/>
<polygon fill="#63b8ff" stroke="#63b8ff" points="200.98,-73.29 209.89,-67.54 199.34,-66.48 200.98,-73.29"/>
</a>
</g>
</g>
<!-- Node7 -->
<g id="Node000007" class="node">
<title>Node7</title>
<g id="a_Node000007"><a xlink:href="ode_8c.html#aff0724e751a44e3e84ae1860f921c91b" target="_top" xlink:title="4 阶 SDIRK 求解器（含嵌入误差估计，自适应步长）。">
<polygon fill="white" stroke="#666666" points="137,-67.5 3,-67.5 3,-48.5 137,-48.5 137,-67.5"/>
<text text-anchor="middle" x="70" y="-55.5" font-family="Helvetica,sans-Serif" font-size="10.00">lmmc_ode_sdirk4_solve</text>
</a>
</g>
</g>
<!-- Node5&#45;&gt;Node7 -->
<g id="edge6_Node000005_Node000007" class="edge">
<title>Node5&#45;&gt;Node7</title>
<g id="a_edge6_Node000005_Node000007"><a xlink:title=" ">
<path fill="none" stroke="#63b8ff" d="M184.08,-58C168.78,-58 152.46,-58 137.13,-58"/>
<polygon fill="#63b8ff" stroke="#63b8ff" points="184.49,-61.5 194.49,-58 184.49,-54.5 184.49,-61.5"/>
</a>
</g>
</g>
<!-- Node8 -->
<g id="Node000008" class="node">
<title>Node8</title>
<g id="a_Node000008"><a xlink:href="ode_8c.html#a84fd078a59d484e60d8071c155983828" target="_top" xlink:title="梯形法求解器（A&#45;稳定，二阶精度）。">
<polygon fill="white" stroke="#666666" points="134,-30 6,-30 6,0 134,0 134,-30"/>
<text text-anchor="start" x="14" y="-18" font-family="Helvetica,sans-Serif" font-size="10.00">lmmc_ode_trapezoidal</text>
<text text-anchor="middle" x="70" y="-7" font-family="Helvetica,sans-Serif" font-size="10.00">_solve</text>
</a>
</g>
</g>
<!-- Node5&#45;&gt;Node8 -->
<g id="edge7_Node000005_Node000008" class="edge">
<title>Node5&#45;&gt;Node8</title>
<g id="a_edge7_Node000005_Node000008"><a xlink:title=" ">
<path fill="none" stroke="#63b8ff" d="M200.06,-46.09C179.39,-41.11 155.15,-35.27 133.29,-30.01"/>
<polygon fill="#63b8ff" stroke="#63b8ff" points="199.34,-49.52 209.89,-48.46 200.98,-42.71 199.34,-49.52"/>
</a>
</g>
</g>
</g>
</svg>
