<?xml version="1.0" encoding="UTF-8" standalone="no"?>
<!DOCTYPE svg PUBLIC "-//W3C//DTD SVG 1.1//EN"
 "http://www.w3.org/Graphics/SVG/1.1/DTD/svg11.dtd">
<!-- Generated by graphviz version 2.43.0 (0)
 -->
<!-- Title: lmmc/linear_algebra.h Pages: 1 -->
<!--zoomable 104 -->

<svg id="main" version="1.1" xmlns="http://www.w3.org/2000/svg" xmlns:xlink="http://www.w3.org/1999/xlink" xml:space="preserve" onload="init(evt)">
<style type="text/css"><![CDATA[
.node, .edge {opacity: 0.7;}
.node.selected, .edge.selected {opacity: 1;}
.edge:hover path { stroke: red; }
.edge:hover polygon { stroke: red; fill: red; }
]]></style>

<defs>
  <circle id="rim" cx="0" cy="0" r="7"/>
  <circle id="rim2" cx="0" cy="0" r="3.5"/>
  <g id="zoomPlus">
    <use xlink:href="#rim" fill="#404040"><set attributeName="fill" to="#808080" begin="zoomplus.mouseover" end="zoomplus.mouseout"/></use>
    <path d="M-4,0h8M0,-4v8" fill="none" stroke="white" stroke-width="1.5" pointer-events="none"/>
  </g>
  <g id="zoomMin">
    <use xlink:href="#rim" fill="#404040"><set attributeName="fill" to="#808080" begin="zoomminus.mouseover" end="zoomminus.mouseout"/></use>
    <path d="M-4,0h8" fill="none" stroke="white" stroke-width="1.5" pointer-events="none"/>
  </g>
  <g id="arrowUp" transform="translate(30 24)">
    <use xlink:href="#rim"/>
    <path pointer-events="none" fill="none" stroke="white" stroke-width="1.5" d="M0,-3.0v7 M-2.5,-0.5L0,-3.0L2.5,-0.5"/>
  </g>
  <g id="arrowRight" transform="rotate(90) translate(36 -43)">
    <use xlink:href="#rim"/>
    <path pointer-events="none" fill="none" stroke="white" stroke-width="1.5" d="M0,-3.0v7 M-2.5,-0.5L0,-3.0L2.5,-0.5"/>
  </g>
  <g id="arrowDown" transform="rotate(180) translate(-30 -48)">
    <use xlink:href="#rim"/>
    <path pointer-events="none" fill="none" stroke="white" stroke-width="1.5" d="M0,-3.0v7 M-2.5,-0.5L0,-3.0L2.5,-0.5"/>
  </g>
  <g id="arrowLeft" transform="rotate(270) translate(-36 17)">
    <use xlink:href="#rim"/>
    <path pointer-events="none" fill="none" stroke="white" stroke-width="1.5" d="M0,-3.0v7 M-2.5,-0.5L0,-3.0L2.5,-0.5"/>
  </g>
  <g id="resetDef">
    <use xlink:href="#rim2" fill="#404040"><set attributeName="fill" to="#808080" begin="reset.mouseover" end="reset.mouseout"/></use>
  </g>
</defs>
<script type="application/ecmascript">
var viewWidth = 864;
var viewHeight = 104;
var sectionId = 'dynsection-1';
</script>
<script type="application/ecmascript" xlink:href="svg.min.js"/>
<svg id="graph" class="graph">
<g id="viewport">
<title>lmmc/linear_algebra.h</title>
<!-- Node1 -->
<g id="Node000001" class="node">
<title>Node1</title>
<g id="a_Node000001"><a xlink:title="稠密矩阵直接分解接口（LU、Cholesky、QR）。">
<polygon fill="#999999" stroke="#666666" points="510,-96 384,-96 384,-77 510,-77 510,-96"/>
<text text-anchor="middle" x="447" y="-84" font-family="Helvetica,sans-Serif" font-size="10.00">lmmc/linear_algebra.h</text>
</a>
</g>
</g>
<!-- Node2 -->
<g id="Node000002" class="node">
<title>Node2</title>
<g id="a_Node000002"><a xlink:href="dense_8c.html" target="_top" xlink:title="稠密矩阵 / 向量运算实现。">
<polygon fill="white" stroke="#666666" points="134,-35.5 0,-35.5 0,-5.5 134,-5.5 134,-35.5"/>
<text text-anchor="start" x="8" y="-23.5" font-family="Helvetica,sans-Serif" font-size="10.00">/home/runner/work/docs</text>
<text text-anchor="middle" x="67" y="-12.5" font-family="Helvetica,sans-Serif" font-size="10.00">/docs/LMMC/src/dense.c</text>
</a>
</g>
</g>
<!-- Node1&#45;&gt;Node2 -->
<g id="edge1_Node000001_Node000002" class="edge">
<title>Node1&#45;&gt;Node2</title>
<g id="a_edge1_Node000001_Node000002"><a xlink:title=" ">
<path fill="none" stroke="#63b8ff" d="M373.74,-76.98C311.93,-69.27 221.27,-56.72 143,-41 135.12,-39.42 126.84,-37.53 118.75,-35.56"/>
<polygon fill="#63b8ff" stroke="#63b8ff" points="373.43,-80.47 383.78,-78.23 374.29,-73.53 373.43,-80.47"/>
</a>
</g>
</g>
<!-- Node3 -->
<g id="Node000003" class="node">
<title>Node3</title>
<g id="a_Node000003"><a xlink:href="eigen_8c.html" target="_top" xlink:title="特征值、奇异值、伪逆与条件数算法实现。">
<polygon fill="white" stroke="#666666" points="286,-35.5 152,-35.5 152,-5.5 286,-5.5 286,-35.5"/>
<text text-anchor="start" x="160" y="-23.5" font-family="Helvetica,sans-Serif" font-size="10.00">/home/runner/work/docs</text>
<text text-anchor="middle" x="219" y="-12.5" font-family="Helvetica,sans-Serif" font-size="10.00">/docs/LMMC/src/eigen.c</text>
</a>
</g>
</g>
<!-- Node1&#45;&gt;Node3 -->
<g id="edge2_Node000001_Node000003" class="edge">
<title>Node1&#45;&gt;Node3</title>
<g id="a_edge2_Node000001_Node000003"><a xlink:title=" ">
<path fill="none" stroke="#63b8ff" d="M406.46,-74.12C368.14,-63.36 310.52,-47.19 269.29,-35.62"/>
<polygon fill="#63b8ff" stroke="#63b8ff" points="405.68,-77.54 416.25,-76.87 407.57,-70.8 405.68,-77.54"/>
</a>
</g>
</g>
<!-- Node4 -->
<g id="Node000004" class="node">
<title>Node4</title>
<g id="a_Node000004"><a xlink:href="linear__algebra_8c.html" target="_top" xlink:title="稠密 LU / Cholesky / QR 分解与求解实现。">
<polygon fill="white" stroke="#666666" points="438,-41 304,-41 304,0 438,0 438,-41"/>
<text text-anchor="start" x="312" y="-29" font-family="Helvetica,sans-Serif" font-size="10.00">/home/runner/work/docs</text>
<text text-anchor="start" x="312" y="-18" font-family="Helvetica,sans-Serif" font-size="10.00">/docs/LMMC/src/linear</text>
<text text-anchor="middle" x="371" y="-7" font-family="Helvetica,sans-Serif" font-size="10.00">_algebra.c</text>
</a>
</g>
</g>
<!-- Node1&#45;&gt;Node4 -->
<g id="edge3_Node000001_Node000004" class="edge">
<title>Node1&#45;&gt;Node4</title>
<g id="a_edge3_Node000001_Node000004"><a xlink:title=" ">
<path fill="none" stroke="#63b8ff" d="M429.08,-70.41C418.65,-61.63 405.39,-50.46 394.17,-41.01"/>
<polygon fill="#63b8ff" stroke="#63b8ff" points="426.85,-73.1 436.75,-76.87 431.36,-67.75 426.85,-73.1"/>
</a>
</g>
</g>
<!-- Node5 -->
<g id="Node000005" class="node">
<title>Node5</title>
<g id="a_Node000005"><a xlink:href="ode_8c.html" target="_top" xlink:title="ODE 初值问题求解器实现：Euler / RK4 / RK45。">
<polygon fill="white" stroke="#666666" points="590,-35.5 456,-35.5 456,-5.5 590,-5.5 590,-35.5"/>
<text text-anchor="start" x="464" y="-23.5" font-family="Helvetica,sans-Serif" font-size="10.00">/home/runner/work/docs</text>
<text text-anchor="middle" x="523" y="-12.5" font-family="Helvetica,sans-Serif" font-size="10.00">/docs/LMMC/src/ode.c</text>
</a>
</g>
</g>
<!-- Node1&#45;&gt;Node5 -->
<g id="edge4_Node000001_Node000005" class="edge">
<title>Node1&#45;&gt;Node5</title>
<g id="a_edge4_Node000001_Node000005"><a xlink:title=" ">
<path fill="none" stroke="#63b8ff" d="M465.15,-70.21C477.63,-59.71 494.07,-45.86 506.24,-35.62"/>
<polygon fill="#63b8ff" stroke="#63b8ff" points="462.64,-67.75 457.25,-76.87 467.15,-73.1 462.64,-67.75"/>
</a>
</g>
</g>
<!-- Node6 -->
<g id="Node000006" class="node">
<title>Node6</title>
<g id="a_Node000006"><a xlink:href="optimize_8c.html" target="_top" xlink:title="优化与非线性方程组求解实现。">
<polygon fill="white" stroke="#666666" points="754,-35.5 608,-35.5 608,-5.5 754,-5.5 754,-35.5"/>
<text text-anchor="start" x="616" y="-23.5" font-family="Helvetica,sans-Serif" font-size="10.00">/home/runner/work/docs</text>
<text text-anchor="middle" x="681" y="-12.5" font-family="Helvetica,sans-Serif" font-size="10.00">/docs/LMMC/src/optimize.c</text>
</a>
</g>
</g>
<!-- Node1&#45;&gt;Node6 -->
<g id="edge5_Node000001_Node000006" class="edge">
<title>Node1&#45;&gt;Node6</title>
<g id="a_edge5_Node000001_Node000006"><a xlink:title=" ">
<path fill="none" stroke="#63b8ff" d="M488.35,-74.19C527.68,-63.43 586.98,-47.22 629.39,-35.62"/>
<polygon fill="#63b8ff" stroke="#63b8ff" points="487.28,-70.85 478.56,-76.87 489.13,-77.61 487.28,-70.85"/>
</a>
</g>
</g>
<!-- Node7 -->
<g id="Node000007" class="node">
<title>Node7</title>
<g id="a_Node000007"><a xlink:href="lmmc_8h.html" target="_top" xlink:title="LMMC 总入口头文件，聚合所有公共子模块。">
<polygon fill="white" stroke="#666666" points="856,-30 772,-30 772,-11 856,-11 856,-30"/>
<text text-anchor="middle" x="814" y="-18" font-family="Helvetica,sans-Serif" font-size="10.00">lmmc/lmmc.h</text>
</a>
</g>
</g>
<!-- Node1&#45;&gt;Node7 -->
<g id="edge6_Node000001_Node000007" class="edge">
<title>Node1&#45;&gt;Node7</title>
<g id="a_edge6_Node000001_Node000007"><a xlink:title=" ">
<path fill="none" stroke="#63b8ff" d="M520.27,-79.89C584.9,-73.84 681.27,-62.09 763,-41 773.65,-38.25 785.12,-33.99 794.48,-30.15"/>
<polygon fill="#63b8ff" stroke="#63b8ff" points="519.81,-76.42 510.17,-80.82 520.45,-83.39 519.81,-76.42"/>
</a>
</g>
</g>
</g>
</svg>

<g id="navigator" transform="translate(0 0)" fill="#404254">
  <rect fill="#f2f5e9" fill-opacity="0.5" stroke="#606060" stroke-width=".5" x="0" y="0" width="60" height="60"/>
  <use id="zoomplus" xlink:href="#zoomPlus" x="17" y="9" onmousedown="handleZoom(evt,'in')"/>
  <use id="zoomminus" xlink:href="#zoomMin" x="42" y="9" onmousedown="handleZoom(evt,'out')"/>
  <use id="reset" xlink:href="#resetDef" x="30" y="36" onmousedown="handleReset()"/>
   <use id="arrowup" xlink:href="#arrowUp" x="0" y="0" onmousedown="handlePan(0,-1)"/>
  <use id="arrowright" xlink:href="#arrowRight" x="0" y="0" onmousedown="handlePan(1,0)"/>
  <use id="arrowdown" xlink:href="#arrowDown" x="0" y="0" onmousedown="handlePan(0,1)"/>
  <use id="arrowleft" xlink:href="#arrowLeft" x="0" y="0" onmousedown="handlePan(-1,0)"/>
</g>
<svg viewBox="0 0 15 15" width="100%" height="30px" preserveAspectRatio="xMaxYMin meet">
 <g id="arrow_out" transform="scale(0.3 0.3)">
  <a xlink:href="linear__algebra_8h__dep__incl_org.svg" target="_base">
   <rect id="button" ry="5" rx="5" y="6" x="6" height="38" width="38"
        fill="#f2f5e9" fill-opacity="0.5" stroke="#606060" stroke-width="1.0"/>
   <path id="arrow"
     d="M 11.500037,31.436501 C 11.940474,20.09759 22.043105,11.32322 32.158766,21.979434 L 37.068811,17.246167 C 37.068811,17.246167 37.088388,32 37.088388,32 L 22.160133,31.978069 C 22.160133,31.978069 26.997745,27.140456 26.997745,27.140456 C 18.528582,18.264221 13.291696,25.230495 11.500037,31.436501 z"
     style="fill:#404040;"/>
  </a>
 </g>
</svg>

<style type='text/css'>
<![CDATA[
[data-mouse-over-selected='false'] { opacity: 0.7; }
[data-mouse-over-selected='true']  { opacity: 1.0; }
]]>
</style>
<script type="application/ecmascript"><![CDATA[
document.addEventListener('DOMContentLoaded', (event) => {
  highlightEdges();
  highlightAdjacentNodes();
});
]]></script>
</svg>
