<?xml version="1.0" encoding="UTF-8" standalone="no"?>
<!DOCTYPE svg PUBLIC "-//W3C//DTD SVG 1.1//EN"
 "http://www.w3.org/Graphics/SVG/1.1/DTD/svg11.dtd">
<!-- Generated by graphviz version 2.43.0 (0)
 -->
<!-- Title: lmmc/lmmc.h Pages: 1 -->
<!--zoomable 357 -->

<svg id="main" version="1.1" xmlns="http://www.w3.org/2000/svg" xmlns:xlink="http://www.w3.org/1999/xlink" xml:space="preserve" onload="init(evt)">
<style type="text/css"><![CDATA[
.node, .edge {opacity: 0.7;}
.node.selected, .edge.selected {opacity: 1;}
.edge:hover path { stroke: red; }
.edge:hover polygon { stroke: red; fill: red; }
]]></style>

<defs>
  <circle id="rim" cx="0" cy="0" r="7"/>
  <circle id="rim2" cx="0" cy="0" r="3.5"/>
  <g id="zoomPlus">
    <use xlink:href="#rim" fill="#404040"><set attributeName="fill" to="#808080" begin="zoomplus.mouseover" end="zoomplus.mouseout"/></use>
    <path d="M-4,0h8M0,-4v8" fill="none" stroke="white" stroke-width="1.5" pointer-events="none"/>
  </g>
  <g id="zoomMin">
    <use xlink:href="#rim" fill="#404040"><set attributeName="fill" to="#808080" begin="zoomminus.mouseover" end="zoomminus.mouseout"/></use>
    <path d="M-4,0h8" fill="none" stroke="white" stroke-width="1.5" pointer-events="none"/>
  </g>
  <g id="arrowUp" transform="translate(30 24)">
    <use xlink:href="#rim"/>
    <path pointer-events="none" fill="none" stroke="white" stroke-width="1.5" d="M0,-3.0v7 M-2.5,-0.5L0,-3.0L2.5,-0.5"/>
  </g>
  <g id="arrowRight" transform="rotate(90) translate(36 -43)">
    <use xlink:href="#rim"/>
    <path pointer-events="none" fill="none" stroke="white" stroke-width="1.5" d="M0,-3.0v7 M-2.5,-0.5L0,-3.0L2.5,-0.5"/>
  </g>
  <g id="arrowDown" transform="rotate(180) translate(-30 -48)">
    <use xlink:href="#rim"/>
    <path pointer-events="none" fill="none" stroke="white" stroke-width="1.5" d="M0,-3.0v7 M-2.5,-0.5L0,-3.0L2.5,-0.5"/>
  </g>
  <g id="arrowLeft" transform="rotate(270) translate(-36 17)">
    <use xlink:href="#rim"/>
    <path pointer-events="none" fill="none" stroke="white" stroke-width="1.5" d="M0,-3.0v7 M-2.5,-0.5L0,-3.0L2.5,-0.5"/>
  </g>
  <g id="resetDef">
    <use xlink:href="#rim2" fill="#404040"><set attributeName="fill" to="#808080" begin="reset.mouseover" end="reset.mouseout"/></use>
  </g>
</defs>
<script type="application/ecmascript">
var viewWidth = 1261;
var viewHeight = 357;
var sectionId = 'dynsection-0';
</script>
<script type="application/ecmascript" xlink:href="svg.min.js"/>
<svg id="graph" class="graph">
<g id="viewport">
<title>lmmc/lmmc.h</title>
<!-- Node1 -->
<g id="Node000001" class="node">
<title>Node1</title>
<g id="a_Node000001"><a xlink:title="LMMC 总入口头文件，聚合所有公共子模块。">
<polygon fill="#999999" stroke="#666666" points="771,-349 687,-349 687,-330 771,-330 771,-349"/>
<text text-anchor="middle" x="729" y="-337" font-family="Helvetica,sans-Serif" font-size="10.00">lmmc/lmmc.h</text>
</a>
</g>
</g>
<!-- Node2 -->
<g id="Node000002" class="node">
<title>Node2</title>
<g id="a_Node000002"><a xlink:href="init_8h.html" target="_top" xlink:title="LMMC 库初始化与底层栈管理接口。">
<polygon fill="white" stroke="#666666" points="72,-239 0,-239 0,-220 72,-220 72,-239"/>
<text text-anchor="middle" x="36" y="-227" font-family="Helvetica,sans-Serif" font-size="10.00">lmmc/init.h</text>
</a>
</g>
</g>
<!-- Node1&#45;&gt;Node2 -->
<g id="edge1_Node000001_Node000002" class="edge">
<title>Node1&#45;&gt;Node2</title>
<g id="a_edge1_Node000001_Node000002"><a xlink:title=" ">
<path fill="none" stroke="#63b8ff" d="M686.69,-338.72C565.39,-338.84 218.48,-335.46 114,-294 88.53,-283.89 64.97,-262.31 50.56,-247.13"/>
<polygon fill="#63b8ff" stroke="#63b8ff" points="52.87,-244.47 43.53,-239.46 47.71,-249.2 52.87,-244.47"/>
</a>
</g>
</g>
<!-- Node4 -->
<g id="Node000004" class="node">
<title>Node4</title>
<g id="a_Node000004"><a xlink:href="status_8h.html" target="_top" xlink:title="LMMC 通用状态码定义。">
<polygon fill="white" stroke="#666666" points="806,-74 720,-74 720,-55 806,-55 806,-74"/>
<text text-anchor="middle" x="763" y="-62" font-family="Helvetica,sans-Serif" font-size="10.00">lmmc/status.h</text>
</a>
</g>
</g>
<!-- Node1&#45;&gt;Node4 -->
<g id="edge3_Node000001_Node000004" class="edge">
<title>Node1&#45;&gt;Node4</title>
<g id="a_edge3_Node000001_Node000004"><a xlink:title=" ">
<path fill="none" stroke="#63b8ff" d="M731.89,-329.92C740.27,-303.53 762.12,-221.85 733,-165 720.52,-140.63 695.48,-153.37 683,-129 679.15,-121.48 678.72,-117.28 683,-110 691.74,-95.14 707.44,-84.88 722.63,-77.99"/>
<polygon fill="#63b8ff" stroke="#63b8ff" points="724.06,-81.19 731.95,-74.13 721.38,-74.72 724.06,-81.19"/>
</a>
</g>
</g>
<!-- Node5 -->
<g id="Node000005" class="node">
<title>Node5</title>
<g id="a_Node000005"><a xlink:href="dense_8h.html" target="_top" xlink:title="稠密矩阵 / 向量数据结构与基本运算（含 BLAS Level 1 / 2 接口）。">
<polygon fill="white" stroke="#666666" points="778,-129 692,-129 692,-110 778,-110 778,-129"/>
<text text-anchor="middle" x="735" y="-117" font-family="Helvetica,sans-Serif" font-size="10.00">lmmc/dense.h</text>
</a>
</g>
</g>
<!-- Node1&#45;&gt;Node5 -->
<g id="edge4_Node000001_Node000005" class="edge">
<title>Node1&#45;&gt;Node5</title>
<g id="a_edge4_Node000001_Node000005"><a xlink:title=" ">
<path fill="none" stroke="#63b8ff" d="M739.44,-329.87C748.42,-321.7 760.74,-308.55 766,-294 785.49,-240.08 783.17,-219.7 766,-165 762.77,-154.71 756.22,-144.72 749.97,-136.82"/>
<polygon fill="#63b8ff" stroke="#63b8ff" points="752.61,-134.52 743.48,-129.15 747.27,-139.04 752.61,-134.52"/>
</a>
</g>
</g>
<!-- Node8 -->
<g id="Node000008" class="node">
<title>Node8</title>
<g id="a_Node000008"><a xlink:href="precond_8h.html" target="_top" xlink:title="迭代求解器使用的预处理子接口。">
<polygon fill="white" stroke="#666666" points="579.5,-239 484.5,-239 484.5,-220 579.5,-220 579.5,-239"/>
<text text-anchor="middle" x="532" y="-227" font-family="Helvetica,sans-Serif" font-size="10.00">lmmc/precond.h</text>
</a>
</g>
</g>
<!-- Node1&#45;&gt;Node8 -->
<g id="edge9_Node000001_Node000008" class="edge">
<title>Node1&#45;&gt;Node8</title>
<g id="a_edge9_Node000001_Node000008"><a xlink:title=" ">
<path fill="none" stroke="#63b8ff" d="M713.21,-329.84C678.91,-311.04 597.36,-266.33 556.39,-243.87"/>
<polygon fill="#63b8ff" stroke="#63b8ff" points="558.04,-240.79 547.59,-239.05 554.68,-246.92 558.04,-240.79"/>
</a>
</g>
</g>
<!-- Node9 -->
<g id="Node000009" class="node">
<title>Node9</title>
<g id="a_Node000009"><a xlink:href="sparse_8h.html" target="_top" xlink:title="稀疏矩阵数据结构、构造器与基本运算。">
<polygon fill="white" stroke="#666666" points="465.5,-184 376.5,-184 376.5,-165 465.5,-165 465.5,-184"/>
<text text-anchor="middle" x="421" y="-172" font-family="Helvetica,sans-Serif" font-size="10.00">lmmc/sparse.h</text>
</a>
</g>
</g>
<!-- Node1&#45;&gt;Node9 -->
<g id="edge36_Node000001_Node000009" class="edge">
<title>Node1&#45;&gt;Node9</title>
<g id="a_edge36_Node000001_Node000009"><a xlink:title=" ">
<path fill="none" stroke="#63b8ff" d="M691.29,-329.95C639.06,-316.8 543.41,-287.86 475,-239 457.23,-226.3 441.64,-206.51 431.84,-192.39"/>
<polygon fill="#63b8ff" stroke="#63b8ff" points="434.74,-190.43 426.27,-184.07 428.92,-194.33 434.74,-190.43"/>
</a>
</g>
</g>
<!-- Node10 -->
<g id="Node000010" class="node">
<title>Node10</title>
<g id="a_Node000010"><a xlink:href="itersolve_8h.html" target="_top" xlink:title="稀疏线性系统的迭代求解器（CG / BiCGSTAB / GMRES / MINRES / LSQR）。">
<polygon fill="white" stroke="#666666" points="427.5,-294 328.5,-294 328.5,-275 427.5,-275 427.5,-294"/>
<text text-anchor="middle" x="378" y="-282" font-family="Helvetica,sans-Serif" font-size="10.00">lmmc/itersolve.h</text>
</a>
</g>
</g>
<!-- Node1&#45;&gt;Node10 -->
<g id="edge18_Node000001_Node000010" class="edge">
<title>Node1&#45;&gt;Node10</title>
<g id="a_edge18_Node000001_Node000010"><a xlink:title=" ">
<path fill="none" stroke="#63b8ff" d="M686.66,-332.11C624.53,-322.73 508.39,-305.19 437.65,-294.51"/>
<polygon fill="#63b8ff" stroke="#63b8ff" points="437.96,-291.01 427.55,-292.98 436.91,-297.94 437.96,-291.01"/>
</a>
</g>
</g>
<!-- Node11 -->
<g id="Node000011" class="node">
<title>Node11</title>
<g id="a_Node000011"><a xlink:href="numeric_8h.html" target="_top" xlink:title="数值常量、特殊值、近似比较与基本数学补充函数。">
<polygon fill="white" stroke="#666666" points="320,-129 224,-129 224,-110 320,-110 320,-129"/>
<text text-anchor="middle" x="272" y="-117" font-family="Helvetica,sans-Serif" font-size="10.00">lmmc/numeric.h</text>
</a>
</g>
</g>
<!-- Node1&#45;&gt;Node11 -->
<g id="edge29_Node000001_Node000011" class="edge">
<title>Node1&#45;&gt;Node11</title>
<g id="a_edge29_Node000001_Node000011"><a xlink:title=" ">
<path fill="none" stroke="#63b8ff" d="M686.76,-336.57C587.7,-331.66 346.71,-317.44 319,-294 272.78,-254.9 269.62,-175.42 270.8,-139.22"/>
<polygon fill="#63b8ff" stroke="#63b8ff" points="274.3,-139.25 271.29,-129.09 267.31,-138.91 274.3,-139.25"/>
</a>
</g>
</g>
<!-- Node12 -->
<g id="Node000012" class="node">
<title>Node12</title>
<g id="a_Node000012"><a xlink:href="linear__algebra_8h.html" target="_top" xlink:title="稠密矩阵直接分解接口（LU、Cholesky、QR）。">
<polygon fill="white" stroke="#666666" points="724,-184 598,-184 598,-165 724,-165 724,-184"/>
<text text-anchor="middle" x="661" y="-172" font-family="Helvetica,sans-Serif" font-size="10.00">lmmc/linear_algebra.h</text>
</a>
</g>
</g>
<!-- Node1&#45;&gt;Node12 -->
<g id="edge26_Node000001_Node000012" class="edge">
<title>Node1&#45;&gt;Node12</title>
<g id="a_edge26_Node000001_Node000012"><a xlink:title=" ">
<path fill="none" stroke="#63b8ff" d="M725.34,-329.74C714.64,-304.09 683.23,-228.78 668.62,-193.78"/>
<polygon fill="#63b8ff" stroke="#63b8ff" points="671.75,-192.19 664.67,-184.31 665.29,-194.88 671.75,-192.19"/>
</a>
</g>
</g>
<!-- Node13 -->
<g id="Node000013" class="node">
<title>Node13</title>
<g id="a_Node000013"><a xlink:href="nonlinear_8h.html" target="_top" xlink:title="标量非线性方程求根：二分法、Newton、割线法。">
<polygon fill="white" stroke="#666666" points="243.5,-184 142.5,-184 142.5,-165 243.5,-165 243.5,-184"/>
<text text-anchor="middle" x="193" y="-172" font-family="Helvetica,sans-Serif" font-size="10.00">lmmc/nonlinear.h</text>
</a>
</g>
</g>
<!-- Node1&#45;&gt;Node13 -->
<g id="edge30_Node000001_Node000013" class="edge">
<title>Node1&#45;&gt;Node13</title>
<g id="a_edge30_Node000001_Node000013"><a xlink:title=" ">
<path fill="none" stroke="#63b8ff" d="M686.95,-336.77C578.17,-331.96 293.43,-317.3 258,-294 222.5,-270.66 204.7,-221.06 197.32,-194.02"/>
<polygon fill="#63b8ff" stroke="#63b8ff" points="200.7,-193.09 194.85,-184.26 193.91,-194.81 200.7,-193.09"/>
</a>
</g>
</g>
<!-- Node14 -->
<g id="Node000014" class="node">
<title>Node14</title>
<g id="a_Node000014"><a xlink:href="ode_8h.html" target="_top" xlink:title="常微分方程初值问题求解器：Euler、RK4、RK45（自适应）。">
<polygon fill="white" stroke="#666666" points="124,-184 50,-184 50,-165 124,-165 124,-184"/>
<text text-anchor="middle" x="87" y="-172" font-family="Helvetica,sans-Serif" font-size="10.00">lmmc/ode.h</text>
</a>
</g>
</g>
<!-- Node1&#45;&gt;Node14 -->
<g id="edge33_Node000001_Node000014" class="edge">
<title>Node1&#45;&gt;Node14</title>
<g id="a_edge33_Node000001_Node000014"><a xlink:title=" ">
<path fill="none" stroke="#63b8ff" d="M686.8,-337.86C582.47,-335.78 314.91,-327.25 233,-294 176.5,-271.06 124.72,-218.51 100.86,-191.77"/>
<polygon fill="#63b8ff" stroke="#63b8ff" points="103.34,-189.29 94.12,-184.07 98.07,-193.9 103.34,-189.29"/>
</a>
</g>
</g>
<!-- Node15 -->
<g id="Node000015" class="node">
<title>Node15</title>
<g id="a_Node000015"><a xlink:href="stats_8h.html" target="_top" xlink:title="基础统计量与组合数学接口。">
<polygon fill="white" stroke="#666666" points="1142,-184 1062,-184 1062,-165 1142,-165 1142,-184"/>
<text text-anchor="middle" x="1102" y="-172" font-family="Helvetica,sans-Serif" font-size="10.00">lmmc/stats.h</text>
</a>
</g>
</g>
<!-- Node1&#45;&gt;Node15 -->
<g id="edge37_Node000001_Node000015" class="edge">
<title>Node1&#45;&gt;Node15</title>
<g id="a_edge37_Node000001_Node000015"><a xlink:title=" ">
<path fill="none" stroke="#63b8ff" d="M771.07,-337.56C847.46,-335.06 1005.03,-326.06 1048,-294 1080.66,-269.63 1094.1,-220.83 1099.19,-194.09"/>
<polygon fill="#63b8ff" stroke="#63b8ff" points="1102.66,-194.55 1100.9,-184.11 1095.76,-193.38 1102.66,-194.55"/>
</a>
</g>
</g>
<!-- Node17 -->
<g id="Node000017" class="node">
<title>Node17</title>
<g id="a_Node000017"><a xlink:href="tensor_8h.html" target="_top" xlink:title="N&#45;D 稠密张量数据结构与基本运算。">
<polygon fill="white" stroke="#666666" points="904,-184 818,-184 818,-165 904,-165 904,-184"/>
<text text-anchor="middle" x="861" y="-172" font-family="Helvetica,sans-Serif" font-size="10.00">lmmc/tensor.h</text>
</a>
</g>
</g>
<!-- Node1&#45;&gt;Node17 -->
<g id="edge40_Node000001_Node000017" class="edge">
<title>Node1&#45;&gt;Node17</title>
<g id="a_edge40_Node000001_Node000017"><a xlink:title=" ">
<path fill="none" stroke="#63b8ff" d="M750.37,-329.94C766.77,-322.48 789.07,-310.3 804,-294 831.27,-264.24 848.07,-219.05 855.84,-193.95"/>
<polygon fill="#63b8ff" stroke="#63b8ff" points="859.23,-194.82 858.71,-184.24 852.52,-192.84 859.23,-194.82"/>
</a>
</g>
</g>
<!-- Node18 -->
<g id="Node000018" class="node">
<title>Node18</title>
<g id="a_Node000018"><a xlink:href="eigen_8h.html" target="_top" xlink:title="特征值 / 奇异值分解、伪逆与条件数接口。">
<polygon fill="white" stroke="#666666" points="1005.5,-184 922.5,-184 922.5,-165 1005.5,-165 1005.5,-184"/>
<text text-anchor="middle" x="964" y="-172" font-family="Helvetica,sans-Serif" font-size="10.00">lmmc/eigen.h</text>
</a>
</g>
</g>
<!-- Node1&#45;&gt;Node18 -->
<g id="edge44_Node000001_Node000018" class="edge">
<title>Node1&#45;&gt;Node18</title>
<g id="a_edge44_Node000001_Node000018"><a xlink:title=" ">
<path fill="none" stroke="#63b8ff" d="M752.02,-329.89C772.06,-321.93 801.49,-309.07 825,-294 873.69,-262.79 923.56,-215.9 948.21,-191.52"/>
<polygon fill="#63b8ff" stroke="#63b8ff" points="950.96,-193.71 955.56,-184.17 946.02,-188.76 950.96,-193.71"/>
</a>
</g>
</g>
<!-- Node19 -->
<g id="Node000019" class="node">
<title>Node19</title>
<g id="a_Node000019"><a xlink:href="interp_8h.html" target="_top" xlink:title="一维插值算法：线性、三次样条、Lagrange 多项式、PCHIP、Akima、二维插值。">
<polygon fill="white" stroke="#666666" points="995.5,-129 910.5,-129 910.5,-110 995.5,-110 995.5,-129"/>
<text text-anchor="middle" x="953" y="-117" font-family="Helvetica,sans-Serif" font-size="10.00">lmmc/interp.h</text>
</a>
</g>
</g>
<!-- Node1&#45;&gt;Node19 -->
<g id="edge47_Node000001_Node000019" class="edge">
<title>Node1&#45;&gt;Node19</title>
<g id="a_edge47_Node000001_Node000019"><a xlink:title=" ">
<path fill="none" stroke="#63b8ff" d="M771.22,-330.77C838.11,-315.93 965.93,-276.31 1015,-184 1025.77,-163.73 1003.02,-145.55 982.11,-133.89"/>
<polygon fill="#63b8ff" stroke="#63b8ff" points="983.54,-130.69 973.06,-129.16 980.29,-136.9 983.54,-130.69"/>
</a>
</g>
</g>
<!-- Node20 -->
<g id="Node000020" class="node">
<title>Node20</title>
<g id="a_Node000020"><a xlink:href="quadrature_8h.html" target="_top" xlink:title="一元数值积分：梯形、Simpson、Gauss&#45;Legendre、自适应 Simpson。">
<polygon fill="white" stroke="#666666" points="1124,-129 1014,-129 1014,-110 1124,-110 1124,-129"/>
<text text-anchor="middle" x="1069" y="-117" font-family="Helvetica,sans-Serif" font-size="10.00">lmmc/quadrature.h</text>
</a>
</g>
</g>
<!-- Node1&#45;&gt;Node20 -->
<g id="edge51_Node000001_Node000020" class="edge">
<title>Node1&#45;&gt;Node20</title>
<g id="a_edge51_Node000001_Node000020"><a xlink:title=" ">
<path fill="none" stroke="#63b8ff" d="M771.15,-337.09C850.89,-333.75 1020.25,-323.35 1070,-294 1128.31,-259.61 1185.62,-223.18 1151,-165 1142.08,-150.02 1126.16,-139.76 1110.71,-132.91"/>
<polygon fill="#63b8ff" stroke="#63b8ff" points="1111.8,-129.58 1101.21,-129.08 1109.17,-136.07 1111.8,-129.58"/>
</a>
</g>
</g>
<!-- Node21 -->
<g id="Node000021" class="node">
<title>Node21</title>
<g id="a_Node000021"><a xlink:href="random_8h.html" target="_top" xlink:title="伪随机数发生器与常用分布。">
<polygon fill="white" stroke="#666666" points="1236,-129 1142,-129 1142,-110 1236,-110 1236,-129"/>
<text text-anchor="middle" x="1189" y="-117" font-family="Helvetica,sans-Serif" font-size="10.00">lmmc/random.h</text>
</a>
</g>
</g>
<!-- Node1&#45;&gt;Node21 -->
<g id="edge55_Node000001_Node000021" class="edge">
<title>Node1&#45;&gt;Node21</title>
<g id="a_edge55_Node000001_Node000021"><a xlink:title=" ">
<path fill="none" stroke="#63b8ff" d="M771.19,-336.47C855.34,-331.93 1040.95,-319.3 1099,-294 1133.69,-278.88 1144.6,-271.49 1164,-239 1182.8,-207.52 1187.58,-163.94 1188.73,-139.35"/>
<polygon fill="#63b8ff" stroke="#63b8ff" points="1192.23,-139.33 1189.04,-129.23 1185.23,-139.11 1192.23,-139.33"/>
</a>
</g>
</g>
<!-- Node3 -->
<g id="Node000003" class="node">
<title>Node3</title>
<g id="a_Node000003"><a xlink:title=" ">
<polygon fill="#e0e0e0" stroke="#999999" points="528,-74 472,-74 472,-55 528,-55 528,-74"/>
<text text-anchor="middle" x="500" y="-62" font-family="Helvetica,sans-Serif" font-size="10.00">stddef.h</text>
</a>
</g>
</g>
<!-- Node2&#45;&gt;Node3 -->
<g id="edge2_Node000002_Node000003" class="edge">
<title>Node2&#45;&gt;Node3</title>
<g id="a_edge2_Node000002_Node000003"><a xlink:title=" ">
<path fill="none" stroke="#63b8ff" d="M34.18,-219.82C31.94,-206.72 29.69,-181.65 41,-165 72.15,-119.12 99.89,-125.96 153,-110 261.82,-77.29 396.91,-68.62 461.76,-66.33"/>
<polygon fill="#63b8ff" stroke="#63b8ff" points="462.04,-69.82 471.92,-66 461.81,-62.82 462.04,-69.82"/>
</a>
</g>
</g>
<!-- Node5&#45;&gt;Node3 -->
<g id="edge5_Node000005_Node000003" class="edge">
<title>Node5&#45;&gt;Node3</title>
<g id="a_edge5_Node000005_Node000003"><a xlink:title=" ">
<path fill="none" stroke="#63b8ff" d="M697.24,-109.98C653.52,-100.12 581.91,-83.97 538.06,-74.08"/>
<polygon fill="#63b8ff" stroke="#63b8ff" points="538.6,-70.62 528.08,-71.83 537.06,-77.45 538.6,-70.62"/>
</a>
</g>
</g>
<!-- Node5&#45;&gt;Node4 -->
<g id="edge6_Node000005_Node000004" class="edge">
<title>Node5&#45;&gt;Node4</title>
<g id="a_edge6_Node000005_Node000004"><a xlink:title=" ">
<path fill="none" stroke="#63b8ff" d="M739.62,-109.75C743.46,-102.49 749.02,-91.95 753.76,-82.98"/>
<polygon fill="#63b8ff" stroke="#63b8ff" points="756.89,-84.57 758.46,-74.09 750.7,-81.3 756.89,-84.57"/>
</a>
</g>
</g>
<!-- Node6 -->
<g id="Node000006" class="node">
<title>Node6</title>
<g id="a_Node000006"><a xlink:href="config_8h.html" target="_top" xlink:title="LMMC 实数类型与基本运算抽象。">
<polygon fill="white" stroke="#666666" points="939,-74 853,-74 853,-55 939,-55 939,-74"/>
<text text-anchor="middle" x="896" y="-62" font-family="Helvetica,sans-Serif" font-size="10.00">lmmc/config.h</text>
</a>
</g>
</g>
<!-- Node5&#45;&gt;Node6 -->
<g id="edge7_Node000005_Node000006" class="edge">
<title>Node5&#45;&gt;Node6</title>
<g id="a_edge7_Node000005_Node000006"><a xlink:title=" ">
<path fill="none" stroke="#63b8ff" d="M760.87,-109.98C787.78,-101.13 830.12,-87.19 860.23,-77.28"/>
<polygon fill="#63b8ff" stroke="#63b8ff" points="861.53,-80.53 869.93,-74.08 859.34,-73.88 861.53,-80.53"/>
</a>
</g>
</g>
<!-- Node7 -->
<g id="Node000007" class="node">
<title>Node7</title>
<g id="a_Node000007"><a xlink:title=" ">
<polygon fill="#e0e0e0" stroke="#999999" points="921.5,-19 870.5,-19 870.5,0 921.5,0 921.5,-19"/>
<text text-anchor="middle" x="896" y="-7" font-family="Helvetica,sans-Serif" font-size="10.00">math.h</text>
</a>
</g>
</g>
<!-- Node6&#45;&gt;Node7 -->
<g id="edge8_Node000006_Node000007" class="edge">
<title>Node6&#45;&gt;Node7</title>
<g id="a_edge8_Node000006_Node000007"><a xlink:title=" ">
<path fill="none" stroke="#63b8ff" d="M896,-54.75C896,-47.8 896,-37.85 896,-29.13"/>
<polygon fill="#63b8ff" stroke="#63b8ff" points="899.5,-29.09 896,-19.09 892.5,-29.09 899.5,-29.09"/>
</a>
</g>
</g>
<!-- Node8&#45;&gt;Node3 -->
<g id="edge10_Node000008_Node000003" class="edge">
<title>Node8&#45;&gt;Node3</title>
<g id="a_edge10_Node000008_Node000003"><a xlink:title=" ">
<path fill="none" stroke="#63b8ff" d="M528.8,-219.75C525.66,-210.85 520.93,-196.62 518,-184 509.92,-149.16 504.58,-107.69 501.94,-84.19"/>
<polygon fill="#63b8ff" stroke="#63b8ff" points="505.41,-83.78 500.86,-74.21 498.45,-84.53 505.41,-83.78"/>
</a>
</g>
</g>
<!-- Node8&#45;&gt;Node4 -->
<g id="edge17_Node000008_Node000004" class="edge">
<title>Node8&#45;&gt;Node4</title>
<g id="a_edge17_Node000008_Node000004"><a xlink:title=" ">
<path fill="none" stroke="#63b8ff" d="M534.7,-219.83C539.12,-206.74 548.94,-181.68 564,-165 606.11,-118.35 675.07,-90.81 719.75,-76.93"/>
<polygon fill="#63b8ff" stroke="#63b8ff" points="720.88,-80.24 729.44,-74.01 718.86,-73.54 720.88,-80.24"/>
</a>
</g>
</g>
<!-- Node8&#45;&gt;Node5 -->
<g id="edge11_Node000008_Node000005" class="edge">
<title>Node8&#45;&gt;Node5</title>
<g id="a_edge11_Node000008_Node000005"><a xlink:title=" ">
<path fill="none" stroke="#63b8ff" d="M537.54,-219.73C546.62,-206.05 566.02,-179.65 589,-165 617.08,-147.1 652.78,-136.05 681.85,-129.44"/>
<polygon fill="#63b8ff" stroke="#63b8ff" points="682.8,-132.81 691.83,-127.28 681.32,-125.97 682.8,-132.81"/>
</a>
</g>
</g>
<!-- Node8&#45;&gt;Node9 -->
<g id="edge12_Node000008_Node000009" class="edge">
<title>Node8&#45;&gt;Node9</title>
<g id="a_edge12_Node000008_Node000009"><a xlink:title=" ">
<path fill="none" stroke="#63b8ff" d="M514.17,-219.98C496.39,-211.5 468.85,-198.35 448.32,-188.54"/>
<polygon fill="#63b8ff" stroke="#63b8ff" points="449.69,-185.32 439.16,-184.17 446.67,-191.64 449.69,-185.32"/>
</a>
</g>
</g>
<!-- Node9&#45;&gt;Node3 -->
<g id="edge13_Node000009_Node000003" class="edge">
<title>Node9&#45;&gt;Node3</title>
<g id="a_edge13_Node000009_Node000003"><a xlink:title=" ">
<path fill="none" stroke="#63b8ff" d="M416.08,-164.99C409.35,-152.1 399.26,-127.3 410,-110 421.43,-91.59 442.99,-80.57 462.14,-74.1"/>
<polygon fill="#63b8ff" stroke="#63b8ff" points="463.33,-77.39 471.87,-71.11 461.28,-70.7 463.33,-77.39"/>
</a>
</g>
</g>
<!-- Node9&#45;&gt;Node4 -->
<g id="edge15_Node000009_Node000004" class="edge">
<title>Node9&#45;&gt;Node4</title>
<g id="a_edge15_Node000009_Node000004"><a xlink:title=" ">
<path fill="none" stroke="#63b8ff" d="M421.99,-164.9C424.08,-150.94 430.32,-123.57 448,-110 487.94,-79.35 630.75,-69.79 709.66,-66.82"/>
<polygon fill="#63b8ff" stroke="#63b8ff" points="710.01,-70.31 719.89,-66.46 709.77,-63.31 710.01,-70.31"/>
</a>
</g>
</g>
<!-- Node9&#45;&gt;Node5 -->
<g id="edge14_Node000009_Node000005" class="edge">
<title>Node9&#45;&gt;Node5</title>
<g id="a_edge14_Node000009_Node000005"><a xlink:title=" ">
<path fill="none" stroke="#63b8ff" d="M465.66,-165.96C522.56,-156.36 620.8,-139.78 681.6,-129.51"/>
<polygon fill="#63b8ff" stroke="#63b8ff" points="682.48,-132.91 691.76,-127.8 681.32,-126.01 682.48,-132.91"/>
</a>
</g>
</g>
<!-- Node9&#45;&gt;Node6 -->
<g id="edge16_Node000009_Node000006" class="edge">
<title>Node9&#45;&gt;Node6</title>
<g id="a_edge16_Node000009_Node000006"><a xlink:title=" ">
<path fill="none" stroke="#63b8ff" d="M454.83,-164.93C504.68,-152.4 600.82,-128.54 683,-110 737.42,-97.72 799.92,-84.8 843.08,-76.07"/>
<polygon fill="#63b8ff" stroke="#63b8ff" points="843.97,-79.46 853.08,-74.05 842.58,-72.6 843.97,-79.46"/>
</a>
</g>
</g>
<!-- Node10&#45;&gt;Node3 -->
<g id="edge19_Node000010_Node000003" class="edge">
<title>Node10&#45;&gt;Node3</title>
<g id="a_edge19_Node000010_Node000003"><a xlink:title=" ">
<path fill="none" stroke="#63b8ff" d="M375.09,-274.96C368.79,-255.18 355.39,-204.87 367,-165 375.1,-137.18 380.12,-129 402,-110 419.38,-94.91 442.72,-84.03 462.27,-76.82"/>
<polygon fill="#63b8ff" stroke="#63b8ff" points="463.53,-80.08 471.8,-73.47 461.21,-73.48 463.53,-80.08"/>
</a>
</g>
</g>
<!-- Node10&#45;&gt;Node8 -->
<g id="edge24_Node000010_Node000008" class="edge">
<title>Node10&#45;&gt;Node8</title>
<g id="a_edge24_Node000010_Node000008"><a xlink:title=" ">
<path fill="none" stroke="#63b8ff" d="M402.74,-274.98C428.37,-266.16 468.63,-252.31 497.41,-242.41"/>
<polygon fill="#63b8ff" stroke="#63b8ff" points="498.75,-245.65 507.06,-239.08 496.47,-239.03 498.75,-245.65"/>
</a>
</g>
</g>
<!-- Node10&#45;&gt;Node9 -->
<g id="edge25_Node000010_Node000009" class="edge">
<title>Node10&#45;&gt;Node9</title>
<g id="a_edge25_Node000010_Node000009"><a xlink:title=" ">
<path fill="none" stroke="#63b8ff" d="M381.52,-274.66C388.55,-257.01 404.44,-217.09 413.78,-193.64"/>
<polygon fill="#63b8ff" stroke="#63b8ff" points="417.11,-194.74 417.55,-184.16 410.6,-192.15 417.11,-194.74"/>
</a>
</g>
</g>
<!-- Node10&#45;&gt;Node11 -->
<g id="edge20_Node000010_Node000011" class="edge">
<title>Node10&#45;&gt;Node11</title>
<g id="a_edge20_Node000010_Node000011"><a xlink:title=" ">
<path fill="none" stroke="#63b8ff" d="M367.68,-274.7C358.15,-266.22 344,-252.69 334,-239 309.9,-206.01 289.64,-162.39 279.32,-138.33"/>
<polygon fill="#63b8ff" stroke="#63b8ff" points="282.52,-136.9 275.42,-129.04 276.07,-139.61 282.52,-136.9"/>
</a>
</g>
</g>
<!-- Node11&#45;&gt;Node3 -->
<g id="edge21_Node000011_Node000003" class="edge">
<title>Node11&#45;&gt;Node3</title>
<g id="a_edge21_Node000011_Node000003"><a xlink:title=" ">
<path fill="none" stroke="#63b8ff" d="M308.63,-109.98C350.61,-100.23 419.1,-84.31 461.75,-74.39"/>
<polygon fill="#63b8ff" stroke="#63b8ff" points="462.79,-77.74 471.74,-72.07 461.21,-70.92 462.79,-77.74"/>
</a>
</g>
</g>
<!-- Node11&#45;&gt;Node4 -->
<g id="edge23_Node000011_Node000004" class="edge">
<title>Node11&#45;&gt;Node4</title>
<g id="a_edge23_Node000011_Node000004"><a xlink:title=" ">
<path fill="none" stroke="#63b8ff" d="M320.42,-113.27C412.86,-103.29 613.8,-81.61 709.83,-71.24"/>
<polygon fill="#63b8ff" stroke="#63b8ff" points="710.33,-74.71 719.89,-70.15 709.58,-67.75 710.33,-74.71"/>
</a>
</g>
</g>
<!-- Node11&#45;&gt;Node6 -->
<g id="edge22_Node000011_Node000006" class="edge">
<title>Node11&#45;&gt;Node6</title>
<g id="a_edge22_Node000011_Node000006"><a xlink:title=" ">
<path fill="none" stroke="#63b8ff" d="M320.34,-114.91C415.23,-107.78 632.53,-91.05 815,-74 823.9,-73.17 833.34,-72.23 842.52,-71.29"/>
<polygon fill="#63b8ff" stroke="#63b8ff" points="843.14,-74.74 852.72,-70.23 842.41,-67.78 843.14,-74.74"/>
</a>
</g>
</g>
<!-- Node12&#45;&gt;Node3 -->
<g id="edge27_Node000012_Node000003" class="edge">
<title>Node12&#45;&gt;Node3</title>
<g id="a_edge27_Node000012_Node000003"><a xlink:title=" ">
<path fill="none" stroke="#63b8ff" d="M648.1,-164.84C620.54,-146.36 555.69,-102.86 521.68,-80.05"/>
<polygon fill="#63b8ff" stroke="#63b8ff" points="523.22,-76.86 512.96,-74.2 519.32,-82.67 523.22,-76.86"/>
</a>
</g>
</g>
<!-- Node12&#45;&gt;Node5 -->
<g id="edge28_Node000012_Node000005" class="edge">
<title>Node12&#45;&gt;Node5</title>
<g id="a_edge28_Node000012_Node000005"><a xlink:title=" ">
<path fill="none" stroke="#63b8ff" d="M672.89,-164.98C684.15,-156.92 701.29,-144.65 714.71,-135.03"/>
<polygon fill="#63b8ff" stroke="#63b8ff" points="716.8,-137.84 722.89,-129.17 712.73,-132.15 716.8,-137.84"/>
</a>
</g>
</g>
<!-- Node13&#45;&gt;Node3 -->
<g id="edge31_Node000013_Node000003" class="edge">
<title>Node13&#45;&gt;Node3</title>
<g id="a_edge31_Node000013_Node000003"><a xlink:title=" ">
<path fill="none" stroke="#63b8ff" d="M193.3,-164.97C194.28,-151.13 198.35,-123.92 215,-110 251.73,-79.3 392.56,-69.64 461.51,-66.71"/>
<polygon fill="#63b8ff" stroke="#63b8ff" points="461.68,-70.21 471.54,-66.31 461.4,-63.21 461.68,-70.21"/>
</a>
</g>
</g>
<!-- Node13&#45;&gt;Node11 -->
<g id="edge32_Node000013_Node000011" class="edge">
<title>Node13&#45;&gt;Node11</title>
<g id="a_edge32_Node000013_Node000011"><a xlink:title=" ">
<path fill="none" stroke="#63b8ff" d="M205.69,-164.98C217.83,-156.84 236.36,-144.41 250.75,-134.76"/>
<polygon fill="#63b8ff" stroke="#63b8ff" points="252.72,-137.65 259.08,-129.17 248.82,-131.84 252.72,-137.65"/>
</a>
</g>
</g>
<!-- Node14&#45;&gt;Node3 -->
<g id="edge34_Node000014_Node000003" class="edge">
<title>Node14&#45;&gt;Node3</title>
<g id="a_edge34_Node000014_Node000003"><a xlink:title=" ">
<path fill="none" stroke="#63b8ff" d="M98.61,-164.88C118.06,-150.9 158.97,-123.5 198,-110 289,-78.53 402.95,-69.31 461.44,-66.62"/>
<polygon fill="#63b8ff" stroke="#63b8ff" points="461.85,-70.1 471.7,-66.18 461.56,-63.11 461.85,-70.1"/>
</a>
</g>
</g>
<!-- Node14&#45;&gt;Node11 -->
<g id="edge35_Node000014_Node000011" class="edge">
<title>Node14&#45;&gt;Node11</title>
<g id="a_edge35_Node000014_Node000011"><a xlink:title=" ">
<path fill="none" stroke="#63b8ff" d="M116.72,-164.98C148.05,-156.01 197.57,-141.82 232.24,-131.89"/>
<polygon fill="#63b8ff" stroke="#63b8ff" points="233.39,-135.2 242.04,-129.08 231.47,-128.47 233.39,-135.2"/>
</a>
</g>
</g>
<!-- Node15&#45;&gt;Node5 -->
<g id="edge38_Node000015_Node000005" class="edge">
<title>Node15&#45;&gt;Node5</title>
<g id="a_edge38_Node000015_Node000005"><a xlink:title=" ">
<path fill="none" stroke="#63b8ff" d="M1061.67,-167.68C995.16,-158.07 862.46,-138.91 788.29,-128.2"/>
<polygon fill="#63b8ff" stroke="#63b8ff" points="788.62,-124.71 778.23,-126.74 787.62,-131.64 788.62,-124.71"/>
</a>
</g>
</g>
<!-- Node16 -->
<g id="Node000016" class="node">
<title>Node16</title>
<g id="a_Node000016"><a xlink:title=" ">
<polygon fill="#e0e0e0" stroke="#999999" points="1252.5,-74 1199.5,-74 1199.5,-55 1252.5,-55 1252.5,-74"/>
<text text-anchor="middle" x="1226" y="-62" font-family="Helvetica,sans-Serif" font-size="10.00">stdint.h</text>
</a>
</g>
</g>
<!-- Node15&#45;&gt;Node16 -->
<g id="edge39_Node000015_Node000016" class="edge">
<title>Node15&#45;&gt;Node16</title>
<g id="a_edge39_Node000015_Node000016"><a xlink:title=" ">
<path fill="none" stroke="#63b8ff" d="M1142.03,-173.19C1175.55,-170.55 1221.57,-160.83 1245,-129 1255.09,-115.3 1247.18,-96.24 1238.7,-82.58"/>
<polygon fill="#63b8ff" stroke="#63b8ff" points="1241.47,-80.43 1232.96,-74.12 1235.68,-84.36 1241.47,-80.43"/>
</a>
</g>
</g>
<!-- Node17&#45;&gt;Node3 -->
<g id="edge41_Node000017_Node000003" class="edge">
<title>Node17&#45;&gt;Node3</title>
<g id="a_edge41_Node000017_Node000003"><a xlink:title=" ">
<path fill="none" stroke="#63b8ff" d="M853.84,-164.81C841.71,-150.72 815.6,-123.17 787,-110 704.22,-71.88 595.26,-65.41 538.36,-64.89"/>
<polygon fill="#63b8ff" stroke="#63b8ff" points="538.37,-61.39 528.36,-64.86 538.34,-68.39 538.37,-61.39"/>
</a>
</g>
</g>
<!-- Node17&#45;&gt;Node4 -->
<g id="edge43_Node000017_Node000004" class="edge">
<title>Node17&#45;&gt;Node4</title>
<g id="a_edge43_Node000017_Node000004"><a xlink:title=" ">
<path fill="none" stroke="#63b8ff" d="M856.52,-164.64C849.73,-151.74 835.94,-127.43 820,-110 809.71,-98.74 796.34,-88.14 785.14,-80.12"/>
<polygon fill="#63b8ff" stroke="#63b8ff" points="786.93,-77.1 776.72,-74.27 782.94,-82.85 786.93,-77.1"/>
</a>
</g>
</g>
<!-- Node17&#45;&gt;Node5 -->
<g id="edge42_Node000017_Node000005" class="edge">
<title>Node17&#45;&gt;Node5</title>
<g id="a_edge42_Node000017_Node000005"><a xlink:title=" ">
<path fill="none" stroke="#63b8ff" d="M840.76,-164.98C820.3,-156.38 788.47,-142.99 765.07,-133.15"/>
<polygon fill="#63b8ff" stroke="#63b8ff" points="766.19,-129.82 755.61,-129.17 763.47,-136.27 766.19,-129.82"/>
</a>
</g>
</g>
<!-- Node18&#45;&gt;Node4 -->
<g id="edge46_Node000018_Node000004" class="edge">
<title>Node18&#45;&gt;Node4</title>
<g id="a_edge46_Node000018_Node000004"><a xlink:title=" ">
<path fill="none" stroke="#63b8ff" d="M947.89,-164.84C912.89,-146.04 829.69,-101.33 787.88,-78.87"/>
<polygon fill="#63b8ff" stroke="#63b8ff" points="789.37,-75.7 778.91,-74.05 786.06,-81.86 789.37,-75.7"/>
</a>
</g>
</g>
<!-- Node18&#45;&gt;Node5 -->
<g id="edge45_Node000018_Node000005" class="edge">
<title>Node18&#45;&gt;Node5</title>
<g id="a_edge45_Node000018_Node000005"><a xlink:title=" ">
<path fill="none" stroke="#63b8ff" d="M927.21,-164.98C887.76,-155.86 825.02,-141.33 782.02,-131.38"/>
<polygon fill="#63b8ff" stroke="#63b8ff" points="782.61,-127.93 772.08,-129.08 781.03,-134.75 782.61,-127.93"/>
</a>
</g>
</g>
<!-- Node19&#45;&gt;Node3 -->
<g id="edge50_Node000019_Node000003" class="edge">
<title>Node19&#45;&gt;Node3</title>
<g id="a_edge50_Node000019_Node000003"><a xlink:title=" ">
<path fill="none" stroke="#63b8ff" d="M910.38,-113.51C822.52,-103.23 622.43,-79.82 538.34,-69.99"/>
<polygon fill="#63b8ff" stroke="#63b8ff" points="538.55,-66.49 528.21,-68.8 537.73,-73.44 538.55,-66.49"/>
</a>
</g>
</g>
<!-- Node19&#45;&gt;Node4 -->
<g id="edge49_Node000019_Node000004" class="edge">
<title>Node19&#45;&gt;Node4</title>
<g id="a_edge49_Node000019_Node000004"><a xlink:title=" ">
<path fill="none" stroke="#63b8ff" d="M922.47,-109.98C890.3,-101.01 839.44,-86.82 803.83,-76.89"/>
<polygon fill="#63b8ff" stroke="#63b8ff" points="804.34,-73.4 793.77,-74.08 802.46,-80.14 804.34,-73.4"/>
</a>
</g>
</g>
<!-- Node19&#45;&gt;Node6 -->
<g id="edge48_Node000019_Node000006" class="edge">
<title>Node19&#45;&gt;Node6</title>
<g id="a_edge48_Node000019_Node000006"><a xlink:title=" ">
<path fill="none" stroke="#63b8ff" d="M943.84,-109.98C935.5,-102.23 922.97,-90.58 912.82,-81.14"/>
<polygon fill="#63b8ff" stroke="#63b8ff" points="915.03,-78.42 905.32,-74.17 910.26,-83.54 915.03,-78.42"/>
</a>
</g>
</g>
<!-- Node20&#45;&gt;Node3 -->
<g id="edge54_Node000020_Node000003" class="edge">
<title>Node20&#45;&gt;Node3</title>
<g id="a_edge54_Node000020_Node000003"><a xlink:title=" ">
<path fill="none" stroke="#63b8ff" d="M1013.86,-111.02C1010.87,-110.66 1007.9,-110.32 1005,-110 831.13,-90.8 622.85,-74.59 538.39,-68.3"/>
<polygon fill="#63b8ff" stroke="#63b8ff" points="538.47,-64.8 528.24,-67.55 537.95,-71.78 538.47,-64.8"/>
</a>
</g>
</g>
<!-- Node20&#45;&gt;Node4 -->
<g id="edge53_Node000020_Node000004" class="edge">
<title>Node20&#45;&gt;Node4</title>
<g id="a_edge53_Node000020_Node000004"><a xlink:title=" ">
<path fill="none" stroke="#63b8ff" d="M1019.84,-109.98C964.05,-100.32 873.41,-84.62 816.06,-74.69"/>
<polygon fill="#63b8ff" stroke="#63b8ff" points="816.56,-71.22 806.11,-72.97 815.36,-78.12 816.56,-71.22"/>
</a>
</g>
</g>
<!-- Node20&#45;&gt;Node6 -->
<g id="edge52_Node000020_Node000006" class="edge">
<title>Node20&#45;&gt;Node6</title>
<g id="a_edge52_Node000020_Node000006"><a xlink:title=" ">
<path fill="none" stroke="#63b8ff" d="M1041.2,-109.98C1012.03,-101.05 966,-86.94 933.6,-77.02"/>
<polygon fill="#63b8ff" stroke="#63b8ff" points="934.6,-73.66 924.01,-74.08 932.55,-80.36 934.6,-73.66"/>
</a>
</g>
</g>
<!-- Node21&#45;&gt;Node3 -->
<g id="edge58_Node000021_Node000003" class="edge">
<title>Node21&#45;&gt;Node3</title>
<g id="a_edge58_Node000021_Node000003"><a xlink:title=" ">
<path fill="none" stroke="#63b8ff" d="M1141.98,-111.08C1138.95,-110.69 1135.93,-110.33 1133,-110 908.24,-85.08 636.94,-71.51 538.24,-67.11"/>
<polygon fill="#63b8ff" stroke="#63b8ff" points="538.29,-63.61 528.15,-66.67 537.99,-70.61 538.29,-63.61"/>
</a>
</g>
</g>
<!-- Node21&#45;&gt;Node4 -->
<g id="edge57_Node000021_Node000004" class="edge">
<title>Node21&#45;&gt;Node4</title>
<g id="a_edge57_Node000021_Node000004"><a xlink:title=" ">
<path fill="none" stroke="#63b8ff" d="M1141.96,-111.25C1138.93,-110.82 1135.92,-110.4 1133,-110 1020.42,-94.69 888.18,-79.44 816.23,-71.38"/>
<polygon fill="#63b8ff" stroke="#63b8ff" points="816.39,-67.87 806.07,-70.24 815.61,-74.83 816.39,-67.87"/>
</a>
</g>
</g>
<!-- Node21&#45;&gt;Node6 -->
<g id="edge56_Node000021_Node000006" class="edge">
<title>Node21&#45;&gt;Node6</title>
<g id="a_edge56_Node000021_Node000006"><a xlink:title=" ">
<path fill="none" stroke="#63b8ff" d="M1141.92,-109.98C1089.23,-100.45 1004.05,-85.05 949.04,-75.1"/>
<polygon fill="#63b8ff" stroke="#63b8ff" points="949.6,-71.64 939.14,-73.3 948.36,-78.53 949.6,-71.64"/>
</a>
</g>
</g>
<!-- Node21&#45;&gt;Node16 -->
<g id="edge59_Node000021_Node000016" class="edge">
<title>Node21&#45;&gt;Node16</title>
<g id="a_edge59_Node000021_Node000016"><a xlink:title=" ">
<path fill="none" stroke="#63b8ff" d="M1195.11,-109.75C1200.28,-102.34 1207.85,-91.5 1214.19,-82.41"/>
<polygon fill="#63b8ff" stroke="#63b8ff" points="1217.15,-84.29 1220,-74.09 1211.41,-80.29 1217.15,-84.29"/>
</a>
</g>
</g>
</g>
</svg>

<g id="navigator" transform="translate(0 0)" fill="#404254">
  <rect fill="#f2f5e9" fill-opacity="0.5" stroke="#606060" stroke-width=".5" x="0" y="0" width="60" height="60"/>
  <use id="zoomplus" xlink:href="#zoomPlus" x="17" y="9" onmousedown="handleZoom(evt,'in')"/>
  <use id="zoomminus" xlink:href="#zoomMin" x="42" y="9" onmousedown="handleZoom(evt,'out')"/>
  <use id="reset" xlink:href="#resetDef" x="30" y="36" onmousedown="handleReset()"/>
   <use id="arrowup" xlink:href="#arrowUp" x="0" y="0" onmousedown="handlePan(0,-1)"/>
  <use id="arrowright" xlink:href="#arrowRight" x="0" y="0" onmousedown="handlePan(1,0)"/>
  <use id="arrowdown" xlink:href="#arrowDown" x="0" y="0" onmousedown="handlePan(0,1)"/>
  <use id="arrowleft" xlink:href="#arrowLeft" x="0" y="0" onmousedown="handlePan(-1,0)"/>
</g>
<svg viewBox="0 0 15 15" width="100%" height="30px" preserveAspectRatio="xMaxYMin meet">
 <g id="arrow_out" transform="scale(0.3 0.3)">
  <a xlink:href="lmmc_8h__incl_org.svg" target="_base">
   <rect id="button" ry="5" rx="5" y="6" x="6" height="38" width="38"
        fill="#f2f5e9" fill-opacity="0.5" stroke="#606060" stroke-width="1.0"/>
   <path id="arrow"
     d="M 11.500037,31.436501 C 11.940474,20.09759 22.043105,11.32322 32.158766,21.979434 L 37.068811,17.246167 C 37.068811,17.246167 37.088388,32 37.088388,32 L 22.160133,31.978069 C 22.160133,31.978069 26.997745,27.140456 26.997745,27.140456 C 18.528582,18.264221 13.291696,25.230495 11.500037,31.436501 z"
     style="fill:#404040;"/>
  </a>
 </g>
</svg>

<style type='text/css'>
<![CDATA[
[data-mouse-over-selected='false'] { opacity: 0.7; }
[data-mouse-over-selected='true']  { opacity: 1.0; }
]]>
</style>
<script type="application/ecmascript"><![CDATA[
document.addEventListener('DOMContentLoaded', (event) => {
  highlightEdges();
  highlightAdjacentNodes();
});
]]></script>
</svg>
