<?xml version="1.0" encoding="UTF-8" standalone="no"?>
<!DOCTYPE svg PUBLIC "-//W3C//DTD SVG 1.1//EN"
 "http://www.w3.org/Graphics/SVG/1.1/DTD/svg11.dtd">
<!-- Generated by graphviz version 2.43.0 (0)
 -->
<!-- Title: /home/runner/work/docs/docs/LMMC/src/memory_bridge.h Pages: 1 -->
<svg width="2479pt" height="126pt"
 viewBox="0.00 0.00 2479.00 126.00" xmlns="http://www.w3.org/2000/svg" xmlns:xlink="http://www.w3.org/1999/xlink">
<g id="graph0" class="graph" transform="scale(1 1) rotate(0) translate(4 122)">
<title>/home/runner/work/docs/docs/LMMC/src/memory_bridge.h</title>
<!-- Node1 -->
<g id="Node000001" class="node">
<title>Node1</title>
<g id="a_Node000001"><a xlink:title="内存分配抽象层，可在标准库 malloc 与 LAMMP 栈分配器之间切换。">
<polygon fill="#999999" stroke="#666666" points="1298.5,-118 1161.5,-118 1161.5,-77 1298.5,-77 1298.5,-118"/>
<text text-anchor="start" x="1169.5" y="-106" font-family="Helvetica,sans-Serif" font-size="10.00">/home/runner/work/docs</text>
<text text-anchor="start" x="1169.5" y="-95" font-family="Helvetica,sans-Serif" font-size="10.00">/docs/LMMC/src/memory</text>
<text text-anchor="middle" x="1230" y="-84" font-family="Helvetica,sans-Serif" font-size="10.00">_bridge.h</text>
</a>
</g>
</g>
<!-- Node2 -->
<g id="Node000002" class="node">
<title>Node2</title>
<g id="a_Node000002"><a xlink:href="dense_8c.html" target="_top" xlink:title="稠密矩阵 / 向量运算实现。">
<polygon fill="white" stroke="#666666" points="134,-35.5 0,-35.5 0,-5.5 134,-5.5 134,-35.5"/>
<text text-anchor="start" x="8" y="-23.5" font-family="Helvetica,sans-Serif" font-size="10.00">/home/runner/work/docs</text>
<text text-anchor="middle" x="67" y="-12.5" font-family="Helvetica,sans-Serif" font-size="10.00">/docs/LMMC/src/dense.c</text>
</a>
</g>
</g>
<!-- Node1&#45;&gt;Node2 -->
<g id="edge1_Node000001_Node000002" class="edge">
<title>Node1&#45;&gt;Node2</title>
<g id="a_edge1_Node000001_Node000002"><a xlink:title=" ">
<path fill="none" stroke="#63b8ff" d="M1150.85,-94.52C934.68,-88.77 337.48,-70.61 143,-41 134.11,-39.65 124.76,-37.7 115.76,-35.54"/>
<polygon fill="#63b8ff" stroke="#63b8ff" points="1151.07,-98.02 1161.16,-94.79 1151.25,-91.03 1151.07,-98.02"/>
</a>
</g>
</g>
<!-- Node3 -->
<g id="Node000003" class="node">
<title>Node3</title>
<g id="a_Node000003"><a xlink:href="eigen_8c.html" target="_top" xlink:title="特征值、奇异值、伪逆与条件数算法实现。">
<polygon fill="white" stroke="#666666" points="286,-35.5 152,-35.5 152,-5.5 286,-5.5 286,-35.5"/>
<text text-anchor="start" x="160" y="-23.5" font-family="Helvetica,sans-Serif" font-size="10.00">/home/runner/work/docs</text>
<text text-anchor="middle" x="219" y="-12.5" font-family="Helvetica,sans-Serif" font-size="10.00">/docs/LMMC/src/eigen.c</text>
</a>
</g>
</g>
<!-- Node1&#45;&gt;Node3 -->
<g id="edge2_Node000001_Node000003" class="edge">
<title>Node1&#45;&gt;Node3</title>
<g id="a_edge2_Node000001_Node000003"><a xlink:title=" ">
<path fill="none" stroke="#63b8ff" d="M1151.15,-96.9C989.53,-96.61 609.41,-90.2 295,-41 286.25,-39.63 277.05,-37.7 268.18,-35.58"/>
<polygon fill="#63b8ff" stroke="#63b8ff" points="1151.47,-100.4 1161.48,-96.91 1151.48,-93.4 1151.47,-100.4"/>
</a>
</g>
</g>
<!-- Node4 -->
<g id="Node000004" class="node">
<title>Node4</title>
<g id="a_Node000004"><a xlink:href="fft_8c.html" target="_top" xlink:title="True N&#45;point FFT with radix&#45;2 Cooley&#45;Tukey and Bluestein chirp&#45;z.">
<polygon fill="white" stroke="#666666" points="438,-35.5 304,-35.5 304,-5.5 438,-5.5 438,-35.5"/>
<text text-anchor="start" x="312" y="-23.5" font-family="Helvetica,sans-Serif" font-size="10.00">/home/runner/work/docs</text>
<text text-anchor="middle" x="371" y="-12.5" font-family="Helvetica,sans-Serif" font-size="10.00">/docs/LMMC/src/fft.c</text>
</a>
</g>
</g>
<!-- Node1&#45;&gt;Node4 -->
<g id="edge3_Node000001_Node000004" class="edge">
<title>Node1&#45;&gt;Node4</title>
<g id="a_edge3_Node000001_Node000004"><a xlink:title=" ">
<path fill="none" stroke="#63b8ff" d="M1151.11,-95.6C1009.29,-92.94 702.25,-82.44 447,-41 438.39,-39.6 429.34,-37.69 420.6,-35.6"/>
<polygon fill="#63b8ff" stroke="#63b8ff" points="1151.38,-99.11 1161.44,-95.78 1151.51,-92.11 1151.38,-99.11"/>
</a>
</g>
</g>
<!-- Node5 -->
<g id="Node000005" class="node">
<title>Node5</title>
<g id="a_Node000005"><a xlink:href="interp_8c.html" target="_top" xlink:title="一维插值算法实现：线性、三次样条（多种边界条件）、Lagrange、PCHIP、Akima、二维插值。">
<polygon fill="white" stroke="#666666" points="590,-35.5 456,-35.5 456,-5.5 590,-5.5 590,-35.5"/>
<text text-anchor="start" x="464" y="-23.5" font-family="Helvetica,sans-Serif" font-size="10.00">/home/runner/work/docs</text>
<text text-anchor="middle" x="523" y="-12.5" font-family="Helvetica,sans-Serif" font-size="10.00">/docs/LMMC/src/interp.c</text>
</a>
</g>
</g>
<!-- Node1&#45;&gt;Node5 -->
<g id="edge4_Node000001_Node000005" class="edge">
<title>Node1&#45;&gt;Node5</title>
<g id="a_edge4_Node000001_Node000005"><a xlink:title=" ">
<path fill="none" stroke="#63b8ff" d="M1151.18,-93.7C1031.21,-88.52 795.96,-74.7 599,-41 590.54,-39.55 581.64,-37.64 573.03,-35.57"/>
<polygon fill="#63b8ff" stroke="#63b8ff" points="1151.23,-97.21 1161.37,-94.14 1151.52,-90.22 1151.23,-97.21"/>
</a>
</g>
</g>
<!-- Node6 -->
<g id="Node000006" class="node">
<title>Node6</title>
<g id="a_Node000006"><a xlink:href="itersolve_8c.html" target="_top" xlink:title="稀疏迭代求解器实现：CG / BiCGSTAB / GMRES。">
<polygon fill="white" stroke="#666666" points="754,-35.5 608,-35.5 608,-5.5 754,-5.5 754,-35.5"/>
<text text-anchor="start" x="616" y="-23.5" font-family="Helvetica,sans-Serif" font-size="10.00">/home/runner/work/docs</text>
<text text-anchor="middle" x="681" y="-12.5" font-family="Helvetica,sans-Serif" font-size="10.00">/docs/LMMC/src/itersolve.c</text>
</a>
</g>
</g>
<!-- Node1&#45;&gt;Node6 -->
<g id="edge5_Node000001_Node000006" class="edge">
<title>Node1&#45;&gt;Node6</title>
<g id="a_edge5_Node000001_Node000006"><a xlink:title=" ">
<path fill="none" stroke="#63b8ff" d="M1150.99,-89.91C1057.79,-81.49 898.4,-65.06 763,-41 754.36,-39.46 745.26,-37.58 736.4,-35.59"/>
<polygon fill="#63b8ff" stroke="#63b8ff" points="1150.91,-93.42 1161.19,-90.82 1151.54,-86.44 1150.91,-93.42"/>
</a>
</g>
</g>
<!-- Node7 -->
<g id="Node000007" class="node">
<title>Node7</title>
<g id="a_Node000007"><a xlink:href="itersolve__minres__lsqr_8c.html" target="_top" xlink:title=" ">
<polygon fill="white" stroke="#666666" points="910,-41 772,-41 772,0 910,0 910,-41"/>
<text text-anchor="start" x="780" y="-29" font-family="Helvetica,sans-Serif" font-size="10.00">/home/runner/work/docs</text>
<text text-anchor="start" x="780" y="-18" font-family="Helvetica,sans-Serif" font-size="10.00">/docs/LMMC/src/itersolve</text>
<text text-anchor="middle" x="841" y="-7" font-family="Helvetica,sans-Serif" font-size="10.00">_minres_lsqr.c</text>
</a>
</g>
</g>
<!-- Node1&#45;&gt;Node7 -->
<g id="edge6_Node000001_Node000007" class="edge">
<title>Node1&#45;&gt;Node7</title>
<g id="a_edge6_Node000001_Node000007"><a xlink:title=" ">
<path fill="none" stroke="#63b8ff" d="M1151.61,-84.03C1088.55,-73.64 997.78,-57.86 919,-41 916.13,-40.39 913.21,-39.74 910.27,-39.08"/>
<polygon fill="#63b8ff" stroke="#63b8ff" points="1151.05,-87.49 1161.48,-85.66 1152.18,-80.58 1151.05,-87.49"/>
</a>
</g>
</g>
<!-- Node8 -->
<g id="Node000008" class="node">
<title>Node8</title>
<g id="a_Node000008"><a xlink:href="linear__algebra_8c.html" target="_top" xlink:title="稠密 LU / Cholesky / QR 分解与求解实现。">
<polygon fill="white" stroke="#666666" points="1062,-41 928,-41 928,0 1062,0 1062,-41"/>
<text text-anchor="start" x="936" y="-29" font-family="Helvetica,sans-Serif" font-size="10.00">/home/runner/work/docs</text>
<text text-anchor="start" x="936" y="-18" font-family="Helvetica,sans-Serif" font-size="10.00">/docs/LMMC/src/linear</text>
<text text-anchor="middle" x="995" y="-7" font-family="Helvetica,sans-Serif" font-size="10.00">_algebra.c</text>
</a>
</g>
</g>
<!-- Node1&#45;&gt;Node8 -->
<g id="edge7_Node000001_Node000008" class="edge">
<title>Node1&#45;&gt;Node8</title>
<g id="a_edge7_Node000001_Node000008"><a xlink:title=" ">
<path fill="none" stroke="#63b8ff" d="M1159.33,-73.94C1126.49,-63.46 1087.81,-51.12 1056.23,-41.04"/>
<polygon fill="#63b8ff" stroke="#63b8ff" points="1158.28,-77.28 1168.87,-76.99 1160.41,-70.62 1158.28,-77.28"/>
</a>
</g>
</g>
<!-- Node9 -->
<g id="Node000009" class="node">
<title>Node9</title>
<g id="a_Node000009"><a xlink:href="numeric_8c.html" target="_top" xlink:title="数值常量、特殊值、近似比较、FFT 与 LambertW 实现。">
<polygon fill="white" stroke="#666666" points="1223.5,-35.5 1080.5,-35.5 1080.5,-5.5 1223.5,-5.5 1223.5,-35.5"/>
<text text-anchor="start" x="1088.5" y="-23.5" font-family="Helvetica,sans-Serif" font-size="10.00">/home/runner/work/docs</text>
<text text-anchor="middle" x="1152" y="-12.5" font-family="Helvetica,sans-Serif" font-size="10.00">/docs/LMMC/src/numeric.c</text>
</a>
</g>
</g>
<!-- Node1&#45;&gt;Node9 -->
<g id="edge8_Node000001_Node000009" class="edge">
<title>Node1&#45;&gt;Node9</title>
<g id="a_edge8_Node000001_Node000009"><a xlink:title=" ">
<path fill="none" stroke="#63b8ff" d="M1201.99,-69.57C1190.15,-58.18 1176.84,-45.39 1166.94,-35.86"/>
<polygon fill="#63b8ff" stroke="#63b8ff" points="1199.87,-72.39 1209.51,-76.79 1204.72,-67.34 1199.87,-72.39"/>
</a>
</g>
</g>
<!-- Node10 -->
<g id="Node000010" class="node">
<title>Node10</title>
<g id="a_Node000010"><a xlink:href="ode_8c.html" target="_top" xlink:title="ODE 初值问题求解器实现：Euler / RK4 / RK45。">
<polygon fill="white" stroke="#666666" points="1376,-35.5 1242,-35.5 1242,-5.5 1376,-5.5 1376,-35.5"/>
<text text-anchor="start" x="1250" y="-23.5" font-family="Helvetica,sans-Serif" font-size="10.00">/home/runner/work/docs</text>
<text text-anchor="middle" x="1309" y="-12.5" font-family="Helvetica,sans-Serif" font-size="10.00">/docs/LMMC/src/ode.c</text>
</a>
</g>
</g>
<!-- Node1&#45;&gt;Node10 -->
<g id="edge9_Node000001_Node000010" class="edge">
<title>Node1&#45;&gt;Node10</title>
<g id="a_edge9_Node000001_Node000010"><a xlink:title=" ">
<path fill="none" stroke="#63b8ff" d="M1258.03,-69.89C1270.1,-58.43 1283.74,-45.48 1293.87,-35.86"/>
<polygon fill="#63b8ff" stroke="#63b8ff" points="1255.6,-67.37 1250.76,-76.79 1260.42,-72.45 1255.6,-67.37"/>
</a>
</g>
</g>
<!-- Node11 -->
<g id="Node000011" class="node">
<title>Node11</title>
<g id="a_Node000011"><a xlink:href="optimize_8c.html" target="_top" xlink:title="优化与非线性方程组求解实现。">
<polygon fill="white" stroke="#666666" points="1540,-35.5 1394,-35.5 1394,-5.5 1540,-5.5 1540,-35.5"/>
<text text-anchor="start" x="1402" y="-23.5" font-family="Helvetica,sans-Serif" font-size="10.00">/home/runner/work/docs</text>
<text text-anchor="middle" x="1467" y="-12.5" font-family="Helvetica,sans-Serif" font-size="10.00">/docs/LMMC/src/optimize.c</text>
</a>
</g>
</g>
<!-- Node1&#45;&gt;Node11 -->
<g id="edge10_Node000001_Node000011" class="edge">
<title>Node1&#45;&gt;Node11</title>
<g id="a_edge10_Node000001_Node000011"><a xlink:title=" ">
<path fill="none" stroke="#63b8ff" d="M1301.47,-73.88C1340.83,-61.43 1388.46,-46.36 1422.5,-35.58"/>
<polygon fill="#63b8ff" stroke="#63b8ff" points="1300.13,-70.64 1291.65,-76.99 1302.24,-77.31 1300.13,-70.64"/>
</a>
</g>
</g>
<!-- Node12 -->
<g id="Node000012" class="node">
<title>Node12</title>
<g id="a_Node000012"><a xlink:href="precond_8c.html" target="_top" xlink:title="迭代求解器使用的预处理子（Jacobi / ILU0 / ILUT）实现。">
<polygon fill="white" stroke="#666666" points="1701.5,-35.5 1558.5,-35.5 1558.5,-5.5 1701.5,-5.5 1701.5,-35.5"/>
<text text-anchor="start" x="1566.5" y="-23.5" font-family="Helvetica,sans-Serif" font-size="10.00">/home/runner/work/docs</text>
<text text-anchor="middle" x="1630" y="-12.5" font-family="Helvetica,sans-Serif" font-size="10.00">/docs/LMMC/src/precond.c</text>
</a>
</g>
</g>
<!-- Node1&#45;&gt;Node12 -->
<g id="edge11_Node000001_Node000012" class="edge">
<title>Node1&#45;&gt;Node12</title>
<g id="a_edge11_Node000001_Node000012"><a xlink:title=" ">
<path fill="none" stroke="#63b8ff" d="M1308.82,-84.23C1373.54,-73.8 1467.49,-57.88 1549,-41 1556.93,-39.36 1565.27,-37.5 1573.46,-35.6"/>
<polygon fill="#63b8ff" stroke="#63b8ff" points="1308.01,-80.81 1298.69,-85.85 1309.12,-87.72 1308.01,-80.81"/>
</a>
</g>
</g>
<!-- Node13 -->
<g id="Node000013" class="node">
<title>Node13</title>
<g id="a_Node000013"><a xlink:href="random_8c.html" target="_top" xlink:title="伪随机数发生器与常用分布实现。">
<polygon fill="white" stroke="#666666" points="1860.5,-35.5 1719.5,-35.5 1719.5,-5.5 1860.5,-5.5 1860.5,-35.5"/>
<text text-anchor="start" x="1727.5" y="-23.5" font-family="Helvetica,sans-Serif" font-size="10.00">/home/runner/work/docs</text>
<text text-anchor="middle" x="1790" y="-12.5" font-family="Helvetica,sans-Serif" font-size="10.00">/docs/LMMC/src/random.c</text>
</a>
</g>
</g>
<!-- Node1&#45;&gt;Node13 -->
<g id="edge12_Node000001_Node000013" class="edge">
<title>Node1&#45;&gt;Node13</title>
<g id="a_edge12_Node000001_Node000013"><a xlink:title=" ">
<path fill="none" stroke="#63b8ff" d="M1308.67,-90.51C1404.3,-82.53 1570.32,-66.37 1711,-41 1719.48,-39.47 1728.41,-37.56 1737.08,-35.54"/>
<polygon fill="#63b8ff" stroke="#63b8ff" points="1308.18,-87.04 1298.51,-91.35 1308.76,-94.02 1308.18,-87.04"/>
</a>
</g>
</g>
<!-- Node14 -->
<g id="Node000014" class="node">
<title>Node14</title>
<g id="a_Node000014"><a xlink:href="sparse_8c.html" target="_top" xlink:title="稀疏矩阵存储、构造器与基本运算实现。">
<polygon fill="white" stroke="#666666" points="2015,-35.5 1879,-35.5 1879,-5.5 2015,-5.5 2015,-35.5"/>
<text text-anchor="start" x="1887" y="-23.5" font-family="Helvetica,sans-Serif" font-size="10.00">/home/runner/work/docs</text>
<text text-anchor="middle" x="1947" y="-12.5" font-family="Helvetica,sans-Serif" font-size="10.00">/docs/LMMC/src/sparse.c</text>
</a>
</g>
</g>
<!-- Node1&#45;&gt;Node14 -->
<g id="edge13_Node000001_Node000014" class="edge">
<title>Node1&#45;&gt;Node14</title>
<g id="a_edge13_Node000001_Node000014"><a xlink:title=" ">
<path fill="none" stroke="#63b8ff" d="M1308.96,-93.76C1430.31,-88.62 1669.64,-74.83 1870,-41 1878.57,-39.55 1887.58,-37.64 1896.3,-35.57"/>
<polygon fill="#63b8ff" stroke="#63b8ff" points="1308.5,-90.27 1298.66,-94.18 1308.79,-97.27 1308.5,-90.27"/>
</a>
</g>
</g>
<!-- Node15 -->
<g id="Node000015" class="node">
<title>Node15</title>
<g id="a_Node000015"><a xlink:href="sparse__direct_8c.html" target="_top" xlink:title=" ">
<polygon fill="white" stroke="#666666" points="2167,-41 2033,-41 2033,0 2167,0 2167,-41"/>
<text text-anchor="start" x="2041" y="-29" font-family="Helvetica,sans-Serif" font-size="10.00">/home/runner/work/docs</text>
<text text-anchor="start" x="2041" y="-18" font-family="Helvetica,sans-Serif" font-size="10.00">/docs/LMMC/src/sparse</text>
<text text-anchor="middle" x="2100" y="-7" font-family="Helvetica,sans-Serif" font-size="10.00">_direct.c</text>
</a>
</g>
</g>
<!-- Node1&#45;&gt;Node15 -->
<g id="edge14_Node000001_Node000015" class="edge">
<title>Node1&#45;&gt;Node15</title>
<g id="a_edge14_Node000001_Node000015"><a xlink:title=" ">
<path fill="none" stroke="#63b8ff" d="M1308.74,-95.71C1451.98,-93.24 1764.4,-83.02 2024,-41 2026.82,-40.54 2029.7,-40.03 2032.59,-39.47"/>
<polygon fill="#63b8ff" stroke="#63b8ff" points="1308.66,-92.21 1298.72,-95.88 1308.77,-99.21 1308.66,-92.21"/>
</a>
</g>
</g>
<!-- Node16 -->
<g id="Node000016" class="node">
<title>Node16</title>
<g id="a_Node000016"><a xlink:href="stats_8c.html" target="_top" xlink:title="基础统计量与组合数学实现。">
<polygon fill="white" stroke="#666666" points="2319,-35.5 2185,-35.5 2185,-5.5 2319,-5.5 2319,-35.5"/>
<text text-anchor="start" x="2193" y="-23.5" font-family="Helvetica,sans-Serif" font-size="10.00">/home/runner/work/docs</text>
<text text-anchor="middle" x="2252" y="-12.5" font-family="Helvetica,sans-Serif" font-size="10.00">/docs/LMMC/src/stats.c</text>
</a>
</g>
</g>
<!-- Node1&#45;&gt;Node16 -->
<g id="edge15_Node000001_Node000016" class="edge">
<title>Node1&#45;&gt;Node16</title>
<g id="a_edge15_Node000001_Node000016"><a xlink:title=" ">
<path fill="none" stroke="#63b8ff" d="M1309.16,-96.98C1472.34,-96.85 1857.49,-90.73 2176,-41 2184.75,-39.63 2193.95,-37.7 2202.82,-35.59"/>
<polygon fill="#63b8ff" stroke="#63b8ff" points="1308.74,-93.48 1298.74,-96.98 1308.74,-100.48 1308.74,-93.48"/>
</a>
</g>
</g>
<!-- Node17 -->
<g id="Node000017" class="node">
<title>Node17</title>
<g id="a_Node000017"><a xlink:href="tensor_8c.html" target="_top" xlink:title="N&#45;D 张量结构与基本运算实现（含向后兼容的三阶接口）。">
<polygon fill="white" stroke="#666666" points="2471,-35.5 2337,-35.5 2337,-5.5 2471,-5.5 2471,-35.5"/>
<text text-anchor="start" x="2345" y="-23.5" font-family="Helvetica,sans-Serif" font-size="10.00">/home/runner/work/docs</text>
<text text-anchor="middle" x="2404" y="-12.5" font-family="Helvetica,sans-Serif" font-size="10.00">/docs/LMMC/src/tensor.c</text>
</a>
</g>
</g>
<!-- Node1&#45;&gt;Node17 -->
<g id="edge16_Node000001_Node000017" class="edge">
<title>Node1&#45;&gt;Node17</title>
<g id="a_edge16_Node000001_Node000017"><a xlink:title=" ">
<path fill="none" stroke="#63b8ff" d="M1308.86,-94.57C1526.28,-88.92 2131.22,-70.91 2328,-41 2336.89,-39.65 2346.25,-37.7 2355.24,-35.55"/>
<polygon fill="#63b8ff" stroke="#63b8ff" points="1308.71,-91.07 1298.8,-94.83 1308.89,-98.07 1308.71,-91.07"/>
</a>
</g>
</g>
</g>
</svg>
