<?xml version="1.0" encoding="UTF-8" standalone="no"?>
<!DOCTYPE svg PUBLIC "-//W3C//DTD SVG 1.1//EN"
 "http://www.w3.org/Graphics/SVG/1.1/DTD/svg11.dtd">
<!-- Generated by graphviz version 2.43.0 (0)
 -->
<!-- Title: lmmc_lgamma Pages: 1 -->
<svg width="225pt" height="64pt"
 viewBox="0.00 0.00 225.00 64.00" xmlns="http://www.w3.org/2000/svg" xmlns:xlink="http://www.w3.org/1999/xlink">

<svg id="main" version="1.1" xmlns="http://www.w3.org/2000/svg" xmlns:xlink="http://www.w3.org/1999/xlink" xml:space="preserve" onload="init(evt)">
<style type="text/css"><![CDATA[
.node, .edge {opacity: 0.7;}
.node.selected, .edge.selected {opacity: 1;}
.edge:hover path { stroke: red; }
.edge:hover polygon { stroke: red; fill: red; }
]]></style>
<script type="application/ecmascript" xlink:href="svg.min.js"/>
<svg id="graph" class="graph">
<g id="graph0" class="graph" transform="scale(1 1) rotate(0) translate(4 60)">
<title>lmmc_lgamma</title>
<!-- Node1 -->
<g id="Node000001" class="node">
<title>Node1</title>
<g id="a_Node000001"><a xlink:title="计算对数伽马函数 &#160;，要求 &#160;。">
<polygon fill="#999999" stroke="#666666" points="217,-37 127,-37 127,-18 217,-18 217,-37"/>
<text text-anchor="middle" x="172" y="-25" font-family="Helvetica,sans-Serif" font-size="10.00">lmmc_lgamma</text>
</a>
</g>
</g>
<!-- Node1&#45;&gt;Node1 -->
<g id="edge2_Node000001_Node000001" class="edge">
<title>Node1&#45;&gt;Node1</title>
<g id="a_edge2_Node000001_Node000001"><a xlink:title=" ">
<path fill="none" stroke="#63b8ff" d="M195.33,-46.55C193.77,-51.38 186,-55 172,-55 149.61,-55 143.13,-45.73 152.58,-37.08"/>
<polygon fill="#63b8ff" stroke="#63b8ff" points="198.47,-44.99 191.42,-37.08 192,-47.66 198.47,-44.99"/>
</a>
</g>
</g>
<!-- Node2 -->
<g id="Node000002" class="node">
<title>Node2</title>
<g id="a_Node000002"><a xlink:href="numeric_8c.html#a985ecd34225b94e003e37251a3b73556" target="_top" xlink:title="计算贝塔函数 &#160;，要求 &#160;。">
<polygon fill="white" stroke="#666666" points="81,-56 10,-56 10,-37 81,-37 81,-56"/>
<text text-anchor="middle" x="45.5" y="-44" font-family="Helvetica,sans-Serif" font-size="10.00">lmmc_beta</text>
</a>
</g>
</g>
<!-- Node1&#45;&gt;Node2 -->
<g id="edge1_Node000001_Node000002" class="edge">
<title>Node1&#45;&gt;Node2</title>
<g id="a_edge1_Node000001_Node000002"><a xlink:title=" ">
<path fill="none" stroke="#63b8ff" d="M116.76,-35.78C104.7,-37.62 92.24,-39.52 81.21,-41.2"/>
<polygon fill="#63b8ff" stroke="#63b8ff" points="117.4,-39.22 126.76,-34.25 116.34,-32.3 117.4,-39.22"/>
</a>
</g>
</g>
<!-- Node3 -->
<g id="Node000003" class="node">
<title>Node3</title>
<g id="a_Node000003"><a xlink:href="numeric_8c.html#a4306d3abd5ab4af772cbed92ac969195" target="_top" xlink:title="计算伽马函数 &#160;，要求 &#160;。">
<polygon fill="white" stroke="#666666" points="91,-19 0,-19 0,0 91,0 91,-19"/>
<text text-anchor="middle" x="45.5" y="-7" font-family="Helvetica,sans-Serif" font-size="10.00">lmmc_tgamma</text>
</a>
</g>
</g>
<!-- Node1&#45;&gt;Node3 -->
<g id="edge3_Node000001_Node000003" class="edge">
<title>Node1&#45;&gt;Node3</title>
<g id="a_edge3_Node000001_Node000003"><a xlink:title=" ">
<path fill="none" stroke="#63b8ff" d="M116.79,-19.66C108.18,-18.42 99.37,-17.14 91.02,-15.94"/>
<polygon fill="#63b8ff" stroke="#63b8ff" points="116.36,-23.14 126.76,-21.1 117.36,-16.21 116.36,-23.14"/>
</a>
</g>
</g>
</g>
</svg>
</svg>

<style type='text/css'>
<![CDATA[
[data-mouse-over-selected='false'] { opacity: 0.7; }
[data-mouse-over-selected='true']  { opacity: 1.0; }
]]>
</style>
<script type="application/ecmascript"><![CDATA[
document.addEventListener('DOMContentLoaded', (event) => {
  highlightEdges();
  highlightAdjacentNodes();
});
]]></script>
</svg>
