<?xml version="1.0" encoding="UTF-8" standalone="no"?>
<!DOCTYPE svg PUBLIC "-//W3C//DTD SVG 1.1//EN"
 "http://www.w3.org/Graphics/SVG/1.1/DTD/svg11.dtd">
<!-- Generated by graphviz version 2.43.0 (0)
 -->
<!-- Title: lmmc_fft_radix4 Pages: 1 -->
<svg width="418pt" height="119pt"
 viewBox="0.00 0.00 418.00 119.00" xmlns="http://www.w3.org/2000/svg" xmlns:xlink="http://www.w3.org/1999/xlink">
<g id="graph0" class="graph" transform="scale(1 1) rotate(0) translate(4 115)">
<title>lmmc_fft_radix4</title>
<!-- Node1 -->
<g id="Node000001" class="node">
<title>Node1</title>
<g id="a_Node000001"><a xlink:title="严格 radix&#45;4 就地 FFT。">
<polygon fill="#999999" stroke="#666666" points="410,-56 314,-56 314,-37 410,-37 410,-56"/>
<text text-anchor="middle" x="362" y="-44" font-family="Helvetica,sans-Serif" font-size="10.00">lmmc_fft_radix4</text>
</a>
</g>
</g>
<!-- Node2 -->
<g id="Node000002" class="node">
<title>Node2</title>
<g id="a_Node000002"><a xlink:href="fft_8c.html#aba8d7da4b4fc13f799b921c441d1ce3f" target="_top" xlink:title="计算任意长度 N 点 DFT（正变换或逆变换）。">
<polygon fill="white" stroke="#666666" points="238.5,-93 178.5,-93 178.5,-74 238.5,-74 238.5,-93"/>
<text text-anchor="middle" x="208.5" y="-81" font-family="Helvetica,sans-Serif" font-size="10.00">lmmc_fft</text>
</a>
</g>
</g>
<!-- Node1&#45;&gt;Node2 -->
<g id="edge1_Node000001_Node000002" class="edge">
<title>Node1&#45;&gt;Node2</title>
<g id="a_edge1_Node000001_Node000002"><a xlink:title=" ">
<path fill="none" stroke="#63b8ff" d="M312.25,-58.4C288.06,-64.31 259.63,-71.26 238.81,-76.34"/>
<polygon fill="#63b8ff" stroke="#63b8ff" points="313.1,-61.8 321.98,-56.03 311.44,-55 313.1,-61.8"/>
</a>
</g>
</g>
<!-- Node5 -->
<g id="Node000005" class="node">
<title>Node5</title>
<g id="a_Node000005"><a xlink:href="numeric_8c.html#adef18c3671ff1ccdee08070004dffd91" target="_top" xlink:title="等价于 ::lmmc_fft_radix4(real, imag, n, 0) 。">
<polygon fill="white" stroke="#666666" points="278,-56 139,-56 139,-37 278,-37 278,-56"/>
<text text-anchor="middle" x="208.5" y="-44" font-family="Helvetica,sans-Serif" font-size="10.00">lmmc_fft_radix4_forward</text>
</a>
</g>
</g>
<!-- Node1&#45;&gt;Node5 -->
<g id="edge4_Node000001_Node000005" class="edge">
<title>Node1&#45;&gt;Node5</title>
<g id="a_edge4_Node000001_Node000005"><a xlink:title=" ">
<path fill="none" stroke="#63b8ff" d="M303.88,-46.5C295.52,-46.5 286.83,-46.5 278.26,-46.5"/>
<polygon fill="#63b8ff" stroke="#63b8ff" points="303.89,-50 313.89,-46.5 303.89,-43 303.89,-50"/>
</a>
</g>
</g>
<!-- Node6 -->
<g id="Node000006" class="node">
<title>Node6</title>
<g id="a_Node000006"><a xlink:href="numeric_8c.html#a549eb1ef6ecc602ffb21e43ec58e414b" target="_top" xlink:title="等价于 ::lmmc_fft_radix4(real, imag, n, 1) 。">
<polygon fill="white" stroke="#666666" points="277,-19 140,-19 140,0 277,0 277,-19"/>
<text text-anchor="middle" x="208.5" y="-7" font-family="Helvetica,sans-Serif" font-size="10.00">lmmc_fft_radix4_inverse</text>
</a>
</g>
</g>
<!-- Node1&#45;&gt;Node6 -->
<g id="edge5_Node000001_Node000006" class="edge">
<title>Node1&#45;&gt;Node6</title>
<g id="a_edge5_Node000001_Node000006"><a xlink:title=" ">
<path fill="none" stroke="#63b8ff" d="M312.17,-34.57C291.62,-29.56 268.03,-23.79 248.65,-19.06"/>
<polygon fill="#63b8ff" stroke="#63b8ff" points="311.44,-38 321.98,-36.97 313.1,-31.2 311.44,-38"/>
</a>
</g>
</g>
<!-- Node3 -->
<g id="Node000003" class="node">
<title>Node3</title>
<g id="a_Node000003"><a xlink:href="fft_8c.html#a65d6005c73035c52cfebf18d650583d9" target="_top" xlink:title="等价于 ::lmmc_fft(real, imag, n, 0) 。">
<polygon fill="white" stroke="#666666" points="103,-111 0,-111 0,-92 103,-92 103,-111"/>
<text text-anchor="middle" x="51.5" y="-99" font-family="Helvetica,sans-Serif" font-size="10.00">lmmc_fft_forward</text>
</a>
</g>
</g>
<!-- Node2&#45;&gt;Node3 -->
<g id="edge2_Node000002_Node000003" class="edge">
<title>Node2&#45;&gt;Node3</title>
<g id="a_edge2_Node000002_Node000003"><a xlink:title=" ">
<path fill="none" stroke="#63b8ff" d="M168.17,-88.07C148.44,-90.36 124.3,-93.16 103.18,-95.61"/>
<polygon fill="#63b8ff" stroke="#63b8ff" points="168.82,-91.52 178.35,-86.89 168.01,-84.56 168.82,-91.52"/>
</a>
</g>
</g>
<!-- Node4 -->
<g id="Node000004" class="node">
<title>Node4</title>
<g id="a_Node000004"><a xlink:href="fft_8c.html#a3e3b69a714dfc6988e10b902cb5066d8" target="_top" xlink:title="等价于 ::lmmc_fft(real, imag, n, 1) 。">
<polygon fill="white" stroke="#666666" points="102,-74 1,-74 1,-55 102,-55 102,-74"/>
<text text-anchor="middle" x="51.5" y="-62" font-family="Helvetica,sans-Serif" font-size="10.00">lmmc_fft_inverse</text>
</a>
</g>
</g>
<!-- Node2&#45;&gt;Node4 -->
<g id="edge3_Node000002_Node000004" class="edge">
<title>Node2&#45;&gt;Node4</title>
<g id="a_edge3_Node000002_Node000004"><a xlink:title=" ">
<path fill="none" stroke="#63b8ff" d="M168.32,-78.7C148.26,-76.24 123.64,-73.22 102.26,-70.6"/>
<polygon fill="#63b8ff" stroke="#63b8ff" points="167.99,-82.18 178.35,-79.93 168.85,-75.24 167.99,-82.18"/>
</a>
</g>
</g>
</g>
</svg>
