<?xml version="1.0" encoding="UTF-8" standalone="no"?>
<!DOCTYPE svg PUBLIC "-//W3C//DTD SVG 1.1//EN"
 "http://www.w3.org/Graphics/SVG/1.1/DTD/svg11.dtd">
<!-- Generated by graphviz version 2.43.0 (0)
 -->
<!-- Title: lmmc_ode_implicit_euler_solve Pages: 1 -->
<svg width="513pt" height="212pt"
 viewBox="0.00 0.00 513.00 212.00" xmlns="http://www.w3.org/2000/svg" xmlns:xlink="http://www.w3.org/1999/xlink">
<g id="graph0" class="graph" transform="scale(1 1) rotate(0) translate(4 208)">
<title>lmmc_ode_implicit_euler_solve</title>
<!-- Node1 -->
<g id="Node000001" class="node">
<title>Node1</title>
<g id="a_Node000001"><a xlink:title="隐式 Euler 法求解器（A&#45;稳定，适用于刚性问题）。">
<polygon fill="#999999" stroke="#666666" points="140,-94.5 0,-94.5 0,-64.5 140,-64.5 140,-94.5"/>
<text text-anchor="start" x="8" y="-82.5" font-family="Helvetica,sans-Serif" font-size="10.00">lmmc_ode_implicit_euler</text>
<text text-anchor="middle" x="70" y="-71.5" font-family="Helvetica,sans-Serif" font-size="10.00">_solve</text>
</a>
</g>
</g>
<!-- Node2 -->
<g id="Node000002" class="node">
<title>Node2</title>
<g id="a_Node000002"><a xlink:href="optimize_8c.html#a7432413caf0678e69700583f4327adb8" target="_top" xlink:title="Newton 法求解非线性方程组 F(x) = 0。">
<polygon fill="white" stroke="#666666" points="298,-111 186,-111 186,-92 298,-92 298,-111"/>
<text text-anchor="middle" x="242" y="-99" font-family="Helvetica,sans-Serif" font-size="10.00">lmmc_nleq_newton</text>
</a>
</g>
</g>
<!-- Node1&#45;&gt;Node2 -->
<g id="edge1_Node000001_Node000002" class="edge">
<title>Node1&#45;&gt;Node2</title>
<g id="a_edge1_Node000001_Node000002"><a xlink:title=" ">
<path fill="none" stroke="#63b8ff" d="M140.15,-88.45C151.95,-89.98 164.17,-91.56 175.87,-93.07"/>
<polygon fill="#63b8ff" stroke="#63b8ff" points="175.62,-96.57 185.98,-94.38 176.51,-89.63 175.62,-96.57"/>
</a>
</g>
</g>
<!-- Node9 -->
<g id="Node000009" class="node">
<title>Node9</title>
<g id="a_Node000009"><a xlink:href="optimize_8c.html#a8be56a0f9c43c893759891363ac2a525" target="_top" xlink:title="初始化默认优化配置。">
<polygon fill="white" stroke="#666666" points="308,-73.5 176,-73.5 176,-43.5 308,-43.5 308,-73.5"/>
<text text-anchor="start" x="184" y="-61.5" font-family="Helvetica,sans-Serif" font-size="10.00">lmmc_optimize_default</text>
<text text-anchor="middle" x="242" y="-50.5" font-family="Helvetica,sans-Serif" font-size="10.00">_config</text>
</a>
</g>
</g>
<!-- Node1&#45;&gt;Node9 -->
<g id="edge8_Node000001_Node000009" class="edge">
<title>Node1&#45;&gt;Node9</title>
<g id="a_edge8_Node000001_Node000009"><a xlink:title=" ">
<path fill="none" stroke="#63b8ff" d="M140.15,-70.96C148.6,-69.91 157.28,-68.84 165.82,-67.79"/>
<polygon fill="#63b8ff" stroke="#63b8ff" points="166.26,-71.26 175.76,-66.56 165.41,-64.31 166.26,-71.26"/>
</a>
</g>
</g>
<!-- Node3 -->
<g id="Node000003" class="node">
<title>Node3</title>
<g id="a_Node000003"><a xlink:href="linear__algebra_8c.html#af355bd29273cd0258ec0175661ed7c66" target="_top" xlink:title="就地 LU 分解（带部分主元选取）：P*A = L*U。">
<polygon fill="white" stroke="#666666" points="505,-204 344,-204 344,-185 505,-185 505,-204"/>
<text text-anchor="middle" x="424.5" y="-192" font-family="Helvetica,sans-Serif" font-size="10.00">lmmc_lu_decompose_inplace</text>
</a>
</g>
</g>
<!-- Node2&#45;&gt;Node3 -->
<g id="edge2_Node000002_Node000003" class="edge">
<title>Node2&#45;&gt;Node3</title>
<g id="a_edge2_Node000002_Node000003"><a xlink:title=" ">
<path fill="none" stroke="#63b8ff" d="M252.97,-111.19C270.1,-127.29 306.89,-159.45 344,-176.5 348.35,-178.5 352.94,-180.29 357.63,-181.88"/>
<polygon fill="#63b8ff" stroke="#63b8ff" points="356.77,-185.27 367.36,-184.88 358.84,-178.59 356.77,-185.27"/>
</a>
</g>
</g>
<!-- Node4 -->
<g id="Node000004" class="node">
<title>Node4</title>
<g id="a_Node000004"><a xlink:href="linear__algebra_8c.html#a69dfc49d5bb5d426b37d220d8b93208e" target="_top" xlink:title="利用 LU 分解结果求解线性系统 A*x = b。">
<polygon fill="white" stroke="#666666" points="469.5,-167 379.5,-167 379.5,-148 469.5,-148 469.5,-167"/>
<text text-anchor="middle" x="424.5" y="-155" font-family="Helvetica,sans-Serif" font-size="10.00">lmmc_lu_solve</text>
</a>
</g>
</g>
<!-- Node2&#45;&gt;Node4 -->
<g id="edge3_Node000002_Node000004" class="edge">
<title>Node2&#45;&gt;Node4</title>
<g id="a_edge3_Node000002_Node000004"><a xlink:title=" ">
<path fill="none" stroke="#63b8ff" d="M265.56,-111.01C285.83,-119.3 316.54,-131.27 344,-139.5 352.18,-141.95 360.93,-144.25 369.52,-146.33"/>
<polygon fill="#63b8ff" stroke="#63b8ff" points="368.95,-149.79 379.48,-148.66 370.54,-142.98 368.95,-149.79"/>
</a>
</g>
</g>
<!-- Node5 -->
<g id="Node000005" class="node">
<title>Node5</title>
<g id="a_Node000005"><a xlink:href="dense_8c.html#a0fc9bc3b95589478a194ea553bd69c8f" target="_top" xlink:title="分配并初始化一个 rows × cols 的稠密矩阵，所有元素置零。">
<polygon fill="white" stroke="#666666" points="477,-130 372,-130 372,-111 477,-111 477,-130"/>
<text text-anchor="middle" x="424.5" y="-118" font-family="Helvetica,sans-Serif" font-size="10.00">lmmc_mat_create</text>
</a>
</g>
</g>
<!-- Node2&#45;&gt;Node5 -->
<g id="edge4_Node000002_Node000005" class="edge">
<title>Node2&#45;&gt;Node5</title>
<g id="a_edge4_Node000002_Node000005"><a xlink:title=" ">
<path fill="none" stroke="#63b8ff" d="M298.14,-107.3C318.18,-109.41 340.96,-111.81 361.56,-113.98"/>
<polygon fill="#63b8ff" stroke="#63b8ff" points="361.47,-117.49 371.78,-115.06 362.2,-110.53 361.47,-117.49"/>
</a>
</g>
</g>
<!-- Node6 -->
<g id="Node000006" class="node">
<title>Node6</title>
<g id="a_Node000006"><a xlink:href="dense_8c.html#ad3ffb292f06884dbb65e2cf5b3074c69" target="_top" xlink:title="销毁矩阵，释放其拥有的底层缓冲区。">
<polygon fill="white" stroke="#666666" points="480,-93 369,-93 369,-74 480,-74 480,-93"/>
<text text-anchor="middle" x="424.5" y="-81" font-family="Helvetica,sans-Serif" font-size="10.00">lmmc_mat_destroy</text>
</a>
</g>
</g>
<!-- Node2&#45;&gt;Node6 -->
<g id="edge5_Node000002_Node000006" class="edge">
<title>Node2&#45;&gt;Node6</title>
<g id="a_edge5_Node000002_Node000006"><a xlink:title=" ">
<path fill="none" stroke="#63b8ff" d="M298.14,-96C317.21,-94.1 338.75,-91.95 358.54,-89.98"/>
<polygon fill="#63b8ff" stroke="#63b8ff" points="359.1,-93.44 368.7,-88.96 358.4,-86.47 359.1,-93.44"/>
</a>
</g>
</g>
<!-- Node7 -->
<g id="Node000007" class="node">
<title>Node7</title>
<g id="a_Node000007"><a xlink:href="dense_8c.html#ab1ff7e1a56dc108100975e953774a2ad" target="_top" xlink:title="分配并初始化一个长度为 size 的稠密向量，所有元素置零。">
<polygon fill="white" stroke="#666666" points="476,-56 373,-56 373,-37 476,-37 476,-56"/>
<text text-anchor="middle" x="424.5" y="-44" font-family="Helvetica,sans-Serif" font-size="10.00">lmmc_vec_create</text>
</a>
</g>
</g>
<!-- Node2&#45;&gt;Node7 -->
<g id="edge6_Node000002_Node000007" class="edge">
<title>Node2&#45;&gt;Node7</title>
<g id="a_edge6_Node000002_Node000007"><a xlink:title=" ">
<path fill="none" stroke="#63b8ff" d="M279.43,-91.94C288.84,-89.18 298.88,-85.96 308,-82.5 324.54,-76.22 327.31,-71.37 344,-65.5 351.25,-62.95 358.99,-60.63 366.68,-58.56"/>
<polygon fill="#63b8ff" stroke="#63b8ff" points="367.56,-61.95 376.37,-56.06 365.81,-55.17 367.56,-61.95"/>
</a>
</g>
</g>
<!-- Node8 -->
<g id="Node000008" class="node">
<title>Node8</title>
<g id="a_Node000008"><a xlink:href="dense_8c.html#aeda4a0d3e0c54b575a9b78413118e5f0" target="_top" xlink:title="销毁向量，释放其拥有的底层缓冲区。">
<polygon fill="white" stroke="#666666" points="479,-19 370,-19 370,0 479,0 479,-19"/>
<text text-anchor="middle" x="424.5" y="-7" font-family="Helvetica,sans-Serif" font-size="10.00">lmmc_vec_destroy</text>
</a>
</g>
</g>
<!-- Node2&#45;&gt;Node8 -->
<g id="edge7_Node000002_Node000008" class="edge">
<title>Node2&#45;&gt;Node8</title>
<g id="a_edge7_Node000002_Node000008"><a xlink:title=" ">
<path fill="none" stroke="#63b8ff" d="M290.68,-91.87C296.84,-89.42 302.8,-86.35 308,-82.5 331.47,-65.1 320,-44.16 344,-27.5 348.91,-24.09 354.37,-21.31 360.07,-19.05"/>
<polygon fill="#63b8ff" stroke="#63b8ff" points="361.48,-22.27 369.81,-15.72 359.21,-15.65 361.48,-22.27"/>
</a>
</g>
</g>
</g>
</svg>
