<?xml version="1.0" encoding="UTF-8" standalone="no"?>
<!DOCTYPE svg PUBLIC "-//W3C//DTD SVG 1.1//EN"
 "http://www.w3.org/Graphics/SVG/1.1/DTD/svg11.dtd">
<!-- Generated by graphviz version 2.43.0 (0)
 -->
<!-- Title: lmmc_ode_trapezoidal_solve Pages: 1 -->
<svg width="501pt" height="212pt"
 viewBox="0.00 0.00 501.00 212.00" xmlns="http://www.w3.org/2000/svg" xmlns:xlink="http://www.w3.org/1999/xlink">
<g id="graph0" class="graph" transform="scale(1 1) rotate(0) translate(4 208)">
<title>lmmc_ode_trapezoidal_solve</title>
<!-- Node1 -->
<g id="Node000001" class="node">
<title>Node1</title>
<g id="a_Node000001"><a xlink:title="梯形法求解器（A&#45;稳定，二阶精度）。">
<polygon fill="#999999" stroke="#666666" points="128,-94.5 0,-94.5 0,-64.5 128,-64.5 128,-94.5"/>
<text text-anchor="start" x="8" y="-82.5" font-family="Helvetica,sans-Serif" font-size="10.00">lmmc_ode_trapezoidal</text>
<text text-anchor="middle" x="64" y="-71.5" font-family="Helvetica,sans-Serif" font-size="10.00">_solve</text>
</a>
</g>
</g>
<!-- Node2 -->
<g id="Node000002" class="node">
<title>Node2</title>
<g id="a_Node000002"><a xlink:href="optimize_8c.html#a7432413caf0678e69700583f4327adb8" target="_top" xlink:title="Newton 法求解非线性方程组 F(x) = 0。">
<polygon fill="white" stroke="#666666" points="286,-111 174,-111 174,-92 286,-92 286,-111"/>
<text text-anchor="middle" x="230" y="-99" font-family="Helvetica,sans-Serif" font-size="10.00">lmmc_nleq_newton</text>
</a>
</g>
</g>
<!-- Node1&#45;&gt;Node2 -->
<g id="edge1_Node000001_Node000002" class="edge">
<title>Node1&#45;&gt;Node2</title>
<g id="a_edge1_Node000001_Node000002"><a xlink:title=" ">
<path fill="none" stroke="#63b8ff" d="M128.41,-88.01C139.98,-89.56 152.07,-91.18 163.7,-92.74"/>
<polygon fill="#63b8ff" stroke="#63b8ff" points="163.4,-96.23 173.77,-94.09 164.33,-89.29 163.4,-96.23"/>
</a>
</g>
</g>
<!-- Node9 -->
<g id="Node000009" class="node">
<title>Node9</title>
<g id="a_Node000009"><a xlink:href="optimize_8c.html#a8be56a0f9c43c893759891363ac2a525" target="_top" xlink:title="初始化默认优化配置。">
<polygon fill="white" stroke="#666666" points="296,-73.5 164,-73.5 164,-43.5 296,-43.5 296,-73.5"/>
<text text-anchor="start" x="172" y="-61.5" font-family="Helvetica,sans-Serif" font-size="10.00">lmmc_optimize_default</text>
<text text-anchor="middle" x="230" y="-50.5" font-family="Helvetica,sans-Serif" font-size="10.00">_config</text>
</a>
</g>
</g>
<!-- Node1&#45;&gt;Node9 -->
<g id="edge8_Node000001_Node000009" class="edge">
<title>Node1&#45;&gt;Node9</title>
<g id="a_edge8_Node000001_Node000009"><a xlink:title=" ">
<path fill="none" stroke="#63b8ff" d="M128.41,-71.38C136.76,-70.31 145.39,-69.21 153.92,-68.11"/>
<polygon fill="#63b8ff" stroke="#63b8ff" points="154.39,-71.58 163.87,-66.84 153.5,-64.64 154.39,-71.58"/>
</a>
</g>
</g>
<!-- Node3 -->
<g id="Node000003" class="node">
<title>Node3</title>
<g id="a_Node000003"><a xlink:href="linear__algebra_8c.html#af355bd29273cd0258ec0175661ed7c66" target="_top" xlink:title="就地 LU 分解（带部分主元选取）：P*A = L*U。">
<polygon fill="white" stroke="#666666" points="493,-204 332,-204 332,-185 493,-185 493,-204"/>
<text text-anchor="middle" x="412.5" y="-192" font-family="Helvetica,sans-Serif" font-size="10.00">lmmc_lu_decompose_inplace</text>
</a>
</g>
</g>
<!-- Node2&#45;&gt;Node3 -->
<g id="edge2_Node000002_Node000003" class="edge">
<title>Node2&#45;&gt;Node3</title>
<g id="a_edge2_Node000002_Node000003"><a xlink:title=" ">
<path fill="none" stroke="#63b8ff" d="M240.97,-111.19C258.1,-127.29 294.89,-159.45 332,-176.5 336.35,-178.5 340.94,-180.29 345.63,-181.88"/>
<polygon fill="#63b8ff" stroke="#63b8ff" points="344.77,-185.27 355.36,-184.88 346.84,-178.59 344.77,-185.27"/>
</a>
</g>
</g>
<!-- Node4 -->
<g id="Node000004" class="node">
<title>Node4</title>
<g id="a_Node000004"><a xlink:href="linear__algebra_8c.html#a69dfc49d5bb5d426b37d220d8b93208e" target="_top" xlink:title="利用 LU 分解结果求解线性系统 A*x = b。">
<polygon fill="white" stroke="#666666" points="457.5,-167 367.5,-167 367.5,-148 457.5,-148 457.5,-167"/>
<text text-anchor="middle" x="412.5" y="-155" font-family="Helvetica,sans-Serif" font-size="10.00">lmmc_lu_solve</text>
</a>
</g>
</g>
<!-- Node2&#45;&gt;Node4 -->
<g id="edge3_Node000002_Node000004" class="edge">
<title>Node2&#45;&gt;Node4</title>
<g id="a_edge3_Node000002_Node000004"><a xlink:title=" ">
<path fill="none" stroke="#63b8ff" d="M253.56,-111.01C273.83,-119.3 304.54,-131.27 332,-139.5 340.18,-141.95 348.93,-144.25 357.52,-146.33"/>
<polygon fill="#63b8ff" stroke="#63b8ff" points="356.95,-149.79 367.48,-148.66 358.54,-142.98 356.95,-149.79"/>
</a>
</g>
</g>
<!-- Node5 -->
<g id="Node000005" class="node">
<title>Node5</title>
<g id="a_Node000005"><a xlink:href="dense_8c.html#a0fc9bc3b95589478a194ea553bd69c8f" target="_top" xlink:title="分配并初始化一个 rows × cols 的稠密矩阵，所有元素置零。">
<polygon fill="white" stroke="#666666" points="465,-130 360,-130 360,-111 465,-111 465,-130"/>
<text text-anchor="middle" x="412.5" y="-118" font-family="Helvetica,sans-Serif" font-size="10.00">lmmc_mat_create</text>
</a>
</g>
</g>
<!-- Node2&#45;&gt;Node5 -->
<g id="edge4_Node000002_Node000005" class="edge">
<title>Node2&#45;&gt;Node5</title>
<g id="a_edge4_Node000002_Node000005"><a xlink:title=" ">
<path fill="none" stroke="#63b8ff" d="M286.14,-107.3C306.18,-109.41 328.96,-111.81 349.56,-113.98"/>
<polygon fill="#63b8ff" stroke="#63b8ff" points="349.47,-117.49 359.78,-115.06 350.2,-110.53 349.47,-117.49"/>
</a>
</g>
</g>
<!-- Node6 -->
<g id="Node000006" class="node">
<title>Node6</title>
<g id="a_Node000006"><a xlink:href="dense_8c.html#ad3ffb292f06884dbb65e2cf5b3074c69" target="_top" xlink:title="销毁矩阵，释放其拥有的底层缓冲区。">
<polygon fill="white" stroke="#666666" points="468,-93 357,-93 357,-74 468,-74 468,-93"/>
<text text-anchor="middle" x="412.5" y="-81" font-family="Helvetica,sans-Serif" font-size="10.00">lmmc_mat_destroy</text>
</a>
</g>
</g>
<!-- Node2&#45;&gt;Node6 -->
<g id="edge5_Node000002_Node000006" class="edge">
<title>Node2&#45;&gt;Node6</title>
<g id="a_edge5_Node000002_Node000006"><a xlink:title=" ">
<path fill="none" stroke="#63b8ff" d="M286.14,-96C305.21,-94.1 326.75,-91.95 346.54,-89.98"/>
<polygon fill="#63b8ff" stroke="#63b8ff" points="347.1,-93.44 356.7,-88.96 346.4,-86.47 347.1,-93.44"/>
</a>
</g>
</g>
<!-- Node7 -->
<g id="Node000007" class="node">
<title>Node7</title>
<g id="a_Node000007"><a xlink:href="dense_8c.html#ab1ff7e1a56dc108100975e953774a2ad" target="_top" xlink:title="分配并初始化一个长度为 size 的稠密向量，所有元素置零。">
<polygon fill="white" stroke="#666666" points="464,-56 361,-56 361,-37 464,-37 464,-56"/>
<text text-anchor="middle" x="412.5" y="-44" font-family="Helvetica,sans-Serif" font-size="10.00">lmmc_vec_create</text>
</a>
</g>
</g>
<!-- Node2&#45;&gt;Node7 -->
<g id="edge6_Node000002_Node000007" class="edge">
<title>Node2&#45;&gt;Node7</title>
<g id="a_edge6_Node000002_Node000007"><a xlink:title=" ">
<path fill="none" stroke="#63b8ff" d="M267.43,-91.94C276.84,-89.18 286.88,-85.96 296,-82.5 312.54,-76.22 315.31,-71.37 332,-65.5 339.25,-62.95 346.99,-60.63 354.68,-58.56"/>
<polygon fill="#63b8ff" stroke="#63b8ff" points="355.56,-61.95 364.37,-56.06 353.81,-55.17 355.56,-61.95"/>
</a>
</g>
</g>
<!-- Node8 -->
<g id="Node000008" class="node">
<title>Node8</title>
<g id="a_Node000008"><a xlink:href="dense_8c.html#aeda4a0d3e0c54b575a9b78413118e5f0" target="_top" xlink:title="销毁向量，释放其拥有的底层缓冲区。">
<polygon fill="white" stroke="#666666" points="467,-19 358,-19 358,0 467,0 467,-19"/>
<text text-anchor="middle" x="412.5" y="-7" font-family="Helvetica,sans-Serif" font-size="10.00">lmmc_vec_destroy</text>
</a>
</g>
</g>
<!-- Node2&#45;&gt;Node8 -->
<g id="edge7_Node000002_Node000008" class="edge">
<title>Node2&#45;&gt;Node8</title>
<g id="a_edge7_Node000002_Node000008"><a xlink:title=" ">
<path fill="none" stroke="#63b8ff" d="M278.68,-91.87C284.84,-89.42 290.8,-86.35 296,-82.5 319.47,-65.1 308,-44.16 332,-27.5 336.91,-24.09 342.37,-21.31 348.07,-19.05"/>
<polygon fill="#63b8ff" stroke="#63b8ff" points="349.48,-22.27 357.81,-15.72 347.21,-15.65 349.48,-22.27"/>
</a>
</g>
</g>
</g>
</svg>
