<?xml version="1.0" encoding="UTF-8" standalone="no"?>
<!DOCTYPE svg PUBLIC "-//W3C//DTD SVG 1.1//EN"
 "http://www.w3.org/Graphics/SVG/1.1/DTD/svg11.dtd">
<!-- Generated by graphviz version 2.43.0 (0)
 -->
<!-- Title: /home/runner/work/docs/docs/LMMC/src/ode.c Pages: 1 -->
<svg width="716pt" height="258pt"
 viewBox="0.00 0.00 715.86 258.00" xmlns="http://www.w3.org/2000/svg" xmlns:xlink="http://www.w3.org/1999/xlink">
<g id="graph0" class="graph" transform="scale(1 1) rotate(0) translate(4 254)">
<title>/home/runner/work/docs/docs/LMMC/src/ode.c</title>
<!-- Node1 -->
<g id="Node000001" class="node">
<title>Node1</title>
<g id="a_Node000001"><a xlink:title="ODE 初值问题求解器实现：Euler / RK4 / RK45。">
<polygon fill="#999999" stroke="#666666" points="386.36,-250 252.36,-250 252.36,-220 386.36,-220 386.36,-250"/>
<text text-anchor="start" x="260.36" y="-238" font-family="Helvetica,sans-Serif" font-size="10.00">/home/runner/work/docs</text>
<text text-anchor="middle" x="319.36" y="-227" font-family="Helvetica,sans-Serif" font-size="10.00">/docs/LMMC/src/ode.c</text>
</a>
</g>
</g>
<!-- Node2 -->
<g id="Node000002" class="node">
<title>Node2</title>
<g id="a_Node000002"><a xlink:title=" ">
<polygon fill="#e0e0e0" stroke="#999999" points="56.86,-19 5.86,-19 5.86,0 56.86,0 56.86,-19"/>
<text text-anchor="middle" x="31.36" y="-7" font-family="Helvetica,sans-Serif" font-size="10.00">math.h</text>
</a>
</g>
</g>
<!-- Node1&#45;&gt;Node2 -->
<g id="edge1_Node000001_Node000002" class="edge">
<title>Node1&#45;&gt;Node2</title>
<g id="a_edge1_Node000001_Node000002"><a xlink:title=" ">
<path fill="none" stroke="#63b8ff" d="M252.19,-234.19C194.67,-231.53 111.52,-220.77 49.36,-184 22.17,-167.92 14.98,-158.75 4.36,-129 -8.06,-94.21 9.14,-51.57 21.25,-28.1"/>
<polygon fill="#63b8ff" stroke="#63b8ff" points="24.48,-29.49 26.18,-19.03 18.33,-26.14 24.48,-29.49"/>
</a>
</g>
</g>
<!-- Node3 -->
<g id="Node000003" class="node">
<title>Node3</title>
<g id="a_Node000003"><a xlink:title=" ">
<polygon fill="#e0e0e0" stroke="#999999" points="517.86,-184 464.86,-184 464.86,-165 517.86,-165 517.86,-184"/>
<text text-anchor="middle" x="491.36" y="-172" font-family="Helvetica,sans-Serif" font-size="10.00">string.h</text>
</a>
</g>
</g>
<!-- Node1&#45;&gt;Node3 -->
<g id="edge2_Node000001_Node000003" class="edge">
<title>Node1&#45;&gt;Node3</title>
<g id="a_edge2_Node000001_Node000003"><a xlink:title=" ">
<path fill="none" stroke="#63b8ff" d="M360.56,-219.99C389.86,-210.02 428.78,-196.78 456.53,-187.35"/>
<polygon fill="#63b8ff" stroke="#63b8ff" points="457.87,-190.59 466.21,-184.05 455.62,-183.96 457.87,-190.59"/>
</a>
</g>
</g>
<!-- Node4 -->
<g id="Node000004" class="node">
<title>Node4</title>
<g id="a_Node000004"><a xlink:title=" ">
<polygon fill="#e0e0e0" stroke="#999999" points="586.36,-184 536.36,-184 536.36,-165 586.36,-165 586.36,-184"/>
<text text-anchor="middle" x="561.36" y="-172" font-family="Helvetica,sans-Serif" font-size="10.00">stdio.h</text>
</a>
</g>
</g>
<!-- Node1&#45;&gt;Node4 -->
<g id="edge3_Node000001_Node000004" class="edge">
<title>Node1&#45;&gt;Node4</title>
<g id="a_edge3_Node000001_Node000004"><a xlink:title=" ">
<path fill="none" stroke="#63b8ff" d="M378.57,-219.92C417.85,-210.54 470.81,-197.83 526.13,-184.29"/>
<polygon fill="#63b8ff" stroke="#63b8ff" points="527.24,-187.62 536.11,-181.84 525.57,-180.82 527.24,-187.62"/>
</a>
</g>
</g>
<!-- Node5 -->
<g id="Node000005" class="node">
<title>Node5</title>
<g id="a_Node000005"><a xlink:href="memory__bridge_8h.html" target="_top" xlink:title="内存分配抽象层，可在标准库 malloc 与 LAMMP 栈分配器之间切换。">
<polygon fill="white" stroke="#666666" points="707.86,-184 604.86,-184 604.86,-165 707.86,-165 707.86,-184"/>
<text text-anchor="middle" x="656.36" y="-172" font-family="Helvetica,sans-Serif" font-size="10.00">memory_bridge.h</text>
</a>
</g>
</g>
<!-- Node1&#45;&gt;Node5 -->
<g id="edge4_Node000001_Node000005" class="edge">
<title>Node1&#45;&gt;Node5</title>
<g id="a_edge4_Node000001_Node000005"><a xlink:title=" ">
<path fill="none" stroke="#63b8ff" d="M386.75,-222.3C448.39,-211.6 538.69,-195.93 597.5,-185.72"/>
<polygon fill="#63b8ff" stroke="#63b8ff" points="598.12,-189.16 607.38,-184 596.92,-182.27 598.12,-189.16"/>
</a>
</g>
</g>
<!-- Node7 -->
<g id="Node000007" class="node">
<title>Node7</title>
<g id="a_Node000007"><a xlink:href="internal_8h.html" target="_top" xlink:title="LMMC 内部使用的公共工具（仅源文件可见）。">
<polygon fill="white" stroke="#666666" points="76.86,-129 13.86,-129 13.86,-110 76.86,-110 76.86,-129"/>
<text text-anchor="middle" x="45.36" y="-117" font-family="Helvetica,sans-Serif" font-size="10.00">internal.h</text>
</a>
</g>
</g>
<!-- Node1&#45;&gt;Node7 -->
<g id="edge6_Node000001_Node000007" class="edge">
<title>Node1&#45;&gt;Node7</title>
<g id="a_edge6_Node000001_Node000007"><a xlink:title=" ">
<path fill="none" stroke="#63b8ff" d="M252.11,-228.63C186.06,-222.01 91.38,-208.52 64.36,-184 51.99,-172.77 47.54,-153.86 46,-139.58"/>
<polygon fill="#63b8ff" stroke="#63b8ff" points="49.48,-139.1 45.3,-129.37 42.49,-139.58 49.48,-139.1"/>
</a>
</g>
</g>
<!-- Node11 -->
<g id="Node000011" class="node">
<title>Node11</title>
<g id="a_Node000011"><a xlink:href="ode_8h.html" target="_top" xlink:title="常微分方程初值问题求解器：Euler、RK4、RK45（自适应）。">
<polygon fill="white" stroke="#666666" points="147.36,-184 73.36,-184 73.36,-165 147.36,-165 147.36,-184"/>
<text text-anchor="middle" x="110.36" y="-172" font-family="Helvetica,sans-Serif" font-size="10.00">lmmc/ode.h</text>
</a>
</g>
</g>
<!-- Node1&#45;&gt;Node11 -->
<g id="edge12_Node000001_Node000011" class="edge">
<title>Node1&#45;&gt;Node11</title>
<g id="a_edge12_Node000001_Node000011"><a xlink:title=" ">
<path fill="none" stroke="#63b8ff" d="M269.3,-219.99C233.07,-209.85 184.74,-196.32 150.92,-186.85"/>
<polygon fill="#63b8ff" stroke="#63b8ff" points="151.49,-183.38 140.92,-184.05 149.6,-190.12 151.49,-183.38"/>
</a>
</g>
</g>
<!-- Node14 -->
<g id="Node000014" class="node">
<title>Node14</title>
<g id="a_Node000014"><a xlink:href="optimize_8h.html" target="_top" xlink:title="优化与非线性方程组求解模块。">
<polygon fill="white" stroke="#666666" points="446.86,-184 347.86,-184 347.86,-165 446.86,-165 446.86,-184"/>
<text text-anchor="middle" x="397.36" y="-172" font-family="Helvetica,sans-Serif" font-size="10.00">lmmc/optimize.h</text>
</a>
</g>
</g>
<!-- Node1&#45;&gt;Node14 -->
<g id="edge18_Node000001_Node000014" class="edge">
<title>Node1&#45;&gt;Node14</title>
<g id="a_edge18_Node000001_Node000014"><a xlink:title=" ">
<path fill="none" stroke="#63b8ff" d="M338.24,-219.84C350.14,-210.91 365.48,-199.41 377.55,-190.35"/>
<polygon fill="#63b8ff" stroke="#63b8ff" points="379.77,-193.07 385.67,-184.27 375.57,-187.47 379.77,-193.07"/>
</a>
</g>
</g>
<!-- Node15 -->
<g id="Node000015" class="node">
<title>Node15</title>
<g id="a_Node000015"><a xlink:href="dense_8h.html" target="_top" xlink:title="稠密矩阵 / 向量数据结构与基本运算（含 BLAS Level 1 / 2 接口）。">
<polygon fill="white" stroke="#666666" points="409.36,-129 323.36,-129 323.36,-110 409.36,-110 409.36,-129"/>
<text text-anchor="middle" x="366.36" y="-117" font-family="Helvetica,sans-Serif" font-size="10.00">lmmc/dense.h</text>
</a>
</g>
</g>
<!-- Node1&#45;&gt;Node15 -->
<g id="edge26_Node000001_Node000015" class="edge">
<title>Node1&#45;&gt;Node15</title>
<g id="a_edge26_Node000001_Node000015"><a xlink:title=" ">
<path fill="none" stroke="#63b8ff" d="M322.3,-219.88C325.53,-205.66 331.34,-183.27 339.36,-165 343.48,-155.6 349.26,-145.79 354.42,-137.77"/>
<polygon fill="#63b8ff" stroke="#63b8ff" points="357.41,-139.59 360.04,-129.32 351.59,-135.71 357.41,-139.59"/>
</a>
</g>
</g>
<!-- Node16 -->
<g id="Node000016" class="node">
<title>Node16</title>
<g id="a_Node000016"><a xlink:href="linear__algebra_8h.html" target="_top" xlink:title="稠密矩阵直接分解接口（LU、Cholesky、QR）。">
<polygon fill="white" stroke="#666666" points="291.36,-184 165.36,-184 165.36,-165 291.36,-165 291.36,-184"/>
<text text-anchor="middle" x="228.36" y="-172" font-family="Helvetica,sans-Serif" font-size="10.00">lmmc/linear_algebra.h</text>
</a>
</g>
</g>
<!-- Node1&#45;&gt;Node16 -->
<g id="edge27_Node000001_Node000016" class="edge">
<title>Node1&#45;&gt;Node16</title>
<g id="a_edge27_Node000001_Node000016"><a xlink:title=" ">
<path fill="none" stroke="#63b8ff" d="M297.33,-219.84C283.09,-210.68 264.63,-198.82 250.39,-189.66"/>
<polygon fill="#63b8ff" stroke="#63b8ff" points="252.03,-186.56 241.73,-184.09 248.25,-192.45 252.03,-186.56"/>
</a>
</g>
</g>
<!-- Node6 -->
<g id="Node000006" class="node">
<title>Node6</title>
<g id="a_Node000006"><a xlink:title=" ">
<polygon fill="#e0e0e0" stroke="#999999" points="682.86,-129 629.86,-129 629.86,-110 682.86,-110 682.86,-129"/>
<text text-anchor="middle" x="656.36" y="-117" font-family="Helvetica,sans-Serif" font-size="10.00">stdlib.h</text>
</a>
</g>
</g>
<!-- Node5&#45;&gt;Node6 -->
<g id="edge5_Node000005_Node000006" class="edge">
<title>Node5&#45;&gt;Node6</title>
<g id="a_edge5_Node000005_Node000006"><a xlink:title=" ">
<path fill="none" stroke="#63b8ff" d="M656.36,-164.75C656.36,-157.8 656.36,-147.85 656.36,-139.13"/>
<polygon fill="#63b8ff" stroke="#63b8ff" points="659.86,-139.09 656.36,-129.09 652.86,-139.09 659.86,-139.09"/>
</a>
</g>
</g>
<!-- Node7&#45;&gt;Node2 -->
<g id="edge11_Node000007_Node000002" class="edge">
<title>Node7&#45;&gt;Node2</title>
<g id="a_edge11_Node000007_Node000002"><a xlink:title=" ">
<path fill="none" stroke="#63b8ff" d="M44.21,-109.66C41.95,-92.17 36.84,-52.8 33.79,-29.27"/>
<polygon fill="#63b8ff" stroke="#63b8ff" points="37.24,-28.63 32.48,-19.16 30.3,-29.53 37.24,-28.63"/>
</a>
</g>
</g>
<!-- Node8 -->
<g id="Node000008" class="node">
<title>Node8</title>
<g id="a_Node000008"><a xlink:href="config_8h.html" target="_top" xlink:title="LMMC 实数类型与基本运算抽象。">
<polygon fill="white" stroke="#666666" points="300.36,-74 214.36,-74 214.36,-55 300.36,-55 300.36,-74"/>
<text text-anchor="middle" x="257.36" y="-62" font-family="Helvetica,sans-Serif" font-size="10.00">lmmc/config.h</text>
</a>
</g>
</g>
<!-- Node7&#45;&gt;Node8 -->
<g id="edge7_Node000007_Node000008" class="edge">
<title>Node7&#45;&gt;Node8</title>
<g id="a_edge7_Node000007_Node000008"><a xlink:title=" ">
<path fill="none" stroke="#63b8ff" d="M77.1,-110.57C113.3,-101.51 172.74,-86.66 213.39,-76.49"/>
<polygon fill="#63b8ff" stroke="#63b8ff" points="214.44,-79.84 223.29,-74.02 212.74,-73.05 214.44,-79.84"/>
</a>
</g>
</g>
<!-- Node9 -->
<g id="Node000009" class="node">
<title>Node9</title>
<g id="a_Node000009"><a xlink:title=" ">
<polygon fill="#e0e0e0" stroke="#999999" points="192.36,-74 136.36,-74 136.36,-55 192.36,-55 192.36,-74"/>
<text text-anchor="middle" x="164.36" y="-62" font-family="Helvetica,sans-Serif" font-size="10.00">stddef.h</text>
</a>
</g>
</g>
<!-- Node7&#45;&gt;Node9 -->
<g id="edge9_Node000007_Node000009" class="edge">
<title>Node7&#45;&gt;Node9</title>
<g id="a_edge9_Node000007_Node000009"><a xlink:title=" ">
<path fill="none" stroke="#63b8ff" d="M64.48,-109.98C83.71,-101.42 113.59,-88.11 135.67,-78.28"/>
<polygon fill="#63b8ff" stroke="#63b8ff" points="137.18,-81.44 144.89,-74.17 134.33,-75.04 137.18,-81.44"/>
</a>
</g>
</g>
<!-- Node10 -->
<g id="Node000010" class="node">
<title>Node10</title>
<g id="a_Node000010"><a xlink:title=" ">
<polygon fill="#e0e0e0" stroke="#999999" points="112.86,-74 59.86,-74 59.86,-55 112.86,-55 112.86,-74"/>
<text text-anchor="middle" x="86.36" y="-62" font-family="Helvetica,sans-Serif" font-size="10.00">stdint.h</text>
</a>
</g>
</g>
<!-- Node7&#45;&gt;Node10 -->
<g id="edge10_Node000007_Node000010" class="edge">
<title>Node7&#45;&gt;Node10</title>
<g id="a_edge10_Node000007_Node000010"><a xlink:title=" ">
<path fill="none" stroke="#63b8ff" d="M52.13,-109.75C57.92,-102.26 66.42,-91.28 73.5,-82.13"/>
<polygon fill="#63b8ff" stroke="#63b8ff" points="76.36,-84.14 79.71,-74.09 70.83,-79.86 76.36,-84.14"/>
</a>
</g>
</g>
<!-- Node8&#45;&gt;Node2 -->
<g id="edge8_Node000008_Node000002" class="edge">
<title>Node8&#45;&gt;Node2</title>
<g id="a_edge8_Node000008_Node000002"><a xlink:title=" ">
<path fill="none" stroke="#63b8ff" d="M221.05,-54.98C178.63,-45.04 108.91,-28.69 66.85,-18.82"/>
<polygon fill="#63b8ff" stroke="#63b8ff" points="67.57,-15.4 57.04,-16.52 65.97,-22.21 67.57,-15.4"/>
</a>
</g>
</g>
<!-- Node11&#45;&gt;Node9 -->
<g id="edge13_Node000011_Node000009" class="edge">
<title>Node11&#45;&gt;Node9</title>
<g id="a_edge13_Node000011_Node000009"><a xlink:title=" ">
<path fill="none" stroke="#63b8ff" d="M111.87,-164.89C114.3,-152.31 119.82,-128.39 129.36,-110 134.67,-99.77 142.46,-89.57 149.34,-81.53"/>
<polygon fill="#63b8ff" stroke="#63b8ff" points="152,-83.8 156.04,-74.01 146.78,-79.14 152,-83.8"/>
</a>
</g>
</g>
<!-- Node12 -->
<g id="Node000012" class="node">
<title>Node12</title>
<g id="a_Node000012"><a xlink:href="numeric_8h.html" target="_top" xlink:title="数值常量、特殊值、近似比较与基本数学补充函数。">
<polygon fill="white" stroke="#666666" points="305.36,-129 209.36,-129 209.36,-110 305.36,-110 305.36,-129"/>
<text text-anchor="middle" x="257.36" y="-117" font-family="Helvetica,sans-Serif" font-size="10.00">lmmc/numeric.h</text>
</a>
</g>
</g>
<!-- Node11&#45;&gt;Node12 -->
<g id="edge14_Node000011_Node000012" class="edge">
<title>Node11&#45;&gt;Node12</title>
<g id="a_edge14_Node000011_Node000012"><a xlink:title=" ">
<path fill="none" stroke="#63b8ff" d="M133.98,-164.98C158.26,-156.23 196.31,-142.51 223.73,-132.62"/>
<polygon fill="#63b8ff" stroke="#63b8ff" points="225.09,-135.85 233.31,-129.17 222.72,-129.27 225.09,-135.85"/>
</a>
</g>
</g>
<!-- Node12&#45;&gt;Node8 -->
<g id="edge16_Node000012_Node000008" class="edge">
<title>Node12&#45;&gt;Node8</title>
<g id="a_edge16_Node000012_Node000008"><a xlink:title=" ">
<path fill="none" stroke="#63b8ff" d="M257.36,-109.75C257.36,-102.8 257.36,-92.85 257.36,-84.13"/>
<polygon fill="#63b8ff" stroke="#63b8ff" points="260.86,-84.09 257.36,-74.09 253.86,-84.09 260.86,-84.09"/>
</a>
</g>
</g>
<!-- Node12&#45;&gt;Node9 -->
<g id="edge15_Node000012_Node000009" class="edge">
<title>Node12&#45;&gt;Node9</title>
<g id="a_edge15_Node000012_Node000009"><a xlink:title=" ">
<path fill="none" stroke="#63b8ff" d="M242.42,-109.98C227.86,-101.69 205.49,-88.94 188.43,-79.22"/>
<polygon fill="#63b8ff" stroke="#63b8ff" points="189.99,-76.08 179.57,-74.17 186.53,-82.16 189.99,-76.08"/>
</a>
</g>
</g>
<!-- Node13 -->
<g id="Node000013" class="node">
<title>Node13</title>
<g id="a_Node000013"><a xlink:href="status_8h.html" target="_top" xlink:title="LMMC 通用状态码定义。">
<polygon fill="white" stroke="#666666" points="409.36,-74 323.36,-74 323.36,-55 409.36,-55 409.36,-74"/>
<text text-anchor="middle" x="366.36" y="-62" font-family="Helvetica,sans-Serif" font-size="10.00">lmmc/status.h</text>
</a>
</g>
</g>
<!-- Node12&#45;&gt;Node13 -->
<g id="edge17_Node000012_Node000013" class="edge">
<title>Node12&#45;&gt;Node13</title>
<g id="a_edge17_Node000012_Node000013"><a xlink:title=" ">
<path fill="none" stroke="#63b8ff" d="M274.87,-109.98C292.33,-101.5 319.37,-88.35 339.53,-78.54"/>
<polygon fill="#63b8ff" stroke="#63b8ff" points="341.06,-81.69 348.53,-74.17 338,-75.4 341.06,-81.69"/>
</a>
</g>
</g>
<!-- Node14&#45;&gt;Node8 -->
<g id="edge21_Node000014_Node000008" class="edge">
<title>Node14&#45;&gt;Node8</title>
<g id="a_edge21_Node000014_Node000008"><a xlink:title=" ">
<path fill="none" stroke="#63b8ff" d="M404.82,-164.87C415.14,-151.82 431.16,-126.82 418.36,-110 411.46,-100.94 352.38,-86.24 307.78,-76.23"/>
<polygon fill="#63b8ff" stroke="#63b8ff" points="308.45,-72.8 297.93,-74.05 306.94,-79.63 308.45,-72.8"/>
</a>
</g>
</g>
<!-- Node14&#45;&gt;Node9 -->
<g id="edge19_Node000014_Node000009" class="edge">
<title>Node14&#45;&gt;Node9</title>
<g id="a_edge19_Node000014_Node000009"><a xlink:title=" ">
<path fill="none" stroke="#63b8ff" d="M347.8,-166.96C297.35,-159.5 223.37,-146.09 200.36,-129 185.44,-117.92 175.8,-98.7 170.29,-84.3"/>
<polygon fill="#63b8ff" stroke="#63b8ff" points="173.45,-82.74 166.86,-74.45 166.84,-85.04 173.45,-82.74"/>
</a>
</g>
</g>
<!-- Node14&#45;&gt;Node13 -->
<g id="edge20_Node000014_Node000013" class="edge">
<title>Node14&#45;&gt;Node13</title>
<g id="a_edge20_Node000014_Node000013"><a xlink:title=" ">
<path fill="none" stroke="#63b8ff" d="M414.09,-164.96C434.42,-153.38 464.47,-131.67 451.36,-110 442.22,-94.89 426.07,-84.67 410.29,-77.87"/>
<polygon fill="#63b8ff" stroke="#63b8ff" points="411.17,-74.46 400.58,-74.07 408.62,-80.97 411.17,-74.46"/>
</a>
</g>
</g>
<!-- Node14&#45;&gt;Node15 -->
<g id="edge22_Node000014_Node000015" class="edge">
<title>Node14&#45;&gt;Node15</title>
<g id="a_edge22_Node000014_Node000015"><a xlink:title=" ">
<path fill="none" stroke="#63b8ff" d="M392.24,-164.75C388,-157.49 381.83,-146.95 376.58,-137.98"/>
<polygon fill="#63b8ff" stroke="#63b8ff" points="379.45,-135.95 371.38,-129.09 373.41,-139.49 379.45,-135.95"/>
</a>
</g>
</g>
<!-- Node15&#45;&gt;Node8 -->
<g id="edge25_Node000015_Node000008" class="edge">
<title>Node15&#45;&gt;Node8</title>
<g id="a_edge25_Node000015_Node000008"><a xlink:title=" ">
<path fill="none" stroke="#63b8ff" d="M348.85,-109.98C331.39,-101.5 304.35,-88.35 284.19,-78.54"/>
<polygon fill="#63b8ff" stroke="#63b8ff" points="285.71,-75.4 275.19,-74.17 282.65,-81.69 285.71,-75.4"/>
</a>
</g>
</g>
<!-- Node15&#45;&gt;Node9 -->
<g id="edge23_Node000015_Node000009" class="edge">
<title>Node15&#45;&gt;Node9</title>
<g id="a_edge23_Node000015_Node000009"><a xlink:title=" ">
<path fill="none" stroke="#63b8ff" d="M333.9,-109.98C298.12,-100.6 240.61,-85.51 202.65,-75.55"/>
<polygon fill="#63b8ff" stroke="#63b8ff" points="203.06,-72.04 192.5,-72.88 201.28,-78.81 203.06,-72.04"/>
</a>
</g>
</g>
<!-- Node15&#45;&gt;Node13 -->
<g id="edge24_Node000015_Node000013" class="edge">
<title>Node15&#45;&gt;Node13</title>
<g id="a_edge24_Node000015_Node000013"><a xlink:title=" ">
<path fill="none" stroke="#63b8ff" d="M366.36,-109.75C366.36,-102.8 366.36,-92.85 366.36,-84.13"/>
<polygon fill="#63b8ff" stroke="#63b8ff" points="369.86,-84.09 366.36,-74.09 362.86,-84.09 369.86,-84.09"/>
</a>
</g>
</g>
<!-- Node16&#45;&gt;Node9 -->
<g id="edge28_Node000016_Node000009" class="edge">
<title>Node16&#45;&gt;Node9</title>
<g id="a_edge28_Node000016_Node000009"><a xlink:title=" ">
<path fill="none" stroke="#63b8ff" d="M208.69,-164.94C194.49,-157.62 176.31,-145.62 167.36,-129 160.08,-115.47 159.83,-97.88 161.12,-84.64"/>
<polygon fill="#63b8ff" stroke="#63b8ff" points="164.64,-84.72 162.51,-74.34 157.7,-83.78 164.64,-84.72"/>
</a>
</g>
</g>
<!-- Node16&#45;&gt;Node15 -->
<g id="edge29_Node000016_Node000015" class="edge">
<title>Node16&#45;&gt;Node15</title>
<g id="a_edge29_Node000016_Node000015"><a xlink:title=" ">
<path fill="none" stroke="#63b8ff" d="M250.53,-164.98C273.13,-156.3 308.42,-142.75 334.11,-132.88"/>
<polygon fill="#63b8ff" stroke="#63b8ff" points="335.7,-136.02 343.78,-129.17 333.19,-129.49 335.7,-136.02"/>
</a>
</g>
</g>
</g>
</svg>
