<?xml version="1.0" encoding="UTF-8" standalone="no"?>
<!DOCTYPE svg PUBLIC "-//W3C//DTD SVG 1.1//EN"
 "http://www.w3.org/Graphics/SVG/1.1/DTD/svg11.dtd">
<!-- Generated by graphviz version 2.43.0 (0)
 -->
<!-- Title: /home/runner/work/docs/docs/LMMC/src/optimize.c Pages: 1 -->
<!--zoomable 258 -->

<svg id="main" version="1.1" xmlns="http://www.w3.org/2000/svg" xmlns:xlink="http://www.w3.org/1999/xlink" xml:space="preserve" onload="init(evt)">
<style type="text/css"><![CDATA[
.node, .edge {opacity: 0.7;}
.node.selected, .edge.selected {opacity: 1;}
.edge:hover path { stroke: red; }
.edge:hover polygon { stroke: red; fill: red; }
]]></style>

<defs>
  <circle id="rim" cx="0" cy="0" r="7"/>
  <circle id="rim2" cx="0" cy="0" r="3.5"/>
  <g id="zoomPlus">
    <use xlink:href="#rim" fill="#404040"><set attributeName="fill" to="#808080" begin="zoomplus.mouseover" end="zoomplus.mouseout"/></use>
    <path d="M-4,0h8M0,-4v8" fill="none" stroke="white" stroke-width="1.5" pointer-events="none"/>
  </g>
  <g id="zoomMin">
    <use xlink:href="#rim" fill="#404040"><set attributeName="fill" to="#808080" begin="zoomminus.mouseover" end="zoomminus.mouseout"/></use>
    <path d="M-4,0h8" fill="none" stroke="white" stroke-width="1.5" pointer-events="none"/>
  </g>
  <g id="arrowUp" transform="translate(30 24)">
    <use xlink:href="#rim"/>
    <path pointer-events="none" fill="none" stroke="white" stroke-width="1.5" d="M0,-3.0v7 M-2.5,-0.5L0,-3.0L2.5,-0.5"/>
  </g>
  <g id="arrowRight" transform="rotate(90) translate(36 -43)">
    <use xlink:href="#rim"/>
    <path pointer-events="none" fill="none" stroke="white" stroke-width="1.5" d="M0,-3.0v7 M-2.5,-0.5L0,-3.0L2.5,-0.5"/>
  </g>
  <g id="arrowDown" transform="rotate(180) translate(-30 -48)">
    <use xlink:href="#rim"/>
    <path pointer-events="none" fill="none" stroke="white" stroke-width="1.5" d="M0,-3.0v7 M-2.5,-0.5L0,-3.0L2.5,-0.5"/>
  </g>
  <g id="arrowLeft" transform="rotate(270) translate(-36 17)">
    <use xlink:href="#rim"/>
    <path pointer-events="none" fill="none" stroke="white" stroke-width="1.5" d="M0,-3.0v7 M-2.5,-0.5L0,-3.0L2.5,-0.5"/>
  </g>
  <g id="resetDef">
    <use xlink:href="#rim2" fill="#404040"><set attributeName="fill" to="#808080" begin="reset.mouseover" end="reset.mouseout"/></use>
  </g>
</defs>
<script type="application/ecmascript">
var viewWidth = 612;
var viewHeight = 258;
var sectionId = 'dynsection-0';
</script>
<script type="application/ecmascript" xlink:href="svg.min.js"/>
<svg id="graph" class="graph">
<g id="viewport">
<title>/home/runner/work/docs/docs/LMMC/src/optimize.c</title>
<!-- Node1 -->
<g id="Node000001" class="node">
<title>Node1</title>
<g id="a_Node000001"><a xlink:title="优化与非线性方程组求解实现。">
<polygon fill="#999999" stroke="#666666" points="326.56,-250 180.56,-250 180.56,-220 326.56,-220 326.56,-250"/>
<text text-anchor="start" x="188.56" y="-238" font-family="Helvetica,sans-Serif" font-size="10.00">/home/runner/work/docs</text>
<text text-anchor="middle" x="253.56" y="-227" font-family="Helvetica,sans-Serif" font-size="10.00">/docs/LMMC/src/optimize.c</text>
</a>
</g>
</g>
<!-- Node2 -->
<g id="Node000002" class="node">
<title>Node2</title>
<g id="a_Node000002"><a xlink:title=" ">
<polygon fill="#e0e0e0" stroke="#999999" points="169.06,-19 118.06,-19 118.06,0 169.06,0 169.06,-19"/>
<text text-anchor="middle" x="143.56" y="-7" font-family="Helvetica,sans-Serif" font-size="10.00">math.h</text>
</a>
</g>
</g>
<!-- Node1&#45;&gt;Node2 -->
<g id="edge1_Node000001_Node000002" class="edge">
<title>Node1&#45;&gt;Node2</title>
<g id="a_edge1_Node000001_Node000002"><a xlink:title=" ">
<path fill="none" stroke="#63b8ff" d="M180.39,-228.79C117.41,-222.6 33.47,-209.69 12.56,-184 -34.55,-126.11 69.3,-54.13 118.99,-24.37"/>
<polygon fill="#63b8ff" stroke="#63b8ff" points="121.02,-27.24 127.87,-19.15 117.47,-21.2 121.02,-27.24"/>
</a>
</g>
</g>
<!-- Node3 -->
<g id="Node000003" class="node">
<title>Node3</title>
<g id="a_Node000003"><a xlink:title=" ">
<polygon fill="#e0e0e0" stroke="#999999" points="75.06,-184 22.06,-184 22.06,-165 75.06,-165 75.06,-184"/>
<text text-anchor="middle" x="48.56" y="-172" font-family="Helvetica,sans-Serif" font-size="10.00">string.h</text>
</a>
</g>
</g>
<!-- Node1&#45;&gt;Node3 -->
<g id="edge2_Node000001_Node000003" class="edge">
<title>Node1&#45;&gt;Node3</title>
<g id="a_edge2_Node000001_Node000003"><a xlink:title=" ">
<path fill="none" stroke="#63b8ff" d="M204.46,-219.99C167.75,-209.51 118.36,-195.42 85.09,-185.92"/>
<polygon fill="#63b8ff" stroke="#63b8ff" points="85.89,-182.51 75.31,-183.13 83.97,-189.24 85.89,-182.51"/>
</a>
</g>
</g>
<!-- Node4 -->
<g id="Node000004" class="node">
<title>Node4</title>
<g id="a_Node000004"><a xlink:title=" ">
<polygon fill="#e0e0e0" stroke="#999999" points="143.56,-184 93.56,-184 93.56,-165 143.56,-165 143.56,-184"/>
<text text-anchor="middle" x="118.56" y="-172" font-family="Helvetica,sans-Serif" font-size="10.00">stdio.h</text>
</a>
</g>
</g>
<!-- Node1&#45;&gt;Node4 -->
<g id="edge3_Node000001_Node000004" class="edge">
<title>Node1&#45;&gt;Node4</title>
<g id="a_edge3_Node000001_Node000004"><a xlink:title=" ">
<path fill="none" stroke="#63b8ff" d="M221.23,-219.99C198.91,-210.31 169.46,-197.56 147.84,-188.18"/>
<polygon fill="#63b8ff" stroke="#63b8ff" points="149.07,-184.9 138.5,-184.14 146.28,-191.33 149.07,-184.9"/>
</a>
</g>
</g>
<!-- Node5 -->
<g id="Node000005" class="node">
<title>Node5</title>
<g id="a_Node000005"><a xlink:href="memory__bridge_8h.html" target="_top" xlink:title="内存分配抽象层，可在标准库 malloc 与 LAMMP 栈分配器之间切换。">
<polygon fill="white" stroke="#666666" points="265.06,-184 162.06,-184 162.06,-165 265.06,-165 265.06,-184"/>
<text text-anchor="middle" x="213.56" y="-172" font-family="Helvetica,sans-Serif" font-size="10.00">memory_bridge.h</text>
</a>
</g>
</g>
<!-- Node1&#45;&gt;Node5 -->
<g id="edge4_Node000001_Node000005" class="edge">
<title>Node1&#45;&gt;Node5</title>
<g id="a_edge4_Node000001_Node000005"><a xlink:title=" ">
<path fill="none" stroke="#63b8ff" d="M243.88,-219.84C238.31,-211.69 231.27,-201.4 225.38,-192.78"/>
<polygon fill="#63b8ff" stroke="#63b8ff" points="228.09,-190.55 219.56,-184.27 222.31,-194.5 228.09,-190.55"/>
</a>
</g>
</g>
<!-- Node7 -->
<g id="Node000007" class="node">
<title>Node7</title>
<g id="a_Node000007"><a xlink:href="config_8h.html" target="_top" xlink:title="LMMC 实数类型与基本运算抽象。">
<polygon fill="white" stroke="#666666" points="336.56,-74 250.56,-74 250.56,-55 336.56,-55 336.56,-74"/>
<text text-anchor="middle" x="293.56" y="-62" font-family="Helvetica,sans-Serif" font-size="10.00">lmmc/config.h</text>
</a>
</g>
</g>
<!-- Node1&#45;&gt;Node7 -->
<g id="edge6_Node000001_Node000007" class="edge">
<title>Node1&#45;&gt;Node7</title>
<g id="a_edge6_Node000001_Node000007"><a xlink:title=" ">
<path fill="none" stroke="#63b8ff" d="M260.17,-219.84C264.54,-209.98 270.07,-196.42 273.56,-184 283.26,-149.48 288.95,-107.9 291.65,-84.29"/>
<polygon fill="#63b8ff" stroke="#63b8ff" points="295.14,-84.58 292.73,-74.26 288.18,-83.83 295.14,-84.58"/>
</a>
</g>
</g>
<!-- Node8 -->
<g id="Node000008" class="node">
<title>Node8</title>
<g id="a_Node000008"><a xlink:href="dense_8h.html" target="_top" xlink:title="稠密矩阵 / 向量数据结构与基本运算（含 BLAS Level 1 / 2 接口）。">
<polygon fill="white" stroke="#666666" points="521.56,-129 435.56,-129 435.56,-110 521.56,-110 521.56,-129"/>
<text text-anchor="middle" x="478.56" y="-117" font-family="Helvetica,sans-Serif" font-size="10.00">lmmc/dense.h</text>
</a>
</g>
</g>
<!-- Node1&#45;&gt;Node8 -->
<g id="edge8_Node000001_Node000008" class="edge">
<title>Node1&#45;&gt;Node8</title>
<g id="a_edge8_Node000001_Node000008"><a xlink:title=" ">
<path fill="none" stroke="#63b8ff" d="M326.96,-223.94C360.39,-216.76 399.18,-204.57 429.56,-184 446.8,-172.33 460.62,-152.63 469.13,-138.27"/>
<polygon fill="#63b8ff" stroke="#63b8ff" points="472.3,-139.77 474.15,-129.33 466.2,-136.34 472.3,-139.77"/>
</a>
</g>
</g>
<!-- Node11 -->
<g id="Node000011" class="node">
<title>Node11</title>
<g id="a_Node000011"><a xlink:href="linear__algebra_8h.html" target="_top" xlink:title="稠密矩阵直接分解接口（LU、Cholesky、QR）。">
<polygon fill="white" stroke="#666666" points="603.56,-184 477.56,-184 477.56,-165 603.56,-165 603.56,-184"/>
<text text-anchor="middle" x="540.56" y="-172" font-family="Helvetica,sans-Serif" font-size="10.00">lmmc/linear_algebra.h</text>
</a>
</g>
</g>
<!-- Node1&#45;&gt;Node11 -->
<g id="edge12_Node000001_Node000011" class="edge">
<title>Node1&#45;&gt;Node11</title>
<g id="a_edge12_Node000001_Node000011"><a xlink:title=" ">
<path fill="none" stroke="#63b8ff" d="M322.31,-219.99C373.45,-209.56 442.16,-195.56 488.72,-186.07"/>
<polygon fill="#63b8ff" stroke="#63b8ff" points="489.5,-189.48 498.6,-184.05 488.1,-182.62 489.5,-189.48"/>
</a>
</g>
</g>
<!-- Node12 -->
<g id="Node000012" class="node">
<title>Node12</title>
<g id="a_Node000012"><a xlink:href="optimize_8h.html" target="_top" xlink:title="优化与非线性方程组求解模块。">
<polygon fill="white" stroke="#666666" points="421.06,-184 322.06,-184 322.06,-165 421.06,-165 421.06,-184"/>
<text text-anchor="middle" x="371.56" y="-172" font-family="Helvetica,sans-Serif" font-size="10.00">lmmc/optimize.h</text>
</a>
</g>
</g>
<!-- Node1&#45;&gt;Node12 -->
<g id="edge15_Node000001_Node000012" class="edge">
<title>Node1&#45;&gt;Node12</title>
<g id="a_edge15_Node000001_Node000012"><a xlink:title=" ">
<path fill="none" stroke="#63b8ff" d="M281.83,-219.99C300.99,-210.49 326.15,-198.02 344.95,-188.69"/>
<polygon fill="#63b8ff" stroke="#63b8ff" points="346.73,-191.72 354.14,-184.14 343.62,-185.45 346.73,-191.72"/>
</a>
</g>
</g>
<!-- Node6 -->
<g id="Node000006" class="node">
<title>Node6</title>
<g id="a_Node000006"><a xlink:title=" ">
<polygon fill="#e0e0e0" stroke="#999999" points="240.06,-129 187.06,-129 187.06,-110 240.06,-110 240.06,-129"/>
<text text-anchor="middle" x="213.56" y="-117" font-family="Helvetica,sans-Serif" font-size="10.00">stdlib.h</text>
</a>
</g>
</g>
<!-- Node5&#45;&gt;Node6 -->
<g id="edge5_Node000005_Node000006" class="edge">
<title>Node5&#45;&gt;Node6</title>
<g id="a_edge5_Node000005_Node000006"><a xlink:title=" ">
<path fill="none" stroke="#63b8ff" d="M213.56,-164.75C213.56,-157.8 213.56,-147.85 213.56,-139.13"/>
<polygon fill="#63b8ff" stroke="#63b8ff" points="217.06,-139.09 213.56,-129.09 210.06,-139.09 217.06,-139.09"/>
</a>
</g>
</g>
<!-- Node7&#45;&gt;Node2 -->
<g id="edge7_Node000007_Node000002" class="edge">
<title>Node7&#45;&gt;Node2</title>
<g id="a_edge7_Node000007_Node000002"><a xlink:title=" ">
<path fill="none" stroke="#63b8ff" d="M269.46,-54.98C244.68,-46.23 205.86,-32.51 177.88,-22.62"/>
<polygon fill="#63b8ff" stroke="#63b8ff" points="178.7,-19.2 168.1,-19.17 176.37,-25.8 178.7,-19.2"/>
</a>
</g>
</g>
<!-- Node8&#45;&gt;Node7 -->
<g id="edge11_Node000008_Node000007" class="edge">
<title>Node8&#45;&gt;Node7</title>
<g id="a_edge11_Node000008_Node000007"><a xlink:title=" ">
<path fill="none" stroke="#63b8ff" d="M448.84,-109.98C417.51,-101.01 367.99,-86.82 333.32,-76.89"/>
<polygon fill="#63b8ff" stroke="#63b8ff" points="334.1,-73.47 323.52,-74.08 332.17,-80.2 334.1,-73.47"/>
</a>
</g>
</g>
<!-- Node9 -->
<g id="Node000009" class="node">
<title>Node9</title>
<g id="a_Node000009"><a xlink:title=" ">
<polygon fill="#e0e0e0" stroke="#999999" points="514.56,-74 458.56,-74 458.56,-55 514.56,-55 514.56,-74"/>
<text text-anchor="middle" x="486.56" y="-62" font-family="Helvetica,sans-Serif" font-size="10.00">stddef.h</text>
</a>
</g>
</g>
<!-- Node8&#45;&gt;Node9 -->
<g id="edge9_Node000008_Node000009" class="edge">
<title>Node8&#45;&gt;Node9</title>
<g id="a_edge9_Node000008_Node000009"><a xlink:title=" ">
<path fill="none" stroke="#63b8ff" d="M479.89,-109.75C480.93,-102.8 482.44,-92.85 483.75,-84.13"/>
<polygon fill="#63b8ff" stroke="#63b8ff" points="487.24,-84.5 485.27,-74.09 480.31,-83.45 487.24,-84.5"/>
</a>
</g>
</g>
<!-- Node10 -->
<g id="Node000010" class="node">
<title>Node10</title>
<g id="a_Node000010"><a xlink:href="status_8h.html" target="_top" xlink:title="LMMC 通用状态码定义。">
<polygon fill="white" stroke="#666666" points="440.56,-74 354.56,-74 354.56,-55 440.56,-55 440.56,-74"/>
<text text-anchor="middle" x="397.56" y="-62" font-family="Helvetica,sans-Serif" font-size="10.00">lmmc/status.h</text>
</a>
</g>
</g>
<!-- Node8&#45;&gt;Node10 -->
<g id="edge10_Node000008_Node000010" class="edge">
<title>Node8&#45;&gt;Node10</title>
<g id="a_edge10_Node000008_Node000010"><a xlink:title=" ">
<path fill="none" stroke="#63b8ff" d="M465.55,-109.98C453.11,-101.84 434.11,-89.41 419.36,-79.76"/>
<polygon fill="#63b8ff" stroke="#63b8ff" points="421.1,-76.72 410.81,-74.17 417.27,-82.57 421.1,-76.72"/>
</a>
</g>
</g>
<!-- Node11&#45;&gt;Node8 -->
<g id="edge14_Node000011_Node000008" class="edge">
<title>Node11&#45;&gt;Node8</title>
<g id="a_edge14_Node000011_Node000008"><a xlink:title=" ">
<path fill="none" stroke="#63b8ff" d="M530.6,-164.98C521.44,-157.15 507.63,-145.34 496.54,-135.86"/>
<polygon fill="#63b8ff" stroke="#63b8ff" points="498.58,-133.01 488.71,-129.17 494.03,-138.33 498.58,-133.01"/>
</a>
</g>
</g>
<!-- Node11&#45;&gt;Node9 -->
<g id="edge13_Node000011_Node000009" class="edge">
<title>Node11&#45;&gt;Node9</title>
<g id="a_edge13_Node000011_Node000009"><a xlink:title=" ">
<path fill="none" stroke="#63b8ff" d="M540.84,-164.77C540.89,-152.04 539.63,-127.93 530.56,-110 524.86,-98.72 515.25,-88.49 506.46,-80.7"/>
<polygon fill="#63b8ff" stroke="#63b8ff" points="508.68,-77.99 498.76,-74.27 504.19,-83.37 508.68,-77.99"/>
</a>
</g>
</g>
<!-- Node12&#45;&gt;Node7 -->
<g id="edge18_Node000012_Node000007" class="edge">
<title>Node12&#45;&gt;Node7</title>
<g id="a_edge18_Node000012_Node000007"><a xlink:title=" ">
<path fill="none" stroke="#63b8ff" d="M365.18,-164.66C352.2,-146.69 322.56,-105.64 305.76,-82.38"/>
<polygon fill="#63b8ff" stroke="#63b8ff" points="308.51,-80.22 299.82,-74.16 302.83,-84.31 308.51,-80.22"/>
</a>
</g>
</g>
<!-- Node12&#45;&gt;Node8 -->
<g id="edge19_Node000012_Node000008" class="edge">
<title>Node12&#45;&gt;Node8</title>
<g id="a_edge19_Node000012_Node000008"><a xlink:title=" ">
<path fill="none" stroke="#63b8ff" d="M388.76,-164.98C405.81,-156.54 432.2,-143.47 451.96,-133.68"/>
<polygon fill="#63b8ff" stroke="#63b8ff" points="453.65,-136.75 461.06,-129.17 450.55,-130.47 453.65,-136.75"/>
</a>
</g>
</g>
<!-- Node12&#45;&gt;Node9 -->
<g id="edge16_Node000012_Node000009" class="edge">
<title>Node12&#45;&gt;Node9</title>
<g id="a_edge16_Node000012_Node000009"><a xlink:title=" ">
<path fill="none" stroke="#63b8ff" d="M378.14,-164.75C387.94,-151.99 407.31,-127.85 426.56,-110 438.39,-99.04 452.88,-88.23 464.65,-80.01"/>
<polygon fill="#63b8ff" stroke="#63b8ff" points="466.77,-82.81 473.04,-74.27 462.81,-77.03 466.77,-82.81"/>
</a>
</g>
</g>
<!-- Node12&#45;&gt;Node10 -->
<g id="edge17_Node000012_Node000010" class="edge">
<title>Node12&#45;&gt;Node10</title>
<g id="a_edge17_Node000012_Node000010"><a xlink:title=" ">
<path fill="none" stroke="#63b8ff" d="M373.69,-164.66C377.92,-147.09 387.47,-107.45 393.12,-83.95"/>
<polygon fill="#63b8ff" stroke="#63b8ff" points="396.54,-84.7 395.48,-74.16 389.74,-83.06 396.54,-84.7"/>
</a>
</g>
</g>
</g>
</svg>

<g id="navigator" transform="translate(0 0)" fill="#404254">
  <rect fill="#f2f5e9" fill-opacity="0.5" stroke="#606060" stroke-width=".5" x="0" y="0" width="60" height="60"/>
  <use id="zoomplus" xlink:href="#zoomPlus" x="17" y="9" onmousedown="handleZoom(evt,'in')"/>
  <use id="zoomminus" xlink:href="#zoomMin" x="42" y="9" onmousedown="handleZoom(evt,'out')"/>
  <use id="reset" xlink:href="#resetDef" x="30" y="36" onmousedown="handleReset()"/>
   <use id="arrowup" xlink:href="#arrowUp" x="0" y="0" onmousedown="handlePan(0,-1)"/>
  <use id="arrowright" xlink:href="#arrowRight" x="0" y="0" onmousedown="handlePan(1,0)"/>
  <use id="arrowdown" xlink:href="#arrowDown" x="0" y="0" onmousedown="handlePan(0,1)"/>
  <use id="arrowleft" xlink:href="#arrowLeft" x="0" y="0" onmousedown="handlePan(-1,0)"/>
</g>
<svg viewBox="0 0 15 15" width="100%" height="30px" preserveAspectRatio="xMaxYMin meet">
 <g id="arrow_out" transform="scale(0.3 0.3)">
  <a xlink:href="optimize_8c__incl_org.svg" target="_base">
   <rect id="button" ry="5" rx="5" y="6" x="6" height="38" width="38"
        fill="#f2f5e9" fill-opacity="0.5" stroke="#606060" stroke-width="1.0"/>
   <path id="arrow"
     d="M 11.500037,31.436501 C 11.940474,20.09759 22.043105,11.32322 32.158766,21.979434 L 37.068811,17.246167 C 37.068811,17.246167 37.088388,32 37.088388,32 L 22.160133,31.978069 C 22.160133,31.978069 26.997745,27.140456 26.997745,27.140456 C 18.528582,18.264221 13.291696,25.230495 11.500037,31.436501 z"
     style="fill:#404040;"/>
  </a>
 </g>
</svg>

<style type='text/css'>
<![CDATA[
[data-mouse-over-selected='false'] { opacity: 0.7; }
[data-mouse-over-selected='true']  { opacity: 1.0; }
]]>
</style>
<script type="application/ecmascript"><![CDATA[
document.addEventListener('DOMContentLoaded', (event) => {
  highlightEdges();
  highlightAdjacentNodes();
});
]]></script>
</svg>
