<?xml version="1.0" encoding="UTF-8" standalone="no"?>
<!DOCTYPE svg PUBLIC "-//W3C//DTD SVG 1.1//EN"
 "http://www.w3.org/Graphics/SVG/1.1/DTD/svg11.dtd">
<!-- Generated by graphviz version 2.43.0 (0)
 -->
<!-- Title: lmmc/precond.h Pages: 1 -->
<svg width="412pt" height="170pt"
 viewBox="0.00 0.00 412.00 170.00" xmlns="http://www.w3.org/2000/svg" xmlns:xlink="http://www.w3.org/1999/xlink">

<svg id="main" version="1.1" xmlns="http://www.w3.org/2000/svg" xmlns:xlink="http://www.w3.org/1999/xlink" xml:space="preserve" onload="init(evt)">
<style type="text/css"><![CDATA[
.node, .edge {opacity: 0.7;}
.node.selected, .edge.selected {opacity: 1;}
.edge:hover path { stroke: red; }
.edge:hover polygon { stroke: red; fill: red; }
]]></style>
<script type="application/ecmascript" xlink:href="svg.min.js"/>
<svg id="graph" class="graph">
<g id="graph0" class="graph" transform="scale(1 1) rotate(0) translate(4 166)">
<title>lmmc/precond.h</title>
<!-- Node1 -->
<g id="Node000001" class="node">
<title>Node1</title>
<g id="a_Node000001"><a xlink:title="迭代求解器使用的预处理子接口。">
<polygon fill="#999999" stroke="#666666" points="293.5,-162 198.5,-162 198.5,-143 293.5,-143 293.5,-162"/>
<text text-anchor="middle" x="246" y="-150" font-family="Helvetica,sans-Serif" font-size="10.00">lmmc/precond.h</text>
</a>
</g>
</g>
<!-- Node2 -->
<g id="Node000002" class="node">
<title>Node2</title>
<g id="a_Node000002"><a xlink:href="precond_8c.html" target="_top" xlink:title="迭代求解器使用的预处理子（Jacobi / ILU0 / ILUT）实现。">
<polygon fill="white" stroke="#666666" points="178.5,-107 35.5,-107 35.5,-77 178.5,-77 178.5,-107"/>
<text text-anchor="start" x="43.5" y="-95" font-family="Helvetica,sans-Serif" font-size="10.00">/home/runner/work/docs</text>
<text text-anchor="middle" x="107" y="-84" font-family="Helvetica,sans-Serif" font-size="10.00">/docs/LMMC/src/precond.c</text>
</a>
</g>
</g>
<!-- Node1&#45;&gt;Node2 -->
<g id="edge1_Node000001_Node000002" class="edge">
<title>Node1&#45;&gt;Node2</title>
<g id="a_edge1_Node000001_Node000002"><a xlink:title=" ">
<path fill="none" stroke="#63b8ff" d="M216.49,-139.08C194.21,-129.7 163.6,-116.82 140.42,-107.06"/>
<polygon fill="#63b8ff" stroke="#63b8ff" points="215.21,-142.34 225.79,-142.99 217.93,-135.89 215.21,-142.34"/>
</a>
</g>
</g>
<!-- Node3 -->
<g id="Node000003" class="node">
<title>Node3</title>
<g id="a_Node000003"><a xlink:href="itersolve_8h.html" target="_top" xlink:title="稀疏线性系统的迭代求解器（CG / BiCGSTAB / GMRES / MINRES / LSQR）。">
<polygon fill="white" stroke="#666666" points="295.5,-101.5 196.5,-101.5 196.5,-82.5 295.5,-82.5 295.5,-101.5"/>
<text text-anchor="middle" x="246" y="-89.5" font-family="Helvetica,sans-Serif" font-size="10.00">lmmc/itersolve.h</text>
</a>
</g>
</g>
<!-- Node1&#45;&gt;Node3 -->
<g id="edge2_Node000001_Node000003" class="edge">
<title>Node1&#45;&gt;Node3</title>
<g id="a_edge2_Node000001_Node000003"><a xlink:title=" ">
<path fill="none" stroke="#63b8ff" d="M246,-132.66C246,-122.24 246,-109.8 246,-101.67"/>
<polygon fill="#63b8ff" stroke="#63b8ff" points="242.5,-132.87 246,-142.87 249.5,-132.87 242.5,-132.87"/>
</a>
</g>
</g>
<!-- Node6 -->
<g id="Node000006" class="node">
<title>Node6</title>
<g id="a_Node000006"><a xlink:href="lmmc_8h.html" target="_top" xlink:title="LMMC 总入口头文件，聚合所有公共子模块。">
<polygon fill="white" stroke="#666666" points="404,-30 320,-30 320,-11 404,-11 404,-30"/>
<text text-anchor="middle" x="362" y="-18" font-family="Helvetica,sans-Serif" font-size="10.00">lmmc/lmmc.h</text>
</a>
</g>
</g>
<!-- Node1&#45;&gt;Node6 -->
<g id="edge6_Node000001_Node000006" class="edge">
<title>Node1&#45;&gt;Node6</title>
<g id="a_edge6_Node000001_Node000006"><a xlink:title=" ">
<path fill="none" stroke="#63b8ff" d="M268.54,-137.19C280.19,-129.15 294.2,-118.45 305,-107 328.51,-82.09 348.82,-46.45 357.5,-30.19"/>
<polygon fill="#63b8ff" stroke="#63b8ff" points="266.54,-134.31 260.18,-142.78 270.44,-140.13 266.54,-134.31"/>
</a>
</g>
</g>
<!-- Node4 -->
<g id="Node000004" class="node">
<title>Node4</title>
<g id="a_Node000004"><a xlink:href="itersolve_8c.html" target="_top" xlink:title="稀疏迭代求解器实现：CG / BiCGSTAB / GMRES。">
<polygon fill="white" stroke="#666666" points="146,-35.5 0,-35.5 0,-5.5 146,-5.5 146,-35.5"/>
<text text-anchor="start" x="8" y="-23.5" font-family="Helvetica,sans-Serif" font-size="10.00">/home/runner/work/docs</text>
<text text-anchor="middle" x="73" y="-12.5" font-family="Helvetica,sans-Serif" font-size="10.00">/docs/LMMC/src/itersolve.c</text>
</a>
</g>
</g>
<!-- Node3&#45;&gt;Node4 -->
<g id="edge3_Node000003_Node000004" class="edge">
<title>Node3&#45;&gt;Node4</title>
<g id="a_edge3_Node000003_Node000004"><a xlink:title=" ">
<path fill="none" stroke="#63b8ff" d="M215.22,-78.63C185.11,-66.54 139.31,-48.14 107.87,-35.51"/>
<polygon fill="#63b8ff" stroke="#63b8ff" points="214.2,-82 224.79,-82.48 216.81,-75.5 214.2,-82"/>
</a>
</g>
</g>
<!-- Node5 -->
<g id="Node000005" class="node">
<title>Node5</title>
<g id="a_Node000005"><a xlink:href="itersolve__minres__lsqr_8c.html" target="_top" xlink:title=" ">
<polygon fill="white" stroke="#666666" points="302,-41 164,-41 164,0 302,0 302,-41"/>
<text text-anchor="start" x="172" y="-29" font-family="Helvetica,sans-Serif" font-size="10.00">/home/runner/work/docs</text>
<text text-anchor="start" x="172" y="-18" font-family="Helvetica,sans-Serif" font-size="10.00">/docs/LMMC/src/itersolve</text>
<text text-anchor="middle" x="233" y="-7" font-family="Helvetica,sans-Serif" font-size="10.00">_minres_lsqr.c</text>
</a>
</g>
</g>
<!-- Node3&#45;&gt;Node5 -->
<g id="edge4_Node000003_Node000005" class="edge">
<title>Node3&#45;&gt;Node5</title>
<g id="a_edge4_Node000003_Node000005"><a xlink:title=" ">
<path fill="none" stroke="#63b8ff" d="M242.52,-72.38C240.71,-62.74 238.51,-50.96 236.68,-41.17"/>
<polygon fill="#63b8ff" stroke="#63b8ff" points="239.13,-73.29 244.41,-82.48 246.01,-72 239.13,-73.29"/>
</a>
</g>
</g>
<!-- Node3&#45;&gt;Node6 -->
<g id="edge5_Node000003_Node000006" class="edge">
<title>Node3&#45;&gt;Node6</title>
<g id="a_edge5_Node000003_Node000006"><a xlink:title=" ">
<path fill="none" stroke="#63b8ff" d="M268.83,-77.32C292.25,-63.29 327.94,-41.91 347.66,-30.09"/>
<polygon fill="#63b8ff" stroke="#63b8ff" points="267,-74.34 260.22,-82.48 270.6,-80.34 267,-74.34"/>
</a>
</g>
</g>
</g>
</svg>
</svg>

<style type='text/css'>
<![CDATA[
[data-mouse-over-selected='false'] { opacity: 0.7; }
[data-mouse-over-selected='true']  { opacity: 1.0; }
]]>
</style>
<script type="application/ecmascript"><![CDATA[
document.addEventListener('DOMContentLoaded', (event) => {
  highlightEdges();
  highlightAdjacentNodes();
});
]]></script>
</svg>
