<?xml version="1.0" encoding="UTF-8" standalone="no"?>
<!DOCTYPE svg PUBLIC "-//W3C//DTD SVG 1.1//EN"
 "http://www.w3.org/Graphics/SVG/1.1/DTD/svg11.dtd">
<!-- Generated by graphviz version 2.43.0 (0)
 -->
<!-- Title: lmmc/quadrature.h Pages: 1 -->
<svg width="268pt" height="93pt"
 viewBox="0.00 0.00 267.50 93.00" xmlns="http://www.w3.org/2000/svg" xmlns:xlink="http://www.w3.org/1999/xlink">
<g id="graph0" class="graph" transform="scale(1 1) rotate(0) translate(4 89)">
<title>lmmc/quadrature.h</title>
<!-- Node1 -->
<g id="Node000001" class="node">
<title>Node1</title>
<g id="a_Node000001"><a xlink:title="一元数值积分：梯形、Simpson、Gauss&#45;Legendre、自适应 Simpson。">
<polygon fill="#999999" stroke="#666666" points="202.5,-85 92.5,-85 92.5,-66 202.5,-66 202.5,-85"/>
<text text-anchor="middle" x="147.5" y="-73" font-family="Helvetica,sans-Serif" font-size="10.00">lmmc/quadrature.h</text>
</a>
</g>
</g>
<!-- Node2 -->
<g id="Node000002" class="node">
<title>Node2</title>
<g id="a_Node000002"><a xlink:href="quadrature_8c.html" target="_top" xlink:title="一元数值积分实现：梯形、Simpson、Gauss、自适应、Romberg、Tanh&#45;Sinh、Gauss&#45;Hermite、Gauss&#45;Laguerre。">
<polygon fill="white" stroke="#666666" points="157,-30 0,-30 0,0 157,0 157,-30"/>
<text text-anchor="start" x="8" y="-18" font-family="Helvetica,sans-Serif" font-size="10.00">/home/runner/work/docs</text>
<text text-anchor="middle" x="78.5" y="-7" font-family="Helvetica,sans-Serif" font-size="10.00">/docs/LMMC/src/quadrature.c</text>
</a>
</g>
</g>
<!-- Node1&#45;&gt;Node2 -->
<g id="edge1_Node000001_Node000002" class="edge">
<title>Node1&#45;&gt;Node2</title>
<g id="a_edge1_Node000001_Node000002"><a xlink:title=" ">
<path fill="none" stroke="#63b8ff" d="M129.49,-59.23C118.87,-50.23 105.52,-38.91 95.15,-30.11"/>
<polygon fill="#63b8ff" stroke="#63b8ff" points="127.43,-62.07 137.32,-65.87 131.95,-56.73 127.43,-62.07"/>
</a>
</g>
</g>
<!-- Node3 -->
<g id="Node000003" class="node">
<title>Node3</title>
<g id="a_Node000003"><a xlink:href="lmmc_8h.html" target="_top" xlink:title="LMMC 总入口头文件，聚合所有公共子模块。">
<polygon fill="white" stroke="#666666" points="259.5,-24.5 175.5,-24.5 175.5,-5.5 259.5,-5.5 259.5,-24.5"/>
<text text-anchor="middle" x="217.5" y="-12.5" font-family="Helvetica,sans-Serif" font-size="10.00">lmmc/lmmc.h</text>
</a>
</g>
</g>
<!-- Node1&#45;&gt;Node3 -->
<g id="edge2_Node000001_Node000003" class="edge">
<title>Node1&#45;&gt;Node3</title>
<g id="a_edge2_Node000001_Node000003"><a xlink:title=" ">
<path fill="none" stroke="#63b8ff" d="M165.78,-59.22C178.95,-48.21 196.26,-33.75 207.13,-24.67"/>
<polygon fill="#63b8ff" stroke="#63b8ff" points="163.26,-56.77 157.83,-65.87 167.75,-62.14 163.26,-56.77"/>
</a>
</g>
</g>
</g>
</svg>
