<?xml version="1.0" encoding="UTF-8" standalone="no"?>
<!DOCTYPE svg PUBLIC "-//W3C//DTD SVG 1.1//EN"
 "http://www.w3.org/Graphics/SVG/1.1/DTD/svg11.dtd">
<!-- Generated by graphviz version 2.43.0 (0)
 -->
<!-- Title: lmmc_rng_chi_squared Pages: 1 -->
<svg width="289pt" height="64pt"
 viewBox="0.00 0.00 289.00 64.00" xmlns="http://www.w3.org/2000/svg" xmlns:xlink="http://www.w3.org/1999/xlink">
<g id="graph0" class="graph" transform="scale(1 1) rotate(0) translate(4 60)">
<title>lmmc_rng_chi_squared</title>
<!-- Node1 -->
<g id="Node000001" class="node">
<title>Node1</title>
<g id="a_Node000001"><a xlink:title="生成卡方分布样本 Chi&#45;squared(df)。">
<polygon fill="#999999" stroke="#666666" points="281,-37 152,-37 152,-18 281,-18 281,-37"/>
<text text-anchor="middle" x="216.5" y="-25" font-family="Helvetica,sans-Serif" font-size="10.00">lmmc_rng_chi_squared</text>
</a>
</g>
</g>
<!-- Node2 -->
<g id="Node000002" class="node">
<title>Node2</title>
<g id="a_Node000002"><a xlink:href="random_8c.html#aa592dfda4aba30e69de7ebf560863479" target="_top" xlink:title="生成 F 分布样本 F(df1, df2)。">
<polygon fill="white" stroke="#666666" points="95,-56 21,-56 21,-37 95,-37 95,-56"/>
<text text-anchor="middle" x="58" y="-44" font-family="Helvetica,sans-Serif" font-size="10.00">lmmc_rng_f</text>
</a>
</g>
</g>
<!-- Node1&#45;&gt;Node2 -->
<g id="edge1_Node000001_Node000002" class="edge">
<title>Node1&#45;&gt;Node2</title>
<g id="a_edge1_Node000001_Node000002"><a xlink:title=" ">
<path fill="none" stroke="#63b8ff" d="M141.81,-36.45C125.61,-38.41 109.14,-40.41 95.2,-42.11"/>
<polygon fill="#63b8ff" stroke="#63b8ff" points="142.34,-39.91 151.85,-35.23 141.5,-32.96 142.34,-39.91"/>
</a>
</g>
</g>
<!-- Node3 -->
<g id="Node000003" class="node">
<title>Node3</title>
<g id="a_Node000003"><a xlink:href="random_8c.html#a57f9bb43e7846e3bd71ea2c656ddb38c" target="_top" xlink:title="生成 Student&#45;t 分布样本 t(df)。">
<polygon fill="white" stroke="#666666" points="116,-19 0,-19 0,0 116,0 116,-19"/>
<text text-anchor="middle" x="58" y="-7" font-family="Helvetica,sans-Serif" font-size="10.00">lmmc_rng_student_t</text>
</a>
</g>
</g>
<!-- Node1&#45;&gt;Node3 -->
<g id="edge2_Node000001_Node000003" class="edge">
<title>Node1&#45;&gt;Node3</title>
<g id="a_edge2_Node000001_Node000003"><a xlink:title=" ">
<path fill="none" stroke="#63b8ff" d="M141.76,-19.02C133.13,-18.03 124.42,-17.02 116.05,-16.06"/>
<polygon fill="#63b8ff" stroke="#63b8ff" points="141.51,-22.51 151.85,-20.18 142.31,-15.56 141.51,-22.51"/>
</a>
</g>
</g>
</g>
</svg>
