<?xml version="1.0" encoding="UTF-8" standalone="no"?>
<!DOCTYPE svg PUBLIC "-//W3C//DTD SVG 1.1//EN"
 "http://www.w3.org/Graphics/SVG/1.1/DTD/svg11.dtd">
<!-- Generated by graphviz version 2.43.0 (0)
 -->
<!-- Title: lmmc_sparse_chol_symbolic Pages: 1 -->
<svg width="350pt" height="64pt"
 viewBox="0.00 0.00 350.00 64.00" xmlns="http://www.w3.org/2000/svg" xmlns:xlink="http://www.w3.org/1999/xlink">
<g id="graph0" class="graph" transform="scale(1 1) rotate(0) translate(4 60)">
<title>lmmc_sparse_chol_symbolic</title>
<!-- Node1 -->
<g id="Node000001" class="node">
<title>Node1</title>
<g id="a_Node000001"><a xlink:title="稀疏 Cholesky 符号分析。">
<polygon fill="#999999" stroke="#666666" points="157,-37 0,-37 0,-18 157,-18 157,-37"/>
<text text-anchor="middle" x="78.5" y="-25" font-family="Helvetica,sans-Serif" font-size="10.00">lmmc_sparse_chol_symbolic</text>
</a>
</g>
</g>
<!-- Node2 -->
<g id="Node000002" class="node">
<title>Node2</title>
<g id="a_Node000002"><a xlink:href="sparse__direct_8c.html#ac6f74160650233a6aadbe9a98f45ac53" target="_top" xlink:title="销毁稀疏 Cholesky 上下文。">
<polygon fill="white" stroke="#666666" points="342,-56 193,-56 193,-37 342,-37 342,-56"/>
<text text-anchor="middle" x="267.5" y="-44" font-family="Helvetica,sans-Serif" font-size="10.00">lmmc_sparse_chol_destroy</text>
</a>
</g>
</g>
<!-- Node1&#45;&gt;Node2 -->
<g id="edge1_Node000001_Node000002" class="edge">
<title>Node1&#45;&gt;Node2</title>
<g id="a_edge1_Node000001_Node000002"><a xlink:title=" ">
<path fill="none" stroke="#63b8ff" d="M157.18,-35.39C165.69,-36.26 174.38,-37.14 182.96,-38.01"/>
<polygon fill="#63b8ff" stroke="#63b8ff" points="182.66,-41.5 192.96,-39.03 183.36,-34.53 182.66,-41.5"/>
</a>
</g>
</g>
<!-- Node3 -->
<g id="Node000003" class="node">
<title>Node3</title>
<g id="a_Node000003"><a xlink:href="sparse_8c.html#a83123a9cca994cead31746b6e9d962ca" target="_top" xlink:title="销毁稀疏矩阵，释放其拥有的底层缓冲区。">
<polygon fill="white" stroke="#666666" points="329.5,-19 205.5,-19 205.5,0 329.5,0 329.5,-19"/>
<text text-anchor="middle" x="267.5" y="-7" font-family="Helvetica,sans-Serif" font-size="10.00">lmmc_sparse_destroy</text>
</a>
</g>
</g>
<!-- Node1&#45;&gt;Node3 -->
<g id="edge2_Node000001_Node000003" class="edge">
<title>Node1&#45;&gt;Node3</title>
<g id="a_edge2_Node000001_Node000003"><a xlink:title=" ">
<path fill="none" stroke="#63b8ff" d="M157.18,-20.02C169.72,-18.82 182.66,-17.57 195.05,-16.38"/>
<polygon fill="#63b8ff" stroke="#63b8ff" points="195.68,-19.83 205.3,-15.39 195.01,-12.87 195.68,-19.83"/>
</a>
</g>
</g>
</g>
</svg>
