<?xml version="1.0" encoding="UTF-8" standalone="no"?>
<!DOCTYPE svg PUBLIC "-//W3C//DTD SVG 1.1//EN"
 "http://www.w3.org/Graphics/SVG/1.1/DTD/svg11.dtd">
<!-- Generated by graphviz version 2.43.0 (0)
 -->
<!-- Title: lmmc_sparse_mat_vec_mul Pages: 1 -->
<svg width="319pt" height="101pt"
 viewBox="0.00 0.00 319.00 101.00" xmlns="http://www.w3.org/2000/svg" xmlns:xlink="http://www.w3.org/1999/xlink">
<g id="graph0" class="graph" transform="scale(1 1) rotate(0) translate(4 97)">
<title>lmmc_sparse_mat_vec_mul</title>
<!-- Node1 -->
<g id="Node000001" class="node">
<title>Node1</title>
<g id="a_Node000001"><a xlink:title="稀疏矩阵&#45;稠密向量乘法：y = A * x。">
<polygon fill="#999999" stroke="#666666" points="311,-56 158,-56 158,-37 311,-37 311,-56"/>
<text text-anchor="middle" x="234.5" y="-44" font-family="Helvetica,sans-Serif" font-size="10.00">lmmc_sparse_mat_vec_mul</text>
</a>
</g>
</g>
<!-- Node2 -->
<g id="Node000002" class="node">
<title>Node2</title>
<g id="a_Node000002"><a xlink:href="itersolve_8c.html#ae2e84a40cba8627963f842c9e8ad819f" target="_top" xlink:title="稳定双共轭梯度法（BiCGSTAB）求解一般非对称稀疏系统 A*x = b。">
<polygon fill="white" stroke="#666666" points="122,-93 0,-93 0,-74 122,-74 122,-93"/>
<text text-anchor="middle" x="61" y="-81" font-family="Helvetica,sans-Serif" font-size="10.00">lmmc_bicgstab_solve</text>
</a>
</g>
</g>
<!-- Node1&#45;&gt;Node2 -->
<g id="edge1_Node000001_Node000002" class="edge">
<title>Node1&#45;&gt;Node2</title>
<g id="a_edge1_Node000001_Node000002"><a xlink:title=" ">
<path fill="none" stroke="#63b8ff" d="M179.49,-58.15C155.93,-63.23 128.65,-69.12 106.31,-73.94"/>
<polygon fill="#63b8ff" stroke="#63b8ff" points="180.3,-61.56 189.33,-56.03 178.82,-54.72 180.3,-61.56"/>
</a>
</g>
</g>
<!-- Node3 -->
<g id="Node000003" class="node">
<title>Node3</title>
<g id="a_Node000003"><a xlink:href="itersolve_8c.html#aba3cf403ebcc77de7d1922680a602188" target="_top" xlink:title="共轭梯度法（CG）求解对称正定稀疏系统 A*x = b。">
<polygon fill="white" stroke="#666666" points="107,-56 15,-56 15,-37 107,-37 107,-56"/>
<text text-anchor="middle" x="61" y="-44" font-family="Helvetica,sans-Serif" font-size="10.00">lmmc_cg_solve</text>
</a>
</g>
</g>
<!-- Node1&#45;&gt;Node3 -->
<g id="edge2_Node000001_Node000003" class="edge">
<title>Node1&#45;&gt;Node3</title>
<g id="a_edge2_Node000001_Node000003"><a xlink:title=" ">
<path fill="none" stroke="#63b8ff" d="M147.64,-46.5C133.69,-46.5 119.75,-46.5 107.28,-46.5"/>
<polygon fill="#63b8ff" stroke="#63b8ff" points="147.78,-50 157.78,-46.5 147.78,-43 147.78,-50"/>
</a>
</g>
</g>
<!-- Node4 -->
<g id="Node000004" class="node">
<title>Node4</title>
<g id="a_Node000004"><a xlink:href="itersolve_8c.html#a3df10113a11ad318d373d414d28f917b" target="_top" xlink:title="重启型 GMRES 求解一般非对称稀疏系统 A*x = b。">
<polygon fill="white" stroke="#666666" points="117,-19 5,-19 5,0 117,0 117,-19"/>
<text text-anchor="middle" x="61" y="-7" font-family="Helvetica,sans-Serif" font-size="10.00">lmmc_gmres_solve</text>
</a>
</g>
</g>
<!-- Node1&#45;&gt;Node4 -->
<g id="edge3_Node000001_Node000004" class="edge">
<title>Node1&#45;&gt;Node4</title>
<g id="a_edge3_Node000001_Node000004"><a xlink:title=" ">
<path fill="none" stroke="#63b8ff" d="M179.49,-34.85C155.93,-29.77 128.65,-23.88 106.31,-19.06"/>
<polygon fill="#63b8ff" stroke="#63b8ff" points="178.82,-38.28 189.33,-36.97 180.3,-31.44 178.82,-38.28"/>
</a>
</g>
</g>
</g>
</svg>
