<?xml version="1.0" encoding="UTF-8" standalone="no"?>
<!DOCTYPE svg PUBLIC "-//W3C//DTD SVG 1.1//EN"
 "http://www.w3.org/Graphics/SVG/1.1/DTD/svg11.dtd">
<!-- Generated by graphviz version 2.43.0 (0)
 -->
<!-- Title: lmmc/sparse.h Pages: 1 -->
<!--zoomable 247 -->

<svg id="main" version="1.1" xmlns="http://www.w3.org/2000/svg" xmlns:xlink="http://www.w3.org/1999/xlink" xml:space="preserve" onload="init(evt)">
<style type="text/css"><![CDATA[
.node, .edge {opacity: 0.7;}
.node.selected, .edge.selected {opacity: 1;}
.edge:hover path { stroke: red; }
.edge:hover polygon { stroke: red; fill: red; }
]]></style>

<defs>
  <circle id="rim" cx="0" cy="0" r="7"/>
  <circle id="rim2" cx="0" cy="0" r="3.5"/>
  <g id="zoomPlus">
    <use xlink:href="#rim" fill="#404040"><set attributeName="fill" to="#808080" begin="zoomplus.mouseover" end="zoomplus.mouseout"/></use>
    <path d="M-4,0h8M0,-4v8" fill="none" stroke="white" stroke-width="1.5" pointer-events="none"/>
  </g>
  <g id="zoomMin">
    <use xlink:href="#rim" fill="#404040"><set attributeName="fill" to="#808080" begin="zoomminus.mouseover" end="zoomminus.mouseout"/></use>
    <path d="M-4,0h8" fill="none" stroke="white" stroke-width="1.5" pointer-events="none"/>
  </g>
  <g id="arrowUp" transform="translate(30 24)">
    <use xlink:href="#rim"/>
    <path pointer-events="none" fill="none" stroke="white" stroke-width="1.5" d="M0,-3.0v7 M-2.5,-0.5L0,-3.0L2.5,-0.5"/>
  </g>
  <g id="arrowRight" transform="rotate(90) translate(36 -43)">
    <use xlink:href="#rim"/>
    <path pointer-events="none" fill="none" stroke="white" stroke-width="1.5" d="M0,-3.0v7 M-2.5,-0.5L0,-3.0L2.5,-0.5"/>
  </g>
  <g id="arrowDown" transform="rotate(180) translate(-30 -48)">
    <use xlink:href="#rim"/>
    <path pointer-events="none" fill="none" stroke="white" stroke-width="1.5" d="M0,-3.0v7 M-2.5,-0.5L0,-3.0L2.5,-0.5"/>
  </g>
  <g id="arrowLeft" transform="rotate(270) translate(-36 17)">
    <use xlink:href="#rim"/>
    <path pointer-events="none" fill="none" stroke="white" stroke-width="1.5" d="M0,-3.0v7 M-2.5,-0.5L0,-3.0L2.5,-0.5"/>
  </g>
  <g id="resetDef">
    <use xlink:href="#rim2" fill="#404040"><set attributeName="fill" to="#808080" begin="reset.mouseover" end="reset.mouseout"/></use>
  </g>
</defs>
<script type="application/ecmascript">
var viewWidth = 580;
var viewHeight = 247;
var sectionId = 'dynsection-1';
</script>
<script type="application/ecmascript" xlink:href="svg.min.js"/>
<svg id="graph" class="graph">
<g id="viewport">
<title>lmmc/sparse.h</title>
<!-- Node1 -->
<g id="Node000001" class="node">
<title>Node1</title>
<g id="a_Node000001"><a xlink:title="稀疏矩阵数据结构、构造器与基本运算。">
<polygon fill="#999999" stroke="#666666" points="360.5,-239 271.5,-239 271.5,-220 360.5,-220 360.5,-239"/>
<text text-anchor="middle" x="316" y="-227" font-family="Helvetica,sans-Serif" font-size="10.00">lmmc/sparse.h</text>
</a>
</g>
</g>
<!-- Node2 -->
<g id="Node000002" class="node">
<title>Node2</title>
<g id="a_Node000002"><a xlink:href="sparse_8c.html" target="_top" xlink:title="稀疏矩阵存储、构造器与基本运算实现。">
<polygon fill="white" stroke="#666666" points="136,-178.5 0,-178.5 0,-148.5 136,-148.5 136,-178.5"/>
<text text-anchor="start" x="8" y="-166.5" font-family="Helvetica,sans-Serif" font-size="10.00">/home/runner/work/docs</text>
<text text-anchor="middle" x="68" y="-155.5" font-family="Helvetica,sans-Serif" font-size="10.00">/docs/LMMC/src/sparse.c</text>
</a>
</g>
</g>
<!-- Node1&#45;&gt;Node2 -->
<g id="edge1_Node000001_Node000002" class="edge">
<title>Node1&#45;&gt;Node2</title>
<g id="a_edge1_Node000001_Node000002"><a xlink:title=" ">
<path fill="none" stroke="#63b8ff" d="M272.94,-217.39C231.16,-206.6 167.59,-190.2 122.35,-178.52"/>
<polygon fill="#63b8ff" stroke="#63b8ff" points="272.25,-220.83 282.81,-219.94 274,-214.05 272.25,-220.83"/>
</a>
</g>
</g>
<!-- Node3 -->
<g id="Node000003" class="node">
<title>Node3</title>
<g id="a_Node000003"><a xlink:href="sparse__direct_8c.html" target="_top" xlink:title=" ">
<polygon fill="white" stroke="#666666" points="288,-184 154,-184 154,-143 288,-143 288,-184"/>
<text text-anchor="start" x="162" y="-172" font-family="Helvetica,sans-Serif" font-size="10.00">/home/runner/work/docs</text>
<text text-anchor="start" x="162" y="-161" font-family="Helvetica,sans-Serif" font-size="10.00">/docs/LMMC/src/sparse</text>
<text text-anchor="middle" x="221" y="-150" font-family="Helvetica,sans-Serif" font-size="10.00">_direct.c</text>
</a>
</g>
</g>
<!-- Node1&#45;&gt;Node3 -->
<g id="edge2_Node000001_Node000003" class="edge">
<title>Node1&#45;&gt;Node3</title>
<g id="a_edge2_Node000001_Node000003"><a xlink:title=" ">
<path fill="none" stroke="#63b8ff" d="M294.76,-214.19C281.55,-205.29 264.4,-193.74 249.96,-184.01"/>
<polygon fill="#63b8ff" stroke="#63b8ff" points="292.94,-217.18 303.19,-219.87 296.85,-211.38 292.94,-217.18"/>
</a>
</g>
</g>
<!-- Node4 -->
<g id="Node000004" class="node">
<title>Node4</title>
<g id="a_Node000004"><a xlink:href="itersolve_8h.html" target="_top" xlink:title="稀疏线性系统的迭代求解器（CG / BiCGSTAB / GMRES / MINRES / LSQR）。">
<polygon fill="white" stroke="#666666" points="325.5,-101.5 226.5,-101.5 226.5,-82.5 325.5,-82.5 325.5,-101.5"/>
<text text-anchor="middle" x="276" y="-89.5" font-family="Helvetica,sans-Serif" font-size="10.00">lmmc/itersolve.h</text>
</a>
</g>
</g>
<!-- Node1&#45;&gt;Node4 -->
<g id="edge3_Node000001_Node000004" class="edge">
<title>Node1&#45;&gt;Node4</title>
<g id="a_edge3_Node000001_Node000004"><a xlink:title=" ">
<path fill="none" stroke="#63b8ff" d="M312.85,-209.85C309.67,-192.36 304.19,-165.58 297,-143 292.26,-128.11 284.84,-111.5 280.2,-101.67"/>
<polygon fill="#63b8ff" stroke="#63b8ff" points="309.43,-210.63 314.61,-219.87 316.33,-209.42 309.43,-210.63"/>
</a>
</g>
</g>
<!-- Node7 -->
<g id="Node000007" class="node">
<title>Node7</title>
<g id="a_Node000007"><a xlink:href="lmmc_8h.html" target="_top" xlink:title="LMMC 总入口头文件，聚合所有公共子模块。">
<polygon fill="white" stroke="#666666" points="442,-30 358,-30 358,-11 442,-11 442,-30"/>
<text text-anchor="middle" x="400" y="-18" font-family="Helvetica,sans-Serif" font-size="10.00">lmmc/lmmc.h</text>
</a>
</g>
</g>
<!-- Node1&#45;&gt;Node7 -->
<g id="edge7_Node000001_Node000007" class="edge">
<title>Node1&#45;&gt;Node7</title>
<g id="a_edge7_Node000001_Node000007"><a xlink:title=" ">
<path fill="none" stroke="#63b8ff" d="M323.33,-210.44C340.7,-167.63 383.86,-61.26 396.48,-30.17"/>
<polygon fill="#63b8ff" stroke="#63b8ff" points="320.02,-209.29 319.5,-219.87 326.51,-211.92 320.02,-209.29"/>
</a>
</g>
</g>
<!-- Node8 -->
<g id="Node000008" class="node">
<title>Node8</title>
<g id="a_Node000008"><a xlink:href="precond_8h.html" target="_top" xlink:title="迭代求解器使用的预处理子接口。">
<polygon fill="white" stroke="#666666" points="477.5,-173 382.5,-173 382.5,-154 477.5,-154 477.5,-173"/>
<text text-anchor="middle" x="430" y="-161" font-family="Helvetica,sans-Serif" font-size="10.00">lmmc/precond.h</text>
</a>
</g>
</g>
<!-- Node1&#45;&gt;Node8 -->
<g id="edge8_Node000001_Node000008" class="edge">
<title>Node1&#45;&gt;Node8</title>
<g id="a_edge8_Node000001_Node000008"><a xlink:title=" ">
<path fill="none" stroke="#63b8ff" d="M340.3,-214.86C362.74,-202.26 395.41,-183.92 414.5,-173.2"/>
<polygon fill="#63b8ff" stroke="#63b8ff" points="338.38,-211.92 331.37,-219.87 341.81,-218.03 338.38,-211.92"/>
</a>
</g>
</g>
<!-- Node5 -->
<g id="Node000005" class="node">
<title>Node5</title>
<g id="a_Node000005"><a xlink:href="itersolve_8c.html" target="_top" xlink:title="稀疏迭代求解器实现：CG / BiCGSTAB / GMRES。">
<polygon fill="white" stroke="#666666" points="340,-35.5 194,-35.5 194,-5.5 340,-5.5 340,-35.5"/>
<text text-anchor="start" x="202" y="-23.5" font-family="Helvetica,sans-Serif" font-size="10.00">/home/runner/work/docs</text>
<text text-anchor="middle" x="267" y="-12.5" font-family="Helvetica,sans-Serif" font-size="10.00">/docs/LMMC/src/itersolve.c</text>
</a>
</g>
</g>
<!-- Node4&#45;&gt;Node5 -->
<g id="edge4_Node000004_Node000005" class="edge">
<title>Node4&#45;&gt;Node5</title>
<g id="a_edge4_Node000004_Node000005"><a xlink:title=" ">
<path fill="none" stroke="#63b8ff" d="M273.57,-72.21C272.08,-60.69 270.2,-46.18 268.83,-35.64"/>
<polygon fill="#63b8ff" stroke="#63b8ff" points="270.14,-73.01 274.9,-82.48 277.08,-72.11 270.14,-73.01"/>
</a>
</g>
</g>
<!-- Node6 -->
<g id="Node000006" class="node">
<title>Node6</title>
<g id="a_Node000006"><a xlink:href="itersolve__minres__lsqr_8c.html" target="_top" xlink:title=" ">
<polygon fill="white" stroke="#666666" points="176,-41 38,-41 38,0 176,0 176,-41"/>
<text text-anchor="start" x="46" y="-29" font-family="Helvetica,sans-Serif" font-size="10.00">/home/runner/work/docs</text>
<text text-anchor="start" x="46" y="-18" font-family="Helvetica,sans-Serif" font-size="10.00">/docs/LMMC/src/itersolve</text>
<text text-anchor="middle" x="107" y="-7" font-family="Helvetica,sans-Serif" font-size="10.00">_minres_lsqr.c</text>
</a>
</g>
</g>
<!-- Node4&#45;&gt;Node6 -->
<g id="edge5_Node000004_Node000006" class="edge">
<title>Node4&#45;&gt;Node6</title>
<g id="a_edge5_Node000004_Node000006"><a xlink:title=" ">
<path fill="none" stroke="#63b8ff" d="M245.82,-78.59C220.46,-68.16 183.78,-53.07 154.48,-41.03"/>
<polygon fill="#63b8ff" stroke="#63b8ff" points="244.7,-81.91 255.28,-82.48 247.36,-75.44 244.7,-81.91"/>
</a>
</g>
</g>
<!-- Node4&#45;&gt;Node7 -->
<g id="edge6_Node000004_Node000007" class="edge">
<title>Node4&#45;&gt;Node7</title>
<g id="a_edge6_Node000004_Node000007"><a xlink:title=" ">
<path fill="none" stroke="#63b8ff" d="M300.08,-77.51C325.1,-63.48 363.5,-41.96 384.67,-30.09"/>
<polygon fill="#63b8ff" stroke="#63b8ff" points="298.22,-74.54 291.2,-82.48 301.64,-80.64 298.22,-74.54"/>
</a>
</g>
</g>
<!-- Node8&#45;&gt;Node4 -->
<g id="edge10_Node000008_Node000004" class="edge">
<title>Node8&#45;&gt;Node4</title>
<g id="a_edge10_Node000008_Node000004"><a xlink:title=" ">
<path fill="none" stroke="#63b8ff" d="M401.73,-149.74C370.71,-135.74 321.79,-113.67 295.04,-101.59"/>
<polygon fill="#63b8ff" stroke="#63b8ff" points="400.56,-153.05 411.12,-153.98 403.44,-146.67 400.56,-153.05"/>
</a>
</g>
</g>
<!-- Node8&#45;&gt;Node7 -->
<g id="edge11_Node000008_Node000007" class="edge">
<title>Node8&#45;&gt;Node7</title>
<g id="a_edge11_Node000008_Node000007"><a xlink:title=" ">
<path fill="none" stroke="#63b8ff" d="M426.02,-143.79C419.47,-113.02 406.67,-52.87 401.88,-30.32"/>
<polygon fill="#63b8ff" stroke="#63b8ff" points="422.62,-144.63 428.12,-153.68 429.47,-143.17 422.62,-144.63"/>
</a>
</g>
</g>
<!-- Node9 -->
<g id="Node000009" class="node">
<title>Node9</title>
<g id="a_Node000009"><a xlink:href="precond_8c.html" target="_top" xlink:title="迭代求解器使用的预处理子（Jacobi / ILU0 / ILUT）实现。">
<polygon fill="white" stroke="#666666" points="571.5,-107 428.5,-107 428.5,-77 571.5,-77 571.5,-107"/>
<text text-anchor="start" x="436.5" y="-95" font-family="Helvetica,sans-Serif" font-size="10.00">/home/runner/work/docs</text>
<text text-anchor="middle" x="500" y="-84" font-family="Helvetica,sans-Serif" font-size="10.00">/docs/LMMC/src/precond.c</text>
</a>
</g>
</g>
<!-- Node8&#45;&gt;Node9 -->
<g id="edge9_Node000008_Node000009" class="edge">
<title>Node8&#45;&gt;Node9</title>
<g id="a_edge9_Node000008_Node000009"><a xlink:title=" ">
<path fill="none" stroke="#63b8ff" d="M445.74,-146.87C457.75,-134.95 474.14,-118.67 485.76,-107.14"/>
<polygon fill="#63b8ff" stroke="#63b8ff" points="443.21,-144.45 438.58,-153.98 448.15,-149.42 443.21,-144.45"/>
</a>
</g>
</g>
</g>
</svg>

<g id="navigator" transform="translate(0 0)" fill="#404254">
  <rect fill="#f2f5e9" fill-opacity="0.5" stroke="#606060" stroke-width=".5" x="0" y="0" width="60" height="60"/>
  <use id="zoomplus" xlink:href="#zoomPlus" x="17" y="9" onmousedown="handleZoom(evt,'in')"/>
  <use id="zoomminus" xlink:href="#zoomMin" x="42" y="9" onmousedown="handleZoom(evt,'out')"/>
  <use id="reset" xlink:href="#resetDef" x="30" y="36" onmousedown="handleReset()"/>
   <use id="arrowup" xlink:href="#arrowUp" x="0" y="0" onmousedown="handlePan(0,-1)"/>
  <use id="arrowright" xlink:href="#arrowRight" x="0" y="0" onmousedown="handlePan(1,0)"/>
  <use id="arrowdown" xlink:href="#arrowDown" x="0" y="0" onmousedown="handlePan(0,1)"/>
  <use id="arrowleft" xlink:href="#arrowLeft" x="0" y="0" onmousedown="handlePan(-1,0)"/>
</g>
<svg viewBox="0 0 15 15" width="100%" height="30px" preserveAspectRatio="xMaxYMin meet">
 <g id="arrow_out" transform="scale(0.3 0.3)">
  <a xlink:href="sparse_8h__dep__incl_org.svg" target="_base">
   <rect id="button" ry="5" rx="5" y="6" x="6" height="38" width="38"
        fill="#f2f5e9" fill-opacity="0.5" stroke="#606060" stroke-width="1.0"/>
   <path id="arrow"
     d="M 11.500037,31.436501 C 11.940474,20.09759 22.043105,11.32322 32.158766,21.979434 L 37.068811,17.246167 C 37.068811,17.246167 37.088388,32 37.088388,32 L 22.160133,31.978069 C 22.160133,31.978069 26.997745,27.140456 26.997745,27.140456 C 18.528582,18.264221 13.291696,25.230495 11.500037,31.436501 z"
     style="fill:#404040;"/>
  </a>
 </g>
</svg>

<style type='text/css'>
<![CDATA[
[data-mouse-over-selected='false'] { opacity: 0.7; }
[data-mouse-over-selected='true']  { opacity: 1.0; }
]]>
</style>
<script type="application/ecmascript"><![CDATA[
document.addEventListener('DOMContentLoaded', (event) => {
  highlightEdges();
  highlightAdjacentNodes();
});
]]></script>
</svg>
