<?xml version="1.0" encoding="UTF-8" standalone="no"?>
<!DOCTYPE svg PUBLIC "-//W3C//DTD SVG 1.1//EN"
 "http://www.w3.org/Graphics/SVG/1.1/DTD/svg11.dtd">
<!-- Generated by graphviz version 2.43.0 (0)
 -->
<!-- Title: lmmc_dist_beta_quantile Pages: 1 -->
<svg width="300pt" height="64pt"
 viewBox="0.00 0.00 300.00 64.00" xmlns="http://www.w3.org/2000/svg" xmlns:xlink="http://www.w3.org/1999/xlink">
<g id="graph0" class="graph" transform="scale(1 1) rotate(0) translate(4 60)">
<title>lmmc_dist_beta_quantile</title>
<!-- Node1 -->
<g id="Node000001" class="node">
<title>Node1</title>
<g id="a_Node000001"><a xlink:title="贝塔分布分位数函数。">
<polygon fill="#999999" stroke="#666666" points="140,-37 0,-37 0,-18 140,-18 140,-37"/>
<text text-anchor="middle" x="70" y="-25" font-family="Helvetica,sans-Serif" font-size="10.00">lmmc_dist_beta_quantile</text>
</a>
</g>
</g>
<!-- Node2 -->
<g id="Node000002" class="node">
<title>Node2</title>
<g id="a_Node000002"><a xlink:href="stats_8c.html#a8a416b07c10ab0c3f27b3caec2b3dd50" target="_top" xlink:title="贝塔分布累积分布函数。">
<polygon fill="white" stroke="#666666" points="291.5,-56 176.5,-56 176.5,-37 291.5,-37 291.5,-56"/>
<text text-anchor="middle" x="234" y="-44" font-family="Helvetica,sans-Serif" font-size="10.00">lmmc_dist_beta_cdf</text>
</a>
</g>
</g>
<!-- Node1&#45;&gt;Node2 -->
<g id="edge1_Node000001_Node000002" class="edge">
<title>Node1&#45;&gt;Node2</title>
<g id="a_edge1_Node000001_Node000002"><a xlink:title=" ">
<path fill="none" stroke="#63b8ff" d="M140.17,-35.61C148.83,-36.63 157.66,-37.66 166.28,-38.67"/>
<polygon fill="#63b8ff" stroke="#63b8ff" points="165.93,-42.16 176.27,-39.85 166.74,-35.2 165.93,-42.16"/>
</a>
</g>
</g>
<!-- Node3 -->
<g id="Node000003" class="node">
<title>Node3</title>
<g id="a_Node000003"><a xlink:href="stats_8c.html#ae67a19c4f7f6f3475612467dc7cffc4d" target="_top" xlink:title="贝塔分布概率密度函数。">
<polygon fill="white" stroke="#666666" points="292,-19 176,-19 176,0 292,0 292,-19"/>
<text text-anchor="middle" x="234" y="-7" font-family="Helvetica,sans-Serif" font-size="10.00">lmmc_dist_beta_pdf</text>
</a>
</g>
</g>
<!-- Node1&#45;&gt;Node3 -->
<g id="edge2_Node000001_Node000003" class="edge">
<title>Node1&#45;&gt;Node3</title>
<g id="a_edge2_Node000001_Node000003"><a xlink:title=" ">
<path fill="none" stroke="#63b8ff" d="M140.17,-19.81C148.61,-18.88 157.22,-17.92 165.63,-16.99"/>
<polygon fill="#63b8ff" stroke="#63b8ff" points="166.21,-20.44 175.77,-15.86 165.44,-13.49 166.21,-20.44"/>
</a>
</g>
</g>
</g>
</svg>
