<?xml version="1.0" encoding="UTF-8" standalone="no"?>
<!DOCTYPE svg PUBLIC "-//W3C//DTD SVG 1.1//EN"
 "http://www.w3.org/Graphics/SVG/1.1/DTD/svg11.dtd">
<!-- Generated by graphviz version 2.43.0 (0)
 -->
<!-- Title: lmmc_dist_chi2_quantile Pages: 1 -->
<svg width="296pt" height="64pt"
 viewBox="0.00 0.00 296.00 64.00" xmlns="http://www.w3.org/2000/svg" xmlns:xlink="http://www.w3.org/1999/xlink">
<g id="graph0" class="graph" transform="scale(1 1) rotate(0) translate(4 60)">
<title>lmmc_dist_chi2_quantile</title>
<!-- Node1 -->
<g id="Node000001" class="node">
<title>Node1</title>
<g id="a_Node000001"><a xlink:title="χ² 分布分位数函数。">
<polygon fill="#999999" stroke="#666666" points="138,-37 0,-37 0,-18 138,-18 138,-37"/>
<text text-anchor="middle" x="69" y="-25" font-family="Helvetica,sans-Serif" font-size="10.00">lmmc_dist_chi2_quantile</text>
</a>
</g>
</g>
<!-- Node2 -->
<g id="Node000002" class="node">
<title>Node2</title>
<g id="a_Node000002"><a xlink:href="stats_8c.html#a32ae2826e53fe5ee99b8efeb65283ccc" target="_top" xlink:title="χ² 分布累积分布函数。">
<polygon fill="white" stroke="#666666" points="287.5,-56 174.5,-56 174.5,-37 287.5,-37 287.5,-56"/>
<text text-anchor="middle" x="231" y="-44" font-family="Helvetica,sans-Serif" font-size="10.00">lmmc_dist_chi2_cdf</text>
</a>
</g>
</g>
<!-- Node1&#45;&gt;Node2 -->
<g id="edge1_Node000001_Node000002" class="edge">
<title>Node1&#45;&gt;Node2</title>
<g id="a_edge1_Node000001_Node000002"><a xlink:title=" ">
<path fill="none" stroke="#63b8ff" d="M138.32,-35.61C146.99,-36.64 155.84,-37.69 164.47,-38.72"/>
<polygon fill="#63b8ff" stroke="#63b8ff" points="164.12,-42.2 174.46,-39.9 164.94,-35.25 164.12,-42.2"/>
</a>
</g>
</g>
<!-- Node3 -->
<g id="Node000003" class="node">
<title>Node3</title>
<g id="a_Node000003"><a xlink:href="stats_8c.html#a8cbb52c8c0169ab0724e38b455613c2c" target="_top" xlink:title="χ² 分布概率密度函数。">
<polygon fill="white" stroke="#666666" points="288,-19 174,-19 174,0 288,0 288,-19"/>
<text text-anchor="middle" x="231" y="-7" font-family="Helvetica,sans-Serif" font-size="10.00">lmmc_dist_chi2_pdf</text>
</a>
</g>
</g>
<!-- Node1&#45;&gt;Node3 -->
<g id="edge2_Node000001_Node000003" class="edge">
<title>Node1&#45;&gt;Node3</title>
<g id="a_edge2_Node000001_Node000003"><a xlink:title=" ">
<path fill="none" stroke="#63b8ff" d="M138.32,-19.81C146.77,-18.86 155.4,-17.89 163.82,-16.94"/>
<polygon fill="#63b8ff" stroke="#63b8ff" points="164.42,-20.4 173.97,-15.8 163.64,-13.44 164.42,-20.4"/>
</a>
</g>
</g>
</g>
</svg>
