<?xml version="1.0" encoding="UTF-8" standalone="no"?>
<!DOCTYPE svg PUBLIC "-//W3C//DTD SVG 1.1//EN"
 "http://www.w3.org/Graphics/SVG/1.1/DTD/svg11.dtd">
<!-- Generated by graphviz version 2.43.0 (0)
 -->
<!-- Title: lmmc_std_linalg_mat_scale Pages: 1 -->
<svg width="277pt" height="100pt"
 viewBox="0.00 0.00 277.00 100.00" xmlns="http://www.w3.org/2000/svg" xmlns:xlink="http://www.w3.org/1999/xlink">

<svg id="main" version="1.1" xmlns="http://www.w3.org/2000/svg" xmlns:xlink="http://www.w3.org/1999/xlink" xml:space="preserve">

<style type="text/css"><![CDATA[
.node, .edge {opacity: 0.7;}
.node.selected, .edge.selected {opacity: 1;}
.edge:hover path { stroke: red; }
.edge:hover polygon { stroke: red; fill: red; }
]]></style>
<script type="application/ecmascript" xlink:href="svg.min.js"/>
<svg id="graph" class="graph">
<g id="graph0" class="graph" transform="scale(1 1) rotate(0) translate(4 96)">
<title>lmmc_std_linalg_mat_scale</title>
<!-- Node1 -->
<g id="Node000001" class="node">
<title>Node1</title>
<g id="a_Node000001"><a xlink:title=" ">
<polygon fill="#999999" stroke="#666666" points="122,-51.5 0,-51.5 0,-21.5 122,-21.5 122,-51.5"/>
<text text-anchor="start" x="8" y="-39.5" font-family="Helvetica,sans-Serif" font-size="10.00">lmmc_std_linalg_mat</text>
<text text-anchor="middle" x="61" y="-28.5" font-family="Helvetica,sans-Serif" font-size="10.00">_scale</text>
</a>
</g>
</g>
<!-- Node1&#45;&gt;Node1 -->
<g id="edge5_Node000001_Node000001" class="edge">
<title>Node1&#45;&gt;Node1</title>
<g id="a_edge5_Node000001_Node000001"><a xlink:title=" ">
<path fill="none" stroke="#63b8ff" d="M34.28,-51.78C28.34,-60.91 37.25,-69.5 61,-69.5 75.1,-69.5 83.97,-66.47 87.61,-62.1"/>
<polygon fill="#63b8ff" stroke="#63b8ff" points="91.11,-61.81 87.72,-51.78 84.11,-61.74 91.11,-61.81"/>
</a>
</g>
</g>
<!-- Node2 -->
<g id="Node000002" class="node">
<title>Node2</title>
<g id="a_Node000002"><a xlink:href="dense__storage_8c.html#ad3ffb292f06884dbb65e2cf5b3074c69" target="_top" xlink:title="销毁矩阵,释放其拥有的底层缓冲区.">
<polygon fill="white" stroke="#666666" points="269,-74 158,-74 158,-55 269,-55 269,-74"/>
<text text-anchor="middle" x="213.5" y="-62" font-family="Helvetica,sans-Serif" font-size="10.00">lmmc_mat_destroy</text>
</a>
</g>
</g>
<!-- Node1&#45;&gt;Node2 -->
<g id="edge1_Node000001_Node000002" class="edge">
<title>Node1&#45;&gt;Node2</title>
<g id="a_edge1_Node000001_Node000002"><a xlink:title=" ">
<path fill="none" stroke="#63b8ff" d="M122.35,-47.73C131.94,-49.51 141.86,-51.36 151.47,-53.15"/>
<polygon fill="#63b8ff" stroke="#63b8ff" points="150.86,-56.59 161.33,-54.98 152.14,-49.71 150.86,-56.59"/>
</a>
</g>
</g>
<!-- Node3 -->
<g id="Node000003" class="node">
<title>Node3</title>
<g id="a_Node000003"><a xlink:href="dense__arithmetic_8c.html#a03c7dcb003e85fd5d356b220775597cf" target="_top" xlink:title="就地矩阵标量乘: .">
<polygon fill="white" stroke="#666666" points="263.5,-19 163.5,-19 163.5,0 263.5,0 263.5,-19"/>
<text text-anchor="middle" x="213.5" y="-7" font-family="Helvetica,sans-Serif" font-size="10.00">lmmc_mat_scale</text>
</a>
</g>
</g>
<!-- Node1&#45;&gt;Node3 -->
<g id="edge3_Node000001_Node000003" class="edge">
<title>Node1&#45;&gt;Node3</title>
<g id="a_edge3_Node000001_Node000003"><a xlink:title=" ">
<path fill="none" stroke="#63b8ff" d="M122.35,-25.67C132.53,-23.85 143.09,-21.95 153.24,-20.13"/>
<polygon fill="#63b8ff" stroke="#63b8ff" points="154.01,-23.55 163.23,-18.34 152.77,-16.66 154.01,-23.55"/>
</a>
</g>
</g>
<!-- Node2&#45;&gt;Node2 -->
<g id="edge2_Node000002_Node000002" class="edge">
<title>Node2&#45;&gt;Node2</title>
<g id="a_edge2_Node000002_Node000002"><a xlink:title=" ">
<path fill="none" stroke="#63b8ff" d="M190.07,-74.08C178.68,-82.73 186.48,-92 213.5,-92 231.23,-92 240.69,-88.01 241.87,-82.82"/>
<polygon fill="#63b8ff" stroke="#63b8ff" points="244.9,-81.06 236.93,-74.08 238.81,-84.51 244.9,-81.06"/>
</a>
</g>
</g>
<!-- Node3&#45;&gt;Node3 -->
<g id="edge4_Node000003_Node000003" class="edge">
<title>Node3&#45;&gt;Node3</title>
<g id="a_edge4_Node000003_Node000003"><a xlink:title=" ">
<path fill="none" stroke="#63b8ff" d="M190.07,-19.08C178.68,-27.73 186.48,-37 213.5,-37 231.23,-37 240.69,-33.01 241.87,-27.82"/>
<polygon fill="#63b8ff" stroke="#63b8ff" points="244.9,-26.06 236.93,-19.08 238.81,-29.51 244.9,-26.06"/>
</a>
</g>
</g>
</g>
</svg>
</svg>

<style type='text/css'>
<![CDATA[
[data-mouse-over-selected='false'] { opacity: 0.7; }
[data-mouse-over-selected='true']  { opacity: 1.0; }
]]>
</style>
</svg>
