<?xml version="1.0" encoding="UTF-8" standalone="no"?>
<!DOCTYPE svg PUBLIC "-//W3C//DTD SVG 1.1//EN"
 "http://www.w3.org/Graphics/SVG/1.1/DTD/svg11.dtd">
<!-- Generated by graphviz version 2.43.0 (0)
 -->
<!-- Title: lmmc_nonlinear_result_t Pages: 1 -->
<svg width="363pt" height="175pt"
 viewBox="0.00 0.00 362.50 175.00" xmlns="http://www.w3.org/2000/svg" xmlns:xlink="http://www.w3.org/1999/xlink">

<svg id="main" version="1.1" xmlns="http://www.w3.org/2000/svg" xmlns:xlink="http://www.w3.org/1999/xlink" xml:space="preserve" onload="init(evt)">
<style type="text/css"><![CDATA[
.node, .edge {opacity: 0.7;}
.node.selected, .edge.selected {opacity: 1;}
.edge:hover path { stroke: red; }
.edge:hover polygon { stroke: red; fill: red; }
]]></style>
<script type="application/ecmascript" xlink:href="svg.min.js"/>
<svg id="graph" class="graph">
<g id="graph0" class="graph" transform="scale(1 1) rotate(0) translate(4 171)">
<title>lmmc_nonlinear_result_t</title>
<!-- Node1 -->
<g id="Node000001" class="node">
<title>Node1</title>
<g id="a_Node000001"><a xlink:title="求根结果统计。">
<polygon fill="#999999" stroke="transparent" points="202,-49 71,-49 71,0 202,0 202,-49"/>
<text text-anchor="start" x="76.5" y="-36.5" font-family="Helvetica,sans-Serif" font-size="10.00">lmmc_nonlinear_result_t</text>
<text text-anchor="start" x="135" y="-21.5" font-family="Helvetica,sans-Serif" font-size="10.00"> </text>
<text text-anchor="start" x="135" y="-6.5" font-family="Helvetica,sans-Serif" font-size="10.00"> </text>
<polygon fill="#666666" stroke="#666666" points="71.5,-31.5 71.5,-31.5 202.5,-31.5 202.5,-31.5 71.5,-31.5"/>
<polygon fill="#666666" stroke="#666666" points="71.5,-16.5 71.5,-16.5 202.5,-16.5 202.5,-16.5 71.5,-16.5"/>
<polygon fill="none" stroke="#666666" points="71,0 71,-49 202,-49 202,0 71,0"/>
</a>
</g>
</g>
<!-- Node2 -->
<g id="Node000002" class="node">
<title>Node2</title>
<g id="a_Node000002"><a xlink:title=" ">
<polygon fill="white" stroke="transparent" points="23,-167 0,-167 0,-118 23,-118 23,-167"/>
<text text-anchor="start" x="5.5" y="-154.5" font-family="Helvetica,sans-Serif" font-size="10.00">int</text>
<text text-anchor="start" x="10" y="-139.5" font-family="Helvetica,sans-Serif" font-size="10.00"> </text>
<text text-anchor="start" x="10" y="-124.5" font-family="Helvetica,sans-Serif" font-size="10.00"> </text>
<polygon fill="#666666" stroke="#666666" points="0.5,-149.5 0.5,-149.5 23.5,-149.5 23.5,-149.5 0.5,-149.5"/>
<polygon fill="#666666" stroke="#666666" points="0.5,-134.5 0.5,-134.5 23.5,-134.5 23.5,-134.5 0.5,-134.5"/>
<polygon fill="none" stroke="#666666" points="0,-118 0,-167 23,-167 23,-118 0,-118"/>
</a>
</g>
</g>
<!-- Node2&#45;&gt;Node1 -->
<g id="edge1_Node000001_Node000002" class="edge">
<title>Node2&#45;&gt;Node1</title>
<g id="a_edge1_Node000001_Node000002"><a xlink:title=" ">
<path fill="none" stroke="#63b8ff" d="M10.22,-117.81C10.61,-101.76 13.72,-81 25.5,-67 34.51,-56.28 46.58,-48.33 59.44,-42.43"/>
<polygon fill="none" stroke="#63b8ff" points="59.78,-42.3 63.82,-36.32 70.89,-37.76 66.85,-43.73 59.78,-42.3"/>
</a>
</g>
<text text-anchor="middle" x="57" y="-81" font-family="Helvetica,sans-Serif" font-size="10.00" fill="grey"> +converged</text>
</g>
<!-- Node3 -->
<g id="Node000003" class="node">
<title>Node3</title>
<g id="a_Node000003"><a xlink:title=" ">
<polygon fill="white" stroke="transparent" points="117,-167 78,-167 78,-118 117,-118 117,-167"/>
<text text-anchor="start" x="83.5" y="-154.5" font-family="Helvetica,sans-Serif" font-size="10.00">size_t</text>
<text text-anchor="start" x="96" y="-139.5" font-family="Helvetica,sans-Serif" font-size="10.00"> </text>
<text text-anchor="start" x="96" y="-124.5" font-family="Helvetica,sans-Serif" font-size="10.00"> </text>
<polygon fill="#666666" stroke="#666666" points="78.5,-149.5 78.5,-149.5 117.5,-149.5 117.5,-149.5 78.5,-149.5"/>
<polygon fill="#666666" stroke="#666666" points="78.5,-134.5 78.5,-134.5 117.5,-134.5 117.5,-134.5 78.5,-134.5"/>
<polygon fill="none" stroke="#666666" points="78,-118 78,-167 117,-167 117,-118 78,-118"/>
</a>
</g>
</g>
<!-- Node3&#45;&gt;Node1 -->
<g id="edge2_Node000001_Node000003" class="edge">
<title>Node3&#45;&gt;Node1</title>
<g id="a_edge2_Node000001_Node000003"><a xlink:title=" ">
<path fill="none" stroke="#63b8ff" d="M93.61,-117.85C92.14,-102.77 92.11,-83.11 98.5,-67 99.56,-64.32 100.89,-61.7 102.4,-59.17"/>
<polygon fill="none" stroke="#63b8ff" points="102.47,-59.07 102.71,-51.87 109.46,-49.32 109.22,-56.53 102.47,-59.07"/>
</a>
</g>
<text text-anchor="middle" x="126" y="-81" font-family="Helvetica,sans-Serif" font-size="10.00" fill="grey"> +num_iter</text>
</g>
<!-- Node4 -->
<g id="Node000004" class="node">
<title>Node4</title>
<g id="a_Node000004"><a xlink:title=" ">
<polygon fill="white" stroke="transparent" points="197.5,-167 153.5,-167 153.5,-118 197.5,-118 197.5,-167"/>
<text text-anchor="start" x="158.5" y="-154.5" font-family="Helvetica,sans-Serif" font-size="10.00">double</text>
<text text-anchor="start" x="173.5" y="-139.5" font-family="Helvetica,sans-Serif" font-size="10.00"> </text>
<text text-anchor="start" x="173.5" y="-124.5" font-family="Helvetica,sans-Serif" font-size="10.00"> </text>
<polygon fill="#666666" stroke="#666666" points="153.5,-149.5 153.5,-149.5 197.5,-149.5 197.5,-149.5 153.5,-149.5"/>
<polygon fill="#666666" stroke="#666666" points="153.5,-134.5 153.5,-134.5 197.5,-134.5 197.5,-134.5 153.5,-134.5"/>
<polygon fill="none" stroke="#666666" points="153.5,-118 153.5,-167 197.5,-167 197.5,-118 153.5,-118"/>
</a>
</g>
</g>
<!-- Node4&#45;&gt;Node1 -->
<g id="edge3_Node000001_Node000004" class="edge">
<title>Node4&#45;&gt;Node1</title>
<g id="a_edge3_Node000001_Node000004"><a xlink:title=" ">
<path fill="none" stroke="#63b8ff" d="M169.17,-117.82C165.07,-103.08 159.4,-83.79 153.5,-67 152.73,-64.8 151.9,-62.54 151.04,-60.27"/>
<polygon fill="none" stroke="#63b8ff" points="151.02,-60.21 145.1,-56.09 146.63,-49.04 152.55,-53.16 151.02,-60.21"/>
</a>
</g>
<text text-anchor="middle" x="205.5" y="-92" font-family="Helvetica,sans-Serif" font-size="10.00" fill="grey"> +function_value</text>
<text text-anchor="middle" x="205.5" y="-81" font-family="Helvetica,sans-Serif" font-size="10.00" fill="grey">+residual_norm</text>
<text text-anchor="middle" x="205.5" y="-70" font-family="Helvetica,sans-Serif" font-size="10.00" fill="grey">+root</text>
</g>
<!-- Node5 -->
<g id="Node000005" class="node">
<title>Node5</title>
<g id="a_Node000005"><a xlink:title=" ">
<polygon fill="white" stroke="transparent" points="351,-167 216,-167 216,-118 351,-118 351,-167"/>
<text text-anchor="start" x="221.5" y="-154.5" font-family="Helvetica,sans-Serif" font-size="10.00">lmmc_nonlinear_failure_t</text>
<text text-anchor="start" x="282" y="-139.5" font-family="Helvetica,sans-Serif" font-size="10.00"> </text>
<text text-anchor="start" x="282" y="-124.5" font-family="Helvetica,sans-Serif" font-size="10.00"> </text>
<polygon fill="#666666" stroke="#666666" points="216.5,-149.5 216.5,-149.5 351.5,-149.5 351.5,-149.5 216.5,-149.5"/>
<polygon fill="#666666" stroke="#666666" points="216.5,-134.5 216.5,-134.5 351.5,-134.5 351.5,-134.5 216.5,-134.5"/>
<polygon fill="none" stroke="#666666" points="216,-118 216,-167 351,-167 351,-118 216,-118"/>
</a>
</g>
</g>
<!-- Node5&#45;&gt;Node1 -->
<g id="edge4_Node000001_Node000005" class="edge">
<title>Node5&#45;&gt;Node1</title>
<g id="a_edge4_Node000001_Node000005"><a xlink:title=" ">
<path fill="none" stroke="#63b8ff" d="M278.58,-117.8C274.07,-101.53 265.84,-80.52 251.5,-67 240.82,-56.94 227.52,-49.28 213.79,-43.47"/>
<polygon fill="none" stroke="#63b8ff" points="213.41,-43.32 206.37,-44.89 202.21,-39 209.25,-37.43 213.41,-43.32"/>
</a>
</g>
<text text-anchor="middle" x="313.5" y="-81" font-family="Helvetica,sans-Serif" font-size="10.00" fill="grey"> +failure_reason</text>
</g>
</g>
</svg>
</svg>

<style type='text/css'>
<![CDATA[
[data-mouse-over-selected='false'] { opacity: 0.7; }
[data-mouse-over-selected='true']  { opacity: 1.0; }
]]>
</style>
<script type="application/ecmascript"><![CDATA[
document.addEventListener('DOMContentLoaded', (event) => {
  highlightEdges();
  highlightAdjacentNodes();
});
]]></script>
</svg>
