<?xml version="1.0" encoding="UTF-8" standalone="no"?>
<!DOCTYPE svg PUBLIC "-//W3C//DTD SVG 1.1//EN"
 "http://www.w3.org/Graphics/SVG/1.1/DTD/svg11.dtd">
<!-- Generated by graphviz version 2.43.0 (0)
 -->
<!-- Title: lmmc_itersolve_result_t Pages: 1 -->
<svg width="285pt" height="164pt"
 viewBox="0.00 0.00 284.50 164.00" xmlns="http://www.w3.org/2000/svg" xmlns:xlink="http://www.w3.org/1999/xlink">

<svg id="main" version="1.1" xmlns="http://www.w3.org/2000/svg" xmlns:xlink="http://www.w3.org/1999/xlink" xml:space="preserve" onload="init(evt)">
<style type="text/css"><![CDATA[
.node, .edge {opacity: 0.7;}
.node.selected, .edge.selected {opacity: 1;}
.edge:hover path { stroke: red; }
.edge:hover polygon { stroke: red; fill: red; }
]]></style>
<script type="application/ecmascript" xlink:href="svg.min.js"/>
<svg id="graph" class="graph">
<g id="graph0" class="graph" transform="scale(1 1) rotate(0) translate(4 160)">
<title>lmmc_itersolve_result_t</title>
<!-- Node1 -->
<g id="Node000001" class="node">
<title>Node1</title>
<g id="a_Node000001"><a xlink:title="迭代求解的结果统计。">
<polygon fill="#999999" stroke="transparent" points="161.5,-49 33.5,-49 33.5,0 161.5,0 161.5,-49"/>
<text text-anchor="start" x="38.5" y="-36.5" font-family="Helvetica,sans-Serif" font-size="10.00">lmmc_itersolve_result_t</text>
<text text-anchor="start" x="95.5" y="-21.5" font-family="Helvetica,sans-Serif" font-size="10.00"> </text>
<text text-anchor="start" x="95.5" y="-6.5" font-family="Helvetica,sans-Serif" font-size="10.00"> </text>
<polygon fill="#666666" stroke="#666666" points="33.5,-31.5 33.5,-31.5 161.5,-31.5 161.5,-31.5 33.5,-31.5"/>
<polygon fill="#666666" stroke="#666666" points="33.5,-16.5 33.5,-16.5 161.5,-16.5 161.5,-16.5 33.5,-16.5"/>
<polygon fill="none" stroke="#666666" points="33.5,0 33.5,-49 161.5,-49 161.5,0 33.5,0"/>
</a>
</g>
</g>
<!-- Node2 -->
<g id="Node000002" class="node">
<title>Node2</title>
<g id="a_Node000002"><a xlink:title=" ">
<polygon fill="white" stroke="transparent" points="23,-156 0,-156 0,-107 23,-107 23,-156"/>
<text text-anchor="start" x="5.5" y="-143.5" font-family="Helvetica,sans-Serif" font-size="10.00">int</text>
<text text-anchor="start" x="10" y="-128.5" font-family="Helvetica,sans-Serif" font-size="10.00"> </text>
<text text-anchor="start" x="10" y="-113.5" font-family="Helvetica,sans-Serif" font-size="10.00"> </text>
<polygon fill="#666666" stroke="#666666" points="0.5,-138.5 0.5,-138.5 23.5,-138.5 23.5,-138.5 0.5,-138.5"/>
<polygon fill="#666666" stroke="#666666" points="0.5,-123.5 0.5,-123.5 23.5,-123.5 23.5,-123.5 0.5,-123.5"/>
<polygon fill="none" stroke="#666666" points="0,-107 0,-156 23,-156 23,-107 0,-107"/>
</a>
</g>
</g>
<!-- Node2&#45;&gt;Node1 -->
<g id="edge1_Node000001_Node000002" class="edge">
<title>Node2&#45;&gt;Node1</title>
<g id="a_edge1_Node000001_Node000002"><a xlink:title=" ">
<path fill="none" stroke="#63b8ff" d="M14.4,-106.91C16.94,-94.07 21.69,-78.51 30.5,-67 33.28,-63.36 36.49,-59.97 39.95,-56.82"/>
<polygon fill="none" stroke="#63b8ff" points="40.27,-56.56 42.43,-49.68 49.61,-49.03 47.45,-55.91 40.27,-56.56"/>
</a>
</g>
<text text-anchor="middle" x="62" y="-75.5" font-family="Helvetica,sans-Serif" font-size="10.00" fill="grey"> +converged</text>
</g>
<!-- Node3 -->
<g id="Node000003" class="node">
<title>Node3</title>
<g id="a_Node000003"><a xlink:title=" ">
<polygon fill="white" stroke="transparent" points="117,-156 78,-156 78,-107 117,-107 117,-156"/>
<text text-anchor="start" x="83.5" y="-143.5" font-family="Helvetica,sans-Serif" font-size="10.00">size_t</text>
<text text-anchor="start" x="96" y="-128.5" font-family="Helvetica,sans-Serif" font-size="10.00"> </text>
<text text-anchor="start" x="96" y="-113.5" font-family="Helvetica,sans-Serif" font-size="10.00"> </text>
<polygon fill="#666666" stroke="#666666" points="78.5,-138.5 78.5,-138.5 117.5,-138.5 117.5,-138.5 78.5,-138.5"/>
<polygon fill="#666666" stroke="#666666" points="78.5,-123.5 78.5,-123.5 117.5,-123.5 117.5,-123.5 78.5,-123.5"/>
<polygon fill="none" stroke="#666666" points="78,-107 78,-156 117,-156 117,-107 78,-107"/>
</a>
</g>
</g>
<!-- Node3&#45;&gt;Node1 -->
<g id="edge2_Node000001_Node000003" class="edge">
<title>Node3&#45;&gt;Node1</title>
<g id="a_edge2_Node000001_Node000003"><a xlink:title=" ">
<path fill="none" stroke="#63b8ff" d="M97.5,-106.94C97.5,-93.52 97.5,-76.44 97.5,-61.39"/>
<polygon fill="none" stroke="#63b8ff" points="97.5,-61.35 93.5,-55.35 97.5,-49.35 101.5,-55.35 97.5,-61.35"/>
</a>
</g>
<text text-anchor="middle" x="125" y="-75.5" font-family="Helvetica,sans-Serif" font-size="10.00" fill="grey"> +num_iter</text>
</g>
<!-- Node4 -->
<g id="Node000004" class="node">
<title>Node4</title>
<g id="a_Node000004"><a xlink:title=" ">
<polygon fill="white" stroke="transparent" points="197.5,-156 153.5,-156 153.5,-107 197.5,-107 197.5,-156"/>
<text text-anchor="start" x="158.5" y="-143.5" font-family="Helvetica,sans-Serif" font-size="10.00">double</text>
<text text-anchor="start" x="173.5" y="-128.5" font-family="Helvetica,sans-Serif" font-size="10.00"> </text>
<text text-anchor="start" x="173.5" y="-113.5" font-family="Helvetica,sans-Serif" font-size="10.00"> </text>
<polygon fill="#666666" stroke="#666666" points="153.5,-138.5 153.5,-138.5 197.5,-138.5 197.5,-138.5 153.5,-138.5"/>
<polygon fill="#666666" stroke="#666666" points="153.5,-123.5 153.5,-123.5 197.5,-123.5 197.5,-123.5 153.5,-123.5"/>
<polygon fill="none" stroke="#666666" points="153.5,-107 153.5,-156 197.5,-156 197.5,-107 153.5,-107"/>
</a>
</g>
</g>
<!-- Node4&#45;&gt;Node1 -->
<g id="edge3_Node000001_Node000004" class="edge">
<title>Node4&#45;&gt;Node1</title>
<g id="a_edge3_Node000001_Node000004"><a xlink:title=" ">
<path fill="none" stroke="#63b8ff" d="M170.89,-106.87C167.58,-94.17 162.13,-78.76 153.5,-67 150.99,-63.58 148.12,-60.32 145.03,-57.24"/>
<polygon fill="none" stroke="#63b8ff" points="144.81,-57.04 137.67,-56.02 135.87,-49.04 143.01,-50.06 144.81,-57.04"/>
</a>
</g>
<text text-anchor="middle" x="220.5" y="-81" font-family="Helvetica,sans-Serif" font-size="10.00" fill="grey"> +final_residual_norm</text>
<text text-anchor="middle" x="220.5" y="-70" font-family="Helvetica,sans-Serif" font-size="10.00" fill="grey">+initial_residual_norm</text>
</g>
</g>
</svg>
</svg>

<style type='text/css'>
<![CDATA[
[data-mouse-over-selected='false'] { opacity: 0.7; }
[data-mouse-over-selected='true']  { opacity: 1.0; }
]]>
</style>
<script type="application/ecmascript"><![CDATA[
document.addEventListener('DOMContentLoaded', (event) => {
  highlightEdges();
  highlightAdjacentNodes();
});
]]></script>
</svg>
