<?xml version="1.0" encoding="UTF-8" standalone="no"?>
<!DOCTYPE svg PUBLIC "-//W3C//DTD SVG 1.1//EN"
 "http://www.w3.org/Graphics/SVG/1.1/DTD/svg11.dtd">
<!-- Generated by graphviz version 2.43.0 (0)
 -->
<!-- Title: lmmc_tensor_nd_t Pages: 1 -->
<svg width="204pt" height="175pt"
 viewBox="0.00 0.00 203.50 175.00" xmlns="http://www.w3.org/2000/svg" xmlns:xlink="http://www.w3.org/1999/xlink">
<g id="graph0" class="graph" transform="scale(1 1) rotate(0) translate(4 171)">
<title>lmmc_tensor_nd_t</title>
<!-- Node1 -->
<g id="Node000001" class="node">
<title>Node1</title>
<g id="a_Node000001"><a xlink:title="N&#45;D 张量结构。">
<polygon fill="#999999" stroke="transparent" points="135,-49 34,-49 34,0 135,0 135,-49"/>
<text text-anchor="start" x="39.5" y="-36.5" font-family="Helvetica,sans-Serif" font-size="10.00">lmmc_tensor_nd_t</text>
<text text-anchor="start" x="83" y="-21.5" font-family="Helvetica,sans-Serif" font-size="10.00"> </text>
<text text-anchor="start" x="83" y="-6.5" font-family="Helvetica,sans-Serif" font-size="10.00"> </text>
<polygon fill="#666666" stroke="#666666" points="34.5,-31.5 34.5,-31.5 135.5,-31.5 135.5,-31.5 34.5,-31.5"/>
<polygon fill="#666666" stroke="#666666" points="34.5,-16.5 34.5,-16.5 135.5,-16.5 135.5,-16.5 34.5,-16.5"/>
<polygon fill="none" stroke="#666666" points="34,0 34,-49 135,-49 135,0 34,0"/>
</a>
</g>
</g>
<!-- Node2 -->
<g id="Node000002" class="node">
<title>Node2</title>
<g id="a_Node000002"><a xlink:title=" ">
<polygon fill="white" stroke="transparent" points="39,-167 0,-167 0,-118 39,-118 39,-167"/>
<text text-anchor="start" x="5.5" y="-154.5" font-family="Helvetica,sans-Serif" font-size="10.00">size_t</text>
<text text-anchor="start" x="18" y="-139.5" font-family="Helvetica,sans-Serif" font-size="10.00"> </text>
<text text-anchor="start" x="18" y="-124.5" font-family="Helvetica,sans-Serif" font-size="10.00"> </text>
<polygon fill="#666666" stroke="#666666" points="0.5,-149.5 0.5,-149.5 39.5,-149.5 39.5,-149.5 0.5,-149.5"/>
<polygon fill="#666666" stroke="#666666" points="0.5,-134.5 0.5,-134.5 39.5,-134.5 39.5,-134.5 0.5,-134.5"/>
<polygon fill="none" stroke="#666666" points="0,-118 0,-167 39,-167 39,-118 0,-118"/>
</a>
</g>
</g>
<!-- Node2&#45;&gt;Node1 -->
<g id="edge1_Node000001_Node000002" class="edge">
<title>Node2&#45;&gt;Node1</title>
<g id="a_edge1_Node000001_Node000002"><a xlink:title=" ">
<path fill="none" stroke="#63b8ff" d="M21.92,-117.98C24.34,-102.59 29.12,-82.54 38.5,-67 40.32,-63.98 42.44,-61.05 44.73,-58.24"/>
<polygon fill="none" stroke="#63b8ff" points="44.96,-58 46.09,-50.87 53.1,-49.18 51.97,-56.3 44.96,-58"/>
</a>
</g>
<text text-anchor="middle" x="59.5" y="-92" font-family="Helvetica,sans-Serif" font-size="10.00" fill="grey"> +dims</text>
<text text-anchor="middle" x="59.5" y="-81" font-family="Helvetica,sans-Serif" font-size="10.00" fill="grey">+ndim</text>
<text text-anchor="middle" x="59.5" y="-70" font-family="Helvetica,sans-Serif" font-size="10.00" fill="grey">+strides</text>
</g>
<!-- Node3 -->
<g id="Node000003" class="node">
<title>Node3</title>
<g id="a_Node000003"><a xlink:title=" ">
<polygon fill="white" stroke="transparent" points="106.5,-167 62.5,-167 62.5,-118 106.5,-118 106.5,-167"/>
<text text-anchor="start" x="67.5" y="-154.5" font-family="Helvetica,sans-Serif" font-size="10.00">double</text>
<text text-anchor="start" x="82.5" y="-139.5" font-family="Helvetica,sans-Serif" font-size="10.00"> </text>
<text text-anchor="start" x="82.5" y="-124.5" font-family="Helvetica,sans-Serif" font-size="10.00"> </text>
<polygon fill="#666666" stroke="#666666" points="62.5,-149.5 62.5,-149.5 106.5,-149.5 106.5,-149.5 62.5,-149.5"/>
<polygon fill="#666666" stroke="#666666" points="62.5,-134.5 62.5,-134.5 106.5,-134.5 106.5,-134.5 62.5,-134.5"/>
<polygon fill="none" stroke="#666666" points="62.5,-118 62.5,-167 106.5,-167 106.5,-118 62.5,-118"/>
</a>
</g>
</g>
<!-- Node3&#45;&gt;Node1 -->
<g id="edge2_Node000001_Node000003" class="edge">
<title>Node3&#45;&gt;Node1</title>
<g id="a_edge2_Node000001_Node000003"><a xlink:title=" ">
<path fill="none" stroke="#63b8ff" d="M84.5,-117.75C84.5,-101.48 84.5,-79.62 84.5,-61.26"/>
<polygon fill="none" stroke="#63b8ff" points="84.5,-61.22 80.5,-55.22 84.5,-49.22 88.5,-55.22 84.5,-61.22"/>
</a>
</g>
<text text-anchor="middle" x="101.5" y="-81" font-family="Helvetica,sans-Serif" font-size="10.00" fill="grey"> +data</text>
</g>
<!-- Node4 -->
<g id="Node000004" class="node">
<title>Node4</title>
<g id="a_Node000004"><a xlink:title=" ">
<polygon fill="white" stroke="transparent" points="153,-167 130,-167 130,-118 153,-118 153,-167"/>
<text text-anchor="start" x="135.5" y="-154.5" font-family="Helvetica,sans-Serif" font-size="10.00">int</text>
<text text-anchor="start" x="140" y="-139.5" font-family="Helvetica,sans-Serif" font-size="10.00"> </text>
<text text-anchor="start" x="140" y="-124.5" font-family="Helvetica,sans-Serif" font-size="10.00"> </text>
<polygon fill="#666666" stroke="#666666" points="130.5,-149.5 130.5,-149.5 153.5,-149.5 153.5,-149.5 130.5,-149.5"/>
<polygon fill="#666666" stroke="#666666" points="130.5,-134.5 130.5,-134.5 153.5,-134.5 153.5,-134.5 130.5,-134.5"/>
<polygon fill="none" stroke="#666666" points="130,-118 130,-167 153,-167 153,-118 130,-118"/>
</a>
</g>
</g>
<!-- Node4&#45;&gt;Node1 -->
<g id="edge3_Node000001_Node000004" class="edge">
<title>Node4&#45;&gt;Node1</title>
<g id="a_edge3_Node000001_Node000004"><a xlink:title=" ">
<path fill="none" stroke="#63b8ff" d="M137.11,-117.71C133.69,-102.58 128.07,-82.91 119.5,-67 118.05,-64.31 116.41,-61.64 114.65,-59.03"/>
<polygon fill="none" stroke="#63b8ff" points="114.57,-58.92 107.78,-56.49 107.4,-49.29 114.2,-51.71 114.57,-58.92"/>
</a>
</g>
<text text-anchor="middle" x="163.5" y="-81" font-family="Helvetica,sans-Serif" font-size="10.00" fill="grey"> +owns_data</text>
</g>
</g>
</svg>
