<?xml version="1.0" encoding="UTF-8" standalone="no"?>
<!DOCTYPE svg PUBLIC "-//W3C//DTD SVG 1.1//EN"
 "http://www.w3.org/Graphics/SVG/1.1/DTD/svg11.dtd">
<!-- Generated by graphviz version 2.43.0 (0)
 -->
<!-- Title: lmmc_precond_t Pages: 1 -->
<svg width="318pt" height="153pt"
 viewBox="0.00 0.00 317.50 153.00" xmlns="http://www.w3.org/2000/svg" xmlns:xlink="http://www.w3.org/1999/xlink">

<svg id="main" version="1.1" xmlns="http://www.w3.org/2000/svg" xmlns:xlink="http://www.w3.org/1999/xlink" xml:space="preserve" onload="init(evt)">
<style type="text/css"><![CDATA[
.node, .edge {opacity: 0.7;}
.node.selected, .edge.selected {opacity: 1;}
.edge:hover path { stroke: red; }
.edge:hover polygon { stroke: red; fill: red; }
]]></style>
<script type="application/ecmascript" xlink:href="svg.min.js"/>
<svg id="graph" class="graph">
<g id="graph0" class="graph" transform="scale(1 1) rotate(0) translate(4 149)">
<title>lmmc_precond_t</title>
<!-- Node1 -->
<g id="Node000001" class="node">
<title>Node1</title>
<g id="a_Node000001"><a xlink:title="通用预处理子句柄。">
<polygon fill="#999999" stroke="transparent" points="230.5,-49 138.5,-49 138.5,0 230.5,0 230.5,-49"/>
<text text-anchor="start" x="143.5" y="-36.5" font-family="Helvetica,sans-Serif" font-size="10.00">lmmc_precond_t</text>
<text text-anchor="start" x="182.5" y="-21.5" font-family="Helvetica,sans-Serif" font-size="10.00"> </text>
<text text-anchor="start" x="182.5" y="-6.5" font-family="Helvetica,sans-Serif" font-size="10.00"> </text>
<polygon fill="#666666" stroke="#666666" points="138.5,-31.5 138.5,-31.5 230.5,-31.5 230.5,-31.5 138.5,-31.5"/>
<polygon fill="#666666" stroke="#666666" points="138.5,-16.5 138.5,-16.5 230.5,-16.5 230.5,-16.5 138.5,-16.5"/>
<polygon fill="none" stroke="#666666" points="138.5,0 138.5,-49 230.5,-49 230.5,0 138.5,0"/>
</a>
</g>
</g>
<!-- Node2 -->
<g id="Node000002" class="node">
<title>Node2</title>
<g id="a_Node000002"><a xlink:title=" ">
<polygon fill="white" stroke="transparent" points="119,-145 0,-145 0,-96 119,-96 119,-145"/>
<text text-anchor="start" x="5.5" y="-132.5" font-family="Helvetica,sans-Serif" font-size="10.00">lmmc_precond_type_t</text>
<text text-anchor="start" x="58" y="-117.5" font-family="Helvetica,sans-Serif" font-size="10.00"> </text>
<text text-anchor="start" x="58" y="-102.5" font-family="Helvetica,sans-Serif" font-size="10.00"> </text>
<polygon fill="#666666" stroke="#666666" points="0.5,-127.5 0.5,-127.5 119.5,-127.5 119.5,-127.5 0.5,-127.5"/>
<polygon fill="#666666" stroke="#666666" points="0.5,-112.5 0.5,-112.5 119.5,-112.5 119.5,-112.5 0.5,-112.5"/>
<polygon fill="none" stroke="#666666" points="0,-96 0,-145 119,-145 119,-96 0,-96"/>
</a>
</g>
</g>
<!-- Node2&#45;&gt;Node1 -->
<g id="edge1_Node000001_Node000002" class="edge">
<title>Node2&#45;&gt;Node1</title>
<g id="a_edge1_Node000001_Node000002"><a xlink:title=" ">
<path fill="none" stroke="#63b8ff" d="M84.27,-95.8C94.54,-86.43 106.77,-75.81 118.5,-67 123.51,-63.24 128.87,-59.47 134.29,-55.84"/>
<polygon fill="none" stroke="#63b8ff" points="134.65,-55.6 137.48,-48.97 144.7,-49.04 141.86,-55.67 134.65,-55.6"/>
</a>
</g>
<text text-anchor="middle" x="135.5" y="-70" font-family="Helvetica,sans-Serif" font-size="10.00" fill="grey"> +type</text>
</g>
<!-- Node3 -->
<g id="Node000003" class="node">
<title>Node3</title>
<g id="a_Node000003"><a xlink:title=" ">
<polygon fill="white" stroke="transparent" points="176,-145 137,-145 137,-96 176,-96 176,-145"/>
<text text-anchor="start" x="142.5" y="-132.5" font-family="Helvetica,sans-Serif" font-size="10.00">size_t</text>
<text text-anchor="start" x="155" y="-117.5" font-family="Helvetica,sans-Serif" font-size="10.00"> </text>
<text text-anchor="start" x="155" y="-102.5" font-family="Helvetica,sans-Serif" font-size="10.00"> </text>
<polygon fill="#666666" stroke="#666666" points="137.5,-127.5 137.5,-127.5 176.5,-127.5 176.5,-127.5 137.5,-127.5"/>
<polygon fill="#666666" stroke="#666666" points="137.5,-112.5 137.5,-112.5 176.5,-112.5 176.5,-112.5 137.5,-112.5"/>
<polygon fill="none" stroke="#666666" points="137,-96 137,-145 176,-145 176,-96 137,-96"/>
</a>
</g>
</g>
<!-- Node3&#45;&gt;Node1 -->
<g id="edge2_Node000001_Node000003" class="edge">
<title>Node3&#45;&gt;Node1</title>
<g id="a_edge2_Node000001_Node000003"><a xlink:title=" ">
<path fill="none" stroke="#63b8ff" d="M155.45,-95.81C155.66,-86.64 156.67,-76.16 159.5,-67 160.24,-64.61 161.14,-62.22 162.16,-59.86"/>
<polygon fill="none" stroke="#63b8ff" points="162.17,-59.84 161.32,-52.68 167.6,-49.14 168.45,-56.3 162.17,-59.84"/>
</a>
</g>
<text text-anchor="middle" x="175" y="-70" font-family="Helvetica,sans-Serif" font-size="10.00" fill="grey"> +size</text>
</g>
<!-- Node4 -->
<g id="Node000004" class="node">
<title>Node4</title>
<g id="a_Node000004"><a xlink:title=" ">
<polygon fill="white" stroke="transparent" points="234.5,-145 194.5,-145 194.5,-96 234.5,-96 234.5,-145"/>
<text text-anchor="start" x="199.5" y="-132.5" font-family="Helvetica,sans-Serif" font-size="10.00">void *</text>
<text text-anchor="start" x="212.5" y="-117.5" font-family="Helvetica,sans-Serif" font-size="10.00"> </text>
<text text-anchor="start" x="212.5" y="-102.5" font-family="Helvetica,sans-Serif" font-size="10.00"> </text>
<polygon fill="#666666" stroke="#666666" points="194.5,-127.5 194.5,-127.5 234.5,-127.5 234.5,-127.5 194.5,-127.5"/>
<polygon fill="#666666" stroke="#666666" points="194.5,-112.5 194.5,-112.5 234.5,-112.5 234.5,-112.5 194.5,-112.5"/>
<polygon fill="none" stroke="#666666" points="194.5,-96 194.5,-145 234.5,-145 234.5,-96 194.5,-96"/>
</a>
</g>
</g>
<!-- Node4&#45;&gt;Node1 -->
<g id="edge3_Node000001_Node000004" class="edge">
<title>Node4&#45;&gt;Node1</title>
<g id="a_edge3_Node000001_Node000004"><a xlink:title=" ">
<path fill="none" stroke="#63b8ff" d="M206.93,-95.78C203.55,-85.2 199.51,-72.52 195.79,-60.86"/>
<polygon fill="none" stroke="#63b8ff" points="195.72,-60.64 190.08,-56.14 192.07,-49.21 197.7,-53.71 195.72,-60.64"/>
</a>
</g>
<text text-anchor="middle" x="216.5" y="-70" font-family="Helvetica,sans-Serif" font-size="10.00" fill="grey"> +impl</text>
</g>
<!-- Node5 -->
<g id="Node000005" class="node">
<title>Node5</title>
<g id="a_Node000005"><a xlink:title=" ">
<polygon fill="white" stroke="transparent" points="281,-145 258,-145 258,-96 281,-96 281,-145"/>
<text text-anchor="start" x="263.5" y="-132.5" font-family="Helvetica,sans-Serif" font-size="10.00">int</text>
<text text-anchor="start" x="268" y="-117.5" font-family="Helvetica,sans-Serif" font-size="10.00"> </text>
<text text-anchor="start" x="268" y="-102.5" font-family="Helvetica,sans-Serif" font-size="10.00"> </text>
<polygon fill="#666666" stroke="#666666" points="258.5,-127.5 258.5,-127.5 281.5,-127.5 281.5,-127.5 258.5,-127.5"/>
<polygon fill="#666666" stroke="#666666" points="258.5,-112.5 258.5,-112.5 281.5,-112.5 281.5,-112.5 258.5,-112.5"/>
<polygon fill="none" stroke="#666666" points="258,-96 258,-145 281,-145 281,-96 258,-96"/>
</a>
</g>
</g>
<!-- Node5&#45;&gt;Node1 -->
<g id="edge4_Node000001_Node000005" class="edge">
<title>Node5&#45;&gt;Node1</title>
<g id="a_edge4_Node000001_Node000005"><a xlink:title=" ">
<path fill="none" stroke="#63b8ff" d="M257.91,-96.57C252.44,-86.9 245.37,-75.85 237.5,-67 234.49,-63.61 231.17,-60.3 227.71,-57.12"/>
<polygon fill="none" stroke="#63b8ff" points="227.42,-56.87 220.27,-55.98 218.34,-49.03 225.49,-49.92 227.42,-56.87"/>
</a>
</g>
<text text-anchor="middle" x="277.5" y="-70" font-family="Helvetica,sans-Serif" font-size="10.00" fill="grey"> +owns_data</text>
</g>
</g>
</svg>
</svg>

<style type='text/css'>
<![CDATA[
[data-mouse-over-selected='false'] { opacity: 0.7; }
[data-mouse-over-selected='true']  { opacity: 1.0; }
]]>
</style>
<script type="application/ecmascript"><![CDATA[
document.addEventListener('DOMContentLoaded', (event) => {
  highlightEdges();
  highlightAdjacentNodes();
});
]]></script>
</svg>
