<?xml version="1.0" encoding="UTF-8" standalone="no"?>
<!DOCTYPE svg PUBLIC "-//W3C//DTD SVG 1.1//EN"
 "http://www.w3.org/Graphics/SVG/1.1/DTD/svg11.dtd">
<!-- Generated by graphviz version 2.43.0 (0)
 -->
<!-- Title: lmmc_itersolve_config_t Pages: 1 -->
<svg width="380pt" height="260pt"
 viewBox="0.00 0.00 380.00 260.00" xmlns="http://www.w3.org/2000/svg" xmlns:xlink="http://www.w3.org/1999/xlink">

<svg id="main" version="1.1" xmlns="http://www.w3.org/2000/svg" xmlns:xlink="http://www.w3.org/1999/xlink" xml:space="preserve" onload="init(evt)">
<style type="text/css"><![CDATA[
.node, .edge {opacity: 0.7;}
.node.selected, .edge.selected {opacity: 1;}
.edge:hover path { stroke: red; }
.edge:hover polygon { stroke: red; fill: red; }
]]></style>
<script type="application/ecmascript" xlink:href="svg.min.js"/>
<svg id="graph" class="graph">
<g id="graph0" class="graph" transform="scale(1 1) rotate(0) translate(4 256)">
<title>lmmc_itersolve_config_t</title>
<!-- Node1 -->
<g id="Node000001" class="node">
<title>Node1</title>
<g id="a_Node000001"><a xlink:title="迭代求解器配置。">
<polygon fill="#999999" stroke="transparent" points="241,-49 111,-49 111,0 241,0 241,-49"/>
<text text-anchor="start" x="116" y="-36.5" font-family="Helvetica,sans-Serif" font-size="10.00">lmmc_itersolve_config_t</text>
<text text-anchor="start" x="174" y="-21.5" font-family="Helvetica,sans-Serif" font-size="10.00"> </text>
<text text-anchor="start" x="174" y="-6.5" font-family="Helvetica,sans-Serif" font-size="10.00"> </text>
<polygon fill="#666666" stroke="#666666" points="111,-31.5 111,-31.5 241,-31.5 241,-31.5 111,-31.5"/>
<polygon fill="#666666" stroke="#666666" points="111,-16.5 111,-16.5 241,-16.5 241,-16.5 111,-16.5"/>
<polygon fill="none" stroke="#666666" points="111,0 111,-49 241,-49 241,0 111,0"/>
</a>
</g>
</g>
<!-- Node2 -->
<g id="Node000002" class="node">
<title>Node2</title>
<g id="a_Node000002"><a xlink:title=" ">
<polygon fill="white" stroke="transparent" points="44,-252 0,-252 0,-203 44,-203 44,-252"/>
<text text-anchor="start" x="5" y="-239.5" font-family="Helvetica,sans-Serif" font-size="10.00">double</text>
<text text-anchor="start" x="20" y="-224.5" font-family="Helvetica,sans-Serif" font-size="10.00"> </text>
<text text-anchor="start" x="20" y="-209.5" font-family="Helvetica,sans-Serif" font-size="10.00"> </text>
<polygon fill="#666666" stroke="#666666" points="0,-234.5 0,-234.5 44,-234.5 44,-234.5 0,-234.5"/>
<polygon fill="#666666" stroke="#666666" points="0,-219.5 0,-219.5 44,-219.5 44,-219.5 0,-219.5"/>
<polygon fill="none" stroke="#666666" points="0,-203 0,-252 44,-252 44,-203 0,-203"/>
</a>
</g>
</g>
<!-- Node2&#45;&gt;Node1 -->
<g id="edge1_Node000001_Node000002" class="edge">
<title>Node2&#45;&gt;Node1</title>
<g id="a_edge1_Node000001_Node000002"><a xlink:title=" ">
<path fill="none" stroke="#63b8ff" d="M12.71,-202.54C4.42,-176.91 -3.89,-136.03 14,-107 32.83,-76.45 67.02,-56.94 99.15,-44.71"/>
<polygon fill="none" stroke="#63b8ff" points="99.56,-44.56 103.86,-38.77 110.86,-40.52 106.55,-46.31 99.56,-44.56"/>
</a>
</g>
<text text-anchor="middle" x="37.5" y="-134.5" font-family="Helvetica,sans-Serif" font-size="10.00" fill="grey"> +abs_tol</text>
<text text-anchor="middle" x="37.5" y="-123.5" font-family="Helvetica,sans-Serif" font-size="10.00" fill="grey">+rel_tol</text>
</g>
<!-- Node6 -->
<g id="Node000006" class="node">
<title>Node6</title>
<g id="a_Node000006"><a xlink:href="dense_8h.html#structlmmc__vec__t" target="_top" xlink:title="一维稠密向量。">
<polygon fill="white" stroke="transparent" points="140,-156 70,-156 70,-107 140,-107 140,-156"/>
<text text-anchor="start" x="75" y="-143.5" font-family="Helvetica,sans-Serif" font-size="10.00">lmmc_vec_t</text>
<text text-anchor="start" x="103" y="-128.5" font-family="Helvetica,sans-Serif" font-size="10.00"> </text>
<text text-anchor="start" x="103" y="-113.5" font-family="Helvetica,sans-Serif" font-size="10.00"> </text>
<polygon fill="#666666" stroke="#666666" points="70,-138.5 70,-138.5 140,-138.5 140,-138.5 70,-138.5"/>
<polygon fill="#666666" stroke="#666666" points="70,-123.5 70,-123.5 140,-123.5 140,-123.5 70,-123.5"/>
<polygon fill="none" stroke="#666666" points="70,-107 70,-156 140,-156 140,-107 70,-107"/>
</a>
</g>
</g>
<!-- Node2&#45;&gt;Node6 -->
<g id="edge7_Node000006_Node000002" class="edge">
<title>Node2&#45;&gt;Node6</title>
<g id="a_edge7_Node000006_Node000002"><a xlink:title=" ">
<path fill="none" stroke="#63b8ff" d="M35.89,-202.78C41.86,-193.4 49.25,-182.79 57,-174 59.82,-170.81 62.88,-167.63 66.05,-164.54"/>
<polygon fill="none" stroke="#63b8ff" points="66.34,-164.27 68.02,-157.25 75.14,-156.11 73.46,-163.12 66.34,-164.27"/>
</a>
</g>
<text text-anchor="middle" x="74" y="-177" font-family="Helvetica,sans-Serif" font-size="10.00" fill="grey"> +data</text>
</g>
<!-- Node3 -->
<g id="Node000003" class="node">
<title>Node3</title>
<g id="a_Node000003"><a xlink:title=" ">
<polygon fill="white" stroke="transparent" points="300.5,-252 261.5,-252 261.5,-203 300.5,-203 300.5,-252"/>
<text text-anchor="start" x="267" y="-239.5" font-family="Helvetica,sans-Serif" font-size="10.00">size_t</text>
<text text-anchor="start" x="279.5" y="-224.5" font-family="Helvetica,sans-Serif" font-size="10.00"> </text>
<text text-anchor="start" x="279.5" y="-209.5" font-family="Helvetica,sans-Serif" font-size="10.00"> </text>
<polygon fill="#666666" stroke="#666666" points="262,-234.5 262,-234.5 301,-234.5 301,-234.5 262,-234.5"/>
<polygon fill="#666666" stroke="#666666" points="262,-219.5 262,-219.5 301,-219.5 301,-219.5 262,-219.5"/>
<polygon fill="none" stroke="#666666" points="261.5,-203 261.5,-252 300.5,-252 300.5,-203 261.5,-203"/>
</a>
</g>
</g>
<!-- Node3&#45;&gt;Node1 -->
<g id="edge2_Node000001_Node000003" class="edge">
<title>Node3&#45;&gt;Node1</title>
<g id="a_edge2_Node000001_Node000003"><a xlink:title=" ">
<path fill="none" stroke="#63b8ff" d="M294.69,-202.89C312.14,-169.36 336.67,-107.52 307,-67 294.16,-49.46 273.86,-39.15 253.04,-33.14"/>
<polygon fill="none" stroke="#63b8ff" points="252.76,-33.07 245.97,-35.49 241.12,-30.16 247.91,-27.73 252.76,-33.07"/>
</a>
</g>
<text text-anchor="middle" x="346" y="-140" font-family="Helvetica,sans-Serif" font-size="10.00" fill="grey"> +log_cb</text>
<text text-anchor="middle" x="346" y="-129" font-family="Helvetica,sans-Serif" font-size="10.00" fill="grey">+max_iter</text>
<text text-anchor="middle" x="346" y="-118" font-family="Helvetica,sans-Serif" font-size="10.00" fill="grey">+restart</text>
</g>
<!-- Node3&#45;&gt;Node6 -->
<g id="edge6_Node000006_Node000003" class="edge">
<title>Node3&#45;&gt;Node6</title>
<g id="a_edge6_Node000006_Node000003"><a xlink:title=" ">
<path fill="none" stroke="#63b8ff" d="M261.49,-216.08C234.97,-201.92 186.72,-176.15 150.79,-156.95"/>
<polygon fill="none" stroke="#63b8ff" points="150.65,-156.88 143.47,-157.58 140.07,-151.23 147.24,-150.53 150.65,-156.88"/>
</a>
</g>
<text text-anchor="middle" x="213.5" y="-177" font-family="Helvetica,sans-Serif" font-size="10.00" fill="grey"> +size</text>
</g>
<!-- Node4 -->
<g id="Node000004" class="node">
<title>Node4</title>
<g id="a_Node000004"><a xlink:title=" ">
<polygon fill="white" stroke="transparent" points="147.5,-252 124.5,-252 124.5,-203 147.5,-203 147.5,-252"/>
<text text-anchor="start" x="130" y="-239.5" font-family="Helvetica,sans-Serif" font-size="10.00">int</text>
<text text-anchor="start" x="134.5" y="-224.5" font-family="Helvetica,sans-Serif" font-size="10.00"> </text>
<text text-anchor="start" x="134.5" y="-209.5" font-family="Helvetica,sans-Serif" font-size="10.00"> </text>
<polygon fill="#666666" stroke="#666666" points="125,-234.5 125,-234.5 148,-234.5 148,-234.5 125,-234.5"/>
<polygon fill="#666666" stroke="#666666" points="125,-219.5 125,-219.5 148,-219.5 148,-219.5 125,-219.5"/>
<polygon fill="none" stroke="#666666" points="124.5,-203 124.5,-252 147.5,-252 147.5,-203 124.5,-203"/>
</a>
</g>
</g>
<!-- Node4&#45;&gt;Node1 -->
<g id="edge3_Node000001_Node000004" class="edge">
<title>Node4&#45;&gt;Node1</title>
<g id="a_edge3_Node000001_Node000004"><a xlink:title=" ">
<path fill="none" stroke="#63b8ff" d="M147.74,-211.62C153.04,-204.07 158.81,-194.51 162,-185 175.7,-144.17 177.94,-94.34 177.58,-61.36"/>
<polygon fill="none" stroke="#63b8ff" points="177.58,-61.17 173.45,-55.26 177.32,-49.18 181.45,-55.09 177.58,-61.17"/>
</a>
</g>
<text text-anchor="middle" x="201.5" y="-129" font-family="Helvetica,sans-Serif" font-size="10.00" fill="grey"> +verbose</text>
</g>
<!-- Node4&#45;&gt;Node6 -->
<g id="edge8_Node000006_Node000004" class="edge">
<title>Node4&#45;&gt;Node6</title>
<g id="a_edge8_Node000006_Node000004"><a xlink:title=" ">
<path fill="none" stroke="#63b8ff" d="M124.21,-217.77C115.12,-210.24 103.24,-198.48 98,-185 95.96,-179.75 95.3,-174 95.47,-168.3"/>
<polygon fill="none" stroke="#63b8ff" points="95.5,-168 92.27,-161.56 96.97,-156.09 100.21,-162.54 95.5,-168"/>
</a>
</g>
<text text-anchor="middle" x="130" y="-177" font-family="Helvetica,sans-Serif" font-size="10.00" fill="grey"> +owns_data</text>
</g>
<!-- Node5 -->
<g id="Node000005" class="node">
<title>Node5</title>
<g id="a_Node000005"><a xlink:title=" ">
<polygon fill="white" stroke="transparent" points="285,-156 245,-156 245,-107 285,-107 285,-156"/>
<text text-anchor="start" x="250" y="-143.5" font-family="Helvetica,sans-Serif" font-size="10.00">void *</text>
<text text-anchor="start" x="263" y="-128.5" font-family="Helvetica,sans-Serif" font-size="10.00"> </text>
<text text-anchor="start" x="263" y="-113.5" font-family="Helvetica,sans-Serif" font-size="10.00"> </text>
<polygon fill="#666666" stroke="#666666" points="245,-138.5 245,-138.5 285,-138.5 285,-138.5 245,-138.5"/>
<polygon fill="#666666" stroke="#666666" points="245,-123.5 245,-123.5 285,-123.5 285,-123.5 245,-123.5"/>
<polygon fill="none" stroke="#666666" points="245,-107 245,-156 285,-156 285,-107 245,-107"/>
</a>
</g>
</g>
<!-- Node5&#45;&gt;Node1 -->
<g id="edge4_Node000001_Node000005" class="edge">
<title>Node5&#45;&gt;Node1</title>
<g id="a_edge4_Node000001_Node000005"><a xlink:title=" ">
<path fill="none" stroke="#63b8ff" d="M244.62,-108.77C238.84,-102.47 232.6,-95.52 227,-89 218.65,-79.26 209.8,-68.45 201.87,-58.54"/>
<polygon fill="none" stroke="#63b8ff" points="201.77,-58.41 194.9,-56.2 194.3,-49.02 201.16,-51.22 201.77,-58.41"/>
</a>
</g>
<text text-anchor="middle" x="267" y="-81" font-family="Helvetica,sans-Serif" font-size="10.00" fill="grey"> +log_user_data</text>
<text text-anchor="middle" x="267" y="-70" font-family="Helvetica,sans-Serif" font-size="10.00" fill="grey">+op_user_data</text>
</g>
<!-- Node6&#45;&gt;Node1 -->
<g id="edge5_Node000001_Node000006" class="edge">
<title>Node6&#45;&gt;Node1</title>
<g id="a_edge5_Node000001_Node000006"><a xlink:title=" ">
<path fill="none" stroke="#63b8ff" d="M100.08,-107C98.68,-94.34 99.08,-78.92 106,-67 108.02,-63.52 110.46,-60.3 113.2,-57.32"/>
<polygon fill="none" stroke="#63b8ff" points="113.32,-57.2 115.06,-50.2 122.19,-49.12 120.45,-56.12 113.32,-57.2"/>
</a>
</g>
<text text-anchor="middle" x="134" y="-75.5" font-family="Helvetica,sans-Serif" font-size="10.00" fill="grey"> +apply_op</text>
</g>
</g>
</svg>
</svg>

<style type='text/css'>
<![CDATA[
[data-mouse-over-selected='false'] { opacity: 0.7; }
[data-mouse-over-selected='true']  { opacity: 1.0; }
]]>
</style>
<script type="application/ecmascript"><![CDATA[
document.addEventListener('DOMContentLoaded', (event) => {
  highlightEdges();
  highlightAdjacentNodes();
});
]]></script>
</svg>
