<?xml version="1.0" encoding="UTF-8" standalone="no"?>
<!DOCTYPE svg PUBLIC "-//W3C//DTD SVG 1.1//EN"
 "http://www.w3.org/Graphics/SVG/1.1/DTD/svg11.dtd">
<!-- Generated by graphviz version 2.43.0 (0)
 -->
<!-- Title: lmmc_sparse_coo_t Pages: 1 -->
<svg width="140pt" height="208pt"
 viewBox="0.00 0.00 139.50 208.00" xmlns="http://www.w3.org/2000/svg" xmlns:xlink="http://www.w3.org/1999/xlink">

<svg id="main" version="1.1" xmlns="http://www.w3.org/2000/svg" xmlns:xlink="http://www.w3.org/1999/xlink" xml:space="preserve" onload="init(evt)">
<style type="text/css"><![CDATA[
.node, .edge {opacity: 0.7;}
.node.selected, .edge.selected {opacity: 1;}
.edge:hover path { stroke: red; }
.edge:hover polygon { stroke: red; fill: red; }
]]></style>
<script type="application/ecmascript" xlink:href="svg.min.js"/>
<svg id="graph" class="graph">
<g id="graph0" class="graph" transform="scale(1 1) rotate(0) translate(4 204)">
<title>lmmc_sparse_coo_t</title>
<!-- Node1 -->
<g id="Node000001" class="node">
<title>Node1</title>
<g id="a_Node000001"><a xlink:title="三元组 (COO) 形式的稀疏矩阵临时表示。">
<polygon fill="#999999" stroke="transparent" points="111,-49 4,-49 4,0 111,0 111,-49"/>
<text text-anchor="start" x="9.5" y="-36.5" font-family="Helvetica,sans-Serif" font-size="10.00">lmmc_sparse_coo_t</text>
<text text-anchor="start" x="56" y="-21.5" font-family="Helvetica,sans-Serif" font-size="10.00"> </text>
<text text-anchor="start" x="56" y="-6.5" font-family="Helvetica,sans-Serif" font-size="10.00"> </text>
<polygon fill="#666666" stroke="#666666" points="4.5,-31.5 4.5,-31.5 111.5,-31.5 111.5,-31.5 4.5,-31.5"/>
<polygon fill="#666666" stroke="#666666" points="4.5,-16.5 4.5,-16.5 111.5,-16.5 111.5,-16.5 4.5,-16.5"/>
<polygon fill="none" stroke="#666666" points="4,0 4,-49 111,-49 111,0 4,0"/>
</a>
</g>
</g>
<!-- Node2 -->
<g id="Node000002" class="node">
<title>Node2</title>
<g id="a_Node000002"><a xlink:title=" ">
<polygon fill="white" stroke="transparent" points="39,-200 0,-200 0,-151 39,-151 39,-200"/>
<text text-anchor="start" x="5.5" y="-187.5" font-family="Helvetica,sans-Serif" font-size="10.00">size_t</text>
<text text-anchor="start" x="18" y="-172.5" font-family="Helvetica,sans-Serif" font-size="10.00"> </text>
<text text-anchor="start" x="18" y="-157.5" font-family="Helvetica,sans-Serif" font-size="10.00"> </text>
<polygon fill="#666666" stroke="#666666" points="0.5,-182.5 0.5,-182.5 39.5,-182.5 39.5,-182.5 0.5,-182.5"/>
<polygon fill="#666666" stroke="#666666" points="0.5,-167.5 0.5,-167.5 39.5,-167.5 39.5,-167.5 0.5,-167.5"/>
<polygon fill="none" stroke="#666666" points="0,-151 0,-200 39,-200 39,-151 0,-151"/>
</a>
</g>
</g>
<!-- Node2&#45;&gt;Node1 -->
<g id="edge1_Node000001_Node000002" class="edge">
<title>Node2&#45;&gt;Node1</title>
<g id="a_edge1_Node000001_Node000002"><a xlink:title=" ">
<path fill="none" stroke="#63b8ff" d="M15.09,-150.97C11.96,-128.57 9.94,-94.33 20.5,-67 21.49,-64.44 22.72,-61.94 24.11,-59.51"/>
<polygon fill="none" stroke="#63b8ff" points="24.29,-59.26 24.43,-52.05 31.14,-49.41 31,-56.62 24.29,-59.26"/>
</a>
</g>
<text text-anchor="middle" x="47" y="-125" font-family="Helvetica,sans-Serif" font-size="10.00" fill="grey"> +capacity</text>
<text text-anchor="middle" x="47" y="-114" font-family="Helvetica,sans-Serif" font-size="10.00" fill="grey">+col_idx</text>
<text text-anchor="middle" x="47" y="-103" font-family="Helvetica,sans-Serif" font-size="10.00" fill="grey">+cols</text>
<text text-anchor="middle" x="47" y="-92" font-family="Helvetica,sans-Serif" font-size="10.00" fill="grey">+nnz</text>
<text text-anchor="middle" x="47" y="-81" font-family="Helvetica,sans-Serif" font-size="10.00" fill="grey">+row_idx</text>
<text text-anchor="middle" x="47" y="-70" font-family="Helvetica,sans-Serif" font-size="10.00" fill="grey">+rows</text>
</g>
<!-- Node3 -->
<g id="Node000003" class="node">
<title>Node3</title>
<g id="a_Node000003"><a xlink:title=" ">
<polygon fill="white" stroke="transparent" points="117.5,-200 73.5,-200 73.5,-151 117.5,-151 117.5,-200"/>
<text text-anchor="start" x="78.5" y="-187.5" font-family="Helvetica,sans-Serif" font-size="10.00">double</text>
<text text-anchor="start" x="93.5" y="-172.5" font-family="Helvetica,sans-Serif" font-size="10.00"> </text>
<text text-anchor="start" x="93.5" y="-157.5" font-family="Helvetica,sans-Serif" font-size="10.00"> </text>
<polygon fill="#666666" stroke="#666666" points="73.5,-182.5 73.5,-182.5 117.5,-182.5 117.5,-182.5 73.5,-182.5"/>
<polygon fill="#666666" stroke="#666666" points="73.5,-167.5 73.5,-167.5 117.5,-167.5 117.5,-167.5 73.5,-167.5"/>
<polygon fill="none" stroke="#666666" points="73.5,-151 73.5,-200 117.5,-200 117.5,-151 73.5,-151"/>
</a>
</g>
</g>
<!-- Node3&#45;&gt;Node1 -->
<g id="edge2_Node000001_Node000003" class="edge">
<title>Node3&#45;&gt;Node1</title>
<g id="a_edge2_Node000001_Node000003"><a xlink:title=" ">
<path fill="none" stroke="#63b8ff" d="M91.8,-150.74C88.11,-128.77 81.8,-95.34 73.5,-67 72.92,-65.01 72.28,-62.99 71.61,-60.95"/>
<polygon fill="none" stroke="#63b8ff" points="71.52,-60.71 65.74,-56.4 67.49,-49.41 73.28,-53.71 71.52,-60.71"/>
</a>
</g>
<text text-anchor="middle" x="109.5" y="-97.5" font-family="Helvetica,sans-Serif" font-size="10.00" fill="grey"> +values</text>
</g>
</g>
</svg>
</svg>

<style type='text/css'>
<![CDATA[
[data-mouse-over-selected='false'] { opacity: 0.7; }
[data-mouse-over-selected='true']  { opacity: 1.0; }
]]>
</style>
<script type="application/ecmascript"><![CDATA[
document.addEventListener('DOMContentLoaded', (event) => {
  highlightEdges();
  highlightAdjacentNodes();
});
]]></script>
</svg>
