<?xml version="1.0" encoding="UTF-8" standalone="no"?>
<!DOCTYPE svg PUBLIC "-//W3C//DTD SVG 1.1//EN"
 "http://www.w3.org/Graphics/SVG/1.1/DTD/svg11.dtd">
<!-- Generated by graphviz version 2.43.0 (0)
 -->
<!-- Title: lmmc_optimize_config_t Pages: 1 -->
<svg width="272pt" height="175pt"
 viewBox="0.00 0.00 272.00 175.00" xmlns="http://www.w3.org/2000/svg" xmlns:xlink="http://www.w3.org/1999/xlink">

<svg id="main" version="1.1" xmlns="http://www.w3.org/2000/svg" xmlns:xlink="http://www.w3.org/1999/xlink" xml:space="preserve" onload="init(evt)">
<style type="text/css"><![CDATA[
.node, .edge {opacity: 0.7;}
.node.selected, .edge.selected {opacity: 1;}
.edge:hover path { stroke: red; }
.edge:hover polygon { stroke: red; fill: red; }
]]></style>
<script type="application/ecmascript" xlink:href="svg.min.js"/>
<svg id="graph" class="graph">
<g id="graph0" class="graph" transform="scale(1 1) rotate(0) translate(4 171)">
<title>lmmc_optimize_config_t</title>
<!-- Node1 -->
<g id="Node000001" class="node">
<title>Node1</title>
<g id="a_Node000001"><a xlink:title="优化算法配置参数。">
<polygon fill="#999999" stroke="transparent" points="180,-49 50,-49 50,0 180,0 180,-49"/>
<text text-anchor="start" x="55" y="-36.5" font-family="Helvetica,sans-Serif" font-size="10.00">lmmc_optimize_config_t</text>
<text text-anchor="start" x="113" y="-21.5" font-family="Helvetica,sans-Serif" font-size="10.00"> </text>
<text text-anchor="start" x="113" y="-6.5" font-family="Helvetica,sans-Serif" font-size="10.00"> </text>
<polygon fill="#666666" stroke="#666666" points="50,-31.5 50,-31.5 180,-31.5 180,-31.5 50,-31.5"/>
<polygon fill="#666666" stroke="#666666" points="50,-16.5 50,-16.5 180,-16.5 180,-16.5 50,-16.5"/>
<polygon fill="none" stroke="#666666" points="50,0 50,-49 180,-49 180,0 50,0"/>
</a>
</g>
</g>
<!-- Node2 -->
<g id="Node000002" class="node">
<title>Node2</title>
<g id="a_Node000002"><a xlink:title=" ">
<polygon fill="white" stroke="transparent" points="44,-167 0,-167 0,-118 44,-118 44,-167"/>
<text text-anchor="start" x="5" y="-154.5" font-family="Helvetica,sans-Serif" font-size="10.00">double</text>
<text text-anchor="start" x="20" y="-139.5" font-family="Helvetica,sans-Serif" font-size="10.00"> </text>
<text text-anchor="start" x="20" y="-124.5" font-family="Helvetica,sans-Serif" font-size="10.00"> </text>
<polygon fill="#666666" stroke="#666666" points="0,-149.5 0,-149.5 44,-149.5 44,-149.5 0,-149.5"/>
<polygon fill="#666666" stroke="#666666" points="0,-134.5 0,-134.5 44,-134.5 44,-134.5 0,-134.5"/>
<polygon fill="none" stroke="#666666" points="0,-118 0,-167 44,-167 44,-118 0,-118"/>
</a>
</g>
</g>
<!-- Node2&#45;&gt;Node1 -->
<g id="edge1_Node000001_Node000002" class="edge">
<title>Node2&#45;&gt;Node1</title>
<g id="a_edge1_Node000001_Node000002"><a xlink:title=" ">
<path fill="none" stroke="#63b8ff" d="M23.24,-117.92C25.14,-102.12 29.78,-81.61 41,-67 43.89,-63.23 47.23,-59.75 50.86,-56.55"/>
<polygon fill="none" stroke="#63b8ff" points="50.9,-56.52 53.19,-49.68 60.38,-49.16 58.1,-56 50.9,-56.52"/>
</a>
</g>
<text text-anchor="middle" x="76" y="-92" font-family="Helvetica,sans-Serif" font-size="10.00" fill="grey"> +abs_tol</text>
<text text-anchor="middle" x="76" y="-81" font-family="Helvetica,sans-Serif" font-size="10.00" fill="grey">+lm_damping</text>
<text text-anchor="middle" x="76" y="-70" font-family="Helvetica,sans-Serif" font-size="10.00" fill="grey">+rel_tol</text>
</g>
<!-- Node3 -->
<g id="Node000003" class="node">
<title>Node3</title>
<g id="a_Node000003"><a xlink:title=" ">
<polygon fill="white" stroke="transparent" points="134.5,-167 95.5,-167 95.5,-118 134.5,-118 134.5,-167"/>
<text text-anchor="start" x="101" y="-154.5" font-family="Helvetica,sans-Serif" font-size="10.00">size_t</text>
<text text-anchor="start" x="113.5" y="-139.5" font-family="Helvetica,sans-Serif" font-size="10.00"> </text>
<text text-anchor="start" x="113.5" y="-124.5" font-family="Helvetica,sans-Serif" font-size="10.00"> </text>
<polygon fill="#666666" stroke="#666666" points="96,-149.5 96,-149.5 135,-149.5 135,-149.5 96,-149.5"/>
<polygon fill="#666666" stroke="#666666" points="96,-134.5 96,-134.5 135,-134.5 135,-134.5 96,-134.5"/>
<polygon fill="none" stroke="#666666" points="95.5,-118 95.5,-167 134.5,-167 134.5,-118 95.5,-118"/>
</a>
</g>
</g>
<!-- Node3&#45;&gt;Node1 -->
<g id="edge2_Node000001_Node000003" class="edge">
<title>Node3&#45;&gt;Node1</title>
<g id="a_edge2_Node000001_Node000003"><a xlink:title=" ">
<path fill="none" stroke="#63b8ff" d="M115,-117.75C115,-101.48 115,-79.62 115,-61.26"/>
<polygon fill="none" stroke="#63b8ff" points="115,-61.22 111,-55.22 115,-49.22 119,-55.22 115,-61.22"/>
</a>
</g>
<text text-anchor="middle" x="156" y="-86.5" font-family="Helvetica,sans-Serif" font-size="10.00" fill="grey"> +lbfgs_memory</text>
<text text-anchor="middle" x="156" y="-75.5" font-family="Helvetica,sans-Serif" font-size="10.00" fill="grey">+max_iter</text>
</g>
<!-- Node4 -->
<g id="Node000004" class="node">
<title>Node4</title>
<g id="a_Node000004"><a xlink:title=" ">
<polygon fill="white" stroke="transparent" points="231.5,-167 208.5,-167 208.5,-118 231.5,-118 231.5,-167"/>
<text text-anchor="start" x="214" y="-154.5" font-family="Helvetica,sans-Serif" font-size="10.00">int</text>
<text text-anchor="start" x="218.5" y="-139.5" font-family="Helvetica,sans-Serif" font-size="10.00"> </text>
<text text-anchor="start" x="218.5" y="-124.5" font-family="Helvetica,sans-Serif" font-size="10.00"> </text>
<polygon fill="#666666" stroke="#666666" points="209,-149.5 209,-149.5 232,-149.5 232,-149.5 209,-149.5"/>
<polygon fill="#666666" stroke="#666666" points="209,-134.5 209,-134.5 232,-134.5 232,-134.5 209,-134.5"/>
<polygon fill="none" stroke="#666666" points="208.5,-118 208.5,-167 231.5,-167 231.5,-118 208.5,-118"/>
</a>
</g>
</g>
<!-- Node4&#45;&gt;Node1 -->
<g id="edge3_Node000001_Node000004" class="edge">
<title>Node4&#45;&gt;Node1</title>
<g id="a_edge3_Node000001_Node000004"><a xlink:title=" ">
<path fill="none" stroke="#63b8ff" d="M217.9,-117.7C215.41,-101.8 209.95,-81.27 198,-67 194.74,-63.11 191.03,-59.55 187.02,-56.29"/>
<polygon fill="none" stroke="#63b8ff" points="186.96,-56.25 179.75,-56 177.22,-49.25 184.42,-49.5 186.96,-56.25"/>
</a>
</g>
<text text-anchor="middle" x="238.5" y="-81" font-family="Helvetica,sans-Serif" font-size="10.00" fill="grey"> +verbose</text>
</g>
</g>
</svg>
</svg>

<style type='text/css'>
<![CDATA[
[data-mouse-over-selected='false'] { opacity: 0.7; }
[data-mouse-over-selected='true']  { opacity: 1.0; }
]]>
</style>
<script type="application/ecmascript"><![CDATA[
document.addEventListener('DOMContentLoaded', (event) => {
  highlightEdges();
  highlightAdjacentNodes();
});
]]></script>
</svg>
