<?xml version="1.0" encoding="UTF-8" standalone="no"?>
<!DOCTYPE svg PUBLIC "-//W3C//DTD SVG 1.1//EN"
 "http://www.w3.org/Graphics/SVG/1.1/DTD/svg11.dtd">
<!-- Generated by graphviz version 2.43.0 (0)
 -->
<!-- Title: lmmc_vec_t Pages: 1 -->
<svg width="192pt" height="153pt"
 viewBox="0.00 0.00 191.50 153.00" xmlns="http://www.w3.org/2000/svg" xmlns:xlink="http://www.w3.org/1999/xlink">

<svg id="main" version="1.1" xmlns="http://www.w3.org/2000/svg" xmlns:xlink="http://www.w3.org/1999/xlink" xml:space="preserve" onload="init(evt)">
<style type="text/css"><![CDATA[
.node, .edge {opacity: 0.7;}
.node.selected, .edge.selected {opacity: 1;}
.edge:hover path { stroke: red; }
.edge:hover polygon { stroke: red; fill: red; }
]]></style>
<script type="application/ecmascript" xlink:href="svg.min.js"/>
<svg id="graph" class="graph">
<g id="graph0" class="graph" transform="scale(1 1) rotate(0) translate(4 149)">
<title>lmmc_vec_t</title>
<!-- Node1 -->
<g id="Node000001" class="node">
<title>Node1</title>
<g id="a_Node000001"><a xlink:title="一维稠密向量。">
<polygon fill="#999999" stroke="transparent" points="114.5,-49 44.5,-49 44.5,0 114.5,0 114.5,-49"/>
<text text-anchor="start" x="49.5" y="-36.5" font-family="Helvetica,sans-Serif" font-size="10.00">lmmc_vec_t</text>
<text text-anchor="start" x="77.5" y="-21.5" font-family="Helvetica,sans-Serif" font-size="10.00"> </text>
<text text-anchor="start" x="77.5" y="-6.5" font-family="Helvetica,sans-Serif" font-size="10.00"> </text>
<polygon fill="#666666" stroke="#666666" points="44.5,-31.5 44.5,-31.5 114.5,-31.5 114.5,-31.5 44.5,-31.5"/>
<polygon fill="#666666" stroke="#666666" points="44.5,-16.5 44.5,-16.5 114.5,-16.5 114.5,-16.5 44.5,-16.5"/>
<polygon fill="none" stroke="#666666" points="44.5,0 44.5,-49 114.5,-49 114.5,0 44.5,0"/>
</a>
</g>
</g>
<!-- Node2 -->
<g id="Node000002" class="node">
<title>Node2</title>
<g id="a_Node000002"><a xlink:title=" ">
<polygon fill="white" stroke="transparent" points="39,-145 0,-145 0,-96 39,-96 39,-145"/>
<text text-anchor="start" x="5.5" y="-132.5" font-family="Helvetica,sans-Serif" font-size="10.00">size_t</text>
<text text-anchor="start" x="18" y="-117.5" font-family="Helvetica,sans-Serif" font-size="10.00"> </text>
<text text-anchor="start" x="18" y="-102.5" font-family="Helvetica,sans-Serif" font-size="10.00"> </text>
<polygon fill="#666666" stroke="#666666" points="0.5,-127.5 0.5,-127.5 39.5,-127.5 39.5,-127.5 0.5,-127.5"/>
<polygon fill="#666666" stroke="#666666" points="0.5,-112.5 0.5,-112.5 39.5,-112.5 39.5,-112.5 0.5,-112.5"/>
<polygon fill="none" stroke="#666666" points="0,-96 0,-145 39,-145 39,-96 0,-96"/>
</a>
</g>
</g>
<!-- Node2&#45;&gt;Node1 -->
<g id="edge1_Node000001_Node000002" class="edge">
<title>Node2&#45;&gt;Node1</title>
<g id="a_edge1_Node000001_Node000002"><a xlink:title=" ">
<path fill="none" stroke="#63b8ff" d="M29.22,-95.81C33.42,-86.54 38.7,-75.99 44.5,-67 46.26,-64.27 48.18,-61.53 50.18,-58.82"/>
<polygon fill="none" stroke="#63b8ff" points="50.27,-58.71 50.83,-51.52 57.68,-49.27 57.12,-56.46 50.27,-58.71"/>
</a>
</g>
<text text-anchor="middle" x="60" y="-70" font-family="Helvetica,sans-Serif" font-size="10.00" fill="grey"> +size</text>
</g>
<!-- Node3 -->
<g id="Node000003" class="node">
<title>Node3</title>
<g id="a_Node000003"><a xlink:title=" ">
<polygon fill="white" stroke="transparent" points="101.5,-145 57.5,-145 57.5,-96 101.5,-96 101.5,-145"/>
<text text-anchor="start" x="62.5" y="-132.5" font-family="Helvetica,sans-Serif" font-size="10.00">double</text>
<text text-anchor="start" x="77.5" y="-117.5" font-family="Helvetica,sans-Serif" font-size="10.00"> </text>
<text text-anchor="start" x="77.5" y="-102.5" font-family="Helvetica,sans-Serif" font-size="10.00"> </text>
<polygon fill="#666666" stroke="#666666" points="57.5,-127.5 57.5,-127.5 101.5,-127.5 101.5,-127.5 57.5,-127.5"/>
<polygon fill="#666666" stroke="#666666" points="57.5,-112.5 57.5,-112.5 101.5,-112.5 101.5,-112.5 57.5,-112.5"/>
<polygon fill="none" stroke="#666666" points="57.5,-96 57.5,-145 101.5,-145 101.5,-96 57.5,-96"/>
</a>
</g>
</g>
<!-- Node3&#45;&gt;Node1 -->
<g id="edge2_Node000001_Node000003" class="edge">
<title>Node3&#45;&gt;Node1</title>
<g id="a_edge2_Node000001_Node000003"><a xlink:title=" ">
<path fill="none" stroke="#63b8ff" d="M79.5,-95.78C79.5,-85.32 79.5,-72.79 79.5,-61.23"/>
<polygon fill="none" stroke="#63b8ff" points="79.5,-61.21 75.5,-55.21 79.5,-49.21 83.5,-55.21 79.5,-61.21"/>
</a>
</g>
<text text-anchor="middle" x="96.5" y="-70" font-family="Helvetica,sans-Serif" font-size="10.00" fill="grey"> +data</text>
</g>
<!-- Node4 -->
<g id="Node000004" class="node">
<title>Node4</title>
<g id="a_Node000004"><a xlink:title=" ">
<polygon fill="white" stroke="transparent" points="148,-145 125,-145 125,-96 148,-96 148,-145"/>
<text text-anchor="start" x="130.5" y="-132.5" font-family="Helvetica,sans-Serif" font-size="10.00">int</text>
<text text-anchor="start" x="135" y="-117.5" font-family="Helvetica,sans-Serif" font-size="10.00"> </text>
<text text-anchor="start" x="135" y="-102.5" font-family="Helvetica,sans-Serif" font-size="10.00"> </text>
<polygon fill="#666666" stroke="#666666" points="125.5,-127.5 125.5,-127.5 148.5,-127.5 148.5,-127.5 125.5,-127.5"/>
<polygon fill="#666666" stroke="#666666" points="125.5,-112.5 125.5,-112.5 148.5,-112.5 148.5,-112.5 125.5,-112.5"/>
<polygon fill="none" stroke="#666666" points="125,-96 125,-145 148,-145 148,-96 125,-96"/>
</a>
</g>
</g>
<!-- Node4&#45;&gt;Node1 -->
<g id="edge3_Node000001_Node000004" class="edge">
<title>Node4&#45;&gt;Node1</title>
<g id="a_edge3_Node000001_Node000004"><a xlink:title=" ">
<path fill="none" stroke="#63b8ff" d="M128.32,-95.75C124.67,-86.47 119.96,-75.94 114.5,-67 112.81,-64.23 110.94,-61.46 108.97,-58.73"/>
<polygon fill="none" stroke="#63b8ff" points="108.88,-58.62 102.05,-56.33 101.54,-49.13 108.37,-51.43 108.88,-58.62"/>
</a>
</g>
<text text-anchor="middle" x="151.5" y="-70" font-family="Helvetica,sans-Serif" font-size="10.00" fill="grey"> +owns_data</text>
</g>
</g>
</svg>
</svg>

<style type='text/css'>
<![CDATA[
[data-mouse-over-selected='false'] { opacity: 0.7; }
[data-mouse-over-selected='true']  { opacity: 1.0; }
]]>
</style>
<script type="application/ecmascript"><![CDATA[
document.addEventListener('DOMContentLoaded', (event) => {
  highlightEdges();
  highlightAdjacentNodes();
});
]]></script>
</svg>
