<?xml version="1.0" encoding="UTF-8" standalone="no"?>
<!DOCTYPE svg PUBLIC "-//W3C//DTD SVG 1.1//EN"
 "http://www.w3.org/Graphics/SVG/1.1/DTD/svg11.dtd">
<!-- Generated by graphviz version 2.43.0 (0)
 -->
<!-- Title: lmmc_interp_pchip_t Pages: 1 -->
<svg width="146pt" height="175pt"
 viewBox="0.00 0.00 145.50 175.00" xmlns="http://www.w3.org/2000/svg" xmlns:xlink="http://www.w3.org/1999/xlink">

<svg id="main" version="1.1" xmlns="http://www.w3.org/2000/svg" xmlns:xlink="http://www.w3.org/1999/xlink" xml:space="preserve" onload="init(evt)">
<style type="text/css"><![CDATA[
.node, .edge {opacity: 0.7;}
.node.selected, .edge.selected {opacity: 1;}
.edge:hover path { stroke: red; }
.edge:hover polygon { stroke: red; fill: red; }
]]></style>
<script type="application/ecmascript" xlink:href="svg.min.js"/>
<svg id="graph" class="graph">
<g id="graph0" class="graph" transform="scale(1 1) rotate(0) translate(4 171)">
<title>lmmc_interp_pchip_t</title>
<!-- Node1 -->
<g id="Node000001" class="node">
<title>Node1</title>
<g id="a_Node000001"><a xlink:title="PCHIP 插值上下文（不透明类型）。">
<polygon fill="#999999" stroke="transparent" points="115,-49 2,-49 2,0 115,0 115,-49"/>
<text text-anchor="start" x="7.5" y="-36.5" font-family="Helvetica,sans-Serif" font-size="10.00">lmmc_interp_pchip_t</text>
<text text-anchor="start" x="57" y="-21.5" font-family="Helvetica,sans-Serif" font-size="10.00"> </text>
<text text-anchor="start" x="57" y="-6.5" font-family="Helvetica,sans-Serif" font-size="10.00"> </text>
<polygon fill="#666666" stroke="#666666" points="2.5,-31.5 2.5,-31.5 115.5,-31.5 115.5,-31.5 2.5,-31.5"/>
<polygon fill="#666666" stroke="#666666" points="2.5,-16.5 2.5,-16.5 115.5,-16.5 115.5,-16.5 2.5,-16.5"/>
<polygon fill="none" stroke="#666666" points="2,0 2,-49 115,-49 115,0 2,0"/>
</a>
</g>
</g>
<!-- Node2 -->
<g id="Node000002" class="node">
<title>Node2</title>
<g id="a_Node000002"><a xlink:title=" ">
<polygon fill="white" stroke="transparent" points="39,-167 0,-167 0,-118 39,-118 39,-167"/>
<text text-anchor="start" x="5.5" y="-154.5" font-family="Helvetica,sans-Serif" font-size="10.00">size_t</text>
<text text-anchor="start" x="18" y="-139.5" font-family="Helvetica,sans-Serif" font-size="10.00"> </text>
<text text-anchor="start" x="18" y="-124.5" font-family="Helvetica,sans-Serif" font-size="10.00"> </text>
<polygon fill="#666666" stroke="#666666" points="0.5,-149.5 0.5,-149.5 39.5,-149.5 39.5,-149.5 0.5,-149.5"/>
<polygon fill="#666666" stroke="#666666" points="0.5,-134.5 0.5,-134.5 39.5,-134.5 39.5,-134.5 0.5,-134.5"/>
<polygon fill="none" stroke="#666666" points="0,-118 0,-167 39,-167 39,-118 0,-118"/>
</a>
</g>
</g>
<!-- Node2&#45;&gt;Node1 -->
<g id="edge1_Node000001_Node000002" class="edge">
<title>Node2&#45;&gt;Node1</title>
<g id="a_edge1_Node000001_Node000002"><a xlink:title=" ">
<path fill="none" stroke="#63b8ff" d="M27.49,-117.75C33.01,-101.32 40.45,-79.2 46.65,-60.73"/>
<polygon fill="none" stroke="#63b8ff" points="46.7,-60.6 44.82,-53.63 50.52,-49.22 52.4,-56.18 46.7,-60.6"/>
</a>
</g>
<text text-anchor="middle" x="53.5" y="-81" font-family="Helvetica,sans-Serif" font-size="10.00" fill="grey"> +n</text>
</g>
<!-- Node3 -->
<g id="Node000003" class="node">
<title>Node3</title>
<g id="a_Node000003"><a xlink:title=" ">
<polygon fill="white" stroke="transparent" points="137.5,-167 57.5,-167 57.5,-118 137.5,-118 137.5,-167"/>
<text text-anchor="start" x="62.5" y="-154.5" font-family="Helvetica,sans-Serif" font-size="10.00">lmmc_real_t *</text>
<text text-anchor="start" x="95.5" y="-139.5" font-family="Helvetica,sans-Serif" font-size="10.00"> </text>
<text text-anchor="start" x="95.5" y="-124.5" font-family="Helvetica,sans-Serif" font-size="10.00"> </text>
<polygon fill="#666666" stroke="#666666" points="57.5,-149.5 57.5,-149.5 137.5,-149.5 137.5,-149.5 57.5,-149.5"/>
<polygon fill="#666666" stroke="#666666" points="57.5,-134.5 57.5,-134.5 137.5,-134.5 137.5,-134.5 57.5,-134.5"/>
<polygon fill="none" stroke="#666666" points="57.5,-118 57.5,-167 137.5,-167 137.5,-118 57.5,-118"/>
</a>
</g>
</g>
<!-- Node3&#45;&gt;Node1 -->
<g id="edge2_Node000001_Node000003" class="edge">
<title>Node3&#45;&gt;Node1</title>
<g id="a_edge2_Node000001_Node000003"><a xlink:title=" ">
<path fill="none" stroke="#63b8ff" d="M89.51,-117.75C83.99,-101.32 76.55,-79.2 70.35,-60.73"/>
<polygon fill="none" stroke="#63b8ff" points="70.3,-60.6 64.6,-56.18 66.48,-49.22 72.18,-53.63 70.3,-60.6"/>
</a>
</g>
<text text-anchor="middle" x="92.5" y="-92" font-family="Helvetica,sans-Serif" font-size="10.00" fill="grey"> +d</text>
<text text-anchor="middle" x="92.5" y="-81" font-family="Helvetica,sans-Serif" font-size="10.00" fill="grey">+xs</text>
<text text-anchor="middle" x="92.5" y="-70" font-family="Helvetica,sans-Serif" font-size="10.00" fill="grey">+ys</text>
</g>
</g>
</svg>
</svg>

<style type='text/css'>
<![CDATA[
[data-mouse-over-selected='false'] { opacity: 0.7; }
[data-mouse-over-selected='true']  { opacity: 1.0; }
]]>
</style>
<script type="application/ecmascript"><![CDATA[
document.addEventListener('DOMContentLoaded', (event) => {
  highlightEdges();
  highlightAdjacentNodes();
});
]]></script>
</svg>
