<?xml version="1.0" encoding="UTF-8" standalone="no"?>
<!DOCTYPE svg PUBLIC "-//W3C//DTD SVG 1.1//EN"
 "http://www.w3.org/Graphics/SVG/1.1/DTD/svg11.dtd">
<!-- Generated by graphviz version 2.43.0 (0)
 -->
<!-- Title: lmmp_pow_ Pages: 1 -->
<svg width="247pt" height="175pt"
 viewBox="0.00 0.00 247.00 175.00" xmlns="http://www.w3.org/2000/svg" xmlns:xlink="http://www.w3.org/1999/xlink">
<g id="graph0" class="graph" transform="scale(1 1) rotate(0) translate(4 171)">
<title>lmmp_pow_</title>
<!-- Node1 -->
<g id="Node000001" class="node">
<title>Node1</title>
<g id="a_Node000001"><a xlink:title=" ">
<polygon fill="#999999" stroke="#666666" points="76,-93 0,-93 0,-74 76,-74 76,-93"/>
<text text-anchor="middle" x="38" y="-81" font-family="Helvetica,sans-Serif" font-size="10.00">lmmp_pow_</text>
</a>
</g>
</g>
<!-- Node2 -->
<g id="Node000002" class="node">
<title>Node2</title>
<g id="a_Node000002"><a xlink:href="../../d6/d39/lmmpn_8h.html#ac837c3ce41191aecaaa2f226de50331c" target="_top" xlink:title="大数乘以单limb操作 [dst,na] = [numa,na] * x">
<polygon fill="white" stroke="#666666" points="218.5,-167 132.5,-167 132.5,-148 218.5,-148 218.5,-167"/>
<text text-anchor="middle" x="175.5" y="-155" font-family="Helvetica,sans-Serif" font-size="10.00">lmmp_mul_1_</text>
</a>
</g>
</g>
<!-- Node1&#45;&gt;Node2 -->
<g id="edge1_Node000001_Node000002" class="edge">
<title>Node1&#45;&gt;Node2</title>
<g id="a_edge1_Node000001_Node000002"><a xlink:title=" ">
<path fill="none" stroke="#63b8ff" d="M49.03,-93.2C62.38,-105.61 87.19,-126.98 112,-139.5 115.58,-141.31 119.38,-142.96 123.25,-144.47"/>
<polygon fill="#63b8ff" stroke="#63b8ff" points="122.39,-147.88 132.98,-147.91 124.73,-141.28 122.39,-147.88"/>
</a>
</g>
</g>
<!-- Node3 -->
<g id="Node000003" class="node">
<title>Node3</title>
<g id="a_Node000003"><a xlink:href="../../de/da4/numth_8h.html#a488b6c19260efb247bda382e7cd30082" target="_top" xlink:title="计算幂次方 [dst,rn] = [base,1] ^ exp">
<polygon fill="white" stroke="#666666" points="219,-130 132,-130 132,-111 219,-111 219,-130"/>
<text text-anchor="middle" x="175.5" y="-118" font-family="Helvetica,sans-Serif" font-size="10.00">lmmp_pow_1_</text>
</a>
</g>
</g>
<!-- Node1&#45;&gt;Node3 -->
<g id="edge2_Node000001_Node000003" class="edge">
<title>Node1&#45;&gt;Node3</title>
<g id="a_edge2_Node000001_Node000003"><a xlink:title=" ">
<path fill="none" stroke="#63b8ff" d="M73.89,-93.03C90.83,-97.65 111.38,-103.27 129.49,-108.21"/>
<polygon fill="#63b8ff" stroke="#63b8ff" points="128.68,-111.62 139.25,-110.88 130.53,-104.86 128.68,-111.62"/>
</a>
</g>
</g>
<!-- Node4 -->
<g id="Node000004" class="node">
<title>Node4</title>
<g id="a_Node000004"><a xlink:href="../../de/da4/numth_8h.html#a60126130d859b458743e981875d5ef90" target="_top" xlink:title="计算奇数次幂算法 [dst,rn] = [base,n] ^ exp">
<polygon fill="white" stroke="#666666" points="239,-93 112,-93 112,-74 239,-74 239,-93"/>
<text text-anchor="middle" x="175.5" y="-81" font-family="Helvetica,sans-Serif" font-size="10.00">lmmp_pow_basecase_</text>
</a>
</g>
</g>
<!-- Node1&#45;&gt;Node4 -->
<g id="edge3_Node000001_Node000004" class="edge">
<title>Node1&#45;&gt;Node4</title>
<g id="a_edge3_Node000001_Node000004"><a xlink:title=" ">
<path fill="none" stroke="#63b8ff" d="M76.03,-83.5C84.11,-83.5 92.94,-83.5 101.87,-83.5"/>
<polygon fill="#63b8ff" stroke="#63b8ff" points="101.98,-87 111.98,-83.5 101.98,-80 101.98,-87"/>
</a>
</g>
</g>
<!-- Node5 -->
<g id="Node000005" class="node">
<title>Node5</title>
<g id="a_Node000005"><a xlink:href="../../de/da4/numth_8h.html#a8944e01902347d0b5e279b6b53a9e454" target="_top" xlink:title="计算幂次方需要的limb缓冲区长度 [base,n] ^ exp">
<polygon fill="white" stroke="#666666" points="226,-56 125,-56 125,-37 226,-37 226,-56"/>
<text text-anchor="middle" x="175.5" y="-44" font-family="Helvetica,sans-Serif" font-size="10.00">lmmp_pow_size_</text>
</a>
</g>
</g>
<!-- Node1&#45;&gt;Node5 -->
<g id="edge4_Node000001_Node000005" class="edge">
<title>Node1&#45;&gt;Node5</title>
<g id="a_edge4_Node000001_Node000005"><a xlink:title=" ">
<path fill="none" stroke="#63b8ff" d="M73.89,-73.97C90.83,-69.35 111.38,-63.73 129.49,-58.79"/>
<polygon fill="#63b8ff" stroke="#63b8ff" points="130.53,-62.14 139.25,-56.12 128.68,-55.38 130.53,-62.14"/>
</a>
</g>
</g>
<!-- Node6 -->
<g id="Node000006" class="node">
<title>Node6</title>
<g id="a_Node000006"><a xlink:href="../../de/da4/numth_8h.html#a35c777b6a035a93bb83caf7712e92182" target="_top" xlink:title="计算幂次方2比特窗口快速幂算法 [dst,rn] = [base,n] ^ exp">
<polygon fill="white" stroke="#666666" points="227.5,-19 123.5,-19 123.5,0 227.5,0 227.5,-19"/>
<text text-anchor="middle" x="175.5" y="-7" font-family="Helvetica,sans-Serif" font-size="10.00">lmmp_pow_win2_</text>
</a>
</g>
</g>
<!-- Node1&#45;&gt;Node6 -->
<g id="edge5_Node000001_Node000006" class="edge">
<title>Node1&#45;&gt;Node6</title>
<g id="a_edge5_Node000001_Node000006"><a xlink:title=" ">
<path fill="none" stroke="#63b8ff" d="M49.56,-73.62C63.08,-61.45 87.67,-40.87 112,-28.5 116.32,-26.3 120.94,-24.31 125.64,-22.51"/>
<polygon fill="#63b8ff" stroke="#63b8ff" points="127.06,-25.72 135.33,-19.1 124.74,-19.12 127.06,-25.72"/>
</a>
</g>
</g>
</g>
</svg>
