<?xml version="1.0" encoding="UTF-8" standalone="no"?>
<!DOCTYPE svg PUBLIC "-//W3C//DTD SVG 1.1//EN"
 "http://www.w3.org/Graphics/SVG/1.1/DTD/svg11.dtd">
<!-- Generated by graphviz version 2.43.0 (0)
 -->
<!-- Title: include/parametric_solver.hpp Pages: 1 -->
<svg width="1414pt" height="313pt"
 viewBox="0.00 0.00 1413.57 313.00" xmlns="http://www.w3.org/2000/svg" xmlns:xlink="http://www.w3.org/1999/xlink">
<g id="graph0" class="graph" transform="scale(1 1) rotate(0) translate(4 309)">
<title>include/parametric_solver.hpp</title>
<!-- Node1 -->
<g id="Node000001" class="node">
<title>Node1</title>
<g id="a_Node000001"><a xlink:title="含参方程组求解器 ParametricSolver，支持分段解。">
<polygon fill="#999999" stroke="#666666" points="168,-305 60,-305 60,-275 168,-275 168,-305"/>
<text text-anchor="start" x="68" y="-293" font-family="Helvetica,sans-Serif" font-size="10.00">include/parametric</text>
<text text-anchor="middle" x="114" y="-282" font-family="Helvetica,sans-Serif" font-size="10.00">_solver.hpp</text>
</a>
</g>
</g>
<!-- Node2 -->
<g id="Node000002" class="node">
<title>Node2</title>
<g id="a_Node000002"><a xlink:href="../../d5/df2/symbolic_8hpp.html" target="_top" xlink:title="符号表达式主类 SymbolicExpr 及其工厂方法、运算接口。">
<polygon fill="white" stroke="#666666" points="1125,-239 1043,-239 1043,-220 1125,-220 1125,-239"/>
<text text-anchor="middle" x="1084" y="-227" font-family="Helvetica,sans-Serif" font-size="10.00">symbolic.hpp</text>
</a>
</g>
</g>
<!-- Node1&#45;&gt;Node2 -->
<g id="edge1_Node000001_Node000002" class="edge">
<title>Node1&#45;&gt;Node2</title>
<g id="a_edge1_Node000001_Node000002"><a xlink:title=" ">
<path fill="none" stroke="#63b8ff" d="M168.23,-285.73C339.3,-275.41 866.09,-243.64 1032.83,-233.59"/>
<polygon fill="#63b8ff" stroke="#63b8ff" points="1033.06,-237.08 1042.83,-232.98 1032.63,-230.09 1033.06,-237.08"/>
</a>
</g>
</g>
<!-- Node8 -->
<g id="Node000008" class="node">
<title>Node8</title>
<g id="a_Node000008"><a xlink:title=" ">
<polygon fill="#e0e0e0" stroke="#999999" points="244.5,-19 197.5,-19 197.5,0 244.5,0 244.5,-19"/>
<text text-anchor="middle" x="221" y="-7" font-family="Helvetica,sans-Serif" font-size="10.00">vector</text>
</a>
</g>
</g>
<!-- Node1&#45;&gt;Node8 -->
<g id="edge53_Node000001_Node000008" class="edge">
<title>Node1&#45;&gt;Node8</title>
<g id="a_edge53_Node000001_Node000008"><a xlink:title=" ">
<path fill="none" stroke="#63b8ff" d="M105.94,-274.82C94.79,-253.82 76,-212.9 76,-175.5 76,-175.5 76,-175.5 76,-118.5 76,-89.04 74.68,-76.33 95,-55 101.63,-48.04 152.43,-31.46 187.47,-20.62"/>
<polygon fill="#63b8ff" stroke="#63b8ff" points="188.8,-23.87 197.33,-17.59 186.74,-17.18 188.8,-23.87"/>
</a>
</g>
</g>
<!-- Node11 -->
<g id="Node000011" class="node">
<title>Node11</title>
<g id="a_Node000011"><a xlink:title=" ">
<polygon fill="#e0e0e0" stroke="#999999" points="179,-19 135,-19 135,0 179,0 179,-19"/>
<text text-anchor="middle" x="157" y="-7" font-family="Helvetica,sans-Serif" font-size="10.00">string</text>
</a>
</g>
</g>
<!-- Node1&#45;&gt;Node11 -->
<g id="edge55_Node000001_Node000011" class="edge">
<title>Node1&#45;&gt;Node11</title>
<g id="a_edge55_Node000001_Node000011"><a xlink:title=" ">
<path fill="none" stroke="#63b8ff" d="M83.45,-274.94C49.68,-257.04 0,-222.7 0,-175.5 0,-175.5 0,-175.5 0,-118.5 0,-58.37 79.14,-29.18 125.04,-17.31"/>
<polygon fill="#63b8ff" stroke="#63b8ff" points="125.96,-20.69 134.84,-14.91 124.29,-13.89 125.96,-20.69"/>
</a>
</g>
</g>
<!-- Node21 -->
<g id="Node000021" class="node">
<title>Node21</title>
<g id="a_Node000021"><a xlink:title=" ">
<polygon fill="#e0e0e0" stroke="#999999" points="142,-74 104,-74 104,-55 142,-55 142,-74"/>
<text text-anchor="middle" x="123" y="-62" font-family="Helvetica,sans-Serif" font-size="10.00">map</text>
</a>
</g>
</g>
<!-- Node1&#45;&gt;Node21 -->
<g id="edge54_Node000001_Node000021" class="edge">
<title>Node1&#45;&gt;Node21</title>
<g id="a_edge54_Node000001_Node000021"><a xlink:title=" ">
<path fill="none" stroke="#63b8ff" d="M114.58,-274.68C116.14,-235.76 120.48,-128.07 122.24,-84.33"/>
<polygon fill="#63b8ff" stroke="#63b8ff" points="125.74,-84.36 122.65,-74.23 118.75,-84.08 125.74,-84.36"/>
</a>
</g>
</g>
<!-- Node24 -->
<g id="Node000024" class="node">
<title>Node24</title>
<g id="a_Node000024"><a xlink:title=" ">
<polygon fill="#e0e0e0" stroke="#999999" points="1005,-129 947,-129 947,-110 1005,-110 1005,-129"/>
<text text-anchor="middle" x="976" y="-117" font-family="Helvetica,sans-Serif" font-size="10.00">memory</text>
</a>
</g>
</g>
<!-- Node1&#45;&gt;Node24 -->
<g id="edge56_Node000001_Node000024" class="edge">
<title>Node1&#45;&gt;Node24</title>
<g id="a_edge56_Node000001_Node000024"><a xlink:title=" ">
<path fill="none" stroke="#63b8ff" d="M168.04,-280.59C272.9,-264.03 511.19,-225.21 710,-184 791.07,-167.2 885.11,-143.82 936.84,-130.63"/>
<polygon fill="#63b8ff" stroke="#63b8ff" points="937.79,-134 946.61,-128.13 936.05,-127.22 937.79,-134"/>
</a>
</g>
</g>
<!-- Node3 -->
<g id="Node000003" class="node">
<title>Node3</title>
<g id="a_Node000003"><a xlink:href="../../d8/d09/bigint_8hpp.html" target="_top" xlink:title="任意精度整数 BigInt，底层调用 LAMMP 实现高性能大数运算。">
<polygon fill="white" stroke="#666666" points="890.5,-74 825.5,-74 825.5,-55 890.5,-55 890.5,-74"/>
<text text-anchor="middle" x="858" y="-62" font-family="Helvetica,sans-Serif" font-size="10.00">bigint.hpp</text>
</a>
</g>
</g>
<!-- Node2&#45;&gt;Node3 -->
<g id="edge2_Node000002_Node000003" class="edge">
<title>Node2&#45;&gt;Node3</title>
<g id="a_edge2_Node000002_Node000003"><a xlink:title=" ">
<path fill="none" stroke="#63b8ff" d="M1087.21,-219.82C1094.51,-198.38 1109.78,-142.32 1083,-110 1060.29,-82.6 959.58,-71.76 900.88,-67.72"/>
<polygon fill="#63b8ff" stroke="#63b8ff" points="900.99,-64.22 890.79,-67.07 900.54,-71.21 900.99,-64.22"/>
</a>
</g>
</g>
<!-- Node9 -->
<g id="Node000009" class="node">
<title>Node9</title>
<g id="a_Node000009"><a xlink:title=" ">
<polygon fill="#e0e0e0" stroke="#999999" points="1404.5,-19 1355.5,-19 1355.5,0 1404.5,0 1404.5,-19"/>
<text text-anchor="middle" x="1380" y="-7" font-family="Helvetica,sans-Serif" font-size="10.00">cstdlib</text>
</a>
</g>
</g>
<!-- Node2&#45;&gt;Node9 -->
<g id="edge52_Node000002_Node000009" class="edge">
<title>Node2&#45;&gt;Node9</title>
<g id="a_edge52_Node000002_Node000009"><a xlink:title=" ">
<path fill="none" stroke="#63b8ff" d="M1125.26,-228.72C1199.53,-228.14 1351.07,-222.17 1384,-184 1422,-139.95 1400.4,-63.63 1387.49,-28.8"/>
<polygon fill="#63b8ff" stroke="#63b8ff" points="1390.58,-27.08 1383.69,-19.04 1384.05,-29.62 1390.58,-27.08"/>
</a>
</g>
</g>
<!-- Node2&#45;&gt;Node11 -->
<g id="edge44_Node000002_Node000011" class="edge">
<title>Node2&#45;&gt;Node11</title>
<g id="a_edge44_Node000002_Node000011"><a xlink:title=" ">
<path fill="none" stroke="#63b8ff" d="M1042.85,-228.14C899.8,-226.6 424.83,-218.91 277,-184 172.54,-159.33 114.03,-167.88 62,-74 45.92,-44.99 91.37,-26.79 124.84,-17.65"/>
<polygon fill="#63b8ff" stroke="#63b8ff" points="125.94,-20.98 134.76,-15.1 124.2,-14.2 125.94,-20.98"/>
</a>
</g>
</g>
<!-- Node12 -->
<g id="Node000012" class="node">
<title>Node12</title>
<g id="a_Node000012"><a xlink:title=" ">
<polygon fill="#e0e0e0" stroke="#999999" points="1252,-19 1192,-19 1192,0 1252,0 1252,-19"/>
<text text-anchor="middle" x="1222" y="-7" font-family="Helvetica,sans-Serif" font-size="10.00">iostream</text>
</a>
</g>
</g>
<!-- Node2&#45;&gt;Node12 -->
<g id="edge51_Node000002_Node000012" class="edge">
<title>Node2&#45;&gt;Node12</title>
<g id="a_edge51_Node000002_Node000012"><a xlink:title=" ">
<path fill="none" stroke="#63b8ff" d="M1094.8,-219.78C1104.78,-211.35 1119.58,-197.85 1130,-184 1150.41,-156.86 1194.76,-66.91 1213.44,-28.33"/>
<polygon fill="#63b8ff" stroke="#63b8ff" points="1216.6,-29.82 1217.79,-19.29 1210.3,-26.78 1216.6,-29.82"/>
</a>
</g>
</g>
<!-- Node13 -->
<g id="Node000013" class="node">
<title>Node13</title>
<g id="a_Node000013"><a xlink:title=" ">
<polygon fill="#e0e0e0" stroke="#999999" points="1174,-19 1110,-19 1110,0 1174,0 1174,-19"/>
<text text-anchor="middle" x="1142" y="-7" font-family="Helvetica,sans-Serif" font-size="10.00">algorithm</text>
</a>
</g>
</g>
<!-- Node2&#45;&gt;Node13 -->
<g id="edge48_Node000002_Node000013" class="edge">
<title>Node2&#45;&gt;Node13</title>
<g id="a_edge48_Node000002_Node000013"><a xlink:title=" ">
<path fill="none" stroke="#63b8ff" d="M1090.9,-219.85C1097.38,-211.26 1106.83,-197.46 1112,-184 1132.58,-130.37 1139.11,-61.98 1141.13,-29.41"/>
<polygon fill="#63b8ff" stroke="#63b8ff" points="1144.64,-29.29 1141.69,-19.12 1137.65,-28.91 1144.64,-29.29"/>
</a>
</g>
</g>
<!-- Node16 -->
<g id="Node000016" class="node">
<title>Node16</title>
<g id="a_Node000016"><a xlink:title=" ">
<polygon fill="#e0e0e0" stroke="#999999" points="1314,-19 1270,-19 1270,0 1314,0 1314,-19"/>
<text text-anchor="middle" x="1292" y="-7" font-family="Helvetica,sans-Serif" font-size="10.00">limits</text>
</a>
</g>
</g>
<!-- Node2&#45;&gt;Node16 -->
<g id="edge47_Node000002_Node000016" class="edge">
<title>Node2&#45;&gt;Node16</title>
<g id="a_edge47_Node000002_Node000016"><a xlink:title=" ">
<path fill="none" stroke="#63b8ff" d="M1099.58,-219.98C1113.8,-211.8 1134.98,-198.55 1151,-184 1206.44,-133.65 1258.41,-60.63 1280.64,-27.72"/>
<polygon fill="#63b8ff" stroke="#63b8ff" points="1283.69,-29.47 1286.33,-19.21 1277.87,-25.58 1283.69,-29.47"/>
</a>
</g>
</g>
<!-- Node18 -->
<g id="Node000018" class="node">
<title>Node18</title>
<g id="a_Node000018"><a xlink:href="../../d1/de8/rational_8hpp.html" target="_top" xlink:title="精确有理数 Rational，基于 BigInt 分子/分母表示，自动约分。">
<polygon fill="white" stroke="#666666" points="371.5,-129 296.5,-129 296.5,-110 371.5,-110 371.5,-129"/>
<text text-anchor="middle" x="334" y="-117" font-family="Helvetica,sans-Serif" font-size="10.00">rational.hpp</text>
</a>
</g>
</g>
<!-- Node2&#45;&gt;Node18 -->
<g id="edge17_Node000002_Node000018" class="edge">
<title>Node2&#45;&gt;Node18</title>
<g id="a_edge17_Node000002_Node000018"><a xlink:title=" ">
<path fill="none" stroke="#63b8ff" d="M1042.74,-226.92C957.59,-223.2 756.44,-211.97 590,-184 511.63,-170.83 421.87,-146.33 372.18,-131.92"/>
<polygon fill="#63b8ff" stroke="#63b8ff" points="373.07,-128.54 362.49,-129.09 371.11,-135.26 373.07,-128.54"/>
</a>
</g>
</g>
<!-- Node2&#45;&gt;Node21 -->
<g id="edge49_Node000002_Node000021" class="edge">
<title>Node2&#45;&gt;Node21</title>
<g id="a_edge49_Node000002_Node000021"><a xlink:title=" ">
<path fill="none" stroke="#63b8ff" d="M1042.75,-228.36C885.56,-227.16 325.45,-216.68 175,-129 156.22,-118.05 141.35,-97.6 132.41,-82.86"/>
<polygon fill="#63b8ff" stroke="#63b8ff" points="135.42,-81.08 127.4,-74.15 129.35,-84.57 135.42,-81.08"/>
</a>
</g>
</g>
<!-- Node23 -->
<g id="Node000023" class="node">
<title>Node23</title>
<g id="a_Node000023"><a xlink:href="../../d9/d89/symbolic__ast_8hpp.html" target="_top" xlink:title="AST 节点定义：NumberNode, VariableNode, AddNode, MultiplyNode, PowerNode, FunctionNode,...">
<polygon fill="white" stroke="#666666" points="701,-184 599,-184 599,-165 701,-165 701,-184"/>
<text text-anchor="middle" x="650" y="-172" font-family="Helvetica,sans-Serif" font-size="10.00">symbolic_ast.hpp</text>
</a>
</g>
</g>
<!-- Node2&#45;&gt;Node23 -->
<g id="edge27_Node000002_Node000023" class="edge">
<title>Node2&#45;&gt;Node23</title>
<g id="a_edge27_Node000002_Node000023"><a xlink:title=" ">
<path fill="none" stroke="#63b8ff" d="M1042.78,-223.47C966.07,-214.1 801.07,-193.95 711.27,-182.98"/>
<polygon fill="#63b8ff" stroke="#63b8ff" points="711.58,-179.49 701.23,-181.76 710.73,-186.44 711.58,-179.49"/>
</a>
</g>
</g>
<!-- Node2&#45;&gt;Node24 -->
<g id="edge43_Node000002_Node000024" class="edge">
<title>Node2&#45;&gt;Node24</title>
<g id="a_edge43_Node000002_Node000024"><a xlink:title=" ">
<path fill="none" stroke="#63b8ff" d="M1075.16,-219.66C1056.96,-201.46 1015.05,-159.55 991.97,-136.47"/>
<polygon fill="#63b8ff" stroke="#63b8ff" points="994.2,-133.75 984.66,-129.16 989.25,-138.7 994.2,-133.75"/>
</a>
</g>
</g>
<!-- Node25 -->
<g id="Node000025" class="node">
<title>Node25</title>
<g id="a_Node000025"><a xlink:title=" ">
<polygon fill="#e0e0e0" stroke="#999999" points="1074.5,-129 1023.5,-129 1023.5,-110 1074.5,-110 1074.5,-129"/>
<text text-anchor="middle" x="1049" y="-117" font-family="Helvetica,sans-Serif" font-size="10.00">variant</text>
</a>
</g>
</g>
<!-- Node2&#45;&gt;Node25 -->
<g id="edge45_Node000002_Node000025" class="edge">
<title>Node2&#45;&gt;Node25</title>
<g id="a_edge45_Node000002_Node000025"><a xlink:title=" ">
<path fill="none" stroke="#63b8ff" d="M1081.14,-219.66C1075.44,-202.09 1062.59,-162.45 1054.98,-138.95"/>
<polygon fill="#63b8ff" stroke="#63b8ff" points="1058.22,-137.59 1051.81,-129.16 1051.56,-139.75 1058.22,-137.59"/>
</a>
</g>
</g>
<!-- Node30 -->
<g id="Node000030" class="node">
<title>Node30</title>
<g id="a_Node000030"><a xlink:title=" ">
<polygon fill="#e0e0e0" stroke="#999999" points="1292.5,-184 1245.5,-184 1245.5,-165 1292.5,-165 1292.5,-184"/>
<text text-anchor="middle" x="1269" y="-172" font-family="Helvetica,sans-Serif" font-size="10.00">cmath</text>
</a>
</g>
</g>
<!-- Node2&#45;&gt;Node30 -->
<g id="edge46_Node000002_Node000030" class="edge">
<title>Node2&#45;&gt;Node30</title>
<g id="a_edge46_Node000002_Node000030"><a xlink:title=" ">
<path fill="none" stroke="#63b8ff" d="M1113.72,-219.98C1147,-210.45 1200.81,-195.03 1235.54,-185.09"/>
<polygon fill="#63b8ff" stroke="#63b8ff" points="1236.58,-188.43 1245.23,-182.31 1234.65,-181.7 1236.58,-188.43"/>
</a>
</g>
</g>
<!-- Node31 -->
<g id="Node000031" class="node">
<title>Node31</title>
<g id="a_Node000031"><a xlink:title=" ">
<polygon fill="#e0e0e0" stroke="#999999" points="1375.5,-184 1310.5,-184 1310.5,-165 1375.5,-165 1375.5,-184"/>
<text text-anchor="middle" x="1343" y="-172" font-family="Helvetica,sans-Serif" font-size="10.00">functional</text>
</a>
</g>
</g>
<!-- Node2&#45;&gt;Node31 -->
<g id="edge50_Node000002_Node000031" class="edge">
<title>Node2&#45;&gt;Node31</title>
<g id="a_edge50_Node000002_Node000031"><a xlink:title=" ">
<path fill="none" stroke="#63b8ff" d="M1125.04,-220.1C1172.98,-210.29 1251.9,-194.14 1300.47,-184.2"/>
<polygon fill="#63b8ff" stroke="#63b8ff" points="1301.26,-187.61 1310.35,-182.18 1299.85,-180.76 1301.26,-187.61"/>
</a>
</g>
</g>
<!-- Node4 -->
<g id="Node000004" class="node">
<title>Node4</title>
<g id="a_Node000004"><a xlink:title=" ">
<polygon fill="#e0e0e0" stroke="#999999" points="772,-19 680,-19 680,0 772,0 772,-19"/>
<text text-anchor="middle" x="726" y="-7" font-family="Helvetica,sans-Serif" font-size="10.00">lammp/lmmp.h</text>
</a>
</g>
</g>
<!-- Node3&#45;&gt;Node4 -->
<g id="edge3_Node000003_Node000004" class="edge">
<title>Node3&#45;&gt;Node4</title>
<g id="a_edge3_Node000003_Node000004"><a xlink:title=" ">
<path fill="none" stroke="#63b8ff" d="M836.79,-54.98C815.27,-46.34 781.72,-32.87 757.17,-23.02"/>
<polygon fill="#63b8ff" stroke="#63b8ff" points="758.18,-19.65 747.59,-19.17 755.57,-26.14 758.18,-19.65"/>
</a>
</g>
</g>
<!-- Node5 -->
<g id="Node000005" class="node">
<title>Node5</title>
<g id="a_Node000005"><a xlink:title=" ">
<polygon fill="#e0e0e0" stroke="#999999" points="888,-19 790,-19 790,0 888,0 888,-19"/>
<text text-anchor="middle" x="839" y="-7" font-family="Helvetica,sans-Serif" font-size="10.00">lammp/lmmpn.h</text>
</a>
</g>
</g>
<!-- Node3&#45;&gt;Node5 -->
<g id="edge4_Node000003_Node000005" class="edge">
<title>Node3&#45;&gt;Node5</title>
<g id="a_edge4_Node000003_Node000005"><a xlink:title=" ">
<path fill="none" stroke="#63b8ff" d="M854.86,-54.75C852.32,-47.65 848.64,-37.4 845.47,-28.56"/>
<polygon fill="#63b8ff" stroke="#63b8ff" points="848.75,-27.32 842.08,-19.09 842.16,-29.68 848.75,-27.32"/>
</a>
</g>
</g>
<!-- Node6 -->
<g id="Node000006" class="node">
<title>Node6</title>
<g id="a_Node000006"><a xlink:title=" ">
<polygon fill="#e0e0e0" stroke="#999999" points="1001.5,-19 906.5,-19 906.5,0 1001.5,0 1001.5,-19"/>
<text text-anchor="middle" x="954" y="-7" font-family="Helvetica,sans-Serif" font-size="10.00">lammp/numth.h</text>
</a>
</g>
</g>
<!-- Node3&#45;&gt;Node6 -->
<g id="edge5_Node000003_Node000006" class="edge">
<title>Node3&#45;&gt;Node6</title>
<g id="a_edge5_Node000003_Node000006"><a xlink:title=" ">
<path fill="none" stroke="#63b8ff" d="M873.42,-54.98C888.45,-46.69 911.54,-33.94 929.16,-24.22"/>
<polygon fill="#63b8ff" stroke="#63b8ff" points="931.23,-27.07 938.3,-19.17 927.85,-20.94 931.23,-27.07"/>
</a>
</g>
</g>
<!-- Node7 -->
<g id="Node000007" class="node">
<title>Node7</title>
<g id="a_Node000007"><a xlink:title=" ">
<polygon fill="#e0e0e0" stroke="#999999" points="1092,-19 1020,-19 1020,0 1092,0 1092,-19"/>
<text text-anchor="middle" x="1056" y="-7" font-family="Helvetica,sans-Serif" font-size="10.00">lmmc/init.h</text>
</a>
</g>
</g>
<!-- Node3&#45;&gt;Node7 -->
<g id="edge6_Node000003_Node000007" class="edge">
<title>Node3&#45;&gt;Node7</title>
<g id="a_edge6_Node000003_Node000007"><a xlink:title=" ">
<path fill="none" stroke="#63b8ff" d="M889.81,-54.98C923.49,-45.97 976.8,-31.7 1013.92,-21.76"/>
<polygon fill="#63b8ff" stroke="#63b8ff" points="1015.18,-25.05 1023.94,-19.08 1013.37,-18.29 1015.18,-25.05"/>
</a>
</g>
</g>
<!-- Node3&#45;&gt;Node8 -->
<g id="edge7_Node000003_Node000008" class="edge">
<title>Node3&#45;&gt;Node8</title>
<g id="a_edge7_Node000003_Node000008"><a xlink:title=" ">
<path fill="none" stroke="#63b8ff" d="M825.09,-60.76C715.87,-51.67 366,-22.56 255.08,-13.34"/>
<polygon fill="#63b8ff" stroke="#63b8ff" points="255.06,-9.82 244.81,-12.48 254.48,-16.8 255.06,-9.82"/>
</a>
</g>
</g>
<!-- Node3&#45;&gt;Node9 -->
<g id="edge8_Node000003_Node000009" class="edge">
<title>Node3&#45;&gt;Node9</title>
<g id="a_edge8_Node000003_Node000009"><a xlink:title=" ">
<path fill="none" stroke="#63b8ff" d="M890.76,-60.96C966.82,-54.94 1161.2,-38.79 1323,-19 1330.22,-18.12 1337.94,-17.05 1345.29,-15.97"/>
<polygon fill="#63b8ff" stroke="#63b8ff" points="1345.98,-19.41 1355.35,-14.47 1344.94,-12.49 1345.98,-19.41"/>
</a>
</g>
</g>
<!-- Node10 -->
<g id="Node000010" class="node">
<title>Node10</title>
<g id="a_Node000010"><a xlink:title=" ">
<polygon fill="#e0e0e0" stroke="#999999" points="662,-19 612,-19 612,0 662,0 662,-19"/>
<text text-anchor="middle" x="637" y="-7" font-family="Helvetica,sans-Serif" font-size="10.00">cstring</text>
</a>
</g>
</g>
<!-- Node3&#45;&gt;Node10 -->
<g id="edge9_Node000003_Node000010" class="edge">
<title>Node3&#45;&gt;Node10</title>
<g id="a_edge9_Node000003_Node000010"><a xlink:title=" ">
<path fill="none" stroke="#63b8ff" d="M825.21,-55.82C789.82,-47.5 731.54,-33.72 672.17,-19.26"/>
<polygon fill="#63b8ff" stroke="#63b8ff" points="672.79,-15.81 662.24,-16.84 671.13,-22.61 672.79,-15.81"/>
</a>
</g>
</g>
<!-- Node3&#45;&gt;Node11 -->
<g id="edge10_Node000003_Node000011" class="edge">
<title>Node3&#45;&gt;Node11</title>
<g id="a_edge10_Node000003_Node000011"><a xlink:title=" ">
<path fill="none" stroke="#63b8ff" d="M825.18,-62.2C711.17,-57.54 332.01,-40.89 189.48,-18.84"/>
<polygon fill="#63b8ff" stroke="#63b8ff" points="189.66,-15.32 179.23,-17.17 188.54,-22.23 189.66,-15.32"/>
</a>
</g>
</g>
<!-- Node3&#45;&gt;Node12 -->
<g id="edge11_Node000003_Node000012" class="edge">
<title>Node3&#45;&gt;Node12</title>
<g id="a_edge11_Node000003_Node000012"><a xlink:title=" ">
<path fill="none" stroke="#63b8ff" d="M890.89,-59.86C947.99,-53.36 1069.35,-38.72 1181.67,-19.11"/>
<polygon fill="#63b8ff" stroke="#63b8ff" points="1182.57,-22.51 1191.81,-17.32 1181.36,-15.61 1182.57,-22.51"/>
</a>
</g>
</g>
<!-- Node3&#45;&gt;Node13 -->
<g id="edge12_Node000003_Node000013" class="edge">
<title>Node3&#45;&gt;Node13</title>
<g id="a_edge12_Node000003_Node000013"><a xlink:title=" ">
<path fill="none" stroke="#63b8ff" d="M890.74,-57.55C946.82,-47.35 1058.58,-26.99 1099.91,-19.15"/>
<polygon fill="#63b8ff" stroke="#63b8ff" points="1100.63,-22.58 1109.79,-17.25 1099.3,-15.7 1100.63,-22.58"/>
</a>
</g>
</g>
<!-- Node14 -->
<g id="Node000014" class="node">
<title>Node14</title>
<g id="a_Node000014"><a xlink:title=" ">
<polygon fill="#e0e0e0" stroke="#999999" points="406,-19 350,-19 350,0 406,0 406,-19"/>
<text text-anchor="middle" x="378" y="-7" font-family="Helvetica,sans-Serif" font-size="10.00">iomanip</text>
</a>
</g>
</g>
<!-- Node3&#45;&gt;Node14 -->
<g id="edge13_Node000003_Node000014" class="edge">
<title>Node3&#45;&gt;Node14</title>
<g id="a_edge13_Node000003_Node000014"><a xlink:title=" ">
<path fill="none" stroke="#63b8ff" d="M825.3,-61.63C753.17,-57.19 574.87,-44.58 416.15,-18.99"/>
<polygon fill="#63b8ff" stroke="#63b8ff" points="416.64,-15.52 406.21,-17.37 415.51,-22.43 416.64,-15.52"/>
</a>
</g>
</g>
<!-- Node15 -->
<g id="Node000015" class="node">
<title>Node15</title>
<g id="a_Node000015"><a xlink:title=" ">
<polygon fill="#e0e0e0" stroke="#999999" points="593.5,-19 528.5,-19 528.5,0 593.5,0 593.5,-19"/>
<text text-anchor="middle" x="561" y="-7" font-family="Helvetica,sans-Serif" font-size="10.00">stdexcept</text>
</a>
</g>
</g>
<!-- Node3&#45;&gt;Node15 -->
<g id="edge14_Node000003_Node000015" class="edge">
<title>Node3&#45;&gt;Node15</title>
<g id="a_edge14_Node000003_Node000015"><a xlink:title=" ">
<path fill="none" stroke="#63b8ff" d="M825.39,-57.57C820.57,-56.7 815.65,-55.82 811,-55 721.68,-39.19 696.84,-36.48 603.42,-19.03"/>
<polygon fill="#63b8ff" stroke="#63b8ff" points="604.02,-15.58 593.54,-17.18 602.73,-22.46 604.02,-15.58"/>
</a>
</g>
</g>
<!-- Node3&#45;&gt;Node16 -->
<g id="edge15_Node000003_Node000016" class="edge">
<title>Node3&#45;&gt;Node16</title>
<g id="a_edge15_Node000003_Node000016"><a xlink:title=" ">
<path fill="none" stroke="#63b8ff" d="M890.65,-61.65C957.95,-57.45 1117.1,-45.6 1259.52,-18.99"/>
<polygon fill="#63b8ff" stroke="#63b8ff" points="1260.58,-22.36 1269.75,-17.05 1259.27,-15.48 1260.58,-22.36"/>
</a>
</g>
</g>
<!-- Node17 -->
<g id="Node000017" class="node">
<title>Node17</title>
<g id="a_Node000017"><a xlink:title=" ">
<polygon fill="#e0e0e0" stroke="#999999" points="510,-19 424,-19 424,0 510,0 510,-19"/>
<text text-anchor="middle" x="467" y="-7" font-family="Helvetica,sans-Serif" font-size="10.00">lmmc/config.h</text>
</a>
</g>
</g>
<!-- Node3&#45;&gt;Node17 -->
<g id="edge16_Node000003_Node000017" class="edge">
<title>Node3&#45;&gt;Node17</title>
<g id="a_edge16_Node000003_Node000017"><a xlink:title=" ">
<path fill="none" stroke="#63b8ff" d="M825.23,-59.55C766.32,-52.36 638.41,-36.43 520.07,-19.12"/>
<polygon fill="#63b8ff" stroke="#63b8ff" points="520.52,-15.65 510.11,-17.65 519.5,-22.57 520.52,-15.65"/>
</a>
</g>
</g>
<!-- Node18&#45;&gt;Node3 -->
<g id="edge20_Node000018_Node000003" class="edge">
<title>Node18&#45;&gt;Node3</title>
<g id="a_edge20_Node000018_Node000003"><a xlink:title=" ">
<path fill="none" stroke="#63b8ff" d="M371.68,-114.69C466.65,-105.08 715.3,-79.93 815.37,-69.81"/>
<polygon fill="#63b8ff" stroke="#63b8ff" points="815.83,-73.28 825.43,-68.79 815.12,-66.32 815.83,-73.28"/>
</a>
</g>
</g>
<!-- Node18&#45;&gt;Node11 -->
<g id="edge24_Node000018_Node000011" class="edge">
<title>Node18&#45;&gt;Node11</title>
<g id="a_edge24_Node000018_Node000011"><a xlink:title=" ">
<path fill="none" stroke="#63b8ff" d="M319.81,-109.84C289.26,-91.2 217.01,-47.11 179.89,-24.46"/>
<polygon fill="#63b8ff" stroke="#63b8ff" points="181.61,-21.42 171.25,-19.2 177.97,-27.39 181.61,-21.42"/>
</a>
</g>
</g>
<!-- Node18&#45;&gt;Node14 -->
<g id="edge21_Node000018_Node000014" class="edge">
<title>Node18&#45;&gt;Node14</title>
<g id="a_edge21_Node000018_Node000014"><a xlink:title=" ">
<path fill="none" stroke="#63b8ff" d="M362.39,-109.92C379.46,-103.13 399.81,-91.77 410,-74 419.05,-58.21 407.07,-39.55 395.27,-26.56"/>
<polygon fill="#63b8ff" stroke="#63b8ff" points="397.64,-23.98 388.15,-19.28 392.64,-28.88 397.64,-23.98"/>
</a>
</g>
</g>
<!-- Node18&#45;&gt;Node15 -->
<g id="edge23_Node000018_Node000015" class="edge">
<title>Node18&#45;&gt;Node15</title>
<g id="a_edge23_Node000018_Node000015"><a xlink:title=" ">
<path fill="none" stroke="#63b8ff" d="M359.12,-109.98C382.72,-101.7 418.82,-88.3 449,-74 480.99,-58.84 516.27,-38.14 538.52,-24.55"/>
<polygon fill="#63b8ff" stroke="#63b8ff" points="540.53,-27.42 547.21,-19.2 536.86,-21.46 540.53,-27.42"/>
</a>
</g>
</g>
<!-- Node18&#45;&gt;Node17 -->
<g id="edge18_Node000018_Node000017" class="edge">
<title>Node18&#45;&gt;Node17</title>
<g id="a_edge18_Node000018_Node000017"><a xlink:title=" ">
<path fill="none" stroke="#63b8ff" d="M360.84,-109.97C380.51,-102.72 406.99,-90.81 426,-74 440.4,-61.27 451.74,-42.32 458.81,-28.44"/>
<polygon fill="#63b8ff" stroke="#63b8ff" points="461.99,-29.91 463.19,-19.38 455.68,-26.86 461.99,-29.91"/>
</a>
</g>
</g>
<!-- Node19 -->
<g id="Node000019" class="node">
<title>Node19</title>
<g id="a_Node000019"><a xlink:title=" ">
<polygon fill="#e0e0e0" stroke="#999999" points="630,-74 534,-74 534,-55 630,-55 630,-74"/>
<text text-anchor="middle" x="582" y="-62" font-family="Helvetica,sans-Serif" font-size="10.00">lmmc/numeric.h</text>
</a>
</g>
</g>
<!-- Node18&#45;&gt;Node19 -->
<g id="edge19_Node000018_Node000019" class="edge">
<title>Node18&#45;&gt;Node19</title>
<g id="a_edge19_Node000018_Node000019"><a xlink:title=" ">
<path fill="none" stroke="#63b8ff" d="M371.67,-110.45C414.46,-101.3 484.49,-86.34 531.88,-76.21"/>
<polygon fill="#63b8ff" stroke="#63b8ff" points="532.87,-79.58 541.92,-74.07 531.41,-72.73 532.87,-79.58"/>
</a>
</g>
</g>
<!-- Node20 -->
<g id="Node000020" class="node">
<title>Node20</title>
<g id="a_Node000020"><a xlink:title=" ">
<polygon fill="#e0e0e0" stroke="#999999" points="330,-74 274,-74 274,-55 330,-55 330,-74"/>
<text text-anchor="middle" x="302" y="-62" font-family="Helvetica,sans-Serif" font-size="10.00">sstream</text>
</a>
</g>
</g>
<!-- Node18&#45;&gt;Node20 -->
<g id="edge22_Node000018_Node000020" class="edge">
<title>Node18&#45;&gt;Node20</title>
<g id="a_edge22_Node000018_Node000020"><a xlink:title=" ">
<path fill="none" stroke="#63b8ff" d="M328.72,-109.75C324.29,-102.42 317.84,-91.73 312.38,-82.7"/>
<polygon fill="#63b8ff" stroke="#63b8ff" points="315.35,-80.84 307.19,-74.09 309.36,-84.46 315.35,-80.84"/>
</a>
</g>
</g>
<!-- Node18&#45;&gt;Node21 -->
<g id="edge25_Node000018_Node000021" class="edge">
<title>Node18&#45;&gt;Node21</title>
<g id="a_edge25_Node000018_Node000021"><a xlink:title=" ">
<path fill="none" stroke="#63b8ff" d="M300.1,-109.98C259.1,-99.69 190.8,-82.53 152.09,-72.81"/>
<polygon fill="#63b8ff" stroke="#63b8ff" points="152.56,-69.32 142.01,-70.27 150.85,-76.1 152.56,-69.32"/>
</a>
</g>
</g>
<!-- Node22 -->
<g id="Node000022" class="node">
<title>Node22</title>
<g id="a_Node000022"><a xlink:title=" ">
<polygon fill="#e0e0e0" stroke="#999999" points="401.5,-74 348.5,-74 348.5,-55 401.5,-55 401.5,-74"/>
<text text-anchor="middle" x="375" y="-62" font-family="Helvetica,sans-Serif" font-size="10.00">stdint.h</text>
</a>
</g>
</g>
<!-- Node18&#45;&gt;Node22 -->
<g id="edge26_Node000018_Node000022" class="edge">
<title>Node18&#45;&gt;Node22</title>
<g id="a_edge26_Node000018_Node000022"><a xlink:title=" ">
<path fill="none" stroke="#63b8ff" d="M340.77,-109.75C346.56,-102.26 355.06,-91.28 362.14,-82.13"/>
<polygon fill="#63b8ff" stroke="#63b8ff" points="365.01,-84.14 368.36,-74.09 359.47,-79.86 365.01,-84.14"/>
</a>
</g>
</g>
<!-- Node23&#45;&gt;Node3 -->
<g id="edge37_Node000023_Node000003" class="edge">
<title>Node23&#45;&gt;Node3</title>
<g id="a_edge37_Node000023_Node000003"><a xlink:title=" ">
<path fill="none" stroke="#63b8ff" d="M701.09,-169.66C755.86,-164.36 837.58,-152.65 857,-129 867.16,-116.63 866.12,-97.86 863.31,-83.94"/>
<polygon fill="#63b8ff" stroke="#63b8ff" points="866.66,-82.89 860.86,-74.02 859.86,-84.57 866.66,-82.89"/>
</a>
</g>
</g>
<!-- Node23&#45;&gt;Node8 -->
<g id="edge29_Node000023_Node000008" class="edge">
<title>Node23&#45;&gt;Node8</title>
<g id="a_edge29_Node000023_Node000008"><a xlink:title=" ">
<path fill="none" stroke="#63b8ff" d="M599,-172.84C511.37,-170.81 336.85,-162.54 287,-129 251.63,-105.2 233.28,-55.79 225.56,-28.9"/>
<polygon fill="#63b8ff" stroke="#63b8ff" points="228.93,-27.95 222.96,-19.2 222.17,-29.76 228.93,-27.95"/>
</a>
</g>
</g>
<!-- Node23&#45;&gt;Node11 -->
<g id="edge30_Node000023_Node000011" class="edge">
<title>Node23&#45;&gt;Node11</title>
<g id="a_edge30_Node000023_Node000011"><a xlink:title=" ">
<path fill="none" stroke="#63b8ff" d="M598.7,-172.04C507.46,-168.72 321.2,-158.46 264,-129 218.79,-105.72 183.42,-54.94 167.01,-28.04"/>
<polygon fill="#63b8ff" stroke="#63b8ff" points="169.95,-26.13 161.84,-19.3 163.92,-29.69 169.95,-26.13"/>
</a>
</g>
</g>
<!-- Node23&#45;&gt;Node13 -->
<g id="edge32_Node000023_Node000013" class="edge">
<title>Node23&#45;&gt;Node13</title>
<g id="a_edge32_Node000023_Node000013"><a xlink:title=" ">
<path fill="none" stroke="#63b8ff" d="M701.3,-166.68C747.44,-159.77 816.73,-147.44 875,-129 967.54,-99.72 1070.94,-47.99 1117.24,-23.74"/>
<polygon fill="#63b8ff" stroke="#63b8ff" points="1119.02,-26.76 1126.23,-19 1115.76,-20.57 1119.02,-26.76"/>
</a>
</g>
</g>
<!-- Node23&#45;&gt;Node15 -->
<g id="edge40_Node000023_Node000015" class="edge">
<title>Node23&#45;&gt;Node15</title>
<g id="a_edge40_Node000023_Node000015"><a xlink:title=" ">
<path fill="none" stroke="#63b8ff" d="M701.11,-172.34C763.2,-168.94 855.94,-156.23 824,-110 798.2,-72.66 671.11,-37.06 603.5,-20.38"/>
<polygon fill="#63b8ff" stroke="#63b8ff" points="604.12,-16.93 593.58,-17.97 602.47,-23.73 604.12,-16.93"/>
</a>
</g>
</g>
<!-- Node23&#45;&gt;Node17 -->
<g id="edge38_Node000023_Node000017" class="edge">
<title>Node23&#45;&gt;Node17</title>
<g id="a_edge38_Node000023_Node000017"><a xlink:title=" ">
<path fill="none" stroke="#63b8ff" d="M598.53,-168.78C547.47,-162.9 474.4,-150.86 457,-129 451.74,-122.39 451.64,-116.52 457,-110 509.34,-46.29 586.66,-137.71 639,-74 644.36,-67.48 644.17,-61.68 639,-55 631.55,-45.38 567.95,-30.71 520.24,-20.88"/>
<polygon fill="#63b8ff" stroke="#63b8ff" points="520.83,-17.42 510.33,-18.85 519.43,-24.28 520.83,-17.42"/>
</a>
</g>
</g>
<!-- Node23&#45;&gt;Node18 -->
<g id="edge36_Node000023_Node000018" class="edge">
<title>Node23&#45;&gt;Node18</title>
<g id="a_edge36_Node000023_Node000018"><a xlink:title=" ">
<path fill="none" stroke="#63b8ff" d="M599.23,-164.98C539.32,-154.94 440.47,-138.36 381.86,-128.53"/>
<polygon fill="#63b8ff" stroke="#63b8ff" points="382.2,-125.03 371.75,-126.83 381.04,-131.94 382.2,-125.03"/>
</a>
</g>
</g>
<!-- Node23&#45;&gt;Node19 -->
<g id="edge39_Node000023_Node000019" class="edge">
<title>Node23&#45;&gt;Node19</title>
<g id="a_edge39_Node000023_Node000019"><a xlink:title=" ">
<path fill="none" stroke="#63b8ff" d="M598.98,-170.77C539.26,-166.39 445.72,-155.41 424,-129 418.64,-122.48 418.9,-116.73 424,-110 436.29,-93.77 484.09,-81.79 523.92,-74.38"/>
<polygon fill="#63b8ff" stroke="#63b8ff" points="524.63,-77.81 533.85,-72.59 523.39,-70.92 524.63,-77.81"/>
</a>
</g>
</g>
<!-- Node23&#45;&gt;Node21 -->
<g id="edge42_Node000023_Node000021" class="edge">
<title>Node23&#45;&gt;Node21</title>
<g id="a_edge42_Node000023_Node000021"><a xlink:title=" ">
<path fill="none" stroke="#63b8ff" d="M599,-171.51C499.56,-167.09 283.46,-154.79 214,-129 185.13,-118.28 156.84,-96.19 139.65,-81.11"/>
<polygon fill="#63b8ff" stroke="#63b8ff" points="141.93,-78.45 132.16,-74.35 137.24,-83.65 141.93,-78.45"/>
</a>
</g>
</g>
<!-- Node23&#45;&gt;Node24 -->
<g id="edge28_Node000023_Node000024" class="edge">
<title>Node23&#45;&gt;Node24</title>
<g id="a_edge28_Node000023_Node000024"><a xlink:title=" ">
<path fill="none" stroke="#63b8ff" d="M701.23,-166.06C757.99,-157.68 852.2,-143.33 933,-129 934.26,-128.78 935.55,-128.54 936.85,-128.31"/>
<polygon fill="#63b8ff" stroke="#63b8ff" points="937.71,-131.71 946.88,-126.42 936.41,-124.83 937.71,-131.71"/>
</a>
</g>
</g>
<!-- Node23&#45;&gt;Node25 -->
<g id="edge31_Node000023_Node000025" class="edge">
<title>Node23&#45;&gt;Node25</title>
<g id="a_edge31_Node000023_Node000025"><a xlink:title=" ">
<path fill="none" stroke="#63b8ff" d="M701.22,-169.14C770,-162.86 896.15,-149.88 1013.58,-128.86"/>
<polygon fill="#63b8ff" stroke="#63b8ff" points="1014.24,-132.29 1023.46,-127.07 1013,-125.41 1014.24,-132.29"/>
</a>
</g>
</g>
<!-- Node26 -->
<g id="Node000026" class="node">
<title>Node26</title>
<g id="a_Node000026"><a xlink:title=" ">
<polygon fill="#e0e0e0" stroke="#999999" points="531.5,-129 466.5,-129 466.5,-110 531.5,-110 531.5,-129"/>
<text text-anchor="middle" x="499" y="-117" font-family="Helvetica,sans-Serif" font-size="10.00">typeindex</text>
</a>
</g>
</g>
<!-- Node23&#45;&gt;Node26 -->
<g id="edge33_Node000023_Node000026" class="edge">
<title>Node23&#45;&gt;Node26</title>
<g id="a_edge33_Node000023_Node000026"><a xlink:title=" ">
<path fill="none" stroke="#63b8ff" d="M625.74,-164.98C600.68,-156.19 561.37,-142.39 533.17,-132.49"/>
<polygon fill="#63b8ff" stroke="#63b8ff" points="534.3,-129.18 523.7,-129.17 531.98,-135.78 534.3,-129.18"/>
</a>
</g>
</g>
<!-- Node27 -->
<g id="Node000027" class="node">
<title>Node27</title>
<g id="a_Node000027"><a xlink:title=" ">
<polygon fill="#e0e0e0" stroke="#999999" points="642.5,-129 549.5,-129 549.5,-110 642.5,-110 642.5,-129"/>
<text text-anchor="middle" x="596" y="-117" font-family="Helvetica,sans-Serif" font-size="10.00">unordered_map</text>
</a>
</g>
</g>
<!-- Node23&#45;&gt;Node27 -->
<g id="edge34_Node000023_Node000027" class="edge">
<title>Node23&#45;&gt;Node27</title>
<g id="a_edge34_Node000023_Node000027"><a xlink:title=" ">
<path fill="none" stroke="#63b8ff" d="M641.08,-164.75C633.22,-157.03 621.57,-145.6 612.08,-136.28"/>
<polygon fill="#63b8ff" stroke="#63b8ff" points="614.34,-133.6 604.75,-129.09 609.44,-138.59 614.34,-133.6"/>
</a>
</g>
</g>
<!-- Node28 -->
<g id="Node000028" class="node">
<title>Node28</title>
<g id="a_Node000028"><a xlink:title=" ">
<polygon fill="#e0e0e0" stroke="#999999" points="747,-129 661,-129 661,-110 747,-110 747,-129"/>
<text text-anchor="middle" x="704" y="-117" font-family="Helvetica,sans-Serif" font-size="10.00">unordered_set</text>
</a>
</g>
</g>
<!-- Node23&#45;&gt;Node28 -->
<g id="edge35_Node000023_Node000028" class="edge">
<title>Node23&#45;&gt;Node28</title>
<g id="a_edge35_Node000023_Node000028"><a xlink:title=" ">
<path fill="none" stroke="#63b8ff" d="M658.92,-164.75C666.78,-157.03 678.43,-145.6 687.92,-136.28"/>
<polygon fill="#63b8ff" stroke="#63b8ff" points="690.56,-138.59 695.25,-129.09 685.66,-133.6 690.56,-138.59"/>
</a>
</g>
</g>
<!-- Node29 -->
<g id="Node000029" class="node">
<title>Node29</title>
<g id="a_Node000029"><a xlink:title=" ">
<polygon fill="#e0e0e0" stroke="#999999" points="815,-129 765,-129 765,-110 815,-110 815,-129"/>
<text text-anchor="middle" x="790" y="-117" font-family="Helvetica,sans-Serif" font-size="10.00">atomic</text>
</a>
</g>
</g>
<!-- Node23&#45;&gt;Node29 -->
<g id="edge41_Node000023_Node000029" class="edge">
<title>Node23&#45;&gt;Node29</title>
<g id="a_edge41_Node000023_Node000029"><a xlink:title=" ">
<path fill="none" stroke="#63b8ff" d="M672.49,-164.98C695.52,-156.27 731.54,-142.63 757.63,-132.75"/>
<polygon fill="#63b8ff" stroke="#63b8ff" points="758.98,-135.98 767.1,-129.17 756.51,-129.44 758.98,-135.98"/>
</a>
</g>
</g>
</g>
</svg>
