<?xml version="1.0" encoding="UTF-8" standalone="no"?>
<!DOCTYPE svg PUBLIC "-//W3C//DTD SVG 1.1//EN"
 "http://www.w3.org/Graphics/SVG/1.1/DTD/svg11.dtd">
<!-- Generated by graphviz version 2.43.0 (0)
 -->
<!-- Title: include/inference_engine.hpp Pages: 1 -->
<svg width="1349pt" height="357pt"
 viewBox="0.00 0.00 1349.00 357.00" xmlns="http://www.w3.org/2000/svg" xmlns:xlink="http://www.w3.org/1999/xlink">
<g id="graph0" class="graph" transform="scale(1 1) rotate(0) translate(4 353)">
<title>include/inference_engine.hpp</title>
<!-- Node1 -->
<g id="Node000001" class="node">
<title>Node1</title>
<g id="a_Node000001"><a xlink:title="InferenceEngine class for deriving properties of composite expressions.">
<polygon fill="#999999" stroke="#666666" points="776,-349 616,-349 616,-330 776,-330 776,-349"/>
<text text-anchor="middle" x="696" y="-337" font-family="Helvetica,sans-Serif" font-size="10.00">include/inference_engine.hpp</text>
</a>
</g>
</g>
<!-- Node2 -->
<g id="Node000002" class="node">
<title>Node2</title>
<g id="a_Node000002"><a xlink:href="../../de/db0/assumption_8hpp.html" target="_top" xlink:title="Core enumerations and forward declarations for the Assumption System.">
<polygon fill="white" stroke="#666666" points="434.5,-239 339.5,-239 339.5,-220 434.5,-220 434.5,-239"/>
<text text-anchor="middle" x="387" y="-227" font-family="Helvetica,sans-Serif" font-size="10.00">assumption.hpp</text>
</a>
</g>
</g>
<!-- Node1&#45;&gt;Node2 -->
<g id="edge1_Node000001_Node000002" class="edge">
<title>Node1&#45;&gt;Node2</title>
<g id="a_edge1_Node000001_Node000002"><a xlink:title=" ">
<path fill="none" stroke="#63b8ff" d="M671.5,-329.94C616.62,-310.76 483.76,-264.32 420.96,-242.37"/>
<polygon fill="#63b8ff" stroke="#63b8ff" points="422.1,-239.06 411.51,-239.07 419.79,-245.67 422.1,-239.06"/>
</a>
</g>
</g>
<!-- Node3 -->
<g id="Node000003" class="node">
<title>Node3</title>
<g id="a_Node000003"><a xlink:href="../../d5/df2/symbolic_8hpp.html" target="_top" xlink:title="符号表达式主类 SymbolicExpr 及其工厂方法、运算接口。">
<polygon fill="white" stroke="#666666" points="535,-239 453,-239 453,-220 535,-220 535,-239"/>
<text text-anchor="middle" x="494" y="-227" font-family="Helvetica,sans-Serif" font-size="10.00">symbolic.hpp</text>
</a>
</g>
</g>
<!-- Node1&#45;&gt;Node3 -->
<g id="edge2_Node000001_Node000003" class="edge">
<title>Node1&#45;&gt;Node3</title>
<g id="a_edge2_Node000001_Node000003"><a xlink:title=" ">
<path fill="none" stroke="#63b8ff" d="M679.81,-329.84C644.63,-311.04 561.02,-266.33 519,-243.87"/>
<polygon fill="#63b8ff" stroke="#63b8ff" points="520.45,-240.68 509.99,-239.05 517.15,-246.85 520.45,-240.68"/>
</a>
</g>
</g>
<!-- Node24 -->
<g id="Node000024" class="node">
<title>Node24</title>
<g id="a_Node000024"><a xlink:href="../../d9/d89/symbolic__ast_8hpp.html" target="_top" xlink:title="AST 节点定义：NumberNode, VariableNode, AddNode, MultiplyNode, PowerNode, FunctionNode,...">
<polygon fill="white" stroke="#666666" points="797,-184 695,-184 695,-165 797,-165 797,-184"/>
<text text-anchor="middle" x="746" y="-172" font-family="Helvetica,sans-Serif" font-size="10.00">symbolic_ast.hpp</text>
</a>
</g>
</g>
<!-- Node1&#45;&gt;Node24 -->
<g id="edge54_Node000001_Node000024" class="edge">
<title>Node1&#45;&gt;Node24</title>
<g id="a_edge54_Node000001_Node000024"><a xlink:title=" ">
<path fill="none" stroke="#63b8ff" d="M716.52,-330C731.02,-322.77 749.35,-310.86 758,-294 774.61,-261.63 762.72,-217.77 753.66,-193.51"/>
<polygon fill="#63b8ff" stroke="#63b8ff" points="756.87,-192.13 749.92,-184.13 750.37,-194.72 756.87,-192.13"/>
</a>
</g>
</g>
<!-- Node33 -->
<g id="Node000033" class="node">
<title>Node33</title>
<g id="a_Node000033"><a xlink:href="../../d1/ddb/relation__store_8hpp.html" target="_top" xlink:title="RelationStore class for storing relational constraints between symbolic expressions.">
<polygon fill="white" stroke="#666666" points="748.5,-294 643.5,-294 643.5,-275 748.5,-275 748.5,-294"/>
<text text-anchor="middle" x="696" y="-282" font-family="Helvetica,sans-Serif" font-size="10.00">relation_store.hpp</text>
</a>
</g>
</g>
<!-- Node1&#45;&gt;Node33 -->
<g id="edge55_Node000001_Node000033" class="edge">
<title>Node1&#45;&gt;Node33</title>
<g id="a_edge55_Node000001_Node000033"><a xlink:title=" ">
<path fill="none" stroke="#63b8ff" d="M696,-329.75C696,-322.8 696,-312.85 696,-304.13"/>
<polygon fill="#63b8ff" stroke="#63b8ff" points="699.5,-304.09 696,-294.09 692.5,-304.09 699.5,-304.09"/>
</a>
</g>
</g>
<!-- Node34 -->
<g id="Node000034" class="node">
<title>Node34</title>
<g id="a_Node000034"><a xlink:title=" ">
<polygon fill="#e0e0e0" stroke="#999999" points="1136,-294 1080,-294 1080,-275 1136,-275 1136,-294"/>
<text text-anchor="middle" x="1108" y="-282" font-family="Helvetica,sans-Serif" font-size="10.00">optional</text>
</a>
</g>
</g>
<!-- Node1&#45;&gt;Node34 -->
<g id="edge62_Node000001_Node000034" class="edge">
<title>Node1&#45;&gt;Node34</title>
<g id="a_edge62_Node000001_Node000034"><a xlink:title=" ">
<path fill="none" stroke="#63b8ff" d="M776.01,-330.74C851.13,-323.02 966.51,-310.02 1066,-294 1067.1,-293.82 1068.22,-293.64 1069.34,-293.44"/>
<polygon fill="#63b8ff" stroke="#63b8ff" points="1070.38,-296.81 1079.59,-291.57 1069.12,-289.93 1070.38,-296.81"/>
</a>
</g>
</g>
<!-- Node4 -->
<g id="Node000004" class="node">
<title>Node4</title>
<g id="a_Node000004"><a xlink:href="../../d8/d09/bigint_8hpp.html" target="_top" xlink:title="任意精度整数 BigInt，底层调用 LAMMP 实现高性能大数运算。">
<polygon fill="white" stroke="#666666" points="481.5,-74 416.5,-74 416.5,-55 481.5,-55 481.5,-74"/>
<text text-anchor="middle" x="449" y="-62" font-family="Helvetica,sans-Serif" font-size="10.00">bigint.hpp</text>
</a>
</g>
</g>
<!-- Node3&#45;&gt;Node4 -->
<g id="edge3_Node000003_Node000004" class="edge">
<title>Node3&#45;&gt;Node4</title>
<g id="a_edge3_Node000003_Node000004"><a xlink:title=" ">
<path fill="none" stroke="#63b8ff" d="M464.54,-219.93C426.62,-207.13 362.37,-178.99 335,-129 317.49,-97.01 367.08,-80.14 406.31,-72.03"/>
<polygon fill="#63b8ff" stroke="#63b8ff" points="407.11,-75.44 416.27,-70.1 405.78,-68.57 407.11,-75.44"/>
</a>
</g>
</g>
<!-- Node10 -->
<g id="Node000010" class="node">
<title>Node10</title>
<g id="a_Node000010"><a xlink:title=" ">
<polygon fill="#e0e0e0" stroke="#999999" points="111.5,-19 62.5,-19 62.5,0 111.5,0 111.5,-19"/>
<text text-anchor="middle" x="87" y="-7" font-family="Helvetica,sans-Serif" font-size="10.00">cstdlib</text>
</a>
</g>
</g>
<!-- Node3&#45;&gt;Node10 -->
<g id="edge53_Node000003_Node000010" class="edge">
<title>Node3&#45;&gt;Node10</title>
<g id="a_edge53_Node000003_Node000010"><a xlink:title=" ">
<path fill="none" stroke="#63b8ff" d="M452.61,-220.75C396.52,-210.07 301.68,-191.33 287,-184 205.49,-143.3 130.31,-61.62 100.52,-26.81"/>
<polygon fill="#63b8ff" stroke="#63b8ff" points="103.07,-24.41 93.94,-19.03 97.72,-28.93 103.07,-24.41"/>
</a>
</g>
</g>
<!-- Node12 -->
<g id="Node000012" class="node">
<title>Node12</title>
<g id="a_Node000012"><a xlink:title=" ">
<polygon fill="#e0e0e0" stroke="#999999" points="1211,-19 1167,-19 1167,0 1211,0 1211,-19"/>
<text text-anchor="middle" x="1189" y="-7" font-family="Helvetica,sans-Serif" font-size="10.00">string</text>
</a>
</g>
</g>
<!-- Node3&#45;&gt;Node12 -->
<g id="edge45_Node000003_Node000012" class="edge">
<title>Node3&#45;&gt;Node12</title>
<g id="a_edge45_Node000003_Node000012"><a xlink:title=" ">
<path fill="none" stroke="#63b8ff" d="M535.09,-228.2C669.09,-226.41 1090.44,-214 1190,-129 1215.67,-107.09 1213.45,-88.12 1207,-55 1205.21,-45.8 1201.52,-36.09 1197.94,-28.1"/>
<polygon fill="#63b8ff" stroke="#63b8ff" points="1201.09,-26.57 1193.62,-19.06 1194.77,-29.59 1201.09,-26.57"/>
</a>
</g>
</g>
<!-- Node13 -->
<g id="Node000013" class="node">
<title>Node13</title>
<g id="a_Node000013"><a xlink:title=" ">
<polygon fill="#e0e0e0" stroke="#999999" points="190,-19 130,-19 130,0 190,0 190,-19"/>
<text text-anchor="middle" x="160" y="-7" font-family="Helvetica,sans-Serif" font-size="10.00">iostream</text>
</a>
</g>
</g>
<!-- Node3&#45;&gt;Node13 -->
<g id="edge52_Node000003_Node000013" class="edge">
<title>Node3&#45;&gt;Node13</title>
<g id="a_edge52_Node000003_Node000013"><a xlink:title=" ">
<path fill="none" stroke="#63b8ff" d="M452.68,-221.08C407.59,-212.47 338.79,-197.71 316,-184 248.11,-143.15 192.89,-63.43 170.61,-28.09"/>
<polygon fill="#63b8ff" stroke="#63b8ff" points="173.46,-26.03 165.22,-19.37 167.5,-29.71 173.46,-26.03"/>
</a>
</g>
</g>
<!-- Node14 -->
<g id="Node000014" class="node">
<title>Node14</title>
<g id="a_Node000014"><a xlink:title=" ">
<polygon fill="#e0e0e0" stroke="#999999" points="272,-19 208,-19 208,0 272,0 272,-19"/>
<text text-anchor="middle" x="240" y="-7" font-family="Helvetica,sans-Serif" font-size="10.00">algorithm</text>
</a>
</g>
</g>
<!-- Node3&#45;&gt;Node14 -->
<g id="edge49_Node000003_Node000014" class="edge">
<title>Node3&#45;&gt;Node14</title>
<g id="a_edge49_Node000003_Node000014"><a xlink:title=" ">
<path fill="none" stroke="#63b8ff" d="M452.76,-220.34C413.11,-211.85 356.67,-197.88 339,-184 286.34,-142.63 256.79,-64.95 245.46,-29.28"/>
<polygon fill="#63b8ff" stroke="#63b8ff" points="248.67,-27.82 242.41,-19.28 241.97,-29.86 248.67,-27.82"/>
</a>
</g>
</g>
<!-- Node17 -->
<g id="Node000017" class="node">
<title>Node17</title>
<g id="a_Node000017"><a xlink:title=" ">
<polygon fill="#e0e0e0" stroke="#999999" points="44,-19 0,-19 0,0 44,0 44,-19"/>
<text text-anchor="middle" x="22" y="-7" font-family="Helvetica,sans-Serif" font-size="10.00">limits</text>
</a>
</g>
</g>
<!-- Node3&#45;&gt;Node17 -->
<g id="edge48_Node000003_Node000017" class="edge">
<title>Node3&#45;&gt;Node17</title>
<g id="a_edge48_Node000003_Node000017"><a xlink:title=" ">
<path fill="none" stroke="#63b8ff" d="M452.99,-221.47C386.39,-209.97 261.15,-188.02 252,-184 160.85,-143.97 72.4,-61.3 37.55,-26.5"/>
<polygon fill="#63b8ff" stroke="#63b8ff" points="39.75,-23.75 30.23,-19.1 34.78,-28.67 39.75,-23.75"/>
</a>
</g>
</g>
<!-- Node19 -->
<g id="Node000019" class="node">
<title>Node19</title>
<g id="a_Node000019"><a xlink:href="../../d1/de8/rational_8hpp.html" target="_top" xlink:title="精确有理数 Rational，基于 BigInt 分子/分母表示，自动约分。">
<polygon fill="white" stroke="#666666" points="679.5,-129 604.5,-129 604.5,-110 679.5,-110 679.5,-129"/>
<text text-anchor="middle" x="642" y="-117" font-family="Helvetica,sans-Serif" font-size="10.00">rational.hpp</text>
</a>
</g>
</g>
<!-- Node3&#45;&gt;Node19 -->
<g id="edge18_Node000003_Node000019" class="edge">
<title>Node3&#45;&gt;Node19</title>
<g id="a_edge18_Node000003_Node000019"><a xlink:title=" ">
<path fill="none" stroke="#63b8ff" d="M535.25,-220.51C559.39,-214.07 589.12,-202.88 610,-184 623.43,-171.86 631.97,-152.8 636.82,-138.72"/>
<polygon fill="#63b8ff" stroke="#63b8ff" points="640.18,-139.72 639.83,-129.13 633.5,-137.62 640.18,-139.72"/>
</a>
</g>
</g>
<!-- Node22 -->
<g id="Node000022" class="node">
<title>Node22</title>
<g id="a_Node000022"><a xlink:title=" ">
<polygon fill="#e0e0e0" stroke="#999999" points="360,-74 322,-74 322,-55 360,-55 360,-74"/>
<text text-anchor="middle" x="341" y="-62" font-family="Helvetica,sans-Serif" font-size="10.00">map</text>
</a>
</g>
</g>
<!-- Node3&#45;&gt;Node22 -->
<g id="edge50_Node000003_Node000022" class="edge">
<title>Node3&#45;&gt;Node22</title>
<g id="a_edge50_Node000003_Node000022"><a xlink:title=" ">
<path fill="none" stroke="#63b8ff" d="M459.91,-219.99C425.86,-210.98 376.42,-196.39 361,-184 338.77,-166.15 335.61,-156.47 328,-129 323.82,-113.92 328.02,-96.48 332.73,-83.7"/>
<polygon fill="#63b8ff" stroke="#63b8ff" points="336.06,-84.8 336.63,-74.22 329.59,-82.13 336.06,-84.8"/>
</a>
</g>
</g>
<!-- Node3&#45;&gt;Node24 -->
<g id="edge28_Node000003_Node000024" class="edge">
<title>Node3&#45;&gt;Node24</title>
<g id="a_edge28_Node000003_Node000024"><a xlink:title=" ">
<path fill="none" stroke="#63b8ff" d="M534.49,-219.98C578.17,-210.8 647.81,-196.15 695.15,-186.19"/>
<polygon fill="#63b8ff" stroke="#63b8ff" points="696.13,-189.57 705.19,-184.08 694.69,-182.72 696.13,-189.57"/>
</a>
</g>
</g>
<!-- Node25 -->
<g id="Node000025" class="node">
<title>Node25</title>
<g id="a_Node000025"><a xlink:title=" ">
<polygon fill="#e0e0e0" stroke="#999999" points="472,-129 414,-129 414,-110 472,-110 472,-129"/>
<text text-anchor="middle" x="443" y="-117" font-family="Helvetica,sans-Serif" font-size="10.00">memory</text>
</a>
</g>
</g>
<!-- Node3&#45;&gt;Node25 -->
<g id="edge44_Node000003_Node000025" class="edge">
<title>Node3&#45;&gt;Node25</title>
<g id="a_edge44_Node000003_Node000025"><a xlink:title=" ">
<path fill="none" stroke="#63b8ff" d="M486.44,-219.86C479.27,-211.28 468.64,-197.49 462,-184 454.93,-169.62 449.93,-152.1 446.84,-139.11"/>
<polygon fill="#63b8ff" stroke="#63b8ff" points="450.19,-138.06 444.61,-129.05 443.36,-139.57 450.19,-138.06"/>
</a>
</g>
</g>
<!-- Node26 -->
<g id="Node000026" class="node">
<title>Node26</title>
<g id="a_Node000026"><a xlink:title=" ">
<polygon fill="#e0e0e0" stroke="#999999" points="395.5,-129 344.5,-129 344.5,-110 395.5,-110 395.5,-129"/>
<text text-anchor="middle" x="370" y="-117" font-family="Helvetica,sans-Serif" font-size="10.00">variant</text>
</a>
</g>
</g>
<!-- Node3&#45;&gt;Node26 -->
<g id="edge46_Node000003_Node000026" class="edge">
<title>Node3&#45;&gt;Node26</title>
<g id="a_edge46_Node000003_Node000026"><a xlink:title=" ">
<path fill="none" stroke="#63b8ff" d="M483.85,-219.66C462.77,-201.3 413.99,-158.81 387.64,-135.87"/>
<polygon fill="#63b8ff" stroke="#63b8ff" points="389.78,-133.09 379.94,-129.16 385.18,-138.37 389.78,-133.09"/>
</a>
</g>
</g>
<!-- Node31 -->
<g id="Node000031" class="node">
<title>Node31</title>
<g id="a_Node000031"><a xlink:title=" ">
<polygon fill="#e0e0e0" stroke="#999999" points="517.5,-184 470.5,-184 470.5,-165 517.5,-165 517.5,-184"/>
<text text-anchor="middle" x="494" y="-172" font-family="Helvetica,sans-Serif" font-size="10.00">cmath</text>
</a>
</g>
</g>
<!-- Node3&#45;&gt;Node31 -->
<g id="edge47_Node000003_Node000031" class="edge">
<title>Node3&#45;&gt;Node31</title>
<g id="a_edge47_Node000003_Node000031"><a xlink:title=" ">
<path fill="none" stroke="#63b8ff" d="M494,-219.75C494,-212.8 494,-202.85 494,-194.13"/>
<polygon fill="#63b8ff" stroke="#63b8ff" points="497.5,-194.09 494,-184.09 490.5,-194.09 497.5,-194.09"/>
</a>
</g>
</g>
<!-- Node32 -->
<g id="Node000032" class="node">
<title>Node32</title>
<g id="a_Node000032"><a xlink:title=" ">
<polygon fill="#e0e0e0" stroke="#999999" points="600.5,-184 535.5,-184 535.5,-165 600.5,-165 600.5,-184"/>
<text text-anchor="middle" x="568" y="-172" font-family="Helvetica,sans-Serif" font-size="10.00">functional</text>
</a>
</g>
</g>
<!-- Node3&#45;&gt;Node32 -->
<g id="edge51_Node000003_Node000032" class="edge">
<title>Node3&#45;&gt;Node32</title>
<g id="a_edge51_Node000003_Node000032"><a xlink:title=" ">
<path fill="none" stroke="#63b8ff" d="M505.89,-219.98C517.15,-211.92 534.29,-199.65 547.71,-190.03"/>
<polygon fill="#63b8ff" stroke="#63b8ff" points="549.8,-192.84 555.89,-184.17 545.73,-187.15 549.8,-192.84"/>
</a>
</g>
</g>
<!-- Node5 -->
<g id="Node000005" class="node">
<title>Node5</title>
<g id="a_Node000005"><a xlink:title=" ">
<polygon fill="#e0e0e0" stroke="#999999" points="382,-19 290,-19 290,0 382,0 382,-19"/>
<text text-anchor="middle" x="336" y="-7" font-family="Helvetica,sans-Serif" font-size="10.00">lammp/lmmp.h</text>
</a>
</g>
</g>
<!-- Node4&#45;&gt;Node5 -->
<g id="edge4_Node000004_Node000005" class="edge">
<title>Node4&#45;&gt;Node5</title>
<g id="a_edge4_Node000004_Node000005"><a xlink:title=" ">
<path fill="none" stroke="#63b8ff" d="M430.84,-54.98C412.75,-46.5 384.72,-33.35 363.81,-23.54"/>
<polygon fill="#63b8ff" stroke="#63b8ff" points="365.03,-20.25 354.49,-19.17 362.05,-26.59 365.03,-20.25"/>
</a>
</g>
</g>
<!-- Node6 -->
<g id="Node000006" class="node">
<title>Node6</title>
<g id="a_Node000006"><a xlink:title=" ">
<polygon fill="#e0e0e0" stroke="#999999" points="498,-19 400,-19 400,0 498,0 498,-19"/>
<text text-anchor="middle" x="449" y="-7" font-family="Helvetica,sans-Serif" font-size="10.00">lammp/lmmpn.h</text>
</a>
</g>
</g>
<!-- Node4&#45;&gt;Node6 -->
<g id="edge5_Node000004_Node000006" class="edge">
<title>Node4&#45;&gt;Node6</title>
<g id="a_edge5_Node000004_Node000006"><a xlink:title=" ">
<path fill="none" stroke="#63b8ff" d="M449,-54.75C449,-47.8 449,-37.85 449,-29.13"/>
<polygon fill="#63b8ff" stroke="#63b8ff" points="452.5,-29.09 449,-19.09 445.5,-29.09 452.5,-29.09"/>
</a>
</g>
</g>
<!-- Node7 -->
<g id="Node000007" class="node">
<title>Node7</title>
<g id="a_Node000007"><a xlink:title=" ">
<polygon fill="#e0e0e0" stroke="#999999" points="611.5,-19 516.5,-19 516.5,0 611.5,0 611.5,-19"/>
<text text-anchor="middle" x="564" y="-7" font-family="Helvetica,sans-Serif" font-size="10.00">lammp/numth.h</text>
</a>
</g>
</g>
<!-- Node4&#45;&gt;Node7 -->
<g id="edge6_Node000004_Node000007" class="edge">
<title>Node4&#45;&gt;Node7</title>
<g id="a_edge6_Node000004_Node000007"><a xlink:title=" ">
<path fill="none" stroke="#63b8ff" d="M467.48,-54.98C485.98,-46.46 514.68,-33.23 535.98,-23.41"/>
<polygon fill="#63b8ff" stroke="#63b8ff" points="537.57,-26.53 545.19,-19.17 534.64,-20.18 537.57,-26.53"/>
</a>
</g>
</g>
<!-- Node8 -->
<g id="Node000008" class="node">
<title>Node8</title>
<g id="a_Node000008"><a xlink:title=" ">
<polygon fill="#e0e0e0" stroke="#999999" points="702,-19 630,-19 630,0 702,0 702,-19"/>
<text text-anchor="middle" x="666" y="-7" font-family="Helvetica,sans-Serif" font-size="10.00">lmmc/init.h</text>
</a>
</g>
</g>
<!-- Node4&#45;&gt;Node8 -->
<g id="edge7_Node000004_Node000008" class="edge">
<title>Node4&#45;&gt;Node8</title>
<g id="a_edge7_Node000004_Node000008"><a xlink:title=" ">
<path fill="none" stroke="#63b8ff" d="M481.96,-55.45C519.09,-46.38 579.65,-31.59 621.09,-21.47"/>
<polygon fill="#63b8ff" stroke="#63b8ff" points="622.05,-24.84 630.93,-19.07 620.38,-18.04 622.05,-24.84"/>
</a>
</g>
</g>
<!-- Node9 -->
<g id="Node000009" class="node">
<title>Node9</title>
<g id="a_Node000009"><a xlink:title=" ">
<polygon fill="#e0e0e0" stroke="#999999" points="1288.5,-19 1241.5,-19 1241.5,0 1288.5,0 1288.5,-19"/>
<text text-anchor="middle" x="1265" y="-7" font-family="Helvetica,sans-Serif" font-size="10.00">vector</text>
</a>
</g>
</g>
<!-- Node4&#45;&gt;Node9 -->
<g id="edge8_Node000004_Node000009" class="edge">
<title>Node4&#45;&gt;Node9</title>
<g id="a_edge8_Node000004_Node000009"><a xlink:title=" ">
<path fill="none" stroke="#63b8ff" d="M481.94,-56.35C484.99,-55.83 488.05,-55.37 491,-55 812.88,-14.71 897.86,-57.19 1220,-19 1223.69,-18.56 1227.53,-18 1231.35,-17.38"/>
<polygon fill="#63b8ff" stroke="#63b8ff" points="1232.04,-20.81 1241.27,-15.61 1230.81,-13.92 1232.04,-20.81"/>
</a>
</g>
</g>
<!-- Node4&#45;&gt;Node10 -->
<g id="edge9_Node000004_Node000010" class="edge">
<title>Node4&#45;&gt;Node10</title>
<g id="a_edge9_Node000004_Node000010"><a xlink:title=" ">
<path fill="none" stroke="#63b8ff" d="M416.35,-59.54C348.39,-51.21 192.81,-31.76 121.67,-18.89"/>
<polygon fill="#63b8ff" stroke="#63b8ff" points="122.29,-15.44 111.81,-17.04 121,-22.32 122.29,-15.44"/>
</a>
</g>
</g>
<!-- Node11 -->
<g id="Node000011" class="node">
<title>Node11</title>
<g id="a_Node000011"><a xlink:title=" ">
<polygon fill="#e0e0e0" stroke="#999999" points="770,-19 720,-19 720,0 770,0 770,-19"/>
<text text-anchor="middle" x="745" y="-7" font-family="Helvetica,sans-Serif" font-size="10.00">cstring</text>
</a>
</g>
</g>
<!-- Node4&#45;&gt;Node11 -->
<g id="edge10_Node000004_Node000011" class="edge">
<title>Node4&#45;&gt;Node11</title>
<g id="a_edge10_Node000004_Node000011"><a xlink:title=" ">
<path fill="none" stroke="#63b8ff" d="M481.54,-56.79C484.73,-56.17 487.93,-55.56 491,-55 585.32,-37.74 612.25,-38.93 709.82,-19.1"/>
<polygon fill="#63b8ff" stroke="#63b8ff" points="710.71,-22.49 719.8,-17.05 709.3,-15.63 710.71,-22.49"/>
</a>
</g>
</g>
<!-- Node4&#45;&gt;Node12 -->
<g id="edge11_Node000004_Node000012" class="edge">
<title>Node4&#45;&gt;Node12</title>
<g id="a_edge11_Node000004_Node000012"><a xlink:title=" ">
<path fill="none" stroke="#63b8ff" d="M481.94,-56.39C485,-55.87 488.05,-55.39 491,-55 524.37,-50.58 1023.63,-20.43 1156.64,-12.44"/>
<polygon fill="#63b8ff" stroke="#63b8ff" points="1156.86,-15.93 1166.63,-11.84 1156.44,-8.95 1156.86,-15.93"/>
</a>
</g>
</g>
<!-- Node4&#45;&gt;Node13 -->
<g id="edge12_Node000004_Node000013" class="edge">
<title>Node4&#45;&gt;Node13</title>
<g id="a_edge12_Node000004_Node000013"><a xlink:title=" ">
<path fill="none" stroke="#63b8ff" d="M416.16,-58.07C370.13,-50.36 283.55,-35.55 200.1,-19.16"/>
<polygon fill="#63b8ff" stroke="#63b8ff" points="200.7,-15.71 190.21,-17.2 199.34,-22.58 200.7,-15.71"/>
</a>
</g>
</g>
<!-- Node4&#45;&gt;Node14 -->
<g id="edge13_Node000004_Node000014" class="edge">
<title>Node4&#45;&gt;Node14</title>
<g id="a_edge13_Node000004_Node000014"><a xlink:title=" ">
<path fill="none" stroke="#63b8ff" d="M416.34,-55.22C380.12,-46.03 321.57,-31.18 281.97,-21.14"/>
<polygon fill="#63b8ff" stroke="#63b8ff" points="282.64,-17.7 272.08,-18.64 280.92,-24.49 282.64,-17.7"/>
</a>
</g>
</g>
<!-- Node15 -->
<g id="Node000015" class="node">
<title>Node15</title>
<g id="a_Node000015"><a xlink:title=" ">
<polygon fill="#e0e0e0" stroke="#999999" points="844,-19 788,-19 788,0 844,0 844,-19"/>
<text text-anchor="middle" x="816" y="-7" font-family="Helvetica,sans-Serif" font-size="10.00">iomanip</text>
</a>
</g>
</g>
<!-- Node4&#45;&gt;Node15 -->
<g id="edge14_Node000004_Node000015" class="edge">
<title>Node4&#45;&gt;Node15</title>
<g id="a_edge14_Node000004_Node000015"><a xlink:title=" ">
<path fill="none" stroke="#63b8ff" d="M481.51,-56.67C484.71,-56.07 487.92,-55.5 491,-55 615.07,-34.72 650.21,-41.12 777.63,-19.08"/>
<polygon fill="#63b8ff" stroke="#63b8ff" points="778.53,-22.47 787.78,-17.29 777.32,-15.58 778.53,-22.47"/>
</a>
</g>
</g>
<!-- Node16 -->
<g id="Node000016" class="node">
<title>Node16</title>
<g id="a_Node000016"><a xlink:title=" ">
<polygon fill="#e0e0e0" stroke="#999999" points="1031.5,-19 966.5,-19 966.5,0 1031.5,0 1031.5,-19"/>
<text text-anchor="middle" x="999" y="-7" font-family="Helvetica,sans-Serif" font-size="10.00">stdexcept</text>
</a>
</g>
</g>
<!-- Node4&#45;&gt;Node16 -->
<g id="edge15_Node000004_Node000016" class="edge">
<title>Node4&#45;&gt;Node16</title>
<g id="a_edge15_Node000004_Node000016"><a xlink:title=" ">
<path fill="none" stroke="#63b8ff" d="M481.95,-56.43C485,-55.9 488.05,-55.41 491,-55 693.53,-26.79 749.52,-47 956.1,-18.94"/>
<polygon fill="#63b8ff" stroke="#63b8ff" points="956.62,-22.4 966.05,-17.57 955.67,-15.47 956.62,-22.4"/>
</a>
</g>
</g>
<!-- Node4&#45;&gt;Node17 -->
<g id="edge16_Node000004_Node000017" class="edge">
<title>Node4&#45;&gt;Node17</title>
<g id="a_edge16_Node000004_Node000017"><a xlink:title=" ">
<path fill="none" stroke="#63b8ff" d="M416.31,-59.97C331.83,-50.82 109.47,-26.63 54.45,-18.69"/>
<polygon fill="#63b8ff" stroke="#63b8ff" points="54.68,-15.19 44.25,-17.05 53.57,-22.1 54.68,-15.19"/>
</a>
</g>
</g>
<!-- Node18 -->
<g id="Node000018" class="node">
<title>Node18</title>
<g id="a_Node000018"><a xlink:title=" ">
<polygon fill="#e0e0e0" stroke="#999999" points="948,-19 862,-19 862,0 948,0 948,-19"/>
<text text-anchor="middle" x="905" y="-7" font-family="Helvetica,sans-Serif" font-size="10.00">lmmc/config.h</text>
</a>
</g>
</g>
<!-- Node4&#45;&gt;Node18 -->
<g id="edge17_Node000004_Node000018" class="edge">
<title>Node4&#45;&gt;Node18</title>
<g id="a_edge17_Node000004_Node000018"><a xlink:title=" ">
<path fill="none" stroke="#63b8ff" d="M481.5,-56.59C484.7,-56.01 487.91,-55.47 491,-55 647.6,-31.43 690.93,-39.69 851.65,-19.09"/>
<polygon fill="#63b8ff" stroke="#63b8ff" points="852.44,-22.52 861.9,-17.76 851.53,-15.58 852.44,-22.52"/>
</a>
</g>
</g>
<!-- Node19&#45;&gt;Node4 -->
<g id="edge21_Node000019_Node000004" class="edge">
<title>Node19&#45;&gt;Node4</title>
<g id="a_edge21_Node000019_Node000004"><a xlink:title=" ">
<path fill="none" stroke="#63b8ff" d="M610.99,-109.98C578.17,-100.97 526.2,-86.7 490.01,-76.76"/>
<polygon fill="#63b8ff" stroke="#63b8ff" points="490.82,-73.36 480.25,-74.08 488.97,-80.11 490.82,-73.36"/>
</a>
</g>
</g>
<!-- Node19&#45;&gt;Node12 -->
<g id="edge25_Node000019_Node000012" class="edge">
<title>Node19&#45;&gt;Node12</title>
<g id="a_edge25_Node000019_Node000012"><a xlink:title=" ">
<path fill="none" stroke="#63b8ff" d="M665.26,-109.99C687.93,-101.5 723.23,-87.78 753,-74 769.42,-66.4 771.71,-60.32 789,-55 857.7,-33.88 1074.32,-17.97 1156.74,-12.53"/>
<polygon fill="#63b8ff" stroke="#63b8ff" points="1157.02,-16.02 1166.78,-11.88 1156.57,-9.03 1157.02,-16.02"/>
</a>
</g>
</g>
<!-- Node19&#45;&gt;Node15 -->
<g id="edge22_Node000019_Node000015" class="edge">
<title>Node19&#45;&gt;Node15</title>
<g id="a_edge22_Node000019_Node000015"><a xlink:title=" ">
<path fill="none" stroke="#63b8ff" d="M644.94,-109.76C649.98,-96.1 661.53,-69.75 680,-55 695.33,-42.76 743.49,-28.69 778.15,-19.7"/>
<polygon fill="#63b8ff" stroke="#63b8ff" points="779.15,-23.06 787.98,-17.2 777.42,-16.28 779.15,-23.06"/>
</a>
</g>
</g>
<!-- Node19&#45;&gt;Node16 -->
<g id="edge24_Node000019_Node000016" class="edge">
<title>Node19&#45;&gt;Node16</title>
<g id="a_edge24_Node000019_Node000016"><a xlink:title=" ">
<path fill="none" stroke="#63b8ff" d="M657,-109.78C685.52,-93.26 745.65,-58.69 756,-55 838.56,-25.54 865.98,-35.27 956.59,-18.99"/>
<polygon fill="#63b8ff" stroke="#63b8ff" points="957.26,-22.43 966.45,-17.16 955.98,-15.54 957.26,-22.43"/>
</a>
</g>
</g>
<!-- Node19&#45;&gt;Node18 -->
<g id="edge19_Node000019_Node000018" class="edge">
<title>Node19&#45;&gt;Node18</title>
<g id="a_edge19_Node000019_Node000018"><a xlink:title=" ">
<path fill="none" stroke="#63b8ff" d="M649.94,-109.62C662.83,-95.78 689.72,-69.18 718,-55 741.21,-43.36 805.28,-29.43 851.97,-20.3"/>
<polygon fill="#63b8ff" stroke="#63b8ff" points="852.79,-23.7 861.94,-18.37 851.46,-16.83 852.79,-23.7"/>
</a>
</g>
</g>
<!-- Node20 -->
<g id="Node000020" class="node">
<title>Node20</title>
<g id="a_Node000020"><a xlink:title=" ">
<polygon fill="#e0e0e0" stroke="#999999" points="894,-74 798,-74 798,-55 894,-55 894,-74"/>
<text text-anchor="middle" x="846" y="-62" font-family="Helvetica,sans-Serif" font-size="10.00">lmmc/numeric.h</text>
</a>
</g>
</g>
<!-- Node19&#45;&gt;Node20 -->
<g id="edge20_Node000019_Node000020" class="edge">
<title>Node19&#45;&gt;Node20</title>
<g id="a_edge20_Node000019_Node000020"><a xlink:title=" ">
<path fill="none" stroke="#63b8ff" d="M674.78,-109.98C709.62,-100.93 764.87,-86.58 803.14,-76.64"/>
<polygon fill="#63b8ff" stroke="#63b8ff" points="804.17,-79.98 812.97,-74.08 802.41,-73.21 804.17,-79.98"/>
</a>
</g>
</g>
<!-- Node21 -->
<g id="Node000021" class="node">
<title>Node21</title>
<g id="a_Node000021"><a xlink:title=" ">
<polygon fill="#e0e0e0" stroke="#999999" points="556,-74 500,-74 500,-55 556,-55 556,-74"/>
<text text-anchor="middle" x="528" y="-62" font-family="Helvetica,sans-Serif" font-size="10.00">sstream</text>
</a>
</g>
</g>
<!-- Node19&#45;&gt;Node21 -->
<g id="edge23_Node000019_Node000021" class="edge">
<title>Node19&#45;&gt;Node21</title>
<g id="a_edge23_Node000019_Node000021"><a xlink:title=" ">
<path fill="none" stroke="#63b8ff" d="M623.68,-109.98C605.34,-101.46 576.89,-88.23 555.77,-78.41"/>
<polygon fill="#63b8ff" stroke="#63b8ff" points="557.19,-75.21 546.65,-74.17 554.24,-81.56 557.19,-75.21"/>
</a>
</g>
</g>
<!-- Node19&#45;&gt;Node22 -->
<g id="edge26_Node000019_Node000022" class="edge">
<title>Node19&#45;&gt;Node22</title>
<g id="a_edge26_Node000019_Node000022"><a xlink:title=" ">
<path fill="none" stroke="#63b8ff" d="M604.49,-111.89C543.76,-101.2 425.21,-80.33 370.26,-70.65"/>
<polygon fill="#63b8ff" stroke="#63b8ff" points="370.61,-67.16 360.15,-68.87 369.39,-74.05 370.61,-67.16"/>
</a>
</g>
</g>
<!-- Node23 -->
<g id="Node000023" class="node">
<title>Node23</title>
<g id="a_Node000023"><a xlink:title=" ">
<polygon fill="#e0e0e0" stroke="#999999" points="627.5,-74 574.5,-74 574.5,-55 627.5,-55 627.5,-74"/>
<text text-anchor="middle" x="601" y="-62" font-family="Helvetica,sans-Serif" font-size="10.00">stdint.h</text>
</a>
</g>
</g>
<!-- Node19&#45;&gt;Node23 -->
<g id="edge27_Node000019_Node000023" class="edge">
<title>Node19&#45;&gt;Node23</title>
<g id="a_edge27_Node000019_Node000023"><a xlink:title=" ">
<path fill="none" stroke="#63b8ff" d="M635.23,-109.75C629.44,-102.26 620.94,-91.28 613.86,-82.13"/>
<polygon fill="#63b8ff" stroke="#63b8ff" points="616.53,-79.86 607.64,-74.09 610.99,-84.14 616.53,-79.86"/>
</a>
</g>
</g>
<!-- Node24&#45;&gt;Node4 -->
<g id="edge38_Node000024_Node000004" class="edge">
<title>Node24&#45;&gt;Node4</title>
<g id="a_edge38_Node000024_Node000004"><a xlink:title=" ">
<path fill="none" stroke="#63b8ff" d="M713.16,-164.97C682.52,-156.73 635.71,-143.41 596,-129 595.63,-128.86 520.86,-96.56 478.12,-78.08"/>
<polygon fill="#63b8ff" stroke="#63b8ff" points="479.33,-74.8 468.76,-74.04 476.55,-81.22 479.33,-74.8"/>
</a>
</g>
</g>
<!-- Node24&#45;&gt;Node9 -->
<g id="edge30_Node000024_Node000009" class="edge">
<title>Node24&#45;&gt;Node9</title>
<g id="a_edge30_Node000024_Node000009"><a xlink:title=" ">
<path fill="none" stroke="#63b8ff" d="M797.09,-173.89C899.46,-173.78 1125.4,-168.89 1190,-129 1227.51,-105.84 1249.48,-56.17 1259.12,-29.07"/>
<polygon fill="#63b8ff" stroke="#63b8ff" points="1262.54,-29.87 1262.42,-19.28 1255.91,-27.64 1262.54,-29.87"/>
</a>
</g>
</g>
<!-- Node24&#45;&gt;Node12 -->
<g id="edge31_Node000024_Node000012" class="edge">
<title>Node24&#45;&gt;Node12</title>
<g id="a_edge31_Node000024_Node000012"><a xlink:title=" ">
<path fill="none" stroke="#63b8ff" d="M797.33,-171.56C904.31,-167.04 1143.4,-154.19 1170,-129 1197.02,-103.42 1195.59,-55.86 1192.25,-29.44"/>
<polygon fill="#63b8ff" stroke="#63b8ff" points="1195.67,-28.61 1190.73,-19.24 1188.74,-29.64 1195.67,-28.61"/>
</a>
</g>
</g>
<!-- Node24&#45;&gt;Node14 -->
<g id="edge33_Node000024_Node000014" class="edge">
<title>Node24&#45;&gt;Node14</title>
<g id="a_edge33_Node000024_Node000014"><a xlink:title=" ">
<path fill="none" stroke="#63b8ff" d="M694.7,-165.49C654.97,-158.4 598.97,-146.44 552,-129 535.04,-122.7 532.65,-117.08 516,-110 469.06,-90.02 454.16,-93.46 407,-74 389.55,-66.8 386.41,-62.32 369,-55 338.92,-42.36 303.87,-30.44 277.91,-22.12"/>
<polygon fill="#63b8ff" stroke="#63b8ff" points="278.67,-18.69 268.08,-19.01 276.55,-25.37 278.67,-18.69"/>
</a>
</g>
</g>
<!-- Node24&#45;&gt;Node16 -->
<g id="edge41_Node000024_Node000016" class="edge">
<title>Node24&#45;&gt;Node16</title>
<g id="a_edge41_Node000024_Node000016"><a xlink:title=" ">
<path fill="none" stroke="#63b8ff" d="M751.68,-164.75C760.99,-151.09 780.81,-124.73 804,-110 849.57,-81.06 872.34,-99.36 920,-74 944.12,-61.17 968.04,-40.55 983.13,-26.3"/>
<polygon fill="#63b8ff" stroke="#63b8ff" points="985.79,-28.6 990.55,-19.13 980.93,-23.56 985.79,-28.6"/>
</a>
</g>
</g>
<!-- Node24&#45;&gt;Node18 -->
<g id="edge39_Node000024_Node000018" class="edge">
<title>Node24&#45;&gt;Node18</title>
<g id="a_edge39_Node000024_Node000018"><a xlink:title=" ">
<path fill="none" stroke="#63b8ff" d="M746.82,-164.71C748.57,-151 753.94,-124.57 770,-110 815.35,-68.85 865.02,-122.04 903,-74 912.82,-61.57 912.25,-43.11 909.86,-29.29"/>
<polygon fill="#63b8ff" stroke="#63b8ff" points="913.26,-28.43 907.72,-19.4 906.42,-29.92 913.26,-28.43"/>
</a>
</g>
</g>
<!-- Node24&#45;&gt;Node19 -->
<g id="edge37_Node000024_Node000019" class="edge">
<title>Node24&#45;&gt;Node19</title>
<g id="a_edge37_Node000024_Node000019"><a xlink:title=" ">
<path fill="none" stroke="#63b8ff" d="M729.29,-164.98C712.79,-156.57 687.3,-143.59 668.12,-133.81"/>
<polygon fill="#63b8ff" stroke="#63b8ff" points="669.51,-130.59 659.01,-129.17 666.33,-136.83 669.51,-130.59"/>
</a>
</g>
</g>
<!-- Node24&#45;&gt;Node20 -->
<g id="edge40_Node000024_Node000020" class="edge">
<title>Node24&#45;&gt;Node20</title>
<g id="a_edge40_Node000024_Node000020"><a xlink:title=" ">
<path fill="none" stroke="#63b8ff" d="M740.26,-164.9C732.38,-151.9 720.41,-126.97 732,-110 744.84,-91.21 766.88,-80.36 788.19,-74.08"/>
<polygon fill="#63b8ff" stroke="#63b8ff" points="789.12,-77.46 797.89,-71.51 787.33,-70.69 789.12,-77.46"/>
</a>
</g>
</g>
<!-- Node24&#45;&gt;Node22 -->
<g id="edge43_Node000024_Node000022" class="edge">
<title>Node24&#45;&gt;Node22</title>
<g id="a_edge43_Node000024_Node000022"><a xlink:title=" ">
<path fill="none" stroke="#63b8ff" d="M694.95,-166.51C649.43,-159.52 581.33,-147.17 524,-129 504.08,-122.69 500.54,-117.4 481,-110 443.19,-95.68 398.52,-82.03 369.99,-73.71"/>
<polygon fill="#63b8ff" stroke="#63b8ff" points="370.83,-70.31 360.25,-70.9 368.88,-77.04 370.83,-70.31"/>
</a>
</g>
</g>
<!-- Node24&#45;&gt;Node25 -->
<g id="edge29_Node000024_Node000025" class="edge">
<title>Node24&#45;&gt;Node25</title>
<g id="a_edge29_Node000024_Node000025"><a xlink:title=" ">
<path fill="none" stroke="#63b8ff" d="M694.63,-165.11C642.13,-156.44 558.28,-142.33 486,-129 484.74,-128.77 483.45,-128.53 482.16,-128.28"/>
<polygon fill="#63b8ff" stroke="#63b8ff" points="482.6,-124.81 472.12,-126.36 481.29,-131.68 482.6,-124.81"/>
</a>
</g>
</g>
<!-- Node24&#45;&gt;Node26 -->
<g id="edge32_Node000024_Node000026" class="edge">
<title>Node24&#45;&gt;Node26</title>
<g id="a_edge32_Node000024_Node000026"><a xlink:title=" ">
<path fill="none" stroke="#63b8ff" d="M694.89,-168.58C629.99,-161.94 514.4,-148.83 405.7,-128.93"/>
<polygon fill="#63b8ff" stroke="#63b8ff" points="406.02,-125.43 395.55,-127.04 404.74,-132.31 406.02,-125.43"/>
</a>
</g>
</g>
<!-- Node27 -->
<g id="Node000027" class="node">
<title>Node27</title>
<g id="a_Node000027"><a xlink:title=" ">
<polygon fill="#e0e0e0" stroke="#999999" points="877.5,-129 812.5,-129 812.5,-110 877.5,-110 877.5,-129"/>
<text text-anchor="middle" x="845" y="-117" font-family="Helvetica,sans-Serif" font-size="10.00">typeindex</text>
</a>
</g>
</g>
<!-- Node24&#45;&gt;Node27 -->
<g id="edge34_Node000024_Node000027" class="edge">
<title>Node24&#45;&gt;Node27</title>
<g id="a_edge34_Node000024_Node000027"><a xlink:title=" ">
<path fill="none" stroke="#63b8ff" d="M761.91,-164.98C777.55,-156.61 801.66,-143.7 819.88,-133.95"/>
<polygon fill="#63b8ff" stroke="#63b8ff" points="821.64,-136.98 828.8,-129.17 818.34,-130.8 821.64,-136.98"/>
</a>
</g>
</g>
<!-- Node28 -->
<g id="Node000028" class="node">
<title>Node28</title>
<g id="a_Node000028"><a xlink:title=" ">
<polygon fill="#e0e0e0" stroke="#999999" points="988.5,-129 895.5,-129 895.5,-110 988.5,-110 988.5,-129"/>
<text text-anchor="middle" x="942" y="-117" font-family="Helvetica,sans-Serif" font-size="10.00">unordered_map</text>
</a>
</g>
</g>
<!-- Node24&#45;&gt;Node28 -->
<g id="edge35_Node000024_Node000028" class="edge">
<title>Node24&#45;&gt;Node28</title>
<g id="a_edge35_Node000024_Node000028"><a xlink:title=" ">
<path fill="none" stroke="#63b8ff" d="M777.49,-164.98C810.82,-155.97 863.6,-141.7 900.35,-131.76"/>
<polygon fill="#63b8ff" stroke="#63b8ff" points="901.52,-135.07 910.26,-129.08 899.7,-128.31 901.52,-135.07"/>
</a>
</g>
</g>
<!-- Node29 -->
<g id="Node000029" class="node">
<title>Node29</title>
<g id="a_Node000029"><a xlink:title=" ">
<polygon fill="#e0e0e0" stroke="#999999" points="1093,-129 1007,-129 1007,-110 1093,-110 1093,-129"/>
<text text-anchor="middle" x="1050" y="-117" font-family="Helvetica,sans-Serif" font-size="10.00">unordered_set</text>
</a>
</g>
</g>
<!-- Node24&#45;&gt;Node29 -->
<g id="edge36_Node000024_Node000029" class="edge">
<title>Node24&#45;&gt;Node29</title>
<g id="a_edge36_Node000024_Node000029"><a xlink:title=" ">
<path fill="none" stroke="#63b8ff" d="M794.84,-164.98C850.1,-155.35 939.8,-139.71 996.8,-129.78"/>
<polygon fill="#63b8ff" stroke="#63b8ff" points="997.44,-133.22 1006.69,-128.05 996.24,-126.32 997.44,-133.22"/>
</a>
</g>
</g>
<!-- Node30 -->
<g id="Node000030" class="node">
<title>Node30</title>
<g id="a_Node000030"><a xlink:title=" ">
<polygon fill="#e0e0e0" stroke="#999999" points="1161,-129 1111,-129 1111,-110 1161,-110 1161,-129"/>
<text text-anchor="middle" x="1136" y="-117" font-family="Helvetica,sans-Serif" font-size="10.00">atomic</text>
</a>
</g>
</g>
<!-- Node24&#45;&gt;Node30 -->
<g id="edge42_Node000024_Node000030" class="edge">
<title>Node24&#45;&gt;Node30</title>
<g id="a_edge42_Node000024_Node000030"><a xlink:title=" ">
<path fill="none" stroke="#63b8ff" d="M797.29,-169.05C864.78,-162.76 987.21,-149.86 1100.91,-129"/>
<polygon fill="#63b8ff" stroke="#63b8ff" points="1101.63,-132.42 1110.82,-127.15 1100.35,-125.54 1101.63,-132.42"/>
</a>
</g>
</g>
<!-- Node33&#45;&gt;Node2 -->
<g id="edge61_Node000033_Node000002" class="edge">
<title>Node33&#45;&gt;Node2</title>
<g id="a_edge61_Node000033_Node000002"><a xlink:title=" ">
<path fill="none" stroke="#63b8ff" d="M646.35,-274.98C591.39,-265.56 502.92,-250.38 444.86,-240.42"/>
<polygon fill="#63b8ff" stroke="#63b8ff" points="445.19,-236.93 434.75,-238.69 444.01,-243.83 445.19,-236.93"/>
</a>
</g>
</g>
<!-- Node33&#45;&gt;Node3 -->
<g id="edge59_Node000033_Node000003" class="edge">
<title>Node33&#45;&gt;Node3</title>
<g id="a_edge59_Node000033_Node000003"><a xlink:title=" ">
<path fill="none" stroke="#63b8ff" d="M663.55,-274.98C629.04,-265.93 574.34,-251.58 536.44,-241.64"/>
<polygon fill="#63b8ff" stroke="#63b8ff" points="537.27,-238.23 526.71,-239.08 535.49,-245.01 537.27,-238.23"/>
</a>
</g>
</g>
<!-- Node33&#45;&gt;Node9 -->
<g id="edge56_Node000033_Node000009" class="edge">
<title>Node33&#45;&gt;Node9</title>
<g id="a_edge56_Node000033_Node000009"><a xlink:title=" ">
<path fill="none" stroke="#63b8ff" d="M748.51,-280.23C902.31,-269.96 1341,-235.43 1341,-175.5 1341,-175.5 1341,-175.5 1341,-118.5 1341,-79.47 1307.39,-44.58 1284.87,-25.6"/>
<polygon fill="#63b8ff" stroke="#63b8ff" points="1286.85,-22.7 1276.88,-19.12 1282.44,-28.14 1286.85,-22.7"/>
</a>
</g>
</g>
<!-- Node33&#45;&gt;Node12 -->
<g id="edge57_Node000033_Node000012" class="edge">
<title>Node33&#45;&gt;Node12</title>
<g id="a_edge57_Node000033_Node000012"><a xlink:title=" ">
<path fill="none" stroke="#63b8ff" d="M748.7,-275.51C868.12,-256.24 1153.46,-203.24 1211,-129 1231.37,-102.72 1232.43,-86.57 1222,-55 1218.54,-44.54 1211.57,-34.53 1204.92,-26.66"/>
<polygon fill="#63b8ff" stroke="#63b8ff" points="1207.33,-24.1 1198.02,-19.04 1202.14,-28.8 1207.33,-24.1"/>
</a>
</g>
</g>
<!-- Node33&#45;&gt;Node24 -->
<g id="edge60_Node000033_Node000024" class="edge">
<title>Node33&#45;&gt;Node24</title>
<g id="a_edge60_Node000033_Node000024"><a xlink:title=" ">
<path fill="none" stroke="#63b8ff" d="M700.09,-274.66C708.3,-256.93 726.91,-216.73 737.75,-193.32"/>
<polygon fill="#63b8ff" stroke="#63b8ff" points="740.97,-194.7 741.99,-184.16 734.61,-191.76 740.97,-194.7"/>
</a>
</g>
</g>
<!-- Node33&#45;&gt;Node25 -->
<g id="edge58_Node000033_Node000025" class="edge">
<title>Node33&#45;&gt;Node25</title>
<g id="a_edge58_Node000033_Node000025"><a xlink:title=" ">
<path fill="none" stroke="#63b8ff" d="M692.24,-274.78C682.26,-252.74 652.96,-194.5 610,-165 607.3,-163.15 530.62,-143.13 482.11,-130.58"/>
<polygon fill="#63b8ff" stroke="#63b8ff" points="482.78,-127.14 472.23,-128.02 481.03,-133.91 482.78,-127.14"/>
</a>
</g>
</g>
</g>
</svg>
