<?xml version="1.0" encoding="UTF-8" standalone="no"?>
<!DOCTYPE svg PUBLIC "-//W3C//DTD SVG 1.1//EN"
 "http://www.w3.org/Graphics/SVG/1.1/DTD/svg11.dtd">
<!-- Generated by graphviz version 2.43.0 (0)
 -->
<!-- Title: _udiv64_gen_internal_ Pages: 1 -->
<svg width="382pt" height="46pt"
 viewBox="0.00 0.00 382.00 46.00" xmlns="http://www.w3.org/2000/svg" xmlns:xlink="http://www.w3.org/1999/xlink">
<g id="graph0" class="graph" transform="scale(1 1) rotate(0) translate(4 42)">
<title>_udiv64_gen_internal_</title>
<!-- Node1 -->
<g id="Node000001" class="node">
<title>Node1</title>
<g id="a_Node000001"><a xlink:title=" ">
<polygon fill="#999999" stroke="#666666" points="126,-38 0,-38 0,-19 126,-19 126,-38"/>
<text text-anchor="middle" x="63" y="-26" font-family="Helvetica,sans-Serif" font-size="10.00">_udiv64_gen_internal_</text>
</a>
</g>
</g>
<!-- Node2 -->
<g id="Node000002" class="node">
<title>Node2</title>
<g id="a_Node000002"><a xlink:href="../../d1/d59/longlong_8h.html#a88d1f2d7a3692c44ed3447565014b5b7" target="_top" xlink:title=" ">
<polygon fill="white" stroke="#666666" points="374,-38 310,-38 310,-19 374,-19 374,-38"/>
<text text-anchor="middle" x="342" y="-26" font-family="Helvetica,sans-Serif" font-size="10.00">_clz_u64_</text>
</a>
</g>
</g>
<!-- Node1&#45;&gt;Node2 -->
<g id="edge1_Node000001_Node000002" class="edge">
<title>Node1&#45;&gt;Node2</title>
<g id="a_edge1_Node000001_Node000002"><a xlink:title=" ">
<path fill="none" stroke="#63b8ff" d="M126.16,-28.5C179.14,-28.5 253.79,-28.5 299.7,-28.5"/>
<polygon fill="#63b8ff" stroke="#63b8ff" points="299.88,-32 309.88,-28.5 299.88,-25 299.88,-32"/>
</a>
</g>
</g>
<!-- Node3 -->
<g id="Node000003" class="node">
<title>Node3</title>
<g id="a_Node000003"><a xlink:href="../../d1/d59/longlong_8h.html#ab8639909cb5e1089ffc5f3f5b9b9da40" target="_top" xlink:title=" ">
<polygon fill="white" stroke="#666666" points="274,-19 162,-19 162,0 274,0 274,-19"/>
<text text-anchor="middle" x="218" y="-7" font-family="Helvetica,sans-Serif" font-size="10.00">_udiv128by64to64_</text>
</a>
</g>
</g>
<!-- Node1&#45;&gt;Node3 -->
<g id="edge2_Node000001_Node000003" class="edge">
<title>Node1&#45;&gt;Node3</title>
<g id="a_edge2_Node000001_Node000003"><a xlink:title=" ">
<path fill="none" stroke="#63b8ff" d="M126.23,-20.77C134.58,-19.73 143.17,-18.67 151.58,-17.62"/>
<polygon fill="#63b8ff" stroke="#63b8ff" points="152.22,-21.07 161.71,-16.37 151.35,-14.13 152.22,-21.07"/>
</a>
</g>
</g>
<!-- Node3&#45;&gt;Node2 -->
<g id="edge3_Node000003_Node000002" class="edge">
<title>Node3&#45;&gt;Node2</title>
<g id="a_edge3_Node000003_Node000002"><a xlink:title=" ">
<path fill="none" stroke="#63b8ff" d="M274.29,-18.11C282.89,-19.45 291.64,-20.81 299.85,-22.09"/>
<polygon fill="#63b8ff" stroke="#63b8ff" points="299.5,-25.58 309.92,-23.66 300.58,-18.66 299.5,-25.58"/>
</a>
</g>
</g>
</g>
</svg>
