<?xml version="1.0" encoding="UTF-8" standalone="no"?>
<!DOCTYPE svg PUBLIC "-//W3C//DTD SVG 1.1//EN"
 "http://www.w3.org/Graphics/SVG/1.1/DTD/svg11.dtd">
<!-- Generated by graphviz version 2.43.0 (0)
 -->
<!-- Title: _udiv64_gen Pages: 1 -->
<svg width="496pt" height="46pt"
 viewBox="0.00 0.00 496.00 46.00" xmlns="http://www.w3.org/2000/svg" xmlns:xlink="http://www.w3.org/1999/xlink">

<svg id="main" version="1.1" xmlns="http://www.w3.org/2000/svg" xmlns:xlink="http://www.w3.org/1999/xlink" xml:space="preserve" onload="init(evt)">
<style type="text/css"><![CDATA[
.node, .edge {opacity: 0.7;}
.node.selected, .edge.selected {opacity: 1;}
.edge:hover path { stroke: red; }
.edge:hover polygon { stroke: red; fill: red; }
]]></style>
<script type="application/ecmascript" xlink:href="../../svg.min.js"/>
<svg id="graph" class="graph">
<g id="graph0" class="graph" transform="scale(1 1) rotate(0) translate(4 42)">
<title>_udiv64_gen</title>
<!-- Node1 -->
<g id="Node000001" class="node">
<title>Node1</title>
<g id="a_Node000001"><a xlink:title=" ">
<polygon fill="#999999" stroke="#666666" points="78,-38 0,-38 0,-19 78,-19 78,-38"/>
<text text-anchor="middle" x="39" y="-26" font-family="Helvetica,sans-Serif" font-size="10.00">_udiv64_gen</text>
</a>
</g>
</g>
<!-- Node2 -->
<g id="Node000002" class="node">
<title>Node2</title>
<g id="a_Node000002"><a xlink:href="../../d1/d59/longlong_8h.html#a2ed1638447039b40aefbd0e7a0898946" target="_top" xlink:title=" ">
<polygon fill="white" stroke="#666666" points="240,-38 114,-38 114,-19 240,-19 240,-38"/>
<text text-anchor="middle" x="177" y="-26" font-family="Helvetica,sans-Serif" font-size="10.00">_udiv64_gen_internal_</text>
</a>
</g>
</g>
<!-- Node1&#45;&gt;Node2 -->
<g id="edge1_Node000001_Node000002" class="edge">
<title>Node1&#45;&gt;Node2</title>
<g id="a_edge1_Node000001_Node000002"><a xlink:title=" ">
<path fill="none" stroke="#63b8ff" d="M78.25,-28.5C86.21,-28.5 94.85,-28.5 103.59,-28.5"/>
<polygon fill="#63b8ff" stroke="#63b8ff" points="103.85,-32 113.85,-28.5 103.85,-25 103.85,-32"/>
</a>
</g>
</g>
<!-- Node3 -->
<g id="Node000003" class="node">
<title>Node3</title>
<g id="a_Node000003"><a xlink:href="../../d1/d59/longlong_8h.html#a88d1f2d7a3692c44ed3447565014b5b7" target="_top" xlink:title=" ">
<polygon fill="white" stroke="#666666" points="488,-38 424,-38 424,-19 488,-19 488,-38"/>
<text text-anchor="middle" x="456" y="-26" font-family="Helvetica,sans-Serif" font-size="10.00">_clz_u64_</text>
</a>
</g>
</g>
<!-- Node2&#45;&gt;Node3 -->
<g id="edge2_Node000002_Node000003" class="edge">
<title>Node2&#45;&gt;Node3</title>
<g id="a_edge2_Node000002_Node000003"><a xlink:title=" ">
<path fill="none" stroke="#63b8ff" d="M240.16,-28.5C293.14,-28.5 367.79,-28.5 413.7,-28.5"/>
<polygon fill="#63b8ff" stroke="#63b8ff" points="413.88,-32 423.88,-28.5 413.88,-25 413.88,-32"/>
</a>
</g>
</g>
<!-- Node4 -->
<g id="Node000004" class="node">
<title>Node4</title>
<g id="a_Node000004"><a xlink:href="../../d1/d59/longlong_8h.html#ab8639909cb5e1089ffc5f3f5b9b9da40" target="_top" xlink:title=" ">
<polygon fill="white" stroke="#666666" points="388,-19 276,-19 276,0 388,0 388,-19"/>
<text text-anchor="middle" x="332" y="-7" font-family="Helvetica,sans-Serif" font-size="10.00">_udiv128by64to64_</text>
</a>
</g>
</g>
<!-- Node2&#45;&gt;Node4 -->
<g id="edge3_Node000002_Node000004" class="edge">
<title>Node2&#45;&gt;Node4</title>
<g id="a_edge3_Node000002_Node000004"><a xlink:title=" ">
<path fill="none" stroke="#63b8ff" d="M240.23,-20.77C248.58,-19.73 257.17,-18.67 265.58,-17.62"/>
<polygon fill="#63b8ff" stroke="#63b8ff" points="266.22,-21.07 275.71,-16.37 265.35,-14.13 266.22,-21.07"/>
</a>
</g>
</g>
<!-- Node4&#45;&gt;Node3 -->
<g id="edge4_Node000004_Node000003" class="edge">
<title>Node4&#45;&gt;Node3</title>
<g id="a_edge4_Node000004_Node000003"><a xlink:title=" ">
<path fill="none" stroke="#63b8ff" d="M388.29,-18.11C396.89,-19.45 405.64,-20.81 413.85,-22.09"/>
<polygon fill="#63b8ff" stroke="#63b8ff" points="413.5,-25.58 423.92,-23.66 414.58,-18.66 413.5,-25.58"/>
</a>
</g>
</g>
</g>
</svg>
</svg>

<style type='text/css'>
<![CDATA[
[data-mouse-over-selected='false'] { opacity: 0.7; }
[data-mouse-over-selected='true']  { opacity: 1.0; }
]]>
</style>
<script type="application/ecmascript"><![CDATA[
document.addEventListener('DOMContentLoaded', (event) => {
  highlightEdges();
  highlightAdjacentNodes();
});
]]></script>
</svg>
