<?xml version="1.0" encoding="UTF-8" standalone="no"?>
<!DOCTYPE svg PUBLIC "-//W3C//DTD SVG 1.1//EN"
 "http://www.w3.org/Graphics/SVG/1.1/DTD/svg11.dtd">
<!-- Generated by graphviz version 2.43.0 (0)
 -->
<!-- Title: _udiv64by64_q_preinv Pages: 1 -->
<svg width="471pt" height="360pt"
 viewBox="0.00 0.00 471.00 360.00" xmlns="http://www.w3.org/2000/svg" xmlns:xlink="http://www.w3.org/1999/xlink">
<g id="graph0" class="graph" transform="scale(1 1) rotate(0) translate(4 356)">
<title>_udiv64by64_q_preinv</title>
<!-- Node1 -->
<g id="Node000001" class="node">
<title>Node1</title>
<g id="a_Node000001"><a xlink:title=" ">
<polygon fill="#999999" stroke="#666666" points="463,-185 337,-185 337,-166 463,-166 463,-185"/>
<text text-anchor="middle" x="400" y="-173" font-family="Helvetica,sans-Serif" font-size="10.00">_udiv64by64_q_preinv</text>
</a>
</g>
</g>
<!-- Node2 -->
<g id="Node000002" class="node">
<title>Node2</title>
<g id="a_Node000002"><a xlink:href="../../da/dfb/is__prime__ulong_8c.html#a8686901188bc659a438e9d9ba491ed50" target="_top" xlink:title="计算 base^exp 对 mod 取模">
<polygon fill="white" stroke="#666666" points="301,-352 179,-352 179,-333 301,-333 301,-352"/>
<text text-anchor="middle" x="240" y="-340" font-family="Helvetica,sans-Serif" font-size="10.00">lmmp_powmod_uint_</text>
</a>
</g>
</g>
<!-- Node1&#45;&gt;Node2 -->
<g id="edge1_Node000001_Node000002" class="edge">
<title>Node1&#45;&gt;Node2</title>
<g id="a_edge1_Node000001_Node000002"><a xlink:title=" ">
<path fill="none" stroke="#63b8ff" d="M391.57,-194.66C378.28,-226.44 347.4,-289.94 301,-324.5 296.38,-327.94 291.1,-330.73 285.63,-332.99"/>
<polygon fill="#63b8ff" stroke="#63b8ff" points="394.9,-195.78 395.4,-185.19 388.41,-193.15 394.9,-195.78"/>
</a>
</g>
</g>
<!-- Node4 -->
<g id="Node000004" class="node">
<title>Node4</title>
<g id="a_Node000004"><a xlink:href="../../da/dfb/is__prime__ulong_8c.html#a4feb035b8ea5c9860a65c99f3135e634" target="_top" xlink:title=" ">
<polygon fill="white" stroke="#666666" points="286,-315 194,-315 194,-296 286,-296 286,-315"/>
<text text-anchor="middle" x="240" y="-303" font-family="Helvetica,sans-Serif" font-size="10.00">miller_rabin_32</text>
</a>
</g>
</g>
<!-- Node1&#45;&gt;Node4 -->
<g id="edge3_Node000001_Node000004" class="edge">
<title>Node1&#45;&gt;Node4</title>
<g id="a_edge3_Node000001_Node000004"><a xlink:title=" ">
<path fill="none" stroke="#63b8ff" d="M387.84,-193.7C371.71,-218.52 339.53,-262.71 301,-287.5 295.7,-290.91 289.71,-293.7 283.64,-295.98"/>
<polygon fill="#63b8ff" stroke="#63b8ff" points="390.82,-195.54 393.22,-185.22 384.91,-191.79 390.82,-195.54"/>
</a>
</g>
</g>
<!-- Node6 -->
<g id="Node000006" class="node">
<title>Node6</title>
<g id="a_Node000006"><a xlink:href="../../da/dfb/is__prime__ulong_8c.html#a3f0c09aa8b6fedd2a99fa3ddaf8260e8" target="_top" xlink:title=" ">
<polygon fill="white" stroke="#666666" points="274,-130 206,-130 206,-111 274,-111 274,-130"/>
<text text-anchor="middle" x="240" y="-118" font-family="Helvetica,sans-Serif" font-size="10.00">trial_div13</text>
</a>
</g>
</g>
<!-- Node1&#45;&gt;Node6 -->
<g id="edge5_Node000001_Node000006" class="edge">
<title>Node1&#45;&gt;Node6</title>
<g id="a_edge5_Node000001_Node000006"><a xlink:title=" ">
<path fill="none" stroke="#63b8ff" d="M364.17,-162.27C345.51,-155.29 322.08,-146.71 301,-139.5 291.69,-136.32 281.52,-133.03 272.23,-130.09"/>
<polygon fill="#63b8ff" stroke="#63b8ff" points="363.14,-165.62 373.73,-165.86 365.6,-159.07 363.14,-165.62"/>
</a>
</g>
</g>
<!-- Node9 -->
<g id="Node000009" class="node">
<title>Node9</title>
<g id="a_Node000009"><a xlink:href="../../da/dfb/is__prime__ulong_8c.html#af9ee3d0f0cbc17e8bfb7c0f30c52822d" target="_top" xlink:title=" ">
<polygon fill="white" stroke="#666666" points="274,-93 206,-93 206,-74 274,-74 274,-93"/>
<text text-anchor="middle" x="240" y="-81" font-family="Helvetica,sans-Serif" font-size="10.00">trial_div17</text>
</a>
</g>
</g>
<!-- Node1&#45;&gt;Node9 -->
<g id="edge8_Node000001_Node000009" class="edge">
<title>Node1&#45;&gt;Node9</title>
<g id="a_edge8_Node000001_Node000009"><a xlink:title=" ">
<path fill="none" stroke="#63b8ff" d="M381.53,-159.22C362.88,-142.61 331.81,-117.12 301,-101.5 292.66,-97.27 283.15,-93.85 274.2,-91.18"/>
<polygon fill="#63b8ff" stroke="#63b8ff" points="379.2,-161.83 388.96,-165.95 383.9,-156.64 379.2,-161.83"/>
</a>
</g>
</g>
<!-- Node10 -->
<g id="Node000010" class="node">
<title>Node10</title>
<g id="a_Node000010"><a xlink:href="../../da/dfb/is__prime__ulong_8c.html#ae8e319b2e2c1747cc73e86a1f119533e" target="_top" xlink:title=" ">
<polygon fill="white" stroke="#666666" points="274,-56 206,-56 206,-37 274,-37 274,-56"/>
<text text-anchor="middle" x="240" y="-44" font-family="Helvetica,sans-Serif" font-size="10.00">trial_div19</text>
</a>
</g>
</g>
<!-- Node1&#45;&gt;Node10 -->
<g id="edge11_Node000001_Node000010" class="edge">
<title>Node1&#45;&gt;Node10</title>
<g id="a_edge11_Node000001_Node000010"><a xlink:title=" ">
<path fill="none" stroke="#63b8ff" d="M387.59,-157.14C371.34,-132.49 339.23,-88.97 301,-64.5 292.94,-59.34 283.33,-55.6 274.19,-52.91"/>
<polygon fill="#63b8ff" stroke="#63b8ff" points="384.85,-159.35 393.2,-165.87 390.74,-155.56 384.85,-159.35"/>
</a>
</g>
</g>
<!-- Node11 -->
<g id="Node000011" class="node">
<title>Node11</title>
<g id="a_Node000011"><a xlink:href="../../da/dfb/is__prime__ulong_8c.html#aec2f9abf3f67341e4c11cfbc668e2a64" target="_top" xlink:title=" ">
<polygon fill="white" stroke="#666666" points="274,-19 206,-19 206,0 274,0 274,-19"/>
<text text-anchor="middle" x="240" y="-7" font-family="Helvetica,sans-Serif" font-size="10.00">trial_div23</text>
</a>
</g>
</g>
<!-- Node1&#45;&gt;Node11 -->
<g id="edge14_Node000001_Node000011" class="edge">
<title>Node1&#45;&gt;Node11</title>
<g id="a_edge14_Node000001_Node000011"><a xlink:title=" ">
<path fill="none" stroke="#63b8ff" d="M391.54,-156.46C378.19,-124.91 347.24,-61.83 301,-27.5 293.14,-21.67 283.39,-17.71 274.05,-15.03"/>
<polygon fill="#63b8ff" stroke="#63b8ff" points="388.36,-157.94 395.38,-165.87 394.84,-155.29 388.36,-157.94"/>
</a>
</g>
</g>
<!-- Node12 -->
<g id="Node000012" class="node">
<title>Node12</title>
<g id="a_Node000012"><a xlink:href="../../da/dfb/is__prime__ulong_8c.html#a601771dc4b5b138d49e925ac6a953091" target="_top" xlink:title=" ">
<polygon fill="white" stroke="#666666" points="274,-278 206,-278 206,-259 274,-259 274,-278"/>
<text text-anchor="middle" x="240" y="-266" font-family="Helvetica,sans-Serif" font-size="10.00">trial_div29</text>
</a>
</g>
</g>
<!-- Node1&#45;&gt;Node12 -->
<g id="edge17_Node000001_Node000012" class="edge">
<title>Node1&#45;&gt;Node12</title>
<g id="a_edge17_Node000001_Node000012"><a xlink:title=" ">
<path fill="none" stroke="#63b8ff" d="M381.57,-192.02C362.95,-208.86 331.91,-234.71 301,-250.5 292.67,-254.76 283.17,-258.18 274.22,-260.86"/>
<polygon fill="#63b8ff" stroke="#63b8ff" points="384,-194.54 388.99,-185.19 379.26,-189.39 384,-194.54"/>
</a>
</g>
</g>
<!-- Node13 -->
<g id="Node000013" class="node">
<title>Node13</title>
<g id="a_Node000013"><a xlink:href="../../da/dfb/is__prime__ulong_8c.html#a301d28c8a4a0b94e31ddad8bebaf3472" target="_top" xlink:title=" ">
<polygon fill="white" stroke="#666666" points="274,-241 206,-241 206,-222 274,-222 274,-241"/>
<text text-anchor="middle" x="240" y="-229" font-family="Helvetica,sans-Serif" font-size="10.00">trial_div31</text>
</a>
</g>
</g>
<!-- Node1&#45;&gt;Node13 -->
<g id="edge20_Node000001_Node000013" class="edge">
<title>Node1&#45;&gt;Node13</title>
<g id="a_edge20_Node000001_Node000013"><a xlink:title=" ">
<path fill="none" stroke="#63b8ff" d="M366.45,-188.86C347.49,-196.46 323.05,-205.93 301,-213.5 292.36,-216.47 282.93,-219.42 274.16,-222.06"/>
<polygon fill="#63b8ff" stroke="#63b8ff" points="367.86,-192.07 375.82,-185.08 365.24,-185.57 367.86,-192.07"/>
</a>
</g>
</g>
<!-- Node14 -->
<g id="Node000014" class="node">
<title>Node14</title>
<g id="a_Node000014"><a xlink:href="../../da/dfb/is__prime__ulong_8c.html#a62f5fce1d5326a6b69c4cb48262c21d8" target="_top" xlink:title=" ">
<polygon fill="white" stroke="#666666" points="274,-204 206,-204 206,-185 274,-185 274,-204"/>
<text text-anchor="middle" x="240" y="-192" font-family="Helvetica,sans-Serif" font-size="10.00">trial_div37</text>
</a>
</g>
</g>
<!-- Node1&#45;&gt;Node14 -->
<g id="edge23_Node000001_Node000014" class="edge">
<title>Node1&#45;&gt;Node14</title>
<g id="a_edge23_Node000001_Node000014"><a xlink:title=" ">
<path fill="none" stroke="#63b8ff" d="M326.51,-184.22C308.3,-186.41 289.63,-188.65 274.39,-190.48"/>
<polygon fill="#63b8ff" stroke="#63b8ff" points="327.04,-187.68 336.55,-183.01 326.21,-180.73 327.04,-187.68"/>
</a>
</g>
</g>
<!-- Node15 -->
<g id="Node000015" class="node">
<title>Node15</title>
<g id="a_Node000015"><a xlink:href="../../da/dfb/is__prime__ulong_8c.html#a4fb5e5e4b74d1af66bb7d8b592ded633" target="_top" xlink:title=" ">
<polygon fill="white" stroke="#666666" points="274,-167 206,-167 206,-148 274,-148 274,-167"/>
<text text-anchor="middle" x="240" y="-155" font-family="Helvetica,sans-Serif" font-size="10.00">trial_div41</text>
</a>
</g>
</g>
<!-- Node1&#45;&gt;Node15 -->
<g id="edge26_Node000001_Node000015" class="edge">
<title>Node1&#45;&gt;Node15</title>
<g id="a_edge26_Node000001_Node000015"><a xlink:title=" ">
<path fill="none" stroke="#63b8ff" d="M326.51,-167.24C308.3,-165.17 289.63,-163.04 274.39,-161.3"/>
<polygon fill="#63b8ff" stroke="#63b8ff" points="326.22,-170.73 336.55,-168.39 327.01,-163.78 326.22,-170.73"/>
</a>
</g>
</g>
<!-- Node3 -->
<g id="Node000003" class="node">
<title>Node3</title>
<g id="a_Node000003"><a xlink:href="../../da/dfb/is__prime__ulong_8c.html#a8c65765939c5ad563330e5b5ec64db36" target="_top" xlink:title="计算 base^exp 对 mod 取模">
<polygon fill="white" stroke="#666666" points="136.5,-352 6.5,-352 6.5,-333 136.5,-333 136.5,-352"/>
<text text-anchor="middle" x="71.5" y="-340" font-family="Helvetica,sans-Serif" font-size="10.00">lmmp_powmod_ulong_</text>
</a>
</g>
</g>
<!-- Node2&#45;&gt;Node3 -->
<g id="edge2_Node000002_Node000003" class="edge">
<title>Node2&#45;&gt;Node3</title>
<g id="a_edge2_Node000002_Node000003"><a xlink:title=" ">
<path fill="none" stroke="#63b8ff" d="M168.8,-342.5C158.17,-342.5 147.24,-342.5 136.74,-342.5"/>
<polygon fill="#63b8ff" stroke="#63b8ff" points="168.89,-346 178.89,-342.5 168.89,-339 168.89,-346"/>
</a>
</g>
</g>
<!-- Node5 -->
<g id="Node000005" class="node">
<title>Node5</title>
<g id="a_Node000005"><a xlink:href="../../da/dfb/is__prime__ulong_8c.html#a53d07460d08166a1c0fb17a0a9c370e5" target="_top" xlink:title="判断素数">
<polygon fill="white" stroke="#666666" points="132.5,-315 10.5,-315 10.5,-296 132.5,-296 132.5,-315"/>
<text text-anchor="middle" x="71.5" y="-303" font-family="Helvetica,sans-Serif" font-size="10.00">lmmp_is_prime_uint_</text>
</a>
</g>
</g>
<!-- Node4&#45;&gt;Node5 -->
<g id="edge4_Node000004_Node000005" class="edge">
<title>Node4&#45;&gt;Node5</title>
<g id="a_edge4_Node000004_Node000005"><a xlink:title=" ">
<path fill="none" stroke="#63b8ff" d="M183.94,-305.5C167.49,-305.5 149.37,-305.5 132.61,-305.5"/>
<polygon fill="#63b8ff" stroke="#63b8ff" points="183.94,-309 193.94,-305.5 183.94,-302 183.94,-309"/>
</a>
</g>
</g>
<!-- Node7 -->
<g id="Node000007" class="node">
<title>Node7</title>
<g id="a_Node000007"><a xlink:href="../../da/dfb/is__prime__ulong_8c.html#aed3f451d80cd78fbb938c820c2784316" target="_top" xlink:title="大于n的下一个素数">
<polygon fill="white" stroke="#666666" points="143,-167 0,-167 0,-148 143,-148 143,-167"/>
<text text-anchor="middle" x="71.5" y="-155" font-family="Helvetica,sans-Serif" font-size="10.00">lmmp_next_prime_ulong_</text>
</a>
</g>
</g>
<!-- Node6&#45;&gt;Node7 -->
<g id="edge6_Node000006_Node000007" class="edge">
<title>Node6&#45;&gt;Node7</title>
<g id="a_edge6_Node000006_Node000007"><a xlink:title=" ">
<path fill="none" stroke="#63b8ff" d="M195.88,-130.08C171.16,-135.58 140.24,-142.45 115.54,-147.93"/>
<polygon fill="#63b8ff" stroke="#63b8ff" points="196.7,-133.48 205.71,-127.9 195.19,-126.65 196.7,-133.48"/>
</a>
</g>
</g>
<!-- Node8 -->
<g id="Node000008" class="node">
<title>Node8</title>
<g id="a_Node000008"><a xlink:href="../../da/dfb/is__prime__ulong_8c.html#a16767c399d3f5b8d0111792d8104c963" target="_top" xlink:title="小于等于n的上一个素数">
<polygon fill="white" stroke="#666666" points="143,-130 0,-130 0,-111 143,-111 143,-130"/>
<text text-anchor="middle" x="71.5" y="-118" font-family="Helvetica,sans-Serif" font-size="10.00">lmmp_prev_prime_ulong_</text>
</a>
</g>
</g>
<!-- Node6&#45;&gt;Node8 -->
<g id="edge7_Node000006_Node000008" class="edge">
<title>Node6&#45;&gt;Node8</title>
<g id="a_edge7_Node000006_Node000008"><a xlink:title=" ">
<path fill="none" stroke="#63b8ff" d="M195.6,-120.5C179.6,-120.5 161.03,-120.5 143.24,-120.5"/>
<polygon fill="#63b8ff" stroke="#63b8ff" points="195.71,-124 205.71,-120.5 195.71,-117 195.71,-124"/>
</a>
</g>
</g>
<!-- Node9&#45;&gt;Node7 -->
<g id="edge9_Node000009_Node000007" class="edge">
<title>Node9&#45;&gt;Node7</title>
<g id="a_edge9_Node000009_Node000007"><a xlink:title=" ">
<path fill="none" stroke="#63b8ff" d="M196.4,-93.24C190.34,-95.48 184.35,-98.21 179,-101.5 159.19,-113.7 163.06,-127.71 143,-139.5 137.23,-142.89 130.82,-145.65 124.3,-147.89"/>
<polygon fill="#63b8ff" stroke="#63b8ff" points="197.53,-96.56 205.92,-90.1 195.33,-89.91 197.53,-96.56"/>
</a>
</g>
</g>
<!-- Node9&#45;&gt;Node8 -->
<g id="edge10_Node000009_Node000008" class="edge">
<title>Node9&#45;&gt;Node8</title>
<g id="a_edge10_Node000009_Node000008"><a xlink:title=" ">
<path fill="none" stroke="#63b8ff" d="M195.88,-93.08C171.16,-98.58 140.24,-105.45 115.54,-110.93"/>
<polygon fill="#63b8ff" stroke="#63b8ff" points="196.7,-96.48 205.71,-90.9 195.19,-89.65 196.7,-96.48"/>
</a>
</g>
</g>
<!-- Node10&#45;&gt;Node7 -->
<g id="edge12_Node000010_Node000007" class="edge">
<title>Node10&#45;&gt;Node7</title>
<g id="a_edge12_Node000010_Node000007"><a xlink:title=" ">
<path fill="none" stroke="#63b8ff" d="M195.98,-54.58C189.83,-57.05 183.94,-60.28 179,-64.5 150.9,-88.53 171.6,-116.06 143,-139.5 138.9,-142.86 134.24,-145.61 129.33,-147.85"/>
<polygon fill="#63b8ff" stroke="#63b8ff" points="197.38,-57.8 205.73,-51.28 195.13,-51.17 197.38,-57.8"/>
</a>
</g>
</g>
<!-- Node10&#45;&gt;Node8 -->
<g id="edge13_Node000010_Node000008" class="edge">
<title>Node10&#45;&gt;Node8</title>
<g id="a_edge13_Node000010_Node000008"><a xlink:title=" ">
<path fill="none" stroke="#63b8ff" d="M196.18,-58.24C190.35,-60.16 184.48,-62.26 179,-64.5 145.54,-78.17 108.67,-98.94 88.28,-110.97"/>
<polygon fill="#63b8ff" stroke="#63b8ff" points="197.41,-61.52 205.91,-55.19 195.32,-54.84 197.41,-61.52"/>
</a>
</g>
</g>
<!-- Node11&#45;&gt;Node7 -->
<g id="edge15_Node000011_Node000007" class="edge">
<title>Node11&#45;&gt;Node7</title>
<g id="a_edge15_Node000011_Node000007"><a xlink:title=" ">
<path fill="none" stroke="#63b8ff" d="M196.3,-16.65C189.91,-19.23 183.85,-22.74 179,-27.5 141.67,-64.11 181.08,-103.67 143,-139.5 139.41,-142.88 135.28,-145.64 130.86,-147.9"/>
<polygon fill="#63b8ff" stroke="#63b8ff" points="197.41,-19.97 205.78,-13.49 195.19,-13.33 197.41,-19.97"/>
</a>
</g>
</g>
<!-- Node11&#45;&gt;Node8 -->
<g id="edge16_Node000011_Node000008" class="edge">
<title>Node11&#45;&gt;Node8</title>
<g id="a_edge16_Node000011_Node000008"><a xlink:title=" ">
<path fill="none" stroke="#63b8ff" d="M196.03,-19.93C190.15,-22.06 184.31,-24.57 179,-27.5 137.32,-50.52 97.65,-92.06 80.88,-110.83"/>
<polygon fill="#63b8ff" stroke="#63b8ff" points="197.49,-23.14 205.91,-16.7 195.31,-16.48 197.49,-23.14"/>
</a>
</g>
</g>
<!-- Node12&#45;&gt;Node7 -->
<g id="edge18_Node000012_Node000007" class="edge">
<title>Node12&#45;&gt;Node7</title>
<g id="a_edge18_Node000012_Node000007"><a xlink:title=" ">
<path fill="none" stroke="#63b8ff" d="M196.03,-258.07C190.15,-255.94 184.31,-253.43 179,-250.5 137.32,-227.48 97.65,-185.94 80.88,-167.17"/>
<polygon fill="#63b8ff" stroke="#63b8ff" points="195.31,-261.52 205.91,-261.3 197.49,-254.86 195.31,-261.52"/>
</a>
</g>
</g>
<!-- Node12&#45;&gt;Node8 -->
<g id="edge19_Node000012_Node000008" class="edge">
<title>Node12&#45;&gt;Node8</title>
<g id="a_edge19_Node000012_Node000008"><a xlink:title=" ">
<path fill="none" stroke="#63b8ff" d="M196.31,-261.34C189.92,-258.76 183.86,-255.25 179,-250.5 141.92,-214.24 180.58,-175.24 143,-139.5 138.96,-135.66 134.22,-132.57 129.15,-130.1"/>
<polygon fill="#63b8ff" stroke="#63b8ff" points="195.2,-264.66 205.8,-264.5 197.42,-258.02 195.2,-264.66"/>
</a>
</g>
</g>
<!-- Node13&#45;&gt;Node7 -->
<g id="edge21_Node000013_Node000007" class="edge">
<title>Node13&#45;&gt;Node7</title>
<g id="a_edge21_Node000013_Node000007"><a xlink:title=" ">
<path fill="none" stroke="#63b8ff" d="M196.18,-219.76C190.35,-217.84 184.48,-215.74 179,-213.5 145.54,-199.83 108.67,-179.06 88.28,-167.03"/>
<polygon fill="#63b8ff" stroke="#63b8ff" points="195.32,-223.16 205.91,-222.81 197.41,-216.48 195.32,-223.16"/>
</a>
</g>
</g>
<!-- Node13&#45;&gt;Node8 -->
<g id="edge22_Node000013_Node000008" class="edge">
<title>Node13&#45;&gt;Node8</title>
<g id="a_edge22_Node000013_Node000008"><a xlink:title=" ">
<path fill="none" stroke="#63b8ff" d="M196,-223.4C189.85,-220.93 183.95,-217.71 179,-213.5 151.14,-189.81 171.19,-162.8 143,-139.5 138.31,-135.62 132.9,-132.53 127.2,-130.07"/>
<polygon fill="#63b8ff" stroke="#63b8ff" points="195.16,-226.81 205.75,-226.7 197.4,-220.18 195.16,-226.81"/>
</a>
</g>
</g>
<!-- Node14&#45;&gt;Node7 -->
<g id="edge24_Node000014_Node000007" class="edge">
<title>Node14&#45;&gt;Node7</title>
<g id="a_edge24_Node000014_Node000007"><a xlink:title=" ">
<path fill="none" stroke="#63b8ff" d="M195.88,-184.92C171.16,-179.42 140.24,-172.55 115.54,-167.07"/>
<polygon fill="#63b8ff" stroke="#63b8ff" points="195.19,-188.35 205.71,-187.1 196.7,-181.52 195.19,-188.35"/>
</a>
</g>
</g>
<!-- Node14&#45;&gt;Node8 -->
<g id="edge25_Node000014_Node000008" class="edge">
<title>Node14&#45;&gt;Node8</title>
<g id="a_edge25_Node000014_Node000008"><a xlink:title=" ">
<path fill="none" stroke="#63b8ff" d="M196.44,-184.7C190.37,-182.46 184.37,-179.76 179,-176.5 159.38,-164.6 162.78,-151.12 143,-139.5 136.44,-135.65 129.09,-132.56 121.67,-130.08"/>
<polygon fill="#63b8ff" stroke="#63b8ff" points="195.37,-188.03 205.97,-187.83 197.56,-181.38 195.37,-188.03"/>
</a>
</g>
</g>
<!-- Node15&#45;&gt;Node7 -->
<g id="edge27_Node000015_Node000007" class="edge">
<title>Node15&#45;&gt;Node7</title>
<g id="a_edge27_Node000015_Node000007"><a xlink:title=" ">
<path fill="none" stroke="#63b8ff" d="M195.6,-157.5C179.6,-157.5 161.03,-157.5 143.24,-157.5"/>
<polygon fill="#63b8ff" stroke="#63b8ff" points="195.71,-161 205.71,-157.5 195.71,-154 195.71,-161"/>
</a>
</g>
</g>
<!-- Node15&#45;&gt;Node8 -->
<g id="edge28_Node000015_Node000008" class="edge">
<title>Node15&#45;&gt;Node8</title>
<g id="a_edge28_Node000015_Node000008"><a xlink:title=" ">
<path fill="none" stroke="#63b8ff" d="M195.88,-147.92C171.16,-142.42 140.24,-135.55 115.54,-130.07"/>
<polygon fill="#63b8ff" stroke="#63b8ff" points="195.19,-151.35 205.71,-150.1 196.7,-144.52 195.19,-151.35"/>
</a>
</g>
</g>
</g>
</svg>
