<?xml version="1.0" encoding="UTF-8" standalone="no"?>
<!DOCTYPE svg PUBLIC "-//W3C//DTD SVG 1.1//EN"
 "http://www.w3.org/Graphics/SVG/1.1/DTD/svg11.dtd">
<!-- Generated by graphviz version 2.43.0 (0)
 -->
<!-- Title: lmmp_div_ Pages: 1 -->
<svg width="368pt" height="175pt"
 viewBox="0.00 0.00 368.00 175.00" xmlns="http://www.w3.org/2000/svg" xmlns:xlink="http://www.w3.org/1999/xlink">

<svg id="main" version="1.1" xmlns="http://www.w3.org/2000/svg" xmlns:xlink="http://www.w3.org/1999/xlink" xml:space="preserve" onload="init(evt)">
<style type="text/css"><![CDATA[
.node, .edge {opacity: 0.7;}
.node.selected, .edge.selected {opacity: 1;}
.edge:hover path { stroke: red; }
.edge:hover polygon { stroke: red; fill: red; }
]]></style>
<script type="application/ecmascript" xlink:href="../../svg.min.js"/>
<svg id="graph" class="graph">
<g id="graph0" class="graph" transform="scale(1 1) rotate(0) translate(4 171)">
<title>lmmp_div_</title>
<!-- Node1 -->
<g id="Node000001" class="node">
<title>Node1</title>
<g id="a_Node000001"><a xlink:title="大数除法和取模操作">
<polygon fill="#999999" stroke="#666666" points="360,-93 289,-93 289,-74 360,-74 360,-93"/>
<text text-anchor="middle" x="324.5" y="-81" font-family="Helvetica,sans-Serif" font-size="10.00">lmmp_div_</text>
</a>
</g>
</g>
<!-- Node2 -->
<g id="Node000002" class="node">
<title>Node2</title>
<g id="a_Node000002"><a xlink:href="../../da/dbc/bninv_8c.html#a9d1d54a9863ec438e863e842482697ba" target="_top" xlink:title=" ">
<polygon fill="white" stroke="#666666" points="232.5,-167 149.5,-167 149.5,-148 232.5,-148 232.5,-167"/>
<text text-anchor="middle" x="191" y="-155" font-family="Helvetica,sans-Serif" font-size="10.00">lmmp_bninv_</text>
</a>
</g>
</g>
<!-- Node1&#45;&gt;Node2 -->
<g id="edge1_Node000001_Node000002" class="edge">
<title>Node1&#45;&gt;Node2</title>
<g id="a_edge1_Node000001_Node000002"><a xlink:title=" ">
<path fill="none" stroke="#63b8ff" d="M306.32,-100.29C292.81,-112.68 272.99,-129.12 253,-139.5 246.63,-142.81 239.56,-145.6 232.56,-147.92"/>
<polygon fill="#63b8ff" stroke="#63b8ff" points="308.98,-102.6 313.86,-93.2 304.18,-97.5 308.98,-102.6"/>
</a>
</g>
</g>
<!-- Node3 -->
<g id="Node000003" class="node">
<title>Node3</title>
<g id="a_Node000003"><a xlink:href="../../d6/dfd/gcd__basecase_8c.html#a1d75efbaa9483d1df69ca92c456b8f79" target="_top" xlink:title="计算两个无符号整数的最大公约数（不建议使用此算法，更高版本可能被彻底弃用）">
<polygon fill="white" stroke="#666666" points="253,-130 129,-130 129,-111 253,-111 253,-130"/>
<text text-anchor="middle" x="191" y="-118" font-family="Helvetica,sans-Serif" font-size="10.00">lmmp_gcd_basecase_</text>
</a>
</g>
</g>
<!-- Node1&#45;&gt;Node3 -->
<g id="edge2_Node000001_Node000003" class="edge">
<title>Node1&#45;&gt;Node3</title>
<g id="a_edge2_Node000001_Node000003"><a xlink:title=" ">
<path fill="none" stroke="#63b8ff" d="M279.69,-95.83C262.28,-100.73 242.54,-106.28 226.21,-110.88"/>
<polygon fill="#63b8ff" stroke="#63b8ff" points="280.96,-99.11 289.64,-93.03 279.06,-92.37 280.96,-99.11"/>
</a>
</g>
</g>
<!-- Node4 -->
<g id="Node000004" class="node">
<title>Node4</title>
<g id="a_Node000004"><a xlink:href="../../de/d86/gcd__lehmer_8c.html#a1ea89f24b0daddd75fa7ed3f13b851f4" target="_top" xlink:title="计算两个无符号整数的最大公约数（Lehmer算法）">
<polygon fill="white" stroke="#666666" points="247.5,-93 134.5,-93 134.5,-74 247.5,-74 247.5,-93"/>
<text text-anchor="middle" x="191" y="-81" font-family="Helvetica,sans-Serif" font-size="10.00">lmmp_gcd_lehmer_</text>
</a>
</g>
</g>
<!-- Node1&#45;&gt;Node4 -->
<g id="edge3_Node000001_Node000004" class="edge">
<title>Node1&#45;&gt;Node4</title>
<g id="a_edge3_Node000001_Node000004"><a xlink:title=" ">
<path fill="none" stroke="#63b8ff" d="M278.83,-83.5C268.81,-83.5 258.07,-83.5 247.68,-83.5"/>
<polygon fill="#63b8ff" stroke="#63b8ff" points="278.95,-87 288.95,-83.5 278.95,-80 278.95,-87"/>
</a>
</g>
</g>
<!-- Node5 -->
<g id="Node000005" class="node">
<title>Node5</title>
<g id="a_Node000005"><a xlink:href="../../d1/db8/trialdiv_8c.html#a3f93397f659328a5dbf9affb2680fee1" target="_top" xlink:title=" ">
<polygon fill="white" stroke="#666666" points="236,-56 146,-56 146,-37 236,-37 236,-56"/>
<text text-anchor="middle" x="191" y="-44" font-family="Helvetica,sans-Serif" font-size="10.00">lmmp_trialdiv_</text>
</a>
</g>
</g>
<!-- Node1&#45;&gt;Node5 -->
<g id="edge4_Node000001_Node000005" class="edge">
<title>Node1&#45;&gt;Node5</title>
<g id="a_edge4_Node000001_Node000005"><a xlink:title=" ">
<path fill="none" stroke="#63b8ff" d="M279.69,-71.17C262.28,-66.27 242.54,-60.72 226.21,-56.12"/>
<polygon fill="#63b8ff" stroke="#63b8ff" points="279.06,-74.63 289.64,-73.97 280.96,-67.89 279.06,-74.63"/>
</a>
</g>
</g>
<!-- Node6 -->
<g id="Node000006" class="node">
<title>Node6</title>
<g id="a_Node000006"><a xlink:href="../../d2/dd7/remove_8c.html#a247b77acd679e675a3715ea686b3b001" target="_top" xlink:title="qp 为商，rp 为余数，divp 为被除数，divn 为被除数长度，numb 为除数，nb 为除数长度 如果无法整除，则返回0，否则返回除数 qp 的长度">
<polygon fill="white" stroke="#666666" points="219,-19 163,-19 163,0 219,0 219,-19"/>
<text text-anchor="middle" x="191" y="-7" font-family="Helvetica,sans-Serif" font-size="10.00">try_div_</text>
</a>
</g>
</g>
<!-- Node1&#45;&gt;Node6 -->
<g id="edge5_Node000001_Node000006" class="edge">
<title>Node1&#45;&gt;Node6</title>
<g id="a_edge5_Node000001_Node000006"><a xlink:title=" ">
<path fill="none" stroke="#63b8ff" d="M305.75,-66.69C292.21,-54.62 272.59,-38.75 253,-28.5 242.48,-23 230.1,-18.77 219.25,-15.72"/>
<polygon fill="#63b8ff" stroke="#63b8ff" points="303.61,-69.46 313.35,-73.62 308.32,-64.29 303.61,-69.46"/>
</a>
</g>
</g>
<!-- Node7 -->
<g id="Node000007" class="node">
<title>Node7</title>
<g id="a_Node000007"><a xlink:href="../../d2/dd7/remove_8c.html#a1cc1a46280105160a8cbd99a0f9f1571" target="_top" xlink:title="除去[np,nn]中的[dp,dn]的因子">
<polygon fill="white" stroke="#666666" points="93,-19 0,-19 0,0 93,0 93,-19"/>
<text text-anchor="middle" x="46.5" y="-7" font-family="Helvetica,sans-Serif" font-size="10.00">lmmp_remove_</text>
</a>
</g>
</g>
<!-- Node6&#45;&gt;Node7 -->
<g id="edge6_Node000006_Node000007" class="edge">
<title>Node6&#45;&gt;Node7</title>
<g id="a_edge6_Node000006_Node000007"><a xlink:title=" ">
<path fill="none" stroke="#63b8ff" d="M152.62,-9.5C134.37,-9.5 112.26,-9.5 93.04,-9.5"/>
<polygon fill="#63b8ff" stroke="#63b8ff" points="152.86,-13 162.86,-9.5 152.86,-6 152.86,-13"/>
</a>
</g>
</g>
</g>
</svg>
</svg>

<style type='text/css'>
<![CDATA[
[data-mouse-over-selected='false'] { opacity: 0.7; }
[data-mouse-over-selected='true']  { opacity: 1.0; }
]]>
</style>
<script type="application/ecmascript"><![CDATA[
document.addEventListener('DOMContentLoaded', (event) => {
  highlightEdges();
  highlightAdjacentNodes();
});
]]></script>
</svg>
