<?xml version="1.0" encoding="UTF-8" standalone="no"?>
<!DOCTYPE svg PUBLIC "-//W3C//DTD SVG 1.1//EN"
 "http://www.w3.org/Graphics/SVG/1.1/DTD/svg11.dtd">
<!-- Generated by graphviz version 2.43.0 (0)
 -->
<!-- Title: LMCAS::InferenceEngine::DepthGuard Pages: 1 -->
<!--zoomable 1029 -->

<svg id="main" version="1.1" xmlns="http://www.w3.org/2000/svg" xmlns:xlink="http://www.w3.org/1999/xlink" xml:space="preserve">

<style type="text/css"><![CDATA[
.node, .edge {opacity: 0.7;}
.node.selected, .edge.selected {opacity: 1;}
.edge:hover path { stroke: red; }
.edge:hover polygon { stroke: red; fill: red; }
]]></style>

<defs>
  <circle id="rim" cx="0" cy="0" r="7"/>
  <circle id="rim2" cx="0" cy="0" r="3.5"/>
  <g id="zoomPlus">
    <use xlink:href="#rim" fill="#404040"><set attributeName="fill" to="#808080" begin="zoomplus.mouseover" end="zoomplus.mouseout"/></use>
    <path d="M-4,0h8M0,-4v8" fill="none" stroke="white" stroke-width="1.5" pointer-events="none"/>
  </g>
  <g id="zoomMin">
    <use xlink:href="#rim" fill="#404040"><set attributeName="fill" to="#808080" begin="zoomminus.mouseover" end="zoomminus.mouseout"/></use>
    <path d="M-4,0h8" fill="none" stroke="white" stroke-width="1.5" pointer-events="none"/>
  </g>
  <g id="arrowUp" transform="translate(30 24)">
    <use xlink:href="#rim"/>
    <path pointer-events="none" fill="none" stroke="white" stroke-width="1.5" d="M0,-3.0v7 M-2.5,-0.5L0,-3.0L2.5,-0.5"/>
  </g>
  <g id="arrowRight" transform="rotate(90) translate(36 -43)">
    <use xlink:href="#rim"/>
    <path pointer-events="none" fill="none" stroke="white" stroke-width="1.5" d="M0,-3.0v7 M-2.5,-0.5L0,-3.0L2.5,-0.5"/>
  </g>
  <g id="arrowDown" transform="rotate(180) translate(-30 -48)">
    <use xlink:href="#rim"/>
    <path pointer-events="none" fill="none" stroke="white" stroke-width="1.5" d="M0,-3.0v7 M-2.5,-0.5L0,-3.0L2.5,-0.5"/>
  </g>
  <g id="arrowLeft" transform="rotate(270) translate(-36 17)">
    <use xlink:href="#rim"/>
    <path pointer-events="none" fill="none" stroke="white" stroke-width="1.5" d="M0,-3.0v7 M-2.5,-0.5L0,-3.0L2.5,-0.5"/>
  </g>
  <g id="resetDef">
    <use xlink:href="#rim2" fill="#404040"><set attributeName="fill" to="#808080" begin="reset.mouseover" end="reset.mouseout"/></use>
  </g>
</defs>
<script type="application/ecmascript" xlink:href="../../svg.min.js"/>
<svg id="graph" class="graph" data-view-width="458" data-view-height="1029" data-section-id="dynsection-0">
<g id="viewport">
<title>LMCAS::InferenceEngine::DepthGuard</title>
<!-- Node1 -->
<g id="Node000001" class="node">
<title>Node1</title>
<g id="a_Node000001"><a xlink:title=" ">
<polygon fill="#999999" stroke="transparent" points="278.5,-175 36.5,-175 36.5,0 278.5,0 278.5,-175"/>
<text text-anchor="start" x="98" y="-162.5" font-family="Helvetica,sans-Serif" font-size="10.00">LMCAS::InferenceEngine</text>
<text text-anchor="start" x="125" y="-151.5" font-family="Helvetica,sans-Serif" font-size="10.00">::DepthGuard</text>
<text text-anchor="start" x="155.5" y="-136.5" font-family="Helvetica,sans-Serif" font-size="10.00"> </text>
<text text-anchor="start" x="40.5" y="-121.5" font-family="Helvetica,sans-Serif" font-size="10.00">+</text>
<text text-anchor="start" x="53.5" y="-121.5" font-family="Helvetica,sans-Serif" font-size="10.00">DepthGuard(const DepthGuard</text>
<text text-anchor="start" x="53.5" y="-110.5" font-family="Helvetica,sans-Serif" font-size="10.00"> &amp;)=delete</text>
<text text-anchor="start" x="40.5" y="-95.5" font-family="Helvetica,sans-Serif" font-size="10.00">+</text>
<text text-anchor="start" x="53.5" y="-95.5" font-family="Helvetica,sans-Serif" font-size="10.00">DepthGuard(const Inference</text>
<text text-anchor="start" x="53.5" y="-84.5" font-family="Helvetica,sans-Serif" font-size="10.00">Engine &amp;engine, const SymbolicNode &amp;node)</text>
<text text-anchor="start" x="40.5" y="-69.5" font-family="Helvetica,sans-Serif" font-size="10.00">+</text>
<text text-anchor="start" x="53.5" y="-69.5" font-family="Helvetica,sans-Serif" font-size="10.00">~DepthGuard()</text>
<text text-anchor="start" x="40.5" y="-54.5" font-family="Helvetica,sans-Serif" font-size="10.00">+</text>
<text text-anchor="start" x="53.5" y="-54.5" font-family="Helvetica,sans-Serif" font-size="10.00">DepthGuard &amp; operator</text>
<text text-anchor="start" x="53.5" y="-43.5" font-family="Helvetica,sans-Serif" font-size="10.00">=(const DepthGuard &amp;)</text>
<text text-anchor="start" x="53.5" y="-32.5" font-family="Helvetica,sans-Serif" font-size="10.00">=delete</text>
<text text-anchor="start" x="40.5" y="-17.5" font-family="Helvetica,sans-Serif" font-size="10.00">+</text>
<text text-anchor="start" x="53.5" y="-17.5" font-family="Helvetica,sans-Serif" font-size="10.00">bool should_abort()</text>
<text text-anchor="start" x="53.5" y="-6.5" font-family="Helvetica,sans-Serif" font-size="10.00"> const</text>
<polygon fill="#666666" stroke="#666666" points="36.5,-146.5 36.5,-146.5 278.5,-146.5 278.5,-146.5 36.5,-146.5"/>
<polygon fill="#666666" stroke="#666666" points="36.5,-131.5 36.5,-131.5 278.5,-131.5 278.5,-131.5 36.5,-131.5"/>
<polygon fill="none" stroke="#666666" points="36.5,0 36.5,-175 278.5,-175 278.5,0 36.5,0"/>
</a>
</g>
</g>
<!-- Node2 -->
<g id="Node000002" class="node">
<title>Node2</title>
<g id="a_Node000002"><a xlink:title=" ">
<polygon fill="white" stroke="transparent" points="129,-488.5 0,-488.5 0,-439.5 129,-439.5 129,-488.5"/>
<text text-anchor="start" x="5.5" y="-476" font-family="Helvetica,sans-Serif" font-size="10.00">const InferenceEngine &amp;</text>
<text text-anchor="start" x="63" y="-461" font-family="Helvetica,sans-Serif" font-size="10.00"> </text>
<text text-anchor="start" x="63" y="-446" font-family="Helvetica,sans-Serif" font-size="10.00"> </text>
<polygon fill="#666666" stroke="#666666" points="0.5,-471 0.5,-471 129.5,-471 129.5,-471 0.5,-471"/>
<polygon fill="#666666" stroke="#666666" points="0.5,-456 0.5,-456 129.5,-456 129.5,-456 0.5,-456"/>
<polygon fill="none" stroke="#666666" points="0,-439.5 0,-488.5 129,-488.5 129,-439.5 0,-439.5"/>
</a>
</g>
</g>
<!-- Node2&#45;&gt;Node1 -->
<g id="edge1_Node000001_Node000002" class="edge">
<title>Node2&#45;&gt;Node1</title>
<g id="a_edge1_Node000001_Node000002"><a xlink:title=" ">
<path fill="none" stroke="#63b8ff" d="M63.77,-439.15C63.03,-391.17 64.99,-280.11 94.5,-193 95.25,-190.78 96.06,-188.56 96.91,-186.34"/>
<polygon fill="none" stroke="#63b8ff" points="96.91,-186.33 95.52,-179.26 101.53,-175.26 102.91,-182.33 96.91,-186.33"/>
</a>
</g>
<text text-anchor="start" x="98" y="-198.5" font-family="Helvetica,sans-Serif" font-size="10.00" fill="grey">&#45;engine_</text>
</g>
<!-- Node3 -->
<g id="Node000003" class="node">
<title>Node3</title>
<g id="a_Node000003"><a xlink:href="../../dc/d78/classLMCAS_1_1SymbolicNode.html" target="_top" xlink:title="符号表达式 AST 节点基类.">
<polygon fill="white" stroke="transparent" points="369.5,-700 185.5,-700 185.5,-228 369.5,-228 369.5,-700"/>
<text text-anchor="start" x="222" y="-688" font-family="Helvetica,sans-Serif" font-size="10.00">LMCAS::SymbolicNode</text>
<text text-anchor="start" x="275.5" y="-673" font-family="Helvetica,sans-Serif" font-size="10.00"> </text>
<text text-anchor="start" x="189.5" y="-658" font-family="Helvetica,sans-Serif" font-size="10.00">+</text>
<text text-anchor="start" x="202.5" y="-658" font-family="Helvetica,sans-Serif" font-size="10.00">virtual ~SymbolicNode</text>
<text text-anchor="start" x="202.5" y="-647" font-family="Helvetica,sans-Serif" font-size="10.00">()=default</text>
<text text-anchor="start" x="189.5" y="-632" font-family="Helvetica,sans-Serif" font-size="10.00">+</text>
<text text-anchor="start" x="202.5" y="-632" font-family="Helvetica,sans-Serif" font-size="10.00">virtual void accept</text>
<text text-anchor="start" x="202.5" y="-621" font-family="Helvetica,sans-Serif" font-size="10.00">(LMCAS::detail::SymbolicVisitor</text>
<text text-anchor="start" x="202.5" y="-610" font-family="Helvetica,sans-Serif" font-size="10.00"> &amp;visitor) const =0</text>
<text text-anchor="start" x="189.5" y="-595" font-family="Helvetica,sans-Serif" font-size="10.00">+</text>
<text text-anchor="start" x="202.5" y="-595" font-family="Helvetica,sans-Serif" font-size="10.00">virtual std::shared</text>
<text text-anchor="start" x="202.5" y="-584" font-family="Helvetica,sans-Serif" font-size="10.00">_ptr&lt; const SymbolicNode</text>
<text text-anchor="start" x="202.5" y="-573" font-family="Helvetica,sans-Serif" font-size="10.00"> &gt; clone() const =0</text>
<text text-anchor="start" x="189.5" y="-558" font-family="Helvetica,sans-Serif" font-size="10.00">+</text>
<text text-anchor="start" x="202.5" y="-558" font-family="Helvetica,sans-Serif" font-size="10.00">int compare(const Symbolic</text>
<text text-anchor="start" x="202.5" y="-547" font-family="Helvetica,sans-Serif" font-size="10.00">Node &amp;other) const</text>
<text text-anchor="start" x="189.5" y="-532" font-family="Helvetica,sans-Serif" font-size="10.00">+</text>
<text text-anchor="start" x="202.5" y="-532" font-family="Helvetica,sans-Serif" font-size="10.00">bool equals(const Symbolic</text>
<text text-anchor="start" x="202.5" y="-521" font-family="Helvetica,sans-Serif" font-size="10.00">Node &amp;other) const</text>
<text text-anchor="start" x="189.5" y="-506" font-family="Helvetica,sans-Serif" font-size="10.00">+</text>
<text text-anchor="start" x="202.5" y="-506" font-family="Helvetica,sans-Serif" font-size="10.00">std::size_t hash()</text>
<text text-anchor="start" x="202.5" y="-495" font-family="Helvetica,sans-Serif" font-size="10.00"> const</text>
<text text-anchor="start" x="189.5" y="-480" font-family="Helvetica,sans-Serif" font-size="10.00">+</text>
<text text-anchor="start" x="202.5" y="-480" font-family="Helvetica,sans-Serif" font-size="10.00">virtual bool is_number</text>
<text text-anchor="start" x="202.5" y="-469" font-family="Helvetica,sans-Serif" font-size="10.00">() const</text>
<text text-anchor="start" x="189.5" y="-454" font-family="Helvetica,sans-Serif" font-size="10.00">+</text>
<text text-anchor="start" x="202.5" y="-454" font-family="Helvetica,sans-Serif" font-size="10.00">virtual bool is_one</text>
<text text-anchor="start" x="202.5" y="-443" font-family="Helvetica,sans-Serif" font-size="10.00">() const</text>
<text text-anchor="start" x="189.5" y="-428" font-family="Helvetica,sans-Serif" font-size="10.00">+</text>
<text text-anchor="start" x="202.5" y="-428" font-family="Helvetica,sans-Serif" font-size="10.00">virtual bool is_positive</text>
<text text-anchor="start" x="202.5" y="-417" font-family="Helvetica,sans-Serif" font-size="10.00">() const</text>
<text text-anchor="start" x="189.5" y="-402" font-family="Helvetica,sans-Serif" font-size="10.00">+</text>
<text text-anchor="start" x="202.5" y="-402" font-family="Helvetica,sans-Serif" font-size="10.00">virtual bool is_zero</text>
<text text-anchor="start" x="202.5" y="-391" font-family="Helvetica,sans-Serif" font-size="10.00">() const</text>
<text text-anchor="start" x="189.5" y="-376" font-family="Helvetica,sans-Serif" font-size="10.00">+</text>
<text text-anchor="start" x="202.5" y="-376" font-family="Helvetica,sans-Serif" font-size="10.00">virtual int type_priority</text>
<text text-anchor="start" x="202.5" y="-365" font-family="Helvetica,sans-Serif" font-size="10.00">() const =0</text>
<text text-anchor="start" x="189.5" y="-350" font-family="Helvetica,sans-Serif" font-size="10.00">#</text>
<text text-anchor="start" x="202.5" y="-350" font-family="Helvetica,sans-Serif" font-size="10.00">SymbolicNode()=default</text>
<text text-anchor="start" x="189.5" y="-335" font-family="Helvetica,sans-Serif" font-size="10.00">#</text>
<text text-anchor="start" x="202.5" y="-335" font-family="Helvetica,sans-Serif" font-size="10.00">SymbolicNode(const</text>
<text text-anchor="start" x="202.5" y="-324" font-family="Helvetica,sans-Serif" font-size="10.00"> SymbolicNode &amp;)</text>
<text text-anchor="start" x="189.5" y="-309" font-family="Helvetica,sans-Serif" font-size="10.00">#</text>
<text text-anchor="start" x="202.5" y="-309" font-family="Helvetica,sans-Serif" font-size="10.00">virtual int compare</text>
<text text-anchor="start" x="202.5" y="-298" font-family="Helvetica,sans-Serif" font-size="10.00">_same_type(const SymbolicNode</text>
<text text-anchor="start" x="202.5" y="-287" font-family="Helvetica,sans-Serif" font-size="10.00"> &amp;other) const =0</text>
<text text-anchor="start" x="189.5" y="-272" font-family="Helvetica,sans-Serif" font-size="10.00">#</text>
<text text-anchor="start" x="202.5" y="-272" font-family="Helvetica,sans-Serif" font-size="10.00">virtual std::size_t</text>
<text text-anchor="start" x="202.5" y="-261" font-family="Helvetica,sans-Serif" font-size="10.00"> compute_hash() const =0</text>
<text text-anchor="start" x="189.5" y="-246" font-family="Helvetica,sans-Serif" font-size="10.00">#</text>
<text text-anchor="start" x="202.5" y="-246" font-family="Helvetica,sans-Serif" font-size="10.00">SymbolicNode &amp; operator</text>
<text text-anchor="start" x="202.5" y="-235" font-family="Helvetica,sans-Serif" font-size="10.00">=(const SymbolicNode &amp;)</text>
<polygon fill="#666666" stroke="#666666" points="185.5,-683 185.5,-683 369.5,-683 369.5,-683 185.5,-683"/>
<polygon fill="#666666" stroke="#666666" points="185.5,-668 185.5,-668 369.5,-668 369.5,-668 185.5,-668"/>
<polygon fill="none" stroke="#666666" points="185.5,-228 185.5,-700 369.5,-700 369.5,-228 185.5,-228"/>
</a>
</g>
</g>
<!-- Node3&#45;&gt;Node1 -->
<g id="edge2_Node000001_Node000003" class="edge">
<title>Node3&#45;&gt;Node1</title>
<g id="a_edge2_Node000001_Node000003"><a xlink:title=" ">
<path fill="none" stroke="#63b8ff" d="M202.18,-227.95C197.64,-213.77 193.22,-199.99 189.05,-186.95"/>
<polygon fill="none" stroke="#63b8ff" points="188.94,-186.62 183.3,-182.13 185.28,-175.2 190.92,-179.69 188.94,-186.62"/>
</a>
</g>
<text text-anchor="start" x="199.5" y="-198.5" font-family="Helvetica,sans-Serif" font-size="10.00" fill="grey">&#45;node_</text>
</g>
<!-- Node4 -->
<g id="Node000004" class="node">
<title>Node4</title>
<g id="a_Node000004"><a xlink:title=" ">
<polygon fill="white" stroke="transparent" points="450,-817 313,-817 313,-768 450,-768 450,-817"/>
<text text-anchor="start" x="318.5" y="-804.5" font-family="Helvetica,sans-Serif" font-size="10.00">std::atomic&lt; std::size_t &gt;</text>
<text text-anchor="start" x="380" y="-789.5" font-family="Helvetica,sans-Serif" font-size="10.00"> </text>
<text text-anchor="start" x="380" y="-774.5" font-family="Helvetica,sans-Serif" font-size="10.00"> </text>
<polygon fill="#666666" stroke="#666666" points="313.5,-799.5 313.5,-799.5 450.5,-799.5 450.5,-799.5 313.5,-799.5"/>
<polygon fill="#666666" stroke="#666666" points="313.5,-784.5 313.5,-784.5 450.5,-784.5 450.5,-784.5 313.5,-784.5"/>
<polygon fill="none" stroke="#666666" points="313,-768 313,-817 450,-817 450,-768 313,-768"/>
</a>
</g>
</g>
<!-- Node4&#45;&gt;Node3 -->
<g id="edge3_Node000003_Node000004" class="edge">
<title>Node4&#45;&gt;Node3</title>
<g id="a_edge3_Node000003_Node000004"><a xlink:title=" ">
<path fill="none" stroke="#63b8ff" d="M373.94,-767.76C369.44,-753.63 363.22,-734.12 356.1,-711.75"/>
<polygon fill="none" stroke="#63b8ff" points="356.05,-711.61 350.42,-707.11 352.41,-700.18 358.04,-704.68 356.05,-711.61"/>
</a>
</g>
<text text-anchor="start" x="368.5" y="-731" font-family="Helvetica,sans-Serif" font-size="10.00" fill="grey">#cached_hash</text>
</g>
<!-- Node5 -->
<g id="Node000005" class="node">
<title>Node5</title>
<g id="a_Node000005"><a xlink:title=" ">
<polygon fill="white" stroke="transparent" points="436,-919 397,-919 397,-870 436,-870 436,-919"/>
<text text-anchor="start" x="402.5" y="-906.5" font-family="Helvetica,sans-Serif" font-size="10.00">size_t</text>
<text text-anchor="start" x="415" y="-891.5" font-family="Helvetica,sans-Serif" font-size="10.00"> </text>
<text text-anchor="start" x="415" y="-876.5" font-family="Helvetica,sans-Serif" font-size="10.00"> </text>
<polygon fill="#666666" stroke="#666666" points="397.5,-901.5 397.5,-901.5 436.5,-901.5 436.5,-901.5 397.5,-901.5"/>
<polygon fill="#666666" stroke="#666666" points="397.5,-886.5 397.5,-886.5 436.5,-886.5 436.5,-886.5 397.5,-886.5"/>
<polygon fill="none" stroke="#666666" points="397,-870 397,-919 436,-919 436,-870 397,-870"/>
</a>
</g>
</g>
<!-- Node5&#45;&gt;Node4 -->
<g id="edge4_Node000004_Node000005" class="edge">
<title>Node5&#45;&gt;Node4</title>
<g id="a_edge4_Node000004_Node000005"><a xlink:title=" ">
<path fill="none" stroke="#63b8ff" d="M408.21,-869.8C403.89,-857.47 398.53,-842.16 393.75,-828.5"/>
<polygon fill="none" stroke="#63b8ff" points="393.7,-828.35 387.94,-824.01 389.73,-817.03 395.49,-821.37 393.7,-828.35"/>
</a>
</g>
<text text-anchor="start" x="403.5" y="-840.5" font-family="Helvetica,sans-Serif" font-size="10.00" fill="grey">+ptr</text>
</g>
<!-- Node6 -->
<g id="Node000006" class="node">
<title>Node6</title>
<g id="a_Node000006"><a xlink:title=" ">
<polygon fill="white" stroke="transparent" points="303.5,-919 209.5,-919 209.5,-870 303.5,-870 303.5,-919"/>
<text text-anchor="start" x="214.5" y="-906.5" font-family="Helvetica,sans-Serif" font-size="10.00">std::atomic&lt; T &gt;</text>
<text text-anchor="start" x="254.5" y="-891.5" font-family="Helvetica,sans-Serif" font-size="10.00"> </text>
<text text-anchor="start" x="254.5" y="-876.5" font-family="Helvetica,sans-Serif" font-size="10.00"> </text>
<polygon fill="#666666" stroke="#666666" points="209.5,-901.5 209.5,-901.5 303.5,-901.5 303.5,-901.5 209.5,-901.5"/>
<polygon fill="#666666" stroke="#666666" points="209.5,-886.5 209.5,-886.5 303.5,-886.5 303.5,-886.5 209.5,-886.5"/>
<polygon fill="none" stroke="#666666" points="209.5,-870 209.5,-919 303.5,-919 303.5,-870 209.5,-870"/>
</a>
</g>
</g>
<!-- Node6&#45;&gt;Node4 -->
<g id="edge5_Node000004_Node000006" class="edge">
<title>Node6&#45;&gt;Node4</title>
<g id="a_edge5_Node000004_Node000006"><a xlink:title=" ">
<path fill="none" stroke="orange" d="M283.83,-862.58C292.82,-853.21 303.18,-843.23 313.5,-835 321.39,-828.71 330.31,-822.63 339.04,-817.15"/>
<polygon fill="orange" stroke="orange" points="281.23,-860.24 276.93,-869.92 286.33,-865.03 281.23,-860.24"/>
</a>
</g>
<text text-anchor="start" x="317" y="-840.5" font-family="Helvetica,sans-Serif" font-size="10.00" fill="grey">&lt; std::size_t &gt;</text>
</g>
<!-- Node8 -->
<g id="Node000008" class="node">
<title>Node8</title>
<g id="a_Node000008"><a xlink:title=" ">
<polygon fill="white" stroke="transparent" points="295,-817 186,-817 186,-768 295,-768 295,-817"/>
<text text-anchor="start" x="191.5" y="-804.5" font-family="Helvetica,sans-Serif" font-size="10.00">std::atomic&lt; bool &gt;</text>
<text text-anchor="start" x="239" y="-789.5" font-family="Helvetica,sans-Serif" font-size="10.00"> </text>
<text text-anchor="start" x="239" y="-774.5" font-family="Helvetica,sans-Serif" font-size="10.00"> </text>
<polygon fill="#666666" stroke="#666666" points="186.5,-799.5 186.5,-799.5 295.5,-799.5 295.5,-799.5 186.5,-799.5"/>
<polygon fill="#666666" stroke="#666666" points="186.5,-784.5 186.5,-784.5 295.5,-784.5 295.5,-784.5 186.5,-784.5"/>
<polygon fill="none" stroke="#666666" points="186,-768 186,-817 295,-817 295,-768 186,-768"/>
</a>
</g>
</g>
<!-- Node6&#45;&gt;Node8 -->
<g id="edge9_Node000008_Node000006" class="edge">
<title>Node6&#45;&gt;Node8</title>
<g id="a_edge9_Node000008_Node000006"><a xlink:title=" ">
<path fill="none" stroke="orange" d="M244.3,-860.05C243.6,-857.35 242.98,-854.64 242.5,-852 240.43,-840.6 239.81,-827.75 239.75,-817.01"/>
<polygon fill="orange" stroke="orange" points="240.95,-861.08 247.15,-869.67 247.66,-859.09 240.95,-861.08"/>
</a>
</g>
<text text-anchor="start" x="245.5" y="-840.5" font-family="Helvetica,sans-Serif" font-size="10.00" fill="grey">&lt; bool &gt;</text>
</g>
<!-- Node7 -->
<g id="Node000007" class="node">
<title>Node7</title>
<g id="a_Node000007"><a xlink:title=" ">
<polygon fill="white" stroke="transparent" points="265,-1021 248,-1021 248,-972 265,-972 265,-1021"/>
<text text-anchor="start" x="253.5" y="-1008.5" font-family="Helvetica,sans-Serif" font-size="10.00">T</text>
<text text-anchor="start" x="255" y="-993.5" font-family="Helvetica,sans-Serif" font-size="10.00"> </text>
<text text-anchor="start" x="255" y="-978.5" font-family="Helvetica,sans-Serif" font-size="10.00"> </text>
<polygon fill="#666666" stroke="#666666" points="248.5,-1003.5 248.5,-1003.5 265.5,-1003.5 265.5,-1003.5 248.5,-1003.5"/>
<polygon fill="#666666" stroke="#666666" points="248.5,-988.5 248.5,-988.5 265.5,-988.5 265.5,-988.5 248.5,-988.5"/>
<polygon fill="none" stroke="#666666" points="248,-972 248,-1021 265,-1021 265,-972 248,-972"/>
</a>
</g>
</g>
<!-- Node7&#45;&gt;Node6 -->
<g id="edge6_Node000006_Node000007" class="edge">
<title>Node7&#45;&gt;Node6</title>
<g id="a_edge6_Node000006_Node000007"><a xlink:title=" ">
<path fill="none" stroke="#63b8ff" d="M256.5,-971.8C256.5,-959.72 256.5,-944.78 256.5,-931.33"/>
<polygon fill="none" stroke="#63b8ff" points="256.5,-931.03 252.5,-925.03 256.5,-919.03 260.5,-925.03 256.5,-931.03"/>
</a>
</g>
<text text-anchor="start" x="259.5" y="-942.5" font-family="Helvetica,sans-Serif" font-size="10.00" fill="grey">+ptr</text>
</g>
<!-- Node8&#45;&gt;Node3 -->
<g id="edge7_Node000003_Node000008" class="edge">
<title>Node8&#45;&gt;Node3</title>
<g id="a_edge7_Node000003_Node000008"><a xlink:title=" ">
<path fill="none" stroke="#63b8ff" d="M243.19,-767.76C244.78,-753.76 246.96,-734.48 249.47,-712.36"/>
<polygon fill="none" stroke="#63b8ff" points="249.5,-712.1 246.2,-705.69 250.85,-700.18 254.15,-706.59 249.5,-712.1"/>
</a>
</g>
<text text-anchor="start" x="250.5" y="-731" font-family="Helvetica,sans-Serif" font-size="10.00" fill="grey">#hash_computed</text>
</g>
<!-- Node9 -->
<g id="Node000009" class="node">
<title>Node9</title>
<g id="a_Node000009"><a xlink:title=" ">
<polygon fill="white" stroke="transparent" points="190.5,-919 158.5,-919 158.5,-870 190.5,-870 190.5,-919"/>
<text text-anchor="start" x="163.5" y="-906.5" font-family="Helvetica,sans-Serif" font-size="10.00">bool</text>
<text text-anchor="start" x="172.5" y="-891.5" font-family="Helvetica,sans-Serif" font-size="10.00"> </text>
<text text-anchor="start" x="172.5" y="-876.5" font-family="Helvetica,sans-Serif" font-size="10.00"> </text>
<polygon fill="#666666" stroke="#666666" points="158.5,-901.5 158.5,-901.5 190.5,-901.5 190.5,-901.5 158.5,-901.5"/>
<polygon fill="#666666" stroke="#666666" points="158.5,-886.5 158.5,-886.5 190.5,-886.5 190.5,-886.5 158.5,-886.5"/>
<polygon fill="none" stroke="#666666" points="158.5,-870 158.5,-919 190.5,-919 190.5,-870 158.5,-870"/>
</a>
</g>
</g>
<!-- Node9&#45;&gt;Node1 -->
<g id="edge10_Node000001_Node000009" class="edge">
<title>Node9&#45;&gt;Node1</title>
<g id="a_edge10_Node000001_Node000009"><a xlink:title=" ">
<path fill="none" stroke="#63b8ff" d="M174,-869.84C171.88,-769.32 163.53,-374.26 159.59,-187.42"/>
<polygon fill="none" stroke="#63b8ff" points="159.58,-187.15 155.46,-181.24 159.33,-175.15 163.46,-181.07 159.58,-187.15"/>
</a>
</g>
<text text-anchor="start" x="175" y="-739" font-family="Helvetica,sans-Serif" font-size="10.00" fill="grey">&#45;abort_</text>
<text text-anchor="start" x="175" y="-724" font-family="Helvetica,sans-Serif" font-size="10.00" fill="grey">&#45;inserted_</text>
</g>
<!-- Node9&#45;&gt;Node8 -->
<g id="edge8_Node000008_Node000009" class="edge">
<title>Node9&#45;&gt;Node8</title>
<g id="a_edge8_Node000008_Node000009"><a xlink:title=" ">
<path fill="none" stroke="#63b8ff" d="M187.38,-869.73C193.47,-858.93 201.03,-846.12 208.5,-835 210.29,-832.33 212.2,-829.61 214.16,-826.9"/>
<polygon fill="none" stroke="#63b8ff" points="214.18,-826.87 214.55,-819.67 221.34,-817.25 220.97,-824.45 214.18,-826.87"/>
</a>
</g>
<text text-anchor="start" x="211.5" y="-840.5" font-family="Helvetica,sans-Serif" font-size="10.00" fill="grey">+ptr</text>
</g>
</g>
</svg>

<g id="navigator" transform="translate(0 0)" fill="#404254">
  <rect fill="#f2f5e9" fill-opacity="0.5" stroke="#606060" stroke-width=".5" x="0" y="0" width="60" height="60"/>
  <use id="zoomplus" xlink:href="#zoomPlus" x="17" y="9" data-zoom="in"/>
  <use id="zoomminus" xlink:href="#zoomMin" x="42" y="9" data-zoom="out"/>
  <use id="reset" xlink:href="#resetDef" x="30" y="36" data-reset="true"/>
  <use id="arrowup" xlink:href="#arrowUp" x="0" y="0" data-pan-x="0" data-pan-y="-1"/>
  <use id="arrowright" xlink:href="#arrowRight" x="0" y="0" data-pan-x="1" data-pan-y="0"/>
  <use id="arrowdown" xlink:href="#arrowDown" x="0" y="0" data-pan-x="0" data-pan-y="1"/>
  <use id="arrowleft" xlink:href="#arrowLeft" x="0" y="0" data-pan-x="-1" data-pan-y="0"/>
</g>
<svg viewBox="0 0 15 15" width="100%" height="30px" preserveAspectRatio="xMaxYMin meet">
 <g id="arrow_out" transform="scale(0.3 0.3)">
  <a xlink:href="classLMCAS_1_1InferenceEngine_1_1DepthGuard__coll__graph_org.svg" target="_base">
   <rect id="button" ry="5" rx="5" y="6" x="6" height="38" width="38"
        fill="#f2f5e9" fill-opacity="0.5" stroke="#606060" stroke-width="1.0"/>
   <path id="arrow"
     d="M 11.500037,31.436501 C 11.940474,20.09759 22.043105,11.32322 32.158766,21.979434 L 37.068811,17.246167 C 37.068811,17.246167 37.088388,32 37.088388,32 L 22.160133,31.978069 C 22.160133,31.978069 26.997745,27.140456 26.997745,27.140456 C 18.528582,18.264221 13.291696,25.230495 11.500037,31.436501 z"
     style="fill:#404040;"/>
  </a>
 </g>
</svg>

<style type='text/css'>
<![CDATA[
[data-mouse-over-selected='false'] { opacity: 0.7; }
[data-mouse-over-selected='true']  { opacity: 1.0; }
]]>
</style>
</svg>
