<?xml version="1.0" encoding="UTF-8" standalone="no"?>
<!DOCTYPE svg PUBLIC "-//W3C//DTD SVG 1.1//EN"
 "http://www.w3.org/Graphics/SVG/1.1/DTD/svg11.dtd">
<!-- Generated by graphviz version 2.43.0 (0)
 -->
<!-- Title: lmmp_div_2_ Pages: 1 -->
<svg width="486pt" height="175pt"
 viewBox="0.00 0.00 486.00 175.00" xmlns="http://www.w3.org/2000/svg" xmlns:xlink="http://www.w3.org/1999/xlink">

<svg id="main" version="1.1" xmlns="http://www.w3.org/2000/svg" xmlns:xlink="http://www.w3.org/1999/xlink" xml:space="preserve" onload="init(evt)">
<style type="text/css"><![CDATA[
.node, .edge {opacity: 0.7;}
.node.selected, .edge.selected {opacity: 1;}
.edge:hover path { stroke: red; }
.edge:hover polygon { stroke: red; fill: red; }
]]></style>
<script type="application/ecmascript" xlink:href="../../svg.min.js"/>
<svg id="graph" class="graph">
<g id="graph0" class="graph" transform="scale(1 1) rotate(0) translate(4 171)">
<title>lmmp_div_2_</title>
<!-- Node1 -->
<g id="Node000001" class="node">
<title>Node1</title>
<g id="a_Node000001"><a xlink:title="双精度数除法 (除数为2个limb)">
<polygon fill="#999999" stroke="#666666" points="478,-130 396,-130 396,-111 478,-111 478,-130"/>
<text text-anchor="middle" x="437" y="-118" font-family="Helvetica,sans-Serif" font-size="10.00">lmmp_div_2_</text>
</a>
</g>
</g>
<!-- Node2 -->
<g id="Node000002" class="node">
<title>Node2</title>
<g id="a_Node000002"><a xlink:href="../../da/dbc/bninv_8c.html#a9d1d54a9863ec438e863e842482697ba" target="_top" xlink:title=" ">
<polygon fill="white" stroke="#666666" points="232.5,-167 149.5,-167 149.5,-148 232.5,-148 232.5,-167"/>
<text text-anchor="middle" x="191" y="-155" font-family="Helvetica,sans-Serif" font-size="10.00">lmmp_bninv_</text>
</a>
</g>
</g>
<!-- Node1&#45;&gt;Node2 -->
<g id="edge1_Node000001_Node000002" class="edge">
<title>Node1&#45;&gt;Node2</title>
<g id="a_edge1_Node000001_Node000002"><a xlink:title=" ">
<path fill="none" stroke="#63b8ff" d="M386.09,-128.07C340.87,-134.93 275.03,-144.91 232.85,-151.3"/>
<polygon fill="#63b8ff" stroke="#63b8ff" points="386.62,-131.53 395.98,-126.57 385.57,-124.61 386.62,-131.53"/>
</a>
</g>
</g>
<!-- Node3 -->
<g id="Node000003" class="node">
<title>Node3</title>
<g id="a_Node000003"><a xlink:href="../../d3/db2/div_8c.html#add02162837d61d6b5abb1901937af5b3" target="_top" xlink:title="大数除法和取模操作">
<polygon fill="white" stroke="#666666" points="360,-111 289,-111 289,-92 360,-92 360,-111"/>
<text text-anchor="middle" x="324.5" y="-99" font-family="Helvetica,sans-Serif" font-size="10.00">lmmp_div_</text>
</a>
</g>
</g>
<!-- Node1&#45;&gt;Node3 -->
<g id="edge2_Node000001_Node000003" class="edge">
<title>Node1&#45;&gt;Node3</title>
<g id="a_edge2_Node000001_Node000003"><a xlink:title=" ">
<path fill="none" stroke="#63b8ff" d="M385.72,-111.85C377.03,-110.36 368.18,-108.84 360.03,-107.44"/>
<polygon fill="#63b8ff" stroke="#63b8ff" points="385.35,-115.34 395.79,-113.59 386.53,-108.44 385.35,-115.34"/>
</a>
</g>
</g>
<!-- Node3&#45;&gt;Node2 -->
<g id="edge3_Node000003_Node000002" class="edge">
<title>Node3&#45;&gt;Node2</title>
<g id="a_edge3_Node000003_Node000002"><a xlink:title=" ">
<path fill="none" stroke="#63b8ff" d="M299.03,-116.32C285.74,-123.94 268.83,-132.98 253,-139.5 245.34,-142.65 236.94,-145.5 228.88,-147.96"/>
<polygon fill="#63b8ff" stroke="#63b8ff" points="301.13,-119.14 308,-111.07 297.6,-113.1 301.13,-119.14"/>
</a>
</g>
</g>
<!-- Node4 -->
<g id="Node000004" class="node">
<title>Node4</title>
<g id="a_Node000004"><a xlink:href="../../d6/dfd/gcd__basecase_8c.html#a1d75efbaa9483d1df69ca92c456b8f79" target="_top" xlink:title="计算两个无符号整数的最大公约数（不建议使用此算法，更高版本可能被彻底弃用）">
<polygon fill="white" stroke="#666666" points="253,-130 129,-130 129,-111 253,-111 253,-130"/>
<text text-anchor="middle" x="191" y="-118" font-family="Helvetica,sans-Serif" font-size="10.00">lmmp_gcd_basecase_</text>
</a>
</g>
</g>
<!-- Node3&#45;&gt;Node4 -->
<g id="edge4_Node000003_Node000004" class="edge">
<title>Node3&#45;&gt;Node4</title>
<g id="a_edge4_Node000003_Node000004"><a xlink:title=" ">
<path fill="none" stroke="#63b8ff" d="M279.04,-107.92C270.67,-109.13 261.79,-110.42 253.02,-111.68"/>
<polygon fill="#63b8ff" stroke="#63b8ff" points="279.55,-111.39 288.95,-106.49 278.55,-104.46 279.55,-111.39"/>
</a>
</g>
</g>
<!-- Node5 -->
<g id="Node000005" class="node">
<title>Node5</title>
<g id="a_Node000005"><a xlink:href="../../de/d86/gcd__lehmer_8c.html#a1ea89f24b0daddd75fa7ed3f13b851f4" target="_top" xlink:title="计算两个无符号整数的最大公约数（Lehmer算法）">
<polygon fill="white" stroke="#666666" points="247.5,-93 134.5,-93 134.5,-74 247.5,-74 247.5,-93"/>
<text text-anchor="middle" x="191" y="-81" font-family="Helvetica,sans-Serif" font-size="10.00">lmmp_gcd_lehmer_</text>
</a>
</g>
</g>
<!-- Node3&#45;&gt;Node5 -->
<g id="edge5_Node000003_Node000005" class="edge">
<title>Node3&#45;&gt;Node5</title>
<g id="a_edge5_Node000003_Node000005"><a xlink:title=" ">
<path fill="none" stroke="#63b8ff" d="M278.83,-95.38C268.81,-94.01 258.07,-92.54 247.68,-91.12"/>
<polygon fill="#63b8ff" stroke="#63b8ff" points="278.57,-98.88 288.95,-96.77 279.52,-91.95 278.57,-98.88"/>
</a>
</g>
</g>
<!-- Node6 -->
<g id="Node000006" class="node">
<title>Node6</title>
<g id="a_Node000006"><a xlink:href="../../d1/db8/trialdiv_8c.html#a3f93397f659328a5dbf9affb2680fee1" target="_top" xlink:title=" ">
<polygon fill="white" stroke="#666666" points="236,-56 146,-56 146,-37 236,-37 236,-56"/>
<text text-anchor="middle" x="191" y="-44" font-family="Helvetica,sans-Serif" font-size="10.00">lmmp_trialdiv_</text>
</a>
</g>
</g>
<!-- Node3&#45;&gt;Node6 -->
<g id="edge6_Node000003_Node000006" class="edge">
<title>Node3&#45;&gt;Node6</title>
<g id="a_edge6_Node000003_Node000006"><a xlink:title=" ">
<path fill="none" stroke="#63b8ff" d="M297.85,-87.07C284.69,-80.01 268.26,-71.72 253,-65.5 244.47,-62.03 235.07,-58.81 226.24,-56.04"/>
<polygon fill="#63b8ff" stroke="#63b8ff" points="296.33,-90.23 306.79,-91.94 299.68,-84.08 296.33,-90.23"/>
</a>
</g>
</g>
<!-- Node7 -->
<g id="Node000007" class="node">
<title>Node7</title>
<g id="a_Node000007"><a xlink:href="../../d2/dd7/remove_8c.html#a247b77acd679e675a3715ea686b3b001" target="_top" xlink:title="qp 为商，rp 为余数，divp 为被除数，divn 为被除数长度，numb 为除数，nb 为除数长度 如果无法整除，则返回0，否则返回除数 qp 的长度">
<polygon fill="white" stroke="#666666" points="219,-19 163,-19 163,0 219,0 219,-19"/>
<text text-anchor="middle" x="191" y="-7" font-family="Helvetica,sans-Serif" font-size="10.00">try_div_</text>
</a>
</g>
</g>
<!-- Node3&#45;&gt;Node7 -->
<g id="edge7_Node000003_Node000007" class="edge">
<title>Node3&#45;&gt;Node7</title>
<g id="a_edge7_Node000003_Node000007"><a xlink:title=" ">
<path fill="none" stroke="#63b8ff" d="M310.68,-83.35C297.89,-66.54 276.77,-42.01 253,-27.5 242.73,-21.23 230.15,-17.03 219.08,-14.28"/>
<polygon fill="#63b8ff" stroke="#63b8ff" points="308.14,-85.81 316.89,-91.79 313.77,-81.66 308.14,-85.81"/>
</a>
</g>
</g>
<!-- Node8 -->
<g id="Node000008" class="node">
<title>Node8</title>
<g id="a_Node000008"><a xlink:href="../../d2/dd7/remove_8c.html#a1cc1a46280105160a8cbd99a0f9f1571" target="_top" xlink:title="除去[np,nn]中的[dp,dn]的因子">
<polygon fill="white" stroke="#666666" points="93,-19 0,-19 0,0 93,0 93,-19"/>
<text text-anchor="middle" x="46.5" y="-7" font-family="Helvetica,sans-Serif" font-size="10.00">lmmp_remove_</text>
</a>
</g>
</g>
<!-- Node7&#45;&gt;Node8 -->
<g id="edge8_Node000007_Node000008" class="edge">
<title>Node7&#45;&gt;Node8</title>
<g id="a_edge8_Node000007_Node000008"><a xlink:title=" ">
<path fill="none" stroke="#63b8ff" d="M152.62,-9.5C134.37,-9.5 112.26,-9.5 93.04,-9.5"/>
<polygon fill="#63b8ff" stroke="#63b8ff" points="152.86,-13 162.86,-9.5 152.86,-6 152.86,-13"/>
</a>
</g>
</g>
</g>
</svg>
</svg>

<style type='text/css'>
<![CDATA[
[data-mouse-over-selected='false'] { opacity: 0.7; }
[data-mouse-over-selected='true']  { opacity: 1.0; }
]]>
</style>
<script type="application/ecmascript"><![CDATA[
document.addEventListener('DOMContentLoaded', (event) => {
  highlightEdges();
  highlightAdjacentNodes();
});
]]></script>
</svg>
