<?xml version="1.0" encoding="UTF-8" standalone="no"?>
<!DOCTYPE svg PUBLIC "-//W3C//DTD SVG 1.1//EN"
 "http://www.w3.org/Graphics/SVG/1.1/DTD/svg11.dtd">
<!-- Generated by graphviz version 2.43.0 (0)
 -->
<!-- Title: lmmp_div_2_ Pages: 1 -->
<svg width="347pt" height="27pt"
 viewBox="0.00 0.00 347.00 27.00" xmlns="http://www.w3.org/2000/svg" xmlns:xlink="http://www.w3.org/1999/xlink">
<g id="graph0" class="graph" transform="scale(1 1) rotate(0) translate(4 23)">
<title>lmmp_div_2_</title>
<!-- Node1 -->
<g id="Node000001" class="node">
<title>Node1</title>
<g id="a_Node000001"><a xlink:title="双精度数除法 (除数为2个limb)">
<polygon fill="#999999" stroke="#666666" points="82,-19 0,-19 0,0 82,0 82,-19"/>
<text text-anchor="middle" x="41" y="-7" font-family="Helvetica,sans-Serif" font-size="10.00">lmmp_div_2_</text>
</a>
</g>
</g>
<!-- Node2 -->
<g id="Node000002" class="node">
<title>Node2</title>
<g id="a_Node000002"><a xlink:href="../../df/db6/generic_2inv_8c.html#ae4892dbbb77958ef9a96101279a9d5bd" target="_top" xlink:title="2&#45;1阶逆元计算 (inv21)">
<polygon fill="white" stroke="#666666" points="211,-19 118,-19 118,0 211,0 211,-19"/>
<text text-anchor="middle" x="164.5" y="-7" font-family="Helvetica,sans-Serif" font-size="10.00">lmmp_inv_2_1_</text>
</a>
</g>
</g>
<!-- Node1&#45;&gt;Node2 -->
<g id="edge1_Node000001_Node000002" class="edge">
<title>Node1&#45;&gt;Node2</title>
<g id="a_edge1_Node000001_Node000002"><a xlink:title=" ">
<path fill="none" stroke="#63b8ff" d="M82.12,-9.5C90.37,-9.5 99.19,-9.5 107.87,-9.5"/>
<polygon fill="#63b8ff" stroke="#63b8ff" points="107.96,-13 117.96,-9.5 107.96,-6 107.96,-13"/>
</a>
</g>
</g>
<!-- Node3 -->
<g id="Node000003" class="node">
<title>Node3</title>
<g id="a_Node000003"><a xlink:href="../../d1/d59/longlong_8h.html#a37f028f4a5e50ba7c59ec35dea89ab21" target="_top" xlink:title=" ">
<polygon fill="white" stroke="#666666" points="339,-19 247,-19 247,0 339,0 339,-19"/>
<text text-anchor="middle" x="293" y="-7" font-family="Helvetica,sans-Serif" font-size="10.00">_umul64to128_</text>
</a>
</g>
</g>
<!-- Node2&#45;&gt;Node3 -->
<g id="edge2_Node000002_Node000003" class="edge">
<title>Node2&#45;&gt;Node3</title>
<g id="a_edge2_Node000002_Node000003"><a xlink:title=" ">
<path fill="none" stroke="#63b8ff" d="M211.17,-9.5C219.42,-9.5 228.11,-9.5 236.6,-9.5"/>
<polygon fill="#63b8ff" stroke="#63b8ff" points="236.82,-13 246.82,-9.5 236.82,-6 236.82,-13"/>
</a>
</g>
</g>
</g>
</svg>
