<?xml version="1.0" encoding="UTF-8" standalone="no"?>
<!DOCTYPE svg PUBLIC "-//W3C//DTD SVG 1.1//EN"
 "http://www.w3.org/Graphics/SVG/1.1/DTD/svg11.dtd">
<!-- Generated by graphviz version 2.43.0 (0)
 -->
<!-- Title: src/lammp/NumTh/gcd_1.c Pages: 1 -->
<svg width="317pt" height="203pt"
 viewBox="0.00 0.00 317.00 203.00" xmlns="http://www.w3.org/2000/svg" xmlns:xlink="http://www.w3.org/1999/xlink">
<g id="graph0" class="graph" transform="scale(1 1) rotate(0) translate(4 199)">
<title>src/lammp/NumTh/gcd_1.c</title>
<!-- Node1 -->
<g id="Node000001" class="node">
<title>Node1</title>
<g id="a_Node000001"><a xlink:title=" ">
<polygon fill="#999999" stroke="#666666" points="211.5,-195 65.5,-195 65.5,-176 211.5,-176 211.5,-195"/>
<text text-anchor="middle" x="138.5" y="-183" font-family="Helvetica,sans-Serif" font-size="10.00">src/lammp/NumTh/gcd_1.c</text>
</a>
</g>
</g>
<!-- Node2 -->
<g id="Node000002" class="node">
<title>Node2</title>
<g id="a_Node000002"><a xlink:href="../../de/da4/numth_8h.html" target="_top" xlink:title=" ">
<polygon fill="white" stroke="#666666" points="129.5,-140 13.5,-140 13.5,-110 129.5,-110 129.5,-140"/>
<text text-anchor="start" x="21.5" y="-128" font-family="Helvetica,sans-Serif" font-size="10.00">../../../include/lammp</text>
<text text-anchor="middle" x="71.5" y="-117" font-family="Helvetica,sans-Serif" font-size="10.00">/numth.h</text>
</a>
</g>
</g>
<!-- Node1&#45;&gt;Node2 -->
<g id="edge1_Node000001_Node000002" class="edge">
<title>Node1&#45;&gt;Node2</title>
<g id="a_edge1_Node000001_Node000002"><a xlink:title=" ">
<path fill="none" stroke="#63b8ff" d="M128.61,-175.87C119.86,-168.22 106.73,-156.76 95.26,-146.75"/>
<polygon fill="#63b8ff" stroke="#63b8ff" points="97.5,-144.06 87.67,-140.11 92.9,-149.33 97.5,-144.06"/>
</a>
</g>
</g>
<!-- Node10 -->
<g id="Node000010" class="node">
<title>Node10</title>
<g id="a_Node000010"><a xlink:href="../../d6/d39/lmmpn_8h.html" target="_top" xlink:title=" ">
<polygon fill="white" stroke="#666666" points="263.5,-140 147.5,-140 147.5,-110 263.5,-110 263.5,-140"/>
<text text-anchor="start" x="155.5" y="-128" font-family="Helvetica,sans-Serif" font-size="10.00">../../../include/lammp</text>
<text text-anchor="middle" x="205.5" y="-117" font-family="Helvetica,sans-Serif" font-size="10.00">/lmmpn.h</text>
</a>
</g>
</g>
<!-- Node1&#45;&gt;Node10 -->
<g id="edge9_Node000001_Node000010" class="edge">
<title>Node1&#45;&gt;Node10</title>
<g id="a_edge9_Node000001_Node000010"><a xlink:title=" ">
<path fill="none" stroke="#63b8ff" d="M148.39,-175.87C157.14,-168.22 170.27,-156.76 181.74,-146.75"/>
<polygon fill="#63b8ff" stroke="#63b8ff" points="184.1,-149.33 189.33,-140.11 179.5,-144.06 184.1,-149.33"/>
</a>
</g>
</g>
<!-- Node3 -->
<g id="Node000003" class="node">
<title>Node3</title>
<g id="a_Node000003"><a xlink:title=" ">
<polygon fill="#e0e0e0" stroke="#999999" points="51,-74 0,-74 0,-55 51,-55 51,-74"/>
<text text-anchor="middle" x="25.5" y="-62" font-family="Helvetica,sans-Serif" font-size="10.00">math.h</text>
</a>
</g>
</g>
<!-- Node2&#45;&gt;Node3 -->
<g id="edge2_Node000002_Node000003" class="edge">
<title>Node2&#45;&gt;Node3</title>
<g id="a_edge2_Node000002_Node000003"><a xlink:title=" ">
<path fill="none" stroke="#63b8ff" d="M60.36,-109.84C53.82,-101.52 45.52,-90.96 38.66,-82.23"/>
<polygon fill="#63b8ff" stroke="#63b8ff" points="41.33,-79.96 32.39,-74.27 35.82,-84.29 41.33,-79.96"/>
</a>
</g>
</g>
<!-- Node4 -->
<g id="Node000004" class="node">
<title>Node4</title>
<g id="a_Node000004"><a xlink:title=" ">
<polygon fill="#e0e0e0" stroke="#999999" points="131.5,-74 69.5,-74 69.5,-55 131.5,-55 131.5,-74"/>
<text text-anchor="middle" x="100.5" y="-62" font-family="Helvetica,sans-Serif" font-size="10.00">stdbool.h</text>
</a>
</g>
</g>
<!-- Node2&#45;&gt;Node4 -->
<g id="edge3_Node000002_Node000004" class="edge">
<title>Node2&#45;&gt;Node4</title>
<g id="a_edge3_Node000002_Node000004"><a xlink:title=" ">
<path fill="none" stroke="#63b8ff" d="M78.52,-109.84C82.47,-101.87 87.44,-91.84 91.66,-83.33"/>
<polygon fill="#63b8ff" stroke="#63b8ff" points="94.85,-84.78 96.15,-74.27 88.58,-81.67 94.85,-84.78"/>
</a>
</g>
</g>
<!-- Node5 -->
<g id="Node000005" class="node">
<title>Node5</title>
<g id="a_Node000005"><a xlink:href="../../dd/d90/lmmp_8h.html" target="_top" xlink:title=" ">
<polygon fill="white" stroke="#666666" points="203.5,-74 149.5,-74 149.5,-55 203.5,-55 203.5,-74"/>
<text text-anchor="middle" x="176.5" y="-62" font-family="Helvetica,sans-Serif" font-size="10.00">lmmp.h</text>
</a>
</g>
</g>
<!-- Node2&#45;&gt;Node5 -->
<g id="edge4_Node000002_Node000005" class="edge">
<title>Node2&#45;&gt;Node5</title>
<g id="a_edge4_Node000002_Node000005"><a xlink:title=" ">
<path fill="none" stroke="#63b8ff" d="M96.65,-109.99C113.39,-100.66 135.27,-88.47 151.89,-79.21"/>
<polygon fill="#63b8ff" stroke="#63b8ff" points="153.96,-82.06 160.99,-74.14 150.55,-75.95 153.96,-82.06"/>
</a>
</g>
</g>
<!-- Node6 -->
<g id="Node000006" class="node">
<title>Node6</title>
<g id="a_Node000006"><a xlink:title=" ">
<polygon fill="#e0e0e0" stroke="#999999" points="95.5,-19 39.5,-19 39.5,0 95.5,0 95.5,-19"/>
<text text-anchor="middle" x="67.5" y="-7" font-family="Helvetica,sans-Serif" font-size="10.00">stddef.h</text>
</a>
</g>
</g>
<!-- Node5&#45;&gt;Node6 -->
<g id="edge5_Node000005_Node000006" class="edge">
<title>Node5&#45;&gt;Node6</title>
<g id="a_edge5_Node000005_Node000006"><a xlink:title=" ">
<path fill="none" stroke="#63b8ff" d="M158.99,-54.98C141.53,-46.5 114.49,-33.35 94.33,-23.54"/>
<polygon fill="#63b8ff" stroke="#63b8ff" points="95.86,-20.4 85.33,-19.17 92.79,-26.69 95.86,-20.4"/>
</a>
</g>
</g>
<!-- Node7 -->
<g id="Node000007" class="node">
<title>Node7</title>
<g id="a_Node000007"><a xlink:title=" ">
<polygon fill="#e0e0e0" stroke="#999999" points="167,-19 114,-19 114,0 167,0 167,-19"/>
<text text-anchor="middle" x="140.5" y="-7" font-family="Helvetica,sans-Serif" font-size="10.00">stdint.h</text>
</a>
</g>
</g>
<!-- Node5&#45;&gt;Node7 -->
<g id="edge6_Node000005_Node000007" class="edge">
<title>Node5&#45;&gt;Node7</title>
<g id="a_edge6_Node000005_Node000007"><a xlink:title=" ">
<path fill="none" stroke="#63b8ff" d="M170.56,-54.75C165.52,-47.34 158.16,-36.5 151.99,-27.41"/>
<polygon fill="#63b8ff" stroke="#63b8ff" points="154.85,-25.39 146.33,-19.09 149.06,-29.33 154.85,-25.39"/>
</a>
</g>
</g>
<!-- Node8 -->
<g id="Node000008" class="node">
<title>Node8</title>
<g id="a_Node000008"><a xlink:title=" ">
<polygon fill="#e0e0e0" stroke="#999999" points="238,-19 185,-19 185,0 238,0 238,-19"/>
<text text-anchor="middle" x="211.5" y="-7" font-family="Helvetica,sans-Serif" font-size="10.00">stdlib.h</text>
</a>
</g>
</g>
<!-- Node5&#45;&gt;Node8 -->
<g id="edge7_Node000005_Node000008" class="edge">
<title>Node5&#45;&gt;Node8</title>
<g id="a_edge7_Node000005_Node000008"><a xlink:title=" ">
<path fill="none" stroke="#63b8ff" d="M182.28,-54.75C187.12,-47.42 194.18,-36.73 200.14,-27.7"/>
<polygon fill="#63b8ff" stroke="#63b8ff" points="203.24,-29.36 205.83,-19.09 197.4,-25.5 203.24,-29.36"/>
</a>
</g>
</g>
<!-- Node9 -->
<g id="Node000009" class="node">
<title>Node9</title>
<g id="a_Node000009"><a xlink:title=" ">
<polygon fill="#e0e0e0" stroke="#999999" points="309,-19 256,-19 256,0 309,0 309,-19"/>
<text text-anchor="middle" x="282.5" y="-7" font-family="Helvetica,sans-Serif" font-size="10.00">string.h</text>
</a>
</g>
</g>
<!-- Node5&#45;&gt;Node9 -->
<g id="edge8_Node000005_Node000009" class="edge">
<title>Node5&#45;&gt;Node9</title>
<g id="a_edge8_Node000005_Node000009"><a xlink:title=" ">
<path fill="none" stroke="#63b8ff" d="M193.53,-54.98C210.43,-46.54 236.56,-33.47 256.14,-23.68"/>
<polygon fill="#63b8ff" stroke="#63b8ff" points="257.78,-26.77 265.16,-19.17 254.65,-20.51 257.78,-26.77"/>
</a>
</g>
</g>
<!-- Node10&#45;&gt;Node4 -->
<g id="edge10_Node000010_Node000004" class="edge">
<title>Node10&#45;&gt;Node4</title>
<g id="a_edge10_Node000010_Node000004"><a xlink:title=" ">
<path fill="none" stroke="#63b8ff" d="M180.35,-109.99C163.61,-100.66 141.73,-88.47 125.11,-79.21"/>
<polygon fill="#63b8ff" stroke="#63b8ff" points="126.45,-75.95 116.01,-74.14 123.04,-82.06 126.45,-75.95"/>
</a>
</g>
</g>
<!-- Node10&#45;&gt;Node5 -->
<g id="edge12_Node000010_Node000005" class="edge">
<title>Node10&#45;&gt;Node5</title>
<g id="a_edge12_Node000010_Node000005"><a xlink:title=" ">
<path fill="none" stroke="#63b8ff" d="M198.48,-109.84C194.53,-101.87 189.56,-91.84 185.34,-83.33"/>
<polygon fill="#63b8ff" stroke="#63b8ff" points="188.42,-81.67 180.85,-74.27 182.15,-84.78 188.42,-81.67"/>
</a>
</g>
</g>
<!-- Node11 -->
<g id="Node000011" class="node">
<title>Node11</title>
<g id="a_Node000011"><a xlink:title=" ">
<polygon fill="#e0e0e0" stroke="#999999" points="271.5,-74 221.5,-74 221.5,-55 271.5,-55 271.5,-74"/>
<text text-anchor="middle" x="246.5" y="-62" font-family="Helvetica,sans-Serif" font-size="10.00">stdio.h</text>
</a>
</g>
</g>
<!-- Node10&#45;&gt;Node11 -->
<g id="edge11_Node000010_Node000011" class="edge">
<title>Node10&#45;&gt;Node11</title>
<g id="a_edge11_Node000010_Node000011"><a xlink:title=" ">
<path fill="none" stroke="#63b8ff" d="M215.42,-109.84C221.19,-101.61 228.5,-91.18 234.58,-82.51"/>
<polygon fill="#63b8ff" stroke="#63b8ff" points="237.48,-84.46 240.36,-74.27 231.75,-80.45 237.48,-84.46"/>
</a>
</g>
</g>
</g>
</svg>
