<?xml version="1.0" encoding="UTF-8" standalone="no"?>
<!DOCTYPE svg PUBLIC "-//W3C//DTD SVG 1.1//EN"
 "http://www.w3.org/Graphics/SVG/1.1/DTD/svg11.dtd">
<!-- Generated by graphviz version 2.43.0 (0)
 -->
<!-- Title: lamina::Polynomial::primitive_part Pages: 1 -->
<svg width="762pt" height="180pt"
 viewBox="0.00 0.00 762.00 179.50" xmlns="http://www.w3.org/2000/svg" xmlns:xlink="http://www.w3.org/1999/xlink">
<g id="graph0" class="graph" transform="scale(1 1) rotate(0) translate(4 175.5)">
<title>lamina::Polynomial::primitive_part</title>
<!-- Node1 -->
<g id="Node000001" class="node">
<title>Node1</title>
<g id="a_Node000001"><a xlink:title="计算多项式的本原部分（除以容度）">
<polygon fill="#999999" stroke="#666666" points="111,-73 0,-73 0,-43 111,-43 111,-73"/>
<text text-anchor="start" x="8" y="-61" font-family="Helvetica,sans-Serif" font-size="10.00">lamina::Polynomial</text>
<text text-anchor="middle" x="55.5" y="-50" font-family="Helvetica,sans-Serif" font-size="10.00">::primitive_part</text>
</a>
</g>
</g>
<!-- Node2 -->
<g id="Node000002" class="node">
<title>Node2</title>
<g id="a_Node000002"><a xlink:href="../../d8/d1e/classlamina_1_1Polynomial.html#aeea5e02e02b3af76f80308582bfff121" target="_top" xlink:title="计算多项式的容度（所有系数的 GCD）">
<polygon fill="white" stroke="#666666" points="258,-116 147,-116 147,-86 258,-86 258,-116"/>
<text text-anchor="start" x="155" y="-104" font-family="Helvetica,sans-Serif" font-size="10.00">lamina::Polynomial</text>
<text text-anchor="middle" x="202.5" y="-93" font-family="Helvetica,sans-Serif" font-size="10.00">::content</text>
</a>
</g>
</g>
<!-- Node1&#45;&gt;Node2 -->
<g id="edge1_Node000001_Node000002" class="edge">
<title>Node1&#45;&gt;Node2</title>
<g id="a_edge1_Node000001_Node000002"><a xlink:title=" ">
<path fill="none" stroke="#63b8ff" d="M107.21,-73.04C118.08,-76.26 129.66,-79.7 140.86,-83.02"/>
<polygon fill="#63b8ff" stroke="#63b8ff" points="139.99,-86.41 150.57,-85.9 141.98,-79.7 139.99,-86.41"/>
</a>
</g>
</g>
<!-- Node11 -->
<g id="Node000011" class="node">
<title>Node11</title>
<g id="a_Node000011"><a xlink:href="../../d8/d1e/classlamina_1_1Polynomial.html#a5ab9f08024d7084b47a746f72ba9f850" target="_top" xlink:title="判断是否为零多项式">
<polygon fill="white" stroke="#666666" points="405,-73 294,-73 294,-43 405,-43 405,-73"/>
<text text-anchor="start" x="302" y="-61" font-family="Helvetica,sans-Serif" font-size="10.00">lamina::Polynomial</text>
<text text-anchor="middle" x="349.5" y="-50" font-family="Helvetica,sans-Serif" font-size="10.00">::is_zero</text>
</a>
</g>
</g>
<!-- Node1&#45;&gt;Node11 -->
<g id="edge11_Node000001_Node000011" class="edge">
<title>Node1&#45;&gt;Node11</title>
<g id="a_edge11_Node000001_Node000011"><a xlink:title=" ">
<path fill="none" stroke="#63b8ff" d="M111.08,-58C159.98,-58 231.78,-58 283.61,-58"/>
<polygon fill="#63b8ff" stroke="#63b8ff" points="283.69,-61.5 293.69,-58 283.69,-54.5 283.69,-61.5"/>
</a>
</g>
</g>
<!-- Node12 -->
<g id="Node000012" class="node">
<title>Node12</title>
<g id="a_Node000012"><a xlink:href="../../d8/d1e/classlamina_1_1Polynomial.html#ae491492c9a43d1dee5f86b4adf803cfa" target="_top" xlink:title="获取首项系数">
<polygon fill="white" stroke="#666666" points="258,-30 147,-30 147,0 258,0 258,-30"/>
<text text-anchor="start" x="155" y="-18" font-family="Helvetica,sans-Serif" font-size="10.00">lamina::Polynomial</text>
<text text-anchor="middle" x="202.5" y="-7" font-family="Helvetica,sans-Serif" font-size="10.00">::lead_coeff</text>
</a>
</g>
</g>
<!-- Node1&#45;&gt;Node12 -->
<g id="edge12_Node000001_Node000012" class="edge">
<title>Node1&#45;&gt;Node12</title>
<g id="a_edge12_Node000001_Node000012"><a xlink:title=" ">
<path fill="none" stroke="#63b8ff" d="M107.21,-42.96C118.08,-39.74 129.66,-36.3 140.86,-32.98"/>
<polygon fill="#63b8ff" stroke="#63b8ff" points="141.98,-36.3 150.57,-30.1 139.99,-29.59 141.98,-36.3"/>
</a>
</g>
</g>
<!-- Node3 -->
<g id="Node000003" class="node">
<title>Node3</title>
<g id="a_Node000003"><a xlink:href="../../d8/d1e/classlamina_1_1Polynomial.html#ab66e92f97e1c25c6f0b78648c1168d75" target="_top" xlink:title="计算两个系数的 GCD（静态方法）">
<polygon fill="white" stroke="#666666" points="405,-121 294,-121 294,-91 405,-91 405,-121"/>
<text text-anchor="start" x="302" y="-109" font-family="Helvetica,sans-Serif" font-size="10.00">lamina::Polynomial</text>
<text text-anchor="middle" x="349.5" y="-98" font-family="Helvetica,sans-Serif" font-size="10.00">::gcd_coeff</text>
</a>
</g>
</g>
<!-- Node2&#45;&gt;Node3 -->
<g id="edge2_Node000002_Node000003" class="edge">
<title>Node2&#45;&gt;Node3</title>
<g id="a_edge2_Node000002_Node000003"><a xlink:title=" ">
<path fill="none" stroke="#63b8ff" d="M258.32,-102.89C266.53,-103.17 275.06,-103.47 283.46,-103.76"/>
<polygon fill="#63b8ff" stroke="#63b8ff" points="283.49,-107.26 293.6,-104.11 283.73,-100.26 283.49,-107.26"/>
</a>
</g>
</g>
<!-- Node2&#45;&gt;Node11 -->
<g id="edge10_Node000002_Node000011" class="edge">
<title>Node2&#45;&gt;Node11</title>
<g id="a_edge10_Node000002_Node000011"><a xlink:title=" ">
<path fill="none" stroke="#63b8ff" d="M254.21,-85.96C265.08,-82.74 276.66,-79.3 287.86,-75.98"/>
<polygon fill="#63b8ff" stroke="#63b8ff" points="288.98,-79.3 297.57,-73.1 286.99,-72.59 288.98,-79.3"/>
</a>
</g>
</g>
<!-- Node4 -->
<g id="Node000004" class="node">
<title>Node4</title>
<g id="a_Node000004"><a xlink:href="../../da/d5b/classBigInt.html#a4804d5bec19a3d92f9c34713c83ef7e1" target="_top" xlink:title="计算最大公约数">
<polygon fill="white" stroke="#666666" points="509,-115.5 441,-115.5 441,-96.5 509,-96.5 509,-115.5"/>
<text text-anchor="middle" x="475" y="-103.5" font-family="Helvetica,sans-Serif" font-size="10.00">BigInt::gcd</text>
</a>
</g>
</g>
<!-- Node3&#45;&gt;Node4 -->
<g id="edge3_Node000003_Node000004" class="edge">
<title>Node3&#45;&gt;Node4</title>
<g id="a_edge3_Node000003_Node000004"><a xlink:title=" ">
<path fill="none" stroke="#63b8ff" d="M405.03,-106C413.57,-106 422.3,-106 430.55,-106"/>
<polygon fill="#63b8ff" stroke="#63b8ff" points="430.69,-109.5 440.69,-106 430.69,-102.5 430.69,-109.5"/>
</a>
</g>
</g>
<!-- Node5 -->
<g id="Node000005" class="node">
<title>Node5</title>
<g id="a_Node000005"><a xlink:href="../../da/d5b/classBigInt.html#a4bff1a207fd14cd96badb54d0a470c1a" target="_top" xlink:title="取绝对值">
<polygon fill="white" stroke="#666666" points="629.5,-171.5 560.5,-171.5 560.5,-152.5 629.5,-152.5 629.5,-171.5"/>
<text text-anchor="middle" x="595" y="-159.5" font-family="Helvetica,sans-Serif" font-size="10.00">BigInt::Abs</text>
</a>
</g>
</g>
<!-- Node4&#45;&gt;Node5 -->
<g id="edge4_Node000004_Node000005" class="edge">
<title>Node4&#45;&gt;Node5</title>
<g id="a_edge4_Node000004_Node000005"><a xlink:title=" ">
<path fill="none" stroke="#63b8ff" d="M491.82,-115.61C505.58,-123.75 526.21,-135.43 545,-144 548.61,-145.64 552.41,-147.25 556.24,-148.79"/>
<polygon fill="#63b8ff" stroke="#63b8ff" points="555.13,-152.11 565.72,-152.44 557.65,-145.58 555.13,-152.11"/>
</a>
</g>
</g>
<!-- Node6 -->
<g id="Node000006" class="node">
<title>Node6</title>
<g id="a_Node000006"><a xlink:href="../../da/d5b/classBigInt.html#a6ae37e804e0989cb245f32f90a2d5f64" target="_top" xlink:title="判断是否为零">
<polygon fill="white" stroke="#666666" points="638,-134.5 552,-134.5 552,-115.5 638,-115.5 638,-134.5"/>
<text text-anchor="middle" x="595" y="-122.5" font-family="Helvetica,sans-Serif" font-size="10.00">BigInt::is_zero</text>
</a>
</g>
</g>
<!-- Node4&#45;&gt;Node6 -->
<g id="edge5_Node000004_Node000006" class="edge">
<title>Node4&#45;&gt;Node6</title>
<g id="a_edge5_Node000004_Node000006"><a xlink:title=" ">
<path fill="none" stroke="#63b8ff" d="M509.18,-111.34C519.31,-112.97 530.7,-114.81 541.76,-116.59"/>
<polygon fill="#63b8ff" stroke="#63b8ff" points="541.36,-120.07 551.79,-118.2 542.47,-113.16 541.36,-120.07"/>
</a>
</g>
</g>
<!-- Node7 -->
<g id="Node000007" class="node">
<title>Node7</title>
<g id="a_Node000007"><a xlink:href="../../da/d5b/classBigInt.html#a3b10bb8ac846314c6e4ad6167e5ec5bf" target="_top" xlink:title=" ">
<polygon fill="white" stroke="#666666" points="645,-97.5 545,-97.5 545,-78.5 645,-78.5 645,-97.5"/>
<text text-anchor="middle" x="595" y="-85.5" font-family="Helvetica,sans-Serif" font-size="10.00">BigInt::normalize</text>
</a>
</g>
</g>
<!-- Node4&#45;&gt;Node7 -->
<g id="edge6_Node000004_Node000007" class="edge">
<title>Node4&#45;&gt;Node7</title>
<g id="a_edge6_Node000004_Node000007"><a xlink:title=" ">
<path fill="none" stroke="#63b8ff" d="M509.18,-100.94C517.21,-99.71 526.02,-98.37 534.85,-97.02"/>
<polygon fill="#63b8ff" stroke="#63b8ff" points="535.41,-100.48 544.77,-95.51 534.35,-93.56 535.41,-100.48"/>
</a>
</g>
</g>
<!-- Node8 -->
<g id="Node000008" class="node">
<title>Node8</title>
<g id="a_Node000008"><a xlink:href="../../da/d5b/classBigInt.html#ad0b220e3ad54190c7cc069355f8d134d" target="_top" xlink:title=" ">
<polygon fill="white" stroke="#666666" points="644.5,-60.5 545.5,-60.5 545.5,-41.5 644.5,-41.5 644.5,-60.5"/>
<text text-anchor="middle" x="595" y="-48.5" font-family="Helvetica,sans-Serif" font-size="10.00">BigInt::realloc_to</text>
</a>
</g>
</g>
<!-- Node4&#45;&gt;Node8 -->
<g id="edge7_Node000004_Node000008" class="edge">
<title>Node4&#45;&gt;Node8</title>
<g id="a_edge7_Node000004_Node000008"><a xlink:title=" ">
<path fill="none" stroke="#63b8ff" d="M492.4,-96.36C506.18,-88.47 526.52,-77.3 545,-69 548.66,-67.36 552.52,-65.74 556.41,-64.2"/>
<polygon fill="#63b8ff" stroke="#63b8ff" points="557.92,-67.37 566,-60.52 555.41,-60.83 557.92,-67.37"/>
</a>
</g>
</g>
<!-- Node9 -->
<g id="Node000009" class="node">
<title>Node9</title>
<g id="a_Node000009"><a xlink:href="../../d8/d09/bigint_8hpp.html#a9026e394fc1db1b74fe5802cac9d3793" target="_top" xlink:title="为 BigInt 分配内存">
<polygon fill="white" stroke="#666666" points="754,-79.5 681,-79.5 681,-60.5 754,-60.5 754,-79.5"/>
<text text-anchor="middle" x="717.5" y="-67.5" font-family="Helvetica,sans-Serif" font-size="10.00">bigint_alloc</text>
</a>
</g>
</g>
<!-- Node8&#45;&gt;Node9 -->
<g id="edge8_Node000008_Node000009" class="edge">
<title>Node8&#45;&gt;Node9</title>
<g id="a_edge8_Node000008_Node000009"><a xlink:title=" ">
<path fill="none" stroke="#63b8ff" d="M644.66,-58.67C653.4,-60.05 662.47,-61.48 671.1,-62.84"/>
<polygon fill="#63b8ff" stroke="#63b8ff" points="670.57,-66.3 680.99,-64.4 671.66,-59.39 670.57,-66.3"/>
</a>
</g>
</g>
<!-- Node10 -->
<g id="Node000010" class="node">
<title>Node10</title>
<g id="a_Node000010"><a xlink:href="../../d8/d09/bigint_8hpp.html#a6fd664dfe6c832ce148d818c5663fa93" target="_top" xlink:title="释放 BigInt 内部分配的内存">
<polygon fill="white" stroke="#666666" points="752,-42.5 683,-42.5 683,-23.5 752,-23.5 752,-42.5"/>
<text text-anchor="middle" x="717.5" y="-30.5" font-family="Helvetica,sans-Serif" font-size="10.00">bigint_free</text>
</a>
</g>
</g>
<!-- Node8&#45;&gt;Node10 -->
<g id="edge9_Node000008_Node000010" class="edge">
<title>Node8&#45;&gt;Node10</title>
<g id="a_edge9_Node000008_Node000010"><a xlink:title=" ">
<path fill="none" stroke="#63b8ff" d="M644.66,-43.73C653.97,-42.34 663.65,-40.89 672.79,-39.53"/>
<polygon fill="#63b8ff" stroke="#63b8ff" points="673.44,-42.97 682.82,-38.03 672.41,-36.05 673.44,-42.97"/>
</a>
</g>
</g>
</g>
</svg>
