<?xml version="1.0" encoding="UTF-8" standalone="no"?>
<!DOCTYPE svg PUBLIC "-//W3C//DTD SVG 1.1//EN"
 "http://www.w3.org/Graphics/SVG/1.1/DTD/svg11.dtd">
<!-- Generated by graphviz version 2.43.0 (0)
 -->
<!-- Title: lamina::Polynomial::differentiate Pages: 1 -->
<svg width="2069pt" height="440pt"
 viewBox="0.00 0.00 2069.00 439.70" xmlns="http://www.w3.org/2000/svg" xmlns:xlink="http://www.w3.org/1999/xlink">
<g id="graph0" class="graph" transform="scale(1 1) rotate(0) translate(4 435.7)">
<title>lamina::Polynomial::differentiate</title>
<!-- Node1 -->
<g id="Node000001" class="node">
<title>Node1</title>
<g id="a_Node000001"><a xlink:title="求导">
<polygon fill="#999999" stroke="#666666" points="2061,-146.7 1950,-146.7 1950,-116.7 2061,-116.7 2061,-146.7"/>
<text text-anchor="start" x="1958" y="-134.7" font-family="Helvetica,sans-Serif" font-size="10.00">lamina::Polynomial</text>
<text text-anchor="middle" x="2005.5" y="-123.7" font-family="Helvetica,sans-Serif" font-size="10.00">::differentiate</text>
</a>
</g>
</g>
<!-- Node2 -->
<g id="Node000002" class="node">
<title>Node2</title>
<g id="a_Node000002"><a xlink:href="../../d1/d42/namespacelamina.html#ab899f5f3cc2b2bca335829a5880f3028" target="_top" xlink:title="使用 Sturm 序列隔离有理系数多项式的所有实根。">
<polygon fill="white" stroke="#666666" points="1735.5,-125.7 1622.5,-125.7 1622.5,-95.7 1735.5,-95.7 1735.5,-125.7"/>
<text text-anchor="start" x="1630.5" y="-113.7" font-family="Helvetica,sans-Serif" font-size="10.00">lamina::isolate_real</text>
<text text-anchor="middle" x="1679" y="-102.7" font-family="Helvetica,sans-Serif" font-size="10.00">_roots</text>
</a>
</g>
</g>
<!-- Node1&#45;&gt;Node2 -->
<g id="edge1_Node000001_Node000002" class="edge">
<title>Node1&#45;&gt;Node2</title>
<g id="a_edge1_Node000001_Node000002"><a xlink:title=" ">
<path fill="none" stroke="#63b8ff" d="M1939.84,-134.1C1931.15,-134.35 1922.36,-134.56 1914,-134.7 1863.34,-135.54 1850.42,-139.69 1800,-134.7 1778.75,-132.59 1755.69,-128.44 1735.52,-124.18"/>
<polygon fill="#63b8ff" stroke="#63b8ff" points="1940.06,-137.6 1949.95,-133.8 1939.85,-130.6 1940.06,-137.6"/>
</a>
</g>
</g>
<!-- Node4 -->
<g id="Node000004" class="node">
<title>Node4</title>
<g id="a_Node000004"><a xlink:href="../../d1/d42/namespacelamina.html#abbdca2540c3361426ba47c5c576de22e" target="_top" xlink:title="对表达式进行数值求根，综合使用 Newton&#45;Raphson 和根隔离方法。">
<polygon fill="white" stroke="#666666" points="1537,-80.2 1409,-80.2 1409,-61.2 1537,-61.2 1537,-80.2"/>
<text text-anchor="middle" x="1473" y="-68.2" font-family="Helvetica,sans-Serif" font-size="10.00">lamina::solve_numeric</text>
</a>
</g>
</g>
<!-- Node1&#45;&gt;Node4 -->
<g id="edge32_Node000001_Node000004" class="edge">
<title>Node1&#45;&gt;Node4</title>
<g id="a_edge32_Node000001_Node000004"><a xlink:title=" ">
<path fill="none" stroke="#63b8ff" d="M1972.21,-111.44C1955.5,-102.06 1934.38,-91.88 1914,-86.7 1783.24,-53.46 1623.63,-58.45 1537.11,-64.75"/>
<polygon fill="#63b8ff" stroke="#63b8ff" points="1970.6,-114.55 1981.01,-116.53 1974.11,-108.49 1970.6,-114.55"/>
</a>
</g>
</g>
<!-- Node27 -->
<g id="Node000027" class="node">
<title>Node27</title>
<g id="a_Node000027"><a xlink:href="../../d1/d42/namespacelamina.html#a6ab28ceae33b0d162cb86d9c0b2dbca3" target="_top" xlink:title="对有理系数多项式进行无平方因子分解。">
<polygon fill="white" stroke="#666666" points="1914,-213.7 1800,-213.7 1800,-183.7 1914,-183.7 1914,-213.7"/>
<text text-anchor="start" x="1808" y="-201.7" font-family="Helvetica,sans-Serif" font-size="10.00">lamina::square_free</text>
<text text-anchor="middle" x="1857" y="-190.7" font-family="Helvetica,sans-Serif" font-size="10.00">_factorization</text>
</a>
</g>
</g>
<!-- Node1&#45;&gt;Node27 -->
<g id="edge33_Node000001_Node000027" class="edge">
<title>Node1&#45;&gt;Node27</title>
<g id="a_edge33_Node000001_Node000027"><a xlink:title=" ">
<path fill="none" stroke="#63b8ff" d="M1962.24,-151.02C1939.59,-161.38 1912.09,-173.96 1891.02,-183.6"/>
<polygon fill="#63b8ff" stroke="#63b8ff" points="1963.98,-154.08 1971.62,-146.73 1961.07,-147.71 1963.98,-154.08"/>
</a>
</g>
</g>
<!-- Node37 -->
<g id="Node000037" class="node">
<title>Node37</title>
<g id="a_Node000037"><a xlink:href="../../d8/d1e/classlamina_1_1Polynomial.html#a87554165ccc298dde6bf4074e2831a40" target="_top" xlink:title="计算无平方因子部分">
<polygon fill="white" stroke="#666666" points="1912.5,-125.7 1801.5,-125.7 1801.5,-95.7 1912.5,-95.7 1912.5,-125.7"/>
<text text-anchor="start" x="1809.5" y="-113.7" font-family="Helvetica,sans-Serif" font-size="10.00">lamina::Polynomial</text>
<text text-anchor="middle" x="1857" y="-102.7" font-family="Helvetica,sans-Serif" font-size="10.00">::square_free_part</text>
</a>
</g>
</g>
<!-- Node1&#45;&gt;Node37 -->
<g id="edge47_Node000001_Node000037" class="edge">
<title>Node1&#45;&gt;Node37</title>
<g id="a_edge47_Node000001_Node000037"><a xlink:title=" ">
<path fill="none" stroke="#63b8ff" d="M1939.8,-122.42C1930.72,-121.12 1921.46,-119.8 1912.6,-118.52"/>
<polygon fill="#63b8ff" stroke="#63b8ff" points="1939.55,-125.92 1949.95,-123.88 1940.55,-118.99 1939.55,-125.92"/>
</a>
</g>
</g>
<!-- Node3 -->
<g id="Node000003" class="node">
<title>Node3</title>
<g id="a_Node000003"><a xlink:href="../../d1/d42/namespacelamina.html#a10daf588534457a16bd924eecd6dadf9" target="_top" xlink:title="对 RootOf 表达式进行数值求值。">
<polygon fill="white" stroke="#666666" points="1540,-117.2 1406,-117.2 1406,-98.2 1540,-98.2 1540,-117.2"/>
<text text-anchor="middle" x="1473" y="-105.2" font-family="Helvetica,sans-Serif" font-size="10.00">lamina::rootof_evaluate</text>
</a>
</g>
</g>
<!-- Node2&#45;&gt;Node3 -->
<g id="edge2_Node000002_Node000003" class="edge">
<title>Node2&#45;&gt;Node3</title>
<g id="a_edge2_Node000002_Node000003"><a xlink:title=" ">
<path fill="none" stroke="#63b8ff" d="M1612.22,-109.73C1589.17,-109.39 1563.27,-109.01 1540.18,-108.67"/>
<polygon fill="#63b8ff" stroke="#63b8ff" points="1612.21,-113.23 1622.26,-109.88 1612.31,-106.23 1612.21,-113.23"/>
</a>
</g>
</g>
<!-- Node2&#45;&gt;Node4 -->
<g id="edge3_Node000002_Node000004" class="edge">
<title>Node2&#45;&gt;Node4</title>
<g id="a_edge3_Node000002_Node000004"><a xlink:title=" ">
<path fill="none" stroke="#63b8ff" d="M1612.18,-97.79C1583.1,-92.09 1549.51,-85.5 1522.73,-80.25"/>
<polygon fill="#63b8ff" stroke="#63b8ff" points="1611.77,-101.28 1622.26,-99.77 1613.12,-94.41 1611.77,-101.28"/>
</a>
</g>
</g>
<!-- Node5 -->
<g id="Node000005" class="node">
<title>Node5</title>
<g id="a_Node000005"><a xlink:href="../../d1/d42/namespacelamina.html#a06e924d67656611208ba81ad13fbee8d" target="_top" xlink:title="方程求解策略调度器，根据表达式类型选择合适的求解方法。">
<polygon fill="white" stroke="#666666" points="1337.5,-139.2 1208.5,-139.2 1208.5,-120.2 1337.5,-120.2 1337.5,-139.2"/>
<text text-anchor="middle" x="1273" y="-127.2" font-family="Helvetica,sans-Serif" font-size="10.00">lamina::solve_dispatch</text>
</a>
</g>
</g>
<!-- Node4&#45;&gt;Node5 -->
<g id="edge4_Node000004_Node000005" class="edge">
<title>Node4&#45;&gt;Node5</title>
<g id="a_edge4_Node000004_Node000005"><a xlink:title=" ">
<path fill="none" stroke="#63b8ff" d="M1415.6,-82.52C1406.33,-84.73 1396.86,-87.15 1388,-89.7 1356.75,-98.68 1321.55,-111.45 1298.64,-120.13"/>
<polygon fill="#63b8ff" stroke="#63b8ff" points="1416.6,-85.88 1425.54,-80.2 1415.01,-79.06 1416.6,-85.88"/>
</a>
</g>
</g>
<!-- Node6 -->
<g id="Node000006" class="node">
<title>Node6</title>
<g id="a_Node000006"><a xlink:href="../../dc/d25/classSymbolicExpr.html#a8e2b693429c55311a664ed0306bc9b2e" target="_top" xlink:title="求解方程，返回指定变量的所有解。">
<polygon fill="white" stroke="#666666" points="1135.5,-169.2 1019.5,-169.2 1019.5,-150.2 1135.5,-150.2 1135.5,-169.2"/>
<text text-anchor="middle" x="1077.5" y="-157.2" font-family="Helvetica,sans-Serif" font-size="10.00">SymbolicExpr::solve</text>
</a>
</g>
</g>
<!-- Node5&#45;&gt;Node6 -->
<g id="edge5_Node000005_Node000006" class="edge">
<title>Node5&#45;&gt;Node6</title>
<g id="a_edge5_Node000005_Node000006"><a xlink:title=" ">
<path fill="none" stroke="#63b8ff" d="M1200.49,-140.78C1179.08,-144.1 1155.9,-147.7 1135.56,-150.85"/>
<polygon fill="#63b8ff" stroke="#63b8ff" points="1201.16,-144.22 1210.51,-139.23 1200.09,-137.3 1201.16,-144.22"/>
</a>
</g>
</g>
<!-- Node7 -->
<g id="Node000007" class="node">
<title>Node7</title>
<g id="a_Node000007"><a xlink:href="../../dc/d25/classSymbolicExpr.html#a83879d764986be80edbedc769b96224a" target="_top" xlink:title="计算矩阵的特征值。">
<polygon fill="white" stroke="#666666" points="337,-292.2 188,-292.2 188,-273.2 337,-273.2 337,-292.2"/>
<text text-anchor="middle" x="262.5" y="-280.2" font-family="Helvetica,sans-Serif" font-size="10.00">SymbolicExpr::eigenvalues</text>
</a>
</g>
</g>
<!-- Node6&#45;&gt;Node7 -->
<g id="edge6_Node000006_Node000007" class="edge">
<title>Node6&#45;&gt;Node7</title>
<g id="a_edge6_Node000006_Node000007"><a xlink:title=" ">
<path fill="none" stroke="#63b8ff" d="M1051.35,-174.43C1028.36,-187.49 993.15,-206.48 961,-219.7 873.63,-255.61 851.4,-268.54 758,-282.7 610.1,-305.12 434.43,-297.02 337.33,-289.56"/>
<polygon fill="#63b8ff" stroke="#63b8ff" points="1053.18,-177.41 1060.11,-169.4 1049.7,-171.34 1053.18,-177.41"/>
</a>
</g>
</g>
<!-- Node9 -->
<g id="Node000009" class="node">
<title>Node9</title>
<g id="a_Node000009"><a xlink:href="../../dc/d25/classSymbolicExpr.html#a884244959506063b172228ad99ab0730" target="_top" xlink:title="对表达式进行因式分解。">
<polygon fill="white" stroke="#666666" points="936.5,-210.2 818.5,-210.2 818.5,-191.2 936.5,-191.2 936.5,-210.2"/>
<text text-anchor="middle" x="877.5" y="-198.2" font-family="Helvetica,sans-Serif" font-size="10.00">SymbolicExpr::factor</text>
</a>
</g>
</g>
<!-- Node6&#45;&gt;Node9 -->
<g id="edge8_Node000006_Node000009" class="edge">
<title>Node6&#45;&gt;Node9</title>
<g id="a_edge8_Node000006_Node000009"><a xlink:title=" ">
<path fill="none" stroke="#63b8ff" d="M1020.57,-171.28C990.22,-177.56 953.17,-185.24 924.52,-191.17"/>
<polygon fill="#63b8ff" stroke="#63b8ff" points="1021.49,-174.66 1030.58,-169.21 1020.08,-167.81 1021.49,-174.66"/>
</a>
</g>
</g>
<!-- Node17 -->
<g id="Node000017" class="node">
<title>Node17</title>
<g id="a_Node000017"><a xlink:href="../../d1/d42/namespacelamina.html#a334f8d9c2923abbed11b2e4729c2b057" target="_top" xlink:title=" ">
<polygon fill="white" stroke="#666666" points="957,-93.2 798,-93.2 798,-74.2 957,-74.2 957,-93.2"/>
<text text-anchor="middle" x="877.5" y="-81.2" font-family="Helvetica,sans-Serif" font-size="10.00">lamina::invert_substitution_h</text>
</a>
</g>
</g>
<!-- Node6&#45;&gt;Node17 -->
<g id="edge18_Node000006_Node000017" class="edge">
<title>Node6&#45;&gt;Node17</title>
<g id="a_edge18_Node000006_Node000017"><a xlink:title=" ">
<path fill="none" stroke="#63b8ff" d="M1048.01,-145.52C1024.91,-134.36 991.33,-118.88 961,-107.7 946.3,-102.28 929.78,-97.27 915.41,-93.24"/>
<polygon fill="#63b8ff" stroke="#63b8ff" points="1046.71,-148.78 1057.23,-150.02 1049.77,-142.49 1046.71,-148.78"/>
</a>
</g>
</g>
<!-- Node18 -->
<g id="Node000018" class="node">
<title>Node18</title>
<g id="a_Node000018"><a xlink:href="../../d1/d42/namespacelamina.html#a12ae4dd3753dfea8b5e9d84b3c748855" target="_top" xlink:title=" ">
<polygon fill="white" stroke="#666666" points="758,-93.2 570,-93.2 570,-74.2 758,-74.2 758,-93.2"/>
<text text-anchor="middle" x="664" y="-81.2" font-family="Helvetica,sans-Serif" font-size="10.00">lamina::solve_transcendental_impl</text>
</a>
</g>
</g>
<!-- Node6&#45;&gt;Node18 -->
<g id="edge30_Node000006_Node000018" class="edge">
<title>Node6&#45;&gt;Node18</title>
<g id="a_edge30_Node000006_Node000018"><a xlink:title=" ">
<path fill="none" stroke="#63b8ff" d="M1014.72,-148.29C933.48,-133.28 792.23,-107.2 716.49,-93.21"/>
<polygon fill="#63b8ff" stroke="#63b8ff" points="1014.33,-151.77 1024.8,-150.15 1015.6,-144.89 1014.33,-151.77"/>
</a>
</g>
</g>
<!-- Node19 -->
<g id="Node000019" class="node">
<title>Node19</title>
<g id="a_Node000019"><a xlink:href="../../d1/d42/namespacelamina.html#a704f26202e00de52ae9b961bc527a9ff" target="_top" xlink:title=" ">
<polygon fill="white" stroke="#666666" points="510,-98.7 397,-98.7 397,-68.7 510,-68.7 510,-98.7"/>
<text text-anchor="start" x="405" y="-86.7" font-family="Helvetica,sans-Serif" font-size="10.00">lamina::solve_inner</text>
<text text-anchor="middle" x="453.5" y="-75.7" font-family="Helvetica,sans-Serif" font-size="10.00">_equation</text>
</a>
</g>
</g>
<!-- Node6&#45;&gt;Node19 -->
<g id="edge24_Node000006_Node000019" class="edge">
<title>Node6&#45;&gt;Node19</title>
<g id="a_edge24_Node000006_Node000019"><a xlink:title=" ">
<path fill="none" stroke="#63b8ff" d="M1009.28,-155.54C951.96,-151.68 867.43,-145.25 794,-136.7 693.98,-125.05 669.46,-118.43 570,-102.7 550.53,-99.62 529.23,-96.15 510.29,-93.02"/>
<polygon fill="#63b8ff" stroke="#63b8ff" points="1009.09,-159.04 1019.3,-156.21 1009.56,-152.05 1009.09,-159.04"/>
</a>
</g>
</g>
<!-- Node21 -->
<g id="Node000021" class="node">
<title>Node21</title>
<g id="a_Node000021"><a xlink:href="../../d6/da9/classlamina_1_1ParametricSolver.html#a41d42755b42e64784e9bc7c7f6f5715f" target="_top" xlink:title="求解关于未知数为多项式的含参方程组">
<polygon fill="white" stroke="#666666" points="961,-407.7 794,-407.7 794,-377.7 961,-377.7 961,-407.7"/>
<text text-anchor="start" x="802" y="-395.7" font-family="Helvetica,sans-Serif" font-size="10.00">lamina::ParametricSolver</text>
<text text-anchor="middle" x="877.5" y="-384.7" font-family="Helvetica,sans-Serif" font-size="10.00">::solve_polynomial_parametric</text>
</a>
</g>
</g>
<!-- Node6&#45;&gt;Node21 -->
<g id="edge25_Node000006_Node000021" class="edge">
<title>Node6&#45;&gt;Node21</title>
<g id="a_edge25_Node000006_Node000021"><a xlink:title=" ">
<path fill="none" stroke="#63b8ff" d="M1040.62,-173.62C1025.01,-181.41 1007.84,-192.63 997,-207.7 954.17,-267.21 1011.19,-315.24 961,-368.7 957.84,-372.07 954.23,-374.98 950.33,-377.48"/>
<polygon fill="#63b8ff" stroke="#63b8ff" points="1042.48,-176.61 1050.06,-169.21 1039.52,-170.27 1042.48,-176.61"/>
</a>
</g>
</g>
<!-- Node25 -->
<g id="Node000025" class="node">
<title>Node25</title>
<g id="a_Node000025"><a xlink:href="../../d5/d6f/classlamina_1_1Solver.html#a622812464260dd689d26a7f66ae99633" target="_top" xlink:title="求解多项式方程组，返回所有解。">
<polygon fill="white" stroke="#666666" points="937,-55.7 818,-55.7 818,-25.7 937,-25.7 937,-55.7"/>
<text text-anchor="start" x="826" y="-43.7" font-family="Helvetica,sans-Serif" font-size="10.00">lamina::Solver::solve</text>
<text text-anchor="middle" x="877.5" y="-32.7" font-family="Helvetica,sans-Serif" font-size="10.00">_polynomial_system</text>
</a>
</g>
</g>
<!-- Node6&#45;&gt;Node25 -->
<g id="edge29_Node000006_Node000025" class="edge">
<title>Node6&#45;&gt;Node25</title>
<g id="a_edge29_Node000006_Node000025"><a xlink:title=" ">
<path fill="none" stroke="#63b8ff" d="M1060.44,-142.79C1039.46,-121.64 1000.7,-85.66 961,-64.7 953.61,-60.8 945.51,-57.46 937.36,-54.61"/>
<polygon fill="#63b8ff" stroke="#63b8ff" points="1058.09,-145.4 1067.58,-150.11 1063.1,-140.51 1058.09,-145.4"/>
</a>
</g>
</g>
<!-- Node26 -->
<g id="Node000026" class="node">
<title>Node26</title>
<g id="a_Node000026"><a xlink:href="../../d1/d42/namespacelamina.html#a14b812ff63e0f874b8f45b9d6c746195" target="_top" xlink:title="Solve an equation with assumption&#45;based domain filtering.">
<polygon fill="white" stroke="#666666" points="932,-359.7 823,-359.7 823,-329.7 932,-329.7 932,-359.7"/>
<text text-anchor="start" x="831" y="-347.7" font-family="Helvetica,sans-Serif" font-size="10.00">lamina::solve_with</text>
<text text-anchor="middle" x="877.5" y="-336.7" font-family="Helvetica,sans-Serif" font-size="10.00">_assumptions</text>
</a>
</g>
</g>
<!-- Node6&#45;&gt;Node26 -->
<g id="edge31_Node000006_Node000026" class="edge">
<title>Node6&#45;&gt;Node26</title>
<g id="a_edge31_Node000006_Node000026"><a xlink:title=" ">
<path fill="none" stroke="#63b8ff" d="M1041.97,-173.8C1026.33,-181.72 1008.76,-193 997,-207.7 965.4,-247.21 996.48,-279.63 961,-315.7 953.12,-323.71 942.9,-329.51 932.36,-333.71"/>
<polygon fill="#63b8ff" stroke="#63b8ff" points="1043.87,-176.77 1051.38,-169.31 1040.85,-170.46 1043.87,-176.77"/>
</a>
</g>
</g>
<!-- Node8 -->
<g id="Node000008" class="node">
<title>Node8</title>
<g id="a_Node000008"><a xlink:href="../../dc/d25/classSymbolicExpr.html#a7777100ca36b7a1a7285ece2380dcf4b" target="_top" xlink:title="计算矩阵的特征向量。">
<polygon fill="white" stroke="#666666" points="152,-292.2 0,-292.2 0,-273.2 152,-273.2 152,-292.2"/>
<text text-anchor="middle" x="76" y="-280.2" font-family="Helvetica,sans-Serif" font-size="10.00">SymbolicExpr::eigenvectors</text>
</a>
</g>
</g>
<!-- Node7&#45;&gt;Node8 -->
<g id="edge7_Node000007_Node000008" class="edge">
<title>Node7&#45;&gt;Node8</title>
<g id="a_edge7_Node000007_Node000008"><a xlink:title=" ">
<path fill="none" stroke="#63b8ff" d="M177.52,-282.7C169.04,-282.7 160.48,-282.7 152.11,-282.7"/>
<polygon fill="#63b8ff" stroke="#63b8ff" points="177.79,-286.2 187.79,-282.7 177.79,-279.2 177.79,-286.2"/>
</a>
</g>
</g>
<!-- Node10 -->
<g id="Node000010" class="node">
<title>Node10</title>
<g id="a_Node000010"><a xlink:href="../../dc/d25/classSymbolicExpr.html#a3b4cc1669b1b117b15cc82783a22b4fc" target="_top" xlink:title="计算矩阵行列式。">
<polygon fill="white" stroke="#666666" points="738.5,-255.2 589.5,-255.2 589.5,-236.2 738.5,-236.2 738.5,-255.2"/>
<text text-anchor="middle" x="664" y="-243.2" font-family="Helvetica,sans-Serif" font-size="10.00">SymbolicExpr::determinant</text>
</a>
</g>
</g>
<!-- Node9&#45;&gt;Node10 -->
<g id="edge9_Node000009_Node000010" class="edge">
<title>Node9&#45;&gt;Node10</title>
<g id="a_edge9_Node000009_Node000010"><a xlink:title=" ">
<path fill="none" stroke="#63b8ff" d="M823.94,-212.4C803.39,-216.93 779.6,-222.12 758,-226.7 743.17,-229.84 726.99,-233.18 712.34,-236.16"/>
<polygon fill="#63b8ff" stroke="#63b8ff" points="824.74,-215.81 833.75,-210.23 823.23,-208.97 824.74,-215.81"/>
</a>
</g>
</g>
<!-- Node13 -->
<g id="Node000013" class="node">
<title>Node13</title>
<g id="a_Node000013"><a xlink:href="../../dc/d25/classSymbolicExpr.html#ae608271a617ef878c81d04375538537f" target="_top" xlink:title="计算两个多项式关于指定变量的结式。">
<polygon fill="white" stroke="#666666" points="719,-217.7 609,-217.7 609,-187.7 719,-187.7 719,-217.7"/>
<text text-anchor="start" x="617" y="-205.7" font-family="Helvetica,sans-Serif" font-size="10.00">SymbolicExpr::poly</text>
<text text-anchor="middle" x="664" y="-194.7" font-family="Helvetica,sans-Serif" font-size="10.00">_resultant</text>
</a>
</g>
</g>
<!-- Node9&#45;&gt;Node13 -->
<g id="edge14_Node000009_Node000013" class="edge">
<title>Node9&#45;&gt;Node13</title>
<g id="a_edge14_Node000009_Node000013"><a xlink:title=" ">
<path fill="none" stroke="#63b8ff" d="M808.42,-201.34C779.59,-201.61 746.46,-201.93 719.31,-202.18"/>
<polygon fill="#63b8ff" stroke="#63b8ff" points="808.46,-204.84 818.43,-201.25 808.39,-197.84 808.46,-204.84"/>
</a>
</g>
</g>
<!-- Node14 -->
<g id="Node000014" class="node">
<title>Node14</title>
<g id="a_Node000014"><a xlink:href="../../dc/d25/classSymbolicExpr.html#ae41c16b68c56de8d4c70a98c85722ff1" target="_top" xlink:title="计算矩阵的行最简阶梯形（RREF）。">
<polygon fill="white" stroke="#666666" points="717.5,-169.2 610.5,-169.2 610.5,-150.2 717.5,-150.2 717.5,-169.2"/>
<text text-anchor="middle" x="664" y="-157.2" font-family="Helvetica,sans-Serif" font-size="10.00">SymbolicExpr::rref</text>
</a>
</g>
</g>
<!-- Node9&#45;&gt;Node14 -->
<g id="edge15_Node000009_Node000014" class="edge">
<title>Node9&#45;&gt;Node14</title>
<g id="a_edge15_Node000009_Node000014"><a xlink:title=" ">
<path fill="none" stroke="#63b8ff" d="M817.6,-189.28C785.03,-182.97 745.03,-175.21 714.15,-169.23"/>
<polygon fill="#63b8ff" stroke="#63b8ff" points="816.96,-192.72 827.45,-191.19 818.29,-185.85 816.96,-192.72"/>
</a>
</g>
</g>
<!-- Node10&#45;&gt;Node10 -->
<g id="edge12_Node000010_Node000010" class="edge">
<title>Node10&#45;&gt;Node10</title>
<g id="a_edge12_Node000010_Node000010"><a xlink:title=" ">
<path fill="none" stroke="#63b8ff" d="M703.36,-262.51C703.95,-268.41 690.83,-273.2 664,-273.2 626.68,-273.2 615.89,-263.93 631.63,-255.28"/>
<polygon fill="#63b8ff" stroke="#63b8ff" points="705.84,-260.04 696.37,-255.28 700.8,-264.9 705.84,-260.04"/>
</a>
</g>
</g>
<!-- Node11 -->
<g id="Node000011" class="node">
<title>Node11</title>
<g id="a_Node000011"><a xlink:href="../../dc/d25/classSymbolicExpr.html#a6e8c5c20af88337d449cbf5771d5d28d" target="_top" xlink:title="计算矩阵的特征多项式。">
<polygon fill="white" stroke="#666666" points="519,-273.2 388,-273.2 388,-254.2 519,-254.2 519,-273.2"/>
<text text-anchor="middle" x="453.5" y="-261.2" font-family="Helvetica,sans-Serif" font-size="10.00">SymbolicExpr::charpoly</text>
</a>
</g>
</g>
<!-- Node10&#45;&gt;Node11 -->
<g id="edge10_Node000010_Node000011" class="edge">
<title>Node10&#45;&gt;Node11</title>
<g id="a_edge10_Node000010_Node000011"><a xlink:title=" ">
<path fill="none" stroke="#63b8ff" d="M579.4,-252.91C559.3,-254.65 538.12,-256.48 519.03,-258.13"/>
<polygon fill="#63b8ff" stroke="#63b8ff" points="579.83,-256.39 589.49,-252.04 579.23,-249.42 579.83,-256.39"/>
</a>
</g>
</g>
<!-- Node12 -->
<g id="Node000012" class="node">
<title>Node12</title>
<g id="a_Node000012"><a xlink:href="../../d1/d42/namespacelamina.html#a35783093777191a0254b7f3a2340e0f5" target="_top" xlink:title="计算符号矩阵的行列式">
<polygon fill="white" stroke="#666666" points="530.5,-236.2 376.5,-236.2 376.5,-217.2 530.5,-217.2 530.5,-236.2"/>
<text text-anchor="middle" x="453.5" y="-224.2" font-family="Helvetica,sans-Serif" font-size="10.00">lamina::matrix_determinant</text>
</a>
</g>
</g>
<!-- Node10&#45;&gt;Node12 -->
<g id="edge13_Node000010_Node000012" class="edge">
<title>Node10&#45;&gt;Node12</title>
<g id="a_edge13_Node000010_Node000012"><a xlink:title=" ">
<path fill="none" stroke="#63b8ff" d="M579.52,-238.09C563.33,-236.62 546.45,-235.08 530.52,-233.63"/>
<polygon fill="#63b8ff" stroke="#63b8ff" points="579.21,-241.58 589.49,-239 579.85,-234.61 579.21,-241.58"/>
</a>
</g>
</g>
<!-- Node11&#45;&gt;Node7 -->
<g id="edge11_Node000011_Node000007" class="edge">
<title>Node11&#45;&gt;Node7</title>
<g id="a_edge11_Node000011_Node000007"><a xlink:title=" ">
<path fill="none" stroke="#63b8ff" d="M377.87,-271.2C364.47,-272.55 350.52,-273.95 337.15,-275.29"/>
<polygon fill="#63b8ff" stroke="#63b8ff" points="378.39,-274.67 387.99,-270.18 377.69,-267.7 378.39,-274.67"/>
</a>
</g>
</g>
<!-- Node15 -->
<g id="Node000015" class="node">
<title>Node15</title>
<g id="a_Node000015"><a xlink:href="../../dc/d25/classSymbolicExpr.html#afa1c1c57bb6c77da5d016f69eaa60703" target="_top" xlink:title="计算矩阵的逆。">
<polygon fill="white" stroke="#666666" points="516,-169.2 391,-169.2 391,-150.2 516,-150.2 516,-169.2"/>
<text text-anchor="middle" x="453.5" y="-157.2" font-family="Helvetica,sans-Serif" font-size="10.00">SymbolicExpr::inverse</text>
</a>
</g>
</g>
<!-- Node14&#45;&gt;Node15 -->
<g id="edge16_Node000014_Node000015" class="edge">
<title>Node14&#45;&gt;Node15</title>
<g id="a_edge16_Node000014_Node000015"><a xlink:title=" ">
<path fill="none" stroke="#63b8ff" d="M600.07,-159.7C573.55,-159.7 542.77,-159.7 516.36,-159.7"/>
<polygon fill="#63b8ff" stroke="#63b8ff" points="600.39,-163.2 610.39,-159.7 600.39,-156.2 600.39,-163.2"/>
</a>
</g>
</g>
<!-- Node16 -->
<g id="Node000016" class="node">
<title>Node16</title>
<g id="a_Node000016"><a xlink:href="../../d1/d42/namespacelamina.html#a972455b000c18e71aefd4a84a5708edf" target="_top" xlink:title="计算符号矩阵的逆矩阵">
<polygon fill="white" stroke="#666666" points="327.5,-169.2 197.5,-169.2 197.5,-150.2 327.5,-150.2 327.5,-169.2"/>
<text text-anchor="middle" x="262.5" y="-157.2" font-family="Helvetica,sans-Serif" font-size="10.00">lamina::matrix_inverse</text>
</a>
</g>
</g>
<!-- Node15&#45;&gt;Node16 -->
<g id="edge17_Node000015_Node000016" class="edge">
<title>Node15&#45;&gt;Node16</title>
<g id="a_edge17_Node000015_Node000016"><a xlink:title=" ">
<path fill="none" stroke="#63b8ff" d="M380.74,-159.7C363.28,-159.7 344.72,-159.7 327.64,-159.7"/>
<polygon fill="#63b8ff" stroke="#63b8ff" points="380.88,-163.2 390.88,-159.7 380.88,-156.2 380.88,-163.2"/>
</a>
</g>
</g>
<!-- Node17&#45;&gt;Node18 -->
<g id="edge19_Node000017_Node000018" class="edge">
<title>Node17&#45;&gt;Node18</title>
<g id="a_edge19_Node000017_Node000018"><a xlink:title=" ">
<path fill="none" stroke="#63b8ff" d="M787.65,-83.7C777.89,-83.7 767.92,-83.7 758.1,-83.7"/>
<polygon fill="#63b8ff" stroke="#63b8ff" points="787.75,-87.2 797.75,-83.7 787.75,-80.2 787.75,-87.2"/>
</a>
</g>
</g>
<!-- Node18&#45;&gt;Node19 -->
<g id="edge20_Node000018_Node000019" class="edge">
<title>Node18&#45;&gt;Node19</title>
<g id="a_edge20_Node000018_Node000019"><a xlink:title=" ">
<path fill="none" stroke="#63b8ff" d="M559.66,-76.95C542.54,-76.94 525.38,-77.17 510.04,-77.65"/>
<polygon fill="#63b8ff" stroke="#63b8ff" points="559.72,-80.45 569.73,-76.98 559.74,-73.45 559.72,-80.45"/>
</a>
</g>
</g>
<!-- Node20 -->
<g id="Node000020" class="node">
<title>Node20</title>
<g id="a_Node000020"><a xlink:href="../../d1/d42/namespacelamina.html#a49ecca042975b1b60b3cfb5dd09f1ddc" target="_top" xlink:title="求解超越方程（三角、指数、对数类型）。">
<polygon fill="white" stroke="#666666" points="534,-29.2 373,-29.2 373,-10.2 534,-10.2 534,-29.2"/>
<text text-anchor="middle" x="453.5" y="-17.2" font-family="Helvetica,sans-Serif" font-size="10.00">lamina::solve_transcendental</text>
</a>
</g>
</g>
<!-- Node18&#45;&gt;Node20 -->
<g id="edge22_Node000018_Node000020" class="edge">
<title>Node18&#45;&gt;Node20</title>
<g id="a_edge22_Node000018_Node000020"><a xlink:title=" ">
<path fill="none" stroke="#63b8ff" d="M622.06,-71.13C582,-58.84 521.87,-40.38 485.59,-29.24"/>
<polygon fill="#63b8ff" stroke="#63b8ff" points="621.2,-74.53 631.79,-74.12 623.25,-67.84 621.2,-74.53"/>
</a>
</g>
</g>
<!-- Node19&#45;&gt;Node18 -->
<g id="edge21_Node000019_Node000018" class="edge">
<title>Node19&#45;&gt;Node18</title>
<g id="a_edge21_Node000019_Node000018"><a xlink:title=" ">
<path fill="none" stroke="#63b8ff" d="M520.17,-90.02C535.9,-90.38 553.01,-90.52 569.73,-90.41"/>
<polygon fill="#63b8ff" stroke="#63b8ff" points="520.13,-86.52 510.04,-89.75 519.94,-93.51 520.13,-86.52"/>
</a>
</g>
</g>
<!-- Node20&#45;&gt;Node5 -->
<g id="edge23_Node000020_Node000005" class="edge">
<title>Node20&#45;&gt;Node5</title>
<g id="a_edge23_Node000020_Node000005"><a xlink:title=" ">
<path fill="none" stroke="#63b8ff" d="M544.45,-9.51C646.36,-0.2 816.99,8.65 961,-16.7 1076.42,-37.02 1205.38,-96.71 1253,-120.12"/>
<polygon fill="#63b8ff" stroke="#63b8ff" points="543.83,-6.05 534.2,-10.47 544.48,-13.02 543.83,-6.05"/>
</a>
</g>
</g>
<!-- Node22 -->
<g id="Node000022" class="node">
<title>Node22</title>
<g id="a_Node000022"><a xlink:href="../../d6/da9/classlamina_1_1ParametricSolver.html#a74760afed4b871db5baef1d0c7eef09e" target="_top" xlink:title="求解含参方程组，返回所有解">
<polygon fill="white" stroke="#666666" points="734,-407.7 594,-407.7 594,-377.7 734,-377.7 734,-407.7"/>
<text text-anchor="start" x="602" y="-395.7" font-family="Helvetica,sans-Serif" font-size="10.00">lamina::ParametricSolver</text>
<text text-anchor="middle" x="664" y="-384.7" font-family="Helvetica,sans-Serif" font-size="10.00">::solve_system</text>
</a>
</g>
</g>
<!-- Node21&#45;&gt;Node22 -->
<g id="edge26_Node000021_Node000022" class="edge">
<title>Node21&#45;&gt;Node22</title>
<g id="a_edge26_Node000021_Node000022"><a xlink:title=" ">
<path fill="none" stroke="#63b8ff" d="M783.58,-392.7C767.02,-392.7 750.04,-392.7 734.28,-392.7"/>
<polygon fill="#63b8ff" stroke="#63b8ff" points="783.82,-396.2 793.82,-392.7 783.82,-389.2 783.82,-396.2"/>
</a>
</g>
</g>
<!-- Node23 -->
<g id="Node000023" class="node">
<title>Node23</title>
<g id="a_Node000023"><a xlink:href="../../dc/d25/classSymbolicExpr.html#af7245cd8dd9c4c7f7f00d3772bbbecb3" target="_top" xlink:title="求解含参数的方程组。">
<polygon fill="white" stroke="#666666" points="511.5,-431.7 395.5,-431.7 395.5,-401.7 511.5,-401.7 511.5,-431.7"/>
<text text-anchor="start" x="403.5" y="-419.7" font-family="Helvetica,sans-Serif" font-size="10.00">SymbolicExpr::solve</text>
<text text-anchor="middle" x="453.5" y="-408.7" font-family="Helvetica,sans-Serif" font-size="10.00">_system</text>
</a>
</g>
</g>
<!-- Node22&#45;&gt;Node23 -->
<g id="edge27_Node000022_Node000023" class="edge">
<title>Node22&#45;&gt;Node23</title>
<g id="a_edge27_Node000022_Node000023"><a xlink:title=" ">
<path fill="none" stroke="#63b8ff" d="M583.71,-401.82C559.73,-404.59 533.87,-407.56 511.63,-410.12"/>
<polygon fill="#63b8ff" stroke="#63b8ff" points="584.33,-405.28 593.86,-400.66 583.53,-398.32 584.33,-405.28"/>
</a>
</g>
</g>
<!-- Node24 -->
<g id="Node000024" class="node">
<title>Node24</title>
<g id="a_Node000024"><a xlink:href="../../d6/da9/classlamina_1_1ParametricSolver.html#aee41c6cf8efdfc5c7485cd104981d95b" target="_top" xlink:title="求解含参方程组，返回按参数条件分段的解">
<polygon fill="white" stroke="#666666" points="525.5,-383.7 381.5,-383.7 381.5,-353.7 525.5,-353.7 525.5,-383.7"/>
<text text-anchor="start" x="389.5" y="-371.7" font-family="Helvetica,sans-Serif" font-size="10.00">lamina::ParametricSolver</text>
<text text-anchor="middle" x="453.5" y="-360.7" font-family="Helvetica,sans-Serif" font-size="10.00">::solve_system_piecewise</text>
</a>
</g>
</g>
<!-- Node22&#45;&gt;Node24 -->
<g id="edge28_Node000022_Node000024" class="edge">
<title>Node22&#45;&gt;Node24</title>
<g id="a_edge28_Node000022_Node000024"><a xlink:title=" ">
<path fill="none" stroke="#63b8ff" d="M583.69,-383.57C564.59,-381.37 544.29,-379.03 525.59,-376.88"/>
<polygon fill="#63b8ff" stroke="#63b8ff" points="583.53,-387.07 593.86,-384.74 584.33,-380.12 583.53,-387.07"/>
</a>
</g>
</g>
<!-- Node28 -->
<g id="Node000028" class="node">
<title>Node28</title>
<g id="a_Node000028"><a xlink:href="../../de/d78/classlamina_1_1RationalDecompositionStrategy.html#a9bb1e3ff4956d041d95b06a335fd2213" target="_top" xlink:title="把 Q 分解为线性 (x&#45;r) 与不可约二次 (x²+px+q) 因子的集合。">
<polygon fill="white" stroke="#666666" points="1764,-188.7 1594,-188.7 1594,-158.7 1764,-158.7 1764,-188.7"/>
<text text-anchor="start" x="1602" y="-176.7" font-family="Helvetica,sans-Serif" font-size="10.00">lamina::RationalDecomposition</text>
<text text-anchor="middle" x="1679" y="-165.7" font-family="Helvetica,sans-Serif" font-size="10.00">Strategy::factor_denominator</text>
</a>
</g>
</g>
<!-- Node27&#45;&gt;Node28 -->
<g id="edge34_Node000027_Node000028" class="edge">
<title>Node27&#45;&gt;Node28</title>
<g id="a_edge34_Node000027_Node000028"><a xlink:title=" ">
<path fill="none" stroke="#63b8ff" d="M1789.79,-189.29C1781.42,-188.1 1772.78,-186.88 1764.18,-185.66"/>
<polygon fill="#63b8ff" stroke="#63b8ff" points="1789.44,-192.78 1799.83,-190.72 1790.42,-185.85 1789.44,-192.78"/>
</a>
</g>
</g>
<!-- Node30 -->
<g id="Node000030" class="node">
<title>Node30</title>
<g id="a_Node000030"><a xlink:href="../../d1/d42/namespacelamina.html#a67cbeb787714a13d138e663951330c38" target="_top" xlink:title=" ">
<polygon fill="white" stroke="#666666" points="1525,-289.7 1421,-289.7 1421,-259.7 1525,-259.7 1525,-289.7"/>
<text text-anchor="start" x="1429" y="-277.7" font-family="Helvetica,sans-Serif" font-size="10.00">lamina::find_roots</text>
<text text-anchor="middle" x="1473" y="-266.7" font-family="Helvetica,sans-Serif" font-size="10.00">_with_multiplicity</text>
</a>
</g>
</g>
<!-- Node27&#45;&gt;Node30 -->
<g id="edge36_Node000027_Node000030" class="edge">
<title>Node27&#45;&gt;Node30</title>
<g id="a_edge36_Node000027_Node000030"><a xlink:title=" ">
<path fill="none" stroke="#63b8ff" d="M1821.46,-218.63C1804.65,-227.43 1783.82,-237.04 1764,-242.7 1682.54,-265.95 1583.74,-272.48 1525.02,-274.21"/>
<polygon fill="#63b8ff" stroke="#63b8ff" points="1823.2,-221.66 1830.35,-213.85 1819.89,-215.5 1823.2,-221.66"/>
</a>
</g>
</g>
<!-- Node35 -->
<g id="Node000035" class="node">
<title>Node35</title>
<g id="a_Node000035"><a xlink:href="../../d1/d42/namespacelamina.html#a775754abcc1742679dccd792de33ae6e" target="_top" xlink:title="通过因式分解求解多项式方程。">
<polygon fill="white" stroke="#666666" points="1753.5,-233.2 1604.5,-233.2 1604.5,-214.2 1753.5,-214.2 1753.5,-233.2"/>
<text text-anchor="middle" x="1679" y="-221.2" font-family="Helvetica,sans-Serif" font-size="10.00">lamina::solve_by_factoring</text>
</a>
</g>
</g>
<!-- Node27&#45;&gt;Node35 -->
<g id="edge42_Node000027_Node000035" class="edge">
<title>Node27&#45;&gt;Node35</title>
<g id="a_edge42_Node000027_Node000035"><a xlink:title=" ">
<path fill="none" stroke="#63b8ff" d="M1789.8,-208.1C1775.81,-210.09 1761.04,-212.19 1747.02,-214.18"/>
<polygon fill="#63b8ff" stroke="#63b8ff" points="1790.42,-211.55 1799.83,-206.68 1789.44,-204.62 1790.42,-211.55"/>
</a>
</g>
</g>
<!-- Node29 -->
<g id="Node000029" class="node">
<title>Node29</title>
<g id="a_Node000029"><a xlink:href="../../de/d78/classlamina_1_1RationalDecompositionStrategy.html#a1d38c4fd8068312510cc3f2f3e9df37a" target="_top" xlink:title="尝试对表达式进行积分">
<polygon fill="white" stroke="#666666" points="1558,-165.7 1388,-165.7 1388,-135.7 1558,-135.7 1558,-165.7"/>
<text text-anchor="start" x="1396" y="-153.7" font-family="Helvetica,sans-Serif" font-size="10.00">lamina::RationalDecomposition</text>
<text text-anchor="middle" x="1473" y="-142.7" font-family="Helvetica,sans-Serif" font-size="10.00">Strategy::try_integrate</text>
</a>
</g>
</g>
<!-- Node28&#45;&gt;Node29 -->
<g id="edge35_Node000028_Node000029" class="edge">
<title>Node28&#45;&gt;Node29</title>
<g id="a_edge35_Node000028_Node000029"><a xlink:title=" ">
<path fill="none" stroke="#63b8ff" d="M1583.88,-163.09C1575.34,-162.12 1566.73,-161.15 1558.29,-160.2"/>
<polygon fill="#63b8ff" stroke="#63b8ff" points="1583.52,-166.57 1593.85,-164.21 1584.3,-159.61 1583.52,-166.57"/>
</a>
</g>
</g>
<!-- Node31 -->
<g id="Node000031" class="node">
<title>Node31</title>
<g id="a_Node000031"><a xlink:href="../../db/d26/classlamina_1_1InequalitySolver.html#ad7aab28f2d96ad0eb07ff291a650afb8" target="_top" xlink:title="求解单个不等式">
<polygon fill="white" stroke="#666666" points="1341,-289.7 1205,-289.7 1205,-259.7 1341,-259.7 1341,-289.7"/>
<text text-anchor="start" x="1213" y="-277.7" font-family="Helvetica,sans-Serif" font-size="10.00">lamina::InequalitySolver</text>
<text text-anchor="middle" x="1273" y="-266.7" font-family="Helvetica,sans-Serif" font-size="10.00">::solve_inequality</text>
</a>
</g>
</g>
<!-- Node30&#45;&gt;Node31 -->
<g id="edge37_Node000030_Node000031" class="edge">
<title>Node30&#45;&gt;Node31</title>
<g id="a_edge37_Node000030_Node000031"><a xlink:title=" ">
<path fill="none" stroke="#63b8ff" d="M1410.53,-274.7C1388.5,-274.7 1363.57,-274.7 1341.09,-274.7"/>
<polygon fill="#63b8ff" stroke="#63b8ff" points="1410.75,-278.2 1420.75,-274.7 1410.75,-271.2 1410.75,-278.2"/>
</a>
</g>
</g>
<!-- Node34 -->
<g id="Node000034" class="node">
<title>Node34</title>
<g id="a_Node000034"><a xlink:href="../../db/d26/classlamina_1_1InequalitySolver.html#a2244f0ce0ad6b3b5781a8c7ced636447" target="_top" xlink:title="求解有理不等式 numerator/denominator ≷ 0">
<polygon fill="white" stroke="#666666" points="1346,-337.7 1200,-337.7 1200,-307.7 1346,-307.7 1346,-337.7"/>
<text text-anchor="start" x="1208" y="-325.7" font-family="Helvetica,sans-Serif" font-size="10.00">lamina::InequalitySolver</text>
<text text-anchor="middle" x="1273" y="-314.7" font-family="Helvetica,sans-Serif" font-size="10.00">::solve_rational_inequality</text>
</a>
</g>
</g>
<!-- Node30&#45;&gt;Node34 -->
<g id="edge41_Node000030_Node000034" class="edge">
<title>Node30&#45;&gt;Node34</title>
<g id="a_edge41_Node000030_Node000034"><a xlink:title=" ">
<path fill="none" stroke="#63b8ff" d="M1410.79,-289.54C1387.02,-295.3 1359.82,-301.89 1335.97,-307.67"/>
<polygon fill="#63b8ff" stroke="#63b8ff" points="1411.86,-292.88 1420.75,-287.12 1410.21,-286.08 1411.86,-292.88"/>
</a>
</g>
</g>
<!-- Node32 -->
<g id="Node000032" class="node">
<title>Node32</title>
<g id="a_Node000032"><a xlink:href="../../db/d26/classlamina_1_1InequalitySolver.html#ac97e2561a906111e54c90d494d0fef92" target="_top" xlink:title="求解不等式组（取交集）">
<polygon fill="white" stroke="#666666" points="1145.5,-312.7 1009.5,-312.7 1009.5,-282.7 1145.5,-282.7 1145.5,-312.7"/>
<text text-anchor="start" x="1017.5" y="-300.7" font-family="Helvetica,sans-Serif" font-size="10.00">lamina::InequalitySolver</text>
<text text-anchor="middle" x="1077.5" y="-289.7" font-family="Helvetica,sans-Serif" font-size="10.00">::solve_inequalities</text>
</a>
</g>
</g>
<!-- Node31&#45;&gt;Node32 -->
<g id="edge38_Node000031_Node000032" class="edge">
<title>Node31&#45;&gt;Node32</title>
<g id="a_edge38_Node000031_Node000032"><a xlink:title=" ">
<path fill="none" stroke="#63b8ff" d="M1194.83,-283.87C1178.51,-285.81 1161.42,-287.84 1145.52,-289.73"/>
<polygon fill="#63b8ff" stroke="#63b8ff" points="1195.35,-287.33 1204.87,-282.68 1194.52,-280.38 1195.35,-287.33"/>
</a>
</g>
</g>
<!-- Node33 -->
<g id="Node000033" class="node">
<title>Node33</title>
<g id="a_Node000033"><a xlink:href="../../db/d26/classlamina_1_1InequalitySolver.html#a52f3cb8d15f7d98c4cfe1d8c39f910fc" target="_top" xlink:title="求解含参数的不等式，返回分段结果">
<polygon fill="white" stroke="#666666" points="1158,-246.7 997,-246.7 997,-216.7 1158,-216.7 1158,-246.7"/>
<text text-anchor="start" x="1005" y="-234.7" font-family="Helvetica,sans-Serif" font-size="10.00">lamina::InequalitySolver</text>
<text text-anchor="middle" x="1077.5" y="-223.7" font-family="Helvetica,sans-Serif" font-size="10.00">::solve_parametric_inequality</text>
</a>
</g>
</g>
<!-- Node31&#45;&gt;Node33 -->
<g id="edge39_Node000031_Node000033" class="edge">
<title>Node31&#45;&gt;Node33</title>
<g id="a_edge39_Node000031_Node000033"><a xlink:title=" ">
<path fill="none" stroke="#63b8ff" d="M1194.94,-257.57C1178.81,-253.99 1161.93,-250.24 1146.17,-246.74"/>
<polygon fill="#63b8ff" stroke="#63b8ff" points="1194.34,-261.03 1204.87,-259.78 1195.86,-254.19 1194.34,-261.03"/>
</a>
</g>
</g>
<!-- Node33&#45;&gt;Node33 -->
<g id="edge40_Node000033_Node000033" class="edge">
<title>Node33&#45;&gt;Node33</title>
<g id="a_edge40_Node000033_Node000033"><a xlink:title=" ">
<path fill="none" stroke="#63b8ff" d="M1111.46,-257.3C1106.82,-261.67 1095.5,-264.7 1077.5,-264.7 1047.19,-264.7 1035.82,-256.1 1043.4,-246.97"/>
<polygon fill="#63b8ff" stroke="#63b8ff" points="1114.96,-257.02 1111.6,-246.97 1107.96,-256.92 1114.96,-257.02"/>
</a>
</g>
</g>
<!-- Node35&#45;&gt;Node5 -->
<g id="edge44_Node000035_Node000005" class="edge">
<title>Node35&#45;&gt;Node5</title>
<g id="a_edge44_Node000035_Node000005"><a xlink:title=" ">
<path fill="none" stroke="#63b8ff" d="M1594.44,-214.28C1535.95,-206.55 1456.35,-193.74 1388,-174.7 1354.38,-165.33 1317.05,-149.5 1294.56,-139.33"/>
<polygon fill="#63b8ff" stroke="#63b8ff" points="1594.01,-217.75 1604.37,-215.57 1594.91,-210.81 1594.01,-217.75"/>
</a>
</g>
</g>
<!-- Node35&#45;&gt;Node30 -->
<g id="edge43_Node000035_Node000030" class="edge">
<title>Node35&#45;&gt;Node30</title>
<g id="a_edge43_Node000035_Node000030"><a xlink:title=" ">
<path fill="none" stroke="#63b8ff" d="M1629.78,-235.75C1598.33,-243.61 1557.34,-253.86 1525.3,-261.87"/>
<polygon fill="#63b8ff" stroke="#63b8ff" points="1630.78,-239.11 1639.63,-233.29 1629.08,-232.32 1630.78,-239.11"/>
</a>
</g>
</g>
<!-- Node36 -->
<g id="Node000036" class="node">
<title>Node36</title>
<g id="a_Node000036"><a xlink:href="../../d1/d42/namespacelamina.html#a46027488de3bc5e327fdfe4806e8fa5b" target="_top" xlink:title=" ">
<polygon fill="white" stroke="#666666" points="1352,-241.2 1194,-241.2 1194,-222.2 1352,-222.2 1352,-241.2"/>
<text text-anchor="middle" x="1273" y="-229.2" font-family="Helvetica,sans-Serif" font-size="10.00">lamina::solve_symbolic_poly</text>
</a>
</g>
</g>
<!-- Node35&#45;&gt;Node36 -->
<g id="edge45_Node000035_Node000036" class="edge">
<title>Node35&#45;&gt;Node36</title>
<g id="a_edge45_Node000035_Node000036"><a xlink:title=" ">
<path fill="none" stroke="#63b8ff" d="M1594.1,-225.36C1522.99,-226.77 1421.77,-228.77 1352.29,-230.15"/>
<polygon fill="#63b8ff" stroke="#63b8ff" points="1594.44,-228.85 1604.37,-225.16 1594.3,-221.85 1594.44,-228.85"/>
</a>
</g>
</g>
<!-- Node36&#45;&gt;Node33 -->
<g id="edge46_Node000036_Node000033" class="edge">
<title>Node36&#45;&gt;Node33</title>
<g id="a_edge46_Node000036_Node000033"><a xlink:title=" ">
<path fill="none" stroke="#63b8ff" d="M1183.59,-231.7C1175.12,-231.7 1166.57,-231.7 1158.2,-231.7"/>
<polygon fill="#63b8ff" stroke="#63b8ff" points="1183.85,-235.2 1193.85,-231.7 1183.85,-228.2 1183.85,-235.2"/>
</a>
</g>
</g>
<!-- Node37&#45;&gt;Node2 -->
<g id="edge48_Node000037_Node000002" class="edge">
<title>Node37&#45;&gt;Node2</title>
<g id="a_edge48_Node000037_Node000002"><a xlink:title=" ">
<path fill="none" stroke="#63b8ff" d="M1791.04,-110.7C1772.83,-110.7 1753.21,-110.7 1735.6,-110.7"/>
<polygon fill="#63b8ff" stroke="#63b8ff" points="1791.28,-114.2 1801.28,-110.7 1791.28,-107.2 1791.28,-114.2"/>
</a>
</g>
</g>
</g>
</svg>
