<?xml version="1.0" encoding="UTF-8" standalone="no"?>
<!DOCTYPE svg PUBLIC "-//W3C//DTD SVG 1.1//EN"
 "http://www.w3.org/Graphics/SVG/1.1/DTD/svg11.dtd">
<!-- Generated by graphviz version 2.43.0 (0)
 -->
<!-- Title: lamina::Polynomial::square_free_part Pages: 1 -->
<svg width="1752pt" height="434pt"
 viewBox="0.00 0.00 1752.00 434.45" xmlns="http://www.w3.org/2000/svg" xmlns:xlink="http://www.w3.org/1999/xlink">
<g id="graph0" class="graph" transform="scale(1 1) rotate(0) translate(4 430.45)">
<title>lamina::Polynomial::square_free_part</title>
<!-- Node1 -->
<g id="Node000001" class="node">
<title>Node1</title>
<g id="a_Node000001"><a xlink:title="计算无平方因子部分">
<polygon fill="#999999" stroke="#666666" points="1744,-106.45 1633,-106.45 1633,-76.45 1744,-76.45 1744,-106.45"/>
<text text-anchor="start" x="1641" y="-94.45" font-family="Helvetica,sans-Serif" font-size="10.00">lamina::Polynomial</text>
<text text-anchor="middle" x="1688.5" y="-83.45" font-family="Helvetica,sans-Serif" font-size="10.00">::square_free_part</text>
</a>
</g>
</g>
<!-- Node2 -->
<g id="Node000002" class="node">
<title>Node2</title>
<g id="a_Node000002"><a xlink:href="../../d1/d42/namespacelamina.html#ab899f5f3cc2b2bca335829a5880f3028" target="_top" xlink:title="使用 Sturm 序列隔离有理系数多项式的所有实根。">
<polygon fill="white" stroke="#666666" points="1597,-106.45 1484,-106.45 1484,-76.45 1597,-76.45 1597,-106.45"/>
<text text-anchor="start" x="1492" y="-94.45" font-family="Helvetica,sans-Serif" font-size="10.00">lamina::isolate_real</text>
<text text-anchor="middle" x="1540.5" y="-83.45" font-family="Helvetica,sans-Serif" font-size="10.00">_roots</text>
</a>
</g>
</g>
<!-- Node1&#45;&gt;Node2 -->
<g id="edge1_Node000001_Node000002" class="edge">
<title>Node1&#45;&gt;Node2</title>
<g id="a_edge1_Node000001_Node000002"><a xlink:title=" ">
<path fill="none" stroke="#63b8ff" d="M1622.48,-91.45C1614,-91.45 1605.38,-91.45 1597.07,-91.45"/>
<polygon fill="#63b8ff" stroke="#63b8ff" points="1622.72,-94.95 1632.72,-91.45 1622.72,-87.95 1622.72,-94.95"/>
</a>
</g>
</g>
<!-- Node3 -->
<g id="Node000003" class="node">
<title>Node3</title>
<g id="a_Node000003"><a xlink:href="../../d1/d42/namespacelamina.html#a10daf588534457a16bd924eecd6dadf9" target="_top" xlink:title="对 RootOf 表达式进行数值求值。">
<polygon fill="white" stroke="#666666" points="1448,-119.95 1314,-119.95 1314,-100.95 1448,-100.95 1448,-119.95"/>
<text text-anchor="middle" x="1381" y="-107.95" font-family="Helvetica,sans-Serif" font-size="10.00">lamina::rootof_evaluate</text>
</a>
</g>
</g>
<!-- Node2&#45;&gt;Node3 -->
<g id="edge2_Node000002_Node000003" class="edge">
<title>Node2&#45;&gt;Node3</title>
<g id="a_edge2_Node000002_Node000003"><a xlink:title=" ">
<path fill="none" stroke="#63b8ff" d="M1474.03,-99.34C1465.46,-100.38 1456.67,-101.44 1448.09,-102.47"/>
<polygon fill="#63b8ff" stroke="#63b8ff" points="1474.46,-102.82 1483.97,-98.14 1473.62,-95.87 1474.46,-102.82"/>
</a>
</g>
</g>
<!-- Node4 -->
<g id="Node000004" class="node">
<title>Node4</title>
<g id="a_Node000004"><a xlink:href="../../d1/d42/namespacelamina.html#abbdca2540c3361426ba47c5c576de22e" target="_top" xlink:title="对表达式进行数值求根，综合使用 Newton&#45;Raphson 和根隔离方法。">
<polygon fill="white" stroke="#666666" points="1445,-82.95 1317,-82.95 1317,-63.95 1445,-63.95 1445,-82.95"/>
<text text-anchor="middle" x="1381" y="-70.95" font-family="Helvetica,sans-Serif" font-size="10.00">lamina::solve_numeric</text>
</a>
</g>
</g>
<!-- Node2&#45;&gt;Node4 -->
<g id="edge3_Node000002_Node000004" class="edge">
<title>Node2&#45;&gt;Node4</title>
<g id="a_edge3_Node000002_Node000004"><a xlink:title=" ">
<path fill="none" stroke="#63b8ff" d="M1473.79,-83.94C1464.29,-82.85 1454.53,-81.74 1445.09,-80.66"/>
<polygon fill="#63b8ff" stroke="#63b8ff" points="1473.64,-87.44 1483.97,-85.1 1474.43,-80.49 1473.64,-87.44"/>
</a>
</g>
</g>
<!-- Node5 -->
<g id="Node000005" class="node">
<title>Node5</title>
<g id="a_Node000005"><a xlink:href="../../d1/d42/namespacelamina.html#a06e924d67656611208ba81ad13fbee8d" target="_top" xlink:title="方程求解策略调度器，根据表达式类型选择合适的求解方法。">
<polygon fill="white" stroke="#666666" points="1278,-82.95 1149,-82.95 1149,-63.95 1278,-63.95 1278,-82.95"/>
<text text-anchor="middle" x="1213.5" y="-70.95" font-family="Helvetica,sans-Serif" font-size="10.00">lamina::solve_dispatch</text>
</a>
</g>
</g>
<!-- Node4&#45;&gt;Node5 -->
<g id="edge4_Node000004_Node000005" class="edge">
<title>Node4&#45;&gt;Node5</title>
<g id="a_edge4_Node000004_Node000005"><a xlink:title=" ">
<path fill="none" stroke="#63b8ff" d="M1306.73,-73.45C1297.21,-73.45 1287.53,-73.45 1278.19,-73.45"/>
<polygon fill="#63b8ff" stroke="#63b8ff" points="1306.96,-76.95 1316.96,-73.45 1306.96,-69.95 1306.96,-76.95"/>
</a>
</g>
</g>
<!-- Node6 -->
<g id="Node000006" class="node">
<title>Node6</title>
<g id="a_Node000006"><a xlink:href="../../dc/d25/classSymbolicExpr.html#a8e2b693429c55311a664ed0306bc9b2e" target="_top" xlink:title="求解方程，返回指定变量的所有解。">
<polygon fill="white" stroke="#666666" points="1113,-163.95 997,-163.95 997,-144.95 1113,-144.95 1113,-163.95"/>
<text text-anchor="middle" x="1055" y="-151.95" font-family="Helvetica,sans-Serif" font-size="10.00">SymbolicExpr::solve</text>
</a>
</g>
</g>
<!-- Node5&#45;&gt;Node6 -->
<g id="edge5_Node000005_Node000006" class="edge">
<title>Node5&#45;&gt;Node6</title>
<g id="a_edge5_Node000005_Node000006"><a xlink:title=" ">
<path fill="none" stroke="#63b8ff" d="M1184.74,-87.81C1152.97,-104.25 1101.82,-130.73 1074.54,-144.85"/>
<polygon fill="#63b8ff" stroke="#63b8ff" points="1186.66,-90.76 1193.93,-83.06 1183.44,-84.54 1186.66,-90.76"/>
</a>
</g>
</g>
<!-- Node7 -->
<g id="Node000007" class="node">
<title>Node7</title>
<g id="a_Node000007"><a xlink:href="../../dc/d25/classSymbolicExpr.html#a83879d764986be80edbedc769b96224a" target="_top" xlink:title="计算矩阵的特征值。">
<polygon fill="white" stroke="#666666" points="337,-286.95 188,-286.95 188,-267.95 337,-267.95 337,-286.95"/>
<text text-anchor="middle" x="262.5" y="-274.95" font-family="Helvetica,sans-Serif" font-size="10.00">SymbolicExpr::eigenvalues</text>
</a>
</g>
</g>
<!-- Node6&#45;&gt;Node7 -->
<g id="edge6_Node000006_Node000007" class="edge">
<title>Node6&#45;&gt;Node7</title>
<g id="a_edge6_Node000006_Node000007"><a xlink:title=" ">
<path fill="none" stroke="#63b8ff" d="M1033.21,-169.9C1014.95,-182.92 987.25,-201.31 961,-213.45 875.26,-253.09 851.39,-262.19 758,-276.45 610.12,-299.02 434.45,-291.33 337.33,-284.11"/>
<polygon fill="#63b8ff" stroke="#63b8ff" points="1035.33,-172.69 1041.38,-163.99 1031.23,-167.02 1035.33,-172.69"/>
</a>
</g>
</g>
<!-- Node9 -->
<g id="Node000009" class="node">
<title>Node9</title>
<g id="a_Node000009"><a xlink:href="../../dc/d25/classSymbolicExpr.html#a884244959506063b172228ad99ab0730" target="_top" xlink:title="对表达式进行因式分解。">
<polygon fill="white" stroke="#666666" points="936.5,-204.95 818.5,-204.95 818.5,-185.95 936.5,-185.95 936.5,-204.95"/>
<text text-anchor="middle" x="877.5" y="-192.95" font-family="Helvetica,sans-Serif" font-size="10.00">SymbolicExpr::factor</text>
</a>
</g>
</g>
<!-- Node6&#45;&gt;Node9 -->
<g id="edge8_Node000006_Node000009" class="edge">
<title>Node6&#45;&gt;Node9</title>
<g id="a_edge8_Node000006_Node000009"><a xlink:title=" ">
<path fill="none" stroke="#63b8ff" d="M1003.37,-166.27C976.67,-172.51 944.35,-180.06 919.29,-185.92"/>
<polygon fill="#63b8ff" stroke="#63b8ff" points="1004.35,-169.64 1013.3,-163.96 1002.76,-162.82 1004.35,-169.64"/>
</a>
</g>
</g>
<!-- Node17 -->
<g id="Node000017" class="node">
<title>Node17</title>
<g id="a_Node000017"><a xlink:href="../../d1/d42/namespacelamina.html#a334f8d9c2923abbed11b2e4729c2b057" target="_top" xlink:title=" ">
<polygon fill="white" stroke="#666666" points="957,-87.95 798,-87.95 798,-68.95 957,-68.95 957,-87.95"/>
<text text-anchor="middle" x="877.5" y="-75.95" font-family="Helvetica,sans-Serif" font-size="10.00">lamina::invert_substitution_h</text>
</a>
</g>
</g>
<!-- Node6&#45;&gt;Node17 -->
<g id="edge18_Node000006_Node000017" class="edge">
<title>Node6&#45;&gt;Node17</title>
<g id="a_edge18_Node000006_Node000017"><a xlink:title=" ">
<path fill="none" stroke="#63b8ff" d="M1030.83,-139.54C1012.45,-128.2 985.82,-112.83 961,-102.45 947.38,-96.74 931.95,-91.86 918.16,-88.02"/>
<polygon fill="#63b8ff" stroke="#63b8ff" points="1029.05,-142.56 1039.39,-144.89 1032.77,-136.62 1029.05,-142.56"/>
</a>
</g>
</g>
<!-- Node18 -->
<g id="Node000018" class="node">
<title>Node18</title>
<g id="a_Node000018"><a xlink:href="../../d1/d42/namespacelamina.html#a12ae4dd3753dfea8b5e9d84b3c748855" target="_top" xlink:title=" ">
<polygon fill="white" stroke="#666666" points="758,-87.95 570,-87.95 570,-68.95 758,-68.95 758,-87.95"/>
<text text-anchor="middle" x="664" y="-75.95" font-family="Helvetica,sans-Serif" font-size="10.00">lamina::solve_transcendental_impl</text>
</a>
</g>
</g>
<!-- Node6&#45;&gt;Node18 -->
<g id="edge30_Node000006_Node000018" class="edge">
<title>Node6&#45;&gt;Node18</title>
<g id="a_edge30_Node000006_Node000018"><a xlink:title=" ">
<path fill="none" stroke="#63b8ff" d="M995.12,-142.94C918.26,-127.93 785.13,-101.92 713.67,-87.96"/>
<polygon fill="#63b8ff" stroke="#63b8ff" points="994.64,-146.41 1005.13,-144.9 995.98,-139.54 994.64,-146.41"/>
</a>
</g>
</g>
<!-- Node19 -->
<g id="Node000019" class="node">
<title>Node19</title>
<g id="a_Node000019"><a xlink:href="../../d1/d42/namespacelamina.html#a704f26202e00de52ae9b961bc527a9ff" target="_top" xlink:title=" ">
<polygon fill="white" stroke="#666666" points="510,-93.45 397,-93.45 397,-63.45 510,-63.45 510,-93.45"/>
<text text-anchor="start" x="405" y="-81.45" font-family="Helvetica,sans-Serif" font-size="10.00">lamina::solve_inner</text>
<text text-anchor="middle" x="453.5" y="-70.45" font-family="Helvetica,sans-Serif" font-size="10.00">_equation</text>
</a>
</g>
</g>
<!-- Node6&#45;&gt;Node19 -->
<g id="edge24_Node000006_Node000019" class="edge">
<title>Node6&#45;&gt;Node19</title>
<g id="a_edge24_Node000006_Node000019"><a xlink:title=" ">
<path fill="none" stroke="#63b8ff" d="M986.58,-151.25C934,-148.34 859.19,-143.28 794,-135.45 693.42,-123.35 577.2,-102.29 510.14,-89.43"/>
<polygon fill="#63b8ff" stroke="#63b8ff" points="986.62,-154.76 996.79,-151.8 987,-147.77 986.62,-154.76"/>
</a>
</g>
</g>
<!-- Node21 -->
<g id="Node000021" class="node">
<title>Node21</title>
<g id="a_Node000021"><a xlink:href="../../d6/da9/classlamina_1_1ParametricSolver.html#a41d42755b42e64784e9bc7c7f6f5715f" target="_top" xlink:title="求解关于未知数为多项式的含参方程组">
<polygon fill="white" stroke="#666666" points="961,-402.45 794,-402.45 794,-372.45 961,-372.45 961,-402.45"/>
<text text-anchor="start" x="802" y="-390.45" font-family="Helvetica,sans-Serif" font-size="10.00">lamina::ParametricSolver</text>
<text text-anchor="middle" x="877.5" y="-379.45" font-family="Helvetica,sans-Serif" font-size="10.00">::solve_polynomial_parametric</text>
</a>
</g>
</g>
<!-- Node6&#45;&gt;Node21 -->
<g id="edge25_Node000006_Node000021" class="edge">
<title>Node6&#45;&gt;Node21</title>
<g id="a_edge25_Node000006_Node000021"><a xlink:title=" ">
<path fill="none" stroke="#63b8ff" d="M1050.95,-173.89C1043.44,-215.13 1020.2,-311.77 961,-363.45 957.07,-366.88 952.67,-369.82 948,-372.34"/>
<polygon fill="#63b8ff" stroke="#63b8ff" points="1054.4,-174.47 1052.63,-164.03 1047.5,-173.3 1054.4,-174.47"/>
</a>
</g>
</g>
<!-- Node25 -->
<g id="Node000025" class="node">
<title>Node25</title>
<g id="a_Node000025"><a xlink:href="../../d5/d6f/classlamina_1_1Solver.html#a622812464260dd689d26a7f66ae99633" target="_top" xlink:title="求解多项式方程组，返回所有解。">
<polygon fill="white" stroke="#666666" points="937,-50.45 818,-50.45 818,-20.45 937,-20.45 937,-50.45"/>
<text text-anchor="start" x="826" y="-38.45" font-family="Helvetica,sans-Serif" font-size="10.00">lamina::Solver::solve</text>
<text text-anchor="middle" x="877.5" y="-27.45" font-family="Helvetica,sans-Serif" font-size="10.00">_polynomial_system</text>
</a>
</g>
</g>
<!-- Node6&#45;&gt;Node25 -->
<g id="edge29_Node000006_Node000025" class="edge">
<title>Node6&#45;&gt;Node25</title>
<g id="a_edge29_Node000006_Node000025"><a xlink:title=" ">
<path fill="none" stroke="#63b8ff" d="M1041.14,-136.55C1024.85,-115.14 994.79,-79.68 961,-59.45 953.71,-55.08 945.57,-51.46 937.33,-48.49"/>
<polygon fill="#63b8ff" stroke="#63b8ff" points="1038.48,-138.83 1047.25,-144.77 1044.1,-134.66 1038.48,-138.83"/>
</a>
</g>
</g>
<!-- Node26 -->
<g id="Node000026" class="node">
<title>Node26</title>
<g id="a_Node000026"><a xlink:href="../../d1/d42/namespacelamina.html#a14b812ff63e0f874b8f45b9d6c746195" target="_top" xlink:title="Solve an equation with assumption&#45;based domain filtering.">
<polygon fill="white" stroke="#666666" points="932,-354.45 823,-354.45 823,-324.45 932,-324.45 932,-354.45"/>
<text text-anchor="start" x="831" y="-342.45" font-family="Helvetica,sans-Serif" font-size="10.00">lamina::solve_with</text>
<text text-anchor="middle" x="877.5" y="-331.45" font-family="Helvetica,sans-Serif" font-size="10.00">_assumptions</text>
</a>
</g>
</g>
<!-- Node6&#45;&gt;Node26 -->
<g id="edge31_Node000006_Node000026" class="edge">
<title>Node6&#45;&gt;Node26</title>
<g id="a_edge31_Node000006_Node000026"><a xlink:title=" ">
<path fill="none" stroke="#63b8ff" d="M1047.47,-173.79C1035.46,-206.54 1006.83,-272.96 961,-310.45 952.66,-317.27 942.6,-322.54 932.41,-326.59"/>
<polygon fill="#63b8ff" stroke="#63b8ff" points="1050.87,-174.67 1050.9,-164.07 1044.27,-172.33 1050.87,-174.67"/>
</a>
</g>
</g>
<!-- Node8 -->
<g id="Node000008" class="node">
<title>Node8</title>
<g id="a_Node000008"><a xlink:href="../../dc/d25/classSymbolicExpr.html#a7777100ca36b7a1a7285ece2380dcf4b" target="_top" xlink:title="计算矩阵的特征向量。">
<polygon fill="white" stroke="#666666" points="152,-286.95 0,-286.95 0,-267.95 152,-267.95 152,-286.95"/>
<text text-anchor="middle" x="76" y="-274.95" font-family="Helvetica,sans-Serif" font-size="10.00">SymbolicExpr::eigenvectors</text>
</a>
</g>
</g>
<!-- Node7&#45;&gt;Node8 -->
<g id="edge7_Node000007_Node000008" class="edge">
<title>Node7&#45;&gt;Node8</title>
<g id="a_edge7_Node000007_Node000008"><a xlink:title=" ">
<path fill="none" stroke="#63b8ff" d="M177.52,-277.45C169.04,-277.45 160.48,-277.45 152.11,-277.45"/>
<polygon fill="#63b8ff" stroke="#63b8ff" points="177.79,-280.95 187.79,-277.45 177.79,-273.95 177.79,-280.95"/>
</a>
</g>
</g>
<!-- Node10 -->
<g id="Node000010" class="node">
<title>Node10</title>
<g id="a_Node000010"><a xlink:href="../../dc/d25/classSymbolicExpr.html#a3b4cc1669b1b117b15cc82783a22b4fc" target="_top" xlink:title="计算矩阵行列式。">
<polygon fill="white" stroke="#666666" points="738.5,-249.95 589.5,-249.95 589.5,-230.95 738.5,-230.95 738.5,-249.95"/>
<text text-anchor="middle" x="664" y="-237.95" font-family="Helvetica,sans-Serif" font-size="10.00">SymbolicExpr::determinant</text>
</a>
</g>
</g>
<!-- Node9&#45;&gt;Node10 -->
<g id="edge9_Node000009_Node000010" class="edge">
<title>Node9&#45;&gt;Node10</title>
<g id="a_edge9_Node000009_Node000010"><a xlink:title=" ">
<path fill="none" stroke="#63b8ff" d="M823.94,-207.15C803.39,-211.68 779.6,-216.87 758,-221.45 743.17,-224.59 726.99,-227.93 712.34,-230.91"/>
<polygon fill="#63b8ff" stroke="#63b8ff" points="824.74,-210.56 833.75,-204.98 823.23,-203.72 824.74,-210.56"/>
</a>
</g>
</g>
<!-- Node13 -->
<g id="Node000013" class="node">
<title>Node13</title>
<g id="a_Node000013"><a xlink:href="../../dc/d25/classSymbolicExpr.html#ae608271a617ef878c81d04375538537f" target="_top" xlink:title="计算两个多项式关于指定变量的结式。">
<polygon fill="white" stroke="#666666" points="719,-212.45 609,-212.45 609,-182.45 719,-182.45 719,-212.45"/>
<text text-anchor="start" x="617" y="-200.45" font-family="Helvetica,sans-Serif" font-size="10.00">SymbolicExpr::poly</text>
<text text-anchor="middle" x="664" y="-189.45" font-family="Helvetica,sans-Serif" font-size="10.00">_resultant</text>
</a>
</g>
</g>
<!-- Node9&#45;&gt;Node13 -->
<g id="edge14_Node000009_Node000013" class="edge">
<title>Node9&#45;&gt;Node13</title>
<g id="a_edge14_Node000009_Node000013"><a xlink:title=" ">
<path fill="none" stroke="#63b8ff" d="M808.42,-196.09C779.59,-196.36 746.46,-196.68 719.31,-196.93"/>
<polygon fill="#63b8ff" stroke="#63b8ff" points="808.46,-199.59 818.43,-196 808.39,-192.59 808.46,-199.59"/>
</a>
</g>
</g>
<!-- Node14 -->
<g id="Node000014" class="node">
<title>Node14</title>
<g id="a_Node000014"><a xlink:href="../../dc/d25/classSymbolicExpr.html#ae41c16b68c56de8d4c70a98c85722ff1" target="_top" xlink:title="计算矩阵的行最简阶梯形（RREF）。">
<polygon fill="white" stroke="#666666" points="717.5,-163.95 610.5,-163.95 610.5,-144.95 717.5,-144.95 717.5,-163.95"/>
<text text-anchor="middle" x="664" y="-151.95" font-family="Helvetica,sans-Serif" font-size="10.00">SymbolicExpr::rref</text>
</a>
</g>
</g>
<!-- Node9&#45;&gt;Node14 -->
<g id="edge15_Node000009_Node000014" class="edge">
<title>Node9&#45;&gt;Node14</title>
<g id="a_edge15_Node000009_Node000014"><a xlink:title=" ">
<path fill="none" stroke="#63b8ff" d="M817.6,-184.03C785.03,-177.71 745.03,-169.96 714.15,-163.97"/>
<polygon fill="#63b8ff" stroke="#63b8ff" points="816.96,-187.47 827.45,-185.94 818.29,-180.6 816.96,-187.47"/>
</a>
</g>
</g>
<!-- Node10&#45;&gt;Node10 -->
<g id="edge12_Node000010_Node000010" class="edge">
<title>Node10&#45;&gt;Node10</title>
<g id="a_edge12_Node000010_Node000010"><a xlink:title=" ">
<path fill="none" stroke="#63b8ff" d="M703.36,-257.25C703.95,-263.16 690.83,-267.95 664,-267.95 626.68,-267.95 615.89,-258.68 631.63,-250.03"/>
<polygon fill="#63b8ff" stroke="#63b8ff" points="705.84,-254.78 696.37,-250.03 700.8,-259.65 705.84,-254.78"/>
</a>
</g>
</g>
<!-- Node11 -->
<g id="Node000011" class="node">
<title>Node11</title>
<g id="a_Node000011"><a xlink:href="../../dc/d25/classSymbolicExpr.html#a6e8c5c20af88337d449cbf5771d5d28d" target="_top" xlink:title="计算矩阵的特征多项式。">
<polygon fill="white" stroke="#666666" points="519,-267.95 388,-267.95 388,-248.95 519,-248.95 519,-267.95"/>
<text text-anchor="middle" x="453.5" y="-255.95" font-family="Helvetica,sans-Serif" font-size="10.00">SymbolicExpr::charpoly</text>
</a>
</g>
</g>
<!-- Node10&#45;&gt;Node11 -->
<g id="edge10_Node000010_Node000011" class="edge">
<title>Node10&#45;&gt;Node11</title>
<g id="a_edge10_Node000010_Node000011"><a xlink:title=" ">
<path fill="none" stroke="#63b8ff" d="M579.4,-247.66C559.3,-249.4 538.12,-251.23 519.03,-252.88"/>
<polygon fill="#63b8ff" stroke="#63b8ff" points="579.83,-251.14 589.49,-246.79 579.23,-244.17 579.83,-251.14"/>
</a>
</g>
</g>
<!-- Node12 -->
<g id="Node000012" class="node">
<title>Node12</title>
<g id="a_Node000012"><a xlink:href="../../d1/d42/namespacelamina.html#a35783093777191a0254b7f3a2340e0f5" target="_top" xlink:title="计算符号矩阵的行列式">
<polygon fill="white" stroke="#666666" points="530.5,-230.95 376.5,-230.95 376.5,-211.95 530.5,-211.95 530.5,-230.95"/>
<text text-anchor="middle" x="453.5" y="-218.95" font-family="Helvetica,sans-Serif" font-size="10.00">lamina::matrix_determinant</text>
</a>
</g>
</g>
<!-- Node10&#45;&gt;Node12 -->
<g id="edge13_Node000010_Node000012" class="edge">
<title>Node10&#45;&gt;Node12</title>
<g id="a_edge13_Node000010_Node000012"><a xlink:title=" ">
<path fill="none" stroke="#63b8ff" d="M579.52,-232.84C563.33,-231.36 546.45,-229.83 530.52,-228.37"/>
<polygon fill="#63b8ff" stroke="#63b8ff" points="579.21,-236.33 589.49,-233.75 579.85,-229.35 579.21,-236.33"/>
</a>
</g>
</g>
<!-- Node11&#45;&gt;Node7 -->
<g id="edge11_Node000011_Node000007" class="edge">
<title>Node11&#45;&gt;Node7</title>
<g id="a_edge11_Node000011_Node000007"><a xlink:title=" ">
<path fill="none" stroke="#63b8ff" d="M377.87,-265.95C364.47,-267.3 350.52,-268.7 337.15,-270.04"/>
<polygon fill="#63b8ff" stroke="#63b8ff" points="378.39,-269.41 387.99,-264.93 377.69,-262.45 378.39,-269.41"/>
</a>
</g>
</g>
<!-- Node15 -->
<g id="Node000015" class="node">
<title>Node15</title>
<g id="a_Node000015"><a xlink:href="../../dc/d25/classSymbolicExpr.html#afa1c1c57bb6c77da5d016f69eaa60703" target="_top" xlink:title="计算矩阵的逆。">
<polygon fill="white" stroke="#666666" points="516,-163.95 391,-163.95 391,-144.95 516,-144.95 516,-163.95"/>
<text text-anchor="middle" x="453.5" y="-151.95" font-family="Helvetica,sans-Serif" font-size="10.00">SymbolicExpr::inverse</text>
</a>
</g>
</g>
<!-- Node14&#45;&gt;Node15 -->
<g id="edge16_Node000014_Node000015" class="edge">
<title>Node14&#45;&gt;Node15</title>
<g id="a_edge16_Node000014_Node000015"><a xlink:title=" ">
<path fill="none" stroke="#63b8ff" d="M600.07,-154.45C573.55,-154.45 542.77,-154.45 516.36,-154.45"/>
<polygon fill="#63b8ff" stroke="#63b8ff" points="600.39,-157.95 610.39,-154.45 600.39,-150.95 600.39,-157.95"/>
</a>
</g>
</g>
<!-- Node16 -->
<g id="Node000016" class="node">
<title>Node16</title>
<g id="a_Node000016"><a xlink:href="../../d1/d42/namespacelamina.html#a972455b000c18e71aefd4a84a5708edf" target="_top" xlink:title="计算符号矩阵的逆矩阵">
<polygon fill="white" stroke="#666666" points="327.5,-163.95 197.5,-163.95 197.5,-144.95 327.5,-144.95 327.5,-163.95"/>
<text text-anchor="middle" x="262.5" y="-151.95" font-family="Helvetica,sans-Serif" font-size="10.00">lamina::matrix_inverse</text>
</a>
</g>
</g>
<!-- Node15&#45;&gt;Node16 -->
<g id="edge17_Node000015_Node000016" class="edge">
<title>Node15&#45;&gt;Node16</title>
<g id="a_edge17_Node000015_Node000016"><a xlink:title=" ">
<path fill="none" stroke="#63b8ff" d="M380.74,-154.45C363.28,-154.45 344.72,-154.45 327.64,-154.45"/>
<polygon fill="#63b8ff" stroke="#63b8ff" points="380.88,-157.95 390.88,-154.45 380.88,-150.95 380.88,-157.95"/>
</a>
</g>
</g>
<!-- Node17&#45;&gt;Node18 -->
<g id="edge19_Node000017_Node000018" class="edge">
<title>Node17&#45;&gt;Node18</title>
<g id="a_edge19_Node000017_Node000018"><a xlink:title=" ">
<path fill="none" stroke="#63b8ff" d="M787.65,-78.45C777.89,-78.45 767.92,-78.45 758.1,-78.45"/>
<polygon fill="#63b8ff" stroke="#63b8ff" points="787.75,-81.95 797.75,-78.45 787.75,-74.95 787.75,-81.95"/>
</a>
</g>
</g>
<!-- Node18&#45;&gt;Node19 -->
<g id="edge20_Node000018_Node000019" class="edge">
<title>Node18&#45;&gt;Node19</title>
<g id="a_edge20_Node000018_Node000019"><a xlink:title=" ">
<path fill="none" stroke="#63b8ff" d="M559.66,-71.7C542.54,-71.69 525.38,-71.92 510.04,-72.4"/>
<polygon fill="#63b8ff" stroke="#63b8ff" points="559.72,-75.2 569.73,-71.73 559.74,-68.2 559.72,-75.2"/>
</a>
</g>
</g>
<!-- Node20 -->
<g id="Node000020" class="node">
<title>Node20</title>
<g id="a_Node000020"><a xlink:href="../../d1/d42/namespacelamina.html#a49ecca042975b1b60b3cfb5dd09f1ddc" target="_top" xlink:title="求解超越方程（三角、指数、对数类型）。">
<polygon fill="white" stroke="#666666" points="534,-23.95 373,-23.95 373,-4.95 534,-4.95 534,-23.95"/>
<text text-anchor="middle" x="453.5" y="-11.95" font-family="Helvetica,sans-Serif" font-size="10.00">lamina::solve_transcendental</text>
</a>
</g>
</g>
<!-- Node18&#45;&gt;Node20 -->
<g id="edge22_Node000018_Node000020" class="edge">
<title>Node18&#45;&gt;Node20</title>
<g id="a_edge22_Node000018_Node000020"><a xlink:title=" ">
<path fill="none" stroke="#63b8ff" d="M622.06,-65.88C582,-53.58 521.87,-35.13 485.59,-23.99"/>
<polygon fill="#63b8ff" stroke="#63b8ff" points="621.2,-69.28 631.79,-68.86 623.25,-62.58 621.2,-69.28"/>
</a>
</g>
</g>
<!-- Node19&#45;&gt;Node18 -->
<g id="edge21_Node000019_Node000018" class="edge">
<title>Node19&#45;&gt;Node18</title>
<g id="a_edge21_Node000019_Node000018"><a xlink:title=" ">
<path fill="none" stroke="#63b8ff" d="M520.17,-84.77C535.9,-85.13 553.01,-85.26 569.73,-85.16"/>
<polygon fill="#63b8ff" stroke="#63b8ff" points="520.13,-81.26 510.04,-84.49 519.94,-88.26 520.13,-81.26"/>
</a>
</g>
</g>
<!-- Node20&#45;&gt;Node5 -->
<g id="edge23_Node000020_Node000005" class="edge">
<title>Node20&#45;&gt;Node5</title>
<g id="a_edge23_Node000020_Node000005"><a xlink:title=" ">
<path fill="none" stroke="#63b8ff" d="M544.47,-7.07C646.05,-0.34 816.05,6.16 961,-11.45 1043.14,-21.42 1137.13,-49.09 1183.5,-63.86"/>
<polygon fill="#63b8ff" stroke="#63b8ff" points="543.99,-3.6 534.25,-7.77 544.47,-10.58 543.99,-3.6"/>
</a>
</g>
</g>
<!-- Node22 -->
<g id="Node000022" class="node">
<title>Node22</title>
<g id="a_Node000022"><a xlink:href="../../d6/da9/classlamina_1_1ParametricSolver.html#a74760afed4b871db5baef1d0c7eef09e" target="_top" xlink:title="求解含参方程组，返回所有解">
<polygon fill="white" stroke="#666666" points="734,-402.45 594,-402.45 594,-372.45 734,-372.45 734,-402.45"/>
<text text-anchor="start" x="602" y="-390.45" font-family="Helvetica,sans-Serif" font-size="10.00">lamina::ParametricSolver</text>
<text text-anchor="middle" x="664" y="-379.45" font-family="Helvetica,sans-Serif" font-size="10.00">::solve_system</text>
</a>
</g>
</g>
<!-- Node21&#45;&gt;Node22 -->
<g id="edge26_Node000021_Node000022" class="edge">
<title>Node21&#45;&gt;Node22</title>
<g id="a_edge26_Node000021_Node000022"><a xlink:title=" ">
<path fill="none" stroke="#63b8ff" d="M783.58,-387.45C767.02,-387.45 750.04,-387.45 734.28,-387.45"/>
<polygon fill="#63b8ff" stroke="#63b8ff" points="783.82,-390.95 793.82,-387.45 783.82,-383.95 783.82,-390.95"/>
</a>
</g>
</g>
<!-- Node23 -->
<g id="Node000023" class="node">
<title>Node23</title>
<g id="a_Node000023"><a xlink:href="../../dc/d25/classSymbolicExpr.html#af7245cd8dd9c4c7f7f00d3772bbbecb3" target="_top" xlink:title="求解含参数的方程组。">
<polygon fill="white" stroke="#666666" points="511.5,-426.45 395.5,-426.45 395.5,-396.45 511.5,-396.45 511.5,-426.45"/>
<text text-anchor="start" x="403.5" y="-414.45" font-family="Helvetica,sans-Serif" font-size="10.00">SymbolicExpr::solve</text>
<text text-anchor="middle" x="453.5" y="-403.45" font-family="Helvetica,sans-Serif" font-size="10.00">_system</text>
</a>
</g>
</g>
<!-- Node22&#45;&gt;Node23 -->
<g id="edge27_Node000022_Node000023" class="edge">
<title>Node22&#45;&gt;Node23</title>
<g id="a_edge27_Node000022_Node000023"><a xlink:title=" ">
<path fill="none" stroke="#63b8ff" d="M583.71,-396.57C559.73,-399.33 533.87,-402.31 511.63,-404.87"/>
<polygon fill="#63b8ff" stroke="#63b8ff" points="584.33,-400.02 593.86,-395.4 583.53,-393.07 584.33,-400.02"/>
</a>
</g>
</g>
<!-- Node24 -->
<g id="Node000024" class="node">
<title>Node24</title>
<g id="a_Node000024"><a xlink:href="../../d6/da9/classlamina_1_1ParametricSolver.html#aee41c6cf8efdfc5c7485cd104981d95b" target="_top" xlink:title="求解含参方程组，返回按参数条件分段的解">
<polygon fill="white" stroke="#666666" points="525.5,-378.45 381.5,-378.45 381.5,-348.45 525.5,-348.45 525.5,-378.45"/>
<text text-anchor="start" x="389.5" y="-366.45" font-family="Helvetica,sans-Serif" font-size="10.00">lamina::ParametricSolver</text>
<text text-anchor="middle" x="453.5" y="-355.45" font-family="Helvetica,sans-Serif" font-size="10.00">::solve_system_piecewise</text>
</a>
</g>
</g>
<!-- Node22&#45;&gt;Node24 -->
<g id="edge28_Node000022_Node000024" class="edge">
<title>Node22&#45;&gt;Node24</title>
<g id="a_edge28_Node000022_Node000024"><a xlink:title=" ">
<path fill="none" stroke="#63b8ff" d="M583.69,-378.32C564.59,-376.12 544.29,-373.78 525.59,-371.63"/>
<polygon fill="#63b8ff" stroke="#63b8ff" points="583.53,-381.82 593.86,-379.49 584.33,-374.87 583.53,-381.82"/>
</a>
</g>
</g>
</g>
</svg>
