<?xml version="1.0" encoding="UTF-8" standalone="no"?>
<!DOCTYPE svg PUBLIC "-//W3C//DTD SVG 1.1//EN"
 "http://www.w3.org/Graphics/SVG/1.1/DTD/svg11.dtd">
<!-- Generated by graphviz version 2.43.0 (0)
 -->
<!-- Title: lmmp_add_signed_ Pages: 1 -->
<!--zoomable 104 -->

<svg id="main" version="1.1" xmlns="http://www.w3.org/2000/svg" xmlns:xlink="http://www.w3.org/1999/xlink" xml:space="preserve" onload="init(evt)">
<style type="text/css"><![CDATA[
.node, .edge {opacity: 0.7;}
.node.selected, .edge.selected {opacity: 1;}
.edge:hover path { stroke: red; }
.edge:hover polygon { stroke: red; fill: red; }
]]></style>

<defs>
  <circle id="rim" cx="0" cy="0" r="7"/>
  <circle id="rim2" cx="0" cy="0" r="3.5"/>
  <g id="zoomPlus">
    <use xlink:href="#rim" fill="#404040"><set attributeName="fill" to="#808080" begin="zoomplus.mouseover" end="zoomplus.mouseout"/></use>
    <path d="M-4,0h8M0,-4v8" fill="none" stroke="white" stroke-width="1.5" pointer-events="none"/>
  </g>
  <g id="zoomMin">
    <use xlink:href="#rim" fill="#404040"><set attributeName="fill" to="#808080" begin="zoomminus.mouseover" end="zoomminus.mouseout"/></use>
    <path d="M-4,0h8" fill="none" stroke="white" stroke-width="1.5" pointer-events="none"/>
  </g>
  <g id="arrowUp" transform="translate(30 24)">
    <use xlink:href="#rim"/>
    <path pointer-events="none" fill="none" stroke="white" stroke-width="1.5" d="M0,-3.0v7 M-2.5,-0.5L0,-3.0L2.5,-0.5"/>
  </g>
  <g id="arrowRight" transform="rotate(90) translate(36 -43)">
    <use xlink:href="#rim"/>
    <path pointer-events="none" fill="none" stroke="white" stroke-width="1.5" d="M0,-3.0v7 M-2.5,-0.5L0,-3.0L2.5,-0.5"/>
  </g>
  <g id="arrowDown" transform="rotate(180) translate(-30 -48)">
    <use xlink:href="#rim"/>
    <path pointer-events="none" fill="none" stroke="white" stroke-width="1.5" d="M0,-3.0v7 M-2.5,-0.5L0,-3.0L2.5,-0.5"/>
  </g>
  <g id="arrowLeft" transform="rotate(270) translate(-36 17)">
    <use xlink:href="#rim"/>
    <path pointer-events="none" fill="none" stroke="white" stroke-width="1.5" d="M0,-3.0v7 M-2.5,-0.5L0,-3.0L2.5,-0.5"/>
  </g>
  <g id="resetDef">
    <use xlink:href="#rim2" fill="#404040"><set attributeName="fill" to="#808080" begin="reset.mouseover" end="reset.mouseout"/></use>
  </g>
</defs>
<script type="application/ecmascript">
var viewWidth = 658;
var viewHeight = 104;
var sectionId = 'dynsection-3';
</script>
<script type="application/ecmascript" xlink:href="../../svg.min.js"/>
<svg id="graph" class="graph">
<g id="viewport">
<title>lmmp_add_signed_</title>
<!-- Node1 -->
<g id="Node000001" class="node">
<title>Node1</title>
<g id="a_Node000001"><a xlink:title="计算带符号数的加法">
<polygon fill="#999999" stroke="#666666" points="650,-56.64 539,-56.64 539,-37.64 650,-37.64 650,-56.64"/>
<text text-anchor="middle" x="594.5" y="-44.64" font-family="Helvetica,sans-Serif" font-size="10.00">lmmp_add_signed_</text>
</a>
</g>
</g>
<!-- Node2 -->
<g id="Node000002" class="node">
<title>Node2</title>
<g id="a_Node000002"><a xlink:href="../../d5/d59/mat22__mul_8c.html#a5c0b549a62a36bb5d66c79b7b5c3c1f6" target="_top" xlink:title="计算2x2矩阵和2x2矩阵的乘积">
<polygon fill="white" stroke="#666666" points="309,-19.64 147,-19.64 147,-0.64 309,-0.64 309,-19.64"/>
<text text-anchor="middle" x="228" y="-7.64" font-family="Helvetica,sans-Serif" font-size="10.00">lmmp_mat22_mul_basecase_</text>
</a>
</g>
</g>
<!-- Node1&#45;&gt;Node2 -->
<g id="edge1_Node000001_Node000002" class="edge">
<title>Node1&#45;&gt;Node2</title>
<g id="a_edge1_Node000001_Node000002"><a xlink:title=" ">
<path fill="none" stroke="#63b8ff" d="M566.32,-33.21C548.76,-25 525.13,-15.42 503,-11.14 438.67,1.31 364.23,0.65 309.2,-2.61"/>
<polygon fill="#63b8ff" stroke="#63b8ff" points="564.87,-36.4 575.4,-37.58 567.91,-30.09 564.87,-36.4"/>
</a>
</g>
</g>
<!-- Node4 -->
<g id="Node000004" class="node">
<title>Node4</title>
<g id="a_Node000004"><a xlink:href="../../d5/d59/mat22__mul_8c.html#a4eb9fcf10c7baabf883aaea34851c8e4" target="_top" xlink:title="计算（稠密）2x2矩阵和（稠密）2x2矩阵的乘积（STRASSEN算法）">
<polygon fill="white" stroke="#666666" points="307,-93.64 149,-93.64 149,-74.64 307,-74.64 307,-93.64"/>
<text text-anchor="middle" x="228" y="-81.64" font-family="Helvetica,sans-Serif" font-size="10.00">lmmp_mat22_mul_strassen_</text>
</a>
</g>
</g>
<!-- Node1&#45;&gt;Node4 -->
<g id="edge3_Node000001_Node000004" class="edge">
<title>Node1&#45;&gt;Node4</title>
<g id="a_edge3_Node000001_Node000004"><a xlink:title=" ">
<path fill="none" stroke="#63b8ff" d="M567.4,-61.37C549.79,-70.15 525.69,-80.57 503,-85.14 437.95,-98.24 362.43,-96.77 307.17,-92.71"/>
<polygon fill="#63b8ff" stroke="#63b8ff" points="569.18,-64.4 576.47,-56.71 565.98,-58.17 569.18,-64.4"/>
</a>
</g>
</g>
<!-- Node5 -->
<g id="Node000005" class="node">
<title>Node5</title>
<g id="a_Node000005"><a xlink:href="../../d5/d59/mat22__mul_8c.html#abcf11e389d02c5e82ddb658ca5b61adf" target="_top" xlink:title="计算2x2矩阵平方">
<polygon fill="white" stroke="#666666" points="503,-38.64 345,-38.64 345,-19.64 503,-19.64 503,-38.64"/>
<text text-anchor="middle" x="424" y="-26.64" font-family="Helvetica,sans-Serif" font-size="10.00">lmmp_mat22_sqr_basecase_</text>
</a>
</g>
</g>
<!-- Node1&#45;&gt;Node5 -->
<g id="edge5_Node000001_Node000005" class="edge">
<title>Node1&#45;&gt;Node5</title>
<g id="a_edge5_Node000001_Node000005"><a xlink:title=" ">
<path fill="none" stroke="#63b8ff" d="M528.78,-40.22C520.44,-39.33 511.83,-38.41 503.3,-37.5"/>
<polygon fill="#63b8ff" stroke="#63b8ff" points="528.48,-43.71 538.79,-41.29 529.22,-36.75 528.48,-43.71"/>
</a>
</g>
</g>
<!-- Node7 -->
<g id="Node000007" class="node">
<title>Node7</title>
<g id="a_Node000007"><a xlink:href="../../d5/d59/mat22__mul_8c.html#a7f43460be57df96253f2cc65b124392c" target="_top" xlink:title="计算（稠密）2x2矩阵平方（STRASSEN算法）">
<polygon fill="white" stroke="#666666" points="501,-75.64 347,-75.64 347,-56.64 501,-56.64 501,-75.64"/>
<text text-anchor="middle" x="424" y="-63.64" font-family="Helvetica,sans-Serif" font-size="10.00">lmmp_mat22_sqr_strassen_</text>
</a>
</g>
</g>
<!-- Node1&#45;&gt;Node7 -->
<g id="edge8_Node000001_Node000007" class="edge">
<title>Node1&#45;&gt;Node7</title>
<g id="a_edge8_Node000001_Node000007"><a xlink:title=" ">
<path fill="none" stroke="#63b8ff" d="M528.76,-54.44C519.73,-55.46 510.38,-56.51 501.17,-57.55"/>
<polygon fill="#63b8ff" stroke="#63b8ff" points="529.25,-57.91 538.79,-53.31 528.46,-50.95 529.25,-57.91"/>
</a>
</g>
</g>
<!-- Node3 -->
<g id="Node000003" class="node">
<title>Node3</title>
<g id="a_Node000003"><a xlink:href="../../dd/df4/matrix_8h.html#a8d508e58d55aab936998e96bc9d883be" target="_top" xlink:title="计算2x2矩阵和2x2矩阵的乘积">
<polygon fill="white" stroke="#666666" points="111,-56.64 0,-56.64 0,-37.64 111,-37.64 111,-56.64"/>
<text text-anchor="middle" x="55.5" y="-44.64" font-family="Helvetica,sans-Serif" font-size="10.00">lmmp_mat22_mul_</text>
</a>
</g>
</g>
<!-- Node2&#45;&gt;Node3 -->
<g id="edge2_Node000002_Node000003" class="edge">
<title>Node2&#45;&gt;Node3</title>
<g id="a_edge2_Node000002_Node000003"><a xlink:title=" ">
<path fill="none" stroke="#63b8ff" d="M173.31,-21.79C149.89,-26.87 122.76,-32.76 100.56,-37.58"/>
<polygon fill="#63b8ff" stroke="#63b8ff" points="174.06,-25.21 183.09,-19.67 172.58,-18.37 174.06,-25.21"/>
</a>
</g>
</g>
<!-- Node4&#45;&gt;Node3 -->
<g id="edge4_Node000004_Node000003" class="edge">
<title>Node4&#45;&gt;Node3</title>
<g id="a_edge4_Node000004_Node000003"><a xlink:title=" ">
<path fill="none" stroke="#63b8ff" d="M173.31,-72.49C149.89,-67.4 122.76,-61.52 100.56,-56.7"/>
<polygon fill="#63b8ff" stroke="#63b8ff" points="172.58,-75.91 183.09,-74.61 174.06,-69.07 172.58,-75.91"/>
</a>
</g>
</g>
<!-- Node5&#45;&gt;Node2 -->
<g id="edge6_Node000005_Node000002" class="edge">
<title>Node5&#45;&gt;Node2</title>
<g id="a_edge6_Node000005_Node000002"><a xlink:title=" ">
<path fill="none" stroke="#63b8ff" d="M334.91,-20.51C326.31,-19.67 317.63,-18.82 309.12,-17.98"/>
<polygon fill="#63b8ff" stroke="#63b8ff" points="334.64,-24 344.93,-21.49 335.32,-17.03 334.64,-24"/>
</a>
</g>
</g>
<!-- Node6 -->
<g id="Node000006" class="node">
<title>Node6</title>
<g id="a_Node000006"><a xlink:href="../../dd/df4/matrix_8h.html#abba5682173069456f16523d8012f6735" target="_top" xlink:title="计算（稠密）2x2矩阵平方">
<polygon fill="white" stroke="#666666" points="281.5,-56.64 174.5,-56.64 174.5,-37.64 281.5,-37.64 281.5,-56.64"/>
<text text-anchor="middle" x="228" y="-44.64" font-family="Helvetica,sans-Serif" font-size="10.00">lmmp_mat22_sqr_</text>
</a>
</g>
</g>
<!-- Node5&#45;&gt;Node6 -->
<g id="edge7_Node000005_Node000006" class="edge">
<title>Node5&#45;&gt;Node6</title>
<g id="a_edge7_Node000005_Node000006"><a xlink:title=" ">
<path fill="none" stroke="#63b8ff" d="M334.89,-37.31C316.7,-39 298.09,-40.73 281.64,-42.25"/>
<polygon fill="#63b8ff" stroke="#63b8ff" points="335.3,-40.79 344.93,-36.38 334.65,-33.82 335.3,-40.79"/>
</a>
</g>
</g>
<!-- Node7&#45;&gt;Node4 -->
<g id="edge9_Node000007_Node000004" class="edge">
<title>Node7&#45;&gt;Node4</title>
<g id="a_edge9_Node000007_Node000004"><a xlink:title=" ">
<path fill="none" stroke="#63b8ff" d="M336.7,-74.15C326.85,-75.06 316.86,-75.99 307.13,-76.89"/>
<polygon fill="#63b8ff" stroke="#63b8ff" points="337.25,-77.61 346.88,-73.2 336.6,-70.64 337.25,-77.61"/>
</a>
</g>
</g>
<!-- Node7&#45;&gt;Node6 -->
<g id="edge10_Node000007_Node000006" class="edge">
<title>Node7&#45;&gt;Node6</title>
<g id="a_edge10_Node000007_Node000006"><a xlink:title=" ">
<path fill="none" stroke="#63b8ff" d="M336.8,-57.7C317.98,-55.85 298.6,-53.95 281.56,-52.29"/>
<polygon fill="#63b8ff" stroke="#63b8ff" points="336.59,-61.19 346.88,-58.68 337.27,-54.22 336.59,-61.19"/>
</a>
</g>
</g>
</g>
</svg>

<g id="navigator" transform="translate(0 0)" fill="#404254">
  <rect fill="#f2f5e9" fill-opacity="0.5" stroke="#606060" stroke-width=".5" x="0" y="0" width="60" height="60"/>
  <use id="zoomplus" xlink:href="#zoomPlus" x="17" y="9" onmousedown="handleZoom(evt,'in')"/>
  <use id="zoomminus" xlink:href="#zoomMin" x="42" y="9" onmousedown="handleZoom(evt,'out')"/>
  <use id="reset" xlink:href="#resetDef" x="30" y="36" onmousedown="handleReset()"/>
   <use id="arrowup" xlink:href="#arrowUp" x="0" y="0" onmousedown="handlePan(0,-1)"/>
  <use id="arrowright" xlink:href="#arrowRight" x="0" y="0" onmousedown="handlePan(1,0)"/>
  <use id="arrowdown" xlink:href="#arrowDown" x="0" y="0" onmousedown="handlePan(0,1)"/>
  <use id="arrowleft" xlink:href="#arrowLeft" x="0" y="0" onmousedown="handlePan(-1,0)"/>
</g>
<svg viewBox="0 0 15 15" width="100%" height="30px" preserveAspectRatio="xMaxYMin meet">
 <g id="arrow_out" transform="scale(0.3 0.3)">
  <a xlink:href="signed_8h_ab9ef0079c578d3101ede3d9e109fa0bc_icgraph_org.svg" target="_base">
   <rect id="button" ry="5" rx="5" y="6" x="6" height="38" width="38"
        fill="#f2f5e9" fill-opacity="0.5" stroke="#606060" stroke-width="1.0"/>
   <path id="arrow"
     d="M 11.500037,31.436501 C 11.940474,20.09759 22.043105,11.32322 32.158766,21.979434 L 37.068811,17.246167 C 37.068811,17.246167 37.088388,32 37.088388,32 L 22.160133,31.978069 C 22.160133,31.978069 26.997745,27.140456 26.997745,27.140456 C 18.528582,18.264221 13.291696,25.230495 11.500037,31.436501 z"
     style="fill:#404040;"/>
  </a>
 </g>
</svg>

<style type='text/css'>
<![CDATA[
[data-mouse-over-selected='false'] { opacity: 0.7; }
[data-mouse-over-selected='true']  { opacity: 1.0; }
]]>
</style>
<script type="application/ecmascript"><![CDATA[
document.addEventListener('DOMContentLoaded', (event) => {
  highlightEdges();
  highlightAdjacentNodes();
});
]]></script>
</svg>
