<?xml version="1.0" encoding="UTF-8" standalone="no"?>
<!DOCTYPE svg PUBLIC "-//W3C//DTD SVG 1.1//EN"
 "http://www.w3.org/Graphics/SVG/1.1/DTD/svg11.dtd">
<!-- Generated by graphviz version 2.43.0 (0)
 -->
<!-- Title: LogicalNode Pages: 1 -->
<!--zoomable 1209 -->

<svg id="main" version="1.1" xmlns="http://www.w3.org/2000/svg" xmlns:xlink="http://www.w3.org/1999/xlink" xml:space="preserve" onload="init(evt)">
<style type="text/css"><![CDATA[
.node, .edge {opacity: 0.7;}
.node.selected, .edge.selected {opacity: 1;}
.edge:hover path { stroke: red; }
.edge:hover polygon { stroke: red; fill: red; }
]]></style>

<defs>
  <circle id="rim" cx="0" cy="0" r="7"/>
  <circle id="rim2" cx="0" cy="0" r="3.5"/>
  <g id="zoomPlus">
    <use xlink:href="#rim" fill="#404040"><set attributeName="fill" to="#808080" begin="zoomplus.mouseover" end="zoomplus.mouseout"/></use>
    <path d="M-4,0h8M0,-4v8" fill="none" stroke="white" stroke-width="1.5" pointer-events="none"/>
  </g>
  <g id="zoomMin">
    <use xlink:href="#rim" fill="#404040"><set attributeName="fill" to="#808080" begin="zoomminus.mouseover" end="zoomminus.mouseout"/></use>
    <path d="M-4,0h8" fill="none" stroke="white" stroke-width="1.5" pointer-events="none"/>
  </g>
  <g id="arrowUp" transform="translate(30 24)">
    <use xlink:href="#rim"/>
    <path pointer-events="none" fill="none" stroke="white" stroke-width="1.5" d="M0,-3.0v7 M-2.5,-0.5L0,-3.0L2.5,-0.5"/>
  </g>
  <g id="arrowRight" transform="rotate(90) translate(36 -43)">
    <use xlink:href="#rim"/>
    <path pointer-events="none" fill="none" stroke="white" stroke-width="1.5" d="M0,-3.0v7 M-2.5,-0.5L0,-3.0L2.5,-0.5"/>
  </g>
  <g id="arrowDown" transform="rotate(180) translate(-30 -48)">
    <use xlink:href="#rim"/>
    <path pointer-events="none" fill="none" stroke="white" stroke-width="1.5" d="M0,-3.0v7 M-2.5,-0.5L0,-3.0L2.5,-0.5"/>
  </g>
  <g id="arrowLeft" transform="rotate(270) translate(-36 17)">
    <use xlink:href="#rim"/>
    <path pointer-events="none" fill="none" stroke="white" stroke-width="1.5" d="M0,-3.0v7 M-2.5,-0.5L0,-3.0L2.5,-0.5"/>
  </g>
  <g id="resetDef">
    <use xlink:href="#rim2" fill="#404040"><set attributeName="fill" to="#808080" begin="reset.mouseover" end="reset.mouseout"/></use>
  </g>
</defs>
<script type="application/ecmascript">
var viewWidth = 448;
var viewHeight = 1209;
var sectionId = 'dynsection-1';
</script>
<script type="application/ecmascript" xlink:href="../../svg.min.js"/>
<svg id="graph" class="graph">
<g id="viewport">
<title>LogicalNode</title>
<!-- Node1 -->
<g id="Node000001" class="node">
<title>Node1</title>
<g id="a_Node000001"><a xlink:title="逻辑运算节点，表示 And/Or 逻辑组合。">
<polygon fill="#999999" stroke="transparent" points="405,-249 226,-249 226,0 405,0 405,-249"/>
<text text-anchor="start" x="285.5" y="-236.5" font-family="Helvetica,sans-Serif" font-size="10.00">LogicalNode</text>
<text text-anchor="start" x="314" y="-221.5" font-family="Helvetica,sans-Serif" font-size="10.00"> </text>
<text text-anchor="start" x="230.5" y="-206.5" font-family="Helvetica,sans-Serif" font-size="10.00">+</text>
<text text-anchor="start" x="243.5" y="-206.5" font-family="Helvetica,sans-Serif" font-size="10.00">LogicalNode(std::shared</text>
<text text-anchor="start" x="243.5" y="-195.5" font-family="Helvetica,sans-Serif" font-size="10.00">_ptr&lt; SymbolicNode &gt; l,</text>
<text text-anchor="start" x="243.5" y="-184.5" font-family="Helvetica,sans-Serif" font-size="10.00"> std::shared_ptr&lt; SymbolicNode</text>
<text text-anchor="start" x="243.5" y="-173.5" font-family="Helvetica,sans-Serif" font-size="10.00"> &gt; r, Op o)</text>
<text text-anchor="start" x="230.5" y="-158.5" font-family="Helvetica,sans-Serif" font-size="10.00">+</text>
<text text-anchor="start" x="243.5" y="-158.5" font-family="Helvetica,sans-Serif" font-size="10.00">void accept(SymbolicVisitor</text>
<text text-anchor="start" x="243.5" y="-147.5" font-family="Helvetica,sans-Serif" font-size="10.00"> &amp;visitor) override</text>
<text text-anchor="start" x="230.5" y="-132.5" font-family="Helvetica,sans-Serif" font-size="10.00">+</text>
<text text-anchor="start" x="243.5" y="-132.5" font-family="Helvetica,sans-Serif" font-size="10.00">std::shared_ptr&lt; Symbolic</text>
<text text-anchor="start" x="243.5" y="-121.5" font-family="Helvetica,sans-Serif" font-size="10.00">Node &gt; clone() const override</text>
<text text-anchor="start" x="230.5" y="-106.5" font-family="Helvetica,sans-Serif" font-size="10.00">+</text>
<text text-anchor="start" x="243.5" y="-106.5" font-family="Helvetica,sans-Serif" font-size="10.00">int compare_same_type</text>
<text text-anchor="start" x="243.5" y="-95.5" font-family="Helvetica,sans-Serif" font-size="10.00">(const SymbolicNode &amp;other)</text>
<text text-anchor="start" x="243.5" y="-84.5" font-family="Helvetica,sans-Serif" font-size="10.00"> const override</text>
<text text-anchor="start" x="230.5" y="-69.5" font-family="Helvetica,sans-Serif" font-size="10.00">+</text>
<text text-anchor="start" x="243.5" y="-69.5" font-family="Helvetica,sans-Serif" font-size="10.00">std::size_t compute</text>
<text text-anchor="start" x="243.5" y="-58.5" font-family="Helvetica,sans-Serif" font-size="10.00">_hash() const override</text>
<text text-anchor="start" x="230.5" y="-43.5" font-family="Helvetica,sans-Serif" font-size="10.00">+</text>
<text text-anchor="start" x="243.5" y="-43.5" font-family="Helvetica,sans-Serif" font-size="10.00">int type_priority()</text>
<text text-anchor="start" x="243.5" y="-32.5" font-family="Helvetica,sans-Serif" font-size="10.00"> const override</text>
<text text-anchor="start" x="230.5" y="-17.5" font-family="Helvetica,sans-Serif" font-size="10.00">+</text>
<text text-anchor="start" x="243.5" y="-17.5" font-family="Helvetica,sans-Serif" font-size="10.00">static std::string</text>
<text text-anchor="start" x="243.5" y="-6.5" font-family="Helvetica,sans-Serif" font-size="10.00"> op_to_string(Op op)</text>
<polygon fill="#666666" stroke="#666666" points="226.5,-231.5 226.5,-231.5 405.5,-231.5 405.5,-231.5 226.5,-231.5"/>
<polygon fill="#666666" stroke="#666666" points="226.5,-216.5 226.5,-216.5 405.5,-216.5 405.5,-216.5 226.5,-216.5"/>
<polygon fill="none" stroke="#666666" points="226,0 226,-249 405,-249 405,0 226,0"/>
</a>
</g>
</g>
<!-- Node2 -->
<g id="Node000002" class="node">
<title>Node2</title>
<g id="a_Node000002"><a xlink:href="../../dc/dc3/classSymbolicNode.html" target="_top" xlink:title="符号表达式 AST 节点基类。">
<polygon fill="white" stroke="transparent" points="297.5,-875 113.5,-875 113.5,-414 297.5,-414 297.5,-875"/>
<text text-anchor="start" x="170" y="-862.5" font-family="Helvetica,sans-Serif" font-size="10.00">SymbolicNode</text>
<text text-anchor="start" x="203.5" y="-847.5" font-family="Helvetica,sans-Serif" font-size="10.00"> </text>
<text text-anchor="start" x="117.5" y="-832.5" font-family="Helvetica,sans-Serif" font-size="10.00">+</text>
<text text-anchor="start" x="130.5" y="-832.5" font-family="Helvetica,sans-Serif" font-size="10.00">virtual ~SymbolicNode</text>
<text text-anchor="start" x="130.5" y="-821.5" font-family="Helvetica,sans-Serif" font-size="10.00">()=default</text>
<text text-anchor="start" x="117.5" y="-806.5" font-family="Helvetica,sans-Serif" font-size="10.00">+</text>
<text text-anchor="start" x="130.5" y="-806.5" font-family="Helvetica,sans-Serif" font-size="10.00">virtual void accept</text>
<text text-anchor="start" x="130.5" y="-795.5" font-family="Helvetica,sans-Serif" font-size="10.00">(SymbolicVisitor &amp;visitor)=0</text>
<text text-anchor="start" x="117.5" y="-780.5" font-family="Helvetica,sans-Serif" font-size="10.00">+</text>
<text text-anchor="start" x="130.5" y="-780.5" font-family="Helvetica,sans-Serif" font-size="10.00">virtual std::shared</text>
<text text-anchor="start" x="130.5" y="-769.5" font-family="Helvetica,sans-Serif" font-size="10.00">_ptr&lt; SymbolicNode &gt;</text>
<text text-anchor="start" x="130.5" y="-758.5" font-family="Helvetica,sans-Serif" font-size="10.00"> clone() const =0</text>
<text text-anchor="start" x="117.5" y="-743.5" font-family="Helvetica,sans-Serif" font-size="10.00">+</text>
<text text-anchor="start" x="130.5" y="-743.5" font-family="Helvetica,sans-Serif" font-size="10.00">int compare(const Symbolic</text>
<text text-anchor="start" x="130.5" y="-732.5" font-family="Helvetica,sans-Serif" font-size="10.00">Node &amp;other) const</text>
<text text-anchor="start" x="117.5" y="-717.5" font-family="Helvetica,sans-Serif" font-size="10.00">+</text>
<text text-anchor="start" x="130.5" y="-717.5" font-family="Helvetica,sans-Serif" font-size="10.00">bool equals(const Symbolic</text>
<text text-anchor="start" x="130.5" y="-706.5" font-family="Helvetica,sans-Serif" font-size="10.00">Node &amp;other) const</text>
<text text-anchor="start" x="117.5" y="-691.5" font-family="Helvetica,sans-Serif" font-size="10.00">+</text>
<text text-anchor="start" x="130.5" y="-691.5" font-family="Helvetica,sans-Serif" font-size="10.00">std::size_t hash()</text>
<text text-anchor="start" x="130.5" y="-680.5" font-family="Helvetica,sans-Serif" font-size="10.00"> const</text>
<text text-anchor="start" x="117.5" y="-665.5" font-family="Helvetica,sans-Serif" font-size="10.00">+</text>
<text text-anchor="start" x="130.5" y="-665.5" font-family="Helvetica,sans-Serif" font-size="10.00">virtual bool is_number</text>
<text text-anchor="start" x="130.5" y="-654.5" font-family="Helvetica,sans-Serif" font-size="10.00">() const</text>
<text text-anchor="start" x="117.5" y="-639.5" font-family="Helvetica,sans-Serif" font-size="10.00">+</text>
<text text-anchor="start" x="130.5" y="-639.5" font-family="Helvetica,sans-Serif" font-size="10.00">virtual bool is_one</text>
<text text-anchor="start" x="130.5" y="-628.5" font-family="Helvetica,sans-Serif" font-size="10.00">() const</text>
<text text-anchor="start" x="117.5" y="-613.5" font-family="Helvetica,sans-Serif" font-size="10.00">+</text>
<text text-anchor="start" x="130.5" y="-613.5" font-family="Helvetica,sans-Serif" font-size="10.00">virtual bool is_positive</text>
<text text-anchor="start" x="130.5" y="-602.5" font-family="Helvetica,sans-Serif" font-size="10.00">() const</text>
<text text-anchor="start" x="117.5" y="-587.5" font-family="Helvetica,sans-Serif" font-size="10.00">+</text>
<text text-anchor="start" x="130.5" y="-587.5" font-family="Helvetica,sans-Serif" font-size="10.00">virtual bool is_zero</text>
<text text-anchor="start" x="130.5" y="-576.5" font-family="Helvetica,sans-Serif" font-size="10.00">() const</text>
<text text-anchor="start" x="117.5" y="-561.5" font-family="Helvetica,sans-Serif" font-size="10.00">+</text>
<text text-anchor="start" x="130.5" y="-561.5" font-family="Helvetica,sans-Serif" font-size="10.00">virtual int type_priority</text>
<text text-anchor="start" x="130.5" y="-550.5" font-family="Helvetica,sans-Serif" font-size="10.00">() const =0</text>
<text text-anchor="start" x="117.5" y="-535.5" font-family="Helvetica,sans-Serif" font-size="10.00">#</text>
<text text-anchor="start" x="130.5" y="-535.5" font-family="Helvetica,sans-Serif" font-size="10.00">SymbolicNode()=default</text>
<text text-anchor="start" x="117.5" y="-520.5" font-family="Helvetica,sans-Serif" font-size="10.00">#</text>
<text text-anchor="start" x="130.5" y="-520.5" font-family="Helvetica,sans-Serif" font-size="10.00">SymbolicNode(const</text>
<text text-anchor="start" x="130.5" y="-509.5" font-family="Helvetica,sans-Serif" font-size="10.00"> SymbolicNode &amp;)</text>
<text text-anchor="start" x="117.5" y="-494.5" font-family="Helvetica,sans-Serif" font-size="10.00">#</text>
<text text-anchor="start" x="130.5" y="-494.5" font-family="Helvetica,sans-Serif" font-size="10.00">virtual int compare</text>
<text text-anchor="start" x="130.5" y="-483.5" font-family="Helvetica,sans-Serif" font-size="10.00">_same_type(const SymbolicNode</text>
<text text-anchor="start" x="130.5" y="-472.5" font-family="Helvetica,sans-Serif" font-size="10.00"> &amp;other) const =0</text>
<text text-anchor="start" x="117.5" y="-457.5" font-family="Helvetica,sans-Serif" font-size="10.00">#</text>
<text text-anchor="start" x="130.5" y="-457.5" font-family="Helvetica,sans-Serif" font-size="10.00">virtual std::size_t</text>
<text text-anchor="start" x="130.5" y="-446.5" font-family="Helvetica,sans-Serif" font-size="10.00"> compute_hash() const =0</text>
<text text-anchor="start" x="117.5" y="-431.5" font-family="Helvetica,sans-Serif" font-size="10.00">#</text>
<text text-anchor="start" x="130.5" y="-431.5" font-family="Helvetica,sans-Serif" font-size="10.00">SymbolicNode &amp; operator</text>
<text text-anchor="start" x="130.5" y="-420.5" font-family="Helvetica,sans-Serif" font-size="10.00">=(const SymbolicNode &amp;)</text>
<polygon fill="#666666" stroke="#666666" points="113.5,-857.5 113.5,-857.5 297.5,-857.5 297.5,-857.5 113.5,-857.5"/>
<polygon fill="#666666" stroke="#666666" points="113.5,-842.5 113.5,-842.5 297.5,-842.5 297.5,-842.5 113.5,-842.5"/>
<polygon fill="none" stroke="#666666" points="113.5,-414 113.5,-875 297.5,-875 297.5,-414 113.5,-414"/>
</a>
</g>
</g>
<!-- Node2&#45;&gt;Node1 -->
<g id="edge1_Node000001_Node000002" class="edge">
<title>Node2&#45;&gt;Node1</title>
<g id="a_edge1_Node000001_Node000002"><a xlink:title=" ">
<path fill="none" stroke="#63b8ff" d="M206.99,-403.71C210.68,-370.88 216.27,-337.87 224.5,-307 229.65,-287.67 236.99,-267.99 245.3,-249.07"/>
<polygon fill="none" stroke="#63b8ff" points="203.49,-403.58 205.91,-413.89 210.45,-404.32 203.49,-403.58"/>
</a>
</g>
</g>
<!-- Node9 -->
<g id="Node000009" class="node">
<title>Node9</title>
<g id="a_Node000009"><a xlink:title=" ">
<polygon fill="white" stroke="transparent" points="397.5,-367 233.5,-367 233.5,-307 397.5,-307 397.5,-367"/>
<text text-anchor="start" x="250.5" y="-355" font-family="Helvetica,sans-Serif" font-size="10.00">std::shared_ptr&lt; Symbolic</text>
<text text-anchor="start" x="297" y="-344" font-family="Helvetica,sans-Serif" font-size="10.00">Node &gt;</text>
<text text-anchor="start" x="313.5" y="-329" font-family="Helvetica,sans-Serif" font-size="10.00"> </text>
<text text-anchor="start" x="237.5" y="-314" font-family="Helvetica,sans-Serif" font-size="10.00">+</text>
<text text-anchor="start" x="250.5" y="-314" font-family="Helvetica,sans-Serif" font-size="10.00">SymbolicNode * operator&#45;&gt;()</text>
<polygon fill="#666666" stroke="#666666" points="233.5,-339 233.5,-339 397.5,-339 397.5,-339 233.5,-339"/>
<polygon fill="#666666" stroke="#666666" points="233.5,-324 233.5,-324 397.5,-324 397.5,-324 233.5,-324"/>
<polygon fill="none" stroke="#666666" points="233.5,-307 233.5,-367 397.5,-367 397.5,-307 233.5,-307"/>
</a>
</g>
</g>
<!-- Node2&#45;&gt;Node9 -->
<g id="edge10_Node000009_Node000002" class="edge">
<title>Node2&#45;&gt;Node9</title>
<g id="a_edge10_Node000009_Node000002"><a xlink:title=" ">
<path fill="none" stroke="#63b8ff" d="M274.04,-413.99C278.05,-404.12 282.2,-394.41 286.5,-385 287.6,-382.59 288.8,-380.15 290.07,-377.72"/>
<polygon fill="none" stroke="#63b8ff" points="290.08,-377.69 289.51,-370.51 295.93,-367.22 296.5,-374.41 290.08,-377.69"/>
</a>
</g>
<text text-anchor="middle" x="299" y="-388" font-family="Helvetica,sans-Serif" font-size="10.00" fill="grey"> +ptr</text>
</g>
<!-- Node3 -->
<g id="Node000003" class="node">
<title>Node3</title>
<g id="a_Node000003"><a xlink:title=" ">
<polygon fill="white" stroke="transparent" points="137,-971 0,-971 0,-922 137,-922 137,-971"/>
<text text-anchor="start" x="5.5" y="-958.5" font-family="Helvetica,sans-Serif" font-size="10.00">std::atomic&lt; std::size_t &gt;</text>
<text text-anchor="start" x="67" y="-943.5" font-family="Helvetica,sans-Serif" font-size="10.00"> </text>
<text text-anchor="start" x="67" y="-928.5" font-family="Helvetica,sans-Serif" font-size="10.00"> </text>
<polygon fill="#666666" stroke="#666666" points="0.5,-953.5 0.5,-953.5 137.5,-953.5 137.5,-953.5 0.5,-953.5"/>
<polygon fill="#666666" stroke="#666666" points="0.5,-938.5 0.5,-938.5 137.5,-938.5 137.5,-938.5 0.5,-938.5"/>
<polygon fill="none" stroke="#666666" points="0,-922 0,-971 137,-971 137,-922 0,-922"/>
</a>
</g>
</g>
<!-- Node3&#45;&gt;Node2 -->
<g id="edge2_Node000002_Node000003" class="edge">
<title>Node3&#45;&gt;Node2</title>
<g id="a_edge2_Node000002_Node000003"><a xlink:title=" ">
<path fill="none" stroke="#63b8ff" d="M79.25,-921.96C86.45,-906.19 96.72,-883.7 108.33,-858.27"/>
<polygon fill="none" stroke="#63b8ff" points="108.4,-858.13 107.25,-851.01 113.39,-847.21 114.53,-854.33 108.4,-858.13"/>
</a>
</g>
<text text-anchor="middle" x="129" y="-896" font-family="Helvetica,sans-Serif" font-size="10.00" fill="grey"> #cached_hash</text>
</g>
<!-- Node4 -->
<g id="Node000004" class="node">
<title>Node4</title>
<g id="a_Node000004"><a xlink:title=" ">
<polygon fill="white" stroke="transparent" points="42,-1105 3,-1105 3,-1056 42,-1056 42,-1105"/>
<text text-anchor="start" x="8.5" y="-1092.5" font-family="Helvetica,sans-Serif" font-size="10.00">size_t</text>
<text text-anchor="start" x="21" y="-1077.5" font-family="Helvetica,sans-Serif" font-size="10.00"> </text>
<text text-anchor="start" x="21" y="-1062.5" font-family="Helvetica,sans-Serif" font-size="10.00"> </text>
<polygon fill="#666666" stroke="#666666" points="3.5,-1087.5 3.5,-1087.5 42.5,-1087.5 42.5,-1087.5 3.5,-1087.5"/>
<polygon fill="#666666" stroke="#666666" points="3.5,-1072.5 3.5,-1072.5 42.5,-1072.5 42.5,-1072.5 3.5,-1072.5"/>
<polygon fill="none" stroke="#666666" points="3,-1056 3,-1105 42,-1105 42,-1056 3,-1056"/>
</a>
</g>
</g>
<!-- Node4&#45;&gt;Node3 -->
<g id="edge3_Node000003_Node000004" class="edge">
<title>Node4&#45;&gt;Node3</title>
<g id="a_edge3_Node000003_Node000004"><a xlink:title=" ">
<path fill="none" stroke="#63b8ff" d="M17.78,-1055.73C15.18,-1036.81 14.11,-1010.1 23.5,-989 24.83,-986.01 26.49,-983.13 28.39,-980.4"/>
<polygon fill="none" stroke="#63b8ff" points="28.44,-980.33 29.18,-973.16 36.09,-971.09 35.35,-978.26 28.44,-980.33"/>
</a>
</g>
<text text-anchor="middle" x="36" y="-1011" font-family="Helvetica,sans-Serif" font-size="10.00" fill="grey"> +ptr</text>
</g>
<!-- Node5 -->
<g id="Node000005" class="node">
<title>Node5</title>
<g id="a_Node000005"><a xlink:title=" ">
<polygon fill="white" stroke="transparent" points="205.5,-1105 111.5,-1105 111.5,-1056 205.5,-1056 205.5,-1105"/>
<text text-anchor="start" x="116.5" y="-1092.5" font-family="Helvetica,sans-Serif" font-size="10.00">std::atomic&lt; T &gt;</text>
<text text-anchor="start" x="156.5" y="-1077.5" font-family="Helvetica,sans-Serif" font-size="10.00"> </text>
<text text-anchor="start" x="156.5" y="-1062.5" font-family="Helvetica,sans-Serif" font-size="10.00"> </text>
<polygon fill="#666666" stroke="#666666" points="111.5,-1087.5 111.5,-1087.5 205.5,-1087.5 205.5,-1087.5 111.5,-1087.5"/>
<polygon fill="#666666" stroke="#666666" points="111.5,-1072.5 111.5,-1072.5 205.5,-1072.5 205.5,-1072.5 111.5,-1072.5"/>
<polygon fill="none" stroke="#666666" points="111.5,-1056 111.5,-1105 205.5,-1105 205.5,-1056 111.5,-1056"/>
</a>
</g>
</g>
<!-- Node5&#45;&gt;Node3 -->
<g id="edge4_Node000003_Node000005" class="edge">
<title>Node5&#45;&gt;Node3</title>
<g id="a_edge4_Node000003_Node000005"><a xlink:title=" ">
<path fill="none" stroke="orange" d="M102.4,-1060.19C92.72,-1054.47 83.77,-1047.2 77.5,-1038 64.16,-1018.43 63.36,-990.72 64.99,-971.13"/>
<polygon fill="orange" stroke="orange" points="100.97,-1063.4 111.44,-1065.02 104.27,-1057.22 100.97,-1063.4"/>
</a>
</g>
<text text-anchor="middle" x="115.5" y="-1011" font-family="Helvetica,sans-Serif" font-size="10.00" fill="grey"> &lt; std::size_t &gt;</text>
</g>
<!-- Node7 -->
<g id="Node000007" class="node">
<title>Node7</title>
<g id="a_Node000007"><a xlink:title=" ">
<polygon fill="white" stroke="transparent" points="264,-971 155,-971 155,-922 264,-922 264,-971"/>
<text text-anchor="start" x="160.5" y="-958.5" font-family="Helvetica,sans-Serif" font-size="10.00">std::atomic&lt; bool &gt;</text>
<text text-anchor="start" x="208" y="-943.5" font-family="Helvetica,sans-Serif" font-size="10.00"> </text>
<text text-anchor="start" x="208" y="-928.5" font-family="Helvetica,sans-Serif" font-size="10.00"> </text>
<polygon fill="#666666" stroke="#666666" points="155.5,-953.5 155.5,-953.5 264.5,-953.5 264.5,-953.5 155.5,-953.5"/>
<polygon fill="#666666" stroke="#666666" points="155.5,-938.5 155.5,-938.5 264.5,-938.5 264.5,-938.5 155.5,-938.5"/>
<polygon fill="none" stroke="#666666" points="155,-922 155,-971 264,-971 264,-922 155,-922"/>
</a>
</g>
</g>
<!-- Node5&#45;&gt;Node7 -->
<g id="edge8_Node000007_Node000005" class="edge">
<title>Node5&#45;&gt;Node7</title>
<g id="a_edge8_Node000007_Node000005"><a xlink:title=" ">
<path fill="none" stroke="orange" d="M157.04,-1045.27C157.56,-1027.69 160.22,-1006.37 168.5,-989 171.55,-982.6 176,-976.6 180.85,-971.25"/>
<polygon fill="orange" stroke="orange" points="153.53,-1045.63 156.96,-1055.66 160.53,-1045.69 153.53,-1045.63"/>
</a>
</g>
<text text-anchor="middle" x="192" y="-1011" font-family="Helvetica,sans-Serif" font-size="10.00" fill="grey"> &lt; bool &gt;</text>
</g>
<!-- Node6 -->
<g id="Node000006" class="node">
<title>Node6</title>
<g id="a_Node000006"><a xlink:title=" ">
<polygon fill="white" stroke="transparent" points="240,-1201 223,-1201 223,-1152 240,-1152 240,-1201"/>
<text text-anchor="start" x="228.5" y="-1188.5" font-family="Helvetica,sans-Serif" font-size="10.00">T</text>
<text text-anchor="start" x="230" y="-1173.5" font-family="Helvetica,sans-Serif" font-size="10.00"> </text>
<text text-anchor="start" x="230" y="-1158.5" font-family="Helvetica,sans-Serif" font-size="10.00"> </text>
<polygon fill="#666666" stroke="#666666" points="223.5,-1183.5 223.5,-1183.5 240.5,-1183.5 240.5,-1183.5 223.5,-1183.5"/>
<polygon fill="#666666" stroke="#666666" points="223.5,-1168.5 223.5,-1168.5 240.5,-1168.5 240.5,-1168.5 223.5,-1168.5"/>
<polygon fill="none" stroke="#666666" points="223,-1152 223,-1201 240,-1201 240,-1152 223,-1152"/>
</a>
</g>
</g>
<!-- Node6&#45;&gt;Node5 -->
<g id="edge5_Node000005_Node000006" class="edge">
<title>Node6&#45;&gt;Node5</title>
<g id="a_edge5_Node000005_Node000006"><a xlink:title=" ">
<path fill="none" stroke="#63b8ff" d="M222.84,-1164.35C213.43,-1152.23 197.95,-1132.3 184.53,-1115.01"/>
<polygon fill="none" stroke="#63b8ff" points="184.29,-1114.7 177.45,-1112.42 176.93,-1105.23 183.76,-1107.51 184.29,-1114.7"/>
</a>
</g>
<text text-anchor="middle" x="210" y="-1126" font-family="Helvetica,sans-Serif" font-size="10.00" fill="grey"> +ptr</text>
</g>
<!-- Node10 -->
<g id="Node000010" class="node">
<title>Node10</title>
<g id="a_Node000010"><a xlink:title=" ">
<polygon fill="white" stroke="transparent" points="381.5,-1038 269.5,-1038 269.5,-989 381.5,-989 381.5,-1038"/>
<text text-anchor="start" x="274.5" y="-1025.5" font-family="Helvetica,sans-Serif" font-size="10.00">std::shared_ptr&lt; T &gt;</text>
<text text-anchor="start" x="323.5" y="-1010.5" font-family="Helvetica,sans-Serif" font-size="10.00"> </text>
<text text-anchor="start" x="276.5" y="-995.5" font-family="Helvetica,sans-Serif" font-size="10.00">+</text>
<text text-anchor="start" x="292.5" y="-995.5" font-family="Helvetica,sans-Serif" font-size="10.00">T * operator&#45;&gt;()</text>
<polygon fill="#666666" stroke="#666666" points="269.5,-1020.5 269.5,-1020.5 381.5,-1020.5 381.5,-1020.5 269.5,-1020.5"/>
<polygon fill="#666666" stroke="#666666" points="269.5,-1005.5 269.5,-1005.5 381.5,-1005.5 381.5,-1005.5 269.5,-1005.5"/>
<polygon fill="none" stroke="#666666" points="269.5,-989 269.5,-1038 381.5,-1038 381.5,-989 269.5,-989"/>
</a>
</g>
</g>
<!-- Node6&#45;&gt;Node10 -->
<g id="edge12_Node000010_Node000006" class="edge">
<title>Node6&#45;&gt;Node10</title>
<g id="a_edge12_Node000010_Node000006"><a xlink:title=" ">
<path fill="none" stroke="#63b8ff" d="M240.01,-1160.93C254.69,-1135.78 285.15,-1083.6 305.47,-1048.81"/>
<polygon fill="none" stroke="#63b8ff" points="305.62,-1048.55 305.19,-1041.35 311.67,-1038.19 312.1,-1045.38 305.62,-1048.55"/>
</a>
</g>
<text text-anchor="middle" x="274" y="-1126" font-family="Helvetica,sans-Serif" font-size="10.00" fill="grey"> +ptr</text>
</g>
<!-- Node7&#45;&gt;Node2 -->
<g id="edge6_Node000002_Node000007" class="edge">
<title>Node7&#45;&gt;Node2</title>
<g id="a_edge6_Node000002_Node000007"><a xlink:title=" ">
<path fill="none" stroke="#63b8ff" d="M209.19,-921.96C209.06,-912.56 208.9,-900.77 208.73,-887.4"/>
<polygon fill="none" stroke="#63b8ff" points="208.72,-887.26 204.64,-881.31 208.56,-875.26 212.64,-881.2 208.72,-887.26"/>
</a>
</g>
<text text-anchor="middle" x="254" y="-896" font-family="Helvetica,sans-Serif" font-size="10.00" fill="grey"> #hash_computed</text>
</g>
<!-- Node8 -->
<g id="Node000008" class="node">
<title>Node8</title>
<g id="a_Node000008"><a xlink:title=" ">
<polygon fill="white" stroke="transparent" points="255.5,-1105 223.5,-1105 223.5,-1056 255.5,-1056 255.5,-1105"/>
<text text-anchor="start" x="228.5" y="-1092.5" font-family="Helvetica,sans-Serif" font-size="10.00">bool</text>
<text text-anchor="start" x="237.5" y="-1077.5" font-family="Helvetica,sans-Serif" font-size="10.00"> </text>
<text text-anchor="start" x="237.5" y="-1062.5" font-family="Helvetica,sans-Serif" font-size="10.00"> </text>
<polygon fill="#666666" stroke="#666666" points="223.5,-1087.5 223.5,-1087.5 255.5,-1087.5 255.5,-1087.5 223.5,-1087.5"/>
<polygon fill="#666666" stroke="#666666" points="223.5,-1072.5 223.5,-1072.5 255.5,-1072.5 255.5,-1072.5 223.5,-1072.5"/>
<polygon fill="none" stroke="#666666" points="223.5,-1056 223.5,-1105 255.5,-1105 255.5,-1056 223.5,-1056"/>
</a>
</g>
</g>
<!-- Node8&#45;&gt;Node7 -->
<g id="edge7_Node000007_Node000008" class="edge">
<title>Node8&#45;&gt;Node7</title>
<g id="a_edge7_Node000007_Node000008"><a xlink:title=" ">
<path fill="none" stroke="#63b8ff" d="M234.14,-1055.9C229.54,-1035.66 222.84,-1006.19 217.59,-983.09"/>
<polygon fill="none" stroke="#63b8ff" points="217.58,-983.04 212.35,-978.08 214.92,-971.34 220.15,-976.3 217.58,-983.04"/>
</a>
</g>
<text text-anchor="middle" x="243" y="-1011" font-family="Helvetica,sans-Serif" font-size="10.00" fill="grey"> +ptr</text>
</g>
<!-- Node9&#45;&gt;Node1 -->
<g id="edge9_Node000001_Node000009" class="edge">
<title>Node9&#45;&gt;Node1</title>
<g id="a_edge9_Node000001_Node000009"><a xlink:title=" ">
<path fill="none" stroke="#63b8ff" d="M315.5,-306.73C315.5,-294.19 315.5,-278.56 315.5,-261.77"/>
<polygon fill="none" stroke="#63b8ff" points="315.5,-261.38 311.5,-255.38 315.5,-249.38 319.5,-255.38 315.5,-261.38"/>
</a>
</g>
<text text-anchor="middle" x="331" y="-281" font-family="Helvetica,sans-Serif" font-size="10.00" fill="grey"> +left</text>
<text text-anchor="middle" x="331" y="-270" font-family="Helvetica,sans-Serif" font-size="10.00" fill="grey">+right</text>
</g>
<!-- Node10&#45;&gt;Node9 -->
<g id="edge11_Node000009_Node000010" class="edge">
<title>Node10&#45;&gt;Node9</title>
<g id="a_edge11_Node000009_Node000010"><a xlink:title=" ">
<path fill="none" stroke="orange" d="M325,-978.76C323.27,-862.09 317.56,-476.84 315.93,-367.29"/>
<polygon fill="orange" stroke="orange" points="321.5,-978.94 325.15,-988.89 328.5,-978.84 321.5,-978.94"/>
</a>
</g>
<text text-anchor="middle" x="373" y="-896" font-family="Helvetica,sans-Serif" font-size="10.00" fill="grey"> &lt; SymbolicNode &gt;</text>
</g>
<!-- Node11 -->
<g id="Node000011" class="node">
<title>Node11</title>
<g id="a_Node000011"><a xlink:title=" ">
<polygon fill="white" stroke="transparent" points="439.5,-361.5 415.5,-361.5 415.5,-312.5 439.5,-312.5 439.5,-361.5"/>
<text text-anchor="start" x="420.5" y="-349" font-family="Helvetica,sans-Serif" font-size="10.00">Op</text>
<text text-anchor="start" x="425.5" y="-334" font-family="Helvetica,sans-Serif" font-size="10.00"> </text>
<text text-anchor="start" x="425.5" y="-319" font-family="Helvetica,sans-Serif" font-size="10.00"> </text>
<polygon fill="#666666" stroke="#666666" points="415.5,-344 415.5,-344 439.5,-344 439.5,-344 415.5,-344"/>
<polygon fill="#666666" stroke="#666666" points="415.5,-329 415.5,-329 439.5,-329 439.5,-329 415.5,-329"/>
<polygon fill="none" stroke="#666666" points="415.5,-312.5 415.5,-361.5 439.5,-361.5 439.5,-312.5 415.5,-312.5"/>
</a>
</g>
</g>
<!-- Node11&#45;&gt;Node1 -->
<g id="edge13_Node000001_Node000011" class="edge">
<title>Node11&#45;&gt;Node1</title>
<g id="a_edge13_Node000001_Node000011"><a xlink:title=" ">
<path fill="none" stroke="#63b8ff" d="M415.3,-313.07C407.96,-299.28 397.96,-280.47 387.1,-260.07"/>
<polygon fill="none" stroke="#63b8ff" points="386.99,-259.86 380.64,-256.45 381.35,-249.27 387.7,-252.69 386.99,-259.86"/>
</a>
</g>
<text text-anchor="middle" x="411.5" y="-275.5" font-family="Helvetica,sans-Serif" font-size="10.00" fill="grey"> +op</text>
</g>
</g>
</svg>

<g id="navigator" transform="translate(0 0)" fill="#404254">
  <rect fill="#f2f5e9" fill-opacity="0.5" stroke="#606060" stroke-width=".5" x="0" y="0" width="60" height="60"/>
  <use id="zoomplus" xlink:href="#zoomPlus" x="17" y="9" onmousedown="handleZoom(evt,'in')"/>
  <use id="zoomminus" xlink:href="#zoomMin" x="42" y="9" onmousedown="handleZoom(evt,'out')"/>
  <use id="reset" xlink:href="#resetDef" x="30" y="36" onmousedown="handleReset()"/>
   <use id="arrowup" xlink:href="#arrowUp" x="0" y="0" onmousedown="handlePan(0,-1)"/>
  <use id="arrowright" xlink:href="#arrowRight" x="0" y="0" onmousedown="handlePan(1,0)"/>
  <use id="arrowdown" xlink:href="#arrowDown" x="0" y="0" onmousedown="handlePan(0,1)"/>
  <use id="arrowleft" xlink:href="#arrowLeft" x="0" y="0" onmousedown="handlePan(-1,0)"/>
</g>
<svg viewBox="0 0 15 15" width="100%" height="30px" preserveAspectRatio="xMaxYMin meet">
 <g id="arrow_out" transform="scale(0.3 0.3)">
  <a xlink:href="classLogicalNode__coll__graph_org.svg" target="_base">
   <rect id="button" ry="5" rx="5" y="6" x="6" height="38" width="38"
        fill="#f2f5e9" fill-opacity="0.5" stroke="#606060" stroke-width="1.0"/>
   <path id="arrow"
     d="M 11.500037,31.436501 C 11.940474,20.09759 22.043105,11.32322 32.158766,21.979434 L 37.068811,17.246167 C 37.068811,17.246167 37.088388,32 37.088388,32 L 22.160133,31.978069 C 22.160133,31.978069 26.997745,27.140456 26.997745,27.140456 C 18.528582,18.264221 13.291696,25.230495 11.500037,31.436501 z"
     style="fill:#404040;"/>
  </a>
 </g>
</svg>

<style type='text/css'>
<![CDATA[
[data-mouse-over-selected='false'] { opacity: 0.7; }
[data-mouse-over-selected='true']  { opacity: 1.0; }
]]>
</style>
<script type="application/ecmascript"><![CDATA[
document.addEventListener('DOMContentLoaded', (event) => {
  highlightEdges();
  highlightAdjacentNodes();
});
]]></script>
</svg>
