<?xml version="1.0" encoding="UTF-8" standalone="no"?>
<!DOCTYPE svg PUBLIC "-//W3C//DTD SVG 1.1//EN"
 "http://www.w3.org/Graphics/SVG/1.1/DTD/svg11.dtd">
<!-- Generated by graphviz version 2.43.0 (0)
 -->
<!-- Title: lmmp_memory_ctx Pages: 1 -->
<svg width="164pt" height="197pt"
 viewBox="0.00 0.00 164.00 197.00" xmlns="http://www.w3.org/2000/svg" xmlns:xlink="http://www.w3.org/1999/xlink">
<g id="graph0" class="graph" transform="scale(1 1) rotate(0) translate(4 193)">
<title>lmmp_memory_ctx</title>
<!-- Node1 -->
<g id="Node000001" class="node">
<title>Node1</title>
<g id="a_Node000001"><a xlink:title=" ">
<polygon fill="#999999" stroke="transparent" points="118,-49 12,-49 12,0 118,0 118,-49"/>
<text text-anchor="start" x="17" y="-36.5" font-family="Helvetica,sans-Serif" font-size="10.00">lmmp_memory_ctx</text>
<text text-anchor="start" x="63" y="-21.5" font-family="Helvetica,sans-Serif" font-size="10.00"> </text>
<text text-anchor="start" x="63" y="-6.5" font-family="Helvetica,sans-Serif" font-size="10.00"> </text>
<polygon fill="#666666" stroke="#666666" points="12,-31.5 12,-31.5 118,-31.5 118,-31.5 12,-31.5"/>
<polygon fill="#666666" stroke="#666666" points="12,-16.5 12,-16.5 118,-16.5 118,-16.5 12,-16.5"/>
<polygon fill="none" stroke="#666666" points="12,0 12,-49 118,-49 118,0 12,0"/>
</a>
</g>
</g>
<!-- Node2 -->
<g id="Node000002" class="node">
<title>Node2</title>
<g id="a_Node000002"><a xlink:title=" ">
<polygon fill="white" stroke="transparent" points="40,-189 0,-189 0,-140 40,-140 40,-189"/>
<text text-anchor="start" x="5" y="-176.5" font-family="Helvetica,sans-Serif" font-size="10.00">void *</text>
<text text-anchor="start" x="18" y="-161.5" font-family="Helvetica,sans-Serif" font-size="10.00"> </text>
<text text-anchor="start" x="18" y="-146.5" font-family="Helvetica,sans-Serif" font-size="10.00"> </text>
<polygon fill="#666666" stroke="#666666" points="0,-171.5 0,-171.5 40,-171.5 40,-171.5 0,-171.5"/>
<polygon fill="#666666" stroke="#666666" points="0,-156.5 0,-156.5 40,-156.5 40,-156.5 0,-156.5"/>
<polygon fill="none" stroke="#666666" points="0,-140 0,-189 40,-189 40,-140 0,-140"/>
</a>
</g>
</g>
<!-- Node2&#45;&gt;Node1 -->
<g id="edge1_Node000001_Node000002" class="edge">
<title>Node2&#45;&gt;Node1</title>
<g id="a_edge1_Node000001_Node000002"><a xlink:title=" ">
<path fill="none" stroke="#63b8ff" d="M15.25,-139.81C12.33,-119.59 10.86,-90.18 21,-67 22.25,-64.14 23.81,-61.38 25.58,-58.74"/>
<polygon fill="none" stroke="#63b8ff" points="25.76,-58.52 26.41,-51.34 33.3,-49.19 32.64,-56.37 25.76,-58.52"/>
</a>
</g>
<text text-anchor="middle" x="54.5" y="-114" font-family="Helvetica,sans-Serif" font-size="10.00" fill="grey"> +pool_begin</text>
<text text-anchor="middle" x="54.5" y="-103" font-family="Helvetica,sans-Serif" font-size="10.00" fill="grey">+pool_top</text>
<text text-anchor="middle" x="54.5" y="-92" font-family="Helvetica,sans-Serif" font-size="10.00" fill="grey">+stack_begin</text>
<text text-anchor="middle" x="54.5" y="-81" font-family="Helvetica,sans-Serif" font-size="10.00" fill="grey">+stack_end</text>
<text text-anchor="middle" x="54.5" y="-70" font-family="Helvetica,sans-Serif" font-size="10.00" fill="grey">+stack_top</text>
</g>
<!-- Node3 -->
<g id="Node000003" class="node">
<title>Node3</title>
<g id="a_Node000003"><a xlink:title=" ">
<polygon fill="white" stroke="transparent" points="129.5,-189 90.5,-189 90.5,-140 129.5,-140 129.5,-189"/>
<text text-anchor="start" x="96" y="-176.5" font-family="Helvetica,sans-Serif" font-size="10.00">size_t</text>
<text text-anchor="start" x="108.5" y="-161.5" font-family="Helvetica,sans-Serif" font-size="10.00"> </text>
<text text-anchor="start" x="108.5" y="-146.5" font-family="Helvetica,sans-Serif" font-size="10.00"> </text>
<polygon fill="#666666" stroke="#666666" points="91,-171.5 91,-171.5 130,-171.5 130,-171.5 91,-171.5"/>
<polygon fill="#666666" stroke="#666666" points="91,-156.5 91,-156.5 130,-156.5 130,-156.5 91,-156.5"/>
<polygon fill="none" stroke="#666666" points="90.5,-140 90.5,-189 129.5,-189 129.5,-140 90.5,-140"/>
</a>
</g>
</g>
<!-- Node3&#45;&gt;Node1 -->
<g id="edge2_Node000001_Node000003" class="edge">
<title>Node3&#45;&gt;Node1</title>
<g id="a_edge2_Node000001_Node000003"><a xlink:title=" ">
<path fill="none" stroke="#63b8ff" d="M106.54,-139.95C103.17,-120.07 97.2,-91.08 88,-67 87.1,-64.66 86.1,-62.28 85.01,-59.92"/>
<polygon fill="none" stroke="#63b8ff" points="84.96,-59.81 78.69,-56.24 79.57,-49.09 85.84,-52.65 84.96,-59.81"/>
</a>
</g>
<text text-anchor="middle" x="129.5" y="-97.5" font-family="Helvetica,sans-Serif" font-size="10.00" fill="grey"> +capacity</text>
<text text-anchor="middle" x="129.5" y="-86.5" font-family="Helvetica,sans-Serif" font-size="10.00" fill="grey">+remain</text>
</g>
</g>
</svg>
