<?xml version="1.0" encoding="UTF-8" standalone="no"?>
<!DOCTYPE svg PUBLIC "-//W3C//DTD SVG 1.1//EN"
 "http://www.w3.org/Graphics/SVG/1.1/DTD/svg11.dtd">
<!-- Generated by graphviz version 2.43.0 (0)
 -->
<!-- Title: lamina::anonymous_namespace{inequality_solver_polynomial::cpp}::solve_exact_affine_inequality_impl Pages: 1 -->
<!--zoomable 311 -->

<svg id="main" version="1.1" xmlns="http://www.w3.org/2000/svg" xmlns:xlink="http://www.w3.org/1999/xlink" xml:space="preserve">

<style type="text/css"><![CDATA[
.node, .edge {opacity: 0.7;}
.node.selected, .edge.selected {opacity: 1;}
.edge:hover path { stroke: red; }
.edge:hover polygon { stroke: red; fill: red; }
]]></style>

<defs>
  <circle id="rim" cx="0" cy="0" r="7"/>
  <circle id="rim2" cx="0" cy="0" r="3.5"/>
  <g id="zoomPlus">
    <use xlink:href="#rim" fill="#404040"><set attributeName="fill" to="#808080" begin="zoomplus.mouseover" end="zoomplus.mouseout"/></use>
    <path d="M-4,0h8M0,-4v8" fill="none" stroke="white" stroke-width="1.5" pointer-events="none"/>
  </g>
  <g id="zoomMin">
    <use xlink:href="#rim" fill="#404040"><set attributeName="fill" to="#808080" begin="zoomminus.mouseover" end="zoomminus.mouseout"/></use>
    <path d="M-4,0h8" fill="none" stroke="white" stroke-width="1.5" pointer-events="none"/>
  </g>
  <g id="arrowUp" transform="translate(30 24)">
    <use xlink:href="#rim"/>
    <path pointer-events="none" fill="none" stroke="white" stroke-width="1.5" d="M0,-3.0v7 M-2.5,-0.5L0,-3.0L2.5,-0.5"/>
  </g>
  <g id="arrowRight" transform="rotate(90) translate(36 -43)">
    <use xlink:href="#rim"/>
    <path pointer-events="none" fill="none" stroke="white" stroke-width="1.5" d="M0,-3.0v7 M-2.5,-0.5L0,-3.0L2.5,-0.5"/>
  </g>
  <g id="arrowDown" transform="rotate(180) translate(-30 -48)">
    <use xlink:href="#rim"/>
    <path pointer-events="none" fill="none" stroke="white" stroke-width="1.5" d="M0,-3.0v7 M-2.5,-0.5L0,-3.0L2.5,-0.5"/>
  </g>
  <g id="arrowLeft" transform="rotate(270) translate(-36 17)">
    <use xlink:href="#rim"/>
    <path pointer-events="none" fill="none" stroke="white" stroke-width="1.5" d="M0,-3.0v7 M-2.5,-0.5L0,-3.0L2.5,-0.5"/>
  </g>
  <g id="resetDef">
    <use xlink:href="#rim2" fill="#404040"><set attributeName="fill" to="#808080" begin="reset.mouseover" end="reset.mouseout"/></use>
  </g>
</defs>
<script type="application/ecmascript" xlink:href="../../svg.min.js"/>
<svg id="graph" class="graph" data-view-width="654" data-view-height="311" data-section-id="dynsection-9">
<g id="viewport">
<title>lamina::anonymous_namespace{inequality_solver_polynomial::cpp}::solve_exact_affine_inequality_impl</title>
<!-- Node1 -->
<g id="Node000001" class="node">
<title>Node1</title>
<g id="a_Node000001"><a xlink:title=" ">
<polygon fill="#999999" stroke="#666666" points="224,-159 0,-159 0,-118 224,-118 224,-159"/>
<text text-anchor="start" x="8" y="-147" font-family="Helvetica,sans-Serif" font-size="10.00">lamina::anonymous_namespace</text>
<text text-anchor="start" x="8" y="-136" font-family="Helvetica,sans-Serif" font-size="10.00">{inequality_solver_polynomial</text>
<text text-anchor="middle" x="112" y="-125" font-family="Helvetica,sans-Serif" font-size="10.00">::cpp}::solve_exact_affine_inequality_impl</text>
</a>
</g>
</g>
<!-- Node1&#45;&gt;Node1 -->
<g id="edge11_Node000001_Node000001" class="edge">
<title>Node1&#45;&gt;Node1</title>
<g id="a_edge11_Node000001_Node000001"><a xlink:title=" ">
<path fill="none" stroke="#63b8ff" d="M68.99,-159.1C64.3,-168.65 78.64,-177 112,-177 132.85,-177 146.27,-173.74 152.26,-168.96"/>
<polygon fill="#63b8ff" stroke="#63b8ff" points="155.69,-169.67 155.01,-159.1 148.95,-167.79 155.69,-169.67"/>
</a>
</g>
</g>
<!-- Node2 -->
<g id="Node000002" class="node">
<title>Node2</title>
<g id="a_Node000002"><a xlink:href="../../d8/da7/classRational.html#a3bbd6ff67c590da76ddfcbd48cd3de0a" target="_top" xlink:title="默认构造，值为 0">
<polygon fill="white" stroke="#666666" points="610.5,-294 506.5,-294 506.5,-275 610.5,-275 610.5,-294"/>
<text text-anchor="middle" x="558.5" y="-282" font-family="Helvetica,sans-Serif" font-size="10.00">Rational::Rational</text>
</a>
</g>
</g>
<!-- Node1&#45;&gt;Node2 -->
<g id="edge1_Node000001_Node000002" class="edge">
<title>Node1&#45;&gt;Node2</title>
<g id="a_edge1_Node000001_Node000002"><a xlink:title=" ">
<path fill="none" stroke="#63b8ff" d="M126.74,-159.1C149.79,-191.62 199.71,-253.68 260,-278.5 337.49,-310.41 436.23,-304.29 498.18,-295.52"/>
<polygon fill="#63b8ff" stroke="#63b8ff" points="498.79,-298.97 508.17,-294.04 497.76,-292.04 498.79,-298.97"/>
</a>
</g>
</g>
<!-- Node3 -->
<g id="Node000003" class="node">
<title>Node3</title>
<g id="a_Node000003"><a xlink:href="../../df/da1/namespacelamina_1_1anonymous__namespace_02inequality__solver__polynomial_8cpp_03.html#a8cb290cdb70d3959e2f2cb68f695098a" target="_top" xlink:title=" ">
<polygon fill="white" stroke="#666666" points="435,-251 260,-251 260,-210 435,-210 435,-251"/>
<text text-anchor="start" x="268" y="-239" font-family="Helvetica,sans-Serif" font-size="10.00">lamina::anonymous_namespace</text>
<text text-anchor="start" x="268" y="-228" font-family="Helvetica,sans-Serif" font-size="10.00">{inequality_solver_polynomial</text>
<text text-anchor="middle" x="347.5" y="-217" font-family="Helvetica,sans-Serif" font-size="10.00">::cpp}::constant_satisfies</text>
</a>
</g>
</g>
<!-- Node1&#45;&gt;Node3 -->
<g id="edge2_Node000001_Node000003" class="edge">
<title>Node1&#45;&gt;Node3</title>
<g id="a_edge2_Node000001_Node000003"><a xlink:title=" ">
<path fill="none" stroke="#63b8ff" d="M165.11,-159.03C200.4,-172.94 247.19,-191.37 284.41,-206.04"/>
<polygon fill="#63b8ff" stroke="#63b8ff" points="283.56,-209.46 294.14,-209.87 286.12,-202.95 283.56,-209.46"/>
</a>
</g>
</g>
<!-- Node4 -->
<g id="Node000004" class="node">
<title>Node4</title>
<g id="a_Node000004"><a xlink:href="../../df/da1/namespacelamina_1_1anonymous__namespace_02inequality__solver__polynomial_8cpp_03.html#aa31fc08474b5ebad8b17b528d927e08d" target="_top" xlink:title=" ">
<polygon fill="white" stroke="#666666" points="646,-226 471,-226 471,-185 646,-185 646,-226"/>
<text text-anchor="start" x="479" y="-214" font-family="Helvetica,sans-Serif" font-size="10.00">lamina::anonymous_namespace</text>
<text text-anchor="start" x="479" y="-203" font-family="Helvetica,sans-Serif" font-size="10.00">{inequality_solver_polynomial</text>
<text text-anchor="middle" x="558.5" y="-192" font-family="Helvetica,sans-Serif" font-size="10.00">::cpp}::rational_is_negative</text>
</a>
</g>
</g>
<!-- Node1&#45;&gt;Node4 -->
<g id="edge10_Node000001_Node000004" class="edge">
<title>Node1&#45;&gt;Node4</title>
<g id="a_edge10_Node000001_Node000004"><a xlink:title=" ">
<path fill="none" stroke="#63b8ff" d="M224.13,-156.87C236.23,-158.8 248.37,-160.71 260,-162.5 327.04,-172.82 402.7,-183.74 460.94,-192"/>
<polygon fill="#63b8ff" stroke="#63b8ff" points="460.48,-195.47 470.87,-193.4 461.46,-188.54 460.48,-195.47"/>
</a>
</g>
</g>
<!-- Node5 -->
<g id="Node000005" class="node">
<title>Node5</title>
<g id="a_Node000005"><a xlink:href="../../d8/d1e/classlamina_1_1Polynomial.html#aa4209c719c18fc882b702d88e397bdf4" target="_top" xlink:title="获取多项式的次数">
<polygon fill="white" stroke="#666666" points="403,-153.5 292,-153.5 292,-123.5 403,-123.5 403,-153.5"/>
<text text-anchor="start" x="300" y="-141.5" font-family="Helvetica,sans-Serif" font-size="10.00">lamina::Polynomial</text>
<text text-anchor="middle" x="347.5" y="-130.5" font-family="Helvetica,sans-Serif" font-size="10.00">::degree</text>
</a>
</g>
</g>
<!-- Node1&#45;&gt;Node5 -->
<g id="edge7_Node000001_Node000005" class="edge">
<title>Node1&#45;&gt;Node5</title>
<g id="a_edge7_Node000001_Node000005"><a xlink:title=" ">
<path fill="none" stroke="#63b8ff" d="M224.28,-138.5C243.92,-138.5 263.76,-138.5 281.59,-138.5"/>
<polygon fill="#63b8ff" stroke="#63b8ff" points="281.83,-142 291.83,-138.5 281.83,-135 281.83,-142"/>
</a>
</g>
</g>
<!-- Node6 -->
<g id="Node000006" class="node">
<title>Node6</title>
<g id="a_Node000006"><a xlink:href="../../d4/d81/classlamina_1_1Result.html#a98c750bac3d54d9b81d02a5c64a0f860" target="_top" xlink:title=" ">
<polygon fill="white" stroke="#666666" points="410,-105 285,-105 285,-86 410,-86 410,-105"/>
<text text-anchor="middle" x="347.5" y="-93" font-family="Helvetica,sans-Serif" font-size="10.00">lamina::Result::failure</text>
</a>
</g>
</g>
<!-- Node1&#45;&gt;Node6 -->
<g id="edge8_Node000001_Node000006" class="edge">
<title>Node1&#45;&gt;Node6</title>
<g id="a_edge8_Node000001_Node000006"><a xlink:title=" ">
<path fill="none" stroke="#63b8ff" d="M224.28,-118.01C245.09,-114.17 266.14,-110.3 284.76,-106.87"/>
<polygon fill="#63b8ff" stroke="#63b8ff" points="285.64,-110.27 294.84,-105.01 284.37,-103.38 285.64,-110.27"/>
</a>
</g>
</g>
<!-- Node7 -->
<g id="Node000007" class="node">
<title>Node7</title>
<g id="a_Node000007"><a xlink:href="../../d8/d1e/classlamina_1_1Polynomial.html#a5ab9f08024d7084b47a746f72ba9f850" target="_top" xlink:title="判断是否为零多项式">
<polygon fill="white" stroke="#666666" points="403,-67.5 292,-67.5 292,-37.5 403,-37.5 403,-67.5"/>
<text text-anchor="start" x="300" y="-55.5" font-family="Helvetica,sans-Serif" font-size="10.00">lamina::Polynomial</text>
<text text-anchor="middle" x="347.5" y="-44.5" font-family="Helvetica,sans-Serif" font-size="10.00">::is_zero</text>
</a>
</g>
</g>
<!-- Node1&#45;&gt;Node7 -->
<g id="edge9_Node000001_Node000007" class="edge">
<title>Node1&#45;&gt;Node7</title>
<g id="a_edge9_Node000001_Node000007"><a xlink:title=" ">
<path fill="none" stroke="#63b8ff" d="M157.45,-117.99C186.31,-105.11 224.95,-88.7 260,-76.5 267.06,-74.04 274.51,-71.66 281.96,-69.42"/>
<polygon fill="#63b8ff" stroke="#63b8ff" points="283.11,-72.73 291.72,-66.55 281.14,-66.01 283.11,-72.73"/>
</a>
</g>
</g>
<!-- Node8 -->
<g id="Node000008" class="node">
<title>Node8</title>
<g id="a_Node000008"><a xlink:href="../../d4/d81/classlamina_1_1Result.html#a70191f302f20c27ad54a360736f2ab47" target="_top" xlink:title=" ">
<polygon fill="white" stroke="#666666" points="413,-19 282,-19 282,0 413,0 413,-19"/>
<text text-anchor="middle" x="347.5" y="-7" font-family="Helvetica,sans-Serif" font-size="10.00">lamina::Result::success</text>
</a>
</g>
</g>
<!-- Node1&#45;&gt;Node8 -->
<g id="edge12_Node000001_Node000008" class="edge">
<title>Node1&#45;&gt;Node8</title>
<g id="a_edge12_Node000001_Node000008"><a xlink:title=" ">
<path fill="none" stroke="#63b8ff" d="M134.47,-117.68C161.5,-92.65 210.44,-51.19 260,-28.5 265.37,-26.04 271.08,-23.89 276.91,-22.01"/>
<polygon fill="#63b8ff" stroke="#63b8ff" points="278.18,-25.29 286.78,-19.11 276.2,-18.57 278.18,-25.29"/>
</a>
</g>
</g>
<!-- Node3&#45;&gt;Node2 -->
<g id="edge3_Node000003_Node000002" class="edge">
<title>Node3&#45;&gt;Node2</title>
<g id="a_edge3_Node000003_Node000002"><a xlink:title=" ">
<path fill="none" stroke="#63b8ff" d="M428.11,-251.07C456.09,-258.3 486.61,-266.18 510.97,-272.48"/>
<polygon fill="#63b8ff" stroke="#63b8ff" points="510.11,-275.87 520.66,-274.98 511.86,-269.09 510.11,-275.87"/>
</a>
</g>
</g>
<!-- Node3&#45;&gt;Node3 -->
<g id="edge4_Node000003_Node000003" class="edge">
<title>Node3&#45;&gt;Node3</title>
<g id="a_edge4_Node000003_Node000003"><a xlink:title=" ">
<path fill="none" stroke="#63b8ff" d="M308.9,-251.1C304.69,-260.65 317.56,-269 347.5,-269 366.21,-269 378.26,-265.74 383.63,-260.96"/>
<polygon fill="#63b8ff" stroke="#63b8ff" points="387.07,-261.65 386.1,-251.1 380.27,-259.95 387.07,-261.65"/>
</a>
</g>
</g>
<!-- Node3&#45;&gt;Node4 -->
<g id="edge5_Node000003_Node000004" class="edge">
<title>Node3&#45;&gt;Node4</title>
<g id="a_edge5_Node000003_Node000004"><a xlink:title=" ">
<path fill="none" stroke="#63b8ff" d="M435.02,-220.15C443.49,-219.14 452.13,-218.1 460.7,-217.08"/>
<polygon fill="#63b8ff" stroke="#63b8ff" points="461.2,-220.54 470.71,-215.88 460.37,-213.59 461.2,-220.54"/>
</a>
</g>
</g>
<!-- Node4&#45;&gt;Node4 -->
<g id="edge6_Node000004_Node000004" class="edge">
<title>Node4&#45;&gt;Node4</title>
<g id="a_edge6_Node000004_Node000004"><a xlink:title=" ">
<path fill="none" stroke="#63b8ff" d="M519.9,-226.1C515.69,-235.65 528.56,-244 558.5,-244 577.21,-244 589.26,-240.74 594.63,-235.96"/>
<polygon fill="#63b8ff" stroke="#63b8ff" points="598.07,-236.65 597.1,-226.1 591.27,-234.95 598.07,-236.65"/>
</a>
</g>
</g>
</g>
</svg>

<g id="navigator" transform="translate(0 0)" fill="#404254">
  <rect fill="#f2f5e9" fill-opacity="0.5" stroke="#606060" stroke-width=".5" x="0" y="0" width="60" height="60"/>
  <use id="zoomplus" xlink:href="#zoomPlus" x="17" y="9" data-zoom="in"/>
  <use id="zoomminus" xlink:href="#zoomMin" x="42" y="9" data-zoom="out"/>
  <use id="reset" xlink:href="#resetDef" x="30" y="36" data-reset="true"/>
  <use id="arrowup" xlink:href="#arrowUp" x="0" y="0" data-pan-x="0" data-pan-y="-1"/>
  <use id="arrowright" xlink:href="#arrowRight" x="0" y="0" data-pan-x="1" data-pan-y="0"/>
  <use id="arrowdown" xlink:href="#arrowDown" x="0" y="0" data-pan-x="0" data-pan-y="1"/>
  <use id="arrowleft" xlink:href="#arrowLeft" x="0" y="0" data-pan-x="-1" data-pan-y="0"/>
</g>
<svg viewBox="0 0 15 15" width="100%" height="30px" preserveAspectRatio="xMaxYMin meet">
 <g id="arrow_out" transform="scale(0.3 0.3)">
  <a xlink:href="namespacelamina_1_1anonymous__namespace_02inequality__solver__polynomial_8cpp_03_a45c9649839d094f6fee7be9e3a7648a2_cgraph_org.svg" target="_base">
   <rect id="button" ry="5" rx="5" y="6" x="6" height="38" width="38"
        fill="#f2f5e9" fill-opacity="0.5" stroke="#606060" stroke-width="1.0"/>
   <path id="arrow"
     d="M 11.500037,31.436501 C 11.940474,20.09759 22.043105,11.32322 32.158766,21.979434 L 37.068811,17.246167 C 37.068811,17.246167 37.088388,32 37.088388,32 L 22.160133,31.978069 C 22.160133,31.978069 26.997745,27.140456 26.997745,27.140456 C 18.528582,18.264221 13.291696,25.230495 11.500037,31.436501 z"
     style="fill:#404040;"/>
  </a>
 </g>
</svg>

<style type='text/css'>
<![CDATA[
[data-mouse-over-selected='false'] { opacity: 0.7; }
[data-mouse-over-selected='true']  { opacity: 1.0; }
]]>
</style>
</svg>
