<?xml version="1.0" encoding="UTF-8" standalone="no"?>
<!DOCTYPE svg PUBLIC "-//W3C//DTD SVG 1.1//EN"
 "http://www.w3.org/Graphics/SVG/1.1/DTD/svg11.dtd">
<!-- Generated by graphviz version 2.43.0 (0)
 -->
<!-- Title: lmmp_temp_pool_alloc_ Pages: 1 -->
<svg width="538pt" height="27pt"
 viewBox="0.00 0.00 538.00 27.00" xmlns="http://www.w3.org/2000/svg" xmlns:xlink="http://www.w3.org/1999/xlink">
<g id="graph0" class="graph" transform="scale(1 1) rotate(0) translate(4 23)">
<title>lmmp_temp_pool_alloc_</title>
<!-- Node1 -->
<g id="Node000001" class="node">
<title>Node1</title>
<g id="a_Node000001"><a xlink:title=" ">
<polygon fill="#999999" stroke="#666666" points="136,-19 0,-19 0,0 136,0 136,-19"/>
<text text-anchor="middle" x="68" y="-7" font-family="Helvetica,sans-Serif" font-size="10.00">lmmp_temp_pool_alloc_</text>
</a>
</g>
</g>
<!-- Node2 -->
<g id="Node000002" class="node">
<title>Node2</title>
<g id="a_Node000002"><a xlink:href="../../d8/daa/tmp__alloc_8h.html#a24252186b1fed84e8f3f462feda60c2d" target="_top" xlink:title=" ">
<polygon fill="white" stroke="#666666" points="311,-19 172,-19 172,0 311,0 311,-19"/>
<text text-anchor="middle" x="241.5" y="-7" font-family="Helvetica,sans-Serif" font-size="10.00">lmmp_temp_heap_alloc_</text>
</a>
</g>
</g>
<!-- Node1&#45;&gt;Node2 -->
<g id="edge1_Node000001_Node000002" class="edge">
<title>Node1&#45;&gt;Node2</title>
<g id="a_edge1_Node000001_Node000002"><a xlink:title=" ">
<path fill="none" stroke="#63b8ff" d="M136.29,-9.5C144.72,-9.5 153.4,-9.5 161.98,-9.5"/>
<polygon fill="#63b8ff" stroke="#63b8ff" points="162,-13 172,-9.5 162,-6 162,-13"/>
</a>
</g>
</g>
<!-- Node3 -->
<g id="Node000003" class="node">
<title>Node3</title>
<g id="a_Node000003"><a xlink:href="../../da/d52/abort_8c.html#a8967c29c5f5ea6c7ce14e2baac50b72f" target="_top" xlink:title="LAMMP 全局退出函数，内部错误或断言失败时调用，若设置了全局退出函数，则会调用该函数，否则会调用默认的退出函数。">
<polygon fill="white" stroke="#666666" points="423,-19 347,-19 347,0 423,0 423,-19"/>
<text text-anchor="middle" x="385" y="-7" font-family="Helvetica,sans-Serif" font-size="10.00">lmmp_abort</text>
</a>
</g>
</g>
<!-- Node2&#45;&gt;Node3 -->
<g id="edge2_Node000002_Node000003" class="edge">
<title>Node2&#45;&gt;Node3</title>
<g id="a_edge2_Node000002_Node000003"><a xlink:title=" ">
<path fill="none" stroke="#63b8ff" d="M311.18,-9.5C319.79,-9.5 328.45,-9.5 336.63,-9.5"/>
<polygon fill="#63b8ff" stroke="#63b8ff" points="336.71,-13 346.71,-9.5 336.71,-6 336.71,-13"/>
</a>
</g>
</g>
<!-- Node4 -->
<g id="Node000004" class="node">
<title>Node4</title>
<g id="a_Node000004"><a xlink:href="../../da/d52/abort_8c.html#a11701246f0be69a35468c33d1a136abc" target="_top" xlink:title=" ">
<polygon fill="white" stroke="#666666" points="530,-19 459,-19 459,0 530,0 530,-19"/>
<text text-anchor="middle" x="494.5" y="-7" font-family="Helvetica,sans-Serif" font-size="10.00">type_to_str</text>
</a>
</g>
</g>
<!-- Node3&#45;&gt;Node4 -->
<g id="edge3_Node000003_Node000004" class="edge">
<title>Node3&#45;&gt;Node4</title>
<g id="a_edge3_Node000003_Node000004"><a xlink:title=" ">
<path fill="none" stroke="#63b8ff" d="M423.3,-9.5C431.49,-9.5 440.24,-9.5 448.7,-9.5"/>
<polygon fill="#63b8ff" stroke="#63b8ff" points="448.8,-13 458.8,-9.5 448.8,-6 448.8,-13"/>
</a>
</g>
</g>
</g>
</svg>
