<?xml version="1.0" encoding="UTF-8" standalone="no"?>
<!DOCTYPE svg PUBLIC "-//W3C//DTD SVG 1.1//EN"
 "http://www.w3.org/Graphics/SVG/1.1/DTD/svg11.dtd">
<!-- Generated by graphviz version 2.43.0 (0)
 -->
<!-- Title: lmmp_mul_toom33_ Pages: 1 -->
<svg width="439pt" height="319pt"
 viewBox="0.00 0.00 439.00 319.00" xmlns="http://www.w3.org/2000/svg" xmlns:xlink="http://www.w3.org/1999/xlink">
<g id="graph0" class="graph" transform="scale(1 1) rotate(0) translate(4 315)">
<title>lmmp_mul_toom33_</title>
<!-- Node1 -->
<g id="Node000001" class="node">
<title>Node1</title>
<g id="a_Node000001"><a xlink:title=" ">
<polygon fill="#999999" stroke="#666666" points="117,-148 0,-148 0,-129 117,-129 117,-148"/>
<text text-anchor="middle" x="58.5" y="-136" font-family="Helvetica,sans-Serif" font-size="10.00">lmmp_mul_toom33_</text>
</a>
</g>
</g>
<!-- Node2 -->
<g id="Node000002" class="node">
<title>Node2</title>
<g id="a_Node000002"><a xlink:href="../../d6/d39/lmmpn_8h.html#a1eb04fffd70d523647b7b4ed64a438c5" target="_top" xlink:title="大数加法静态内联函数 [dst,na]=[numa,na]+[numb,nb]">
<polygon fill="white" stroke="#666666" points="250.5,-259 176.5,-259 176.5,-240 250.5,-240 250.5,-259"/>
<text text-anchor="middle" x="213.5" y="-247" font-family="Helvetica,sans-Serif" font-size="10.00">lmmp_add_</text>
</a>
</g>
</g>
<!-- Node1&#45;&gt;Node2 -->
<g id="edge1_Node000001_Node000002" class="edge">
<title>Node1&#45;&gt;Node2</title>
<g id="a_edge1_Node000001_Node000002"><a xlink:title=" ">
<path fill="none" stroke="#63b8ff" d="M70.64,-148.24C87.8,-163.05 121.96,-191.8 153,-213.5 163.71,-220.99 176.01,-228.58 186.63,-234.86"/>
<polygon fill="#63b8ff" stroke="#63b8ff" points="185.05,-237.98 195.45,-239.99 188.57,-231.93 185.05,-237.98"/>
</a>
</g>
</g>
<!-- Node3 -->
<g id="Node000003" class="node">
<title>Node3</title>
<g id="a_Node000003"><a xlink:href="../../da/dc7/add__n_8c.html#afa05758121cca6aa6b21256d5a959871" target="_top" xlink:title="无进位的n位加法 [dst,n] = [numa,n] + [numb,n]">
<polygon fill="white" stroke="#666666" points="413,-311 328,-311 328,-292 413,-292 413,-311"/>
<text text-anchor="middle" x="370.5" y="-299" font-family="Helvetica,sans-Serif" font-size="10.00">lmmp_add_n_</text>
</a>
</g>
</g>
<!-- Node1&#45;&gt;Node3 -->
<g id="edge4_Node000001_Node000003" class="edge">
<title>Node1&#45;&gt;Node3</title>
<g id="a_edge4_Node000001_Node000003"><a xlink:title=" ">
<path fill="none" stroke="#63b8ff" d="M63.22,-148.02C73.38,-172.64 104.15,-238.6 153,-268.5 203.05,-299.13 271.43,-304.83 317.86,-304.51"/>
<polygon fill="#63b8ff" stroke="#63b8ff" points="318.06,-308.01 328,-304.35 317.94,-301.01 318.06,-308.01"/>
</a>
</g>
</g>
<!-- Node4 -->
<g id="Node000004" class="node">
<title>Node4</title>
<g id="a_Node000004"><a xlink:href="../../d6/d39/lmmpn_8h.html#a344093e8760ed368490d9a527ea2c6e9" target="_top" xlink:title="大数加单精度数静态内联函数 [dst,na]=[numa,na]+x">
<polygon fill="white" stroke="#666666" points="256,-167 171,-167 171,-148 256,-148 256,-167"/>
<text text-anchor="middle" x="213.5" y="-155" font-family="Helvetica,sans-Serif" font-size="10.00">lmmp_add_1_</text>
</a>
</g>
</g>
<!-- Node1&#45;&gt;Node4 -->
<g id="edge3_Node000001_Node000004" class="edge">
<title>Node1&#45;&gt;Node4</title>
<g id="a_edge3_Node000001_Node000004"><a xlink:title=" ">
<path fill="none" stroke="#63b8ff" d="M117.34,-145.68C131.64,-147.46 146.87,-149.35 160.85,-151.09"/>
<polygon fill="#63b8ff" stroke="#63b8ff" points="160.43,-154.56 170.78,-152.32 161.29,-147.61 160.43,-154.56"/>
</a>
</g>
</g>
<!-- Node5 -->
<g id="Node000005" class="node">
<title>Node5</title>
<g id="a_Node000005"><a xlink:href="../../d5/db9/add__n__sub__n_8c.html#accedf10c55a5675d82795f37a9fdf356" target="_top" xlink:title="同时执行n位加法和减法 ([dsta,n],[dstb,n]) = ([numa,n]+[numb,n],[numa,n]&#45;[numb,n])">
<polygon fill="white" stroke="#666666" points="273,-130 154,-130 154,-111 273,-111 273,-130"/>
<text text-anchor="middle" x="213.5" y="-118" font-family="Helvetica,sans-Serif" font-size="10.00">lmmp_add_n_sub_n_</text>
</a>
</g>
</g>
<!-- Node1&#45;&gt;Node5 -->
<g id="edge5_Node000001_Node000005" class="edge">
<title>Node1&#45;&gt;Node5</title>
<g id="a_edge5_Node000001_Node000005"><a xlink:title=" ">
<path fill="none" stroke="#63b8ff" d="M117.34,-131.69C125.92,-130.69 134.83,-129.64 143.6,-128.61"/>
<polygon fill="#63b8ff" stroke="#63b8ff" points="144.29,-132.05 153.81,-127.4 143.47,-125.1 144.29,-132.05"/>
</a>
</g>
</g>
<!-- Node8 -->
<g id="Node000008" class="node">
<title>Node8</title>
<g id="a_Node000008"><a xlink:href="../../d1/d49/shl_8c.html#a95add671de39d53ba0f2431f74c7a12a" target="_top" xlink:title="加法结合左移1位操作 [dst,n] = [numa,n] + ([numb,n] &lt;&lt; 1)">
<polygon fill="white" stroke="#666666" points="266,-93 161,-93 161,-74 266,-74 266,-93"/>
<text text-anchor="middle" x="213.5" y="-81" font-family="Helvetica,sans-Serif" font-size="10.00">lmmp_addshl1_n_</text>
</a>
</g>
</g>
<!-- Node1&#45;&gt;Node8 -->
<g id="edge8_Node000001_Node000008" class="edge">
<title>Node1&#45;&gt;Node8</title>
<g id="a_edge8_Node000001_Node000008"><a xlink:title=" ">
<path fill="none" stroke="#63b8ff" d="M83.18,-128.94C102,-121.45 129.04,-110.93 153,-102.5 159.04,-100.37 165.46,-98.22 171.77,-96.16"/>
<polygon fill="#63b8ff" stroke="#63b8ff" points="173.06,-99.42 181.5,-93.02 170.91,-92.76 173.06,-99.42"/>
</a>
</g>
</g>
<!-- Node9 -->
<g id="Node000009" class="node">
<title>Node9</title>
<g id="a_Node000009"><a xlink:href="../../d6/d39/lmmpn_8h.html#a27b630fe59d53b8174b5ddb04202e556" target="_top" xlink:title="大数比较函数（内联）">
<polygon fill="white" stroke="#666666" points="252,-56 175,-56 175,-37 252,-37 252,-56"/>
<text text-anchor="middle" x="213.5" y="-44" font-family="Helvetica,sans-Serif" font-size="10.00">lmmp_cmp_</text>
</a>
</g>
</g>
<!-- Node1&#45;&gt;Node9 -->
<g id="edge9_Node000001_Node000009" class="edge">
<title>Node1&#45;&gt;Node9</title>
<g id="a_edge9_Node000001_Node000009"><a xlink:title=" ">
<path fill="none" stroke="#63b8ff" d="M69,-128.93C84.98,-113.32 118.88,-82.34 153,-64.5 156.93,-62.45 161.12,-60.59 165.4,-58.92"/>
<polygon fill="#63b8ff" stroke="#63b8ff" points="166.59,-62.21 174.83,-55.55 164.24,-55.62 166.59,-62.21"/>
</a>
</g>
</g>
<!-- Node10 -->
<g id="Node000010" class="node">
<title>Node10</title>
<g id="a_Node000010"><a xlink:href="../../d6/d39/lmmpn_8h.html#a72d4d8c682124218c7a0c7c3e5f818ce" target="_top" xlink:title="不等长大数乘法操作 [dst,na+nb] = [numa,na] * [numb,nb]">
<polygon fill="white" stroke="#666666" points="250.5,-19 176.5,-19 176.5,0 250.5,0 250.5,-19"/>
<text text-anchor="middle" x="213.5" y="-7" font-family="Helvetica,sans-Serif" font-size="10.00">lmmp_mul_</text>
</a>
</g>
</g>
<!-- Node1&#45;&gt;Node10 -->
<g id="edge10_Node000001_Node000010" class="edge">
<title>Node1&#45;&gt;Node10</title>
<g id="a_edge10_Node000001_Node000010"><a xlink:title=" ">
<path fill="none" stroke="#63b8ff" d="M64.92,-128.87C77.52,-107.37 110.91,-55.21 153,-27.5 157.28,-24.68 162.03,-22.29 166.92,-20.26"/>
<polygon fill="#63b8ff" stroke="#63b8ff" points="168.21,-23.51 176.4,-16.79 165.81,-16.94 168.21,-23.51"/>
</a>
</g>
</g>
<!-- Node11 -->
<g id="Node000011" class="node">
<title>Node11</title>
<g id="a_Node000011"><a xlink:href="../../d1/d52/mul__toom__interp5_8c.html#a6ae4dcc2f9da58424619e4302e1593e1" target="_top" xlink:title="Toom插值计算（5点插值），用于Toom&#45;33和Toom&#45;42乘法算法">
<polygon fill="white" stroke="#666666" points="274,-204 153,-204 153,-185 274,-185 274,-204"/>
<text text-anchor="middle" x="213.5" y="-192" font-family="Helvetica,sans-Serif" font-size="10.00">lmmp_toom_interp5_</text>
</a>
</g>
</g>
<!-- Node1&#45;&gt;Node11 -->
<g id="edge11_Node000001_Node000011" class="edge">
<title>Node1&#45;&gt;Node11</title>
<g id="a_edge11_Node000001_Node000011"><a xlink:title=" ">
<path fill="none" stroke="#63b8ff" d="M81.57,-148.14C100.38,-156.2 128.22,-167.74 153,-176.5 158.21,-178.34 163.73,-180.17 169.21,-181.91"/>
<polygon fill="#63b8ff" stroke="#63b8ff" points="168.38,-185.32 178.97,-184.95 170.46,-178.64 168.38,-185.32"/>
</a>
</g>
</g>
<!-- Node2&#45;&gt;Node3 -->
<g id="edge2_Node000002_Node000003" class="edge">
<title>Node2&#45;&gt;Node3</title>
<g id="a_edge2_Node000002_Node000003"><a xlink:title=" ">
<path fill="none" stroke="#63b8ff" d="M240.32,-259.07C259.47,-266.08 286.26,-275.69 310,-283.5 315.58,-285.34 321.48,-287.21 327.31,-289.01"/>
<polygon fill="#63b8ff" stroke="#63b8ff" points="326.4,-292.39 336.99,-291.97 328.45,-285.7 326.4,-292.39"/>
</a>
</g>
</g>
<!-- Node6 -->
<g id="Node000006" class="node">
<title>Node6</title>
<g id="a_Node000006"><a xlink:href="../../da/dc7/add__n_8c.html#aa06f92c7f9a675b88556524c8e09ecbd" target="_top" xlink:title="带进位的n位加法 [dst,n] = [numa,n] + [numb,n] + c">
<polygon fill="white" stroke="#666666" points="415.5,-89 325.5,-89 325.5,-70 415.5,-70 415.5,-89"/>
<text text-anchor="middle" x="370.5" y="-77" font-family="Helvetica,sans-Serif" font-size="10.00">lmmp_add_nc_</text>
</a>
</g>
</g>
<!-- Node5&#45;&gt;Node6 -->
<g id="edge6_Node000005_Node000006" class="edge">
<title>Node5&#45;&gt;Node6</title>
<g id="a_edge6_Node000005_Node000006"><a xlink:title=" ">
<path fill="none" stroke="#63b8ff" d="M250.45,-110.99C272.28,-105.22 300.36,-97.79 323.76,-91.6"/>
<polygon fill="#63b8ff" stroke="#63b8ff" points="324.7,-94.97 333.48,-89.03 322.91,-88.2 324.7,-94.97"/>
</a>
</g>
</g>
<!-- Node7 -->
<g id="Node000007" class="node">
<title>Node7</title>
<g id="a_Node000007"><a xlink:href="../../d3/d44/sub__n_8c.html#af53a20c46d5cd5ee5f6a599b04aec190" target="_top" xlink:title="带借位的n位减法 [dst,n] = [numa,n] &#45; [numb,n] &#45; c">
<polygon fill="white" stroke="#666666" points="415,-52 326,-52 326,-33 415,-33 415,-52"/>
<text text-anchor="middle" x="370.5" y="-40" font-family="Helvetica,sans-Serif" font-size="10.00">lmmp_sub_nc_</text>
</a>
</g>
</g>
<!-- Node5&#45;&gt;Node7 -->
<g id="edge7_Node000005_Node000007" class="edge">
<title>Node5&#45;&gt;Node7</title>
<g id="a_edge7_Node000005_Node000007"><a xlink:title=" ">
<path fill="none" stroke="#63b8ff" d="M256.81,-110.99C262.84,-108.71 268.76,-105.92 274,-102.5 294.59,-89.07 289.41,-73.93 310,-60.5 312.46,-58.9 315.06,-57.43 317.76,-56.09"/>
<polygon fill="#63b8ff" stroke="#63b8ff" points="319.4,-59.2 327.19,-52.01 316.62,-52.77 319.4,-59.2"/>
</a>
</g>
</g>
<!-- Node11&#45;&gt;Node3 -->
<g id="edge12_Node000011_Node000003" class="edge">
<title>Node11&#45;&gt;Node3</title>
<g id="a_edge12_Node000011_Node000003"><a xlink:title=" ">
<path fill="none" stroke="#63b8ff" d="M234.12,-204.04C246.45,-210.65 262.19,-220.26 274,-231.5 294.36,-250.88 287.28,-266.95 310,-283.5 312.66,-285.44 315.53,-287.17 318.53,-288.72"/>
<polygon fill="#63b8ff" stroke="#63b8ff" points="317.23,-291.97 327.79,-292.83 320.07,-285.57 317.23,-291.97"/>
</a>
</g>
</g>
<!-- Node12 -->
<g id="Node000012" class="node">
<title>Node12</title>
<g id="a_Node000012"><a xlink:href="../../d8/d18/divexact_8h.html#a6d9813900f18ed81dc52345e094b1d49" target="_top" xlink:title="精确除以3（[dst,na] = [numa,na] / 3）">
<polygon fill="white" stroke="#666666" points="431,-274 310,-274 310,-255 431,-255 431,-274"/>
<text text-anchor="middle" x="370.5" y="-262" font-family="Helvetica,sans-Serif" font-size="10.00">lmmp_divexact_by3_</text>
</a>
</g>
</g>
<!-- Node11&#45;&gt;Node12 -->
<g id="edge13_Node000011_Node000012" class="edge">
<title>Node11&#45;&gt;Node12</title>
<g id="a_edge13_Node000011_Node000012"><a xlink:title=" ">
<path fill="none" stroke="#63b8ff" d="M229.89,-204.17C248.38,-215.47 280.57,-234.19 310,-246.5 314.43,-248.35 319.13,-250.11 323.85,-251.74"/>
<polygon fill="#63b8ff" stroke="#63b8ff" points="322.93,-255.12 333.53,-254.91 325.12,-248.47 322.93,-255.12"/>
</a>
</g>
</g>
<!-- Node13 -->
<g id="Node000013" class="node">
<title>Node13</title>
<g id="a_Node000013"><a xlink:href="../../d1/d49/shl_8c.html#a6d5aca3454f13e3fcaedba3a15b03823" target="_top" xlink:title="大数左移操作 [dst,na] = [numa,na]&lt;&lt;shl，dst的低shl位填充0">
<polygon fill="white" stroke="#666666" points="405.5,-237 335.5,-237 335.5,-218 405.5,-218 405.5,-237"/>
<text text-anchor="middle" x="370.5" y="-225" font-family="Helvetica,sans-Serif" font-size="10.00">lmmp_shl_</text>
</a>
</g>
</g>
<!-- Node11&#45;&gt;Node13 -->
<g id="edge14_Node000011_Node000013" class="edge">
<title>Node11&#45;&gt;Node13</title>
<g id="a_edge14_Node000011_Node000013"><a xlink:title=" ">
<path fill="none" stroke="#63b8ff" d="M259.33,-204.04C280.08,-208.46 304.65,-213.69 325.31,-218.09"/>
<polygon fill="#63b8ff" stroke="#63b8ff" points="324.6,-221.52 335.11,-220.18 326.06,-214.67 324.6,-221.52"/>
</a>
</g>
</g>
<!-- Node14 -->
<g id="Node000014" class="node">
<title>Node14</title>
<g id="a_Node000014"><a xlink:href="../../de/d50/shr_8c.html#a279d8acece60ee1176a17c9e829710f7" target="_top" xlink:title="加法后右移1位 [dst,n] = ([numa,n] + [numb,n]) &gt;&gt; 1">
<polygon fill="white" stroke="#666666" points="423.5,-200 317.5,-200 317.5,-181 423.5,-181 423.5,-200"/>
<text text-anchor="middle" x="370.5" y="-188" font-family="Helvetica,sans-Serif" font-size="10.00">lmmp_shr1add_n_</text>
</a>
</g>
</g>
<!-- Node11&#45;&gt;Node14 -->
<g id="edge15_Node000011_Node000014" class="edge">
<title>Node11&#45;&gt;Node14</title>
<g id="a_edge15_Node000011_Node000014"><a xlink:title=" ">
<path fill="none" stroke="#63b8ff" d="M274.43,-192.95C285.14,-192.68 296.33,-192.39 307.12,-192.11"/>
<polygon fill="#63b8ff" stroke="#63b8ff" points="307.4,-195.6 317.3,-191.85 307.22,-188.61 307.4,-195.6"/>
</a>
</g>
</g>
<!-- Node15 -->
<g id="Node000015" class="node">
<title>Node15</title>
<g id="a_Node000015"><a xlink:href="../../de/d50/shr_8c.html#ae14dbc62d030ce3e6de8fa8590195f07" target="_top" xlink:title="减法后右移1位 [dst,n] = ([numa,n] &#45; [numb,n]) &gt;&gt; 1">
<polygon fill="white" stroke="#666666" points="423,-163 318,-163 318,-144 423,-144 423,-163"/>
<text text-anchor="middle" x="370.5" y="-151" font-family="Helvetica,sans-Serif" font-size="10.00">lmmp_shr1sub_n_</text>
</a>
</g>
</g>
<!-- Node11&#45;&gt;Node15 -->
<g id="edge16_Node000011_Node000015" class="edge">
<title>Node11&#45;&gt;Node15</title>
<g id="a_edge16_Node000011_Node000015"><a xlink:title=" ">
<path fill="none" stroke="#63b8ff" d="M250.45,-184.99C272.28,-179.22 300.36,-171.79 323.76,-165.6"/>
<polygon fill="#63b8ff" stroke="#63b8ff" points="324.7,-168.97 333.48,-163.03 322.91,-162.2 324.7,-168.97"/>
</a>
</g>
</g>
<!-- Node16 -->
<g id="Node000016" class="node">
<title>Node16</title>
<g id="a_Node000016"><a xlink:href="../../d3/d44/sub__n_8c.html#ae0e05032a43c35021a6d6859ed51f467" target="_top" xlink:title="无借位的n位减法 [dst,n] = [numa,n] &#45; [numb,n]">
<polygon fill="white" stroke="#666666" points="412.5,-126 328.5,-126 328.5,-107 412.5,-107 412.5,-126"/>
<text text-anchor="middle" x="370.5" y="-114" font-family="Helvetica,sans-Serif" font-size="10.00">lmmp_sub_n_</text>
</a>
</g>
</g>
<!-- Node11&#45;&gt;Node16 -->
<g id="edge17_Node000011_Node000016" class="edge">
<title>Node11&#45;&gt;Node16</title>
<g id="a_edge17_Node000011_Node000016"><a xlink:title=" ">
<path fill="none" stroke="#63b8ff" d="M256.78,-184.93C262.8,-182.67 268.74,-179.89 274,-176.5 294.39,-163.37 289.71,-148.78 310,-135.5 313.08,-133.48 316.4,-131.66 319.83,-130.03"/>
<polygon fill="#63b8ff" stroke="#63b8ff" points="321.24,-133.23 329.1,-126.12 318.52,-126.78 321.24,-133.23"/>
</a>
</g>
</g>
</g>
</svg>
