<?xml version="1.0" encoding="UTF-8" standalone="no"?>
<!DOCTYPE svg PUBLIC "-//W3C//DTD SVG 1.1//EN"
 "http://www.w3.org/Graphics/SVG/1.1/DTD/svg11.dtd">
<!-- Generated by graphviz version 2.43.0 (0)
 -->
<!-- Title: lamina::detail::MonomialLessUnder Pages: 1 -->
<svg width="185pt" height="597pt"
 viewBox="0.00 0.00 185.00 597.00" xmlns="http://www.w3.org/2000/svg" xmlns:xlink="http://www.w3.org/1999/xlink">
<g id="graph0" class="graph" transform="scale(1 1) rotate(0) translate(4 593)">
<title>lamina::detail::MonomialLessUnder</title>
<!-- Node1 -->
<g id="Node000001" class="node">
<title>Node1</title>
<g id="a_Node000001"><a xlink:title="单项式比较器（按给定序的逆序排列，用于最小堆）">
<polygon fill="#999999" stroke="transparent" points="175.5,-108 1.5,-108 1.5,0 175.5,0 175.5,-108"/>
<text text-anchor="start" x="27" y="-96" font-family="Helvetica,sans-Serif" font-size="10.00">lamina::detail::Monomial</text>
<text text-anchor="start" x="62.5" y="-85" font-family="Helvetica,sans-Serif" font-size="10.00">LessUnder</text>
<text text-anchor="start" x="86.5" y="-70" font-family="Helvetica,sans-Serif" font-size="10.00"> </text>
<text text-anchor="start" x="5.5" y="-55" font-family="Helvetica,sans-Serif" font-size="10.00">+</text>
<text text-anchor="start" x="18.5" y="-55" font-family="Helvetica,sans-Serif" font-size="10.00">MonomialLessUnder</text>
<text text-anchor="start" x="18.5" y="-44" font-family="Helvetica,sans-Serif" font-size="10.00">(const MonomialOrder *o)</text>
<text text-anchor="start" x="5.5" y="-29" font-family="Helvetica,sans-Serif" font-size="10.00">+</text>
<text text-anchor="start" x="18.5" y="-29" font-family="Helvetica,sans-Serif" font-size="10.00">bool operator()(const</text>
<text text-anchor="start" x="18.5" y="-18" font-family="Helvetica,sans-Serif" font-size="10.00"> Monomial &amp;a, const Monomial</text>
<text text-anchor="start" x="18.5" y="-7" font-family="Helvetica,sans-Serif" font-size="10.00"> &amp;b) const</text>
<polygon fill="#666666" stroke="#666666" points="1.5,-80 1.5,-80 175.5,-80 175.5,-80 1.5,-80"/>
<polygon fill="#666666" stroke="#666666" points="1.5,-65 1.5,-65 175.5,-65 175.5,-65 1.5,-65"/>
<polygon fill="none" stroke="#666666" points="1.5,0 1.5,-108 175.5,-108 175.5,0 1.5,0"/>
</a>
</g>
</g>
<!-- Node2 -->
<g id="Node000002" class="node">
<title>Node2</title>
<g id="a_Node000002"><a xlink:href="../../da/d68/classlamina_1_1MonomialOrder.html" target="_top" xlink:title="单项式序比较器，支持 Lex、GrevLex、DegLex、DegRevLex">
<polygon fill="white" stroke="transparent" points="177,-493 0,-493 0,-155 177,-155 177,-493"/>
<text text-anchor="start" x="31" y="-481" font-family="Helvetica,sans-Serif" font-size="10.00">lamina::MonomialOrder</text>
<text text-anchor="start" x="87" y="-466" font-family="Helvetica,sans-Serif" font-size="10.00"> </text>
<text text-anchor="start" x="4.5" y="-451" font-family="Helvetica,sans-Serif" font-size="10.00">+</text>
<text text-anchor="start" x="17.5" y="-451" font-family="Helvetica,sans-Serif" font-size="10.00">MonomialOrder(MonomialOrder</text>
<text text-anchor="start" x="17.5" y="-440" font-family="Helvetica,sans-Serif" font-size="10.00">Type type)</text>
<text text-anchor="start" x="4.5" y="-425" font-family="Helvetica,sans-Serif" font-size="10.00">+</text>
<text text-anchor="start" x="17.5" y="-425" font-family="Helvetica,sans-Serif" font-size="10.00">bool operator()(const</text>
<text text-anchor="start" x="17.5" y="-414" font-family="Helvetica,sans-Serif" font-size="10.00"> Monomial &amp;a, const Monomial</text>
<text text-anchor="start" x="17.5" y="-403" font-family="Helvetica,sans-Serif" font-size="10.00"> &amp;b) const</text>
<text text-anchor="start" x="4.5" y="-388" font-family="Helvetica,sans-Serif" font-size="10.00">+</text>
<text text-anchor="start" x="17.5" y="-388" font-family="Helvetica,sans-Serif" font-size="10.00">MonomialOrderType type</text>
<text text-anchor="start" x="17.5" y="-377" font-family="Helvetica,sans-Serif" font-size="10.00">() const</text>
<text text-anchor="start" x="4.5" y="-362" font-family="Helvetica,sans-Serif" font-size="10.00">+</text>
<text text-anchor="start" x="17.5" y="-362" font-family="Helvetica,sans-Serif" font-size="10.00">static MonomialOrder</text>
<text text-anchor="start" x="17.5" y="-351" font-family="Helvetica,sans-Serif" font-size="10.00"> deglex()</text>
<text text-anchor="start" x="4.5" y="-336" font-family="Helvetica,sans-Serif" font-size="10.00">+</text>
<text text-anchor="start" x="17.5" y="-336" font-family="Helvetica,sans-Serif" font-size="10.00">static MonomialOrder</text>
<text text-anchor="start" x="17.5" y="-325" font-family="Helvetica,sans-Serif" font-size="10.00"> degrevlex()</text>
<text text-anchor="start" x="4.5" y="-310" font-family="Helvetica,sans-Serif" font-size="10.00">+</text>
<text text-anchor="start" x="17.5" y="-310" font-family="Helvetica,sans-Serif" font-size="10.00">static MonomialOrder</text>
<text text-anchor="start" x="17.5" y="-299" font-family="Helvetica,sans-Serif" font-size="10.00"> grevlex()</text>
<text text-anchor="start" x="4.5" y="-284" font-family="Helvetica,sans-Serif" font-size="10.00">+</text>
<text text-anchor="start" x="17.5" y="-284" font-family="Helvetica,sans-Serif" font-size="10.00">static MonomialOrder</text>
<text text-anchor="start" x="17.5" y="-273" font-family="Helvetica,sans-Serif" font-size="10.00"> lex()</text>
<text text-anchor="start" x="7" y="-258" font-family="Helvetica,sans-Serif" font-size="10.00">&#45;</text>
<text text-anchor="start" x="17.5" y="-258" font-family="Helvetica,sans-Serif" font-size="10.00">static bool compare</text>
<text text-anchor="start" x="17.5" y="-247" font-family="Helvetica,sans-Serif" font-size="10.00">_deglex(const Monomial</text>
<text text-anchor="start" x="17.5" y="-236" font-family="Helvetica,sans-Serif" font-size="10.00"> &amp;a, const Monomial &amp;b)</text>
<text text-anchor="start" x="7" y="-221" font-family="Helvetica,sans-Serif" font-size="10.00">&#45;</text>
<text text-anchor="start" x="17.5" y="-221" font-family="Helvetica,sans-Serif" font-size="10.00">static bool compare</text>
<text text-anchor="start" x="17.5" y="-210" font-family="Helvetica,sans-Serif" font-size="10.00">_grevlex(const Monomial</text>
<text text-anchor="start" x="17.5" y="-199" font-family="Helvetica,sans-Serif" font-size="10.00"> &amp;a, const Monomial &amp;b)</text>
<text text-anchor="start" x="7" y="-184" font-family="Helvetica,sans-Serif" font-size="10.00">&#45;</text>
<text text-anchor="start" x="17.5" y="-184" font-family="Helvetica,sans-Serif" font-size="10.00">static bool compare</text>
<text text-anchor="start" x="17.5" y="-173" font-family="Helvetica,sans-Serif" font-size="10.00">_lex(const Monomial</text>
<text text-anchor="start" x="17.5" y="-162" font-family="Helvetica,sans-Serif" font-size="10.00"> &amp;a, const Monomial &amp;b)</text>
<polygon fill="#666666" stroke="#666666" points="0.5,-476 0.5,-476 177.5,-476 177.5,-476 0.5,-476"/>
<polygon fill="#666666" stroke="#666666" points="0.5,-461 0.5,-461 177.5,-461 177.5,-461 0.5,-461"/>
<polygon fill="none" stroke="#666666" points="0,-155 0,-493 177,-493 177,-155 0,-155"/>
</a>
</g>
</g>
<!-- Node2&#45;&gt;Node1 -->
<g id="edge1_Node000001_Node000002" class="edge">
<title>Node2&#45;&gt;Node1</title>
<g id="a_edge1_Node000001_Node000002"><a xlink:title=" ">
<path fill="none" stroke="#63b8ff" d="M88.5,-154.79C88.5,-142.77 88.5,-131.15 88.5,-120.34"/>
<polygon fill="none" stroke="#63b8ff" points="88.5,-120.05 84.5,-114.05 88.5,-108.05 92.5,-114.05 88.5,-120.05"/>
</a>
</g>
<text text-anchor="middle" x="107" y="-129" font-family="Helvetica,sans-Serif" font-size="10.00" fill="grey"> +order</text>
</g>
<!-- Node3 -->
<g id="Node000003" class="node">
<title>Node3</title>
<g id="a_Node000003"><a xlink:title=" ">
<polygon fill="white" stroke="transparent" points="143,-589 34,-589 34,-540 143,-540 143,-589"/>
<text text-anchor="start" x="39.5" y="-576.5" font-family="Helvetica,sans-Serif" font-size="10.00">MonomialOrderType</text>
<text text-anchor="start" x="87" y="-561.5" font-family="Helvetica,sans-Serif" font-size="10.00"> </text>
<text text-anchor="start" x="87" y="-546.5" font-family="Helvetica,sans-Serif" font-size="10.00"> </text>
<polygon fill="#666666" stroke="#666666" points="34.5,-571.5 34.5,-571.5 143.5,-571.5 143.5,-571.5 34.5,-571.5"/>
<polygon fill="#666666" stroke="#666666" points="34.5,-556.5 34.5,-556.5 143.5,-556.5 143.5,-556.5 34.5,-556.5"/>
<polygon fill="none" stroke="#666666" points="34,-540 34,-589 143,-589 143,-540 34,-540"/>
</a>
</g>
</g>
<!-- Node3&#45;&gt;Node2 -->
<g id="edge2_Node000002_Node000003" class="edge">
<title>Node3&#45;&gt;Node2</title>
<g id="a_edge2_Node000002_Node000003"><a xlink:title=" ">
<path fill="none" stroke="#63b8ff" d="M88.5,-539.76C88.5,-530.33 88.5,-518.61 88.5,-505.53"/>
<polygon fill="none" stroke="#63b8ff" points="88.5,-505.17 84.5,-499.17 88.5,-493.17 92.5,-499.17 88.5,-505.17"/>
</a>
</g>
<text text-anchor="middle" x="105.5" y="-514" font-family="Helvetica,sans-Serif" font-size="10.00" fill="grey"> &#45;type_</text>
</g>
</g>
</svg>
