<?xml version="1.0" encoding="UTF-8" standalone="no"?>
<!DOCTYPE svg PUBLIC "-//W3C//DTD SVG 1.1//EN"
 "http://www.w3.org/Graphics/SVG/1.1/DTD/svg11.dtd">
<!-- Generated by graphviz version 2.43.0 (0)
 -->
<!-- Title: lmmp_is_prime_uint_ Pages: 1 -->
<!--zoomable 138 -->

<svg id="main" version="1.1" xmlns="http://www.w3.org/2000/svg" xmlns:xlink="http://www.w3.org/1999/xlink" xml:space="preserve" onload="init(evt)">
<style type="text/css"><![CDATA[
.node, .edge {opacity: 0.7;}
.node.selected, .edge.selected {opacity: 1;}
.edge:hover path { stroke: red; }
.edge:hover polygon { stroke: red; fill: red; }
]]></style>

<defs>
  <circle id="rim" cx="0" cy="0" r="7"/>
  <circle id="rim2" cx="0" cy="0" r="3.5"/>
  <g id="zoomPlus">
    <use xlink:href="#rim" fill="#404040"><set attributeName="fill" to="#808080" begin="zoomplus.mouseover" end="zoomplus.mouseout"/></use>
    <path d="M-4,0h8M0,-4v8" fill="none" stroke="white" stroke-width="1.5" pointer-events="none"/>
  </g>
  <g id="zoomMin">
    <use xlink:href="#rim" fill="#404040"><set attributeName="fill" to="#808080" begin="zoomminus.mouseover" end="zoomminus.mouseout"/></use>
    <path d="M-4,0h8" fill="none" stroke="white" stroke-width="1.5" pointer-events="none"/>
  </g>
  <g id="arrowUp" transform="translate(30 24)">
    <use xlink:href="#rim"/>
    <path pointer-events="none" fill="none" stroke="white" stroke-width="1.5" d="M0,-3.0v7 M-2.5,-0.5L0,-3.0L2.5,-0.5"/>
  </g>
  <g id="arrowRight" transform="rotate(90) translate(36 -43)">
    <use xlink:href="#rim"/>
    <path pointer-events="none" fill="none" stroke="white" stroke-width="1.5" d="M0,-3.0v7 M-2.5,-0.5L0,-3.0L2.5,-0.5"/>
  </g>
  <g id="arrowDown" transform="rotate(180) translate(-30 -48)">
    <use xlink:href="#rim"/>
    <path pointer-events="none" fill="none" stroke="white" stroke-width="1.5" d="M0,-3.0v7 M-2.5,-0.5L0,-3.0L2.5,-0.5"/>
  </g>
  <g id="arrowLeft" transform="rotate(270) translate(-36 17)">
    <use xlink:href="#rim"/>
    <path pointer-events="none" fill="none" stroke="white" stroke-width="1.5" d="M0,-3.0v7 M-2.5,-0.5L0,-3.0L2.5,-0.5"/>
  </g>
  <g id="resetDef">
    <use xlink:href="#rim2" fill="#404040"><set attributeName="fill" to="#808080" begin="reset.mouseover" end="reset.mouseout"/></use>
  </g>
</defs>
<script type="application/ecmascript">
var viewWidth = 704;
var viewHeight = 138;
var sectionId = 'dynsection-17';
</script>
<script type="application/ecmascript" xlink:href="../../svg.min.js"/>
<svg id="graph" class="graph">
<g id="viewport">
<title>lmmp_is_prime_uint_</title>
<!-- Node1 -->
<g id="Node000001" class="node">
<title>Node1</title>
<g id="a_Node000001"><a xlink:title="判断素数">
<polygon fill="#999999" stroke="#666666" points="122,-74 0,-74 0,-55 122,-55 122,-74"/>
<text text-anchor="middle" x="61" y="-62" font-family="Helvetica,sans-Serif" font-size="10.00">lmmp_is_prime_uint_</text>
</a>
</g>
</g>
<!-- Node2 -->
<g id="Node000002" class="node">
<title>Node2</title>
<g id="a_Node000002"><a xlink:href="../../d1/d59/longlong_8h.html#a88a29f1ee77bc94b09524c46ace0abc0" target="_top" xlink:title=" ">
<polygon fill="white" stroke="#666666" points="261,-130 183,-130 183,-111 261,-111 261,-130"/>
<text text-anchor="middle" x="222" y="-118" font-family="Helvetica,sans-Serif" font-size="10.00">_udiv64_gen</text>
</a>
</g>
</g>
<!-- Node1&#45;&gt;Node2 -->
<g id="edge1_Node000001_Node000002" class="edge">
<title>Node1&#45;&gt;Node2</title>
<g id="a_edge1_Node000001_Node000002"><a xlink:title=" ">
<path fill="none" stroke="#63b8ff" d="M84.27,-74.04C103.58,-82.13 132.37,-93.79 158,-102.5 163.59,-104.4 169.5,-106.27 175.37,-108.04"/>
<polygon fill="#63b8ff" stroke="#63b8ff" points="174.58,-111.46 185.16,-110.92 176.56,-104.74 174.58,-111.46"/>
</a>
</g>
</g>
<!-- Node6 -->
<g id="Node000006" class="node">
<title>Node6</title>
<g id="a_Node000006"><a xlink:href="../../d2/d9c/prime__table_8c.html#a6831aedda8d6aecc9a39f285b4314961" target="_top" xlink:title="根据全局素数表判断一个数是否为素数">
<polygon fill="white" stroke="#666666" points="286,-93 158,-93 158,-74 286,-74 286,-93"/>
<text text-anchor="middle" x="222" y="-81" font-family="Helvetica,sans-Serif" font-size="10.00">lmmp_is_prime_table_</text>
</a>
</g>
</g>
<!-- Node1&#45;&gt;Node6 -->
<g id="edge6_Node000001_Node000006" class="edge">
<title>Node1&#45;&gt;Node6</title>
<g id="a_edge6_Node000001_Node000006"><a xlink:title=" ">
<path fill="none" stroke="#63b8ff" d="M122.11,-71.68C130.52,-72.69 139.23,-73.73 147.85,-74.76"/>
<polygon fill="#63b8ff" stroke="#63b8ff" points="147.54,-78.25 157.89,-75.96 148.38,-71.3 147.54,-78.25"/>
</a>
</g>
</g>
<!-- Node8 -->
<g id="Node000008" class="node">
<title>Node8</title>
<g id="a_Node000008"><a xlink:href="../../da/dfb/is__prime__ulong_8c.html#a4feb035b8ea5c9860a65c99f3135e634" target="_top" xlink:title=" ">
<polygon fill="white" stroke="#666666" points="268,-56 176,-56 176,-37 268,-37 268,-56"/>
<text text-anchor="middle" x="222" y="-44" font-family="Helvetica,sans-Serif" font-size="10.00">miller_rabin_32</text>
</a>
</g>
</g>
<!-- Node1&#45;&gt;Node8 -->
<g id="edge8_Node000001_Node000008" class="edge">
<title>Node1&#45;&gt;Node8</title>
<g id="a_edge8_Node000001_Node000008"><a xlink:title=" ">
<path fill="none" stroke="#63b8ff" d="M122.11,-57.69C136.41,-56.08 151.59,-54.36 165.66,-52.76"/>
<polygon fill="#63b8ff" stroke="#63b8ff" points="166.14,-56.23 175.68,-51.63 165.35,-49.28 166.14,-56.23"/>
</a>
</g>
</g>
<!-- Node11 -->
<g id="Node000011" class="node">
<title>Node11</title>
<g id="a_Node000011"><a xlink:href="../../d1/d98/prime__table_8h.html#a0c15c84948a73895982010925d3475dc" target="_top" xlink:title="校验是否能被3,5,7,11整除，能够整除则返回1，否则返回0">
<polygon fill="white" stroke="#666666" points="265,-19 179,-19 179,0 265,0 265,-19"/>
<text text-anchor="middle" x="222" y="-7" font-family="Helvetica,sans-Serif" font-size="10.00">trial_div35711</text>
</a>
</g>
</g>
<!-- Node1&#45;&gt;Node11 -->
<g id="edge11_Node000001_Node000011" class="edge">
<title>Node1&#45;&gt;Node11</title>
<g id="a_edge11_Node000001_Node000011"><a xlink:title=" ">
<path fill="none" stroke="#63b8ff" d="M85.07,-54.94C104.38,-47.1 132.76,-35.95 158,-27.5 163.67,-25.6 169.66,-23.73 175.61,-21.94"/>
<polygon fill="#63b8ff" stroke="#63b8ff" points="176.9,-25.21 185.51,-19.04 174.93,-18.49 176.9,-25.21"/>
</a>
</g>
</g>
<!-- Node3 -->
<g id="Node000003" class="node">
<title>Node3</title>
<g id="a_Node000003"><a xlink:href="../../d1/d59/longlong_8h.html#a2ed1638447039b40aefbd0e7a0898946" target="_top" xlink:title=" ">
<polygon fill="white" stroke="#666666" points="448,-130 322,-130 322,-111 448,-111 448,-130"/>
<text text-anchor="middle" x="385" y="-118" font-family="Helvetica,sans-Serif" font-size="10.00">_udiv64_gen_internal_</text>
</a>
</g>
</g>
<!-- Node2&#45;&gt;Node3 -->
<g id="edge2_Node000002_Node000003" class="edge">
<title>Node2&#45;&gt;Node3</title>
<g id="a_edge2_Node000002_Node000003"><a xlink:title=" ">
<path fill="none" stroke="#63b8ff" d="M261.15,-120.5C276.31,-120.5 294.27,-120.5 311.71,-120.5"/>
<polygon fill="#63b8ff" stroke="#63b8ff" points="311.89,-124 321.89,-120.5 311.89,-117 311.89,-124"/>
</a>
</g>
</g>
<!-- Node4 -->
<g id="Node000004" class="node">
<title>Node4</title>
<g id="a_Node000004"><a xlink:href="../../d1/d59/longlong_8h.html#a88d1f2d7a3692c44ed3447565014b5b7" target="_top" xlink:title=" ">
<polygon fill="white" stroke="#666666" points="696,-130 632,-130 632,-111 696,-111 696,-130"/>
<text text-anchor="middle" x="664" y="-118" font-family="Helvetica,sans-Serif" font-size="10.00">_clz_u64_</text>
</a>
</g>
</g>
<!-- Node3&#45;&gt;Node4 -->
<g id="edge3_Node000003_Node000004" class="edge">
<title>Node3&#45;&gt;Node4</title>
<g id="a_edge3_Node000003_Node000004"><a xlink:title=" ">
<path fill="none" stroke="#63b8ff" d="M448.16,-120.5C501.14,-120.5 575.79,-120.5 621.7,-120.5"/>
<polygon fill="#63b8ff" stroke="#63b8ff" points="621.88,-124 631.88,-120.5 621.88,-117 621.88,-124"/>
</a>
</g>
</g>
<!-- Node5 -->
<g id="Node000005" class="node">
<title>Node5</title>
<g id="a_Node000005"><a xlink:href="../../d1/d59/longlong_8h.html#ab8639909cb5e1089ffc5f3f5b9b9da40" target="_top" xlink:title=" ">
<polygon fill="white" stroke="#666666" points="596,-111 484,-111 484,-92 596,-92 596,-111"/>
<text text-anchor="middle" x="540" y="-99" font-family="Helvetica,sans-Serif" font-size="10.00">_udiv128by64to64_</text>
</a>
</g>
</g>
<!-- Node3&#45;&gt;Node5 -->
<g id="edge4_Node000003_Node000005" class="edge">
<title>Node3&#45;&gt;Node5</title>
<g id="a_edge4_Node000003_Node000005"><a xlink:title=" ">
<path fill="none" stroke="#63b8ff" d="M448.23,-112.77C456.58,-111.73 465.17,-110.67 473.58,-109.62"/>
<polygon fill="#63b8ff" stroke="#63b8ff" points="474.22,-113.07 483.71,-108.37 473.35,-106.13 474.22,-113.07"/>
</a>
</g>
</g>
<!-- Node5&#45;&gt;Node4 -->
<g id="edge5_Node000005_Node000004" class="edge">
<title>Node5&#45;&gt;Node4</title>
<g id="a_edge5_Node000005_Node000004"><a xlink:title=" ">
<path fill="none" stroke="#63b8ff" d="M596.29,-110.11C604.89,-111.45 613.64,-112.81 621.85,-114.09"/>
<polygon fill="#63b8ff" stroke="#63b8ff" points="621.5,-117.58 631.92,-115.66 622.58,-110.66 621.5,-117.58"/>
</a>
</g>
</g>
<!-- Node7 -->
<g id="Node000007" class="node">
<title>Node7</title>
<g id="a_Node000007"><a xlink:href="../../d2/d9c/prime__table_8c.html#af5e76d78983e57b2468d365a69354c73" target="_top" xlink:title="计算小于等于 n 的素数数量">
<polygon fill="white" stroke="#666666" points="443,-93 327,-93 327,-74 443,-74 443,-93"/>
<text text-anchor="middle" x="385" y="-81" font-family="Helvetica,sans-Serif" font-size="10.00">lmmp_prime_cnt16_</text>
</a>
</g>
</g>
<!-- Node6&#45;&gt;Node7 -->
<g id="edge7_Node000006_Node000007" class="edge">
<title>Node6&#45;&gt;Node7</title>
<g id="a_edge7_Node000006_Node000007"><a xlink:title=" ">
<path fill="none" stroke="#63b8ff" d="M286.17,-83.5C296.21,-83.5 306.63,-83.5 316.77,-83.5"/>
<polygon fill="#63b8ff" stroke="#63b8ff" points="316.78,-87 326.78,-83.5 316.78,-80 316.78,-87"/>
</a>
</g>
</g>
<!-- Node9 -->
<g id="Node000009" class="node">
<title>Node9</title>
<g id="a_Node000009"><a xlink:href="../../d1/d59/longlong_8h.html#a9e3ed8e7225076ed482e70e7901e8138" target="_top" xlink:title=" ">
<polygon fill="white" stroke="#666666" points="448,-56 322,-56 322,-37 448,-37 448,-56"/>
<text text-anchor="middle" x="385" y="-44" font-family="Helvetica,sans-Serif" font-size="10.00">_udiv64by64_q_preinv</text>
</a>
</g>
</g>
<!-- Node8&#45;&gt;Node9 -->
<g id="edge9_Node000008_Node000009" class="edge">
<title>Node8&#45;&gt;Node9</title>
<g id="a_edge9_Node000008_Node000009"><a xlink:title=" ">
<path fill="none" stroke="#63b8ff" d="M268.28,-46.5C281.8,-46.5 296.98,-46.5 311.78,-46.5"/>
<polygon fill="#63b8ff" stroke="#63b8ff" points="311.95,-50 321.95,-46.5 311.95,-43 311.95,-50"/>
</a>
</g>
</g>
<!-- Node10 -->
<g id="Node000010" class="node">
<title>Node10</title>
<g id="a_Node000010"><a xlink:href="../../d1/d59/longlong_8h.html#a104e813f9a9e8493d73ecabb3e46ff95" target="_top" xlink:title=" ">
<polygon fill="white" stroke="#666666" points="587.5,-56 492.5,-56 492.5,-37 587.5,-37 587.5,-56"/>
<text text-anchor="middle" x="540" y="-44" font-family="Helvetica,sans-Serif" font-size="10.00">_umul64to64hi_</text>
</a>
</g>
</g>
<!-- Node9&#45;&gt;Node10 -->
<g id="edge10_Node000009_Node000010" class="edge">
<title>Node9&#45;&gt;Node10</title>
<g id="a_edge10_Node000009_Node000010"><a xlink:title=" ">
<path fill="none" stroke="#63b8ff" d="M448.23,-46.5C459.51,-46.5 471.21,-46.5 482.31,-46.5"/>
<polygon fill="#63b8ff" stroke="#63b8ff" points="482.32,-50 492.32,-46.5 482.32,-43 482.32,-50"/>
</a>
</g>
</g>
</g>
</svg>

<g id="navigator" transform="translate(0 0)" fill="#404254">
  <rect fill="#f2f5e9" fill-opacity="0.5" stroke="#606060" stroke-width=".5" x="0" y="0" width="60" height="60"/>
  <use id="zoomplus" xlink:href="#zoomPlus" x="17" y="9" onmousedown="handleZoom(evt,'in')"/>
  <use id="zoomminus" xlink:href="#zoomMin" x="42" y="9" onmousedown="handleZoom(evt,'out')"/>
  <use id="reset" xlink:href="#resetDef" x="30" y="36" onmousedown="handleReset()"/>
   <use id="arrowup" xlink:href="#arrowUp" x="0" y="0" onmousedown="handlePan(0,-1)"/>
  <use id="arrowright" xlink:href="#arrowRight" x="0" y="0" onmousedown="handlePan(1,0)"/>
  <use id="arrowdown" xlink:href="#arrowDown" x="0" y="0" onmousedown="handlePan(0,1)"/>
  <use id="arrowleft" xlink:href="#arrowLeft" x="0" y="0" onmousedown="handlePan(-1,0)"/>
</g>
<svg viewBox="0 0 15 15" width="100%" height="30px" preserveAspectRatio="xMaxYMin meet">
 <g id="arrow_out" transform="scale(0.3 0.3)">
  <a xlink:href="numth_8h_a53d07460d08166a1c0fb17a0a9c370e5_cgraph_org.svg" target="_base">
   <rect id="button" ry="5" rx="5" y="6" x="6" height="38" width="38"
        fill="#f2f5e9" fill-opacity="0.5" stroke="#606060" stroke-width="1.0"/>
   <path id="arrow"
     d="M 11.500037,31.436501 C 11.940474,20.09759 22.043105,11.32322 32.158766,21.979434 L 37.068811,17.246167 C 37.068811,17.246167 37.088388,32 37.088388,32 L 22.160133,31.978069 C 22.160133,31.978069 26.997745,27.140456 26.997745,27.140456 C 18.528582,18.264221 13.291696,25.230495 11.500037,31.436501 z"
     style="fill:#404040;"/>
  </a>
 </g>
</svg>

<style type='text/css'>
<![CDATA[
[data-mouse-over-selected='false'] { opacity: 0.7; }
[data-mouse-over-selected='true']  { opacity: 1.0; }
]]>
</style>
<script type="application/ecmascript"><![CDATA[
document.addEventListener('DOMContentLoaded', (event) => {
  highlightEdges();
  highlightAdjacentNodes();
});
]]></script>
</svg>
