<?xml version="1.0" encoding="UTF-8" standalone="no"?>
<!DOCTYPE svg PUBLIC "-//W3C//DTD SVG 1.1//EN"
 "http://www.w3.org/Graphics/SVG/1.1/DTD/svg11.dtd">
<!-- Generated by graphviz version 2.43.0 (0)
 -->
<!-- Title: lmmp_is_prime_notrial_ Pages: 1 -->
<!--zoomable 251 -->

<svg id="main" version="1.1" xmlns="http://www.w3.org/2000/svg" xmlns:xlink="http://www.w3.org/1999/xlink" xml:space="preserve" onload="init(evt)">
<style type="text/css"><![CDATA[
.node, .edge {opacity: 0.7;}
.node.selected, .edge.selected {opacity: 1;}
.edge:hover path { stroke: red; }
.edge:hover polygon { stroke: red; fill: red; }
]]></style>

<defs>
  <circle id="rim" cx="0" cy="0" r="7"/>
  <circle id="rim2" cx="0" cy="0" r="3.5"/>
  <g id="zoomPlus">
    <use xlink:href="#rim" fill="#404040"><set attributeName="fill" to="#808080" begin="zoomplus.mouseover" end="zoomplus.mouseout"/></use>
    <path d="M-4,0h8M0,-4v8" fill="none" stroke="white" stroke-width="1.5" pointer-events="none"/>
  </g>
  <g id="zoomMin">
    <use xlink:href="#rim" fill="#404040"><set attributeName="fill" to="#808080" begin="zoomminus.mouseover" end="zoomminus.mouseout"/></use>
    <path d="M-4,0h8" fill="none" stroke="white" stroke-width="1.5" pointer-events="none"/>
  </g>
  <g id="arrowUp" transform="translate(30 24)">
    <use xlink:href="#rim"/>
    <path pointer-events="none" fill="none" stroke="white" stroke-width="1.5" d="M0,-3.0v7 M-2.5,-0.5L0,-3.0L2.5,-0.5"/>
  </g>
  <g id="arrowRight" transform="rotate(90) translate(36 -43)">
    <use xlink:href="#rim"/>
    <path pointer-events="none" fill="none" stroke="white" stroke-width="1.5" d="M0,-3.0v7 M-2.5,-0.5L0,-3.0L2.5,-0.5"/>
  </g>
  <g id="arrowDown" transform="rotate(180) translate(-30 -48)">
    <use xlink:href="#rim"/>
    <path pointer-events="none" fill="none" stroke="white" stroke-width="1.5" d="M0,-3.0v7 M-2.5,-0.5L0,-3.0L2.5,-0.5"/>
  </g>
  <g id="arrowLeft" transform="rotate(270) translate(-36 17)">
    <use xlink:href="#rim"/>
    <path pointer-events="none" fill="none" stroke="white" stroke-width="1.5" d="M0,-3.0v7 M-2.5,-0.5L0,-3.0L2.5,-0.5"/>
  </g>
  <g id="resetDef">
    <use xlink:href="#rim2" fill="#404040"><set attributeName="fill" to="#808080" begin="reset.mouseover" end="reset.mouseout"/></use>
  </g>
</defs>
<script type="application/ecmascript">
var viewWidth = 556;
var viewHeight = 251;
var sectionId = 'dynsection-15';
</script>
<script type="application/ecmascript" xlink:href="../../svg.min.js"/>
<svg id="graph" class="graph">
<g id="viewport">
<title>lmmp_is_prime_notrial_</title>
<!-- Node1 -->
<g id="Node000001" class="node">
<title>Node1</title>
<g id="a_Node000001"><a xlink:title="判断素数（无试除法）">
<polygon fill="#999999" stroke="#666666" points="134,-130 0,-130 0,-111 134,-111 134,-130"/>
<text text-anchor="middle" x="67" y="-118" font-family="Helvetica,sans-Serif" font-size="10.00">lmmp_is_prime_notrial_</text>
</a>
</g>
</g>
<!-- Node2 -->
<g id="Node000002" class="node">
<title>Node2</title>
<g id="a_Node000002"><a xlink:href="../../df/dea/binvert__1_8c.html#a3926a6e48ffe7baef646e599da10ed2c" target="_top" xlink:title="计算 a 在2^64下的逆元">
<polygon fill="white" stroke="#666666" points="292,-243 170,-243 170,-224 292,-224 292,-243"/>
<text text-anchor="middle" x="231" y="-231" font-family="Helvetica,sans-Serif" font-size="10.00">lmmp_binvert_ulong_</text>
</a>
</g>
</g>
<!-- Node1&#45;&gt;Node2 -->
<g id="edge1_Node000001_Node000002" class="edge">
<title>Node1&#45;&gt;Node2</title>
<g id="a_edge1_Node000001_Node000002"><a xlink:title=" ">
<path fill="none" stroke="#63b8ff" d="M76.98,-130.27C93.78,-148.06 131.71,-186.08 170,-209.5 176.45,-213.44 183.66,-216.97 190.78,-220.04"/>
<polygon fill="#63b8ff" stroke="#63b8ff" points="189.78,-223.41 200.36,-223.91 192.41,-216.92 189.78,-223.41"/>
</a>
</g>
</g>
<!-- Node3 -->
<g id="Node000003" class="node">
<title>Node3</title>
<g id="a_Node000003"><a xlink:href="../../da/dfb/is__prime__ulong_8c.html#af56434be5b0fe38cda274865b648ed81" target="_top" xlink:title=" ">
<polygon fill="white" stroke="#666666" points="277,-167 185,-167 185,-148 277,-148 277,-167"/>
<text text-anchor="middle" x="231" y="-155" font-family="Helvetica,sans-Serif" font-size="10.00">miller_rabin_63</text>
</a>
</g>
</g>
<!-- Node1&#45;&gt;Node3 -->
<g id="edge2_Node000001_Node000003" class="edge">
<title>Node1&#45;&gt;Node3</title>
<g id="a_edge2_Node000001_Node000003"><a xlink:title=" ">
<path fill="none" stroke="#63b8ff" d="M109.72,-130.03C130.61,-134.8 156.11,-140.62 178.24,-145.68"/>
<polygon fill="#63b8ff" stroke="#63b8ff" points="177.61,-149.13 188.14,-147.94 179.17,-142.3 177.61,-149.13"/>
</a>
</g>
</g>
<!-- Node6 -->
<g id="Node000006" class="node">
<title>Node6</title>
<g id="a_Node000006"><a xlink:href="../../da/dfb/is__prime__ulong_8c.html#a87d0ea14b09217834f90a3ac9d08f7b7" target="_top" xlink:title=" ">
<polygon fill="white" stroke="#666666" points="277,-56 185,-56 185,-37 277,-37 277,-56"/>
<text text-anchor="middle" x="231" y="-44" font-family="Helvetica,sans-Serif" font-size="10.00">miller_rabin_64</text>
</a>
</g>
</g>
<!-- Node1&#45;&gt;Node6 -->
<g id="edge5_Node000001_Node000006" class="edge">
<title>Node1&#45;&gt;Node6</title>
<g id="a_edge5_Node000001_Node000006"><a xlink:title=" ">
<path fill="none" stroke="#63b8ff" d="M83.05,-110.92C102.52,-98.83 137.77,-78.01 170,-64.5 174.47,-62.63 179.19,-60.86 183.96,-59.22"/>
<polygon fill="#63b8ff" stroke="#63b8ff" points="185.29,-62.47 193.71,-56.04 183.12,-55.82 185.29,-62.47"/>
</a>
</g>
</g>
<!-- Node9 -->
<g id="Node000009" class="node">
<title>Node9</title>
<g id="a_Node000009"><a xlink:href="../../da/dfb/is__prime__ulong_8c.html#a63d49bcb1bdca169e3c3755afd13383a" target="_top" xlink:title=" ">
<polygon fill="white" stroke="#666666" points="267,-130 195,-130 195,-111 267,-111 267,-130"/>
<text text-anchor="middle" x="231" y="-118" font-family="Helvetica,sans-Serif" font-size="10.00">mont63_R2</text>
</a>
</g>
</g>
<!-- Node1&#45;&gt;Node9 -->
<g id="edge8_Node000001_Node000009" class="edge">
<title>Node1&#45;&gt;Node9</title>
<g id="a_edge8_Node000001_Node000009"><a xlink:title=" ">
<path fill="none" stroke="#63b8ff" d="M134.36,-120.5C151.11,-120.5 168.73,-120.5 184.22,-120.5"/>
<polygon fill="#63b8ff" stroke="#63b8ff" points="184.56,-124 194.56,-120.5 184.56,-117 184.56,-124"/>
</a>
</g>
</g>
<!-- Node11 -->
<g id="Node000011" class="node">
<title>Node11</title>
<g id="a_Node000011"><a xlink:href="../../da/dfb/is__prime__ulong_8c.html#a3c6b5b1826581e26ab693c636c4ad214" target="_top" xlink:title=" ">
<polygon fill="white" stroke="#666666" points="267,-93 195,-93 195,-74 267,-74 267,-93"/>
<text text-anchor="middle" x="231" y="-81" font-family="Helvetica,sans-Serif" font-size="10.00">mont64_R2</text>
</a>
</g>
</g>
<!-- Node1&#45;&gt;Node11 -->
<g id="edge10_Node000001_Node000011" class="edge">
<title>Node1&#45;&gt;Node11</title>
<g id="a_edge10_Node000001_Node000011"><a xlink:title=" ">
<path fill="none" stroke="#63b8ff" d="M109.72,-110.97C132.85,-105.69 161.62,-99.12 185.23,-93.73"/>
<polygon fill="#63b8ff" stroke="#63b8ff" points="186.03,-97.13 194.99,-91.49 184.47,-90.31 186.03,-97.13"/>
</a>
</g>
</g>
<!-- Node12 -->
<g id="Node000012" class="node">
<title>Node12</title>
<g id="a_Node000012"><a xlink:href="../../da/dfb/is__prime__ulong_8c.html#a5615a788b13e0ecb185191eac7731f64" target="_top" xlink:title=" ">
<polygon fill="white" stroke="#666666" points="408.5,-204 339.5,-204 339.5,-185 408.5,-185 408.5,-204"/>
<text text-anchor="middle" x="374" y="-192" font-family="Helvetica,sans-Serif" font-size="10.00">to_mont63</text>
</a>
</g>
</g>
<!-- Node1&#45;&gt;Node12 -->
<g id="edge12_Node000001_Node000012" class="edge">
<title>Node1&#45;&gt;Node12</title>
<g id="a_edge12_Node000001_Node000012"><a xlink:title=" ">
<path fill="none" stroke="#63b8ff" d="M81.06,-130.01C99.72,-143.05 135.6,-166.04 170,-176.5 223.05,-192.64 287.22,-195.76 329.02,-195.76"/>
<polygon fill="#63b8ff" stroke="#63b8ff" points="329.17,-199.26 339.15,-195.7 329.13,-192.26 329.17,-199.26"/>
</a>
</g>
</g>
<!-- Node13 -->
<g id="Node000013" class="node">
<title>Node13</title>
<g id="a_Node000013"><a xlink:href="../../da/dfb/is__prime__ulong_8c.html#ad8b05069196143e0bf6fbb77d011695d" target="_top" xlink:title=" ">
<polygon fill="white" stroke="#666666" points="408.5,-19 339.5,-19 339.5,0 408.5,0 408.5,-19"/>
<text text-anchor="middle" x="374" y="-7" font-family="Helvetica,sans-Serif" font-size="10.00">to_mont64</text>
</a>
</g>
</g>
<!-- Node1&#45;&gt;Node13 -->
<g id="edge14_Node000001_Node000013" class="edge">
<title>Node1&#45;&gt;Node13</title>
<g id="a_edge14_Node000001_Node000013"><a xlink:title=" ">
<path fill="none" stroke="#63b8ff" d="M74.87,-110.98C89.67,-91.32 126.78,-46.48 170,-27.5 221.32,-4.96 286.87,-3.42 329.38,-5.53"/>
<polygon fill="#63b8ff" stroke="#63b8ff" points="329.22,-9.02 339.41,-6.11 329.63,-2.04 329.22,-9.02"/>
</a>
</g>
</g>
<!-- Node4 -->
<g id="Node000004" class="node">
<title>Node4</title>
<g id="a_Node000004"><a xlink:href="../../da/dfb/is__prime__ulong_8c.html#a76bf7544867c3184a913d84e73eee2ea" target="_top" xlink:title=" ">
<polygon fill="white" stroke="#666666" points="413,-167 335,-167 335,-148 413,-148 413,-167"/>
<text text-anchor="middle" x="374" y="-155" font-family="Helvetica,sans-Serif" font-size="10.00">mont63_mul</text>
</a>
</g>
</g>
<!-- Node3&#45;&gt;Node4 -->
<g id="edge3_Node000003_Node000004" class="edge">
<title>Node3&#45;&gt;Node4</title>
<g id="a_edge3_Node000003_Node000004"><a xlink:title=" ">
<path fill="none" stroke="#63b8ff" d="M277,-157.5C292.06,-157.5 308.92,-157.5 324.25,-157.5"/>
<polygon fill="#63b8ff" stroke="#63b8ff" points="324.58,-161 334.58,-157.5 324.58,-154 324.58,-161"/>
</a>
</g>
</g>
<!-- Node5 -->
<g id="Node000005" class="node">
<title>Node5</title>
<g id="a_Node000005"><a xlink:href="../../da/dfb/is__prime__ulong_8c.html#a09b589a54109a5a9dced4befcf7e9115" target="_top" xlink:title=" ">
<polygon fill="white" stroke="#666666" points="548,-185 456,-185 456,-166 548,-166 548,-185"/>
<text text-anchor="middle" x="502" y="-173" font-family="Helvetica,sans-Serif" font-size="10.00">mont63_reduce</text>
</a>
</g>
</g>
<!-- Node4&#45;&gt;Node5 -->
<g id="edge4_Node000004_Node000005" class="edge">
<title>Node4&#45;&gt;Node5</title>
<g id="a_edge4_Node000004_Node000005"><a xlink:title=" ">
<path fill="none" stroke="#63b8ff" d="M413.15,-162.95C423.46,-164.42 434.83,-166.05 445.88,-167.63"/>
<polygon fill="#63b8ff" stroke="#63b8ff" points="445.5,-171.11 455.89,-169.06 446.49,-164.18 445.5,-171.11"/>
</a>
</g>
</g>
<!-- Node7 -->
<g id="Node000007" class="node">
<title>Node7</title>
<g id="a_Node000007"><a xlink:href="../../da/dfb/is__prime__ulong_8c.html#a8f3d20c000cfd992da354801dfb78ca4" target="_top" xlink:title=" ">
<polygon fill="white" stroke="#666666" points="413,-56 335,-56 335,-37 413,-37 413,-56"/>
<text text-anchor="middle" x="374" y="-44" font-family="Helvetica,sans-Serif" font-size="10.00">mont64_mul</text>
</a>
</g>
</g>
<!-- Node6&#45;&gt;Node7 -->
<g id="edge6_Node000006_Node000007" class="edge">
<title>Node6&#45;&gt;Node7</title>
<g id="a_edge6_Node000006_Node000007"><a xlink:title=" ">
<path fill="none" stroke="#63b8ff" d="M277,-46.5C292.06,-46.5 308.92,-46.5 324.25,-46.5"/>
<polygon fill="#63b8ff" stroke="#63b8ff" points="324.58,-50 334.58,-46.5 324.58,-43 324.58,-50"/>
</a>
</g>
</g>
<!-- Node8 -->
<g id="Node000008" class="node">
<title>Node8</title>
<g id="a_Node000008"><a xlink:href="../../da/dfb/is__prime__ulong_8c.html#a957ff205940c424623cd07a24b498ab1" target="_top" xlink:title=" ">
<polygon fill="white" stroke="#666666" points="548,-38 456,-38 456,-19 548,-19 548,-38"/>
<text text-anchor="middle" x="502" y="-26" font-family="Helvetica,sans-Serif" font-size="10.00">mont64_reduce</text>
</a>
</g>
</g>
<!-- Node7&#45;&gt;Node8 -->
<g id="edge7_Node000007_Node000008" class="edge">
<title>Node7&#45;&gt;Node8</title>
<g id="a_edge7_Node000007_Node000008"><a xlink:title=" ">
<path fill="none" stroke="#63b8ff" d="M413.15,-41.05C423.46,-39.58 434.83,-37.95 445.88,-36.37"/>
<polygon fill="#63b8ff" stroke="#63b8ff" points="446.49,-39.82 455.89,-34.94 445.5,-32.89 446.49,-39.82"/>
</a>
</g>
</g>
<!-- Node10 -->
<g id="Node000010" class="node">
<title>Node10</title>
<g id="a_Node000010"><a xlink:href="../../d6/d39/lmmpn_8h.html#a0e18de45dc66b950aa2d4e01a8ff94d0" target="_top" xlink:title="单精度数除法（除数为1个limb）">
<polygon fill="white" stroke="#666666" points="420,-111 328,-111 328,-92 420,-92 420,-111"/>
<text text-anchor="middle" x="374" y="-99" font-family="Helvetica,sans-Serif" font-size="10.00">lmmp_div_1_s_</text>
</a>
</g>
</g>
<!-- Node9&#45;&gt;Node10 -->
<g id="edge9_Node000009_Node000010" class="edge">
<title>Node9&#45;&gt;Node10</title>
<g id="a_edge9_Node000009_Node000010"><a xlink:title=" ">
<path fill="none" stroke="#63b8ff" d="M267.22,-115.75C282.42,-113.71 300.56,-111.26 317.5,-108.98"/>
<polygon fill="#63b8ff" stroke="#63b8ff" points="318.41,-112.39 327.85,-107.58 317.47,-105.45 318.41,-112.39"/>
</a>
</g>
</g>
<!-- Node11&#45;&gt;Node10 -->
<g id="edge11_Node000011_Node000010" class="edge">
<title>Node11&#45;&gt;Node10</title>
<g id="a_edge11_Node000011_Node000010"><a xlink:title=" ">
<path fill="none" stroke="#63b8ff" d="M267.22,-88C282.42,-89.94 300.56,-92.25 317.5,-94.41"/>
<polygon fill="#63b8ff" stroke="#63b8ff" points="317.49,-97.94 327.85,-95.74 318.37,-91 317.49,-97.94"/>
</a>
</g>
</g>
<!-- Node12&#45;&gt;Node5 -->
<g id="edge13_Node000012_Node000005" class="edge">
<title>Node12&#45;&gt;Node5</title>
<g id="a_edge13_Node000012_Node000005"><a xlink:title=" ">
<path fill="none" stroke="#63b8ff" d="M408.77,-189.41C420.15,-187.69 433.18,-185.73 445.79,-183.83"/>
<polygon fill="#63b8ff" stroke="#63b8ff" points="446.4,-187.27 455.76,-182.32 445.35,-180.35 446.4,-187.27"/>
</a>
</g>
</g>
<!-- Node13&#45;&gt;Node8 -->
<g id="edge15_Node000013_Node000008" class="edge">
<title>Node13&#45;&gt;Node8</title>
<g id="a_edge15_Node000013_Node000008"><a xlink:title=" ">
<path fill="none" stroke="#63b8ff" d="M408.77,-14.59C420.15,-16.31 433.18,-18.27 445.79,-20.17"/>
<polygon fill="#63b8ff" stroke="#63b8ff" points="445.35,-23.65 455.76,-21.68 446.4,-16.73 445.35,-23.65"/>
</a>
</g>
</g>
</g>
</svg>

<g id="navigator" transform="translate(0 0)" fill="#404254">
  <rect fill="#f2f5e9" fill-opacity="0.5" stroke="#606060" stroke-width=".5" x="0" y="0" width="60" height="60"/>
  <use id="zoomplus" xlink:href="#zoomPlus" x="17" y="9" onmousedown="handleZoom(evt,'in')"/>
  <use id="zoomminus" xlink:href="#zoomMin" x="42" y="9" onmousedown="handleZoom(evt,'out')"/>
  <use id="reset" xlink:href="#resetDef" x="30" y="36" onmousedown="handleReset()"/>
   <use id="arrowup" xlink:href="#arrowUp" x="0" y="0" onmousedown="handlePan(0,-1)"/>
  <use id="arrowright" xlink:href="#arrowRight" x="0" y="0" onmousedown="handlePan(1,0)"/>
  <use id="arrowdown" xlink:href="#arrowDown" x="0" y="0" onmousedown="handlePan(0,1)"/>
  <use id="arrowleft" xlink:href="#arrowLeft" x="0" y="0" onmousedown="handlePan(-1,0)"/>
</g>
<svg viewBox="0 0 15 15" width="100%" height="30px" preserveAspectRatio="xMaxYMin meet">
 <g id="arrow_out" transform="scale(0.3 0.3)">
  <a xlink:href="numth_8h_a5b8958560dd61c64a0061b614b571a84_cgraph_org.svg" target="_base">
   <rect id="button" ry="5" rx="5" y="6" x="6" height="38" width="38"
        fill="#f2f5e9" fill-opacity="0.5" stroke="#606060" stroke-width="1.0"/>
   <path id="arrow"
     d="M 11.500037,31.436501 C 11.940474,20.09759 22.043105,11.32322 32.158766,21.979434 L 37.068811,17.246167 C 37.068811,17.246167 37.088388,32 37.088388,32 L 22.160133,31.978069 C 22.160133,31.978069 26.997745,27.140456 26.997745,27.140456 C 18.528582,18.264221 13.291696,25.230495 11.500037,31.436501 z"
     style="fill:#404040;"/>
  </a>
 </g>
</svg>

<style type='text/css'>
<![CDATA[
[data-mouse-over-selected='false'] { opacity: 0.7; }
[data-mouse-over-selected='true']  { opacity: 1.0; }
]]>
</style>
<script type="application/ecmascript"><![CDATA[
document.addEventListener('DOMContentLoaded', (event) => {
  highlightEdges();
  highlightAdjacentNodes();
});
]]></script>
</svg>
