<?xml version="1.0" encoding="UTF-8" standalone="no"?>
<!DOCTYPE svg PUBLIC "-//W3C//DTD SVG 1.1//EN"
 "http://www.w3.org/Graphics/SVG/1.1/DTD/svg11.dtd">
<!-- Generated by graphviz version 2.43.0 (0)
 -->
<!-- Title: lmmp_gcd_11_ Pages: 1 -->
<svg width="373pt" height="103pt"
 viewBox="0.00 0.00 373.00 103.00" xmlns="http://www.w3.org/2000/svg" xmlns:xlink="http://www.w3.org/1999/xlink">
<g id="graph0" class="graph" transform="scale(1 1) rotate(0) translate(4 99)">
<title>lmmp_gcd_11_</title>
<!-- Node1 -->
<g id="Node000001" class="node">
<title>Node1</title>
<g id="a_Node000001"><a xlink:title="计算 [numa,na] 在B^n 下的逆元">
<polygon fill="#999999" stroke="#666666" points="365,-57 275,-57 275,-38 365,-38 365,-57"/>
<text text-anchor="middle" x="320" y="-45" font-family="Helvetica,sans-Serif" font-size="10.00">lmmp_gcd_11_</text>
</a>
</g>
</g>
<!-- Node2 -->
<g id="Node000002" class="node">
<title>Node2</title>
<g id="a_Node000002"><a xlink:href="../../dc/d07/gcd__1_8c.html#a6a87be71b380b3f53e53447c376423c8" target="_top" xlink:title="计算两个无符号整数的最大公约数">
<polygon fill="white" stroke="#666666" points="236,-95 152,-95 152,-76 236,-76 236,-95"/>
<text text-anchor="middle" x="194" y="-83" font-family="Helvetica,sans-Serif" font-size="10.00">lmmp_gcd_1_</text>
</a>
</g>
</g>
<!-- Node1&#45;&gt;Node2 -->
<g id="edge1_Node000001_Node000002" class="edge">
<title>Node1&#45;&gt;Node2</title>
<g id="a_edge1_Node000001_Node000002"><a xlink:title=" ">
<path fill="none" stroke="#63b8ff" d="M278.1,-60.04C261.23,-65.2 241.99,-71.1 226.28,-75.91"/>
<polygon fill="#63b8ff" stroke="#63b8ff" points="279.17,-63.37 287.71,-57.09 277.12,-56.67 279.17,-63.37"/>
</a>
</g>
</g>
<!-- Node3 -->
<g id="Node000003" class="node">
<title>Node3</title>
<g id="a_Node000003"><a xlink:href="../../de/d86/gcd__lehmer_8c.html#a1ea89f24b0daddd75fa7ed3f13b851f4" target="_top" xlink:title="计算两个无符号整数的最大公约数（Lehmer算法）">
<polygon fill="white" stroke="#666666" points="113,-76 0,-76 0,-57 113,-57 113,-76"/>
<text text-anchor="middle" x="56.5" y="-64" font-family="Helvetica,sans-Serif" font-size="10.00">lmmp_gcd_lehmer_</text>
</a>
</g>
</g>
<!-- Node1&#45;&gt;Node3 -->
<g id="edge5_Node000001_Node000003" class="edge">
<title>Node1&#45;&gt;Node3</title>
<g id="a_edge5_Node000001_Node000003"><a xlink:title=" ">
<path fill="none" stroke="#63b8ff" d="M264.91,-51.43C220.54,-54.65 157.94,-59.2 113.14,-62.46"/>
<polygon fill="#63b8ff" stroke="#63b8ff" points="265.22,-54.92 274.94,-50.7 264.71,-47.94 265.22,-54.92"/>
</a>
</g>
</g>
<!-- Node4 -->
<g id="Node000004" class="node">
<title>Node4</title>
<g id="a_Node000004"><a xlink:href="../../da/d9a/gcd__2_8c.html#af1a9a090a3f37b881aca2301ae796f69" target="_top" xlink:title="计算两个无符号整数的最大公约数">
<polygon fill="white" stroke="#666666" points="239,-19 149,-19 149,0 239,0 239,-19"/>
<text text-anchor="middle" x="194" y="-7" font-family="Helvetica,sans-Serif" font-size="10.00">lmmp_gcd_22_</text>
</a>
</g>
</g>
<!-- Node1&#45;&gt;Node4 -->
<g id="edge3_Node000001_Node000004" class="edge">
<title>Node1&#45;&gt;Node4</title>
<g id="a_edge3_Node000001_Node000004"><a xlink:title=" ">
<path fill="none" stroke="#63b8ff" d="M278.1,-34.96C261.23,-29.8 241.99,-23.9 226.28,-19.09"/>
<polygon fill="#63b8ff" stroke="#63b8ff" points="277.12,-38.33 287.71,-37.91 279.17,-31.63 277.12,-38.33"/>
</a>
</g>
</g>
<!-- Node2&#45;&gt;Node3 -->
<g id="edge2_Node000002_Node000003" class="edge">
<title>Node2&#45;&gt;Node3</title>
<g id="a_edge2_Node000002_Node000003"><a xlink:title=" ">
<path fill="none" stroke="#63b8ff" d="M142.04,-78.35C132.69,-77.04 122.88,-75.67 113.39,-74.34"/>
<polygon fill="#63b8ff" stroke="#63b8ff" points="141.59,-81.83 151.98,-79.75 142.56,-74.89 141.59,-81.83"/>
</a>
</g>
</g>
<!-- Node5 -->
<g id="Node000005" class="node">
<title>Node5</title>
<g id="a_Node000005"><a xlink:href="../../da/d9a/gcd__2_8c.html#a37493f89da0680ce18639304b9eef38a" target="_top" xlink:title="计算两个无符号整数的最大公约数">
<polygon fill="white" stroke="#666666" points="98.5,-19 14.5,-19 14.5,0 98.5,0 98.5,-19"/>
<text text-anchor="middle" x="56.5" y="-7" font-family="Helvetica,sans-Serif" font-size="10.00">lmmp_gcd_2_</text>
</a>
</g>
</g>
<!-- Node4&#45;&gt;Node5 -->
<g id="edge4_Node000004_Node000005" class="edge">
<title>Node4&#45;&gt;Node5</title>
<g id="a_edge4_Node000004_Node000005"><a xlink:title=" ">
<path fill="none" stroke="#63b8ff" d="M138.25,-9.5C125.06,-9.5 111.2,-9.5 98.75,-9.5"/>
<polygon fill="#63b8ff" stroke="#63b8ff" points="138.63,-13 148.63,-9.5 138.63,-6 138.63,-13"/>
</a>
</g>
</g>
</g>
</svg>
