<?xml version="1.0" encoding="UTF-8" standalone="no"?>
<!DOCTYPE svg PUBLIC "-//W3C//DTD SVG 1.1//EN"
 "http://www.w3.org/Graphics/SVG/1.1/DTD/svg11.dtd">
<!-- Generated by graphviz version 2.43.0 (0)
 -->
<!-- Title: NumberNode::clone Pages: 1 -->
<svg width="309pt" height="305pt"
 viewBox="0.00 0.00 309.00 304.50" xmlns="http://www.w3.org/2000/svg" xmlns:xlink="http://www.w3.org/1999/xlink">
<g id="graph0" class="graph" transform="scale(1 1) rotate(0) translate(4 300.5)">
<title>NumberNode::clone</title>
<!-- Node1 -->
<g id="Node000001" class="node">
<title>Node1</title>
<g id="a_Node000001"><a xlink:title="深拷贝当前节点及其子树。">
<polygon fill="#999999" stroke="#666666" points="301,-168.5 188,-168.5 188,-149.5 301,-149.5 301,-168.5"/>
<text text-anchor="middle" x="244.5" y="-156.5" font-family="Helvetica,sans-Serif" font-size="10.00">NumberNode::clone</text>
</a>
</g>
</g>
<!-- Node2 -->
<g id="Node000002" class="node">
<title>Node2</title>
<g id="a_Node000002"><a xlink:href="../../db/d5d/classExpandVisitor.html#a866c943dbfbd2ced6f807d2b19a7eef5" target="_top" xlink:title=" ">
<polygon fill="white" stroke="#666666" points="131.5,-296.5 20.5,-296.5 20.5,-277.5 131.5,-277.5 131.5,-296.5"/>
<text text-anchor="middle" x="76" y="-284.5" font-family="Helvetica,sans-Serif" font-size="10.00">ExpandVisitor::visit</text>
</a>
</g>
</g>
<!-- Node1&#45;&gt;Node2 -->
<g id="edge1_Node000001_Node000002" class="edge">
<title>Node1&#45;&gt;Node2</title>
<g id="a_edge1_Node000001_Node000002"><a xlink:title=" ">
<path fill="none" stroke="#63b8ff" d="M233.3,-177.51C218.64,-202.3 189.25,-245.84 152,-269 145.75,-272.89 138.72,-275.94 131.53,-278.33"/>
<polygon fill="#63b8ff" stroke="#63b8ff" points="236.4,-179.14 238.34,-168.72 230.33,-175.66 236.4,-179.14"/>
</a>
</g>
</g>
<!-- Node3 -->
<g id="Node000003" class="node">
<title>Node3</title>
<g id="a_Node000003"><a xlink:href="../../dd/d23/classLimitVisitor.html#adf98cc0ad7e5f20dc0c5f674504dee9b" target="_top" xlink:title=" ">
<polygon fill="white" stroke="#666666" points="126,-259.5 26,-259.5 26,-240.5 126,-240.5 126,-259.5"/>
<text text-anchor="middle" x="76" y="-247.5" font-family="Helvetica,sans-Serif" font-size="10.00">LimitVisitor::visit</text>
</a>
</g>
</g>
<!-- Node1&#45;&gt;Node3 -->
<g id="edge2_Node000001_Node000003" class="edge">
<title>Node1&#45;&gt;Node3</title>
<g id="a_edge2_Node000001_Node000003"><a xlink:title=" ">
<path fill="none" stroke="#63b8ff" d="M226.18,-176.34C208.84,-192.74 180.68,-216.88 152,-231 143.93,-234.97 134.94,-238.17 126.07,-240.72"/>
<polygon fill="#63b8ff" stroke="#63b8ff" points="229.02,-178.45 233.78,-168.98 224.16,-173.42 229.02,-178.45"/>
</a>
</g>
</g>
<!-- Node4 -->
<g id="Node000004" class="node">
<title>Node4</title>
<g id="a_Node000004"><a xlink:href="../../d3/da1/classNormalizationVisitor.html#aff607f3e2a9b21e20f171b45119e95d5" target="_top" xlink:title=" ">
<polygon fill="white" stroke="#666666" points="134.5,-222 17.5,-222 17.5,-192 134.5,-192 134.5,-222"/>
<text text-anchor="start" x="25.5" y="-210" font-family="Helvetica,sans-Serif" font-size="10.00">NormalizationVisitor</text>
<text text-anchor="middle" x="76" y="-199" font-family="Helvetica,sans-Serif" font-size="10.00">::visit</text>
</a>
</g>
</g>
<!-- Node1&#45;&gt;Node4 -->
<g id="edge3_Node000001_Node000004" class="edge">
<title>Node1&#45;&gt;Node4</title>
<g id="a_edge3_Node000001_Node000004"><a xlink:title=" ">
<path fill="none" stroke="#63b8ff" d="M200.58,-171.37C178.81,-177.65 152.2,-185.32 129.25,-191.94"/>
<polygon fill="#63b8ff" stroke="#63b8ff" points="201.57,-174.73 210.21,-168.6 199.63,-168.01 201.57,-174.73"/>
</a>
</g>
</g>
<!-- Node5 -->
<g id="Node000005" class="node">
<title>Node5</title>
<g id="a_Node000005"><a xlink:href="../../d5/ddd/classlamina_1_1ReplacementVisitor.html#a5a27ddd4a305017070c4ca5f448c9b34" target="_top" xlink:title=" ">
<polygon fill="white" stroke="#666666" points="152,-174 0,-174 0,-144 152,-144 152,-174"/>
<text text-anchor="start" x="8" y="-162" font-family="Helvetica,sans-Serif" font-size="10.00">lamina::ReplacementVisitor</text>
<text text-anchor="middle" x="76" y="-151" font-family="Helvetica,sans-Serif" font-size="10.00">::visit</text>
</a>
</g>
</g>
<!-- Node1&#45;&gt;Node5 -->
<g id="edge4_Node000001_Node000005" class="edge">
<title>Node1&#45;&gt;Node5</title>
<g id="a_edge4_Node000001_Node000005"><a xlink:title=" ">
<path fill="none" stroke="#63b8ff" d="M177.32,-159C169.09,-159 160.63,-159 152.28,-159"/>
<polygon fill="#63b8ff" stroke="#63b8ff" points="177.59,-162.5 187.59,-159 177.59,-155.5 177.59,-162.5"/>
</a>
</g>
</g>
<!-- Node6 -->
<g id="Node000006" class="node">
<title>Node6</title>
<g id="a_Node000006"><a xlink:href="../../d5/dd7/classlamina_1_1RewriteVisitor.html#a773f5ef24dec7c401125e5fde25a52db" target="_top" xlink:title=" ">
<polygon fill="white" stroke="#666666" points="138.5,-126 13.5,-126 13.5,-96 138.5,-96 138.5,-126"/>
<text text-anchor="start" x="21.5" y="-114" font-family="Helvetica,sans-Serif" font-size="10.00">lamina::RewriteVisitor</text>
<text text-anchor="middle" x="76" y="-103" font-family="Helvetica,sans-Serif" font-size="10.00">::visit</text>
</a>
</g>
</g>
<!-- Node1&#45;&gt;Node6 -->
<g id="edge5_Node000001_Node000006" class="edge">
<title>Node1&#45;&gt;Node6</title>
<g id="a_edge5_Node000001_Node000006"><a xlink:title=" ">
<path fill="none" stroke="#63b8ff" d="M200.58,-146.63C178.81,-140.35 152.2,-132.68 129.25,-126.06"/>
<polygon fill="#63b8ff" stroke="#63b8ff" points="199.63,-149.99 210.21,-149.4 201.57,-143.27 199.63,-149.99"/>
</a>
</g>
</g>
<!-- Node7 -->
<g id="Node000007" class="node">
<title>Node7</title>
<g id="a_Node000007"><a xlink:href="../../d2/d6b/classSubstituteVisitor.html#a93421589f1209710673034d43b1e95ce" target="_top" xlink:title=" ">
<polygon fill="white" stroke="#666666" points="128,-78 24,-78 24,-48 128,-48 128,-78"/>
<text text-anchor="start" x="32" y="-66" font-family="Helvetica,sans-Serif" font-size="10.00">SubstituteVisitor::</text>
<text text-anchor="middle" x="76" y="-55" font-family="Helvetica,sans-Serif" font-size="10.00">visit</text>
</a>
</g>
</g>
<!-- Node1&#45;&gt;Node7 -->
<g id="edge6_Node000001_Node000007" class="edge">
<title>Node1&#45;&gt;Node7</title>
<g id="a_edge6_Node000001_Node000007"><a xlink:title=" ">
<path fill="none" stroke="#63b8ff" d="M225.98,-142.05C208.49,-125.93 180.23,-101.99 152,-87 144.51,-83.02 136.25,-79.57 128.04,-76.61"/>
<polygon fill="#63b8ff" stroke="#63b8ff" points="223.97,-144.96 233.65,-149.26 228.76,-139.86 223.97,-144.96"/>
</a>
</g>
</g>
<!-- Node8 -->
<g id="Node000008" class="node">
<title>Node8</title>
<g id="a_Node000008"><a xlink:href="../../d0/d2d/classIntegrationVisitor.html#af78014789a4a4b002d0a9b7a34086cd3" target="_top" xlink:title=" ">
<polygon fill="white" stroke="#666666" points="126.5,-30 25.5,-30 25.5,0 126.5,0 126.5,-30"/>
<text text-anchor="start" x="33.5" y="-18" font-family="Helvetica,sans-Serif" font-size="10.00">IntegrationVisitor</text>
<text text-anchor="middle" x="76" y="-7" font-family="Helvetica,sans-Serif" font-size="10.00">::visit</text>
</a>
</g>
</g>
<!-- Node1&#45;&gt;Node8 -->
<g id="edge7_Node000001_Node000008" class="edge">
<title>Node1&#45;&gt;Node8</title>
<g id="a_edge7_Node000001_Node000008"><a xlink:title=" ">
<path fill="none" stroke="#63b8ff" d="M234.07,-140.35C219.82,-114 190.34,-66.06 152,-39 144.4,-33.64 135.55,-29.43 126.65,-26.15"/>
<polygon fill="#63b8ff" stroke="#63b8ff" points="231.03,-142.08 238.78,-149.31 237.23,-138.83 231.03,-142.08"/>
</a>
</g>
</g>
</g>
</svg>
