<?xml version="1.0" encoding="UTF-8" standalone="no"?>
<!DOCTYPE svg PUBLIC "-//W3C//DTD SVG 1.1//EN"
 "http://www.w3.org/Graphics/SVG/1.1/DTD/svg11.dtd">
<!-- Generated by graphviz version 2.43.0 (0)
 -->
<!-- Title: src/lammp/from_str.c Pages: 1 -->
<svg width="351pt" height="269pt"
 viewBox="0.00 0.00 351.00 269.00" xmlns="http://www.w3.org/2000/svg" xmlns:xlink="http://www.w3.org/1999/xlink">

<svg id="main" version="1.1" xmlns="http://www.w3.org/2000/svg" xmlns:xlink="http://www.w3.org/1999/xlink" xml:space="preserve" onload="init(evt)">
<style type="text/css"><![CDATA[
.node, .edge {opacity: 0.7;}
.node.selected, .edge.selected {opacity: 1;}
.edge:hover path { stroke: red; }
.edge:hover polygon { stroke: red; fill: red; }
]]></style>
<script type="application/ecmascript" xlink:href="../../svg.min.js"/>
<svg id="graph" class="graph">
<g id="graph0" class="graph" transform="scale(1 1) rotate(0) translate(4 265)">
<title>src/lammp/from_str.c</title>
<!-- Node1 -->
<g id="Node000001" class="node">
<title>Node1</title>
<g id="a_Node000001"><a xlink:title=" ">
<polygon fill="#999999" stroke="#666666" points="214.5,-261 94.5,-261 94.5,-242 214.5,-242 214.5,-261"/>
<text text-anchor="middle" x="154.5" y="-249" font-family="Helvetica,sans-Serif" font-size="10.00">src/lammp/from_str.c</text>
</a>
</g>
</g>
<!-- Node2 -->
<g id="Node000002" class="node">
<title>Node2</title>
<g id="a_Node000002"><a xlink:href="../../d8/dd0/mparam_8h.html" target="_top" xlink:title=" ">
<polygon fill="white" stroke="#666666" points="107,-206 0,-206 0,-176 107,-176 107,-206"/>
<text text-anchor="start" x="8" y="-194" font-family="Helvetica,sans-Serif" font-size="10.00">../../include/lammp</text>
<text text-anchor="middle" x="53.5" y="-183" font-family="Helvetica,sans-Serif" font-size="10.00">/impl/mparam.h</text>
</a>
</g>
</g>
<!-- Node1&#45;&gt;Node2 -->
<g id="edge1_Node000001_Node000002" class="edge">
<title>Node1&#45;&gt;Node2</title>
<g id="a_edge1_Node000001_Node000002"><a xlink:title=" ">
<path fill="none" stroke="#63b8ff" d="M139.6,-241.87C125.77,-233.86 104.69,-221.65 86.85,-211.31"/>
<polygon fill="#63b8ff" stroke="#63b8ff" points="88.28,-208.1 77.87,-206.11 84.77,-214.16 88.28,-208.1"/>
</a>
</g>
</g>
<!-- Node3 -->
<g id="Node000003" class="node">
<title>Node3</title>
<g id="a_Node000003"><a xlink:href="../../d8/daa/tmp__alloc_8h.html" target="_top" xlink:title=" ">
<polygon fill="white" stroke="#666666" points="189,-140 82,-140 82,-110 189,-110 189,-140"/>
<text text-anchor="start" x="90" y="-128" font-family="Helvetica,sans-Serif" font-size="10.00">../../include/lammp</text>
<text text-anchor="middle" x="135.5" y="-117" font-family="Helvetica,sans-Serif" font-size="10.00">/impl/tmp_alloc.h</text>
</a>
</g>
</g>
<!-- Node1&#45;&gt;Node3 -->
<g id="edge2_Node000001_Node000003" class="edge">
<title>Node1&#45;&gt;Node3</title>
<g id="a_edge2_Node000001_Node000003"><a xlink:title=" ">
<path fill="none" stroke="#63b8ff" d="M153.19,-241.94C150.35,-223.32 143.52,-178.53 139.22,-150.39"/>
<polygon fill="#63b8ff" stroke="#63b8ff" points="142.63,-149.52 137.66,-140.16 135.71,-150.57 142.63,-149.52"/>
</a>
</g>
</g>
<!-- Node10 -->
<g id="Node000010" class="node">
<title>Node10</title>
<g id="a_Node000010"><a xlink:href="../../d3/d70/base__table_8h.html" target="_top" xlink:title=" ">
<polygon fill="white" stroke="#666666" points="309,-206 202,-206 202,-176 309,-176 309,-206"/>
<text text-anchor="start" x="210" y="-194" font-family="Helvetica,sans-Serif" font-size="10.00">../../include/lammp</text>
<text text-anchor="middle" x="255.5" y="-183" font-family="Helvetica,sans-Serif" font-size="10.00">/impl/base_table.h</text>
</a>
</g>
</g>
<!-- Node1&#45;&gt;Node10 -->
<g id="edge9_Node000001_Node000010" class="edge">
<title>Node1&#45;&gt;Node10</title>
<g id="a_edge9_Node000001_Node000010"><a xlink:title=" ">
<path fill="none" stroke="#63b8ff" d="M169.4,-241.87C183.23,-233.86 204.31,-221.65 222.15,-211.31"/>
<polygon fill="#63b8ff" stroke="#63b8ff" points="224.23,-214.16 231.13,-206.11 220.72,-208.1 224.23,-214.16"/>
</a>
</g>
</g>
<!-- Node11 -->
<g id="Node000011" class="node">
<title>Node11</title>
<g id="a_Node000011"><a xlink:href="../../d6/d39/lmmpn_8h.html" target="_top" xlink:title=" ">
<polygon fill="white" stroke="#666666" points="276,-134.5 207,-134.5 207,-115.5 276,-115.5 276,-134.5"/>
<text text-anchor="middle" x="241.5" y="-122.5" font-family="Helvetica,sans-Serif" font-size="10.00">../lmmpn.h</text>
</a>
</g>
</g>
<!-- Node1&#45;&gt;Node11 -->
<g id="edge14_Node000001_Node000011" class="edge">
<title>Node1&#45;&gt;Node11</title>
<g id="a_edge14_Node000001_Node000011"><a xlink:title=" ">
<path fill="none" stroke="#63b8ff" d="M158.1,-241.78C164.24,-227.38 177.64,-198.04 193.5,-176 202.5,-163.48 214.52,-150.97 224.27,-141.6"/>
<polygon fill="#63b8ff" stroke="#63b8ff" points="226.92,-143.92 231.82,-134.52 222.13,-138.81 226.92,-143.92"/>
</a>
</g>
</g>
<!-- Node4 -->
<g id="Node000004" class="node">
<title>Node4</title>
<g id="a_Node000004"><a xlink:href="../../dd/d90/lmmp_8h.html" target="_top" xlink:title=" ">
<polygon fill="white" stroke="#666666" points="242,-74 179,-74 179,-55 242,-55 242,-74"/>
<text text-anchor="middle" x="210.5" y="-62" font-family="Helvetica,sans-Serif" font-size="10.00">../lmmp.h</text>
</a>
</g>
</g>
<!-- Node3&#45;&gt;Node4 -->
<g id="edge3_Node000003_Node000004" class="edge">
<title>Node3&#45;&gt;Node4</title>
<g id="a_edge3_Node000003_Node000004"><a xlink:title=" ">
<path fill="none" stroke="#63b8ff" d="M153.66,-109.84C164.99,-101 179.56,-89.63 191.12,-80.62"/>
<polygon fill="#63b8ff" stroke="#63b8ff" points="193.53,-83.18 199.26,-74.27 189.22,-77.66 193.53,-83.18"/>
</a>
</g>
</g>
<!-- Node9 -->
<g id="Node000009" class="node">
<title>Node9</title>
<g id="a_Node000009"><a xlink:title=" ">
<polygon fill="#e0e0e0" stroke="#999999" points="160.5,-74 110.5,-74 110.5,-55 160.5,-55 160.5,-74"/>
<text text-anchor="middle" x="135.5" y="-62" font-family="Helvetica,sans-Serif" font-size="10.00">stdio.h</text>
</a>
</g>
</g>
<!-- Node3&#45;&gt;Node9 -->
<g id="edge8_Node000003_Node000009" class="edge">
<title>Node3&#45;&gt;Node9</title>
<g id="a_edge8_Node000003_Node000009"><a xlink:title=" ">
<path fill="none" stroke="#63b8ff" d="M135.5,-109.84C135.5,-102.21 135.5,-92.7 135.5,-84.45"/>
<polygon fill="#63b8ff" stroke="#63b8ff" points="139,-84.27 135.5,-74.27 132,-84.27 139,-84.27"/>
</a>
</g>
</g>
<!-- Node5 -->
<g id="Node000005" class="node">
<title>Node5</title>
<g id="a_Node000005"><a xlink:title=" ">
<polygon fill="#e0e0e0" stroke="#999999" points="129.5,-19 73.5,-19 73.5,0 129.5,0 129.5,-19"/>
<text text-anchor="middle" x="101.5" y="-7" font-family="Helvetica,sans-Serif" font-size="10.00">stddef.h</text>
</a>
</g>
</g>
<!-- Node4&#45;&gt;Node5 -->
<g id="edge4_Node000004_Node000005" class="edge">
<title>Node4&#45;&gt;Node5</title>
<g id="a_edge4_Node000004_Node000005"><a xlink:title=" ">
<path fill="none" stroke="#63b8ff" d="M192.99,-54.98C175.53,-46.5 148.49,-33.35 128.33,-23.54"/>
<polygon fill="#63b8ff" stroke="#63b8ff" points="129.86,-20.4 119.33,-19.17 126.79,-26.69 129.86,-20.4"/>
</a>
</g>
</g>
<!-- Node6 -->
<g id="Node000006" class="node">
<title>Node6</title>
<g id="a_Node000006"><a xlink:title=" ">
<polygon fill="#e0e0e0" stroke="#999999" points="201,-19 148,-19 148,0 201,0 201,-19"/>
<text text-anchor="middle" x="174.5" y="-7" font-family="Helvetica,sans-Serif" font-size="10.00">stdint.h</text>
</a>
</g>
</g>
<!-- Node4&#45;&gt;Node6 -->
<g id="edge5_Node000004_Node000006" class="edge">
<title>Node4&#45;&gt;Node6</title>
<g id="a_edge5_Node000004_Node000006"><a xlink:title=" ">
<path fill="none" stroke="#63b8ff" d="M204.56,-54.75C199.52,-47.34 192.16,-36.5 185.99,-27.41"/>
<polygon fill="#63b8ff" stroke="#63b8ff" points="188.85,-25.39 180.33,-19.09 183.06,-29.33 188.85,-25.39"/>
</a>
</g>
</g>
<!-- Node7 -->
<g id="Node000007" class="node">
<title>Node7</title>
<g id="a_Node000007"><a xlink:title=" ">
<polygon fill="#e0e0e0" stroke="#999999" points="272,-19 219,-19 219,0 272,0 272,-19"/>
<text text-anchor="middle" x="245.5" y="-7" font-family="Helvetica,sans-Serif" font-size="10.00">stdlib.h</text>
</a>
</g>
</g>
<!-- Node4&#45;&gt;Node7 -->
<g id="edge6_Node000004_Node000007" class="edge">
<title>Node4&#45;&gt;Node7</title>
<g id="a_edge6_Node000004_Node000007"><a xlink:title=" ">
<path fill="none" stroke="#63b8ff" d="M216.28,-54.75C221.12,-47.42 228.18,-36.73 234.14,-27.7"/>
<polygon fill="#63b8ff" stroke="#63b8ff" points="237.24,-29.36 239.83,-19.09 231.4,-25.5 237.24,-29.36"/>
</a>
</g>
</g>
<!-- Node8 -->
<g id="Node000008" class="node">
<title>Node8</title>
<g id="a_Node000008"><a xlink:title=" ">
<polygon fill="#e0e0e0" stroke="#999999" points="343,-19 290,-19 290,0 343,0 343,-19"/>
<text text-anchor="middle" x="316.5" y="-7" font-family="Helvetica,sans-Serif" font-size="10.00">string.h</text>
</a>
</g>
</g>
<!-- Node4&#45;&gt;Node8 -->
<g id="edge7_Node000004_Node000008" class="edge">
<title>Node4&#45;&gt;Node8</title>
<g id="a_edge7_Node000004_Node000008"><a xlink:title=" ">
<path fill="none" stroke="#63b8ff" d="M227.53,-54.98C244.43,-46.54 270.56,-33.47 290.14,-23.68"/>
<polygon fill="#63b8ff" stroke="#63b8ff" points="291.78,-26.77 299.16,-19.17 288.65,-20.51 291.78,-26.77"/>
</a>
</g>
</g>
<!-- Node10&#45;&gt;Node11 -->
<g id="edge10_Node000010_Node000011" class="edge">
<title>Node10&#45;&gt;Node11</title>
<g id="a_edge10_Node000010_Node000011"><a xlink:title=" ">
<path fill="none" stroke="#63b8ff" d="M252.39,-175.8C250.4,-166.7 247.8,-154.79 245.63,-144.9"/>
<polygon fill="#63b8ff" stroke="#63b8ff" points="248.99,-143.87 243.43,-134.84 242.15,-145.36 248.99,-143.87"/>
</a>
</g>
</g>
<!-- Node11&#45;&gt;Node4 -->
<g id="edge13_Node000011_Node000004" class="edge">
<title>Node11&#45;&gt;Node4</title>
<g id="a_edge13_Node000011_Node000004"><a xlink:title=" ">
<path fill="none" stroke="#63b8ff" d="M236.93,-115.37C232.44,-106.9 225.47,-93.74 219.81,-83.07"/>
<polygon fill="#63b8ff" stroke="#63b8ff" points="222.87,-81.36 215.09,-74.17 216.68,-84.64 222.87,-81.36"/>
</a>
</g>
</g>
<!-- Node11&#45;&gt;Node9 -->
<g id="edge12_Node000011_Node000009" class="edge">
<title>Node11&#45;&gt;Node9</title>
<g id="a_edge12_Node000011_Node000009"><a xlink:title=" ">
<path fill="none" stroke="#63b8ff" d="M225.86,-115.37C208.56,-105.82 180.45,-90.31 160.17,-79.12"/>
<polygon fill="#63b8ff" stroke="#63b8ff" points="161.65,-75.93 151.2,-74.17 158.27,-82.06 161.65,-75.93"/>
</a>
</g>
</g>
<!-- Node12 -->
<g id="Node000012" class="node">
<title>Node12</title>
<g id="a_Node000012"><a xlink:title=" ">
<polygon fill="#e0e0e0" stroke="#999999" points="322.5,-74 260.5,-74 260.5,-55 322.5,-55 322.5,-74"/>
<text text-anchor="middle" x="291.5" y="-62" font-family="Helvetica,sans-Serif" font-size="10.00">stdbool.h</text>
</a>
</g>
</g>
<!-- Node11&#45;&gt;Node12 -->
<g id="edge11_Node000011_Node000012" class="edge">
<title>Node11&#45;&gt;Node12</title>
<g id="a_edge11_Node000011_Node000012"><a xlink:title=" ">
<path fill="none" stroke="#63b8ff" d="M248.88,-115.37C256.41,-106.55 268.29,-92.66 277.59,-81.77"/>
<polygon fill="#63b8ff" stroke="#63b8ff" points="280.26,-84.04 284.09,-74.17 274.93,-79.5 280.26,-84.04"/>
</a>
</g>
</g>
</g>
</svg>
</svg>

<style type='text/css'>
<![CDATA[
[data-mouse-over-selected='false'] { opacity: 0.7; }
[data-mouse-over-selected='true']  { opacity: 1.0; }
]]>
</style>
<script type="application/ecmascript"><![CDATA[
document.addEventListener('DOMContentLoaded', (event) => {
  highlightEdges();
  highlightAdjacentNodes();
});
]]></script>
</svg>
