<?xml version="1.0" encoding="UTF-8" standalone="no"?>
<!DOCTYPE svg PUBLIC "-//W3C//DTD SVG 1.1//EN"
 "http://www.w3.org/Graphics/SVG/1.1/DTD/svg11.dtd">
<!-- Generated by graphviz version 2.43.0 (0)
 -->
<!-- Title: SymbolicNode::compare Pages: 1 -->
<svg width="316pt" height="86pt"
 viewBox="0.00 0.00 316.00 86.00" xmlns="http://www.w3.org/2000/svg" xmlns:xlink="http://www.w3.org/1999/xlink">
<g id="graph0" class="graph" transform="scale(1 1) rotate(0) translate(4 82)">
<title>SymbolicNode::compare</title>
<!-- Node1 -->
<g id="Node000001" class="node">
<title>Node1</title>
<g id="a_Node000001"><a xlink:title="与另一个节点进行全序比较。">
<polygon fill="#999999" stroke="#666666" points="136,-48.5 0,-48.5 0,-29.5 136,-29.5 136,-48.5"/>
<text text-anchor="middle" x="68" y="-36.5" font-family="Helvetica,sans-Serif" font-size="10.00">SymbolicNode::compare</text>
</a>
</g>
</g>
<!-- Node2 -->
<g id="Node000002" class="node">
<title>Node2</title>
<g id="a_Node000002"><a xlink:href="../../dc/dc3/classSymbolicNode.html#a018e5b09d4301a02b7a32a250689b56f" target="_top" xlink:title="与同类型节点进行比较（由子类实现）。">
<polygon fill="white" stroke="#666666" points="308,-78 172,-78 172,-48 308,-48 308,-78"/>
<text text-anchor="start" x="180" y="-66" font-family="Helvetica,sans-Serif" font-size="10.00">SymbolicNode::compare</text>
<text text-anchor="middle" x="240" y="-55" font-family="Helvetica,sans-Serif" font-size="10.00">_same_type</text>
</a>
</g>
</g>
<!-- Node1&#45;&gt;Node2 -->
<g id="edge1_Node000001_Node000002" class="edge">
<title>Node1&#45;&gt;Node2</title>
<g id="a_edge1_Node000001_Node000002"><a xlink:title=" ">
<path fill="none" stroke="#63b8ff" d="M136.19,-48.49C144.59,-49.67 153.24,-50.89 161.78,-52.1"/>
<polygon fill="#63b8ff" stroke="#63b8ff" points="161.35,-55.57 171.74,-53.5 162.33,-48.64 161.35,-55.57"/>
</a>
</g>
</g>
<!-- Node3 -->
<g id="Node000003" class="node">
<title>Node3</title>
<g id="a_Node000003"><a xlink:href="../../dc/dc3/classSymbolicNode.html#a5b8c46f61905b32b20a86b7a8e1eb68e" target="_top" xlink:title="返回节点类型的排序优先级，用于规范化排序。">
<polygon fill="white" stroke="#666666" points="297.5,-30 182.5,-30 182.5,0 297.5,0 297.5,-30"/>
<text text-anchor="start" x="190.5" y="-18" font-family="Helvetica,sans-Serif" font-size="10.00">SymbolicNode::type</text>
<text text-anchor="middle" x="240" y="-7" font-family="Helvetica,sans-Serif" font-size="10.00">_priority</text>
</a>
</g>
</g>
<!-- Node1&#45;&gt;Node3 -->
<g id="edge2_Node000001_Node000003" class="edge">
<title>Node1&#45;&gt;Node3</title>
<g id="a_edge2_Node000001_Node000003"><a xlink:title=" ">
<path fill="none" stroke="#63b8ff" d="M136.19,-29.51C148.03,-27.84 160.36,-26.1 172.19,-24.43"/>
<polygon fill="#63b8ff" stroke="#63b8ff" points="173.03,-27.85 182.44,-22.98 172.05,-20.92 173.03,-27.85"/>
</a>
</g>
</g>
</g>
</svg>
