<?xml version="1.0" encoding="UTF-8" standalone="no"?>
<!DOCTYPE svg PUBLIC "-//W3C//DTD SVG 1.1//EN"
 "http://www.w3.org/Graphics/SVG/1.1/DTD/svg11.dtd">
<!-- Generated by graphviz version 2.43.0 (0)
 -->
<!-- Title: lamina::FGLMPoly Pages: 1 -->
<svg width="302pt" height="616pt"
 viewBox="0.00 0.00 301.50 616.00" xmlns="http://www.w3.org/2000/svg" xmlns:xlink="http://www.w3.org/1999/xlink">
<g id="graph0" class="graph" transform="scale(1 1) rotate(0) translate(4 612)">
<title>lamina::FGLMPoly</title>
<!-- Node1 -->
<g id="Node000001" class="node">
<title>Node1</title>
<g id="a_Node000001"><a xlink:title="FGLM 算法中使用的多项式表示，以 (单项式, 系数) 对列表存储">
<polygon fill="#999999" stroke="transparent" points="257.5,-298 77.5,-298 77.5,0 257.5,0 257.5,-298"/>
<text text-anchor="start" x="123" y="-286" font-family="Helvetica,sans-Serif" font-size="10.00">lamina::FGLMPoly</text>
<text text-anchor="start" x="165.5" y="-271" font-family="Helvetica,sans-Serif" font-size="10.00"> </text>
<text text-anchor="start" x="81.5" y="-256" font-family="Helvetica,sans-Serif" font-size="10.00">+</text>
<text text-anchor="start" x="94.5" y="-256" font-family="Helvetica,sans-Serif" font-size="10.00">FGLMPoly()</text>
<text text-anchor="start" x="81.5" y="-241" font-family="Helvetica,sans-Serif" font-size="10.00">+</text>
<text text-anchor="start" x="94.5" y="-241" font-family="Helvetica,sans-Serif" font-size="10.00">FGLMPoly(size_t n)</text>
<text text-anchor="start" x="81.5" y="-226" font-family="Helvetica,sans-Serif" font-size="10.00">+</text>
<text text-anchor="start" x="94.5" y="-226" font-family="Helvetica,sans-Serif" font-size="10.00">void add_term(const</text>
<text text-anchor="start" x="94.5" y="-215" font-family="Helvetica,sans-Serif" font-size="10.00"> Monomial &amp;m, const</text>
<text text-anchor="start" x="94.5" y="-204" font-family="Helvetica,sans-Serif" font-size="10.00"> Rational &amp;c)</text>
<text text-anchor="start" x="81.5" y="-189" font-family="Helvetica,sans-Serif" font-size="10.00">+</text>
<text text-anchor="start" x="94.5" y="-189" font-family="Helvetica,sans-Serif" font-size="10.00">bool is_zero() const</text>
<text text-anchor="start" x="81.5" y="-174" font-family="Helvetica,sans-Serif" font-size="10.00">+</text>
<text text-anchor="start" x="94.5" y="-174" font-family="Helvetica,sans-Serif" font-size="10.00">Rational LC() const</text>
<text text-anchor="start" x="81.5" y="-159" font-family="Helvetica,sans-Serif" font-size="10.00">+</text>
<text text-anchor="start" x="94.5" y="-159" font-family="Helvetica,sans-Serif" font-size="10.00">Monomial LM() const</text>
<text text-anchor="start" x="81.5" y="-144" font-family="Helvetica,sans-Serif" font-size="10.00">+</text>
<text text-anchor="start" x="94.5" y="-144" font-family="Helvetica,sans-Serif" font-size="10.00">void normalize()</text>
<text text-anchor="start" x="81.5" y="-129" font-family="Helvetica,sans-Serif" font-size="10.00">+</text>
<text text-anchor="start" x="94.5" y="-129" font-family="Helvetica,sans-Serif" font-size="10.00">FGLMPoly reduce(const</text>
<text text-anchor="start" x="94.5" y="-118" font-family="Helvetica,sans-Serif" font-size="10.00"> std::vector&lt; FGLMPoly</text>
<text text-anchor="start" x="94.5" y="-107" font-family="Helvetica,sans-Serif" font-size="10.00"> &gt; &amp;basis, const MonomialOrder</text>
<text text-anchor="start" x="94.5" y="-96" font-family="Helvetica,sans-Serif" font-size="10.00"> &amp;order) const</text>
<text text-anchor="start" x="81.5" y="-81" font-family="Helvetica,sans-Serif" font-size="10.00">+</text>
<text text-anchor="start" x="94.5" y="-81" font-family="Helvetica,sans-Serif" font-size="10.00">void sort_terms(const</text>
<text text-anchor="start" x="94.5" y="-70" font-family="Helvetica,sans-Serif" font-size="10.00"> MonomialOrder &amp;order)</text>
<text text-anchor="start" x="81.5" y="-55" font-family="Helvetica,sans-Serif" font-size="10.00">+</text>
<text text-anchor="start" x="94.5" y="-55" font-family="Helvetica,sans-Serif" font-size="10.00">static FGLMPoly from</text>
<text text-anchor="start" x="94.5" y="-44" font-family="Helvetica,sans-Serif" font-size="10.00">_monomial(const Monomial</text>
<text text-anchor="start" x="94.5" y="-33" font-family="Helvetica,sans-Serif" font-size="10.00"> &amp;m, size_t num_vars)</text>
<text text-anchor="start" x="81.5" y="-18" font-family="Helvetica,sans-Serif" font-size="10.00">+</text>
<text text-anchor="start" x="94.5" y="-18" font-family="Helvetica,sans-Serif" font-size="10.00">static FGLMPoly zero</text>
<text text-anchor="start" x="94.5" y="-7" font-family="Helvetica,sans-Serif" font-size="10.00">(size_t num_vars)</text>
<polygon fill="#666666" stroke="#666666" points="77.5,-281 77.5,-281 257.5,-281 257.5,-281 77.5,-281"/>
<polygon fill="#666666" stroke="#666666" points="77.5,-266 77.5,-266 257.5,-266 257.5,-266 77.5,-266"/>
<polygon fill="none" stroke="#666666" points="77.5,0 77.5,-298 257.5,-298 257.5,0 77.5,0"/>
</a>
</g>
</g>
<!-- Node2 -->
<g id="Node000002" class="node">
<title>Node2</title>
<g id="a_Node000002"><a xlink:title=" ">
<polygon fill="white" stroke="transparent" points="183.5,-405 43.5,-405 43.5,-345 183.5,-345 183.5,-405"/>
<text text-anchor="start" x="48.5" y="-393" font-family="Helvetica,sans-Serif" font-size="10.00">std::vector&lt; std::pair</text>
<text text-anchor="start" x="48.5" y="-382" font-family="Helvetica,sans-Serif" font-size="10.00">&lt; Monomial, Rational &gt; &gt;</text>
<text text-anchor="start" x="111.5" y="-367" font-family="Helvetica,sans-Serif" font-size="10.00"> </text>
<text text-anchor="start" x="111.5" y="-352" font-family="Helvetica,sans-Serif" font-size="10.00"> </text>
<polygon fill="#666666" stroke="#666666" points="43.5,-377 43.5,-377 183.5,-377 183.5,-377 43.5,-377"/>
<polygon fill="#666666" stroke="#666666" points="43.5,-362 43.5,-362 183.5,-362 183.5,-362 43.5,-362"/>
<polygon fill="none" stroke="#666666" points="43.5,-345 43.5,-405 183.5,-405 183.5,-345 43.5,-345"/>
</a>
</g>
</g>
<!-- Node2&#45;&gt;Node1 -->
<g id="edge1_Node000001_Node000002" class="edge">
<title>Node2&#45;&gt;Node1</title>
<g id="a_edge1_Node000001_Node000002"><a xlink:title=" ">
<path fill="none" stroke="#63b8ff" d="M120.56,-344.72C122.92,-334.91 125.75,-323.19 128.82,-310.44"/>
<polygon fill="none" stroke="#63b8ff" points="128.9,-310.12 126.42,-303.35 131.71,-298.46 134.19,-305.23 128.9,-310.12"/>
</a>
</g>
<text text-anchor="middle" x="147.5" y="-319" font-family="Helvetica,sans-Serif" font-size="10.00" fill="grey"> +terms</text>
</g>
<!-- Node3 -->
<g id="Node000003" class="node">
<title>Node3</title>
<g id="a_Node000003"><a xlink:title=" ">
<polygon fill="white" stroke="transparent" points="147,-512 0,-512 0,-463 147,-463 147,-512"/>
<text text-anchor="start" x="5.5" y="-499.5" font-family="Helvetica,sans-Serif" font-size="10.00">pair&lt; Monomial, Rational &gt;</text>
<text text-anchor="start" x="72" y="-484.5" font-family="Helvetica,sans-Serif" font-size="10.00"> </text>
<text text-anchor="start" x="72" y="-469.5" font-family="Helvetica,sans-Serif" font-size="10.00"> </text>
<polygon fill="#666666" stroke="#666666" points="0.5,-494.5 0.5,-494.5 147.5,-494.5 147.5,-494.5 0.5,-494.5"/>
<polygon fill="#666666" stroke="#666666" points="0.5,-479.5 0.5,-479.5 147.5,-479.5 147.5,-479.5 0.5,-479.5"/>
<polygon fill="none" stroke="#666666" points="0,-463 0,-512 147,-512 147,-463 0,-463"/>
</a>
</g>
</g>
<!-- Node3&#45;&gt;Node2 -->
<g id="edge2_Node000002_Node000003" class="edge">
<title>Node3&#45;&gt;Node2</title>
<g id="a_edge2_Node000002_Node000003"><a xlink:title=" ">
<path fill="none" stroke="#63b8ff" d="M82.08,-462.79C86.95,-449.35 93.17,-432.16 98.79,-416.64"/>
<polygon fill="none" stroke="#63b8ff" points="98.85,-416.46 97.14,-409.45 102.94,-405.17 104.66,-412.18 98.85,-416.46"/>
</a>
</g>
<text text-anchor="middle" x="125.5" y="-431.5" font-family="Helvetica,sans-Serif" font-size="10.00" fill="grey"> +elements</text>
</g>
<!-- Node4 -->
<g id="Node000004" class="node">
<title>Node4</title>
<g id="a_Node000004"><a xlink:title=" ">
<polygon fill="white" stroke="transparent" points="256,-512 165,-512 165,-463 256,-463 256,-512"/>
<text text-anchor="start" x="170.5" y="-499.5" font-family="Helvetica,sans-Serif" font-size="10.00">std::vector&lt; T &gt;</text>
<text text-anchor="start" x="209" y="-484.5" font-family="Helvetica,sans-Serif" font-size="10.00"> </text>
<text text-anchor="start" x="209" y="-469.5" font-family="Helvetica,sans-Serif" font-size="10.00"> </text>
<polygon fill="#666666" stroke="#666666" points="165.5,-494.5 165.5,-494.5 256.5,-494.5 256.5,-494.5 165.5,-494.5"/>
<polygon fill="#666666" stroke="#666666" points="165.5,-479.5 165.5,-479.5 256.5,-479.5 256.5,-479.5 165.5,-479.5"/>
<polygon fill="none" stroke="#666666" points="165,-463 165,-512 256,-512 256,-463 165,-463"/>
</a>
</g>
</g>
<!-- Node4&#45;&gt;Node2 -->
<g id="edge3_Node000002_Node000004" class="edge">
<title>Node4&#45;&gt;Node2</title>
<g id="a_edge3_Node000002_Node000004"><a xlink:title=" ">
<path fill="none" stroke="orange" d="M185.44,-454.92C177.05,-444.6 167.52,-433.18 158.5,-423 153.26,-417.08 147.52,-410.88 141.94,-405.01"/>
<polygon fill="orange" stroke="orange" points="182.9,-457.34 191.91,-462.92 188.34,-452.94 182.9,-457.34"/>
</a>
</g>
<text text-anchor="start" x="175.5" y="-437" font-family="Helvetica,sans-Serif" font-size="10.00" fill="grey"> &lt; std::pair&lt; Monomial,</text>
<text text-anchor="middle" x="234.5" y="-426" font-family="Helvetica,sans-Serif" font-size="10.00" fill="grey"> Rational &gt; &gt;</text>
</g>
<!-- Node5 -->
<g id="Node000005" class="node">
<title>Node5</title>
<g id="a_Node000005"><a xlink:title=" ">
<polygon fill="white" stroke="transparent" points="219,-608 202,-608 202,-559 219,-559 219,-608"/>
<text text-anchor="start" x="207.5" y="-595.5" font-family="Helvetica,sans-Serif" font-size="10.00">T</text>
<text text-anchor="start" x="209" y="-580.5" font-family="Helvetica,sans-Serif" font-size="10.00"> </text>
<text text-anchor="start" x="209" y="-565.5" font-family="Helvetica,sans-Serif" font-size="10.00"> </text>
<polygon fill="#666666" stroke="#666666" points="202.5,-590.5 202.5,-590.5 219.5,-590.5 219.5,-590.5 202.5,-590.5"/>
<polygon fill="#666666" stroke="#666666" points="202.5,-575.5 202.5,-575.5 219.5,-575.5 219.5,-575.5 202.5,-575.5"/>
<polygon fill="none" stroke="#666666" points="202,-559 202,-608 219,-608 219,-559 202,-559"/>
</a>
</g>
</g>
<!-- Node5&#45;&gt;Node4 -->
<g id="edge4_Node000004_Node000005" class="edge">
<title>Node5&#45;&gt;Node4</title>
<g id="a_edge4_Node000004_Node000005"><a xlink:title=" ">
<path fill="none" stroke="#63b8ff" d="M210.5,-558.78C210.5,-548.32 210.5,-535.79 210.5,-524.23"/>
<polygon fill="none" stroke="#63b8ff" points="210.5,-524.21 206.5,-518.21 210.5,-512.21 214.5,-518.21 210.5,-524.21"/>
</a>
</g>
<text text-anchor="middle" x="239.5" y="-533" font-family="Helvetica,sans-Serif" font-size="10.00" fill="grey"> +elements</text>
</g>
<!-- Node6 -->
<g id="Node000006" class="node">
<title>Node6</title>
<g id="a_Node000006"><a xlink:title=" ">
<polygon fill="white" stroke="transparent" points="241,-399.5 202,-399.5 202,-350.5 241,-350.5 241,-399.5"/>
<text text-anchor="start" x="207.5" y="-387" font-family="Helvetica,sans-Serif" font-size="10.00">size_t</text>
<text text-anchor="start" x="220" y="-372" font-family="Helvetica,sans-Serif" font-size="10.00"> </text>
<text text-anchor="start" x="220" y="-357" font-family="Helvetica,sans-Serif" font-size="10.00"> </text>
<polygon fill="#666666" stroke="#666666" points="202.5,-382 202.5,-382 241.5,-382 241.5,-382 202.5,-382"/>
<polygon fill="#666666" stroke="#666666" points="202.5,-367 202.5,-367 241.5,-367 241.5,-367 202.5,-367"/>
<polygon fill="none" stroke="#666666" points="202,-350.5 202,-399.5 241,-399.5 241,-350.5 202,-350.5"/>
</a>
</g>
</g>
<!-- Node6&#45;&gt;Node1 -->
<g id="edge5_Node000001_Node000006" class="edge">
<title>Node6&#45;&gt;Node1</title>
<g id="a_edge5_Node000001_Node000006"><a xlink:title=" ">
<path fill="none" stroke="#63b8ff" d="M215.82,-350.45C213.21,-339.62 209.87,-325.76 206.17,-310.4"/>
<polygon fill="none" stroke="#63b8ff" points="206.08,-310.04 200.79,-305.15 203.27,-298.38 208.56,-303.27 206.08,-310.04"/>
</a>
</g>
<text text-anchor="middle" x="239.5" y="-319" font-family="Helvetica,sans-Serif" font-size="10.00" fill="grey"> +num_vars</text>
</g>
</g>
</svg>
