<?xml version="1.0" encoding="UTF-8" standalone="no"?>
<!DOCTYPE svg PUBLIC "-//W3C//DTD SVG 1.1//EN"
 "http://www.w3.org/Graphics/SVG/1.1/DTD/svg11.dtd">
<!-- Generated by graphviz version 2.43.0 (0)
 -->
<!-- Title: lmmp_toom_interp6_ Pages: 1 -->
<svg width="282pt" height="64pt"
 viewBox="0.00 0.00 282.00 64.00" xmlns="http://www.w3.org/2000/svg" xmlns:xlink="http://www.w3.org/1999/xlink">
<g id="graph0" class="graph" transform="scale(1 1) rotate(0) translate(4 60)">
<title>lmmp_toom_interp6_</title>
<!-- Node1 -->
<g id="Node000001" class="node">
<title>Node1</title>
<g id="a_Node000001"><a xlink:title="Toom插值计算（6点插值）：用于Toom&#45;43和Toom&#45;52 乘法算法">
<polygon fill="#999999" stroke="#666666" points="274,-37 153,-37 153,-18 274,-18 274,-37"/>
<text text-anchor="middle" x="213.5" y="-25" font-family="Helvetica,sans-Serif" font-size="10.00">lmmp_toom_interp6_</text>
</a>
</g>
</g>
<!-- Node2 -->
<g id="Node000002" class="node">
<title>Node2</title>
<g id="a_Node000002"><a xlink:href="../../d6/d0e/mul__toom43_8c.html#a93d041d8a21bcd8ada7bd30d9ebdb466" target="_top" xlink:title=" ">
<polygon fill="white" stroke="#666666" points="117,-56 0,-56 0,-37 117,-37 117,-56"/>
<text text-anchor="middle" x="58.5" y="-44" font-family="Helvetica,sans-Serif" font-size="10.00">lmmp_mul_toom43_</text>
</a>
</g>
</g>
<!-- Node1&#45;&gt;Node2 -->
<g id="edge1_Node000001_Node000002" class="edge">
<title>Node1&#45;&gt;Node2</title>
<g id="a_edge1_Node000001_Node000002"><a xlink:title=" ">
<path fill="none" stroke="#63b8ff" d="M142.89,-36.14C134.29,-37.21 125.57,-38.3 117.17,-39.34"/>
<polygon fill="#63b8ff" stroke="#63b8ff" points="143.42,-39.61 152.91,-34.9 142.55,-32.66 143.42,-39.61"/>
</a>
</g>
</g>
<!-- Node3 -->
<g id="Node000003" class="node">
<title>Node3</title>
<g id="a_Node000003"><a xlink:href="../../d9/d32/mul__toom52_8c.html#a6e486c83153cc33617f91c3a1ea7b3ff" target="_top" xlink:title=" ">
<polygon fill="white" stroke="#666666" points="117,-19 0,-19 0,0 117,0 117,-19"/>
<text text-anchor="middle" x="58.5" y="-7" font-family="Helvetica,sans-Serif" font-size="10.00">lmmp_mul_toom52_</text>
</a>
</g>
</g>
<!-- Node1&#45;&gt;Node3 -->
<g id="edge2_Node000001_Node000003" class="edge">
<title>Node1&#45;&gt;Node3</title>
<g id="a_edge2_Node000001_Node000003"><a xlink:title=" ">
<path fill="none" stroke="#63b8ff" d="M142.89,-19.31C134.29,-18.3 125.57,-17.27 117.17,-16.28"/>
<polygon fill="#63b8ff" stroke="#63b8ff" points="142.57,-22.8 152.91,-20.49 143.39,-15.84 142.57,-22.8"/>
</a>
</g>
</g>
</g>
</svg>
