<?xml version="1.0" encoding="UTF-8" standalone="no"?>
<!DOCTYPE svg PUBLIC "-//W3C//DTD SVG 1.1//EN"
 "http://www.w3.org/Graphics/SVG/1.1/DTD/svg11.dtd">
<!-- Generated by graphviz version 2.43.0 (0)
 -->
<!-- Title: src/symbolic_complex.cpp Pages: 1 -->
<!--zoomable 368 -->

<svg id="main" version="1.1" xmlns="http://www.w3.org/2000/svg" xmlns:xlink="http://www.w3.org/1999/xlink" xml:space="preserve" onload="init(evt)">
<style type="text/css"><![CDATA[
.node, .edge {opacity: 0.7;}
.node.selected, .edge.selected {opacity: 1;}
.edge:hover path { stroke: red; }
.edge:hover polygon { stroke: red; fill: red; }
]]></style>

<defs>
  <circle id="rim" cx="0" cy="0" r="7"/>
  <circle id="rim2" cx="0" cy="0" r="3.5"/>
  <g id="zoomPlus">
    <use xlink:href="#rim" fill="#404040"><set attributeName="fill" to="#808080" begin="zoomplus.mouseover" end="zoomplus.mouseout"/></use>
    <path d="M-4,0h8M0,-4v8" fill="none" stroke="white" stroke-width="1.5" pointer-events="none"/>
  </g>
  <g id="zoomMin">
    <use xlink:href="#rim" fill="#404040"><set attributeName="fill" to="#808080" begin="zoomminus.mouseover" end="zoomminus.mouseout"/></use>
    <path d="M-4,0h8" fill="none" stroke="white" stroke-width="1.5" pointer-events="none"/>
  </g>
  <g id="arrowUp" transform="translate(30 24)">
    <use xlink:href="#rim"/>
    <path pointer-events="none" fill="none" stroke="white" stroke-width="1.5" d="M0,-3.0v7 M-2.5,-0.5L0,-3.0L2.5,-0.5"/>
  </g>
  <g id="arrowRight" transform="rotate(90) translate(36 -43)">
    <use xlink:href="#rim"/>
    <path pointer-events="none" fill="none" stroke="white" stroke-width="1.5" d="M0,-3.0v7 M-2.5,-0.5L0,-3.0L2.5,-0.5"/>
  </g>
  <g id="arrowDown" transform="rotate(180) translate(-30 -48)">
    <use xlink:href="#rim"/>
    <path pointer-events="none" fill="none" stroke="white" stroke-width="1.5" d="M0,-3.0v7 M-2.5,-0.5L0,-3.0L2.5,-0.5"/>
  </g>
  <g id="arrowLeft" transform="rotate(270) translate(-36 17)">
    <use xlink:href="#rim"/>
    <path pointer-events="none" fill="none" stroke="white" stroke-width="1.5" d="M0,-3.0v7 M-2.5,-0.5L0,-3.0L2.5,-0.5"/>
  </g>
  <g id="resetDef">
    <use xlink:href="#rim2" fill="#404040"><set attributeName="fill" to="#808080" begin="reset.mouseover" end="reset.mouseout"/></use>
  </g>
</defs>
<script type="application/ecmascript">
var viewWidth = 1425;
var viewHeight = 368;
var sectionId = 'dynsection-0';
</script>
<script type="application/ecmascript" xlink:href="../../svg.min.js"/>
<svg id="graph" class="graph">
<g id="viewport">
<title>src/symbolic_complex.cpp</title>
<!-- Node1 -->
<g id="Node000001" class="node">
<title>Node1</title>
<g id="a_Node000001"><a xlink:title=" ">
<polygon fill="#999999" stroke="#666666" points="1178,-360 1032,-360 1032,-341 1178,-341 1178,-360"/>
<text text-anchor="middle" x="1105" y="-348" font-family="Helvetica,sans-Serif" font-size="10.00">src/symbolic_complex.cpp</text>
</a>
</g>
</g>
<!-- Node2 -->
<g id="Node000002" class="node">
<title>Node2</title>
<g id="a_Node000002"><a xlink:href="../../d7/ddb/symbolic__complex_8hpp.html" target="_top" xlink:title="符号复数运算：加减乘除、共轭、模、辐角、极坐标形式。">
<polygon fill="white" stroke="#666666" points="1246,-305 1138,-305 1138,-275 1246,-275 1246,-305"/>
<text text-anchor="start" x="1146" y="-293" font-family="Helvetica,sans-Serif" font-size="10.00">../include/symbolic</text>
<text text-anchor="middle" x="1192" y="-282" font-family="Helvetica,sans-Serif" font-size="10.00">_complex.hpp</text>
</a>
</g>
</g>
<!-- Node1&#45;&gt;Node2 -->
<g id="edge1_Node000001_Node000002" class="edge">
<title>Node1&#45;&gt;Node2</title>
<g id="a_edge1_Node000001_Node000002"><a xlink:title=" ">
<path fill="none" stroke="#63b8ff" d="M1117.84,-340.87C1129.53,-333 1147.25,-321.09 1162.43,-310.89"/>
<polygon fill="#63b8ff" stroke="#63b8ff" points="1164.66,-313.6 1171.01,-305.11 1160.76,-307.79 1164.66,-313.6"/>
</a>
</g>
</g>
<!-- Node3 -->
<g id="Node000003" class="node">
<title>Node3</title>
<g id="a_Node000003"><a xlink:href="../../d5/df2/symbolic_8hpp.html" target="_top" xlink:title="符号表达式主类 SymbolicExpr 及其工厂方法、运算接口。">
<polygon fill="white" stroke="#666666" points="1081,-239 999,-239 999,-220 1081,-220 1081,-239"/>
<text text-anchor="middle" x="1040" y="-227" font-family="Helvetica,sans-Serif" font-size="10.00">symbolic.hpp</text>
</a>
</g>
</g>
<!-- Node1&#45;&gt;Node3 -->
<g id="edge56_Node000001_Node000003" class="edge">
<title>Node1&#45;&gt;Node3</title>
<g id="a_edge56_Node000001_Node000003"><a xlink:title=" ">
<path fill="none" stroke="#63b8ff" d="M1100.33,-340.94C1089.74,-321.57 1063.77,-274.02 1049.6,-248.08"/>
<polygon fill="#63b8ff" stroke="#63b8ff" points="1052.67,-246.4 1044.81,-239.3 1046.53,-249.76 1052.67,-246.4"/>
</a>
</g>
</g>
<!-- Node9 -->
<g id="Node000009" class="node">
<title>Node9</title>
<g id="a_Node000009"><a xlink:title=" ">
<polygon fill="#e0e0e0" stroke="#999999" points="99.5,-19 52.5,-19 52.5,0 99.5,0 99.5,-19"/>
<text text-anchor="middle" x="76" y="-7" font-family="Helvetica,sans-Serif" font-size="10.00">vector</text>
</a>
</g>
</g>
<!-- Node1&#45;&gt;Node9 -->
<g id="edge60_Node000001_Node000009" class="edge">
<title>Node1&#45;&gt;Node9</title>
<g id="a_edge60_Node000001_Node000009"><a xlink:title=" ">
<path fill="none" stroke="#63b8ff" d="M1031.94,-349.26C842.7,-348.12 340.07,-341.61 178,-305 94.35,-286.1 0,-316.26 0,-230.5 0,-230.5 0,-230.5 0,-118.5 0,-79.47 33.61,-44.58 56.13,-25.6"/>
<polygon fill="#63b8ff" stroke="#63b8ff" points="58.56,-28.14 64.12,-19.12 54.15,-22.7 58.56,-28.14"/>
</a>
</g>
</g>
<!-- Node16 -->
<g id="Node000016" class="node">
<title>Node16</title>
<g id="a_Node000016"><a xlink:title=" ">
<polygon fill="#e0e0e0" stroke="#999999" points="326.5,-19 261.5,-19 261.5,0 326.5,0 326.5,-19"/>
<text text-anchor="middle" x="294" y="-7" font-family="Helvetica,sans-Serif" font-size="10.00">stdexcept</text>
</a>
</g>
</g>
<!-- Node1&#45;&gt;Node16 -->
<g id="edge59_Node000001_Node000016" class="edge">
<title>Node1&#45;&gt;Node16</title>
<g id="a_edge59_Node000001_Node000016"><a xlink:title=" ">
<path fill="none" stroke="#63b8ff" d="M1031.73,-348.39C802.46,-343.95 114,-322.94 114,-230.5 114,-230.5 114,-230.5 114,-173.5 114,-95.28 208.55,-44.82 260.6,-22.97"/>
<polygon fill="#63b8ff" stroke="#63b8ff" points="262.16,-26.11 270.1,-19.1 259.52,-19.63 262.16,-26.11"/>
</a>
</g>
</g>
<!-- Node31 -->
<g id="Node000031" class="node">
<title>Node31</title>
<g id="a_Node000031"><a xlink:title=" ">
<polygon fill="#e0e0e0" stroke="#999999" points="1366.5,-184 1319.5,-184 1319.5,-165 1366.5,-165 1366.5,-184"/>
<text text-anchor="middle" x="1343" y="-172" font-family="Helvetica,sans-Serif" font-size="10.00">cmath</text>
</a>
</g>
</g>
<!-- Node1&#45;&gt;Node31 -->
<g id="edge57_Node000001_Node000031" class="edge">
<title>Node1&#45;&gt;Node31</title>
<g id="a_edge57_Node000001_Node000031"><a xlink:title=" ">
<path fill="none" stroke="#63b8ff" d="M1163.96,-340.95C1193.27,-334.58 1228.09,-323.63 1255,-305 1296.22,-276.47 1323.72,-221.83 1335.88,-193.51"/>
<polygon fill="#63b8ff" stroke="#63b8ff" points="1339.2,-194.64 1339.78,-184.06 1332.73,-191.96 1339.2,-194.64"/>
</a>
</g>
</g>
<!-- Node33 -->
<g id="Node000033" class="node">
<title>Node33</title>
<g id="a_Node000033"><a xlink:title=" ">
<polygon fill="#e0e0e0" stroke="#999999" points="1416.5,-299.5 1357.5,-299.5 1357.5,-280.5 1416.5,-280.5 1416.5,-299.5"/>
<text text-anchor="middle" x="1387" y="-287.5" font-family="Helvetica,sans-Serif" font-size="10.00">complex</text>
</a>
</g>
</g>
<!-- Node1&#45;&gt;Node33 -->
<g id="edge58_Node000001_Node000033" class="edge">
<title>Node1&#45;&gt;Node33</title>
<g id="a_edge58_Node000001_Node000033"><a xlink:title=" ">
<path fill="none" stroke="#63b8ff" d="M1161.2,-341C1209.7,-333.18 1281.44,-320.48 1343,-305 1346.01,-304.24 1349.12,-303.39 1352.23,-302.5"/>
<polygon fill="#63b8ff" stroke="#63b8ff" points="1353.47,-305.78 1362.02,-299.53 1351.44,-299.08 1353.47,-305.78"/>
</a>
</g>
</g>
<!-- Node2&#45;&gt;Node3 -->
<g id="edge2_Node000002_Node000003" class="edge">
<title>Node2&#45;&gt;Node3</title>
<g id="a_edge2_Node000002_Node000003"><a xlink:title=" ">
<path fill="none" stroke="#63b8ff" d="M1155.59,-274.99C1130.12,-265.18 1096.41,-252.21 1071.97,-242.81"/>
<polygon fill="#63b8ff" stroke="#63b8ff" points="1073.04,-239.46 1062.45,-239.14 1070.52,-246 1073.04,-239.46"/>
</a>
</g>
</g>
<!-- Node12 -->
<g id="Node000012" class="node">
<title>Node12</title>
<g id="a_Node000012"><a xlink:title=" ">
<polygon fill="#e0e0e0" stroke="#999999" points="1273,-19 1229,-19 1229,0 1273,0 1273,-19"/>
<text text-anchor="middle" x="1251" y="-7" font-family="Helvetica,sans-Serif" font-size="10.00">string</text>
</a>
</g>
</g>
<!-- Node2&#45;&gt;Node12 -->
<g id="edge55_Node000002_Node000012" class="edge">
<title>Node2&#45;&gt;Node12</title>
<g id="a_edge55_Node000002_Node000012"><a xlink:title=" ">
<path fill="none" stroke="#63b8ff" d="M1216.98,-274.89C1246.31,-256.25 1291,-220.47 1291,-175.5 1291,-175.5 1291,-175.5 1291,-118.5 1291,-84.67 1273.53,-48.38 1261.68,-27.66"/>
<polygon fill="#63b8ff" stroke="#63b8ff" points="1264.68,-25.86 1256.56,-19.06 1258.66,-29.44 1264.68,-25.86"/>
</a>
</g>
</g>
<!-- Node25 -->
<g id="Node000025" class="node">
<title>Node25</title>
<g id="a_Node000025"><a xlink:title=" ">
<polygon fill="#e0e0e0" stroke="#999999" points="1073,-129 1015,-129 1015,-110 1073,-110 1073,-129"/>
<text text-anchor="middle" x="1044" y="-117" font-family="Helvetica,sans-Serif" font-size="10.00">memory</text>
</a>
</g>
</g>
<!-- Node2&#45;&gt;Node25 -->
<g id="edge54_Node000002_Node000025" class="edge">
<title>Node2&#45;&gt;Node25</title>
<g id="a_edge54_Node000002_Node000025"><a xlink:title=" ">
<path fill="none" stroke="#63b8ff" d="M1179.64,-274.92C1152.47,-243.99 1087.68,-170.23 1058.58,-137.1"/>
<polygon fill="#63b8ff" stroke="#63b8ff" points="1060.92,-134.46 1051.69,-129.25 1055.66,-139.08 1060.92,-134.46"/>
</a>
</g>
</g>
<!-- Node4 -->
<g id="Node000004" class="node">
<title>Node4</title>
<g id="a_Node000004"><a xlink:href="../../d8/d09/bigint_8hpp.html" target="_top" xlink:title="任意精度整数 BigInt，底层调用 LAMMP 实现高性能大数运算。">
<polygon fill="white" stroke="#666666" points="747.5,-74 682.5,-74 682.5,-55 747.5,-55 747.5,-74"/>
<text text-anchor="middle" x="715" y="-62" font-family="Helvetica,sans-Serif" font-size="10.00">bigint.hpp</text>
</a>
</g>
</g>
<!-- Node3&#45;&gt;Node4 -->
<g id="edge3_Node000003_Node000004" class="edge">
<title>Node3&#45;&gt;Node4</title>
<g id="a_edge3_Node000003_Node000004"><a xlink:title=" ">
<path fill="none" stroke="#63b8ff" d="M998.93,-228.38C931.16,-225.78 796.63,-210.02 728,-129 717.66,-116.79 714.79,-98.56 714.29,-84.75"/>
<polygon fill="#63b8ff" stroke="#63b8ff" points="717.79,-84.44 714.31,-74.43 710.79,-84.43 717.79,-84.44"/>
</a>
</g>
</g>
<!-- Node10 -->
<g id="Node000010" class="node">
<title>Node10</title>
<g id="a_Node000010"><a xlink:title=" ">
<polygon fill="#e0e0e0" stroke="#999999" points="1070.5,-19 1021.5,-19 1021.5,0 1070.5,0 1070.5,-19"/>
<text text-anchor="middle" x="1046" y="-7" font-family="Helvetica,sans-Serif" font-size="10.00">cstdlib</text>
</a>
</g>
</g>
<!-- Node3&#45;&gt;Node10 -->
<g id="edge53_Node000003_Node000010" class="edge">
<title>Node3&#45;&gt;Node10</title>
<g id="a_edge53_Node000003_Node000010"><a xlink:title=" ">
<path fill="none" stroke="#63b8ff" d="M1051.86,-219.77C1061.72,-211.73 1075.06,-198.82 1081,-184 1102.38,-130.68 1092.9,-108.89 1073,-55 1069.44,-45.37 1063.73,-35.53 1058.47,-27.56"/>
<polygon fill="#63b8ff" stroke="#63b8ff" points="1061.24,-25.41 1052.67,-19.18 1055.49,-29.4 1061.24,-25.41"/>
</a>
</g>
</g>
<!-- Node3&#45;&gt;Node12 -->
<g id="edge45_Node000003_Node000012" class="edge">
<title>Node3&#45;&gt;Node12</title>
<g id="a_edge45_Node000003_Node000012"><a xlink:title=" ">
<path fill="none" stroke="#63b8ff" d="M1070.24,-219.96C1091.26,-212.89 1118.99,-201.2 1139,-184 1191.48,-138.89 1228.5,-63.16 1243.53,-28.64"/>
<polygon fill="#63b8ff" stroke="#63b8ff" points="1246.8,-29.9 1247.48,-19.33 1240.35,-27.16 1246.8,-29.9"/>
</a>
</g>
</g>
<!-- Node13 -->
<g id="Node000013" class="node">
<title>Node13</title>
<g id="a_Node000013"><a xlink:title=" ">
<polygon fill="#e0e0e0" stroke="#999999" points="1149,-19 1089,-19 1089,0 1149,0 1149,-19"/>
<text text-anchor="middle" x="1119" y="-7" font-family="Helvetica,sans-Serif" font-size="10.00">iostream</text>
</a>
</g>
</g>
<!-- Node3&#45;&gt;Node13 -->
<g id="edge52_Node000003_Node000013" class="edge">
<title>Node3&#45;&gt;Node13</title>
<g id="a_edge52_Node000003_Node000013"><a xlink:title=" ">
<path fill="none" stroke="#63b8ff" d="M1057.75,-219.99C1071.36,-212.49 1089.39,-200.23 1099,-184 1128.29,-134.52 1125.16,-63.14 1121.57,-29.46"/>
<polygon fill="#63b8ff" stroke="#63b8ff" points="1125.01,-28.72 1120.33,-19.21 1118.06,-29.56 1125.01,-28.72"/>
</a>
</g>
</g>
<!-- Node14 -->
<g id="Node000014" class="node">
<title>Node14</title>
<g id="a_Node000014"><a xlink:title=" ">
<polygon fill="#e0e0e0" stroke="#999999" points="184,-19 120,-19 120,0 184,0 184,-19"/>
<text text-anchor="middle" x="152" y="-7" font-family="Helvetica,sans-Serif" font-size="10.00">algorithm</text>
</a>
</g>
</g>
<!-- Node3&#45;&gt;Node14 -->
<g id="edge49_Node000003_Node000014" class="edge">
<title>Node3&#45;&gt;Node14</title>
<g id="a_edge49_Node000003_Node000014"><a xlink:title=" ">
<path fill="none" stroke="#63b8ff" d="M998.9,-226.74C832.71,-219.25 216.34,-187.68 154,-129 127.01,-103.59 137.02,-55.25 145.32,-28.84"/>
<polygon fill="#63b8ff" stroke="#63b8ff" points="148.66,-29.89 148.55,-19.29 142.03,-27.64 148.66,-29.89"/>
</a>
</g>
</g>
<!-- Node17 -->
<g id="Node000017" class="node">
<title>Node17</title>
<g id="a_Node000017"><a xlink:title=" ">
<polygon fill="#e0e0e0" stroke="#999999" points="1211,-19 1167,-19 1167,0 1211,0 1211,-19"/>
<text text-anchor="middle" x="1189" y="-7" font-family="Helvetica,sans-Serif" font-size="10.00">limits</text>
</a>
</g>
</g>
<!-- Node3&#45;&gt;Node17 -->
<g id="edge48_Node000003_Node000017" class="edge">
<title>Node3&#45;&gt;Node17</title>
<g id="a_edge48_Node000003_Node000017"><a xlink:title=" ">
<path fill="none" stroke="#63b8ff" d="M1063.58,-219.94C1080.68,-212.68 1103.29,-200.76 1118,-184 1159.09,-137.19 1178.42,-63.41 1185.56,-29.14"/>
<polygon fill="#63b8ff" stroke="#63b8ff" points="1189.04,-29.62 1187.53,-19.13 1182.17,-28.27 1189.04,-29.62"/>
</a>
</g>
</g>
<!-- Node19 -->
<g id="Node000019" class="node">
<title>Node19</title>
<g id="a_Node000019"><a xlink:href="../../d1/de8/rational_8hpp.html" target="_top" xlink:title="精确有理数 Rational，基于 BigInt 分子/分母表示，自动约分。">
<polygon fill="white" stroke="#666666" points="812.5,-129 737.5,-129 737.5,-110 812.5,-110 812.5,-129"/>
<text text-anchor="middle" x="775" y="-117" font-family="Helvetica,sans-Serif" font-size="10.00">rational.hpp</text>
</a>
</g>
</g>
<!-- Node3&#45;&gt;Node19 -->
<g id="edge18_Node000003_Node000019" class="edge">
<title>Node3&#45;&gt;Node19</title>
<g id="a_edge18_Node000003_Node000019"><a xlink:title=" ">
<path fill="none" stroke="#63b8ff" d="M1015.04,-219.96C990.25,-211.34 951.24,-197.42 918,-184 877.44,-167.62 831.33,-146.73 802.7,-133.47"/>
<polygon fill="#63b8ff" stroke="#63b8ff" points="803.88,-130.16 793.34,-129.13 800.93,-136.51 803.88,-130.16"/>
</a>
</g>
</g>
<!-- Node22 -->
<g id="Node000022" class="node">
<title>Node22</title>
<g id="a_Node000022"><a xlink:title=" ">
<polygon fill="#e0e0e0" stroke="#999999" points="1064,-74 1026,-74 1026,-55 1064,-55 1064,-74"/>
<text text-anchor="middle" x="1045" y="-62" font-family="Helvetica,sans-Serif" font-size="10.00">map</text>
</a>
</g>
</g>
<!-- Node3&#45;&gt;Node22 -->
<g id="edge50_Node000003_Node000022" class="edge">
<title>Node3&#45;&gt;Node22</title>
<g id="a_edge50_Node000003_Node000022"><a xlink:title=" ">
<path fill="none" stroke="#63b8ff" d="M1025.63,-219.96C1014.13,-212.21 998.82,-199.62 992,-184 988.62,-176.26 990.95,-173.38 992,-165 995.14,-139.97 994.25,-132.32 1006,-110 1011.6,-99.36 1020.22,-89.15 1027.94,-81.2"/>
<polygon fill="#63b8ff" stroke="#63b8ff" points="1030.52,-83.57 1035.21,-74.07 1025.62,-78.58 1030.52,-83.57"/>
</a>
</g>
</g>
<!-- Node24 -->
<g id="Node000024" class="node">
<title>Node24</title>
<g id="a_Node000024"><a xlink:href="../../d9/d89/symbolic__ast_8hpp.html" target="_top" xlink:title="AST 节点定义：NumberNode, VariableNode, AddNode, MultiplyNode, PowerNode, FunctionNode,...">
<polygon fill="white" stroke="#666666" points="664,-184 562,-184 562,-165 664,-165 664,-184"/>
<text text-anchor="middle" x="613" y="-172" font-family="Helvetica,sans-Serif" font-size="10.00">symbolic_ast.hpp</text>
</a>
</g>
</g>
<!-- Node3&#45;&gt;Node24 -->
<g id="edge28_Node000003_Node000024" class="edge">
<title>Node3&#45;&gt;Node24</title>
<g id="a_edge28_Node000003_Node000024"><a xlink:title=" ">
<path fill="none" stroke="#63b8ff" d="M998.67,-223.37C923.17,-214 762.62,-194.07 674.34,-183.11"/>
<polygon fill="#63b8ff" stroke="#63b8ff" points="674.56,-179.61 664.2,-181.86 673.7,-186.56 674.56,-179.61"/>
</a>
</g>
</g>
<!-- Node3&#45;&gt;Node25 -->
<g id="edge44_Node000003_Node000025" class="edge">
<title>Node3&#45;&gt;Node25</title>
<g id="a_edge44_Node000003_Node000025"><a xlink:title=" ">
<path fill="none" stroke="#63b8ff" d="M1027.33,-219.85C1011.91,-208.15 988.97,-186.3 998,-165 1002.98,-153.25 1012.75,-143.09 1022.01,-135.45"/>
<polygon fill="#63b8ff" stroke="#63b8ff" points="1024.4,-138.03 1030.22,-129.18 1020.15,-132.47 1024.4,-138.03"/>
</a>
</g>
</g>
<!-- Node26 -->
<g id="Node000026" class="node">
<title>Node26</title>
<g id="a_Node000026"><a xlink:title=" ">
<polygon fill="#e0e0e0" stroke="#999999" points="958.5,-129 907.5,-129 907.5,-110 958.5,-110 958.5,-129"/>
<text text-anchor="middle" x="933" y="-117" font-family="Helvetica,sans-Serif" font-size="10.00">variant</text>
</a>
</g>
</g>
<!-- Node3&#45;&gt;Node26 -->
<g id="edge46_Node000003_Node000026" class="edge">
<title>Node3&#45;&gt;Node26</title>
<g id="a_edge46_Node000003_Node000026"><a xlink:title=" ">
<path fill="none" stroke="#63b8ff" d="M998.87,-223.84C973.57,-218.62 943.02,-207.53 927,-184 918.05,-170.86 921.03,-152.48 925.37,-138.87"/>
<polygon fill="#63b8ff" stroke="#63b8ff" points="928.77,-139.77 928.94,-129.17 922.2,-137.35 928.77,-139.77"/>
</a>
</g>
</g>
<!-- Node3&#45;&gt;Node31 -->
<g id="edge47_Node000003_Node000031" class="edge">
<title>Node3&#45;&gt;Node31</title>
<g id="a_edge47_Node000003_Node000031"><a xlink:title=" ">
<path fill="none" stroke="#63b8ff" d="M1081.18,-221.3C1141.68,-210.71 1253.45,-191.16 1309.34,-181.39"/>
<polygon fill="#63b8ff" stroke="#63b8ff" points="1310.17,-184.8 1319.42,-179.62 1308.96,-177.9 1310.17,-184.8"/>
</a>
</g>
</g>
<!-- Node32 -->
<g id="Node000032" class="node">
<title>Node32</title>
<g id="a_Node000032"><a xlink:title=" ">
<polygon fill="#e0e0e0" stroke="#999999" points="1072.5,-184 1007.5,-184 1007.5,-165 1072.5,-165 1072.5,-184"/>
<text text-anchor="middle" x="1040" y="-172" font-family="Helvetica,sans-Serif" font-size="10.00">functional</text>
</a>
</g>
</g>
<!-- Node3&#45;&gt;Node32 -->
<g id="edge51_Node000003_Node000032" class="edge">
<title>Node3&#45;&gt;Node32</title>
<g id="a_edge51_Node000003_Node000032"><a xlink:title=" ">
<path fill="none" stroke="#63b8ff" d="M1040,-219.75C1040,-212.8 1040,-202.85 1040,-194.13"/>
<polygon fill="#63b8ff" stroke="#63b8ff" points="1043.5,-194.09 1040,-184.09 1036.5,-194.09 1043.5,-194.09"/>
</a>
</g>
</g>
<!-- Node5 -->
<g id="Node000005" class="node">
<title>Node5</title>
<g id="a_Node000005"><a xlink:title=" ">
<polygon fill="#e0e0e0" stroke="#999999" points="929,-19 837,-19 837,0 929,0 929,-19"/>
<text text-anchor="middle" x="883" y="-7" font-family="Helvetica,sans-Serif" font-size="10.00">lammp/lmmp.h</text>
</a>
</g>
</g>
<!-- Node4&#45;&gt;Node5 -->
<g id="edge4_Node000004_Node000005" class="edge">
<title>Node4&#45;&gt;Node5</title>
<g id="a_edge4_Node000004_Node000005"><a xlink:title=" ">
<path fill="none" stroke="#63b8ff" d="M741.99,-54.98C770.2,-46.09 814.64,-32.07 846.08,-22.15"/>
<polygon fill="#63b8ff" stroke="#63b8ff" points="847.31,-25.43 855.8,-19.08 845.21,-18.75 847.31,-25.43"/>
</a>
</g>
</g>
<!-- Node6 -->
<g id="Node000006" class="node">
<title>Node6</title>
<g id="a_Node000006"><a xlink:title=" ">
<polygon fill="#e0e0e0" stroke="#999999" points="547,-19 449,-19 449,0 547,0 547,-19"/>
<text text-anchor="middle" x="498" y="-7" font-family="Helvetica,sans-Serif" font-size="10.00">lammp/lmmpn.h</text>
</a>
</g>
</g>
<!-- Node4&#45;&gt;Node6 -->
<g id="edge5_Node000004_Node000006" class="edge">
<title>Node4&#45;&gt;Node6</title>
<g id="a_edge5_Node000004_Node000006"><a xlink:title=" ">
<path fill="none" stroke="#63b8ff" d="M682.04,-55.45C644.91,-46.38 584.35,-31.59 542.91,-21.47"/>
<polygon fill="#63b8ff" stroke="#63b8ff" points="543.62,-18.04 533.07,-19.07 541.95,-24.84 543.62,-18.04"/>
</a>
</g>
</g>
<!-- Node7 -->
<g id="Node000007" class="node">
<title>Node7</title>
<g id="a_Node000007"><a xlink:title=" ">
<polygon fill="#e0e0e0" stroke="#999999" points="660.5,-19 565.5,-19 565.5,0 660.5,0 660.5,-19"/>
<text text-anchor="middle" x="613" y="-7" font-family="Helvetica,sans-Serif" font-size="10.00">lammp/numth.h</text>
</a>
</g>
</g>
<!-- Node4&#45;&gt;Node7 -->
<g id="edge6_Node000004_Node000007" class="edge">
<title>Node4&#45;&gt;Node7</title>
<g id="a_edge6_Node000004_Node000007"><a xlink:title=" ">
<path fill="none" stroke="#63b8ff" d="M698.61,-54.98C682.43,-46.57 657.43,-33.59 638.62,-23.81"/>
<polygon fill="#63b8ff" stroke="#63b8ff" points="640.17,-20.68 629.69,-19.17 636.95,-26.89 640.17,-20.68"/>
</a>
</g>
</g>
<!-- Node8 -->
<g id="Node000008" class="node">
<title>Node8</title>
<g id="a_Node000008"><a xlink:title=" ">
<polygon fill="#e0e0e0" stroke="#999999" points="751,-19 679,-19 679,0 751,0 751,-19"/>
<text text-anchor="middle" x="715" y="-7" font-family="Helvetica,sans-Serif" font-size="10.00">lmmc/init.h</text>
</a>
</g>
</g>
<!-- Node4&#45;&gt;Node8 -->
<g id="edge7_Node000004_Node000008" class="edge">
<title>Node4&#45;&gt;Node8</title>
<g id="a_edge7_Node000004_Node000008"><a xlink:title=" ">
<path fill="none" stroke="#63b8ff" d="M715,-54.75C715,-47.8 715,-37.85 715,-29.13"/>
<polygon fill="#63b8ff" stroke="#63b8ff" points="718.5,-29.09 715,-19.09 711.5,-29.09 718.5,-29.09"/>
</a>
</g>
</g>
<!-- Node4&#45;&gt;Node9 -->
<g id="edge8_Node000004_Node000009" class="edge">
<title>Node4&#45;&gt;Node9</title>
<g id="a_edge8_Node000004_Node000009"><a xlink:title=" ">
<path fill="none" stroke="#63b8ff" d="M682.1,-61.11C557.08,-52.03 118.12,-20.12 111,-19 110.54,-18.93 110.07,-18.85 109.6,-18.77"/>
<polygon fill="#63b8ff" stroke="#63b8ff" points="110.11,-15.3 99.62,-16.79 108.74,-22.17 110.11,-15.3"/>
</a>
</g>
</g>
<!-- Node4&#45;&gt;Node10 -->
<g id="edge9_Node000004_Node000010" class="edge">
<title>Node4&#45;&gt;Node10</title>
<g id="a_edge9_Node000004_Node000010"><a xlink:title=" ">
<path fill="none" stroke="#63b8ff" d="M747.7,-59.65C800.88,-53.15 909.57,-38.94 1011.35,-18.95"/>
<polygon fill="#63b8ff" stroke="#63b8ff" points="1012.05,-22.38 1021.18,-17 1010.69,-15.51 1012.05,-22.38"/>
</a>
</g>
</g>
<!-- Node11 -->
<g id="Node000011" class="node">
<title>Node11</title>
<g id="a_Node000011"><a xlink:title=" ">
<polygon fill="#e0e0e0" stroke="#999999" points="819,-19 769,-19 769,0 819,0 819,-19"/>
<text text-anchor="middle" x="794" y="-7" font-family="Helvetica,sans-Serif" font-size="10.00">cstring</text>
</a>
</g>
</g>
<!-- Node4&#45;&gt;Node11 -->
<g id="edge10_Node000004_Node000011" class="edge">
<title>Node4&#45;&gt;Node11</title>
<g id="a_edge10_Node000004_Node000011"><a xlink:title=" ">
<path fill="none" stroke="#63b8ff" d="M727.69,-54.98C739.83,-46.84 758.36,-34.41 772.75,-24.76"/>
<polygon fill="#63b8ff" stroke="#63b8ff" points="774.72,-27.65 781.08,-19.17 770.82,-21.84 774.72,-27.65"/>
</a>
</g>
</g>
<!-- Node4&#45;&gt;Node12 -->
<g id="edge11_Node000004_Node000012" class="edge">
<title>Node4&#45;&gt;Node12</title>
<g id="a_edge11_Node000004_Node000012"><a xlink:title=" ">
<path fill="none" stroke="#63b8ff" d="M747.68,-59.87C762.17,-58.3 779.43,-56.49 795,-55 980.48,-37.29 1031.63,-51.69 1218.87,-18.88"/>
<polygon fill="#63b8ff" stroke="#63b8ff" points="1219.53,-22.32 1228.76,-17.12 1218.3,-15.42 1219.53,-22.32"/>
</a>
</g>
</g>
<!-- Node4&#45;&gt;Node13 -->
<g id="edge12_Node000004_Node000013" class="edge">
<title>Node4&#45;&gt;Node13</title>
<g id="a_edge12_Node000004_Node000013"><a xlink:title=" ">
<path fill="none" stroke="#63b8ff" d="M747.72,-59.87C824.67,-51.28 1015.42,-29.62 1079,-19 1079.1,-18.98 1079.2,-18.97 1079.3,-18.95"/>
<polygon fill="#63b8ff" stroke="#63b8ff" points="1079.71,-22.43 1088.91,-17.19 1078.45,-15.55 1079.71,-22.43"/>
</a>
</g>
</g>
<!-- Node4&#45;&gt;Node14 -->
<g id="edge13_Node000004_Node000014" class="edge">
<title>Node4&#45;&gt;Node14</title>
<g id="a_edge13_Node000004_Node000014"><a xlink:title=" ">
<path fill="none" stroke="#63b8ff" d="M682.3,-60.42C585.77,-51.33 302.11,-24.63 194.27,-14.48"/>
<polygon fill="#63b8ff" stroke="#63b8ff" points="194.38,-10.97 184.09,-13.52 193.72,-17.94 194.38,-10.97"/>
</a>
</g>
</g>
<!-- Node15 -->
<g id="Node000015" class="node">
<title>Node15</title>
<g id="a_Node000015"><a xlink:title=" ">
<polygon fill="#e0e0e0" stroke="#999999" points="1003,-19 947,-19 947,0 1003,0 1003,-19"/>
<text text-anchor="middle" x="975" y="-7" font-family="Helvetica,sans-Serif" font-size="10.00">iomanip</text>
</a>
</g>
</g>
<!-- Node4&#45;&gt;Node15 -->
<g id="edge14_Node000004_Node000015" class="edge">
<title>Node4&#45;&gt;Node15</title>
<g id="a_edge14_Node000004_Node000015"><a xlink:title=" ">
<path fill="none" stroke="#63b8ff" d="M747.56,-57.31C789.18,-49.33 863.69,-34.81 936.89,-19.19"/>
<polygon fill="#63b8ff" stroke="#63b8ff" points="937.69,-22.6 946.74,-17.08 936.23,-15.75 937.69,-22.6"/>
</a>
</g>
</g>
<!-- Node4&#45;&gt;Node16 -->
<g id="edge15_Node000004_Node000016" class="edge">
<title>Node4&#45;&gt;Node16</title>
<g id="a_edge15_Node000004_Node000016"><a xlink:title=" ">
<path fill="none" stroke="#63b8ff" d="M682.41,-60.02C606.53,-51.88 418.9,-31.41 336.49,-18.91"/>
<polygon fill="#63b8ff" stroke="#63b8ff" points="336.93,-15.44 326.51,-17.36 335.85,-22.36 336.93,-15.44"/>
</a>
</g>
</g>
<!-- Node4&#45;&gt;Node17 -->
<g id="edge16_Node000004_Node000017" class="edge">
<title>Node4&#45;&gt;Node17</title>
<g id="a_edge16_Node000004_Node000017"><a xlink:title=" ">
<path fill="none" stroke="#63b8ff" d="M747.69,-59.97C762.18,-58.43 779.44,-56.6 795,-55 952.97,-38.77 996.8,-48.14 1156.56,-18.97"/>
<polygon fill="#63b8ff" stroke="#63b8ff" points="1157.56,-22.34 1166.75,-17.08 1156.28,-15.46 1157.56,-22.34"/>
</a>
</g>
</g>
<!-- Node18 -->
<g id="Node000018" class="node">
<title>Node18</title>
<g id="a_Node000018"><a xlink:title=" ">
<polygon fill="#e0e0e0" stroke="#999999" points="431,-19 345,-19 345,0 431,0 431,-19"/>
<text text-anchor="middle" x="388" y="-7" font-family="Helvetica,sans-Serif" font-size="10.00">lmmc/config.h</text>
</a>
</g>
</g>
<!-- Node4&#45;&gt;Node18 -->
<g id="edge17_Node000004_Node000018" class="edge">
<title>Node4&#45;&gt;Node18</title>
<g id="a_edge17_Node000004_Node000018"><a xlink:title=" ">
<path fill="none" stroke="#63b8ff" d="M682.4,-57.51C677.58,-56.65 672.66,-55.79 668,-55 570.01,-38.41 542.96,-35.45 441.21,-19.18"/>
<polygon fill="#63b8ff" stroke="#63b8ff" points="441.56,-15.7 431.13,-17.57 440.45,-22.61 441.56,-15.7"/>
</a>
</g>
</g>
<!-- Node19&#45;&gt;Node4 -->
<g id="edge21_Node000019_Node000004" class="edge">
<title>Node19&#45;&gt;Node4</title>
<g id="a_edge21_Node000019_Node000004"><a xlink:title=" ">
<path fill="none" stroke="#63b8ff" d="M765.36,-109.98C756.49,-102.15 743.13,-90.34 732.39,-80.86"/>
<polygon fill="#63b8ff" stroke="#63b8ff" points="734.63,-78.17 724.82,-74.17 729.99,-83.41 734.63,-78.17"/>
</a>
</g>
</g>
<!-- Node19&#45;&gt;Node12 -->
<g id="edge25_Node000019_Node000012" class="edge">
<title>Node19&#45;&gt;Node12</title>
<g id="a_edge25_Node000019_Node000012"><a xlink:title=" ">
<path fill="none" stroke="#63b8ff" d="M812.82,-109.94C846.57,-101.92 897.14,-88.95 940,-74 960.11,-66.99 963.53,-60.88 984,-55 1082.9,-26.61 1114.32,-40.18 1218.73,-19.03"/>
<polygon fill="#63b8ff" stroke="#63b8ff" points="1219.65,-22.41 1228.72,-16.94 1218.22,-15.56 1219.65,-22.41"/>
</a>
</g>
</g>
<!-- Node19&#45;&gt;Node15 -->
<g id="edge22_Node000019_Node000015" class="edge">
<title>Node19&#45;&gt;Node15</title>
<g id="a_edge22_Node000019_Node000015"><a xlink:title=" ">
<path fill="none" stroke="#63b8ff" d="M775.18,-109.71C775.95,-95.99 779.5,-69.56 795,-55 797.63,-52.53 884.64,-31.75 936.71,-19.47"/>
<polygon fill="#63b8ff" stroke="#63b8ff" points="937.69,-22.84 946.62,-17.14 936.09,-16.03 937.69,-22.84"/>
</a>
</g>
</g>
<!-- Node19&#45;&gt;Node16 -->
<g id="edge24_Node000019_Node000016" class="edge">
<title>Node19&#45;&gt;Node16</title>
<g id="a_edge24_Node000019_Node000016"><a xlink:title=" ">
<path fill="none" stroke="#63b8ff" d="M739.34,-109.95C709.49,-102.24 666.1,-89.7 630,-74 614.48,-67.25 613.01,-60.48 597,-55 489.24,-18.12 453.4,-37.49 336.57,-18.95"/>
<polygon fill="#63b8ff" stroke="#63b8ff" points="336.96,-15.46 326.52,-17.29 335.82,-22.37 336.96,-15.46"/>
</a>
</g>
</g>
<!-- Node19&#45;&gt;Node18 -->
<g id="edge19_Node000019_Node000018" class="edge">
<title>Node19&#45;&gt;Node18</title>
<g id="a_edge19_Node000019_Node000018"><a xlink:title=" ">
<path fill="none" stroke="#63b8ff" d="M755.43,-110C734.89,-101.06 701.66,-86.58 673,-74 653.87,-65.6 649.97,-61.15 630,-55 612.27,-49.54 507.18,-31 441.45,-19.65"/>
<polygon fill="#63b8ff" stroke="#63b8ff" points="441.7,-16.14 431.26,-17.89 440.52,-23.04 441.7,-16.14"/>
</a>
</g>
</g>
<!-- Node20 -->
<g id="Node000020" class="node">
<title>Node20</title>
<g id="a_Node000020"><a xlink:title=" ">
<polygon fill="#e0e0e0" stroke="#999999" points="588,-74 492,-74 492,-55 588,-55 588,-74"/>
<text text-anchor="middle" x="540" y="-62" font-family="Helvetica,sans-Serif" font-size="10.00">lmmc/numeric.h</text>
</a>
</g>
</g>
<!-- Node19&#45;&gt;Node20 -->
<g id="edge20_Node000019_Node000020" class="edge">
<title>Node19&#45;&gt;Node20</title>
<g id="a_edge20_Node000019_Node000020"><a xlink:title=" ">
<path fill="none" stroke="#63b8ff" d="M737.24,-109.98C696.68,-100.84 632.11,-86.27 587.97,-76.32"/>
<polygon fill="#63b8ff" stroke="#63b8ff" points="588.58,-72.87 578.05,-74.08 587.04,-79.7 588.58,-72.87"/>
</a>
</g>
</g>
<!-- Node21 -->
<g id="Node000021" class="node">
<title>Node21</title>
<g id="a_Node000021"><a xlink:title=" ">
<polygon fill="#e0e0e0" stroke="#999999" points="860,-74 804,-74 804,-55 860,-55 860,-74"/>
<text text-anchor="middle" x="832" y="-62" font-family="Helvetica,sans-Serif" font-size="10.00">sstream</text>
</a>
</g>
</g>
<!-- Node19&#45;&gt;Node21 -->
<g id="edge23_Node000019_Node000021" class="edge">
<title>Node19&#45;&gt;Node21</title>
<g id="a_edge23_Node000019_Node000021"><a xlink:title=" ">
<path fill="none" stroke="#63b8ff" d="M784.16,-109.98C792.5,-102.23 805.03,-90.58 815.18,-81.14"/>
<polygon fill="#63b8ff" stroke="#63b8ff" points="817.74,-83.54 822.68,-74.17 812.97,-78.42 817.74,-83.54"/>
</a>
</g>
</g>
<!-- Node19&#45;&gt;Node22 -->
<g id="edge26_Node000019_Node000022" class="edge">
<title>Node19&#45;&gt;Node22</title>
<g id="a_edge26_Node000019_Node000022"><a xlink:title=" ">
<path fill="none" stroke="#63b8ff" d="M812.54,-111.13C866.95,-100.45 966.56,-80.9 1015.83,-71.23"/>
<polygon fill="#63b8ff" stroke="#63b8ff" points="1016.68,-74.63 1025.82,-69.27 1015.33,-67.76 1016.68,-74.63"/>
</a>
</g>
</g>
<!-- Node23 -->
<g id="Node000023" class="node">
<title>Node23</title>
<g id="a_Node000023"><a xlink:title=" ">
<polygon fill="#e0e0e0" stroke="#999999" points="931.5,-74 878.5,-74 878.5,-55 931.5,-55 931.5,-74"/>
<text text-anchor="middle" x="905" y="-62" font-family="Helvetica,sans-Serif" font-size="10.00">stdint.h</text>
</a>
</g>
</g>
<!-- Node19&#45;&gt;Node23 -->
<g id="edge27_Node000019_Node000023" class="edge">
<title>Node19&#45;&gt;Node23</title>
<g id="a_edge27_Node000019_Node000023"><a xlink:title=" ">
<path fill="none" stroke="#63b8ff" d="M795.89,-109.98C817.08,-101.34 850.13,-87.87 874.3,-78.02"/>
<polygon fill="#63b8ff" stroke="#63b8ff" points="875.79,-81.19 883.73,-74.17 873.15,-74.7 875.79,-81.19"/>
</a>
</g>
</g>
<!-- Node24&#45;&gt;Node4 -->
<g id="edge38_Node000024_Node000004" class="edge">
<title>Node24&#45;&gt;Node4</title>
<g id="a_edge38_Node000024_Node000004"><a xlink:title=" ">
<path fill="none" stroke="#63b8ff" d="M621.35,-164.66C638.54,-146.46 678.12,-104.55 699.92,-81.47"/>
<polygon fill="#63b8ff" stroke="#63b8ff" points="702.5,-83.83 706.82,-74.16 697.41,-79.03 702.5,-83.83"/>
</a>
</g>
</g>
<!-- Node24&#45;&gt;Node9 -->
<g id="edge30_Node000024_Node000009" class="edge">
<title>Node24&#45;&gt;Node9</title>
<g id="a_edge30_Node000024_Node000009"><a xlink:title=" ">
<path fill="none" stroke="#63b8ff" d="M561.86,-173.99C456.94,-174.12 221.53,-169.72 154,-129 115.64,-105.87 92.42,-55.8 82.19,-28.74"/>
<polygon fill="#63b8ff" stroke="#63b8ff" points="85.47,-27.52 78.79,-19.3 78.88,-29.89 85.47,-27.52"/>
</a>
</g>
</g>
<!-- Node24&#45;&gt;Node12 -->
<g id="edge31_Node000024_Node000012" class="edge">
<title>Node24&#45;&gt;Node12</title>
<g id="a_edge31_Node000024_Node000012"><a xlink:title=" ">
<path fill="none" stroke="#63b8ff" d="M664.22,-166.91C707.08,-160.37 769.33,-148.46 821,-129 837.2,-122.9 839.05,-116.73 855,-110 906.69,-88.18 923.52,-93.85 976,-74 994.79,-66.9 997.84,-61.03 1017,-55 1101.42,-28.45 1128.75,-38.39 1218.9,-19.04"/>
<polygon fill="#63b8ff" stroke="#63b8ff" points="1219.7,-22.45 1228.71,-16.88 1218.19,-15.61 1219.7,-22.45"/>
</a>
</g>
</g>
<!-- Node24&#45;&gt;Node14 -->
<g id="edge33_Node000024_Node000014" class="edge">
<title>Node24&#45;&gt;Node14</title>
<g id="a_edge33_Node000024_Node000014"><a xlink:title=" ">
<path fill="none" stroke="#63b8ff" d="M561.59,-171.79C451.15,-167.64 198.95,-155.36 171,-129 143.93,-103.47 145.38,-55.9 148.73,-29.46"/>
<polygon fill="#63b8ff" stroke="#63b8ff" points="152.24,-29.65 150.26,-19.25 145.32,-28.62 152.24,-29.65"/>
</a>
</g>
</g>
<!-- Node24&#45;&gt;Node16 -->
<g id="edge41_Node000024_Node000016" class="edge">
<title>Node24&#45;&gt;Node16</title>
<g id="a_edge41_Node000024_Node000016"><a xlink:title=" ">
<path fill="none" stroke="#63b8ff" d="M604.48,-164.67C591.27,-151.38 564.58,-126.06 538,-110 501.48,-87.94 488.52,-90.09 449,-74 405.74,-56.39 355.75,-35.88 324.5,-23.04"/>
<polygon fill="#63b8ff" stroke="#63b8ff" points="325.63,-19.72 315.05,-19.16 322.97,-26.2 325.63,-19.72"/>
</a>
</g>
</g>
<!-- Node24&#45;&gt;Node18 -->
<g id="edge39_Node000024_Node000018" class="edge">
<title>Node24&#45;&gt;Node18</title>
<g id="a_edge39_Node000024_Node000018"><a xlink:title=" ">
<path fill="none" stroke="#63b8ff" d="M609.36,-164.92C603.27,-151.48 589.8,-125.43 571,-110 538.34,-83.19 520.31,-93.84 483,-74 455.6,-59.43 426.22,-38.96 407.51,-25.24"/>
<polygon fill="#63b8ff" stroke="#63b8ff" points="409.35,-22.25 399.23,-19.1 405.18,-27.87 409.35,-22.25"/>
</a>
</g>
</g>
<!-- Node24&#45;&gt;Node19 -->
<g id="edge37_Node000024_Node000019" class="edge">
<title>Node24&#45;&gt;Node19</title>
<g id="a_edge37_Node000024_Node000019"><a xlink:title=" ">
<path fill="none" stroke="#63b8ff" d="M639.03,-164.98C666.11,-156.13 708.71,-142.19 739.01,-132.28"/>
<polygon fill="#63b8ff" stroke="#63b8ff" points="740.35,-135.52 748.77,-129.08 738.18,-128.87 740.35,-135.52"/>
</a>
</g>
</g>
<!-- Node24&#45;&gt;Node20 -->
<g id="edge40_Node000024_Node000020" class="edge">
<title>Node24&#45;&gt;Node20</title>
<g id="a_edge40_Node000024_Node000020"><a xlink:title=" ">
<path fill="none" stroke="#63b8ff" d="M614.74,-165C616.9,-152.12 619.17,-127.34 609,-110 600.8,-96.01 586.26,-85.67 572.64,-78.5"/>
<polygon fill="#63b8ff" stroke="#63b8ff" points="573.97,-75.25 563.44,-74.03 570.91,-81.55 573.97,-75.25"/>
</a>
</g>
</g>
<!-- Node24&#45;&gt;Node22 -->
<g id="edge43_Node000024_Node000022" class="edge">
<title>Node24&#45;&gt;Node22</title>
<g id="a_edge43_Node000024_Node000022"><a xlink:title=" ">
<path fill="none" stroke="#63b8ff" d="M664.35,-167.61C713.92,-161.09 790.7,-148.82 855,-129 874.97,-122.85 878.41,-117.26 898,-110 938.26,-95.08 986.03,-81.32 1015.93,-73.17"/>
<polygon fill="#63b8ff" stroke="#63b8ff" points="1016.98,-76.51 1025.72,-70.53 1015.16,-69.75 1016.98,-76.51"/>
</a>
</g>
</g>
<!-- Node24&#45;&gt;Node25 -->
<g id="edge29_Node000024_Node000025" class="edge">
<title>Node24&#45;&gt;Node25</title>
<g id="a_edge29_Node000024_Node000025"><a xlink:title=" ">
<path fill="none" stroke="#63b8ff" d="M664.13,-167.21C751.13,-156.51 926.12,-135 1004.48,-125.36"/>
<polygon fill="#63b8ff" stroke="#63b8ff" points="1005.38,-128.78 1014.87,-124.08 1004.52,-121.83 1005.38,-128.78"/>
</a>
</g>
</g>
<!-- Node24&#45;&gt;Node26 -->
<g id="edge32_Node000024_Node000026" class="edge">
<title>Node24&#45;&gt;Node26</title>
<g id="a_edge32_Node000024_Node000026"><a xlink:title=" ">
<path fill="none" stroke="#63b8ff" d="M664.23,-166.17C720.48,-157.94 813.39,-143.77 893,-129 894.44,-128.73 895.91,-128.45 897.39,-128.17"/>
<polygon fill="#63b8ff" stroke="#63b8ff" points="898.11,-131.59 907.22,-126.18 896.72,-124.73 898.11,-131.59"/>
</a>
</g>
</g>
<!-- Node27 -->
<g id="Node000027" class="node">
<title>Node27</title>
<g id="a_Node000027"><a xlink:title=" ">
<polygon fill="#e0e0e0" stroke="#999999" points="245.5,-129 180.5,-129 180.5,-110 245.5,-110 245.5,-129"/>
<text text-anchor="middle" x="213" y="-117" font-family="Helvetica,sans-Serif" font-size="10.00">typeindex</text>
</a>
</g>
</g>
<!-- Node24&#45;&gt;Node27 -->
<g id="edge34_Node000024_Node000027" class="edge">
<title>Node24&#45;&gt;Node27</title>
<g id="a_edge34_Node000024_Node000027"><a xlink:title=" ">
<path fill="none" stroke="#63b8ff" d="M561.98,-168.49C494.18,-161.55 370.47,-147.86 255.64,-129.16"/>
<polygon fill="#63b8ff" stroke="#63b8ff" points="256.06,-125.68 245.63,-127.51 254.93,-132.59 256.06,-125.68"/>
</a>
</g>
</g>
<!-- Node28 -->
<g id="Node000028" class="node">
<title>Node28</title>
<g id="a_Node000028"><a xlink:title=" ">
<polygon fill="#e0e0e0" stroke="#999999" points="356.5,-129 263.5,-129 263.5,-110 356.5,-110 356.5,-129"/>
<text text-anchor="middle" x="310" y="-117" font-family="Helvetica,sans-Serif" font-size="10.00">unordered_map</text>
</a>
</g>
</g>
<!-- Node24&#45;&gt;Node28 -->
<g id="edge35_Node000024_Node000028" class="edge">
<title>Node24&#45;&gt;Node28</title>
<g id="a_edge35_Node000024_Node000028"><a xlink:title=" ">
<path fill="none" stroke="#63b8ff" d="M564.32,-164.98C510.35,-155.54 423.41,-140.34 366.49,-130.38"/>
<polygon fill="#63b8ff" stroke="#63b8ff" points="367.02,-126.92 356.57,-128.65 365.82,-133.82 367.02,-126.92"/>
</a>
</g>
</g>
<!-- Node29 -->
<g id="Node000029" class="node">
<title>Node29</title>
<g id="a_Node000029"><a xlink:title=" ">
<polygon fill="#e0e0e0" stroke="#999999" points="461,-129 375,-129 375,-110 461,-110 461,-129"/>
<text text-anchor="middle" x="418" y="-117" font-family="Helvetica,sans-Serif" font-size="10.00">unordered_set</text>
</a>
</g>
</g>
<!-- Node24&#45;&gt;Node29 -->
<g id="edge36_Node000024_Node000029" class="edge">
<title>Node24&#45;&gt;Node29</title>
<g id="a_edge36_Node000024_Node000029"><a xlink:title=" ">
<path fill="none" stroke="#63b8ff" d="M581.67,-164.98C548.51,-155.97 496,-141.7 459.44,-131.76"/>
<polygon fill="#63b8ff" stroke="#63b8ff" points="460.14,-128.33 449.58,-129.08 458.31,-135.08 460.14,-128.33"/>
</a>
</g>
</g>
<!-- Node30 -->
<g id="Node000030" class="node">
<title>Node30</title>
<g id="a_Node000030"><a xlink:title=" ">
<polygon fill="#e0e0e0" stroke="#999999" points="529,-129 479,-129 479,-110 529,-110 529,-129"/>
<text text-anchor="middle" x="504" y="-117" font-family="Helvetica,sans-Serif" font-size="10.00">atomic</text>
</a>
</g>
</g>
<!-- Node24&#45;&gt;Node30 -->
<g id="edge42_Node000024_Node000030" class="edge">
<title>Node24&#45;&gt;Node30</title>
<g id="a_edge42_Node000024_Node000030"><a xlink:title=" ">
<path fill="none" stroke="#63b8ff" d="M595.49,-164.98C578.03,-156.5 550.99,-143.35 530.83,-133.54"/>
<polygon fill="#63b8ff" stroke="#63b8ff" points="532.36,-130.4 521.83,-129.17 529.29,-136.69 532.36,-130.4"/>
</a>
</g>
</g>
</g>
</svg>

<g id="navigator" transform="translate(0 0)" fill="#404254">
  <rect fill="#f2f5e9" fill-opacity="0.5" stroke="#606060" stroke-width=".5" x="0" y="0" width="60" height="60"/>
  <use id="zoomplus" xlink:href="#zoomPlus" x="17" y="9" onmousedown="handleZoom(evt,'in')"/>
  <use id="zoomminus" xlink:href="#zoomMin" x="42" y="9" onmousedown="handleZoom(evt,'out')"/>
  <use id="reset" xlink:href="#resetDef" x="30" y="36" onmousedown="handleReset()"/>
   <use id="arrowup" xlink:href="#arrowUp" x="0" y="0" onmousedown="handlePan(0,-1)"/>
  <use id="arrowright" xlink:href="#arrowRight" x="0" y="0" onmousedown="handlePan(1,0)"/>
  <use id="arrowdown" xlink:href="#arrowDown" x="0" y="0" onmousedown="handlePan(0,1)"/>
  <use id="arrowleft" xlink:href="#arrowLeft" x="0" y="0" onmousedown="handlePan(-1,0)"/>
</g>
<svg viewBox="0 0 15 15" width="100%" height="30px" preserveAspectRatio="xMaxYMin meet">
 <g id="arrow_out" transform="scale(0.3 0.3)">
  <a xlink:href="symbolic__complex_8cpp__incl_org.svg" target="_base">
   <rect id="button" ry="5" rx="5" y="6" x="6" height="38" width="38"
        fill="#f2f5e9" fill-opacity="0.5" stroke="#606060" stroke-width="1.0"/>
   <path id="arrow"
     d="M 11.500037,31.436501 C 11.940474,20.09759 22.043105,11.32322 32.158766,21.979434 L 37.068811,17.246167 C 37.068811,17.246167 37.088388,32 37.088388,32 L 22.160133,31.978069 C 22.160133,31.978069 26.997745,27.140456 26.997745,27.140456 C 18.528582,18.264221 13.291696,25.230495 11.500037,31.436501 z"
     style="fill:#404040;"/>
  </a>
 </g>
</svg>

<style type='text/css'>
<![CDATA[
[data-mouse-over-selected='false'] { opacity: 0.7; }
[data-mouse-over-selected='true']  { opacity: 1.0; }
]]>
</style>
<script type="application/ecmascript"><![CDATA[
document.addEventListener('DOMContentLoaded', (event) => {
  highlightEdges();
  highlightAdjacentNodes();
});
]]></script>
</svg>
