<?xml version="1.0" encoding="UTF-8" standalone="no"?>
<!DOCTYPE svg PUBLIC "-//W3C//DTD SVG 1.1//EN"
 "http://www.w3.org/Graphics/SVG/1.1/DTD/svg11.dtd">
<!-- Generated by graphviz version 2.43.0 (0)
 -->
<!-- Title: LimitVisitor Pages: 1 -->
<svg width="572pt" height="1532pt"
 viewBox="0.00 0.00 571.50 1532.00" xmlns="http://www.w3.org/2000/svg" xmlns:xlink="http://www.w3.org/1999/xlink">
<g id="graph0" class="graph" transform="scale(1 1) rotate(0) translate(4 1528)">
<title>LimitVisitor</title>
<!-- Node1 -->
<g id="Node000001" class="node">
<title>Node1</title>
<g id="a_Node000001"><a xlink:title="极限访问器，通过代入求值和 L&#39;Hôpital 法则计算符号表达式的极限">
<polygon fill="#999999" stroke="transparent" points="273,-327 112,-327 112,0 273,0 273,-327"/>
<text text-anchor="start" x="164.5" y="-314.5" font-family="Helvetica,sans-Serif" font-size="10.00">LimitVisitor</text>
<text text-anchor="start" x="191" y="-299.5" font-family="Helvetica,sans-Serif" font-size="10.00"> </text>
<text text-anchor="start" x="116.5" y="-284.5" font-family="Helvetica,sans-Serif" font-size="10.00">+</text>
<text text-anchor="start" x="129.5" y="-284.5" font-family="Helvetica,sans-Serif" font-size="10.00">LimitVisitor(std::</text>
<text text-anchor="start" x="129.5" y="-273.5" font-family="Helvetica,sans-Serif" font-size="10.00">string v, std::shared</text>
<text text-anchor="start" x="129.5" y="-262.5" font-family="Helvetica,sans-Serif" font-size="10.00">_ptr&lt; SymbolicNode &gt; p,</text>
<text text-anchor="start" x="129.5" y="-251.5" font-family="Helvetica,sans-Serif" font-size="10.00"> std::string dir=&quot;&quot;)</text>
<text text-anchor="start" x="116.5" y="-236.5" font-family="Helvetica,sans-Serif" font-size="10.00">+</text>
<text text-anchor="start" x="129.5" y="-236.5" font-family="Helvetica,sans-Serif" font-size="10.00">std::shared_ptr&lt; Symbolic</text>
<text text-anchor="start" x="129.5" y="-225.5" font-family="Helvetica,sans-Serif" font-size="10.00">Node &gt; get_result() const</text>
<text text-anchor="start" x="116.5" y="-210.5" font-family="Helvetica,sans-Serif" font-size="10.00">+</text>
<text text-anchor="start" x="129.5" y="-210.5" font-family="Helvetica,sans-Serif" font-size="10.00">void visit(AddNode</text>
<text text-anchor="start" x="129.5" y="-199.5" font-family="Helvetica,sans-Serif" font-size="10.00"> &amp;node) override</text>
<text text-anchor="start" x="116.5" y="-184.5" font-family="Helvetica,sans-Serif" font-size="10.00">+</text>
<text text-anchor="start" x="129.5" y="-184.5" font-family="Helvetica,sans-Serif" font-size="10.00">void visit(FunctionNode</text>
<text text-anchor="start" x="129.5" y="-173.5" font-family="Helvetica,sans-Serif" font-size="10.00"> &amp;node) override</text>
<text text-anchor="start" x="116.5" y="-158.5" font-family="Helvetica,sans-Serif" font-size="10.00">+</text>
<text text-anchor="start" x="129.5" y="-158.5" font-family="Helvetica,sans-Serif" font-size="10.00">void visit(MatrixNode</text>
<text text-anchor="start" x="129.5" y="-147.5" font-family="Helvetica,sans-Serif" font-size="10.00"> &amp;node) override</text>
<text text-anchor="start" x="116.5" y="-132.5" font-family="Helvetica,sans-Serif" font-size="10.00">+</text>
<text text-anchor="start" x="129.5" y="-132.5" font-family="Helvetica,sans-Serif" font-size="10.00">void visit(MultiplyNode</text>
<text text-anchor="start" x="129.5" y="-121.5" font-family="Helvetica,sans-Serif" font-size="10.00"> &amp;node) override</text>
<text text-anchor="start" x="116.5" y="-106.5" font-family="Helvetica,sans-Serif" font-size="10.00">+</text>
<text text-anchor="start" x="129.5" y="-106.5" font-family="Helvetica,sans-Serif" font-size="10.00">void visit(NumberNode</text>
<text text-anchor="start" x="129.5" y="-95.5" font-family="Helvetica,sans-Serif" font-size="10.00"> &amp;node) override</text>
<text text-anchor="start" x="116.5" y="-80.5" font-family="Helvetica,sans-Serif" font-size="10.00">+</text>
<text text-anchor="start" x="129.5" y="-80.5" font-family="Helvetica,sans-Serif" font-size="10.00">void visit(PowerNode</text>
<text text-anchor="start" x="129.5" y="-69.5" font-family="Helvetica,sans-Serif" font-size="10.00"> &amp;node) override</text>
<text text-anchor="start" x="116.5" y="-54.5" font-family="Helvetica,sans-Serif" font-size="10.00">+</text>
<text text-anchor="start" x="129.5" y="-54.5" font-family="Helvetica,sans-Serif" font-size="10.00">void visit(VariableNode</text>
<text text-anchor="start" x="129.5" y="-43.5" font-family="Helvetica,sans-Serif" font-size="10.00"> &amp;node) override</text>
<text text-anchor="start" x="119" y="-28.5" font-family="Helvetica,sans-Serif" font-size="10.00">&#45;</text>
<text text-anchor="start" x="129.5" y="-28.5" font-family="Helvetica,sans-Serif" font-size="10.00">bool is_inf(const std</text>
<text text-anchor="start" x="129.5" y="-17.5" font-family="Helvetica,sans-Serif" font-size="10.00">::shared_ptr&lt; SymbolicNode</text>
<text text-anchor="start" x="129.5" y="-6.5" font-family="Helvetica,sans-Serif" font-size="10.00"> &gt; &amp;node)</text>
<polygon fill="#666666" stroke="#666666" points="112.5,-309.5 112.5,-309.5 273.5,-309.5 273.5,-309.5 112.5,-309.5"/>
<polygon fill="#666666" stroke="#666666" points="112.5,-294.5 112.5,-294.5 273.5,-294.5 273.5,-294.5 112.5,-294.5"/>
<polygon fill="none" stroke="#666666" points="112,0 112,-327 273,-327 273,0 112,0"/>
</a>
</g>
</g>
<!-- Node2 -->
<g id="Node000002" class="node">
<title>Node2</title>
<g id="a_Node000002"><a xlink:href="../../da/dcb/classSymbolicVisitor.html" target="_top" xlink:title="AST 访问者基类（Visitor 模式）。">
<polygon fill="white" stroke="transparent" points="145,-679 0,-679 0,-385 145,-385 145,-679"/>
<text text-anchor="start" x="34.5" y="-667" font-family="Helvetica,sans-Serif" font-size="10.00">SymbolicVisitor</text>
<text text-anchor="start" x="71" y="-652" font-family="Helvetica,sans-Serif" font-size="10.00"> </text>
<text text-anchor="start" x="4.5" y="-637" font-family="Helvetica,sans-Serif" font-size="10.00">+</text>
<text text-anchor="start" x="17.5" y="-637" font-family="Helvetica,sans-Serif" font-size="10.00">virtual ~SymbolicVisitor</text>
<text text-anchor="start" x="17.5" y="-626" font-family="Helvetica,sans-Serif" font-size="10.00">()=default</text>
<text text-anchor="start" x="4.5" y="-611" font-family="Helvetica,sans-Serif" font-size="10.00">+</text>
<text text-anchor="start" x="17.5" y="-611" font-family="Helvetica,sans-Serif" font-size="10.00">virtual void visit</text>
<text text-anchor="start" x="17.5" y="-600" font-family="Helvetica,sans-Serif" font-size="10.00">(AddNode &amp;node)=0</text>
<text text-anchor="start" x="4.5" y="-585" font-family="Helvetica,sans-Serif" font-size="10.00">+</text>
<text text-anchor="start" x="17.5" y="-585" font-family="Helvetica,sans-Serif" font-size="10.00">virtual void visit</text>
<text text-anchor="start" x="17.5" y="-574" font-family="Helvetica,sans-Serif" font-size="10.00">(FunctionNode &amp;node)=0</text>
<text text-anchor="start" x="4.5" y="-559" font-family="Helvetica,sans-Serif" font-size="10.00">+</text>
<text text-anchor="start" x="17.5" y="-559" font-family="Helvetica,sans-Serif" font-size="10.00">virtual void visit</text>
<text text-anchor="start" x="17.5" y="-548" font-family="Helvetica,sans-Serif" font-size="10.00">(LogicalNode &amp;node)</text>
<text text-anchor="start" x="4.5" y="-533" font-family="Helvetica,sans-Serif" font-size="10.00">+</text>
<text text-anchor="start" x="17.5" y="-533" font-family="Helvetica,sans-Serif" font-size="10.00">virtual void visit</text>
<text text-anchor="start" x="17.5" y="-522" font-family="Helvetica,sans-Serif" font-size="10.00">(MatrixNode &amp;node)=0</text>
<text text-anchor="start" x="4.5" y="-507" font-family="Helvetica,sans-Serif" font-size="10.00">+</text>
<text text-anchor="start" x="17.5" y="-507" font-family="Helvetica,sans-Serif" font-size="10.00">virtual void visit</text>
<text text-anchor="start" x="17.5" y="-496" font-family="Helvetica,sans-Serif" font-size="10.00">(MultiplyNode &amp;node)=0</text>
<text text-anchor="start" x="4.5" y="-481" font-family="Helvetica,sans-Serif" font-size="10.00">+</text>
<text text-anchor="start" x="17.5" y="-481" font-family="Helvetica,sans-Serif" font-size="10.00">virtual void visit</text>
<text text-anchor="start" x="17.5" y="-470" font-family="Helvetica,sans-Serif" font-size="10.00">(NumberNode &amp;node)=0</text>
<text text-anchor="start" x="4.5" y="-455" font-family="Helvetica,sans-Serif" font-size="10.00">+</text>
<text text-anchor="start" x="17.5" y="-455" font-family="Helvetica,sans-Serif" font-size="10.00">virtual void visit</text>
<text text-anchor="start" x="17.5" y="-444" font-family="Helvetica,sans-Serif" font-size="10.00">(PowerNode &amp;node)=0</text>
<text text-anchor="start" x="4.5" y="-429" font-family="Helvetica,sans-Serif" font-size="10.00">+</text>
<text text-anchor="start" x="17.5" y="-429" font-family="Helvetica,sans-Serif" font-size="10.00">virtual void visit</text>
<text text-anchor="start" x="17.5" y="-418" font-family="Helvetica,sans-Serif" font-size="10.00">(RelationalNode &amp;node)</text>
<text text-anchor="start" x="4.5" y="-403" font-family="Helvetica,sans-Serif" font-size="10.00">+</text>
<text text-anchor="start" x="17.5" y="-403" font-family="Helvetica,sans-Serif" font-size="10.00">virtual void visit</text>
<text text-anchor="start" x="17.5" y="-392" font-family="Helvetica,sans-Serif" font-size="10.00">(VariableNode &amp;node)=0</text>
<polygon fill="#666666" stroke="#666666" points="0.5,-662 0.5,-662 145.5,-662 145.5,-662 0.5,-662"/>
<polygon fill="#666666" stroke="#666666" points="0.5,-647 0.5,-647 145.5,-647 145.5,-647 0.5,-647"/>
<polygon fill="none" stroke="#666666" points="0,-385 0,-679 145,-679 145,-385 0,-385"/>
</a>
</g>
</g>
<!-- Node2&#45;&gt;Node1 -->
<g id="edge1_Node000001_Node000002" class="edge">
<title>Node2&#45;&gt;Node1</title>
<g id="a_edge1_Node000001_Node000002"><a xlink:title=" ">
<path fill="none" stroke="#63b8ff" d="M123.57,-375.02C128.76,-359.18 134.03,-343.08 139.24,-327.18"/>
<polygon fill="none" stroke="#63b8ff" points="120.14,-374.24 120.36,-384.83 126.8,-376.42 120.14,-374.24"/>
</a>
</g>
</g>
<!-- Node3 -->
<g id="Node000003" class="node">
<title>Node3</title>
<g id="a_Node000003"><a xlink:title=" ">
<polygon fill="white" stroke="transparent" points="84,-992 61,-992 61,-943 84,-943 84,-992"/>
<text text-anchor="start" x="66.5" y="-979.5" font-family="Helvetica,sans-Serif" font-size="10.00">int</text>
<text text-anchor="start" x="71" y="-964.5" font-family="Helvetica,sans-Serif" font-size="10.00"> </text>
<text text-anchor="start" x="71" y="-949.5" font-family="Helvetica,sans-Serif" font-size="10.00"> </text>
<polygon fill="#666666" stroke="#666666" points="61.5,-974.5 61.5,-974.5 84.5,-974.5 84.5,-974.5 61.5,-974.5"/>
<polygon fill="#666666" stroke="#666666" points="61.5,-959.5 61.5,-959.5 84.5,-959.5 84.5,-959.5 61.5,-959.5"/>
<polygon fill="none" stroke="#666666" points="61,-943 61,-992 84,-992 84,-943 61,-943"/>
</a>
</g>
</g>
<!-- Node3&#45;&gt;Node2 -->
<g id="edge2_Node000002_Node000003" class="edge">
<title>Node3&#45;&gt;Node2</title>
<g id="a_edge2_Node000002_Node000003"><a xlink:title=" ">
<path fill="none" stroke="#63b8ff" d="M72.5,-942.89C72.5,-895.58 72.5,-785.65 72.5,-691.53"/>
<polygon fill="none" stroke="#63b8ff" points="72.5,-691.25 68.5,-685.25 72.5,-679.25 76.5,-685.25 72.5,-691.25"/>
</a>
</g>
<text text-anchor="middle" x="110.5" y="-711" font-family="Helvetica,sans-Serif" font-size="10.00" fill="grey"> #MAX_DEPTH</text>
<text text-anchor="middle" x="110.5" y="-700" font-family="Helvetica,sans-Serif" font-size="10.00" fill="grey">#current_depth</text>
</g>
<!-- Node4 -->
<g id="Node000004" class="node">
<title>Node4</title>
<g id="a_Node000004"><a xlink:title=" ">
<polygon fill="white" stroke="transparent" points="222,-556.5 163,-556.5 163,-507.5 222,-507.5 222,-556.5"/>
<text text-anchor="start" x="168.5" y="-544" font-family="Helvetica,sans-Serif" font-size="10.00">std::string</text>
<text text-anchor="start" x="191" y="-529" font-family="Helvetica,sans-Serif" font-size="10.00"> </text>
<text text-anchor="start" x="191" y="-514" font-family="Helvetica,sans-Serif" font-size="10.00"> </text>
<polygon fill="#666666" stroke="#666666" points="163.5,-539 163.5,-539 222.5,-539 222.5,-539 163.5,-539"/>
<polygon fill="#666666" stroke="#666666" points="163.5,-524 163.5,-524 222.5,-524 222.5,-524 163.5,-524"/>
<polygon fill="none" stroke="#666666" points="163,-507.5 163,-556.5 222,-556.5 222,-507.5 163,-507.5"/>
</a>
</g>
</g>
<!-- Node4&#45;&gt;Node1 -->
<g id="edge3_Node000001_Node000004" class="edge">
<title>Node4&#45;&gt;Node1</title>
<g id="a_edge3_Node000001_Node000004"><a xlink:title=" ">
<path fill="none" stroke="#63b8ff" d="M192.5,-507.24C192.5,-472.67 192.5,-405.43 192.5,-339.6"/>
<polygon fill="none" stroke="#63b8ff" points="192.5,-339.33 188.5,-333.33 192.5,-327.33 196.5,-333.33 192.5,-339.33"/>
</a>
</g>
<text text-anchor="middle" x="217.5" y="-359" font-family="Helvetica,sans-Serif" font-size="10.00" fill="grey"> &#45;direction</text>
<text text-anchor="middle" x="217.5" y="-348" font-family="Helvetica,sans-Serif" font-size="10.00" fill="grey">&#45;var</text>
</g>
<!-- Node5 -->
<g id="Node000005" class="node">
<title>Node5</title>
<g id="a_Node000005"><a xlink:title=" ">
<polygon fill="white" stroke="transparent" points="226.5,-997.5 128.5,-997.5 128.5,-937.5 226.5,-937.5 226.5,-997.5"/>
<text text-anchor="start" x="133.5" y="-985.5" font-family="Helvetica,sans-Serif" font-size="10.00">std::basic_string&lt;</text>
<text text-anchor="start" x="159" y="-974.5" font-family="Helvetica,sans-Serif" font-size="10.00"> Char &gt;</text>
<text text-anchor="start" x="175.5" y="-959.5" font-family="Helvetica,sans-Serif" font-size="10.00"> </text>
<text text-anchor="start" x="175.5" y="-944.5" font-family="Helvetica,sans-Serif" font-size="10.00"> </text>
<polygon fill="#666666" stroke="#666666" points="128.5,-969.5 128.5,-969.5 226.5,-969.5 226.5,-969.5 128.5,-969.5"/>
<polygon fill="#666666" stroke="#666666" points="128.5,-954.5 128.5,-954.5 226.5,-954.5 226.5,-954.5 128.5,-954.5"/>
<polygon fill="none" stroke="#666666" points="128.5,-937.5 128.5,-997.5 226.5,-997.5 226.5,-937.5 128.5,-937.5"/>
</a>
</g>
</g>
<!-- Node5&#45;&gt;Node4 -->
<g id="edge4_Node000004_Node000005" class="edge">
<title>Node5&#45;&gt;Node4</title>
<g id="a_edge4_Node000004_Node000005"><a xlink:title=" ">
<path fill="none" stroke="#63b8ff" d="M178.86,-927.26C181.91,-839.07 189.23,-627.39 191.69,-556.55"/>
<polygon fill="none" stroke="#63b8ff" points="175.36,-927.27 178.51,-937.38 182.35,-927.51 175.36,-927.27"/>
</a>
</g>
</g>
<!-- Node6 -->
<g id="Node000006" class="node">
<title>Node6</title>
<g id="a_Node000006"><a xlink:title=" ">
<polygon fill="white" stroke="transparent" points="418.5,-562 254.5,-562 254.5,-502 418.5,-502 418.5,-562"/>
<text text-anchor="start" x="271.5" y="-550" font-family="Helvetica,sans-Serif" font-size="10.00">std::shared_ptr&lt; Symbolic</text>
<text text-anchor="start" x="318" y="-539" font-family="Helvetica,sans-Serif" font-size="10.00">Node &gt;</text>
<text text-anchor="start" x="334.5" y="-524" font-family="Helvetica,sans-Serif" font-size="10.00"> </text>
<text text-anchor="start" x="258.5" y="-509" font-family="Helvetica,sans-Serif" font-size="10.00">+</text>
<text text-anchor="start" x="271.5" y="-509" font-family="Helvetica,sans-Serif" font-size="10.00">SymbolicNode * operator&#45;&gt;()</text>
<polygon fill="#666666" stroke="#666666" points="254.5,-534 254.5,-534 418.5,-534 418.5,-534 254.5,-534"/>
<polygon fill="#666666" stroke="#666666" points="254.5,-519 254.5,-519 418.5,-519 418.5,-519 254.5,-519"/>
<polygon fill="none" stroke="#666666" points="254.5,-502 254.5,-562 418.5,-562 418.5,-502 254.5,-502"/>
</a>
</g>
</g>
<!-- Node6&#45;&gt;Node1 -->
<g id="edge5_Node000001_Node000006" class="edge">
<title>Node6&#45;&gt;Node1</title>
<g id="a_edge5_Node000001_Node000006"><a xlink:title=" ">
<path fill="none" stroke="#63b8ff" d="M325.08,-501.94C310.93,-465.92 285.65,-401.58 260.93,-338.67"/>
<polygon fill="none" stroke="#63b8ff" points="260.88,-338.53 254.96,-334.41 256.49,-327.36 262.41,-331.48 260.88,-338.53"/>
</a>
</g>
<text text-anchor="middle" x="289.5" y="-359" font-family="Helvetica,sans-Serif" font-size="10.00" fill="grey"> +result</text>
<text text-anchor="middle" x="289.5" y="-348" font-family="Helvetica,sans-Serif" font-size="10.00" fill="grey">&#45;point</text>
</g>
<!-- Node7 -->
<g id="Node000007" class="node">
<title>Node7</title>
<g id="a_Node000007"><a xlink:href="../../dc/dc3/classSymbolicNode.html" target="_top" xlink:title="符号表达式 AST 节点基类。">
<polygon fill="white" stroke="transparent" points="428.5,-1198 244.5,-1198 244.5,-737 428.5,-737 428.5,-1198"/>
<text text-anchor="start" x="301" y="-1185.5" font-family="Helvetica,sans-Serif" font-size="10.00">SymbolicNode</text>
<text text-anchor="start" x="334.5" y="-1170.5" font-family="Helvetica,sans-Serif" font-size="10.00"> </text>
<text text-anchor="start" x="248.5" y="-1155.5" font-family="Helvetica,sans-Serif" font-size="10.00">+</text>
<text text-anchor="start" x="261.5" y="-1155.5" font-family="Helvetica,sans-Serif" font-size="10.00">virtual ~SymbolicNode</text>
<text text-anchor="start" x="261.5" y="-1144.5" font-family="Helvetica,sans-Serif" font-size="10.00">()=default</text>
<text text-anchor="start" x="248.5" y="-1129.5" font-family="Helvetica,sans-Serif" font-size="10.00">+</text>
<text text-anchor="start" x="261.5" y="-1129.5" font-family="Helvetica,sans-Serif" font-size="10.00">virtual void accept</text>
<text text-anchor="start" x="261.5" y="-1118.5" font-family="Helvetica,sans-Serif" font-size="10.00">(SymbolicVisitor &amp;visitor)=0</text>
<text text-anchor="start" x="248.5" y="-1103.5" font-family="Helvetica,sans-Serif" font-size="10.00">+</text>
<text text-anchor="start" x="261.5" y="-1103.5" font-family="Helvetica,sans-Serif" font-size="10.00">virtual std::shared</text>
<text text-anchor="start" x="261.5" y="-1092.5" font-family="Helvetica,sans-Serif" font-size="10.00">_ptr&lt; SymbolicNode &gt;</text>
<text text-anchor="start" x="261.5" y="-1081.5" font-family="Helvetica,sans-Serif" font-size="10.00"> clone() const =0</text>
<text text-anchor="start" x="248.5" y="-1066.5" font-family="Helvetica,sans-Serif" font-size="10.00">+</text>
<text text-anchor="start" x="261.5" y="-1066.5" font-family="Helvetica,sans-Serif" font-size="10.00">int compare(const Symbolic</text>
<text text-anchor="start" x="261.5" y="-1055.5" font-family="Helvetica,sans-Serif" font-size="10.00">Node &amp;other) const</text>
<text text-anchor="start" x="248.5" y="-1040.5" font-family="Helvetica,sans-Serif" font-size="10.00">+</text>
<text text-anchor="start" x="261.5" y="-1040.5" font-family="Helvetica,sans-Serif" font-size="10.00">bool equals(const Symbolic</text>
<text text-anchor="start" x="261.5" y="-1029.5" font-family="Helvetica,sans-Serif" font-size="10.00">Node &amp;other) const</text>
<text text-anchor="start" x="248.5" y="-1014.5" font-family="Helvetica,sans-Serif" font-size="10.00">+</text>
<text text-anchor="start" x="261.5" y="-1014.5" font-family="Helvetica,sans-Serif" font-size="10.00">std::size_t hash()</text>
<text text-anchor="start" x="261.5" y="-1003.5" font-family="Helvetica,sans-Serif" font-size="10.00"> const</text>
<text text-anchor="start" x="248.5" y="-988.5" font-family="Helvetica,sans-Serif" font-size="10.00">+</text>
<text text-anchor="start" x="261.5" y="-988.5" font-family="Helvetica,sans-Serif" font-size="10.00">virtual bool is_number</text>
<text text-anchor="start" x="261.5" y="-977.5" font-family="Helvetica,sans-Serif" font-size="10.00">() const</text>
<text text-anchor="start" x="248.5" y="-962.5" font-family="Helvetica,sans-Serif" font-size="10.00">+</text>
<text text-anchor="start" x="261.5" y="-962.5" font-family="Helvetica,sans-Serif" font-size="10.00">virtual bool is_one</text>
<text text-anchor="start" x="261.5" y="-951.5" font-family="Helvetica,sans-Serif" font-size="10.00">() const</text>
<text text-anchor="start" x="248.5" y="-936.5" font-family="Helvetica,sans-Serif" font-size="10.00">+</text>
<text text-anchor="start" x="261.5" y="-936.5" font-family="Helvetica,sans-Serif" font-size="10.00">virtual bool is_positive</text>
<text text-anchor="start" x="261.5" y="-925.5" font-family="Helvetica,sans-Serif" font-size="10.00">() const</text>
<text text-anchor="start" x="248.5" y="-910.5" font-family="Helvetica,sans-Serif" font-size="10.00">+</text>
<text text-anchor="start" x="261.5" y="-910.5" font-family="Helvetica,sans-Serif" font-size="10.00">virtual bool is_zero</text>
<text text-anchor="start" x="261.5" y="-899.5" font-family="Helvetica,sans-Serif" font-size="10.00">() const</text>
<text text-anchor="start" x="248.5" y="-884.5" font-family="Helvetica,sans-Serif" font-size="10.00">+</text>
<text text-anchor="start" x="261.5" y="-884.5" font-family="Helvetica,sans-Serif" font-size="10.00">virtual int type_priority</text>
<text text-anchor="start" x="261.5" y="-873.5" font-family="Helvetica,sans-Serif" font-size="10.00">() const =0</text>
<text text-anchor="start" x="248.5" y="-858.5" font-family="Helvetica,sans-Serif" font-size="10.00">#</text>
<text text-anchor="start" x="261.5" y="-858.5" font-family="Helvetica,sans-Serif" font-size="10.00">SymbolicNode()=default</text>
<text text-anchor="start" x="248.5" y="-843.5" font-family="Helvetica,sans-Serif" font-size="10.00">#</text>
<text text-anchor="start" x="261.5" y="-843.5" font-family="Helvetica,sans-Serif" font-size="10.00">SymbolicNode(const</text>
<text text-anchor="start" x="261.5" y="-832.5" font-family="Helvetica,sans-Serif" font-size="10.00"> SymbolicNode &amp;)</text>
<text text-anchor="start" x="248.5" y="-817.5" font-family="Helvetica,sans-Serif" font-size="10.00">#</text>
<text text-anchor="start" x="261.5" y="-817.5" font-family="Helvetica,sans-Serif" font-size="10.00">virtual int compare</text>
<text text-anchor="start" x="261.5" y="-806.5" font-family="Helvetica,sans-Serif" font-size="10.00">_same_type(const SymbolicNode</text>
<text text-anchor="start" x="261.5" y="-795.5" font-family="Helvetica,sans-Serif" font-size="10.00"> &amp;other) const =0</text>
<text text-anchor="start" x="248.5" y="-780.5" font-family="Helvetica,sans-Serif" font-size="10.00">#</text>
<text text-anchor="start" x="261.5" y="-780.5" font-family="Helvetica,sans-Serif" font-size="10.00">virtual std::size_t</text>
<text text-anchor="start" x="261.5" y="-769.5" font-family="Helvetica,sans-Serif" font-size="10.00"> compute_hash() const =0</text>
<text text-anchor="start" x="248.5" y="-754.5" font-family="Helvetica,sans-Serif" font-size="10.00">#</text>
<text text-anchor="start" x="261.5" y="-754.5" font-family="Helvetica,sans-Serif" font-size="10.00">SymbolicNode &amp; operator</text>
<text text-anchor="start" x="261.5" y="-743.5" font-family="Helvetica,sans-Serif" font-size="10.00">=(const SymbolicNode &amp;)</text>
<polygon fill="#666666" stroke="#666666" points="244.5,-1180.5 244.5,-1180.5 428.5,-1180.5 428.5,-1180.5 244.5,-1180.5"/>
<polygon fill="#666666" stroke="#666666" points="244.5,-1165.5 244.5,-1165.5 428.5,-1165.5 428.5,-1165.5 244.5,-1165.5"/>
<polygon fill="none" stroke="#666666" points="244.5,-737 244.5,-1198 428.5,-1198 428.5,-737 244.5,-737"/>
</a>
</g>
</g>
<!-- Node7&#45;&gt;Node6 -->
<g id="edge6_Node000006_Node000007" class="edge">
<title>Node7&#45;&gt;Node6</title>
<g id="a_edge6_Node000006_Node000007"><a xlink:title=" ">
<path fill="none" stroke="#63b8ff" d="M336.5,-736.74C336.5,-674.22 336.5,-613.15 336.5,-574.44"/>
<polygon fill="none" stroke="#63b8ff" points="336.5,-574.2 332.5,-568.2 336.5,-562.2 340.5,-568.2 336.5,-574.2"/>
</a>
</g>
<text text-anchor="middle" x="349" y="-705.5" font-family="Helvetica,sans-Serif" font-size="10.00" fill="grey"> +ptr</text>
</g>
<!-- Node8 -->
<g id="Node000008" class="node">
<title>Node8</title>
<g id="a_Node000008"><a xlink:title=" ">
<polygon fill="white" stroke="transparent" points="268,-1294 131,-1294 131,-1245 268,-1245 268,-1294"/>
<text text-anchor="start" x="136.5" y="-1281.5" font-family="Helvetica,sans-Serif" font-size="10.00">std::atomic&lt; std::size_t &gt;</text>
<text text-anchor="start" x="198" y="-1266.5" font-family="Helvetica,sans-Serif" font-size="10.00"> </text>
<text text-anchor="start" x="198" y="-1251.5" font-family="Helvetica,sans-Serif" font-size="10.00"> </text>
<polygon fill="#666666" stroke="#666666" points="131.5,-1276.5 131.5,-1276.5 268.5,-1276.5 268.5,-1276.5 131.5,-1276.5"/>
<polygon fill="#666666" stroke="#666666" points="131.5,-1261.5 131.5,-1261.5 268.5,-1261.5 268.5,-1261.5 131.5,-1261.5"/>
<polygon fill="none" stroke="#666666" points="131,-1245 131,-1294 268,-1294 268,-1245 131,-1245"/>
</a>
</g>
</g>
<!-- Node8&#45;&gt;Node7 -->
<g id="edge7_Node000007_Node000008" class="edge">
<title>Node8&#45;&gt;Node7</title>
<g id="a_edge7_Node000007_Node000008"><a xlink:title=" ">
<path fill="none" stroke="#63b8ff" d="M212.01,-1244.85C219.09,-1231.24 228.01,-1213.77 235.5,-1198 236.74,-1195.39 237.99,-1192.76 239.23,-1190.11"/>
<polygon fill="none" stroke="#63b8ff" points="239.28,-1190 238.2,-1182.87 244.37,-1179.14 245.45,-1186.27 239.28,-1190"/>
</a>
</g>
<text text-anchor="middle" x="264" y="-1219" font-family="Helvetica,sans-Serif" font-size="10.00" fill="grey"> #cached_hash</text>
</g>
<!-- Node9 -->
<g id="Node000009" class="node">
<title>Node9</title>
<g id="a_Node000009"><a xlink:title=" ">
<polygon fill="white" stroke="transparent" points="173,-1428 134,-1428 134,-1379 173,-1379 173,-1428"/>
<text text-anchor="start" x="139.5" y="-1415.5" font-family="Helvetica,sans-Serif" font-size="10.00">size_t</text>
<text text-anchor="start" x="152" y="-1400.5" font-family="Helvetica,sans-Serif" font-size="10.00"> </text>
<text text-anchor="start" x="152" y="-1385.5" font-family="Helvetica,sans-Serif" font-size="10.00"> </text>
<polygon fill="#666666" stroke="#666666" points="134.5,-1410.5 134.5,-1410.5 173.5,-1410.5 173.5,-1410.5 134.5,-1410.5"/>
<polygon fill="#666666" stroke="#666666" points="134.5,-1395.5 134.5,-1395.5 173.5,-1395.5 173.5,-1395.5 134.5,-1395.5"/>
<polygon fill="none" stroke="#666666" points="134,-1379 134,-1428 173,-1428 173,-1379 134,-1379"/>
</a>
</g>
</g>
<!-- Node9&#45;&gt;Node8 -->
<g id="edge8_Node000008_Node000009" class="edge">
<title>Node9&#45;&gt;Node8</title>
<g id="a_edge8_Node000008_Node000009"><a xlink:title=" ">
<path fill="none" stroke="#63b8ff" d="M148.78,-1378.73C146.18,-1359.81 145.11,-1333.1 154.5,-1312 155.83,-1309.01 157.49,-1306.13 159.39,-1303.4"/>
<polygon fill="none" stroke="#63b8ff" points="159.44,-1303.33 160.18,-1296.16 167.09,-1294.09 166.35,-1301.26 159.44,-1303.33"/>
</a>
</g>
<text text-anchor="middle" x="167" y="-1334" font-family="Helvetica,sans-Serif" font-size="10.00" fill="grey"> +ptr</text>
</g>
<!-- Node10 -->
<g id="Node000010" class="node">
<title>Node10</title>
<g id="a_Node000010"><a xlink:title=" ">
<polygon fill="white" stroke="transparent" points="336.5,-1428 242.5,-1428 242.5,-1379 336.5,-1379 336.5,-1428"/>
<text text-anchor="start" x="247.5" y="-1415.5" font-family="Helvetica,sans-Serif" font-size="10.00">std::atomic&lt; T &gt;</text>
<text text-anchor="start" x="287.5" y="-1400.5" font-family="Helvetica,sans-Serif" font-size="10.00"> </text>
<text text-anchor="start" x="287.5" y="-1385.5" font-family="Helvetica,sans-Serif" font-size="10.00"> </text>
<polygon fill="#666666" stroke="#666666" points="242.5,-1410.5 242.5,-1410.5 336.5,-1410.5 336.5,-1410.5 242.5,-1410.5"/>
<polygon fill="#666666" stroke="#666666" points="242.5,-1395.5 242.5,-1395.5 336.5,-1395.5 336.5,-1395.5 242.5,-1395.5"/>
<polygon fill="none" stroke="#666666" points="242.5,-1379 242.5,-1428 336.5,-1428 336.5,-1379 242.5,-1379"/>
</a>
</g>
</g>
<!-- Node10&#45;&gt;Node8 -->
<g id="edge9_Node000008_Node000010" class="edge">
<title>Node10&#45;&gt;Node8</title>
<g id="a_edge9_Node000008_Node000010"><a xlink:title=" ">
<path fill="none" stroke="orange" d="M233.4,-1383.19C223.72,-1377.47 214.77,-1370.2 208.5,-1361 195.16,-1341.43 194.36,-1313.72 195.99,-1294.13"/>
<polygon fill="orange" stroke="orange" points="231.97,-1386.4 242.44,-1388.02 235.27,-1380.22 231.97,-1386.4"/>
</a>
</g>
<text text-anchor="middle" x="246.5" y="-1334" font-family="Helvetica,sans-Serif" font-size="10.00" fill="grey"> &lt; std::size_t &gt;</text>
</g>
<!-- Node12 -->
<g id="Node000012" class="node">
<title>Node12</title>
<g id="a_Node000012"><a xlink:title=" ">
<polygon fill="white" stroke="transparent" points="395,-1294 286,-1294 286,-1245 395,-1245 395,-1294"/>
<text text-anchor="start" x="291.5" y="-1281.5" font-family="Helvetica,sans-Serif" font-size="10.00">std::atomic&lt; bool &gt;</text>
<text text-anchor="start" x="339" y="-1266.5" font-family="Helvetica,sans-Serif" font-size="10.00"> </text>
<text text-anchor="start" x="339" y="-1251.5" font-family="Helvetica,sans-Serif" font-size="10.00"> </text>
<polygon fill="#666666" stroke="#666666" points="286.5,-1276.5 286.5,-1276.5 395.5,-1276.5 395.5,-1276.5 286.5,-1276.5"/>
<polygon fill="#666666" stroke="#666666" points="286.5,-1261.5 286.5,-1261.5 395.5,-1261.5 395.5,-1261.5 286.5,-1261.5"/>
<polygon fill="none" stroke="#666666" points="286,-1245 286,-1294 395,-1294 395,-1245 286,-1245"/>
</a>
</g>
</g>
<!-- Node10&#45;&gt;Node12 -->
<g id="edge13_Node000012_Node000010" class="edge">
<title>Node10&#45;&gt;Node12</title>
<g id="a_edge13_Node000012_Node000010"><a xlink:title=" ">
<path fill="none" stroke="orange" d="M287.5,-1368.25C287.78,-1350.66 290.22,-1329.35 298.5,-1312 301.59,-1305.52 306.13,-1299.49 311.1,-1294.13"/>
<polygon fill="orange" stroke="orange" points="284,-1368.67 287.57,-1378.64 291,-1368.62 284,-1368.67"/>
</a>
</g>
<text text-anchor="middle" x="322" y="-1334" font-family="Helvetica,sans-Serif" font-size="10.00" fill="grey"> &lt; bool &gt;</text>
</g>
<!-- Node11 -->
<g id="Node000011" class="node">
<title>Node11</title>
<g id="a_Node000011"><a xlink:title=" ">
<polygon fill="white" stroke="transparent" points="382,-1524 365,-1524 365,-1475 382,-1475 382,-1524"/>
<text text-anchor="start" x="370.5" y="-1511.5" font-family="Helvetica,sans-Serif" font-size="10.00">T</text>
<text text-anchor="start" x="372" y="-1496.5" font-family="Helvetica,sans-Serif" font-size="10.00"> </text>
<text text-anchor="start" x="372" y="-1481.5" font-family="Helvetica,sans-Serif" font-size="10.00"> </text>
<polygon fill="#666666" stroke="#666666" points="365.5,-1506.5 365.5,-1506.5 382.5,-1506.5 382.5,-1506.5 365.5,-1506.5"/>
<polygon fill="#666666" stroke="#666666" points="365.5,-1491.5 365.5,-1491.5 382.5,-1491.5 382.5,-1491.5 365.5,-1491.5"/>
<polygon fill="none" stroke="#666666" points="365,-1475 365,-1524 382,-1524 382,-1475 365,-1475"/>
</a>
</g>
</g>
<!-- Node11&#45;&gt;Node10 -->
<g id="edge10_Node000010_Node000011" class="edge">
<title>Node11&#45;&gt;Node10</title>
<g id="a_edge10_Node000010_Node000011"><a xlink:title=" ">
<path fill="none" stroke="#63b8ff" d="M364.83,-1488.79C354.05,-1476.73 335.09,-1455.52 318.89,-1437.39"/>
<polygon fill="none" stroke="#63b8ff" points="318.73,-1437.21 311.75,-1435.4 310.73,-1428.26 317.71,-1430.07 318.73,-1437.21"/>
</a>
</g>
<text text-anchor="middle" x="347" y="-1449" font-family="Helvetica,sans-Serif" font-size="10.00" fill="grey"> +ptr</text>
</g>
<!-- Node14 -->
<g id="Node000014" class="node">
<title>Node14</title>
<g id="a_Node000014"><a xlink:title=" ">
<polygon fill="white" stroke="transparent" points="512.5,-1361 400.5,-1361 400.5,-1312 512.5,-1312 512.5,-1361"/>
<text text-anchor="start" x="405.5" y="-1348.5" font-family="Helvetica,sans-Serif" font-size="10.00">std::shared_ptr&lt; T &gt;</text>
<text text-anchor="start" x="454.5" y="-1333.5" font-family="Helvetica,sans-Serif" font-size="10.00"> </text>
<text text-anchor="start" x="407.5" y="-1318.5" font-family="Helvetica,sans-Serif" font-size="10.00">+</text>
<text text-anchor="start" x="423.5" y="-1318.5" font-family="Helvetica,sans-Serif" font-size="10.00">T * operator&#45;&gt;()</text>
<polygon fill="#666666" stroke="#666666" points="400.5,-1343.5 400.5,-1343.5 512.5,-1343.5 512.5,-1343.5 400.5,-1343.5"/>
<polygon fill="#666666" stroke="#666666" points="400.5,-1328.5 400.5,-1328.5 512.5,-1328.5 512.5,-1328.5 400.5,-1328.5"/>
<polygon fill="none" stroke="#666666" points="400.5,-1312 400.5,-1361 512.5,-1361 512.5,-1312 400.5,-1312"/>
</a>
</g>
</g>
<!-- Node11&#45;&gt;Node14 -->
<g id="edge15_Node000014_Node000011" class="edge">
<title>Node11&#45;&gt;Node14</title>
<g id="a_edge15_Node000014_Node000011"><a xlink:title=" ">
<path fill="none" stroke="#63b8ff" d="M382.07,-1481.88C395.39,-1456.04 421.35,-1405.68 438.81,-1371.82"/>
<polygon fill="none" stroke="#63b8ff" points="438.88,-1371.69 438.07,-1364.52 444.37,-1361.02 445.18,-1368.19 438.88,-1371.69"/>
</a>
</g>
<text text-anchor="middle" x="411" y="-1449" font-family="Helvetica,sans-Serif" font-size="10.00" fill="grey"> +ptr</text>
</g>
<!-- Node12&#45;&gt;Node7 -->
<g id="edge11_Node000007_Node000012" class="edge">
<title>Node12&#45;&gt;Node7</title>
<g id="a_edge11_Node000007_Node000012"><a xlink:title=" ">
<path fill="none" stroke="#63b8ff" d="M340.19,-1244.96C340.06,-1235.56 339.9,-1223.77 339.73,-1210.4"/>
<polygon fill="none" stroke="#63b8ff" points="339.72,-1210.26 335.64,-1204.31 339.56,-1198.26 343.64,-1204.2 339.72,-1210.26"/>
</a>
</g>
<text text-anchor="middle" x="384" y="-1219" font-family="Helvetica,sans-Serif" font-size="10.00" fill="grey"> #hash_computed</text>
</g>
<!-- Node13 -->
<g id="Node000013" class="node">
<title>Node13</title>
<g id="a_Node000013"><a xlink:title=" ">
<polygon fill="white" stroke="transparent" points="386.5,-1428 354.5,-1428 354.5,-1379 386.5,-1379 386.5,-1428"/>
<text text-anchor="start" x="359.5" y="-1415.5" font-family="Helvetica,sans-Serif" font-size="10.00">bool</text>
<text text-anchor="start" x="368.5" y="-1400.5" font-family="Helvetica,sans-Serif" font-size="10.00"> </text>
<text text-anchor="start" x="368.5" y="-1385.5" font-family="Helvetica,sans-Serif" font-size="10.00"> </text>
<polygon fill="#666666" stroke="#666666" points="354.5,-1410.5 354.5,-1410.5 386.5,-1410.5 386.5,-1410.5 354.5,-1410.5"/>
<polygon fill="#666666" stroke="#666666" points="354.5,-1395.5 354.5,-1395.5 386.5,-1395.5 386.5,-1395.5 354.5,-1395.5"/>
<polygon fill="none" stroke="#666666" points="354.5,-1379 354.5,-1428 386.5,-1428 386.5,-1379 354.5,-1379"/>
</a>
</g>
</g>
<!-- Node13&#45;&gt;Node12 -->
<g id="edge12_Node000012_Node000013" class="edge">
<title>Node13&#45;&gt;Node12</title>
<g id="a_edge12_Node000012_Node000013"><a xlink:title=" ">
<path fill="none" stroke="#63b8ff" d="M365.14,-1378.9C360.54,-1358.66 353.84,-1329.19 348.59,-1306.09"/>
<polygon fill="none" stroke="#63b8ff" points="348.58,-1306.04 343.35,-1301.08 345.92,-1294.34 351.15,-1299.3 348.58,-1306.04"/>
</a>
</g>
<text text-anchor="middle" x="373" y="-1334" font-family="Helvetica,sans-Serif" font-size="10.00" fill="grey"> +ptr</text>
</g>
<!-- Node14&#45;&gt;Node6 -->
<g id="edge14_Node000006_Node000014" class="edge">
<title>Node14&#45;&gt;Node6</title>
<g id="a_edge14_Node000006_Node000014"><a xlink:title=" ">
<path fill="none" stroke="orange" d="M460.36,-1301.77C469.86,-1209.57 489.98,-946.27 437.5,-737 420.82,-670.49 380.36,-600.43 356.01,-562.18"/>
<polygon fill="orange" stroke="orange" points="456.86,-1301.59 459.28,-1311.9 463.82,-1302.33 456.86,-1301.59"/>
</a>
</g>
<text text-anchor="middle" x="515" y="-1219" font-family="Helvetica,sans-Serif" font-size="10.00" fill="grey"> &lt; SymbolicNode &gt;</text>
</g>
</g>
</svg>
