<?xml version="1.0" encoding="UTF-8" standalone="no"?>
<!DOCTYPE svg PUBLIC "-//W3C//DTD SVG 1.1//EN"
 "http://www.w3.org/Graphics/SVG/1.1/DTD/svg11.dtd">
<!-- Generated by graphviz version 2.43.0 (0)
 -->
<!-- Title: lamina::Integrator::resolve_cycle Pages: 1 -->
<svg width="633pt" height="205pt"
 viewBox="0.00 0.00 633.00 204.50" xmlns="http://www.w3.org/2000/svg" xmlns:xlink="http://www.w3.org/1999/xlink">
<g id="graph0" class="graph" transform="scale(1 1) rotate(0) translate(4 200.5)">
<title>lamina::Integrator::resolve_cycle</title>
<!-- Node1 -->
<g id="Node000001" class="node">
<title>Node1</title>
<g id="a_Node000001"><a xlink:title=" ">
<polygon fill="#999999" stroke="#666666" points="104,-136 0,-136 0,-106 104,-106 104,-136"/>
<text text-anchor="start" x="8" y="-124" font-family="Helvetica,sans-Serif" font-size="10.00">lamina::Integrator</text>
<text text-anchor="middle" x="52" y="-113" font-family="Helvetica,sans-Serif" font-size="10.00">::resolve_cycle</text>
</a>
</g>
</g>
<!-- Node2 -->
<g id="Node000002" class="node">
<title>Node2</title>
<g id="a_Node000002"><a xlink:href="../../dc/d25/classSymbolicExpr.html#aea4c251b3fd9994c77fb8b26dae96d5f" target="_top" xlink:title="执行符号除法。">
<polygon fill="white" stroke="#666666" points="272,-111.5 153,-111.5 153,-92.5 272,-92.5 272,-111.5"/>
<text text-anchor="middle" x="212.5" y="-99.5" font-family="Helvetica,sans-Serif" font-size="10.00">SymbolicExpr::divide</text>
</a>
</g>
</g>
<!-- Node1&#45;&gt;Node2 -->
<g id="edge1_Node000001_Node000002" class="edge">
<title>Node1&#45;&gt;Node2</title>
<g id="a_edge1_Node000001_Node000002"><a xlink:title=" ">
<path fill="none" stroke="#63b8ff" d="M104.02,-114.88C116.31,-113.41 129.63,-111.81 142.58,-110.26"/>
<polygon fill="#63b8ff" stroke="#63b8ff" points="143.34,-113.7 152.85,-109.03 142.51,-106.75 143.34,-113.7"/>
</a>
</g>
</g>
<!-- Node4 -->
<g id="Node000004" class="node">
<title>Node4</title>
<g id="a_Node000004"><a xlink:href="../../dc/d25/classSymbolicExpr.html#adeb760bb6f4f28879108394537eca293" target="_top" xlink:title="创建整数数值表达式。">
<polygon fill="white" stroke="#666666" points="459,-159.5 332,-159.5 332,-140.5 459,-140.5 459,-159.5"/>
<text text-anchor="middle" x="395.5" y="-147.5" font-family="Helvetica,sans-Serif" font-size="10.00">SymbolicExpr::number</text>
</a>
</g>
</g>
<!-- Node1&#45;&gt;Node4 -->
<g id="edge5_Node000001_Node000004" class="edge">
<title>Node1&#45;&gt;Node4</title>
<g id="a_edge5_Node000001_Node000004"><a xlink:title=" ">
<path fill="none" stroke="#63b8ff" d="M104.13,-125.34C161.88,-130.25 256.33,-138.27 321.75,-143.82"/>
<polygon fill="#63b8ff" stroke="#63b8ff" points="321.74,-147.33 332,-144.69 322.33,-140.36 321.74,-147.33"/>
</a>
</g>
</g>
<!-- Node6 -->
<g id="Node000006" class="node">
<title>Node6</title>
<g id="a_Node000006"><a xlink:href="../../d1/d42/namespacelamina.html#a581a2886a13064c468f1d1b5cd47b9cd" target="_top" xlink:title=" ">
<polygon fill="white" stroke="#666666" points="262.5,-187.5 162.5,-187.5 162.5,-168.5 262.5,-168.5 262.5,-187.5"/>
<text text-anchor="middle" x="212.5" y="-175.5" font-family="Helvetica,sans-Serif" font-size="10.00">lamina::sym_sub</text>
</a>
</g>
</g>
<!-- Node1&#45;&gt;Node6 -->
<g id="edge6_Node000001_Node000006" class="edge">
<title>Node1&#45;&gt;Node6</title>
<g id="a_edge6_Node000001_Node000006"><a xlink:title=" ">
<path fill="none" stroke="#63b8ff" d="M91.86,-136.11C106.85,-141.84 124.18,-148.35 140,-154 150.47,-157.74 161.85,-161.64 172.4,-165.18"/>
<polygon fill="#63b8ff" stroke="#63b8ff" points="171.6,-168.6 182.19,-168.45 173.81,-161.96 171.6,-168.6"/>
</a>
</g>
</g>
<!-- Node8 -->
<g id="Node000008" class="node">
<title>Node8</title>
<g id="a_Node000008"><a xlink:href="../../d1/d42/namespacelamina.html#ae1ead7a217c0cba5a6362056a695f9b9" target="_top" xlink:title=" ">
<polygon fill="white" stroke="#666666" points="285,-65.5 140,-65.5 140,-46.5 285,-46.5 285,-65.5"/>
<text text-anchor="middle" x="212.5" y="-53.5" font-family="Helvetica,sans-Serif" font-size="10.00">lamina::valid_dependency</text>
</a>
</g>
</g>
<!-- Node1&#45;&gt;Node8 -->
<g id="edge10_Node000001_Node000008" class="edge">
<title>Node1&#45;&gt;Node8</title>
<g id="a_edge10_Node000001_Node000008"><a xlink:title=" ">
<path fill="none" stroke="#63b8ff" d="M86.3,-105.98C102.43,-98.83 122.14,-90.27 140,-83 151.5,-78.32 164.15,-73.45 175.57,-69.16"/>
<polygon fill="#63b8ff" stroke="#63b8ff" points="177.08,-72.33 185.23,-65.56 174.63,-65.77 177.08,-72.33"/>
</a>
</g>
</g>
<!-- Node3 -->
<g id="Node000003" class="node">
<title>Node3</title>
<g id="a_Node000003"><a xlink:href="../../dc/d25/classSymbolicExpr.html#ad03189fc8a4db7762f7c1ca890674bbc" target="_top" xlink:title="创建乘法表达式。">
<polygon fill="white" stroke="#666666" points="460.5,-122.5 330.5,-122.5 330.5,-103.5 460.5,-103.5 460.5,-122.5"/>
<text text-anchor="middle" x="395.5" y="-110.5" font-family="Helvetica,sans-Serif" font-size="10.00">SymbolicExpr::multiply</text>
</a>
</g>
</g>
<!-- Node2&#45;&gt;Node3 -->
<g id="edge2_Node000002_Node000003" class="edge">
<title>Node2&#45;&gt;Node3</title>
<g id="a_edge2_Node000002_Node000003"><a xlink:title=" ">
<path fill="none" stroke="#63b8ff" d="M272.27,-105.57C287.51,-106.5 304.12,-107.51 320.05,-108.48"/>
<polygon fill="#63b8ff" stroke="#63b8ff" points="320.21,-111.99 330.4,-109.1 320.63,-105 320.21,-111.99"/>
</a>
</g>
</g>
<!-- Node2&#45;&gt;Node4 -->
<g id="edge3_Node000002_Node000004" class="edge">
<title>Node2&#45;&gt;Node4</title>
<g id="a_edge3_Node000002_Node000004"><a xlink:title=" ">
<path fill="none" stroke="#63b8ff" d="M246.84,-111.6C268.03,-117.63 296.07,-125.47 321,-132 328.6,-133.99 336.65,-136.03 344.54,-137.99"/>
<polygon fill="#63b8ff" stroke="#63b8ff" points="343.84,-141.42 354.39,-140.42 345.52,-134.63 343.84,-141.42"/>
</a>
</g>
</g>
<!-- Node5 -->
<g id="Node000005" class="node">
<title>Node5</title>
<g id="a_Node000005"><a xlink:href="../../dc/d25/classSymbolicExpr.html#ab03922681e30190ba7c73d2c1e58aa40" target="_top" xlink:title="创建幂运算表达式。">
<polygon fill="white" stroke="#666666" points="455,-85.5 336,-85.5 336,-66.5 455,-66.5 455,-85.5"/>
<text text-anchor="middle" x="395.5" y="-73.5" font-family="Helvetica,sans-Serif" font-size="10.00">SymbolicExpr::power</text>
</a>
</g>
</g>
<!-- Node2&#45;&gt;Node5 -->
<g id="edge4_Node000002_Node000005" class="edge">
<title>Node2&#45;&gt;Node5</title>
<g id="a_edge4_Node000002_Node000005"><a xlink:title=" ">
<path fill="none" stroke="#63b8ff" d="M272.27,-93.56C289.26,-91.12 307.97,-88.43 325.53,-85.91"/>
<polygon fill="#63b8ff" stroke="#63b8ff" points="326.32,-89.33 335.72,-84.44 325.32,-82.4 326.32,-89.33"/>
</a>
</g>
</g>
<!-- Node6&#45;&gt;Node3 -->
<g id="edge8_Node000006_Node000003" class="edge">
<title>Node6&#45;&gt;Node3</title>
<g id="a_edge8_Node000006_Node000003"><a xlink:title=" ">
<path fill="none" stroke="#63b8ff" d="M233.35,-168.43C254.66,-158.41 289.68,-142.68 321,-132 328.11,-129.57 335.7,-127.29 343.2,-125.2"/>
<polygon fill="#63b8ff" stroke="#63b8ff" points="344.22,-128.55 352.97,-122.57 342.4,-121.79 344.22,-128.55"/>
</a>
</g>
</g>
<!-- Node6&#45;&gt;Node4 -->
<g id="edge9_Node000006_Node000004" class="edge">
<title>Node6&#45;&gt;Node4</title>
<g id="a_edge9_Node000006_Node000004"><a xlink:title=" ">
<path fill="none" stroke="#63b8ff" d="M262.96,-170.35C281.4,-167.5 302.74,-164.2 322.78,-161.09"/>
<polygon fill="#63b8ff" stroke="#63b8ff" points="323.46,-164.53 332.81,-159.54 322.39,-157.61 323.46,-164.53"/>
</a>
</g>
</g>
<!-- Node7 -->
<g id="Node000007" class="node">
<title>Node7</title>
<g id="a_Node000007"><a xlink:href="../../dc/d25/classSymbolicExpr.html#ac8782568f037f8055277e5d8b80ec6d6" target="_top" xlink:title="创建加法表达式。">
<polygon fill="white" stroke="#666666" points="449,-196.5 342,-196.5 342,-177.5 449,-177.5 449,-196.5"/>
<text text-anchor="middle" x="395.5" y="-184.5" font-family="Helvetica,sans-Serif" font-size="10.00">SymbolicExpr::add</text>
</a>
</g>
</g>
<!-- Node6&#45;&gt;Node7 -->
<g id="edge7_Node000006_Node000007" class="edge">
<title>Node6&#45;&gt;Node7</title>
<g id="a_edge7_Node000006_Node000007"><a xlink:title=" ">
<path fill="none" stroke="#63b8ff" d="M262.96,-180.46C284.2,-181.52 309.26,-182.76 331.79,-183.88"/>
<polygon fill="#63b8ff" stroke="#63b8ff" points="331.77,-187.39 341.93,-184.39 332.12,-180.39 331.77,-187.39"/>
</a>
</g>
</g>
<!-- Node9 -->
<g id="Node000009" class="node">
<title>Node9</title>
<g id="a_Node000009"><a xlink:href="../../dc/d25/classSymbolicExpr.html#a12ea2bce8fc0fa5da98a0cfae9030c2f" target="_top" xlink:title="对表达式关于指定变量求导。">
<polygon fill="white" stroke="#666666" points="470,-48.5 321,-48.5 321,-29.5 470,-29.5 470,-48.5"/>
<text text-anchor="middle" x="395.5" y="-36.5" font-family="Helvetica,sans-Serif" font-size="10.00">SymbolicExpr::differentiate</text>
</a>
</g>
</g>
<!-- Node8&#45;&gt;Node9 -->
<g id="edge11_Node000008_Node000009" class="edge">
<title>Node8&#45;&gt;Node9</title>
<g id="a_edge11_Node000008_Node000009"><a xlink:title=" ">
<path fill="none" stroke="#63b8ff" d="M285.04,-49.28C293.49,-48.49 302.17,-47.67 310.77,-46.86"/>
<polygon fill="#63b8ff" stroke="#63b8ff" points="311.18,-50.34 320.81,-45.92 310.53,-43.37 311.18,-50.34"/>
</a>
</g>
</g>
<!-- Node10 -->
<g id="Node000010" class="node">
<title>Node10</title>
<g id="a_Node000010"><a xlink:href="../../d3/d1a/classDifferentiationVisitor.html#a069c6a379bd1b15007f02ed883114ab9" target="_top" xlink:title="获取求导结果">
<polygon fill="white" stroke="#666666" points="625,-78 506,-78 506,-48 625,-48 625,-78"/>
<text text-anchor="start" x="514" y="-66" font-family="Helvetica,sans-Serif" font-size="10.00">DifferentiationVisitor</text>
<text text-anchor="middle" x="565.5" y="-55" font-family="Helvetica,sans-Serif" font-size="10.00">::get_result</text>
</a>
</g>
</g>
<!-- Node9&#45;&gt;Node10 -->
<g id="edge12_Node000009_Node000010" class="edge">
<title>Node9&#45;&gt;Node10</title>
<g id="a_edge12_Node000009_Node000010"><a xlink:title=" ">
<path fill="none" stroke="#63b8ff" d="M463.38,-48.55C474.06,-50.08 485.12,-51.66 495.84,-53.19"/>
<polygon fill="#63b8ff" stroke="#63b8ff" points="495.6,-56.69 505.99,-54.64 496.59,-49.76 495.6,-56.69"/>
</a>
</g>
</g>
<!-- Node11 -->
<g id="Node000011" class="node">
<title>Node11</title>
<g id="a_Node000011"><a xlink:href="../../d3/da1/classNormalizationVisitor.html#abefa11f3ddef7d3918dec3102f6fbd40" target="_top" xlink:title="获取规范化结果">
<polygon fill="white" stroke="#666666" points="624,-30 507,-30 507,0 624,0 624,-30"/>
<text text-anchor="start" x="515" y="-18" font-family="Helvetica,sans-Serif" font-size="10.00">NormalizationVisitor</text>
<text text-anchor="middle" x="565.5" y="-7" font-family="Helvetica,sans-Serif" font-size="10.00">::get_result</text>
</a>
</g>
</g>
<!-- Node9&#45;&gt;Node11 -->
<g id="edge13_Node000009_Node000011" class="edge">
<title>Node9&#45;&gt;Node11</title>
<g id="a_edge13_Node000009_Node000011"><a xlink:title=" ">
<path fill="none" stroke="#63b8ff" d="M463.38,-29.45C474.38,-27.87 485.79,-26.24 496.81,-24.67"/>
<polygon fill="#63b8ff" stroke="#63b8ff" points="497.39,-28.12 506.79,-23.24 496.4,-21.19 497.39,-28.12"/>
</a>
</g>
</g>
</g>
</svg>
