<?xml version="1.0" encoding="UTF-8" standalone="no"?>
<!DOCTYPE svg PUBLIC "-//W3C//DTD SVG 1.1//EN"
 "http://www.w3.org/Graphics/SVG/1.1/DTD/svg11.dtd">
<!-- Generated by graphviz version 2.43.0 (0)
 -->
<!-- Title: lamina::Integrator::integrate Pages: 1 -->
<svg width="962pt" height="453pt"
 viewBox="0.00 0.00 962.00 452.50" xmlns="http://www.w3.org/2000/svg" xmlns:xlink="http://www.w3.org/1999/xlink">
<g id="graph0" class="graph" transform="scale(1 1) rotate(0) translate(4 448.5)">
<title>lamina::Integrator::integrate</title>
<!-- Node1 -->
<g id="Node000001" class="node">
<title>Node1</title>
<g id="a_Node000001"><a xlink:title="计算不定积分">
<polygon fill="#999999" stroke="#666666" points="104,-412 0,-412 0,-382 104,-382 104,-412"/>
<text text-anchor="start" x="8" y="-400" font-family="Helvetica,sans-Serif" font-size="10.00">lamina::Integrator</text>
<text text-anchor="middle" x="52" y="-389" font-family="Helvetica,sans-Serif" font-size="10.00">::integrate</text>
</a>
</g>
</g>
<!-- Node2 -->
<g id="Node000002" class="node">
<title>Node2</title>
<g id="a_Node000002"><a xlink:href="../../d8/dbb/classlamina_1_1Integrator.html#a933c2400bb71a25a6f1e81c5cab0130b" target="_top" xlink:title=" ">
<polygon fill="white" stroke="#666666" points="415,-412 311,-412 311,-382 415,-382 415,-412"/>
<text text-anchor="start" x="319" y="-400" font-family="Helvetica,sans-Serif" font-size="10.00">lamina::Integrator</text>
<text text-anchor="middle" x="363" y="-389" font-family="Helvetica,sans-Serif" font-size="10.00">::apply_linearity</text>
</a>
</g>
</g>
<!-- Node1&#45;&gt;Node2 -->
<g id="edge1_Node000001_Node000002" class="edge">
<title>Node1&#45;&gt;Node2</title>
<g id="a_edge1_Node000001_Node000002"><a xlink:title=" ">
<path fill="none" stroke="#63b8ff" d="M104.03,-391.83C158.03,-389.84 243.27,-389.73 300.84,-391.49"/>
<polygon fill="#63b8ff" stroke="#63b8ff" points="300.79,-394.99 310.9,-391.83 301.02,-388 300.79,-394.99"/>
</a>
</g>
</g>
<!-- Node10 -->
<g id="Node000010" class="node">
<title>Node10</title>
<g id="a_Node000010"><a xlink:href="../../d8/dbb/classlamina_1_1Integrator.html#af8e2012a43068412619b9afa2a5188c7" target="_top" xlink:title="递归积分入口">
<polygon fill="white" stroke="#666666" points="257,-219 140,-219 140,-189 257,-189 257,-219"/>
<text text-anchor="start" x="148" y="-207" font-family="Helvetica,sans-Serif" font-size="10.00">lamina::Integrator</text>
<text text-anchor="middle" x="198.5" y="-196" font-family="Helvetica,sans-Serif" font-size="10.00">::integrate_recursive</text>
</a>
</g>
</g>
<!-- Node1&#45;&gt;Node10 -->
<g id="edge11_Node000001_Node000010" class="edge">
<title>Node1&#45;&gt;Node10</title>
<g id="a_edge11_Node000001_Node000010"><a xlink:title=" ">
<path fill="none" stroke="#63b8ff" d="M64.34,-381.86C89.5,-348.24 150.16,-267.23 180.14,-227.19"/>
<polygon fill="#63b8ff" stroke="#63b8ff" points="183.02,-229.18 186.21,-219.07 177.42,-224.98 183.02,-229.18"/>
</a>
</g>
</g>
<!-- Node2&#45;&gt;Node1 -->
<g id="edge2_Node000002_Node000001" class="edge">
<title>Node2&#45;&gt;Node1</title>
<g id="a_edge2_Node000002_Node000001"><a xlink:title=" ">
<path fill="none" stroke="#63b8ff" d="M310.9,-402.17C256.86,-404.16 171.63,-404.27 114.08,-402.5"/>
<polygon fill="#63b8ff" stroke="#63b8ff" points="114.14,-399 104.03,-402.17 113.9,-406 114.14,-399"/>
</a>
</g>
</g>
<!-- Node3 -->
<g id="Node000003" class="node">
<title>Node3</title>
<g id="a_Node000003"><a xlink:href="../../dc/d25/classSymbolicExpr.html#ad03189fc8a4db7762f7c1ca890674bbc" target="_top" xlink:title="创建乘法表达式。">
<polygon fill="white" stroke="#666666" points="789.5,-210.5 659.5,-210.5 659.5,-191.5 789.5,-191.5 789.5,-210.5"/>
<text text-anchor="middle" x="724.5" y="-198.5" font-family="Helvetica,sans-Serif" font-size="10.00">SymbolicExpr::multiply</text>
</a>
</g>
</g>
<!-- Node2&#45;&gt;Node3 -->
<g id="edge3_Node000002_Node000003" class="edge">
<title>Node2&#45;&gt;Node3</title>
<g id="a_edge3_Node000002_Node000003"><a xlink:title=" ">
<path fill="none" stroke="#63b8ff" d="M415.19,-383.24C421.5,-380.4 427.61,-377.02 433,-373 454.95,-356.63 446.47,-338.57 469,-323 523.9,-285.06 561.3,-324.95 614,-284 639.77,-263.98 624.13,-239.9 650,-220 652.35,-218.19 654.86,-216.55 657.47,-215.07"/>
<polygon fill="#63b8ff" stroke="#63b8ff" points="659.23,-218.11 666.71,-210.61 656.19,-211.81 659.23,-218.11"/>
</a>
</g>
</g>
<!-- Node4 -->
<g id="Node000004" class="node">
<title>Node4</title>
<g id="a_Node000004"><a xlink:href="../../dc/d25/classSymbolicExpr.html#adeb760bb6f4f28879108394537eca293" target="_top" xlink:title="创建整数数值表达式。">
<polygon fill="white" stroke="#666666" points="788,-387.5 661,-387.5 661,-368.5 788,-368.5 788,-387.5"/>
<text text-anchor="middle" x="724.5" y="-375.5" font-family="Helvetica,sans-Serif" font-size="10.00">SymbolicExpr::number</text>
</a>
</g>
</g>
<!-- Node2&#45;&gt;Node4 -->
<g id="edge4_Node000002_Node000004" class="edge">
<title>Node2&#45;&gt;Node4</title>
<g id="a_edge4_Node000002_Node000004"><a xlink:title=" ">
<path fill="none" stroke="#63b8ff" d="M415.31,-397.98C465.91,-398.52 545.4,-398.23 614,-393 626.88,-392.02 640.56,-390.51 653.73,-388.83"/>
<polygon fill="#63b8ff" stroke="#63b8ff" points="654.23,-392.3 663.68,-387.52 653.31,-385.36 654.23,-392.3"/>
</a>
</g>
</g>
<!-- Node5 -->
<g id="Node000005" class="node">
<title>Node5</title>
<g id="a_Node000005"><a xlink:href="../../dc/d25/classSymbolicExpr.html#acc2ea5b99b699087717f3ac42433e4b8" target="_top" xlink:title="对表达式进行化简。">
<polygon fill="white" stroke="#666666" points="788.5,-444.5 660.5,-444.5 660.5,-425.5 788.5,-425.5 788.5,-444.5"/>
<text text-anchor="middle" x="724.5" y="-432.5" font-family="Helvetica,sans-Serif" font-size="10.00">SymbolicExpr::simplify</text>
</a>
</g>
</g>
<!-- Node2&#45;&gt;Node5 -->
<g id="edge5_Node000002_Node000005" class="edge">
<title>Node2&#45;&gt;Node5</title>
<g id="a_edge5_Node000002_Node000005"><a xlink:title=" ">
<path fill="none" stroke="#63b8ff" d="M415.26,-402.98C432.34,-404.94 451.49,-407.1 469,-409 530.04,-415.61 599.36,-422.66 650.22,-427.75"/>
<polygon fill="#63b8ff" stroke="#63b8ff" points="650.17,-431.26 660.46,-428.77 650.86,-424.29 650.17,-431.26"/>
</a>
</g>
</g>
<!-- Node7 -->
<g id="Node000007" class="node">
<title>Node7</title>
<g id="a_Node000007"><a xlink:href="../../d1/d42/namespacelamina.html#ae1ead7a217c0cba5a6362056a695f9b9" target="_top" xlink:title=" ">
<polygon fill="white" stroke="#666666" points="614,-274.5 469,-274.5 469,-255.5 614,-255.5 614,-274.5"/>
<text text-anchor="middle" x="541.5" y="-262.5" font-family="Helvetica,sans-Serif" font-size="10.00">lamina::valid_dependency</text>
</a>
</g>
</g>
<!-- Node2&#45;&gt;Node7 -->
<g id="edge7_Node000002_Node000007" class="edge">
<title>Node2&#45;&gt;Node7</title>
<g id="a_edge7_Node000002_Node000007"><a xlink:title=" ">
<path fill="none" stroke="#63b8ff" d="M415.03,-384.81C421.58,-381.72 427.8,-377.84 433,-373 462.71,-345.3 439.14,-316.53 469,-289 473.38,-284.96 478.46,-281.6 483.85,-278.81"/>
<polygon fill="#63b8ff" stroke="#63b8ff" points="485.48,-281.91 493.16,-274.61 482.6,-275.53 485.48,-281.91"/>
</a>
</g>
</g>
<!-- Node6 -->
<g id="Node000006" class="node">
<title>Node6</title>
<g id="a_Node000006"><a xlink:href="../../d3/da1/classNormalizationVisitor.html#abefa11f3ddef7d3918dec3102f6fbd40" target="_top" xlink:title="获取规范化结果">
<polygon fill="white" stroke="#666666" points="953,-399 836,-399 836,-369 953,-369 953,-399"/>
<text text-anchor="start" x="844" y="-387" font-family="Helvetica,sans-Serif" font-size="10.00">NormalizationVisitor</text>
<text text-anchor="middle" x="894.5" y="-376" font-family="Helvetica,sans-Serif" font-size="10.00">::get_result</text>
</a>
</g>
</g>
<!-- Node5&#45;&gt;Node6 -->
<g id="edge6_Node000005_Node000006" class="edge">
<title>Node5&#45;&gt;Node6</title>
<g id="a_edge6_Node000005_Node000006"><a xlink:title=" ">
<path fill="none" stroke="#63b8ff" d="M757.1,-425.41C778.76,-418.83 808.16,-409.91 834.12,-402.03"/>
<polygon fill="#63b8ff" stroke="#63b8ff" points="835.33,-405.32 843.88,-399.06 833.29,-398.62 835.33,-405.32"/>
</a>
</g>
</g>
<!-- Node8 -->
<g id="Node000008" class="node">
<title>Node8</title>
<g id="a_Node000008"><a xlink:href="../../dc/d25/classSymbolicExpr.html#a12ea2bce8fc0fa5da98a0cfae9030c2f" target="_top" xlink:title="对表达式关于指定变量求导。">
<polygon fill="white" stroke="#666666" points="799,-294.5 650,-294.5 650,-275.5 799,-275.5 799,-294.5"/>
<text text-anchor="middle" x="724.5" y="-282.5" font-family="Helvetica,sans-Serif" font-size="10.00">SymbolicExpr::differentiate</text>
</a>
</g>
</g>
<!-- Node7&#45;&gt;Node8 -->
<g id="edge8_Node000007_Node000008" class="edge">
<title>Node7&#45;&gt;Node8</title>
<g id="a_edge8_Node000007_Node000008"><a xlink:title=" ">
<path fill="none" stroke="#63b8ff" d="M614.04,-272.9C622.49,-273.84 631.17,-274.8 639.77,-275.75"/>
<polygon fill="#63b8ff" stroke="#63b8ff" points="639.49,-279.24 649.81,-276.86 640.26,-272.28 639.49,-279.24"/>
</a>
</g>
</g>
<!-- Node8&#45;&gt;Node6 -->
<g id="edge10_Node000008_Node000006" class="edge">
<title>Node8&#45;&gt;Node6</title>
<g id="a_edge10_Node000008_Node000006"><a xlink:title=" ">
<path fill="none" stroke="#63b8ff" d="M745.12,-294.5C760.08,-301.9 781.1,-312.63 799,-323 820.78,-335.62 844.59,-351 862.86,-363.16"/>
<polygon fill="#63b8ff" stroke="#63b8ff" points="861.09,-366.19 871.35,-368.84 864.98,-360.37 861.09,-366.19"/>
</a>
</g>
</g>
<!-- Node9 -->
<g id="Node000009" class="node">
<title>Node9</title>
<g id="a_Node000009"><a xlink:href="../../d3/d1a/classDifferentiationVisitor.html#a069c6a379bd1b15007f02ed883114ab9" target="_top" xlink:title="获取求导结果">
<polygon fill="white" stroke="#666666" points="954,-300 835,-300 835,-270 954,-270 954,-300"/>
<text text-anchor="start" x="843" y="-288" font-family="Helvetica,sans-Serif" font-size="10.00">DifferentiationVisitor</text>
<text text-anchor="middle" x="894.5" y="-277" font-family="Helvetica,sans-Serif" font-size="10.00">::get_result</text>
</a>
</g>
</g>
<!-- Node8&#45;&gt;Node9 -->
<g id="edge9_Node000008_Node000009" class="edge">
<title>Node8&#45;&gt;Node9</title>
<g id="a_edge9_Node000008_Node000009"><a xlink:title=" ">
<path fill="none" stroke="#63b8ff" d="M799.19,-285C807.65,-285 816.25,-285 824.65,-285"/>
<polygon fill="#63b8ff" stroke="#63b8ff" points="824.76,-288.5 834.76,-285 824.76,-281.5 824.76,-288.5"/>
</a>
</g>
</g>
<!-- Node10&#45;&gt;Node3 -->
<g id="edge26_Node000010_Node000003" class="edge">
<title>Node10&#45;&gt;Node3</title>
<g id="a_edge26_Node000010_Node000003"><a xlink:title=" ">
<path fill="none" stroke="#63b8ff" d="M206.37,-188.86C219.14,-162.81 249.26,-110.27 293,-89 421.31,-26.61 482.87,-29.79 614,-86 660.04,-105.73 695.88,-155.38 712.81,-182.54"/>
<polygon fill="#63b8ff" stroke="#63b8ff" points="710.02,-184.68 718.18,-191.44 716.01,-181.07 710.02,-184.68"/>
</a>
</g>
</g>
<!-- Node10&#45;&gt;Node7 -->
<g id="edge35_Node000010_Node000007" class="edge">
<title>Node10&#45;&gt;Node7</title>
<g id="a_edge35_Node000010_Node000007"><a xlink:title=" ">
<path fill="none" stroke="#63b8ff" d="M224.28,-219.18C242.56,-229.56 268.43,-242.55 293,-249 347.05,-263.18 409.9,-267.09 458.74,-267.51"/>
<polygon fill="#63b8ff" stroke="#63b8ff" points="458.93,-271.01 468.94,-267.55 458.95,-264.01 458.93,-271.01"/>
</a>
</g>
</g>
<!-- Node11 -->
<g id="Node000011" class="node">
<title>Node11</title>
<g id="a_Node000011"><a xlink:href="../../d8/dbb/classlamina_1_1Integrator.html#aa964c6f76a91b1a15966f67fab623474" target="_top" xlink:title=" ">
<polygon fill="white" stroke="#666666" points="415,-240 311,-240 311,-210 415,-210 415,-240"/>
<text text-anchor="start" x="319" y="-228" font-family="Helvetica,sans-Serif" font-size="10.00">lamina::Integrator</text>
<text text-anchor="middle" x="363" y="-217" font-family="Helvetica,sans-Serif" font-size="10.00">::check_cycle</text>
</a>
</g>
</g>
<!-- Node10&#45;&gt;Node11 -->
<g id="edge12_Node000010_Node000011" class="edge">
<title>Node10&#45;&gt;Node11</title>
<g id="a_edge12_Node000010_Node000011"><a xlink:title=" ">
<path fill="none" stroke="#63b8ff" d="M257.25,-211.46C271.34,-213.28 286.47,-215.24 300.72,-217.08"/>
<polygon fill="#63b8ff" stroke="#63b8ff" points="300.55,-220.59 310.92,-218.4 301.45,-213.65 300.55,-220.59"/>
</a>
</g>
</g>
<!-- Node14 -->
<g id="Node000014" class="node">
<title>Node14</title>
<g id="a_Node000014"><a xlink:href="../../d1/d42/namespacelamina.html#af9c7851c330c76a4cd18ae36e1713aae" target="_top" xlink:title=" ">
<polygon fill="white" stroke="#666666" points="606,-114.5 477,-114.5 477,-95.5 606,-95.5 606,-114.5"/>
<text text-anchor="middle" x="541.5" y="-102.5" font-family="Helvetica,sans-Serif" font-size="10.00">lamina::make_expr_ptr</text>
</a>
</g>
</g>
<!-- Node10&#45;&gt;Node14 -->
<g id="edge23_Node000010_Node000014" class="edge">
<title>Node10&#45;&gt;Node14</title>
<g id="a_edge23_Node000010_Node000014"><a xlink:title=" ">
<path fill="none" stroke="#63b8ff" d="M209.76,-188.93C225.07,-167.92 256.06,-130.64 293,-115 347.83,-91.78 415.75,-90.75 466.56,-94.7"/>
<polygon fill="#63b8ff" stroke="#63b8ff" points="466.55,-98.22 476.81,-95.59 467.15,-91.24 466.55,-98.22"/>
</a>
</g>
</g>
<!-- Node15 -->
<g id="Node000015" class="node">
<title>Node15</title>
<g id="a_Node000015"><a xlink:href="../../dc/d25/classSymbolicExpr.html#a1718e8c497b928507b31acb089cc64ff" target="_top" xlink:title="创建变量表达式。">
<polygon fill="white" stroke="#666666" points="606,-161.5 477,-161.5 477,-142.5 606,-142.5 606,-161.5"/>
<text text-anchor="middle" x="541.5" y="-149.5" font-family="Helvetica,sans-Serif" font-size="10.00">SymbolicExpr::variable</text>
</a>
</g>
</g>
<!-- Node10&#45;&gt;Node15 -->
<g id="edge36_Node000010_Node000015" class="edge">
<title>Node10&#45;&gt;Node15</title>
<g id="a_edge36_Node000010_Node000015"><a xlink:title=" ">
<path fill="none" stroke="#63b8ff" d="M257.35,-195.18C315.39,-186.33 404.98,-172.67 467.8,-163.09"/>
<polygon fill="#63b8ff" stroke="#63b8ff" points="468.67,-166.49 478.03,-161.53 467.62,-159.57 468.67,-166.49"/>
</a>
</g>
</g>
<!-- Node16 -->
<g id="Node000016" class="node">
<title>Node16</title>
<g id="a_Node000016"><a xlink:href="../../d8/dbb/classlamina_1_1Integrator.html#a71d322b0c8340b7935d6d5a121fea59f" target="_top" xlink:title=" ">
<polygon fill="white" stroke="#666666" points="422,-30 304,-30 304,0 422,0 422,-30"/>
<text text-anchor="start" x="312" y="-18" font-family="Helvetica,sans-Serif" font-size="10.00">lamina::Integrator</text>
<text text-anchor="middle" x="363" y="-7" font-family="Helvetica,sans-Serif" font-size="10.00">::dispatch_strategies</text>
</a>
</g>
</g>
<!-- Node10&#45;&gt;Node16 -->
<g id="edge21_Node000010_Node000016" class="edge">
<title>Node10&#45;&gt;Node16</title>
<g id="a_edge21_Node000010_Node000016"><a xlink:title=" ">
<path fill="none" stroke="#63b8ff" d="M204.69,-188.6C215.97,-157.28 245.59,-85.58 293,-44 296.87,-40.61 301.19,-37.57 305.74,-34.86"/>
<polygon fill="#63b8ff" stroke="#63b8ff" points="307.54,-37.86 314.69,-30.04 304.23,-31.7 307.54,-37.86"/>
</a>
</g>
</g>
<!-- Node17 -->
<g id="Node000017" class="node">
<title>Node17</title>
<g id="a_Node000017"><a xlink:href="../../dc/d25/classSymbolicExpr.html#abc98503493872cfc56a71bbf7137ca49" target="_top" xlink:title="判断表达式是否为数值节点。">
<polygon fill="white" stroke="#666666" points="433,-363.5 293,-363.5 293,-344.5 433,-344.5 433,-363.5"/>
<text text-anchor="middle" x="363" y="-351.5" font-family="Helvetica,sans-Serif" font-size="10.00">SymbolicExpr::is_number</text>
</a>
</g>
</g>
<!-- Node10&#45;&gt;Node17 -->
<g id="edge22_Node000010_Node000017" class="edge">
<title>Node10&#45;&gt;Node17</title>
<g id="a_edge22_Node000010_Node000017"><a xlink:title=" ">
<path fill="none" stroke="#63b8ff" d="M206.06,-219.14C218.74,-246.56 249.25,-304.44 293,-335 295.89,-337.02 298.98,-338.82 302.2,-340.43"/>
<polygon fill="#63b8ff" stroke="#63b8ff" points="300.98,-343.72 311.55,-344.49 303.77,-337.3 300.98,-343.72"/>
</a>
</g>
</g>
<!-- Node18 -->
<g id="Node000018" class="node">
<title>Node18</title>
<g id="a_Node000018"><a xlink:href="../../d8/dbb/classlamina_1_1Integrator.html#aa96105e4b760b421c30bfdaf01a044ad" target="_top" xlink:title=" ">
<polygon fill="white" stroke="#666666" points="424,-154 302,-154 302,-124 424,-124 424,-154"/>
<text text-anchor="start" x="310" y="-142" font-family="Helvetica,sans-Serif" font-size="10.00">lamina::Integrator</text>
<text text-anchor="middle" x="363" y="-131" font-family="Helvetica,sans-Serif" font-size="10.00">::make_integral_node</text>
</a>
</g>
</g>
<!-- Node10&#45;&gt;Node18 -->
<g id="edge24_Node000010_Node000018" class="edge">
<title>Node10&#45;&gt;Node18</title>
<g id="a_edge24_Node000010_Node000018"><a xlink:title=" ">
<path fill="none" stroke="#63b8ff" d="M237.19,-188.92C260.28,-179.69 290.04,-167.78 314.71,-157.92"/>
<polygon fill="#63b8ff" stroke="#63b8ff" points="316.25,-161.07 324.23,-154.11 313.65,-154.57 316.25,-161.07"/>
</a>
</g>
</g>
<!-- Node19 -->
<g id="Node000019" class="node">
<title>Node19</title>
<g id="a_Node000019"><a xlink:href="../../d8/dbb/classlamina_1_1Integrator.html#acc7ce748ee8a3a60eb901a29f0fd0556" target="_top" xlink:title=" ">
<polygon fill="white" stroke="#666666" points="415,-326 311,-326 311,-296 415,-296 415,-326"/>
<text text-anchor="start" x="319" y="-314" font-family="Helvetica,sans-Serif" font-size="10.00">lamina::Integrator</text>
<text text-anchor="middle" x="363" y="-303" font-family="Helvetica,sans-Serif" font-size="10.00">::resolve_cycle</text>
</a>
</g>
</g>
<!-- Node10&#45;&gt;Node19 -->
<g id="edge27_Node000010_Node000019" class="edge">
<title>Node10&#45;&gt;Node19</title>
<g id="a_edge27_Node000010_Node000019"><a xlink:title=" ">
<path fill="none" stroke="#63b8ff" d="M214.61,-219.07C232.24,-236.05 262.84,-263.65 293,-282 298.74,-285.49 304.98,-288.76 311.28,-291.75"/>
<polygon fill="#63b8ff" stroke="#63b8ff" points="309.96,-294.99 320.51,-295.92 312.84,-288.61 309.96,-294.99"/>
</a>
</g>
</g>
<!-- Node11&#45;&gt;Node3 -->
<g id="edge18_Node000011_Node000003" class="edge">
<title>Node11&#45;&gt;Node3</title>
<g id="a_edge18_Node000011_Node000003"><a xlink:title=" ">
<path fill="none" stroke="#63b8ff" d="M415.14,-216.58C432.22,-214.07 451.39,-211.56 469,-210 529.46,-204.63 598.27,-202.43 649.08,-201.55"/>
<polygon fill="#63b8ff" stroke="#63b8ff" points="649.38,-205.04 659.32,-201.38 649.26,-198.04 649.38,-205.04"/>
</a>
</g>
</g>
<!-- Node11&#45;&gt;Node7 -->
<g id="edge19_Node000011_Node000007" class="edge">
<title>Node11&#45;&gt;Node7</title>
<g id="a_edge19_Node000011_Node000007"><a xlink:title=" ">
<path fill="none" stroke="#63b8ff" d="M415.05,-236.57C438.11,-241.8 465.32,-247.96 488.49,-253.21"/>
<polygon fill="#63b8ff" stroke="#63b8ff" points="487.96,-256.68 498.48,-255.48 489.5,-249.85 487.96,-256.68"/>
</a>
</g>
</g>
<!-- Node12 -->
<g id="Node000012" class="node">
<title>Node12</title>
<g id="a_Node000012"><a xlink:href="../../dc/d25/classSymbolicExpr.html#aea4c251b3fd9994c77fb8b26dae96d5f" target="_top" xlink:title="执行符号除法。">
<polygon fill="white" stroke="#666666" points="601,-237.5 482,-237.5 482,-218.5 601,-218.5 601,-237.5"/>
<text text-anchor="middle" x="541.5" y="-225.5" font-family="Helvetica,sans-Serif" font-size="10.00">SymbolicExpr::divide</text>
</a>
</g>
</g>
<!-- Node11&#45;&gt;Node12 -->
<g id="edge13_Node000011_Node000012" class="edge">
<title>Node11&#45;&gt;Node12</title>
<g id="a_edge13_Node000011_Node000012"><a xlink:title=" ">
<path fill="none" stroke="#63b8ff" d="M415.05,-225.87C432.74,-226.17 452.88,-226.51 471.76,-226.83"/>
<polygon fill="#63b8ff" stroke="#63b8ff" points="471.73,-230.33 481.79,-227 471.85,-223.33 471.73,-230.33"/>
</a>
</g>
</g>
<!-- Node11&#45;&gt;Node14 -->
<g id="edge17_Node000011_Node000014" class="edge">
<title>Node11&#45;&gt;Node14</title>
<g id="a_edge17_Node000011_Node000014"><a xlink:title=" ">
<path fill="none" stroke="#63b8ff" d="M381.26,-209.6C409.79,-184.19 464.13,-135.96 469,-133 478.41,-127.28 489.19,-122.33 499.48,-118.26"/>
<polygon fill="#63b8ff" stroke="#63b8ff" points="501,-121.43 509.13,-114.63 498.54,-114.87 501,-121.43"/>
</a>
</g>
</g>
<!-- Node11&#45;&gt;Node15 -->
<g id="edge20_Node000011_Node000015" class="edge">
<title>Node11&#45;&gt;Node15</title>
<g id="a_edge20_Node000011_Node000015"><a xlink:title=" ">
<path fill="none" stroke="#63b8ff" d="M401.93,-209.93C412.12,-205.65 423.07,-200.83 433,-196 449.46,-188 452.25,-183.39 469,-176 478.34,-171.88 488.63,-168.04 498.42,-164.69"/>
<polygon fill="#63b8ff" stroke="#63b8ff" points="499.6,-167.99 507.99,-161.52 497.4,-161.35 499.6,-167.99"/>
</a>
</g>
</g>
<!-- Node12&#45;&gt;Node3 -->
<g id="edge14_Node000012_Node000003" class="edge">
<title>Node12&#45;&gt;Node3</title>
<g id="a_edge14_Node000012_Node000003"><a xlink:title=" ">
<path fill="none" stroke="#63b8ff" d="M601.27,-219.23C616.74,-216.93 633.63,-214.41 649.78,-212"/>
<polygon fill="#63b8ff" stroke="#63b8ff" points="650.34,-215.45 659.72,-210.51 649.31,-208.53 650.34,-215.45"/>
</a>
</g>
</g>
<!-- Node12&#45;&gt;Node4 -->
<g id="edge15_Node000012_Node000004" class="edge">
<title>Node12&#45;&gt;Node4</title>
<g id="a_edge15_Node000012_Node000004"><a xlink:title=" ">
<path fill="none" stroke="#63b8ff" d="M600.32,-237.66C605.33,-240.13 610,-243.19 614,-247 652.17,-283.35 611.48,-324.02 650,-360 651.14,-361.06 652.33,-362.07 653.57,-363.02"/>
<polygon fill="#63b8ff" stroke="#63b8ff" points="651.98,-366.15 662.31,-368.49 655.69,-360.22 651.98,-366.15"/>
</a>
</g>
</g>
<!-- Node13 -->
<g id="Node000013" class="node">
<title>Node13</title>
<g id="a_Node000013"><a xlink:href="../../dc/d25/classSymbolicExpr.html#ab03922681e30190ba7c73d2c1e58aa40" target="_top" xlink:title="创建幂运算表达式。">
<polygon fill="white" stroke="#666666" points="784,-247.5 665,-247.5 665,-228.5 784,-228.5 784,-247.5"/>
<text text-anchor="middle" x="724.5" y="-235.5" font-family="Helvetica,sans-Serif" font-size="10.00">SymbolicExpr::power</text>
</a>
</g>
</g>
<!-- Node12&#45;&gt;Node13 -->
<g id="edge16_Node000012_Node000013" class="edge">
<title>Node12&#45;&gt;Node13</title>
<g id="a_edge16_Node000012_Node000013"><a xlink:title=" ">
<path fill="none" stroke="#63b8ff" d="M601.27,-231.25C618.26,-232.19 636.97,-233.22 654.53,-234.19"/>
<polygon fill="#63b8ff" stroke="#63b8ff" points="654.54,-237.7 664.72,-234.75 654.93,-230.71 654.54,-237.7"/>
</a>
</g>
</g>
<!-- Node18&#45;&gt;Node15 -->
<g id="edge25_Node000018_Node000015" class="edge">
<title>Node18&#45;&gt;Node15</title>
<g id="a_edge25_Node000018_Node000015"><a xlink:title=" ">
<path fill="none" stroke="#63b8ff" d="M424.25,-143.44C437.91,-144.44 452.57,-145.52 466.72,-146.57"/>
<polygon fill="#63b8ff" stroke="#63b8ff" points="466.68,-150.07 476.91,-147.32 467.19,-143.09 466.68,-150.07"/>
</a>
</g>
</g>
<!-- Node19&#45;&gt;Node4 -->
<g id="edge29_Node000019_Node000004" class="edge">
<title>Node19&#45;&gt;Node4</title>
<g id="a_edge29_Node000019_Node000004"><a xlink:title=" ">
<path fill="none" stroke="#63b8ff" d="M410.3,-326.03C418.02,-329.03 425.84,-332.38 433,-336 450.16,-344.67 450.8,-353.78 469,-360 527.84,-380.11 598.69,-383.58 650.67,-382.61"/>
<polygon fill="#63b8ff" stroke="#63b8ff" points="650.9,-386.1 660.81,-382.36 650.72,-379.1 650.9,-386.1"/>
</a>
</g>
</g>
<!-- Node19&#45;&gt;Node7 -->
<g id="edge34_Node000019_Node000007" class="edge">
<title>Node19&#45;&gt;Node7</title>
<g id="a_edge34_Node000019_Node000007"><a xlink:title=" ">
<path fill="none" stroke="#63b8ff" d="M415.05,-297.69C440.02,-291.19 469.84,-283.41 494.15,-277.08"/>
<polygon fill="#63b8ff" stroke="#63b8ff" points="495.06,-280.46 503.85,-274.55 493.29,-273.69 495.06,-280.46"/>
</a>
</g>
</g>
<!-- Node19&#45;&gt;Node12 -->
<g id="edge28_Node000019_Node000012" class="edge">
<title>Node19&#45;&gt;Node12</title>
<g id="a_edge28_Node000019_Node000012"><a xlink:title=" ">
<path fill="none" stroke="#63b8ff" d="M384.74,-295.87C405.25,-281.52 437.98,-260.25 469,-247 474.52,-244.64 480.42,-242.51 486.36,-240.6"/>
<polygon fill="#63b8ff" stroke="#63b8ff" points="487.77,-243.83 496.35,-237.6 485.76,-237.13 487.77,-243.83"/>
</a>
</g>
</g>
<!-- Node20 -->
<g id="Node000020" class="node">
<title>Node20</title>
<g id="a_Node000020"><a xlink:href="../../d1/d42/namespacelamina.html#a581a2886a13064c468f1d1b5cd47b9cd" target="_top" xlink:title=" ">
<polygon fill="white" stroke="#666666" points="591.5,-350.5 491.5,-350.5 491.5,-331.5 591.5,-331.5 591.5,-350.5"/>
<text text-anchor="middle" x="541.5" y="-338.5" font-family="Helvetica,sans-Serif" font-size="10.00">lamina::sym_sub</text>
</a>
</g>
</g>
<!-- Node19&#45;&gt;Node20 -->
<g id="edge30_Node000019_Node000020" class="edge">
<title>Node19&#45;&gt;Node20</title>
<g id="a_edge30_Node000019_Node000020"><a xlink:title=" ">
<path fill="none" stroke="#63b8ff" d="M415.05,-319.68C435.79,-323.2 459.89,-327.3 481.39,-330.95"/>
<polygon fill="#63b8ff" stroke="#63b8ff" points="480.94,-334.43 491.39,-332.65 482.11,-327.53 480.94,-334.43"/>
</a>
</g>
</g>
<!-- Node20&#45;&gt;Node3 -->
<g id="edge32_Node000020_Node000003" class="edge">
<title>Node20&#45;&gt;Node3</title>
<g id="a_edge32_Node000020_Node000003"><a xlink:title=" ">
<path fill="none" stroke="#63b8ff" d="M590.83,-331.35C599.33,-327.93 607.51,-323.29 614,-317 647.02,-285 615.86,-250.81 650,-220 651.75,-218.42 653.61,-216.97 655.56,-215.64"/>
<polygon fill="#63b8ff" stroke="#63b8ff" points="657.64,-218.48 664.62,-210.52 654.2,-212.39 657.64,-218.48"/>
</a>
</g>
</g>
<!-- Node20&#45;&gt;Node4 -->
<g id="edge33_Node000020_Node000004" class="edge">
<title>Node20&#45;&gt;Node4</title>
<g id="a_edge33_Node000020_Node000004"><a xlink:title=" ">
<path fill="none" stroke="#63b8ff" d="M589.11,-350.53C612.77,-355.36 641.71,-361.28 666.67,-366.38"/>
<polygon fill="#63b8ff" stroke="#63b8ff" points="666.23,-369.87 676.73,-368.44 667.64,-363.01 666.23,-369.87"/>
</a>
</g>
</g>
<!-- Node21 -->
<g id="Node000021" class="node">
<title>Node21</title>
<g id="a_Node000021"><a xlink:href="../../dc/d25/classSymbolicExpr.html#ac8782568f037f8055277e5d8b80ec6d6" target="_top" xlink:title="创建加法表达式。">
<polygon fill="white" stroke="#666666" points="778,-350.5 671,-350.5 671,-331.5 778,-331.5 778,-350.5"/>
<text text-anchor="middle" x="724.5" y="-338.5" font-family="Helvetica,sans-Serif" font-size="10.00">SymbolicExpr::add</text>
</a>
</g>
</g>
<!-- Node20&#45;&gt;Node21 -->
<g id="edge31_Node000020_Node000021" class="edge">
<title>Node20&#45;&gt;Node21</title>
<g id="a_edge31_Node000020_Node000021"><a xlink:title=" ">
<path fill="none" stroke="#63b8ff" d="M591.96,-341C613.2,-341 638.26,-341 660.79,-341"/>
<polygon fill="#63b8ff" stroke="#63b8ff" points="660.93,-344.5 670.93,-341 660.93,-337.5 660.93,-344.5"/>
</a>
</g>
</g>
</g>
</svg>
