<?xml version="1.0" encoding="UTF-8" standalone="no"?>
<!DOCTYPE svg PUBLIC "-//W3C//DTD SVG 1.1//EN"
 "http://www.w3.org/Graphics/SVG/1.1/DTD/svg11.dtd">
<!-- Generated by graphviz version 2.43.0 (0)
 -->
<!-- Title: lamina::Integrator::resolve_cycle Pages: 1 -->
<svg width="754pt" height="180pt"
 viewBox="0.00 0.00 754.00 180.00" xmlns="http://www.w3.org/2000/svg" xmlns:xlink="http://www.w3.org/1999/xlink">
<g id="graph0" class="graph" transform="scale(1 1) rotate(0) translate(4 176)">
<title>lamina::Integrator::resolve_cycle</title>
<!-- Node1 -->
<g id="Node000001" class="node">
<title>Node1</title>
<g id="a_Node000001"><a xlink:title=" ">
<polygon fill="#999999" stroke="#666666" points="746,-105 642,-105 642,-75 746,-75 746,-105"/>
<text text-anchor="start" x="650" y="-93" font-family="Helvetica,sans-Serif" font-size="10.00">lamina::Integrator</text>
<text text-anchor="middle" x="694" y="-82" font-family="Helvetica,sans-Serif" font-size="10.00">::resolve_cycle</text>
</a>
</g>
</g>
<!-- Node2 -->
<g id="Node000002" class="node">
<title>Node2</title>
<g id="a_Node000002"><a xlink:href="../../d8/dbb/classlamina_1_1Integrator.html#af8e2012a43068412619b9afa2a5188c7" target="_top" xlink:title="递归积分入口">
<polygon fill="white" stroke="#666666" points="606,-105 489,-105 489,-75 606,-75 606,-105"/>
<text text-anchor="start" x="497" y="-93" font-family="Helvetica,sans-Serif" font-size="10.00">lamina::Integrator</text>
<text text-anchor="middle" x="547.5" y="-82" font-family="Helvetica,sans-Serif" font-size="10.00">::integrate_recursive</text>
</a>
</g>
</g>
<!-- Node1&#45;&gt;Node2 -->
<g id="edge1_Node000001_Node000002" class="edge">
<title>Node1&#45;&gt;Node2</title>
<g id="a_edge1_Node000001_Node000002"><a xlink:title=" ">
<path fill="none" stroke="#63b8ff" d="M631.5,-90C623.07,-90 614.44,-90 606.08,-90"/>
<polygon fill="#63b8ff" stroke="#63b8ff" points="631.65,-93.5 641.65,-90 631.65,-86.5 631.65,-93.5"/>
</a>
</g>
</g>
<!-- Node3 -->
<g id="Node000003" class="node">
<title>Node3</title>
<g id="a_Node000003"><a xlink:href="../../d8/dbb/classlamina_1_1Integrator.html#ad041f93ff9d1cca47ad39439338ec2e5" target="_top" xlink:title="计算不定积分">
<polygon fill="white" stroke="#666666" points="448.5,-129 344.5,-129 344.5,-99 448.5,-99 448.5,-129"/>
<text text-anchor="start" x="352.5" y="-117" font-family="Helvetica,sans-Serif" font-size="10.00">lamina::Integrator</text>
<text text-anchor="middle" x="396.5" y="-106" font-family="Helvetica,sans-Serif" font-size="10.00">::integrate</text>
</a>
</g>
</g>
<!-- Node2&#45;&gt;Node3 -->
<g id="edge2_Node000002_Node000003" class="edge">
<title>Node2&#45;&gt;Node3</title>
<g id="a_edge2_Node000002_Node000003"><a xlink:title=" ">
<path fill="none" stroke="#63b8ff" d="M478.83,-100.9C468.68,-102.53 458.36,-104.2 448.64,-105.76"/>
<polygon fill="#63b8ff" stroke="#63b8ff" points="479.58,-104.32 488.89,-99.28 478.46,-97.41 479.58,-104.32"/>
</a>
</g>
</g>
<!-- Node8 -->
<g id="Node000008" class="node">
<title>Node8</title>
<g id="a_Node000008"><a xlink:href="../../d1/d83/classlamina_1_1IBPStrategy.html#a14c65c71e2ba58e0e2986d8e97cb201d" target="_top" xlink:title="尝试对表达式进行积分">
<polygon fill="white" stroke="#666666" points="453,-81 340,-81 340,-51 453,-51 453,-81"/>
<text text-anchor="start" x="348" y="-69" font-family="Helvetica,sans-Serif" font-size="10.00">lamina::IBPStrategy</text>
<text text-anchor="middle" x="396.5" y="-58" font-family="Helvetica,sans-Serif" font-size="10.00">::try_integrate</text>
</a>
</g>
</g>
<!-- Node2&#45;&gt;Node8 -->
<g id="edge10_Node000002_Node000008" class="edge">
<title>Node2&#45;&gt;Node8</title>
<g id="a_edge10_Node000002_Node000008"><a xlink:title=" ">
<path fill="none" stroke="#63b8ff" d="M478.97,-79.12C470.45,-77.75 461.8,-76.36 453.48,-75.02"/>
<polygon fill="#63b8ff" stroke="#63b8ff" points="478.46,-82.59 488.89,-80.72 479.58,-75.68 478.46,-82.59"/>
</a>
</g>
</g>
<!-- Node4 -->
<g id="Node000004" class="node">
<title>Node4</title>
<g id="a_Node000004"><a xlink:href="../../d8/dbb/classlamina_1_1Integrator.html#a933c2400bb71a25a6f1e81c5cab0130b" target="_top" xlink:title=" ">
<polygon fill="white" stroke="#666666" points="289,-172 185,-172 185,-142 289,-142 289,-172"/>
<text text-anchor="start" x="193" y="-160" font-family="Helvetica,sans-Serif" font-size="10.00">lamina::Integrator</text>
<text text-anchor="middle" x="237" y="-149" font-family="Helvetica,sans-Serif" font-size="10.00">::apply_linearity</text>
</a>
</g>
</g>
<!-- Node3&#45;&gt;Node4 -->
<g id="edge3_Node000003_Node000004" class="edge">
<title>Node3&#45;&gt;Node4</title>
<g id="a_edge3_Node000003_Node000004"><a xlink:title=" ">
<path fill="none" stroke="#63b8ff" d="M334.53,-124.05C313.48,-129.42 290.65,-135.96 272.48,-141.89"/>
<polygon fill="#63b8ff" stroke="#63b8ff" points="335.51,-127.41 344.36,-121.59 333.81,-120.62 335.51,-127.41"/>
</a>
</g>
</g>
<!-- Node5 -->
<g id="Node000005" class="node">
<title>Node5</title>
<g id="a_Node000005"><a xlink:href="../../d0/d72/classlamina_1_1MultipleIntegralEngine.html#a491641f4d1657cf6aab03b05edef3ec8" target="_top" xlink:title="计算迭代积分。">
<polygon fill="white" stroke="#666666" points="134,-79 0,-79 0,-49 134,-49 134,-79"/>
<text text-anchor="start" x="8" y="-67" font-family="Helvetica,sans-Serif" font-size="10.00">lamina::MultipleIntegral</text>
<text text-anchor="middle" x="67" y="-56" font-family="Helvetica,sans-Serif" font-size="10.00">Engine::evaluate</text>
</a>
</g>
</g>
<!-- Node3&#45;&gt;Node5 -->
<g id="edge5_Node000003_Node000005" class="edge">
<title>Node3&#45;&gt;Node5</title>
<g id="a_edge5_Node000003_Node000005"><a xlink:title=" ">
<path fill="none" stroke="#63b8ff" d="M334.45,-112.34C288.81,-110.25 225.06,-105.56 170,-95 150.01,-91.16 128.36,-84.9 110.18,-79"/>
<polygon fill="#63b8ff" stroke="#63b8ff" points="334.34,-115.84 344.48,-112.77 334.64,-108.84 334.34,-115.84"/>
</a>
</g>
</g>
<!-- Node6 -->
<g id="Node000006" class="node">
<title>Node6</title>
<g id="a_Node000006"><a xlink:href="../../dc/d25/classSymbolicExpr.html#a3cea51734e44db6a4a48a77206ca4055" target="_top" xlink:title="计算不定积分。">
<polygon fill="white" stroke="#666666" points="304,-85.5 170,-85.5 170,-66.5 304,-66.5 304,-85.5"/>
<text text-anchor="middle" x="237" y="-73.5" font-family="Helvetica,sans-Serif" font-size="10.00">SymbolicExpr::integrate</text>
</a>
</g>
</g>
<!-- Node3&#45;&gt;Node6 -->
<g id="edge6_Node000003_Node000006" class="edge">
<title>Node3&#45;&gt;Node6</title>
<g id="a_edge6_Node000003_Node000006"><a xlink:title=" ">
<path fill="none" stroke="#63b8ff" d="M334.5,-99.28C315.32,-94.66 294.67,-89.67 277.41,-85.51"/>
<polygon fill="#63b8ff" stroke="#63b8ff" points="333.82,-102.72 344.36,-101.66 335.46,-95.91 333.82,-102.72"/>
</a>
</g>
</g>
<!-- Node7 -->
<g id="Node000007" class="node">
<title>Node7</title>
<g id="a_Node000007"><a xlink:href="../../d8/dbb/classlamina_1_1Integrator.html#a7477aee41552c2e8aa5065d0b8094fc3" target="_top" xlink:title="计算定积分">
<polygon fill="white" stroke="#666666" points="289,-30 185,-30 185,0 289,0 289,-30"/>
<text text-anchor="start" x="193" y="-18" font-family="Helvetica,sans-Serif" font-size="10.00">lamina::Integrator</text>
<text text-anchor="middle" x="237" y="-7" font-family="Helvetica,sans-Serif" font-size="10.00">::integrate_def</text>
</a>
</g>
</g>
<!-- Node3&#45;&gt;Node7 -->
<g id="edge7_Node000003_Node000007" class="edge">
<title>Node3&#45;&gt;Node7</title>
<g id="a_edge7_Node000003_Node000007"><a xlink:title=" ">
<path fill="none" stroke="#63b8ff" d="M347.13,-94.22C344.68,-92.86 342.29,-91.46 340,-90 321.95,-78.49 321.02,-70.99 304,-58 290.96,-48.04 275.64,-37.97 263.05,-30.08"/>
<polygon fill="#63b8ff" stroke="#63b8ff" points="345.68,-97.41 356.18,-98.87 348.88,-91.19 345.68,-97.41"/>
</a>
</g>
</g>
<!-- Node4&#45;&gt;Node3 -->
<g id="edge4_Node000004_Node000003" class="edge">
<title>Node4&#45;&gt;Node3</title>
<g id="a_edge4_Node000004_Node000003"><a xlink:title=" ">
<path fill="none" stroke="#63b8ff" d="M299.05,-146.93C320.19,-141.53 343.13,-134.96 361.32,-129.01"/>
<polygon fill="#63b8ff" stroke="#63b8ff" points="298.02,-143.58 289.17,-149.4 299.72,-150.37 298.02,-143.58"/>
</a>
</g>
</g>
<!-- Node7&#45;&gt;Node5 -->
<g id="edge8_Node000007_Node000005" class="edge">
<title>Node7&#45;&gt;Node5</title>
<g id="a_edge8_Node000007_Node000005"><a xlink:title=" ">
<path fill="none" stroke="#63b8ff" d="M175.05,-32.78C156.86,-38.08 137.11,-43.84 119.58,-48.95"/>
<polygon fill="#63b8ff" stroke="#63b8ff" points="176.06,-36.13 184.68,-29.97 174.1,-29.41 176.06,-36.13"/>
</a>
</g>
</g>
<!-- Node7&#45;&gt;Node7 -->
<g id="edge9_Node000007_Node000007" class="edge">
<title>Node7&#45;&gt;Node7</title>
<g id="a_edge9_Node000007_Node000007"><a xlink:title=" ">
<path fill="none" stroke="#63b8ff" d="M264.66,-40.6C260.88,-44.97 251.66,-48 237,-48 212.31,-48 203.05,-39.41 209.23,-30.28"/>
<polygon fill="#63b8ff" stroke="#63b8ff" points="268.16,-40.31 264.77,-30.28 261.16,-40.23 268.16,-40.31"/>
</a>
</g>
</g>
</g>
</svg>
