<?xml version="1.0" encoding="UTF-8" standalone="no"?>
<!DOCTYPE svg PUBLIC "-//W3C//DTD SVG 1.1//EN"
 "http://www.w3.org/Graphics/SVG/1.1/DTD/svg11.dtd">
<!-- Generated by graphviz version 2.43.0 (0)
 -->
<!-- Title: lamina::Integrator::max_depth Pages: 1 -->
<!--zoomable 211 -->

<svg id="main" version="1.1" xmlns="http://www.w3.org/2000/svg" xmlns:xlink="http://www.w3.org/1999/xlink" xml:space="preserve" onload="init(evt)">
<style type="text/css"><![CDATA[
.node, .edge {opacity: 0.7;}
.node.selected, .edge.selected {opacity: 1;}
.edge:hover path { stroke: red; }
.edge:hover polygon { stroke: red; fill: red; }
]]></style>

<defs>
  <circle id="rim" cx="0" cy="0" r="7"/>
  <circle id="rim2" cx="0" cy="0" r="3.5"/>
  <g id="zoomPlus">
    <use xlink:href="#rim" fill="#404040"><set attributeName="fill" to="#808080" begin="zoomplus.mouseover" end="zoomplus.mouseout"/></use>
    <path d="M-4,0h8M0,-4v8" fill="none" stroke="white" stroke-width="1.5" pointer-events="none"/>
  </g>
  <g id="zoomMin">
    <use xlink:href="#rim" fill="#404040"><set attributeName="fill" to="#808080" begin="zoomminus.mouseover" end="zoomminus.mouseout"/></use>
    <path d="M-4,0h8" fill="none" stroke="white" stroke-width="1.5" pointer-events="none"/>
  </g>
  <g id="arrowUp" transform="translate(30 24)">
    <use xlink:href="#rim"/>
    <path pointer-events="none" fill="none" stroke="white" stroke-width="1.5" d="M0,-3.0v7 M-2.5,-0.5L0,-3.0L2.5,-0.5"/>
  </g>
  <g id="arrowRight" transform="rotate(90) translate(36 -43)">
    <use xlink:href="#rim"/>
    <path pointer-events="none" fill="none" stroke="white" stroke-width="1.5" d="M0,-3.0v7 M-2.5,-0.5L0,-3.0L2.5,-0.5"/>
  </g>
  <g id="arrowDown" transform="rotate(180) translate(-30 -48)">
    <use xlink:href="#rim"/>
    <path pointer-events="none" fill="none" stroke="white" stroke-width="1.5" d="M0,-3.0v7 M-2.5,-0.5L0,-3.0L2.5,-0.5"/>
  </g>
  <g id="arrowLeft" transform="rotate(270) translate(-36 17)">
    <use xlink:href="#rim"/>
    <path pointer-events="none" fill="none" stroke="white" stroke-width="1.5" d="M0,-3.0v7 M-2.5,-0.5L0,-3.0L2.5,-0.5"/>
  </g>
  <g id="resetDef">
    <use xlink:href="#rim2" fill="#404040"><set attributeName="fill" to="#808080" begin="reset.mouseover" end="reset.mouseout"/></use>
  </g>
</defs>
<script type="application/ecmascript">
var viewWidth = 751;
var viewHeight = 211;
var sectionId = 'dynsection-17';
</script>
<script type="application/ecmascript" xlink:href="../../svg.min.js"/>
<svg id="graph" class="graph">
<g id="viewport">
<title>lamina::Integrator::max_depth</title>
<!-- Node1 -->
<g id="Node000001" class="node">
<title>Node1</title>
<g id="a_Node000001"><a xlink:title="获取最大递归深度">
<polygon fill="#999999" stroke="#666666" points="743,-117 639,-117 639,-87 743,-87 743,-117"/>
<text text-anchor="start" x="647" y="-105" font-family="Helvetica,sans-Serif" font-size="10.00">lamina::Integrator</text>
<text text-anchor="middle" x="691" y="-94" font-family="Helvetica,sans-Serif" font-size="10.00">::max_depth</text>
</a>
</g>
</g>
<!-- Node2 -->
<g id="Node000002" class="node">
<title>Node2</title>
<g id="a_Node000002"><a xlink:href="../../dd/ddb/classlamina_1_1TrigCombinationStrategy.html#ac3f1d200d09e56ad2e1627b301ed7076" target="_top" xlink:title="处理 m,n 均为偶数的情形：使用半角恒等式 sin²(c·x) = (1 &#45; cos(2c·x))/2，cos²(c·x) = (1 + cos(2c·x))/2， 将被积函数展开为 cos^k(2c...">
<polygon fill="white" stroke="#666666" points="603,-203 426,-203 426,-173 603,-173 603,-203"/>
<text text-anchor="start" x="434" y="-191" font-family="Helvetica,sans-Serif" font-size="10.00">lamina::TrigCombinationStrategy</text>
<text text-anchor="middle" x="514.5" y="-180" font-family="Helvetica,sans-Serif" font-size="10.00">::integrate_even_case</text>
</a>
</g>
</g>
<!-- Node1&#45;&gt;Node2 -->
<g id="edge1_Node000001_Node000002" class="edge">
<title>Node1&#45;&gt;Node2</title>
<g id="a_edge1_Node000001_Node000002"><a xlink:title=" ">
<path fill="none" stroke="#63b8ff" d="M662.01,-123.03C645.47,-134.76 623.77,-148.97 603,-159 592.05,-164.29 579.89,-169 568.2,-173"/>
<polygon fill="#63b8ff" stroke="#63b8ff" points="664.08,-125.85 670.15,-117.16 659.99,-120.17 664.08,-125.85"/>
</a>
</g>
</g>
<!-- Node3 -->
<g id="Node000003" class="node">
<title>Node3</title>
<g id="a_Node000003"><a xlink:href="../../dd/ddb/classlamina_1_1TrigCombinationStrategy.html#a1bb6c45d993a4faca2e2a36121015ad4" target="_top" xlink:title="根据 m,n 奇偶性分派到 odd / even 情形的内部分发器（带尺度参数）。">
<polygon fill="white" stroke="#666666" points="390,-162 213,-162 213,-132 390,-132 390,-162"/>
<text text-anchor="start" x="221" y="-150" font-family="Helvetica,sans-Serif" font-size="10.00">lamina::TrigCombinationStrategy</text>
<text text-anchor="middle" x="301.5" y="-139" font-family="Helvetica,sans-Serif" font-size="10.00">::integrate_sin_m_cos_n</text>
</a>
</g>
</g>
<!-- Node1&#45;&gt;Node3 -->
<g id="edge10_Node000001_Node000003" class="edge">
<title>Node1&#45;&gt;Node3</title>
<g id="a_edge10_Node000001_Node000003"><a xlink:title=" ">
<path fill="none" stroke="#63b8ff" d="M632.15,-119.68C622.49,-122.14 612.51,-124.37 603,-126 531.99,-138.15 450.4,-143.3 390.16,-145.47"/>
<polygon fill="#63b8ff" stroke="#63b8ff" points="633.29,-123 642.07,-117.06 631.51,-116.23 633.29,-123"/>
</a>
</g>
</g>
<!-- Node5 -->
<g id="Node000005" class="node">
<title>Node5</title>
<g id="a_Node000005"><a xlink:href="../../dd/ddb/classlamina_1_1TrigCombinationStrategy.html#a0cb4fab2b5e2a2ed66745ae019ce8368" target="_top" xlink:title="处理 m 或 n 为奇数的情形：剥离一个 sin/cos，使用毕达哥拉斯恒等式 与 u=cos(c·x) 或 u=sin(c·x) 换元，展开成 u 的多项式后逐项积分。">
<polygon fill="white" stroke="#666666" points="603,-117 426,-117 426,-87 603,-87 603,-117"/>
<text text-anchor="start" x="434" y="-105" font-family="Helvetica,sans-Serif" font-size="10.00">lamina::TrigCombinationStrategy</text>
<text text-anchor="middle" x="514.5" y="-94" font-family="Helvetica,sans-Serif" font-size="10.00">::integrate_odd_case</text>
</a>
</g>
</g>
<!-- Node1&#45;&gt;Node5 -->
<g id="edge5_Node000001_Node000005" class="edge">
<title>Node1&#45;&gt;Node5</title>
<g id="a_edge5_Node000001_Node000005"><a xlink:title=" ">
<path fill="none" stroke="#63b8ff" d="M628.42,-102C620.24,-102 611.73,-102 603.21,-102"/>
<polygon fill="#63b8ff" stroke="#63b8ff" points="628.59,-105.5 638.59,-102 628.59,-98.5 628.59,-105.5"/>
</a>
</g>
</g>
<!-- Node6 -->
<g id="Node000006" class="node">
<title>Node6</title>
<g id="a_Node000006"><a xlink:href="../../dd/ddb/classlamina_1_1TrigCombinationStrategy.html#aca222760448b69d18e7b35ea6a67b26e" target="_top" xlink:title="处理 sec^n(var)（偶数 n）形式：使用归约公式 ∫sec^n = sec^(n&#45;2)·tan/(n&#45;1) + (n&#45;2)/(n&#45;1)·∫sec^(n&#45;2)。 基础情形：n=2 → tan(x)...">
<polygon fill="white" stroke="#666666" points="390,-96 213,-96 213,-66 390,-66 390,-96"/>
<text text-anchor="start" x="221" y="-84" font-family="Helvetica,sans-Serif" font-size="10.00">lamina::TrigCombinationStrategy</text>
<text text-anchor="middle" x="301.5" y="-73" font-family="Helvetica,sans-Serif" font-size="10.00">::integrate_sec_power</text>
</a>
</g>
</g>
<!-- Node1&#45;&gt;Node6 -->
<g id="edge7_Node000001_Node000006" class="edge">
<title>Node1&#45;&gt;Node6</title>
<g id="a_edge7_Node000001_Node000006"><a xlink:title=" ">
<path fill="none" stroke="#63b8ff" d="M634.62,-84.34C624.22,-81.7 613.35,-79.4 603,-78 531.78,-68.36 450.2,-69.96 390.03,-73.5"/>
<polygon fill="#63b8ff" stroke="#63b8ff" points="633.86,-87.76 644.43,-86.95 635.66,-80.99 633.86,-87.76"/>
</a>
</g>
</g>
<!-- Node7 -->
<g id="Node000007" class="node">
<title>Node7</title>
<g id="a_Node000007"><a xlink:href="../../dd/ddb/classlamina_1_1TrigCombinationStrategy.html#aa5b8e9c2b49cc93b352575f2e2d12770" target="_top" xlink:title="处理 tan^n(var) 形式：递归地应用 tan^n = tan^(n&#45;2)·(sec²&#45;1)。 基础情形：n=0 → x，n=1 → &#45;ln(cos(x))。">
<polygon fill="white" stroke="#666666" points="390,-30 213,-30 213,0 390,0 390,-30"/>
<text text-anchor="start" x="221" y="-18" font-family="Helvetica,sans-Serif" font-size="10.00">lamina::TrigCombinationStrategy</text>
<text text-anchor="middle" x="301.5" y="-7" font-family="Helvetica,sans-Serif" font-size="10.00">::integrate_tan_power</text>
</a>
</g>
</g>
<!-- Node1&#45;&gt;Node7 -->
<g id="edge11_Node000001_Node000007" class="edge">
<title>Node1&#45;&gt;Node7</title>
<g id="a_edge11_Node000001_Node000007"><a xlink:title=" ">
<path fill="none" stroke="#63b8ff" d="M648.86,-82.76C634.59,-76.68 618.32,-70.41 603,-66 532.7,-45.77 450.69,-32.51 390.12,-24.6"/>
<polygon fill="#63b8ff" stroke="#63b8ff" points="647.82,-86.12 658.39,-86.91 650.62,-79.71 647.82,-86.12"/>
</a>
</g>
</g>
<!-- Node2&#45;&gt;Node3 -->
<g id="edge2_Node000002_Node000003" class="edge">
<title>Node2&#45;&gt;Node3</title>
<g id="a_edge2_Node000002_Node000003"><a xlink:title=" ">
<path fill="none" stroke="#63b8ff" d="M455.89,-170.72C435.63,-166.18 412.38,-161.47 390.21,-157.38"/>
<polygon fill="#63b8ff" stroke="#63b8ff" points="455.36,-174.18 465.88,-173 456.91,-167.36 455.36,-174.18"/>
</a>
</g>
</g>
<!-- Node3&#45;&gt;Node2 -->
<g id="edge3_Node000003_Node000002" class="edge">
<title>Node3&#45;&gt;Node2</title>
<g id="a_edge3_Node000003_Node000002"><a xlink:title=" ">
<path fill="none" stroke="#63b8ff" d="M360.13,-164.29C380.4,-168.83 403.67,-173.54 425.85,-177.63"/>
<polygon fill="#63b8ff" stroke="#63b8ff" points="360.66,-160.82 350.13,-162.01 359.1,-167.64 360.66,-160.82"/>
</a>
</g>
</g>
<!-- Node4 -->
<g id="Node000004" class="node">
<title>Node4</title>
<g id="a_Node000004"><a xlink:href="../../dd/ddb/classlamina_1_1TrigCombinationStrategy.html#a1fedc4dc0b403d8aa384f5f500c5cba7" target="_top" xlink:title="尝试对表达式进行积分">
<polygon fill="white" stroke="#666666" points="177,-96 0,-96 0,-66 177,-66 177,-96"/>
<text text-anchor="start" x="8" y="-84" font-family="Helvetica,sans-Serif" font-size="10.00">lamina::TrigCombinationStrategy</text>
<text text-anchor="middle" x="88.5" y="-73" font-family="Helvetica,sans-Serif" font-size="10.00">::try_integrate</text>
</a>
</g>
</g>
<!-- Node3&#45;&gt;Node4 -->
<g id="edge4_Node000003_Node000004" class="edge">
<title>Node3&#45;&gt;Node4</title>
<g id="a_edge4_Node000003_Node000004"><a xlink:title=" ">
<path fill="none" stroke="#63b8ff" d="M233.34,-129.02C226.46,-127.05 219.58,-125.02 213,-123 185.72,-114.63 155.38,-104.32 131.59,-96.02"/>
<polygon fill="#63b8ff" stroke="#63b8ff" points="232.83,-132.51 243.4,-131.87 234.74,-125.78 232.83,-132.51"/>
</a>
</g>
</g>
<!-- Node5&#45;&gt;Node3 -->
<g id="edge6_Node000005_Node000003" class="edge">
<title>Node5&#45;&gt;Node3</title>
<g id="a_edge6_Node000005_Node000003"><a xlink:title=" ">
<path fill="none" stroke="#63b8ff" d="M433.05,-119.16C413.27,-123.38 392.25,-127.86 372.99,-131.97"/>
<polygon fill="#63b8ff" stroke="#63b8ff" points="433.9,-122.56 442.95,-117.05 432.44,-115.71 433.9,-122.56"/>
</a>
</g>
</g>
<!-- Node6&#45;&gt;Node4 -->
<g id="edge9_Node000006_Node000004" class="edge">
<title>Node6&#45;&gt;Node4</title>
<g id="a_edge9_Node000006_Node000004"><a xlink:title=" ">
<path fill="none" stroke="#63b8ff" d="M202.58,-81C194.12,-81 185.59,-81 177.22,-81"/>
<polygon fill="#63b8ff" stroke="#63b8ff" points="202.85,-84.5 212.85,-81 202.85,-77.5 202.85,-84.5"/>
</a>
</g>
</g>
<!-- Node6&#45;&gt;Node6 -->
<g id="edge8_Node000006_Node000006" class="edge">
<title>Node6&#45;&gt;Node6</title>
<g id="a_edge8_Node000006_Node000006"><a xlink:title=" ">
<path fill="none" stroke="#63b8ff" d="M338.61,-106.6C333.54,-110.97 321.17,-114 301.5,-114 268.37,-114 255.95,-105.41 264.23,-96.28"/>
<polygon fill="#63b8ff" stroke="#63b8ff" points="342.11,-106.33 338.77,-96.28 335.11,-106.22 342.11,-106.33"/>
</a>
</g>
</g>
<!-- Node7&#45;&gt;Node4 -->
<g id="edge13_Node000007_Node000004" class="edge">
<title>Node7&#45;&gt;Node4</title>
<g id="a_edge13_Node000007_Node000004"><a xlink:title=" ">
<path fill="none" stroke="#63b8ff" d="M242.42,-33.17C209.55,-43.45 168.92,-56.16 137.8,-65.89"/>
<polygon fill="#63b8ff" stroke="#63b8ff" points="243.86,-36.38 252.36,-30.06 241.77,-29.7 243.86,-36.38"/>
</a>
</g>
</g>
<!-- Node7&#45;&gt;Node7 -->
<g id="edge12_Node000007_Node000007" class="edge">
<title>Node7&#45;&gt;Node7</title>
<g id="a_edge12_Node000007_Node000007"><a xlink:title=" ">
<path fill="none" stroke="#63b8ff" d="M338.61,-40.6C333.54,-44.97 321.17,-48 301.5,-48 268.37,-48 255.95,-39.41 264.23,-30.28"/>
<polygon fill="#63b8ff" stroke="#63b8ff" points="342.11,-40.33 338.77,-30.28 335.11,-40.22 342.11,-40.33"/>
</a>
</g>
</g>
</g>
</svg>

<g id="navigator" transform="translate(0 0)" fill="#404254">
  <rect fill="#f2f5e9" fill-opacity="0.5" stroke="#606060" stroke-width=".5" x="0" y="0" width="60" height="60"/>
  <use id="zoomplus" xlink:href="#zoomPlus" x="17" y="9" onmousedown="handleZoom(evt,'in')"/>
  <use id="zoomminus" xlink:href="#zoomMin" x="42" y="9" onmousedown="handleZoom(evt,'out')"/>
  <use id="reset" xlink:href="#resetDef" x="30" y="36" onmousedown="handleReset()"/>
   <use id="arrowup" xlink:href="#arrowUp" x="0" y="0" onmousedown="handlePan(0,-1)"/>
  <use id="arrowright" xlink:href="#arrowRight" x="0" y="0" onmousedown="handlePan(1,0)"/>
  <use id="arrowdown" xlink:href="#arrowDown" x="0" y="0" onmousedown="handlePan(0,1)"/>
  <use id="arrowleft" xlink:href="#arrowLeft" x="0" y="0" onmousedown="handlePan(-1,0)"/>
</g>
<svg viewBox="0 0 15 15" width="100%" height="30px" preserveAspectRatio="xMaxYMin meet">
 <g id="arrow_out" transform="scale(0.3 0.3)">
  <a xlink:href="classlamina_1_1Integrator_aa929cea6e8170c86885e6a3bee936f9a_icgraph_org.svg" target="_base">
   <rect id="button" ry="5" rx="5" y="6" x="6" height="38" width="38"
        fill="#f2f5e9" fill-opacity="0.5" stroke="#606060" stroke-width="1.0"/>
   <path id="arrow"
     d="M 11.500037,31.436501 C 11.940474,20.09759 22.043105,11.32322 32.158766,21.979434 L 37.068811,17.246167 C 37.068811,17.246167 37.088388,32 37.088388,32 L 22.160133,31.978069 C 22.160133,31.978069 26.997745,27.140456 26.997745,27.140456 C 18.528582,18.264221 13.291696,25.230495 11.500037,31.436501 z"
     style="fill:#404040;"/>
  </a>
 </g>
</svg>

<style type='text/css'>
<![CDATA[
[data-mouse-over-selected='false'] { opacity: 0.7; }
[data-mouse-over-selected='true']  { opacity: 1.0; }
]]>
</style>
<script type="application/ecmascript"><![CDATA[
document.addEventListener('DOMContentLoaded', (event) => {
  highlightEdges();
  highlightAdjacentNodes();
});
]]></script>
</svg>
