<?xml version="1.0" encoding="UTF-8" standalone="no"?>
<!DOCTYPE svg PUBLIC "-//W3C//DTD SVG 1.1//EN"
 "http://www.w3.org/Graphics/SVG/1.1/DTD/svg11.dtd">
<!-- Generated by graphviz version 2.43.0 (0)
 -->
<!-- Title: lamina::Integrator::integrate_def Pages: 1 -->
<svg width="1142pt" height="737pt"
 viewBox="0.00 0.00 1142.00 736.50" xmlns="http://www.w3.org/2000/svg" xmlns:xlink="http://www.w3.org/1999/xlink">
<g id="graph0" class="graph" transform="scale(1 1) rotate(0) translate(4 732.5)">
<title>lamina::Integrator::integrate_def</title>
<!-- Node1 -->
<g id="Node000001" class="node">
<title>Node1</title>
<g id="a_Node000001"><a xlink:title="计算定积分">
<polygon fill="#999999" stroke="#666666" points="104,-213.5 0,-213.5 0,-183.5 104,-183.5 104,-213.5"/>
<text text-anchor="start" x="8" y="-201.5" font-family="Helvetica,sans-Serif" font-size="10.00">lamina::Integrator</text>
<text text-anchor="middle" x="52" y="-190.5" font-family="Helvetica,sans-Serif" font-size="10.00">::integrate_def</text>
</a>
</g>
</g>
<!-- Node1&#45;&gt;Node1 -->
<g id="edge39_Node000001_Node000001" class="edge">
<title>Node1&#45;&gt;Node1</title>
<g id="a_edge39_Node000001_Node000001"><a xlink:title=" ">
<path fill="none" stroke="#63b8ff" d="M23.88,-213.78C17.62,-222.91 27,-231.5 52,-231.5 66.84,-231.5 76.18,-228.47 80.01,-224.1"/>
<polygon fill="#63b8ff" stroke="#63b8ff" points="83.51,-223.82 80.12,-213.78 76.51,-223.73 83.51,-223.82"/>
</a>
</g>
</g>
<!-- Node2 -->
<g id="Node000002" class="node">
<title>Node2</title>
<g id="a_Node000002"><a xlink:href="../../dc/d25/classSymbolicExpr.html#ac8782568f037f8055277e5d8b80ec6d6" target="_top" xlink:title="创建加法表达式。">
<polygon fill="white" stroke="#666666" points="958,-565 851,-565 851,-546 958,-546 958,-565"/>
<text text-anchor="middle" x="904.5" y="-553" font-family="Helvetica,sans-Serif" font-size="10.00">SymbolicExpr::add</text>
</a>
</g>
</g>
<!-- Node1&#45;&gt;Node2 -->
<g id="edge1_Node000001_Node000002" class="edge">
<title>Node1&#45;&gt;Node2</title>
<g id="a_edge1_Node000001_Node000002"><a xlink:title=" ">
<path fill="none" stroke="#63b8ff" d="M54.65,-213.51C65.02,-299.76 129.08,-728.5 377.5,-728.5 377.5,-728.5 377.5,-728.5 544,-728.5 687.72,-728.5 834.64,-614.85 885.15,-571.78"/>
<polygon fill="#63b8ff" stroke="#63b8ff" points="887.66,-574.24 892.93,-565.05 883.08,-568.94 887.66,-574.24"/>
</a>
</g>
</g>
<!-- Node3 -->
<g id="Node000003" class="node">
<title>Node3</title>
<g id="a_Node000003"><a xlink:href="../../d8/dbb/classlamina_1_1Integrator.html#ad041f93ff9d1cca47ad39439338ec2e5" target="_top" xlink:title="计算不定积分">
<polygon fill="white" stroke="#666666" points="264,-168.5 160,-168.5 160,-138.5 264,-138.5 264,-168.5"/>
<text text-anchor="start" x="168" y="-156.5" font-family="Helvetica,sans-Serif" font-size="10.00">lamina::Integrator</text>
<text text-anchor="middle" x="212" y="-145.5" font-family="Helvetica,sans-Serif" font-size="10.00">::integrate</text>
</a>
</g>
</g>
<!-- Node1&#45;&gt;Node3 -->
<g id="edge2_Node000001_Node000003" class="edge">
<title>Node1&#45;&gt;Node3</title>
<g id="a_edge2_Node000001_Node000003"><a xlink:title=" ">
<path fill="none" stroke="#63b8ff" d="M104.3,-183.89C118.93,-179.72 135.02,-175.14 150.17,-170.83"/>
<polygon fill="#63b8ff" stroke="#63b8ff" points="151.3,-174.14 159.96,-168.04 149.38,-167.41 151.3,-174.14"/>
</a>
</g>
</g>
<!-- Node6 -->
<g id="Node000006" class="node">
<title>Node6</title>
<g id="a_Node000006"><a xlink:href="../../dc/d25/classSymbolicExpr.html#adeb760bb6f4f28879108394537eca293" target="_top" xlink:title="创建整数数值表达式。">
<polygon fill="white" stroke="#666666" points="968,-280 841,-280 841,-261 968,-261 968,-280"/>
<text text-anchor="middle" x="904.5" y="-268" font-family="Helvetica,sans-Serif" font-size="10.00">SymbolicExpr::number</text>
</a>
</g>
</g>
<!-- Node1&#45;&gt;Node6 -->
<g id="edge41_Node000001_Node000006" class="edge">
<title>Node1&#45;&gt;Node6</title>
<g id="a_edge41_Node000001_Node000006"><a xlink:title=" ">
<path fill="none" stroke="#63b8ff" d="M104.02,-196.52C249.32,-191.36 663.25,-180.1 794,-213.5 826.56,-221.82 860.31,-241.33 881.58,-255.2"/>
<polygon fill="#63b8ff" stroke="#63b8ff" points="879.9,-258.29 890.16,-260.94 883.79,-252.47 879.9,-258.29"/>
</a>
</g>
</g>
<!-- Node7 -->
<g id="Node000007" class="node">
<title>Node7</title>
<g id="a_Node000007"><a xlink:href="../../dc/d25/classSymbolicExpr.html#acc2ea5b99b699087717f3ac42433e4b8" target="_top" xlink:title="对表达式进行化简。">
<polygon fill="white" stroke="#666666" points="785.5,-90 657.5,-90 657.5,-71 785.5,-71 785.5,-90"/>
<text text-anchor="middle" x="721.5" y="-78" font-family="Helvetica,sans-Serif" font-size="10.00">SymbolicExpr::simplify</text>
</a>
</g>
</g>
<!-- Node1&#45;&gt;Node7 -->
<g id="edge42_Node000001_Node000007" class="edge">
<title>Node1&#45;&gt;Node7</title>
<g id="a_edge42_Node000001_Node000007"><a xlink:title=" ">
<path fill="none" stroke="#63b8ff" d="M66.67,-183.28C82.5,-166.8 110.25,-141.29 140,-129.5 230.38,-93.68 512.37,-84.02 647.23,-81.44"/>
<polygon fill="#63b8ff" stroke="#63b8ff" points="647.53,-84.93 657.46,-81.25 647.4,-77.93 647.53,-84.93"/>
</a>
</g>
</g>
<!-- Node16 -->
<g id="Node000016" class="node">
<title>Node16</title>
<g id="a_Node000016"><a xlink:href="../../d1/d42/namespacelamina.html#af9c7851c330c76a4cd18ae36e1713aae" target="_top" xlink:title=" ">
<polygon fill="white" stroke="#666666" points="786,-500 657,-500 657,-481 786,-481 786,-500"/>
<text text-anchor="middle" x="721.5" y="-488" font-family="Helvetica,sans-Serif" font-size="10.00">lamina::make_expr_ptr</text>
</a>
</g>
</g>
<!-- Node1&#45;&gt;Node16 -->
<g id="edge40_Node000001_Node000016" class="edge">
<title>Node1&#45;&gt;Node16</title>
<g id="a_edge40_Node000001_Node000016"><a xlink:title=" ">
<path fill="none" stroke="#63b8ff" d="M62.58,-213.71C102.92,-276.15 266.5,-513.35 473,-595.5 530.82,-618.5 559.18,-626.73 613,-595.5 640.89,-579.31 626.33,-555.44 649,-532.5 660.35,-521.02 675.47,-511.54 688.88,-504.51"/>
<polygon fill="#63b8ff" stroke="#63b8ff" points="690.45,-507.64 697.83,-500.04 687.32,-501.37 690.45,-507.64"/>
</a>
</g>
</g>
<!-- Node17 -->
<g id="Node000017" class="node">
<title>Node17</title>
<g id="a_Node000017"><a xlink:href="../../dc/d25/classSymbolicExpr.html#a1718e8c497b928507b31acb089cc64ff" target="_top" xlink:title="创建变量表达式。">
<polygon fill="white" stroke="#666666" points="786,-560 657,-560 657,-541 786,-541 786,-560"/>
<text text-anchor="middle" x="721.5" y="-548" font-family="Helvetica,sans-Serif" font-size="10.00">SymbolicExpr::variable</text>
</a>
</g>
</g>
<!-- Node1&#45;&gt;Node17 -->
<g id="edge49_Node000001_Node000017" class="edge">
<title>Node1&#45;&gt;Node17</title>
<g id="a_edge49_Node000001_Node000017"><a xlink:title=" ">
<path fill="none" stroke="#63b8ff" d="M56.4,-213.76C65.19,-250.67 91.45,-346.55 140,-411.5 201.34,-493.56 231.89,-503.23 320,-555.5 434.64,-623.51 485.1,-657.02 613,-619.5 648.01,-609.23 682.41,-583.67 702.53,-566.71"/>
<polygon fill="#63b8ff" stroke="#63b8ff" points="704.97,-569.23 710.24,-560.03 700.39,-563.93 704.97,-569.23"/>
</a>
</g>
</g>
<!-- Node22 -->
<g id="Node000022" class="node">
<title>Node22</title>
<g id="a_Node000022"><a xlink:href="../../d1/d42/namespacelamina.html#a581a2886a13064c468f1d1b5cd47b9cd" target="_top" xlink:title=" ">
<polygon fill="white" stroke="#666666" points="771.5,-355 671.5,-355 671.5,-336 771.5,-336 771.5,-355"/>
<text text-anchor="middle" x="721.5" y="-343" font-family="Helvetica,sans-Serif" font-size="10.00">lamina::sym_sub</text>
</a>
</g>
</g>
<!-- Node1&#45;&gt;Node22 -->
<g id="edge46_Node000001_Node000022" class="edge">
<title>Node1&#45;&gt;Node22</title>
<g id="a_edge46_Node000001_Node000022"><a xlink:title=" ">
<path fill="none" stroke="#63b8ff" d="M104.2,-211.73C183.11,-231.9 339.32,-271.02 473,-299.5 536.98,-313.13 610.76,-326.55 661,-335.34"/>
<polygon fill="#63b8ff" stroke="#63b8ff" points="660.59,-338.82 671.04,-337.09 661.79,-331.93 660.59,-338.82"/>
</a>
</g>
</g>
<!-- Node23 -->
<g id="Node000023" class="node">
<title>Node23</title>
<g id="a_Node000023"><a xlink:href="../../dc/d25/classSymbolicExpr.html#a6c3512f5d73f0e72f241b086a5ca6f03" target="_top" xlink:title="将表达式中指定变量替换为给定值。">
<polygon fill="white" stroke="#666666" points="281,-74 143,-74 143,-55 281,-55 281,-74"/>
<text text-anchor="middle" x="212" y="-62" font-family="Helvetica,sans-Serif" font-size="10.00">SymbolicExpr::substitute</text>
</a>
</g>
</g>
<!-- Node1&#45;&gt;Node23 -->
<g id="edge43_Node000001_Node000023" class="edge">
<title>Node1&#45;&gt;Node23</title>
<g id="a_edge43_Node000001_Node000023"><a xlink:title=" ">
<path fill="none" stroke="#63b8ff" d="M61.45,-183.42C75.12,-160.33 104.19,-116.17 140,-90.5 147.21,-85.33 155.56,-81.08 163.95,-77.62"/>
<polygon fill="#63b8ff" stroke="#63b8ff" points="165.26,-80.87 173.37,-74.05 162.78,-74.32 165.26,-80.87"/>
</a>
</g>
</g>
<!-- Node25 -->
<g id="Node000025" class="node">
<title>Node25</title>
<g id="a_Node000025"><a xlink:href="../../dc/d25/classSymbolicExpr.html#a31881f352e7ca6ecc7b856939027b493" target="_top" xlink:title="将表达式求值为浮点数。">
<polygon fill="white" stroke="#666666" points="284,-19 140,-19 140,0 284,0 284,-19"/>
<text text-anchor="middle" x="212" y="-7" font-family="Helvetica,sans-Serif" font-size="10.00">SymbolicExpr::to_numeric</text>
</a>
</g>
</g>
<!-- Node1&#45;&gt;Node25 -->
<g id="edge47_Node000001_Node000025" class="edge">
<title>Node1&#45;&gt;Node25</title>
<g id="a_edge47_Node000001_Node000025"><a xlink:title=" ">
<path fill="none" stroke="#63b8ff" d="M58.29,-183.12C69.25,-153.18 97.09,-86.4 140,-45.5 149.71,-36.24 162.26,-28.83 174.1,-23.2"/>
<polygon fill="#63b8ff" stroke="#63b8ff" points="175.68,-26.33 183.38,-19.06 172.83,-19.93 175.68,-26.33"/>
</a>
</g>
</g>
<!-- Node4 -->
<g id="Node000004" class="node">
<title>Node4</title>
<g id="a_Node000004"><a xlink:href="../../d8/dbb/classlamina_1_1Integrator.html#a933c2400bb71a25a6f1e81c5cab0130b" target="_top" xlink:title=" ">
<polygon fill="white" stroke="#666666" points="595,-166.5 491,-166.5 491,-136.5 595,-136.5 595,-166.5"/>
<text text-anchor="start" x="499" y="-154.5" font-family="Helvetica,sans-Serif" font-size="10.00">lamina::Integrator</text>
<text text-anchor="middle" x="543" y="-143.5" font-family="Helvetica,sans-Serif" font-size="10.00">::apply_linearity</text>
</a>
</g>
</g>
<!-- Node3&#45;&gt;Node4 -->
<g id="edge3_Node000003_Node000004" class="edge">
<title>Node3&#45;&gt;Node4</title>
<g id="a_edge3_Node000003_Node000004"><a xlink:title=" ">
<path fill="none" stroke="#63b8ff" d="M264.05,-148.14C322.52,-145.64 418.28,-144.94 480.73,-146.48"/>
<polygon fill="#63b8ff" stroke="#63b8ff" points="480.74,-149.98 490.83,-146.76 480.93,-142.98 480.74,-149.98"/>
</a>
</g>
</g>
<!-- Node12 -->
<g id="Node000012" class="node">
<title>Node12</title>
<g id="a_Node000012"><a xlink:href="../../d8/dbb/classlamina_1_1Integrator.html#af8e2012a43068412619b9afa2a5188c7" target="_top" xlink:title="递归积分入口">
<polygon fill="white" stroke="#666666" points="437,-438.5 320,-438.5 320,-408.5 437,-408.5 437,-438.5"/>
<text text-anchor="start" x="328" y="-426.5" font-family="Helvetica,sans-Serif" font-size="10.00">lamina::Integrator</text>
<text text-anchor="middle" x="378.5" y="-415.5" font-family="Helvetica,sans-Serif" font-size="10.00">::integrate_recursive</text>
</a>
</g>
</g>
<!-- Node3&#45;&gt;Node12 -->
<g id="edge13_Node000003_Node000012" class="edge">
<title>Node3&#45;&gt;Node12</title>
<g id="a_edge13_Node000003_Node000012"><a xlink:title=" ">
<path fill="none" stroke="#63b8ff" d="M222.32,-168.79C249.69,-213.71 330,-345.54 363.05,-399.78"/>
<polygon fill="#63b8ff" stroke="#63b8ff" points="360.09,-401.66 368.29,-408.38 366.07,-398.02 360.09,-401.66"/>
</a>
</g>
</g>
<!-- Node4&#45;&gt;Node3 -->
<g id="edge4_Node000004_Node000003" class="edge">
<title>Node4&#45;&gt;Node3</title>
<g id="a_edge4_Node000004_Node000003"><a xlink:title=" ">
<path fill="none" stroke="#63b8ff" d="M490.83,-156.86C432.31,-159.36 336.55,-160.06 274.15,-158.52"/>
<polygon fill="#63b8ff" stroke="#63b8ff" points="274.14,-155.02 264.05,-158.24 273.95,-162.01 274.14,-155.02"/>
</a>
</g>
</g>
<!-- Node5 -->
<g id="Node000005" class="node">
<title>Node5</title>
<g id="a_Node000005"><a xlink:href="../../dc/d25/classSymbolicExpr.html#ad03189fc8a4db7762f7c1ca890674bbc" target="_top" xlink:title="创建乘法表达式。">
<polygon fill="white" stroke="#666666" points="969.5,-355 839.5,-355 839.5,-336 969.5,-336 969.5,-355"/>
<text text-anchor="middle" x="904.5" y="-343" font-family="Helvetica,sans-Serif" font-size="10.00">SymbolicExpr::multiply</text>
</a>
</g>
</g>
<!-- Node4&#45;&gt;Node5 -->
<g id="edge5_Node000004_Node000005" class="edge">
<title>Node4&#45;&gt;Node5</title>
<g id="a_edge5_Node000004_Node000005"><a xlink:title=" ">
<path fill="none" stroke="#63b8ff" d="M595.16,-150.27C651.1,-151.73 739.97,-162.76 794,-213.5 832.73,-249.87 791.22,-291.18 830,-327.5 831.14,-328.57 832.33,-329.57 833.57,-330.52"/>
<polygon fill="#63b8ff" stroke="#63b8ff" points="831.97,-333.65 842.31,-336 835.69,-327.72 831.97,-333.65"/>
</a>
</g>
</g>
<!-- Node4&#45;&gt;Node6 -->
<g id="edge6_Node000004_Node000006" class="edge">
<title>Node4&#45;&gt;Node6</title>
<g id="a_edge6_Node000004_Node000006"><a xlink:title=" ">
<path fill="none" stroke="#63b8ff" d="M590.56,-136.39C643.35,-122.16 730.34,-107.74 794,-142.5 819.97,-156.68 811.31,-175.56 830,-198.5 846.75,-219.07 868.8,-240 884.37,-253.95"/>
<polygon fill="#63b8ff" stroke="#63b8ff" points="882.46,-256.94 892.27,-260.94 887.1,-251.7 882.46,-256.94"/>
</a>
</g>
</g>
<!-- Node4&#45;&gt;Node7 -->
<g id="edge7_Node000004_Node000007" class="edge">
<title>Node4&#45;&gt;Node7</title>
<g id="a_edge7_Node000004_Node000007"><a xlink:title=" ">
<path fill="none" stroke="#63b8ff" d="M575.83,-136.29C596.47,-126.66 624.07,-114.24 649,-104.5 659.07,-100.57 670.09,-96.67 680.39,-93.2"/>
<polygon fill="#63b8ff" stroke="#63b8ff" points="681.61,-96.49 690,-90.02 679.41,-89.84 681.61,-96.49"/>
</a>
</g>
</g>
<!-- Node9 -->
<g id="Node000009" class="node">
<title>Node9</title>
<g id="a_Node000009"><a xlink:href="../../d1/d42/namespacelamina.html#ae1ead7a217c0cba5a6362056a695f9b9" target="_top" xlink:title=" ">
<polygon fill="white" stroke="#666666" points="794,-242 649,-242 649,-223 794,-223 794,-242"/>
<text text-anchor="middle" x="721.5" y="-230" font-family="Helvetica,sans-Serif" font-size="10.00">lamina::valid_dependency</text>
</a>
</g>
</g>
<!-- Node4&#45;&gt;Node9 -->
<g id="edge9_Node000004_Node000009" class="edge">
<title>Node4&#45;&gt;Node9</title>
<g id="a_edge9_Node000004_Node000009"><a xlink:title=" ">
<path fill="none" stroke="#63b8ff" d="M576.78,-166.55C609.31,-181.47 658.74,-204.16 690.32,-218.65"/>
<polygon fill="#63b8ff" stroke="#63b8ff" points="688.96,-221.88 699.51,-222.87 691.88,-215.52 688.96,-221.88"/>
</a>
</g>
</g>
<!-- Node8 -->
<g id="Node000008" class="node">
<title>Node8</title>
<g id="a_Node000008"><a xlink:href="../../d3/da1/classNormalizationVisitor.html#abefa11f3ddef7d3918dec3102f6fbd40" target="_top" xlink:title="获取规范化结果">
<polygon fill="white" stroke="#666666" points="1133,-95.5 1016,-95.5 1016,-65.5 1133,-65.5 1133,-95.5"/>
<text text-anchor="start" x="1024" y="-83.5" font-family="Helvetica,sans-Serif" font-size="10.00">NormalizationVisitor</text>
<text text-anchor="middle" x="1074.5" y="-72.5" font-family="Helvetica,sans-Serif" font-size="10.00">::get_result</text>
</a>
</g>
</g>
<!-- Node7&#45;&gt;Node8 -->
<g id="edge8_Node000007_Node000008" class="edge">
<title>Node7&#45;&gt;Node8</title>
<g id="a_edge8_Node000007_Node000008"><a xlink:title=" ">
<path fill="none" stroke="#63b8ff" d="M785.66,-80.5C847.64,-80.5 941.86,-80.5 1005.47,-80.5"/>
<polygon fill="#63b8ff" stroke="#63b8ff" points="1005.8,-84 1015.8,-80.5 1005.8,-77 1005.8,-84"/>
</a>
</g>
</g>
<!-- Node10 -->
<g id="Node000010" class="node">
<title>Node10</title>
<g id="a_Node000010"><a xlink:href="../../dc/d25/classSymbolicExpr.html#a12ea2bce8fc0fa5da98a0cfae9030c2f" target="_top" xlink:title="对表达式关于指定变量求导。">
<polygon fill="white" stroke="#666666" points="979,-190 830,-190 830,-171 979,-171 979,-190"/>
<text text-anchor="middle" x="904.5" y="-178" font-family="Helvetica,sans-Serif" font-size="10.00">SymbolicExpr::differentiate</text>
</a>
</g>
</g>
<!-- Node9&#45;&gt;Node10 -->
<g id="edge10_Node000009_Node000010" class="edge">
<title>Node9&#45;&gt;Node10</title>
<g id="a_edge10_Node000009_Node000010"><a xlink:title=" ">
<path fill="none" stroke="#63b8ff" d="M755.7,-222.96C785.08,-214.52 828.14,-202.15 860.21,-192.94"/>
<polygon fill="#63b8ff" stroke="#63b8ff" points="861.56,-196.19 870.21,-190.07 859.63,-189.46 861.56,-196.19"/>
</a>
</g>
</g>
<!-- Node10&#45;&gt;Node8 -->
<g id="edge12_Node000010_Node000008" class="edge">
<title>Node10&#45;&gt;Node8</title>
<g id="a_edge12_Node000010_Node000008"><a xlink:title=" ">
<path fill="none" stroke="#63b8ff" d="M921.61,-170.91C948.64,-154.82 1003.68,-122.06 1039.55,-100.71"/>
<polygon fill="#63b8ff" stroke="#63b8ff" points="1041.43,-103.67 1048.23,-95.54 1037.84,-97.65 1041.43,-103.67"/>
</a>
</g>
</g>
<!-- Node11 -->
<g id="Node000011" class="node">
<title>Node11</title>
<g id="a_Node000011"><a xlink:href="../../d3/d1a/classDifferentiationVisitor.html#a069c6a379bd1b15007f02ed883114ab9" target="_top" xlink:title="获取求导结果">
<polygon fill="white" stroke="#666666" points="1134,-195.5 1015,-195.5 1015,-165.5 1134,-165.5 1134,-195.5"/>
<text text-anchor="start" x="1023" y="-183.5" font-family="Helvetica,sans-Serif" font-size="10.00">DifferentiationVisitor</text>
<text text-anchor="middle" x="1074.5" y="-172.5" font-family="Helvetica,sans-Serif" font-size="10.00">::get_result</text>
</a>
</g>
</g>
<!-- Node10&#45;&gt;Node11 -->
<g id="edge11_Node000010_Node000011" class="edge">
<title>Node10&#45;&gt;Node11</title>
<g id="a_edge11_Node000010_Node000011"><a xlink:title=" ">
<path fill="none" stroke="#63b8ff" d="M979.19,-180.5C987.65,-180.5 996.25,-180.5 1004.65,-180.5"/>
<polygon fill="#63b8ff" stroke="#63b8ff" points="1004.76,-184 1014.76,-180.5 1004.76,-177 1004.76,-184"/>
</a>
</g>
</g>
<!-- Node12&#45;&gt;Node5 -->
<g id="edge28_Node000012_Node000005" class="edge">
<title>Node12&#45;&gt;Node5</title>
<g id="a_edge28_Node000012_Node000005"><a xlink:title=" ">
<path fill="none" stroke="#63b8ff" d="M382.35,-438.55C389.89,-473.61 413.99,-560.41 473,-595.5 596.03,-668.65 678.29,-653.76 794,-569.5 864.17,-518.4 891.6,-409.9 900.19,-365.29"/>
<polygon fill="#63b8ff" stroke="#63b8ff" points="903.68,-365.63 902.02,-355.17 896.8,-364.39 903.68,-365.63"/>
</a>
</g>
</g>
<!-- Node12&#45;&gt;Node9 -->
<g id="edge37_Node000012_Node000009" class="edge">
<title>Node12&#45;&gt;Node9</title>
<g id="a_edge37_Node000012_Node000009"><a xlink:title=" ">
<path fill="none" stroke="#63b8ff" d="M382.59,-408.49C390.6,-373.91 415.52,-288.73 473,-251.5 528.05,-215.85 605.12,-215.87 658.57,-221.75"/>
<polygon fill="#63b8ff" stroke="#63b8ff" points="658.25,-225.24 668.6,-222.95 659.09,-218.29 658.25,-225.24"/>
</a>
</g>
</g>
<!-- Node13 -->
<g id="Node000013" class="node">
<title>Node13</title>
<g id="a_Node000013"><a xlink:href="../../d8/dbb/classlamina_1_1Integrator.html#aa964c6f76a91b1a15966f67fab623474" target="_top" xlink:title=" ">
<polygon fill="white" stroke="#666666" points="595,-462.5 491,-462.5 491,-432.5 595,-432.5 595,-462.5"/>
<text text-anchor="start" x="499" y="-450.5" font-family="Helvetica,sans-Serif" font-size="10.00">lamina::Integrator</text>
<text text-anchor="middle" x="543" y="-439.5" font-family="Helvetica,sans-Serif" font-size="10.00">::check_cycle</text>
</a>
</g>
</g>
<!-- Node12&#45;&gt;Node13 -->
<g id="edge14_Node000012_Node000013" class="edge">
<title>Node12&#45;&gt;Node13</title>
<g id="a_edge14_Node000012_Node000013"><a xlink:title=" ">
<path fill="none" stroke="#63b8ff" d="M437.25,-432.03C451.34,-434.11 466.47,-436.34 480.72,-438.45"/>
<polygon fill="#63b8ff" stroke="#63b8ff" points="480.51,-441.96 490.92,-439.96 481.54,-435.03 480.51,-441.96"/>
</a>
</g>
</g>
<!-- Node12&#45;&gt;Node16 -->
<g id="edge25_Node000012_Node000016" class="edge">
<title>Node12&#45;&gt;Node16</title>
<g id="a_edge25_Node000012_Node000016"><a xlink:title=" ">
<path fill="none" stroke="#63b8ff" d="M402.63,-438.69C420.92,-449.86 447.54,-464.3 473,-471.5 529.94,-487.59 596.99,-491.89 646.93,-492.41"/>
<polygon fill="#63b8ff" stroke="#63b8ff" points="646.98,-495.91 657,-492.47 647.02,-488.91 646.98,-495.91"/>
</a>
</g>
</g>
<!-- Node12&#45;&gt;Node17 -->
<g id="edge38_Node000012_Node000017" class="edge">
<title>Node12&#45;&gt;Node17</title>
<g id="a_edge38_Node000012_Node000017"><a xlink:title=" ">
<path fill="none" stroke="#63b8ff" d="M394.99,-438.65C412.49,-454.91 442.52,-480.3 473,-494.5 528.31,-520.27 596.23,-534.55 646.91,-542.23"/>
<polygon fill="#63b8ff" stroke="#63b8ff" points="646.41,-545.69 656.81,-543.67 647.43,-538.76 646.41,-545.69"/>
</a>
</g>
</g>
<!-- Node18 -->
<g id="Node000018" class="node">
<title>Node18</title>
<g id="a_Node000018"><a xlink:href="../../d8/dbb/classlamina_1_1Integrator.html#a71d322b0c8340b7935d6d5a121fea59f" target="_top" xlink:title=" ">
<polygon fill="white" stroke="#666666" points="602,-414.5 484,-414.5 484,-384.5 602,-384.5 602,-414.5"/>
<text text-anchor="start" x="492" y="-402.5" font-family="Helvetica,sans-Serif" font-size="10.00">lamina::Integrator</text>
<text text-anchor="middle" x="543" y="-391.5" font-family="Helvetica,sans-Serif" font-size="10.00">::dispatch_strategies</text>
</a>
</g>
</g>
<!-- Node12&#45;&gt;Node18 -->
<g id="edge23_Node000012_Node000018" class="edge">
<title>Node12&#45;&gt;Node18</title>
<g id="a_edge23_Node000012_Node000018"><a xlink:title=" ">
<path fill="none" stroke="#63b8ff" d="M437.25,-414.97C449.08,-413.22 461.64,-411.37 473.8,-409.57"/>
<polygon fill="#63b8ff" stroke="#63b8ff" points="474.51,-413.01 483.89,-408.08 473.49,-406.08 474.51,-413.01"/>
</a>
</g>
</g>
<!-- Node19 -->
<g id="Node000019" class="node">
<title>Node19</title>
<g id="a_Node000019"><a xlink:href="../../dc/d25/classSymbolicExpr.html#abc98503493872cfc56a71bbf7137ca49" target="_top" xlink:title="判断表达式是否为数值节点。">
<polygon fill="white" stroke="#666666" points="613,-366 473,-366 473,-347 613,-347 613,-366"/>
<text text-anchor="middle" x="543" y="-354" font-family="Helvetica,sans-Serif" font-size="10.00">SymbolicExpr::is_number</text>
</a>
</g>
</g>
<!-- Node12&#45;&gt;Node19 -->
<g id="edge24_Node000012_Node000019" class="edge">
<title>Node12&#45;&gt;Node19</title>
<g id="a_edge24_Node000012_Node000019"><a xlink:title=" ">
<path fill="none" stroke="#63b8ff" d="M405.43,-408.36C423.83,-398.07 449.37,-384.71 473,-375.5 479,-373.16 485.4,-370.99 491.8,-369.02"/>
<polygon fill="#63b8ff" stroke="#63b8ff" points="493.17,-372.26 501.77,-366.08 491.19,-365.55 493.17,-372.26"/>
</a>
</g>
</g>
<!-- Node20 -->
<g id="Node000020" class="node">
<title>Node20</title>
<g id="a_Node000020"><a xlink:href="../../d8/dbb/classlamina_1_1Integrator.html#aa96105e4b760b421c30bfdaf01a044ad" target="_top" xlink:title=" ">
<polygon fill="white" stroke="#666666" points="604,-586.5 482,-586.5 482,-556.5 604,-556.5 604,-586.5"/>
<text text-anchor="start" x="490" y="-574.5" font-family="Helvetica,sans-Serif" font-size="10.00">lamina::Integrator</text>
<text text-anchor="middle" x="543" y="-563.5" font-family="Helvetica,sans-Serif" font-size="10.00">::make_integral_node</text>
</a>
</g>
</g>
<!-- Node12&#45;&gt;Node20 -->
<g id="edge26_Node000012_Node000020" class="edge">
<title>Node12&#45;&gt;Node20</title>
<g id="a_edge26_Node000012_Node000020"><a xlink:title=" ">
<path fill="none" stroke="#63b8ff" d="M387.93,-438.68C402.39,-463.48 434.14,-512.87 473,-542.5 477.46,-545.9 482.37,-548.97 487.46,-551.74"/>
<polygon fill="#63b8ff" stroke="#63b8ff" points="486.24,-555.04 496.75,-556.39 489.37,-548.78 486.24,-555.04"/>
</a>
</g>
</g>
<!-- Node21 -->
<g id="Node000021" class="node">
<title>Node21</title>
<g id="a_Node000021"><a xlink:href="../../d8/dbb/classlamina_1_1Integrator.html#acc7ce748ee8a3a60eb901a29f0fd0556" target="_top" xlink:title=" ">
<polygon fill="white" stroke="#666666" points="595,-290.5 491,-290.5 491,-260.5 595,-260.5 595,-290.5"/>
<text text-anchor="start" x="499" y="-278.5" font-family="Helvetica,sans-Serif" font-size="10.00">lamina::Integrator</text>
<text text-anchor="middle" x="543" y="-267.5" font-family="Helvetica,sans-Serif" font-size="10.00">::resolve_cycle</text>
</a>
</g>
</g>
<!-- Node12&#45;&gt;Node21 -->
<g id="edge29_Node000012_Node000021" class="edge">
<title>Node12&#45;&gt;Node21</title>
<g id="a_edge29_Node000012_Node000021"><a xlink:title=" ">
<path fill="none" stroke="#63b8ff" d="M395.98,-408.49C424.81,-382.23 484.53,-327.84 517.97,-297.38"/>
<polygon fill="#63b8ff" stroke="#63b8ff" points="520.44,-299.87 525.48,-290.55 515.73,-294.69 520.44,-299.87"/>
</a>
</g>
</g>
<!-- Node13&#45;&gt;Node5 -->
<g id="edge20_Node000013_Node000005" class="edge">
<title>Node13&#45;&gt;Node5</title>
<g id="a_edge20_Node000013_Node000005"><a xlink:title=" ">
<path fill="none" stroke="#63b8ff" d="M595.13,-432.99C666.11,-412.85 793.31,-376.76 859.99,-357.84"/>
<polygon fill="#63b8ff" stroke="#63b8ff" points="861.1,-361.17 869.77,-355.07 859.19,-354.43 861.1,-361.17"/>
</a>
</g>
</g>
<!-- Node13&#45;&gt;Node9 -->
<g id="edge21_Node000013_Node000009" class="edge">
<title>Node13&#45;&gt;Node9</title>
<g id="a_edge21_Node000013_Node000009"><a xlink:title=" ">
<path fill="none" stroke="#63b8ff" d="M595.34,-436.14C601.92,-432.92 608.08,-428.79 613,-423.5 655,-378.35 615.2,-341.08 649,-289.5 660.42,-272.07 678.92,-257.53 694.24,-247.5"/>
<polygon fill="#63b8ff" stroke="#63b8ff" points="696.21,-250.4 702.82,-242.13 692.49,-244.47 696.21,-250.4"/>
</a>
</g>
</g>
<!-- Node14 -->
<g id="Node000014" class="node">
<title>Node14</title>
<g id="a_Node000014"><a xlink:href="../../dc/d25/classSymbolicExpr.html#aea4c251b3fd9994c77fb8b26dae96d5f" target="_top" xlink:title="执行符号除法。">
<polygon fill="white" stroke="#666666" points="781,-318 662,-318 662,-299 781,-299 781,-318"/>
<text text-anchor="middle" x="721.5" y="-306" font-family="Helvetica,sans-Serif" font-size="10.00">SymbolicExpr::divide</text>
</a>
</g>
</g>
<!-- Node13&#45;&gt;Node14 -->
<g id="edge15_Node000013_Node000014" class="edge">
<title>Node13&#45;&gt;Node14</title>
<g id="a_edge15_Node000013_Node000014"><a xlink:title=" ">
<path fill="none" stroke="#63b8ff" d="M595.23,-435.53C601.76,-432.4 607.92,-428.46 613,-423.5 645.61,-391.67 615.22,-358.09 649,-327.5 650.74,-325.92 652.6,-324.48 654.54,-323.15"/>
<polygon fill="#63b8ff" stroke="#63b8ff" points="656.6,-326.01 663.58,-318.04 653.15,-319.91 656.6,-326.01"/>
</a>
</g>
</g>
<!-- Node13&#45;&gt;Node16 -->
<g id="edge19_Node000013_Node000016" class="edge">
<title>Node13&#45;&gt;Node16</title>
<g id="a_edge19_Node000013_Node000016"><a xlink:title=" ">
<path fill="none" stroke="#63b8ff" d="M595.05,-459.94C619.1,-465.8 647.67,-472.76 671.46,-478.55"/>
<polygon fill="#63b8ff" stroke="#63b8ff" points="670.79,-481.99 681.34,-480.96 672.45,-475.19 670.79,-481.99"/>
</a>
</g>
</g>
<!-- Node13&#45;&gt;Node17 -->
<g id="edge22_Node000013_Node000017" class="edge">
<title>Node13&#45;&gt;Node17</title>
<g id="a_edge22_Node000013_Node000017"><a xlink:title=" ">
<path fill="none" stroke="#63b8ff" d="M569.41,-462.62C590.64,-475.23 621.74,-493.64 649,-509.5 664.17,-518.33 681.23,-528.11 694.87,-535.91"/>
<polygon fill="#63b8ff" stroke="#63b8ff" points="693.29,-539.03 703.71,-540.95 696.76,-532.95 693.29,-539.03"/>
</a>
</g>
</g>
<!-- Node14&#45;&gt;Node5 -->
<g id="edge16_Node000014_Node000005" class="edge">
<title>Node14&#45;&gt;Node5</title>
<g id="a_edge16_Node000014_Node000005"><a xlink:title=" ">
<path fill="none" stroke="#63b8ff" d="M769.11,-318.03C792.77,-322.86 821.71,-328.78 846.67,-333.88"/>
<polygon fill="#63b8ff" stroke="#63b8ff" points="846.23,-337.37 856.73,-335.94 847.64,-330.51 846.23,-337.37"/>
</a>
</g>
</g>
<!-- Node14&#45;&gt;Node6 -->
<g id="edge17_Node000014_Node000006" class="edge">
<title>Node14&#45;&gt;Node6</title>
<g id="a_edge17_Node000014_Node000006"><a xlink:title=" ">
<path fill="none" stroke="#63b8ff" d="M768.17,-298.91C792.49,-293.81 822.58,-287.49 848.21,-282.11"/>
<polygon fill="#63b8ff" stroke="#63b8ff" points="849.09,-285.5 858.15,-280.02 847.65,-278.65 849.09,-285.5"/>
</a>
</g>
</g>
<!-- Node15 -->
<g id="Node000015" class="node">
<title>Node15</title>
<g id="a_Node000015"><a xlink:href="../../dc/d25/classSymbolicExpr.html#ab03922681e30190ba7c73d2c1e58aa40" target="_top" xlink:title="创建幂运算表达式。">
<polygon fill="white" stroke="#666666" points="964,-318 845,-318 845,-299 964,-299 964,-318"/>
<text text-anchor="middle" x="904.5" y="-306" font-family="Helvetica,sans-Serif" font-size="10.00">SymbolicExpr::power</text>
</a>
</g>
</g>
<!-- Node14&#45;&gt;Node15 -->
<g id="edge18_Node000014_Node000015" class="edge">
<title>Node14&#45;&gt;Node15</title>
<g id="a_edge18_Node000014_Node000015"><a xlink:title=" ">
<path fill="none" stroke="#63b8ff" d="M781.27,-308.5C798.26,-308.5 816.97,-308.5 834.53,-308.5"/>
<polygon fill="#63b8ff" stroke="#63b8ff" points="834.72,-312 844.72,-308.5 834.72,-305 834.72,-312"/>
</a>
</g>
</g>
<!-- Node20&#45;&gt;Node17 -->
<g id="edge27_Node000020_Node000017" class="edge">
<title>Node20&#45;&gt;Node17</title>
<g id="a_edge27_Node000020_Node000017"><a xlink:title=" ">
<path fill="none" stroke="#63b8ff" d="M604.25,-564.33C617.91,-562.71 632.57,-560.96 646.72,-559.28"/>
<polygon fill="#63b8ff" stroke="#63b8ff" points="647.39,-562.72 656.91,-558.07 646.57,-555.77 647.39,-562.72"/>
</a>
</g>
</g>
<!-- Node21&#45;&gt;Node6 -->
<g id="edge31_Node000021_Node000006" class="edge">
<title>Node21&#45;&gt;Node6</title>
<g id="a_edge31_Node000021_Node000006"><a xlink:title=" ">
<path fill="none" stroke="#63b8ff" d="M595.13,-274.79C656.74,-273.93 760.71,-272.49 830.69,-271.51"/>
<polygon fill="#63b8ff" stroke="#63b8ff" points="830.81,-275.01 840.76,-271.37 830.72,-268.01 830.81,-275.01"/>
</a>
</g>
</g>
<!-- Node21&#45;&gt;Node9 -->
<g id="edge36_Node000021_Node000009" class="edge">
<title>Node21&#45;&gt;Node9</title>
<g id="a_edge36_Node000021_Node000009"><a xlink:title=" ">
<path fill="none" stroke="#63b8ff" d="M595.05,-263.06C619.1,-257.2 647.67,-250.24 671.46,-244.45"/>
<polygon fill="#63b8ff" stroke="#63b8ff" points="672.45,-247.81 681.34,-242.04 670.79,-241.01 672.45,-247.81"/>
</a>
</g>
</g>
<!-- Node21&#45;&gt;Node14 -->
<g id="edge30_Node000021_Node000014" class="edge">
<title>Node21&#45;&gt;Node14</title>
<g id="a_edge30_Node000021_Node000014"><a xlink:title=" ">
<path fill="none" stroke="#63b8ff" d="M595.05,-285.04C615.17,-288.81 638.46,-293.16 659.46,-297.09"/>
<polygon fill="#63b8ff" stroke="#63b8ff" points="659.09,-300.58 669.56,-298.98 660.38,-293.7 659.09,-300.58"/>
</a>
</g>
</g>
<!-- Node21&#45;&gt;Node22 -->
<g id="edge32_Node000021_Node000022" class="edge">
<title>Node21&#45;&gt;Node22</title>
<g id="a_edge32_Node000021_Node000022"><a xlink:title=" ">
<path fill="none" stroke="#63b8ff" d="M583.22,-290.62C593.09,-294.79 603.56,-299.55 613,-304.5 629.81,-313.32 631.57,-319.97 649,-327.5 653.65,-329.51 658.58,-331.33 663.58,-332.97"/>
<polygon fill="#63b8ff" stroke="#63b8ff" points="662.66,-336.34 673.24,-335.9 664.69,-329.65 662.66,-336.34"/>
</a>
</g>
</g>
<!-- Node22&#45;&gt;Node2 -->
<g id="edge33_Node000022_Node000002" class="edge">
<title>Node22&#45;&gt;Node2</title>
<g id="a_edge33_Node000022_Node000002"><a xlink:title=" ">
<path fill="none" stroke="#63b8ff" d="M730.75,-355.07C758.96,-387.8 851.86,-495.59 888.48,-538.07"/>
<polygon fill="#63b8ff" stroke="#63b8ff" points="886.02,-540.59 895.2,-545.87 891.33,-536.02 886.02,-540.59"/>
</a>
</g>
</g>
<!-- Node22&#45;&gt;Node5 -->
<g id="edge34_Node000022_Node000005" class="edge">
<title>Node22&#45;&gt;Node5</title>
<g id="a_edge34_Node000022_Node000005"><a xlink:title=" ">
<path fill="none" stroke="#63b8ff" d="M771.96,-345.5C789.7,-345.5 810.1,-345.5 829.47,-345.5"/>
<polygon fill="#63b8ff" stroke="#63b8ff" points="829.48,-349 839.48,-345.5 829.48,-342 829.48,-349"/>
</a>
</g>
</g>
<!-- Node22&#45;&gt;Node6 -->
<g id="edge35_Node000022_Node000006" class="edge">
<title>Node22&#45;&gt;Node6</title>
<g id="a_edge35_Node000022_Node000006"><a xlink:title=" ">
<path fill="none" stroke="#63b8ff" d="M771.65,-337.06C779.43,-334.63 787.15,-331.51 794,-327.5 814.08,-315.75 809.96,-301.31 830,-289.5 833.7,-287.32 837.66,-285.38 841.74,-283.67"/>
<polygon fill="#63b8ff" stroke="#63b8ff" points="843.28,-286.82 851.43,-280.05 840.83,-280.27 843.28,-286.82"/>
</a>
</g>
</g>
<!-- Node23&#45;&gt;Node8 -->
<g id="edge44_Node000023_Node000008" class="edge">
<title>Node23&#45;&gt;Node8</title>
<g id="a_edge44_Node000023_Node000008"><a xlink:title=" ">
<path fill="none" stroke="#63b8ff" d="M248.18,-54.97C273.79,-48.16 306.3,-39.8 320,-37.5 417.66,-21.11 442.97,-18.5 542,-18.5 542,-18.5 542,-18.5 722.5,-18.5 825.13,-18.5 942.09,-44.52 1011.75,-62.85"/>
<polygon fill="#63b8ff" stroke="#63b8ff" points="1011.11,-66.3 1021.67,-65.49 1012.91,-59.54 1011.11,-66.3"/>
</a>
</g>
</g>
<!-- Node24 -->
<g id="Node000024" class="node">
<title>Node24</title>
<g id="a_Node000024"><a xlink:href="../../d2/d6b/classSubstituteVisitor.html#aa058fe9fecbc4e0293622b177c53a226" target="_top" xlink:title=" ">
<polygon fill="white" stroke="#666666" points="430.5,-76.5 326.5,-76.5 326.5,-46.5 430.5,-46.5 430.5,-76.5"/>
<text text-anchor="start" x="334.5" y="-64.5" font-family="Helvetica,sans-Serif" font-size="10.00">SubstituteVisitor::</text>
<text text-anchor="middle" x="378.5" y="-53.5" font-family="Helvetica,sans-Serif" font-size="10.00">get_result</text>
</a>
</g>
</g>
<!-- Node23&#45;&gt;Node24 -->
<g id="edge45_Node000023_Node000024" class="edge">
<title>Node23&#45;&gt;Node24</title>
<g id="a_edge45_Node000023_Node000024"><a xlink:title=" ">
<path fill="none" stroke="#63b8ff" d="M281.33,-63.25C292.89,-63.04 304.83,-62.83 316.19,-62.62"/>
<polygon fill="#63b8ff" stroke="#63b8ff" points="316.5,-66.11 326.44,-62.43 316.37,-59.11 316.5,-66.11"/>
</a>
</g>
</g>
<!-- Node25&#45;&gt;Node25 -->
<g id="edge48_Node000025_Node000025" class="edge">
<title>Node25&#45;&gt;Node25</title>
<g id="a_edge48_Node000025_Node000025"><a xlink:title=" ">
<path fill="none" stroke="#63b8ff" d="M187.34,-19.08C175.34,-27.73 183.56,-37 212,-37 230.66,-37 240.62,-33.01 241.87,-27.82"/>
<polygon fill="#63b8ff" stroke="#63b8ff" points="244.79,-25.88 236.66,-19.08 238.77,-29.47 244.79,-25.88"/>
</a>
</g>
</g>
</g>
</svg>
