<?xml version="1.0" encoding="UTF-8" standalone="no"?>
<!DOCTYPE svg PUBLIC "-//W3C//DTD SVG 1.1//EN"
 "http://www.w3.org/Graphics/SVG/1.1/DTD/svg11.dtd">
<!-- Generated by graphviz version 2.43.0 (0)
 -->
<!-- Title: lamina::RelationStore::get_relations Pages: 1 -->
<svg width="475pt" height="56pt"
 viewBox="0.00 0.00 475.00 56.00" xmlns="http://www.w3.org/2000/svg" xmlns:xlink="http://www.w3.org/1999/xlink">
<g id="graph0" class="graph" transform="scale(1 1) rotate(0) translate(4 52)">
<title>lamina::RelationStore::get_relations</title>
<!-- Node1 -->
<g id="Node000001" class="node">
<title>Node1</title>
<g id="a_Node000001"><a xlink:title="Retrieve all stored relations.">
<polygon fill="#999999" stroke="#666666" points="467,-30 345,-30 345,0 467,0 467,-30"/>
<text text-anchor="start" x="353" y="-18" font-family="Helvetica,sans-Serif" font-size="10.00">lamina::RelationStore</text>
<text text-anchor="middle" x="406" y="-7" font-family="Helvetica,sans-Serif" font-size="10.00">::get_relations</text>
</a>
</g>
</g>
<!-- Node2 -->
<g id="Node000002" class="node">
<title>Node2</title>
<g id="a_Node000002"><a xlink:href="../../d1/d42/namespacelamina.html#afc17d632a1a0e29f914166b257c5b3aa" target="_top" xlink:title="Helper: collect positive integer exponents that appear in PowerNode expressions within the RelationSt...">
<polygon fill="white" stroke="#666666" points="309,-30 185,-30 185,0 309,0 309,-30"/>
<text text-anchor="start" x="193" y="-18" font-family="Helvetica,sans-Serif" font-size="10.00">lamina::collect_power</text>
<text text-anchor="middle" x="247" y="-7" font-family="Helvetica,sans-Serif" font-size="10.00">_exponents</text>
</a>
</g>
</g>
<!-- Node1&#45;&gt;Node2 -->
<g id="edge1_Node000001_Node000002" class="edge">
<title>Node1&#45;&gt;Node2</title>
<g id="a_edge1_Node000001_Node000002"><a xlink:title=" ">
<path fill="none" stroke="#63b8ff" d="M334.51,-15C326.04,-15 317.45,-15 309.13,-15"/>
<polygon fill="#63b8ff" stroke="#63b8ff" points="334.75,-18.5 344.75,-15 334.75,-11.5 334.75,-18.5"/>
</a>
</g>
</g>
<!-- Node3 -->
<g id="Node000003" class="node">
<title>Node3</title>
<g id="a_Node000003"><a xlink:href="../../d2/d48/classlamina_1_1InferenceEngine.html#af66eb3d82da75290aaeb1f9c7805e9c6" target="_top" xlink:title="Apply monotonicity deduction rules when a new relation is added.">
<polygon fill="white" stroke="#666666" points="149,-30 0,-30 0,0 149,0 149,-30"/>
<text text-anchor="start" x="8" y="-18" font-family="Helvetica,sans-Serif" font-size="10.00">lamina::InferenceEngine</text>
<text text-anchor="middle" x="74.5" y="-7" font-family="Helvetica,sans-Serif" font-size="10.00">::apply_monotonicity_rules</text>
</a>
</g>
</g>
<!-- Node2&#45;&gt;Node3 -->
<g id="edge2_Node000002_Node000003" class="edge">
<title>Node2&#45;&gt;Node3</title>
<g id="a_edge2_Node000002_Node000003"><a xlink:title=" ">
<path fill="none" stroke="#63b8ff" d="M174.76,-15C166.33,-15 157.72,-15 149.25,-15"/>
<polygon fill="#63b8ff" stroke="#63b8ff" points="174.93,-18.5 184.93,-15 174.93,-11.5 174.93,-18.5"/>
</a>
</g>
</g>
<!-- Node3&#45;&gt;Node3 -->
<g id="edge3_Node000003_Node000003" class="edge">
<title>Node3&#45;&gt;Node3</title>
<g id="a_edge3_Node000003_Node000003"><a xlink:title=" ">
<path fill="none" stroke="#63b8ff" d="M104.61,-40.6C100.49,-44.97 90.46,-48 74.5,-48 47.62,-48 37.55,-39.41 44.27,-30.28"/>
<polygon fill="#63b8ff" stroke="#63b8ff" points="108.11,-40.32 104.73,-30.28 101.11,-40.23 108.11,-40.32"/>
</a>
</g>
</g>
</g>
</svg>
