<?xml version="1.0" encoding="UTF-8" standalone="no"?>
<!DOCTYPE svg PUBLIC "-//W3C//DTD SVG 1.1//EN"
 "http://www.w3.org/Graphics/SVG/1.1/DTD/svg11.dtd">
<!-- Generated by graphviz version 2.43.0 (0)
 -->
<!-- Title: prime_cache_t Pages: 1 -->
<svg width="146pt" height="186pt"
 viewBox="0.00 0.00 146.00 186.00" xmlns="http://www.w3.org/2000/svg" xmlns:xlink="http://www.w3.org/1999/xlink">

<svg id="main" version="1.1" xmlns="http://www.w3.org/2000/svg" xmlns:xlink="http://www.w3.org/1999/xlink" xml:space="preserve" onload="init(evt)">
<style type="text/css"><![CDATA[
.node, .edge {opacity: 0.7;}
.node.selected, .edge.selected {opacity: 1;}
.edge:hover path { stroke: red; }
.edge:hover polygon { stroke: red; fill: red; }
]]></style>
<script type="application/ecmascript" xlink:href="../../svg.min.js"/>
<svg id="graph" class="graph">
<g id="graph0" class="graph" transform="scale(1 1) rotate(0) translate(4 182)">
<title>prime_cache_t</title>
<!-- Node1 -->
<g id="Node000001" class="node">
<title>Node1</title>
<g id="a_Node000001"><a xlink:title=" ">
<polygon fill="#999999" stroke="transparent" points="106,-49 24,-49 24,0 106,0 106,-49"/>
<text text-anchor="start" x="29" y="-36.5" font-family="Helvetica,sans-Serif" font-size="10.00">prime_cache_t</text>
<text text-anchor="start" x="63" y="-21.5" font-family="Helvetica,sans-Serif" font-size="10.00"> </text>
<text text-anchor="start" x="63" y="-6.5" font-family="Helvetica,sans-Serif" font-size="10.00"> </text>
<polygon fill="#666666" stroke="#666666" points="24,-31.5 24,-31.5 106,-31.5 106,-31.5 24,-31.5"/>
<polygon fill="#666666" stroke="#666666" points="24,-16.5 24,-16.5 106,-16.5 106,-16.5 24,-16.5"/>
<polygon fill="none" stroke="#666666" points="24,0 24,-49 106,-49 106,0 24,0"/>
</a>
</g>
</g>
<!-- Node2 -->
<g id="Node000002" class="node">
<title>Node2</title>
<g id="a_Node000002"><a xlink:title=" ">
<polygon fill="white" stroke="transparent" points="50,-178 0,-178 0,-129 50,-129 50,-178"/>
<text text-anchor="start" x="5" y="-165.5" font-family="Helvetica,sans-Serif" font-size="10.00">uint32_t</text>
<text text-anchor="start" x="23" y="-150.5" font-family="Helvetica,sans-Serif" font-size="10.00"> </text>
<text text-anchor="start" x="23" y="-135.5" font-family="Helvetica,sans-Serif" font-size="10.00"> </text>
<polygon fill="#666666" stroke="#666666" points="0,-160.5 0,-160.5 50,-160.5 50,-160.5 0,-160.5"/>
<polygon fill="#666666" stroke="#666666" points="0,-145.5 0,-145.5 50,-145.5 50,-145.5 0,-145.5"/>
<polygon fill="none" stroke="#666666" points="0,-129 0,-178 50,-178 50,-129 0,-129"/>
</a>
</g>
</g>
<!-- Node2&#45;&gt;Node1 -->
<g id="edge1_Node000001_Node000002" class="edge">
<title>Node2&#45;&gt;Node1</title>
<g id="a_edge1_Node000001_Node000002"><a xlink:title=" ">
<path fill="none" stroke="#63b8ff" d="M20.78,-128.74C18.68,-111.06 18.07,-86.69 26,-67 27.09,-64.29 28.45,-61.66 30,-59.11"/>
<polygon fill="none" stroke="#63b8ff" points="30.15,-58.9 30.48,-51.7 37.25,-49.22 36.93,-56.43 30.15,-58.9"/>
</a>
</g>
<text text-anchor="middle" x="54.5" y="-103" font-family="Helvetica,sans-Serif" font-size="10.00" fill="grey"> +end_num</text>
<text text-anchor="middle" x="54.5" y="-92" font-family="Helvetica,sans-Serif" font-size="10.00" fill="grey">+pp</text>
<text text-anchor="middle" x="54.5" y="-81" font-family="Helvetica,sans-Serif" font-size="10.00" fill="grey">+size</text>
<text text-anchor="middle" x="54.5" y="-70" font-family="Helvetica,sans-Serif" font-size="10.00" fill="grey">+start_idx</text>
</g>
<!-- Node3 -->
<g id="Node000003" class="node">
<title>Node3</title>
<g id="a_Node000003"><a xlink:title=" ">
<polygon fill="white" stroke="transparent" points="116.5,-178 93.5,-178 93.5,-129 116.5,-129 116.5,-178"/>
<text text-anchor="start" x="99" y="-165.5" font-family="Helvetica,sans-Serif" font-size="10.00">int</text>
<text text-anchor="start" x="103.5" y="-150.5" font-family="Helvetica,sans-Serif" font-size="10.00"> </text>
<text text-anchor="start" x="103.5" y="-135.5" font-family="Helvetica,sans-Serif" font-size="10.00"> </text>
<polygon fill="#666666" stroke="#666666" points="94,-160.5 94,-160.5 117,-160.5 117,-160.5 94,-160.5"/>
<polygon fill="#666666" stroke="#666666" points="94,-145.5 94,-145.5 117,-145.5 117,-145.5 94,-145.5"/>
<polygon fill="none" stroke="#666666" points="93.5,-129 93.5,-178 116.5,-178 116.5,-129 93.5,-129"/>
</a>
</g>
</g>
<!-- Node3&#45;&gt;Node1 -->
<g id="edge2_Node000001_Node000003" class="edge">
<title>Node3&#45;&gt;Node1</title>
<g id="a_edge2_Node000001_Node000003"><a xlink:title=" ">
<path fill="none" stroke="#63b8ff" d="M100,-128.98C96.06,-111.64 90.06,-87.59 83,-67 82.29,-64.92 81.51,-62.79 80.7,-60.66"/>
<polygon fill="none" stroke="#63b8ff" points="80.64,-60.5 74.67,-56.45 76.12,-49.39 82.09,-53.44 80.64,-60.5"/>
</a>
</g>
<text text-anchor="middle" x="116.5" y="-86.5" font-family="Helvetica,sans-Serif" font-size="10.00" fill="grey"> +is_end</text>
</g>
</g>
</svg>
</svg>

<style type='text/css'>
<![CDATA[
[data-mouse-over-selected='false'] { opacity: 0.7; }
[data-mouse-over-selected='true']  { opacity: 1.0; }
]]>
</style>
<script type="application/ecmascript"><![CDATA[
document.addEventListener('DOMContentLoaded', (event) => {
  highlightEdges();
  highlightAdjacentNodes();
});
]]></script>
</svg>
