<?xml version="1.0" encoding="UTF-8" standalone="no"?>
<!DOCTYPE svg PUBLIC "-//W3C//DTD SVG 1.1//EN"
 "http://www.w3.org/Graphics/SVG/1.1/DTD/svg11.dtd">
<!-- Generated by graphviz version 2.43.0 (0)
 -->
<!-- Title: lamina::ModInt Pages: 1 -->
<svg width="154pt" height="510pt"
 viewBox="0.00 0.00 154.00 510.00" xmlns="http://www.w3.org/2000/svg" xmlns:xlink="http://www.w3.org/1999/xlink">
<g id="graph0" class="graph" transform="scale(1 1) rotate(0) translate(4 506)">
<title>lamina::ModInt</title>
<!-- Node1 -->
<g id="Node000001" class="node">
<title>Node1</title>
<g id="a_Node000001"><a xlink:title="模整数类，封装模 p 下的算术运算">
<polygon fill="#999999" stroke="transparent" points="146,-395 0,-395 0,0 146,0 146,-395"/>
<text text-anchor="start" x="36" y="-382.5" font-family="Helvetica,sans-Serif" font-size="10.00">lamina::ModInt</text>
<text text-anchor="start" x="71" y="-367.5" font-family="Helvetica,sans-Serif" font-size="10.00"> </text>
<text text-anchor="start" x="4" y="-352.5" font-family="Helvetica,sans-Serif" font-size="10.00">+</text>
<text text-anchor="start" x="17" y="-352.5" font-family="Helvetica,sans-Serif" font-size="10.00">ModInt()</text>
<text text-anchor="start" x="4" y="-337.5" font-family="Helvetica,sans-Serif" font-size="10.00">+</text>
<text text-anchor="start" x="17" y="-337.5" font-family="Helvetica,sans-Serif" font-size="10.00">ModInt(int64_t v,</text>
<text text-anchor="start" x="17" y="-326.5" font-family="Helvetica,sans-Serif" font-size="10.00"> int64_t p)</text>
<text text-anchor="start" x="4" y="-311.5" font-family="Helvetica,sans-Serif" font-size="10.00">+</text>
<text text-anchor="start" x="17" y="-311.5" font-family="Helvetica,sans-Serif" font-size="10.00">ModInt inverse() const</text>
<text text-anchor="start" x="4" y="-296.5" font-family="Helvetica,sans-Serif" font-size="10.00">+</text>
<text text-anchor="start" x="17" y="-296.5" font-family="Helvetica,sans-Serif" font-size="10.00">bool is_zero() const</text>
<text text-anchor="start" x="4" y="-281.5" font-family="Helvetica,sans-Serif" font-size="10.00">+</text>
<text text-anchor="start" x="17" y="-281.5" font-family="Helvetica,sans-Serif" font-size="10.00">int64_t modulus() const</text>
<text text-anchor="start" x="4" y="-266.5" font-family="Helvetica,sans-Serif" font-size="10.00">+</text>
<text text-anchor="start" x="17" y="-266.5" font-family="Helvetica,sans-Serif" font-size="10.00">bool operator!=(const</text>
<text text-anchor="start" x="17" y="-255.5" font-family="Helvetica,sans-Serif" font-size="10.00"> ModInt &amp;other) const</text>
<text text-anchor="start" x="4" y="-240.5" font-family="Helvetica,sans-Serif" font-size="10.00">+</text>
<text text-anchor="start" x="17" y="-240.5" font-family="Helvetica,sans-Serif" font-size="10.00">ModInt operator*(const</text>
<text text-anchor="start" x="17" y="-229.5" font-family="Helvetica,sans-Serif" font-size="10.00"> ModInt &amp;other) const</text>
<text text-anchor="start" x="4" y="-214.5" font-family="Helvetica,sans-Serif" font-size="10.00">+</text>
<text text-anchor="start" x="17" y="-214.5" font-family="Helvetica,sans-Serif" font-size="10.00">ModInt operator+(const</text>
<text text-anchor="start" x="17" y="-203.5" font-family="Helvetica,sans-Serif" font-size="10.00"> ModInt &amp;other) const</text>
<text text-anchor="start" x="4" y="-188.5" font-family="Helvetica,sans-Serif" font-size="10.00">+</text>
<text text-anchor="start" x="17" y="-188.5" font-family="Helvetica,sans-Serif" font-size="10.00">ModInt operator&#45;()</text>
<text text-anchor="start" x="17" y="-177.5" font-family="Helvetica,sans-Serif" font-size="10.00"> const</text>
<text text-anchor="start" x="4" y="-162.5" font-family="Helvetica,sans-Serif" font-size="10.00">+</text>
<text text-anchor="start" x="17" y="-162.5" font-family="Helvetica,sans-Serif" font-size="10.00">ModInt operator&#45;(const</text>
<text text-anchor="start" x="17" y="-151.5" font-family="Helvetica,sans-Serif" font-size="10.00"> ModInt &amp;other) const</text>
<text text-anchor="start" x="4" y="-136.5" font-family="Helvetica,sans-Serif" font-size="10.00">+</text>
<text text-anchor="start" x="17" y="-136.5" font-family="Helvetica,sans-Serif" font-size="10.00">ModInt operator/(const</text>
<text text-anchor="start" x="17" y="-125.5" font-family="Helvetica,sans-Serif" font-size="10.00"> ModInt &amp;other) const</text>
<text text-anchor="start" x="4" y="-110.5" font-family="Helvetica,sans-Serif" font-size="10.00">+</text>
<text text-anchor="start" x="17" y="-110.5" font-family="Helvetica,sans-Serif" font-size="10.00">bool operator&lt;(const</text>
<text text-anchor="start" x="17" y="-99.5" font-family="Helvetica,sans-Serif" font-size="10.00"> ModInt &amp;other) const</text>
<text text-anchor="start" x="4" y="-84.5" font-family="Helvetica,sans-Serif" font-size="10.00">+</text>
<text text-anchor="start" x="17" y="-84.5" font-family="Helvetica,sans-Serif" font-size="10.00">bool operator==(const</text>
<text text-anchor="start" x="17" y="-73.5" font-family="Helvetica,sans-Serif" font-size="10.00"> ModInt &amp;other) const</text>
<text text-anchor="start" x="4" y="-58.5" font-family="Helvetica,sans-Serif" font-size="10.00">+</text>
<text text-anchor="start" x="17" y="-58.5" font-family="Helvetica,sans-Serif" font-size="10.00">bool operator&gt;(const</text>
<text text-anchor="start" x="17" y="-47.5" font-family="Helvetica,sans-Serif" font-size="10.00"> ModInt &amp;other) const</text>
<text text-anchor="start" x="4" y="-32.5" font-family="Helvetica,sans-Serif" font-size="10.00">+</text>
<text text-anchor="start" x="17" y="-32.5" font-family="Helvetica,sans-Serif" font-size="10.00">int64_t value() const</text>
<text text-anchor="start" x="4" y="-17.5" font-family="Helvetica,sans-Serif" font-size="10.00">+</text>
<text text-anchor="start" x="17" y="-17.5" font-family="Helvetica,sans-Serif" font-size="10.00">static ModInt pow(ModInt</text>
<text text-anchor="start" x="17" y="-6.5" font-family="Helvetica,sans-Serif" font-size="10.00"> base, int64_t exp)</text>
<polygon fill="#666666" stroke="#666666" points="0,-377.5 0,-377.5 146,-377.5 146,-377.5 0,-377.5"/>
<polygon fill="#666666" stroke="#666666" points="0,-362.5 0,-362.5 146,-362.5 146,-362.5 0,-362.5"/>
<polygon fill="none" stroke="#666666" points="0,0 0,-395 146,-395 146,0 0,0"/>
</a>
</g>
</g>
<!-- Node2 -->
<g id="Node000002" class="node">
<title>Node2</title>
<g id="a_Node000002"><a xlink:title=" ">
<polygon fill="white" stroke="transparent" points="95,-502 51,-502 51,-453 95,-453 95,-502"/>
<text text-anchor="start" x="56" y="-489.5" font-family="Helvetica,sans-Serif" font-size="10.00">int64_t</text>
<text text-anchor="start" x="71" y="-474.5" font-family="Helvetica,sans-Serif" font-size="10.00"> </text>
<text text-anchor="start" x="71" y="-459.5" font-family="Helvetica,sans-Serif" font-size="10.00"> </text>
<polygon fill="#666666" stroke="#666666" points="51,-484.5 51,-484.5 95,-484.5 95,-484.5 51,-484.5"/>
<polygon fill="#666666" stroke="#666666" points="51,-469.5 51,-469.5 95,-469.5 95,-469.5 51,-469.5"/>
<polygon fill="none" stroke="#666666" points="51,-453 51,-502 95,-502 95,-453 51,-453"/>
</a>
</g>
</g>
<!-- Node2&#45;&gt;Node1 -->
<g id="edge1_Node000001_Node000002" class="edge">
<title>Node2&#45;&gt;Node1</title>
<g id="a_edge1_Node000001_Node000002"><a xlink:title=" ">
<path fill="none" stroke="#63b8ff" d="M73,-452.8C73,-440.9 73,-425.25 73,-407.54"/>
<polygon fill="none" stroke="#63b8ff" points="73,-407.3 69,-401.3 73,-395.3 77,-401.3 73,-407.3"/>
</a>
</g>
<text text-anchor="middle" x="90" y="-427" font-family="Helvetica,sans-Serif" font-size="10.00" fill="grey"> &#45;mod_</text>
<text text-anchor="middle" x="90" y="-416" font-family="Helvetica,sans-Serif" font-size="10.00" fill="grey">&#45;val_</text>
</g>
</g>
</svg>
