<?xml version="1.0" encoding="UTF-8" standalone="no"?>
<!DOCTYPE svg PUBLIC "-//W3C//DTD SVG 1.1//EN"
 "http://www.w3.org/Graphics/SVG/1.1/DTD/svg11.dtd">
<!-- Generated by graphviz version 2.43.0 (0)
 -->
<!-- Title: lamina::PropertyStore::declare_domain Pages: 1 -->
<svg width="349pt" height="86pt"
 viewBox="0.00 0.00 349.00 86.00" xmlns="http://www.w3.org/2000/svg" xmlns:xlink="http://www.w3.org/1999/xlink">
<g id="graph0" class="graph" transform="scale(1 1) rotate(0) translate(4 82)">
<title>lamina::PropertyStore::declare_domain</title>
<!-- Node1 -->
<g id="Node000001" class="node">
<title>Node1</title>
<g id="a_Node000001"><a xlink:title="Declare domain for a symbol. Throws std::invalid_argument on contradiction.">
<polygon fill="#999999" stroke="#666666" points="123,-54 0,-54 0,-24 123,-24 123,-54"/>
<text text-anchor="start" x="8" y="-42" font-family="Helvetica,sans-Serif" font-size="10.00">lamina::PropertyStore</text>
<text text-anchor="middle" x="61.5" y="-31" font-family="Helvetica,sans-Serif" font-size="10.00">::declare_domain</text>
</a>
</g>
</g>
<!-- Node2 -->
<g id="Node000002" class="node">
<title>Node2</title>
<g id="a_Node000002"><a xlink:href="../../d3/dba/classlamina_1_1PropertyStore.html#a3f592649074a732225288ab5dbc49ea9" target="_top" xlink:title="Check domain&#45;sign cross&#45;constraints. Throws on contradiction.">
<polygon fill="white" stroke="#666666" points="341,-78 159,-78 159,-48 341,-48 341,-78"/>
<text text-anchor="start" x="167" y="-66" font-family="Helvetica,sans-Serif" font-size="10.00">lamina::PropertyStore</text>
<text text-anchor="middle" x="250" y="-55" font-family="Helvetica,sans-Serif" font-size="10.00">::check_domain_sign_consistency</text>
</a>
</g>
</g>
<!-- Node1&#45;&gt;Node2 -->
<g id="edge1_Node000001_Node000002" class="edge">
<title>Node1&#45;&gt;Node2</title>
<g id="a_edge1_Node000001_Node000002"><a xlink:title=" ">
<path fill="none" stroke="#63b8ff" d="M123.05,-46.79C131.4,-47.87 140.14,-48.99 148.97,-50.13"/>
<polygon fill="#63b8ff" stroke="#63b8ff" points="148.59,-53.61 158.96,-51.41 149.48,-46.66 148.59,-53.61"/>
</a>
</g>
</g>
<!-- Node3 -->
<g id="Node000003" class="node">
<title>Node3</title>
<g id="a_Node000003"><a xlink:href="../../d3/dba/classlamina_1_1PropertyStore.html#a467dbd4872e3901817ebc943aceb07f3" target="_top" xlink:title="Get the specificity level of a domain (higher = more specific).">
<polygon fill="white" stroke="#666666" points="311.5,-30 188.5,-30 188.5,0 311.5,0 311.5,-30"/>
<text text-anchor="start" x="196.5" y="-18" font-family="Helvetica,sans-Serif" font-size="10.00">lamina::PropertyStore</text>
<text text-anchor="middle" x="250" y="-7" font-family="Helvetica,sans-Serif" font-size="10.00">::domain_specificity</text>
</a>
</g>
</g>
<!-- Node1&#45;&gt;Node3 -->
<g id="edge2_Node000001_Node000003" class="edge">
<title>Node1&#45;&gt;Node3</title>
<g id="a_edge2_Node000001_Node000003"><a xlink:title=" ">
<path fill="none" stroke="#63b8ff" d="M123.05,-31.21C140.73,-28.93 160.2,-26.43 178.45,-24.08"/>
<polygon fill="#63b8ff" stroke="#63b8ff" points="178.96,-27.54 188.43,-22.79 178.07,-20.6 178.96,-27.54"/>
</a>
</g>
</g>
</g>
</svg>
