<?xml version="1.0" encoding="UTF-8" standalone="no"?>
<!DOCTYPE svg PUBLIC "-//W3C//DTD SVG 1.1//EN"
 "http://www.w3.org/Graphics/SVG/1.1/DTD/svg11.dtd">
<!-- Generated by graphviz version 2.43.0 (0)
 -->
<!-- Title: lamina::SymbolicPolyCoeff::SymbolicPolyCoeff Pages: 1 -->
<svg width="340pt" height="230pt"
 viewBox="0.00 0.00 340.00 230.00" xmlns="http://www.w3.org/2000/svg" xmlns:xlink="http://www.w3.org/1999/xlink">
<g id="graph0" class="graph" transform="scale(1 1) rotate(0) translate(4 226)">
<title>lamina::SymbolicPolyCoeff::SymbolicPolyCoeff</title>
<!-- Node1 -->
<g id="Node000001" class="node">
<title>Node1</title>
<g id="a_Node000001"><a xlink:title="默认构造，值为 0">
<polygon fill="#999999" stroke="#666666" points="332,-126 184,-126 184,-96 332,-96 332,-126"/>
<text text-anchor="start" x="192" y="-114" font-family="Helvetica,sans-Serif" font-size="10.00">lamina::SymbolicPolyCoeff</text>
<text text-anchor="middle" x="258" y="-103" font-family="Helvetica,sans-Serif" font-size="10.00">::SymbolicPolyCoeff</text>
</a>
</g>
</g>
<!-- Node2 -->
<g id="Node000002" class="node">
<title>Node2</title>
<g id="a_Node000002"><a xlink:href="../../d1/df9/structlamina_1_1SymbolicPolyCoeff.html#a657dbd548bb0794e5891e484d7d02d13" target="_top" xlink:title="乘法">
<polygon fill="white" stroke="#666666" points="148,-222 0,-222 0,-192 148,-192 148,-222"/>
<text text-anchor="start" x="8" y="-210" font-family="Helvetica,sans-Serif" font-size="10.00">lamina::SymbolicPolyCoeff</text>
<text text-anchor="middle" x="74" y="-199" font-family="Helvetica,sans-Serif" font-size="10.00">::operator*</text>
</a>
</g>
</g>
<!-- Node1&#45;&gt;Node2 -->
<g id="edge1_Node000001_Node000002" class="edge">
<title>Node1&#45;&gt;Node2</title>
<g id="a_edge1_Node000001_Node000002"><a xlink:title=" ">
<path fill="none" stroke="#63b8ff" d="M229.22,-132.36C207.89,-147.99 177.25,-168.85 148,-183 141.28,-186.25 134,-189.23 126.74,-191.9"/>
<polygon fill="#63b8ff" stroke="#63b8ff" points="231.53,-135 237.47,-126.23 227.36,-129.38 231.53,-135"/>
</a>
</g>
</g>
<!-- Node3 -->
<g id="Node000003" class="node">
<title>Node3</title>
<g id="a_Node000003"><a xlink:href="../../d1/df9/structlamina_1_1SymbolicPolyCoeff.html#a7d374badc84af329b837041cb6b578ec" target="_top" xlink:title="加法">
<polygon fill="white" stroke="#666666" points="148,-174 0,-174 0,-144 148,-144 148,-174"/>
<text text-anchor="start" x="8" y="-162" font-family="Helvetica,sans-Serif" font-size="10.00">lamina::SymbolicPolyCoeff</text>
<text text-anchor="middle" x="74" y="-151" font-family="Helvetica,sans-Serif" font-size="10.00">::operator+</text>
</a>
</g>
</g>
<!-- Node1&#45;&gt;Node3 -->
<g id="edge2_Node000001_Node000003" class="edge">
<title>Node1&#45;&gt;Node3</title>
<g id="a_edge2_Node000001_Node000003"><a xlink:title=" ">
<path fill="none" stroke="#63b8ff" d="M190.08,-128.65C170.97,-133.69 150.33,-139.13 131.88,-144"/>
<polygon fill="#63b8ff" stroke="#63b8ff" points="191.14,-131.99 199.91,-126.06 189.35,-125.22 191.14,-131.99"/>
</a>
</g>
</g>
<!-- Node4 -->
<g id="Node000004" class="node">
<title>Node4</title>
<g id="a_Node000004"><a xlink:href="../../d1/df9/structlamina_1_1SymbolicPolyCoeff.html#af19f9ef8600996c57e3dc021813d69c9" target="_top" xlink:title="取负">
<polygon fill="white" stroke="#666666" points="148,-126 0,-126 0,-96 148,-96 148,-126"/>
<text text-anchor="start" x="8" y="-114" font-family="Helvetica,sans-Serif" font-size="10.00">lamina::SymbolicPolyCoeff</text>
<text text-anchor="middle" x="74" y="-103" font-family="Helvetica,sans-Serif" font-size="10.00">::operator&#45;</text>
</a>
</g>
</g>
<!-- Node1&#45;&gt;Node4 -->
<g id="edge3_Node000001_Node000004" class="edge">
<title>Node1&#45;&gt;Node4</title>
<g id="a_edge3_Node000001_Node000004"><a xlink:title=" ">
<path fill="none" stroke="#63b8ff" d="M173.48,-111C165.01,-111 156.44,-111 148.09,-111"/>
<polygon fill="#63b8ff" stroke="#63b8ff" points="173.76,-114.5 183.76,-111 173.76,-107.5 173.76,-114.5"/>
</a>
</g>
</g>
<!-- Node5 -->
<g id="Node000005" class="node">
<title>Node5</title>
<g id="a_Node000005"><a xlink:href="../../d1/df9/structlamina_1_1SymbolicPolyCoeff.html#ae5654ccf2b73675f21b38186f7713d3b" target="_top" xlink:title="减法">
<polygon fill="white" stroke="#666666" points="148,-78 0,-78 0,-48 148,-48 148,-78"/>
<text text-anchor="start" x="8" y="-66" font-family="Helvetica,sans-Serif" font-size="10.00">lamina::SymbolicPolyCoeff</text>
<text text-anchor="middle" x="74" y="-55" font-family="Helvetica,sans-Serif" font-size="10.00">::operator&#45;</text>
</a>
</g>
</g>
<!-- Node1&#45;&gt;Node5 -->
<g id="edge4_Node000001_Node000005" class="edge">
<title>Node1&#45;&gt;Node5</title>
<g id="a_edge4_Node000001_Node000005"><a xlink:title=" ">
<path fill="none" stroke="#63b8ff" d="M190.08,-93.35C170.97,-88.31 150.33,-82.87 131.88,-78"/>
<polygon fill="#63b8ff" stroke="#63b8ff" points="189.35,-96.78 199.91,-95.94 191.14,-90.01 189.35,-96.78"/>
</a>
</g>
</g>
<!-- Node6 -->
<g id="Node000006" class="node">
<title>Node6</title>
<g id="a_Node000006"><a xlink:href="../../d1/df9/structlamina_1_1SymbolicPolyCoeff.html#a83b8373c3ab082326531fa5467163eef" target="_top" xlink:title="除法">
<polygon fill="white" stroke="#666666" points="148,-30 0,-30 0,0 148,0 148,-30"/>
<text text-anchor="start" x="8" y="-18" font-family="Helvetica,sans-Serif" font-size="10.00">lamina::SymbolicPolyCoeff</text>
<text text-anchor="middle" x="74" y="-7" font-family="Helvetica,sans-Serif" font-size="10.00">::operator/</text>
</a>
</g>
</g>
<!-- Node1&#45;&gt;Node6 -->
<g id="edge5_Node000001_Node000006" class="edge">
<title>Node1&#45;&gt;Node6</title>
<g id="a_edge5_Node000001_Node000006"><a xlink:title=" ">
<path fill="none" stroke="#63b8ff" d="M229.22,-89.64C207.89,-74.01 177.25,-53.15 148,-39 141.28,-35.75 134,-32.77 126.74,-30.1"/>
<polygon fill="#63b8ff" stroke="#63b8ff" points="227.36,-92.62 237.47,-95.77 231.53,-87 227.36,-92.62"/>
</a>
</g>
</g>
</g>
</svg>
