<?xml version="1.0" encoding="UTF-8" standalone="no"?>
<!DOCTYPE svg PUBLIC "-//W3C//DTD SVG 1.1//EN"
 "http://www.w3.org/Graphics/SVG/1.1/DTD/svg11.dtd">
<!-- Generated by graphviz version 2.43.0 (0)
 -->
<!-- Title: lamina::SymbolicPolyCoeff::operator&#45; Pages: 1 -->
<svg width="340pt" height="150pt"
 viewBox="0.00 0.00 340.00 149.50" xmlns="http://www.w3.org/2000/svg" xmlns:xlink="http://www.w3.org/1999/xlink">
<g id="graph0" class="graph" transform="scale(1 1) rotate(0) translate(4 145.5)">
<title>lamina::SymbolicPolyCoeff::operator&#45;</title>
<!-- Node1 -->
<g id="Node000001" class="node">
<title>Node1</title>
<g id="a_Node000001"><a xlink:title="减法">
<polygon fill="#999999" stroke="#666666" points="148,-79.5 0,-79.5 0,-49.5 148,-49.5 148,-79.5"/>
<text text-anchor="start" x="8" y="-67.5" font-family="Helvetica,sans-Serif" font-size="10.00">lamina::SymbolicPolyCoeff</text>
<text text-anchor="middle" x="74" y="-56.5" font-family="Helvetica,sans-Serif" font-size="10.00">::operator&#45;</text>
</a>
</g>
</g>
<!-- Node2 -->
<g id="Node000002" class="node">
<title>Node2</title>
<g id="a_Node000002"><a xlink:href="../../d1/df9/structlamina_1_1SymbolicPolyCoeff.html#a88a283e998541137ce46e1fb37cadb53" target="_top" xlink:title="默认构造，值为 0">
<polygon fill="white" stroke="#666666" points="332,-141.5 184,-141.5 184,-111.5 332,-111.5 332,-141.5"/>
<text text-anchor="start" x="192" y="-129.5" font-family="Helvetica,sans-Serif" font-size="10.00">lamina::SymbolicPolyCoeff</text>
<text text-anchor="middle" x="258" y="-118.5" font-family="Helvetica,sans-Serif" font-size="10.00">::SymbolicPolyCoeff</text>
</a>
</g>
</g>
<!-- Node1&#45;&gt;Node2 -->
<g id="edge1_Node000001_Node000002" class="edge">
<title>Node1&#45;&gt;Node2</title>
<g id="a_edge1_Node000001_Node000002"><a xlink:title=" ">
<path fill="none" stroke="#63b8ff" d="M117.65,-79.57C137.75,-86.61 162.08,-95.08 184,-102.5 189.5,-104.36 195.25,-106.29 200.99,-108.2"/>
<polygon fill="#63b8ff" stroke="#63b8ff" points="200.02,-111.57 210.62,-111.39 202.23,-104.92 200.02,-111.57"/>
</a>
</g>
</g>
<!-- Node3 -->
<g id="Node000003" class="node">
<title>Node3</title>
<g id="a_Node000003"><a xlink:href="../../dc/d25/classSymbolicExpr.html#ac8782568f037f8055277e5d8b80ec6d6" target="_top" xlink:title="创建加法表达式。">
<polygon fill="white" stroke="#666666" points="311.5,-93 204.5,-93 204.5,-74 311.5,-74 311.5,-93"/>
<text text-anchor="middle" x="258" y="-81" font-family="Helvetica,sans-Serif" font-size="10.00">SymbolicExpr::add</text>
</a>
</g>
</g>
<!-- Node1&#45;&gt;Node3 -->
<g id="edge2_Node000001_Node000003" class="edge">
<title>Node1&#45;&gt;Node3</title>
<g id="a_edge2_Node000001_Node000003"><a xlink:title=" ">
<path fill="none" stroke="#63b8ff" d="M148.24,-72.15C163.49,-73.74 179.43,-75.4 194.26,-76.95"/>
<polygon fill="#63b8ff" stroke="#63b8ff" points="194.02,-80.44 204.32,-78 194.74,-73.48 194.02,-80.44"/>
</a>
</g>
</g>
<!-- Node4 -->
<g id="Node000004" class="node">
<title>Node4</title>
<g id="a_Node000004"><a xlink:href="../../dc/d25/classSymbolicExpr.html#ad03189fc8a4db7762f7c1ca890674bbc" target="_top" xlink:title="创建乘法表达式。">
<polygon fill="white" stroke="#666666" points="323,-56 193,-56 193,-37 323,-37 323,-56"/>
<text text-anchor="middle" x="258" y="-44" font-family="Helvetica,sans-Serif" font-size="10.00">SymbolicExpr::multiply</text>
</a>
</g>
</g>
<!-- Node1&#45;&gt;Node4 -->
<g id="edge3_Node000001_Node000004" class="edge">
<title>Node1&#45;&gt;Node4</title>
<g id="a_edge3_Node000001_Node000004"><a xlink:title=" ">
<path fill="none" stroke="#63b8ff" d="M148.24,-57.26C159.7,-56.12 171.55,-54.95 183.03,-53.82"/>
<polygon fill="#63b8ff" stroke="#63b8ff" points="183.39,-57.3 192.99,-52.83 182.7,-50.33 183.39,-57.3"/>
</a>
</g>
</g>
<!-- Node5 -->
<g id="Node000005" class="node">
<title>Node5</title>
<g id="a_Node000005"><a xlink:href="../../dc/d25/classSymbolicExpr.html#adeb760bb6f4f28879108394537eca293" target="_top" xlink:title="创建整数数值表达式。">
<polygon fill="white" stroke="#666666" points="321.5,-19 194.5,-19 194.5,0 321.5,0 321.5,-19"/>
<text text-anchor="middle" x="258" y="-7" font-family="Helvetica,sans-Serif" font-size="10.00">SymbolicExpr::number</text>
</a>
</g>
</g>
<!-- Node1&#45;&gt;Node5 -->
<g id="edge4_Node000001_Node000005" class="edge">
<title>Node1&#45;&gt;Node5</title>
<g id="a_edge4_Node000001_Node000005"><a xlink:title=" ">
<path fill="none" stroke="#63b8ff" d="M118.29,-49.49C138.21,-42.77 162.21,-34.93 184,-28.5 191.86,-26.18 200.24,-23.86 208.41,-21.68"/>
<polygon fill="#63b8ff" stroke="#63b8ff" points="209.45,-25.03 218.23,-19.1 207.67,-18.26 209.45,-25.03"/>
</a>
</g>
</g>
</g>
</svg>
