<?xml version="1.0" encoding="UTF-8" standalone="no"?>
<!DOCTYPE svg PUBLIC "-//W3C//DTD SVG 1.1//EN"
 "http://www.w3.org/Graphics/SVG/1.1/DTD/svg11.dtd">
<!-- Generated by graphviz version 2.43.0 (0)
 -->
<!-- Title: lamina::SymbolicPolyCoeff::operator* Pages: 1 -->
<svg width="340pt" height="76pt"
 viewBox="0.00 0.00 340.00 75.50" xmlns="http://www.w3.org/2000/svg" xmlns:xlink="http://www.w3.org/1999/xlink">
<g id="graph0" class="graph" transform="scale(1 1) rotate(0) translate(4 71.5)">
<title>lamina::SymbolicPolyCoeff::operator*</title>
<!-- Node1 -->
<g id="Node000001" class="node">
<title>Node1</title>
<g id="a_Node000001"><a xlink:title="乘法">
<polygon fill="#999999" stroke="#666666" points="148,-45.5 0,-45.5 0,-15.5 148,-15.5 148,-45.5"/>
<text text-anchor="start" x="8" y="-33.5" font-family="Helvetica,sans-Serif" font-size="10.00">lamina::SymbolicPolyCoeff</text>
<text text-anchor="middle" x="74" y="-22.5" font-family="Helvetica,sans-Serif" font-size="10.00">::operator*</text>
</a>
</g>
</g>
<!-- Node2 -->
<g id="Node000002" class="node">
<title>Node2</title>
<g id="a_Node000002"><a xlink:href="../../d1/df9/structlamina_1_1SymbolicPolyCoeff.html#a88a283e998541137ce46e1fb37cadb53" target="_top" xlink:title="默认构造，值为 0">
<polygon fill="white" stroke="#666666" points="332,-67.5 184,-67.5 184,-37.5 332,-37.5 332,-67.5"/>
<text text-anchor="start" x="192" y="-55.5" font-family="Helvetica,sans-Serif" font-size="10.00">lamina::SymbolicPolyCoeff</text>
<text text-anchor="middle" x="258" y="-44.5" font-family="Helvetica,sans-Serif" font-size="10.00">::SymbolicPolyCoeff</text>
</a>
</g>
</g>
<!-- Node1&#45;&gt;Node2 -->
<g id="edge1_Node000001_Node000002" class="edge">
<title>Node1&#45;&gt;Node2</title>
<g id="a_edge1_Node000001_Node000002"><a xlink:title=" ">
<path fill="none" stroke="#63b8ff" d="M148.24,-39.35C156.69,-40.37 165.35,-41.42 173.92,-42.46"/>
<polygon fill="#63b8ff" stroke="#63b8ff" points="173.56,-45.94 183.91,-43.66 174.4,-38.99 173.56,-45.94"/>
</a>
</g>
</g>
<!-- Node3 -->
<g id="Node000003" class="node">
<title>Node3</title>
<g id="a_Node000003"><a xlink:href="../../dc/d25/classSymbolicExpr.html#ad03189fc8a4db7762f7c1ca890674bbc" target="_top" xlink:title="创建乘法表达式。">
<polygon fill="white" stroke="#666666" points="323,-19 193,-19 193,0 323,0 323,-19"/>
<text text-anchor="middle" x="258" y="-7" font-family="Helvetica,sans-Serif" font-size="10.00">SymbolicExpr::multiply</text>
</a>
</g>
</g>
<!-- Node1&#45;&gt;Node3 -->
<g id="edge2_Node000001_Node000003" class="edge">
<title>Node1&#45;&gt;Node3</title>
<g id="a_edge2_Node000001_Node000003"><a xlink:title=" ">
<path fill="none" stroke="#63b8ff" d="M148.24,-22.05C159.7,-20.73 171.55,-19.36 183.03,-18.04"/>
<polygon fill="#63b8ff" stroke="#63b8ff" points="183.46,-21.51 192.99,-16.89 182.66,-14.55 183.46,-21.51"/>
</a>
</g>
</g>
</g>
</svg>
