<?xml version="1.0" encoding="UTF-8" standalone="no"?>
<!DOCTYPE svg PUBLIC "-//W3C//DTD SVG 1.1//EN"
 "http://www.w3.org/Graphics/SVG/1.1/DTD/svg11.dtd">
<!-- Generated by graphviz version 2.43.0 (0)
 -->
<!-- Title: lamina::SymbolicPolyCoeff::operator/ Pages: 1 -->
<svg width="506pt" height="113pt"
 viewBox="0.00 0.00 506.00 112.50" xmlns="http://www.w3.org/2000/svg" xmlns:xlink="http://www.w3.org/1999/xlink">
<g id="graph0" class="graph" transform="scale(1 1) rotate(0) translate(4 108.5)">
<title>lamina::SymbolicPolyCoeff::operator/</title>
<!-- Node1 -->
<g id="Node000001" class="node">
<title>Node1</title>
<g id="a_Node000001"><a xlink:title="除法">
<polygon fill="#999999" stroke="#666666" points="148,-82.5 0,-82.5 0,-52.5 148,-52.5 148,-82.5"/>
<text text-anchor="start" x="8" y="-70.5" font-family="Helvetica,sans-Serif" font-size="10.00">lamina::SymbolicPolyCoeff</text>
<text text-anchor="middle" x="74" y="-59.5" font-family="Helvetica,sans-Serif" font-size="10.00">::operator/</text>
</a>
</g>
</g>
<!-- Node2 -->
<g id="Node000002" class="node">
<title>Node2</title>
<g id="a_Node000002"><a xlink:href="../../d1/df9/structlamina_1_1SymbolicPolyCoeff.html#a88a283e998541137ce46e1fb37cadb53" target="_top" xlink:title="默认构造，值为 0">
<polygon fill="white" stroke="#666666" points="332,-104.5 184,-104.5 184,-74.5 332,-74.5 332,-104.5"/>
<text text-anchor="start" x="192" y="-92.5" font-family="Helvetica,sans-Serif" font-size="10.00">lamina::SymbolicPolyCoeff</text>
<text text-anchor="middle" x="258" y="-81.5" font-family="Helvetica,sans-Serif" font-size="10.00">::SymbolicPolyCoeff</text>
</a>
</g>
</g>
<!-- Node1&#45;&gt;Node2 -->
<g id="edge1_Node000001_Node000002" class="edge">
<title>Node1&#45;&gt;Node2</title>
<g id="a_edge1_Node000001_Node000002"><a xlink:title=" ">
<path fill="none" stroke="#63b8ff" d="M148.24,-76.35C156.69,-77.37 165.35,-78.42 173.92,-79.46"/>
<polygon fill="#63b8ff" stroke="#63b8ff" points="173.56,-82.94 183.91,-80.66 174.4,-75.99 173.56,-82.94"/>
</a>
</g>
</g>
<!-- Node3 -->
<g id="Node000003" class="node">
<title>Node3</title>
<g id="a_Node000003"><a xlink:href="../../dc/d25/classSymbolicExpr.html#aea4c251b3fd9994c77fb8b26dae96d5f" target="_top" xlink:title="执行符号除法。">
<polygon fill="white" stroke="#666666" points="317.5,-56 198.5,-56 198.5,-37 317.5,-37 317.5,-56"/>
<text text-anchor="middle" x="258" y="-44" font-family="Helvetica,sans-Serif" font-size="10.00">SymbolicExpr::divide</text>
</a>
</g>
</g>
<!-- Node1&#45;&gt;Node3 -->
<g id="edge2_Node000001_Node000003" class="edge">
<title>Node1&#45;&gt;Node3</title>
<g id="a_edge2_Node000001_Node000003"><a xlink:title=" ">
<path fill="none" stroke="#63b8ff" d="M148.24,-59.05C161.41,-57.53 175.1,-55.95 188.14,-54.45"/>
<polygon fill="#63b8ff" stroke="#63b8ff" points="188.91,-57.88 198.44,-53.26 188.11,-50.93 188.91,-57.88"/>
</a>
</g>
</g>
<!-- Node4 -->
<g id="Node000004" class="node">
<title>Node4</title>
<g id="a_Node000004"><a xlink:href="../../dc/d25/classSymbolicExpr.html#ad03189fc8a4db7762f7c1ca890674bbc" target="_top" xlink:title="创建乘法表达式。">
<polygon fill="white" stroke="#666666" points="498,-93 368,-93 368,-74 498,-74 498,-93"/>
<text text-anchor="middle" x="433" y="-81" font-family="Helvetica,sans-Serif" font-size="10.00">SymbolicExpr::multiply</text>
</a>
</g>
</g>
<!-- Node3&#45;&gt;Node4 -->
<g id="edge3_Node000003_Node000004" class="edge">
<title>Node3&#45;&gt;Node4</title>
<g id="a_edge3_Node000003_Node000004"><a xlink:title=" ">
<path fill="none" stroke="#63b8ff" d="M303.55,-56.03C326.07,-60.84 353.58,-66.73 377.36,-71.81"/>
<polygon fill="#63b8ff" stroke="#63b8ff" points="376.79,-75.27 387.3,-73.94 378.25,-68.43 376.79,-75.27"/>
</a>
</g>
</g>
<!-- Node5 -->
<g id="Node000005" class="node">
<title>Node5</title>
<g id="a_Node000005"><a xlink:href="../../dc/d25/classSymbolicExpr.html#adeb760bb6f4f28879108394537eca293" target="_top" xlink:title="创建整数数值表达式。">
<polygon fill="white" stroke="#666666" points="496.5,-56 369.5,-56 369.5,-37 496.5,-37 496.5,-56"/>
<text text-anchor="middle" x="433" y="-44" font-family="Helvetica,sans-Serif" font-size="10.00">SymbolicExpr::number</text>
</a>
</g>
</g>
<!-- Node3&#45;&gt;Node5 -->
<g id="edge4_Node000003_Node000005" class="edge">
<title>Node3&#45;&gt;Node5</title>
<g id="a_edge4_Node000003_Node000005"><a xlink:title=" ">
<path fill="none" stroke="#63b8ff" d="M317.57,-46.5C330.98,-46.5 345.39,-46.5 359.31,-46.5"/>
<polygon fill="#63b8ff" stroke="#63b8ff" points="359.34,-50 369.34,-46.5 359.34,-43 359.34,-50"/>
</a>
</g>
</g>
<!-- Node6 -->
<g id="Node000006" class="node">
<title>Node6</title>
<g id="a_Node000006"><a xlink:href="../../dc/d25/classSymbolicExpr.html#ab03922681e30190ba7c73d2c1e58aa40" target="_top" xlink:title="创建幂运算表达式。">
<polygon fill="white" stroke="#666666" points="492.5,-19 373.5,-19 373.5,0 492.5,0 492.5,-19"/>
<text text-anchor="middle" x="433" y="-7" font-family="Helvetica,sans-Serif" font-size="10.00">SymbolicExpr::power</text>
</a>
</g>
</g>
<!-- Node3&#45;&gt;Node6 -->
<g id="edge5_Node000003_Node000006" class="edge">
<title>Node3&#45;&gt;Node6</title>
<g id="a_edge5_Node000003_Node000006"><a xlink:title=" ">
<path fill="none" stroke="#63b8ff" d="M303.55,-36.97C326.07,-32.16 353.58,-26.27 377.36,-21.19"/>
<polygon fill="#63b8ff" stroke="#63b8ff" points="378.25,-24.57 387.3,-19.06 376.79,-17.73 378.25,-24.57"/>
</a>
</g>
</g>
</g>
</svg>
