<?xml version="1.0" encoding="UTF-8" standalone="no"?>
<!DOCTYPE svg PUBLIC "-//W3C//DTD SVG 1.1//EN"
 "http://www.w3.org/Graphics/SVG/1.1/DTD/svg11.dtd">
<!-- Generated by graphviz version 2.43.0 (0)
 -->
<!-- Title: lamina::FGLMPoly::LM Pages: 1 -->
<svg width="825pt" height="83pt"
 viewBox="0.00 0.00 825.00 82.97" xmlns="http://www.w3.org/2000/svg" xmlns:xlink="http://www.w3.org/1999/xlink">
<g id="graph0" class="graph" transform="scale(1 1) rotate(0) translate(4 78.97)">
<title>lamina::FGLMPoly::LM</title>
<!-- Node1 -->
<g id="Node000001" class="node">
<title>Node1</title>
<g id="a_Node000001"><a xlink:title="获取首项单项式">
<polygon fill="#999999" stroke="#666666" points="817,-57 692,-57 692,-38 817,-38 817,-57"/>
<text text-anchor="middle" x="754.5" y="-45" font-family="Helvetica,sans-Serif" font-size="10.00">lamina::FGLMPoly::LM</text>
</a>
</g>
</g>
<!-- Node2 -->
<g id="Node000002" class="node">
<title>Node2</title>
<g id="a_Node000002"><a xlink:href="../../d1/d42/namespacelamina.html#a387809128cf1f5566dde45ba3b8738f6" target="_top" xlink:title="FGLM 算法：将零维理想的 Gröbner 基从源序转换到目标序">
<polygon fill="white" stroke="#666666" points="285,-57 164,-57 164,-38 285,-38 285,-57"/>
<text text-anchor="middle" x="224.5" y="-45" font-family="Helvetica,sans-Serif" font-size="10.00">lamina::fglm_convert</text>
</a>
</g>
</g>
<!-- Node1&#45;&gt;Node2 -->
<g id="edge1_Node000001_Node000002" class="edge">
<title>Node1&#45;&gt;Node2</title>
<g id="a_edge1_Node000001_Node000002"><a xlink:title=" ">
<path fill="none" stroke="#63b8ff" d="M684.86,-58.36C675.19,-59.6 665.36,-60.7 656,-61.5 507.64,-74.18 469.19,-81.1 321,-66.5 302.16,-64.64 281.52,-60.78 264.27,-57.01"/>
<polygon fill="#63b8ff" stroke="#63b8ff" points="685.4,-61.82 694.85,-57.03 684.47,-54.88 685.4,-61.82"/>
</a>
</g>
</g>
<!-- Node4 -->
<g id="Node000004" class="node">
<title>Node4</title>
<g id="a_Node000004"><a xlink:href="../../d1/d42/namespacelamina.html#a8158996699ada9d74093e788797ae563" target="_top" xlink:title="判断理想是否为零维（每个变量都有纯幂次首项）">
<polygon fill="white" stroke="#666666" points="477,-57 321,-57 321,-38 477,-38 477,-57"/>
<text text-anchor="middle" x="399" y="-45" font-family="Helvetica,sans-Serif" font-size="10.00">lamina::is_zero_dimensional</text>
</a>
</g>
</g>
<!-- Node1&#45;&gt;Node4 -->
<g id="edge3_Node000001_Node000004" class="edge">
<title>Node1&#45;&gt;Node4</title>
<g id="a_edge3_Node000001_Node000004"><a xlink:title=" ">
<path fill="none" stroke="#63b8ff" d="M681.87,-47.5C622.45,-47.5 538.13,-47.5 477.22,-47.5"/>
<polygon fill="#63b8ff" stroke="#63b8ff" points="681.93,-51 691.92,-47.5 681.92,-44 681.93,-51"/>
</a>
</g>
</g>
<!-- Node5 -->
<g id="Node000005" class="node">
<title>Node5</title>
<g id="a_Node000005"><a xlink:href="../../d4/d4e/structlamina_1_1FGLMPoly.html#aac6abd7b0ee2df21ac10794a675244a0" target="_top" xlink:title="对给定基进行多项式约化">
<polygon fill="white" stroke="#666666" points="656,-19 513,-19 513,0 656,0 656,-19"/>
<text text-anchor="middle" x="584.5" y="-7" font-family="Helvetica,sans-Serif" font-size="10.00">lamina::FGLMPoly::reduce</text>
</a>
</g>
</g>
<!-- Node1&#45;&gt;Node5 -->
<g id="edge5_Node000001_Node000005" class="edge">
<title>Node1&#45;&gt;Node5</title>
<g id="a_edge5_Node000001_Node000005"><a xlink:title=" ">
<path fill="none" stroke="#63b8ff" d="M701.22,-35.68C677.54,-30.32 649.91,-24.07 627.59,-19.02"/>
<polygon fill="#63b8ff" stroke="#63b8ff" points="700.58,-39.12 711.11,-37.91 702.13,-32.29 700.58,-39.12"/>
</a>
</g>
</g>
<!-- Node3 -->
<g id="Node000003" class="node">
<title>Node3</title>
<g id="a_Node000003"><a xlink:href="../../d1/d42/namespacelamina.html#a4db520f151a16a160e64695caf60f9ac" target="_top" xlink:title="将 GrevLex 序下的 Gröbner 基转换为 Lex 序">
<polygon fill="white" stroke="#666666" points="128,-57 0,-57 0,-38 128,-38 128,-57"/>
<text text-anchor="middle" x="64" y="-45" font-family="Helvetica,sans-Serif" font-size="10.00">lamina::grevlex_to_lex</text>
</a>
</g>
</g>
<!-- Node2&#45;&gt;Node3 -->
<g id="edge2_Node000002_Node000003" class="edge">
<title>Node2&#45;&gt;Node3</title>
<g id="a_edge2_Node000002_Node000003"><a xlink:title=" ">
<path fill="none" stroke="#63b8ff" d="M153.42,-47.5C145.02,-47.5 136.48,-47.5 128.18,-47.5"/>
<polygon fill="#63b8ff" stroke="#63b8ff" points="153.58,-51 163.58,-47.5 153.58,-44 153.58,-51"/>
</a>
</g>
</g>
<!-- Node4&#45;&gt;Node2 -->
<g id="edge4_Node000004_Node000002" class="edge">
<title>Node4&#45;&gt;Node2</title>
<g id="a_edge4_Node000004_Node000002"><a xlink:title=" ">
<path fill="none" stroke="#63b8ff" d="M310.65,-47.5C301.97,-47.5 293.3,-47.5 285,-47.5"/>
<polygon fill="#63b8ff" stroke="#63b8ff" points="310.83,-51 320.83,-47.5 310.83,-44 310.83,-51"/>
</a>
</g>
</g>
<!-- Node6 -->
<g id="Node000006" class="node">
<title>Node6</title>
<g id="a_Node000006"><a xlink:href="../../d1/d42/namespacelamina.html#a615da511a869f4ba0daf5754985bad01" target="_top" xlink:title="计算多项式关于基的标准形（余式）">
<polygon fill="white" stroke="#666666" points="458.5,-20 339.5,-20 339.5,-1 458.5,-1 458.5,-20"/>
<text text-anchor="middle" x="399" y="-8" font-family="Helvetica,sans-Serif" font-size="10.00">lamina::normal_form</text>
</a>
</g>
</g>
<!-- Node5&#45;&gt;Node6 -->
<g id="edge6_Node000005_Node000006" class="edge">
<title>Node5&#45;&gt;Node6</title>
<g id="a_edge6_Node000005_Node000006"><a xlink:title=" ">
<path fill="none" stroke="#63b8ff" d="M502.66,-9.94C487.89,-10.02 472.72,-10.1 458.74,-10.18"/>
<polygon fill="#63b8ff" stroke="#63b8ff" points="502.84,-13.44 512.82,-9.89 502.8,-6.44 502.84,-13.44"/>
</a>
</g>
</g>
<!-- Node6&#45;&gt;Node2 -->
<g id="edge7_Node000006_Node000002" class="edge">
<title>Node6&#45;&gt;Node2</title>
<g id="a_edge7_Node000006_Node000002"><a xlink:title=" ">
<path fill="none" stroke="#63b8ff" d="M343.68,-22.15C319.98,-27.23 292.54,-33.12 270.07,-37.94"/>
<polygon fill="#63b8ff" stroke="#63b8ff" points="344.53,-25.55 353.58,-20.03 343.07,-18.7 344.53,-25.55"/>
</a>
</g>
</g>
</g>
</svg>
