<?xml version="1.0" encoding="UTF-8" standalone="no"?>
<!DOCTYPE svg PUBLIC "-//W3C//DTD SVG 1.1//EN"
 "http://www.w3.org/Graphics/SVG/1.1/DTD/svg11.dtd">
<!-- Generated by graphviz version 2.43.0 (0)
 -->
<!-- Title: lamina::FGLMPoly::sort_terms Pages: 1 -->
<svg width="792pt" height="52pt"
 viewBox="0.00 0.00 792.00 51.50" xmlns="http://www.w3.org/2000/svg" xmlns:xlink="http://www.w3.org/1999/xlink">
<g id="graph0" class="graph" transform="scale(1 1) rotate(0) translate(4 47.5)">
<title>lamina::FGLMPoly::sort_terms</title>
<!-- Node1 -->
<g id="Node000001" class="node">
<title>Node1</title>
<g id="a_Node000001"><a xlink:title="按指定单项式序排序各项">
<polygon fill="#999999" stroke="#666666" points="784,-43.5 655,-43.5 655,-13.5 784,-13.5 784,-43.5"/>
<text text-anchor="start" x="663" y="-31.5" font-family="Helvetica,sans-Serif" font-size="10.00">lamina::FGLMPoly::sort</text>
<text text-anchor="middle" x="719.5" y="-20.5" font-family="Helvetica,sans-Serif" font-size="10.00">_terms</text>
</a>
</g>
</g>
<!-- Node2 -->
<g id="Node000002" class="node">
<title>Node2</title>
<g id="a_Node000002"><a xlink:href="../../d1/d42/namespacelamina.html#a387809128cf1f5566dde45ba3b8738f6" target="_top" xlink:title="FGLM 算法：将零维理想的 Gröbner 基从源序转换到目标序">
<polygon fill="white" stroke="#666666" points="285,-38 164,-38 164,-19 285,-19 285,-38"/>
<text text-anchor="middle" x="224.5" y="-26" font-family="Helvetica,sans-Serif" font-size="10.00">lamina::fglm_convert</text>
</a>
</g>
</g>
<!-- Node1&#45;&gt;Node2 -->
<g id="edge1_Node000001_Node000002" class="edge">
<title>Node1&#45;&gt;Node2</title>
<g id="a_edge1_Node000001_Node000002"><a xlink:title=" ">
<path fill="none" stroke="#63b8ff" d="M644.68,-28.5C546.67,-28.5 375.46,-28.5 285.16,-28.5"/>
<polygon fill="#63b8ff" stroke="#63b8ff" points="644.81,-32 654.81,-28.5 644.81,-25 644.81,-32"/>
</a>
</g>
</g>
<!-- Node4 -->
<g id="Node000004" class="node">
<title>Node4</title>
<g id="a_Node000004"><a xlink:href="../../d4/d4e/structlamina_1_1FGLMPoly.html#aac6abd7b0ee2df21ac10794a675244a0" target="_top" xlink:title="对给定基进行多项式约化">
<polygon fill="white" stroke="#666666" points="619,-19 476,-19 476,0 619,0 619,-19"/>
<text text-anchor="middle" x="547.5" y="-7" font-family="Helvetica,sans-Serif" font-size="10.00">lamina::FGLMPoly::reduce</text>
</a>
</g>
</g>
<!-- Node1&#45;&gt;Node4 -->
<g id="edge3_Node000001_Node000004" class="edge">
<title>Node1&#45;&gt;Node4</title>
<g id="a_edge3_Node000001_Node000004"><a xlink:title=" ">
<path fill="none" stroke="#63b8ff" d="M644.55,-20.23C636.13,-19.29 627.57,-18.34 619.2,-17.4"/>
<polygon fill="#63b8ff" stroke="#63b8ff" points="644.39,-23.74 654.71,-21.37 645.17,-16.78 644.39,-23.74"/>
</a>
</g>
</g>
<!-- Node3 -->
<g id="Node000003" class="node">
<title>Node3</title>
<g id="a_Node000003"><a xlink:href="../../d1/d42/namespacelamina.html#a4db520f151a16a160e64695caf60f9ac" target="_top" xlink:title="将 GrevLex 序下的 Gröbner 基转换为 Lex 序">
<polygon fill="white" stroke="#666666" points="128,-38 0,-38 0,-19 128,-19 128,-38"/>
<text text-anchor="middle" x="64" y="-26" font-family="Helvetica,sans-Serif" font-size="10.00">lamina::grevlex_to_lex</text>
</a>
</g>
</g>
<!-- Node2&#45;&gt;Node3 -->
<g id="edge2_Node000002_Node000003" class="edge">
<title>Node2&#45;&gt;Node3</title>
<g id="a_edge2_Node000002_Node000003"><a xlink:title=" ">
<path fill="none" stroke="#63b8ff" d="M153.42,-28.5C145.02,-28.5 136.48,-28.5 128.18,-28.5"/>
<polygon fill="#63b8ff" stroke="#63b8ff" points="153.58,-32 163.58,-28.5 153.58,-25 153.58,-32"/>
</a>
</g>
</g>
<!-- Node5 -->
<g id="Node000005" class="node">
<title>Node5</title>
<g id="a_Node000005"><a xlink:href="../../d1/d42/namespacelamina.html#a615da511a869f4ba0daf5754985bad01" target="_top" xlink:title="计算多项式关于基的标准形（余式）">
<polygon fill="white" stroke="#666666" points="440,-19 321,-19 321,0 440,0 440,-19"/>
<text text-anchor="middle" x="380.5" y="-7" font-family="Helvetica,sans-Serif" font-size="10.00">lamina::normal_form</text>
</a>
</g>
</g>
<!-- Node4&#45;&gt;Node5 -->
<g id="edge4_Node000004_Node000005" class="edge">
<title>Node4&#45;&gt;Node5</title>
<g id="a_edge4_Node000004_Node000005"><a xlink:title=" ">
<path fill="none" stroke="#63b8ff" d="M465.56,-9.5C457.02,-9.5 448.44,-9.5 440.22,-9.5"/>
<polygon fill="#63b8ff" stroke="#63b8ff" points="465.57,-13 475.57,-9.5 465.57,-6 465.57,-13"/>
</a>
</g>
</g>
<!-- Node5&#45;&gt;Node2 -->
<g id="edge5_Node000005_Node000002" class="edge">
<title>Node5&#45;&gt;Node2</title>
<g id="a_edge5_Node000005_Node000002"><a xlink:title=" ">
<path fill="none" stroke="#63b8ff" d="M310.83,-17.97C302.22,-19.03 293.47,-20.11 285.02,-21.16"/>
<polygon fill="#63b8ff" stroke="#63b8ff" points="311.34,-21.44 320.84,-16.74 310.49,-14.49 311.34,-21.44"/>
</a>
</g>
</g>
</g>
</svg>
