<?xml version="1.0" encoding="UTF-8" standalone="no"?>
<!DOCTYPE svg PUBLIC "-//W3C//DTD SVG 1.1//EN"
 "http://www.w3.org/Graphics/SVG/1.1/DTD/svg11.dtd">
<!-- Generated by graphviz version 2.43.0 (0)
 -->
<!-- Title: SymbolicExpr::sin Pages: 1 -->
<!--zoomable 321 -->

<svg id="main" version="1.1" xmlns="http://www.w3.org/2000/svg" xmlns:xlink="http://www.w3.org/1999/xlink" xml:space="preserve" onload="init(evt)">
<style type="text/css"><![CDATA[
.node, .edge {opacity: 0.7;}
.node.selected, .edge.selected {opacity: 1;}
.edge:hover path { stroke: red; }
.edge:hover polygon { stroke: red; fill: red; }
]]></style>

<defs>
  <circle id="rim" cx="0" cy="0" r="7"/>
  <circle id="rim2" cx="0" cy="0" r="3.5"/>
  <g id="zoomPlus">
    <use xlink:href="#rim" fill="#404040"><set attributeName="fill" to="#808080" begin="zoomplus.mouseover" end="zoomplus.mouseout"/></use>
    <path d="M-4,0h8M0,-4v8" fill="none" stroke="white" stroke-width="1.5" pointer-events="none"/>
  </g>
  <g id="zoomMin">
    <use xlink:href="#rim" fill="#404040"><set attributeName="fill" to="#808080" begin="zoomminus.mouseover" end="zoomminus.mouseout"/></use>
    <path d="M-4,0h8" fill="none" stroke="white" stroke-width="1.5" pointer-events="none"/>
  </g>
  <g id="arrowUp" transform="translate(30 24)">
    <use xlink:href="#rim"/>
    <path pointer-events="none" fill="none" stroke="white" stroke-width="1.5" d="M0,-3.0v7 M-2.5,-0.5L0,-3.0L2.5,-0.5"/>
  </g>
  <g id="arrowRight" transform="rotate(90) translate(36 -43)">
    <use xlink:href="#rim"/>
    <path pointer-events="none" fill="none" stroke="white" stroke-width="1.5" d="M0,-3.0v7 M-2.5,-0.5L0,-3.0L2.5,-0.5"/>
  </g>
  <g id="arrowDown" transform="rotate(180) translate(-30 -48)">
    <use xlink:href="#rim"/>
    <path pointer-events="none" fill="none" stroke="white" stroke-width="1.5" d="M0,-3.0v7 M-2.5,-0.5L0,-3.0L2.5,-0.5"/>
  </g>
  <g id="arrowLeft" transform="rotate(270) translate(-36 17)">
    <use xlink:href="#rim"/>
    <path pointer-events="none" fill="none" stroke="white" stroke-width="1.5" d="M0,-3.0v7 M-2.5,-0.5L0,-3.0L2.5,-0.5"/>
  </g>
  <g id="resetDef">
    <use xlink:href="#rim2" fill="#404040"><set attributeName="fill" to="#808080" begin="reset.mouseover" end="reset.mouseout"/></use>
  </g>
</defs>
<script type="application/ecmascript">
var viewWidth = 508;
var viewHeight = 321;
var sectionId = 'dynsection-50';
</script>
<script type="application/ecmascript" xlink:href="../../svg.min.js"/>
<svg id="graph" class="graph">
<g id="viewport">
<title>SymbolicExpr::sin</title>
<!-- Node1 -->
<g id="Node000001" class="node">
<title>Node1</title>
<g id="a_Node000001"><a xlink:title="创建正弦函数表达式。">
<polygon fill="#999999" stroke="#666666" points="500,-128.5 396,-128.5 396,-109.5 500,-109.5 500,-128.5"/>
<text text-anchor="middle" x="448" y="-116.5" font-family="Helvetica,sans-Serif" font-size="10.00">SymbolicExpr::sin</text>
</a>
</g>
</g>
<!-- Node2 -->
<g id="Node000002" class="node">
<title>Node2</title>
<g id="a_Node000002"><a xlink:href="../../d1/d42/namespacelamina.html#a03dd5c6cd76d4a204af7dbdd103ff63e" target="_top" xlink:title="将极坐标形式转换为指数形式复数 r*e^(i*theta)">
<polygon fill="white" stroke="#666666" points="347.5,-269.5 197.5,-269.5 197.5,-250.5 347.5,-250.5 347.5,-269.5"/>
<text text-anchor="middle" x="272.5" y="-257.5" font-family="Helvetica,sans-Serif" font-size="10.00">lamina::complex_exp_form</text>
</a>
</g>
</g>
<!-- Node1&#45;&gt;Node2 -->
<g id="edge1_Node000001_Node000002" class="edge">
<title>Node1&#45;&gt;Node2</title>
<g id="a_edge1_Node000001_Node000002"><a xlink:title=" ">
<path fill="none" stroke="#63b8ff" d="M438.55,-137.98C425.61,-164.78 398.3,-213.31 360,-239 352.81,-243.82 344.63,-247.54 336.23,-250.4"/>
<polygon fill="#63b8ff" stroke="#63b8ff" points="441.89,-139.1 442.94,-128.56 435.54,-136.15 441.89,-139.1"/>
</a>
</g>
</g>
<!-- Node5 -->
<g id="Node000005" class="node">
<title>Node5</title>
<g id="a_Node000005"><a xlink:href="../../dd/d53/classlamina_1_1IntegrationTable.html#a21ddbd52d7dbbff5d40bfc737f8ed465" target="_top" xlink:title="加载默认积分规则表">
<polygon fill="white" stroke="#666666" points="340,-230 205,-230 205,-200 340,-200 340,-230"/>
<text text-anchor="start" x="213" y="-218" font-family="Helvetica,sans-Serif" font-size="10.00">lamina::IntegrationTable</text>
<text text-anchor="middle" x="272.5" y="-207" font-family="Helvetica,sans-Serif" font-size="10.00">::load_defaults</text>
</a>
</g>
</g>
<!-- Node1&#45;&gt;Node5 -->
<g id="edge4_Node000001_Node000005" class="edge">
<title>Node1&#45;&gt;Node5</title>
<g id="a_edge4_Node000001_Node000005"><a xlink:title=" ">
<path fill="none" stroke="#63b8ff" d="M430.55,-135.92C414.07,-151.97 387.3,-175.68 360,-190 352.8,-193.77 344.96,-197.05 337.03,-199.87"/>
<polygon fill="#63b8ff" stroke="#63b8ff" points="433.15,-138.27 437.76,-128.74 428.21,-133.31 433.15,-138.27"/>
</a>
</g>
</g>
<!-- Node7 -->
<g id="Node000007" class="node">
<title>Node7</title>
<g id="a_Node000007"><a xlink:href="../../d3/db9/namespacelamina_1_1anonymous__namespace_02integration_8cpp_03.html#af55ac8202726b1103c72ca5de688b87e" target="_top" xlink:title=" ">
<polygon fill="white" stroke="#666666" points="360,-163.5 185,-163.5 185,-122.5 360,-122.5 360,-163.5"/>
<text text-anchor="start" x="193" y="-151.5" font-family="Helvetica,sans-Serif" font-size="10.00">lamina::anonymous_namespace</text>
<text text-anchor="start" x="193" y="-140.5" font-family="Helvetica,sans-Serif" font-size="10.00">{integration::cpp}::make</text>
<text text-anchor="middle" x="272.5" y="-129.5" font-family="Helvetica,sans-Serif" font-size="10.00">_sin_scaled</text>
</a>
</g>
</g>
<!-- Node1&#45;&gt;Node7 -->
<g id="edge6_Node000001_Node000007" class="edge">
<title>Node1&#45;&gt;Node7</title>
<g id="a_edge6_Node000001_Node000007"><a xlink:title=" ">
<path fill="none" stroke="#63b8ff" d="M385.87,-127.46C377.49,-128.61 368.77,-129.82 360.05,-131.03"/>
<polygon fill="#63b8ff" stroke="#63b8ff" points="386.46,-130.91 395.88,-126.07 385.5,-123.97 386.46,-130.91"/>
</a>
</g>
</g>
<!-- Node8 -->
<g id="Node000008" class="node">
<title>Node8</title>
<g id="a_Node000008"><a xlink:href="../../dc/d25/classSymbolicExpr.html#a924742ae29dfeb8394a8e86bb7b84061" target="_top" xlink:title="对表达式进行三角恒等式化简。">
<polygon fill="white" stroke="#666666" points="347.5,-104.5 197.5,-104.5 197.5,-85.5 347.5,-85.5 347.5,-104.5"/>
<text text-anchor="middle" x="272.5" y="-92.5" font-family="Helvetica,sans-Serif" font-size="10.00">SymbolicExpr::simplify_trig</text>
</a>
</g>
</g>
<!-- Node1&#45;&gt;Node8 -->
<g id="edge8_Node000001_Node000008" class="edge">
<title>Node1&#45;&gt;Node8</title>
<g id="a_edge8_Node000001_Node000008"><a xlink:title=" ">
<path fill="none" stroke="#63b8ff" d="M385.82,-110.54C371.73,-108.59 356.65,-106.5 342.26,-104.51"/>
<polygon fill="#63b8ff" stroke="#63b8ff" points="385.5,-114.03 395.88,-111.93 386.46,-107.09 385.5,-114.03"/>
</a>
</g>
</g>
<!-- Node9 -->
<g id="Node000009" class="node">
<title>Node9</title>
<g id="a_Node000009"><a xlink:href="../../d1/d42/namespacelamina.html#a385f9e86b7fe9aa5f14961d7e73a9d69" target="_top" xlink:title="求解二阶常系数线性 ODE：a*y&#39;&#39; + b*y&#39; + c*y = f(x)">
<polygon fill="white" stroke="#666666" points="345,-67.5 200,-67.5 200,-48.5 345,-48.5 345,-67.5"/>
<text text-anchor="middle" x="272.5" y="-55.5" font-family="Helvetica,sans-Serif" font-size="10.00">lamina::solve_linear2_ode</text>
</a>
</g>
</g>
<!-- Node1&#45;&gt;Node9 -->
<g id="edge9_Node000001_Node000009" class="edge">
<title>Node1&#45;&gt;Node9</title>
<g id="a_edge9_Node000001_Node000009"><a xlink:title=" ">
<path fill="none" stroke="#63b8ff" d="M422.11,-104.58C405.1,-95.26 381.77,-83.51 360,-76 350.43,-72.7 340.04,-69.9 329.9,-67.57"/>
<polygon fill="#63b8ff" stroke="#63b8ff" points="420.42,-107.65 430.86,-109.46 423.84,-101.53 420.42,-107.65"/>
</a>
</g>
</g>
<!-- Node10 -->
<g id="Node000010" class="node">
<title>Node10</title>
<g id="a_Node000010"><a xlink:href="../../d5/df5/classlamina_1_1SubstitutionStrategy.html#aa5741eb5f049e1715a540334ca94f7c8" target="_top" xlink:title="尝试对表达式进行积分">
<polygon fill="white" stroke="#666666" points="350.5,-30 194.5,-30 194.5,0 350.5,0 350.5,-30"/>
<text text-anchor="start" x="202.5" y="-18" font-family="Helvetica,sans-Serif" font-size="10.00">lamina::SubstitutionStrategy</text>
<text text-anchor="middle" x="272.5" y="-7" font-family="Helvetica,sans-Serif" font-size="10.00">::try_integrate</text>
</a>
</g>
</g>
<!-- Node1&#45;&gt;Node10 -->
<g id="edge10_Node000001_Node000010" class="edge">
<title>Node1&#45;&gt;Node10</title>
<g id="a_edge10_Node000001_Node000010"><a xlink:title=" ">
<path fill="none" stroke="#63b8ff" d="M432.3,-101.23C416.32,-83.04 389.13,-55.18 360,-39 353.87,-35.59 347.22,-32.64 340.43,-30.1"/>
<polygon fill="#63b8ff" stroke="#63b8ff" points="430.05,-103.98 439.21,-109.3 435.36,-99.43 430.05,-103.98"/>
</a>
</g>
</g>
<!-- Node3 -->
<g id="Node000003" class="node">
<title>Node3</title>
<g id="a_Node000003"><a xlink:href="../../d1/d42/namespacelamina.html#a39e1596dbc4d1307a4c4b224b6f85fac" target="_top" xlink:title="将极坐标形式转换为三角形式复数 r*(cos(theta) + i*sin(theta))">
<polygon fill="white" stroke="#666666" points="149,-312.5 0,-312.5 0,-293.5 149,-293.5 149,-312.5"/>
<text text-anchor="middle" x="74.5" y="-300.5" font-family="Helvetica,sans-Serif" font-size="10.00">lamina::complex_trig_form</text>
</a>
</g>
</g>
<!-- Node2&#45;&gt;Node3 -->
<g id="edge2_Node000002_Node000003" class="edge">
<title>Node2&#45;&gt;Node3</title>
<g id="a_edge2_Node000002_Node000003"><a xlink:title=" ">
<path fill="none" stroke="#63b8ff" d="M218.17,-271.7C187,-278.54 148.16,-287.06 118.88,-293.48"/>
<polygon fill="#63b8ff" stroke="#63b8ff" points="218.98,-275.1 228,-269.54 217.48,-268.27 218.98,-275.1"/>
</a>
</g>
</g>
<!-- Node4 -->
<g id="Node000004" class="node">
<title>Node4</title>
<g id="a_Node000004"><a xlink:href="../../d1/d42/namespacelamina.html#a33f111aacac7819ddffa8c4259368014" target="_top" xlink:title="求复数 c 的 n 次方根">
<polygon fill="white" stroke="#666666" points="139.5,-275 9.5,-275 9.5,-245 139.5,-245 139.5,-275"/>
<text text-anchor="start" x="17.5" y="-263" font-family="Helvetica,sans-Serif" font-size="10.00">lamina::solve_complex</text>
<text text-anchor="middle" x="74.5" y="-252" font-family="Helvetica,sans-Serif" font-size="10.00">_nth_root</text>
</a>
</g>
</g>
<!-- Node2&#45;&gt;Node4 -->
<g id="edge3_Node000002_Node000004" class="edge">
<title>Node2&#45;&gt;Node4</title>
<g id="a_edge3_Node000002_Node000004"><a xlink:title=" ">
<path fill="none" stroke="#63b8ff" d="M187.07,-260C171.21,-260 154.87,-260 139.76,-260"/>
<polygon fill="#63b8ff" stroke="#63b8ff" points="187.4,-263.5 197.4,-260 187.4,-256.5 187.4,-263.5"/>
</a>
</g>
</g>
<!-- Node6 -->
<g id="Node000006" class="node">
<title>Node6</title>
<g id="a_Node000006"><a xlink:href="../../dd/d53/classlamina_1_1IntegrationTable.html#a54f098fe1df05477433e0ece3e3ee7e9" target="_top" xlink:title=" ">
<polygon fill="white" stroke="#666666" points="142,-227 7,-227 7,-197 142,-197 142,-227"/>
<text text-anchor="start" x="15" y="-215" font-family="Helvetica,sans-Serif" font-size="10.00">lamina::IntegrationTable</text>
<text text-anchor="middle" x="74.5" y="-204" font-family="Helvetica,sans-Serif" font-size="10.00">::IntegrationTable</text>
</a>
</g>
</g>
<!-- Node5&#45;&gt;Node6 -->
<g id="edge5_Node000005_Node000006" class="edge">
<title>Node5&#45;&gt;Node6</title>
<g id="a_edge5_Node000005_Node000006"><a xlink:title=" ">
<path fill="none" stroke="#63b8ff" d="M194.79,-213.83C177.45,-213.56 159.17,-213.28 142.28,-213.02"/>
<polygon fill="#63b8ff" stroke="#63b8ff" points="194.82,-217.33 204.87,-213.98 194.92,-210.33 194.82,-217.33"/>
</a>
</g>
</g>
<!-- Node7&#45;&gt;Node7 -->
<g id="edge7_Node000007_Node000007" class="edge">
<title>Node7&#45;&gt;Node7</title>
<g id="a_edge7_Node000007_Node000007"><a xlink:title=" ">
<path fill="none" stroke="#63b8ff" d="M302.44,-173.46C297.98,-178.24 288.01,-181.5 272.5,-181.5 247.69,-181.5 237.03,-173.15 240.52,-163.6"/>
<polygon fill="#63b8ff" stroke="#63b8ff" points="305.88,-174.1 304.48,-163.6 299.02,-172.68 305.88,-174.1"/>
</a>
</g>
</g>
</g>
</svg>

<g id="navigator" transform="translate(0 0)" fill="#404254">
  <rect fill="#f2f5e9" fill-opacity="0.5" stroke="#606060" stroke-width=".5" x="0" y="0" width="60" height="60"/>
  <use id="zoomplus" xlink:href="#zoomPlus" x="17" y="9" onmousedown="handleZoom(evt,'in')"/>
  <use id="zoomminus" xlink:href="#zoomMin" x="42" y="9" onmousedown="handleZoom(evt,'out')"/>
  <use id="reset" xlink:href="#resetDef" x="30" y="36" onmousedown="handleReset()"/>
   <use id="arrowup" xlink:href="#arrowUp" x="0" y="0" onmousedown="handlePan(0,-1)"/>
  <use id="arrowright" xlink:href="#arrowRight" x="0" y="0" onmousedown="handlePan(1,0)"/>
  <use id="arrowdown" xlink:href="#arrowDown" x="0" y="0" onmousedown="handlePan(0,1)"/>
  <use id="arrowleft" xlink:href="#arrowLeft" x="0" y="0" onmousedown="handlePan(-1,0)"/>
</g>
<svg viewBox="0 0 15 15" width="100%" height="30px" preserveAspectRatio="xMaxYMin meet">
 <g id="arrow_out" transform="scale(0.3 0.3)">
  <a xlink:href="classSymbolicExpr_acf968244f234151f7a9718921733fd04_icgraph_org.svg" target="_base">
   <rect id="button" ry="5" rx="5" y="6" x="6" height="38" width="38"
        fill="#f2f5e9" fill-opacity="0.5" stroke="#606060" stroke-width="1.0"/>
   <path id="arrow"
     d="M 11.500037,31.436501 C 11.940474,20.09759 22.043105,11.32322 32.158766,21.979434 L 37.068811,17.246167 C 37.068811,17.246167 37.088388,32 37.088388,32 L 22.160133,31.978069 C 22.160133,31.978069 26.997745,27.140456 26.997745,27.140456 C 18.528582,18.264221 13.291696,25.230495 11.500037,31.436501 z"
     style="fill:#404040;"/>
  </a>
 </g>
</svg>

<style type='text/css'>
<![CDATA[
[data-mouse-over-selected='false'] { opacity: 0.7; }
[data-mouse-over-selected='true']  { opacity: 1.0; }
]]>
</style>
<script type="application/ecmascript"><![CDATA[
document.addEventListener('DOMContentLoaded', (event) => {
  highlightEdges();
  highlightAdjacentNodes();
});
]]></script>
</svg>
