<?xml version="1.0" encoding="UTF-8" standalone="no"?>
<!DOCTYPE svg PUBLIC "-//W3C//DTD SVG 1.1//EN"
 "http://www.w3.org/Graphics/SVG/1.1/DTD/svg11.dtd">
<!-- Generated by graphviz version 2.43.0 (0)
 -->
<!-- Title: SymbolicExpr::integrate Pages: 1 -->
<!--zoomable 453 -->

<svg id="main" version="1.1" xmlns="http://www.w3.org/2000/svg" xmlns:xlink="http://www.w3.org/1999/xlink" xml:space="preserve" onload="init(evt)">
<style type="text/css"><![CDATA[
.node, .edge {opacity: 0.7;}
.node.selected, .edge.selected {opacity: 1;}
.edge:hover path { stroke: red; }
.edge:hover polygon { stroke: red; fill: red; }
]]></style>

<defs>
  <circle id="rim" cx="0" cy="0" r="7"/>
  <circle id="rim2" cx="0" cy="0" r="3.5"/>
  <g id="zoomPlus">
    <use xlink:href="#rim" fill="#404040"><set attributeName="fill" to="#808080" begin="zoomplus.mouseover" end="zoomplus.mouseout"/></use>
    <path d="M-4,0h8M0,-4v8" fill="none" stroke="white" stroke-width="1.5" pointer-events="none"/>
  </g>
  <g id="zoomMin">
    <use xlink:href="#rim" fill="#404040"><set attributeName="fill" to="#808080" begin="zoomminus.mouseover" end="zoomminus.mouseout"/></use>
    <path d="M-4,0h8" fill="none" stroke="white" stroke-width="1.5" pointer-events="none"/>
  </g>
  <g id="arrowUp" transform="translate(30 24)">
    <use xlink:href="#rim"/>
    <path pointer-events="none" fill="none" stroke="white" stroke-width="1.5" d="M0,-3.0v7 M-2.5,-0.5L0,-3.0L2.5,-0.5"/>
  </g>
  <g id="arrowRight" transform="rotate(90) translate(36 -43)">
    <use xlink:href="#rim"/>
    <path pointer-events="none" fill="none" stroke="white" stroke-width="1.5" d="M0,-3.0v7 M-2.5,-0.5L0,-3.0L2.5,-0.5"/>
  </g>
  <g id="arrowDown" transform="rotate(180) translate(-30 -48)">
    <use xlink:href="#rim"/>
    <path pointer-events="none" fill="none" stroke="white" stroke-width="1.5" d="M0,-3.0v7 M-2.5,-0.5L0,-3.0L2.5,-0.5"/>
  </g>
  <g id="arrowLeft" transform="rotate(270) translate(-36 17)">
    <use xlink:href="#rim"/>
    <path pointer-events="none" fill="none" stroke="white" stroke-width="1.5" d="M0,-3.0v7 M-2.5,-0.5L0,-3.0L2.5,-0.5"/>
  </g>
  <g id="resetDef">
    <use xlink:href="#rim2" fill="#404040"><set attributeName="fill" to="#808080" begin="reset.mouseover" end="reset.mouseout"/></use>
  </g>
</defs>
<script type="application/ecmascript">
var viewWidth = 1132;
var viewHeight = 453;
var sectionId = 'dynsection-25';
</script>
<script type="application/ecmascript" xlink:href="../../svg.min.js"/>
<svg id="graph" class="graph">
<g id="viewport">
<title>SymbolicExpr::integrate</title>
<!-- Node1 -->
<g id="Node000001" class="node">
<title>Node1</title>
<g id="a_Node000001"><a xlink:title="计算不定积分。">
<polygon fill="#999999" stroke="#666666" points="134,-406.5 0,-406.5 0,-387.5 134,-387.5 134,-406.5"/>
<text text-anchor="middle" x="67" y="-394.5" font-family="Helvetica,sans-Serif" font-size="10.00">SymbolicExpr::integrate</text>
</a>
</g>
</g>
<!-- Node2 -->
<g id="Node000002" class="node">
<title>Node2</title>
<g id="a_Node000002"><a xlink:href="../../d8/dbb/classlamina_1_1Integrator.html#ad041f93ff9d1cca47ad39439338ec2e5" target="_top" xlink:title="计算不定积分">
<polygon fill="white" stroke="#666666" points="274,-412 170,-412 170,-382 274,-382 274,-412"/>
<text text-anchor="start" x="178" y="-400" font-family="Helvetica,sans-Serif" font-size="10.00">lamina::Integrator</text>
<text text-anchor="middle" x="222" y="-389" font-family="Helvetica,sans-Serif" font-size="10.00">::integrate</text>
</a>
</g>
</g>
<!-- Node1&#45;&gt;Node2 -->
<g id="edge1_Node000001_Node000002" class="edge">
<title>Node1&#45;&gt;Node2</title>
<g id="a_edge1_Node000001_Node000002"><a xlink:title=" ">
<path fill="none" stroke="#63b8ff" d="M134.22,-397C142.72,-397 151.39,-397 159.8,-397"/>
<polygon fill="#63b8ff" stroke="#63b8ff" points="159.9,-400.5 169.9,-397 159.9,-393.5 159.9,-400.5"/>
</a>
</g>
</g>
<!-- Node3 -->
<g id="Node000003" class="node">
<title>Node3</title>
<g id="a_Node000003"><a xlink:href="../../d8/dbb/classlamina_1_1Integrator.html#a933c2400bb71a25a6f1e81c5cab0130b" target="_top" xlink:title=" ">
<polygon fill="white" stroke="#666666" points="585,-412 481,-412 481,-382 585,-382 585,-412"/>
<text text-anchor="start" x="489" y="-400" font-family="Helvetica,sans-Serif" font-size="10.00">lamina::Integrator</text>
<text text-anchor="middle" x="533" y="-389" font-family="Helvetica,sans-Serif" font-size="10.00">::apply_linearity</text>
</a>
</g>
</g>
<!-- Node2&#45;&gt;Node3 -->
<g id="edge2_Node000002_Node000003" class="edge">
<title>Node2&#45;&gt;Node3</title>
<g id="a_edge2_Node000002_Node000003"><a xlink:title=" ">
<path fill="none" stroke="#63b8ff" d="M274.03,-391.83C328.03,-389.84 413.27,-389.73 470.84,-391.49"/>
<polygon fill="#63b8ff" stroke="#63b8ff" points="470.79,-394.99 480.9,-391.83 471.02,-388 470.79,-394.99"/>
</a>
</g>
</g>
<!-- Node11 -->
<g id="Node000011" class="node">
<title>Node11</title>
<g id="a_Node000011"><a xlink:href="../../d8/dbb/classlamina_1_1Integrator.html#af8e2012a43068412619b9afa2a5188c7" target="_top" xlink:title="递归积分入口">
<polygon fill="white" stroke="#666666" points="427,-219 310,-219 310,-189 427,-189 427,-219"/>
<text text-anchor="start" x="318" y="-207" font-family="Helvetica,sans-Serif" font-size="10.00">lamina::Integrator</text>
<text text-anchor="middle" x="368.5" y="-196" font-family="Helvetica,sans-Serif" font-size="10.00">::integrate_recursive</text>
</a>
</g>
</g>
<!-- Node2&#45;&gt;Node11 -->
<g id="edge12_Node000002_Node000011" class="edge">
<title>Node2&#45;&gt;Node11</title>
<g id="a_edge12_Node000002_Node000011"><a xlink:title=" ">
<path fill="none" stroke="#63b8ff" d="M234.34,-381.86C259.5,-348.24 320.16,-267.23 350.14,-227.19"/>
<polygon fill="#63b8ff" stroke="#63b8ff" points="353.02,-229.18 356.21,-219.07 347.42,-224.98 353.02,-229.18"/>
</a>
</g>
</g>
<!-- Node3&#45;&gt;Node2 -->
<g id="edge3_Node000003_Node000002" class="edge">
<title>Node3&#45;&gt;Node2</title>
<g id="a_edge3_Node000003_Node000002"><a xlink:title=" ">
<path fill="none" stroke="#63b8ff" d="M480.9,-402.17C426.86,-404.16 341.63,-404.27 284.08,-402.5"/>
<polygon fill="#63b8ff" stroke="#63b8ff" points="284.14,-399 274.03,-402.17 283.9,-406 284.14,-399"/>
</a>
</g>
</g>
<!-- Node4 -->
<g id="Node000004" class="node">
<title>Node4</title>
<g id="a_Node000004"><a xlink:href="../../dc/d25/classSymbolicExpr.html#ad03189fc8a4db7762f7c1ca890674bbc" target="_top" xlink:title="创建乘法表达式。">
<polygon fill="white" stroke="#666666" points="959.5,-210.5 829.5,-210.5 829.5,-191.5 959.5,-191.5 959.5,-210.5"/>
<text text-anchor="middle" x="894.5" y="-198.5" font-family="Helvetica,sans-Serif" font-size="10.00">SymbolicExpr::multiply</text>
</a>
</g>
</g>
<!-- Node3&#45;&gt;Node4 -->
<g id="edge4_Node000003_Node000004" class="edge">
<title>Node3&#45;&gt;Node4</title>
<g id="a_edge4_Node000003_Node000004"><a xlink:title=" ">
<path fill="none" stroke="#63b8ff" d="M585.19,-383.24C591.5,-380.4 597.61,-377.02 603,-373 624.95,-356.63 616.47,-338.57 639,-323 693.9,-285.06 731.3,-324.95 784,-284 809.77,-263.98 794.13,-239.9 820,-220 822.35,-218.19 824.86,-216.55 827.47,-215.07"/>
<polygon fill="#63b8ff" stroke="#63b8ff" points="829.23,-218.11 836.71,-210.61 826.19,-211.81 829.23,-218.11"/>
</a>
</g>
</g>
<!-- Node5 -->
<g id="Node000005" class="node">
<title>Node5</title>
<g id="a_Node000005"><a xlink:href="../../dc/d25/classSymbolicExpr.html#adeb760bb6f4f28879108394537eca293" target="_top" xlink:title="创建整数数值表达式。">
<polygon fill="white" stroke="#666666" points="958,-387.5 831,-387.5 831,-368.5 958,-368.5 958,-387.5"/>
<text text-anchor="middle" x="894.5" y="-375.5" font-family="Helvetica,sans-Serif" font-size="10.00">SymbolicExpr::number</text>
</a>
</g>
</g>
<!-- Node3&#45;&gt;Node5 -->
<g id="edge5_Node000003_Node000005" class="edge">
<title>Node3&#45;&gt;Node5</title>
<g id="a_edge5_Node000003_Node000005"><a xlink:title=" ">
<path fill="none" stroke="#63b8ff" d="M585.31,-397.98C635.91,-398.52 715.4,-398.23 784,-393 796.88,-392.02 810.56,-390.51 823.73,-388.83"/>
<polygon fill="#63b8ff" stroke="#63b8ff" points="824.23,-392.3 833.68,-387.52 823.31,-385.36 824.23,-392.3"/>
</a>
</g>
</g>
<!-- Node6 -->
<g id="Node000006" class="node">
<title>Node6</title>
<g id="a_Node000006"><a xlink:href="../../dc/d25/classSymbolicExpr.html#acc2ea5b99b699087717f3ac42433e4b8" target="_top" xlink:title="对表达式进行化简。">
<polygon fill="white" stroke="#666666" points="958.5,-444.5 830.5,-444.5 830.5,-425.5 958.5,-425.5 958.5,-444.5"/>
<text text-anchor="middle" x="894.5" y="-432.5" font-family="Helvetica,sans-Serif" font-size="10.00">SymbolicExpr::simplify</text>
</a>
</g>
</g>
<!-- Node3&#45;&gt;Node6 -->
<g id="edge6_Node000003_Node000006" class="edge">
<title>Node3&#45;&gt;Node6</title>
<g id="a_edge6_Node000003_Node000006"><a xlink:title=" ">
<path fill="none" stroke="#63b8ff" d="M585.26,-402.98C602.34,-404.94 621.49,-407.1 639,-409 700.04,-415.61 769.36,-422.66 820.22,-427.75"/>
<polygon fill="#63b8ff" stroke="#63b8ff" points="820.17,-431.26 830.46,-428.77 820.86,-424.29 820.17,-431.26"/>
</a>
</g>
</g>
<!-- Node8 -->
<g id="Node000008" class="node">
<title>Node8</title>
<g id="a_Node000008"><a xlink:href="../../d1/d42/namespacelamina.html#ae1ead7a217c0cba5a6362056a695f9b9" target="_top" xlink:title=" ">
<polygon fill="white" stroke="#666666" points="784,-274.5 639,-274.5 639,-255.5 784,-255.5 784,-274.5"/>
<text text-anchor="middle" x="711.5" y="-262.5" font-family="Helvetica,sans-Serif" font-size="10.00">lamina::valid_dependency</text>
</a>
</g>
</g>
<!-- Node3&#45;&gt;Node8 -->
<g id="edge8_Node000003_Node000008" class="edge">
<title>Node3&#45;&gt;Node8</title>
<g id="a_edge8_Node000003_Node000008"><a xlink:title=" ">
<path fill="none" stroke="#63b8ff" d="M585.03,-384.81C591.58,-381.72 597.8,-377.84 603,-373 632.71,-345.3 609.14,-316.53 639,-289 643.38,-284.96 648.46,-281.6 653.85,-278.81"/>
<polygon fill="#63b8ff" stroke="#63b8ff" points="655.48,-281.91 663.16,-274.61 652.6,-275.53 655.48,-281.91"/>
</a>
</g>
</g>
<!-- Node7 -->
<g id="Node000007" class="node">
<title>Node7</title>
<g id="a_Node000007"><a xlink:href="../../d3/da1/classNormalizationVisitor.html#abefa11f3ddef7d3918dec3102f6fbd40" target="_top" xlink:title="获取规范化结果">
<polygon fill="white" stroke="#666666" points="1123,-399 1006,-399 1006,-369 1123,-369 1123,-399"/>
<text text-anchor="start" x="1014" y="-387" font-family="Helvetica,sans-Serif" font-size="10.00">NormalizationVisitor</text>
<text text-anchor="middle" x="1064.5" y="-376" font-family="Helvetica,sans-Serif" font-size="10.00">::get_result</text>
</a>
</g>
</g>
<!-- Node6&#45;&gt;Node7 -->
<g id="edge7_Node000006_Node000007" class="edge">
<title>Node6&#45;&gt;Node7</title>
<g id="a_edge7_Node000006_Node000007"><a xlink:title=" ">
<path fill="none" stroke="#63b8ff" d="M927.1,-425.41C948.76,-418.83 978.16,-409.91 1004.12,-402.03"/>
<polygon fill="#63b8ff" stroke="#63b8ff" points="1005.33,-405.32 1013.88,-399.06 1003.29,-398.62 1005.33,-405.32"/>
</a>
</g>
</g>
<!-- Node9 -->
<g id="Node000009" class="node">
<title>Node9</title>
<g id="a_Node000009"><a xlink:href="../../dc/d25/classSymbolicExpr.html#a12ea2bce8fc0fa5da98a0cfae9030c2f" target="_top" xlink:title="对表达式关于指定变量求导。">
<polygon fill="white" stroke="#666666" points="969,-294.5 820,-294.5 820,-275.5 969,-275.5 969,-294.5"/>
<text text-anchor="middle" x="894.5" y="-282.5" font-family="Helvetica,sans-Serif" font-size="10.00">SymbolicExpr::differentiate</text>
</a>
</g>
</g>
<!-- Node8&#45;&gt;Node9 -->
<g id="edge9_Node000008_Node000009" class="edge">
<title>Node8&#45;&gt;Node9</title>
<g id="a_edge9_Node000008_Node000009"><a xlink:title=" ">
<path fill="none" stroke="#63b8ff" d="M784.04,-272.9C792.49,-273.84 801.17,-274.8 809.77,-275.75"/>
<polygon fill="#63b8ff" stroke="#63b8ff" points="809.49,-279.24 819.81,-276.86 810.26,-272.28 809.49,-279.24"/>
</a>
</g>
</g>
<!-- Node9&#45;&gt;Node7 -->
<g id="edge11_Node000009_Node000007" class="edge">
<title>Node9&#45;&gt;Node7</title>
<g id="a_edge11_Node000009_Node000007"><a xlink:title=" ">
<path fill="none" stroke="#63b8ff" d="M915.12,-294.5C930.08,-301.9 951.1,-312.63 969,-323 990.78,-335.62 1014.59,-351 1032.86,-363.16"/>
<polygon fill="#63b8ff" stroke="#63b8ff" points="1031.09,-366.19 1041.35,-368.84 1034.98,-360.37 1031.09,-366.19"/>
</a>
</g>
</g>
<!-- Node10 -->
<g id="Node000010" class="node">
<title>Node10</title>
<g id="a_Node000010"><a xlink:href="../../d3/d1a/classDifferentiationVisitor.html#a069c6a379bd1b15007f02ed883114ab9" target="_top" xlink:title="获取求导结果">
<polygon fill="white" stroke="#666666" points="1124,-300 1005,-300 1005,-270 1124,-270 1124,-300"/>
<text text-anchor="start" x="1013" y="-288" font-family="Helvetica,sans-Serif" font-size="10.00">DifferentiationVisitor</text>
<text text-anchor="middle" x="1064.5" y="-277" font-family="Helvetica,sans-Serif" font-size="10.00">::get_result</text>
</a>
</g>
</g>
<!-- Node9&#45;&gt;Node10 -->
<g id="edge10_Node000009_Node000010" class="edge">
<title>Node9&#45;&gt;Node10</title>
<g id="a_edge10_Node000009_Node000010"><a xlink:title=" ">
<path fill="none" stroke="#63b8ff" d="M969.19,-285C977.65,-285 986.25,-285 994.65,-285"/>
<polygon fill="#63b8ff" stroke="#63b8ff" points="994.76,-288.5 1004.76,-285 994.76,-281.5 994.76,-288.5"/>
</a>
</g>
</g>
<!-- Node11&#45;&gt;Node4 -->
<g id="edge27_Node000011_Node000004" class="edge">
<title>Node11&#45;&gt;Node4</title>
<g id="a_edge27_Node000011_Node000004"><a xlink:title=" ">
<path fill="none" stroke="#63b8ff" d="M376.37,-188.86C389.14,-162.81 419.26,-110.27 463,-89 591.31,-26.61 652.87,-29.79 784,-86 830.04,-105.73 865.88,-155.38 882.81,-182.54"/>
<polygon fill="#63b8ff" stroke="#63b8ff" points="880.02,-184.68 888.18,-191.44 886.01,-181.07 880.02,-184.68"/>
</a>
</g>
</g>
<!-- Node11&#45;&gt;Node8 -->
<g id="edge36_Node000011_Node000008" class="edge">
<title>Node11&#45;&gt;Node8</title>
<g id="a_edge36_Node000011_Node000008"><a xlink:title=" ">
<path fill="none" stroke="#63b8ff" d="M394.28,-219.18C412.56,-229.56 438.43,-242.55 463,-249 517.05,-263.18 579.9,-267.09 628.74,-267.51"/>
<polygon fill="#63b8ff" stroke="#63b8ff" points="628.93,-271.01 638.94,-267.55 628.95,-264.01 628.93,-271.01"/>
</a>
</g>
</g>
<!-- Node12 -->
<g id="Node000012" class="node">
<title>Node12</title>
<g id="a_Node000012"><a xlink:href="../../d8/dbb/classlamina_1_1Integrator.html#aa964c6f76a91b1a15966f67fab623474" target="_top" xlink:title=" ">
<polygon fill="white" stroke="#666666" points="585,-240 481,-240 481,-210 585,-210 585,-240"/>
<text text-anchor="start" x="489" y="-228" font-family="Helvetica,sans-Serif" font-size="10.00">lamina::Integrator</text>
<text text-anchor="middle" x="533" y="-217" font-family="Helvetica,sans-Serif" font-size="10.00">::check_cycle</text>
</a>
</g>
</g>
<!-- Node11&#45;&gt;Node12 -->
<g id="edge13_Node000011_Node000012" class="edge">
<title>Node11&#45;&gt;Node12</title>
<g id="a_edge13_Node000011_Node000012"><a xlink:title=" ">
<path fill="none" stroke="#63b8ff" d="M427.25,-211.46C441.34,-213.28 456.47,-215.24 470.72,-217.08"/>
<polygon fill="#63b8ff" stroke="#63b8ff" points="470.55,-220.59 480.92,-218.4 471.45,-213.65 470.55,-220.59"/>
</a>
</g>
</g>
<!-- Node15 -->
<g id="Node000015" class="node">
<title>Node15</title>
<g id="a_Node000015"><a xlink:href="../../d1/d42/namespacelamina.html#af9c7851c330c76a4cd18ae36e1713aae" target="_top" xlink:title=" ">
<polygon fill="white" stroke="#666666" points="776,-114.5 647,-114.5 647,-95.5 776,-95.5 776,-114.5"/>
<text text-anchor="middle" x="711.5" y="-102.5" font-family="Helvetica,sans-Serif" font-size="10.00">lamina::make_expr_ptr</text>
</a>
</g>
</g>
<!-- Node11&#45;&gt;Node15 -->
<g id="edge24_Node000011_Node000015" class="edge">
<title>Node11&#45;&gt;Node15</title>
<g id="a_edge24_Node000011_Node000015"><a xlink:title=" ">
<path fill="none" stroke="#63b8ff" d="M379.76,-188.93C395.07,-167.92 426.06,-130.64 463,-115 517.83,-91.78 585.75,-90.75 636.56,-94.7"/>
<polygon fill="#63b8ff" stroke="#63b8ff" points="636.55,-98.22 646.81,-95.59 637.15,-91.24 636.55,-98.22"/>
</a>
</g>
</g>
<!-- Node16 -->
<g id="Node000016" class="node">
<title>Node16</title>
<g id="a_Node000016"><a xlink:href="../../dc/d25/classSymbolicExpr.html#a1718e8c497b928507b31acb089cc64ff" target="_top" xlink:title="创建变量表达式。">
<polygon fill="white" stroke="#666666" points="776,-161.5 647,-161.5 647,-142.5 776,-142.5 776,-161.5"/>
<text text-anchor="middle" x="711.5" y="-149.5" font-family="Helvetica,sans-Serif" font-size="10.00">SymbolicExpr::variable</text>
</a>
</g>
</g>
<!-- Node11&#45;&gt;Node16 -->
<g id="edge37_Node000011_Node000016" class="edge">
<title>Node11&#45;&gt;Node16</title>
<g id="a_edge37_Node000011_Node000016"><a xlink:title=" ">
<path fill="none" stroke="#63b8ff" d="M427.35,-195.18C485.39,-186.33 574.98,-172.67 637.8,-163.09"/>
<polygon fill="#63b8ff" stroke="#63b8ff" points="638.67,-166.49 648.03,-161.53 637.62,-159.57 638.67,-166.49"/>
</a>
</g>
</g>
<!-- Node17 -->
<g id="Node000017" class="node">
<title>Node17</title>
<g id="a_Node000017"><a xlink:href="../../d8/dbb/classlamina_1_1Integrator.html#a71d322b0c8340b7935d6d5a121fea59f" target="_top" xlink:title=" ">
<polygon fill="white" stroke="#666666" points="592,-30 474,-30 474,0 592,0 592,-30"/>
<text text-anchor="start" x="482" y="-18" font-family="Helvetica,sans-Serif" font-size="10.00">lamina::Integrator</text>
<text text-anchor="middle" x="533" y="-7" font-family="Helvetica,sans-Serif" font-size="10.00">::dispatch_strategies</text>
</a>
</g>
</g>
<!-- Node11&#45;&gt;Node17 -->
<g id="edge22_Node000011_Node000017" class="edge">
<title>Node11&#45;&gt;Node17</title>
<g id="a_edge22_Node000011_Node000017"><a xlink:title=" ">
<path fill="none" stroke="#63b8ff" d="M374.69,-188.6C385.97,-157.28 415.59,-85.58 463,-44 466.87,-40.61 471.19,-37.57 475.74,-34.86"/>
<polygon fill="#63b8ff" stroke="#63b8ff" points="477.54,-37.86 484.69,-30.04 474.23,-31.7 477.54,-37.86"/>
</a>
</g>
</g>
<!-- Node18 -->
<g id="Node000018" class="node">
<title>Node18</title>
<g id="a_Node000018"><a xlink:href="../../dc/d25/classSymbolicExpr.html#abc98503493872cfc56a71bbf7137ca49" target="_top" xlink:title="判断表达式是否为数值节点。">
<polygon fill="white" stroke="#666666" points="603,-363.5 463,-363.5 463,-344.5 603,-344.5 603,-363.5"/>
<text text-anchor="middle" x="533" y="-351.5" font-family="Helvetica,sans-Serif" font-size="10.00">SymbolicExpr::is_number</text>
</a>
</g>
</g>
<!-- Node11&#45;&gt;Node18 -->
<g id="edge23_Node000011_Node000018" class="edge">
<title>Node11&#45;&gt;Node18</title>
<g id="a_edge23_Node000011_Node000018"><a xlink:title=" ">
<path fill="none" stroke="#63b8ff" d="M376.06,-219.14C388.74,-246.56 419.25,-304.44 463,-335 465.89,-337.02 468.98,-338.82 472.2,-340.43"/>
<polygon fill="#63b8ff" stroke="#63b8ff" points="470.98,-343.72 481.55,-344.49 473.77,-337.3 470.98,-343.72"/>
</a>
</g>
</g>
<!-- Node19 -->
<g id="Node000019" class="node">
<title>Node19</title>
<g id="a_Node000019"><a xlink:href="../../d8/dbb/classlamina_1_1Integrator.html#aa96105e4b760b421c30bfdaf01a044ad" target="_top" xlink:title=" ">
<polygon fill="white" stroke="#666666" points="594,-154 472,-154 472,-124 594,-124 594,-154"/>
<text text-anchor="start" x="480" y="-142" font-family="Helvetica,sans-Serif" font-size="10.00">lamina::Integrator</text>
<text text-anchor="middle" x="533" y="-131" font-family="Helvetica,sans-Serif" font-size="10.00">::make_integral_node</text>
</a>
</g>
</g>
<!-- Node11&#45;&gt;Node19 -->
<g id="edge25_Node000011_Node000019" class="edge">
<title>Node11&#45;&gt;Node19</title>
<g id="a_edge25_Node000011_Node000019"><a xlink:title=" ">
<path fill="none" stroke="#63b8ff" d="M407.19,-188.92C430.28,-179.69 460.04,-167.78 484.71,-157.92"/>
<polygon fill="#63b8ff" stroke="#63b8ff" points="486.25,-161.07 494.23,-154.11 483.65,-154.57 486.25,-161.07"/>
</a>
</g>
</g>
<!-- Node20 -->
<g id="Node000020" class="node">
<title>Node20</title>
<g id="a_Node000020"><a xlink:href="../../d8/dbb/classlamina_1_1Integrator.html#acc7ce748ee8a3a60eb901a29f0fd0556" target="_top" xlink:title=" ">
<polygon fill="white" stroke="#666666" points="585,-326 481,-326 481,-296 585,-296 585,-326"/>
<text text-anchor="start" x="489" y="-314" font-family="Helvetica,sans-Serif" font-size="10.00">lamina::Integrator</text>
<text text-anchor="middle" x="533" y="-303" font-family="Helvetica,sans-Serif" font-size="10.00">::resolve_cycle</text>
</a>
</g>
</g>
<!-- Node11&#45;&gt;Node20 -->
<g id="edge28_Node000011_Node000020" class="edge">
<title>Node11&#45;&gt;Node20</title>
<g id="a_edge28_Node000011_Node000020"><a xlink:title=" ">
<path fill="none" stroke="#63b8ff" d="M384.61,-219.07C402.24,-236.05 432.84,-263.65 463,-282 468.74,-285.49 474.98,-288.76 481.28,-291.75"/>
<polygon fill="#63b8ff" stroke="#63b8ff" points="479.96,-294.99 490.51,-295.92 482.84,-288.61 479.96,-294.99"/>
</a>
</g>
</g>
<!-- Node12&#45;&gt;Node4 -->
<g id="edge19_Node000012_Node000004" class="edge">
<title>Node12&#45;&gt;Node4</title>
<g id="a_edge19_Node000012_Node000004"><a xlink:title=" ">
<path fill="none" stroke="#63b8ff" d="M585.14,-216.58C602.22,-214.07 621.39,-211.56 639,-210 699.46,-204.63 768.27,-202.43 819.08,-201.55"/>
<polygon fill="#63b8ff" stroke="#63b8ff" points="819.38,-205.04 829.32,-201.38 819.26,-198.04 819.38,-205.04"/>
</a>
</g>
</g>
<!-- Node12&#45;&gt;Node8 -->
<g id="edge20_Node000012_Node000008" class="edge">
<title>Node12&#45;&gt;Node8</title>
<g id="a_edge20_Node000012_Node000008"><a xlink:title=" ">
<path fill="none" stroke="#63b8ff" d="M585.05,-236.57C608.11,-241.8 635.32,-247.96 658.49,-253.21"/>
<polygon fill="#63b8ff" stroke="#63b8ff" points="657.96,-256.68 668.48,-255.48 659.5,-249.85 657.96,-256.68"/>
</a>
</g>
</g>
<!-- Node13 -->
<g id="Node000013" class="node">
<title>Node13</title>
<g id="a_Node000013"><a xlink:href="../../dc/d25/classSymbolicExpr.html#aea4c251b3fd9994c77fb8b26dae96d5f" target="_top" xlink:title="执行符号除法。">
<polygon fill="white" stroke="#666666" points="771,-237.5 652,-237.5 652,-218.5 771,-218.5 771,-237.5"/>
<text text-anchor="middle" x="711.5" y="-225.5" font-family="Helvetica,sans-Serif" font-size="10.00">SymbolicExpr::divide</text>
</a>
</g>
</g>
<!-- Node12&#45;&gt;Node13 -->
<g id="edge14_Node000012_Node000013" class="edge">
<title>Node12&#45;&gt;Node13</title>
<g id="a_edge14_Node000012_Node000013"><a xlink:title=" ">
<path fill="none" stroke="#63b8ff" d="M585.05,-225.87C602.74,-226.17 622.88,-226.51 641.76,-226.83"/>
<polygon fill="#63b8ff" stroke="#63b8ff" points="641.73,-230.33 651.79,-227 641.85,-223.33 641.73,-230.33"/>
</a>
</g>
</g>
<!-- Node12&#45;&gt;Node15 -->
<g id="edge18_Node000012_Node000015" class="edge">
<title>Node12&#45;&gt;Node15</title>
<g id="a_edge18_Node000012_Node000015"><a xlink:title=" ">
<path fill="none" stroke="#63b8ff" d="M551.26,-209.6C579.79,-184.19 634.13,-135.96 639,-133 648.41,-127.28 659.19,-122.33 669.48,-118.26"/>
<polygon fill="#63b8ff" stroke="#63b8ff" points="671,-121.43 679.13,-114.63 668.54,-114.87 671,-121.43"/>
</a>
</g>
</g>
<!-- Node12&#45;&gt;Node16 -->
<g id="edge21_Node000012_Node000016" class="edge">
<title>Node12&#45;&gt;Node16</title>
<g id="a_edge21_Node000012_Node000016"><a xlink:title=" ">
<path fill="none" stroke="#63b8ff" d="M571.93,-209.93C582.12,-205.65 593.07,-200.83 603,-196 619.46,-188 622.25,-183.39 639,-176 648.34,-171.88 658.63,-168.04 668.42,-164.69"/>
<polygon fill="#63b8ff" stroke="#63b8ff" points="669.6,-167.99 677.99,-161.52 667.4,-161.35 669.6,-167.99"/>
</a>
</g>
</g>
<!-- Node13&#45;&gt;Node4 -->
<g id="edge15_Node000013_Node000004" class="edge">
<title>Node13&#45;&gt;Node4</title>
<g id="a_edge15_Node000013_Node000004"><a xlink:title=" ">
<path fill="none" stroke="#63b8ff" d="M771.27,-219.23C786.74,-216.93 803.63,-214.41 819.78,-212"/>
<polygon fill="#63b8ff" stroke="#63b8ff" points="820.34,-215.45 829.72,-210.51 819.31,-208.53 820.34,-215.45"/>
</a>
</g>
</g>
<!-- Node13&#45;&gt;Node5 -->
<g id="edge16_Node000013_Node000005" class="edge">
<title>Node13&#45;&gt;Node5</title>
<g id="a_edge16_Node000013_Node000005"><a xlink:title=" ">
<path fill="none" stroke="#63b8ff" d="M770.32,-237.66C775.33,-240.13 780,-243.19 784,-247 822.17,-283.35 781.48,-324.02 820,-360 821.14,-361.06 822.33,-362.07 823.57,-363.02"/>
<polygon fill="#63b8ff" stroke="#63b8ff" points="821.98,-366.15 832.31,-368.49 825.69,-360.22 821.98,-366.15"/>
</a>
</g>
</g>
<!-- Node14 -->
<g id="Node000014" class="node">
<title>Node14</title>
<g id="a_Node000014"><a xlink:href="../../dc/d25/classSymbolicExpr.html#ab03922681e30190ba7c73d2c1e58aa40" target="_top" xlink:title="创建幂运算表达式。">
<polygon fill="white" stroke="#666666" points="954,-247.5 835,-247.5 835,-228.5 954,-228.5 954,-247.5"/>
<text text-anchor="middle" x="894.5" y="-235.5" font-family="Helvetica,sans-Serif" font-size="10.00">SymbolicExpr::power</text>
</a>
</g>
</g>
<!-- Node13&#45;&gt;Node14 -->
<g id="edge17_Node000013_Node000014" class="edge">
<title>Node13&#45;&gt;Node14</title>
<g id="a_edge17_Node000013_Node000014"><a xlink:title=" ">
<path fill="none" stroke="#63b8ff" d="M771.27,-231.25C788.26,-232.19 806.97,-233.22 824.53,-234.19"/>
<polygon fill="#63b8ff" stroke="#63b8ff" points="824.54,-237.7 834.72,-234.75 824.93,-230.71 824.54,-237.7"/>
</a>
</g>
</g>
<!-- Node19&#45;&gt;Node16 -->
<g id="edge26_Node000019_Node000016" class="edge">
<title>Node19&#45;&gt;Node16</title>
<g id="a_edge26_Node000019_Node000016"><a xlink:title=" ">
<path fill="none" stroke="#63b8ff" d="M594.25,-143.44C607.91,-144.44 622.57,-145.52 636.72,-146.57"/>
<polygon fill="#63b8ff" stroke="#63b8ff" points="636.68,-150.07 646.91,-147.32 637.19,-143.09 636.68,-150.07"/>
</a>
</g>
</g>
<!-- Node20&#45;&gt;Node5 -->
<g id="edge30_Node000020_Node000005" class="edge">
<title>Node20&#45;&gt;Node5</title>
<g id="a_edge30_Node000020_Node000005"><a xlink:title=" ">
<path fill="none" stroke="#63b8ff" d="M580.3,-326.03C588.02,-329.03 595.84,-332.38 603,-336 620.16,-344.67 620.8,-353.78 639,-360 697.84,-380.11 768.69,-383.58 820.67,-382.61"/>
<polygon fill="#63b8ff" stroke="#63b8ff" points="820.9,-386.1 830.81,-382.36 820.72,-379.1 820.9,-386.1"/>
</a>
</g>
</g>
<!-- Node20&#45;&gt;Node8 -->
<g id="edge35_Node000020_Node000008" class="edge">
<title>Node20&#45;&gt;Node8</title>
<g id="a_edge35_Node000020_Node000008"><a xlink:title=" ">
<path fill="none" stroke="#63b8ff" d="M585.05,-297.69C610.02,-291.19 639.84,-283.41 664.15,-277.08"/>
<polygon fill="#63b8ff" stroke="#63b8ff" points="665.06,-280.46 673.85,-274.55 663.29,-273.69 665.06,-280.46"/>
</a>
</g>
</g>
<!-- Node20&#45;&gt;Node13 -->
<g id="edge29_Node000020_Node000013" class="edge">
<title>Node20&#45;&gt;Node13</title>
<g id="a_edge29_Node000020_Node000013"><a xlink:title=" ">
<path fill="none" stroke="#63b8ff" d="M554.74,-295.87C575.25,-281.52 607.98,-260.25 639,-247 644.52,-244.64 650.42,-242.51 656.36,-240.6"/>
<polygon fill="#63b8ff" stroke="#63b8ff" points="657.77,-243.83 666.35,-237.6 655.76,-237.13 657.77,-243.83"/>
</a>
</g>
</g>
<!-- Node21 -->
<g id="Node000021" class="node">
<title>Node21</title>
<g id="a_Node000021"><a xlink:href="../../d1/d42/namespacelamina.html#a581a2886a13064c468f1d1b5cd47b9cd" target="_top" xlink:title=" ">
<polygon fill="white" stroke="#666666" points="761.5,-350.5 661.5,-350.5 661.5,-331.5 761.5,-331.5 761.5,-350.5"/>
<text text-anchor="middle" x="711.5" y="-338.5" font-family="Helvetica,sans-Serif" font-size="10.00">lamina::sym_sub</text>
</a>
</g>
</g>
<!-- Node20&#45;&gt;Node21 -->
<g id="edge31_Node000020_Node000021" class="edge">
<title>Node20&#45;&gt;Node21</title>
<g id="a_edge31_Node000020_Node000021"><a xlink:title=" ">
<path fill="none" stroke="#63b8ff" d="M585.05,-319.68C605.79,-323.2 629.89,-327.3 651.39,-330.95"/>
<polygon fill="#63b8ff" stroke="#63b8ff" points="650.94,-334.43 661.39,-332.65 652.11,-327.53 650.94,-334.43"/>
</a>
</g>
</g>
<!-- Node21&#45;&gt;Node4 -->
<g id="edge33_Node000021_Node000004" class="edge">
<title>Node21&#45;&gt;Node4</title>
<g id="a_edge33_Node000021_Node000004"><a xlink:title=" ">
<path fill="none" stroke="#63b8ff" d="M760.83,-331.35C769.33,-327.93 777.51,-323.29 784,-317 817.02,-285 785.86,-250.81 820,-220 821.75,-218.42 823.61,-216.97 825.56,-215.64"/>
<polygon fill="#63b8ff" stroke="#63b8ff" points="827.64,-218.48 834.62,-210.52 824.2,-212.39 827.64,-218.48"/>
</a>
</g>
</g>
<!-- Node21&#45;&gt;Node5 -->
<g id="edge34_Node000021_Node000005" class="edge">
<title>Node21&#45;&gt;Node5</title>
<g id="a_edge34_Node000021_Node000005"><a xlink:title=" ">
<path fill="none" stroke="#63b8ff" d="M759.11,-350.53C782.77,-355.36 811.71,-361.28 836.67,-366.38"/>
<polygon fill="#63b8ff" stroke="#63b8ff" points="836.23,-369.87 846.73,-368.44 837.64,-363.01 836.23,-369.87"/>
</a>
</g>
</g>
<!-- Node22 -->
<g id="Node000022" class="node">
<title>Node22</title>
<g id="a_Node000022"><a xlink:href="../../dc/d25/classSymbolicExpr.html#ac8782568f037f8055277e5d8b80ec6d6" target="_top" xlink:title="创建加法表达式。">
<polygon fill="white" stroke="#666666" points="948,-350.5 841,-350.5 841,-331.5 948,-331.5 948,-350.5"/>
<text text-anchor="middle" x="894.5" y="-338.5" font-family="Helvetica,sans-Serif" font-size="10.00">SymbolicExpr::add</text>
</a>
</g>
</g>
<!-- Node21&#45;&gt;Node22 -->
<g id="edge32_Node000021_Node000022" class="edge">
<title>Node21&#45;&gt;Node22</title>
<g id="a_edge32_Node000021_Node000022"><a xlink:title=" ">
<path fill="none" stroke="#63b8ff" d="M761.96,-341C783.2,-341 808.26,-341 830.79,-341"/>
<polygon fill="#63b8ff" stroke="#63b8ff" points="830.93,-344.5 840.93,-341 830.93,-337.5 830.93,-344.5"/>
</a>
</g>
</g>
</g>
</svg>

<g id="navigator" transform="translate(0 0)" fill="#404254">
  <rect fill="#f2f5e9" fill-opacity="0.5" stroke="#606060" stroke-width=".5" x="0" y="0" width="60" height="60"/>
  <use id="zoomplus" xlink:href="#zoomPlus" x="17" y="9" onmousedown="handleZoom(evt,'in')"/>
  <use id="zoomminus" xlink:href="#zoomMin" x="42" y="9" onmousedown="handleZoom(evt,'out')"/>
  <use id="reset" xlink:href="#resetDef" x="30" y="36" onmousedown="handleReset()"/>
   <use id="arrowup" xlink:href="#arrowUp" x="0" y="0" onmousedown="handlePan(0,-1)"/>
  <use id="arrowright" xlink:href="#arrowRight" x="0" y="0" onmousedown="handlePan(1,0)"/>
  <use id="arrowdown" xlink:href="#arrowDown" x="0" y="0" onmousedown="handlePan(0,1)"/>
  <use id="arrowleft" xlink:href="#arrowLeft" x="0" y="0" onmousedown="handlePan(-1,0)"/>
</g>
<svg viewBox="0 0 15 15" width="100%" height="30px" preserveAspectRatio="xMaxYMin meet">
 <g id="arrow_out" transform="scale(0.3 0.3)">
  <a xlink:href="classSymbolicExpr_a3cea51734e44db6a4a48a77206ca4055_cgraph_org.svg" target="_base">
   <rect id="button" ry="5" rx="5" y="6" x="6" height="38" width="38"
        fill="#f2f5e9" fill-opacity="0.5" stroke="#606060" stroke-width="1.0"/>
   <path id="arrow"
     d="M 11.500037,31.436501 C 11.940474,20.09759 22.043105,11.32322 32.158766,21.979434 L 37.068811,17.246167 C 37.068811,17.246167 37.088388,32 37.088388,32 L 22.160133,31.978069 C 22.160133,31.978069 26.997745,27.140456 26.997745,27.140456 C 18.528582,18.264221 13.291696,25.230495 11.500037,31.436501 z"
     style="fill:#404040;"/>
  </a>
 </g>
</svg>

<style type='text/css'>
<![CDATA[
[data-mouse-over-selected='false'] { opacity: 0.7; }
[data-mouse-over-selected='true']  { opacity: 1.0; }
]]>
</style>
<script type="application/ecmascript"><![CDATA[
document.addEventListener('DOMContentLoaded', (event) => {
  highlightEdges();
  highlightAdjacentNodes();
});
]]></script>
</svg>
