<?xml version="1.0" encoding="UTF-8" standalone="no"?>
<!DOCTYPE svg PUBLIC "-//W3C//DTD SVG 1.1//EN"
 "http://www.w3.org/Graphics/SVG/1.1/DTD/svg11.dtd">
<!-- Generated by graphviz version 2.43.0 (0)
 -->
<!-- Title: SymbolicExpr::to_numeric Pages: 1 -->
<svg width="525pt" height="104pt"
 viewBox="0.00 0.00 525.00 104.00" xmlns="http://www.w3.org/2000/svg" xmlns:xlink="http://www.w3.org/1999/xlink">
<g id="graph0" class="graph" transform="scale(1 1) rotate(0) translate(4 100)">
<title>SymbolicExpr::to_numeric</title>
<!-- Node1 -->
<g id="Node000001" class="node">
<title>Node1</title>
<g id="a_Node000001"><a xlink:title="将表达式求值为浮点数。">
<polygon fill="#999999" stroke="#666666" points="517,-48.5 373,-48.5 373,-29.5 517,-29.5 517,-48.5"/>
<text text-anchor="middle" x="445" y="-36.5" font-family="Helvetica,sans-Serif" font-size="10.00">SymbolicExpr::to_numeric</text>
</a>
</g>
</g>
<!-- Node1&#45;&gt;Node1 -->
<g id="edge4_Node000001_Node000001" class="edge">
<title>Node1&#45;&gt;Node1</title>
<g id="a_edge4_Node000001_Node000001"><a xlink:title=" ">
<path fill="none" stroke="#63b8ff" d="M480.61,-56.57C480.09,-62.12 468.22,-66.5 445,-66.5 411.23,-66.5 401.47,-57.23 415.72,-48.58"/>
<polygon fill="#63b8ff" stroke="#63b8ff" points="483.23,-54.25 474.28,-48.58 477.75,-58.6 483.23,-54.25"/>
</a>
</g>
</g>
<!-- Node2 -->
<g id="Node000002" class="node">
<title>Node2</title>
<g id="a_Node000002"><a xlink:href="../../d8/dbb/classlamina_1_1Integrator.html#a7477aee41552c2e8aa5065d0b8094fc3" target="_top" xlink:title="计算定积分">
<polygon fill="white" stroke="#666666" points="305.5,-78 201.5,-78 201.5,-48 305.5,-48 305.5,-78"/>
<text text-anchor="start" x="209.5" y="-66" font-family="Helvetica,sans-Serif" font-size="10.00">lamina::Integrator</text>
<text text-anchor="middle" x="253.5" y="-55" font-family="Helvetica,sans-Serif" font-size="10.00">::integrate_def</text>
</a>
</g>
</g>
<!-- Node1&#45;&gt;Node2 -->
<g id="edge1_Node000001_Node000002" class="edge">
<title>Node1&#45;&gt;Node2</title>
<g id="a_edge1_Node000001_Node000002"><a xlink:title=" ">
<path fill="none" stroke="#63b8ff" d="M362.83,-49.28C343.41,-51.74 323.21,-54.3 305.59,-56.53"/>
<polygon fill="#63b8ff" stroke="#63b8ff" points="363.42,-52.73 372.9,-48 362.54,-45.79 363.42,-52.73"/>
</a>
</g>
</g>
<!-- Node4 -->
<g id="Node000004" class="node">
<title>Node4</title>
<g id="a_Node000004"><a xlink:href="../../d6/d58/classlamina_1_1PartialFractionStrategy.html#a800bb2d5c562531738057bf31c96109f" target="_top" xlink:title="尝试对表达式进行积分">
<polygon fill="white" stroke="#666666" points="337,-30 170,-30 170,0 337,0 337,-30"/>
<text text-anchor="start" x="178" y="-18" font-family="Helvetica,sans-Serif" font-size="10.00">lamina::PartialFractionStrategy</text>
<text text-anchor="middle" x="253.5" y="-7" font-family="Helvetica,sans-Serif" font-size="10.00">::try_integrate</text>
</a>
</g>
</g>
<!-- Node1&#45;&gt;Node4 -->
<g id="edge5_Node000001_Node000004" class="edge">
<title>Node1&#45;&gt;Node4</title>
<g id="a_edge5_Node000001_Node000004"><a xlink:title=" ">
<path fill="none" stroke="#63b8ff" d="M362.96,-28.74C354.42,-27.65 345.72,-26.55 337.16,-25.47"/>
<polygon fill="#63b8ff" stroke="#63b8ff" points="362.54,-32.21 372.9,-30 363.42,-25.27 362.54,-32.21"/>
</a>
</g>
</g>
<!-- Node2&#45;&gt;Node2 -->
<g id="edge3_Node000002_Node000002" class="edge">
<title>Node2&#45;&gt;Node2</title>
<g id="a_edge3_Node000002_Node000002"><a xlink:title=" ">
<path fill="none" stroke="#63b8ff" d="M286.06,-88.6C281.61,-92.97 270.76,-96 253.5,-96 224.44,-96 213.54,-87.41 220.8,-78.28"/>
<polygon fill="#63b8ff" stroke="#63b8ff" points="289.56,-88.32 286.2,-78.28 282.56,-88.23 289.56,-88.32"/>
</a>
</g>
</g>
<!-- Node3 -->
<g id="Node000003" class="node">
<title>Node3</title>
<g id="a_Node000003"><a xlink:href="../../d0/d72/classlamina_1_1MultipleIntegralEngine.html#a491641f4d1657cf6aab03b05edef3ec8" target="_top" xlink:title="计算迭代积分。">
<polygon fill="white" stroke="#666666" points="134,-78 0,-78 0,-48 134,-48 134,-78"/>
<text text-anchor="start" x="8" y="-66" font-family="Helvetica,sans-Serif" font-size="10.00">lamina::MultipleIntegral</text>
<text text-anchor="middle" x="67" y="-55" font-family="Helvetica,sans-Serif" font-size="10.00">Engine::evaluate</text>
</a>
</g>
</g>
<!-- Node2&#45;&gt;Node3 -->
<g id="edge2_Node000002_Node000003" class="edge">
<title>Node2&#45;&gt;Node3</title>
<g id="a_edge2_Node000002_Node000003"><a xlink:title=" ">
<path fill="none" stroke="#63b8ff" d="M190.93,-63C172.75,-63 152.78,-63 134.32,-63"/>
<polygon fill="#63b8ff" stroke="#63b8ff" points="191.11,-66.5 201.11,-63 191.11,-59.5 191.11,-66.5"/>
</a>
</g>
</g>
</g>
</svg>
