<?xml version="1.0" encoding="UTF-8" standalone="no"?>
<!DOCTYPE svg PUBLIC "-//W3C//DTD SVG 1.1//EN"
 "http://www.w3.org/Graphics/SVG/1.1/DTD/svg11.dtd">
<!-- Generated by graphviz version 2.43.0 (0)
 -->
<!-- Title: SymbolicExpr::solve_system Pages: 1 -->
<svg width="478pt" height="207pt"
 viewBox="0.00 0.00 478.00 206.50" xmlns="http://www.w3.org/2000/svg" xmlns:xlink="http://www.w3.org/1999/xlink">

<svg id="main" version="1.1" xmlns="http://www.w3.org/2000/svg" xmlns:xlink="http://www.w3.org/1999/xlink" xml:space="preserve" onload="init(evt)">
<style type="text/css"><![CDATA[
.node, .edge {opacity: 0.7;}
.node.selected, .edge.selected {opacity: 1;}
.edge:hover path { stroke: red; }
.edge:hover polygon { stroke: red; fill: red; }
]]></style>
<script type="application/ecmascript" xlink:href="../../svg.min.js"/>
<svg id="graph" class="graph">
<g id="graph0" class="graph" transform="scale(1 1) rotate(0) translate(4 202.5)">
<title>SymbolicExpr::solve_system</title>
<!-- Node1 -->
<g id="Node000001" class="node">
<title>Node1</title>
<g id="a_Node000001"><a xlink:title="求解方程组（无参数变量版本）。">
<polygon fill="#999999" stroke="#666666" points="116,-128 0,-128 0,-98 116,-98 116,-128"/>
<text text-anchor="start" x="8" y="-116" font-family="Helvetica,sans-Serif" font-size="10.00">SymbolicExpr::solve</text>
<text text-anchor="middle" x="58" y="-105" font-family="Helvetica,sans-Serif" font-size="10.00">_system</text>
</a>
</g>
</g>
<!-- Node2 -->
<g id="Node000002" class="node">
<title>Node2</title>
<g id="a_Node000002"><a xlink:href="../../dc/d25/classSymbolicExpr.html#a641c74726a8c56e9b0e28bd4b282783f" target="_top" xlink:title="创建等式关系表达式 lhs = rhs。">
<polygon fill="white" stroke="#666666" points="278.5,-198.5 177.5,-198.5 177.5,-179.5 278.5,-179.5 278.5,-198.5"/>
<text text-anchor="middle" x="228" y="-186.5" font-family="Helvetica,sans-Serif" font-size="10.00">SymbolicExpr::eq</text>
</a>
</g>
</g>
<!-- Node1&#45;&gt;Node2 -->
<g id="edge1_Node000001_Node000002" class="edge">
<title>Node1&#45;&gt;Node2</title>
<g id="a_edge1_Node000001_Node000002"><a xlink:title=" ">
<path fill="none" stroke="#63b8ff" d="M82.8,-128.06C101.2,-139.26 127.57,-154.39 152,-165 161.69,-169.21 172.37,-173.07 182.55,-176.4"/>
<polygon fill="#63b8ff" stroke="#63b8ff" points="181.53,-179.74 192.12,-179.43 183.64,-173.07 181.53,-179.74"/>
</a>
</g>
</g>
<!-- Node3 -->
<g id="Node000003" class="node">
<title>Node3</title>
<g id="a_Node000003"><a xlink:href="../../d1/d42/namespacelamina.html#ae7b0ac83faa7f2075065934ce0f5286a" target="_top" xlink:title="对增广矩阵进行高斯消元">
<polygon fill="white" stroke="#666666" points="304,-122.5 152,-122.5 152,-103.5 304,-103.5 304,-122.5"/>
<text text-anchor="middle" x="228" y="-110.5" font-family="Helvetica,sans-Serif" font-size="10.00">lamina::gaussian_eliminate</text>
</a>
</g>
</g>
<!-- Node1&#45;&gt;Node3 -->
<g id="edge2_Node000001_Node000003" class="edge">
<title>Node1&#45;&gt;Node3</title>
<g id="a_edge2_Node000001_Node000003"><a xlink:title=" ">
<path fill="none" stroke="#63b8ff" d="M116.35,-113C124.54,-113 133.12,-113 141.72,-113"/>
<polygon fill="#63b8ff" stroke="#63b8ff" points="141.79,-116.5 151.79,-113 141.79,-109.5 141.79,-116.5"/>
</a>
</g>
</g>
<!-- Node5 -->
<g id="Node000005" class="node">
<title>Node5</title>
<g id="a_Node000005"><a xlink:href="../../dc/d25/classSymbolicExpr.html#ad03189fc8a4db7762f7c1ca890674bbc" target="_top" xlink:title="创建乘法表达式。">
<polygon fill="white" stroke="#666666" points="470,-178.5 340,-178.5 340,-159.5 470,-159.5 470,-178.5"/>
<text text-anchor="middle" x="405" y="-166.5" font-family="Helvetica,sans-Serif" font-size="10.00">SymbolicExpr::multiply</text>
</a>
</g>
</g>
<!-- Node1&#45;&gt;Node5 -->
<g id="edge10_Node000001_Node000005" class="edge">
<title>Node1&#45;&gt;Node5</title>
<g id="a_edge10_Node000001_Node000005"><a xlink:title=" ">
<path fill="none" stroke="#63b8ff" d="M116.45,-125.26C128.19,-127.62 140.48,-129.98 152,-132 211.59,-142.45 279.47,-152.3 329.75,-159.21"/>
<polygon fill="#63b8ff" stroke="#63b8ff" points="329.5,-162.71 339.89,-160.59 330.45,-155.77 329.5,-162.71"/>
</a>
</g>
</g>
<!-- Node6 -->
<g id="Node000006" class="node">
<title>Node6</title>
<g id="a_Node000006"><a xlink:href="../../dc/d25/classSymbolicExpr.html#adeb760bb6f4f28879108394537eca293" target="_top" xlink:title="创建整数数值表达式。">
<polygon fill="white" stroke="#666666" points="468.5,-67.5 341.5,-67.5 341.5,-48.5 468.5,-48.5 468.5,-67.5"/>
<text text-anchor="middle" x="405" y="-55.5" font-family="Helvetica,sans-Serif" font-size="10.00">SymbolicExpr::number</text>
</a>
</g>
</g>
<!-- Node1&#45;&gt;Node6 -->
<g id="edge11_Node000001_Node000006" class="edge">
<title>Node1&#45;&gt;Node6</title>
<g id="a_edge11_Node000001_Node000006"><a xlink:title=" ">
<path fill="none" stroke="#63b8ff" d="M116.47,-101.45C128.21,-99.21 140.49,-96.96 152,-95 212.26,-84.75 280.91,-74.78 331.33,-67.78"/>
<polygon fill="#63b8ff" stroke="#63b8ff" points="332.05,-71.21 341.48,-66.38 331.09,-64.28 332.05,-71.21"/>
</a>
</g>
</g>
<!-- Node8 -->
<g id="Node000008" class="node">
<title>Node8</title>
<g id="a_Node000008"><a xlink:href="../../d2/dab/solve__visitor_8cpp.html#af6f5f16062c17aef0e9d5a3676beedf8" target="_top" xlink:title=" ">
<polygon fill="white" stroke="#666666" points="259,-46.5 197,-46.5 197,-27.5 259,-27.5 259,-46.5"/>
<text text-anchor="middle" x="228" y="-34.5" font-family="Helvetica,sans-Serif" font-size="10.00">get_coeff</text>
</a>
</g>
</g>
<!-- Node1&#45;&gt;Node8 -->
<g id="edge7_Node000001_Node000008" class="edge">
<title>Node1&#45;&gt;Node8</title>
<g id="a_edge7_Node000001_Node000008"><a xlink:title=" ">
<path fill="none" stroke="#63b8ff" d="M82.8,-97.94C101.2,-86.74 127.57,-71.61 152,-61 163.15,-56.16 175.61,-51.78 187.12,-48.13"/>
<polygon fill="#63b8ff" stroke="#63b8ff" points="188.4,-51.4 196.93,-45.12 186.34,-44.71 188.4,-51.4"/>
</a>
</g>
</g>
<!-- Node4 -->
<g id="Node000004" class="node">
<title>Node4</title>
<g id="a_Node000004"><a xlink:href="../../dc/d25/classSymbolicExpr.html#ac8782568f037f8055277e5d8b80ec6d6" target="_top" xlink:title="创建加法表达式。">
<polygon fill="white" stroke="#666666" points="458.5,-141.5 351.5,-141.5 351.5,-122.5 458.5,-122.5 458.5,-141.5"/>
<text text-anchor="middle" x="405" y="-129.5" font-family="Helvetica,sans-Serif" font-size="10.00">SymbolicExpr::add</text>
</a>
</g>
</g>
<!-- Node3&#45;&gt;Node4 -->
<g id="edge3_Node000003_Node000004" class="edge">
<title>Node3&#45;&gt;Node4</title>
<g id="a_edge3_Node000003_Node000004"><a xlink:title=" ">
<path fill="none" stroke="#63b8ff" d="M304.23,-121.17C316.48,-122.5 329.06,-123.86 340.98,-125.16"/>
<polygon fill="#63b8ff" stroke="#63b8ff" points="340.94,-128.67 351.26,-126.27 341.7,-121.72 340.94,-128.67"/>
</a>
</g>
</g>
<!-- Node3&#45;&gt;Node5 -->
<g id="edge4_Node000003_Node000005" class="edge">
<title>Node3&#45;&gt;Node5</title>
<g id="a_edge4_Node000003_Node000005"><a xlink:title=" ">
<path fill="none" stroke="#63b8ff" d="M260.16,-122.5C273.69,-126.75 289.7,-131.94 304,-137 320.18,-142.73 323.72,-145.56 340,-151 345.68,-152.9 351.69,-154.77 357.66,-156.54"/>
<polygon fill="#63b8ff" stroke="#63b8ff" points="357.02,-160 367.6,-159.42 358.97,-153.28 357.02,-160"/>
</a>
</g>
</g>
<!-- Node3&#45;&gt;Node6 -->
<g id="edge5_Node000003_Node000006" class="edge">
<title>Node3&#45;&gt;Node6</title>
<g id="a_edge5_Node000003_Node000006"><a xlink:title=" ">
<path fill="none" stroke="#63b8ff" d="M259.32,-103.39C272.98,-99.04 289.32,-93.8 304,-89 320.03,-83.76 323.91,-82.07 340,-77 346.92,-74.82 354.27,-72.57 361.45,-70.42"/>
<polygon fill="#63b8ff" stroke="#63b8ff" points="362.47,-73.77 371.05,-67.56 360.47,-67.06 362.47,-73.77"/>
</a>
</g>
</g>
<!-- Node7 -->
<g id="Node000007" class="node">
<title>Node7</title>
<g id="a_Node000007"><a xlink:href="../../dc/d25/classSymbolicExpr.html#ab03922681e30190ba7c73d2c1e58aa40" target="_top" xlink:title="创建幂运算表达式。">
<polygon fill="white" stroke="#666666" points="464.5,-104.5 345.5,-104.5 345.5,-85.5 464.5,-85.5 464.5,-104.5"/>
<text text-anchor="middle" x="405" y="-92.5" font-family="Helvetica,sans-Serif" font-size="10.00">SymbolicExpr::power</text>
</a>
</g>
</g>
<!-- Node3&#45;&gt;Node7 -->
<g id="edge6_Node000003_Node000007" class="edge">
<title>Node3&#45;&gt;Node7</title>
<g id="a_edge6_Node000003_Node000007"><a xlink:title=" ">
<path fill="none" stroke="#63b8ff" d="M304.23,-105.26C314.58,-104.2 325.17,-103.11 335.39,-102.06"/>
<polygon fill="#63b8ff" stroke="#63b8ff" points="335.89,-105.52 345.48,-101.02 335.17,-98.56 335.89,-105.52"/>
</a>
</g>
</g>
<!-- Node8&#45;&gt;Node6 -->
<g id="edge9_Node000008_Node000006" class="edge">
<title>Node8&#45;&gt;Node6</title>
<g id="a_edge9_Node000008_Node000006"><a xlink:title=" ">
<path fill="none" stroke="#63b8ff" d="M259.08,-40.61C279.01,-43 306.06,-46.25 331.39,-49.29"/>
<polygon fill="#63b8ff" stroke="#63b8ff" points="331.01,-52.77 341.36,-50.48 331.85,-45.82 331.01,-52.77"/>
</a>
</g>
</g>
<!-- Node9 -->
<g id="Node000009" class="node">
<title>Node9</title>
<g id="a_Node000009"><a xlink:href="../../d8/d1e/classlamina_1_1Polynomial.html#aa4209c719c18fc882b702d88e397bdf4" target="_top" xlink:title="获取多项式的次数">
<polygon fill="white" stroke="#666666" points="460.5,-30 349.5,-30 349.5,0 460.5,0 460.5,-30"/>
<text text-anchor="start" x="357.5" y="-18" font-family="Helvetica,sans-Serif" font-size="10.00">lamina::Polynomial</text>
<text text-anchor="middle" x="405" y="-7" font-family="Helvetica,sans-Serif" font-size="10.00">::degree</text>
</a>
</g>
</g>
<!-- Node8&#45;&gt;Node9 -->
<g id="edge8_Node000008_Node000009" class="edge">
<title>Node8&#45;&gt;Node9</title>
<g id="a_edge8_Node000008_Node000009"><a xlink:title=" ">
<path fill="none" stroke="#63b8ff" d="M259.08,-33.22C281.1,-30.45 311.81,-26.59 339.29,-23.13"/>
<polygon fill="#63b8ff" stroke="#63b8ff" points="339.76,-26.6 349.25,-21.88 338.89,-19.66 339.76,-26.6"/>
</a>
</g>
</g>
</g>
</svg>
</svg>

<style type='text/css'>
<![CDATA[
[data-mouse-over-selected='false'] { opacity: 0.7; }
[data-mouse-over-selected='true']  { opacity: 1.0; }
]]>
</style>
<script type="application/ecmascript"><![CDATA[
document.addEventListener('DOMContentLoaded', (event) => {
  highlightEdges();
  highlightAdjacentNodes();
});
]]></script>
</svg>
