<?xml version="1.0" encoding="UTF-8" standalone="no"?>
<!DOCTYPE svg PUBLIC "-//W3C//DTD SVG 1.1//EN"
 "http://www.w3.org/Graphics/SVG/1.1/DTD/svg11.dtd">
<!-- Generated by graphviz version 2.43.0 (0)
 -->
<!-- Title: SymbolicExpr::matrix Pages: 1 -->
<svg width="878pt" height="421pt"
 viewBox="0.00 0.00 878.00 421.00" xmlns="http://www.w3.org/2000/svg" xmlns:xlink="http://www.w3.org/1999/xlink">
<g id="graph0" class="graph" transform="scale(1 1) rotate(0) translate(4 417)">
<title>SymbolicExpr::matrix</title>
<!-- Node1 -->
<g id="Node000001" class="node">
<title>Node1</title>
<g id="a_Node000001"><a xlink:title="从二维元素列表创建矩阵表达式。">
<polygon fill="#999999" stroke="#666666" points="870,-206 748,-206 748,-187 870,-187 870,-206"/>
<text text-anchor="middle" x="809" y="-194" font-family="Helvetica,sans-Serif" font-size="10.00">SymbolicExpr::matrix</text>
</a>
</g>
</g>
<!-- Node2 -->
<g id="Node000002" class="node">
<title>Node2</title>
<g id="a_Node000002"><a xlink:href="../../dc/dcb/classValue.html#a021f37a2de91fe84f69dac0acb246740" target="_top" xlink:title="将值转换为符号表达式">
<polygon fill="white" stroke="#666666" points="692.5,-413 582.5,-413 582.5,-394 692.5,-394 692.5,-413"/>
<text text-anchor="middle" x="637.5" y="-401" font-family="Helvetica,sans-Serif" font-size="10.00">Value::as_symbolic</text>
</a>
</g>
</g>
<!-- Node1&#45;&gt;Node2 -->
<g id="edge1_Node000001_Node000002" class="edge">
<title>Node1&#45;&gt;Node2</title>
<g id="a_edge1_Node000001_Node000002"><a xlink:title=" ">
<path fill="none" stroke="#63b8ff" d="M803.03,-216.16C792.6,-253.46 764.89,-334.8 712,-379.5 704.52,-385.83 695.32,-390.49 686.01,-393.94"/>
<polygon fill="#63b8ff" stroke="#63b8ff" points="806.53,-216.64 805.72,-206.08 799.76,-214.84 806.53,-216.64"/>
</a>
</g>
</g>
<!-- Node3 -->
<g id="Node000003" class="node">
<title>Node3</title>
<g id="a_Node000003"><a xlink:href="../../dc/d25/classSymbolicExpr.html#a6e8c5c20af88337d449cbf5771d5d28d" target="_top" xlink:title="计算矩阵的特征多项式。">
<polygon fill="white" stroke="#666666" points="515.5,-299 384.5,-299 384.5,-280 515.5,-280 515.5,-299"/>
<text text-anchor="middle" x="450" y="-287" font-family="Helvetica,sans-Serif" font-size="10.00">SymbolicExpr::charpoly</text>
</a>
</g>
</g>
<!-- Node1&#45;&gt;Node3 -->
<g id="edge2_Node000001_Node000003" class="edge">
<title>Node1&#45;&gt;Node3</title>
<g id="a_edge2_Node000001_Node000003"><a xlink:title=" ">
<path fill="none" stroke="#63b8ff" d="M792.18,-213.57C774.53,-231.32 744.22,-258.2 712,-270.5 648.44,-294.77 569.93,-297.14 515.71,-294.94"/>
<polygon fill="#63b8ff" stroke="#63b8ff" points="794.92,-215.76 799.35,-206.14 789.89,-210.9 794.92,-215.76"/>
</a>
</g>
</g>
<!-- Node4 -->
<g id="Node000004" class="node">
<title>Node4</title>
<g id="a_Node000004"><a xlink:href="../../dc/d25/classSymbolicExpr.html#a83879d764986be80edbedc769b96224a" target="_top" xlink:title="计算矩阵的特征值。">
<polygon fill="white" stroke="#666666" points="337,-337 188,-337 188,-318 337,-318 337,-337"/>
<text text-anchor="middle" x="262.5" y="-325" font-family="Helvetica,sans-Serif" font-size="10.00">SymbolicExpr::eigenvalues</text>
</a>
</g>
</g>
<!-- Node1&#45;&gt;Node4 -->
<g id="edge9_Node000001_Node000004" class="edge">
<title>Node1&#45;&gt;Node4</title>
<g id="a_edge9_Node000001_Node000004"><a xlink:title=" ">
<path fill="none" stroke="#63b8ff" d="M796.89,-214.57C781.24,-238.17 750.3,-278.59 712,-296.5 586.15,-355.35 418.48,-347.35 327.99,-337.01"/>
<polygon fill="#63b8ff" stroke="#63b8ff" points="799.84,-216.45 802.29,-206.15 793.95,-212.67 799.84,-216.45"/>
</a>
</g>
</g>
<!-- Node5 -->
<g id="Node000005" class="node">
<title>Node5</title>
<g id="a_Node000005"><a xlink:href="../../dc/d25/classSymbolicExpr.html#a7777100ca36b7a1a7285ece2380dcf4b" target="_top" xlink:title="计算矩阵的特征向量。">
<polygon fill="white" stroke="#666666" points="152,-356 0,-356 0,-337 152,-337 152,-356"/>
<text text-anchor="middle" x="76" y="-344" font-family="Helvetica,sans-Serif" font-size="10.00">SymbolicExpr::eigenvectors</text>
</a>
</g>
</g>
<!-- Node1&#45;&gt;Node5 -->
<g id="edge10_Node000001_Node000005" class="edge">
<title>Node1&#45;&gt;Node5</title>
<g id="a_edge10_Node000001_Node000005"><a xlink:title=" ">
<path fill="none" stroke="#63b8ff" d="M800.26,-215.7C787.08,-245.67 757.22,-302.88 712,-329.5 511.46,-447.53 210.12,-382.54 110.38,-356.05"/>
<polygon fill="#63b8ff" stroke="#63b8ff" points="803.56,-216.91 804.23,-206.33 797.11,-214.18 803.56,-216.91"/>
</a>
</g>
</g>
<!-- Node6 -->
<g id="Node000006" class="node">
<title>Node6</title>
<g id="a_Node000006"><a xlink:href="../../dc/d25/classSymbolicExpr.html#a3b4cc1669b1b117b15cc82783a22b4fc" target="_top" xlink:title="计算矩阵行列式。">
<polygon fill="white" stroke="#666666" points="712,-243 563,-243 563,-224 712,-224 712,-243"/>
<text text-anchor="middle" x="637.5" y="-231" font-family="Helvetica,sans-Serif" font-size="10.00">SymbolicExpr::determinant</text>
</a>
</g>
</g>
<!-- Node1&#45;&gt;Node6 -->
<g id="edge5_Node000001_Node000006" class="edge">
<title>Node1&#45;&gt;Node6</title>
<g id="a_edge5_Node000001_Node000006"><a xlink:title=" ">
<path fill="none" stroke="#63b8ff" d="M754.31,-208.22C731.1,-213.29 704.28,-219.14 682.3,-223.94"/>
<polygon fill="#63b8ff" stroke="#63b8ff" points="755.33,-211.58 764.35,-206.03 753.83,-204.74 755.33,-211.58"/>
</a>
</g>
</g>
<!-- Node8 -->
<g id="Node000008" class="node">
<title>Node8</title>
<g id="a_Node000008"><a xlink:href="../../dc/d25/classSymbolicExpr.html#afa1c1c57bb6c77da5d016f69eaa60703" target="_top" xlink:title="计算矩阵的逆。">
<polygon fill="white" stroke="#666666" points="512.5,-132 387.5,-132 387.5,-113 512.5,-113 512.5,-132"/>
<text text-anchor="middle" x="450" y="-120" font-family="Helvetica,sans-Serif" font-size="10.00">SymbolicExpr::inverse</text>
</a>
</g>
</g>
<!-- Node1&#45;&gt;Node8 -->
<g id="edge11_Node000001_Node000008" class="edge">
<title>Node1&#45;&gt;Node8</title>
<g id="a_edge11_Node000001_Node000008"><a xlink:title=" ">
<path fill="none" stroke="#63b8ff" d="M800.67,-177.53C787.89,-147.47 758.38,-89.91 712,-66.5 652.88,-36.66 627.45,-51.29 563,-66.5 525.13,-75.44 485.46,-99.26 465.02,-112.78"/>
<polygon fill="#63b8ff" stroke="#63b8ff" points="797.48,-178.97 804.49,-186.91 803.96,-176.33 797.48,-178.97"/>
</a>
</g>
</g>
<!-- Node10 -->
<g id="Node000010" class="node">
<title>Node10</title>
<g id="a_Node000010"><a xlink:href="../../d1/d42/namespacelamina.html#a0b636e799fde80b8e844b86225be495b" target="_top" xlink:title="生成反射矩阵">
<polygon fill="white" stroke="#666666" points="707.5,-169 567.5,-169 567.5,-150 707.5,-150 707.5,-169"/>
<text text-anchor="middle" x="637.5" y="-157" font-family="Helvetica,sans-Serif" font-size="10.00">lamina::matrix_reflection</text>
</a>
</g>
</g>
<!-- Node1&#45;&gt;Node10 -->
<g id="edge13_Node000001_Node000010" class="edge">
<title>Node1&#45;&gt;Node10</title>
<g id="a_edge13_Node000001_Node000010"><a xlink:title=" ">
<path fill="none" stroke="#63b8ff" d="M754.31,-184.78C731.1,-179.71 704.28,-173.86 682.3,-169.06"/>
<polygon fill="#63b8ff" stroke="#63b8ff" points="753.83,-188.26 764.35,-186.97 755.33,-181.42 753.83,-188.26"/>
</a>
</g>
</g>
<!-- Node11 -->
<g id="Node000011" class="node">
<title>Node11</title>
<g id="a_Node000011"><a xlink:href="../../d1/d42/namespacelamina.html#a1ec4973df39b09bdb02322360f1a347f" target="_top" xlink:title="生成旋转矩阵">
<polygon fill="white" stroke="#666666" points="703.5,-132 571.5,-132 571.5,-113 703.5,-113 703.5,-132"/>
<text text-anchor="middle" x="637.5" y="-120" font-family="Helvetica,sans-Serif" font-size="10.00">lamina::matrix_rotation</text>
</a>
</g>
</g>
<!-- Node1&#45;&gt;Node11 -->
<g id="edge14_Node000001_Node000011" class="edge">
<title>Node1&#45;&gt;Node11</title>
<g id="a_edge14_Node000001_Node000011"><a xlink:title=" ">
<path fill="none" stroke="#63b8ff" d="M785.88,-181.11C767,-168.6 738.75,-151.31 712,-140.5 703.84,-137.2 694.92,-134.4 686.19,-132.05"/>
<polygon fill="#63b8ff" stroke="#63b8ff" points="784.09,-184.13 794.34,-186.82 788.01,-178.32 784.09,-184.13"/>
</a>
</g>
</g>
<!-- Node12 -->
<g id="Node000012" class="node">
<title>Node12</title>
<g id="a_Node000012"><a xlink:href="../../d1/d42/namespacelamina.html#a319af6bf9240a169ef0d04790e09b45e" target="_top" xlink:title="生成缩放矩阵">
<polygon fill="white" stroke="#666666" points="701.5,-95 573.5,-95 573.5,-76 701.5,-76 701.5,-95"/>
<text text-anchor="middle" x="637.5" y="-83" font-family="Helvetica,sans-Serif" font-size="10.00">lamina::matrix_scaling</text>
</a>
</g>
</g>
<!-- Node1&#45;&gt;Node12 -->
<g id="edge15_Node000001_Node000012" class="edge">
<title>Node1&#45;&gt;Node12</title>
<g id="a_edge15_Node000001_Node000012"><a xlink:title=" ">
<path fill="none" stroke="#63b8ff" d="M794.65,-178.76C777.76,-157.59 746.65,-122.65 712,-103.5 705.79,-100.07 698.93,-97.28 691.97,-95.03"/>
<polygon fill="#63b8ff" stroke="#63b8ff" points="792.09,-181.16 800.99,-186.9 797.61,-176.86 792.09,-181.16"/>
</a>
</g>
</g>
<!-- Node13 -->
<g id="Node000013" class="node">
<title>Node13</title>
<g id="a_Node000013"><a xlink:href="../../dc/d25/classSymbolicExpr.html#ae41c16b68c56de8d4c70a98c85722ff1" target="_top" xlink:title="计算矩阵的行最简阶梯形（RREF）。">
<polygon fill="white" stroke="#666666" points="691,-206 584,-206 584,-187 691,-187 691,-206"/>
<text text-anchor="middle" x="637.5" y="-194" font-family="Helvetica,sans-Serif" font-size="10.00">SymbolicExpr::rref</text>
</a>
</g>
</g>
<!-- Node1&#45;&gt;Node13 -->
<g id="edge16_Node000001_Node000013" class="edge">
<title>Node1&#45;&gt;Node13</title>
<g id="a_edge16_Node000001_Node000013"><a xlink:title=" ">
<path fill="none" stroke="#63b8ff" d="M737.67,-196.5C722.13,-196.5 705.93,-196.5 691.23,-196.5"/>
<polygon fill="#63b8ff" stroke="#63b8ff" points="737.76,-200 747.76,-196.5 737.76,-193 737.76,-200"/>
</a>
</g>
</g>
<!-- Node14 -->
<g id="Node000014" class="node">
<title>Node14</title>
<g id="a_Node000014"><a xlink:href="../../dc/d25/classSymbolicExpr.html#ae4af11b36ead36b4810a8153e3671d89" target="_top" xlink:title="计算矩阵转置。">
<polygon fill="white" stroke="#666666" points="706,-19 569,-19 569,0 706,0 706,-19"/>
<text text-anchor="middle" x="637.5" y="-7" font-family="Helvetica,sans-Serif" font-size="10.00">SymbolicExpr::transpose</text>
</a>
</g>
</g>
<!-- Node1&#45;&gt;Node14 -->
<g id="edge18_Node000001_Node000014" class="edge">
<title>Node1&#45;&gt;Node14</title>
<g id="a_edge18_Node000001_Node000014"><a xlink:title=" ">
<path fill="none" stroke="#63b8ff" d="M801.75,-177.11C789.8,-143.07 760.5,-72.49 712,-33.5 704.15,-27.19 694.6,-22.52 685,-19.07"/>
<polygon fill="#63b8ff" stroke="#63b8ff" points="798.5,-178.44 805.02,-186.79 805.14,-176.19 798.5,-178.44"/>
</a>
</g>
</g>
<!-- Node3&#45;&gt;Node4 -->
<g id="edge3_Node000003_Node000004" class="edge">
<title>Node3&#45;&gt;Node4</title>
<g id="a_edge3_Node000003_Node000004"><a xlink:title=" ">
<path fill="none" stroke="#63b8ff" d="M392.33,-301.11C365.94,-306.51 334.95,-312.86 309.97,-317.98"/>
<polygon fill="#63b8ff" stroke="#63b8ff" points="393.1,-304.52 402.19,-299.09 391.69,-297.67 393.1,-304.52"/>
</a>
</g>
</g>
<!-- Node4&#45;&gt;Node5 -->
<g id="edge4_Node000004_Node000005" class="edge">
<title>Node4&#45;&gt;Node5</title>
<g id="a_edge4_Node000004_Node000005"><a xlink:title=" ">
<path fill="none" stroke="#63b8ff" d="M177.8,-336.12C169.23,-337 160.57,-337.89 152.11,-338.77"/>
<polygon fill="#63b8ff" stroke="#63b8ff" points="178.2,-339.6 187.79,-335.09 177.48,-332.63 178.2,-339.6"/>
</a>
</g>
</g>
<!-- Node6&#45;&gt;Node3 -->
<g id="edge6_Node000006_Node000003" class="edge">
<title>Node6&#45;&gt;Node3</title>
<g id="a_edge6_Node000006_Node000003"><a xlink:title=" ">
<path fill="none" stroke="#63b8ff" d="M594.95,-246.04C560.9,-256.32 513.44,-270.65 482.47,-280"/>
<polygon fill="#63b8ff" stroke="#63b8ff" points="596.05,-249.37 604.61,-243.13 594.03,-242.67 596.05,-249.37"/>
</a>
</g>
</g>
<!-- Node6&#45;&gt;Node6 -->
<g id="edge7_Node000006_Node000006" class="edge">
<title>Node6&#45;&gt;Node6</title>
<g id="a_edge7_Node000006_Node000006"><a xlink:title=" ">
<path fill="none" stroke="#63b8ff" d="M669.31,-251.45C668.4,-256.82 657.8,-261 637.5,-261 607.29,-261 598.55,-251.73 611.3,-243.08"/>
<polygon fill="#63b8ff" stroke="#63b8ff" points="672.18,-249.44 663.7,-243.08 666.36,-253.34 672.18,-249.44"/>
</a>
</g>
</g>
<!-- Node7 -->
<g id="Node000007" class="node">
<title>Node7</title>
<g id="a_Node000007"><a xlink:href="../../d1/d42/namespacelamina.html#a35783093777191a0254b7f3a2340e0f5" target="_top" xlink:title="计算符号矩阵的行列式">
<polygon fill="white" stroke="#666666" points="527,-243 373,-243 373,-224 527,-224 527,-243"/>
<text text-anchor="middle" x="450" y="-231" font-family="Helvetica,sans-Serif" font-size="10.00">lamina::matrix_determinant</text>
</a>
</g>
</g>
<!-- Node6&#45;&gt;Node7 -->
<g id="edge8_Node000006_Node000007" class="edge">
<title>Node6&#45;&gt;Node7</title>
<g id="a_edge8_Node000006_Node000007"><a xlink:title=" ">
<path fill="none" stroke="#63b8ff" d="M552.66,-233.5C544.19,-233.5 535.61,-233.5 527.23,-233.5"/>
<polygon fill="#63b8ff" stroke="#63b8ff" points="552.92,-237 562.92,-233.5 552.92,-230 552.92,-237"/>
</a>
</g>
</g>
<!-- Node9 -->
<g id="Node000009" class="node">
<title>Node9</title>
<g id="a_Node000009"><a xlink:href="../../d1/d42/namespacelamina.html#a972455b000c18e71aefd4a84a5708edf" target="_top" xlink:title="计算符号矩阵的逆矩阵">
<polygon fill="white" stroke="#666666" points="327.5,-132 197.5,-132 197.5,-113 327.5,-113 327.5,-132"/>
<text text-anchor="middle" x="262.5" y="-120" font-family="Helvetica,sans-Serif" font-size="10.00">lamina::matrix_inverse</text>
</a>
</g>
</g>
<!-- Node8&#45;&gt;Node9 -->
<g id="edge12_Node000008_Node000009" class="edge">
<title>Node8&#45;&gt;Node9</title>
<g id="a_edge12_Node000008_Node000009"><a xlink:title=" ">
<path fill="none" stroke="#63b8ff" d="M377.43,-122.5C361.06,-122.5 343.75,-122.5 327.7,-122.5"/>
<polygon fill="#63b8ff" stroke="#63b8ff" points="377.49,-126 387.49,-122.5 377.49,-119 377.49,-126"/>
</a>
</g>
</g>
<!-- Node13&#45;&gt;Node8 -->
<g id="edge17_Node000013_Node000008" class="edge">
<title>Node13&#45;&gt;Node8</title>
<g id="a_edge17_Node000013_Node000008"><a xlink:title=" ">
<path fill="none" stroke="#63b8ff" d="M580.52,-184.18C574.55,-182.46 568.61,-180.56 563,-178.5 527.49,-165.46 488.51,-144.28 467.18,-132.04"/>
<polygon fill="#63b8ff" stroke="#63b8ff" points="579.97,-187.66 590.54,-186.92 581.82,-180.91 579.97,-187.66"/>
</a>
</g>
</g>
</g>
</svg>
