<?xml version="1.0" encoding="UTF-8" standalone="no"?>
<!DOCTYPE svg PUBLIC "-//W3C//DTD SVG 1.1//EN"
 "http://www.w3.org/Graphics/SVG/1.1/DTD/svg11.dtd">
<!-- Generated by graphviz version 2.43.0 (0)
 -->
<!-- Title: src/lammp/abort.c Pages: 1 -->
<svg width="421pt" height="148pt"
 viewBox="0.00 0.00 421.00 148.00" xmlns="http://www.w3.org/2000/svg" xmlns:xlink="http://www.w3.org/1999/xlink">
<g id="graph0" class="graph" transform="scale(1 1) rotate(0) translate(4 144)">
<title>src/lammp/abort.c</title>
<!-- Node1 -->
<g id="Node000001" class="node">
<title>Node1</title>
<g id="a_Node000001"><a xlink:title=" ">
<polygon fill="#999999" stroke="#666666" points="327.5,-140 222.5,-140 222.5,-121 327.5,-121 327.5,-140"/>
<text text-anchor="middle" x="275" y="-128" font-family="Helvetica,sans-Serif" font-size="10.00">src/lammp/abort.c</text>
</a>
</g>
</g>
<!-- Node2 -->
<g id="Node000002" class="node">
<title>Node2</title>
<g id="a_Node000002"><a xlink:href="../../dd/d90/lmmp_8h.html" target="_top" xlink:title=" ">
<polygon fill="white" stroke="#666666" points="214.5,-85 107.5,-85 107.5,-55 214.5,-55 214.5,-85"/>
<text text-anchor="start" x="115.5" y="-73" font-family="Helvetica,sans-Serif" font-size="10.00">../../include/lammp</text>
<text text-anchor="middle" x="161" y="-62" font-family="Helvetica,sans-Serif" font-size="10.00">/lmmp.h</text>
</a>
</g>
</g>
<!-- Node1&#45;&gt;Node2 -->
<g id="edge1_Node000001_Node000002" class="edge">
<title>Node1&#45;&gt;Node2</title>
<g id="a_edge1_Node000001_Node000002"><a xlink:title=" ">
<path fill="none" stroke="#63b8ff" d="M258.18,-120.87C242.28,-112.71 217.9,-100.2 197.53,-89.75"/>
<polygon fill="#63b8ff" stroke="#63b8ff" points="199,-86.57 188.51,-85.11 195.8,-92.79 199,-86.57"/>
</a>
</g>
</g>
<!-- Node5 -->
<g id="Node000005" class="node">
<title>Node5</title>
<g id="a_Node000005"><a xlink:title=" ">
<polygon fill="#e0e0e0" stroke="#999999" points="269.5,-19 216.5,-19 216.5,0 269.5,0 269.5,-19"/>
<text text-anchor="middle" x="243" y="-7" font-family="Helvetica,sans-Serif" font-size="10.00">stdlib.h</text>
</a>
</g>
</g>
<!-- Node1&#45;&gt;Node5 -->
<g id="edge8_Node000001_Node000005" class="edge">
<title>Node1&#45;&gt;Node5</title>
<g id="a_edge8_Node000001_Node000005"><a xlink:title=" ">
<path fill="none" stroke="#63b8ff" d="M272.42,-120.99C269.73,-112.06 265.44,-97.58 262,-85 256.84,-66.12 251.36,-44.43 247.61,-29.34"/>
<polygon fill="#63b8ff" stroke="#63b8ff" points="250.92,-28.11 245.13,-19.24 244.12,-29.79 250.92,-28.11"/>
</a>
</g>
</g>
<!-- Node7 -->
<g id="Node000007" class="node">
<title>Node7</title>
<g id="a_Node000007"><a xlink:title=" ">
<polygon fill="#e0e0e0" stroke="#999999" points="345,-79.5 271,-79.5 271,-60.5 345,-60.5 345,-79.5"/>
<text text-anchor="middle" x="308" y="-67.5" font-family="Helvetica,sans-Serif" font-size="10.00">stdatomic.h</text>
</a>
</g>
</g>
<!-- Node1&#45;&gt;Node7 -->
<g id="edge6_Node000001_Node000007" class="edge">
<title>Node1&#45;&gt;Node7</title>
<g id="a_edge6_Node000001_Node000007"><a xlink:title=" ">
<path fill="none" stroke="#63b8ff" d="M279.87,-120.87C284.65,-112.4 292.07,-99.24 298.09,-88.57"/>
<polygon fill="#63b8ff" stroke="#63b8ff" points="301.25,-90.1 303.11,-79.67 295.15,-86.66 301.25,-90.1"/>
</a>
</g>
</g>
<!-- Node8 -->
<g id="Node000008" class="node">
<title>Node8</title>
<g id="a_Node000008"><a xlink:title=" ">
<polygon fill="#e0e0e0" stroke="#999999" points="413,-79.5 363,-79.5 363,-60.5 413,-60.5 413,-79.5"/>
<text text-anchor="middle" x="388" y="-67.5" font-family="Helvetica,sans-Serif" font-size="10.00">stdio.h</text>
</a>
</g>
</g>
<!-- Node1&#45;&gt;Node8 -->
<g id="edge7_Node000001_Node000008" class="edge">
<title>Node1&#45;&gt;Node8</title>
<g id="a_edge7_Node000001_Node000008"><a xlink:title=" ">
<path fill="none" stroke="#63b8ff" d="M291.67,-120.87C310.28,-111.23 340.62,-95.53 362.28,-84.31"/>
<polygon fill="#63b8ff" stroke="#63b8ff" points="363.99,-87.37 371.26,-79.67 360.77,-81.16 363.99,-87.37"/>
</a>
</g>
</g>
<!-- Node3 -->
<g id="Node000003" class="node">
<title>Node3</title>
<g id="a_Node000003"><a xlink:title=" ">
<polygon fill="#e0e0e0" stroke="#999999" points="56,-19 0,-19 0,0 56,0 56,-19"/>
<text text-anchor="middle" x="28" y="-7" font-family="Helvetica,sans-Serif" font-size="10.00">stddef.h</text>
</a>
</g>
</g>
<!-- Node2&#45;&gt;Node3 -->
<g id="edge2_Node000002_Node000003" class="edge">
<title>Node2&#45;&gt;Node3</title>
<g id="a_edge2_Node000002_Node000003"><a xlink:title=" ">
<path fill="none" stroke="#63b8ff" d="M129.14,-54.99C107.15,-45.31 78.15,-32.56 56.84,-23.18"/>
<polygon fill="#63b8ff" stroke="#63b8ff" points="58.2,-19.96 47.64,-19.14 55.39,-26.37 58.2,-19.96"/>
</a>
</g>
</g>
<!-- Node4 -->
<g id="Node000004" class="node">
<title>Node4</title>
<g id="a_Node000004"><a xlink:title=" ">
<polygon fill="#e0e0e0" stroke="#999999" points="127.5,-19 74.5,-19 74.5,0 127.5,0 127.5,-19"/>
<text text-anchor="middle" x="101" y="-7" font-family="Helvetica,sans-Serif" font-size="10.00">stdint.h</text>
</a>
</g>
</g>
<!-- Node2&#45;&gt;Node4 -->
<g id="edge3_Node000002_Node000004" class="edge">
<title>Node2&#45;&gt;Node4</title>
<g id="a_edge3_Node000002_Node000004"><a xlink:title=" ">
<path fill="none" stroke="#63b8ff" d="M146.48,-54.84C137.68,-46.26 126.43,-35.3 117.33,-26.42"/>
<polygon fill="#63b8ff" stroke="#63b8ff" points="119.59,-23.74 109.99,-19.27 114.71,-28.75 119.59,-23.74"/>
</a>
</g>
</g>
<!-- Node2&#45;&gt;Node5 -->
<g id="edge4_Node000002_Node000005" class="edge">
<title>Node2&#45;&gt;Node5</title>
<g id="a_edge4_Node000002_Node000005"><a xlink:title=" ">
<path fill="none" stroke="#63b8ff" d="M180.85,-54.84C193.48,-45.83 209.8,-34.18 222.55,-25.09"/>
<polygon fill="#63b8ff" stroke="#63b8ff" points="224.6,-27.92 230.71,-19.27 220.54,-22.22 224.6,-27.92"/>
</a>
</g>
</g>
<!-- Node6 -->
<g id="Node000006" class="node">
<title>Node6</title>
<g id="a_Node000006"><a xlink:title=" ">
<polygon fill="#e0e0e0" stroke="#999999" points="198.5,-19 145.5,-19 145.5,0 198.5,0 198.5,-19"/>
<text text-anchor="middle" x="172" y="-7" font-family="Helvetica,sans-Serif" font-size="10.00">string.h</text>
</a>
</g>
</g>
<!-- Node2&#45;&gt;Node6 -->
<g id="edge5_Node000002_Node000006" class="edge">
<title>Node2&#45;&gt;Node6</title>
<g id="a_edge5_Node000002_Node000006"><a xlink:title=" ">
<path fill="none" stroke="#63b8ff" d="M163.66,-54.84C165.11,-47.13 166.93,-37.49 168.49,-29.17"/>
<polygon fill="#63b8ff" stroke="#63b8ff" points="171.94,-29.74 170.35,-19.27 165.06,-28.45 171.94,-29.74"/>
</a>
</g>
</g>
</g>
</svg>
