<?xml version="1.0" encoding="UTF-8" standalone="no"?>
<!DOCTYPE svg PUBLIC "-//W3C//DTD SVG 1.1//EN"
 "http://www.w3.org/Graphics/SVG/1.1/DTD/svg11.dtd">
<!-- Generated by graphviz version 2.43.0 (0)
 -->
<!-- Title: lmmp_seed_generator Pages: 1 -->
<svg width="643pt" height="291pt"
 viewBox="0.00 0.00 643.00 291.00" xmlns="http://www.w3.org/2000/svg" xmlns:xlink="http://www.w3.org/1999/xlink">
<g id="graph0" class="graph" transform="scale(1 1) rotate(0) translate(4 287)">
<title>lmmp_seed_generator</title>
<!-- Node1 -->
<g id="Node000001" class="node">
<title>Node1</title>
<g id="a_Node000001"><a xlink:title="种子生成器">
<polygon fill="#999999" stroke="#666666" points="635,-152 509,-152 509,-133 635,-133 635,-152"/>
<text text-anchor="middle" x="572" y="-140" font-family="Helvetica,sans-Serif" font-size="10.00">lmmp_seed_generator</text>
</a>
</g>
</g>
<!-- Node2 -->
<g id="Node000002" class="node">
<title>Node2</title>
<g id="a_Node000002"><a xlink:href="../../df/de3/mprand_8c.html#a44989daea6d0e50a7c26cab53e559c74" target="_top" xlink:title="初始化全局随机数生成器">
<polygon fill="white" stroke="#666666" points="455,-283 327,-283 327,-264 455,-264 455,-283"/>
<text text-anchor="middle" x="391" y="-271" font-family="Helvetica,sans-Serif" font-size="10.00">lmmp_global_rng_init_</text>
</a>
</g>
</g>
<!-- Node1&#45;&gt;Node2 -->
<g id="edge1_Node000001_Node000002" class="edge">
<title>Node1&#45;&gt;Node2</title>
<g id="a_edge1_Node000001_Node000002"><a xlink:title=" ">
<path fill="none" stroke="#63b8ff" d="M560.37,-160.89C544.66,-186.33 512.76,-231.8 473,-255.5 467.31,-258.89 461.05,-261.65 454.6,-263.88"/>
<polygon fill="#63b8ff" stroke="#63b8ff" points="563.44,-162.58 565.58,-152.21 557.43,-158.98 563.44,-162.58"/>
</a>
</g>
</g>
<!-- Node3 -->
<g id="Node000003" class="node">
<title>Node3</title>
<g id="a_Node000003"><a xlink:href="../../dc/da5/rand__state_8h.html#aaa9ce44c41c733a718b1b47c61def453" target="_top" xlink:title=" ">
<polygon fill="white" stroke="#666666" points="466.5,-246 315.5,-246 315.5,-227 466.5,-227 466.5,-246"/>
<text text-anchor="middle" x="391" y="-234" font-family="Helvetica,sans-Serif" font-size="10.00">lmmp_pcg64_128_srandom</text>
</a>
</g>
</g>
<!-- Node1&#45;&gt;Node3 -->
<g id="edge2_Node000001_Node000003" class="edge">
<title>Node1&#45;&gt;Node3</title>
<g id="a_edge2_Node000001_Node000003"><a xlink:title=" ">
<path fill="none" stroke="#63b8ff" d="M554.18,-159.38C535.82,-176.84 504.77,-203.58 473,-218.5 465.7,-221.93 457.72,-224.72 449.7,-226.99"/>
<polygon fill="#63b8ff" stroke="#63b8ff" points="556.95,-161.57 561.68,-152.1 552.07,-156.55 556.95,-161.57"/>
</a>
</g>
</g>
<!-- Node5 -->
<g id="Node000005" class="node">
<title>Node5</title>
<g id="a_Node000005"><a xlink:href="../../df/de3/mprand_8c.html#ab9aabca7fe12f7b75a380bef694ff848" target="_top" xlink:title=" ">
<polygon fill="white" stroke="#666666" points="93,-190 0,-190 0,-171 93,-171 93,-190"/>
<text text-anchor="middle" x="46.5" y="-178" font-family="Helvetica,sans-Serif" font-size="10.00">lmmp_random_</text>
</a>
</g>
</g>
<!-- Node1&#45;&gt;Node5 -->
<g id="edge5_Node000001_Node000005" class="edge">
<title>Node1&#45;&gt;Node5</title>
<g id="a_edge5_Node000001_Node000005"><a xlink:title=" ">
<path fill="none" stroke="#63b8ff" d="M498.59,-147.76C388.98,-155.71 184.09,-170.59 93.08,-177.19"/>
<polygon fill="#63b8ff" stroke="#63b8ff" points="499.17,-151.22 508.89,-147.01 498.66,-144.24 499.17,-151.22"/>
</a>
</g>
</g>
<!-- Node6 -->
<g id="Node000006" class="node">
<title>Node6</title>
<g id="a_Node000006"><a xlink:href="../../df/de3/mprand_8c.html#aa81b9fdf769e35fc73c0e8b09d73c724" target="_top" xlink:title="将rng内部状态拓展至k维度">
<polygon fill="white" stroke="#666666" points="273,-114 129,-114 129,-95 273,-95 273,-114"/>
<text text-anchor="middle" x="201" y="-102" font-family="Helvetica,sans-Serif" font-size="10.00">lmmp_strong_rng_extern_</text>
</a>
</g>
</g>
<!-- Node1&#45;&gt;Node6 -->
<g id="edge6_Node000001_Node000006" class="edge">
<title>Node1&#45;&gt;Node6</title>
<g id="a_edge6_Node000001_Node000006"><a xlink:title=" ">
<path fill="none" stroke="#63b8ff" d="M498.63,-135.05C433.43,-128.33 338.14,-118.52 273.28,-111.84"/>
<polygon fill="#63b8ff" stroke="#63b8ff" points="498.52,-138.55 508.82,-136.1 499.23,-131.59 498.52,-138.55"/>
</a>
</g>
</g>
<!-- Node7 -->
<g id="Node000007" class="node">
<title>Node7</title>
<g id="a_Node000007"><a xlink:href="../../df/de3/mprand_8c.html#a635dc23a6f81ddda510cd3804d7c2220" target="_top" xlink:title="创建k维度强随机数生成器">
<polygon fill="white" stroke="#666666" points="265,-67 137,-67 137,-48 265,-48 265,-67"/>
<text text-anchor="middle" x="201" y="-55" font-family="Helvetica,sans-Serif" font-size="10.00">lmmp_strong_rng_init_</text>
</a>
</g>
</g>
<!-- Node1&#45;&gt;Node7 -->
<g id="edge7_Node000001_Node000007" class="edge">
<title>Node1&#45;&gt;Node7</title>
<g id="a_edge7_Node000001_Node000007"><a xlink:title=" ">
<path fill="none" stroke="#63b8ff" d="M555.19,-125.26C537.27,-107.08 506.22,-79.44 473,-67.5 405.1,-43.1 321.38,-44.33 265.11,-49.25"/>
<polygon fill="#63b8ff" stroke="#63b8ff" points="553.01,-128.05 562.46,-132.86 558.07,-123.21 553.01,-128.05"/>
</a>
</g>
</g>
<!-- Node8 -->
<g id="Node000008" class="node">
<title>Node8</title>
<g id="a_Node000008"><a xlink:href="../../dc/da5/rand__state_8h.html#a4f15a8f2451ca95cfd8a75bce6ddf8e8" target="_top" xlink:title=" ">
<polygon fill="white" stroke="#666666" points="473,-209 309,-209 309,-190 473,-190 473,-209"/>
<text text-anchor="middle" x="391" y="-197" font-family="Helvetica,sans-Serif" font-size="10.00">lmmp_xoshiro256pp_srandom</text>
</a>
</g>
</g>
<!-- Node1&#45;&gt;Node8 -->
<g id="edge8_Node000001_Node000008" class="edge">
<title>Node1&#45;&gt;Node8</title>
<g id="a_edge8_Node000001_Node000008"><a xlink:title=" ">
<path fill="none" stroke="#63b8ff" d="M533.93,-155.34C515.64,-161.58 493.22,-169.1 473,-175.5 457.34,-180.46 439.88,-185.67 425.19,-189.97"/>
<polygon fill="#63b8ff" stroke="#63b8ff" points="535.31,-158.57 543.63,-152.02 533.04,-151.95 535.31,-158.57"/>
</a>
</g>
</g>
<!-- Node9 -->
<g id="Node000009" class="node">
<title>Node9</title>
<g id="a_Node000009"><a xlink:href="../../dc/da5/rand__state_8h.html#a03779ad9ef6399cf572d87c68fbb3cac" target="_top" xlink:title=" ">
<polygon fill="white" stroke="#666666" points="443,-95 339,-95 339,-76 443,-76 443,-95"/>
<text text-anchor="middle" x="391" y="-83" font-family="Helvetica,sans-Serif" font-size="10.00">pcg64_le_seq_init</text>
</a>
</g>
</g>
<!-- Node1&#45;&gt;Node9 -->
<g id="edge10_Node000001_Node000009" class="edge">
<title>Node1&#45;&gt;Node9</title>
<g id="a_edge10_Node000001_Node000009"><a xlink:title=" ">
<path fill="none" stroke="#63b8ff" d="M533.93,-129.66C515.64,-123.42 493.22,-115.9 473,-109.5 457.34,-104.54 439.88,-99.33 425.19,-95.03"/>
<polygon fill="#63b8ff" stroke="#63b8ff" points="533.04,-133.05 543.63,-132.98 535.31,-126.43 533.04,-133.05"/>
</a>
</g>
</g>
<!-- Node10 -->
<g id="Node000010" class="node">
<title>Node10</title>
<g id="a_Node000010"><a xlink:href="../../dc/da5/rand__state_8h.html#ac66817a1503e045c752f6e5a2d0d1b22" target="_top" xlink:title=" ">
<polygon fill="white" stroke="#666666" points="446,-19 336,-19 336,0 446,0 446,-19"/>
<text text-anchor="middle" x="391" y="-7" font-family="Helvetica,sans-Serif" font-size="10.00">pcg64_le_seq_next</text>
</a>
</g>
</g>
<!-- Node1&#45;&gt;Node10 -->
<g id="edge13_Node000001_Node000010" class="edge">
<title>Node1&#45;&gt;Node10</title>
<g id="a_edge13_Node000001_Node000010"><a xlink:title=" ">
<path fill="none" stroke="#63b8ff" d="M559.28,-124.09C542.87,-99.81 510.8,-57.37 473,-33.5 463.08,-27.23 451.45,-22.54 440.15,-19.05"/>
<polygon fill="#63b8ff" stroke="#63b8ff" points="556.53,-126.29 564.96,-132.72 562.38,-122.44 556.53,-126.29"/>
</a>
</g>
</g>
<!-- Node4 -->
<g id="Node000004" class="node">
<title>Node4</title>
<g id="a_Node000004"><a xlink:href="../../df/de3/mprand_8c.html#ab681c748cb7fe031d4db6c3c3094e347" target="_top" xlink:title=" ">
<polygon fill="white" stroke="#666666" points="262,-209 140,-209 140,-190 262,-190 262,-209"/>
<text text-anchor="middle" x="201" y="-197" font-family="Helvetica,sans-Serif" font-size="10.00">lmmp_seed_random_</text>
</a>
</g>
</g>
<!-- Node3&#45;&gt;Node4 -->
<g id="edge3_Node000003_Node000004" class="edge">
<title>Node3&#45;&gt;Node4</title>
<g id="a_edge3_Node000003_Node000004"><a xlink:title=" ">
<path fill="none" stroke="#63b8ff" d="M331.49,-224.98C305.5,-219.87 275.28,-213.92 250.58,-209.06"/>
<polygon fill="#63b8ff" stroke="#63b8ff" points="331.1,-228.47 341.59,-226.97 332.45,-221.61 331.1,-228.47"/>
</a>
</g>
</g>
<!-- Node4&#45;&gt;Node5 -->
<g id="edge4_Node000004_Node000005" class="edge">
<title>Node4&#45;&gt;Node5</title>
<g id="a_edge4_Node000004_Node000005"><a xlink:title=" ">
<path fill="none" stroke="#63b8ff" d="M129.46,-190.71C117.15,-189.18 104.64,-187.62 93.22,-186.2"/>
<polygon fill="#63b8ff" stroke="#63b8ff" points="129.37,-194.23 139.73,-191.99 130.24,-187.28 129.37,-194.23"/>
</a>
</g>
</g>
<!-- Node8&#45;&gt;Node4 -->
<g id="edge9_Node000008_Node000004" class="edge">
<title>Node8&#45;&gt;Node4</title>
<g id="a_edge9_Node000008_Node000004"><a xlink:title=" ">
<path fill="none" stroke="#63b8ff" d="M298.55,-199.5C286.18,-199.5 273.76,-199.5 262.13,-199.5"/>
<polygon fill="#63b8ff" stroke="#63b8ff" points="298.91,-203 308.91,-199.5 298.91,-196 298.91,-203"/>
</a>
</g>
</g>
<!-- Node9&#45;&gt;Node6 -->
<g id="edge11_Node000009_Node000006" class="edge">
<title>Node9&#45;&gt;Node6</title>
<g id="a_edge11_Node000009_Node000006"><a xlink:title=" ">
<path fill="none" stroke="#63b8ff" d="M328.43,-91.72C310.72,-93.51 291.27,-95.48 273.04,-97.32"/>
<polygon fill="#63b8ff" stroke="#63b8ff" points="329.03,-95.18 338.63,-90.69 328.33,-88.22 329.03,-95.18"/>
</a>
</g>
</g>
<!-- Node9&#45;&gt;Node7 -->
<g id="edge12_Node000009_Node000007" class="edge">
<title>Node9&#45;&gt;Node7</title>
<g id="a_edge12_Node000009_Node000007"><a xlink:title=" ">
<path fill="none" stroke="#63b8ff" d="M328.53,-76.35C308.18,-73.31 285.51,-69.94 265.04,-66.89"/>
<polygon fill="#63b8ff" stroke="#63b8ff" points="328.22,-79.84 338.63,-77.85 329.25,-72.91 328.22,-79.84"/>
</a>
</g>
</g>
<!-- Node11 -->
<g id="Node000011" class="node">
<title>Node11</title>
<g id="a_Node000011"><a xlink:href="../../df/de3/mprand_8c.html#a5718b66c118f722bec59701532729b4b" target="_top" xlink:title=" ">
<polygon fill="white" stroke="#666666" points="265.5,-19 136.5,-19 136.5,0 265.5,0 265.5,-19"/>
<text text-anchor="middle" x="201" y="-7" font-family="Helvetica,sans-Serif" font-size="10.00">lmmp_strong_random_</text>
</a>
</g>
</g>
<!-- Node10&#45;&gt;Node11 -->
<g id="edge14_Node000010_Node000011" class="edge">
<title>Node10&#45;&gt;Node11</title>
<g id="a_edge14_Node000010_Node000011"><a xlink:title=" ">
<path fill="none" stroke="#63b8ff" d="M325.64,-9.5C306.27,-9.5 285.03,-9.5 265.7,-9.5"/>
<polygon fill="#63b8ff" stroke="#63b8ff" points="325.87,-13 335.87,-9.5 325.87,-6 325.87,-13"/>
</a>
</g>
</g>
</g>
</svg>
