<?xml version="1.0" encoding="UTF-8" standalone="no"?>
<!DOCTYPE svg PUBLIC "-//W3C//DTD SVG 1.1//EN"
 "http://www.w3.org/Graphics/SVG/1.1/DTD/svg11.dtd">
<!-- Generated by graphviz version 2.43.0 (0)
 -->
<!-- Title: lamina::Polynomial&lt; CoeffType &gt; Pages: 1 -->
<svg width="323pt" height="1038pt"
 viewBox="0.00 0.00 322.50 1038.00" xmlns="http://www.w3.org/2000/svg" xmlns:xlink="http://www.w3.org/1999/xlink">
<g id="graph0" class="graph" transform="scale(1 1) rotate(0) translate(4 1034)">
<title>lamina::Polynomial&lt; CoeffType &gt;</title>
<!-- Node1 -->
<g id="Node000001" class="node">
<title>Node1</title>
<g id="a_Node000001"><a xlink:title="一元多项式模板类">
<polygon fill="#999999" stroke="transparent" points="266,-731 91,-731 91,0 266,0 266,-731"/>
<text text-anchor="start" x="131.5" y="-718.5" font-family="Helvetica,sans-Serif" font-size="10.00">lamina::Polynomial</text>
<text text-anchor="start" x="143.5" y="-707.5" font-family="Helvetica,sans-Serif" font-size="10.00">&lt; CoeffType &gt;</text>
<text text-anchor="start" x="177" y="-692.5" font-family="Helvetica,sans-Serif" font-size="10.00"> </text>
<text text-anchor="start" x="95.5" y="-677.5" font-family="Helvetica,sans-Serif" font-size="10.00">+</text>
<text text-anchor="start" x="108.5" y="-677.5" font-family="Helvetica,sans-Serif" font-size="10.00">Polynomial(const CoeffType</text>
<text text-anchor="start" x="108.5" y="-666.5" font-family="Helvetica,sans-Serif" font-size="10.00"> &amp;c, const std::string &amp;var=&quot;x&quot;)</text>
<text text-anchor="start" x="95.5" y="-651.5" font-family="Helvetica,sans-Serif" font-size="10.00">+</text>
<text text-anchor="start" x="108.5" y="-651.5" font-family="Helvetica,sans-Serif" font-size="10.00">Polynomial(const std</text>
<text text-anchor="start" x="108.5" y="-640.5" font-family="Helvetica,sans-Serif" font-size="10.00">::string &amp;var=&quot;x&quot;)</text>
<text text-anchor="start" x="95.5" y="-625.5" font-family="Helvetica,sans-Serif" font-size="10.00">+</text>
<text text-anchor="start" x="108.5" y="-625.5" font-family="Helvetica,sans-Serif" font-size="10.00">Polynomial(const std</text>
<text text-anchor="start" x="108.5" y="-614.5" font-family="Helvetica,sans-Serif" font-size="10.00">::vector&lt; CoeffType &gt;</text>
<text text-anchor="start" x="108.5" y="-603.5" font-family="Helvetica,sans-Serif" font-size="10.00"> &amp;c, const std::string</text>
<text text-anchor="start" x="108.5" y="-592.5" font-family="Helvetica,sans-Serif" font-size="10.00"> &amp;var=&quot;x&quot;)</text>
<text text-anchor="start" x="95.5" y="-577.5" font-family="Helvetica,sans-Serif" font-size="10.00">+</text>
<text text-anchor="start" x="108.5" y="-577.5" font-family="Helvetica,sans-Serif" font-size="10.00">CoeffType content()</text>
<text text-anchor="start" x="108.5" y="-566.5" font-family="Helvetica,sans-Serif" font-size="10.00"> const</text>
<text text-anchor="start" x="95.5" y="-551.5" font-family="Helvetica,sans-Serif" font-size="10.00">+</text>
<text text-anchor="start" x="108.5" y="-551.5" font-family="Helvetica,sans-Serif" font-size="10.00">int degree() const</text>
<text text-anchor="start" x="95.5" y="-536.5" font-family="Helvetica,sans-Serif" font-size="10.00">+</text>
<text text-anchor="start" x="108.5" y="-536.5" font-family="Helvetica,sans-Serif" font-size="10.00">Polynomial differentiate</text>
<text text-anchor="start" x="108.5" y="-525.5" font-family="Helvetica,sans-Serif" font-size="10.00">() const</text>
<text text-anchor="start" x="95.5" y="-510.5" font-family="Helvetica,sans-Serif" font-size="10.00">+</text>
<text text-anchor="start" x="108.5" y="-510.5" font-family="Helvetica,sans-Serif" font-size="10.00">std::pair&lt; Polynomial,</text>
<text text-anchor="start" x="108.5" y="-499.5" font-family="Helvetica,sans-Serif" font-size="10.00"> Polynomial &gt; div_mod</text>
<text text-anchor="start" x="108.5" y="-488.5" font-family="Helvetica,sans-Serif" font-size="10.00">(const Polynomial &amp;other)</text>
<text text-anchor="start" x="108.5" y="-477.5" font-family="Helvetica,sans-Serif" font-size="10.00"> const</text>
<text text-anchor="start" x="95.5" y="-462.5" font-family="Helvetica,sans-Serif" font-size="10.00">+</text>
<text text-anchor="start" x="108.5" y="-462.5" font-family="Helvetica,sans-Serif" font-size="10.00">CoeffType eval(const</text>
<text text-anchor="start" x="108.5" y="-451.5" font-family="Helvetica,sans-Serif" font-size="10.00"> CoeffType &amp;val) const</text>
<text text-anchor="start" x="95.5" y="-436.5" font-family="Helvetica,sans-Serif" font-size="10.00">+</text>
<text text-anchor="start" x="108.5" y="-436.5" font-family="Helvetica,sans-Serif" font-size="10.00">bool is_zero() const</text>
<text text-anchor="start" x="95.5" y="-421.5" font-family="Helvetica,sans-Serif" font-size="10.00">+</text>
<text text-anchor="start" x="108.5" y="-421.5" font-family="Helvetica,sans-Serif" font-size="10.00">CoeffType lead_coeff</text>
<text text-anchor="start" x="108.5" y="-410.5" font-family="Helvetica,sans-Serif" font-size="10.00">() const</text>
<text text-anchor="start" x="95.5" y="-395.5" font-family="Helvetica,sans-Serif" font-size="10.00">+</text>
<text text-anchor="start" x="108.5" y="-395.5" font-family="Helvetica,sans-Serif" font-size="10.00">Polynomial make_monic</text>
<text text-anchor="start" x="108.5" y="-384.5" font-family="Helvetica,sans-Serif" font-size="10.00">() const</text>
<text text-anchor="start" x="95.5" y="-369.5" font-family="Helvetica,sans-Serif" font-size="10.00">+</text>
<text text-anchor="start" x="108.5" y="-369.5" font-family="Helvetica,sans-Serif" font-size="10.00">Polynomial operator*</text>
<text text-anchor="start" x="108.5" y="-358.5" font-family="Helvetica,sans-Serif" font-size="10.00">(const Polynomial &amp;other)</text>
<text text-anchor="start" x="108.5" y="-347.5" font-family="Helvetica,sans-Serif" font-size="10.00"> const</text>
<text text-anchor="start" x="95.5" y="-332.5" font-family="Helvetica,sans-Serif" font-size="10.00">+</text>
<text text-anchor="start" x="108.5" y="-332.5" font-family="Helvetica,sans-Serif" font-size="10.00">Polynomial operator</text>
<text text-anchor="start" x="108.5" y="-321.5" font-family="Helvetica,sans-Serif" font-size="10.00">+(const Polynomial &amp;other)</text>
<text text-anchor="start" x="108.5" y="-310.5" font-family="Helvetica,sans-Serif" font-size="10.00"> const</text>
<text text-anchor="start" x="95.5" y="-295.5" font-family="Helvetica,sans-Serif" font-size="10.00">+</text>
<text text-anchor="start" x="108.5" y="-295.5" font-family="Helvetica,sans-Serif" font-size="10.00">Polynomial operator</text>
<text text-anchor="start" x="108.5" y="-284.5" font-family="Helvetica,sans-Serif" font-size="10.00">&#45;(const Polynomial &amp;other)</text>
<text text-anchor="start" x="108.5" y="-273.5" font-family="Helvetica,sans-Serif" font-size="10.00"> const</text>
<text text-anchor="start" x="95.5" y="-258.5" font-family="Helvetica,sans-Serif" font-size="10.00">+</text>
<text text-anchor="start" x="108.5" y="-258.5" font-family="Helvetica,sans-Serif" font-size="10.00">bool operator==(const</text>
<text text-anchor="start" x="108.5" y="-247.5" font-family="Helvetica,sans-Serif" font-size="10.00"> Polynomial &amp;other) const</text>
<text text-anchor="start" x="95.5" y="-232.5" font-family="Helvetica,sans-Serif" font-size="10.00">+</text>
<text text-anchor="start" x="108.5" y="-232.5" font-family="Helvetica,sans-Serif" font-size="10.00">Polynomial primitive</text>
<text text-anchor="start" x="108.5" y="-221.5" font-family="Helvetica,sans-Serif" font-size="10.00">_part() const</text>
<text text-anchor="start" x="95.5" y="-206.5" font-family="Helvetica,sans-Serif" font-size="10.00">+</text>
<text text-anchor="start" x="108.5" y="-206.5" font-family="Helvetica,sans-Serif" font-size="10.00">std::pair&lt; Polynomial,</text>
<text text-anchor="start" x="108.5" y="-195.5" font-family="Helvetica,sans-Serif" font-size="10.00"> Polynomial &gt; pseudo</text>
<text text-anchor="start" x="108.5" y="-184.5" font-family="Helvetica,sans-Serif" font-size="10.00">_div_mod(const Polynomial</text>
<text text-anchor="start" x="108.5" y="-173.5" font-family="Helvetica,sans-Serif" font-size="10.00"> &amp;other) const</text>
<text text-anchor="start" x="95.5" y="-158.5" font-family="Helvetica,sans-Serif" font-size="10.00">+</text>
<text text-anchor="start" x="108.5" y="-158.5" font-family="Helvetica,sans-Serif" font-size="10.00">Polynomial pseudo_div</text>
<text text-anchor="start" x="108.5" y="-147.5" font-family="Helvetica,sans-Serif" font-size="10.00">_mod_rem(const Polynomial</text>
<text text-anchor="start" x="108.5" y="-136.5" font-family="Helvetica,sans-Serif" font-size="10.00"> &amp;other) const</text>
<text text-anchor="start" x="95.5" y="-121.5" font-family="Helvetica,sans-Serif" font-size="10.00">+</text>
<text text-anchor="start" x="108.5" y="-121.5" font-family="Helvetica,sans-Serif" font-size="10.00">Polynomial square_free</text>
<text text-anchor="start" x="108.5" y="-110.5" font-family="Helvetica,sans-Serif" font-size="10.00">_part() const</text>
<text text-anchor="start" x="95.5" y="-95.5" font-family="Helvetica,sans-Serif" font-size="10.00">+</text>
<text text-anchor="start" x="108.5" y="-95.5" font-family="Helvetica,sans-Serif" font-size="10.00">std::string to_string</text>
<text text-anchor="start" x="108.5" y="-84.5" font-family="Helvetica,sans-Serif" font-size="10.00">() const</text>
<text text-anchor="start" x="95.5" y="-69.5" font-family="Helvetica,sans-Serif" font-size="10.00">+</text>
<text text-anchor="start" x="108.5" y="-69.5" font-family="Helvetica,sans-Serif" font-size="10.00">void trim()</text>
<text text-anchor="start" x="95.5" y="-54.5" font-family="Helvetica,sans-Serif" font-size="10.00">+</text>
<text text-anchor="start" x="108.5" y="-54.5" font-family="Helvetica,sans-Serif" font-size="10.00">static Polynomial gcd</text>
<text text-anchor="start" x="108.5" y="-43.5" font-family="Helvetica,sans-Serif" font-size="10.00">(Polynomial a, Polynomial b)</text>
<text text-anchor="start" x="95.5" y="-28.5" font-family="Helvetica,sans-Serif" font-size="10.00">+</text>
<text text-anchor="start" x="108.5" y="-28.5" font-family="Helvetica,sans-Serif" font-size="10.00">static CoeffType gcd</text>
<text text-anchor="start" x="108.5" y="-17.5" font-family="Helvetica,sans-Serif" font-size="10.00">_coeff(const CoeffType</text>
<text text-anchor="start" x="108.5" y="-6.5" font-family="Helvetica,sans-Serif" font-size="10.00"> &amp;a, const CoeffType &amp;b)</text>
<polygon fill="#666666" stroke="#666666" points="91.5,-702.5 91.5,-702.5 266.5,-702.5 266.5,-702.5 91.5,-702.5"/>
<polygon fill="#666666" stroke="#666666" points="91.5,-687.5 91.5,-687.5 266.5,-687.5 266.5,-687.5 91.5,-687.5"/>
<polygon fill="none" stroke="#666666" points="91,0 91,-731 266,-731 266,0 91,0"/>
</a>
</g>
</g>
<!-- Node2 -->
<g id="Node000002" class="node">
<title>Node2</title>
<g id="a_Node000002"><a xlink:title=" ">
<polygon fill="white" stroke="transparent" points="188,-827 55,-827 55,-778 188,-778 188,-827"/>
<text text-anchor="start" x="60.5" y="-814.5" font-family="Helvetica,sans-Serif" font-size="10.00">std::vector&lt; CoeffType &gt;</text>
<text text-anchor="start" x="120" y="-799.5" font-family="Helvetica,sans-Serif" font-size="10.00"> </text>
<text text-anchor="start" x="120" y="-784.5" font-family="Helvetica,sans-Serif" font-size="10.00"> </text>
<polygon fill="#666666" stroke="#666666" points="55.5,-809.5 55.5,-809.5 188.5,-809.5 188.5,-809.5 55.5,-809.5"/>
<polygon fill="#666666" stroke="#666666" points="55.5,-794.5 55.5,-794.5 188.5,-794.5 188.5,-794.5 55.5,-794.5"/>
<polygon fill="none" stroke="#666666" points="55,-778 55,-827 188,-827 188,-778 55,-778"/>
</a>
</g>
</g>
<!-- Node2&#45;&gt;Node1 -->
<g id="edge1_Node000001_Node000002" class="edge">
<title>Node2&#45;&gt;Node1</title>
<g id="a_edge1_Node000001_Node000002"><a xlink:title=" ">
<path fill="none" stroke="#63b8ff" d="M124.61,-777.8C125.82,-768.55 127.34,-756.9 129.11,-743.45"/>
<polygon fill="none" stroke="#63b8ff" points="129.15,-743.08 125.97,-736.61 130.71,-731.18 133.9,-737.65 129.15,-743.08"/>
</a>
</g>
<text text-anchor="middle" x="148" y="-752" font-family="Helvetica,sans-Serif" font-size="10.00" fill="grey"> +coeffs</text>
</g>
<!-- Node3 -->
<g id="Node000003" class="node">
<title>Node3</title>
<g id="a_Node000003"><a xlink:title=" ">
<polygon fill="white" stroke="transparent" points="59,-928.5 0,-928.5 0,-879.5 59,-879.5 59,-928.5"/>
<text text-anchor="start" x="5.5" y="-916" font-family="Helvetica,sans-Serif" font-size="10.00">CoeffType</text>
<text text-anchor="start" x="28" y="-901" font-family="Helvetica,sans-Serif" font-size="10.00"> </text>
<text text-anchor="start" x="28" y="-886" font-family="Helvetica,sans-Serif" font-size="10.00"> </text>
<polygon fill="#666666" stroke="#666666" points="0.5,-911 0.5,-911 59.5,-911 59.5,-911 0.5,-911"/>
<polygon fill="#666666" stroke="#666666" points="0.5,-896 0.5,-896 59.5,-896 59.5,-896 0.5,-896"/>
<polygon fill="none" stroke="#666666" points="0,-879.5 0,-928.5 59,-928.5 59,-879.5 0,-879.5"/>
</a>
</g>
</g>
<!-- Node3&#45;&gt;Node2 -->
<g id="edge2_Node000002_Node000003" class="edge">
<title>Node3&#45;&gt;Node2</title>
<g id="a_edge2_Node000002_Node000003"><a xlink:title=" ">
<path fill="none" stroke="#63b8ff" d="M38.96,-879.34C44.2,-868.13 51.49,-855.02 60.5,-845 63.73,-841.41 67.33,-837.97 71.13,-834.72"/>
<polygon fill="none" stroke="#63b8ff" points="71.43,-834.48 73.67,-827.63 80.86,-827.06 78.62,-833.91 71.43,-834.48"/>
</a>
</g>
<text text-anchor="middle" x="89.5" y="-848" font-family="Helvetica,sans-Serif" font-size="10.00" fill="grey"> +elements</text>
</g>
<!-- Node4 -->
<g id="Node000004" class="node">
<title>Node4</title>
<g id="a_Node000004"><a xlink:title=" ">
<polygon fill="white" stroke="transparent" points="168,-928.5 77,-928.5 77,-879.5 168,-879.5 168,-928.5"/>
<text text-anchor="start" x="82.5" y="-916" font-family="Helvetica,sans-Serif" font-size="10.00">std::vector&lt; T &gt;</text>
<text text-anchor="start" x="121" y="-901" font-family="Helvetica,sans-Serif" font-size="10.00"> </text>
<text text-anchor="start" x="121" y="-886" font-family="Helvetica,sans-Serif" font-size="10.00"> </text>
<polygon fill="#666666" stroke="#666666" points="77.5,-911 77.5,-911 168.5,-911 168.5,-911 77.5,-911"/>
<polygon fill="#666666" stroke="#666666" points="77.5,-896 77.5,-896 168.5,-896 168.5,-896 77.5,-896"/>
<polygon fill="none" stroke="#666666" points="77,-879.5 77,-928.5 168,-928.5 168,-879.5 77,-879.5"/>
</a>
</g>
</g>
<!-- Node4&#45;&gt;Node2 -->
<g id="edge3_Node000002_Node000004" class="edge">
<title>Node4&#45;&gt;Node2</title>
<g id="a_edge3_Node000002_Node000004"><a xlink:title=" ">
<path fill="none" stroke="orange" d="M122.16,-869.3C122.02,-855.49 121.87,-839.83 121.74,-827.26"/>
<polygon fill="orange" stroke="orange" points="118.66,-869.46 122.26,-879.42 125.66,-869.39 118.66,-869.46"/>
</a>
</g>
<text text-anchor="middle" x="159.5" y="-848" font-family="Helvetica,sans-Serif" font-size="10.00" fill="grey"> &lt; CoeffType &gt;</text>
</g>
<!-- Node5 -->
<g id="Node000005" class="node">
<title>Node5</title>
<g id="a_Node000005"><a xlink:title=" ">
<polygon fill="white" stroke="transparent" points="131,-1030 114,-1030 114,-981 131,-981 131,-1030"/>
<text text-anchor="start" x="119.5" y="-1017.5" font-family="Helvetica,sans-Serif" font-size="10.00">T</text>
<text text-anchor="start" x="121" y="-1002.5" font-family="Helvetica,sans-Serif" font-size="10.00"> </text>
<text text-anchor="start" x="121" y="-987.5" font-family="Helvetica,sans-Serif" font-size="10.00"> </text>
<polygon fill="#666666" stroke="#666666" points="114.5,-1012.5 114.5,-1012.5 131.5,-1012.5 131.5,-1012.5 114.5,-1012.5"/>
<polygon fill="#666666" stroke="#666666" points="114.5,-997.5 114.5,-997.5 131.5,-997.5 131.5,-997.5 114.5,-997.5"/>
<polygon fill="none" stroke="#666666" points="114,-981 114,-1030 131,-1030 131,-981 114,-981"/>
</a>
</g>
</g>
<!-- Node5&#45;&gt;Node4 -->
<g id="edge4_Node000004_Node000005" class="edge">
<title>Node5&#45;&gt;Node4</title>
<g id="a_edge4_Node000004_Node000005"><a xlink:title=" ">
<path fill="none" stroke="#63b8ff" d="M122.5,-980.92C122.5,-968.99 122.5,-954.25 122.5,-940.94"/>
<polygon fill="none" stroke="#63b8ff" points="122.5,-940.76 118.5,-934.76 122.5,-928.76 126.5,-934.76 122.5,-940.76"/>
</a>
</g>
<text text-anchor="middle" x="151.5" y="-955" font-family="Helvetica,sans-Serif" font-size="10.00" fill="grey"> +elements</text>
</g>
<!-- Node6 -->
<g id="Node000006" class="node">
<title>Node6</title>
<g id="a_Node000006"><a xlink:title=" ">
<polygon fill="white" stroke="transparent" points="265,-827 206,-827 206,-778 265,-778 265,-827"/>
<text text-anchor="start" x="211.5" y="-814.5" font-family="Helvetica,sans-Serif" font-size="10.00">std::string</text>
<text text-anchor="start" x="234" y="-799.5" font-family="Helvetica,sans-Serif" font-size="10.00"> </text>
<text text-anchor="start" x="234" y="-784.5" font-family="Helvetica,sans-Serif" font-size="10.00"> </text>
<polygon fill="#666666" stroke="#666666" points="206.5,-809.5 206.5,-809.5 265.5,-809.5 265.5,-809.5 206.5,-809.5"/>
<polygon fill="#666666" stroke="#666666" points="206.5,-794.5 206.5,-794.5 265.5,-794.5 265.5,-794.5 206.5,-794.5"/>
<polygon fill="none" stroke="#666666" points="206,-778 206,-827 265,-827 265,-778 206,-778"/>
</a>
</g>
</g>
<!-- Node6&#45;&gt;Node1 -->
<g id="edge5_Node000001_Node000006" class="edge">
<title>Node6&#45;&gt;Node1</title>
<g id="a_edge5_Node000001_Node000006"><a xlink:title=" ">
<path fill="none" stroke="#63b8ff" d="M232.39,-777.8C231.18,-768.55 229.66,-756.9 227.89,-743.45"/>
<polygon fill="none" stroke="#63b8ff" points="227.85,-743.08 223.1,-737.65 226.29,-731.18 231.03,-736.61 227.85,-743.08"/>
</a>
</g>
<text text-anchor="middle" x="272" y="-752" font-family="Helvetica,sans-Serif" font-size="10.00" fill="grey"> +variable_name</text>
</g>
<!-- Node7 -->
<g id="Node000007" class="node">
<title>Node7</title>
<g id="a_Node000007"><a xlink:title=" ">
<polygon fill="white" stroke="transparent" points="284.5,-934 186.5,-934 186.5,-874 284.5,-874 284.5,-934"/>
<text text-anchor="start" x="191.5" y="-922" font-family="Helvetica,sans-Serif" font-size="10.00">std::basic_string&lt;</text>
<text text-anchor="start" x="217" y="-911" font-family="Helvetica,sans-Serif" font-size="10.00"> Char &gt;</text>
<text text-anchor="start" x="233.5" y="-896" font-family="Helvetica,sans-Serif" font-size="10.00"> </text>
<text text-anchor="start" x="233.5" y="-881" font-family="Helvetica,sans-Serif" font-size="10.00"> </text>
<polygon fill="#666666" stroke="#666666" points="186.5,-906 186.5,-906 284.5,-906 284.5,-906 186.5,-906"/>
<polygon fill="#666666" stroke="#666666" points="186.5,-891 186.5,-891 284.5,-891 284.5,-891 186.5,-891"/>
<polygon fill="none" stroke="#666666" points="186.5,-874 186.5,-934 284.5,-934 284.5,-874 186.5,-874"/>
</a>
</g>
</g>
<!-- Node7&#45;&gt;Node6 -->
<g id="edge6_Node000006_Node000007" class="edge">
<title>Node7&#45;&gt;Node6</title>
<g id="a_edge6_Node000006_Node000007"><a xlink:title=" ">
<path fill="none" stroke="#63b8ff" d="M235.5,-863.8C235.5,-851.38 235.5,-838.03 235.5,-827.06"/>
<polygon fill="none" stroke="#63b8ff" points="232,-863.95 235.5,-873.95 239,-863.95 232,-863.95"/>
</a>
</g>
</g>
</g>
</svg>
