<?xml version="1.0" encoding="UTF-8" standalone="no"?>
<!DOCTYPE svg PUBLIC "-//W3C//DTD SVG 1.1//EN"
 "http://www.w3.org/Graphics/SVG/1.1/DTD/svg11.dtd">
<!-- Generated by graphviz version 2.43.0 (0)
 -->
<!-- Title: lmmp_ifft_4_ Pages: 1 -->
<svg width="339pt" height="101pt"
 viewBox="0.00 0.00 339.00 101.00" xmlns="http://www.w3.org/2000/svg" xmlns:xlink="http://www.w3.org/1999/xlink">
<g id="graph0" class="graph" transform="scale(1 1) rotate(0) translate(4 97)">
<title>lmmp_ifft_4_</title>
<!-- Node1 -->
<g id="Node000001" class="node">
<title>Node1</title>
<g id="a_Node000001"><a xlink:title=" ">
<polygon fill="#999999" stroke="#666666" points="80,-56 0,-56 0,-37 80,-37 80,-56"/>
<text text-anchor="middle" x="40" y="-44" font-family="Helvetica,sans-Serif" font-size="10.00">lmmp_ifft_4_</text>
</a>
</g>
</g>
<!-- Node1&#45;&gt;Node1 -->
<g id="edge1_Node000001_Node000001" class="edge">
<title>Node1&#45;&gt;Node1</title>
<g id="a_edge1_Node000001_Node000001"><a xlink:title=" ">
<path fill="none" stroke="#63b8ff" d="M21.5,-56.08C12.51,-64.73 18.67,-74 40,-74 53.33,-74 60.74,-70.38 62.22,-65.55"/>
<polygon fill="#63b8ff" stroke="#63b8ff" points="65.41,-64.11 58.5,-56.08 58.9,-66.67 65.41,-64.11"/>
</a>
</g>
</g>
<!-- Node2 -->
<g id="Node000002" class="node">
<title>Node2</title>
<g id="a_Node000002"><a xlink:href="../../db/dfa/mul__fft_8c.html#a36d81ef9448da2d3f7d7afdea2e76641" target="_top" xlink:title="FFT蝶形运算（Butterfly Operation） (a,b) = (a+(b&gt;&gt;w), a&#45;(b&gt;&gt;w)) mod 2^n+1 a=[coef[0],ms&#45;&gt;lenw+1],...">
<polygon fill="white" stroke="#666666" points="205,-56 116,-56 116,-37 205,-37 205,-56"/>
<text text-anchor="middle" x="160.5" y="-44" font-family="Helvetica,sans-Serif" font-size="10.00">lmmp_ifft_bfy_</text>
</a>
</g>
</g>
<!-- Node1&#45;&gt;Node2 -->
<g id="edge2_Node000001_Node000002" class="edge">
<title>Node1&#45;&gt;Node2</title>
<g id="a_edge2_Node000001_Node000002"><a xlink:title=" ">
<path fill="none" stroke="#63b8ff" d="M80.13,-46.5C88.37,-46.5 97.19,-46.5 105.86,-46.5"/>
<polygon fill="#63b8ff" stroke="#63b8ff" points="105.91,-50 115.91,-46.5 105.91,-43 105.91,-50"/>
</a>
</g>
</g>
<!-- Node3 -->
<g id="Node000003" class="node">
<title>Node3</title>
<g id="a_Node000003"><a xlink:href="../../da/dc7/add__n_8c.html#aa06f92c7f9a675b88556524c8e09ecbd" target="_top" xlink:title="带进位的n位加法 [dst,n] = [numa,n] + [numb,n] + c">
<polygon fill="white" stroke="#666666" points="331,-93 241,-93 241,-74 331,-74 331,-93"/>
<text text-anchor="middle" x="286" y="-81" font-family="Helvetica,sans-Serif" font-size="10.00">lmmp_add_nc_</text>
</a>
</g>
</g>
<!-- Node2&#45;&gt;Node3 -->
<g id="edge3_Node000002_Node000003" class="edge">
<title>Node2&#45;&gt;Node3</title>
<g id="a_edge3_Node000002_Node000003"><a xlink:title=" ">
<path fill="none" stroke="#63b8ff" d="M193.3,-56.03C208.46,-60.57 226.78,-66.06 243.05,-70.93"/>
<polygon fill="#63b8ff" stroke="#63b8ff" points="242.29,-74.36 252.87,-73.88 244.3,-67.65 242.29,-74.36"/>
</a>
</g>
</g>
<!-- Node4 -->
<g id="Node000004" class="node">
<title>Node4</title>
<g id="a_Node000004"><a xlink:href="../../de/d50/shr_8c.html#a234ed4a1e0108443f3f951979dc8d51e" target="_top" xlink:title="带进位的大数右移操作 [dst,na] = [numa,na]&gt;&gt;shr，dst的高shr位填充c的高shr位">
<polygon fill="white" stroke="#666666" points="326.5,-56 245.5,-56 245.5,-37 326.5,-37 326.5,-56"/>
<text text-anchor="middle" x="286" y="-44" font-family="Helvetica,sans-Serif" font-size="10.00">lmmp_shr_c_</text>
</a>
</g>
</g>
<!-- Node2&#45;&gt;Node4 -->
<g id="edge4_Node000002_Node000004" class="edge">
<title>Node2&#45;&gt;Node4</title>
<g id="a_edge4_Node000002_Node000004"><a xlink:title=" ">
<path fill="none" stroke="#63b8ff" d="M205.04,-46.5C214.73,-46.5 225.08,-46.5 235,-46.5"/>
<polygon fill="#63b8ff" stroke="#63b8ff" points="235.15,-50 245.15,-46.5 235.15,-43 235.15,-50"/>
</a>
</g>
</g>
<!-- Node5 -->
<g id="Node000005" class="node">
<title>Node5</title>
<g id="a_Node000005"><a xlink:href="../../d3/d44/sub__n_8c.html#af53a20c46d5cd5ee5f6a599b04aec190" target="_top" xlink:title="带借位的n位减法 [dst,n] = [numa,n] &#45; [numb,n] &#45; c">
<polygon fill="white" stroke="#666666" points="330.5,-19 241.5,-19 241.5,0 330.5,0 330.5,-19"/>
<text text-anchor="middle" x="286" y="-7" font-family="Helvetica,sans-Serif" font-size="10.00">lmmp_sub_nc_</text>
</a>
</g>
</g>
<!-- Node2&#45;&gt;Node5 -->
<g id="edge5_Node000002_Node000005" class="edge">
<title>Node2&#45;&gt;Node5</title>
<g id="a_edge5_Node000002_Node000005"><a xlink:title=" ">
<path fill="none" stroke="#63b8ff" d="M193.3,-36.97C208.46,-32.43 226.78,-26.94 243.05,-22.07"/>
<polygon fill="#63b8ff" stroke="#63b8ff" points="244.3,-25.35 252.87,-19.12 242.29,-18.64 244.3,-25.35"/>
</a>
</g>
</g>
</g>
</svg>
