<?xml version="1.0" encoding="UTF-8" standalone="no"?>
<!DOCTYPE svg PUBLIC "-//W3C//DTD SVG 1.1//EN"
 "http://www.w3.org/Graphics/SVG/1.1/DTD/svg11.dtd">
<!-- Generated by graphviz version 2.43.0 (0)
 -->
<!-- Title: lmmp_mul_mersenne_single_ Pages: 1 -->
<!--zoomable 625 -->

<svg id="main" version="1.1" xmlns="http://www.w3.org/2000/svg" xmlns:xlink="http://www.w3.org/1999/xlink" xml:space="preserve" onload="init(evt)">
<style type="text/css"><![CDATA[
.node, .edge {opacity: 0.7;}
.node.selected, .edge.selected {opacity: 1;}
.edge:hover path { stroke: red; }
.edge:hover polygon { stroke: red; fill: red; }
]]></style>

<defs>
  <circle id="rim" cx="0" cy="0" r="7"/>
  <circle id="rim2" cx="0" cy="0" r="3.5"/>
  <g id="zoomPlus">
    <use xlink:href="#rim" fill="#404040"><set attributeName="fill" to="#808080" begin="zoomplus.mouseover" end="zoomplus.mouseout"/></use>
    <path d="M-4,0h8M0,-4v8" fill="none" stroke="white" stroke-width="1.5" pointer-events="none"/>
  </g>
  <g id="zoomMin">
    <use xlink:href="#rim" fill="#404040"><set attributeName="fill" to="#808080" begin="zoomminus.mouseover" end="zoomminus.mouseout"/></use>
    <path d="M-4,0h8" fill="none" stroke="white" stroke-width="1.5" pointer-events="none"/>
  </g>
  <g id="arrowUp" transform="translate(30 24)">
    <use xlink:href="#rim"/>
    <path pointer-events="none" fill="none" stroke="white" stroke-width="1.5" d="M0,-3.0v7 M-2.5,-0.5L0,-3.0L2.5,-0.5"/>
  </g>
  <g id="arrowRight" transform="rotate(90) translate(36 -43)">
    <use xlink:href="#rim"/>
    <path pointer-events="none" fill="none" stroke="white" stroke-width="1.5" d="M0,-3.0v7 M-2.5,-0.5L0,-3.0L2.5,-0.5"/>
  </g>
  <g id="arrowDown" transform="rotate(180) translate(-30 -48)">
    <use xlink:href="#rim"/>
    <path pointer-events="none" fill="none" stroke="white" stroke-width="1.5" d="M0,-3.0v7 M-2.5,-0.5L0,-3.0L2.5,-0.5"/>
  </g>
  <g id="arrowLeft" transform="rotate(270) translate(-36 17)">
    <use xlink:href="#rim"/>
    <path pointer-events="none" fill="none" stroke="white" stroke-width="1.5" d="M0,-3.0v7 M-2.5,-0.5L0,-3.0L2.5,-0.5"/>
  </g>
  <g id="resetDef">
    <use xlink:href="#rim2" fill="#404040"><set attributeName="fill" to="#808080" begin="reset.mouseover" end="reset.mouseout"/></use>
  </g>
</defs>
<script type="application/ecmascript">
var viewWidth = 1110;
var viewHeight = 625;
var sectionId = 'dynsection-47';
</script>
<script type="application/ecmascript" xlink:href="../../svg.min.js"/>
<svg id="graph" class="graph">
<g id="viewport">
<title>lmmp_mul_mersenne_single_</title>
<!-- Node1 -->
<g id="Node000001" class="node">
<title>Node1</title>
<g id="a_Node000001"><a xlink:title=" ">
<polygon fill="#999999" stroke="#666666" points="163,-283 0,-283 0,-264 163,-264 163,-283"/>
<text text-anchor="middle" x="81.5" y="-271" font-family="Helvetica,sans-Serif" font-size="10.00">lmmp_mul_mersenne_single_</text>
</a>
</g>
</g>
<!-- Node2 -->
<g id="Node000002" class="node">
<title>Node2</title>
<g id="a_Node000002"><a xlink:href="../../d6/d39/lmmpn_8h.html#a1eb04fffd70d523647b7b4ed64a438c5" target="_top" xlink:title="大数加法静态内联函数 [dst,na]=[numa,na]+[numb,nb]">
<polygon fill="white" stroke="#666666" points="688.5,-360 614.5,-360 614.5,-341 688.5,-341 688.5,-360"/>
<text text-anchor="middle" x="651.5" y="-348" font-family="Helvetica,sans-Serif" font-size="10.00">lmmp_add_</text>
</a>
</g>
</g>
<!-- Node1&#45;&gt;Node2 -->
<g id="edge1_Node000001_Node000002" class="edge">
<title>Node1&#45;&gt;Node2</title>
<g id="a_edge1_Node000001_Node000002"><a xlink:title=" ">
<path fill="none" stroke="#63b8ff" d="M98.79,-283.08C120.72,-295.43 161.33,-316.38 199,-325.5 343.7,-360.54 521.78,-357.38 604.38,-353.39"/>
<polygon fill="#63b8ff" stroke="#63b8ff" points="604.64,-356.89 614.45,-352.88 604.28,-349.89 604.64,-356.89"/>
</a>
</g>
</g>
<!-- Node4 -->
<g id="Node000004" class="node">
<title>Node4</title>
<g id="a_Node000004"><a xlink:href="../../d6/d39/lmmpn_8h.html#a344093e8760ed368490d9a527ea2c6e9" target="_top" xlink:title="大数加单精度数静态内联函数 [dst,na]=[numa,na]+x">
<polygon fill="white" stroke="#666666" points="694,-397 609,-397 609,-378 694,-378 694,-397"/>
<text text-anchor="middle" x="651.5" y="-385" font-family="Helvetica,sans-Serif" font-size="10.00">lmmp_add_1_</text>
</a>
</g>
</g>
<!-- Node1&#45;&gt;Node4 -->
<g id="edge3_Node000001_Node000004" class="edge">
<title>Node1&#45;&gt;Node4</title>
<g id="a_edge3_Node000001_Node000004"><a xlink:title=" ">
<path fill="none" stroke="#63b8ff" d="M93.07,-283.18C112.41,-300.24 155.52,-335.28 199,-350.5 337.21,-398.87 513.2,-396.45 598.91,-391.54"/>
<polygon fill="#63b8ff" stroke="#63b8ff" points="599.14,-395.03 608.91,-390.93 598.71,-388.04 599.14,-395.03"/>
</a>
</g>
</g>
<!-- Node5 -->
<g id="Node000005" class="node">
<title>Node5</title>
<g id="a_Node000005"><a xlink:href="../../db/dfa/mul__fft_8c.html#a48408af2d6418df0a0dddb77f1a689f7" target="_top" xlink:title=" ">
<polygon fill="white" stroke="#666666" points="507,-526 441,-526 441,-507 507,-507 507,-526"/>
<text text-anchor="middle" x="474" y="-514" font-family="Helvetica,sans-Serif" font-size="10.00">lmmp_fft_</text>
</a>
</g>
</g>
<!-- Node1&#45;&gt;Node5 -->
<g id="edge4_Node000001_Node000005" class="edge">
<title>Node1&#45;&gt;Node5</title>
<g id="a_edge4_Node000001_Node000005"><a xlink:title=" ">
<path fill="none" stroke="#63b8ff" d="M86.97,-283.35C100.04,-311.03 140.95,-390.22 199,-431.5 270.65,-482.45 373.76,-503.55 430.88,-511.74"/>
<polygon fill="#63b8ff" stroke="#63b8ff" points="430.61,-515.24 440.99,-513.12 431.56,-508.3 430.61,-515.24"/>
</a>
</g>
</g>
<!-- Node12 -->
<g id="Node000012" class="node">
<title>Node12</title>
<g id="a_Node000012"><a xlink:href="../../db/dfa/mul__fft_8c.html#ab61c9a502be62250e0470f0464a544a2" target="_top" xlink:title="查找对于 m&gt;=n 的模 B^m+1 FFT运算的最优k值">
<polygon fill="white" stroke="#666666" points="526,-169 422,-169 422,-150 526,-150 526,-169"/>
<text text-anchor="middle" x="474" y="-157" font-family="Helvetica,sans-Serif" font-size="10.00">lmmp_fft_best_k_</text>
</a>
</g>
</g>
<!-- Node1&#45;&gt;Node12 -->
<g id="edge14_Node000001_Node000012" class="edge">
<title>Node1&#45;&gt;Node12</title>
<g id="a_edge14_Node000001_Node000012"><a xlink:title=" ">
<path fill="none" stroke="#63b8ff" d="M99.32,-263.82C121.5,-251.44 162.04,-230.09 199,-217.5 270.17,-193.26 355.33,-177.14 411.61,-168.18"/>
<polygon fill="#63b8ff" stroke="#63b8ff" points="412.44,-171.59 421.77,-166.59 411.35,-164.67 412.44,-171.59"/>
</a>
</g>
</g>
<!-- Node13 -->
<g id="Node000013" class="node">
<title>Node13</title>
<g id="a_Node000013"><a xlink:href="../../db/dfa/mul__fft_8c.html#ab86dddce92e755f642487e90ed84acd0" target="_top" xlink:title="[dst,lenw+1] = [(bit*)numa+bitoffset, bits]">
<polygon fill="white" stroke="#666666" points="540,-93 408,-93 408,-74 540,-74 540,-93"/>
<text text-anchor="middle" x="474" y="-81" font-family="Helvetica,sans-Serif" font-size="10.00">lmmp_fft_extract_coef_</text>
</a>
</g>
</g>
<!-- Node1&#45;&gt;Node13 -->
<g id="edge15_Node000001_Node000013" class="edge">
<title>Node1&#45;&gt;Node13</title>
<g id="a_edge15_Node000001_Node000013"><a xlink:title=" ">
<path fill="none" stroke="#63b8ff" d="M85.91,-263.78C96.88,-234.16 134.34,-144.79 199,-107.5 259.19,-72.79 339.48,-69.78 397.58,-73.65"/>
<polygon fill="#63b8ff" stroke="#63b8ff" points="397.56,-77.16 407.79,-74.42 398.08,-70.18 397.56,-77.16"/>
</a>
</g>
</g>
<!-- Node15 -->
<g id="Node000015" class="node">
<title>Node15</title>
<g id="a_Node000015"><a xlink:href="../../db/dfa/mul__fft_8c.html#a5ce52e4a7c8996c34d424460c197b393" target="_top" xlink:title="FFT内存栈的分配/释放接口">
<polygon fill="white" stroke="#666666" points="535.5,-56 412.5,-56 412.5,-37 535.5,-37 535.5,-56"/>
<text text-anchor="middle" x="474" y="-44" font-family="Helvetica,sans-Serif" font-size="10.00">lmmp_fft_memstack_</text>
</a>
</g>
</g>
<!-- Node1&#45;&gt;Node15 -->
<g id="edge17_Node000001_Node000015" class="edge">
<title>Node1&#45;&gt;Node15</title>
<g id="a_edge17_Node000001_Node000015"><a xlink:title=" ">
<path fill="none" stroke="#63b8ff" d="M84.57,-264C92.46,-230.34 124.07,-116.22 199,-68.5 262.17,-28.27 350.85,-29.1 410.03,-35.76"/>
<polygon fill="#63b8ff" stroke="#63b8ff" points="409.64,-39.24 419.99,-36.97 410.49,-32.29 409.64,-39.24"/>
</a>
</g>
</g>
<!-- Node21 -->
<g id="Node000021" class="node">
<title>Node21</title>
<g id="a_Node000021"><a xlink:href="../../db/dfa/mul__fft_8c.html#a06fb79c7196215e9f12f030d0e730906" target="_top" xlink:title="对模 2^n+1 的系数执行右移操作 右移shr位 = 左移(2n &#45; shr)位（mod 2^n+1的循环特性）">
<polygon fill="white" stroke="#666666" points="708,-170 595,-170 595,-151 708,-151 708,-170"/>
<text text-anchor="middle" x="651.5" y="-158" font-family="Helvetica,sans-Serif" font-size="10.00">lmmp_fft_shr_coef_</text>
</a>
</g>
</g>
<!-- Node1&#45;&gt;Node21 -->
<g id="edge23_Node000001_Node000021" class="edge">
<title>Node1&#45;&gt;Node21</title>
<g id="a_edge23_Node000001_Node000021"><a xlink:title=" ">
<path fill="none" stroke="#63b8ff" d="M90.7,-263.8C108.28,-243.72 151.85,-197.59 199,-175.5 344.53,-107.31 399.13,-125.08 559,-141.5 573.55,-142.99 589.19,-145.79 603.36,-148.79"/>
<polygon fill="#63b8ff" stroke="#63b8ff" points="602.86,-152.26 613.37,-150.99 604.36,-145.43 602.86,-152.26"/>
</a>
</g>
</g>
<!-- Node24 -->
<g id="Node000024" class="node">
<title>Node24</title>
<g id="a_Node000024"><a xlink:href="../../d1/d49/shl_8c.html#a6d5aca3454f13e3fcaedba3a15b03823" target="_top" xlink:title="大数左移操作 [dst,na] = [numa,na]&lt;&lt;shl，dst的低shl位填充0">
<polygon fill="white" stroke="#666666" points="985,-284 915,-284 915,-265 985,-265 985,-284"/>
<text text-anchor="middle" x="950" y="-272" font-family="Helvetica,sans-Serif" font-size="10.00">lmmp_shl_</text>
</a>
</g>
</g>
<!-- Node1&#45;&gt;Node24 -->
<g id="edge54_Node000001_Node000024" class="edge">
<title>Node1&#45;&gt;Node24</title>
<g id="a_edge54_Node000001_Node000024"><a xlink:title=" ">
<path fill="none" stroke="#63b8ff" d="M163.1,-279.86C224.88,-284.41 312.26,-290.12 389,-292.5 602.24,-299.1 656.49,-306.38 869,-287.5 880.71,-286.46 893.29,-284.71 904.94,-282.83"/>
<polygon fill="#63b8ff" stroke="#63b8ff" points="905.6,-286.27 914.88,-281.16 904.44,-279.37 905.6,-286.27"/>
</a>
</g>
</g>
<!-- Node26 -->
<g id="Node000026" class="node">
<title>Node26</title>
<g id="a_Node000026"><a xlink:href="../../db/dfa/mul__fft_8c.html#ab6e97b1ed8faf0ee601396f22ede83c7" target="_top" xlink:title=" ">
<polygon fill="white" stroke="#666666" points="508.5,-435 439.5,-435 439.5,-416 508.5,-416 508.5,-435"/>
<text text-anchor="middle" x="474" y="-423" font-family="Helvetica,sans-Serif" font-size="10.00">lmmp_ifft_</text>
</a>
</g>
</g>
<!-- Node1&#45;&gt;Node26 -->
<g id="edge28_Node000001_Node000026" class="edge">
<title>Node1&#45;&gt;Node26</title>
<g id="a_edge28_Node000001_Node000026"><a xlink:title=" ">
<path fill="none" stroke="#63b8ff" d="M87.75,-283.1C101.9,-307.89 143.53,-374.03 199,-401.5 273.32,-438.31 372.92,-436.22 429.29,-431.07"/>
<polygon fill="#63b8ff" stroke="#63b8ff" points="429.69,-434.55 439.29,-430.08 429,-427.58 429.69,-434.55"/>
</a>
</g>
</g>
<!-- Node31 -->
<g id="Node000031" class="node">
<title>Node31</title>
<g id="a_Node000031"><a xlink:href="../../db/dfa/mul__fft_8c.html#a3142a363cdd553a9a69ba6318c1b6726" target="_top" xlink:title="费马变换乘法递归函数（核心乘法逻辑）">
<polygon fill="white" stroke="#666666" points="353,-245 199,-245 199,-226 353,-226 353,-245"/>
<text text-anchor="middle" x="276" y="-233" font-family="Helvetica,sans-Serif" font-size="10.00">lmmp_mul_fermat_recurse_</text>
</a>
</g>
</g>
<!-- Node1&#45;&gt;Node31 -->
<g id="edge38_Node000001_Node000031" class="edge">
<title>Node1&#45;&gt;Node31</title>
<g id="a_edge38_Node000001_Node000031"><a xlink:title=" ">
<path fill="none" stroke="#63b8ff" d="M131.08,-263.91C157.16,-258.76 189.51,-252.38 216.92,-246.97"/>
<polygon fill="#63b8ff" stroke="#63b8ff" points="217.64,-250.39 226.77,-245.02 216.28,-243.52 217.64,-250.39"/>
</a>
</g>
</g>
<!-- Node3 -->
<g id="Node000003" class="node">
<title>Node3</title>
<g id="a_Node000003"><a xlink:href="../../da/dc7/add__n_8c.html#afa05758121cca6aa6b21256d5a959871" target="_top" xlink:title="无进位的n位加法 [dst,n] = [numa,n] + [numb,n]">
<polygon fill="white" stroke="#666666" points="849,-360 764,-360 764,-341 849,-341 849,-360"/>
<text text-anchor="middle" x="806.5" y="-348" font-family="Helvetica,sans-Serif" font-size="10.00">lmmp_add_n_</text>
</a>
</g>
</g>
<!-- Node2&#45;&gt;Node3 -->
<g id="edge2_Node000002_Node000003" class="edge">
<title>Node2&#45;&gt;Node3</title>
<g id="a_edge2_Node000002_Node000003"><a xlink:title=" ">
<path fill="none" stroke="#63b8ff" d="M688.76,-350.5C708.12,-350.5 732.3,-350.5 753.62,-350.5"/>
<polygon fill="#63b8ff" stroke="#63b8ff" points="753.82,-354 763.82,-350.5 753.82,-347 753.82,-354"/>
</a>
</g>
</g>
<!-- Node6 -->
<g id="Node000006" class="node">
<title>Node6</title>
<g id="a_Node000006"><a xlink:href="../../db/dfa/mul__fft_8c.html#aebf81a382d8bbc6a4455c2a24231cdae" target="_top" xlink:title=" ">
<polygon fill="white" stroke="#666666" points="690,-599 613,-599 613,-580 690,-580 690,-599"/>
<text text-anchor="middle" x="651.5" y="-587" font-family="Helvetica,sans-Serif" font-size="10.00">lmmp_fft_4_</text>
</a>
</g>
</g>
<!-- Node5&#45;&gt;Node6 -->
<g id="edge5_Node000005_Node000006" class="edge">
<title>Node5&#45;&gt;Node6</title>
<g id="a_edge5_Node000005_Node000006"><a xlink:title=" ">
<path fill="none" stroke="#63b8ff" d="M494.24,-526.16C517.69,-537.74 558.7,-557.35 595,-571.5 599.54,-573.27 604.33,-575.01 609.12,-576.67"/>
<polygon fill="#63b8ff" stroke="#63b8ff" points="608.28,-580.08 618.87,-579.94 610.51,-573.44 608.28,-580.08"/>
</a>
</g>
</g>
<!-- Node11 -->
<g id="Node000011" class="node">
<title>Node11</title>
<g id="a_Node000011"><a xlink:href="../../db/dfa/mul__fft_8c.html#ae87deedb27e07c640e7bc408a0c954bf" target="_top" xlink:title="FFT递归函数">
<polygon fill="white" stroke="#666666" points="693,-544 610,-544 610,-525 693,-525 693,-544"/>
<text text-anchor="middle" x="651.5" y="-532" font-family="Helvetica,sans-Serif" font-size="10.00">lmmp_fft_b1_</text>
</a>
</g>
</g>
<!-- Node5&#45;&gt;Node11 -->
<g id="edge11_Node000005_Node000011" class="edge">
<title>Node5&#45;&gt;Node11</title>
<g id="a_edge11_Node000005_Node000011"><a xlink:title=" ">
<path fill="none" stroke="#63b8ff" d="M507.19,-519.8C533.04,-522.45 569.81,-526.22 599.63,-529.28"/>
<polygon fill="#63b8ff" stroke="#63b8ff" points="599.56,-532.79 609.86,-530.33 600.27,-525.83 599.56,-532.79"/>
</a>
</g>
</g>
<!-- Node6&#45;&gt;Node6 -->
<g id="edge6_Node000006_Node000006" class="edge">
<title>Node6&#45;&gt;Node6</title>
<g id="a_edge6_Node000006_Node000006"><a xlink:title=" ">
<path fill="none" stroke="#63b8ff" d="M627.76,-599.08C616.22,-607.73 624.13,-617 651.5,-617 669.46,-617 679.04,-613.01 680.25,-607.82"/>
<polygon fill="#63b8ff" stroke="#63b8ff" points="683.25,-606.02 675.24,-599.08 677.17,-609.5 683.25,-606.02"/>
</a>
</g>
</g>
<!-- Node7 -->
<g id="Node000007" class="node">
<title>Node7</title>
<g id="a_Node000007"><a xlink:href="../../db/dfa/mul__fft_8c.html#aa7779e95f5780bfdd9a590bf3ec78d4b" target="_top" xlink:title="FFT蝶形运算（Butterfly Operation） (a,b) = (a + b, (a&#45;b) &lt;&lt; w ) mod 2^n+1 a=[coef[0],ms&#45;&gt;lenw+1],...">
<polygon fill="white" stroke="#666666" points="849.5,-544 763.5,-544 763.5,-525 849.5,-525 849.5,-544"/>
<text text-anchor="middle" x="806.5" y="-532" font-family="Helvetica,sans-Serif" font-size="10.00">lmmp_fft_bfy_</text>
</a>
</g>
</g>
<!-- Node6&#45;&gt;Node7 -->
<g id="edge7_Node000006_Node000007" class="edge">
<title>Node6&#45;&gt;Node7</title>
<g id="a_edge7_Node000006_Node000007"><a xlink:title=" ">
<path fill="none" stroke="#63b8ff" d="M682.84,-579.96C691.03,-577.3 699.88,-574.36 708,-571.5 729.28,-564.02 752.95,-555.05 771.63,-547.82"/>
<polygon fill="#63b8ff" stroke="#63b8ff" points="773.13,-550.99 781.18,-544.11 770.59,-544.47 773.13,-550.99"/>
</a>
</g>
</g>
<!-- Node8 -->
<g id="Node000008" class="node">
<title>Node8</title>
<g id="a_Node000008"><a xlink:href="../../da/dc7/add__n_8c.html#aa06f92c7f9a675b88556524c8e09ecbd" target="_top" xlink:title="带进位的n位加法 [dst,n] = [numa,n] + [numb,n] + c">
<polygon fill="white" stroke="#666666" points="995,-535 905,-535 905,-516 995,-516 995,-535"/>
<text text-anchor="middle" x="950" y="-523" font-family="Helvetica,sans-Serif" font-size="10.00">lmmp_add_nc_</text>
</a>
</g>
</g>
<!-- Node7&#45;&gt;Node8 -->
<g id="edge8_Node000007_Node000008" class="edge">
<title>Node7&#45;&gt;Node8</title>
<g id="a_edge8_Node000007_Node000008"><a xlink:title=" ">
<path fill="none" stroke="#63b8ff" d="M849.57,-531.82C863.74,-530.92 879.75,-529.9 894.72,-528.95"/>
<polygon fill="#63b8ff" stroke="#63b8ff" points="895.12,-532.43 904.88,-528.31 894.68,-525.45 895.12,-532.43"/>
</a>
</g>
</g>
<!-- Node9 -->
<g id="Node000009" class="node">
<title>Node9</title>
<g id="a_Node000009"><a xlink:href="../../d1/d49/shl_8c.html#a38dbc610a5ef592b21e4f79bbf29181d" target="_top" xlink:title="带进位的大数左移操作 [dst,na] = [numa,na]&lt;&lt;shl，dst的低shl位填充c的低shl位">
<polygon fill="white" stroke="#666666" points="990,-572 910,-572 910,-553 990,-553 990,-572"/>
<text text-anchor="middle" x="950" y="-560" font-family="Helvetica,sans-Serif" font-size="10.00">lmmp_shl_c_</text>
</a>
</g>
</g>
<!-- Node7&#45;&gt;Node9 -->
<g id="edge9_Node000007_Node000009" class="edge">
<title>Node7&#45;&gt;Node9</title>
<g id="a_edge9_Node000007_Node000009"><a xlink:title=" ">
<path fill="none" stroke="#63b8ff" d="M849.57,-542.83C865.36,-545.95 883.44,-549.53 899.81,-552.77"/>
<polygon fill="#63b8ff" stroke="#63b8ff" points="899.26,-556.23 909.75,-554.73 900.62,-549.36 899.26,-556.23"/>
</a>
</g>
</g>
<!-- Node10 -->
<g id="Node000010" class="node">
<title>Node10</title>
<g id="a_Node000010"><a xlink:href="../../d3/d44/sub__n_8c.html#af53a20c46d5cd5ee5f6a599b04aec190" target="_top" xlink:title="带借位的n位减法 [dst,n] = [numa,n] &#45; [numb,n] &#45; c">
<polygon fill="white" stroke="#666666" points="994.5,-498 905.5,-498 905.5,-479 994.5,-479 994.5,-498"/>
<text text-anchor="middle" x="950" y="-486" font-family="Helvetica,sans-Serif" font-size="10.00">lmmp_sub_nc_</text>
</a>
</g>
</g>
<!-- Node7&#45;&gt;Node10 -->
<g id="edge10_Node000007_Node000010" class="edge">
<title>Node7&#45;&gt;Node10</title>
<g id="a_edge10_Node000007_Node000010"><a xlink:title=" ">
<path fill="none" stroke="#63b8ff" d="M836.82,-524.97C858.07,-518.06 887.02,-508.65 910.18,-501.12"/>
<polygon fill="#63b8ff" stroke="#63b8ff" points="911.29,-504.44 919.72,-498.02 909.13,-497.78 911.29,-504.44"/>
</a>
</g>
</g>
<!-- Node11&#45;&gt;Node7 -->
<g id="edge13_Node000011_Node000007" class="edge">
<title>Node11&#45;&gt;Node7</title>
<g id="a_edge13_Node000011_Node000007"><a xlink:title=" ">
<path fill="none" stroke="#63b8ff" d="M693.1,-534.5C711.57,-534.5 733.65,-534.5 753.33,-534.5"/>
<polygon fill="#63b8ff" stroke="#63b8ff" points="753.37,-538 763.37,-534.5 753.37,-531 753.37,-538"/>
</a>
</g>
</g>
<!-- Node11&#45;&gt;Node11 -->
<g id="edge12_Node000011_Node000011" class="edge">
<title>Node11&#45;&gt;Node11</title>
<g id="a_edge12_Node000011_Node000011"><a xlink:title=" ">
<path fill="none" stroke="#63b8ff" d="M627.76,-544.08C616.22,-552.73 624.13,-562 651.5,-562 669.46,-562 679.04,-558.01 680.25,-552.82"/>
<polygon fill="#63b8ff" stroke="#63b8ff" points="683.25,-551.02 675.24,-544.08 677.17,-554.5 683.25,-551.02"/>
</a>
</g>
</g>
<!-- Node14 -->
<g id="Node000014" class="node">
<title>Node14</title>
<g id="a_Node000014"><a xlink:href="../../de/d50/shr_8c.html#a5a6e9b6e715cedac419406deab5b44bb" target="_top" xlink:title="大数右移操作 [dst,na] = [numa,na]&gt;&gt;shr，dst的高shr位填充0">
<polygon fill="white" stroke="#666666" points="687,-93 616,-93 616,-74 687,-74 687,-93"/>
<text text-anchor="middle" x="651.5" y="-81" font-family="Helvetica,sans-Serif" font-size="10.00">lmmp_shr_</text>
</a>
</g>
</g>
<!-- Node13&#45;&gt;Node14 -->
<g id="edge16_Node000013_Node000014" class="edge">
<title>Node13&#45;&gt;Node14</title>
<g id="a_edge16_Node000013_Node000014"><a xlink:title=" ">
<path fill="none" stroke="#63b8ff" d="M540.35,-83.5C561.99,-83.5 585.59,-83.5 605.36,-83.5"/>
<polygon fill="#63b8ff" stroke="#63b8ff" points="605.62,-87 615.62,-83.5 605.62,-80 605.62,-87"/>
</a>
</g>
</g>
<!-- Node16 -->
<g id="Node000016" class="node">
<title>Node16</title>
<g id="a_Node000016"><a xlink:href="../../df/dd5/memory_8c.html#a70ee66fd54cf1444186464c5dc05caf3" target="_top" xlink:title="内存分配函数（调用lmmp_heap_alloc_fn）">
<polygon fill="white" stroke="#666666" points="688.5,-56 614.5,-56 614.5,-37 688.5,-37 688.5,-56"/>
<text text-anchor="middle" x="651.5" y="-44" font-family="Helvetica,sans-Serif" font-size="10.00">lmmp_alloc</text>
</a>
</g>
</g>
<!-- Node15&#45;&gt;Node16 -->
<g id="edge18_Node000015_Node000016" class="edge">
<title>Node15&#45;&gt;Node16</title>
<g id="a_edge18_Node000015_Node000016"><a xlink:title=" ">
<path fill="none" stroke="#63b8ff" d="M535.89,-46.5C558.25,-46.5 583.18,-46.5 604.07,-46.5"/>
<polygon fill="#63b8ff" stroke="#63b8ff" points="604.28,-50 614.28,-46.5 604.28,-43 604.28,-50"/>
</a>
</g>
</g>
<!-- Node20 -->
<g id="Node000020" class="node">
<title>Node20</title>
<g id="a_Node000020"><a xlink:href="../../df/dd5/memory_8c.html#a9addf0b27643f70bce967ca4ef842ae9" target="_top" xlink:title="内存释放函数（调用lmmp_heap_free_fn）">
<polygon fill="white" stroke="#666666" points="686.5,-19 616.5,-19 616.5,0 686.5,0 686.5,-19"/>
<text text-anchor="middle" x="651.5" y="-7" font-family="Helvetica,sans-Serif" font-size="10.00">lmmp_free</text>
</a>
</g>
</g>
<!-- Node15&#45;&gt;Node20 -->
<g id="edge22_Node000015_Node000020" class="edge">
<title>Node15&#45;&gt;Node20</title>
<g id="a_edge22_Node000015_Node000020"><a xlink:title=" ">
<path fill="none" stroke="#63b8ff" d="M520.2,-36.97C546.65,-31.4 579.9,-24.38 606.2,-18.84"/>
<polygon fill="#63b8ff" stroke="#63b8ff" points="607.2,-22.21 616.27,-16.72 605.76,-15.36 607.2,-22.21"/>
</a>
</g>
</g>
<!-- Node17 -->
<g id="Node000017" class="node">
<title>Node17</title>
<g id="a_Node000017"><a xlink:href="../../df/dd5/memory_8c.html#af02754e1eb2ea2812eb3a7b35f05e640" target="_top" xlink:title=" ">
<polygon fill="white" stroke="#666666" points="869,-56 744,-56 744,-37 869,-37 869,-56"/>
<text text-anchor="middle" x="806.5" y="-44" font-family="Helvetica,sans-Serif" font-size="10.00">lmmp_chech_memory</text>
</a>
</g>
</g>
<!-- Node16&#45;&gt;Node17 -->
<g id="edge19_Node000016_Node000017" class="edge">
<title>Node16&#45;&gt;Node17</title>
<g id="a_edge19_Node000016_Node000017"><a xlink:title=" ">
<path fill="none" stroke="#63b8ff" d="M688.76,-46.5C702.24,-46.5 718.06,-46.5 733.62,-46.5"/>
<polygon fill="#63b8ff" stroke="#63b8ff" points="733.78,-50 743.78,-46.5 733.78,-43 733.78,-50"/>
</a>
</g>
</g>
<!-- Node18 -->
<g id="Node000018" class="node">
<title>Node18</title>
<g id="a_Node000018"><a xlink:href="../../da/d52/abort_8c.html#a8967c29c5f5ea6c7ce14e2baac50b72f" target="_top" xlink:title="LAMMP 全局退出函数，内部错误或断言失败时调用，若设置了全局退出函数，则会调用该函数，否则会调用默认的退出函数。">
<polygon fill="white" stroke="#666666" points="988,-56 912,-56 912,-37 988,-37 988,-56"/>
<text text-anchor="middle" x="950" y="-44" font-family="Helvetica,sans-Serif" font-size="10.00">lmmp_abort</text>
</a>
</g>
</g>
<!-- Node17&#45;&gt;Node18 -->
<g id="edge20_Node000017_Node000018" class="edge">
<title>Node17&#45;&gt;Node18</title>
<g id="a_edge20_Node000017_Node000018"><a xlink:title=" ">
<path fill="none" stroke="#63b8ff" d="M869.15,-46.5C880.1,-46.5 891.34,-46.5 901.81,-46.5"/>
<polygon fill="#63b8ff" stroke="#63b8ff" points="901.98,-50 911.98,-46.5 901.98,-43 901.98,-50"/>
</a>
</g>
</g>
<!-- Node19 -->
<g id="Node000019" class="node">
<title>Node19</title>
<g id="a_Node000019"><a xlink:href="../../da/d52/abort_8c.html#a11701246f0be69a35468c33d1a136abc" target="_top" xlink:title=" ">
<polygon fill="white" stroke="#666666" points="1102,-56 1031,-56 1031,-37 1102,-37 1102,-56"/>
<text text-anchor="middle" x="1066.5" y="-44" font-family="Helvetica,sans-Serif" font-size="10.00">type_to_str</text>
</a>
</g>
</g>
<!-- Node18&#45;&gt;Node19 -->
<g id="edge21_Node000018_Node000019" class="edge">
<title>Node18&#45;&gt;Node19</title>
<g id="a_edge21_Node000018_Node000019"><a xlink:title=" ">
<path fill="none" stroke="#63b8ff" d="M988.17,-46.5C998.57,-46.5 1009.97,-46.5 1020.75,-46.5"/>
<polygon fill="#63b8ff" stroke="#63b8ff" points="1020.84,-50 1030.84,-46.5 1020.84,-43 1020.84,-50"/>
</a>
</g>
</g>
<!-- Node22 -->
<g id="Node000022" class="node">
<title>Node22</title>
<g id="a_Node000022"><a xlink:href="../../db/dfa/mul__fft_8c.html#a6157b12f018658620a268327ec505083" target="_top" xlink:title="对模 2^n+1 的系数执行左移操作">
<polygon fill="white" stroke="#666666" points="862.5,-170 750.5,-170 750.5,-151 862.5,-151 862.5,-170"/>
<text text-anchor="middle" x="806.5" y="-158" font-family="Helvetica,sans-Serif" font-size="10.00">lmmp_fft_shl_coef_</text>
</a>
</g>
</g>
<!-- Node21&#45;&gt;Node22 -->
<g id="edge24_Node000021_Node000022" class="edge">
<title>Node21&#45;&gt;Node22</title>
<g id="a_edge24_Node000021_Node000022"><a xlink:title=" ">
<path fill="none" stroke="#63b8ff" d="M708.17,-160.5C718.59,-160.5 729.58,-160.5 740.26,-160.5"/>
<polygon fill="#63b8ff" stroke="#63b8ff" points="740.38,-164 750.38,-160.5 740.38,-157 740.38,-164"/>
</a>
</g>
</g>
<!-- Node23 -->
<g id="Node000023" class="node">
<title>Node23</title>
<g id="a_Node000023"><a xlink:href="../../d6/d39/lmmpn_8h.html#adfce4345fbfcf25e2861add91f6d2c53" target="_top" xlink:title="大数按位取反操作 [dst,na] = ~[numa,na] (对每个limb执行按位非操作)">
<polygon fill="white" stroke="#666666" points="985.5,-189 914.5,-189 914.5,-170 985.5,-170 985.5,-189"/>
<text text-anchor="middle" x="950" y="-177" font-family="Helvetica,sans-Serif" font-size="10.00">lmmp_not_</text>
</a>
</g>
</g>
<!-- Node22&#45;&gt;Node23 -->
<g id="edge25_Node000022_Node000023" class="edge">
<title>Node22&#45;&gt;Node23</title>
<g id="a_edge25_Node000022_Node000023"><a xlink:title=" ">
<path fill="none" stroke="#63b8ff" d="M862.61,-167.9C876.33,-169.74 890.87,-171.69 904.03,-173.46"/>
<polygon fill="#63b8ff" stroke="#63b8ff" points="903.87,-176.97 914.25,-174.83 904.8,-170.03 903.87,-176.97"/>
</a>
</g>
</g>
<!-- Node22&#45;&gt;Node24 -->
<g id="edge26_Node000022_Node000024" class="edge">
<title>Node22&#45;&gt;Node24</title>
<g id="a_edge26_Node000022_Node000024"><a xlink:title=" ">
<path fill="none" stroke="#63b8ff" d="M824.52,-170.12C837.19,-177.56 854.71,-188.43 869,-199.5 892.32,-217.57 916.73,-241.25 932.36,-257.12"/>
<polygon fill="#63b8ff" stroke="#63b8ff" points="930.19,-259.92 939.68,-264.64 935.21,-255.04 930.19,-259.92"/>
</a>
</g>
</g>
<!-- Node25 -->
<g id="Node000025" class="node">
<title>Node25</title>
<g id="a_Node000025"><a xlink:href="../../d6/d39/lmmpn_8h.html#a039adbf1c47f184d7fedb63b094d279c" target="_top" xlink:title="左移后按位取反操作 [dst,na] = ~([numa,na] &lt;&lt; shl)，dst的低shl位填充1">
<polygon fill="white" stroke="#666666" points="993,-152 907,-152 907,-133 993,-133 993,-152"/>
<text text-anchor="middle" x="950" y="-140" font-family="Helvetica,sans-Serif" font-size="10.00">lmmp_shlnot_</text>
</a>
</g>
</g>
<!-- Node22&#45;&gt;Node25 -->
<g id="edge27_Node000022_Node000025" class="edge">
<title>Node22&#45;&gt;Node25</title>
<g id="a_edge27_Node000022_Node000025"><a xlink:title=" ">
<path fill="none" stroke="#63b8ff" d="M862.61,-153.49C873.9,-152.05 885.75,-150.55 896.93,-149.12"/>
<polygon fill="#63b8ff" stroke="#63b8ff" points="897.49,-152.58 906.97,-147.85 896.61,-145.64 897.49,-152.58"/>
</a>
</g>
</g>
<!-- Node27 -->
<g id="Node000027" class="node">
<title>Node27</title>
<g id="a_Node000027"><a xlink:href="../../db/dfa/mul__fft_8c.html#aa2ffc110bd3efbe452be4fbae82e5f26" target="_top" xlink:title=" ">
<polygon fill="white" stroke="#666666" points="691.5,-434 611.5,-434 611.5,-415 691.5,-415 691.5,-434"/>
<text text-anchor="middle" x="651.5" y="-422" font-family="Helvetica,sans-Serif" font-size="10.00">lmmp_ifft_4_</text>
</a>
</g>
</g>
<!-- Node26&#45;&gt;Node27 -->
<g id="edge29_Node000026_Node000027" class="edge">
<title>Node26&#45;&gt;Node27</title>
<g id="a_edge29_Node000026_Node000027"><a xlink:title=" ">
<path fill="none" stroke="#63b8ff" d="M508.84,-425.31C535.03,-425.16 571.69,-424.95 601.16,-424.78"/>
<polygon fill="#63b8ff" stroke="#63b8ff" points="601.27,-428.28 611.25,-424.72 601.23,-421.28 601.27,-428.28"/>
</a>
</g>
</g>
<!-- Node30 -->
<g id="Node000030" class="node">
<title>Node30</title>
<g id="a_Node000030"><a xlink:href="../../db/dfa/mul__fft_8c.html#a82bdabf7a8985648e73ed992959403a9" target="_top" xlink:title=" ">
<polygon fill="white" stroke="#666666" points="694.5,-489 608.5,-489 608.5,-470 694.5,-470 694.5,-489"/>
<text text-anchor="middle" x="651.5" y="-477" font-family="Helvetica,sans-Serif" font-size="10.00">lmmp_ifft_b1_</text>
</a>
</g>
</g>
<!-- Node26&#45;&gt;Node30 -->
<g id="edge35_Node000026_Node000030" class="edge">
<title>Node26&#45;&gt;Node30</title>
<g id="a_edge35_Node000026_Node000030"><a xlink:title=" ">
<path fill="none" stroke="#63b8ff" d="M505.97,-435.03C534.83,-443.91 578.05,-457.21 609.7,-466.95"/>
<polygon fill="#63b8ff" stroke="#63b8ff" points="608.96,-470.38 619.54,-469.97 611.01,-463.69 608.96,-470.38"/>
</a>
</g>
</g>
<!-- Node27&#45;&gt;Node27 -->
<g id="edge30_Node000027_Node000027" class="edge">
<title>Node27&#45;&gt;Node27</title>
<g id="a_edge30_Node000027_Node000027"><a xlink:title=" ">
<path fill="none" stroke="#63b8ff" d="M627.76,-434.08C616.22,-442.73 624.13,-452 651.5,-452 669.46,-452 679.04,-448.01 680.25,-442.82"/>
<polygon fill="#63b8ff" stroke="#63b8ff" points="683.25,-441.02 675.24,-434.08 677.17,-444.5 683.25,-441.02"/>
</a>
</g>
</g>
<!-- Node28 -->
<g id="Node000028" class="node">
<title>Node28</title>
<g id="a_Node000028"><a xlink:href="../../db/dfa/mul__fft_8c.html#a36d81ef9448da2d3f7d7afdea2e76641" target="_top" xlink:title="FFT蝶形运算（Butterfly Operation） (a,b) = (a+(b&gt;&gt;w), a&#45;(b&gt;&gt;w)) mod 2^n+1 a=[coef[0],ms&#45;&gt;lenw+1],...">
<polygon fill="white" stroke="#666666" points="851,-489 762,-489 762,-470 851,-470 851,-489"/>
<text text-anchor="middle" x="806.5" y="-477" font-family="Helvetica,sans-Serif" font-size="10.00">lmmp_ifft_bfy_</text>
</a>
</g>
</g>
<!-- Node27&#45;&gt;Node28 -->
<g id="edge31_Node000027_Node000028" class="edge">
<title>Node27&#45;&gt;Node28</title>
<g id="a_edge31_Node000027_Node000028"><a xlink:title=" ">
<path fill="none" stroke="#63b8ff" d="M679.15,-434.08C704.08,-443.04 741.53,-456.51 769.19,-466.45"/>
<polygon fill="#63b8ff" stroke="#63b8ff" points="768.3,-469.85 778.9,-469.94 770.67,-463.26 768.3,-469.85"/>
</a>
</g>
</g>
<!-- Node28&#45;&gt;Node8 -->
<g id="edge32_Node000028_Node000008" class="edge">
<title>Node28&#45;&gt;Node8</title>
<g id="a_edge32_Node000028_Node000008"><a xlink:title=" ">
<path fill="none" stroke="#63b8ff" d="M836.82,-489.03C858.07,-495.94 887.02,-505.35 910.18,-512.88"/>
<polygon fill="#63b8ff" stroke="#63b8ff" points="909.13,-516.22 919.72,-515.98 911.29,-509.56 909.13,-516.22"/>
</a>
</g>
</g>
<!-- Node28&#45;&gt;Node10 -->
<g id="edge34_Node000028_Node000010" class="edge">
<title>Node28&#45;&gt;Node10</title>
<g id="a_edge34_Node000028_Node000010"><a xlink:title=" ">
<path fill="none" stroke="#63b8ff" d="M851.11,-482.27C864.96,-483.15 880.45,-484.14 894.95,-485.06"/>
<polygon fill="#63b8ff" stroke="#63b8ff" points="895.09,-488.58 905.29,-485.72 895.53,-481.59 895.09,-488.58"/>
</a>
</g>
</g>
<!-- Node29 -->
<g id="Node000029" class="node">
<title>Node29</title>
<g id="a_Node000029"><a xlink:href="../../de/d50/shr_8c.html#a234ed4a1e0108443f3f951979dc8d51e" target="_top" xlink:title="带进位的大数右移操作 [dst,na] = [numa,na]&gt;&gt;shr，dst的高shr位填充c的高shr位">
<polygon fill="white" stroke="#666666" points="990.5,-461 909.5,-461 909.5,-442 990.5,-442 990.5,-461"/>
<text text-anchor="middle" x="950" y="-449" font-family="Helvetica,sans-Serif" font-size="10.00">lmmp_shr_c_</text>
</a>
</g>
</g>
<!-- Node28&#45;&gt;Node29 -->
<g id="edge33_Node000028_Node000029" class="edge">
<title>Node28&#45;&gt;Node29</title>
<g id="a_edge33_Node000028_Node000029"><a xlink:title=" ">
<path fill="none" stroke="#63b8ff" d="M851.11,-470.87C866.3,-467.87 883.45,-464.47 899.11,-461.37"/>
<polygon fill="#63b8ff" stroke="#63b8ff" points="900.02,-464.76 909.15,-459.39 898.66,-457.89 900.02,-464.76"/>
</a>
</g>
</g>
<!-- Node30&#45;&gt;Node28 -->
<g id="edge37_Node000030_Node000028" class="edge">
<title>Node30&#45;&gt;Node28</title>
<g id="a_edge37_Node000030_Node000028"><a xlink:title=" ">
<path fill="none" stroke="#63b8ff" d="M694.71,-479.5C712.33,-479.5 733,-479.5 751.68,-479.5"/>
<polygon fill="#63b8ff" stroke="#63b8ff" points="751.83,-483 761.83,-479.5 751.83,-476 751.83,-483"/>
</a>
</g>
</g>
<!-- Node30&#45;&gt;Node30 -->
<g id="edge36_Node000030_Node000030" class="edge">
<title>Node30&#45;&gt;Node30</title>
<g id="a_edge36_Node000030_Node000030"><a xlink:title=" ">
<path fill="none" stroke="#63b8ff" d="M627.76,-489.08C616.22,-497.73 624.13,-507 651.5,-507 669.46,-507 679.04,-503.01 680.25,-497.82"/>
<polygon fill="#63b8ff" stroke="#63b8ff" points="683.25,-496.02 675.24,-489.08 677.17,-499.5 683.25,-496.02"/>
</a>
</g>
</g>
<!-- Node31&#45;&gt;Node5 -->
<g id="edge39_Node000031_Node000005" class="edge">
<title>Node31&#45;&gt;Node5</title>
<g id="a_edge39_Node000031_Node000005"><a xlink:title=" ">
<path fill="none" stroke="#63b8ff" d="M280.77,-245.42C293.01,-276.86 334.07,-376.16 389,-444.5 406.89,-466.76 432.33,-487.45 450.52,-500.88"/>
<polygon fill="#63b8ff" stroke="#63b8ff" points="448.65,-503.85 458.8,-506.87 452.75,-498.17 448.65,-503.85"/>
</a>
</g>
</g>
<!-- Node31&#45;&gt;Node12 -->
<g id="edge40_Node000031_Node000012" class="edge">
<title>Node31&#45;&gt;Node12</title>
<g id="a_edge40_Node000031_Node000012"><a xlink:title=" ">
<path fill="none" stroke="#63b8ff" d="M295.25,-225.95C317.11,-214.76 355.05,-196.14 389,-183.5 400.55,-179.2 413.23,-175.21 425.16,-171.77"/>
<polygon fill="#63b8ff" stroke="#63b8ff" points="426.28,-175.09 434.96,-169.01 424.39,-168.35 426.28,-175.09"/>
</a>
</g>
</g>
<!-- Node31&#45;&gt;Node13 -->
<g id="edge41_Node000031_Node000013" class="edge">
<title>Node31&#45;&gt;Node13</title>
<g id="a_edge41_Node000031_Node000013"><a xlink:title=" ">
<path fill="none" stroke="#63b8ff" d="M287.85,-225.81C307.53,-208.36 350.64,-170.74 389,-141.5 408.86,-126.36 432.31,-110.32 449.37,-98.95"/>
<polygon fill="#63b8ff" stroke="#63b8ff" points="451.73,-101.59 458.14,-93.15 447.87,-95.75 451.73,-101.59"/>
</a>
</g>
</g>
<!-- Node31&#45;&gt;Node15 -->
<g id="edge42_Node000031_Node000015" class="edge">
<title>Node31&#45;&gt;Node15</title>
<g id="a_edge42_Node000031_Node000015"><a xlink:title=" ">
<path fill="none" stroke="#63b8ff" d="M280.29,-225.85C290.86,-196.39 326.95,-107.04 389,-64.5 393.27,-61.57 397.93,-59.1 402.8,-57.03"/>
<polygon fill="#63b8ff" stroke="#63b8ff" points="404.18,-60.25 412.35,-53.51 401.76,-53.68 404.18,-60.25"/>
</a>
</g>
</g>
<!-- Node31&#45;&gt;Node22 -->
<g id="edge43_Node000031_Node000022" class="edge">
<title>Node31&#45;&gt;Node22</title>
<g id="a_edge43_Node000031_Node000022"><a xlink:title=" ">
<path fill="none" stroke="#63b8ff" d="M328.01,-225.98C406.47,-211.22 548.84,-183.95 559,-178.5 578.94,-167.8 574.09,-151.16 595,-142.5 641.4,-123.28 657.99,-137.92 708,-142.5 722.76,-143.85 738.63,-146.33 753.18,-149.03"/>
<polygon fill="#63b8ff" stroke="#63b8ff" points="752.54,-152.47 763.02,-150.92 753.86,-145.59 752.54,-152.47"/>
</a>
</g>
</g>
<!-- Node31&#45;&gt;Node26 -->
<g id="edge44_Node000031_Node000026" class="edge">
<title>Node31&#45;&gt;Node26</title>
<g id="a_edge44_Node000031_Node000026"><a xlink:title=" ">
<path fill="none" stroke="#63b8ff" d="M286.99,-245.18C318.44,-275.67 415.68,-369.93 455.61,-408.64"/>
<polygon fill="#63b8ff" stroke="#63b8ff" points="453.18,-411.16 462.8,-415.61 458.05,-406.13 453.18,-411.16"/>
</a>
</g>
</g>
<!-- Node31&#45;&gt;Node31 -->
<g id="edge52_Node000031_Node000031" class="edge">
<title>Node31&#45;&gt;Node31</title>
<g id="a_edge52_Node000031_Node000031"><a xlink:title=" ">
<path fill="none" stroke="#63b8ff" d="M246.1,-245.08C231.55,-253.73 241.52,-263 276,-263 299.71,-263 311.82,-258.62 312.36,-253.07"/>
<polygon fill="#63b8ff" stroke="#63b8ff" points="314.91,-250.66 305.9,-245.08 309.46,-255.06 314.91,-250.66"/>
</a>
</g>
</g>
<!-- Node32 -->
<g id="Node000032" class="node">
<title>Node32</title>
<g id="a_Node000032"><a xlink:href="../../db/dfa/mul__fft_8c.html#a784cb29d6f67382fb1100584e5db6698" target="_top" xlink:title="费马变换 模 B^n+1 乘法的结果合并">
<polygon fill="white" stroke="#666666" points="559,-283 389,-283 389,-264 559,-264 559,-283"/>
<text text-anchor="middle" x="474" y="-271" font-family="Helvetica,sans-Serif" font-size="10.00">lmmp_mul_fermat_recombine_</text>
</a>
</g>
</g>
<!-- Node31&#45;&gt;Node32 -->
<g id="edge45_Node000031_Node000032" class="edge">
<title>Node31&#45;&gt;Node32</title>
<g id="a_edge45_Node000031_Node000032"><a xlink:title=" ">
<path fill="none" stroke="#63b8ff" d="M326.21,-245.04C352.77,-250.19 385.75,-256.58 413.72,-262.01"/>
<polygon fill="#63b8ff" stroke="#63b8ff" points="413.29,-265.49 423.77,-263.96 414.62,-258.62 413.29,-265.49"/>
</a>
</g>
</g>
<!-- Node34 -->
<g id="Node000034" class="node">
<title>Node34</title>
<g id="a_Node000034"><a xlink:href="../../d3/d44/sub__n_8c.html#ae0e05032a43c35021a6d6859ed51f467" target="_top" xlink:title="无借位的n位减法 [dst,n] = [numa,n] &#45; [numb,n]">
<polygon fill="white" stroke="#666666" points="848.5,-227 764.5,-227 764.5,-208 848.5,-208 848.5,-227"/>
<text text-anchor="middle" x="806.5" y="-215" font-family="Helvetica,sans-Serif" font-size="10.00">lmmp_sub_n_</text>
</a>
</g>
</g>
<!-- Node31&#45;&gt;Node34 -->
<g id="edge53_Node000031_Node000034" class="edge">
<title>Node31&#45;&gt;Node34</title>
<g id="a_edge53_Node000031_Node000034"><a xlink:title=" ">
<path fill="none" stroke="#63b8ff" d="M353.1,-230.39C417.49,-226.32 512.24,-220.91 595,-218.5 649.33,-216.92 711.59,-216.84 754.22,-217.05"/>
<polygon fill="#63b8ff" stroke="#63b8ff" points="754.33,-220.55 764.35,-217.1 754.37,-213.55 754.33,-220.55"/>
</a>
</g>
</g>
<!-- Node32&#45;&gt;Node2 -->
<g id="edge46_Node000032_Node000002" class="edge">
<title>Node32&#45;&gt;Node2</title>
<g id="a_edge46_Node000032_Node000002"><a xlink:title=" ">
<path fill="none" stroke="#63b8ff" d="M496.87,-283.1C527.7,-296.62 584.08,-321.36 619.3,-336.81"/>
<polygon fill="#63b8ff" stroke="#63b8ff" points="618.06,-340.09 628.63,-340.9 620.88,-333.68 618.06,-340.09"/>
</a>
</g>
</g>
<!-- Node32&#45;&gt;Node4 -->
<g id="edge47_Node000032_Node000004" class="edge">
<title>Node32&#45;&gt;Node4</title>
<g id="a_edge47_Node000032_Node000004"><a xlink:title=" ">
<path fill="none" stroke="#63b8ff" d="M484.39,-283.05C503.55,-302.04 549.2,-344.82 595,-369.5 598.22,-371.24 601.64,-372.84 605.13,-374.32"/>
<polygon fill="#63b8ff" stroke="#63b8ff" points="603.89,-377.59 614.48,-377.92 606.41,-371.06 603.89,-377.59"/>
</a>
</g>
</g>
<!-- Node32&#45;&gt;Node21 -->
<g id="edge48_Node000032_Node000021" class="edge">
<title>Node32&#45;&gt;Node21</title>
<g id="a_edge48_Node000032_Node000021"><a xlink:title=" ">
<path fill="none" stroke="#63b8ff" d="M489.96,-263.87C520.53,-244.18 590.34,-199.24 627.01,-175.62"/>
<polygon fill="#63b8ff" stroke="#63b8ff" points="629.06,-178.47 635.57,-170.11 625.27,-172.58 629.06,-178.47"/>
</a>
</g>
</g>
<!-- Node32&#45;&gt;Node24 -->
<g id="edge49_Node000032_Node000024" class="edge">
<title>Node32&#45;&gt;Node24</title>
<g id="a_edge49_Node000032_Node000024"><a xlink:title=" ">
<path fill="none" stroke="#63b8ff" d="M559.2,-273.68C660.27,-273.89 825.99,-274.24 904.75,-274.41"/>
<polygon fill="#63b8ff" stroke="#63b8ff" points="904.82,-277.91 914.82,-274.43 904.83,-270.91 904.82,-277.91"/>
</a>
</g>
</g>
<!-- Node33 -->
<g id="Node000033" class="node">
<title>Node33</title>
<g id="a_Node000033"><a xlink:href="../../d6/d39/lmmpn_8h.html#ab6382940233ad6954ef892141066bc8a" target="_top" xlink:title="大数减法静态内联函数 [dst,na]=[numa,na]&#45;[numb,nb]">
<polygon fill="white" stroke="#666666" points="688,-246 615,-246 615,-227 688,-227 688,-246"/>
<text text-anchor="middle" x="651.5" y="-234" font-family="Helvetica,sans-Serif" font-size="10.00">lmmp_sub_</text>
</a>
</g>
</g>
<!-- Node32&#45;&gt;Node33 -->
<g id="edge50_Node000032_Node000033" class="edge">
<title>Node32&#45;&gt;Node33</title>
<g id="a_edge50_Node000032_Node000033"><a xlink:title=" ">
<path fill="none" stroke="#63b8ff" d="M520.2,-263.97C546.2,-258.49 578.78,-251.62 604.85,-246.12"/>
<polygon fill="#63b8ff" stroke="#63b8ff" points="605.8,-249.5 614.86,-244.01 604.36,-242.65 605.8,-249.5"/>
</a>
</g>
</g>
<!-- Node33&#45;&gt;Node34 -->
<g id="edge51_Node000033_Node000034" class="edge">
<title>Node33&#45;&gt;Node34</title>
<g id="a_edge51_Node000033_Node000034"><a xlink:title=" ">
<path fill="none" stroke="#63b8ff" d="M688.37,-232.05C708.04,-229.6 732.77,-226.53 754.42,-223.84"/>
<polygon fill="#63b8ff" stroke="#63b8ff" points="754.95,-227.3 764.45,-222.6 754.09,-220.36 754.95,-227.3"/>
</a>
</g>
</g>
</g>
</svg>

<g id="navigator" transform="translate(0 0)" fill="#404254">
  <rect fill="#f2f5e9" fill-opacity="0.5" stroke="#606060" stroke-width=".5" x="0" y="0" width="60" height="60"/>
  <use id="zoomplus" xlink:href="#zoomPlus" x="17" y="9" onmousedown="handleZoom(evt,'in')"/>
  <use id="zoomminus" xlink:href="#zoomMin" x="42" y="9" onmousedown="handleZoom(evt,'out')"/>
  <use id="reset" xlink:href="#resetDef" x="30" y="36" onmousedown="handleReset()"/>
   <use id="arrowup" xlink:href="#arrowUp" x="0" y="0" onmousedown="handlePan(0,-1)"/>
  <use id="arrowright" xlink:href="#arrowRight" x="0" y="0" onmousedown="handlePan(1,0)"/>
  <use id="arrowdown" xlink:href="#arrowDown" x="0" y="0" onmousedown="handlePan(0,1)"/>
  <use id="arrowleft" xlink:href="#arrowLeft" x="0" y="0" onmousedown="handlePan(-1,0)"/>
</g>
<svg viewBox="0 0 15 15" width="100%" height="30px" preserveAspectRatio="xMaxYMin meet">
 <g id="arrow_out" transform="scale(0.3 0.3)">
  <a xlink:href="mul__fft_8c_a35cbe6dac3c1543478936ed30a798a89_cgraph_org.svg" target="_base">
   <rect id="button" ry="5" rx="5" y="6" x="6" height="38" width="38"
        fill="#f2f5e9" fill-opacity="0.5" stroke="#606060" stroke-width="1.0"/>
   <path id="arrow"
     d="M 11.500037,31.436501 C 11.940474,20.09759 22.043105,11.32322 32.158766,21.979434 L 37.068811,17.246167 C 37.068811,17.246167 37.088388,32 37.088388,32 L 22.160133,31.978069 C 22.160133,31.978069 26.997745,27.140456 26.997745,27.140456 C 18.528582,18.264221 13.291696,25.230495 11.500037,31.436501 z"
     style="fill:#404040;"/>
  </a>
 </g>
</svg>

<style type='text/css'>
<![CDATA[
[data-mouse-over-selected='false'] { opacity: 0.7; }
[data-mouse-over-selected='true']  { opacity: 1.0; }
]]>
</style>
<script type="application/ecmascript"><![CDATA[
document.addEventListener('DOMContentLoaded', (event) => {
  highlightEdges();
  highlightAdjacentNodes();
});
]]></script>
</svg>
