<?xml version="1.0" encoding="UTF-8" standalone="no"?>
<!DOCTYPE svg PUBLIC "-//W3C//DTD SVG 1.1//EN"
 "http://www.w3.org/Graphics/SVG/1.1/DTD/svg11.dtd">
<!-- Generated by graphviz version 2.43.0 (0)
 -->
<!-- Title: lmmp_fft_shl_coef_ Pages: 1 -->
<svg width="2377pt" height="635pt"
 viewBox="0.00 0.00 2377.00 635.00" xmlns="http://www.w3.org/2000/svg" xmlns:xlink="http://www.w3.org/1999/xlink">
<g id="graph0" class="graph" transform="scale(1 1) rotate(0) translate(4 631)">
<title>lmmp_fft_shl_coef_</title>
<!-- Node1 -->
<g id="Node000001" class="node">
<title>Node1</title>
<g id="a_Node000001"><a xlink:title="对模 2^n+1 的系数执行左移操作">
<polygon fill="#999999" stroke="#666666" points="2369,-262 2257,-262 2257,-243 2369,-243 2369,-262"/>
<text text-anchor="middle" x="2313" y="-250" font-family="Helvetica,sans-Serif" font-size="10.00">lmmp_fft_shl_coef_</text>
</a>
</g>
</g>
<!-- Node2 -->
<g id="Node000002" class="node">
<title>Node2</title>
<g id="a_Node000002"><a xlink:href="../../db/dfa/mul__fft_8c.html#a06fb79c7196215e9f12f030d0e730906" target="_top" xlink:title="对模 2^n+1 的系数执行右移操作 右移shr位 = 左移(2n &#45; shr)位（mod 2^n+1的循环特性）">
<polygon fill="white" stroke="#666666" points="2221,-281 2108,-281 2108,-262 2221,-262 2221,-281"/>
<text text-anchor="middle" x="2164.5" y="-269" font-family="Helvetica,sans-Serif" font-size="10.00">lmmp_fft_shr_coef_</text>
</a>
</g>
</g>
<!-- Node1&#45;&gt;Node2 -->
<g id="edge1_Node000001_Node000002" class="edge">
<title>Node1&#45;&gt;Node2</title>
<g id="a_edge1_Node000001_Node000002"><a xlink:title=" ">
<path fill="none" stroke="#63b8ff" d="M2246.51,-260.99C2238.15,-262.08 2229.64,-263.18 2221.45,-264.24"/>
<polygon fill="#63b8ff" stroke="#63b8ff" points="2247.15,-264.44 2256.61,-259.68 2246.25,-257.5 2247.15,-264.44"/>
</a>
</g>
</g>
<!-- Node4 -->
<g id="Node000004" class="node">
<title>Node4</title>
<g id="a_Node000004"><a xlink:href="../../db/dfa/mul__fft_8c.html#a88c104343790a1c3abd0970df8487c10" target="_top" xlink:title="费马数模乘法 [dst,rn+1]=[numa,na]*[numb,nb] mod B^rn+1">
<polygon fill="white" stroke="#666666" points="1651,-395 1538,-395 1538,-376 1651,-376 1651,-395"/>
<text text-anchor="middle" x="1594.5" y="-383" font-family="Helvetica,sans-Serif" font-size="10.00">lmmp_mul_fermat_</text>
</a>
</g>
</g>
<!-- Node1&#45;&gt;Node4 -->
<g id="edge68_Node000001_Node000004" class="edge">
<title>Node1&#45;&gt;Node4</title>
<g id="a_edge68_Node000001_Node000004"><a xlink:title=" ">
<path fill="none" stroke="#63b8ff" d="M2283.07,-266.29C2265.48,-274.16 2242.36,-283.61 2221,-289.5 2015.27,-346.27 1761.62,-372.16 1651.21,-381.35"/>
<polygon fill="#63b8ff" stroke="#63b8ff" points="2284.59,-269.45 2292.23,-262.11 2281.68,-263.08 2284.59,-269.45"/>
</a>
</g>
</g>
<!-- Node16 -->
<g id="Node000016" class="node">
<title>Node16</title>
<g id="a_Node000016"><a xlink:href="../../db/dfa/mul__fft_8c.html#a3142a363cdd553a9a69ba6318c1b6726" target="_top" xlink:title="费马变换乘法递归函数（核心乘法逻辑）">
<polygon fill="white" stroke="#666666" points="1866,-253 1712,-253 1712,-234 1866,-234 1866,-253"/>
<text text-anchor="middle" x="1789" y="-241" font-family="Helvetica,sans-Serif" font-size="10.00">lmmp_mul_fermat_recurse_</text>
</a>
</g>
</g>
<!-- Node1&#45;&gt;Node16 -->
<g id="edge69_Node000001_Node000016" class="edge">
<title>Node1&#45;&gt;Node16</title>
<g id="a_edge69_Node000001_Node000016"><a xlink:title=" ">
<path fill="none" stroke="#63b8ff" d="M2246.39,-251.37C2149.55,-249.7 1968.78,-246.58 1866.2,-244.81"/>
<polygon fill="#63b8ff" stroke="#63b8ff" points="2246.57,-254.87 2256.63,-251.55 2246.69,-247.87 2246.57,-254.87"/>
</a>
</g>
</g>
<!-- Node17 -->
<g id="Node000017" class="node">
<title>Node17</title>
<g id="a_Node000017"><a xlink:href="../../db/dfa/mul__fft_8c.html#af9111c4032eab2e5aa340b511349b60d" target="_top" xlink:title=" ">
<polygon fill="white" stroke="#666666" points="1668,-148 1521,-148 1521,-129 1668,-129 1668,-148"/>
<text text-anchor="middle" x="1594.5" y="-136" font-family="Helvetica,sans-Serif" font-size="10.00">lmmp_mul_fermat_single_</text>
</a>
</g>
</g>
<!-- Node1&#45;&gt;Node17 -->
<g id="edge70_Node000001_Node000017" class="edge">
<title>Node1&#45;&gt;Node17</title>
<g id="a_edge70_Node000001_Node000017"><a xlink:title=" ">
<path fill="none" stroke="#63b8ff" d="M2255.73,-240.96C2171.32,-223.91 2006.82,-191.75 1866,-170.5 1799.25,-160.43 1722.83,-151.64 1668.29,-145.83"/>
<polygon fill="#63b8ff" stroke="#63b8ff" points="2255.12,-244.4 2265.61,-242.96 2256.51,-237.54 2255.12,-244.4"/>
</a>
</g>
</g>
<!-- Node3 -->
<g id="Node000003" class="node">
<title>Node3</title>
<g id="a_Node000003"><a xlink:href="../../db/dfa/mul__fft_8c.html#a784cb29d6f67382fb1100584e5db6698" target="_top" xlink:title="费马变换 模 B^n+1 乘法的结果合并">
<polygon fill="white" stroke="#666666" points="2072,-281 1902,-281 1902,-262 2072,-262 2072,-281"/>
<text text-anchor="middle" x="1987" y="-269" font-family="Helvetica,sans-Serif" font-size="10.00">lmmp_mul_fermat_recombine_</text>
</a>
</g>
</g>
<!-- Node2&#45;&gt;Node3 -->
<g id="edge2_Node000002_Node000003" class="edge">
<title>Node2&#45;&gt;Node3</title>
<g id="a_edge2_Node000002_Node000003"><a xlink:title=" ">
<path fill="none" stroke="#63b8ff" d="M2097.85,-271.5C2089.42,-271.5 2080.7,-271.5 2072.02,-271.5"/>
<polygon fill="#63b8ff" stroke="#63b8ff" points="2097.97,-275 2107.97,-271.5 2097.97,-268 2097.97,-275"/>
</a>
</g>
</g>
<!-- Node20 -->
<g id="Node000020" class="node">
<title>Node20</title>
<g id="a_Node000020"><a xlink:href="../../db/dfa/mul__fft_8c.html#a1d4cd32c506207c7617dadfa39a9236c" target="_top" xlink:title="梅森数模乘法 [dst,rn] = [numa,na]*[numb,nb] mod B^rn&#45;1">
<polygon fill="white" stroke="#666666" points="1658.5,-310 1530.5,-310 1530.5,-291 1658.5,-291 1658.5,-310"/>
<text text-anchor="middle" x="1594.5" y="-298" font-family="Helvetica,sans-Serif" font-size="10.00">lmmp_mul_mersenne_</text>
</a>
</g>
</g>
<!-- Node2&#45;&gt;Node20 -->
<g id="edge66_Node000002_Node000020" class="edge">
<title>Node2&#45;&gt;Node20</title>
<g id="a_edge66_Node000002_Node000020"><a xlink:title=" ">
<path fill="none" stroke="#63b8ff" d="M2112.86,-283.07C2099.63,-285.65 2085.34,-288.04 2072,-289.5 1924.55,-305.59 1749.97,-304.54 1658.55,-302.46"/>
<polygon fill="#63b8ff" stroke="#63b8ff" points="2113.63,-286.48 2122.74,-281.07 2112.24,-279.62 2113.63,-286.48"/>
</a>
</g>
</g>
<!-- Node43 -->
<g id="Node000043" class="node">
<title>Node43</title>
<g id="a_Node000043"><a xlink:href="../../db/dfa/mul__fft_8c.html#a35cbe6dac3c1543478936ed30a798a89" target="_top" xlink:title=" ">
<polygon fill="white" stroke="#666666" points="1676,-205 1513,-205 1513,-186 1676,-186 1676,-205"/>
<text text-anchor="middle" x="1594.5" y="-193" font-family="Helvetica,sans-Serif" font-size="10.00">lmmp_mul_mersenne_single_</text>
</a>
</g>
</g>
<!-- Node2&#45;&gt;Node43 -->
<g id="edge67_Node000002_Node000043" class="edge">
<title>Node2&#45;&gt;Node43</title>
<g id="a_edge67_Node000002_Node000043"><a xlink:title=" ">
<path fill="none" stroke="#63b8ff" d="M2110.83,-259.91C2098.15,-257.3 2084.62,-254.66 2072,-252.5 1933.84,-228.8 1771.46,-211.63 1676.38,-202.64"/>
<polygon fill="#63b8ff" stroke="#63b8ff" points="2110.29,-263.37 2120.79,-261.99 2111.72,-256.52 2110.29,-263.37"/>
</a>
</g>
</g>
<!-- Node3&#45;&gt;Node4 -->
<g id="edge3_Node000003_Node000004" class="edge">
<title>Node3&#45;&gt;Node4</title>
<g id="a_edge3_Node000003_Node000004"><a xlink:title=" ">
<path fill="none" stroke="#63b8ff" d="M1943.34,-283.95C1864.78,-306.89 1698.82,-355.34 1628.3,-375.92"/>
<polygon fill="#63b8ff" stroke="#63b8ff" points="1944.76,-287.19 1953.38,-281.02 1942.8,-280.47 1944.76,-287.19"/>
</a>
</g>
</g>
<!-- Node3&#45;&gt;Node16 -->
<g id="edge17_Node000003_Node000016" class="edge">
<title>Node3&#45;&gt;Node16</title>
<g id="a_edge17_Node000003_Node000016"><a xlink:title=" ">
<path fill="none" stroke="#63b8ff" d="M1909.29,-260.54C1891.95,-258.06 1873.67,-255.45 1856.78,-253.04"/>
<polygon fill="#63b8ff" stroke="#63b8ff" points="1908.98,-264.03 1919.37,-261.98 1909.97,-257.1 1908.98,-264.03"/>
</a>
</g>
</g>
<!-- Node3&#45;&gt;Node17 -->
<g id="edge65_Node000003_Node000017" class="edge">
<title>Node3&#45;&gt;Node17</title>
<g id="a_edge65_Node000003_Node000017"><a xlink:title=" ">
<path fill="none" stroke="#63b8ff" d="M1953.37,-258.05C1929.36,-248.32 1895.84,-235.08 1866,-224.5 1780.77,-194.3 1678.74,-163.21 1627.79,-148.02"/>
<polygon fill="#63b8ff" stroke="#63b8ff" points="1952.13,-261.33 1962.72,-261.86 1954.77,-254.84 1952.13,-261.33"/>
</a>
</g>
</g>
<!-- Node5 -->
<g id="Node000005" class="node">
<title>Node5</title>
<g id="a_Node000005"><a xlink:href="../../db/dfa/mul__fft_8c.html#adf1f0f93e369ff5bfdb2ff588f3a70f5" target="_top" xlink:title="FFT乘法运算 [dst,na+nb] = [numa,na] * [numb,nb]">
<polygon fill="white" stroke="#666666" points="1460,-405 1370,-405 1370,-386 1460,-386 1460,-405"/>
<text text-anchor="middle" x="1415" y="-393" font-family="Helvetica,sans-Serif" font-size="10.00">lmmp_mul_fft_</text>
</a>
</g>
</g>
<!-- Node4&#45;&gt;Node5 -->
<g id="edge4_Node000004_Node000005" class="edge">
<title>Node4&#45;&gt;Node5</title>
<g id="a_edge4_Node000004_Node000005"><a xlink:title=" ">
<path fill="none" stroke="#63b8ff" d="M1527.67,-389.21C1505.18,-390.48 1480.59,-391.86 1460.23,-393.01"/>
<polygon fill="#63b8ff" stroke="#63b8ff" points="1528.04,-392.69 1537.82,-388.64 1527.64,-385.7 1528.04,-392.69"/>
</a>
</g>
</g>
<!-- Node11 -->
<g id="Node000011" class="node">
<title>Node11</title>
<g id="a_Node000011"><a xlink:href="../../dd/d6c/mullo_8c.html#aba610caed10f619ee2ba4d1cbadb7f91" target="_top" xlink:title="低位FFT乘法 [dst,n] = [numa,n] * [numb,n] mod B^n">
<polygon fill="white" stroke="#666666" points="1464.5,-553 1365.5,-553 1365.5,-534 1464.5,-534 1464.5,-553"/>
<text text-anchor="middle" x="1415" y="-541" font-family="Helvetica,sans-Serif" font-size="10.00">lmmp_mullo_fft_</text>
</a>
</g>
</g>
<!-- Node4&#45;&gt;Node11 -->
<g id="edge10_Node000004_Node000011" class="edge">
<title>Node4&#45;&gt;Node11</title>
<g id="a_edge10_Node000004_Node000011"><a xlink:title=" ">
<path fill="none" stroke="#63b8ff" d="M1575.1,-401.88C1538.18,-434.75 1456.06,-507.84 1426.69,-533.98"/>
<polygon fill="#63b8ff" stroke="#63b8ff" points="1577.52,-404.41 1582.66,-395.15 1572.87,-399.18 1577.52,-404.41"/>
</a>
</g>
</g>
<!-- Node6 -->
<g id="Node000006" class="node">
<title>Node6</title>
<g id="a_Node000006"><a xlink:href="../../d1/de6/inlines_8h.html#a0618416262e27aea72e85dbf66bf1348" target="_top" xlink:title=" ">
<polygon fill="white" stroke="#666666" points="1292,-442 1196,-442 1196,-423 1292,-423 1292,-442"/>
<text text-anchor="middle" x="1244" y="-430" font-family="Helvetica,sans-Serif" font-size="10.00">__lmmp_mul_n_</text>
</a>
</g>
</g>
<!-- Node5&#45;&gt;Node6 -->
<g id="edge5_Node000005_Node000006" class="edge">
<title>Node5&#45;&gt;Node6</title>
<g id="a_edge5_Node000005_Node000006"><a xlink:title=" ">
<path fill="none" stroke="#63b8ff" d="M1360.47,-407.22C1337.32,-412.29 1310.58,-418.14 1288.67,-422.94"/>
<polygon fill="#63b8ff" stroke="#63b8ff" points="1361.46,-410.59 1370.48,-405.03 1359.96,-403.75 1361.46,-410.59"/>
</a>
</g>
</g>
<!-- Node7 -->
<g id="Node000007" class="node">
<title>Node7</title>
<g id="a_Node000007"><a xlink:href="../../d1/de6/inlines_8h.html#ad16ad6e7beea6c8506da1855ff25f72e" target="_top" xlink:title=" ">
<polygon fill="white" stroke="#666666" points="1284.5,-405 1203.5,-405 1203.5,-386 1284.5,-386 1284.5,-405"/>
<text text-anchor="middle" x="1244" y="-393" font-family="Helvetica,sans-Serif" font-size="10.00">__lmmp_sqr_</text>
</a>
</g>
</g>
<!-- Node5&#45;&gt;Node7 -->
<g id="edge6_Node000005_Node000007" class="edge">
<title>Node5&#45;&gt;Node7</title>
<g id="a_edge6_Node000005_Node000007"><a xlink:title=" ">
<path fill="none" stroke="#63b8ff" d="M1359.44,-395.5C1335.14,-395.5 1307.05,-395.5 1284.78,-395.5"/>
<polygon fill="#63b8ff" stroke="#63b8ff" points="1359.6,-399 1369.6,-395.5 1359.6,-392 1359.6,-399"/>
</a>
</g>
</g>
<!-- Node8 -->
<g id="Node000008" class="node">
<title>Node8</title>
<g id="a_Node000008"><a xlink:href="../../d0/df9/mul_8c.html#aeae364ad322d3bbb2d5ff2aa4c84232a" target="_top" xlink:title=" ">
<polygon fill="white" stroke="#666666" points="1281,-368 1207,-368 1207,-349 1281,-349 1281,-368"/>
<text text-anchor="middle" x="1244" y="-356" font-family="Helvetica,sans-Serif" font-size="10.00">lmmp_mul_</text>
</a>
</g>
</g>
<!-- Node5&#45;&gt;Node8 -->
<g id="edge7_Node000005_Node000008" class="edge">
<title>Node5&#45;&gt;Node8</title>
<g id="a_edge7_Node000005_Node000008"><a xlink:title=" ">
<path fill="none" stroke="#63b8ff" d="M1360.46,-383.78C1334.63,-378.12 1304.32,-371.49 1281.24,-366.43"/>
<polygon fill="#63b8ff" stroke="#63b8ff" points="1359.96,-387.25 1370.48,-385.97 1361.46,-380.41 1359.96,-387.25"/>
</a>
</g>
</g>
<!-- Node9 -->
<g id="Node000009" class="node">
<title>Node9</title>
<g id="a_Node000009"><a xlink:href="../../d0/df9/mul_8c.html#a060ae185499be37acc4fbb32e1ea2075" target="_top" xlink:title=" ">
<polygon fill="white" stroke="#666666" points="1287,-516 1201,-516 1201,-497 1287,-497 1287,-516"/>
<text text-anchor="middle" x="1244" y="-504" font-family="Helvetica,sans-Serif" font-size="10.00">lmmp_mul_n_</text>
</a>
</g>
</g>
<!-- Node5&#45;&gt;Node9 -->
<g id="edge8_Node000005_Node000009" class="edge">
<title>Node5&#45;&gt;Node9</title>
<g id="a_edge8_Node000005_Node000009"><a xlink:title=" ">
<path fill="none" stroke="#63b8ff" d="M1400.69,-412.93C1383.61,-434.04 1352,-469.17 1317,-488.5 1307.86,-493.55 1297.3,-497.2 1287.13,-499.84"/>
<polygon fill="#63b8ff" stroke="#63b8ff" points="1403.43,-415.09 1406.89,-405.08 1397.94,-410.76 1403.43,-415.09"/>
</a>
</g>
</g>
<!-- Node10 -->
<g id="Node000010" class="node">
<title>Node10</title>
<g id="a_Node000010"><a xlink:href="../../d0/df9/mul_8c.html#ac93ee21dc3b9f2bc30f4ea4be5898fdb" target="_top" xlink:title=" ">
<polygon fill="white" stroke="#666666" points="1279.5,-479 1208.5,-479 1208.5,-460 1279.5,-460 1279.5,-479"/>
<text text-anchor="middle" x="1244" y="-467" font-family="Helvetica,sans-Serif" font-size="10.00">lmmp_sqr_</text>
</a>
</g>
</g>
<!-- Node5&#45;&gt;Node10 -->
<g id="edge9_Node000005_Node000010" class="edge">
<title>Node5&#45;&gt;Node10</title>
<g id="a_edge9_Node000005_Node000010"><a xlink:title=" ">
<path fill="none" stroke="#63b8ff" d="M1391.2,-410.67C1372.06,-422.84 1343.65,-439.64 1317,-450.5 1305.15,-455.33 1291.69,-459.26 1279.65,-462.28"/>
<polygon fill="#63b8ff" stroke="#63b8ff" points="1393.3,-413.48 1399.8,-405.11 1389.5,-407.6 1393.3,-413.48"/>
</a>
</g>
</g>
<!-- Node12 -->
<g id="Node000012" class="node">
<title>Node12</title>
<g id="a_Node000012"><a xlink:href="../../dd/d6c/mullo_8c.html#a6d09898adb951f7bdd13bdc6f5e9fc3a" target="_top" xlink:title=" ">
<polygon fill="white" stroke="#666666" points="1285.5,-627 1202.5,-627 1202.5,-608 1285.5,-608 1285.5,-627"/>
<text text-anchor="middle" x="1244" y="-615" font-family="Helvetica,sans-Serif" font-size="10.00">lmmp_mullo_</text>
</a>
</g>
</g>
<!-- Node11&#45;&gt;Node12 -->
<g id="edge11_Node000011_Node000012" class="edge">
<title>Node11&#45;&gt;Node12</title>
<g id="a_edge11_Node000011_Node000012"><a xlink:title=" ">
<path fill="none" stroke="#63b8ff" d="M1391.61,-558.85C1372.52,-571.33 1343.96,-588.6 1317,-599.5 1307.09,-603.51 1296.03,-606.81 1285.62,-609.44"/>
<polygon fill="#63b8ff" stroke="#63b8ff" points="1393.78,-561.6 1400.17,-553.15 1389.91,-555.77 1393.78,-561.6"/>
</a>
</g>
</g>
<!-- Node13 -->
<g id="Node000013" class="node">
<title>Node13</title>
<g id="a_Node000013"><a xlink:href="../../dd/d93/binvert_8c.html#af33c404d23771847ae3a9a9b71f76551" target="_top" xlink:title=" ">
<polygon fill="white" stroke="#666666" points="1291.5,-590 1196.5,-590 1196.5,-571 1291.5,-571 1291.5,-590"/>
<text text-anchor="middle" x="1244" y="-578" font-family="Helvetica,sans-Serif" font-size="10.00">lmmp_mullo_n_</text>
</a>
</g>
</g>
<!-- Node11&#45;&gt;Node13 -->
<g id="edge12_Node000011_Node000013" class="edge">
<title>Node11&#45;&gt;Node13</title>
<g id="a_edge12_Node000011_Node000013"><a xlink:title=" ">
<path fill="none" stroke="#63b8ff" d="M1360.47,-555.22C1337.32,-560.29 1310.58,-566.14 1288.67,-570.94"/>
<polygon fill="#63b8ff" stroke="#63b8ff" points="1361.46,-558.59 1370.48,-553.03 1359.96,-551.75 1361.46,-558.59"/>
</a>
</g>
</g>
<!-- Node15 -->
<g id="Node000015" class="node">
<title>Node15</title>
<g id="a_Node000015"><a xlink:href="../../dd/d93/binvert_8c.html#ad25f4574e86237b74eecd941793656b1" target="_top" xlink:title=" ">
<polygon fill="white" stroke="#666666" points="1289.5,-553 1198.5,-553 1198.5,-534 1289.5,-534 1289.5,-553"/>
<text text-anchor="middle" x="1244" y="-541" font-family="Helvetica,sans-Serif" font-size="10.00">lmmp_sqrlo_n_</text>
</a>
</g>
</g>
<!-- Node11&#45;&gt;Node15 -->
<g id="edge15_Node000011_Node000015" class="edge">
<title>Node11&#45;&gt;Node15</title>
<g id="a_edge15_Node000011_Node000015"><a xlink:title=" ">
<path fill="none" stroke="#63b8ff" d="M1354.84,-543.5C1333.45,-543.5 1309.67,-543.5 1289.73,-543.5"/>
<polygon fill="#63b8ff" stroke="#63b8ff" points="1355.12,-547 1365.12,-543.5 1355.12,-540 1355.12,-547"/>
</a>
</g>
</g>
<!-- Node14 -->
<g id="Node000014" class="node">
<title>Node14</title>
<g id="a_Node000014"><a xlink:href="../../dd/d93/binvert_8c.html#a3fd1bd013e0538b438fc6a69e6e29a74" target="_top" xlink:title=" ">
<polygon fill="white" stroke="#666666" points="1134.5,-553 1016.5,-553 1016.5,-534 1134.5,-534 1134.5,-553"/>
<text text-anchor="middle" x="1075.5" y="-541" font-family="Helvetica,sans-Serif" font-size="10.00">lmmp_binvert_n_dc_</text>
</a>
</g>
</g>
<!-- Node13&#45;&gt;Node14 -->
<g id="edge13_Node000013_Node000014" class="edge">
<title>Node13&#45;&gt;Node14</title>
<g id="a_edge13_Node000013_Node000014"><a xlink:title=" ">
<path fill="none" stroke="#63b8ff" d="M1190.26,-568.78C1167.46,-563.71 1141.11,-557.86 1119.52,-553.06"/>
<polygon fill="#63b8ff" stroke="#63b8ff" points="1189.6,-572.22 1200.12,-570.97 1191.12,-565.39 1189.6,-572.22"/>
</a>
</g>
</g>
<!-- Node14&#45;&gt;Node14 -->
<g id="edge14_Node000014_Node000014" class="edge">
<title>Node14&#45;&gt;Node14</title>
<g id="a_edge14_Node000014_Node000014"><a xlink:title=" ">
<path fill="none" stroke="#63b8ff" d="M1105.37,-561.82C1104.12,-567.01 1094.16,-571 1075.5,-571 1047.06,-571 1038.84,-561.73 1050.84,-553.08"/>
<polygon fill="#63b8ff" stroke="#63b8ff" points="1108.29,-559.88 1100.16,-553.08 1102.27,-563.47 1108.29,-559.88"/>
</a>
</g>
</g>
<!-- Node15&#45;&gt;Node14 -->
<g id="edge16_Node000015_Node000014" class="edge">
<title>Node15&#45;&gt;Node14</title>
<g id="a_edge16_Node000015_Node000014"><a xlink:title=" ">
<path fill="none" stroke="#63b8ff" d="M1188,-543.5C1170.92,-543.5 1152.03,-543.5 1134.73,-543.5"/>
<polygon fill="#63b8ff" stroke="#63b8ff" points="1188.38,-547 1198.38,-543.5 1188.38,-540 1188.38,-547"/>
</a>
</g>
</g>
<!-- Node16&#45;&gt;Node4 -->
<g id="edge18_Node000016_Node000004" class="edge">
<title>Node16&#45;&gt;Node4</title>
<g id="a_edge18_Node000016_Node000004"><a xlink:title=" ">
<path fill="none" stroke="#63b8ff" d="M1766.83,-259.12C1726.85,-288.61 1641.36,-351.67 1608.63,-375.82"/>
<polygon fill="#63b8ff" stroke="#63b8ff" points="1769.1,-261.79 1775.07,-253.04 1764.95,-256.16 1769.1,-261.79"/>
</a>
</g>
</g>
<!-- Node16&#45;&gt;Node16 -->
<g id="edge19_Node000016_Node000016" class="edge">
<title>Node16&#45;&gt;Node16</title>
<g id="a_edge19_Node000016_Node000016"><a xlink:title=" ">
<path fill="none" stroke="#63b8ff" d="M1825.36,-261.07C1824.82,-266.62 1812.71,-271 1789,-271 1754.52,-271 1744.55,-261.73 1759.1,-253.08"/>
<polygon fill="#63b8ff" stroke="#63b8ff" points="1827.91,-258.66 1818.9,-253.08 1822.46,-263.06 1827.91,-258.66"/>
</a>
</g>
</g>
<!-- Node16&#45;&gt;Node17 -->
<g id="edge20_Node000016_Node000017" class="edge">
<title>Node16&#45;&gt;Node17</title>
<g id="a_edge20_Node000016_Node000017"><a xlink:title=" ">
<path fill="none" stroke="#63b8ff" d="M1764.55,-228.55C1742.15,-214.5 1707.28,-193.18 1676,-176.5 1656.5,-166.1 1633.67,-155.46 1617.31,-148.1"/>
<polygon fill="#63b8ff" stroke="#63b8ff" points="1762.73,-231.54 1773.05,-233.92 1766.46,-225.62 1762.73,-231.54"/>
</a>
</g>
</g>
<!-- Node16&#45;&gt;Node20 -->
<g id="edge23_Node000016_Node000020" class="edge">
<title>Node16&#45;&gt;Node20</title>
<g id="a_edge23_Node000016_Node000020"><a xlink:title=" ">
<path fill="none" stroke="#63b8ff" d="M1746.17,-255.88C1710.63,-266.41 1660.34,-281.3 1627.83,-290.93"/>
<polygon fill="#63b8ff" stroke="#63b8ff" points="1747.19,-259.24 1755.78,-253.04 1745.2,-252.52 1747.19,-259.24"/>
</a>
</g>
</g>
<!-- Node16&#45;&gt;Node43 -->
<g id="edge63_Node000016_Node000043" class="edge">
<title>Node16&#45;&gt;Node43</title>
<g id="a_edge63_Node000016_Node000043"><a xlink:title=" ">
<path fill="none" stroke="#63b8ff" d="M1739.7,-231.46C1706.98,-223.3 1664.33,-212.66 1633.93,-205.08"/>
<polygon fill="#63b8ff" stroke="#63b8ff" points="1738.96,-234.88 1749.51,-233.9 1740.65,-228.09 1738.96,-234.88"/>
</a>
</g>
</g>
<!-- Node18 -->
<g id="Node000018" class="node">
<title>Node18</title>
<g id="a_Node000018"><a xlink:href="../../db/dfa/mul__fft_8c.html#a710d19da9cc37bbad3e4c4132560e811" target="_top" xlink:title=" ">
<polygon fill="white" stroke="#666666" points="1477,-19 1353,-19 1353,0 1477,0 1477,-19"/>
<text text-anchor="middle" x="1415" y="-7" font-family="Helvetica,sans-Serif" font-size="10.00">lmmp_mul_fft_cache_</text>
</a>
</g>
</g>
<!-- Node17&#45;&gt;Node18 -->
<g id="edge21_Node000017_Node000018" class="edge">
<title>Node17&#45;&gt;Node18</title>
<g id="a_edge21_Node000017_Node000018"><a xlink:title=" ">
<path fill="none" stroke="#63b8ff" d="M1578.22,-121.32C1557.29,-98.64 1517.62,-58.64 1477,-33.5 1467.61,-27.69 1456.58,-22.84 1446.5,-19.05"/>
<polygon fill="#63b8ff" stroke="#63b8ff" points="1575.74,-123.79 1585.06,-128.84 1580.92,-119.08 1575.74,-123.79"/>
</a>
</g>
</g>
<!-- Node19 -->
<g id="Node000019" class="node">
<title>Node19</title>
<g id="a_Node000019"><a xlink:href="../../db/dfa/mul__fft_8c.html#a57b57bbfd0b41237761e3e49f4c18b8c" target="_top" xlink:title=" ">
<polygon fill="white" stroke="#666666" points="1317,-19 1171,-19 1171,0 1317,0 1317,-19"/>
<text text-anchor="middle" x="1244" y="-7" font-family="Helvetica,sans-Serif" font-size="10.00">lmmp_mul_fft_unbalance_</text>
</a>
</g>
</g>
<!-- Node18&#45;&gt;Node19 -->
<g id="edge22_Node000018_Node000019" class="edge">
<title>Node18&#45;&gt;Node19</title>
<g id="a_edge22_Node000018_Node000019"><a xlink:title=" ">
<path fill="none" stroke="#63b8ff" d="M1342.76,-9.5C1334.29,-9.5 1325.63,-9.5 1317.15,-9.5"/>
<polygon fill="#63b8ff" stroke="#63b8ff" points="1342.99,-13 1352.99,-9.5 1342.99,-6 1342.99,-13"/>
</a>
</g>
</g>
<!-- Node20&#45;&gt;Node5 -->
<g id="edge61_Node000020_Node000005" class="edge">
<title>Node20&#45;&gt;Node5</title>
<g id="a_edge61_Node000020_Node000005"><a xlink:title=" ">
<path fill="none" stroke="#63b8ff" d="M1566.35,-315.03C1529.58,-334.71 1464.94,-369.31 1433.78,-385.98"/>
<polygon fill="#63b8ff" stroke="#63b8ff" points="1568.34,-317.94 1575.5,-310.13 1565.04,-311.76 1568.34,-317.94"/>
</a>
</g>
</g>
<!-- Node20&#45;&gt;Node11 -->
<g id="edge62_Node000020_Node000011" class="edge">
<title>Node20&#45;&gt;Node11</title>
<g id="a_edge62_Node000020_Node000011"><a xlink:title=" ">
<path fill="none" stroke="#63b8ff" d="M1570.27,-315.87C1552.98,-328.12 1529.61,-346.49 1513,-366.5 1466.01,-423.13 1430.84,-505.96 1419.72,-533.89"/>
<polygon fill="#63b8ff" stroke="#63b8ff" points="1572.45,-318.61 1578.69,-310.04 1568.47,-312.86 1572.45,-318.61"/>
</a>
</g>
</g>
<!-- Node21 -->
<g id="Node000021" class="node">
<title>Node21</title>
<g id="a_Node000021"><a xlink:href="../../dd/d93/binvert_8c.html#a7a117714be10e35005a968c5c3ab878d" target="_top" xlink:title=" ">
<polygon fill="white" stroke="#666666" points="1459.5,-330 1370.5,-330 1370.5,-311 1459.5,-311 1459.5,-330"/>
<text text-anchor="middle" x="1415" y="-318" font-family="Helvetica,sans-Serif" font-size="10.00">binvert_mulhi_</text>
</a>
</g>
</g>
<!-- Node20&#45;&gt;Node21 -->
<g id="edge24_Node000020_Node000021" class="edge">
<title>Node20&#45;&gt;Node21</title>
<g id="a_edge24_Node000020_Node000021"><a xlink:title=" ">
<path fill="none" stroke="#63b8ff" d="M1520.41,-308.74C1499.78,-311.06 1477.98,-313.52 1459.67,-315.58"/>
<polygon fill="#63b8ff" stroke="#63b8ff" points="1520.88,-312.21 1530.42,-307.61 1520.09,-305.25 1520.88,-312.21"/>
</a>
</g>
</g>
<!-- Node22 -->
<g id="Node000022" class="node">
<title>Node22</title>
<g id="a_Node000022"><a xlink:href="../../d8/d4f/div__mulinv_8c.html#ad88ade0716b0c0307d6b2b82909af514" target="_top" xlink:title="乘法逆元除法">
<polygon fill="white" stroke="#666666" points="1470,-221 1360,-221 1360,-202 1470,-202 1470,-221"/>
<text text-anchor="middle" x="1415" y="-209" font-family="Helvetica,sans-Serif" font-size="10.00">lmmp_div_mulinv_</text>
</a>
</g>
</g>
<!-- Node20&#45;&gt;Node22 -->
<g id="edge26_Node000020_Node000022" class="edge">
<title>Node20&#45;&gt;Node22</title>
<g id="a_edge26_Node000020_Node000022"><a xlink:title=" ">
<path fill="none" stroke="#63b8ff" d="M1565.41,-286.42C1529.01,-268.16 1466.49,-236.82 1435.13,-221.09"/>
<polygon fill="#63b8ff" stroke="#63b8ff" points="1564,-289.62 1574.5,-290.98 1567.13,-283.36 1564,-289.62"/>
</a>
</g>
</g>
<!-- Node37 -->
<g id="Node000037" class="node">
<title>Node37</title>
<g id="a_Node000037"><a xlink:href="../../d9/dfd/inv_8c.html#a8e77d4aa54d6c0e211003cf1fe70c88e" target="_top" xlink:title="近似逆元计算（牛顿迭代法）">
<polygon fill="white" stroke="#666666" points="813,-218 679,-218 679,-199 813,-199 813,-218"/>
<text text-anchor="middle" x="746" y="-206" font-family="Helvetica,sans-Serif" font-size="10.00">lmmp_invappr_newton_</text>
</a>
</g>
</g>
<!-- Node20&#45;&gt;Node37 -->
<g id="edge59_Node000020_Node000037" class="edge">
<title>Node20&#45;&gt;Node37</title>
<g id="a_edge59_Node000020_Node000037"><a xlink:title=" ">
<path fill="none" stroke="#63b8ff" d="M1520.22,-300.37C1375.86,-299.95 1064.42,-298.15 1016,-290.5 922.44,-275.73 816.2,-236.25 770.23,-218"/>
<polygon fill="#63b8ff" stroke="#63b8ff" points="1520.31,-303.87 1530.32,-300.4 1520.33,-296.87 1520.31,-303.87"/>
</a>
</g>
</g>
<!-- Node38 -->
<g id="Node000038" class="node">
<title>Node38</title>
<g id="a_Node000038"><a xlink:href="../../dd/de3/sqrt_8c.html#acf69ca7583fe7a1266e3c31256ab270b" target="_top" xlink:title=" ">
<polygon fill="white" stroke="#666666" points="980,-66 849,-66 849,-47 980,-47 980,-66"/>
<text text-anchor="middle" x="914.5" y="-54" font-family="Helvetica,sans-Serif" font-size="10.00">lmmp_invsqrt_newton_</text>
</a>
</g>
</g>
<!-- Node20&#45;&gt;Node38 -->
<g id="edge60_Node000020_Node000038" class="edge">
<title>Node20&#45;&gt;Node38</title>
<g id="a_edge60_Node000020_Node000038"><a xlink:title=" ">
<path fill="none" stroke="#63b8ff" d="M1578.72,-283.02C1558.08,-259.57 1518.46,-217.93 1477,-192.5 1338.92,-107.79 1293.78,-98.56 1135,-66.5 1083.59,-56.12 1024.08,-54 980,-54.27"/>
<polygon fill="#63b8ff" stroke="#63b8ff" points="1576.24,-285.51 1585.44,-290.78 1581.54,-280.93 1576.24,-285.51"/>
</a>
</g>
</g>
<!-- Node21&#45;&gt;Node14 -->
<g id="edge25_Node000021_Node000014" class="edge">
<title>Node21&#45;&gt;Node14</title>
<g id="a_edge25_Node000021_Node000014"><a xlink:title=" ">
<path fill="none" stroke="#63b8ff" d="M1359.94,-310.12C1306.98,-303.08 1226.37,-301 1171,-339.5 1101.78,-387.63 1082.09,-499.77 1077.63,-533.64"/>
<polygon fill="#63b8ff" stroke="#63b8ff" points="1359.76,-313.63 1370.15,-311.59 1360.75,-306.7 1359.76,-313.63"/>
</a>
</g>
</g>
<!-- Node23 -->
<g id="Node000023" class="node">
<title>Node23</title>
<g id="a_Node000023"><a xlink:href="../../d3/db2/div_8c.html#add02162837d61d6b5abb1901937af5b3" target="_top" xlink:title="大数除法和取模操作">
<polygon fill="white" stroke="#666666" points="366,-142 295,-142 295,-123 366,-123 366,-142"/>
<text text-anchor="middle" x="330.5" y="-130" font-family="Helvetica,sans-Serif" font-size="10.00">lmmp_div_</text>
</a>
</g>
</g>
<!-- Node22&#45;&gt;Node23 -->
<g id="edge27_Node000022_Node000023" class="edge">
<title>Node22&#45;&gt;Node23</title>
<g id="a_edge27_Node000022_Node000023"><a xlink:title=" ">
<path fill="none" stroke="#63b8ff" d="M1392.45,-195.67C1325.47,-148.07 1113.49,-9.5 915.5,-9.5 915.5,-9.5 915.5,-9.5 596,-9.5 488.64,-9.5 377.7,-93.85 342.74,-122.85"/>
<polygon fill="#63b8ff" stroke="#63b8ff" points="1390.76,-198.76 1400.93,-201.76 1394.85,-193.08 1390.76,-198.76"/>
</a>
</g>
</g>
<!-- Node30 -->
<g id="Node000030" class="node">
<title>Node30</title>
<g id="a_Node000030"><a xlink:href="../../d3/db2/div_8c.html#a09787f526eeb74b44652734d1a125385" target="_top" xlink:title="除法运算">
<polygon fill="white" stroke="#666666" points="1284.5,-188 1203.5,-188 1203.5,-169 1284.5,-169 1284.5,-188"/>
<text text-anchor="middle" x="1244" y="-176" font-family="Helvetica,sans-Serif" font-size="10.00">lmmp_div_s_</text>
</a>
</g>
</g>
<!-- Node22&#45;&gt;Node30 -->
<g id="edge34_Node000022_Node000030" class="edge">
<title>Node22&#45;&gt;Node30</title>
<g id="a_edge34_Node000022_Node000030"><a xlink:title=" ">
<path fill="none" stroke="#63b8ff" d="M1355,-199.98C1331.74,-195.44 1305.62,-190.34 1284.68,-186.25"/>
<polygon fill="#63b8ff" stroke="#63b8ff" points="1354.63,-203.47 1365.12,-201.96 1355.97,-196.6 1354.63,-203.47"/>
</a>
</g>
</g>
<!-- Node42 -->
<g id="Node000042" class="node">
<title>Node42</title>
<g id="a_Node000042"><a xlink:href="../../db/d22/to__str_8c.html#ae7015bf876ce4a9726e4584583e137ce" target="_top" xlink:title=" ">
<polygon fill="white" stroke="#666666" points="1135,-264 1016,-264 1016,-245 1135,-245 1135,-264"/>
<text text-anchor="middle" x="1075.5" y="-252" font-family="Helvetica,sans-Serif" font-size="10.00">lmmp_to_str_divide_</text>
</a>
</g>
</g>
<!-- Node22&#45;&gt;Node42 -->
<g id="edge58_Node000022_Node000042" class="edge">
<title>Node22&#45;&gt;Node42</title>
<g id="a_edge58_Node000022_Node000042"><a xlink:title=" ">
<path fill="none" stroke="#63b8ff" d="M1349.74,-219.69C1287.85,-227.57 1195.04,-239.4 1135.13,-247.03"/>
<polygon fill="#63b8ff" stroke="#63b8ff" points="1350.3,-223.14 1359.77,-218.41 1349.41,-216.2 1350.3,-223.14"/>
</a>
</g>
</g>
<!-- Node24 -->
<g id="Node000024" class="node">
<title>Node24</title>
<g id="a_Node000024"><a xlink:href="../../da/dbc/bninv_8c.html#a9d1d54a9863ec438e863e842482697ba" target="_top" xlink:title=" ">
<polygon fill="white" stroke="#666666" points="232.5,-216 149.5,-216 149.5,-197 232.5,-197 232.5,-216"/>
<text text-anchor="middle" x="191" y="-204" font-family="Helvetica,sans-Serif" font-size="10.00">lmmp_bninv_</text>
</a>
</g>
</g>
<!-- Node23&#45;&gt;Node24 -->
<g id="edge28_Node000023_Node000024" class="edge">
<title>Node23&#45;&gt;Node24</title>
<g id="a_edge28_Node000023_Node000024"><a xlink:title=" ">
<path fill="none" stroke="#63b8ff" d="M310.42,-148.89C295.58,-160.95 274.05,-177 253,-187.5 245.65,-191.16 237.46,-194.3 229.52,-196.9"/>
<polygon fill="#63b8ff" stroke="#63b8ff" points="312.87,-151.4 318.33,-142.32 308.4,-146.02 312.87,-151.4"/>
</a>
</g>
</g>
<!-- Node25 -->
<g id="Node000025" class="node">
<title>Node25</title>
<g id="a_Node000025"><a xlink:href="../../d6/dfd/gcd__basecase_8c.html#a1d75efbaa9483d1df69ca92c456b8f79" target="_top" xlink:title="计算两个无符号整数的最大公约数（不建议使用此算法，更高版本可能被彻底弃用）">
<polygon fill="white" stroke="#666666" points="253,-179 129,-179 129,-160 253,-160 253,-179"/>
<text text-anchor="middle" x="191" y="-167" font-family="Helvetica,sans-Serif" font-size="10.00">lmmp_gcd_basecase_</text>
</a>
</g>
</g>
<!-- Node23&#45;&gt;Node25 -->
<g id="edge29_Node000023_Node000025" class="edge">
<title>Node23&#45;&gt;Node25</title>
<g id="a_edge29_Node000023_Node000025"><a xlink:title=" ">
<path fill="none" stroke="#63b8ff" d="M285.08,-144.45C266.49,-149.45 245.18,-155.19 227.64,-159.91"/>
<polygon fill="#63b8ff" stroke="#63b8ff" points="286.06,-147.81 294.8,-141.84 284.24,-141.06 286.06,-147.81"/>
</a>
</g>
</g>
<!-- Node26 -->
<g id="Node000026" class="node">
<title>Node26</title>
<g id="a_Node000026"><a xlink:href="../../de/d86/gcd__lehmer_8c.html#a1ea89f24b0daddd75fa7ed3f13b851f4" target="_top" xlink:title="计算两个无符号整数的最大公约数（Lehmer算法）">
<polygon fill="white" stroke="#666666" points="247.5,-142 134.5,-142 134.5,-123 247.5,-123 247.5,-142"/>
<text text-anchor="middle" x="191" y="-130" font-family="Helvetica,sans-Serif" font-size="10.00">lmmp_gcd_lehmer_</text>
</a>
</g>
</g>
<!-- Node23&#45;&gt;Node26 -->
<g id="edge30_Node000023_Node000026" class="edge">
<title>Node23&#45;&gt;Node26</title>
<g id="a_edge30_Node000023_Node000026"><a xlink:title=" ">
<path fill="none" stroke="#63b8ff" d="M284.71,-132.5C272.85,-132.5 259.91,-132.5 247.55,-132.5"/>
<polygon fill="#63b8ff" stroke="#63b8ff" points="284.8,-136 294.8,-132.5 284.8,-129 284.8,-136"/>
</a>
</g>
</g>
<!-- Node27 -->
<g id="Node000027" class="node">
<title>Node27</title>
<g id="a_Node000027"><a xlink:href="../../d1/db8/trialdiv_8c.html#a3f93397f659328a5dbf9affb2680fee1" target="_top" xlink:title=" ">
<polygon fill="white" stroke="#666666" points="236,-105 146,-105 146,-86 236,-86 236,-105"/>
<text text-anchor="middle" x="191" y="-93" font-family="Helvetica,sans-Serif" font-size="10.00">lmmp_trialdiv_</text>
</a>
</g>
</g>
<!-- Node23&#45;&gt;Node27 -->
<g id="edge31_Node000023_Node000027" class="edge">
<title>Node23&#45;&gt;Node27</title>
<g id="a_edge31_Node000023_Node000027"><a xlink:title=" ">
<path fill="none" stroke="#63b8ff" d="M285.08,-120.55C266.49,-115.55 245.18,-109.81 227.64,-105.09"/>
<polygon fill="#63b8ff" stroke="#63b8ff" points="284.24,-123.94 294.8,-123.16 286.06,-117.19 284.24,-123.94"/>
</a>
</g>
</g>
<!-- Node28 -->
<g id="Node000028" class="node">
<title>Node28</title>
<g id="a_Node000028"><a xlink:href="../../d2/dd7/remove_8c.html#a247b77acd679e675a3715ea686b3b001" target="_top" xlink:title="qp 为商，rp 为余数，divp 为被除数，divn 为被除数长度，numb 为除数，nb 为除数长度 如果无法整除，则返回0，否则返回除数 qp 的长度">
<polygon fill="white" stroke="#666666" points="219,-68 163,-68 163,-49 219,-49 219,-68"/>
<text text-anchor="middle" x="191" y="-56" font-family="Helvetica,sans-Serif" font-size="10.00">try_div_</text>
</a>
</g>
</g>
<!-- Node23&#45;&gt;Node28 -->
<g id="edge32_Node000023_Node000028" class="edge">
<title>Node23&#45;&gt;Node28</title>
<g id="a_edge32_Node000023_Node000028"><a xlink:title=" ">
<path fill="none" stroke="#63b8ff" d="M311.03,-116.13C296.23,-103.75 274.46,-87.12 253,-76.5 242.41,-71.26 230.02,-67.26 219.18,-64.37"/>
<polygon fill="#63b8ff" stroke="#63b8ff" points="309.01,-119.01 318.88,-122.85 313.56,-113.69 309.01,-119.01"/>
</a>
</g>
</g>
<!-- Node29 -->
<g id="Node000029" class="node">
<title>Node29</title>
<g id="a_Node000029"><a xlink:href="../../d2/dd7/remove_8c.html#a1cc1a46280105160a8cbd99a0f9f1571" target="_top" xlink:title="除去[np,nn]中的[dp,dn]的因子">
<polygon fill="white" stroke="#666666" points="93,-68 0,-68 0,-49 93,-49 93,-68"/>
<text text-anchor="middle" x="46.5" y="-56" font-family="Helvetica,sans-Serif" font-size="10.00">lmmp_remove_</text>
</a>
</g>
</g>
<!-- Node28&#45;&gt;Node29 -->
<g id="edge33_Node000028_Node000029" class="edge">
<title>Node28&#45;&gt;Node29</title>
<g id="a_edge33_Node000028_Node000029"><a xlink:title=" ">
<path fill="none" stroke="#63b8ff" d="M152.62,-58.5C134.37,-58.5 112.26,-58.5 93.04,-58.5"/>
<polygon fill="#63b8ff" stroke="#63b8ff" points="152.86,-62 162.86,-58.5 152.86,-55 152.86,-62"/>
</a>
</g>
</g>
<!-- Node30&#45;&gt;Node30 -->
<g id="edge47_Node000030_Node000030" class="edge">
<title>Node30&#45;&gt;Node30</title>
<g id="a_edge47_Node000030_Node000030"><a xlink:title=" ">
<path fill="none" stroke="#63b8ff" d="M1275.44,-196.45C1274.54,-201.82 1264.06,-206 1244,-206 1214.14,-206 1205.51,-196.73 1218.11,-188.08"/>
<polygon fill="#63b8ff" stroke="#63b8ff" points="1278.34,-194.49 1269.89,-188.08 1272.5,-198.35 1278.34,-194.49"/>
</a>
</g>
</g>
<!-- Node31 -->
<g id="Node000031" class="node">
<title>Node31</title>
<g id="a_Node000031"><a xlink:href="../../d6/d35/div__divide_8c.html#af7cdacfcced180d298d3c7689dd6481e" target="_top" xlink:title="分治除法运算">
<polygon fill="white" stroke="#666666" points="1128.5,-188 1022.5,-188 1022.5,-169 1128.5,-169 1128.5,-188"/>
<text text-anchor="middle" x="1075.5" y="-176" font-family="Helvetica,sans-Serif" font-size="10.00">lmmp_div_divide_</text>
</a>
</g>
</g>
<!-- Node30&#45;&gt;Node31 -->
<g id="edge35_Node000030_Node000031" class="edge">
<title>Node30&#45;&gt;Node31</title>
<g id="a_edge35_Node000030_Node000031"><a xlink:title=" ">
<path fill="none" stroke="#63b8ff" d="M1193.11,-172.26C1172.76,-171.61 1149.23,-171.58 1128.66,-172.19"/>
<polygon fill="#63b8ff" stroke="#63b8ff" points="1192.99,-175.75 1203.12,-172.64 1193.26,-168.76 1192.99,-175.75"/>
</a>
</g>
</g>
<!-- Node30&#45;&gt;Node38 -->
<g id="edge48_Node000030_Node000038" class="edge">
<title>Node30&#45;&gt;Node38</title>
<g id="a_edge48_Node000030_Node000038"><a xlink:title=" ">
<path fill="none" stroke="#63b8ff" d="M1224.3,-162.31C1203.76,-145.38 1169.14,-119.26 1135,-104.5 1085.41,-83.06 1025.23,-70.77 980.43,-64.01"/>
<polygon fill="#63b8ff" stroke="#63b8ff" points="1222.29,-165.19 1232.19,-168.95 1226.79,-159.83 1222.29,-165.19"/>
</a>
</g>
</g>
<!-- Node41 -->
<g id="Node000041" class="node">
<title>Node41</title>
<g id="a_Node000041"><a xlink:href="../../dd/de3/sqrt_8c.html#a22ca68231196ab9e635c48d8c74f33f9" target="_top" xlink:title=" ">
<polygon fill="white" stroke="#666666" points="1130.5,-133 1020.5,-133 1020.5,-114 1130.5,-114 1130.5,-133"/>
<text text-anchor="middle" x="1075.5" y="-121" font-family="Helvetica,sans-Serif" font-size="10.00">lmmp_sqrt_divide_</text>
</a>
</g>
</g>
<!-- Node30&#45;&gt;Node41 -->
<g id="edge51_Node000030_Node000041" class="edge">
<title>Node30&#45;&gt;Node41</title>
<g id="a_edge51_Node000030_Node000041"><a xlink:title=" ">
<path fill="none" stroke="#63b8ff" d="M1204.22,-165.69C1174.03,-155.72 1132.8,-142.1 1105.45,-133.06"/>
<polygon fill="#63b8ff" stroke="#63b8ff" points="1203.4,-169.11 1214,-168.92 1205.6,-162.46 1203.4,-169.11"/>
</a>
</g>
</g>
<!-- Node30&#45;&gt;Node42 -->
<g id="edge55_Node000030_Node000042" class="edge">
<title>Node30&#45;&gt;Node42</title>
<g id="a_edge55_Node000030_Node000042"><a xlink:title=" ">
<path fill="none" stroke="#63b8ff" d="M1215.06,-192.52C1193.38,-203.25 1162.49,-218.26 1135,-230.5 1123.87,-235.46 1111.39,-240.63 1100.83,-244.9"/>
<polygon fill="#63b8ff" stroke="#63b8ff" points="1216.65,-195.64 1224.04,-188.05 1213.53,-189.37 1216.65,-195.64"/>
</a>
</g>
</g>
<!-- Node31&#45;&gt;Node23 -->
<g id="edge36_Node000031_Node000023" class="edge">
<title>Node31&#45;&gt;Node23</title>
<g id="a_edge36_Node000031_Node000023"><a xlink:title=" ">
<path fill="none" stroke="#63b8ff" d="M1023.54,-166.85C959.39,-153.22 845.65,-132.5 747,-132.5 747,-132.5 747,-132.5 596,-132.5 513.57,-132.5 416.7,-132.5 366.16,-132.5"/>
<polygon fill="#63b8ff" stroke="#63b8ff" points="1022.89,-170.29 1033.4,-168.97 1024.36,-163.44 1022.89,-170.29"/>
</a>
</g>
</g>
<!-- Node31&#45;&gt;Node30 -->
<g id="edge37_Node000031_Node000030" class="edge">
<title>Node31&#45;&gt;Node30</title>
<g id="a_edge37_Node000031_Node000030"><a xlink:title=" ">
<path fill="none" stroke="#63b8ff" d="M1138.73,-185.05C1160.28,-185.46 1183.85,-185.23 1203.12,-184.36"/>
<polygon fill="#63b8ff" stroke="#63b8ff" points="1138.74,-181.55 1128.66,-184.81 1138.57,-188.55 1138.74,-181.55"/>
</a>
</g>
</g>
<!-- Node32 -->
<g id="Node000032" class="node">
<title>Node32</title>
<g id="a_Node000032"><a xlink:href="../../d9/dfd/inv_8c.html#ac8b4a13ac42e926c4598b6be4567a827" target="_top" xlink:title="近似逆元计算">
<polygon fill="white" stroke="#666666" points="975.5,-188 853.5,-188 853.5,-169 975.5,-169 975.5,-188"/>
<text text-anchor="middle" x="914.5" y="-176" font-family="Helvetica,sans-Serif" font-size="10.00">lmmp_inv_basecase_</text>
</a>
</g>
</g>
<!-- Node31&#45;&gt;Node32 -->
<g id="edge38_Node000031_Node000032" class="edge">
<title>Node31&#45;&gt;Node32</title>
<g id="a_edge38_Node000031_Node000032"><a xlink:title=" ">
<path fill="none" stroke="#63b8ff" d="M1012.08,-178.5C1000.11,-178.5 987.59,-178.5 975.69,-178.5"/>
<polygon fill="#63b8ff" stroke="#63b8ff" points="1012.44,-182 1022.44,-178.5 1012.44,-175 1012.44,-182"/>
</a>
</g>
</g>
<!-- Node33 -->
<g id="Node000033" class="node">
<title>Node33</title>
<g id="a_Node000033"><a xlink:href="../../d9/dfd/inv_8c.html#a098d9000e629aea1666d7eed5ce2576c" target="_top" xlink:title="近似逆元计算 (invappr)">
<polygon fill="white" stroke="#666666" points="643,-218 551,-218 551,-199 643,-199 643,-218"/>
<text text-anchor="middle" x="597" y="-206" font-family="Helvetica,sans-Serif" font-size="10.00">lmmp_invappr_</text>
</a>
</g>
</g>
<!-- Node32&#45;&gt;Node33 -->
<g id="edge39_Node000032_Node000033" class="edge">
<title>Node32&#45;&gt;Node33</title>
<g id="a_edge39_Node000032_Node000033"><a xlink:title=" ">
<path fill="none" stroke="#63b8ff" d="M843.44,-178.44C796.67,-179.21 733.9,-181.84 679,-189.5 663.55,-191.66 646.72,-195.37 632.42,-198.95"/>
<polygon fill="#63b8ff" stroke="#63b8ff" points="843.51,-181.93 853.46,-178.29 843.41,-174.94 843.51,-181.93"/>
</a>
</g>
</g>
<!-- Node32&#45;&gt;Node37 -->
<g id="edge45_Node000032_Node000037" class="edge">
<title>Node32&#45;&gt;Node37</title>
<g id="a_edge45_Node000032_Node000037"><a xlink:title=" ">
<path fill="none" stroke="#63b8ff" d="M850.2,-189.9C833.61,-192.89 815.9,-196.08 799.92,-198.96"/>
<polygon fill="#63b8ff" stroke="#63b8ff" points="851.14,-193.29 860.36,-188.07 849.9,-186.4 851.14,-193.29"/>
</a>
</g>
</g>
<!-- Node34 -->
<g id="Node000034" class="node">
<title>Node34</title>
<g id="a_Node000034"><a xlink:href="../../d9/dfd/inv_8c.html#ad9cb3f61b28ef836332304d207e26a6e" target="_top" xlink:title="大数求逆操作 [dst,na+nf+1] = (B^(2*(na+nf)) &#45; 1) / ([numa,na]*B^nf) + [0|&#45;1]">
<polygon fill="white" stroke="#666666" points="497,-218 426,-218 426,-199 497,-199 497,-218"/>
<text text-anchor="middle" x="461.5" y="-206" font-family="Helvetica,sans-Serif" font-size="10.00">lmmp_inv_</text>
</a>
</g>
</g>
<!-- Node33&#45;&gt;Node34 -->
<g id="edge40_Node000033_Node000034" class="edge">
<title>Node33&#45;&gt;Node34</title>
<g id="a_edge40_Node000033_Node000034"><a xlink:title=" ">
<path fill="none" stroke="#63b8ff" d="M540.73,-208.5C525.96,-208.5 510.41,-208.5 497.1,-208.5"/>
<polygon fill="#63b8ff" stroke="#63b8ff" points="540.8,-212 550.8,-208.5 540.8,-205 540.8,-212"/>
</a>
</g>
</g>
<!-- Node35 -->
<g id="Node000035" class="node">
<title>Node35</title>
<g id="a_Node000035"><a xlink:href="../../d8/d4f/div__mulinv_8c.html#a3f10aa3f16917894bbc7e987c3b990f6" target="_top" xlink:title="除法前的逆元预计算，[dst,ni] = invappr( (ni+1 MSLs of numa) + 1 ) / B">
<polygon fill="white" stroke="#666666" points="515,-255 408,-255 408,-236 515,-236 515,-255"/>
<text text-anchor="middle" x="461.5" y="-243" font-family="Helvetica,sans-Serif" font-size="10.00">lmmp_inv_prediv_</text>
</a>
</g>
</g>
<!-- Node33&#45;&gt;Node35 -->
<g id="edge41_Node000033_Node000035" class="edge">
<title>Node33&#45;&gt;Node35</title>
<g id="a_edge41_Node000033_Node000035"><a xlink:title=" ">
<path fill="none" stroke="#63b8ff" d="M551.53,-220.83C533.84,-225.73 513.81,-231.28 497.23,-235.88"/>
<polygon fill="#63b8ff" stroke="#63b8ff" points="552.92,-224.07 561.62,-218.03 551.05,-217.33 552.92,-224.07"/>
</a>
</g>
</g>
<!-- Node35&#45;&gt;Node23 -->
<g id="edge42_Node000035_Node000023" class="edge">
<title>Node35&#45;&gt;Node23</title>
<g id="a_edge42_Node000035_Node000023"><a xlink:title=" ">
<path fill="none" stroke="#63b8ff" d="M416.59,-231.72C413.59,-230.14 410.69,-228.41 408,-226.5 374.72,-202.87 347.95,-161.07 336.93,-142.21"/>
<polygon fill="#63b8ff" stroke="#63b8ff" points="415.29,-234.98 425.84,-235.98 418.22,-228.62 415.29,-234.98"/>
</a>
</g>
</g>
<!-- Node35&#45;&gt;Node30 -->
<g id="edge43_Node000035_Node000030" class="edge">
<title>Node35&#45;&gt;Node30</title>
<g id="a_edge43_Node000035_Node000030"><a xlink:title=" ">
<path fill="none" stroke="#63b8ff" d="M525.05,-243.3C644.18,-238.58 911.65,-225.48 1135,-196.5 1157.72,-193.55 1182.97,-189.39 1203.35,-185.81"/>
<polygon fill="#63b8ff" stroke="#63b8ff" points="524.88,-239.8 515.02,-243.69 525.15,-246.79 524.88,-239.8"/>
</a>
</g>
</g>
<!-- Node36 -->
<g id="Node000036" class="node">
<title>Node36</title>
<g id="a_Node000036"><a xlink:href="../../db/d22/to__str_8c.html#a6322ab8e9cf460abc363e7d6efd5ed78" target="_top" xlink:title="大数转字符串操作 [numa,na,B] to [dst,return value,base]">
<polygon fill="white" stroke="#666666" points="372,-306 289,-306 289,-287 372,-287 372,-306"/>
<text text-anchor="middle" x="330.5" y="-294" font-family="Helvetica,sans-Serif" font-size="10.00">lmmp_to_str_</text>
</a>
</g>
</g>
<!-- Node35&#45;&gt;Node36 -->
<g id="edge44_Node000035_Node000036" class="edge">
<title>Node35&#45;&gt;Node36</title>
<g id="a_edge44_Node000035_Node000036"><a xlink:title=" ">
<path fill="none" stroke="#63b8ff" d="M426.8,-258.82C404.47,-267.65 375.71,-279.02 355.66,-286.95"/>
<polygon fill="#63b8ff" stroke="#63b8ff" points="428.22,-262.02 436.24,-255.09 425.65,-255.51 428.22,-262.02"/>
</a>
</g>
</g>
<!-- Node37&#45;&gt;Node33 -->
<g id="edge46_Node000037_Node000033" class="edge">
<title>Node37&#45;&gt;Node33</title>
<g id="a_edge46_Node000037_Node000033"><a xlink:title=" ">
<path fill="none" stroke="#63b8ff" d="M668.62,-208.5C659.93,-208.5 651.3,-208.5 643.21,-208.5"/>
<polygon fill="#63b8ff" stroke="#63b8ff" points="668.81,-212 678.81,-208.5 668.81,-205 668.81,-212"/>
</a>
</g>
</g>
<!-- Node39 -->
<g id="Node000039" class="node">
<title>Node39</title>
<g id="a_Node000039"><a xlink:href="../../dd/de3/sqrt_8c.html#ad190ea42b780f8fa43a1f402935b24df" target="_top" xlink:title=" ">
<polygon fill="white" stroke="#666666" points="804,-66 688,-66 688,-47 804,-47 804,-66"/>
<text text-anchor="middle" x="746" y="-54" font-family="Helvetica,sans-Serif" font-size="10.00">lmmp_sqrt_newton_</text>
</a>
</g>
</g>
<!-- Node38&#45;&gt;Node39 -->
<g id="edge49_Node000038_Node000039" class="edge">
<title>Node38&#45;&gt;Node39</title>
<g id="a_edge49_Node000038_Node000039"><a xlink:title=" ">
<path fill="none" stroke="#63b8ff" d="M838.56,-56.5C826.98,-56.5 815.19,-56.5 804.09,-56.5"/>
<polygon fill="#63b8ff" stroke="#63b8ff" points="838.65,-60 848.65,-56.5 838.65,-53 838.65,-60"/>
</a>
</g>
</g>
<!-- Node40 -->
<g id="Node000040" class="node">
<title>Node40</title>
<g id="a_Node000040"><a xlink:href="../../dd/de3/sqrt_8c.html#ae0b4726620c46767b8fa9dd6a2b9ae28" target="_top" xlink:title="大数平方根和取余操作">
<polygon fill="white" stroke="#666666" points="634,-85 560,-85 560,-66 634,-66 634,-85"/>
<text text-anchor="middle" x="597" y="-73" font-family="Helvetica,sans-Serif" font-size="10.00">lmmp_sqrt_</text>
</a>
</g>
</g>
<!-- Node39&#45;&gt;Node40 -->
<g id="edge50_Node000039_Node000040" class="edge">
<title>Node39&#45;&gt;Node40</title>
<g id="a_edge50_Node000039_Node000040"><a xlink:title=" ">
<path fill="none" stroke="#63b8ff" d="M677.47,-65.23C662.51,-67.16 647.22,-69.14 634.1,-70.83"/>
<polygon fill="#63b8ff" stroke="#63b8ff" points="678.28,-68.65 687.75,-63.9 677.38,-61.71 678.28,-68.65"/>
</a>
</g>
</g>
<!-- Node41&#45;&gt;Node38 -->
<g id="edge52_Node000041_Node000038" class="edge">
<title>Node41&#45;&gt;Node38</title>
<g id="a_edge52_Node000041_Node000038"><a xlink:title=" ">
<path fill="none" stroke="#63b8ff" d="M1040.3,-110.11C1032.26,-106.79 1023.78,-103.14 1016,-99.5 999.61,-91.84 996.51,-87.89 980,-80.5 968.22,-75.23 954.9,-70.13 943.44,-66"/>
<polygon fill="#63b8ff" stroke="#63b8ff" points="1039.21,-113.45 1049.79,-113.98 1041.85,-106.97 1039.21,-113.45"/>
</a>
</g>
</g>
<!-- Node41&#45;&gt;Node40 -->
<g id="edge53_Node000041_Node000040" class="edge">
<title>Node41&#45;&gt;Node40</title>
<g id="a_edge53_Node000041_Node000040"><a xlink:title=" ">
<path fill="none" stroke="#63b8ff" d="M1010.18,-117.02C908.66,-106.79 714.56,-87.24 634.21,-79.15"/>
<polygon fill="#63b8ff" stroke="#63b8ff" points="1010,-120.52 1020.3,-118.04 1010.7,-113.56 1010,-120.52"/>
</a>
</g>
</g>
<!-- Node41&#45;&gt;Node41 -->
<g id="edge54_Node000041_Node000041" class="edge">
<title>Node41&#45;&gt;Node41</title>
<g id="a_edge54_Node000041_Node000041"><a xlink:title=" ">
<path fill="none" stroke="#63b8ff" d="M1105.37,-141.82C1104.12,-147.01 1094.16,-151 1075.5,-151 1047.06,-151 1038.84,-141.73 1050.84,-133.08"/>
<polygon fill="#63b8ff" stroke="#63b8ff" points="1108.29,-139.88 1100.16,-133.08 1102.27,-143.47 1108.29,-139.88"/>
</a>
</g>
</g>
<!-- Node42&#45;&gt;Node36 -->
<g id="edge56_Node000042_Node000036" class="edge">
<title>Node42&#45;&gt;Node36</title>
<g id="a_edge56_Node000042_Node000036"><a xlink:title=" ">
<path fill="none" stroke="#63b8ff" d="M1046.25,-268.43C990.48,-294.6 861.67,-348.5 747,-348.5 747,-348.5 747,-348.5 596,-348.5 508.95,-348.5 408.77,-321.05 360.49,-306.04"/>
<polygon fill="#63b8ff" stroke="#63b8ff" points="1047.96,-271.49 1055.49,-264.03 1044.95,-265.17 1047.96,-271.49"/>
</a>
</g>
</g>
<!-- Node42&#45;&gt;Node42 -->
<g id="edge57_Node000042_Node000042" class="edge">
<title>Node42&#45;&gt;Node42</title>
<g id="a_edge57_Node000042_Node000042"><a xlink:title=" ">
<path fill="none" stroke="#63b8ff" d="M1105.37,-272.82C1104.12,-278.01 1094.16,-282 1075.5,-282 1047.06,-282 1038.84,-272.73 1050.84,-264.08"/>
<polygon fill="#63b8ff" stroke="#63b8ff" points="1108.29,-270.88 1100.16,-264.08 1102.27,-274.47 1108.29,-270.88"/>
</a>
</g>
</g>
<!-- Node43&#45;&gt;Node18 -->
<g id="edge64_Node000043_Node000018" class="edge">
<title>Node43&#45;&gt;Node18</title>
<g id="a_edge64_Node000043_Node000018"><a xlink:title=" ">
<path fill="none" stroke="#63b8ff" d="M1549.32,-181.98C1536.06,-176.03 1522.52,-167.76 1513,-156.5 1476.21,-113.02 1515.42,-75.55 1477,-33.5 1471.24,-27.2 1463.62,-22.53 1455.73,-19.08"/>
<polygon fill="#63b8ff" stroke="#63b8ff" points="1548.28,-185.34 1558.86,-185.92 1550.95,-178.87 1548.28,-185.34"/>
</a>
</g>
</g>
</g>
</svg>
