<?xml version="1.0" encoding="UTF-8" standalone="no"?>
<!DOCTYPE svg PUBLIC "-//W3C//DTD SVG 1.1//EN"
 "http://www.w3.org/Graphics/SVG/1.1/DTD/svg11.dtd">
<!-- Generated by graphviz version 2.43.0 (0)
 -->
<!-- Title: lmmp_mul_fft_cache_ Pages: 1 -->
<svg width="1270pt" height="983pt"
 viewBox="0.00 0.00 1270.00 982.73" xmlns="http://www.w3.org/2000/svg" xmlns:xlink="http://www.w3.org/1999/xlink">
<g id="graph0" class="graph" transform="scale(1 1) rotate(0) translate(4 978.73)">
<title>lmmp_mul_fft_cache_</title>
<!-- Node1 -->
<g id="Node000001" class="node">
<title>Node1</title>
<g id="a_Node000001"><a xlink:title=" ">
<polygon fill="#999999" stroke="#666666" points="124,-170 0,-170 0,-151 124,-151 124,-170"/>
<text text-anchor="middle" x="62" y="-158" font-family="Helvetica,sans-Serif" font-size="10.00">lmmp_mul_fft_cache_</text>
</a>
</g>
</g>
<!-- Node2 -->
<g id="Node000002" class="node">
<title>Node2</title>
<g id="a_Node000002"><a xlink:href="../../d6/d39/lmmpn_8h.html#a1eb04fffd70d523647b7b4ed64a438c5" target="_top" xlink:title="大数加法静态内联函数 [dst,na]=[numa,na]+[numb,nb]">
<polygon fill="white" stroke="#666666" points="848.5,-940 774.5,-940 774.5,-921 848.5,-921 848.5,-940"/>
<text text-anchor="middle" x="811.5" y="-928" font-family="Helvetica,sans-Serif" font-size="10.00">lmmp_add_</text>
</a>
</g>
</g>
<!-- Node1&#45;&gt;Node2 -->
<g id="edge1_Node000001_Node000002" class="edge">
<title>Node1&#45;&gt;Node2</title>
<g id="a_edge1_Node000001_Node000002"><a xlink:title=" ">
<path fill="none" stroke="#63b8ff" d="M63.7,-170.09C67.43,-216.98 87.6,-425.92 160,-577.5 221.96,-707.22 241.71,-749.38 359,-832.5 484.93,-921.74 676.65,-932.19 764.1,-931.88"/>
<polygon fill="#63b8ff" stroke="#63b8ff" points="764.26,-935.38 774.23,-931.79 764.2,-928.38 764.26,-935.38"/>
</a>
</g>
</g>
<!-- Node4 -->
<g id="Node000004" class="node">
<title>Node4</title>
<g id="a_Node000004"><a xlink:href="../../df/dd5/memory_8c.html#a9addf0b27643f70bce967ca4ef842ae9" target="_top" xlink:title="内存释放函数（调用lmmp_heap_free_fn）">
<polygon fill="white" stroke="#666666" points="846.5,-143 776.5,-143 776.5,-124 846.5,-124 846.5,-143"/>
<text text-anchor="middle" x="811.5" y="-131" font-family="Helvetica,sans-Serif" font-size="10.00">lmmp_free</text>
</a>
</g>
</g>
<!-- Node1&#45;&gt;Node4 -->
<g id="edge3_Node000001_Node000004" class="edge">
<title>Node1&#45;&gt;Node4</title>
<g id="a_edge3_Node000001_Node000004"><a xlink:title=" ">
<path fill="none" stroke="#63b8ff" d="M124.17,-158.29C270.51,-153 638.12,-139.73 765.9,-135.11"/>
<polygon fill="#63b8ff" stroke="#63b8ff" points="766.23,-138.6 776.09,-134.74 765.97,-131.61 766.23,-138.6"/>
</a>
</g>
</g>
<!-- Node5 -->
<g id="Node000005" class="node">
<title>Node5</title>
<g id="a_Node000005"><a xlink:href="../../db/dfa/mul__fft_8c.html#af9111c4032eab2e5aa340b511349b60d" target="_top" xlink:title=" ">
<polygon fill="white" stroke="#666666" points="315,-379 168,-379 168,-360 315,-360 315,-379"/>
<text text-anchor="middle" x="241.5" y="-367" font-family="Helvetica,sans-Serif" font-size="10.00">lmmp_mul_fermat_single_</text>
</a>
</g>
</g>
<!-- Node1&#45;&gt;Node5 -->
<g id="edge4_Node000001_Node000005" class="edge">
<title>Node1&#45;&gt;Node5</title>
<g id="a_edge4_Node000001_Node000005"><a xlink:title=" ">
<path fill="none" stroke="#63b8ff" d="M71.09,-170.02C98.75,-202.6 189.86,-309.88 225.77,-352.15"/>
<polygon fill="#63b8ff" stroke="#63b8ff" points="223.22,-354.56 232.36,-359.92 228.56,-350.03 223.22,-354.56"/>
</a>
</g>
</g>
<!-- Node11 -->
<g id="Node000011" class="node">
<title>Node11</title>
<g id="a_Node000011"><a xlink:href="../../d3/d44/sub__n_8c.html#af53a20c46d5cd5ee5f6a599b04aec190" target="_top" xlink:title="带借位的n位减法 [dst,n] = [numa,n] &#45; [numb,n] &#45; c">
<polygon fill="white" stroke="#666666" points="1154.5,-876 1065.5,-876 1065.5,-857 1154.5,-857 1154.5,-876"/>
<text text-anchor="middle" x="1110" y="-864" font-family="Helvetica,sans-Serif" font-size="10.00">lmmp_sub_nc_</text>
</a>
</g>
</g>
<!-- Node1&#45;&gt;Node11 -->
<g id="edge72_Node000001_Node000011" class="edge">
<title>Node1&#45;&gt;Node11</title>
<g id="a_edge72_Node000001_Node000011"><a xlink:title=" ">
<path fill="none" stroke="#63b8ff" d="M62.83,-170.14C61.73,-261.3 65.14,-968.5 435,-968.5 435,-968.5 435,-968.5 812.5,-968.5 909.09,-968.5 941.84,-991.14 1029,-949.5 1059.09,-935.13 1083.9,-904.3 1097.56,-884.53"/>
<polygon fill="#63b8ff" stroke="#63b8ff" points="1100.55,-886.34 1103.18,-876.08 1094.73,-882.47 1100.55,-886.34"/>
</a>
</g>
</g>
<!-- Node33 -->
<g id="Node000033" class="node">
<title>Node33</title>
<g id="a_Node000033"><a xlink:href="../../d6/d39/lmmpn_8h.html#ab6382940233ad6954ef892141066bc8a" target="_top" xlink:title="大数减法静态内联函数 [dst,na]=[numa,na]&#45;[numb,nb]">
<polygon fill="white" stroke="#666666" points="848,-180 775,-180 775,-161 848,-161 848,-180"/>
<text text-anchor="middle" x="811.5" y="-168" font-family="Helvetica,sans-Serif" font-size="10.00">lmmp_sub_</text>
</a>
</g>
</g>
<!-- Node1&#45;&gt;Node33 -->
<g id="edge69_Node000001_Node000033" class="edge">
<title>Node1&#45;&gt;Node33</title>
<g id="a_edge69_Node000001_Node000033"><a xlink:title=" ">
<path fill="none" stroke="#63b8ff" d="M124.17,-161.32C270,-163.27 635.56,-168.16 764.56,-169.89"/>
<polygon fill="#63b8ff" stroke="#63b8ff" points="764.82,-173.39 774.86,-170.02 764.91,-166.39 764.82,-173.39"/>
</a>
</g>
</g>
<!-- Node34 -->
<g id="Node000034" class="node">
<title>Node34</title>
<g id="a_Node000034"><a xlink:href="../../d3/d44/sub__n_8c.html#ae0e05032a43c35021a6d6859ed51f467" target="_top" xlink:title="无借位的n位减法 [dst,n] = [numa,n] &#45; [numb,n]">
<polygon fill="white" stroke="#666666" points="1008.5,-180 924.5,-180 924.5,-161 1008.5,-161 1008.5,-180"/>
<text text-anchor="middle" x="966.5" y="-168" font-family="Helvetica,sans-Serif" font-size="10.00">lmmp_sub_n_</text>
</a>
</g>
</g>
<!-- Node1&#45;&gt;Node34 -->
<g id="edge71_Node000001_Node000034" class="edge">
<title>Node1&#45;&gt;Node34</title>
<g id="a_edge71_Node000001_Node000034"><a xlink:title=" ">
<path fill="none" stroke="#63b8ff" d="M90.6,-150.87C151.8,-130.42 303.82,-84.5 435,-84.5 435,-84.5 435,-84.5 635,-84.5 739.41,-84.5 769.05,-81.19 868,-114.5 896.27,-124.02 925.53,-142.12 944.52,-155.18"/>
<polygon fill="#63b8ff" stroke="#63b8ff" points="942.54,-158.06 952.73,-160.94 946.56,-152.33 942.54,-158.06"/>
</a>
</g>
</g>
<!-- Node37 -->
<g id="Node000037" class="node">
<title>Node37</title>
<g id="a_Node000037"><a xlink:href="../../db/dfa/mul__fft_8c.html#a35cbe6dac3c1543478936ed30a798a89" target="_top" xlink:title=" ">
<polygon fill="white" stroke="#666666" points="323,-568 160,-568 160,-549 323,-549 323,-568"/>
<text text-anchor="middle" x="241.5" y="-556" font-family="Helvetica,sans-Serif" font-size="10.00">lmmp_mul_mersenne_single_</text>
</a>
</g>
</g>
<!-- Node1&#45;&gt;Node37 -->
<g id="edge57_Node000001_Node000037" class="edge">
<title>Node1&#45;&gt;Node37</title>
<g id="a_edge57_Node000001_Node000037"><a xlink:title=" ">
<path fill="none" stroke="#63b8ff" d="M66.94,-170.07C79.89,-201.42 122.44,-303.83 160,-387.5 184.99,-443.17 216.16,-508.2 231.34,-539.61"/>
<polygon fill="#63b8ff" stroke="#63b8ff" points="228.33,-541.44 235.84,-548.91 234.63,-538.39 228.33,-541.44"/>
</a>
</g>
</g>
<!-- Node38 -->
<g id="Node000038" class="node">
<title>Node38</title>
<g id="a_Node000038"><a xlink:href="../../de/d50/shr_8c.html#a2322ea1d0b941fd22fd38abb254d01af" target="_top" xlink:title="带进位加法后右移1位 [dst,n] = ([numa,n] + [numb,n] + c) &gt;&gt; 1">
<polygon fill="white" stroke="#666666" points="297,-56 186,-56 186,-37 297,-37 297,-56"/>
<text text-anchor="middle" x="241.5" y="-44" font-family="Helvetica,sans-Serif" font-size="10.00">lmmp_shr1add_nc_</text>
</a>
</g>
</g>
<!-- Node1&#45;&gt;Node38 -->
<g id="edge68_Node000001_Node000038" class="edge">
<title>Node1&#45;&gt;Node38</title>
<g id="a_edge68_Node000001_Node000038"><a xlink:title=" ">
<path fill="none" stroke="#63b8ff" d="M70.74,-150.83C85.92,-132.48 121.5,-92.49 160,-70.5 167.91,-65.99 176.74,-62.25 185.58,-59.17"/>
<polygon fill="#63b8ff" stroke="#63b8ff" points="186.7,-62.49 195.14,-56.09 184.55,-55.83 186.7,-62.49"/>
</a>
</g>
</g>
<!-- Node39 -->
<g id="Node000039" class="node">
<title>Node39</title>
<g id="a_Node000039"><a xlink:href="../../d6/d39/lmmpn_8h.html#adb916bdc219e06dbf8f8f0cdf00d89aa" target="_top" xlink:title="大数减单精度数静态内联函数 [dst,na]=[numa,na]&#45;x">
<polygon fill="white" stroke="#666666" points="283.5,-19 199.5,-19 199.5,0 283.5,0 283.5,-19"/>
<text text-anchor="middle" x="241.5" y="-7" font-family="Helvetica,sans-Serif" font-size="10.00">lmmp_sub_1_</text>
</a>
</g>
</g>
<!-- Node1&#45;&gt;Node39 -->
<g id="edge70_Node000001_Node000039" class="edge">
<title>Node1&#45;&gt;Node39</title>
<g id="a_edge70_Node000001_Node000039"><a xlink:title=" ">
<path fill="none" stroke="#63b8ff" d="M67.02,-150.96C77.96,-126.23 110.77,-59.78 160,-27.5 168.8,-21.73 179.19,-17.79 189.52,-15.1"/>
<polygon fill="#63b8ff" stroke="#63b8ff" points="190.37,-18.5 199.36,-12.89 188.83,-11.67 190.37,-18.5"/>
</a>
</g>
</g>
<!-- Node3 -->
<g id="Node000003" class="node">
<title>Node3</title>
<g id="a_Node000003"><a xlink:href="../../da/dc7/add__n_8c.html#afa05758121cca6aa6b21256d5a959871" target="_top" xlink:title="无进位的n位加法 [dst,n] = [numa,n] + [numb,n]">
<polygon fill="white" stroke="#666666" points="1009,-940 924,-940 924,-921 1009,-921 1009,-940"/>
<text text-anchor="middle" x="966.5" y="-928" font-family="Helvetica,sans-Serif" font-size="10.00">lmmp_add_n_</text>
</a>
</g>
</g>
<!-- Node2&#45;&gt;Node3 -->
<g id="edge2_Node000002_Node000003" class="edge">
<title>Node2&#45;&gt;Node3</title>
<g id="a_edge2_Node000002_Node000003"><a xlink:title=" ">
<path fill="none" stroke="#63b8ff" d="M848.76,-930.5C868.12,-930.5 892.3,-930.5 913.62,-930.5"/>
<polygon fill="#63b8ff" stroke="#63b8ff" points="913.82,-934 923.82,-930.5 913.82,-927 913.82,-934"/>
</a>
</g>
</g>
<!-- Node6 -->
<g id="Node000006" class="node">
<title>Node6</title>
<g id="a_Node000006"><a xlink:href="../../db/dfa/mul__fft_8c.html#a48408af2d6418df0a0dddb77f1a689f7" target="_top" xlink:title=" ">
<polygon fill="white" stroke="#666666" points="667,-830 601,-830 601,-811 667,-811 667,-830"/>
<text text-anchor="middle" x="634" y="-818" font-family="Helvetica,sans-Serif" font-size="10.00">lmmp_fft_</text>
</a>
</g>
</g>
<!-- Node5&#45;&gt;Node6 -->
<g id="edge5_Node000005_Node000006" class="edge">
<title>Node5&#45;&gt;Node6</title>
<g id="a_edge5_Node000005_Node000006"><a xlink:title=" ">
<path fill="none" stroke="#63b8ff" d="M247.34,-379.01C260.34,-404.71 296.8,-477.83 323,-540.5 340.9,-583.31 330.25,-602.08 359,-638.5 394.77,-683.81 544.95,-771.07 606.51,-805.76"/>
<polygon fill="#63b8ff" stroke="#63b8ff" points="605.16,-809.02 615.6,-810.86 608.59,-802.91 605.16,-809.02"/>
</a>
</g>
</g>
<!-- Node13 -->
<g id="Node000013" class="node">
<title>Node13</title>
<g id="a_Node000013"><a xlink:href="../../db/dfa/mul__fft_8c.html#ab61c9a502be62250e0470f0464a544a2" target="_top" xlink:title="查找对于 m&gt;=n 的模 B^m+1 FFT运算的最优k值">
<polygon fill="white" stroke="#666666" points="686,-454 582,-454 582,-435 686,-435 686,-454"/>
<text text-anchor="middle" x="634" y="-442" font-family="Helvetica,sans-Serif" font-size="10.00">lmmp_fft_best_k_</text>
</a>
</g>
</g>
<!-- Node5&#45;&gt;Node13 -->
<g id="edge15_Node000005_Node000013" class="edge">
<title>Node5&#45;&gt;Node13</title>
<g id="a_edge15_Node000005_Node000013"><a xlink:title=" ">
<path fill="none" stroke="#63b8ff" d="M292.35,-379.07C364.18,-392.87 496.56,-418.3 573.43,-433.06"/>
<polygon fill="#63b8ff" stroke="#63b8ff" points="572.96,-436.53 583.44,-434.98 574.28,-429.66 572.96,-436.53"/>
</a>
</g>
</g>
<!-- Node14 -->
<g id="Node000014" class="node">
<title>Node14</title>
<g id="a_Node000014"><a xlink:href="../../db/dfa/mul__fft_8c.html#ab86dddce92e755f642487e90ed84acd0" target="_top" xlink:title="[dst,lenw+1] = [(bit*)numa+bitoffset, bits]">
<polygon fill="white" stroke="#666666" points="700,-398 568,-398 568,-379 700,-379 700,-398"/>
<text text-anchor="middle" x="634" y="-386" font-family="Helvetica,sans-Serif" font-size="10.00">lmmp_fft_extract_coef_</text>
</a>
</g>
</g>
<!-- Node5&#45;&gt;Node14 -->
<g id="edge16_Node000005_Node000014" class="edge">
<title>Node5&#45;&gt;Node14</title>
<g id="a_edge16_Node000005_Node000014"><a xlink:title=" ">
<path fill="none" stroke="#63b8ff" d="M315.2,-368.92C369.7,-368.96 446.1,-369.99 513,-374.5 527.45,-375.47 542.84,-376.94 557.61,-378.57"/>
<polygon fill="#63b8ff" stroke="#63b8ff" points="557.38,-382.06 567.71,-379.71 558.17,-375.11 557.38,-382.06"/>
</a>
</g>
</g>
<!-- Node16 -->
<g id="Node000016" class="node">
<title>Node16</title>
<g id="a_Node000016"><a xlink:href="../../db/dfa/mul__fft_8c.html#a5ce52e4a7c8996c34d424460c197b393" target="_top" xlink:title="FFT内存栈的分配/释放接口">
<polygon fill="white" stroke="#666666" points="695.5,-227 572.5,-227 572.5,-208 695.5,-208 695.5,-227"/>
<text text-anchor="middle" x="634" y="-215" font-family="Helvetica,sans-Serif" font-size="10.00">lmmp_fft_memstack_</text>
</a>
</g>
</g>
<!-- Node5&#45;&gt;Node16 -->
<g id="edge18_Node000005_Node000016" class="edge">
<title>Node5&#45;&gt;Node16</title>
<g id="a_edge18_Node000005_Node000016"><a xlink:title=" ">
<path fill="none" stroke="#63b8ff" d="M246.2,-359.94C257.74,-331.67 296.09,-248.55 359,-217.5 432.29,-181.33 530.62,-193.71 587.37,-205.76"/>
<polygon fill="#63b8ff" stroke="#63b8ff" points="586.94,-209.26 597.46,-208 588.46,-202.42 586.94,-209.26"/>
</a>
</g>
</g>
<!-- Node21 -->
<g id="Node000021" class="node">
<title>Node21</title>
<g id="a_Node000021"><a xlink:href="../../db/dfa/mul__fft_8c.html#a6157b12f018658620a268327ec505083" target="_top" xlink:title="对模 2^n+1 的系数执行左移操作">
<polygon fill="white" stroke="#666666" points="1022.5,-549 910.5,-549 910.5,-530 1022.5,-530 1022.5,-549"/>
<text text-anchor="middle" x="966.5" y="-537" font-family="Helvetica,sans-Serif" font-size="10.00">lmmp_fft_shl_coef_</text>
</a>
</g>
</g>
<!-- Node5&#45;&gt;Node21 -->
<g id="edge24_Node000005_Node000021" class="edge">
<title>Node5&#45;&gt;Node21</title>
<g id="a_edge24_Node000005_Node000021"><a xlink:title=" ">
<path fill="none" stroke="#63b8ff" d="M271.63,-359.9C365.85,-330.72 667.8,-252.02 868,-369.5 924.64,-402.74 951.3,-482.51 960.99,-519.74"/>
<polygon fill="#63b8ff" stroke="#63b8ff" points="957.68,-520.95 963.46,-529.83 964.48,-519.28 957.68,-520.95"/>
</a>
</g>
</g>
<!-- Node25 -->
<g id="Node000025" class="node">
<title>Node25</title>
<g id="a_Node000025"><a xlink:href="../../db/dfa/mul__fft_8c.html#ab6e97b1ed8faf0ee601396f22ede83c7" target="_top" xlink:title=" ">
<polygon fill="white" stroke="#666666" points="668.5,-720 599.5,-720 599.5,-701 668.5,-701 668.5,-720"/>
<text text-anchor="middle" x="634" y="-708" font-family="Helvetica,sans-Serif" font-size="10.00">lmmp_ifft_</text>
</a>
</g>
</g>
<!-- Node5&#45;&gt;Node25 -->
<g id="edge28_Node000005_Node000025" class="edge">
<title>Node5&#45;&gt;Node25</title>
<g id="a_edge28_Node000005_Node000025"><a xlink:title=" ">
<path fill="none" stroke="#63b8ff" d="M245.51,-379.15C256.01,-411.47 293.99,-517.25 359,-578.5 426.76,-642.33 531.14,-680.85 589.57,-698.65"/>
<polygon fill="#63b8ff" stroke="#63b8ff" points="588.65,-702.02 599.23,-701.53 590.65,-695.32 588.65,-702.02"/>
</a>
</g>
</g>
<!-- Node30 -->
<g id="Node000030" class="node">
<title>Node30</title>
<g id="a_Node000030"><a xlink:href="../../db/dfa/mul__fft_8c.html#a784cb29d6f67382fb1100584e5db6698" target="_top" xlink:title="费马变换 模 B^n+1 乘法的结果合并">
<polygon fill="white" stroke="#666666" points="719,-606 549,-606 549,-587 719,-587 719,-606"/>
<text text-anchor="middle" x="634" y="-594" font-family="Helvetica,sans-Serif" font-size="10.00">lmmp_mul_fermat_recombine_</text>
</a>
</g>
</g>
<!-- Node5&#45;&gt;Node30 -->
<g id="edge38_Node000005_Node000030" class="edge">
<title>Node5&#45;&gt;Node30</title>
<g id="a_edge38_Node000005_Node000030"><a xlink:title=" ">
<path fill="none" stroke="#63b8ff" d="M246.05,-379.11C257.4,-408.46 295.87,-497.45 359,-539.5 412.03,-574.82 482.62,-588.91 538.87,-594.25"/>
<polygon fill="#63b8ff" stroke="#63b8ff" points="538.57,-597.74 548.84,-595.12 539.18,-590.77 538.57,-597.74"/>
</a>
</g>
</g>
<!-- Node35 -->
<g id="Node000035" class="node">
<title>Node35</title>
<g id="a_Node000035"><a xlink:href="../../db/dfa/mul__fft_8c.html#a3142a363cdd553a9a69ba6318c1b6726" target="_top" xlink:title="费马变换乘法递归函数（核心乘法逻辑）">
<polygon fill="white" stroke="#666666" points="513,-512 359,-512 359,-493 513,-493 513,-512"/>
<text text-anchor="middle" x="436" y="-500" font-family="Helvetica,sans-Serif" font-size="10.00">lmmp_mul_fermat_recurse_</text>
</a>
</g>
</g>
<!-- Node5&#45;&gt;Node35 -->
<g id="edge46_Node000005_Node000035" class="edge">
<title>Node5&#45;&gt;Node35</title>
<g id="a_edge46_Node000005_Node000035"><a xlink:title=" ">
<path fill="none" stroke="#63b8ff" d="M256.34,-379.07C289.28,-401.82 372.56,-459.36 412.7,-487.09"/>
<polygon fill="#63b8ff" stroke="#63b8ff" points="410.81,-490.04 421.02,-492.84 414.78,-484.28 410.81,-490.04"/>
</a>
</g>
</g>
<!-- Node36 -->
<g id="Node000036" class="node">
<title>Node36</title>
<g id="a_Node000036"><a xlink:href="../../d6/d39/lmmpn_8h.html#afa8f36d4b874f3c5482caaf4c63ef6d5" target="_top" xlink:title="大数判零函数（内联）">
<polygon fill="white" stroke="#666666" points="480,-246 392,-246 392,-227 480,-227 480,-246"/>
<text text-anchor="middle" x="436" y="-234" font-family="Helvetica,sans-Serif" font-size="10.00">lmmp_zero_q_</text>
</a>
</g>
</g>
<!-- Node5&#45;&gt;Node36 -->
<g id="edge56_Node000005_Node000036" class="edge">
<title>Node5&#45;&gt;Node36</title>
<g id="a_edge56_Node000005_Node000036"><a xlink:title=" ">
<path fill="none" stroke="#63b8ff" d="M250.18,-359.83C267.41,-338.75 311.42,-288.32 359,-260.5 366.64,-256.04 375.2,-252.3 383.75,-249.22"/>
<polygon fill="#63b8ff" stroke="#63b8ff" points="384.98,-252.5 393.35,-246 382.75,-245.86 384.98,-252.5"/>
</a>
</g>
</g>
<!-- Node7 -->
<g id="Node000007" class="node">
<title>Node7</title>
<g id="a_Node000007"><a xlink:href="../../db/dfa/mul__fft_8c.html#aebf81a382d8bbc6a4455c2a24231cdae" target="_top" xlink:title=" ">
<polygon fill="white" stroke="#666666" points="850,-885 773,-885 773,-866 850,-866 850,-885"/>
<text text-anchor="middle" x="811.5" y="-873" font-family="Helvetica,sans-Serif" font-size="10.00">lmmp_fft_4_</text>
</a>
</g>
</g>
<!-- Node6&#45;&gt;Node7 -->
<g id="edge6_Node000006_Node000007" class="edge">
<title>Node6&#45;&gt;Node7</title>
<g id="a_edge6_Node000006_Node000007"><a xlink:title=" ">
<path fill="none" stroke="#63b8ff" d="M665.57,-830.08C694.55,-839.16 738.26,-852.86 770.1,-862.84"/>
<polygon fill="#63b8ff" stroke="#63b8ff" points="769.4,-866.29 779.99,-865.94 771.49,-859.61 769.4,-866.29"/>
</a>
</g>
</g>
<!-- Node12 -->
<g id="Node000012" class="node">
<title>Node12</title>
<g id="a_Node000012"><a xlink:href="../../db/dfa/mul__fft_8c.html#ae87deedb27e07c640e7bc408a0c954bf" target="_top" xlink:title="FFT递归函数">
<polygon fill="white" stroke="#666666" points="853,-830 770,-830 770,-811 853,-811 853,-830"/>
<text text-anchor="middle" x="811.5" y="-818" font-family="Helvetica,sans-Serif" font-size="10.00">lmmp_fft_b1_</text>
</a>
</g>
</g>
<!-- Node6&#45;&gt;Node12 -->
<g id="edge12_Node000006_Node000012" class="edge">
<title>Node6&#45;&gt;Node12</title>
<g id="a_edge12_Node000006_Node000012"><a xlink:title=" ">
<path fill="none" stroke="#63b8ff" d="M667.19,-820.5C693.04,-820.5 729.81,-820.5 759.63,-820.5"/>
<polygon fill="#63b8ff" stroke="#63b8ff" points="759.86,-824 769.86,-820.5 759.86,-817 759.86,-824"/>
</a>
</g>
</g>
<!-- Node7&#45;&gt;Node7 -->
<g id="edge7_Node000007_Node000007" class="edge">
<title>Node7&#45;&gt;Node7</title>
<g id="a_edge7_Node000007_Node000007"><a xlink:title=" ">
<path fill="none" stroke="#63b8ff" d="M787.76,-885.08C776.22,-893.73 784.13,-903 811.5,-903 829.46,-903 839.04,-899.01 840.25,-893.82"/>
<polygon fill="#63b8ff" stroke="#63b8ff" points="843.25,-892.02 835.24,-885.08 837.17,-895.5 843.25,-892.02"/>
</a>
</g>
</g>
<!-- Node8 -->
<g id="Node000008" class="node">
<title>Node8</title>
<g id="a_Node000008"><a xlink:href="../../db/dfa/mul__fft_8c.html#aa7779e95f5780bfdd9a590bf3ec78d4b" target="_top" xlink:title="FFT蝶形运算（Butterfly Operation） (a,b) = (a + b, (a&#45;b) &lt;&lt; w ) mod 2^n+1 a=[coef[0],ms&#45;&gt;lenw+1],...">
<polygon fill="white" stroke="#666666" points="1009.5,-839 923.5,-839 923.5,-820 1009.5,-820 1009.5,-839"/>
<text text-anchor="middle" x="966.5" y="-827" font-family="Helvetica,sans-Serif" font-size="10.00">lmmp_fft_bfy_</text>
</a>
</g>
</g>
<!-- Node7&#45;&gt;Node8 -->
<g id="edge8_Node000007_Node000008" class="edge">
<title>Node7&#45;&gt;Node8</title>
<g id="a_edge8_Node000007_Node000008"><a xlink:title=" ">
<path fill="none" stroke="#63b8ff" d="M844.2,-865.97C867.38,-859 899.04,-849.48 924.2,-841.92"/>
<polygon fill="#63b8ff" stroke="#63b8ff" points="925.27,-845.25 933.84,-839.02 923.25,-838.55 925.27,-845.25"/>
</a>
</g>
</g>
<!-- Node9 -->
<g id="Node000009" class="node">
<title>Node9</title>
<g id="a_Node000009"><a xlink:href="../../da/dc7/add__n_8c.html#aa06f92c7f9a675b88556524c8e09ecbd" target="_top" xlink:title="带进位的n位加法 [dst,n] = [numa,n] + [numb,n] + c">
<polygon fill="white" stroke="#666666" points="1155,-802 1065,-802 1065,-783 1155,-783 1155,-802"/>
<text text-anchor="middle" x="1110" y="-790" font-family="Helvetica,sans-Serif" font-size="10.00">lmmp_add_nc_</text>
</a>
</g>
</g>
<!-- Node8&#45;&gt;Node9 -->
<g id="edge9_Node000008_Node000009" class="edge">
<title>Node8&#45;&gt;Node9</title>
<g id="a_edge9_Node000008_Node000009"><a xlink:title=" ">
<path fill="none" stroke="#63b8ff" d="M1003.94,-819.97C1021.71,-815.33 1043.29,-809.68 1062.26,-804.72"/>
<polygon fill="#63b8ff" stroke="#63b8ff" points="1063.4,-808.04 1072.19,-802.12 1061.63,-801.27 1063.4,-808.04"/>
</a>
</g>
</g>
<!-- Node10 -->
<g id="Node000010" class="node">
<title>Node10</title>
<g id="a_Node000010"><a xlink:href="../../d1/d49/shl_8c.html#a38dbc610a5ef592b21e4f79bbf29181d" target="_top" xlink:title="带进位的大数左移操作 [dst,na] = [numa,na]&lt;&lt;shl，dst的低shl位填充c的低shl位">
<polygon fill="white" stroke="#666666" points="1150,-839 1070,-839 1070,-820 1150,-820 1150,-839"/>
<text text-anchor="middle" x="1110" y="-827" font-family="Helvetica,sans-Serif" font-size="10.00">lmmp_shl_c_</text>
</a>
</g>
</g>
<!-- Node8&#45;&gt;Node10 -->
<g id="edge10_Node000008_Node000010" class="edge">
<title>Node8&#45;&gt;Node10</title>
<g id="a_edge10_Node000008_Node000010"><a xlink:title=" ">
<path fill="none" stroke="#63b8ff" d="M1009.57,-829.5C1025.21,-829.5 1043.1,-829.5 1059.35,-829.5"/>
<polygon fill="#63b8ff" stroke="#63b8ff" points="1059.75,-833 1069.75,-829.5 1059.75,-826 1059.75,-833"/>
</a>
</g>
</g>
<!-- Node8&#45;&gt;Node11 -->
<g id="edge11_Node000008_Node000011" class="edge">
<title>Node8&#45;&gt;Node11</title>
<g id="a_edge11_Node000008_Node000011"><a xlink:title=" ">
<path fill="none" stroke="#63b8ff" d="M1003.94,-839.03C1021.71,-843.67 1043.29,-849.32 1062.26,-854.28"/>
<polygon fill="#63b8ff" stroke="#63b8ff" points="1061.63,-857.73 1072.19,-856.88 1063.4,-850.96 1061.63,-857.73"/>
</a>
</g>
</g>
<!-- Node12&#45;&gt;Node8 -->
<g id="edge14_Node000012_Node000008" class="edge">
<title>Node12&#45;&gt;Node8</title>
<g id="a_edge14_Node000012_Node000008"><a xlink:title=" ">
<path fill="none" stroke="#63b8ff" d="M853.1,-822.89C871.57,-823.97 893.65,-825.27 913.33,-826.43"/>
<polygon fill="#63b8ff" stroke="#63b8ff" points="913.19,-829.93 923.37,-827.02 913.6,-822.94 913.19,-829.93"/>
</a>
</g>
</g>
<!-- Node12&#45;&gt;Node12 -->
<g id="edge13_Node000012_Node000012" class="edge">
<title>Node12&#45;&gt;Node12</title>
<g id="a_edge13_Node000012_Node000012"><a xlink:title=" ">
<path fill="none" stroke="#63b8ff" d="M787.76,-830.08C776.22,-838.73 784.13,-848 811.5,-848 829.46,-848 839.04,-844.01 840.25,-838.82"/>
<polygon fill="#63b8ff" stroke="#63b8ff" points="843.25,-837.02 835.24,-830.08 837.17,-840.5 843.25,-837.02"/>
</a>
</g>
</g>
<!-- Node15 -->
<g id="Node000015" class="node">
<title>Node15</title>
<g id="a_Node000015"><a xlink:href="../../de/d50/shr_8c.html#a5a6e9b6e715cedac419406deab5b44bb" target="_top" xlink:title="大数右移操作 [dst,na] = [numa,na]&gt;&gt;shr，dst的高shr位填充0">
<polygon fill="white" stroke="#666666" points="847,-398 776,-398 776,-379 847,-379 847,-398"/>
<text text-anchor="middle" x="811.5" y="-386" font-family="Helvetica,sans-Serif" font-size="10.00">lmmp_shr_</text>
</a>
</g>
</g>
<!-- Node14&#45;&gt;Node15 -->
<g id="edge17_Node000014_Node000015" class="edge">
<title>Node14&#45;&gt;Node15</title>
<g id="a_edge17_Node000014_Node000015"><a xlink:title=" ">
<path fill="none" stroke="#63b8ff" d="M700.35,-388.5C721.99,-388.5 745.59,-388.5 765.36,-388.5"/>
<polygon fill="#63b8ff" stroke="#63b8ff" points="765.62,-392 775.62,-388.5 765.62,-385 765.62,-392"/>
</a>
</g>
</g>
<!-- Node16&#45;&gt;Node4 -->
<g id="edge23_Node000016_Node000004" class="edge">
<title>Node16&#45;&gt;Node4</title>
<g id="a_edge23_Node000016_Node000004"><a xlink:title=" ">
<path fill="none" stroke="#63b8ff" d="M650.06,-208C672.35,-194.22 715.72,-168.49 755,-151.5 759.14,-149.71 763.52,-148 767.92,-146.39"/>
<polygon fill="#63b8ff" stroke="#63b8ff" points="769.24,-149.64 777.54,-143.05 766.95,-143.03 769.24,-149.64"/>
</a>
</g>
</g>
<!-- Node17 -->
<g id="Node000017" class="node">
<title>Node17</title>
<g id="a_Node000017"><a xlink:href="../../df/dd5/memory_8c.html#a70ee66fd54cf1444186464c5dc05caf3" target="_top" xlink:title="内存分配函数（调用lmmp_heap_alloc_fn）">
<polygon fill="white" stroke="#666666" points="848.5,-227 774.5,-227 774.5,-208 848.5,-208 848.5,-227"/>
<text text-anchor="middle" x="811.5" y="-215" font-family="Helvetica,sans-Serif" font-size="10.00">lmmp_alloc</text>
</a>
</g>
</g>
<!-- Node16&#45;&gt;Node17 -->
<g id="edge19_Node000016_Node000017" class="edge">
<title>Node16&#45;&gt;Node17</title>
<g id="a_edge19_Node000016_Node000017"><a xlink:title=" ">
<path fill="none" stroke="#63b8ff" d="M695.89,-217.5C718.25,-217.5 743.18,-217.5 764.07,-217.5"/>
<polygon fill="#63b8ff" stroke="#63b8ff" points="764.28,-221 774.28,-217.5 764.28,-214 764.28,-221"/>
</a>
</g>
</g>
<!-- Node18 -->
<g id="Node000018" class="node">
<title>Node18</title>
<g id="a_Node000018"><a xlink:href="../../df/dd5/memory_8c.html#af02754e1eb2ea2812eb3a7b35f05e640" target="_top" xlink:title=" ">
<polygon fill="white" stroke="#666666" points="1029,-227 904,-227 904,-208 1029,-208 1029,-227"/>
<text text-anchor="middle" x="966.5" y="-215" font-family="Helvetica,sans-Serif" font-size="10.00">lmmp_chech_memory</text>
</a>
</g>
</g>
<!-- Node17&#45;&gt;Node18 -->
<g id="edge20_Node000017_Node000018" class="edge">
<title>Node17&#45;&gt;Node18</title>
<g id="a_edge20_Node000017_Node000018"><a xlink:title=" ">
<path fill="none" stroke="#63b8ff" d="M848.76,-217.5C862.24,-217.5 878.06,-217.5 893.62,-217.5"/>
<polygon fill="#63b8ff" stroke="#63b8ff" points="893.78,-221 903.78,-217.5 893.78,-214 893.78,-221"/>
</a>
</g>
</g>
<!-- Node19 -->
<g id="Node000019" class="node">
<title>Node19</title>
<g id="a_Node000019"><a xlink:href="../../da/d52/abort_8c.html#a8967c29c5f5ea6c7ce14e2baac50b72f" target="_top" xlink:title="LAMMP 全局退出函数，内部错误或断言失败时调用，若设置了全局退出函数，则会调用该函数，否则会调用默认的退出函数。">
<polygon fill="white" stroke="#666666" points="1148,-227 1072,-227 1072,-208 1148,-208 1148,-227"/>
<text text-anchor="middle" x="1110" y="-215" font-family="Helvetica,sans-Serif" font-size="10.00">lmmp_abort</text>
</a>
</g>
</g>
<!-- Node18&#45;&gt;Node19 -->
<g id="edge21_Node000018_Node000019" class="edge">
<title>Node18&#45;&gt;Node19</title>
<g id="a_edge21_Node000018_Node000019"><a xlink:title=" ">
<path fill="none" stroke="#63b8ff" d="M1029.15,-217.5C1040.1,-217.5 1051.34,-217.5 1061.81,-217.5"/>
<polygon fill="#63b8ff" stroke="#63b8ff" points="1061.98,-221 1071.98,-217.5 1061.98,-214 1061.98,-221"/>
</a>
</g>
</g>
<!-- Node20 -->
<g id="Node000020" class="node">
<title>Node20</title>
<g id="a_Node000020"><a xlink:href="../../da/d52/abort_8c.html#a11701246f0be69a35468c33d1a136abc" target="_top" xlink:title=" ">
<polygon fill="white" stroke="#666666" points="1262,-227 1191,-227 1191,-208 1262,-208 1262,-227"/>
<text text-anchor="middle" x="1226.5" y="-215" font-family="Helvetica,sans-Serif" font-size="10.00">type_to_str</text>
</a>
</g>
</g>
<!-- Node19&#45;&gt;Node20 -->
<g id="edge22_Node000019_Node000020" class="edge">
<title>Node19&#45;&gt;Node20</title>
<g id="a_edge22_Node000019_Node000020"><a xlink:title=" ">
<path fill="none" stroke="#63b8ff" d="M1148.17,-217.5C1158.57,-217.5 1169.97,-217.5 1180.75,-217.5"/>
<polygon fill="#63b8ff" stroke="#63b8ff" points="1180.84,-221 1190.84,-217.5 1180.84,-214 1180.84,-221"/>
</a>
</g>
</g>
<!-- Node22 -->
<g id="Node000022" class="node">
<title>Node22</title>
<g id="a_Node000022"><a xlink:href="../../d6/d39/lmmpn_8h.html#adfce4345fbfcf25e2861add91f6d2c53" target="_top" xlink:title="大数按位取反操作 [dst,na] = ~[numa,na] (对每个limb执行按位非操作)">
<polygon fill="white" stroke="#666666" points="1145.5,-522 1074.5,-522 1074.5,-503 1145.5,-503 1145.5,-522"/>
<text text-anchor="middle" x="1110" y="-510" font-family="Helvetica,sans-Serif" font-size="10.00">lmmp_not_</text>
</a>
</g>
</g>
<!-- Node21&#45;&gt;Node22 -->
<g id="edge25_Node000021_Node000022" class="edge">
<title>Node21&#45;&gt;Node22</title>
<g id="a_edge25_Node000021_Node000022"><a xlink:title=" ">
<path fill="none" stroke="#63b8ff" d="M1017.39,-529.98C1032.64,-527.07 1049.32,-523.89 1064.22,-521.04"/>
<polygon fill="#63b8ff" stroke="#63b8ff" points="1065.04,-524.45 1074.21,-519.14 1063.73,-517.58 1065.04,-524.45"/>
</a>
</g>
</g>
<!-- Node23 -->
<g id="Node000023" class="node">
<title>Node23</title>
<g id="a_Node000023"><a xlink:href="../../d1/d49/shl_8c.html#a6d5aca3454f13e3fcaedba3a15b03823" target="_top" xlink:title="大数左移操作 [dst,na] = [numa,na]&lt;&lt;shl，dst的低shl位填充0">
<polygon fill="white" stroke="#666666" points="1145,-606 1075,-606 1075,-587 1145,-587 1145,-606"/>
<text text-anchor="middle" x="1110" y="-594" font-family="Helvetica,sans-Serif" font-size="10.00">lmmp_shl_</text>
</a>
</g>
</g>
<!-- Node21&#45;&gt;Node23 -->
<g id="edge26_Node000021_Node000023" class="edge">
<title>Node21&#45;&gt;Node23</title>
<g id="a_edge26_Node000021_Node000023"><a xlink:title=" ">
<path fill="none" stroke="#63b8ff" d="M991.18,-549.04C1014.35,-558.37 1049.82,-572.66 1075.8,-583.12"/>
<polygon fill="#63b8ff" stroke="#63b8ff" points="1074.66,-586.44 1085.24,-586.93 1077.27,-579.95 1074.66,-586.44"/>
</a>
</g>
</g>
<!-- Node24 -->
<g id="Node000024" class="node">
<title>Node24</title>
<g id="a_Node000024"><a xlink:href="../../d6/d39/lmmpn_8h.html#a039adbf1c47f184d7fedb63b094d279c" target="_top" xlink:title="左移后按位取反操作 [dst,na] = ~([numa,na] &lt;&lt; shl)，dst的低shl位填充1">
<polygon fill="white" stroke="#666666" points="1153,-559 1067,-559 1067,-540 1153,-540 1153,-559"/>
<text text-anchor="middle" x="1110" y="-547" font-family="Helvetica,sans-Serif" font-size="10.00">lmmp_shlnot_</text>
</a>
</g>
</g>
<!-- Node21&#45;&gt;Node24 -->
<g id="edge27_Node000021_Node000024" class="edge">
<title>Node21&#45;&gt;Node24</title>
<g id="a_edge27_Node000021_Node000024"><a xlink:title=" ">
<path fill="none" stroke="#63b8ff" d="M1022.61,-543.39C1033.9,-544.19 1045.75,-545.03 1056.93,-545.82"/>
<polygon fill="#63b8ff" stroke="#63b8ff" points="1056.75,-549.32 1066.97,-546.53 1057.24,-542.33 1056.75,-549.32"/>
</a>
</g>
</g>
<!-- Node26 -->
<g id="Node000026" class="node">
<title>Node26</title>
<g id="a_Node000026"><a xlink:href="../../db/dfa/mul__fft_8c.html#aa2ffc110bd3efbe452be4fbae82e5f26" target="_top" xlink:title=" ">
<polygon fill="white" stroke="#666666" points="851.5,-720 771.5,-720 771.5,-701 851.5,-701 851.5,-720"/>
<text text-anchor="middle" x="811.5" y="-708" font-family="Helvetica,sans-Serif" font-size="10.00">lmmp_ifft_4_</text>
</a>
</g>
</g>
<!-- Node25&#45;&gt;Node26 -->
<g id="edge29_Node000025_Node000026" class="edge">
<title>Node25&#45;&gt;Node26</title>
<g id="a_edge29_Node000025_Node000026"><a xlink:title=" ">
<path fill="none" stroke="#63b8ff" d="M668.84,-710.5C695.03,-710.5 731.69,-710.5 761.16,-710.5"/>
<polygon fill="#63b8ff" stroke="#63b8ff" points="761.25,-714 771.25,-710.5 761.25,-707 761.25,-714"/>
</a>
</g>
</g>
<!-- Node29 -->
<g id="Node000029" class="node">
<title>Node29</title>
<g id="a_Node000029"><a xlink:href="../../db/dfa/mul__fft_8c.html#a82bdabf7a8985648e73ed992959403a9" target="_top" xlink:title=" ">
<polygon fill="white" stroke="#666666" points="854.5,-775 768.5,-775 768.5,-756 854.5,-756 854.5,-775"/>
<text text-anchor="middle" x="811.5" y="-763" font-family="Helvetica,sans-Serif" font-size="10.00">lmmp_ifft_b1_</text>
</a>
</g>
</g>
<!-- Node25&#45;&gt;Node29 -->
<g id="edge35_Node000025_Node000029" class="edge">
<title>Node25&#45;&gt;Node29</title>
<g id="a_edge35_Node000025_Node000029"><a xlink:title=" ">
<path fill="none" stroke="#63b8ff" d="M665.57,-720.08C694.55,-729.16 738.26,-742.86 770.1,-752.84"/>
<polygon fill="#63b8ff" stroke="#63b8ff" points="769.4,-756.29 779.99,-755.94 771.49,-749.61 769.4,-756.29"/>
</a>
</g>
</g>
<!-- Node26&#45;&gt;Node26 -->
<g id="edge30_Node000026_Node000026" class="edge">
<title>Node26&#45;&gt;Node26</title>
<g id="a_edge30_Node000026_Node000026"><a xlink:title=" ">
<path fill="none" stroke="#63b8ff" d="M787.76,-720.08C776.22,-728.73 784.13,-738 811.5,-738 829.46,-738 839.04,-734.01 840.25,-728.82"/>
<polygon fill="#63b8ff" stroke="#63b8ff" points="843.25,-727.02 835.24,-720.08 837.17,-730.5 843.25,-727.02"/>
</a>
</g>
</g>
<!-- Node27 -->
<g id="Node000027" class="node">
<title>Node27</title>
<g id="a_Node000027"><a xlink:href="../../db/dfa/mul__fft_8c.html#a36d81ef9448da2d3f7d7afdea2e76641" target="_top" xlink:title="FFT蝶形运算（Butterfly Operation） (a,b) = (a+(b&gt;&gt;w), a&#45;(b&gt;&gt;w)) mod 2^n+1 a=[coef[0],ms&#45;&gt;lenw+1],...">
<polygon fill="white" stroke="#666666" points="1011,-775 922,-775 922,-756 1011,-756 1011,-775"/>
<text text-anchor="middle" x="966.5" y="-763" font-family="Helvetica,sans-Serif" font-size="10.00">lmmp_ifft_bfy_</text>
</a>
</g>
</g>
<!-- Node26&#45;&gt;Node27 -->
<g id="edge31_Node000026_Node000027" class="edge">
<title>Node26&#45;&gt;Node27</title>
<g id="a_edge31_Node000026_Node000027"><a xlink:title=" ">
<path fill="none" stroke="#63b8ff" d="M839.15,-720.08C864.08,-729.04 901.53,-742.51 929.19,-752.45"/>
<polygon fill="#63b8ff" stroke="#63b8ff" points="928.3,-755.85 938.9,-755.94 930.67,-749.26 928.3,-755.85"/>
</a>
</g>
</g>
<!-- Node27&#45;&gt;Node9 -->
<g id="edge32_Node000027_Node000009" class="edge">
<title>Node27&#45;&gt;Node9</title>
<g id="a_edge32_Node000027_Node000009"><a xlink:title=" ">
<path fill="none" stroke="#63b8ff" d="M1011.11,-773.82C1024.96,-776.46 1040.46,-779.42 1054.96,-782.19"/>
<polygon fill="#63b8ff" stroke="#63b8ff" points="1054.32,-785.63 1064.8,-784.07 1055.64,-778.75 1054.32,-785.63"/>
</a>
</g>
</g>
<!-- Node27&#45;&gt;Node11 -->
<g id="edge34_Node000027_Node000011" class="edge">
<title>Node27&#45;&gt;Node11</title>
<g id="a_edge34_Node000027_Node000011"><a xlink:title=" ">
<path fill="none" stroke="#63b8ff" d="M981.66,-775.14C994.45,-784.06 1013.57,-797.95 1029,-811.5 1046.24,-826.64 1045.98,-835.66 1065,-848.5 1067.1,-849.91 1069.32,-851.25 1071.61,-852.5"/>
<polygon fill="#63b8ff" stroke="#63b8ff" points="1070.13,-855.67 1080.65,-856.92 1073.21,-849.38 1070.13,-855.67"/>
</a>
</g>
</g>
<!-- Node28 -->
<g id="Node000028" class="node">
<title>Node28</title>
<g id="a_Node000028"><a xlink:href="../../de/d50/shr_8c.html#a234ed4a1e0108443f3f951979dc8d51e" target="_top" xlink:title="带进位的大数右移操作 [dst,na] = [numa,na]&gt;&gt;shr，dst的高shr位填充c的高shr位">
<polygon fill="white" stroke="#666666" points="1150.5,-765 1069.5,-765 1069.5,-746 1150.5,-746 1150.5,-765"/>
<text text-anchor="middle" x="1110" y="-753" font-family="Helvetica,sans-Serif" font-size="10.00">lmmp_shr_c_</text>
</a>
</g>
</g>
<!-- Node27&#45;&gt;Node28 -->
<g id="edge33_Node000027_Node000028" class="edge">
<title>Node27&#45;&gt;Node28</title>
<g id="a_edge33_Node000027_Node000028"><a xlink:title=" ">
<path fill="none" stroke="#63b8ff" d="M1011.11,-762.42C1026.3,-761.34 1043.45,-760.13 1059.11,-759.03"/>
<polygon fill="#63b8ff" stroke="#63b8ff" points="1059.42,-762.51 1069.15,-758.32 1058.92,-755.53 1059.42,-762.51"/>
</a>
</g>
</g>
<!-- Node29&#45;&gt;Node27 -->
<g id="edge37_Node000029_Node000027" class="edge">
<title>Node29&#45;&gt;Node27</title>
<g id="a_edge37_Node000029_Node000027"><a xlink:title=" ">
<path fill="none" stroke="#63b8ff" d="M854.71,-765.5C872.33,-765.5 893,-765.5 911.68,-765.5"/>
<polygon fill="#63b8ff" stroke="#63b8ff" points="911.83,-769 921.83,-765.5 911.83,-762 911.83,-769"/>
</a>
</g>
</g>
<!-- Node29&#45;&gt;Node29 -->
<g id="edge36_Node000029_Node000029" class="edge">
<title>Node29&#45;&gt;Node29</title>
<g id="a_edge36_Node000029_Node000029"><a xlink:title=" ">
<path fill="none" stroke="#63b8ff" d="M787.76,-775.08C776.22,-783.73 784.13,-793 811.5,-793 829.46,-793 839.04,-789.01 840.25,-783.82"/>
<polygon fill="#63b8ff" stroke="#63b8ff" points="843.25,-782.02 835.24,-775.08 837.17,-785.5 843.25,-782.02"/>
</a>
</g>
</g>
<!-- Node30&#45;&gt;Node2 -->
<g id="edge39_Node000030_Node000002" class="edge">
<title>Node30&#45;&gt;Node2</title>
<g id="a_edge39_Node000030_Node000002"><a xlink:title=" ">
<path fill="none" stroke="#63b8ff" d="M646.77,-606.01C665.44,-621.81 701.53,-655.44 719,-692.5 761.25,-782.12 690.44,-837.34 755,-912.5 757.86,-915.83 761.34,-918.55 765.15,-920.76"/>
<polygon fill="#63b8ff" stroke="#63b8ff" points="763.95,-924.07 774.5,-925.08 766.89,-917.71 763.95,-924.07"/>
</a>
</g>
</g>
<!-- Node30&#45;&gt;Node23 -->
<g id="edge43_Node000030_Node000023" class="edge">
<title>Node30&#45;&gt;Node23</title>
<g id="a_edge43_Node000030_Node000023"><a xlink:title=" ">
<path fill="none" stroke="#63b8ff" d="M719.2,-596.5C820.27,-596.5 985.99,-596.5 1064.75,-596.5"/>
<polygon fill="#63b8ff" stroke="#63b8ff" points="1064.82,-600 1074.82,-596.5 1064.82,-593 1064.82,-600"/>
</a>
</g>
</g>
<!-- Node31 -->
<g id="Node000031" class="node">
<title>Node31</title>
<g id="a_Node000031"><a xlink:href="../../d6/d39/lmmpn_8h.html#a344093e8760ed368490d9a527ea2c6e9" target="_top" xlink:title="大数加单精度数静态内联函数 [dst,na]=[numa,na]+x">
<polygon fill="white" stroke="#666666" points="854,-644 769,-644 769,-625 854,-625 854,-644"/>
<text text-anchor="middle" x="811.5" y="-632" font-family="Helvetica,sans-Serif" font-size="10.00">lmmp_add_1_</text>
</a>
</g>
</g>
<!-- Node30&#45;&gt;Node31 -->
<g id="edge40_Node000030_Node000031" class="edge">
<title>Node30&#45;&gt;Node31</title>
<g id="a_edge40_Node000030_Node000031"><a xlink:title=" ">
<path fill="none" stroke="#63b8ff" d="M679.29,-606.09C703.58,-611.35 733.82,-617.9 759.14,-623.38"/>
<polygon fill="#63b8ff" stroke="#63b8ff" points="758.43,-626.81 768.94,-625.5 759.91,-619.97 758.43,-626.81"/>
</a>
</g>
</g>
<!-- Node32 -->
<g id="Node000032" class="node">
<title>Node32</title>
<g id="a_Node000032"><a xlink:href="../../db/dfa/mul__fft_8c.html#a06fb79c7196215e9f12f030d0e730906" target="_top" xlink:title="对模 2^n+1 的系数执行右移操作 右移shr位 = 左移(2n &#45; shr)位（mod 2^n+1的循环特性）">
<polygon fill="white" stroke="#666666" points="868,-568 755,-568 755,-549 868,-549 868,-568"/>
<text text-anchor="middle" x="811.5" y="-556" font-family="Helvetica,sans-Serif" font-size="10.00">lmmp_fft_shr_coef_</text>
</a>
</g>
</g>
<!-- Node30&#45;&gt;Node32 -->
<g id="edge41_Node000030_Node000032" class="edge">
<title>Node30&#45;&gt;Node32</title>
<g id="a_edge41_Node000030_Node000032"><a xlink:title=" ">
<path fill="none" stroke="#63b8ff" d="M679.29,-586.91C702.76,-581.83 731.78,-575.54 756.56,-570.18"/>
<polygon fill="#63b8ff" stroke="#63b8ff" points="757.5,-573.56 766.53,-568.02 756.02,-566.72 757.5,-573.56"/>
</a>
</g>
</g>
<!-- Node30&#45;&gt;Node33 -->
<g id="edge44_Node000030_Node000033" class="edge">
<title>Node30&#45;&gt;Node33</title>
<g id="a_edge44_Node000030_Node000033"><a xlink:title=" ">
<path fill="none" stroke="#63b8ff" d="M643.13,-586.94C660.37,-566.08 700.5,-514.31 719,-463.5 759.66,-351.81 686.01,-295.29 755,-198.5 758.96,-192.95 764.34,-188.43 770.2,-184.78"/>
<polygon fill="#63b8ff" stroke="#63b8ff" points="771.89,-187.85 779.03,-180.02 768.56,-181.69 771.89,-187.85"/>
</a>
</g>
</g>
<!-- Node32&#45;&gt;Node21 -->
<g id="edge42_Node000032_Node000021" class="edge">
<title>Node32&#45;&gt;Node21</title>
<g id="a_edge42_Node000032_Node000021"><a xlink:title=" ">
<path fill="none" stroke="#63b8ff" d="M868.17,-551.59C878.59,-550.29 889.58,-548.93 900.26,-547.6"/>
<polygon fill="#63b8ff" stroke="#63b8ff" points="900.89,-551.05 910.38,-546.34 900.03,-544.1 900.89,-551.05"/>
</a>
</g>
</g>
<!-- Node33&#45;&gt;Node34 -->
<g id="edge45_Node000033_Node000034" class="edge">
<title>Node33&#45;&gt;Node34</title>
<g id="a_edge45_Node000033_Node000034"><a xlink:title=" ">
<path fill="none" stroke="#63b8ff" d="M848.37,-170.5C868.04,-170.5 892.77,-170.5 914.42,-170.5"/>
<polygon fill="#63b8ff" stroke="#63b8ff" points="914.45,-174 924.45,-170.5 914.45,-167 914.45,-174"/>
</a>
</g>
</g>
<!-- Node35&#45;&gt;Node6 -->
<g id="edge47_Node000035_Node000006" class="edge">
<title>Node35&#45;&gt;Node6</title>
<g id="a_edge47_Node000035_Node000006"><a xlink:title=" ">
<path fill="none" stroke="#63b8ff" d="M440.58,-512.11C452.87,-544.44 495.5,-651.62 549,-729.5 568.53,-757.93 596.57,-786.47 614.79,-803.81"/>
<polygon fill="#63b8ff" stroke="#63b8ff" points="612.71,-806.66 622.4,-810.95 617.5,-801.55 612.71,-806.66"/>
</a>
</g>
</g>
<!-- Node35&#45;&gt;Node13 -->
<g id="edge48_Node000035_Node000013" class="edge">
<title>Node35&#45;&gt;Node13</title>
<g id="a_edge48_Node000035_Node000013"><a xlink:title=" ">
<path fill="none" stroke="#63b8ff" d="M467.86,-492.98C490.33,-486.09 521.52,-476.6 549,-468.5 562.1,-464.64 576.38,-460.53 589.38,-456.81"/>
<polygon fill="#63b8ff" stroke="#63b8ff" points="590.38,-460.17 599.04,-454.07 588.46,-453.44 590.38,-460.17"/>
</a>
</g>
</g>
<!-- Node35&#45;&gt;Node14 -->
<g id="edge49_Node000035_Node000014" class="edge">
<title>Node35&#45;&gt;Node14</title>
<g id="a_edge49_Node000035_Node000014"><a xlink:title=" ">
<path fill="none" stroke="#63b8ff" d="M449.27,-492.92C469.36,-477.5 510.87,-446.76 549,-425.5 564.91,-416.63 583.35,-408.31 598.9,-401.81"/>
<polygon fill="#63b8ff" stroke="#63b8ff" points="600.23,-405.05 608.15,-398.01 597.57,-398.57 600.23,-405.05"/>
</a>
</g>
</g>
<!-- Node35&#45;&gt;Node16 -->
<g id="edge50_Node000035_Node000016" class="edge">
<title>Node35&#45;&gt;Node16</title>
<g id="a_edge50_Node000035_Node000016"><a xlink:title=" ">
<path fill="none" stroke="#63b8ff" d="M443.75,-492.69C472.25,-451.24 583.08,-290.08 620.55,-235.61"/>
<polygon fill="#63b8ff" stroke="#63b8ff" points="623.5,-237.49 626.28,-227.27 617.73,-233.53 623.5,-237.49"/>
</a>
</g>
</g>
<!-- Node35&#45;&gt;Node21 -->
<g id="edge51_Node000035_Node000021" class="edge">
<title>Node35&#45;&gt;Node21</title>
<g id="a_edge51_Node000035_Node000021"><a xlink:title=" ">
<path fill="none" stroke="#63b8ff" d="M513,-507.82C617.01,-515.1 801.93,-528.05 900.09,-534.92"/>
<polygon fill="#63b8ff" stroke="#63b8ff" points="899.95,-538.42 910.17,-535.63 900.44,-531.44 899.95,-538.42"/>
</a>
</g>
</g>
<!-- Node35&#45;&gt;Node25 -->
<g id="edge52_Node000035_Node000025" class="edge">
<title>Node35&#45;&gt;Node25</title>
<g id="a_edge52_Node000035_Node000025"><a xlink:title=" ">
<path fill="none" stroke="#63b8ff" d="M446.19,-512.25C476.98,-544.93 576.81,-650.87 616.5,-692.99"/>
<polygon fill="#63b8ff" stroke="#63b8ff" points="614.2,-695.65 623.6,-700.53 619.29,-690.85 614.2,-695.65"/>
</a>
</g>
</g>
<!-- Node35&#45;&gt;Node30 -->
<g id="edge53_Node000035_Node000030" class="edge">
<title>Node35&#45;&gt;Node30</title>
<g id="a_edge53_Node000035_Node000030"><a xlink:title=" ">
<path fill="none" stroke="#63b8ff" d="M456.87,-512.03C491.65,-528.71 563.68,-563.25 604.02,-582.6"/>
<polygon fill="#63b8ff" stroke="#63b8ff" points="602.55,-585.78 613.08,-586.94 605.57,-579.46 602.55,-585.78"/>
</a>
</g>
</g>
<!-- Node35&#45;&gt;Node34 -->
<g id="edge55_Node000035_Node000034" class="edge">
<title>Node35&#45;&gt;Node34</title>
<g id="a_edge55_Node000035_Node000034"><a xlink:title=" ">
<path fill="none" stroke="#63b8ff" d="M513.11,-496.58C624.54,-486.17 823.68,-460.37 868,-406.5 927.6,-334.05 846.67,-272.76 904,-198.5 908.34,-192.88 914.05,-188.36 920.26,-184.72"/>
<polygon fill="#63b8ff" stroke="#63b8ff" points="922.25,-187.64 929.6,-180.01 919.09,-181.39 922.25,-187.64"/>
</a>
</g>
</g>
<!-- Node35&#45;&gt;Node35 -->
<g id="edge54_Node000035_Node000035" class="edge">
<title>Node35&#45;&gt;Node35</title>
<g id="a_edge54_Node000035_Node000035"><a xlink:title=" ">
<path fill="none" stroke="#63b8ff" d="M406.1,-512.08C391.55,-520.73 401.52,-530 436,-530 459.71,-530 471.82,-525.62 472.36,-520.07"/>
<polygon fill="#63b8ff" stroke="#63b8ff" points="474.91,-517.66 465.9,-512.08 469.46,-522.06 474.91,-517.66"/>
</a>
</g>
</g>
<!-- Node37&#45;&gt;Node2 -->
<g id="edge58_Node000037_Node000002" class="edge">
<title>Node37&#45;&gt;Node2</title>
<g id="a_edge58_Node000037_Node000002"><a xlink:title=" ">
<path fill="none" stroke="#63b8ff" d="M244.47,-568.16C252.19,-603.62 283.78,-727.77 359,-791.5 390.78,-818.43 656.46,-890.16 764.79,-918.62"/>
<polygon fill="#63b8ff" stroke="#63b8ff" points="763.91,-922.01 774.47,-921.16 765.68,-915.23 763.91,-922.01"/>
</a>
</g>
</g>
<!-- Node37&#45;&gt;Node6 -->
<g id="edge60_Node000037_Node000006" class="edge">
<title>Node37&#45;&gt;Node6</title>
<g id="a_edge60_Node000037_Node000006"><a xlink:title=" ">
<path fill="none" stroke="#63b8ff" d="M245.51,-568.18C255.78,-599.53 292.53,-699.13 359,-748.5 428.88,-800.41 533.1,-814.95 590.78,-818.99"/>
<polygon fill="#63b8ff" stroke="#63b8ff" points="590.79,-822.5 600.99,-819.63 591.22,-815.51 590.79,-822.5"/>
</a>
</g>
</g>
<!-- Node37&#45;&gt;Node13 -->
<g id="edge61_Node000037_Node000013" class="edge">
<title>Node37&#45;&gt;Node13</title>
<g id="a_edge61_Node000037_Node000013"><a xlink:title=" ">
<path fill="none" stroke="#63b8ff" d="M253.85,-548.93C273.74,-532.74 316.77,-500.18 359,-484.5 429.01,-458.51 514.94,-449.34 571.69,-446.14"/>
<polygon fill="#63b8ff" stroke="#63b8ff" points="572.13,-449.62 581.94,-445.61 571.77,-442.63 572.13,-449.62"/>
</a>
</g>
</g>
<!-- Node37&#45;&gt;Node14 -->
<g id="edge62_Node000037_Node000014" class="edge">
<title>Node37&#45;&gt;Node14</title>
<g id="a_edge62_Node000037_Node000014"><a xlink:title=" ">
<path fill="none" stroke="#63b8ff" d="M249.42,-548.87C265.77,-526.89 309.17,-472.9 359,-446.5 421.12,-413.59 500.46,-399.36 557.76,-393.2"/>
<polygon fill="#63b8ff" stroke="#63b8ff" points="558.24,-396.67 567.84,-392.17 557.53,-389.7 558.24,-396.67"/>
</a>
</g>
</g>
<!-- Node37&#45;&gt;Node16 -->
<g id="edge63_Node000037_Node000016" class="edge">
<title>Node37&#45;&gt;Node16</title>
<g id="a_edge63_Node000037_Node000016"><a xlink:title=" ">
<path fill="none" stroke="#63b8ff" d="M247.76,-548.8C262.56,-522.12 306.92,-446.3 359,-396.5 437.48,-321.46 551.48,-258.7 604.24,-231.71"/>
<polygon fill="#63b8ff" stroke="#63b8ff" points="606.01,-234.73 613.35,-227.09 602.85,-228.49 606.01,-234.73"/>
</a>
</g>
</g>
<!-- Node37&#45;&gt;Node23 -->
<g id="edge67_Node000037_Node000023" class="edge">
<title>Node37&#45;&gt;Node23</title>
<g id="a_edge67_Node000037_Node000023"><a xlink:title=" ">
<path fill="none" stroke="#63b8ff" d="M310.74,-568.07C314.99,-569.62 319.11,-571.42 323,-573.5 343.23,-584.33 338.99,-599.28 359,-610.5 467.92,-671.54 508.14,-672.5 633,-672.5 633,-672.5 633,-672.5 812.5,-672.5 912.05,-672.5 1024.68,-631.8 1077.94,-609.97"/>
<polygon fill="#63b8ff" stroke="#63b8ff" points="1079.29,-613.2 1087.18,-606.13 1076.6,-606.74 1079.29,-613.2"/>
</a>
</g>
</g>
<!-- Node37&#45;&gt;Node25 -->
<g id="edge65_Node000037_Node000025" class="edge">
<title>Node37&#45;&gt;Node25</title>
<g id="a_edge65_Node000037_Node000025"><a xlink:title=" ">
<path fill="none" stroke="#63b8ff" d="M245.62,-568.05C256,-597.96 292.46,-689.91 359,-724.5 436.18,-764.63 542.69,-740.37 597.4,-723.18"/>
<polygon fill="#63b8ff" stroke="#63b8ff" points="598.56,-726.48 607,-720.07 596.41,-719.82 598.56,-726.48"/>
</a>
</g>
</g>
<!-- Node37&#45;&gt;Node31 -->
<g id="edge59_Node000037_Node000031" class="edge">
<title>Node37&#45;&gt;Node31</title>
<g id="a_edge59_Node000037_Node000031"><a xlink:title=" ">
<path fill="none" stroke="#63b8ff" d="M285.41,-568.04C344.46,-580.82 454.25,-603.29 549,-615.5 621.37,-624.83 705.65,-629.93 758.54,-632.43"/>
<polygon fill="#63b8ff" stroke="#63b8ff" points="758.54,-635.93 768.69,-632.9 758.86,-628.94 758.54,-635.93"/>
</a>
</g>
</g>
<!-- Node37&#45;&gt;Node32 -->
<g id="edge64_Node000037_Node000032" class="edge">
<title>Node37&#45;&gt;Node32</title>
<g id="a_edge64_Node000037_Node000032"><a xlink:title=" ">
<path fill="none" stroke="#63b8ff" d="M323.28,-558.5C436.51,-558.5 640.24,-558.5 744.74,-558.5"/>
<polygon fill="#63b8ff" stroke="#63b8ff" points="744.85,-562 754.85,-558.5 744.85,-555 744.85,-562"/>
</a>
</g>
</g>
<!-- Node37&#45;&gt;Node35 -->
<g id="edge66_Node000037_Node000035" class="edge">
<title>Node37&#45;&gt;Node35</title>
<g id="a_edge66_Node000037_Node000035"><a xlink:title=" ">
<path fill="none" stroke="#63b8ff" d="M275.59,-548.87C307.88,-539.48 357.14,-525.15 392.35,-514.91"/>
<polygon fill="#63b8ff" stroke="#63b8ff" points="393.72,-518.16 402.34,-512 391.76,-511.43 393.72,-518.16"/>
</a>
</g>
</g>
</g>
</svg>
