<?xml version="1.0" encoding="UTF-8" standalone="no"?>
<!DOCTYPE svg PUBLIC "-//W3C//DTD SVG 1.1//EN"
 "http://www.w3.org/Graphics/SVG/1.1/DTD/svg11.dtd">
<!-- Generated by graphviz version 2.43.0 (0)
 -->
<!-- Title: lmmp_ifft_ Pages: 1 -->
<svg width="450pt" height="110pt"
 viewBox="0.00 0.00 450.00 110.00" xmlns="http://www.w3.org/2000/svg" xmlns:xlink="http://www.w3.org/1999/xlink">
<g id="graph0" class="graph" transform="scale(1 1) rotate(0) translate(4 106)">
<title>lmmp_ifft_</title>
<!-- Node1 -->
<g id="Node000001" class="node">
<title>Node1</title>
<g id="a_Node000001"><a xlink:title=" ">
<polygon fill="#999999" stroke="#666666" points="69,-56 0,-56 0,-37 69,-37 69,-56"/>
<text text-anchor="middle" x="34.5" y="-44" font-family="Helvetica,sans-Serif" font-size="10.00">lmmp_ifft_</text>
</a>
</g>
</g>
<!-- Node2 -->
<g id="Node000002" class="node">
<title>Node2</title>
<g id="a_Node000002"><a xlink:href="../../db/dfa/mul__fft_8c.html#aa2ffc110bd3efbe452be4fbae82e5f26" target="_top" xlink:title=" ">
<polygon fill="white" stroke="#666666" points="188,-84 108,-84 108,-65 188,-65 188,-84"/>
<text text-anchor="middle" x="148" y="-72" font-family="Helvetica,sans-Serif" font-size="10.00">lmmp_ifft_4_</text>
</a>
</g>
</g>
<!-- Node1&#45;&gt;Node2 -->
<g id="edge1_Node000001_Node000002" class="edge">
<title>Node1&#45;&gt;Node2</title>
<g id="a_edge1_Node000001_Node000002"><a xlink:title=" ">
<path fill="none" stroke="#63b8ff" d="M69.26,-54.98C78.68,-57.34 89.1,-59.96 99.17,-62.49"/>
<polygon fill="#63b8ff" stroke="#63b8ff" points="98.52,-65.93 109.07,-64.97 100.22,-59.14 98.52,-65.93"/>
</a>
</g>
</g>
<!-- Node7 -->
<g id="Node000007" class="node">
<title>Node7</title>
<g id="a_Node000007"><a xlink:href="../../db/dfa/mul__fft_8c.html#a82bdabf7a8985648e73ed992959403a9" target="_top" xlink:title=" ">
<polygon fill="white" stroke="#666666" points="191,-29 105,-29 105,-10 191,-10 191,-29"/>
<text text-anchor="middle" x="148" y="-17" font-family="Helvetica,sans-Serif" font-size="10.00">lmmp_ifft_b1_</text>
</a>
</g>
</g>
<!-- Node1&#45;&gt;Node7 -->
<g id="edge7_Node000001_Node000007" class="edge">
<title>Node1&#45;&gt;Node7</title>
<g id="a_edge7_Node000001_Node000007"><a xlink:title=" ">
<path fill="none" stroke="#63b8ff" d="M69.26,-38.33C78.2,-36.16 88.04,-33.78 97.63,-31.46"/>
<polygon fill="#63b8ff" stroke="#63b8ff" points="98.59,-34.82 107.48,-29.07 96.94,-28.02 98.59,-34.82"/>
</a>
</g>
</g>
<!-- Node2&#45;&gt;Node2 -->
<g id="edge2_Node000002_Node000002" class="edge">
<title>Node2&#45;&gt;Node2</title>
<g id="a_edge2_Node000002_Node000002"><a xlink:title=" ">
<path fill="none" stroke="#63b8ff" d="M130.74,-84.08C122.34,-92.73 128.09,-102 148,-102 160.44,-102 167.35,-98.38 168.74,-93.55"/>
<polygon fill="#63b8ff" stroke="#63b8ff" points="171.99,-92.26 165.26,-84.08 165.42,-94.68 171.99,-92.26"/>
</a>
</g>
</g>
<!-- Node3 -->
<g id="Node000003" class="node">
<title>Node3</title>
<g id="a_Node000003"><a xlink:href="../../db/dfa/mul__fft_8c.html#a36d81ef9448da2d3f7d7afdea2e76641" target="_top" xlink:title="FFT蝶形运算（Butterfly Operation） (a,b) = (a+(b&gt;&gt;w), a&#45;(b&gt;&gt;w)) mod 2^n+1 a=[coef[0],ms&#45;&gt;lenw+1],...">
<polygon fill="white" stroke="#666666" points="316,-56 227,-56 227,-37 316,-37 316,-56"/>
<text text-anchor="middle" x="271.5" y="-44" font-family="Helvetica,sans-Serif" font-size="10.00">lmmp_ifft_bfy_</text>
</a>
</g>
</g>
<!-- Node2&#45;&gt;Node3 -->
<g id="edge3_Node000002_Node000003" class="edge">
<title>Node2&#45;&gt;Node3</title>
<g id="a_edge3_Node000002_Node000003"><a xlink:title=" ">
<path fill="none" stroke="#63b8ff" d="M188.11,-65.49C198,-63.21 208.76,-60.73 219.14,-58.34"/>
<polygon fill="#63b8ff" stroke="#63b8ff" points="219.99,-61.73 228.95,-56.08 218.42,-54.91 219.99,-61.73"/>
</a>
</g>
</g>
<!-- Node4 -->
<g id="Node000004" class="node">
<title>Node4</title>
<g id="a_Node000004"><a xlink:href="../../da/dc7/add__n_8c.html#aa06f92c7f9a675b88556524c8e09ecbd" target="_top" xlink:title="带进位的n位加法 [dst,n] = [numa,n] + [numb,n] + c">
<polygon fill="white" stroke="#666666" points="442,-93 352,-93 352,-74 442,-74 442,-93"/>
<text text-anchor="middle" x="397" y="-81" font-family="Helvetica,sans-Serif" font-size="10.00">lmmp_add_nc_</text>
</a>
</g>
</g>
<!-- Node3&#45;&gt;Node4 -->
<g id="edge4_Node000003_Node000004" class="edge">
<title>Node3&#45;&gt;Node4</title>
<g id="a_edge4_Node000003_Node000004"><a xlink:title=" ">
<path fill="none" stroke="#63b8ff" d="M304.3,-56.03C319.46,-60.57 337.78,-66.06 354.05,-70.93"/>
<polygon fill="#63b8ff" stroke="#63b8ff" points="353.29,-74.36 363.87,-73.88 355.3,-67.65 353.29,-74.36"/>
</a>
</g>
</g>
<!-- Node5 -->
<g id="Node000005" class="node">
<title>Node5</title>
<g id="a_Node000005"><a xlink:href="../../de/d50/shr_8c.html#a234ed4a1e0108443f3f951979dc8d51e" target="_top" xlink:title="带进位的大数右移操作 [dst,na] = [numa,na]&gt;&gt;shr，dst的高shr位填充c的高shr位">
<polygon fill="white" stroke="#666666" points="437.5,-56 356.5,-56 356.5,-37 437.5,-37 437.5,-56"/>
<text text-anchor="middle" x="397" y="-44" font-family="Helvetica,sans-Serif" font-size="10.00">lmmp_shr_c_</text>
</a>
</g>
</g>
<!-- Node3&#45;&gt;Node5 -->
<g id="edge5_Node000003_Node000005" class="edge">
<title>Node3&#45;&gt;Node5</title>
<g id="a_edge5_Node000003_Node000005"><a xlink:title=" ">
<path fill="none" stroke="#63b8ff" d="M316.04,-46.5C325.73,-46.5 336.08,-46.5 346,-46.5"/>
<polygon fill="#63b8ff" stroke="#63b8ff" points="346.15,-50 356.15,-46.5 346.15,-43 346.15,-50"/>
</a>
</g>
</g>
<!-- Node6 -->
<g id="Node000006" class="node">
<title>Node6</title>
<g id="a_Node000006"><a xlink:href="../../d3/d44/sub__n_8c.html#af53a20c46d5cd5ee5f6a599b04aec190" target="_top" xlink:title="带借位的n位减法 [dst,n] = [numa,n] &#45; [numb,n] &#45; c">
<polygon fill="white" stroke="#666666" points="441.5,-19 352.5,-19 352.5,0 441.5,0 441.5,-19"/>
<text text-anchor="middle" x="397" y="-7" font-family="Helvetica,sans-Serif" font-size="10.00">lmmp_sub_nc_</text>
</a>
</g>
</g>
<!-- Node3&#45;&gt;Node6 -->
<g id="edge6_Node000003_Node000006" class="edge">
<title>Node3&#45;&gt;Node6</title>
<g id="a_edge6_Node000003_Node000006"><a xlink:title=" ">
<path fill="none" stroke="#63b8ff" d="M304.3,-36.97C319.46,-32.43 337.78,-26.94 354.05,-22.07"/>
<polygon fill="#63b8ff" stroke="#63b8ff" points="355.3,-25.35 363.87,-19.12 353.29,-18.64 355.3,-25.35"/>
</a>
</g>
</g>
<!-- Node7&#45;&gt;Node3 -->
<g id="edge9_Node000007_Node000003" class="edge">
<title>Node7&#45;&gt;Node3</title>
<g id="a_edge9_Node000007_Node000003"><a xlink:title=" ">
<path fill="none" stroke="#63b8ff" d="M191.15,-28.87C199.72,-30.77 208.83,-32.8 217.71,-34.77"/>
<polygon fill="#63b8ff" stroke="#63b8ff" points="217.08,-38.21 227.6,-36.97 218.59,-31.38 217.08,-38.21"/>
</a>
</g>
</g>
<!-- Node7&#45;&gt;Node7 -->
<g id="edge8_Node000007_Node000007" class="edge">
<title>Node7&#45;&gt;Node7</title>
<g id="a_edge8_Node000007_Node000007"><a xlink:title=" ">
<path fill="none" stroke="#63b8ff" d="M130.74,-29.08C122.34,-37.73 128.09,-47 148,-47 160.44,-47 167.35,-43.38 168.74,-38.55"/>
<polygon fill="#63b8ff" stroke="#63b8ff" points="171.99,-37.26 165.26,-29.08 165.42,-39.68 171.99,-37.26"/>
</a>
</g>
</g>
</g>
</svg>
