<?xml version="1.0" encoding="UTF-8" standalone="no"?>
<!DOCTYPE svg PUBLIC "-//W3C//DTD SVG 1.1//EN"
 "http://www.w3.org/Graphics/SVG/1.1/DTD/svg11.dtd">
<!-- Generated by graphviz version 2.43.0 (0)
 -->
<!-- Title: src/lammp/mul_toom_interp6.c Pages: 1 -->
<svg width="278pt" height="269pt"
 viewBox="0.00 0.00 277.50 269.00" xmlns="http://www.w3.org/2000/svg" xmlns:xlink="http://www.w3.org/1999/xlink">

<svg id="main" version="1.1" xmlns="http://www.w3.org/2000/svg" xmlns:xlink="http://www.w3.org/1999/xlink" xml:space="preserve" onload="init(evt)">
<style type="text/css"><![CDATA[
.node, .edge {opacity: 0.7;}
.node.selected, .edge.selected {opacity: 1;}
.edge:hover path { stroke: red; }
.edge:hover polygon { stroke: red; fill: red; }
]]></style>
<script type="application/ecmascript" xlink:href="../../svg.min.js"/>
<svg id="graph" class="graph">
<g id="graph0" class="graph" transform="scale(1 1) rotate(0) translate(4 265)">
<title>src/lammp/mul_toom_interp6.c</title>
<!-- Node1 -->
<g id="Node000001" class="node">
<title>Node1</title>
<g id="a_Node000001"><a xlink:title=" ">
<polygon fill="#999999" stroke="#666666" points="202.5,-261 81.5,-261 81.5,-231 202.5,-231 202.5,-261"/>
<text text-anchor="start" x="89.5" y="-249" font-family="Helvetica,sans-Serif" font-size="10.00">src/lammp/mul_toom</text>
<text text-anchor="middle" x="142" y="-238" font-family="Helvetica,sans-Serif" font-size="10.00">_interp6.c</text>
</a>
</g>
</g>
<!-- Node2 -->
<g id="Node000002" class="node">
<title>Node2</title>
<g id="a_Node000002"><a xlink:href="../../d8/d18/divexact_8h.html" target="_top" xlink:title=" ">
<polygon fill="white" stroke="#666666" points="131.5,-195 24.5,-195 24.5,-165 131.5,-165 131.5,-195"/>
<text text-anchor="start" x="32.5" y="-183" font-family="Helvetica,sans-Serif" font-size="10.00">../../include/lammp</text>
<text text-anchor="middle" x="78" y="-172" font-family="Helvetica,sans-Serif" font-size="10.00">/impl/divexact.h</text>
</a>
</g>
</g>
<!-- Node1&#45;&gt;Node2 -->
<g id="edge1_Node000001_Node000002" class="edge">
<title>Node1&#45;&gt;Node2</title>
<g id="a_edge1_Node000001_Node000002"><a xlink:title=" ">
<path fill="none" stroke="#63b8ff" d="M127.8,-230.8C119.43,-222.43 108.68,-211.68 99.31,-202.31"/>
<polygon fill="#63b8ff" stroke="#63b8ff" points="101.71,-199.76 92.16,-195.16 96.76,-204.71 101.71,-199.76"/>
</a>
</g>
</g>
<!-- Node11 -->
<g id="Node000011" class="node">
<title>Node11</title>
<g id="a_Node000011"><a xlink:href="../../d0/d3c/toom__interp_8h.html" target="_top" xlink:title=" ">
<polygon fill="white" stroke="#666666" points="262.5,-195 149.5,-195 149.5,-165 262.5,-165 262.5,-195"/>
<text text-anchor="start" x="157.5" y="-183" font-family="Helvetica,sans-Serif" font-size="10.00">../../include/lammp</text>
<text text-anchor="middle" x="206" y="-172" font-family="Helvetica,sans-Serif" font-size="10.00">/impl/toom_interp.h</text>
</a>
</g>
</g>
<!-- Node1&#45;&gt;Node11 -->
<g id="edge10_Node000001_Node000011" class="edge">
<title>Node1&#45;&gt;Node11</title>
<g id="a_edge10_Node000001_Node000011"><a xlink:title=" ">
<path fill="none" stroke="#63b8ff" d="M156.2,-230.8C164.57,-222.43 175.32,-211.68 184.69,-202.31"/>
<polygon fill="#63b8ff" stroke="#63b8ff" points="187.24,-204.71 191.84,-195.16 182.29,-199.76 187.24,-204.71"/>
</a>
</g>
</g>
<!-- Node3 -->
<g id="Node000003" class="node">
<title>Node3</title>
<g id="a_Node000003"><a xlink:href="../../d6/d39/lmmpn_8h.html" target="_top" xlink:title=" ">
<polygon fill="white" stroke="#666666" points="150.5,-129 81.5,-129 81.5,-110 150.5,-110 150.5,-129"/>
<text text-anchor="middle" x="116" y="-117" font-family="Helvetica,sans-Serif" font-size="10.00">../lmmpn.h</text>
</a>
</g>
</g>
<!-- Node2&#45;&gt;Node3 -->
<g id="edge2_Node000002_Node000003" class="edge">
<title>Node2&#45;&gt;Node3</title>
<g id="a_edge2_Node000002_Node000003"><a xlink:title=" ">
<path fill="none" stroke="#63b8ff" d="M87.2,-164.84C92.49,-156.69 99.18,-146.4 104.78,-137.78"/>
<polygon fill="#63b8ff" stroke="#63b8ff" points="107.79,-139.56 110.31,-129.27 101.92,-135.75 107.79,-139.56"/>
</a>
</g>
</g>
<!-- Node4 -->
<g id="Node000004" class="node">
<title>Node4</title>
<g id="a_Node000004"><a xlink:title=" ">
<polygon fill="#e0e0e0" stroke="#999999" points="91,-74 29,-74 29,-55 91,-55 91,-74"/>
<text text-anchor="middle" x="60" y="-62" font-family="Helvetica,sans-Serif" font-size="10.00">stdbool.h</text>
</a>
</g>
</g>
<!-- Node3&#45;&gt;Node4 -->
<g id="edge3_Node000003_Node000004" class="edge">
<title>Node3&#45;&gt;Node4</title>
<g id="a_edge3_Node000003_Node000004"><a xlink:title=" ">
<path fill="none" stroke="#63b8ff" d="M107,-109.98C98.81,-102.23 86.49,-90.58 76.53,-81.14"/>
<polygon fill="#63b8ff" stroke="#63b8ff" points="78.83,-78.5 69.16,-74.17 74.02,-83.59 78.83,-78.5"/>
</a>
</g>
</g>
<!-- Node5 -->
<g id="Node000005" class="node">
<title>Node5</title>
<g id="a_Node000005"><a xlink:title=" ">
<polygon fill="#e0e0e0" stroke="#999999" points="231,-74 181,-74 181,-55 231,-55 231,-74"/>
<text text-anchor="middle" x="206" y="-62" font-family="Helvetica,sans-Serif" font-size="10.00">stdio.h</text>
</a>
</g>
</g>
<!-- Node3&#45;&gt;Node5 -->
<g id="edge4_Node000003_Node000005" class="edge">
<title>Node3&#45;&gt;Node5</title>
<g id="a_edge4_Node000003_Node000005"><a xlink:title=" ">
<path fill="none" stroke="#63b8ff" d="M130.46,-109.98C144.42,-101.77 165.79,-89.18 182.25,-79.49"/>
<polygon fill="#63b8ff" stroke="#63b8ff" points="184.44,-82.26 191.28,-74.17 180.88,-76.23 184.44,-82.26"/>
</a>
</g>
</g>
<!-- Node6 -->
<g id="Node000006" class="node">
<title>Node6</title>
<g id="a_Node000006"><a xlink:href="../../dd/d90/lmmp_8h.html" target="_top" xlink:title=" ">
<polygon fill="white" stroke="#666666" points="163,-74 109,-74 109,-55 163,-55 163,-74"/>
<text text-anchor="middle" x="136" y="-62" font-family="Helvetica,sans-Serif" font-size="10.00">lmmp.h</text>
</a>
</g>
</g>
<!-- Node3&#45;&gt;Node6 -->
<g id="edge5_Node000003_Node000006" class="edge">
<title>Node3&#45;&gt;Node6</title>
<g id="a_edge5_Node000003_Node000006"><a xlink:title=" ">
<path fill="none" stroke="#63b8ff" d="M119.3,-109.75C121.98,-102.65 125.85,-92.4 129.19,-83.56"/>
<polygon fill="#63b8ff" stroke="#63b8ff" points="132.5,-84.68 132.76,-74.09 125.95,-82.21 132.5,-84.68"/>
</a>
</g>
</g>
<!-- Node7 -->
<g id="Node000007" class="node">
<title>Node7</title>
<g id="a_Node000007"><a xlink:title=" ">
<polygon fill="#e0e0e0" stroke="#999999" points="56,-19 0,-19 0,0 56,0 56,-19"/>
<text text-anchor="middle" x="28" y="-7" font-family="Helvetica,sans-Serif" font-size="10.00">stddef.h</text>
</a>
</g>
</g>
<!-- Node6&#45;&gt;Node7 -->
<g id="edge6_Node000006_Node000007" class="edge">
<title>Node6&#45;&gt;Node7</title>
<g id="a_edge6_Node000006_Node000007"><a xlink:title=" ">
<path fill="none" stroke="#63b8ff" d="M118.65,-54.98C101.43,-46.54 74.8,-33.47 54.85,-23.68"/>
<polygon fill="#63b8ff" stroke="#63b8ff" points="56.19,-20.43 45.67,-19.17 53.1,-26.72 56.19,-20.43"/>
</a>
</g>
</g>
<!-- Node8 -->
<g id="Node000008" class="node">
<title>Node8</title>
<g id="a_Node000008"><a xlink:title=" ">
<polygon fill="#e0e0e0" stroke="#999999" points="127.5,-19 74.5,-19 74.5,0 127.5,0 127.5,-19"/>
<text text-anchor="middle" x="101" y="-7" font-family="Helvetica,sans-Serif" font-size="10.00">stdint.h</text>
</a>
</g>
</g>
<!-- Node6&#45;&gt;Node8 -->
<g id="edge7_Node000006_Node000008" class="edge">
<title>Node6&#45;&gt;Node8</title>
<g id="a_edge7_Node000006_Node000008"><a xlink:title=" ">
<path fill="none" stroke="#63b8ff" d="M130.22,-54.75C125.38,-47.42 118.32,-36.73 112.36,-27.7"/>
<polygon fill="#63b8ff" stroke="#63b8ff" points="115.1,-25.5 106.67,-19.09 109.26,-29.36 115.1,-25.5"/>
</a>
</g>
</g>
<!-- Node9 -->
<g id="Node000009" class="node">
<title>Node9</title>
<g id="a_Node000009"><a xlink:title=" ">
<polygon fill="#e0e0e0" stroke="#999999" points="198.5,-19 145.5,-19 145.5,0 198.5,0 198.5,-19"/>
<text text-anchor="middle" x="172" y="-7" font-family="Helvetica,sans-Serif" font-size="10.00">stdlib.h</text>
</a>
</g>
</g>
<!-- Node6&#45;&gt;Node9 -->
<g id="edge8_Node000006_Node000009" class="edge">
<title>Node6&#45;&gt;Node9</title>
<g id="a_edge8_Node000006_Node000009"><a xlink:title=" ">
<path fill="none" stroke="#63b8ff" d="M141.94,-54.75C146.98,-47.34 154.34,-36.5 160.51,-27.41"/>
<polygon fill="#63b8ff" stroke="#63b8ff" points="163.44,-29.33 166.17,-19.09 157.65,-25.39 163.44,-29.33"/>
</a>
</g>
</g>
<!-- Node10 -->
<g id="Node000010" class="node">
<title>Node10</title>
<g id="a_Node000010"><a xlink:title=" ">
<polygon fill="#e0e0e0" stroke="#999999" points="269.5,-19 216.5,-19 216.5,0 269.5,0 269.5,-19"/>
<text text-anchor="middle" x="243" y="-7" font-family="Helvetica,sans-Serif" font-size="10.00">string.h</text>
</a>
</g>
</g>
<!-- Node6&#45;&gt;Node10 -->
<g id="edge9_Node000006_Node000010" class="edge">
<title>Node6&#45;&gt;Node10</title>
<g id="a_edge9_Node000006_Node000010"><a xlink:title=" ">
<path fill="none" stroke="#63b8ff" d="M153.19,-54.98C170.25,-46.54 196.63,-33.47 216.4,-23.68"/>
<polygon fill="#63b8ff" stroke="#63b8ff" points="218.09,-26.75 225.5,-19.17 214.98,-20.47 218.09,-26.75"/>
</a>
</g>
</g>
<!-- Node11&#45;&gt;Node3 -->
<g id="edge14_Node000011_Node000003" class="edge">
<title>Node11&#45;&gt;Node3</title>
<g id="a_edge14_Node000011_Node000003"><a xlink:title=" ">
<path fill="none" stroke="#63b8ff" d="M184.21,-164.84C170.13,-155.68 151.87,-143.82 137.79,-134.66"/>
<polygon fill="#63b8ff" stroke="#63b8ff" points="139.51,-131.61 129.22,-129.09 135.7,-137.48 139.51,-131.61"/>
</a>
</g>
</g>
<!-- Node12 -->
<g id="Node000012" class="node">
<title>Node12</title>
<g id="a_Node000012"><a xlink:href="../../d8/daa/tmp__alloc_8h.html" target="_top" xlink:title=" ">
<polygon fill="white" stroke="#666666" points="243,-129 169,-129 169,-110 243,-110 243,-129"/>
<text text-anchor="middle" x="206" y="-117" font-family="Helvetica,sans-Serif" font-size="10.00">tmp_alloc.h</text>
</a>
</g>
</g>
<!-- Node11&#45;&gt;Node12 -->
<g id="edge11_Node000011_Node000012" class="edge">
<title>Node11&#45;&gt;Node12</title>
<g id="a_edge11_Node000011_Node000012"><a xlink:title=" ">
<path fill="none" stroke="#63b8ff" d="M206,-164.84C206,-157.21 206,-147.7 206,-139.45"/>
<polygon fill="#63b8ff" stroke="#63b8ff" points="209.5,-139.27 206,-129.27 202.5,-139.27 209.5,-139.27"/>
</a>
</g>
</g>
<!-- Node12&#45;&gt;Node5 -->
<g id="edge13_Node000012_Node000005" class="edge">
<title>Node12&#45;&gt;Node5</title>
<g id="a_edge13_Node000012_Node000005"><a xlink:title=" ">
<path fill="none" stroke="#63b8ff" d="M206,-109.75C206,-102.8 206,-92.85 206,-84.13"/>
<polygon fill="#63b8ff" stroke="#63b8ff" points="209.5,-84.09 206,-74.09 202.5,-84.09 209.5,-84.09"/>
</a>
</g>
</g>
<!-- Node12&#45;&gt;Node6 -->
<g id="edge12_Node000012_Node000006" class="edge">
<title>Node12&#45;&gt;Node6</title>
<g id="a_edge12_Node000012_Node000006"><a xlink:title=" ">
<path fill="none" stroke="#63b8ff" d="M194.75,-109.98C184.2,-102 168.2,-89.88 155.56,-80.31"/>
<polygon fill="#63b8ff" stroke="#63b8ff" points="157.54,-77.42 147.45,-74.17 153.31,-83 157.54,-77.42"/>
</a>
</g>
</g>
</g>
</svg>
</svg>

<style type='text/css'>
<![CDATA[
[data-mouse-over-selected='false'] { opacity: 0.7; }
[data-mouse-over-selected='true']  { opacity: 1.0; }
]]>
</style>
<script type="application/ecmascript"><![CDATA[
document.addEventListener('DOMContentLoaded', (event) => {
  highlightEdges();
  highlightAdjacentNodes();
});
]]></script>
</svg>
