<?xml version="1.0" encoding="UTF-8" standalone="no"?>
<!DOCTYPE svg PUBLIC "-//W3C//DTD SVG 1.1//EN"
 "http://www.w3.org/Graphics/SVG/1.1/DTD/svg11.dtd">
<!-- Generated by graphviz version 2.43.0 (0)
 -->
<!-- Title: lamina::anonymous_namespace{solver::cpp}::Poly::add_term Pages: 1 -->
<!--zoomable 550 -->

<svg id="main" version="1.1" xmlns="http://www.w3.org/2000/svg" xmlns:xlink="http://www.w3.org/1999/xlink" xml:space="preserve" onload="init(evt)">
<style type="text/css"><![CDATA[
.node, .edge {opacity: 0.7;}
.node.selected, .edge.selected {opacity: 1;}
.edge:hover path { stroke: red; }
.edge:hover polygon { stroke: red; fill: red; }
]]></style>

<defs>
  <circle id="rim" cx="0" cy="0" r="7"/>
  <circle id="rim2" cx="0" cy="0" r="3.5"/>
  <g id="zoomPlus">
    <use xlink:href="#rim" fill="#404040"><set attributeName="fill" to="#808080" begin="zoomplus.mouseover" end="zoomplus.mouseout"/></use>
    <path d="M-4,0h8M0,-4v8" fill="none" stroke="white" stroke-width="1.5" pointer-events="none"/>
  </g>
  <g id="zoomMin">
    <use xlink:href="#rim" fill="#404040"><set attributeName="fill" to="#808080" begin="zoomminus.mouseover" end="zoomminus.mouseout"/></use>
    <path d="M-4,0h8" fill="none" stroke="white" stroke-width="1.5" pointer-events="none"/>
  </g>
  <g id="arrowUp" transform="translate(30 24)">
    <use xlink:href="#rim"/>
    <path pointer-events="none" fill="none" stroke="white" stroke-width="1.5" d="M0,-3.0v7 M-2.5,-0.5L0,-3.0L2.5,-0.5"/>
  </g>
  <g id="arrowRight" transform="rotate(90) translate(36 -43)">
    <use xlink:href="#rim"/>
    <path pointer-events="none" fill="none" stroke="white" stroke-width="1.5" d="M0,-3.0v7 M-2.5,-0.5L0,-3.0L2.5,-0.5"/>
  </g>
  <g id="arrowDown" transform="rotate(180) translate(-30 -48)">
    <use xlink:href="#rim"/>
    <path pointer-events="none" fill="none" stroke="white" stroke-width="1.5" d="M0,-3.0v7 M-2.5,-0.5L0,-3.0L2.5,-0.5"/>
  </g>
  <g id="arrowLeft" transform="rotate(270) translate(-36 17)">
    <use xlink:href="#rim"/>
    <path pointer-events="none" fill="none" stroke="white" stroke-width="1.5" d="M0,-3.0v7 M-2.5,-0.5L0,-3.0L2.5,-0.5"/>
  </g>
  <g id="resetDef">
    <use xlink:href="#rim2" fill="#404040"><set attributeName="fill" to="#808080" begin="reset.mouseover" end="reset.mouseout"/></use>
  </g>
</defs>
<script type="application/ecmascript">
var viewWidth = 1337;
var viewHeight = 550;
var sectionId = 'dynsection-1';
</script>
<script type="application/ecmascript" xlink:href="../../svg.min.js"/>
<svg id="graph" class="graph">
<g id="viewport">
<title>lamina::anonymous_namespace{solver::cpp}::Poly::add_term</title>
<!-- Node1 -->
<g id="Node000001" class="node">
<title>Node1</title>
<g id="a_Node000001"><a xlink:title=" ">
<polygon fill="#999999" stroke="#666666" points="1329,-301 1154,-301 1154,-271 1329,-271 1329,-301"/>
<text text-anchor="start" x="1162" y="-289" font-family="Helvetica,sans-Serif" font-size="10.00">lamina::anonymous_namespace</text>
<text text-anchor="middle" x="1241.5" y="-278" font-family="Helvetica,sans-Serif" font-size="10.00">{solver::cpp}::Poly::add_term</text>
</a>
</g>
</g>
<!-- Node2 -->
<g id="Node000002" class="node">
<title>Node2</title>
<g id="a_Node000002"><a xlink:href="../../d3/d3c/namespacelamina_1_1anonymous__namespace_02solver_8cpp_03.html#a707222a50f096ad062169440826690fb" target="_top" xlink:title=" ">
<polygon fill="white" stroke="#666666" points="1118,-524 943,-524 943,-494 1118,-494 1118,-524"/>
<text text-anchor="start" x="951" y="-512" font-family="Helvetica,sans-Serif" font-size="10.00">lamina::anonymous_namespace</text>
<text text-anchor="middle" x="1030.5" y="-501" font-family="Helvetica,sans-Serif" font-size="10.00">{solver::cpp}::add_poly</text>
</a>
</g>
</g>
<!-- Node1&#45;&gt;Node2 -->
<g id="edge1_Node000001_Node000002" class="edge">
<title>Node1&#45;&gt;Node2</title>
<g id="a_edge1_Node000001_Node000002"><a xlink:title=" ">
<path fill="none" stroke="#63b8ff" d="M1231.41,-310.57C1215.01,-351.57 1176.64,-433.97 1118,-480 1110.77,-485.67 1102.38,-490.26 1093.72,-493.97"/>
<polygon fill="#63b8ff" stroke="#63b8ff" points="1234.73,-311.67 1235.1,-301.08 1228.21,-309.13 1234.73,-311.67"/>
</a>
</g>
</g>
<!-- Node3 -->
<g id="Node000003" class="node">
<title>Node3</title>
<g id="a_Node000003"><a xlink:href="../../d7/d8e/classlamina_1_1anonymous__namespace_02solver_8cpp_03_1_1PolyBuilder.html#a6942185424f0822a2faf84ebf7d4f253" target="_top" xlink:title=" ">
<polygon fill="white" stroke="#666666" points="907,-492 732,-492 732,-462 907,-462 907,-492"/>
<text text-anchor="start" x="740" y="-480" font-family="Helvetica,sans-Serif" font-size="10.00">lamina::anonymous_namespace</text>
<text text-anchor="middle" x="819.5" y="-469" font-family="Helvetica,sans-Serif" font-size="10.00">{solver::cpp}::PolyBuilder::visit</text>
</a>
</g>
</g>
<!-- Node1&#45;&gt;Node3 -->
<g id="edge25_Node000001_Node000003" class="edge">
<title>Node1&#45;&gt;Node3</title>
<g id="a_edge25_Node000001_Node000003"><a xlink:title=" ">
<path fill="none" stroke="#63b8ff" d="M1228.16,-310.28C1209.4,-344.4 1170.32,-405.63 1118,-435 1053.64,-471.13 969.53,-480.15 907.18,-480.99"/>
<polygon fill="#63b8ff" stroke="#63b8ff" points="1231.26,-311.89 1232.9,-301.42 1225.09,-308.59 1231.26,-311.89"/>
</a>
</g>
</g>
<!-- Node4 -->
<g id="Node000004" class="node">
<title>Node4</title>
<g id="a_Node000004"><a xlink:href="../../d3/d3c/namespacelamina_1_1anonymous__namespace_02solver_8cpp_03.html#ae6cd45a660f5379f04c36557a69d101f" target="_top" xlink:title=" ">
<polygon fill="white" stroke="#666666" points="1118,-382 943,-382 943,-352 1118,-352 1118,-382"/>
<text text-anchor="start" x="951" y="-370" font-family="Helvetica,sans-Serif" font-size="10.00">lamina::anonymous_namespace</text>
<text text-anchor="middle" x="1030.5" y="-359" font-family="Helvetica,sans-Serif" font-size="10.00">{solver::cpp}::mul_poly</text>
</a>
</g>
</g>
<!-- Node1&#45;&gt;Node4 -->
<g id="edge4_Node000001_Node000004" class="edge">
<title>Node1&#45;&gt;Node4</title>
<g id="a_edge4_Node000001_Node000004"><a xlink:title=" ">
<path fill="none" stroke="#63b8ff" d="M1197.7,-305.13C1174.33,-315.34 1144.77,-327.85 1118,-338 1105.41,-342.77 1091.65,-347.57 1078.87,-351.86"/>
<polygon fill="#63b8ff" stroke="#63b8ff" points="1199.24,-308.28 1206.99,-301.06 1196.43,-301.87 1199.24,-308.28"/>
</a>
</g>
</g>
<!-- Node5 -->
<g id="Node000005" class="node">
<title>Node5</title>
<g id="a_Node000005"><a xlink:href="../../d7/d8e/classlamina_1_1anonymous__namespace_02solver_8cpp_03_1_1PolyBuilder.html#a1664f384d4290c3757b8cee1d58a6766" target="_top" xlink:title=" ">
<polygon fill="white" stroke="#666666" points="907,-432 732,-432 732,-402 907,-402 907,-432"/>
<text text-anchor="start" x="740" y="-420" font-family="Helvetica,sans-Serif" font-size="10.00">lamina::anonymous_namespace</text>
<text text-anchor="middle" x="819.5" y="-409" font-family="Helvetica,sans-Serif" font-size="10.00">{solver::cpp}::PolyBuilder::visit</text>
</a>
</g>
</g>
<!-- Node1&#45;&gt;Node5 -->
<g id="edge27_Node000001_Node000005" class="edge">
<title>Node1&#45;&gt;Node5</title>
<g id="a_edge27_Node000001_Node000005"><a xlink:title=" ">
<path fill="none" stroke="#63b8ff" d="M1225.35,-309.85C1205.03,-339.39 1165.9,-388.34 1118,-409 1051.46,-437.7 968.54,-437.35 907.15,-431.17"/>
<polygon fill="#63b8ff" stroke="#63b8ff" points="1228.38,-311.61 1231.04,-301.35 1222.57,-307.71 1228.38,-311.61"/>
</a>
</g>
</g>
<!-- Node6 -->
<g id="Node000006" class="node">
<title>Node6</title>
<g id="a_Node000006"><a xlink:href="../../d7/d8e/classlamina_1_1anonymous__namespace_02solver_8cpp_03_1_1PolyBuilder.html#a717479cb18d3c0126bb45fdca5609ecb" target="_top" xlink:title=" ">
<polygon fill="white" stroke="#666666" points="907,-361 732,-361 732,-331 907,-331 907,-361"/>
<text text-anchor="start" x="740" y="-349" font-family="Helvetica,sans-Serif" font-size="10.00">lamina::anonymous_namespace</text>
<text text-anchor="middle" x="819.5" y="-338" font-family="Helvetica,sans-Serif" font-size="10.00">{solver::cpp}::PolyBuilder::visit</text>
</a>
</g>
</g>
<!-- Node1&#45;&gt;Node6 -->
<g id="edge29_Node000001_Node000006" class="edge">
<title>Node1&#45;&gt;Node6</title>
<g id="a_edge29_Node000001_Node000006"><a xlink:title=" ">
<path fill="none" stroke="#63b8ff" d="M1144.08,-299.77C1072.69,-309.97 976.25,-323.75 907.26,-333.61"/>
<polygon fill="#63b8ff" stroke="#63b8ff" points="1144.58,-303.24 1153.98,-298.36 1143.59,-296.31 1144.58,-303.24"/>
</a>
</g>
</g>
<!-- Node7 -->
<g id="Node000007" class="node">
<title>Node7</title>
<g id="a_Node000007"><a xlink:href="../../d3/d3c/namespacelamina_1_1anonymous__namespace_02solver_8cpp_03.html#aedf023d326ee07392f543a259a50166d" target="_top" xlink:title=" ">
<polygon fill="white" stroke="#666666" points="1118,-174 943,-174 943,-144 1118,-144 1118,-174"/>
<text text-anchor="start" x="951" y="-162" font-family="Helvetica,sans-Serif" font-size="10.00">lamina::anonymous_namespace</text>
<text text-anchor="middle" x="1030.5" y="-151" font-family="Helvetica,sans-Serif" font-size="10.00">{solver::cpp}::mul_poly_term</text>
</a>
</g>
</g>
<!-- Node1&#45;&gt;Node7 -->
<g id="edge8_Node000001_Node000007" class="edge">
<title>Node1&#45;&gt;Node7</title>
<g id="a_edge8_Node000001_Node000007"><a xlink:title=" ">
<path fill="none" stroke="#63b8ff" d="M1212.69,-264.86C1188.38,-246.82 1151.78,-220.76 1118,-201 1101.28,-191.22 1081.96,-181.68 1065.82,-174.17"/>
<polygon fill="#63b8ff" stroke="#63b8ff" points="1210.65,-267.7 1220.76,-270.88 1214.84,-262.09 1210.65,-267.7"/>
</a>
</g>
</g>
<!-- Node8 -->
<g id="Node000008" class="node">
<title>Node8</title>
<g id="a_Node000008"><a xlink:href="../../d3/d3c/namespacelamina_1_1anonymous__namespace_02solver_8cpp_03.html#af17738a2521846def935b4b165fe71dd" target="_top" xlink:title=" ">
<polygon fill="white" stroke="#666666" points="907,-240 732,-240 732,-210 907,-210 907,-240"/>
<text text-anchor="start" x="740" y="-228" font-family="Helvetica,sans-Serif" font-size="10.00">lamina::anonymous_namespace</text>
<text text-anchor="middle" x="819.5" y="-217" font-family="Helvetica,sans-Serif" font-size="10.00">{solver::cpp}::reduce</text>
</a>
</g>
</g>
<!-- Node1&#45;&gt;Node8 -->
<g id="edge20_Node000001_Node000008" class="edge">
<title>Node1&#45;&gt;Node8</title>
<g id="a_edge20_Node000001_Node000008"><a xlink:title=" ">
<path fill="none" stroke="#63b8ff" d="M1143.43,-286.3C1084.88,-284.88 1009.07,-280.19 943,-267 913.02,-261.01 880.32,-249.53 856.25,-240.09"/>
<polygon fill="#63b8ff" stroke="#63b8ff" points="1143.72,-289.81 1153.79,-286.52 1143.87,-282.81 1143.72,-289.81"/>
</a>
</g>
</g>
<!-- Node17 -->
<g id="Node000017" class="node">
<title>Node17</title>
<g id="a_Node000017"><a xlink:href="../../d3/d3c/namespacelamina_1_1anonymous__namespace_02solver_8cpp_03.html#a348b1a170747ec08beccb360453a12d7" target="_top" xlink:title=" ">
<polygon fill="white" stroke="#666666" points="1118,-240 943,-240 943,-210 1118,-210 1118,-240"/>
<text text-anchor="start" x="951" y="-228" font-family="Helvetica,sans-Serif" font-size="10.00">lamina::anonymous_namespace</text>
<text text-anchor="middle" x="1030.5" y="-217" font-family="Helvetica,sans-Serif" font-size="10.00">{solver::cpp}::sub_poly</text>
</a>
</g>
</g>
<!-- Node1&#45;&gt;Node17 -->
<g id="edge21_Node000001_Node000017" class="edge">
<title>Node1&#45;&gt;Node17</title>
<g id="a_edge21_Node000001_Node000017"><a xlink:title=" ">
<path fill="none" stroke="#63b8ff" d="M1179.4,-268.17C1148.82,-259.24 1112.21,-248.56 1083.06,-240.05"/>
<polygon fill="#63b8ff" stroke="#63b8ff" points="1178.53,-271.56 1189.11,-271 1180.49,-264.84 1178.53,-271.56"/>
</a>
</g>
</g>
<!-- Node18 -->
<g id="Node000018" class="node">
<title>Node18</title>
<g id="a_Node000018"><a xlink:href="../../d7/d8e/classlamina_1_1anonymous__namespace_02solver_8cpp_03_1_1PolyBuilder.html#a56d320425e8a4983e99dadd57ea85165" target="_top" xlink:title=" ">
<polygon fill="white" stroke="#666666" points="1118,-126 943,-126 943,-96 1118,-96 1118,-126"/>
<text text-anchor="start" x="951" y="-114" font-family="Helvetica,sans-Serif" font-size="10.00">lamina::anonymous_namespace</text>
<text text-anchor="middle" x="1030.5" y="-103" font-family="Helvetica,sans-Serif" font-size="10.00">{solver::cpp}::PolyBuilder::visit</text>
</a>
</g>
</g>
<!-- Node1&#45;&gt;Node18 -->
<g id="edge26_Node000001_Node000018" class="edge">
<title>Node1&#45;&gt;Node18</title>
<g id="a_edge26_Node000001_Node000018"><a xlink:title=" ">
<path fill="none" stroke="#63b8ff" d="M1227.44,-261.88C1208.03,-228.33 1168.37,-168 1118,-135 1112.79,-131.58 1107.09,-128.65 1101.19,-126.13"/>
<polygon fill="#63b8ff" stroke="#63b8ff" points="1224.62,-264 1232.59,-270.98 1230.71,-260.55 1224.62,-264"/>
</a>
</g>
</g>
<!-- Node19 -->
<g id="Node000019" class="node">
<title>Node19</title>
<g id="a_Node000019"><a xlink:href="../../d7/d8e/classlamina_1_1anonymous__namespace_02solver_8cpp_03_1_1PolyBuilder.html#a83665cfd18278235f3744e8be1b5869a" target="_top" xlink:title=" ">
<polygon fill="white" stroke="#666666" points="1118,-78 943,-78 943,-48 1118,-48 1118,-78"/>
<text text-anchor="start" x="951" y="-66" font-family="Helvetica,sans-Serif" font-size="10.00">lamina::anonymous_namespace</text>
<text text-anchor="middle" x="1030.5" y="-55" font-family="Helvetica,sans-Serif" font-size="10.00">{solver::cpp}::PolyBuilder::visit</text>
</a>
</g>
</g>
<!-- Node1&#45;&gt;Node19 -->
<g id="edge28_Node000001_Node000019" class="edge">
<title>Node1&#45;&gt;Node19</title>
<g id="a_edge28_Node000001_Node000019"><a xlink:title=" ">
<path fill="none" stroke="#63b8ff" d="M1232.18,-261.35C1216.63,-219.1 1179.11,-132.96 1118,-87 1113.39,-83.53 1108.31,-80.57 1102.98,-78.03"/>
<polygon fill="#63b8ff" stroke="#63b8ff" points="1228.92,-262.62 1235.58,-270.86 1235.51,-260.27 1228.92,-262.62"/>
</a>
</g>
</g>
<!-- Node20 -->
<g id="Node000020" class="node">
<title>Node20</title>
<g id="a_Node000020"><a xlink:href="../../d7/d8e/classlamina_1_1anonymous__namespace_02solver_8cpp_03_1_1PolyBuilder.html#a06af6d3965df1c1a2593e1b67cb6d53d" target="_top" xlink:title=" ">
<polygon fill="white" stroke="#666666" points="1118,-30 943,-30 943,0 1118,0 1118,-30"/>
<text text-anchor="start" x="951" y="-18" font-family="Helvetica,sans-Serif" font-size="10.00">lamina::anonymous_namespace</text>
<text text-anchor="middle" x="1030.5" y="-7" font-family="Helvetica,sans-Serif" font-size="10.00">{solver::cpp}::PolyBuilder::visit</text>
</a>
</g>
</g>
<!-- Node1&#45;&gt;Node20 -->
<g id="edge30_Node000001_Node000020" class="edge">
<title>Node1&#45;&gt;Node20</title>
<g id="a_edge30_Node000001_Node000020"><a xlink:title=" ">
<path fill="none" stroke="#63b8ff" d="M1235.24,-260.88C1223.43,-210.85 1190.02,-98.51 1118,-39 1113.79,-35.53 1109.12,-32.55 1104.19,-30.01"/>
<polygon fill="#63b8ff" stroke="#63b8ff" points="1231.87,-261.86 1237.5,-270.83 1238.7,-260.31 1231.87,-261.86"/>
</a>
</g>
</g>
<!-- Node2&#45;&gt;Node2 -->
<g id="edge2_Node000002_Node000002" class="edge">
<title>Node2&#45;&gt;Node2</title>
<g id="a_edge2_Node000002_Node000002"><a xlink:title=" ">
<path fill="none" stroke="#63b8ff" d="M1067.26,-534.6C1062.24,-538.97 1049.98,-542 1030.5,-542 997.69,-542 985.38,-533.41 993.59,-524.28"/>
<polygon fill="#63b8ff" stroke="#63b8ff" points="1070.76,-534.33 1067.41,-524.28 1063.76,-534.22 1070.76,-534.33"/>
</a>
</g>
</g>
<!-- Node2&#45;&gt;Node3 -->
<g id="edge3_Node000002_Node000003" class="edge">
<title>Node2&#45;&gt;Node3</title>
<g id="a_edge3_Node000002_Node000003"><a xlink:title=" ">
<path fill="none" stroke="#63b8ff" d="M932.97,-494.22C924.41,-492.91 915.77,-491.59 907.29,-490.29"/>
<polygon fill="#63b8ff" stroke="#63b8ff" points="932.57,-497.7 942.98,-495.75 933.63,-490.78 932.57,-497.7"/>
</a>
</g>
</g>
<!-- Node4&#45;&gt;Node4 -->
<g id="edge5_Node000004_Node000004" class="edge">
<title>Node4&#45;&gt;Node4</title>
<g id="a_edge5_Node000004_Node000004"><a xlink:title=" ">
<path fill="none" stroke="#63b8ff" d="M1067.26,-392.6C1062.24,-396.97 1049.98,-400 1030.5,-400 997.69,-400 985.38,-391.41 993.59,-382.28"/>
<polygon fill="#63b8ff" stroke="#63b8ff" points="1070.76,-392.33 1067.41,-382.28 1063.76,-392.22 1070.76,-392.33"/>
</a>
</g>
</g>
<!-- Node4&#45;&gt;Node5 -->
<g id="edge6_Node000004_Node000005" class="edge">
<title>Node4&#45;&gt;Node5</title>
<g id="a_edge6_Node000004_Node000005"><a xlink:title=" ">
<path fill="none" stroke="#63b8ff" d="M957.06,-384.33C933.12,-390.06 906.7,-396.38 883.52,-401.92"/>
<polygon fill="#63b8ff" stroke="#63b8ff" points="957.88,-387.73 966.79,-382 956.25,-380.92 957.88,-387.73"/>
</a>
</g>
</g>
<!-- Node4&#45;&gt;Node6 -->
<g id="edge7_Node000004_Node000006" class="edge">
<title>Node4&#45;&gt;Node6</title>
<g id="a_edge7_Node000004_Node000006"><a xlink:title=" ">
<path fill="none" stroke="#63b8ff" d="M932.97,-357.3C924.41,-356.44 915.77,-355.57 907.29,-354.72"/>
<polygon fill="#63b8ff" stroke="#63b8ff" points="932.68,-360.79 942.98,-358.31 933.38,-353.82 932.68,-360.79"/>
</a>
</g>
</g>
<!-- Node7&#45;&gt;Node7 -->
<g id="edge9_Node000007_Node000007" class="edge">
<title>Node7&#45;&gt;Node7</title>
<g id="a_edge9_Node000007_Node000007"><a xlink:title=" ">
<path fill="none" stroke="#63b8ff" d="M1067.26,-184.6C1062.24,-188.97 1049.98,-192 1030.5,-192 997.69,-192 985.38,-183.41 993.59,-174.28"/>
<polygon fill="#63b8ff" stroke="#63b8ff" points="1070.76,-184.33 1067.41,-174.28 1063.76,-184.22 1070.76,-184.33"/>
</a>
</g>
</g>
<!-- Node7&#45;&gt;Node8 -->
<g id="edge10_Node000007_Node000008" class="edge">
<title>Node7&#45;&gt;Node8</title>
<g id="a_edge10_Node000007_Node000008"><a xlink:title=" ">
<path fill="none" stroke="#63b8ff" d="M978.03,-177.41C956.22,-185.01 930.47,-193.73 907,-201 897.17,-204.04 886.67,-207.11 876.48,-209.99"/>
<polygon fill="#63b8ff" stroke="#63b8ff" points="979.47,-180.62 987.75,-174.01 977.15,-174.01 979.47,-180.62"/>
</a>
</g>
</g>
<!-- Node16 -->
<g id="Node000016" class="node">
<title>Node16</title>
<g id="a_Node000016"><a xlink:href="../../d3/d3c/namespacelamina_1_1anonymous__namespace_02solver_8cpp_03.html#a7000147209925f4d067e186af5f4cafd" target="_top" xlink:title=" ">
<polygon fill="white" stroke="#666666" points="907,-192 732,-192 732,-162 907,-162 907,-192"/>
<text text-anchor="start" x="740" y="-180" font-family="Helvetica,sans-Serif" font-size="10.00">lamina::anonymous_namespace</text>
<text text-anchor="middle" x="819.5" y="-169" font-family="Helvetica,sans-Serif" font-size="10.00">{solver::cpp}::s_poly</text>
</a>
</g>
</g>
<!-- Node7&#45;&gt;Node16 -->
<g id="edge18_Node000007_Node000016" class="edge">
<title>Node7&#45;&gt;Node16</title>
<g id="a_edge18_Node000007_Node000016"><a xlink:title=" ">
<path fill="none" stroke="#63b8ff" d="M932.97,-167.31C924.41,-168.05 915.77,-168.8 907.29,-169.53"/>
<polygon fill="#63b8ff" stroke="#63b8ff" points="933.32,-170.8 942.98,-166.45 932.72,-163.82 933.32,-170.8"/>
</a>
</g>
</g>
<!-- Node9 -->
<g id="Node000009" class="node">
<title>Node9</title>
<g id="a_Node000009"><a xlink:href="../../d5/d6f/classlamina_1_1Solver.html#a3577f49f32dd47a233ff7159fb4cf328" target="_top" xlink:title="计算多项式集合的 Gröbner 基。">
<polygon fill="white" stroke="#666666" points="696,-192 559,-192 559,-162 696,-162 696,-192"/>
<text text-anchor="start" x="567" y="-180" font-family="Helvetica,sans-Serif" font-size="10.00">lamina::Solver::groebner</text>
<text text-anchor="middle" x="627.5" y="-169" font-family="Helvetica,sans-Serif" font-size="10.00">_basis</text>
</a>
</g>
</g>
<!-- Node8&#45;&gt;Node9 -->
<g id="edge11_Node000008_Node000009" class="edge">
<title>Node8&#45;&gt;Node9</title>
<g id="a_edge11_Node000008_Node000009"><a xlink:title=" ">
<path fill="none" stroke="#63b8ff" d="M749.19,-207.49C729.08,-202.41 707.32,-196.91 687.88,-192"/>
<polygon fill="#63b8ff" stroke="#63b8ff" points="748.35,-210.89 758.9,-209.94 750.07,-204.1 748.35,-210.89"/>
</a>
</g>
</g>
<!-- Node14 -->
<g id="Node000014" class="node">
<title>Node14</title>
<g id="a_Node000014"><a xlink:href="../../d5/d6f/classlamina_1_1Solver.html#ac5414698ae46e391fd33de7368bfe782" target="_top" xlink:title="判断多项式是否属于给定 Gröbner 基生成的理想。">
<polygon fill="white" stroke="#666666" points="686,-240 569,-240 569,-210 686,-210 686,-240"/>
<text text-anchor="start" x="577" y="-228" font-family="Helvetica,sans-Serif" font-size="10.00">lamina::Solver::ideal</text>
<text text-anchor="middle" x="627.5" y="-217" font-family="Helvetica,sans-Serif" font-size="10.00">_membership</text>
</a>
</g>
</g>
<!-- Node8&#45;&gt;Node14 -->
<g id="edge16_Node000008_Node000014" class="edge">
<title>Node8&#45;&gt;Node14</title>
<g id="a_edge16_Node000008_Node000014"><a xlink:title=" ">
<path fill="none" stroke="#63b8ff" d="M721.67,-225C709.55,-225 697.47,-225 686.21,-225"/>
<polygon fill="#63b8ff" stroke="#63b8ff" points="721.84,-228.5 731.84,-225 721.84,-221.5 721.84,-228.5"/>
</a>
</g>
</g>
<!-- Node15 -->
<g id="Node000015" class="node">
<title>Node15</title>
<g id="a_Node000015"><a xlink:href="../../d5/d6f/classlamina_1_1Solver.html#acde68b23b113ba44f031fd7e2342cd9d" target="_top" xlink:title="计算约化 Gröbner 基。">
<polygon fill="white" stroke="#666666" points="693.5,-288 561.5,-288 561.5,-258 693.5,-258 693.5,-288"/>
<text text-anchor="start" x="569.5" y="-276" font-family="Helvetica,sans-Serif" font-size="10.00">lamina::Solver::reduced</text>
<text text-anchor="middle" x="627.5" y="-265" font-family="Helvetica,sans-Serif" font-size="10.00">_groebner_basis</text>
</a>
</g>
</g>
<!-- Node8&#45;&gt;Node15 -->
<g id="edge17_Node000008_Node000015" class="edge">
<title>Node8&#45;&gt;Node15</title>
<g id="a_edge17_Node000008_Node000015"><a xlink:title=" ">
<path fill="none" stroke="#63b8ff" d="M749.19,-242.51C729.08,-247.59 707.32,-253.09 687.88,-258"/>
<polygon fill="#63b8ff" stroke="#63b8ff" points="750.07,-245.9 758.9,-240.06 748.35,-239.11 750.07,-245.9"/>
</a>
</g>
</g>
<!-- Node10 -->
<g id="Node000010" class="node">
<title>Node10</title>
<g id="a_Node000010"><a xlink:href="../../d6/da9/classlamina_1_1ParametricSolver.html#a41d42755b42e64784e9bc7c7f6f5715f" target="_top" xlink:title="求解关于未知数为多项式的含参方程组">
<polygon fill="white" stroke="#666666" points="523,-192 356,-192 356,-162 523,-162 523,-192"/>
<text text-anchor="start" x="364" y="-180" font-family="Helvetica,sans-Serif" font-size="10.00">lamina::ParametricSolver</text>
<text text-anchor="middle" x="439.5" y="-169" font-family="Helvetica,sans-Serif" font-size="10.00">::solve_polynomial_parametric</text>
</a>
</g>
</g>
<!-- Node9&#45;&gt;Node10 -->
<g id="edge12_Node000009_Node000010" class="edge">
<title>Node9&#45;&gt;Node10</title>
<g id="a_edge12_Node000009_Node000010"><a xlink:title=" ">
<path fill="none" stroke="#63b8ff" d="M548.61,-177C540.15,-177 531.52,-177 523.01,-177"/>
<polygon fill="#63b8ff" stroke="#63b8ff" points="548.82,-180.5 558.82,-177 548.82,-173.5 548.82,-180.5"/>
</a>
</g>
</g>
<!-- Node11 -->
<g id="Node000011" class="node">
<title>Node11</title>
<g id="a_Node000011"><a xlink:href="../../d6/da9/classlamina_1_1ParametricSolver.html#a74760afed4b871db5baef1d0c7eef09e" target="_top" xlink:title="求解含参方程组，返回所有解">
<polygon fill="white" stroke="#666666" points="320,-192 180,-192 180,-162 320,-162 320,-192"/>
<text text-anchor="start" x="188" y="-180" font-family="Helvetica,sans-Serif" font-size="10.00">lamina::ParametricSolver</text>
<text text-anchor="middle" x="250" y="-169" font-family="Helvetica,sans-Serif" font-size="10.00">::solve_system</text>
</a>
</g>
</g>
<!-- Node10&#45;&gt;Node11 -->
<g id="edge13_Node000010_Node000011" class="edge">
<title>Node10&#45;&gt;Node11</title>
<g id="a_edge13_Node000010_Node000011"><a xlink:title=" ">
<path fill="none" stroke="#63b8ff" d="M345.83,-177C337.16,-177 328.48,-177 320.08,-177"/>
<polygon fill="#63b8ff" stroke="#63b8ff" points="345.99,-180.5 355.99,-177 345.99,-173.5 345.99,-180.5"/>
</a>
</g>
</g>
<!-- Node12 -->
<g id="Node000012" class="node">
<title>Node12</title>
<g id="a_Node000012"><a xlink:href="../../dc/d25/classSymbolicExpr.html#af7245cd8dd9c4c7f7f00d3772bbbecb3" target="_top" xlink:title="求解含参数的方程组。">
<polygon fill="white" stroke="#666666" points="130,-216 14,-216 14,-186 130,-186 130,-216"/>
<text text-anchor="start" x="22" y="-204" font-family="Helvetica,sans-Serif" font-size="10.00">SymbolicExpr::solve</text>
<text text-anchor="middle" x="72" y="-193" font-family="Helvetica,sans-Serif" font-size="10.00">_system</text>
</a>
</g>
</g>
<!-- Node11&#45;&gt;Node12 -->
<g id="edge14_Node000011_Node000012" class="edge">
<title>Node11&#45;&gt;Node12</title>
<g id="a_edge14_Node000011_Node000012"><a xlink:title=" ">
<path fill="none" stroke="#63b8ff" d="M169.82,-187.8C156.47,-189.62 142.86,-191.47 130.21,-193.2"/>
<polygon fill="#63b8ff" stroke="#63b8ff" points="170.51,-191.24 179.95,-186.42 169.56,-184.3 170.51,-191.24"/>
</a>
</g>
</g>
<!-- Node13 -->
<g id="Node000013" class="node">
<title>Node13</title>
<g id="a_Node000013"><a xlink:href="../../d6/da9/classlamina_1_1ParametricSolver.html#aee41c6cf8efdfc5c7485cd104981d95b" target="_top" xlink:title="求解含参方程组，返回按参数条件分段的解">
<polygon fill="white" stroke="#666666" points="144,-168 0,-168 0,-138 144,-138 144,-168"/>
<text text-anchor="start" x="8" y="-156" font-family="Helvetica,sans-Serif" font-size="10.00">lamina::ParametricSolver</text>
<text text-anchor="middle" x="72" y="-145" font-family="Helvetica,sans-Serif" font-size="10.00">::solve_system_piecewise</text>
</a>
</g>
</g>
<!-- Node11&#45;&gt;Node13 -->
<g id="edge15_Node000011_Node000013" class="edge">
<title>Node11&#45;&gt;Node13</title>
<g id="a_edge15_Node000011_Node000013"><a xlink:title=" ">
<path fill="none" stroke="#63b8ff" d="M169.94,-166.22C161.35,-165.05 152.65,-163.86 144.17,-162.71"/>
<polygon fill="#63b8ff" stroke="#63b8ff" points="169.56,-169.7 179.95,-167.58 170.51,-162.76 169.56,-169.7"/>
</a>
</g>
</g>
<!-- Node16&#45;&gt;Node9 -->
<g id="edge19_Node000016_Node000009" class="edge">
<title>Node16&#45;&gt;Node9</title>
<g id="a_edge19_Node000016_Node000009"><a xlink:title=" ">
<path fill="none" stroke="#63b8ff" d="M721.74,-177C713.13,-177 704.54,-177 696.25,-177"/>
<polygon fill="#63b8ff" stroke="#63b8ff" points="721.84,-180.5 731.84,-177 721.84,-173.5 721.84,-180.5"/>
</a>
</g>
</g>
<!-- Node17&#45;&gt;Node8 -->
<g id="edge22_Node000017_Node000008" class="edge">
<title>Node17&#45;&gt;Node8</title>
<g id="a_edge22_Node000017_Node000008"><a xlink:title=" ">
<path fill="none" stroke="#63b8ff" d="M932.97,-225C924.41,-225 915.77,-225 907.29,-225"/>
<polygon fill="#63b8ff" stroke="#63b8ff" points="932.98,-228.5 942.98,-225 932.98,-221.5 932.98,-228.5"/>
</a>
</g>
</g>
<!-- Node17&#45;&gt;Node16 -->
<g id="edge23_Node000017_Node000016" class="edge">
<title>Node17&#45;&gt;Node16</title>
<g id="a_edge23_Node000017_Node000016"><a xlink:title=" ">
<path fill="none" stroke="#63b8ff" d="M954.16,-207.7C931.79,-202.56 907.49,-196.98 885.82,-192"/>
<polygon fill="#63b8ff" stroke="#63b8ff" points="953.41,-211.12 963.94,-209.94 954.98,-204.29 953.41,-211.12"/>
</a>
</g>
</g>
<!-- Node17&#45;&gt;Node17 -->
<g id="edge24_Node000017_Node000017" class="edge">
<title>Node17&#45;&gt;Node17</title>
<g id="a_edge24_Node000017_Node000017"><a xlink:title=" ">
<path fill="none" stroke="#63b8ff" d="M1067.26,-250.6C1062.24,-254.97 1049.98,-258 1030.5,-258 997.69,-258 985.38,-249.41 993.59,-240.28"/>
<polygon fill="#63b8ff" stroke="#63b8ff" points="1070.76,-250.33 1067.41,-240.28 1063.76,-250.22 1070.76,-250.33"/>
</a>
</g>
</g>
</g>
</svg>

<g id="navigator" transform="translate(0 0)" fill="#404254">
  <rect fill="#f2f5e9" fill-opacity="0.5" stroke="#606060" stroke-width=".5" x="0" y="0" width="60" height="60"/>
  <use id="zoomplus" xlink:href="#zoomPlus" x="17" y="9" onmousedown="handleZoom(evt,'in')"/>
  <use id="zoomminus" xlink:href="#zoomMin" x="42" y="9" onmousedown="handleZoom(evt,'out')"/>
  <use id="reset" xlink:href="#resetDef" x="30" y="36" onmousedown="handleReset()"/>
   <use id="arrowup" xlink:href="#arrowUp" x="0" y="0" onmousedown="handlePan(0,-1)"/>
  <use id="arrowright" xlink:href="#arrowRight" x="0" y="0" onmousedown="handlePan(1,0)"/>
  <use id="arrowdown" xlink:href="#arrowDown" x="0" y="0" onmousedown="handlePan(0,1)"/>
  <use id="arrowleft" xlink:href="#arrowLeft" x="0" y="0" onmousedown="handlePan(-1,0)"/>
</g>
<svg viewBox="0 0 15 15" width="100%" height="30px" preserveAspectRatio="xMaxYMin meet">
 <g id="arrow_out" transform="scale(0.3 0.3)">
  <a xlink:href="structlamina_1_1anonymous__namespace_02solver_8cpp_03_1_1Poly_a3be628f1a751779486b386f318fc10a1_icgraph_org.svg" target="_base">
   <rect id="button" ry="5" rx="5" y="6" x="6" height="38" width="38"
        fill="#f2f5e9" fill-opacity="0.5" stroke="#606060" stroke-width="1.0"/>
   <path id="arrow"
     d="M 11.500037,31.436501 C 11.940474,20.09759 22.043105,11.32322 32.158766,21.979434 L 37.068811,17.246167 C 37.068811,17.246167 37.088388,32 37.088388,32 L 22.160133,31.978069 C 22.160133,31.978069 26.997745,27.140456 26.997745,27.140456 C 18.528582,18.264221 13.291696,25.230495 11.500037,31.436501 z"
     style="fill:#404040;"/>
  </a>
 </g>
</svg>

<style type='text/css'>
<![CDATA[
[data-mouse-over-selected='false'] { opacity: 0.7; }
[data-mouse-over-selected='true']  { opacity: 1.0; }
]]>
</style>
<script type="application/ecmascript"><![CDATA[
document.addEventListener('DOMContentLoaded', (event) => {
  highlightEdges();
  highlightAdjacentNodes();
});
]]></script>
</svg>
