<?xml version="1.0" encoding="UTF-8" standalone="no"?>
<!DOCTYPE svg PUBLIC "-//W3C//DTD SVG 1.1//EN"
 "http://www.w3.org/Graphics/SVG/1.1/DTD/svg11.dtd">
<!-- Generated by graphviz version 2.43.0 (0)
 -->
<!-- Title: lamina::anonymous_namespace{solver::cpp}::Poly::LM Pages: 1 -->
<!--zoomable 218 -->

<svg id="main" version="1.1" xmlns="http://www.w3.org/2000/svg" xmlns:xlink="http://www.w3.org/1999/xlink" xml:space="preserve" onload="init(evt)">
<style type="text/css"><![CDATA[
.node, .edge {opacity: 0.7;}
.node.selected, .edge.selected {opacity: 1;}
.edge:hover path { stroke: red; }
.edge:hover polygon { stroke: red; fill: red; }
]]></style>

<defs>
  <circle id="rim" cx="0" cy="0" r="7"/>
  <circle id="rim2" cx="0" cy="0" r="3.5"/>
  <g id="zoomPlus">
    <use xlink:href="#rim" fill="#404040"><set attributeName="fill" to="#808080" begin="zoomplus.mouseover" end="zoomplus.mouseout"/></use>
    <path d="M-4,0h8M0,-4v8" fill="none" stroke="white" stroke-width="1.5" pointer-events="none"/>
  </g>
  <g id="zoomMin">
    <use xlink:href="#rim" fill="#404040"><set attributeName="fill" to="#808080" begin="zoomminus.mouseover" end="zoomminus.mouseout"/></use>
    <path d="M-4,0h8" fill="none" stroke="white" stroke-width="1.5" pointer-events="none"/>
  </g>
  <g id="arrowUp" transform="translate(30 24)">
    <use xlink:href="#rim"/>
    <path pointer-events="none" fill="none" stroke="white" stroke-width="1.5" d="M0,-3.0v7 M-2.5,-0.5L0,-3.0L2.5,-0.5"/>
  </g>
  <g id="arrowRight" transform="rotate(90) translate(36 -43)">
    <use xlink:href="#rim"/>
    <path pointer-events="none" fill="none" stroke="white" stroke-width="1.5" d="M0,-3.0v7 M-2.5,-0.5L0,-3.0L2.5,-0.5"/>
  </g>
  <g id="arrowDown" transform="rotate(180) translate(-30 -48)">
    <use xlink:href="#rim"/>
    <path pointer-events="none" fill="none" stroke="white" stroke-width="1.5" d="M0,-3.0v7 M-2.5,-0.5L0,-3.0L2.5,-0.5"/>
  </g>
  <g id="arrowLeft" transform="rotate(270) translate(-36 17)">
    <use xlink:href="#rim"/>
    <path pointer-events="none" fill="none" stroke="white" stroke-width="1.5" d="M0,-3.0v7 M-2.5,-0.5L0,-3.0L2.5,-0.5"/>
  </g>
  <g id="resetDef">
    <use xlink:href="#rim2" fill="#404040"><set attributeName="fill" to="#808080" begin="reset.mouseover" end="reset.mouseout"/></use>
  </g>
</defs>
<script type="application/ecmascript">
var viewWidth = 1145;
var viewHeight = 218;
var sectionId = 'dynsection-4';
</script>
<script type="application/ecmascript" xlink:href="../../svg.min.js"/>
<svg id="graph" class="graph">
<g id="viewport">
<title>lamina::anonymous_namespace{solver::cpp}::Poly::LM</title>
<!-- Node1 -->
<g id="Node000001" class="node">
<title>Node1</title>
<g id="a_Node000001"><a xlink:title=" ">
<polygon fill="#999999" stroke="#666666" points="1137,-129 962,-129 962,-99 1137,-99 1137,-129"/>
<text text-anchor="start" x="970" y="-117" font-family="Helvetica,sans-Serif" font-size="10.00">lamina::anonymous_namespace</text>
<text text-anchor="middle" x="1049.5" y="-106" font-family="Helvetica,sans-Serif" font-size="10.00">{solver::cpp}::Poly::LM</text>
</a>
</g>
</g>
<!-- Node2 -->
<g id="Node000002" class="node">
<title>Node2</title>
<g id="a_Node000002"><a xlink:href="../../d3/d3c/namespacelamina_1_1anonymous__namespace_02solver_8cpp_03.html#a0f814e6ce116349220bcc4a0ae379326" target="_top" xlink:title=" ">
<polygon fill="white" stroke="#666666" points="926,-210 732,-210 732,-180 926,-180 926,-210"/>
<text text-anchor="start" x="740" y="-198" font-family="Helvetica,sans-Serif" font-size="10.00">lamina::anonymous_namespace</text>
<text text-anchor="middle" x="829" y="-187" font-family="Helvetica,sans-Serif" font-size="10.00">{solver::cpp}::compute_spoly_sugar</text>
</a>
</g>
</g>
<!-- Node1&#45;&gt;Node2 -->
<g id="edge1_Node000001_Node000002" class="edge">
<title>Node1&#45;&gt;Node2</title>
<g id="a_edge1_Node000001_Node000002"><a xlink:title=" ">
<path fill="none" stroke="#63b8ff" d="M1010.89,-133.78C987.05,-145.74 955.28,-160.63 926,-171 916.77,-174.27 906.89,-177.27 897.11,-179.96"/>
<polygon fill="#63b8ff" stroke="#63b8ff" points="1012.61,-136.83 1019.95,-129.19 1009.44,-130.59 1012.61,-136.83"/>
</a>
</g>
</g>
<!-- Node8 -->
<g id="Node000008" class="node">
<title>Node8</title>
<g id="a_Node000008"><a xlink:href="../../d3/d3c/namespacelamina_1_1anonymous__namespace_02solver_8cpp_03.html#a290be5309d5eb514a58afae7518c4cac" target="_top" xlink:title=" ">
<polygon fill="white" stroke="#666666" points="916.5,-161.5 741.5,-161.5 741.5,-120.5 916.5,-120.5 916.5,-161.5"/>
<text text-anchor="start" x="749.5" y="-149.5" font-family="Helvetica,sans-Serif" font-size="10.00">lamina::anonymous_namespace</text>
<text text-anchor="start" x="749.5" y="-138.5" font-family="Helvetica,sans-Serif" font-size="10.00">{solver::cpp}::coprime_leading</text>
<text text-anchor="middle" x="829" y="-127.5" font-family="Helvetica,sans-Serif" font-size="10.00">_monomials</text>
</a>
</g>
</g>
<!-- Node1&#45;&gt;Node8 -->
<g id="edge7_Node000001_Node000008" class="edge">
<title>Node1&#45;&gt;Node8</title>
<g id="a_edge7_Node000001_Node000008"><a xlink:title=" ">
<path fill="none" stroke="#63b8ff" d="M951.63,-125.97C939.95,-127.41 928.08,-128.88 916.57,-130.3"/>
<polygon fill="#63b8ff" stroke="#63b8ff" points="952.33,-129.41 961.83,-124.71 951.48,-122.46 952.33,-129.41"/>
</a>
</g>
</g>
<!-- Node9 -->
<g id="Node000009" class="node">
<title>Node9</title>
<g id="a_Node000009"><a xlink:href="../../d3/d3c/namespacelamina_1_1anonymous__namespace_02solver_8cpp_03.html#af17738a2521846def935b4b165fe71dd" target="_top" xlink:title=" ">
<polygon fill="white" stroke="#666666" points="916.5,-54 741.5,-54 741.5,-24 916.5,-24 916.5,-54"/>
<text text-anchor="start" x="749.5" y="-42" font-family="Helvetica,sans-Serif" font-size="10.00">lamina::anonymous_namespace</text>
<text text-anchor="middle" x="829" y="-31" font-family="Helvetica,sans-Serif" font-size="10.00">{solver::cpp}::reduce</text>
</a>
</g>
</g>
<!-- Node1&#45;&gt;Node9 -->
<g id="edge9_Node000001_Node000009" class="edge">
<title>Node1&#45;&gt;Node9</title>
<g id="a_edge9_Node000001_Node000009"><a xlink:title=" ">
<path fill="none" stroke="#63b8ff" d="M1006.71,-94.77C983.3,-84.47 953.39,-72.07 926,-63 916.3,-59.79 905.92,-56.77 895.7,-54.03"/>
<polygon fill="#63b8ff" stroke="#63b8ff" points="1005.43,-98.04 1015.99,-98.9 1008.27,-91.64 1005.43,-98.04"/>
</a>
</g>
</g>
<!-- Node12 -->
<g id="Node000012" class="node">
<title>Node12</title>
<g id="a_Node000012"><a xlink:href="../../d3/d3c/namespacelamina_1_1anonymous__namespace_02solver_8cpp_03.html#a7000147209925f4d067e186af5f4cafd" target="_top" xlink:title=" ">
<polygon fill="white" stroke="#666666" points="916.5,-102 741.5,-102 741.5,-72 916.5,-72 916.5,-102"/>
<text text-anchor="start" x="749.5" y="-90" font-family="Helvetica,sans-Serif" font-size="10.00">lamina::anonymous_namespace</text>
<text text-anchor="middle" x="829" y="-79" font-family="Helvetica,sans-Serif" font-size="10.00">{solver::cpp}::s_poly</text>
</a>
</g>
</g>
<!-- Node1&#45;&gt;Node12 -->
<g id="edge13_Node000001_Node000012" class="edge">
<title>Node1&#45;&gt;Node12</title>
<g id="a_edge13_Node000001_Node000012"><a xlink:title=" ">
<path fill="none" stroke="#63b8ff" d="M951.63,-102.03C939.95,-100.59 928.08,-99.12 916.57,-97.7"/>
<polygon fill="#63b8ff" stroke="#63b8ff" points="951.48,-105.54 961.83,-103.29 952.33,-98.59 951.48,-105.54"/>
</a>
</g>
</g>
<!-- Node3 -->
<g id="Node000003" class="node">
<title>Node3</title>
<g id="a_Node000003"><a xlink:href="../../d5/d6f/classlamina_1_1Solver.html#a3577f49f32dd47a233ff7159fb4cf328" target="_top" xlink:title="计算多项式集合的 Gröbner 基。">
<polygon fill="white" stroke="#666666" points="696,-141 559,-141 559,-111 696,-111 696,-141"/>
<text text-anchor="start" x="567" y="-129" font-family="Helvetica,sans-Serif" font-size="10.00">lamina::Solver::groebner</text>
<text text-anchor="middle" x="627.5" y="-118" font-family="Helvetica,sans-Serif" font-size="10.00">_basis</text>
</a>
</g>
</g>
<!-- Node2&#45;&gt;Node3 -->
<g id="edge2_Node000002_Node000003" class="edge">
<title>Node2&#45;&gt;Node3</title>
<g id="a_edge2_Node000002_Node000003"><a xlink:title=" ">
<path fill="none" stroke="#63b8ff" d="M751.84,-177.19C745.09,-175.24 738.39,-173.17 732,-171 707.14,-162.55 679.95,-150.62 659.68,-141.16"/>
<polygon fill="#63b8ff" stroke="#63b8ff" points="751.17,-180.64 761.74,-179.96 753.05,-173.9 751.17,-180.64"/>
</a>
</g>
</g>
<!-- Node4 -->
<g id="Node000004" class="node">
<title>Node4</title>
<g id="a_Node000004"><a xlink:href="../../d6/da9/classlamina_1_1ParametricSolver.html#a41d42755b42e64784e9bc7c7f6f5715f" target="_top" xlink:title="求解关于未知数为多项式的含参方程组">
<polygon fill="white" stroke="#666666" points="523,-141 356,-141 356,-111 523,-111 523,-141"/>
<text text-anchor="start" x="364" y="-129" font-family="Helvetica,sans-Serif" font-size="10.00">lamina::ParametricSolver</text>
<text text-anchor="middle" x="439.5" y="-118" font-family="Helvetica,sans-Serif" font-size="10.00">::solve_polynomial_parametric</text>
</a>
</g>
</g>
<!-- Node3&#45;&gt;Node4 -->
<g id="edge3_Node000003_Node000004" class="edge">
<title>Node3&#45;&gt;Node4</title>
<g id="a_edge3_Node000003_Node000004"><a xlink:title=" ">
<path fill="none" stroke="#63b8ff" d="M548.61,-126C540.15,-126 531.52,-126 523.01,-126"/>
<polygon fill="#63b8ff" stroke="#63b8ff" points="548.82,-129.5 558.82,-126 548.82,-122.5 548.82,-129.5"/>
</a>
</g>
</g>
<!-- Node5 -->
<g id="Node000005" class="node">
<title>Node5</title>
<g id="a_Node000005"><a xlink:href="../../d6/da9/classlamina_1_1ParametricSolver.html#a74760afed4b871db5baef1d0c7eef09e" target="_top" xlink:title="求解含参方程组，返回所有解">
<polygon fill="white" stroke="#666666" points="320,-141 180,-141 180,-111 320,-111 320,-141"/>
<text text-anchor="start" x="188" y="-129" font-family="Helvetica,sans-Serif" font-size="10.00">lamina::ParametricSolver</text>
<text text-anchor="middle" x="250" y="-118" font-family="Helvetica,sans-Serif" font-size="10.00">::solve_system</text>
</a>
</g>
</g>
<!-- Node4&#45;&gt;Node5 -->
<g id="edge4_Node000004_Node000005" class="edge">
<title>Node4&#45;&gt;Node5</title>
<g id="a_edge4_Node000004_Node000005"><a xlink:title=" ">
<path fill="none" stroke="#63b8ff" d="M345.83,-126C337.16,-126 328.48,-126 320.08,-126"/>
<polygon fill="#63b8ff" stroke="#63b8ff" points="345.99,-129.5 355.99,-126 345.99,-122.5 345.99,-129.5"/>
</a>
</g>
</g>
<!-- Node6 -->
<g id="Node000006" class="node">
<title>Node6</title>
<g id="a_Node000006"><a xlink:href="../../dc/d25/classSymbolicExpr.html#af7245cd8dd9c4c7f7f00d3772bbbecb3" target="_top" xlink:title="求解含参数的方程组。">
<polygon fill="white" stroke="#666666" points="130,-165 14,-165 14,-135 130,-135 130,-165"/>
<text text-anchor="start" x="22" y="-153" font-family="Helvetica,sans-Serif" font-size="10.00">SymbolicExpr::solve</text>
<text text-anchor="middle" x="72" y="-142" font-family="Helvetica,sans-Serif" font-size="10.00">_system</text>
</a>
</g>
</g>
<!-- Node5&#45;&gt;Node6 -->
<g id="edge5_Node000005_Node000006" class="edge">
<title>Node5&#45;&gt;Node6</title>
<g id="a_edge5_Node000005_Node000006"><a xlink:title=" ">
<path fill="none" stroke="#63b8ff" d="M169.82,-136.8C156.47,-138.62 142.86,-140.47 130.21,-142.2"/>
<polygon fill="#63b8ff" stroke="#63b8ff" points="170.51,-140.24 179.95,-135.42 169.56,-133.3 170.51,-140.24"/>
</a>
</g>
</g>
<!-- Node7 -->
<g id="Node000007" class="node">
<title>Node7</title>
<g id="a_Node000007"><a xlink:href="../../d6/da9/classlamina_1_1ParametricSolver.html#aee41c6cf8efdfc5c7485cd104981d95b" target="_top" xlink:title="求解含参方程组，返回按参数条件分段的解">
<polygon fill="white" stroke="#666666" points="144,-117 0,-117 0,-87 144,-87 144,-117"/>
<text text-anchor="start" x="8" y="-105" font-family="Helvetica,sans-Serif" font-size="10.00">lamina::ParametricSolver</text>
<text text-anchor="middle" x="72" y="-94" font-family="Helvetica,sans-Serif" font-size="10.00">::solve_system_piecewise</text>
</a>
</g>
</g>
<!-- Node5&#45;&gt;Node7 -->
<g id="edge6_Node000005_Node000007" class="edge">
<title>Node5&#45;&gt;Node7</title>
<g id="a_edge6_Node000005_Node000007"><a xlink:title=" ">
<path fill="none" stroke="#63b8ff" d="M169.94,-115.22C161.35,-114.05 152.65,-112.86 144.17,-111.71"/>
<polygon fill="#63b8ff" stroke="#63b8ff" points="169.56,-118.7 179.95,-116.58 170.51,-111.76 169.56,-118.7"/>
</a>
</g>
</g>
<!-- Node8&#45;&gt;Node3 -->
<g id="edge8_Node000008_Node000003" class="edge">
<title>Node8&#45;&gt;Node3</title>
<g id="a_edge8_Node000008_Node000003"><a xlink:title=" ">
<path fill="none" stroke="#63b8ff" d="M731.39,-133.74C719.47,-132.84 707.49,-131.94 696.14,-131.09"/>
<polygon fill="#63b8ff" stroke="#63b8ff" points="731.13,-137.23 741.37,-134.49 731.66,-130.25 731.13,-137.23"/>
</a>
</g>
</g>
<!-- Node9&#45;&gt;Node3 -->
<g id="edge10_Node000009_Node000003" class="edge">
<title>Node9&#45;&gt;Node3</title>
<g id="a_edge10_Node000009_Node000003"><a xlink:title=" ">
<path fill="none" stroke="#63b8ff" d="M746.6,-57.24C741.59,-59.01 736.69,-60.92 732,-63 714.41,-70.78 712.33,-76.85 696,-87 682.89,-95.14 668.08,-103.77 655.67,-110.83"/>
<polygon fill="#63b8ff" stroke="#63b8ff" points="747.91,-60.49 756.31,-54.02 745.71,-53.84 747.91,-60.49"/>
</a>
</g>
</g>
<!-- Node10 -->
<g id="Node000010" class="node">
<title>Node10</title>
<g id="a_Node000010"><a xlink:href="../../d5/d6f/classlamina_1_1Solver.html#ac5414698ae46e391fd33de7368bfe782" target="_top" xlink:title="判断多项式是否属于给定 Gröbner 基生成的理想。">
<polygon fill="white" stroke="#666666" points="686,-78 569,-78 569,-48 686,-48 686,-78"/>
<text text-anchor="start" x="577" y="-66" font-family="Helvetica,sans-Serif" font-size="10.00">lamina::Solver::ideal</text>
<text text-anchor="middle" x="627.5" y="-55" font-family="Helvetica,sans-Serif" font-size="10.00">_membership</text>
</a>
</g>
</g>
<!-- Node9&#45;&gt;Node10 -->
<g id="edge11_Node000009_Node000010" class="edge">
<title>Node9&#45;&gt;Node10</title>
<g id="a_edge11_Node000009_Node000010"><a xlink:title=" ">
<path fill="none" stroke="#63b8ff" d="M731.23,-50.64C715.76,-52.5 700.2,-54.37 686.03,-56.08"/>
<polygon fill="#63b8ff" stroke="#63b8ff" points="731.86,-54.09 741.37,-49.42 731.02,-47.14 731.86,-54.09"/>
</a>
</g>
</g>
<!-- Node11 -->
<g id="Node000011" class="node">
<title>Node11</title>
<g id="a_Node000011"><a xlink:href="../../d5/d6f/classlamina_1_1Solver.html#acde68b23b113ba44f031fd7e2342cd9d" target="_top" xlink:title="计算约化 Gröbner 基。">
<polygon fill="white" stroke="#666666" points="693.5,-30 561.5,-30 561.5,0 693.5,0 693.5,-30"/>
<text text-anchor="start" x="569.5" y="-18" font-family="Helvetica,sans-Serif" font-size="10.00">lamina::Solver::reduced</text>
<text text-anchor="middle" x="627.5" y="-7" font-family="Helvetica,sans-Serif" font-size="10.00">_groebner_basis</text>
</a>
</g>
</g>
<!-- Node9&#45;&gt;Node11 -->
<g id="edge12_Node000009_Node000011" class="edge">
<title>Node9&#45;&gt;Node11</title>
<g id="a_edge12_Node000009_Node000011"><a xlink:title=" ">
<path fill="none" stroke="#63b8ff" d="M731.21,-27.36C718.5,-25.83 705.73,-24.29 693.72,-22.85"/>
<polygon fill="#63b8ff" stroke="#63b8ff" points="731.02,-30.86 741.37,-28.58 731.86,-23.91 731.02,-30.86"/>
</a>
</g>
</g>
<!-- Node12&#45;&gt;Node3 -->
<g id="edge14_Node000012_Node000003" class="edge">
<title>Node12&#45;&gt;Node3</title>
<g id="a_edge14_Node000012_Node000003"><a xlink:title=" ">
<path fill="none" stroke="#63b8ff" d="M741.3,-103.95C726.2,-106.9 710.69,-109.93 696.19,-112.77"/>
<polygon fill="#63b8ff" stroke="#63b8ff" points="742.01,-107.38 751.15,-102.02 740.67,-100.51 742.01,-107.38"/>
</a>
</g>
</g>
</g>
</svg>

<g id="navigator" transform="translate(0 0)" fill="#404254">
  <rect fill="#f2f5e9" fill-opacity="0.5" stroke="#606060" stroke-width=".5" x="0" y="0" width="60" height="60"/>
  <use id="zoomplus" xlink:href="#zoomPlus" x="17" y="9" onmousedown="handleZoom(evt,'in')"/>
  <use id="zoomminus" xlink:href="#zoomMin" x="42" y="9" onmousedown="handleZoom(evt,'out')"/>
  <use id="reset" xlink:href="#resetDef" x="30" y="36" onmousedown="handleReset()"/>
   <use id="arrowup" xlink:href="#arrowUp" x="0" y="0" onmousedown="handlePan(0,-1)"/>
  <use id="arrowright" xlink:href="#arrowRight" x="0" y="0" onmousedown="handlePan(1,0)"/>
  <use id="arrowdown" xlink:href="#arrowDown" x="0" y="0" onmousedown="handlePan(0,1)"/>
  <use id="arrowleft" xlink:href="#arrowLeft" x="0" y="0" onmousedown="handlePan(-1,0)"/>
</g>
<svg viewBox="0 0 15 15" width="100%" height="30px" preserveAspectRatio="xMaxYMin meet">
 <g id="arrow_out" transform="scale(0.3 0.3)">
  <a xlink:href="structlamina_1_1anonymous__namespace_02solver_8cpp_03_1_1Poly_a3e2a9510b391265f84a519acd4a61177_icgraph_org.svg" target="_base">
   <rect id="button" ry="5" rx="5" y="6" x="6" height="38" width="38"
        fill="#f2f5e9" fill-opacity="0.5" stroke="#606060" stroke-width="1.0"/>
   <path id="arrow"
     d="M 11.500037,31.436501 C 11.940474,20.09759 22.043105,11.32322 32.158766,21.979434 L 37.068811,17.246167 C 37.068811,17.246167 37.088388,32 37.088388,32 L 22.160133,31.978069 C 22.160133,31.978069 26.997745,27.140456 26.997745,27.140456 C 18.528582,18.264221 13.291696,25.230495 11.500037,31.436501 z"
     style="fill:#404040;"/>
  </a>
 </g>
</svg>

<style type='text/css'>
<![CDATA[
[data-mouse-over-selected='false'] { opacity: 0.7; }
[data-mouse-over-selected='true']  { opacity: 1.0; }
]]>
</style>
<script type="application/ecmascript"><![CDATA[
document.addEventListener('DOMContentLoaded', (event) => {
  highlightEdges();
  highlightAdjacentNodes();
});
]]></script>
</svg>
