<?xml version="1.0" encoding="UTF-8" standalone="no"?>
<!DOCTYPE svg PUBLIC "-//W3C//DTD SVG 1.1//EN"
 "http://www.w3.org/Graphics/SVG/1.1/DTD/svg11.dtd">
<!-- Generated by graphviz version 2.43.0 (0)
 -->
<!-- Title: BigInt::nPr Pages: 1 -->
<svg width="320pt" height="119pt"
 viewBox="0.00 0.00 320.00 119.00" xmlns="http://www.w3.org/2000/svg" xmlns:xlink="http://www.w3.org/1999/xlink">

<svg id="main" version="1.1" xmlns="http://www.w3.org/2000/svg" xmlns:xlink="http://www.w3.org/1999/xlink" xml:space="preserve" onload="init(evt)">
<style type="text/css"><![CDATA[
.node, .edge {opacity: 0.7;}
.node.selected, .edge.selected {opacity: 1;}
.edge:hover path { stroke: red; }
.edge:hover polygon { stroke: red; fill: red; }
]]></style>
<script type="application/ecmascript" xlink:href="../../svg.min.js"/>
<svg id="graph" class="graph">
<g id="graph0" class="graph" transform="scale(1 1) rotate(0) translate(4 115)">
<title>BigInt::nPr</title>
<!-- Node1 -->
<g id="Node000001" class="node">
<title>Node1</title>
<g id="a_Node000001"><a xlink:title="计算排列数 P(n, r)">
<polygon fill="#999999" stroke="#666666" points="67,-74 0,-74 0,-55 67,-55 67,-74"/>
<text text-anchor="middle" x="33.5" y="-62" font-family="Helvetica,sans-Serif" font-size="10.00">BigInt::nPr</text>
</a>
</g>
</g>
<!-- Node2 -->
<g id="Node000002" class="node">
<title>Node2</title>
<g id="a_Node000002"><a xlink:href="../../da/d5b/classBigInt.html#af677021c0987fc2a48da06837ed29c58" target="_top" xlink:title="默认构造，值为 0">
<polygon fill="white" stroke="#666666" points="193,-111 113,-111 113,-92 193,-92 193,-111"/>
<text text-anchor="middle" x="153" y="-99" font-family="Helvetica,sans-Serif" font-size="10.00">BigInt::BigInt</text>
</a>
</g>
</g>
<!-- Node1&#45;&gt;Node2 -->
<g id="edge1_Node000001_Node000002" class="edge">
<title>Node1&#45;&gt;Node2</title>
<g id="a_edge1_Node000001_Node000002"><a xlink:title=" ">
<path fill="none" stroke="#63b8ff" d="M64.76,-74.03C79.04,-78.52 96.28,-83.95 111.65,-88.8"/>
<polygon fill="#63b8ff" stroke="#63b8ff" points="110.85,-92.21 121.43,-91.88 112.95,-85.53 110.85,-92.21"/>
</a>
</g>
</g>
<!-- Node3 -->
<g id="Node000003" class="node">
<title>Node3</title>
<g id="a_Node000003"><a xlink:href="../../da/d5b/classBigInt.html#a3b10bb8ac846314c6e4ad6167e5ec5bf" target="_top" xlink:title=" ">
<polygon fill="white" stroke="#666666" points="203,-74 103,-74 103,-55 203,-55 203,-74"/>
<text text-anchor="middle" x="153" y="-62" font-family="Helvetica,sans-Serif" font-size="10.00">BigInt::normalize</text>
</a>
</g>
</g>
<!-- Node1&#45;&gt;Node3 -->
<g id="edge2_Node000001_Node000003" class="edge">
<title>Node1&#45;&gt;Node3</title>
<g id="a_edge2_Node000001_Node000003"><a xlink:title=" ">
<path fill="none" stroke="#63b8ff" d="M67.23,-64.5C75.14,-64.5 83.83,-64.5 92.55,-64.5"/>
<polygon fill="#63b8ff" stroke="#63b8ff" points="92.74,-68 102.74,-64.5 92.74,-61 92.74,-68"/>
</a>
</g>
</g>
<!-- Node4 -->
<g id="Node000004" class="node">
<title>Node4</title>
<g id="a_Node000004"><a xlink:href="../../da/d5b/classBigInt.html#ad0b220e3ad54190c7cc069355f8d134d" target="_top" xlink:title=" ">
<polygon fill="white" stroke="#666666" points="202.5,-37 103.5,-37 103.5,-18 202.5,-18 202.5,-37"/>
<text text-anchor="middle" x="153" y="-25" font-family="Helvetica,sans-Serif" font-size="10.00">BigInt::realloc_to</text>
</a>
</g>
</g>
<!-- Node1&#45;&gt;Node4 -->
<g id="edge3_Node000001_Node000004" class="edge">
<title>Node1&#45;&gt;Node4</title>
<g id="a_edge3_Node000001_Node000004"><a xlink:title=" ">
<path fill="none" stroke="#63b8ff" d="M64.76,-54.97C79.04,-50.48 96.28,-45.05 111.65,-40.2"/>
<polygon fill="#63b8ff" stroke="#63b8ff" points="112.95,-43.47 121.43,-37.12 110.85,-36.79 112.95,-43.47"/>
</a>
</g>
</g>
<!-- Node5 -->
<g id="Node000005" class="node">
<title>Node5</title>
<g id="a_Node000005"><a xlink:href="../../d8/d09/bigint_8hpp.html#a9026e394fc1db1b74fe5802cac9d3793" target="_top" xlink:title="为 BigInt 分配内存">
<polygon fill="white" stroke="#666666" points="312,-56 239,-56 239,-37 312,-37 312,-56"/>
<text text-anchor="middle" x="275.5" y="-44" font-family="Helvetica,sans-Serif" font-size="10.00">bigint_alloc</text>
</a>
</g>
</g>
<!-- Node4&#45;&gt;Node5 -->
<g id="edge4_Node000004_Node000005" class="edge">
<title>Node4&#45;&gt;Node5</title>
<g id="a_edge4_Node000004_Node000005"><a xlink:title=" ">
<path fill="none" stroke="#63b8ff" d="M202.66,-35.17C211.4,-36.55 220.47,-37.98 229.1,-39.34"/>
<polygon fill="#63b8ff" stroke="#63b8ff" points="228.57,-42.8 238.99,-40.9 229.66,-35.89 228.57,-42.8"/>
</a>
</g>
</g>
<!-- Node6 -->
<g id="Node000006" class="node">
<title>Node6</title>
<g id="a_Node000006"><a xlink:href="../../d8/d09/bigint_8hpp.html#a6fd664dfe6c832ce148d818c5663fa93" target="_top" xlink:title="释放 BigInt 内部分配的内存">
<polygon fill="white" stroke="#666666" points="310,-19 241,-19 241,0 310,0 310,-19"/>
<text text-anchor="middle" x="275.5" y="-7" font-family="Helvetica,sans-Serif" font-size="10.00">bigint_free</text>
</a>
</g>
</g>
<!-- Node4&#45;&gt;Node6 -->
<g id="edge5_Node000004_Node000006" class="edge">
<title>Node4&#45;&gt;Node6</title>
<g id="a_edge5_Node000004_Node000006"><a xlink:title=" ">
<path fill="none" stroke="#63b8ff" d="M202.66,-20.23C211.97,-18.84 221.65,-17.39 230.79,-16.03"/>
<polygon fill="#63b8ff" stroke="#63b8ff" points="231.44,-19.47 240.82,-14.53 230.41,-12.55 231.44,-19.47"/>
</a>
</g>
</g>
</g>
</svg>
</svg>

<style type='text/css'>
<![CDATA[
[data-mouse-over-selected='false'] { opacity: 0.7; }
[data-mouse-over-selected='true']  { opacity: 1.0; }
]]>
</style>
<script type="application/ecmascript"><![CDATA[
document.addEventListener('DOMContentLoaded', (event) => {
  highlightEdges();
  highlightAdjacentNodes();
});
]]></script>
</svg>
