<?xml version="1.0" encoding="UTF-8" standalone="no"?>
<!DOCTYPE svg PUBLIC "-//W3C//DTD SVG 1.1//EN"
 "http://www.w3.org/Graphics/SVG/1.1/DTD/svg11.dtd">
<!-- Generated by graphviz version 2.43.0 (0)
 -->
<!-- Title: BigInt::sqrt Pages: 1 -->
<svg width="231pt" height="86pt"
 viewBox="0.00 0.00 231.00 86.00" xmlns="http://www.w3.org/2000/svg" xmlns:xlink="http://www.w3.org/1999/xlink">
<g id="graph0" class="graph" transform="scale(1 1) rotate(0) translate(4 82)">
<title>BigInt::sqrt</title>
<!-- Node1 -->
<g id="Node000001" class="node">
<title>Node1</title>
<g id="a_Node000001"><a xlink:title="整数平方根（向下取整）">
<polygon fill="#999999" stroke="#666666" points="223,-48.5 153,-48.5 153,-29.5 223,-29.5 223,-48.5"/>
<text text-anchor="middle" x="188" y="-36.5" font-family="Helvetica,sans-Serif" font-size="10.00">BigInt::sqrt</text>
</a>
</g>
</g>
<!-- Node2 -->
<g id="Node000002" class="node">
<title>Node2</title>
<g id="a_Node000002"><a xlink:href="../../da/d5b/classBigInt.html#adf192300968e97bb50deb600a223f87d" target="_top" xlink:title="判断是否为完全平方数">
<polygon fill="white" stroke="#666666" points="108,-78 9,-78 9,-48 108,-48 108,-78"/>
<text text-anchor="start" x="17" y="-66" font-family="Helvetica,sans-Serif" font-size="10.00">BigInt::is_perfect</text>
<text text-anchor="middle" x="58.5" y="-55" font-family="Helvetica,sans-Serif" font-size="10.00">_square</text>
</a>
</g>
</g>
<!-- Node1&#45;&gt;Node2 -->
<g id="edge1_Node000001_Node000002" class="edge">
<title>Node1&#45;&gt;Node2</title>
<g id="a_edge1_Node000001_Node000002"><a xlink:title=" ">
<path fill="none" stroke="#63b8ff" d="M142.84,-47.31C131.64,-49.42 119.55,-51.7 108.14,-53.84"/>
<polygon fill="#63b8ff" stroke="#63b8ff" points="143.65,-50.72 152.83,-45.43 142.36,-43.84 143.65,-50.72"/>
</a>
</g>
</g>
<!-- Node3 -->
<g id="Node000003" class="node">
<title>Node3</title>
<g id="a_Node000003"><a xlink:href="../../d3/da1/classNormalizationVisitor.html#a6ecd1e09442542f78ec6f55c51a79ee6" target="_top" xlink:title=" ">
<polygon fill="white" stroke="#666666" points="117,-30 0,-30 0,0 117,0 117,-30"/>
<text text-anchor="start" x="8" y="-18" font-family="Helvetica,sans-Serif" font-size="10.00">NormalizationVisitor</text>
<text text-anchor="middle" x="58.5" y="-7" font-family="Helvetica,sans-Serif" font-size="10.00">::visit</text>
</a>
</g>
</g>
<!-- Node1&#45;&gt;Node3 -->
<g id="edge2_Node000001_Node000003" class="edge">
<title>Node1&#45;&gt;Node3</title>
<g id="a_edge2_Node000001_Node000003"><a xlink:title=" ">
<path fill="none" stroke="#63b8ff" d="M142.76,-30.67C134.58,-29.13 125.91,-27.5 117.39,-25.9"/>
<polygon fill="#63b8ff" stroke="#63b8ff" points="142.36,-34.16 152.83,-32.57 143.65,-27.28 142.36,-34.16"/>
</a>
</g>
</g>
</g>
</svg>
