<?xml version="1.0" encoding="UTF-8" standalone="no"?>
<!DOCTYPE svg PUBLIC "-//W3C//DTD SVG 1.1//EN"
 "http://www.w3.org/Graphics/SVG/1.1/DTD/svg11.dtd">
<!-- Generated by graphviz version 2.43.0 (0)
 -->
<!-- Title: BigInt::zero Pages: 1 -->
<!--zoomable 229 -->

<svg id="main" version="1.1" xmlns="http://www.w3.org/2000/svg" xmlns:xlink="http://www.w3.org/1999/xlink" xml:space="preserve" onload="init(evt)">
<style type="text/css"><![CDATA[
.node, .edge {opacity: 0.7;}
.node.selected, .edge.selected {opacity: 1;}
.edge:hover path { stroke: red; }
.edge:hover polygon { stroke: red; fill: red; }
]]></style>

<defs>
  <circle id="rim" cx="0" cy="0" r="7"/>
  <circle id="rim2" cx="0" cy="0" r="3.5"/>
  <g id="zoomPlus">
    <use xlink:href="#rim" fill="#404040"><set attributeName="fill" to="#808080" begin="zoomplus.mouseover" end="zoomplus.mouseout"/></use>
    <path d="M-4,0h8M0,-4v8" fill="none" stroke="white" stroke-width="1.5" pointer-events="none"/>
  </g>
  <g id="zoomMin">
    <use xlink:href="#rim" fill="#404040"><set attributeName="fill" to="#808080" begin="zoomminus.mouseover" end="zoomminus.mouseout"/></use>
    <path d="M-4,0h8" fill="none" stroke="white" stroke-width="1.5" pointer-events="none"/>
  </g>
  <g id="arrowUp" transform="translate(30 24)">
    <use xlink:href="#rim"/>
    <path pointer-events="none" fill="none" stroke="white" stroke-width="1.5" d="M0,-3.0v7 M-2.5,-0.5L0,-3.0L2.5,-0.5"/>
  </g>
  <g id="arrowRight" transform="rotate(90) translate(36 -43)">
    <use xlink:href="#rim"/>
    <path pointer-events="none" fill="none" stroke="white" stroke-width="1.5" d="M0,-3.0v7 M-2.5,-0.5L0,-3.0L2.5,-0.5"/>
  </g>
  <g id="arrowDown" transform="rotate(180) translate(-30 -48)">
    <use xlink:href="#rim"/>
    <path pointer-events="none" fill="none" stroke="white" stroke-width="1.5" d="M0,-3.0v7 M-2.5,-0.5L0,-3.0L2.5,-0.5"/>
  </g>
  <g id="arrowLeft" transform="rotate(270) translate(-36 17)">
    <use xlink:href="#rim"/>
    <path pointer-events="none" fill="none" stroke="white" stroke-width="1.5" d="M0,-3.0v7 M-2.5,-0.5L0,-3.0L2.5,-0.5"/>
  </g>
  <g id="resetDef">
    <use xlink:href="#rim2" fill="#404040"><set attributeName="fill" to="#808080" begin="reset.mouseover" end="reset.mouseout"/></use>
  </g>
</defs>
<script type="application/ecmascript">
var viewWidth = 887;
var viewHeight = 229;
var sectionId = 'dynsection-59';
</script>
<script type="application/ecmascript" xlink:href="../../svg.min.js"/>
<svg id="graph" class="graph">
<g id="viewport">
<title>BigInt::zero</title>
<!-- Node1 -->
<g id="Node000001" class="node">
<title>Node1</title>
<g id="a_Node000001"><a xlink:title=" ">
<polygon fill="#999999" stroke="#666666" points="879,-146.5 807,-146.5 807,-127.5 879,-127.5 879,-146.5"/>
<text text-anchor="middle" x="843" y="-134.5" font-family="Helvetica,sans-Serif" font-size="10.00">BigInt::zero</text>
</a>
</g>
</g>
<!-- Node2 -->
<g id="Node000002" class="node">
<title>Node2</title>
<g id="a_Node000002"><a xlink:href="../../da/d5b/classBigInt.html#a35bd468d1f1b248fa8601e98d9e28095" target="_top" xlink:title="拷贝构造">
<polygon fill="white" stroke="#666666" points="761.5,-220.5 681.5,-220.5 681.5,-201.5 761.5,-201.5 761.5,-220.5"/>
<text text-anchor="middle" x="721.5" y="-208.5" font-family="Helvetica,sans-Serif" font-size="10.00">BigInt::BigInt</text>
</a>
</g>
</g>
<!-- Node1&#45;&gt;Node2 -->
<g id="edge1_Node000001_Node000002" class="edge">
<title>Node1&#45;&gt;Node2</title>
<g id="a_edge1_Node000001_Node000002"><a xlink:title=" ">
<path fill="none" stroke="#63b8ff" d="M823.99,-153.82C810.28,-165.95 790.5,-182.05 771,-193 765.28,-196.21 758.88,-199.05 752.65,-201.48"/>
<polygon fill="#63b8ff" stroke="#63b8ff" points="826.62,-156.16 831.69,-146.86 821.92,-150.97 826.62,-156.16"/>
</a>
</g>
</g>
<!-- Node3 -->
<g id="Node000003" class="node">
<title>Node3</title>
<g id="a_Node000003"><a xlink:href="../../da/d5b/classBigInt.html#a16bbefa943f95ff3e18625216ed56e76" target="_top" xlink:title="从十进制字符串构造">
<polygon fill="white" stroke="#666666" points="761.5,-183.5 681.5,-183.5 681.5,-164.5 761.5,-164.5 761.5,-183.5"/>
<text text-anchor="middle" x="721.5" y="-171.5" font-family="Helvetica,sans-Serif" font-size="10.00">BigInt::BigInt</text>
</a>
</g>
</g>
<!-- Node1&#45;&gt;Node3 -->
<g id="edge2_Node000001_Node000003" class="edge">
<title>Node1&#45;&gt;Node3</title>
<g id="a_edge2_Node000001_Node000003"><a xlink:title=" ">
<path fill="none" stroke="#63b8ff" d="M801.3,-149.6C785.69,-154.43 768.15,-159.87 753.59,-164.38"/>
<polygon fill="#63b8ff" stroke="#63b8ff" points="802.71,-152.83 811.23,-146.53 800.64,-146.14 802.71,-152.83"/>
</a>
</g>
</g>
<!-- Node4 -->
<g id="Node000004" class="node">
<title>Node4</title>
<g id="a_Node000004"><a xlink:href="../../da/d5b/classBigInt.html#af2d9aed1aeff8bcb1a1d7a59add76a2c" target="_top" xlink:title="从 long long 构造">
<polygon fill="white" stroke="#666666" points="761.5,-146.5 681.5,-146.5 681.5,-127.5 761.5,-127.5 761.5,-146.5"/>
<text text-anchor="middle" x="721.5" y="-134.5" font-family="Helvetica,sans-Serif" font-size="10.00">BigInt::BigInt</text>
</a>
</g>
</g>
<!-- Node1&#45;&gt;Node4 -->
<g id="edge3_Node000001_Node000004" class="edge">
<title>Node1&#45;&gt;Node4</title>
<g id="a_edge3_Node000001_Node000004"><a xlink:title=" ">
<path fill="none" stroke="#63b8ff" d="M796.51,-137C785.02,-137 772.78,-137 761.64,-137"/>
<polygon fill="#63b8ff" stroke="#63b8ff" points="796.79,-140.5 806.79,-137 796.79,-133.5 796.79,-140.5"/>
</a>
</g>
</g>
<!-- Node5 -->
<g id="Node000005" class="node">
<title>Node5</title>
<g id="a_Node000005"><a xlink:href="../../da/d5b/classBigInt.html#a6fb191fedc31c98b75d6a6e14dcf1648" target="_top" xlink:title="从 unsigned long long 构造">
<polygon fill="white" stroke="#666666" points="761.5,-109.5 681.5,-109.5 681.5,-90.5 761.5,-90.5 761.5,-109.5"/>
<text text-anchor="middle" x="721.5" y="-97.5" font-family="Helvetica,sans-Serif" font-size="10.00">BigInt::BigInt</text>
</a>
</g>
</g>
<!-- Node1&#45;&gt;Node5 -->
<g id="edge4_Node000001_Node000005" class="edge">
<title>Node1&#45;&gt;Node5</title>
<g id="a_edge4_Node000001_Node000005"><a xlink:title=" ">
<path fill="none" stroke="#63b8ff" d="M801.3,-124.4C785.69,-119.57 768.15,-114.13 753.59,-109.62"/>
<polygon fill="#63b8ff" stroke="#63b8ff" points="800.64,-127.86 811.23,-127.47 802.71,-121.17 800.64,-127.86"/>
</a>
</g>
</g>
<!-- Node6 -->
<g id="Node000006" class="node">
<title>Node6</title>
<g id="a_Node000006"><a xlink:href="../../da/d5b/classBigInt.html#acd9ec152950d6a11a2843f6f0cb9487b" target="_top" xlink:title="转换为浮点数">
<polygon fill="white" stroke="#666666" points="771,-72.5 672,-72.5 672,-53.5 771,-53.5 771,-72.5"/>
<text text-anchor="middle" x="721.5" y="-60.5" font-family="Helvetica,sans-Serif" font-size="10.00">BigInt::to_double</text>
</a>
</g>
</g>
<!-- Node1&#45;&gt;Node6 -->
<g id="edge5_Node000001_Node000006" class="edge">
<title>Node1&#45;&gt;Node6</title>
<g id="a_edge5_Node000001_Node000006"><a xlink:title=" ">
<path fill="none" stroke="#63b8ff" d="M823.99,-120.18C810.28,-108.05 790.5,-91.95 771,-81 765.28,-77.79 758.88,-74.95 752.65,-72.52"/>
<polygon fill="#63b8ff" stroke="#63b8ff" points="821.92,-123.03 831.69,-127.14 826.62,-117.84 821.92,-123.03"/>
</a>
</g>
</g>
<!-- Node7 -->
<g id="Node000007" class="node">
<title>Node7</title>
<g id="a_Node000007"><a xlink:href="../../d8/da7/classRational.html#a800a24b7e1ff559f465742b96da8db35" target="_top" xlink:title="转换为浮点数">
<polygon fill="white" stroke="#666666" points="633,-115.5 522,-115.5 522,-96.5 633,-96.5 633,-115.5"/>
<text text-anchor="middle" x="577.5" y="-103.5" font-family="Helvetica,sans-Serif" font-size="10.00">Rational::to_double</text>
</a>
</g>
</g>
<!-- Node6&#45;&gt;Node7 -->
<g id="edge6_Node000006_Node000007" class="edge">
<title>Node6&#45;&gt;Node7</title>
<g id="a_edge6_Node000006_Node000007"><a xlink:title=" ">
<path fill="none" stroke="#63b8ff" d="M679.2,-75.51C657.1,-82.2 630.31,-90.31 609.93,-96.48"/>
<polygon fill="#63b8ff" stroke="#63b8ff" points="680.43,-78.79 688.99,-72.54 678.4,-72.09 680.43,-78.79"/>
</a>
</g>
</g>
<!-- Node13 -->
<g id="Node000013" class="node">
<title>Node13</title>
<g id="a_Node000013"><a xlink:href="../../d3/da1/classNormalizationVisitor.html#a7026607e231a8b38c0ba77245c3497e3" target="_top" xlink:title=" ">
<polygon fill="white" stroke="#666666" points="636,-78 519,-78 519,-48 636,-48 636,-78"/>
<text text-anchor="start" x="527" y="-66" font-family="Helvetica,sans-Serif" font-size="10.00">NormalizationVisitor</text>
<text text-anchor="middle" x="577.5" y="-55" font-family="Helvetica,sans-Serif" font-size="10.00">::visit</text>
</a>
</g>
</g>
<!-- Node6&#45;&gt;Node13 -->
<g id="edge13_Node000006_Node000013" class="edge">
<title>Node6&#45;&gt;Node13</title>
<g id="a_edge13_Node000006_Node000013"><a xlink:title=" ">
<path fill="none" stroke="#63b8ff" d="M661.57,-63C653.21,-63 644.61,-63 636.27,-63"/>
<polygon fill="#63b8ff" stroke="#63b8ff" points="661.63,-66.5 671.63,-63 661.63,-59.5 661.63,-66.5"/>
</a>
</g>
</g>
<!-- Node14 -->
<g id="Node000014" class="node">
<title>Node14</title>
<g id="a_Node000014"><a xlink:href="../../d3/da1/classNormalizationVisitor.html#aff24e5c4e21638eff21eebe6a6fc567f" target="_top" xlink:title=" ">
<polygon fill="white" stroke="#666666" points="636,-30 519,-30 519,0 636,0 636,-30"/>
<text text-anchor="start" x="527" y="-18" font-family="Helvetica,sans-Serif" font-size="10.00">NormalizationVisitor</text>
<text text-anchor="middle" x="577.5" y="-7" font-family="Helvetica,sans-Serif" font-size="10.00">::visit</text>
</a>
</g>
</g>
<!-- Node6&#45;&gt;Node14 -->
<g id="edge14_Node000006_Node000014" class="edge">
<title>Node6&#45;&gt;Node14</title>
<g id="a_edge14_Node000006_Node000014"><a xlink:title=" ">
<path fill="none" stroke="#63b8ff" d="M682.38,-50.11C664.11,-43.94 642.1,-36.5 623.06,-30.06"/>
<polygon fill="#63b8ff" stroke="#63b8ff" points="681.51,-53.52 692.11,-53.4 683.75,-46.88 681.51,-53.52"/>
</a>
</g>
</g>
<!-- Node8 -->
<g id="Node000008" class="node">
<title>Node8</title>
<g id="a_Node000008"><a xlink:href="../../d1/d42/namespacelamina.html#a67cbeb787714a13d138e663951330c38" target="_top" xlink:title=" ">
<polygon fill="white" stroke="#666666" points="483,-121 379,-121 379,-91 483,-91 483,-121"/>
<text text-anchor="start" x="387" y="-109" font-family="Helvetica,sans-Serif" font-size="10.00">lamina::find_roots</text>
<text text-anchor="middle" x="431" y="-98" font-family="Helvetica,sans-Serif" font-size="10.00">_with_multiplicity</text>
</a>
</g>
</g>
<!-- Node7&#45;&gt;Node8 -->
<g id="edge7_Node000007_Node000008" class="edge">
<title>Node7&#45;&gt;Node8</title>
<g id="a_edge7_Node000007_Node000008"><a xlink:title=" ">
<path fill="none" stroke="#63b8ff" d="M511.68,-106C502.19,-106 492.54,-106 483.37,-106"/>
<polygon fill="#63b8ff" stroke="#63b8ff" points="511.87,-109.5 521.87,-106 511.87,-102.5 511.87,-109.5"/>
</a>
</g>
</g>
<!-- Node9 -->
<g id="Node000009" class="node">
<title>Node9</title>
<g id="a_Node000009"><a xlink:href="../../db/d26/classlamina_1_1InequalitySolver.html#ad7aab28f2d96ad0eb07ff291a650afb8" target="_top" xlink:title="求解单个不等式">
<polygon fill="white" stroke="#666666" points="338,-145 202,-145 202,-115 338,-115 338,-145"/>
<text text-anchor="start" x="210" y="-133" font-family="Helvetica,sans-Serif" font-size="10.00">lamina::InequalitySolver</text>
<text text-anchor="middle" x="270" y="-122" font-family="Helvetica,sans-Serif" font-size="10.00">::solve_inequality</text>
</a>
</g>
</g>
<!-- Node8&#45;&gt;Node9 -->
<g id="edge8_Node000008_Node000009" class="edge">
<title>Node8&#45;&gt;Node9</title>
<g id="a_edge8_Node000008_Node000009"><a xlink:title=" ">
<path fill="none" stroke="#63b8ff" d="M368.89,-115.22C358.8,-116.75 348.28,-118.33 338.05,-119.88"/>
<polygon fill="#63b8ff" stroke="#63b8ff" points="369.45,-118.68 378.82,-113.73 368.41,-111.76 369.45,-118.68"/>
</a>
</g>
</g>
<!-- Node12 -->
<g id="Node000012" class="node">
<title>Node12</title>
<g id="a_Node000012"><a xlink:href="../../db/d26/classlamina_1_1InequalitySolver.html#a2244f0ce0ad6b3b5781a8c7ced636447" target="_top" xlink:title="求解有理不等式 numerator/denominator ≷ 0">
<polygon fill="white" stroke="#666666" points="343,-97 197,-97 197,-67 343,-67 343,-97"/>
<text text-anchor="start" x="205" y="-85" font-family="Helvetica,sans-Serif" font-size="10.00">lamina::InequalitySolver</text>
<text text-anchor="middle" x="270" y="-74" font-family="Helvetica,sans-Serif" font-size="10.00">::solve_rational_inequality</text>
</a>
</g>
</g>
<!-- Node8&#45;&gt;Node12 -->
<g id="edge12_Node000008_Node000012" class="edge">
<title>Node8&#45;&gt;Node12</title>
<g id="a_edge12_Node000008_Node000012"><a xlink:title=" ">
<path fill="none" stroke="#63b8ff" d="M368.78,-96.76C360.41,-95.5 351.76,-94.19 343.23,-92.9"/>
<polygon fill="#63b8ff" stroke="#63b8ff" points="368.41,-100.24 378.82,-98.27 369.45,-93.32 368.41,-100.24"/>
</a>
</g>
</g>
<!-- Node10 -->
<g id="Node000010" class="node">
<title>Node10</title>
<g id="a_Node000010"><a xlink:href="../../db/d26/classlamina_1_1InequalitySolver.html#ac97e2561a906111e54c90d494d0fef92" target="_top" xlink:title="求解不等式组（取交集）">
<polygon fill="white" stroke="#666666" points="148.5,-178 12.5,-178 12.5,-148 148.5,-148 148.5,-178"/>
<text text-anchor="start" x="20.5" y="-166" font-family="Helvetica,sans-Serif" font-size="10.00">lamina::InequalitySolver</text>
<text text-anchor="middle" x="80.5" y="-155" font-family="Helvetica,sans-Serif" font-size="10.00">::solve_inequalities</text>
</a>
</g>
</g>
<!-- Node9&#45;&gt;Node10 -->
<g id="edge9_Node000009_Node000010" class="edge">
<title>Node9&#45;&gt;Node10</title>
<g id="a_edge9_Node000009_Node000010"><a xlink:title=" ">
<path fill="none" stroke="#63b8ff" d="M191.96,-143.56C177.55,-146.1 162.59,-148.73 148.51,-151.21"/>
<polygon fill="#63b8ff" stroke="#63b8ff" points="192.6,-147 201.84,-141.82 191.38,-140.11 192.6,-147"/>
</a>
</g>
</g>
<!-- Node11 -->
<g id="Node000011" class="node">
<title>Node11</title>
<g id="a_Node000011"><a xlink:href="../../db/d26/classlamina_1_1InequalitySolver.html#a52f3cb8d15f7d98c4cfe1d8c39f910fc" target="_top" xlink:title="求解含参数的不等式，返回分段结果">
<polygon fill="white" stroke="#666666" points="161,-112 0,-112 0,-82 161,-82 161,-112"/>
<text text-anchor="start" x="8" y="-100" font-family="Helvetica,sans-Serif" font-size="10.00">lamina::InequalitySolver</text>
<text text-anchor="middle" x="80.5" y="-89" font-family="Helvetica,sans-Serif" font-size="10.00">::solve_parametric_inequality</text>
</a>
</g>
</g>
<!-- Node9&#45;&gt;Node11 -->
<g id="edge10_Node000009_Node000011" class="edge">
<title>Node9&#45;&gt;Node11</title>
<g id="a_edge10_Node000009_Node000011"><a xlink:title=" ">
<path fill="none" stroke="#63b8ff" d="M191.86,-116.42C181.78,-114.65 171.43,-112.83 161.31,-111.05"/>
<polygon fill="#63b8ff" stroke="#63b8ff" points="191.38,-119.89 201.84,-118.18 192.6,-113 191.38,-119.89"/>
</a>
</g>
</g>
<!-- Node11&#45;&gt;Node11 -->
<g id="edge11_Node000011_Node000011" class="edge">
<title>Node11&#45;&gt;Node11</title>
<g id="a_edge11_Node000011_Node000011"><a xlink:title=" ">
<path fill="none" stroke="#63b8ff" d="M113.41,-122.6C108.91,-126.97 97.94,-130 80.5,-130 51.12,-130 40.11,-121.41 47.45,-112.28"/>
<polygon fill="#63b8ff" stroke="#63b8ff" points="116.91,-122.32 113.55,-112.28 109.91,-122.23 116.91,-122.32"/>
</a>
</g>
</g>
</g>
</svg>

<g id="navigator" transform="translate(0 0)" fill="#404254">
  <rect fill="#f2f5e9" fill-opacity="0.5" stroke="#606060" stroke-width=".5" x="0" y="0" width="60" height="60"/>
  <use id="zoomplus" xlink:href="#zoomPlus" x="17" y="9" onmousedown="handleZoom(evt,'in')"/>
  <use id="zoomminus" xlink:href="#zoomMin" x="42" y="9" onmousedown="handleZoom(evt,'out')"/>
  <use id="reset" xlink:href="#resetDef" x="30" y="36" onmousedown="handleReset()"/>
   <use id="arrowup" xlink:href="#arrowUp" x="0" y="0" onmousedown="handlePan(0,-1)"/>
  <use id="arrowright" xlink:href="#arrowRight" x="0" y="0" onmousedown="handlePan(1,0)"/>
  <use id="arrowdown" xlink:href="#arrowDown" x="0" y="0" onmousedown="handlePan(0,1)"/>
  <use id="arrowleft" xlink:href="#arrowLeft" x="0" y="0" onmousedown="handlePan(-1,0)"/>
</g>
<svg viewBox="0 0 15 15" width="100%" height="30px" preserveAspectRatio="xMaxYMin meet">
 <g id="arrow_out" transform="scale(0.3 0.3)">
  <a xlink:href="classBigInt_a1c516f24b4bc5b93f574e70d1ff45756_icgraph_org.svg" target="_base">
   <rect id="button" ry="5" rx="5" y="6" x="6" height="38" width="38"
        fill="#f2f5e9" fill-opacity="0.5" stroke="#606060" stroke-width="1.0"/>
   <path id="arrow"
     d="M 11.500037,31.436501 C 11.940474,20.09759 22.043105,11.32322 32.158766,21.979434 L 37.068811,17.246167 C 37.068811,17.246167 37.088388,32 37.088388,32 L 22.160133,31.978069 C 22.160133,31.978069 26.997745,27.140456 26.997745,27.140456 C 18.528582,18.264221 13.291696,25.230495 11.500037,31.436501 z"
     style="fill:#404040;"/>
  </a>
 </g>
</svg>

<style type='text/css'>
<![CDATA[
[data-mouse-over-selected='false'] { opacity: 0.7; }
[data-mouse-over-selected='true']  { opacity: 1.0; }
]]>
</style>
<script type="application/ecmascript"><![CDATA[
document.addEventListener('DOMContentLoaded', (event) => {
  highlightEdges();
  highlightAdjacentNodes();
});
]]></script>
</svg>
