<?xml version="1.0" encoding="UTF-8" standalone="no"?>
<!DOCTYPE svg PUBLIC "-//W3C//DTD SVG 1.1//EN"
 "http://www.w3.org/Graphics/SVG/1.1/DTD/svg11.dtd">
<!-- Generated by graphviz version 2.43.0 (0)
 -->
<!-- Title: BigInt::power Pages: 1 -->
<svg width="456pt" height="120pt"
 viewBox="0.00 0.00 456.00 120.00" xmlns="http://www.w3.org/2000/svg" xmlns:xlink="http://www.w3.org/1999/xlink">
<g id="graph0" class="graph" transform="scale(1 1) rotate(0) translate(4 116)">
<title>BigInt::power</title>
<!-- Node1 -->
<g id="Node000001" class="node">
<title>Node1</title>
<g id="a_Node000001"><a xlink:title="整数幂运算（BigInt 指数）">
<polygon fill="#999999" stroke="#666666" points="81,-74 0,-74 0,-55 81,-55 81,-74"/>
<text text-anchor="middle" x="40.5" y="-62" font-family="Helvetica,sans-Serif" font-size="10.00">BigInt::power</text>
</a>
</g>
</g>
<!-- Node2 -->
<g id="Node000002" class="node">
<title>Node2</title>
<g id="a_Node000002"><a xlink:href="../../da/d5b/classBigInt.html#af677021c0987fc2a48da06837ed29c58" target="_top" xlink:title="默认构造，值为 0">
<polygon fill="white" stroke="#666666" points="329,-112 249,-112 249,-93 329,-93 329,-112"/>
<text text-anchor="middle" x="289" y="-100" font-family="Helvetica,sans-Serif" font-size="10.00">BigInt::BigInt</text>
</a>
</g>
</g>
<!-- Node1&#45;&gt;Node2 -->
<g id="edge1_Node000001_Node000002" class="edge">
<title>Node1&#45;&gt;Node2</title>
<g id="a_edge1_Node000001_Node000002"><a xlink:title=" ">
<path fill="none" stroke="#63b8ff" d="M55.48,-74.06C70.08,-83.42 94.01,-97.04 117,-102.5 157.05,-112.01 203.88,-111.22 238.4,-108.49"/>
<polygon fill="#63b8ff" stroke="#63b8ff" points="239.03,-111.95 248.69,-107.6 238.43,-104.98 239.03,-111.95"/>
</a>
</g>
</g>
<!-- Node3 -->
<g id="Node000003" class="node">
<title>Node3</title>
<g id="a_Node000003"><a xlink:href="../../da/d5b/classBigInt.html#a6ae37e804e0989cb245f32f90a2d5f64" target="_top" xlink:title="判断是否为零">
<polygon fill="white" stroke="#666666" points="203,-93 117,-93 117,-74 203,-74 203,-93"/>
<text text-anchor="middle" x="160" y="-81" font-family="Helvetica,sans-Serif" font-size="10.00">BigInt::is_zero</text>
</a>
</g>
</g>
<!-- Node1&#45;&gt;Node3 -->
<g id="edge2_Node000001_Node000003" class="edge">
<title>Node1&#45;&gt;Node3</title>
<g id="a_edge2_Node000001_Node000003"><a xlink:title=" ">
<path fill="none" stroke="#63b8ff" d="M81.28,-70.93C89.51,-72.26 98.3,-73.68 106.89,-75.07"/>
<polygon fill="#63b8ff" stroke="#63b8ff" points="106.42,-78.54 116.85,-76.68 107.54,-71.63 106.42,-78.54"/>
</a>
</g>
</g>
<!-- Node4 -->
<g id="Node000004" class="node">
<title>Node4</title>
<g id="a_Node000004"><a xlink:href="../../da/d5b/classBigInt.html#a3b10bb8ac846314c6e4ad6167e5ec5bf" target="_top" xlink:title=" ">
<polygon fill="white" stroke="#666666" points="339,-19 239,-19 239,0 339,0 339,-19"/>
<text text-anchor="middle" x="289" y="-7" font-family="Helvetica,sans-Serif" font-size="10.00">BigInt::normalize</text>
</a>
</g>
</g>
<!-- Node1&#45;&gt;Node4 -->
<g id="edge3_Node000001_Node000004" class="edge">
<title>Node1&#45;&gt;Node4</title>
<g id="a_edge3_Node000001_Node000004"><a xlink:title=" ">
<path fill="none" stroke="#63b8ff" d="M57.38,-54.99C72.24,-46.57 95.35,-34.67 117,-28.5 153.31,-18.14 195.46,-13.38 228.83,-11.22"/>
<polygon fill="#63b8ff" stroke="#63b8ff" points="229.11,-14.71 238.89,-10.62 228.7,-7.72 229.11,-14.71"/>
</a>
</g>
</g>
<!-- Node5 -->
<g id="Node000005" class="node">
<title>Node5</title>
<g id="a_Node000005"><a xlink:href="../../da/d5b/classBigInt.html#ac5d50e001791835b70c84cdac9b74e88" target="_top" xlink:title="整数幂运算">
<polygon fill="white" stroke="#666666" points="200.5,-56 119.5,-56 119.5,-37 200.5,-37 200.5,-56"/>
<text text-anchor="middle" x="160" y="-44" font-family="Helvetica,sans-Serif" font-size="10.00">BigInt::power</text>
</a>
</g>
</g>
<!-- Node1&#45;&gt;Node5 -->
<g id="edge4_Node000001_Node000005" class="edge">
<title>Node1&#45;&gt;Node5</title>
<g id="a_edge4_Node000001_Node000005"><a xlink:title=" ">
<path fill="none" stroke="#63b8ff" d="M81.28,-58.41C90.28,-57.03 99.94,-55.55 109.29,-54.12"/>
<polygon fill="#63b8ff" stroke="#63b8ff" points="109.91,-57.56 119.26,-52.59 108.85,-50.64 109.91,-57.56"/>
</a>
</g>
</g>
<!-- Node5&#45;&gt;Node2 -->
<g id="edge5_Node000005_Node000002" class="edge">
<title>Node5&#45;&gt;Node2</title>
<g id="a_edge5_Node000005_Node000002"><a xlink:title=" ">
<path fill="none" stroke="#63b8ff" d="M182.83,-56.13C203.31,-65.16 234.14,-78.75 257.13,-88.89"/>
<polygon fill="#63b8ff" stroke="#63b8ff" points="255.89,-92.17 266.45,-93 258.71,-85.76 255.89,-92.17"/>
</a>
</g>
</g>
<!-- Node5&#45;&gt;Node4 -->
<g id="edge6_Node000005_Node000004" class="edge">
<title>Node5&#45;&gt;Node4</title>
<g id="a_edge6_Node000005_Node000004"><a xlink:title=" ">
<path fill="none" stroke="#63b8ff" d="M193.71,-36.97C209.43,-32.39 228.49,-26.84 245.34,-21.93"/>
<polygon fill="#63b8ff" stroke="#63b8ff" points="246.34,-25.28 254.96,-19.12 244.38,-18.56 246.34,-25.28"/>
</a>
</g>
</g>
<!-- Node6 -->
<g id="Node000006" class="node">
<title>Node6</title>
<g id="a_Node000006"><a xlink:href="../../da/d5b/classBigInt.html#ad0b220e3ad54190c7cc069355f8d134d" target="_top" xlink:title=" ">
<polygon fill="white" stroke="#666666" points="338.5,-56 239.5,-56 239.5,-37 338.5,-37 338.5,-56"/>
<text text-anchor="middle" x="289" y="-44" font-family="Helvetica,sans-Serif" font-size="10.00">BigInt::realloc_to</text>
</a>
</g>
</g>
<!-- Node5&#45;&gt;Node6 -->
<g id="edge7_Node000005_Node000006" class="edge">
<title>Node5&#45;&gt;Node6</title>
<g id="a_edge7_Node000005_Node000006"><a xlink:title=" ">
<path fill="none" stroke="#63b8ff" d="M200.84,-46.5C209.81,-46.5 219.52,-46.5 229.09,-46.5"/>
<polygon fill="#63b8ff" stroke="#63b8ff" points="229.38,-50 239.38,-46.5 229.38,-43 229.38,-50"/>
</a>
</g>
</g>
<!-- Node7 -->
<g id="Node000007" class="node">
<title>Node7</title>
<g id="a_Node000007"><a xlink:href="../../d8/d09/bigint_8hpp.html#a9026e394fc1db1b74fe5802cac9d3793" target="_top" xlink:title="为 BigInt 分配内存">
<polygon fill="white" stroke="#666666" points="448,-75 375,-75 375,-56 448,-56 448,-75"/>
<text text-anchor="middle" x="411.5" y="-63" font-family="Helvetica,sans-Serif" font-size="10.00">bigint_alloc</text>
</a>
</g>
</g>
<!-- Node6&#45;&gt;Node7 -->
<g id="edge8_Node000006_Node000007" class="edge">
<title>Node6&#45;&gt;Node7</title>
<g id="a_edge8_Node000006_Node000007"><a xlink:title=" ">
<path fill="none" stroke="#63b8ff" d="M338.66,-54.17C347.4,-55.55 356.47,-56.98 365.1,-58.34"/>
<polygon fill="#63b8ff" stroke="#63b8ff" points="364.57,-61.8 374.99,-59.9 365.66,-54.89 364.57,-61.8"/>
</a>
</g>
</g>
<!-- Node8 -->
<g id="Node000008" class="node">
<title>Node8</title>
<g id="a_Node000008"><a xlink:href="../../d8/d09/bigint_8hpp.html#a6fd664dfe6c832ce148d818c5663fa93" target="_top" xlink:title="释放 BigInt 内部分配的内存">
<polygon fill="white" stroke="#666666" points="446,-38 377,-38 377,-19 446,-19 446,-38"/>
<text text-anchor="middle" x="411.5" y="-26" font-family="Helvetica,sans-Serif" font-size="10.00">bigint_free</text>
</a>
</g>
</g>
<!-- Node6&#45;&gt;Node8 -->
<g id="edge9_Node000006_Node000008" class="edge">
<title>Node6&#45;&gt;Node8</title>
<g id="a_edge9_Node000006_Node000008"><a xlink:title=" ">
<path fill="none" stroke="#63b8ff" d="M338.66,-39.23C347.97,-37.84 357.65,-36.39 366.79,-35.03"/>
<polygon fill="#63b8ff" stroke="#63b8ff" points="367.44,-38.47 376.82,-33.53 366.41,-31.55 367.44,-38.47"/>
</a>
</g>
</g>
</g>
</svg>
