<?xml version="1.0" encoding="UTF-8" standalone="no"?>
<!DOCTYPE svg PUBLIC "-//W3C//DTD SVG 1.1//EN"
 "http://www.w3.org/Graphics/SVG/1.1/DTD/svg11.dtd">
<!-- Generated by graphviz version 2.43.0 (0)
 -->
<!-- Title: lmmp_mul_toom42_ Pages: 1 -->
<svg width="439pt" height="393pt"
 viewBox="0.00 0.00 439.00 393.00" xmlns="http://www.w3.org/2000/svg" xmlns:xlink="http://www.w3.org/1999/xlink">

<svg id="main" version="1.1" xmlns="http://www.w3.org/2000/svg" xmlns:xlink="http://www.w3.org/1999/xlink" xml:space="preserve" onload="init(evt)">
<style type="text/css"><![CDATA[
.node, .edge {opacity: 0.7;}
.node.selected, .edge.selected {opacity: 1;}
.edge:hover path { stroke: red; }
.edge:hover polygon { stroke: red; fill: red; }
]]></style>
<script type="application/ecmascript" xlink:href="../../svg.min.js"/>
<svg id="graph" class="graph">
<g id="graph0" class="graph" transform="scale(1 1) rotate(0) translate(4 389)">
<title>lmmp_mul_toom42_</title>
<!-- Node1 -->
<g id="Node000001" class="node">
<title>Node1</title>
<g id="a_Node000001"><a xlink:title=" ">
<polygon fill="#999999" stroke="#666666" points="117,-185 0,-185 0,-166 117,-166 117,-185"/>
<text text-anchor="middle" x="58.5" y="-173" font-family="Helvetica,sans-Serif" font-size="10.00">lmmp_mul_toom42_</text>
</a>
</g>
</g>
<!-- Node2 -->
<g id="Node000002" class="node">
<title>Node2</title>
<g id="a_Node000002"><a xlink:href="../../d6/d39/lmmpn_8h.html#a1eb04fffd70d523647b7b4ed64a438c5" target="_top" xlink:title="大数加法静态内联函数 [dst,na]=[numa,na]+[numb,nb]">
<polygon fill="white" stroke="#666666" points="250.5,-333 176.5,-333 176.5,-314 250.5,-314 250.5,-333"/>
<text text-anchor="middle" x="213.5" y="-321" font-family="Helvetica,sans-Serif" font-size="10.00">lmmp_add_</text>
</a>
</g>
</g>
<!-- Node1&#45;&gt;Node2 -->
<g id="edge1_Node000001_Node000002" class="edge">
<title>Node1&#45;&gt;Node2</title>
<g id="a_edge1_Node000001_Node000002"><a xlink:title=" ">
<path fill="none" stroke="#63b8ff" d="M65.86,-185.11C79.83,-205.69 114.95,-254.82 153,-287.5 162.49,-295.65 174.05,-303.11 184.45,-309.09"/>
<polygon fill="#63b8ff" stroke="#63b8ff" points="182.76,-312.15 193.2,-313.95 186.16,-306.03 182.76,-312.15"/>
</a>
</g>
</g>
<!-- Node3 -->
<g id="Node000003" class="node">
<title>Node3</title>
<g id="a_Node000003"><a xlink:href="../../da/dc7/add__n_8c.html#afa05758121cca6aa6b21256d5a959871" target="_top" xlink:title="无进位的n位加法 [dst,n] = [numa,n] + [numb,n]">
<polygon fill="white" stroke="#666666" points="413,-385 328,-385 328,-366 413,-366 413,-385"/>
<text text-anchor="middle" x="370.5" y="-373" font-family="Helvetica,sans-Serif" font-size="10.00">lmmp_add_n_</text>
</a>
</g>
</g>
<!-- Node1&#45;&gt;Node3 -->
<g id="edge4_Node000001_Node000003" class="edge">
<title>Node1&#45;&gt;Node3</title>
<g id="a_edge4_Node000001_Node000003"><a xlink:title=" ">
<path fill="none" stroke="#63b8ff" d="M61.7,-185.05C68.97,-214.18 95.09,-302.39 153,-342.5 201.38,-376.01 270.41,-381.06 317.43,-379.82"/>
<polygon fill="#63b8ff" stroke="#63b8ff" points="317.83,-383.31 327.7,-379.44 317.58,-376.31 317.83,-383.31"/>
</a>
</g>
</g>
<!-- Node4 -->
<g id="Node000004" class="node">
<title>Node4</title>
<g id="a_Node000004"><a xlink:href="../../d6/d39/lmmpn_8h.html#a344093e8760ed368490d9a527ea2c6e9" target="_top" xlink:title="大数加单精度数静态内联函数 [dst,na]=[numa,na]+x">
<polygon fill="white" stroke="#666666" points="256,-241 171,-241 171,-222 256,-222 256,-241"/>
<text text-anchor="middle" x="213.5" y="-229" font-family="Helvetica,sans-Serif" font-size="10.00">lmmp_add_1_</text>
</a>
</g>
</g>
<!-- Node1&#45;&gt;Node4 -->
<g id="edge3_Node000001_Node000004" class="edge">
<title>Node1&#45;&gt;Node4</title>
<g id="a_edge3_Node000001_Node000004"><a xlink:title=" ">
<path fill="none" stroke="#63b8ff" d="M81.57,-185.14C100.38,-193.2 128.22,-204.74 153,-213.5 158.21,-215.34 163.73,-217.17 169.21,-218.91"/>
<polygon fill="#63b8ff" stroke="#63b8ff" points="168.38,-222.32 178.97,-221.95 170.46,-215.64 168.38,-222.32"/>
</a>
</g>
</g>
<!-- Node5 -->
<g id="Node000005" class="node">
<title>Node5</title>
<g id="a_Node000005"><a xlink:href="../../d5/db9/add__n__sub__n_8c.html#accedf10c55a5675d82795f37a9fdf356" target="_top" xlink:title="同时执行n位加法和减法 ([dsta,n],[dstb,n]) = ([numa,n]+[numb,n],[numa,n]&#45;[numb,n])">
<polygon fill="white" stroke="#666666" points="273,-204 154,-204 154,-185 273,-185 273,-204"/>
<text text-anchor="middle" x="213.5" y="-192" font-family="Helvetica,sans-Serif" font-size="10.00">lmmp_add_n_sub_n_</text>
</a>
</g>
</g>
<!-- Node1&#45;&gt;Node5 -->
<g id="edge5_Node000001_Node000005" class="edge">
<title>Node1&#45;&gt;Node5</title>
<g id="a_edge5_Node000001_Node000005"><a xlink:title=" ">
<path fill="none" stroke="#63b8ff" d="M117.34,-182.68C126.01,-183.76 135.02,-184.88 143.89,-185.98"/>
<polygon fill="#63b8ff" stroke="#63b8ff" points="143.46,-189.45 153.81,-187.21 144.32,-182.51 143.46,-189.45"/>
</a>
</g>
</g>
<!-- Node8 -->
<g id="Node000008" class="node">
<title>Node8</title>
<g id="a_Node000008"><a xlink:href="../../d1/d49/shl_8c.html#a95add671de39d53ba0f2431f74c7a12a" target="_top" xlink:title="加法结合左移1位操作 [dst,n] = [numa,n] + ([numb,n] &lt;&lt; 1)">
<polygon fill="white" stroke="#666666" points="266,-167 161,-167 161,-148 266,-148 266,-167"/>
<text text-anchor="middle" x="213.5" y="-155" font-family="Helvetica,sans-Serif" font-size="10.00">lmmp_addshl1_n_</text>
</a>
</g>
</g>
<!-- Node1&#45;&gt;Node8 -->
<g id="edge8_Node000001_Node000008" class="edge">
<title>Node1&#45;&gt;Node8</title>
<g id="a_edge8_Node000001_Node000008"><a xlink:title=" ">
<path fill="none" stroke="#63b8ff" d="M117.34,-168.69C128.23,-167.41 139.65,-166.07 150.65,-164.78"/>
<polygon fill="#63b8ff" stroke="#63b8ff" points="151.09,-168.25 160.61,-163.6 150.27,-161.3 151.09,-168.25"/>
</a>
</g>
</g>
<!-- Node9 -->
<g id="Node000009" class="node">
<title>Node9</title>
<g id="a_Node000009"><a xlink:href="../../d6/d39/lmmpn_8h.html#a27b630fe59d53b8174b5ddb04202e556" target="_top" xlink:title="大数比较函数（内联）">
<polygon fill="white" stroke="#666666" points="252,-130 175,-130 175,-111 252,-111 252,-130"/>
<text text-anchor="middle" x="213.5" y="-118" font-family="Helvetica,sans-Serif" font-size="10.00">lmmp_cmp_</text>
</a>
</g>
</g>
<!-- Node1&#45;&gt;Node9 -->
<g id="edge9_Node000001_Node000009" class="edge">
<title>Node1&#45;&gt;Node9</title>
<g id="a_edge9_Node000001_Node000009"><a xlink:title=" ">
<path fill="none" stroke="#63b8ff" d="M81.97,-166C100.79,-158.19 128.44,-147.06 153,-138.5 158.29,-136.66 163.87,-134.82 169.42,-133.07"/>
<polygon fill="#63b8ff" stroke="#63b8ff" points="170.78,-136.31 179.3,-130.01 168.71,-129.63 170.78,-136.31"/>
</a>
</g>
</g>
<!-- Node10 -->
<g id="Node000010" class="node">
<title>Node10</title>
<g id="a_Node000010"><a xlink:href="../../d6/d39/lmmpn_8h.html#a72d4d8c682124218c7a0c7c3e5f818ce" target="_top" xlink:title="不等长大数乘法操作 [dst,na+nb] = [numa,na] * [numb,nb]">
<polygon fill="white" stroke="#666666" points="250.5,-93 176.5,-93 176.5,-74 250.5,-74 250.5,-93"/>
<text text-anchor="middle" x="213.5" y="-81" font-family="Helvetica,sans-Serif" font-size="10.00">lmmp_mul_</text>
</a>
</g>
</g>
<!-- Node1&#45;&gt;Node10 -->
<g id="edge10_Node000001_Node000010" class="edge">
<title>Node1&#45;&gt;Node10</title>
<g id="a_edge10_Node000001_Node000010"><a xlink:title=" ">
<path fill="none" stroke="#63b8ff" d="M69,-165.93C84.98,-150.32 118.88,-119.34 153,-101.5 157.32,-99.24 161.96,-97.22 166.68,-95.43"/>
<polygon fill="#63b8ff" stroke="#63b8ff" points="168.1,-98.64 176.4,-92.05 165.8,-92.03 168.1,-98.64"/>
</a>
</g>
</g>
<!-- Node11 -->
<g id="Node000011" class="node">
<title>Node11</title>
<g id="a_Node000011"><a xlink:href="../../d6/d39/lmmpn_8h.html#adb916bdc219e06dbf8f8f0cdf00d89aa" target="_top" xlink:title="大数减单精度数静态内联函数 [dst,na]=[numa,na]&#45;x">
<polygon fill="white" stroke="#666666" points="255.5,-56 171.5,-56 171.5,-37 255.5,-37 255.5,-56"/>
<text text-anchor="middle" x="213.5" y="-44" font-family="Helvetica,sans-Serif" font-size="10.00">lmmp_sub_1_</text>
</a>
</g>
</g>
<!-- Node1&#45;&gt;Node11 -->
<g id="edge11_Node000001_Node000011" class="edge">
<title>Node1&#45;&gt;Node11</title>
<g id="a_edge11_Node000001_Node000011"><a xlink:title=" ">
<path fill="none" stroke="#63b8ff" d="M64.92,-165.87C77.52,-144.37 110.91,-92.21 153,-64.5 155.88,-62.6 158.97,-60.9 162.17,-59.37"/>
<polygon fill="#63b8ff" stroke="#63b8ff" points="163.53,-62.59 171.41,-55.5 160.83,-56.14 163.53,-62.59"/>
</a>
</g>
</g>
<!-- Node12 -->
<g id="Node000012" class="node">
<title>Node12</title>
<g id="a_Node000012"><a xlink:href="../../d1/d52/mul__toom__interp5_8c.html#a6ae4dcc2f9da58424619e4302e1593e1" target="_top" xlink:title="Toom插值计算（5点插值），用于Toom&#45;33和Toom&#45;42乘法算法">
<polygon fill="white" stroke="#666666" points="274,-278 153,-278 153,-259 274,-259 274,-278"/>
<text text-anchor="middle" x="213.5" y="-266" font-family="Helvetica,sans-Serif" font-size="10.00">lmmp_toom_interp5_</text>
</a>
</g>
</g>
<!-- Node1&#45;&gt;Node12 -->
<g id="edge12_Node000001_Node000012" class="edge">
<title>Node1&#45;&gt;Node12</title>
<g id="a_edge12_Node000001_Node000012"><a xlink:title=" ">
<path fill="none" stroke="#63b8ff" d="M68.97,-185.21C84.91,-201.04 118.76,-232.46 153,-250.5 156.45,-252.32 160.1,-253.98 163.84,-255.49"/>
<polygon fill="#63b8ff" stroke="#63b8ff" points="162.65,-258.78 173.24,-258.96 165.07,-252.21 162.65,-258.78"/>
</a>
</g>
</g>
<!-- Node18 -->
<g id="Node000018" class="node">
<title>Node18</title>
<g id="a_Node000018"><a xlink:href="../../d6/d39/lmmpn_8h.html#afa8f36d4b874f3c5482caaf4c63ef6d5" target="_top" xlink:title="大数判零函数（内联）">
<polygon fill="white" stroke="#666666" points="257.5,-19 169.5,-19 169.5,0 257.5,0 257.5,-19"/>
<text text-anchor="middle" x="213.5" y="-7" font-family="Helvetica,sans-Serif" font-size="10.00">lmmp_zero_q_</text>
</a>
</g>
</g>
<!-- Node1&#45;&gt;Node18 -->
<g id="edge19_Node000001_Node000018" class="edge">
<title>Node1&#45;&gt;Node18</title>
<g id="a_edge19_Node000001_Node000018"><a xlink:title=" ">
<path fill="none" stroke="#63b8ff" d="M62.82,-165.88C72.41,-139.56 102.7,-65.79 153,-27.5 155.29,-25.75 157.76,-24.18 160.33,-22.75"/>
<polygon fill="#63b8ff" stroke="#63b8ff" points="161.86,-25.9 169.41,-18.47 158.87,-19.57 161.86,-25.9"/>
</a>
</g>
</g>
<!-- Node2&#45;&gt;Node3 -->
<g id="edge2_Node000002_Node000003" class="edge">
<title>Node2&#45;&gt;Node3</title>
<g id="a_edge2_Node000002_Node000003"><a xlink:title=" ">
<path fill="none" stroke="#63b8ff" d="M240.32,-333.07C259.47,-340.08 286.26,-349.69 310,-357.5 315.58,-359.34 321.48,-361.21 327.31,-363.01"/>
<polygon fill="#63b8ff" stroke="#63b8ff" points="326.4,-366.39 336.99,-365.97 328.45,-359.7 326.4,-366.39"/>
</a>
</g>
</g>
<!-- Node6 -->
<g id="Node000006" class="node">
<title>Node6</title>
<g id="a_Node000006"><a xlink:href="../../da/dc7/add__n_8c.html#aa06f92c7f9a675b88556524c8e09ecbd" target="_top" xlink:title="带进位的n位加法 [dst,n] = [numa,n] + [numb,n] + c">
<polygon fill="white" stroke="#666666" points="415.5,-163 325.5,-163 325.5,-144 415.5,-144 415.5,-163"/>
<text text-anchor="middle" x="370.5" y="-151" font-family="Helvetica,sans-Serif" font-size="10.00">lmmp_add_nc_</text>
</a>
</g>
</g>
<!-- Node5&#45;&gt;Node6 -->
<g id="edge6_Node000005_Node000006" class="edge">
<title>Node5&#45;&gt;Node6</title>
<g id="a_edge6_Node000005_Node000006"><a xlink:title=" ">
<path fill="none" stroke="#63b8ff" d="M250.45,-184.99C272.28,-179.22 300.36,-171.79 323.76,-165.6"/>
<polygon fill="#63b8ff" stroke="#63b8ff" points="324.7,-168.97 333.48,-163.03 322.91,-162.2 324.7,-168.97"/>
</a>
</g>
</g>
<!-- Node7 -->
<g id="Node000007" class="node">
<title>Node7</title>
<g id="a_Node000007"><a xlink:href="../../d3/d44/sub__n_8c.html#af53a20c46d5cd5ee5f6a599b04aec190" target="_top" xlink:title="带借位的n位减法 [dst,n] = [numa,n] &#45; [numb,n] &#45; c">
<polygon fill="white" stroke="#666666" points="415,-126 326,-126 326,-107 415,-107 415,-126"/>
<text text-anchor="middle" x="370.5" y="-114" font-family="Helvetica,sans-Serif" font-size="10.00">lmmp_sub_nc_</text>
</a>
</g>
</g>
<!-- Node5&#45;&gt;Node7 -->
<g id="edge7_Node000005_Node000007" class="edge">
<title>Node5&#45;&gt;Node7</title>
<g id="a_edge7_Node000005_Node000007"><a xlink:title=" ">
<path fill="none" stroke="#63b8ff" d="M256.81,-184.99C262.84,-182.71 268.76,-179.92 274,-176.5 294.59,-163.07 289.41,-147.93 310,-134.5 312.46,-132.9 315.06,-131.43 317.76,-130.09"/>
<polygon fill="#63b8ff" stroke="#63b8ff" points="319.4,-133.2 327.19,-126.01 316.62,-126.77 319.4,-133.2"/>
</a>
</g>
</g>
<!-- Node12&#45;&gt;Node3 -->
<g id="edge13_Node000012_Node000003" class="edge">
<title>Node12&#45;&gt;Node3</title>
<g id="a_edge13_Node000012_Node000003"><a xlink:title=" ">
<path fill="none" stroke="#63b8ff" d="M234.12,-278.04C246.45,-284.65 262.19,-294.26 274,-305.5 294.36,-324.88 287.28,-340.95 310,-357.5 312.66,-359.44 315.53,-361.17 318.53,-362.72"/>
<polygon fill="#63b8ff" stroke="#63b8ff" points="317.23,-365.97 327.79,-366.83 320.07,-359.57 317.23,-365.97"/>
</a>
</g>
</g>
<!-- Node13 -->
<g id="Node000013" class="node">
<title>Node13</title>
<g id="a_Node000013"><a xlink:href="../../d8/d18/divexact_8h.html#a6d9813900f18ed81dc52345e094b1d49" target="_top" xlink:title="精确除以3（[dst,na] = [numa,na] / 3）">
<polygon fill="white" stroke="#666666" points="431,-348 310,-348 310,-329 431,-329 431,-348"/>
<text text-anchor="middle" x="370.5" y="-336" font-family="Helvetica,sans-Serif" font-size="10.00">lmmp_divexact_by3_</text>
</a>
</g>
</g>
<!-- Node12&#45;&gt;Node13 -->
<g id="edge14_Node000012_Node000013" class="edge">
<title>Node12&#45;&gt;Node13</title>
<g id="a_edge14_Node000012_Node000013"><a xlink:title=" ">
<path fill="none" stroke="#63b8ff" d="M229.89,-278.17C248.38,-289.47 280.57,-308.19 310,-320.5 314.43,-322.35 319.13,-324.11 323.85,-325.74"/>
<polygon fill="#63b8ff" stroke="#63b8ff" points="322.93,-329.12 333.53,-328.91 325.12,-322.47 322.93,-329.12"/>
</a>
</g>
</g>
<!-- Node14 -->
<g id="Node000014" class="node">
<title>Node14</title>
<g id="a_Node000014"><a xlink:href="../../d1/d49/shl_8c.html#a6d5aca3454f13e3fcaedba3a15b03823" target="_top" xlink:title="大数左移操作 [dst,na] = [numa,na]&lt;&lt;shl，dst的低shl位填充0">
<polygon fill="white" stroke="#666666" points="405.5,-311 335.5,-311 335.5,-292 405.5,-292 405.5,-311"/>
<text text-anchor="middle" x="370.5" y="-299" font-family="Helvetica,sans-Serif" font-size="10.00">lmmp_shl_</text>
</a>
</g>
</g>
<!-- Node12&#45;&gt;Node14 -->
<g id="edge15_Node000012_Node000014" class="edge">
<title>Node12&#45;&gt;Node14</title>
<g id="a_edge15_Node000012_Node000014"><a xlink:title=" ">
<path fill="none" stroke="#63b8ff" d="M259.33,-278.04C280.08,-282.46 304.65,-287.69 325.31,-292.09"/>
<polygon fill="#63b8ff" stroke="#63b8ff" points="324.6,-295.52 335.11,-294.18 326.06,-288.67 324.6,-295.52"/>
</a>
</g>
</g>
<!-- Node15 -->
<g id="Node000015" class="node">
<title>Node15</title>
<g id="a_Node000015"><a xlink:href="../../de/d50/shr_8c.html#a279d8acece60ee1176a17c9e829710f7" target="_top" xlink:title="加法后右移1位 [dst,n] = ([numa,n] + [numb,n]) &gt;&gt; 1">
<polygon fill="white" stroke="#666666" points="423.5,-274 317.5,-274 317.5,-255 423.5,-255 423.5,-274"/>
<text text-anchor="middle" x="370.5" y="-262" font-family="Helvetica,sans-Serif" font-size="10.00">lmmp_shr1add_n_</text>
</a>
</g>
</g>
<!-- Node12&#45;&gt;Node15 -->
<g id="edge16_Node000012_Node000015" class="edge">
<title>Node12&#45;&gt;Node15</title>
<g id="a_edge16_Node000012_Node000015"><a xlink:title=" ">
<path fill="none" stroke="#63b8ff" d="M274.43,-266.95C285.14,-266.68 296.33,-266.39 307.12,-266.11"/>
<polygon fill="#63b8ff" stroke="#63b8ff" points="307.4,-269.6 317.3,-265.85 307.22,-262.61 307.4,-269.6"/>
</a>
</g>
</g>
<!-- Node16 -->
<g id="Node000016" class="node">
<title>Node16</title>
<g id="a_Node000016"><a xlink:href="../../de/d50/shr_8c.html#ae14dbc62d030ce3e6de8fa8590195f07" target="_top" xlink:title="减法后右移1位 [dst,n] = ([numa,n] &#45; [numb,n]) &gt;&gt; 1">
<polygon fill="white" stroke="#666666" points="423,-237 318,-237 318,-218 423,-218 423,-237"/>
<text text-anchor="middle" x="370.5" y="-225" font-family="Helvetica,sans-Serif" font-size="10.00">lmmp_shr1sub_n_</text>
</a>
</g>
</g>
<!-- Node12&#45;&gt;Node16 -->
<g id="edge17_Node000012_Node000016" class="edge">
<title>Node12&#45;&gt;Node16</title>
<g id="a_edge17_Node000012_Node000016"><a xlink:title=" ">
<path fill="none" stroke="#63b8ff" d="M250.45,-258.99C272.28,-253.22 300.36,-245.79 323.76,-239.6"/>
<polygon fill="#63b8ff" stroke="#63b8ff" points="324.7,-242.97 333.48,-237.03 322.91,-236.2 324.7,-242.97"/>
</a>
</g>
</g>
<!-- Node17 -->
<g id="Node000017" class="node">
<title>Node17</title>
<g id="a_Node000017"><a xlink:href="../../d3/d44/sub__n_8c.html#ae0e05032a43c35021a6d6859ed51f467" target="_top" xlink:title="无借位的n位减法 [dst,n] = [numa,n] &#45; [numb,n]">
<polygon fill="white" stroke="#666666" points="412.5,-200 328.5,-200 328.5,-181 412.5,-181 412.5,-200"/>
<text text-anchor="middle" x="370.5" y="-188" font-family="Helvetica,sans-Serif" font-size="10.00">lmmp_sub_n_</text>
</a>
</g>
</g>
<!-- Node12&#45;&gt;Node17 -->
<g id="edge18_Node000012_Node000017" class="edge">
<title>Node12&#45;&gt;Node17</title>
<g id="a_edge18_Node000012_Node000017"><a xlink:title=" ">
<path fill="none" stroke="#63b8ff" d="M256.78,-258.93C262.8,-256.67 268.74,-253.89 274,-250.5 294.39,-237.37 289.71,-222.78 310,-209.5 313.08,-207.48 316.4,-205.66 319.83,-204.03"/>
<polygon fill="#63b8ff" stroke="#63b8ff" points="321.24,-207.23 329.1,-200.12 318.52,-200.78 321.24,-207.23"/>
</a>
</g>
</g>
</g>
</svg>
</svg>

<style type='text/css'>
<![CDATA[
[data-mouse-over-selected='false'] { opacity: 0.7; }
[data-mouse-over-selected='true']  { opacity: 1.0; }
]]>
</style>
<script type="application/ecmascript"><![CDATA[
document.addEventListener('DOMContentLoaded', (event) => {
  highlightEdges();
  highlightAdjacentNodes();
});
]]></script>
</svg>
