<?xml version="1.0" encoding="UTF-8" standalone="no"?>
<!DOCTYPE svg PUBLIC "-//W3C//DTD SVG 1.1//EN"
 "http://www.w3.org/Graphics/SVG/1.1/DTD/svg11.dtd">
<!-- Generated by graphviz version 2.43.0 (0)
 -->
<!-- Title: lmmp_mul_toom42_cache_ Pages: 1 -->
<svg width="473pt" height="319pt"
 viewBox="0.00 0.00 473.00 319.00" xmlns="http://www.w3.org/2000/svg" xmlns:xlink="http://www.w3.org/1999/xlink">

<svg id="main" version="1.1" xmlns="http://www.w3.org/2000/svg" xmlns:xlink="http://www.w3.org/1999/xlink" xml:space="preserve" onload="init(evt)">
<style type="text/css"><![CDATA[
.node, .edge {opacity: 0.7;}
.node.selected, .edge.selected {opacity: 1;}
.edge:hover path { stroke: red; }
.edge:hover polygon { stroke: red; fill: red; }
]]></style>
<script type="application/ecmascript" xlink:href="../../svg.min.js"/>
<svg id="graph" class="graph">
<g id="graph0" class="graph" transform="scale(1 1) rotate(0) translate(4 315)">
<title>lmmp_mul_toom42_cache_</title>
<!-- Node1 -->
<g id="Node000001" class="node">
<title>Node1</title>
<g id="a_Node000001"><a xlink:title=" ">
<polygon fill="#999999" stroke="#666666" points="151,-148 0,-148 0,-129 151,-129 151,-148"/>
<text text-anchor="middle" x="75.5" y="-136" font-family="Helvetica,sans-Serif" font-size="10.00">lmmp_mul_toom42_cache_</text>
</a>
</g>
</g>
<!-- Node2 -->
<g id="Node000002" class="node">
<title>Node2</title>
<g id="a_Node000002"><a xlink:href="../../d6/d39/lmmpn_8h.html#a1eb04fffd70d523647b7b4ed64a438c5" target="_top" xlink:title="大数加法静态内联函数 [dst,na]=[numa,na]+[numb,nb]">
<polygon fill="white" stroke="#666666" points="284.5,-259 210.5,-259 210.5,-240 284.5,-240 284.5,-259"/>
<text text-anchor="middle" x="247.5" y="-247" font-family="Helvetica,sans-Serif" font-size="10.00">lmmp_add_</text>
</a>
</g>
</g>
<!-- Node1&#45;&gt;Node2 -->
<g id="edge1_Node000001_Node000002" class="edge">
<title>Node1&#45;&gt;Node2</title>
<g id="a_edge1_Node000001_Node000002"><a xlink:title=" ">
<path fill="none" stroke="#63b8ff" d="M90.3,-148.21C111.06,-162.73 151.67,-190.85 187,-213.5 198.16,-220.66 210.7,-228.3 221.37,-234.69"/>
<polygon fill="#63b8ff" stroke="#63b8ff" points="219.81,-237.84 230.2,-239.95 223.4,-231.82 219.81,-237.84"/>
</a>
</g>
</g>
<!-- Node3 -->
<g id="Node000003" class="node">
<title>Node3</title>
<g id="a_Node000003"><a xlink:href="../../da/dc7/add__n_8c.html#afa05758121cca6aa6b21256d5a959871" target="_top" xlink:title="无进位的n位加法 [dst,n] = [numa,n] + [numb,n]">
<polygon fill="white" stroke="#666666" points="447,-311 362,-311 362,-292 447,-292 447,-311"/>
<text text-anchor="middle" x="404.5" y="-299" font-family="Helvetica,sans-Serif" font-size="10.00">lmmp_add_n_</text>
</a>
</g>
</g>
<!-- Node1&#45;&gt;Node3 -->
<g id="edge4_Node000001_Node000003" class="edge">
<title>Node1&#45;&gt;Node3</title>
<g id="a_edge4_Node000001_Node000003"><a xlink:title=" ">
<path fill="none" stroke="#63b8ff" d="M81.4,-148.04C94.63,-172.71 133.71,-238.78 187,-268.5 237.94,-296.91 305.56,-303.12 351.59,-303.54"/>
<polygon fill="#63b8ff" stroke="#63b8ff" points="351.65,-307.04 361.65,-303.54 351.65,-300.04 351.65,-307.04"/>
</a>
</g>
</g>
<!-- Node4 -->
<g id="Node000004" class="node">
<title>Node4</title>
<g id="a_Node000004"><a xlink:href="../../d6/d39/lmmpn_8h.html#a344093e8760ed368490d9a527ea2c6e9" target="_top" xlink:title="大数加单精度数静态内联函数 [dst,na]=[numa,na]+x">
<polygon fill="white" stroke="#666666" points="290,-167 205,-167 205,-148 290,-148 290,-167"/>
<text text-anchor="middle" x="247.5" y="-155" font-family="Helvetica,sans-Serif" font-size="10.00">lmmp_add_1_</text>
</a>
</g>
</g>
<!-- Node1&#45;&gt;Node4 -->
<g id="edge3_Node000001_Node000004" class="edge">
<title>Node1&#45;&gt;Node4</title>
<g id="a_edge3_Node000001_Node000004"><a xlink:title=" ">
<path fill="none" stroke="#63b8ff" d="M151.06,-146.83C165.71,-148.47 180.77,-150.15 194.48,-151.69"/>
<polygon fill="#63b8ff" stroke="#63b8ff" points="194.35,-155.19 204.67,-152.83 195.12,-148.24 194.35,-155.19"/>
</a>
</g>
</g>
<!-- Node5 -->
<g id="Node000005" class="node">
<title>Node5</title>
<g id="a_Node000005"><a xlink:href="../../d5/db9/add__n__sub__n_8c.html#accedf10c55a5675d82795f37a9fdf356" target="_top" xlink:title="同时执行n位加法和减法 ([dsta,n],[dstb,n]) = ([numa,n]+[numb,n],[numa,n]&#45;[numb,n])">
<polygon fill="white" stroke="#666666" points="307,-130 188,-130 188,-111 307,-111 307,-130"/>
<text text-anchor="middle" x="247.5" y="-118" font-family="Helvetica,sans-Serif" font-size="10.00">lmmp_add_n_sub_n_</text>
</a>
</g>
</g>
<!-- Node1&#45;&gt;Node5 -->
<g id="edge5_Node000001_Node000005" class="edge">
<title>Node1&#45;&gt;Node5</title>
<g id="a_edge5_Node000001_Node000005"><a xlink:title=" ">
<path fill="none" stroke="#63b8ff" d="M151.06,-130.6C159.91,-129.67 168.92,-128.71 177.68,-127.79"/>
<polygon fill="#63b8ff" stroke="#63b8ff" points="178.26,-131.25 187.83,-126.71 177.52,-124.28 178.26,-131.25"/>
</a>
</g>
</g>
<!-- Node8 -->
<g id="Node000008" class="node">
<title>Node8</title>
<g id="a_Node000008"><a xlink:href="../../d1/d49/shl_8c.html#a95add671de39d53ba0f2431f74c7a12a" target="_top" xlink:title="加法结合左移1位操作 [dst,n] = [numa,n] + ([numb,n] &lt;&lt; 1)">
<polygon fill="white" stroke="#666666" points="300,-93 195,-93 195,-74 300,-74 300,-93"/>
<text text-anchor="middle" x="247.5" y="-81" font-family="Helvetica,sans-Serif" font-size="10.00">lmmp_addshl1_n_</text>
</a>
</g>
</g>
<!-- Node1&#45;&gt;Node8 -->
<g id="edge8_Node000001_Node000008" class="edge">
<title>Node1&#45;&gt;Node8</title>
<g id="a_edge8_Node000001_Node000008"><a xlink:title=" ">
<path fill="none" stroke="#63b8ff" d="M105.57,-128.98C127.84,-121.69 159.35,-111.42 187,-102.5 193.45,-100.42 200.29,-98.22 206.96,-96.09"/>
<polygon fill="#63b8ff" stroke="#63b8ff" points="208.06,-99.41 216.53,-93.03 205.93,-92.74 208.06,-99.41"/>
</a>
</g>
</g>
<!-- Node9 -->
<g id="Node000009" class="node">
<title>Node9</title>
<g id="a_Node000009"><a xlink:href="../../d6/d39/lmmpn_8h.html#a27b630fe59d53b8174b5ddb04202e556" target="_top" xlink:title="大数比较函数（内联）">
<polygon fill="white" stroke="#666666" points="286,-56 209,-56 209,-37 286,-37 286,-56"/>
<text text-anchor="middle" x="247.5" y="-44" font-family="Helvetica,sans-Serif" font-size="10.00">lmmp_cmp_</text>
</a>
</g>
</g>
<!-- Node1&#45;&gt;Node9 -->
<g id="edge9_Node000001_Node000009" class="edge">
<title>Node1&#45;&gt;Node9</title>
<g id="a_edge9_Node000001_Node000009"><a xlink:title=" ">
<path fill="none" stroke="#63b8ff" d="M88.37,-128.8C107.88,-113.28 148.39,-82.77 187,-64.5 190.84,-62.68 194.91,-61 199.04,-59.45"/>
<polygon fill="#63b8ff" stroke="#63b8ff" points="200.43,-62.67 208.73,-56.08 198.13,-56.06 200.43,-62.67"/>
</a>
</g>
</g>
<!-- Node10 -->
<g id="Node000010" class="node">
<title>Node10</title>
<g id="a_Node000010"><a xlink:href="../../d6/d39/lmmpn_8h.html#a72d4d8c682124218c7a0c7c3e5f818ce" target="_top" xlink:title="不等长大数乘法操作 [dst,na+nb] = [numa,na] * [numb,nb]">
<polygon fill="white" stroke="#666666" points="284.5,-19 210.5,-19 210.5,0 284.5,0 284.5,-19"/>
<text text-anchor="middle" x="247.5" y="-7" font-family="Helvetica,sans-Serif" font-size="10.00">lmmp_mul_</text>
</a>
</g>
</g>
<!-- Node1&#45;&gt;Node10 -->
<g id="edge10_Node000001_Node000010" class="edge">
<title>Node1&#45;&gt;Node10</title>
<g id="a_edge10_Node000001_Node000010"><a xlink:title=" ">
<path fill="none" stroke="#63b8ff" d="M83.36,-128.91C99.16,-107.5 140.37,-55.49 187,-27.5 191.23,-24.96 195.85,-22.75 200.58,-20.84"/>
<polygon fill="#63b8ff" stroke="#63b8ff" points="202.14,-24 210.36,-17.32 199.77,-17.41 202.14,-24"/>
</a>
</g>
</g>
<!-- Node11 -->
<g id="Node000011" class="node">
<title>Node11</title>
<g id="a_Node000011"><a xlink:href="../../d1/d52/mul__toom__interp5_8c.html#a6ae4dcc2f9da58424619e4302e1593e1" target="_top" xlink:title="Toom插值计算（5点插值），用于Toom&#45;33和Toom&#45;42乘法算法">
<polygon fill="white" stroke="#666666" points="308,-204 187,-204 187,-185 308,-185 308,-204"/>
<text text-anchor="middle" x="247.5" y="-192" font-family="Helvetica,sans-Serif" font-size="10.00">lmmp_toom_interp5_</text>
</a>
</g>
</g>
<!-- Node1&#45;&gt;Node11 -->
<g id="edge11_Node000001_Node000011" class="edge">
<title>Node1&#45;&gt;Node11</title>
<g id="a_edge11_Node000001_Node000011"><a xlink:title=" ">
<path fill="none" stroke="#63b8ff" d="M103.65,-148.15C125.96,-156.01 158.43,-167.27 187,-176.5 192.59,-178.31 198.5,-180.16 204.33,-181.96"/>
<polygon fill="#63b8ff" stroke="#63b8ff" points="203.42,-185.34 214.01,-184.91 205.46,-178.64 203.42,-185.34"/>
</a>
</g>
</g>
<!-- Node2&#45;&gt;Node3 -->
<g id="edge2_Node000002_Node000003" class="edge">
<title>Node2&#45;&gt;Node3</title>
<g id="a_edge2_Node000002_Node000003"><a xlink:title=" ">
<path fill="none" stroke="#63b8ff" d="M274.32,-259.07C293.47,-266.08 320.26,-275.69 344,-283.5 349.58,-285.34 355.48,-287.21 361.31,-289.01"/>
<polygon fill="#63b8ff" stroke="#63b8ff" points="360.4,-292.39 370.99,-291.97 362.45,-285.7 360.4,-292.39"/>
</a>
</g>
</g>
<!-- Node6 -->
<g id="Node000006" class="node">
<title>Node6</title>
<g id="a_Node000006"><a xlink:href="../../da/dc7/add__n_8c.html#aa06f92c7f9a675b88556524c8e09ecbd" target="_top" xlink:title="带进位的n位加法 [dst,n] = [numa,n] + [numb,n] + c">
<polygon fill="white" stroke="#666666" points="449.5,-89 359.5,-89 359.5,-70 449.5,-70 449.5,-89"/>
<text text-anchor="middle" x="404.5" y="-77" font-family="Helvetica,sans-Serif" font-size="10.00">lmmp_add_nc_</text>
</a>
</g>
</g>
<!-- Node5&#45;&gt;Node6 -->
<g id="edge6_Node000005_Node000006" class="edge">
<title>Node5&#45;&gt;Node6</title>
<g id="a_edge6_Node000005_Node000006"><a xlink:title=" ">
<path fill="none" stroke="#63b8ff" d="M284.45,-110.99C306.28,-105.22 334.36,-97.79 357.76,-91.6"/>
<polygon fill="#63b8ff" stroke="#63b8ff" points="358.7,-94.97 367.48,-89.03 356.91,-88.2 358.7,-94.97"/>
</a>
</g>
</g>
<!-- Node7 -->
<g id="Node000007" class="node">
<title>Node7</title>
<g id="a_Node000007"><a xlink:href="../../d3/d44/sub__n_8c.html#af53a20c46d5cd5ee5f6a599b04aec190" target="_top" xlink:title="带借位的n位减法 [dst,n] = [numa,n] &#45; [numb,n] &#45; c">
<polygon fill="white" stroke="#666666" points="449,-52 360,-52 360,-33 449,-33 449,-52"/>
<text text-anchor="middle" x="404.5" y="-40" font-family="Helvetica,sans-Serif" font-size="10.00">lmmp_sub_nc_</text>
</a>
</g>
</g>
<!-- Node5&#45;&gt;Node7 -->
<g id="edge7_Node000005_Node000007" class="edge">
<title>Node5&#45;&gt;Node7</title>
<g id="a_edge7_Node000005_Node000007"><a xlink:title=" ">
<path fill="none" stroke="#63b8ff" d="M290.81,-110.99C296.84,-108.71 302.76,-105.92 308,-102.5 328.59,-89.07 323.41,-73.93 344,-60.5 346.46,-58.9 349.06,-57.43 351.76,-56.09"/>
<polygon fill="#63b8ff" stroke="#63b8ff" points="353.4,-59.2 361.19,-52.01 350.62,-52.77 353.4,-59.2"/>
</a>
</g>
</g>
<!-- Node11&#45;&gt;Node3 -->
<g id="edge12_Node000011_Node000003" class="edge">
<title>Node11&#45;&gt;Node3</title>
<g id="a_edge12_Node000011_Node000003"><a xlink:title=" ">
<path fill="none" stroke="#63b8ff" d="M268.12,-204.04C280.45,-210.65 296.19,-220.26 308,-231.5 328.36,-250.88 321.28,-266.95 344,-283.5 346.66,-285.44 349.53,-287.17 352.53,-288.72"/>
<polygon fill="#63b8ff" stroke="#63b8ff" points="351.23,-291.97 361.79,-292.83 354.07,-285.57 351.23,-291.97"/>
</a>
</g>
</g>
<!-- Node12 -->
<g id="Node000012" class="node">
<title>Node12</title>
<g id="a_Node000012"><a xlink:href="../../d8/d18/divexact_8h.html#a6d9813900f18ed81dc52345e094b1d49" target="_top" xlink:title="精确除以3（[dst,na] = [numa,na] / 3）">
<polygon fill="white" stroke="#666666" points="465,-274 344,-274 344,-255 465,-255 465,-274"/>
<text text-anchor="middle" x="404.5" y="-262" font-family="Helvetica,sans-Serif" font-size="10.00">lmmp_divexact_by3_</text>
</a>
</g>
</g>
<!-- Node11&#45;&gt;Node12 -->
<g id="edge13_Node000011_Node000012" class="edge">
<title>Node11&#45;&gt;Node12</title>
<g id="a_edge13_Node000011_Node000012"><a xlink:title=" ">
<path fill="none" stroke="#63b8ff" d="M263.89,-204.17C282.38,-215.47 314.57,-234.19 344,-246.5 348.43,-248.35 353.13,-250.11 357.85,-251.74"/>
<polygon fill="#63b8ff" stroke="#63b8ff" points="356.93,-255.12 367.53,-254.91 359.12,-248.47 356.93,-255.12"/>
</a>
</g>
</g>
<!-- Node13 -->
<g id="Node000013" class="node">
<title>Node13</title>
<g id="a_Node000013"><a xlink:href="../../d1/d49/shl_8c.html#a6d5aca3454f13e3fcaedba3a15b03823" target="_top" xlink:title="大数左移操作 [dst,na] = [numa,na]&lt;&lt;shl，dst的低shl位填充0">
<polygon fill="white" stroke="#666666" points="439.5,-237 369.5,-237 369.5,-218 439.5,-218 439.5,-237"/>
<text text-anchor="middle" x="404.5" y="-225" font-family="Helvetica,sans-Serif" font-size="10.00">lmmp_shl_</text>
</a>
</g>
</g>
<!-- Node11&#45;&gt;Node13 -->
<g id="edge14_Node000011_Node000013" class="edge">
<title>Node11&#45;&gt;Node13</title>
<g id="a_edge14_Node000011_Node000013"><a xlink:title=" ">
<path fill="none" stroke="#63b8ff" d="M293.33,-204.04C314.08,-208.46 338.65,-213.69 359.31,-218.09"/>
<polygon fill="#63b8ff" stroke="#63b8ff" points="358.6,-221.52 369.11,-220.18 360.06,-214.67 358.6,-221.52"/>
</a>
</g>
</g>
<!-- Node14 -->
<g id="Node000014" class="node">
<title>Node14</title>
<g id="a_Node000014"><a xlink:href="../../de/d50/shr_8c.html#a279d8acece60ee1176a17c9e829710f7" target="_top" xlink:title="加法后右移1位 [dst,n] = ([numa,n] + [numb,n]) &gt;&gt; 1">
<polygon fill="white" stroke="#666666" points="457.5,-200 351.5,-200 351.5,-181 457.5,-181 457.5,-200"/>
<text text-anchor="middle" x="404.5" y="-188" font-family="Helvetica,sans-Serif" font-size="10.00">lmmp_shr1add_n_</text>
</a>
</g>
</g>
<!-- Node11&#45;&gt;Node14 -->
<g id="edge15_Node000011_Node000014" class="edge">
<title>Node11&#45;&gt;Node14</title>
<g id="a_edge15_Node000011_Node000014"><a xlink:title=" ">
<path fill="none" stroke="#63b8ff" d="M308.43,-192.95C319.14,-192.68 330.33,-192.39 341.12,-192.11"/>
<polygon fill="#63b8ff" stroke="#63b8ff" points="341.4,-195.6 351.3,-191.85 341.22,-188.61 341.4,-195.6"/>
</a>
</g>
</g>
<!-- Node15 -->
<g id="Node000015" class="node">
<title>Node15</title>
<g id="a_Node000015"><a xlink:href="../../de/d50/shr_8c.html#ae14dbc62d030ce3e6de8fa8590195f07" target="_top" xlink:title="减法后右移1位 [dst,n] = ([numa,n] &#45; [numb,n]) &gt;&gt; 1">
<polygon fill="white" stroke="#666666" points="457,-163 352,-163 352,-144 457,-144 457,-163"/>
<text text-anchor="middle" x="404.5" y="-151" font-family="Helvetica,sans-Serif" font-size="10.00">lmmp_shr1sub_n_</text>
</a>
</g>
</g>
<!-- Node11&#45;&gt;Node15 -->
<g id="edge16_Node000011_Node000015" class="edge">
<title>Node11&#45;&gt;Node15</title>
<g id="a_edge16_Node000011_Node000015"><a xlink:title=" ">
<path fill="none" stroke="#63b8ff" d="M284.45,-184.99C306.28,-179.22 334.36,-171.79 357.76,-165.6"/>
<polygon fill="#63b8ff" stroke="#63b8ff" points="358.7,-168.97 367.48,-163.03 356.91,-162.2 358.7,-168.97"/>
</a>
</g>
</g>
<!-- Node16 -->
<g id="Node000016" class="node">
<title>Node16</title>
<g id="a_Node000016"><a xlink:href="../../d3/d44/sub__n_8c.html#ae0e05032a43c35021a6d6859ed51f467" target="_top" xlink:title="无借位的n位减法 [dst,n] = [numa,n] &#45; [numb,n]">
<polygon fill="white" stroke="#666666" points="446.5,-126 362.5,-126 362.5,-107 446.5,-107 446.5,-126"/>
<text text-anchor="middle" x="404.5" y="-114" font-family="Helvetica,sans-Serif" font-size="10.00">lmmp_sub_n_</text>
</a>
</g>
</g>
<!-- Node11&#45;&gt;Node16 -->
<g id="edge17_Node000011_Node000016" class="edge">
<title>Node11&#45;&gt;Node16</title>
<g id="a_edge17_Node000011_Node000016"><a xlink:title=" ">
<path fill="none" stroke="#63b8ff" d="M290.78,-184.93C296.8,-182.67 302.74,-179.89 308,-176.5 328.39,-163.37 323.71,-148.78 344,-135.5 347.08,-133.48 350.4,-131.66 353.83,-130.03"/>
<polygon fill="#63b8ff" stroke="#63b8ff" points="355.24,-133.23 363.1,-126.12 352.52,-126.78 355.24,-133.23"/>
</a>
</g>
</g>
</g>
</svg>
</svg>

<style type='text/css'>
<![CDATA[
[data-mouse-over-selected='false'] { opacity: 0.7; }
[data-mouse-over-selected='true']  { opacity: 1.0; }
]]>
</style>
<script type="application/ecmascript"><![CDATA[
document.addEventListener('DOMContentLoaded', (event) => {
  highlightEdges();
  highlightAdjacentNodes();
});
]]></script>
</svg>
