<?xml version="1.0" encoding="UTF-8" standalone="no"?>
<!DOCTYPE svg PUBLIC "-//W3C//DTD SVG 1.1//EN"
 "http://www.w3.org/Graphics/SVG/1.1/DTD/svg11.dtd">
<!-- Generated by graphviz version 2.43.0 (0)
 -->
<!-- Title: lmmp_mul_toom42_unbalance_ Pages: 1 -->
<!--zoomable 437 -->

<svg id="main" version="1.1" xmlns="http://www.w3.org/2000/svg" xmlns:xlink="http://www.w3.org/1999/xlink" xml:space="preserve" onload="init(evt)">
<style type="text/css"><![CDATA[
.node, .edge {opacity: 0.7;}
.node.selected, .edge.selected {opacity: 1;}
.edge:hover path { stroke: red; }
.edge:hover polygon { stroke: red; fill: red; }
]]></style>

<defs>
  <circle id="rim" cx="0" cy="0" r="7"/>
  <circle id="rim2" cx="0" cy="0" r="3.5"/>
  <g id="zoomPlus">
    <use xlink:href="#rim" fill="#404040"><set attributeName="fill" to="#808080" begin="zoomplus.mouseover" end="zoomplus.mouseout"/></use>
    <path d="M-4,0h8M0,-4v8" fill="none" stroke="white" stroke-width="1.5" pointer-events="none"/>
  </g>
  <g id="zoomMin">
    <use xlink:href="#rim" fill="#404040"><set attributeName="fill" to="#808080" begin="zoomminus.mouseover" end="zoomminus.mouseout"/></use>
    <path d="M-4,0h8" fill="none" stroke="white" stroke-width="1.5" pointer-events="none"/>
  </g>
  <g id="arrowUp" transform="translate(30 24)">
    <use xlink:href="#rim"/>
    <path pointer-events="none" fill="none" stroke="white" stroke-width="1.5" d="M0,-3.0v7 M-2.5,-0.5L0,-3.0L2.5,-0.5"/>
  </g>
  <g id="arrowRight" transform="rotate(90) translate(36 -43)">
    <use xlink:href="#rim"/>
    <path pointer-events="none" fill="none" stroke="white" stroke-width="1.5" d="M0,-3.0v7 M-2.5,-0.5L0,-3.0L2.5,-0.5"/>
  </g>
  <g id="arrowDown" transform="rotate(180) translate(-30 -48)">
    <use xlink:href="#rim"/>
    <path pointer-events="none" fill="none" stroke="white" stroke-width="1.5" d="M0,-3.0v7 M-2.5,-0.5L0,-3.0L2.5,-0.5"/>
  </g>
  <g id="arrowLeft" transform="rotate(270) translate(-36 17)">
    <use xlink:href="#rim"/>
    <path pointer-events="none" fill="none" stroke="white" stroke-width="1.5" d="M0,-3.0v7 M-2.5,-0.5L0,-3.0L2.5,-0.5"/>
  </g>
  <g id="resetDef">
    <use xlink:href="#rim2" fill="#404040"><set attributeName="fill" to="#808080" begin="reset.mouseover" end="reset.mouseout"/></use>
  </g>
</defs>
<script type="application/ecmascript">
var viewWidth = 682;
var viewHeight = 437;
var sectionId = 'dynsection-7';
</script>
<script type="application/ecmascript" xlink:href="../../svg.min.js"/>
<svg id="graph" class="graph">
<g id="viewport">
<title>lmmp_mul_toom42_unbalance_</title>
<!-- Node1 -->
<g id="Node000001" class="node">
<title>Node1</title>
<g id="a_Node000001"><a xlink:title=" ">
<polygon fill="#999999" stroke="#666666" points="173,-336 0,-336 0,-317 173,-317 173,-336"/>
<text text-anchor="middle" x="86.5" y="-324" font-family="Helvetica,sans-Serif" font-size="10.00">lmmp_mul_toom42_unbalance_</text>
</a>
</g>
</g>
<!-- Node2 -->
<g id="Node000002" class="node">
<title>Node2</title>
<g id="a_Node000002"><a xlink:href="../../da/dc7/add__n_8c.html#afa05758121cca6aa6b21256d5a959871" target="_top" xlink:title="无进位的n位加法 [dst,n] = [numa,n] + [numb,n]">
<polygon fill="white" stroke="#666666" points="656,-280 571,-280 571,-261 656,-261 656,-280"/>
<text text-anchor="middle" x="613.5" y="-268" font-family="Helvetica,sans-Serif" font-size="10.00">lmmp_add_n_</text>
</a>
</g>
</g>
<!-- Node1&#45;&gt;Node2 -->
<g id="edge1_Node000001_Node000002" class="edge">
<title>Node1&#45;&gt;Node2</title>
<g id="a_edge1_Node000001_Node000002"><a xlink:title=" ">
<path fill="none" stroke="#63b8ff" d="M103.77,-336.22C162.85,-370.17 370.33,-477.42 517,-402.5 563.64,-378.68 592.77,-320.26 605.32,-289.75"/>
<polygon fill="#63b8ff" stroke="#63b8ff" points="608.67,-290.82 609.07,-280.23 602.15,-288.25 608.67,-290.82"/>
</a>
</g>
</g>
<!-- Node3 -->
<g id="Node000003" class="node">
<title>Node3</title>
<g id="a_Node000003"><a xlink:href="../../d6/d39/lmmpn_8h.html#a72d4d8c682124218c7a0c7c3e5f818ce" target="_top" xlink:title="不等长大数乘法操作 [dst,na+nb] = [numa,na] * [numb,nb]">
<polygon fill="white" stroke="#666666" points="493.5,-393 419.5,-393 419.5,-374 493.5,-374 493.5,-393"/>
<text text-anchor="middle" x="456.5" y="-381" font-family="Helvetica,sans-Serif" font-size="10.00">lmmp_mul_</text>
</a>
</g>
</g>
<!-- Node1&#45;&gt;Node3 -->
<g id="edge2_Node000001_Node000003" class="edge">
<title>Node1&#45;&gt;Node3</title>
<g id="a_edge2_Node000001_Node000003"><a xlink:title=" ">
<path fill="none" stroke="#63b8ff" d="M149.09,-336.04C222.51,-347.41 343.51,-366.15 409.34,-376.35"/>
<polygon fill="#63b8ff" stroke="#63b8ff" points="409,-379.84 419.42,-377.91 410.07,-372.92 409,-379.84"/>
</a>
</g>
</g>
<!-- Node4 -->
<g id="Node000004" class="node">
<title>Node4</title>
<g id="a_Node000004"><a xlink:href="../../d0/de5/mul__toom42_8c.html#a6a0c45b8d6687ad0e75da7156dc1dd7d" target="_top" xlink:title=" ">
<polygon fill="white" stroke="#666666" points="360,-280 209,-280 209,-261 360,-261 360,-280"/>
<text text-anchor="middle" x="284.5" y="-268" font-family="Helvetica,sans-Serif" font-size="10.00">lmmp_mul_toom42_cache_</text>
</a>
</g>
</g>
<!-- Node1&#45;&gt;Node4 -->
<g id="edge3_Node000001_Node000004" class="edge">
<title>Node1&#45;&gt;Node4</title>
<g id="a_edge3_Node000001_Node000004"><a xlink:title=" ">
<path fill="none" stroke="#63b8ff" d="M121.19,-316.87C154.21,-307.44 204.66,-293.03 240.54,-282.77"/>
<polygon fill="#63b8ff" stroke="#63b8ff" points="241.59,-286.11 250.25,-280 239.67,-279.38 241.59,-286.11"/>
</a>
</g>
</g>
<!-- Node18 -->
<g id="Node000018" class="node">
<title>Node18</title>
<g id="a_Node000018"><a xlink:href="../../d0/de5/mul__toom42_8c.html#a7b31e05a88a3c9b904fb9edfe3ac6804" target="_top" xlink:title=" ">
<polygon fill="white" stroke="#666666" points="357.5,-211.5 211.5,-211.5 211.5,-181.5 357.5,-181.5 357.5,-211.5"/>
<text text-anchor="start" x="219.5" y="-199.5" font-family="Helvetica,sans-Serif" font-size="10.00">lmmp_mul_toom42_cache</text>
<text text-anchor="middle" x="284.5" y="-188.5" font-family="Helvetica,sans-Serif" font-size="10.00">_init_</text>
</a>
</g>
</g>
<!-- Node1&#45;&gt;Node18 -->
<g id="edge21_Node000001_Node000018" class="edge">
<title>Node1&#45;&gt;Node18</title>
<g id="a_edge21_Node000001_Node000018"><a xlink:title=" ">
<path fill="none" stroke="#63b8ff" d="M101.91,-316.94C133.51,-295.99 209.47,-245.6 252.46,-217.08"/>
<polygon fill="#63b8ff" stroke="#63b8ff" points="254.46,-219.96 260.86,-211.52 250.59,-214.13 254.46,-219.96"/>
</a>
</g>
</g>
<!-- Node4&#45;&gt;Node2 -->
<g id="edge7_Node000004_Node000002" class="edge">
<title>Node4&#45;&gt;Node2</title>
<g id="a_edge7_Node000004_Node000002"><a xlink:title=" ">
<path fill="none" stroke="#63b8ff" d="M299.31,-280.22C319.45,-293.74 358.56,-317.55 396,-326.5 448.31,-339 465.1,-340.59 517,-326.5 545.53,-318.75 574.26,-300.1 592.64,-286.44"/>
<polygon fill="#63b8ff" stroke="#63b8ff" points="594.97,-289.06 600.79,-280.2 590.72,-283.5 594.97,-289.06"/>
</a>
</g>
</g>
<!-- Node4&#45;&gt;Node3 -->
<g id="edge13_Node000004_Node000003" class="edge">
<title>Node4&#45;&gt;Node3</title>
<g id="a_edge13_Node000004_Node000003"><a xlink:title=" ">
<path fill="none" stroke="#63b8ff" d="M295.41,-280.19C313.88,-297.86 355.42,-335.69 396,-359.5 402.6,-363.38 409.95,-366.9 417.17,-369.98"/>
<polygon fill="#63b8ff" stroke="#63b8ff" points="416.26,-373.39 426.85,-373.91 418.89,-366.91 416.26,-373.39"/>
</a>
</g>
</g>
<!-- Node5 -->
<g id="Node000005" class="node">
<title>Node5</title>
<g id="a_Node000005"><a xlink:href="../../d6/d39/lmmpn_8h.html#a1eb04fffd70d523647b7b4ed64a438c5" target="_top" xlink:title="大数加法静态内联函数 [dst,na]=[numa,na]+[numb,nb]">
<polygon fill="white" stroke="#666666" points="493.5,-280 419.5,-280 419.5,-261 493.5,-261 493.5,-280"/>
<text text-anchor="middle" x="456.5" y="-268" font-family="Helvetica,sans-Serif" font-size="10.00">lmmp_add_</text>
</a>
</g>
</g>
<!-- Node4&#45;&gt;Node5 -->
<g id="edge4_Node000004_Node000005" class="edge">
<title>Node4&#45;&gt;Node5</title>
<g id="a_edge4_Node000004_Node000005"><a xlink:title=" ">
<path fill="none" stroke="#63b8ff" d="M360.06,-270.5C376.74,-270.5 393.95,-270.5 409.09,-270.5"/>
<polygon fill="#63b8ff" stroke="#63b8ff" points="409.21,-274 419.21,-270.5 409.21,-267 409.21,-274"/>
</a>
</g>
</g>
<!-- Node6 -->
<g id="Node000006" class="node">
<title>Node6</title>
<g id="a_Node000006"><a xlink:href="../../d6/d39/lmmpn_8h.html#a344093e8760ed368490d9a527ea2c6e9" target="_top" xlink:title="大数加单精度数静态内联函数 [dst,na]=[numa,na]+x">
<polygon fill="white" stroke="#666666" points="499,-243 414,-243 414,-224 499,-224 499,-243"/>
<text text-anchor="middle" x="456.5" y="-231" font-family="Helvetica,sans-Serif" font-size="10.00">lmmp_add_1_</text>
</a>
</g>
</g>
<!-- Node4&#45;&gt;Node6 -->
<g id="edge6_Node000004_Node000006" class="edge">
<title>Node4&#45;&gt;Node6</title>
<g id="a_edge6_Node000004_Node000006"><a xlink:title=" ">
<path fill="none" stroke="#63b8ff" d="M329.28,-260.97C352.09,-256.01 380.13,-249.9 403.98,-244.71"/>
<polygon fill="#63b8ff" stroke="#63b8ff" points="404.89,-248.1 413.92,-242.55 403.4,-241.26 404.89,-248.1"/>
</a>
</g>
</g>
<!-- Node7 -->
<g id="Node000007" class="node">
<title>Node7</title>
<g id="a_Node000007"><a xlink:href="../../d5/db9/add__n__sub__n_8c.html#accedf10c55a5675d82795f37a9fdf356" target="_top" xlink:title="同时执行n位加法和减法 ([dsta,n],[dstb,n]) = ([numa,n]+[numb,n],[numa,n]&#45;[numb,n])">
<polygon fill="white" stroke="#666666" points="516,-93 397,-93 397,-74 516,-74 516,-93"/>
<text text-anchor="middle" x="456.5" y="-81" font-family="Helvetica,sans-Serif" font-size="10.00">lmmp_add_n_sub_n_</text>
</a>
</g>
</g>
<!-- Node4&#45;&gt;Node7 -->
<g id="edge8_Node000004_Node000007" class="edge">
<title>Node4&#45;&gt;Node7</title>
<g id="a_edge8_Node000004_Node000007"><a xlink:title=" ">
<path fill="none" stroke="#63b8ff" d="M307.45,-260.87C324.15,-252.48 346.48,-238.79 360,-220.5 392.85,-176.07 356.93,-140.57 396,-101.5 397.07,-100.43 398.21,-99.42 399.39,-98.47"/>
<polygon fill="#63b8ff" stroke="#63b8ff" points="401.34,-101.38 407.87,-93.03 397.56,-95.48 401.34,-101.38"/>
</a>
</g>
</g>
<!-- Node10 -->
<g id="Node000010" class="node">
<title>Node10</title>
<g id="a_Node000010"><a xlink:href="../../d1/d49/shl_8c.html#a95add671de39d53ba0f2431f74c7a12a" target="_top" xlink:title="加法结合左移1位操作 [dst,n] = [numa,n] + ([numb,n] &lt;&lt; 1)">
<polygon fill="white" stroke="#666666" points="509,-206 404,-206 404,-187 509,-187 509,-206"/>
<text text-anchor="middle" x="456.5" y="-194" font-family="Helvetica,sans-Serif" font-size="10.00">lmmp_addshl1_n_</text>
</a>
</g>
</g>
<!-- Node4&#45;&gt;Node10 -->
<g id="edge11_Node000004_Node000010" class="edge">
<title>Node4&#45;&gt;Node10</title>
<g id="a_edge11_Node000004_Node000010"><a xlink:title=" ">
<path fill="none" stroke="#63b8ff" d="M302.73,-260.89C324.15,-249.19 362.05,-229.28 396,-215.5 401.41,-213.31 407.17,-211.19 412.9,-209.23"/>
<polygon fill="#63b8ff" stroke="#63b8ff" points="414.05,-212.53 422.44,-206.07 411.85,-205.89 414.05,-212.53"/>
</a>
</g>
</g>
<!-- Node11 -->
<g id="Node000011" class="node">
<title>Node11</title>
<g id="a_Node000011"><a xlink:href="../../d6/d39/lmmpn_8h.html#a27b630fe59d53b8174b5ddb04202e556" target="_top" xlink:title="大数比较函数（内联）">
<polygon fill="white" stroke="#666666" points="495,-317 418,-317 418,-298 495,-298 495,-317"/>
<text text-anchor="middle" x="456.5" y="-305" font-family="Helvetica,sans-Serif" font-size="10.00">lmmp_cmp_</text>
</a>
</g>
</g>
<!-- Node4&#45;&gt;Node11 -->
<g id="edge12_Node000004_Node000011" class="edge">
<title>Node4&#45;&gt;Node11</title>
<g id="a_edge12_Node000004_Node000011"><a xlink:title=" ">
<path fill="none" stroke="#63b8ff" d="M329.28,-280.03C353.4,-285.28 383.37,-291.8 408.05,-297.17"/>
<polygon fill="#63b8ff" stroke="#63b8ff" points="407.41,-300.62 417.92,-299.32 408.9,-293.78 407.41,-300.62"/>
</a>
</g>
</g>
<!-- Node12 -->
<g id="Node000012" class="node">
<title>Node12</title>
<g id="a_Node000012"><a xlink:href="../../d1/d52/mul__toom__interp5_8c.html#a6ae4dcc2f9da58424619e4302e1593e1" target="_top" xlink:title="Toom插值计算（5点插值），用于Toom&#45;33和Toom&#45;42乘法算法">
<polygon fill="white" stroke="#666666" points="517,-130 396,-130 396,-111 517,-111 517,-130"/>
<text text-anchor="middle" x="456.5" y="-118" font-family="Helvetica,sans-Serif" font-size="10.00">lmmp_toom_interp5_</text>
</a>
</g>
</g>
<!-- Node4&#45;&gt;Node12 -->
<g id="edge14_Node000004_Node000012" class="edge">
<title>Node4&#45;&gt;Node12</title>
<g id="a_edge14_Node000004_Node000012"><a xlink:title=" ">
<path fill="none" stroke="#63b8ff" d="M302.41,-260.96C318.15,-251.68 341.84,-236.64 360,-220.5 378.38,-204.17 379.18,-196.43 396,-178.5 409.47,-164.14 425.49,-148.6 437.51,-137.23"/>
<polygon fill="#63b8ff" stroke="#63b8ff" points="440.23,-139.48 445.12,-130.08 435.43,-134.38 440.23,-139.48"/>
</a>
</g>
</g>
<!-- Node5&#45;&gt;Node2 -->
<g id="edge5_Node000005_Node000002" class="edge">
<title>Node5&#45;&gt;Node2</title>
<g id="a_edge5_Node000005_Node000002"><a xlink:title=" ">
<path fill="none" stroke="#63b8ff" d="M493.84,-270.5C513.77,-270.5 538.81,-270.5 560.75,-270.5"/>
<polygon fill="#63b8ff" stroke="#63b8ff" points="560.91,-274 570.91,-270.5 560.91,-267 560.91,-274"/>
</a>
</g>
</g>
<!-- Node8 -->
<g id="Node000008" class="node">
<title>Node8</title>
<g id="a_Node000008"><a xlink:href="../../da/dc7/add__n_8c.html#aa06f92c7f9a675b88556524c8e09ecbd" target="_top" xlink:title="带进位的n位加法 [dst,n] = [numa,n] + [numb,n] + c">
<polygon fill="white" stroke="#666666" points="658.5,-56 568.5,-56 568.5,-37 658.5,-37 658.5,-56"/>
<text text-anchor="middle" x="613.5" y="-44" font-family="Helvetica,sans-Serif" font-size="10.00">lmmp_add_nc_</text>
</a>
</g>
</g>
<!-- Node7&#45;&gt;Node8 -->
<g id="edge9_Node000007_Node000008" class="edge">
<title>Node7&#45;&gt;Node8</title>
<g id="a_edge9_Node000007_Node000008"><a xlink:title=" ">
<path fill="none" stroke="#63b8ff" d="M497.42,-73.97C517.32,-69.22 541.58,-63.43 562.69,-58.39"/>
<polygon fill="#63b8ff" stroke="#63b8ff" points="563.54,-61.79 572.45,-56.06 561.91,-54.98 563.54,-61.79"/>
</a>
</g>
</g>
<!-- Node9 -->
<g id="Node000009" class="node">
<title>Node9</title>
<g id="a_Node000009"><a xlink:href="../../d3/d44/sub__n_8c.html#af53a20c46d5cd5ee5f6a599b04aec190" target="_top" xlink:title="带借位的n位减法 [dst,n] = [numa,n] &#45; [numb,n] &#45; c">
<polygon fill="white" stroke="#666666" points="658,-19 569,-19 569,0 658,0 658,-19"/>
<text text-anchor="middle" x="613.5" y="-7" font-family="Helvetica,sans-Serif" font-size="10.00">lmmp_sub_nc_</text>
</a>
</g>
</g>
<!-- Node7&#45;&gt;Node9 -->
<g id="edge10_Node000007_Node000009" class="edge">
<title>Node7&#45;&gt;Node9</title>
<g id="a_edge10_Node000007_Node000009"><a xlink:title=" ">
<path fill="none" stroke="#63b8ff" d="M496.8,-73.97C503.8,-71.45 510.82,-68.32 517,-64.5 536.51,-52.43 533.4,-39.42 553,-27.5 555.77,-25.82 558.7,-24.28 561.73,-22.88"/>
<polygon fill="#63b8ff" stroke="#63b8ff" points="563.08,-26.11 571,-19.08 560.42,-19.64 563.08,-26.11"/>
</a>
</g>
</g>
<!-- Node12&#45;&gt;Node2 -->
<g id="edge15_Node000012_Node000002" class="edge">
<title>Node12&#45;&gt;Node2</title>
<g id="a_edge15_Node000012_Node000002"><a xlink:title=" ">
<path fill="none" stroke="#63b8ff" d="M495.14,-130.02C503.18,-133.49 511.03,-138.19 517,-144.5 551.18,-180.65 517.76,-215.37 553,-250.5 555.67,-253.16 558.69,-255.46 561.94,-257.46"/>
<polygon fill="#63b8ff" stroke="#63b8ff" points="560.44,-260.62 570.94,-262.06 563.63,-254.39 560.44,-260.62"/>
</a>
</g>
</g>
<!-- Node13 -->
<g id="Node000013" class="node">
<title>Node13</title>
<g id="a_Node000013"><a xlink:href="../../d8/d18/divexact_8h.html#a6d9813900f18ed81dc52345e094b1d49" target="_top" xlink:title="精确除以3（[dst,na] = [numa,na] / 3）">
<polygon fill="white" stroke="#666666" points="674,-93 553,-93 553,-74 674,-74 674,-93"/>
<text text-anchor="middle" x="613.5" y="-81" font-family="Helvetica,sans-Serif" font-size="10.00">lmmp_divexact_by3_</text>
</a>
</g>
</g>
<!-- Node12&#45;&gt;Node13 -->
<g id="edge16_Node000012_Node000013" class="edge">
<title>Node12&#45;&gt;Node13</title>
<g id="a_edge16_Node000012_Node000013"><a xlink:title=" ">
<path fill="none" stroke="#63b8ff" d="M497.42,-110.97C517.32,-106.22 541.58,-100.43 562.69,-95.39"/>
<polygon fill="#63b8ff" stroke="#63b8ff" points="563.54,-98.79 572.45,-93.06 561.91,-91.98 563.54,-98.79"/>
</a>
</g>
</g>
<!-- Node14 -->
<g id="Node000014" class="node">
<title>Node14</title>
<g id="a_Node000014"><a xlink:href="../../d1/d49/shl_8c.html#a6d5aca3454f13e3fcaedba3a15b03823" target="_top" xlink:title="大数左移操作 [dst,na] = [numa,na]&lt;&lt;shl，dst的低shl位填充0">
<polygon fill="white" stroke="#666666" points="648.5,-241 578.5,-241 578.5,-222 648.5,-222 648.5,-241"/>
<text text-anchor="middle" x="613.5" y="-229" font-family="Helvetica,sans-Serif" font-size="10.00">lmmp_shl_</text>
</a>
</g>
</g>
<!-- Node12&#45;&gt;Node14 -->
<g id="edge17_Node000012_Node000014" class="edge">
<title>Node12&#45;&gt;Node14</title>
<g id="a_edge17_Node000012_Node000014"><a xlink:title=" ">
<path fill="none" stroke="#63b8ff" d="M492.91,-130.06C501.49,-133.58 510.15,-138.29 517,-144.5 542.62,-167.74 526.36,-191.43 553,-213.5 557.63,-217.34 563.07,-220.36 568.74,-222.73"/>
<polygon fill="#63b8ff" stroke="#63b8ff" points="567.8,-226.12 578.4,-226.15 570.14,-219.52 567.8,-226.12"/>
</a>
</g>
</g>
<!-- Node15 -->
<g id="Node000015" class="node">
<title>Node15</title>
<g id="a_Node000015"><a xlink:href="../../de/d50/shr_8c.html#a279d8acece60ee1176a17c9e829710f7" target="_top" xlink:title="加法后右移1位 [dst,n] = ([numa,n] + [numb,n]) &gt;&gt; 1">
<polygon fill="white" stroke="#666666" points="666.5,-204 560.5,-204 560.5,-185 666.5,-185 666.5,-204"/>
<text text-anchor="middle" x="613.5" y="-192" font-family="Helvetica,sans-Serif" font-size="10.00">lmmp_shr1add_n_</text>
</a>
</g>
</g>
<!-- Node12&#45;&gt;Node15 -->
<g id="edge18_Node000012_Node000015" class="edge">
<title>Node12&#45;&gt;Node15</title>
<g id="a_edge18_Node000012_Node000015"><a xlink:title=" ">
<path fill="none" stroke="#63b8ff" d="M486.92,-130.07C496.83,-133.88 507.72,-138.75 517,-144.5 535.19,-155.78 534.32,-166.05 553,-176.5 556.06,-178.21 559.3,-179.78 562.63,-181.21"/>
<polygon fill="#63b8ff" stroke="#63b8ff" points="561.56,-184.55 572.15,-184.9 564.09,-178.02 561.56,-184.55"/>
</a>
</g>
</g>
<!-- Node16 -->
<g id="Node000016" class="node">
<title>Node16</title>
<g id="a_Node000016"><a xlink:href="../../de/d50/shr_8c.html#ae14dbc62d030ce3e6de8fa8590195f07" target="_top" xlink:title="减法后右移1位 [dst,n] = ([numa,n] &#45; [numb,n]) &gt;&gt; 1">
<polygon fill="white" stroke="#666666" points="666,-167 561,-167 561,-148 666,-148 666,-167"/>
<text text-anchor="middle" x="613.5" y="-155" font-family="Helvetica,sans-Serif" font-size="10.00">lmmp_shr1sub_n_</text>
</a>
</g>
</g>
<!-- Node12&#45;&gt;Node16 -->
<g id="edge19_Node000012_Node000016" class="edge">
<title>Node12&#45;&gt;Node16</title>
<g id="a_edge19_Node000012_Node000016"><a xlink:title=" ">
<path fill="none" stroke="#63b8ff" d="M497.42,-130.03C517.32,-134.78 541.58,-140.57 562.69,-145.61"/>
<polygon fill="#63b8ff" stroke="#63b8ff" points="561.91,-149.02 572.45,-147.94 563.54,-142.21 561.91,-149.02"/>
</a>
</g>
</g>
<!-- Node17 -->
<g id="Node000017" class="node">
<title>Node17</title>
<g id="a_Node000017"><a xlink:href="../../d3/d44/sub__n_8c.html#ae0e05032a43c35021a6d6859ed51f467" target="_top" xlink:title="无借位的n位减法 [dst,n] = [numa,n] &#45; [numb,n]">
<polygon fill="white" stroke="#666666" points="655.5,-130 571.5,-130 571.5,-111 655.5,-111 655.5,-130"/>
<text text-anchor="middle" x="613.5" y="-118" font-family="Helvetica,sans-Serif" font-size="10.00">lmmp_sub_n_</text>
</a>
</g>
</g>
<!-- Node12&#45;&gt;Node17 -->
<g id="edge20_Node000012_Node000017" class="edge">
<title>Node12&#45;&gt;Node17</title>
<g id="a_edge20_Node000012_Node000017"><a xlink:title=" ">
<path fill="none" stroke="#63b8ff" d="M517.43,-120.5C531.82,-120.5 547.06,-120.5 561.03,-120.5"/>
<polygon fill="#63b8ff" stroke="#63b8ff" points="561.43,-124 571.43,-120.5 561.43,-117 561.43,-124"/>
</a>
</g>
</g>
<!-- Node18&#45;&gt;Node2 -->
<g id="edge24_Node000018_Node000002" class="edge">
<title>Node18&#45;&gt;Node2</title>
<g id="a_edge24_Node000018_Node000002"><a xlink:title=" ">
<path fill="none" stroke="#63b8ff" d="M321.51,-181.4C369.86,-163.7 456.65,-141.2 517,-178.5 547.43,-197.31 526,-227.02 553,-250.5 555.67,-252.82 558.62,-254.88 561.74,-256.7"/>
<polygon fill="#63b8ff" stroke="#63b8ff" points="560.36,-259.92 570.87,-261.22 563.46,-253.64 560.36,-259.92"/>
</a>
</g>
</g>
<!-- Node18&#45;&gt;Node3 -->
<g id="edge28_Node000018_Node000003" class="edge">
<title>Node18&#45;&gt;Node3</title>
<g id="a_edge28_Node000018_Node000003"><a xlink:title=" ">
<path fill="none" stroke="#63b8ff" d="M311.44,-211.59C327.03,-221.65 346.41,-236.02 360,-252.5 383.27,-280.72 374.46,-296.94 396,-326.5 407.09,-341.72 422.51,-356.35 434.87,-366.99"/>
<polygon fill="#63b8ff" stroke="#63b8ff" points="432.93,-369.93 442.85,-373.66 437.42,-364.56 432.93,-369.93"/>
</a>
</g>
</g>
<!-- Node18&#45;&gt;Node5 -->
<g id="edge22_Node000018_Node000005" class="edge">
<title>Node18&#45;&gt;Node5</title>
<g id="a_edge22_Node000018_Node000005"><a xlink:title=" ">
<path fill="none" stroke="#63b8ff" d="M312.13,-211.66C334.14,-223.79 366.46,-240.65 396,-252.5 400.7,-254.38 405.68,-256.18 410.67,-257.86"/>
<polygon fill="#63b8ff" stroke="#63b8ff" points="409.63,-261.21 420.22,-260.94 411.78,-254.54 409.63,-261.21"/>
</a>
</g>
</g>
<!-- Node18&#45;&gt;Node6 -->
<g id="edge23_Node000018_Node000006" class="edge">
<title>Node18&#45;&gt;Node6</title>
<g id="a_edge23_Node000018_Node000006"><a xlink:title=" ">
<path fill="none" stroke="#63b8ff" d="M354.65,-211.55C371.08,-215.13 388.34,-218.88 403.84,-222.26"/>
<polygon fill="#63b8ff" stroke="#63b8ff" points="403.23,-225.71 413.75,-224.41 404.72,-218.87 403.23,-225.71"/>
</a>
</g>
</g>
<!-- Node18&#45;&gt;Node7 -->
<g id="edge25_Node000018_Node000007" class="edge">
<title>Node18&#45;&gt;Node7</title>
<g id="a_edge25_Node000018_Node000007"><a xlink:title=" ">
<path fill="none" stroke="#63b8ff" d="M299.03,-181.45C318.52,-160.63 356.52,-123.17 396,-101.5 399.22,-99.73 402.63,-98.12 406.13,-96.65"/>
<polygon fill="#63b8ff" stroke="#63b8ff" points="407.41,-99.91 415.51,-93.08 404.92,-93.36 407.41,-99.91"/>
</a>
</g>
</g>
<!-- Node18&#45;&gt;Node10 -->
<g id="edge26_Node000018_Node000010" class="edge">
<title>Node18&#45;&gt;Node10</title>
<g id="a_edge26_Node000018_Node000010"><a xlink:title=" ">
<path fill="none" stroke="#63b8ff" d="M357.6,-196.5C369.63,-196.5 382.03,-196.5 393.78,-196.5"/>
<polygon fill="#63b8ff" stroke="#63b8ff" points="393.91,-200 403.91,-196.5 393.91,-193 393.91,-200"/>
</a>
</g>
</g>
<!-- Node18&#45;&gt;Node11 -->
<g id="edge27_Node000018_Node000011" class="edge">
<title>Node18&#45;&gt;Node11</title>
<g id="a_edge27_Node000018_Node000011"><a xlink:title=" ">
<path fill="none" stroke="#63b8ff" d="M307.38,-211.59C322.61,-222.41 343.12,-237.64 360,-252.5 377.22,-267.66 376.4,-277.58 396,-289.5 399.84,-291.83 404,-293.89 408.28,-295.68"/>
<polygon fill="#63b8ff" stroke="#63b8ff" points="407.17,-299 417.76,-299.23 409.62,-292.45 407.17,-299"/>
</a>
</g>
</g>
<!-- Node18&#45;&gt;Node12 -->
<g id="edge30_Node000018_Node000012" class="edge">
<title>Node18&#45;&gt;Node12</title>
<g id="a_edge30_Node000018_Node000012"><a xlink:title=" ">
<path fill="none" stroke="#63b8ff" d="M316.25,-181.46C338.3,-170.81 368.8,-156.38 396,-144.5 404.22,-140.91 413.15,-137.21 421.54,-133.82"/>
<polygon fill="#63b8ff" stroke="#63b8ff" points="423.07,-136.97 431.05,-130 420.47,-130.47 423.07,-136.97"/>
</a>
</g>
</g>
<!-- Node19 -->
<g id="Node000019" class="node">
<title>Node19</title>
<g id="a_Node000019"><a xlink:href="../../d6/d39/lmmpn_8h.html#adb916bdc219e06dbf8f8f0cdf00d89aa" target="_top" xlink:title="大数减单精度数静态内联函数 [dst,na]=[numa,na]&#45;x">
<polygon fill="white" stroke="#666666" points="498.5,-19 414.5,-19 414.5,0 498.5,0 498.5,-19"/>
<text text-anchor="middle" x="456.5" y="-7" font-family="Helvetica,sans-Serif" font-size="10.00">lmmp_sub_1_</text>
</a>
</g>
</g>
<!-- Node18&#45;&gt;Node19 -->
<g id="edge29_Node000018_Node000019" class="edge">
<title>Node18&#45;&gt;Node19</title>
<g id="a_edge29_Node000018_Node000019"><a xlink:title=" ">
<path fill="none" stroke="#63b8ff" d="M291.19,-181.31C304.36,-148.24 340.16,-69.31 396,-27.5 398.81,-25.4 401.86,-23.54 405.05,-21.9"/>
<polygon fill="#63b8ff" stroke="#63b8ff" points="406.58,-25.05 414.32,-17.82 403.75,-18.64 406.58,-25.05"/>
</a>
</g>
</g>
<!-- Node20 -->
<g id="Node000020" class="node">
<title>Node20</title>
<g id="a_Node000020"><a xlink:href="../../d6/d39/lmmpn_8h.html#afa8f36d4b874f3c5482caaf4c63ef6d5" target="_top" xlink:title="大数判零函数（内联）">
<polygon fill="white" stroke="#666666" points="500.5,-56 412.5,-56 412.5,-37 500.5,-37 500.5,-56"/>
<text text-anchor="middle" x="456.5" y="-44" font-family="Helvetica,sans-Serif" font-size="10.00">lmmp_zero_q_</text>
</a>
</g>
</g>
<!-- Node18&#45;&gt;Node20 -->
<g id="edge31_Node000018_Node000020" class="edge">
<title>Node18&#45;&gt;Node20</title>
<g id="a_edge31_Node000018_Node000020"><a xlink:title=" ">
<path fill="none" stroke="#63b8ff" d="M294.04,-181.38C310.3,-153.96 348.37,-95.96 396,-64.5 398.41,-62.91 400.96,-61.46 403.6,-60.13"/>
<polygon fill="#63b8ff" stroke="#63b8ff" points="405.09,-63.3 412.84,-56.07 402.28,-56.89 405.09,-63.3"/>
</a>
</g>
</g>
</g>
</svg>

<g id="navigator" transform="translate(0 0)" fill="#404254">
  <rect fill="#f2f5e9" fill-opacity="0.5" stroke="#606060" stroke-width=".5" x="0" y="0" width="60" height="60"/>
  <use id="zoomplus" xlink:href="#zoomPlus" x="17" y="9" onmousedown="handleZoom(evt,'in')"/>
  <use id="zoomminus" xlink:href="#zoomMin" x="42" y="9" onmousedown="handleZoom(evt,'out')"/>
  <use id="reset" xlink:href="#resetDef" x="30" y="36" onmousedown="handleReset()"/>
   <use id="arrowup" xlink:href="#arrowUp" x="0" y="0" onmousedown="handlePan(0,-1)"/>
  <use id="arrowright" xlink:href="#arrowRight" x="0" y="0" onmousedown="handlePan(1,0)"/>
  <use id="arrowdown" xlink:href="#arrowDown" x="0" y="0" onmousedown="handlePan(0,1)"/>
  <use id="arrowleft" xlink:href="#arrowLeft" x="0" y="0" onmousedown="handlePan(-1,0)"/>
</g>
<svg viewBox="0 0 15 15" width="100%" height="30px" preserveAspectRatio="xMaxYMin meet">
 <g id="arrow_out" transform="scale(0.3 0.3)">
  <a xlink:href="mul__toom42_8c_a8c86ba69ee0658ecf28793a92f6ef0c9_cgraph_org.svg" target="_base">
   <rect id="button" ry="5" rx="5" y="6" x="6" height="38" width="38"
        fill="#f2f5e9" fill-opacity="0.5" stroke="#606060" stroke-width="1.0"/>
   <path id="arrow"
     d="M 11.500037,31.436501 C 11.940474,20.09759 22.043105,11.32322 32.158766,21.979434 L 37.068811,17.246167 C 37.068811,17.246167 37.088388,32 37.088388,32 L 22.160133,31.978069 C 22.160133,31.978069 26.997745,27.140456 26.997745,27.140456 C 18.528582,18.264221 13.291696,25.230495 11.500037,31.436501 z"
     style="fill:#404040;"/>
  </a>
 </g>
</svg>

<style type='text/css'>
<![CDATA[
[data-mouse-over-selected='false'] { opacity: 0.7; }
[data-mouse-over-selected='true']  { opacity: 1.0; }
]]>
</style>
<script type="application/ecmascript"><![CDATA[
document.addEventListener('DOMContentLoaded', (event) => {
  highlightEdges();
  highlightAdjacentNodes();
});
]]></script>
</svg>
