<?xml version="1.0" encoding="UTF-8" standalone="no"?>
<!DOCTYPE svg PUBLIC "-//W3C//DTD SVG 1.1//EN"
 "http://www.w3.org/Graphics/SVG/1.1/DTD/svg11.dtd">
<!-- Generated by graphviz version 2.43.0 (0)
 -->
<!-- Title: Rational::from_double Pages: 1 -->
<svg width="658pt" height="156pt"
 viewBox="0.00 0.00 658.00 156.00" xmlns="http://www.w3.org/2000/svg" xmlns:xlink="http://www.w3.org/1999/xlink">
<g id="graph0" class="graph" transform="scale(1 1) rotate(0) translate(4 152)">
<title>Rational::from_double</title>
<!-- Node1 -->
<g id="Node000001" class="node">
<title>Node1</title>
<g id="a_Node000001"><a xlink:title="从 double 构造有理数">
<polygon fill="#999999" stroke="#666666" points="125,-128 0,-128 0,-109 125,-109 125,-128"/>
<text text-anchor="middle" x="62.5" y="-116" font-family="Helvetica,sans-Serif" font-size="10.00">Rational::from_double</text>
</a>
</g>
</g>
<!-- Node2 -->
<g id="Node000002" class="node">
<title>Node2</title>
<g id="a_Node000002"><a xlink:href="../../d8/da7/classRational.html#a3bbd6ff67c590da76ddfcbd48cd3de0a" target="_top" xlink:title="默认构造，值为 0">
<polygon fill="white" stroke="#666666" points="265,-147 161,-147 161,-128 265,-128 265,-147"/>
<text text-anchor="middle" x="213" y="-135" font-family="Helvetica,sans-Serif" font-size="10.00">Rational::Rational</text>
</a>
</g>
</g>
<!-- Node1&#45;&gt;Node2 -->
<g id="edge1_Node000001_Node000002" class="edge">
<title>Node1&#45;&gt;Node2</title>
<g id="a_edge1_Node000001_Node000002"><a xlink:title=" ">
<path fill="none" stroke="#63b8ff" d="M125.19,-126.39C133.57,-127.47 142.18,-128.57 150.56,-129.64"/>
<polygon fill="#63b8ff" stroke="#63b8ff" points="150.27,-133.13 160.64,-130.93 151.16,-126.19 150.27,-133.13"/>
</a>
</g>
</g>
<!-- Node3 -->
<g id="Node000003" class="node">
<title>Node3</title>
<g id="a_Node000003"><a xlink:href="../../d8/da7/classRational.html#a3d410504846bf492103a5c2a8b53d7c6" target="_top" xlink:title=" ">
<polygon fill="white" stroke="#666666" points="264,-110 162,-110 162,-91 264,-91 264,-110"/>
<text text-anchor="middle" x="213" y="-98" font-family="Helvetica,sans-Serif" font-size="10.00">Rational::simplify</text>
</a>
</g>
</g>
<!-- Node1&#45;&gt;Node3 -->
<g id="edge2_Node000001_Node000003" class="edge">
<title>Node1&#45;&gt;Node3</title>
<g id="a_edge2_Node000001_Node000003"><a xlink:title=" ">
<path fill="none" stroke="#63b8ff" d="M125.19,-111.02C133.89,-109.97 142.84,-108.88 151.52,-107.83"/>
<polygon fill="#63b8ff" stroke="#63b8ff" points="152.06,-111.29 161.56,-106.61 151.21,-104.34 152.06,-111.29"/>
</a>
</g>
</g>
<!-- Node4 -->
<g id="Node000004" class="node">
<title>Node4</title>
<g id="a_Node000004"><a xlink:href="../../da/d5b/classBigInt.html#a4bff1a207fd14cd96badb54d0a470c1a" target="_top" xlink:title="取绝对值">
<polygon fill="white" stroke="#666666" points="525.5,-148 456.5,-148 456.5,-129 525.5,-129 525.5,-148"/>
<text text-anchor="middle" x="491" y="-136" font-family="Helvetica,sans-Serif" font-size="10.00">BigInt::Abs</text>
</a>
</g>
</g>
<!-- Node3&#45;&gt;Node4 -->
<g id="edge3_Node000003_Node000004" class="edge">
<title>Node3&#45;&gt;Node4</title>
<g id="a_edge3_Node000003_Node000004"><a xlink:title=" ">
<path fill="none" stroke="#63b8ff" d="M253.23,-110.07C268.12,-113.44 285.27,-117 301,-119.5 350.42,-127.35 407.65,-132.57 446.08,-135.52"/>
<polygon fill="#63b8ff" stroke="#63b8ff" points="446.16,-139.04 456.39,-136.29 446.68,-132.06 446.16,-139.04"/>
</a>
</g>
</g>
<!-- Node5 -->
<g id="Node000005" class="node">
<title>Node5</title>
<g id="a_Node000005"><a xlink:href="../../da/d5b/classBigInt.html#a4804d5bec19a3d92f9c34713c83ef7e1" target="_top" xlink:title="计算最大公约数">
<polygon fill="white" stroke="#666666" points="387,-110 319,-110 319,-91 387,-91 387,-110"/>
<text text-anchor="middle" x="353" y="-98" font-family="Helvetica,sans-Serif" font-size="10.00">BigInt::gcd</text>
</a>
</g>
</g>
<!-- Node3&#45;&gt;Node5 -->
<g id="edge4_Node000003_Node000005" class="edge">
<title>Node3&#45;&gt;Node5</title>
<g id="a_edge4_Node000003_Node000005"><a xlink:title=" ">
<path fill="none" stroke="#63b8ff" d="M264.21,-100.5C278.7,-100.5 294.4,-100.5 308.45,-100.5"/>
<polygon fill="#63b8ff" stroke="#63b8ff" points="308.83,-104 318.83,-100.5 308.83,-97 308.83,-104"/>
</a>
</g>
</g>
<!-- Node11 -->
<g id="Node000011" class="node">
<title>Node11</title>
<g id="a_Node000011"><a xlink:href="../../da/d5b/classBigInt.html#ae5d874ccb625319e093bec91b29e5a24" target="_top" xlink:title="判断是否为负数">
<polygon fill="white" stroke="#666666" points="405,-73 301,-73 301,-54 405,-54 405,-73"/>
<text text-anchor="middle" x="353" y="-61" font-family="Helvetica,sans-Serif" font-size="10.00">BigInt::IsNegative</text>
</a>
</g>
</g>
<!-- Node3&#45;&gt;Node11 -->
<g id="edge11_Node000003_Node000011" class="edge">
<title>Node3&#45;&gt;Node11</title>
<g id="a_edge11_Node000003_Node000011"><a xlink:title=" ">
<path fill="none" stroke="#63b8ff" d="M249.54,-90.97C266.87,-86.33 287.91,-80.68 306.41,-75.72"/>
<polygon fill="#63b8ff" stroke="#63b8ff" points="307.35,-79.1 316.1,-73.12 305.54,-72.33 307.35,-79.1"/>
</a>
</g>
</g>
<!-- Node5&#45;&gt;Node4 -->
<g id="edge5_Node000005_Node000004" class="edge">
<title>Node5&#45;&gt;Node4</title>
<g id="a_edge5_Node000005_Node000004"><a xlink:title=" ">
<path fill="none" stroke="#63b8ff" d="M387.27,-109.8C405.08,-114.77 427.24,-120.96 446.41,-126.32"/>
<polygon fill="#63b8ff" stroke="#63b8ff" points="445.56,-129.72 456.13,-129.04 447.44,-122.97 445.56,-129.72"/>
</a>
</g>
</g>
<!-- Node6 -->
<g id="Node000006" class="node">
<title>Node6</title>
<g id="a_Node000006"><a xlink:href="../../da/d5b/classBigInt.html#a6ae37e804e0989cb245f32f90a2d5f64" target="_top" xlink:title="判断是否为零">
<polygon fill="white" stroke="#666666" points="534,-111 448,-111 448,-92 534,-92 534,-111"/>
<text text-anchor="middle" x="491" y="-99" font-family="Helvetica,sans-Serif" font-size="10.00">BigInt::is_zero</text>
</a>
</g>
</g>
<!-- Node5&#45;&gt;Node6 -->
<g id="edge6_Node000005_Node000006" class="edge">
<title>Node5&#45;&gt;Node6</title>
<g id="a_edge6_Node000005_Node000006"><a xlink:title=" ">
<path fill="none" stroke="#63b8ff" d="M387.27,-100.74C402.38,-100.86 420.61,-100.99 437.5,-101.11"/>
<polygon fill="#63b8ff" stroke="#63b8ff" points="437.78,-104.62 447.8,-101.19 437.83,-97.62 437.78,-104.62"/>
</a>
</g>
</g>
<!-- Node7 -->
<g id="Node000007" class="node">
<title>Node7</title>
<g id="a_Node000007"><a xlink:href="../../da/d5b/classBigInt.html#a3b10bb8ac846314c6e4ad6167e5ec5bf" target="_top" xlink:title=" ">
<polygon fill="white" stroke="#666666" points="541,-74 441,-74 441,-55 541,-55 541,-74"/>
<text text-anchor="middle" x="491" y="-62" font-family="Helvetica,sans-Serif" font-size="10.00">BigInt::normalize</text>
</a>
</g>
</g>
<!-- Node5&#45;&gt;Node7 -->
<g id="edge7_Node000005_Node000007" class="edge">
<title>Node5&#45;&gt;Node7</title>
<g id="a_edge7_Node000005_Node000007"><a xlink:title=" ">
<path fill="none" stroke="#63b8ff" d="M387.27,-91.69C404.33,-87.18 425.39,-81.6 443.98,-76.68"/>
<polygon fill="#63b8ff" stroke="#63b8ff" points="444.96,-80.04 453.73,-74.1 443.17,-73.28 444.96,-80.04"/>
</a>
</g>
</g>
<!-- Node8 -->
<g id="Node000008" class="node">
<title>Node8</title>
<g id="a_Node000008"><a xlink:href="../../da/d5b/classBigInt.html#ad0b220e3ad54190c7cc069355f8d134d" target="_top" xlink:title=" ">
<polygon fill="white" stroke="#666666" points="540.5,-37 441.5,-37 441.5,-18 540.5,-18 540.5,-37"/>
<text text-anchor="middle" x="491" y="-25" font-family="Helvetica,sans-Serif" font-size="10.00">BigInt::realloc_to</text>
</a>
</g>
</g>
<!-- Node5&#45;&gt;Node8 -->
<g id="edge8_Node000005_Node000008" class="edge">
<title>Node5&#45;&gt;Node8</title>
<g id="a_edge8_Node000005_Node000008"><a xlink:title=" ">
<path fill="none" stroke="#63b8ff" d="M387.11,-91.25C393.29,-88.85 399.52,-85.95 405,-82.5 424.14,-70.44 422.04,-58.86 441,-46.5 443.92,-44.6 447.05,-42.84 450.28,-41.23"/>
<polygon fill="#63b8ff" stroke="#63b8ff" points="451.82,-44.37 459.49,-37.06 448.94,-37.99 451.82,-44.37"/>
</a>
</g>
</g>
<!-- Node9 -->
<g id="Node000009" class="node">
<title>Node9</title>
<g id="a_Node000009"><a xlink:href="../../d8/d09/bigint_8hpp.html#a9026e394fc1db1b74fe5802cac9d3793" target="_top" xlink:title="为 BigInt 分配内存">
<polygon fill="white" stroke="#666666" points="650,-56 577,-56 577,-37 650,-37 650,-56"/>
<text text-anchor="middle" x="613.5" y="-44" font-family="Helvetica,sans-Serif" font-size="10.00">bigint_alloc</text>
</a>
</g>
</g>
<!-- Node8&#45;&gt;Node9 -->
<g id="edge9_Node000008_Node000009" class="edge">
<title>Node8&#45;&gt;Node9</title>
<g id="a_edge9_Node000008_Node000009"><a xlink:title=" ">
<path fill="none" stroke="#63b8ff" d="M540.66,-35.17C549.4,-36.55 558.47,-37.98 567.1,-39.34"/>
<polygon fill="#63b8ff" stroke="#63b8ff" points="566.57,-42.8 576.99,-40.9 567.66,-35.89 566.57,-42.8"/>
</a>
</g>
</g>
<!-- Node10 -->
<g id="Node000010" class="node">
<title>Node10</title>
<g id="a_Node000010"><a xlink:href="../../d8/d09/bigint_8hpp.html#a6fd664dfe6c832ce148d818c5663fa93" target="_top" xlink:title="释放 BigInt 内部分配的内存">
<polygon fill="white" stroke="#666666" points="648,-19 579,-19 579,0 648,0 648,-19"/>
<text text-anchor="middle" x="613.5" y="-7" font-family="Helvetica,sans-Serif" font-size="10.00">bigint_free</text>
</a>
</g>
</g>
<!-- Node8&#45;&gt;Node10 -->
<g id="edge10_Node000008_Node000010" class="edge">
<title>Node8&#45;&gt;Node10</title>
<g id="a_edge10_Node000008_Node000010"><a xlink:title=" ">
<path fill="none" stroke="#63b8ff" d="M540.66,-20.23C549.97,-18.84 559.65,-17.39 568.79,-16.03"/>
<polygon fill="#63b8ff" stroke="#63b8ff" points="569.44,-19.47 578.82,-14.53 568.41,-12.55 569.44,-19.47"/>
</a>
</g>
</g>
</g>
</svg>
