<?xml version="1.0" encoding="UTF-8" standalone="no"?>
<!DOCTYPE svg PUBLIC "-//W3C//DTD SVG 1.1//EN"
 "http://www.w3.org/Graphics/SVG/1.1/DTD/svg11.dtd">
<!-- Generated by graphviz version 2.43.0 (0)
 -->
<!-- Title: Rational::to_string Pages: 1 -->
<svg width="261pt" height="64pt"
 viewBox="0.00 0.00 261.00 64.00" xmlns="http://www.w3.org/2000/svg" xmlns:xlink="http://www.w3.org/1999/xlink">
<g id="graph0" class="graph" transform="scale(1 1) rotate(0) translate(4 60)">
<title>Rational::to_string</title>
<!-- Node1 -->
<g id="Node000001" class="node">
<title>Node1</title>
<g id="a_Node000001"><a xlink:title="转换为分数字符串（如 &quot;3/4&quot;）">
<polygon fill="#999999" stroke="#666666" points="106,-37 0,-37 0,-18 106,-18 106,-37"/>
<text text-anchor="middle" x="53" y="-25" font-family="Helvetica,sans-Serif" font-size="10.00">Rational::to_string</text>
</a>
</g>
</g>
<!-- Node2 -->
<g id="Node000002" class="node">
<title>Node2</title>
<g id="a_Node000002"><a xlink:href="../../d8/da7/classRational.html#ae52ed781f212791d7fa0202b8fb33336" target="_top" xlink:title="判断是否为整数（分母为 1）">
<polygon fill="white" stroke="#666666" points="253,-56 142,-56 142,-37 253,-37 253,-56"/>
<text text-anchor="middle" x="197.5" y="-44" font-family="Helvetica,sans-Serif" font-size="10.00">Rational::is_integer</text>
</a>
</g>
</g>
<!-- Node1&#45;&gt;Node2 -->
<g id="edge1_Node000001_Node000002" class="edge">
<title>Node1&#45;&gt;Node2</title>
<g id="a_edge1_Node000001_Node000002"><a xlink:title=" ">
<path fill="none" stroke="#63b8ff" d="M106.25,-34.47C114.59,-35.58 123.3,-36.74 131.88,-37.88"/>
<polygon fill="#63b8ff" stroke="#63b8ff" points="131.49,-41.36 141.86,-39.21 132.41,-34.42 131.49,-41.36"/>
</a>
</g>
</g>
<!-- Node3 -->
<g id="Node000003" class="node">
<title>Node3</title>
<g id="a_Node000003"><a xlink:href="../../da/d5b/classBigInt.html#abcf20f7b1da4376607029ec291481593" target="_top" xlink:title="转换为十进制字符串">
<polygon fill="white" stroke="#666666" points="242.5,-19 152.5,-19 152.5,0 242.5,0 242.5,-19"/>
<text text-anchor="middle" x="197.5" y="-7" font-family="Helvetica,sans-Serif" font-size="10.00">BigInt::ToString</text>
</a>
</g>
</g>
<!-- Node1&#45;&gt;Node3 -->
<g id="edge2_Node000001_Node000003" class="edge">
<title>Node1&#45;&gt;Node3</title>
<g id="a_edge2_Node000001_Node000003"><a xlink:title=" ">
<path fill="none" stroke="#63b8ff" d="M106.25,-20.9C117.93,-19.43 130.33,-17.86 142.09,-16.37"/>
<polygon fill="#63b8ff" stroke="#63b8ff" points="142.74,-19.82 152.22,-15.09 141.86,-12.87 142.74,-19.82"/>
</a>
</g>
</g>
</g>
</svg>
