<?xml version="1.0" encoding="UTF-8" standalone="no"?>
<!DOCTYPE svg PUBLIC "-//W3C//DTD SVG 1.1//EN"
 "http://www.w3.org/Graphics/SVG/1.1/DTD/svg11.dtd">
<!-- Generated by graphviz version 2.43.0 (0)
 -->
<!-- Title: Rational::is_integer Pages: 1 -->
<svg width="418pt" height="89pt"
 viewBox="0.00 0.00 418.00 88.50" xmlns="http://www.w3.org/2000/svg" xmlns:xlink="http://www.w3.org/1999/xlink">

<svg id="main" version="1.1" xmlns="http://www.w3.org/2000/svg" xmlns:xlink="http://www.w3.org/1999/xlink" xml:space="preserve" onload="init(evt)">
<style type="text/css"><![CDATA[
.node, .edge {opacity: 0.7;}
.node.selected, .edge.selected {opacity: 1;}
.edge:hover path { stroke: red; }
.edge:hover polygon { stroke: red; fill: red; }
]]></style>
<script type="application/ecmascript" xlink:href="../../svg.min.js"/>
<svg id="graph" class="graph">
<g id="graph0" class="graph" transform="scale(1 1) rotate(0) translate(4 84.5)">
<title>Rational::is_integer</title>
<!-- Node1 -->
<g id="Node000001" class="node">
<title>Node1</title>
<g id="a_Node000001"><a xlink:title="判断是否为整数（分母为 1）">
<polygon fill="#999999" stroke="#666666" points="410,-56 299,-56 299,-37 410,-37 410,-56"/>
<text text-anchor="middle" x="354.5" y="-44" font-family="Helvetica,sans-Serif" font-size="10.00">Rational::is_integer</text>
</a>
</g>
</g>
<!-- Node2 -->
<g id="Node000002" class="node">
<title>Node2</title>
<g id="a_Node000002"><a xlink:href="../../d1/d42/namespacelamina.html#aead64e22a3cb11a823301932a3308023" target="_top" xlink:title=" ">
<polygon fill="white" stroke="#666666" points="120,-80.5 0,-80.5 0,-50.5 120,-50.5 120,-80.5"/>
<text text-anchor="start" x="8" y="-68.5" font-family="Helvetica,sans-Serif" font-size="10.00">lamina::extract_coeff</text>
<text text-anchor="middle" x="60" y="-57.5" font-family="Helvetica,sans-Serif" font-size="10.00">_value&lt; BigInt &gt;</text>
</a>
</g>
</g>
<!-- Node1&#45;&gt;Node2 -->
<g id="edge1_Node000001_Node000002" class="edge">
<title>Node1&#45;&gt;Node2</title>
<g id="a_edge1_Node000001_Node000002"><a xlink:title=" ">
<path fill="none" stroke="#63b8ff" d="M306.88,-58.21C292.87,-61.21 277.39,-64.01 263,-65.5 215.21,-70.46 160.72,-70.11 120.39,-68.72"/>
<polygon fill="#63b8ff" stroke="#63b8ff" points="307.78,-61.6 316.79,-56.01 306.27,-54.76 307.78,-61.6"/>
</a>
</g>
</g>
<!-- Node3 -->
<g id="Node000003" class="node">
<title>Node3</title>
<g id="a_Node000003"><a xlink:href="../../d8/da7/classRational.html#a6aa500971112a34229c21297cb16575e" target="_top" xlink:title="转换为 BigInt（仅当为整数时有效）">
<polygon fill="white" stroke="#666666" points="263,-56 156,-56 156,-37 263,-37 263,-56"/>
<text text-anchor="middle" x="209.5" y="-44" font-family="Helvetica,sans-Serif" font-size="10.00">Rational::to_BigInt</text>
</a>
</g>
</g>
<!-- Node1&#45;&gt;Node3 -->
<g id="edge2_Node000001_Node000003" class="edge">
<title>Node1&#45;&gt;Node3</title>
<g id="a_edge2_Node000001_Node000003"><a xlink:title=" ">
<path fill="none" stroke="#63b8ff" d="M288.39,-46.5C279.92,-46.5 271.34,-46.5 263.11,-46.5"/>
<polygon fill="#63b8ff" stroke="#63b8ff" points="288.62,-50 298.62,-46.5 288.62,-43 288.62,-50"/>
</a>
</g>
</g>
<!-- Node4 -->
<g id="Node000004" class="node">
<title>Node4</title>
<g id="a_Node000004"><a xlink:href="../../d8/da7/classRational.html#a500d48eba81fcba097a5aa697637c278" target="_top" xlink:title="转换为分数字符串（如 &quot;3/4&quot;）">
<polygon fill="white" stroke="#666666" points="262.5,-19 156.5,-19 156.5,0 262.5,0 262.5,-19"/>
<text text-anchor="middle" x="209.5" y="-7" font-family="Helvetica,sans-Serif" font-size="10.00">Rational::to_string</text>
</a>
</g>
</g>
<!-- Node1&#45;&gt;Node4 -->
<g id="edge4_Node000001_Node000004" class="edge">
<title>Node1&#45;&gt;Node4</title>
<g id="a_edge4_Node000001_Node000004"><a xlink:title=" ">
<path fill="none" stroke="#63b8ff" d="M306.92,-34.45C287.73,-29.48 265.79,-23.81 247.7,-19.12"/>
<polygon fill="#63b8ff" stroke="#63b8ff" points="306.12,-37.86 316.67,-36.97 307.87,-31.08 306.12,-37.86"/>
</a>
</g>
</g>
<!-- Node3&#45;&gt;Node2 -->
<g id="edge3_Node000003_Node000002" class="edge">
<title>Node3&#45;&gt;Node2</title>
<g id="a_edge3_Node000003_Node000002"><a xlink:title=" ">
<path fill="none" stroke="#63b8ff" d="M145.55,-54.61C137.15,-55.69 128.56,-56.8 120.23,-57.87"/>
<polygon fill="#63b8ff" stroke="#63b8ff" points="146.19,-58.05 155.67,-53.31 145.3,-51.11 146.19,-58.05"/>
</a>
</g>
</g>
</g>
</svg>
</svg>

<style type='text/css'>
<![CDATA[
[data-mouse-over-selected='false'] { opacity: 0.7; }
[data-mouse-over-selected='true']  { opacity: 1.0; }
]]>
</style>
<script type="application/ecmascript"><![CDATA[
document.addEventListener('DOMContentLoaded', (event) => {
  highlightEdges();
  highlightAdjacentNodes();
});
]]></script>
</svg>
