<?xml version="1.0" encoding="UTF-8" standalone="no"?>
<!DOCTYPE svg PUBLIC "-//W3C//DTD SVG 1.1//EN"
 "http://www.w3.org/Graphics/SVG/1.1/DTD/svg11.dtd">
<!-- Generated by graphviz version 2.43.0 (0)
 -->
<!-- Title: Rational::floor Pages: 1 -->
<!--zoomable 195 -->

<svg id="main" version="1.1" xmlns="http://www.w3.org/2000/svg" xmlns:xlink="http://www.w3.org/1999/xlink" xml:space="preserve" onload="init(evt)">
<style type="text/css"><![CDATA[
.node, .edge {opacity: 0.7;}
.node.selected, .edge.selected {opacity: 1;}
.edge:hover path { stroke: red; }
.edge:hover polygon { stroke: red; fill: red; }
]]></style>

<defs>
  <circle id="rim" cx="0" cy="0" r="7"/>
  <circle id="rim2" cx="0" cy="0" r="3.5"/>
  <g id="zoomPlus">
    <use xlink:href="#rim" fill="#404040"><set attributeName="fill" to="#808080" begin="zoomplus.mouseover" end="zoomplus.mouseout"/></use>
    <path d="M-4,0h8M0,-4v8" fill="none" stroke="white" stroke-width="1.5" pointer-events="none"/>
  </g>
  <g id="zoomMin">
    <use xlink:href="#rim" fill="#404040"><set attributeName="fill" to="#808080" begin="zoomminus.mouseover" end="zoomminus.mouseout"/></use>
    <path d="M-4,0h8" fill="none" stroke="white" stroke-width="1.5" pointer-events="none"/>
  </g>
  <g id="arrowUp" transform="translate(30 24)">
    <use xlink:href="#rim"/>
    <path pointer-events="none" fill="none" stroke="white" stroke-width="1.5" d="M0,-3.0v7 M-2.5,-0.5L0,-3.0L2.5,-0.5"/>
  </g>
  <g id="arrowRight" transform="rotate(90) translate(36 -43)">
    <use xlink:href="#rim"/>
    <path pointer-events="none" fill="none" stroke="white" stroke-width="1.5" d="M0,-3.0v7 M-2.5,-0.5L0,-3.0L2.5,-0.5"/>
  </g>
  <g id="arrowDown" transform="rotate(180) translate(-30 -48)">
    <use xlink:href="#rim"/>
    <path pointer-events="none" fill="none" stroke="white" stroke-width="1.5" d="M0,-3.0v7 M-2.5,-0.5L0,-3.0L2.5,-0.5"/>
  </g>
  <g id="arrowLeft" transform="rotate(270) translate(-36 17)">
    <use xlink:href="#rim"/>
    <path pointer-events="none" fill="none" stroke="white" stroke-width="1.5" d="M0,-3.0v7 M-2.5,-0.5L0,-3.0L2.5,-0.5"/>
  </g>
  <g id="resetDef">
    <use xlink:href="#rim2" fill="#404040"><set attributeName="fill" to="#808080" begin="reset.mouseover" end="reset.mouseout"/></use>
  </g>
</defs>
<script type="application/ecmascript">
var viewWidth = 664;
var viewHeight = 195;
var sectionId = 'dynsection-8';
</script>
<script type="application/ecmascript" xlink:href="../../svg.min.js"/>
<svg id="graph" class="graph">
<g id="viewport">
<title>Rational::floor</title>
<!-- Node1 -->
<g id="Node000001" class="node">
<title>Node1</title>
<g id="a_Node000001"><a xlink:title="截断到指定精度（就地修改）">
<polygon fill="#999999" stroke="#666666" points="85,-94 0,-94 0,-75 85,-75 85,-94"/>
<text text-anchor="middle" x="42.5" y="-82" font-family="Helvetica,sans-Serif" font-size="10.00">Rational::floor</text>
</a>
</g>
</g>
<!-- Node2 -->
<g id="Node000002" class="node">
<title>Node2</title>
<g id="a_Node000002"><a xlink:href="../../d8/da7/classRational.html#aa3a6b3ad3024b4dcdd336967f2094609" target="_top" xlink:title=" ">
<polygon fill="white" stroke="#666666" points="271,-122 121,-122 121,-103 271,-103 271,-122"/>
<text text-anchor="middle" x="196" y="-110" font-family="Helvetica,sans-Serif" font-size="10.00">Rational::floor_without_sim</text>
</a>
</g>
</g>
<!-- Node1&#45;&gt;Node2 -->
<g id="edge1_Node000001_Node000002" class="edge">
<title>Node1&#45;&gt;Node2</title>
<g id="a_edge1_Node000001_Node000002"><a xlink:title=" ">
<path fill="none" stroke="#63b8ff" d="M85.3,-92.23C100.17,-94.97 117.24,-98.13 133.41,-101.12"/>
<polygon fill="#63b8ff" stroke="#63b8ff" points="132.87,-104.58 143.34,-102.95 134.14,-97.69 132.87,-104.58"/>
</a>
</g>
</g>
<!-- Node9 -->
<g id="Node000009" class="node">
<title>Node9</title>
<g id="a_Node000009"><a xlink:href="../../d8/da7/classRational.html#a3d410504846bf492103a5c2a8b53d7c6" target="_top" xlink:title=" ">
<polygon fill="white" stroke="#666666" points="247,-76 145,-76 145,-57 247,-57 247,-76"/>
<text text-anchor="middle" x="196" y="-64" font-family="Helvetica,sans-Serif" font-size="10.00">Rational::simplify</text>
</a>
</g>
</g>
<!-- Node1&#45;&gt;Node9 -->
<g id="edge8_Node000001_Node000009" class="edge">
<title>Node1&#45;&gt;Node9</title>
<g id="a_edge8_Node000001_Node000009"><a xlink:title=" ">
<path fill="none" stroke="#63b8ff" d="M85.3,-79.53C100.6,-77.72 118.24,-75.62 134.83,-73.65"/>
<polygon fill="#63b8ff" stroke="#63b8ff" points="135.48,-77.1 145,-72.44 134.65,-70.15 135.48,-77.1"/>
</a>
</g>
</g>
<!-- Node3 -->
<g id="Node000003" class="node">
<title>Node3</title>
<g id="a_Node000003"><a xlink:href="../../da/d5b/classBigInt.html#ac5d50e001791835b70c84cdac9b74e88" target="_top" xlink:title="整数幂运算">
<polygon fill="white" stroke="#666666" points="399.5,-150 318.5,-150 318.5,-131 399.5,-131 399.5,-150"/>
<text text-anchor="middle" x="359" y="-138" font-family="Helvetica,sans-Serif" font-size="10.00">BigInt::power</text>
</a>
</g>
</g>
<!-- Node2&#45;&gt;Node3 -->
<g id="edge2_Node000002_Node000003" class="edge">
<title>Node2&#45;&gt;Node3</title>
<g id="a_edge2_Node000002_Node000003"><a xlink:title=" ">
<path fill="none" stroke="#63b8ff" d="M251.96,-122.06C270.16,-125.22 290.3,-128.73 308.1,-131.82"/>
<polygon fill="#63b8ff" stroke="#63b8ff" points="307.82,-135.33 318.27,-133.59 309.02,-128.43 307.82,-135.33"/>
</a>
</g>
</g>
<!-- Node4 -->
<g id="Node000004" class="node">
<title>Node4</title>
<g id="a_Node000004"><a xlink:href="../../da/d5b/classBigInt.html#af677021c0987fc2a48da06837ed29c58" target="_top" xlink:title="默认构造，值为 0">
<polygon fill="white" stroke="#666666" points="537,-187 457,-187 457,-168 537,-168 537,-187"/>
<text text-anchor="middle" x="497" y="-175" font-family="Helvetica,sans-Serif" font-size="10.00">BigInt::BigInt</text>
</a>
</g>
</g>
<!-- Node3&#45;&gt;Node4 -->
<g id="edge3_Node000003_Node000004" class="edge">
<title>Node3&#45;&gt;Node4</title>
<g id="a_edge3_Node000003_Node000004"><a xlink:title=" ">
<path fill="none" stroke="#63b8ff" d="M395.02,-150.03C412.02,-154.65 432.65,-160.27 450.82,-165.21"/>
<polygon fill="#63b8ff" stroke="#63b8ff" points="450.05,-168.63 460.62,-167.88 451.89,-161.87 450.05,-168.63"/>
</a>
</g>
</g>
<!-- Node5 -->
<g id="Node000005" class="node">
<title>Node5</title>
<g id="a_Node000005"><a xlink:href="../../da/d5b/classBigInt.html#a3b10bb8ac846314c6e4ad6167e5ec5bf" target="_top" xlink:title=" ">
<polygon fill="white" stroke="#666666" points="547,-113 447,-113 447,-94 547,-94 547,-113"/>
<text text-anchor="middle" x="497" y="-101" font-family="Helvetica,sans-Serif" font-size="10.00">BigInt::normalize</text>
</a>
</g>
</g>
<!-- Node3&#45;&gt;Node5 -->
<g id="edge4_Node000003_Node000005" class="edge">
<title>Node3&#45;&gt;Node5</title>
<g id="a_edge4_Node000003_Node000005"><a xlink:title=" ">
<path fill="none" stroke="#63b8ff" d="M395.02,-130.97C412.02,-126.35 432.65,-120.73 450.82,-115.79"/>
<polygon fill="#63b8ff" stroke="#63b8ff" points="451.89,-119.13 460.62,-113.12 450.05,-112.37 451.89,-119.13"/>
</a>
</g>
</g>
<!-- Node6 -->
<g id="Node000006" class="node">
<title>Node6</title>
<g id="a_Node000006"><a xlink:href="../../da/d5b/classBigInt.html#ad0b220e3ad54190c7cc069355f8d134d" target="_top" xlink:title=" ">
<polygon fill="white" stroke="#666666" points="546.5,-150 447.5,-150 447.5,-131 546.5,-131 546.5,-150"/>
<text text-anchor="middle" x="497" y="-138" font-family="Helvetica,sans-Serif" font-size="10.00">BigInt::realloc_to</text>
</a>
</g>
</g>
<!-- Node3&#45;&gt;Node6 -->
<g id="edge5_Node000003_Node000006" class="edge">
<title>Node3&#45;&gt;Node6</title>
<g id="a_edge5_Node000003_Node000006"><a xlink:title=" ">
<path fill="none" stroke="#63b8ff" d="M399.7,-140.5C411.46,-140.5 424.58,-140.5 437.27,-140.5"/>
<polygon fill="#63b8ff" stroke="#63b8ff" points="437.32,-144 447.32,-140.5 437.32,-137 437.32,-144"/>
</a>
</g>
</g>
<!-- Node7 -->
<g id="Node000007" class="node">
<title>Node7</title>
<g id="a_Node000007"><a xlink:href="../../d8/d09/bigint_8hpp.html#a9026e394fc1db1b74fe5802cac9d3793" target="_top" xlink:title="为 BigInt 分配内存">
<polygon fill="white" stroke="#666666" points="656,-168 583,-168 583,-149 656,-149 656,-168"/>
<text text-anchor="middle" x="619.5" y="-156" font-family="Helvetica,sans-Serif" font-size="10.00">bigint_alloc</text>
</a>
</g>
</g>
<!-- Node6&#45;&gt;Node7 -->
<g id="edge6_Node000006_Node000007" class="edge">
<title>Node6&#45;&gt;Node7</title>
<g id="a_edge6_Node000006_Node000007"><a xlink:title=" ">
<path fill="none" stroke="#63b8ff" d="M546.66,-147.77C555.4,-149.07 564.47,-150.43 573.1,-151.72"/>
<polygon fill="#63b8ff" stroke="#63b8ff" points="572.59,-155.18 582.99,-153.2 573.62,-148.26 572.59,-155.18"/>
</a>
</g>
</g>
<!-- Node8 -->
<g id="Node000008" class="node">
<title>Node8</title>
<g id="a_Node000008"><a xlink:href="../../d8/d09/bigint_8hpp.html#a6fd664dfe6c832ce148d818c5663fa93" target="_top" xlink:title="释放 BigInt 内部分配的内存">
<polygon fill="white" stroke="#666666" points="654,-131 585,-131 585,-112 654,-112 654,-131"/>
<text text-anchor="middle" x="619.5" y="-119" font-family="Helvetica,sans-Serif" font-size="10.00">bigint_free</text>
</a>
</g>
</g>
<!-- Node6&#45;&gt;Node8 -->
<g id="edge7_Node000006_Node000008" class="edge">
<title>Node6&#45;&gt;Node8</title>
<g id="a_edge7_Node000006_Node000008"><a xlink:title=" ">
<path fill="none" stroke="#63b8ff" d="M546.66,-132.83C555.97,-131.36 565.65,-129.83 574.79,-128.39"/>
<polygon fill="#63b8ff" stroke="#63b8ff" points="575.48,-131.83 584.82,-126.81 574.39,-124.91 575.48,-131.83"/>
</a>
</g>
</g>
<!-- Node10 -->
<g id="Node000010" class="node">
<title>Node10</title>
<g id="a_Node000010"><a xlink:href="../../da/d5b/classBigInt.html#a4bff1a207fd14cd96badb54d0a470c1a" target="_top" xlink:title="取绝对值">
<polygon fill="white" stroke="#666666" points="531.5,-39 462.5,-39 462.5,-20 531.5,-20 531.5,-39"/>
<text text-anchor="middle" x="497" y="-27" font-family="Helvetica,sans-Serif" font-size="10.00">BigInt::Abs</text>
</a>
</g>
</g>
<!-- Node9&#45;&gt;Node10 -->
<g id="edge9_Node000009_Node000010" class="edge">
<title>Node9&#45;&gt;Node10</title>
<g id="a_edge9_Node000009_Node000010"><a xlink:title=" ">
<path fill="none" stroke="#63b8ff" d="M247.05,-60.31C304.36,-53.21 397.38,-41.7 452.02,-34.94"/>
<polygon fill="#63b8ff" stroke="#63b8ff" points="452.59,-38.4 462.09,-33.7 451.73,-31.45 452.59,-38.4"/>
</a>
</g>
</g>
<!-- Node11 -->
<g id="Node000011" class="node">
<title>Node11</title>
<g id="a_Node000011"><a xlink:href="../../da/d5b/classBigInt.html#a4804d5bec19a3d92f9c34713c83ef7e1" target="_top" xlink:title="计算最大公约数">
<polygon fill="white" stroke="#666666" points="393,-95 325,-95 325,-76 393,-76 393,-95"/>
<text text-anchor="middle" x="359" y="-83" font-family="Helvetica,sans-Serif" font-size="10.00">BigInt::gcd</text>
</a>
</g>
</g>
<!-- Node9&#45;&gt;Node11 -->
<g id="edge10_Node000009_Node000011" class="edge">
<title>Node9&#45;&gt;Node11</title>
<g id="a_edge10_Node000009_Node000011"><a xlink:title=" ">
<path fill="none" stroke="#63b8ff" d="M247.06,-72.41C268.7,-74.96 293.77,-77.92 314.61,-80.38"/>
<polygon fill="#63b8ff" stroke="#63b8ff" points="314.42,-83.88 324.77,-81.58 315.24,-76.93 314.42,-83.88"/>
</a>
</g>
</g>
<!-- Node13 -->
<g id="Node000013" class="node">
<title>Node13</title>
<g id="a_Node000013"><a xlink:href="../../da/d5b/classBigInt.html#ae5d874ccb625319e093bec91b29e5a24" target="_top" xlink:title="判断是否为负数">
<polygon fill="white" stroke="#666666" points="411,-19 307,-19 307,0 411,0 411,-19"/>
<text text-anchor="middle" x="359" y="-7" font-family="Helvetica,sans-Serif" font-size="10.00">BigInt::IsNegative</text>
</a>
</g>
</g>
<!-- Node9&#45;&gt;Node13 -->
<g id="edge15_Node000009_Node000013" class="edge">
<title>Node9&#45;&gt;Node13</title>
<g id="a_edge15_Node000009_Node000013"><a xlink:title=" ">
<path fill="none" stroke="#63b8ff" d="M223.95,-56.96C250.65,-47.51 291.74,-32.96 321.39,-22.46"/>
<polygon fill="#63b8ff" stroke="#63b8ff" points="322.71,-25.71 330.96,-19.07 320.37,-19.11 322.71,-25.71"/>
</a>
</g>
</g>
<!-- Node11&#45;&gt;Node5 -->
<g id="edge13_Node000011_Node000005" class="edge">
<title>Node11&#45;&gt;Node5</title>
<g id="a_edge13_Node000011_Node000005"><a xlink:title=" ">
<path fill="none" stroke="#63b8ff" d="M393.27,-89.9C406.37,-91.64 421.82,-93.68 436.7,-95.65"/>
<polygon fill="#63b8ff" stroke="#63b8ff" points="436.5,-99.16 446.88,-97 437.42,-92.22 436.5,-99.16"/>
</a>
</g>
</g>
<!-- Node11&#45;&gt;Node6 -->
<g id="edge14_Node000011_Node000006" class="edge">
<title>Node11&#45;&gt;Node6</title>
<g id="a_edge14_Node000011_Node000006"><a xlink:title=" ">
<path fill="none" stroke="#63b8ff" d="M381.69,-95.08C399.21,-102.73 424.57,-113.62 447,-122.5 451.03,-124.1 455.26,-125.72 459.48,-127.31"/>
<polygon fill="#63b8ff" stroke="#63b8ff" points="458.61,-130.73 469.21,-130.93 461.05,-124.16 458.61,-130.73"/>
</a>
</g>
</g>
<!-- Node11&#45;&gt;Node10 -->
<g id="edge11_Node000011_Node000010" class="edge">
<title>Node11&#45;&gt;Node10</title>
<g id="a_edge11_Node000011_Node000010"><a xlink:title=" ">
<path fill="none" stroke="#63b8ff" d="M382.09,-75.87C399.62,-68.29 424.8,-57.52 447,-48.5 451.74,-46.57 456.75,-44.58 461.69,-42.64"/>
<polygon fill="#63b8ff" stroke="#63b8ff" points="462.96,-45.9 471.01,-39.01 460.42,-39.38 462.96,-45.9"/>
</a>
</g>
</g>
<!-- Node12 -->
<g id="Node000012" class="node">
<title>Node12</title>
<g id="a_Node000012"><a xlink:href="../../da/d5b/classBigInt.html#a6ae37e804e0989cb245f32f90a2d5f64" target="_top" xlink:title="判断是否为零">
<polygon fill="white" stroke="#666666" points="540,-76 454,-76 454,-57 540,-57 540,-76"/>
<text text-anchor="middle" x="497" y="-64" font-family="Helvetica,sans-Serif" font-size="10.00">BigInt::is_zero</text>
</a>
</g>
</g>
<!-- Node11&#45;&gt;Node12 -->
<g id="edge12_Node000011_Node000012" class="edge">
<title>Node11&#45;&gt;Node12</title>
<g id="a_edge12_Node000011_Node000012"><a xlink:title=" ">
<path fill="none" stroke="#63b8ff" d="M393.27,-80.85C408.38,-78.74 426.61,-76.19 443.5,-73.83"/>
<polygon fill="#63b8ff" stroke="#63b8ff" points="444.38,-77.25 453.8,-72.4 443.41,-70.31 444.38,-77.25"/>
</a>
</g>
</g>
</g>
</svg>

<g id="navigator" transform="translate(0 0)" fill="#404254">
  <rect fill="#f2f5e9" fill-opacity="0.5" stroke="#606060" stroke-width=".5" x="0" y="0" width="60" height="60"/>
  <use id="zoomplus" xlink:href="#zoomPlus" x="17" y="9" onmousedown="handleZoom(evt,'in')"/>
  <use id="zoomminus" xlink:href="#zoomMin" x="42" y="9" onmousedown="handleZoom(evt,'out')"/>
  <use id="reset" xlink:href="#resetDef" x="30" y="36" onmousedown="handleReset()"/>
   <use id="arrowup" xlink:href="#arrowUp" x="0" y="0" onmousedown="handlePan(0,-1)"/>
  <use id="arrowright" xlink:href="#arrowRight" x="0" y="0" onmousedown="handlePan(1,0)"/>
  <use id="arrowdown" xlink:href="#arrowDown" x="0" y="0" onmousedown="handlePan(0,1)"/>
  <use id="arrowleft" xlink:href="#arrowLeft" x="0" y="0" onmousedown="handlePan(-1,0)"/>
</g>
<svg viewBox="0 0 15 15" width="100%" height="30px" preserveAspectRatio="xMaxYMin meet">
 <g id="arrow_out" transform="scale(0.3 0.3)">
  <a xlink:href="classRational_ab57ed10cd54d19f49547af71fb5330f7_cgraph_org.svg" target="_base">
   <rect id="button" ry="5" rx="5" y="6" x="6" height="38" width="38"
        fill="#f2f5e9" fill-opacity="0.5" stroke="#606060" stroke-width="1.0"/>
   <path id="arrow"
     d="M 11.500037,31.436501 C 11.940474,20.09759 22.043105,11.32322 32.158766,21.979434 L 37.068811,17.246167 C 37.068811,17.246167 37.088388,32 37.088388,32 L 22.160133,31.978069 C 22.160133,31.978069 26.997745,27.140456 26.997745,27.140456 C 18.528582,18.264221 13.291696,25.230495 11.500037,31.436501 z"
     style="fill:#404040;"/>
  </a>
 </g>
</svg>

<style type='text/css'>
<![CDATA[
[data-mouse-over-selected='false'] { opacity: 0.7; }
[data-mouse-over-selected='true']  { opacity: 1.0; }
]]>
</style>
<script type="application/ecmascript"><![CDATA[
document.addEventListener('DOMContentLoaded', (event) => {
  highlightEdges();
  highlightAdjacentNodes();
});
]]></script>
</svg>
