<?xml version="1.0" encoding="UTF-8" standalone="no"?>
<!DOCTYPE svg PUBLIC "-//W3C//DTD SVG 1.1//EN"
 "http://www.w3.org/Graphics/SVG/1.1/DTD/svg11.dtd">
<!-- Generated by graphviz version 2.43.0 (0)
 -->
<!-- Title: Rational::radicand Pages: 1 -->
<svg width="977pt" height="237pt"
 viewBox="0.00 0.00 977.00 236.53" xmlns="http://www.w3.org/2000/svg" xmlns:xlink="http://www.w3.org/1999/xlink">
<g id="graph0" class="graph" transform="scale(1 1) rotate(0) translate(4 232.53)">
<title>Rational::radicand</title>
<!-- Node1 -->
<g id="Node000001" class="node">
<title>Node1</title>
<g id="a_Node000001"><a xlink:title="计算 n 次方根（返回新值）">
<polygon fill="#999999" stroke="#666666" points="105,-168 0,-168 0,-149 105,-149 105,-168"/>
<text text-anchor="middle" x="52.5" y="-156" font-family="Helvetica,sans-Serif" font-size="10.00">Rational::radicand</text>
</a>
</g>
</g>
<!-- Node2 -->
<g id="Node000002" class="node">
<title>Node2</title>
<g id="a_Node000002"><a xlink:href="../../d8/da7/classRational.html#ade4ddf0f6fad43ed54e014ea023ad9b7" target="_top" xlink:title="牛顿迭代法计算 n 次方根（就地修改）">
<polygon fill="white" stroke="#666666" points="269,-168 141,-168 141,-149 269,-149 269,-168"/>
<text text-anchor="middle" x="205" y="-156" font-family="Helvetica,sans-Serif" font-size="10.00">Rational::radicand_self</text>
</a>
</g>
</g>
<!-- Node1&#45;&gt;Node2 -->
<g id="edge1_Node000001_Node000002" class="edge">
<title>Node1&#45;&gt;Node2</title>
<g id="a_edge1_Node000001_Node000002"><a xlink:title=" ">
<path fill="none" stroke="#63b8ff" d="M105.29,-158.5C113.54,-158.5 122.21,-158.5 130.84,-158.5"/>
<polygon fill="#63b8ff" stroke="#63b8ff" points="130.93,-162 140.93,-158.5 130.93,-155 130.93,-162"/>
</a>
</g>
</g>
<!-- Node3 -->
<g id="Node000003" class="node">
<title>Node3</title>
<g id="a_Node000003"><a xlink:href="../../d8/da7/classRational.html#a3bbd6ff67c590da76ddfcbd48cd3de0a" target="_top" xlink:title="默认构造，值为 0">
<polygon fill="white" stroke="#666666" points="561,-206 457,-206 457,-187 561,-187 561,-206"/>
<text text-anchor="middle" x="509" y="-194" font-family="Helvetica,sans-Serif" font-size="10.00">Rational::Rational</text>
</a>
</g>
</g>
<!-- Node2&#45;&gt;Node3 -->
<g id="edge2_Node000002_Node000003" class="edge">
<title>Node2&#45;&gt;Node3</title>
<g id="a_edge2_Node000002_Node000003"><a xlink:title=" ">
<path fill="none" stroke="#63b8ff" d="M253.96,-168.03C270.13,-171.03 288.3,-174.16 305,-176.5 352.43,-183.14 406.39,-188.34 446.76,-191.78"/>
<polygon fill="#63b8ff" stroke="#63b8ff" points="446.72,-195.29 456.97,-192.63 447.3,-188.31 446.72,-195.29"/>
</a>
</g>
</g>
<!-- Node4 -->
<g id="Node000004" class="node">
<title>Node4</title>
<g id="a_Node000004"><a xlink:href="../../d8/da7/classRational.html#ab57ed10cd54d19f49547af71fb5330f7" target="_top" xlink:title="截断到指定精度（就地修改）">
<polygon fill="white" stroke="#666666" points="394,-92 309,-92 309,-73 394,-73 394,-92"/>
<text text-anchor="middle" x="351.5" y="-80" font-family="Helvetica,sans-Serif" font-size="10.00">Rational::floor</text>
</a>
</g>
</g>
<!-- Node2&#45;&gt;Node4 -->
<g id="edge3_Node000002_Node000004" class="edge">
<title>Node2&#45;&gt;Node4</title>
<g id="a_edge3_Node000002_Node000004"><a xlink:title=" ">
<path fill="none" stroke="#63b8ff" d="M224.3,-148.87C249.27,-135.74 294.22,-112.1 323.19,-96.86"/>
<polygon fill="#63b8ff" stroke="#63b8ff" points="325.13,-99.8 332.35,-92.05 321.87,-93.6 325.13,-99.8"/>
</a>
</g>
</g>
<!-- Node5 -->
<g id="Node000005" class="node">
<title>Node5</title>
<g id="a_Node000005"><a xlink:href="../../d8/da7/classRational.html#aa3a6b3ad3024b4dcdd336967f2094609" target="_top" xlink:title=" ">
<polygon fill="white" stroke="#666666" points="584,-93 434,-93 434,-74 584,-74 584,-93"/>
<text text-anchor="middle" x="509" y="-81" font-family="Helvetica,sans-Serif" font-size="10.00">Rational::floor_without_sim</text>
</a>
</g>
</g>
<!-- Node2&#45;&gt;Node5 -->
<g id="edge19_Node000002_Node000005" class="edge">
<title>Node2&#45;&gt;Node5</title>
<g id="a_edge19_Node000002_Node000005"><a xlink:title=" ">
<path fill="none" stroke="#63b8ff" d="M243.9,-148.95C289.13,-137.56 367.05,-118.01 434,-101.5 441.94,-99.54 450.36,-97.48 458.57,-95.48"/>
<polygon fill="#63b8ff" stroke="#63b8ff" points="459.54,-98.84 468.43,-93.08 457.89,-92.04 459.54,-98.84"/>
</a>
</g>
</g>
<!-- Node6 -->
<g id="Node000006" class="node">
<title>Node6</title>
<g id="a_Node000006"><a xlink:href="../../da/d5b/classBigInt.html#ac5d50e001791835b70c84cdac9b74e88" target="_top" xlink:title="整数幂运算">
<polygon fill="white" stroke="#666666" points="712.5,-168 631.5,-168 631.5,-149 712.5,-149 712.5,-168"/>
<text text-anchor="middle" x="672" y="-156" font-family="Helvetica,sans-Serif" font-size="10.00">BigInt::power</text>
</a>
</g>
</g>
<!-- Node2&#45;&gt;Node6 -->
<g id="edge24_Node000002_Node000006" class="edge">
<title>Node2&#45;&gt;Node6</title>
<g id="a_edge24_Node000002_Node000006"><a xlink:title=" ">
<path fill="none" stroke="#63b8ff" d="M227.35,-168.1C285.66,-192.97 452.04,-254.88 584,-215.5 610.52,-207.59 636.47,-188.71 653.03,-174.84"/>
<polygon fill="#63b8ff" stroke="#63b8ff" points="655.51,-177.32 660.78,-168.13 650.93,-172.03 655.51,-177.32"/>
</a>
</g>
</g>
<!-- Node17 -->
<g id="Node000017" class="node">
<title>Node17</title>
<g id="a_Node000017"><a xlink:href="../../d8/da7/classRational.html#ad1cf12521a8eacae076cbab73fa45e84" target="_top" xlink:title="有理数整数幂">
<polygon fill="white" stroke="#666666" points="398,-168 305,-168 305,-149 398,-149 398,-168"/>
<text text-anchor="middle" x="351.5" y="-156" font-family="Helvetica,sans-Serif" font-size="10.00">Rational::power</text>
</a>
</g>
</g>
<!-- Node2&#45;&gt;Node17 -->
<g id="edge20_Node000002_Node000017" class="edge">
<title>Node2&#45;&gt;Node17</title>
<g id="a_edge20_Node000002_Node000017"><a xlink:title=" ">
<path fill="none" stroke="#63b8ff" d="M269.38,-158.5C277.9,-158.5 286.58,-158.5 294.95,-158.5"/>
<polygon fill="#63b8ff" stroke="#63b8ff" points="294.97,-162 304.97,-158.5 294.97,-155 294.97,-162"/>
</a>
</g>
</g>
<!-- Node4&#45;&gt;Node5 -->
<g id="edge4_Node000004_Node000005" class="edge">
<title>Node4&#45;&gt;Node5</title>
<g id="a_edge4_Node000004_Node000005"><a xlink:title=" ">
<path fill="none" stroke="#63b8ff" d="M394.17,-82.77C403.35,-82.83 413.39,-82.89 423.58,-82.96"/>
<polygon fill="#63b8ff" stroke="#63b8ff" points="423.77,-86.46 433.79,-83.02 423.82,-79.46 423.77,-86.46"/>
</a>
</g>
</g>
<!-- Node12 -->
<g id="Node000012" class="node">
<title>Node12</title>
<g id="a_Node000012"><a xlink:href="../../d8/da7/classRational.html#a3d410504846bf492103a5c2a8b53d7c6" target="_top" xlink:title=" ">
<polygon fill="white" stroke="#666666" points="560,-56 458,-56 458,-37 560,-37 560,-56"/>
<text text-anchor="middle" x="509" y="-44" font-family="Helvetica,sans-Serif" font-size="10.00">Rational::simplify</text>
</a>
</g>
</g>
<!-- Node4&#45;&gt;Node12 -->
<g id="edge11_Node000004_Node000012" class="edge">
<title>Node4&#45;&gt;Node12</title>
<g id="a_edge11_Node000004_Node000012"><a xlink:title=" ">
<path fill="none" stroke="#63b8ff" d="M393.76,-72.95C413.17,-68.45 436.5,-63.05 457.01,-58.31"/>
<polygon fill="#63b8ff" stroke="#63b8ff" points="457.86,-61.7 466.81,-56.03 456.28,-54.88 457.86,-61.7"/>
</a>
</g>
</g>
<!-- Node5&#45;&gt;Node6 -->
<g id="edge5_Node000005_Node000006" class="edge">
<title>Node5&#45;&gt;Node6</title>
<g id="a_edge5_Node000005_Node000006"><a xlink:title=" ">
<path fill="none" stroke="#63b8ff" d="M559.34,-93C567.73,-95.32 576.24,-98.13 584,-101.5 608.83,-112.27 634.4,-129.97 651.34,-142.79"/>
<polygon fill="#63b8ff" stroke="#63b8ff" points="649.31,-145.64 659.36,-148.99 653.59,-140.1 649.31,-145.64"/>
</a>
</g>
</g>
<!-- Node7 -->
<g id="Node000007" class="node">
<title>Node7</title>
<g id="a_Node000007"><a xlink:href="../../da/d5b/classBigInt.html#af677021c0987fc2a48da06837ed29c58" target="_top" xlink:title="默认构造，值为 0">
<polygon fill="white" stroke="#666666" points="850,-205 770,-205 770,-186 850,-186 850,-205"/>
<text text-anchor="middle" x="810" y="-193" font-family="Helvetica,sans-Serif" font-size="10.00">BigInt::BigInt</text>
</a>
</g>
</g>
<!-- Node6&#45;&gt;Node7 -->
<g id="edge6_Node000006_Node000007" class="edge">
<title>Node6&#45;&gt;Node7</title>
<g id="a_edge6_Node000006_Node000007"><a xlink:title=" ">
<path fill="none" stroke="#63b8ff" d="M708.02,-168.03C725.02,-172.65 745.65,-178.27 763.82,-183.21"/>
<polygon fill="#63b8ff" stroke="#63b8ff" points="763.05,-186.63 773.62,-185.88 764.89,-179.87 763.05,-186.63"/>
</a>
</g>
</g>
<!-- Node8 -->
<g id="Node000008" class="node">
<title>Node8</title>
<g id="a_Node000008"><a xlink:href="../../da/d5b/classBigInt.html#a3b10bb8ac846314c6e4ad6167e5ec5bf" target="_top" xlink:title=" ">
<polygon fill="white" stroke="#666666" points="860,-131 760,-131 760,-112 860,-112 860,-131"/>
<text text-anchor="middle" x="810" y="-119" font-family="Helvetica,sans-Serif" font-size="10.00">BigInt::normalize</text>
</a>
</g>
</g>
<!-- Node6&#45;&gt;Node8 -->
<g id="edge7_Node000006_Node000008" class="edge">
<title>Node6&#45;&gt;Node8</title>
<g id="a_edge7_Node000006_Node000008"><a xlink:title=" ">
<path fill="none" stroke="#63b8ff" d="M708.02,-148.97C725.02,-144.35 745.65,-138.73 763.82,-133.79"/>
<polygon fill="#63b8ff" stroke="#63b8ff" points="764.89,-137.13 773.62,-131.12 763.05,-130.37 764.89,-137.13"/>
</a>
</g>
</g>
<!-- Node9 -->
<g id="Node000009" class="node">
<title>Node9</title>
<g id="a_Node000009"><a xlink:href="../../da/d5b/classBigInt.html#ad0b220e3ad54190c7cc069355f8d134d" target="_top" xlink:title=" ">
<polygon fill="white" stroke="#666666" points="859.5,-168 760.5,-168 760.5,-149 859.5,-149 859.5,-168"/>
<text text-anchor="middle" x="810" y="-156" font-family="Helvetica,sans-Serif" font-size="10.00">BigInt::realloc_to</text>
</a>
</g>
</g>
<!-- Node6&#45;&gt;Node9 -->
<g id="edge8_Node000006_Node000009" class="edge">
<title>Node6&#45;&gt;Node9</title>
<g id="a_edge8_Node000006_Node000009"><a xlink:title=" ">
<path fill="none" stroke="#63b8ff" d="M712.7,-158.5C724.46,-158.5 737.58,-158.5 750.27,-158.5"/>
<polygon fill="#63b8ff" stroke="#63b8ff" points="750.32,-162 760.32,-158.5 750.32,-155 750.32,-162"/>
</a>
</g>
</g>
<!-- Node10 -->
<g id="Node000010" class="node">
<title>Node10</title>
<g id="a_Node000010"><a xlink:href="../../d8/d09/bigint_8hpp.html#a9026e394fc1db1b74fe5802cac9d3793" target="_top" xlink:title="为 BigInt 分配内存">
<polygon fill="white" stroke="#666666" points="969,-186 896,-186 896,-167 969,-167 969,-186"/>
<text text-anchor="middle" x="932.5" y="-174" font-family="Helvetica,sans-Serif" font-size="10.00">bigint_alloc</text>
</a>
</g>
</g>
<!-- Node9&#45;&gt;Node10 -->
<g id="edge9_Node000009_Node000010" class="edge">
<title>Node9&#45;&gt;Node10</title>
<g id="a_edge9_Node000009_Node000010"><a xlink:title=" ">
<path fill="none" stroke="#63b8ff" d="M859.66,-165.77C868.4,-167.07 877.47,-168.43 886.1,-169.72"/>
<polygon fill="#63b8ff" stroke="#63b8ff" points="885.59,-173.18 895.99,-171.2 886.62,-166.26 885.59,-173.18"/>
</a>
</g>
</g>
<!-- Node11 -->
<g id="Node000011" class="node">
<title>Node11</title>
<g id="a_Node000011"><a xlink:href="../../d8/d09/bigint_8hpp.html#a6fd664dfe6c832ce148d818c5663fa93" target="_top" xlink:title="释放 BigInt 内部分配的内存">
<polygon fill="white" stroke="#666666" points="967,-149 898,-149 898,-130 967,-130 967,-149"/>
<text text-anchor="middle" x="932.5" y="-137" font-family="Helvetica,sans-Serif" font-size="10.00">bigint_free</text>
</a>
</g>
</g>
<!-- Node9&#45;&gt;Node11 -->
<g id="edge10_Node000009_Node000011" class="edge">
<title>Node9&#45;&gt;Node11</title>
<g id="a_edge10_Node000009_Node000011"><a xlink:title=" ">
<path fill="none" stroke="#63b8ff" d="M859.66,-150.83C868.97,-149.36 878.65,-147.83 887.79,-146.39"/>
<polygon fill="#63b8ff" stroke="#63b8ff" points="888.48,-149.83 897.82,-144.81 887.39,-142.91 888.48,-149.83"/>
</a>
</g>
</g>
<!-- Node13 -->
<g id="Node000013" class="node">
<title>Node13</title>
<g id="a_Node000013"><a xlink:href="../../da/d5b/classBigInt.html#a4bff1a207fd14cd96badb54d0a470c1a" target="_top" xlink:title="取绝对值">
<polygon fill="white" stroke="#666666" points="844.5,-57 775.5,-57 775.5,-38 844.5,-38 844.5,-57"/>
<text text-anchor="middle" x="810" y="-45" font-family="Helvetica,sans-Serif" font-size="10.00">BigInt::Abs</text>
</a>
</g>
</g>
<!-- Node12&#45;&gt;Node13 -->
<g id="edge12_Node000012_Node000013" class="edge">
<title>Node12&#45;&gt;Node13</title>
<g id="a_edge12_Node000012_Node000013"><a xlink:title=" ">
<path fill="none" stroke="#63b8ff" d="M560.05,-46.67C617.36,-46.86 710.38,-47.17 765.02,-47.35"/>
<polygon fill="#63b8ff" stroke="#63b8ff" points="765.08,-50.85 775.09,-47.39 765.1,-43.85 765.08,-50.85"/>
</a>
</g>
</g>
<!-- Node14 -->
<g id="Node000014" class="node">
<title>Node14</title>
<g id="a_Node000014"><a xlink:href="../../da/d5b/classBigInt.html#a4804d5bec19a3d92f9c34713c83ef7e1" target="_top" xlink:title="计算最大公约数">
<polygon fill="white" stroke="#666666" points="706,-95 638,-95 638,-76 706,-76 706,-95"/>
<text text-anchor="middle" x="672" y="-83" font-family="Helvetica,sans-Serif" font-size="10.00">BigInt::gcd</text>
</a>
</g>
</g>
<!-- Node12&#45;&gt;Node14 -->
<g id="edge13_Node000012_Node000014" class="edge">
<title>Node12&#45;&gt;Node14</title>
<g id="a_edge13_Node000012_Node000014"><a xlink:title=" ">
<path fill="none" stroke="#63b8ff" d="M549.39,-56.04C573.28,-61.83 603.77,-69.22 628.25,-75.14"/>
<polygon fill="#63b8ff" stroke="#63b8ff" points="627.45,-78.55 637.99,-77.5 629.1,-71.75 627.45,-78.55"/>
</a>
</g>
</g>
<!-- Node16 -->
<g id="Node000016" class="node">
<title>Node16</title>
<g id="a_Node000016"><a xlink:href="../../da/d5b/classBigInt.html#ae5d874ccb625319e093bec91b29e5a24" target="_top" xlink:title="判断是否为负数">
<polygon fill="white" stroke="#666666" points="724,-19 620,-19 620,0 724,0 724,-19"/>
<text text-anchor="middle" x="672" y="-7" font-family="Helvetica,sans-Serif" font-size="10.00">BigInt::IsNegative</text>
</a>
</g>
</g>
<!-- Node12&#45;&gt;Node16 -->
<g id="edge18_Node000012_Node000016" class="edge">
<title>Node12&#45;&gt;Node16</title>
<g id="a_edge18_Node000012_Node000016"><a xlink:title=" ">
<path fill="none" stroke="#63b8ff" d="M551.46,-36.97C572.23,-32.2 597.56,-26.38 619.56,-21.32"/>
<polygon fill="#63b8ff" stroke="#63b8ff" points="620.44,-24.71 629.4,-19.06 618.87,-17.89 620.44,-24.71"/>
</a>
</g>
</g>
<!-- Node14&#45;&gt;Node8 -->
<g id="edge16_Node000014_Node000008" class="edge">
<title>Node14&#45;&gt;Node8</title>
<g id="a_edge16_Node000014_Node000008"><a xlink:title=" ">
<path fill="none" stroke="#63b8ff" d="M706.27,-94.31C723.33,-98.82 744.39,-104.4 762.98,-109.32"/>
<polygon fill="#63b8ff" stroke="#63b8ff" points="762.17,-112.72 772.73,-111.9 763.96,-105.96 762.17,-112.72"/>
</a>
</g>
</g>
<!-- Node14&#45;&gt;Node9 -->
<g id="edge17_Node000014_Node000009" class="edge">
<title>Node14&#45;&gt;Node9</title>
<g id="a_edge17_Node000014_Node000009"><a xlink:title=" ">
<path fill="none" stroke="#63b8ff" d="M686.7,-95.12C703.47,-106.62 732.96,-126.01 760,-139.5 763.86,-141.42 767.96,-143.29 772.09,-145.04"/>
<polygon fill="#63b8ff" stroke="#63b8ff" points="771.07,-148.41 781.65,-148.93 773.71,-141.92 771.07,-148.41"/>
</a>
</g>
</g>
<!-- Node14&#45;&gt;Node13 -->
<g id="edge14_Node000014_Node000013" class="edge">
<title>Node14&#45;&gt;Node13</title>
<g id="a_edge14_Node000014_Node000013"><a xlink:title=" ">
<path fill="none" stroke="#63b8ff" d="M706.27,-76.2C724.08,-71.23 746.24,-65.04 765.41,-59.68"/>
<polygon fill="#63b8ff" stroke="#63b8ff" points="766.44,-63.03 775.13,-56.96 764.56,-56.28 766.44,-63.03"/>
</a>
</g>
</g>
<!-- Node15 -->
<g id="Node000015" class="node">
<title>Node15</title>
<g id="a_Node000015"><a xlink:href="../../da/d5b/classBigInt.html#a6ae37e804e0989cb245f32f90a2d5f64" target="_top" xlink:title="判断是否为零">
<polygon fill="white" stroke="#666666" points="853,-94 767,-94 767,-75 853,-75 853,-94"/>
<text text-anchor="middle" x="810" y="-82" font-family="Helvetica,sans-Serif" font-size="10.00">BigInt::is_zero</text>
</a>
</g>
</g>
<!-- Node14&#45;&gt;Node15 -->
<g id="edge15_Node000014_Node000015" class="edge">
<title>Node14&#45;&gt;Node15</title>
<g id="a_edge15_Node000014_Node000015"><a xlink:title=" ">
<path fill="none" stroke="#63b8ff" d="M706.27,-85.26C721.38,-85.14 739.61,-85.01 756.5,-84.89"/>
<polygon fill="#63b8ff" stroke="#63b8ff" points="756.83,-88.38 766.8,-84.81 756.78,-81.38 756.83,-88.38"/>
</a>
</g>
</g>
<!-- Node17&#45;&gt;Node3 -->
<g id="edge21_Node000017_Node000003" class="edge">
<title>Node17&#45;&gt;Node3</title>
<g id="a_edge21_Node000017_Node000003"><a xlink:title=" ">
<path fill="none" stroke="#63b8ff" d="M391.74,-168.09C412.26,-173.1 437.57,-179.29 459.33,-184.61"/>
<polygon fill="#63b8ff" stroke="#63b8ff" points="458.5,-188.01 469.04,-186.98 460.16,-181.21 458.5,-188.01"/>
</a>
</g>
</g>
<!-- Node17&#45;&gt;Node6 -->
<g id="edge23_Node000017_Node000006" class="edge">
<title>Node17&#45;&gt;Node6</title>
<g id="a_edge23_Node000017_Node000006"><a xlink:title=" ">
<path fill="none" stroke="#63b8ff" d="M398.13,-158.5C457.32,-158.5 560.2,-158.5 621.31,-158.5"/>
<polygon fill="#63b8ff" stroke="#63b8ff" points="621.48,-162 631.48,-158.5 621.48,-155 621.48,-162"/>
</a>
</g>
</g>
<!-- Node18 -->
<g id="Node000018" class="node">
<title>Node18</title>
<g id="a_Node000018"><a xlink:href="../../d8/da7/classRational.html#a782a77721d3d519323bde766752cabdf" target="_top" xlink:title="判断是否为零">
<polygon fill="white" stroke="#666666" points="558,-130 460,-130 460,-111 558,-111 558,-130"/>
<text text-anchor="middle" x="509" y="-118" font-family="Helvetica,sans-Serif" font-size="10.00">Rational::is_zero</text>
</a>
</g>
</g>
<!-- Node17&#45;&gt;Node18 -->
<g id="edge22_Node000017_Node000018" class="edge">
<title>Node17&#45;&gt;Node18</title>
<g id="a_edge22_Node000017_Node000018"><a xlink:title=" ">
<path fill="none" stroke="#63b8ff" d="M391.74,-148.91C412.26,-143.9 437.57,-137.71 459.33,-132.39"/>
<polygon fill="#63b8ff" stroke="#63b8ff" points="460.16,-135.79 469.04,-130.02 458.5,-128.99 460.16,-135.79"/>
</a>
</g>
</g>
</g>
</svg>
