<?xml version="1.0" encoding="UTF-8" standalone="no"?>
<!DOCTYPE svg PUBLIC "-//W3C//DTD SVG 1.1//EN"
 "http://www.w3.org/Graphics/SVG/1.1/DTD/svg11.dtd">
<!-- Generated by graphviz version 2.43.0 (0)
 -->
<!-- Title: Rational::floor_without_sim Pages: 1 -->
<!--zoomable 101 -->

<svg id="main" version="1.1" xmlns="http://www.w3.org/2000/svg" xmlns:xlink="http://www.w3.org/1999/xlink" xml:space="preserve" onload="init(evt)">
<style type="text/css"><![CDATA[
.node, .edge {opacity: 0.7;}
.node.selected, .edge.selected {opacity: 1;}
.edge:hover path { stroke: red; }
.edge:hover polygon { stroke: red; fill: red; }
]]></style>

<defs>
  <circle id="rim" cx="0" cy="0" r="7"/>
  <circle id="rim2" cx="0" cy="0" r="3.5"/>
  <g id="zoomPlus">
    <use xlink:href="#rim" fill="#404040"><set attributeName="fill" to="#808080" begin="zoomplus.mouseover" end="zoomplus.mouseout"/></use>
    <path d="M-4,0h8M0,-4v8" fill="none" stroke="white" stroke-width="1.5" pointer-events="none"/>
  </g>
  <g id="zoomMin">
    <use xlink:href="#rim" fill="#404040"><set attributeName="fill" to="#808080" begin="zoomminus.mouseover" end="zoomminus.mouseout"/></use>
    <path d="M-4,0h8" fill="none" stroke="white" stroke-width="1.5" pointer-events="none"/>
  </g>
  <g id="arrowUp" transform="translate(30 24)">
    <use xlink:href="#rim"/>
    <path pointer-events="none" fill="none" stroke="white" stroke-width="1.5" d="M0,-3.0v7 M-2.5,-0.5L0,-3.0L2.5,-0.5"/>
  </g>
  <g id="arrowRight" transform="rotate(90) translate(36 -43)">
    <use xlink:href="#rim"/>
    <path pointer-events="none" fill="none" stroke="white" stroke-width="1.5" d="M0,-3.0v7 M-2.5,-0.5L0,-3.0L2.5,-0.5"/>
  </g>
  <g id="arrowDown" transform="rotate(180) translate(-30 -48)">
    <use xlink:href="#rim"/>
    <path pointer-events="none" fill="none" stroke="white" stroke-width="1.5" d="M0,-3.0v7 M-2.5,-0.5L0,-3.0L2.5,-0.5"/>
  </g>
  <g id="arrowLeft" transform="rotate(270) translate(-36 17)">
    <use xlink:href="#rim"/>
    <path pointer-events="none" fill="none" stroke="white" stroke-width="1.5" d="M0,-3.0v7 M-2.5,-0.5L0,-3.0L2.5,-0.5"/>
  </g>
  <g id="resetDef">
    <use xlink:href="#rim2" fill="#404040"><set attributeName="fill" to="#808080" begin="reset.mouseover" end="reset.mouseout"/></use>
  </g>
</defs>
<script type="application/ecmascript">
var viewWidth = 724;
var viewHeight = 101;
var sectionId = 'dynsection-11';
</script>
<script type="application/ecmascript" xlink:href="../../svg.min.js"/>
<svg id="graph" class="graph">
<g id="viewport">
<title>Rational::floor_without_sim</title>
<!-- Node1 -->
<g id="Node000001" class="node">
<title>Node1</title>
<g id="a_Node000001"><a xlink:title=" ">
<polygon fill="#999999" stroke="#666666" points="716,-38 566,-38 566,-19 716,-19 716,-38"/>
<text text-anchor="middle" x="641" y="-26" font-family="Helvetica,sans-Serif" font-size="10.00">Rational::floor_without_sim</text>
</a>
</g>
</g>
<!-- Node2 -->
<g id="Node000002" class="node">
<title>Node2</title>
<g id="a_Node000002"><a xlink:href="../../d8/da7/classRational.html#ab57ed10cd54d19f49547af71fb5330f7" target="_top" xlink:title="截断到指定精度（就地修改）">
<polygon fill="white" stroke="#666666" points="530,-38 445,-38 445,-19 530,-19 530,-38"/>
<text text-anchor="middle" x="487.5" y="-26" font-family="Helvetica,sans-Serif" font-size="10.00">Rational::floor</text>
</a>
</g>
</g>
<!-- Node1&#45;&gt;Node2 -->
<g id="edge1_Node000001_Node000002" class="edge">
<title>Node1&#45;&gt;Node2</title>
<g id="a_edge1_Node000001_Node000002"><a xlink:title=" ">
<path fill="none" stroke="#63b8ff" d="M555.37,-28.5C546.71,-28.5 538.21,-28.5 530.32,-28.5"/>
<polygon fill="#63b8ff" stroke="#63b8ff" points="555.58,-32 565.58,-28.5 555.58,-25 555.58,-32"/>
</a>
</g>
</g>
<!-- Node3 -->
<g id="Node000003" class="node">
<title>Node3</title>
<g id="a_Node000003"><a xlink:href="../../d8/da7/classRational.html#ade4ddf0f6fad43ed54e014ea023ad9b7" target="_top" xlink:title="牛顿迭代法计算 n 次方根（就地修改）">
<polygon fill="white" stroke="#666666" points="409,-56 281,-56 281,-37 409,-37 409,-56"/>
<text text-anchor="middle" x="345" y="-44" font-family="Helvetica,sans-Serif" font-size="10.00">Rational::radicand_self</text>
</a>
</g>
</g>
<!-- Node1&#45;&gt;Node3 -->
<g id="edge8_Node000001_Node000003" class="edge">
<title>Node1&#45;&gt;Node3</title>
<g id="a_edge8_Node000001_Node000003"><a xlink:title=" ">
<path fill="none" stroke="#63b8ff" d="M585.2,-39.86C567.65,-42.99 548.08,-45.95 530,-47.5 492.36,-50.73 482.78,-47.69 445,-47.5 433.4,-47.44 421.03,-47.34 409.11,-47.23"/>
<polygon fill="#63b8ff" stroke="#63b8ff" points="586.07,-43.26 595.27,-38.01 584.8,-36.38 586.07,-43.26"/>
</a>
</g>
</g>
<!-- Node7 -->
<g id="Node000007" class="node">
<title>Node7</title>
<g id="a_Node000007"><a xlink:href="../../d8/da7/classRational.html#a13b535a5528142a1a3b92540396e718c" target="_top" xlink:title="牛顿迭代法计算平方根（就地修改）">
<polygon fill="white" stroke="#666666" points="397.5,-19 292.5,-19 292.5,0 397.5,0 397.5,-19"/>
<text text-anchor="middle" x="345" y="-7" font-family="Helvetica,sans-Serif" font-size="10.00">Rational::sqrt_self</text>
</a>
</g>
</g>
<!-- Node1&#45;&gt;Node7 -->
<g id="edge9_Node000001_Node000007" class="edge">
<title>Node1&#45;&gt;Node7</title>
<g id="a_edge9_Node000001_Node000007"><a xlink:title=" ">
<path fill="none" stroke="#63b8ff" d="M585.2,-17.14C567.65,-14.01 548.08,-11.05 530,-9.5 485.44,-5.68 434.59,-6.04 397.65,-7.15"/>
<polygon fill="#63b8ff" stroke="#63b8ff" points="584.8,-20.62 595.27,-18.99 586.07,-13.74 584.8,-20.62"/>
</a>
</g>
</g>
<!-- Node2&#45;&gt;Node3 -->
<g id="edge2_Node000002_Node000003" class="edge">
<title>Node2&#45;&gt;Node3</title>
<g id="a_edge2_Node000002_Node000003"><a xlink:title=" ">
<path fill="none" stroke="#63b8ff" d="M434.79,-35.12C426.47,-36.19 417.77,-37.31 409.21,-38.4"/>
<polygon fill="#63b8ff" stroke="#63b8ff" points="435.25,-38.59 444.73,-33.85 434.36,-31.65 435.25,-38.59"/>
</a>
</g>
</g>
<!-- Node2&#45;&gt;Node7 -->
<g id="edge6_Node000002_Node000007" class="edge">
<title>Node2&#45;&gt;Node7</title>
<g id="a_edge6_Node000002_Node000007"><a xlink:title=" ">
<path fill="none" stroke="#63b8ff" d="M434.75,-21.5C422.62,-19.86 409.69,-18.11 397.57,-16.47"/>
<polygon fill="#63b8ff" stroke="#63b8ff" points="434.35,-24.98 444.73,-22.85 435.29,-18.04 434.35,-24.98"/>
</a>
</g>
</g>
<!-- Node4 -->
<g id="Node000004" class="node">
<title>Node4</title>
<g id="a_Node000004"><a xlink:href="../../d8/da7/classRational.html#a4396045b92e4eb4fa6758e3ec85aa6e4" target="_top" xlink:title="有理数的有理数幂（就地修改）">
<polygon fill="white" stroke="#666666" points="245,-93 129,-93 129,-74 245,-74 245,-93"/>
<text text-anchor="middle" x="187" y="-81" font-family="Helvetica,sans-Serif" font-size="10.00">Rational::power_self</text>
</a>
</g>
</g>
<!-- Node3&#45;&gt;Node4 -->
<g id="edge3_Node000003_Node000004" class="edge">
<title>Node3&#45;&gt;Node4</title>
<g id="a_edge3_Node000003_Node000004"><a xlink:title=" ">
<path fill="none" stroke="#63b8ff" d="M294.01,-58.36C272.78,-63.39 248.36,-69.18 228.31,-73.94"/>
<polygon fill="#63b8ff" stroke="#63b8ff" points="294.9,-61.74 303.83,-56.03 293.29,-54.93 294.9,-61.74"/>
</a>
</g>
</g>
<!-- Node6 -->
<g id="Node000006" class="node">
<title>Node6</title>
<g id="a_Node000006"><a xlink:href="../../d8/da7/classRational.html#a5a1002c57217ddf7468ad67f626ccf78" target="_top" xlink:title="计算 n 次方根（返回新值）">
<polygon fill="white" stroke="#666666" points="239.5,-56 134.5,-56 134.5,-37 239.5,-37 239.5,-56"/>
<text text-anchor="middle" x="187" y="-44" font-family="Helvetica,sans-Serif" font-size="10.00">Rational::radicand</text>
</a>
</g>
</g>
<!-- Node3&#45;&gt;Node6 -->
<g id="edge5_Node000003_Node000006" class="edge">
<title>Node3&#45;&gt;Node6</title>
<g id="a_edge5_Node000003_Node000006"><a xlink:title=" ">
<path fill="none" stroke="#63b8ff" d="M270.96,-46.5C260.42,-46.5 249.76,-46.5 239.75,-46.5"/>
<polygon fill="#63b8ff" stroke="#63b8ff" points="271,-50 281,-46.5 271,-43 271,-50"/>
</a>
</g>
</g>
<!-- Node5 -->
<g id="Node000005" class="node">
<title>Node5</title>
<g id="a_Node000005"><a xlink:href="../../d8/da7/classRational.html#a8ccc3f4c096eefab37df6868464bb8f8" target="_top" xlink:title="有理数的有理数幂（返回新值）">
<polygon fill="white" stroke="#666666" points="93,-93 0,-93 0,-74 93,-74 93,-93"/>
<text text-anchor="middle" x="46.5" y="-81" font-family="Helvetica,sans-Serif" font-size="10.00">Rational::power</text>
</a>
</g>
</g>
<!-- Node4&#45;&gt;Node5 -->
<g id="edge4_Node000004_Node000005" class="edge">
<title>Node4&#45;&gt;Node5</title>
<g id="a_edge4_Node000004_Node000005"><a xlink:title=" ">
<path fill="none" stroke="#63b8ff" d="M118.72,-83.5C110.04,-83.5 101.31,-83.5 93.09,-83.5"/>
<polygon fill="#63b8ff" stroke="#63b8ff" points="118.87,-87 128.87,-83.5 118.87,-80 118.87,-87"/>
</a>
</g>
</g>
<!-- Node8 -->
<g id="Node000008" class="node">
<title>Node8</title>
<g id="a_Node000008"><a xlink:href="../../d8/da7/classRational.html#a41fe2fd5539fce3c46a0e0d31f76c5b4" target="_top" xlink:title="计算平方根（返回新值）">
<polygon fill="white" stroke="#666666" points="228,-19 146,-19 146,0 228,0 228,-19"/>
<text text-anchor="middle" x="187" y="-7" font-family="Helvetica,sans-Serif" font-size="10.00">Rational::sqrt</text>
</a>
</g>
</g>
<!-- Node7&#45;&gt;Node8 -->
<g id="edge7_Node000007_Node000008" class="edge">
<title>Node7&#45;&gt;Node8</title>
<g id="a_edge7_Node000007_Node000008"><a xlink:title=" ">
<path fill="none" stroke="#63b8ff" d="M282.48,-9.5C264.2,-9.5 244.64,-9.5 228.09,-9.5"/>
<polygon fill="#63b8ff" stroke="#63b8ff" points="282.49,-13 292.49,-9.5 282.49,-6 282.49,-13"/>
</a>
</g>
</g>
</g>
</svg>

<g id="navigator" transform="translate(0 0)" fill="#404254">
  <rect fill="#f2f5e9" fill-opacity="0.5" stroke="#606060" stroke-width=".5" x="0" y="0" width="60" height="60"/>
  <use id="zoomplus" xlink:href="#zoomPlus" x="17" y="9" onmousedown="handleZoom(evt,'in')"/>
  <use id="zoomminus" xlink:href="#zoomMin" x="42" y="9" onmousedown="handleZoom(evt,'out')"/>
  <use id="reset" xlink:href="#resetDef" x="30" y="36" onmousedown="handleReset()"/>
   <use id="arrowup" xlink:href="#arrowUp" x="0" y="0" onmousedown="handlePan(0,-1)"/>
  <use id="arrowright" xlink:href="#arrowRight" x="0" y="0" onmousedown="handlePan(1,0)"/>
  <use id="arrowdown" xlink:href="#arrowDown" x="0" y="0" onmousedown="handlePan(0,1)"/>
  <use id="arrowleft" xlink:href="#arrowLeft" x="0" y="0" onmousedown="handlePan(-1,0)"/>
</g>
<svg viewBox="0 0 15 15" width="100%" height="30px" preserveAspectRatio="xMaxYMin meet">
 <g id="arrow_out" transform="scale(0.3 0.3)">
  <a xlink:href="classRational_aa3a6b3ad3024b4dcdd336967f2094609_icgraph_org.svg" target="_base">
   <rect id="button" ry="5" rx="5" y="6" x="6" height="38" width="38"
        fill="#f2f5e9" fill-opacity="0.5" stroke="#606060" stroke-width="1.0"/>
   <path id="arrow"
     d="M 11.500037,31.436501 C 11.940474,20.09759 22.043105,11.32322 32.158766,21.979434 L 37.068811,17.246167 C 37.068811,17.246167 37.088388,32 37.088388,32 L 22.160133,31.978069 C 22.160133,31.978069 26.997745,27.140456 26.997745,27.140456 C 18.528582,18.264221 13.291696,25.230495 11.500037,31.436501 z"
     style="fill:#404040;"/>
  </a>
 </g>
</svg>

<style type='text/css'>
<![CDATA[
[data-mouse-over-selected='false'] { opacity: 0.7; }
[data-mouse-over-selected='true']  { opacity: 1.0; }
]]>
</style>
<script type="application/ecmascript"><![CDATA[
document.addEventListener('DOMContentLoaded', (event) => {
  highlightEdges();
  highlightAdjacentNodes();
});
]]></script>
</svg>
