<?xml version="1.0" encoding="UTF-8" standalone="no"?>
<!DOCTYPE svg PUBLIC "-//W3C//DTD SVG 1.1//EN"
 "http://www.w3.org/Graphics/SVG/1.1/DTD/svg11.dtd">
<!-- Generated by graphviz version 2.43.0 (0)
 -->
<!-- Title: lamina::InequalitySolver::build_parametric_solution Pages: 1 -->
<svg width="688pt" height="349pt"
 viewBox="0.00 0.00 688.00 348.50" xmlns="http://www.w3.org/2000/svg" xmlns:xlink="http://www.w3.org/1999/xlink">
<g id="graph0" class="graph" transform="scale(1 1) rotate(0) translate(4 344.5)">
<title>lamina::InequalitySolver::build_parametric_solution</title>
<!-- Node1 -->
<g id="Node000001" class="node">
<title>Node1</title>
<g id="a_Node000001"><a xlink:title=" ">
<polygon fill="#999999" stroke="#666666" points="149,-173.5 0,-173.5 0,-143.5 149,-143.5 149,-173.5"/>
<text text-anchor="start" x="8" y="-161.5" font-family="Helvetica,sans-Serif" font-size="10.00">lamina::InequalitySolver</text>
<text text-anchor="middle" x="74.5" y="-150.5" font-family="Helvetica,sans-Serif" font-size="10.00">::build_parametric_solution</text>
</a>
</g>
</g>
<!-- Node2 -->
<g id="Node000002" class="node">
<title>Node2</title>
<g id="a_Node000002"><a xlink:href="../../dc/d25/classSymbolicExpr.html#ac8782568f037f8055277e5d8b80ec6d6" target="_top" xlink:title="创建加法表达式。">
<polygon fill="white" stroke="#666666" points="303.5,-330 196.5,-330 196.5,-311 303.5,-311 303.5,-330"/>
<text text-anchor="middle" x="250" y="-318" font-family="Helvetica,sans-Serif" font-size="10.00">SymbolicExpr::add</text>
</a>
</g>
</g>
<!-- Node1&#45;&gt;Node2 -->
<g id="edge1_Node000001_Node000002" class="edge">
<title>Node1&#45;&gt;Node2</title>
<g id="a_edge1_Node000001_Node000002"><a xlink:title=" ">
<path fill="none" stroke="#63b8ff" d="M83.71,-173.58C99.67,-201.59 137.53,-261.93 185,-296.5 190.61,-300.58 196.99,-304.05 203.5,-306.98"/>
<polygon fill="#63b8ff" stroke="#63b8ff" points="202.48,-310.34 213.06,-310.88 205.13,-303.86 202.48,-310.34"/>
</a>
</g>
</g>
<!-- Node3 -->
<g id="Node000003" class="node">
<title>Node3</title>
<g id="a_Node000003"><a xlink:href="../../de/d2c/classlamina_1_1IntervalUnion.html#a2b56d26a10b685e3fa718da6c240e4f0" target="_top" xlink:title="构造空集">
<polygon fill="white" stroke="#666666" points="488,-340.5 366,-340.5 366,-310.5 488,-310.5 488,-340.5"/>
<text text-anchor="start" x="374" y="-328.5" font-family="Helvetica,sans-Serif" font-size="10.00">lamina::IntervalUnion</text>
<text text-anchor="middle" x="427" y="-317.5" font-family="Helvetica,sans-Serif" font-size="10.00">::empty</text>
</a>
</g>
</g>
<!-- Node1&#45;&gt;Node3 -->
<g id="edge2_Node000001_Node000003" class="edge">
<title>Node1&#45;&gt;Node3</title>
<g id="a_edge2_Node000001_Node000003"><a xlink:title=" ">
<path fill="none" stroke="#63b8ff" d="M86.86,-173.52C105.03,-196.47 142.89,-240.05 185,-263.5 200.08,-271.9 290.23,-293.97 355.87,-309.37"/>
<polygon fill="#63b8ff" stroke="#63b8ff" points="355.23,-312.82 365.77,-311.69 356.83,-306 355.23,-312.82"/>
</a>
</g>
</g>
<!-- Node5 -->
<g id="Node000005" class="node">
<title>Node5</title>
<g id="a_Node000005"><a xlink:href="../../de/d2c/classlamina_1_1IntervalUnion.html#add405122c217357d94361266e2584436" target="_top" xlink:title="构造全实数轴">
<polygon fill="white" stroke="#666666" points="311,-254.5 189,-254.5 189,-224.5 311,-224.5 311,-254.5"/>
<text text-anchor="start" x="197" y="-242.5" font-family="Helvetica,sans-Serif" font-size="10.00">lamina::IntervalUnion</text>
<text text-anchor="middle" x="250" y="-231.5" font-family="Helvetica,sans-Serif" font-size="10.00">::entire_line</text>
</a>
</g>
</g>
<!-- Node1&#45;&gt;Node5 -->
<g id="edge4_Node000001_Node000005" class="edge">
<title>Node1&#45;&gt;Node5</title>
<g id="a_edge4_Node000001_Node000005"><a xlink:title=" ">
<path fill="none" stroke="#63b8ff" d="M107.06,-173.67C128.89,-184.12 158.66,-198.28 185,-210.5 191.77,-213.64 198.96,-216.94 205.98,-220.14"/>
<polygon fill="#63b8ff" stroke="#63b8ff" points="204.85,-223.46 215.4,-224.41 207.74,-217.09 204.85,-223.46"/>
</a>
</g>
</g>
<!-- Node7 -->
<g id="Node000007" class="node">
<title>Node7</title>
<g id="a_Node000007"><a xlink:href="../../df/dd1/structlamina_1_1Endpoint.html#a33fa9fe16d10318d428c2c7d882f5e7e" target="_top" xlink:title="构造负无穷端点">
<polygon fill="white" stroke="#666666" points="680,-225 539,-225 539,-206 680,-206 680,-225"/>
<text text-anchor="middle" x="609.5" y="-213" font-family="Helvetica,sans-Serif" font-size="10.00">lamina::Endpoint::neg_inf</text>
</a>
</g>
</g>
<!-- Node1&#45;&gt;Node7 -->
<g id="edge11_Node000001_Node000007" class="edge">
<title>Node1&#45;&gt;Node7</title>
<g id="a_edge11_Node000001_Node000007"><a xlink:title=" ">
<path fill="none" stroke="#63b8ff" d="M149.27,-172.95C161.19,-175 173.41,-176.94 185,-178.5 304.31,-194.57 443.52,-205.18 528.83,-210.77"/>
<polygon fill="#63b8ff" stroke="#63b8ff" points="528.75,-214.27 538.96,-211.43 529.2,-207.29 528.75,-214.27"/>
</a>
</g>
</g>
<!-- Node8 -->
<g id="Node000008" class="node">
<title>Node8</title>
<g id="a_Node000008"><a xlink:href="../../df/dd1/structlamina_1_1Endpoint.html#ab310ed526ff9093da297dc16c17eed2c" target="_top" xlink:title="构造正无穷端点">
<polygon fill="white" stroke="#666666" points="679.5,-188 539.5,-188 539.5,-169 679.5,-169 679.5,-188"/>
<text text-anchor="middle" x="609.5" y="-176" font-family="Helvetica,sans-Serif" font-size="10.00">lamina::Endpoint::pos_inf</text>
</a>
</g>
</g>
<!-- Node1&#45;&gt;Node8 -->
<g id="edge16_Node000001_Node000008" class="edge">
<title>Node1&#45;&gt;Node8</title>
<g id="a_edge16_Node000001_Node000008"><a xlink:title=" ">
<path fill="none" stroke="#63b8ff" d="M149.05,-161.26C248.82,-165 426.36,-171.67 529.08,-175.52"/>
<polygon fill="#63b8ff" stroke="#63b8ff" points="528.96,-179.02 539.09,-175.9 529.22,-172.02 528.96,-179.02"/>
</a>
</g>
</g>
<!-- Node10 -->
<g id="Node000010" class="node">
<title>Node10</title>
<g id="a_Node000010"><a xlink:href="../../dc/d25/classSymbolicExpr.html#ad03189fc8a4db7762f7c1ca890674bbc" target="_top" xlink:title="创建乘法表达式。">
<polygon fill="white" stroke="#666666" points="315,-130 185,-130 185,-111 315,-111 315,-130"/>
<text text-anchor="middle" x="250" y="-118" font-family="Helvetica,sans-Serif" font-size="10.00">SymbolicExpr::multiply</text>
</a>
</g>
</g>
<!-- Node1&#45;&gt;Node10 -->
<g id="edge10_Node000001_Node000010" class="edge">
<title>Node1&#45;&gt;Node10</title>
<g id="a_edge10_Node000001_Node000010"><a xlink:title=" ">
<path fill="none" stroke="#63b8ff" d="M144.07,-143.48C161.25,-139.72 179.42,-135.74 195.73,-132.17"/>
<polygon fill="#63b8ff" stroke="#63b8ff" points="196.6,-135.56 205.62,-130 195.1,-128.72 196.6,-135.56"/>
</a>
</g>
</g>
<!-- Node11 -->
<g id="Node000011" class="node">
<title>Node11</title>
<g id="a_Node000011"><a xlink:href="../../dc/d25/classSymbolicExpr.html#adeb760bb6f4f28879108394537eca293" target="_top" xlink:title="创建整数数值表达式。">
<polygon fill="white" stroke="#666666" points="313.5,-93 186.5,-93 186.5,-74 313.5,-74 313.5,-93"/>
<text text-anchor="middle" x="250" y="-81" font-family="Helvetica,sans-Serif" font-size="10.00">SymbolicExpr::number</text>
</a>
</g>
</g>
<!-- Node1&#45;&gt;Node11 -->
<g id="edge12_Node000001_Node000011" class="edge">
<title>Node1&#45;&gt;Node11</title>
<g id="a_edge12_Node000001_Node000011"><a xlink:title=" ">
<path fill="none" stroke="#63b8ff" d="M101.86,-143.28C123.65,-131.12 155.66,-114.24 185,-102.5 190.79,-100.18 196.97,-98 203.13,-96"/>
<polygon fill="#63b8ff" stroke="#63b8ff" points="204.22,-99.33 212.72,-93.01 202.13,-92.64 204.22,-99.33"/>
</a>
</g>
</g>
<!-- Node12 -->
<g id="Node000012" class="node">
<title>Node12</title>
<g id="a_Node000012"><a xlink:href="../../df/dd1/structlamina_1_1Endpoint.html#af6b2d3fdf7908af0529b2e4844d5f0a7" target="_top" xlink:title="构造开端点">
<polygon fill="white" stroke="#666666" points="314.5,-56 185.5,-56 185.5,-37 314.5,-37 314.5,-56"/>
<text text-anchor="middle" x="250" y="-44" font-family="Helvetica,sans-Serif" font-size="10.00">lamina::Endpoint::open</text>
</a>
</g>
</g>
<!-- Node1&#45;&gt;Node12 -->
<g id="edge13_Node000001_Node000012" class="edge">
<title>Node1&#45;&gt;Node12</title>
<g id="a_edge13_Node000001_Node000012"><a xlink:title=" ">
<path fill="none" stroke="#63b8ff" d="M89.26,-143.4C108.7,-122.93 146.18,-86.52 185,-65.5 189.18,-63.24 193.65,-61.21 198.23,-59.41"/>
<polygon fill="#63b8ff" stroke="#63b8ff" points="199.47,-62.68 207.7,-56.01 197.1,-56.1 199.47,-62.68"/>
</a>
</g>
</g>
<!-- Node13 -->
<g id="Node000013" class="node">
<title>Node13</title>
<g id="a_Node000013"><a xlink:href="../../db/d7f/structlamina_1_1Interval.html#afcb11ef8257f3362a0734f1f625aa1b7" target="_top" xlink:title="构造单点区间 [val, val]">
<polygon fill="white" stroke="#666666" points="312.5,-19 187.5,-19 187.5,0 312.5,0 312.5,-19"/>
<text text-anchor="middle" x="250" y="-7" font-family="Helvetica,sans-Serif" font-size="10.00">lamina::Interval::point</text>
</a>
</g>
</g>
<!-- Node1&#45;&gt;Node13 -->
<g id="edge14_Node000001_Node000013" class="edge">
<title>Node1&#45;&gt;Node13</title>
<g id="a_edge14_Node000001_Node000013"><a xlink:title=" ">
<path fill="none" stroke="#63b8ff" d="M83.9,-143.4C99.91,-116.04 137.47,-58.26 185,-27.5 187.45,-25.91 190.05,-24.46 192.73,-23.14"/>
<polygon fill="#63b8ff" stroke="#63b8ff" points="194.31,-26.27 202.12,-19.11 191.55,-19.84 194.31,-26.27"/>
</a>
</g>
</g>
<!-- Node4 -->
<g id="Node000004" class="node">
<title>Node4</title>
<g id="a_Node000004"><a xlink:href="../../de/d2c/classlamina_1_1IntervalUnion.html#a5cc11ccc4c021cb57b147bc7b439e3e8" target="_top" xlink:title=" ">
<polygon fill="white" stroke="#666666" points="670.5,-316.5 548.5,-316.5 548.5,-286.5 670.5,-286.5 670.5,-316.5"/>
<text text-anchor="start" x="556.5" y="-304.5" font-family="Helvetica,sans-Serif" font-size="10.00">lamina::IntervalUnion</text>
<text text-anchor="middle" x="609.5" y="-293.5" font-family="Helvetica,sans-Serif" font-size="10.00">::IntervalUnion</text>
</a>
</g>
</g>
<!-- Node3&#45;&gt;Node4 -->
<g id="edge3_Node000003_Node000004" class="edge">
<title>Node3&#45;&gt;Node4</title>
<g id="a_edge3_Node000003_Node000004"><a xlink:title=" ">
<path fill="none" stroke="#63b8ff" d="M488.1,-317.51C504.16,-315.37 521.64,-313.05 538.19,-310.85"/>
<polygon fill="#63b8ff" stroke="#63b8ff" points="538.9,-314.29 548.35,-309.5 537.98,-307.35 538.9,-314.29"/>
</a>
</g>
</g>
<!-- Node6 -->
<g id="Node000006" class="node">
<title>Node6</title>
<g id="a_Node000006"><a xlink:href="../../db/d7f/structlamina_1_1Interval.html#ab8d0ef3adfd59eaf374ec9058cacd5b6" target="_top" xlink:title="构造整条实数轴 (&#45;∞, +∞)">
<polygon fill="white" stroke="#666666" points="503,-244 351,-244 351,-225 503,-225 503,-244"/>
<text text-anchor="middle" x="427" y="-232" font-family="Helvetica,sans-Serif" font-size="10.00">lamina::Interval::entire_line</text>
</a>
</g>
</g>
<!-- Node5&#45;&gt;Node6 -->
<g id="edge5_Node000005_Node000006" class="edge">
<title>Node5&#45;&gt;Node6</title>
<g id="a_edge5_Node000005_Node000006"><a xlink:title=" ">
<path fill="none" stroke="#63b8ff" d="M311.23,-237.78C320.69,-237.51 330.63,-237.22 340.53,-236.94"/>
<polygon fill="#63b8ff" stroke="#63b8ff" points="340.93,-240.43 350.82,-236.65 340.73,-233.44 340.93,-240.43"/>
</a>
</g>
</g>
<!-- Node9 -->
<g id="Node000009" class="node">
<title>Node9</title>
<g id="a_Node000009"><a xlink:href="../../de/d2c/classlamina_1_1IntervalUnion.html#a402aeb53acdaff960293366942120173" target="_top" xlink:title="从单个区间构造并集">
<polygon fill="white" stroke="#666666" points="488,-292.5 366,-292.5 366,-262.5 488,-262.5 488,-292.5"/>
<text text-anchor="start" x="374" y="-280.5" font-family="Helvetica,sans-Serif" font-size="10.00">lamina::IntervalUnion</text>
<text text-anchor="middle" x="427" y="-269.5" font-family="Helvetica,sans-Serif" font-size="10.00">::from_single</text>
</a>
</g>
</g>
<!-- Node5&#45;&gt;Node9 -->
<g id="edge8_Node000005_Node000009" class="edge">
<title>Node5&#45;&gt;Node9</title>
<g id="a_edge8_Node000005_Node000009"><a xlink:title=" ">
<path fill="none" stroke="#63b8ff" d="M311.23,-252.58C325.6,-255.7 341.08,-259.06 355.86,-262.27"/>
<polygon fill="#63b8ff" stroke="#63b8ff" points="355.45,-265.76 365.96,-264.46 356.93,-258.92 355.45,-265.76"/>
</a>
</g>
</g>
<!-- Node6&#45;&gt;Node7 -->
<g id="edge6_Node000006_Node000007" class="edge">
<title>Node6&#45;&gt;Node7</title>
<g id="a_edge6_Node000006_Node000007"><a xlink:title=" ">
<path fill="none" stroke="#63b8ff" d="M503.24,-226.58C511.63,-225.7 520.2,-224.79 528.64,-223.91"/>
<polygon fill="#63b8ff" stroke="#63b8ff" points="529.29,-227.36 538.86,-222.83 528.55,-220.4 529.29,-227.36"/>
</a>
</g>
</g>
<!-- Node6&#45;&gt;Node8 -->
<g id="edge7_Node000006_Node000008" class="edge">
<title>Node6&#45;&gt;Node8</title>
<g id="a_edge7_Node000006_Node000008"><a xlink:title=" ">
<path fill="none" stroke="#63b8ff" d="M455.24,-224.96C477.63,-217.22 510.23,-206.22 539,-197.5 546.49,-195.23 554.47,-192.93 562.26,-190.76"/>
<polygon fill="#63b8ff" stroke="#63b8ff" points="563.25,-194.12 571.96,-188.08 561.39,-187.37 563.25,-194.12"/>
</a>
</g>
</g>
<!-- Node9&#45;&gt;Node4 -->
<g id="edge9_Node000009_Node000004" class="edge">
<title>Node9&#45;&gt;Node4</title>
<g id="a_edge9_Node000009_Node000004"><a xlink:title=" ">
<path fill="none" stroke="#63b8ff" d="M488.1,-285.49C504.16,-287.63 521.64,-289.95 538.19,-292.15"/>
<polygon fill="#63b8ff" stroke="#63b8ff" points="537.98,-295.65 548.35,-293.5 538.9,-288.71 537.98,-295.65"/>
</a>
</g>
</g>
<!-- Node14 -->
<g id="Node000014" class="node">
<title>Node14</title>
<g id="a_Node000014"><a xlink:href="../../df/dd1/structlamina_1_1Endpoint.html#aa90a1cb59ac1970cb0b053e47ece31e1" target="_top" xlink:title="构造闭端点">
<polygon fill="white" stroke="#666666" points="495.5,-19 358.5,-19 358.5,0 495.5,0 495.5,-19"/>
<text text-anchor="middle" x="427" y="-7" font-family="Helvetica,sans-Serif" font-size="10.00">lamina::Endpoint::closed</text>
</a>
</g>
</g>
<!-- Node13&#45;&gt;Node14 -->
<g id="edge15_Node000013_Node000014" class="edge">
<title>Node13&#45;&gt;Node14</title>
<g id="a_edge15_Node000013_Node000014"><a xlink:title=" ">
<path fill="none" stroke="#63b8ff" d="M312.7,-9.5C324.12,-9.5 336.18,-9.5 348,-9.5"/>
<polygon fill="#63b8ff" stroke="#63b8ff" points="348.31,-13 358.31,-9.5 348.31,-6 348.31,-13"/>
</a>
</g>
</g>
</g>
</svg>
