<?xml version="1.0" encoding="UTF-8" standalone="no"?>
<!DOCTYPE svg PUBLIC "-//W3C//DTD SVG 1.1//EN"
 "http://www.w3.org/Graphics/SVG/1.1/DTD/svg11.dtd">
<!-- Generated by graphviz version 2.43.0 (0)
 -->
<!-- Title: lmmp_6pow_1_ Pages: 1 -->
<svg width="364pt" height="27pt"
 viewBox="0.00 0.00 364.00 27.00" xmlns="http://www.w3.org/2000/svg" xmlns:xlink="http://www.w3.org/1999/xlink">
<g id="graph0" class="graph" transform="scale(1 1) rotate(0) translate(4 23)">
<title>lmmp_6pow_1_</title>
<!-- Node1 -->
<g id="Node000001" class="node">
<title>Node1</title>
<g id="a_Node000001"><a xlink:title=" ">
<polygon fill="#999999" stroke="#666666" points="356,-19 263,-19 263,0 356,0 356,-19"/>
<text text-anchor="middle" x="309.5" y="-7" font-family="Helvetica,sans-Serif" font-size="10.00">lmmp_6pow_1_</text>
</a>
</g>
</g>
<!-- Node2 -->
<g id="Node000002" class="node">
<title>Node2</title>
<g id="a_Node000002"><a xlink:href="../../d3/da4/pow__1_8c.html#a580e3e46ae8cb359d3772c06c73ce3ff" target="_top" xlink:title=" ">
<polygon fill="white" stroke="#666666" points="227,-19 123,-19 123,0 227,0 227,-19"/>
<text text-anchor="middle" x="175" y="-7" font-family="Helvetica,sans-Serif" font-size="10.00">lmmp_u4_pow_1_</text>
</a>
</g>
</g>
<!-- Node1&#45;&gt;Node2 -->
<g id="edge1_Node000001_Node000002" class="edge">
<title>Node1&#45;&gt;Node2</title>
<g id="a_edge1_Node000001_Node000002"><a xlink:title=" ">
<path fill="none" stroke="#63b8ff" d="M252.71,-9.5C244.23,-9.5 235.51,-9.5 227.14,-9.5"/>
<polygon fill="#63b8ff" stroke="#63b8ff" points="252.9,-13 262.9,-9.5 252.9,-6 252.9,-13"/>
</a>
</g>
</g>
<!-- Node3 -->
<g id="Node000003" class="node">
<title>Node3</title>
<g id="a_Node000003"><a xlink:href="../../d3/da4/pow__1_8c.html#aba33231012cccaf77cfb662d570d99ef" target="_top" xlink:title=" ">
<polygon fill="white" stroke="#666666" points="87,-19 0,-19 0,0 87,0 87,-19"/>
<text text-anchor="middle" x="43.5" y="-7" font-family="Helvetica,sans-Serif" font-size="10.00">lmmp_pow_1_</text>
</a>
</g>
</g>
<!-- Node2&#45;&gt;Node3 -->
<g id="edge2_Node000002_Node000003" class="edge">
<title>Node2&#45;&gt;Node3</title>
<g id="a_edge2_Node000002_Node000003"><a xlink:title=" ">
<path fill="none" stroke="#63b8ff" d="M112.8,-9.5C104.21,-9.5 95.53,-9.5 87.38,-9.5"/>
<polygon fill="#63b8ff" stroke="#63b8ff" points="112.82,-13 122.82,-9.5 112.82,-6 112.82,-13"/>
</a>
</g>
</g>
</g>
</svg>
