<?xml version="1.0" encoding="UTF-8" standalone="no"?>
<!DOCTYPE svg PUBLIC "-//W3C//DTD SVG 1.1//EN"
 "http://www.w3.org/Graphics/SVG/1.1/DTD/svg11.dtd">
<!-- Generated by graphviz version 2.43.0 (0)
 -->
<!-- Title: lmmp_u64_pow_1_ Pages: 1 -->
<svg width="276pt" height="64pt"
 viewBox="0.00 0.00 276.00 64.00" xmlns="http://www.w3.org/2000/svg" xmlns:xlink="http://www.w3.org/1999/xlink">
<g id="graph0" class="graph" transform="scale(1 1) rotate(0) translate(4 60)">
<title>lmmp_u64_pow_1_</title>
<!-- Node1 -->
<g id="Node000001" class="node">
<title>Node1</title>
<g id="a_Node000001"><a xlink:title=" ">
<polygon fill="#999999" stroke="#666666" points="110,-37 0,-37 0,-18 110,-18 110,-37"/>
<text text-anchor="middle" x="55" y="-25" font-family="Helvetica,sans-Serif" font-size="10.00">lmmp_u64_pow_1_</text>
</a>
</g>
</g>
<!-- Node2 -->
<g id="Node000002" class="node">
<title>Node2</title>
<g id="a_Node000002"><a xlink:href="../../d6/d39/lmmpn_8h.html#ac837c3ce41191aecaaa2f226de50331c" target="_top" xlink:title="大数乘以单limb操作 [dst,na] = [numa,na] * x">
<polygon fill="white" stroke="#666666" points="250,-56 164,-56 164,-37 250,-37 250,-56"/>
<text text-anchor="middle" x="207" y="-44" font-family="Helvetica,sans-Serif" font-size="10.00">lmmp_mul_1_</text>
</a>
</g>
</g>
<!-- Node1&#45;&gt;Node2 -->
<g id="edge1_Node000001_Node000002" class="edge">
<title>Node1&#45;&gt;Node2</title>
<g id="a_edge1_Node000001_Node000002"><a xlink:title=" ">
<path fill="none" stroke="#63b8ff" d="M110.15,-34.36C124.33,-36.16 139.59,-38.09 153.68,-39.87"/>
<polygon fill="#63b8ff" stroke="#63b8ff" points="153.33,-43.36 163.69,-41.14 154.21,-36.41 153.33,-43.36"/>
</a>
</g>
</g>
<!-- Node3 -->
<g id="Node000003" class="node">
<title>Node3</title>
<g id="a_Node000003"><a xlink:href="../../d6/d39/lmmpn_8h.html#a4805a05d4c0108a4d5ec4cdee10a2c35" target="_top" xlink:title="基础平方运算 [dst,2*na] = [numa,na]^2">
<polygon fill="white" stroke="#666666" points="268,-19 146,-19 146,0 268,0 268,-19"/>
<text text-anchor="middle" x="207" y="-7" font-family="Helvetica,sans-Serif" font-size="10.00">lmmp_sqr_basecase_</text>
</a>
</g>
</g>
<!-- Node1&#45;&gt;Node3 -->
<g id="edge2_Node000001_Node000003" class="edge">
<title>Node1&#45;&gt;Node3</title>
<g id="a_edge2_Node000001_Node000003"><a xlink:title=" ">
<path fill="none" stroke="#63b8ff" d="M110.15,-21C118.48,-20 127.17,-18.96 135.78,-17.93"/>
<polygon fill="#63b8ff" stroke="#63b8ff" points="136.31,-21.39 145.83,-16.72 135.48,-14.44 136.31,-21.39"/>
</a>
</g>
</g>
</g>
</svg>
