<?xml version="1.0" encoding="UTF-8" standalone="no"?>
<!DOCTYPE svg PUBLIC "-//W3C//DTD SVG 1.1//EN"
 "http://www.w3.org/Graphics/SVG/1.1/DTD/svg11.dtd">
<!-- Generated by graphviz version 2.43.0 (0)
 -->
<!-- Title: lamina::Interval::entire_line Pages: 1 -->
<!--zoomable 254 -->

<svg id="main" version="1.1" xmlns="http://www.w3.org/2000/svg" xmlns:xlink="http://www.w3.org/1999/xlink" xml:space="preserve" onload="init(evt)">
<style type="text/css"><![CDATA[
.node, .edge {opacity: 0.7;}
.node.selected, .edge.selected {opacity: 1;}
.edge:hover path { stroke: red; }
.edge:hover polygon { stroke: red; fill: red; }
]]></style>

<defs>
  <circle id="rim" cx="0" cy="0" r="7"/>
  <circle id="rim2" cx="0" cy="0" r="3.5"/>
  <g id="zoomPlus">
    <use xlink:href="#rim" fill="#404040"><set attributeName="fill" to="#808080" begin="zoomplus.mouseover" end="zoomplus.mouseout"/></use>
    <path d="M-4,0h8M0,-4v8" fill="none" stroke="white" stroke-width="1.5" pointer-events="none"/>
  </g>
  <g id="zoomMin">
    <use xlink:href="#rim" fill="#404040"><set attributeName="fill" to="#808080" begin="zoomminus.mouseover" end="zoomminus.mouseout"/></use>
    <path d="M-4,0h8" fill="none" stroke="white" stroke-width="1.5" pointer-events="none"/>
  </g>
  <g id="arrowUp" transform="translate(30 24)">
    <use xlink:href="#rim"/>
    <path pointer-events="none" fill="none" stroke="white" stroke-width="1.5" d="M0,-3.0v7 M-2.5,-0.5L0,-3.0L2.5,-0.5"/>
  </g>
  <g id="arrowRight" transform="rotate(90) translate(36 -43)">
    <use xlink:href="#rim"/>
    <path pointer-events="none" fill="none" stroke="white" stroke-width="1.5" d="M0,-3.0v7 M-2.5,-0.5L0,-3.0L2.5,-0.5"/>
  </g>
  <g id="arrowDown" transform="rotate(180) translate(-30 -48)">
    <use xlink:href="#rim"/>
    <path pointer-events="none" fill="none" stroke="white" stroke-width="1.5" d="M0,-3.0v7 M-2.5,-0.5L0,-3.0L2.5,-0.5"/>
  </g>
  <g id="arrowLeft" transform="rotate(270) translate(-36 17)">
    <use xlink:href="#rim"/>
    <path pointer-events="none" fill="none" stroke="white" stroke-width="1.5" d="M0,-3.0v7 M-2.5,-0.5L0,-3.0L2.5,-0.5"/>
  </g>
  <g id="resetDef">
    <use xlink:href="#rim2" fill="#404040"><set attributeName="fill" to="#808080" begin="reset.mouseover" end="reset.mouseout"/></use>
  </g>
</defs>
<script type="application/ecmascript">
var viewWidth = 714;
var viewHeight = 254;
var sectionId = 'dynsection-4';
</script>
<script type="application/ecmascript" xlink:href="../../svg.min.js"/>
<svg id="graph" class="graph">
<g id="viewport">
<title>lamina::Interval::entire_line</title>
<!-- Node1 -->
<g id="Node000001" class="node">
<title>Node1</title>
<g id="a_Node000001"><a xlink:title="构造整条实数轴 (&#45;∞, +∞)">
<polygon fill="#999999" stroke="#666666" points="706,-136.5 554,-136.5 554,-117.5 706,-117.5 706,-136.5"/>
<text text-anchor="middle" x="630" y="-124.5" font-family="Helvetica,sans-Serif" font-size="10.00">lamina::Interval::entire_line</text>
</a>
</g>
</g>
<!-- Node2 -->
<g id="Node000002" class="node">
<title>Node2</title>
<g id="a_Node000002"><a xlink:href="../../db/d26/classlamina_1_1InequalitySolver.html#a7d51c2516b711ff1af4d1f85895b57f1" target="_top" xlink:title=" ">
<polygon fill="white" stroke="#666666" points="518,-201 382,-201 382,-171 518,-171 518,-201"/>
<text text-anchor="start" x="390" y="-189" font-family="Helvetica,sans-Serif" font-size="10.00">lamina::InequalitySolver</text>
<text text-anchor="middle" x="450" y="-178" font-family="Helvetica,sans-Serif" font-size="10.00">::build_sign_chart</text>
</a>
</g>
</g>
<!-- Node1&#45;&gt;Node2 -->
<g id="edge1_Node000001_Node000002" class="edge">
<title>Node1&#45;&gt;Node2</title>
<g id="a_edge1_Node000001_Node000002"><a xlink:title=" ">
<path fill="none" stroke="#63b8ff" d="M590.29,-139.83C562.65,-148.99 525.37,-161.35 496.34,-170.97"/>
<polygon fill="#63b8ff" stroke="#63b8ff" points="591.61,-143.08 600.01,-136.61 589.41,-136.43 591.61,-143.08"/>
</a>
</g>
</g>
<!-- Node6 -->
<g id="Node000006" class="node">
<title>Node6</title>
<g id="a_Node000006"><a xlink:href="../../de/d2c/classlamina_1_1IntervalUnion.html#add405122c217357d94361266e2584436" target="_top" xlink:title="构造全实数轴">
<polygon fill="white" stroke="#666666" points="511,-142 389,-142 389,-112 511,-112 511,-142"/>
<text text-anchor="start" x="397" y="-130" font-family="Helvetica,sans-Serif" font-size="10.00">lamina::IntervalUnion</text>
<text text-anchor="middle" x="450" y="-119" font-family="Helvetica,sans-Serif" font-size="10.00">::entire_line</text>
</a>
</g>
</g>
<!-- Node1&#45;&gt;Node6 -->
<g id="edge6_Node000001_Node000006" class="edge">
<title>Node1&#45;&gt;Node6</title>
<g id="a_edge6_Node000001_Node000006"><a xlink:title=" ">
<path fill="none" stroke="#63b8ff" d="M543.7,-127C532.7,-127 521.61,-127 511.13,-127"/>
<polygon fill="#63b8ff" stroke="#63b8ff" points="543.77,-130.5 553.77,-127 543.77,-123.5 543.77,-130.5"/>
</a>
</g>
</g>
<!-- Node9 -->
<g id="Node000009" class="node">
<title>Node9</title>
<g id="a_Node000009"><a xlink:href="../../db/d26/classlamina_1_1InequalitySolver.html#a2244f0ce0ad6b3b5781a8c7ced636447" target="_top" xlink:title="求解有理不等式 numerator/denominator ≷ 0">
<polygon fill="white" stroke="#666666" points="344.5,-30 198.5,-30 198.5,0 344.5,0 344.5,-30"/>
<text text-anchor="start" x="206.5" y="-18" font-family="Helvetica,sans-Serif" font-size="10.00">lamina::InequalitySolver</text>
<text text-anchor="middle" x="271.5" y="-7" font-family="Helvetica,sans-Serif" font-size="10.00">::solve_rational_inequality</text>
</a>
</g>
</g>
<!-- Node1&#45;&gt;Node9 -->
<g id="edge14_Node000001_Node000009" class="edge">
<title>Node1&#45;&gt;Node9</title>
<g id="a_edge14_Node000001_Node000009"><a xlink:title=" ">
<path fill="none" stroke="#63b8ff" d="M588.96,-114.42C522.88,-93.66 391.26,-52.31 320.37,-30.04"/>
<polygon fill="#63b8ff" stroke="#63b8ff" points="588.02,-117.79 598.61,-117.45 590.11,-111.11 588.02,-117.79"/>
</a>
</g>
</g>
<!-- Node3 -->
<g id="Node000003" class="node">
<title>Node3</title>
<g id="a_Node000003"><a xlink:href="../../db/d26/classlamina_1_1InequalitySolver.html#ad7aab28f2d96ad0eb07ff291a650afb8" target="_top" xlink:title="求解单个不等式">
<polygon fill="white" stroke="#666666" points="339.5,-212 203.5,-212 203.5,-182 339.5,-182 339.5,-212"/>
<text text-anchor="start" x="211.5" y="-200" font-family="Helvetica,sans-Serif" font-size="10.00">lamina::InequalitySolver</text>
<text text-anchor="middle" x="271.5" y="-189" font-family="Helvetica,sans-Serif" font-size="10.00">::solve_inequality</text>
</a>
</g>
</g>
<!-- Node2&#45;&gt;Node3 -->
<g id="edge2_Node000002_Node000003" class="edge">
<title>Node2&#45;&gt;Node3</title>
<g id="a_edge2_Node000002_Node000003"><a xlink:title=" ">
<path fill="none" stroke="#63b8ff" d="M371.61,-190.82C360.92,-191.49 350.02,-192.17 339.54,-192.82"/>
<polygon fill="#63b8ff" stroke="#63b8ff" points="372.01,-194.31 381.77,-190.19 371.57,-187.32 372.01,-194.31"/>
</a>
</g>
</g>
<!-- Node4 -->
<g id="Node000004" class="node">
<title>Node4</title>
<g id="a_Node000004"><a xlink:href="../../db/d26/classlamina_1_1InequalitySolver.html#ac97e2561a906111e54c90d494d0fef92" target="_top" xlink:title="求解不等式组（取交集）">
<polygon fill="white" stroke="#666666" points="148.5,-233 12.5,-233 12.5,-203 148.5,-203 148.5,-233"/>
<text text-anchor="start" x="20.5" y="-221" font-family="Helvetica,sans-Serif" font-size="10.00">lamina::InequalitySolver</text>
<text text-anchor="middle" x="80.5" y="-210" font-family="Helvetica,sans-Serif" font-size="10.00">::solve_inequalities</text>
</a>
</g>
</g>
<!-- Node3&#45;&gt;Node4 -->
<g id="edge3_Node000003_Node000004" class="edge">
<title>Node3&#45;&gt;Node4</title>
<g id="a_edge3_Node000003_Node000004"><a xlink:title=" ">
<path fill="none" stroke="#63b8ff" d="M193.24,-205.58C178.49,-207.22 163.17,-208.93 148.77,-210.53"/>
<polygon fill="#63b8ff" stroke="#63b8ff" points="193.78,-209.05 203.33,-204.46 193.01,-202.09 193.78,-209.05"/>
</a>
</g>
</g>
<!-- Node5 -->
<g id="Node000005" class="node">
<title>Node5</title>
<g id="a_Node000005"><a xlink:href="../../db/d26/classlamina_1_1InequalitySolver.html#a52f3cb8d15f7d98c4cfe1d8c39f910fc" target="_top" xlink:title="求解含参数的不等式，返回分段结果">
<polygon fill="white" stroke="#666666" points="161,-121 0,-121 0,-91 161,-91 161,-121"/>
<text text-anchor="start" x="8" y="-109" font-family="Helvetica,sans-Serif" font-size="10.00">lamina::InequalitySolver</text>
<text text-anchor="middle" x="80.5" y="-98" font-family="Helvetica,sans-Serif" font-size="10.00">::solve_parametric_inequality</text>
</a>
</g>
</g>
<!-- Node3&#45;&gt;Node5 -->
<g id="edge4_Node000003_Node000005" class="edge">
<title>Node3&#45;&gt;Node5</title>
<g id="a_edge4_Node000003_Node000005"><a xlink:title=" ">
<path fill="none" stroke="#63b8ff" d="M210.35,-178.52C205.79,-176.76 201.29,-174.92 197,-173 163.35,-157.95 126.95,-135.75 104.19,-121.09"/>
<polygon fill="#63b8ff" stroke="#63b8ff" points="209.16,-181.81 219.76,-181.98 211.58,-175.24 209.16,-181.81"/>
</a>
</g>
</g>
<!-- Node5&#45;&gt;Node5 -->
<g id="edge5_Node000005_Node000005" class="edge">
<title>Node5&#45;&gt;Node5</title>
<g id="a_edge5_Node000005_Node000005"><a xlink:title=" ">
<path fill="none" stroke="#63b8ff" d="M113.76,-131.6C109.21,-135.97 98.13,-139 80.5,-139 50.81,-139 39.68,-130.41 47.1,-121.28"/>
<polygon fill="#63b8ff" stroke="#63b8ff" points="117.26,-131.32 113.9,-121.28 110.26,-131.23 117.26,-131.32"/>
</a>
</g>
</g>
<!-- Node6&#45;&gt;Node3 -->
<g id="edge11_Node000006_Node000003" class="edge">
<title>Node6&#45;&gt;Node3</title>
<g id="a_edge11_Node000006_Node000003"><a xlink:title=" ">
<path fill="none" stroke="#63b8ff" d="M408.2,-146.4C389.45,-155.01 366.79,-164.99 346,-173 337.98,-176.09 329.38,-179.13 320.99,-181.96"/>
<polygon fill="#63b8ff" stroke="#63b8ff" points="409.74,-149.54 417.35,-142.17 406.8,-143.19 409.74,-149.54"/>
</a>
</g>
</g>
<!-- Node6&#45;&gt;Node4 -->
<g id="edge10_Node000006_Node000004" class="edge">
<title>Node6&#45;&gt;Node4</title>
<g id="a_edge10_Node000006_Node000004"><a xlink:title=" ">
<path fill="none" stroke="#63b8ff" d="M402.32,-147.14C395.07,-151.43 388,-156.39 382,-162 359.57,-182.99 372.79,-205.96 346,-221 280.12,-257.98 189.7,-246.19 133.47,-233.05"/>
<polygon fill="#63b8ff" stroke="#63b8ff" points="404.48,-149.95 411.55,-142.06 401.1,-143.82 404.48,-149.95"/>
</a>
</g>
</g>
<!-- Node6&#45;&gt;Node5 -->
<g id="edge12_Node000006_Node000005" class="edge">
<title>Node6&#45;&gt;Node5</title>
<g id="a_edge12_Node000006_Node000005"><a xlink:title=" ">
<path fill="none" stroke="#63b8ff" d="M378.62,-122.98C316.45,-119.43 225.88,-114.25 161.09,-110.55"/>
<polygon fill="#63b8ff" stroke="#63b8ff" points="378.54,-126.48 388.73,-123.56 378.94,-119.49 378.54,-126.48"/>
</a>
</g>
</g>
<!-- Node7 -->
<g id="Node000007" class="node">
<title>Node7</title>
<g id="a_Node000007"><a xlink:href="../../db/d26/classlamina_1_1InequalitySolver.html#a9af1d18fde887233edcaa36e76226f94" target="_top" xlink:title=" ">
<polygon fill="white" stroke="#666666" points="346,-78 197,-78 197,-48 346,-48 346,-78"/>
<text text-anchor="start" x="205" y="-66" font-family="Helvetica,sans-Serif" font-size="10.00">lamina::InequalitySolver</text>
<text text-anchor="middle" x="271.5" y="-55" font-family="Helvetica,sans-Serif" font-size="10.00">::build_parametric_solution</text>
</a>
</g>
</g>
<!-- Node6&#45;&gt;Node7 -->
<g id="edge7_Node000006_Node000007" class="edge">
<title>Node6&#45;&gt;Node7</title>
<g id="a_edge7_Node000006_Node000007"><a xlink:title=" ">
<path fill="none" stroke="#63b8ff" d="M398.06,-108.53C371.36,-98.85 339.07,-87.14 313.93,-78.02"/>
<polygon fill="#63b8ff" stroke="#63b8ff" points="397.02,-111.88 407.62,-111.99 399.41,-105.3 397.02,-111.88"/>
</a>
</g>
</g>
<!-- Node8 -->
<g id="Node000008" class="node">
<title>Node8</title>
<g id="a_Node000008"><a xlink:href="../../de/d2c/classlamina_1_1IntervalUnion.html#aa23445cfef2515c76137ac931141397e" target="_top" xlink:title="求补集">
<polygon fill="white" stroke="#666666" points="332.5,-164 210.5,-164 210.5,-134 332.5,-134 332.5,-164"/>
<text text-anchor="start" x="218.5" y="-152" font-family="Helvetica,sans-Serif" font-size="10.00">lamina::IntervalUnion</text>
<text text-anchor="middle" x="271.5" y="-141" font-family="Helvetica,sans-Serif" font-size="10.00">::complement</text>
</a>
</g>
</g>
<!-- Node6&#45;&gt;Node8 -->
<g id="edge9_Node000006_Node000008" class="edge">
<title>Node6&#45;&gt;Node8</title>
<g id="a_edge9_Node000006_Node000008"><a xlink:title=" ">
<path fill="none" stroke="#63b8ff" d="M378.42,-135.8C363.3,-137.68 347.46,-139.66 332.78,-141.49"/>
<polygon fill="#63b8ff" stroke="#63b8ff" points="379.26,-139.22 388.75,-134.51 378.4,-132.27 379.26,-139.22"/>
</a>
</g>
</g>
<!-- Node6&#45;&gt;Node9 -->
<g id="edge13_Node000006_Node000009" class="edge">
<title>Node6&#45;&gt;Node9</title>
<g id="a_edge13_Node000006_Node000009"><a xlink:title=" ">
<path fill="none" stroke="#63b8ff" d="M420.88,-105.78C408.69,-96.33 394.41,-84.89 382,-74 365.23,-59.28 365.1,-50.54 346,-39 340.37,-35.6 334.2,-32.62 327.91,-30.03"/>
<polygon fill="#63b8ff" stroke="#63b8ff" points="418.87,-108.65 428.93,-111.98 423.14,-103.11 418.87,-108.65"/>
</a>
</g>
</g>
<!-- Node7&#45;&gt;Node5 -->
<g id="edge8_Node000007_Node000005" class="edge">
<title>Node7&#45;&gt;Node5</title>
<g id="a_edge8_Node000007_Node000005"><a xlink:title=" ">
<path fill="none" stroke="#63b8ff" d="M194.33,-80.33C178.84,-83.85 162.67,-87.53 147.57,-90.97"/>
<polygon fill="#63b8ff" stroke="#63b8ff" points="195.42,-83.67 204.4,-78.04 193.87,-76.85 195.42,-83.67"/>
</a>
</g>
</g>
</g>
</svg>

<g id="navigator" transform="translate(0 0)" fill="#404254">
  <rect fill="#f2f5e9" fill-opacity="0.5" stroke="#606060" stroke-width=".5" x="0" y="0" width="60" height="60"/>
  <use id="zoomplus" xlink:href="#zoomPlus" x="17" y="9" onmousedown="handleZoom(evt,'in')"/>
  <use id="zoomminus" xlink:href="#zoomMin" x="42" y="9" onmousedown="handleZoom(evt,'out')"/>
  <use id="reset" xlink:href="#resetDef" x="30" y="36" onmousedown="handleReset()"/>
   <use id="arrowup" xlink:href="#arrowUp" x="0" y="0" onmousedown="handlePan(0,-1)"/>
  <use id="arrowright" xlink:href="#arrowRight" x="0" y="0" onmousedown="handlePan(1,0)"/>
  <use id="arrowdown" xlink:href="#arrowDown" x="0" y="0" onmousedown="handlePan(0,1)"/>
  <use id="arrowleft" xlink:href="#arrowLeft" x="0" y="0" onmousedown="handlePan(-1,0)"/>
</g>
<svg viewBox="0 0 15 15" width="100%" height="30px" preserveAspectRatio="xMaxYMin meet">
 <g id="arrow_out" transform="scale(0.3 0.3)">
  <a xlink:href="structlamina_1_1Interval_ab8d0ef3adfd59eaf374ec9058cacd5b6_icgraph_org.svg" target="_base">
   <rect id="button" ry="5" rx="5" y="6" x="6" height="38" width="38"
        fill="#f2f5e9" fill-opacity="0.5" stroke="#606060" stroke-width="1.0"/>
   <path id="arrow"
     d="M 11.500037,31.436501 C 11.940474,20.09759 22.043105,11.32322 32.158766,21.979434 L 37.068811,17.246167 C 37.068811,17.246167 37.088388,32 37.088388,32 L 22.160133,31.978069 C 22.160133,31.978069 26.997745,27.140456 26.997745,27.140456 C 18.528582,18.264221 13.291696,25.230495 11.500037,31.436501 z"
     style="fill:#404040;"/>
  </a>
 </g>
</svg>

<style type='text/css'>
<![CDATA[
[data-mouse-over-selected='false'] { opacity: 0.7; }
[data-mouse-over-selected='true']  { opacity: 1.0; }
]]>
</style>
<script type="application/ecmascript"><![CDATA[
document.addEventListener('DOMContentLoaded', (event) => {
  highlightEdges();
  highlightAdjacentNodes();
});
]]></script>
</svg>
