<?xml version="1.0" encoding="UTF-8" standalone="no"?>
<!DOCTYPE svg PUBLIC "-//W3C//DTD SVG 1.1//EN"
 "http://www.w3.org/Graphics/SVG/1.1/DTD/svg11.dtd">
<!-- Generated by graphviz version 2.43.0 (0)
 -->
<!-- Title: include/newton_raphson.hpp Pages: 1 -->
<svg width="410pt" height="82pt"
 viewBox="0.00 0.00 410.00 82.00" xmlns="http://www.w3.org/2000/svg" xmlns:xlink="http://www.w3.org/1999/xlink">
<g id="graph0" class="graph" transform="scale(1 1) rotate(0) translate(4 78)">
<title>include/newton_raphson.hpp</title>
<!-- Node1 -->
<g id="Node000001" class="node">
<title>Node1</title>
<g id="a_Node000001"><a xlink:title="数值求根：Newton&#45;Raphson 迭代、二分法、Sturm 实根隔离。">
<polygon fill="#999999" stroke="#666666" points="288,-74 132,-74 132,-55 288,-55 288,-74"/>
<text text-anchor="middle" x="210" y="-62" font-family="Helvetica,sans-Serif" font-size="10.00">include/newton_raphson.hpp</text>
</a>
</g>
</g>
<!-- Node2 -->
<g id="Node000002" class="node">
<title>Node2</title>
<g id="a_Node000002"><a xlink:href="../../dd/d65/newton__raphson_8cpp.html" target="_top" xlink:title=" ">
<polygon fill="white" stroke="#666666" points="134,-19 0,-19 0,0 134,0 134,-19"/>
<text text-anchor="middle" x="67" y="-7" font-family="Helvetica,sans-Serif" font-size="10.00">src/newton_raphson.cpp</text>
</a>
</g>
</g>
<!-- Node1&#45;&gt;Node2 -->
<g id="edge1_Node000001_Node000002" class="edge">
<title>Node1&#45;&gt;Node2</title>
<g id="a_edge1_Node000001_Node000002"><a xlink:title=" ">
<path fill="none" stroke="#63b8ff" d="M177.41,-51.42C150.88,-41.59 114.07,-27.95 90.39,-19.17"/>
<polygon fill="#63b8ff" stroke="#63b8ff" points="176.43,-54.79 187.02,-54.98 178.86,-48.23 176.43,-54.79"/>
</a>
</g>
</g>
<!-- Node3 -->
<g id="Node000003" class="node">
<title>Node3</title>
<g id="a_Node000003"><a xlink:href="../../d9/d5a/root__of__utils_8cpp.html" target="_top" xlink:title=" ">
<polygon fill="white" stroke="#666666" points="267.5,-19 152.5,-19 152.5,0 267.5,0 267.5,-19"/>
<text text-anchor="middle" x="210" y="-7" font-family="Helvetica,sans-Serif" font-size="10.00">src/root_of_utils.cpp</text>
</a>
</g>
</g>
<!-- Node1&#45;&gt;Node3 -->
<g id="edge2_Node000001_Node000003" class="edge">
<title>Node1&#45;&gt;Node3</title>
<g id="a_edge2_Node000001_Node000003"><a xlink:title=" ">
<path fill="none" stroke="#63b8ff" d="M210,-44.66C210,-35.93 210,-25.99 210,-19.09"/>
<polygon fill="#63b8ff" stroke="#63b8ff" points="206.5,-44.75 210,-54.75 213.5,-44.75 206.5,-44.75"/>
</a>
</g>
</g>
<!-- Node4 -->
<g id="Node000004" class="node">
<title>Node4</title>
<g id="a_Node000004"><a xlink:href="../../d2/dab/solve__visitor_8cpp.html" target="_top" xlink:title=" ">
<polygon fill="white" stroke="#666666" points="402,-19 286,-19 286,0 402,0 402,-19"/>
<text text-anchor="middle" x="344" y="-7" font-family="Helvetica,sans-Serif" font-size="10.00">src/solve_visitor.cpp</text>
</a>
</g>
</g>
<!-- Node1&#45;&gt;Node4 -->
<g id="edge3_Node000001_Node000004" class="edge">
<title>Node1&#45;&gt;Node4</title>
<g id="a_edge3_Node000001_Node000004"><a xlink:title=" ">
<path fill="none" stroke="#63b8ff" d="M240.87,-51.29C265.7,-41.47 299.99,-27.91 322.08,-19.17"/>
<polygon fill="#63b8ff" stroke="#63b8ff" points="239.54,-48.05 231.53,-54.98 242.12,-54.56 239.54,-48.05"/>
</a>
</g>
</g>
</g>
</svg>
