<?xml version="1.0" encoding="UTF-8" standalone="no"?>
<!DOCTYPE svg PUBLIC "-//W3C//DTD SVG 1.1//EN"
 "http://www.w3.org/Graphics/SVG/1.1/DTD/svg11.dtd">
<!-- Generated by graphviz version 2.43.0 (0)
 -->
<!-- Title: lamina::MonomialOrder Pages: 1 -->
<svg width="185pt" height="442pt"
 viewBox="0.00 0.00 185.00 442.00" xmlns="http://www.w3.org/2000/svg" xmlns:xlink="http://www.w3.org/1999/xlink">
<g id="graph0" class="graph" transform="scale(1 1) rotate(0) translate(4 438)">
<title>lamina::MonomialOrder</title>
<!-- Node1 -->
<g id="Node000001" class="node">
<title>Node1</title>
<g id="a_Node000001"><a xlink:title="单项式序比较器，支持 Lex、GrevLex、DegLex、DegRevLex">
<polygon fill="#999999" stroke="transparent" points="177,-338 0,-338 0,0 177,0 177,-338"/>
<text text-anchor="start" x="31" y="-326" font-family="Helvetica,sans-Serif" font-size="10.00">lamina::MonomialOrder</text>
<text text-anchor="start" x="87" y="-311" font-family="Helvetica,sans-Serif" font-size="10.00"> </text>
<text text-anchor="start" x="4.5" y="-296" font-family="Helvetica,sans-Serif" font-size="10.00">+</text>
<text text-anchor="start" x="17.5" y="-296" font-family="Helvetica,sans-Serif" font-size="10.00">MonomialOrder(MonomialOrder</text>
<text text-anchor="start" x="17.5" y="-285" font-family="Helvetica,sans-Serif" font-size="10.00">Type type)</text>
<text text-anchor="start" x="4.5" y="-270" font-family="Helvetica,sans-Serif" font-size="10.00">+</text>
<text text-anchor="start" x="17.5" y="-270" font-family="Helvetica,sans-Serif" font-size="10.00">bool operator()(const</text>
<text text-anchor="start" x="17.5" y="-259" font-family="Helvetica,sans-Serif" font-size="10.00"> Monomial &amp;a, const Monomial</text>
<text text-anchor="start" x="17.5" y="-248" font-family="Helvetica,sans-Serif" font-size="10.00"> &amp;b) const</text>
<text text-anchor="start" x="4.5" y="-233" font-family="Helvetica,sans-Serif" font-size="10.00">+</text>
<text text-anchor="start" x="17.5" y="-233" font-family="Helvetica,sans-Serif" font-size="10.00">MonomialOrderType type</text>
<text text-anchor="start" x="17.5" y="-222" font-family="Helvetica,sans-Serif" font-size="10.00">() const</text>
<text text-anchor="start" x="4.5" y="-207" font-family="Helvetica,sans-Serif" font-size="10.00">+</text>
<text text-anchor="start" x="17.5" y="-207" font-family="Helvetica,sans-Serif" font-size="10.00">static MonomialOrder</text>
<text text-anchor="start" x="17.5" y="-196" font-family="Helvetica,sans-Serif" font-size="10.00"> deglex()</text>
<text text-anchor="start" x="4.5" y="-181" font-family="Helvetica,sans-Serif" font-size="10.00">+</text>
<text text-anchor="start" x="17.5" y="-181" font-family="Helvetica,sans-Serif" font-size="10.00">static MonomialOrder</text>
<text text-anchor="start" x="17.5" y="-170" font-family="Helvetica,sans-Serif" font-size="10.00"> degrevlex()</text>
<text text-anchor="start" x="4.5" y="-155" font-family="Helvetica,sans-Serif" font-size="10.00">+</text>
<text text-anchor="start" x="17.5" y="-155" font-family="Helvetica,sans-Serif" font-size="10.00">static MonomialOrder</text>
<text text-anchor="start" x="17.5" y="-144" font-family="Helvetica,sans-Serif" font-size="10.00"> grevlex()</text>
<text text-anchor="start" x="4.5" y="-129" font-family="Helvetica,sans-Serif" font-size="10.00">+</text>
<text text-anchor="start" x="17.5" y="-129" font-family="Helvetica,sans-Serif" font-size="10.00">static MonomialOrder</text>
<text text-anchor="start" x="17.5" y="-118" font-family="Helvetica,sans-Serif" font-size="10.00"> lex()</text>
<text text-anchor="start" x="7" y="-103" font-family="Helvetica,sans-Serif" font-size="10.00">&#45;</text>
<text text-anchor="start" x="17.5" y="-103" font-family="Helvetica,sans-Serif" font-size="10.00">static bool compare</text>
<text text-anchor="start" x="17.5" y="-92" font-family="Helvetica,sans-Serif" font-size="10.00">_deglex(const Monomial</text>
<text text-anchor="start" x="17.5" y="-81" font-family="Helvetica,sans-Serif" font-size="10.00"> &amp;a, const Monomial &amp;b)</text>
<text text-anchor="start" x="7" y="-66" font-family="Helvetica,sans-Serif" font-size="10.00">&#45;</text>
<text text-anchor="start" x="17.5" y="-66" font-family="Helvetica,sans-Serif" font-size="10.00">static bool compare</text>
<text text-anchor="start" x="17.5" y="-55" font-family="Helvetica,sans-Serif" font-size="10.00">_grevlex(const Monomial</text>
<text text-anchor="start" x="17.5" y="-44" font-family="Helvetica,sans-Serif" font-size="10.00"> &amp;a, const Monomial &amp;b)</text>
<text text-anchor="start" x="7" y="-29" font-family="Helvetica,sans-Serif" font-size="10.00">&#45;</text>
<text text-anchor="start" x="17.5" y="-29" font-family="Helvetica,sans-Serif" font-size="10.00">static bool compare</text>
<text text-anchor="start" x="17.5" y="-18" font-family="Helvetica,sans-Serif" font-size="10.00">_lex(const Monomial</text>
<text text-anchor="start" x="17.5" y="-7" font-family="Helvetica,sans-Serif" font-size="10.00"> &amp;a, const Monomial &amp;b)</text>
<polygon fill="#666666" stroke="#666666" points="0.5,-321 0.5,-321 177.5,-321 177.5,-321 0.5,-321"/>
<polygon fill="#666666" stroke="#666666" points="0.5,-306 0.5,-306 177.5,-306 177.5,-306 0.5,-306"/>
<polygon fill="none" stroke="#666666" points="0,0 0,-338 177,-338 177,0 0,0"/>
</a>
</g>
</g>
<!-- Node2 -->
<g id="Node000002" class="node">
<title>Node2</title>
<g id="a_Node000002"><a xlink:title=" ">
<polygon fill="white" stroke="transparent" points="143,-434 34,-434 34,-385 143,-385 143,-434"/>
<text text-anchor="start" x="39.5" y="-421.5" font-family="Helvetica,sans-Serif" font-size="10.00">MonomialOrderType</text>
<text text-anchor="start" x="87" y="-406.5" font-family="Helvetica,sans-Serif" font-size="10.00"> </text>
<text text-anchor="start" x="87" y="-391.5" font-family="Helvetica,sans-Serif" font-size="10.00"> </text>
<polygon fill="#666666" stroke="#666666" points="34.5,-416.5 34.5,-416.5 143.5,-416.5 143.5,-416.5 34.5,-416.5"/>
<polygon fill="#666666" stroke="#666666" points="34.5,-401.5 34.5,-401.5 143.5,-401.5 143.5,-401.5 34.5,-401.5"/>
<polygon fill="none" stroke="#666666" points="34,-385 34,-434 143,-434 143,-385 34,-385"/>
</a>
</g>
</g>
<!-- Node2&#45;&gt;Node1 -->
<g id="edge1_Node000001_Node000002" class="edge">
<title>Node2&#45;&gt;Node1</title>
<g id="a_edge1_Node000001_Node000002"><a xlink:title=" ">
<path fill="none" stroke="#63b8ff" d="M88.5,-384.76C88.5,-375.33 88.5,-363.61 88.5,-350.53"/>
<polygon fill="none" stroke="#63b8ff" points="88.5,-350.17 84.5,-344.17 88.5,-338.17 92.5,-344.17 88.5,-350.17"/>
</a>
</g>
<text text-anchor="middle" x="105.5" y="-359" font-family="Helvetica,sans-Serif" font-size="10.00" fill="grey"> &#45;type_</text>
</g>
</g>
</svg>
