<?xml version="1.0" encoding="UTF-8" standalone="no"?>
<!DOCTYPE svg PUBLIC "-//W3C//DTD SVG 1.1//EN"
 "http://www.w3.org/Graphics/SVG/1.1/DTD/svg11.dtd">
<!-- Generated by graphviz version 2.43.0 (0)
 -->
<!-- Title: src/lammp/NumTh/pow_1.c Pages: 1 -->
<svg width="431pt" height="269pt"
 viewBox="0.00 0.00 431.00 269.00" xmlns="http://www.w3.org/2000/svg" xmlns:xlink="http://www.w3.org/1999/xlink">

<svg id="main" version="1.1" xmlns="http://www.w3.org/2000/svg" xmlns:xlink="http://www.w3.org/1999/xlink" xml:space="preserve" onload="init(evt)">
<style type="text/css"><![CDATA[
.node, .edge {opacity: 0.7;}
.node.selected, .edge.selected {opacity: 1;}
.edge:hover path { stroke: red; }
.edge:hover polygon { stroke: red; fill: red; }
]]></style>
<script type="application/ecmascript" xlink:href="../../svg.min.js"/>
<svg id="graph" class="graph">
<g id="graph0" class="graph" transform="scale(1 1) rotate(0) translate(4 265)">
<title>src/lammp/NumTh/pow_1.c</title>
<!-- Node1 -->
<g id="Node000001" class="node">
<title>Node1</title>
<g id="a_Node000001"><a xlink:title=" ">
<polygon fill="#999999" stroke="#666666" points="300.5,-261 151.5,-261 151.5,-242 300.5,-242 300.5,-261"/>
<text text-anchor="middle" x="226" y="-249" font-family="Helvetica,sans-Serif" font-size="10.00">src/lammp/NumTh/pow_1.c</text>
</a>
</g>
</g>
<!-- Node2 -->
<g id="Node000002" class="node">
<title>Node2</title>
<g id="a_Node000002"><a xlink:href="../../d1/de6/inlines_8h.html" target="_top" xlink:title=" ">
<polygon fill="white" stroke="#666666" points="284,-206 168,-206 168,-176 284,-176 284,-206"/>
<text text-anchor="start" x="176" y="-194" font-family="Helvetica,sans-Serif" font-size="10.00">../../../include/lammp</text>
<text text-anchor="middle" x="226" y="-183" font-family="Helvetica,sans-Serif" font-size="10.00">/impl/inlines.h</text>
</a>
</g>
</g>
<!-- Node1&#45;&gt;Node2 -->
<g id="edge1_Node000001_Node000002" class="edge">
<title>Node1&#45;&gt;Node2</title>
<g id="a_edge1_Node000001_Node000002"><a xlink:title=" ">
<path fill="none" stroke="#63b8ff" d="M226,-241.87C226,-235.11 226,-225.35 226,-216.26"/>
<polygon fill="#63b8ff" stroke="#63b8ff" points="229.5,-216.11 226,-206.11 222.5,-216.11 229.5,-216.11"/>
</a>
</g>
</g>
<!-- Node3 -->
<g id="Node000003" class="node">
<title>Node3</title>
<g id="a_Node000003"><a xlink:href="../../d6/d39/lmmpn_8h.html" target="_top" xlink:title=" ">
<polygon fill="white" stroke="#666666" points="203.5,-134.5 134.5,-134.5 134.5,-115.5 203.5,-115.5 203.5,-134.5"/>
<text text-anchor="middle" x="169" y="-122.5" font-family="Helvetica,sans-Serif" font-size="10.00">../lmmpn.h</text>
</a>
</g>
</g>
<!-- Node1&#45;&gt;Node3 -->
<g id="edge15_Node000001_Node000003" class="edge">
<title>Node1&#45;&gt;Node3</title>
<g id="a_edge15_Node000001_Node000003"><a xlink:title=" ">
<path fill="none" stroke="#63b8ff" d="M202.89,-241.98C187.41,-234.92 168.24,-223.23 159,-206 148.59,-186.59 154.76,-160.82 161.05,-143.84"/>
<polygon fill="#63b8ff" stroke="#63b8ff" points="164.31,-145.12 164.84,-134.54 157.83,-142.48 164.31,-145.12"/>
</a>
</g>
</g>
<!-- Node11 -->
<g id="Node000011" class="node">
<title>Node11</title>
<g id="a_Node000011"><a xlink:href="../../d8/dd0/mparam_8h.html" target="_top" xlink:title=" ">
<polygon fill="white" stroke="#666666" points="288.5,-134.5 221.5,-134.5 221.5,-115.5 288.5,-115.5 288.5,-134.5"/>
<text text-anchor="middle" x="255" y="-122.5" font-family="Helvetica,sans-Serif" font-size="10.00">mparam.h</text>
</a>
</g>
</g>
<!-- Node1&#45;&gt;Node11 -->
<g id="edge11_Node000001_Node000011" class="edge">
<title>Node1&#45;&gt;Node11</title>
<g id="a_edge11_Node000001_Node000011"><a xlink:title=" ">
<path fill="none" stroke="#63b8ff" d="M249.11,-241.98C264.59,-234.92 283.76,-223.23 293,-206 304.63,-184.31 286.86,-158.46 271.9,-142.14"/>
<polygon fill="#63b8ff" stroke="#63b8ff" points="273.99,-139.27 264.51,-134.54 268.98,-144.15 273.99,-139.27"/>
</a>
</g>
</g>
<!-- Node12 -->
<g id="Node000012" class="node">
<title>Node12</title>
<g id="a_Node000012"><a xlink:href="../../d8/daa/tmp__alloc_8h.html" target="_top" xlink:title=" ">
<polygon fill="white" stroke="#666666" points="423,-140 307,-140 307,-110 423,-110 423,-140"/>
<text text-anchor="start" x="315" y="-128" font-family="Helvetica,sans-Serif" font-size="10.00">../../../include/lammp</text>
<text text-anchor="middle" x="365" y="-117" font-family="Helvetica,sans-Serif" font-size="10.00">/impl/tmp_alloc.h</text>
</a>
</g>
</g>
<!-- Node1&#45;&gt;Node12 -->
<g id="edge12_Node000001_Node000012" class="edge">
<title>Node1&#45;&gt;Node12</title>
<g id="a_edge12_Node000001_Node000012"><a xlink:title=" ">
<path fill="none" stroke="#63b8ff" d="M247.88,-241.91C265.45,-234.28 290.05,-221.89 308,-206 326.43,-189.69 342.19,-166.36 352.44,-149.09"/>
<polygon fill="#63b8ff" stroke="#63b8ff" points="355.59,-150.62 357.54,-140.21 349.52,-147.13 355.59,-150.62"/>
</a>
</g>
</g>
<!-- Node13 -->
<g id="Node000013" class="node">
<title>Node13</title>
<g id="a_Node000013"><a xlink:href="../../de/da4/numth_8h.html" target="_top" xlink:title=" ">
<polygon fill="white" stroke="#666666" points="116,-140 0,-140 0,-110 116,-110 116,-140"/>
<text text-anchor="start" x="8" y="-128" font-family="Helvetica,sans-Serif" font-size="10.00">../../../include/lammp</text>
<text text-anchor="middle" x="58" y="-117" font-family="Helvetica,sans-Serif" font-size="10.00">/numth.h</text>
</a>
</g>
</g>
<!-- Node1&#45;&gt;Node13 -->
<g id="edge16_Node000001_Node000013" class="edge">
<title>Node1&#45;&gt;Node13</title>
<g id="a_edge16_Node000001_Node000013"><a xlink:title=" ">
<path fill="none" stroke="#63b8ff" d="M208.89,-241.86C192.88,-233.5 168.57,-220.05 149,-206 123.96,-188.02 97.76,-164.41 79.94,-147.51"/>
<polygon fill="#63b8ff" stroke="#63b8ff" points="82.02,-144.65 72.38,-140.26 77.18,-149.7 82.02,-144.65"/>
</a>
</g>
</g>
<!-- Node2&#45;&gt;Node3 -->
<g id="edge2_Node000002_Node000003" class="edge">
<title>Node2&#45;&gt;Node3</title>
<g id="a_edge2_Node000002_Node000003"><a xlink:title=" ">
<path fill="none" stroke="#63b8ff" d="M213.35,-175.8C204.55,-165.92 192.8,-152.72 183.6,-142.39"/>
<polygon fill="#63b8ff" stroke="#63b8ff" points="186.14,-139.98 176.88,-134.84 180.91,-144.64 186.14,-139.98"/>
</a>
</g>
</g>
<!-- Node2&#45;&gt;Node11 -->
<g id="edge10_Node000002_Node000011" class="edge">
<title>Node2&#45;&gt;Node11</title>
<g id="a_edge10_Node000002_Node000011"><a xlink:title=" ">
<path fill="none" stroke="#63b8ff" d="M232.44,-175.8C236.65,-166.5 242.19,-154.27 246.73,-144.26"/>
<polygon fill="#63b8ff" stroke="#63b8ff" points="250.05,-145.4 250.99,-134.84 243.68,-142.51 250.05,-145.4"/>
</a>
</g>
</g>
<!-- Node4 -->
<g id="Node000004" class="node">
<title>Node4</title>
<g id="a_Node000004"><a xlink:title=" ">
<polygon fill="#e0e0e0" stroke="#999999" points="144,-74 82,-74 82,-55 144,-55 144,-74"/>
<text text-anchor="middle" x="113" y="-62" font-family="Helvetica,sans-Serif" font-size="10.00">stdbool.h</text>
</a>
</g>
</g>
<!-- Node3&#45;&gt;Node4 -->
<g id="edge3_Node000003_Node000004" class="edge">
<title>Node3&#45;&gt;Node4</title>
<g id="a_edge3_Node000003_Node000004"><a xlink:title=" ">
<path fill="none" stroke="#63b8ff" d="M160.74,-115.37C152.22,-106.47 138.74,-92.39 128.27,-81.45"/>
<polygon fill="#63b8ff" stroke="#63b8ff" points="130.74,-78.97 121.3,-74.17 125.68,-83.81 130.74,-78.97"/>
</a>
</g>
</g>
<!-- Node5 -->
<g id="Node000005" class="node">
<title>Node5</title>
<g id="a_Node000005"><a xlink:title=" ">
<polygon fill="#e0e0e0" stroke="#999999" points="337,-74 287,-74 287,-55 337,-55 337,-74"/>
<text text-anchor="middle" x="312" y="-62" font-family="Helvetica,sans-Serif" font-size="10.00">stdio.h</text>
</a>
</g>
</g>
<!-- Node3&#45;&gt;Node5 -->
<g id="edge4_Node000003_Node000005" class="edge">
<title>Node3&#45;&gt;Node5</title>
<g id="a_edge4_Node000003_Node000005"><a xlink:title=" ">
<path fill="none" stroke="#63b8ff" d="M189.79,-115.49C213.94,-105.62 253.98,-89.23 281.62,-77.93"/>
<polygon fill="#63b8ff" stroke="#63b8ff" points="283.25,-81.04 291.18,-74.02 280.6,-74.56 283.25,-81.04"/>
</a>
</g>
</g>
<!-- Node6 -->
<g id="Node000006" class="node">
<title>Node6</title>
<g id="a_Node000006"><a xlink:href="../../dd/d90/lmmp_8h.html" target="_top" xlink:title=" ">
<polygon fill="white" stroke="#666666" points="216,-74 162,-74 162,-55 216,-55 216,-74"/>
<text text-anchor="middle" x="189" y="-62" font-family="Helvetica,sans-Serif" font-size="10.00">lmmp.h</text>
</a>
</g>
</g>
<!-- Node3&#45;&gt;Node6 -->
<g id="edge5_Node000003_Node000006" class="edge">
<title>Node3&#45;&gt;Node6</title>
<g id="a_edge5_Node000003_Node000006"><a xlink:title=" ">
<path fill="none" stroke="#63b8ff" d="M171.95,-115.37C174.79,-107.07 179.16,-94.28 182.77,-83.72"/>
<polygon fill="#63b8ff" stroke="#63b8ff" points="186.11,-84.76 186.04,-74.17 179.49,-82.5 186.11,-84.76"/>
</a>
</g>
</g>
<!-- Node7 -->
<g id="Node000007" class="node">
<title>Node7</title>
<g id="a_Node000007"><a xlink:title=" ">
<polygon fill="#e0e0e0" stroke="#999999" points="108,-19 52,-19 52,0 108,0 108,-19"/>
<text text-anchor="middle" x="80" y="-7" font-family="Helvetica,sans-Serif" font-size="10.00">stddef.h</text>
</a>
</g>
</g>
<!-- Node6&#45;&gt;Node7 -->
<g id="edge6_Node000006_Node000007" class="edge">
<title>Node6&#45;&gt;Node7</title>
<g id="a_edge6_Node000006_Node000007"><a xlink:title=" ">
<path fill="none" stroke="#63b8ff" d="M171.49,-54.98C154.03,-46.5 126.99,-33.35 106.83,-23.54"/>
<polygon fill="#63b8ff" stroke="#63b8ff" points="108.36,-20.4 97.83,-19.17 105.29,-26.69 108.36,-20.4"/>
</a>
</g>
</g>
<!-- Node8 -->
<g id="Node000008" class="node">
<title>Node8</title>
<g id="a_Node000008"><a xlink:title=" ">
<polygon fill="#e0e0e0" stroke="#999999" points="179.5,-19 126.5,-19 126.5,0 179.5,0 179.5,-19"/>
<text text-anchor="middle" x="153" y="-7" font-family="Helvetica,sans-Serif" font-size="10.00">stdint.h</text>
</a>
</g>
</g>
<!-- Node6&#45;&gt;Node8 -->
<g id="edge7_Node000006_Node000008" class="edge">
<title>Node6&#45;&gt;Node8</title>
<g id="a_edge7_Node000006_Node000008"><a xlink:title=" ">
<path fill="none" stroke="#63b8ff" d="M183.06,-54.75C178.02,-47.34 170.66,-36.5 164.49,-27.41"/>
<polygon fill="#63b8ff" stroke="#63b8ff" points="167.35,-25.39 158.83,-19.09 161.56,-29.33 167.35,-25.39"/>
</a>
</g>
</g>
<!-- Node9 -->
<g id="Node000009" class="node">
<title>Node9</title>
<g id="a_Node000009"><a xlink:title=" ">
<polygon fill="#e0e0e0" stroke="#999999" points="250.5,-19 197.5,-19 197.5,0 250.5,0 250.5,-19"/>
<text text-anchor="middle" x="224" y="-7" font-family="Helvetica,sans-Serif" font-size="10.00">stdlib.h</text>
</a>
</g>
</g>
<!-- Node6&#45;&gt;Node9 -->
<g id="edge8_Node000006_Node000009" class="edge">
<title>Node6&#45;&gt;Node9</title>
<g id="a_edge8_Node000006_Node000009"><a xlink:title=" ">
<path fill="none" stroke="#63b8ff" d="M194.78,-54.75C199.62,-47.42 206.68,-36.73 212.64,-27.7"/>
<polygon fill="#63b8ff" stroke="#63b8ff" points="215.74,-29.36 218.33,-19.09 209.9,-25.5 215.74,-29.36"/>
</a>
</g>
</g>
<!-- Node10 -->
<g id="Node000010" class="node">
<title>Node10</title>
<g id="a_Node000010"><a xlink:title=" ">
<polygon fill="#e0e0e0" stroke="#999999" points="321.5,-19 268.5,-19 268.5,0 321.5,0 321.5,-19"/>
<text text-anchor="middle" x="295" y="-7" font-family="Helvetica,sans-Serif" font-size="10.00">string.h</text>
</a>
</g>
</g>
<!-- Node6&#45;&gt;Node10 -->
<g id="edge9_Node000006_Node000010" class="edge">
<title>Node6&#45;&gt;Node10</title>
<g id="a_edge9_Node000006_Node000010"><a xlink:title=" ">
<path fill="none" stroke="#63b8ff" d="M206.03,-54.98C222.93,-46.54 249.06,-33.47 268.64,-23.68"/>
<polygon fill="#63b8ff" stroke="#63b8ff" points="270.28,-26.77 277.66,-19.17 267.15,-20.51 270.28,-26.77"/>
</a>
</g>
</g>
<!-- Node12&#45;&gt;Node5 -->
<g id="edge14_Node000012_Node000005" class="edge">
<title>Node12&#45;&gt;Node5</title>
<g id="a_edge14_Node000012_Node000005"><a xlink:title=" ">
<path fill="none" stroke="#63b8ff" d="M352.17,-109.84C344.48,-101.35 334.67,-90.52 326.67,-81.69"/>
<polygon fill="#63b8ff" stroke="#63b8ff" points="329.25,-79.33 319.94,-74.27 324.06,-84.03 329.25,-79.33"/>
</a>
</g>
</g>
<!-- Node12&#45;&gt;Node6 -->
<g id="edge13_Node000012_Node000006" class="edge">
<title>Node12&#45;&gt;Node6</title>
<g id="a_edge13_Node000012_Node000006"><a xlink:title=" ">
<path fill="none" stroke="#63b8ff" d="M322.84,-109.99C292.73,-99.98 252.69,-86.67 224.27,-77.22"/>
<polygon fill="#63b8ff" stroke="#63b8ff" points="225.33,-73.89 214.73,-74.05 223.12,-80.53 225.33,-73.89"/>
</a>
</g>
</g>
<!-- Node13&#45;&gt;Node4 -->
<g id="edge18_Node000013_Node000004" class="edge">
<title>Node13&#45;&gt;Node4</title>
<g id="a_edge18_Node000013_Node000004"><a xlink:title=" ">
<path fill="none" stroke="#63b8ff" d="M71.31,-109.84C79.3,-101.35 89.48,-90.52 97.78,-81.69"/>
<polygon fill="#63b8ff" stroke="#63b8ff" points="100.46,-83.95 104.76,-74.27 95.36,-79.15 100.46,-83.95"/>
</a>
</g>
</g>
<!-- Node13&#45;&gt;Node6 -->
<g id="edge19_Node000013_Node000006" class="edge">
<title>Node13&#45;&gt;Node6</title>
<g id="a_edge19_Node000013_Node000006"><a xlink:title=" ">
<path fill="none" stroke="#63b8ff" d="M89.38,-109.99C110.94,-100.36 139.35,-87.67 160.31,-78.31"/>
<polygon fill="#63b8ff" stroke="#63b8ff" points="161.95,-81.41 169.65,-74.14 159.1,-75.02 161.95,-81.41"/>
</a>
</g>
</g>
<!-- Node14 -->
<g id="Node000014" class="node">
<title>Node14</title>
<g id="a_Node000014"><a xlink:title=" ">
<polygon fill="#e0e0e0" stroke="#999999" points="63.5,-74 12.5,-74 12.5,-55 63.5,-55 63.5,-74"/>
<text text-anchor="middle" x="38" y="-62" font-family="Helvetica,sans-Serif" font-size="10.00">math.h</text>
</a>
</g>
</g>
<!-- Node13&#45;&gt;Node14 -->
<g id="edge17_Node000013_Node000014" class="edge">
<title>Node13&#45;&gt;Node14</title>
<g id="a_edge17_Node000013_Node000014"><a xlink:title=" ">
<path fill="none" stroke="#63b8ff" d="M53.16,-109.84C50.49,-102.04 47.15,-92.27 44.29,-83.89"/>
<polygon fill="#63b8ff" stroke="#63b8ff" points="47.54,-82.6 41,-74.27 40.92,-84.86 47.54,-82.6"/>
</a>
</g>
</g>
</g>
</svg>
</svg>

<style type='text/css'>
<![CDATA[
[data-mouse-over-selected='false'] { opacity: 0.7; }
[data-mouse-over-selected='true']  { opacity: 1.0; }
]]>
</style>
<script type="application/ecmascript"><![CDATA[
document.addEventListener('DOMContentLoaded', (event) => {
  highlightEdges();
  highlightAdjacentNodes();
});
]]></script>
</svg>
