<?xml version="1.0" encoding="UTF-8" standalone="no"?>
<!DOCTYPE svg PUBLIC "-//W3C//DTD SVG 1.1//EN"
 "http://www.w3.org/Graphics/SVG/1.1/DTD/svg11.dtd">
<!-- Generated by graphviz version 2.43.0 (0)
 -->
<!-- Title: lmmp_div_basecase_ Pages: 1 -->
<svg width="269pt" height="175pt"
 viewBox="0.00 0.00 269.00 175.00" xmlns="http://www.w3.org/2000/svg" xmlns:xlink="http://www.w3.org/1999/xlink">
<g id="graph0" class="graph" transform="scale(1 1) rotate(0) translate(4 171)">
<title>lmmp_div_basecase_</title>
<!-- Node1 -->
<g id="Node000001" class="node">
<title>Node1</title>
<g id="a_Node000001"><a xlink:title="基础除法运算">
<polygon fill="#999999" stroke="#666666" points="122,-93 0,-93 0,-74 122,-74 122,-93"/>
<text text-anchor="middle" x="61" y="-81" font-family="Helvetica,sans-Serif" font-size="10.00">lmmp_div_basecase_</text>
</a>
</g>
</g>
<!-- Node2 -->
<g id="Node000002" class="node">
<title>Node2</title>
<g id="a_Node000002"><a xlink:href="../../da/dc7/add__n_8c.html#afa05758121cca6aa6b21256d5a959871" target="_top" xlink:title="无进位的n位加法 [dst,n] = [numa,n] + [numb,n]">
<polygon fill="white" stroke="#666666" points="252,-167 167,-167 167,-148 252,-148 252,-167"/>
<text text-anchor="middle" x="209.5" y="-155" font-family="Helvetica,sans-Serif" font-size="10.00">lmmp_add_n_</text>
</a>
</g>
</g>
<!-- Node1&#45;&gt;Node2 -->
<g id="edge1_Node000001_Node000002" class="edge">
<title>Node1&#45;&gt;Node2</title>
<g id="a_edge1_Node000001_Node000002"><a xlink:title=" ">
<path fill="none" stroke="#63b8ff" d="M76.5,-93.11C94.92,-105.04 127.91,-125.51 158,-139.5 161.6,-141.17 165.4,-142.79 169.24,-144.32"/>
<polygon fill="#63b8ff" stroke="#63b8ff" points="168.16,-147.66 178.76,-147.93 170.65,-141.11 168.16,-147.66"/>
</a>
</g>
</g>
<!-- Node3 -->
<g id="Node000003" class="node">
<title>Node3</title>
<g id="a_Node000003"><a xlink:href="../../d6/d39/lmmpn_8h.html#a27b630fe59d53b8174b5ddb04202e556" target="_top" xlink:title="大数比较函数（内联）">
<polygon fill="white" stroke="#666666" points="248,-130 171,-130 171,-111 248,-111 248,-130"/>
<text text-anchor="middle" x="209.5" y="-118" font-family="Helvetica,sans-Serif" font-size="10.00">lmmp_cmp_</text>
</a>
</g>
</g>
<!-- Node1&#45;&gt;Node3 -->
<g id="edge2_Node000001_Node000003" class="edge">
<title>Node1&#45;&gt;Node3</title>
<g id="a_edge2_Node000001_Node000003"><a xlink:title=" ">
<path fill="none" stroke="#63b8ff" d="M99.73,-93.03C118.44,-97.75 141.23,-103.51 161.11,-108.53"/>
<polygon fill="#63b8ff" stroke="#63b8ff" points="160.35,-111.95 170.9,-111 162.06,-105.16 160.35,-111.95"/>
</a>
</g>
</g>
<!-- Node4 -->
<g id="Node000004" class="node">
<title>Node4</title>
<g id="a_Node000004"><a xlink:href="../../d6/d39/lmmpn_8h.html#a03ae7a0e3266e104198b6c8cd9140d10" target="_top" xlink:title="3/2位除法运算 [numa,2]=[numa,3] mod [numb,2]">
<polygon fill="white" stroke="#666666" points="256,-93 163,-93 163,-74 256,-74 256,-93"/>
<text text-anchor="middle" x="209.5" y="-81" font-family="Helvetica,sans-Serif" font-size="10.00">lmmp_div_3_2_</text>
</a>
</g>
</g>
<!-- Node1&#45;&gt;Node4 -->
<g id="edge3_Node000001_Node000004" class="edge">
<title>Node1&#45;&gt;Node4</title>
<g id="a_edge3_Node000001_Node000004"><a xlink:title=" ">
<path fill="none" stroke="#63b8ff" d="M122.01,-83.5C132.1,-83.5 142.53,-83.5 152.51,-83.5"/>
<polygon fill="#63b8ff" stroke="#63b8ff" points="152.71,-87 162.71,-83.5 152.71,-80 152.71,-87"/>
</a>
</g>
</g>
<!-- Node5 -->
<g id="Node000005" class="node">
<title>Node5</title>
<g id="a_Node000005"><a xlink:href="../../d3/d44/sub__n_8c.html#ae0e05032a43c35021a6d6859ed51f467" target="_top" xlink:title="无借位的n位减法 [dst,n] = [numa,n] &#45; [numb,n]">
<polygon fill="white" stroke="#666666" points="251.5,-56 167.5,-56 167.5,-37 251.5,-37 251.5,-56"/>
<text text-anchor="middle" x="209.5" y="-44" font-family="Helvetica,sans-Serif" font-size="10.00">lmmp_sub_n_</text>
</a>
</g>
</g>
<!-- Node1&#45;&gt;Node5 -->
<g id="edge4_Node000001_Node000005" class="edge">
<title>Node1&#45;&gt;Node5</title>
<g id="a_edge4_Node000001_Node000005"><a xlink:title=" ">
<path fill="none" stroke="#63b8ff" d="M99.73,-73.97C118.37,-69.26 141.05,-63.53 160.88,-58.53"/>
<polygon fill="#63b8ff" stroke="#63b8ff" points="161.81,-61.9 170.65,-56.06 160.09,-55.12 161.81,-61.9"/>
</a>
</g>
</g>
<!-- Node6 -->
<g id="Node000006" class="node">
<title>Node6</title>
<g id="a_Node000006"><a xlink:href="../../d6/d39/lmmpn_8h.html#ae06f06d2ffac6a09cec86306781607ce" target="_top" xlink:title="大数乘以单limb并累减操作 [numa,n] &#45;= [numb,n] * b">
<polygon fill="white" stroke="#666666" points="261,-19 158,-19 158,0 261,0 261,-19"/>
<text text-anchor="middle" x="209.5" y="-7" font-family="Helvetica,sans-Serif" font-size="10.00">lmmp_submul_1_</text>
</a>
</g>
</g>
<!-- Node1&#45;&gt;Node6 -->
<g id="edge5_Node000001_Node000006" class="edge">
<title>Node1&#45;&gt;Node6</title>
<g id="a_edge5_Node000001_Node000006"><a xlink:title=" ">
<path fill="none" stroke="#63b8ff" d="M76.89,-73.96C95.43,-62.33 128.28,-42.49 158,-28.5 162.16,-26.54 166.59,-24.63 171.03,-22.83"/>
<polygon fill="#63b8ff" stroke="#63b8ff" points="172.61,-25.97 180.65,-19.07 170.06,-19.45 172.61,-25.97"/>
</a>
</g>
</g>
</g>
</svg>
