<?xml version="1.0" encoding="UTF-8" standalone="no"?>
<!DOCTYPE svg PUBLIC "-//W3C//DTD SVG 1.1//EN"
 "http://www.w3.org/Graphics/SVG/1.1/DTD/svg11.dtd">
<!-- Generated by graphviz version 2.43.0 (0)
 -->
<!-- Title: include/symbolic_vector_geometry.hpp Pages: 1 -->
<svg width="1304pt" height="313pt"
 viewBox="0.00 0.00 1303.50 313.00" xmlns="http://www.w3.org/2000/svg" xmlns:xlink="http://www.w3.org/1999/xlink">
<g id="graph0" class="graph" transform="scale(1 1) rotate(0) translate(4 309)">
<title>include/symbolic_vector_geometry.hpp</title>
<!-- Node1 -->
<g id="Node000001" class="node">
<title>Node1</title>
<g id="a_Node000001"><a xlink:title="向量几何：点积、叉积、夹角、直线与平面交点、异面直线距离。">
<polygon fill="#999999" stroke="#666666" points="135,-305 0,-305 0,-275 135,-275 135,-305"/>
<text text-anchor="start" x="8" y="-293" font-family="Helvetica,sans-Serif" font-size="10.00">include/symbolic_vector</text>
<text text-anchor="middle" x="67.5" y="-282" font-family="Helvetica,sans-Serif" font-size="10.00">_geometry.hpp</text>
</a>
</g>
</g>
<!-- Node2 -->
<g id="Node000002" class="node">
<title>Node2</title>
<g id="a_Node000002"><a xlink:href="../../d5/df2/symbolic_8hpp.html" target="_top" xlink:title="符号表达式主类 SymbolicExpr 及其工厂方法、运算接口。">
<polygon fill="white" stroke="#666666" points="978.5,-239 896.5,-239 896.5,-220 978.5,-220 978.5,-239"/>
<text text-anchor="middle" x="937.5" y="-227" font-family="Helvetica,sans-Serif" font-size="10.00">symbolic.hpp</text>
</a>
</g>
</g>
<!-- Node1&#45;&gt;Node2 -->
<g id="edge1_Node000001_Node000002" class="edge">
<title>Node1&#45;&gt;Node2</title>
<g id="a_edge1_Node000001_Node000002"><a xlink:title=" ">
<path fill="none" stroke="#63b8ff" d="M135.04,-284.46C302.89,-273.17 736.13,-244.04 885.76,-233.98"/>
<polygon fill="#63b8ff" stroke="#63b8ff" points="886.3,-237.45 896.04,-233.29 885.83,-230.47 886.3,-237.45"/>
</a>
</g>
</g>
<!-- Node8 -->
<g id="Node000008" class="node">
<title>Node8</title>
<g id="a_Node000008"><a xlink:title=" ">
<polygon fill="#e0e0e0" stroke="#999999" points="183,-19 136,-19 136,0 183,0 183,-19"/>
<text text-anchor="middle" x="159.5" y="-7" font-family="Helvetica,sans-Serif" font-size="10.00">vector</text>
</a>
</g>
</g>
<!-- Node1&#45;&gt;Node8 -->
<g id="edge55_Node000001_Node000008" class="edge">
<title>Node1&#45;&gt;Node8</title>
<g id="a_edge55_Node000001_Node000008"><a xlink:title=" ">
<path fill="none" stroke="#63b8ff" d="M54.85,-274.74C38.06,-254.29 10.5,-214.75 10.5,-175.5 10.5,-175.5 10.5,-175.5 10.5,-118.5 10.5,-88.33 12.96,-76.13 34.5,-55 59.14,-30.83 97.77,-19.71 125.56,-14.64"/>
<polygon fill="#63b8ff" stroke="#63b8ff" points="126.33,-18.06 135.63,-12.98 125.2,-11.15 126.33,-18.06"/>
</a>
</g>
</g>
<!-- Node11 -->
<g id="Node000011" class="node">
<title>Node11</title>
<g id="a_Node000011"><a xlink:title=" ">
<polygon fill="#e0e0e0" stroke="#999999" points="245.5,-19 201.5,-19 201.5,0 245.5,0 245.5,-19"/>
<text text-anchor="middle" x="223.5" y="-7" font-family="Helvetica,sans-Serif" font-size="10.00">string</text>
</a>
</g>
</g>
<!-- Node1&#45;&gt;Node11 -->
<g id="edge54_Node000001_Node000011" class="edge">
<title>Node1&#45;&gt;Node11</title>
<g id="a_edge54_Node000001_Node000011"><a xlink:title=" ">
<path fill="none" stroke="#63b8ff" d="M63.56,-274.79C58,-253.43 48.5,-211.66 48.5,-175.5 48.5,-175.5 48.5,-175.5 48.5,-118.5 48.5,-85.2 141.44,-43.08 191.86,-22.68"/>
<polygon fill="#63b8ff" stroke="#63b8ff" points="193.35,-25.85 201.34,-18.89 190.75,-19.35 193.35,-25.85"/>
</a>
</g>
</g>
<!-- Node24 -->
<g id="Node000024" class="node">
<title>Node24</title>
<g id="a_Node000024"><a xlink:title=" ">
<polygon fill="#e0e0e0" stroke="#999999" points="134.5,-129 76.5,-129 76.5,-110 134.5,-110 134.5,-129"/>
<text text-anchor="middle" x="105.5" y="-117" font-family="Helvetica,sans-Serif" font-size="10.00">memory</text>
</a>
</g>
</g>
<!-- Node1&#45;&gt;Node24 -->
<g id="edge53_Node000001_Node000024" class="edge">
<title>Node1&#45;&gt;Node24</title>
<g id="a_edge53_Node000001_Node000024"><a xlink:title=" ">
<path fill="none" stroke="#63b8ff" d="M70.67,-274.92C77.5,-244.65 93.58,-173.35 101.27,-139.27"/>
<polygon fill="#63b8ff" stroke="#63b8ff" points="104.74,-139.78 103.53,-129.25 97.91,-138.24 104.74,-139.78"/>
</a>
</g>
</g>
<!-- Node3 -->
<g id="Node000003" class="node">
<title>Node3</title>
<g id="a_Node000003"><a xlink:href="../../d8/d09/bigint_8hpp.html" target="_top" xlink:title="任意精度整数 BigInt，底层调用 LAMMP 实现高性能大数运算。">
<polygon fill="white" stroke="#666666" points="836,-74 771,-74 771,-55 836,-55 836,-74"/>
<text text-anchor="middle" x="803.5" y="-62" font-family="Helvetica,sans-Serif" font-size="10.00">bigint.hpp</text>
</a>
</g>
</g>
<!-- Node2&#45;&gt;Node3 -->
<g id="edge2_Node000002_Node000003" class="edge">
<title>Node2&#45;&gt;Node3</title>
<g id="a_edge2_Node000002_Node000003"><a xlink:title=" ">
<path fill="none" stroke="#63b8ff" d="M915.7,-219.88C900.02,-212.6 879.6,-200.66 867.5,-184 847.55,-156.52 865.41,-139.45 848.5,-110 842.05,-98.77 832,-88.44 823.03,-80.57"/>
<polygon fill="#63b8ff" stroke="#63b8ff" points="825.15,-77.78 815.23,-74.08 820.67,-83.16 825.15,-77.78"/>
</a>
</g>
</g>
<!-- Node9 -->
<g id="Node000009" class="node">
<title>Node9</title>
<g id="a_Node000009"><a xlink:title=" ">
<polygon fill="#e0e0e0" stroke="#999999" points="1155,-19 1106,-19 1106,0 1155,0 1155,-19"/>
<text text-anchor="middle" x="1130.5" y="-7" font-family="Helvetica,sans-Serif" font-size="10.00">cstdlib</text>
</a>
</g>
</g>
<!-- Node2&#45;&gt;Node9 -->
<g id="edge52_Node000002_Node000009" class="edge">
<title>Node2&#45;&gt;Node9</title>
<g id="a_edge52_Node000002_Node000009"><a xlink:title=" ">
<path fill="none" stroke="#63b8ff" d="M978.65,-225.53C1009.75,-221.15 1051.41,-210.39 1077.5,-184 1120.08,-140.94 1128.6,-64.7 1130.2,-29.4"/>
<polygon fill="#63b8ff" stroke="#63b8ff" points="1133.7,-29.21 1130.52,-19.11 1126.71,-28.99 1133.7,-29.21"/>
</a>
</g>
</g>
<!-- Node2&#45;&gt;Node11 -->
<g id="edge44_Node000002_Node000011" class="edge">
<title>Node2&#45;&gt;Node11</title>
<g id="a_edge44_Node000002_Node000011"><a xlink:title=" ">
<path fill="none" stroke="#63b8ff" d="M896.07,-226.28C770.45,-218.91 396.28,-192.07 294.5,-129 266.92,-111.91 262.97,-101.95 246.5,-74 238.13,-59.79 232.01,-42.03 228.2,-28.91"/>
<polygon fill="#63b8ff" stroke="#63b8ff" points="231.55,-27.89 225.54,-19.16 224.8,-29.73 231.55,-27.89"/>
</a>
</g>
</g>
<!-- Node12 -->
<g id="Node000012" class="node">
<title>Node12</title>
<g id="a_Node000012"><a xlink:title=" ">
<polygon fill="#e0e0e0" stroke="#999999" points="1233.5,-19 1173.5,-19 1173.5,0 1233.5,0 1233.5,-19"/>
<text text-anchor="middle" x="1203.5" y="-7" font-family="Helvetica,sans-Serif" font-size="10.00">iostream</text>
</a>
</g>
</g>
<!-- Node2&#45;&gt;Node12 -->
<g id="edge51_Node000002_Node000012" class="edge">
<title>Node2&#45;&gt;Node12</title>
<g id="a_edge51_Node000002_Node000012"><a xlink:title=" ">
<path fill="none" stroke="#63b8ff" d="M978.5,-225.71C1013.7,-221.47 1064.19,-210.81 1099.5,-184 1153.74,-142.81 1185.49,-64.46 1197.69,-28.89"/>
<polygon fill="#63b8ff" stroke="#63b8ff" points="1201.04,-29.9 1200.85,-19.31 1194.39,-27.71 1201.04,-29.9"/>
</a>
</g>
</g>
<!-- Node13 -->
<g id="Node000013" class="node">
<title>Node13</title>
<g id="a_Node000013"><a xlink:title=" ">
<polygon fill="#e0e0e0" stroke="#999999" points="1087.5,-19 1023.5,-19 1023.5,0 1087.5,0 1087.5,-19"/>
<text text-anchor="middle" x="1055.5" y="-7" font-family="Helvetica,sans-Serif" font-size="10.00">algorithm</text>
</a>
</g>
</g>
<!-- Node2&#45;&gt;Node13 -->
<g id="edge48_Node000002_Node000013" class="edge">
<title>Node2&#45;&gt;Node13</title>
<g id="a_edge48_Node000002_Node000013"><a xlink:title=" ">
<path fill="none" stroke="#63b8ff" d="M978.55,-222.7C1004.26,-217.01 1036.25,-205.83 1056.5,-184 1096.24,-141.18 1075.19,-63.66 1062.65,-28.6"/>
<polygon fill="#63b8ff" stroke="#63b8ff" points="1065.9,-27.29 1059.11,-19.16 1059.35,-29.75 1065.9,-27.29"/>
</a>
</g>
</g>
<!-- Node16 -->
<g id="Node000016" class="node">
<title>Node16</title>
<g id="a_Node000016"><a xlink:title=" ">
<polygon fill="#e0e0e0" stroke="#999999" points="1295.5,-19 1251.5,-19 1251.5,0 1295.5,0 1295.5,-19"/>
<text text-anchor="middle" x="1273.5" y="-7" font-family="Helvetica,sans-Serif" font-size="10.00">limits</text>
</a>
</g>
</g>
<!-- Node2&#45;&gt;Node16 -->
<g id="edge47_Node000002_Node000016" class="edge">
<title>Node2&#45;&gt;Node16</title>
<g id="a_edge47_Node000002_Node000016"><a xlink:title=" ">
<path fill="none" stroke="#63b8ff" d="M978.56,-226.03C1018.41,-222.03 1079.34,-211.53 1124.5,-184 1190.84,-143.56 1242.82,-63.57 1263.63,-28.12"/>
<polygon fill="#63b8ff" stroke="#63b8ff" points="1266.92,-29.42 1268.87,-19.01 1260.85,-25.93 1266.92,-29.42"/>
</a>
</g>
</g>
<!-- Node18 -->
<g id="Node000018" class="node">
<title>Node18</title>
<g id="a_Node000018"><a xlink:href="../../d1/de8/rational_8hpp.html" target="_top" xlink:title="精确有理数 Rational，基于 BigInt 分子/分母表示，自动约分。">
<polygon fill="white" stroke="#666666" points="823,-129 748,-129 748,-110 823,-110 823,-129"/>
<text text-anchor="middle" x="785.5" y="-117" font-family="Helvetica,sans-Serif" font-size="10.00">rational.hpp</text>
</a>
</g>
</g>
<!-- Node2&#45;&gt;Node18 -->
<g id="edge17_Node000002_Node000018" class="edge">
<title>Node2&#45;&gt;Node18</title>
<g id="a_edge17_Node000002_Node000018"><a xlink:title=" ">
<path fill="none" stroke="#63b8ff" d="M907.41,-219.98C885.64,-212.81 856.34,-200.97 834.5,-184 818.06,-171.22 804.11,-151.71 795.35,-137.69"/>
<polygon fill="#63b8ff" stroke="#63b8ff" points="798.29,-135.79 790.15,-129.01 792.29,-139.39 798.29,-135.79"/>
</a>
</g>
</g>
<!-- Node21 -->
<g id="Node000021" class="node">
<title>Node21</title>
<g id="a_Node000021"><a xlink:title=" ">
<polygon fill="#e0e0e0" stroke="#999999" points="930.5,-74 892.5,-74 892.5,-55 930.5,-55 930.5,-74"/>
<text text-anchor="middle" x="911.5" y="-62" font-family="Helvetica,sans-Serif" font-size="10.00">map</text>
</a>
</g>
</g>
<!-- Node2&#45;&gt;Node21 -->
<g id="edge49_Node000002_Node000021" class="edge">
<title>Node2&#45;&gt;Node21</title>
<g id="a_edge49_Node000002_Node000021"><a xlink:title=" ">
<path fill="none" stroke="#63b8ff" d="M971.71,-219.86C992.09,-213.13 1017.1,-201.86 1033.5,-184 1056.54,-158.9 1073.67,-137.46 1053.5,-110 1027.69,-74.87 974.21,-66.72 940.75,-65.24"/>
<polygon fill="#63b8ff" stroke="#63b8ff" points="940.74,-61.74 930.65,-64.97 940.56,-68.74 940.74,-61.74"/>
</a>
</g>
</g>
<!-- Node23 -->
<g id="Node000023" class="node">
<title>Node23</title>
<g id="a_Node000023"><a xlink:href="../../d9/d89/symbolic__ast_8hpp.html" target="_top" xlink:title="AST 节点定义：NumberNode, VariableNode, AddNode, MultiplyNode, PowerNode, FunctionNode,...">
<polygon fill="white" stroke="#666666" points="615.5,-184 513.5,-184 513.5,-165 615.5,-165 615.5,-184"/>
<text text-anchor="middle" x="564.5" y="-172" font-family="Helvetica,sans-Serif" font-size="10.00">symbolic_ast.hpp</text>
</a>
</g>
</g>
<!-- Node2&#45;&gt;Node23 -->
<g id="edge27_Node000002_Node000023" class="edge">
<title>Node2&#45;&gt;Node23</title>
<g id="a_edge27_Node000002_Node000023"><a xlink:title=" ">
<path fill="none" stroke="#63b8ff" d="M896.16,-222.63C830.44,-213.29 701.81,-195.01 625.49,-184.17"/>
<polygon fill="#63b8ff" stroke="#63b8ff" points="625.93,-180.69 615.54,-182.75 624.95,-187.62 625.93,-180.69"/>
</a>
</g>
</g>
<!-- Node2&#45;&gt;Node24 -->
<g id="edge43_Node000002_Node000024" class="edge">
<title>Node2&#45;&gt;Node24</title>
<g id="a_edge43_Node000002_Node000024"><a xlink:title=" ">
<path fill="none" stroke="#63b8ff" d="M896.39,-228.3C743.59,-227.26 213.76,-221.02 148.5,-184 131,-174.07 119.18,-153.74 112.43,-138.74"/>
<polygon fill="#63b8ff" stroke="#63b8ff" points="115.62,-137.3 108.56,-129.41 109.15,-139.98 115.62,-137.3"/>
</a>
</g>
</g>
<!-- Node25 -->
<g id="Node000025" class="node">
<title>Node25</title>
<g id="a_Node000025"><a xlink:title=" ">
<polygon fill="#e0e0e0" stroke="#999999" points="1045,-129 994,-129 994,-110 1045,-110 1045,-129"/>
<text text-anchor="middle" x="1019.5" y="-117" font-family="Helvetica,sans-Serif" font-size="10.00">variant</text>
</a>
</g>
</g>
<!-- Node2&#45;&gt;Node25 -->
<g id="edge45_Node000002_Node000025" class="edge">
<title>Node2&#45;&gt;Node25</title>
<g id="a_edge45_Node000002_Node000025"><a xlink:title=" ">
<path fill="none" stroke="#63b8ff" d="M966.23,-219.89C983.59,-213.09 1004.44,-201.73 1015.5,-184 1023.81,-170.67 1024.12,-152.56 1022.76,-139.09"/>
<polygon fill="#63b8ff" stroke="#63b8ff" points="1026.21,-138.49 1021.36,-129.07 1019.28,-139.46 1026.21,-138.49"/>
</a>
</g>
</g>
<!-- Node30 -->
<g id="Node000030" class="node">
<title>Node30</title>
<g id="a_Node000030"><a xlink:title=" ">
<polygon fill="#e0e0e0" stroke="#999999" points="924,-184 877,-184 877,-165 924,-165 924,-184"/>
<text text-anchor="middle" x="900.5" y="-172" font-family="Helvetica,sans-Serif" font-size="10.00">cmath</text>
</a>
</g>
</g>
<!-- Node2&#45;&gt;Node30 -->
<g id="edge46_Node000002_Node000030" class="edge">
<title>Node2&#45;&gt;Node30</title>
<g id="a_edge46_Node000002_Node000030"><a xlink:title=" ">
<path fill="none" stroke="#63b8ff" d="M931.39,-219.75C926.22,-212.34 918.65,-201.5 912.31,-192.41"/>
<polygon fill="#63b8ff" stroke="#63b8ff" points="915.09,-190.29 906.5,-184.09 909.35,-194.29 915.09,-190.29"/>
</a>
</g>
</g>
<!-- Node31 -->
<g id="Node000031" class="node">
<title>Node31</title>
<g id="a_Node000031"><a xlink:title=" ">
<polygon fill="#e0e0e0" stroke="#999999" points="1007,-184 942,-184 942,-165 1007,-165 1007,-184"/>
<text text-anchor="middle" x="974.5" y="-172" font-family="Helvetica,sans-Serif" font-size="10.00">functional</text>
</a>
</g>
</g>
<!-- Node2&#45;&gt;Node31 -->
<g id="edge50_Node000002_Node000031" class="edge">
<title>Node2&#45;&gt;Node31</title>
<g id="a_edge50_Node000002_Node000031"><a xlink:title=" ">
<path fill="none" stroke="#63b8ff" d="M943.61,-219.75C948.78,-212.34 956.35,-201.5 962.69,-192.41"/>
<polygon fill="#63b8ff" stroke="#63b8ff" points="965.65,-194.29 968.5,-184.09 959.91,-190.29 965.65,-194.29"/>
</a>
</g>
</g>
<!-- Node4 -->
<g id="Node000004" class="node">
<title>Node4</title>
<g id="a_Node000004"><a xlink:title=" ">
<polygon fill="#e0e0e0" stroke="#999999" points="931.5,-19 839.5,-19 839.5,0 931.5,0 931.5,-19"/>
<text text-anchor="middle" x="885.5" y="-7" font-family="Helvetica,sans-Serif" font-size="10.00">lammp/lmmp.h</text>
</a>
</g>
</g>
<!-- Node3&#45;&gt;Node4 -->
<g id="edge3_Node000003_Node000004" class="edge">
<title>Node3&#45;&gt;Node4</title>
<g id="a_edge3_Node000003_Node000004"><a xlink:title=" ">
<path fill="none" stroke="#63b8ff" d="M816.67,-54.98C829.27,-46.84 848.5,-34.41 863.44,-24.76"/>
<polygon fill="#63b8ff" stroke="#63b8ff" points="865.59,-27.54 872.09,-19.17 861.79,-21.66 865.59,-27.54"/>
</a>
</g>
</g>
<!-- Node5 -->
<g id="Node000005" class="node">
<title>Node5</title>
<g id="a_Node000005"><a xlink:title=" ">
<polygon fill="#e0e0e0" stroke="#999999" points="549.5,-19 451.5,-19 451.5,0 549.5,0 549.5,-19"/>
<text text-anchor="middle" x="500.5" y="-7" font-family="Helvetica,sans-Serif" font-size="10.00">lammp/lmmpn.h</text>
</a>
</g>
</g>
<!-- Node3&#45;&gt;Node5 -->
<g id="edge4_Node000003_Node000005" class="edge">
<title>Node3&#45;&gt;Node5</title>
<g id="a_edge4_Node000003_Node000005"><a xlink:title=" ">
<path fill="none" stroke="#63b8ff" d="M770.96,-56.81C767.77,-56.19 764.57,-55.57 761.5,-55 692.3,-42.1 612.5,-28.71 559.54,-20.03"/>
<polygon fill="#63b8ff" stroke="#63b8ff" points="560.08,-16.58 549.65,-18.42 558.95,-23.48 560.08,-16.58"/>
</a>
</g>
</g>
<!-- Node6 -->
<g id="Node000006" class="node">
<title>Node6</title>
<g id="a_Node000006"><a xlink:title=" ">
<polygon fill="#e0e0e0" stroke="#999999" points="663,-19 568,-19 568,0 663,0 663,-19"/>
<text text-anchor="middle" x="615.5" y="-7" font-family="Helvetica,sans-Serif" font-size="10.00">lammp/numth.h</text>
</a>
</g>
</g>
<!-- Node3&#45;&gt;Node6 -->
<g id="edge5_Node000003_Node000006" class="edge">
<title>Node3&#45;&gt;Node6</title>
<g id="a_edge5_Node000003_Node000006"><a xlink:title=" ">
<path fill="none" stroke="#63b8ff" d="M773.29,-54.98C741.46,-46.01 691.14,-31.82 655.9,-21.89"/>
<polygon fill="#63b8ff" stroke="#63b8ff" points="656.52,-18.43 645.94,-19.08 654.62,-25.16 656.52,-18.43"/>
</a>
</g>
</g>
<!-- Node7 -->
<g id="Node000007" class="node">
<title>Node7</title>
<g id="a_Node000007"><a xlink:title=" ">
<polygon fill="#e0e0e0" stroke="#999999" points="753.5,-19 681.5,-19 681.5,0 753.5,0 753.5,-19"/>
<text text-anchor="middle" x="717.5" y="-7" font-family="Helvetica,sans-Serif" font-size="10.00">lmmc/init.h</text>
</a>
</g>
</g>
<!-- Node3&#45;&gt;Node7 -->
<g id="edge6_Node000003_Node000007" class="edge">
<title>Node3&#45;&gt;Node7</title>
<g id="a_edge6_Node000003_Node000007"><a xlink:title=" ">
<path fill="none" stroke="#63b8ff" d="M789.68,-54.98C776.35,-46.77 755.92,-34.18 740.19,-24.49"/>
<polygon fill="#63b8ff" stroke="#63b8ff" points="741.92,-21.44 731.57,-19.17 738.25,-27.4 741.92,-21.44"/>
</a>
</g>
</g>
<!-- Node3&#45;&gt;Node8 -->
<g id="edge7_Node000003_Node000008" class="edge">
<title>Node3&#45;&gt;Node8</title>
<g id="a_edge7_Node000003_Node000008"><a xlink:title=" ">
<path fill="none" stroke="#63b8ff" d="M770.56,-56.39C767.5,-55.87 764.45,-55.39 761.5,-55 513.6,-22.23 444.57,-57.82 193.35,-18.78"/>
<polygon fill="#63b8ff" stroke="#63b8ff" points="193.6,-15.27 183.18,-17.17 192.51,-22.19 193.6,-15.27"/>
</a>
</g>
</g>
<!-- Node3&#45;&gt;Node9 -->
<g id="edge8_Node000003_Node000009" class="edge">
<title>Node3&#45;&gt;Node9</title>
<g id="a_edge8_Node000003_Node000009"><a xlink:title=" ">
<path fill="none" stroke="#63b8ff" d="M836.19,-59.56C888.76,-53 995.5,-38.77 1095.69,-18.99"/>
<polygon fill="#63b8ff" stroke="#63b8ff" points="1096.56,-22.38 1105.68,-16.99 1095.19,-15.52 1096.56,-22.38"/>
</a>
</g>
</g>
<!-- Node10 -->
<g id="Node000010" class="node">
<title>Node10</title>
<g id="a_Node000010"><a xlink:title=" ">
<polygon fill="#e0e0e0" stroke="#999999" points="821.5,-19 771.5,-19 771.5,0 821.5,0 821.5,-19"/>
<text text-anchor="middle" x="796.5" y="-7" font-family="Helvetica,sans-Serif" font-size="10.00">cstring</text>
</a>
</g>
</g>
<!-- Node3&#45;&gt;Node10 -->
<g id="edge9_Node000003_Node000010" class="edge">
<title>Node3&#45;&gt;Node10</title>
<g id="a_edge9_Node000003_Node000010"><a xlink:title=" ">
<path fill="none" stroke="#63b8ff" d="M802.34,-54.75C801.43,-47.8 800.11,-37.85 798.96,-29.13"/>
<polygon fill="#63b8ff" stroke="#63b8ff" points="802.41,-28.54 797.63,-19.09 795.47,-29.46 802.41,-28.54"/>
</a>
</g>
</g>
<!-- Node3&#45;&gt;Node11 -->
<g id="edge10_Node000003_Node000011" class="edge">
<title>Node3&#45;&gt;Node11</title>
<g id="a_edge10_Node000003_Node000011"><a xlink:title=" ">
<path fill="none" stroke="#63b8ff" d="M770.55,-56.41C767.5,-55.88 764.45,-55.4 761.5,-55 540.94,-24.98 478.98,-56.11 255.79,-18.87"/>
<polygon fill="#63b8ff" stroke="#63b8ff" points="256.18,-15.38 245.73,-17.16 255.01,-22.28 256.18,-15.38"/>
</a>
</g>
</g>
<!-- Node3&#45;&gt;Node12 -->
<g id="edge11_Node000003_Node000012" class="edge">
<title>Node3&#45;&gt;Node12</title>
<g id="a_edge11_Node000003_Node000012"><a xlink:title=" ">
<path fill="none" stroke="#63b8ff" d="M836.14,-59.83C912.43,-51.2 1100.69,-29.53 1163.5,-19 1163.6,-18.98 1163.7,-18.97 1163.8,-18.95"/>
<polygon fill="#63b8ff" stroke="#63b8ff" points="1164.21,-22.43 1173.41,-17.18 1162.94,-15.55 1164.21,-22.43"/>
</a>
</g>
</g>
<!-- Node3&#45;&gt;Node13 -->
<g id="edge12_Node000003_Node000013" class="edge">
<title>Node3&#45;&gt;Node13</title>
<g id="a_edge12_Node000003_Node000013"><a xlink:title=" ">
<path fill="none" stroke="#63b8ff" d="M836.19,-56.63C881.54,-47.09 963.58,-29.83 1013.44,-19.34"/>
<polygon fill="#63b8ff" stroke="#63b8ff" points="1014.2,-22.76 1023.27,-17.28 1012.76,-15.91 1014.2,-22.76"/>
</a>
</g>
</g>
<!-- Node14 -->
<g id="Node000014" class="node">
<title>Node14</title>
<g id="a_Node000014"><a xlink:title=" ">
<polygon fill="#e0e0e0" stroke="#999999" points="1005.5,-19 949.5,-19 949.5,0 1005.5,0 1005.5,-19"/>
<text text-anchor="middle" x="977.5" y="-7" font-family="Helvetica,sans-Serif" font-size="10.00">iomanip</text>
</a>
</g>
</g>
<!-- Node3&#45;&gt;Node14 -->
<g id="edge13_Node000003_Node000014" class="edge">
<title>Node3&#45;&gt;Node14</title>
<g id="a_edge13_Node000003_Node000014"><a xlink:title=" ">
<path fill="none" stroke="#63b8ff" d="M831.46,-54.98C860.8,-46.05 907.1,-31.94 939.69,-22.02"/>
<polygon fill="#63b8ff" stroke="#63b8ff" points="940.78,-25.34 949.32,-19.08 938.74,-18.65 940.78,-25.34"/>
</a>
</g>
</g>
<!-- Node15 -->
<g id="Node000015" class="node">
<title>Node15</title>
<g id="a_Node000015"><a xlink:title=" ">
<polygon fill="#e0e0e0" stroke="#999999" points="329,-19 264,-19 264,0 329,0 329,-19"/>
<text text-anchor="middle" x="296.5" y="-7" font-family="Helvetica,sans-Serif" font-size="10.00">stdexcept</text>
</a>
</g>
</g>
<!-- Node3&#45;&gt;Node15 -->
<g id="edge14_Node000003_Node000015" class="edge">
<title>Node3&#45;&gt;Node15</title>
<g id="a_edge14_Node000003_Node000015"><a xlink:title=" ">
<path fill="none" stroke="#63b8ff" d="M770.55,-56.46C767.5,-55.92 764.45,-55.42 761.5,-55 577.92,-28.7 527,-45.17 339.37,-18.95"/>
<polygon fill="#63b8ff" stroke="#63b8ff" points="339.85,-15.48 329.45,-17.54 338.86,-22.41 339.85,-15.48"/>
</a>
</g>
</g>
<!-- Node3&#45;&gt;Node16 -->
<g id="edge15_Node000003_Node000016" class="edge">
<title>Node3&#45;&gt;Node16</title>
<g id="a_edge15_Node000003_Node000016"><a xlink:title=" ">
<path fill="none" stroke="#63b8ff" d="M836.19,-59.98C850.68,-58.43 867.94,-56.61 883.5,-55 1039.74,-38.87 1083.08,-47.91 1241.17,-18.95"/>
<polygon fill="#63b8ff" stroke="#63b8ff" points="1242.06,-22.34 1251.25,-17.08 1240.78,-15.46 1242.06,-22.34"/>
</a>
</g>
</g>
<!-- Node17 -->
<g id="Node000017" class="node">
<title>Node17</title>
<g id="a_Node000017"><a xlink:title=" ">
<polygon fill="#e0e0e0" stroke="#999999" points="433.5,-19 347.5,-19 347.5,0 433.5,0 433.5,-19"/>
<text text-anchor="middle" x="390.5" y="-7" font-family="Helvetica,sans-Serif" font-size="10.00">lmmc/config.h</text>
</a>
</g>
</g>
<!-- Node3&#45;&gt;Node17 -->
<g id="edge16_Node000003_Node000017" class="edge">
<title>Node3&#45;&gt;Node17</title>
<g id="a_edge16_Node000003_Node000017"><a xlink:title=" ">
<path fill="none" stroke="#63b8ff" d="M770.99,-56.63C767.79,-56.04 764.59,-55.49 761.5,-55 623.72,-33.33 585.54,-38.27 443.56,-19.08"/>
<polygon fill="#63b8ff" stroke="#63b8ff" points="443.99,-15.6 433.61,-17.72 443.04,-22.54 443.99,-15.6"/>
</a>
</g>
</g>
<!-- Node18&#45;&gt;Node3 -->
<g id="edge20_Node000018_Node000003" class="edge">
<title>Node18&#45;&gt;Node3</title>
<g id="a_edge20_Node000018_Node000003"><a xlink:title=" ">
<path fill="none" stroke="#63b8ff" d="M788.47,-109.75C790.86,-102.72 794.29,-92.62 797.27,-83.84"/>
<polygon fill="#63b8ff" stroke="#63b8ff" points="800.68,-84.68 800.58,-74.09 794.05,-82.43 800.68,-84.68"/>
</a>
</g>
</g>
<!-- Node18&#45;&gt;Node11 -->
<g id="edge24_Node000018_Node000011" class="edge">
<title>Node18&#45;&gt;Node11</title>
<g id="a_edge24_Node000018_Node000011"><a xlink:title=" ">
<path fill="none" stroke="#63b8ff" d="M747.8,-111.61C744.66,-111.06 741.52,-110.52 738.5,-110 638.67,-92.99 611.93,-97.84 513.5,-74 487.14,-67.62 481.8,-61.63 455.5,-55 370.59,-33.6 344.82,-38.62 255.78,-19.1"/>
<polygon fill="#63b8ff" stroke="#63b8ff" points="256.31,-15.64 245.79,-16.87 254.79,-22.47 256.31,-15.64"/>
</a>
</g>
</g>
<!-- Node18&#45;&gt;Node14 -->
<g id="edge21_Node000018_Node000014" class="edge">
<title>Node18&#45;&gt;Node14</title>
<g id="a_edge21_Node000018_Node000014"><a xlink:title=" ">
<path fill="none" stroke="#63b8ff" d="M797.55,-109.94C815.73,-97.21 851.45,-72.87 883.5,-55 904.58,-43.25 929.28,-31.63 948.07,-23.22"/>
<polygon fill="#63b8ff" stroke="#63b8ff" points="949.58,-26.38 957.31,-19.13 946.75,-19.98 949.58,-26.38"/>
</a>
</g>
</g>
<!-- Node18&#45;&gt;Node15 -->
<g id="edge23_Node000018_Node000015" class="edge">
<title>Node18&#45;&gt;Node15</title>
<g id="a_edge23_Node000018_Node000015"><a xlink:title=" ">
<path fill="none" stroke="#63b8ff" d="M747.59,-111.62C693.87,-101.73 598.38,-83.66 564.5,-74 541.24,-67.37 536.75,-61.67 513.5,-55 509.29,-53.79 400.98,-31.73 339,-19.13"/>
<polygon fill="#63b8ff" stroke="#63b8ff" points="339.61,-15.68 329.11,-17.12 338.21,-22.54 339.61,-15.68"/>
</a>
</g>
</g>
<!-- Node18&#45;&gt;Node17 -->
<g id="edge18_Node000018_Node000017" class="edge">
<title>Node18&#45;&gt;Node17</title>
<g id="a_edge18_Node000018_Node000017"><a xlink:title=" ">
<path fill="none" stroke="#63b8ff" d="M749.29,-110C714.88,-101.68 661.81,-88.21 616.5,-74 593.02,-66.64 588,-62.28 564.5,-55 522.35,-41.94 473.62,-29.72 438.47,-21.4"/>
<polygon fill="#63b8ff" stroke="#63b8ff" points="439.02,-17.94 428.48,-19.06 437.42,-24.75 439.02,-17.94"/>
</a>
</g>
</g>
<!-- Node19 -->
<g id="Node000019" class="node">
<title>Node19</title>
<g id="a_Node000019"><a xlink:title=" ">
<polygon fill="#e0e0e0" stroke="#999999" points="446.5,-74 350.5,-74 350.5,-55 446.5,-55 446.5,-74"/>
<text text-anchor="middle" x="398.5" y="-62" font-family="Helvetica,sans-Serif" font-size="10.00">lmmc/numeric.h</text>
</a>
</g>
</g>
<!-- Node18&#45;&gt;Node19 -->
<g id="edge19_Node000018_Node000019" class="edge">
<title>Node18&#45;&gt;Node19</title>
<g id="a_edge19_Node000018_Node000019"><a xlink:title=" ">
<path fill="none" stroke="#63b8ff" d="M747.82,-111.52C744.67,-110.99 741.53,-110.47 738.5,-110 639.89,-94.64 524.62,-80.31 456.81,-72.25"/>
<polygon fill="#63b8ff" stroke="#63b8ff" points="457.09,-68.76 446.75,-71.06 456.27,-75.71 457.09,-68.76"/>
</a>
</g>
</g>
<!-- Node20 -->
<g id="Node000020" class="node">
<title>Node20</title>
<g id="a_Node000020"><a xlink:title=" ">
<polygon fill="#e0e0e0" stroke="#999999" points="681.5,-74 625.5,-74 625.5,-55 681.5,-55 681.5,-74"/>
<text text-anchor="middle" x="653.5" y="-62" font-family="Helvetica,sans-Serif" font-size="10.00">sstream</text>
</a>
</g>
</g>
<!-- Node18&#45;&gt;Node20 -->
<g id="edge22_Node000018_Node000020" class="edge">
<title>Node18&#45;&gt;Node20</title>
<g id="a_edge22_Node000018_Node000020"><a xlink:title=" ">
<path fill="none" stroke="#63b8ff" d="M764.29,-109.98C742.77,-101.34 709.22,-87.87 684.67,-78.02"/>
<polygon fill="#63b8ff" stroke="#63b8ff" points="685.68,-74.65 675.09,-74.17 683.07,-81.14 685.68,-74.65"/>
</a>
</g>
</g>
<!-- Node18&#45;&gt;Node21 -->
<g id="edge25_Node000018_Node000021" class="edge">
<title>Node18&#45;&gt;Node21</title>
<g id="a_edge25_Node000018_Node000021"><a xlink:title=" ">
<path fill="none" stroke="#63b8ff" d="M805.74,-109.98C826.56,-101.23 859.17,-87.51 882.68,-77.62"/>
<polygon fill="#63b8ff" stroke="#63b8ff" points="884.27,-80.75 892.13,-73.65 881.56,-74.3 884.27,-80.75"/>
</a>
</g>
</g>
<!-- Node22 -->
<g id="Node000022" class="node">
<title>Node22</title>
<g id="a_Node000022"><a xlink:title=" ">
<polygon fill="#e0e0e0" stroke="#999999" points="753,-74 700,-74 700,-55 753,-55 753,-74"/>
<text text-anchor="middle" x="726.5" y="-62" font-family="Helvetica,sans-Serif" font-size="10.00">stdint.h</text>
</a>
</g>
</g>
<!-- Node18&#45;&gt;Node22 -->
<g id="edge26_Node000018_Node000022" class="edge">
<title>Node18&#45;&gt;Node22</title>
<g id="a_edge26_Node000018_Node000022"><a xlink:title=" ">
<path fill="none" stroke="#63b8ff" d="M776.02,-109.98C767.3,-102.15 754.16,-90.34 743.6,-80.86"/>
<polygon fill="#63b8ff" stroke="#63b8ff" points="745.93,-78.25 736.15,-74.17 741.25,-83.46 745.93,-78.25"/>
</a>
</g>
</g>
<!-- Node23&#45;&gt;Node3 -->
<g id="edge37_Node000023_Node000003" class="edge">
<title>Node23&#45;&gt;Node3</title>
<g id="a_edge37_Node000023_Node000003"><a xlink:title=" ">
<path fill="none" stroke="#63b8ff" d="M615.64,-172.53C685.28,-170.01 804.39,-161 831.5,-129 843.24,-115.14 831.45,-95.59 819.77,-81.86"/>
<polygon fill="#63b8ff" stroke="#63b8ff" points="822.05,-79.17 812.72,-74.16 816.89,-83.9 822.05,-79.17"/>
</a>
</g>
</g>
<!-- Node23&#45;&gt;Node8 -->
<g id="edge29_Node000023_Node000008" class="edge">
<title>Node23&#45;&gt;Node8</title>
<g id="a_edge29_Node000023_Node000008"><a xlink:title=" ">
<path fill="none" stroke="#63b8ff" d="M513.27,-173.34C457.04,-171.32 365.36,-162.52 294.5,-129 242.33,-104.32 195.03,-53.39 172.83,-27.06"/>
<polygon fill="#63b8ff" stroke="#63b8ff" points="175.36,-24.63 166.29,-19.15 169.96,-29.09 175.36,-24.63"/>
</a>
</g>
</g>
<!-- Node23&#45;&gt;Node11 -->
<g id="edge30_Node000023_Node000011" class="edge">
<title>Node23&#45;&gt;Node11</title>
<g id="a_edge30_Node000023_Node000011"><a xlink:title=" ">
<path fill="none" stroke="#63b8ff" d="M513.07,-174.08C461.32,-172.48 380.88,-163.83 321.5,-129 279.44,-104.33 247.51,-54.53 232.66,-28.03"/>
<polygon fill="#63b8ff" stroke="#63b8ff" points="235.67,-26.23 227.83,-19.11 229.52,-29.57 235.67,-26.23"/>
</a>
</g>
</g>
<!-- Node23&#45;&gt;Node13 -->
<g id="edge32_Node000023_Node000013" class="edge">
<title>Node23&#45;&gt;Node13</title>
<g id="a_edge32_Node000023_Node000013"><a xlink:title=" ">
<path fill="none" stroke="#63b8ff" d="M615.74,-172.97C678.82,-170.8 788.28,-162.05 875.5,-129 941.38,-104.04 1007.73,-51.69 1038.21,-25.74"/>
<polygon fill="#63b8ff" stroke="#63b8ff" points="1040.55,-28.35 1045.83,-19.17 1035.97,-23.05 1040.55,-28.35"/>
</a>
</g>
</g>
<!-- Node23&#45;&gt;Node15 -->
<g id="edge40_Node000023_Node000015" class="edge">
<title>Node23&#45;&gt;Node15</title>
<g id="a_edge40_Node000023_Node000015"><a xlink:title=" ">
<path fill="none" stroke="#63b8ff" d="M513.31,-169.02C455.73,-163.01 366.92,-150.52 341.5,-129 311.5,-103.61 301.46,-55.98 298.13,-29.49"/>
<polygon fill="#63b8ff" stroke="#63b8ff" points="301.58,-28.84 297.05,-19.27 294.62,-29.58 301.58,-28.84"/>
</a>
</g>
</g>
<!-- Node23&#45;&gt;Node17 -->
<g id="edge38_Node000023_Node000017" class="edge">
<title>Node23&#45;&gt;Node17</title>
<g id="a_edge38_Node000023_Node000017"><a xlink:title=" ">
<path fill="none" stroke="#63b8ff" d="M513.46,-167.68C461.58,-160.82 385.77,-147.91 363.5,-129 337.35,-106.79 327.61,-86.37 341.5,-55 346.82,-42.97 357.18,-32.8 367.01,-25.24"/>
<polygon fill="#63b8ff" stroke="#63b8ff" points="369.26,-27.93 375.37,-19.27 365.2,-22.23 369.26,-27.93"/>
</a>
</g>
</g>
<!-- Node23&#45;&gt;Node18 -->
<g id="edge36_Node000023_Node000018" class="edge">
<title>Node23&#45;&gt;Node18</title>
<g id="a_edge36_Node000023_Node000018"><a xlink:title=" ">
<path fill="none" stroke="#63b8ff" d="M600.01,-164.98C637.99,-155.87 698.37,-141.4 739.86,-131.45"/>
<polygon fill="#63b8ff" stroke="#63b8ff" points="740.81,-134.82 749.71,-129.08 739.17,-128.01 740.81,-134.82"/>
</a>
</g>
</g>
<!-- Node23&#45;&gt;Node19 -->
<g id="edge39_Node000023_Node000019" class="edge">
<title>Node23&#45;&gt;Node19</title>
<g id="a_edge39_Node000023_Node000019"><a xlink:title=" ">
<path fill="none" stroke="#63b8ff" d="M513.03,-168.78C461.97,-162.9 388.9,-150.86 371.5,-129 360.26,-114.87 371.61,-95.37 382.85,-81.72"/>
<polygon fill="#63b8ff" stroke="#63b8ff" points="385.62,-83.88 389.63,-74.07 380.38,-79.23 385.62,-83.88"/>
</a>
</g>
</g>
<!-- Node23&#45;&gt;Node21 -->
<g id="edge42_Node000023_Node000021" class="edge">
<title>Node23&#45;&gt;Node21</title>
<g id="a_edge42_Node000023_Node000021"><a xlink:title=" ">
<path fill="none" stroke="#63b8ff" d="M615.62,-169.33C686.07,-162.94 808.78,-149.3 848.5,-129 869.8,-118.12 888.28,-97.34 899.62,-82.52"/>
<polygon fill="#63b8ff" stroke="#63b8ff" points="902.62,-84.33 905.71,-74.2 896.98,-80.19 902.62,-84.33"/>
</a>
</g>
</g>
<!-- Node23&#45;&gt;Node24 -->
<g id="edge28_Node000023_Node000024" class="edge">
<title>Node23&#45;&gt;Node24</title>
<g id="a_edge28_Node000023_Node000024"><a xlink:title=" ">
<path fill="none" stroke="#63b8ff" d="M513.18,-167.57C420.64,-156.89 227.74,-134.61 144.8,-125.04"/>
<polygon fill="#63b8ff" stroke="#63b8ff" points="145.11,-121.55 134.77,-123.88 144.31,-128.5 145.11,-121.55"/>
</a>
</g>
</g>
<!-- Node23&#45;&gt;Node25 -->
<g id="edge31_Node000023_Node000025" class="edge">
<title>Node23&#45;&gt;Node25</title>
<g id="a_edge31_Node000023_Node000025"><a xlink:title=" ">
<path fill="none" stroke="#63b8ff" d="M615.51,-169.73C694.03,-163.53 849.09,-149.79 979.5,-129 980.95,-128.77 982.42,-128.52 983.9,-128.26"/>
<polygon fill="#63b8ff" stroke="#63b8ff" points="984.59,-131.69 993.75,-126.38 983.27,-124.82 984.59,-131.69"/>
</a>
</g>
</g>
<!-- Node26 -->
<g id="Node000026" class="node">
<title>Node26</title>
<g id="a_Node000026"><a xlink:title=" ">
<polygon fill="#e0e0e0" stroke="#999999" points="446,-129 381,-129 381,-110 446,-110 446,-129"/>
<text text-anchor="middle" x="413.5" y="-117" font-family="Helvetica,sans-Serif" font-size="10.00">typeindex</text>
</a>
</g>
</g>
<!-- Node23&#45;&gt;Node26 -->
<g id="edge33_Node000023_Node000026" class="edge">
<title>Node23&#45;&gt;Node26</title>
<g id="a_edge33_Node000023_Node000026"><a xlink:title=" ">
<path fill="none" stroke="#63b8ff" d="M540.24,-164.98C515.18,-156.19 475.87,-142.39 447.67,-132.49"/>
<polygon fill="#63b8ff" stroke="#63b8ff" points="448.8,-129.18 438.2,-129.17 446.48,-135.78 448.8,-129.18"/>
</a>
</g>
</g>
<!-- Node27 -->
<g id="Node000027" class="node">
<title>Node27</title>
<g id="a_Node000027"><a xlink:title=" ">
<polygon fill="#e0e0e0" stroke="#999999" points="557,-129 464,-129 464,-110 557,-110 557,-129"/>
<text text-anchor="middle" x="510.5" y="-117" font-family="Helvetica,sans-Serif" font-size="10.00">unordered_map</text>
</a>
</g>
</g>
<!-- Node23&#45;&gt;Node27 -->
<g id="edge34_Node000023_Node000027" class="edge">
<title>Node23&#45;&gt;Node27</title>
<g id="a_edge34_Node000023_Node000027"><a xlink:title=" ">
<path fill="none" stroke="#63b8ff" d="M555.58,-164.75C547.72,-157.03 536.07,-145.6 526.58,-136.28"/>
<polygon fill="#63b8ff" stroke="#63b8ff" points="528.84,-133.6 519.25,-129.09 523.94,-138.59 528.84,-133.6"/>
</a>
</g>
</g>
<!-- Node28 -->
<g id="Node000028" class="node">
<title>Node28</title>
<g id="a_Node000028"><a xlink:title=" ">
<polygon fill="#e0e0e0" stroke="#999999" points="661.5,-129 575.5,-129 575.5,-110 661.5,-110 661.5,-129"/>
<text text-anchor="middle" x="618.5" y="-117" font-family="Helvetica,sans-Serif" font-size="10.00">unordered_set</text>
</a>
</g>
</g>
<!-- Node23&#45;&gt;Node28 -->
<g id="edge35_Node000023_Node000028" class="edge">
<title>Node23&#45;&gt;Node28</title>
<g id="a_edge35_Node000023_Node000028"><a xlink:title=" ">
<path fill="none" stroke="#63b8ff" d="M573.42,-164.75C581.28,-157.03 592.93,-145.6 602.42,-136.28"/>
<polygon fill="#63b8ff" stroke="#63b8ff" points="605.06,-138.59 609.75,-129.09 600.16,-133.6 605.06,-138.59"/>
</a>
</g>
</g>
<!-- Node29 -->
<g id="Node000029" class="node">
<title>Node29</title>
<g id="a_Node000029"><a xlink:title=" ">
<polygon fill="#e0e0e0" stroke="#999999" points="729.5,-129 679.5,-129 679.5,-110 729.5,-110 729.5,-129"/>
<text text-anchor="middle" x="704.5" y="-117" font-family="Helvetica,sans-Serif" font-size="10.00">atomic</text>
</a>
</g>
</g>
<!-- Node23&#45;&gt;Node29 -->
<g id="edge41_Node000023_Node000029" class="edge">
<title>Node23&#45;&gt;Node29</title>
<g id="a_edge41_Node000023_Node000029"><a xlink:title=" ">
<path fill="none" stroke="#63b8ff" d="M586.99,-164.98C610.02,-156.27 646.04,-142.63 672.13,-132.75"/>
<polygon fill="#63b8ff" stroke="#63b8ff" points="673.48,-135.98 681.6,-129.17 671.01,-129.44 673.48,-135.98"/>
</a>
</g>
</g>
</g>
</svg>
