<?xml version="1.0" encoding="UTF-8" standalone="no"?>
<!DOCTYPE svg PUBLIC "-//W3C//DTD SVG 1.1//EN"
 "http://www.w3.org/Graphics/SVG/1.1/DTD/svg11.dtd">
<!-- Generated by graphviz version 2.43.0 (0)
 -->
<!-- Title: include/solve_strategies.hpp Pages: 1 -->
<svg width="1314pt" height="302pt"
 viewBox="0.00 0.00 1314.00 302.00" xmlns="http://www.w3.org/2000/svg" xmlns:xlink="http://www.w3.org/1999/xlink">
<g id="graph0" class="graph" transform="scale(1 1) rotate(0) translate(4 298)">
<title>include/solve_strategies.hpp</title>
<!-- Node1 -->
<g id="Node000001" class="node">
<title>Node1</title>
<g id="a_Node000001"><a xlink:title="方程求解策略调度器 solve_dispatch 及相关选项结构体。">
<polygon fill="#999999" stroke="#666666" points="156,-294 0,-294 0,-275 156,-275 156,-294"/>
<text text-anchor="middle" x="78" y="-282" font-family="Helvetica,sans-Serif" font-size="10.00">include/solve_strategies.hpp</text>
</a>
</g>
</g>
<!-- Node2 -->
<g id="Node000002" class="node">
<title>Node2</title>
<g id="a_Node000002"><a xlink:href="../../d5/df2/symbolic_8hpp.html" target="_top" xlink:title="符号表达式主类 SymbolicExpr 及其工厂方法、运算接口。">
<polygon fill="white" stroke="#666666" points="989,-239 907,-239 907,-220 989,-220 989,-239"/>
<text text-anchor="middle" x="948" y="-227" font-family="Helvetica,sans-Serif" font-size="10.00">symbolic.hpp</text>
</a>
</g>
</g>
<!-- Node1&#45;&gt;Node2 -->
<g id="edge1_Node000001_Node000002" class="edge">
<title>Node1&#45;&gt;Node2</title>
<g id="a_edge1_Node000001_Node000002"><a xlink:title=" ">
<path fill="none" stroke="#63b8ff" d="M156.36,-278.73C331.54,-268.05 750.97,-242.5 896.91,-233.61"/>
<polygon fill="#63b8ff" stroke="#63b8ff" points="897.17,-237.1 906.93,-233 896.74,-230.12 897.17,-237.1"/>
</a>
</g>
</g>
<!-- Node8 -->
<g id="Node000008" class="node">
<title>Node8</title>
<g id="a_Node000008"><a xlink:title=" ">
<polygon fill="#e0e0e0" stroke="#999999" points="193.5,-19 146.5,-19 146.5,0 193.5,0 193.5,-19"/>
<text text-anchor="middle" x="170" y="-7" font-family="Helvetica,sans-Serif" font-size="10.00">vector</text>
</a>
</g>
</g>
<!-- Node1&#45;&gt;Node8 -->
<g id="edge53_Node000001_Node000008" class="edge">
<title>Node1&#45;&gt;Node8</title>
<g id="a_edge53_Node000001_Node000008"><a xlink:title=" ">
<path fill="none" stroke="#63b8ff" d="M69.59,-274.8C53.73,-257.44 21,-216.63 21,-175.5 21,-175.5 21,-175.5 21,-118.5 21,-88.33 23.46,-76.13 45,-55 69.64,-30.83 108.27,-19.71 136.06,-14.64"/>
<polygon fill="#63b8ff" stroke="#63b8ff" points="136.83,-18.06 146.13,-12.98 135.7,-11.15 136.83,-18.06"/>
</a>
</g>
</g>
<!-- Node11 -->
<g id="Node000011" class="node">
<title>Node11</title>
<g id="a_Node000011"><a xlink:title=" ">
<polygon fill="#e0e0e0" stroke="#999999" points="256,-19 212,-19 212,0 256,0 256,-19"/>
<text text-anchor="middle" x="234" y="-7" font-family="Helvetica,sans-Serif" font-size="10.00">string</text>
</a>
</g>
</g>
<!-- Node1&#45;&gt;Node11 -->
<g id="edge55_Node000001_Node000011" class="edge">
<title>Node1&#45;&gt;Node11</title>
<g id="a_edge55_Node000001_Node000011"><a xlink:title=" ">
<path fill="none" stroke="#63b8ff" d="M75.44,-274.91C70.25,-256.74 59,-213 59,-175.5 59,-175.5 59,-175.5 59,-118.5 59,-85.2 151.94,-43.08 202.36,-22.68"/>
<polygon fill="#63b8ff" stroke="#63b8ff" points="203.85,-25.85 211.84,-18.89 201.25,-19.35 203.85,-25.85"/>
</a>
</g>
</g>
<!-- Node24 -->
<g id="Node000024" class="node">
<title>Node24</title>
<g id="a_Node000024"><a xlink:title=" ">
<polygon fill="#e0e0e0" stroke="#999999" points="145,-129 87,-129 87,-110 145,-110 145,-129"/>
<text text-anchor="middle" x="116" y="-117" font-family="Helvetica,sans-Serif" font-size="10.00">memory</text>
</a>
</g>
</g>
<!-- Node1&#45;&gt;Node24 -->
<g id="edge54_Node000001_Node000024" class="edge">
<title>Node1&#45;&gt;Node24</title>
<g id="a_edge54_Node000001_Node000024"><a xlink:title=" ">
<path fill="none" stroke="#63b8ff" d="M80.04,-274.74C86,-249.2 103.43,-174.43 111.63,-139.23"/>
<polygon fill="#63b8ff" stroke="#63b8ff" points="115.08,-139.84 113.95,-129.31 108.27,-138.25 115.08,-139.84"/>
</a>
</g>
</g>
<!-- Node3 -->
<g id="Node000003" class="node">
<title>Node3</title>
<g id="a_Node000003"><a xlink:href="../../d8/d09/bigint_8hpp.html" target="_top" xlink:title="任意精度整数 BigInt，底层调用 LAMMP 实现高性能大数运算。">
<polygon fill="white" stroke="#666666" points="846.5,-74 781.5,-74 781.5,-55 846.5,-55 846.5,-74"/>
<text text-anchor="middle" x="814" y="-62" font-family="Helvetica,sans-Serif" font-size="10.00">bigint.hpp</text>
</a>
</g>
</g>
<!-- Node2&#45;&gt;Node3 -->
<g id="edge2_Node000002_Node000003" class="edge">
<title>Node2&#45;&gt;Node3</title>
<g id="a_edge2_Node000002_Node000003"><a xlink:title=" ">
<path fill="none" stroke="#63b8ff" d="M926.2,-219.88C910.52,-212.6 890.1,-200.66 878,-184 858.05,-156.52 875.91,-139.45 859,-110 852.55,-98.77 842.5,-88.44 833.53,-80.57"/>
<polygon fill="#63b8ff" stroke="#63b8ff" points="835.65,-77.78 825.73,-74.08 831.17,-83.16 835.65,-77.78"/>
</a>
</g>
</g>
<!-- Node9 -->
<g id="Node000009" class="node">
<title>Node9</title>
<g id="a_Node000009"><a xlink:title=" ">
<polygon fill="#e0e0e0" stroke="#999999" points="1165.5,-19 1116.5,-19 1116.5,0 1165.5,0 1165.5,-19"/>
<text text-anchor="middle" x="1141" y="-7" font-family="Helvetica,sans-Serif" font-size="10.00">cstdlib</text>
</a>
</g>
</g>
<!-- Node2&#45;&gt;Node9 -->
<g id="edge52_Node000002_Node000009" class="edge">
<title>Node2&#45;&gt;Node9</title>
<g id="a_edge52_Node000002_Node000009"><a xlink:title=" ">
<path fill="none" stroke="#63b8ff" d="M989.15,-225.53C1020.25,-221.15 1061.91,-210.39 1088,-184 1130.58,-140.94 1139.1,-64.7 1140.7,-29.4"/>
<polygon fill="#63b8ff" stroke="#63b8ff" points="1144.2,-29.21 1141.02,-19.11 1137.21,-28.99 1144.2,-29.21"/>
</a>
</g>
</g>
<!-- Node2&#45;&gt;Node11 -->
<g id="edge44_Node000002_Node000011" class="edge">
<title>Node2&#45;&gt;Node11</title>
<g id="a_edge44_Node000002_Node000011"><a xlink:title=" ">
<path fill="none" stroke="#63b8ff" d="M906.57,-226.28C780.95,-218.91 406.78,-192.07 305,-129 277.42,-111.91 273.47,-101.95 257,-74 248.63,-59.79 242.51,-42.03 238.7,-28.91"/>
<polygon fill="#63b8ff" stroke="#63b8ff" points="242.05,-27.89 236.04,-19.16 235.3,-29.73 242.05,-27.89"/>
</a>
</g>
</g>
<!-- Node12 -->
<g id="Node000012" class="node">
<title>Node12</title>
<g id="a_Node000012"><a xlink:title=" ">
<polygon fill="#e0e0e0" stroke="#999999" points="1244,-19 1184,-19 1184,0 1244,0 1244,-19"/>
<text text-anchor="middle" x="1214" y="-7" font-family="Helvetica,sans-Serif" font-size="10.00">iostream</text>
</a>
</g>
</g>
<!-- Node2&#45;&gt;Node12 -->
<g id="edge51_Node000002_Node000012" class="edge">
<title>Node2&#45;&gt;Node12</title>
<g id="a_edge51_Node000002_Node000012"><a xlink:title=" ">
<path fill="none" stroke="#63b8ff" d="M989,-225.71C1024.2,-221.47 1074.69,-210.81 1110,-184 1164.24,-142.81 1195.99,-64.46 1208.19,-28.89"/>
<polygon fill="#63b8ff" stroke="#63b8ff" points="1211.54,-29.9 1211.35,-19.31 1204.89,-27.71 1211.54,-29.9"/>
</a>
</g>
</g>
<!-- Node13 -->
<g id="Node000013" class="node">
<title>Node13</title>
<g id="a_Node000013"><a xlink:title=" ">
<polygon fill="#e0e0e0" stroke="#999999" points="1098,-19 1034,-19 1034,0 1098,0 1098,-19"/>
<text text-anchor="middle" x="1066" y="-7" font-family="Helvetica,sans-Serif" font-size="10.00">algorithm</text>
</a>
</g>
</g>
<!-- Node2&#45;&gt;Node13 -->
<g id="edge48_Node000002_Node000013" class="edge">
<title>Node2&#45;&gt;Node13</title>
<g id="a_edge48_Node000002_Node000013"><a xlink:title=" ">
<path fill="none" stroke="#63b8ff" d="M989.05,-222.7C1014.76,-217.01 1046.75,-205.83 1067,-184 1106.74,-141.18 1085.69,-63.66 1073.15,-28.6"/>
<polygon fill="#63b8ff" stroke="#63b8ff" points="1076.4,-27.29 1069.61,-19.16 1069.85,-29.75 1076.4,-27.29"/>
</a>
</g>
</g>
<!-- Node16 -->
<g id="Node000016" class="node">
<title>Node16</title>
<g id="a_Node000016"><a xlink:title=" ">
<polygon fill="#e0e0e0" stroke="#999999" points="1306,-19 1262,-19 1262,0 1306,0 1306,-19"/>
<text text-anchor="middle" x="1284" y="-7" font-family="Helvetica,sans-Serif" font-size="10.00">limits</text>
</a>
</g>
</g>
<!-- Node2&#45;&gt;Node16 -->
<g id="edge47_Node000002_Node000016" class="edge">
<title>Node2&#45;&gt;Node16</title>
<g id="a_edge47_Node000002_Node000016"><a xlink:title=" ">
<path fill="none" stroke="#63b8ff" d="M989.06,-226.03C1028.91,-222.03 1089.84,-211.53 1135,-184 1201.34,-143.56 1253.32,-63.57 1274.13,-28.12"/>
<polygon fill="#63b8ff" stroke="#63b8ff" points="1277.42,-29.42 1279.37,-19.01 1271.35,-25.93 1277.42,-29.42"/>
</a>
</g>
</g>
<!-- Node18 -->
<g id="Node000018" class="node">
<title>Node18</title>
<g id="a_Node000018"><a xlink:href="../../d1/de8/rational_8hpp.html" target="_top" xlink:title="精确有理数 Rational，基于 BigInt 分子/分母表示，自动约分。">
<polygon fill="white" stroke="#666666" points="833.5,-129 758.5,-129 758.5,-110 833.5,-110 833.5,-129"/>
<text text-anchor="middle" x="796" y="-117" font-family="Helvetica,sans-Serif" font-size="10.00">rational.hpp</text>
</a>
</g>
</g>
<!-- Node2&#45;&gt;Node18 -->
<g id="edge17_Node000002_Node000018" class="edge">
<title>Node2&#45;&gt;Node18</title>
<g id="a_edge17_Node000002_Node000018"><a xlink:title=" ">
<path fill="none" stroke="#63b8ff" d="M917.91,-219.98C896.14,-212.81 866.84,-200.97 845,-184 828.56,-171.22 814.61,-151.71 805.85,-137.69"/>
<polygon fill="#63b8ff" stroke="#63b8ff" points="808.79,-135.79 800.65,-129.01 802.79,-139.39 808.79,-135.79"/>
</a>
</g>
</g>
<!-- Node21 -->
<g id="Node000021" class="node">
<title>Node21</title>
<g id="a_Node000021"><a xlink:title=" ">
<polygon fill="#e0e0e0" stroke="#999999" points="941,-74 903,-74 903,-55 941,-55 941,-74"/>
<text text-anchor="middle" x="922" y="-62" font-family="Helvetica,sans-Serif" font-size="10.00">map</text>
</a>
</g>
</g>
<!-- Node2&#45;&gt;Node21 -->
<g id="edge49_Node000002_Node000021" class="edge">
<title>Node2&#45;&gt;Node21</title>
<g id="a_edge49_Node000002_Node000021"><a xlink:title=" ">
<path fill="none" stroke="#63b8ff" d="M982.21,-219.86C1002.59,-213.13 1027.6,-201.86 1044,-184 1067.04,-158.9 1084.17,-137.46 1064,-110 1038.19,-74.87 984.71,-66.72 951.25,-65.24"/>
<polygon fill="#63b8ff" stroke="#63b8ff" points="951.24,-61.74 941.15,-64.97 951.06,-68.74 951.24,-61.74"/>
</a>
</g>
</g>
<!-- Node23 -->
<g id="Node000023" class="node">
<title>Node23</title>
<g id="a_Node000023"><a xlink:href="../../d9/d89/symbolic__ast_8hpp.html" target="_top" xlink:title="AST 节点定义：NumberNode, VariableNode, AddNode, MultiplyNode, PowerNode, FunctionNode,...">
<polygon fill="white" stroke="#666666" points="626,-184 524,-184 524,-165 626,-165 626,-184"/>
<text text-anchor="middle" x="575" y="-172" font-family="Helvetica,sans-Serif" font-size="10.00">symbolic_ast.hpp</text>
</a>
</g>
</g>
<!-- Node2&#45;&gt;Node23 -->
<g id="edge27_Node000002_Node000023" class="edge">
<title>Node2&#45;&gt;Node23</title>
<g id="a_edge27_Node000002_Node000023"><a xlink:title=" ">
<path fill="none" stroke="#63b8ff" d="M906.66,-222.63C840.94,-213.29 712.31,-195.01 635.99,-184.17"/>
<polygon fill="#63b8ff" stroke="#63b8ff" points="636.43,-180.69 626.04,-182.75 635.45,-187.62 636.43,-180.69"/>
</a>
</g>
</g>
<!-- Node2&#45;&gt;Node24 -->
<g id="edge43_Node000002_Node000024" class="edge">
<title>Node2&#45;&gt;Node24</title>
<g id="a_edge43_Node000002_Node000024"><a xlink:title=" ">
<path fill="none" stroke="#63b8ff" d="M906.89,-228.3C754.09,-227.26 224.26,-221.02 159,-184 141.5,-174.07 129.68,-153.74 122.93,-138.74"/>
<polygon fill="#63b8ff" stroke="#63b8ff" points="126.12,-137.3 119.06,-129.41 119.65,-139.98 126.12,-137.3"/>
</a>
</g>
</g>
<!-- Node25 -->
<g id="Node000025" class="node">
<title>Node25</title>
<g id="a_Node000025"><a xlink:title=" ">
<polygon fill="#e0e0e0" stroke="#999999" points="1055.5,-129 1004.5,-129 1004.5,-110 1055.5,-110 1055.5,-129"/>
<text text-anchor="middle" x="1030" y="-117" font-family="Helvetica,sans-Serif" font-size="10.00">variant</text>
</a>
</g>
</g>
<!-- Node2&#45;&gt;Node25 -->
<g id="edge45_Node000002_Node000025" class="edge">
<title>Node2&#45;&gt;Node25</title>
<g id="a_edge45_Node000002_Node000025"><a xlink:title=" ">
<path fill="none" stroke="#63b8ff" d="M976.73,-219.89C994.09,-213.09 1014.94,-201.73 1026,-184 1034.31,-170.67 1034.62,-152.56 1033.26,-139.09"/>
<polygon fill="#63b8ff" stroke="#63b8ff" points="1036.71,-138.49 1031.86,-129.07 1029.78,-139.46 1036.71,-138.49"/>
</a>
</g>
</g>
<!-- Node30 -->
<g id="Node000030" class="node">
<title>Node30</title>
<g id="a_Node000030"><a xlink:title=" ">
<polygon fill="#e0e0e0" stroke="#999999" points="934.5,-184 887.5,-184 887.5,-165 934.5,-165 934.5,-184"/>
<text text-anchor="middle" x="911" y="-172" font-family="Helvetica,sans-Serif" font-size="10.00">cmath</text>
</a>
</g>
</g>
<!-- Node2&#45;&gt;Node30 -->
<g id="edge46_Node000002_Node000030" class="edge">
<title>Node2&#45;&gt;Node30</title>
<g id="a_edge46_Node000002_Node000030"><a xlink:title=" ">
<path fill="none" stroke="#63b8ff" d="M941.89,-219.75C936.72,-212.34 929.15,-201.5 922.81,-192.41"/>
<polygon fill="#63b8ff" stroke="#63b8ff" points="925.59,-190.29 917,-184.09 919.85,-194.29 925.59,-190.29"/>
</a>
</g>
</g>
<!-- Node31 -->
<g id="Node000031" class="node">
<title>Node31</title>
<g id="a_Node000031"><a xlink:title=" ">
<polygon fill="#e0e0e0" stroke="#999999" points="1017.5,-184 952.5,-184 952.5,-165 1017.5,-165 1017.5,-184"/>
<text text-anchor="middle" x="985" y="-172" font-family="Helvetica,sans-Serif" font-size="10.00">functional</text>
</a>
</g>
</g>
<!-- Node2&#45;&gt;Node31 -->
<g id="edge50_Node000002_Node000031" class="edge">
<title>Node2&#45;&gt;Node31</title>
<g id="a_edge50_Node000002_Node000031"><a xlink:title=" ">
<path fill="none" stroke="#63b8ff" d="M954.11,-219.75C959.28,-212.34 966.85,-201.5 973.19,-192.41"/>
<polygon fill="#63b8ff" stroke="#63b8ff" points="976.15,-194.29 979,-184.09 970.41,-190.29 976.15,-194.29"/>
</a>
</g>
</g>
<!-- Node4 -->
<g id="Node000004" class="node">
<title>Node4</title>
<g id="a_Node000004"><a xlink:title=" ">
<polygon fill="#e0e0e0" stroke="#999999" points="942,-19 850,-19 850,0 942,0 942,-19"/>
<text text-anchor="middle" x="896" y="-7" font-family="Helvetica,sans-Serif" font-size="10.00">lammp/lmmp.h</text>
</a>
</g>
</g>
<!-- Node3&#45;&gt;Node4 -->
<g id="edge3_Node000003_Node000004" class="edge">
<title>Node3&#45;&gt;Node4</title>
<g id="a_edge3_Node000003_Node000004"><a xlink:title=" ">
<path fill="none" stroke="#63b8ff" d="M827.17,-54.98C839.77,-46.84 859,-34.41 873.94,-24.76"/>
<polygon fill="#63b8ff" stroke="#63b8ff" points="876.09,-27.54 882.59,-19.17 872.29,-21.66 876.09,-27.54"/>
</a>
</g>
</g>
<!-- Node5 -->
<g id="Node000005" class="node">
<title>Node5</title>
<g id="a_Node000005"><a xlink:title=" ">
<polygon fill="#e0e0e0" stroke="#999999" points="560,-19 462,-19 462,0 560,0 560,-19"/>
<text text-anchor="middle" x="511" y="-7" font-family="Helvetica,sans-Serif" font-size="10.00">lammp/lmmpn.h</text>
</a>
</g>
</g>
<!-- Node3&#45;&gt;Node5 -->
<g id="edge4_Node000003_Node000005" class="edge">
<title>Node3&#45;&gt;Node5</title>
<g id="a_edge4_Node000003_Node000005"><a xlink:title=" ">
<path fill="none" stroke="#63b8ff" d="M781.46,-56.81C778.27,-56.19 775.07,-55.57 772,-55 702.8,-42.1 623,-28.71 570.04,-20.03"/>
<polygon fill="#63b8ff" stroke="#63b8ff" points="570.58,-16.58 560.15,-18.42 569.45,-23.48 570.58,-16.58"/>
</a>
</g>
</g>
<!-- Node6 -->
<g id="Node000006" class="node">
<title>Node6</title>
<g id="a_Node000006"><a xlink:title=" ">
<polygon fill="#e0e0e0" stroke="#999999" points="673.5,-19 578.5,-19 578.5,0 673.5,0 673.5,-19"/>
<text text-anchor="middle" x="626" y="-7" font-family="Helvetica,sans-Serif" font-size="10.00">lammp/numth.h</text>
</a>
</g>
</g>
<!-- Node3&#45;&gt;Node6 -->
<g id="edge5_Node000003_Node000006" class="edge">
<title>Node3&#45;&gt;Node6</title>
<g id="a_edge5_Node000003_Node000006"><a xlink:title=" ">
<path fill="none" stroke="#63b8ff" d="M783.79,-54.98C751.96,-46.01 701.64,-31.82 666.4,-21.89"/>
<polygon fill="#63b8ff" stroke="#63b8ff" points="667.02,-18.43 656.44,-19.08 665.12,-25.16 667.02,-18.43"/>
</a>
</g>
</g>
<!-- Node7 -->
<g id="Node000007" class="node">
<title>Node7</title>
<g id="a_Node000007"><a xlink:title=" ">
<polygon fill="#e0e0e0" stroke="#999999" points="764,-19 692,-19 692,0 764,0 764,-19"/>
<text text-anchor="middle" x="728" y="-7" font-family="Helvetica,sans-Serif" font-size="10.00">lmmc/init.h</text>
</a>
</g>
</g>
<!-- Node3&#45;&gt;Node7 -->
<g id="edge6_Node000003_Node000007" class="edge">
<title>Node3&#45;&gt;Node7</title>
<g id="a_edge6_Node000003_Node000007"><a xlink:title=" ">
<path fill="none" stroke="#63b8ff" d="M800.18,-54.98C786.85,-46.77 766.42,-34.18 750.69,-24.49"/>
<polygon fill="#63b8ff" stroke="#63b8ff" points="752.42,-21.44 742.07,-19.17 748.75,-27.4 752.42,-21.44"/>
</a>
</g>
</g>
<!-- Node3&#45;&gt;Node8 -->
<g id="edge7_Node000003_Node000008" class="edge">
<title>Node3&#45;&gt;Node8</title>
<g id="a_edge7_Node000003_Node000008"><a xlink:title=" ">
<path fill="none" stroke="#63b8ff" d="M781.06,-56.39C778,-55.87 774.95,-55.39 772,-55 524.1,-22.23 455.07,-57.82 203.85,-18.78"/>
<polygon fill="#63b8ff" stroke="#63b8ff" points="204.1,-15.27 193.68,-17.17 203.01,-22.19 204.1,-15.27"/>
</a>
</g>
</g>
<!-- Node3&#45;&gt;Node9 -->
<g id="edge8_Node000003_Node000009" class="edge">
<title>Node3&#45;&gt;Node9</title>
<g id="a_edge8_Node000003_Node000009"><a xlink:title=" ">
<path fill="none" stroke="#63b8ff" d="M846.69,-59.56C899.26,-53 1006,-38.77 1106.19,-18.99"/>
<polygon fill="#63b8ff" stroke="#63b8ff" points="1107.06,-22.38 1116.18,-16.99 1105.69,-15.52 1107.06,-22.38"/>
</a>
</g>
</g>
<!-- Node10 -->
<g id="Node000010" class="node">
<title>Node10</title>
<g id="a_Node000010"><a xlink:title=" ">
<polygon fill="#e0e0e0" stroke="#999999" points="832,-19 782,-19 782,0 832,0 832,-19"/>
<text text-anchor="middle" x="807" y="-7" font-family="Helvetica,sans-Serif" font-size="10.00">cstring</text>
</a>
</g>
</g>
<!-- Node3&#45;&gt;Node10 -->
<g id="edge9_Node000003_Node000010" class="edge">
<title>Node3&#45;&gt;Node10</title>
<g id="a_edge9_Node000003_Node000010"><a xlink:title=" ">
<path fill="none" stroke="#63b8ff" d="M812.84,-54.75C811.93,-47.8 810.61,-37.85 809.46,-29.13"/>
<polygon fill="#63b8ff" stroke="#63b8ff" points="812.91,-28.54 808.13,-19.09 805.97,-29.46 812.91,-28.54"/>
</a>
</g>
</g>
<!-- Node3&#45;&gt;Node11 -->
<g id="edge10_Node000003_Node000011" class="edge">
<title>Node3&#45;&gt;Node11</title>
<g id="a_edge10_Node000003_Node000011"><a xlink:title=" ">
<path fill="none" stroke="#63b8ff" d="M781.05,-56.41C778,-55.88 774.95,-55.4 772,-55 551.44,-24.98 489.48,-56.11 266.29,-18.87"/>
<polygon fill="#63b8ff" stroke="#63b8ff" points="266.68,-15.38 256.23,-17.16 265.51,-22.28 266.68,-15.38"/>
</a>
</g>
</g>
<!-- Node3&#45;&gt;Node12 -->
<g id="edge11_Node000003_Node000012" class="edge">
<title>Node3&#45;&gt;Node12</title>
<g id="a_edge11_Node000003_Node000012"><a xlink:title=" ">
<path fill="none" stroke="#63b8ff" d="M846.64,-59.83C922.93,-51.2 1111.19,-29.53 1174,-19 1174.1,-18.98 1174.2,-18.97 1174.3,-18.95"/>
<polygon fill="#63b8ff" stroke="#63b8ff" points="1174.71,-22.43 1183.91,-17.18 1173.44,-15.55 1174.71,-22.43"/>
</a>
</g>
</g>
<!-- Node3&#45;&gt;Node13 -->
<g id="edge12_Node000003_Node000013" class="edge">
<title>Node3&#45;&gt;Node13</title>
<g id="a_edge12_Node000003_Node000013"><a xlink:title=" ">
<path fill="none" stroke="#63b8ff" d="M846.69,-56.63C892.04,-47.09 974.08,-29.83 1023.94,-19.34"/>
<polygon fill="#63b8ff" stroke="#63b8ff" points="1024.7,-22.76 1033.77,-17.28 1023.26,-15.91 1024.7,-22.76"/>
</a>
</g>
</g>
<!-- Node14 -->
<g id="Node000014" class="node">
<title>Node14</title>
<g id="a_Node000014"><a xlink:title=" ">
<polygon fill="#e0e0e0" stroke="#999999" points="1016,-19 960,-19 960,0 1016,0 1016,-19"/>
<text text-anchor="middle" x="988" y="-7" font-family="Helvetica,sans-Serif" font-size="10.00">iomanip</text>
</a>
</g>
</g>
<!-- Node3&#45;&gt;Node14 -->
<g id="edge13_Node000003_Node000014" class="edge">
<title>Node3&#45;&gt;Node14</title>
<g id="a_edge13_Node000003_Node000014"><a xlink:title=" ">
<path fill="none" stroke="#63b8ff" d="M841.96,-54.98C871.3,-46.05 917.6,-31.94 950.19,-22.02"/>
<polygon fill="#63b8ff" stroke="#63b8ff" points="951.28,-25.34 959.82,-19.08 949.24,-18.65 951.28,-25.34"/>
</a>
</g>
</g>
<!-- Node15 -->
<g id="Node000015" class="node">
<title>Node15</title>
<g id="a_Node000015"><a xlink:title=" ">
<polygon fill="#e0e0e0" stroke="#999999" points="339.5,-19 274.5,-19 274.5,0 339.5,0 339.5,-19"/>
<text text-anchor="middle" x="307" y="-7" font-family="Helvetica,sans-Serif" font-size="10.00">stdexcept</text>
</a>
</g>
</g>
<!-- Node3&#45;&gt;Node15 -->
<g id="edge14_Node000003_Node000015" class="edge">
<title>Node3&#45;&gt;Node15</title>
<g id="a_edge14_Node000003_Node000015"><a xlink:title=" ">
<path fill="none" stroke="#63b8ff" d="M781.05,-56.46C778,-55.92 774.95,-55.42 772,-55 588.42,-28.7 537.5,-45.17 349.87,-18.95"/>
<polygon fill="#63b8ff" stroke="#63b8ff" points="350.35,-15.48 339.95,-17.54 349.36,-22.41 350.35,-15.48"/>
</a>
</g>
</g>
<!-- Node3&#45;&gt;Node16 -->
<g id="edge15_Node000003_Node000016" class="edge">
<title>Node3&#45;&gt;Node16</title>
<g id="a_edge15_Node000003_Node000016"><a xlink:title=" ">
<path fill="none" stroke="#63b8ff" d="M846.69,-59.98C861.18,-58.43 878.44,-56.61 894,-55 1050.24,-38.87 1093.58,-47.91 1251.67,-18.95"/>
<polygon fill="#63b8ff" stroke="#63b8ff" points="1252.56,-22.34 1261.75,-17.08 1251.28,-15.46 1252.56,-22.34"/>
</a>
</g>
</g>
<!-- Node17 -->
<g id="Node000017" class="node">
<title>Node17</title>
<g id="a_Node000017"><a xlink:title=" ">
<polygon fill="#e0e0e0" stroke="#999999" points="444,-19 358,-19 358,0 444,0 444,-19"/>
<text text-anchor="middle" x="401" y="-7" font-family="Helvetica,sans-Serif" font-size="10.00">lmmc/config.h</text>
</a>
</g>
</g>
<!-- Node3&#45;&gt;Node17 -->
<g id="edge16_Node000003_Node000017" class="edge">
<title>Node3&#45;&gt;Node17</title>
<g id="a_edge16_Node000003_Node000017"><a xlink:title=" ">
<path fill="none" stroke="#63b8ff" d="M781.49,-56.63C778.29,-56.04 775.09,-55.49 772,-55 634.22,-33.33 596.04,-38.27 454.06,-19.08"/>
<polygon fill="#63b8ff" stroke="#63b8ff" points="454.49,-15.6 444.11,-17.72 453.54,-22.54 454.49,-15.6"/>
</a>
</g>
</g>
<!-- Node18&#45;&gt;Node3 -->
<g id="edge20_Node000018_Node000003" class="edge">
<title>Node18&#45;&gt;Node3</title>
<g id="a_edge20_Node000018_Node000003"><a xlink:title=" ">
<path fill="none" stroke="#63b8ff" d="M798.97,-109.75C801.36,-102.72 804.79,-92.62 807.77,-83.84"/>
<polygon fill="#63b8ff" stroke="#63b8ff" points="811.18,-84.68 811.08,-74.09 804.55,-82.43 811.18,-84.68"/>
</a>
</g>
</g>
<!-- Node18&#45;&gt;Node11 -->
<g id="edge24_Node000018_Node000011" class="edge">
<title>Node18&#45;&gt;Node11</title>
<g id="a_edge24_Node000018_Node000011"><a xlink:title=" ">
<path fill="none" stroke="#63b8ff" d="M758.3,-111.61C755.16,-111.06 752.02,-110.52 749,-110 649.17,-92.99 622.43,-97.84 524,-74 497.64,-67.62 492.3,-61.63 466,-55 381.09,-33.6 355.32,-38.62 266.28,-19.1"/>
<polygon fill="#63b8ff" stroke="#63b8ff" points="266.81,-15.64 256.29,-16.87 265.29,-22.47 266.81,-15.64"/>
</a>
</g>
</g>
<!-- Node18&#45;&gt;Node14 -->
<g id="edge21_Node000018_Node000014" class="edge">
<title>Node18&#45;&gt;Node14</title>
<g id="a_edge21_Node000018_Node000014"><a xlink:title=" ">
<path fill="none" stroke="#63b8ff" d="M808.05,-109.94C826.23,-97.21 861.95,-72.87 894,-55 915.08,-43.25 939.78,-31.63 958.57,-23.22"/>
<polygon fill="#63b8ff" stroke="#63b8ff" points="960.08,-26.38 967.81,-19.13 957.25,-19.98 960.08,-26.38"/>
</a>
</g>
</g>
<!-- Node18&#45;&gt;Node15 -->
<g id="edge23_Node000018_Node000015" class="edge">
<title>Node18&#45;&gt;Node15</title>
<g id="a_edge23_Node000018_Node000015"><a xlink:title=" ">
<path fill="none" stroke="#63b8ff" d="M758.09,-111.62C704.37,-101.73 608.88,-83.66 575,-74 551.74,-67.37 547.25,-61.67 524,-55 519.79,-53.79 411.48,-31.73 349.5,-19.13"/>
<polygon fill="#63b8ff" stroke="#63b8ff" points="350.11,-15.68 339.61,-17.12 348.71,-22.54 350.11,-15.68"/>
</a>
</g>
</g>
<!-- Node18&#45;&gt;Node17 -->
<g id="edge18_Node000018_Node000017" class="edge">
<title>Node18&#45;&gt;Node17</title>
<g id="a_edge18_Node000018_Node000017"><a xlink:title=" ">
<path fill="none" stroke="#63b8ff" d="M759.79,-110C725.38,-101.68 672.31,-88.21 627,-74 603.52,-66.64 598.5,-62.28 575,-55 532.85,-41.94 484.12,-29.72 448.97,-21.4"/>
<polygon fill="#63b8ff" stroke="#63b8ff" points="449.52,-17.94 438.98,-19.06 447.92,-24.75 449.52,-17.94"/>
</a>
</g>
</g>
<!-- Node19 -->
<g id="Node000019" class="node">
<title>Node19</title>
<g id="a_Node000019"><a xlink:title=" ">
<polygon fill="#e0e0e0" stroke="#999999" points="457,-74 361,-74 361,-55 457,-55 457,-74"/>
<text text-anchor="middle" x="409" y="-62" font-family="Helvetica,sans-Serif" font-size="10.00">lmmc/numeric.h</text>
</a>
</g>
</g>
<!-- Node18&#45;&gt;Node19 -->
<g id="edge19_Node000018_Node000019" class="edge">
<title>Node18&#45;&gt;Node19</title>
<g id="a_edge19_Node000018_Node000019"><a xlink:title=" ">
<path fill="none" stroke="#63b8ff" d="M758.32,-111.52C755.17,-110.99 752.03,-110.47 749,-110 650.39,-94.64 535.12,-80.31 467.31,-72.25"/>
<polygon fill="#63b8ff" stroke="#63b8ff" points="467.59,-68.76 457.25,-71.06 466.77,-75.71 467.59,-68.76"/>
</a>
</g>
</g>
<!-- Node20 -->
<g id="Node000020" class="node">
<title>Node20</title>
<g id="a_Node000020"><a xlink:title=" ">
<polygon fill="#e0e0e0" stroke="#999999" points="692,-74 636,-74 636,-55 692,-55 692,-74"/>
<text text-anchor="middle" x="664" y="-62" font-family="Helvetica,sans-Serif" font-size="10.00">sstream</text>
</a>
</g>
</g>
<!-- Node18&#45;&gt;Node20 -->
<g id="edge22_Node000018_Node000020" class="edge">
<title>Node18&#45;&gt;Node20</title>
<g id="a_edge22_Node000018_Node000020"><a xlink:title=" ">
<path fill="none" stroke="#63b8ff" d="M774.79,-109.98C753.27,-101.34 719.72,-87.87 695.17,-78.02"/>
<polygon fill="#63b8ff" stroke="#63b8ff" points="696.18,-74.65 685.59,-74.17 693.57,-81.14 696.18,-74.65"/>
</a>
</g>
</g>
<!-- Node18&#45;&gt;Node21 -->
<g id="edge25_Node000018_Node000021" class="edge">
<title>Node18&#45;&gt;Node21</title>
<g id="a_edge25_Node000018_Node000021"><a xlink:title=" ">
<path fill="none" stroke="#63b8ff" d="M816.24,-109.98C837.06,-101.23 869.67,-87.51 893.18,-77.62"/>
<polygon fill="#63b8ff" stroke="#63b8ff" points="894.77,-80.75 902.63,-73.65 892.06,-74.3 894.77,-80.75"/>
</a>
</g>
</g>
<!-- Node22 -->
<g id="Node000022" class="node">
<title>Node22</title>
<g id="a_Node000022"><a xlink:title=" ">
<polygon fill="#e0e0e0" stroke="#999999" points="763.5,-74 710.5,-74 710.5,-55 763.5,-55 763.5,-74"/>
<text text-anchor="middle" x="737" y="-62" font-family="Helvetica,sans-Serif" font-size="10.00">stdint.h</text>
</a>
</g>
</g>
<!-- Node18&#45;&gt;Node22 -->
<g id="edge26_Node000018_Node000022" class="edge">
<title>Node18&#45;&gt;Node22</title>
<g id="a_edge26_Node000018_Node000022"><a xlink:title=" ">
<path fill="none" stroke="#63b8ff" d="M786.52,-109.98C777.8,-102.15 764.66,-90.34 754.1,-80.86"/>
<polygon fill="#63b8ff" stroke="#63b8ff" points="756.43,-78.25 746.65,-74.17 751.75,-83.46 756.43,-78.25"/>
</a>
</g>
</g>
<!-- Node23&#45;&gt;Node3 -->
<g id="edge37_Node000023_Node000003" class="edge">
<title>Node23&#45;&gt;Node3</title>
<g id="a_edge37_Node000023_Node000003"><a xlink:title=" ">
<path fill="none" stroke="#63b8ff" d="M626.14,-172.53C695.78,-170.01 814.89,-161 842,-129 853.74,-115.14 841.95,-95.59 830.27,-81.86"/>
<polygon fill="#63b8ff" stroke="#63b8ff" points="832.55,-79.17 823.22,-74.16 827.39,-83.9 832.55,-79.17"/>
</a>
</g>
</g>
<!-- Node23&#45;&gt;Node8 -->
<g id="edge29_Node000023_Node000008" class="edge">
<title>Node23&#45;&gt;Node8</title>
<g id="a_edge29_Node000023_Node000008"><a xlink:title=" ">
<path fill="none" stroke="#63b8ff" d="M523.77,-173.34C467.54,-171.32 375.86,-162.52 305,-129 252.83,-104.32 205.53,-53.39 183.33,-27.06"/>
<polygon fill="#63b8ff" stroke="#63b8ff" points="185.86,-24.63 176.79,-19.15 180.46,-29.09 185.86,-24.63"/>
</a>
</g>
</g>
<!-- Node23&#45;&gt;Node11 -->
<g id="edge30_Node000023_Node000011" class="edge">
<title>Node23&#45;&gt;Node11</title>
<g id="a_edge30_Node000023_Node000011"><a xlink:title=" ">
<path fill="none" stroke="#63b8ff" d="M523.57,-174.08C471.82,-172.48 391.38,-163.83 332,-129 289.94,-104.33 258.01,-54.53 243.16,-28.03"/>
<polygon fill="#63b8ff" stroke="#63b8ff" points="246.17,-26.23 238.33,-19.11 240.02,-29.57 246.17,-26.23"/>
</a>
</g>
</g>
<!-- Node23&#45;&gt;Node13 -->
<g id="edge32_Node000023_Node000013" class="edge">
<title>Node23&#45;&gt;Node13</title>
<g id="a_edge32_Node000023_Node000013"><a xlink:title=" ">
<path fill="none" stroke="#63b8ff" d="M626.24,-172.97C689.32,-170.8 798.78,-162.05 886,-129 951.88,-104.04 1018.23,-51.69 1048.71,-25.74"/>
<polygon fill="#63b8ff" stroke="#63b8ff" points="1051.05,-28.35 1056.33,-19.17 1046.47,-23.05 1051.05,-28.35"/>
</a>
</g>
</g>
<!-- Node23&#45;&gt;Node15 -->
<g id="edge40_Node000023_Node000015" class="edge">
<title>Node23&#45;&gt;Node15</title>
<g id="a_edge40_Node000023_Node000015"><a xlink:title=" ">
<path fill="none" stroke="#63b8ff" d="M523.81,-169.02C466.23,-163.01 377.42,-150.52 352,-129 322,-103.61 311.96,-55.98 308.63,-29.49"/>
<polygon fill="#63b8ff" stroke="#63b8ff" points="312.08,-28.84 307.55,-19.27 305.12,-29.58 312.08,-28.84"/>
</a>
</g>
</g>
<!-- Node23&#45;&gt;Node17 -->
<g id="edge38_Node000023_Node000017" class="edge">
<title>Node23&#45;&gt;Node17</title>
<g id="a_edge38_Node000023_Node000017"><a xlink:title=" ">
<path fill="none" stroke="#63b8ff" d="M523.96,-167.68C472.08,-160.82 396.27,-147.91 374,-129 347.85,-106.79 338.11,-86.37 352,-55 357.32,-42.97 367.68,-32.8 377.51,-25.24"/>
<polygon fill="#63b8ff" stroke="#63b8ff" points="379.76,-27.93 385.87,-19.27 375.7,-22.23 379.76,-27.93"/>
</a>
</g>
</g>
<!-- Node23&#45;&gt;Node18 -->
<g id="edge36_Node000023_Node000018" class="edge">
<title>Node23&#45;&gt;Node18</title>
<g id="a_edge36_Node000023_Node000018"><a xlink:title=" ">
<path fill="none" stroke="#63b8ff" d="M610.51,-164.98C648.49,-155.87 708.87,-141.4 750.36,-131.45"/>
<polygon fill="#63b8ff" stroke="#63b8ff" points="751.31,-134.82 760.21,-129.08 749.67,-128.01 751.31,-134.82"/>
</a>
</g>
</g>
<!-- Node23&#45;&gt;Node19 -->
<g id="edge39_Node000023_Node000019" class="edge">
<title>Node23&#45;&gt;Node19</title>
<g id="a_edge39_Node000023_Node000019"><a xlink:title=" ">
<path fill="none" stroke="#63b8ff" d="M523.53,-168.78C472.47,-162.9 399.4,-150.86 382,-129 370.76,-114.87 382.11,-95.37 393.35,-81.72"/>
<polygon fill="#63b8ff" stroke="#63b8ff" points="396.12,-83.88 400.13,-74.07 390.88,-79.23 396.12,-83.88"/>
</a>
</g>
</g>
<!-- Node23&#45;&gt;Node21 -->
<g id="edge42_Node000023_Node000021" class="edge">
<title>Node23&#45;&gt;Node21</title>
<g id="a_edge42_Node000023_Node000021"><a xlink:title=" ">
<path fill="none" stroke="#63b8ff" d="M626.12,-169.33C696.57,-162.94 819.28,-149.3 859,-129 880.3,-118.12 898.78,-97.34 910.12,-82.52"/>
<polygon fill="#63b8ff" stroke="#63b8ff" points="913.12,-84.33 916.21,-74.2 907.48,-80.19 913.12,-84.33"/>
</a>
</g>
</g>
<!-- Node23&#45;&gt;Node24 -->
<g id="edge28_Node000023_Node000024" class="edge">
<title>Node23&#45;&gt;Node24</title>
<g id="a_edge28_Node000023_Node000024"><a xlink:title=" ">
<path fill="none" stroke="#63b8ff" d="M523.68,-167.57C431.14,-156.89 238.24,-134.61 155.3,-125.04"/>
<polygon fill="#63b8ff" stroke="#63b8ff" points="155.61,-121.55 145.27,-123.88 154.81,-128.5 155.61,-121.55"/>
</a>
</g>
</g>
<!-- Node23&#45;&gt;Node25 -->
<g id="edge31_Node000023_Node000025" class="edge">
<title>Node23&#45;&gt;Node25</title>
<g id="a_edge31_Node000023_Node000025"><a xlink:title=" ">
<path fill="none" stroke="#63b8ff" d="M626.01,-169.73C704.53,-163.53 859.59,-149.79 990,-129 991.45,-128.77 992.92,-128.52 994.4,-128.26"/>
<polygon fill="#63b8ff" stroke="#63b8ff" points="995.09,-131.69 1004.25,-126.38 993.77,-124.82 995.09,-131.69"/>
</a>
</g>
</g>
<!-- Node26 -->
<g id="Node000026" class="node">
<title>Node26</title>
<g id="a_Node000026"><a xlink:title=" ">
<polygon fill="#e0e0e0" stroke="#999999" points="456.5,-129 391.5,-129 391.5,-110 456.5,-110 456.5,-129"/>
<text text-anchor="middle" x="424" y="-117" font-family="Helvetica,sans-Serif" font-size="10.00">typeindex</text>
</a>
</g>
</g>
<!-- Node23&#45;&gt;Node26 -->
<g id="edge33_Node000023_Node000026" class="edge">
<title>Node23&#45;&gt;Node26</title>
<g id="a_edge33_Node000023_Node000026"><a xlink:title=" ">
<path fill="none" stroke="#63b8ff" d="M550.74,-164.98C525.68,-156.19 486.37,-142.39 458.17,-132.49"/>
<polygon fill="#63b8ff" stroke="#63b8ff" points="459.3,-129.18 448.7,-129.17 456.98,-135.78 459.3,-129.18"/>
</a>
</g>
</g>
<!-- Node27 -->
<g id="Node000027" class="node">
<title>Node27</title>
<g id="a_Node000027"><a xlink:title=" ">
<polygon fill="#e0e0e0" stroke="#999999" points="567.5,-129 474.5,-129 474.5,-110 567.5,-110 567.5,-129"/>
<text text-anchor="middle" x="521" y="-117" font-family="Helvetica,sans-Serif" font-size="10.00">unordered_map</text>
</a>
</g>
</g>
<!-- Node23&#45;&gt;Node27 -->
<g id="edge34_Node000023_Node000027" class="edge">
<title>Node23&#45;&gt;Node27</title>
<g id="a_edge34_Node000023_Node000027"><a xlink:title=" ">
<path fill="none" stroke="#63b8ff" d="M566.08,-164.75C558.22,-157.03 546.57,-145.6 537.08,-136.28"/>
<polygon fill="#63b8ff" stroke="#63b8ff" points="539.34,-133.6 529.75,-129.09 534.44,-138.59 539.34,-133.6"/>
</a>
</g>
</g>
<!-- Node28 -->
<g id="Node000028" class="node">
<title>Node28</title>
<g id="a_Node000028"><a xlink:title=" ">
<polygon fill="#e0e0e0" stroke="#999999" points="672,-129 586,-129 586,-110 672,-110 672,-129"/>
<text text-anchor="middle" x="629" y="-117" font-family="Helvetica,sans-Serif" font-size="10.00">unordered_set</text>
</a>
</g>
</g>
<!-- Node23&#45;&gt;Node28 -->
<g id="edge35_Node000023_Node000028" class="edge">
<title>Node23&#45;&gt;Node28</title>
<g id="a_edge35_Node000023_Node000028"><a xlink:title=" ">
<path fill="none" stroke="#63b8ff" d="M583.92,-164.75C591.78,-157.03 603.43,-145.6 612.92,-136.28"/>
<polygon fill="#63b8ff" stroke="#63b8ff" points="615.56,-138.59 620.25,-129.09 610.66,-133.6 615.56,-138.59"/>
</a>
</g>
</g>
<!-- Node29 -->
<g id="Node000029" class="node">
<title>Node29</title>
<g id="a_Node000029"><a xlink:title=" ">
<polygon fill="#e0e0e0" stroke="#999999" points="740,-129 690,-129 690,-110 740,-110 740,-129"/>
<text text-anchor="middle" x="715" y="-117" font-family="Helvetica,sans-Serif" font-size="10.00">atomic</text>
</a>
</g>
</g>
<!-- Node23&#45;&gt;Node29 -->
<g id="edge41_Node000023_Node000029" class="edge">
<title>Node23&#45;&gt;Node29</title>
<g id="a_edge41_Node000023_Node000029"><a xlink:title=" ">
<path fill="none" stroke="#63b8ff" d="M597.49,-164.98C620.52,-156.27 656.54,-142.63 682.63,-132.75"/>
<polygon fill="#63b8ff" stroke="#63b8ff" points="683.98,-135.98 692.1,-129.17 681.51,-129.44 683.98,-135.98"/>
</a>
</g>
</g>
</g>
</svg>
