<?xml version="1.0" encoding="UTF-8" standalone="no"?>
<!DOCTYPE svg PUBLIC "-//W3C//DTD SVG 1.1//EN"
 "http://www.w3.org/Graphics/SVG/1.1/DTD/svg11.dtd">
<!-- Generated by graphviz version 2.43.0 (0)
 -->
<!-- Title: pow_nPr_ Pages: 1 -->
<svg width="386pt" height="286pt"
 viewBox="0.00 0.00 386.00 286.00" xmlns="http://www.w3.org/2000/svg" xmlns:xlink="http://www.w3.org/1999/xlink">
<g id="graph0" class="graph" transform="scale(1 1) rotate(0) translate(4 282)">
<title>pow_nPr_</title>
<!-- Node1 -->
<g id="Node000001" class="node">
<title>Node1</title>
<g id="a_Node000001"><a xlink:title=" ">
<polygon fill="#999999" stroke="#666666" points="63,-111 0,-111 0,-92 63,-92 63,-111"/>
<text text-anchor="middle" x="31.5" y="-99" font-family="Helvetica,sans-Serif" font-size="10.00">pow_nPr_</text>
</a>
</g>
</g>
<!-- Node2 -->
<g id="Node000002" class="node">
<title>Node2</title>
<g id="a_Node000002"><a xlink:href="../../df/db3/arith__seqprod_8c.html#ae60f47e021d99060830454d269903719" target="_top" xlink:title=" ">
<polygon fill="white" stroke="#666666" points="188,-241 122,-241 122,-222 188,-222 188,-241"/>
<text text-anchor="middle" x="155" y="-229" font-family="Helvetica,sans-Serif" font-size="10.00">_odd_nPr_</text>
</a>
</g>
</g>
<!-- Node1&#45;&gt;Node2 -->
<g id="edge1_Node000001_Node000002" class="edge">
<title>Node1&#45;&gt;Node2</title>
<g id="a_edge1_Node000001_Node000002"><a xlink:title=" ">
<path fill="none" stroke="#63b8ff" d="M40.92,-111.38C53.37,-125.88 77.53,-153.7 99,-176.5 111.37,-189.63 125.8,-204.03 136.78,-214.81"/>
<polygon fill="#63b8ff" stroke="#63b8ff" points="134.48,-217.46 144.08,-221.94 139.37,-212.45 134.48,-217.46"/>
</a>
</g>
</g>
<!-- Node5 -->
<g id="Node000005" class="node">
<title>Node5</title>
<g id="a_Node000005"><a xlink:href="../../df/db3/arith__seqprod_8c.html#ae039beef85c495e90fc45b7ba20fc8f8" target="_top" xlink:title=" ">
<polygon fill="white" stroke="#666666" points="190.5,-167 119.5,-167 119.5,-148 190.5,-148 190.5,-167"/>
<text text-anchor="middle" x="155" y="-155" font-family="Helvetica,sans-Serif" font-size="10.00">_odd_pow_</text>
</a>
</g>
</g>
<!-- Node1&#45;&gt;Node5 -->
<g id="edge4_Node000001_Node000005" class="edge">
<title>Node1&#45;&gt;Node5</title>
<g id="a_edge4_Node000001_Node000005"><a xlink:title=" ">
<path fill="none" stroke="#63b8ff" d="M47.36,-111.16C60.55,-119.44 80.53,-131.3 99,-139.5 102.93,-141.24 107.07,-142.9 111.26,-144.47"/>
<polygon fill="#63b8ff" stroke="#63b8ff" points="110.42,-147.88 121.02,-147.91 112.75,-141.28 110.42,-147.88"/>
</a>
</g>
</g>
<!-- Node10 -->
<g id="Node000010" class="node">
<title>Node10</title>
<g id="a_Node000010"><a xlink:href="../../d6/d39/lmmpn_8h.html#a72d4d8c682124218c7a0c7c3e5f818ce" target="_top" xlink:title="不等长大数乘法操作 [dst,na+nb] = [numa,na] * [numb,nb]">
<polygon fill="white" stroke="#666666" points="192,-130 118,-130 118,-111 192,-111 192,-130"/>
<text text-anchor="middle" x="155" y="-118" font-family="Helvetica,sans-Serif" font-size="10.00">lmmp_mul_</text>
</a>
</g>
</g>
<!-- Node1&#45;&gt;Node10 -->
<g id="edge9_Node000001_Node000010" class="edge">
<title>Node1&#45;&gt;Node10</title>
<g id="a_edge9_Node000001_Node000010"><a xlink:title=" ">
<path fill="none" stroke="#63b8ff" d="M63.16,-106.29C76.64,-108.4 92.76,-110.92 107.66,-113.25"/>
<polygon fill="#63b8ff" stroke="#63b8ff" points="107.31,-116.74 117.73,-114.83 108.39,-109.83 107.31,-116.74"/>
</a>
</g>
</g>
<!-- Node11 -->
<g id="Node000011" class="node">
<title>Node11</title>
<g id="a_Node000011"><a xlink:href="../../de/da4/numth_8h.html#a9f646e0690a56e9d690ab9b4fbdf5157" target="_top" xlink:title="计算 nPr 排列数的 limb 缓冲区长度">
<polygon fill="white" stroke="#666666" points="203,-93 107,-93 107,-74 203,-74 203,-93"/>
<text text-anchor="middle" x="155" y="-81" font-family="Helvetica,sans-Serif" font-size="10.00">lmmp_nPr_size_</text>
</a>
</g>
</g>
<!-- Node1&#45;&gt;Node11 -->
<g id="edge10_Node000001_Node000011" class="edge">
<title>Node1&#45;&gt;Node11</title>
<g id="a_edge10_Node000001_Node000011"><a xlink:title=" ">
<path fill="none" stroke="#63b8ff" d="M63.16,-96.96C73.38,-95.44 85.12,-93.7 96.7,-91.99"/>
<polygon fill="#63b8ff" stroke="#63b8ff" points="97.41,-95.42 106.79,-90.49 96.38,-88.5 97.41,-95.42"/>
</a>
</g>
</g>
<!-- Node12 -->
<g id="Node000012" class="node">
<title>Node12</title>
<g id="a_Node000012"><a xlink:href="../../de/da4/numth_8h.html#a64bfddca105ad44029494495e026cc22" target="_top" xlink:title="计算幂次方需要的limb缓冲区长度 base ^ exp">
<polygon fill="white" stroke="#666666" points="211,-56 99,-56 99,-37 211,-37 211,-56"/>
<text text-anchor="middle" x="155" y="-44" font-family="Helvetica,sans-Serif" font-size="10.00">lmmp_pow_1_size_</text>
</a>
</g>
</g>
<!-- Node1&#45;&gt;Node12 -->
<g id="edge11_Node000001_Node000012" class="edge">
<title>Node1&#45;&gt;Node12</title>
<g id="a_edge11_Node000001_Node000012"><a xlink:title=" ">
<path fill="none" stroke="#63b8ff" d="M47.66,-91.96C60.87,-83.93 80.72,-72.49 99,-64.5 103.1,-62.71 107.43,-61 111.8,-59.39"/>
<polygon fill="#63b8ff" stroke="#63b8ff" points="113.05,-62.66 121.33,-56.05 110.74,-56.05 113.05,-62.66"/>
</a>
</g>
</g>
<!-- Node13 -->
<g id="Node000013" class="node">
<title>Node13</title>
<g id="a_Node000013"><a xlink:href="../../d1/d49/shl_8c.html#a6d5aca3454f13e3fcaedba3a15b03823" target="_top" xlink:title="大数左移操作 [dst,na] = [numa,na]&lt;&lt;shl，dst的低shl位填充0">
<polygon fill="white" stroke="#666666" points="190,-19 120,-19 120,0 190,0 190,-19"/>
<text text-anchor="middle" x="155" y="-7" font-family="Helvetica,sans-Serif" font-size="10.00">lmmp_shl_</text>
</a>
</g>
</g>
<!-- Node1&#45;&gt;Node13 -->
<g id="edge12_Node000001_Node000013" class="edge">
<title>Node1&#45;&gt;Node13</title>
<g id="a_edge12_Node000001_Node000013"><a xlink:title=" ">
<path fill="none" stroke="#63b8ff" d="M38.66,-91.86C49.17,-76.16 72.08,-45.04 99,-27.5 102.55,-25.19 106.43,-23.15 110.42,-21.35"/>
<polygon fill="#63b8ff" stroke="#63b8ff" points="111.86,-24.55 119.86,-17.6 109.28,-18.04 111.86,-24.55"/>
</a>
</g>
</g>
<!-- Node3 -->
<g id="Node000003" class="node">
<title>Node3</title>
<g id="a_Node000003"><a xlink:href="../../de/da4/numth_8h.html#af3cab947e86c84bf8ac5e21f42931195" target="_top" xlink:title="计算 nPr 排列数的奇数部分">
<polygon fill="white" stroke="#666666" points="372,-278 253,-278 253,-259 372,-259 372,-278"/>
<text text-anchor="middle" x="312.5" y="-266" font-family="Helvetica,sans-Serif" font-size="10.00">lmmp_odd_nPr_uint_</text>
</a>
</g>
</g>
<!-- Node2&#45;&gt;Node3 -->
<g id="edge2_Node000002_Node000003" class="edge">
<title>Node2&#45;&gt;Node3</title>
<g id="a_edge2_Node000002_Node000003"><a xlink:title=" ">
<path fill="none" stroke="#63b8ff" d="M188.22,-239.17C209.31,-244.19 237.31,-250.85 261.29,-256.55"/>
<polygon fill="#63b8ff" stroke="#63b8ff" points="260.76,-260.02 271.3,-258.93 262.38,-253.21 260.76,-260.02"/>
</a>
</g>
</g>
<!-- Node4 -->
<g id="Node000004" class="node">
<title>Node4</title>
<g id="a_Node000004"><a xlink:href="../../de/da4/numth_8h.html#a2b68a8ccfa2cc3ce2dc08111560fd87b" target="_top" xlink:title="计算 nPr 排列数的奇数部分">
<polygon fill="white" stroke="#666666" points="378,-241 247,-241 247,-222 378,-222 378,-241"/>
<text text-anchor="middle" x="312.5" y="-229" font-family="Helvetica,sans-Serif" font-size="10.00">lmmp_odd_nPr_ushort_</text>
</a>
</g>
</g>
<!-- Node2&#45;&gt;Node4 -->
<g id="edge3_Node000002_Node000004" class="edge">
<title>Node2&#45;&gt;Node4</title>
<g id="a_edge3_Node000002_Node000004"><a xlink:title=" ">
<path fill="none" stroke="#63b8ff" d="M188.22,-231.5C202.42,-231.5 219.76,-231.5 236.89,-231.5"/>
<polygon fill="#63b8ff" stroke="#63b8ff" points="236.92,-235 246.92,-231.5 236.92,-228 236.92,-235"/>
</a>
</g>
</g>
<!-- Node6 -->
<g id="Node000006" class="node">
<title>Node6</title>
<g id="a_Node000006"><a xlink:href="../../de/da4/numth_8h.html#a781337f09d84cd325a21b5fb397ffb81" target="_top" xlink:title="计算幂次方 [dst,rn] = [base,1] ^ exp">
<polygon fill="white" stroke="#666666" points="367.5,-204 257.5,-204 257.5,-185 367.5,-185 367.5,-204"/>
<text text-anchor="middle" x="312.5" y="-192" font-family="Helvetica,sans-Serif" font-size="10.00">lmmp_u16_pow_1_</text>
</a>
</g>
</g>
<!-- Node5&#45;&gt;Node6 -->
<g id="edge5_Node000005_Node000006" class="edge">
<title>Node5&#45;&gt;Node6</title>
<g id="a_edge5_Node000005_Node000006"><a xlink:title=" ">
<path fill="none" stroke="#63b8ff" d="M190.51,-165.71C211.32,-170.66 238.19,-177.06 261.32,-182.56"/>
<polygon fill="#63b8ff" stroke="#63b8ff" points="260.77,-186.03 271.31,-184.94 262.39,-179.22 260.77,-186.03"/>
</a>
</g>
</g>
<!-- Node7 -->
<g id="Node000007" class="node">
<title>Node7</title>
<g id="a_Node000007"><a xlink:href="../../de/da4/numth_8h.html#a44e71645f4752fd3d2542e0e78a83fa8" target="_top" xlink:title="计算幂次方 [dst,rn] = [base,1] ^ exp">
<polygon fill="white" stroke="#666666" points="367.5,-167 257.5,-167 257.5,-148 367.5,-148 367.5,-167"/>
<text text-anchor="middle" x="312.5" y="-155" font-family="Helvetica,sans-Serif" font-size="10.00">lmmp_u32_pow_1_</text>
</a>
</g>
</g>
<!-- Node5&#45;&gt;Node7 -->
<g id="edge6_Node000005_Node000007" class="edge">
<title>Node5&#45;&gt;Node7</title>
<g id="a_edge6_Node000005_Node000007"><a xlink:title=" ">
<path fill="none" stroke="#63b8ff" d="M190.51,-157.5C207.2,-157.5 227.78,-157.5 247.21,-157.5"/>
<polygon fill="#63b8ff" stroke="#63b8ff" points="247.23,-161 257.23,-157.5 247.23,-154 247.23,-161"/>
</a>
</g>
</g>
<!-- Node8 -->
<g id="Node000008" class="node">
<title>Node8</title>
<g id="a_Node000008"><a xlink:href="../../de/da4/numth_8h.html#a249b6ceb8a91070438fec379f3474211" target="_top" xlink:title="计算幂次方 [dst,rn] = [base,1] ^ exp">
<polygon fill="white" stroke="#666666" points="364.5,-130 260.5,-130 260.5,-111 364.5,-111 364.5,-130"/>
<text text-anchor="middle" x="312.5" y="-118" font-family="Helvetica,sans-Serif" font-size="10.00">lmmp_u4_pow_1_</text>
</a>
</g>
</g>
<!-- Node5&#45;&gt;Node8 -->
<g id="edge7_Node000005_Node000008" class="edge">
<title>Node5&#45;&gt;Node8</title>
<g id="a_edge7_Node000005_Node000008"><a xlink:title=" ">
<path fill="none" stroke="#63b8ff" d="M190.51,-149.29C211.32,-144.34 238.19,-137.94 261.32,-132.44"/>
<polygon fill="#63b8ff" stroke="#63b8ff" points="262.39,-135.78 271.31,-130.06 260.77,-128.97 262.39,-135.78"/>
</a>
</g>
</g>
<!-- Node9 -->
<g id="Node000009" class="node">
<title>Node9</title>
<g id="a_Node000009"><a xlink:href="../../de/da4/numth_8h.html#a743f2ac1599097678c4ea3d7f7ee3736" target="_top" xlink:title="计算幂次方 [dst,rn] = [base,1] ^ exp">
<polygon fill="white" stroke="#666666" points="364.5,-93 260.5,-93 260.5,-74 364.5,-74 364.5,-93"/>
<text text-anchor="middle" x="312.5" y="-81" font-family="Helvetica,sans-Serif" font-size="10.00">lmmp_u8_pow_1_</text>
</a>
</g>
</g>
<!-- Node5&#45;&gt;Node9 -->
<g id="edge8_Node000005_Node000009" class="edge">
<title>Node5&#45;&gt;Node9</title>
<g id="a_edge8_Node000005_Node000009"><a xlink:title=" ">
<path fill="none" stroke="#63b8ff" d="M190.59,-149.01C197.63,-146.51 204.78,-143.38 211,-139.5 230.47,-127.36 227.35,-114.35 247,-102.5 250.6,-100.33 254.46,-98.39 258.44,-96.67"/>
<polygon fill="#63b8ff" stroke="#63b8ff" points="259.81,-99.89 267.87,-93.02 257.28,-93.36 259.81,-99.89"/>
</a>
</g>
</g>
</g>
</svg>
