<?xml version="1.0" encoding="UTF-8" standalone="no"?>
<!DOCTYPE svg PUBLIC "-//W3C//DTD SVG 1.1//EN"
 "http://www.w3.org/Graphics/SVG/1.1/DTD/svg11.dtd">
<!-- Generated by graphviz version 2.43.0 (0)
 -->
<!-- Title: _odd_pow_ Pages: 1 -->
<svg width="225pt" height="138pt"
 viewBox="0.00 0.00 225.00 138.00" xmlns="http://www.w3.org/2000/svg" xmlns:xlink="http://www.w3.org/1999/xlink">

<svg id="main" version="1.1" xmlns="http://www.w3.org/2000/svg" xmlns:xlink="http://www.w3.org/1999/xlink" xml:space="preserve" onload="init(evt)">
<style type="text/css"><![CDATA[
.node, .edge {opacity: 0.7;}
.node.selected, .edge.selected {opacity: 1;}
.edge:hover path { stroke: red; }
.edge:hover polygon { stroke: red; fill: red; }
]]></style>
<script type="application/ecmascript" xlink:href="../../svg.min.js"/>
<svg id="graph" class="graph">
<g id="graph0" class="graph" transform="scale(1 1) rotate(0) translate(4 134)">
<title>_odd_pow_</title>
<!-- Node1 -->
<g id="Node000001" class="node">
<title>Node1</title>
<g id="a_Node000001"><a xlink:title=" ">
<polygon fill="#999999" stroke="#666666" points="71,-74 0,-74 0,-55 71,-55 71,-74"/>
<text text-anchor="middle" x="35.5" y="-62" font-family="Helvetica,sans-Serif" font-size="10.00">_odd_pow_</text>
</a>
</g>
</g>
<!-- Node2 -->
<g id="Node000002" class="node">
<title>Node2</title>
<g id="a_Node000002"><a xlink:href="../../de/da4/numth_8h.html#a781337f09d84cd325a21b5fb397ffb81" target="_top" xlink:title="计算幂次方 [dst,rn] = [base,1] ^ exp">
<polygon fill="white" stroke="#666666" points="217,-130 107,-130 107,-111 217,-111 217,-130"/>
<text text-anchor="middle" x="162" y="-118" font-family="Helvetica,sans-Serif" font-size="10.00">lmmp_u16_pow_1_</text>
</a>
</g>
</g>
<!-- Node1&#45;&gt;Node2 -->
<g id="edge1_Node000001_Node000002" class="edge">
<title>Node1&#45;&gt;Node2</title>
<g id="a_edge1_Node000001_Node000002"><a xlink:title=" ">
<path fill="none" stroke="#63b8ff" d="M52.35,-74.07C66.38,-82.29 87.6,-94.11 107,-102.5 111.09,-104.27 115.42,-105.97 119.76,-107.58"/>
<polygon fill="#63b8ff" stroke="#63b8ff" points="118.65,-110.9 129.25,-110.93 120.98,-104.3 118.65,-110.9"/>
</a>
</g>
</g>
<!-- Node3 -->
<g id="Node000003" class="node">
<title>Node3</title>
<g id="a_Node000003"><a xlink:href="../../de/da4/numth_8h.html#a44e71645f4752fd3d2542e0e78a83fa8" target="_top" xlink:title="计算幂次方 [dst,rn] = [base,1] ^ exp">
<polygon fill="white" stroke="#666666" points="217,-93 107,-93 107,-74 217,-74 217,-93"/>
<text text-anchor="middle" x="162" y="-81" font-family="Helvetica,sans-Serif" font-size="10.00">lmmp_u32_pow_1_</text>
</a>
</g>
</g>
<!-- Node1&#45;&gt;Node3 -->
<g id="edge2_Node000001_Node000003" class="edge">
<title>Node1&#45;&gt;Node3</title>
<g id="a_edge2_Node000001_Node000003"><a xlink:title=" ">
<path fill="none" stroke="#63b8ff" d="M71.18,-69.79C79.23,-71.02 88.05,-72.37 96.92,-73.72"/>
<polygon fill="#63b8ff" stroke="#63b8ff" points="96.51,-77.2 106.92,-75.25 97.56,-70.28 96.51,-77.2"/>
</a>
</g>
</g>
<!-- Node4 -->
<g id="Node000004" class="node">
<title>Node4</title>
<g id="a_Node000004"><a xlink:href="../../de/da4/numth_8h.html#a249b6ceb8a91070438fec379f3474211" target="_top" xlink:title="计算幂次方 [dst,rn] = [base,1] ^ exp">
<polygon fill="white" stroke="#666666" points="214,-56 110,-56 110,-37 214,-37 214,-56"/>
<text text-anchor="middle" x="162" y="-44" font-family="Helvetica,sans-Serif" font-size="10.00">lmmp_u4_pow_1_</text>
</a>
</g>
</g>
<!-- Node1&#45;&gt;Node4 -->
<g id="edge3_Node000001_Node000004" class="edge">
<title>Node1&#45;&gt;Node4</title>
<g id="a_edge3_Node000001_Node000004"><a xlink:title=" ">
<path fill="none" stroke="#63b8ff" d="M71.18,-59.49C80.04,-58.2 89.84,-56.79 99.61,-55.37"/>
<polygon fill="#63b8ff" stroke="#63b8ff" points="100.35,-58.81 109.75,-53.91 99.35,-51.88 100.35,-58.81"/>
</a>
</g>
</g>
<!-- Node5 -->
<g id="Node000005" class="node">
<title>Node5</title>
<g id="a_Node000005"><a xlink:href="../../de/da4/numth_8h.html#a743f2ac1599097678c4ea3d7f7ee3736" target="_top" xlink:title="计算幂次方 [dst,rn] = [base,1] ^ exp">
<polygon fill="white" stroke="#666666" points="214,-19 110,-19 110,0 214,0 214,-19"/>
<text text-anchor="middle" x="162" y="-7" font-family="Helvetica,sans-Serif" font-size="10.00">lmmp_u8_pow_1_</text>
</a>
</g>
</g>
<!-- Node1&#45;&gt;Node5 -->
<g id="edge4_Node000001_Node000005" class="edge">
<title>Node1&#45;&gt;Node5</title>
<g id="a_edge4_Node000001_Node000005"><a xlink:title=" ">
<path fill="none" stroke="#63b8ff" d="M53.57,-54.97C67.67,-47.3 88.31,-36.52 107,-28.5 111.79,-26.45 116.88,-24.44 121.94,-22.54"/>
<polygon fill="#63b8ff" stroke="#63b8ff" points="123.37,-25.75 131.58,-19.05 120.99,-19.17 123.37,-25.75"/>
</a>
</g>
</g>
</g>
</svg>
</svg>

<style type='text/css'>
<![CDATA[
[data-mouse-over-selected='false'] { opacity: 0.7; }
[data-mouse-over-selected='true']  { opacity: 1.0; }
]]>
</style>
<script type="application/ecmascript"><![CDATA[
document.addEventListener('DOMContentLoaded', (event) => {
  highlightEdges();
  highlightAdjacentNodes();
});
]]></script>
</svg>
