<?xml version="1.0" encoding="UTF-8" standalone="no"?>
<!DOCTYPE svg PUBLIC "-//W3C//DTD SVG 1.1//EN"
 "http://www.w3.org/Graphics/SVG/1.1/DTD/svg11.dtd">
<!-- Generated by graphviz version 2.43.0 (0)
 -->
<!-- Title: lmmp_sqrt_1_ Pages: 1 -->
<svg width="791pt" height="94pt"
 viewBox="0.00 0.00 791.00 93.50" xmlns="http://www.w3.org/2000/svg" xmlns:xlink="http://www.w3.org/1999/xlink">
<g id="graph0" class="graph" transform="scale(1 1) rotate(0) translate(4 89.5)">
<title>lmmp_sqrt_1_</title>
<!-- Node1 -->
<g id="Node000001" class="node">
<title>Node1</title>
<g id="a_Node000001"><a xlink:title=" ">
<polygon fill="#999999" stroke="#666666" points="783,-67 697,-67 697,-48 783,-48 783,-67"/>
<text text-anchor="middle" x="740" y="-55" font-family="Helvetica,sans-Serif" font-size="10.00">lmmp_sqrt_1_</text>
</a>
</g>
</g>
<!-- Node2 -->
<g id="Node000002" class="node">
<title>Node2</title>
<g id="a_Node000002"><a xlink:href="../../dd/de3/sqrt_8c.html#ae0b4726620c46767b8fa9dd6a2b9ae28" target="_top" xlink:title="大数平方根和取余操作">
<polygon fill="white" stroke="#666666" points="74,-57 0,-57 0,-38 74,-38 74,-57"/>
<text text-anchor="middle" x="37" y="-45" font-family="Helvetica,sans-Serif" font-size="10.00">lmmp_sqrt_</text>
</a>
</g>
</g>
<!-- Node1&#45;&gt;Node2 -->
<g id="edge1_Node000001_Node000002" class="edge">
<title>Node1&#45;&gt;Node2</title>
<g id="a_edge1_Node000001_Node000002"><a xlink:title=" ">
<path fill="none" stroke="#63b8ff" d="M686.75,-66.65C635.53,-74.82 555.14,-85.5 485,-85.5 485,-85.5 485,-85.5 326.5,-85.5 235.06,-85.5 128.7,-66.5 74.23,-55.37"/>
<polygon fill="#63b8ff" stroke="#63b8ff" points="687.6,-70.06 696.91,-65 686.48,-63.15 687.6,-70.06"/>
</a>
</g>
</g>
<!-- Node3 -->
<g id="Node000003" class="node">
<title>Node3</title>
<g id="a_Node000003"><a xlink:href="../../dd/de3/sqrt_8c.html#a197939e4aad9651f653146d986373505" target="_top" xlink:title=" ">
<polygon fill="white" stroke="#666666" points="661,-48 575,-48 575,-29 661,-29 661,-48"/>
<text text-anchor="middle" x="618" y="-36" font-family="Helvetica,sans-Serif" font-size="10.00">lmmp_sqrt_2_</text>
</a>
</g>
</g>
<!-- Node1&#45;&gt;Node3 -->
<g id="edge2_Node000001_Node000003" class="edge">
<title>Node1&#45;&gt;Node3</title>
<g id="a_edge2_Node000001_Node000003"><a xlink:title=" ">
<path fill="none" stroke="#63b8ff" d="M686.55,-49.2C678.12,-47.86 669.49,-46.49 661.33,-45.2"/>
<polygon fill="#63b8ff" stroke="#63b8ff" points="686.27,-52.69 696.69,-50.8 687.36,-45.78 686.27,-52.69"/>
</a>
</g>
</g>
<!-- Node4 -->
<g id="Node000004" class="node">
<title>Node4</title>
<g id="a_Node000004"><a xlink:href="../../dd/de3/sqrt_8c.html#a22ca68231196ab9e635c48d8c74f33f9" target="_top" xlink:title=" ">
<polygon fill="white" stroke="#666666" points="539,-39 429,-39 429,-20 539,-20 539,-39"/>
<text text-anchor="middle" x="484" y="-27" font-family="Helvetica,sans-Serif" font-size="10.00">lmmp_sqrt_divide_</text>
</a>
</g>
</g>
<!-- Node3&#45;&gt;Node4 -->
<g id="edge3_Node000003_Node000004" class="edge">
<title>Node3&#45;&gt;Node4</title>
<g id="a_edge3_Node000003_Node000004"><a xlink:title=" ">
<path fill="none" stroke="#63b8ff" d="M564.82,-34.94C556.43,-34.37 547.72,-33.78 539.28,-33.2"/>
<polygon fill="#63b8ff" stroke="#63b8ff" points="564.66,-38.44 574.87,-35.63 565.13,-31.46 564.66,-38.44"/>
</a>
</g>
</g>
<!-- Node4&#45;&gt;Node2 -->
<g id="edge7_Node000004_Node000002" class="edge">
<title>Node4&#45;&gt;Node2</title>
<g id="a_edge7_Node000004_Node000002"><a xlink:title=" ">
<path fill="none" stroke="#63b8ff" d="M418.83,-32.1C323.95,-35.93 149.36,-43 74.09,-46.04"/>
<polygon fill="#63b8ff" stroke="#63b8ff" points="419.03,-35.59 428.88,-31.69 418.75,-28.6 419.03,-35.59"/>
</a>
</g>
</g>
<!-- Node4&#45;&gt;Node4 -->
<g id="edge8_Node000004_Node000004" class="edge">
<title>Node4&#45;&gt;Node4</title>
<g id="a_edge8_Node000004_Node000004"><a xlink:title=" ">
<path fill="none" stroke="#63b8ff" d="M508.93,-48.19C507.57,-53.2 499.26,-57 484,-57 460.18,-57 453.3,-47.73 463.35,-39.08"/>
<polygon fill="#63b8ff" stroke="#63b8ff" points="512.07,-46.65 504.65,-39.08 505.73,-49.62 512.07,-46.65"/>
</a>
</g>
</g>
<!-- Node5 -->
<g id="Node000005" class="node">
<title>Node5</title>
<g id="a_Node000005"><a xlink:href="../../dd/de3/sqrt_8c.html#acf69ca7583fe7a1266e3c31256ab270b" target="_top" xlink:title=" ">
<polygon fill="white" stroke="#666666" points="393,-19 262,-19 262,0 393,0 393,-19"/>
<text text-anchor="middle" x="327.5" y="-7" font-family="Helvetica,sans-Serif" font-size="10.00">lmmp_invsqrt_newton_</text>
</a>
</g>
</g>
<!-- Node4&#45;&gt;Node5 -->
<g id="edge4_Node000004_Node000005" class="edge">
<title>Node4&#45;&gt;Node5</title>
<g id="a_edge4_Node000004_Node000005"><a xlink:title=" ">
<path fill="none" stroke="#63b8ff" d="M419.04,-21.22C410.48,-20.11 401.7,-18.98 393.12,-17.87"/>
<polygon fill="#63b8ff" stroke="#63b8ff" points="418.6,-24.69 428.96,-22.5 419.5,-17.75 418.6,-24.69"/>
</a>
</g>
</g>
<!-- Node6 -->
<g id="Node000006" class="node">
<title>Node6</title>
<g id="a_Node000006"><a xlink:href="../../dd/de3/sqrt_8c.html#ad190ea42b780f8fa43a1f402935b24df" target="_top" xlink:title=" ">
<polygon fill="white" stroke="#666666" points="226,-19 110,-19 110,0 226,0 226,-19"/>
<text text-anchor="middle" x="168" y="-7" font-family="Helvetica,sans-Serif" font-size="10.00">lmmp_sqrt_newton_</text>
</a>
</g>
</g>
<!-- Node5&#45;&gt;Node6 -->
<g id="edge5_Node000005_Node000006" class="edge">
<title>Node5&#45;&gt;Node6</title>
<g id="a_edge5_Node000005_Node000006"><a xlink:title=" ">
<path fill="none" stroke="#63b8ff" d="M251.87,-9.5C243.2,-9.5 234.47,-9.5 226.09,-9.5"/>
<polygon fill="#63b8ff" stroke="#63b8ff" points="251.98,-13 261.98,-9.5 251.98,-6 251.98,-13"/>
</a>
</g>
</g>
<!-- Node6&#45;&gt;Node2 -->
<g id="edge6_Node000006_Node000002" class="edge">
<title>Node6&#45;&gt;Node2</title>
<g id="a_edge6_Node000006_Node000002"><a xlink:title=" ">
<path fill="none" stroke="#63b8ff" d="M124.45,-22.04C106.9,-27.2 86.89,-33.1 70.54,-37.91"/>
<polygon fill="#63b8ff" stroke="#63b8ff" points="125.84,-25.27 134.45,-19.09 123.87,-18.56 125.84,-25.27"/>
</a>
</g>
</g>
</g>
</svg>
