<?xml version="1.0" encoding="UTF-8" standalone="no"?>
<!DOCTYPE svg PUBLIC "-//W3C//DTD SVG 1.1//EN"
 "http://www.w3.org/Graphics/SVG/1.1/DTD/svg11.dtd">
<!-- Generated by graphviz version 2.43.0 (0)
 -->
<!-- Title: lmmp_mat22_sqr_basecase_ Pages: 1 -->
<svg width="511pt" height="64pt"
 viewBox="0.00 0.00 511.00 64.00" xmlns="http://www.w3.org/2000/svg" xmlns:xlink="http://www.w3.org/1999/xlink">
<g id="graph0" class="graph" transform="scale(1 1) rotate(0) translate(4 60)">
<title>lmmp_mat22_sqr_basecase_</title>
<!-- Node1 -->
<g id="Node000001" class="node">
<title>Node1</title>
<g id="a_Node000001"><a xlink:title="计算2x2矩阵平方">
<polygon fill="#999999" stroke="#666666" points="503,-37 345,-37 345,-18 503,-18 503,-37"/>
<text text-anchor="middle" x="424" y="-25" font-family="Helvetica,sans-Serif" font-size="10.00">lmmp_mat22_sqr_basecase_</text>
</a>
</g>
</g>
<!-- Node2 -->
<g id="Node000002" class="node">
<title>Node2</title>
<g id="a_Node000002"><a xlink:href="../../d5/d59/mat22__mul_8c.html#a5c0b549a62a36bb5d66c79b7b5c3c1f6" target="_top" xlink:title="计算2x2矩阵和2x2矩阵的乘积">
<polygon fill="white" stroke="#666666" points="309,-56 147,-56 147,-37 309,-37 309,-56"/>
<text text-anchor="middle" x="228" y="-44" font-family="Helvetica,sans-Serif" font-size="10.00">lmmp_mat22_mul_basecase_</text>
</a>
</g>
</g>
<!-- Node1&#45;&gt;Node2 -->
<g id="edge1_Node000001_Node000002" class="edge">
<title>Node1&#45;&gt;Node2</title>
<g id="a_edge1_Node000001_Node000002"><a xlink:title=" ">
<path fill="none" stroke="#63b8ff" d="M334.91,-36.13C326.31,-36.97 317.63,-37.82 309.12,-38.65"/>
<polygon fill="#63b8ff" stroke="#63b8ff" points="335.32,-39.6 344.93,-35.15 334.64,-32.64 335.32,-39.6"/>
</a>
</g>
</g>
<!-- Node4 -->
<g id="Node000004" class="node">
<title>Node4</title>
<g id="a_Node000004"><a xlink:href="../../dd/df4/matrix_8h.html#abba5682173069456f16523d8012f6735" target="_top" xlink:title="计算（稠密）2x2矩阵平方">
<polygon fill="white" stroke="#666666" points="281.5,-19 174.5,-19 174.5,0 281.5,0 281.5,-19"/>
<text text-anchor="middle" x="228" y="-7" font-family="Helvetica,sans-Serif" font-size="10.00">lmmp_mat22_sqr_</text>
</a>
</g>
</g>
<!-- Node1&#45;&gt;Node4 -->
<g id="edge3_Node000001_Node000004" class="edge">
<title>Node1&#45;&gt;Node4</title>
<g id="a_edge3_Node000001_Node000004"><a xlink:title=" ">
<path fill="none" stroke="#63b8ff" d="M334.89,-19.32C316.7,-17.64 298.09,-15.91 281.64,-14.38"/>
<polygon fill="#63b8ff" stroke="#63b8ff" points="334.65,-22.82 344.93,-20.26 335.3,-15.85 334.65,-22.82"/>
</a>
</g>
</g>
<!-- Node3 -->
<g id="Node000003" class="node">
<title>Node3</title>
<g id="a_Node000003"><a xlink:href="../../dd/df4/matrix_8h.html#a8d508e58d55aab936998e96bc9d883be" target="_top" xlink:title="计算2x2矩阵和2x2矩阵的乘积">
<polygon fill="white" stroke="#666666" points="111,-56 0,-56 0,-37 111,-37 111,-56"/>
<text text-anchor="middle" x="55.5" y="-44" font-family="Helvetica,sans-Serif" font-size="10.00">lmmp_mat22_mul_</text>
</a>
</g>
</g>
<!-- Node2&#45;&gt;Node3 -->
<g id="edge2_Node000002_Node000003" class="edge">
<title>Node2&#45;&gt;Node3</title>
<g id="a_edge2_Node000002_Node000003"><a xlink:title=" ">
<path fill="none" stroke="#63b8ff" d="M136.53,-46.5C127.84,-46.5 119.22,-46.5 111.04,-46.5"/>
<polygon fill="#63b8ff" stroke="#63b8ff" points="136.74,-50 146.74,-46.5 136.74,-43 136.74,-50"/>
</a>
</g>
</g>
</g>
</svg>
