<?xml version="1.0" encoding="UTF-8" standalone="no"?>
<!DOCTYPE svg PUBLIC "-//W3C//DTD SVG 1.1//EN"
 "http://www.w3.org/Graphics/SVG/1.1/DTD/svg11.dtd">
<!-- Generated by graphviz version 2.43.0 (0)
 -->
<!-- Title: include/solve_transcendental.hpp Pages: 1 -->
<svg width="1307pt" height="302pt"
 viewBox="0.00 0.00 1307.00 302.00" xmlns="http://www.w3.org/2000/svg" xmlns:xlink="http://www.w3.org/1999/xlink">
<g id="graph0" class="graph" transform="scale(1 1) rotate(0) translate(4 298)">
<title>include/solve_transcendental.hpp</title>
<!-- Node1 -->
<g id="Node000001" class="node">
<title>Node1</title>
<g id="a_Node000001"><a xlink:title="超越方程求解：三角、指数、对数方程的符号反演。">
<polygon fill="#999999" stroke="#666666" points="180,-294 0,-294 0,-275 180,-275 180,-294"/>
<text text-anchor="middle" x="90" y="-282" font-family="Helvetica,sans-Serif" font-size="10.00">include/solve_transcendental.hpp</text>
</a>
</g>
</g>
<!-- Node2 -->
<g id="Node000002" class="node">
<title>Node2</title>
<g id="a_Node000002"><a xlink:href="../../d5/df2/symbolic_8hpp.html" target="_top" xlink:title="符号表达式主类 SymbolicExpr 及其工厂方法、运算接口。">
<polygon fill="white" stroke="#666666" points="945,-239 863,-239 863,-220 945,-220 945,-239"/>
<text text-anchor="middle" x="904" y="-227" font-family="Helvetica,sans-Serif" font-size="10.00">symbolic.hpp</text>
</a>
</g>
</g>
<!-- Node1&#45;&gt;Node2 -->
<g id="edge1_Node000001_Node000002" class="edge">
<title>Node1&#45;&gt;Node2</title>
<g id="a_edge1_Node000001_Node000002"><a xlink:title=" ">
<path fill="none" stroke="#63b8ff" d="M180.22,-277.63C351.27,-266.49 717.69,-242.63 852.69,-233.84"/>
<polygon fill="#63b8ff" stroke="#63b8ff" points="853.01,-237.33 862.76,-233.19 852.55,-230.34 853.01,-237.33"/>
</a>
</g>
</g>
<!-- Node8 -->
<g id="Node000008" class="node">
<title>Node8</title>
<g id="a_Node000008"><a xlink:title=" ">
<polygon fill="#e0e0e0" stroke="#999999" points="186.5,-19 139.5,-19 139.5,0 186.5,0 186.5,-19"/>
<text text-anchor="middle" x="163" y="-7" font-family="Helvetica,sans-Serif" font-size="10.00">vector</text>
</a>
</g>
</g>
<!-- Node1&#45;&gt;Node8 -->
<g id="edge53_Node000001_Node000008" class="edge">
<title>Node1&#45;&gt;Node8</title>
<g id="a_edge53_Node000001_Node000008"><a xlink:title=" ">
<path fill="none" stroke="#63b8ff" d="M76.37,-274.75C64.76,-266.7 48.38,-253.78 38,-239 20.66,-214.31 14,-205.67 14,-175.5 14,-175.5 14,-175.5 14,-118.5 14,-88.33 16.46,-76.13 38,-55 62.64,-30.83 101.27,-19.71 129.06,-14.64"/>
<polygon fill="#63b8ff" stroke="#63b8ff" points="129.83,-18.06 139.13,-12.98 128.7,-11.15 129.83,-18.06"/>
</a>
</g>
</g>
<!-- Node11 -->
<g id="Node000011" class="node">
<title>Node11</title>
<g id="a_Node000011"><a xlink:title=" ">
<polygon fill="#e0e0e0" stroke="#999999" points="249,-19 205,-19 205,0 249,0 249,-19"/>
<text text-anchor="middle" x="227" y="-7" font-family="Helvetica,sans-Serif" font-size="10.00">string</text>
</a>
</g>
</g>
<!-- Node1&#45;&gt;Node11 -->
<g id="edge55_Node000001_Node000011" class="edge">
<title>Node1&#45;&gt;Node11</title>
<g id="a_edge55_Node000001_Node000011"><a xlink:title=" ">
<path fill="none" stroke="#63b8ff" d="M84.72,-274.9C74.27,-257.07 52,-214.46 52,-175.5 52,-175.5 52,-175.5 52,-118.5 52,-85.2 144.94,-43.08 195.36,-22.68"/>
<polygon fill="#63b8ff" stroke="#63b8ff" points="196.85,-25.85 204.84,-18.89 194.25,-19.35 196.85,-25.85"/>
</a>
</g>
</g>
<!-- Node24 -->
<g id="Node000024" class="node">
<title>Node24</title>
<g id="a_Node000024"><a xlink:title=" ">
<polygon fill="#e0e0e0" stroke="#999999" points="138,-129 80,-129 80,-110 138,-110 138,-129"/>
<text text-anchor="middle" x="109" y="-117" font-family="Helvetica,sans-Serif" font-size="10.00">memory</text>
</a>
</g>
</g>
<!-- Node1&#45;&gt;Node24 -->
<g id="edge54_Node000001_Node000024" class="edge">
<title>Node1&#45;&gt;Node24</title>
<g id="a_edge54_Node000001_Node000024"><a xlink:title=" ">
<path fill="none" stroke="#63b8ff" d="M91.02,-274.74C93.99,-249.31 102.64,-175.08 106.76,-139.69"/>
<polygon fill="#63b8ff" stroke="#63b8ff" points="110.29,-139.64 107.97,-129.31 103.34,-138.83 110.29,-139.64"/>
</a>
</g>
</g>
<!-- Node32 -->
<g id="Node000032" class="node">
<title>Node32</title>
<g id="a_Node000032"><a xlink:title=" ">
<polygon fill="#e0e0e0" stroke="#999999" points="1019,-239 963,-239 963,-220 1019,-220 1019,-239"/>
<text text-anchor="middle" x="991" y="-227" font-family="Helvetica,sans-Serif" font-size="10.00">optional</text>
</a>
</g>
</g>
<!-- Node1&#45;&gt;Node32 -->
<g id="edge56_Node000001_Node000032" class="edge">
<title>Node1&#45;&gt;Node32</title>
<g id="a_edge56_Node000001_Node000032"><a xlink:title=" ">
<path fill="none" stroke="#63b8ff" d="M180.04,-284.01C335.84,-283.76 665.74,-278.26 952.63,-238.92"/>
<polygon fill="#63b8ff" stroke="#63b8ff" points="953.39,-242.35 962.81,-237.51 952.43,-235.42 953.39,-242.35"/>
</a>
</g>
</g>
<!-- Node3 -->
<g id="Node000003" class="node">
<title>Node3</title>
<g id="a_Node000003"><a xlink:href="../../d8/d09/bigint_8hpp.html" target="_top" xlink:title="任意精度整数 BigInt，底层调用 LAMMP 实现高性能大数运算。">
<polygon fill="white" stroke="#666666" points="839.5,-74 774.5,-74 774.5,-55 839.5,-55 839.5,-74"/>
<text text-anchor="middle" x="807" y="-62" font-family="Helvetica,sans-Serif" font-size="10.00">bigint.hpp</text>
</a>
</g>
</g>
<!-- Node2&#45;&gt;Node3 -->
<g id="edge2_Node000002_Node000003" class="edge">
<title>Node2&#45;&gt;Node3</title>
<g id="a_edge2_Node000002_Node000003"><a xlink:title=" ">
<path fill="none" stroke="#63b8ff" d="M896.07,-219.96C888.58,-211.45 877.54,-197.72 871,-184 856.39,-153.35 868.91,-139.45 852,-110 845.55,-98.77 835.5,-88.44 826.53,-80.57"/>
<polygon fill="#63b8ff" stroke="#63b8ff" points="828.65,-77.78 818.73,-74.08 824.17,-83.16 828.65,-77.78"/>
</a>
</g>
</g>
<!-- Node9 -->
<g id="Node000009" class="node">
<title>Node9</title>
<g id="a_Node000009"><a xlink:title=" ">
<polygon fill="#e0e0e0" stroke="#999999" points="1158.5,-19 1109.5,-19 1109.5,0 1158.5,0 1158.5,-19"/>
<text text-anchor="middle" x="1134" y="-7" font-family="Helvetica,sans-Serif" font-size="10.00">cstdlib</text>
</a>
</g>
</g>
<!-- Node2&#45;&gt;Node9 -->
<g id="edge52_Node000002_Node000009" class="edge">
<title>Node2&#45;&gt;Node9</title>
<g id="a_edge52_Node000002_Node000009"><a xlink:title=" ">
<path fill="none" stroke="#63b8ff" d="M945.4,-220.16C993.98,-210.03 1069.18,-193.18 1079,-184 1123.38,-142.51 1132.12,-65.48 1133.72,-29.69"/>
<polygon fill="#63b8ff" stroke="#63b8ff" points="1137.23,-29.35 1134.03,-19.25 1130.24,-29.14 1137.23,-29.35"/>
</a>
</g>
</g>
<!-- Node2&#45;&gt;Node11 -->
<g id="edge44_Node000002_Node000011" class="edge">
<title>Node2&#45;&gt;Node11</title>
<g id="a_edge44_Node000002_Node000011"><a xlink:title=" ">
<path fill="none" stroke="#63b8ff" d="M862.84,-225.82C742.46,-217.35 393.5,-188.17 298,-129 270.42,-111.91 266.47,-101.95 250,-74 241.63,-59.79 235.51,-42.03 231.7,-28.91"/>
<polygon fill="#63b8ff" stroke="#63b8ff" points="235.05,-27.89 229.04,-19.16 228.3,-29.73 235.05,-27.89"/>
</a>
</g>
</g>
<!-- Node12 -->
<g id="Node000012" class="node">
<title>Node12</title>
<g id="a_Node000012"><a xlink:title=" ">
<polygon fill="#e0e0e0" stroke="#999999" points="1237,-19 1177,-19 1177,0 1237,0 1237,-19"/>
<text text-anchor="middle" x="1207" y="-7" font-family="Helvetica,sans-Serif" font-size="10.00">iostream</text>
</a>
</g>
</g>
<!-- Node2&#45;&gt;Node12 -->
<g id="edge51_Node000002_Node000012" class="edge">
<title>Node2&#45;&gt;Node12</title>
<g id="a_edge51_Node000002_Node000012"><a xlink:title=" ">
<path fill="none" stroke="#63b8ff" d="M945.1,-220.99C999.04,-210.85 1088.39,-193.04 1101,-184 1156.89,-143.91 1189.11,-64.34 1201.31,-28.61"/>
<polygon fill="#63b8ff" stroke="#63b8ff" points="1204.66,-29.61 1204.46,-19.02 1198.01,-27.43 1204.66,-29.61"/>
</a>
</g>
</g>
<!-- Node13 -->
<g id="Node000013" class="node">
<title>Node13</title>
<g id="a_Node000013"><a xlink:title=" ">
<polygon fill="#e0e0e0" stroke="#999999" points="1091,-19 1027,-19 1027,0 1091,0 1091,-19"/>
<text text-anchor="middle" x="1059" y="-7" font-family="Helvetica,sans-Serif" font-size="10.00">algorithm</text>
</a>
</g>
</g>
<!-- Node2&#45;&gt;Node13 -->
<g id="edge48_Node000002_Node000013" class="edge">
<title>Node2&#45;&gt;Node13</title>
<g id="a_edge48_Node000002_Node000013"><a xlink:title=" ">
<path fill="none" stroke="#63b8ff" d="M945.01,-221.33C985.07,-213.53 1042.23,-200.01 1058,-184 1099,-142.38 1078.45,-64.25 1066.08,-28.81"/>
<polygon fill="#63b8ff" stroke="#63b8ff" points="1069.31,-27.45 1062.58,-19.27 1062.74,-29.86 1069.31,-27.45"/>
</a>
</g>
</g>
<!-- Node16 -->
<g id="Node000016" class="node">
<title>Node16</title>
<g id="a_Node000016"><a xlink:title=" ">
<polygon fill="#e0e0e0" stroke="#999999" points="1299,-19 1255,-19 1255,0 1299,0 1299,-19"/>
<text text-anchor="middle" x="1277" y="-7" font-family="Helvetica,sans-Serif" font-size="10.00">limits</text>
</a>
</g>
</g>
<!-- Node2&#45;&gt;Node16 -->
<g id="edge47_Node000002_Node000016" class="edge">
<title>Node2&#45;&gt;Node16</title>
<g id="a_edge47_Node000002_Node000016"><a xlink:title=" ">
<path fill="none" stroke="#63b8ff" d="M945.2,-220.95C1007.22,-209.49 1118.19,-188.53 1126,-184 1193.86,-144.58 1246.52,-63.44 1267.32,-27.86"/>
<polygon fill="#63b8ff" stroke="#63b8ff" points="1270.4,-29.52 1272.33,-19.11 1264.33,-26.05 1270.4,-29.52"/>
</a>
</g>
</g>
<!-- Node18 -->
<g id="Node000018" class="node">
<title>Node18</title>
<g id="a_Node000018"><a xlink:href="../../d1/de8/rational_8hpp.html" target="_top" xlink:title="精确有理数 Rational，基于 BigInt 分子/分母表示，自动约分。">
<polygon fill="white" stroke="#666666" points="826.5,-129 751.5,-129 751.5,-110 826.5,-110 826.5,-129"/>
<text text-anchor="middle" x="789" y="-117" font-family="Helvetica,sans-Serif" font-size="10.00">rational.hpp</text>
</a>
</g>
</g>
<!-- Node2&#45;&gt;Node18 -->
<g id="edge17_Node000002_Node000018" class="edge">
<title>Node2&#45;&gt;Node18</title>
<g id="a_edge17_Node000002_Node000018"><a xlink:title=" ">
<path fill="none" stroke="#63b8ff" d="M888.31,-219.87C874.25,-211.71 853.52,-198.56 838,-184 822.98,-169.91 808.96,-150.91 799.8,-137.38"/>
<polygon fill="#63b8ff" stroke="#63b8ff" points="802.71,-135.43 794.28,-129 796.86,-139.28 802.71,-135.43"/>
</a>
</g>
</g>
<!-- Node21 -->
<g id="Node000021" class="node">
<title>Node21</title>
<g id="a_Node000021"><a xlink:title=" ">
<polygon fill="#e0e0e0" stroke="#999999" points="934,-74 896,-74 896,-55 934,-55 934,-74"/>
<text text-anchor="middle" x="915" y="-62" font-family="Helvetica,sans-Serif" font-size="10.00">map</text>
</a>
</g>
</g>
<!-- Node2&#45;&gt;Node21 -->
<g id="edge49_Node000002_Node000021" class="edge">
<title>Node2&#45;&gt;Node21</title>
<g id="a_edge49_Node000002_Node000021"><a xlink:title=" ">
<path fill="none" stroke="#63b8ff" d="M940.84,-219.99C975.19,-211.4 1023.14,-197.51 1037,-184 1055.63,-165.85 1052.49,-154.62 1057,-129 1058.47,-120.68 1062,-116.81 1057,-110 1031.19,-74.87 977.71,-66.72 944.25,-65.24"/>
<polygon fill="#63b8ff" stroke="#63b8ff" points="944.24,-61.74 934.15,-64.97 944.06,-68.74 944.24,-61.74"/>
</a>
</g>
</g>
<!-- Node23 -->
<g id="Node000023" class="node">
<title>Node23</title>
<g id="a_Node000023"><a xlink:href="../../d9/d89/symbolic__ast_8hpp.html" target="_top" xlink:title="AST 节点定义：NumberNode, VariableNode, AddNode, MultiplyNode, PowerNode, FunctionNode,...">
<polygon fill="white" stroke="#666666" points="619,-184 517,-184 517,-165 619,-165 619,-184"/>
<text text-anchor="middle" x="568" y="-172" font-family="Helvetica,sans-Serif" font-size="10.00">symbolic_ast.hpp</text>
</a>
</g>
</g>
<!-- Node2&#45;&gt;Node23 -->
<g id="edge27_Node000002_Node000023" class="edge">
<title>Node2&#45;&gt;Node23</title>
<g id="a_edge27_Node000002_Node000023"><a xlink:title=" ">
<path fill="none" stroke="#63b8ff" d="M862.8,-222C804.38,-212.79 697.05,-195.86 629.27,-185.16"/>
<polygon fill="#63b8ff" stroke="#63b8ff" points="629.58,-181.67 619.16,-183.57 628.49,-188.58 629.58,-181.67"/>
</a>
</g>
</g>
<!-- Node2&#45;&gt;Node24 -->
<g id="edge43_Node000002_Node000024" class="edge">
<title>Node2&#45;&gt;Node24</title>
<g id="a_edge43_Node000002_Node000024"><a xlink:title=" ">
<path fill="none" stroke="#63b8ff" d="M862.8,-228.17C714.56,-226.72 213.88,-219.21 152,-184 134.51,-174.05 122.69,-153.72 115.93,-138.73"/>
<polygon fill="#63b8ff" stroke="#63b8ff" points="119.13,-137.29 112.06,-129.4 112.66,-139.98 119.13,-137.29"/>
</a>
</g>
</g>
<!-- Node25 -->
<g id="Node000025" class="node">
<title>Node25</title>
<g id="a_Node000025"><a xlink:title=" ">
<polygon fill="#e0e0e0" stroke="#999999" points="1048.5,-129 997.5,-129 997.5,-110 1048.5,-110 1048.5,-129"/>
<text text-anchor="middle" x="1023" y="-117" font-family="Helvetica,sans-Serif" font-size="10.00">variant</text>
</a>
</g>
</g>
<!-- Node2&#45;&gt;Node25 -->
<g id="edge45_Node000002_Node000025" class="edge">
<title>Node2&#45;&gt;Node25</title>
<g id="a_edge45_Node000002_Node000025"><a xlink:title=" ">
<path fill="none" stroke="#63b8ff" d="M937.26,-219.93C967.54,-211.4 1009.01,-197.64 1019,-184 1028.28,-171.33 1028.49,-153.14 1026.83,-139.48"/>
<polygon fill="#63b8ff" stroke="#63b8ff" points="1030.24,-138.59 1025.17,-129.28 1023.33,-139.72 1030.24,-138.59"/>
</a>
</g>
</g>
<!-- Node30 -->
<g id="Node000030" class="node">
<title>Node30</title>
<g id="a_Node000030"><a xlink:title=" ">
<polygon fill="#e0e0e0" stroke="#999999" points="927.5,-184 880.5,-184 880.5,-165 927.5,-165 927.5,-184"/>
<text text-anchor="middle" x="904" y="-172" font-family="Helvetica,sans-Serif" font-size="10.00">cmath</text>
</a>
</g>
</g>
<!-- Node2&#45;&gt;Node30 -->
<g id="edge46_Node000002_Node000030" class="edge">
<title>Node2&#45;&gt;Node30</title>
<g id="a_edge46_Node000002_Node000030"><a xlink:title=" ">
<path fill="none" stroke="#63b8ff" d="M904,-219.75C904,-212.8 904,-202.85 904,-194.13"/>
<polygon fill="#63b8ff" stroke="#63b8ff" points="907.5,-194.09 904,-184.09 900.5,-194.09 907.5,-194.09"/>
</a>
</g>
</g>
<!-- Node31 -->
<g id="Node000031" class="node">
<title>Node31</title>
<g id="a_Node000031"><a xlink:title=" ">
<polygon fill="#e0e0e0" stroke="#999999" points="1010.5,-184 945.5,-184 945.5,-165 1010.5,-165 1010.5,-184"/>
<text text-anchor="middle" x="978" y="-172" font-family="Helvetica,sans-Serif" font-size="10.00">functional</text>
</a>
</g>
</g>
<!-- Node2&#45;&gt;Node31 -->
<g id="edge50_Node000002_Node000031" class="edge">
<title>Node2&#45;&gt;Node31</title>
<g id="a_edge50_Node000002_Node000031"><a xlink:title=" ">
<path fill="none" stroke="#63b8ff" d="M915.89,-219.98C927.15,-211.92 944.29,-199.65 957.71,-190.03"/>
<polygon fill="#63b8ff" stroke="#63b8ff" points="959.8,-192.84 965.89,-184.17 955.73,-187.15 959.8,-192.84"/>
</a>
</g>
</g>
<!-- Node4 -->
<g id="Node000004" class="node">
<title>Node4</title>
<g id="a_Node000004"><a xlink:title=" ">
<polygon fill="#e0e0e0" stroke="#999999" points="935,-19 843,-19 843,0 935,0 935,-19"/>
<text text-anchor="middle" x="889" y="-7" font-family="Helvetica,sans-Serif" font-size="10.00">lammp/lmmp.h</text>
</a>
</g>
</g>
<!-- Node3&#45;&gt;Node4 -->
<g id="edge3_Node000003_Node000004" class="edge">
<title>Node3&#45;&gt;Node4</title>
<g id="a_edge3_Node000003_Node000004"><a xlink:title=" ">
<path fill="none" stroke="#63b8ff" d="M820.17,-54.98C832.77,-46.84 852,-34.41 866.94,-24.76"/>
<polygon fill="#63b8ff" stroke="#63b8ff" points="869.09,-27.54 875.59,-19.17 865.29,-21.66 869.09,-27.54"/>
</a>
</g>
</g>
<!-- Node5 -->
<g id="Node000005" class="node">
<title>Node5</title>
<g id="a_Node000005"><a xlink:title=" ">
<polygon fill="#e0e0e0" stroke="#999999" points="553,-19 455,-19 455,0 553,0 553,-19"/>
<text text-anchor="middle" x="504" y="-7" font-family="Helvetica,sans-Serif" font-size="10.00">lammp/lmmpn.h</text>
</a>
</g>
</g>
<!-- Node3&#45;&gt;Node5 -->
<g id="edge4_Node000003_Node000005" class="edge">
<title>Node3&#45;&gt;Node5</title>
<g id="a_edge4_Node000003_Node000005"><a xlink:title=" ">
<path fill="none" stroke="#63b8ff" d="M774.46,-56.81C771.27,-56.19 768.07,-55.57 765,-55 695.8,-42.1 616,-28.71 563.04,-20.03"/>
<polygon fill="#63b8ff" stroke="#63b8ff" points="563.58,-16.58 553.15,-18.42 562.45,-23.48 563.58,-16.58"/>
</a>
</g>
</g>
<!-- Node6 -->
<g id="Node000006" class="node">
<title>Node6</title>
<g id="a_Node000006"><a xlink:title=" ">
<polygon fill="#e0e0e0" stroke="#999999" points="666.5,-19 571.5,-19 571.5,0 666.5,0 666.5,-19"/>
<text text-anchor="middle" x="619" y="-7" font-family="Helvetica,sans-Serif" font-size="10.00">lammp/numth.h</text>
</a>
</g>
</g>
<!-- Node3&#45;&gt;Node6 -->
<g id="edge5_Node000003_Node000006" class="edge">
<title>Node3&#45;&gt;Node6</title>
<g id="a_edge5_Node000003_Node000006"><a xlink:title=" ">
<path fill="none" stroke="#63b8ff" d="M776.79,-54.98C744.96,-46.01 694.64,-31.82 659.4,-21.89"/>
<polygon fill="#63b8ff" stroke="#63b8ff" points="660.02,-18.43 649.44,-19.08 658.12,-25.16 660.02,-18.43"/>
</a>
</g>
</g>
<!-- Node7 -->
<g id="Node000007" class="node">
<title>Node7</title>
<g id="a_Node000007"><a xlink:title=" ">
<polygon fill="#e0e0e0" stroke="#999999" points="757,-19 685,-19 685,0 757,0 757,-19"/>
<text text-anchor="middle" x="721" y="-7" font-family="Helvetica,sans-Serif" font-size="10.00">lmmc/init.h</text>
</a>
</g>
</g>
<!-- Node3&#45;&gt;Node7 -->
<g id="edge6_Node000003_Node000007" class="edge">
<title>Node3&#45;&gt;Node7</title>
<g id="a_edge6_Node000003_Node000007"><a xlink:title=" ">
<path fill="none" stroke="#63b8ff" d="M793.18,-54.98C779.85,-46.77 759.42,-34.18 743.69,-24.49"/>
<polygon fill="#63b8ff" stroke="#63b8ff" points="745.42,-21.44 735.07,-19.17 741.75,-27.4 745.42,-21.44"/>
</a>
</g>
</g>
<!-- Node3&#45;&gt;Node8 -->
<g id="edge7_Node000003_Node000008" class="edge">
<title>Node3&#45;&gt;Node8</title>
<g id="a_edge7_Node000003_Node000008"><a xlink:title=" ">
<path fill="none" stroke="#63b8ff" d="M774.06,-56.39C771,-55.87 767.95,-55.39 765,-55 517.1,-22.23 448.07,-57.82 196.85,-18.78"/>
<polygon fill="#63b8ff" stroke="#63b8ff" points="197.1,-15.27 186.68,-17.17 196.01,-22.19 197.1,-15.27"/>
</a>
</g>
</g>
<!-- Node3&#45;&gt;Node9 -->
<g id="edge8_Node000003_Node000009" class="edge">
<title>Node3&#45;&gt;Node9</title>
<g id="a_edge8_Node000003_Node000009"><a xlink:title=" ">
<path fill="none" stroke="#63b8ff" d="M839.69,-59.56C892.26,-53 999,-38.77 1099.19,-18.99"/>
<polygon fill="#63b8ff" stroke="#63b8ff" points="1100.06,-22.38 1109.18,-16.99 1098.69,-15.52 1100.06,-22.38"/>
</a>
</g>
</g>
<!-- Node10 -->
<g id="Node000010" class="node">
<title>Node10</title>
<g id="a_Node000010"><a xlink:title=" ">
<polygon fill="#e0e0e0" stroke="#999999" points="825,-19 775,-19 775,0 825,0 825,-19"/>
<text text-anchor="middle" x="800" y="-7" font-family="Helvetica,sans-Serif" font-size="10.00">cstring</text>
</a>
</g>
</g>
<!-- Node3&#45;&gt;Node10 -->
<g id="edge9_Node000003_Node000010" class="edge">
<title>Node3&#45;&gt;Node10</title>
<g id="a_edge9_Node000003_Node000010"><a xlink:title=" ">
<path fill="none" stroke="#63b8ff" d="M805.84,-54.75C804.93,-47.8 803.61,-37.85 802.46,-29.13"/>
<polygon fill="#63b8ff" stroke="#63b8ff" points="805.91,-28.54 801.13,-19.09 798.97,-29.46 805.91,-28.54"/>
</a>
</g>
</g>
<!-- Node3&#45;&gt;Node11 -->
<g id="edge10_Node000003_Node000011" class="edge">
<title>Node3&#45;&gt;Node11</title>
<g id="a_edge10_Node000003_Node000011"><a xlink:title=" ">
<path fill="none" stroke="#63b8ff" d="M774.05,-56.41C771,-55.88 767.95,-55.4 765,-55 544.44,-24.98 482.48,-56.11 259.29,-18.87"/>
<polygon fill="#63b8ff" stroke="#63b8ff" points="259.68,-15.38 249.23,-17.16 258.51,-22.28 259.68,-15.38"/>
</a>
</g>
</g>
<!-- Node3&#45;&gt;Node12 -->
<g id="edge11_Node000003_Node000012" class="edge">
<title>Node3&#45;&gt;Node12</title>
<g id="a_edge11_Node000003_Node000012"><a xlink:title=" ">
<path fill="none" stroke="#63b8ff" d="M839.64,-59.83C915.93,-51.2 1104.19,-29.53 1167,-19 1167.1,-18.98 1167.2,-18.97 1167.3,-18.95"/>
<polygon fill="#63b8ff" stroke="#63b8ff" points="1167.71,-22.43 1176.91,-17.18 1166.44,-15.55 1167.71,-22.43"/>
</a>
</g>
</g>
<!-- Node3&#45;&gt;Node13 -->
<g id="edge12_Node000003_Node000013" class="edge">
<title>Node3&#45;&gt;Node13</title>
<g id="a_edge12_Node000003_Node000013"><a xlink:title=" ">
<path fill="none" stroke="#63b8ff" d="M839.69,-56.63C885.04,-47.09 967.08,-29.83 1016.94,-19.34"/>
<polygon fill="#63b8ff" stroke="#63b8ff" points="1017.7,-22.76 1026.77,-17.28 1016.26,-15.91 1017.7,-22.76"/>
</a>
</g>
</g>
<!-- Node14 -->
<g id="Node000014" class="node">
<title>Node14</title>
<g id="a_Node000014"><a xlink:title=" ">
<polygon fill="#e0e0e0" stroke="#999999" points="1009,-19 953,-19 953,0 1009,0 1009,-19"/>
<text text-anchor="middle" x="981" y="-7" font-family="Helvetica,sans-Serif" font-size="10.00">iomanip</text>
</a>
</g>
</g>
<!-- Node3&#45;&gt;Node14 -->
<g id="edge13_Node000003_Node000014" class="edge">
<title>Node3&#45;&gt;Node14</title>
<g id="a_edge13_Node000003_Node000014"><a xlink:title=" ">
<path fill="none" stroke="#63b8ff" d="M834.96,-54.98C864.3,-46.05 910.6,-31.94 943.19,-22.02"/>
<polygon fill="#63b8ff" stroke="#63b8ff" points="944.28,-25.34 952.82,-19.08 942.24,-18.65 944.28,-25.34"/>
</a>
</g>
</g>
<!-- Node15 -->
<g id="Node000015" class="node">
<title>Node15</title>
<g id="a_Node000015"><a xlink:title=" ">
<polygon fill="#e0e0e0" stroke="#999999" points="332.5,-19 267.5,-19 267.5,0 332.5,0 332.5,-19"/>
<text text-anchor="middle" x="300" y="-7" font-family="Helvetica,sans-Serif" font-size="10.00">stdexcept</text>
</a>
</g>
</g>
<!-- Node3&#45;&gt;Node15 -->
<g id="edge14_Node000003_Node000015" class="edge">
<title>Node3&#45;&gt;Node15</title>
<g id="a_edge14_Node000003_Node000015"><a xlink:title=" ">
<path fill="none" stroke="#63b8ff" d="M774.05,-56.46C771,-55.92 767.95,-55.42 765,-55 581.42,-28.7 530.5,-45.17 342.87,-18.95"/>
<polygon fill="#63b8ff" stroke="#63b8ff" points="343.35,-15.48 332.95,-17.54 342.36,-22.41 343.35,-15.48"/>
</a>
</g>
</g>
<!-- Node3&#45;&gt;Node16 -->
<g id="edge15_Node000003_Node000016" class="edge">
<title>Node3&#45;&gt;Node16</title>
<g id="a_edge15_Node000003_Node000016"><a xlink:title=" ">
<path fill="none" stroke="#63b8ff" d="M839.69,-59.98C854.18,-58.43 871.44,-56.61 887,-55 1043.24,-38.87 1086.58,-47.91 1244.67,-18.95"/>
<polygon fill="#63b8ff" stroke="#63b8ff" points="1245.56,-22.34 1254.75,-17.08 1244.28,-15.46 1245.56,-22.34"/>
</a>
</g>
</g>
<!-- Node17 -->
<g id="Node000017" class="node">
<title>Node17</title>
<g id="a_Node000017"><a xlink:title=" ">
<polygon fill="#e0e0e0" stroke="#999999" points="437,-19 351,-19 351,0 437,0 437,-19"/>
<text text-anchor="middle" x="394" y="-7" font-family="Helvetica,sans-Serif" font-size="10.00">lmmc/config.h</text>
</a>
</g>
</g>
<!-- Node3&#45;&gt;Node17 -->
<g id="edge16_Node000003_Node000017" class="edge">
<title>Node3&#45;&gt;Node17</title>
<g id="a_edge16_Node000003_Node000017"><a xlink:title=" ">
<path fill="none" stroke="#63b8ff" d="M774.49,-56.63C771.29,-56.04 768.09,-55.49 765,-55 627.22,-33.33 589.04,-38.27 447.06,-19.08"/>
<polygon fill="#63b8ff" stroke="#63b8ff" points="447.49,-15.6 437.11,-17.72 446.54,-22.54 447.49,-15.6"/>
</a>
</g>
</g>
<!-- Node18&#45;&gt;Node3 -->
<g id="edge20_Node000018_Node000003" class="edge">
<title>Node18&#45;&gt;Node3</title>
<g id="a_edge20_Node000018_Node000003"><a xlink:title=" ">
<path fill="none" stroke="#63b8ff" d="M791.97,-109.75C794.36,-102.72 797.79,-92.62 800.77,-83.84"/>
<polygon fill="#63b8ff" stroke="#63b8ff" points="804.18,-84.68 804.08,-74.09 797.55,-82.43 804.18,-84.68"/>
</a>
</g>
</g>
<!-- Node18&#45;&gt;Node11 -->
<g id="edge24_Node000018_Node000011" class="edge">
<title>Node18&#45;&gt;Node11</title>
<g id="a_edge24_Node000018_Node000011"><a xlink:title=" ">
<path fill="none" stroke="#63b8ff" d="M751.3,-111.61C748.16,-111.06 745.02,-110.52 742,-110 642.17,-92.99 615.43,-97.84 517,-74 490.64,-67.62 485.3,-61.63 459,-55 374.09,-33.6 348.32,-38.62 259.28,-19.1"/>
<polygon fill="#63b8ff" stroke="#63b8ff" points="259.81,-15.64 249.29,-16.87 258.29,-22.47 259.81,-15.64"/>
</a>
</g>
</g>
<!-- Node18&#45;&gt;Node14 -->
<g id="edge21_Node000018_Node000014" class="edge">
<title>Node18&#45;&gt;Node14</title>
<g id="a_edge21_Node000018_Node000014"><a xlink:title=" ">
<path fill="none" stroke="#63b8ff" d="M801.05,-109.94C819.23,-97.21 854.95,-72.87 887,-55 908.08,-43.25 932.78,-31.63 951.57,-23.22"/>
<polygon fill="#63b8ff" stroke="#63b8ff" points="953.08,-26.38 960.81,-19.13 950.25,-19.98 953.08,-26.38"/>
</a>
</g>
</g>
<!-- Node18&#45;&gt;Node15 -->
<g id="edge23_Node000018_Node000015" class="edge">
<title>Node18&#45;&gt;Node15</title>
<g id="a_edge23_Node000018_Node000015"><a xlink:title=" ">
<path fill="none" stroke="#63b8ff" d="M751.09,-111.62C697.37,-101.73 601.88,-83.66 568,-74 544.74,-67.37 540.25,-61.67 517,-55 512.79,-53.79 404.48,-31.73 342.5,-19.13"/>
<polygon fill="#63b8ff" stroke="#63b8ff" points="343.11,-15.68 332.61,-17.12 341.71,-22.54 343.11,-15.68"/>
</a>
</g>
</g>
<!-- Node18&#45;&gt;Node17 -->
<g id="edge18_Node000018_Node000017" class="edge">
<title>Node18&#45;&gt;Node17</title>
<g id="a_edge18_Node000018_Node000017"><a xlink:title=" ">
<path fill="none" stroke="#63b8ff" d="M752.79,-110C718.38,-101.68 665.31,-88.21 620,-74 596.52,-66.64 591.5,-62.28 568,-55 525.85,-41.94 477.12,-29.72 441.97,-21.4"/>
<polygon fill="#63b8ff" stroke="#63b8ff" points="442.52,-17.94 431.98,-19.06 440.92,-24.75 442.52,-17.94"/>
</a>
</g>
</g>
<!-- Node19 -->
<g id="Node000019" class="node">
<title>Node19</title>
<g id="a_Node000019"><a xlink:title=" ">
<polygon fill="#e0e0e0" stroke="#999999" points="450,-74 354,-74 354,-55 450,-55 450,-74"/>
<text text-anchor="middle" x="402" y="-62" font-family="Helvetica,sans-Serif" font-size="10.00">lmmc/numeric.h</text>
</a>
</g>
</g>
<!-- Node18&#45;&gt;Node19 -->
<g id="edge19_Node000018_Node000019" class="edge">
<title>Node18&#45;&gt;Node19</title>
<g id="a_edge19_Node000018_Node000019"><a xlink:title=" ">
<path fill="none" stroke="#63b8ff" d="M751.32,-111.52C748.17,-110.99 745.03,-110.47 742,-110 643.39,-94.64 528.12,-80.31 460.31,-72.25"/>
<polygon fill="#63b8ff" stroke="#63b8ff" points="460.59,-68.76 450.25,-71.06 459.77,-75.71 460.59,-68.76"/>
</a>
</g>
</g>
<!-- Node20 -->
<g id="Node000020" class="node">
<title>Node20</title>
<g id="a_Node000020"><a xlink:title=" ">
<polygon fill="#e0e0e0" stroke="#999999" points="685,-74 629,-74 629,-55 685,-55 685,-74"/>
<text text-anchor="middle" x="657" y="-62" font-family="Helvetica,sans-Serif" font-size="10.00">sstream</text>
</a>
</g>
</g>
<!-- Node18&#45;&gt;Node20 -->
<g id="edge22_Node000018_Node000020" class="edge">
<title>Node18&#45;&gt;Node20</title>
<g id="a_edge22_Node000018_Node000020"><a xlink:title=" ">
<path fill="none" stroke="#63b8ff" d="M767.79,-109.98C746.27,-101.34 712.72,-87.87 688.17,-78.02"/>
<polygon fill="#63b8ff" stroke="#63b8ff" points="689.18,-74.65 678.59,-74.17 686.57,-81.14 689.18,-74.65"/>
</a>
</g>
</g>
<!-- Node18&#45;&gt;Node21 -->
<g id="edge25_Node000018_Node000021" class="edge">
<title>Node18&#45;&gt;Node21</title>
<g id="a_edge25_Node000018_Node000021"><a xlink:title=" ">
<path fill="none" stroke="#63b8ff" d="M809.24,-109.98C830.06,-101.23 862.67,-87.51 886.18,-77.62"/>
<polygon fill="#63b8ff" stroke="#63b8ff" points="887.77,-80.75 895.63,-73.65 885.06,-74.3 887.77,-80.75"/>
</a>
</g>
</g>
<!-- Node22 -->
<g id="Node000022" class="node">
<title>Node22</title>
<g id="a_Node000022"><a xlink:title=" ">
<polygon fill="#e0e0e0" stroke="#999999" points="756.5,-74 703.5,-74 703.5,-55 756.5,-55 756.5,-74"/>
<text text-anchor="middle" x="730" y="-62" font-family="Helvetica,sans-Serif" font-size="10.00">stdint.h</text>
</a>
</g>
</g>
<!-- Node18&#45;&gt;Node22 -->
<g id="edge26_Node000018_Node000022" class="edge">
<title>Node18&#45;&gt;Node22</title>
<g id="a_edge26_Node000018_Node000022"><a xlink:title=" ">
<path fill="none" stroke="#63b8ff" d="M779.52,-109.98C770.8,-102.15 757.66,-90.34 747.1,-80.86"/>
<polygon fill="#63b8ff" stroke="#63b8ff" points="749.43,-78.25 739.65,-74.17 744.75,-83.46 749.43,-78.25"/>
</a>
</g>
</g>
<!-- Node23&#45;&gt;Node3 -->
<g id="edge37_Node000023_Node000003" class="edge">
<title>Node23&#45;&gt;Node3</title>
<g id="a_edge37_Node000023_Node000003"><a xlink:title=" ">
<path fill="none" stroke="#63b8ff" d="M619.14,-172.53C688.78,-170.01 807.89,-161 835,-129 846.74,-115.14 834.95,-95.59 823.27,-81.86"/>
<polygon fill="#63b8ff" stroke="#63b8ff" points="825.55,-79.17 816.22,-74.16 820.39,-83.9 825.55,-79.17"/>
</a>
</g>
</g>
<!-- Node23&#45;&gt;Node8 -->
<g id="edge29_Node000023_Node000008" class="edge">
<title>Node23&#45;&gt;Node8</title>
<g id="a_edge29_Node000023_Node000008"><a xlink:title=" ">
<path fill="none" stroke="#63b8ff" d="M516.77,-173.34C460.54,-171.32 368.86,-162.52 298,-129 245.83,-104.32 198.53,-53.39 176.33,-27.06"/>
<polygon fill="#63b8ff" stroke="#63b8ff" points="178.86,-24.63 169.79,-19.15 173.46,-29.09 178.86,-24.63"/>
</a>
</g>
</g>
<!-- Node23&#45;&gt;Node11 -->
<g id="edge30_Node000023_Node000011" class="edge">
<title>Node23&#45;&gt;Node11</title>
<g id="a_edge30_Node000023_Node000011"><a xlink:title=" ">
<path fill="none" stroke="#63b8ff" d="M516.57,-174.08C464.82,-172.48 384.38,-163.83 325,-129 282.94,-104.33 251.01,-54.53 236.16,-28.03"/>
<polygon fill="#63b8ff" stroke="#63b8ff" points="239.17,-26.23 231.33,-19.11 233.02,-29.57 239.17,-26.23"/>
</a>
</g>
</g>
<!-- Node23&#45;&gt;Node13 -->
<g id="edge32_Node000023_Node000013" class="edge">
<title>Node23&#45;&gt;Node13</title>
<g id="a_edge32_Node000023_Node000013"><a xlink:title=" ">
<path fill="none" stroke="#63b8ff" d="M619.24,-172.97C682.32,-170.8 791.78,-162.05 879,-129 944.88,-104.04 1011.23,-51.69 1041.71,-25.74"/>
<polygon fill="#63b8ff" stroke="#63b8ff" points="1044.05,-28.35 1049.33,-19.17 1039.47,-23.05 1044.05,-28.35"/>
</a>
</g>
</g>
<!-- Node23&#45;&gt;Node15 -->
<g id="edge40_Node000023_Node000015" class="edge">
<title>Node23&#45;&gt;Node15</title>
<g id="a_edge40_Node000023_Node000015"><a xlink:title=" ">
<path fill="none" stroke="#63b8ff" d="M516.81,-169.02C459.23,-163.01 370.42,-150.52 345,-129 315,-103.61 304.96,-55.98 301.63,-29.49"/>
<polygon fill="#63b8ff" stroke="#63b8ff" points="305.08,-28.84 300.55,-19.27 298.12,-29.58 305.08,-28.84"/>
</a>
</g>
</g>
<!-- Node23&#45;&gt;Node17 -->
<g id="edge38_Node000023_Node000017" class="edge">
<title>Node23&#45;&gt;Node17</title>
<g id="a_edge38_Node000023_Node000017"><a xlink:title=" ">
<path fill="none" stroke="#63b8ff" d="M516.96,-167.68C465.08,-160.82 389.27,-147.91 367,-129 340.85,-106.79 331.11,-86.37 345,-55 350.32,-42.97 360.68,-32.8 370.51,-25.24"/>
<polygon fill="#63b8ff" stroke="#63b8ff" points="372.76,-27.93 378.87,-19.27 368.7,-22.23 372.76,-27.93"/>
</a>
</g>
</g>
<!-- Node23&#45;&gt;Node18 -->
<g id="edge36_Node000023_Node000018" class="edge">
<title>Node23&#45;&gt;Node18</title>
<g id="a_edge36_Node000023_Node000018"><a xlink:title=" ">
<path fill="none" stroke="#63b8ff" d="M603.51,-164.98C641.49,-155.87 701.87,-141.4 743.36,-131.45"/>
<polygon fill="#63b8ff" stroke="#63b8ff" points="744.31,-134.82 753.21,-129.08 742.67,-128.01 744.31,-134.82"/>
</a>
</g>
</g>
<!-- Node23&#45;&gt;Node19 -->
<g id="edge39_Node000023_Node000019" class="edge">
<title>Node23&#45;&gt;Node19</title>
<g id="a_edge39_Node000023_Node000019"><a xlink:title=" ">
<path fill="none" stroke="#63b8ff" d="M516.53,-168.78C465.47,-162.9 392.4,-150.86 375,-129 363.76,-114.87 375.11,-95.37 386.35,-81.72"/>
<polygon fill="#63b8ff" stroke="#63b8ff" points="389.12,-83.88 393.13,-74.07 383.88,-79.23 389.12,-83.88"/>
</a>
</g>
</g>
<!-- Node23&#45;&gt;Node21 -->
<g id="edge42_Node000023_Node000021" class="edge">
<title>Node23&#45;&gt;Node21</title>
<g id="a_edge42_Node000023_Node000021"><a xlink:title=" ">
<path fill="none" stroke="#63b8ff" d="M619.12,-169.33C689.57,-162.94 812.28,-149.3 852,-129 873.3,-118.12 891.78,-97.34 903.12,-82.52"/>
<polygon fill="#63b8ff" stroke="#63b8ff" points="906.12,-84.33 909.21,-74.2 900.48,-80.19 906.12,-84.33"/>
</a>
</g>
</g>
<!-- Node23&#45;&gt;Node24 -->
<g id="edge28_Node000023_Node000024" class="edge">
<title>Node23&#45;&gt;Node24</title>
<g id="a_edge28_Node000023_Node000024"><a xlink:title=" ">
<path fill="none" stroke="#63b8ff" d="M516.68,-167.57C424.14,-156.89 231.24,-134.61 148.3,-125.04"/>
<polygon fill="#63b8ff" stroke="#63b8ff" points="148.61,-121.55 138.27,-123.88 147.81,-128.5 148.61,-121.55"/>
</a>
</g>
</g>
<!-- Node23&#45;&gt;Node25 -->
<g id="edge31_Node000023_Node000025" class="edge">
<title>Node23&#45;&gt;Node25</title>
<g id="a_edge31_Node000023_Node000025"><a xlink:title=" ">
<path fill="none" stroke="#63b8ff" d="M619.01,-169.73C697.53,-163.53 852.59,-149.79 983,-129 984.45,-128.77 985.92,-128.52 987.4,-128.26"/>
<polygon fill="#63b8ff" stroke="#63b8ff" points="988.09,-131.69 997.25,-126.38 986.77,-124.82 988.09,-131.69"/>
</a>
</g>
</g>
<!-- Node26 -->
<g id="Node000026" class="node">
<title>Node26</title>
<g id="a_Node000026"><a xlink:title=" ">
<polygon fill="#e0e0e0" stroke="#999999" points="449.5,-129 384.5,-129 384.5,-110 449.5,-110 449.5,-129"/>
<text text-anchor="middle" x="417" y="-117" font-family="Helvetica,sans-Serif" font-size="10.00">typeindex</text>
</a>
</g>
</g>
<!-- Node23&#45;&gt;Node26 -->
<g id="edge33_Node000023_Node000026" class="edge">
<title>Node23&#45;&gt;Node26</title>
<g id="a_edge33_Node000023_Node000026"><a xlink:title=" ">
<path fill="none" stroke="#63b8ff" d="M543.74,-164.98C518.68,-156.19 479.37,-142.39 451.17,-132.49"/>
<polygon fill="#63b8ff" stroke="#63b8ff" points="452.3,-129.18 441.7,-129.17 449.98,-135.78 452.3,-129.18"/>
</a>
</g>
</g>
<!-- Node27 -->
<g id="Node000027" class="node">
<title>Node27</title>
<g id="a_Node000027"><a xlink:title=" ">
<polygon fill="#e0e0e0" stroke="#999999" points="560.5,-129 467.5,-129 467.5,-110 560.5,-110 560.5,-129"/>
<text text-anchor="middle" x="514" y="-117" font-family="Helvetica,sans-Serif" font-size="10.00">unordered_map</text>
</a>
</g>
</g>
<!-- Node23&#45;&gt;Node27 -->
<g id="edge34_Node000023_Node000027" class="edge">
<title>Node23&#45;&gt;Node27</title>
<g id="a_edge34_Node000023_Node000027"><a xlink:title=" ">
<path fill="none" stroke="#63b8ff" d="M559.08,-164.75C551.22,-157.03 539.57,-145.6 530.08,-136.28"/>
<polygon fill="#63b8ff" stroke="#63b8ff" points="532.34,-133.6 522.75,-129.09 527.44,-138.59 532.34,-133.6"/>
</a>
</g>
</g>
<!-- Node28 -->
<g id="Node000028" class="node">
<title>Node28</title>
<g id="a_Node000028"><a xlink:title=" ">
<polygon fill="#e0e0e0" stroke="#999999" points="665,-129 579,-129 579,-110 665,-110 665,-129"/>
<text text-anchor="middle" x="622" y="-117" font-family="Helvetica,sans-Serif" font-size="10.00">unordered_set</text>
</a>
</g>
</g>
<!-- Node23&#45;&gt;Node28 -->
<g id="edge35_Node000023_Node000028" class="edge">
<title>Node23&#45;&gt;Node28</title>
<g id="a_edge35_Node000023_Node000028"><a xlink:title=" ">
<path fill="none" stroke="#63b8ff" d="M576.92,-164.75C584.78,-157.03 596.43,-145.6 605.92,-136.28"/>
<polygon fill="#63b8ff" stroke="#63b8ff" points="608.56,-138.59 613.25,-129.09 603.66,-133.6 608.56,-138.59"/>
</a>
</g>
</g>
<!-- Node29 -->
<g id="Node000029" class="node">
<title>Node29</title>
<g id="a_Node000029"><a xlink:title=" ">
<polygon fill="#e0e0e0" stroke="#999999" points="733,-129 683,-129 683,-110 733,-110 733,-129"/>
<text text-anchor="middle" x="708" y="-117" font-family="Helvetica,sans-Serif" font-size="10.00">atomic</text>
</a>
</g>
</g>
<!-- Node23&#45;&gt;Node29 -->
<g id="edge41_Node000023_Node000029" class="edge">
<title>Node23&#45;&gt;Node29</title>
<g id="a_edge41_Node000023_Node000029"><a xlink:title=" ">
<path fill="none" stroke="#63b8ff" d="M590.49,-164.98C613.52,-156.27 649.54,-142.63 675.63,-132.75"/>
<polygon fill="#63b8ff" stroke="#63b8ff" points="676.98,-135.98 685.1,-129.17 674.51,-129.44 676.98,-135.98"/>
</a>
</g>
</g>
</g>
</svg>
