<?xml version="1.0" encoding="UTF-8" standalone="no"?>
<!DOCTYPE svg PUBLIC "-//W3C//DTD SVG 1.1//EN"
 "http://www.w3.org/Graphics/SVG/1.1/DTD/svg11.dtd">
<!-- Generated by graphviz version 2.43.0 (0)
 -->
<!-- Title: lamina::fglm_convert Pages: 1 -->
<svg width="839pt" height="558pt"
 viewBox="0.00 0.00 839.00 557.69" xmlns="http://www.w3.org/2000/svg" xmlns:xlink="http://www.w3.org/1999/xlink">
<g id="graph0" class="graph" transform="scale(1 1) rotate(0) translate(4 553.69)">
<title>lamina::fglm_convert</title>
<!-- Node1 -->
<g id="Node000001" class="node">
<title>Node1</title>
<g id="a_Node000001"><a xlink:title="FGLM 算法：将零维理想的 Gröbner 基从源序转换到目标序">
<polygon fill="#999999" stroke="#666666" points="121,-301.59 0,-301.59 0,-282.59 121,-282.59 121,-301.59"/>
<text text-anchor="middle" x="60.5" y="-289.59" font-family="Helvetica,sans-Serif" font-size="10.00">lamina::fglm_convert</text>
</a>
</g>
</g>
<!-- Node2 -->
<g id="Node000002" class="node">
<title>Node2</title>
<g id="a_Node000002"><a xlink:href="../../d4/d4e/structlamina_1_1FGLMPoly.html#adefc23105cd647f1870b602e5cc4dc1b" target="_top" xlink:title="添加一项">
<polygon fill="white" stroke="#666666" points="696,-458.59 539,-458.59 539,-439.59 696,-439.59 696,-458.59"/>
<text text-anchor="middle" x="617.5" y="-446.59" font-family="Helvetica,sans-Serif" font-size="10.00">lamina::FGLMPoly::add_term</text>
</a>
</g>
</g>
<!-- Node1&#45;&gt;Node2 -->
<g id="edge1_Node000001_Node000002" class="edge">
<title>Node1&#45;&gt;Node2</title>
<g id="a_edge1_Node000001_Node000002"><a xlink:title=" ">
<path fill="none" stroke="#63b8ff" d="M62.19,-301.86C65.29,-337.58 81.35,-461.55 157,-511.09 298.14,-603.52 516.17,-503.05 590.59,-463.58"/>
<polygon fill="#63b8ff" stroke="#63b8ff" points="592.58,-466.48 599.72,-458.66 589.26,-460.32 592.58,-466.48"/>
</a>
</g>
</g>
<!-- Node4 -->
<g id="Node000004" class="node">
<title>Node4</title>
<g id="a_Node000004"><a xlink:href="../../df/d30/classlamina_1_1detail_1_1GaussianEliminator.html#a502c76c0cf70391ad61f33d8cb371661" target="_top" xlink:title="尝试将向量加入行空间">
<polygon fill="white" stroke="#666666" points="302.5,-502.09 167.5,-502.09 167.5,-472.09 302.5,-472.09 302.5,-502.09"/>
<text text-anchor="start" x="175.5" y="-490.09" font-family="Helvetica,sans-Serif" font-size="10.00">lamina::detail::Gaussian</text>
<text text-anchor="middle" x="235" y="-479.09" font-family="Helvetica,sans-Serif" font-size="10.00">Eliminator::add_vector</text>
</a>
</g>
</g>
<!-- Node1&#45;&gt;Node4 -->
<g id="edge3_Node000001_Node000004" class="edge">
<title>Node1&#45;&gt;Node4</title>
<g id="a_edge3_Node000001_Node000004"><a xlink:title=" ">
<path fill="none" stroke="#63b8ff" d="M64.49,-301.87C73.62,-330.14 103.8,-412.87 157,-458.09 161.15,-461.62 165.77,-464.74 170.63,-467.5"/>
<polygon fill="#63b8ff" stroke="#63b8ff" points="169.09,-470.64 179.59,-472.07 172.28,-464.4 169.09,-470.64"/>
</a>
</g>
</g>
<!-- Node5 -->
<g id="Node000005" class="node">
<title>Node5</title>
<g id="a_Node000005"><a xlink:href="../../d1/d42/namespacelamina.html#aa705370ea9d691477381fa4e3fa9cf5f" target="_top" xlink:title="判断 divisor 是否整除 target">
<polygon fill="white" stroke="#666666" points="690.5,-63.59 544.5,-63.59 544.5,-44.59 690.5,-44.59 690.5,-63.59"/>
<text text-anchor="middle" x="617.5" y="-51.59" font-family="Helvetica,sans-Serif" font-size="10.00">lamina::divides_monomial</text>
</a>
</g>
</g>
<!-- Node1&#45;&gt;Node5 -->
<g id="edge4_Node000001_Node000005" class="edge">
<title>Node1&#45;&gt;Node5</title>
<g id="a_edge4_Node000001_Node000005"><a xlink:title=" ">
<path fill="none" stroke="#63b8ff" d="M62.98,-282.34C68.46,-249.86 90.87,-144.77 157,-99.09 216.22,-58.19 418.47,-52.53 533.94,-52.79"/>
<polygon fill="#63b8ff" stroke="#63b8ff" points="534.14,-56.3 544.15,-52.83 534.16,-49.3 534.14,-56.3"/>
</a>
</g>
</g>
<!-- Node6 -->
<g id="Node000006" class="node">
<title>Node6</title>
<g id="a_Node000006"><a xlink:href="../../d4/d4e/structlamina_1_1FGLMPoly.html#a66dcc316a18dd3b9d2bcde176509117c" target="_top" xlink:title="从单项式构造多项式（系数为 1）">
<polygon fill="white" stroke="#666666" points="492.5,-464.09 358.5,-464.09 358.5,-434.09 492.5,-434.09 492.5,-464.09"/>
<text text-anchor="start" x="366.5" y="-452.09" font-family="Helvetica,sans-Serif" font-size="10.00">lamina::FGLMPoly::from</text>
<text text-anchor="middle" x="425.5" y="-441.09" font-family="Helvetica,sans-Serif" font-size="10.00">_monomial</text>
</a>
</g>
</g>
<!-- Node1&#45;&gt;Node6 -->
<g id="edge5_Node000001_Node000006" class="edge">
<title>Node1&#45;&gt;Node6</title>
<g id="a_edge5_Node000001_Node000006"><a xlink:title=" ">
<path fill="none" stroke="#63b8ff" d="M65.48,-301.95C76.1,-326.78 107.64,-391.91 157,-420.09 215.04,-453.24 291.78,-458.39 348.17,-456.49"/>
<polygon fill="#63b8ff" stroke="#63b8ff" points="348.61,-459.97 358.45,-456.06 348.32,-452.98 348.61,-459.97"/>
</a>
</g>
</g>
<!-- Node7 -->
<g id="Node000007" class="node">
<title>Node7</title>
<g id="a_Node000007"><a xlink:href="../../d4/d4e/structlamina_1_1FGLMPoly.html#a7eaa64fe293ab238e88741931141de9a" target="_top" xlink:title="判断是否为零多项式">
<polygon fill="white" stroke="#666666" points="690,-396.59 545,-396.59 545,-377.59 690,-377.59 690,-396.59"/>
<text text-anchor="middle" x="617.5" y="-384.59" font-family="Helvetica,sans-Serif" font-size="10.00">lamina::FGLMPoly::is_zero</text>
</a>
</g>
</g>
<!-- Node1&#45;&gt;Node7 -->
<g id="edge7_Node000001_Node000007" class="edge">
<title>Node1&#45;&gt;Node7</title>
<g id="a_edge7_Node000001_Node000007"><a xlink:title=" ">
<path fill="none" stroke="#63b8ff" d="M67.39,-301.79C80.48,-322.26 114.2,-369.43 157,-387.09 223.03,-414.34 421.57,-403.47 534.89,-394.47"/>
<polygon fill="#63b8ff" stroke="#63b8ff" points="535.22,-397.96 544.91,-393.66 534.66,-390.98 535.22,-397.96"/>
</a>
</g>
</g>
<!-- Node8 -->
<g id="Node000008" class="node">
<title>Node8</title>
<g id="a_Node000008"><a xlink:href="../../d1/d42/namespacelamina.html#a8158996699ada9d74093e788797ae563" target="_top" xlink:title="判断理想是否为零维（每个变量都有纯幂次首项）">
<polygon fill="white" stroke="#666666" points="313,-377.59 157,-377.59 157,-358.59 313,-358.59 313,-377.59"/>
<text text-anchor="middle" x="235" y="-365.59" font-family="Helvetica,sans-Serif" font-size="10.00">lamina::is_zero_dimensional</text>
</a>
</g>
</g>
<!-- Node1&#45;&gt;Node8 -->
<g id="edge8_Node000001_Node000008" class="edge">
<title>Node1&#45;&gt;Node8</title>
<g id="a_edge8_Node000001_Node000008"><a xlink:title=" ">
<path fill="none" stroke="#63b8ff" d="M76.91,-301.72C95.41,-312.98 127.62,-331.66 157,-344.09 166.97,-348.31 177.94,-352.17 188.39,-355.5"/>
<polygon fill="#63b8ff" stroke="#63b8ff" points="187.62,-358.93 198.21,-358.53 189.69,-352.24 187.62,-358.93"/>
</a>
</g>
</g>
<!-- Node9 -->
<g id="Node000009" class="node">
<title>Node9</title>
<g id="a_Node000009"><a xlink:href="../../d4/d4e/structlamina_1_1FGLMPoly.html#a1041ade8aaa9f73e16dd52e78dd5a20b" target="_top" xlink:title="获取首项单项式">
<polygon fill="white" stroke="#666666" points="680,-339.59 555,-339.59 555,-320.59 680,-320.59 680,-339.59"/>
<text text-anchor="middle" x="617.5" y="-327.59" font-family="Helvetica,sans-Serif" font-size="10.00">lamina::FGLMPoly::LM</text>
</a>
</g>
</g>
<!-- Node1&#45;&gt;Node9 -->
<g id="edge11_Node000001_Node000009" class="edge">
<title>Node1&#45;&gt;Node9</title>
<g id="a_edge11_Node000001_Node000009"><a xlink:title=" ">
<path fill="none" stroke="#63b8ff" d="M121.09,-297.26C132.98,-298.24 145.39,-299.23 157,-300.09 294.02,-310.3 454.18,-320.33 544.64,-325.81"/>
<polygon fill="#63b8ff" stroke="#63b8ff" points="544.59,-329.31 554.79,-326.43 545.02,-322.33 544.59,-329.31"/>
</a>
</g>
</g>
<!-- Node10 -->
<g id="Node000010" class="node">
<title>Node10</title>
<g id="a_Node000010"><a xlink:href="../../d4/d4e/structlamina_1_1FGLMPoly.html#aba84da3b4908c73b6301cf2efc3ffa73" target="_top" xlink:title="获取首项系数">
<polygon fill="white" stroke="#666666" points="678.5,-282.59 556.5,-282.59 556.5,-263.59 678.5,-263.59 678.5,-282.59"/>
<text text-anchor="middle" x="617.5" y="-270.59" font-family="Helvetica,sans-Serif" font-size="10.00">lamina::FGLMPoly::LC</text>
</a>
</g>
</g>
<!-- Node1&#45;&gt;Node10 -->
<g id="edge10_Node000001_Node000010" class="edge">
<title>Node1&#45;&gt;Node10</title>
<g id="a_edge10_Node000001_Node000010"><a xlink:title=" ">
<path fill="none" stroke="#63b8ff" d="M121.16,-290.05C224.46,-286.51 436.13,-279.27 546.32,-275.5"/>
<polygon fill="#63b8ff" stroke="#63b8ff" points="546.47,-278.99 556.34,-275.15 546.23,-272 546.47,-278.99"/>
</a>
</g>
</g>
<!-- Node11 -->
<g id="Node000011" class="node">
<title>Node11</title>
<g id="a_Node000011"><a xlink:href="../../de/d7c/classlamina_1_1detail_1_1MonomialEnumerator.html#a8e799c348524df75b7c87bfd81005517" target="_top" xlink:title="获取下一个单项式">
<polygon fill="white" stroke="#666666" points="304.5,-226.09 165.5,-226.09 165.5,-196.09 304.5,-196.09 304.5,-226.09"/>
<text text-anchor="start" x="173.5" y="-214.09" font-family="Helvetica,sans-Serif" font-size="10.00">lamina::detail::Monomial</text>
<text text-anchor="middle" x="235" y="-203.09" font-family="Helvetica,sans-Serif" font-size="10.00">Enumerator::next</text>
</a>
</g>
</g>
<!-- Node1&#45;&gt;Node11 -->
<g id="edge12_Node000001_Node000011" class="edge">
<title>Node1&#45;&gt;Node11</title>
<g id="a_edge12_Node000001_Node000011"><a xlink:title=" ">
<path fill="none" stroke="#63b8ff" d="M75.54,-282.55C93.72,-270.5 126.67,-249.72 157,-236.09 162.05,-233.83 167.37,-231.66 172.75,-229.63"/>
<polygon fill="#63b8ff" stroke="#63b8ff" points="174.26,-232.81 182.47,-226.11 171.87,-226.22 174.26,-232.81"/>
</a>
</g>
</g>
<!-- Node14 -->
<g id="Node000014" class="node">
<title>Node14</title>
<g id="a_Node000014"><a xlink:href="../../d1/d42/namespacelamina.html#a615da511a869f4ba0daf5754985bad01" target="_top" xlink:title="计算多项式关于基的标准形（余式）">
<polygon fill="white" stroke="#666666" points="294.5,-263.59 175.5,-263.59 175.5,-244.59 294.5,-244.59 294.5,-263.59"/>
<text text-anchor="middle" x="235" y="-251.59" font-family="Helvetica,sans-Serif" font-size="10.00">lamina::normal_form</text>
</a>
</g>
</g>
<!-- Node1&#45;&gt;Node14 -->
<g id="edge15_Node000001_Node000014" class="edge">
<title>Node1&#45;&gt;Node14</title>
<g id="a_edge15_Node000001_Node000014"><a xlink:title=" ">
<path fill="none" stroke="#63b8ff" d="M105.03,-282.5C128.1,-277.42 156.63,-271.14 180.98,-265.77"/>
<polygon fill="#63b8ff" stroke="#63b8ff" points="181.77,-269.18 190.78,-263.61 180.27,-262.35 181.77,-269.18"/>
</a>
</g>
</g>
<!-- Node16 -->
<g id="Node000016" class="node">
<title>Node16</title>
<g id="a_Node000016"><a xlink:href="../../d4/d4e/structlamina_1_1FGLMPoly.html#ac7ffc352e752ef44537bc1a09f35456f" target="_top" xlink:title="合并同类项并去除零项">
<polygon fill="white" stroke="#666666" points="697,-226.59 538,-226.59 538,-207.59 697,-207.59 697,-226.59"/>
<text text-anchor="middle" x="617.5" y="-214.59" font-family="Helvetica,sans-Serif" font-size="10.00">lamina::FGLMPoly::normalize</text>
</a>
</g>
</g>
<!-- Node1&#45;&gt;Node16 -->
<g id="edge24_Node000001_Node000016" class="edge">
<title>Node1&#45;&gt;Node16</title>
<g id="a_edge24_Node000001_Node000016"><a xlink:title=" ">
<path fill="none" stroke="#63b8ff" d="M67.24,-282.38C80.28,-261.28 114.3,-211.21 157,-187.09 232.75,-144.32 262.43,-157.58 349,-149.09 416.68,-142.46 436.43,-131.09 502,-149.09 538.64,-159.15 575.43,-184.32 597.07,-201.06"/>
<polygon fill="#63b8ff" stroke="#63b8ff" points="595.1,-203.96 605.12,-207.43 599.45,-198.48 595.1,-203.96"/>
</a>
</g>
</g>
<!-- Node17 -->
<g id="Node000017" class="node">
<title>Node17</title>
<g id="a_Node000017"><a xlink:href="../../d4/d4e/structlamina_1_1FGLMPoly.html#a01e29a801e350f7b7112d983724b1247" target="_top" xlink:title="按指定单项式序排序各项">
<polygon fill="white" stroke="#666666" points="682,-151.09 553,-151.09 553,-121.09 682,-121.09 682,-151.09"/>
<text text-anchor="start" x="561" y="-139.09" font-family="Helvetica,sans-Serif" font-size="10.00">lamina::FGLMPoly::sort</text>
<text text-anchor="middle" x="617.5" y="-128.09" font-family="Helvetica,sans-Serif" font-size="10.00">_terms</text>
</a>
</g>
</g>
<!-- Node1&#45;&gt;Node17 -->
<g id="edge27_Node000001_Node000017" class="edge">
<title>Node1&#45;&gt;Node17</title>
<g id="a_edge27_Node000001_Node000017"><a xlink:title=" ">
<path fill="none" stroke="#63b8ff" d="M64.49,-282.49C73.41,-255.59 102.71,-179.45 157,-148.09 279.84,-77.13 453.66,-98.94 548.41,-118.89"/>
<polygon fill="#63b8ff" stroke="#63b8ff" points="547.94,-122.37 558.45,-121.06 549.42,-115.53 547.94,-122.37"/>
</a>
</g>
</g>
<!-- Node18 -->
<g id="Node000018" class="node">
<title>Node18</title>
<g id="a_Node000018"><a xlink:href="../../d1/d42/namespacelamina.html#a809ed2cd961ec7298f777fe36883cd27" target="_top" xlink:title="计算商空间维数（标准单项式个数）">
<polygon fill="white" stroke="#666666" points="502,-25.59 349,-25.59 349,-6.59 502,-6.59 502,-25.59"/>
<text text-anchor="middle" x="425.5" y="-13.59" font-family="Helvetica,sans-Serif" font-size="10.00">lamina::quotient_dimension</text>
</a>
</g>
</g>
<!-- Node1&#45;&gt;Node18 -->
<g id="edge25_Node000001_Node000018" class="edge">
<title>Node1&#45;&gt;Node18</title>
<g id="a_edge25_Node000001_Node000018"><a xlink:title=" ">
<path fill="none" stroke="#63b8ff" d="M61.76,-282.5C63.36,-244.34 74.81,-102.45 157,-40.09 217.45,5.77 309.14,3.02 367.92,-5.07"/>
<polygon fill="#63b8ff" stroke="#63b8ff" points="367.74,-8.58 378.14,-6.57 368.76,-1.65 367.74,-8.58"/>
</a>
</g>
</g>
<!-- Node3 -->
<g id="Node000003" class="node">
<title>Node3</title>
<g id="a_Node000003"><a xlink:href="../../d8/da7/classRational.html#a782a77721d3d519323bde766752cabdf" target="_top" xlink:title="判断是否为零">
<polygon fill="white" stroke="#666666" points="831,-458.59 733,-458.59 733,-439.59 831,-439.59 831,-458.59"/>
<text text-anchor="middle" x="782" y="-446.59" font-family="Helvetica,sans-Serif" font-size="10.00">Rational::is_zero</text>
</a>
</g>
</g>
<!-- Node2&#45;&gt;Node3 -->
<g id="edge2_Node000002_Node000003" class="edge">
<title>Node2&#45;&gt;Node3</title>
<g id="a_edge2_Node000002_Node000003"><a xlink:title=" ">
<path fill="none" stroke="#63b8ff" d="M696.42,-449.09C705.22,-449.09 714.07,-449.09 722.57,-449.09"/>
<polygon fill="#63b8ff" stroke="#63b8ff" points="722.72,-452.59 732.72,-449.09 722.72,-445.59 722.72,-452.59"/>
</a>
</g>
</g>
<!-- Node6&#45;&gt;Node2 -->
<g id="edge6_Node000006_Node000002" class="edge">
<title>Node6&#45;&gt;Node2</title>
<g id="a_edge6_Node000006_Node000002"><a xlink:title=" ">
<path fill="none" stroke="#63b8ff" d="M492.69,-449.09C504.32,-449.09 516.58,-449.09 528.69,-449.09"/>
<polygon fill="#63b8ff" stroke="#63b8ff" points="528.81,-452.59 538.81,-449.09 528.81,-445.59 528.81,-452.59"/>
</a>
</g>
</g>
<!-- Node8&#45;&gt;Node9 -->
<g id="edge9_Node000008_Node000009" class="edge">
<title>Node8&#45;&gt;Node9</title>
<g id="a_edge9_Node000008_Node000009"><a xlink:title=" ">
<path fill="none" stroke="#63b8ff" d="M313.18,-361.78C366.31,-357.27 438.49,-350.84 502,-344.09 515.78,-342.63 530.48,-340.93 544.59,-339.24"/>
<polygon fill="#63b8ff" stroke="#63b8ff" points="545.23,-342.69 554.74,-338.01 544.39,-335.74 545.23,-342.69"/>
</a>
</g>
</g>
<!-- Node12 -->
<g id="Node000012" class="node">
<title>Node12</title>
<g id="a_Node000012"><a xlink:href="../../de/d7c/classlamina_1_1detail_1_1MonomialEnumerator.html#a1914f3b5d03c964c3929093f08e441db" target="_top" xlink:title=" ">
<polygon fill="white" stroke="#666666" points="495,-226.09 356,-226.09 356,-196.09 495,-196.09 495,-226.09"/>
<text text-anchor="start" x="364" y="-214.09" font-family="Helvetica,sans-Serif" font-size="10.00">lamina::detail::Monomial</text>
<text text-anchor="middle" x="425.5" y="-203.09" font-family="Helvetica,sans-Serif" font-size="10.00">Enumerator::push</text>
</a>
</g>
</g>
<!-- Node11&#45;&gt;Node12 -->
<g id="edge13_Node000011_Node000012" class="edge">
<title>Node11&#45;&gt;Node12</title>
<g id="a_edge13_Node000011_Node000012"><a xlink:title=" ">
<path fill="none" stroke="#63b8ff" d="M304.59,-211.09C317.92,-211.09 332,-211.09 345.64,-211.09"/>
<polygon fill="#63b8ff" stroke="#63b8ff" points="345.97,-214.59 355.97,-211.09 345.96,-207.59 345.97,-214.59"/>
</a>
</g>
</g>
<!-- Node13 -->
<g id="Node000013" class="node">
<title>Node13</title>
<g id="a_Node000013"><a xlink:href="../../d1/d42/namespacelamina.html#a33c68aed536f8284ccb988c65de34e2b" target="_top" xlink:title="计算单项式的全次数">
<polygon fill="white" stroke="#666666" points="484.5,-177.59 366.5,-177.59 366.5,-158.59 484.5,-158.59 484.5,-177.59"/>
<text text-anchor="middle" x="425.5" y="-165.59" font-family="Helvetica,sans-Serif" font-size="10.00">lamina::total_degree</text>
</a>
</g>
</g>
<!-- Node11&#45;&gt;Node13 -->
<g id="edge14_Node000011_Node000013" class="edge">
<title>Node11&#45;&gt;Node13</title>
<g id="a_edge14_Node000011_Node000013"><a xlink:title=" ">
<path fill="none" stroke="#63b8ff" d="M301.93,-196.05C325.22,-190.74 351.06,-184.85 372.98,-179.85"/>
<polygon fill="#63b8ff" stroke="#63b8ff" points="373.79,-183.25 382.76,-177.62 372.23,-176.43 373.79,-183.25"/>
</a>
</g>
</g>
<!-- Node15 -->
<g id="Node000015" class="node">
<title>Node15</title>
<g id="a_Node000015"><a xlink:href="../../d4/d4e/structlamina_1_1FGLMPoly.html#aac6abd7b0ee2df21ac10794a675244a0" target="_top" xlink:title="对给定基进行多项式约化">
<polygon fill="white" stroke="#666666" points="497,-263.59 354,-263.59 354,-244.59 497,-244.59 497,-263.59"/>
<text text-anchor="middle" x="425.5" y="-251.59" font-family="Helvetica,sans-Serif" font-size="10.00">lamina::FGLMPoly::reduce</text>
</a>
</g>
</g>
<!-- Node14&#45;&gt;Node15 -->
<g id="edge16_Node000014_Node000015" class="edge">
<title>Node14&#45;&gt;Node15</title>
<g id="a_edge16_Node000014_Node000015"><a xlink:title=" ">
<path fill="none" stroke="#63b8ff" d="M294.61,-254.09C310.09,-254.09 327.08,-254.09 343.52,-254.09"/>
<polygon fill="#63b8ff" stroke="#63b8ff" points="343.67,-257.59 353.67,-254.09 343.67,-250.59 343.67,-257.59"/>
</a>
</g>
</g>
<!-- Node15&#45;&gt;Node2 -->
<g id="edge17_Node000015_Node000002" class="edge">
<title>Node15&#45;&gt;Node2</title>
<g id="a_edge17_Node000015_Node000002"><a xlink:title=" ">
<path fill="none" stroke="#63b8ff" d="M431.59,-263.76C445.59,-289.62 487.05,-361.45 538,-406.09 551.42,-417.85 568.6,-427.72 583.46,-435.02"/>
<polygon fill="#63b8ff" stroke="#63b8ff" points="582.29,-438.34 592.83,-439.44 585.28,-432.01 582.29,-438.34"/>
</a>
</g>
</g>
<!-- Node15&#45;&gt;Node5 -->
<g id="edge18_Node000015_Node000005" class="edge">
<title>Node15&#45;&gt;Node5</title>
<g id="a_edge18_Node000015_Node000005"><a xlink:title=" ">
<path fill="none" stroke="#63b8ff" d="M488.36,-244.53C493.36,-242.04 498.01,-238.94 502,-235.09 543.04,-195.59 505.39,-158.79 538,-112.09 550.85,-93.69 571.42,-78.8 588.28,-68.72"/>
<polygon fill="#63b8ff" stroke="#63b8ff" points="590.25,-71.62 597.19,-63.62 586.78,-65.55 590.25,-71.62"/>
</a>
</g>
</g>
<!-- Node15&#45;&gt;Node7 -->
<g id="edge19_Node000015_Node000007" class="edge">
<title>Node15&#45;&gt;Node7</title>
<g id="a_edge19_Node000015_Node000007"><a xlink:title=" ">
<path fill="none" stroke="#63b8ff" d="M435.97,-263.65C454.4,-281.89 496.9,-322.27 538,-349.09 552.11,-358.3 568.8,-366.69 583.14,-373.23"/>
<polygon fill="#63b8ff" stroke="#63b8ff" points="582.08,-376.59 592.64,-377.44 584.92,-370.19 582.08,-376.59"/>
</a>
</g>
</g>
<!-- Node15&#45;&gt;Node9 -->
<g id="edge21_Node000015_Node000009" class="edge">
<title>Node15&#45;&gt;Node9</title>
<g id="a_edge21_Node000015_Node000009"><a xlink:title=" ">
<path fill="none" stroke="#63b8ff" d="M450.56,-263.72C484.11,-277.14 545.08,-301.53 583.04,-316.71"/>
<polygon fill="#63b8ff" stroke="#63b8ff" points="582.05,-320.08 592.63,-320.55 584.65,-313.58 582.05,-320.08"/>
</a>
</g>
</g>
<!-- Node15&#45;&gt;Node10 -->
<g id="edge20_Node000015_Node000010" class="edge">
<title>Node15&#45;&gt;Node10</title>
<g id="a_edge20_Node000015_Node000010"><a xlink:title=" ">
<path fill="none" stroke="#63b8ff" d="M497.25,-261.17C513.17,-262.76 530.07,-264.45 545.99,-266.04"/>
<polygon fill="#63b8ff" stroke="#63b8ff" points="545.99,-269.56 556.28,-267.07 546.68,-262.59 545.99,-269.56"/>
</a>
</g>
</g>
<!-- Node15&#45;&gt;Node16 -->
<g id="edge22_Node000015_Node000016" class="edge">
<title>Node15&#45;&gt;Node16</title>
<g id="a_edge22_Node000015_Node000016"><a xlink:title=" ">
<path fill="none" stroke="#63b8ff" d="M475.43,-244.56C500.49,-239.69 531.18,-233.71 557.54,-228.58"/>
<polygon fill="#63b8ff" stroke="#63b8ff" points="558.26,-232 567.41,-226.65 556.92,-225.13 558.26,-232"/>
</a>
</g>
</g>
<!-- Node15&#45;&gt;Node17 -->
<g id="edge23_Node000015_Node000017" class="edge">
<title>Node15&#45;&gt;Node17</title>
<g id="a_edge23_Node000015_Node000017"><a xlink:title=" ">
<path fill="none" stroke="#63b8ff" d="M479.89,-244.52C487.58,-242.05 495.18,-238.96 502,-235.09 521.68,-223.93 521.15,-214.2 538,-199.09 554.14,-184.63 573.07,-169.39 588.29,-157.52"/>
<polygon fill="#63b8ff" stroke="#63b8ff" points="590.56,-160.19 596.33,-151.31 586.28,-154.66 590.56,-160.19"/>
</a>
</g>
</g>
<!-- Node18&#45;&gt;Node5 -->
<g id="edge26_Node000018_Node000005" class="edge">
<title>Node18&#45;&gt;Node5</title>
<g id="a_edge26_Node000018_Node000005"><a xlink:title=" ">
<path fill="none" stroke="#63b8ff" d="M474.45,-25.68C500.08,-30.81 531.84,-37.16 558.82,-42.56"/>
<polygon fill="#63b8ff" stroke="#63b8ff" points="558.41,-46.04 568.9,-44.57 559.78,-39.18 558.41,-46.04"/>
</a>
</g>
</g>
</g>
</svg>
