<?xml version="1.0" encoding="UTF-8" standalone="no"?>
<!DOCTYPE svg PUBLIC "-//W3C//DTD SVG 1.1//EN"
 "http://www.w3.org/Graphics/SVG/1.1/DTD/svg11.dtd">
<!-- Generated by graphviz version 2.43.0 (0)
 -->
<!-- Title: lamina::solve_cubic Pages: 1 -->
<svg width="779pt" height="620pt"
 viewBox="0.00 0.00 779.00 620.19" xmlns="http://www.w3.org/2000/svg" xmlns:xlink="http://www.w3.org/1999/xlink">
<g id="graph0" class="graph" transform="scale(1 1) rotate(0) translate(4 616.19)">
<title>lamina::solve_cubic</title>
<!-- Node1 -->
<g id="Node000001" class="node">
<title>Node1</title>
<g id="a_Node000001"><a xlink:title="使用三次公式求解三次方程 ax³ + bx² + cx + d = 0。">
<polygon fill="#999999" stroke="#666666" points="113,-342.62 0,-342.62 0,-323.62 113,-323.62 113,-342.62"/>
<text text-anchor="middle" x="56.5" y="-330.62" font-family="Helvetica,sans-Serif" font-size="10.00">lamina::solve_cubic</text>
</a>
</g>
</g>
<!-- Node2 -->
<g id="Node000002" class="node">
<title>Node2</title>
<g id="a_Node000002"><a xlink:href="../../dc/d25/classSymbolicExpr.html#ac8782568f037f8055277e5d8b80ec6d6" target="_top" xlink:title="创建加法表达式。">
<polygon fill="white" stroke="#666666" points="599,-162.62 492,-162.62 492,-143.62 599,-143.62 599,-162.62"/>
<text text-anchor="middle" x="545.5" y="-150.62" font-family="Helvetica,sans-Serif" font-size="10.00">SymbolicExpr::add</text>
</a>
</g>
</g>
<!-- Node1&#45;&gt;Node2 -->
<g id="edge1_Node000001_Node000002" class="edge">
<title>Node1&#45;&gt;Node2</title>
<g id="a_edge1_Node000001_Node000002"><a xlink:title=" ">
<path fill="none" stroke="#63b8ff" d="M58.56,-323.29C62.78,-289.47 81.54,-177.18 149,-125.12 255.4,-43.02 320.52,-60.09 450,-96.12 478.55,-104.06 507.1,-123.22 525.23,-137.14"/>
<polygon fill="#63b8ff" stroke="#63b8ff" points="523.23,-140.02 533.24,-143.48 527.57,-134.53 523.23,-140.02"/>
</a>
</g>
</g>
<!-- Node3 -->
<g id="Node000003" class="node">
<title>Node3</title>
<g id="a_Node000003"><a xlink:href="../../d1/d42/namespacelamina.html#a5674a8bdb6ea1d73d8ccbc37846c4d2d" target="_top" xlink:title=" ">
<polygon fill="white" stroke="#666666" points="441.5,-542.62 339.5,-542.62 339.5,-523.62 441.5,-523.62 441.5,-542.62"/>
<text text-anchor="middle" x="390.5" y="-530.62" font-family="Helvetica,sans-Serif" font-size="10.00">lamina::cbrt_expr</text>
</a>
</g>
</g>
<!-- Node1&#45;&gt;Node3 -->
<g id="edge2_Node000001_Node000003" class="edge">
<title>Node1&#45;&gt;Node3</title>
<g id="a_edge2_Node000001_Node000003"><a xlink:title=" ">
<path fill="none" stroke="#63b8ff" d="M59.24,-342.87C65.26,-373.46 88.27,-467.98 149,-509.12 201.92,-544.97 277.03,-546.65 329.17,-542.14"/>
<polygon fill="#63b8ff" stroke="#63b8ff" points="329.66,-545.6 339.28,-541.16 328.99,-538.64 329.66,-545.6"/>
</a>
</g>
</g>
<!-- Node4 -->
<g id="Node000004" class="node">
<title>Node4</title>
<g id="a_Node000004"><a xlink:href="../../dc/d25/classSymbolicExpr.html#adeb760bb6f4f28879108394537eca293" target="_top" xlink:title="创建整数数值表达式。">
<polygon fill="white" stroke="#666666" points="769.5,-466.62 642.5,-466.62 642.5,-447.62 769.5,-447.62 769.5,-466.62"/>
<text text-anchor="middle" x="706" y="-454.62" font-family="Helvetica,sans-Serif" font-size="10.00">SymbolicExpr::number</text>
</a>
</g>
</g>
<!-- Node1&#45;&gt;Node4 -->
<g id="edge16_Node000001_Node000004" class="edge">
<title>Node1&#45;&gt;Node4</title>
<g id="a_edge16_Node000001_Node000004"><a xlink:title=" ">
<path fill="none" stroke="#63b8ff" d="M58.36,-342.67C61.97,-376.5 79.12,-491.26 149,-540.12 315.09,-656.26 417.21,-613.35 605,-537.12 639.43,-523.14 671.52,-493.32 689.66,-474.3"/>
<polygon fill="#63b8ff" stroke="#63b8ff" points="692.3,-476.59 696.54,-466.88 687.17,-471.83 692.3,-476.59"/>
</a>
</g>
</g>
<!-- Node5 -->
<g id="Node000005" class="node">
<title>Node5</title>
<g id="a_Node000005"><a xlink:href="../../dc/d25/classSymbolicExpr.html#ab03922681e30190ba7c73d2c1e58aa40" target="_top" xlink:title="创建幂运算表达式。">
<polygon fill="white" stroke="#666666" points="605,-504.62 486,-504.62 486,-485.62 605,-485.62 605,-504.62"/>
<text text-anchor="middle" x="545.5" y="-492.62" font-family="Helvetica,sans-Serif" font-size="10.00">SymbolicExpr::power</text>
</a>
</g>
</g>
<!-- Node1&#45;&gt;Node5 -->
<g id="edge17_Node000001_Node000005" class="edge">
<title>Node1&#45;&gt;Node5</title>
<g id="a_edge17_Node000001_Node000005"><a xlink:title=" ">
<path fill="none" stroke="#63b8ff" d="M60.74,-342.7C69.91,-368.11 98.67,-437.26 149,-466.12 202.93,-497.05 377.62,-498.77 475.83,-497.1"/>
<polygon fill="#63b8ff" stroke="#63b8ff" points="476.03,-500.6 485.96,-496.91 475.9,-493.6 476.03,-500.6"/>
</a>
</g>
</g>
<!-- Node6 -->
<g id="Node000006" class="node">
<title>Node6</title>
<g id="a_Node000006"><a xlink:href="../../dc/d25/classSymbolicExpr.html#aea4c251b3fd9994c77fb8b26dae96d5f" target="_top" xlink:title="执行符号除法。">
<polygon fill="white" stroke="#666666" points="450,-466.62 331,-466.62 331,-447.62 450,-447.62 450,-466.62"/>
<text text-anchor="middle" x="390.5" y="-454.62" font-family="Helvetica,sans-Serif" font-size="10.00">SymbolicExpr::divide</text>
</a>
</g>
</g>
<!-- Node1&#45;&gt;Node6 -->
<g id="edge5_Node000001_Node000006" class="edge">
<title>Node1&#45;&gt;Node6</title>
<g id="a_edge5_Node000001_Node000006"><a xlink:title=" ">
<path fill="none" stroke="#63b8ff" d="M62.52,-342.87C74.26,-364.52 105.81,-416.37 149,-438.12 202.2,-464.9 270.5,-467.79 320.72,-465.07"/>
<polygon fill="#63b8ff" stroke="#63b8ff" points="321.07,-468.56 330.83,-464.44 320.63,-461.57 321.07,-468.56"/>
</a>
</g>
</g>
<!-- Node7 -->
<g id="Node000007" class="node">
<title>Node7</title>
<g id="a_Node000007"><a xlink:href="../../dc/d25/classSymbolicExpr.html#ad03189fc8a4db7762f7c1ca890674bbc" target="_top" xlink:title="创建乘法表达式。">
<polygon fill="white" stroke="#666666" points="771,-267.62 641,-267.62 641,-248.62 771,-248.62 771,-267.62"/>
<text text-anchor="middle" x="706" y="-255.62" font-family="Helvetica,sans-Serif" font-size="10.00">SymbolicExpr::multiply</text>
</a>
</g>
</g>
<!-- Node1&#45;&gt;Node7 -->
<g id="edge10_Node000001_Node000007" class="edge">
<title>Node1&#45;&gt;Node7</title>
<g id="a_edge10_Node000001_Node000007"><a xlink:title=" ">
<path fill="none" stroke="#63b8ff" d="M57.19,-323.49C56.47,-283.17 59.7,-127.14 149,-63.12 315.69,56.39 442.4,-9.1 605,-134.12 644.44,-164.45 677.84,-213.39 694.2,-239.8"/>
<polygon fill="#63b8ff" stroke="#63b8ff" points="691.26,-241.71 699.44,-248.44 697.25,-238.08 691.26,-241.71"/>
</a>
</g>
</g>
<!-- Node8 -->
<g id="Node000008" class="node">
<title>Node8</title>
<g id="a_Node000008"><a xlink:href="../../d1/d42/namespacelamina.html#a4d22c9d513f3c1465ce68099089dfa0d" target="_top" xlink:title=" ">
<polygon fill="white" stroke="#666666" points="295,-342.62 149,-342.62 149,-323.62 295,-323.62 295,-342.62"/>
<text text-anchor="middle" x="222" y="-330.62" font-family="Helvetica,sans-Serif" font-size="10.00">lamina::is_purely_numeric</text>
</a>
</g>
</g>
<!-- Node1&#45;&gt;Node8 -->
<g id="edge9_Node000001_Node000008" class="edge">
<title>Node1&#45;&gt;Node8</title>
<g id="a_edge9_Node000001_Node000008"><a xlink:title=" ">
<path fill="none" stroke="#63b8ff" d="M113.31,-333.12C121.56,-333.12 130.19,-333.12 138.84,-333.12"/>
<polygon fill="#63b8ff" stroke="#63b8ff" points="138.96,-336.62 148.96,-333.12 138.96,-329.62 138.96,-336.62"/>
</a>
</g>
</g>
<!-- Node9 -->
<g id="Node000009" class="node">
<title>Node9</title>
<g id="a_Node000009"><a xlink:href="../../d1/d42/namespacelamina.html#a547ba21cbbce3cfa9cb807bbeb724b02" target="_top" xlink:title=" ">
<polygon fill="white" stroke="#666666" points="590.5,-295.62 500.5,-295.62 500.5,-276.62 590.5,-276.62 590.5,-295.62"/>
<text text-anchor="middle" x="545.5" y="-283.62" font-family="Helvetica,sans-Serif" font-size="10.00">lamina::negate</text>
</a>
</g>
</g>
<!-- Node1&#45;&gt;Node9 -->
<g id="edge11_Node000001_Node000009" class="edge">
<title>Node1&#45;&gt;Node9</title>
<g id="a_edge11_Node000001_Node000009"><a xlink:title=" ">
<path fill="none" stroke="#63b8ff" d="M97.84,-323.53C113.7,-320.08 132.13,-316.46 149,-314.12 270.12,-297.33 413.59,-290.36 490.07,-287.67"/>
<polygon fill="#63b8ff" stroke="#63b8ff" points="490.53,-291.15 500.41,-287.31 490.29,-284.16 490.53,-291.15"/>
</a>
</g>
</g>
<!-- Node10 -->
<g id="Node000010" class="node">
<title>Node10</title>
<g id="a_Node000010"><a xlink:href="../../d1/d42/namespacelamina.html#a78a46efcff5ce7151a74984c5381cd71" target="_top" xlink:title=" ">
<polygon fill="white" stroke="#666666" points="429.5,-352.62 351.5,-352.62 351.5,-333.62 429.5,-333.62 429.5,-352.62"/>
<text text-anchor="middle" x="390.5" y="-340.62" font-family="Helvetica,sans-Serif" font-size="10.00">lamina::num</text>
</a>
</g>
</g>
<!-- Node1&#45;&gt;Node10 -->
<g id="edge14_Node000001_Node000010" class="edge">
<title>Node1&#45;&gt;Node10</title>
<g id="a_edge14_Node000001_Node000010"><a xlink:title=" ">
<path fill="none" stroke="#63b8ff" d="M97.34,-342.7C113.3,-346.08 131.92,-349.46 149,-351.12 215.43,-357.59 292.62,-352.87 341.27,-348.4"/>
<polygon fill="#63b8ff" stroke="#63b8ff" points="341.87,-351.86 351.5,-347.43 341.21,-344.89 341.87,-351.86"/>
</a>
</g>
</g>
<!-- Node11 -->
<g id="Node000011" class="node">
<title>Node11</title>
<g id="a_Node000011"><a xlink:href="../../d1/d42/namespacelamina.html#a31b9d093026d34d29e37ed0a38013fd9" target="_top" xlink:title=" ">
<polygon fill="white" stroke="#666666" points="280,-429.12 164,-429.12 164,-399.12 280,-399.12 280,-429.12"/>
<text text-anchor="start" x="172" y="-417.12" font-family="Helvetica,sans-Serif" font-size="10.00">lamina::solve_linear</text>
<text text-anchor="middle" x="222" y="-406.12" font-family="Helvetica,sans-Serif" font-size="10.00">_internal</text>
</a>
</g>
</g>
<!-- Node1&#45;&gt;Node11 -->
<g id="edge18_Node000001_Node000011" class="edge">
<title>Node1&#45;&gt;Node11</title>
<g id="a_edge18_Node000001_Node000011"><a xlink:title=" ">
<path fill="none" stroke="#63b8ff" d="M73.02,-342.79C90.96,-353.77 121.52,-371.85 149,-385.12 156.25,-388.62 164.03,-392.06 171.71,-395.29"/>
<polygon fill="#63b8ff" stroke="#63b8ff" points="170.39,-398.53 180.97,-399.1 173.06,-392.06 170.39,-398.53"/>
</a>
</g>
</g>
<!-- Node12 -->
<g id="Node000012" class="node">
<title>Node12</title>
<g id="a_Node000012"><a xlink:href="../../d1/d42/namespacelamina.html#a0a882c5382e9e03230d59990c2e159e8" target="_top" xlink:title=" ">
<polygon fill="white" stroke="#666666" points="289,-267.12 155,-267.12 155,-237.12 289,-237.12 289,-267.12"/>
<text text-anchor="start" x="163" y="-255.12" font-family="Helvetica,sans-Serif" font-size="10.00">lamina::solve_quadratic</text>
<text text-anchor="middle" x="222" y="-244.12" font-family="Helvetica,sans-Serif" font-size="10.00">_internal</text>
</a>
</g>
</g>
<!-- Node1&#45;&gt;Node12 -->
<g id="edge21_Node000001_Node000012" class="edge">
<title>Node1&#45;&gt;Node12</title>
<g id="a_edge21_Node000001_Node000012"><a xlink:title=" ">
<path fill="none" stroke="#63b8ff" d="M73.02,-323.45C90.96,-312.47 121.52,-294.39 149,-281.12 156.25,-277.62 164.03,-274.18 171.71,-270.95"/>
<polygon fill="#63b8ff" stroke="#63b8ff" points="173.06,-274.18 180.97,-267.14 170.39,-267.71 173.06,-274.18"/>
</a>
</g>
</g>
<!-- Node13 -->
<g id="Node000013" class="node">
<title>Node13</title>
<g id="a_Node000013"><a xlink:href="../../dc/d25/classSymbolicExpr.html#a521dfd712070d4f40d313de79d3f637c" target="_top" xlink:title="创建平方根表达式，等价于 operand^(1/2)。">
<polygon fill="white" stroke="#666666" points="444.5,-124.62 336.5,-124.62 336.5,-105.62 444.5,-105.62 444.5,-124.62"/>
<text text-anchor="middle" x="390.5" y="-112.62" font-family="Helvetica,sans-Serif" font-size="10.00">SymbolicExpr::sqrt</text>
</a>
</g>
</g>
<!-- Node1&#45;&gt;Node13 -->
<g id="edge32_Node000001_Node000013" class="edge">
<title>Node1&#45;&gt;Node13</title>
<g id="a_edge32_Node000001_Node000013"><a xlink:title=" ">
<path fill="none" stroke="#63b8ff" d="M60.86,-323.24C70.32,-296.94 99.74,-224.64 149,-187.12 200.85,-147.63 274.18,-129.71 326.21,-121.63"/>
<polygon fill="#63b8ff" stroke="#63b8ff" points="326.93,-125.06 336.32,-120.14 325.91,-118.14 326.93,-125.06"/>
</a>
</g>
</g>
<!-- Node14 -->
<g id="Node000014" class="node">
<title>Node14</title>
<g id="a_Node000014"><a xlink:href="../../d1/d42/namespacelamina.html#a35a6950e18d584eaf59a0cf11e790e59" target="_top" xlink:title=" ">
<polygon fill="white" stroke="#666666" points="427.5,-200.62 353.5,-200.62 353.5,-181.62 427.5,-181.62 427.5,-200.62"/>
<text text-anchor="middle" x="390.5" y="-188.62" font-family="Helvetica,sans-Serif" font-size="10.00">lamina::sub</text>
</a>
</g>
</g>
<!-- Node1&#45;&gt;Node14 -->
<g id="edge33_Node000001_Node000014" class="edge">
<title>Node1&#45;&gt;Node14</title>
<g id="a_edge33_Node000001_Node000014"><a xlink:title=" ">
<path fill="none" stroke="#63b8ff" d="M62.64,-323.59C74.62,-302.41 106.64,-251.45 149,-228.12 210.11,-194.47 292.44,-188.84 343.2,-189.08"/>
<polygon fill="#63b8ff" stroke="#63b8ff" points="343.18,-192.58 353.22,-189.2 343.27,-185.58 343.18,-192.58"/>
</a>
</g>
</g>
<!-- Node3&#45;&gt;Node4 -->
<g id="edge3_Node000003_Node000004" class="edge">
<title>Node3&#45;&gt;Node4</title>
<g id="a_edge3_Node000003_Node000004"><a xlink:title=" ">
<path fill="none" stroke="#63b8ff" d="M441.85,-534.63C485.87,-534.55 551.02,-531.02 605,-514.12 634.3,-504.95 664.46,-486.25 683.88,-472.77"/>
<polygon fill="#63b8ff" stroke="#63b8ff" points="686.14,-475.46 692.26,-466.81 682.08,-469.75 686.14,-475.46"/>
</a>
</g>
</g>
<!-- Node3&#45;&gt;Node5 -->
<g id="edge4_Node000003_Node000005" class="edge">
<title>Node3&#45;&gt;Node5</title>
<g id="a_edge4_Node000003_Node000005"><a xlink:title=" ">
<path fill="none" stroke="#63b8ff" d="M430.11,-523.53C450.21,-518.54 474.98,-512.39 496.32,-507.09"/>
<polygon fill="#63b8ff" stroke="#63b8ff" points="497.31,-510.45 506.17,-504.64 495.62,-503.65 497.31,-510.45"/>
</a>
</g>
</g>
<!-- Node6&#45;&gt;Node4 -->
<g id="edge7_Node000006_Node000004" class="edge">
<title>Node6&#45;&gt;Node4</title>
<g id="a_edge7_Node000006_Node000004"><a xlink:title=" ">
<path fill="none" stroke="#63b8ff" d="M450.1,-457.12C501.65,-457.12 576.91,-457.12 632.29,-457.12"/>
<polygon fill="#63b8ff" stroke="#63b8ff" points="632.39,-460.62 642.39,-457.12 632.39,-453.62 632.39,-460.62"/>
</a>
</g>
</g>
<!-- Node6&#45;&gt;Node5 -->
<g id="edge8_Node000006_Node000005" class="edge">
<title>Node6&#45;&gt;Node5</title>
<g id="a_edge8_Node000006_Node000005"><a xlink:title=" ">
<path fill="none" stroke="#63b8ff" d="M430.11,-466.71C450.21,-471.7 474.98,-477.85 496.32,-483.15"/>
<polygon fill="#63b8ff" stroke="#63b8ff" points="495.62,-486.59 506.17,-485.6 497.31,-479.79 495.62,-486.59"/>
</a>
</g>
</g>
<!-- Node6&#45;&gt;Node7 -->
<g id="edge6_Node000006_Node000007" class="edge">
<title>Node6&#45;&gt;Node7</title>
<g id="a_edge6_Node000006_Node000007"><a xlink:title=" ">
<path fill="none" stroke="#63b8ff" d="M406.62,-447.52C457.11,-415.47 620.15,-311.98 681.43,-273.08"/>
<polygon fill="#63b8ff" stroke="#63b8ff" points="683.46,-275.94 690.03,-267.62 679.71,-270.03 683.46,-275.94"/>
</a>
</g>
</g>
<!-- Node9&#45;&gt;Node4 -->
<g id="edge13_Node000009_Node000004" class="edge">
<title>Node9&#45;&gt;Node4</title>
<g id="a_edge13_Node000009_Node000004"><a xlink:title=" ">
<path fill="none" stroke="#63b8ff" d="M555.48,-295.8C581.3,-323.67 656.06,-404.32 689.04,-439.9"/>
<polygon fill="#63b8ff" stroke="#63b8ff" points="686.76,-442.59 696.12,-447.54 691.89,-437.83 686.76,-442.59"/>
</a>
</g>
</g>
<!-- Node9&#45;&gt;Node7 -->
<g id="edge12_Node000009_Node000007" class="edge">
<title>Node9&#45;&gt;Node7</title>
<g id="a_edge12_Node000009_Node000007"><a xlink:title=" ">
<path fill="none" stroke="#63b8ff" d="M590.65,-278.32C606.35,-275.55 624.35,-272.37 641.35,-269.36"/>
<polygon fill="#63b8ff" stroke="#63b8ff" points="641.98,-272.81 651.22,-267.62 640.76,-265.91 641.98,-272.81"/>
</a>
</g>
</g>
<!-- Node10&#45;&gt;Node4 -->
<g id="edge15_Node000010_Node000004" class="edge">
<title>Node10&#45;&gt;Node4</title>
<g id="a_edge15_Node000010_Node000004"><a xlink:title=" ">
<path fill="none" stroke="#63b8ff" d="M417.69,-352.64C473.7,-373.01 605.23,-420.84 669.03,-444.04"/>
<polygon fill="#63b8ff" stroke="#63b8ff" points="668.07,-447.42 678.66,-447.54 670.46,-440.84 668.07,-447.42"/>
</a>
</g>
</g>
<!-- Node11&#45;&gt;Node6 -->
<g id="edge19_Node000011_Node000006" class="edge">
<title>Node11&#45;&gt;Node6</title>
<g id="a_edge19_Node000011_Node000006"><a xlink:title=" ">
<path fill="none" stroke="#63b8ff" d="M280.3,-428.92C300.73,-434.19 323.47,-440.07 342.89,-445.08"/>
<polygon fill="#63b8ff" stroke="#63b8ff" points="342.15,-448.51 352.71,-447.62 343.9,-441.73 342.15,-448.51"/>
</a>
</g>
</g>
<!-- Node11&#45;&gt;Node9 -->
<g id="edge20_Node000011_Node000009" class="edge">
<title>Node11&#45;&gt;Node9</title>
<g id="a_edge20_Node000011_Node000009"><a xlink:title=" ">
<path fill="none" stroke="#63b8ff" d="M280.36,-407.83C327.72,-401 395.71,-387.35 450,-361.12 480.58,-346.34 510.34,-320.19 528.04,-303.01"/>
<polygon fill="#63b8ff" stroke="#63b8ff" points="530.66,-305.34 535.29,-295.81 525.73,-300.37 530.66,-305.34"/>
</a>
</g>
</g>
<!-- Node12&#45;&gt;Node2 -->
<g id="edge22_Node000012_Node000002" class="edge">
<title>Node12&#45;&gt;Node2</title>
<g id="a_edge22_Node000012_Node000002"><a xlink:title=" ">
<path fill="none" stroke="#63b8ff" d="M237.8,-236.87C257.21,-217.95 293.27,-186.46 331,-172.12 379.31,-153.76 438.03,-149.73 481.65,-149.88"/>
<polygon fill="#63b8ff" stroke="#63b8ff" points="481.8,-153.39 491.84,-150 481.88,-146.39 481.8,-153.39"/>
</a>
</g>
</g>
<!-- Node12&#45;&gt;Node5 -->
<g id="edge27_Node000012_Node000005" class="edge">
<title>Node12&#45;&gt;Node5</title>
<g id="a_edge27_Node000012_Node000005"><a xlink:title=" ">
<path fill="none" stroke="#63b8ff" d="M242.61,-267.17C257.66,-279.15 278.58,-296.73 295,-314.12 313.07,-333.25 311.55,-343.4 331,-361.12 347.1,-375.79 467.24,-448.66 519.89,-480.35"/>
<polygon fill="#63b8ff" stroke="#63b8ff" points="518.24,-483.44 528.61,-485.6 521.84,-477.44 518.24,-483.44"/>
</a>
</g>
</g>
<!-- Node12&#45;&gt;Node6 -->
<g id="edge23_Node000012_Node000006" class="edge">
<title>Node12&#45;&gt;Node6</title>
<g id="a_edge23_Node000012_Node000006"><a xlink:title=" ">
<path fill="none" stroke="#63b8ff" d="M245.47,-267.36C260.98,-278.78 281.23,-295.58 295,-314.12 318.5,-345.74 309.17,-362.33 331,-395.12 342.3,-412.1 358.39,-428.76 370.83,-440.53"/>
<polygon fill="#63b8ff" stroke="#63b8ff" points="368.68,-443.31 378.4,-447.52 373.42,-438.16 368.68,-443.31"/>
</a>
</g>
</g>
<!-- Node12&#45;&gt;Node7 -->
<g id="edge24_Node000012_Node000007" class="edge">
<title>Node12&#45;&gt;Node7</title>
<g id="a_edge24_Node000012_Node000007"><a xlink:title=" ">
<path fill="none" stroke="#63b8ff" d="M289.01,-252.94C378.35,-254.05 537.3,-256.03 630.72,-257.2"/>
<polygon fill="#63b8ff" stroke="#63b8ff" points="630.9,-260.7 640.94,-257.32 630.98,-253.7 630.9,-260.7"/>
</a>
</g>
</g>
<!-- Node12&#45;&gt;Node9 -->
<g id="edge25_Node000012_Node000009" class="edge">
<title>Node12&#45;&gt;Node9</title>
<g id="a_edge25_Node000012_Node000009"><a xlink:title=" ">
<path fill="none" stroke="#63b8ff" d="M289.23,-259.12C348.58,-265.4 434.6,-274.5 490.05,-280.36"/>
<polygon fill="#63b8ff" stroke="#63b8ff" points="489.72,-283.85 500.03,-281.42 490.45,-276.88 489.72,-283.85"/>
</a>
</g>
</g>
<!-- Node12&#45;&gt;Node10 -->
<g id="edge26_Node000012_Node000010" class="edge">
<title>Node12&#45;&gt;Node10</title>
<g id="a_edge26_Node000012_Node000010"><a xlink:title=" ">
<path fill="none" stroke="#63b8ff" d="M250.49,-267.15C281.63,-284.17 332.03,-311.71 362.83,-328.54"/>
<polygon fill="#63b8ff" stroke="#63b8ff" points="361.26,-331.67 371.71,-333.4 364.61,-325.53 361.26,-331.67"/>
</a>
</g>
</g>
<!-- Node12&#45;&gt;Node13 -->
<g id="edge28_Node000012_Node000013" class="edge">
<title>Node12&#45;&gt;Node13</title>
<g id="a_edge28_Node000012_Node000013"><a xlink:title=" ">
<path fill="none" stroke="#63b8ff" d="M234.03,-237.01C252,-213.32 289.75,-167.26 331,-139.12 336.79,-135.17 343.33,-131.7 349.88,-128.71"/>
<polygon fill="#63b8ff" stroke="#63b8ff" points="351.56,-131.8 359.41,-124.68 348.84,-125.35 351.56,-131.8"/>
</a>
</g>
</g>
<!-- Node12&#45;&gt;Node14 -->
<g id="edge29_Node000012_Node000014" class="edge">
<title>Node12&#45;&gt;Node14</title>
<g id="a_edge29_Node000012_Node000014"><a xlink:title=" ">
<path fill="none" stroke="#63b8ff" d="M264.16,-237.04C291.65,-226.97 327.46,-213.85 353.76,-204.21"/>
<polygon fill="#63b8ff" stroke="#63b8ff" points="355.15,-207.43 363.34,-200.7 352.74,-200.86 355.15,-207.43"/>
</a>
</g>
</g>
<!-- Node14&#45;&gt;Node2 -->
<g id="edge30_Node000014_Node000002" class="edge">
<title>Node14&#45;&gt;Node2</title>
<g id="a_edge30_Node000014_Node000002"><a xlink:title=" ">
<path fill="none" stroke="#63b8ff" d="M427.76,-182.11C448.22,-177.03 474.05,-170.62 496.21,-165.11"/>
<polygon fill="#63b8ff" stroke="#63b8ff" points="497.24,-168.47 506.1,-162.66 495.55,-161.67 497.24,-168.47"/>
</a>
</g>
</g>
<!-- Node14&#45;&gt;Node9 -->
<g id="edge31_Node000014_Node000009" class="edge">
<title>Node14&#45;&gt;Node9</title>
<g id="a_edge31_Node000014_Node000009"><a xlink:title=" ">
<path fill="none" stroke="#63b8ff" d="M407.01,-200.75C433.7,-217.32 488.5,-251.35 520.26,-271.07"/>
<polygon fill="#63b8ff" stroke="#63b8ff" points="518.6,-274.16 528.95,-276.46 522.3,-268.21 518.6,-274.16"/>
</a>
</g>
</g>
</g>
</svg>
