<?xml version="1.0" encoding="UTF-8" standalone="no"?>
<!DOCTYPE svg PUBLIC "-//W3C//DTD SVG 1.1//EN"
 "http://www.w3.org/Graphics/SVG/1.1/DTD/svg11.dtd">
<!-- Generated by graphviz version 2.43.0 (0)
 -->
<!-- Title: lamina::convert_to_rational_poly Pages: 1 -->
<svg width="802pt" height="156pt"
 viewBox="0.00 0.00 802.00 156.00" xmlns="http://www.w3.org/2000/svg" xmlns:xlink="http://www.w3.org/1999/xlink">
<g id="graph0" class="graph" transform="scale(1 1) rotate(0) translate(4 152)">
<title>lamina::convert_to_rational_poly</title>
<!-- Node1 -->
<g id="Node000001" class="node">
<title>Node1</title>
<g id="a_Node000001"><a xlink:title=" ">
<polygon fill="#999999" stroke="#666666" points="108,-111.5 0,-111.5 0,-81.5 108,-81.5 108,-111.5"/>
<text text-anchor="start" x="8" y="-99.5" font-family="Helvetica,sans-Serif" font-size="10.00">lamina::convert_to</text>
<text text-anchor="middle" x="54" y="-88.5" font-family="Helvetica,sans-Serif" font-size="10.00">_rational_poly</text>
</a>
</g>
</g>
<!-- Node2 -->
<g id="Node000002" class="node">
<title>Node2</title>
<g id="a_Node000002"><a xlink:href="../../d8/da7/classRational.html#ac7a93fda9943083585843c9bd56e3fce" target="_top" xlink:title="从 double 构造有理数">
<polygon fill="white" stroke="#666666" points="269,-128 144,-128 144,-109 269,-109 269,-128"/>
<text text-anchor="middle" x="206.5" y="-116" font-family="Helvetica,sans-Serif" font-size="10.00">Rational::from_double</text>
</a>
</g>
</g>
<!-- Node1&#45;&gt;Node2 -->
<g id="edge1_Node000001_Node000002" class="edge">
<title>Node1&#45;&gt;Node2</title>
<g id="a_edge1_Node000001_Node000002"><a xlink:title=" ">
<path fill="none" stroke="#63b8ff" d="M108.06,-104.26C116.39,-105.47 125.13,-106.75 133.8,-108.02"/>
<polygon fill="#63b8ff" stroke="#63b8ff" points="133.51,-111.51 143.92,-109.5 134.53,-104.59 133.51,-111.51"/>
</a>
</g>
</g>
<!-- Node13 -->
<g id="Node000013" class="node">
<title>Node13</title>
<g id="a_Node000013"><a xlink:href="../../d8/d1e/classlamina_1_1Polynomial.html#aa1bfcf8f305d62777bcfbebda559d87e" target="_top" xlink:title="去除高次零系数">
<polygon fill="white" stroke="#666666" points="262,-90.5 151,-90.5 151,-60.5 262,-60.5 262,-90.5"/>
<text text-anchor="start" x="159" y="-78.5" font-family="Helvetica,sans-Serif" font-size="10.00">lamina::Polynomial</text>
<text text-anchor="middle" x="206.5" y="-67.5" font-family="Helvetica,sans-Serif" font-size="10.00">::trim</text>
</a>
</g>
</g>
<!-- Node1&#45;&gt;Node13 -->
<g id="edge13_Node000001_Node000013" class="edge">
<title>Node1&#45;&gt;Node13</title>
<g id="a_edge13_Node000001_Node000013"><a xlink:title=" ">
<path fill="none" stroke="#63b8ff" d="M108.06,-89.1C118.69,-87.61 129.96,-86.04 140.93,-84.51"/>
<polygon fill="#63b8ff" stroke="#63b8ff" points="141.46,-87.97 150.88,-83.12 140.5,-81.04 141.46,-87.97"/>
</a>
</g>
</g>
<!-- Node3 -->
<g id="Node000003" class="node">
<title>Node3</title>
<g id="a_Node000003"><a xlink:href="../../d8/da7/classRational.html#a3bbd6ff67c590da76ddfcbd48cd3de0a" target="_top" xlink:title="默认构造，值为 0">
<polygon fill="white" stroke="#666666" points="409,-147 305,-147 305,-128 409,-128 409,-147"/>
<text text-anchor="middle" x="357" y="-135" font-family="Helvetica,sans-Serif" font-size="10.00">Rational::Rational</text>
</a>
</g>
</g>
<!-- Node2&#45;&gt;Node3 -->
<g id="edge2_Node000002_Node000003" class="edge">
<title>Node2&#45;&gt;Node3</title>
<g id="a_edge2_Node000002_Node000003"><a xlink:title=" ">
<path fill="none" stroke="#63b8ff" d="M269.19,-126.39C277.57,-127.47 286.18,-128.57 294.56,-129.64"/>
<polygon fill="#63b8ff" stroke="#63b8ff" points="294.27,-133.13 304.64,-130.93 295.16,-126.19 294.27,-133.13"/>
</a>
</g>
</g>
<!-- Node4 -->
<g id="Node000004" class="node">
<title>Node4</title>
<g id="a_Node000004"><a xlink:href="../../d8/da7/classRational.html#a3d410504846bf492103a5c2a8b53d7c6" target="_top" xlink:title=" ">
<polygon fill="white" stroke="#666666" points="408,-110 306,-110 306,-91 408,-91 408,-110"/>
<text text-anchor="middle" x="357" y="-98" font-family="Helvetica,sans-Serif" font-size="10.00">Rational::simplify</text>
</a>
</g>
</g>
<!-- Node2&#45;&gt;Node4 -->
<g id="edge3_Node000002_Node000004" class="edge">
<title>Node2&#45;&gt;Node4</title>
<g id="a_edge3_Node000002_Node000004"><a xlink:title=" ">
<path fill="none" stroke="#63b8ff" d="M269.19,-111.02C277.89,-109.97 286.84,-108.88 295.52,-107.83"/>
<polygon fill="#63b8ff" stroke="#63b8ff" points="296.06,-111.29 305.56,-106.61 295.21,-104.34 296.06,-111.29"/>
</a>
</g>
</g>
<!-- Node5 -->
<g id="Node000005" class="node">
<title>Node5</title>
<g id="a_Node000005"><a xlink:href="../../da/d5b/classBigInt.html#a4bff1a207fd14cd96badb54d0a470c1a" target="_top" xlink:title="取绝对值">
<polygon fill="white" stroke="#666666" points="669.5,-148 600.5,-148 600.5,-129 669.5,-129 669.5,-148"/>
<text text-anchor="middle" x="635" y="-136" font-family="Helvetica,sans-Serif" font-size="10.00">BigInt::Abs</text>
</a>
</g>
</g>
<!-- Node4&#45;&gt;Node5 -->
<g id="edge4_Node000004_Node000005" class="edge">
<title>Node4&#45;&gt;Node5</title>
<g id="a_edge4_Node000004_Node000005"><a xlink:title=" ">
<path fill="none" stroke="#63b8ff" d="M397.23,-110.07C412.12,-113.44 429.27,-117 445,-119.5 494.42,-127.35 551.65,-132.57 590.08,-135.52"/>
<polygon fill="#63b8ff" stroke="#63b8ff" points="590.16,-139.04 600.39,-136.29 590.68,-132.06 590.16,-139.04"/>
</a>
</g>
</g>
<!-- Node6 -->
<g id="Node000006" class="node">
<title>Node6</title>
<g id="a_Node000006"><a xlink:href="../../da/d5b/classBigInt.html#a4804d5bec19a3d92f9c34713c83ef7e1" target="_top" xlink:title="计算最大公约数">
<polygon fill="white" stroke="#666666" points="531,-110 463,-110 463,-91 531,-91 531,-110"/>
<text text-anchor="middle" x="497" y="-98" font-family="Helvetica,sans-Serif" font-size="10.00">BigInt::gcd</text>
</a>
</g>
</g>
<!-- Node4&#45;&gt;Node6 -->
<g id="edge5_Node000004_Node000006" class="edge">
<title>Node4&#45;&gt;Node6</title>
<g id="a_edge5_Node000004_Node000006"><a xlink:title=" ">
<path fill="none" stroke="#63b8ff" d="M408.21,-100.5C422.7,-100.5 438.4,-100.5 452.45,-100.5"/>
<polygon fill="#63b8ff" stroke="#63b8ff" points="452.83,-104 462.83,-100.5 452.83,-97 452.83,-104"/>
</a>
</g>
</g>
<!-- Node12 -->
<g id="Node000012" class="node">
<title>Node12</title>
<g id="a_Node000012"><a xlink:href="../../da/d5b/classBigInt.html#ae5d874ccb625319e093bec91b29e5a24" target="_top" xlink:title="判断是否为负数">
<polygon fill="white" stroke="#666666" points="549,-73 445,-73 445,-54 549,-54 549,-73"/>
<text text-anchor="middle" x="497" y="-61" font-family="Helvetica,sans-Serif" font-size="10.00">BigInt::IsNegative</text>
</a>
</g>
</g>
<!-- Node4&#45;&gt;Node12 -->
<g id="edge12_Node000004_Node000012" class="edge">
<title>Node4&#45;&gt;Node12</title>
<g id="a_edge12_Node000004_Node000012"><a xlink:title=" ">
<path fill="none" stroke="#63b8ff" d="M393.54,-90.97C410.87,-86.33 431.91,-80.68 450.41,-75.72"/>
<polygon fill="#63b8ff" stroke="#63b8ff" points="451.35,-79.1 460.1,-73.12 449.54,-72.33 451.35,-79.1"/>
</a>
</g>
</g>
<!-- Node6&#45;&gt;Node5 -->
<g id="edge6_Node000006_Node000005" class="edge">
<title>Node6&#45;&gt;Node5</title>
<g id="a_edge6_Node000006_Node000005"><a xlink:title=" ">
<path fill="none" stroke="#63b8ff" d="M531.27,-109.8C549.08,-114.77 571.24,-120.96 590.41,-126.32"/>
<polygon fill="#63b8ff" stroke="#63b8ff" points="589.56,-129.72 600.13,-129.04 591.44,-122.97 589.56,-129.72"/>
</a>
</g>
</g>
<!-- Node7 -->
<g id="Node000007" class="node">
<title>Node7</title>
<g id="a_Node000007"><a xlink:href="../../da/d5b/classBigInt.html#a6ae37e804e0989cb245f32f90a2d5f64" target="_top" xlink:title="判断是否为零">
<polygon fill="white" stroke="#666666" points="678,-111 592,-111 592,-92 678,-92 678,-111"/>
<text text-anchor="middle" x="635" y="-99" font-family="Helvetica,sans-Serif" font-size="10.00">BigInt::is_zero</text>
</a>
</g>
</g>
<!-- Node6&#45;&gt;Node7 -->
<g id="edge7_Node000006_Node000007" class="edge">
<title>Node6&#45;&gt;Node7</title>
<g id="a_edge7_Node000006_Node000007"><a xlink:title=" ">
<path fill="none" stroke="#63b8ff" d="M531.27,-100.74C546.38,-100.86 564.61,-100.99 581.5,-101.11"/>
<polygon fill="#63b8ff" stroke="#63b8ff" points="581.78,-104.62 591.8,-101.19 581.83,-97.62 581.78,-104.62"/>
</a>
</g>
</g>
<!-- Node8 -->
<g id="Node000008" class="node">
<title>Node8</title>
<g id="a_Node000008"><a xlink:href="../../da/d5b/classBigInt.html#a3b10bb8ac846314c6e4ad6167e5ec5bf" target="_top" xlink:title=" ">
<polygon fill="white" stroke="#666666" points="685,-74 585,-74 585,-55 685,-55 685,-74"/>
<text text-anchor="middle" x="635" y="-62" font-family="Helvetica,sans-Serif" font-size="10.00">BigInt::normalize</text>
</a>
</g>
</g>
<!-- Node6&#45;&gt;Node8 -->
<g id="edge8_Node000006_Node000008" class="edge">
<title>Node6&#45;&gt;Node8</title>
<g id="a_edge8_Node000006_Node000008"><a xlink:title=" ">
<path fill="none" stroke="#63b8ff" d="M531.27,-91.69C548.33,-87.18 569.39,-81.6 587.98,-76.68"/>
<polygon fill="#63b8ff" stroke="#63b8ff" points="588.96,-80.04 597.73,-74.1 587.17,-73.28 588.96,-80.04"/>
</a>
</g>
</g>
<!-- Node9 -->
<g id="Node000009" class="node">
<title>Node9</title>
<g id="a_Node000009"><a xlink:href="../../da/d5b/classBigInt.html#ad0b220e3ad54190c7cc069355f8d134d" target="_top" xlink:title=" ">
<polygon fill="white" stroke="#666666" points="684.5,-37 585.5,-37 585.5,-18 684.5,-18 684.5,-37"/>
<text text-anchor="middle" x="635" y="-25" font-family="Helvetica,sans-Serif" font-size="10.00">BigInt::realloc_to</text>
</a>
</g>
</g>
<!-- Node6&#45;&gt;Node9 -->
<g id="edge9_Node000006_Node000009" class="edge">
<title>Node6&#45;&gt;Node9</title>
<g id="a_edge9_Node000006_Node000009"><a xlink:title=" ">
<path fill="none" stroke="#63b8ff" d="M531.11,-91.25C537.29,-88.85 543.52,-85.95 549,-82.5 568.14,-70.44 566.04,-58.86 585,-46.5 587.92,-44.6 591.05,-42.84 594.28,-41.23"/>
<polygon fill="#63b8ff" stroke="#63b8ff" points="595.82,-44.37 603.49,-37.06 592.94,-37.99 595.82,-44.37"/>
</a>
</g>
</g>
<!-- Node10 -->
<g id="Node000010" class="node">
<title>Node10</title>
<g id="a_Node000010"><a xlink:href="../../d8/d09/bigint_8hpp.html#a9026e394fc1db1b74fe5802cac9d3793" target="_top" xlink:title="为 BigInt 分配内存">
<polygon fill="white" stroke="#666666" points="794,-56 721,-56 721,-37 794,-37 794,-56"/>
<text text-anchor="middle" x="757.5" y="-44" font-family="Helvetica,sans-Serif" font-size="10.00">bigint_alloc</text>
</a>
</g>
</g>
<!-- Node9&#45;&gt;Node10 -->
<g id="edge10_Node000009_Node000010" class="edge">
<title>Node9&#45;&gt;Node10</title>
<g id="a_edge10_Node000009_Node000010"><a xlink:title=" ">
<path fill="none" stroke="#63b8ff" d="M684.66,-35.17C693.4,-36.55 702.47,-37.98 711.1,-39.34"/>
<polygon fill="#63b8ff" stroke="#63b8ff" points="710.57,-42.8 720.99,-40.9 711.66,-35.89 710.57,-42.8"/>
</a>
</g>
</g>
<!-- Node11 -->
<g id="Node000011" class="node">
<title>Node11</title>
<g id="a_Node000011"><a xlink:href="../../d8/d09/bigint_8hpp.html#a6fd664dfe6c832ce148d818c5663fa93" target="_top" xlink:title="释放 BigInt 内部分配的内存">
<polygon fill="white" stroke="#666666" points="792,-19 723,-19 723,0 792,0 792,-19"/>
<text text-anchor="middle" x="757.5" y="-7" font-family="Helvetica,sans-Serif" font-size="10.00">bigint_free</text>
</a>
</g>
</g>
<!-- Node9&#45;&gt;Node11 -->
<g id="edge11_Node000009_Node000011" class="edge">
<title>Node9&#45;&gt;Node11</title>
<g id="a_edge11_Node000009_Node000011"><a xlink:title=" ">
<path fill="none" stroke="#63b8ff" d="M684.66,-20.23C693.97,-18.84 703.65,-17.39 712.79,-16.03"/>
<polygon fill="#63b8ff" stroke="#63b8ff" points="713.44,-19.47 722.82,-14.53 712.41,-12.55 713.44,-19.47"/>
</a>
</g>
</g>
</g>
</svg>
