<?xml version="1.0" encoding="UTF-8" standalone="no"?>
<!DOCTYPE svg PUBLIC "-//W3C//DTD SVG 1.1//EN"
 "http://www.w3.org/Graphics/SVG/1.1/DTD/svg11.dtd">
<!-- Generated by graphviz version 2.43.0 (0)
 -->
<!-- Title: lamina::symbolic_poly_to_expr Pages: 1 -->
<svg width="301pt" height="272pt"
 viewBox="0.00 0.00 301.00 272.00" xmlns="http://www.w3.org/2000/svg" xmlns:xlink="http://www.w3.org/1999/xlink">
<g id="graph0" class="graph" transform="scale(1 1) rotate(0) translate(4 268)">
<title>lamina::symbolic_poly_to_expr</title>
<!-- Node1 -->
<g id="Node000001" class="node">
<title>Node1</title>
<g id="a_Node000001"><a xlink:title=" ">
<polygon fill="#999999" stroke="#666666" points="127,-135.5 0,-135.5 0,-105.5 127,-105.5 127,-135.5"/>
<text text-anchor="start" x="8" y="-123.5" font-family="Helvetica,sans-Serif" font-size="10.00">lamina::symbolic_poly</text>
<text text-anchor="middle" x="63.5" y="-112.5" font-family="Helvetica,sans-Serif" font-size="10.00">_to_expr</text>
</a>
</g>
</g>
<!-- Node2 -->
<g id="Node000002" class="node">
<title>Node2</title>
<g id="a_Node000002"><a xlink:href="../../dc/d25/classSymbolicExpr.html#ac8782568f037f8055277e5d8b80ec6d6" target="_top" xlink:title="创建加法表达式。">
<polygon fill="white" stroke="#666666" points="281.5,-264 174.5,-264 174.5,-245 281.5,-245 281.5,-264"/>
<text text-anchor="middle" x="228" y="-252" font-family="Helvetica,sans-Serif" font-size="10.00">SymbolicExpr::add</text>
</a>
</g>
</g>
<!-- Node1&#45;&gt;Node2 -->
<g id="edge1_Node000001_Node000002" class="edge">
<title>Node1&#45;&gt;Node2</title>
<g id="a_edge1_Node000001_Node000002"><a xlink:title=" ">
<path fill="none" stroke="#63b8ff" d="M73.37,-135.62C88.57,-160.24 121.98,-208.89 163,-235.5 166.15,-237.54 169.53,-239.38 173.03,-241.02"/>
<polygon fill="#63b8ff" stroke="#63b8ff" points="171.91,-244.34 182.49,-244.92 174.58,-237.87 171.91,-244.34"/>
</a>
</g>
</g>
<!-- Node3 -->
<g id="Node000003" class="node">
<title>Node3</title>
<g id="a_Node000003"><a xlink:href="../../d8/d1e/classlamina_1_1Polynomial.html#aa4209c719c18fc882b702d88e397bdf4" target="_top" xlink:title="获取多项式的次数">
<polygon fill="white" stroke="#666666" points="283.5,-226.5 172.5,-226.5 172.5,-196.5 283.5,-196.5 283.5,-226.5"/>
<text text-anchor="start" x="180.5" y="-214.5" font-family="Helvetica,sans-Serif" font-size="10.00">lamina::Polynomial</text>
<text text-anchor="middle" x="228" y="-203.5" font-family="Helvetica,sans-Serif" font-size="10.00">::degree</text>
</a>
</g>
</g>
<!-- Node1&#45;&gt;Node3 -->
<g id="edge2_Node000001_Node000003" class="edge">
<title>Node1&#45;&gt;Node3</title>
<g id="a_edge2_Node000001_Node000003"><a xlink:title=" ">
<path fill="none" stroke="#63b8ff" d="M83.63,-135.55C102.88,-150.19 133.8,-172.37 163,-187.5 166.3,-189.21 169.76,-190.86 173.27,-192.44"/>
<polygon fill="#63b8ff" stroke="#63b8ff" points="172.1,-195.75 182.68,-196.46 174.85,-189.31 172.1,-195.75"/>
</a>
</g>
</g>
<!-- Node4 -->
<g id="Node000004" class="node">
<title>Node4</title>
<g id="a_Node000004"><a xlink:href="../../d8/d1e/classlamina_1_1Polynomial.html#a5ab9f08024d7084b47a746f72ba9f850" target="_top" xlink:title="判断是否为零多项式">
<polygon fill="white" stroke="#666666" points="283.5,-178.5 172.5,-178.5 172.5,-148.5 283.5,-148.5 283.5,-178.5"/>
<text text-anchor="start" x="180.5" y="-166.5" font-family="Helvetica,sans-Serif" font-size="10.00">lamina::Polynomial</text>
<text text-anchor="middle" x="228" y="-155.5" font-family="Helvetica,sans-Serif" font-size="10.00">::is_zero</text>
</a>
</g>
</g>
<!-- Node1&#45;&gt;Node4 -->
<g id="edge3_Node000001_Node000004" class="edge">
<title>Node1&#45;&gt;Node4</title>
<g id="a_edge3_Node000001_Node000004"><a xlink:title=" ">
<path fill="none" stroke="#63b8ff" d="M121.33,-135.54C134.66,-139.07 148.96,-142.85 162.6,-146.46"/>
<polygon fill="#63b8ff" stroke="#63b8ff" points="161.82,-149.87 172.38,-149.05 163.61,-143.11 161.82,-149.87"/>
</a>
</g>
</g>
<!-- Node5 -->
<g id="Node000005" class="node">
<title>Node5</title>
<g id="a_Node000005"><a xlink:href="../../dc/d25/classSymbolicExpr.html#ad03189fc8a4db7762f7c1ca890674bbc" target="_top" xlink:title="创建乘法表达式。">
<polygon fill="white" stroke="#666666" points="293,-130 163,-130 163,-111 293,-111 293,-130"/>
<text text-anchor="middle" x="228" y="-118" font-family="Helvetica,sans-Serif" font-size="10.00">SymbolicExpr::multiply</text>
</a>
</g>
</g>
<!-- Node1&#45;&gt;Node5 -->
<g id="edge4_Node000001_Node000005" class="edge">
<title>Node1&#45;&gt;Node5</title>
<g id="a_edge4_Node000001_Node000005"><a xlink:title=" ">
<path fill="none" stroke="#63b8ff" d="M127.33,-120.5C135.64,-120.5 144.23,-120.5 152.72,-120.5"/>
<polygon fill="#63b8ff" stroke="#63b8ff" points="153,-124 163,-120.5 153,-117 153,-124"/>
</a>
</g>
</g>
<!-- Node6 -->
<g id="Node000006" class="node">
<title>Node6</title>
<g id="a_Node000006"><a xlink:href="../../dc/d25/classSymbolicExpr.html#adeb760bb6f4f28879108394537eca293" target="_top" xlink:title="创建整数数值表达式。">
<polygon fill="white" stroke="#666666" points="291.5,-93 164.5,-93 164.5,-74 291.5,-74 291.5,-93"/>
<text text-anchor="middle" x="228" y="-81" font-family="Helvetica,sans-Serif" font-size="10.00">SymbolicExpr::number</text>
</a>
</g>
</g>
<!-- Node1&#45;&gt;Node6 -->
<g id="edge5_Node000001_Node000006" class="edge">
<title>Node1&#45;&gt;Node6</title>
<g id="a_edge5_Node000001_Node000006"><a xlink:title=" ">
<path fill="none" stroke="#63b8ff" d="M127.33,-106.19C143,-102.63 159.64,-98.84 174.74,-95.4"/>
<polygon fill="#63b8ff" stroke="#63b8ff" points="175.95,-98.71 184.92,-93.08 174.39,-91.89 175.95,-98.71"/>
</a>
</g>
</g>
<!-- Node7 -->
<g id="Node000007" class="node">
<title>Node7</title>
<g id="a_Node000007"><a xlink:href="../../dc/d25/classSymbolicExpr.html#ab03922681e30190ba7c73d2c1e58aa40" target="_top" xlink:title="创建幂运算表达式。">
<polygon fill="white" stroke="#666666" points="287.5,-56 168.5,-56 168.5,-37 287.5,-37 287.5,-56"/>
<text text-anchor="middle" x="228" y="-44" font-family="Helvetica,sans-Serif" font-size="10.00">SymbolicExpr::power</text>
</a>
</g>
</g>
<!-- Node1&#45;&gt;Node7 -->
<g id="edge6_Node000001_Node000007" class="edge">
<title>Node1&#45;&gt;Node7</title>
<g id="a_edge6_Node000001_Node000007"><a xlink:title=" ">
<path fill="none" stroke="#63b8ff" d="M88.04,-105.4C107.54,-93.38 136.29,-76.76 163,-65.5 168.41,-63.22 174.17,-61.1 179.95,-59.17"/>
<polygon fill="#63b8ff" stroke="#63b8ff" points="181.16,-62.46 189.62,-56.09 179.03,-55.79 181.16,-62.46"/>
</a>
</g>
</g>
<!-- Node8 -->
<g id="Node000008" class="node">
<title>Node8</title>
<g id="a_Node000008"><a xlink:href="../../dc/d25/classSymbolicExpr.html#a1718e8c497b928507b31acb089cc64ff" target="_top" xlink:title="创建变量表达式。">
<polygon fill="white" stroke="#666666" points="292.5,-19 163.5,-19 163.5,0 292.5,0 292.5,-19"/>
<text text-anchor="middle" x="228" y="-7" font-family="Helvetica,sans-Serif" font-size="10.00">SymbolicExpr::variable</text>
</a>
</g>
</g>
<!-- Node1&#45;&gt;Node8 -->
<g id="edge7_Node000001_Node000008" class="edge">
<title>Node1&#45;&gt;Node8</title>
<g id="a_edge7_Node000001_Node000008"><a xlink:title=" ">
<path fill="none" stroke="#63b8ff" d="M76.87,-105.16C94.11,-84.77 127.26,-48.96 163,-28.5 166.73,-26.36 170.73,-24.44 174.84,-22.73"/>
<polygon fill="#63b8ff" stroke="#63b8ff" points="176.41,-25.88 184.54,-19.08 173.95,-19.32 176.41,-25.88"/>
</a>
</g>
</g>
</g>
</svg>
