<?xml version="1.0" encoding="UTF-8" standalone="no"?>
<!DOCTYPE svg PUBLIC "-//W3C//DTD SVG 1.1//EN"
 "http://www.w3.org/Graphics/SVG/1.1/DTD/svg11.dtd">
<!-- Generated by graphviz version 2.43.0 (0)
 -->
<!-- Title: lamina::make_arccos Pages: 1 -->
<!--zoomable 310 -->

<svg id="main" version="1.1" xmlns="http://www.w3.org/2000/svg" xmlns:xlink="http://www.w3.org/1999/xlink" xml:space="preserve" onload="init(evt)">
<style type="text/css"><![CDATA[
.node, .edge {opacity: 0.7;}
.node.selected, .edge.selected {opacity: 1;}
.edge:hover path { stroke: red; }
.edge:hover polygon { stroke: red; fill: red; }
]]></style>

<defs>
  <circle id="rim" cx="0" cy="0" r="7"/>
  <circle id="rim2" cx="0" cy="0" r="3.5"/>
  <g id="zoomPlus">
    <use xlink:href="#rim" fill="#404040"><set attributeName="fill" to="#808080" begin="zoomplus.mouseover" end="zoomplus.mouseout"/></use>
    <path d="M-4,0h8M0,-4v8" fill="none" stroke="white" stroke-width="1.5" pointer-events="none"/>
  </g>
  <g id="zoomMin">
    <use xlink:href="#rim" fill="#404040"><set attributeName="fill" to="#808080" begin="zoomminus.mouseover" end="zoomminus.mouseout"/></use>
    <path d="M-4,0h8" fill="none" stroke="white" stroke-width="1.5" pointer-events="none"/>
  </g>
  <g id="arrowUp" transform="translate(30 24)">
    <use xlink:href="#rim"/>
    <path pointer-events="none" fill="none" stroke="white" stroke-width="1.5" d="M0,-3.0v7 M-2.5,-0.5L0,-3.0L2.5,-0.5"/>
  </g>
  <g id="arrowRight" transform="rotate(90) translate(36 -43)">
    <use xlink:href="#rim"/>
    <path pointer-events="none" fill="none" stroke="white" stroke-width="1.5" d="M0,-3.0v7 M-2.5,-0.5L0,-3.0L2.5,-0.5"/>
  </g>
  <g id="arrowDown" transform="rotate(180) translate(-30 -48)">
    <use xlink:href="#rim"/>
    <path pointer-events="none" fill="none" stroke="white" stroke-width="1.5" d="M0,-3.0v7 M-2.5,-0.5L0,-3.0L2.5,-0.5"/>
  </g>
  <g id="arrowLeft" transform="rotate(270) translate(-36 17)">
    <use xlink:href="#rim"/>
    <path pointer-events="none" fill="none" stroke="white" stroke-width="1.5" d="M0,-3.0v7 M-2.5,-0.5L0,-3.0L2.5,-0.5"/>
  </g>
  <g id="resetDef">
    <use xlink:href="#rim2" fill="#404040"><set attributeName="fill" to="#808080" begin="reset.mouseover" end="reset.mouseout"/></use>
  </g>
</defs>
<script type="application/ecmascript">
var viewWidth = 1960;
var viewHeight = 310;
var sectionId = 'dynsection-155';
</script>
<script type="application/ecmascript" xlink:href="../../svg.min.js"/>
<svg id="graph" class="graph">
<g id="viewport">
<title>lamina::make_arccos</title>
<!-- Node1 -->
<g id="Node000001" class="node">
<title>Node1</title>
<g id="a_Node000001"><a xlink:title=" ">
<polygon fill="#999999" stroke="#666666" points="1952,-106.5 1832,-106.5 1832,-87.5 1952,-87.5 1952,-106.5"/>
<text text-anchor="middle" x="1892" y="-94.5" font-family="Helvetica,sans-Serif" font-size="10.00">lamina::make_arccos</text>
</a>
</g>
</g>
<!-- Node2 -->
<g id="Node000002" class="node">
<title>Node2</title>
<g id="a_Node000002"><a xlink:href="../../d1/d42/namespacelamina.html#a77e61c9462821ea0ffff38ab57f886bc" target="_top" xlink:title=" ">
<polygon fill="white" stroke="#666666" points="1796,-144.5 1689,-144.5 1689,-125.5 1796,-125.5 1796,-144.5"/>
<text text-anchor="middle" x="1742.5" y="-132.5" font-family="Helvetica,sans-Serif" font-size="10.00">lamina::invert_cos</text>
</a>
</g>
</g>
<!-- Node1&#45;&gt;Node2 -->
<g id="edge1_Node000001_Node000002" class="edge">
<title>Node1&#45;&gt;Node2</title>
<g id="a_edge1_Node000001_Node000002"><a xlink:title=" ">
<path fill="none" stroke="#63b8ff" d="M1843.99,-109.11C1823.44,-114.4 1799.7,-120.52 1780.45,-125.48"/>
<polygon fill="#63b8ff" stroke="#63b8ff" points="1844.97,-112.47 1853.78,-106.59 1843.22,-105.69 1844.97,-112.47"/>
</a>
</g>
</g>
<!-- Node25 -->
<g id="Node000025" class="node">
<title>Node25</title>
<g id="a_Node000025"><a xlink:href="../../d1/d42/namespacelamina.html#a1012073a885f59ec4c837a66dfea6e63" target="_top" xlink:title=" ">
<polygon fill="white" stroke="#666666" points="1618,-49.5 1500,-49.5 1500,-30.5 1618,-30.5 1618,-49.5"/>
<text text-anchor="middle" x="1559" y="-37.5" font-family="Helvetica,sans-Serif" font-size="10.00">lamina::invert_h_cos</text>
</a>
</g>
</g>
<!-- Node1&#45;&gt;Node25 -->
<g id="edge30_Node000001_Node000025" class="edge">
<title>Node1&#45;&gt;Node25</title>
<g id="a_edge30_Node000001_Node000025"><a xlink:title=" ">
<path fill="none" stroke="#63b8ff" d="M1825.62,-85.74C1764.18,-75.16 1673.24,-59.5 1615.31,-49.52"/>
<polygon fill="#63b8ff" stroke="#63b8ff" points="1825.15,-89.21 1835.6,-87.46 1826.34,-82.31 1825.15,-89.21"/>
</a>
</g>
</g>
<!-- Node3 -->
<g id="Node000003" class="node">
<title>Node3</title>
<g id="a_Node000003"><a xlink:href="../../d1/d42/namespacelamina.html#a12ae4dd3753dfea8b5e9d84b3c748855" target="_top" xlink:title=" ">
<polygon fill="white" stroke="#666666" points="1653,-163.5 1465,-163.5 1465,-144.5 1653,-144.5 1653,-163.5"/>
<text text-anchor="middle" x="1559" y="-151.5" font-family="Helvetica,sans-Serif" font-size="10.00">lamina::solve_transcendental_impl</text>
</a>
</g>
</g>
<!-- Node2&#45;&gt;Node3 -->
<g id="edge2_Node000002_Node000003" class="edge">
<title>Node2&#45;&gt;Node3</title>
<g id="a_edge2_Node000002_Node000003"><a xlink:title=" ">
<path fill="none" stroke="#63b8ff" d="M1678.31,-141.61C1669.45,-142.54 1660.21,-143.51 1650.96,-144.48"/>
<polygon fill="#63b8ff" stroke="#63b8ff" points="1678.93,-145.07 1688.51,-140.55 1678.2,-138.11 1678.93,-145.07"/>
</a>
</g>
</g>
<!-- Node4 -->
<g id="Node000004" class="node">
<title>Node4</title>
<g id="a_Node000004"><a xlink:href="../../d1/d42/namespacelamina.html#a704f26202e00de52ae9b961bc527a9ff" target="_top" xlink:title=" ">
<polygon fill="white" stroke="#666666" points="888,-302 775,-302 775,-272 888,-272 888,-302"/>
<text text-anchor="start" x="783" y="-290" font-family="Helvetica,sans-Serif" font-size="10.00">lamina::solve_inner</text>
<text text-anchor="middle" x="831.5" y="-279" font-family="Helvetica,sans-Serif" font-size="10.00">_equation</text>
</a>
</g>
</g>
<!-- Node3&#45;&gt;Node4 -->
<g id="edge3_Node000003_Node000004" class="edge">
<title>Node3&#45;&gt;Node4</title>
<g id="a_edge3_Node000003_Node000004"><a xlink:title=" ">
<path fill="none" stroke="#63b8ff" d="M1493.34,-166.24C1472.9,-171.92 1450.14,-178.22 1429,-183 1232.1,-227.49 994.04,-258.79 888.05,-275.4"/>
<polygon fill="#63b8ff" stroke="#63b8ff" points="1494.47,-169.56 1503.17,-163.52 1492.6,-162.82 1494.47,-169.56"/>
</a>
</g>
</g>
<!-- Node5 -->
<g id="Node000005" class="node">
<title>Node5</title>
<g id="a_Node000005"><a xlink:href="../../d1/d42/namespacelamina.html#a49ecca042975b1b60b3cfb5dd09f1ddc" target="_top" xlink:title="求解超越方程（三角、指数、对数类型）。">
<polygon fill="white" stroke="#666666" points="1429,-182.5 1268,-182.5 1268,-163.5 1429,-163.5 1429,-182.5"/>
<text text-anchor="middle" x="1348.5" y="-170.5" font-family="Helvetica,sans-Serif" font-size="10.00">lamina::solve_transcendental</text>
</a>
</g>
</g>
<!-- Node3&#45;&gt;Node5 -->
<g id="edge5_Node000003_Node000005" class="edge">
<title>Node3&#45;&gt;Node5</title>
<g id="a_edge5_Node000003_Node000005"><a xlink:title=" ">
<path fill="none" stroke="#63b8ff" d="M1454.72,-163.41C1446.19,-164.19 1437.64,-164.97 1429.32,-165.73"/>
<polygon fill="#63b8ff" stroke="#63b8ff" points="1455.09,-166.89 1464.73,-162.5 1454.45,-159.92 1455.09,-166.89"/>
</a>
</g>
</g>
<!-- Node4&#45;&gt;Node3 -->
<g id="edge4_Node000004_Node000003" class="edge">
<title>Node4&#45;&gt;Node3</title>
<g id="a_edge4_Node000004_Node000003"><a xlink:title=" ">
<path fill="none" stroke="#63b8ff" d="M898.04,-284.87C1008.41,-274.88 1238.06,-244.14 1429,-201 1472.27,-191.22 1522.37,-175.03 1545.33,-163.65"/>
<polygon fill="#63b8ff" stroke="#63b8ff" points="897.71,-281.39 888.05,-285.75 898.32,-288.36 897.71,-281.39"/>
</a>
</g>
</g>
<!-- Node6 -->
<g id="Node000006" class="node">
<title>Node6</title>
<g id="a_Node000006"><a xlink:href="../../d1/d42/namespacelamina.html#a06e924d67656611208ba81ad13fbee8d" target="_top" xlink:title="方程求解策略调度器，根据表达式类型选择合适的求解方法。">
<polygon fill="white" stroke="#666666" points="1232,-182.5 1103,-182.5 1103,-163.5 1232,-163.5 1232,-182.5"/>
<text text-anchor="middle" x="1167.5" y="-170.5" font-family="Helvetica,sans-Serif" font-size="10.00">lamina::solve_dispatch</text>
</a>
</g>
</g>
<!-- Node5&#45;&gt;Node6 -->
<g id="edge6_Node000005_Node000006" class="edge">
<title>Node5&#45;&gt;Node6</title>
<g id="a_edge6_Node000005_Node000006"><a xlink:title=" ">
<path fill="none" stroke="#63b8ff" d="M1257.82,-173C1249.19,-173 1240.55,-173 1232.24,-173"/>
<polygon fill="#63b8ff" stroke="#63b8ff" points="1257.95,-176.5 1267.95,-173 1257.95,-169.5 1257.95,-176.5"/>
</a>
</g>
</g>
<!-- Node7 -->
<g id="Node000007" class="node">
<title>Node7</title>
<g id="a_Node000007"><a xlink:href="../../dc/d25/classSymbolicExpr.html#a8e2b693429c55311a664ed0306bc9b2e" target="_top" xlink:title="求解方程，返回指定变量的所有解。">
<polygon fill="white" stroke="#666666" points="1067,-163.5 951,-163.5 951,-144.5 1067,-144.5 1067,-163.5"/>
<text text-anchor="middle" x="1009" y="-151.5" font-family="Helvetica,sans-Serif" font-size="10.00">SymbolicExpr::solve</text>
</a>
</g>
</g>
<!-- Node6&#45;&gt;Node7 -->
<g id="edge7_Node000006_Node000007" class="edge">
<title>Node6&#45;&gt;Node7</title>
<g id="a_edge7_Node000006_Node000007"><a xlink:title=" ">
<path fill="none" stroke="#63b8ff" d="M1092.76,-164.05C1084.13,-163 1075.42,-161.94 1067.05,-160.93"/>
<polygon fill="#63b8ff" stroke="#63b8ff" points="1092.5,-167.54 1102.85,-165.27 1093.34,-160.59 1092.5,-167.54"/>
</a>
</g>
</g>
<!-- Node7&#45;&gt;Node3 -->
<g id="edge28_Node000007_Node000003" class="edge">
<title>Node7&#45;&gt;Node3</title>
<g id="a_edge28_Node000007_Node000003"><a xlink:title=" ">
<path fill="none" stroke="#63b8ff" d="M1077.15,-154C1174.36,-154 1354.66,-154 1464.73,-154"/>
<polygon fill="#63b8ff" stroke="#63b8ff" points="1077.15,-150.5 1067.15,-154 1077.15,-157.5 1077.15,-150.5"/>
</a>
</g>
</g>
<!-- Node7&#45;&gt;Node4 -->
<g id="edge22_Node000007_Node000004" class="edge">
<title>Node7&#45;&gt;Node4</title>
<g id="a_edge22_Node000007_Node000004"><a xlink:title=" ">
<path fill="none" stroke="#63b8ff" d="M983.55,-169.27C972.76,-176.77 960.42,-186.45 951,-197 930.03,-220.48 939.32,-238.01 915,-258 907.14,-264.46 897.74,-269.52 888.15,-273.48"/>
<polygon fill="#63b8ff" stroke="#63b8ff" points="985.78,-171.99 992.15,-163.52 981.89,-166.17 985.78,-171.99"/>
</a>
</g>
</g>
<!-- Node8 -->
<g id="Node000008" class="node">
<title>Node8</title>
<g id="a_Node000008"><a xlink:href="../../dc/d25/classSymbolicExpr.html#a83879d764986be80edbedc769b96224a" target="_top" xlink:title="计算矩阵的特征值。">
<polygon fill="white" stroke="#666666" points="337,-238.5 188,-238.5 188,-219.5 337,-219.5 337,-238.5"/>
<text text-anchor="middle" x="262.5" y="-226.5" font-family="Helvetica,sans-Serif" font-size="10.00">SymbolicExpr::eigenvalues</text>
</a>
</g>
</g>
<!-- Node7&#45;&gt;Node8 -->
<g id="edge8_Node000007_Node000008" class="edge">
<title>Node7&#45;&gt;Node8</title>
<g id="a_edge8_Node000007_Node000008"><a xlink:title=" ">
<path fill="none" stroke="#63b8ff" d="M987.24,-169.7C964.82,-186.31 930.26,-210.84 915,-216 703.6,-287.46 431.19,-256.52 317.29,-238.55"/>
<polygon fill="#63b8ff" stroke="#63b8ff" points="989.54,-172.35 995.46,-163.56 985.35,-166.74 989.54,-172.35"/>
</a>
</g>
</g>
<!-- Node10 -->
<g id="Node000010" class="node">
<title>Node10</title>
<g id="a_Node000010"><a xlink:href="../../dc/d25/classSymbolicExpr.html#a884244959506063b172228ad99ab0730" target="_top" xlink:title="对表达式进行因式分解。">
<polygon fill="white" stroke="#666666" points="890.5,-206.5 772.5,-206.5 772.5,-187.5 890.5,-187.5 890.5,-206.5"/>
<text text-anchor="middle" x="831.5" y="-194.5" font-family="Helvetica,sans-Serif" font-size="10.00">SymbolicExpr::factor</text>
</a>
</g>
</g>
<!-- Node7&#45;&gt;Node10 -->
<g id="edge10_Node000007_Node000010" class="edge">
<title>Node7&#45;&gt;Node10</title>
<g id="a_edge10_Node000007_Node000010"><a xlink:title=" ">
<path fill="none" stroke="#63b8ff" d="M961.82,-166.17C946.9,-170.04 930.27,-174.27 915,-178 902.01,-181.17 887.83,-184.49 874.94,-187.45"/>
<polygon fill="#63b8ff" stroke="#63b8ff" points="963.04,-169.47 971.84,-163.57 961.28,-162.7 963.04,-169.47"/>
</a>
</g>
</g>
<!-- Node18 -->
<g id="Node000018" class="node">
<title>Node18</title>
<g id="a_Node000018"><a xlink:href="../../d1/d42/namespacelamina.html#a334f8d9c2923abbed11b2e4729c2b057" target="_top" xlink:title=" ">
<polygon fill="white" stroke="#666666" points="911,-24.5 752,-24.5 752,-5.5 911,-5.5 911,-24.5"/>
<text text-anchor="middle" x="831.5" y="-12.5" font-family="Helvetica,sans-Serif" font-size="10.00">lamina::invert_substitution_h</text>
</a>
</g>
</g>
<!-- Node7&#45;&gt;Node18 -->
<g id="edge20_Node000007_Node000018" class="edge">
<title>Node7&#45;&gt;Node18</title>
<g id="a_edge20_Node000007_Node000018"><a xlink:title=" ">
<path fill="none" stroke="#63b8ff" d="M989.61,-137.14C977.83,-125.84 962.64,-110.28 951,-95 931.93,-69.95 940.4,-52.6 915,-34 909.78,-30.18 903.92,-27.11 897.79,-24.65"/>
<polygon fill="#63b8ff" stroke="#63b8ff" points="987.45,-139.92 997.13,-144.23 992.25,-134.82 987.45,-139.92"/>
</a>
</g>
</g>
<!-- Node19 -->
<g id="Node000019" class="node">
<title>Node19</title>
<g id="a_Node000019"><a xlink:href="../../d6/da9/classlamina_1_1ParametricSolver.html#a41d42755b42e64784e9bc7c7f6f5715f" target="_top" xlink:title="求解关于未知数为多项式的含参方程组">
<polygon fill="white" stroke="#666666" points="915,-169 748,-169 748,-139 915,-139 915,-169"/>
<text text-anchor="start" x="756" y="-157" font-family="Helvetica,sans-Serif" font-size="10.00">lamina::ParametricSolver</text>
<text text-anchor="middle" x="831.5" y="-146" font-family="Helvetica,sans-Serif" font-size="10.00">::solve_polynomial_parametric</text>
</a>
</g>
</g>
<!-- Node7&#45;&gt;Node19 -->
<g id="edge23_Node000007_Node000019" class="edge">
<title>Node7&#45;&gt;Node19</title>
<g id="a_edge23_Node000007_Node000019"><a xlink:title=" ">
<path fill="none" stroke="#63b8ff" d="M940.3,-154C932.09,-154 923.64,-154 915.24,-154"/>
<polygon fill="#63b8ff" stroke="#63b8ff" points="940.53,-157.5 950.53,-154 940.53,-150.5 940.53,-157.5"/>
</a>
</g>
</g>
<!-- Node23 -->
<g id="Node000023" class="node">
<title>Node23</title>
<g id="a_Node000023"><a xlink:href="../../d5/d6f/classlamina_1_1Solver.html#a622812464260dd689d26a7f66ae99633" target="_top" xlink:title="求解多项式方程组，返回所有解。">
<polygon fill="white" stroke="#666666" points="891,-121 772,-121 772,-91 891,-91 891,-121"/>
<text text-anchor="start" x="780" y="-109" font-family="Helvetica,sans-Serif" font-size="10.00">lamina::Solver::solve</text>
<text text-anchor="middle" x="831.5" y="-98" font-family="Helvetica,sans-Serif" font-size="10.00">_polynomial_system</text>
</a>
</g>
</g>
<!-- Node7&#45;&gt;Node23 -->
<g id="edge27_Node000007_Node000023" class="edge">
<title>Node7&#45;&gt;Node23</title>
<g id="a_edge27_Node000007_Node000023"><a xlink:title=" ">
<path fill="none" stroke="#63b8ff" d="M963.07,-141.71C940.07,-135.42 911.87,-127.71 887.57,-121.06"/>
<polygon fill="#63b8ff" stroke="#63b8ff" points="962.34,-145.14 972.91,-144.4 964.18,-138.39 962.34,-145.14"/>
</a>
</g>
</g>
<!-- Node24 -->
<g id="Node000024" class="node">
<title>Node24</title>
<g id="a_Node000024"><a xlink:href="../../d1/d42/namespacelamina.html#a14b812ff63e0f874b8f45b9d6c746195" target="_top" xlink:title="Solve an equation with assumption&#45;based domain filtering.">
<polygon fill="white" stroke="#666666" points="886,-73 777,-73 777,-43 886,-43 886,-73"/>
<text text-anchor="start" x="785" y="-61" font-family="Helvetica,sans-Serif" font-size="10.00">lamina::solve_with</text>
<text text-anchor="middle" x="831.5" y="-50" font-family="Helvetica,sans-Serif" font-size="10.00">_assumptions</text>
</a>
</g>
</g>
<!-- Node7&#45;&gt;Node24 -->
<g id="edge29_Node000007_Node000024" class="edge">
<title>Node7&#45;&gt;Node24</title>
<g id="a_edge29_Node000007_Node000024"><a xlink:title=" ">
<path fill="none" stroke="#63b8ff" d="M990.52,-137.16C972.79,-120.93 943.93,-96.73 915,-82 905.96,-77.4 895.9,-73.55 886.01,-70.37"/>
<polygon fill="#63b8ff" stroke="#63b8ff" points="988.58,-140.14 998.28,-144.41 993.36,-135.03 988.58,-140.14"/>
</a>
</g>
</g>
<!-- Node9 -->
<g id="Node000009" class="node">
<title>Node9</title>
<g id="a_Node000009"><a xlink:href="../../dc/d25/classSymbolicExpr.html#a7777100ca36b7a1a7285ece2380dcf4b" target="_top" xlink:title="计算矩阵的特征向量。">
<polygon fill="white" stroke="#666666" points="152,-238.5 0,-238.5 0,-219.5 152,-219.5 152,-238.5"/>
<text text-anchor="middle" x="76" y="-226.5" font-family="Helvetica,sans-Serif" font-size="10.00">SymbolicExpr::eigenvectors</text>
</a>
</g>
</g>
<!-- Node8&#45;&gt;Node9 -->
<g id="edge9_Node000008_Node000009" class="edge">
<title>Node8&#45;&gt;Node9</title>
<g id="a_edge9_Node000008_Node000009"><a xlink:title=" ">
<path fill="none" stroke="#63b8ff" d="M177.52,-229C169.04,-229 160.48,-229 152.11,-229"/>
<polygon fill="#63b8ff" stroke="#63b8ff" points="177.79,-232.5 187.79,-229 177.79,-225.5 177.79,-232.5"/>
</a>
</g>
</g>
<!-- Node11 -->
<g id="Node000011" class="node">
<title>Node11</title>
<g id="a_Node000011"><a xlink:href="../../dc/d25/classSymbolicExpr.html#a3b4cc1669b1b117b15cc82783a22b4fc" target="_top" xlink:title="计算矩阵行列式。">
<polygon fill="white" stroke="#666666" points="712,-201.5 563,-201.5 563,-182.5 712,-182.5 712,-201.5"/>
<text text-anchor="middle" x="637.5" y="-189.5" font-family="Helvetica,sans-Serif" font-size="10.00">SymbolicExpr::determinant</text>
</a>
</g>
</g>
<!-- Node10&#45;&gt;Node11 -->
<g id="edge11_Node000010_Node000011" class="edge">
<title>Node10&#45;&gt;Node11</title>
<g id="a_edge11_Node000010_Node000011"><a xlink:title=" ">
<path fill="none" stroke="#63b8ff" d="M761.93,-195.21C745.76,-194.79 728.46,-194.34 712.08,-193.92"/>
<polygon fill="#63b8ff" stroke="#63b8ff" points="762.28,-198.72 772.37,-195.49 762.47,-191.73 762.28,-198.72"/>
</a>
</g>
</g>
<!-- Node14 -->
<g id="Node000014" class="node">
<title>Node14</title>
<g id="a_Node000014"><a xlink:href="../../dc/d25/classSymbolicExpr.html#ae608271a617ef878c81d04375538537f" target="_top" xlink:title="计算两个多项式关于指定变量的结式。">
<polygon fill="white" stroke="#666666" points="692.5,-164 582.5,-164 582.5,-134 692.5,-134 692.5,-164"/>
<text text-anchor="start" x="590.5" y="-152" font-family="Helvetica,sans-Serif" font-size="10.00">SymbolicExpr::poly</text>
<text text-anchor="middle" x="637.5" y="-141" font-family="Helvetica,sans-Serif" font-size="10.00">_resultant</text>
</a>
</g>
</g>
<!-- Node10&#45;&gt;Node14 -->
<g id="edge16_Node000010_Node000014" class="edge">
<title>Node10&#45;&gt;Node14</title>
<g id="a_edge16_Node000010_Node000014"><a xlink:title=" ">
<path fill="none" stroke="#63b8ff" d="M777.85,-185.14C767.92,-182.83 757.63,-180.38 748,-178 729.96,-173.54 710.32,-168.41 692.71,-163.73"/>
<polygon fill="#63b8ff" stroke="#63b8ff" points="777.09,-188.56 787.62,-187.4 778.66,-181.74 777.09,-188.56"/>
</a>
</g>
</g>
<!-- Node15 -->
<g id="Node000015" class="node">
<title>Node15</title>
<g id="a_Node000015"><a xlink:href="../../dc/d25/classSymbolicExpr.html#ae41c16b68c56de8d4c70a98c85722ff1" target="_top" xlink:title="计算矩阵的行最简阶梯形（RREF）。">
<polygon fill="white" stroke="#666666" points="691,-115.5 584,-115.5 584,-96.5 691,-96.5 691,-115.5"/>
<text text-anchor="middle" x="637.5" y="-103.5" font-family="Helvetica,sans-Serif" font-size="10.00">SymbolicExpr::rref</text>
</a>
</g>
</g>
<!-- Node10&#45;&gt;Node15 -->
<g id="edge17_Node000010_Node000015" class="edge">
<title>Node10&#45;&gt;Node15</title>
<g id="a_edge17_Node000010_Node000015"><a xlink:title=" ">
<path fill="none" stroke="#63b8ff" d="M762.73,-185.91C757.53,-183.72 752.55,-181.11 748,-178 724.5,-161.92 735.28,-141.4 712,-125 705.75,-120.6 698.56,-117.22 691.17,-114.62"/>
<polygon fill="#63b8ff" stroke="#63b8ff" points="761.67,-189.25 772.27,-189.4 764.08,-182.67 761.67,-189.25"/>
</a>
</g>
</g>
<!-- Node11&#45;&gt;Node11 -->
<g id="edge14_Node000011_Node000011" class="edge">
<title>Node11&#45;&gt;Node11</title>
<g id="a_edge14_Node000011_Node000011"><a xlink:title=" ">
<path fill="none" stroke="#63b8ff" d="M672.36,-209.57C671.85,-215.12 660.23,-219.5 637.5,-219.5 604.44,-219.5 594.89,-210.23 608.83,-201.58"/>
<polygon fill="#63b8ff" stroke="#63b8ff" points="675.06,-207.34 666.17,-201.58 669.53,-211.63 675.06,-207.34"/>
</a>
</g>
</g>
<!-- Node12 -->
<g id="Node000012" class="node">
<title>Node12</title>
<g id="a_Node000012"><a xlink:href="../../dc/d25/classSymbolicExpr.html#a6e8c5c20af88337d449cbf5771d5d28d" target="_top" xlink:title="计算矩阵的特征多项式。">
<polygon fill="white" stroke="#666666" points="515.5,-219.5 384.5,-219.5 384.5,-200.5 515.5,-200.5 515.5,-219.5"/>
<text text-anchor="middle" x="450" y="-207.5" font-family="Helvetica,sans-Serif" font-size="10.00">SymbolicExpr::charpoly</text>
</a>
</g>
</g>
<!-- Node11&#45;&gt;Node12 -->
<g id="edge12_Node000011_Node000012" class="edge">
<title>Node11&#45;&gt;Node12</title>
<g id="a_edge12_Node000011_Node000012"><a xlink:title=" ">
<path fill="none" stroke="#63b8ff" d="M552.61,-200.14C540.25,-201.34 527.68,-202.56 515.79,-203.71"/>
<polygon fill="#63b8ff" stroke="#63b8ff" points="553.3,-203.59 562.92,-199.14 552.63,-196.62 553.3,-203.59"/>
</a>
</g>
</g>
<!-- Node13 -->
<g id="Node000013" class="node">
<title>Node13</title>
<g id="a_Node000013"><a xlink:href="../../d1/d42/namespacelamina.html#a35783093777191a0254b7f3a2340e0f5" target="_top" xlink:title="计算符号矩阵的行列式">
<polygon fill="white" stroke="#666666" points="527,-182.5 373,-182.5 373,-163.5 527,-163.5 527,-182.5"/>
<text text-anchor="middle" x="450" y="-170.5" font-family="Helvetica,sans-Serif" font-size="10.00">lamina::matrix_determinant</text>
</a>
</g>
</g>
<!-- Node11&#45;&gt;Node13 -->
<g id="edge15_Node000011_Node000013" class="edge">
<title>Node11&#45;&gt;Node13</title>
<g id="a_edge15_Node000011_Node000013"><a xlink:title=" ">
<path fill="none" stroke="#63b8ff" d="M552.93,-183.44C544.37,-182.56 535.71,-181.68 527.23,-180.81"/>
<polygon fill="#63b8ff" stroke="#63b8ff" points="552.61,-186.93 562.92,-184.46 553.33,-179.96 552.61,-186.93"/>
</a>
</g>
</g>
<!-- Node12&#45;&gt;Node8 -->
<g id="edge13_Node000012_Node000008" class="edge">
<title>Node12&#45;&gt;Node8</title>
<g id="a_edge13_Node000012_Node000008"><a xlink:title=" ">
<path fill="none" stroke="#63b8ff" d="M374.22,-217.66C361.98,-218.91 349.31,-220.21 337.1,-221.46"/>
<polygon fill="#63b8ff" stroke="#63b8ff" points="374.79,-221.12 384.38,-216.62 374.08,-214.16 374.79,-221.12"/>
</a>
</g>
</g>
<!-- Node16 -->
<g id="Node000016" class="node">
<title>Node16</title>
<g id="a_Node000016"><a xlink:href="../../dc/d25/classSymbolicExpr.html#afa1c1c57bb6c77da5d016f69eaa60703" target="_top" xlink:title="计算矩阵的逆。">
<polygon fill="white" stroke="#666666" points="512.5,-115.5 387.5,-115.5 387.5,-96.5 512.5,-96.5 512.5,-115.5"/>
<text text-anchor="middle" x="450" y="-103.5" font-family="Helvetica,sans-Serif" font-size="10.00">SymbolicExpr::inverse</text>
</a>
</g>
</g>
<!-- Node15&#45;&gt;Node16 -->
<g id="edge18_Node000015_Node000016" class="edge">
<title>Node15&#45;&gt;Node16</title>
<g id="a_edge18_Node000015_Node000016"><a xlink:title=" ">
<path fill="none" stroke="#63b8ff" d="M573.74,-106C554.02,-106 532.29,-106 512.65,-106"/>
<polygon fill="#63b8ff" stroke="#63b8ff" points="573.84,-109.5 583.84,-106 573.84,-102.5 573.84,-109.5"/>
</a>
</g>
</g>
<!-- Node17 -->
<g id="Node000017" class="node">
<title>Node17</title>
<g id="a_Node000017"><a xlink:href="../../d1/d42/namespacelamina.html#a972455b000c18e71aefd4a84a5708edf" target="_top" xlink:title="计算符号矩阵的逆矩阵">
<polygon fill="white" stroke="#666666" points="327.5,-115.5 197.5,-115.5 197.5,-96.5 327.5,-96.5 327.5,-115.5"/>
<text text-anchor="middle" x="262.5" y="-103.5" font-family="Helvetica,sans-Serif" font-size="10.00">lamina::matrix_inverse</text>
</a>
</g>
</g>
<!-- Node16&#45;&gt;Node17 -->
<g id="edge19_Node000016_Node000017" class="edge">
<title>Node16&#45;&gt;Node17</title>
<g id="a_edge19_Node000016_Node000017"><a xlink:title=" ">
<path fill="none" stroke="#63b8ff" d="M377.43,-106C361.06,-106 343.75,-106 327.7,-106"/>
<polygon fill="#63b8ff" stroke="#63b8ff" points="377.49,-109.5 387.49,-106 377.49,-102.5 377.49,-109.5"/>
</a>
</g>
</g>
<!-- Node18&#45;&gt;Node3 -->
<g id="edge21_Node000018_Node000003" class="edge">
<title>Node18&#45;&gt;Node3</title>
<g id="a_edge21_Node000018_Node000003"><a xlink:title=" ">
<path fill="none" stroke="#63b8ff" d="M892.34,-26.47C1032.26,-53.27 1378.68,-119.64 1508.13,-144.45"/>
<polygon fill="#63b8ff" stroke="#63b8ff" points="892.71,-22.97 882.23,-24.53 891.4,-29.85 892.71,-22.97"/>
</a>
</g>
</g>
<!-- Node20 -->
<g id="Node000020" class="node">
<title>Node20</title>
<g id="a_Node000020"><a xlink:href="../../d6/da9/classlamina_1_1ParametricSolver.html#a74760afed4b871db5baef1d0c7eef09e" target="_top" xlink:title="求解含参方程组，返回所有解">
<polygon fill="white" stroke="#666666" points="707.5,-78 567.5,-78 567.5,-48 707.5,-48 707.5,-78"/>
<text text-anchor="start" x="575.5" y="-66" font-family="Helvetica,sans-Serif" font-size="10.00">lamina::ParametricSolver</text>
<text text-anchor="middle" x="637.5" y="-55" font-family="Helvetica,sans-Serif" font-size="10.00">::solve_system</text>
</a>
</g>
</g>
<!-- Node19&#45;&gt;Node20 -->
<g id="edge24_Node000019_Node000020" class="edge">
<title>Node19&#45;&gt;Node20</title>
<g id="a_edge24_Node000019_Node000020"><a xlink:title=" ">
<path fill="none" stroke="#63b8ff" d="M755.67,-134.51C753.03,-133.11 750.46,-131.61 748,-130 727.13,-116.37 732.65,-100.96 712,-87 707,-83.62 701.48,-80.68 695.79,-78.14"/>
<polygon fill="#63b8ff" stroke="#63b8ff" points="754.4,-137.78 764.93,-138.91 757.4,-131.45 754.4,-137.78"/>
</a>
</g>
</g>
<!-- Node21 -->
<g id="Node000021" class="node">
<title>Node21</title>
<g id="a_Node000021"><a xlink:href="../../dc/d25/classSymbolicExpr.html#af7245cd8dd9c4c7f7f00d3772bbbecb3" target="_top" xlink:title="求解含参数的方程组。">
<polygon fill="white" stroke="#666666" points="508,-78 392,-78 392,-48 508,-48 508,-78"/>
<text text-anchor="start" x="400" y="-66" font-family="Helvetica,sans-Serif" font-size="10.00">SymbolicExpr::solve</text>
<text text-anchor="middle" x="450" y="-55" font-family="Helvetica,sans-Serif" font-size="10.00">_system</text>
</a>
</g>
</g>
<!-- Node20&#45;&gt;Node21 -->
<g id="edge25_Node000020_Node000021" class="edge">
<title>Node20&#45;&gt;Node21</title>
<g id="a_edge25_Node000020_Node000021"><a xlink:title=" ">
<path fill="none" stroke="#63b8ff" d="M557.22,-63C540.68,-63 523.55,-63 508,-63"/>
<polygon fill="#63b8ff" stroke="#63b8ff" points="557.43,-66.5 567.43,-63 557.43,-59.5 557.43,-66.5"/>
</a>
</g>
</g>
<!-- Node22 -->
<g id="Node000022" class="node">
<title>Node22</title>
<g id="a_Node000022"><a xlink:href="../../d6/da9/classlamina_1_1ParametricSolver.html#aee41c6cf8efdfc5c7485cd104981d95b" target="_top" xlink:title="求解含参方程组，返回按参数条件分段的解">
<polygon fill="white" stroke="#666666" points="522,-30 378,-30 378,0 522,0 522,-30"/>
<text text-anchor="start" x="386" y="-18" font-family="Helvetica,sans-Serif" font-size="10.00">lamina::ParametricSolver</text>
<text text-anchor="middle" x="450" y="-7" font-family="Helvetica,sans-Serif" font-size="10.00">::solve_system_piecewise</text>
</a>
</g>
</g>
<!-- Node20&#45;&gt;Node22 -->
<g id="edge26_Node000020_Node000022" class="edge">
<title>Node20&#45;&gt;Node22</title>
<g id="a_edge26_Node000020_Node000022"><a xlink:title=" ">
<path fill="none" stroke="#63b8ff" d="M568.56,-45.42C549.01,-40.36 527.87,-34.89 508.98,-30"/>
<polygon fill="#63b8ff" stroke="#63b8ff" points="567.76,-48.83 578.32,-47.94 569.51,-42.05 567.76,-48.83"/>
</a>
</g>
</g>
<!-- Node25&#45;&gt;Node18 -->
<g id="edge31_Node000025_Node000018" class="edge">
<title>Node25&#45;&gt;Node18</title>
<g id="a_edge31_Node000025_Node000018"><a xlink:title=" ">
<path fill="none" stroke="#63b8ff" d="M1489.64,-37.64C1354.56,-32.99 1054.16,-22.64 911.13,-17.71"/>
<polygon fill="#63b8ff" stroke="#63b8ff" points="1489.74,-41.15 1499.86,-38 1489.98,-34.15 1489.74,-41.15"/>
</a>
</g>
</g>
</g>
</svg>

<g id="navigator" transform="translate(0 0)" fill="#404254">
  <rect fill="#f2f5e9" fill-opacity="0.5" stroke="#606060" stroke-width=".5" x="0" y="0" width="60" height="60"/>
  <use id="zoomplus" xlink:href="#zoomPlus" x="17" y="9" onmousedown="handleZoom(evt,'in')"/>
  <use id="zoomminus" xlink:href="#zoomMin" x="42" y="9" onmousedown="handleZoom(evt,'out')"/>
  <use id="reset" xlink:href="#resetDef" x="30" y="36" onmousedown="handleReset()"/>
   <use id="arrowup" xlink:href="#arrowUp" x="0" y="0" onmousedown="handlePan(0,-1)"/>
  <use id="arrowright" xlink:href="#arrowRight" x="0" y="0" onmousedown="handlePan(1,0)"/>
  <use id="arrowdown" xlink:href="#arrowDown" x="0" y="0" onmousedown="handlePan(0,1)"/>
  <use id="arrowleft" xlink:href="#arrowLeft" x="0" y="0" onmousedown="handlePan(-1,0)"/>
</g>
<svg viewBox="0 0 15 15" width="100%" height="30px" preserveAspectRatio="xMaxYMin meet">
 <g id="arrow_out" transform="scale(0.3 0.3)">
  <a xlink:href="namespacelamina_a88606962424cc368b0b1e4c551593d23_icgraph_org.svg" target="_base">
   <rect id="button" ry="5" rx="5" y="6" x="6" height="38" width="38"
        fill="#f2f5e9" fill-opacity="0.5" stroke="#606060" stroke-width="1.0"/>
   <path id="arrow"
     d="M 11.500037,31.436501 C 11.940474,20.09759 22.043105,11.32322 32.158766,21.979434 L 37.068811,17.246167 C 37.068811,17.246167 37.088388,32 37.088388,32 L 22.160133,31.978069 C 22.160133,31.978069 26.997745,27.140456 26.997745,27.140456 C 18.528582,18.264221 13.291696,25.230495 11.500037,31.436501 z"
     style="fill:#404040;"/>
  </a>
 </g>
</svg>

<style type='text/css'>
<![CDATA[
[data-mouse-over-selected='false'] { opacity: 0.7; }
[data-mouse-over-selected='true']  { opacity: 1.0; }
]]>
</style>
<script type="application/ecmascript"><![CDATA[
document.addEventListener('DOMContentLoaded', (event) => {
  highlightEdges();
  highlightAdjacentNodes();
});
]]></script>
</svg>
