<?xml version="1.0" encoding="UTF-8" standalone="no"?>
<!DOCTYPE svg PUBLIC "-//W3C//DTD SVG 1.1//EN"
 "http://www.w3.org/Graphics/SVG/1.1/DTD/svg11.dtd">
<!-- Generated by graphviz version 2.43.0 (0)
 -->
<!-- Title: lamina::expr_is_nonzero Pages: 1 -->
<!--zoomable 113 -->

<svg id="main" version="1.1" xmlns="http://www.w3.org/2000/svg" xmlns:xlink="http://www.w3.org/1999/xlink" xml:space="preserve">

<style type="text/css"><![CDATA[
.node, .edge {opacity: 0.7;}
.node.selected, .edge.selected {opacity: 1;}
.edge:hover path { stroke: red; }
.edge:hover polygon { stroke: red; fill: red; }
]]></style>

<defs>
  <circle id="rim" cx="0" cy="0" r="7"/>
  <circle id="rim2" cx="0" cy="0" r="3.5"/>
  <g id="zoomPlus">
    <use xlink:href="#rim" fill="#404040"><set attributeName="fill" to="#808080" begin="zoomplus.mouseover" end="zoomplus.mouseout"/></use>
    <path d="M-4,0h8M0,-4v8" fill="none" stroke="white" stroke-width="1.5" pointer-events="none"/>
  </g>
  <g id="zoomMin">
    <use xlink:href="#rim" fill="#404040"><set attributeName="fill" to="#808080" begin="zoomminus.mouseover" end="zoomminus.mouseout"/></use>
    <path d="M-4,0h8" fill="none" stroke="white" stroke-width="1.5" pointer-events="none"/>
  </g>
  <g id="arrowUp" transform="translate(30 24)">
    <use xlink:href="#rim"/>
    <path pointer-events="none" fill="none" stroke="white" stroke-width="1.5" d="M0,-3.0v7 M-2.5,-0.5L0,-3.0L2.5,-0.5"/>
  </g>
  <g id="arrowRight" transform="rotate(90) translate(36 -43)">
    <use xlink:href="#rim"/>
    <path pointer-events="none" fill="none" stroke="white" stroke-width="1.5" d="M0,-3.0v7 M-2.5,-0.5L0,-3.0L2.5,-0.5"/>
  </g>
  <g id="arrowDown" transform="rotate(180) translate(-30 -48)">
    <use xlink:href="#rim"/>
    <path pointer-events="none" fill="none" stroke="white" stroke-width="1.5" d="M0,-3.0v7 M-2.5,-0.5L0,-3.0L2.5,-0.5"/>
  </g>
  <g id="arrowLeft" transform="rotate(270) translate(-36 17)">
    <use xlink:href="#rim"/>
    <path pointer-events="none" fill="none" stroke="white" stroke-width="1.5" d="M0,-3.0v7 M-2.5,-0.5L0,-3.0L2.5,-0.5"/>
  </g>
  <g id="resetDef">
    <use xlink:href="#rim2" fill="#404040"><set attributeName="fill" to="#808080" begin="reset.mouseover" end="reset.mouseout"/></use>
  </g>
</defs>
<script type="application/ecmascript" xlink:href="../../svg.min.js"/>
<svg id="graph" class="graph" data-view-width="750" data-view-height="113" data-section-id="dynsection-380">
<g id="viewport">
<title>lamina::expr_is_nonzero</title>
<!-- Node1 -->
<g id="Node000001" class="node">
<title>Node1</title>
<g id="a_Node000001"><a xlink:title="Check if a symbolic expression is known NonZero in the given context.">
<polygon fill="#999999" stroke="#666666" points="136,-56 0,-56 0,-37 136,-37 136,-56"/>
<text text-anchor="middle" x="68" y="-44" font-family="Helvetica,sans-Serif" font-size="10.00">lamina::expr_is_nonzero</text>
</a>
</g>
</g>
<!-- Node1&#45;&gt;Node1 -->
<g id="edge1_Node000001_Node000001" class="edge">
<title>Node1&#45;&gt;Node1</title>
<g id="a_edge1_Node000001_Node000001"><a xlink:title=" ">
<path fill="none" stroke="#63b8ff" d="M41.18,-56.08C28.13,-64.73 37.07,-74 68,-74 88.78,-74 99.63,-69.82 100.56,-64.45"/>
<polygon fill="#63b8ff" stroke="#63b8ff" points="103.36,-62.35 94.82,-56.08 97.59,-66.31 103.36,-62.35"/>
</a>
</g>
</g>
<!-- Node2 -->
<g id="Node000002" class="node">
<title>Node2</title>
<g id="a_Node000002"><a xlink:href="../../d0/d3a/namespacelamina_1_1detail.html#a915db06e6554c429d50d6ab153f13add" target="_top" xlink:title=" ">
<polygon fill="white" stroke="#666666" points="312,-61.5 172,-61.5 172,-31.5 312,-31.5 312,-61.5"/>
<text text-anchor="start" x="180" y="-49.5" font-family="Helvetica,sans-Serif" font-size="10.00">lamina::detail::propagate</text>
<text text-anchor="middle" x="242" y="-38.5" font-family="Helvetica,sans-Serif" font-size="10.00">_result</text>
</a>
</g>
</g>
<!-- Node1&#45;&gt;Node2 -->
<g id="edge2_Node000001_Node000002" class="edge">
<title>Node1&#45;&gt;Node2</title>
<g id="a_edge2_Node000001_Node000002"><a xlink:title=" ">
<path fill="none" stroke="#63b8ff" d="M136.49,-46.5C144.72,-46.5 153.18,-46.5 161.57,-46.5"/>
<polygon fill="#63b8ff" stroke="#63b8ff" points="161.73,-50 171.73,-46.5 161.73,-43 161.73,-50"/>
</a>
</g>
</g>
<!-- Node2&#45;&gt;Node2 -->
<g id="edge6_Node000002_Node000002" class="edge">
<title>Node2&#45;&gt;Node2</title>
<g id="a_edge6_Node000002_Node000002"><a xlink:title=" ">
<path fill="none" stroke="#63b8ff" d="M211.41,-61.78C204.62,-70.91 214.81,-79.5 242,-79.5 258.14,-79.5 268.29,-76.47 272.46,-72.1"/>
<polygon fill="#63b8ff" stroke="#63b8ff" points="275.96,-71.82 272.59,-61.78 268.96,-71.73 275.96,-71.82"/>
</a>
</g>
</g>
<!-- Node3 -->
<g id="Node000003" class="node">
<title>Node3</title>
<g id="a_Node000003"><a xlink:href="../../da/d89/classlamina_1_1detail_1_1ResultPropagation.html#abf2116f4e8ed084270604d4fcd9b2169" target="_top" xlink:title=" ">
<polygon fill="white" stroke="#666666" points="527,-104.5 348,-104.5 348,-74.5 527,-74.5 527,-104.5"/>
<text text-anchor="start" x="356" y="-92.5" font-family="Helvetica,sans-Serif" font-size="10.00">lamina::detail::ResultPropagation</text>
<text text-anchor="middle" x="437.5" y="-81.5" font-family="Helvetica,sans-Serif" font-size="10.00">::ResultPropagation</text>
</a>
</g>
</g>
<!-- Node2&#45;&gt;Node3 -->
<g id="edge3_Node000002_Node000003" class="edge">
<title>Node2&#45;&gt;Node3</title>
<g id="a_edge3_Node000002_Node000003"><a xlink:title=" ">
<path fill="none" stroke="#63b8ff" d="M310.68,-61.54C326.29,-65.01 343.02,-68.73 359.01,-72.28"/>
<polygon fill="#63b8ff" stroke="#63b8ff" points="358.34,-75.72 368.86,-74.47 359.86,-68.88 358.34,-75.72"/>
</a>
</g>
</g>
<!-- Node5 -->
<g id="Node000005" class="node">
<title>Node5</title>
<g id="a_Node000005"><a xlink:href="../../d4/d81/classlamina_1_1Result.html#ac8b9cd46ce99b156f0892880b9734ff4" target="_top" xlink:title=" ">
<polygon fill="white" stroke="#666666" points="495.5,-56 379.5,-56 379.5,-37 495.5,-37 495.5,-56"/>
<text text-anchor="middle" x="437.5" y="-44" font-family="Helvetica,sans-Serif" font-size="10.00">lamina::Result::error</text>
</a>
</g>
</g>
<!-- Node2&#45;&gt;Node5 -->
<g id="edge5_Node000002_Node000005" class="edge">
<title>Node2&#45;&gt;Node5</title>
<g id="a_edge5_Node000002_Node000005"><a xlink:title=" ">
<path fill="none" stroke="#63b8ff" d="M312.04,-46.5C330.63,-46.5 350.71,-46.5 369.2,-46.5"/>
<polygon fill="#63b8ff" stroke="#63b8ff" points="369.29,-50 379.29,-46.5 369.29,-43 369.29,-50"/>
</a>
</g>
</g>
<!-- Node6 -->
<g id="Node000006" class="node">
<title>Node6</title>
<g id="a_Node000006"><a xlink:href="../../d4/d81/classlamina_1_1Result.html#a171951479cd40ed98bf945d9d8c9a64b" target="_top" xlink:title=" ">
<polygon fill="white" stroke="#666666" points="497.5,-19 377.5,-19 377.5,0 497.5,0 497.5,-19"/>
<text text-anchor="middle" x="437.5" y="-7" font-family="Helvetica,sans-Serif" font-size="10.00">lamina::Result::value</text>
</a>
</g>
</g>
<!-- Node2&#45;&gt;Node6 -->
<g id="edge7_Node000002_Node000006" class="edge">
<title>Node2&#45;&gt;Node6</title>
<g id="a_edge7_Node000002_Node000006"><a xlink:title=" ">
<path fill="none" stroke="#63b8ff" d="M312.04,-33.3C333.21,-29.25 356.32,-24.83 376.81,-20.91"/>
<polygon fill="#63b8ff" stroke="#63b8ff" points="377.48,-24.35 386.64,-19.03 376.16,-17.47 377.48,-24.35"/>
</a>
</g>
</g>
<!-- Node4 -->
<g id="Node000004" class="node">
<title>Node4</title>
<g id="a_Node000004"><a xlink:href="../../da/d89/classlamina_1_1detail_1_1ResultPropagation.html#aad83ffedc0fc9d7dad824b08be923e3c" target="_top" xlink:title=" ">
<polygon fill="white" stroke="#666666" points="742,-104.5 563,-104.5 563,-74.5 742,-74.5 742,-104.5"/>
<text text-anchor="start" x="571" y="-92.5" font-family="Helvetica,sans-Serif" font-size="10.00">lamina::detail::ResultPropagation</text>
<text text-anchor="middle" x="652.5" y="-81.5" font-family="Helvetica,sans-Serif" font-size="10.00">::error</text>
</a>
</g>
</g>
<!-- Node3&#45;&gt;Node4 -->
<g id="edge4_Node000003_Node000004" class="edge">
<title>Node3&#45;&gt;Node4</title>
<g id="a_edge4_Node000003_Node000004"><a xlink:title=" ">
<path fill="none" stroke="#63b8ff" d="M527.29,-89.5C535.65,-89.5 544.16,-89.5 552.6,-89.5"/>
<polygon fill="#63b8ff" stroke="#63b8ff" points="552.86,-93 562.86,-89.5 552.85,-86 552.86,-93"/>
</a>
</g>
</g>
</g>
</svg>

<g id="navigator" transform="translate(0 0)" fill="#404254">
  <rect fill="#f2f5e9" fill-opacity="0.5" stroke="#606060" stroke-width=".5" x="0" y="0" width="60" height="60"/>
  <use id="zoomplus" xlink:href="#zoomPlus" x="17" y="9" data-zoom="in"/>
  <use id="zoomminus" xlink:href="#zoomMin" x="42" y="9" data-zoom="out"/>
  <use id="reset" xlink:href="#resetDef" x="30" y="36" data-reset="true"/>
  <use id="arrowup" xlink:href="#arrowUp" x="0" y="0" data-pan-x="0" data-pan-y="-1"/>
  <use id="arrowright" xlink:href="#arrowRight" x="0" y="0" data-pan-x="1" data-pan-y="0"/>
  <use id="arrowdown" xlink:href="#arrowDown" x="0" y="0" data-pan-x="0" data-pan-y="1"/>
  <use id="arrowleft" xlink:href="#arrowLeft" x="0" y="0" data-pan-x="-1" data-pan-y="0"/>
</g>
<svg viewBox="0 0 15 15" width="100%" height="30px" preserveAspectRatio="xMaxYMin meet">
 <g id="arrow_out" transform="scale(0.3 0.3)">
  <a xlink:href="namespacelamina_aa7ebc8a29caf0bbbdd6729b15f7f0868_cgraph_org.svg" target="_base">
   <rect id="button" ry="5" rx="5" y="6" x="6" height="38" width="38"
        fill="#f2f5e9" fill-opacity="0.5" stroke="#606060" stroke-width="1.0"/>
   <path id="arrow"
     d="M 11.500037,31.436501 C 11.940474,20.09759 22.043105,11.32322 32.158766,21.979434 L 37.068811,17.246167 C 37.068811,17.246167 37.088388,32 37.088388,32 L 22.160133,31.978069 C 22.160133,31.978069 26.997745,27.140456 26.997745,27.140456 C 18.528582,18.264221 13.291696,25.230495 11.500037,31.436501 z"
     style="fill:#404040;"/>
  </a>
 </g>
</svg>

<style type='text/css'>
<![CDATA[
[data-mouse-over-selected='false'] { opacity: 0.7; }
[data-mouse-over-selected='true']  { opacity: 1.0; }
]]>
</style>
</svg>
