<?xml version="1.0" encoding="UTF-8" standalone="no"?>
<!DOCTYPE svg PUBLIC "-//W3C//DTD SVG 1.1//EN"
 "http://www.w3.org/Graphics/SVG/1.1/DTD/svg11.dtd">
<!-- Generated by graphviz version 2.43.0 (0)
 -->
<!-- Title: lamina::rootof_evaluate Pages: 1 -->
<svg width="1519pt" height="779pt"
 viewBox="0.00 0.00 1519.00 779.00" xmlns="http://www.w3.org/2000/svg" xmlns:xlink="http://www.w3.org/1999/xlink">
<g id="graph0" class="graph" transform="scale(1 1) rotate(0) translate(4 775)">
<title>lamina::rootof_evaluate</title>
<!-- Node1 -->
<g id="Node000001" class="node">
<title>Node1</title>
<g id="a_Node000001"><a xlink:title="对 RootOf 表达式进行数值求值。">
<polygon fill="#999999" stroke="#666666" points="134,-434 0,-434 0,-415 134,-415 134,-434"/>
<text text-anchor="middle" x="67" y="-422" font-family="Helvetica,sans-Serif" font-size="10.00">lamina::rootof_evaluate</text>
</a>
</g>
</g>
<!-- Node2 -->
<g id="Node000002" class="node">
<title>Node2</title>
<g id="a_Node000002"><a xlink:href="../../d1/d42/namespacelamina.html#ab899f5f3cc2b2bca335829a5880f3028" target="_top" xlink:title="使用 Sturm 序列隔离有理系数多项式的所有实根。">
<polygon fill="white" stroke="#666666" points="295,-500.5 182,-500.5 182,-470.5 295,-470.5 295,-500.5"/>
<text text-anchor="start" x="190" y="-488.5" font-family="Helvetica,sans-Serif" font-size="10.00">lamina::isolate_real</text>
<text text-anchor="middle" x="238.5" y="-477.5" font-family="Helvetica,sans-Serif" font-size="10.00">_roots</text>
</a>
</g>
</g>
<!-- Node1&#45;&gt;Node2 -->
<g id="edge1_Node000001_Node000002" class="edge">
<title>Node1&#45;&gt;Node2</title>
<g id="a_edge1_Node000001_Node000002"><a xlink:title=" ">
<path fill="none" stroke="#63b8ff" d="M94.48,-434.03C118.93,-442.83 155.92,-456.14 186.16,-467.02"/>
<polygon fill="#63b8ff" stroke="#63b8ff" points="185.12,-470.37 195.71,-470.46 187.49,-463.78 185.12,-470.37"/>
</a>
</g>
</g>
<!-- Node31 -->
<g id="Node000031" class="node">
<title>Node31</title>
<g id="a_Node000031"><a xlink:href="../../d1/d42/namespacelamina.html#a2b1893ca5f0ef781c476f3fee3d27528" target="_top" xlink:title="Newton&#45;Raphson 迭代求根（无区间约束）。">
<polygon fill="white" stroke="#666666" points="307,-216 170,-216 170,-197 307,-197 307,-216"/>
<text text-anchor="middle" x="238.5" y="-204" font-family="Helvetica,sans-Serif" font-size="10.00">lamina::newton_raphson</text>
</a>
</g>
</g>
<!-- Node1&#45;&gt;Node31 -->
<g id="edge54_Node000001_Node000031" class="edge">
<title>Node1&#45;&gt;Node31</title>
<g id="a_edge54_Node000001_Node000031"><a xlink:title=" ">
<path fill="none" stroke="#63b8ff" d="M75.34,-414.68C91.98,-392.44 133.97,-336.56 170,-290.5 188.06,-267.41 209.3,-241.12 223.06,-224.19"/>
<polygon fill="#63b8ff" stroke="#63b8ff" points="225.92,-226.23 229.52,-216.26 220.49,-221.81 225.92,-226.23"/>
</a>
</g>
</g>
<!-- Node32 -->
<g id="Node000032" class="node">
<title>Node32</title>
<g id="a_Node000032"><a xlink:href="../../dc/d25/classSymbolicExpr.html#adeb760bb6f4f28879108394537eca293" target="_top" xlink:title="创建整数数值表达式。">
<polygon fill="white" stroke="#666666" points="475.5,-19 348.5,-19 348.5,0 475.5,0 475.5,-19"/>
<text text-anchor="middle" x="412" y="-7" font-family="Helvetica,sans-Serif" font-size="10.00">SymbolicExpr::number</text>
</a>
</g>
</g>
<!-- Node1&#45;&gt;Node32 -->
<g id="edge56_Node000001_Node000032" class="edge">
<title>Node1&#45;&gt;Node32</title>
<g id="a_edge56_Node000001_Node000032"><a xlink:title=" ">
<path fill="none" stroke="#63b8ff" d="M86.67,-414.88C132.56,-390.19 251.19,-319.72 307,-224.5 350.68,-149.97 286.76,-99.07 343,-33.5 346.24,-29.72 350.12,-26.53 354.35,-23.85"/>
<polygon fill="#63b8ff" stroke="#63b8ff" points="356.27,-26.8 363.46,-19.02 352.99,-20.61 356.27,-26.8"/>
</a>
</g>
</g>
<!-- Node33 -->
<g id="Node000033" class="node">
<title>Node33</title>
<g id="a_Node000033"><a xlink:href="../../d1/d42/namespacelamina.html#a1933753170b133854fc73442e3844677" target="_top" xlink:title=" ">
<polygon fill="white" stroke="#666666" points="808,-743.5 696,-743.5 696,-713.5 808,-713.5 808,-743.5"/>
<text text-anchor="start" x="704" y="-731.5" font-family="Helvetica,sans-Serif" font-size="10.00">lamina::try_convert</text>
<text text-anchor="middle" x="752" y="-720.5" font-family="Helvetica,sans-Serif" font-size="10.00">_to_rational_poly</text>
</a>
</g>
</g>
<!-- Node1&#45;&gt;Node33 -->
<g id="edge57_Node000001_Node000033" class="edge">
<title>Node1&#45;&gt;Node33</title>
<g id="a_edge57_Node000001_Node000033"><a xlink:title=" ">
<path fill="none" stroke="#63b8ff" d="M74.66,-434.2C102.21,-473.4 211.92,-620.89 343,-681.5 455.14,-733.35 602.39,-736.55 685.85,-733.19"/>
<polygon fill="#63b8ff" stroke="#63b8ff" points="686.12,-736.68 695.95,-732.74 685.81,-729.69 686.12,-736.68"/>
</a>
</g>
</g>
<!-- Node3 -->
<g id="Node000003" class="node">
<title>Node3</title>
<g id="a_Node000003"><a xlink:href="../../d1/d42/namespacelamina.html#a0632f2f4b3e877a63bff2bdbcf8e01c4" target="_top" xlink:title=" ">
<polygon fill="white" stroke="#666666" points="979,-647 853,-647 853,-628 979,-628 979,-647"/>
<text text-anchor="middle" x="916" y="-635" font-family="Helvetica,sans-Serif" font-size="10.00">lamina::cauchy_bound</text>
</a>
</g>
</g>
<!-- Node2&#45;&gt;Node3 -->
<g id="edge2_Node000002_Node000003" class="edge">
<title>Node2&#45;&gt;Node3</title>
<g id="a_edge2_Node000002_Node000003"><a xlink:title=" ">
<path fill="none" stroke="#63b8ff" d="M243.23,-500.61C252.82,-535.84 282,-623.17 343,-659.5 382.86,-683.24 733.88,-682.09 817,-666.5 833.87,-663.33 836.62,-657.64 853,-652.5 856.12,-651.52 859.34,-650.57 862.6,-649.65"/>
<polygon fill="#63b8ff" stroke="#63b8ff" points="863.69,-652.98 872.44,-647 861.87,-646.22 863.69,-652.98"/>
</a>
</g>
</g>
<!-- Node6 -->
<g id="Node000006" class="node">
<title>Node6</title>
<g id="a_Node000006"><a xlink:href="../../d8/d1e/classlamina_1_1Polynomial.html#aa4209c719c18fc882b702d88e397bdf4" target="_top" xlink:title="获取多项式的次数">
<polygon fill="white" stroke="#666666" points="1126,-481.5 1015,-481.5 1015,-451.5 1126,-451.5 1126,-481.5"/>
<text text-anchor="start" x="1023" y="-469.5" font-family="Helvetica,sans-Serif" font-size="10.00">lamina::Polynomial</text>
<text text-anchor="middle" x="1070.5" y="-458.5" font-family="Helvetica,sans-Serif" font-size="10.00">::degree</text>
</a>
</g>
</g>
<!-- Node2&#45;&gt;Node6 -->
<g id="edge8_Node000002_Node000006" class="edge">
<title>Node2&#45;&gt;Node6</title>
<g id="a_edge8_Node000002_Node000006"><a xlink:title=" ">
<path fill="none" stroke="#63b8ff" d="M295.13,-485.5C363.06,-485.5 481.47,-485.5 583,-485.5 583,-485.5 583,-485.5 753,-485.5 840.21,-485.5 940.7,-478.22 1004.62,-472.68"/>
<polygon fill="#63b8ff" stroke="#63b8ff" points="1005.3,-476.13 1014.95,-471.77 1004.68,-469.16 1005.3,-476.13"/>
</a>
</g>
</g>
<!-- Node9 -->
<g id="Node000009" class="node">
<title>Node9</title>
<g id="a_Node000009"><a xlink:href="../../d8/d1e/classlamina_1_1Polynomial.html#a74463cdfa7335f426f86ecbc1ec770fd" target="_top" xlink:title="求导">
<polygon fill="white" stroke="#666666" points="639.5,-543.5 528.5,-543.5 528.5,-513.5 639.5,-513.5 639.5,-543.5"/>
<text text-anchor="start" x="536.5" y="-531.5" font-family="Helvetica,sans-Serif" font-size="10.00">lamina::Polynomial</text>
<text text-anchor="middle" x="584" y="-520.5" font-family="Helvetica,sans-Serif" font-size="10.00">::differentiate</text>
</a>
</g>
</g>
<!-- Node2&#45;&gt;Node9 -->
<g id="edge9_Node000002_Node000009" class="edge">
<title>Node2&#45;&gt;Node9</title>
<g id="a_edge9_Node000002_Node000009"><a xlink:title=" ">
<path fill="none" stroke="#63b8ff" d="M295.07,-493.17C310.58,-495.26 327.44,-497.51 343,-499.5 402.27,-507.09 469.85,-515.21 518.16,-520.92"/>
<polygon fill="#63b8ff" stroke="#63b8ff" points="517.82,-524.4 528.16,-522.1 518.64,-517.45 517.82,-524.4"/>
</a>
</g>
</g>
<!-- Node10 -->
<g id="Node000010" class="node">
<title>Node10</title>
<g id="a_Node000010"><a xlink:href="../../d8/d1e/classlamina_1_1Polynomial.html#aa1bfcf8f305d62777bcfbebda559d87e" target="_top" xlink:title="去除高次零系数">
<polygon fill="white" stroke="#666666" points="1126,-576.5 1015,-576.5 1015,-546.5 1126,-546.5 1126,-576.5"/>
<text text-anchor="start" x="1023" y="-564.5" font-family="Helvetica,sans-Serif" font-size="10.00">lamina::Polynomial</text>
<text text-anchor="middle" x="1070.5" y="-553.5" font-family="Helvetica,sans-Serif" font-size="10.00">::trim</text>
</a>
</g>
</g>
<!-- Node2&#45;&gt;Node10 -->
<g id="edge53_Node000002_Node000010" class="edge">
<title>Node2&#45;&gt;Node10</title>
<g id="a_edge53_Node000002_Node000010"><a xlink:title=" ">
<path fill="none" stroke="#63b8ff" d="M265.67,-500.64C321.84,-531.65 458.9,-599.5 583,-599.5 583,-599.5 583,-599.5 753,-599.5 840.73,-599.5 941.17,-584.93 1004.94,-573.83"/>
<polygon fill="#63b8ff" stroke="#63b8ff" points="1005.61,-577.27 1014.85,-572.09 1004.39,-570.38 1005.61,-577.27"/>
</a>
</g>
</g>
<!-- Node11 -->
<g id="Node000011" class="node">
<title>Node11</title>
<g id="a_Node000011"><a xlink:href="../../d8/d1e/classlamina_1_1Polynomial.html#aa814387a30feaf66a7487b1f9aac3354" target="_top" xlink:title="多项式带余除法">
<polygon fill="white" stroke="#666666" points="971.5,-401.5 860.5,-401.5 860.5,-371.5 971.5,-371.5 971.5,-401.5"/>
<text text-anchor="start" x="868.5" y="-389.5" font-family="Helvetica,sans-Serif" font-size="10.00">lamina::Polynomial</text>
<text text-anchor="middle" x="916" y="-378.5" font-family="Helvetica,sans-Serif" font-size="10.00">::div_mod</text>
</a>
</g>
</g>
<!-- Node2&#45;&gt;Node11 -->
<g id="edge12_Node000002_Node000011" class="edge">
<title>Node2&#45;&gt;Node11</title>
<g id="a_edge12_Node000002_Node000011"><a xlink:title=" ">
<path fill="none" stroke="#63b8ff" d="M256.74,-470.38C276.2,-454.32 309.51,-429.73 343,-418.5 518.86,-359.53 742.04,-369.5 850.27,-379.25"/>
<polygon fill="#63b8ff" stroke="#63b8ff" points="850.1,-382.75 860.39,-380.19 850.75,-375.78 850.1,-382.75"/>
</a>
</g>
</g>
<!-- Node12 -->
<g id="Node000012" class="node">
<title>Node12</title>
<g id="a_Node000012"><a xlink:href="../../d8/d1e/classlamina_1_1Polynomial.html#a5ab9f08024d7084b47a746f72ba9f850" target="_top" xlink:title="判断是否为零多项式">
<polygon fill="white" stroke="#666666" points="1126,-262.5 1015,-262.5 1015,-232.5 1126,-232.5 1126,-262.5"/>
<text text-anchor="start" x="1023" y="-250.5" font-family="Helvetica,sans-Serif" font-size="10.00">lamina::Polynomial</text>
<text text-anchor="middle" x="1070.5" y="-239.5" font-family="Helvetica,sans-Serif" font-size="10.00">::is_zero</text>
</a>
</g>
</g>
<!-- Node2&#45;&gt;Node12 -->
<g id="edge17_Node000002_Node000012" class="edge">
<title>Node2&#45;&gt;Node12</title>
<g id="a_edge17_Node000002_Node000012"><a xlink:title=" ">
<path fill="none" stroke="#63b8ff" d="M247.24,-470.42C287.25,-393.41 473.08,-47.5 583,-47.5 583,-47.5 583,-47.5 753,-47.5 856.59,-47.5 900.06,-37.43 979,-104.5 1009.64,-130.54 993.19,-153.72 1015,-187.5 1023.72,-201.01 1035.52,-214.41 1045.9,-225.11"/>
<polygon fill="#63b8ff" stroke="#63b8ff" points="1043.61,-227.78 1053.15,-232.39 1048.57,-222.83 1043.61,-227.78"/>
</a>
</g>
</g>
<!-- Node13 -->
<g id="Node000013" class="node">
<title>Node13</title>
<g id="a_Node000013"><a xlink:href="../../d1/d42/namespacelamina.html#afaeb47ec9798e91487ce4cec8c1d2a61" target="_top" xlink:title=" ">
<polygon fill="white" stroke="#666666" points="481,-650 343,-650 343,-631 481,-631 481,-650"/>
<text text-anchor="middle" x="412" y="-638" font-family="Helvetica,sans-Serif" font-size="10.00">lamina::roots_in_interval</text>
</a>
</g>
</g>
<!-- Node2&#45;&gt;Node13 -->
<g id="edge18_Node000002_Node000013" class="edge">
<title>Node2&#45;&gt;Node13</title>
<g id="a_edge18_Node000002_Node000013"><a xlink:title=" ">
<path fill="none" stroke="#63b8ff" d="M248.12,-500.64C263.82,-526.98 299.5,-581.49 343,-613.5 350.36,-618.92 358.95,-623.42 367.5,-627.1"/>
<polygon fill="#63b8ff" stroke="#63b8ff" points="366.49,-630.46 377.07,-630.9 369.07,-623.95 366.49,-630.46"/>
</a>
</g>
</g>
<!-- Node16 -->
<g id="Node000016" class="node">
<title>Node16</title>
<g id="a_Node000016"><a xlink:href="../../d8/d1e/classlamina_1_1Polynomial.html#a87554165ccc298dde6bf4074e2831a40" target="_top" xlink:title="计算无平方因子部分">
<polygon fill="white" stroke="#666666" points="467.5,-457.5 356.5,-457.5 356.5,-427.5 467.5,-427.5 467.5,-457.5"/>
<text text-anchor="start" x="364.5" y="-445.5" font-family="Helvetica,sans-Serif" font-size="10.00">lamina::Polynomial</text>
<text text-anchor="middle" x="412" y="-434.5" font-family="Helvetica,sans-Serif" font-size="10.00">::square_free_part</text>
</a>
</g>
</g>
<!-- Node2&#45;&gt;Node16 -->
<g id="edge21_Node000002_Node000016" class="edge">
<title>Node2&#45;&gt;Node16</title>
<g id="a_edge21_Node000002_Node000016"><a xlink:title=" ">
<path fill="none" stroke="#63b8ff" d="M295.18,-471.54C311.61,-467.42 329.74,-462.88 346.67,-458.63"/>
<polygon fill="#63b8ff" stroke="#63b8ff" points="347.63,-462 356.48,-456.17 345.92,-455.21 347.63,-462"/>
</a>
</g>
</g>
<!-- Node4 -->
<g id="Node000004" class="node">
<title>Node4</title>
<g id="a_Node000004"><a xlink:href="../../d8/da7/classRational.html#a3a67fdbb5c6be06e9d8c2fff817312bd" target="_top" xlink:title="取绝对值">
<polygon fill="white" stroke="#666666" points="1254,-668 1174,-668 1174,-649 1254,-649 1254,-668"/>
<text text-anchor="middle" x="1214" y="-656" font-family="Helvetica,sans-Serif" font-size="10.00">Rational::abs</text>
</a>
</g>
</g>
<!-- Node3&#45;&gt;Node4 -->
<g id="edge3_Node000003_Node000004" class="edge">
<title>Node3&#45;&gt;Node4</title>
<g id="a_edge3_Node000003_Node000004"><a xlink:title=" ">
<path fill="none" stroke="#63b8ff" d="M979.05,-641.9C1033.93,-645.8 1112.93,-651.4 1163.61,-655"/>
<polygon fill="#63b8ff" stroke="#63b8ff" points="1163.44,-658.49 1173.67,-655.71 1163.94,-651.51 1163.44,-658.49"/>
</a>
</g>
</g>
<!-- Node3&#45;&gt;Node6 -->
<g id="edge5_Node000003_Node000006" class="edge">
<title>Node3&#45;&gt;Node6</title>
<g id="a_edge5_Node000003_Node000006"><a xlink:title=" ">
<path fill="none" stroke="#63b8ff" d="M925.64,-627.82C949.28,-601.3 1015.56,-526.98 1049.27,-489.19"/>
<polygon fill="#63b8ff" stroke="#63b8ff" points="1051.9,-491.5 1055.94,-481.71 1046.67,-486.84 1051.9,-491.5"/>
</a>
</g>
</g>
<!-- Node7 -->
<g id="Node000007" class="node">
<title>Node7</title>
<g id="a_Node000007"><a xlink:href="../../d8/da7/classRational.html#a782a77721d3d519323bde766752cabdf" target="_top" xlink:title="判断是否为零">
<polygon fill="white" stroke="#666666" points="1119.5,-630 1021.5,-630 1021.5,-611 1119.5,-611 1119.5,-630"/>
<text text-anchor="middle" x="1070.5" y="-618" font-family="Helvetica,sans-Serif" font-size="10.00">Rational::is_zero</text>
</a>
</g>
</g>
<!-- Node3&#45;&gt;Node7 -->
<g id="edge6_Node000003_Node000007" class="edge">
<title>Node3&#45;&gt;Node7</title>
<g id="a_edge6_Node000003_Node000007"><a xlink:title=" ">
<path fill="none" stroke="#63b8ff" d="M979.03,-630.59C989.54,-629.41 1000.43,-628.2 1010.85,-627.04"/>
<polygon fill="#63b8ff" stroke="#63b8ff" points="1011.54,-630.48 1021.09,-625.9 1010.76,-623.53 1011.54,-630.48"/>
</a>
</g>
</g>
<!-- Node8 -->
<g id="Node000008" class="node">
<title>Node8</title>
<g id="a_Node000008"><a xlink:href="../../d8/d1e/classlamina_1_1Polynomial.html#ae491492c9a43d1dee5f86b4adf803cfa" target="_top" xlink:title="获取首项系数">
<polygon fill="white" stroke="#666666" points="1126,-353.5 1015,-353.5 1015,-323.5 1126,-323.5 1126,-353.5"/>
<text text-anchor="start" x="1023" y="-341.5" font-family="Helvetica,sans-Serif" font-size="10.00">lamina::Polynomial</text>
<text text-anchor="middle" x="1070.5" y="-330.5" font-family="Helvetica,sans-Serif" font-size="10.00">::lead_coeff</text>
</a>
</g>
</g>
<!-- Node3&#45;&gt;Node8 -->
<g id="edge7_Node000003_Node000008" class="edge">
<title>Node3&#45;&gt;Node8</title>
<g id="a_edge7_Node000003_Node000008"><a xlink:title=" ">
<path fill="none" stroke="#63b8ff" d="M921.84,-627.73C936,-599.16 978.67,-513.29 1015,-442.5 1029.13,-414.98 1045.66,-383.54 1056.78,-362.5"/>
<polygon fill="#63b8ff" stroke="#63b8ff" points="1059.89,-364.09 1061.48,-353.61 1053.71,-360.82 1059.89,-364.09"/>
</a>
</g>
</g>
<!-- Node5 -->
<g id="Node000005" class="node">
<title>Node5</title>
<g id="a_Node000005"><a xlink:href="../../da/d5b/classBigInt.html#a4bff1a207fd14cd96badb54d0a470c1a" target="_top" xlink:title="取绝对值">
<polygon fill="white" stroke="#666666" points="1386.5,-668 1317.5,-668 1317.5,-649 1386.5,-649 1386.5,-668"/>
<text text-anchor="middle" x="1352" y="-656" font-family="Helvetica,sans-Serif" font-size="10.00">BigInt::Abs</text>
</a>
</g>
</g>
<!-- Node4&#45;&gt;Node5 -->
<g id="edge4_Node000004_Node000005" class="edge">
<title>Node4&#45;&gt;Node5</title>
<g id="a_edge4_Node000004_Node000005"><a xlink:title=" ">
<path fill="none" stroke="#63b8ff" d="M1254.34,-658.5C1270.84,-658.5 1290.1,-658.5 1307.06,-658.5"/>
<polygon fill="#63b8ff" stroke="#63b8ff" points="1307.28,-662 1317.28,-658.5 1307.28,-655 1307.28,-662"/>
</a>
</g>
</g>
<!-- Node9&#45;&gt;Node6 -->
<g id="edge10_Node000009_Node000006" class="edge">
<title>Node9&#45;&gt;Node6</title>
<g id="a_edge10_Node000009_Node000006"><a xlink:title=" ">
<path fill="none" stroke="#63b8ff" d="M639.52,-529.2C716.18,-529.13 859.8,-525.1 979,-499.5 994.41,-496.19 1010.74,-490.84 1025.22,-485.41"/>
<polygon fill="#63b8ff" stroke="#63b8ff" points="1026.86,-488.53 1034.92,-481.66 1024.33,-482 1026.86,-488.53"/>
</a>
</g>
</g>
<!-- Node9&#45;&gt;Node10 -->
<g id="edge11_Node000009_Node000010" class="edge">
<title>Node9&#45;&gt;Node10</title>
<g id="a_edge11_Node000009_Node000010"><a xlink:title=" ">
<path fill="none" stroke="#63b8ff" d="M639.5,-533.57C654.86,-534.92 671.58,-536.34 687,-537.5 798.53,-545.92 928.51,-553.63 1004.62,-557.93"/>
<polygon fill="#63b8ff" stroke="#63b8ff" points="1004.82,-561.45 1015,-558.52 1005.21,-554.46 1004.82,-561.45"/>
</a>
</g>
</g>
<!-- Node11&#45;&gt;Node6 -->
<g id="edge13_Node000011_Node000006" class="edge">
<title>Node11&#45;&gt;Node6</title>
<g id="a_edge13_Node000011_Node000006"><a xlink:title=" ">
<path fill="none" stroke="#63b8ff" d="M945.68,-401.55C970,-414.3 1005.05,-432.69 1031.66,-446.65"/>
<polygon fill="#63b8ff" stroke="#63b8ff" points="1030.2,-449.84 1040.69,-451.38 1033.46,-443.64 1030.2,-449.84"/>
</a>
</g>
</g>
<!-- Node11&#45;&gt;Node8 -->
<g id="edge15_Node000011_Node000008" class="edge">
<title>Node11&#45;&gt;Node8</title>
<g id="a_edge15_Node000011_Node000008"><a xlink:title=" ">
<path fill="none" stroke="#63b8ff" d="M964.83,-371.44C979.88,-366.71 996.65,-361.43 1012.28,-356.51"/>
<polygon fill="#63b8ff" stroke="#63b8ff" points="1013.35,-359.84 1021.84,-353.5 1011.25,-353.17 1013.35,-359.84"/>
</a>
</g>
</g>
<!-- Node11&#45;&gt;Node10 -->
<g id="edge16_Node000011_Node000010" class="edge">
<title>Node11&#45;&gt;Node10</title>
<g id="a_edge16_Node000011_Node000010"><a xlink:title=" ">
<path fill="none" stroke="#63b8ff" d="M930.27,-401.72C957.15,-432.57 1018.16,-502.59 1049.74,-538.83"/>
<polygon fill="#63b8ff" stroke="#63b8ff" points="1047.16,-541.2 1056.37,-546.44 1052.44,-536.6 1047.16,-541.2"/>
</a>
</g>
</g>
<!-- Node11&#45;&gt;Node12 -->
<g id="edge14_Node000011_Node000012" class="edge">
<title>Node11&#45;&gt;Node12</title>
<g id="a_edge14_Node000011_Node000012"><a xlink:title=" ">
<path fill="none" stroke="#63b8ff" d="M964.21,-371.5C969.44,-368.9 974.49,-365.92 979,-362.5 1000.26,-346.4 998.58,-335.51 1015,-314.5 1026.59,-299.67 1039.91,-283.28 1050.49,-270.42"/>
<polygon fill="#63b8ff" stroke="#63b8ff" points="1053.33,-272.47 1056.99,-262.53 1047.93,-268.02 1053.33,-272.47"/>
</a>
</g>
</g>
<!-- Node14 -->
<g id="Node000014" class="node">
<title>Node14</title>
<g id="a_Node000014"><a xlink:href="../../d1/d42/namespacelamina.html#addedbe32987a77bd369068dc87be2c3f" target="_top" xlink:title=" ">
<polygon fill="white" stroke="#666666" points="639,-657.5 529,-657.5 529,-627.5 639,-627.5 639,-657.5"/>
<text text-anchor="start" x="537" y="-645.5" font-family="Helvetica,sans-Serif" font-size="10.00">lamina::sturm_sign</text>
<text text-anchor="middle" x="584" y="-634.5" font-family="Helvetica,sans-Serif" font-size="10.00">_changes_at</text>
</a>
</g>
</g>
<!-- Node13&#45;&gt;Node14 -->
<g id="edge19_Node000013_Node000014" class="edge">
<title>Node13&#45;&gt;Node14</title>
<g id="a_edge19_Node000013_Node000014"><a xlink:title=" ">
<path fill="none" stroke="#63b8ff" d="M481.17,-641.3C493.58,-641.45 506.49,-641.6 518.78,-641.74"/>
<polygon fill="#63b8ff" stroke="#63b8ff" points="518.9,-645.25 528.94,-641.86 518.98,-638.25 518.9,-645.25"/>
</a>
</g>
</g>
<!-- Node15 -->
<g id="Node000015" class="node">
<title>Node15</title>
<g id="a_Node000015"><a xlink:href="../../d1/d42/namespacelamina.html#a28626a9eb9359faa72960ba44f175365" target="_top" xlink:title=" ">
<polygon fill="white" stroke="#666666" points="806.5,-657.5 697.5,-657.5 697.5,-627.5 806.5,-627.5 806.5,-657.5"/>
<text text-anchor="start" x="705.5" y="-645.5" font-family="Helvetica,sans-Serif" font-size="10.00">lamina::count_sign</text>
<text text-anchor="middle" x="752" y="-634.5" font-family="Helvetica,sans-Serif" font-size="10.00">_changes</text>
</a>
</g>
</g>
<!-- Node14&#45;&gt;Node15 -->
<g id="edge20_Node000014_Node000015" class="edge">
<title>Node14&#45;&gt;Node15</title>
<g id="a_edge20_Node000014_Node000015"><a xlink:title=" ">
<path fill="none" stroke="#63b8ff" d="M639.35,-642.5C654.63,-642.5 671.39,-642.5 687.17,-642.5"/>
<polygon fill="#63b8ff" stroke="#63b8ff" points="687.37,-646 697.37,-642.5 687.37,-639 687.37,-646"/>
</a>
</g>
</g>
<!-- Node16&#45;&gt;Node6 -->
<g id="edge22_Node000016_Node000006" class="edge">
<title>Node16&#45;&gt;Node6</title>
<g id="a_edge22_Node000016_Node000006"><a xlink:title=" ">
<path fill="none" stroke="#63b8ff" d="M467.56,-444.49C587.84,-448.89 875.35,-459.4 1004.61,-464.13"/>
<polygon fill="#63b8ff" stroke="#63b8ff" points="1004.63,-467.63 1014.75,-464.5 1004.89,-460.64 1004.63,-467.63"/>
</a>
</g>
</g>
<!-- Node16&#45;&gt;Node9 -->
<g id="edge23_Node000016_Node000009" class="edge">
<title>Node16&#45;&gt;Node9</title>
<g id="a_edge23_Node000016_Node000009"><a xlink:title=" ">
<path fill="none" stroke="#63b8ff" d="M443,-457.68C471.16,-471.92 513.44,-493.31 544.16,-508.85"/>
<polygon fill="#63b8ff" stroke="#63b8ff" points="542.8,-512.08 553.3,-513.47 545.96,-505.84 542.8,-512.08"/>
</a>
</g>
</g>
<!-- Node16&#45;&gt;Node11 -->
<g id="edge24_Node000016_Node000011" class="edge">
<title>Node16&#45;&gt;Node11</title>
<g id="a_edge24_Node000016_Node000011"><a xlink:title=" ">
<path fill="none" stroke="#63b8ff" d="M467.68,-436.4C561.04,-425.99 750.73,-404.82 850.44,-393.7"/>
<polygon fill="#63b8ff" stroke="#63b8ff" points="850.84,-397.18 860.39,-392.59 850.06,-390.22 850.84,-397.18"/>
</a>
</g>
</g>
<!-- Node17 -->
<g id="Node000017" class="node">
<title>Node17</title>
<g id="a_Node000017"><a xlink:href="../../d8/d1e/classlamina_1_1Polynomial.html#a1a3abf00054bcec5935ac071cdb6cc8d" target="_top" xlink:title="计算两个多项式的最大公因式">
<polygon fill="white" stroke="#666666" points="651,-238 517,-238 517,-219 651,-219 651,-238"/>
<text text-anchor="middle" x="584" y="-226" font-family="Helvetica,sans-Serif" font-size="10.00">lamina::Polynomial::gcd</text>
</a>
</g>
</g>
<!-- Node16&#45;&gt;Node17 -->
<g id="edge25_Node000016_Node000017" class="edge">
<title>Node16&#45;&gt;Node17</title>
<g id="a_edge25_Node000016_Node000017"><a xlink:title=" ">
<path fill="none" stroke="#63b8ff" d="M424.95,-427.45C455.51,-388.98 536.37,-287.2 569.03,-246.09"/>
<polygon fill="#63b8ff" stroke="#63b8ff" points="571.92,-248.08 575.4,-238.07 566.44,-243.72 571.92,-248.08"/>
</a>
</g>
</g>
<!-- Node17&#45;&gt;Node11 -->
<g id="edge36_Node000017_Node000011" class="edge">
<title>Node17&#45;&gt;Node11</title>
<g id="a_edge36_Node000017_Node000011"><a xlink:title=" ">
<path fill="none" stroke="#63b8ff" d="M593.89,-238.19C610.54,-255.79 648.24,-293.17 687,-314.5 701.93,-322.72 791.52,-350.02 853.85,-368.54"/>
<polygon fill="#63b8ff" stroke="#63b8ff" points="853.02,-371.94 863.6,-371.43 855.01,-365.23 853.02,-371.94"/>
</a>
</g>
</g>
<!-- Node17&#45;&gt;Node12 -->
<g id="edge39_Node000017_Node000012" class="edge">
<title>Node17&#45;&gt;Node12</title>
<g id="a_edge39_Node000017_Node000012"><a xlink:title=" ">
<path fill="none" stroke="#63b8ff" d="M651.1,-231.09C744.07,-234.74 912.4,-241.34 1004.68,-244.96"/>
<polygon fill="#63b8ff" stroke="#63b8ff" points="1004.6,-248.46 1014.73,-245.35 1004.87,-241.46 1004.6,-248.46"/>
</a>
</g>
</g>
<!-- Node18 -->
<g id="Node000018" class="node">
<title>Node18</title>
<g id="a_Node000018"><a xlink:href="../../d8/d1e/classlamina_1_1Polynomial.html#aeea5e02e02b3af76f80308582bfff121" target="_top" xlink:title="计算多项式的容度（所有系数的 GCD）">
<polygon fill="white" stroke="#666666" points="971.5,-143.5 860.5,-143.5 860.5,-113.5 971.5,-113.5 971.5,-143.5"/>
<text text-anchor="start" x="868.5" y="-131.5" font-family="Helvetica,sans-Serif" font-size="10.00">lamina::Polynomial</text>
<text text-anchor="middle" x="916" y="-120.5" font-family="Helvetica,sans-Serif" font-size="10.00">::content</text>
</a>
</g>
</g>
<!-- Node17&#45;&gt;Node18 -->
<g id="edge26_Node000017_Node000018" class="edge">
<title>Node17&#45;&gt;Node18</title>
<g id="a_edge26_Node000017_Node000018"><a xlink:title=" ">
<path fill="none" stroke="#63b8ff" d="M592.71,-218.75C608.22,-199.98 645.29,-159.21 687,-142.5 739.13,-121.62 803.36,-119.56 850.34,-121.88"/>
<polygon fill="#63b8ff" stroke="#63b8ff" points="850.21,-125.38 860.39,-122.46 850.61,-118.39 850.21,-125.38"/>
</a>
</g>
</g>
<!-- Node26 -->
<g id="Node000026" class="node">
<title>Node26</title>
<g id="a_Node000026"><a xlink:href="../../d1/d42/namespacelamina.html#a73deff0cb6ac889cd461c79ccda0d18a" target="_top" xlink:title="计算两个系数的最大公约数（泛型实现）">
<polygon fill="white" stroke="#666666" points="817,-95 687,-95 687,-76 817,-76 817,-95"/>
<text text-anchor="middle" x="752" y="-83" font-family="Helvetica,sans-Serif" font-size="10.00">lamina::gcd_coeff_impl</text>
</a>
</g>
</g>
<!-- Node17&#45;&gt;Node26 -->
<g id="edge37_Node000017_Node000026" class="edge">
<title>Node17&#45;&gt;Node26</title>
<g id="a_edge37_Node000017_Node000026"><a xlink:title=" ">
<path fill="none" stroke="#63b8ff" d="M590.9,-218.72C604.86,-196.33 642.19,-140.85 687,-109.5 692.95,-105.34 699.71,-101.79 706.56,-98.81"/>
<polygon fill="#63b8ff" stroke="#63b8ff" points="707.89,-102.05 715.88,-95.09 705.29,-95.55 707.89,-102.05"/>
</a>
</g>
</g>
<!-- Node27 -->
<g id="Node000027" class="node">
<title>Node27</title>
<g id="a_Node000027"><a xlink:href="../../d8/d1e/classlamina_1_1Polynomial.html#aea846ecf48739ada13d438905d8cdca9" target="_top" xlink:title="首一化（使首项系数为 1）">
<polygon fill="white" stroke="#666666" points="971.5,-305.5 860.5,-305.5 860.5,-275.5 971.5,-275.5 971.5,-305.5"/>
<text text-anchor="start" x="868.5" y="-293.5" font-family="Helvetica,sans-Serif" font-size="10.00">lamina::Polynomial</text>
<text text-anchor="middle" x="916" y="-282.5" font-family="Helvetica,sans-Serif" font-size="10.00">::make_monic</text>
</a>
</g>
</g>
<!-- Node17&#45;&gt;Node27 -->
<g id="edge40_Node000017_Node000027" class="edge">
<title>Node17&#45;&gt;Node27</title>
<g id="a_edge40_Node000017_Node000027"><a xlink:title=" ">
<path fill="none" stroke="#63b8ff" d="M651,-237.91C697.56,-244.89 761.31,-255.14 817,-266.5 827.95,-268.73 839.53,-271.35 850.75,-274.01"/>
<polygon fill="#63b8ff" stroke="#63b8ff" points="849.94,-277.41 860.48,-276.35 851.58,-270.61 849.94,-277.41"/>
</a>
</g>
</g>
<!-- Node28 -->
<g id="Node000028" class="node">
<title>Node28</title>
<g id="a_Node000028"><a xlink:href="../../d8/d1e/classlamina_1_1Polynomial.html#a0ab1623e5f1c3587d361292bf62fc68a" target="_top" xlink:title="计算多项式的本原部分（除以容度）">
<polygon fill="white" stroke="#666666" points="807.5,-181.5 696.5,-181.5 696.5,-151.5 807.5,-151.5 807.5,-181.5"/>
<text text-anchor="start" x="704.5" y="-169.5" font-family="Helvetica,sans-Serif" font-size="10.00">lamina::Polynomial</text>
<text text-anchor="middle" x="752" y="-158.5" font-family="Helvetica,sans-Serif" font-size="10.00">::primitive_part</text>
</a>
</g>
</g>
<!-- Node17&#45;&gt;Node28 -->
<g id="edge43_Node000017_Node000028" class="edge">
<title>Node17&#45;&gt;Node28</title>
<g id="a_edge43_Node000017_Node000028"><a xlink:title=" ">
<path fill="none" stroke="#63b8ff" d="M610.57,-218.95C634.62,-209.97 671.28,-196.28 701.11,-185.13"/>
<polygon fill="#63b8ff" stroke="#63b8ff" points="702.39,-188.39 710.53,-181.62 699.94,-181.84 702.39,-188.39"/>
</a>
</g>
</g>
<!-- Node29 -->
<g id="Node000029" class="node">
<title>Node29</title>
<g id="a_Node000029"><a xlink:href="../../d8/d1e/classlamina_1_1Polynomial.html#a347fea59dd31a520b739bb542fb6ae00" target="_top" xlink:title="伪除法取余数">
<polygon fill="white" stroke="#666666" points="817,-305.5 687,-305.5 687,-275.5 817,-275.5 817,-305.5"/>
<text text-anchor="start" x="695" y="-293.5" font-family="Helvetica,sans-Serif" font-size="10.00">lamina::Polynomial</text>
<text text-anchor="middle" x="752" y="-282.5" font-family="Helvetica,sans-Serif" font-size="10.00">::pseudo_div_mod_rem</text>
</a>
</g>
</g>
<!-- Node17&#45;&gt;Node29 -->
<g id="edge47_Node000017_Node000029" class="edge">
<title>Node17&#45;&gt;Node29</title>
<g id="a_edge47_Node000017_Node000029"><a xlink:title=" ">
<path fill="none" stroke="#63b8ff" d="M610.57,-238.05C634.62,-247.03 671.28,-260.72 701.11,-271.87"/>
<polygon fill="#63b8ff" stroke="#63b8ff" points="699.94,-275.16 710.53,-275.38 702.39,-268.61 699.94,-275.16"/>
</a>
</g>
</g>
<!-- Node18&#45;&gt;Node12 -->
<g id="edge35_Node000018_Node000012" class="edge">
<title>Node18&#45;&gt;Node12</title>
<g id="a_edge35_Node000018_Node000012"><a xlink:title=" ">
<path fill="none" stroke="#63b8ff" d="M954.55,-143.52C962.9,-147.55 971.5,-152.26 979,-157.5 993.85,-167.88 1026.65,-201.72 1048.41,-224.81"/>
<polygon fill="#63b8ff" stroke="#63b8ff" points="1045.93,-227.28 1055.33,-232.18 1051.04,-222.5 1045.93,-227.28"/>
</a>
</g>
</g>
<!-- Node19 -->
<g id="Node000019" class="node">
<title>Node19</title>
<g id="a_Node000019"><a xlink:href="../../d8/d1e/classlamina_1_1Polynomial.html#ab66e92f97e1c25c6f0b78648c1168d75" target="_top" xlink:title="计算两个系数的 GCD（静态方法）">
<polygon fill="white" stroke="#666666" points="1126,-178.5 1015,-178.5 1015,-148.5 1126,-148.5 1126,-178.5"/>
<text text-anchor="start" x="1023" y="-166.5" font-family="Helvetica,sans-Serif" font-size="10.00">lamina::Polynomial</text>
<text text-anchor="middle" x="1070.5" y="-155.5" font-family="Helvetica,sans-Serif" font-size="10.00">::gcd_coeff</text>
</a>
</g>
</g>
<!-- Node18&#45;&gt;Node19 -->
<g id="edge27_Node000018_Node000019" class="edge">
<title>Node18&#45;&gt;Node19</title>
<g id="a_edge27_Node000018_Node000019"><a xlink:title=" ">
<path fill="none" stroke="#63b8ff" d="M971.63,-141.04C982.42,-143.51 993.85,-146.14 1004.94,-148.68"/>
<polygon fill="#63b8ff" stroke="#63b8ff" points="1004.47,-152.17 1015,-150.99 1006.04,-145.34 1004.47,-152.17"/>
</a>
</g>
</g>
<!-- Node20 -->
<g id="Node000020" class="node">
<title>Node20</title>
<g id="a_Node000020"><a xlink:href="../../da/d5b/classBigInt.html#a4804d5bec19a3d92f9c34713c83ef7e1" target="_top" xlink:title="计算最大公约数">
<polygon fill="white" stroke="#666666" points="1248,-393 1180,-393 1180,-374 1248,-374 1248,-393"/>
<text text-anchor="middle" x="1214" y="-381" font-family="Helvetica,sans-Serif" font-size="10.00">BigInt::gcd</text>
</a>
</g>
</g>
<!-- Node19&#45;&gt;Node20 -->
<g id="edge28_Node000019_Node000020" class="edge">
<title>Node19&#45;&gt;Node20</title>
<g id="a_edge28_Node000019_Node000020"><a xlink:title=" ">
<path fill="none" stroke="#63b8ff" d="M1087.41,-178.91C1098.92,-190.53 1114.43,-207.21 1126,-223.5 1159.89,-271.21 1190.25,-333.56 1204.47,-364.45"/>
<polygon fill="#63b8ff" stroke="#63b8ff" points="1201.33,-366 1208.66,-373.65 1207.7,-363.1 1201.33,-366"/>
</a>
</g>
</g>
<!-- Node20&#45;&gt;Node5 -->
<g id="edge29_Node000020_Node000005" class="edge">
<title>Node20&#45;&gt;Node5</title>
<g id="a_edge29_Node000020_Node000005"><a xlink:title=" ">
<path fill="none" stroke="#63b8ff" d="M1219.84,-393.29C1239.71,-433.47 1315.22,-586.15 1341.73,-639.76"/>
<polygon fill="#63b8ff" stroke="#63b8ff" points="1338.65,-641.42 1346.22,-648.83 1344.92,-638.31 1338.65,-641.42"/>
</a>
</g>
</g>
<!-- Node21 -->
<g id="Node000021" class="node">
<title>Node21</title>
<g id="a_Node000021"><a xlink:href="../../da/d5b/classBigInt.html#a6ae37e804e0989cb245f32f90a2d5f64" target="_top" xlink:title="判断是否为零">
<polygon fill="white" stroke="#666666" points="1395,-393 1309,-393 1309,-374 1395,-374 1395,-393"/>
<text text-anchor="middle" x="1352" y="-381" font-family="Helvetica,sans-Serif" font-size="10.00">BigInt::is_zero</text>
</a>
</g>
</g>
<!-- Node20&#45;&gt;Node21 -->
<g id="edge30_Node000020_Node000021" class="edge">
<title>Node20&#45;&gt;Node21</title>
<g id="a_edge30_Node000020_Node000021"><a xlink:title=" ">
<path fill="none" stroke="#63b8ff" d="M1248.27,-383.5C1263.38,-383.5 1281.61,-383.5 1298.5,-383.5"/>
<polygon fill="#63b8ff" stroke="#63b8ff" points="1298.8,-387 1308.8,-383.5 1298.8,-380 1298.8,-387"/>
</a>
</g>
</g>
<!-- Node22 -->
<g id="Node000022" class="node">
<title>Node22</title>
<g id="a_Node000022"><a xlink:href="../../da/d5b/classBigInt.html#a3b10bb8ac846314c6e4ad6167e5ec5bf" target="_top" xlink:title=" ">
<polygon fill="white" stroke="#666666" points="1402,-356 1302,-356 1302,-337 1402,-337 1402,-356"/>
<text text-anchor="middle" x="1352" y="-344" font-family="Helvetica,sans-Serif" font-size="10.00">BigInt::normalize</text>
</a>
</g>
</g>
<!-- Node20&#45;&gt;Node22 -->
<g id="edge31_Node000020_Node000022" class="edge">
<title>Node20&#45;&gt;Node22</title>
<g id="a_edge31_Node000020_Node000022"><a xlink:title=" ">
<path fill="none" stroke="#63b8ff" d="M1248.27,-374.45C1265.6,-369.73 1287.05,-363.9 1305.85,-358.78"/>
<polygon fill="#63b8ff" stroke="#63b8ff" points="1306.97,-362.11 1315.7,-356.1 1305.13,-355.35 1306.97,-362.11"/>
</a>
</g>
</g>
<!-- Node23 -->
<g id="Node000023" class="node">
<title>Node23</title>
<g id="a_Node000023"><a xlink:href="../../da/d5b/classBigInt.html#ad0b220e3ad54190c7cc069355f8d134d" target="_top" xlink:title=" ">
<polygon fill="white" stroke="#666666" points="1401.5,-430 1302.5,-430 1302.5,-411 1401.5,-411 1401.5,-430"/>
<text text-anchor="middle" x="1352" y="-418" font-family="Helvetica,sans-Serif" font-size="10.00">BigInt::realloc_to</text>
</a>
</g>
</g>
<!-- Node20&#45;&gt;Node23 -->
<g id="edge32_Node000020_Node000023" class="edge">
<title>Node20&#45;&gt;Node23</title>
<g id="a_edge32_Node000020_Node000023"><a xlink:title=" ">
<path fill="none" stroke="#63b8ff" d="M1248.27,-392.55C1265.6,-397.27 1287.05,-403.1 1305.85,-408.22"/>
<polygon fill="#63b8ff" stroke="#63b8ff" points="1305.13,-411.65 1315.7,-410.9 1306.97,-404.89 1305.13,-411.65"/>
</a>
</g>
</g>
<!-- Node24 -->
<g id="Node000024" class="node">
<title>Node24</title>
<g id="a_Node000024"><a xlink:href="../../d8/d09/bigint_8hpp.html#a9026e394fc1db1b74fe5802cac9d3793" target="_top" xlink:title="为 BigInt 分配内存">
<polygon fill="white" stroke="#666666" points="1511,-448 1438,-448 1438,-429 1511,-429 1511,-448"/>
<text text-anchor="middle" x="1474.5" y="-436" font-family="Helvetica,sans-Serif" font-size="10.00">bigint_alloc</text>
</a>
</g>
</g>
<!-- Node23&#45;&gt;Node24 -->
<g id="edge33_Node000023_Node000024" class="edge">
<title>Node23&#45;&gt;Node24</title>
<g id="a_edge33_Node000023_Node000024"><a xlink:title=" ">
<path fill="none" stroke="#63b8ff" d="M1401.66,-427.77C1410.4,-429.07 1419.47,-430.43 1428.1,-431.72"/>
<polygon fill="#63b8ff" stroke="#63b8ff" points="1427.59,-435.18 1437.99,-433.2 1428.62,-428.26 1427.59,-435.18"/>
</a>
</g>
</g>
<!-- Node25 -->
<g id="Node000025" class="node">
<title>Node25</title>
<g id="a_Node000025"><a xlink:href="../../d8/d09/bigint_8hpp.html#a6fd664dfe6c832ce148d818c5663fa93" target="_top" xlink:title="释放 BigInt 内部分配的内存">
<polygon fill="white" stroke="#666666" points="1509,-411 1440,-411 1440,-392 1509,-392 1509,-411"/>
<text text-anchor="middle" x="1474.5" y="-399" font-family="Helvetica,sans-Serif" font-size="10.00">bigint_free</text>
</a>
</g>
</g>
<!-- Node23&#45;&gt;Node25 -->
<g id="edge34_Node000023_Node000025" class="edge">
<title>Node23&#45;&gt;Node25</title>
<g id="a_edge34_Node000023_Node000025"><a xlink:title=" ">
<path fill="none" stroke="#63b8ff" d="M1401.66,-412.83C1410.97,-411.36 1420.65,-409.83 1429.79,-408.39"/>
<polygon fill="#63b8ff" stroke="#63b8ff" points="1430.48,-411.83 1439.82,-406.81 1429.39,-404.91 1430.48,-411.83"/>
</a>
</g>
</g>
<!-- Node26&#45;&gt;Node20 -->
<g id="edge38_Node000026_Node000020" class="edge">
<title>Node26&#45;&gt;Node20</title>
<g id="a_edge38_Node000026_Node000020"><a xlink:title=" ">
<path fill="none" stroke="#63b8ff" d="M810.27,-75.99C891.18,-66.06 1038.8,-61.31 1126,-139.5 1193.6,-200.12 1208.68,-316.88 1212.04,-363.53"/>
<polygon fill="#63b8ff" stroke="#63b8ff" points="1208.57,-364.03 1212.67,-373.8 1215.55,-363.61 1208.57,-364.03"/>
</a>
</g>
</g>
<!-- Node27&#45;&gt;Node8 -->
<g id="edge42_Node000027_Node000008" class="edge">
<title>Node27&#45;&gt;Node8</title>
<g id="a_edge42_Node000027_Node000008"><a xlink:title=" ">
<path fill="none" stroke="#63b8ff" d="M964.83,-305.56C979.88,-310.29 996.65,-315.57 1012.28,-320.49"/>
<polygon fill="#63b8ff" stroke="#63b8ff" points="1011.25,-323.83 1021.84,-323.5 1013.35,-317.16 1011.25,-323.83"/>
</a>
</g>
</g>
<!-- Node27&#45;&gt;Node12 -->
<g id="edge41_Node000027_Node000012" class="edge">
<title>Node27&#45;&gt;Node12</title>
<g id="a_edge41_Node000027_Node000012"><a xlink:title=" ">
<path fill="none" stroke="#63b8ff" d="M970.34,-275.46C981.95,-272.19 994.34,-268.69 1006.29,-265.32"/>
<polygon fill="#63b8ff" stroke="#63b8ff" points="1007.52,-268.61 1016.19,-262.53 1005.62,-261.88 1007.52,-268.61"/>
</a>
</g>
</g>
<!-- Node28&#45;&gt;Node8 -->
<g id="edge46_Node000028_Node000008" class="edge">
<title>Node28&#45;&gt;Node8</title>
<g id="a_edge46_Node000028_Node000008"><a xlink:title=" ">
<path fill="none" stroke="#63b8ff" d="M795.41,-181.53C842.06,-198.9 918.44,-229.84 979,-266.5 1003.13,-281.11 1028.03,-301.36 1045.59,-316.67"/>
<polygon fill="#63b8ff" stroke="#63b8ff" points="1043.3,-319.32 1053.11,-323.32 1047.93,-314.07 1043.3,-319.32"/>
</a>
</g>
</g>
<!-- Node28&#45;&gt;Node12 -->
<g id="edge45_Node000028_Node000012" class="edge">
<title>Node28&#45;&gt;Node12</title>
<g id="a_edge45_Node000028_Node000012"><a xlink:title=" ">
<path fill="none" stroke="#63b8ff" d="M807.76,-167.54C854.38,-169.83 922.57,-176.51 979,-195.5 1000.79,-202.83 1023.21,-215.67 1040.29,-226.76"/>
<polygon fill="#63b8ff" stroke="#63b8ff" points="1038.43,-229.73 1048.7,-232.35 1042.31,-223.9 1038.43,-229.73"/>
</a>
</g>
</g>
<!-- Node28&#45;&gt;Node18 -->
<g id="edge44_Node000028_Node000018" class="edge">
<title>Node28&#45;&gt;Node18</title>
<g id="a_edge44_Node000028_Node000018"><a xlink:title=" ">
<path fill="none" stroke="#63b8ff" d="M807.85,-153.63C821.51,-150.43 836.29,-146.96 850.38,-143.66"/>
<polygon fill="#63b8ff" stroke="#63b8ff" points="851.55,-146.98 860.49,-141.29 849.95,-140.16 851.55,-146.98"/>
</a>
</g>
</g>
<!-- Node30 -->
<g id="Node000030" class="node">
<title>Node30</title>
<g id="a_Node000030"><a xlink:href="../../d8/d1e/classlamina_1_1Polynomial.html#a61d0cc44fc869a818deca9c2653162ac" target="_top" xlink:title="伪除法（避免分数运算）">
<polygon fill="white" stroke="#666666" points="971.5,-353.5 860.5,-353.5 860.5,-323.5 971.5,-323.5 971.5,-353.5"/>
<text text-anchor="start" x="868.5" y="-341.5" font-family="Helvetica,sans-Serif" font-size="10.00">lamina::Polynomial</text>
<text text-anchor="middle" x="916" y="-330.5" font-family="Helvetica,sans-Serif" font-size="10.00">::pseudo_div_mod</text>
</a>
</g>
</g>
<!-- Node29&#45;&gt;Node30 -->
<g id="edge48_Node000029_Node000030" class="edge">
<title>Node29&#45;&gt;Node30</title>
<g id="a_edge48_Node000029_Node000030"><a xlink:title=" ">
<path fill="none" stroke="#63b8ff" d="M803.81,-305.56C819.95,-310.34 837.95,-315.67 854.68,-320.63"/>
<polygon fill="#63b8ff" stroke="#63b8ff" points="853.78,-324.01 864.37,-323.5 855.77,-317.3 853.78,-324.01"/>
</a>
</g>
</g>
<!-- Node30&#45;&gt;Node6 -->
<g id="edge49_Node000030_Node000006" class="edge">
<title>Node30&#45;&gt;Node6</title>
<g id="a_edge49_Node000030_Node000006"><a xlink:title=" ">
<path fill="none" stroke="#63b8ff" d="M963.33,-353.52C968.82,-356.13 974.18,-359.12 979,-362.5 1010.44,-384.57 1038.03,-419.84 1054.24,-443.09"/>
<polygon fill="#63b8ff" stroke="#63b8ff" points="1051.35,-445.07 1059.88,-451.36 1057.14,-441.13 1051.35,-445.07"/>
</a>
</g>
</g>
<!-- Node30&#45;&gt;Node8 -->
<g id="edge51_Node000030_Node000008" class="edge">
<title>Node30&#45;&gt;Node8</title>
<g id="a_edge51_Node000030_Node000008"><a xlink:title=" ">
<path fill="none" stroke="#63b8ff" d="M971.63,-338.5C982.42,-338.5 993.85,-338.5 1004.94,-338.5"/>
<polygon fill="#63b8ff" stroke="#63b8ff" points="1005,-342 1015,-338.5 1005,-335 1005,-342"/>
</a>
</g>
</g>
<!-- Node30&#45;&gt;Node10 -->
<g id="edge52_Node000030_Node000010" class="edge">
<title>Node30&#45;&gt;Node10</title>
<g id="a_edge52_Node000030_Node000010"><a xlink:title=" ">
<path fill="none" stroke="#63b8ff" d="M968.3,-353.63C972.25,-356.15 975.89,-359.08 979,-362.5 1018.75,-406.23 988.53,-437.66 1015,-490.5 1023.76,-507.99 1037.08,-525.44 1048.36,-538.67"/>
<polygon fill="#63b8ff" stroke="#63b8ff" points="1045.84,-541.11 1055.06,-546.32 1051.11,-536.49 1045.84,-541.11"/>
</a>
</g>
</g>
<!-- Node30&#45;&gt;Node12 -->
<g id="edge50_Node000030_Node000012" class="edge">
<title>Node30&#45;&gt;Node12</title>
<g id="a_edge50_Node000030_Node000012"><a xlink:title=" ">
<path fill="none" stroke="#63b8ff" d="M960.37,-323.43C966.75,-320.73 973.14,-317.73 979,-314.5 1002.4,-301.62 1026.6,-283.4 1044.09,-269.21"/>
<polygon fill="#63b8ff" stroke="#63b8ff" points="1046.6,-271.67 1052.09,-262.61 1042.15,-266.27 1046.6,-271.67"/>
</a>
</g>
</g>
<!-- Node31&#45;&gt;Node32 -->
<g id="edge55_Node000031_Node000032" class="edge">
<title>Node31&#45;&gt;Node32</title>
<g id="a_edge55_Node000031_Node000032"><a xlink:title=" ">
<path fill="none" stroke="#63b8ff" d="M242.67,-196.68C252.59,-167.46 285.83,-80.25 343,-33.5 348.02,-29.39 353.8,-25.96 359.82,-23.11"/>
<polygon fill="#63b8ff" stroke="#63b8ff" points="361.55,-26.18 369.41,-19.08 358.84,-19.73 361.55,-26.18"/>
</a>
</g>
</g>
<!-- Node33&#45;&gt;Node10 -->
<g id="edge65_Node000033_Node000010" class="edge">
<title>Node33&#45;&gt;Node10</title>
<g id="a_edge65_Node000033_Node000010"><a xlink:title=" ">
<path fill="none" stroke="#63b8ff" d="M796.21,-713.44C813.78,-707.41 834.32,-700.49 853,-694.5 908.7,-676.64 932.01,-691.33 979,-656.5 1002.17,-639.32 995.19,-623.47 1015,-602.5 1021.69,-595.42 1029.7,-588.66 1037.5,-582.74"/>
<polygon fill="#63b8ff" stroke="#63b8ff" points="1039.8,-585.4 1045.81,-576.67 1035.67,-579.74 1039.8,-585.4"/>
</a>
</g>
</g>
<!-- Node34 -->
<g id="Node000034" class="node">
<title>Node34</title>
<g id="a_Node000034"><a xlink:href="../../d1/d42/namespacelamina.html#a342ce4ec6e47ed8a0878bdf5e612b0fc" target="_top" xlink:title=" ">
<polygon fill="white" stroke="#666666" points="978.5,-733.5 853.5,-733.5 853.5,-703.5 978.5,-703.5 978.5,-733.5"/>
<text text-anchor="start" x="861.5" y="-721.5" font-family="Helvetica,sans-Serif" font-size="10.00">lamina::expr_has_free</text>
<text text-anchor="middle" x="916" y="-710.5" font-family="Helvetica,sans-Serif" font-size="10.00">_variables</text>
</a>
</g>
</g>
<!-- Node33&#45;&gt;Node34 -->
<g id="edge58_Node000033_Node000034" class="edge">
<title>Node33&#45;&gt;Node34</title>
<g id="a_edge58_Node000033_Node000034"><a xlink:title=" ">
<path fill="none" stroke="#63b8ff" d="M808.3,-725.09C819.5,-724.4 831.43,-723.66 843.11,-722.94"/>
<polygon fill="#63b8ff" stroke="#63b8ff" points="843.51,-726.42 853.28,-722.31 843.08,-719.43 843.51,-726.42"/>
</a>
</g>
</g>
<!-- Node35 -->
<g id="Node000035" class="node">
<title>Node35</title>
<g id="a_Node000035"><a xlink:href="../../d8/da7/classRational.html#ac7a93fda9943083585843c9bd56e3fce" target="_top" xlink:title="从 double 构造有理数">
<polygon fill="white" stroke="#666666" points="978.5,-771 853.5,-771 853.5,-752 978.5,-752 978.5,-771"/>
<text text-anchor="middle" x="916" y="-759" font-family="Helvetica,sans-Serif" font-size="10.00">Rational::from_double</text>
</a>
</g>
</g>
<!-- Node33&#45;&gt;Node35 -->
<g id="edge59_Node000033_Node000035" class="edge">
<title>Node33&#45;&gt;Node35</title>
<g id="a_edge59_Node000033_Node000035"><a xlink:title=" ">
<path fill="none" stroke="#63b8ff" d="M808.3,-739.76C824.47,-743.06 842.16,-746.66 858.41,-749.97"/>
<polygon fill="#63b8ff" stroke="#63b8ff" points="857.81,-753.42 868.31,-751.99 859.21,-746.56 857.81,-753.42"/>
</a>
</g>
</g>
<!-- Node36 -->
<g id="Node000036" class="node">
<title>Node36</title>
<g id="a_Node000036"><a xlink:href="../../d8/da7/classRational.html#a3bbd6ff67c590da76ddfcbd48cd3de0a" target="_top" xlink:title="默认构造，值为 0">
<polygon fill="white" stroke="#666666" points="1122.5,-720 1018.5,-720 1018.5,-701 1122.5,-701 1122.5,-720"/>
<text text-anchor="middle" x="1070.5" y="-708" font-family="Helvetica,sans-Serif" font-size="10.00">Rational::Rational</text>
</a>
</g>
</g>
<!-- Node35&#45;&gt;Node36 -->
<g id="edge60_Node000035_Node000036" class="edge">
<title>Node35&#45;&gt;Node36</title>
<g id="a_edge60_Node000035_Node000036"><a xlink:title=" ">
<path fill="none" stroke="#63b8ff" d="M949.27,-751.94C958.87,-749.01 969.39,-745.71 979,-742.5 995.14,-737.12 998.97,-735.19 1015,-729.5 1020.63,-727.5 1026.59,-725.41 1032.42,-723.37"/>
<polygon fill="#63b8ff" stroke="#63b8ff" points="1033.75,-726.61 1042.03,-720.01 1031.44,-720 1033.75,-726.61"/>
</a>
</g>
</g>
<!-- Node37 -->
<g id="Node000037" class="node">
<title>Node37</title>
<g id="a_Node000037"><a xlink:href="../../d8/da7/classRational.html#a3d410504846bf492103a5c2a8b53d7c6" target="_top" xlink:title=" ">
<polygon fill="white" stroke="#666666" points="1121.5,-757 1019.5,-757 1019.5,-738 1121.5,-738 1121.5,-757"/>
<text text-anchor="middle" x="1070.5" y="-745" font-family="Helvetica,sans-Serif" font-size="10.00">Rational::simplify</text>
</a>
</g>
</g>
<!-- Node35&#45;&gt;Node37 -->
<g id="edge61_Node000035_Node000037" class="edge">
<title>Node35&#45;&gt;Node37</title>
<g id="a_edge61_Node000035_Node000037"><a xlink:title=" ">
<path fill="none" stroke="#63b8ff" d="M978.59,-755.85C988.76,-754.91 999.29,-753.95 1009.42,-753.02"/>
<polygon fill="#63b8ff" stroke="#63b8ff" points="1009.75,-756.5 1019.38,-752.1 1009.11,-749.53 1009.75,-756.5"/>
</a>
</g>
</g>
<!-- Node37&#45;&gt;Node5 -->
<g id="edge62_Node000037_Node000005" class="edge">
<title>Node37&#45;&gt;Node5</title>
<g id="a_edge62_Node000037_Node000005"><a xlink:title=" ">
<path fill="none" stroke="#63b8ff" d="M1121.79,-750.49C1162.25,-751.06 1219.77,-747.67 1266,-728.5 1294.38,-716.73 1320.62,-692.15 1336.23,-675.49"/>
<polygon fill="#63b8ff" stroke="#63b8ff" points="1338.87,-677.79 1343,-668.03 1333.69,-673.08 1338.87,-677.79"/>
</a>
</g>
</g>
<!-- Node37&#45;&gt;Node20 -->
<g id="edge63_Node000037_Node000020" class="edge">
<title>Node37&#45;&gt;Node20</title>
<g id="a_edge63_Node000037_Node000020"><a xlink:title=" ">
<path fill="none" stroke="#63b8ff" d="M1114.79,-737.96C1118.96,-735.71 1122.81,-732.93 1126,-729.5 1148.92,-704.85 1195.65,-472.55 1209.23,-403.05"/>
<polygon fill="#63b8ff" stroke="#63b8ff" points="1212.7,-403.5 1211.17,-393.02 1205.83,-402.17 1212.7,-403.5"/>
</a>
</g>
</g>
<!-- Node38 -->
<g id="Node000038" class="node">
<title>Node38</title>
<g id="a_Node000038"><a xlink:href="../../da/d5b/classBigInt.html#ae5d874ccb625319e093bec91b29e5a24" target="_top" xlink:title="判断是否为负数">
<polygon fill="white" stroke="#666666" points="1266,-719 1162,-719 1162,-700 1266,-700 1266,-719"/>
<text text-anchor="middle" x="1214" y="-707" font-family="Helvetica,sans-Serif" font-size="10.00">BigInt::IsNegative</text>
</a>
</g>
</g>
<!-- Node37&#45;&gt;Node38 -->
<g id="edge64_Node000037_Node000038" class="edge">
<title>Node37&#45;&gt;Node38</title>
<g id="a_edge64_Node000037_Node000038"><a xlink:title=" ">
<path fill="none" stroke="#63b8ff" d="M1107.21,-737.91C1125.47,-733.01 1147.91,-726.98 1167.41,-721.74"/>
<polygon fill="#63b8ff" stroke="#63b8ff" points="1168.55,-725.06 1177.3,-719.09 1166.74,-718.3 1168.55,-725.06"/>
</a>
</g>
</g>
</g>
</svg>
