<?xml version="1.0" encoding="UTF-8" standalone="no"?>
<!DOCTYPE svg PUBLIC "-//W3C//DTD SVG 1.1//EN"
 "http://www.w3.org/Graphics/SVG/1.1/DTD/svg11.dtd">
<!-- Generated by graphviz version 2.43.0 (0)
 -->
<!-- Title: lamina::starts_with_at Pages: 1 -->
<svg width="612pt" height="59pt"
 viewBox="0.00 0.00 612.00 59.00" xmlns="http://www.w3.org/2000/svg" xmlns:xlink="http://www.w3.org/1999/xlink">
<g id="graph0" class="graph" transform="scale(1 1) rotate(0) translate(4 55)">
<title>lamina::starts_with_at</title>
<!-- Node1 -->
<g id="Node000001" class="node">
<title>Node1</title>
<g id="a_Node000001"><a xlink:title=" ">
<polygon fill="#999999" stroke="#666666" points="604,-45.5 479,-45.5 479,-26.5 604,-26.5 604,-45.5"/>
<text text-anchor="middle" x="541.5" y="-33.5" font-family="Helvetica,sans-Serif" font-size="10.00">lamina::starts_with_at</text>
</a>
</g>
</g>
<!-- Node2 -->
<g id="Node000002" class="node">
<title>Node2</title>
<g id="a_Node000002"><a xlink:href="../../de/d2c/classlamina_1_1IntervalUnion.html#a9e38024922cb0ecbd306a0d45859c64e" target="_top" xlink:title="从字符串解析区间并集">
<polygon fill="white" stroke="#666666" points="122,-51 0,-51 0,-21 122,-21 122,-51"/>
<text text-anchor="start" x="8" y="-39" font-family="Helvetica,sans-Serif" font-size="10.00">lamina::IntervalUnion</text>
<text text-anchor="middle" x="61" y="-28" font-family="Helvetica,sans-Serif" font-size="10.00">::parse</text>
</a>
</g>
</g>
<!-- Node1&#45;&gt;Node2 -->
<g id="edge1_Node000001_Node000002" class="edge">
<title>Node1&#45;&gt;Node2</title>
<g id="a_edge1_Node000001_Node000002"><a xlink:title=" ">
<path fill="none" stroke="#63b8ff" d="M468.75,-38.46C460.07,-38.68 451.34,-38.87 443,-39 316.35,-40.95 284.65,-40.98 158,-39 146.41,-38.82 134.04,-38.52 122.17,-38.17"/>
<polygon fill="#63b8ff" stroke="#63b8ff" points="468.97,-41.95 478.87,-38.18 468.78,-34.96 468.97,-41.95"/>
</a>
</g>
</g>
<!-- Node3 -->
<g id="Node000003" class="node">
<title>Node3</title>
<g id="a_Node000003"><a xlink:href="../../d1/d42/namespacelamina.html#a6624e8e6fb2172b11e699d068c92254f" target="_top" xlink:title=" ">
<polygon fill="white" stroke="#666666" points="443,-30 312,-30 312,0 443,0 443,-30"/>
<text text-anchor="start" x="320" y="-18" font-family="Helvetica,sans-Serif" font-size="10.00">lamina::parse_endpoint</text>
<text text-anchor="middle" x="377.5" y="-7" font-family="Helvetica,sans-Serif" font-size="10.00">_value</text>
</a>
</g>
</g>
<!-- Node1&#45;&gt;Node3 -->
<g id="edge2_Node000001_Node000003" class="edge">
<title>Node1&#45;&gt;Node3</title>
<g id="a_edge2_Node000001_Node000003"><a xlink:title=" ">
<path fill="none" stroke="#63b8ff" d="M468.87,-26.72C460.35,-25.61 451.69,-24.49 443.27,-23.4"/>
<polygon fill="#63b8ff" stroke="#63b8ff" points="468.43,-30.19 478.79,-28 469.33,-23.24 468.43,-30.19"/>
</a>
</g>
</g>
<!-- Node4 -->
<g id="Node000004" class="node">
<title>Node4</title>
<g id="a_Node000004"><a xlink:href="../../d1/d42/namespacelamina.html#af99671445987c4e92dd7a52c483aa70e" target="_top" xlink:title=" ">
<polygon fill="white" stroke="#666666" points="276,-30 158,-30 158,0 276,0 276,-30"/>
<text text-anchor="start" x="166" y="-18" font-family="Helvetica,sans-Serif" font-size="10.00">lamina::parse_single</text>
<text text-anchor="middle" x="217" y="-7" font-family="Helvetica,sans-Serif" font-size="10.00">_interval</text>
</a>
</g>
</g>
<!-- Node3&#45;&gt;Node4 -->
<g id="edge3_Node000003_Node000004" class="edge">
<title>Node3&#45;&gt;Node4</title>
<g id="a_edge3_Node000003_Node000004"><a xlink:title=" ">
<path fill="none" stroke="#63b8ff" d="M301.34,-15C292.89,-15 284.39,-15 276.21,-15"/>
<polygon fill="#63b8ff" stroke="#63b8ff" points="301.57,-18.5 311.57,-15 301.57,-11.5 301.57,-18.5"/>
</a>
</g>
</g>
<!-- Node4&#45;&gt;Node2 -->
<g id="edge4_Node000004_Node000002" class="edge">
<title>Node4&#45;&gt;Node2</title>
<g id="a_edge4_Node000004_Node000002"><a xlink:title=" ">
<path fill="none" stroke="#63b8ff" d="M147.81,-24.3C139.25,-25.47 130.53,-26.66 122.1,-27.8"/>
<polygon fill="#63b8ff" stroke="#63b8ff" points="148.34,-27.76 157.78,-22.94 147.4,-20.82 148.34,-27.76"/>
</a>
</g>
</g>
</g>
</svg>
