<?xml version="1.0" encoding="UTF-8" standalone="no"?>
<!DOCTYPE svg PUBLIC "-//W3C//DTD SVG 1.1//EN"
 "http://www.w3.org/Graphics/SVG/1.1/DTD/svg11.dtd">
<!-- Generated by graphviz version 2.43.0 (0)
 -->
<!-- Title: lamina::skew_lines_distance Pages: 1 -->
<svg width="439pt" height="233pt"
 viewBox="0.00 0.00 439.00 233.00" xmlns="http://www.w3.org/2000/svg" xmlns:xlink="http://www.w3.org/1999/xlink">
<g id="graph0" class="graph" transform="scale(1 1) rotate(0) translate(4 229)">
<title>lamina::skew_lines_distance</title>
<!-- Node1 -->
<g id="Node000001" class="node">
<title>Node1</title>
<g id="a_Node000001"><a xlink:title="计算两条异面直线之间的距离">
<polygon fill="#999999" stroke="#666666" points="110,-137.5 0,-137.5 0,-107.5 110,-107.5 110,-137.5"/>
<text text-anchor="start" x="8" y="-125.5" font-family="Helvetica,sans-Serif" font-size="10.00">lamina::skew_lines</text>
<text text-anchor="middle" x="55" y="-114.5" font-family="Helvetica,sans-Serif" font-size="10.00">_distance</text>
</a>
</g>
</g>
<!-- Node2 -->
<g id="Node000002" class="node">
<title>Node2</title>
<g id="a_Node000002"><a xlink:href="../../dc/d25/classSymbolicExpr.html#ac8782568f037f8055277e5d8b80ec6d6" target="_top" xlink:title="创建加法表达式。">
<polygon fill="white" stroke="#666666" points="419.5,-225 312.5,-225 312.5,-206 419.5,-206 419.5,-225"/>
<text text-anchor="middle" x="366" y="-213" font-family="Helvetica,sans-Serif" font-size="10.00">SymbolicExpr::add</text>
</a>
</g>
</g>
<!-- Node1&#45;&gt;Node2 -->
<g id="edge1_Node000001_Node000002" class="edge">
<title>Node1&#45;&gt;Node2</title>
<g id="a_edge1_Node000001_Node000002"><a xlink:title=" ">
<path fill="none" stroke="#63b8ff" d="M68.87,-137.54C84.92,-155.14 114.16,-183.51 146,-196.5 195.67,-216.76 256.81,-220.5 301.86,-219.75"/>
<polygon fill="#63b8ff" stroke="#63b8ff" points="302.17,-223.25 312.08,-219.5 302,-216.25 302.17,-223.25"/>
</a>
</g>
</g>
<!-- Node3 -->
<g id="Node000003" class="node">
<title>Node3</title>
<g id="a_Node000003"><a xlink:href="../../dc/d25/classSymbolicExpr.html#aea4c251b3fd9994c77fb8b26dae96d5f" target="_top" xlink:title="执行符号除法。">
<polygon fill="white" stroke="#666666" points="265,-132 146,-132 146,-113 265,-113 265,-132"/>
<text text-anchor="middle" x="205.5" y="-120" font-family="Helvetica,sans-Serif" font-size="10.00">SymbolicExpr::divide</text>
</a>
</g>
</g>
<!-- Node1&#45;&gt;Node3 -->
<g id="edge2_Node000001_Node000003" class="edge">
<title>Node1&#45;&gt;Node3</title>
<g id="a_edge2_Node000001_Node000003"><a xlink:title=" ">
<path fill="none" stroke="#63b8ff" d="M110.03,-122.5C118.44,-122.5 127.21,-122.5 135.89,-122.5"/>
<polygon fill="#63b8ff" stroke="#63b8ff" points="136,-126 146,-122.5 136,-119 136,-126"/>
</a>
</g>
</g>
<!-- Node4 -->
<g id="Node000004" class="node">
<title>Node4</title>
<g id="a_Node000004"><a xlink:href="../../dc/d25/classSymbolicExpr.html#ad03189fc8a4db7762f7c1ca890674bbc" target="_top" xlink:title="创建乘法表达式。">
<polygon fill="white" stroke="#666666" points="431,-76 301,-76 301,-57 431,-57 431,-76"/>
<text text-anchor="middle" x="366" y="-64" font-family="Helvetica,sans-Serif" font-size="10.00">SymbolicExpr::multiply</text>
</a>
</g>
</g>
<!-- Node1&#45;&gt;Node4 -->
<g id="edge6_Node000001_Node000004" class="edge">
<title>Node1&#45;&gt;Node4</title>
<g id="a_edge6_Node000001_Node000004"><a xlink:title=" ">
<path fill="none" stroke="#63b8ff" d="M73.5,-107.41C90.66,-93.7 118.22,-74.44 146,-66.5 192.87,-53.11 247.73,-53.13 290.82,-56.49"/>
<polygon fill="#63b8ff" stroke="#63b8ff" points="290.68,-59.99 300.94,-57.36 291.28,-53.02 290.68,-59.99"/>
</a>
</g>
</g>
<!-- Node5 -->
<g id="Node000005" class="node">
<title>Node5</title>
<g id="a_Node000005"><a xlink:href="../../dc/d25/classSymbolicExpr.html#adeb760bb6f4f28879108394537eca293" target="_top" xlink:title="创建整数数值表达式。">
<polygon fill="white" stroke="#666666" points="429.5,-169 302.5,-169 302.5,-150 429.5,-150 429.5,-169"/>
<text text-anchor="middle" x="366" y="-157" font-family="Helvetica,sans-Serif" font-size="10.00">SymbolicExpr::number</text>
</a>
</g>
</g>
<!-- Node1&#45;&gt;Node5 -->
<g id="edge7_Node000001_Node000005" class="edge">
<title>Node1&#45;&gt;Node5</title>
<g id="a_edge7_Node000001_Node000005"><a xlink:title=" ">
<path fill="none" stroke="#63b8ff" d="M73.5,-137.59C90.66,-151.3 118.22,-170.56 146,-178.5 206.43,-195.76 279.73,-182.96 324.34,-171.62"/>
<polygon fill="#63b8ff" stroke="#63b8ff" points="325.45,-174.95 334.23,-169.01 323.66,-168.18 325.45,-174.95"/>
</a>
</g>
</g>
<!-- Node7 -->
<g id="Node000007" class="node">
<title>Node7</title>
<g id="a_Node000007"><a xlink:href="../../dc/d25/classSymbolicExpr.html#a521dfd712070d4f40d313de79d3f637c" target="_top" xlink:title="创建平方根表达式，等价于 operand^(1/2)。">
<polygon fill="white" stroke="#666666" points="259.5,-95 151.5,-95 151.5,-76 259.5,-76 259.5,-95"/>
<text text-anchor="middle" x="205.5" y="-83" font-family="Helvetica,sans-Serif" font-size="10.00">SymbolicExpr::sqrt</text>
</a>
</g>
</g>
<!-- Node1&#45;&gt;Node7 -->
<g id="edge8_Node000001_Node000007" class="edge">
<title>Node1&#45;&gt;Node7</title>
<g id="a_edge8_Node000001_Node000007"><a xlink:title=" ">
<path fill="none" stroke="#63b8ff" d="M110.03,-109.04C125.13,-105.28 141.42,-101.22 156.17,-97.54"/>
<polygon fill="#63b8ff" stroke="#63b8ff" points="157.23,-100.88 166.09,-95.07 155.54,-94.09 157.23,-100.88"/>
</a>
</g>
</g>
<!-- Node8 -->
<g id="Node000008" class="node">
<title>Node8</title>
<g id="a_Node000008"><a xlink:href="../../d1/d42/namespacelamina.html#a6905577c746a90477edd0596f963c0d9" target="_top" xlink:title="计算两个三维符号向量的叉积">
<polygon fill="white" stroke="#666666" points="264.5,-169 146.5,-169 146.5,-150 264.5,-150 264.5,-169"/>
<text text-anchor="middle" x="205.5" y="-157" font-family="Helvetica,sans-Serif" font-size="10.00">lamina::vector_cross</text>
</a>
</g>
</g>
<!-- Node1&#45;&gt;Node8 -->
<g id="edge9_Node000001_Node000008" class="edge">
<title>Node1&#45;&gt;Node8</title>
<g id="a_edge9_Node000001_Node000008"><a xlink:title=" ">
<path fill="none" stroke="#63b8ff" d="M110.03,-135.96C125.13,-139.72 141.42,-143.78 156.17,-147.46"/>
<polygon fill="#63b8ff" stroke="#63b8ff" points="155.54,-150.91 166.09,-149.93 157.23,-144.12 155.54,-150.91"/>
</a>
</g>
</g>
<!-- Node9 -->
<g id="Node000009" class="node">
<title>Node9</title>
<g id="a_Node000009"><a xlink:href="../../d1/d42/namespacelamina.html#a0dcb9f60145879303ddb68f9063bbea5" target="_top" xlink:title="计算两个符号向量的点积">
<polygon fill="white" stroke="#666666" points="259.5,-19 151.5,-19 151.5,0 259.5,0 259.5,-19"/>
<text text-anchor="middle" x="205.5" y="-7" font-family="Helvetica,sans-Serif" font-size="10.00">lamina::vector_dot</text>
</a>
</g>
</g>
<!-- Node1&#45;&gt;Node9 -->
<g id="edge13_Node000001_Node000009" class="edge">
<title>Node1&#45;&gt;Node9</title>
<g id="a_edge13_Node000001_Node000009"><a xlink:title=" ">
<path fill="none" stroke="#63b8ff" d="M67.97,-107.45C83.99,-88.13 114.11,-54.6 146,-33.5 151.9,-29.59 158.55,-26.13 165.18,-23.14"/>
<polygon fill="#63b8ff" stroke="#63b8ff" points="166.95,-26.19 174.81,-19.09 164.23,-19.74 166.95,-26.19"/>
</a>
</g>
</g>
<!-- Node3&#45;&gt;Node4 -->
<g id="edge3_Node000003_Node000004" class="edge">
<title>Node3&#45;&gt;Node4</title>
<g id="a_edge3_Node000003_Node000004"><a xlink:title=" ">
<path fill="none" stroke="#63b8ff" d="M238.81,-112.97C247.36,-110.33 256.56,-107.4 265,-104.5 287.29,-96.85 312.05,-87.44 331.35,-79.91"/>
<polygon fill="#63b8ff" stroke="#63b8ff" points="332.88,-83.07 340.91,-76.16 330.32,-76.55 332.88,-83.07"/>
</a>
</g>
</g>
<!-- Node3&#45;&gt;Node5 -->
<g id="edge4_Node000003_Node000005" class="edge">
<title>Node3&#45;&gt;Node5</title>
<g id="a_edge4_Node000003_Node000005"><a xlink:title=" ">
<path fill="none" stroke="#63b8ff" d="M247.32,-132.03C267.67,-136.78 292.48,-142.57 314.06,-147.61"/>
<polygon fill="#63b8ff" stroke="#63b8ff" points="313.51,-151.07 324.05,-149.94 315.1,-144.26 313.51,-151.07"/>
</a>
</g>
</g>
<!-- Node6 -->
<g id="Node000006" class="node">
<title>Node6</title>
<g id="a_Node000006"><a xlink:href="../../dc/d25/classSymbolicExpr.html#ab03922681e30190ba7c73d2c1e58aa40" target="_top" xlink:title="创建幂运算表达式。">
<polygon fill="white" stroke="#666666" points="425.5,-132 306.5,-132 306.5,-113 425.5,-113 425.5,-132"/>
<text text-anchor="middle" x="366" y="-120" font-family="Helvetica,sans-Serif" font-size="10.00">SymbolicExpr::power</text>
</a>
</g>
</g>
<!-- Node3&#45;&gt;Node6 -->
<g id="edge5_Node000003_Node000006" class="edge">
<title>Node3&#45;&gt;Node6</title>
<g id="a_edge5_Node000003_Node000006"><a xlink:title=" ">
<path fill="none" stroke="#63b8ff" d="M265.07,-122.5C275.19,-122.5 285.79,-122.5 296.15,-122.5"/>
<polygon fill="#63b8ff" stroke="#63b8ff" points="296.41,-126 306.41,-122.5 296.41,-119 296.41,-126"/>
</a>
</g>
</g>
<!-- Node8&#45;&gt;Node2 -->
<g id="edge10_Node000008_Node000002" class="edge">
<title>Node8&#45;&gt;Node2</title>
<g id="a_edge10_Node000008_Node000002"><a xlink:title=" ">
<path fill="none" stroke="#63b8ff" d="M233.75,-169.13C259.88,-178.36 299.5,-192.36 328.38,-202.56"/>
<polygon fill="#63b8ff" stroke="#63b8ff" points="327.51,-205.97 338.11,-206 329.85,-199.37 327.51,-205.97"/>
</a>
</g>
</g>
<!-- Node8&#45;&gt;Node4 -->
<g id="edge11_Node000008_Node000004" class="edge">
<title>Node8&#45;&gt;Node4</title>
<g id="a_edge11_Node000008_Node000004"><a xlink:title=" ">
<path fill="none" stroke="#63b8ff" d="M246.99,-149.96C253.25,-147.67 259.47,-144.88 265,-141.5 284.57,-129.53 282.98,-118.7 301,-104.5 312.13,-95.73 325.47,-87.5 337.09,-80.95"/>
<polygon fill="#63b8ff" stroke="#63b8ff" points="338.87,-83.97 345.95,-76.09 335.5,-77.83 338.87,-83.97"/>
</a>
</g>
</g>
<!-- Node8&#45;&gt;Node5 -->
<g id="edge12_Node000008_Node000005" class="edge">
<title>Node8&#45;&gt;Node5</title>
<g id="a_edge12_Node000008_Node000005"><a xlink:title=" ">
<path fill="none" stroke="#63b8ff" d="M264.62,-159.5C273.64,-159.5 283.05,-159.5 292.34,-159.5"/>
<polygon fill="#63b8ff" stroke="#63b8ff" points="292.35,-163 302.35,-159.5 292.35,-156 292.35,-163"/>
</a>
</g>
</g>
<!-- Node9&#45;&gt;Node4 -->
<g id="edge14_Node000009_Node000004" class="edge">
<title>Node9&#45;&gt;Node4</title>
<g id="a_edge14_Node000009_Node000004"><a xlink:title=" ">
<path fill="none" stroke="#63b8ff" d="M233.03,-19.04C259.32,-28.49 299.77,-43.04 328.95,-53.54"/>
<polygon fill="#63b8ff" stroke="#63b8ff" points="327.79,-56.84 338.38,-56.93 330.16,-50.25 327.79,-56.84"/>
</a>
</g>
</g>
</g>
</svg>
