<?xml version="1.0" encoding="UTF-8" standalone="no"?>
<!DOCTYPE svg PUBLIC "-//W3C//DTD SVG 1.1//EN"
 "http://www.w3.org/Graphics/SVG/1.1/DTD/svg11.dtd">
<!-- Generated by graphviz version 2.43.0 (0)
 -->
<!-- Title: lamina::solve_quartic Pages: 1 -->
<svg width="967pt" height="940pt"
 viewBox="0.00 0.00 967.00 940.00" xmlns="http://www.w3.org/2000/svg" xmlns:xlink="http://www.w3.org/1999/xlink">
<g id="graph0" class="graph" transform="scale(1 1) rotate(0) translate(4 936)">
<title>lamina::solve_quartic</title>
<!-- Node1 -->
<g id="Node000001" class="node">
<title>Node1</title>
<g id="a_Node000001"><a xlink:title="使用四次公式求解四次方程 ax⁴ + bx³ + cx² + dx + e = 0。">
<polygon fill="#999999" stroke="#666666" points="122,-470.5 0,-470.5 0,-451.5 122,-451.5 122,-470.5"/>
<text text-anchor="middle" x="61" y="-458.5" font-family="Helvetica,sans-Serif" font-size="10.00">lamina::solve_quartic</text>
</a>
</g>
</g>
<!-- Node2 -->
<g id="Node000002" class="node">
<title>Node2</title>
<g id="a_Node000002"><a xlink:href="../../dc/d25/classSymbolicExpr.html#ac8782568f037f8055277e5d8b80ec6d6" target="_top" xlink:title="创建加法表达式。">
<polygon fill="white" stroke="#666666" points="787,-608.5 680,-608.5 680,-589.5 787,-589.5 787,-608.5"/>
<text text-anchor="middle" x="733.5" y="-596.5" font-family="Helvetica,sans-Serif" font-size="10.00">SymbolicExpr::add</text>
</a>
</g>
</g>
<!-- Node1&#45;&gt;Node2 -->
<g id="edge1_Node000001_Node000002" class="edge">
<title>Node1&#45;&gt;Node2</title>
<g id="a_edge1_Node000001_Node000002"><a xlink:title=" ">
<path fill="none" stroke="#63b8ff" d="M63.82,-470.66C70.56,-504.01 96.91,-615.96 158,-683 219.09,-750.04 249.65,-756.6 337,-781 465.89,-817.01 529.96,-867.97 638,-789 680.55,-757.9 649.7,-722.78 674,-676 685.51,-653.83 703.41,-631.42 716.37,-616.54"/>
<polygon fill="#63b8ff" stroke="#63b8ff" points="719.31,-618.5 723.35,-608.7 714.09,-613.84 719.31,-618.5"/>
</a>
</g>
</g>
<!-- Node3 -->
<g id="Node000003" class="node">
<title>Node3</title>
<g id="a_Node000003"><a xlink:href="../../dc/d25/classSymbolicExpr.html#aea4c251b3fd9994c77fb8b26dae96d5f" target="_top" xlink:title="执行符号除法。">
<polygon fill="white" stroke="#666666" points="638,-779.5 519,-779.5 519,-760.5 638,-760.5 638,-779.5"/>
<text text-anchor="middle" x="578.5" y="-767.5" font-family="Helvetica,sans-Serif" font-size="10.00">SymbolicExpr::divide</text>
</a>
</g>
</g>
<!-- Node1&#45;&gt;Node3 -->
<g id="edge2_Node000001_Node000003" class="edge">
<title>Node1&#45;&gt;Node3</title>
<g id="a_edge2_Node000001_Node000003"><a xlink:title=" ">
<path fill="none" stroke="#63b8ff" d="M67.18,-470.5C91.05,-513.22 195.39,-688.24 337,-755 390.72,-780.33 458.82,-782.18 508.83,-778.8"/>
<polygon fill="#63b8ff" stroke="#63b8ff" points="509.2,-782.28 518.9,-778.03 508.66,-775.3 509.2,-782.28"/>
</a>
</g>
</g>
<!-- Node4 -->
<g id="Node000004" class="node">
<title>Node4</title>
<g id="a_Node000004"><a xlink:href="../../dc/d25/classSymbolicExpr.html#ad03189fc8a4db7762f7c1ca890674bbc" target="_top" xlink:title="创建乘法表达式。">
<polygon fill="white" stroke="#666666" points="959,-779.5 829,-779.5 829,-760.5 959,-760.5 959,-779.5"/>
<text text-anchor="middle" x="894" y="-767.5" font-family="Helvetica,sans-Serif" font-size="10.00">SymbolicExpr::multiply</text>
</a>
</g>
</g>
<!-- Node1&#45;&gt;Node4 -->
<g id="edge7_Node000001_Node000004" class="edge">
<title>Node1&#45;&gt;Node4</title>
<g id="a_edge7_Node000001_Node000004"><a xlink:title=" ">
<path fill="none" stroke="#63b8ff" d="M62.3,-470.74C64.09,-513.16 76.3,-684.4 158,-788 237.64,-888.99 280.39,-932 409,-932 409,-932 409,-932 579.5,-932 705.23,-932 830.85,-827.89 875.73,-786.59"/>
<polygon fill="#63b8ff" stroke="#63b8ff" points="878.24,-789.04 883.16,-779.65 873.46,-783.92 878.24,-789.04"/>
</a>
</g>
</g>
<!-- Node5 -->
<g id="Node000005" class="node">
<title>Node5</title>
<g id="a_Node000005"><a xlink:href="../../dc/d25/classSymbolicExpr.html#adeb760bb6f4f28879108394537eca293" target="_top" xlink:title="创建整数数值表达式。">
<polygon fill="white" stroke="#666666" points="957.5,-361.5 830.5,-361.5 830.5,-342.5 957.5,-342.5 957.5,-361.5"/>
<text text-anchor="middle" x="894" y="-349.5" font-family="Helvetica,sans-Serif" font-size="10.00">SymbolicExpr::number</text>
</a>
</g>
</g>
<!-- Node1&#45;&gt;Node5 -->
<g id="edge13_Node000001_Node000005" class="edge">
<title>Node1&#45;&gt;Node5</title>
<g id="a_edge13_Node000001_Node000005"><a xlink:title=" ">
<path fill="none" stroke="#63b8ff" d="M61.62,-451.2C60.39,-405.3 61.15,-209.14 158,-100 237.7,-10.18 288.92,0 409,0 409,0 409,0 579.5,0 691.77,0 719.02,-50.55 793,-135 846.83,-196.45 877.02,-291.78 888.08,-332.49"/>
<polygon fill="#63b8ff" stroke="#63b8ff" points="884.72,-333.47 890.65,-342.25 891.49,-331.69 884.72,-333.47"/>
</a>
</g>
</g>
<!-- Node6 -->
<g id="Node000006" class="node">
<title>Node6</title>
<g id="a_Node000006"><a xlink:href="../../dc/d25/classSymbolicExpr.html#ab03922681e30190ba7c73d2c1e58aa40" target="_top" xlink:title="创建幂运算表达式。">
<polygon fill="white" stroke="#666666" points="793,-703.5 674,-703.5 674,-684.5 793,-684.5 793,-703.5"/>
<text text-anchor="middle" x="733.5" y="-691.5" font-family="Helvetica,sans-Serif" font-size="10.00">SymbolicExpr::power</text>
</a>
</g>
</g>
<!-- Node1&#45;&gt;Node6 -->
<g id="edge14_Node000001_Node000006" class="edge">
<title>Node1&#45;&gt;Node6</title>
<g id="a_edge14_Node000001_Node000006"><a xlink:title=" ">
<path fill="none" stroke="#63b8ff" d="M62.57,-470.57C65.4,-509.38 81,-657.01 158,-740 216.9,-803.49 252.48,-798.13 337,-817 467.59,-846.15 518.66,-883.51 638,-823 683.85,-799.75 712.81,-742.64 725.33,-712.82"/>
<polygon fill="#63b8ff" stroke="#63b8ff" points="728.59,-714.1 729.07,-703.51 722.1,-711.49 728.59,-714.1"/>
</a>
</g>
</g>
<!-- Node7 -->
<g id="Node000007" class="node">
<title>Node7</title>
<g id="a_Node000007"><a xlink:href="../../d1/d42/namespacelamina.html#a4d22c9d513f3c1465ce68099089dfa0d" target="_top" xlink:title=" ">
<polygon fill="white" stroke="#666666" points="483,-199.5 337,-199.5 337,-180.5 483,-180.5 483,-199.5"/>
<text text-anchor="middle" x="410" y="-187.5" font-family="Helvetica,sans-Serif" font-size="10.00">lamina::is_purely_numeric</text>
</a>
</g>
</g>
<!-- Node1&#45;&gt;Node7 -->
<g id="edge6_Node000001_Node000007" class="edge">
<title>Node1&#45;&gt;Node7</title>
<g id="a_edge6_Node000001_Node000007"><a xlink:title=" ">
<path fill="none" stroke="#63b8ff" d="M63.43,-451.31C68.89,-417.97 91.55,-306.98 158,-252 205.19,-212.96 273.39,-197.92 326.79,-192.39"/>
<polygon fill="#63b8ff" stroke="#63b8ff" points="327.29,-195.86 336.92,-191.44 326.64,-188.89 327.29,-195.86"/>
</a>
</g>
</g>
<!-- Node8 -->
<g id="Node000008" class="node">
<title>Node8</title>
<g id="a_Node000008"><a xlink:href="../../d1/d42/namespacelamina.html#a547ba21cbbce3cfa9cb807bbeb724b02" target="_top" xlink:title=" ">
<polygon fill="white" stroke="#666666" points="778.5,-456.5 688.5,-456.5 688.5,-437.5 778.5,-437.5 778.5,-456.5"/>
<text text-anchor="middle" x="733.5" y="-444.5" font-family="Helvetica,sans-Serif" font-size="10.00">lamina::negate</text>
</a>
</g>
</g>
<!-- Node1&#45;&gt;Node8 -->
<g id="edge8_Node000001_Node000008" class="edge">
<title>Node1&#45;&gt;Node8</title>
<g id="a_edge8_Node000001_Node000008"><a xlink:title=" ">
<path fill="none" stroke="#63b8ff" d="M68.88,-451.32C83.07,-432.22 117.65,-389.88 158,-371 304.08,-302.64 357.85,-340.63 519,-334 571.84,-331.83 590.08,-311.61 638,-334 679.71,-353.49 709.48,-401.44 723.49,-428.19"/>
<polygon fill="#63b8ff" stroke="#63b8ff" points="720.45,-429.94 728.07,-437.3 726.7,-426.8 720.45,-429.94"/>
</a>
</g>
</g>
<!-- Node9 -->
<g id="Node000009" class="node">
<title>Node9</title>
<g id="a_Node000009"><a xlink:href="../../d1/d42/namespacelamina.html#a78a46efcff5ce7151a74984c5381cd71" target="_top" xlink:title=" ">
<polygon fill="white" stroke="#666666" points="617.5,-362.5 539.5,-362.5 539.5,-343.5 617.5,-343.5 617.5,-362.5"/>
<text text-anchor="middle" x="578.5" y="-350.5" font-family="Helvetica,sans-Serif" font-size="10.00">lamina::num</text>
</a>
</g>
</g>
<!-- Node1&#45;&gt;Node9 -->
<g id="edge11_Node000001_Node000009" class="edge">
<title>Node1&#45;&gt;Node9</title>
<g id="a_edge11_Node000001_Node000009"><a xlink:title=" ">
<path fill="none" stroke="#63b8ff" d="M83.18,-451.39C128.58,-431.3 239.1,-385.16 337,-366 402.57,-353.17 479.97,-351.29 528.9,-351.69"/>
<polygon fill="#63b8ff" stroke="#63b8ff" points="529.15,-355.19 539.19,-351.81 529.23,-348.19 529.15,-355.19"/>
</a>
</g>
</g>
<!-- Node10 -->
<g id="Node000010" class="node">
<title>Node10</title>
<g id="a_Node000010"><a xlink:href="../../d1/d42/namespacelamina.html#ab54c96a09e3e36cc3aa6b15bc9e90803" target="_top" xlink:title="求解双二次方程 ax⁴ + bx² + c = 0。">
<polygon fill="white" stroke="#666666" points="301,-171.5 158,-171.5 158,-152.5 301,-152.5 301,-171.5"/>
<text text-anchor="middle" x="229.5" y="-159.5" font-family="Helvetica,sans-Serif" font-size="10.00">lamina::solve_biquadratic</text>
</a>
</g>
</g>
<!-- Node1&#45;&gt;Node10 -->
<g id="edge15_Node000001_Node000010" class="edge">
<title>Node1&#45;&gt;Node10</title>
<g id="a_edge15_Node000001_Node000010"><a xlink:title=" ">
<path fill="none" stroke="#63b8ff" d="M63.36,-451.02C68.81,-414.31 92.06,-284.74 158,-205 168,-192.91 182.33,-183.3 195.47,-176.25"/>
<polygon fill="#63b8ff" stroke="#63b8ff" points="197.39,-179.21 204.74,-171.58 194.24,-172.96 197.39,-179.21"/>
</a>
</g>
</g>
<!-- Node11 -->
<g id="Node000011" class="node">
<title>Node11</title>
<g id="a_Node000011"><a xlink:href="../../d1/d42/namespacelamina.html#a0a882c5382e9e03230d59990c2e159e8" target="_top" xlink:title=" ">
<polygon fill="white" stroke="#666666" points="477,-514 343,-514 343,-484 477,-484 477,-514"/>
<text text-anchor="start" x="351" y="-502" font-family="Helvetica,sans-Serif" font-size="10.00">lamina::solve_quadratic</text>
<text text-anchor="middle" x="410" y="-491" font-family="Helvetica,sans-Serif" font-size="10.00">_internal</text>
</a>
</g>
</g>
<!-- Node1&#45;&gt;Node11 -->
<g id="edge49_Node000001_Node000011" class="edge">
<title>Node1&#45;&gt;Node11</title>
<g id="a_edge49_Node000001_Node000011"><a xlink:title=" ">
<path fill="none" stroke="#63b8ff" d="M107.26,-470.51C123.23,-473.59 141.36,-476.78 158,-479 216.38,-486.78 282.82,-491.91 332.68,-495.02"/>
<polygon fill="#63b8ff" stroke="#63b8ff" points="332.54,-498.52 342.74,-495.64 332.97,-491.53 332.54,-498.52"/>
</a>
</g>
</g>
<!-- Node12 -->
<g id="Node000012" class="node">
<title>Node12</title>
<g id="a_Node000012"><a xlink:href="../../dc/d25/classSymbolicExpr.html#a521dfd712070d4f40d313de79d3f637c" target="_top" xlink:title="创建平方根表达式，等价于 operand^(1/2)。">
<polygon fill="white" stroke="#666666" points="632.5,-199.5 524.5,-199.5 524.5,-180.5 632.5,-180.5 632.5,-199.5"/>
<text text-anchor="middle" x="578.5" y="-187.5" font-family="Helvetica,sans-Serif" font-size="10.00">SymbolicExpr::sqrt</text>
</a>
</g>
</g>
<!-- Node1&#45;&gt;Node12 -->
<g id="edge50_Node000001_Node000012" class="edge">
<title>Node1&#45;&gt;Node12</title>
<g id="a_edge50_Node000001_Node000012"><a xlink:title=" ">
<path fill="none" stroke="#63b8ff" d="M63.39,-451.18C70.61,-401.88 105.45,-182.03 158,-143 279.94,-52.44 479.39,-139.32 550.92,-175.69"/>
<polygon fill="#63b8ff" stroke="#63b8ff" points="549.66,-178.97 560.15,-180.46 552.87,-172.75 549.66,-178.97"/>
</a>
</g>
</g>
<!-- Node13 -->
<g id="Node000013" class="node">
<title>Node13</title>
<g id="a_Node000013"><a xlink:href="../../d1/d42/namespacelamina.html#a35a6950e18d584eaf59a0cf11e790e59" target="_top" xlink:title=" ">
<polygon fill="white" stroke="#666666" points="615.5,-589.5 541.5,-589.5 541.5,-570.5 615.5,-570.5 615.5,-589.5"/>
<text text-anchor="middle" x="578.5" y="-577.5" font-family="Helvetica,sans-Serif" font-size="10.00">lamina::sub</text>
</a>
</g>
</g>
<!-- Node1&#45;&gt;Node13 -->
<g id="edge51_Node000001_Node000013" class="edge">
<title>Node1&#45;&gt;Node13</title>
<g id="a_edge51_Node000001_Node000013"><a xlink:title=" ">
<path fill="none" stroke="#63b8ff" d="M84.32,-470.6C103.67,-478.8 132.48,-490.7 158,-500 236.57,-528.65 255.08,-541.2 337,-558 403.58,-571.66 482.27,-576.84 531.04,-578.8"/>
<polygon fill="#63b8ff" stroke="#63b8ff" points="531.16,-582.31 541.28,-579.19 531.42,-575.31 531.16,-582.31"/>
</a>
</g>
</g>
<!-- Node14 -->
<g id="Node000014" class="node">
<title>Node14</title>
<g id="a_Node000014"><a xlink:href="../../d1/d42/namespacelamina.html#a6905556da3efb2c2544e5c27757789cd" target="_top" xlink:title="使用三次公式求解三次方程 ax³ + bx² + cx + d = 0。">
<polygon fill="white" stroke="#666666" points="286,-470.5 173,-470.5 173,-451.5 286,-451.5 286,-470.5"/>
<text text-anchor="middle" x="229.5" y="-458.5" font-family="Helvetica,sans-Serif" font-size="10.00">lamina::solve_cubic</text>
</a>
</g>
</g>
<!-- Node1&#45;&gt;Node14 -->
<g id="edge31_Node000001_Node000014" class="edge">
<title>Node1&#45;&gt;Node14</title>
<g id="a_edge31_Node000001_Node000014"><a xlink:title=" ">
<path fill="none" stroke="#63b8ff" d="M122.11,-461C135.32,-461 149.38,-461 162.8,-461"/>
<polygon fill="#63b8ff" stroke="#63b8ff" points="162.91,-464.5 172.91,-461 162.91,-457.5 162.91,-464.5"/>
</a>
</g>
</g>
<!-- Node3&#45;&gt;Node4 -->
<g id="edge3_Node000003_Node000004" class="edge">
<title>Node3&#45;&gt;Node4</title>
<g id="a_edge3_Node000003_Node000004"><a xlink:title=" ">
<path fill="none" stroke="#63b8ff" d="M638.1,-770C689.15,-770 763.45,-770 818.67,-770"/>
<polygon fill="#63b8ff" stroke="#63b8ff" points="818.75,-773.5 828.75,-770 818.75,-766.5 818.75,-773.5"/>
</a>
</g>
</g>
<!-- Node3&#45;&gt;Node5 -->
<g id="edge4_Node000003_Node000005" class="edge">
<title>Node3&#45;&gt;Node5</title>
<g id="a_edge4_Node000003_Node000005"><a xlink:title=" ">
<path fill="none" stroke="#63b8ff" d="M638.45,-769.57C686.29,-766.02 752.26,-753.37 793,-713 842.9,-663.57 879.79,-440.54 890.09,-372.06"/>
<polygon fill="#63b8ff" stroke="#63b8ff" points="893.61,-372.2 891.61,-361.79 886.69,-371.17 893.61,-372.2"/>
</a>
</g>
</g>
<!-- Node3&#45;&gt;Node6 -->
<g id="edge5_Node000003_Node000006" class="edge">
<title>Node3&#45;&gt;Node6</title>
<g id="a_edge5_Node000003_Node000006"><a xlink:title=" ">
<path fill="none" stroke="#63b8ff" d="M607.02,-760.49C617.06,-756.56 628.31,-751.61 638,-746 655.54,-735.84 656.46,-728.16 674,-718 680.66,-714.14 688.06,-710.59 695.3,-707.48"/>
<polygon fill="#63b8ff" stroke="#63b8ff" points="697.05,-710.54 704.98,-703.51 694.4,-704.07 697.05,-710.54"/>
</a>
</g>
</g>
<!-- Node8&#45;&gt;Node4 -->
<g id="edge9_Node000008_Node000004" class="edge">
<title>Node8&#45;&gt;Node4</title>
<g id="a_edge9_Node000008_Node000004"><a xlink:title=" ">
<path fill="none" stroke="#63b8ff" d="M752.88,-456.61C765.72,-464.15 782.39,-475.74 793,-490 855.78,-574.33 881.96,-701.71 890.04,-750.26"/>
<polygon fill="#63b8ff" stroke="#63b8ff" points="886.62,-751.02 891.65,-760.35 893.53,-749.92 886.62,-751.02"/>
</a>
</g>
</g>
<!-- Node8&#45;&gt;Node5 -->
<g id="edge10_Node000008_Node000005" class="edge">
<title>Node8&#45;&gt;Node5</title>
<g id="a_edge10_Node000008_Node000005"><a xlink:title=" ">
<path fill="none" stroke="#63b8ff" d="M750.57,-437.37C778.22,-420.8 834.99,-386.77 867.89,-367.05"/>
<polygon fill="#63b8ff" stroke="#63b8ff" points="870.11,-369.8 876.89,-361.66 866.51,-363.8 870.11,-369.8"/>
</a>
</g>
</g>
<!-- Node9&#45;&gt;Node5 -->
<g id="edge12_Node000009_Node000005" class="edge">
<title>Node9&#45;&gt;Node5</title>
<g id="a_edge12_Node000009_Node000005"><a xlink:title=" ">
<path fill="none" stroke="#63b8ff" d="M617.63,-352.88C667.71,-352.72 756.7,-352.43 819.95,-352.23"/>
<polygon fill="#63b8ff" stroke="#63b8ff" points="820.28,-355.73 830.27,-352.2 820.26,-348.73 820.28,-355.73"/>
</a>
</g>
</g>
<!-- Node10&#45;&gt;Node5 -->
<g id="edge18_Node000010_Node000005" class="edge">
<title>Node10&#45;&gt;Node5</title>
<g id="a_edge18_Node000010_Node000005"><a xlink:title=" ">
<path fill="none" stroke="#63b8ff" d="M246.77,-152.46C267.08,-141.15 303.27,-122.97 337,-116 468.03,-88.91 513.96,-70.86 638,-121 751.73,-166.97 847.08,-287.83 880.36,-333.85"/>
<polygon fill="#63b8ff" stroke="#63b8ff" points="877.69,-336.13 886.34,-342.25 883.39,-332.07 877.69,-336.13"/>
</a>
</g>
</g>
<!-- Node10&#45;&gt;Node7 -->
<g id="edge16_Node000010_Node000007" class="edge">
<title>Node10&#45;&gt;Node7</title>
<g id="a_edge16_Node000010_Node000007"><a xlink:title=" ">
<path fill="none" stroke="#63b8ff" d="M291.43,-171.56C306.51,-173.92 322.79,-176.48 338.29,-178.91"/>
<polygon fill="#63b8ff" stroke="#63b8ff" points="337.92,-182.39 348.34,-180.49 339.01,-175.48 337.92,-182.39"/>
</a>
</g>
</g>
<!-- Node10&#45;&gt;Node8 -->
<g id="edge17_Node000010_Node000008" class="edge">
<title>Node10&#45;&gt;Node8</title>
<g id="a_edge17_Node000010_Node000008"><a xlink:title=" ">
<path fill="none" stroke="#63b8ff" d="M258.66,-152.43C330.53,-129.95 523.18,-82.05 638,-171 720.64,-235.02 731.45,-375.21 732.54,-427.13"/>
<polygon fill="#63b8ff" stroke="#63b8ff" points="729.04,-427.37 732.65,-437.33 736.04,-427.3 729.04,-427.37"/>
</a>
</g>
</g>
<!-- Node10&#45;&gt;Node11 -->
<g id="edge19_Node000010_Node000011" class="edge">
<title>Node10&#45;&gt;Node11</title>
<g id="a_edge19_Node000010_Node000011"><a xlink:title=" ">
<path fill="none" stroke="#63b8ff" d="M235.65,-171.72C259.57,-216.88 360.17,-406.81 396.14,-474.72"/>
<polygon fill="#63b8ff" stroke="#63b8ff" points="393.19,-476.63 400.96,-483.83 399.38,-473.35 393.19,-476.63"/>
</a>
</g>
</g>
<!-- Node10&#45;&gt;Node12 -->
<g id="edge30_Node000010_Node000012" class="edge">
<title>Node10&#45;&gt;Node12</title>
<g id="a_edge30_Node000010_Node000012"><a xlink:title=" ">
<path fill="none" stroke="#63b8ff" d="M301.21,-161.45C351.96,-161.8 421.9,-163.82 483,-171 497.44,-172.7 512.97,-175.43 527.18,-178.3"/>
<polygon fill="#63b8ff" stroke="#63b8ff" points="526.76,-181.79 537.26,-180.41 528.19,-174.94 526.76,-181.79"/>
</a>
</g>
</g>
<!-- Node11&#45;&gt;Node2 -->
<g id="edge20_Node000011_Node000002" class="edge">
<title>Node11&#45;&gt;Node2</title>
<g id="a_edge20_Node000011_Node000002"><a xlink:title=" ">
<path fill="none" stroke="#63b8ff" d="M473.73,-514.05C519.64,-525.57 583.21,-542.57 638,-561 659.45,-568.22 683.08,-577.72 701.34,-585.41"/>
<polygon fill="#63b8ff" stroke="#63b8ff" points="700.05,-588.67 710.62,-589.36 702.79,-582.23 700.05,-588.67"/>
</a>
</g>
</g>
<!-- Node11&#45;&gt;Node3 -->
<g id="edge21_Node000011_Node000003" class="edge">
<title>Node11&#45;&gt;Node3</title>
<g id="a_edge21_Node000011_Node000003"><a xlink:title=" ">
<path fill="none" stroke="#63b8ff" d="M420.43,-514.35C449.12,-561.05 535.31,-701.34 566.27,-751.73"/>
<polygon fill="#63b8ff" stroke="#63b8ff" points="563.32,-753.61 571.54,-760.3 569.29,-749.95 563.32,-753.61"/>
</a>
</g>
</g>
<!-- Node11&#45;&gt;Node4 -->
<g id="edge22_Node000011_Node000004" class="edge">
<title>Node11&#45;&gt;Node4</title>
<g id="a_edge22_Node000011_Node000004"><a xlink:title=" ">
<path fill="none" stroke="#63b8ff" d="M477.27,-494.84C560.98,-493.29 704.74,-503.41 793,-581 847.05,-628.51 876.59,-712.45 887.74,-750.4"/>
<polygon fill="#63b8ff" stroke="#63b8ff" points="884.42,-751.54 890.51,-760.21 891.16,-749.64 884.42,-751.54"/>
</a>
</g>
</g>
<!-- Node11&#45;&gt;Node6 -->
<g id="edge25_Node000011_Node000006" class="edge">
<title>Node11&#45;&gt;Node6</title>
<g id="a_edge25_Node000011_Node000006"><a xlink:title=" ">
<path fill="none" stroke="#63b8ff" d="M424.39,-514.22C443.64,-535.4 481.02,-573.97 519,-599 575.68,-636.37 649.49,-665.47 693.81,-681.15"/>
<polygon fill="#63b8ff" stroke="#63b8ff" points="692.75,-684.49 703.34,-684.48 695.05,-677.88 692.75,-684.49"/>
</a>
</g>
</g>
<!-- Node11&#45;&gt;Node8 -->
<g id="edge23_Node000011_Node000008" class="edge">
<title>Node11&#45;&gt;Node8</title>
<g id="a_edge23_Node000011_Node000008"><a xlink:title=" ">
<path fill="none" stroke="#63b8ff" d="M477.23,-488.29C536.58,-478.69 622.6,-464.78 678.05,-455.81"/>
<polygon fill="#63b8ff" stroke="#63b8ff" points="678.72,-459.24 688.03,-454.19 677.6,-452.33 678.72,-459.24"/>
</a>
</g>
</g>
<!-- Node11&#45;&gt;Node9 -->
<g id="edge24_Node000011_Node000009" class="edge">
<title>Node11&#45;&gt;Node9</title>
<g id="a_edge24_Node000011_Node000009"><a xlink:title=" ">
<path fill="none" stroke="#63b8ff" d="M419.65,-483.94C435.75,-457.22 472.92,-401.47 519,-371 522.34,-368.79 525.97,-366.84 529.73,-365.12"/>
<polygon fill="#63b8ff" stroke="#63b8ff" points="531.27,-368.28 539.25,-361.31 528.66,-361.78 531.27,-368.28"/>
</a>
</g>
</g>
<!-- Node11&#45;&gt;Node12 -->
<g id="edge26_Node000011_Node000012" class="edge">
<title>Node11&#45;&gt;Node12</title>
<g id="a_edge26_Node000011_Node000012"><a xlink:title=" ">
<path fill="none" stroke="#63b8ff" d="M419.26,-483.68C447.05,-432.1 537.16,-264.87 567.46,-208.64"/>
<polygon fill="#63b8ff" stroke="#63b8ff" points="570.58,-210.23 572.24,-199.76 564.42,-206.9 570.58,-210.23"/>
</a>
</g>
</g>
<!-- Node11&#45;&gt;Node13 -->
<g id="edge27_Node000011_Node000013" class="edge">
<title>Node11&#45;&gt;Node13</title>
<g id="a_edge27_Node000011_Node000013"><a xlink:title=" ">
<path fill="none" stroke="#63b8ff" d="M454.18,-514.12C463.91,-518.14 474.01,-522.83 483,-528 500.57,-538.11 501.46,-545.84 519,-556 525.66,-559.86 533.06,-563.41 540.3,-566.52"/>
<polygon fill="#63b8ff" stroke="#63b8ff" points="539.4,-569.93 549.98,-570.49 542.05,-563.46 539.4,-569.93"/>
</a>
</g>
</g>
<!-- Node13&#45;&gt;Node2 -->
<g id="edge28_Node000013_Node000002" class="edge">
<title>Node13&#45;&gt;Node2</title>
<g id="a_edge28_Node000013_Node000002"><a xlink:title=" ">
<path fill="none" stroke="#63b8ff" d="M615.76,-584.5C631.94,-586.51 651.48,-588.94 669.9,-591.23"/>
<polygon fill="#63b8ff" stroke="#63b8ff" points="669.64,-594.72 679.99,-592.48 670.5,-587.77 669.64,-594.72"/>
</a>
</g>
</g>
<!-- Node13&#45;&gt;Node8 -->
<g id="edge29_Node000013_Node000008" class="edge">
<title>Node13&#45;&gt;Node8</title>
<g id="a_edge29_Node000013_Node000008"><a xlink:title=" ">
<path fill="none" stroke="#63b8ff" d="M590.5,-570.43C616.29,-548.02 680.9,-491.86 713.31,-463.68"/>
<polygon fill="#63b8ff" stroke="#63b8ff" points="715.93,-466.04 721.18,-456.84 711.34,-460.76 715.93,-466.04"/>
</a>
</g>
</g>
<!-- Node14&#45;&gt;Node2 -->
<g id="edge32_Node000014_Node000002" class="edge">
<title>Node14&#45;&gt;Node2</title>
<g id="a_edge32_Node000014_Node000002"><a xlink:title=" ">
<path fill="none" stroke="#63b8ff" d="M238.14,-470.76C254.19,-490.53 293.52,-535.36 337,-558 443.57,-613.5 588.05,-612.48 669.63,-606.15"/>
<polygon fill="#63b8ff" stroke="#63b8ff" points="670.07,-609.62 679.74,-605.31 669.49,-602.65 670.07,-609.62"/>
</a>
</g>
</g>
<!-- Node14&#45;&gt;Node3 -->
<g id="edge36_Node000014_Node000003" class="edge">
<title>Node14&#45;&gt;Node3</title>
<g id="a_edge36_Node000014_Node000003"><a xlink:title=" ">
<path fill="none" stroke="#63b8ff" d="M231.25,-470.75C234.81,-509.54 253.42,-654.18 337,-723 362.74,-744.2 447.15,-757.06 508.72,-763.84"/>
<polygon fill="#63b8ff" stroke="#63b8ff" points="508.46,-767.34 518.77,-764.92 509.2,-760.38 508.46,-767.34"/>
</a>
</g>
</g>
<!-- Node14&#45;&gt;Node4 -->
<g id="edge38_Node000014_Node000004" class="edge">
<title>Node14&#45;&gt;Node4</title>
<g id="a_edge38_Node000014_Node000004"><a xlink:title=" ">
<path fill="none" stroke="#63b8ff" d="M230.76,-470.77C232.45,-512.45 244.92,-676.82 337,-755 489.49,-884.48 759.29,-814.22 856.67,-782.7"/>
<polygon fill="#63b8ff" stroke="#63b8ff" points="857.95,-785.97 866.35,-779.51 855.76,-779.32 857.95,-785.97"/>
</a>
</g>
</g>
<!-- Node14&#45;&gt;Node5 -->
<g id="edge41_Node000014_Node000005" class="edge">
<title>Node14&#45;&gt;Node5</title>
<g id="a_edge41_Node000014_Node000005"><a xlink:title=" ">
<path fill="none" stroke="#63b8ff" d="M238.11,-451.28C254.09,-431.61 293.3,-387.18 337,-366 507.33,-283.47 742.79,-319.12 843.79,-340.35"/>
<polygon fill="#63b8ff" stroke="#63b8ff" points="843.19,-343.81 853.71,-342.48 844.66,-336.96 843.19,-343.81"/>
</a>
</g>
</g>
<!-- Node14&#45;&gt;Node6 -->
<g id="edge42_Node000014_Node000006" class="edge">
<title>Node14&#45;&gt;Node6</title>
<g id="a_edge42_Node000014_Node000006"><a xlink:title=" ">
<path fill="none" stroke="#63b8ff" d="M235.48,-470.69C248.59,-495.17 286.51,-559.92 337,-593 438.15,-659.27 580.17,-682.07 663.64,-689.9"/>
<polygon fill="#63b8ff" stroke="#63b8ff" points="663.5,-693.41 673.77,-690.81 664.12,-686.43 663.5,-693.41"/>
</a>
</g>
</g>
<!-- Node14&#45;&gt;Node7 -->
<g id="edge37_Node000014_Node000007" class="edge">
<title>Node14&#45;&gt;Node7</title>
<g id="a_edge37_Node000014_Node000007"><a xlink:title=" ">
<path fill="none" stroke="#63b8ff" d="M231.81,-451.35C237.28,-414.75 261.67,-283.16 337,-214 341.41,-209.95 346.53,-206.58 351.97,-203.77"/>
<polygon fill="#63b8ff" stroke="#63b8ff" points="353.65,-206.86 361.34,-199.57 350.78,-200.47 353.65,-206.86"/>
</a>
</g>
</g>
<!-- Node14&#45;&gt;Node8 -->
<g id="edge39_Node000014_Node000008" class="edge">
<title>Node14&#45;&gt;Node8</title>
<g id="a_edge39_Node000014_Node000008"><a xlink:title=" ">
<path fill="none" stroke="#63b8ff" d="M286.14,-459.45C383.18,-456.74 582.19,-451.19 678.25,-448.51"/>
<polygon fill="#63b8ff" stroke="#63b8ff" points="678.43,-452.01 688.33,-448.23 678.24,-445.01 678.43,-452.01"/>
</a>
</g>
</g>
<!-- Node14&#45;&gt;Node9 -->
<g id="edge40_Node000014_Node000009" class="edge">
<title>Node14&#45;&gt;Node9</title>
<g id="a_edge40_Node000014_Node000009"><a xlink:title=" ">
<path fill="none" stroke="#63b8ff" d="M246.18,-451.48C266.48,-439.53 303.25,-419.13 337,-407 401.67,-383.76 479.83,-368.43 529.12,-360.23"/>
<polygon fill="#63b8ff" stroke="#63b8ff" points="529.88,-363.65 539.18,-358.58 528.75,-356.74 529.88,-363.65"/>
</a>
</g>
</g>
<!-- Node14&#45;&gt;Node11 -->
<g id="edge46_Node000014_Node000011" class="edge">
<title>Node14&#45;&gt;Node11</title>
<g id="a_edge46_Node000014_Node000011"><a xlink:title=" ">
<path fill="none" stroke="#63b8ff" d="M275.54,-470.59C292.95,-474.29 313.35,-478.64 332.9,-482.8"/>
<polygon fill="#63b8ff" stroke="#63b8ff" points="332.21,-486.23 342.72,-484.89 333.66,-479.38 332.21,-486.23"/>
</a>
</g>
</g>
<!-- Node14&#45;&gt;Node12 -->
<g id="edge47_Node000014_Node000012" class="edge">
<title>Node14&#45;&gt;Node12</title>
<g id="a_edge47_Node000014_Node000012"><a xlink:title=" ">
<path fill="none" stroke="#63b8ff" d="M234,-451.43C244.87,-422.96 280.74,-337.76 337,-290 391.89,-243.4 471.55,-216.08 523.92,-202.09"/>
<polygon fill="#63b8ff" stroke="#63b8ff" points="524.9,-205.45 533.69,-199.55 523.14,-198.67 524.9,-205.45"/>
</a>
</g>
</g>
<!-- Node14&#45;&gt;Node13 -->
<g id="edge48_Node000014_Node000013" class="edge">
<title>Node14&#45;&gt;Node13</title>
<g id="a_edge48_Node000014_Node000013"><a xlink:title=" ">
<path fill="none" stroke="#63b8ff" d="M243.96,-470.6C263.54,-484.14 301.44,-508.8 337,-523 402.11,-549 482.07,-565.03 531.4,-573.23"/>
<polygon fill="#63b8ff" stroke="#63b8ff" points="531.02,-576.71 541.45,-574.86 532.14,-569.8 531.02,-576.71"/>
</a>
</g>
</g>
<!-- Node15 -->
<g id="Node000015" class="node">
<title>Node15</title>
<g id="a_Node000015"><a xlink:href="../../d1/d42/namespacelamina.html#a5674a8bdb6ea1d73d8ccbc37846c4d2d" target="_top" xlink:title=" ">
<polygon fill="white" stroke="#666666" points="629.5,-399.5 527.5,-399.5 527.5,-380.5 629.5,-380.5 629.5,-399.5"/>
<text text-anchor="middle" x="578.5" y="-387.5" font-family="Helvetica,sans-Serif" font-size="10.00">lamina::cbrt_expr</text>
</a>
</g>
</g>
<!-- Node14&#45;&gt;Node15 -->
<g id="edge33_Node000014_Node000015" class="edge">
<title>Node14&#45;&gt;Node15</title>
<g id="a_edge33_Node000014_Node000015"><a xlink:title=" ">
<path fill="none" stroke="#63b8ff" d="M276.94,-451.5C340.09,-438.58 452.95,-415.48 520.95,-401.57"/>
<polygon fill="#63b8ff" stroke="#63b8ff" points="521.96,-404.94 531.06,-399.5 520.56,-398.08 521.96,-404.94"/>
</a>
</g>
</g>
<!-- Node16 -->
<g id="Node000016" class="node">
<title>Node16</title>
<g id="a_Node000016"><a xlink:href="../../d1/d42/namespacelamina.html#a31b9d093026d34d29e37ed0a38013fd9" target="_top" xlink:title=" ">
<polygon fill="white" stroke="#666666" points="468,-714 352,-714 352,-684 468,-684 468,-714"/>
<text text-anchor="start" x="360" y="-702" font-family="Helvetica,sans-Serif" font-size="10.00">lamina::solve_linear</text>
<text text-anchor="middle" x="410" y="-691" font-family="Helvetica,sans-Serif" font-size="10.00">_internal</text>
</a>
</g>
</g>
<!-- Node14&#45;&gt;Node16 -->
<g id="edge43_Node000014_Node000016" class="edge">
<title>Node14&#45;&gt;Node16</title>
<g id="a_edge43_Node000014_Node000016"><a xlink:title=" ">
<path fill="none" stroke="#63b8ff" d="M232.85,-470.82C241.19,-503.65 272.41,-610.88 337,-670 340.76,-673.44 344.97,-676.49 349.43,-679.2"/>
<polygon fill="#63b8ff" stroke="#63b8ff" points="347.79,-682.29 358.24,-684 351.13,-676.14 347.79,-682.29"/>
</a>
</g>
</g>
<!-- Node15&#45;&gt;Node5 -->
<g id="edge34_Node000015_Node000005" class="edge">
<title>Node15&#45;&gt;Node5</title>
<g id="a_edge34_Node000015_Node000005"><a xlink:title=" ">
<path fill="none" stroke="#63b8ff" d="M629.61,-385.2C672.92,-380.9 737.17,-374.19 793,-367 802.43,-365.78 812.35,-364.41 822.13,-363"/>
<polygon fill="#63b8ff" stroke="#63b8ff" points="822.85,-366.43 832.24,-361.53 821.84,-359.51 822.85,-366.43"/>
</a>
</g>
</g>
<!-- Node15&#45;&gt;Node6 -->
<g id="edge35_Node000015_Node000006" class="edge">
<title>Node15&#45;&gt;Node6</title>
<g id="a_edge35_Node000015_Node000006"><a xlink:title=" ">
<path fill="none" stroke="#63b8ff" d="M582.45,-399.54C592.57,-431.64 627.87,-538.26 674,-618 686.41,-639.45 704.15,-661.64 716.84,-676.46"/>
<polygon fill="#63b8ff" stroke="#63b8ff" points="714.44,-679.04 723.65,-684.28 719.72,-674.44 714.44,-679.04"/>
</a>
</g>
</g>
<!-- Node16&#45;&gt;Node3 -->
<g id="edge44_Node000016_Node000003" class="edge">
<title>Node16&#45;&gt;Node3</title>
<g id="a_edge44_Node000016_Node000003"><a xlink:title=" ">
<path fill="none" stroke="#63b8ff" d="M450.1,-714.08C460.84,-718.41 472.43,-723.24 483,-728 499.31,-735.35 502.71,-738.6 519,-746 526.97,-749.62 535.66,-753.32 543.84,-756.69"/>
<polygon fill="#63b8ff" stroke="#63b8ff" points="542.55,-759.95 553.13,-760.47 545.19,-753.46 542.55,-759.95"/>
</a>
</g>
</g>
<!-- Node16&#45;&gt;Node8 -->
<g id="edge45_Node000016_Node000008" class="edge">
<title>Node16&#45;&gt;Node8</title>
<g id="a_edge45_Node000016_Node000008"><a xlink:title=" ">
<path fill="none" stroke="#63b8ff" d="M468.48,-684.14C517.81,-669.11 588.56,-641.9 638,-599 681.86,-560.94 712.04,-497.45 725.14,-465.94"/>
<polygon fill="#63b8ff" stroke="#63b8ff" points="728.43,-467.14 728.93,-456.56 721.94,-464.52 728.43,-467.14"/>
</a>
</g>
</g>
</g>
</svg>
