<?xml version="1.0" encoding="UTF-8" standalone="no"?>
<!DOCTYPE svg PUBLIC "-//W3C//DTD SVG 1.1//EN"
 "http://www.w3.org/Graphics/SVG/1.1/DTD/svg11.dtd">
<!-- Generated by graphviz version 2.43.0 (0)
 -->
<!-- Title: lamina::determine_leading_sign Pages: 1 -->
<svg width="491pt" height="124pt"
 viewBox="0.00 0.00 491.00 123.50" xmlns="http://www.w3.org/2000/svg" xmlns:xlink="http://www.w3.org/1999/xlink">
<g id="graph0" class="graph" transform="scale(1 1) rotate(0) translate(4 119.5)">
<title>lamina::determine_leading_sign</title>
<!-- Node1 -->
<g id="Node000001" class="node">
<title>Node1</title>
<g id="a_Node000001"><a xlink:title=" ">
<polygon fill="#999999" stroke="#666666" points="173,-62 0,-62 0,-43 173,-43 173,-62"/>
<text text-anchor="middle" x="86.5" y="-50" font-family="Helvetica,sans-Serif" font-size="10.00">lamina::determine_leading_sign</text>
</a>
</g>
</g>
<!-- Node2 -->
<g id="Node000002" class="node">
<title>Node2</title>
<g id="a_Node000002"><a xlink:href="../../d8/d1e/classlamina_1_1Polynomial.html#a5ab9f08024d7084b47a746f72ba9f850" target="_top" xlink:title="判断是否为零多项式">
<polygon fill="white" stroke="#666666" points="320,-115.5 209,-115.5 209,-85.5 320,-85.5 320,-115.5"/>
<text text-anchor="start" x="217" y="-103.5" font-family="Helvetica,sans-Serif" font-size="10.00">lamina::Polynomial</text>
<text text-anchor="middle" x="264.5" y="-92.5" font-family="Helvetica,sans-Serif" font-size="10.00">::is_zero</text>
</a>
</g>
</g>
<!-- Node1&#45;&gt;Node2 -->
<g id="edge1_Node000001_Node000002" class="edge">
<title>Node1&#45;&gt;Node2</title>
<g id="a_edge1_Node000001_Node000002"><a xlink:title=" ">
<path fill="none" stroke="#63b8ff" d="M122.69,-62.1C144.58,-68.07 173.37,-75.92 199.22,-82.97"/>
<polygon fill="#63b8ff" stroke="#63b8ff" points="198.39,-86.37 208.96,-85.62 200.23,-79.62 198.39,-86.37"/>
</a>
</g>
</g>
<!-- Node3 -->
<g id="Node000003" class="node">
<title>Node3</title>
<g id="a_Node000003"><a xlink:href="../../d8/d1e/classlamina_1_1Polynomial.html#ae491492c9a43d1dee5f86b4adf803cfa" target="_top" xlink:title="获取首项系数">
<polygon fill="white" stroke="#666666" points="320,-67.5 209,-67.5 209,-37.5 320,-37.5 320,-67.5"/>
<text text-anchor="start" x="217" y="-55.5" font-family="Helvetica,sans-Serif" font-size="10.00">lamina::Polynomial</text>
<text text-anchor="middle" x="264.5" y="-44.5" font-family="Helvetica,sans-Serif" font-size="10.00">::lead_coeff</text>
</a>
</g>
</g>
<!-- Node1&#45;&gt;Node3 -->
<g id="edge2_Node000001_Node000003" class="edge">
<title>Node1&#45;&gt;Node3</title>
<g id="a_edge2_Node000001_Node000003"><a xlink:title=" ">
<path fill="none" stroke="#63b8ff" d="M173.18,-52.5C181.66,-52.5 190.17,-52.5 198.4,-52.5"/>
<polygon fill="#63b8ff" stroke="#63b8ff" points="198.64,-56 208.64,-52.5 198.64,-49 198.64,-56"/>
</a>
</g>
</g>
<!-- Node4 -->
<g id="Node000004" class="node">
<title>Node4</title>
<g id="a_Node000004"><a xlink:href="../../d1/d42/namespacelamina.html#a78a46efcff5ce7151a74984c5381cd71" target="_top" xlink:title=" ">
<polygon fill="white" stroke="#666666" points="303.5,-19 225.5,-19 225.5,0 303.5,0 303.5,-19"/>
<text text-anchor="middle" x="264.5" y="-7" font-family="Helvetica,sans-Serif" font-size="10.00">lamina::num</text>
</a>
</g>
</g>
<!-- Node1&#45;&gt;Node4 -->
<g id="edge3_Node000001_Node000004" class="edge">
<title>Node1&#45;&gt;Node4</title>
<g id="a_edge3_Node000001_Node000004"><a xlink:title=" ">
<path fill="none" stroke="#63b8ff" d="M126.56,-42.96C152.81,-36.54 187.57,-28.05 215.5,-21.23"/>
<polygon fill="#63b8ff" stroke="#63b8ff" points="216.57,-24.57 225.46,-18.79 214.91,-17.77 216.57,-24.57"/>
</a>
</g>
</g>
<!-- Node5 -->
<g id="Node000005" class="node">
<title>Node5</title>
<g id="a_Node000005"><a xlink:href="../../dc/d25/classSymbolicExpr.html#adeb760bb6f4f28879108394537eca293" target="_top" xlink:title="创建整数数值表达式。">
<polygon fill="white" stroke="#666666" points="483,-19 356,-19 356,0 483,0 483,-19"/>
<text text-anchor="middle" x="419.5" y="-7" font-family="Helvetica,sans-Serif" font-size="10.00">SymbolicExpr::number</text>
</a>
</g>
</g>
<!-- Node4&#45;&gt;Node5 -->
<g id="edge4_Node000004_Node000005" class="edge">
<title>Node4&#45;&gt;Node5</title>
<g id="a_edge4_Node000004_Node000005"><a xlink:title=" ">
<path fill="none" stroke="#63b8ff" d="M303.71,-9.5C316.51,-9.5 331.24,-9.5 345.79,-9.5"/>
<polygon fill="#63b8ff" stroke="#63b8ff" points="345.8,-13 355.8,-9.5 345.8,-6 345.8,-13"/>
</a>
</g>
</g>
</g>
</svg>
