<?xml version="1.0" encoding="UTF-8" standalone="no"?>
<!DOCTYPE svg PUBLIC "-//W3C//DTD SVG 1.1//EN"
 "http://www.w3.org/Graphics/SVG/1.1/DTD/svg11.dtd">
<!-- Generated by graphviz version 2.43.0 (0)
 -->
<!-- Title: lamina::extended_gcd Pages: 1 -->
<svg width="514pt" height="101pt"
 viewBox="0.00 0.00 514.00 101.00" xmlns="http://www.w3.org/2000/svg" xmlns:xlink="http://www.w3.org/1999/xlink">
<g id="graph0" class="graph" transform="scale(1 1) rotate(0) translate(4 97)">
<title>lamina::extended_gcd</title>
<!-- Node1 -->
<g id="Node000001" class="node">
<title>Node1</title>
<g id="a_Node000001"><a xlink:title="扩展欧几里得算法，求 gcd(a, b) 及 Bezout 系数">
<polygon fill="#999999" stroke="#666666" points="506,-56 381,-56 381,-37 506,-37 506,-56"/>
<text text-anchor="middle" x="443.5" y="-44" font-family="Helvetica,sans-Serif" font-size="10.00">lamina::extended_gcd</text>
</a>
</g>
</g>
<!-- Node2 -->
<g id="Node000002" class="node">
<title>Node2</title>
<g id="a_Node000002"><a xlink:href="../../d1/d42/namespacelamina.html#a24c239a8fddbd1c722a110249262f453" target="_top" xlink:title="中国剩余定理（两模数）">
<polygon fill="white" stroke="#666666" points="295,-93 226,-93 226,-74 295,-74 295,-93"/>
<text text-anchor="middle" x="260.5" y="-81" font-family="Helvetica,sans-Serif" font-size="10.00">lamina::crt</text>
</a>
</g>
</g>
<!-- Node1&#45;&gt;Node2 -->
<g id="edge1_Node000001_Node000002" class="edge">
<title>Node1&#45;&gt;Node2</title>
<g id="a_edge1_Node000001_Node000002"><a xlink:title=" ">
<path fill="none" stroke="#63b8ff" d="M386.01,-58.05C356.18,-64.15 320.58,-71.42 295.1,-76.63"/>
<polygon fill="#63b8ff" stroke="#63b8ff" points="386.79,-61.46 395.89,-56.03 385.39,-54.6 386.79,-61.46"/>
</a>
</g>
</g>
<!-- Node4 -->
<g id="Node000004" class="node">
<title>Node4</title>
<g id="a_Node000004"><a xlink:href="../../dc/d15/classlamina_1_1ModInt.html#aad166c2a3dc94a51a30dcee26f65910b" target="_top" xlink:title="求模逆元">
<polygon fill="white" stroke="#666666" points="326.5,-56 194.5,-56 194.5,-37 326.5,-37 326.5,-56"/>
<text text-anchor="middle" x="260.5" y="-44" font-family="Helvetica,sans-Serif" font-size="10.00">lamina::ModInt::inverse</text>
</a>
</g>
</g>
<!-- Node1&#45;&gt;Node4 -->
<g id="edge3_Node000001_Node000004" class="edge">
<title>Node1&#45;&gt;Node4</title>
<g id="a_edge3_Node000001_Node000004"><a xlink:title=" ">
<path fill="none" stroke="#63b8ff" d="M370.96,-46.5C356.31,-46.5 340.98,-46.5 326.57,-46.5"/>
<polygon fill="#63b8ff" stroke="#63b8ff" points="370.97,-50 380.97,-46.5 370.97,-43 370.97,-50"/>
</a>
</g>
</g>
<!-- Node7 -->
<g id="Node000007" class="node">
<title>Node7</title>
<g id="a_Node000007"><a xlink:href="../../d1/d42/namespacelamina.html#a54784b347ccb712f1fe145359f959553" target="_top" xlink:title="有理数重构：从模像 x mod m 恢复有理数 a/b">
<polygon fill="white" stroke="#666666" points="345,-19 176,-19 176,0 345,0 345,-19"/>
<text text-anchor="middle" x="260.5" y="-7" font-family="Helvetica,sans-Serif" font-size="10.00">lamina::rational_reconstruction</text>
</a>
</g>
</g>
<!-- Node1&#45;&gt;Node7 -->
<g id="edge6_Node000001_Node000007" class="edge">
<title>Node1&#45;&gt;Node7</title>
<g id="a_edge6_Node000001_Node000007"><a xlink:title=" ">
<path fill="none" stroke="#63b8ff" d="M385.83,-34.92C360.89,-29.82 331.95,-23.9 308.27,-19.06"/>
<polygon fill="#63b8ff" stroke="#63b8ff" points="385.39,-38.4 395.89,-36.97 386.79,-31.54 385.39,-38.4"/>
</a>
</g>
</g>
<!-- Node3 -->
<g id="Node000003" class="node">
<title>Node3</title>
<g id="a_Node000003"><a xlink:href="../../d1/d42/namespacelamina.html#acd0ded2fb56686ecabc81076e5f3128f" target="_top" xlink:title="多模数中国剩余定理">
<polygon fill="white" stroke="#666666" points="120,-93 20,-93 20,-74 120,-74 120,-93"/>
<text text-anchor="middle" x="70" y="-81" font-family="Helvetica,sans-Serif" font-size="10.00">lamina::multi_crt</text>
</a>
</g>
</g>
<!-- Node2&#45;&gt;Node3 -->
<g id="edge2_Node000002_Node000003" class="edge">
<title>Node2&#45;&gt;Node3</title>
<g id="a_edge2_Node000002_Node000003"><a xlink:title=" ">
<path fill="none" stroke="#63b8ff" d="M215.72,-83.5C187.2,-83.5 149.93,-83.5 120.36,-83.5"/>
<polygon fill="#63b8ff" stroke="#63b8ff" points="215.8,-87 225.8,-83.5 215.8,-80 215.8,-87"/>
</a>
</g>
</g>
<!-- Node5 -->
<g id="Node000005" class="node">
<title>Node5</title>
<g id="a_Node000005"><a xlink:href="../../dc/d15/classlamina_1_1ModInt.html#a18c2b788799657a170a6c525344a0875" target="_top" xlink:title="模除法（乘以逆元）">
<polygon fill="white" stroke="#666666" points="140,-56 0,-56 0,-37 140,-37 140,-56"/>
<text text-anchor="middle" x="70" y="-44" font-family="Helvetica,sans-Serif" font-size="10.00">lamina::ModInt::operator/</text>
</a>
</g>
</g>
<!-- Node4&#45;&gt;Node5 -->
<g id="edge4_Node000004_Node000005" class="edge">
<title>Node4&#45;&gt;Node5</title>
<g id="a_edge4_Node000004_Node000005"><a xlink:title=" ">
<path fill="none" stroke="#63b8ff" d="M183.99,-46.5C169.57,-46.5 154.53,-46.5 140.31,-46.5"/>
<polygon fill="#63b8ff" stroke="#63b8ff" points="184.37,-50 194.37,-46.5 184.37,-43 184.37,-50"/>
</a>
</g>
</g>
<!-- Node6 -->
<g id="Node000006" class="node">
<title>Node6</title>
<g id="a_Node000006"><a xlink:href="../../dc/d15/classlamina_1_1ModInt.html#a6053ad360ad27bc39e464b603f3f10e0" target="_top" xlink:title="模幂运算">
<polygon fill="white" stroke="#666666" points="128,-19 12,-19 12,0 128,0 128,-19"/>
<text text-anchor="middle" x="70" y="-7" font-family="Helvetica,sans-Serif" font-size="10.00">lamina::ModInt::pow</text>
</a>
</g>
</g>
<!-- Node4&#45;&gt;Node6 -->
<g id="edge5_Node000004_Node000006" class="edge">
<title>Node4&#45;&gt;Node6</title>
<g id="a_edge5_Node000004_Node000006"><a xlink:title=" ">
<path fill="none" stroke="#63b8ff" d="M200.83,-34.98C174.78,-29.87 144.48,-23.92 119.71,-19.06"/>
<polygon fill="#63b8ff" stroke="#63b8ff" points="200.47,-38.48 210.96,-36.97 201.82,-31.61 200.47,-38.48"/>
</a>
</g>
</g>
</g>
</svg>
