<?xml version="1.0" encoding="UTF-8" standalone="no"?>
<!DOCTYPE svg PUBLIC "-//W3C//DTD SVG 1.1//EN"
 "http://www.w3.org/Graphics/SVG/1.1/DTD/svg11.dtd">
<!-- Generated by graphviz version 2.43.0 (0)
 -->
<!-- Title: lamina::decompose_lambert_w_pattern Pages: 1 -->
<svg width="1853pt" height="310pt"
 viewBox="0.00 0.00 1853.00 310.00" xmlns="http://www.w3.org/2000/svg" xmlns:xlink="http://www.w3.org/1999/xlink">
<g id="graph0" class="graph" transform="scale(1 1) rotate(0) translate(4 306)">
<title>lamina::decompose_lambert_w_pattern</title>
<!-- Node1 -->
<g id="Node000001" class="node">
<title>Node1</title>
<g id="a_Node000001"><a xlink:title=" ">
<polygon fill="#999999" stroke="#666666" points="1845,-221 1689,-221 1689,-191 1845,-191 1845,-221"/>
<text text-anchor="start" x="1697" y="-209" font-family="Helvetica,sans-Serif" font-size="10.00">lamina::decompose_lambert</text>
<text text-anchor="middle" x="1767" y="-198" font-family="Helvetica,sans-Serif" font-size="10.00">_w_pattern</text>
</a>
</g>
</g>
<!-- Node2 -->
<g id="Node000002" class="node">
<title>Node2</title>
<g id="a_Node000002"><a xlink:href="../../d1/d42/namespacelamina.html#a12ae4dd3753dfea8b5e9d84b3c748855" target="_top" xlink:title=" ">
<polygon fill="white" stroke="#666666" points="1653,-215.5 1465,-215.5 1465,-196.5 1653,-196.5 1653,-215.5"/>
<text text-anchor="middle" x="1559" y="-203.5" font-family="Helvetica,sans-Serif" font-size="10.00">lamina::solve_transcendental_impl</text>
</a>
</g>
</g>
<!-- Node1&#45;&gt;Node2 -->
<g id="edge1_Node000001_Node000002" class="edge">
<title>Node1&#45;&gt;Node2</title>
<g id="a_edge1_Node000001_Node000002"><a xlink:title=" ">
<path fill="none" stroke="#63b8ff" d="M1678.51,-206C1670.07,-206 1661.5,-206 1653.02,-206"/>
<polygon fill="#63b8ff" stroke="#63b8ff" points="1678.71,-209.5 1688.71,-206 1678.71,-202.5 1678.71,-209.5"/>
</a>
</g>
</g>
<!-- Node3 -->
<g id="Node000003" class="node">
<title>Node3</title>
<g id="a_Node000003"><a xlink:href="../../d1/d42/namespacelamina.html#a704f26202e00de52ae9b961bc527a9ff" target="_top" xlink:title=" ">
<polygon fill="white" stroke="#666666" points="888,-302 775,-302 775,-272 888,-272 888,-302"/>
<text text-anchor="start" x="783" y="-290" font-family="Helvetica,sans-Serif" font-size="10.00">lamina::solve_inner</text>
<text text-anchor="middle" x="831.5" y="-279" font-family="Helvetica,sans-Serif" font-size="10.00">_equation</text>
</a>
</g>
</g>
<!-- Node2&#45;&gt;Node3 -->
<g id="edge2_Node000002_Node000003" class="edge">
<title>Node2&#45;&gt;Node3</title>
<g id="a_edge2_Node000002_Node000003"><a xlink:title=" ">
<path fill="none" stroke="#63b8ff" d="M1454.56,-212.66C1445.92,-213.82 1437.31,-214.96 1429,-216 1230.39,-240.94 993.68,-263.39 888.1,-276.83"/>
<polygon fill="#63b8ff" stroke="#63b8ff" points="1455.26,-216.1 1464.71,-211.3 1454.33,-209.16 1455.26,-216.1"/>
</a>
</g>
</g>
<!-- Node4 -->
<g id="Node000004" class="node">
<title>Node4</title>
<g id="a_Node000004"><a xlink:href="../../d1/d42/namespacelamina.html#a49ecca042975b1b60b3cfb5dd09f1ddc" target="_top" xlink:title="求解超越方程（三角、指数、对数类型）。">
<polygon fill="white" stroke="#666666" points="1429,-215.5 1268,-215.5 1268,-196.5 1429,-196.5 1429,-215.5"/>
<text text-anchor="middle" x="1348.5" y="-203.5" font-family="Helvetica,sans-Serif" font-size="10.00">lamina::solve_transcendental</text>
</a>
</g>
</g>
<!-- Node2&#45;&gt;Node4 -->
<g id="edge4_Node000002_Node000004" class="edge">
<title>Node2&#45;&gt;Node4</title>
<g id="a_edge4_Node000002_Node000004"><a xlink:title=" ">
<path fill="none" stroke="#63b8ff" d="M1454.72,-206C1446.19,-206 1437.64,-206 1429.32,-206"/>
<polygon fill="#63b8ff" stroke="#63b8ff" points="1454.73,-209.5 1464.73,-206 1454.73,-202.5 1454.73,-209.5"/>
</a>
</g>
</g>
<!-- Node3&#45;&gt;Node2 -->
<g id="edge3_Node000003_Node000002" class="edge">
<title>Node3&#45;&gt;Node2</title>
<g id="a_edge3_Node000003_Node000002"><a xlink:title=" ">
<path fill="none" stroke="#63b8ff" d="M898.38,-286.61C1008.44,-279.98 1236.6,-258.16 1429,-234 1467.41,-229.18 1512.06,-222.32 1537.48,-215.62"/>
<polygon fill="#63b8ff" stroke="#63b8ff" points="897.88,-283.14 888.1,-287.21 898.29,-290.12 897.88,-283.14"/>
</a>
</g>
</g>
<!-- Node5 -->
<g id="Node000005" class="node">
<title>Node5</title>
<g id="a_Node000005"><a xlink:href="../../d1/d42/namespacelamina.html#a06e924d67656611208ba81ad13fbee8d" target="_top" xlink:title="方程求解策略调度器，根据表达式类型选择合适的求解方法。">
<polygon fill="white" stroke="#666666" points="1232,-215.5 1103,-215.5 1103,-196.5 1232,-196.5 1232,-215.5"/>
<text text-anchor="middle" x="1167.5" y="-203.5" font-family="Helvetica,sans-Serif" font-size="10.00">lamina::solve_dispatch</text>
</a>
</g>
</g>
<!-- Node4&#45;&gt;Node5 -->
<g id="edge5_Node000004_Node000005" class="edge">
<title>Node4&#45;&gt;Node5</title>
<g id="a_edge5_Node000004_Node000005"><a xlink:title=" ">
<path fill="none" stroke="#63b8ff" d="M1257.82,-206C1249.19,-206 1240.55,-206 1232.24,-206"/>
<polygon fill="#63b8ff" stroke="#63b8ff" points="1257.95,-209.5 1267.95,-206 1257.95,-202.5 1257.95,-209.5"/>
</a>
</g>
</g>
<!-- Node6 -->
<g id="Node000006" class="node">
<title>Node6</title>
<g id="a_Node000006"><a xlink:href="../../dc/d25/classSymbolicExpr.html#a8e2b693429c55311a664ed0306bc9b2e" target="_top" xlink:title="求解方程，返回指定变量的所有解。">
<polygon fill="white" stroke="#666666" points="1067,-177.5 951,-177.5 951,-158.5 1067,-158.5 1067,-177.5"/>
<text text-anchor="middle" x="1009" y="-165.5" font-family="Helvetica,sans-Serif" font-size="10.00">SymbolicExpr::solve</text>
</a>
</g>
</g>
<!-- Node5&#45;&gt;Node6 -->
<g id="edge6_Node000005_Node000006" class="edge">
<title>Node5&#45;&gt;Node6</title>
<g id="a_edge6_Node000005_Node000006"><a xlink:title=" ">
<path fill="none" stroke="#63b8ff" d="M1117.21,-194.03C1095.28,-188.71 1069.82,-182.52 1049.21,-177.52"/>
<polygon fill="#63b8ff" stroke="#63b8ff" points="1116.46,-197.45 1127.01,-196.41 1118.12,-190.65 1116.46,-197.45"/>
</a>
</g>
</g>
<!-- Node6&#45;&gt;Node2 -->
<g id="edge27_Node000006_Node000002" class="edge">
<title>Node6&#45;&gt;Node2</title>
<g id="a_edge27_Node000006_Node000002"><a xlink:title=" ">
<path fill="none" stroke="#63b8ff" d="M1077.08,-169.32C1159.93,-171.39 1305.1,-176.42 1429,-188 1451.63,-190.11 1476.37,-193.34 1498.08,-196.48"/>
<polygon fill="#63b8ff" stroke="#63b8ff" points="1077.13,-165.82 1067.04,-169.08 1076.96,-172.82 1077.13,-165.82"/>
</a>
</g>
</g>
<!-- Node6&#45;&gt;Node3 -->
<g id="edge21_Node000006_Node000003" class="edge">
<title>Node6&#45;&gt;Node3</title>
<g id="a_edge21_Node000006_Node000003"><a xlink:title=" ">
<path fill="none" stroke="#63b8ff" d="M994.01,-185.52C977.17,-205.55 947.13,-238.14 915,-258 906.09,-263.51 895.99,-268.15 885.99,-272"/>
<polygon fill="#63b8ff" stroke="#63b8ff" points="996.93,-187.47 1000.58,-177.53 991.52,-183.03 996.93,-187.47"/>
</a>
</g>
</g>
<!-- Node7 -->
<g id="Node000007" class="node">
<title>Node7</title>
<g id="a_Node000007"><a xlink:href="../../dc/d25/classSymbolicExpr.html#a83879d764986be80edbedc769b96224a" target="_top" xlink:title="计算矩阵的特征值。">
<polygon fill="white" stroke="#666666" points="337,-238.5 188,-238.5 188,-219.5 337,-219.5 337,-238.5"/>
<text text-anchor="middle" x="262.5" y="-226.5" font-family="Helvetica,sans-Serif" font-size="10.00">SymbolicExpr::eigenvalues</text>
</a>
</g>
</g>
<!-- Node6&#45;&gt;Node7 -->
<g id="edge7_Node000006_Node000007" class="edge">
<title>Node6&#45;&gt;Node7</title>
<g id="a_edge7_Node000006_Node000007"><a xlink:title=" ">
<path fill="none" stroke="#63b8ff" d="M985.26,-183.14C967.08,-194.38 940.5,-208.94 915,-216 708.94,-273.07 452.04,-252.96 331.68,-238.52"/>
<polygon fill="#63b8ff" stroke="#63b8ff" points="987.39,-185.93 993.95,-177.62 983.64,-180.02 987.39,-185.93"/>
</a>
</g>
</g>
<!-- Node9 -->
<g id="Node000009" class="node">
<title>Node9</title>
<g id="a_Node000009"><a xlink:href="../../dc/d25/classSymbolicExpr.html#a884244959506063b172228ad99ab0730" target="_top" xlink:title="对表达式进行因式分解。">
<polygon fill="white" stroke="#666666" points="890.5,-206.5 772.5,-206.5 772.5,-187.5 890.5,-187.5 890.5,-206.5"/>
<text text-anchor="middle" x="831.5" y="-194.5" font-family="Helvetica,sans-Serif" font-size="10.00">SymbolicExpr::factor</text>
</a>
</g>
</g>
<!-- Node6&#45;&gt;Node9 -->
<g id="edge9_Node000006_Node000009" class="edge">
<title>Node6&#45;&gt;Node9</title>
<g id="a_edge9_Node000006_Node000009"><a xlink:title=" ">
<path fill="none" stroke="#63b8ff" d="M940.36,-179.18C923.77,-181.92 906.16,-184.83 890.09,-187.48"/>
<polygon fill="#63b8ff" stroke="#63b8ff" points="941.24,-182.58 950.53,-177.5 940.1,-175.67 941.24,-182.58"/>
</a>
</g>
</g>
<!-- Node17 -->
<g id="Node000017" class="node">
<title>Node17</title>
<g id="a_Node000017"><a xlink:href="../../d1/d42/namespacelamina.html#a334f8d9c2923abbed11b2e4729c2b057" target="_top" xlink:title=" ">
<polygon fill="white" stroke="#666666" points="911,-24.5 752,-24.5 752,-5.5 911,-5.5 911,-24.5"/>
<text text-anchor="middle" x="831.5" y="-12.5" font-family="Helvetica,sans-Serif" font-size="10.00">lamina::invert_substitution_h</text>
</a>
</g>
</g>
<!-- Node6&#45;&gt;Node17 -->
<g id="edge19_Node000006_Node000017" class="edge">
<title>Node6&#45;&gt;Node17</title>
<g id="a_edge19_Node000006_Node000017"><a xlink:title=" ">
<path fill="none" stroke="#63b8ff" d="M993.54,-150.43C981.64,-135.7 964.59,-113.94 951,-94 933.48,-68.31 940.16,-52.28 915,-34 909.65,-30.11 903.63,-27 897.34,-24.52"/>
<polygon fill="#63b8ff" stroke="#63b8ff" points="990.85,-152.67 999.88,-158.22 996.28,-148.25 990.85,-152.67"/>
</a>
</g>
</g>
<!-- Node18 -->
<g id="Node000018" class="node">
<title>Node18</title>
<g id="a_Node000018"><a xlink:href="../../d6/da9/classlamina_1_1ParametricSolver.html#a41d42755b42e64784e9bc7c7f6f5715f" target="_top" xlink:title="求解关于未知数为多项式的含参方程组">
<polygon fill="white" stroke="#666666" points="915,-169 748,-169 748,-139 915,-139 915,-169"/>
<text text-anchor="start" x="756" y="-157" font-family="Helvetica,sans-Serif" font-size="10.00">lamina::ParametricSolver</text>
<text text-anchor="middle" x="831.5" y="-146" font-family="Helvetica,sans-Serif" font-size="10.00">::solve_polynomial_parametric</text>
</a>
</g>
</g>
<!-- Node6&#45;&gt;Node18 -->
<g id="edge22_Node000006_Node000018" class="edge">
<title>Node6&#45;&gt;Node18</title>
<g id="a_edge22_Node000006_Node000018"><a xlink:title=" ">
<path fill="none" stroke="#63b8ff" d="M940.3,-162.6C932.09,-161.94 923.64,-161.27 915.24,-160.6"/>
<polygon fill="#63b8ff" stroke="#63b8ff" points="940.29,-166.11 950.53,-163.42 940.84,-159.13 940.29,-166.11"/>
</a>
</g>
</g>
<!-- Node22 -->
<g id="Node000022" class="node">
<title>Node22</title>
<g id="a_Node000022"><a xlink:href="../../d5/d6f/classlamina_1_1Solver.html#a622812464260dd689d26a7f66ae99633" target="_top" xlink:title="求解多项式方程组，返回所有解。">
<polygon fill="white" stroke="#666666" points="891,-121 772,-121 772,-91 891,-91 891,-121"/>
<text text-anchor="start" x="780" y="-109" font-family="Helvetica,sans-Serif" font-size="10.00">lamina::Solver::solve</text>
<text text-anchor="middle" x="831.5" y="-98" font-family="Helvetica,sans-Serif" font-size="10.00">_polynomial_system</text>
</a>
</g>
</g>
<!-- Node6&#45;&gt;Node22 -->
<g id="edge26_Node000006_Node000022" class="edge">
<title>Node6&#45;&gt;Node22</title>
<g id="a_edge26_Node000006_Node000022"><a xlink:title=" ">
<path fill="none" stroke="#63b8ff" d="M977.06,-154.41C959.11,-146.76 935.98,-137.32 915,-130 906.13,-126.91 896.62,-123.88 887.34,-121.08"/>
<polygon fill="#63b8ff" stroke="#63b8ff" points="975.88,-157.71 986.45,-158.44 978.64,-151.28 975.88,-157.71"/>
</a>
</g>
</g>
<!-- Node23 -->
<g id="Node000023" class="node">
<title>Node23</title>
<g id="a_Node000023"><a xlink:href="../../d1/d42/namespacelamina.html#a14b812ff63e0f874b8f45b9d6c746195" target="_top" xlink:title="Solve an equation with assumption&#45;based domain filtering.">
<polygon fill="white" stroke="#666666" points="886,-73 777,-73 777,-43 886,-43 886,-73"/>
<text text-anchor="start" x="785" y="-61" font-family="Helvetica,sans-Serif" font-size="10.00">lamina::solve_with</text>
<text text-anchor="middle" x="831.5" y="-50" font-family="Helvetica,sans-Serif" font-size="10.00">_assumptions</text>
</a>
</g>
</g>
<!-- Node6&#45;&gt;Node23 -->
<g id="edge28_Node000006_Node000023" class="edge">
<title>Node6&#45;&gt;Node23</title>
<g id="a_edge28_Node000006_Node000023"><a xlink:title=" ">
<path fill="none" stroke="#63b8ff" d="M993.76,-150.69C976.89,-131.26 947.01,-100.11 915,-82 906.17,-77.01 896.21,-72.97 886.34,-69.74"/>
<polygon fill="#63b8ff" stroke="#63b8ff" points="991.22,-153.1 1000.36,-158.46 996.56,-148.57 991.22,-153.1"/>
</a>
</g>
</g>
<!-- Node8 -->
<g id="Node000008" class="node">
<title>Node8</title>
<g id="a_Node000008"><a xlink:href="../../dc/d25/classSymbolicExpr.html#a7777100ca36b7a1a7285ece2380dcf4b" target="_top" xlink:title="计算矩阵的特征向量。">
<polygon fill="white" stroke="#666666" points="152,-238.5 0,-238.5 0,-219.5 152,-219.5 152,-238.5"/>
<text text-anchor="middle" x="76" y="-226.5" font-family="Helvetica,sans-Serif" font-size="10.00">SymbolicExpr::eigenvectors</text>
</a>
</g>
</g>
<!-- Node7&#45;&gt;Node8 -->
<g id="edge8_Node000007_Node000008" class="edge">
<title>Node7&#45;&gt;Node8</title>
<g id="a_edge8_Node000007_Node000008"><a xlink:title=" ">
<path fill="none" stroke="#63b8ff" d="M177.52,-229C169.04,-229 160.48,-229 152.11,-229"/>
<polygon fill="#63b8ff" stroke="#63b8ff" points="177.79,-232.5 187.79,-229 177.79,-225.5 177.79,-232.5"/>
</a>
</g>
</g>
<!-- Node10 -->
<g id="Node000010" class="node">
<title>Node10</title>
<g id="a_Node000010"><a xlink:href="../../dc/d25/classSymbolicExpr.html#a3b4cc1669b1b117b15cc82783a22b4fc" target="_top" xlink:title="计算矩阵行列式。">
<polygon fill="white" stroke="#666666" points="712,-201.5 563,-201.5 563,-182.5 712,-182.5 712,-201.5"/>
<text text-anchor="middle" x="637.5" y="-189.5" font-family="Helvetica,sans-Serif" font-size="10.00">SymbolicExpr::determinant</text>
</a>
</g>
</g>
<!-- Node9&#45;&gt;Node10 -->
<g id="edge10_Node000009_Node000010" class="edge">
<title>Node9&#45;&gt;Node10</title>
<g id="a_edge10_Node000009_Node000010"><a xlink:title=" ">
<path fill="none" stroke="#63b8ff" d="M761.93,-195.21C745.76,-194.79 728.46,-194.34 712.08,-193.92"/>
<polygon fill="#63b8ff" stroke="#63b8ff" points="762.28,-198.72 772.37,-195.49 762.47,-191.73 762.28,-198.72"/>
</a>
</g>
</g>
<!-- Node13 -->
<g id="Node000013" class="node">
<title>Node13</title>
<g id="a_Node000013"><a xlink:href="../../dc/d25/classSymbolicExpr.html#ae608271a617ef878c81d04375538537f" target="_top" xlink:title="计算两个多项式关于指定变量的结式。">
<polygon fill="white" stroke="#666666" points="692.5,-164 582.5,-164 582.5,-134 692.5,-134 692.5,-164"/>
<text text-anchor="start" x="590.5" y="-152" font-family="Helvetica,sans-Serif" font-size="10.00">SymbolicExpr::poly</text>
<text text-anchor="middle" x="637.5" y="-141" font-family="Helvetica,sans-Serif" font-size="10.00">_resultant</text>
</a>
</g>
</g>
<!-- Node9&#45;&gt;Node13 -->
<g id="edge15_Node000009_Node000013" class="edge">
<title>Node9&#45;&gt;Node13</title>
<g id="a_edge15_Node000009_Node000013"><a xlink:title=" ">
<path fill="none" stroke="#63b8ff" d="M777.85,-185.14C767.92,-182.83 757.63,-180.38 748,-178 729.96,-173.54 710.32,-168.41 692.71,-163.73"/>
<polygon fill="#63b8ff" stroke="#63b8ff" points="777.09,-188.56 787.62,-187.4 778.66,-181.74 777.09,-188.56"/>
</a>
</g>
</g>
<!-- Node14 -->
<g id="Node000014" class="node">
<title>Node14</title>
<g id="a_Node000014"><a xlink:href="../../dc/d25/classSymbolicExpr.html#ae41c16b68c56de8d4c70a98c85722ff1" target="_top" xlink:title="计算矩阵的行最简阶梯形（RREF）。">
<polygon fill="white" stroke="#666666" points="691,-115.5 584,-115.5 584,-96.5 691,-96.5 691,-115.5"/>
<text text-anchor="middle" x="637.5" y="-103.5" font-family="Helvetica,sans-Serif" font-size="10.00">SymbolicExpr::rref</text>
</a>
</g>
</g>
<!-- Node9&#45;&gt;Node14 -->
<g id="edge16_Node000009_Node000014" class="edge">
<title>Node9&#45;&gt;Node14</title>
<g id="a_edge16_Node000009_Node000014"><a xlink:title=" ">
<path fill="none" stroke="#63b8ff" d="M762.73,-185.91C757.53,-183.72 752.55,-181.11 748,-178 724.5,-161.92 735.28,-141.4 712,-125 705.75,-120.6 698.56,-117.22 691.17,-114.62"/>
<polygon fill="#63b8ff" stroke="#63b8ff" points="761.67,-189.25 772.27,-189.4 764.08,-182.67 761.67,-189.25"/>
</a>
</g>
</g>
<!-- Node10&#45;&gt;Node10 -->
<g id="edge13_Node000010_Node000010" class="edge">
<title>Node10&#45;&gt;Node10</title>
<g id="a_edge13_Node000010_Node000010"><a xlink:title=" ">
<path fill="none" stroke="#63b8ff" d="M672.36,-209.57C671.85,-215.12 660.23,-219.5 637.5,-219.5 604.44,-219.5 594.89,-210.23 608.83,-201.58"/>
<polygon fill="#63b8ff" stroke="#63b8ff" points="675.06,-207.34 666.17,-201.58 669.53,-211.63 675.06,-207.34"/>
</a>
</g>
</g>
<!-- Node11 -->
<g id="Node000011" class="node">
<title>Node11</title>
<g id="a_Node000011"><a xlink:href="../../dc/d25/classSymbolicExpr.html#a6e8c5c20af88337d449cbf5771d5d28d" target="_top" xlink:title="计算矩阵的特征多项式。">
<polygon fill="white" stroke="#666666" points="515.5,-219.5 384.5,-219.5 384.5,-200.5 515.5,-200.5 515.5,-219.5"/>
<text text-anchor="middle" x="450" y="-207.5" font-family="Helvetica,sans-Serif" font-size="10.00">SymbolicExpr::charpoly</text>
</a>
</g>
</g>
<!-- Node10&#45;&gt;Node11 -->
<g id="edge11_Node000010_Node000011" class="edge">
<title>Node10&#45;&gt;Node11</title>
<g id="a_edge11_Node000010_Node000011"><a xlink:title=" ">
<path fill="none" stroke="#63b8ff" d="M552.61,-200.14C540.25,-201.34 527.68,-202.56 515.79,-203.71"/>
<polygon fill="#63b8ff" stroke="#63b8ff" points="553.3,-203.59 562.92,-199.14 552.63,-196.62 553.3,-203.59"/>
</a>
</g>
</g>
<!-- Node12 -->
<g id="Node000012" class="node">
<title>Node12</title>
<g id="a_Node000012"><a xlink:href="../../d1/d42/namespacelamina.html#a35783093777191a0254b7f3a2340e0f5" target="_top" xlink:title="计算符号矩阵的行列式">
<polygon fill="white" stroke="#666666" points="527,-182.5 373,-182.5 373,-163.5 527,-163.5 527,-182.5"/>
<text text-anchor="middle" x="450" y="-170.5" font-family="Helvetica,sans-Serif" font-size="10.00">lamina::matrix_determinant</text>
</a>
</g>
</g>
<!-- Node10&#45;&gt;Node12 -->
<g id="edge14_Node000010_Node000012" class="edge">
<title>Node10&#45;&gt;Node12</title>
<g id="a_edge14_Node000010_Node000012"><a xlink:title=" ">
<path fill="none" stroke="#63b8ff" d="M552.93,-183.44C544.37,-182.56 535.71,-181.68 527.23,-180.81"/>
<polygon fill="#63b8ff" stroke="#63b8ff" points="552.61,-186.93 562.92,-184.46 553.33,-179.96 552.61,-186.93"/>
</a>
</g>
</g>
<!-- Node11&#45;&gt;Node7 -->
<g id="edge12_Node000011_Node000007" class="edge">
<title>Node11&#45;&gt;Node7</title>
<g id="a_edge12_Node000011_Node000007"><a xlink:title=" ">
<path fill="none" stroke="#63b8ff" d="M374.22,-217.66C361.98,-218.91 349.31,-220.21 337.1,-221.46"/>
<polygon fill="#63b8ff" stroke="#63b8ff" points="374.79,-221.12 384.38,-216.62 374.08,-214.16 374.79,-221.12"/>
</a>
</g>
</g>
<!-- Node15 -->
<g id="Node000015" class="node">
<title>Node15</title>
<g id="a_Node000015"><a xlink:href="../../dc/d25/classSymbolicExpr.html#afa1c1c57bb6c77da5d016f69eaa60703" target="_top" xlink:title="计算矩阵的逆。">
<polygon fill="white" stroke="#666666" points="512.5,-115.5 387.5,-115.5 387.5,-96.5 512.5,-96.5 512.5,-115.5"/>
<text text-anchor="middle" x="450" y="-103.5" font-family="Helvetica,sans-Serif" font-size="10.00">SymbolicExpr::inverse</text>
</a>
</g>
</g>
<!-- Node14&#45;&gt;Node15 -->
<g id="edge17_Node000014_Node000015" class="edge">
<title>Node14&#45;&gt;Node15</title>
<g id="a_edge17_Node000014_Node000015"><a xlink:title=" ">
<path fill="none" stroke="#63b8ff" d="M573.74,-106C554.02,-106 532.29,-106 512.65,-106"/>
<polygon fill="#63b8ff" stroke="#63b8ff" points="573.84,-109.5 583.84,-106 573.84,-102.5 573.84,-109.5"/>
</a>
</g>
</g>
<!-- Node16 -->
<g id="Node000016" class="node">
<title>Node16</title>
<g id="a_Node000016"><a xlink:href="../../d1/d42/namespacelamina.html#a972455b000c18e71aefd4a84a5708edf" target="_top" xlink:title="计算符号矩阵的逆矩阵">
<polygon fill="white" stroke="#666666" points="327.5,-115.5 197.5,-115.5 197.5,-96.5 327.5,-96.5 327.5,-115.5"/>
<text text-anchor="middle" x="262.5" y="-103.5" font-family="Helvetica,sans-Serif" font-size="10.00">lamina::matrix_inverse</text>
</a>
</g>
</g>
<!-- Node15&#45;&gt;Node16 -->
<g id="edge18_Node000015_Node000016" class="edge">
<title>Node15&#45;&gt;Node16</title>
<g id="a_edge18_Node000015_Node000016"><a xlink:title=" ">
<path fill="none" stroke="#63b8ff" d="M377.43,-106C361.06,-106 343.75,-106 327.7,-106"/>
<polygon fill="#63b8ff" stroke="#63b8ff" points="377.49,-109.5 387.49,-106 377.49,-102.5 377.49,-109.5"/>
</a>
</g>
</g>
<!-- Node17&#45;&gt;Node2 -->
<g id="edge20_Node000017_Node000002" class="edge">
<title>Node17&#45;&gt;Node2</title>
<g id="a_edge20_Node000017_Node000002"><a xlink:title=" ">
<path fill="none" stroke="#63b8ff" d="M885.16,-26.84C895.09,-29.15 905.37,-31.6 915,-34 1148.81,-92.18 1428.29,-169.68 1523.95,-196.44"/>
<polygon fill="#63b8ff" stroke="#63b8ff" points="885.92,-23.42 875.39,-24.58 884.34,-30.24 885.92,-23.42"/>
</a>
</g>
</g>
<!-- Node19 -->
<g id="Node000019" class="node">
<title>Node19</title>
<g id="a_Node000019"><a xlink:href="../../d6/da9/classlamina_1_1ParametricSolver.html#a74760afed4b871db5baef1d0c7eef09e" target="_top" xlink:title="求解含参方程组，返回所有解">
<polygon fill="white" stroke="#666666" points="707.5,-78 567.5,-78 567.5,-48 707.5,-48 707.5,-78"/>
<text text-anchor="start" x="575.5" y="-66" font-family="Helvetica,sans-Serif" font-size="10.00">lamina::ParametricSolver</text>
<text text-anchor="middle" x="637.5" y="-55" font-family="Helvetica,sans-Serif" font-size="10.00">::solve_system</text>
</a>
</g>
</g>
<!-- Node18&#45;&gt;Node19 -->
<g id="edge23_Node000018_Node000019" class="edge">
<title>Node18&#45;&gt;Node19</title>
<g id="a_edge23_Node000018_Node000019"><a xlink:title=" ">
<path fill="none" stroke="#63b8ff" d="M755.67,-134.51C753.03,-133.11 750.46,-131.61 748,-130 727.13,-116.37 732.65,-100.96 712,-87 707,-83.62 701.48,-80.68 695.79,-78.14"/>
<polygon fill="#63b8ff" stroke="#63b8ff" points="754.4,-137.78 764.93,-138.91 757.4,-131.45 754.4,-137.78"/>
</a>
</g>
</g>
<!-- Node20 -->
<g id="Node000020" class="node">
<title>Node20</title>
<g id="a_Node000020"><a xlink:href="../../dc/d25/classSymbolicExpr.html#af7245cd8dd9c4c7f7f00d3772bbbecb3" target="_top" xlink:title="求解含参数的方程组。">
<polygon fill="white" stroke="#666666" points="508,-78 392,-78 392,-48 508,-48 508,-78"/>
<text text-anchor="start" x="400" y="-66" font-family="Helvetica,sans-Serif" font-size="10.00">SymbolicExpr::solve</text>
<text text-anchor="middle" x="450" y="-55" font-family="Helvetica,sans-Serif" font-size="10.00">_system</text>
</a>
</g>
</g>
<!-- Node19&#45;&gt;Node20 -->
<g id="edge24_Node000019_Node000020" class="edge">
<title>Node19&#45;&gt;Node20</title>
<g id="a_edge24_Node000019_Node000020"><a xlink:title=" ">
<path fill="none" stroke="#63b8ff" d="M557.22,-63C540.68,-63 523.55,-63 508,-63"/>
<polygon fill="#63b8ff" stroke="#63b8ff" points="557.43,-66.5 567.43,-63 557.43,-59.5 557.43,-66.5"/>
</a>
</g>
</g>
<!-- Node21 -->
<g id="Node000021" class="node">
<title>Node21</title>
<g id="a_Node000021"><a xlink:href="../../d6/da9/classlamina_1_1ParametricSolver.html#aee41c6cf8efdfc5c7485cd104981d95b" target="_top" xlink:title="求解含参方程组，返回按参数条件分段的解">
<polygon fill="white" stroke="#666666" points="522,-30 378,-30 378,0 522,0 522,-30"/>
<text text-anchor="start" x="386" y="-18" font-family="Helvetica,sans-Serif" font-size="10.00">lamina::ParametricSolver</text>
<text text-anchor="middle" x="450" y="-7" font-family="Helvetica,sans-Serif" font-size="10.00">::solve_system_piecewise</text>
</a>
</g>
</g>
<!-- Node19&#45;&gt;Node21 -->
<g id="edge25_Node000019_Node000021" class="edge">
<title>Node19&#45;&gt;Node21</title>
<g id="a_edge25_Node000019_Node000021"><a xlink:title=" ">
<path fill="none" stroke="#63b8ff" d="M568.56,-45.42C549.01,-40.36 527.87,-34.89 508.98,-30"/>
<polygon fill="#63b8ff" stroke="#63b8ff" points="567.76,-48.83 578.32,-47.94 569.51,-42.05 567.76,-48.83"/>
</a>
</g>
</g>
</g>
</svg>
