<?xml version="1.0" encoding="UTF-8" standalone="no"?>
<!DOCTYPE svg PUBLIC "-//W3C//DTD SVG 1.1//EN"
 "http://www.w3.org/Graphics/SVG/1.1/DTD/svg11.dtd">
<!-- Generated by graphviz version 2.43.0 (0)
 -->
<!-- Title: lamina::complex_locus_perpendicular_bisector Pages: 1 -->
<svg width="473pt" height="270pt"
 viewBox="0.00 0.00 473.00 270.00" xmlns="http://www.w3.org/2000/svg" xmlns:xlink="http://www.w3.org/1999/xlink">
<g id="graph0" class="graph" transform="scale(1 1) rotate(0) translate(4 266)">
<title>lamina::complex_locus_perpendicular_bisector</title>
<!-- Node1 -->
<g id="Node000001" class="node">
<title>Node1</title>
<g id="a_Node000001"><a xlink:title="生成复数 a 和 b 的中垂线轨迹方程 |z &#45; a| = |z &#45; b|">
<polygon fill="#999999" stroke="#666666" points="133,-118.5 0,-118.5 0,-88.5 133,-88.5 133,-118.5"/>
<text text-anchor="start" x="8" y="-106.5" font-family="Helvetica,sans-Serif" font-size="10.00">lamina::complex_locus</text>
<text text-anchor="middle" x="66.5" y="-95.5" font-family="Helvetica,sans-Serif" font-size="10.00">_perpendicular_bisector</text>
</a>
</g>
</g>
<!-- Node2 -->
<g id="Node000002" class="node">
<title>Node2</title>
<g id="a_Node000002"><a xlink:href="../../d1/d42/namespacelamina.html#acc0292a0b84a20ce533dbae7179867c7" target="_top" xlink:title="计算复数的模">
<polygon fill="white" stroke="#666666" points="294,-208 173,-208 173,-189 294,-189 294,-208"/>
<text text-anchor="middle" x="233.5" y="-196" font-family="Helvetica,sans-Serif" font-size="10.00">lamina::complex_abs</text>
</a>
</g>
</g>
<!-- Node1&#45;&gt;Node2 -->
<g id="edge1_Node000001_Node000002" class="edge">
<title>Node1&#45;&gt;Node2</title>
<g id="a_edge1_Node000001_Node000002"><a xlink:title=" ">
<path fill="none" stroke="#63b8ff" d="M86.04,-118.61C105.73,-134.12 138.19,-158.23 169,-174.5 176.64,-178.53 185.11,-182.23 193.31,-185.44"/>
<polygon fill="#63b8ff" stroke="#63b8ff" points="192.16,-188.75 202.75,-188.99 194.62,-182.19 192.16,-188.75"/>
</a>
</g>
</g>
<!-- Node4 -->
<g id="Node000004" class="node">
<title>Node4</title>
<g id="a_Node000004"><a xlink:href="../../dc/d25/classSymbolicExpr.html#adeb760bb6f4f28879108394537eca293" target="_top" xlink:title="创建整数数值表达式。">
<polygon fill="white" stroke="#666666" points="463,-188 336,-188 336,-169 463,-169 463,-188"/>
<text text-anchor="middle" x="399.5" y="-176" font-family="Helvetica,sans-Serif" font-size="10.00">SymbolicExpr::number</text>
</a>
</g>
</g>
<!-- Node1&#45;&gt;Node4 -->
<g id="edge13_Node000001_Node000004" class="edge">
<title>Node1&#45;&gt;Node4</title>
<g id="a_edge13_Node000001_Node000004"><a xlink:title=" ">
<path fill="none" stroke="#63b8ff" d="M103.62,-118.52C122.78,-126.01 146.87,-134.69 169,-140.5 220.75,-154.09 280.4,-163.79 325.91,-169.99"/>
<polygon fill="#63b8ff" stroke="#63b8ff" points="325.61,-173.48 335.99,-171.34 326.54,-166.54 325.61,-173.48"/>
</a>
</g>
</g>
<!-- Node7 -->
<g id="Node000007" class="node">
<title>Node7</title>
<g id="a_Node000007"><a xlink:href="../../d1/d42/namespacelamina.html#a69d4b8c2914f0e96fe5a3411f4469367" target="_top" xlink:title="复数减法">
<polygon fill="white" stroke="#666666" points="294,-132 173,-132 173,-113 294,-113 294,-132"/>
<text text-anchor="middle" x="233.5" y="-120" font-family="Helvetica,sans-Serif" font-size="10.00">lamina::complex_sub</text>
</a>
</g>
</g>
<!-- Node1&#45;&gt;Node7 -->
<g id="edge6_Node000001_Node000007" class="edge">
<title>Node1&#45;&gt;Node7</title>
<g id="a_edge6_Node000001_Node000007"><a xlink:title=" ">
<path fill="none" stroke="#63b8ff" d="M133.19,-111.06C142.92,-112.19 152.99,-113.34 162.81,-114.47"/>
<polygon fill="#63b8ff" stroke="#63b8ff" points="162.59,-117.97 172.92,-115.64 163.39,-111.02 162.59,-117.97"/>
</a>
</g>
</g>
<!-- Node8 -->
<g id="Node000008" class="node">
<title>Node8</title>
<g id="a_Node000008"><a xlink:href="../../d1/d42/namespacelamina.html#aac4b0272dad9989fa97b2c14d8ee8e24" target="_top" xlink:title="构造符号复数">
<polygon fill="white" stroke="#666666" points="465,-77 334,-77 334,-58 465,-58 465,-77"/>
<text text-anchor="middle" x="399.5" y="-65" font-family="Helvetica,sans-Serif" font-size="10.00">lamina::make_complex</text>
</a>
</g>
</g>
<!-- Node1&#45;&gt;Node8 -->
<g id="edge12_Node000001_Node000008" class="edge">
<title>Node1&#45;&gt;Node8</title>
<g id="a_edge12_Node000001_Node000008"><a xlink:title=" ">
<path fill="none" stroke="#63b8ff" d="M133.29,-96.34C188.25,-90.37 266.59,-81.85 323.88,-75.62"/>
<polygon fill="#63b8ff" stroke="#63b8ff" points="324.4,-79.08 333.96,-74.52 323.64,-72.12 324.4,-79.08"/>
</a>
</g>
</g>
<!-- Node10 -->
<g id="Node000010" class="node">
<title>Node10</title>
<g id="a_Node000010"><a xlink:href="../../dc/d25/classSymbolicExpr.html#a641c74726a8c56e9b0e28bd4b282783f" target="_top" xlink:title="创建等式关系表达式 lhs = rhs。">
<polygon fill="white" stroke="#666666" points="284,-56 183,-56 183,-37 284,-37 284,-56"/>
<text text-anchor="middle" x="233.5" y="-44" font-family="Helvetica,sans-Serif" font-size="10.00">SymbolicExpr::eq</text>
</a>
</g>
</g>
<!-- Node1&#45;&gt;Node10 -->
<g id="edge11_Node000001_Node000010" class="edge">
<title>Node1&#45;&gt;Node10</title>
<g id="a_edge11_Node000001_Node000010"><a xlink:title=" ">
<path fill="none" stroke="#63b8ff" d="M111.28,-88.37C137.41,-79.35 170.24,-68.01 195.14,-59.41"/>
<polygon fill="#63b8ff" stroke="#63b8ff" points="196.3,-62.71 204.6,-56.14 194.01,-56.09 196.3,-62.71"/>
</a>
</g>
</g>
<!-- Node11 -->
<g id="Node000011" class="node">
<title>Node11</title>
<g id="a_Node000011"><a xlink:href="../../dc/d25/classSymbolicExpr.html#a1718e8c497b928507b31acb089cc64ff" target="_top" xlink:title="创建变量表达式。">
<polygon fill="white" stroke="#666666" points="298,-19 169,-19 169,0 298,0 298,-19"/>
<text text-anchor="middle" x="233.5" y="-7" font-family="Helvetica,sans-Serif" font-size="10.00">SymbolicExpr::variable</text>
</a>
</g>
</g>
<!-- Node1&#45;&gt;Node11 -->
<g id="edge14_Node000001_Node000011" class="edge">
<title>Node1&#45;&gt;Node11</title>
<g id="a_edge14_Node000001_Node000011"><a xlink:title=" ">
<path fill="none" stroke="#63b8ff" d="M83.83,-88.24C102.9,-71.18 136.05,-43.8 169,-27.5 172.76,-25.64 176.73,-23.95 180.79,-22.41"/>
<polygon fill="#63b8ff" stroke="#63b8ff" points="182.05,-25.68 190.35,-19.09 179.76,-19.06 182.05,-25.68"/>
</a>
</g>
</g>
<!-- Node3 -->
<g id="Node000003" class="node">
<title>Node3</title>
<g id="a_Node000003"><a xlink:href="../../dc/d25/classSymbolicExpr.html#ac8782568f037f8055277e5d8b80ec6d6" target="_top" xlink:title="创建加法表达式。">
<polygon fill="white" stroke="#666666" points="453,-151 346,-151 346,-132 453,-132 453,-151"/>
<text text-anchor="middle" x="399.5" y="-139" font-family="Helvetica,sans-Serif" font-size="10.00">SymbolicExpr::add</text>
</a>
</g>
</g>
<!-- Node2&#45;&gt;Node3 -->
<g id="edge2_Node000002_Node000003" class="edge">
<title>Node2&#45;&gt;Node3</title>
<g id="a_edge2_Node000002_Node000003"><a xlink:title=" ">
<path fill="none" stroke="#63b8ff" d="M258.03,-188.91C278.08,-180.89 307.72,-169.37 334,-160.5 340.54,-158.29 347.5,-156.09 354.33,-154.01"/>
<polygon fill="#63b8ff" stroke="#63b8ff" points="355.62,-157.28 364.2,-151.06 353.62,-150.57 355.62,-157.28"/>
</a>
</g>
</g>
<!-- Node2&#45;&gt;Node4 -->
<g id="edge3_Node000002_Node000004" class="edge">
<title>Node2&#45;&gt;Node4</title>
<g id="a_edge3_Node000002_Node000004"><a xlink:title=" ">
<path fill="none" stroke="#63b8ff" d="M294.17,-191.22C304.44,-189.97 315.22,-188.66 325.79,-187.37"/>
<polygon fill="#63b8ff" stroke="#63b8ff" points="326.33,-190.83 335.84,-186.14 325.49,-183.88 326.33,-190.83"/>
</a>
</g>
</g>
<!-- Node5 -->
<g id="Node000005" class="node">
<title>Node5</title>
<g id="a_Node000005"><a xlink:href="../../dc/d25/classSymbolicExpr.html#ab03922681e30190ba7c73d2c1e58aa40" target="_top" xlink:title="创建幂运算表达式。">
<polygon fill="white" stroke="#666666" points="459,-262 340,-262 340,-243 459,-243 459,-262"/>
<text text-anchor="middle" x="399.5" y="-250" font-family="Helvetica,sans-Serif" font-size="10.00">SymbolicExpr::power</text>
</a>
</g>
</g>
<!-- Node2&#45;&gt;Node5 -->
<g id="edge4_Node000002_Node000005" class="edge">
<title>Node2&#45;&gt;Node5</title>
<g id="a_edge4_Node000002_Node000005"><a xlink:title=" ">
<path fill="none" stroke="#63b8ff" d="M259.27,-208.05C279.29,-215.62 308.28,-226.27 334,-234.5 340.03,-236.43 346.42,-238.35 352.73,-240.19"/>
<polygon fill="#63b8ff" stroke="#63b8ff" points="351.96,-243.6 362.54,-242.98 353.88,-236.87 351.96,-243.6"/>
</a>
</g>
</g>
<!-- Node6 -->
<g id="Node000006" class="node">
<title>Node6</title>
<g id="a_Node000006"><a xlink:href="../../dc/d25/classSymbolicExpr.html#a521dfd712070d4f40d313de79d3f637c" target="_top" xlink:title="创建平方根表达式，等价于 operand^(1/2)。">
<polygon fill="white" stroke="#666666" points="453.5,-225 345.5,-225 345.5,-206 453.5,-206 453.5,-225"/>
<text text-anchor="middle" x="399.5" y="-213" font-family="Helvetica,sans-Serif" font-size="10.00">SymbolicExpr::sqrt</text>
</a>
</g>
</g>
<!-- Node2&#45;&gt;Node6 -->
<g id="edge5_Node000002_Node000006" class="edge">
<title>Node2&#45;&gt;Node6</title>
<g id="a_edge5_Node000002_Node000006"><a xlink:title=" ">
<path fill="none" stroke="#63b8ff" d="M294.17,-204.69C307.53,-206.07 321.74,-207.54 335.23,-208.94"/>
<polygon fill="#63b8ff" stroke="#63b8ff" points="335.08,-212.44 345.39,-209.99 335.8,-205.48 335.08,-212.44"/>
</a>
</g>
</g>
<!-- Node7&#45;&gt;Node3 -->
<g id="edge7_Node000007_Node000003" class="edge">
<title>Node7&#45;&gt;Node3</title>
<g id="a_edge7_Node000007_Node000003"><a xlink:title=" ">
<path fill="none" stroke="#63b8ff" d="M294.17,-129.41C307.67,-130.98 322.05,-132.64 335.68,-134.22"/>
<polygon fill="#63b8ff" stroke="#63b8ff" points="335.59,-137.73 345.92,-135.41 336.39,-130.78 335.59,-137.73"/>
</a>
</g>
</g>
<!-- Node7&#45;&gt;Node4 -->
<g id="edge10_Node000007_Node000004" class="edge">
<title>Node7&#45;&gt;Node4</title>
<g id="a_edge10_Node000007_Node000004"><a xlink:title=" ">
<path fill="none" stroke="#63b8ff" d="M259.86,-132.02C271.49,-136.4 285.46,-141.69 298,-146.5 314.03,-152.65 317.71,-155.08 334,-160.5 339.72,-162.41 345.78,-164.28 351.79,-166.05"/>
<polygon fill="#63b8ff" stroke="#63b8ff" points="351.23,-169.54 361.81,-168.94 353.17,-162.81 351.23,-169.54"/>
</a>
</g>
</g>
<!-- Node7&#45;&gt;Node8 -->
<g id="edge8_Node000007_Node000008" class="edge">
<title>Node7&#45;&gt;Node8</title>
<g id="a_edge8_Node000007_Node000008"><a xlink:title=" ">
<path fill="none" stroke="#63b8ff" d="M260.05,-112.87C287.05,-102.72 326.73,-87.86 334,-85.5 339.95,-83.57 346.25,-81.65 352.49,-79.83"/>
<polygon fill="#63b8ff" stroke="#63b8ff" points="353.53,-83.17 362.18,-77.06 351.6,-76.44 353.53,-83.17"/>
</a>
</g>
</g>
<!-- Node9 -->
<g id="Node000009" class="node">
<title>Node9</title>
<g id="a_Node000009"><a xlink:href="../../dc/d25/classSymbolicExpr.html#ad03189fc8a4db7762f7c1ca890674bbc" target="_top" xlink:title="创建乘法表达式。">
<polygon fill="white" stroke="#666666" points="464.5,-114 334.5,-114 334.5,-95 464.5,-95 464.5,-114"/>
<text text-anchor="middle" x="399.5" y="-102" font-family="Helvetica,sans-Serif" font-size="10.00">SymbolicExpr::multiply</text>
</a>
</g>
</g>
<!-- Node7&#45;&gt;Node9 -->
<g id="edge9_Node000007_Node000009" class="edge">
<title>Node7&#45;&gt;Node9</title>
<g id="a_edge9_Node000007_Node000009"><a xlink:title=" ">
<path fill="none" stroke="#63b8ff" d="M294.17,-115.95C303.99,-114.87 314.28,-113.74 324.4,-112.63"/>
<polygon fill="#63b8ff" stroke="#63b8ff" points="324.89,-116.1 334.45,-111.53 324.13,-109.14 324.89,-116.1"/>
</a>
</g>
</g>
</g>
</svg>
