<?xml version="1.0" encoding="UTF-8" standalone="no"?>
<!DOCTYPE svg PUBLIC "-//W3C//DTD SVG 1.1//EN"
 "http://www.w3.org/Graphics/SVG/1.1/DTD/svg11.dtd">
<!-- Generated by graphviz version 2.43.0 (0)
 -->
<!-- Title: lamina::determine_leading_sign Pages: 1 -->
<svg width="732pt" height="119pt"
 viewBox="0.00 0.00 732.00 119.00" xmlns="http://www.w3.org/2000/svg" xmlns:xlink="http://www.w3.org/1999/xlink">
<g id="graph0" class="graph" transform="scale(1 1) rotate(0) translate(4 115)">
<title>lamina::determine_leading_sign</title>
<!-- Node1 -->
<g id="Node000001" class="node">
<title>Node1</title>
<g id="a_Node000001"><a xlink:title=" ">
<polygon fill="#999999" stroke="#666666" points="724,-48.5 551,-48.5 551,-29.5 724,-29.5 724,-48.5"/>
<text text-anchor="middle" x="637.5" y="-36.5" font-family="Helvetica,sans-Serif" font-size="10.00">lamina::determine_leading_sign</text>
</a>
</g>
</g>
<!-- Node2 -->
<g id="Node000002" class="node">
<title>Node2</title>
<g id="a_Node000002"><a xlink:href="../../db/d26/classlamina_1_1InequalitySolver.html#a7d51c2516b711ff1af4d1f85895b57f1" target="_top" xlink:title=" ">
<polygon fill="white" stroke="#666666" points="510,-78 374,-78 374,-48 510,-48 510,-78"/>
<text text-anchor="start" x="382" y="-66" font-family="Helvetica,sans-Serif" font-size="10.00">lamina::InequalitySolver</text>
<text text-anchor="middle" x="442" y="-55" font-family="Helvetica,sans-Serif" font-size="10.00">::build_sign_chart</text>
</a>
</g>
</g>
<!-- Node1&#45;&gt;Node2 -->
<g id="edge1_Node000001_Node000002" class="edge">
<title>Node1&#45;&gt;Node2</title>
<g id="a_edge1_Node000001_Node000002"><a xlink:title=" ">
<path fill="none" stroke="#63b8ff" d="M549.7,-49.77C536.47,-51.41 523,-53.08 510.27,-54.66"/>
<polygon fill="#63b8ff" stroke="#63b8ff" points="550.25,-53.22 559.75,-48.52 549.39,-46.28 550.25,-53.22"/>
</a>
</g>
</g>
<!-- Node6 -->
<g id="Node000006" class="node">
<title>Node6</title>
<g id="a_Node000006"><a xlink:href="../../db/d26/classlamina_1_1InequalitySolver.html#a2244f0ce0ad6b3b5781a8c7ced636447" target="_top" xlink:title="求解有理不等式 numerator/denominator ≷ 0">
<polygon fill="white" stroke="#666666" points="515,-30 369,-30 369,0 515,0 515,-30"/>
<text text-anchor="start" x="377" y="-18" font-family="Helvetica,sans-Serif" font-size="10.00">lamina::InequalitySolver</text>
<text text-anchor="middle" x="442" y="-7" font-family="Helvetica,sans-Serif" font-size="10.00">::solve_rational_inequality</text>
</a>
</g>
</g>
<!-- Node1&#45;&gt;Node6 -->
<g id="edge6_Node000001_Node000006" class="edge">
<title>Node1&#45;&gt;Node6</title>
<g id="a_edge6_Node000001_Node000006"><a xlink:title=" ">
<path fill="none" stroke="#63b8ff" d="M549.69,-28.23C538.18,-26.81 526.48,-25.35 515.25,-23.96"/>
<polygon fill="#63b8ff" stroke="#63b8ff" points="549.39,-31.72 559.75,-29.48 550.25,-24.78 549.39,-31.72"/>
</a>
</g>
</g>
<!-- Node3 -->
<g id="Node000003" class="node">
<title>Node3</title>
<g id="a_Node000003"><a xlink:href="../../db/d26/classlamina_1_1InequalitySolver.html#ad7aab28f2d96ad0eb07ff291a650afb8" target="_top" xlink:title="求解单个不等式">
<polygon fill="white" stroke="#666666" points="333,-78 197,-78 197,-48 333,-48 333,-78"/>
<text text-anchor="start" x="205" y="-66" font-family="Helvetica,sans-Serif" font-size="10.00">lamina::InequalitySolver</text>
<text text-anchor="middle" x="265" y="-55" font-family="Helvetica,sans-Serif" font-size="10.00">::solve_inequality</text>
</a>
</g>
</g>
<!-- Node2&#45;&gt;Node3 -->
<g id="edge2_Node000002_Node000003" class="edge">
<title>Node2&#45;&gt;Node3</title>
<g id="a_edge2_Node000002_Node000003"><a xlink:title=" ">
<path fill="none" stroke="#63b8ff" d="M363.76,-63C353.6,-63 343.25,-63 333.27,-63"/>
<polygon fill="#63b8ff" stroke="#63b8ff" points="363.84,-66.5 373.84,-63 363.84,-59.5 363.84,-66.5"/>
</a>
</g>
</g>
<!-- Node4 -->
<g id="Node000004" class="node">
<title>Node4</title>
<g id="a_Node000004"><a xlink:href="../../db/d26/classlamina_1_1InequalitySolver.html#ac97e2561a906111e54c90d494d0fef92" target="_top" xlink:title="求解不等式组（取交集）">
<polygon fill="white" stroke="#666666" points="148.5,-111 12.5,-111 12.5,-81 148.5,-81 148.5,-111"/>
<text text-anchor="start" x="20.5" y="-99" font-family="Helvetica,sans-Serif" font-size="10.00">lamina::InequalitySolver</text>
<text text-anchor="middle" x="80.5" y="-88" font-family="Helvetica,sans-Serif" font-size="10.00">::solve_inequalities</text>
</a>
</g>
</g>
<!-- Node3&#45;&gt;Node4 -->
<g id="edge3_Node000003_Node000004" class="edge">
<title>Node3&#45;&gt;Node4</title>
<g id="a_edge3_Node000003_Node000004"><a xlink:title=" ">
<path fill="none" stroke="#63b8ff" d="M186.73,-76.97C174.03,-79.27 160.96,-81.63 148.54,-83.88"/>
<polygon fill="#63b8ff" stroke="#63b8ff" points="187.6,-80.37 196.82,-75.15 186.36,-73.48 187.6,-80.37"/>
</a>
</g>
</g>
<!-- Node5 -->
<g id="Node000005" class="node">
<title>Node5</title>
<g id="a_Node000005"><a xlink:href="../../db/d26/classlamina_1_1InequalitySolver.html#a52f3cb8d15f7d98c4cfe1d8c39f910fc" target="_top" xlink:title="求解含参数的不等式，返回分段结果">
<polygon fill="white" stroke="#666666" points="161,-45 0,-45 0,-15 161,-15 161,-45"/>
<text text-anchor="start" x="8" y="-33" font-family="Helvetica,sans-Serif" font-size="10.00">lamina::InequalitySolver</text>
<text text-anchor="middle" x="80.5" y="-22" font-family="Helvetica,sans-Serif" font-size="10.00">::solve_parametric_inequality</text>
</a>
</g>
</g>
<!-- Node3&#45;&gt;Node5 -->
<g id="edge4_Node000003_Node000005" class="edge">
<title>Node3&#45;&gt;Node5</title>
<g id="a_edge4_Node000003_Node000005"><a xlink:title=" ">
<path fill="none" stroke="#63b8ff" d="M186.93,-49.06C178.42,-47.53 169.75,-45.96 161.21,-44.41"/>
<polygon fill="#63b8ff" stroke="#63b8ff" points="186.36,-52.52 196.82,-50.85 187.6,-45.63 186.36,-52.52"/>
</a>
</g>
</g>
<!-- Node5&#45;&gt;Node5 -->
<g id="edge5_Node000005_Node000005" class="edge">
<title>Node5&#45;&gt;Node5</title>
<g id="a_edge5_Node000005_Node000005"><a xlink:title=" ">
<path fill="none" stroke="#63b8ff" d="M112.71,-55.6C108.31,-59.97 97.57,-63 80.5,-63 51.75,-63 40.97,-54.41 48.16,-45.28"/>
<polygon fill="#63b8ff" stroke="#63b8ff" points="116.21,-55.32 112.84,-45.28 109.21,-55.23 116.21,-55.32"/>
</a>
</g>
</g>
</g>
</svg>
