<?xml version="1.0" encoding="UTF-8" standalone="no"?>
<!DOCTYPE svg PUBLIC "-//W3C//DTD SVG 1.1//EN"
 "http://www.w3.org/Graphics/SVG/1.1/DTD/svg11.dtd">
<!-- Generated by graphviz version 2.43.0 (0)
 -->
<!-- Title: lamina::find_rational_roots Pages: 1 -->
<!--zoomable 467 -->

<svg id="main" version="1.1" xmlns="http://www.w3.org/2000/svg" xmlns:xlink="http://www.w3.org/1999/xlink" xml:space="preserve" onload="init(evt)">
<style type="text/css"><![CDATA[
.node, .edge {opacity: 0.7;}
.node.selected, .edge.selected {opacity: 1;}
.edge:hover path { stroke: red; }
.edge:hover polygon { stroke: red; fill: red; }
]]></style>

<defs>
  <circle id="rim" cx="0" cy="0" r="7"/>
  <circle id="rim2" cx="0" cy="0" r="3.5"/>
  <g id="zoomPlus">
    <use xlink:href="#rim" fill="#404040"><set attributeName="fill" to="#808080" begin="zoomplus.mouseover" end="zoomplus.mouseout"/></use>
    <path d="M-4,0h8M0,-4v8" fill="none" stroke="white" stroke-width="1.5" pointer-events="none"/>
  </g>
  <g id="zoomMin">
    <use xlink:href="#rim" fill="#404040"><set attributeName="fill" to="#808080" begin="zoomminus.mouseover" end="zoomminus.mouseout"/></use>
    <path d="M-4,0h8" fill="none" stroke="white" stroke-width="1.5" pointer-events="none"/>
  </g>
  <g id="arrowUp" transform="translate(30 24)">
    <use xlink:href="#rim"/>
    <path pointer-events="none" fill="none" stroke="white" stroke-width="1.5" d="M0,-3.0v7 M-2.5,-0.5L0,-3.0L2.5,-0.5"/>
  </g>
  <g id="arrowRight" transform="rotate(90) translate(36 -43)">
    <use xlink:href="#rim"/>
    <path pointer-events="none" fill="none" stroke="white" stroke-width="1.5" d="M0,-3.0v7 M-2.5,-0.5L0,-3.0L2.5,-0.5"/>
  </g>
  <g id="arrowDown" transform="rotate(180) translate(-30 -48)">
    <use xlink:href="#rim"/>
    <path pointer-events="none" fill="none" stroke="white" stroke-width="1.5" d="M0,-3.0v7 M-2.5,-0.5L0,-3.0L2.5,-0.5"/>
  </g>
  <g id="arrowLeft" transform="rotate(270) translate(-36 17)">
    <use xlink:href="#rim"/>
    <path pointer-events="none" fill="none" stroke="white" stroke-width="1.5" d="M0,-3.0v7 M-2.5,-0.5L0,-3.0L2.5,-0.5"/>
  </g>
  <g id="resetDef">
    <use xlink:href="#rim2" fill="#404040"><set attributeName="fill" to="#808080" begin="reset.mouseover" end="reset.mouseout"/></use>
  </g>
</defs>
<script type="application/ecmascript">
var viewWidth = 1728;
var viewHeight = 467;
var sectionId = 'dynsection-89';
</script>
<script type="application/ecmascript" xlink:href="../../svg.min.js"/>
<svg id="graph" class="graph">
<g id="viewport">
<title>lamina::find_rational_roots</title>
<!-- Node1 -->
<g id="Node000001" class="node">
<title>Node1</title>
<g id="a_Node000001"><a xlink:title="查找有理系数多项式的所有有理根。">
<polygon fill="#999999" stroke="#666666" points="1720,-411.5 1603,-411.5 1603,-381.5 1720,-381.5 1720,-411.5"/>
<text text-anchor="start" x="1611" y="-399.5" font-family="Helvetica,sans-Serif" font-size="10.00">lamina::find_rational</text>
<text text-anchor="middle" x="1661.5" y="-388.5" font-family="Helvetica,sans-Serif" font-size="10.00">_roots</text>
</a>
</g>
</g>
<!-- Node2 -->
<g id="Node000002" class="node">
<title>Node2</title>
<g id="a_Node000002"><a xlink:href="../../de/d78/classlamina_1_1RationalDecompositionStrategy.html#a9bb1e3ff4956d041d95b06a335fd2213" target="_top" xlink:title="把 Q 分解为线性 (x&#45;r) 与不可约二次 (x²+px+q) 因子的集合。">
<polygon fill="white" stroke="#666666" points="1567,-444.5 1397,-444.5 1397,-414.5 1567,-414.5 1567,-444.5"/>
<text text-anchor="start" x="1405" y="-432.5" font-family="Helvetica,sans-Serif" font-size="10.00">lamina::RationalDecomposition</text>
<text text-anchor="middle" x="1482" y="-421.5" font-family="Helvetica,sans-Serif" font-size="10.00">Strategy::factor_denominator</text>
</a>
</g>
</g>
<!-- Node1&#45;&gt;Node2 -->
<g id="edge1_Node000001_Node000002" class="edge">
<title>Node1&#45;&gt;Node2</title>
<g id="a_edge1_Node000001_Node000002"><a xlink:title=" ">
<path fill="none" stroke="#63b8ff" d="M1592.77,-409.09C1583.32,-410.85 1573.54,-412.67 1563.88,-414.46"/>
<polygon fill="#63b8ff" stroke="#63b8ff" points="1593.68,-412.48 1602.87,-407.21 1592.4,-405.6 1593.68,-412.48"/>
</a>
</g>
</g>
<!-- Node4 -->
<g id="Node000004" class="node">
<title>Node4</title>
<g id="a_Node000004"><a xlink:href="../../d1/d42/namespacelamina.html#a775754abcc1742679dccd792de33ae6e" target="_top" xlink:title="通过因式分解求解多项式方程。">
<polygon fill="white" stroke="#666666" points="1556.5,-385 1407.5,-385 1407.5,-366 1556.5,-366 1556.5,-385"/>
<text text-anchor="middle" x="1482" y="-373" font-family="Helvetica,sans-Serif" font-size="10.00">lamina::solve_by_factoring</text>
</a>
</g>
</g>
<!-- Node1&#45;&gt;Node4 -->
<g id="edge3_Node000001_Node000004" class="edge">
<title>Node1&#45;&gt;Node4</title>
<g id="a_edge3_Node000001_Node000004"><a xlink:title=" ">
<path fill="none" stroke="#63b8ff" d="M1592.65,-388.47C1580.83,-387.07 1568.49,-385.61 1556.53,-384.2"/>
<polygon fill="#63b8ff" stroke="#63b8ff" points="1592.53,-391.98 1602.87,-389.68 1593.35,-385.03 1592.53,-391.98"/>
</a>
</g>
</g>
<!-- Node3 -->
<g id="Node000003" class="node">
<title>Node3</title>
<g id="a_Node000003"><a xlink:href="../../de/d78/classlamina_1_1RationalDecompositionStrategy.html#a1d38c4fd8068312510cc3f2f3e9df37a" target="_top" xlink:title="尝试对表达式进行积分">
<polygon fill="white" stroke="#666666" points="1361,-455.5 1191,-455.5 1191,-425.5 1361,-425.5 1361,-455.5"/>
<text text-anchor="start" x="1199" y="-443.5" font-family="Helvetica,sans-Serif" font-size="10.00">lamina::RationalDecomposition</text>
<text text-anchor="middle" x="1276" y="-432.5" font-family="Helvetica,sans-Serif" font-size="10.00">Strategy::try_integrate</text>
</a>
</g>
</g>
<!-- Node2&#45;&gt;Node3 -->
<g id="edge2_Node000002_Node000003" class="edge">
<title>Node2&#45;&gt;Node3</title>
<g id="a_edge2_Node000002_Node000003"><a xlink:title=" ">
<path fill="none" stroke="#63b8ff" d="M1386.6,-434.59C1378.15,-435.05 1369.64,-435.5 1361.29,-435.96"/>
<polygon fill="#63b8ff" stroke="#63b8ff" points="1387.05,-438.07 1396.85,-434.04 1386.67,-431.08 1387.05,-438.07"/>
</a>
</g>
</g>
<!-- Node5 -->
<g id="Node000005" class="node">
<title>Node5</title>
<g id="a_Node000005"><a xlink:href="../../d1/d42/namespacelamina.html#a67cbeb787714a13d138e663951330c38" target="_top" xlink:title=" ">
<polygon fill="white" stroke="#666666" points="1328,-369.5 1224,-369.5 1224,-339.5 1328,-339.5 1328,-369.5"/>
<text text-anchor="start" x="1232" y="-357.5" font-family="Helvetica,sans-Serif" font-size="10.00">lamina::find_roots</text>
<text text-anchor="middle" x="1276" y="-346.5" font-family="Helvetica,sans-Serif" font-size="10.00">_with_multiplicity</text>
</a>
</g>
</g>
<!-- Node4&#45;&gt;Node5 -->
<g id="edge4_Node000004_Node000005" class="edge">
<title>Node4&#45;&gt;Node5</title>
<g id="a_edge4_Node000004_Node000005"><a xlink:title=" ">
<path fill="none" stroke="#63b8ff" d="M1397.4,-366.89C1373.94,-364.48 1349.14,-361.93 1328.18,-359.77"/>
<polygon fill="#63b8ff" stroke="#63b8ff" points="1397.05,-370.38 1407.35,-367.92 1397.76,-363.41 1397.05,-370.38"/>
</a>
</g>
</g>
<!-- Node10 -->
<g id="Node000010" class="node">
<title>Node10</title>
<g id="a_Node000010"><a xlink:href="../../d1/d42/namespacelamina.html#a06e924d67656611208ba81ad13fbee8d" target="_top" xlink:title="方程求解策略调度器，根据表达式类型选择合适的求解方法。">
<polygon fill="white" stroke="#666666" points="1340.5,-181 1211.5,-181 1211.5,-162 1340.5,-162 1340.5,-181"/>
<text text-anchor="middle" x="1276" y="-169" font-family="Helvetica,sans-Serif" font-size="10.00">lamina::solve_dispatch</text>
</a>
</g>
</g>
<!-- Node4&#45;&gt;Node10 -->
<g id="edge10_Node000004_Node000010" class="edge">
<title>Node4&#45;&gt;Node10</title>
<g id="a_edge10_Node000004_Node000010"><a xlink:title=" ">
<path fill="none" stroke="#63b8ff" d="M1464.36,-358.86C1423.51,-318.01 1319.22,-213.72 1286.78,-181.28"/>
<polygon fill="#63b8ff" stroke="#63b8ff" points="1461.89,-361.34 1471.43,-365.93 1466.84,-356.39 1461.89,-361.34"/>
</a>
</g>
</g>
<!-- Node32 -->
<g id="Node000032" class="node">
<title>Node32</title>
<g id="a_Node000032"><a xlink:href="../../d1/d42/namespacelamina.html#a46027488de3bc5e327fdfe4806e8fa5b" target="_top" xlink:title=" ">
<polygon fill="white" stroke="#666666" points="1155,-433 997,-433 997,-414 1155,-414 1155,-433"/>
<text text-anchor="middle" x="1076" y="-421" font-family="Helvetica,sans-Serif" font-size="10.00">lamina::solve_symbolic_poly</text>
</a>
</g>
</g>
<!-- Node4&#45;&gt;Node32 -->
<g id="edge38_Node000004_Node000032" class="edge">
<title>Node4&#45;&gt;Node32</title>
<g id="a_edge38_Node000004_Node000032"><a xlink:title=" ">
<path fill="none" stroke="#63b8ff" d="M1397.1,-385.47C1325.99,-393.92 1224.77,-405.94 1155.29,-414.2"/>
<polygon fill="#63b8ff" stroke="#63b8ff" points="1397.85,-388.9 1407.37,-384.25 1397.03,-381.95 1397.85,-388.9"/>
</a>
</g>
</g>
<!-- Node6 -->
<g id="Node000006" class="node">
<title>Node6</title>
<g id="a_Node000006"><a xlink:href="../../db/d26/classlamina_1_1InequalitySolver.html#ad7aab28f2d96ad0eb07ff291a650afb8" target="_top" xlink:title="求解单个不等式">
<polygon fill="white" stroke="#666666" points="1144,-393.5 1008,-393.5 1008,-363.5 1144,-363.5 1144,-393.5"/>
<text text-anchor="start" x="1016" y="-381.5" font-family="Helvetica,sans-Serif" font-size="10.00">lamina::InequalitySolver</text>
<text text-anchor="middle" x="1076" y="-370.5" font-family="Helvetica,sans-Serif" font-size="10.00">::solve_inequality</text>
</a>
</g>
</g>
<!-- Node5&#45;&gt;Node6 -->
<g id="edge5_Node000005_Node000006" class="edge">
<title>Node5&#45;&gt;Node6</title>
<g id="a_edge5_Node000005_Node000006"><a xlink:title=" ">
<path fill="none" stroke="#63b8ff" d="M1213.53,-361.95C1191.5,-364.62 1166.57,-367.64 1144.09,-370.37"/>
<polygon fill="#63b8ff" stroke="#63b8ff" points="1214.25,-365.39 1223.75,-360.71 1213.4,-358.44 1214.25,-365.39"/>
</a>
</g>
</g>
<!-- Node9 -->
<g id="Node000009" class="node">
<title>Node9</title>
<g id="a_Node000009"><a xlink:href="../../db/d26/classlamina_1_1InequalitySolver.html#a2244f0ce0ad6b3b5781a8c7ced636447" target="_top" xlink:title="求解有理不等式 numerator/denominator ≷ 0">
<polygon fill="white" stroke="#666666" points="1149,-345.5 1003,-345.5 1003,-315.5 1149,-315.5 1149,-345.5"/>
<text text-anchor="start" x="1011" y="-333.5" font-family="Helvetica,sans-Serif" font-size="10.00">lamina::InequalitySolver</text>
<text text-anchor="middle" x="1076" y="-322.5" font-family="Helvetica,sans-Serif" font-size="10.00">::solve_rational_inequality</text>
</a>
</g>
</g>
<!-- Node5&#45;&gt;Node9 -->
<g id="edge9_Node000005_Node000009" class="edge">
<title>Node5&#45;&gt;Node9</title>
<g id="a_edge9_Node000005_Node000009"><a xlink:title=" ">
<path fill="none" stroke="#63b8ff" d="M1213.66,-347.06C1193.29,-344.6 1170.41,-341.82 1149.29,-339.26"/>
<polygon fill="#63b8ff" stroke="#63b8ff" points="1213.4,-350.56 1223.75,-348.29 1214.25,-343.61 1213.4,-350.56"/>
</a>
</g>
</g>
<!-- Node7 -->
<g id="Node000007" class="node">
<title>Node7</title>
<g id="a_Node000007"><a xlink:href="../../db/d26/classlamina_1_1InequalitySolver.html#ac97e2561a906111e54c90d494d0fef92" target="_top" xlink:title="求解不等式组（取交集）">
<polygon fill="white" stroke="#666666" points="945.5,-392.5 809.5,-392.5 809.5,-362.5 945.5,-362.5 945.5,-392.5"/>
<text text-anchor="start" x="817.5" y="-380.5" font-family="Helvetica,sans-Serif" font-size="10.00">lamina::InequalitySolver</text>
<text text-anchor="middle" x="877.5" y="-369.5" font-family="Helvetica,sans-Serif" font-size="10.00">::solve_inequalities</text>
</a>
</g>
</g>
<!-- Node6&#45;&gt;Node7 -->
<g id="edge6_Node000006_Node000007" class="edge">
<title>Node6&#45;&gt;Node7</title>
<g id="a_edge6_Node000006_Node000007"><a xlink:title=" ">
<path fill="none" stroke="#63b8ff" d="M997.88,-378.11C980.61,-378.02 962.43,-377.93 945.61,-377.84"/>
<polygon fill="#63b8ff" stroke="#63b8ff" points="997.91,-381.61 1007.93,-378.16 997.94,-374.61 997.91,-381.61"/>
</a>
</g>
</g>
<!-- Node8 -->
<g id="Node000008" class="node">
<title>Node8</title>
<g id="a_Node000008"><a xlink:href="../../db/d26/classlamina_1_1InequalitySolver.html#a52f3cb8d15f7d98c4cfe1d8c39f910fc" target="_top" xlink:title="求解含参数的不等式，返回分段结果">
<polygon fill="white" stroke="#666666" points="958,-440.5 797,-440.5 797,-410.5 958,-410.5 958,-440.5"/>
<text text-anchor="start" x="805" y="-428.5" font-family="Helvetica,sans-Serif" font-size="10.00">lamina::InequalitySolver</text>
<text text-anchor="middle" x="877.5" y="-417.5" font-family="Helvetica,sans-Serif" font-size="10.00">::solve_parametric_inequality</text>
</a>
</g>
</g>
<!-- Node6&#45;&gt;Node8 -->
<g id="edge7_Node000006_Node000008" class="edge">
<title>Node6&#45;&gt;Node8</title>
<g id="a_edge7_Node000006_Node000008"><a xlink:title=" ">
<path fill="none" stroke="#63b8ff" d="M1002.56,-395.83C982.45,-400.64 960.8,-405.82 941.29,-410.48"/>
<polygon fill="#63b8ff" stroke="#63b8ff" points="1003.37,-399.23 1012.29,-393.5 1001.75,-392.42 1003.37,-399.23"/>
</a>
</g>
</g>
<!-- Node8&#45;&gt;Node8 -->
<g id="edge8_Node000008_Node000008" class="edge">
<title>Node8&#45;&gt;Node8</title>
<g id="a_edge8_Node000008_Node000008"><a xlink:title=" ">
<path fill="none" stroke="#63b8ff" d="M912.16,-451.1C907.42,-455.47 895.87,-458.5 877.5,-458.5 846.56,-458.5 834.96,-449.91 842.7,-440.78"/>
<polygon fill="#63b8ff" stroke="#63b8ff" points="915.66,-450.82 912.3,-440.78 908.66,-450.72 915.66,-450.82"/>
</a>
</g>
</g>
<!-- Node11 -->
<g id="Node000011" class="node">
<title>Node11</title>
<g id="a_Node000011"><a xlink:href="../../dc/d25/classSymbolicExpr.html#a8e2b693429c55311a664ed0306bc9b2e" target="_top" xlink:title="求解方程，返回指定变量的所有解。">
<polygon fill="white" stroke="#666666" points="1134,-181 1018,-181 1018,-162 1134,-162 1134,-181"/>
<text text-anchor="middle" x="1076" y="-169" font-family="Helvetica,sans-Serif" font-size="10.00">SymbolicExpr::solve</text>
</a>
</g>
</g>
<!-- Node10&#45;&gt;Node11 -->
<g id="edge11_Node000010_Node000011" class="edge">
<title>Node10&#45;&gt;Node11</title>
<g id="a_edge11_Node000010_Node000011"><a xlink:title=" ">
<path fill="none" stroke="#63b8ff" d="M1201.24,-171.5C1179.1,-171.5 1155.16,-171.5 1134.26,-171.5"/>
<polygon fill="#63b8ff" stroke="#63b8ff" points="1201.26,-175 1211.26,-171.5 1201.26,-168 1201.26,-175"/>
</a>
</g>
</g>
<!-- Node12 -->
<g id="Node000012" class="node">
<title>Node12</title>
<g id="a_Node000012"><a xlink:href="../../dc/d25/classSymbolicExpr.html#a83879d764986be80edbedc769b96224a" target="_top" xlink:title="计算矩阵的特征值。">
<polygon fill="white" stroke="#666666" points="337,-205 188,-205 188,-186 337,-186 337,-205"/>
<text text-anchor="middle" x="262.5" y="-193" font-family="Helvetica,sans-Serif" font-size="10.00">SymbolicExpr::eigenvalues</text>
</a>
</g>
</g>
<!-- Node11&#45;&gt;Node12 -->
<g id="edge12_Node000011_Node000012" class="edge">
<title>Node11&#45;&gt;Node12</title>
<g id="a_edge12_Node000011_Node000012"><a xlink:title=" ">
<path fill="none" stroke="#63b8ff" d="M1007.8,-169.38C882.62,-166.12 605.38,-162.24 373,-182.5 361.37,-183.51 349.06,-184.78 337.06,-186.13"/>
<polygon fill="#63b8ff" stroke="#63b8ff" points="1007.9,-172.88 1017.99,-169.65 1008.08,-165.88 1007.9,-172.88"/>
</a>
</g>
</g>
<!-- Node14 -->
<g id="Node000014" class="node">
<title>Node14</title>
<g id="a_Node000014"><a xlink:href="../../dc/d25/classSymbolicExpr.html#a884244959506063b172228ad99ab0730" target="_top" xlink:title="对表达式进行因式分解。">
<polygon fill="white" stroke="#666666" points="936.5,-200 818.5,-200 818.5,-181 936.5,-181 936.5,-200"/>
<text text-anchor="middle" x="877.5" y="-188" font-family="Helvetica,sans-Serif" font-size="10.00">SymbolicExpr::factor</text>
</a>
</g>
</g>
<!-- Node11&#45;&gt;Node14 -->
<g id="edge14_Node000011_Node000014" class="edge">
<title>Node11&#45;&gt;Node14</title>
<g id="a_edge14_Node000011_Node000014"><a xlink:title=" ">
<path fill="none" stroke="#63b8ff" d="M1007.83,-177.99C984.74,-180.23 959.09,-182.71 936.77,-184.87"/>
<polygon fill="#63b8ff" stroke="#63b8ff" points="1008.28,-181.47 1017.9,-177.02 1007.61,-174.5 1008.28,-181.47"/>
</a>
</g>
</g>
<!-- Node22 -->
<g id="Node000022" class="node">
<title>Node22</title>
<g id="a_Node000022"><a xlink:href="../../d1/d42/namespacelamina.html#a334f8d9c2923abbed11b2e4729c2b057" target="_top" xlink:title=" ">
<polygon fill="white" stroke="#666666" points="957,-86 798,-86 798,-67 957,-67 957,-86"/>
<text text-anchor="middle" x="877.5" y="-74" font-family="Helvetica,sans-Serif" font-size="10.00">lamina::invert_substitution_h</text>
</a>
</g>
</g>
<!-- Node11&#45;&gt;Node22 -->
<g id="edge24_Node000011_Node000022" class="edge">
<title>Node11&#45;&gt;Node22</title>
<g id="a_edge24_Node000011_Node000022"><a xlink:title=" ">
<path fill="none" stroke="#63b8ff" d="M1054.01,-155.96C1031.85,-140.16 995.43,-115.88 961,-100.5 947.92,-94.66 933.05,-89.83 919.57,-86.06"/>
<polygon fill="#63b8ff" stroke="#63b8ff" points="1052.16,-158.94 1062.32,-161.96 1056.26,-153.27 1052.16,-158.94"/>
</a>
</g>
</g>
<!-- Node23 -->
<g id="Node000023" class="node">
<title>Node23</title>
<g id="a_Node000023"><a xlink:href="../../d1/d42/namespacelamina.html#a12ae4dd3753dfea8b5e9d84b3c748855" target="_top" xlink:title=" ">
<polygon fill="white" stroke="#666666" points="758,-78 570,-78 570,-59 758,-59 758,-78"/>
<text text-anchor="middle" x="664" y="-66" font-family="Helvetica,sans-Serif" font-size="10.00">lamina::solve_transcendental_impl</text>
</a>
</g>
</g>
<!-- Node11&#45;&gt;Node23 -->
<g id="edge36_Node000011_Node000023" class="edge">
<title>Node11&#45;&gt;Node23</title>
<g id="a_edge36_Node000011_Node000023"><a xlink:title=" ">
<path fill="none" stroke="#63b8ff" d="M1063.61,-153.13C1045.66,-126.17 1007.96,-76.95 961,-57.5 871.21,-20.31 752.66,-44.03 696.76,-58.99"/>
<polygon fill="#63b8ff" stroke="#63b8ff" points="1060.75,-155.16 1069.11,-161.66 1066.63,-151.36 1060.75,-155.16"/>
</a>
</g>
</g>
<!-- Node24 -->
<g id="Node000024" class="node">
<title>Node24</title>
<g id="a_Node000024"><a xlink:href="../../d1/d42/namespacelamina.html#a704f26202e00de52ae9b961bc527a9ff" target="_top" xlink:title=" ">
<polygon fill="white" stroke="#666666" points="510,-83.5 397,-83.5 397,-53.5 510,-53.5 510,-83.5"/>
<text text-anchor="start" x="405" y="-71.5" font-family="Helvetica,sans-Serif" font-size="10.00">lamina::solve_inner</text>
<text text-anchor="middle" x="453.5" y="-60.5" font-family="Helvetica,sans-Serif" font-size="10.00">_equation</text>
</a>
</g>
</g>
<!-- Node11&#45;&gt;Node24 -->
<g id="edge30_Node000011_Node000024" class="edge">
<title>Node11&#45;&gt;Node24</title>
<g id="a_edge30_Node000011_Node000024"><a xlink:title=" ">
<path fill="none" stroke="#63b8ff" d="M1036.64,-158.84C1014.69,-151.99 986.53,-143.86 961,-138.5 789.43,-102.47 743.51,-111.55 570,-86.5 550.52,-83.69 529.22,-80.42 510.27,-77.45"/>
<polygon fill="#63b8ff" stroke="#63b8ff" points="1035.66,-162.2 1046.25,-161.88 1037.77,-155.53 1035.66,-162.2"/>
</a>
</g>
</g>
<!-- Node26 -->
<g id="Node000026" class="node">
<title>Node26</title>
<g id="a_Node000026"><a xlink:href="../../d6/da9/classlamina_1_1ParametricSolver.html#a41d42755b42e64784e9bc7c7f6f5715f" target="_top" xlink:title="求解关于未知数为多项式的含参方程组">
<polygon fill="white" stroke="#666666" points="961,-344.5 794,-344.5 794,-314.5 961,-314.5 961,-344.5"/>
<text text-anchor="start" x="802" y="-332.5" font-family="Helvetica,sans-Serif" font-size="10.00">lamina::ParametricSolver</text>
<text text-anchor="middle" x="877.5" y="-321.5" font-family="Helvetica,sans-Serif" font-size="10.00">::solve_polynomial_parametric</text>
</a>
</g>
</g>
<!-- Node11&#45;&gt;Node26 -->
<g id="edge31_Node000011_Node000026" class="edge">
<title>Node11&#45;&gt;Node26</title>
<g id="a_edge31_Node000011_Node000026"><a xlink:title=" ">
<path fill="none" stroke="#63b8ff" d="M1064.27,-190C1046.51,-218.99 1008.22,-274.93 961,-305.5 955.74,-308.9 949.99,-311.84 944.04,-314.36"/>
<polygon fill="#63b8ff" stroke="#63b8ff" points="1067.35,-191.66 1069.49,-181.28 1061.35,-188.07 1067.35,-191.66"/>
</a>
</g>
</g>
<!-- Node30 -->
<g id="Node000030" class="node">
<title>Node30</title>
<g id="a_Node000030"><a xlink:href="../../d5/d6f/classlamina_1_1Solver.html#a622812464260dd689d26a7f66ae99633" target="_top" xlink:title="求解多项式方程组，返回所有解。">
<polygon fill="white" stroke="#666666" points="937,-296.5 818,-296.5 818,-266.5 937,-266.5 937,-296.5"/>
<text text-anchor="start" x="826" y="-284.5" font-family="Helvetica,sans-Serif" font-size="10.00">lamina::Solver::solve</text>
<text text-anchor="middle" x="877.5" y="-273.5" font-family="Helvetica,sans-Serif" font-size="10.00">_polynomial_system</text>
</a>
</g>
</g>
<!-- Node11&#45;&gt;Node30 -->
<g id="edge35_Node000011_Node000030" class="edge">
<title>Node11&#45;&gt;Node30</title>
<g id="a_edge35_Node000011_Node000030"><a xlink:title=" ">
<path fill="none" stroke="#63b8ff" d="M1057.28,-188.17C1035.97,-207.4 998.37,-238.77 961,-257.5 953.53,-261.24 945.38,-264.5 937.21,-267.3"/>
<polygon fill="#63b8ff" stroke="#63b8ff" points="1059.87,-190.55 1064.87,-181.21 1055.14,-185.39 1059.87,-190.55"/>
</a>
</g>
</g>
<!-- Node31 -->
<g id="Node000031" class="node">
<title>Node31</title>
<g id="a_Node000031"><a xlink:href="../../d1/d42/namespacelamina.html#a14b812ff63e0f874b8f45b9d6c746195" target="_top" xlink:title="Solve an equation with assumption&#45;based domain filtering.">
<polygon fill="white" stroke="#666666" points="932,-248.5 823,-248.5 823,-218.5 932,-218.5 932,-248.5"/>
<text text-anchor="start" x="831" y="-236.5" font-family="Helvetica,sans-Serif" font-size="10.00">lamina::solve_with</text>
<text text-anchor="middle" x="877.5" y="-225.5" font-family="Helvetica,sans-Serif" font-size="10.00">_assumptions</text>
</a>
</g>
</g>
<!-- Node11&#45;&gt;Node31 -->
<g id="edge37_Node000011_Node000031" class="edge">
<title>Node11&#45;&gt;Node31</title>
<g id="a_edge37_Node000011_Node000031"><a xlink:title=" ">
<path fill="none" stroke="#63b8ff" d="M1036.34,-184.26C1014.29,-191.48 986.14,-200.61 961,-208.5 950.58,-211.77 939.39,-215.21 928.72,-218.45"/>
<polygon fill="#63b8ff" stroke="#63b8ff" points="1037.59,-187.53 1046,-181.09 1035.41,-180.88 1037.59,-187.53"/>
</a>
</g>
</g>
<!-- Node13 -->
<g id="Node000013" class="node">
<title>Node13</title>
<g id="a_Node000013"><a xlink:href="../../dc/d25/classSymbolicExpr.html#a7777100ca36b7a1a7285ece2380dcf4b" target="_top" xlink:title="计算矩阵的特征向量。">
<polygon fill="white" stroke="#666666" points="152,-205 0,-205 0,-186 152,-186 152,-205"/>
<text text-anchor="middle" x="76" y="-193" font-family="Helvetica,sans-Serif" font-size="10.00">SymbolicExpr::eigenvectors</text>
</a>
</g>
</g>
<!-- Node12&#45;&gt;Node13 -->
<g id="edge13_Node000012_Node000013" class="edge">
<title>Node12&#45;&gt;Node13</title>
<g id="a_edge13_Node000012_Node000013"><a xlink:title=" ">
<path fill="none" stroke="#63b8ff" d="M177.52,-195.5C169.04,-195.5 160.48,-195.5 152.11,-195.5"/>
<polygon fill="#63b8ff" stroke="#63b8ff" points="177.79,-199 187.79,-195.5 177.79,-192 177.79,-199"/>
</a>
</g>
</g>
<!-- Node15 -->
<g id="Node000015" class="node">
<title>Node15</title>
<g id="a_Node000015"><a xlink:href="../../dc/d25/classSymbolicExpr.html#a3b4cc1669b1b117b15cc82783a22b4fc" target="_top" xlink:title="计算矩阵行列式。">
<polygon fill="white" stroke="#666666" points="738.5,-248 589.5,-248 589.5,-229 738.5,-229 738.5,-248"/>
<text text-anchor="middle" x="664" y="-236" font-family="Helvetica,sans-Serif" font-size="10.00">SymbolicExpr::determinant</text>
</a>
</g>
</g>
<!-- Node14&#45;&gt;Node15 -->
<g id="edge15_Node000014_Node000015" class="edge">
<title>Node14&#45;&gt;Node15</title>
<g id="a_edge15_Node000014_Node000015"><a xlink:title=" ">
<path fill="none" stroke="#63b8ff" d="M823.18,-202.41C813.46,-204.69 803.41,-207.11 794,-209.5 777.9,-213.59 774.14,-215.61 758,-219.5 744.06,-222.86 728.86,-226.12 714.85,-228.98"/>
<polygon fill="#63b8ff" stroke="#63b8ff" points="824.22,-205.77 833.17,-200.1 822.64,-198.95 824.22,-205.77"/>
</a>
</g>
</g>
<!-- Node18 -->
<g id="Node000018" class="node">
<title>Node18</title>
<g id="a_Node000018"><a xlink:href="../../dc/d25/classSymbolicExpr.html#ae608271a617ef878c81d04375538537f" target="_top" xlink:title="计算两个多项式关于指定变量的结式。">
<polygon fill="white" stroke="#666666" points="719,-210.5 609,-210.5 609,-180.5 719,-180.5 719,-210.5"/>
<text text-anchor="start" x="617" y="-198.5" font-family="Helvetica,sans-Serif" font-size="10.00">SymbolicExpr::poly</text>
<text text-anchor="middle" x="664" y="-187.5" font-family="Helvetica,sans-Serif" font-size="10.00">_resultant</text>
</a>
</g>
</g>
<!-- Node14&#45;&gt;Node18 -->
<g id="edge20_Node000014_Node000018" class="edge">
<title>Node14&#45;&gt;Node18</title>
<g id="a_edge20_Node000014_Node000018"><a xlink:title=" ">
<path fill="none" stroke="#63b8ff" d="M808.42,-192.11C779.59,-192.79 746.46,-193.57 719.31,-194.22"/>
<polygon fill="#63b8ff" stroke="#63b8ff" points="808.51,-195.61 818.43,-191.87 808.35,-188.61 808.51,-195.61"/>
</a>
</g>
</g>
<!-- Node19 -->
<g id="Node000019" class="node">
<title>Node19</title>
<g id="a_Node000019"><a xlink:href="../../dc/d25/classSymbolicExpr.html#ae41c16b68c56de8d4c70a98c85722ff1" target="_top" xlink:title="计算矩阵的行最简阶梯形（RREF）。">
<polygon fill="white" stroke="#666666" points="717.5,-303 610.5,-303 610.5,-284 717.5,-284 717.5,-303"/>
<text text-anchor="middle" x="664" y="-291" font-family="Helvetica,sans-Serif" font-size="10.00">SymbolicExpr::rref</text>
</a>
</g>
</g>
<!-- Node14&#45;&gt;Node19 -->
<g id="edge21_Node000014_Node000019" class="edge">
<title>Node14&#45;&gt;Node19</title>
<g id="a_edge21_Node000014_Node000019"><a xlink:title=" ">
<path fill="none" stroke="#63b8ff" d="M808.67,-201.03C803.45,-203.34 798.48,-206.13 794,-209.5 767.62,-229.37 784.62,-254.96 758,-274.5 746.44,-282.98 732,-287.9 717.97,-290.68"/>
<polygon fill="#63b8ff" stroke="#63b8ff" points="810.18,-204.21 818.28,-197.39 807.69,-197.66 810.18,-204.21"/>
</a>
</g>
</g>
<!-- Node15&#45;&gt;Node15 -->
<g id="edge18_Node000015_Node000015" class="edge">
<title>Node15&#45;&gt;Node15</title>
<g id="a_edge18_Node000015_Node000015"><a xlink:title=" ">
<path fill="none" stroke="#63b8ff" d="M703.36,-255.31C703.95,-261.21 690.83,-266 664,-266 626.68,-266 615.89,-256.73 631.63,-248.08"/>
<polygon fill="#63b8ff" stroke="#63b8ff" points="705.84,-252.84 696.37,-248.08 700.8,-257.7 705.84,-252.84"/>
</a>
</g>
</g>
<!-- Node16 -->
<g id="Node000016" class="node">
<title>Node16</title>
<g id="a_Node000016"><a xlink:href="../../dc/d25/classSymbolicExpr.html#a6e8c5c20af88337d449cbf5771d5d28d" target="_top" xlink:title="计算矩阵的特征多项式。">
<polygon fill="white" stroke="#666666" points="519,-248 388,-248 388,-229 519,-229 519,-248"/>
<text text-anchor="middle" x="453.5" y="-236" font-family="Helvetica,sans-Serif" font-size="10.00">SymbolicExpr::charpoly</text>
</a>
</g>
</g>
<!-- Node15&#45;&gt;Node16 -->
<g id="edge16_Node000015_Node000016" class="edge">
<title>Node15&#45;&gt;Node16</title>
<g id="a_edge16_Node000015_Node000016"><a xlink:title=" ">
<path fill="none" stroke="#63b8ff" d="M579.4,-238.5C559.3,-238.5 538.12,-238.5 519.03,-238.5"/>
<polygon fill="#63b8ff" stroke="#63b8ff" points="579.49,-242 589.49,-238.5 579.49,-235 579.49,-242"/>
</a>
</g>
</g>
<!-- Node17 -->
<g id="Node000017" class="node">
<title>Node17</title>
<g id="a_Node000017"><a xlink:href="../../d1/d42/namespacelamina.html#a35783093777191a0254b7f3a2340e0f5" target="_top" xlink:title="计算符号矩阵的行列式">
<polygon fill="white" stroke="#666666" points="530.5,-211 376.5,-211 376.5,-192 530.5,-192 530.5,-211"/>
<text text-anchor="middle" x="453.5" y="-199" font-family="Helvetica,sans-Serif" font-size="10.00">lamina::matrix_determinant</text>
</a>
</g>
</g>
<!-- Node15&#45;&gt;Node17 -->
<g id="edge19_Node000015_Node000017" class="edge">
<title>Node15&#45;&gt;Node17</title>
<g id="a_edge19_Node000015_Node000017"><a xlink:title=" ">
<path fill="none" stroke="#63b8ff" d="M599.25,-227.19C570.18,-222.03 536.14,-215.99 508.37,-211.06"/>
<polygon fill="#63b8ff" stroke="#63b8ff" points="598.85,-230.67 609.31,-228.97 600.07,-223.78 598.85,-230.67"/>
</a>
</g>
</g>
<!-- Node16&#45;&gt;Node12 -->
<g id="edge17_Node000016_Node000012" class="edge">
<title>Node16&#45;&gt;Node12</title>
<g id="a_edge17_Node000016_Node000012"><a xlink:title=" ">
<path fill="none" stroke="#63b8ff" d="M400.69,-226.71C370.7,-219.89 333.44,-211.41 305.33,-205.02"/>
<polygon fill="#63b8ff" stroke="#63b8ff" points="400.03,-230.15 410.55,-228.96 401.58,-223.33 400.03,-230.15"/>
</a>
</g>
</g>
<!-- Node20 -->
<g id="Node000020" class="node">
<title>Node20</title>
<g id="a_Node000020"><a xlink:href="../../dc/d25/classSymbolicExpr.html#afa1c1c57bb6c77da5d016f69eaa60703" target="_top" xlink:title="计算矩阵的逆。">
<polygon fill="white" stroke="#666666" points="516,-303 391,-303 391,-284 516,-284 516,-303"/>
<text text-anchor="middle" x="453.5" y="-291" font-family="Helvetica,sans-Serif" font-size="10.00">SymbolicExpr::inverse</text>
</a>
</g>
</g>
<!-- Node19&#45;&gt;Node20 -->
<g id="edge22_Node000019_Node000020" class="edge">
<title>Node19&#45;&gt;Node20</title>
<g id="a_edge22_Node000019_Node000020"><a xlink:title=" ">
<path fill="none" stroke="#63b8ff" d="M600.07,-293.5C573.55,-293.5 542.77,-293.5 516.36,-293.5"/>
<polygon fill="#63b8ff" stroke="#63b8ff" points="600.39,-297 610.39,-293.5 600.39,-290 600.39,-297"/>
</a>
</g>
</g>
<!-- Node21 -->
<g id="Node000021" class="node">
<title>Node21</title>
<g id="a_Node000021"><a xlink:href="../../d1/d42/namespacelamina.html#a972455b000c18e71aefd4a84a5708edf" target="_top" xlink:title="计算符号矩阵的逆矩阵">
<polygon fill="white" stroke="#666666" points="327.5,-303 197.5,-303 197.5,-284 327.5,-284 327.5,-303"/>
<text text-anchor="middle" x="262.5" y="-291" font-family="Helvetica,sans-Serif" font-size="10.00">lamina::matrix_inverse</text>
</a>
</g>
</g>
<!-- Node20&#45;&gt;Node21 -->
<g id="edge23_Node000020_Node000021" class="edge">
<title>Node20&#45;&gt;Node21</title>
<g id="a_edge23_Node000020_Node000021"><a xlink:title=" ">
<path fill="none" stroke="#63b8ff" d="M380.74,-293.5C363.28,-293.5 344.72,-293.5 327.64,-293.5"/>
<polygon fill="#63b8ff" stroke="#63b8ff" points="380.88,-297 390.88,-293.5 380.88,-290 380.88,-297"/>
</a>
</g>
</g>
<!-- Node22&#45;&gt;Node23 -->
<g id="edge25_Node000022_Node000023" class="edge">
<title>Node22&#45;&gt;Node23</title>
<g id="a_edge25_Node000022_Node000023"><a xlink:title=" ">
<path fill="none" stroke="#63b8ff" d="M787.65,-73.14C777.89,-72.77 767.92,-72.39 758.1,-72.02"/>
<polygon fill="#63b8ff" stroke="#63b8ff" points="787.62,-76.64 797.75,-73.52 787.88,-69.65 787.62,-76.64"/>
</a>
</g>
</g>
<!-- Node23&#45;&gt;Node24 -->
<g id="edge26_Node000023_Node000024" class="edge">
<title>Node23&#45;&gt;Node24</title>
<g id="a_edge26_Node000023_Node000024"><a xlink:title=" ">
<path fill="none" stroke="#63b8ff" d="M559.66,-61.75C542.54,-61.74 525.38,-61.98 510.04,-62.45"/>
<polygon fill="#63b8ff" stroke="#63b8ff" points="559.72,-65.25 569.73,-61.78 559.74,-58.25 559.72,-65.25"/>
</a>
</g>
</g>
<!-- Node25 -->
<g id="Node000025" class="node">
<title>Node25</title>
<g id="a_Node000025"><a xlink:href="../../d1/d42/namespacelamina.html#a49ecca042975b1b60b3cfb5dd09f1ddc" target="_top" xlink:title="求解超越方程（三角、指数、对数类型）。">
<polygon fill="white" stroke="#666666" points="534,-19 373,-19 373,0 534,0 534,-19"/>
<text text-anchor="middle" x="453.5" y="-7" font-family="Helvetica,sans-Serif" font-size="10.00">lamina::solve_transcendental</text>
</a>
</g>
</g>
<!-- Node23&#45;&gt;Node25 -->
<g id="edge28_Node000023_Node000025" class="edge">
<title>Node23&#45;&gt;Node25</title>
<g id="a_edge28_Node000023_Node000025"><a xlink:title=" ">
<path fill="none" stroke="#63b8ff" d="M619,-56.05C579.93,-44.99 523.66,-29.07 488.1,-19.01"/>
<polygon fill="#63b8ff" stroke="#63b8ff" points="618.46,-59.53 629.04,-58.89 620.37,-52.8 618.46,-59.53"/>
</a>
</g>
</g>
<!-- Node24&#45;&gt;Node23 -->
<g id="edge27_Node000024_Node000023" class="edge">
<title>Node24&#45;&gt;Node23</title>
<g id="a_edge27_Node000024_Node000023"><a xlink:title=" ">
<path fill="none" stroke="#63b8ff" d="M520.17,-74.82C535.9,-75.19 553.01,-75.32 569.73,-75.22"/>
<polygon fill="#63b8ff" stroke="#63b8ff" points="520.13,-71.32 510.04,-74.55 519.94,-78.32 520.13,-71.32"/>
</a>
</g>
</g>
<!-- Node25&#45;&gt;Node10 -->
<g id="edge29_Node000025_Node000010" class="edge">
<title>Node25&#45;&gt;Node10</title>
<g id="a_edge29_Node000025_Node000010"><a xlink:title=" ">
<path fill="none" stroke="#63b8ff" d="M544.55,-4.26C646.89,-0.52 818.26,-1.02 961,-34.5 1081.44,-62.75 1213.46,-135.53 1258.73,-161.84"/>
<polygon fill="#63b8ff" stroke="#63b8ff" points="544.11,-0.77 534.25,-4.66 544.38,-7.77 544.11,-0.77"/>
</a>
</g>
</g>
<!-- Node27 -->
<g id="Node000027" class="node">
<title>Node27</title>
<g id="a_Node000027"><a xlink:href="../../d6/da9/classlamina_1_1ParametricSolver.html#a74760afed4b871db5baef1d0c7eef09e" target="_top" xlink:title="求解含参方程组，返回所有解">
<polygon fill="white" stroke="#666666" points="734,-351.5 594,-351.5 594,-321.5 734,-321.5 734,-351.5"/>
<text text-anchor="start" x="602" y="-339.5" font-family="Helvetica,sans-Serif" font-size="10.00">lamina::ParametricSolver</text>
<text text-anchor="middle" x="664" y="-328.5" font-family="Helvetica,sans-Serif" font-size="10.00">::solve_system</text>
</a>
</g>
</g>
<!-- Node26&#45;&gt;Node27 -->
<g id="edge32_Node000026_Node000027" class="edge">
<title>Node26&#45;&gt;Node27</title>
<g id="a_edge32_Node000026_Node000027"><a xlink:title=" ">
<path fill="none" stroke="#63b8ff" d="M783.58,-332.58C767.02,-333.12 750.04,-333.69 734.28,-334.21"/>
<polygon fill="#63b8ff" stroke="#63b8ff" points="783.94,-336.07 793.82,-332.24 783.71,-329.07 783.94,-336.07"/>
</a>
</g>
</g>
<!-- Node28 -->
<g id="Node000028" class="node">
<title>Node28</title>
<g id="a_Node000028"><a xlink:href="../../dc/d25/classSymbolicExpr.html#af7245cd8dd9c4c7f7f00d3772bbbecb3" target="_top" xlink:title="求解含参数的方程组。">
<polygon fill="white" stroke="#666666" points="511.5,-399.5 395.5,-399.5 395.5,-369.5 511.5,-369.5 511.5,-399.5"/>
<text text-anchor="start" x="403.5" y="-387.5" font-family="Helvetica,sans-Serif" font-size="10.00">SymbolicExpr::solve</text>
<text text-anchor="middle" x="453.5" y="-376.5" font-family="Helvetica,sans-Serif" font-size="10.00">_system</text>
</a>
</g>
</g>
<!-- Node27&#45;&gt;Node28 -->
<g id="edge33_Node000027_Node000028" class="edge">
<title>Node27&#45;&gt;Node28</title>
<g id="a_edge33_Node000027_Node000028"><a xlink:title=" ">
<path fill="none" stroke="#63b8ff" d="M587.74,-353.83C562.63,-359.61 535.07,-365.95 511.57,-371.36"/>
<polygon fill="#63b8ff" stroke="#63b8ff" points="588.64,-357.21 597.6,-351.56 587.07,-350.39 588.64,-357.21"/>
</a>
</g>
</g>
<!-- Node29 -->
<g id="Node000029" class="node">
<title>Node29</title>
<g id="a_Node000029"><a xlink:href="../../d6/da9/classlamina_1_1ParametricSolver.html#aee41c6cf8efdfc5c7485cd104981d95b" target="_top" xlink:title="求解含参方程组，返回按参数条件分段的解">
<polygon fill="white" stroke="#666666" points="525.5,-351.5 381.5,-351.5 381.5,-321.5 525.5,-321.5 525.5,-351.5"/>
<text text-anchor="start" x="389.5" y="-339.5" font-family="Helvetica,sans-Serif" font-size="10.00">lamina::ParametricSolver</text>
<text text-anchor="middle" x="453.5" y="-328.5" font-family="Helvetica,sans-Serif" font-size="10.00">::solve_system_piecewise</text>
</a>
</g>
</g>
<!-- Node27&#45;&gt;Node29 -->
<g id="edge34_Node000027_Node000029" class="edge">
<title>Node27&#45;&gt;Node29</title>
<g id="a_edge34_Node000027_Node000029"><a xlink:title=" ">
<path fill="none" stroke="#63b8ff" d="M583.69,-336.5C564.59,-336.5 544.29,-336.5 525.59,-336.5"/>
<polygon fill="#63b8ff" stroke="#63b8ff" points="583.86,-340 593.86,-336.5 583.86,-333 583.86,-340"/>
</a>
</g>
</g>
<!-- Node32&#45;&gt;Node8 -->
<g id="edge39_Node000032_Node000008" class="edge">
<title>Node32&#45;&gt;Node8</title>
<g id="a_edge39_Node000032_Node000008"><a xlink:title=" ">
<path fill="none" stroke="#63b8ff" d="M986.54,-424.4C977.05,-424.5 967.44,-424.59 958.06,-424.69"/>
<polygon fill="#63b8ff" stroke="#63b8ff" points="986.81,-427.9 996.77,-424.3 986.74,-420.9 986.81,-427.9"/>
</a>
</g>
</g>
</g>
</svg>

<g id="navigator" transform="translate(0 0)" fill="#404254">
  <rect fill="#f2f5e9" fill-opacity="0.5" stroke="#606060" stroke-width=".5" x="0" y="0" width="60" height="60"/>
  <use id="zoomplus" xlink:href="#zoomPlus" x="17" y="9" onmousedown="handleZoom(evt,'in')"/>
  <use id="zoomminus" xlink:href="#zoomMin" x="42" y="9" onmousedown="handleZoom(evt,'out')"/>
  <use id="reset" xlink:href="#resetDef" x="30" y="36" onmousedown="handleReset()"/>
   <use id="arrowup" xlink:href="#arrowUp" x="0" y="0" onmousedown="handlePan(0,-1)"/>
  <use id="arrowright" xlink:href="#arrowRight" x="0" y="0" onmousedown="handlePan(1,0)"/>
  <use id="arrowdown" xlink:href="#arrowDown" x="0" y="0" onmousedown="handlePan(0,1)"/>
  <use id="arrowleft" xlink:href="#arrowLeft" x="0" y="0" onmousedown="handlePan(-1,0)"/>
</g>
<svg viewBox="0 0 15 15" width="100%" height="30px" preserveAspectRatio="xMaxYMin meet">
 <g id="arrow_out" transform="scale(0.3 0.3)">
  <a xlink:href="namespacelamina_a75ea3ada67c526ad509fdd69e721d357_icgraph_org.svg" target="_base">
   <rect id="button" ry="5" rx="5" y="6" x="6" height="38" width="38"
        fill="#f2f5e9" fill-opacity="0.5" stroke="#606060" stroke-width="1.0"/>
   <path id="arrow"
     d="M 11.500037,31.436501 C 11.940474,20.09759 22.043105,11.32322 32.158766,21.979434 L 37.068811,17.246167 C 37.068811,17.246167 37.088388,32 37.088388,32 L 22.160133,31.978069 C 22.160133,31.978069 26.997745,27.140456 26.997745,27.140456 C 18.528582,18.264221 13.291696,25.230495 11.500037,31.436501 z"
     style="fill:#404040;"/>
  </a>
 </g>
</svg>

<style type='text/css'>
<![CDATA[
[data-mouse-over-selected='false'] { opacity: 0.7; }
[data-mouse-over-selected='true']  { opacity: 1.0; }
]]>
</style>
<script type="application/ecmascript"><![CDATA[
document.addEventListener('DOMContentLoaded', (event) => {
  highlightEdges();
  highlightAdjacentNodes();
});
]]></script>
</svg>
