<?xml version="1.0" encoding="UTF-8" standalone="no"?>
<!DOCTYPE svg PUBLIC "-//W3C//DTD SVG 1.1//EN"
 "http://www.w3.org/Graphics/SVG/1.1/DTD/svg11.dtd">
<!-- Generated by graphviz version 2.43.0 (0)
 -->
<!-- Title: lamina::complex_trig_form Pages: 1 -->
<svg width="510pt" height="138pt"
 viewBox="0.00 0.00 510.00 138.00" xmlns="http://www.w3.org/2000/svg" xmlns:xlink="http://www.w3.org/1999/xlink">
<g id="graph0" class="graph" transform="scale(1 1) rotate(0) translate(4 134)">
<title>lamina::complex_trig_form</title>
<!-- Node1 -->
<g id="Node000001" class="node">
<title>Node1</title>
<g id="a_Node000001"><a xlink:title="将极坐标形式转换为三角形式复数 r*(cos(theta) + i*sin(theta))">
<polygon fill="#999999" stroke="#666666" points="149,-74 0,-74 0,-55 149,-55 149,-74"/>
<text text-anchor="middle" x="74.5" y="-62" font-family="Helvetica,sans-Serif" font-size="10.00">lamina::complex_trig_form</text>
</a>
</g>
</g>
<!-- Node2 -->
<g id="Node000002" class="node">
<title>Node2</title>
<g id="a_Node000002"><a xlink:href="../../d1/d42/namespacelamina.html#a03dd5c6cd76d4a204af7dbdd103ff63e" target="_top" xlink:title="将极坐标形式转换为指数形式复数 r*e^(i*theta)">
<polygon fill="white" stroke="#666666" points="335,-74 185,-74 185,-55 335,-55 335,-74"/>
<text text-anchor="middle" x="260" y="-62" font-family="Helvetica,sans-Serif" font-size="10.00">lamina::complex_exp_form</text>
</a>
</g>
</g>
<!-- Node1&#45;&gt;Node2 -->
<g id="edge1_Node000001_Node000002" class="edge">
<title>Node1&#45;&gt;Node2</title>
<g id="a_edge1_Node000001_Node000002"><a xlink:title=" ">
<path fill="none" stroke="#63b8ff" d="M149.08,-64.5C157.54,-64.5 166.21,-64.5 174.79,-64.5"/>
<polygon fill="#63b8ff" stroke="#63b8ff" points="174.81,-68 184.81,-64.5 174.81,-61 174.81,-68"/>
</a>
</g>
</g>
<!-- Node3 -->
<g id="Node000003" class="node">
<title>Node3</title>
<g id="a_Node000003"><a xlink:href="../../dc/d25/classSymbolicExpr.html#aab72f8248a52deff206dee781aca74ea" target="_top" xlink:title="创建余弦函数表达式。">
<polygon fill="white" stroke="#666666" points="489.5,-130 383.5,-130 383.5,-111 489.5,-111 489.5,-130"/>
<text text-anchor="middle" x="436.5" y="-118" font-family="Helvetica,sans-Serif" font-size="10.00">SymbolicExpr::cos</text>
</a>
</g>
</g>
<!-- Node2&#45;&gt;Node3 -->
<g id="edge2_Node000002_Node000003" class="edge">
<title>Node2&#45;&gt;Node3</title>
<g id="a_edge2_Node000002_Node000003"><a xlink:title=" ">
<path fill="none" stroke="#63b8ff" d="M287.08,-74.01C309.28,-81.98 342.07,-93.47 371,-102.5 377.12,-104.41 383.59,-106.33 389.98,-108.17"/>
<polygon fill="#63b8ff" stroke="#63b8ff" points="389.33,-111.62 399.9,-110.98 391.23,-104.89 389.33,-111.62"/>
</a>
</g>
</g>
<!-- Node4 -->
<g id="Node000004" class="node">
<title>Node4</title>
<g id="a_Node000004"><a xlink:href="../../d1/d42/namespacelamina.html#aac4b0272dad9989fa97b2c14d8ee8e24" target="_top" xlink:title="构造符号复数">
<polygon fill="white" stroke="#666666" points="502,-93 371,-93 371,-74 502,-74 502,-93"/>
<text text-anchor="middle" x="436.5" y="-81" font-family="Helvetica,sans-Serif" font-size="10.00">lamina::make_complex</text>
</a>
</g>
</g>
<!-- Node2&#45;&gt;Node4 -->
<g id="edge3_Node000002_Node000004" class="edge">
<title>Node2&#45;&gt;Node4</title>
<g id="a_edge3_Node000002_Node000004"><a xlink:title=" ">
<path fill="none" stroke="#63b8ff" d="M335,-72.56C343.55,-73.49 352.27,-74.44 360.82,-75.37"/>
<polygon fill="#63b8ff" stroke="#63b8ff" points="360.45,-78.85 370.77,-76.45 361.21,-71.89 360.45,-78.85"/>
</a>
</g>
</g>
<!-- Node5 -->
<g id="Node000005" class="node">
<title>Node5</title>
<g id="a_Node000005"><a xlink:href="../../dc/d25/classSymbolicExpr.html#ad03189fc8a4db7762f7c1ca890674bbc" target="_top" xlink:title="创建乘法表达式。">
<polygon fill="white" stroke="#666666" points="501.5,-56 371.5,-56 371.5,-37 501.5,-37 501.5,-56"/>
<text text-anchor="middle" x="436.5" y="-44" font-family="Helvetica,sans-Serif" font-size="10.00">SymbolicExpr::multiply</text>
</a>
</g>
</g>
<!-- Node2&#45;&gt;Node5 -->
<g id="edge4_Node000002_Node000005" class="edge">
<title>Node2&#45;&gt;Node5</title>
<g id="a_edge4_Node000002_Node000005"><a xlink:title=" ">
<path fill="none" stroke="#63b8ff" d="M335,-56.87C343.68,-55.97 352.54,-55.06 361.22,-54.16"/>
<polygon fill="#63b8ff" stroke="#63b8ff" points="361.73,-57.63 371.32,-53.12 361.01,-50.67 361.73,-57.63"/>
</a>
</g>
</g>
<!-- Node6 -->
<g id="Node000006" class="node">
<title>Node6</title>
<g id="a_Node000006"><a xlink:href="../../dc/d25/classSymbolicExpr.html#acf968244f234151f7a9718921733fd04" target="_top" xlink:title="创建正弦函数表达式。">
<polygon fill="white" stroke="#666666" points="488.5,-19 384.5,-19 384.5,0 488.5,0 488.5,-19"/>
<text text-anchor="middle" x="436.5" y="-7" font-family="Helvetica,sans-Serif" font-size="10.00">SymbolicExpr::sin</text>
</a>
</g>
</g>
<!-- Node2&#45;&gt;Node6 -->
<g id="edge5_Node000002_Node000006" class="edge">
<title>Node2&#45;&gt;Node6</title>
<g id="a_edge5_Node000002_Node000006"><a xlink:title=" ">
<path fill="none" stroke="#63b8ff" d="M289.41,-54.94C311.58,-47.55 343.18,-37.15 371,-28.5 377.97,-26.33 385.39,-24.09 392.62,-21.94"/>
<polygon fill="#63b8ff" stroke="#63b8ff" points="393.7,-25.27 402.3,-19.07 391.72,-18.55 393.7,-25.27"/>
</a>
</g>
</g>
</g>
</svg>
