<?xml version="1.0" encoding="UTF-8" standalone="no"?>
<!DOCTYPE svg PUBLIC "-//W3C//DTD SVG 1.1//EN"
 "http://www.w3.org/Graphics/SVG/1.1/DTD/svg11.dtd">
<!-- Generated by graphviz version 2.43.0 (0)
 -->
<!-- Title: lamina::grevlex_to_lex Pages: 1 -->
<svg width="1035pt" height="560pt"
 viewBox="0.00 0.00 1035.00 559.76" xmlns="http://www.w3.org/2000/svg" xmlns:xlink="http://www.w3.org/1999/xlink">
<g id="graph0" class="graph" transform="scale(1 1) rotate(0) translate(4 555.76)">
<title>lamina::grevlex_to_lex</title>
<!-- Node1 -->
<g id="Node000001" class="node">
<title>Node1</title>
<g id="a_Node000001"><a xlink:title="将 GrevLex 序下的 Gröbner 基转换为 Lex 序">
<polygon fill="#999999" stroke="#666666" points="128,-262.84 0,-262.84 0,-243.84 128,-243.84 128,-262.84"/>
<text text-anchor="middle" x="64" y="-250.84" font-family="Helvetica,sans-Serif" font-size="10.00">lamina::grevlex_to_lex</text>
</a>
</g>
</g>
<!-- Node2 -->
<g id="Node000002" class="node">
<title>Node2</title>
<g id="a_Node000002"><a xlink:href="../../d1/d42/namespacelamina.html#a387809128cf1f5566dde45ba3b8738f6" target="_top" xlink:title="FGLM 算法：将零维理想的 Gröbner 基从源序转换到目标序">
<polygon fill="white" stroke="#666666" points="301,-305.84 180,-305.84 180,-286.84 301,-286.84 301,-305.84"/>
<text text-anchor="middle" x="240.5" y="-293.84" font-family="Helvetica,sans-Serif" font-size="10.00">lamina::fglm_convert</text>
</a>
</g>
</g>
<!-- Node1&#45;&gt;Node2 -->
<g id="edge1_Node000001_Node000002" class="edge">
<title>Node1&#45;&gt;Node2</title>
<g id="a_edge1_Node000001_Node000002"><a xlink:title=" ">
<path fill="none" stroke="#63b8ff" d="M103.73,-262.88C129.48,-269.23 163.51,-277.61 191.05,-284.4"/>
<polygon fill="#63b8ff" stroke="#63b8ff" points="190.33,-287.83 200.88,-286.82 192.01,-281.03 190.33,-287.83"/>
</a>
</g>
</g>
<!-- Node20 -->
<g id="Node000020" class="node">
<title>Node20</title>
<g id="a_Node000020"><a xlink:href="../../da/d68/classlamina_1_1MonomialOrder.html#ae28e36938ce2e0b02d0101bd865d2d45" target="_top" xlink:title="创建分次逆字典序">
<polygon fill="white" stroke="#666666" points="306.5,-268.34 174.5,-268.34 174.5,-238.34 306.5,-238.34 306.5,-268.34"/>
<text text-anchor="start" x="182.5" y="-256.34" font-family="Helvetica,sans-Serif" font-size="10.00">lamina::MonomialOrder</text>
<text text-anchor="middle" x="240.5" y="-245.34" font-family="Helvetica,sans-Serif" font-size="10.00">::grevlex</text>
</a>
</g>
</g>
<!-- Node1&#45;&gt;Node20 -->
<g id="edge29_Node000001_Node000020" class="edge">
<title>Node1&#45;&gt;Node20</title>
<g id="a_edge29_Node000001_Node000020"><a xlink:title=" ">
<path fill="none" stroke="#63b8ff" d="M128.49,-253.34C140.02,-253.34 152.15,-253.34 163.99,-253.34"/>
<polygon fill="#63b8ff" stroke="#63b8ff" points="164.3,-256.84 174.3,-253.34 164.3,-249.84 164.3,-256.84"/>
</a>
</g>
</g>
<!-- Node21 -->
<g id="Node000021" class="node">
<title>Node21</title>
<g id="a_Node000021"><a xlink:href="../../da/d68/classlamina_1_1MonomialOrder.html#a691455aabf61a301c03e69a1adbe93f3" target="_top" xlink:title="创建字典序">
<polygon fill="white" stroke="#666666" points="317,-219.84 164,-219.84 164,-200.84 317,-200.84 317,-219.84"/>
<text text-anchor="middle" x="240.5" y="-207.84" font-family="Helvetica,sans-Serif" font-size="10.00">lamina::MonomialOrder::lex</text>
</a>
</g>
</g>
<!-- Node1&#45;&gt;Node21 -->
<g id="edge30_Node000001_Node000021" class="edge">
<title>Node1&#45;&gt;Node21</title>
<g id="a_edge30_Node000001_Node000021"><a xlink:title=" ">
<path fill="none" stroke="#63b8ff" d="M103.73,-243.8C129.48,-237.45 163.51,-229.07 191.05,-222.28"/>
<polygon fill="#63b8ff" stroke="#63b8ff" points="192.01,-225.65 200.88,-219.86 190.33,-218.85 192.01,-225.65"/>
</a>
</g>
</g>
<!-- Node3 -->
<g id="Node000003" class="node">
<title>Node3</title>
<g id="a_Node000003"><a xlink:href="../../d4/d4e/structlamina_1_1FGLMPoly.html#adefc23105cd647f1870b602e5cc4dc1b" target="_top" xlink:title="添加一项">
<polygon fill="white" stroke="#666666" points="892,-462.84 735,-462.84 735,-443.84 892,-443.84 892,-462.84"/>
<text text-anchor="middle" x="813.5" y="-450.84" font-family="Helvetica,sans-Serif" font-size="10.00">lamina::FGLMPoly::add_term</text>
</a>
</g>
</g>
<!-- Node2&#45;&gt;Node3 -->
<g id="edge2_Node000002_Node000003" class="edge">
<title>Node2&#45;&gt;Node3</title>
<g id="a_edge2_Node000002_Node000003"><a xlink:title=" ">
<path fill="none" stroke="#63b8ff" d="M242.9,-306.17C248.6,-342.1 273.7,-466.73 353,-515.34 496.51,-603.31 712.16,-506.2 786.35,-467.67"/>
<polygon fill="#63b8ff" stroke="#63b8ff" points="788.25,-470.62 795.46,-462.86 784.98,-464.43 788.25,-470.62"/>
</a>
</g>
</g>
<!-- Node5 -->
<g id="Node000005" class="node">
<title>Node5</title>
<g id="a_Node000005"><a xlink:href="../../df/d30/classlamina_1_1detail_1_1GaussianEliminator.html#a502c76c0cf70391ad61f33d8cb371661" target="_top" xlink:title="尝试将向量加入行空间">
<polygon fill="white" stroke="#666666" points="498.5,-506.34 363.5,-506.34 363.5,-476.34 498.5,-476.34 498.5,-506.34"/>
<text text-anchor="start" x="371.5" y="-494.34" font-family="Helvetica,sans-Serif" font-size="10.00">lamina::detail::Gaussian</text>
<text text-anchor="middle" x="431" y="-483.34" font-family="Helvetica,sans-Serif" font-size="10.00">Eliminator::add_vector</text>
</a>
</g>
</g>
<!-- Node2&#45;&gt;Node5 -->
<g id="edge4_Node000002_Node000005" class="edge">
<title>Node2&#45;&gt;Node5</title>
<g id="a_edge4_Node000002_Node000005"><a xlink:title=" ">
<path fill="none" stroke="#63b8ff" d="M245.47,-306.11C257.43,-334.37 295.84,-417.08 353,-462.34 357.41,-465.83 362.28,-468.94 367.38,-471.69"/>
<polygon fill="#63b8ff" stroke="#63b8ff" points="366.2,-475.01 376.72,-476.27 369.29,-468.73 366.2,-475.01"/>
</a>
</g>
</g>
<!-- Node6 -->
<g id="Node000006" class="node">
<title>Node6</title>
<g id="a_Node000006"><a xlink:href="../../d1/d42/namespacelamina.html#aa705370ea9d691477381fa4e3fa9cf5f" target="_top" xlink:title="判断 divisor 是否整除 target">
<polygon fill="white" stroke="#666666" points="886.5,-67.84 740.5,-67.84 740.5,-48.84 886.5,-48.84 886.5,-67.84"/>
<text text-anchor="middle" x="813.5" y="-55.84" font-family="Helvetica,sans-Serif" font-size="10.00">lamina::divides_monomial</text>
</a>
</g>
</g>
<!-- Node2&#45;&gt;Node6 -->
<g id="edge5_Node000002_Node000006" class="edge">
<title>Node2&#45;&gt;Node6</title>
<g id="a_edge5_Node000002_Node000006"><a xlink:title=" ">
<path fill="none" stroke="#63b8ff" d="M301.21,-288.43C307.1,-285.67 312.54,-282.06 317,-277.34 375.14,-215.83 289.65,-146.47 353,-90.34 407.01,-42.48 613.27,-46.2 730.25,-52.56"/>
<polygon fill="#63b8ff" stroke="#63b8ff" points="730.06,-56.05 740.24,-53.12 730.45,-49.06 730.06,-56.05"/>
</a>
</g>
</g>
<!-- Node7 -->
<g id="Node000007" class="node">
<title>Node7</title>
<g id="a_Node000007"><a xlink:href="../../d4/d4e/structlamina_1_1FGLMPoly.html#a66dcc316a18dd3b9d2bcde176509117c" target="_top" xlink:title="从单项式构造多项式（系数为 1）">
<polygon fill="white" stroke="#666666" points="688.5,-468.34 554.5,-468.34 554.5,-438.34 688.5,-438.34 688.5,-468.34"/>
<text text-anchor="start" x="562.5" y="-456.34" font-family="Helvetica,sans-Serif" font-size="10.00">lamina::FGLMPoly::from</text>
<text text-anchor="middle" x="621.5" y="-445.34" font-family="Helvetica,sans-Serif" font-size="10.00">_monomial</text>
</a>
</g>
</g>
<!-- Node2&#45;&gt;Node7 -->
<g id="edge6_Node000002_Node000007" class="edge">
<title>Node2&#45;&gt;Node7</title>
<g id="a_edge6_Node000002_Node000007"><a xlink:title=" ">
<path fill="none" stroke="#63b8ff" d="M246.44,-305.87C259.78,-330.48 299.18,-396.25 353,-424.34 411.96,-455.12 488.09,-460.63 544.05,-459.46"/>
<polygon fill="#63b8ff" stroke="#63b8ff" points="544.35,-462.95 554.25,-459.17 544.15,-455.96 544.35,-462.95"/>
</a>
</g>
</g>
<!-- Node8 -->
<g id="Node000008" class="node">
<title>Node8</title>
<g id="a_Node000008"><a xlink:href="../../d4/d4e/structlamina_1_1FGLMPoly.html#a7eaa64fe293ab238e88741931141de9a" target="_top" xlink:title="判断是否为零多项式">
<polygon fill="white" stroke="#666666" points="886,-400.84 741,-400.84 741,-381.84 886,-381.84 886,-400.84"/>
<text text-anchor="middle" x="813.5" y="-388.84" font-family="Helvetica,sans-Serif" font-size="10.00">lamina::FGLMPoly::is_zero</text>
</a>
</g>
</g>
<!-- Node2&#45;&gt;Node8 -->
<g id="edge8_Node000002_Node000008" class="edge">
<title>Node2&#45;&gt;Node8</title>
<g id="a_edge8_Node000002_Node000008"><a xlink:title=" ">
<path fill="none" stroke="#63b8ff" d="M248.8,-306.08C264.89,-326.63 305.75,-373.94 353,-391.34 492.34,-442.65 671.97,-419.35 759.64,-402.81"/>
<polygon fill="#63b8ff" stroke="#63b8ff" points="760.46,-406.21 769.61,-400.88 759.13,-399.34 760.46,-406.21"/>
</a>
</g>
</g>
<!-- Node9 -->
<g id="Node000009" class="node">
<title>Node9</title>
<g id="a_Node000009"><a xlink:href="../../d1/d42/namespacelamina.html#a8158996699ada9d74093e788797ae563" target="_top" xlink:title="判断理想是否为零维（每个变量都有纯幂次首项）">
<polygon fill="white" stroke="#666666" points="509,-381.84 353,-381.84 353,-362.84 509,-362.84 509,-381.84"/>
<text text-anchor="middle" x="431" y="-369.84" font-family="Helvetica,sans-Serif" font-size="10.00">lamina::is_zero_dimensional</text>
</a>
</g>
</g>
<!-- Node2&#45;&gt;Node9 -->
<g id="edge9_Node000002_Node000009" class="edge">
<title>Node2&#45;&gt;Node9</title>
<g id="a_edge9_Node000002_Node000009"><a xlink:title=" ">
<path fill="none" stroke="#63b8ff" d="M260.1,-305.96C281.97,-317.04 319.54,-335.39 353,-348.34 363.6,-352.44 375.21,-356.35 386.14,-359.79"/>
<polygon fill="#63b8ff" stroke="#63b8ff" points="385.34,-363.2 395.93,-362.79 387.4,-356.51 385.34,-363.2"/>
</a>
</g>
</g>
<!-- Node10 -->
<g id="Node000010" class="node">
<title>Node10</title>
<g id="a_Node000010"><a xlink:href="../../d4/d4e/structlamina_1_1FGLMPoly.html#a1041ade8aaa9f73e16dd52e78dd5a20b" target="_top" xlink:title="获取首项单项式">
<polygon fill="white" stroke="#666666" points="876,-343.84 751,-343.84 751,-324.84 876,-324.84 876,-343.84"/>
<text text-anchor="middle" x="813.5" y="-331.84" font-family="Helvetica,sans-Serif" font-size="10.00">lamina::FGLMPoly::LM</text>
</a>
</g>
</g>
<!-- Node2&#45;&gt;Node10 -->
<g id="edge12_Node000002_Node000010" class="edge">
<title>Node2&#45;&gt;Node10</title>
<g id="a_edge12_Node000002_Node000010"><a xlink:title=" ">
<path fill="none" stroke="#63b8ff" d="M301.26,-300.32C407.03,-307.36 626.75,-321.98 740.61,-329.56"/>
<polygon fill="#63b8ff" stroke="#63b8ff" points="740.41,-333.05 750.62,-330.22 740.88,-326.07 740.41,-333.05"/>
</a>
</g>
</g>
<!-- Node11 -->
<g id="Node000011" class="node">
<title>Node11</title>
<g id="a_Node000011"><a xlink:href="../../d4/d4e/structlamina_1_1FGLMPoly.html#aba84da3b4908c73b6301cf2efc3ffa73" target="_top" xlink:title="获取首项系数">
<polygon fill="white" stroke="#666666" points="874.5,-286.84 752.5,-286.84 752.5,-267.84 874.5,-267.84 874.5,-286.84"/>
<text text-anchor="middle" x="813.5" y="-274.84" font-family="Helvetica,sans-Serif" font-size="10.00">lamina::FGLMPoly::LC</text>
</a>
</g>
</g>
<!-- Node2&#45;&gt;Node11 -->
<g id="edge11_Node000002_Node000011" class="edge">
<title>Node2&#45;&gt;Node11</title>
<g id="a_edge11_Node000002_Node000011"><a xlink:title=" ">
<path fill="none" stroke="#63b8ff" d="M301.26,-294.35C407.48,-290.82 628.61,-283.46 742.05,-279.68"/>
<polygon fill="#63b8ff" stroke="#63b8ff" points="742.47,-283.17 752.35,-279.34 742.24,-276.18 742.47,-283.17"/>
</a>
</g>
</g>
<!-- Node12 -->
<g id="Node000012" class="node">
<title>Node12</title>
<g id="a_Node000012"><a xlink:href="../../de/d7c/classlamina_1_1detail_1_1MonomialEnumerator.html#a8e799c348524df75b7c87bfd81005517" target="_top" xlink:title="获取下一个单项式">
<polygon fill="white" stroke="#666666" points="500.5,-230.34 361.5,-230.34 361.5,-200.34 500.5,-200.34 500.5,-230.34"/>
<text text-anchor="start" x="369.5" y="-218.34" font-family="Helvetica,sans-Serif" font-size="10.00">lamina::detail::Monomial</text>
<text text-anchor="middle" x="431" y="-207.34" font-family="Helvetica,sans-Serif" font-size="10.00">Enumerator::next</text>
</a>
</g>
</g>
<!-- Node2&#45;&gt;Node12 -->
<g id="edge13_Node000002_Node000012" class="edge">
<title>Node2&#45;&gt;Node12</title>
<g id="a_edge13_Node000002_Node000012"><a xlink:title=" ">
<path fill="none" stroke="#63b8ff" d="M295.34,-286.72C302.88,-284.26 310.32,-281.19 317,-277.34 336.88,-265.88 333.52,-252.46 353,-240.34 356.33,-238.27 359.85,-236.35 363.47,-234.58"/>
<polygon fill="#63b8ff" stroke="#63b8ff" points="364.96,-237.75 372.66,-230.47 362.1,-231.36 364.96,-237.75"/>
</a>
</g>
</g>
<!-- Node15 -->
<g id="Node000015" class="node">
<title>Node15</title>
<g id="a_Node000015"><a xlink:href="../../d1/d42/namespacelamina.html#a615da511a869f4ba0daf5754985bad01" target="_top" xlink:title="计算多项式关于基的标准形（余式）">
<polygon fill="white" stroke="#666666" points="490.5,-267.84 371.5,-267.84 371.5,-248.84 490.5,-248.84 490.5,-267.84"/>
<text text-anchor="middle" x="431" y="-255.84" font-family="Helvetica,sans-Serif" font-size="10.00">lamina::normal_form</text>
</a>
</g>
</g>
<!-- Node2&#45;&gt;Node15 -->
<g id="edge16_Node000002_Node000015" class="edge">
<title>Node2&#45;&gt;Node15</title>
<g id="a_edge16_Node000002_Node000015"><a xlink:title=" ">
<path fill="none" stroke="#63b8ff" d="M289.07,-286.75C314.5,-281.62 346,-275.27 372.77,-269.88"/>
<polygon fill="#63b8ff" stroke="#63b8ff" points="373.66,-273.27 382.78,-267.86 372.28,-266.41 373.66,-273.27"/>
</a>
</g>
</g>
<!-- Node17 -->
<g id="Node000017" class="node">
<title>Node17</title>
<g id="a_Node000017"><a xlink:href="../../d4/d4e/structlamina_1_1FGLMPoly.html#ac7ffc352e752ef44537bc1a09f35456f" target="_top" xlink:title="合并同类项并去除零项">
<polygon fill="white" stroke="#666666" points="893,-230.84 734,-230.84 734,-211.84 893,-211.84 893,-230.84"/>
<text text-anchor="middle" x="813.5" y="-218.84" font-family="Helvetica,sans-Serif" font-size="10.00">lamina::FGLMPoly::normalize</text>
</a>
</g>
</g>
<!-- Node2&#45;&gt;Node17 -->
<g id="edge25_Node000002_Node000017" class="edge">
<title>Node2&#45;&gt;Node17</title>
<g id="a_edge25_Node000002_Node000017"><a xlink:title=" ">
<path fill="none" stroke="#63b8ff" d="M301.05,-287.15C306.83,-284.61 312.29,-281.4 317,-277.34 348.41,-250.32 320.91,-217.55 353,-191.34 420.37,-136.31 458.43,-161.83 545,-153.34 612.68,-146.71 632.43,-135.34 698,-153.34 734.64,-163.4 771.43,-188.57 793.07,-205.3"/>
<polygon fill="#63b8ff" stroke="#63b8ff" points="791.1,-208.21 801.12,-211.68 795.45,-202.72 791.1,-208.21"/>
</a>
</g>
</g>
<!-- Node18 -->
<g id="Node000018" class="node">
<title>Node18</title>
<g id="a_Node000018"><a xlink:href="../../d4/d4e/structlamina_1_1FGLMPoly.html#a01e29a801e350f7b7112d983724b1247" target="_top" xlink:title="按指定单项式序排序各项">
<polygon fill="white" stroke="#666666" points="878,-155.34 749,-155.34 749,-125.34 878,-125.34 878,-155.34"/>
<text text-anchor="start" x="757" y="-143.34" font-family="Helvetica,sans-Serif" font-size="10.00">lamina::FGLMPoly::sort</text>
<text text-anchor="middle" x="813.5" y="-132.34" font-family="Helvetica,sans-Serif" font-size="10.00">_terms</text>
</a>
</g>
</g>
<!-- Node2&#45;&gt;Node18 -->
<g id="edge28_Node000002_Node000018" class="edge">
<title>Node2&#45;&gt;Node18</title>
<g id="a_edge28_Node000002_Node000018"><a xlink:title=" ">
<path fill="none" stroke="#63b8ff" d="M301.18,-287.86C307,-285.2 312.44,-281.76 317,-277.34 358.83,-236.82 307.53,-187.73 353,-151.34 470.19,-57.56 663.23,-95.65 757.4,-122.46"/>
<polygon fill="#63b8ff" stroke="#63b8ff" points="756.43,-125.82 767.01,-125.25 758.39,-119.1 756.43,-125.82"/>
</a>
</g>
</g>
<!-- Node19 -->
<g id="Node000019" class="node">
<title>Node19</title>
<g id="a_Node000019"><a xlink:href="../../d1/d42/namespacelamina.html#a809ed2cd961ec7298f777fe36883cd27" target="_top" xlink:title="计算商空间维数（标准单项式个数）">
<polygon fill="white" stroke="#666666" points="698,-29.84 545,-29.84 545,-10.84 698,-10.84 698,-29.84"/>
<text text-anchor="middle" x="621.5" y="-17.84" font-family="Helvetica,sans-Serif" font-size="10.00">lamina::quotient_dimension</text>
</a>
</g>
</g>
<!-- Node2&#45;&gt;Node19 -->
<g id="edge26_Node000002_Node000019" class="edge">
<title>Node2&#45;&gt;Node19</title>
<g id="a_edge26_Node000002_Node000019"><a xlink:title=" ">
<path fill="none" stroke="#63b8ff" d="M301.01,-288.77C307.02,-285.95 312.54,-282.24 317,-277.34 387.56,-199.87 276.58,-116.03 353,-44.34 411.67,10.7 512.75,2.45 572.43,-8.77"/>
<polygon fill="#63b8ff" stroke="#63b8ff" points="571.87,-12.23 582.36,-10.74 573.23,-5.36 571.87,-12.23"/>
</a>
</g>
</g>
<!-- Node4 -->
<g id="Node000004" class="node">
<title>Node4</title>
<g id="a_Node000004"><a xlink:href="../../d8/da7/classRational.html#a782a77721d3d519323bde766752cabdf" target="_top" xlink:title="判断是否为零">
<polygon fill="white" stroke="#666666" points="1027,-462.84 929,-462.84 929,-443.84 1027,-443.84 1027,-462.84"/>
<text text-anchor="middle" x="978" y="-450.84" font-family="Helvetica,sans-Serif" font-size="10.00">Rational::is_zero</text>
</a>
</g>
</g>
<!-- Node3&#45;&gt;Node4 -->
<g id="edge3_Node000003_Node000004" class="edge">
<title>Node3&#45;&gt;Node4</title>
<g id="a_edge3_Node000003_Node000004"><a xlink:title=" ">
<path fill="none" stroke="#63b8ff" d="M892.42,-453.34C901.22,-453.34 910.07,-453.34 918.57,-453.34"/>
<polygon fill="#63b8ff" stroke="#63b8ff" points="918.72,-456.84 928.72,-453.34 918.72,-449.84 918.72,-456.84"/>
</a>
</g>
</g>
<!-- Node7&#45;&gt;Node3 -->
<g id="edge7_Node000007_Node000003" class="edge">
<title>Node7&#45;&gt;Node3</title>
<g id="a_edge7_Node000007_Node000003"><a xlink:title=" ">
<path fill="none" stroke="#63b8ff" d="M688.69,-453.34C700.32,-453.34 712.58,-453.34 724.69,-453.34"/>
<polygon fill="#63b8ff" stroke="#63b8ff" points="724.81,-456.84 734.81,-453.34 724.81,-449.84 724.81,-456.84"/>
</a>
</g>
</g>
<!-- Node9&#45;&gt;Node10 -->
<g id="edge10_Node000009_Node000010" class="edge">
<title>Node9&#45;&gt;Node10</title>
<g id="a_edge10_Node000009_Node000010"><a xlink:title=" ">
<path fill="none" stroke="#63b8ff" d="M509.18,-366.03C562.31,-361.52 634.49,-355.09 698,-348.34 711.78,-346.88 726.48,-345.18 740.59,-343.49"/>
<polygon fill="#63b8ff" stroke="#63b8ff" points="741.23,-346.93 750.74,-342.26 740.39,-339.98 741.23,-346.93"/>
</a>
</g>
</g>
<!-- Node13 -->
<g id="Node000013" class="node">
<title>Node13</title>
<g id="a_Node000013"><a xlink:href="../../de/d7c/classlamina_1_1detail_1_1MonomialEnumerator.html#a1914f3b5d03c964c3929093f08e441db" target="_top" xlink:title=" ">
<polygon fill="white" stroke="#666666" points="691,-230.34 552,-230.34 552,-200.34 691,-200.34 691,-230.34"/>
<text text-anchor="start" x="560" y="-218.34" font-family="Helvetica,sans-Serif" font-size="10.00">lamina::detail::Monomial</text>
<text text-anchor="middle" x="621.5" y="-207.34" font-family="Helvetica,sans-Serif" font-size="10.00">Enumerator::push</text>
</a>
</g>
</g>
<!-- Node12&#45;&gt;Node13 -->
<g id="edge14_Node000012_Node000013" class="edge">
<title>Node12&#45;&gt;Node13</title>
<g id="a_edge14_Node000012_Node000013"><a xlink:title=" ">
<path fill="none" stroke="#63b8ff" d="M500.59,-215.34C513.92,-215.34 528,-215.34 541.64,-215.34"/>
<polygon fill="#63b8ff" stroke="#63b8ff" points="541.97,-218.84 551.97,-215.34 541.96,-211.84 541.97,-218.84"/>
</a>
</g>
</g>
<!-- Node14 -->
<g id="Node000014" class="node">
<title>Node14</title>
<g id="a_Node000014"><a xlink:href="../../d1/d42/namespacelamina.html#a33c68aed536f8284ccb988c65de34e2b" target="_top" xlink:title="计算单项式的全次数">
<polygon fill="white" stroke="#666666" points="680.5,-181.84 562.5,-181.84 562.5,-162.84 680.5,-162.84 680.5,-181.84"/>
<text text-anchor="middle" x="621.5" y="-169.84" font-family="Helvetica,sans-Serif" font-size="10.00">lamina::total_degree</text>
</a>
</g>
</g>
<!-- Node12&#45;&gt;Node14 -->
<g id="edge15_Node000012_Node000014" class="edge">
<title>Node12&#45;&gt;Node14</title>
<g id="a_edge15_Node000012_Node000014"><a xlink:title=" ">
<path fill="none" stroke="#63b8ff" d="M497.93,-200.3C521.22,-194.99 547.06,-189.09 568.98,-184.09"/>
<polygon fill="#63b8ff" stroke="#63b8ff" points="569.79,-187.5 578.76,-181.86 568.23,-180.67 569.79,-187.5"/>
</a>
</g>
</g>
<!-- Node16 -->
<g id="Node000016" class="node">
<title>Node16</title>
<g id="a_Node000016"><a xlink:href="../../d4/d4e/structlamina_1_1FGLMPoly.html#aac6abd7b0ee2df21ac10794a675244a0" target="_top" xlink:title="对给定基进行多项式约化">
<polygon fill="white" stroke="#666666" points="693,-267.84 550,-267.84 550,-248.84 693,-248.84 693,-267.84"/>
<text text-anchor="middle" x="621.5" y="-255.84" font-family="Helvetica,sans-Serif" font-size="10.00">lamina::FGLMPoly::reduce</text>
</a>
</g>
</g>
<!-- Node15&#45;&gt;Node16 -->
<g id="edge17_Node000015_Node000016" class="edge">
<title>Node15&#45;&gt;Node16</title>
<g id="a_edge17_Node000015_Node000016"><a xlink:title=" ">
<path fill="none" stroke="#63b8ff" d="M490.61,-258.34C506.09,-258.34 523.08,-258.34 539.52,-258.34"/>
<polygon fill="#63b8ff" stroke="#63b8ff" points="539.67,-261.84 549.67,-258.34 539.67,-254.84 539.67,-261.84"/>
</a>
</g>
</g>
<!-- Node16&#45;&gt;Node3 -->
<g id="edge18_Node000016_Node000003" class="edge">
<title>Node16&#45;&gt;Node3</title>
<g id="a_edge18_Node000016_Node000003"><a xlink:title=" ">
<path fill="none" stroke="#63b8ff" d="M627.59,-268.01C641.59,-293.87 683.05,-365.69 734,-410.34 747.42,-422.1 764.6,-431.96 779.46,-439.26"/>
<polygon fill="#63b8ff" stroke="#63b8ff" points="778.29,-442.58 788.83,-443.69 781.28,-436.25 778.29,-442.58"/>
</a>
</g>
</g>
<!-- Node16&#45;&gt;Node6 -->
<g id="edge19_Node000016_Node000006" class="edge">
<title>Node16&#45;&gt;Node6</title>
<g id="a_edge19_Node000016_Node000006"><a xlink:title=" ">
<path fill="none" stroke="#63b8ff" d="M684.36,-248.78C689.36,-246.28 694.01,-243.18 698,-239.34 739.04,-199.84 701.39,-163.04 734,-116.34 746.85,-97.94 767.42,-83.05 784.28,-72.97"/>
<polygon fill="#63b8ff" stroke="#63b8ff" points="786.25,-75.87 793.19,-67.87 782.78,-69.8 786.25,-75.87"/>
</a>
</g>
</g>
<!-- Node16&#45;&gt;Node8 -->
<g id="edge20_Node000016_Node000008" class="edge">
<title>Node16&#45;&gt;Node8</title>
<g id="a_edge20_Node000016_Node000008"><a xlink:title=" ">
<path fill="none" stroke="#63b8ff" d="M631.97,-267.89C650.4,-286.14 692.9,-326.51 734,-353.34 748.11,-362.55 764.8,-370.94 779.14,-377.47"/>
<polygon fill="#63b8ff" stroke="#63b8ff" points="778.08,-380.83 788.64,-381.69 780.92,-374.43 778.08,-380.83"/>
</a>
</g>
</g>
<!-- Node16&#45;&gt;Node10 -->
<g id="edge22_Node000016_Node000010" class="edge">
<title>Node16&#45;&gt;Node10</title>
<g id="a_edge22_Node000016_Node000010"><a xlink:title=" ">
<path fill="none" stroke="#63b8ff" d="M646.56,-267.97C680.11,-281.39 741.08,-305.77 779.04,-320.96"/>
<polygon fill="#63b8ff" stroke="#63b8ff" points="778.05,-324.33 788.63,-324.79 780.65,-317.83 778.05,-324.33"/>
</a>
</g>
</g>
<!-- Node16&#45;&gt;Node11 -->
<g id="edge21_Node000016_Node000011" class="edge">
<title>Node16&#45;&gt;Node11</title>
<g id="a_edge21_Node000016_Node000011"><a xlink:title=" ">
<path fill="none" stroke="#63b8ff" d="M693.25,-265.42C709.17,-267.01 726.07,-268.7 741.99,-270.29"/>
<polygon fill="#63b8ff" stroke="#63b8ff" points="741.99,-273.81 752.28,-271.32 742.68,-266.84 741.99,-273.81"/>
</a>
</g>
</g>
<!-- Node16&#45;&gt;Node17 -->
<g id="edge23_Node000016_Node000017" class="edge">
<title>Node16&#45;&gt;Node17</title>
<g id="a_edge23_Node000016_Node000017"><a xlink:title=" ">
<path fill="none" stroke="#63b8ff" d="M671.43,-248.81C696.49,-243.93 727.18,-237.95 753.54,-232.82"/>
<polygon fill="#63b8ff" stroke="#63b8ff" points="754.26,-236.25 763.41,-230.9 752.92,-229.38 754.26,-236.25"/>
</a>
</g>
</g>
<!-- Node16&#45;&gt;Node18 -->
<g id="edge24_Node000016_Node000018" class="edge">
<title>Node16&#45;&gt;Node18</title>
<g id="a_edge24_Node000016_Node000018"><a xlink:title=" ">
<path fill="none" stroke="#63b8ff" d="M675.89,-248.77C683.58,-246.3 691.18,-243.21 698,-239.34 717.68,-228.18 717.15,-218.44 734,-203.34 750.14,-188.87 769.07,-173.64 784.29,-161.77"/>
<polygon fill="#63b8ff" stroke="#63b8ff" points="786.56,-164.44 792.33,-155.55 782.28,-158.9 786.56,-164.44"/>
</a>
</g>
</g>
<!-- Node19&#45;&gt;Node6 -->
<g id="edge27_Node000019_Node000006" class="edge">
<title>Node19&#45;&gt;Node6</title>
<g id="a_edge27_Node000019_Node000006"><a xlink:title=" ">
<path fill="none" stroke="#63b8ff" d="M670.45,-29.93C696.08,-35.06 727.84,-41.41 754.82,-46.8"/>
<polygon fill="#63b8ff" stroke="#63b8ff" points="754.41,-50.29 764.9,-48.82 755.78,-43.43 754.41,-50.29"/>
</a>
</g>
</g>
</g>
</svg>
