<?xml version="1.0" encoding="UTF-8" standalone="no"?>
<!DOCTYPE svg PUBLIC "-//W3C//DTD SVG 1.1//EN"
 "http://www.w3.org/Graphics/SVG/1.1/DTD/svg11.dtd">
<!-- Generated by graphviz version 2.43.0 (0)
 -->
<!-- Title: lamina::make_complex Pages: 1 -->
<!--zoomable 324 -->

<svg id="main" version="1.1" xmlns="http://www.w3.org/2000/svg" xmlns:xlink="http://www.w3.org/1999/xlink" xml:space="preserve" onload="init(evt)">
<style type="text/css"><![CDATA[
.node, .edge {opacity: 0.7;}
.node.selected, .edge.selected {opacity: 1;}
.edge:hover path { stroke: red; }
.edge:hover polygon { stroke: red; fill: red; }
]]></style>

<defs>
  <circle id="rim" cx="0" cy="0" r="7"/>
  <circle id="rim2" cx="0" cy="0" r="3.5"/>
  <g id="zoomPlus">
    <use xlink:href="#rim" fill="#404040"><set attributeName="fill" to="#808080" begin="zoomplus.mouseover" end="zoomplus.mouseout"/></use>
    <path d="M-4,0h8M0,-4v8" fill="none" stroke="white" stroke-width="1.5" pointer-events="none"/>
  </g>
  <g id="zoomMin">
    <use xlink:href="#rim" fill="#404040"><set attributeName="fill" to="#808080" begin="zoomminus.mouseover" end="zoomminus.mouseout"/></use>
    <path d="M-4,0h8" fill="none" stroke="white" stroke-width="1.5" pointer-events="none"/>
  </g>
  <g id="arrowUp" transform="translate(30 24)">
    <use xlink:href="#rim"/>
    <path pointer-events="none" fill="none" stroke="white" stroke-width="1.5" d="M0,-3.0v7 M-2.5,-0.5L0,-3.0L2.5,-0.5"/>
  </g>
  <g id="arrowRight" transform="rotate(90) translate(36 -43)">
    <use xlink:href="#rim"/>
    <path pointer-events="none" fill="none" stroke="white" stroke-width="1.5" d="M0,-3.0v7 M-2.5,-0.5L0,-3.0L2.5,-0.5"/>
  </g>
  <g id="arrowDown" transform="rotate(180) translate(-30 -48)">
    <use xlink:href="#rim"/>
    <path pointer-events="none" fill="none" stroke="white" stroke-width="1.5" d="M0,-3.0v7 M-2.5,-0.5L0,-3.0L2.5,-0.5"/>
  </g>
  <g id="arrowLeft" transform="rotate(270) translate(-36 17)">
    <use xlink:href="#rim"/>
    <path pointer-events="none" fill="none" stroke="white" stroke-width="1.5" d="M0,-3.0v7 M-2.5,-0.5L0,-3.0L2.5,-0.5"/>
  </g>
  <g id="resetDef">
    <use xlink:href="#rim2" fill="#404040"><set attributeName="fill" to="#808080" begin="reset.mouseover" end="reset.mouseout"/></use>
  </g>
</defs>
<script type="application/ecmascript">
var viewWidth = 510;
var viewHeight = 324;
var sectionId = 'dynsection-160';
</script>
<script type="application/ecmascript" xlink:href="../../svg.min.js"/>
<svg id="graph" class="graph">
<g id="viewport">
<title>lamina::make_complex</title>
<!-- Node1 -->
<g id="Node000001" class="node">
<title>Node1</title>
<g id="a_Node000001"><a xlink:title="构造符号复数">
<polygon fill="#999999" stroke="#666666" points="502,-165.71 371,-165.71 371,-146.71 502,-146.71 502,-165.71"/>
<text text-anchor="middle" x="436.5" y="-153.71" font-family="Helvetica,sans-Serif" font-size="10.00">lamina::make_complex</text>
</a>
</g>
</g>
<!-- Node2 -->
<g id="Node000002" class="node">
<title>Node2</title>
<g id="a_Node000002"><a xlink:href="../../d1/d42/namespacelamina.html#a938b1a53aaef0787d737a9c6c79a1990" target="_top" xlink:title="复数加法">
<polygon fill="white" stroke="#666666" points="321,-315.71 199,-315.71 199,-296.71 321,-296.71 321,-315.71"/>
<text text-anchor="middle" x="260" y="-303.71" font-family="Helvetica,sans-Serif" font-size="10.00">lamina::complex_add</text>
</a>
</g>
</g>
<!-- Node1&#45;&gt;Node2 -->
<g id="edge1_Node000001_Node000002" class="edge">
<title>Node1&#45;&gt;Node2</title>
<g id="a_edge1_Node000001_Node000002"><a xlink:title=" ">
<path fill="none" stroke="#63b8ff" d="M426.5,-175.07C411.65,-204.08 379.2,-259.3 335,-288.21 329.8,-291.62 324.01,-294.38 318.03,-296.61"/>
<polygon fill="#63b8ff" stroke="#63b8ff" points="429.69,-176.51 431.01,-165.99 423.42,-173.39 429.69,-176.51"/>
</a>
</g>
</g>
<!-- Node3 -->
<g id="Node000003" class="node">
<title>Node3</title>
<g id="a_Node000003"><a xlink:href="../../d1/d42/namespacelamina.html#a476823351c726c3fe9d5ed90a0af0773" target="_top" xlink:title="计算复数的共轭">
<polygon fill="white" stroke="#666666" points="322,-278.71 198,-278.71 198,-259.71 322,-259.71 322,-278.71"/>
<text text-anchor="middle" x="260" y="-266.71" font-family="Helvetica,sans-Serif" font-size="10.00">lamina::complex_conj</text>
</a>
</g>
</g>
<!-- Node1&#45;&gt;Node3 -->
<g id="edge2_Node000001_Node000003" class="edge">
<title>Node1&#45;&gt;Node3</title>
<g id="a_edge2_Node000001_Node000003"><a xlink:title=" ">
<path fill="none" stroke="#63b8ff" d="M420.33,-173.38C401.94,-193.24 369.15,-225.7 335,-245.21 324.45,-251.25 312.17,-256 300.68,-259.64"/>
<polygon fill="#63b8ff" stroke="#63b8ff" points="422.95,-175.71 427.08,-165.96 417.77,-171 422.95,-175.71"/>
</a>
</g>
</g>
<!-- Node4 -->
<g id="Node000004" class="node">
<title>Node4</title>
<g id="a_Node000004"><a xlink:href="../../d1/d42/namespacelamina.html#aaccca573ea37fb2aec9e5580388fed44" target="_top" xlink:title="复数除法">
<polygon fill="white" stroke="#666666" points="319.5,-202.71 200.5,-202.71 200.5,-183.71 319.5,-183.71 319.5,-202.71"/>
<text text-anchor="middle" x="260" y="-190.71" font-family="Helvetica,sans-Serif" font-size="10.00">lamina::complex_div</text>
</a>
</g>
</g>
<!-- Node1&#45;&gt;Node4 -->
<g id="edge3_Node000001_Node000004" class="edge">
<title>Node1&#45;&gt;Node4</title>
<g id="a_edge3_Node000001_Node000004"><a xlink:title=" ">
<path fill="none" stroke="#63b8ff" d="M380.55,-167.87C356.58,-172.95 328.82,-178.83 306.09,-183.65"/>
<polygon fill="#63b8ff" stroke="#63b8ff" points="381.51,-171.24 390.56,-165.74 380.05,-164.39 381.51,-171.24"/>
</a>
</g>
</g>
<!-- Node5 -->
<g id="Node000005" class="node">
<title>Node5</title>
<g id="a_Node000005"><a xlink:href="../../d1/d42/namespacelamina.html#afcf84c5777bf3b06190928658aac9b13" target="_top" xlink:title="求复系数一元二次方程 az^2 + bz + c = 0 的根">
<polygon fill="white" stroke="#666666" points="139.5,-243.21 9.5,-243.21 9.5,-213.21 139.5,-213.21 139.5,-243.21"/>
<text text-anchor="start" x="17.5" y="-231.21" font-family="Helvetica,sans-Serif" font-size="10.00">lamina::solve_complex</text>
<text text-anchor="middle" x="74.5" y="-220.21" font-family="Helvetica,sans-Serif" font-size="10.00">_quadratic</text>
</a>
</g>
</g>
<!-- Node1&#45;&gt;Node5 -->
<g id="edge14_Node000001_Node000005" class="edge">
<title>Node1&#45;&gt;Node5</title>
<g id="a_edge14_Node000001_Node000005"><a xlink:title=" ">
<path fill="none" stroke="#63b8ff" d="M414.28,-171.77C394.76,-185.14 364.45,-203.59 335,-212.21 270.35,-231.15 192.88,-233.45 139.51,-232.07"/>
<polygon fill="#63b8ff" stroke="#63b8ff" points="416.53,-174.47 422.7,-165.86 412.5,-168.74 416.53,-174.47"/>
</a>
</g>
</g>
<!-- Node6 -->
<g id="Node000006" class="node">
<title>Node6</title>
<g id="a_Node000006"><a xlink:href="../../d1/d42/namespacelamina.html#a03dd5c6cd76d4a204af7dbdd103ff63e" target="_top" xlink:title="将极坐标形式转换为指数形式复数 r*e^(i*theta)">
<polygon fill="white" stroke="#666666" points="335,-165.71 185,-165.71 185,-146.71 335,-146.71 335,-165.71"/>
<text text-anchor="middle" x="260" y="-153.71" font-family="Helvetica,sans-Serif" font-size="10.00">lamina::complex_exp_form</text>
</a>
</g>
</g>
<!-- Node1&#45;&gt;Node6 -->
<g id="edge5_Node000001_Node000006" class="edge">
<title>Node1&#45;&gt;Node6</title>
<g id="a_edge5_Node000001_Node000006"><a xlink:title=" ">
<path fill="none" stroke="#63b8ff" d="M360.4,-156.21C352.03,-156.21 343.5,-156.21 335.14,-156.21"/>
<polygon fill="#63b8ff" stroke="#63b8ff" points="360.52,-159.71 370.52,-156.21 360.52,-152.71 360.52,-159.71"/>
</a>
</g>
</g>
<!-- Node9 -->
<g id="Node000009" class="node">
<title>Node9</title>
<g id="a_Node000009"><a xlink:href="../../d1/d42/namespacelamina.html#ac920de8e690251953582b421217583e6" target="_top" xlink:title="生成以 a 为圆心、r 为半径的复数轨迹方程 |z &#45; a| = r">
<polygon fill="white" stroke="#666666" points="139,-97.21 10,-97.21 10,-67.21 139,-67.21 139,-97.21"/>
<text text-anchor="start" x="18" y="-85.21" font-family="Helvetica,sans-Serif" font-size="10.00">lamina::complex_locus</text>
<text text-anchor="middle" x="74.5" y="-74.21" font-family="Helvetica,sans-Serif" font-size="10.00">_circle</text>
</a>
</g>
</g>
<!-- Node1&#45;&gt;Node9 -->
<g id="edge8_Node000001_Node000009" class="edge">
<title>Node1&#45;&gt;Node9</title>
<g id="a_edge8_Node000001_Node000009"><a xlink:title=" ">
<path fill="none" stroke="#63b8ff" d="M379.1,-144.62C314.02,-131.24 207.26,-109.3 139.23,-95.32"/>
<polygon fill="#63b8ff" stroke="#63b8ff" points="378.67,-148.11 389.17,-146.69 380.08,-141.25 378.67,-148.11"/>
</a>
</g>
</g>
<!-- Node10 -->
<g id="Node000010" class="node">
<title>Node10</title>
<g id="a_Node000010"><a xlink:href="../../d1/d42/namespacelamina.html#a69472aa5f1d794dae204a92660b6ba0a" target="_top" xlink:title="生成复数 a 和 b 的中垂线轨迹方程 |z &#45; a| = |z &#45; b|">
<polygon fill="white" stroke="#666666" points="141,-36.21 8,-36.21 8,-6.21 141,-6.21 141,-36.21"/>
<text text-anchor="start" x="16" y="-24.21" font-family="Helvetica,sans-Serif" font-size="10.00">lamina::complex_locus</text>
<text text-anchor="middle" x="74.5" y="-13.21" font-family="Helvetica,sans-Serif" font-size="10.00">_perpendicular_bisector</text>
</a>
</g>
</g>
<!-- Node1&#45;&gt;Node10 -->
<g id="edge9_Node000001_Node000010" class="edge">
<title>Node1&#45;&gt;Node10</title>
<g id="a_edge9_Node000001_Node000010"><a xlink:title=" ">
<path fill="none" stroke="#63b8ff" d="M427.62,-136.99C413.95,-106.53 382.65,-48.17 335,-24.21 274.62,6.14 195.9,1.95 141.07,-6.72"/>
<polygon fill="#63b8ff" stroke="#63b8ff" points="424.55,-138.7 431.72,-146.5 430.97,-135.93 424.55,-138.7"/>
</a>
</g>
</g>
<!-- Node11 -->
<g id="Node000011" class="node">
<title>Node11</title>
<g id="a_Node000011"><a xlink:href="../../d1/d42/namespacelamina.html#ac6c8e1a613ff578a03df9bbe547201e4" target="_top" xlink:title="复数乘法">
<polygon fill="white" stroke="#666666" points="321,-52.71 199,-52.71 199,-33.71 321,-33.71 321,-52.71"/>
<text text-anchor="middle" x="260" y="-40.71" font-family="Helvetica,sans-Serif" font-size="10.00">lamina::complex_mul</text>
</a>
</g>
</g>
<!-- Node1&#45;&gt;Node11 -->
<g id="edge10_Node000001_Node000011" class="edge">
<title>Node1&#45;&gt;Node11</title>
<g id="a_edge10_Node000001_Node000011"><a xlink:title=" ">
<path fill="none" stroke="#63b8ff" d="M421.59,-138.65C403.78,-117.36 370.9,-81.9 335,-62.21 327.91,-58.32 319.99,-55.21 312.05,-52.72"/>
<polygon fill="#63b8ff" stroke="#63b8ff" points="419.02,-141.04 428.06,-146.56 424.44,-136.61 419.02,-141.04"/>
</a>
</g>
</g>
<!-- Node12 -->
<g id="Node000012" class="node">
<title>Node12</title>
<g id="a_Node000012"><a xlink:href="../../d1/d42/namespacelamina.html#a69d4b8c2914f0e96fe5a3411f4469367" target="_top" xlink:title="复数减法">
<polygon fill="white" stroke="#666666" points="320.5,-89.71 199.5,-89.71 199.5,-70.71 320.5,-70.71 320.5,-89.71"/>
<text text-anchor="middle" x="260" y="-77.71" font-family="Helvetica,sans-Serif" font-size="10.00">lamina::complex_sub</text>
</a>
</g>
</g>
<!-- Node1&#45;&gt;Node12 -->
<g id="edge11_Node000001_Node000012" class="edge">
<title>Node1&#45;&gt;Node12</title>
<g id="a_edge11_Node000001_Node000012"><a xlink:title=" ">
<path fill="none" stroke="#63b8ff" d="M410.4,-141.76C390.39,-130.6 361.45,-115.26 335,-104.21 322.04,-98.8 307.4,-93.83 294.58,-89.83"/>
<polygon fill="#63b8ff" stroke="#63b8ff" points="408.75,-144.85 419.18,-146.71 412.19,-138.75 408.75,-144.85"/>
</a>
</g>
</g>
<!-- Node4&#45;&gt;Node5 -->
<g id="edge4_Node000004_Node000005" class="edge">
<title>Node4&#45;&gt;Node5</title>
<g id="a_edge4_Node000004_Node000005"><a xlink:title=" ">
<path fill="none" stroke="#63b8ff" d="M198.87,-204.68C179.93,-208.3 158.94,-212.3 139.73,-215.96"/>
<polygon fill="#63b8ff" stroke="#63b8ff" points="199.69,-208.09 208.86,-202.78 198.38,-201.21 199.69,-208.09"/>
</a>
</g>
</g>
<!-- Node7 -->
<g id="Node000007" class="node">
<title>Node7</title>
<g id="a_Node000007"><a xlink:href="../../d1/d42/namespacelamina.html#a39e1596dbc4d1307a4c4b224b6f85fac" target="_top" xlink:title="将极坐标形式转换为三角形式复数 r*(cos(theta) + i*sin(theta))">
<polygon fill="white" stroke="#666666" points="149,-142.71 0,-142.71 0,-123.71 149,-123.71 149,-142.71"/>
<text text-anchor="middle" x="74.5" y="-130.71" font-family="Helvetica,sans-Serif" font-size="10.00">lamina::complex_trig_form</text>
</a>
</g>
</g>
<!-- Node6&#45;&gt;Node7 -->
<g id="edge6_Node000006_Node000007" class="edge">
<title>Node6&#45;&gt;Node7</title>
<g id="a_edge6_Node000006_Node000007"><a xlink:title=" ">
<path fill="none" stroke="#63b8ff" d="M174.91,-145.67C166.36,-144.6 157.72,-143.52 149.29,-142.46"/>
<polygon fill="#63b8ff" stroke="#63b8ff" points="174.53,-149.15 184.89,-146.93 175.41,-142.21 174.53,-149.15"/>
</a>
</g>
</g>
<!-- Node8 -->
<g id="Node000008" class="node">
<title>Node8</title>
<g id="a_Node000008"><a xlink:href="../../d1/d42/namespacelamina.html#a33f111aacac7819ddffa8c4259368014" target="_top" xlink:title="求复数 c 的 n 次方根">
<polygon fill="white" stroke="#666666" points="139.5,-191.21 9.5,-191.21 9.5,-161.21 139.5,-161.21 139.5,-191.21"/>
<text text-anchor="start" x="17.5" y="-179.21" font-family="Helvetica,sans-Serif" font-size="10.00">lamina::solve_complex</text>
<text text-anchor="middle" x="74.5" y="-168.21" font-family="Helvetica,sans-Serif" font-size="10.00">_nth_root</text>
</a>
</g>
</g>
<!-- Node6&#45;&gt;Node8 -->
<g id="edge7_Node000006_Node000008" class="edge">
<title>Node6&#45;&gt;Node8</title>
<g id="a_edge7_Node000006_Node000008"><a xlink:title=" ">
<path fill="none" stroke="#63b8ff" d="M174.6,-165.41C162.82,-166.7 150.88,-168 139.56,-169.23"/>
<polygon fill="#63b8ff" stroke="#63b8ff" points="175.33,-168.85 184.89,-164.29 174.57,-161.9 175.33,-168.85"/>
</a>
</g>
</g>
<!-- Node12&#45;&gt;Node9 -->
<g id="edge12_Node000012_Node000009" class="edge">
<title>Node12&#45;&gt;Node9</title>
<g id="a_edge12_Node000012_Node000009"><a xlink:title=" ">
<path fill="none" stroke="#63b8ff" d="M189.32,-80.97C172.86,-81.15 155.39,-81.34 139.2,-81.52"/>
<polygon fill="#63b8ff" stroke="#63b8ff" points="189.46,-84.47 199.42,-80.86 189.39,-77.47 189.46,-84.47"/>
</a>
</g>
</g>
<!-- Node12&#45;&gt;Node10 -->
<g id="edge13_Node000012_Node000010" class="edge">
<title>Node12&#45;&gt;Node10</title>
<g id="a_edge13_Node000012_Node000010"><a xlink:title=" ">
<path fill="none" stroke="#63b8ff" d="M206.36,-68.23C199.15,-66.35 191.86,-64.33 185,-62.21 160.55,-54.69 133.65,-44.64 112.62,-36.38"/>
<polygon fill="#63b8ff" stroke="#63b8ff" points="205.56,-71.64 216.11,-70.7 207.28,-64.85 205.56,-71.64"/>
</a>
</g>
</g>
</g>
</svg>

<g id="navigator" transform="translate(0 0)" fill="#404254">
  <rect fill="#f2f5e9" fill-opacity="0.5" stroke="#606060" stroke-width=".5" x="0" y="0" width="60" height="60"/>
  <use id="zoomplus" xlink:href="#zoomPlus" x="17" y="9" onmousedown="handleZoom(evt,'in')"/>
  <use id="zoomminus" xlink:href="#zoomMin" x="42" y="9" onmousedown="handleZoom(evt,'out')"/>
  <use id="reset" xlink:href="#resetDef" x="30" y="36" onmousedown="handleReset()"/>
   <use id="arrowup" xlink:href="#arrowUp" x="0" y="0" onmousedown="handlePan(0,-1)"/>
  <use id="arrowright" xlink:href="#arrowRight" x="0" y="0" onmousedown="handlePan(1,0)"/>
  <use id="arrowdown" xlink:href="#arrowDown" x="0" y="0" onmousedown="handlePan(0,1)"/>
  <use id="arrowleft" xlink:href="#arrowLeft" x="0" y="0" onmousedown="handlePan(-1,0)"/>
</g>
<svg viewBox="0 0 15 15" width="100%" height="30px" preserveAspectRatio="xMaxYMin meet">
 <g id="arrow_out" transform="scale(0.3 0.3)">
  <a xlink:href="namespacelamina_aac4b0272dad9989fa97b2c14d8ee8e24_icgraph_org.svg" target="_base">
   <rect id="button" ry="5" rx="5" y="6" x="6" height="38" width="38"
        fill="#f2f5e9" fill-opacity="0.5" stroke="#606060" stroke-width="1.0"/>
   <path id="arrow"
     d="M 11.500037,31.436501 C 11.940474,20.09759 22.043105,11.32322 32.158766,21.979434 L 37.068811,17.246167 C 37.068811,17.246167 37.088388,32 37.088388,32 L 22.160133,31.978069 C 22.160133,31.978069 26.997745,27.140456 26.997745,27.140456 C 18.528582,18.264221 13.291696,25.230495 11.500037,31.436501 z"
     style="fill:#404040;"/>
  </a>
 </g>
</svg>

<style type='text/css'>
<![CDATA[
[data-mouse-over-selected='false'] { opacity: 0.7; }
[data-mouse-over-selected='true']  { opacity: 1.0; }
]]>
</style>
<script type="application/ecmascript"><![CDATA[
document.addEventListener('DOMContentLoaded', (event) => {
  highlightEdges();
  highlightAdjacentNodes();
});
]]></script>
</svg>
