<?xml version="1.0" encoding="UTF-8" standalone="no"?>
<!DOCTYPE svg PUBLIC "-//W3C//DTD SVG 1.1//EN"
 "http://www.w3.org/Graphics/SVG/1.1/DTD/svg11.dtd">
<!-- Generated by graphviz version 2.43.0 (0)
 -->
<!-- Title: lamina::solve_closed_form_from_poly Pages: 1 -->
<!--zoomable 1264 -->

<svg id="main" version="1.1" xmlns="http://www.w3.org/2000/svg" xmlns:xlink="http://www.w3.org/1999/xlink" xml:space="preserve" onload="init(evt)">
<style type="text/css"><![CDATA[
.node, .edge {opacity: 0.7;}
.node.selected, .edge.selected {opacity: 1;}
.edge:hover path { stroke: red; }
.edge:hover polygon { stroke: red; fill: red; }
]]></style>

<defs>
  <circle id="rim" cx="0" cy="0" r="7"/>
  <circle id="rim2" cx="0" cy="0" r="3.5"/>
  <g id="zoomPlus">
    <use xlink:href="#rim" fill="#404040"><set attributeName="fill" to="#808080" begin="zoomplus.mouseover" end="zoomplus.mouseout"/></use>
    <path d="M-4,0h8M0,-4v8" fill="none" stroke="white" stroke-width="1.5" pointer-events="none"/>
  </g>
  <g id="zoomMin">
    <use xlink:href="#rim" fill="#404040"><set attributeName="fill" to="#808080" begin="zoomminus.mouseover" end="zoomminus.mouseout"/></use>
    <path d="M-4,0h8" fill="none" stroke="white" stroke-width="1.5" pointer-events="none"/>
  </g>
  <g id="arrowUp" transform="translate(30 24)">
    <use xlink:href="#rim"/>
    <path pointer-events="none" fill="none" stroke="white" stroke-width="1.5" d="M0,-3.0v7 M-2.5,-0.5L0,-3.0L2.5,-0.5"/>
  </g>
  <g id="arrowRight" transform="rotate(90) translate(36 -43)">
    <use xlink:href="#rim"/>
    <path pointer-events="none" fill="none" stroke="white" stroke-width="1.5" d="M0,-3.0v7 M-2.5,-0.5L0,-3.0L2.5,-0.5"/>
  </g>
  <g id="arrowDown" transform="rotate(180) translate(-30 -48)">
    <use xlink:href="#rim"/>
    <path pointer-events="none" fill="none" stroke="white" stroke-width="1.5" d="M0,-3.0v7 M-2.5,-0.5L0,-3.0L2.5,-0.5"/>
  </g>
  <g id="arrowLeft" transform="rotate(270) translate(-36 17)">
    <use xlink:href="#rim"/>
    <path pointer-events="none" fill="none" stroke="white" stroke-width="1.5" d="M0,-3.0v7 M-2.5,-0.5L0,-3.0L2.5,-0.5"/>
  </g>
  <g id="resetDef">
    <use xlink:href="#rim2" fill="#404040"><set attributeName="fill" to="#808080" begin="reset.mouseover" end="reset.mouseout"/></use>
  </g>
</defs>
<script type="application/ecmascript">
var viewWidth = 1122;
var viewHeight = 1264;
var sectionId = 'dynsection-229';
</script>
<script type="application/ecmascript" xlink:href="../../svg.min.js"/>
<svg id="graph" class="graph">
<g id="viewport">
<title>lamina::solve_closed_form_from_poly</title>
<!-- Node1 -->
<g id="Node000001" class="node">
<title>Node1</title>
<g id="a_Node000001"><a xlink:title=" ">
<polygon fill="#999999" stroke="#666666" points="119,-935 0,-935 0,-905 119,-905 119,-935"/>
<text text-anchor="start" x="8" y="-923" font-family="Helvetica,sans-Serif" font-size="10.00">lamina::solve_closed</text>
<text text-anchor="middle" x="59.5" y="-912" font-family="Helvetica,sans-Serif" font-size="10.00">_form_from_poly</text>
</a>
</g>
</g>
<!-- Node2 -->
<g id="Node000002" class="node">
<title>Node2</title>
<g id="a_Node000002"><a xlink:href="../../dc/d25/classSymbolicExpr.html#ac8782568f037f8055277e5d8b80ec6d6" target="_top" xlink:title="创建加法表达式。">
<polygon fill="white" stroke="#666666" points="942,-373.5 835,-373.5 835,-354.5 942,-354.5 942,-373.5"/>
<text text-anchor="middle" x="888.5" y="-361.5" font-family="Helvetica,sans-Serif" font-size="10.00">SymbolicExpr::add</text>
</a>
</g>
</g>
<!-- Node1&#45;&gt;Node2 -->
<g id="edge1_Node000001_Node000002" class="edge">
<title>Node1&#45;&gt;Node2</title>
<g id="a_edge1_Node000001_Node000002"><a xlink:title=" ">
<path fill="none" stroke="#63b8ff" d="M61.01,-905C64.22,-816.42 84.03,-361.63 155,-245 199.74,-171.47 231.98,-162.08 313,-133 513.89,-60.9 626.85,-14.03 793,-148 825.58,-174.27 812.36,-196.61 829,-235 846.11,-274.46 867.14,-320.22 878.76,-345.25"/>
<polygon fill="#63b8ff" stroke="#63b8ff" points="875.6,-346.75 882.99,-354.34 881.94,-343.8 875.6,-346.75"/>
</a>
</g>
</g>
<!-- Node3 -->
<g id="Node000003" class="node">
<title>Node3</title>
<g id="a_Node000003"><a xlink:href="../../d8/d1e/classlamina_1_1Polynomial.html#aa4209c719c18fc882b702d88e397bdf4" target="_top" xlink:title="获取多项式的次数">
<polygon fill="white" stroke="#666666" points="440,-1180 329,-1180 329,-1150 440,-1150 440,-1180"/>
<text text-anchor="start" x="337" y="-1168" font-family="Helvetica,sans-Serif" font-size="10.00">lamina::Polynomial</text>
<text text-anchor="middle" x="384.5" y="-1157" font-family="Helvetica,sans-Serif" font-size="10.00">::degree</text>
</a>
</g>
</g>
<!-- Node1&#45;&gt;Node3 -->
<g id="edge2_Node000001_Node000003" class="edge">
<title>Node1&#45;&gt;Node3</title>
<g id="a_edge2_Node000001_Node000003"><a xlink:title=" ">
<path fill="none" stroke="#63b8ff" d="M62.1,-935.13C67.24,-975.34 87.16,-1085.24 155,-1136 201.48,-1170.78 268.73,-1175.44 318.24,-1172.95"/>
<polygon fill="#63b8ff" stroke="#63b8ff" points="318.76,-1176.43 328.52,-1172.32 318.33,-1169.44 318.76,-1176.43"/>
</a>
</g>
</g>
<!-- Node4 -->
<g id="Node000004" class="node">
<title>Node4</title>
<g id="a_Node000004"><a xlink:href="../../dc/d25/classSymbolicExpr.html#aea4c251b3fd9994c77fb8b26dae96d5f" target="_top" xlink:title="执行符号除法。">
<polygon fill="white" stroke="#666666" points="793,-827.5 674,-827.5 674,-808.5 793,-808.5 793,-827.5"/>
<text text-anchor="middle" x="733.5" y="-815.5" font-family="Helvetica,sans-Serif" font-size="10.00">SymbolicExpr::divide</text>
</a>
</g>
</g>
<!-- Node1&#45;&gt;Node4 -->
<g id="edge3_Node000001_Node000004" class="edge">
<title>Node1&#45;&gt;Node4</title>
<g id="a_edge3_Node000001_Node000004"><a xlink:title=" ">
<path fill="none" stroke="#63b8ff" d="M119.22,-915.61C224.19,-907.07 450.57,-885.51 638,-846 657.04,-841.99 677.8,-836.02 695.01,-830.62"/>
<polygon fill="#63b8ff" stroke="#63b8ff" points="696.22,-833.9 704.68,-827.53 694.09,-827.24 696.22,-833.9"/>
</a>
</g>
</g>
<!-- Node5 -->
<g id="Node000005" class="node">
<title>Node5</title>
<g id="a_Node000005"><a xlink:href="../../dc/d25/classSymbolicExpr.html#ad03189fc8a4db7762f7c1ca890674bbc" target="_top" xlink:title="创建乘法表达式。">
<polygon fill="white" stroke="#666666" points="1114,-462.5 984,-462.5 984,-443.5 1114,-443.5 1114,-462.5"/>
<text text-anchor="middle" x="1049" y="-450.5" font-family="Helvetica,sans-Serif" font-size="10.00">SymbolicExpr::multiply</text>
</a>
</g>
</g>
<!-- Node1&#45;&gt;Node5 -->
<g id="edge10_Node000001_Node000005" class="edge">
<title>Node1&#45;&gt;Node5</title>
<g id="a_edge10_Node000001_Node000005"><a xlink:title=" ">
<path fill="none" stroke="#63b8ff" d="M60.6,-904.93C61.49,-808.37 70.24,-276.31 155,-143 219.28,-41.9 263.7,0 383.5,0 383.5,0 383.5,0 734.5,0 948.45,0 1027.87,-345.88 1044.5,-433.18"/>
<polygon fill="#63b8ff" stroke="#63b8ff" points="1041.08,-433.92 1046.34,-443.12 1047.97,-432.65 1041.08,-433.92"/>
</a>
</g>
</g>
<!-- Node6 -->
<g id="Node000006" class="node">
<title>Node6</title>
<g id="a_Node000006"><a xlink:href="../../dc/d25/classSymbolicExpr.html#adeb760bb6f4f28879108394537eca293" target="_top" xlink:title="创建整数数值表达式。">
<polygon fill="white" stroke="#666666" points="1112.5,-979.5 985.5,-979.5 985.5,-960.5 1112.5,-960.5 1112.5,-979.5"/>
<text text-anchor="middle" x="1049" y="-967.5" font-family="Helvetica,sans-Serif" font-size="10.00">SymbolicExpr::number</text>
</a>
</g>
</g>
<!-- Node1&#45;&gt;Node6 -->
<g id="edge11_Node000001_Node000006" class="edge">
<title>Node1&#45;&gt;Node6</title>
<g id="a_edge11_Node000001_Node000006"><a xlink:title=" ">
<path fill="none" stroke="#63b8ff" d="M60.11,-935.03C59.74,-984.4 65.82,-1142.72 155,-1217 233.66,-1282.52 281.13,-1246 383.5,-1246 383.5,-1246 383.5,-1246 734.5,-1246 768.12,-1246 878.9,-1219.89 948,-1157 1000.78,-1108.96 1030.97,-1026.44 1042.51,-989.21"/>
<polygon fill="#63b8ff" stroke="#63b8ff" points="1045.88,-990.17 1045.39,-979.59 1039.17,-988.17 1045.88,-990.17"/>
</a>
</g>
</g>
<!-- Node7 -->
<g id="Node000007" class="node">
<title>Node7</title>
<g id="a_Node000007"><a xlink:href="../../dc/d25/classSymbolicExpr.html#ab03922681e30190ba7c73d2c1e58aa40" target="_top" xlink:title="创建幂运算表达式。">
<polygon fill="white" stroke="#666666" points="948,-922.5 829,-922.5 829,-903.5 948,-903.5 948,-922.5"/>
<text text-anchor="middle" x="888.5" y="-910.5" font-family="Helvetica,sans-Serif" font-size="10.00">SymbolicExpr::power</text>
</a>
</g>
</g>
<!-- Node1&#45;&gt;Node7 -->
<g id="edge12_Node000001_Node000007" class="edge">
<title>Node1&#45;&gt;Node7</title>
<g id="a_edge12_Node000001_Node000007"><a xlink:title=" ">
<path fill="none" stroke="#63b8ff" d="M72.85,-935.18C112.57,-982.16 242.62,-1122 383.5,-1122 383.5,-1122 383.5,-1122 566,-1122 706.05,-1122 833.03,-980.87 873.85,-930.55"/>
<polygon fill="#63b8ff" stroke="#63b8ff" points="876.75,-932.52 880.25,-922.52 871.28,-928.16 876.75,-932.52"/>
</a>
</g>
</g>
<!-- Node8 -->
<g id="Node000008" class="node">
<title>Node8</title>
<g id="a_Node000008"><a xlink:href="../../d2/dab/solve__visitor_8cpp.html#af6f5f16062c17aef0e9d5a3676beedf8" target="_top" xlink:title=" ">
<polygon fill="white" stroke="#666666" points="247,-1207.5 185,-1207.5 185,-1188.5 247,-1188.5 247,-1207.5"/>
<text text-anchor="middle" x="216" y="-1195.5" font-family="Helvetica,sans-Serif" font-size="10.00">get_coeff</text>
</a>
</g>
</g>
<!-- Node1&#45;&gt;Node8 -->
<g id="edge7_Node000001_Node000008" class="edge">
<title>Node1&#45;&gt;Node8</title>
<g id="a_edge7_Node000001_Node000008"><a xlink:title=" ">
<path fill="none" stroke="#63b8ff" d="M61.91,-935.11C66.7,-978.27 86.15,-1103.46 155,-1174 160.67,-1179.81 167.94,-1184.26 175.44,-1187.65"/>
<polygon fill="#63b8ff" stroke="#63b8ff" points="174.38,-1190.99 184.97,-1191.39 176.94,-1184.48 174.38,-1190.99"/>
</a>
</g>
</g>
<!-- Node9 -->
<g id="Node000009" class="node">
<title>Node9</title>
<g id="a_Node000009"><a xlink:href="../../d1/d42/namespacelamina.html#a6905556da3efb2c2544e5c27757789cd" target="_top" xlink:title="使用三次公式求解三次方程 ax³ + bx² + cx + d = 0。">
<polygon fill="white" stroke="#666666" points="441,-665.5 328,-665.5 328,-646.5 441,-646.5 441,-665.5"/>
<text text-anchor="middle" x="384.5" y="-653.5" font-family="Helvetica,sans-Serif" font-size="10.00">lamina::solve_cubic</text>
</a>
</g>
</g>
<!-- Node1&#45;&gt;Node9 -->
<g id="edge13_Node000001_Node000009" class="edge">
<title>Node1&#45;&gt;Node9</title>
<g id="a_edge13_Node000001_Node000009"><a xlink:title=" ">
<path fill="none" stroke="#63b8ff" d="M79.26,-904.67C136,-858.29 305.41,-719.83 363.61,-672.26"/>
<polygon fill="#63b8ff" stroke="#63b8ff" points="366.13,-674.71 371.66,-665.68 361.7,-669.29 366.13,-674.71"/>
</a>
</g>
</g>
<!-- Node16 -->
<g id="Node000016" class="node">
<title>Node16</title>
<g id="a_Node000016"><a xlink:href="../../dc/d25/classSymbolicExpr.html#a521dfd712070d4f40d313de79d3f637c" target="_top" xlink:title="创建平方根表达式，等价于 operand^(1/2)。">
<polygon fill="white" stroke="#666666" points="787.5,-237.5 679.5,-237.5 679.5,-218.5 787.5,-218.5 787.5,-237.5"/>
<text text-anchor="middle" x="733.5" y="-225.5" font-family="Helvetica,sans-Serif" font-size="10.00">SymbolicExpr::sqrt</text>
</a>
</g>
</g>
<!-- Node1&#45;&gt;Node16 -->
<g id="edge63_Node000001_Node000016" class="edge">
<title>Node1&#45;&gt;Node16</title>
<g id="a_edge63_Node000001_Node000016"><a xlink:title=" ">
<path fill="none" stroke="#63b8ff" d="M59.98,-904.91C57.9,-817.64 60.29,-375.75 313,-216 435.59,-138.5 621.18,-188.78 697.67,-214.98"/>
<polygon fill="#63b8ff" stroke="#63b8ff" points="696.7,-218.35 707.3,-218.35 699.01,-211.74 696.7,-218.35"/>
</a>
</g>
</g>
<!-- Node18 -->
<g id="Node000018" class="node">
<title>Node18</title>
<g id="a_Node000018"><a xlink:href="../../d1/d42/namespacelamina.html#a15c18d12300d4d54180562f3d444a325" target="_top" xlink:title="使用四次公式求解四次方程 ax⁴ + bx³ + cx² + dx + e = 0。">
<polygon fill="white" stroke="#666666" points="277,-530.5 155,-530.5 155,-511.5 277,-511.5 277,-530.5"/>
<text text-anchor="middle" x="216" y="-518.5" font-family="Helvetica,sans-Serif" font-size="10.00">lamina::solve_quartic</text>
</a>
</g>
</g>
<!-- Node1&#45;&gt;Node18 -->
<g id="edge44_Node000001_Node000018" class="edge">
<title>Node1&#45;&gt;Node18</title>
<g id="a_edge44_Node000001_Node000018"><a xlink:title=" ">
<path fill="none" stroke="#63b8ff" d="M66.37,-904.85C90.33,-842.96 180.76,-609.42 207.51,-540.35"/>
<polygon fill="#63b8ff" stroke="#63b8ff" points="210.88,-541.32 211.23,-530.73 204.36,-538.79 210.88,-541.32"/>
</a>
</g>
</g>
<!-- Node4&#45;&gt;Node5 -->
<g id="edge4_Node000004_Node000005" class="edge">
<title>Node4&#45;&gt;Node5</title>
<g id="a_edge4_Node000004_Node000005"><a xlink:title=" ">
<path fill="none" stroke="#63b8ff" d="M769.61,-808.45C816.35,-794.04 898.82,-762.47 948,-708 1012.47,-636.59 1037.5,-518.78 1045.16,-472.52"/>
<polygon fill="#63b8ff" stroke="#63b8ff" points="1048.62,-473.02 1046.71,-462.6 1041.71,-471.93 1048.62,-473.02"/>
</a>
</g>
</g>
<!-- Node4&#45;&gt;Node6 -->
<g id="edge5_Node000004_Node000006" class="edge">
<title>Node4&#45;&gt;Node6</title>
<g id="a_edge5_Node000004_Node000006"><a xlink:title=" ">
<path fill="none" stroke="#63b8ff" d="M771.02,-827.57C814.68,-839.81 889.22,-863.28 948,-895 978.78,-911.61 1010.43,-937.03 1029.67,-953.58"/>
<polygon fill="#63b8ff" stroke="#63b8ff" points="1027.51,-956.35 1037.34,-960.29 1032.12,-951.08 1027.51,-956.35"/>
</a>
</g>
</g>
<!-- Node4&#45;&gt;Node7 -->
<g id="edge6_Node000004_Node000007" class="edge">
<title>Node4&#45;&gt;Node7</title>
<g id="a_edge6_Node000004_Node000007"><a xlink:title=" ">
<path fill="none" stroke="#63b8ff" d="M764.6,-827.54C774.12,-831.28 784.4,-836.1 793,-842 812.19,-855.15 810.66,-865.68 829,-880 837.91,-886.96 848.47,-893.39 858.15,-898.68"/>
<polygon fill="#63b8ff" stroke="#63b8ff" points="856.6,-901.82 867.07,-903.39 859.86,-895.63 856.6,-901.82"/>
</a>
</g>
</g>
<!-- Node8&#45;&gt;Node3 -->
<g id="edge8_Node000008_Node000003" class="edge">
<title>Node8&#45;&gt;Node3</title>
<g id="a_edge8_Node000008_Node000003"><a xlink:title=" ">
<path fill="none" stroke="#63b8ff" d="M247.15,-1192.02C267.17,-1188.06 294.21,-1182.7 318.93,-1177.8"/>
<polygon fill="#63b8ff" stroke="#63b8ff" points="319.87,-1181.18 329,-1175.8 318.51,-1174.31 319.87,-1181.18"/>
</a>
</g>
</g>
<!-- Node8&#45;&gt;Node6 -->
<g id="edge9_Node000008_Node000006" class="edge">
<title>Node8&#45;&gt;Node6</title>
<g id="a_edge9_Node000008_Node000006"><a xlink:title=" ">
<path fill="none" stroke="#63b8ff" d="M247.16,-1199.45C307.38,-1202.23 446.78,-1208 564,-1208 564,-1208 564,-1208 734.5,-1208 879.84,-1208 1000.08,-1043.71 1036.6,-988.13"/>
<polygon fill="#63b8ff" stroke="#63b8ff" points="1039.6,-989.92 1042.09,-979.62 1033.72,-986.13 1039.6,-989.92"/>
</a>
</g>
</g>
<!-- Node9&#45;&gt;Node2 -->
<g id="edge14_Node000009_Node000002" class="edge">
<title>Node9&#45;&gt;Node2</title>
<g id="a_edge14_Node000009_Node000002"><a xlink:title=" ">
<path fill="none" stroke="#63b8ff" d="M411.69,-646.48C491.1,-617.31 727.73,-528.24 793,-479 829.42,-451.52 860.56,-407.24 876.37,-382.41"/>
<polygon fill="#63b8ff" stroke="#63b8ff" points="879.52,-383.97 881.84,-373.63 873.58,-380.27 879.52,-383.97"/>
</a>
</g>
</g>
<!-- Node9&#45;&gt;Node4 -->
<g id="edge18_Node000009_Node000004" class="edge">
<title>Node9&#45;&gt;Node4</title>
<g id="a_edge18_Node000009_Node000004"><a xlink:title=" ">
<path fill="none" stroke="#63b8ff" d="M389.22,-665.53C400.22,-692.2 435.37,-767.71 492,-799 544.3,-827.9 613.01,-830.49 663.58,-827.12"/>
<polygon fill="#63b8ff" stroke="#63b8ff" points="664.06,-830.59 673.77,-826.34 663.53,-823.61 664.06,-830.59"/>
</a>
</g>
</g>
<!-- Node9&#45;&gt;Node5 -->
<g id="edge20_Node000009_Node000005" class="edge">
<title>Node9&#45;&gt;Node5</title>
<g id="a_edge20_Node000009_Node000005"><a xlink:title=" ">
<path fill="none" stroke="#63b8ff" d="M441.26,-660.61C548.93,-666.66 788.87,-665.99 948,-559 984.7,-534.33 1017.9,-493.93 1035.28,-470.78"/>
<polygon fill="#63b8ff" stroke="#63b8ff" points="1038.22,-472.68 1041.33,-462.55 1032.58,-468.54 1038.22,-472.68"/>
</a>
</g>
</g>
<!-- Node9&#45;&gt;Node6 -->
<g id="edge26_Node000009_Node000006" class="edge">
<title>Node9&#45;&gt;Node6</title>
<g id="a_edge26_Node000009_Node000006"><a xlink:title=" ">
<path fill="none" stroke="#63b8ff" d="M386.54,-665.52C391.18,-703.45 413.36,-845.54 492,-922 633.34,-1059.43 901.25,-1008.72 1005.24,-982.12"/>
<polygon fill="#63b8ff" stroke="#63b8ff" points="1006.28,-985.47 1015.07,-979.55 1004.51,-978.7 1006.28,-985.47"/>
</a>
</g>
</g>
<!-- Node9&#45;&gt;Node7 -->
<g id="edge27_Node000009_Node000007" class="edge">
<title>Node9&#45;&gt;Node7</title>
<g id="a_edge27_Node000009_Node000007"><a xlink:title=" ">
<path fill="none" stroke="#63b8ff" d="M388.49,-665.63C398.13,-695.05 431.39,-784.28 492,-827 518.85,-845.92 717.44,-883.08 822.59,-901.74"/>
<polygon fill="#63b8ff" stroke="#63b8ff" points="822.01,-905.19 832.47,-903.49 823.23,-898.3 822.01,-905.19"/>
</a>
</g>
</g>
<!-- Node10 -->
<g id="Node000010" class="node">
<title>Node10</title>
<g id="a_Node000010"><a xlink:href="../../d1/d42/namespacelamina.html#a5674a8bdb6ea1d73d8ccbc37846c4d2d" target="_top" xlink:title=" ">
<polygon fill="white" stroke="#666666" points="784.5,-979.5 682.5,-979.5 682.5,-960.5 784.5,-960.5 784.5,-979.5"/>
<text text-anchor="middle" x="733.5" y="-967.5" font-family="Helvetica,sans-Serif" font-size="10.00">lamina::cbrt_expr</text>
</a>
</g>
</g>
<!-- Node9&#45;&gt;Node10 -->
<g id="edge15_Node000009_Node000010" class="edge">
<title>Node9&#45;&gt;Node10</title>
<g id="a_edge15_Node000009_Node000010"><a xlink:title=" ">
<path fill="none" stroke="#63b8ff" d="M387.69,-665.56C395.71,-698.52 426.51,-808.8 492,-870 543.21,-917.86 620.58,-944.42 673.66,-957.93"/>
<polygon fill="#63b8ff" stroke="#63b8ff" points="673.06,-961.39 683.6,-960.39 674.73,-954.59 673.06,-961.39"/>
</a>
</g>
</g>
<!-- Node11 -->
<g id="Node000011" class="node">
<title>Node11</title>
<g id="a_Node000011"><a xlink:href="../../d1/d42/namespacelamina.html#a4d22c9d513f3c1465ce68099089dfa0d" target="_top" xlink:title=" ">
<polygon fill="white" stroke="#666666" points="638,-389.5 492,-389.5 492,-370.5 638,-370.5 638,-389.5"/>
<text text-anchor="middle" x="565" y="-377.5" font-family="Helvetica,sans-Serif" font-size="10.00">lamina::is_purely_numeric</text>
</a>
</g>
</g>
<!-- Node9&#45;&gt;Node11 -->
<g id="edge19_Node000009_Node000011" class="edge">
<title>Node9&#45;&gt;Node11</title>
<g id="a_edge19_Node000009_Node000011"><a xlink:title=" ">
<path fill="none" stroke="#63b8ff" d="M386.71,-646.41C391.88,-609.45 415.46,-474.79 492,-404 496.4,-399.93 501.51,-396.55 506.94,-393.74"/>
<polygon fill="#63b8ff" stroke="#63b8ff" points="508.62,-396.82 516.3,-389.53 505.75,-390.44 508.62,-396.82"/>
</a>
</g>
</g>
<!-- Node12 -->
<g id="Node000012" class="node">
<title>Node12</title>
<g id="a_Node000012"><a xlink:href="../../d1/d42/namespacelamina.html#a547ba21cbbce3cfa9cb807bbeb724b02" target="_top" xlink:title=" ">
<polygon fill="white" stroke="#666666" points="933.5,-550.5 843.5,-550.5 843.5,-531.5 933.5,-531.5 933.5,-550.5"/>
<text text-anchor="middle" x="888.5" y="-538.5" font-family="Helvetica,sans-Serif" font-size="10.00">lamina::negate</text>
</a>
</g>
</g>
<!-- Node9&#45;&gt;Node12 -->
<g id="edge21_Node000009_Node000012" class="edge">
<title>Node9&#45;&gt;Node12</title>
<g id="a_edge21_Node000009_Node000012"><a xlink:title=" ">
<path fill="none" stroke="#63b8ff" d="M441.05,-648.68C544.76,-634.84 760.3,-605.24 793,-594 819.48,-584.9 847.11,-568.46 865.61,-556.3"/>
<polygon fill="#63b8ff" stroke="#63b8ff" points="867.81,-559.04 874.15,-550.56 863.9,-553.23 867.81,-559.04"/>
</a>
</g>
</g>
<!-- Node13 -->
<g id="Node000013" class="node">
<title>Node13</title>
<g id="a_Node000013"><a xlink:href="../../d1/d42/namespacelamina.html#a78a46efcff5ce7151a74984c5381cd71" target="_top" xlink:title=" ">
<polygon fill="white" stroke="#666666" points="772.5,-741.5 694.5,-741.5 694.5,-722.5 772.5,-722.5 772.5,-741.5"/>
<text text-anchor="middle" x="733.5" y="-729.5" font-family="Helvetica,sans-Serif" font-size="10.00">lamina::num</text>
</a>
</g>
</g>
<!-- Node9&#45;&gt;Node13 -->
<g id="edge24_Node000009_Node000013" class="edge">
<title>Node9&#45;&gt;Node13</title>
<g id="a_edge24_Node000009_Node000013"><a xlink:title=" ">
<path fill="none" stroke="#63b8ff" d="M429.1,-665.55C494.28,-679.83 616.71,-706.64 684.42,-721.47"/>
<polygon fill="#63b8ff" stroke="#63b8ff" points="683.88,-724.93 694.4,-723.65 685.38,-718.1 683.88,-724.93"/>
</a>
</g>
</g>
<!-- Node14 -->
<g id="Node000014" class="node">
<title>Node14</title>
<g id="a_Node000014"><a xlink:href="../../d1/d42/namespacelamina.html#a31b9d093026d34d29e37ed0a38013fd9" target="_top" xlink:title=" ">
<polygon fill="white" stroke="#666666" points="623,-790 507,-790 507,-760 623,-760 623,-790"/>
<text text-anchor="start" x="515" y="-778" font-family="Helvetica,sans-Serif" font-size="10.00">lamina::solve_linear</text>
<text text-anchor="middle" x="565" y="-767" font-family="Helvetica,sans-Serif" font-size="10.00">_internal</text>
</a>
</g>
</g>
<!-- Node9&#45;&gt;Node14 -->
<g id="edge28_Node000009_Node000014" class="edge">
<title>Node9&#45;&gt;Node14</title>
<g id="a_edge28_Node000009_Node000014"><a xlink:title=" ">
<path fill="none" stroke="#63b8ff" d="M399.81,-665.54C428.57,-684.71 493.99,-728.33 533.01,-754.34"/>
<polygon fill="#63b8ff" stroke="#63b8ff" points="531.13,-757.29 541.39,-759.93 535.01,-751.47 531.13,-757.29"/>
</a>
</g>
</g>
<!-- Node15 -->
<g id="Node000015" class="node">
<title>Node15</title>
<g id="a_Node000015"><a xlink:href="../../d1/d42/namespacelamina.html#a0a882c5382e9e03230d59990c2e159e8" target="_top" xlink:title=" ">
<polygon fill="white" stroke="#666666" points="632,-476 498,-476 498,-446 632,-446 632,-476"/>
<text text-anchor="start" x="506" y="-464" font-family="Helvetica,sans-Serif" font-size="10.00">lamina::solve_quadratic</text>
<text text-anchor="middle" x="565" y="-453" font-family="Helvetica,sans-Serif" font-size="10.00">_internal</text>
</a>
</g>
</g>
<!-- Node9&#45;&gt;Node15 -->
<g id="edge31_Node000009_Node000015" class="edge">
<title>Node9&#45;&gt;Node15</title>
<g id="a_edge31_Node000009_Node000015"><a xlink:title=" ">
<path fill="none" stroke="#63b8ff" d="M389.22,-646.29C400.43,-618.18 436.62,-535.86 492,-490 496.22,-486.51 500.91,-483.39 505.82,-480.63"/>
<polygon fill="#63b8ff" stroke="#63b8ff" points="507.53,-483.68 514.83,-476.01 504.34,-477.45 507.53,-483.68"/>
</a>
</g>
</g>
<!-- Node9&#45;&gt;Node16 -->
<g id="edge42_Node000009_Node000016" class="edge">
<title>Node9&#45;&gt;Node16</title>
<g id="a_edge42_Node000009_Node000016"><a xlink:title=" ">
<path fill="none" stroke="#63b8ff" d="M387.23,-646.36C393.91,-612.14 421.22,-495.37 492,-437 543.82,-394.27 587.4,-442.17 638,-398 669.21,-370.75 654.05,-348.32 674,-312 687.21,-287.95 705.77,-262.35 718.42,-245.82"/>
<polygon fill="#63b8ff" stroke="#63b8ff" points="721.4,-247.69 724.76,-237.64 715.87,-243.4 721.4,-247.69"/>
</a>
</g>
</g>
<!-- Node17 -->
<g id="Node000017" class="node">
<title>Node17</title>
<g id="a_Node000017"><a xlink:href="../../d1/d42/namespacelamina.html#a35a6950e18d584eaf59a0cf11e790e59" target="_top" xlink:title=" ">
<polygon fill="white" stroke="#666666" points="770.5,-470.5 696.5,-470.5 696.5,-451.5 770.5,-451.5 770.5,-470.5"/>
<text text-anchor="middle" x="733.5" y="-458.5" font-family="Helvetica,sans-Serif" font-size="10.00">lamina::sub</text>
</a>
</g>
</g>
<!-- Node9&#45;&gt;Node17 -->
<g id="edge43_Node000009_Node000017" class="edge">
<title>Node9&#45;&gt;Node17</title>
<g id="a_edge43_Node000009_Node000017"><a xlink:title=" ">
<path fill="none" stroke="#63b8ff" d="M390.77,-646.27C404.26,-622.3 442.49,-560.04 492,-528 500.3,-522.63 618.85,-490.9 686.34,-473.1"/>
<polygon fill="#63b8ff" stroke="#63b8ff" points="687.53,-476.41 696.31,-470.48 685.74,-469.64 687.53,-476.41"/>
</a>
</g>
</g>
<!-- Node10&#45;&gt;Node6 -->
<g id="edge16_Node000010_Node000006" class="edge">
<title>Node10&#45;&gt;Node6</title>
<g id="a_edge16_Node000010_Node000006"><a xlink:title=" ">
<path fill="none" stroke="#63b8ff" d="M784.52,-970C835.97,-970 916.64,-970 975.17,-970"/>
<polygon fill="#63b8ff" stroke="#63b8ff" points="975.46,-973.5 985.46,-970 975.46,-966.5 975.46,-973.5"/>
</a>
</g>
</g>
<!-- Node10&#45;&gt;Node7 -->
<g id="edge17_Node000010_Node000007" class="edge">
<title>Node10&#45;&gt;Node7</title>
<g id="a_edge17_Node000010_Node000007"><a xlink:title=" ">
<path fill="none" stroke="#63b8ff" d="M760.11,-960.46C785.37,-951.05 824.19,-936.59 852.34,-926.1"/>
<polygon fill="#63b8ff" stroke="#63b8ff" points="853.66,-929.34 861.81,-922.57 851.21,-922.78 853.66,-929.34"/>
</a>
</g>
</g>
<!-- Node12&#45;&gt;Node5 -->
<g id="edge22_Node000012_Node000005" class="edge">
<title>Node12&#45;&gt;Node5</title>
<g id="a_edge22_Node000012_Node000005"><a xlink:title=" ">
<path fill="none" stroke="#63b8ff" d="M906.76,-531.41C934.51,-516.01 989.22,-485.63 1021.8,-467.54"/>
<polygon fill="#63b8ff" stroke="#63b8ff" points="1023.71,-470.49 1030.76,-462.57 1020.32,-464.37 1023.71,-470.49"/>
</a>
</g>
</g>
<!-- Node12&#45;&gt;Node6 -->
<g id="edge23_Node000012_Node000006" class="edge">
<title>Node12&#45;&gt;Node6</title>
<g id="a_edge23_Node000012_Node000006"><a xlink:title=" ">
<path fill="none" stroke="#63b8ff" d="M893.11,-550.77C913.4,-605.69 1013.36,-876.24 1040.94,-950.89"/>
<polygon fill="#63b8ff" stroke="#63b8ff" points="1037.72,-952.27 1044.47,-960.44 1044.28,-949.84 1037.72,-952.27"/>
</a>
</g>
</g>
<!-- Node13&#45;&gt;Node6 -->
<g id="edge25_Node000013_Node000006" class="edge">
<title>Node13&#45;&gt;Node6</title>
<g id="a_edge25_Node000013_Node000006"><a xlink:title=" ">
<path fill="none" stroke="#63b8ff" d="M762.02,-741.55C804.99,-757.41 889.18,-792.29 948,-841 987.46,-873.68 1021.06,-924.54 1037.4,-951.6"/>
<polygon fill="#63b8ff" stroke="#63b8ff" points="1034.51,-953.6 1042.61,-960.42 1040.53,-950.03 1034.51,-953.6"/>
</a>
</g>
</g>
<!-- Node14&#45;&gt;Node4 -->
<g id="edge29_Node000014_Node000004" class="edge">
<title>Node14&#45;&gt;Node4</title>
<g id="a_edge29_Node000014_Node000004"><a xlink:title=" ">
<path fill="none" stroke="#63b8ff" d="M623.3,-789.8C643.73,-795.07 666.47,-800.95 685.89,-805.96"/>
<polygon fill="#63b8ff" stroke="#63b8ff" points="685.15,-809.39 695.71,-808.5 686.9,-802.61 685.15,-809.39"/>
</a>
</g>
</g>
<!-- Node14&#45;&gt;Node12 -->
<g id="edge30_Node000014_Node000012" class="edge">
<title>Node14&#45;&gt;Node12</title>
<g id="a_edge30_Node000014_Node000012"><a xlink:title=" ">
<path fill="none" stroke="#63b8ff" d="M623.31,-783.78C672.86,-788.17 744.05,-786.44 793,-751 857.51,-704.3 878.84,-603.13 885.13,-560.53"/>
<polygon fill="#63b8ff" stroke="#63b8ff" points="888.61,-560.97 886.48,-550.59 881.67,-560.03 888.61,-560.97"/>
</a>
</g>
</g>
<!-- Node15&#45;&gt;Node2 -->
<g id="edge32_Node000015_Node000002" class="edge">
<title>Node15&#45;&gt;Node2</title>
<g id="a_edge32_Node000015_Node000002"><a xlink:title=" ">
<path fill="none" stroke="#63b8ff" d="M615.88,-445.95C679.24,-426.83 787.39,-394.2 846.3,-376.43"/>
<polygon fill="#63b8ff" stroke="#63b8ff" points="847.45,-379.74 856.01,-373.5 845.43,-373.04 847.45,-379.74"/>
</a>
</g>
</g>
<!-- Node15&#45;&gt;Node4 -->
<g id="edge33_Node000015_Node000004" class="edge">
<title>Node15&#45;&gt;Node4</title>
<g id="a_edge33_Node000015_Node000004"><a xlink:title=" ">
<path fill="none" stroke="#63b8ff" d="M569.54,-476.02C580.41,-520.39 616.13,-653.83 674,-751 685.25,-769.9 702.1,-788.51 714.82,-801.3"/>
<polygon fill="#63b8ff" stroke="#63b8ff" points="712.54,-803.96 722.13,-808.46 717.44,-798.96 712.54,-803.96"/>
</a>
</g>
</g>
<!-- Node15&#45;&gt;Node5 -->
<g id="edge34_Node000015_Node000005" class="edge">
<title>Node15&#45;&gt;Node5</title>
<g id="a_edge34_Node000015_Node000005"><a xlink:title=" ">
<path fill="none" stroke="#63b8ff" d="M613.09,-445.93C621.78,-442.09 630.48,-437.47 638,-432 658.16,-417.35 653.09,-402.56 674,-389 734.09,-350.04 758.07,-354.87 829,-345 881.38,-337.71 899.54,-323.82 948,-345 989.94,-363.33 1022.15,-408.88 1037.71,-434.59"/>
<polygon fill="#63b8ff" stroke="#63b8ff" points="1034.77,-436.5 1042.84,-443.37 1040.82,-432.97 1034.77,-436.5"/>
</a>
</g>
</g>
<!-- Node15&#45;&gt;Node7 -->
<g id="edge37_Node000015_Node000007" class="edge">
<title>Node15&#45;&gt;Node7</title>
<g id="a_edge37_Node000015_Node000007"><a xlink:title=" ">
<path fill="none" stroke="#63b8ff" d="M582.62,-476.22C622.78,-513.62 726.62,-614.28 793,-714 833.89,-775.43 866.83,-857.31 880.57,-893.91"/>
<polygon fill="#63b8ff" stroke="#63b8ff" points="877.31,-895.2 884.07,-903.37 883.88,-892.77 877.31,-895.2"/>
</a>
</g>
</g>
<!-- Node15&#45;&gt;Node12 -->
<g id="edge35_Node000015_Node000012" class="edge">
<title>Node15&#45;&gt;Node12</title>
<g id="a_edge35_Node000015_Node000012"><a xlink:title=" ">
<path fill="none" stroke="#63b8ff" d="M626.47,-476.05C688.07,-491.38 782.39,-514.84 839.19,-528.98"/>
<polygon fill="#63b8ff" stroke="#63b8ff" points="838.45,-532.4 849,-531.42 840.14,-525.61 838.45,-532.4"/>
</a>
</g>
</g>
<!-- Node15&#45;&gt;Node13 -->
<g id="edge36_Node000015_Node000013" class="edge">
<title>Node15&#45;&gt;Node13</title>
<g id="a_edge36_Node000015_Node000013"><a xlink:title=" ">
<path fill="none" stroke="#63b8ff" d="M572.13,-476.26C586.82,-511.93 626.41,-602.86 674,-670 685.79,-686.64 701.84,-703.33 714.15,-715.2"/>
<polygon fill="#63b8ff" stroke="#63b8ff" points="711.94,-717.92 721.61,-722.25 716.75,-712.84 711.94,-717.92"/>
</a>
</g>
</g>
<!-- Node15&#45;&gt;Node16 -->
<g id="edge38_Node000015_Node000016" class="edge">
<title>Node15&#45;&gt;Node16</title>
<g id="a_edge38_Node000015_Node000016"><a xlink:title=" ">
<path fill="none" stroke="#63b8ff" d="M619.5,-445.96C626.38,-442.26 632.82,-437.67 638,-432 675.53,-390.87 649.79,-362.14 674,-312 685.87,-287.43 704.55,-262.11 717.6,-245.78"/>
<polygon fill="#63b8ff" stroke="#63b8ff" points="720.58,-247.66 724.19,-237.7 715.16,-243.24 720.58,-247.66"/>
</a>
</g>
</g>
<!-- Node15&#45;&gt;Node17 -->
<g id="edge39_Node000015_Node000017" class="edge">
<title>Node15&#45;&gt;Node17</title>
<g id="a_edge39_Node000015_Node000017"><a xlink:title=" ">
<path fill="none" stroke="#63b8ff" d="M632.28,-461C650.31,-461 669.44,-461 686.1,-461"/>
<polygon fill="#63b8ff" stroke="#63b8ff" points="686.13,-464.5 696.13,-461 686.13,-457.5 686.13,-464.5"/>
</a>
</g>
</g>
<!-- Node17&#45;&gt;Node2 -->
<g id="edge40_Node000017_Node000002" class="edge">
<title>Node17&#45;&gt;Node2</title>
<g id="a_edge40_Node000017_Node000002"><a xlink:title=" ">
<path fill="none" stroke="#63b8ff" d="M749.73,-451.34C776.42,-434.42 831.83,-399.29 863.65,-379.12"/>
<polygon fill="#63b8ff" stroke="#63b8ff" points="865.76,-381.93 872.33,-373.62 862.01,-376.01 865.76,-381.93"/>
</a>
</g>
</g>
<!-- Node17&#45;&gt;Node12 -->
<g id="edge41_Node000017_Node000012" class="edge">
<title>Node17&#45;&gt;Node12</title>
<g id="a_edge41_Node000017_Node000012"><a xlink:title=" ">
<path fill="none" stroke="#63b8ff" d="M756.37,-470.6C767.44,-475.59 781.04,-481.9 793,-488 816.94,-500.21 843.59,-515.3 862.47,-526.25"/>
<polygon fill="#63b8ff" stroke="#63b8ff" points="860.92,-529.4 871.32,-531.41 864.45,-523.35 860.92,-529.4"/>
</a>
</g>
</g>
<!-- Node18&#45;&gt;Node2 -->
<g id="edge45_Node000018_Node000002" class="edge">
<title>Node18&#45;&gt;Node2</title>
<g id="a_edge45_Node000018_Node000002"><a xlink:title=" ">
<path fill="none" stroke="#63b8ff" d="M216.53,-511.48C215.01,-468.66 215.04,-292.59 313,-216 481.08,-84.58 608.33,-102.15 793,-209 844.94,-239.05 871.89,-310.14 882.3,-344.6"/>
<polygon fill="#63b8ff" stroke="#63b8ff" points="878.98,-345.75 885.1,-354.4 885.71,-343.83 878.98,-345.75"/>
</a>
</g>
</g>
<!-- Node18&#45;&gt;Node4 -->
<g id="edge46_Node000018_Node000004" class="edge">
<title>Node18&#45;&gt;Node4</title>
<g id="a_edge46_Node000018_Node000004"><a xlink:title=" ">
<path fill="none" stroke="#63b8ff" d="M219.67,-530.56C228.5,-560.76 259.29,-655.65 313,-715 375.97,-784.58 401.8,-801.11 492,-827 554.56,-844.96 630.03,-837.73 679.54,-829.32"/>
<polygon fill="#63b8ff" stroke="#63b8ff" points="680.15,-832.76 689.39,-827.57 678.93,-825.87 680.15,-832.76"/>
</a>
</g>
</g>
<!-- Node18&#45;&gt;Node5 -->
<g id="edge48_Node000018_Node000005" class="edge">
<title>Node18&#45;&gt;Node5</title>
<g id="a_edge48_Node000018_Node000005"><a xlink:title=" ">
<path fill="none" stroke="#63b8ff" d="M217.88,-511.4C223.12,-456.64 251.98,-184.43 313,-133 476.19,4.56 599.22,-58.52 793,-148 873.86,-185.33 890.75,-206.77 948,-275 991.36,-326.68 1025.52,-399.89 1040.19,-434.06"/>
<polygon fill="#63b8ff" stroke="#63b8ff" points="1037,-435.49 1044.11,-443.35 1043.45,-432.77 1037,-435.49"/>
</a>
</g>
</g>
<!-- Node18&#45;&gt;Node6 -->
<g id="edge51_Node000018_Node000006" class="edge">
<title>Node18&#45;&gt;Node6</title>
<g id="a_edge51_Node000018_Node000006"><a xlink:title=" ">
<path fill="none" stroke="#63b8ff" d="M218.06,-530.77C226.76,-605.53 293.03,-1084 564,-1084 564,-1084 564,-1084 734.5,-1084 849.27,-1084 974.21,-1015.69 1024.8,-984.83"/>
<polygon fill="#63b8ff" stroke="#63b8ff" points="1026.7,-987.76 1033.36,-979.52 1023.02,-981.81 1026.7,-987.76"/>
</a>
</g>
</g>
<!-- Node18&#45;&gt;Node7 -->
<g id="edge52_Node000018_Node000007" class="edge">
<title>Node18&#45;&gt;Node7</title>
<g id="a_edge52_Node000018_Node000007"><a xlink:title=" ">
<path fill="none" stroke="#63b8ff" d="M217.78,-530.71C221.29,-568.15 238.89,-704.75 313,-779 449.91,-916.18 698.33,-923.77 818.59,-918.4"/>
<polygon fill="#63b8ff" stroke="#63b8ff" points="818.96,-921.89 828.77,-917.9 818.61,-914.9 818.96,-921.89"/>
</a>
</g>
</g>
<!-- Node18&#45;&gt;Node9 -->
<g id="edge59_Node000018_Node000009" class="edge">
<title>Node18&#45;&gt;Node9</title>
<g id="a_edge59_Node000018_Node000009"><a xlink:title=" ">
<path fill="none" stroke="#63b8ff" d="M228.97,-530.71C257.29,-553.67 328.63,-611.51 363.58,-639.85"/>
<polygon fill="#63b8ff" stroke="#63b8ff" points="361.66,-642.8 371.63,-646.38 366.07,-637.36 361.66,-642.8"/>
</a>
</g>
</g>
<!-- Node18&#45;&gt;Node11 -->
<g id="edge47_Node000018_Node000011" class="edge">
<title>Node18&#45;&gt;Node11</title>
<g id="a_edge47_Node000018_Node000011"><a xlink:title=" ">
<path fill="none" stroke="#63b8ff" d="M237.12,-511.48C256.46,-502.39 286.58,-488.43 313,-477 391.85,-442.87 411.43,-433.82 492,-404 502.3,-400.19 513.53,-396.31 523.98,-392.82"/>
<polygon fill="#63b8ff" stroke="#63b8ff" points="525.32,-396.07 533.72,-389.61 523.13,-389.42 525.32,-396.07"/>
</a>
</g>
</g>
<!-- Node18&#45;&gt;Node12 -->
<g id="edge49_Node000018_Node000012" class="edge">
<title>Node18&#45;&gt;Node12</title>
<g id="a_edge49_Node000018_Node000012"><a xlink:title=" ">
<path fill="none" stroke="#63b8ff" d="M277.09,-522.79C406.37,-526.65 709.2,-535.68 833.15,-539.38"/>
<polygon fill="#63b8ff" stroke="#63b8ff" points="833.07,-542.88 843.17,-539.68 833.28,-535.88 833.07,-542.88"/>
</a>
</g>
</g>
<!-- Node18&#45;&gt;Node13 -->
<g id="edge50_Node000018_Node000013" class="edge">
<title>Node18&#45;&gt;Node13</title>
<g id="a_edge50_Node000018_Node000013"><a xlink:title=" ">
<path fill="none" stroke="#63b8ff" d="M220.06,-530.83C229.18,-558.4 258.97,-636.9 313,-674 427.33,-752.51 600.93,-746.81 684.39,-738.38"/>
<polygon fill="#63b8ff" stroke="#63b8ff" points="684.78,-741.85 694.35,-737.31 684.04,-734.89 684.78,-741.85"/>
</a>
</g>
</g>
<!-- Node18&#45;&gt;Node15 -->
<g id="edge60_Node000018_Node000015" class="edge">
<title>Node18&#45;&gt;Node15</title>
<g id="a_edge60_Node000018_Node000015"><a xlink:title=" ">
<path fill="none" stroke="#63b8ff" d="M271.98,-511.49C330.12,-501.44 422.27,-485.51 487.48,-474.23"/>
<polygon fill="#63b8ff" stroke="#63b8ff" points="488.45,-477.62 497.71,-472.46 487.26,-470.72 488.45,-477.62"/>
</a>
</g>
</g>
<!-- Node18&#45;&gt;Node16 -->
<g id="edge61_Node000018_Node000016" class="edge">
<title>Node18&#45;&gt;Node16</title>
<g id="a_edge61_Node000018_Node000016"><a xlink:title=" ">
<path fill="none" stroke="#63b8ff" d="M218.06,-511.3C222.47,-475.68 242.54,-350.83 313,-285 411.39,-193.08 583.77,-203.53 673.88,-216.9"/>
<polygon fill="#63b8ff" stroke="#63b8ff" points="673.5,-220.39 683.92,-218.46 674.57,-213.47 673.5,-220.39"/>
</a>
</g>
</g>
<!-- Node18&#45;&gt;Node17 -->
<g id="edge62_Node000018_Node000017" class="edge">
<title>Node18&#45;&gt;Node17</title>
<g id="a_edge62_Node000018_Node000017"><a xlink:title=" ">
<path fill="none" stroke="#63b8ff" d="M223.15,-511.19C236.75,-490.32 271.45,-441.28 313,-415 383.23,-370.58 409.79,-373.13 492,-361 556.19,-351.53 580.92,-330.14 638,-361 663.7,-374.89 654.14,-394.57 674,-416 684.31,-427.12 697.59,-437.58 708.89,-445.61"/>
<polygon fill="#63b8ff" stroke="#63b8ff" points="707.21,-448.71 717.44,-451.49 711.19,-442.94 707.21,-448.71"/>
</a>
</g>
</g>
<!-- Node19 -->
<g id="Node000019" class="node">
<title>Node19</title>
<g id="a_Node000019"><a xlink:href="../../d1/d42/namespacelamina.html#ab54c96a09e3e36cc3aa6b15bc9e90803" target="_top" xlink:title="求解双二次方程 ax⁴ + bx² + c = 0。">
<polygon fill="white" stroke="#666666" points="456,-313.5 313,-313.5 313,-294.5 456,-294.5 456,-313.5"/>
<text text-anchor="middle" x="384.5" y="-301.5" font-family="Helvetica,sans-Serif" font-size="10.00">lamina::solve_biquadratic</text>
</a>
</g>
</g>
<!-- Node18&#45;&gt;Node19 -->
<g id="edge53_Node000018_Node000019" class="edge">
<title>Node18&#45;&gt;Node19</title>
<g id="a_edge53_Node000018_Node000019"><a xlink:title=" ">
<path fill="none" stroke="#63b8ff" d="M219.04,-511.38C226.14,-480.17 252.72,-380.73 313,-328 317.73,-323.87 323.2,-320.44 328.96,-317.59"/>
<polygon fill="#63b8ff" stroke="#63b8ff" points="330.4,-320.78 338.19,-313.59 327.62,-314.36 330.4,-320.78"/>
</a>
</g>
</g>
<!-- Node19&#45;&gt;Node6 -->
<g id="edge56_Node000019_Node000006" class="edge">
<title>Node19&#45;&gt;Node6</title>
<g id="a_edge56_Node000019_Node000006"><a xlink:title=" ">
<path fill="none" stroke="#63b8ff" d="M416.41,-294.43C510.95,-267.28 798.78,-200.7 948,-345 970.51,-366.77 1032.22,-845.33 1045.47,-949.92"/>
<polygon fill="#63b8ff" stroke="#63b8ff" points="1042.03,-950.58 1046.75,-960.07 1048.97,-949.71 1042.03,-950.58"/>
</a>
</g>
</g>
<!-- Node19&#45;&gt;Node11 -->
<g id="edge54_Node000019_Node000011" class="edge">
<title>Node19&#45;&gt;Node11</title>
<g id="a_edge54_Node000019_Node000011"><a xlink:title=" ">
<path fill="none" stroke="#63b8ff" d="M408.11,-313.63C439.49,-326.99 496.42,-351.23 532.11,-366.42"/>
<polygon fill="#63b8ff" stroke="#63b8ff" points="531,-369.76 541.58,-370.45 533.75,-363.31 531,-369.76"/>
</a>
</g>
</g>
<!-- Node19&#45;&gt;Node12 -->
<g id="edge55_Node000019_Node000012" class="edge">
<title>Node19&#45;&gt;Node12</title>
<g id="a_edge55_Node000019_Node000012"><a xlink:title=" ">
<path fill="none" stroke="#63b8ff" d="M456.11,-306.24C507.9,-309.8 579.15,-318.75 638,-341 743.2,-380.78 838.15,-482.85 873.19,-523.71"/>
<polygon fill="#63b8ff" stroke="#63b8ff" points="870.61,-526.08 879.74,-531.46 875.95,-521.56 870.61,-526.08"/>
</a>
</g>
</g>
<!-- Node19&#45;&gt;Node15 -->
<g id="edge57_Node000019_Node000015" class="edge">
<title>Node19&#45;&gt;Node15</title>
<g id="a_edge57_Node000019_Node000015"><a xlink:title=" ">
<path fill="none" stroke="#63b8ff" d="M396.37,-313.62C415.62,-330.66 456.99,-367.23 492,-398 507.54,-411.66 525,-426.94 538.84,-439.03"/>
<polygon fill="#63b8ff" stroke="#63b8ff" points="536.69,-441.8 546.52,-445.74 541.3,-436.53 536.69,-441.8"/>
</a>
</g>
</g>
<!-- Node19&#45;&gt;Node16 -->
<g id="edge58_Node000019_Node000016" class="edge">
<title>Node19&#45;&gt;Node16</title>
<g id="a_edge58_Node000019_Node000016"><a xlink:title=" ">
<path fill="none" stroke="#63b8ff" d="M400.68,-294.42C420.74,-282.29 457.56,-261.79 492,-252 550.6,-235.35 620.08,-229.87 669.25,-228.24"/>
<polygon fill="#63b8ff" stroke="#63b8ff" points="669.53,-231.73 679.43,-227.95 669.33,-224.73 669.53,-231.73"/>
</a>
</g>
</g>
</g>
</svg>

<g id="navigator" transform="translate(0 0)" fill="#404254">
  <rect fill="#f2f5e9" fill-opacity="0.5" stroke="#606060" stroke-width=".5" x="0" y="0" width="60" height="60"/>
  <use id="zoomplus" xlink:href="#zoomPlus" x="17" y="9" onmousedown="handleZoom(evt,'in')"/>
  <use id="zoomminus" xlink:href="#zoomMin" x="42" y="9" onmousedown="handleZoom(evt,'out')"/>
  <use id="reset" xlink:href="#resetDef" x="30" y="36" onmousedown="handleReset()"/>
   <use id="arrowup" xlink:href="#arrowUp" x="0" y="0" onmousedown="handlePan(0,-1)"/>
  <use id="arrowright" xlink:href="#arrowRight" x="0" y="0" onmousedown="handlePan(1,0)"/>
  <use id="arrowdown" xlink:href="#arrowDown" x="0" y="0" onmousedown="handlePan(0,1)"/>
  <use id="arrowleft" xlink:href="#arrowLeft" x="0" y="0" onmousedown="handlePan(-1,0)"/>
</g>
<svg viewBox="0 0 15 15" width="100%" height="30px" preserveAspectRatio="xMaxYMin meet">
 <g id="arrow_out" transform="scale(0.3 0.3)">
  <a xlink:href="namespacelamina_af4c0e5cda909c838a751506961c0befe_cgraph_org.svg" target="_base">
   <rect id="button" ry="5" rx="5" y="6" x="6" height="38" width="38"
        fill="#f2f5e9" fill-opacity="0.5" stroke="#606060" stroke-width="1.0"/>
   <path id="arrow"
     d="M 11.500037,31.436501 C 11.940474,20.09759 22.043105,11.32322 32.158766,21.979434 L 37.068811,17.246167 C 37.068811,17.246167 37.088388,32 37.088388,32 L 22.160133,31.978069 C 22.160133,31.978069 26.997745,27.140456 26.997745,27.140456 C 18.528582,18.264221 13.291696,25.230495 11.500037,31.436501 z"
     style="fill:#404040;"/>
  </a>
 </g>
</svg>

<style type='text/css'>
<![CDATA[
[data-mouse-over-selected='false'] { opacity: 0.7; }
[data-mouse-over-selected='true']  { opacity: 1.0; }
]]>
</style>
<script type="application/ecmascript"><![CDATA[
document.addEventListener('DOMContentLoaded', (event) => {
  highlightEdges();
  highlightAdjacentNodes();
});
]]></script>
</svg>
