<?xml version="1.0" encoding="UTF-8" standalone="no"?>
<!DOCTYPE svg PUBLIC "-//W3C//DTD SVG 1.1//EN"
 "http://www.w3.org/Graphics/SVG/1.1/DTD/svg11.dtd">
<!-- Generated by graphviz version 2.43.0 (0)
 -->
<!-- Title: lamina::invert_h_power Pages: 1 -->
<svg width="460pt" height="180pt"
 viewBox="0.00 0.00 460.00 179.50" xmlns="http://www.w3.org/2000/svg" xmlns:xlink="http://www.w3.org/1999/xlink">
<g id="graph0" class="graph" transform="scale(1 1) rotate(0) translate(4 175.5)">
<title>lamina::invert_h_power</title>
<!-- Node1 -->
<g id="Node000001" class="node">
<title>Node1</title>
<g id="a_Node000001"><a xlink:title=" ">
<polygon fill="#999999" stroke="#666666" points="131,-105.5 0,-105.5 0,-86.5 131,-86.5 131,-105.5"/>
<text text-anchor="middle" x="65.5" y="-93.5" font-family="Helvetica,sans-Serif" font-size="10.00">lamina::invert_h_power</text>
</a>
</g>
</g>
<!-- Node2 -->
<g id="Node000002" class="node">
<title>Node2</title>
<g id="a_Node000002"><a xlink:href="../../dc/d25/classSymbolicExpr.html#aea4c251b3fd9994c77fb8b26dae96d5f" target="_top" xlink:title="执行符号除法。">
<polygon fill="white" stroke="#666666" points="286,-105.5 167,-105.5 167,-86.5 286,-86.5 286,-105.5"/>
<text text-anchor="middle" x="226.5" y="-93.5" font-family="Helvetica,sans-Serif" font-size="10.00">SymbolicExpr::divide</text>
</a>
</g>
</g>
<!-- Node1&#45;&gt;Node2 -->
<g id="edge1_Node000001_Node000002" class="edge">
<title>Node1&#45;&gt;Node2</title>
<g id="a_edge1_Node000001_Node000002"><a xlink:title=" ">
<path fill="none" stroke="#63b8ff" d="M131.17,-96C139.55,-96 148.15,-96 156.59,-96"/>
<polygon fill="#63b8ff" stroke="#63b8ff" points="156.77,-99.5 166.77,-96 156.77,-92.5 156.77,-99.5"/>
</a>
</g>
</g>
<!-- Node3 -->
<g id="Node000003" class="node">
<title>Node3</title>
<g id="a_Node000003"><a xlink:href="../../dc/d25/classSymbolicExpr.html#ad03189fc8a4db7762f7c1ca890674bbc" target="_top" xlink:title="创建乘法表达式。">
<polygon fill="white" stroke="#666666" points="452,-171.5 322,-171.5 322,-152.5 452,-152.5 452,-171.5"/>
<text text-anchor="middle" x="387" y="-159.5" font-family="Helvetica,sans-Serif" font-size="10.00">SymbolicExpr::multiply</text>
</a>
</g>
</g>
<!-- Node1&#45;&gt;Node3 -->
<g id="edge5_Node000001_Node000003" class="edge">
<title>Node1&#45;&gt;Node3</title>
<g id="a_edge5_Node000001_Node000003"><a xlink:title=" ">
<path fill="none" stroke="#63b8ff" d="M90.92,-105.65C111.04,-113.27 140.49,-123.64 167,-130 214.56,-141.42 268.97,-149.4 311.66,-154.53"/>
<polygon fill="#63b8ff" stroke="#63b8ff" points="311.35,-158.02 321.69,-155.71 312.17,-151.06 311.35,-158.02"/>
</a>
</g>
</g>
<!-- Node4 -->
<g id="Node000004" class="node">
<title>Node4</title>
<g id="a_Node000004"><a xlink:href="../../dc/d25/classSymbolicExpr.html#adeb760bb6f4f28879108394537eca293" target="_top" xlink:title="创建整数数值表达式。">
<polygon fill="white" stroke="#666666" points="450.5,-115.5 323.5,-115.5 323.5,-96.5 450.5,-96.5 450.5,-115.5"/>
<text text-anchor="middle" x="387" y="-103.5" font-family="Helvetica,sans-Serif" font-size="10.00">SymbolicExpr::number</text>
</a>
</g>
</g>
<!-- Node1&#45;&gt;Node4 -->
<g id="edge6_Node000001_Node000004" class="edge">
<title>Node1&#45;&gt;Node4</title>
<g id="a_edge6_Node000001_Node000004"><a xlink:title=" ">
<path fill="none" stroke="#63b8ff" d="M107.33,-105.51C125.49,-109.28 147.2,-113.14 167,-115 215.58,-119.55 270.43,-117.29 313.09,-113.89"/>
<polygon fill="#63b8ff" stroke="#63b8ff" points="313.43,-117.37 323.11,-113.05 312.85,-110.4 313.43,-117.37"/>
</a>
</g>
</g>
<!-- Node5 -->
<g id="Node000005" class="node">
<title>Node5</title>
<g id="a_Node000005"><a xlink:href="../../dc/d25/classSymbolicExpr.html#ab03922681e30190ba7c73d2c1e58aa40" target="_top" xlink:title="创建幂运算表达式。">
<polygon fill="white" stroke="#666666" points="446.5,-78.5 327.5,-78.5 327.5,-59.5 446.5,-59.5 446.5,-78.5"/>
<text text-anchor="middle" x="387" y="-66.5" font-family="Helvetica,sans-Serif" font-size="10.00">SymbolicExpr::power</text>
</a>
</g>
</g>
<!-- Node1&#45;&gt;Node5 -->
<g id="edge7_Node000001_Node000005" class="edge">
<title>Node1&#45;&gt;Node5</title>
<g id="a_edge7_Node000001_Node000005"><a xlink:title=" ">
<path fill="none" stroke="#63b8ff" d="M109.32,-86.43C127.08,-82.85 147.94,-79.14 167,-77 217.05,-71.39 273.91,-69.44 317.14,-68.87"/>
<polygon fill="#63b8ff" stroke="#63b8ff" points="317.3,-72.37 327.26,-68.76 317.22,-65.37 317.3,-72.37"/>
</a>
</g>
</g>
<!-- Node6 -->
<g id="Node000006" class="node">
<title>Node6</title>
<g id="a_Node000006"><a xlink:href="../../d1/d42/namespacelamina.html#ab0303c020e5b5118f43bc01eabe9f8e1" target="_top" xlink:title=" ">
<polygon fill="white" stroke="#666666" points="285.5,-30 167.5,-30 167.5,0 285.5,0 285.5,-30"/>
<text text-anchor="start" x="175.5" y="-18" font-family="Helvetica,sans-Serif" font-size="10.00">lamina::try_evaluate</text>
<text text-anchor="middle" x="226.5" y="-7" font-family="Helvetica,sans-Serif" font-size="10.00">_numeric</text>
</a>
</g>
</g>
<!-- Node1&#45;&gt;Node6 -->
<g id="edge8_Node000001_Node000006" class="edge">
<title>Node1&#45;&gt;Node6</title>
<g id="a_edge8_Node000001_Node000006"><a xlink:title=" ">
<path fill="none" stroke="#63b8ff" d="M84.97,-86.32C105.1,-75.8 138.26,-58.56 167,-44 173.05,-40.94 179.46,-37.72 185.74,-34.6"/>
<polygon fill="#63b8ff" stroke="#63b8ff" points="187.39,-37.69 194.79,-30.1 184.27,-31.42 187.39,-37.69"/>
</a>
</g>
</g>
<!-- Node2&#45;&gt;Node3 -->
<g id="edge2_Node000002_Node000003" class="edge">
<title>Node2&#45;&gt;Node3</title>
<g id="a_edge2_Node000002_Node000003"><a xlink:title=" ">
<path fill="none" stroke="#63b8ff" d="M250.55,-105.6C277.74,-116.92 323.12,-135.82 353.79,-148.59"/>
<polygon fill="#63b8ff" stroke="#63b8ff" points="352.6,-151.89 363.18,-152.5 355.3,-145.42 352.6,-151.89"/>
</a>
</g>
</g>
<!-- Node2&#45;&gt;Node4 -->
<g id="edge3_Node000002_Node000004" class="edge">
<title>Node2&#45;&gt;Node4</title>
<g id="a_edge3_Node000002_Node000004"><a xlink:title=" ">
<path fill="none" stroke="#63b8ff" d="M286.07,-99.7C294.91,-100.25 304.12,-100.83 313.22,-101.41"/>
<polygon fill="#63b8ff" stroke="#63b8ff" points="313.21,-104.91 323.42,-102.05 313.66,-97.93 313.21,-104.91"/>
</a>
</g>
</g>
<!-- Node2&#45;&gt;Node5 -->
<g id="edge4_Node000002_Node000005" class="edge">
<title>Node2&#45;&gt;Node5</title>
<g id="a_edge4_Node000002_Node000005"><a xlink:title=" ">
<path fill="none" stroke="#63b8ff" d="M283.38,-86.48C295.22,-84.46 307.82,-82.32 319.99,-80.24"/>
<polygon fill="#63b8ff" stroke="#63b8ff" points="320.82,-83.65 330.09,-78.52 319.64,-76.75 320.82,-83.65"/>
</a>
</g>
</g>
</g>
</svg>
