<?xml version="1.0" encoding="UTF-8" standalone="no"?>
<!DOCTYPE svg PUBLIC "-//W3C//DTD SVG 1.1//EN"
 "http://www.w3.org/Graphics/SVG/1.1/DTD/svg11.dtd">
<!-- Generated by graphviz version 2.43.0 (0)
 -->
<!-- Title: lamina::is_positive_integer_number Pages: 1 -->
<svg width="534pt" height="114pt"
 viewBox="0.00 0.00 534.00 113.50" xmlns="http://www.w3.org/2000/svg" xmlns:xlink="http://www.w3.org/1999/xlink">
<g id="graph0" class="graph" transform="scale(1 1) rotate(0) translate(4 109.5)">
<title>lamina::is_positive_integer_number</title>
<!-- Node1 -->
<g id="Node000001" class="node">
<title>Node1</title>
<g id="a_Node000001"><a xlink:title="Helper: check if a NumberNode holds a positive integer value (&gt; 0).">
<polygon fill="#999999" stroke="#666666" points="109,-62.5 0,-62.5 0,-32.5 109,-32.5 109,-62.5"/>
<text text-anchor="start" x="8" y="-50.5" font-family="Helvetica,sans-Serif" font-size="10.00">lamina::is_positive</text>
<text text-anchor="middle" x="54.5" y="-39.5" font-family="Helvetica,sans-Serif" font-size="10.00">_integer_number</text>
</a>
</g>
</g>
<!-- Node2 -->
<g id="Node000002" class="node">
<title>Node2</title>
<g id="a_Node000002"><a xlink:href="../../d1/d42/namespacelamina.html#aeeeb7abf5018ea3dfda0a676e8a3c54f" target="_top" xlink:title="Helper: check if a NumberNode holds an integer value.">
<polygon fill="white" stroke="#666666" points="249,-105.5 145,-105.5 145,-75.5 249,-75.5 249,-105.5"/>
<text text-anchor="start" x="153" y="-93.5" font-family="Helvetica,sans-Serif" font-size="10.00">lamina::is_integer</text>
<text text-anchor="middle" x="197" y="-82.5" font-family="Helvetica,sans-Serif" font-size="10.00">_number</text>
</a>
</g>
</g>
<!-- Node1&#45;&gt;Node2 -->
<g id="edge1_Node000001_Node000002" class="edge">
<title>Node1&#45;&gt;Node2</title>
<g id="a_edge1_Node000001_Node000002"><a xlink:title=" ">
<path fill="none" stroke="#63b8ff" d="M104.64,-62.54C115.06,-65.73 126.16,-69.13 136.91,-72.42"/>
<polygon fill="#63b8ff" stroke="#63b8ff" points="136.06,-75.82 146.65,-75.4 138.11,-69.12 136.06,-75.82"/>
</a>
</g>
</g>
<!-- Node3 -->
<g id="Node000003" class="node">
<title>Node3</title>
<g id="a_Node000003"><a xlink:href="../../d1/d42/namespacelamina.html#a78a46efcff5ce7151a74984c5381cd71" target="_top" xlink:title=" ">
<polygon fill="white" stroke="#666666" points="363,-78 285,-78 285,-59 363,-59 363,-78"/>
<text text-anchor="middle" x="324" y="-66" font-family="Helvetica,sans-Serif" font-size="10.00">lamina::num</text>
</a>
</g>
</g>
<!-- Node1&#45;&gt;Node3 -->
<g id="edge5_Node000001_Node000003" class="edge">
<title>Node1&#45;&gt;Node3</title>
<g id="a_edge5_Node000001_Node000003"><a xlink:title=" ">
<path fill="none" stroke="#63b8ff" d="M109.31,-51.72C157.68,-55.52 228.08,-61.05 274.68,-64.71"/>
<polygon fill="#63b8ff" stroke="#63b8ff" points="274.58,-68.21 284.82,-65.5 275.13,-61.23 274.58,-68.21"/>
</a>
</g>
</g>
<!-- Node5 -->
<g id="Node000005" class="node">
<title>Node5</title>
<g id="a_Node000005"><a xlink:href="../../da/d5b/classBigInt.html#ae5d874ccb625319e093bec91b29e5a24" target="_top" xlink:title="判断是否为负数">
<polygon fill="white" stroke="#666666" points="249,-19 145,-19 145,0 249,0 249,-19"/>
<text text-anchor="middle" x="197" y="-7" font-family="Helvetica,sans-Serif" font-size="10.00">BigInt::IsNegative</text>
</a>
</g>
</g>
<!-- Node1&#45;&gt;Node5 -->
<g id="edge4_Node000001_Node000005" class="edge">
<title>Node1&#45;&gt;Node5</title>
<g id="a_edge4_Node000001_Node000005"><a xlink:title=" ">
<path fill="none" stroke="#63b8ff" d="M109.02,-33.03C122.74,-29.31 137.36,-25.36 150.62,-21.77"/>
<polygon fill="#63b8ff" stroke="#63b8ff" points="151.73,-25.1 160.47,-19.11 149.9,-18.34 151.73,-25.1"/>
</a>
</g>
</g>
<!-- Node2&#45;&gt;Node3 -->
<g id="edge2_Node000002_Node000003" class="edge">
<title>Node2&#45;&gt;Node3</title>
<g id="a_edge2_Node000002_Node000003"><a xlink:title=" ">
<path fill="none" stroke="#63b8ff" d="M249.2,-81.49C257.64,-80 266.36,-78.47 274.72,-77"/>
<polygon fill="#63b8ff" stroke="#63b8ff" points="275.46,-80.42 284.7,-75.24 274.24,-73.53 275.46,-80.42"/>
</a>
</g>
</g>
<!-- Node4 -->
<g id="Node000004" class="node">
<title>Node4</title>
<g id="a_Node000004"><a xlink:href="../../dc/d25/classSymbolicExpr.html#adeb760bb6f4f28879108394537eca293" target="_top" xlink:title="创建整数数值表达式。">
<polygon fill="white" stroke="#666666" points="526,-78 399,-78 399,-59 526,-59 526,-78"/>
<text text-anchor="middle" x="462.5" y="-66" font-family="Helvetica,sans-Serif" font-size="10.00">SymbolicExpr::number</text>
</a>
</g>
</g>
<!-- Node3&#45;&gt;Node4 -->
<g id="edge3_Node000003_Node000004" class="edge">
<title>Node3&#45;&gt;Node4</title>
<g id="a_edge3_Node000003_Node000004"><a xlink:title=" ">
<path fill="none" stroke="#63b8ff" d="M363.02,-68.5C371.1,-68.5 379.89,-68.5 388.79,-68.5"/>
<polygon fill="#63b8ff" stroke="#63b8ff" points="388.84,-72 398.84,-68.5 388.84,-65 388.84,-72"/>
</a>
</g>
</g>
</g>
</svg>
