<?xml version="1.0" encoding="UTF-8" standalone="no"?>
<!DOCTYPE svg PUBLIC "-//W3C//DTD SVG 1.1//EN"
 "http://www.w3.org/Graphics/SVG/1.1/DTD/svg11.dtd">
<!-- Generated by graphviz version 2.43.0 (0)
 -->
<!-- Title: lamina::try_eval_complex Pages: 1 -->
<svg width="458pt" height="51pt"
 viewBox="0.00 0.00 458.00 50.50" xmlns="http://www.w3.org/2000/svg" xmlns:xlink="http://www.w3.org/1999/xlink">
<g id="graph0" class="graph" transform="scale(1 1) rotate(0) translate(4 46.5)">
<title>lamina::try_eval_complex</title>
<!-- Node1 -->
<g id="Node000001" class="node">
<title>Node1</title>
<g id="a_Node000001"><a xlink:title=" ">
<polygon fill="#999999" stroke="#666666" points="450,-24.5 307,-24.5 307,-5.5 450,-5.5 450,-24.5"/>
<text text-anchor="middle" x="378.5" y="-12.5" font-family="Helvetica,sans-Serif" font-size="10.00">lamina::try_eval_complex</text>
</a>
</g>
</g>
<!-- Node2 -->
<g id="Node000002" class="node">
<title>Node2</title>
<g id="a_Node000002"><a xlink:href="../../d1/d42/namespacelamina.html#aae2b5d54fd388fcc54d3c89ecbf5729f" target="_top" xlink:title=" ">
<polygon fill="white" stroke="#666666" points="271,-30 166,-30 166,0 271,0 271,-30"/>
<text text-anchor="start" x="174" y="-18" font-family="Helvetica,sans-Serif" font-size="10.00">lamina::sort_roots</text>
<text text-anchor="middle" x="218.5" y="-7" font-family="Helvetica,sans-Serif" font-size="10.00">_by_convention</text>
</a>
</g>
</g>
<!-- Node1&#45;&gt;Node2 -->
<g id="edge1_Node000001_Node000002" class="edge">
<title>Node1&#45;&gt;Node2</title>
<g id="a_edge1_Node000001_Node000002"><a xlink:title=" ">
<path fill="none" stroke="#63b8ff" d="M296.66,-15C288,-15 279.36,-15 271.18,-15"/>
<polygon fill="#63b8ff" stroke="#63b8ff" points="296.82,-18.5 306.82,-15 296.82,-11.5 296.82,-18.5"/>
</a>
</g>
</g>
<!-- Node3 -->
<g id="Node000003" class="node">
<title>Node3</title>
<g id="a_Node000003"><a xlink:href="../../d1/d42/namespacelamina.html#ac4d52f7d8e5ad84aad18c73b8a833c8f" target="_top" xlink:title="化简 RootOf 表达式（如可用根式表示则转换为闭式）。">
<polygon fill="white" stroke="#666666" points="130,-24.5 0,-24.5 0,-5.5 130,-5.5 130,-24.5"/>
<text text-anchor="middle" x="65" y="-12.5" font-family="Helvetica,sans-Serif" font-size="10.00">lamina::rootof_simplify</text>
</a>
</g>
</g>
<!-- Node2&#45;&gt;Node3 -->
<g id="edge2_Node000002_Node000003" class="edge">
<title>Node2&#45;&gt;Node3</title>
<g id="a_edge2_Node000002_Node000003"><a xlink:title=" ">
<path fill="none" stroke="#63b8ff" d="M155.65,-15C147.22,-15 138.55,-15 130.08,-15"/>
<polygon fill="#63b8ff" stroke="#63b8ff" points="155.79,-18.5 165.79,-15 155.79,-11.5 155.79,-18.5"/>
</a>
</g>
</g>
<!-- Node3&#45;&gt;Node3 -->
<g id="edge3_Node000003_Node000003" class="edge">
<title>Node3&#45;&gt;Node3</title>
<g id="a_edge3_Node000003_Node000003"><a xlink:title=" ">
<path fill="none" stroke="#63b8ff" d="M93.37,-33.32C92.19,-38.51 82.73,-42.5 65,-42.5 37.98,-42.5 30.18,-33.23 41.57,-24.58"/>
<polygon fill="#63b8ff" stroke="#63b8ff" points="96.4,-31.56 88.43,-24.58 90.31,-35.01 96.4,-31.56"/>
</a>
</g>
</g>
</g>
</svg>
