<?xml version="1.0" encoding="UTF-8" standalone="no"?>
<!DOCTYPE svg PUBLIC "-//W3C//DTD SVG 1.1//EN"
 "http://www.w3.org/Graphics/SVG/1.1/DTD/svg11.dtd">
<!-- Generated by graphviz version 2.43.0 (0)
 -->
<!-- Title: lamina::is_wildcard Pages: 1 -->
<!--zoomable 470 -->

<svg id="main" version="1.1" xmlns="http://www.w3.org/2000/svg" xmlns:xlink="http://www.w3.org/1999/xlink" xml:space="preserve" onload="init(evt)">
<style type="text/css"><![CDATA[
.node, .edge {opacity: 0.7;}
.node.selected, .edge.selected {opacity: 1;}
.edge:hover path { stroke: red; }
.edge:hover polygon { stroke: red; fill: red; }
]]></style>

<defs>
  <circle id="rim" cx="0" cy="0" r="7"/>
  <circle id="rim2" cx="0" cy="0" r="3.5"/>
  <g id="zoomPlus">
    <use xlink:href="#rim" fill="#404040"><set attributeName="fill" to="#808080" begin="zoomplus.mouseover" end="zoomplus.mouseout"/></use>
    <path d="M-4,0h8M0,-4v8" fill="none" stroke="white" stroke-width="1.5" pointer-events="none"/>
  </g>
  <g id="zoomMin">
    <use xlink:href="#rim" fill="#404040"><set attributeName="fill" to="#808080" begin="zoomminus.mouseover" end="zoomminus.mouseout"/></use>
    <path d="M-4,0h8" fill="none" stroke="white" stroke-width="1.5" pointer-events="none"/>
  </g>
  <g id="arrowUp" transform="translate(30 24)">
    <use xlink:href="#rim"/>
    <path pointer-events="none" fill="none" stroke="white" stroke-width="1.5" d="M0,-3.0v7 M-2.5,-0.5L0,-3.0L2.5,-0.5"/>
  </g>
  <g id="arrowRight" transform="rotate(90) translate(36 -43)">
    <use xlink:href="#rim"/>
    <path pointer-events="none" fill="none" stroke="white" stroke-width="1.5" d="M0,-3.0v7 M-2.5,-0.5L0,-3.0L2.5,-0.5"/>
  </g>
  <g id="arrowDown" transform="rotate(180) translate(-30 -48)">
    <use xlink:href="#rim"/>
    <path pointer-events="none" fill="none" stroke="white" stroke-width="1.5" d="M0,-3.0v7 M-2.5,-0.5L0,-3.0L2.5,-0.5"/>
  </g>
  <g id="arrowLeft" transform="rotate(270) translate(-36 17)">
    <use xlink:href="#rim"/>
    <path pointer-events="none" fill="none" stroke="white" stroke-width="1.5" d="M0,-3.0v7 M-2.5,-0.5L0,-3.0L2.5,-0.5"/>
  </g>
  <g id="resetDef">
    <use xlink:href="#rim2" fill="#404040"><set attributeName="fill" to="#808080" begin="reset.mouseover" end="reset.mouseout"/></use>
  </g>
</defs>
<script type="application/ecmascript">
var viewWidth = 861;
var viewHeight = 470;
var sectionId = 'dynsection-145';
</script>
<script type="application/ecmascript" xlink:href="../../svg.min.js"/>
<svg id="graph" class="graph">
<g id="viewport">
<title>lamina::is_wildcard</title>
<!-- Node1 -->
<g id="Node000001" class="node">
<title>Node1</title>
<g id="a_Node000001"><a xlink:title=" ">
<polygon fill="#999999" stroke="#666666" points="853,-245.5 742,-245.5 742,-226.5 853,-226.5 853,-245.5"/>
<text text-anchor="middle" x="797.5" y="-233.5" font-family="Helvetica,sans-Serif" font-size="10.00">lamina::is_wildcard</text>
</a>
</g>
</g>
<!-- Node2 -->
<g id="Node000002" class="node">
<title>Node2</title>
<g id="a_Node000002"><a xlink:href="../../d1/d42/namespacelamina.html#aa1229a5af14e9c134f19472e208efff2" target="_top" xlink:title=" ">
<polygon fill="white" stroke="#666666" points="706,-245.5 569,-245.5 569,-226.5 706,-226.5 706,-245.5"/>
<text text-anchor="middle" x="637.5" y="-233.5" font-family="Helvetica,sans-Serif" font-size="10.00">lamina::match_recursive</text>
</a>
</g>
</g>
<!-- Node1&#45;&gt;Node2 -->
<g id="edge1_Node000001_Node000002" class="edge">
<title>Node1&#45;&gt;Node2</title>
<g id="a_edge1_Node000001_Node000002"><a xlink:title=" ">
<path fill="none" stroke="#63b8ff" d="M731.55,-236C723.13,-236 714.49,-236 706.03,-236"/>
<polygon fill="#63b8ff" stroke="#63b8ff" points="731.68,-239.5 741.68,-236 731.68,-232.5 731.68,-239.5"/>
</a>
</g>
</g>
<!-- Node2&#45;&gt;Node2 -->
<g id="edge18_Node000002_Node000002" class="edge">
<title>Node2&#45;&gt;Node2</title>
<g id="a_edge18_Node000002_Node000002"><a xlink:title=" ">
<path fill="none" stroke="#63b8ff" d="M667.37,-254.32C666.12,-259.51 656.16,-263.5 637.5,-263.5 609.06,-263.5 600.84,-254.23 612.84,-245.58"/>
<polygon fill="#63b8ff" stroke="#63b8ff" points="670.29,-252.38 662.16,-245.58 664.27,-255.97 670.29,-252.38"/>
</a>
</g>
</g>
<!-- Node3 -->
<g id="Node000003" class="node">
<title>Node3</title>
<g id="a_Node000003"><a xlink:href="../../d5/d68/classlamina_1_1Matcher.html#a756d9e2d855dfed07d5c7fed79761bfc" target="_top" xlink:title="将模式与目标表达式进行匹配">
<polygon fill="white" stroke="#666666" points="520.5,-306.5 387.5,-306.5 387.5,-287.5 520.5,-287.5 520.5,-306.5"/>
<text text-anchor="middle" x="454" y="-294.5" font-family="Helvetica,sans-Serif" font-size="10.00">lamina::Matcher::match</text>
</a>
</g>
</g>
<!-- Node2&#45;&gt;Node3 -->
<g id="edge2_Node000002_Node000003" class="edge">
<title>Node2&#45;&gt;Node3</title>
<g id="a_edge2_Node000002_Node000003"><a xlink:title=" ">
<path fill="none" stroke="#63b8ff" d="M606.04,-249.74C585.65,-258.59 558.06,-269.91 533,-278 522.12,-281.51 510.21,-284.72 499.04,-287.46"/>
<polygon fill="#63b8ff" stroke="#63b8ff" points="607.68,-252.84 615.43,-245.61 604.87,-246.43 607.68,-252.84"/>
</a>
</g>
</g>
<!-- Node16 -->
<g id="Node000016" class="node">
<title>Node16</title>
<g id="a_Node000016"><a xlink:href="../../d1/d42/namespacelamina.html#ae9e55d487db3d0012e65fd5470d8108f" target="_top" xlink:title=" ">
<polygon fill="white" stroke="#666666" points="533,-251 375,-251 375,-221 533,-221 533,-251"/>
<text text-anchor="start" x="383" y="-239" font-family="Helvetica,sans-Serif" font-size="10.00">lamina::match_commutative</text>
<text text-anchor="middle" x="454" y="-228" font-family="Helvetica,sans-Serif" font-size="10.00">_recursive</text>
</a>
</g>
</g>
<!-- Node2&#45;&gt;Node16 -->
<g id="edge15_Node000002_Node000016" class="edge">
<title>Node2&#45;&gt;Node16</title>
<g id="a_edge15_Node000002_Node000016"><a xlink:title=" ">
<path fill="none" stroke="#63b8ff" d="M558.66,-229.31C550.17,-229.23 541.53,-229.23 533.04,-229.31"/>
<polygon fill="#63b8ff" stroke="#63b8ff" points="558.87,-232.81 568.92,-229.45 558.96,-225.81 558.87,-232.81"/>
</a>
</g>
</g>
<!-- Node4 -->
<g id="Node000004" class="node">
<title>Node4</title>
<g id="a_Node000004"><a xlink:href="../../de/d21/classlamina_1_1TableLookupStrategy.html#adb653c8d927ce8cb6842fd4e443e15f5" target="_top" xlink:title="尝试对表达式进行积分">
<polygon fill="white" stroke="#666666" points="339,-378 181,-378 181,-348 339,-348 339,-378"/>
<text text-anchor="start" x="189" y="-366" font-family="Helvetica,sans-Serif" font-size="10.00">lamina::TableLookupStrategy</text>
<text text-anchor="middle" x="260" y="-355" font-family="Helvetica,sans-Serif" font-size="10.00">::try_integrate</text>
</a>
</g>
</g>
<!-- Node3&#45;&gt;Node4 -->
<g id="edge3_Node000003_Node000004" class="edge">
<title>Node3&#45;&gt;Node4</title>
<g id="a_edge3_Node000003_Node000004"><a xlink:title=" ">
<path fill="none" stroke="#63b8ff" d="M415.3,-309.96C383.61,-320.85 338.28,-336.43 304.95,-347.89"/>
<polygon fill="#63b8ff" stroke="#63b8ff" points="416.76,-313.16 425.08,-306.6 414.49,-306.54 416.76,-313.16"/>
</a>
</g>
</g>
<!-- Node6 -->
<g id="Node000006" class="node">
<title>Node6</title>
<g id="a_Node000006"><a xlink:href="../../d5/dd7/classlamina_1_1RewriteVisitor.html#ad4525a1d56870715e59dda9c7e5aa927" target="_top" xlink:title=" ">
<polygon fill="white" stroke="#666666" points="322.5,-246 197.5,-246 197.5,-216 322.5,-216 322.5,-246"/>
<text text-anchor="start" x="205.5" y="-234" font-family="Helvetica,sans-Serif" font-size="10.00">lamina::RewriteVisitor</text>
<text text-anchor="middle" x="260" y="-223" font-family="Helvetica,sans-Serif" font-size="10.00">::try_match</text>
</a>
</g>
</g>
<!-- Node3&#45;&gt;Node6 -->
<g id="edge5_Node000003_Node000006" class="edge">
<title>Node3&#45;&gt;Node6</title>
<g id="a_edge5_Node000003_Node000006"><a xlink:title=" ">
<path fill="none" stroke="#63b8ff" d="M398.82,-284.93C390.78,-282.82 382.63,-280.49 375,-278 347.11,-268.91 316.43,-256.09 293.92,-246.14"/>
<polygon fill="#63b8ff" stroke="#63b8ff" points="397.98,-288.33 408.53,-287.41 399.71,-281.55 397.98,-288.33"/>
</a>
</g>
</g>
<!-- Node5 -->
<g id="Node000005" class="node">
<title>Node5</title>
<g id="a_Node000005"><a xlink:href="../../d6/d86/classlamina_1_1LinearSubstitutionStrategy.html#a81a69fc739ab7b461f1c0b7263842f8c" target="_top" xlink:title="尝试对表达式进行积分">
<polygon fill="white" stroke="#666666" points="145,-462 0,-462 0,-432 145,-432 145,-462"/>
<text text-anchor="start" x="8" y="-450" font-family="Helvetica,sans-Serif" font-size="10.00">lamina::LinearSubstitution</text>
<text text-anchor="middle" x="72.5" y="-439" font-family="Helvetica,sans-Serif" font-size="10.00">Strategy::try_integrate</text>
</a>
</g>
</g>
<!-- Node4&#45;&gt;Node5 -->
<g id="edge4_Node000004_Node000005" class="edge">
<title>Node4&#45;&gt;Node5</title>
<g id="a_edge4_Node000004_Node000005"><a xlink:title=" ">
<path fill="none" stroke="#63b8ff" d="M224.58,-382.98C202.32,-395.42 172.47,-411.25 145,-423 137.66,-426.14 129.75,-429.15 121.97,-431.91"/>
<polygon fill="#63b8ff" stroke="#63b8ff" points="226.33,-386 233.32,-378.04 222.89,-379.91 226.33,-386"/>
</a>
</g>
</g>
<!-- Node7 -->
<g id="Node000007" class="node">
<title>Node7</title>
<g id="a_Node000007"><a xlink:href="../../d5/dd7/classlamina_1_1RewriteVisitor.html#a1174973396ded627bf4e267a3f17387d" target="_top" xlink:title=" ">
<polygon fill="white" stroke="#666666" points="135,-414 10,-414 10,-384 135,-384 135,-414"/>
<text text-anchor="start" x="18" y="-402" font-family="Helvetica,sans-Serif" font-size="10.00">lamina::RewriteVisitor</text>
<text text-anchor="middle" x="72.5" y="-391" font-family="Helvetica,sans-Serif" font-size="10.00">::visit</text>
</a>
</g>
</g>
<!-- Node6&#45;&gt;Node7 -->
<g id="edge6_Node000006_Node000007" class="edge">
<title>Node6&#45;&gt;Node7</title>
<g id="a_edge6_Node000006_Node000007"><a xlink:title=" ">
<path fill="none" stroke="#63b8ff" d="M242.87,-254.54C217.59,-290.85 169.05,-358.1 145,-375 140.18,-378.39 134.84,-381.33 129.32,-383.87"/>
<polygon fill="#63b8ff" stroke="#63b8ff" points="245.95,-256.24 248.77,-246.03 240.2,-252.25 245.95,-256.24"/>
</a>
</g>
</g>
<!-- Node8 -->
<g id="Node000008" class="node">
<title>Node8</title>
<g id="a_Node000008"><a xlink:href="../../d5/dd7/classlamina_1_1RewriteVisitor.html#a2d2cbbe6e38cf135c2dcdd0fb53ae4f8" target="_top" xlink:title=" ">
<polygon fill="white" stroke="#666666" points="135,-366 10,-366 10,-336 135,-336 135,-366"/>
<text text-anchor="start" x="18" y="-354" font-family="Helvetica,sans-Serif" font-size="10.00">lamina::RewriteVisitor</text>
<text text-anchor="middle" x="72.5" y="-343" font-family="Helvetica,sans-Serif" font-size="10.00">::visit</text>
</a>
</g>
</g>
<!-- Node6&#45;&gt;Node8 -->
<g id="edge7_Node000006_Node000008" class="edge">
<title>Node6&#45;&gt;Node8</title>
<g id="a_edge7_Node000006_Node000008"><a xlink:title=" ">
<path fill="none" stroke="#63b8ff" d="M237.84,-253.13C216.26,-274.61 180.92,-306.82 145,-327 139.06,-330.34 132.59,-333.31 126.04,-335.92"/>
<polygon fill="#63b8ff" stroke="#63b8ff" points="240.33,-255.59 244.88,-246.02 235.36,-250.67 240.33,-255.59"/>
</a>
</g>
</g>
<!-- Node9 -->
<g id="Node000009" class="node">
<title>Node9</title>
<g id="a_Node000009"><a xlink:href="../../d5/dd7/classlamina_1_1RewriteVisitor.html#a1d038d92bb09fca7adf1992c3dd120f7" target="_top" xlink:title=" ">
<polygon fill="white" stroke="#666666" points="135,-318 10,-318 10,-288 135,-288 135,-318"/>
<text text-anchor="start" x="18" y="-306" font-family="Helvetica,sans-Serif" font-size="10.00">lamina::RewriteVisitor</text>
<text text-anchor="middle" x="72.5" y="-295" font-family="Helvetica,sans-Serif" font-size="10.00">::visit</text>
</a>
</g>
</g>
<!-- Node6&#45;&gt;Node9 -->
<g id="edge8_Node000006_Node000009" class="edge">
<title>Node6&#45;&gt;Node9</title>
<g id="a_edge8_Node000006_Node000009"><a xlink:title=" ">
<path fill="none" stroke="#63b8ff" d="M215.73,-250.12C194.56,-259.24 168.61,-270.08 145,-279 137.04,-282.01 128.51,-285.04 120.22,-287.88"/>
<polygon fill="#63b8ff" stroke="#63b8ff" points="217.31,-253.25 225.1,-246.06 214.53,-246.82 217.31,-253.25"/>
</a>
</g>
</g>
<!-- Node10 -->
<g id="Node000010" class="node">
<title>Node10</title>
<g id="a_Node000010"><a xlink:href="../../d5/dd7/classlamina_1_1RewriteVisitor.html#a97438c9a9d47358d5846e03a9a9893e1" target="_top" xlink:title=" ">
<polygon fill="white" stroke="#666666" points="135,-270 10,-270 10,-240 135,-240 135,-270"/>
<text text-anchor="start" x="18" y="-258" font-family="Helvetica,sans-Serif" font-size="10.00">lamina::RewriteVisitor</text>
<text text-anchor="middle" x="72.5" y="-247" font-family="Helvetica,sans-Serif" font-size="10.00">::visit</text>
</a>
</g>
</g>
<!-- Node6&#45;&gt;Node10 -->
<g id="edge9_Node000006_Node000010" class="edge">
<title>Node6&#45;&gt;Node10</title>
<g id="a_edge9_Node000006_Node000010"><a xlink:title=" ">
<path fill="none" stroke="#63b8ff" d="M187.47,-240.25C170.21,-242.49 151.92,-244.85 135.16,-247.02"/>
<polygon fill="#63b8ff" stroke="#63b8ff" points="188.02,-243.71 197.49,-238.96 187.12,-236.77 188.02,-243.71"/>
</a>
</g>
</g>
<!-- Node11 -->
<g id="Node000011" class="node">
<title>Node11</title>
<g id="a_Node000011"><a xlink:href="../../d5/dd7/classlamina_1_1RewriteVisitor.html#ae39ac7eab444b6b9ebdda5db74fe4562" target="_top" xlink:title=" ">
<polygon fill="white" stroke="#666666" points="135,-222 10,-222 10,-192 135,-192 135,-222"/>
<text text-anchor="start" x="18" y="-210" font-family="Helvetica,sans-Serif" font-size="10.00">lamina::RewriteVisitor</text>
<text text-anchor="middle" x="72.5" y="-199" font-family="Helvetica,sans-Serif" font-size="10.00">::visit</text>
</a>
</g>
</g>
<!-- Node6&#45;&gt;Node11 -->
<g id="edge10_Node000006_Node000011" class="edge">
<title>Node6&#45;&gt;Node11</title>
<g id="a_edge10_Node000006_Node000011"><a xlink:title=" ">
<path fill="none" stroke="#63b8ff" d="M187.47,-221.75C170.21,-219.51 151.92,-217.15 135.16,-214.98"/>
<polygon fill="#63b8ff" stroke="#63b8ff" points="187.12,-225.23 197.49,-223.04 188.02,-218.29 187.12,-225.23"/>
</a>
</g>
</g>
<!-- Node12 -->
<g id="Node000012" class="node">
<title>Node12</title>
<g id="a_Node000012"><a xlink:href="../../d5/dd7/classlamina_1_1RewriteVisitor.html#a773f5ef24dec7c401125e5fde25a52db" target="_top" xlink:title=" ">
<polygon fill="white" stroke="#666666" points="135,-174 10,-174 10,-144 135,-144 135,-174"/>
<text text-anchor="start" x="18" y="-162" font-family="Helvetica,sans-Serif" font-size="10.00">lamina::RewriteVisitor</text>
<text text-anchor="middle" x="72.5" y="-151" font-family="Helvetica,sans-Serif" font-size="10.00">::visit</text>
</a>
</g>
</g>
<!-- Node6&#45;&gt;Node12 -->
<g id="edge11_Node000006_Node000012" class="edge">
<title>Node6&#45;&gt;Node12</title>
<g id="a_edge11_Node000006_Node000012"><a xlink:title=" ">
<path fill="none" stroke="#63b8ff" d="M215.73,-211.88C194.56,-202.76 168.61,-191.92 145,-183 137.04,-179.99 128.51,-176.96 120.22,-174.12"/>
<polygon fill="#63b8ff" stroke="#63b8ff" points="214.53,-215.18 225.1,-215.94 217.31,-208.75 214.53,-215.18"/>
</a>
</g>
</g>
<!-- Node13 -->
<g id="Node000013" class="node">
<title>Node13</title>
<g id="a_Node000013"><a xlink:href="../../d5/dd7/classlamina_1_1RewriteVisitor.html#a6739ad24bf21c16b532402f8d322a1e9" target="_top" xlink:title=" ">
<polygon fill="white" stroke="#666666" points="135,-126 10,-126 10,-96 135,-96 135,-126"/>
<text text-anchor="start" x="18" y="-114" font-family="Helvetica,sans-Serif" font-size="10.00">lamina::RewriteVisitor</text>
<text text-anchor="middle" x="72.5" y="-103" font-family="Helvetica,sans-Serif" font-size="10.00">::visit</text>
</a>
</g>
</g>
<!-- Node6&#45;&gt;Node13 -->
<g id="edge12_Node000006_Node000013" class="edge">
<title>Node6&#45;&gt;Node13</title>
<g id="a_edge12_Node000006_Node000013"><a xlink:title=" ">
<path fill="none" stroke="#63b8ff" d="M237.84,-208.87C216.26,-187.39 180.92,-155.18 145,-135 139.06,-131.66 132.59,-128.69 126.04,-126.08"/>
<polygon fill="#63b8ff" stroke="#63b8ff" points="235.36,-211.33 244.88,-215.98 240.33,-206.41 235.36,-211.33"/>
</a>
</g>
</g>
<!-- Node14 -->
<g id="Node000014" class="node">
<title>Node14</title>
<g id="a_Node000014"><a xlink:href="../../d5/dd7/classlamina_1_1RewriteVisitor.html#adbcb8cb7d3d205ca3714db568fc3f690" target="_top" xlink:title=" ">
<polygon fill="white" stroke="#666666" points="135,-78 10,-78 10,-48 135,-48 135,-78"/>
<text text-anchor="start" x="18" y="-66" font-family="Helvetica,sans-Serif" font-size="10.00">lamina::RewriteVisitor</text>
<text text-anchor="middle" x="72.5" y="-55" font-family="Helvetica,sans-Serif" font-size="10.00">::visit</text>
</a>
</g>
</g>
<!-- Node6&#45;&gt;Node14 -->
<g id="edge13_Node000006_Node000014" class="edge">
<title>Node6&#45;&gt;Node14</title>
<g id="a_edge13_Node000006_Node000014"><a xlink:title=" ">
<path fill="none" stroke="#63b8ff" d="M245.67,-206.46C227.13,-174.53 190.63,-119.06 145,-87 140.18,-83.61 134.84,-80.67 129.32,-78.13"/>
<polygon fill="#63b8ff" stroke="#63b8ff" points="242.85,-208.59 250.83,-215.56 248.94,-205.13 242.85,-208.59"/>
</a>
</g>
</g>
<!-- Node15 -->
<g id="Node000015" class="node">
<title>Node15</title>
<g id="a_Node000015"><a xlink:href="../../d5/dd7/classlamina_1_1RewriteVisitor.html#a6a41770e5b9bdcad676cf4c051452c5c" target="_top" xlink:title=" ">
<polygon fill="white" stroke="#666666" points="135,-30 10,-30 10,0 135,0 135,-30"/>
<text text-anchor="start" x="18" y="-18" font-family="Helvetica,sans-Serif" font-size="10.00">lamina::RewriteVisitor</text>
<text text-anchor="middle" x="72.5" y="-7" font-family="Helvetica,sans-Serif" font-size="10.00">::visit</text>
</a>
</g>
</g>
<!-- Node6&#45;&gt;Node15 -->
<g id="edge14_Node000006_Node000015" class="edge">
<title>Node6&#45;&gt;Node15</title>
<g id="a_edge14_Node000006_Node000015"><a xlink:title=" ">
<path fill="none" stroke="#63b8ff" d="M250.74,-206.13C235.96,-165.38 201.18,-84.38 145,-39 140.72,-35.54 135.92,-32.58 130.89,-30.03"/>
<polygon fill="#63b8ff" stroke="#63b8ff" points="247.52,-207.54 254.15,-215.81 254.13,-205.22 247.52,-207.54"/>
</a>
</g>
</g>
<!-- Node16&#45;&gt;Node2 -->
<g id="edge17_Node000016_Node000002" class="edge">
<title>Node16&#45;&gt;Node2</title>
<g id="a_edge17_Node000016_Node000002"><a xlink:title=" ">
<path fill="none" stroke="#63b8ff" d="M543.17,-242.75C551.83,-242.76 560.51,-242.7 568.92,-242.55"/>
<polygon fill="#63b8ff" stroke="#63b8ff" points="543.06,-239.25 533.04,-242.69 543.02,-246.25 543.06,-239.25"/>
</a>
</g>
</g>
<!-- Node16&#45;&gt;Node16 -->
<g id="edge16_Node000016_Node000016" class="edge">
<title>Node16&#45;&gt;Node16</title>
<g id="a_edge16_Node000016_Node000016"><a xlink:title=" ">
<path fill="none" stroke="#63b8ff" d="M485.86,-261.6C481.5,-265.97 470.88,-269 454,-269 425.56,-269 414.9,-260.41 422.01,-251.28"/>
<polygon fill="#63b8ff" stroke="#63b8ff" points="489.36,-261.32 485.99,-251.28 482.36,-261.23 489.36,-261.32"/>
</a>
</g>
</g>
</g>
</svg>

<g id="navigator" transform="translate(0 0)" fill="#404254">
  <rect fill="#f2f5e9" fill-opacity="0.5" stroke="#606060" stroke-width=".5" x="0" y="0" width="60" height="60"/>
  <use id="zoomplus" xlink:href="#zoomPlus" x="17" y="9" onmousedown="handleZoom(evt,'in')"/>
  <use id="zoomminus" xlink:href="#zoomMin" x="42" y="9" onmousedown="handleZoom(evt,'out')"/>
  <use id="reset" xlink:href="#resetDef" x="30" y="36" onmousedown="handleReset()"/>
   <use id="arrowup" xlink:href="#arrowUp" x="0" y="0" onmousedown="handlePan(0,-1)"/>
  <use id="arrowright" xlink:href="#arrowRight" x="0" y="0" onmousedown="handlePan(1,0)"/>
  <use id="arrowdown" xlink:href="#arrowDown" x="0" y="0" onmousedown="handlePan(0,1)"/>
  <use id="arrowleft" xlink:href="#arrowLeft" x="0" y="0" onmousedown="handlePan(-1,0)"/>
</g>
<svg viewBox="0 0 15 15" width="100%" height="30px" preserveAspectRatio="xMaxYMin meet">
 <g id="arrow_out" transform="scale(0.3 0.3)">
  <a xlink:href="namespacelamina_aeb0f885705caf1e05230c85abbe59724_icgraph_org.svg" target="_base">
   <rect id="button" ry="5" rx="5" y="6" x="6" height="38" width="38"
        fill="#f2f5e9" fill-opacity="0.5" stroke="#606060" stroke-width="1.0"/>
   <path id="arrow"
     d="M 11.500037,31.436501 C 11.940474,20.09759 22.043105,11.32322 32.158766,21.979434 L 37.068811,17.246167 C 37.068811,17.246167 37.088388,32 37.088388,32 L 22.160133,31.978069 C 22.160133,31.978069 26.997745,27.140456 26.997745,27.140456 C 18.528582,18.264221 13.291696,25.230495 11.500037,31.436501 z"
     style="fill:#404040;"/>
  </a>
 </g>
</svg>

<style type='text/css'>
<![CDATA[
[data-mouse-over-selected='false'] { opacity: 0.7; }
[data-mouse-over-selected='true']  { opacity: 1.0; }
]]>
</style>
<script type="application/ecmascript"><![CDATA[
document.addEventListener('DOMContentLoaded', (event) => {
  highlightEdges();
  highlightAdjacentNodes();
});
]]></script>
</svg>
