<?xml version="1.0" encoding="UTF-8" standalone="no"?>
<!DOCTYPE svg PUBLIC "-//W3C//DTD SVG 1.1//EN"
 "http://www.w3.org/Graphics/SVG/1.1/DTD/svg11.dtd">
<!-- Generated by graphviz version 2.43.0 (0)
 -->
<!-- Title: lamina::zc_lll_pruned_combine Pages: 1 -->
<!--zoomable 888 -->

<svg id="main" version="1.1" xmlns="http://www.w3.org/2000/svg" xmlns:xlink="http://www.w3.org/1999/xlink" xml:space="preserve">

<style type="text/css"><![CDATA[
.node, .edge {opacity: 0.7;}
.node.selected, .edge.selected {opacity: 1;}
.edge:hover path { stroke: red; }
.edge:hover polygon { stroke: red; fill: red; }
]]></style>

<defs>
  <circle id="rim" cx="0" cy="0" r="7"/>
  <circle id="rim2" cx="0" cy="0" r="3.5"/>
  <g id="zoomPlus">
    <use xlink:href="#rim" fill="#404040"><set attributeName="fill" to="#808080" begin="zoomplus.mouseover" end="zoomplus.mouseout"/></use>
    <path d="M-4,0h8M0,-4v8" fill="none" stroke="white" stroke-width="1.5" pointer-events="none"/>
  </g>
  <g id="zoomMin">
    <use xlink:href="#rim" fill="#404040"><set attributeName="fill" to="#808080" begin="zoomminus.mouseover" end="zoomminus.mouseout"/></use>
    <path d="M-4,0h8" fill="none" stroke="white" stroke-width="1.5" pointer-events="none"/>
  </g>
  <g id="arrowUp" transform="translate(30 24)">
    <use xlink:href="#rim"/>
    <path pointer-events="none" fill="none" stroke="white" stroke-width="1.5" d="M0,-3.0v7 M-2.5,-0.5L0,-3.0L2.5,-0.5"/>
  </g>
  <g id="arrowRight" transform="rotate(90) translate(36 -43)">
    <use xlink:href="#rim"/>
    <path pointer-events="none" fill="none" stroke="white" stroke-width="1.5" d="M0,-3.0v7 M-2.5,-0.5L0,-3.0L2.5,-0.5"/>
  </g>
  <g id="arrowDown" transform="rotate(180) translate(-30 -48)">
    <use xlink:href="#rim"/>
    <path pointer-events="none" fill="none" stroke="white" stroke-width="1.5" d="M0,-3.0v7 M-2.5,-0.5L0,-3.0L2.5,-0.5"/>
  </g>
  <g id="arrowLeft" transform="rotate(270) translate(-36 17)">
    <use xlink:href="#rim"/>
    <path pointer-events="none" fill="none" stroke="white" stroke-width="1.5" d="M0,-3.0v7 M-2.5,-0.5L0,-3.0L2.5,-0.5"/>
  </g>
  <g id="resetDef">
    <use xlink:href="#rim2" fill="#404040"><set attributeName="fill" to="#808080" begin="reset.mouseover" end="reset.mouseout"/></use>
  </g>
</defs>
<script type="application/ecmascript" xlink:href="../../svg.min.js"/>
<svg id="graph" class="graph" data-view-width="977" data-view-height="888" data-section-id="dynsection-1428">
<g id="viewport">
<title>lamina::zc_lll_pruned_combine</title>
<!-- Node1 -->
<g id="Node000001" class="node">
<title>Node1</title>
<g id="a_Node000001"><a xlink:title="基于度数和范数剪枝的因子组合（用于因子数 &gt; 15 的情形）。">
<polygon fill="#999999" stroke="#666666" points="120,-309.5 0,-309.5 0,-279.5 120,-279.5 120,-309.5"/>
<text text-anchor="start" x="8" y="-297.5" font-family="Helvetica,sans-Serif" font-size="10.00">lamina::zc_lll_pruned</text>
<text text-anchor="middle" x="60" y="-286.5" font-family="Helvetica,sans-Serif" font-size="10.00">_combine</text>
</a>
</g>
</g>
<!-- Node1&#45;&gt;Node1 -->
<g id="edge23_Node000001_Node000001" class="edge">
<title>Node1&#45;&gt;Node1</title>
<g id="a_edge23_Node000001_Node000001"><a xlink:title=" ">
<path fill="none" stroke="#63b8ff" d="M30.12,-309.78C23.48,-318.91 33.44,-327.5 60,-327.5 75.77,-327.5 85.69,-324.47 89.76,-320.1"/>
<polygon fill="#63b8ff" stroke="#63b8ff" points="93.26,-319.82 89.88,-309.78 86.26,-319.73 93.26,-319.82"/>
</a>
</g>
</g>
<!-- Node2 -->
<g id="Node000002" class="node">
<title>Node2</title>
<g id="a_Node000002"><a xlink:href="../../da/d5b/classBigInt.html#af677021c0987fc2a48da06837ed29c58" target="_top" xlink:title="默认构造，值为 0">
<polygon fill="white" stroke="#666666" points="969,-559 889,-559 889,-540 969,-540 969,-559"/>
<text text-anchor="middle" x="929" y="-547" font-family="Helvetica,sans-Serif" font-size="10.00">BigInt::BigInt</text>
</a>
</g>
</g>
<!-- Node1&#45;&gt;Node2 -->
<g id="edge1_Node000001_Node000002" class="edge">
<title>Node1&#45;&gt;Node2</title>
<g id="a_edge1_Node000001_Node000002"><a xlink:title=" ">
<path fill="none" stroke="#63b8ff" d="M81.52,-309.55C100.13,-322.56 128.74,-341.04 156,-352.5 264.61,-398.16 295.18,-417.5 413,-417.5 413,-417.5 413,-417.5 608.5,-417.5 717.49,-417.5 759.02,-381.29 853,-436.5 889.04,-457.68 911.17,-503.83 921.34,-530.13"/>
<polygon fill="#63b8ff" stroke="#63b8ff" points="918.14,-531.57 924.87,-539.75 924.71,-529.16 918.14,-531.57"/>
</a>
</g>
</g>
<!-- Node3 -->
<g id="Node000003" class="node">
<title>Node3</title>
<g id="a_Node000003"><a xlink:href="../../d8/d1e/classlamina_1_1Polynomial.html#aa4209c719c18fc882b702d88e397bdf4" target="_top" xlink:title="获取多项式的次数">
<polygon fill="white" stroke="#666666" points="663,-312.5 552,-312.5 552,-282.5 663,-282.5 663,-312.5"/>
<text text-anchor="start" x="560" y="-300.5" font-family="Helvetica,sans-Serif" font-size="10.00">lamina::Polynomial</text>
<text text-anchor="middle" x="607.5" y="-289.5" font-family="Helvetica,sans-Serif" font-size="10.00">::degree</text>
</a>
</g>
</g>
<!-- Node1&#45;&gt;Node3 -->
<g id="edge2_Node000001_Node000003" class="edge">
<title>Node1&#45;&gt;Node3</title>
<g id="a_edge2_Node000001_Node000003"><a xlink:title=" ">
<path fill="none" stroke="#63b8ff" d="M120.16,-294.83C223.19,-295.39 434.77,-296.56 541.66,-297.14"/>
<polygon fill="#63b8ff" stroke="#63b8ff" points="541.96,-300.65 551.98,-297.2 542,-293.65 541.96,-300.65"/>
</a>
</g>
</g>
<!-- Node4 -->
<g id="Node000004" class="node">
<title>Node4</title>
<g id="a_Node000004"><a xlink:href="../../d8/d1e/classlamina_1_1Polynomial.html#aa814387a30feaf66a7487b1f9aac3354" target="_top" xlink:title="多项式带余除法">
<polygon fill="white" stroke="#666666" points="469.5,-247.5 358.5,-247.5 358.5,-217.5 469.5,-217.5 469.5,-247.5"/>
<text text-anchor="start" x="366.5" y="-235.5" font-family="Helvetica,sans-Serif" font-size="10.00">lamina::Polynomial</text>
<text text-anchor="middle" x="414" y="-224.5" font-family="Helvetica,sans-Serif" font-size="10.00">::div_mod</text>
</a>
</g>
</g>
<!-- Node1&#45;&gt;Node4 -->
<g id="edge3_Node000001_Node000004" class="edge">
<title>Node1&#45;&gt;Node4</title>
<g id="a_edge3_Node000001_Node000004"><a xlink:title=" ">
<path fill="none" stroke="#63b8ff" d="M120.35,-286.34C169.87,-279.28 242.23,-268.35 305,-256.5 319.19,-253.82 334.35,-250.65 348.7,-247.5"/>
<polygon fill="#63b8ff" stroke="#63b8ff" points="349.47,-250.91 358.48,-245.33 347.95,-244.08 349.47,-250.91"/>
</a>
</g>
</g>
<!-- Node6 -->
<g id="Node000006" class="node">
<title>Node6</title>
<g id="a_Node000006"><a xlink:href="../../d8/d1e/classlamina_1_1Polynomial.html#a5ab9f08024d7084b47a746f72ba9f850" target="_top" xlink:title="判断是否为零多项式">
<polygon fill="white" stroke="#666666" points="663,-119.5 552,-119.5 552,-89.5 663,-89.5 663,-119.5"/>
<text text-anchor="start" x="560" y="-107.5" font-family="Helvetica,sans-Serif" font-size="10.00">lamina::Polynomial</text>
<text text-anchor="middle" x="607.5" y="-96.5" font-family="Helvetica,sans-Serif" font-size="10.00">::is_zero</text>
</a>
</g>
</g>
<!-- Node1&#45;&gt;Node6 -->
<g id="edge9_Node000001_Node000006" class="edge">
<title>Node1&#45;&gt;Node6</title>
<g id="a_edge9_Node000001_Node000006"><a xlink:title=" ">
<path fill="none" stroke="#63b8ff" d="M62.89,-279.3C68.62,-240.55 89.69,-138.23 156,-96.5 280.27,-18.29 464.52,-59.08 553.96,-86.4"/>
<polygon fill="#63b8ff" stroke="#63b8ff" points="553.03,-89.78 563.62,-89.41 555.11,-83.09 553.03,-89.78"/>
</a>
</g>
</g>
<!-- Node9 -->
<g id="Node000009" class="node">
<title>Node9</title>
<g id="a_Node000009"><a xlink:href="../../d8/d1e/classlamina_1_1Polynomial.html#aea846ecf48739ada13d438905d8cdca9" target="_top" xlink:title="首一化（使首项系数为 1）">
<polygon fill="white" stroke="#666666" points="469.5,-161.5 358.5,-161.5 358.5,-131.5 469.5,-131.5 469.5,-161.5"/>
<text text-anchor="start" x="366.5" y="-149.5" font-family="Helvetica,sans-Serif" font-size="10.00">lamina::Polynomial</text>
<text text-anchor="middle" x="414" y="-138.5" font-family="Helvetica,sans-Serif" font-size="10.00">::make_monic</text>
</a>
</g>
</g>
<!-- Node1&#45;&gt;Node9 -->
<g id="edge10_Node000001_Node000009" class="edge">
<title>Node1&#45;&gt;Node9</title>
<g id="a_edge10_Node000001_Node000009"><a xlink:title=" ">
<path fill="none" stroke="#63b8ff" d="M70.19,-279.19C85.06,-255.88 116.73,-211.96 156,-190.5 188.29,-172.86 283.19,-159.88 348.17,-152.76"/>
<polygon fill="#63b8ff" stroke="#63b8ff" points="348.77,-156.21 358.33,-151.66 348.02,-149.25 348.77,-156.21"/>
</a>
</g>
</g>
<!-- Node10 -->
<g id="Node000010" class="node">
<title>Node10</title>
<g id="a_Node000010"><a xlink:href="../../d1/d42/namespacelamina.html#a19cdd114b697093c81aaa491fb949c72" target="_top" xlink:title="检验候选因子是否整除原多项式（精确有理除法）。">
<polygon fill="white" stroke="#666666" points="284,-229.5 177,-229.5 177,-199.5 284,-199.5 284,-229.5"/>
<text text-anchor="start" x="185" y="-217.5" font-family="Helvetica,sans-Serif" font-size="10.00">lamina::zc_divides</text>
<text text-anchor="middle" x="230.5" y="-206.5" font-family="Helvetica,sans-Serif" font-size="10.00">_exactly</text>
</a>
</g>
</g>
<!-- Node1&#45;&gt;Node10 -->
<g id="edge14_Node000001_Node000010" class="edge">
<title>Node1&#45;&gt;Node10</title>
<g id="a_edge14_Node000001_Node000010"><a xlink:title=" ">
<path fill="none" stroke="#63b8ff" d="M92.69,-279.45C119.79,-266.59 158.96,-247.99 188.46,-233.99"/>
<polygon fill="#63b8ff" stroke="#63b8ff" points="190.13,-237.07 197.66,-229.62 187.13,-230.74 190.13,-237.07"/>
</a>
</g>
</g>
<!-- Node11 -->
<g id="Node000011" class="node">
<title>Node11</title>
<g id="a_Node000011"><a xlink:href="../../d1/d42/namespacelamina.html#a8255fe03c4117e864299ab904d77c7c0" target="_top" xlink:title="计算多项式系数的 L1 范数（系数绝对值之和）。">
<polygon fill="white" stroke="#666666" points="286.5,-465 174.5,-465 174.5,-446 286.5,-446 286.5,-465"/>
<text text-anchor="middle" x="230.5" y="-453" font-family="Helvetica,sans-Serif" font-size="10.00">lamina::zc_l1_norm</text>
</a>
</g>
</g>
<!-- Node1&#45;&gt;Node11 -->
<g id="edge19_Node000001_Node000011" class="edge">
<title>Node1&#45;&gt;Node11</title>
<g id="a_edge19_Node000001_Node000011"><a xlink:title=" ">
<path fill="none" stroke="#63b8ff" d="M67.49,-309.68C80.28,-337.84 111.43,-398.31 156,-431.5 161.77,-435.8 168.35,-439.35 175.15,-442.28"/>
<polygon fill="#63b8ff" stroke="#63b8ff" points="173.9,-445.55 184.49,-445.9 176.43,-439.02 173.9,-445.55"/>
</a>
</g>
</g>
<!-- Node13 -->
<g id="Node000013" class="node">
<title>Node13</title>
<g id="a_Node000013"><a xlink:href="../../d1/d42/namespacelamina.html#a6cf7fbfaa4eee4432e63f5e4a93135a2" target="_top" xlink:title="使候选多项式首一化（首项系数归一）。">
<polygon fill="white" stroke="#666666" points="305,-125 156,-125 156,-106 305,-106 305,-125"/>
<text text-anchor="middle" x="230.5" y="-113" font-family="Helvetica,sans-Serif" font-size="10.00">lamina::zc_make_primitive</text>
</a>
</g>
</g>
<!-- Node1&#45;&gt;Node13 -->
<g id="edge24_Node000001_Node000013" class="edge">
<title>Node1&#45;&gt;Node13</title>
<g id="a_edge24_Node000001_Node000013"><a xlink:title=" ">
<path fill="none" stroke="#63b8ff" d="M68.6,-279.29C82.77,-252.12 115.46,-194.65 156,-157.5 168.24,-146.29 183.98,-136.79 197.76,-129.68"/>
<polygon fill="#63b8ff" stroke="#63b8ff" points="199.5,-132.72 206.91,-125.15 196.4,-126.45 199.5,-132.72"/>
</a>
</g>
</g>
<!-- Node14 -->
<g id="Node000014" class="node">
<title>Node14</title>
<g id="a_Node000014"><a xlink:href="../../d1/d42/namespacelamina.html#af0d12550d1e0a64fa5431e57effa694a" target="_top" xlink:title="计算 Mignotte 界：用于判断候选因子系数的合理范围。">
<polygon fill="white" stroke="#666666" points="472,-371.5 356,-371.5 356,-341.5 472,-341.5 472,-371.5"/>
<text text-anchor="start" x="364" y="-359.5" font-family="Helvetica,sans-Serif" font-size="10.00">lamina::zc_mignotte</text>
<text text-anchor="middle" x="414" y="-348.5" font-family="Helvetica,sans-Serif" font-size="10.00">_bound</text>
</a>
</g>
</g>
<!-- Node1&#45;&gt;Node14 -->
<g id="edge28_Node000001_Node000014" class="edge">
<title>Node1&#45;&gt;Node14</title>
<g id="a_edge28_Node000001_Node000014"><a xlink:title=" ">
<path fill="none" stroke="#63b8ff" d="M98.35,-309.63C115.63,-316.07 136.59,-323.09 156,-327.5 219.52,-341.93 293.59,-349.32 345.84,-353.01"/>
<polygon fill="#63b8ff" stroke="#63b8ff" points="345.78,-356.51 355.99,-353.7 346.25,-349.53 345.78,-356.51"/>
</a>
</g>
</g>
<!-- Node15 -->
<g id="Node000015" class="node">
<title>Node15</title>
<g id="a_Node000015"><a xlink:href="../../d1/d42/namespacelamina.html#a4746c14feb42706dd812b91e066cecde" target="_top" xlink:title=" ">
<polygon fill="white" stroke="#666666" points="289,-19 172,-19 172,0 289,0 289,-19"/>
<text text-anchor="middle" x="230.5" y="-7" font-family="Helvetica,sans-Serif" font-size="10.00">lamina::zc_popcount</text>
</a>
</g>
</g>
<!-- Node1&#45;&gt;Node15 -->
<g id="edge33_Node000001_Node000015" class="edge">
<title>Node1&#45;&gt;Node15</title>
<g id="a_edge33_Node000001_Node000015"><a xlink:title=" ">
<path fill="none" stroke="#63b8ff" d="M63.32,-279.3C70.31,-238.11 94.58,-122.65 156,-51.5 166.38,-39.48 181.09,-30.12 194.63,-23.32"/>
<polygon fill="#63b8ff" stroke="#63b8ff" points="196.2,-26.45 203.75,-19.02 193.21,-20.12 196.2,-26.45"/>
</a>
</g>
</g>
<!-- Node16 -->
<g id="Node000016" class="node">
<title>Node16</title>
<g id="a_Node000016"><a xlink:href="../../d1/d42/namespacelamina.html#a1f75786db091387798e2f47ee15efe73" target="_top" xlink:title="对子集乘积的所有系数执行有理重构，构造有理系数多项式。">
<polygon fill="white" stroke="#666666" points="294,-620.5 167,-620.5 167,-590.5 294,-590.5 294,-620.5"/>
<text text-anchor="start" x="175" y="-608.5" font-family="Helvetica,sans-Serif" font-size="10.00">lamina::zc_reconstruct</text>
<text text-anchor="middle" x="230.5" y="-597.5" font-family="Helvetica,sans-Serif" font-size="10.00">_candidate</text>
</a>
</g>
</g>
<!-- Node1&#45;&gt;Node16 -->
<g id="edge35_Node000001_Node000016" class="edge">
<title>Node1&#45;&gt;Node16</title>
<g id="a_edge35_Node000001_Node000016"><a xlink:title=" ">
<path fill="none" stroke="#63b8ff" d="M67.54,-309.65C82.14,-343.11 119.05,-425.59 156,-491.5 174.1,-523.78 197.67,-559.38 213.18,-582.07"/>
<polygon fill="#63b8ff" stroke="#63b8ff" points="210.35,-584.13 218.9,-590.38 216.11,-580.16 210.35,-584.13"/>
</a>
</g>
</g>
<!-- Node28 -->
<g id="Node000028" class="node">
<title>Node28</title>
<g id="a_Node000028"><a xlink:href="../../d1/d42/namespacelamina.html#a61fdae41ee39cbe3c2030ea78268212e" target="_top" xlink:title="计算一组 Hensel 提升因子的乘积，系数模 prime_power 归约。">
<polygon fill="white" stroke="#666666" points="487,-822 341,-822 341,-803 487,-803 487,-822"/>
<text text-anchor="middle" x="414" y="-810" font-family="Helvetica,sans-Serif" font-size="10.00">lamina::zc_subset_product</text>
</a>
</g>
</g>
<!-- Node1&#45;&gt;Node28 -->
<g id="edge60_Node000001_Node000028" class="edge">
<title>Node1&#45;&gt;Node28</title>
<g id="a_edge60_Node000001_Node000028"><a xlink:title=" ">
<path fill="none" stroke="#63b8ff" d="M61.31,-309.56C63.08,-361.62 75.07,-536.85 156,-647.5 213.43,-726.03 320.56,-776.75 376.64,-799.18"/>
<polygon fill="#63b8ff" stroke="#63b8ff" points="375.58,-802.53 386.17,-802.92 378.14,-796.01 375.58,-802.53"/>
</a>
</g>
</g>
<!-- Node4&#45;&gt;Node3 -->
<g id="edge5_Node000004_Node000003" class="edge">
<title>Node4&#45;&gt;Node3</title>
<g id="a_edge5_Node000004_Node000003"><a xlink:title=" ">
<path fill="none" stroke="#63b8ff" d="M453.78,-247.54C474.25,-255.31 499.87,-264.76 523,-272.5 529.91,-274.81 537.17,-277.14 544.4,-279.39"/>
<polygon fill="#63b8ff" stroke="#63b8ff" points="543.64,-282.81 554.22,-282.41 545.69,-276.12 543.64,-282.81"/>
</a>
</g>
</g>
<!-- Node5 -->
<g id="Node000005" class="node">
<title>Node5</title>
<g id="a_Node000005"><a xlink:href="../../d8/d1e/classlamina_1_1Polynomial.html#af5f51ffdafe194782f5adfa3dfcb5506" target="_top" xlink:title="构造零多项式">
<polygon fill="white" stroke="#666666" points="663,-167.5 552,-167.5 552,-137.5 663,-137.5 663,-167.5"/>
<text text-anchor="start" x="560" y="-155.5" font-family="Helvetica,sans-Serif" font-size="10.00">lamina::Polynomial</text>
<text text-anchor="middle" x="607.5" y="-144.5" font-family="Helvetica,sans-Serif" font-size="10.00">::Polynomial</text>
</a>
</g>
</g>
<!-- Node4&#45;&gt;Node5 -->
<g id="edge4_Node000004_Node000005" class="edge">
<title>Node4&#45;&gt;Node5</title>
<g id="a_edge4_Node000004_Node000005"><a xlink:title=" ">
<path fill="none" stroke="#63b8ff" d="M457.74,-217.42C467.58,-213.37 477.84,-208.66 487,-203.5 504.42,-193.68 505.09,-185.41 523,-176.5 529.08,-173.48 535.6,-170.77 542.22,-168.37"/>
<polygon fill="#63b8ff" stroke="#63b8ff" points="543.61,-171.6 551.96,-165.07 541.37,-164.97 543.61,-171.6"/>
</a>
</g>
</g>
<!-- Node4&#45;&gt;Node6 -->
<g id="edge6_Node000004_Node000006" class="edge">
<title>Node4&#45;&gt;Node6</title>
<g id="a_edge6_Node000004_Node000006"><a xlink:title=" ">
<path fill="none" stroke="#63b8ff" d="M466.24,-217.44C473.78,-213.71 481,-209.12 487,-203.5 513.98,-178.21 494.76,-152.36 523,-128.5 528.7,-123.68 535.32,-119.83 542.29,-116.75"/>
<polygon fill="#63b8ff" stroke="#63b8ff" points="543.89,-119.88 551.96,-113.01 541.37,-113.35 543.89,-119.88"/>
</a>
</g>
</g>
<!-- Node7 -->
<g id="Node000007" class="node">
<title>Node7</title>
<g id="a_Node000007"><a xlink:href="../../d8/d1e/classlamina_1_1Polynomial.html#ae491492c9a43d1dee5f86b4adf803cfa" target="_top" xlink:title="获取首项系数">
<polygon fill="white" stroke="#666666" points="663,-215.5 552,-215.5 552,-185.5 663,-185.5 663,-215.5"/>
<text text-anchor="start" x="560" y="-203.5" font-family="Helvetica,sans-Serif" font-size="10.00">lamina::Polynomial</text>
<text text-anchor="middle" x="607.5" y="-192.5" font-family="Helvetica,sans-Serif" font-size="10.00">::lead_coeff</text>
</a>
</g>
</g>
<!-- Node4&#45;&gt;Node7 -->
<g id="edge7_Node000004_Node000007" class="edge">
<title>Node4&#45;&gt;Node7</title>
<g id="a_edge7_Node000004_Node000007"><a xlink:title=" ">
<path fill="none" stroke="#63b8ff" d="M469.62,-223.37C492.16,-219.61 518.45,-215.21 541.93,-211.29"/>
<polygon fill="#63b8ff" stroke="#63b8ff" points="542.52,-214.74 551.81,-209.64 541.37,-207.84 542.52,-214.74"/>
</a>
</g>
</g>
<!-- Node8 -->
<g id="Node000008" class="node">
<title>Node8</title>
<g id="a_Node000008"><a xlink:href="../../d8/d1e/classlamina_1_1Polynomial.html#aa1bfcf8f305d62777bcfbebda559d87e" target="_top" xlink:title="去除高次零系数">
<polygon fill="white" stroke="#666666" points="663,-263.5 552,-263.5 552,-233.5 663,-233.5 663,-263.5"/>
<text text-anchor="start" x="560" y="-251.5" font-family="Helvetica,sans-Serif" font-size="10.00">lamina::Polynomial</text>
<text text-anchor="middle" x="607.5" y="-240.5" font-family="Helvetica,sans-Serif" font-size="10.00">::trim</text>
</a>
</g>
</g>
<!-- Node4&#45;&gt;Node8 -->
<g id="edge8_Node000004_Node000008" class="edge">
<title>Node4&#45;&gt;Node8</title>
<g id="a_edge8_Node000004_Node000008"><a xlink:title=" ">
<path fill="none" stroke="#63b8ff" d="M469.62,-237.06C492.06,-238.94 518.22,-241.12 541.62,-243.08"/>
<polygon fill="#63b8ff" stroke="#63b8ff" points="541.55,-246.59 551.81,-243.93 542.13,-239.61 541.55,-246.59"/>
</a>
</g>
</g>
<!-- Node9&#45;&gt;Node5 -->
<g id="edge11_Node000009_Node000005" class="edge">
<title>Node9&#45;&gt;Node5</title>
<g id="a_edge11_Node000009_Node000005"><a xlink:title=" ">
<path fill="none" stroke="#63b8ff" d="M469.62,-148.21C492.06,-148.91 518.22,-149.73 541.62,-150.47"/>
<polygon fill="#63b8ff" stroke="#63b8ff" points="541.7,-153.97 551.81,-150.79 541.92,-146.97 541.7,-153.97"/>
</a>
</g>
</g>
<!-- Node9&#45;&gt;Node6 -->
<g id="edge12_Node000009_Node000006" class="edge">
<title>Node9&#45;&gt;Node6</title>
<g id="a_edge12_Node000009_Node000006"><a xlink:title=" ">
<path fill="none" stroke="#63b8ff" d="M469.62,-134.52C492.16,-129.58 518.45,-123.81 541.93,-118.66"/>
<polygon fill="#63b8ff" stroke="#63b8ff" points="542.79,-122.06 551.81,-116.5 541.29,-115.22 542.79,-122.06"/>
</a>
</g>
</g>
<!-- Node9&#45;&gt;Node7 -->
<g id="edge13_Node000009_Node000007" class="edge">
<title>Node9&#45;&gt;Node7</title>
<g id="a_edge13_Node000009_Node000007"><a xlink:title=" ">
<path fill="none" stroke="#63b8ff" d="M468.34,-161.54C491.59,-168.1 519.02,-175.83 543.28,-182.67"/>
<polygon fill="#63b8ff" stroke="#63b8ff" points="542.54,-186.1 553.11,-185.45 544.44,-179.36 542.54,-186.1"/>
</a>
</g>
</g>
<!-- Node10&#45;&gt;Node3 -->
<g id="edge15_Node000010_Node000003" class="edge">
<title>Node10&#45;&gt;Node3</title>
<g id="a_edge15_Node000010_Node000003"><a xlink:title=" ">
<path fill="none" stroke="#63b8ff" d="M265.4,-229.66C286.72,-238.65 315.03,-249.6 341,-256.5 408.33,-274.39 487.48,-285.36 541.73,-291.4"/>
<polygon fill="#63b8ff" stroke="#63b8ff" points="541.58,-294.9 551.9,-292.5 542.34,-287.94 541.58,-294.9"/>
</a>
</g>
</g>
<!-- Node10&#45;&gt;Node4 -->
<g id="edge16_Node000010_Node000004" class="edge">
<title>Node10&#45;&gt;Node4</title>
<g id="a_edge16_Node000010_Node000004"><a xlink:title=" ">
<path fill="none" stroke="#63b8ff" d="M284.49,-219.75C304.45,-221.73 327.38,-224.01 348.29,-226.08"/>
<polygon fill="#63b8ff" stroke="#63b8ff" points="348.08,-229.58 358.37,-227.08 348.77,-222.61 348.08,-229.58"/>
</a>
</g>
</g>
<!-- Node10&#45;&gt;Node6 -->
<g id="edge17_Node000010_Node000006" class="edge">
<title>Node10&#45;&gt;Node6</title>
<g id="a_edge17_Node000010_Node000006"><a xlink:title=" ">
<path fill="none" stroke="#63b8ff" d="M284.26,-209.66C348.67,-203.02 453.19,-189.69 487,-170.5 508.38,-158.36 502.32,-141.79 523,-128.5 529.02,-124.63 535.68,-121.37 542.53,-118.63"/>
<polygon fill="#63b8ff" stroke="#63b8ff" points="543.74,-121.91 551.94,-115.2 541.35,-115.34 543.74,-121.91"/>
</a>
</g>
</g>
<!-- Node10&#45;&gt;Node10 -->
<g id="edge18_Node000010_Node000010" class="edge">
<title>Node10&#45;&gt;Node10</title>
<g id="a_edge18_Node000010_Node000010"><a xlink:title=" ">
<path fill="none" stroke="#63b8ff" d="M200.62,-229.78C193.98,-238.91 203.94,-247.5 230.5,-247.5 246.27,-247.5 256.19,-244.47 260.26,-240.1"/>
<polygon fill="#63b8ff" stroke="#63b8ff" points="263.76,-239.82 260.38,-229.78 256.76,-239.73 263.76,-239.82"/>
</a>
</g>
</g>
<!-- Node11&#45;&gt;Node11 -->
<g id="edge22_Node000011_Node000011" class="edge">
<title>Node11&#45;&gt;Node11</title>
<g id="a_edge22_Node000011_Node000011"><a xlink:title=" ">
<path fill="none" stroke="#63b8ff" d="M204.3,-465.08C191.55,-473.73 200.29,-483 230.5,-483 250.8,-483 261.4,-478.82 262.31,-473.45"/>
<polygon fill="#63b8ff" stroke="#63b8ff" points="265.18,-471.44 256.7,-465.08 259.36,-475.34 265.18,-471.44"/>
</a>
</g>
</g>
<!-- Node12 -->
<g id="Node000012" class="node">
<title>Node12</title>
<g id="a_Node000012"><a xlink:href="../../da/d5b/classBigInt.html#a4bff1a207fd14cd96badb54d0a470c1a" target="_top" xlink:title="取绝对值">
<polygon fill="white" stroke="#666666" points="825,-465 756,-465 756,-446 825,-446 825,-465"/>
<text text-anchor="middle" x="790.5" y="-453" font-family="Helvetica,sans-Serif" font-size="10.00">BigInt::Abs</text>
</a>
</g>
</g>
<!-- Node11&#45;&gt;Node12 -->
<g id="edge20_Node000011_Node000012" class="edge">
<title>Node11&#45;&gt;Node12</title>
<g id="a_edge20_Node000011_Node000012"><a xlink:title=" ">
<path fill="none" stroke="#63b8ff" d="M286.53,-455.5C397.27,-455.5 645.01,-455.5 745.69,-455.5"/>
<polygon fill="#63b8ff" stroke="#63b8ff" points="745.82,-459 755.82,-455.5 745.82,-452 745.82,-459"/>
</a>
</g>
</g>
<!-- Node12&#45;&gt;Node2 -->
<g id="edge21_Node000012_Node000002" class="edge">
<title>Node12&#45;&gt;Node2</title>
<g id="a_edge21_Node000012_Node000002"><a xlink:title=" ">
<path fill="none" stroke="#63b8ff" d="M822.63,-465.04C832.71,-468.8 843.69,-473.64 853,-479.5 876.15,-494.06 898.51,-516.34 912.71,-531.84"/>
<polygon fill="#63b8ff" stroke="#63b8ff" points="910.42,-534.54 919.7,-539.66 915.64,-529.87 910.42,-534.54"/>
</a>
</g>
</g>
<!-- Node13&#45;&gt;Node6 -->
<g id="edge25_Node000013_Node000006" class="edge">
<title>Node13&#45;&gt;Node6</title>
<g id="a_edge25_Node000013_Node000006"><a xlink:title=" ">
<path fill="none" stroke="#63b8ff" d="M305.14,-113.34C373.98,-111.32 475.77,-108.33 541.63,-106.4"/>
<polygon fill="#63b8ff" stroke="#63b8ff" points="541.98,-109.89 551.87,-106.1 541.78,-102.9 541.98,-109.89"/>
</a>
</g>
</g>
<!-- Node13&#45;&gt;Node9 -->
<g id="edge26_Node000013_Node000009" class="edge">
<title>Node13&#45;&gt;Node9</title>
<g id="a_edge26_Node000013_Node000009"><a xlink:title=" ">
<path fill="none" stroke="#63b8ff" d="M287.44,-125.05C306.77,-128.36 328.59,-132.08 348.56,-135.49"/>
<polygon fill="#63b8ff" stroke="#63b8ff" points="348.05,-138.96 358.49,-137.19 349.23,-132.06 348.05,-138.96"/>
</a>
</g>
</g>
<!-- Node13&#45;&gt;Node13 -->
<g id="edge27_Node000013_Node000013" class="edge">
<title>Node13&#45;&gt;Node13</title>
<g id="a_edge27_Node000013_Node000013"><a xlink:title=" ">
<path fill="none" stroke="#63b8ff" d="M204.3,-125.08C191.55,-133.73 200.29,-143 230.5,-143 250.8,-143 261.4,-138.82 262.31,-133.45"/>
<polygon fill="#63b8ff" stroke="#63b8ff" points="265.18,-131.44 256.7,-125.08 259.36,-135.34 265.18,-131.44"/>
</a>
</g>
</g>
<!-- Node14&#45;&gt;Node2 -->
<g id="edge29_Node000014_Node000002" class="edge">
<title>Node14&#45;&gt;Node2</title>
<g id="a_edge29_Node000014_Node000002"><a xlink:title=" ">
<path fill="none" stroke="#63b8ff" d="M472.14,-346.35C561.98,-333.68 737.9,-322.54 853,-403.5 896.37,-434 916.31,-497.29 923.98,-529.59"/>
<polygon fill="#63b8ff" stroke="#63b8ff" points="920.62,-530.61 926.19,-539.62 927.45,-529.1 920.62,-530.61"/>
</a>
</g>
</g>
<!-- Node14&#45;&gt;Node3 -->
<g id="edge31_Node000014_Node000003" class="edge">
<title>Node14&#45;&gt;Node3</title>
<g id="a_edge31_Node000014_Node000003"><a xlink:title=" ">
<path fill="none" stroke="#63b8ff" d="M463.82,-341.46C489.48,-333.55 521.11,-323.81 548.07,-315.5"/>
<polygon fill="#63b8ff" stroke="#63b8ff" points="549.24,-318.8 557.77,-312.51 547.18,-312.11 549.24,-318.8"/>
</a>
</g>
</g>
<!-- Node14&#45;&gt;Node12 -->
<g id="edge30_Node000014_Node000012" class="edge">
<title>Node14&#45;&gt;Node12</title>
<g id="a_edge30_Node000014_Node000012"><a xlink:title=" ">
<path fill="none" stroke="#63b8ff" d="M471.88,-371.54C547.01,-391.4 677.71,-425.95 745.66,-443.91"/>
<polygon fill="#63b8ff" stroke="#63b8ff" points="745.05,-447.37 755.61,-446.54 746.84,-440.6 745.05,-447.37"/>
</a>
</g>
</g>
<!-- Node14&#45;&gt;Node14 -->
<g id="edge32_Node000014_Node000014" class="edge">
<title>Node14&#45;&gt;Node14</title>
<g id="a_edge32_Node000014_Node000014"><a xlink:title=" ">
<path fill="none" stroke="#63b8ff" d="M382.01,-371.78C374.9,-380.91 385.56,-389.5 414,-389.5 430.88,-389.5 441.5,-386.47 445.86,-382.1"/>
<polygon fill="#63b8ff" stroke="#63b8ff" points="449.36,-381.82 445.99,-371.78 442.36,-381.73 449.36,-381.82"/>
</a>
</g>
</g>
<!-- Node15&#45;&gt;Node15 -->
<g id="edge34_Node000015_Node000015" class="edge">
<title>Node15&#45;&gt;Node15</title>
<g id="a_edge34_Node000015_Node000015"><a xlink:title=" ">
<path fill="none" stroke="#63b8ff" d="M204.3,-19.08C191.55,-27.73 200.29,-37 230.5,-37 250.8,-37 261.4,-32.82 262.31,-27.45"/>
<polygon fill="#63b8ff" stroke="#63b8ff" points="265.18,-25.44 256.7,-19.08 259.36,-29.34 265.18,-25.44"/>
</a>
</g>
</g>
<!-- Node16&#45;&gt;Node16 -->
<g id="edge59_Node000016_Node000016" class="edge">
<title>Node16&#45;&gt;Node16</title>
<g id="a_edge59_Node000016_Node000016"><a xlink:title=" ">
<path fill="none" stroke="#63b8ff" d="M200.62,-620.78C193.98,-629.91 203.94,-638.5 230.5,-638.5 246.27,-638.5 256.19,-635.47 260.26,-631.1"/>
<polygon fill="#63b8ff" stroke="#63b8ff" points="263.76,-630.82 260.38,-620.78 256.76,-630.73 263.76,-630.82"/>
</a>
</g>
</g>
<!-- Node17 -->
<g id="Node000017" class="node">
<title>Node17</title>
<g id="a_Node000017"><a xlink:href="../../d1/d42/namespacelamina.html#a29606e58d48536173de820d3f78b48cd" target="_top" xlink:title="将 BigInt 系数向量转换为有理系数多项式。">
<polygon fill="white" stroke="#666666" points="471.5,-686.5 356.5,-686.5 356.5,-656.5 471.5,-656.5 471.5,-686.5"/>
<text text-anchor="start" x="364.5" y="-674.5" font-family="Helvetica,sans-Serif" font-size="10.00">lamina::zc_bigint_to</text>
<text text-anchor="middle" x="414" y="-663.5" font-family="Helvetica,sans-Serif" font-size="10.00">_rational_poly</text>
</a>
</g>
</g>
<!-- Node16&#45;&gt;Node17 -->
<g id="edge36_Node000016_Node000017" class="edge">
<title>Node16&#45;&gt;Node17</title>
<g id="a_edge36_Node000016_Node000017"><a xlink:title=" ">
<path fill="none" stroke="#63b8ff" d="M269.6,-620.59C290.58,-628.78 317.14,-638.95 341,-647.5 346.19,-649.36 351.62,-651.26 357.05,-653.12"/>
<polygon fill="#63b8ff" stroke="#63b8ff" points="356.21,-656.53 366.8,-656.44 358.46,-649.91 356.21,-656.53"/>
</a>
</g>
</g>
<!-- Node18 -->
<g id="Node000018" class="node">
<title>Node18</title>
<g id="a_Node000018"><a xlink:href="../../d1/d42/namespacelamina.html#a44391f56684e08feda3c752c23e0ac50" target="_top" xlink:title="对 BigInt 系数执行有理数重构。">
<polygon fill="white" stroke="#666666" points="469,-620.5 359,-620.5 359,-590.5 469,-590.5 469,-620.5"/>
<text text-anchor="start" x="367" y="-608.5" font-family="Helvetica,sans-Serif" font-size="10.00">lamina::zc_rational</text>
<text text-anchor="middle" x="414" y="-597.5" font-family="Helvetica,sans-Serif" font-size="10.00">_reconstruction</text>
</a>
</g>
</g>
<!-- Node16&#45;&gt;Node18 -->
<g id="edge38_Node000016_Node000018" class="edge">
<title>Node16&#45;&gt;Node18</title>
<g id="a_edge38_Node000016_Node000018"><a xlink:title=" ">
<path fill="none" stroke="#63b8ff" d="M294.22,-605.5C311.78,-605.5 330.89,-605.5 348.54,-605.5"/>
<polygon fill="#63b8ff" stroke="#63b8ff" points="348.75,-609 358.75,-605.5 348.75,-602 348.75,-609"/>
</a>
</g>
</g>
<!-- Node17&#45;&gt;Node17 -->
<g id="edge37_Node000017_Node000017" class="edge">
<title>Node17&#45;&gt;Node17</title>
<g id="a_edge37_Node000017_Node000017"><a xlink:title=" ">
<path fill="none" stroke="#63b8ff" d="M382.01,-686.78C374.9,-695.91 385.56,-704.5 414,-704.5 430.88,-704.5 441.5,-701.47 445.86,-697.1"/>
<polygon fill="#63b8ff" stroke="#63b8ff" points="449.36,-696.82 445.99,-686.78 442.36,-696.73 449.36,-696.82"/>
</a>
</g>
</g>
<!-- Node18&#45;&gt;Node2 -->
<g id="edge39_Node000018_Node000002" class="edge">
<title>Node18&#45;&gt;Node2</title>
<g id="a_edge39_Node000018_Node000002"><a xlink:title=" ">
<path fill="none" stroke="#63b8ff" d="M454.59,-620.57C474.84,-627.9 500.01,-636.41 523,-642.5 534.21,-645.47 716.46,-680.41 728,-681.5 783.31,-686.71 804.98,-709.44 853,-681.5 895,-657.06 915.4,-599.36 923.53,-568.98"/>
<polygon fill="#63b8ff" stroke="#63b8ff" points="926.96,-569.69 925.99,-559.14 920.17,-567.99 926.96,-569.69"/>
</a>
</g>
</g>
<!-- Node18&#45;&gt;Node12 -->
<g id="edge40_Node000018_Node000012" class="edge">
<title>Node18&#45;&gt;Node12</title>
<g id="a_edge40_Node000018_Node000012"><a xlink:title=" ">
<path fill="none" stroke="#63b8ff" d="M427.98,-590.31C446.75,-569.4 483.55,-532.09 523,-512.5 561.72,-493.28 680.94,-472.46 746.01,-462.11"/>
<polygon fill="#63b8ff" stroke="#63b8ff" points="746.64,-465.56 755.97,-460.54 745.55,-458.64 746.64,-465.56"/>
</a>
</g>
</g>
<!-- Node18&#45;&gt;Node18 -->
<g id="edge58_Node000018_Node000018" class="edge">
<title>Node18&#45;&gt;Node18</title>
<g id="a_edge58_Node000018_Node000018"><a xlink:title=" ">
<path fill="none" stroke="#63b8ff" d="M382.01,-620.78C374.9,-629.91 385.56,-638.5 414,-638.5 430.88,-638.5 441.5,-635.47 445.86,-631.1"/>
<polygon fill="#63b8ff" stroke="#63b8ff" points="449.36,-630.82 445.99,-620.78 442.36,-630.73 449.36,-630.82"/>
</a>
</g>
</g>
<!-- Node19 -->
<g id="Node000019" class="node">
<title>Node19</title>
<g id="a_Node000019"><a xlink:href="../../da/d5b/classBigInt.html#a8e148e10d0118be16f4072d34379dc70" target="_top" xlink:title="计算最大公约数">
<polygon fill="white" stroke="#666666" points="641.5,-541 573.5,-541 573.5,-522 641.5,-522 641.5,-541"/>
<text text-anchor="middle" x="607.5" y="-529" font-family="Helvetica,sans-Serif" font-size="10.00">BigInt::gcd</text>
</a>
</g>
</g>
<!-- Node18&#45;&gt;Node19 -->
<g id="edge41_Node000018_Node000019" class="edge">
<title>Node18&#45;&gt;Node19</title>
<g id="a_edge41_Node000018_Node000019"><a xlink:title=" ">
<path fill="none" stroke="#63b8ff" d="M439.46,-590.41C460.81,-577.84 492.99,-560.3 523,-549.5 535.9,-544.86 550.37,-541.22 563.59,-538.47"/>
<polygon fill="#63b8ff" stroke="#63b8ff" points="564.28,-541.9 573.42,-536.54 562.93,-535.03 564.28,-541.9"/>
</a>
</g>
</g>
<!-- Node20 -->
<g id="Node000020" class="node">
<title>Node20</title>
<g id="a_Node000020"><a xlink:href="../../da/d5b/classBigInt.html#a6ae37e804e0989cb245f32f90a2d5f64" target="_top" xlink:title="判断是否为零">
<polygon fill="white" stroke="#666666" points="833.5,-748 747.5,-748 747.5,-729 833.5,-729 833.5,-748"/>
<text text-anchor="middle" x="790.5" y="-736" font-family="Helvetica,sans-Serif" font-size="10.00">BigInt::is_zero</text>
</a>
</g>
</g>
<!-- Node18&#45;&gt;Node20 -->
<g id="edge47_Node000018_Node000020" class="edge">
<title>Node18&#45;&gt;Node20</title>
<g id="a_edge47_Node000018_Node000020"><a xlink:title=" ">
<path fill="none" stroke="#63b8ff" d="M442.88,-620.62C456.45,-628.26 472.85,-637.93 487,-647.5 503.79,-658.85 504.72,-666.75 523,-675.5 560.52,-693.47 671.3,-716.31 737.63,-728.97"/>
<polygon fill="#63b8ff" stroke="#63b8ff" points="737,-732.41 747.48,-730.84 738.3,-725.53 737,-732.41"/>
</a>
</g>
</g>
<!-- Node23 -->
<g id="Node000023" class="node">
<title>Node23</title>
<g id="a_Node000023"><a xlink:href="../../da/d5b/classBigInt.html#ae5d874ccb625319e093bec91b29e5a24" target="_top" xlink:title="判断是否为负数">
<polygon fill="white" stroke="#666666" points="842.5,-785 738.5,-785 738.5,-766 842.5,-766 842.5,-785"/>
<text text-anchor="middle" x="790.5" y="-773" font-family="Helvetica,sans-Serif" font-size="10.00">BigInt::IsNegative</text>
</a>
</g>
</g>
<!-- Node18&#45;&gt;Node23 -->
<g id="edge48_Node000018_Node000023" class="edge">
<title>Node18&#45;&gt;Node23</title>
<g id="a_edge48_Node000018_Node000023"><a xlink:title=" ">
<path fill="none" stroke="#63b8ff" d="M449.11,-620.6C462.04,-627.49 476.24,-636.57 487,-647.5 509.9,-670.76 496.96,-691.83 523,-711.5 539.57,-724.02 657.43,-749.22 730.75,-763.99"/>
<polygon fill="#63b8ff" stroke="#63b8ff" points="730.3,-767.46 740.79,-766 731.67,-760.6 730.3,-767.46"/>
</a>
</g>
</g>
<!-- Node24 -->
<g id="Node000024" class="node">
<title>Node24</title>
<g id="a_Node000024"><a xlink:href="../../d1/d42/namespacelamina.html#a54784b347ccb712f1fe145359f959553" target="_top" xlink:title="有理数重构：从模像 x mod m 恢复有理数 a/b">
<polygon fill="white" stroke="#666666" points="692,-615 523,-615 523,-596 692,-596 692,-615"/>
<text text-anchor="middle" x="607.5" y="-603" font-family="Helvetica,sans-Serif" font-size="10.00">lamina::rational_reconstruction</text>
</a>
</g>
</g>
<!-- Node18&#45;&gt;Node24 -->
<g id="edge49_Node000018_Node000024" class="edge">
<title>Node18&#45;&gt;Node24</title>
<g id="a_edge49_Node000018_Node000024"><a xlink:title=" ">
<path fill="none" stroke="#63b8ff" d="M469.11,-605.5C482.68,-605.5 497.63,-605.5 512.53,-605.5"/>
<polygon fill="#63b8ff" stroke="#63b8ff" points="512.82,-609 522.82,-605.5 512.82,-602 512.82,-609"/>
</a>
</g>
</g>
<!-- Node26 -->
<g id="Node000026" class="node">
<title>Node26</title>
<g id="a_Node000026"><a xlink:href="../../da/d5b/classBigInt.html#a912850d3f7c9487ebf100b004135c959" target="_top" xlink:title="整数平方根（向下取整）">
<polygon fill="white" stroke="#666666" points="642.5,-578 572.5,-578 572.5,-559 642.5,-559 642.5,-578"/>
<text text-anchor="middle" x="607.5" y="-566" font-family="Helvetica,sans-Serif" font-size="10.00">BigInt::sqrt</text>
</a>
</g>
</g>
<!-- Node18&#45;&gt;Node26 -->
<g id="edge53_Node000018_Node000026" class="edge">
<title>Node18&#45;&gt;Node26</title>
<g id="a_edge53_Node000018_Node000026"><a xlink:title=" ">
<path fill="none" stroke="#63b8ff" d="M469.11,-595.05C498.66,-589.34 534.78,-582.36 562.57,-576.99"/>
<polygon fill="#63b8ff" stroke="#63b8ff" points="563.25,-580.42 572.41,-575.09 561.92,-573.55 563.25,-580.42"/>
</a>
</g>
</g>
<!-- Node27 -->
<g id="Node000027" class="node">
<title>Node27</title>
<g id="a_Node000027"><a xlink:href="../../da/d5b/classBigInt.html#a71c3a0ed05f779b84bbeea36636c1d17" target="_top" xlink:title="精确转换为 int64_t；超出范围时返回空。">
<polygon fill="white" stroke="#666666" points="662.5,-785 552.5,-785 552.5,-766 662.5,-766 662.5,-785"/>
<text text-anchor="middle" x="607.5" y="-773" font-family="Helvetica,sans-Serif" font-size="10.00">BigInt::try_to_int64</text>
</a>
</g>
</g>
<!-- Node18&#45;&gt;Node27 -->
<g id="edge57_Node000018_Node000027" class="edge">
<title>Node18&#45;&gt;Node27</title>
<g id="a_edge57_Node000018_Node000027"><a xlink:title=" ">
<path fill="none" stroke="#63b8ff" d="M452.01,-620.63C464.55,-627.29 477.72,-636.21 487,-647.5 518.06,-685.29 487.5,-717.85 523,-751.5 528.7,-756.9 535.53,-761.1 542.79,-764.35"/>
<polygon fill="#63b8ff" stroke="#63b8ff" points="541.59,-767.64 552.18,-768 544.13,-761.12 541.59,-767.64"/>
</a>
</g>
</g>
<!-- Node19&#45;&gt;Node2 -->
<g id="edge42_Node000019_Node000002" class="edge">
<title>Node19&#45;&gt;Node2</title>
<g id="a_edge42_Node000019_Node000002"><a xlink:title=" ">
<path fill="none" stroke="#63b8ff" d="M641.81,-522.58C689.32,-511.29 778.99,-495.24 853,-512.5 871.44,-516.8 890.56,-526.32 904.88,-534.63"/>
<polygon fill="#63b8ff" stroke="#63b8ff" points="903.17,-537.69 913.54,-539.85 906.78,-531.69 903.17,-537.69"/>
</a>
</g>
</g>
<!-- Node19&#45;&gt;Node12 -->
<g id="edge43_Node000019_Node000012" class="edge">
<title>Node19&#45;&gt;Node12</title>
<g id="a_edge43_Node000019_Node000012"><a xlink:title=" ">
<path fill="none" stroke="#63b8ff" d="M641.71,-525.03C657.48,-521.2 676.27,-515.5 692,-507.5 710.07,-498.31 710.37,-489.51 728,-479.5 735.01,-475.52 742.8,-471.92 750.43,-468.78"/>
<polygon fill="#63b8ff" stroke="#63b8ff" points="751.88,-471.97 759.92,-465.07 749.34,-465.45 751.88,-471.97"/>
</a>
</g>
</g>
<!-- Node19&#45;&gt;Node20 -->
<g id="edge44_Node000019_Node000020" class="edge">
<title>Node19&#45;&gt;Node20</title>
<g id="a_edge44_Node000019_Node000020"><a xlink:title=" ">
<path fill="none" stroke="#63b8ff" d="M641.56,-530.83C658.64,-532.23 678.65,-536.85 692,-549.5 736.14,-591.32 696.49,-629.49 728,-681.5 737.9,-697.84 753.82,-712.41 766.98,-722.73"/>
<polygon fill="#63b8ff" stroke="#63b8ff" points="765.04,-725.65 775.13,-728.87 769.25,-720.06 765.04,-725.65"/>
</a>
</g>
</g>
<!-- Node21 -->
<g id="Node000021" class="node">
<title>Node21</title>
<g id="a_Node000021"><a xlink:href="../../da/d5b/classBigInt.html#a3b10bb8ac846314c6e4ad6167e5ec5bf" target="_top" xlink:title=" ">
<polygon fill="white" stroke="#666666" points="840.5,-578 740.5,-578 740.5,-559 840.5,-559 840.5,-578"/>
<text text-anchor="middle" x="790.5" y="-566" font-family="Helvetica,sans-Serif" font-size="10.00">BigInt::normalize</text>
</a>
</g>
</g>
<!-- Node19&#45;&gt;Node21 -->
<g id="edge45_Node000019_Node000021" class="edge">
<title>Node19&#45;&gt;Node21</title>
<g id="a_edge45_Node000019_Node000021"><a xlink:title=" ">
<path fill="none" stroke="#63b8ff" d="M641.7,-538.29C667.19,-543.5 702.98,-550.81 732.96,-556.94"/>
<polygon fill="#63b8ff" stroke="#63b8ff" points="732.38,-560.4 742.88,-558.97 733.78,-553.54 732.38,-560.4"/>
</a>
</g>
</g>
<!-- Node22 -->
<g id="Node000022" class="node">
<title>Node22</title>
<g id="a_Node000022"><a xlink:href="../../da/d5b/classBigInt.html#ad0b220e3ad54190c7cc069355f8d134d" target="_top" xlink:title=" ">
<polygon fill="white" stroke="#666666" points="840,-541 741,-541 741,-522 840,-522 840,-541"/>
<text text-anchor="middle" x="790.5" y="-529" font-family="Helvetica,sans-Serif" font-size="10.00">BigInt::realloc_to</text>
</a>
</g>
</g>
<!-- Node19&#45;&gt;Node22 -->
<g id="edge46_Node000019_Node000022" class="edge">
<title>Node19&#45;&gt;Node22</title>
<g id="a_edge46_Node000019_Node000022"><a xlink:title=" ">
<path fill="none" stroke="#63b8ff" d="M641.7,-531.5C666.53,-531.5 701.14,-531.5 730.63,-531.5"/>
<polygon fill="#63b8ff" stroke="#63b8ff" points="730.82,-535 740.82,-531.5 730.82,-528 730.82,-535"/>
</a>
</g>
</g>
<!-- Node24&#45;&gt;Node24 -->
<g id="edge52_Node000024_Node000024" class="edge">
<title>Node24&#45;&gt;Node24</title>
<g id="a_edge52_Node000024_Node000024"><a xlink:title=" ">
<path fill="none" stroke="#63b8ff" d="M579.45,-615.08C565.8,-623.73 575.15,-633 607.5,-633 629.74,-633 641.11,-628.62 641.61,-623.07"/>
<polygon fill="#63b8ff" stroke="#63b8ff" points="644.38,-620.94 635.55,-615.08 638.8,-625.17 644.38,-620.94"/>
</a>
</g>
</g>
<!-- Node25 -->
<g id="Node000025" class="node">
<title>Node25</title>
<g id="a_Node000025"><a xlink:href="../../d1/d42/namespacelamina.html#ada901697c17bf20f4554fb1b7bd2bb74" target="_top" xlink:title="扩展欧几里得算法，求 gcd(a, b) 及 Bezout 系数">
<polygon fill="white" stroke="#666666" points="853,-654 728,-654 728,-635 853,-635 853,-654"/>
<text text-anchor="middle" x="790.5" y="-642" font-family="Helvetica,sans-Serif" font-size="10.00">lamina::extended_gcd</text>
</a>
</g>
</g>
<!-- Node24&#45;&gt;Node25 -->
<g id="edge50_Node000024_Node000025" class="edge">
<title>Node24&#45;&gt;Node25</title>
<g id="a_edge50_Node000024_Node000025"><a xlink:title=" ">
<path fill="none" stroke="#63b8ff" d="M652.78,-615.04C677.74,-620.42 709.12,-627.18 735.52,-632.87"/>
<polygon fill="#63b8ff" stroke="#63b8ff" points="734.85,-636.31 745.37,-634.99 736.33,-629.46 734.85,-636.31"/>
</a>
</g>
</g>
<!-- Node25&#45;&gt;Node25 -->
<g id="edge51_Node000025_Node000025" class="edge">
<title>Node25&#45;&gt;Node25</title>
<g id="a_edge51_Node000025_Node000025"><a xlink:title=" ">
<path fill="none" stroke="#63b8ff" d="M769.23,-654.08C758.88,-662.73 765.97,-672 790.5,-672 806.21,-672 814.77,-668.2 816.17,-663.19"/>
<polygon fill="#63b8ff" stroke="#63b8ff" points="819.27,-661.56 811.77,-654.08 812.97,-664.61 819.27,-661.56"/>
</a>
</g>
</g>
<!-- Node26&#45;&gt;Node2 -->
<g id="edge54_Node000026_Node000002" class="edge">
<title>Node26&#45;&gt;Node2</title>
<g id="a_edge54_Node000026_Node000002"><a xlink:title=" ">
<path fill="none" stroke="#63b8ff" d="M642.6,-575.02C666.42,-579.24 699.02,-584.33 728,-586.5 783.4,-590.65 798.9,-599.12 853,-586.5 871.44,-582.2 890.56,-572.68 904.88,-564.37"/>
<polygon fill="#63b8ff" stroke="#63b8ff" points="906.78,-567.31 913.54,-559.15 903.17,-561.31 906.78,-567.31"/>
</a>
</g>
</g>
<!-- Node26&#45;&gt;Node21 -->
<g id="edge55_Node000026_Node000021" class="edge">
<title>Node26&#45;&gt;Node21</title>
<g id="a_edge55_Node000026_Node000021"><a xlink:title=" ">
<path fill="none" stroke="#63b8ff" d="M642.54,-568.5C667.19,-568.5 701.13,-568.5 730.18,-568.5"/>
<polygon fill="#63b8ff" stroke="#63b8ff" points="730.23,-572 740.23,-568.5 730.23,-565 730.23,-572"/>
</a>
</g>
</g>
<!-- Node26&#45;&gt;Node22 -->
<g id="edge56_Node000026_Node000022" class="edge">
<title>Node26&#45;&gt;Node22</title>
<g id="a_edge56_Node000026_Node000022"><a xlink:title=" ">
<path fill="none" stroke="#63b8ff" d="M642.54,-561.54C668.03,-556.33 703.46,-549.09 733.15,-543.02"/>
<polygon fill="#63b8ff" stroke="#63b8ff" points="733.87,-546.44 742.97,-541.01 732.47,-539.59 733.87,-546.44"/>
</a>
</g>
</g>
<!-- Node28&#45;&gt;Node2 -->
<g id="edge61_Node000028_Node000002" class="edge">
<title>Node28&#45;&gt;Node2</title>
<g id="a_edge61_Node000028_Node000002"><a xlink:title=" ">
<path fill="none" stroke="#63b8ff" d="M436.68,-822.17C507.01,-851.91 731.33,-933.67 853,-825.5 892.06,-790.78 917.59,-626.55 925.44,-569.27"/>
<polygon fill="#63b8ff" stroke="#63b8ff" points="928.95,-569.4 926.8,-559.03 922.01,-568.48 928.95,-569.4"/>
</a>
</g>
</g>
<!-- Node28&#45;&gt;Node28 -->
<g id="edge62_Node000028_Node000028" class="edge">
<title>Node28&#45;&gt;Node28</title>
<g id="a_edge62_Node000028_Node000028"><a xlink:title=" ">
<path fill="none" stroke="#63b8ff" d="M385.95,-822.08C372.3,-830.73 381.65,-840 414,-840 436.24,-840 447.61,-835.62 448.11,-830.07"/>
<polygon fill="#63b8ff" stroke="#63b8ff" points="450.88,-827.94 442.05,-822.08 445.3,-832.17 450.88,-827.94"/>
</a>
</g>
</g>
<!-- Node29 -->
<g id="Node000029" class="node">
<title>Node29</title>
<g id="a_Node000029"><a xlink:href="../../d1/d42/namespacelamina.html#abc022ebc46e7532c6ccacf08a09911de" target="_top" xlink:title="将 BigInt 系数归约到对称表示 [&#45;m/2, m/2)。">
<polygon fill="white" stroke="#666666" points="683.5,-822 531.5,-822 531.5,-803 683.5,-803 683.5,-822"/>
<text text-anchor="middle" x="607.5" y="-810" font-family="Helvetica,sans-Serif" font-size="10.00">lamina::zc_symmetric_mod</text>
</a>
</g>
</g>
<!-- Node28&#45;&gt;Node29 -->
<g id="edge63_Node000028_Node000029" class="edge">
<title>Node28&#45;&gt;Node29</title>
<g id="a_edge63_Node000028_Node000029"><a xlink:title=" ">
<path fill="none" stroke="#63b8ff" d="M487.13,-812.5C498.16,-812.5 509.65,-812.5 520.95,-812.5"/>
<polygon fill="#63b8ff" stroke="#63b8ff" points="521.25,-816 531.25,-812.5 521.25,-809 521.25,-816"/>
</a>
</g>
</g>
<!-- Node29&#45;&gt;Node2 -->
<g id="edge64_Node000029_Node000002" class="edge">
<title>Node29&#45;&gt;Node2</title>
<g id="a_edge64_Node000029_Node000002"><a xlink:title=" ">
<path fill="none" stroke="#63b8ff" d="M648.05,-822.02C700.84,-832.21 794.45,-841.23 853,-794.5 923.66,-738.1 929.4,-616.83 928.76,-569.24"/>
<polygon fill="#63b8ff" stroke="#63b8ff" points="932.25,-568.96 928.51,-559.05 925.26,-569.13 932.25,-568.96"/>
</a>
</g>
</g>
<!-- Node29&#45;&gt;Node20 -->
<g id="edge65_Node000029_Node000020" class="edge">
<title>Node29&#45;&gt;Node20</title>
<g id="a_edge65_Node000029_Node000020"><a xlink:title=" ">
<path fill="none" stroke="#63b8ff" d="M671.96,-802.99C678.95,-800.74 685.77,-797.95 692,-794.5 712.07,-783.39 708.43,-769.48 728,-757.5 731.39,-755.43 735.02,-753.56 738.76,-751.89"/>
<polygon fill="#63b8ff" stroke="#63b8ff" points="740.24,-755.07 748.23,-748.11 737.64,-748.57 740.24,-755.07"/>
</a>
</g>
</g>
<!-- Node29&#45;&gt;Node23 -->
<g id="edge66_Node000029_Node000023" class="edge">
<title>Node29&#45;&gt;Node23</title>
<g id="a_edge66_Node000029_Node000023"><a xlink:title=" ">
<path fill="none" stroke="#63b8ff" d="M655.11,-802.97C678.77,-798.14 707.71,-792.22 732.67,-787.12"/>
<polygon fill="#63b8ff" stroke="#63b8ff" points="733.64,-790.49 742.73,-785.06 732.23,-783.63 733.64,-790.49"/>
</a>
</g>
</g>
<!-- Node29&#45;&gt;Node29 -->
<g id="edge67_Node000029_Node000029" class="edge">
<title>Node29&#45;&gt;Node29</title>
<g id="a_edge67_Node000029_Node000029"><a xlink:title=" ">
<path fill="none" stroke="#63b8ff" d="M579.45,-822.08C565.8,-830.73 575.15,-840 607.5,-840 629.74,-840 641.11,-835.62 641.61,-830.07"/>
<polygon fill="#63b8ff" stroke="#63b8ff" points="644.38,-827.94 635.55,-822.08 638.8,-832.17 644.38,-827.94"/>
</a>
</g>
</g>
</g>
</svg>

<g id="navigator" transform="translate(0 0)" fill="#404254">
  <rect fill="#f2f5e9" fill-opacity="0.5" stroke="#606060" stroke-width=".5" x="0" y="0" width="60" height="60"/>
  <use id="zoomplus" xlink:href="#zoomPlus" x="17" y="9" data-zoom="in"/>
  <use id="zoomminus" xlink:href="#zoomMin" x="42" y="9" data-zoom="out"/>
  <use id="reset" xlink:href="#resetDef" x="30" y="36" data-reset="true"/>
  <use id="arrowup" xlink:href="#arrowUp" x="0" y="0" data-pan-x="0" data-pan-y="-1"/>
  <use id="arrowright" xlink:href="#arrowRight" x="0" y="0" data-pan-x="1" data-pan-y="0"/>
  <use id="arrowdown" xlink:href="#arrowDown" x="0" y="0" data-pan-x="0" data-pan-y="1"/>
  <use id="arrowleft" xlink:href="#arrowLeft" x="0" y="0" data-pan-x="-1" data-pan-y="0"/>
</g>
<svg viewBox="0 0 15 15" width="100%" height="30px" preserveAspectRatio="xMaxYMin meet">
 <g id="arrow_out" transform="scale(0.3 0.3)">
  <a xlink:href="namespacelamina_a6c42d1f7a39be5c63b8c3d020afc1977_cgraph_org.svg" target="_base">
   <rect id="button" ry="5" rx="5" y="6" x="6" height="38" width="38"
        fill="#f2f5e9" fill-opacity="0.5" stroke="#606060" stroke-width="1.0"/>
   <path id="arrow"
     d="M 11.500037,31.436501 C 11.940474,20.09759 22.043105,11.32322 32.158766,21.979434 L 37.068811,17.246167 C 37.068811,17.246167 37.088388,32 37.088388,32 L 22.160133,31.978069 C 22.160133,31.978069 26.997745,27.140456 26.997745,27.140456 C 18.528582,18.264221 13.291696,25.230495 11.500037,31.436501 z"
     style="fill:#404040;"/>
  </a>
 </g>
</svg>

<style type='text/css'>
<![CDATA[
[data-mouse-over-selected='false'] { opacity: 0.7; }
[data-mouse-over-selected='true']  { opacity: 1.0; }
]]>
</style>
</svg>
