<?xml version="1.0" encoding="UTF-8" standalone="no"?>
<!DOCTYPE svg PUBLIC "-//W3C//DTD SVG 1.1//EN"
 "http://www.w3.org/Graphics/SVG/1.1/DTD/svg11.dtd">
<!-- Generated by graphviz version 2.43.0 (0)
 -->
<!-- Title: lamina::solve_transcendental Pages: 1 -->
<svg width="1476pt" height="450pt"
 viewBox="0.00 0.00 1476.00 450.25" xmlns="http://www.w3.org/2000/svg" xmlns:xlink="http://www.w3.org/1999/xlink">
<g id="graph0" class="graph" transform="scale(1 1) rotate(0) translate(4 446.25)">
<title>lamina::solve_transcendental</title>
<!-- Node1 -->
<g id="Node000001" class="node">
<title>Node1</title>
<g id="a_Node000001"><a xlink:title="求解超越方程（三角、指数、对数类型）。">
<polygon fill="#999999" stroke="#666666" points="1468,-37.75 1307,-37.75 1307,-18.75 1468,-18.75 1468,-37.75"/>
<text text-anchor="middle" x="1387.5" y="-25.75" font-family="Helvetica,sans-Serif" font-size="10.00">lamina::solve_transcendental</text>
</a>
</g>
</g>
<!-- Node2 -->
<g id="Node000002" class="node">
<title>Node2</title>
<g id="a_Node000002"><a xlink:href="../../d1/d42/namespacelamina.html#a06e924d67656611208ba81ad13fbee8d" target="_top" xlink:title="方程求解策略调度器，根据表达式类型选择合适的求解方法。">
<polygon fill="white" stroke="#666666" points="1271,-118.75 1142,-118.75 1142,-99.75 1271,-99.75 1271,-118.75"/>
<text text-anchor="middle" x="1206.5" y="-106.75" font-family="Helvetica,sans-Serif" font-size="10.00">lamina::solve_dispatch</text>
</a>
</g>
</g>
<!-- Node1&#45;&gt;Node2 -->
<g id="edge1_Node000001_Node000002" class="edge">
<title>Node1&#45;&gt;Node2</title>
<g id="a_edge1_Node000001_Node000002"><a xlink:title=" ">
<path fill="none" stroke="#63b8ff" d="M1356.15,-41.99C1319.93,-58.37 1260.32,-85.35 1228.71,-99.66"/>
<polygon fill="#63b8ff" stroke="#63b8ff" points="1357.6,-45.17 1365.26,-37.86 1354.71,-38.8 1357.6,-45.17"/>
</a>
</g>
</g>
<!-- Node3 -->
<g id="Node000003" class="node">
<title>Node3</title>
<g id="a_Node000003"><a xlink:href="../../dc/d25/classSymbolicExpr.html#a8e2b693429c55311a664ed0306bc9b2e" target="_top" xlink:title="求解方程，返回指定变量的所有解。">
<polygon fill="white" stroke="#666666" points="1106,-180.75 990,-180.75 990,-161.75 1106,-161.75 1106,-180.75"/>
<text text-anchor="middle" x="1048" y="-168.75" font-family="Helvetica,sans-Serif" font-size="10.00">SymbolicExpr::solve</text>
</a>
</g>
</g>
<!-- Node2&#45;&gt;Node3 -->
<g id="edge2_Node000002_Node000003" class="edge">
<title>Node2&#45;&gt;Node3</title>
<g id="a_edge2_Node000002_Node000003"><a xlink:title=" ">
<path fill="none" stroke="#63b8ff" d="M1171.85,-122.58C1142.15,-134.35 1099.57,-151.22 1073.14,-161.69"/>
<polygon fill="#63b8ff" stroke="#63b8ff" points="1173.38,-125.74 1181.39,-118.8 1170.8,-119.23 1173.38,-125.74"/>
</a>
</g>
</g>
<!-- Node4 -->
<g id="Node000004" class="node">
<title>Node4</title>
<g id="a_Node000004"><a xlink:href="../../dc/d25/classSymbolicExpr.html#a83879d764986be80edbedc769b96224a" target="_top" xlink:title="计算矩阵的特征值。">
<polygon fill="white" stroke="#666666" points="337,-283.75 188,-283.75 188,-264.75 337,-264.75 337,-283.75"/>
<text text-anchor="middle" x="262.5" y="-271.75" font-family="Helvetica,sans-Serif" font-size="10.00">SymbolicExpr::eigenvalues</text>
</a>
</g>
</g>
<!-- Node3&#45;&gt;Node4 -->
<g id="edge3_Node000003_Node000004" class="edge">
<title>Node3&#45;&gt;Node4</title>
<g id="a_edge3_Node000003_Node000004"><a xlink:title=" ">
<path fill="none" stroke="#63b8ff" d="M1026.96,-186.91C1008.78,-200.48 980.8,-219.83 954,-232.25 868.64,-271.81 844.11,-278.78 751,-292.25 584.73,-316.31 540.44,-305.92 373,-292.25 352.55,-290.58 330.16,-287.19 310.99,-283.79"/>
<polygon fill="#63b8ff" stroke="#63b8ff" points="1029.2,-189.6 1035.05,-180.77 1024.96,-184.03 1029.2,-189.6"/>
</a>
</g>
</g>
<!-- Node6 -->
<g id="Node000006" class="node">
<title>Node6</title>
<g id="a_Node000006"><a xlink:href="../../dc/d25/classSymbolicExpr.html#a884244959506063b172228ad99ab0730" target="_top" xlink:title="对表达式进行因式分解。">
<polygon fill="white" stroke="#666666" points="929.5,-223.75 811.5,-223.75 811.5,-204.75 929.5,-204.75 929.5,-223.75"/>
<text text-anchor="middle" x="870.5" y="-211.75" font-family="Helvetica,sans-Serif" font-size="10.00">SymbolicExpr::factor</text>
</a>
</g>
</g>
<!-- Node3&#45;&gt;Node6 -->
<g id="edge5_Node000003_Node000006" class="edge">
<title>Node3&#45;&gt;Node6</title>
<g id="a_edge5_Node000003_Node000006"><a xlink:title=" ">
<path fill="none" stroke="#63b8ff" d="M998.16,-183.22C970.44,-190.01 936.22,-198.4 910.34,-204.74"/>
<polygon fill="#63b8ff" stroke="#63b8ff" points="999.17,-186.58 1008.05,-180.8 997.51,-179.78 999.17,-186.58"/>
</a>
</g>
</g>
<!-- Node14 -->
<g id="Node000014" class="node">
<title>Node14</title>
<g id="a_Node000014"><a xlink:href="../../d1/d42/namespacelamina.html#a334f8d9c2923abbed11b2e4729c2b057" target="_top" xlink:title=" ">
<polygon fill="white" stroke="#666666" points="950,-104.75 791,-104.75 791,-85.75 950,-85.75 950,-104.75"/>
<text text-anchor="middle" x="870.5" y="-92.75" font-family="Helvetica,sans-Serif" font-size="10.00">lamina::invert_substitution_h</text>
</a>
</g>
</g>
<!-- Node3&#45;&gt;Node14 -->
<g id="edge15_Node000003_Node000014" class="edge">
<title>Node3&#45;&gt;Node14</title>
<g id="a_edge15_Node000003_Node000014"><a xlink:title=" ">
<path fill="none" stroke="#63b8ff" d="M1023.83,-156.34C1005.45,-145.01 978.82,-129.64 954,-119.25 940.38,-113.55 924.95,-108.67 911.16,-104.83"/>
<polygon fill="#63b8ff" stroke="#63b8ff" points="1022.05,-159.36 1032.39,-161.7 1025.77,-153.43 1022.05,-159.36"/>
</a>
</g>
</g>
<!-- Node15 -->
<g id="Node000015" class="node">
<title>Node15</title>
<g id="a_Node000015"><a xlink:href="../../d1/d42/namespacelamina.html#a12ae4dd3753dfea8b5e9d84b3c748855" target="_top" xlink:title=" ">
<polygon fill="white" stroke="#666666" points="751,-104.75 563,-104.75 563,-85.75 751,-85.75 751,-104.75"/>
<text text-anchor="middle" x="657" y="-92.75" font-family="Helvetica,sans-Serif" font-size="10.00">lamina::solve_transcendental_impl</text>
</a>
</g>
</g>
<!-- Node3&#45;&gt;Node15 -->
<g id="edge26_Node000003_Node000015" class="edge">
<title>Node3&#45;&gt;Node15</title>
<g id="a_edge26_Node000003_Node000015"><a xlink:title=" ">
<path fill="none" stroke="#63b8ff" d="M988.12,-159.75C911.26,-144.73 778.13,-118.72 706.67,-104.76"/>
<polygon fill="#63b8ff" stroke="#63b8ff" points="987.64,-163.22 998.13,-161.7 988.98,-156.35 987.64,-163.22"/>
</a>
</g>
</g>
<!-- Node16 -->
<g id="Node000016" class="node">
<title>Node16</title>
<g id="a_Node000016"><a xlink:href="../../d1/d42/namespacelamina.html#a704f26202e00de52ae9b961bc527a9ff" target="_top" xlink:title=" ">
<polygon fill="white" stroke="#666666" points="506.5,-110.25 393.5,-110.25 393.5,-80.25 506.5,-80.25 506.5,-110.25"/>
<text text-anchor="start" x="401.5" y="-98.25" font-family="Helvetica,sans-Serif" font-size="10.00">lamina::solve_inner</text>
<text text-anchor="middle" x="450" y="-87.25" font-family="Helvetica,sans-Serif" font-size="10.00">_equation</text>
</a>
</g>
</g>
<!-- Node3&#45;&gt;Node16 -->
<g id="edge20_Node000003_Node000016" class="edge">
<title>Node3&#45;&gt;Node16</title>
<g id="a_edge20_Node000003_Node000016"><a xlink:title=" ">
<path fill="none" stroke="#63b8ff" d="M979.58,-168.09C926.99,-165.19 852.19,-160.15 787,-152.25 687.73,-140.23 573.1,-119.24 506.65,-106.36"/>
<polygon fill="#63b8ff" stroke="#63b8ff" points="979.61,-171.6 989.79,-168.64 979.99,-164.61 979.61,-171.6"/>
</a>
</g>
</g>
<!-- Node17 -->
<g id="Node000017" class="node">
<title>Node17</title>
<g id="a_Node000017"><a xlink:href="../../d6/da9/classlamina_1_1ParametricSolver.html#a41d42755b42e64784e9bc7c7f6f5715f" target="_top" xlink:title="求解关于未知数为多项式的含参方程组">
<polygon fill="white" stroke="#666666" points="954,-418.25 787,-418.25 787,-388.25 954,-388.25 954,-418.25"/>
<text text-anchor="start" x="795" y="-406.25" font-family="Helvetica,sans-Serif" font-size="10.00">lamina::ParametricSolver</text>
<text text-anchor="middle" x="870.5" y="-395.25" font-family="Helvetica,sans-Serif" font-size="10.00">::solve_polynomial_parametric</text>
</a>
</g>
</g>
<!-- Node3&#45;&gt;Node17 -->
<g id="edge21_Node000003_Node000017" class="edge">
<title>Node3&#45;&gt;Node17</title>
<g id="a_edge21_Node000003_Node000017"><a xlink:title=" ">
<path fill="none" stroke="#63b8ff" d="M1043.87,-190.87C1036.26,-232.06 1012.88,-327.95 954,-379.25 950.06,-382.68 945.66,-385.62 940.99,-388.14"/>
<polygon fill="#63b8ff" stroke="#63b8ff" points="1047.36,-191.24 1045.62,-180.79 1040.46,-190.05 1047.36,-191.24"/>
</a>
</g>
</g>
<!-- Node21 -->
<g id="Node000021" class="node">
<title>Node21</title>
<g id="a_Node000021"><a xlink:href="../../d5/d6f/classlamina_1_1Solver.html#a622812464260dd689d26a7f66ae99633" target="_top" xlink:title="求解多项式方程组，返回所有解。">
<polygon fill="white" stroke="#666666" points="930,-67.25 811,-67.25 811,-37.25 930,-37.25 930,-67.25"/>
<text text-anchor="start" x="819" y="-55.25" font-family="Helvetica,sans-Serif" font-size="10.00">lamina::Solver::solve</text>
<text text-anchor="middle" x="870.5" y="-44.25" font-family="Helvetica,sans-Serif" font-size="10.00">_polynomial_system</text>
</a>
</g>
</g>
<!-- Node3&#45;&gt;Node21 -->
<g id="edge25_Node000003_Node000021" class="edge">
<title>Node3&#45;&gt;Node21</title>
<g id="a_edge25_Node000003_Node000021"><a xlink:title=" ">
<path fill="none" stroke="#63b8ff" d="M1034.14,-153.35C1017.85,-131.95 987.79,-96.49 954,-76.25 946.71,-71.88 938.57,-68.27 930.33,-65.29"/>
<polygon fill="#63b8ff" stroke="#63b8ff" points="1031.48,-155.64 1040.25,-161.58 1037.1,-151.47 1031.48,-155.64"/>
</a>
</g>
</g>
<!-- Node22 -->
<g id="Node000022" class="node">
<title>Node22</title>
<g id="a_Node000022"><a xlink:href="../../d1/d42/namespacelamina.html#a14b812ff63e0f874b8f45b9d6c746195" target="_top" xlink:title="Solve an equation with assumption&#45;based domain filtering.">
<polygon fill="white" stroke="#666666" points="925,-370.25 816,-370.25 816,-340.25 925,-340.25 925,-370.25"/>
<text text-anchor="start" x="824" y="-358.25" font-family="Helvetica,sans-Serif" font-size="10.00">lamina::solve_with</text>
<text text-anchor="middle" x="870.5" y="-347.25" font-family="Helvetica,sans-Serif" font-size="10.00">_assumptions</text>
</a>
</g>
</g>
<!-- Node3&#45;&gt;Node22 -->
<g id="edge27_Node000003_Node000022" class="edge">
<title>Node3&#45;&gt;Node22</title>
<g id="a_edge27_Node000003_Node000022"><a xlink:title=" ">
<path fill="none" stroke="#63b8ff" d="M1040.43,-190.48C1028.37,-223.01 999.66,-289.01 954,-326.25 945.65,-333.07 935.58,-338.33 925.4,-342.38"/>
<polygon fill="#63b8ff" stroke="#63b8ff" points="1043.82,-191.41 1043.89,-180.82 1037.23,-189.06 1043.82,-191.41"/>
</a>
</g>
</g>
<!-- Node5 -->
<g id="Node000005" class="node">
<title>Node5</title>
<g id="a_Node000005"><a xlink:href="../../dc/d25/classSymbolicExpr.html#a7777100ca36b7a1a7285ece2380dcf4b" target="_top" xlink:title="计算矩阵的特征向量。">
<polygon fill="white" stroke="#666666" points="152,-283.75 0,-283.75 0,-264.75 152,-264.75 152,-283.75"/>
<text text-anchor="middle" x="76" y="-271.75" font-family="Helvetica,sans-Serif" font-size="10.00">SymbolicExpr::eigenvectors</text>
</a>
</g>
</g>
<!-- Node4&#45;&gt;Node5 -->
<g id="edge4_Node000004_Node000005" class="edge">
<title>Node4&#45;&gt;Node5</title>
<g id="a_edge4_Node000004_Node000005"><a xlink:title=" ">
<path fill="none" stroke="#63b8ff" d="M177.52,-274.25C169.04,-274.25 160.48,-274.25 152.11,-274.25"/>
<polygon fill="#63b8ff" stroke="#63b8ff" points="177.79,-277.75 187.79,-274.25 177.79,-270.75 177.79,-277.75"/>
</a>
</g>
</g>
<!-- Node7 -->
<g id="Node000007" class="node">
<title>Node7</title>
<g id="a_Node000007"><a xlink:href="../../dc/d25/classSymbolicExpr.html#a3b4cc1669b1b117b15cc82783a22b4fc" target="_top" xlink:title="计算矩阵行列式。">
<polygon fill="white" stroke="#666666" points="731.5,-265.75 582.5,-265.75 582.5,-246.75 731.5,-246.75 731.5,-265.75"/>
<text text-anchor="middle" x="657" y="-253.75" font-family="Helvetica,sans-Serif" font-size="10.00">SymbolicExpr::determinant</text>
</a>
</g>
</g>
<!-- Node6&#45;&gt;Node7 -->
<g id="edge6_Node000006_Node000007" class="edge">
<title>Node6&#45;&gt;Node7</title>
<g id="a_edge6_Node000006_Node000007"><a xlink:title=" ">
<path fill="none" stroke="#63b8ff" d="M811.51,-225.77C778.44,-232.34 737.46,-240.47 706.17,-246.69"/>
<polygon fill="#63b8ff" stroke="#63b8ff" points="812.38,-229.16 821.51,-223.78 811.02,-222.3 812.38,-229.16"/>
</a>
</g>
</g>
<!-- Node10 -->
<g id="Node000010" class="node">
<title>Node10</title>
<g id="a_Node000010"><a xlink:href="../../dc/d25/classSymbolicExpr.html#ae608271a617ef878c81d04375538537f" target="_top" xlink:title="计算两个多项式关于指定变量的结式。">
<polygon fill="white" stroke="#666666" points="712,-191.25 602,-191.25 602,-161.25 712,-161.25 712,-191.25"/>
<text text-anchor="start" x="610" y="-179.25" font-family="Helvetica,sans-Serif" font-size="10.00">SymbolicExpr::poly</text>
<text text-anchor="middle" x="657" y="-168.25" font-family="Helvetica,sans-Serif" font-size="10.00">_resultant</text>
</a>
</g>
</g>
<!-- Node6&#45;&gt;Node10 -->
<g id="edge11_Node000006_Node000010" class="edge">
<title>Node6&#45;&gt;Node10</title>
<g id="a_edge11_Node000006_Node000010"><a xlink:title=" ">
<path fill="none" stroke="#63b8ff" d="M806.46,-202.93C776.48,-197.54 740.99,-191.16 712.22,-186"/>
<polygon fill="#63b8ff" stroke="#63b8ff" points="805.94,-206.39 816.4,-204.71 807.18,-199.5 805.94,-206.39"/>
</a>
</g>
</g>
<!-- Node11 -->
<g id="Node000011" class="node">
<title>Node11</title>
<g id="a_Node000011"><a xlink:href="../../dc/d25/classSymbolicExpr.html#ae41c16b68c56de8d4c70a98c85722ff1" target="_top" xlink:title="计算矩阵的行最简阶梯形（RREF）。">
<polygon fill="white" stroke="#666666" points="710.5,-228.75 603.5,-228.75 603.5,-209.75 710.5,-209.75 710.5,-228.75"/>
<text text-anchor="middle" x="657" y="-216.75" font-family="Helvetica,sans-Serif" font-size="10.00">SymbolicExpr::rref</text>
</a>
</g>
</g>
<!-- Node6&#45;&gt;Node11 -->
<g id="edge12_Node000006_Node000011" class="edge">
<title>Node6&#45;&gt;Node11</title>
<g id="a_edge12_Node000006_Node000011"><a xlink:title=" ">
<path fill="none" stroke="#63b8ff" d="M801.22,-215.87C771.8,-216.56 737.93,-217.36 710.52,-218.01"/>
<polygon fill="#63b8ff" stroke="#63b8ff" points="801.51,-219.36 811.43,-215.63 801.35,-212.36 801.51,-219.36"/>
</a>
</g>
</g>
<!-- Node7&#45;&gt;Node7 -->
<g id="edge9_Node000007_Node000007" class="edge">
<title>Node7&#45;&gt;Node7</title>
<g id="a_edge9_Node000007_Node000007"><a xlink:title=" ">
<path fill="none" stroke="#63b8ff" d="M695.62,-273.44C695.62,-279.17 682.74,-283.75 657,-283.75 620.39,-283.75 609.8,-274.49 625.25,-265.84"/>
<polygon fill="#63b8ff" stroke="#63b8ff" points="698.05,-270.91 688.75,-265.84 692.86,-275.6 698.05,-270.91"/>
</a>
</g>
</g>
<!-- Node8 -->
<g id="Node000008" class="node">
<title>Node8</title>
<g id="a_Node000008"><a xlink:href="../../dc/d25/classSymbolicExpr.html#a6e8c5c20af88337d449cbf5771d5d28d" target="_top" xlink:title="计算矩阵的特征多项式。">
<polygon fill="white" stroke="#666666" points="515.5,-246.75 384.5,-246.75 384.5,-227.75 515.5,-227.75 515.5,-246.75"/>
<text text-anchor="middle" x="450" y="-234.75" font-family="Helvetica,sans-Serif" font-size="10.00">SymbolicExpr::charpoly</text>
</a>
</g>
</g>
<!-- Node7&#45;&gt;Node8 -->
<g id="edge7_Node000007_Node000008" class="edge">
<title>Node7&#45;&gt;Node8</title>
<g id="a_edge7_Node000007_Node000008"><a xlink:title=" ">
<path fill="none" stroke="#63b8ff" d="M572.2,-248.49C553.31,-246.74 533.54,-244.9 515.58,-243.24"/>
<polygon fill="#63b8ff" stroke="#63b8ff" points="572,-251.98 582.28,-249.42 572.65,-245.01 572,-251.98"/>
</a>
</g>
</g>
<!-- Node9 -->
<g id="Node000009" class="node">
<title>Node9</title>
<g id="a_Node000009"><a xlink:href="../../d1/d42/namespacelamina.html#a35783093777191a0254b7f3a2340e0f5" target="_top" xlink:title="计算符号矩阵的行列式">
<polygon fill="white" stroke="#666666" points="527,-283.75 373,-283.75 373,-264.75 527,-264.75 527,-283.75"/>
<text text-anchor="middle" x="450" y="-271.75" font-family="Helvetica,sans-Serif" font-size="10.00">lamina::matrix_determinant</text>
</a>
</g>
</g>
<!-- Node7&#45;&gt;Node9 -->
<g id="edge10_Node000007_Node000009" class="edge">
<title>Node7&#45;&gt;Node9</title>
<g id="a_edge10_Node000007_Node000009"><a xlink:title=" ">
<path fill="none" stroke="#63b8ff" d="M572.09,-263.62C557.22,-264.93 541.81,-266.28 527.17,-267.56"/>
<polygon fill="#63b8ff" stroke="#63b8ff" points="572.62,-267.09 582.28,-262.73 572.01,-260.11 572.62,-267.09"/>
</a>
</g>
</g>
<!-- Node8&#45;&gt;Node4 -->
<g id="edge8_Node000008_Node000004" class="edge">
<title>Node8&#45;&gt;Node4</title>
<g id="a_edge8_Node000008_Node000004"><a xlink:title=" ">
<path fill="none" stroke="#63b8ff" d="M391.26,-248.77C365.63,-253.88 335.81,-259.83 311.43,-264.69"/>
<polygon fill="#63b8ff" stroke="#63b8ff" points="392.11,-252.17 401.23,-246.78 390.74,-245.31 392.11,-252.17"/>
</a>
</g>
</g>
<!-- Node12 -->
<g id="Node000012" class="node">
<title>Node12</title>
<g id="a_Node000012"><a xlink:href="../../dc/d25/classSymbolicExpr.html#afa1c1c57bb6c77da5d016f69eaa60703" target="_top" xlink:title="计算矩阵的逆。">
<polygon fill="white" stroke="#666666" points="512.5,-209.75 387.5,-209.75 387.5,-190.75 512.5,-190.75 512.5,-209.75"/>
<text text-anchor="middle" x="450" y="-197.75" font-family="Helvetica,sans-Serif" font-size="10.00">SymbolicExpr::inverse</text>
</a>
</g>
</g>
<!-- Node11&#45;&gt;Node12 -->
<g id="edge13_Node000011_Node000012" class="edge">
<title>Node11&#45;&gt;Node12</title>
<g id="a_edge13_Node000011_Node000012"><a xlink:title=" ">
<path fill="none" stroke="#63b8ff" d="M593.51,-213.46C567.92,-211.09 538.38,-208.35 512.86,-205.99"/>
<polygon fill="#63b8ff" stroke="#63b8ff" points="593.19,-216.95 603.47,-214.38 593.84,-209.98 593.19,-216.95"/>
</a>
</g>
</g>
<!-- Node13 -->
<g id="Node000013" class="node">
<title>Node13</title>
<g id="a_Node000013"><a xlink:href="../../d1/d42/namespacelamina.html#a972455b000c18e71aefd4a84a5708edf" target="_top" xlink:title="计算符号矩阵的逆矩阵">
<polygon fill="white" stroke="#666666" points="327.5,-209.75 197.5,-209.75 197.5,-190.75 327.5,-190.75 327.5,-209.75"/>
<text text-anchor="middle" x="262.5" y="-197.75" font-family="Helvetica,sans-Serif" font-size="10.00">lamina::matrix_inverse</text>
</a>
</g>
</g>
<!-- Node12&#45;&gt;Node13 -->
<g id="edge14_Node000012_Node000013" class="edge">
<title>Node12&#45;&gt;Node13</title>
<g id="a_edge14_Node000012_Node000013"><a xlink:title=" ">
<path fill="none" stroke="#63b8ff" d="M377.43,-200.25C361.06,-200.25 343.75,-200.25 327.7,-200.25"/>
<polygon fill="#63b8ff" stroke="#63b8ff" points="377.49,-203.75 387.49,-200.25 377.49,-196.75 377.49,-203.75"/>
</a>
</g>
</g>
<!-- Node14&#45;&gt;Node15 -->
<g id="edge16_Node000014_Node000015" class="edge">
<title>Node14&#45;&gt;Node15</title>
<g id="a_edge16_Node000014_Node000015"><a xlink:title=" ">
<path fill="none" stroke="#63b8ff" d="M780.65,-95.25C770.89,-95.25 760.92,-95.25 751.1,-95.25"/>
<polygon fill="#63b8ff" stroke="#63b8ff" points="780.75,-98.75 790.75,-95.25 780.75,-91.75 780.75,-98.75"/>
</a>
</g>
</g>
<!-- Node15&#45;&gt;Node1 -->
<g id="edge19_Node000015_Node000001" class="edge">
<title>Node15&#45;&gt;Node1</title>
<g id="a_edge19_Node000015_Node000001"><a xlink:title=" ">
<path fill="none" stroke="#63b8ff" d="M679.61,-79.86C704.24,-63.36 746.35,-38.18 787,-28.25 978.35,18.47 1214.41,-3.89 1324.51,-18.72"/>
<polygon fill="#63b8ff" stroke="#63b8ff" points="677.34,-77.18 671.07,-85.71 681.3,-82.95 677.34,-77.18"/>
</a>
</g>
</g>
<!-- Node15&#45;&gt;Node16 -->
<g id="edge17_Node000015_Node000016" class="edge">
<title>Node15&#45;&gt;Node16</title>
<g id="a_edge17_Node000015_Node000016"><a xlink:title=" ">
<path fill="none" stroke="#63b8ff" d="M552.45,-88.5C536.69,-88.51 520.96,-88.74 506.76,-89.17"/>
<polygon fill="#63b8ff" stroke="#63b8ff" points="552.79,-92 562.8,-88.53 552.81,-85 552.79,-92"/>
</a>
</g>
</g>
<!-- Node16&#45;&gt;Node15 -->
<g id="edge18_Node000016_Node000015" class="edge">
<title>Node16&#45;&gt;Node15</title>
<g id="a_edge18_Node000016_Node000015"><a xlink:title=" ">
<path fill="none" stroke="#63b8ff" d="M517.14,-101.61C531.71,-101.94 547.39,-102.06 562.8,-101.98"/>
<polygon fill="#63b8ff" stroke="#63b8ff" points="516.85,-98.1 506.76,-101.34 516.66,-105.1 516.85,-98.1"/>
</a>
</g>
</g>
<!-- Node18 -->
<g id="Node000018" class="node">
<title>Node18</title>
<g id="a_Node000018"><a xlink:href="../../d6/da9/classlamina_1_1ParametricSolver.html#a74760afed4b871db5baef1d0c7eef09e" target="_top" xlink:title="求解含参方程组，返回所有解">
<polygon fill="white" stroke="#666666" points="727,-418.25 587,-418.25 587,-388.25 727,-388.25 727,-418.25"/>
<text text-anchor="start" x="595" y="-406.25" font-family="Helvetica,sans-Serif" font-size="10.00">lamina::ParametricSolver</text>
<text text-anchor="middle" x="657" y="-395.25" font-family="Helvetica,sans-Serif" font-size="10.00">::solve_system</text>
</a>
</g>
</g>
<!-- Node17&#45;&gt;Node18 -->
<g id="edge22_Node000017_Node000018" class="edge">
<title>Node17&#45;&gt;Node18</title>
<g id="a_edge22_Node000017_Node000018"><a xlink:title=" ">
<path fill="none" stroke="#63b8ff" d="M776.58,-403.25C760.02,-403.25 743.04,-403.25 727.28,-403.25"/>
<polygon fill="#63b8ff" stroke="#63b8ff" points="776.82,-406.75 786.82,-403.25 776.82,-399.75 776.82,-406.75"/>
</a>
</g>
</g>
<!-- Node19 -->
<g id="Node000019" class="node">
<title>Node19</title>
<g id="a_Node000019"><a xlink:href="../../dc/d25/classSymbolicExpr.html#af7245cd8dd9c4c7f7f00d3772bbbecb3" target="_top" xlink:title="求解含参数的方程组。">
<polygon fill="white" stroke="#666666" points="508,-442.25 392,-442.25 392,-412.25 508,-412.25 508,-442.25"/>
<text text-anchor="start" x="400" y="-430.25" font-family="Helvetica,sans-Serif" font-size="10.00">SymbolicExpr::solve</text>
<text text-anchor="middle" x="450" y="-419.25" font-family="Helvetica,sans-Serif" font-size="10.00">_system</text>
</a>
</g>
</g>
<!-- Node18&#45;&gt;Node19 -->
<g id="edge23_Node000018_Node000019" class="edge">
<title>Node18&#45;&gt;Node19</title>
<g id="a_edge23_Node000018_Node000019"><a xlink:title=" ">
<path fill="none" stroke="#63b8ff" d="M576.85,-412.52C553.99,-415.2 529.48,-418.07 508.23,-420.55"/>
<polygon fill="#63b8ff" stroke="#63b8ff" points="577.36,-415.98 586.88,-411.34 576.54,-409.03 577.36,-415.98"/>
</a>
</g>
</g>
<!-- Node20 -->
<g id="Node000020" class="node">
<title>Node20</title>
<g id="a_Node000020"><a xlink:href="../../d6/da9/classlamina_1_1ParametricSolver.html#aee41c6cf8efdfc5c7485cd104981d95b" target="_top" xlink:title="求解含参方程组，返回按参数条件分段的解">
<polygon fill="white" stroke="#666666" points="522,-394.25 378,-394.25 378,-364.25 522,-364.25 522,-394.25"/>
<text text-anchor="start" x="386" y="-382.25" font-family="Helvetica,sans-Serif" font-size="10.00">lamina::ParametricSolver</text>
<text text-anchor="middle" x="450" y="-371.25" font-family="Helvetica,sans-Serif" font-size="10.00">::solve_system_piecewise</text>
</a>
</g>
</g>
<!-- Node18&#45;&gt;Node20 -->
<g id="edge24_Node000018_Node000020" class="edge">
<title>Node18&#45;&gt;Node20</title>
<g id="a_edge24_Node000018_Node000020"><a xlink:title=" ">
<path fill="none" stroke="#63b8ff" d="M576.74,-393.97C558.8,-391.87 539.85,-389.66 522.27,-387.6"/>
<polygon fill="#63b8ff" stroke="#63b8ff" points="576.54,-397.47 586.88,-395.16 577.36,-390.52 576.54,-397.47"/>
</a>
</g>
</g>
</g>
</svg>
