<?xml version="1.0" encoding="UTF-8" standalone="no"?>
<!DOCTYPE svg PUBLIC "-//W3C//DTD SVG 1.1//EN"
 "http://www.w3.org/Graphics/SVG/1.1/DTD/svg11.dtd">
<!-- Generated by graphviz version 2.43.0 (0)
 -->
<!-- Title: lamina::rational_to_symbolic_poly Pages: 1 -->
<svg width="1675pt" height="544pt"
 viewBox="0.00 0.00 1675.00 544.00" xmlns="http://www.w3.org/2000/svg" xmlns:xlink="http://www.w3.org/1999/xlink">
<g id="graph0" class="graph" transform="scale(1 1) rotate(0) translate(4 540)">
<title>lamina::rational_to_symbolic_poly</title>
<!-- Node1 -->
<g id="Node000001" class="node">
<title>Node1</title>
<g id="a_Node000001"><a xlink:title=" ">
<polygon fill="#999999" stroke="#666666" points="1667,-445 1558,-445 1558,-415 1667,-415 1667,-445"/>
<text text-anchor="start" x="1566" y="-433" font-family="Helvetica,sans-Serif" font-size="10.00">lamina::rational_to</text>
<text text-anchor="middle" x="1612.5" y="-422" font-family="Helvetica,sans-Serif" font-size="10.00">_symbolic_poly</text>
</a>
</g>
</g>
<!-- Node2 -->
<g id="Node000002" class="node">
<title>Node2</title>
<g id="a_Node000002"><a xlink:href="../../d1/d42/namespacelamina.html#a775754abcc1742679dccd792de33ae6e" target="_top" xlink:title="通过因式分解求解多项式方程。">
<polygon fill="white" stroke="#666666" points="1522,-439.5 1373,-439.5 1373,-420.5 1522,-420.5 1522,-439.5"/>
<text text-anchor="middle" x="1447.5" y="-427.5" font-family="Helvetica,sans-Serif" font-size="10.00">lamina::solve_by_factoring</text>
</a>
</g>
</g>
<!-- Node1&#45;&gt;Node2 -->
<g id="edge1_Node000001_Node000002" class="edge">
<title>Node1&#45;&gt;Node2</title>
<g id="a_edge1_Node000001_Node000002"><a xlink:title=" ">
<path fill="none" stroke="#63b8ff" d="M1547.6,-430C1539.22,-430 1530.58,-430 1522.05,-430"/>
<polygon fill="#63b8ff" stroke="#63b8ff" points="1547.68,-433.5 1557.68,-430 1547.68,-426.5 1547.68,-433.5"/>
</a>
</g>
</g>
<!-- Node3 -->
<g id="Node000003" class="node">
<title>Node3</title>
<g id="a_Node000003"><a xlink:href="../../d1/d42/namespacelamina.html#a67cbeb787714a13d138e663951330c38" target="_top" xlink:title=" ">
<polygon fill="white" stroke="#666666" points="1310,-488 1206,-488 1206,-458 1310,-458 1310,-488"/>
<text text-anchor="start" x="1214" y="-476" font-family="Helvetica,sans-Serif" font-size="10.00">lamina::find_roots</text>
<text text-anchor="middle" x="1258" y="-465" font-family="Helvetica,sans-Serif" font-size="10.00">_with_multiplicity</text>
</a>
</g>
</g>
<!-- Node2&#45;&gt;Node3 -->
<g id="edge2_Node000002_Node000003" class="edge">
<title>Node2&#45;&gt;Node3</title>
<g id="a_edge2_Node000002_Node000003"><a xlink:title=" ">
<path fill="none" stroke="#63b8ff" d="M1395.07,-441.8C1368.65,-447.85 1336.57,-455.21 1310.19,-461.26"/>
<polygon fill="#63b8ff" stroke="#63b8ff" points="1395.92,-445.19 1404.89,-439.54 1394.36,-438.37 1395.92,-445.19"/>
</a>
</g>
</g>
<!-- Node8 -->
<g id="Node000008" class="node">
<title>Node8</title>
<g id="a_Node000008"><a xlink:href="../../d1/d42/namespacelamina.html#a06e924d67656611208ba81ad13fbee8d" target="_top" xlink:title="方程求解策略调度器，根据表达式类型选择合适的求解方法。">
<polygon fill="white" stroke="#666666" points="1322.5,-401.5 1193.5,-401.5 1193.5,-382.5 1322.5,-382.5 1322.5,-401.5"/>
<text text-anchor="middle" x="1258" y="-389.5" font-family="Helvetica,sans-Serif" font-size="10.00">lamina::solve_dispatch</text>
</a>
</g>
</g>
<!-- Node2&#45;&gt;Node8 -->
<g id="edge8_Node000002_Node000008" class="edge">
<title>Node2&#45;&gt;Node8</title>
<g id="a_edge8_Node000002_Node000008"><a xlink:title=" ">
<path fill="none" stroke="#63b8ff" d="M1389.22,-418.39C1362.55,-412.99 1331.22,-406.64 1305.97,-401.52"/>
<polygon fill="#63b8ff" stroke="#63b8ff" points="1388.69,-421.85 1399.19,-420.41 1390.08,-414.99 1388.69,-421.85"/>
</a>
</g>
</g>
<!-- Node30 -->
<g id="Node000030" class="node">
<title>Node30</title>
<g id="a_Node000030"><a xlink:href="../../d1/d42/namespacelamina.html#a46027488de3bc5e327fdfe4806e8fa5b" target="_top" xlink:title=" ">
<polygon fill="white" stroke="#666666" points="1337,-439.5 1179,-439.5 1179,-420.5 1337,-420.5 1337,-439.5"/>
<text text-anchor="middle" x="1258" y="-427.5" font-family="Helvetica,sans-Serif" font-size="10.00">lamina::solve_symbolic_poly</text>
</a>
</g>
</g>
<!-- Node2&#45;&gt;Node30 -->
<g id="edge36_Node000002_Node000030" class="edge">
<title>Node2&#45;&gt;Node30</title>
<g id="a_edge36_Node000002_Node000030"><a xlink:title=" ">
<path fill="none" stroke="#63b8ff" d="M1362.7,-430C1354.25,-430 1345.69,-430 1337.3,-430"/>
<polygon fill="#63b8ff" stroke="#63b8ff" points="1362.93,-433.5 1372.93,-430 1362.93,-426.5 1362.93,-433.5"/>
</a>
</g>
</g>
<!-- Node4 -->
<g id="Node000004" class="node">
<title>Node4</title>
<g id="a_Node000004"><a xlink:href="../../db/d26/classlamina_1_1InequalitySolver.html#ad7aab28f2d96ad0eb07ff291a650afb8" target="_top" xlink:title="求解单个不等式">
<polygon fill="white" stroke="#666666" points="1138,-536 1002,-536 1002,-506 1138,-506 1138,-536"/>
<text text-anchor="start" x="1010" y="-524" font-family="Helvetica,sans-Serif" font-size="10.00">lamina::InequalitySolver</text>
<text text-anchor="middle" x="1070" y="-513" font-family="Helvetica,sans-Serif" font-size="10.00">::solve_inequality</text>
</a>
</g>
</g>
<!-- Node3&#45;&gt;Node4 -->
<g id="edge3_Node000003_Node000004" class="edge">
<title>Node3&#45;&gt;Node4</title>
<g id="a_edge3_Node000003_Node000004"><a xlink:title=" ">
<path fill="none" stroke="#63b8ff" d="M1195.75,-488.81C1174.39,-494.32 1150.49,-500.49 1129.37,-505.94"/>
<polygon fill="#63b8ff" stroke="#63b8ff" points="1196.87,-492.13 1205.68,-486.24 1195.12,-485.35 1196.87,-492.13"/>
</a>
</g>
</g>
<!-- Node7 -->
<g id="Node000007" class="node">
<title>Node7</title>
<g id="a_Node000007"><a xlink:href="../../db/d26/classlamina_1_1InequalitySolver.html#a2244f0ce0ad6b3b5781a8c7ced636447" target="_top" xlink:title="求解有理不等式 numerator/denominator ≷ 0">
<polygon fill="white" stroke="#666666" points="1143,-488 997,-488 997,-458 1143,-458 1143,-488"/>
<text text-anchor="start" x="1005" y="-476" font-family="Helvetica,sans-Serif" font-size="10.00">lamina::InequalitySolver</text>
<text text-anchor="middle" x="1070" y="-465" font-family="Helvetica,sans-Serif" font-size="10.00">::solve_rational_inequality</text>
</a>
</g>
</g>
<!-- Node3&#45;&gt;Node7 -->
<g id="edge7_Node000003_Node000007" class="edge">
<title>Node3&#45;&gt;Node7</title>
<g id="a_edge7_Node000003_Node000007"><a xlink:title=" ">
<path fill="none" stroke="#63b8ff" d="M1195.46,-473C1178.67,-473 1160.34,-473 1143.03,-473"/>
<polygon fill="#63b8ff" stroke="#63b8ff" points="1195.68,-476.5 1205.68,-473 1195.68,-469.5 1195.68,-476.5"/>
</a>
</g>
</g>
<!-- Node5 -->
<g id="Node000005" class="node">
<title>Node5</title>
<g id="a_Node000005"><a xlink:href="../../db/d26/classlamina_1_1InequalitySolver.html#ac97e2561a906111e54c90d494d0fef92" target="_top" xlink:title="求解不等式组（取交集）">
<polygon fill="white" stroke="#666666" points="945.5,-536 809.5,-536 809.5,-506 945.5,-506 945.5,-536"/>
<text text-anchor="start" x="817.5" y="-524" font-family="Helvetica,sans-Serif" font-size="10.00">lamina::InequalitySolver</text>
<text text-anchor="middle" x="877.5" y="-513" font-family="Helvetica,sans-Serif" font-size="10.00">::solve_inequalities</text>
</a>
</g>
</g>
<!-- Node4&#45;&gt;Node5 -->
<g id="edge4_Node000004_Node000005" class="edge">
<title>Node4&#45;&gt;Node5</title>
<g id="a_edge4_Node000004_Node000005"><a xlink:title=" ">
<path fill="none" stroke="#63b8ff" d="M991.45,-521C976.29,-521 960.5,-521 945.7,-521"/>
<polygon fill="#63b8ff" stroke="#63b8ff" points="991.84,-524.5 1001.84,-521 991.84,-517.5 991.84,-524.5"/>
</a>
</g>
</g>
<!-- Node6 -->
<g id="Node000006" class="node">
<title>Node6</title>
<g id="a_Node000006"><a xlink:href="../../db/d26/classlamina_1_1InequalitySolver.html#a52f3cb8d15f7d98c4cfe1d8c39f910fc" target="_top" xlink:title="求解含参数的不等式，返回分段结果">
<polygon fill="white" stroke="#666666" points="958,-460 797,-460 797,-430 958,-430 958,-460"/>
<text text-anchor="start" x="805" y="-448" font-family="Helvetica,sans-Serif" font-size="10.00">lamina::InequalitySolver</text>
<text text-anchor="middle" x="877.5" y="-437" font-family="Helvetica,sans-Serif" font-size="10.00">::solve_parametric_inequality</text>
</a>
</g>
</g>
<!-- Node4&#45;&gt;Node6 -->
<g id="edge5_Node000004_Node000006" class="edge">
<title>Node4&#45;&gt;Node6</title>
<g id="a_edge5_Node000004_Node000006"><a xlink:title=" ">
<path fill="none" stroke="#63b8ff" d="M1012.47,-502.71C1007.22,-500.84 1002,-498.92 997,-497 967.33,-485.57 934.26,-470.89 910.61,-460.04"/>
<polygon fill="#63b8ff" stroke="#63b8ff" points="1011.32,-506.01 1021.91,-506 1013.62,-499.4 1011.32,-506.01"/>
</a>
</g>
</g>
<!-- Node6&#45;&gt;Node6 -->
<g id="edge6_Node000006_Node000006" class="edge">
<title>Node6&#45;&gt;Node6</title>
<g id="a_edge6_Node000006_Node000006"><a xlink:title=" ">
<path fill="none" stroke="#63b8ff" d="M911.11,-470.6C906.51,-474.97 895.31,-478 877.5,-478 847.5,-478 836.25,-469.41 843.75,-460.28"/>
<polygon fill="#63b8ff" stroke="#63b8ff" points="914.61,-470.32 911.25,-460.28 907.61,-470.23 914.61,-470.32"/>
</a>
</g>
</g>
<!-- Node9 -->
<g id="Node000009" class="node">
<title>Node9</title>
<g id="a_Node000009"><a xlink:href="../../dc/d25/classSymbolicExpr.html#a8e2b693429c55311a664ed0306bc9b2e" target="_top" xlink:title="求解方程，返回指定变量的所有解。">
<polygon fill="white" stroke="#666666" points="1128,-239.5 1012,-239.5 1012,-220.5 1128,-220.5 1128,-239.5"/>
<text text-anchor="middle" x="1070" y="-227.5" font-family="Helvetica,sans-Serif" font-size="10.00">SymbolicExpr::solve</text>
</a>
</g>
</g>
<!-- Node8&#45;&gt;Node9 -->
<g id="edge9_Node000008_Node000009" class="edge">
<title>Node8&#45;&gt;Node9</title>
<g id="a_edge9_Node000008_Node000009"><a xlink:title=" ">
<path fill="none" stroke="#63b8ff" d="M1238.05,-375.49C1199.53,-341.95 1113.15,-266.71 1082.26,-239.8"/>
<polygon fill="#63b8ff" stroke="#63b8ff" points="1236.08,-378.42 1245.92,-382.35 1240.68,-373.14 1236.08,-378.42"/>
</a>
</g>
</g>
<!-- Node10 -->
<g id="Node000010" class="node">
<title>Node10</title>
<g id="a_Node000010"><a xlink:href="../../dc/d25/classSymbolicExpr.html#a83879d764986be80edbedc769b96224a" target="_top" xlink:title="计算矩阵的特征值。">
<polygon fill="white" stroke="#666666" points="337,-153.5 188,-153.5 188,-134.5 337,-134.5 337,-153.5"/>
<text text-anchor="middle" x="262.5" y="-141.5" font-family="Helvetica,sans-Serif" font-size="10.00">SymbolicExpr::eigenvalues</text>
</a>
</g>
</g>
<!-- Node9&#45;&gt;Node10 -->
<g id="edge10_Node000009_Node000010" class="edge">
<title>Node9&#45;&gt;Node10</title>
<g id="a_edge10_Node000009_Node000010"><a xlink:title=" ">
<path fill="none" stroke="#63b8ff" d="M1057.11,-211.67C1039.59,-186.55 1004.19,-142.53 961,-125 839.93,-75.85 503.18,-113.79 373,-125 351.47,-126.85 327.82,-130.72 308.03,-134.49"/>
<polygon fill="#63b8ff" stroke="#63b8ff" points="1054.43,-213.96 1062.93,-220.28 1060.23,-210.04 1054.43,-213.96"/>
</a>
</g>
</g>
<!-- Node12 -->
<g id="Node000012" class="node">
<title>Node12</title>
<g id="a_Node000012"><a xlink:href="../../dc/d25/classSymbolicExpr.html#a884244959506063b172228ad99ab0730" target="_top" xlink:title="对表达式进行因式分解。">
<polygon fill="white" stroke="#666666" points="936.5,-201.5 818.5,-201.5 818.5,-182.5 936.5,-182.5 936.5,-201.5"/>
<text text-anchor="middle" x="877.5" y="-189.5" font-family="Helvetica,sans-Serif" font-size="10.00">SymbolicExpr::factor</text>
</a>
</g>
</g>
<!-- Node9&#45;&gt;Node12 -->
<g id="edge12_Node000009_Node000012" class="edge">
<title>Node9&#45;&gt;Node12</title>
<g id="a_edge12_Node000009_Node000012"><a xlink:title=" ">
<path fill="none" stroke="#63b8ff" d="M1010.8,-218.39C983.71,-212.99 951.87,-206.64 926.23,-201.52"/>
<polygon fill="#63b8ff" stroke="#63b8ff" points="1010.44,-221.89 1020.93,-220.41 1011.81,-215.02 1010.44,-221.89"/>
</a>
</g>
</g>
<!-- Node20 -->
<g id="Node000020" class="node">
<title>Node20</title>
<g id="a_Node000020"><a xlink:href="../../d1/d42/namespacelamina.html#a334f8d9c2923abbed11b2e4729c2b057" target="_top" xlink:title=" ">
<polygon fill="white" stroke="#666666" points="957,-325.5 798,-325.5 798,-306.5 957,-306.5 957,-325.5"/>
<text text-anchor="middle" x="877.5" y="-313.5" font-family="Helvetica,sans-Serif" font-size="10.00">lamina::invert_substitution_h</text>
</a>
</g>
</g>
<!-- Node9&#45;&gt;Node20 -->
<g id="edge22_Node000009_Node000020" class="edge">
<title>Node9&#45;&gt;Node20</title>
<g id="a_edge22_Node000009_Node000020"><a xlink:title=" ">
<path fill="none" stroke="#63b8ff" d="M1048.3,-245.74C1027.35,-260.96 993.49,-283.61 961,-297 951.76,-300.81 941.61,-303.93 931.68,-306.47"/>
<polygon fill="#63b8ff" stroke="#63b8ff" points="1050.49,-248.48 1056.45,-239.72 1046.33,-242.85 1050.49,-248.48"/>
</a>
</g>
</g>
<!-- Node21 -->
<g id="Node000021" class="node">
<title>Node21</title>
<g id="a_Node000021"><a xlink:href="../../d1/d42/namespacelamina.html#a12ae4dd3753dfea8b5e9d84b3c748855" target="_top" xlink:title=" ">
<polygon fill="white" stroke="#666666" points="758,-325.5 570,-325.5 570,-306.5 758,-306.5 758,-325.5"/>
<text text-anchor="middle" x="664" y="-313.5" font-family="Helvetica,sans-Serif" font-size="10.00">lamina::solve_transcendental_impl</text>
</a>
</g>
</g>
<!-- Node9&#45;&gt;Node21 -->
<g id="edge34_Node000009_Node000021" class="edge">
<title>Node9&#45;&gt;Node21</title>
<g id="a_edge34_Node000009_Node000021"><a xlink:title=" ">
<path fill="none" stroke="#63b8ff" d="M1001.52,-227.08C945.04,-226.41 862.85,-229.65 794,-249 791.05,-249.83 718.12,-288.07 683.25,-306.4"/>
<polygon fill="#63b8ff" stroke="#63b8ff" points="1001.7,-230.58 1011.76,-227.24 1001.82,-223.58 1001.7,-230.58"/>
</a>
</g>
</g>
<!-- Node22 -->
<g id="Node000022" class="node">
<title>Node22</title>
<g id="a_Node000022"><a xlink:href="../../d1/d42/namespacelamina.html#a704f26202e00de52ae9b961bc527a9ff" target="_top" xlink:title=" ">
<polygon fill="white" stroke="#666666" points="510,-331 397,-331 397,-301 510,-301 510,-331"/>
<text text-anchor="start" x="405" y="-319" font-family="Helvetica,sans-Serif" font-size="10.00">lamina::solve_inner</text>
<text text-anchor="middle" x="453.5" y="-308" font-family="Helvetica,sans-Serif" font-size="10.00">_equation</text>
</a>
</g>
</g>
<!-- Node9&#45;&gt;Node22 -->
<g id="edge28_Node000009_Node000022" class="edge">
<title>Node9&#45;&gt;Node22</title>
<g id="a_edge28_Node000009_Node000022"><a xlink:title=" ">
<path fill="none" stroke="#63b8ff" d="M1057.11,-248.33C1039.59,-273.45 1004.19,-317.47 961,-335 804.86,-398.39 598.9,-356.31 505.02,-331.08"/>
<polygon fill="#63b8ff" stroke="#63b8ff" points="1060.23,-249.96 1062.93,-239.72 1054.43,-246.04 1060.23,-249.96"/>
</a>
</g>
</g>
<!-- Node24 -->
<g id="Node000024" class="node">
<title>Node24</title>
<g id="a_Node000024"><a xlink:href="../../d6/da9/classlamina_1_1ParametricSolver.html#a41d42755b42e64784e9bc7c7f6f5715f" target="_top" xlink:title="求解关于未知数为多项式的含参方程组">
<polygon fill="white" stroke="#666666" points="961,-78 794,-78 794,-48 961,-48 961,-78"/>
<text text-anchor="start" x="802" y="-66" font-family="Helvetica,sans-Serif" font-size="10.00">lamina::ParametricSolver</text>
<text text-anchor="middle" x="877.5" y="-55" font-family="Helvetica,sans-Serif" font-size="10.00">::solve_polynomial_parametric</text>
</a>
</g>
</g>
<!-- Node9&#45;&gt;Node24 -->
<g id="edge29_Node000009_Node000024" class="edge">
<title>Node9&#45;&gt;Node24</title>
<g id="a_edge29_Node000009_Node000024"><a xlink:title=" ">
<path fill="none" stroke="#63b8ff" d="M1059.26,-211.65C1042.8,-182.32 1006.75,-124.83 961,-92 953.23,-86.42 944.29,-81.84 935.22,-78.09"/>
<polygon fill="#63b8ff" stroke="#63b8ff" points="1056.2,-213.36 1064.08,-220.44 1062.34,-209.99 1056.2,-213.36"/>
</a>
</g>
</g>
<!-- Node28 -->
<g id="Node000028" class="node">
<title>Node28</title>
<g id="a_Node000028"><a xlink:href="../../d5/d6f/classlamina_1_1Solver.html#a622812464260dd689d26a7f66ae99633" target="_top" xlink:title="求解多项式方程组，返回所有解。">
<polygon fill="white" stroke="#666666" points="937,-288 818,-288 818,-258 937,-258 937,-288"/>
<text text-anchor="start" x="826" y="-276" font-family="Helvetica,sans-Serif" font-size="10.00">lamina::Solver::solve</text>
<text text-anchor="middle" x="877.5" y="-265" font-family="Helvetica,sans-Serif" font-size="10.00">_polynomial_system</text>
</a>
</g>
</g>
<!-- Node9&#45;&gt;Node28 -->
<g id="edge33_Node000009_Node000028" class="edge">
<title>Node9&#45;&gt;Node28</title>
<g id="a_edge33_Node000009_Node000028"><a xlink:title=" ">
<path fill="none" stroke="#63b8ff" d="M1016.84,-241.77C992.21,-247.33 962.7,-253.99 937.28,-259.73"/>
<polygon fill="#63b8ff" stroke="#63b8ff" points="1017.74,-245.16 1026.72,-239.54 1016.2,-238.33 1017.74,-245.16"/>
</a>
</g>
</g>
<!-- Node29 -->
<g id="Node000029" class="node">
<title>Node29</title>
<g id="a_Node000029"><a xlink:href="../../d1/d42/namespacelamina.html#a14b812ff63e0f874b8f45b9d6c746195" target="_top" xlink:title="Solve an equation with assumption&#45;based domain filtering.">
<polygon fill="white" stroke="#666666" points="932,-164 823,-164 823,-134 932,-134 932,-164"/>
<text text-anchor="start" x="831" y="-152" font-family="Helvetica,sans-Serif" font-size="10.00">lamina::solve_with</text>
<text text-anchor="middle" x="877.5" y="-141" font-family="Helvetica,sans-Serif" font-size="10.00">_assumptions</text>
</a>
</g>
</g>
<!-- Node9&#45;&gt;Node29 -->
<g id="edge35_Node000009_Node000029" class="edge">
<title>Node9&#45;&gt;Node29</title>
<g id="a_edge35_Node000009_Node000029"><a xlink:title=" ">
<path fill="none" stroke="#63b8ff" d="M1044.62,-215.3C1023.16,-202.81 990.79,-185.05 961,-173 951.87,-169.31 941.97,-165.93 932.29,-162.94"/>
<polygon fill="#63b8ff" stroke="#63b8ff" points="1042.99,-218.4 1053.38,-220.46 1046.54,-212.37 1042.99,-218.4"/>
</a>
</g>
</g>
<!-- Node11 -->
<g id="Node000011" class="node">
<title>Node11</title>
<g id="a_Node000011"><a xlink:href="../../dc/d25/classSymbolicExpr.html#a7777100ca36b7a1a7285ece2380dcf4b" target="_top" xlink:title="计算矩阵的特征向量。">
<polygon fill="white" stroke="#666666" points="152,-153.5 0,-153.5 0,-134.5 152,-134.5 152,-153.5"/>
<text text-anchor="middle" x="76" y="-141.5" font-family="Helvetica,sans-Serif" font-size="10.00">SymbolicExpr::eigenvectors</text>
</a>
</g>
</g>
<!-- Node10&#45;&gt;Node11 -->
<g id="edge11_Node000010_Node000011" class="edge">
<title>Node10&#45;&gt;Node11</title>
<g id="a_edge11_Node000010_Node000011"><a xlink:title=" ">
<path fill="none" stroke="#63b8ff" d="M177.52,-144C169.04,-144 160.48,-144 152.11,-144"/>
<polygon fill="#63b8ff" stroke="#63b8ff" points="177.79,-147.5 187.79,-144 177.79,-140.5 177.79,-147.5"/>
</a>
</g>
</g>
<!-- Node13 -->
<g id="Node000013" class="node">
<title>Node13</title>
<g id="a_Node000013"><a xlink:href="../../dc/d25/classSymbolicExpr.html#a3b4cc1669b1b117b15cc82783a22b4fc" target="_top" xlink:title="计算矩阵行列式。">
<polygon fill="white" stroke="#666666" points="738.5,-153.5 589.5,-153.5 589.5,-134.5 738.5,-134.5 738.5,-153.5"/>
<text text-anchor="middle" x="664" y="-141.5" font-family="Helvetica,sans-Serif" font-size="10.00">SymbolicExpr::determinant</text>
</a>
</g>
</g>
<!-- Node12&#45;&gt;Node13 -->
<g id="edge13_Node000012_Node000013" class="edge">
<title>Node12&#45;&gt;Node13</title>
<g id="a_edge13_Node000012_Node000013"><a xlink:title=" ">
<path fill="none" stroke="#63b8ff" d="M824.58,-180.22C788.39,-172 740.74,-161.19 706.96,-153.52"/>
<polygon fill="#63b8ff" stroke="#63b8ff" points="823.93,-183.66 834.46,-182.46 825.48,-176.83 823.93,-183.66"/>
</a>
</g>
</g>
<!-- Node16 -->
<g id="Node000016" class="node">
<title>Node16</title>
<g id="a_Node000016"><a xlink:href="../../dc/d25/classSymbolicExpr.html#ae608271a617ef878c81d04375538537f" target="_top" xlink:title="计算两个多项式关于指定变量的结式。">
<polygon fill="white" stroke="#666666" points="719,-220 609,-220 609,-190 719,-190 719,-220"/>
<text text-anchor="start" x="617" y="-208" font-family="Helvetica,sans-Serif" font-size="10.00">SymbolicExpr::poly</text>
<text text-anchor="middle" x="664" y="-197" font-family="Helvetica,sans-Serif" font-size="10.00">_resultant</text>
</a>
</g>
</g>
<!-- Node12&#45;&gt;Node16 -->
<g id="edge18_Node000012_Node000016" class="edge">
<title>Node12&#45;&gt;Node16</title>
<g id="a_edge18_Node000012_Node000016"><a xlink:title=" ">
<path fill="none" stroke="#63b8ff" d="M808.42,-196.18C779.59,-197.96 746.46,-199.99 719.31,-201.66"/>
<polygon fill="#63b8ff" stroke="#63b8ff" points="808.66,-199.68 818.43,-195.57 808.23,-192.69 808.66,-199.68"/>
</a>
</g>
</g>
<!-- Node17 -->
<g id="Node000017" class="node">
<title>Node17</title>
<g id="a_Node000017"><a xlink:href="../../dc/d25/classSymbolicExpr.html#ae41c16b68c56de8d4c70a98c85722ff1" target="_top" xlink:title="计算矩阵的行最简阶梯形（RREF）。">
<polygon fill="white" stroke="#666666" points="717.5,-257.5 610.5,-257.5 610.5,-238.5 717.5,-238.5 717.5,-257.5"/>
<text text-anchor="middle" x="664" y="-245.5" font-family="Helvetica,sans-Serif" font-size="10.00">SymbolicExpr::rref</text>
</a>
</g>
</g>
<!-- Node12&#45;&gt;Node17 -->
<g id="edge19_Node000012_Node000017" class="edge">
<title>Node12&#45;&gt;Node17</title>
<g id="a_edge19_Node000012_Node000017"><a xlink:title=" ">
<path fill="none" stroke="#63b8ff" d="M832.15,-204.34C819.76,-207.94 806.31,-211.99 794,-216 777.82,-221.27 774.38,-224.4 758,-229 745.15,-232.61 731.12,-235.84 717.95,-238.57"/>
<polygon fill="#63b8ff" stroke="#63b8ff" points="833.19,-207.68 841.83,-201.56 831.25,-200.96 833.19,-207.68"/>
</a>
</g>
</g>
<!-- Node13&#45;&gt;Node13 -->
<g id="edge16_Node000013_Node000013" class="edge">
<title>Node13&#45;&gt;Node13</title>
<g id="a_edge16_Node000013_Node000013"><a xlink:title=" ">
<path fill="none" stroke="#63b8ff" d="M703.36,-160.81C703.95,-166.71 690.83,-171.5 664,-171.5 626.68,-171.5 615.89,-162.23 631.63,-153.58"/>
<polygon fill="#63b8ff" stroke="#63b8ff" points="705.84,-158.34 696.37,-153.58 700.8,-163.2 705.84,-158.34"/>
</a>
</g>
</g>
<!-- Node14 -->
<g id="Node000014" class="node">
<title>Node14</title>
<g id="a_Node000014"><a xlink:href="../../dc/d25/classSymbolicExpr.html#a6e8c5c20af88337d449cbf5771d5d28d" target="_top" xlink:title="计算矩阵的特征多项式。">
<polygon fill="white" stroke="#666666" points="519,-190.5 388,-190.5 388,-171.5 519,-171.5 519,-190.5"/>
<text text-anchor="middle" x="453.5" y="-178.5" font-family="Helvetica,sans-Serif" font-size="10.00">SymbolicExpr::charpoly</text>
</a>
</g>
</g>
<!-- Node13&#45;&gt;Node14 -->
<g id="edge14_Node000013_Node000014" class="edge">
<title>Node13&#45;&gt;Node14</title>
<g id="a_edge14_Node000013_Node000014"><a xlink:title=" ">
<path fill="none" stroke="#63b8ff" d="M599.25,-155.31C570.18,-160.47 536.14,-166.51 508.37,-171.44"/>
<polygon fill="#63b8ff" stroke="#63b8ff" points="600.07,-158.72 609.31,-153.53 598.85,-151.83 600.07,-158.72"/>
</a>
</g>
</g>
<!-- Node15 -->
<g id="Node000015" class="node">
<title>Node15</title>
<g id="a_Node000015"><a xlink:href="../../d1/d42/namespacelamina.html#a35783093777191a0254b7f3a2340e0f5" target="_top" xlink:title="计算符号矩阵的行列式">
<polygon fill="white" stroke="#666666" points="530.5,-153.5 376.5,-153.5 376.5,-134.5 530.5,-134.5 530.5,-153.5"/>
<text text-anchor="middle" x="453.5" y="-141.5" font-family="Helvetica,sans-Serif" font-size="10.00">lamina::matrix_determinant</text>
</a>
</g>
</g>
<!-- Node13&#45;&gt;Node15 -->
<g id="edge17_Node000013_Node000015" class="edge">
<title>Node13&#45;&gt;Node15</title>
<g id="a_edge17_Node000013_Node000015"><a xlink:title=" ">
<path fill="none" stroke="#63b8ff" d="M579.06,-144C563.01,-144 546.3,-144 530.52,-144"/>
<polygon fill="#63b8ff" stroke="#63b8ff" points="579.49,-147.5 589.49,-144 579.49,-140.5 579.49,-147.5"/>
</a>
</g>
</g>
<!-- Node14&#45;&gt;Node10 -->
<g id="edge15_Node000014_Node000010" class="edge">
<title>Node14&#45;&gt;Node10</title>
<g id="a_edge15_Node000014_Node000010"><a xlink:title=" ">
<path fill="none" stroke="#63b8ff" d="M393.67,-169.48C367.56,-164.37 337.17,-158.42 312.34,-153.56"/>
<polygon fill="#63b8ff" stroke="#63b8ff" points="393.34,-172.99 403.83,-171.47 394.69,-166.12 393.34,-172.99"/>
</a>
</g>
</g>
<!-- Node18 -->
<g id="Node000018" class="node">
<title>Node18</title>
<g id="a_Node000018"><a xlink:href="../../dc/d25/classSymbolicExpr.html#afa1c1c57bb6c77da5d016f69eaa60703" target="_top" xlink:title="计算矩阵的逆。">
<polygon fill="white" stroke="#666666" points="516,-257.5 391,-257.5 391,-238.5 516,-238.5 516,-257.5"/>
<text text-anchor="middle" x="453.5" y="-245.5" font-family="Helvetica,sans-Serif" font-size="10.00">SymbolicExpr::inverse</text>
</a>
</g>
</g>
<!-- Node17&#45;&gt;Node18 -->
<g id="edge20_Node000017_Node000018" class="edge">
<title>Node17&#45;&gt;Node18</title>
<g id="a_edge20_Node000017_Node000018"><a xlink:title=" ">
<path fill="none" stroke="#63b8ff" d="M600.07,-248C573.55,-248 542.77,-248 516.36,-248"/>
<polygon fill="#63b8ff" stroke="#63b8ff" points="600.39,-251.5 610.39,-248 600.39,-244.5 600.39,-251.5"/>
</a>
</g>
</g>
<!-- Node19 -->
<g id="Node000019" class="node">
<title>Node19</title>
<g id="a_Node000019"><a xlink:href="../../d1/d42/namespacelamina.html#a972455b000c18e71aefd4a84a5708edf" target="_top" xlink:title="计算符号矩阵的逆矩阵">
<polygon fill="white" stroke="#666666" points="327.5,-257.5 197.5,-257.5 197.5,-238.5 327.5,-238.5 327.5,-257.5"/>
<text text-anchor="middle" x="262.5" y="-245.5" font-family="Helvetica,sans-Serif" font-size="10.00">lamina::matrix_inverse</text>
</a>
</g>
</g>
<!-- Node18&#45;&gt;Node19 -->
<g id="edge21_Node000018_Node000019" class="edge">
<title>Node18&#45;&gt;Node19</title>
<g id="a_edge21_Node000018_Node000019"><a xlink:title=" ">
<path fill="none" stroke="#63b8ff" d="M380.74,-248C363.28,-248 344.72,-248 327.64,-248"/>
<polygon fill="#63b8ff" stroke="#63b8ff" points="380.88,-251.5 390.88,-248 380.88,-244.5 380.88,-251.5"/>
</a>
</g>
</g>
<!-- Node20&#45;&gt;Node21 -->
<g id="edge23_Node000020_Node000021" class="edge">
<title>Node20&#45;&gt;Node21</title>
<g id="a_edge23_Node000020_Node000021"><a xlink:title=" ">
<path fill="none" stroke="#63b8ff" d="M787.65,-316C777.89,-316 767.92,-316 758.1,-316"/>
<polygon fill="#63b8ff" stroke="#63b8ff" points="787.75,-319.5 797.75,-316 787.75,-312.5 787.75,-319.5"/>
</a>
</g>
</g>
<!-- Node21&#45;&gt;Node22 -->
<g id="edge24_Node000021_Node000022" class="edge">
<title>Node21&#45;&gt;Node22</title>
<g id="a_edge24_Node000021_Node000022"><a xlink:title=" ">
<path fill="none" stroke="#63b8ff" d="M559.66,-309.25C542.54,-309.24 525.38,-309.48 510.04,-309.95"/>
<polygon fill="#63b8ff" stroke="#63b8ff" points="559.72,-312.75 569.73,-309.28 559.74,-305.75 559.72,-312.75"/>
</a>
</g>
</g>
<!-- Node23 -->
<g id="Node000023" class="node">
<title>Node23</title>
<g id="a_Node000023"><a xlink:href="../../d1/d42/namespacelamina.html#a49ecca042975b1b60b3cfb5dd09f1ddc" target="_top" xlink:title="求解超越方程（三角、指数、对数类型）。">
<polygon fill="white" stroke="#666666" points="534,-384.5 373,-384.5 373,-365.5 534,-365.5 534,-384.5"/>
<text text-anchor="middle" x="453.5" y="-372.5" font-family="Helvetica,sans-Serif" font-size="10.00">lamina::solve_transcendental</text>
</a>
</g>
</g>
<!-- Node21&#45;&gt;Node23 -->
<g id="edge26_Node000021_Node000023" class="edge">
<title>Node21&#45;&gt;Node23</title>
<g id="a_edge26_Node000021_Node000023"><a xlink:title=" ">
<path fill="none" stroke="#63b8ff" d="M619,-328.45C579.93,-339.51 523.66,-355.43 488.1,-365.49"/>
<polygon fill="#63b8ff" stroke="#63b8ff" points="620.37,-331.7 629.04,-325.61 618.46,-324.97 620.37,-331.7"/>
</a>
</g>
</g>
<!-- Node22&#45;&gt;Node21 -->
<g id="edge25_Node000022_Node000021" class="edge">
<title>Node22&#45;&gt;Node21</title>
<g id="a_edge25_Node000022_Node000021"><a xlink:title=" ">
<path fill="none" stroke="#63b8ff" d="M520.17,-322.32C535.9,-322.69 553.01,-322.82 569.73,-322.72"/>
<polygon fill="#63b8ff" stroke="#63b8ff" points="520.13,-318.82 510.04,-322.05 519.94,-325.82 520.13,-318.82"/>
</a>
</g>
</g>
<!-- Node23&#45;&gt;Node8 -->
<g id="edge27_Node000023_Node000008" class="edge">
<title>Node23&#45;&gt;Node8</title>
<g id="a_edge27_Node000023_Node000008"><a xlink:title=" ">
<path fill="none" stroke="#63b8ff" d="M544.24,-376.9C707.96,-380.37 1051.29,-387.64 1193.36,-390.65"/>
<polygon fill="#63b8ff" stroke="#63b8ff" points="544.27,-373.4 534.2,-376.69 544.12,-380.4 544.27,-373.4"/>
</a>
</g>
</g>
<!-- Node25 -->
<g id="Node000025" class="node">
<title>Node25</title>
<g id="a_Node000025"><a xlink:href="../../d6/da9/classlamina_1_1ParametricSolver.html#a74760afed4b871db5baef1d0c7eef09e" target="_top" xlink:title="求解含参方程组，返回所有解">
<polygon fill="white" stroke="#666666" points="734,-78 594,-78 594,-48 734,-48 734,-78"/>
<text text-anchor="start" x="602" y="-66" font-family="Helvetica,sans-Serif" font-size="10.00">lamina::ParametricSolver</text>
<text text-anchor="middle" x="664" y="-55" font-family="Helvetica,sans-Serif" font-size="10.00">::solve_system</text>
</a>
</g>
</g>
<!-- Node24&#45;&gt;Node25 -->
<g id="edge30_Node000024_Node000025" class="edge">
<title>Node24&#45;&gt;Node25</title>
<g id="a_edge30_Node000024_Node000025"><a xlink:title=" ">
<path fill="none" stroke="#63b8ff" d="M783.58,-63C767.02,-63 750.04,-63 734.28,-63"/>
<polygon fill="#63b8ff" stroke="#63b8ff" points="783.82,-66.5 793.82,-63 783.82,-59.5 783.82,-66.5"/>
</a>
</g>
</g>
<!-- Node26 -->
<g id="Node000026" class="node">
<title>Node26</title>
<g id="a_Node000026"><a xlink:href="../../dc/d25/classSymbolicExpr.html#af7245cd8dd9c4c7f7f00d3772bbbecb3" target="_top" xlink:title="求解含参数的方程组。">
<polygon fill="white" stroke="#666666" points="511.5,-30 395.5,-30 395.5,0 511.5,0 511.5,-30"/>
<text text-anchor="start" x="403.5" y="-18" font-family="Helvetica,sans-Serif" font-size="10.00">SymbolicExpr::solve</text>
<text text-anchor="middle" x="453.5" y="-7" font-family="Helvetica,sans-Serif" font-size="10.00">_system</text>
</a>
</g>
</g>
<!-- Node25&#45;&gt;Node26 -->
<g id="edge31_Node000025_Node000026" class="edge">
<title>Node25&#45;&gt;Node26</title>
<g id="a_edge31_Node000025_Node000026"><a xlink:title=" ">
<path fill="none" stroke="#63b8ff" d="M587.74,-45.67C562.63,-39.89 535.07,-33.55 511.57,-28.14"/>
<polygon fill="#63b8ff" stroke="#63b8ff" points="587.07,-49.11 597.6,-47.94 588.64,-42.29 587.07,-49.11"/>
</a>
</g>
</g>
<!-- Node27 -->
<g id="Node000027" class="node">
<title>Node27</title>
<g id="a_Node000027"><a xlink:href="../../d6/da9/classlamina_1_1ParametricSolver.html#aee41c6cf8efdfc5c7485cd104981d95b" target="_top" xlink:title="求解含参方程组，返回按参数条件分段的解">
<polygon fill="white" stroke="#666666" points="525.5,-78 381.5,-78 381.5,-48 525.5,-48 525.5,-78"/>
<text text-anchor="start" x="389.5" y="-66" font-family="Helvetica,sans-Serif" font-size="10.00">lamina::ParametricSolver</text>
<text text-anchor="middle" x="453.5" y="-55" font-family="Helvetica,sans-Serif" font-size="10.00">::solve_system_piecewise</text>
</a>
</g>
</g>
<!-- Node25&#45;&gt;Node27 -->
<g id="edge32_Node000025_Node000027" class="edge">
<title>Node25&#45;&gt;Node27</title>
<g id="a_edge32_Node000025_Node000027"><a xlink:title=" ">
<path fill="none" stroke="#63b8ff" d="M583.69,-63C564.59,-63 544.29,-63 525.59,-63"/>
<polygon fill="#63b8ff" stroke="#63b8ff" points="583.86,-66.5 593.86,-63 583.86,-59.5 583.86,-66.5"/>
</a>
</g>
</g>
<!-- Node30&#45;&gt;Node6 -->
<g id="edge37_Node000030_Node000006" class="edge">
<title>Node30&#45;&gt;Node6</title>
<g id="a_edge37_Node000030_Node000006"><a xlink:title=" ">
<path fill="none" stroke="#63b8ff" d="M1168.55,-433.51C1104.87,-436.03 1019.69,-439.4 958.13,-441.84"/>
<polygon fill="#63b8ff" stroke="#63b8ff" points="1168.72,-437 1178.57,-433.11 1168.44,-430.01 1168.72,-437"/>
</a>
</g>
</g>
</g>
</svg>
