<?xml version="1.0" encoding="UTF-8" standalone="no"?>
<!DOCTYPE svg PUBLIC "-//W3C//DTD SVG 1.1//EN"
 "http://www.w3.org/Graphics/SVG/1.1/DTD/svg11.dtd">
<!-- Generated by graphviz version 2.43.0 (0)
 -->
<!-- Title: lamina::is_polynomial_node Pages: 1 -->
<svg width="587pt" height="51pt"
 viewBox="0.00 0.00 587.00 50.50" xmlns="http://www.w3.org/2000/svg" xmlns:xlink="http://www.w3.org/1999/xlink">
<g id="graph0" class="graph" transform="scale(1 1) rotate(0) translate(4 46.5)">
<title>lamina::is_polynomial_node</title>
<!-- Node1 -->
<g id="Node000001" class="node">
<title>Node1</title>
<g id="a_Node000001"><a xlink:title=" ">
<polygon fill="#999999" stroke="#666666" points="154,-24.5 0,-24.5 0,-5.5 154,-5.5 154,-24.5"/>
<text text-anchor="middle" x="77" y="-12.5" font-family="Helvetica,sans-Serif" font-size="10.00">lamina::is_polynomial_node</text>
</a>
</g>
</g>
<!-- Node1&#45;&gt;Node1 -->
<g id="edge4_Node000001_Node000001" class="edge">
<title>Node1&#45;&gt;Node1</title>
<g id="a_edge4_Node000001_Node000001"><a xlink:title=" ">
<path fill="none" stroke="#63b8ff" d="M51.11,-24.58C38.51,-33.23 47.14,-42.5 77,-42.5 97.06,-42.5 107.54,-38.32 108.44,-32.95"/>
<polygon fill="#63b8ff" stroke="#63b8ff" points="111.34,-30.99 102.89,-24.58 105.5,-34.85 111.34,-30.99"/>
</a>
</g>
</g>
<!-- Node2 -->
<g id="Node000002" class="node">
<title>Node2</title>
<g id="a_Node000002"><a xlink:href="../../d1/d42/namespacelamina.html#a08e206a84c66231031397b54b20cd543" target="_top" xlink:title=" ">
<polygon fill="white" stroke="#666666" points="302,-30 190,-30 190,0 302,0 302,-30"/>
<text text-anchor="start" x="198" y="-18" font-family="Helvetica,sans-Serif" font-size="10.00">lamina::get_integer</text>
<text text-anchor="middle" x="246" y="-7" font-family="Helvetica,sans-Serif" font-size="10.00">_value</text>
</a>
</g>
</g>
<!-- Node1&#45;&gt;Node2 -->
<g id="edge1_Node000001_Node000002" class="edge">
<title>Node1&#45;&gt;Node2</title>
<g id="a_edge1_Node000001_Node000002"><a xlink:title=" ">
<path fill="none" stroke="#63b8ff" d="M154.17,-15C162.73,-15 171.4,-15 179.8,-15"/>
<polygon fill="#63b8ff" stroke="#63b8ff" points="179.9,-18.5 189.9,-15 179.9,-11.5 179.9,-18.5"/>
</a>
</g>
</g>
<!-- Node3 -->
<g id="Node000003" class="node">
<title>Node3</title>
<g id="a_Node000003"><a xlink:href="../../d1/d42/namespacelamina.html#a78a46efcff5ce7151a74984c5381cd71" target="_top" xlink:title=" ">
<polygon fill="white" stroke="#666666" points="416,-24.5 338,-24.5 338,-5.5 416,-5.5 416,-24.5"/>
<text text-anchor="middle" x="377" y="-12.5" font-family="Helvetica,sans-Serif" font-size="10.00">lamina::num</text>
</a>
</g>
</g>
<!-- Node2&#45;&gt;Node3 -->
<g id="edge2_Node000002_Node000003" class="edge">
<title>Node2&#45;&gt;Node3</title>
<g id="a_edge2_Node000002_Node000003"><a xlink:title=" ">
<path fill="none" stroke="#63b8ff" d="M302.08,-15C310.65,-15 319.45,-15 327.84,-15"/>
<polygon fill="#63b8ff" stroke="#63b8ff" points="327.85,-18.5 337.85,-15 327.85,-11.5 327.85,-18.5"/>
</a>
</g>
</g>
<!-- Node4 -->
<g id="Node000004" class="node">
<title>Node4</title>
<g id="a_Node000004"><a xlink:href="../../dc/d25/classSymbolicExpr.html#adeb760bb6f4f28879108394537eca293" target="_top" xlink:title="创建整数数值表达式。">
<polygon fill="white" stroke="#666666" points="579,-24.5 452,-24.5 452,-5.5 579,-5.5 579,-24.5"/>
<text text-anchor="middle" x="515.5" y="-12.5" font-family="Helvetica,sans-Serif" font-size="10.00">SymbolicExpr::number</text>
</a>
</g>
</g>
<!-- Node3&#45;&gt;Node4 -->
<g id="edge3_Node000003_Node000004" class="edge">
<title>Node3&#45;&gt;Node4</title>
<g id="a_edge3_Node000003_Node000004"><a xlink:title=" ">
<path fill="none" stroke="#63b8ff" d="M416.02,-15C424.1,-15 432.89,-15 441.79,-15"/>
<polygon fill="#63b8ff" stroke="#63b8ff" points="441.84,-18.5 451.84,-15 441.84,-11.5 441.84,-18.5"/>
</a>
</g>
</g>
</g>
</svg>
