<?xml version="1.0" encoding="UTF-8" standalone="no"?>
<!DOCTYPE svg PUBLIC "-//W3C//DTD SVG 1.1//EN"
 "http://www.w3.org/Graphics/SVG/1.1/DTD/svg11.dtd">
<!-- Generated by graphviz version 2.43.0 (0)
 -->
<!-- Title: lamina::cauchy_bound Pages: 1 -->
<svg width="386pt" height="162pt"
 viewBox="0.00 0.00 386.00 161.50" xmlns="http://www.w3.org/2000/svg" xmlns:xlink="http://www.w3.org/1999/xlink">

<svg id="main" version="1.1" xmlns="http://www.w3.org/2000/svg" xmlns:xlink="http://www.w3.org/1999/xlink" xml:space="preserve" onload="init(evt)">
<style type="text/css"><![CDATA[
.node, .edge {opacity: 0.7;}
.node.selected, .edge.selected {opacity: 1;}
.edge:hover path { stroke: red; }
.edge:hover polygon { stroke: red; fill: red; }
]]></style>
<script type="application/ecmascript" xlink:href="../../svg.min.js"/>
<svg id="graph" class="graph">
<g id="graph0" class="graph" transform="scale(1 1) rotate(0) translate(4 157.5)">
<title>lamina::cauchy_bound</title>
<!-- Node1 -->
<g id="Node000001" class="node">
<title>Node1</title>
<g id="a_Node000001"><a xlink:title=" ">
<polygon fill="#999999" stroke="#666666" points="126,-88.5 0,-88.5 0,-69.5 126,-69.5 126,-88.5"/>
<text text-anchor="middle" x="63" y="-76.5" font-family="Helvetica,sans-Serif" font-size="10.00">lamina::cauchy_bound</text>
</a>
</g>
</g>
<!-- Node2 -->
<g id="Node000002" class="node">
<title>Node2</title>
<g id="a_Node000002"><a xlink:href="../../d8/da7/classRational.html#a3a67fdbb5c6be06e9d8c2fff817312bd" target="_top" xlink:title="取绝对值">
<polygon fill="white" stroke="#666666" points="257.5,-153.5 177.5,-153.5 177.5,-134.5 257.5,-134.5 257.5,-153.5"/>
<text text-anchor="middle" x="217.5" y="-141.5" font-family="Helvetica,sans-Serif" font-size="10.00">Rational::abs</text>
</a>
</g>
</g>
<!-- Node1&#45;&gt;Node2 -->
<g id="edge1_Node000001_Node000002" class="edge">
<title>Node1&#45;&gt;Node2</title>
<g id="a_edge1_Node000001_Node000002"><a xlink:title=" ">
<path fill="none" stroke="#63b8ff" d="M82.89,-88.58C102.44,-98.33 133.98,-113.58 162,-125 167.1,-127.08 172.53,-129.14 177.9,-131.1"/>
<polygon fill="#63b8ff" stroke="#63b8ff" points="176.85,-134.44 187.44,-134.49 179.19,-127.85 176.85,-134.44"/>
</a>
</g>
</g>
<!-- Node4 -->
<g id="Node000004" class="node">
<title>Node4</title>
<g id="a_Node000004"><a xlink:href="../../d8/d1e/classlamina_1_1Polynomial.html#aa4209c719c18fc882b702d88e397bdf4" target="_top" xlink:title="获取多项式的次数">
<polygon fill="white" stroke="#666666" points="273,-116 162,-116 162,-86 273,-86 273,-116"/>
<text text-anchor="start" x="170" y="-104" font-family="Helvetica,sans-Serif" font-size="10.00">lamina::Polynomial</text>
<text text-anchor="middle" x="217.5" y="-93" font-family="Helvetica,sans-Serif" font-size="10.00">::degree</text>
</a>
</g>
</g>
<!-- Node1&#45;&gt;Node4 -->
<g id="edge3_Node000001_Node000004" class="edge">
<title>Node1&#45;&gt;Node4</title>
<g id="a_edge3_Node000001_Node000004"><a xlink:title=" ">
<path fill="none" stroke="#63b8ff" d="M126.03,-87.95C134.56,-89.18 143.34,-90.45 151.92,-91.68"/>
<polygon fill="#63b8ff" stroke="#63b8ff" points="151.48,-95.16 161.87,-93.12 152.48,-88.23 151.48,-95.16"/>
</a>
</g>
</g>
<!-- Node5 -->
<g id="Node000005" class="node">
<title>Node5</title>
<g id="a_Node000005"><a xlink:href="../../d8/da7/classRational.html#a782a77721d3d519323bde766752cabdf" target="_top" xlink:title="判断是否为零">
<polygon fill="white" stroke="#666666" points="266.5,-67.5 168.5,-67.5 168.5,-48.5 266.5,-48.5 266.5,-67.5"/>
<text text-anchor="middle" x="217.5" y="-55.5" font-family="Helvetica,sans-Serif" font-size="10.00">Rational::is_zero</text>
</a>
</g>
</g>
<!-- Node1&#45;&gt;Node5 -->
<g id="edge4_Node000001_Node000005" class="edge">
<title>Node1&#45;&gt;Node5</title>
<g id="a_edge4_Node000001_Node000005"><a xlink:title=" ">
<path fill="none" stroke="#63b8ff" d="M126.03,-70.46C136.65,-69 147.66,-67.48 158.18,-66.03"/>
<polygon fill="#63b8ff" stroke="#63b8ff" points="158.66,-69.5 168.09,-64.67 157.71,-62.56 158.66,-69.5"/>
</a>
</g>
</g>
<!-- Node6 -->
<g id="Node000006" class="node">
<title>Node6</title>
<g id="a_Node000006"><a xlink:href="../../d8/d1e/classlamina_1_1Polynomial.html#ae491492c9a43d1dee5f86b4adf803cfa" target="_top" xlink:title="获取首项系数">
<polygon fill="white" stroke="#666666" points="273,-30 162,-30 162,0 273,0 273,-30"/>
<text text-anchor="start" x="170" y="-18" font-family="Helvetica,sans-Serif" font-size="10.00">lamina::Polynomial</text>
<text text-anchor="middle" x="217.5" y="-7" font-family="Helvetica,sans-Serif" font-size="10.00">::lead_coeff</text>
</a>
</g>
</g>
<!-- Node1&#45;&gt;Node6 -->
<g id="edge5_Node000001_Node000006" class="edge">
<title>Node1&#45;&gt;Node6</title>
<g id="a_edge5_Node000001_Node000006"><a xlink:title=" ">
<path fill="none" stroke="#63b8ff" d="M86.83,-69.42C109.05,-60.09 143.45,-45.66 171.23,-34"/>
<polygon fill="#63b8ff" stroke="#63b8ff" points="172.88,-37.1 180.75,-30 170.17,-30.65 172.88,-37.1"/>
</a>
</g>
</g>
<!-- Node3 -->
<g id="Node000003" class="node">
<title>Node3</title>
<g id="a_Node000003"><a xlink:href="../../da/d5b/classBigInt.html#a4bff1a207fd14cd96badb54d0a470c1a" target="_top" xlink:title="取绝对值">
<polygon fill="white" stroke="#666666" points="378,-153.5 309,-153.5 309,-134.5 378,-134.5 378,-153.5"/>
<text text-anchor="middle" x="343.5" y="-141.5" font-family="Helvetica,sans-Serif" font-size="10.00">BigInt::Abs</text>
</a>
</g>
</g>
<!-- Node2&#45;&gt;Node3 -->
<g id="edge2_Node000002_Node000003" class="edge">
<title>Node2&#45;&gt;Node3</title>
<g id="a_edge2_Node000002_Node000003"><a xlink:title=" ">
<path fill="none" stroke="#63b8ff" d="M257.73,-144C270.72,-144 285.26,-144 298.58,-144"/>
<polygon fill="#63b8ff" stroke="#63b8ff" points="298.94,-147.5 308.94,-144 298.94,-140.5 298.94,-147.5"/>
</a>
</g>
</g>
</g>
</svg>
</svg>

<style type='text/css'>
<![CDATA[
[data-mouse-over-selected='false'] { opacity: 0.7; }
[data-mouse-over-selected='true']  { opacity: 1.0; }
]]>
</style>
<script type="application/ecmascript"><![CDATA[
document.addEventListener('DOMContentLoaded', (event) => {
  highlightEdges();
  highlightAdjacentNodes();
});
]]></script>
</svg>
