<?xml version="1.0" encoding="UTF-8" standalone="no"?>
<!DOCTYPE svg PUBLIC "-//W3C//DTD SVG 1.1//EN"
 "http://www.w3.org/Graphics/SVG/1.1/DTD/svg11.dtd">
<!-- Generated by graphviz version 2.43.0 (0)
 -->
<!-- Title: lamina::is_polynomial_node Pages: 1 -->
<svg width="509pt" height="78pt"
 viewBox="0.00 0.00 509.00 78.00" xmlns="http://www.w3.org/2000/svg" xmlns:xlink="http://www.w3.org/1999/xlink">
<g id="graph0" class="graph" transform="scale(1 1) rotate(0) translate(4 74)">
<title>lamina::is_polynomial_node</title>
<!-- Node1 -->
<g id="Node000001" class="node">
<title>Node1</title>
<g id="a_Node000001"><a xlink:title=" ">
<polygon fill="#999999" stroke="#666666" points="501,-24.5 347,-24.5 347,-5.5 501,-5.5 501,-24.5"/>
<text text-anchor="middle" x="424" y="-12.5" font-family="Helvetica,sans-Serif" font-size="10.00">lamina::is_polynomial_node</text>
</a>
</g>
</g>
<!-- Node1&#45;&gt;Node1 -->
<g id="edge4_Node000001_Node000001" class="edge">
<title>Node1&#45;&gt;Node1</title>
<g id="a_edge4_Node000001_Node000001"><a xlink:title=" ">
<path fill="none" stroke="#63b8ff" d="M459.61,-32.57C459.09,-38.12 447.22,-42.5 424,-42.5 390.23,-42.5 380.47,-33.23 394.72,-24.58"/>
<polygon fill="#63b8ff" stroke="#63b8ff" points="462.23,-30.25 453.28,-24.58 456.75,-34.6 462.23,-30.25"/>
</a>
</g>
</g>
<!-- Node2 -->
<g id="Node000002" class="node">
<title>Node2</title>
<g id="a_Node000002"><a xlink:href="../../d1/d42/namespacelamina.html#a60a99cbe3050b05c924c9aefe32103e7" target="_top" xlink:title=" ">
<polygon fill="white" stroke="#666666" points="311,-52 155,-52 155,-22 311,-22 311,-52"/>
<text text-anchor="start" x="163" y="-40" font-family="Helvetica,sans-Serif" font-size="10.00">lamina::collect_denominator</text>
<text text-anchor="middle" x="233" y="-29" font-family="Helvetica,sans-Serif" font-size="10.00">_factors</text>
</a>
</g>
</g>
<!-- Node1&#45;&gt;Node2 -->
<g id="edge1_Node000001_Node000002" class="edge">
<title>Node1&#45;&gt;Node2</title>
<g id="a_edge1_Node000001_Node000002"><a xlink:title=" ">
<path fill="none" stroke="#63b8ff" d="M336.91,-25.02C328.32,-26.02 319.63,-27.03 311.13,-28.02"/>
<polygon fill="#63b8ff" stroke="#63b8ff" points="337.42,-28.49 346.94,-23.85 336.61,-21.53 337.42,-28.49"/>
</a>
</g>
</g>
<!-- Node3 -->
<g id="Node000003" class="node">
<title>Node3</title>
<g id="a_Node000003"><a xlink:href="../../d5/d6f/classlamina_1_1Solver.html#a622812464260dd689d26a7f66ae99633" target="_top" xlink:title="求解多项式方程组，返回所有解。">
<polygon fill="white" stroke="#666666" points="119,-30 0,-30 0,0 119,0 119,-30"/>
<text text-anchor="start" x="8" y="-18" font-family="Helvetica,sans-Serif" font-size="10.00">lamina::Solver::solve</text>
<text text-anchor="middle" x="59.5" y="-7" font-family="Helvetica,sans-Serif" font-size="10.00">_polynomial_system</text>
</a>
</g>
</g>
<!-- Node1&#45;&gt;Node3 -->
<g id="edge5_Node000001_Node000003" class="edge">
<title>Node1&#45;&gt;Node3</title>
<g id="a_edge5_Node000001_Node000003"><a xlink:title=" ">
<path fill="none" stroke="#63b8ff" d="M336.64,-13.3C327.98,-13.18 319.32,-13.07 311,-13 241.67,-12.38 224.33,-12.27 155,-13 143.43,-13.12 131.07,-13.33 119.22,-13.56"/>
<polygon fill="#63b8ff" stroke="#63b8ff" points="336.74,-16.81 346.79,-13.46 336.84,-9.81 336.74,-16.81"/>
</a>
</g>
</g>
<!-- Node2&#45;&gt;Node2 -->
<g id="edge2_Node000002_Node000002" class="edge">
<title>Node2&#45;&gt;Node2</title>
<g id="a_edge2_Node000002_Node000002"><a xlink:title=" ">
<path fill="none" stroke="#63b8ff" d="M263.11,-62.6C258.99,-66.97 248.96,-70 233,-70 206.12,-70 196.05,-61.41 202.77,-52.28"/>
<polygon fill="#63b8ff" stroke="#63b8ff" points="266.61,-62.32 263.23,-52.28 259.61,-62.23 266.61,-62.32"/>
</a>
</g>
</g>
<!-- Node2&#45;&gt;Node3 -->
<g id="edge3_Node000002_Node000003" class="edge">
<title>Node2&#45;&gt;Node3</title>
<g id="a_edge3_Node000002_Node000003"><a xlink:title=" ">
<path fill="none" stroke="#63b8ff" d="M144.62,-25.79C135.96,-24.68 127.31,-23.57 119.05,-22.51"/>
<polygon fill="#63b8ff" stroke="#63b8ff" points="144.41,-29.29 154.78,-27.09 145.31,-22.35 144.41,-29.29"/>
</a>
</g>
</g>
</g>
</svg>
