<?xml version="1.0" encoding="UTF-8" standalone="no"?>
<!DOCTYPE svg PUBLIC "-//W3C//DTD SVG 1.1//EN"
 "http://www.w3.org/Graphics/SVG/1.1/DTD/svg11.dtd">
<!-- Generated by graphviz version 2.43.0 (0)
 -->
<!-- Title: lamina::collect_power_exponents Pages: 1 -->
<!--zoomable 151 -->

<svg id="main" version="1.1" xmlns="http://www.w3.org/2000/svg" xmlns:xlink="http://www.w3.org/1999/xlink" xml:space="preserve" onload="init(evt)">
<style type="text/css"><![CDATA[
.node, .edge {opacity: 0.7;}
.node.selected, .edge.selected {opacity: 1;}
.edge:hover path { stroke: red; }
.edge:hover polygon { stroke: red; fill: red; }
]]></style>

<defs>
  <circle id="rim" cx="0" cy="0" r="7"/>
  <circle id="rim2" cx="0" cy="0" r="3.5"/>
  <g id="zoomPlus">
    <use xlink:href="#rim" fill="#404040"><set attributeName="fill" to="#808080" begin="zoomplus.mouseover" end="zoomplus.mouseout"/></use>
    <path d="M-4,0h8M0,-4v8" fill="none" stroke="white" stroke-width="1.5" pointer-events="none"/>
  </g>
  <g id="zoomMin">
    <use xlink:href="#rim" fill="#404040"><set attributeName="fill" to="#808080" begin="zoomminus.mouseover" end="zoomminus.mouseout"/></use>
    <path d="M-4,0h8" fill="none" stroke="white" stroke-width="1.5" pointer-events="none"/>
  </g>
  <g id="arrowUp" transform="translate(30 24)">
    <use xlink:href="#rim"/>
    <path pointer-events="none" fill="none" stroke="white" stroke-width="1.5" d="M0,-3.0v7 M-2.5,-0.5L0,-3.0L2.5,-0.5"/>
  </g>
  <g id="arrowRight" transform="rotate(90) translate(36 -43)">
    <use xlink:href="#rim"/>
    <path pointer-events="none" fill="none" stroke="white" stroke-width="1.5" d="M0,-3.0v7 M-2.5,-0.5L0,-3.0L2.5,-0.5"/>
  </g>
  <g id="arrowDown" transform="rotate(180) translate(-30 -48)">
    <use xlink:href="#rim"/>
    <path pointer-events="none" fill="none" stroke="white" stroke-width="1.5" d="M0,-3.0v7 M-2.5,-0.5L0,-3.0L2.5,-0.5"/>
  </g>
  <g id="arrowLeft" transform="rotate(270) translate(-36 17)">
    <use xlink:href="#rim"/>
    <path pointer-events="none" fill="none" stroke="white" stroke-width="1.5" d="M0,-3.0v7 M-2.5,-0.5L0,-3.0L2.5,-0.5"/>
  </g>
  <g id="resetDef">
    <use xlink:href="#rim2" fill="#404040"><set attributeName="fill" to="#808080" begin="reset.mouseover" end="reset.mouseout"/></use>
  </g>
</defs>
<script type="application/ecmascript">
var viewWidth = 707;
var viewHeight = 151;
var sectionId = 'dynsection-26';
</script>
<script type="application/ecmascript" xlink:href="../../svg.min.js"/>
<svg id="graph" class="graph">
<g id="viewport">
<title>lamina::collect_power_exponents</title>
<!-- Node1 -->
<g id="Node000001" class="node">
<title>Node1</title>
<g id="a_Node000001"><a xlink:title="Helper: collect positive integer exponents that appear in PowerNode expressions within the RelationSt...">
<polygon fill="#999999" stroke="#666666" points="124,-91.5 0,-91.5 0,-61.5 124,-61.5 124,-91.5"/>
<text text-anchor="start" x="8" y="-79.5" font-family="Helvetica,sans-Serif" font-size="10.00">lamina::collect_power</text>
<text text-anchor="middle" x="62" y="-68.5" font-family="Helvetica,sans-Serif" font-size="10.00">_exponents</text>
</a>
</g>
</g>
<!-- Node2 -->
<g id="Node000002" class="node">
<title>Node2</title>
<g id="a_Node000002"><a xlink:href="../../de/db6/classlamina_1_1RelationStore.html#a3b4fb9340907a7428c78d50cf29a8c71" target="_top" xlink:title="Retrieve all stored relations.">
<polygon fill="white" stroke="#666666" points="282,-139.5 160,-139.5 160,-109.5 282,-109.5 282,-139.5"/>
<text text-anchor="start" x="168" y="-127.5" font-family="Helvetica,sans-Serif" font-size="10.00">lamina::RelationStore</text>
<text text-anchor="middle" x="221" y="-116.5" font-family="Helvetica,sans-Serif" font-size="10.00">::get_relations</text>
</a>
</g>
</g>
<!-- Node1&#45;&gt;Node2 -->
<g id="edge1_Node000001_Node000002" class="edge">
<title>Node1&#45;&gt;Node2</title>
<g id="a_edge1_Node000001_Node000002"><a xlink:title=" ">
<path fill="none" stroke="#63b8ff" d="M112.25,-91.56C127.74,-96.29 145,-101.57 161.09,-106.49"/>
<polygon fill="#63b8ff" stroke="#63b8ff" points="160.34,-109.92 170.93,-109.5 162.39,-103.23 160.34,-109.92"/>
</a>
</g>
</g>
<!-- Node3 -->
<g id="Node000003" class="node">
<title>Node3</title>
<g id="a_Node000003"><a xlink:href="../../d1/d42/namespacelamina.html#ad3c87dacbe9ec73aa7f44f10ef1b2138" target="_top" xlink:title="Helper: check if a NumberNode holds a positive integer value (&gt; 0).">
<polygon fill="white" stroke="#666666" points="275.5,-91.5 166.5,-91.5 166.5,-61.5 275.5,-61.5 275.5,-91.5"/>
<text text-anchor="start" x="174.5" y="-79.5" font-family="Helvetica,sans-Serif" font-size="10.00">lamina::is_positive</text>
<text text-anchor="middle" x="221" y="-68.5" font-family="Helvetica,sans-Serif" font-size="10.00">_integer_number</text>
</a>
</g>
</g>
<!-- Node1&#45;&gt;Node3 -->
<g id="edge2_Node000001_Node000003" class="edge">
<title>Node1&#45;&gt;Node3</title>
<g id="a_edge2_Node000001_Node000003"><a xlink:title=" ">
<path fill="none" stroke="#63b8ff" d="M124.15,-76.5C134.72,-76.5 145.73,-76.5 156.37,-76.5"/>
<polygon fill="#63b8ff" stroke="#63b8ff" points="156.42,-80 166.42,-76.5 156.42,-73 156.42,-80"/>
</a>
</g>
</g>
<!-- Node8 -->
<g id="Node000008" class="node">
<title>Node8</title>
<g id="a_Node000008"><a xlink:href="../../da/d5b/classBigInt.html#a1e3ed7be0093cfa492a79c5352ccad71" target="_top" xlink:title="转换为十进制字符串（同 ToString）">
<polygon fill="white" stroke="#666666" points="268,-35 174,-35 174,-16 268,-16 268,-35"/>
<text text-anchor="middle" x="221" y="-23" font-family="Helvetica,sans-Serif" font-size="10.00">BigInt::to_string</text>
</a>
</g>
</g>
<!-- Node1&#45;&gt;Node8 -->
<g id="edge8_Node000001_Node000008" class="edge">
<title>Node1&#45;&gt;Node8</title>
<g id="a_edge8_Node000001_Node000008"><a xlink:title=" ">
<path fill="none" stroke="#63b8ff" d="M109.26,-61.47C132,-54.08 159.12,-45.28 180.83,-38.22"/>
<polygon fill="#63b8ff" stroke="#63b8ff" points="181.96,-41.54 190.39,-35.12 179.8,-34.88 181.96,-41.54"/>
</a>
</g>
</g>
<!-- Node4 -->
<g id="Node000004" class="node">
<title>Node4</title>
<g id="a_Node000004"><a xlink:href="../../d1/d42/namespacelamina.html#aeeeb7abf5018ea3dfda0a676e8a3c54f" target="_top" xlink:title="Helper: check if a NumberNode holds an integer value.">
<polygon fill="white" stroke="#666666" points="422,-142.5 318,-142.5 318,-112.5 422,-112.5 422,-142.5"/>
<text text-anchor="start" x="326" y="-130.5" font-family="Helvetica,sans-Serif" font-size="10.00">lamina::is_integer</text>
<text text-anchor="middle" x="370" y="-119.5" font-family="Helvetica,sans-Serif" font-size="10.00">_number</text>
</a>
</g>
</g>
<!-- Node3&#45;&gt;Node4 -->
<g id="edge3_Node000003_Node000004" class="edge">
<title>Node3&#45;&gt;Node4</title>
<g id="a_edge3_Node000003_Node000004"><a xlink:title=" ">
<path fill="none" stroke="#63b8ff" d="M265.31,-91.53C281.24,-97.05 299.46,-103.37 316.13,-109.16"/>
<polygon fill="#63b8ff" stroke="#63b8ff" points="315.15,-112.52 325.75,-112.49 317.45,-105.91 315.15,-112.52"/>
</a>
</g>
</g>
<!-- Node5 -->
<g id="Node000005" class="node">
<title>Node5</title>
<g id="a_Node000005"><a xlink:href="../../d1/d42/namespacelamina.html#a78a46efcff5ce7151a74984c5381cd71" target="_top" xlink:title=" ">
<polygon fill="white" stroke="#666666" points="536,-115 458,-115 458,-96 536,-96 536,-115"/>
<text text-anchor="middle" x="497" y="-103" font-family="Helvetica,sans-Serif" font-size="10.00">lamina::num</text>
</a>
</g>
</g>
<!-- Node3&#45;&gt;Node5 -->
<g id="edge7_Node000003_Node000005" class="edge">
<title>Node3&#45;&gt;Node5</title>
<g id="a_edge7_Node000003_Node000005"><a xlink:title=" ">
<path fill="none" stroke="#63b8ff" d="M275.81,-82.19C325.75,-87.48 399.45,-95.28 447.59,-100.38"/>
<polygon fill="#63b8ff" stroke="#63b8ff" points="447.44,-103.88 457.75,-101.45 448.18,-96.92 447.44,-103.88"/>
</a>
</g>
</g>
<!-- Node7 -->
<g id="Node000007" class="node">
<title>Node7</title>
<g id="a_Node000007"><a xlink:href="../../da/d5b/classBigInt.html#ae5d874ccb625319e093bec91b29e5a24" target="_top" xlink:title="判断是否为负数">
<polygon fill="white" stroke="#666666" points="422,-56 318,-56 318,-37 422,-37 422,-56"/>
<text text-anchor="middle" x="370" y="-44" font-family="Helvetica,sans-Serif" font-size="10.00">BigInt::IsNegative</text>
</a>
</g>
</g>
<!-- Node3&#45;&gt;Node7 -->
<g id="edge6_Node000003_Node000007" class="edge">
<title>Node3&#45;&gt;Node7</title>
<g id="a_edge6_Node000003_Node000007"><a xlink:title=" ">
<path fill="none" stroke="#63b8ff" d="M275.9,-65.5C287.81,-63.07 300.46,-60.49 312.47,-58.04"/>
<polygon fill="#63b8ff" stroke="#63b8ff" points="313.27,-61.45 322.37,-56.02 311.87,-54.59 313.27,-61.45"/>
</a>
</g>
</g>
<!-- Node4&#45;&gt;Node5 -->
<g id="edge4_Node000004_Node000005" class="edge">
<title>Node4&#45;&gt;Node5</title>
<g id="a_edge4_Node000004_Node000005"><a xlink:title=" ">
<path fill="none" stroke="#63b8ff" d="M422.2,-118.49C430.64,-117 439.36,-115.47 447.72,-114"/>
<polygon fill="#63b8ff" stroke="#63b8ff" points="448.46,-117.42 457.7,-112.24 447.24,-110.53 448.46,-117.42"/>
</a>
</g>
</g>
<!-- Node6 -->
<g id="Node000006" class="node">
<title>Node6</title>
<g id="a_Node000006"><a xlink:href="../../dc/d25/classSymbolicExpr.html#adeb760bb6f4f28879108394537eca293" target="_top" xlink:title="创建整数数值表达式。">
<polygon fill="white" stroke="#666666" points="699,-115 572,-115 572,-96 699,-96 699,-115"/>
<text text-anchor="middle" x="635.5" y="-103" font-family="Helvetica,sans-Serif" font-size="10.00">SymbolicExpr::number</text>
</a>
</g>
</g>
<!-- Node5&#45;&gt;Node6 -->
<g id="edge5_Node000005_Node000006" class="edge">
<title>Node5&#45;&gt;Node6</title>
<g id="a_edge5_Node000005_Node000006"><a xlink:title=" ">
<path fill="none" stroke="#63b8ff" d="M536.02,-105.5C544.1,-105.5 552.89,-105.5 561.79,-105.5"/>
<polygon fill="#63b8ff" stroke="#63b8ff" points="561.84,-109 571.84,-105.5 561.84,-102 561.84,-109"/>
</a>
</g>
</g>
<!-- Node9 -->
<g id="Node000009" class="node">
<title>Node9</title>
<g id="a_Node000009"><a xlink:href="../../da/d5b/classBigInt.html#abcf20f7b1da4376607029ec291481593" target="_top" xlink:title="转换为十进制字符串">
<polygon fill="white" stroke="#666666" points="415,-19 325,-19 325,0 415,0 415,-19"/>
<text text-anchor="middle" x="370" y="-7" font-family="Helvetica,sans-Serif" font-size="10.00">BigInt::ToString</text>
</a>
</g>
</g>
<!-- Node8&#45;&gt;Node9 -->
<g id="edge9_Node000008_Node000009" class="edge">
<title>Node8&#45;&gt;Node9</title>
<g id="a_edge9_Node000008_Node000009"><a xlink:title=" ">
<path fill="none" stroke="#63b8ff" d="M268.11,-20.48C282.82,-18.88 299.23,-17.09 314.48,-15.43"/>
<polygon fill="#63b8ff" stroke="#63b8ff" points="315.25,-18.87 324.81,-14.31 314.49,-11.91 315.25,-18.87"/>
</a>
</g>
</g>
</g>
</svg>

<g id="navigator" transform="translate(0 0)" fill="#404254">
  <rect fill="#f2f5e9" fill-opacity="0.5" stroke="#606060" stroke-width=".5" x="0" y="0" width="60" height="60"/>
  <use id="zoomplus" xlink:href="#zoomPlus" x="17" y="9" onmousedown="handleZoom(evt,'in')"/>
  <use id="zoomminus" xlink:href="#zoomMin" x="42" y="9" onmousedown="handleZoom(evt,'out')"/>
  <use id="reset" xlink:href="#resetDef" x="30" y="36" onmousedown="handleReset()"/>
   <use id="arrowup" xlink:href="#arrowUp" x="0" y="0" onmousedown="handlePan(0,-1)"/>
  <use id="arrowright" xlink:href="#arrowRight" x="0" y="0" onmousedown="handlePan(1,0)"/>
  <use id="arrowdown" xlink:href="#arrowDown" x="0" y="0" onmousedown="handlePan(0,1)"/>
  <use id="arrowleft" xlink:href="#arrowLeft" x="0" y="0" onmousedown="handlePan(-1,0)"/>
</g>
<svg viewBox="0 0 15 15" width="100%" height="30px" preserveAspectRatio="xMaxYMin meet">
 <g id="arrow_out" transform="scale(0.3 0.3)">
  <a xlink:href="namespacelamina_afc17d632a1a0e29f914166b257c5b3aa_cgraph_org.svg" target="_base">
   <rect id="button" ry="5" rx="5" y="6" x="6" height="38" width="38"
        fill="#f2f5e9" fill-opacity="0.5" stroke="#606060" stroke-width="1.0"/>
   <path id="arrow"
     d="M 11.500037,31.436501 C 11.940474,20.09759 22.043105,11.32322 32.158766,21.979434 L 37.068811,17.246167 C 37.068811,17.246167 37.088388,32 37.088388,32 L 22.160133,31.978069 C 22.160133,31.978069 26.997745,27.140456 26.997745,27.140456 C 18.528582,18.264221 13.291696,25.230495 11.500037,31.436501 z"
     style="fill:#404040;"/>
  </a>
 </g>
</svg>

<style type='text/css'>
<![CDATA[
[data-mouse-over-selected='false'] { opacity: 0.7; }
[data-mouse-over-selected='true']  { opacity: 1.0; }
]]>
</style>
<script type="application/ecmascript"><![CDATA[
document.addEventListener('DOMContentLoaded', (event) => {
  highlightEdges();
  highlightAdjacentNodes();
});
]]></script>
</svg>
