<?xml version="1.0" encoding="UTF-8" standalone="no"?>
<!DOCTYPE svg PUBLIC "-//W3C//DTD SVG 1.1//EN"
 "http://www.w3.org/Graphics/SVG/1.1/DTD/svg11.dtd">
<!-- Generated by graphviz version 2.43.0 (0)
 -->
<!-- Title: lamina::contains Pages: 1 -->
<svg width="665pt" height="132pt"
 viewBox="0.00 0.00 665.00 132.00" xmlns="http://www.w3.org/2000/svg" xmlns:xlink="http://www.w3.org/1999/xlink">
<g id="graph0" class="graph" transform="scale(1 1) rotate(0) translate(4 128)">
<title>lamina::contains</title>
<!-- Node1 -->
<g id="Node000001" class="node">
<title>Node1</title>
<g id="a_Node000001"><a xlink:title="判断符号表达式是否包含指定变量">
<polygon fill="#999999" stroke="#666666" points="657,-72.5 559,-72.5 559,-53.5 657,-53.5 657,-72.5"/>
<text text-anchor="middle" x="608" y="-60.5" font-family="Helvetica,sans-Serif" font-size="10.00">lamina::contains</text>
</a>
</g>
</g>
<!-- Node2 -->
<g id="Node000002" class="node">
<title>Node2</title>
<g id="a_Node000002"><a xlink:href="../../d1/d42/namespacelamina.html#a45104719127eb6f4f52940a69336f2a2" target="_top" xlink:title=" ">
<polygon fill="white" stroke="#666666" points="307.5,-124 192.5,-124 192.5,-94 307.5,-94 307.5,-124"/>
<text text-anchor="start" x="200.5" y="-112" font-family="Helvetica,sans-Serif" font-size="10.00">lamina::depends_on</text>
<text text-anchor="middle" x="250" y="-101" font-family="Helvetica,sans-Serif" font-size="10.00">_parameters</text>
</a>
</g>
</g>
<!-- Node1&#45;&gt;Node2 -->
<g id="edge1_Node000001_Node000002" class="edge">
<title>Node1&#45;&gt;Node2</title>
<g id="a_edge1_Node000001_Node000002"><a xlink:title=" ">
<path fill="none" stroke="#63b8ff" d="M568.99,-75.58C554.71,-79.85 538.25,-84.23 523,-87 449.35,-100.36 363,-105.61 307.68,-107.67"/>
<polygon fill="#63b8ff" stroke="#63b8ff" points="570.42,-78.81 578.95,-72.52 568.36,-72.11 570.42,-78.81"/>
</a>
</g>
</g>
<!-- Node4 -->
<g id="Node000004" class="node">
<title>Node4</title>
<g id="a_Node000004"><a xlink:href="../../d6/da9/classlamina_1_1ParametricSolver.html#a41d42755b42e64784e9bc7c7f6f5715f" target="_top" xlink:title="求解关于未知数为多项式的含参方程组">
<polygon fill="white" stroke="#666666" points="523,-78 356,-78 356,-48 523,-48 523,-78"/>
<text text-anchor="start" x="364" y="-66" font-family="Helvetica,sans-Serif" font-size="10.00">lamina::ParametricSolver</text>
<text text-anchor="middle" x="439.5" y="-55" font-family="Helvetica,sans-Serif" font-size="10.00">::solve_polynomial_parametric</text>
</a>
</g>
</g>
<!-- Node1&#45;&gt;Node4 -->
<g id="edge3_Node000001_Node000004" class="edge">
<title>Node1&#45;&gt;Node4</title>
<g id="a_edge3_Node000001_Node000004"><a xlink:title=" ">
<path fill="none" stroke="#63b8ff" d="M548.59,-63C540.31,-63 531.68,-63 523.06,-63"/>
<polygon fill="#63b8ff" stroke="#63b8ff" points="548.84,-66.5 558.84,-63 548.84,-59.5 548.84,-66.5"/>
</a>
</g>
</g>
<!-- Node7 -->
<g id="Node000007" class="node">
<title>Node7</title>
<g id="a_Node000007"><a xlink:href="../../d5/d6f/classlamina_1_1Solver.html#a622812464260dd689d26a7f66ae99633" target="_top" xlink:title="求解多项式方程组，返回所有解。">
<polygon fill="white" stroke="#666666" points="499,-30 380,-30 380,0 499,0 499,-30"/>
<text text-anchor="start" x="388" y="-18" font-family="Helvetica,sans-Serif" font-size="10.00">lamina::Solver::solve</text>
<text text-anchor="middle" x="439.5" y="-7" font-family="Helvetica,sans-Serif" font-size="10.00">_polynomial_system</text>
</a>
</g>
</g>
<!-- Node1&#45;&gt;Node7 -->
<g id="edge7_Node000001_Node000007" class="edge">
<title>Node1&#45;&gt;Node7</title>
<g id="a_edge7_Node000001_Node000007"><a xlink:title=" ">
<path fill="none" stroke="#63b8ff" d="M564.08,-50.63C542.31,-44.35 515.7,-36.68 492.75,-30.06"/>
<polygon fill="#63b8ff" stroke="#63b8ff" points="563.13,-53.99 573.71,-53.4 565.07,-47.27 563.13,-53.99"/>
</a>
</g>
</g>
<!-- Node3 -->
<g id="Node000003" class="node">
<title>Node3</title>
<g id="a_Node000003"><a xlink:href="../../d6/da9/classlamina_1_1ParametricSolver.html#aee41c6cf8efdfc5c7485cd104981d95b" target="_top" xlink:title="求解含参方程组，返回按参数条件分段的解">
<polygon fill="white" stroke="#666666" points="144,-124 0,-124 0,-94 144,-94 144,-124"/>
<text text-anchor="start" x="8" y="-112" font-family="Helvetica,sans-Serif" font-size="10.00">lamina::ParametricSolver</text>
<text text-anchor="middle" x="72" y="-101" font-family="Helvetica,sans-Serif" font-size="10.00">::solve_system_piecewise</text>
</a>
</g>
</g>
<!-- Node2&#45;&gt;Node3 -->
<g id="edge2_Node000002_Node000003" class="edge">
<title>Node2&#45;&gt;Node3</title>
<g id="a_edge2_Node000002_Node000003"><a xlink:title=" ">
<path fill="none" stroke="#63b8ff" d="M182.07,-109C169.64,-109 156.61,-109 144.06,-109"/>
<polygon fill="#63b8ff" stroke="#63b8ff" points="182.34,-112.5 192.34,-109 182.34,-105.5 182.34,-112.5"/>
</a>
</g>
</g>
<!-- Node5 -->
<g id="Node000005" class="node">
<title>Node5</title>
<g id="a_Node000005"><a xlink:href="../../d6/da9/classlamina_1_1ParametricSolver.html#a74760afed4b871db5baef1d0c7eef09e" target="_top" xlink:title="求解含参方程组，返回所有解">
<polygon fill="white" stroke="#666666" points="320,-76 180,-76 180,-46 320,-46 320,-76"/>
<text text-anchor="start" x="188" y="-64" font-family="Helvetica,sans-Serif" font-size="10.00">lamina::ParametricSolver</text>
<text text-anchor="middle" x="250" y="-53" font-family="Helvetica,sans-Serif" font-size="10.00">::solve_system</text>
</a>
</g>
</g>
<!-- Node4&#45;&gt;Node5 -->
<g id="edge4_Node000004_Node000005" class="edge">
<title>Node4&#45;&gt;Node5</title>
<g id="a_edge4_Node000004_Node000005"><a xlink:title=" ">
<path fill="none" stroke="#63b8ff" d="M345.83,-62.01C337.16,-61.92 328.48,-61.83 320.08,-61.74"/>
<polygon fill="#63b8ff" stroke="#63b8ff" points="345.95,-65.51 355.99,-62.12 346.02,-58.51 345.95,-65.51"/>
</a>
</g>
</g>
<!-- Node5&#45;&gt;Node3 -->
<g id="edge6_Node000005_Node000003" class="edge">
<title>Node5&#45;&gt;Node3</title>
<g id="a_edge6_Node000005_Node000003"><a xlink:title=" ">
<path fill="none" stroke="#63b8ff" d="M184.03,-78.72C165.62,-83.74 145.77,-89.15 128.01,-94"/>
<polygon fill="#63b8ff" stroke="#63b8ff" points="185.07,-82.06 193.8,-76.06 183.23,-75.31 185.07,-82.06"/>
</a>
</g>
</g>
<!-- Node6 -->
<g id="Node000006" class="node">
<title>Node6</title>
<g id="a_Node000006"><a xlink:href="../../dc/d25/classSymbolicExpr.html#af7245cd8dd9c4c7f7f00d3772bbbecb3" target="_top" xlink:title="求解含参数的方程组。">
<polygon fill="white" stroke="#666666" points="130,-76 14,-76 14,-46 130,-46 130,-76"/>
<text text-anchor="start" x="22" y="-64" font-family="Helvetica,sans-Serif" font-size="10.00">SymbolicExpr::solve</text>
<text text-anchor="middle" x="72" y="-53" font-family="Helvetica,sans-Serif" font-size="10.00">_system</text>
</a>
</g>
</g>
<!-- Node5&#45;&gt;Node6 -->
<g id="edge5_Node000005_Node000006" class="edge">
<title>Node5&#45;&gt;Node6</title>
<g id="a_edge5_Node000005_Node000006"><a xlink:title=" ">
<path fill="none" stroke="#63b8ff" d="M169.82,-61C156.47,-61 142.86,-61 130.21,-61"/>
<polygon fill="#63b8ff" stroke="#63b8ff" points="169.95,-64.5 179.95,-61 169.95,-57.5 169.95,-64.5"/>
</a>
</g>
</g>
</g>
</svg>
