<?xml version="1.0" encoding="UTF-8" standalone="no"?>
<!DOCTYPE svg PUBLIC "-//W3C//DTD SVG 1.1//EN"
 "http://www.w3.org/Graphics/SVG/1.1/DTD/svg11.dtd">
<!-- Generated by graphviz version 2.43.0 (0)
 -->
<!-- Title: lamina::count_sign_changes Pages: 1 -->
<svg width="2079pt" height="454pt"
 viewBox="0.00 0.00 2079.00 454.00" xmlns="http://www.w3.org/2000/svg" xmlns:xlink="http://www.w3.org/1999/xlink">
<g id="graph0" class="graph" transform="scale(1 1) rotate(0) translate(4 450)">
<title>lamina::count_sign_changes</title>
<!-- Node1 -->
<g id="Node000001" class="node">
<title>Node1</title>
<g id="a_Node000001"><a xlink:title=" ">
<polygon fill="#999999" stroke="#666666" points="2071,-78 1962,-78 1962,-48 2071,-48 2071,-78"/>
<text text-anchor="start" x="1970" y="-66" font-family="Helvetica,sans-Serif" font-size="10.00">lamina::count_sign</text>
<text text-anchor="middle" x="2016.5" y="-55" font-family="Helvetica,sans-Serif" font-size="10.00">_changes</text>
</a>
</g>
</g>
<!-- Node2 -->
<g id="Node000002" class="node">
<title>Node2</title>
<g id="a_Node000002"><a xlink:href="../../d1/d42/namespacelamina.html#addedbe32987a77bd369068dc87be2c3f" target="_top" xlink:title=" ">
<polygon fill="white" stroke="#666666" points="1921.5,-126 1811.5,-126 1811.5,-96 1921.5,-96 1921.5,-126"/>
<text text-anchor="start" x="1819.5" y="-114" font-family="Helvetica,sans-Serif" font-size="10.00">lamina::sturm_sign</text>
<text text-anchor="middle" x="1866.5" y="-103" font-family="Helvetica,sans-Serif" font-size="10.00">_changes_at</text>
</a>
</g>
</g>
<!-- Node1&#45;&gt;Node2 -->
<g id="edge1_Node000001_Node000002" class="edge">
<title>Node1&#45;&gt;Node2</title>
<g id="a_edge1_Node000001_Node000002"><a xlink:title=" ">
<path fill="none" stroke="#63b8ff" d="M1959.37,-81.21C1944.31,-86.09 1928.21,-91.31 1913.76,-96"/>
<polygon fill="#63b8ff" stroke="#63b8ff" points="1960.65,-84.47 1969.08,-78.06 1958.49,-77.81 1960.65,-84.47"/>
</a>
</g>
</g>
<!-- Node29 -->
<g id="Node000029" class="node">
<title>Node29</title>
<g id="a_Node000029"><a xlink:href="../../d1/d42/namespacelamina.html#a5d6a2ba951ad8ac183b46c57c7a51fe0" target="_top" xlink:title=" ">
<polygon fill="white" stroke="#666666" points="1926,-78 1807,-78 1807,-48 1926,-48 1926,-78"/>
<text text-anchor="start" x="1815" y="-66" font-family="Helvetica,sans-Serif" font-size="10.00">lamina::sturm_sign</text>
<text text-anchor="middle" x="1866.5" y="-55" font-family="Helvetica,sans-Serif" font-size="10.00">_changes_at_neg_inf</text>
</a>
</g>
</g>
<!-- Node1&#45;&gt;Node29 -->
<g id="edge34_Node000001_Node000029" class="edge">
<title>Node1&#45;&gt;Node29</title>
<g id="a_edge34_Node000001_Node000029"><a xlink:title=" ">
<path fill="none" stroke="#63b8ff" d="M1951.47,-63C1943.02,-63 1934.4,-63 1926.06,-63"/>
<polygon fill="#63b8ff" stroke="#63b8ff" points="1951.65,-66.5 1961.65,-63 1951.65,-59.5 1951.65,-66.5"/>
</a>
</g>
</g>
<!-- Node30 -->
<g id="Node000030" class="node">
<title>Node30</title>
<g id="a_Node000030"><a xlink:href="../../d1/d42/namespacelamina.html#a2facf6a400368a90387286b2ff59d39b" target="_top" xlink:title=" ">
<polygon fill="white" stroke="#666666" points="1925.5,-30 1807.5,-30 1807.5,0 1925.5,0 1925.5,-30"/>
<text text-anchor="start" x="1815.5" y="-18" font-family="Helvetica,sans-Serif" font-size="10.00">lamina::sturm_sign</text>
<text text-anchor="middle" x="1866.5" y="-7" font-family="Helvetica,sans-Serif" font-size="10.00">_changes_at_pos_inf</text>
</a>
</g>
</g>
<!-- Node1&#45;&gt;Node30 -->
<g id="edge35_Node000001_Node000030" class="edge">
<title>Node1&#45;&gt;Node30</title>
<g id="a_edge35_Node000001_Node000030"><a xlink:title=" ">
<path fill="none" stroke="#63b8ff" d="M1959.37,-44.79C1944.31,-39.91 1928.21,-34.69 1913.76,-30"/>
<polygon fill="#63b8ff" stroke="#63b8ff" points="1958.49,-48.19 1969.08,-47.94 1960.65,-41.53 1958.49,-48.19"/>
</a>
</g>
</g>
<!-- Node3 -->
<g id="Node000003" class="node">
<title>Node3</title>
<g id="a_Node000003"><a xlink:href="../../d1/d42/namespacelamina.html#afaeb47ec9798e91487ce4cec8c1d2a61" target="_top" xlink:title=" ">
<polygon fill="white" stroke="#666666" points="1771,-120.5 1633,-120.5 1633,-101.5 1771,-101.5 1771,-120.5"/>
<text text-anchor="middle" x="1702" y="-108.5" font-family="Helvetica,sans-Serif" font-size="10.00">lamina::roots_in_interval</text>
</a>
</g>
</g>
<!-- Node2&#45;&gt;Node3 -->
<g id="edge2_Node000002_Node000003" class="edge">
<title>Node2&#45;&gt;Node3</title>
<g id="a_edge2_Node000002_Node000003"><a xlink:title=" ">
<path fill="none" stroke="#63b8ff" d="M1801.21,-111C1791.3,-111 1781.03,-111 1771.04,-111"/>
<polygon fill="#63b8ff" stroke="#63b8ff" points="1801.39,-114.5 1811.39,-111 1801.39,-107.5 1801.39,-114.5"/>
</a>
</g>
</g>
<!-- Node4 -->
<g id="Node000004" class="node">
<title>Node4</title>
<g id="a_Node000004"><a xlink:href="../../d1/d42/namespacelamina.html#ab899f5f3cc2b2bca335829a5880f3028" target="_top" xlink:title="使用 Sturm 序列隔离有理系数多项式的所有实根。">
<polygon fill="white" stroke="#666666" points="1597,-126 1484,-126 1484,-96 1597,-96 1597,-126"/>
<text text-anchor="start" x="1492" y="-114" font-family="Helvetica,sans-Serif" font-size="10.00">lamina::isolate_real</text>
<text text-anchor="middle" x="1540.5" y="-103" font-family="Helvetica,sans-Serif" font-size="10.00">_roots</text>
</a>
</g>
</g>
<!-- Node3&#45;&gt;Node4 -->
<g id="edge3_Node000003_Node000004" class="edge">
<title>Node3&#45;&gt;Node4</title>
<g id="a_edge3_Node000003_Node000004"><a xlink:title=" ">
<path fill="none" stroke="#63b8ff" d="M1622.83,-111C1614.23,-111 1605.61,-111 1597.36,-111"/>
<polygon fill="#63b8ff" stroke="#63b8ff" points="1622.9,-114.5 1632.89,-111 1622.89,-107.5 1622.9,-114.5"/>
</a>
</g>
</g>
<!-- Node5 -->
<g id="Node000005" class="node">
<title>Node5</title>
<g id="a_Node000005"><a xlink:href="../../d1/d42/namespacelamina.html#a10daf588534457a16bd924eecd6dadf9" target="_top" xlink:title="对 RootOf 表达式进行数值求值。">
<polygon fill="white" stroke="#666666" points="1448,-139.5 1314,-139.5 1314,-120.5 1448,-120.5 1448,-139.5"/>
<text text-anchor="middle" x="1381" y="-127.5" font-family="Helvetica,sans-Serif" font-size="10.00">lamina::rootof_evaluate</text>
</a>
</g>
</g>
<!-- Node4&#45;&gt;Node5 -->
<g id="edge4_Node000004_Node000005" class="edge">
<title>Node4&#45;&gt;Node5</title>
<g id="a_edge4_Node000004_Node000005"><a xlink:title=" ">
<path fill="none" stroke="#63b8ff" d="M1474.03,-118.9C1465.46,-119.93 1456.67,-120.99 1448.09,-122.03"/>
<polygon fill="#63b8ff" stroke="#63b8ff" points="1474.46,-122.37 1483.97,-117.7 1473.62,-115.42 1474.46,-122.37"/>
</a>
</g>
</g>
<!-- Node6 -->
<g id="Node000006" class="node">
<title>Node6</title>
<g id="a_Node000006"><a xlink:href="../../d1/d42/namespacelamina.html#abbdca2540c3361426ba47c5c576de22e" target="_top" xlink:title="对表达式进行数值求根，综合使用 Newton&#45;Raphson 和根隔离方法。">
<polygon fill="white" stroke="#666666" points="1445,-102.5 1317,-102.5 1317,-83.5 1445,-83.5 1445,-102.5"/>
<text text-anchor="middle" x="1381" y="-90.5" font-family="Helvetica,sans-Serif" font-size="10.00">lamina::solve_numeric</text>
</a>
</g>
</g>
<!-- Node4&#45;&gt;Node6 -->
<g id="edge5_Node000004_Node000006" class="edge">
<title>Node4&#45;&gt;Node6</title>
<g id="a_edge5_Node000004_Node000006"><a xlink:title=" ">
<path fill="none" stroke="#63b8ff" d="M1473.79,-103.49C1464.29,-102.41 1454.53,-101.29 1445.09,-100.21"/>
<polygon fill="#63b8ff" stroke="#63b8ff" points="1473.64,-107 1483.97,-104.65 1474.43,-100.04 1473.64,-107"/>
</a>
</g>
</g>
<!-- Node7 -->
<g id="Node000007" class="node">
<title>Node7</title>
<g id="a_Node000007"><a xlink:href="../../d1/d42/namespacelamina.html#a06e924d67656611208ba81ad13fbee8d" target="_top" xlink:title="方程求解策略调度器，根据表达式类型选择合适的求解方法。">
<polygon fill="white" stroke="#666666" points="1278,-102.5 1149,-102.5 1149,-83.5 1278,-83.5 1278,-102.5"/>
<text text-anchor="middle" x="1213.5" y="-90.5" font-family="Helvetica,sans-Serif" font-size="10.00">lamina::solve_dispatch</text>
</a>
</g>
</g>
<!-- Node6&#45;&gt;Node7 -->
<g id="edge6_Node000006_Node000007" class="edge">
<title>Node6&#45;&gt;Node7</title>
<g id="a_edge6_Node000006_Node000007"><a xlink:title=" ">
<path fill="none" stroke="#63b8ff" d="M1306.73,-93C1297.21,-93 1287.53,-93 1278.19,-93"/>
<polygon fill="#63b8ff" stroke="#63b8ff" points="1306.96,-96.5 1316.96,-93 1306.96,-89.5 1306.96,-96.5"/>
</a>
</g>
</g>
<!-- Node8 -->
<g id="Node000008" class="node">
<title>Node8</title>
<g id="a_Node000008"><a xlink:href="../../dc/d25/classSymbolicExpr.html#a8e2b693429c55311a664ed0306bc9b2e" target="_top" xlink:title="求解方程，返回指定变量的所有解。">
<polygon fill="white" stroke="#666666" points="1113,-183.5 997,-183.5 997,-164.5 1113,-164.5 1113,-183.5"/>
<text text-anchor="middle" x="1055" y="-171.5" font-family="Helvetica,sans-Serif" font-size="10.00">SymbolicExpr::solve</text>
</a>
</g>
</g>
<!-- Node7&#45;&gt;Node8 -->
<g id="edge7_Node000007_Node000008" class="edge">
<title>Node7&#45;&gt;Node8</title>
<g id="a_edge7_Node000007_Node000008"><a xlink:title=" ">
<path fill="none" stroke="#63b8ff" d="M1184.74,-107.37C1152.97,-123.81 1101.82,-150.28 1074.54,-164.4"/>
<polygon fill="#63b8ff" stroke="#63b8ff" points="1186.66,-110.31 1193.93,-102.61 1183.44,-104.1 1186.66,-110.31"/>
</a>
</g>
</g>
<!-- Node9 -->
<g id="Node000009" class="node">
<title>Node9</title>
<g id="a_Node000009"><a xlink:href="../../dc/d25/classSymbolicExpr.html#a83879d764986be80edbedc769b96224a" target="_top" xlink:title="计算矩阵的特征值。">
<polygon fill="white" stroke="#666666" points="337,-306.5 188,-306.5 188,-287.5 337,-287.5 337,-306.5"/>
<text text-anchor="middle" x="262.5" y="-294.5" font-family="Helvetica,sans-Serif" font-size="10.00">SymbolicExpr::eigenvalues</text>
</a>
</g>
</g>
<!-- Node8&#45;&gt;Node9 -->
<g id="edge8_Node000008_Node000009" class="edge">
<title>Node8&#45;&gt;Node9</title>
<g id="a_edge8_Node000008_Node000009"><a xlink:title=" ">
<path fill="none" stroke="#63b8ff" d="M1033.21,-189.45C1014.95,-202.47 987.25,-220.86 961,-233 875.26,-272.65 851.39,-281.75 758,-296 610.12,-318.57 434.45,-310.88 337.33,-303.66"/>
<polygon fill="#63b8ff" stroke="#63b8ff" points="1035.33,-192.24 1041.38,-183.55 1031.23,-186.57 1035.33,-192.24"/>
</a>
</g>
</g>
<!-- Node11 -->
<g id="Node000011" class="node">
<title>Node11</title>
<g id="a_Node000011"><a xlink:href="../../dc/d25/classSymbolicExpr.html#a884244959506063b172228ad99ab0730" target="_top" xlink:title="对表达式进行因式分解。">
<polygon fill="white" stroke="#666666" points="936.5,-224.5 818.5,-224.5 818.5,-205.5 936.5,-205.5 936.5,-224.5"/>
<text text-anchor="middle" x="877.5" y="-212.5" font-family="Helvetica,sans-Serif" font-size="10.00">SymbolicExpr::factor</text>
</a>
</g>
</g>
<!-- Node8&#45;&gt;Node11 -->
<g id="edge10_Node000008_Node000011" class="edge">
<title>Node8&#45;&gt;Node11</title>
<g id="a_edge10_Node000008_Node000011"><a xlink:title=" ">
<path fill="none" stroke="#63b8ff" d="M1003.37,-185.83C976.67,-192.07 944.35,-199.62 919.29,-205.47"/>
<polygon fill="#63b8ff" stroke="#63b8ff" points="1004.35,-189.19 1013.3,-183.51 1002.76,-182.38 1004.35,-189.19"/>
</a>
</g>
</g>
<!-- Node19 -->
<g id="Node000019" class="node">
<title>Node19</title>
<g id="a_Node000019"><a xlink:href="../../d1/d42/namespacelamina.html#a334f8d9c2923abbed11b2e4729c2b057" target="_top" xlink:title=" ">
<polygon fill="white" stroke="#666666" points="957,-107.5 798,-107.5 798,-88.5 957,-88.5 957,-107.5"/>
<text text-anchor="middle" x="877.5" y="-95.5" font-family="Helvetica,sans-Serif" font-size="10.00">lamina::invert_substitution_h</text>
</a>
</g>
</g>
<!-- Node8&#45;&gt;Node19 -->
<g id="edge20_Node000008_Node000019" class="edge">
<title>Node8&#45;&gt;Node19</title>
<g id="a_edge20_Node000008_Node000019"><a xlink:title=" ">
<path fill="none" stroke="#63b8ff" d="M1030.83,-159.09C1012.45,-147.76 985.82,-132.39 961,-122 947.38,-116.3 931.95,-111.42 918.16,-107.57"/>
<polygon fill="#63b8ff" stroke="#63b8ff" points="1029.05,-162.11 1039.39,-164.45 1032.77,-156.18 1029.05,-162.11"/>
</a>
</g>
</g>
<!-- Node20 -->
<g id="Node000020" class="node">
<title>Node20</title>
<g id="a_Node000020"><a xlink:href="../../d1/d42/namespacelamina.html#a12ae4dd3753dfea8b5e9d84b3c748855" target="_top" xlink:title=" ">
<polygon fill="white" stroke="#666666" points="758,-107.5 570,-107.5 570,-88.5 758,-88.5 758,-107.5"/>
<text text-anchor="middle" x="664" y="-95.5" font-family="Helvetica,sans-Serif" font-size="10.00">lamina::solve_transcendental_impl</text>
</a>
</g>
</g>
<!-- Node8&#45;&gt;Node20 -->
<g id="edge32_Node000008_Node000020" class="edge">
<title>Node8&#45;&gt;Node20</title>
<g id="a_edge32_Node000008_Node000020"><a xlink:title=" ">
<path fill="none" stroke="#63b8ff" d="M995.12,-162.5C918.26,-147.48 785.13,-121.47 713.67,-107.51"/>
<polygon fill="#63b8ff" stroke="#63b8ff" points="994.64,-165.97 1005.13,-164.45 995.98,-159.1 994.64,-165.97"/>
</a>
</g>
</g>
<!-- Node21 -->
<g id="Node000021" class="node">
<title>Node21</title>
<g id="a_Node000021"><a xlink:href="../../d1/d42/namespacelamina.html#a704f26202e00de52ae9b961bc527a9ff" target="_top" xlink:title=" ">
<polygon fill="white" stroke="#666666" points="510,-113 397,-113 397,-83 510,-83 510,-113"/>
<text text-anchor="start" x="405" y="-101" font-family="Helvetica,sans-Serif" font-size="10.00">lamina::solve_inner</text>
<text text-anchor="middle" x="453.5" y="-90" font-family="Helvetica,sans-Serif" font-size="10.00">_equation</text>
</a>
</g>
</g>
<!-- Node8&#45;&gt;Node21 -->
<g id="edge26_Node000008_Node000021" class="edge">
<title>Node8&#45;&gt;Node21</title>
<g id="a_edge26_Node000008_Node000021"><a xlink:title=" ">
<path fill="none" stroke="#63b8ff" d="M986.58,-170.8C934,-167.89 859.19,-162.84 794,-155 693.42,-142.91 577.2,-121.84 510.14,-108.98"/>
<polygon fill="#63b8ff" stroke="#63b8ff" points="986.62,-174.31 996.79,-171.36 987,-167.32 986.62,-174.31"/>
</a>
</g>
</g>
<!-- Node23 -->
<g id="Node000023" class="node">
<title>Node23</title>
<g id="a_Node000023"><a xlink:href="../../d6/da9/classlamina_1_1ParametricSolver.html#a41d42755b42e64784e9bc7c7f6f5715f" target="_top" xlink:title="求解关于未知数为多项式的含参方程组">
<polygon fill="white" stroke="#666666" points="961,-422 794,-422 794,-392 961,-392 961,-422"/>
<text text-anchor="start" x="802" y="-410" font-family="Helvetica,sans-Serif" font-size="10.00">lamina::ParametricSolver</text>
<text text-anchor="middle" x="877.5" y="-399" font-family="Helvetica,sans-Serif" font-size="10.00">::solve_polynomial_parametric</text>
</a>
</g>
</g>
<!-- Node8&#45;&gt;Node23 -->
<g id="edge27_Node000008_Node000023" class="edge">
<title>Node8&#45;&gt;Node23</title>
<g id="a_edge27_Node000008_Node000023"><a xlink:title=" ">
<path fill="none" stroke="#63b8ff" d="M1050.95,-193.45C1043.44,-234.68 1020.2,-331.33 961,-383 957.07,-386.43 952.67,-389.38 948,-391.9"/>
<polygon fill="#63b8ff" stroke="#63b8ff" points="1054.4,-194.03 1052.63,-183.58 1047.5,-192.85 1054.4,-194.03"/>
</a>
</g>
</g>
<!-- Node27 -->
<g id="Node000027" class="node">
<title>Node27</title>
<g id="a_Node000027"><a xlink:href="../../d5/d6f/classlamina_1_1Solver.html#a622812464260dd689d26a7f66ae99633" target="_top" xlink:title="求解多项式方程组，返回所有解。">
<polygon fill="white" stroke="#666666" points="937,-70 818,-70 818,-40 937,-40 937,-70"/>
<text text-anchor="start" x="826" y="-58" font-family="Helvetica,sans-Serif" font-size="10.00">lamina::Solver::solve</text>
<text text-anchor="middle" x="877.5" y="-47" font-family="Helvetica,sans-Serif" font-size="10.00">_polynomial_system</text>
</a>
</g>
</g>
<!-- Node8&#45;&gt;Node27 -->
<g id="edge31_Node000008_Node000027" class="edge">
<title>Node8&#45;&gt;Node27</title>
<g id="a_edge31_Node000008_Node000027"><a xlink:title=" ">
<path fill="none" stroke="#63b8ff" d="M1041.14,-156.1C1024.85,-134.7 994.79,-99.23 961,-79 953.71,-74.63 945.57,-71.02 937.33,-68.04"/>
<polygon fill="#63b8ff" stroke="#63b8ff" points="1038.48,-158.39 1047.25,-164.33 1044.1,-154.21 1038.48,-158.39"/>
</a>
</g>
</g>
<!-- Node28 -->
<g id="Node000028" class="node">
<title>Node28</title>
<g id="a_Node000028"><a xlink:href="../../d1/d42/namespacelamina.html#a14b812ff63e0f874b8f45b9d6c746195" target="_top" xlink:title="Solve an equation with assumption&#45;based domain filtering.">
<polygon fill="white" stroke="#666666" points="932,-374 823,-374 823,-344 932,-344 932,-374"/>
<text text-anchor="start" x="831" y="-362" font-family="Helvetica,sans-Serif" font-size="10.00">lamina::solve_with</text>
<text text-anchor="middle" x="877.5" y="-351" font-family="Helvetica,sans-Serif" font-size="10.00">_assumptions</text>
</a>
</g>
</g>
<!-- Node8&#45;&gt;Node28 -->
<g id="edge33_Node000008_Node000028" class="edge">
<title>Node8&#45;&gt;Node28</title>
<g id="a_edge33_Node000008_Node000028"><a xlink:title=" ">
<path fill="none" stroke="#63b8ff" d="M1047.47,-193.35C1035.46,-226.09 1006.83,-292.51 961,-330 952.66,-336.82 942.6,-342.09 932.41,-346.15"/>
<polygon fill="#63b8ff" stroke="#63b8ff" points="1050.87,-194.22 1050.9,-183.62 1044.27,-191.89 1050.87,-194.22"/>
</a>
</g>
</g>
<!-- Node10 -->
<g id="Node000010" class="node">
<title>Node10</title>
<g id="a_Node000010"><a xlink:href="../../dc/d25/classSymbolicExpr.html#a7777100ca36b7a1a7285ece2380dcf4b" target="_top" xlink:title="计算矩阵的特征向量。">
<polygon fill="white" stroke="#666666" points="152,-306.5 0,-306.5 0,-287.5 152,-287.5 152,-306.5"/>
<text text-anchor="middle" x="76" y="-294.5" font-family="Helvetica,sans-Serif" font-size="10.00">SymbolicExpr::eigenvectors</text>
</a>
</g>
</g>
<!-- Node9&#45;&gt;Node10 -->
<g id="edge9_Node000009_Node000010" class="edge">
<title>Node9&#45;&gt;Node10</title>
<g id="a_edge9_Node000009_Node000010"><a xlink:title=" ">
<path fill="none" stroke="#63b8ff" d="M177.52,-297C169.04,-297 160.48,-297 152.11,-297"/>
<polygon fill="#63b8ff" stroke="#63b8ff" points="177.79,-300.5 187.79,-297 177.79,-293.5 177.79,-300.5"/>
</a>
</g>
</g>
<!-- Node12 -->
<g id="Node000012" class="node">
<title>Node12</title>
<g id="a_Node000012"><a xlink:href="../../dc/d25/classSymbolicExpr.html#a3b4cc1669b1b117b15cc82783a22b4fc" target="_top" xlink:title="计算矩阵行列式。">
<polygon fill="white" stroke="#666666" points="738.5,-269.5 589.5,-269.5 589.5,-250.5 738.5,-250.5 738.5,-269.5"/>
<text text-anchor="middle" x="664" y="-257.5" font-family="Helvetica,sans-Serif" font-size="10.00">SymbolicExpr::determinant</text>
</a>
</g>
</g>
<!-- Node11&#45;&gt;Node12 -->
<g id="edge11_Node000011_Node000012" class="edge">
<title>Node11&#45;&gt;Node12</title>
<g id="a_edge11_Node000011_Node000012"><a xlink:title=" ">
<path fill="none" stroke="#63b8ff" d="M823.94,-226.7C803.39,-231.23 779.6,-236.42 758,-241 743.17,-244.14 726.99,-247.48 712.34,-250.47"/>
<polygon fill="#63b8ff" stroke="#63b8ff" points="824.74,-230.11 833.75,-224.54 823.23,-223.28 824.74,-230.11"/>
</a>
</g>
</g>
<!-- Node15 -->
<g id="Node000015" class="node">
<title>Node15</title>
<g id="a_Node000015"><a xlink:href="../../dc/d25/classSymbolicExpr.html#ae608271a617ef878c81d04375538537f" target="_top" xlink:title="计算两个多项式关于指定变量的结式。">
<polygon fill="white" stroke="#666666" points="719,-232 609,-232 609,-202 719,-202 719,-232"/>
<text text-anchor="start" x="617" y="-220" font-family="Helvetica,sans-Serif" font-size="10.00">SymbolicExpr::poly</text>
<text text-anchor="middle" x="664" y="-209" font-family="Helvetica,sans-Serif" font-size="10.00">_resultant</text>
</a>
</g>
</g>
<!-- Node11&#45;&gt;Node15 -->
<g id="edge16_Node000011_Node000015" class="edge">
<title>Node11&#45;&gt;Node15</title>
<g id="a_edge16_Node000011_Node000015"><a xlink:title=" ">
<path fill="none" stroke="#63b8ff" d="M808.42,-215.64C779.59,-215.92 746.46,-216.23 719.31,-216.49"/>
<polygon fill="#63b8ff" stroke="#63b8ff" points="808.46,-219.14 818.43,-215.55 808.39,-212.14 808.46,-219.14"/>
</a>
</g>
</g>
<!-- Node16 -->
<g id="Node000016" class="node">
<title>Node16</title>
<g id="a_Node000016"><a xlink:href="../../dc/d25/classSymbolicExpr.html#ae41c16b68c56de8d4c70a98c85722ff1" target="_top" xlink:title="计算矩阵的行最简阶梯形（RREF）。">
<polygon fill="white" stroke="#666666" points="717.5,-183.5 610.5,-183.5 610.5,-164.5 717.5,-164.5 717.5,-183.5"/>
<text text-anchor="middle" x="664" y="-171.5" font-family="Helvetica,sans-Serif" font-size="10.00">SymbolicExpr::rref</text>
</a>
</g>
</g>
<!-- Node11&#45;&gt;Node16 -->
<g id="edge17_Node000011_Node000016" class="edge">
<title>Node11&#45;&gt;Node16</title>
<g id="a_edge17_Node000011_Node000016"><a xlink:title=" ">
<path fill="none" stroke="#63b8ff" d="M817.6,-203.58C785.03,-197.27 745.03,-189.51 714.15,-183.53"/>
<polygon fill="#63b8ff" stroke="#63b8ff" points="816.96,-207.02 827.45,-205.49 818.29,-200.15 816.96,-207.02"/>
</a>
</g>
</g>
<!-- Node12&#45;&gt;Node12 -->
<g id="edge14_Node000012_Node000012" class="edge">
<title>Node12&#45;&gt;Node12</title>
<g id="a_edge14_Node000012_Node000012"><a xlink:title=" ">
<path fill="none" stroke="#63b8ff" d="M703.36,-276.81C703.95,-282.71 690.83,-287.5 664,-287.5 626.68,-287.5 615.89,-278.23 631.63,-269.58"/>
<polygon fill="#63b8ff" stroke="#63b8ff" points="705.84,-274.34 696.37,-269.58 700.8,-279.2 705.84,-274.34"/>
</a>
</g>
</g>
<!-- Node13 -->
<g id="Node000013" class="node">
<title>Node13</title>
<g id="a_Node000013"><a xlink:href="../../dc/d25/classSymbolicExpr.html#a6e8c5c20af88337d449cbf5771d5d28d" target="_top" xlink:title="计算矩阵的特征多项式。">
<polygon fill="white" stroke="#666666" points="519,-287.5 388,-287.5 388,-268.5 519,-268.5 519,-287.5"/>
<text text-anchor="middle" x="453.5" y="-275.5" font-family="Helvetica,sans-Serif" font-size="10.00">SymbolicExpr::charpoly</text>
</a>
</g>
</g>
<!-- Node12&#45;&gt;Node13 -->
<g id="edge12_Node000012_Node000013" class="edge">
<title>Node12&#45;&gt;Node13</title>
<g id="a_edge12_Node000012_Node000013"><a xlink:title=" ">
<path fill="none" stroke="#63b8ff" d="M579.4,-267.22C559.3,-268.95 538.12,-270.78 519.03,-272.43"/>
<polygon fill="#63b8ff" stroke="#63b8ff" points="579.83,-270.69 589.49,-266.35 579.23,-263.72 579.83,-270.69"/>
</a>
</g>
</g>
<!-- Node14 -->
<g id="Node000014" class="node">
<title>Node14</title>
<g id="a_Node000014"><a xlink:href="../../d1/d42/namespacelamina.html#a35783093777191a0254b7f3a2340e0f5" target="_top" xlink:title="计算符号矩阵的行列式">
<polygon fill="white" stroke="#666666" points="530.5,-250.5 376.5,-250.5 376.5,-231.5 530.5,-231.5 530.5,-250.5"/>
<text text-anchor="middle" x="453.5" y="-238.5" font-family="Helvetica,sans-Serif" font-size="10.00">lamina::matrix_determinant</text>
</a>
</g>
</g>
<!-- Node12&#45;&gt;Node14 -->
<g id="edge15_Node000012_Node000014" class="edge">
<title>Node12&#45;&gt;Node14</title>
<g id="a_edge15_Node000012_Node000014"><a xlink:title=" ">
<path fill="none" stroke="#63b8ff" d="M579.52,-252.39C563.33,-250.92 546.45,-249.38 530.52,-247.93"/>
<polygon fill="#63b8ff" stroke="#63b8ff" points="579.21,-255.88 589.49,-253.3 579.85,-248.91 579.21,-255.88"/>
</a>
</g>
</g>
<!-- Node13&#45;&gt;Node9 -->
<g id="edge13_Node000013_Node000009" class="edge">
<title>Node13&#45;&gt;Node9</title>
<g id="a_edge13_Node000013_Node000009"><a xlink:title=" ">
<path fill="none" stroke="#63b8ff" d="M377.87,-285.5C364.47,-286.85 350.52,-288.25 337.15,-289.6"/>
<polygon fill="#63b8ff" stroke="#63b8ff" points="378.39,-288.97 387.99,-284.49 377.69,-282 378.39,-288.97"/>
</a>
</g>
</g>
<!-- Node17 -->
<g id="Node000017" class="node">
<title>Node17</title>
<g id="a_Node000017"><a xlink:href="../../dc/d25/classSymbolicExpr.html#afa1c1c57bb6c77da5d016f69eaa60703" target="_top" xlink:title="计算矩阵的逆。">
<polygon fill="white" stroke="#666666" points="516,-183.5 391,-183.5 391,-164.5 516,-164.5 516,-183.5"/>
<text text-anchor="middle" x="453.5" y="-171.5" font-family="Helvetica,sans-Serif" font-size="10.00">SymbolicExpr::inverse</text>
</a>
</g>
</g>
<!-- Node16&#45;&gt;Node17 -->
<g id="edge18_Node000016_Node000017" class="edge">
<title>Node16&#45;&gt;Node17</title>
<g id="a_edge18_Node000016_Node000017"><a xlink:title=" ">
<path fill="none" stroke="#63b8ff" d="M600.07,-174C573.55,-174 542.77,-174 516.36,-174"/>
<polygon fill="#63b8ff" stroke="#63b8ff" points="600.39,-177.5 610.39,-174 600.39,-170.5 600.39,-177.5"/>
</a>
</g>
</g>
<!-- Node18 -->
<g id="Node000018" class="node">
<title>Node18</title>
<g id="a_Node000018"><a xlink:href="../../d1/d42/namespacelamina.html#a972455b000c18e71aefd4a84a5708edf" target="_top" xlink:title="计算符号矩阵的逆矩阵">
<polygon fill="white" stroke="#666666" points="327.5,-183.5 197.5,-183.5 197.5,-164.5 327.5,-164.5 327.5,-183.5"/>
<text text-anchor="middle" x="262.5" y="-171.5" font-family="Helvetica,sans-Serif" font-size="10.00">lamina::matrix_inverse</text>
</a>
</g>
</g>
<!-- Node17&#45;&gt;Node18 -->
<g id="edge19_Node000017_Node000018" class="edge">
<title>Node17&#45;&gt;Node18</title>
<g id="a_edge19_Node000017_Node000018"><a xlink:title=" ">
<path fill="none" stroke="#63b8ff" d="M380.74,-174C363.28,-174 344.72,-174 327.64,-174"/>
<polygon fill="#63b8ff" stroke="#63b8ff" points="380.88,-177.5 390.88,-174 380.88,-170.5 380.88,-177.5"/>
</a>
</g>
</g>
<!-- Node19&#45;&gt;Node20 -->
<g id="edge21_Node000019_Node000020" class="edge">
<title>Node19&#45;&gt;Node20</title>
<g id="a_edge21_Node000019_Node000020"><a xlink:title=" ">
<path fill="none" stroke="#63b8ff" d="M787.65,-98C777.89,-98 767.92,-98 758.1,-98"/>
<polygon fill="#63b8ff" stroke="#63b8ff" points="787.75,-101.5 797.75,-98 787.75,-94.5 787.75,-101.5"/>
</a>
</g>
</g>
<!-- Node20&#45;&gt;Node21 -->
<g id="edge22_Node000020_Node000021" class="edge">
<title>Node20&#45;&gt;Node21</title>
<g id="a_edge22_Node000020_Node000021"><a xlink:title=" ">
<path fill="none" stroke="#63b8ff" d="M559.66,-91.25C542.54,-91.24 525.38,-91.48 510.04,-91.95"/>
<polygon fill="#63b8ff" stroke="#63b8ff" points="559.72,-94.75 569.73,-91.28 559.74,-87.75 559.72,-94.75"/>
</a>
</g>
</g>
<!-- Node22 -->
<g id="Node000022" class="node">
<title>Node22</title>
<g id="a_Node000022"><a xlink:href="../../d1/d42/namespacelamina.html#a49ecca042975b1b60b3cfb5dd09f1ddc" target="_top" xlink:title="求解超越方程（三角、指数、对数类型）。">
<polygon fill="white" stroke="#666666" points="534,-43.5 373,-43.5 373,-24.5 534,-24.5 534,-43.5"/>
<text text-anchor="middle" x="453.5" y="-31.5" font-family="Helvetica,sans-Serif" font-size="10.00">lamina::solve_transcendental</text>
</a>
</g>
</g>
<!-- Node20&#45;&gt;Node22 -->
<g id="edge24_Node000020_Node000022" class="edge">
<title>Node20&#45;&gt;Node22</title>
<g id="a_edge24_Node000020_Node000022"><a xlink:title=" ">
<path fill="none" stroke="#63b8ff" d="M622.06,-85.43C582,-73.14 521.87,-54.68 485.59,-43.54"/>
<polygon fill="#63b8ff" stroke="#63b8ff" points="621.2,-88.83 631.79,-88.42 623.25,-82.14 621.2,-88.83"/>
</a>
</g>
</g>
<!-- Node21&#45;&gt;Node20 -->
<g id="edge23_Node000021_Node000020" class="edge">
<title>Node21&#45;&gt;Node20</title>
<g id="a_edge23_Node000021_Node000020"><a xlink:title=" ">
<path fill="none" stroke="#63b8ff" d="M520.17,-104.32C535.9,-104.69 553.01,-104.82 569.73,-104.72"/>
<polygon fill="#63b8ff" stroke="#63b8ff" points="520.13,-100.82 510.04,-104.05 519.94,-107.82 520.13,-100.82"/>
</a>
</g>
</g>
<!-- Node22&#45;&gt;Node7 -->
<g id="edge25_Node000022_Node000007" class="edge">
<title>Node22&#45;&gt;Node7</title>
<g id="a_edge25_Node000022_Node000007"><a xlink:title=" ">
<path fill="none" stroke="#63b8ff" d="M544.47,-26.63C646.05,-19.89 816.05,-13.4 961,-31 1043.14,-40.98 1137.13,-68.64 1183.5,-83.41"/>
<polygon fill="#63b8ff" stroke="#63b8ff" points="543.99,-23.15 534.25,-27.32 544.47,-30.14 543.99,-23.15"/>
</a>
</g>
</g>
<!-- Node24 -->
<g id="Node000024" class="node">
<title>Node24</title>
<g id="a_Node000024"><a xlink:href="../../d6/da9/classlamina_1_1ParametricSolver.html#a74760afed4b871db5baef1d0c7eef09e" target="_top" xlink:title="求解含参方程组，返回所有解">
<polygon fill="white" stroke="#666666" points="734,-422 594,-422 594,-392 734,-392 734,-422"/>
<text text-anchor="start" x="602" y="-410" font-family="Helvetica,sans-Serif" font-size="10.00">lamina::ParametricSolver</text>
<text text-anchor="middle" x="664" y="-399" font-family="Helvetica,sans-Serif" font-size="10.00">::solve_system</text>
</a>
</g>
</g>
<!-- Node23&#45;&gt;Node24 -->
<g id="edge28_Node000023_Node000024" class="edge">
<title>Node23&#45;&gt;Node24</title>
<g id="a_edge28_Node000023_Node000024"><a xlink:title=" ">
<path fill="none" stroke="#63b8ff" d="M783.58,-407C767.02,-407 750.04,-407 734.28,-407"/>
<polygon fill="#63b8ff" stroke="#63b8ff" points="783.82,-410.5 793.82,-407 783.82,-403.5 783.82,-410.5"/>
</a>
</g>
</g>
<!-- Node25 -->
<g id="Node000025" class="node">
<title>Node25</title>
<g id="a_Node000025"><a xlink:href="../../dc/d25/classSymbolicExpr.html#af7245cd8dd9c4c7f7f00d3772bbbecb3" target="_top" xlink:title="求解含参数的方程组。">
<polygon fill="white" stroke="#666666" points="511.5,-446 395.5,-446 395.5,-416 511.5,-416 511.5,-446"/>
<text text-anchor="start" x="403.5" y="-434" font-family="Helvetica,sans-Serif" font-size="10.00">SymbolicExpr::solve</text>
<text text-anchor="middle" x="453.5" y="-423" font-family="Helvetica,sans-Serif" font-size="10.00">_system</text>
</a>
</g>
</g>
<!-- Node24&#45;&gt;Node25 -->
<g id="edge29_Node000024_Node000025" class="edge">
<title>Node24&#45;&gt;Node25</title>
<g id="a_edge29_Node000024_Node000025"><a xlink:title=" ">
<path fill="none" stroke="#63b8ff" d="M583.71,-416.13C559.73,-418.89 533.87,-421.86 511.63,-424.42"/>
<polygon fill="#63b8ff" stroke="#63b8ff" points="584.33,-419.58 593.86,-414.96 583.53,-412.62 584.33,-419.58"/>
</a>
</g>
</g>
<!-- Node26 -->
<g id="Node000026" class="node">
<title>Node26</title>
<g id="a_Node000026"><a xlink:href="../../d6/da9/classlamina_1_1ParametricSolver.html#aee41c6cf8efdfc5c7485cd104981d95b" target="_top" xlink:title="求解含参方程组，返回按参数条件分段的解">
<polygon fill="white" stroke="#666666" points="525.5,-398 381.5,-398 381.5,-368 525.5,-368 525.5,-398"/>
<text text-anchor="start" x="389.5" y="-386" font-family="Helvetica,sans-Serif" font-size="10.00">lamina::ParametricSolver</text>
<text text-anchor="middle" x="453.5" y="-375" font-family="Helvetica,sans-Serif" font-size="10.00">::solve_system_piecewise</text>
</a>
</g>
</g>
<!-- Node24&#45;&gt;Node26 -->
<g id="edge30_Node000024_Node000026" class="edge">
<title>Node24&#45;&gt;Node26</title>
<g id="a_edge30_Node000024_Node000026"><a xlink:title=" ">
<path fill="none" stroke="#63b8ff" d="M583.69,-397.87C564.59,-395.67 544.29,-393.34 525.59,-391.18"/>
<polygon fill="#63b8ff" stroke="#63b8ff" points="583.53,-401.38 593.86,-399.04 584.33,-394.42 583.53,-401.38"/>
</a>
</g>
</g>
</g>
</svg>
