<?xml version="1.0" encoding="UTF-8" standalone="no"?>
<!DOCTYPE svg PUBLIC "-//W3C//DTD SVG 1.1//EN"
 "http://www.w3.org/Graphics/SVG/1.1/DTD/svg11.dtd">
<!-- Generated by graphviz version 2.43.0 (0)
 -->
<!-- Title: lamina::sub Pages: 1 -->
<!--zoomable 554 -->

<svg id="main" version="1.1" xmlns="http://www.w3.org/2000/svg" xmlns:xlink="http://www.w3.org/1999/xlink" xml:space="preserve" onload="init(evt)">
<style type="text/css"><![CDATA[
.node, .edge {opacity: 0.7;}
.node.selected, .edge.selected {opacity: 1;}
.edge:hover path { stroke: red; }
.edge:hover polygon { stroke: red; fill: red; }
]]></style>

<defs>
  <circle id="rim" cx="0" cy="0" r="7"/>
  <circle id="rim2" cx="0" cy="0" r="3.5"/>
  <g id="zoomPlus">
    <use xlink:href="#rim" fill="#404040"><set attributeName="fill" to="#808080" begin="zoomplus.mouseover" end="zoomplus.mouseout"/></use>
    <path d="M-4,0h8M0,-4v8" fill="none" stroke="white" stroke-width="1.5" pointer-events="none"/>
  </g>
  <g id="zoomMin">
    <use xlink:href="#rim" fill="#404040"><set attributeName="fill" to="#808080" begin="zoomminus.mouseover" end="zoomminus.mouseout"/></use>
    <path d="M-4,0h8" fill="none" stroke="white" stroke-width="1.5" pointer-events="none"/>
  </g>
  <g id="arrowUp" transform="translate(30 24)">
    <use xlink:href="#rim"/>
    <path pointer-events="none" fill="none" stroke="white" stroke-width="1.5" d="M0,-3.0v7 M-2.5,-0.5L0,-3.0L2.5,-0.5"/>
  </g>
  <g id="arrowRight" transform="rotate(90) translate(36 -43)">
    <use xlink:href="#rim"/>
    <path pointer-events="none" fill="none" stroke="white" stroke-width="1.5" d="M0,-3.0v7 M-2.5,-0.5L0,-3.0L2.5,-0.5"/>
  </g>
  <g id="arrowDown" transform="rotate(180) translate(-30 -48)">
    <use xlink:href="#rim"/>
    <path pointer-events="none" fill="none" stroke="white" stroke-width="1.5" d="M0,-3.0v7 M-2.5,-0.5L0,-3.0L2.5,-0.5"/>
  </g>
  <g id="arrowLeft" transform="rotate(270) translate(-36 17)">
    <use xlink:href="#rim"/>
    <path pointer-events="none" fill="none" stroke="white" stroke-width="1.5" d="M0,-3.0v7 M-2.5,-0.5L0,-3.0L2.5,-0.5"/>
  </g>
  <g id="resetDef">
    <use xlink:href="#rim2" fill="#404040"><set attributeName="fill" to="#808080" begin="reset.mouseover" end="reset.mouseout"/></use>
  </g>
</defs>
<script type="application/ecmascript">
var viewWidth = 2323;
var viewHeight = 554;
var sectionId = 'dynsection-270';
</script>
<script type="application/ecmascript" xlink:href="../../svg.min.js"/>
<svg id="graph" class="graph">
<g id="viewport">
<title>lamina::sub</title>
<!-- Node1 -->
<g id="Node000001" class="node">
<title>Node1</title>
<g id="a_Node000001"><a xlink:title=" ">
<polygon fill="#999999" stroke="#666666" points="2315,-367.5 2241,-367.5 2241,-348.5 2315,-348.5 2315,-367.5"/>
<text text-anchor="middle" x="2278" y="-355.5" font-family="Helvetica,sans-Serif" font-size="10.00">lamina::sub</text>
</a>
</g>
</g>
<!-- Node2 -->
<g id="Node000002" class="node">
<title>Node2</title>
<g id="a_Node000002"><a xlink:href="../../d1/d42/namespacelamina.html#a6905556da3efb2c2544e5c27757789cd" target="_top" xlink:title="使用三次公式求解三次方程 ax³ + bx² + cx + d = 0。">
<polygon fill="white" stroke="#666666" points="2020,-386.5 1907,-386.5 1907,-367.5 2020,-367.5 2020,-386.5"/>
<text text-anchor="middle" x="1963.5" y="-374.5" font-family="Helvetica,sans-Serif" font-size="10.00">lamina::solve_cubic</text>
</a>
</g>
</g>
<!-- Node1&#45;&gt;Node2 -->
<g id="edge1_Node000001_Node000002" class="edge">
<title>Node1&#45;&gt;Node2</title>
<g id="a_edge1_Node000001_Node000002"><a xlink:title=" ">
<path fill="none" stroke="#63b8ff" d="M2230.83,-360.81C2174.71,-364.22 2080.07,-369.97 2020.02,-373.62"/>
<polygon fill="#63b8ff" stroke="#63b8ff" points="2231.08,-364.3 2240.85,-360.2 2230.65,-357.31 2231.08,-364.3"/>
</a>
</g>
</g>
<!-- Node32 -->
<g id="Node000032" class="node">
<title>Node32</title>
<g id="a_Node000032"><a xlink:href="../../d5/d6f/classlamina_1_1Solver.html#a622812464260dd689d26a7f66ae99633" target="_top" xlink:title="求解多项式方程组，返回所有解。">
<polygon fill="white" stroke="#666666" points="937,-480 818,-480 818,-450 937,-450 937,-480"/>
<text text-anchor="start" x="826" y="-468" font-family="Helvetica,sans-Serif" font-size="10.00">lamina::Solver::solve</text>
<text text-anchor="middle" x="877.5" y="-457" font-family="Helvetica,sans-Serif" font-size="10.00">_polynomial_system</text>
</a>
</g>
</g>
<!-- Node1&#45;&gt;Node32 -->
<g id="edge49_Node000001_Node000032" class="edge">
<title>Node1&#45;&gt;Node32</title>
<g id="a_edge49_Node000001_Node000032"><a xlink:title=" ">
<path fill="none" stroke="#63b8ff" d="M2262.08,-375.32C2220.24,-421.83 2096.23,-546 1964.5,-546 1964.5,-546 1964.5,-546 1257,-546 1132.34,-546 989.61,-503.47 920.44,-480.05"/>
<polygon fill="#63b8ff" stroke="#63b8ff" points="2264.92,-377.39 2268.92,-367.58 2259.67,-372.75 2264.92,-377.39"/>
</a>
</g>
</g>
<!-- Node36 -->
<g id="Node000036" class="node">
<title>Node36</title>
<g id="a_Node000036"><a xlink:href="../../d1/d42/namespacelamina.html#a15c18d12300d4d54180562f3d444a325" target="_top" xlink:title="使用四次公式求解四次方程 ax⁴ + bx³ + cx² + dx + e = 0。">
<polygon fill="white" stroke="#666666" points="1856,-310.5 1734,-310.5 1734,-291.5 1856,-291.5 1856,-310.5"/>
<text text-anchor="middle" x="1795" y="-298.5" font-family="Helvetica,sans-Serif" font-size="10.00">lamina::solve_quartic</text>
</a>
</g>
</g>
<!-- Node1&#45;&gt;Node36 -->
<g id="edge56_Node000001_Node000036" class="edge">
<title>Node1&#45;&gt;Node36</title>
<g id="a_edge56_Node000001_Node000036"><a xlink:title=" ">
<path fill="none" stroke="#63b8ff" d="M2230.76,-352.72C2158.46,-344.43 2014.26,-327.79 1892,-313 1880.41,-311.6 1868.04,-310.07 1856.16,-308.6"/>
<polygon fill="#63b8ff" stroke="#63b8ff" points="2230.56,-356.22 2240.89,-353.88 2231.36,-349.26 2230.56,-356.22"/>
</a>
</g>
</g>
<!-- Node37 -->
<g id="Node000037" class="node">
<title>Node37</title>
<g id="a_Node000037"><a xlink:href="../../d1/d42/namespacelamina.html#a0a882c5382e9e03230d59990c2e159e8" target="_top" xlink:title=" ">
<polygon fill="white" stroke="#666666" points="2205,-311 2071,-311 2071,-281 2205,-281 2205,-311"/>
<text text-anchor="start" x="2079" y="-299" font-family="Helvetica,sans-Serif" font-size="10.00">lamina::solve_quadratic</text>
<text text-anchor="middle" x="2138" y="-288" font-family="Helvetica,sans-Serif" font-size="10.00">_internal</text>
</a>
</g>
</g>
<!-- Node1&#45;&gt;Node37 -->
<g id="edge50_Node000001_Node000037" class="edge">
<title>Node1&#45;&gt;Node37</title>
<g id="a_edge50_Node000001_Node000037"><a xlink:title=" ">
<path fill="none" stroke="#63b8ff" d="M2246.91,-344.08C2234.02,-338.15 2218.8,-331.19 2205,-325 2194.84,-320.44 2183.76,-315.54 2173.64,-311.1"/>
<polygon fill="#63b8ff" stroke="#63b8ff" points="2245.7,-347.38 2256.24,-348.38 2248.63,-341.02 2245.7,-347.38"/>
</a>
</g>
</g>
<!-- Node3 -->
<g id="Node000003" class="node">
<title>Node3</title>
<g id="a_Node000003"><a xlink:href="../../d1/d42/namespacelamina.html#af4c0e5cda909c838a751506961c0befe" target="_top" xlink:title=" ">
<polygon fill="white" stroke="#666666" points="1687.5,-412 1568.5,-412 1568.5,-382 1687.5,-382 1687.5,-412"/>
<text text-anchor="start" x="1576.5" y="-400" font-family="Helvetica,sans-Serif" font-size="10.00">lamina::solve_closed</text>
<text text-anchor="middle" x="1628" y="-389" font-family="Helvetica,sans-Serif" font-size="10.00">_form_from_poly</text>
</a>
</g>
</g>
<!-- Node2&#45;&gt;Node3 -->
<g id="edge2_Node000002_Node000003" class="edge">
<title>Node2&#45;&gt;Node3</title>
<g id="a_edge2_Node000002_Node000003"><a xlink:title=" ">
<path fill="none" stroke="#63b8ff" d="M1896.67,-386.74C1883.24,-388.42 1869.19,-389.96 1856,-391 1799.01,-395.49 1733.76,-396.82 1687.88,-397.12"/>
<polygon fill="#63b8ff" stroke="#63b8ff" points="1897.32,-390.19 1906.79,-385.44 1896.42,-383.25 1897.32,-390.19"/>
</a>
</g>
</g>
<!-- Node5 -->
<g id="Node000005" class="node">
<title>Node5</title>
<g id="a_Node000005"><a xlink:href="../../d1/d42/namespacelamina.html#a80fc657ac2b00d500335b4bce1b02e67" target="_top" xlink:title=" ">
<polygon fill="white" stroke="#666666" points="1687.5,-279 1568.5,-279 1568.5,-249 1687.5,-249 1687.5,-279"/>
<text text-anchor="start" x="1576.5" y="-267" font-family="Helvetica,sans-Serif" font-size="10.00">lamina::solve_closed</text>
<text text-anchor="middle" x="1628" y="-256" font-family="Helvetica,sans-Serif" font-size="10.00">_form_poly</text>
</a>
</g>
</g>
<!-- Node2&#45;&gt;Node5 -->
<g id="edge5_Node000002_Node000005" class="edge">
<title>Node2&#45;&gt;Node5</title>
<g id="a_edge5_Node000002_Node000005"><a xlink:title=" ">
<path fill="none" stroke="#63b8ff" d="M1909.91,-365.17C1852.9,-352.09 1765.8,-331.23 1734,-319 1717.11,-312.51 1714.02,-308.41 1698,-300 1684.84,-293.09 1670.25,-285.48 1657.89,-279.03"/>
<polygon fill="#63b8ff" stroke="#63b8ff" points="1909.3,-368.63 1919.83,-367.44 1910.86,-361.8 1909.3,-368.63"/>
</a>
</g>
</g>
<!-- Node35 -->
<g id="Node000035" class="node">
<title>Node35</title>
<g id="a_Node000035"><a xlink:href="../../d2/dab/solve__visitor_8cpp.html#a45c4f5e04665a33edb2c049f78ae6e5d" target="_top" xlink:title=" ">
<polygon fill="white" stroke="#666666" points="1698,-328.5 1558,-328.5 1558,-309.5 1698,-309.5 1698,-328.5"/>
<text text-anchor="middle" x="1628" y="-316.5" font-family="Helvetica,sans-Serif" font-size="10.00">solve_polynomial_closed</text>
</a>
</g>
</g>
<!-- Node2&#45;&gt;Node35 -->
<g id="edge43_Node000002_Node000035" class="edge">
<title>Node2&#45;&gt;Node35</title>
<g id="a_edge43_Node000002_Node000035"><a xlink:title=" ">
<path fill="none" stroke="#63b8ff" d="M1896.46,-373.72C1850.51,-370.54 1788.05,-364.46 1734,-353 1705.88,-347.04 1674.67,-336.39 1653.64,-328.59"/>
<polygon fill="#63b8ff" stroke="#63b8ff" points="1896.38,-377.22 1906.59,-374.39 1896.84,-370.23 1896.38,-377.22"/>
</a>
</g>
</g>
<!-- Node2&#45;&gt;Node36 -->
<g id="edge45_Node000002_Node000036" class="edge">
<title>Node2&#45;&gt;Node36</title>
<g id="a_edge45_Node000002_Node000036"><a xlink:title=" ">
<path fill="none" stroke="#63b8ff" d="M1917.45,-364.17C1908.78,-361.01 1899.94,-357.28 1892,-353 1874.16,-343.38 1873.58,-335.09 1856,-325 1846.17,-319.36 1834.76,-314.44 1824.54,-310.54"/>
<polygon fill="#63b8ff" stroke="#63b8ff" points="1916.51,-367.55 1927.11,-367.5 1918.79,-360.93 1916.51,-367.55"/>
</a>
</g>
</g>
<!-- Node4 -->
<g id="Node000004" class="node">
<title>Node4</title>
<g id="a_Node000004"><a xlink:href="../../d1/d42/namespacelamina.html#ac4d52f7d8e5ad84aad18c73b8a833c8f" target="_top" xlink:title="化简 RootOf 表达式（如可用根式表示则转换为闭式）。">
<polygon fill="white" stroke="#666666" points="1512.5,-406.5 1382.5,-406.5 1382.5,-387.5 1512.5,-387.5 1512.5,-406.5"/>
<text text-anchor="middle" x="1447.5" y="-394.5" font-family="Helvetica,sans-Serif" font-size="10.00">lamina::rootof_simplify</text>
</a>
</g>
</g>
<!-- Node3&#45;&gt;Node4 -->
<g id="edge3_Node000003_Node000004" class="edge">
<title>Node3&#45;&gt;Node4</title>
<g id="a_edge3_Node000003_Node000004"><a xlink:title=" ">
<path fill="none" stroke="#63b8ff" d="M1557.89,-397C1542.99,-397 1527.3,-397 1512.61,-397"/>
<polygon fill="#63b8ff" stroke="#63b8ff" points="1558.06,-400.5 1568.06,-397 1558.06,-393.5 1558.06,-400.5"/>
</a>
</g>
</g>
<!-- Node4&#45;&gt;Node4 -->
<g id="edge4_Node000004_Node000004" class="edge">
<title>Node4&#45;&gt;Node4</title>
<g id="a_edge4_Node000004_Node000004"><a xlink:title=" ">
<path fill="none" stroke="#63b8ff" d="M1481.18,-414.95C1480.22,-420.32 1468.99,-424.5 1447.5,-424.5 1415.51,-424.5 1406.26,-415.23 1419.76,-406.58"/>
<polygon fill="#63b8ff" stroke="#63b8ff" points="1483.89,-412.71 1475.24,-406.58 1478.18,-416.76 1483.89,-412.71"/>
</a>
</g>
</g>
<!-- Node6 -->
<g id="Node000006" class="node">
<title>Node6</title>
<g id="a_Node000006"><a xlink:href="../../d1/d42/namespacelamina.html#a775754abcc1742679dccd792de33ae6e" target="_top" xlink:title="通过因式分解求解多项式方程。">
<polygon fill="white" stroke="#666666" points="1522,-208.5 1373,-208.5 1373,-189.5 1522,-189.5 1522,-208.5"/>
<text text-anchor="middle" x="1447.5" y="-196.5" font-family="Helvetica,sans-Serif" font-size="10.00">lamina::solve_by_factoring</text>
</a>
</g>
</g>
<!-- Node5&#45;&gt;Node6 -->
<g id="edge6_Node000005_Node000006" class="edge">
<title>Node5&#45;&gt;Node6</title>
<g id="a_edge6_Node000005_Node000006"><a xlink:title=" ">
<path fill="none" stroke="#63b8ff" d="M1576.08,-245.46C1543.02,-233.42 1501.29,-218.22 1474.74,-208.56"/>
<polygon fill="#63b8ff" stroke="#63b8ff" points="1575.01,-248.79 1585.6,-248.92 1577.4,-242.21 1575.01,-248.79"/>
</a>
</g>
</g>
<!-- Node7 -->
<g id="Node000007" class="node">
<title>Node7</title>
<g id="a_Node000007"><a xlink:href="../../d1/d42/namespacelamina.html#a67cbeb787714a13d138e663951330c38" target="_top" xlink:title=" ">
<polygon fill="white" stroke="#666666" points="1310,-167 1206,-167 1206,-137 1310,-137 1310,-167"/>
<text text-anchor="start" x="1214" y="-155" font-family="Helvetica,sans-Serif" font-size="10.00">lamina::find_roots</text>
<text text-anchor="middle" x="1258" y="-144" font-family="Helvetica,sans-Serif" font-size="10.00">_with_multiplicity</text>
</a>
</g>
</g>
<!-- Node6&#45;&gt;Node7 -->
<g id="edge7_Node000006_Node000007" class="edge">
<title>Node6&#45;&gt;Node7</title>
<g id="a_edge7_Node000006_Node000007"><a xlink:title=" ">
<path fill="none" stroke="#63b8ff" d="M1398.53,-186.98C1371.45,-180.19 1337.61,-171.7 1310.04,-164.79"/>
<polygon fill="#63b8ff" stroke="#63b8ff" points="1398.01,-190.45 1408.56,-189.49 1399.71,-183.66 1398.01,-190.45"/>
</a>
</g>
</g>
<!-- Node12 -->
<g id="Node000012" class="node">
<title>Node12</title>
<g id="a_Node000012"><a xlink:href="../../d1/d42/namespacelamina.html#a06e924d67656611208ba81ad13fbee8d" target="_top" xlink:title="方程求解策略调度器，根据表达式类型选择合适的求解方法。">
<polygon fill="white" stroke="#666666" points="1322.5,-328.5 1193.5,-328.5 1193.5,-309.5 1322.5,-309.5 1322.5,-328.5"/>
<text text-anchor="middle" x="1258" y="-316.5" font-family="Helvetica,sans-Serif" font-size="10.00">lamina::solve_dispatch</text>
</a>
</g>
</g>
<!-- Node6&#45;&gt;Node12 -->
<g id="edge13_Node000006_Node000012" class="edge">
<title>Node6&#45;&gt;Node12</title>
<g id="a_edge13_Node000006_Node000012"><a xlink:title=" ">
<path fill="none" stroke="#63b8ff" d="M1422.84,-214.14C1383.72,-239.18 1306.67,-288.49 1274.1,-309.34"/>
<polygon fill="#63b8ff" stroke="#63b8ff" points="1424.94,-216.96 1431.47,-208.62 1421.16,-211.06 1424.94,-216.96"/>
</a>
</g>
</g>
<!-- Node34 -->
<g id="Node000034" class="node">
<title>Node34</title>
<g id="a_Node000034"><a xlink:href="../../d1/d42/namespacelamina.html#a46027488de3bc5e327fdfe4806e8fa5b" target="_top" xlink:title=" ">
<polygon fill="white" stroke="#666666" points="1337,-60.5 1179,-60.5 1179,-41.5 1337,-41.5 1337,-60.5"/>
<text text-anchor="middle" x="1258" y="-48.5" font-family="Helvetica,sans-Serif" font-size="10.00">lamina::solve_symbolic_poly</text>
</a>
</g>
</g>
<!-- Node6&#45;&gt;Node34 -->
<g id="edge41_Node000006_Node000034" class="edge">
<title>Node6&#45;&gt;Node34</title>
<g id="a_edge41_Node000006_Node000034"><a xlink:title=" ">
<path fill="none" stroke="#63b8ff" d="M1426.15,-182.94C1387.06,-152.08 1302.54,-85.37 1271.1,-60.55"/>
<polygon fill="#63b8ff" stroke="#63b8ff" points="1424.18,-185.84 1434.2,-189.29 1428.52,-180.35 1424.18,-185.84"/>
</a>
</g>
</g>
<!-- Node8 -->
<g id="Node000008" class="node">
<title>Node8</title>
<g id="a_Node000008"><a xlink:href="../../db/d26/classlamina_1_1InequalitySolver.html#ad7aab28f2d96ad0eb07ff291a650afb8" target="_top" xlink:title="求解单个不等式">
<polygon fill="white" stroke="#666666" points="1138,-96 1002,-96 1002,-66 1138,-66 1138,-96"/>
<text text-anchor="start" x="1010" y="-84" font-family="Helvetica,sans-Serif" font-size="10.00">lamina::InequalitySolver</text>
<text text-anchor="middle" x="1070" y="-73" font-family="Helvetica,sans-Serif" font-size="10.00">::solve_inequality</text>
</a>
</g>
</g>
<!-- Node7&#45;&gt;Node8 -->
<g id="edge8_Node000007_Node000008" class="edge">
<title>Node7&#45;&gt;Node8</title>
<g id="a_edge8_Node000007_Node000008"><a xlink:title=" ">
<path fill="none" stroke="#63b8ff" d="M1207.97,-133.29C1177.5,-121.66 1138.86,-106.9 1110.39,-96.04"/>
<polygon fill="#63b8ff" stroke="#63b8ff" points="1206.96,-136.65 1217.55,-136.94 1209.46,-130.11 1206.96,-136.65"/>
</a>
</g>
</g>
<!-- Node11 -->
<g id="Node000011" class="node">
<title>Node11</title>
<g id="a_Node000011"><a xlink:href="../../db/d26/classlamina_1_1InequalitySolver.html#a2244f0ce0ad6b3b5781a8c7ced636447" target="_top" xlink:title="求解有理不等式 numerator/denominator ≷ 0">
<polygon fill="white" stroke="#666666" points="1143,-167 997,-167 997,-137 1143,-137 1143,-167"/>
<text text-anchor="start" x="1005" y="-155" font-family="Helvetica,sans-Serif" font-size="10.00">lamina::InequalitySolver</text>
<text text-anchor="middle" x="1070" y="-144" font-family="Helvetica,sans-Serif" font-size="10.00">::solve_rational_inequality</text>
</a>
</g>
</g>
<!-- Node7&#45;&gt;Node11 -->
<g id="edge12_Node000007_Node000011" class="edge">
<title>Node7&#45;&gt;Node11</title>
<g id="a_edge12_Node000007_Node000011"><a xlink:title=" ">
<path fill="none" stroke="#63b8ff" d="M1195.46,-152C1178.67,-152 1160.34,-152 1143.03,-152"/>
<polygon fill="#63b8ff" stroke="#63b8ff" points="1195.68,-155.5 1205.68,-152 1195.68,-148.5 1195.68,-155.5"/>
</a>
</g>
</g>
<!-- Node9 -->
<g id="Node000009" class="node">
<title>Node9</title>
<g id="a_Node000009"><a xlink:href="../../db/d26/classlamina_1_1InequalitySolver.html#ac97e2561a906111e54c90d494d0fef92" target="_top" xlink:title="求解不等式组（取交集）">
<polygon fill="white" stroke="#666666" points="945.5,-96 809.5,-96 809.5,-66 945.5,-66 945.5,-96"/>
<text text-anchor="start" x="817.5" y="-84" font-family="Helvetica,sans-Serif" font-size="10.00">lamina::InequalitySolver</text>
<text text-anchor="middle" x="877.5" y="-73" font-family="Helvetica,sans-Serif" font-size="10.00">::solve_inequalities</text>
</a>
</g>
</g>
<!-- Node8&#45;&gt;Node9 -->
<g id="edge9_Node000008_Node000009" class="edge">
<title>Node8&#45;&gt;Node9</title>
<g id="a_edge9_Node000008_Node000009"><a xlink:title=" ">
<path fill="none" stroke="#63b8ff" d="M991.45,-81C976.29,-81 960.5,-81 945.7,-81"/>
<polygon fill="#63b8ff" stroke="#63b8ff" points="991.84,-84.5 1001.84,-81 991.84,-77.5 991.84,-84.5"/>
</a>
</g>
</g>
<!-- Node10 -->
<g id="Node000010" class="node">
<title>Node10</title>
<g id="a_Node000010"><a xlink:href="../../db/d26/classlamina_1_1InequalitySolver.html#a52f3cb8d15f7d98c4cfe1d8c39f910fc" target="_top" xlink:title="求解含参数的不等式，返回分段结果">
<polygon fill="white" stroke="#666666" points="958,-30 797,-30 797,0 958,0 958,-30"/>
<text text-anchor="start" x="805" y="-18" font-family="Helvetica,sans-Serif" font-size="10.00">lamina::InequalitySolver</text>
<text text-anchor="middle" x="877.5" y="-7" font-family="Helvetica,sans-Serif" font-size="10.00">::solve_parametric_inequality</text>
</a>
</g>
</g>
<!-- Node8&#45;&gt;Node10 -->
<g id="edge10_Node000008_Node000010" class="edge">
<title>Node8&#45;&gt;Node10</title>
<g id="a_edge10_Node000008_Node000010"><a xlink:title=" ">
<path fill="none" stroke="#63b8ff" d="M1015.56,-62.48C986.02,-52.25 949.79,-39.7 922,-30.07"/>
<polygon fill="#63b8ff" stroke="#63b8ff" points="1014.7,-65.89 1025.3,-65.86 1016.99,-59.28 1014.7,-65.89"/>
</a>
</g>
</g>
<!-- Node10&#45;&gt;Node10 -->
<g id="edge11_Node000010_Node000010" class="edge">
<title>Node10&#45;&gt;Node10</title>
<g id="a_edge11_Node000010_Node000010"><a xlink:title=" ">
<path fill="none" stroke="#63b8ff" d="M911.11,-40.6C906.51,-44.97 895.31,-48 877.5,-48 847.5,-48 836.25,-39.41 843.75,-30.28"/>
<polygon fill="#63b8ff" stroke="#63b8ff" points="914.61,-40.32 911.25,-30.28 907.61,-40.23 914.61,-40.32"/>
</a>
</g>
</g>
<!-- Node13 -->
<g id="Node000013" class="node">
<title>Node13</title>
<g id="a_Node000013"><a xlink:href="../../dc/d25/classSymbolicExpr.html#a8e2b693429c55311a664ed0306bc9b2e" target="_top" xlink:title="求解方程，返回指定变量的所有解。">
<polygon fill="white" stroke="#666666" points="1128,-328.5 1012,-328.5 1012,-309.5 1128,-309.5 1128,-328.5"/>
<text text-anchor="middle" x="1070" y="-316.5" font-family="Helvetica,sans-Serif" font-size="10.00">SymbolicExpr::solve</text>
</a>
</g>
</g>
<!-- Node12&#45;&gt;Node13 -->
<g id="edge14_Node000012_Node000013" class="edge">
<title>Node12&#45;&gt;Node13</title>
<g id="a_edge14_Node000012_Node000013"><a xlink:title=" ">
<path fill="none" stroke="#63b8ff" d="M1183.2,-319C1164.87,-319 1145.51,-319 1128.12,-319"/>
<polygon fill="#63b8ff" stroke="#63b8ff" points="1183.25,-322.5 1193.25,-319 1183.25,-315.5 1183.25,-322.5"/>
</a>
</g>
</g>
<!-- Node14 -->
<g id="Node000014" class="node">
<title>Node14</title>
<g id="a_Node000014"><a xlink:href="../../dc/d25/classSymbolicExpr.html#a83879d764986be80edbedc769b96224a" target="_top" xlink:title="计算矩阵的特征值。">
<polygon fill="white" stroke="#666666" points="337,-219.5 188,-219.5 188,-200.5 337,-200.5 337,-219.5"/>
<text text-anchor="middle" x="262.5" y="-207.5" font-family="Helvetica,sans-Serif" font-size="10.00">SymbolicExpr::eigenvalues</text>
</a>
</g>
</g>
<!-- Node13&#45;&gt;Node14 -->
<g id="edge15_Node000013_Node000014" class="edge">
<title>Node13&#45;&gt;Node14</title>
<g id="a_edge15_Node000013_Node000014"><a xlink:title=" ">
<path fill="none" stroke="#63b8ff" d="M1050.98,-302.59C1030.59,-284.88 995.68,-257.05 961,-241 876.68,-201.97 850.24,-202.19 758,-191 588.13,-170.39 543.48,-176.32 373,-191 351.47,-192.85 327.82,-196.72 308.03,-200.49"/>
<polygon fill="#63b8ff" stroke="#63b8ff" points="1048.73,-305.28 1058.54,-309.28 1053.37,-300.03 1048.73,-305.28"/>
</a>
</g>
</g>
<!-- Node16 -->
<g id="Node000016" class="node">
<title>Node16</title>
<g id="a_Node000016"><a xlink:href="../../dc/d25/classSymbolicExpr.html#a884244959506063b172228ad99ab0730" target="_top" xlink:title="对表达式进行因式分解。">
<polygon fill="white" stroke="#666666" points="936.5,-269.5 818.5,-269.5 818.5,-250.5 936.5,-250.5 936.5,-269.5"/>
<text text-anchor="middle" x="877.5" y="-257.5" font-family="Helvetica,sans-Serif" font-size="10.00">SymbolicExpr::factor</text>
</a>
</g>
</g>
<!-- Node13&#45;&gt;Node16 -->
<g id="edge17_Node000013_Node000016" class="edge">
<title>Node13&#45;&gt;Node16</title>
<g id="a_edge17_Node000013_Node000016"><a xlink:title=" ">
<path fill="none" stroke="#63b8ff" d="M1030.55,-306.23C1009.96,-299.47 984.15,-291.12 961,-284 945.03,-279.09 927.24,-273.88 912.29,-269.58"/>
<polygon fill="#63b8ff" stroke="#63b8ff" points="1029.6,-309.6 1040.2,-309.4 1031.79,-302.95 1029.6,-309.6"/>
</a>
</g>
</g>
<!-- Node24 -->
<g id="Node000024" class="node">
<title>Node24</title>
<g id="a_Node000024"><a xlink:href="../../d1/d42/namespacelamina.html#a334f8d9c2923abbed11b2e4729c2b057" target="_top" xlink:title=" ">
<polygon fill="white" stroke="#666666" points="957,-431.5 798,-431.5 798,-412.5 957,-412.5 957,-431.5"/>
<text text-anchor="middle" x="877.5" y="-419.5" font-family="Helvetica,sans-Serif" font-size="10.00">lamina::invert_substitution_h</text>
</a>
</g>
</g>
<!-- Node13&#45;&gt;Node24 -->
<g id="edge27_Node000013_Node000024" class="edge">
<title>Node13&#45;&gt;Node24</title>
<g id="a_edge27_Node000013_Node000024"><a xlink:title=" ">
<path fill="none" stroke="#63b8ff" d="M1050.89,-335.36C1030.42,-353.07 995.44,-381.05 961,-398 948.82,-403.99 934.88,-408.76 921.96,-412.41"/>
<polygon fill="#63b8ff" stroke="#63b8ff" points="1053.28,-337.91 1058.48,-328.68 1048.66,-332.65 1053.28,-337.91"/>
</a>
</g>
</g>
<!-- Node25 -->
<g id="Node000025" class="node">
<title>Node25</title>
<g id="a_Node000025"><a xlink:href="../../d1/d42/namespacelamina.html#a12ae4dd3753dfea8b5e9d84b3c748855" target="_top" xlink:title=" ">
<polygon fill="white" stroke="#666666" points="758,-420.5 570,-420.5 570,-401.5 758,-401.5 758,-420.5"/>
<text text-anchor="middle" x="664" y="-408.5" font-family="Helvetica,sans-Serif" font-size="10.00">lamina::solve_transcendental_impl</text>
</a>
</g>
</g>
<!-- Node13&#45;&gt;Node25 -->
<g id="edge39_Node000013_Node000025" class="edge">
<title>Node13&#45;&gt;Node25</title>
<g id="a_edge39_Node000013_Node000025"><a xlink:title=" ">
<path fill="none" stroke="#63b8ff" d="M1041.25,-333.09C1019.84,-343.4 989.21,-356.94 961,-365 894.5,-384.01 817.2,-395.68 758.28,-402.51"/>
<polygon fill="#63b8ff" stroke="#63b8ff" points="1042.96,-336.15 1050.4,-328.61 1039.88,-329.86 1042.96,-336.15"/>
</a>
</g>
</g>
<!-- Node26 -->
<g id="Node000026" class="node">
<title>Node26</title>
<g id="a_Node000026"><a xlink:href="../../d1/d42/namespacelamina.html#a704f26202e00de52ae9b961bc527a9ff" target="_top" xlink:title=" ">
<polygon fill="white" stroke="#666666" points="510,-426 397,-426 397,-396 510,-396 510,-426"/>
<text text-anchor="start" x="405" y="-414" font-family="Helvetica,sans-Serif" font-size="10.00">lamina::solve_inner</text>
<text text-anchor="middle" x="453.5" y="-403" font-family="Helvetica,sans-Serif" font-size="10.00">_equation</text>
</a>
</g>
</g>
<!-- Node13&#45;&gt;Node26 -->
<g id="edge33_Node000013_Node000026" class="edge">
<title>Node13&#45;&gt;Node26</title>
<g id="a_edge33_Node000013_Node000026"><a xlink:title=" ">
<path fill="none" stroke="#63b8ff" d="M1001.67,-317.56C988.2,-317.33 974.15,-317.12 961,-317 886.78,-316.31 866.78,-302.44 794,-317 777,-320.4 774.43,-326.47 758,-332 672.86,-360.66 571.39,-385.19 510.01,-399.01"/>
<polygon fill="#63b8ff" stroke="#63b8ff" points="1001.77,-321.06 1011.83,-317.74 1001.9,-314.06 1001.77,-321.06"/>
</a>
</g>
</g>
<!-- Node28 -->
<g id="Node000028" class="node">
<title>Node28</title>
<g id="a_Node000028"><a xlink:href="../../d6/da9/classlamina_1_1ParametricSolver.html#a41d42755b42e64784e9bc7c7f6f5715f" target="_top" xlink:title="求解关于未知数为多项式的含参方程组">
<polygon fill="white" stroke="#666666" points="961,-144 794,-144 794,-114 961,-114 961,-144"/>
<text text-anchor="start" x="802" y="-132" font-family="Helvetica,sans-Serif" font-size="10.00">lamina::ParametricSolver</text>
<text text-anchor="middle" x="877.5" y="-121" font-family="Helvetica,sans-Serif" font-size="10.00">::solve_polynomial_parametric</text>
</a>
</g>
</g>
<!-- Node13&#45;&gt;Node28 -->
<g id="edge34_Node000013_Node000028" class="edge">
<title>Node13&#45;&gt;Node28</title>
<g id="a_edge34_Node000013_Node000028"><a xlink:title=" ">
<path fill="none" stroke="#63b8ff" d="M1061.13,-299.95C1046.37,-266.5 1011.42,-197.05 961,-158 953.8,-152.42 945.44,-147.87 936.86,-144.16"/>
<polygon fill="#63b8ff" stroke="#63b8ff" points="1058.05,-301.65 1065.2,-309.47 1064.48,-298.9 1058.05,-301.65"/>
</a>
</g>
</g>
<!-- Node13&#45;&gt;Node32 -->
<g id="edge38_Node000013_Node000032" class="edge">
<title>Node13&#45;&gt;Node32</title>
<g id="a_edge38_Node000013_Node000032"><a xlink:title=" ">
<path fill="none" stroke="#63b8ff" d="M1057.7,-337.31C1040.25,-364.07 1004.2,-413.63 961,-441 953.69,-445.63 945.46,-449.39 937.1,-452.45"/>
<polygon fill="#63b8ff" stroke="#63b8ff" points="1060.85,-338.89 1063.27,-328.57 1054.94,-335.13 1060.85,-338.89"/>
</a>
</g>
</g>
<!-- Node33 -->
<g id="Node000033" class="node">
<title>Node33</title>
<g id="a_Node000033"><a xlink:href="../../d1/d42/namespacelamina.html#a14b812ff63e0f874b8f45b9d6c746195" target="_top" xlink:title="Solve an equation with assumption&#45;based domain filtering.">
<polygon fill="white" stroke="#666666" points="932,-356 823,-356 823,-326 932,-326 932,-356"/>
<text text-anchor="start" x="831" y="-344" font-family="Helvetica,sans-Serif" font-size="10.00">lamina::solve_with</text>
<text text-anchor="middle" x="877.5" y="-333" font-family="Helvetica,sans-Serif" font-size="10.00">_assumptions</text>
</a>
</g>
</g>
<!-- Node13&#45;&gt;Node33 -->
<g id="edge40_Node000013_Node000033" class="edge">
<title>Node13&#45;&gt;Node33</title>
<g id="a_edge40_Node000013_Node000033"><a xlink:title=" ">
<path fill="none" stroke="#63b8ff" d="M1001.86,-326.75C978.97,-329.4 953.7,-332.31 932.03,-334.82"/>
<polygon fill="#63b8ff" stroke="#63b8ff" points="1002.31,-330.22 1011.84,-325.6 1001.51,-323.27 1002.31,-330.22"/>
</a>
</g>
</g>
<!-- Node15 -->
<g id="Node000015" class="node">
<title>Node15</title>
<g id="a_Node000015"><a xlink:href="../../dc/d25/classSymbolicExpr.html#a7777100ca36b7a1a7285ece2380dcf4b" target="_top" xlink:title="计算矩阵的特征向量。">
<polygon fill="white" stroke="#666666" points="152,-219.5 0,-219.5 0,-200.5 152,-200.5 152,-219.5"/>
<text text-anchor="middle" x="76" y="-207.5" font-family="Helvetica,sans-Serif" font-size="10.00">SymbolicExpr::eigenvectors</text>
</a>
</g>
</g>
<!-- Node14&#45;&gt;Node15 -->
<g id="edge16_Node000014_Node000015" class="edge">
<title>Node14&#45;&gt;Node15</title>
<g id="a_edge16_Node000014_Node000015"><a xlink:title=" ">
<path fill="none" stroke="#63b8ff" d="M177.52,-210C169.04,-210 160.48,-210 152.11,-210"/>
<polygon fill="#63b8ff" stroke="#63b8ff" points="177.79,-213.5 187.79,-210 177.79,-206.5 177.79,-213.5"/>
</a>
</g>
</g>
<!-- Node17 -->
<g id="Node000017" class="node">
<title>Node17</title>
<g id="a_Node000017"><a xlink:href="../../dc/d25/classSymbolicExpr.html#a3b4cc1669b1b117b15cc82783a22b4fc" target="_top" xlink:title="计算矩阵行列式。">
<polygon fill="white" stroke="#666666" points="738.5,-219.5 589.5,-219.5 589.5,-200.5 738.5,-200.5 738.5,-219.5"/>
<text text-anchor="middle" x="664" y="-207.5" font-family="Helvetica,sans-Serif" font-size="10.00">SymbolicExpr::determinant</text>
</a>
</g>
</g>
<!-- Node16&#45;&gt;Node17 -->
<g id="edge18_Node000016_Node000017" class="edge">
<title>Node16&#45;&gt;Node17</title>
<g id="a_edge18_Node000016_Node000017"><a xlink:title=" ">
<path fill="none" stroke="#63b8ff" d="M826.17,-248.1C789.28,-239.38 739.84,-227.69 705.49,-219.57"/>
<polygon fill="#63b8ff" stroke="#63b8ff" points="825.68,-251.58 836.22,-250.48 827.29,-244.77 825.68,-251.58"/>
</a>
</g>
</g>
<!-- Node20 -->
<g id="Node000020" class="node">
<title>Node20</title>
<g id="a_Node000020"><a xlink:href="../../dc/d25/classSymbolicExpr.html#ae608271a617ef878c81d04375538537f" target="_top" xlink:title="计算两个多项式关于指定变量的结式。">
<polygon fill="white" stroke="#666666" points="719,-286 609,-286 609,-256 719,-256 719,-286"/>
<text text-anchor="start" x="617" y="-274" font-family="Helvetica,sans-Serif" font-size="10.00">SymbolicExpr::poly</text>
<text text-anchor="middle" x="664" y="-263" font-family="Helvetica,sans-Serif" font-size="10.00">_resultant</text>
</a>
</g>
</g>
<!-- Node16&#45;&gt;Node20 -->
<g id="edge23_Node000016_Node000020" class="edge">
<title>Node16&#45;&gt;Node20</title>
<g id="a_edge23_Node000016_Node000020"><a xlink:title=" ">
<path fill="none" stroke="#63b8ff" d="M808.42,-263.54C779.59,-265.04 746.46,-266.76 719.31,-268.18"/>
<polygon fill="#63b8ff" stroke="#63b8ff" points="808.62,-267.04 818.43,-263.02 808.26,-260.04 808.62,-267.04"/>
</a>
</g>
</g>
<!-- Node21 -->
<g id="Node000021" class="node">
<title>Node21</title>
<g id="a_Node000021"><a xlink:href="../../dc/d25/classSymbolicExpr.html#ae41c16b68c56de8d4c70a98c85722ff1" target="_top" xlink:title="计算矩阵的行最简阶梯形（RREF）。">
<polygon fill="white" stroke="#666666" points="717.5,-323.5 610.5,-323.5 610.5,-304.5 717.5,-304.5 717.5,-323.5"/>
<text text-anchor="middle" x="664" y="-311.5" font-family="Helvetica,sans-Serif" font-size="10.00">SymbolicExpr::rref</text>
</a>
</g>
</g>
<!-- Node16&#45;&gt;Node21 -->
<g id="edge24_Node000016_Node000021" class="edge">
<title>Node16&#45;&gt;Node21</title>
<g id="a_edge24_Node000016_Node000021"><a xlink:title=" ">
<path fill="none" stroke="#63b8ff" d="M833.29,-272.45C820.62,-276.13 806.75,-280.2 794,-284 777.97,-288.78 774.21,-290.88 758,-295 744.58,-298.41 729.96,-301.63 716.36,-304.41"/>
<polygon fill="#63b8ff" stroke="#63b8ff" points="834.52,-275.74 843.15,-269.59 832.57,-269.02 834.52,-275.74"/>
</a>
</g>
</g>
<!-- Node17&#45;&gt;Node17 -->
<g id="edge21_Node000017_Node000017" class="edge">
<title>Node17&#45;&gt;Node17</title>
<g id="a_edge21_Node000017_Node000017"><a xlink:title=" ">
<path fill="none" stroke="#63b8ff" d="M703.36,-226.81C703.95,-232.71 690.83,-237.5 664,-237.5 626.68,-237.5 615.89,-228.23 631.63,-219.58"/>
<polygon fill="#63b8ff" stroke="#63b8ff" points="705.84,-224.34 696.37,-219.58 700.8,-229.2 705.84,-224.34"/>
</a>
</g>
</g>
<!-- Node18 -->
<g id="Node000018" class="node">
<title>Node18</title>
<g id="a_Node000018"><a xlink:href="../../dc/d25/classSymbolicExpr.html#a6e8c5c20af88337d449cbf5771d5d28d" target="_top" xlink:title="计算矩阵的特征多项式。">
<polygon fill="white" stroke="#666666" points="519,-256.5 388,-256.5 388,-237.5 519,-237.5 519,-256.5"/>
<text text-anchor="middle" x="453.5" y="-244.5" font-family="Helvetica,sans-Serif" font-size="10.00">SymbolicExpr::charpoly</text>
</a>
</g>
</g>
<!-- Node17&#45;&gt;Node18 -->
<g id="edge19_Node000017_Node000018" class="edge">
<title>Node17&#45;&gt;Node18</title>
<g id="a_edge19_Node000017_Node000018"><a xlink:title=" ">
<path fill="none" stroke="#63b8ff" d="M599.25,-221.31C570.18,-226.47 536.14,-232.51 508.37,-237.44"/>
<polygon fill="#63b8ff" stroke="#63b8ff" points="600.07,-224.72 609.31,-219.53 598.85,-217.83 600.07,-224.72"/>
</a>
</g>
</g>
<!-- Node19 -->
<g id="Node000019" class="node">
<title>Node19</title>
<g id="a_Node000019"><a xlink:href="../../d1/d42/namespacelamina.html#a35783093777191a0254b7f3a2340e0f5" target="_top" xlink:title="计算符号矩阵的行列式">
<polygon fill="white" stroke="#666666" points="530.5,-219.5 376.5,-219.5 376.5,-200.5 530.5,-200.5 530.5,-219.5"/>
<text text-anchor="middle" x="453.5" y="-207.5" font-family="Helvetica,sans-Serif" font-size="10.00">lamina::matrix_determinant</text>
</a>
</g>
</g>
<!-- Node17&#45;&gt;Node19 -->
<g id="edge22_Node000017_Node000019" class="edge">
<title>Node17&#45;&gt;Node19</title>
<g id="a_edge22_Node000017_Node000019"><a xlink:title=" ">
<path fill="none" stroke="#63b8ff" d="M579.06,-210C563.01,-210 546.3,-210 530.52,-210"/>
<polygon fill="#63b8ff" stroke="#63b8ff" points="579.49,-213.5 589.49,-210 579.49,-206.5 579.49,-213.5"/>
</a>
</g>
</g>
<!-- Node18&#45;&gt;Node14 -->
<g id="edge20_Node000018_Node000014" class="edge">
<title>Node18&#45;&gt;Node14</title>
<g id="a_edge20_Node000018_Node000014"><a xlink:title=" ">
<path fill="none" stroke="#63b8ff" d="M393.67,-235.48C367.56,-230.37 337.17,-224.42 312.34,-219.56"/>
<polygon fill="#63b8ff" stroke="#63b8ff" points="393.34,-238.99 403.83,-237.47 394.69,-232.12 393.34,-238.99"/>
</a>
</g>
</g>
<!-- Node22 -->
<g id="Node000022" class="node">
<title>Node22</title>
<g id="a_Node000022"><a xlink:href="../../dc/d25/classSymbolicExpr.html#afa1c1c57bb6c77da5d016f69eaa60703" target="_top" xlink:title="计算矩阵的逆。">
<polygon fill="white" stroke="#666666" points="516,-323.5 391,-323.5 391,-304.5 516,-304.5 516,-323.5"/>
<text text-anchor="middle" x="453.5" y="-311.5" font-family="Helvetica,sans-Serif" font-size="10.00">SymbolicExpr::inverse</text>
</a>
</g>
</g>
<!-- Node21&#45;&gt;Node22 -->
<g id="edge25_Node000021_Node000022" class="edge">
<title>Node21&#45;&gt;Node22</title>
<g id="a_edge25_Node000021_Node000022"><a xlink:title=" ">
<path fill="none" stroke="#63b8ff" d="M600.07,-314C573.55,-314 542.77,-314 516.36,-314"/>
<polygon fill="#63b8ff" stroke="#63b8ff" points="600.39,-317.5 610.39,-314 600.39,-310.5 600.39,-317.5"/>
</a>
</g>
</g>
<!-- Node23 -->
<g id="Node000023" class="node">
<title>Node23</title>
<g id="a_Node000023"><a xlink:href="../../d1/d42/namespacelamina.html#a972455b000c18e71aefd4a84a5708edf" target="_top" xlink:title="计算符号矩阵的逆矩阵">
<polygon fill="white" stroke="#666666" points="327.5,-323.5 197.5,-323.5 197.5,-304.5 327.5,-304.5 327.5,-323.5"/>
<text text-anchor="middle" x="262.5" y="-311.5" font-family="Helvetica,sans-Serif" font-size="10.00">lamina::matrix_inverse</text>
</a>
</g>
</g>
<!-- Node22&#45;&gt;Node23 -->
<g id="edge26_Node000022_Node000023" class="edge">
<title>Node22&#45;&gt;Node23</title>
<g id="a_edge26_Node000022_Node000023"><a xlink:title=" ">
<path fill="none" stroke="#63b8ff" d="M380.74,-314C363.28,-314 344.72,-314 327.64,-314"/>
<polygon fill="#63b8ff" stroke="#63b8ff" points="380.88,-317.5 390.88,-314 380.88,-310.5 380.88,-317.5"/>
</a>
</g>
</g>
<!-- Node24&#45;&gt;Node25 -->
<g id="edge28_Node000024_Node000025" class="edge">
<title>Node24&#45;&gt;Node25</title>
<g id="a_edge28_Node000024_Node000025"><a xlink:title=" ">
<path fill="none" stroke="#63b8ff" d="M787.65,-417.38C777.89,-416.87 767.92,-416.35 758.1,-415.84"/>
<polygon fill="#63b8ff" stroke="#63b8ff" points="787.58,-420.88 797.75,-417.9 787.94,-413.89 787.58,-420.88"/>
</a>
</g>
</g>
<!-- Node25&#45;&gt;Node26 -->
<g id="edge29_Node000025_Node000026" class="edge">
<title>Node25&#45;&gt;Node26</title>
<g id="a_edge29_Node000025_Node000026"><a xlink:title=" ">
<path fill="none" stroke="#63b8ff" d="M559.66,-404.25C542.54,-404.24 525.38,-404.48 510.04,-404.95"/>
<polygon fill="#63b8ff" stroke="#63b8ff" points="559.72,-407.75 569.73,-404.28 559.74,-400.75 559.72,-407.75"/>
</a>
</g>
</g>
<!-- Node27 -->
<g id="Node000027" class="node">
<title>Node27</title>
<g id="a_Node000027"><a xlink:href="../../d1/d42/namespacelamina.html#a49ecca042975b1b60b3cfb5dd09f1ddc" target="_top" xlink:title="求解超越方程（三角、指数、对数类型）。">
<polygon fill="white" stroke="#666666" points="534,-484.5 373,-484.5 373,-465.5 534,-465.5 534,-484.5"/>
<text text-anchor="middle" x="453.5" y="-472.5" font-family="Helvetica,sans-Serif" font-size="10.00">lamina::solve_transcendental</text>
</a>
</g>
</g>
<!-- Node25&#45;&gt;Node27 -->
<g id="edge31_Node000025_Node000027" class="edge">
<title>Node25&#45;&gt;Node27</title>
<g id="a_edge31_Node000025_Node000027"><a xlink:title=" ">
<path fill="none" stroke="#63b8ff" d="M622.06,-423.57C582,-435.86 521.87,-454.32 485.59,-465.46"/>
<polygon fill="#63b8ff" stroke="#63b8ff" points="623.25,-426.86 631.79,-420.58 621.2,-420.17 623.25,-426.86"/>
</a>
</g>
</g>
<!-- Node26&#45;&gt;Node25 -->
<g id="edge30_Node000026_Node000025" class="edge">
<title>Node26&#45;&gt;Node25</title>
<g id="a_edge30_Node000026_Node000025"><a xlink:title=" ">
<path fill="none" stroke="#63b8ff" d="M520.17,-417.32C535.9,-417.69 553.01,-417.82 569.73,-417.72"/>
<polygon fill="#63b8ff" stroke="#63b8ff" points="520.13,-413.82 510.04,-417.05 519.94,-420.82 520.13,-413.82"/>
</a>
</g>
</g>
<!-- Node27&#45;&gt;Node12 -->
<g id="edge32_Node000027_Node000012" class="edge">
<title>Node27&#45;&gt;Node12</title>
<g id="a_edge32_Node000027_Node000012"><a xlink:title=" ">
<path fill="none" stroke="#63b8ff" d="M508.69,-486.42C602.65,-504.05 801.08,-531.65 961,-489 1083.53,-456.32 1208.05,-359.48 1245.61,-328.59"/>
<polygon fill="#63b8ff" stroke="#63b8ff" points="509.32,-482.98 498.84,-484.54 508,-489.85 509.32,-482.98"/>
</a>
</g>
</g>
<!-- Node29 -->
<g id="Node000029" class="node">
<title>Node29</title>
<g id="a_Node000029"><a xlink:href="../../d6/da9/classlamina_1_1ParametricSolver.html#a74760afed4b871db5baef1d0c7eef09e" target="_top" xlink:title="求解含参方程组，返回所有解">
<polygon fill="white" stroke="#666666" points="734,-144 594,-144 594,-114 734,-114 734,-144"/>
<text text-anchor="start" x="602" y="-132" font-family="Helvetica,sans-Serif" font-size="10.00">lamina::ParametricSolver</text>
<text text-anchor="middle" x="664" y="-121" font-family="Helvetica,sans-Serif" font-size="10.00">::solve_system</text>
</a>
</g>
</g>
<!-- Node28&#45;&gt;Node29 -->
<g id="edge35_Node000028_Node000029" class="edge">
<title>Node28&#45;&gt;Node29</title>
<g id="a_edge35_Node000028_Node000029"><a xlink:title=" ">
<path fill="none" stroke="#63b8ff" d="M783.58,-129C767.02,-129 750.04,-129 734.28,-129"/>
<polygon fill="#63b8ff" stroke="#63b8ff" points="783.82,-132.5 793.82,-129 783.82,-125.5 783.82,-132.5"/>
</a>
</g>
</g>
<!-- Node30 -->
<g id="Node000030" class="node">
<title>Node30</title>
<g id="a_Node000030"><a xlink:href="../../dc/d25/classSymbolicExpr.html#af7245cd8dd9c4c7f7f00d3772bbbecb3" target="_top" xlink:title="求解含参数的方程组。">
<polygon fill="white" stroke="#666666" points="511.5,-96 395.5,-96 395.5,-66 511.5,-66 511.5,-96"/>
<text text-anchor="start" x="403.5" y="-84" font-family="Helvetica,sans-Serif" font-size="10.00">SymbolicExpr::solve</text>
<text text-anchor="middle" x="453.5" y="-73" font-family="Helvetica,sans-Serif" font-size="10.00">_system</text>
</a>
</g>
</g>
<!-- Node29&#45;&gt;Node30 -->
<g id="edge36_Node000029_Node000030" class="edge">
<title>Node29&#45;&gt;Node30</title>
<g id="a_edge36_Node000029_Node000030"><a xlink:title=" ">
<path fill="none" stroke="#63b8ff" d="M587.74,-111.67C562.63,-105.89 535.07,-99.55 511.57,-94.14"/>
<polygon fill="#63b8ff" stroke="#63b8ff" points="587.07,-115.11 597.6,-113.94 588.64,-108.29 587.07,-115.11"/>
</a>
</g>
</g>
<!-- Node31 -->
<g id="Node000031" class="node">
<title>Node31</title>
<g id="a_Node000031"><a xlink:href="../../d6/da9/classlamina_1_1ParametricSolver.html#aee41c6cf8efdfc5c7485cd104981d95b" target="_top" xlink:title="求解含参方程组，返回按参数条件分段的解">
<polygon fill="white" stroke="#666666" points="525.5,-144 381.5,-144 381.5,-114 525.5,-114 525.5,-144"/>
<text text-anchor="start" x="389.5" y="-132" font-family="Helvetica,sans-Serif" font-size="10.00">lamina::ParametricSolver</text>
<text text-anchor="middle" x="453.5" y="-121" font-family="Helvetica,sans-Serif" font-size="10.00">::solve_system_piecewise</text>
</a>
</g>
</g>
<!-- Node29&#45;&gt;Node31 -->
<g id="edge37_Node000029_Node000031" class="edge">
<title>Node29&#45;&gt;Node31</title>
<g id="a_edge37_Node000029_Node000031"><a xlink:title=" ">
<path fill="none" stroke="#63b8ff" d="M583.69,-129C564.59,-129 544.29,-129 525.59,-129"/>
<polygon fill="#63b8ff" stroke="#63b8ff" points="583.86,-132.5 593.86,-129 583.86,-125.5 583.86,-132.5"/>
</a>
</g>
</g>
<!-- Node34&#45;&gt;Node10 -->
<g id="edge42_Node000034_Node000010" class="edge">
<title>Node34&#45;&gt;Node10</title>
<g id="a_edge42_Node000034_Node000010"><a xlink:title=" ">
<path fill="none" stroke="#63b8ff" d="M1168.55,-42.59C1104.87,-36.53 1019.69,-28.43 958.13,-22.57"/>
<polygon fill="#63b8ff" stroke="#63b8ff" points="1168.29,-46.08 1178.57,-43.54 1168.95,-39.11 1168.29,-46.08"/>
</a>
</g>
</g>
<!-- Node35&#45;&gt;Node12 -->
<g id="edge44_Node000035_Node000012" class="edge">
<title>Node35&#45;&gt;Node12</title>
<g id="a_edge44_Node000035_Node000012"><a xlink:title=" ">
<path fill="none" stroke="#63b8ff" d="M1547.65,-319C1480.35,-319 1385.08,-319 1322.68,-319"/>
<polygon fill="#63b8ff" stroke="#63b8ff" points="1547.78,-322.5 1557.78,-319 1547.78,-315.5 1547.78,-322.5"/>
</a>
</g>
</g>
<!-- Node36&#45;&gt;Node3 -->
<g id="edge46_Node000036_Node000003" class="edge">
<title>Node36&#45;&gt;Node3</title>
<g id="a_edge46_Node000036_Node000003"><a xlink:title=" ">
<path fill="none" stroke="#63b8ff" d="M1768.74,-315.7C1737.95,-333.61 1686.2,-363.72 1655.05,-381.84"/>
<polygon fill="#63b8ff" stroke="#63b8ff" points="1770.69,-318.61 1777.58,-310.56 1767.17,-312.56 1770.69,-318.61"/>
</a>
</g>
</g>
<!-- Node36&#45;&gt;Node5 -->
<g id="edge47_Node000036_Node000005" class="edge">
<title>Node36&#45;&gt;Node5</title>
<g id="a_edge47_Node000036_Node000005"><a xlink:title=" ">
<path fill="none" stroke="#63b8ff" d="M1741.63,-289.26C1724.41,-285.4 1705.16,-281.08 1687.51,-277.12"/>
<polygon fill="#63b8ff" stroke="#63b8ff" points="1740.98,-292.7 1751.51,-291.47 1742.52,-285.87 1740.98,-292.7"/>
</a>
</g>
</g>
<!-- Node36&#45;&gt;Node35 -->
<g id="edge48_Node000036_Node000035" class="edge">
<title>Node36&#45;&gt;Node35</title>
<g id="a_edge48_Node000036_Node000035"><a xlink:title=" ">
<path fill="none" stroke="#63b8ff" d="M1723.76,-308.66C1715.3,-309.59 1706.67,-310.53 1698.23,-311.45"/>
<polygon fill="#63b8ff" stroke="#63b8ff" points="1724.4,-312.11 1733.96,-307.55 1723.64,-305.15 1724.4,-312.11"/>
</a>
</g>
</g>
<!-- Node37&#45;&gt;Node2 -->
<g id="edge54_Node000037_Node000002" class="edge">
<title>Node37&#45;&gt;Node2</title>
<g id="a_edge54_Node000037_Node000002"><a xlink:title=" ">
<path fill="none" stroke="#63b8ff" d="M2095.5,-315.49C2060.58,-331.88 2012.14,-354.63 1985.01,-367.37"/>
<polygon fill="#63b8ff" stroke="#63b8ff" points="2097.39,-318.46 2104.96,-311.05 2094.42,-312.13 2097.39,-318.46"/>
</a>
</g>
</g>
<!-- Node37&#45;&gt;Node5 -->
<g id="edge53_Node000037_Node000005" class="edge">
<title>Node37&#45;&gt;Node5</title>
<g id="a_edge53_Node000037_Node000005"><a xlink:title=" ">
<path fill="none" stroke="#63b8ff" d="M2106.38,-275.55C2086.87,-263.78 2060.53,-250.13 2035,-244 1914.23,-214.99 1767.62,-235.32 1687.78,-250.86"/>
<polygon fill="#63b8ff" stroke="#63b8ff" points="2104.77,-278.67 2115.11,-280.97 2108.46,-272.72 2104.77,-278.67"/>
</a>
</g>
</g>
<!-- Node37&#45;&gt;Node36 -->
<g id="edge55_Node000037_Node000036" class="edge">
<title>Node37&#45;&gt;Node36</title>
<g id="a_edge55_Node000037_Node000036"><a xlink:title=" ">
<path fill="none" stroke="#63b8ff" d="M2060.77,-297.12C1999.04,-298.02 1913.25,-299.28 1856.25,-300.12"/>
<polygon fill="#63b8ff" stroke="#63b8ff" points="2060.9,-300.62 2070.85,-296.97 2060.8,-293.62 2060.9,-300.62"/>
</a>
</g>
</g>
<!-- Node38 -->
<g id="Node000038" class="node">
<title>Node38</title>
<g id="a_Node000038"><a xlink:href="../../d1/d42/namespacelamina.html#ab54c96a09e3e36cc3aa6b15bc9e90803" target="_top" xlink:title="求解双二次方程 ax⁴ + bx² + c = 0。">
<polygon fill="white" stroke="#666666" points="2035,-272.5 1892,-272.5 1892,-253.5 2035,-253.5 2035,-272.5"/>
<text text-anchor="middle" x="1963.5" y="-260.5" font-family="Helvetica,sans-Serif" font-size="10.00">lamina::solve_biquadratic</text>
</a>
</g>
</g>
<!-- Node37&#45;&gt;Node38 -->
<g id="edge51_Node000037_Node000038" class="edge">
<title>Node37&#45;&gt;Node38</title>
<g id="a_edge51_Node000037_Node000038"><a xlink:title=" ">
<path fill="none" stroke="#63b8ff" d="M2060.55,-281.38C2044.82,-278.37 2028.66,-275.27 2014.18,-272.5"/>
<polygon fill="#63b8ff" stroke="#63b8ff" points="2060.32,-284.89 2070.8,-283.34 2061.64,-278.02 2060.32,-284.89"/>
</a>
</g>
</g>
<!-- Node38&#45;&gt;Node36 -->
<g id="edge52_Node000038_Node000036" class="edge">
<title>Node38&#45;&gt;Node36</title>
<g id="a_edge52_Node000038_Node000036"><a xlink:title=" ">
<path fill="none" stroke="#63b8ff" d="M1910.69,-274.82C1887.22,-280.18 1859.83,-286.43 1837.71,-291.48"/>
<polygon fill="#63b8ff" stroke="#63b8ff" points="1911.51,-278.23 1920.49,-272.59 1909.96,-271.4 1911.51,-278.23"/>
</a>
</g>
</g>
</g>
</svg>

<g id="navigator" transform="translate(0 0)" fill="#404254">
  <rect fill="#f2f5e9" fill-opacity="0.5" stroke="#606060" stroke-width=".5" x="0" y="0" width="60" height="60"/>
  <use id="zoomplus" xlink:href="#zoomPlus" x="17" y="9" onmousedown="handleZoom(evt,'in')"/>
  <use id="zoomminus" xlink:href="#zoomMin" x="42" y="9" onmousedown="handleZoom(evt,'out')"/>
  <use id="reset" xlink:href="#resetDef" x="30" y="36" onmousedown="handleReset()"/>
   <use id="arrowup" xlink:href="#arrowUp" x="0" y="0" onmousedown="handlePan(0,-1)"/>
  <use id="arrowright" xlink:href="#arrowRight" x="0" y="0" onmousedown="handlePan(1,0)"/>
  <use id="arrowdown" xlink:href="#arrowDown" x="0" y="0" onmousedown="handlePan(0,1)"/>
  <use id="arrowleft" xlink:href="#arrowLeft" x="0" y="0" onmousedown="handlePan(-1,0)"/>
</g>
<svg viewBox="0 0 15 15" width="100%" height="30px" preserveAspectRatio="xMaxYMin meet">
 <g id="arrow_out" transform="scale(0.3 0.3)">
  <a xlink:href="namespacelamina_a35a6950e18d584eaf59a0cf11e790e59_icgraph_org.svg" target="_base">
   <rect id="button" ry="5" rx="5" y="6" x="6" height="38" width="38"
        fill="#f2f5e9" fill-opacity="0.5" stroke="#606060" stroke-width="1.0"/>
   <path id="arrow"
     d="M 11.500037,31.436501 C 11.940474,20.09759 22.043105,11.32322 32.158766,21.979434 L 37.068811,17.246167 C 37.068811,17.246167 37.088388,32 37.088388,32 L 22.160133,31.978069 C 22.160133,31.978069 26.997745,27.140456 26.997745,27.140456 C 18.528582,18.264221 13.291696,25.230495 11.500037,31.436501 z"
     style="fill:#404040;"/>
  </a>
 </g>
</svg>

<style type='text/css'>
<![CDATA[
[data-mouse-over-selected='false'] { opacity: 0.7; }
[data-mouse-over-selected='true']  { opacity: 1.0; }
]]>
</style>
<script type="application/ecmascript"><![CDATA[
document.addEventListener('DOMContentLoaded', (event) => {
  highlightEdges();
  highlightAdjacentNodes();
});
]]></script>
</svg>
