<?xml version="1.0" encoding="UTF-8" standalone="no"?>
<!DOCTYPE svg PUBLIC "-//W3C//DTD SVG 1.1//EN"
 "http://www.w3.org/Graphics/SVG/1.1/DTD/svg11.dtd">
<!-- Generated by graphviz version 2.43.0 (0)
 -->
<!-- Title: lamina::match_recursive Pages: 1 -->
<svg width="508pt" height="180pt"
 viewBox="0.00 0.00 508.00 179.50" xmlns="http://www.w3.org/2000/svg" xmlns:xlink="http://www.w3.org/1999/xlink">
<g id="graph0" class="graph" transform="scale(1 1) rotate(0) translate(4 175.5)">
<title>lamina::match_recursive</title>
<!-- Node1 -->
<g id="Node000001" class="node">
<title>Node1</title>
<g id="a_Node000001"><a xlink:title=" ">
<polygon fill="#999999" stroke="#666666" points="137,-85.5 0,-85.5 0,-66.5 137,-66.5 137,-85.5"/>
<text text-anchor="middle" x="68.5" y="-73.5" font-family="Helvetica,sans-Serif" font-size="10.00">lamina::match_recursive</text>
</a>
</g>
</g>
<!-- Node1&#45;&gt;Node1 -->
<g id="edge9_Node000001_Node000001" class="edge">
<title>Node1&#45;&gt;Node1</title>
<g id="a_edge9_Node000001_Node000001"><a xlink:title=" ">
<path fill="none" stroke="#63b8ff" d="M40.45,-85.58C26.8,-94.23 36.15,-103.5 68.5,-103.5 90.74,-103.5 102.11,-99.12 102.61,-93.57"/>
<polygon fill="#63b8ff" stroke="#63b8ff" points="105.38,-91.44 96.55,-85.58 99.8,-95.67 105.38,-91.44"/>
</a>
</g>
</g>
<!-- Node2 -->
<g id="Node000002" class="node">
<title>Node2</title>
<g id="a_Node000002"><a xlink:href="../../d6/db0/classSymbolicFactory.html#ab9193b63564a64ab94045fa10e45f149" target="_top" xlink:title="创建加法节点，自动扁平化嵌套加法并消除零项。">
<polygon fill="white" stroke="#666666" points="330,-171.5 174,-171.5 174,-152.5 330,-152.5 330,-171.5"/>
<text text-anchor="middle" x="252" y="-159.5" font-family="Helvetica,sans-Serif" font-size="10.00">SymbolicFactory::create_add</text>
</a>
</g>
</g>
<!-- Node1&#45;&gt;Node2 -->
<g id="edge1_Node000001_Node000002" class="edge">
<title>Node1&#45;&gt;Node2</title>
<g id="a_edge1_Node000001_Node000002"><a xlink:title=" ">
<path fill="none" stroke="#63b8ff" d="M81.48,-85.7C100,-100.23 137.22,-127.59 173,-143 178.8,-145.5 184.98,-147.7 191.24,-149.65"/>
<polygon fill="#63b8ff" stroke="#63b8ff" points="190.51,-153.08 201.08,-152.49 192.44,-146.35 190.51,-153.08"/>
</a>
</g>
</g>
<!-- Node4 -->
<g id="Node000004" class="node">
<title>Node4</title>
<g id="a_Node000004"><a xlink:href="../../d6/db0/classSymbolicFactory.html#a3c8860af8deed80da97fcb7256d270be" target="_top" xlink:title="创建乘法节点，自动扁平化嵌套乘法并消除单位元。">
<polygon fill="white" stroke="#666666" points="318.5,-134 185.5,-134 185.5,-104 318.5,-104 318.5,-134"/>
<text text-anchor="start" x="193.5" y="-122" font-family="Helvetica,sans-Serif" font-size="10.00">SymbolicFactory::create</text>
<text text-anchor="middle" x="252" y="-111" font-family="Helvetica,sans-Serif" font-size="10.00">_multiply</text>
</a>
</g>
</g>
<!-- Node1&#45;&gt;Node4 -->
<g id="edge3_Node000001_Node000004" class="edge">
<title>Node1&#45;&gt;Node4</title>
<g id="a_edge3_Node000001_Node000004"><a xlink:title=" ">
<path fill="none" stroke="#63b8ff" d="M109.78,-85.54C129.79,-90.28 154.61,-96.16 177.83,-101.66"/>
<polygon fill="#63b8ff" stroke="#63b8ff" points="177.12,-105.09 187.66,-103.99 178.74,-98.28 177.12,-105.09"/>
</a>
</g>
</g>
<!-- Node5 -->
<g id="Node000005" class="node">
<title>Node5</title>
<g id="a_Node000005"><a xlink:href="../../d1/d42/namespacelamina.html#aeb0f885705caf1e05230c85abbe59724" target="_top" xlink:title=" ">
<polygon fill="white" stroke="#666666" points="307.5,-85.5 196.5,-85.5 196.5,-66.5 307.5,-66.5 307.5,-85.5"/>
<text text-anchor="middle" x="252" y="-73.5" font-family="Helvetica,sans-Serif" font-size="10.00">lamina::is_wildcard</text>
</a>
</g>
</g>
<!-- Node1&#45;&gt;Node5 -->
<g id="edge5_Node000001_Node000005" class="edge">
<title>Node1&#45;&gt;Node5</title>
<g id="a_edge5_Node000001_Node000005"><a xlink:title=" ">
<path fill="none" stroke="#63b8ff" d="M137.08,-76C153.12,-76 170.2,-76 186.11,-76"/>
<polygon fill="#63b8ff" stroke="#63b8ff" points="186.38,-79.5 196.38,-76 186.38,-72.5 186.38,-79.5"/>
</a>
</g>
</g>
<!-- Node6 -->
<g id="Node000006" class="node">
<title>Node6</title>
<g id="a_Node000006"><a xlink:href="../../d1/d42/namespacelamina.html#ae9e55d487db3d0012e65fd5470d8108f" target="_top" xlink:title=" ">
<polygon fill="white" stroke="#666666" points="331,-30 173,-30 173,0 331,0 331,-30"/>
<text text-anchor="start" x="181" y="-18" font-family="Helvetica,sans-Serif" font-size="10.00">lamina::match_commutative</text>
<text text-anchor="middle" x="252" y="-7" font-family="Helvetica,sans-Serif" font-size="10.00">_recursive</text>
</a>
</g>
</g>
<!-- Node1&#45;&gt;Node6 -->
<g id="edge6_Node000001_Node000006" class="edge">
<title>Node1&#45;&gt;Node6</title>
<g id="a_edge6_Node000001_Node000006"><a xlink:title=" ">
<path fill="none" stroke="#63b8ff" d="M85.93,-66.4C106.58,-57.33 143.4,-44.1 177.04,-33.21"/>
<polygon fill="#63b8ff" stroke="#63b8ff" points="178.43,-36.44 186.89,-30.06 176.3,-29.77 178.43,-36.44"/>
</a>
</g>
</g>
<!-- Node3 -->
<g id="Node000003" class="node">
<title>Node3</title>
<g id="a_Node000003"><a xlink:href="../../d6/db0/classSymbolicFactory.html#ae5389b9fe65a2b6c15996a29c0314396" target="_top" xlink:title="创建大整数数值节点。">
<polygon fill="white" stroke="#666666" points="500,-155 367,-155 367,-125 500,-125 500,-155"/>
<text text-anchor="start" x="375" y="-143" font-family="Helvetica,sans-Serif" font-size="10.00">SymbolicFactory::create</text>
<text text-anchor="middle" x="433.5" y="-132" font-family="Helvetica,sans-Serif" font-size="10.00">_number</text>
</a>
</g>
</g>
<!-- Node2&#45;&gt;Node3 -->
<g id="edge2_Node000002_Node000003" class="edge">
<title>Node2&#45;&gt;Node3</title>
<g id="a_edge2_Node000002_Node000003"><a xlink:title=" ">
<path fill="none" stroke="#63b8ff" d="M330.17,-152.54C339.07,-151.45 348.15,-150.34 357.03,-149.25"/>
<polygon fill="#63b8ff" stroke="#63b8ff" points="357.46,-152.72 366.96,-148.03 356.61,-145.78 357.46,-152.72"/>
</a>
</g>
</g>
<!-- Node4&#45;&gt;Node3 -->
<g id="edge4_Node000004_Node000003" class="edge">
<title>Node4&#45;&gt;Node3</title>
<g id="a_edge4_Node000004_Node000003"><a xlink:title=" ">
<path fill="none" stroke="#63b8ff" d="M318.57,-126.67C330.97,-128.12 344.05,-129.65 356.74,-131.14"/>
<polygon fill="#63b8ff" stroke="#63b8ff" points="356.47,-134.63 366.81,-132.32 357.29,-127.68 356.47,-134.63"/>
</a>
</g>
</g>
<!-- Node6&#45;&gt;Node1 -->
<g id="edge8_Node000006_Node000001" class="edge">
<title>Node6&#45;&gt;Node1</title>
<g id="a_edge8_Node000006_Node000001"><a xlink:title=" ">
<path fill="none" stroke="#63b8ff" d="M221.58,-30.02C195.65,-40.39 157.16,-53.71 125.39,-63.5"/>
<polygon fill="#63b8ff" stroke="#63b8ff" points="124.32,-60.17 115.77,-66.42 126.36,-66.87 124.32,-60.17"/>
</a>
</g>
</g>
<!-- Node6&#45;&gt;Node6 -->
<g id="edge7_Node000006_Node000006" class="edge">
<title>Node6&#45;&gt;Node6</title>
<g id="a_edge7_Node000006_Node000006"><a xlink:title=" ">
<path fill="none" stroke="#63b8ff" d="M220.36,-30.28C213.33,-39.41 223.88,-48 252,-48 268.7,-48 279.2,-44.97 283.51,-40.6"/>
<polygon fill="#63b8ff" stroke="#63b8ff" points="287.01,-40.32 283.64,-30.28 280.01,-40.23 287.01,-40.32"/>
</a>
</g>
</g>
</g>
</svg>
