<?xml version="1.0" encoding="UTF-8" standalone="no"?>
<!DOCTYPE svg PUBLIC "-//W3C//DTD SVG 1.1//EN"
 "http://www.w3.org/Graphics/SVG/1.1/DTD/svg11.dtd">
<!-- Generated by graphviz version 2.43.0 (0)
 -->
<!-- Title: lamina::solve_quadratic_internal Pages: 1 -->
<!--zoomable 289 -->

<svg id="main" version="1.1" xmlns="http://www.w3.org/2000/svg" xmlns:xlink="http://www.w3.org/1999/xlink" xml:space="preserve" onload="init(evt)">
<style type="text/css"><![CDATA[
.node, .edge {opacity: 0.7;}
.node.selected, .edge.selected {opacity: 1;}
.edge:hover path { stroke: red; }
.edge:hover polygon { stroke: red; fill: red; }
]]></style>

<defs>
  <circle id="rim" cx="0" cy="0" r="7"/>
  <circle id="rim2" cx="0" cy="0" r="3.5"/>
  <g id="zoomPlus">
    <use xlink:href="#rim" fill="#404040"><set attributeName="fill" to="#808080" begin="zoomplus.mouseover" end="zoomplus.mouseout"/></use>
    <path d="M-4,0h8M0,-4v8" fill="none" stroke="white" stroke-width="1.5" pointer-events="none"/>
  </g>
  <g id="zoomMin">
    <use xlink:href="#rim" fill="#404040"><set attributeName="fill" to="#808080" begin="zoomminus.mouseover" end="zoomminus.mouseout"/></use>
    <path d="M-4,0h8" fill="none" stroke="white" stroke-width="1.5" pointer-events="none"/>
  </g>
  <g id="arrowUp" transform="translate(30 24)">
    <use xlink:href="#rim"/>
    <path pointer-events="none" fill="none" stroke="white" stroke-width="1.5" d="M0,-3.0v7 M-2.5,-0.5L0,-3.0L2.5,-0.5"/>
  </g>
  <g id="arrowRight" transform="rotate(90) translate(36 -43)">
    <use xlink:href="#rim"/>
    <path pointer-events="none" fill="none" stroke="white" stroke-width="1.5" d="M0,-3.0v7 M-2.5,-0.5L0,-3.0L2.5,-0.5"/>
  </g>
  <g id="arrowDown" transform="rotate(180) translate(-30 -48)">
    <use xlink:href="#rim"/>
    <path pointer-events="none" fill="none" stroke="white" stroke-width="1.5" d="M0,-3.0v7 M-2.5,-0.5L0,-3.0L2.5,-0.5"/>
  </g>
  <g id="arrowLeft" transform="rotate(270) translate(-36 17)">
    <use xlink:href="#rim"/>
    <path pointer-events="none" fill="none" stroke="white" stroke-width="1.5" d="M0,-3.0v7 M-2.5,-0.5L0,-3.0L2.5,-0.5"/>
  </g>
  <g id="resetDef">
    <use xlink:href="#rim2" fill="#404040"><set attributeName="fill" to="#808080" begin="reset.mouseover" end="reset.mouseout"/></use>
  </g>
</defs>
<script type="application/ecmascript">
var viewWidth = 618;
var viewHeight = 289;
var sectionId = 'dynsection-248';
</script>
<script type="application/ecmascript" xlink:href="../../svg.min.js"/>
<svg id="graph" class="graph">
<g id="viewport">
<title>lamina::solve_quadratic_internal</title>
<!-- Node1 -->
<g id="Node000001" class="node">
<title>Node1</title>
<g id="a_Node000001"><a xlink:title=" ">
<polygon fill="#999999" stroke="#666666" points="134,-157.5 0,-157.5 0,-127.5 134,-127.5 134,-157.5"/>
<text text-anchor="start" x="8" y="-145.5" font-family="Helvetica,sans-Serif" font-size="10.00">lamina::solve_quadratic</text>
<text text-anchor="middle" x="67" y="-134.5" font-family="Helvetica,sans-Serif" font-size="10.00">_internal</text>
</a>
</g>
</g>
<!-- Node2 -->
<g id="Node000002" class="node">
<title>Node2</title>
<g id="a_Node000002"><a xlink:href="../../dc/d25/classSymbolicExpr.html#ac8782568f037f8055277e5d8b80ec6d6" target="_top" xlink:title="创建加法表达式。">
<polygon fill="white" stroke="#666666" points="438,-247 331,-247 331,-228 438,-228 438,-247"/>
<text text-anchor="middle" x="384.5" y="-235" font-family="Helvetica,sans-Serif" font-size="10.00">SymbolicExpr::add</text>
</a>
</g>
</g>
<!-- Node1&#45;&gt;Node2 -->
<g id="edge1_Node000001_Node000002" class="edge">
<title>Node1&#45;&gt;Node2</title>
<g id="a_edge1_Node000001_Node000002"><a xlink:title=" ">
<path fill="none" stroke="#63b8ff" d="M82.6,-157.62C101.06,-175.65 134.72,-205.04 170,-218.5 218.28,-236.92 277,-240.95 320.63,-240.78"/>
<polygon fill="#63b8ff" stroke="#63b8ff" points="320.86,-244.28 330.82,-240.66 320.78,-237.28 320.86,-244.28"/>
</a>
</g>
</g>
<!-- Node3 -->
<g id="Node000003" class="node">
<title>Node3</title>
<g id="a_Node000003"><a xlink:href="../../dc/d25/classSymbolicExpr.html#aea4c251b3fd9994c77fb8b26dae96d5f" target="_top" xlink:title="执行符号除法。">
<polygon fill="white" stroke="#666666" points="289,-133 170,-133 170,-114 289,-114 289,-133"/>
<text text-anchor="middle" x="229.5" y="-121" font-family="Helvetica,sans-Serif" font-size="10.00">SymbolicExpr::divide</text>
</a>
</g>
</g>
<!-- Node1&#45;&gt;Node3 -->
<g id="edge2_Node000001_Node000003" class="edge">
<title>Node1&#45;&gt;Node3</title>
<g id="a_edge2_Node000001_Node000003"><a xlink:title=" ">
<path fill="none" stroke="#63b8ff" d="M134.21,-134.66C142.62,-133.67 151.24,-132.65 159.69,-131.65"/>
<polygon fill="#63b8ff" stroke="#63b8ff" points="160.37,-135.09 169.89,-130.44 159.54,-128.14 160.37,-135.09"/>
</a>
</g>
</g>
<!-- Node4 -->
<g id="Node000004" class="node">
<title>Node4</title>
<g id="a_Node000004"><a xlink:href="../../dc/d25/classSymbolicExpr.html#ad03189fc8a4db7762f7c1ca890674bbc" target="_top" xlink:title="创建乘法表达式。">
<polygon fill="white" stroke="#666666" points="610,-209 480,-209 480,-190 610,-190 610,-209"/>
<text text-anchor="middle" x="545" y="-197" font-family="Helvetica,sans-Serif" font-size="10.00">SymbolicExpr::multiply</text>
</a>
</g>
</g>
<!-- Node1&#45;&gt;Node4 -->
<g id="edge6_Node000001_Node000004" class="edge">
<title>Node1&#45;&gt;Node4</title>
<g id="a_edge6_Node000001_Node000004"><a xlink:title=" ">
<path fill="none" stroke="#63b8ff" d="M78.1,-157.61C94.38,-180.54 128.8,-223.47 170,-242.5 280.69,-293.64 326.13,-287.73 444,-256.5 474.02,-248.55 504.44,-229.25 523.71,-215.31"/>
<polygon fill="#63b8ff" stroke="#63b8ff" points="526.05,-217.93 531.99,-209.15 521.87,-212.31 526.05,-217.93"/>
</a>
</g>
</g>
<!-- Node6 -->
<g id="Node000006" class="node">
<title>Node6</title>
<g id="a_Node000006"><a xlink:href="../../dc/d25/classSymbolicExpr.html#ab03922681e30190ba7c73d2c1e58aa40" target="_top" xlink:title="创建幂运算表达式。">
<polygon fill="white" stroke="#666666" points="444,-95 325,-95 325,-76 444,-76 444,-95"/>
<text text-anchor="middle" x="384.5" y="-83" font-family="Helvetica,sans-Serif" font-size="10.00">SymbolicExpr::power</text>
</a>
</g>
</g>
<!-- Node1&#45;&gt;Node6 -->
<g id="edge12_Node000001_Node000006" class="edge">
<title>Node1&#45;&gt;Node6</title>
<g id="a_edge12_Node000001_Node000006"><a xlink:title=" ">
<path fill="none" stroke="#63b8ff" d="M102.74,-127.4C122.17,-119.6 147.02,-110.65 170,-105.5 217.65,-94.81 272.53,-89.82 314.72,-87.5"/>
<polygon fill="#63b8ff" stroke="#63b8ff" points="315.07,-90.99 324.88,-86.98 314.71,-84 315.07,-90.99"/>
</a>
</g>
</g>
<!-- Node7 -->
<g id="Node000007" class="node">
<title>Node7</title>
<g id="a_Node000007"><a xlink:href="../../d1/d42/namespacelamina.html#a547ba21cbbce3cfa9cb807bbeb724b02" target="_top" xlink:title=" ">
<polygon fill="white" stroke="#666666" points="429.5,-209 339.5,-209 339.5,-190 429.5,-190 429.5,-209"/>
<text text-anchor="middle" x="384.5" y="-197" font-family="Helvetica,sans-Serif" font-size="10.00">lamina::negate</text>
</a>
</g>
</g>
<!-- Node1&#45;&gt;Node7 -->
<g id="edge7_Node000001_Node000007" class="edge">
<title>Node1&#45;&gt;Node7</title>
<g id="a_edge7_Node000001_Node000007"><a xlink:title=" ">
<path fill="none" stroke="#63b8ff" d="M134.29,-153.96C178.2,-161.61 237.07,-171.97 289,-181.5 302.09,-183.9 316.19,-186.55 329.4,-189.06"/>
<polygon fill="#63b8ff" stroke="#63b8ff" points="328.81,-192.52 339.29,-190.95 330.13,-185.64 328.81,-192.52"/>
</a>
</g>
</g>
<!-- Node8 -->
<g id="Node000008" class="node">
<title>Node8</title>
<g id="a_Node000008"><a xlink:href="../../d1/d42/namespacelamina.html#a78a46efcff5ce7151a74984c5381cd71" target="_top" xlink:title=" ">
<polygon fill="white" stroke="#666666" points="423.5,-58 345.5,-58 345.5,-39 423.5,-39 423.5,-58"/>
<text text-anchor="middle" x="384.5" y="-46" font-family="Helvetica,sans-Serif" font-size="10.00">lamina::num</text>
</a>
</g>
</g>
<!-- Node1&#45;&gt;Node8 -->
<g id="edge10_Node000001_Node000008" class="edge">
<title>Node1&#45;&gt;Node8</title>
<g id="a_edge10_Node000001_Node000008"><a xlink:title=" ">
<path fill="none" stroke="#63b8ff" d="M89.21,-127.49C109.14,-114.12 140.25,-95.09 170,-84.5 224.75,-65.01 291.24,-55.93 335.32,-51.8"/>
<polygon fill="#63b8ff" stroke="#63b8ff" points="335.82,-55.26 345.47,-50.89 335.2,-48.29 335.82,-55.26"/>
</a>
</g>
</g>
<!-- Node9 -->
<g id="Node000009" class="node">
<title>Node9</title>
<g id="a_Node000009"><a xlink:href="../../dc/d25/classSymbolicExpr.html#a521dfd712070d4f40d313de79d3f637c" target="_top" xlink:title="创建平方根表达式，等价于 operand^(1/2)。">
<polygon fill="white" stroke="#666666" points="283.5,-19 175.5,-19 175.5,0 283.5,0 283.5,-19"/>
<text text-anchor="middle" x="229.5" y="-7" font-family="Helvetica,sans-Serif" font-size="10.00">SymbolicExpr::sqrt</text>
</a>
</g>
</g>
<!-- Node1&#45;&gt;Node9 -->
<g id="edge13_Node000001_Node000009" class="edge">
<title>Node1&#45;&gt;Node9</title>
<g id="a_edge13_Node000001_Node000009"><a xlink:title=" ">
<path fill="none" stroke="#63b8ff" d="M78.91,-127.16C96,-104.08 131.18,-60.29 170,-33.5 175.77,-29.52 182.3,-26.03 188.85,-23.04"/>
<polygon fill="#63b8ff" stroke="#63b8ff" points="190.53,-26.13 198.37,-19.01 187.8,-19.68 190.53,-26.13"/>
</a>
</g>
</g>
<!-- Node10 -->
<g id="Node000010" class="node">
<title>Node10</title>
<g id="a_Node000010"><a xlink:href="../../d1/d42/namespacelamina.html#a35a6950e18d584eaf59a0cf11e790e59" target="_top" xlink:title=" ">
<polygon fill="white" stroke="#666666" points="266.5,-209 192.5,-209 192.5,-190 266.5,-190 266.5,-209"/>
<text text-anchor="middle" x="229.5" y="-197" font-family="Helvetica,sans-Serif" font-size="10.00">lamina::sub</text>
</a>
</g>
</g>
<!-- Node1&#45;&gt;Node10 -->
<g id="edge14_Node000001_Node000010" class="edge">
<title>Node1&#45;&gt;Node10</title>
<g id="a_edge14_Node000001_Node000010"><a xlink:title=" ">
<path fill="none" stroke="#63b8ff" d="M110.59,-157.63C135.89,-166.61 167.66,-177.89 191.84,-186.48"/>
<polygon fill="#63b8ff" stroke="#63b8ff" points="190.77,-189.81 201.37,-189.86 193.11,-183.22 190.77,-189.81"/>
</a>
</g>
</g>
<!-- Node3&#45;&gt;Node4 -->
<g id="edge3_Node000003_Node000004" class="edge">
<title>Node3&#45;&gt;Node4</title>
<g id="a_edge3_Node000003_Node000004"><a xlink:title=" ">
<path fill="none" stroke="#63b8ff" d="M269.89,-133.05C326.9,-146.87 432.39,-172.44 494.56,-187.52"/>
<polygon fill="#63b8ff" stroke="#63b8ff" points="493.98,-190.98 504.53,-189.93 495.63,-184.17 493.98,-190.98"/>
</a>
</g>
</g>
<!-- Node5 -->
<g id="Node000005" class="node">
<title>Node5</title>
<g id="a_Node000005"><a xlink:href="../../dc/d25/classSymbolicExpr.html#adeb760bb6f4f28879108394537eca293" target="_top" xlink:title="创建整数数值表达式。">
<polygon fill="white" stroke="#666666" points="608.5,-133 481.5,-133 481.5,-114 608.5,-114 608.5,-133"/>
<text text-anchor="middle" x="545" y="-121" font-family="Helvetica,sans-Serif" font-size="10.00">SymbolicExpr::number</text>
</a>
</g>
</g>
<!-- Node3&#45;&gt;Node5 -->
<g id="edge4_Node000003_Node000005" class="edge">
<title>Node3&#45;&gt;Node5</title>
<g id="a_edge4_Node000003_Node000005"><a xlink:title=" ">
<path fill="none" stroke="#63b8ff" d="M289.1,-123.5C340.65,-123.5 415.91,-123.5 471.29,-123.5"/>
<polygon fill="#63b8ff" stroke="#63b8ff" points="471.39,-127 481.39,-123.5 471.39,-120 471.39,-127"/>
</a>
</g>
</g>
<!-- Node3&#45;&gt;Node6 -->
<g id="edge5_Node000003_Node000006" class="edge">
<title>Node3&#45;&gt;Node6</title>
<g id="a_edge5_Node000003_Node000006"><a xlink:title=" ">
<path fill="none" stroke="#63b8ff" d="M269.11,-113.91C289.21,-108.92 313.98,-102.77 335.32,-97.47"/>
<polygon fill="#63b8ff" stroke="#63b8ff" points="336.31,-100.83 345.17,-95.02 334.62,-94.03 336.31,-100.83"/>
</a>
</g>
</g>
<!-- Node7&#45;&gt;Node4 -->
<g id="edge8_Node000007_Node000004" class="edge">
<title>Node7&#45;&gt;Node4</title>
<g id="a_edge8_Node000007_Node000004"><a xlink:title=" ">
<path fill="none" stroke="#63b8ff" d="M429.65,-199.5C442.06,-199.5 455.91,-199.5 469.56,-199.5"/>
<polygon fill="#63b8ff" stroke="#63b8ff" points="469.94,-203 479.94,-199.5 469.94,-196 469.94,-203"/>
</a>
</g>
</g>
<!-- Node7&#45;&gt;Node5 -->
<g id="edge9_Node000007_Node000005" class="edge">
<title>Node7&#45;&gt;Node5</title>
<g id="a_edge9_Node000007_Node000005"><a xlink:title=" ">
<path fill="none" stroke="#63b8ff" d="M405.57,-189.87C433.2,-176.63 483.13,-152.69 514.87,-137.47"/>
<polygon fill="#63b8ff" stroke="#63b8ff" points="516.59,-140.53 524.09,-133.05 513.56,-134.22 516.59,-140.53"/>
</a>
</g>
</g>
<!-- Node8&#45;&gt;Node5 -->
<g id="edge11_Node000008_Node000005" class="edge">
<title>Node8&#45;&gt;Node5</title>
<g id="a_edge11_Node000008_Node000005"><a xlink:title=" ">
<path fill="none" stroke="#63b8ff" d="M418.72,-58.04C427.09,-60.78 435.98,-63.99 444,-67.5 471.07,-79.34 500.38,-96.28 520.22,-108.43"/>
<polygon fill="#63b8ff" stroke="#63b8ff" points="518.55,-111.51 528.89,-113.8 522.24,-105.56 518.55,-111.51"/>
</a>
</g>
</g>
<!-- Node10&#45;&gt;Node2 -->
<g id="edge15_Node000010_Node000002" class="edge">
<title>Node10&#45;&gt;Node2</title>
<g id="a_edge15_Node000010_Node000002"><a xlink:title=" ">
<path fill="none" stroke="#63b8ff" d="M266.76,-208.51C287.22,-213.59 313.05,-220 335.21,-225.51"/>
<polygon fill="#63b8ff" stroke="#63b8ff" points="334.55,-228.95 345.1,-227.96 336.24,-222.15 334.55,-228.95"/>
</a>
</g>
</g>
<!-- Node10&#45;&gt;Node7 -->
<g id="edge16_Node000010_Node000007" class="edge">
<title>Node10&#45;&gt;Node7</title>
<g id="a_edge16_Node000010_Node000007"><a xlink:title=" ">
<path fill="none" stroke="#63b8ff" d="M266.76,-199.5C285.36,-199.5 308.39,-199.5 329.07,-199.5"/>
<polygon fill="#63b8ff" stroke="#63b8ff" points="329.31,-203 339.31,-199.5 329.31,-196 329.31,-203"/>
</a>
</g>
</g>
</g>
</svg>

<g id="navigator" transform="translate(0 0)" fill="#404254">
  <rect fill="#f2f5e9" fill-opacity="0.5" stroke="#606060" stroke-width=".5" x="0" y="0" width="60" height="60"/>
  <use id="zoomplus" xlink:href="#zoomPlus" x="17" y="9" onmousedown="handleZoom(evt,'in')"/>
  <use id="zoomminus" xlink:href="#zoomMin" x="42" y="9" onmousedown="handleZoom(evt,'out')"/>
  <use id="reset" xlink:href="#resetDef" x="30" y="36" onmousedown="handleReset()"/>
   <use id="arrowup" xlink:href="#arrowUp" x="0" y="0" onmousedown="handlePan(0,-1)"/>
  <use id="arrowright" xlink:href="#arrowRight" x="0" y="0" onmousedown="handlePan(1,0)"/>
  <use id="arrowdown" xlink:href="#arrowDown" x="0" y="0" onmousedown="handlePan(0,1)"/>
  <use id="arrowleft" xlink:href="#arrowLeft" x="0" y="0" onmousedown="handlePan(-1,0)"/>
</g>
<svg viewBox="0 0 15 15" width="100%" height="30px" preserveAspectRatio="xMaxYMin meet">
 <g id="arrow_out" transform="scale(0.3 0.3)">
  <a xlink:href="namespacelamina_a0a882c5382e9e03230d59990c2e159e8_cgraph_org.svg" target="_base">
   <rect id="button" ry="5" rx="5" y="6" x="6" height="38" width="38"
        fill="#f2f5e9" fill-opacity="0.5" stroke="#606060" stroke-width="1.0"/>
   <path id="arrow"
     d="M 11.500037,31.436501 C 11.940474,20.09759 22.043105,11.32322 32.158766,21.979434 L 37.068811,17.246167 C 37.068811,17.246167 37.088388,32 37.088388,32 L 22.160133,31.978069 C 22.160133,31.978069 26.997745,27.140456 26.997745,27.140456 C 18.528582,18.264221 13.291696,25.230495 11.500037,31.436501 z"
     style="fill:#404040;"/>
  </a>
 </g>
</svg>

<style type='text/css'>
<![CDATA[
[data-mouse-over-selected='false'] { opacity: 0.7; }
[data-mouse-over-selected='true']  { opacity: 1.0; }
]]>
</style>
<script type="application/ecmascript"><![CDATA[
document.addEventListener('DOMContentLoaded', (event) => {
  highlightEdges();
  highlightAdjacentNodes();
});
]]></script>
</svg>
