<?xml version="1.0" encoding="UTF-8" standalone="no"?>
<!DOCTYPE svg PUBLIC "-//W3C//DTD SVG 1.1//EN"
 "http://www.w3.org/Graphics/SVG/1.1/DTD/svg11.dtd">
<!-- Generated by graphviz version 2.43.0 (0)
 -->
<!-- Title: lamina::decompose_exp_base_pattern Pages: 1 -->
<svg width="316pt" height="150pt"
 viewBox="0.00 0.00 316.00 149.50" xmlns="http://www.w3.org/2000/svg" xmlns:xlink="http://www.w3.org/1999/xlink">

<svg id="main" version="1.1" xmlns="http://www.w3.org/2000/svg" xmlns:xlink="http://www.w3.org/1999/xlink" xml:space="preserve" onload="init(evt)">
<style type="text/css"><![CDATA[
.node, .edge {opacity: 0.7;}
.node.selected, .edge.selected {opacity: 1;}
.edge:hover path { stroke: red; }
.edge:hover polygon { stroke: red; fill: red; }
]]></style>
<script type="application/ecmascript" xlink:href="../../svg.min.js"/>
<svg id="graph" class="graph">
<g id="graph0" class="graph" transform="scale(1 1) rotate(0) translate(4 145.5)">
<title>lamina::decompose_exp_base_pattern</title>
<!-- Node1 -->
<g id="Node000001" class="node">
<title>Node1</title>
<g id="a_Node000001"><a xlink:title=" ">
<polygon fill="#999999" stroke="#666666" points="136,-91 0,-91 0,-61 136,-61 136,-91"/>
<text text-anchor="start" x="8" y="-79" font-family="Helvetica,sans-Serif" font-size="10.00">lamina::decompose_exp</text>
<text text-anchor="middle" x="68" y="-68" font-family="Helvetica,sans-Serif" font-size="10.00">_base_pattern</text>
</a>
</g>
</g>
<!-- Node2 -->
<g id="Node000002" class="node">
<title>Node2</title>
<g id="a_Node000002"><a xlink:href="../../d1/d42/namespacelamina.html#ad31d159f4e943798241e39b1cbf96507" target="_top" xlink:title="判断符号节点是否依赖指定变量">
<polygon fill="white" stroke="#666666" points="308,-141.5 172,-141.5 172,-122.5 308,-122.5 308,-141.5"/>
<text text-anchor="middle" x="240" y="-129.5" font-family="Helvetica,sans-Serif" font-size="10.00">lamina::depends_on_var</text>
</a>
</g>
</g>
<!-- Node1&#45;&gt;Node2 -->
<g id="edge1_Node000001_Node000002" class="edge">
<title>Node1&#45;&gt;Node2</title>
<g id="a_edge1_Node000001_Node000002"><a xlink:title=" ">
<path fill="none" stroke="#63b8ff" d="M107.35,-91.09C126.61,-98.43 150.39,-107.13 172,-114 178.1,-115.94 184.56,-117.85 190.96,-119.66"/>
<polygon fill="#63b8ff" stroke="#63b8ff" points="190.34,-123.12 200.91,-122.41 192.2,-116.37 190.34,-123.12"/>
</a>
</g>
</g>
<!-- Node3 -->
<g id="Node000003" class="node">
<title>Node3</title>
<g id="a_Node000003"><a xlink:href="../../dc/d25/classSymbolicExpr.html#ad03189fc8a4db7762f7c1ca890674bbc" target="_top" xlink:title="创建乘法表达式。">
<polygon fill="white" stroke="#666666" points="305,-104.5 175,-104.5 175,-85.5 305,-85.5 305,-104.5"/>
<text text-anchor="middle" x="240" y="-92.5" font-family="Helvetica,sans-Serif" font-size="10.00">SymbolicExpr::multiply</text>
</a>
</g>
</g>
<!-- Node1&#45;&gt;Node3 -->
<g id="edge2_Node000001_Node000003" class="edge">
<title>Node1&#45;&gt;Node3</title>
<g id="a_edge2_Node000001_Node000003"><a xlink:title=" ">
<path fill="none" stroke="#63b8ff" d="M136.19,-83.51C145.53,-84.55 155.16,-85.63 164.62,-86.69"/>
<polygon fill="#63b8ff" stroke="#63b8ff" points="164.47,-90.19 174.79,-87.82 165.25,-83.23 164.47,-90.19"/>
</a>
</g>
</g>
<!-- Node4 -->
<g id="Node000004" class="node">
<title>Node4</title>
<g id="a_Node000004"><a xlink:href="../../dc/d25/classSymbolicExpr.html#adeb760bb6f4f28879108394537eca293" target="_top" xlink:title="创建整数数值表达式。">
<polygon fill="white" stroke="#666666" points="303.5,-67.5 176.5,-67.5 176.5,-48.5 303.5,-48.5 303.5,-67.5"/>
<text text-anchor="middle" x="240" y="-55.5" font-family="Helvetica,sans-Serif" font-size="10.00">SymbolicExpr::number</text>
</a>
</g>
</g>
<!-- Node1&#45;&gt;Node4 -->
<g id="edge3_Node000001_Node000004" class="edge">
<title>Node1&#45;&gt;Node4</title>
<g id="a_edge3_Node000001_Node000004"><a xlink:title=" ">
<path fill="none" stroke="#63b8ff" d="M136.19,-68.89C146.14,-67.83 156.44,-66.74 166.49,-65.68"/>
<polygon fill="#63b8ff" stroke="#63b8ff" points="166.87,-69.16 176.45,-64.62 166.14,-62.2 166.87,-69.16"/>
</a>
</g>
</g>
<!-- Node5 -->
<g id="Node000005" class="node">
<title>Node5</title>
<g id="a_Node000005"><a xlink:href="../../d1/d42/namespacelamina.html#ab0303c020e5b5118f43bc01eabe9f8e1" target="_top" xlink:title=" ">
<polygon fill="white" stroke="#666666" points="299,-30 181,-30 181,0 299,0 299,-30"/>
<text text-anchor="start" x="189" y="-18" font-family="Helvetica,sans-Serif" font-size="10.00">lamina::try_evaluate</text>
<text text-anchor="middle" x="240" y="-7" font-family="Helvetica,sans-Serif" font-size="10.00">_numeric</text>
</a>
</g>
</g>
<!-- Node1&#45;&gt;Node5 -->
<g id="edge4_Node000001_Node000005" class="edge">
<title>Node1&#45;&gt;Node5</title>
<g id="a_edge4_Node000001_Node000005"><a xlink:title=" ">
<path fill="none" stroke="#63b8ff" d="M111.02,-60.92C134.2,-52.61 163.16,-42.21 187.67,-33.42"/>
<polygon fill="#63b8ff" stroke="#63b8ff" points="188.94,-36.68 197.17,-30.01 186.57,-30.09 188.94,-36.68"/>
</a>
</g>
</g>
</g>
</svg>
</svg>

<style type='text/css'>
<![CDATA[
[data-mouse-over-selected='false'] { opacity: 0.7; }
[data-mouse-over-selected='true']  { opacity: 1.0; }
]]>
</style>
<script type="application/ecmascript"><![CDATA[
document.addEventListener('DOMContentLoaded', (event) => {
  highlightEdges();
  highlightAdjacentNodes();
});
]]></script>
</svg>
