<?xml version="1.0" encoding="UTF-8" standalone="no"?>
<!DOCTYPE svg PUBLIC "-//W3C//DTD SVG 1.1//EN"
 "http://www.w3.org/Graphics/SVG/1.1/DTD/svg11.dtd">
<!-- Generated by graphviz version 2.43.0 (0)
 -->
<!-- Title: lamina::is_zero_dimensional Pages: 1 -->
<svg width="485pt" height="27pt"
 viewBox="0.00 0.00 485.00 27.00" xmlns="http://www.w3.org/2000/svg" xmlns:xlink="http://www.w3.org/1999/xlink">
<g id="graph0" class="graph" transform="scale(1 1) rotate(0) translate(4 23)">
<title>lamina::is_zero_dimensional</title>
<!-- Node1 -->
<g id="Node000001" class="node">
<title>Node1</title>
<g id="a_Node000001"><a xlink:title="判断理想是否为零维（每个变量都有纯幂次首项）">
<polygon fill="#999999" stroke="#666666" points="477,-19 321,-19 321,0 477,0 477,-19"/>
<text text-anchor="middle" x="399" y="-7" font-family="Helvetica,sans-Serif" font-size="10.00">lamina::is_zero_dimensional</text>
</a>
</g>
</g>
<!-- Node2 -->
<g id="Node000002" class="node">
<title>Node2</title>
<g id="a_Node000002"><a xlink:href="../../d1/d42/namespacelamina.html#a387809128cf1f5566dde45ba3b8738f6" target="_top" xlink:title="FGLM 算法：将零维理想的 Gröbner 基从源序转换到目标序">
<polygon fill="white" stroke="#666666" points="285,-19 164,-19 164,0 285,0 285,-19"/>
<text text-anchor="middle" x="224.5" y="-7" font-family="Helvetica,sans-Serif" font-size="10.00">lamina::fglm_convert</text>
</a>
</g>
</g>
<!-- Node1&#45;&gt;Node2 -->
<g id="edge1_Node000001_Node000002" class="edge">
<title>Node1&#45;&gt;Node2</title>
<g id="a_edge1_Node000001_Node000002"><a xlink:title=" ">
<path fill="none" stroke="#63b8ff" d="M310.65,-9.5C301.97,-9.5 293.3,-9.5 285,-9.5"/>
<polygon fill="#63b8ff" stroke="#63b8ff" points="310.83,-13 320.83,-9.5 310.83,-6 310.83,-13"/>
</a>
</g>
</g>
<!-- Node3 -->
<g id="Node000003" class="node">
<title>Node3</title>
<g id="a_Node000003"><a xlink:href="../../d1/d42/namespacelamina.html#a4db520f151a16a160e64695caf60f9ac" target="_top" xlink:title="将 GrevLex 序下的 Gröbner 基转换为 Lex 序">
<polygon fill="white" stroke="#666666" points="128,-19 0,-19 0,0 128,0 128,-19"/>
<text text-anchor="middle" x="64" y="-7" font-family="Helvetica,sans-Serif" font-size="10.00">lamina::grevlex_to_lex</text>
</a>
</g>
</g>
<!-- Node2&#45;&gt;Node3 -->
<g id="edge2_Node000002_Node000003" class="edge">
<title>Node2&#45;&gt;Node3</title>
<g id="a_edge2_Node000002_Node000003"><a xlink:title=" ">
<path fill="none" stroke="#63b8ff" d="M153.42,-9.5C145.02,-9.5 136.48,-9.5 128.18,-9.5"/>
<polygon fill="#63b8ff" stroke="#63b8ff" points="153.58,-13 163.58,-9.5 153.58,-6 153.58,-13"/>
</a>
</g>
</g>
</g>
</svg>
