<?xml version="1.0" encoding="UTF-8" standalone="no"?>
<!DOCTYPE svg PUBLIC "-//W3C//DTD SVG 1.1//EN"
 "http://www.w3.org/Graphics/SVG/1.1/DTD/svg11.dtd">
<!-- Generated by graphviz version 2.43.0 (0)
 -->
<!-- Title: lamina::match_commutative_recursive Pages: 1 -->
<svg width="700pt" height="113pt"
 viewBox="0.00 0.00 700.00 113.00" xmlns="http://www.w3.org/2000/svg" xmlns:xlink="http://www.w3.org/1999/xlink">
<g id="graph0" class="graph" transform="scale(1 1) rotate(0) translate(4 109)">
<title>lamina::match_commutative_recursive</title>
<!-- Node1 -->
<g id="Node000001" class="node">
<title>Node1</title>
<g id="a_Node000001"><a xlink:title=" ">
<polygon fill="#999999" stroke="#666666" points="158,-67.5 0,-67.5 0,-37.5 158,-37.5 158,-67.5"/>
<text text-anchor="start" x="8" y="-55.5" font-family="Helvetica,sans-Serif" font-size="10.00">lamina::match_commutative</text>
<text text-anchor="middle" x="79" y="-44.5" font-family="Helvetica,sans-Serif" font-size="10.00">_recursive</text>
</a>
</g>
</g>
<!-- Node1&#45;&gt;Node1 -->
<g id="edge1_Node000001_Node000001" class="edge">
<title>Node1&#45;&gt;Node1</title>
<g id="a_edge1_Node000001_Node000001"><a xlink:title=" ">
<path fill="none" stroke="#63b8ff" d="M47.01,-67.78C39.9,-76.91 50.56,-85.5 79,-85.5 95.88,-85.5 106.5,-82.47 110.86,-78.1"/>
<polygon fill="#63b8ff" stroke="#63b8ff" points="114.36,-77.82 110.99,-67.78 107.36,-77.73 114.36,-77.82"/>
</a>
</g>
</g>
<!-- Node2 -->
<g id="Node000002" class="node">
<title>Node2</title>
<g id="a_Node000002"><a xlink:href="../../d1/d42/namespacelamina.html#aa1229a5af14e9c134f19472e208efff2" target="_top" xlink:title=" ">
<polygon fill="white" stroke="#666666" points="331,-62 194,-62 194,-43 331,-43 331,-62"/>
<text text-anchor="middle" x="262.5" y="-50" font-family="Helvetica,sans-Serif" font-size="10.00">lamina::match_recursive</text>
</a>
</g>
</g>
<!-- Node1&#45;&gt;Node2 -->
<g id="edge2_Node000001_Node000002" class="edge">
<title>Node1&#45;&gt;Node2</title>
<g id="a_edge2_Node000001_Node000002"><a xlink:title=" ">
<path fill="none" stroke="#63b8ff" d="M158.03,-45.81C166.5,-45.73 175.12,-45.73 183.59,-45.81"/>
<polygon fill="#63b8ff" stroke="#63b8ff" points="183.77,-49.31 193.82,-45.95 183.87,-42.31 183.77,-49.31"/>
</a>
</g>
</g>
<!-- Node2&#45;&gt;Node1 -->
<g id="edge8_Node000002_Node000001" class="edge">
<title>Node2&#45;&gt;Node1</title>
<g id="a_edge8_Node000002_Node000001"><a xlink:title=" ">
<path fill="none" stroke="#63b8ff" d="M193.82,-59.05C185.43,-59.2 176.77,-59.26 168.13,-59.25"/>
<polygon fill="#63b8ff" stroke="#63b8ff" points="168.05,-55.75 158.03,-59.19 168.01,-62.75 168.05,-55.75"/>
</a>
</g>
</g>
<!-- Node2&#45;&gt;Node2 -->
<g id="edge9_Node000002_Node000002" class="edge">
<title>Node2&#45;&gt;Node2</title>
<g id="a_edge9_Node000002_Node000002"><a xlink:title=" ">
<path fill="none" stroke="#63b8ff" d="M234.45,-62.08C220.8,-70.73 230.15,-80 262.5,-80 284.74,-80 296.11,-75.62 296.61,-70.07"/>
<polygon fill="#63b8ff" stroke="#63b8ff" points="299.38,-67.94 290.55,-62.08 293.8,-72.17 299.38,-67.94"/>
</a>
</g>
</g>
<!-- Node3 -->
<g id="Node000003" class="node">
<title>Node3</title>
<g id="a_Node000003"><a xlink:href="../../d6/db0/classSymbolicFactory.html#ab9193b63564a64ab94045fa10e45f149" target="_top" xlink:title="创建加法节点，自动扁平化嵌套加法并消除零项。">
<polygon fill="white" stroke="#666666" points="523,-105 367,-105 367,-86 523,-86 523,-105"/>
<text text-anchor="middle" x="445" y="-93" font-family="Helvetica,sans-Serif" font-size="10.00">SymbolicFactory::create_add</text>
</a>
</g>
</g>
<!-- Node2&#45;&gt;Node3 -->
<g id="edge3_Node000002_Node000003" class="edge">
<title>Node2&#45;&gt;Node3</title>
<g id="a_edge3_Node000002_Node000003"><a xlink:title=" ">
<path fill="none" stroke="#63b8ff" d="M303.56,-62.04C330.32,-68.42 365.7,-76.85 394.26,-83.65"/>
<polygon fill="#63b8ff" stroke="#63b8ff" points="393.51,-87.07 404.05,-85.98 395.14,-80.26 393.51,-87.07"/>
</a>
</g>
</g>
<!-- Node5 -->
<g id="Node000005" class="node">
<title>Node5</title>
<g id="a_Node000005"><a xlink:href="../../d6/db0/classSymbolicFactory.html#a3c8860af8deed80da97fcb7256d270be" target="_top" xlink:title="创建乘法节点，自动扁平化嵌套乘法并消除单位元。">
<polygon fill="white" stroke="#666666" points="511.5,-67.5 378.5,-67.5 378.5,-37.5 511.5,-37.5 511.5,-67.5"/>
<text text-anchor="start" x="386.5" y="-55.5" font-family="Helvetica,sans-Serif" font-size="10.00">SymbolicFactory::create</text>
<text text-anchor="middle" x="445" y="-44.5" font-family="Helvetica,sans-Serif" font-size="10.00">_multiply</text>
</a>
</g>
</g>
<!-- Node2&#45;&gt;Node5 -->
<g id="edge5_Node000002_Node000005" class="edge">
<title>Node2&#45;&gt;Node5</title>
<g id="a_edge5_Node000002_Node000005"><a xlink:title=" ">
<path fill="none" stroke="#63b8ff" d="M331.23,-52.5C343.26,-52.5 355.87,-52.5 368.11,-52.5"/>
<polygon fill="#63b8ff" stroke="#63b8ff" points="368.29,-56 378.29,-52.5 368.29,-49 368.29,-56"/>
</a>
</g>
</g>
<!-- Node6 -->
<g id="Node000006" class="node">
<title>Node6</title>
<g id="a_Node000006"><a xlink:href="../../d1/d42/namespacelamina.html#aeb0f885705caf1e05230c85abbe59724" target="_top" xlink:title=" ">
<polygon fill="white" stroke="#666666" points="500.5,-19 389.5,-19 389.5,0 500.5,0 500.5,-19"/>
<text text-anchor="middle" x="445" y="-7" font-family="Helvetica,sans-Serif" font-size="10.00">lamina::is_wildcard</text>
</a>
</g>
</g>
<!-- Node2&#45;&gt;Node6 -->
<g id="edge7_Node000002_Node000006" class="edge">
<title>Node2&#45;&gt;Node6</title>
<g id="a_edge7_Node000002_Node000006"><a xlink:title=" ">
<path fill="none" stroke="#63b8ff" d="M303.56,-42.96C330.32,-36.58 365.7,-28.15 394.26,-21.35"/>
<polygon fill="#63b8ff" stroke="#63b8ff" points="395.14,-24.74 404.05,-19.02 393.51,-17.93 395.14,-24.74"/>
</a>
</g>
</g>
<!-- Node4 -->
<g id="Node000004" class="node">
<title>Node4</title>
<g id="a_Node000004"><a xlink:href="../../d6/db0/classSymbolicFactory.html#ae5389b9fe65a2b6c15996a29c0314396" target="_top" xlink:title="创建大整数数值节点。">
<polygon fill="white" stroke="#666666" points="692,-88.5 559,-88.5 559,-58.5 692,-58.5 692,-88.5"/>
<text text-anchor="start" x="567" y="-76.5" font-family="Helvetica,sans-Serif" font-size="10.00">SymbolicFactory::create</text>
<text text-anchor="middle" x="625.5" y="-65.5" font-family="Helvetica,sans-Serif" font-size="10.00">_number</text>
</a>
</g>
</g>
<!-- Node3&#45;&gt;Node4 -->
<g id="edge4_Node000003_Node000004" class="edge">
<title>Node3&#45;&gt;Node4</title>
<g id="a_edge4_Node000003_Node000004"><a xlink:title=" ">
<path fill="none" stroke="#63b8ff" d="M523.25,-85.98C531.69,-84.94 540.28,-83.88 548.7,-82.84"/>
<polygon fill="#63b8ff" stroke="#63b8ff" points="549.38,-86.29 558.87,-81.59 548.52,-79.34 549.38,-86.29"/>
</a>
</g>
</g>
<!-- Node5&#45;&gt;Node4 -->
<g id="edge6_Node000005_Node000004" class="edge">
<title>Node5&#45;&gt;Node4</title>
<g id="a_edge6_Node000005_Node000004"><a xlink:title=" ">
<path fill="none" stroke="#63b8ff" d="M511.71,-60.23C523.74,-61.65 536.4,-63.13 548.7,-64.58"/>
<polygon fill="#63b8ff" stroke="#63b8ff" points="548.59,-68.09 558.93,-65.79 549.41,-61.14 548.59,-68.09"/>
</a>
</g>
</g>
</g>
</svg>
