<?xml version="1.0" encoding="UTF-8" standalone="no"?>
<!DOCTYPE svg PUBLIC "-//W3C//DTD SVG 1.1//EN"
 "http://www.w3.org/Graphics/SVG/1.1/DTD/svg11.dtd">
<!-- Generated by graphviz version 2.43.0 (0)
 -->
<!-- Title: lamina::skip_ws Pages: 1 -->
<svg width="582pt" height="74pt"
 viewBox="0.00 0.00 582.00 73.92" xmlns="http://www.w3.org/2000/svg" xmlns:xlink="http://www.w3.org/1999/xlink">
<g id="graph0" class="graph" transform="scale(1 1) rotate(0) translate(4 69.92)">
<title>lamina::skip_ws</title>
<!-- Node1 -->
<g id="Node000001" class="node">
<title>Node1</title>
<g id="a_Node000001"><a xlink:title=" ">
<polygon fill="#999999" stroke="#666666" points="574,-39.42 479,-39.42 479,-20.42 574,-20.42 574,-39.42"/>
<text text-anchor="middle" x="526.5" y="-27.42" font-family="Helvetica,sans-Serif" font-size="10.00">lamina::skip_ws</text>
</a>
</g>
</g>
<!-- Node2 -->
<g id="Node000002" class="node">
<title>Node2</title>
<g id="a_Node000002"><a xlink:href="../../de/d2c/classlamina_1_1IntervalUnion.html#a9e38024922cb0ecbd306a0d45859c64e" target="_top" xlink:title="从字符串解析区间并集">
<polygon fill="white" stroke="#666666" points="122,-65.92 0,-65.92 0,-35.92 122,-35.92 122,-65.92"/>
<text text-anchor="start" x="8" y="-53.92" font-family="Helvetica,sans-Serif" font-size="10.00">lamina::IntervalUnion</text>
<text text-anchor="middle" x="61" y="-42.92" font-family="Helvetica,sans-Serif" font-size="10.00">::parse</text>
</a>
</g>
</g>
<!-- Node1&#45;&gt;Node2 -->
<g id="edge1_Node000001_Node000002" class="edge">
<title>Node1&#45;&gt;Node2</title>
<g id="a_edge1_Node000001_Node000002"><a xlink:title=" ">
<path fill="none" stroke="#63b8ff" d="M490.02,-42.63C475.63,-47.16 458.72,-51.68 443,-53.92 330.53,-69.95 197.48,-63.12 122.09,-56.89"/>
<polygon fill="#63b8ff" stroke="#63b8ff" points="491.11,-45.96 499.54,-39.53 488.94,-39.3 491.11,-45.96"/>
</a>
</g>
</g>
<!-- Node3 -->
<g id="Node000003" class="node">
<title>Node3</title>
<g id="a_Node000003"><a xlink:href="../../d1/d42/namespacelamina.html#a6624e8e6fb2172b11e699d068c92254f" target="_top" xlink:title=" ">
<polygon fill="white" stroke="#666666" points="443,-44.92 312,-44.92 312,-14.92 443,-14.92 443,-44.92"/>
<text text-anchor="start" x="320" y="-32.92" font-family="Helvetica,sans-Serif" font-size="10.00">lamina::parse_endpoint</text>
<text text-anchor="middle" x="377.5" y="-21.92" font-family="Helvetica,sans-Serif" font-size="10.00">_value</text>
</a>
</g>
</g>
<!-- Node1&#45;&gt;Node3 -->
<g id="edge2_Node000001_Node000003" class="edge">
<title>Node1&#45;&gt;Node3</title>
<g id="a_edge2_Node000001_Node000003"><a xlink:title=" ">
<path fill="none" stroke="#63b8ff" d="M468.92,-29.92C460.52,-29.92 451.8,-29.92 443.24,-29.92"/>
<polygon fill="#63b8ff" stroke="#63b8ff" points="468.99,-33.42 478.99,-29.92 468.99,-26.42 468.99,-33.42"/>
</a>
</g>
</g>
<!-- Node4 -->
<g id="Node000004" class="node">
<title>Node4</title>
<g id="a_Node000004"><a xlink:href="../../d1/d42/namespacelamina.html#af99671445987c4e92dd7a52c483aa70e" target="_top" xlink:title=" ">
<polygon fill="white" stroke="#666666" points="276,-44.92 158,-44.92 158,-14.92 276,-14.92 276,-44.92"/>
<text text-anchor="start" x="166" y="-32.92" font-family="Helvetica,sans-Serif" font-size="10.00">lamina::parse_single</text>
<text text-anchor="middle" x="217" y="-21.92" font-family="Helvetica,sans-Serif" font-size="10.00">_interval</text>
</a>
</g>
</g>
<!-- Node1&#45;&gt;Node4 -->
<g id="edge5_Node000001_Node000004" class="edge">
<title>Node1&#45;&gt;Node4</title>
<g id="a_edge5_Node000001_Node000004"><a xlink:title=" ">
<path fill="none" stroke="#63b8ff" d="M490.02,-17.21C475.63,-12.69 458.72,-8.16 443,-5.92 385.36,2.29 369.77,1.34 312,-5.92 297.29,-7.77 281.59,-11.18 267.31,-14.87"/>
<polygon fill="#63b8ff" stroke="#63b8ff" points="488.94,-20.54 499.54,-20.31 491.11,-13.89 488.94,-20.54"/>
</a>
</g>
</g>
<!-- Node3&#45;&gt;Node4 -->
<g id="edge3_Node000003_Node000004" class="edge">
<title>Node3&#45;&gt;Node4</title>
<g id="a_edge3_Node000003_Node000004"><a xlink:title=" ">
<path fill="none" stroke="#63b8ff" d="M301.34,-29.92C292.89,-29.92 284.39,-29.92 276.21,-29.92"/>
<polygon fill="#63b8ff" stroke="#63b8ff" points="301.57,-33.42 311.57,-29.92 301.57,-26.42 301.57,-33.42"/>
</a>
</g>
</g>
<!-- Node4&#45;&gt;Node2 -->
<g id="edge4_Node000004_Node000002" class="edge">
<title>Node4&#45;&gt;Node2</title>
<g id="a_edge4_Node000004_Node000002"><a xlink:title=" ">
<path fill="none" stroke="#63b8ff" d="M147.81,-39.22C139.25,-40.39 130.53,-41.58 122.1,-42.73"/>
<polygon fill="#63b8ff" stroke="#63b8ff" points="148.34,-42.68 157.78,-37.86 147.4,-35.74 148.34,-42.68"/>
</a>
</g>
</g>
</g>
</svg>
