<?xml version="1.0" encoding="UTF-8" standalone="no"?>
<!DOCTYPE svg PUBLIC "-//W3C//DTD SVG 1.1//EN"
 "http://www.w3.org/Graphics/SVG/1.1/DTD/svg11.dtd">
<!-- Generated by graphviz version 2.43.0 (0)
 -->
<!-- Title: lamina::has_exp_k_var_terms Pages: 1 -->
<svg width="287pt" height="56pt"
 viewBox="0.00 0.00 287.00 56.00" xmlns="http://www.w3.org/2000/svg" xmlns:xlink="http://www.w3.org/1999/xlink">
<g id="graph0" class="graph" transform="scale(1 1) rotate(0) translate(4 52)">
<title>lamina::has_exp_k_var_terms</title>
<!-- Node1 -->
<g id="Node000001" class="node">
<title>Node1</title>
<g id="a_Node000001"><a xlink:title=" ">
<polygon fill="#999999" stroke="#666666" points="129,-30 0,-30 0,0 129,0 129,-30"/>
<text text-anchor="start" x="8" y="-18" font-family="Helvetica,sans-Serif" font-size="10.00">lamina::has_exp_k_var</text>
<text text-anchor="middle" x="64.5" y="-7" font-family="Helvetica,sans-Serif" font-size="10.00">_terms</text>
</a>
</g>
</g>
<!-- Node1&#45;&gt;Node1 -->
<g id="edge2_Node000001_Node000001" class="edge">
<title>Node1&#45;&gt;Node1</title>
<g id="a_edge2_Node000001_Node000001"><a xlink:title=" ">
<path fill="none" stroke="#63b8ff" d="M37.08,-30.28C30.98,-39.41 40.12,-48 64.5,-48 78.97,-48 88.07,-44.97 91.81,-40.6"/>
<polygon fill="#63b8ff" stroke="#63b8ff" points="95.31,-40.31 91.92,-30.28 88.31,-40.24 95.31,-40.31"/>
</a>
</g>
</g>
<!-- Node2 -->
<g id="Node000002" class="node">
<title>Node2</title>
<g id="a_Node000002"><a xlink:href="../../d1/d42/namespacelamina.html#a045a245a338eb30542efd7b0d4d3a277" target="_top" xlink:title=" ">
<polygon fill="white" stroke="#666666" points="279,-30 165,-30 165,0 279,0 279,-30"/>
<text text-anchor="start" x="173" y="-18" font-family="Helvetica,sans-Serif" font-size="10.00">lamina::extract_exp</text>
<text text-anchor="middle" x="222" y="-7" font-family="Helvetica,sans-Serif" font-size="10.00">_multiplier</text>
</a>
</g>
</g>
<!-- Node1&#45;&gt;Node2 -->
<g id="edge1_Node000001_Node000002" class="edge">
<title>Node1&#45;&gt;Node2</title>
<g id="a_edge1_Node000001_Node000002"><a xlink:title=" ">
<path fill="none" stroke="#63b8ff" d="M129.2,-15C137.54,-15 146.12,-15 154.51,-15"/>
<polygon fill="#63b8ff" stroke="#63b8ff" points="154.63,-18.5 164.63,-15 154.63,-11.5 154.63,-18.5"/>
</a>
</g>
</g>
</g>
</svg>
