<?xml version="1.0" encoding="UTF-8" standalone="no"?>
<!DOCTYPE svg PUBLIC "-//W3C//DTD SVG 1.1//EN"
 "http://www.w3.org/Graphics/SVG/1.1/DTD/svg11.dtd">
<!-- Generated by graphviz version 2.43.0 (0)
 -->
<!-- Title: lamina::make_closed_endpoint Pages: 1 -->
<svg width="461pt" height="56pt"
 viewBox="0.00 0.00 461.00 56.00" xmlns="http://www.w3.org/2000/svg" xmlns:xlink="http://www.w3.org/1999/xlink">
<g id="graph0" class="graph" transform="scale(1 1) rotate(0) translate(4 52)">
<title>lamina::make_closed_endpoint</title>
<!-- Node1 -->
<g id="Node000001" class="node">
<title>Node1</title>
<g id="a_Node000001"><a xlink:title="Helper: create a closed Endpoint from a double value.">
<polygon fill="#999999" stroke="#666666" points="453,-30 333,-30 333,0 453,0 453,-30"/>
<text text-anchor="start" x="341" y="-18" font-family="Helvetica,sans-Serif" font-size="10.00">lamina::make_closed</text>
<text text-anchor="middle" x="393" y="-7" font-family="Helvetica,sans-Serif" font-size="10.00">_endpoint</text>
</a>
</g>
</g>
<!-- Node2 -->
<g id="Node000002" class="node">
<title>Node2</title>
<g id="a_Node000002"><a xlink:href="../../d1/d42/namespacelamina.html#ae66080a2275a4ef050494d37fc6b8f8d" target="_top" xlink:title="Helper: create an Interval from two double values [lo, hi].">
<polygon fill="white" stroke="#666666" points="297,-24.5 171,-24.5 171,-5.5 297,-5.5 297,-24.5"/>
<text text-anchor="middle" x="234" y="-12.5" font-family="Helvetica,sans-Serif" font-size="10.00">lamina::make_interval</text>
</a>
</g>
</g>
<!-- Node1&#45;&gt;Node2 -->
<g id="edge1_Node000001_Node000002" class="edge">
<title>Node1&#45;&gt;Node2</title>
<g id="a_edge1_Node000001_Node000002"><a xlink:title=" ">
<path fill="none" stroke="#63b8ff" d="M322.43,-15C313.98,-15 305.39,-15 297.05,-15"/>
<polygon fill="#63b8ff" stroke="#63b8ff" points="322.65,-18.5 332.65,-15 322.64,-11.5 322.65,-18.5"/>
</a>
</g>
</g>
<!-- Node3 -->
<g id="Node000003" class="node">
<title>Node3</title>
<g id="a_Node000003"><a xlink:href="../../d2/d48/classlamina_1_1InferenceEngine.html#ad6b09ba4d0b5dfee516d2bd3e7071fed" target="_top" xlink:title="Propagate interval bounds through an expression tree.">
<polygon fill="white" stroke="#666666" points="135,-30 0,-30 0,0 135,0 135,-30"/>
<text text-anchor="start" x="8" y="-18" font-family="Helvetica,sans-Serif" font-size="10.00">lamina::InferenceEngine</text>
<text text-anchor="middle" x="67.5" y="-7" font-family="Helvetica,sans-Serif" font-size="10.00">::propagate_bounds</text>
</a>
</g>
</g>
<!-- Node2&#45;&gt;Node3 -->
<g id="edge2_Node000002_Node000003" class="edge">
<title>Node2&#45;&gt;Node3</title>
<g id="a_edge2_Node000002_Node000003"><a xlink:title=" ">
<path fill="none" stroke="#63b8ff" d="M160.59,-15C152.14,-15 143.54,-15 135.17,-15"/>
<polygon fill="#63b8ff" stroke="#63b8ff" points="160.81,-18.5 170.81,-15 160.81,-11.5 160.81,-18.5"/>
</a>
</g>
</g>
<!-- Node3&#45;&gt;Node3 -->
<g id="edge3_Node000003_Node000003" class="edge">
<title>Node3&#45;&gt;Node3</title>
<g id="a_edge3_Node000003_Node000003"><a xlink:title=" ">
<path fill="none" stroke="#63b8ff" d="M96.56,-40.6C92.59,-44.97 82.9,-48 67.5,-48 41.56,-48 31.84,-39.41 38.32,-30.28"/>
<polygon fill="#63b8ff" stroke="#63b8ff" points="100.06,-40.32 96.68,-30.28 93.06,-40.23 100.06,-40.32"/>
</a>
</g>
</g>
</g>
</svg>
