<?xml version="1.0" encoding="UTF-8" standalone="no"?>
<!DOCTYPE svg PUBLIC "-//W3C//DTD SVG 1.1//EN"
 "http://www.w3.org/Graphics/SVG/1.1/DTD/svg11.dtd">
<!-- Generated by graphviz version 2.43.0 (0)
 -->
<!-- Title: lamina::valid_dependency Pages: 1 -->
<svg width="987pt" height="292pt"
 viewBox="0.00 0.00 987.00 291.90" xmlns="http://www.w3.org/2000/svg" xmlns:xlink="http://www.w3.org/1999/xlink">
<g id="graph0" class="graph" transform="scale(1 1) rotate(0) translate(4 287.9)">
<title>lamina::valid_dependency</title>
<!-- Node1 -->
<g id="Node000001" class="node">
<title>Node1</title>
<g id="a_Node000001"><a xlink:title=" ">
<polygon fill="#999999" stroke="#666666" points="979,-158.5 834,-158.5 834,-139.5 979,-139.5 979,-158.5"/>
<text text-anchor="middle" x="906.5" y="-146.5" font-family="Helvetica,sans-Serif" font-size="10.00">lamina::valid_dependency</text>
</a>
</g>
</g>
<!-- Node2 -->
<g id="Node000002" class="node">
<title>Node2</title>
<g id="a_Node000002"><a xlink:href="../../d8/dbb/classlamina_1_1Integrator.html#a933c2400bb71a25a6f1e81c5cab0130b" target="_top" xlink:title=" ">
<polygon fill="white" stroke="#666666" points="599.5,-274 495.5,-274 495.5,-244 599.5,-244 599.5,-274"/>
<text text-anchor="start" x="503.5" y="-262" font-family="Helvetica,sans-Serif" font-size="10.00">lamina::Integrator</text>
<text text-anchor="middle" x="547.5" y="-251" font-family="Helvetica,sans-Serif" font-size="10.00">::apply_linearity</text>
</a>
</g>
</g>
<!-- Node1&#45;&gt;Node2 -->
<g id="edge1_Node000001_Node000002" class="edge">
<title>Node1&#45;&gt;Node2</title>
<g id="a_edge1_Node000001_Node000002"><a xlink:title=" ">
<path fill="none" stroke="#63b8ff" d="M894.39,-167.44C877.41,-193.59 842.28,-240.36 798,-259 733.72,-286.06 651.61,-279.08 599.52,-270.18"/>
<polygon fill="#63b8ff" stroke="#63b8ff" points="897.44,-169.15 899.8,-158.82 891.52,-165.43 897.44,-169.15"/>
</a>
</g>
</g>
<!-- Node7 -->
<g id="Node000007" class="node">
<title>Node7</title>
<g id="a_Node000007"><a xlink:href="../../d8/dbb/classlamina_1_1Integrator.html#aa964c6f76a91b1a15966f67fab623474" target="_top" xlink:title=" ">
<polygon fill="white" stroke="#666666" points="772,-250 668,-250 668,-220 772,-220 772,-250"/>
<text text-anchor="start" x="676" y="-238" font-family="Helvetica,sans-Serif" font-size="10.00">lamina::Integrator</text>
<text text-anchor="middle" x="720" y="-227" font-family="Helvetica,sans-Serif" font-size="10.00">::check_cycle</text>
</a>
</g>
</g>
<!-- Node1&#45;&gt;Node7 -->
<g id="edge9_Node000001_Node000007" class="edge">
<title>Node1&#45;&gt;Node7</title>
<g id="a_edge9_Node000001_Node000007"><a xlink:title=" ">
<path fill="none" stroke="#63b8ff" d="M880.25,-163.56C858.75,-175.68 826.85,-192.98 798,-206 787.19,-210.88 775.3,-215.64 764.16,-219.85"/>
<polygon fill="#63b8ff" stroke="#63b8ff" points="882.1,-166.54 889.07,-158.56 878.65,-160.45 882.1,-166.54"/>
</a>
</g>
</g>
<!-- Node8 -->
<g id="Node000008" class="node">
<title>Node8</title>
<g id="a_Node000008"><a xlink:href="../../d8/dbb/classlamina_1_1Integrator.html#af8e2012a43068412619b9afa2a5188c7" target="_top" xlink:title="递归积分入口">
<polygon fill="white" stroke="#666666" points="606,-207 489,-207 489,-177 606,-177 606,-207"/>
<text text-anchor="start" x="497" y="-195" font-family="Helvetica,sans-Serif" font-size="10.00">lamina::Integrator</text>
<text text-anchor="middle" x="547.5" y="-184" font-family="Helvetica,sans-Serif" font-size="10.00">::integrate_recursive</text>
</a>
</g>
</g>
<!-- Node1&#45;&gt;Node8 -->
<g id="edge13_Node000001_Node000008" class="edge">
<title>Node1&#45;&gt;Node8</title>
<g id="a_edge13_Node000001_Node000008"><a xlink:title=" ">
<path fill="none" stroke="#63b8ff" d="M859.11,-160.89C840.26,-165.32 818.2,-169.99 798,-173 732.69,-182.73 656.98,-187.6 606.24,-189.96"/>
<polygon fill="#63b8ff" stroke="#63b8ff" points="860.02,-164.27 868.93,-158.54 858.39,-157.46 860.02,-164.27"/>
</a>
</g>
</g>
<!-- Node9 -->
<g id="Node000009" class="node">
<title>Node9</title>
<g id="a_Node000009"><a xlink:href="../../d1/d83/classlamina_1_1IBPStrategy.html#a14c65c71e2ba58e0e2986d8e97cb201d" target="_top" xlink:title="尝试对表达式进行积分">
<polygon fill="white" stroke="#666666" points="453,-183 340,-183 340,-153 453,-153 453,-183"/>
<text text-anchor="start" x="348" y="-171" font-family="Helvetica,sans-Serif" font-size="10.00">lamina::IBPStrategy</text>
<text text-anchor="middle" x="396.5" y="-160" font-family="Helvetica,sans-Serif" font-size="10.00">::try_integrate</text>
</a>
</g>
</g>
<!-- Node1&#45;&gt;Node9 -->
<g id="edge18_Node000001_Node000009" class="edge">
<title>Node1&#45;&gt;Node9</title>
<g id="a_edge18_Node000001_Node000009"><a xlink:title=" ">
<path fill="none" stroke="#63b8ff" d="M861.7,-136.93C842.34,-132.2 819.2,-127.34 798,-125 674.97,-111.43 530.61,-137.18 453.23,-154.37"/>
<polygon fill="#63b8ff" stroke="#63b8ff" points="860.9,-140.34 871.45,-139.39 862.6,-133.55 860.9,-140.34"/>
</a>
</g>
</g>
<!-- Node10 -->
<g id="Node000010" class="node">
<title>Node10</title>
<g id="a_Node000010"><a xlink:href="../../d8/dbb/classlamina_1_1Integrator.html#acc7ce748ee8a3a60eb901a29f0fd0556" target="_top" xlink:title=" ">
<polygon fill="white" stroke="#666666" points="772,-164 668,-164 668,-134 772,-134 772,-164"/>
<text text-anchor="start" x="676" y="-152" font-family="Helvetica,sans-Serif" font-size="10.00">lamina::Integrator</text>
<text text-anchor="middle" x="720" y="-141" font-family="Helvetica,sans-Serif" font-size="10.00">::resolve_cycle</text>
</a>
</g>
</g>
<!-- Node1&#45;&gt;Node10 -->
<g id="edge14_Node000001_Node000010" class="edge">
<title>Node1&#45;&gt;Node10</title>
<g id="a_edge14_Node000001_Node000010"><a xlink:title=" ">
<path fill="none" stroke="#63b8ff" d="M823.69,-149C806.2,-149 788.21,-149 772.26,-149"/>
<polygon fill="#63b8ff" stroke="#63b8ff" points="823.9,-152.5 833.9,-149 823.9,-145.5 823.9,-152.5"/>
</a>
</g>
</g>
<!-- Node11 -->
<g id="Node000011" class="node">
<title>Node11</title>
<g id="a_Node000011"><a xlink:href="../../d0/df8/classlamina_1_1PowerRuleStrategy.html#ae0337060b7dfc01c06fc82077df55bc9" target="_top" xlink:title="尝试对表达式进行积分">
<polygon fill="white" stroke="#666666" points="794.5,-78 645.5,-78 645.5,-48 794.5,-48 794.5,-78"/>
<text text-anchor="start" x="653.5" y="-66" font-family="Helvetica,sans-Serif" font-size="10.00">lamina::PowerRuleStrategy</text>
<text text-anchor="middle" x="720" y="-55" font-family="Helvetica,sans-Serif" font-size="10.00">::try_integrate</text>
</a>
</g>
</g>
<!-- Node1&#45;&gt;Node11 -->
<g id="edge16_Node000001_Node000011" class="edge">
<title>Node1&#45;&gt;Node11</title>
<g id="a_edge16_Node000001_Node000011"><a xlink:title=" ">
<path fill="none" stroke="#63b8ff" d="M880.25,-134.44C858.75,-122.32 826.85,-105.02 798,-92 787.19,-87.12 775.3,-82.36 764.16,-78.15"/>
<polygon fill="#63b8ff" stroke="#63b8ff" points="878.65,-137.55 889.07,-139.44 882.1,-131.46 878.65,-137.55"/>
</a>
</g>
</g>
<!-- Node12 -->
<g id="Node000012" class="node">
<title>Node12</title>
<g id="a_Node000012"><a xlink:href="../../d5/df5/classlamina_1_1SubstitutionStrategy.html#aa5741eb5f049e1715a540334ca94f7c8" target="_top" xlink:title="尝试对表达式进行积分">
<polygon fill="white" stroke="#666666" points="798,-30 642,-30 642,0 798,0 798,-30"/>
<text text-anchor="start" x="650" y="-18" font-family="Helvetica,sans-Serif" font-size="10.00">lamina::SubstitutionStrategy</text>
<text text-anchor="middle" x="720" y="-7" font-family="Helvetica,sans-Serif" font-size="10.00">::try_integrate</text>
</a>
</g>
</g>
<!-- Node1&#45;&gt;Node12 -->
<g id="edge17_Node000001_Node000012" class="edge">
<title>Node1&#45;&gt;Node12</title>
<g id="a_edge17_Node000001_Node000012"><a xlink:title=" ">
<path fill="none" stroke="#63b8ff" d="M892.45,-130.87C874.04,-106.56 838.18,-63.61 798,-39 792.51,-35.64 786.5,-32.71 780.35,-30.16"/>
<polygon fill="#63b8ff" stroke="#63b8ff" points="889.86,-133.25 898.62,-139.2 895.48,-129.08 889.86,-133.25"/>
</a>
</g>
</g>
<!-- Node3 -->
<g id="Node000003" class="node">
<title>Node3</title>
<g id="a_Node000003"><a xlink:href="../../d8/dbb/classlamina_1_1Integrator.html#ad041f93ff9d1cca47ad39439338ec2e5" target="_top" xlink:title="计算不定积分">
<polygon fill="white" stroke="#666666" points="448.5,-274 344.5,-274 344.5,-244 448.5,-244 448.5,-274"/>
<text text-anchor="start" x="352.5" y="-262" font-family="Helvetica,sans-Serif" font-size="10.00">lamina::Integrator</text>
<text text-anchor="middle" x="396.5" y="-251" font-family="Helvetica,sans-Serif" font-size="10.00">::integrate</text>
</a>
</g>
</g>
<!-- Node2&#45;&gt;Node3 -->
<g id="edge2_Node000002_Node000003" class="edge">
<title>Node2&#45;&gt;Node3</title>
<g id="a_edge2_Node000002_Node000003"><a xlink:title=" ">
<path fill="none" stroke="#63b8ff" d="M485.16,-252.34C473.01,-252.17 460.38,-252.24 448.62,-252.55"/>
<polygon fill="#63b8ff" stroke="#63b8ff" points="485.15,-255.84 495.22,-252.55 485.3,-248.85 485.15,-255.84"/>
</a>
</g>
</g>
<!-- Node3&#45;&gt;Node2 -->
<g id="edge3_Node000003_Node000002" class="edge">
<title>Node3&#45;&gt;Node2</title>
<g id="a_edge3_Node000003_Node000002"><a xlink:title=" ">
<path fill="none" stroke="#63b8ff" d="M458.68,-265.65C470.82,-265.83 483.45,-265.76 495.22,-265.45"/>
<polygon fill="#63b8ff" stroke="#63b8ff" points="458.69,-262.15 448.62,-265.45 458.54,-269.15 458.69,-262.15"/>
</a>
</g>
</g>
<!-- Node4 -->
<g id="Node000004" class="node">
<title>Node4</title>
<g id="a_Node000004"><a xlink:href="../../d0/d72/classlamina_1_1MultipleIntegralEngine.html#a491641f4d1657cf6aab03b05edef3ec8" target="_top" xlink:title="计算迭代积分。">
<polygon fill="white" stroke="#666666" points="134,-262 0,-262 0,-232 134,-232 134,-262"/>
<text text-anchor="start" x="8" y="-250" font-family="Helvetica,sans-Serif" font-size="10.00">lamina::MultipleIntegral</text>
<text text-anchor="middle" x="67" y="-239" font-family="Helvetica,sans-Serif" font-size="10.00">Engine::evaluate</text>
</a>
</g>
</g>
<!-- Node3&#45;&gt;Node4 -->
<g id="edge4_Node000003_Node000004" class="edge">
<title>Node3&#45;&gt;Node4</title>
<g id="a_edge4_Node000003_Node000004"><a xlink:title=" ">
<path fill="none" stroke="#63b8ff" d="M334.49,-273.47C324.36,-275.35 313.93,-276.98 304,-278 244.76,-284.09 228.91,-286.75 170,-278 148.95,-274.87 126.23,-268.3 107.58,-262.01"/>
<polygon fill="#63b8ff" stroke="#63b8ff" points="335.35,-276.87 344.49,-271.52 334.01,-270 335.35,-276.87"/>
</a>
</g>
</g>
<!-- Node5 -->
<g id="Node000005" class="node">
<title>Node5</title>
<g id="a_Node000005"><a xlink:href="../../dc/d25/classSymbolicExpr.html#a3cea51734e44db6a4a48a77206ca4055" target="_top" xlink:title="计算不定积分。">
<polygon fill="white" stroke="#666666" points="304,-268.5 170,-268.5 170,-249.5 304,-249.5 304,-268.5"/>
<text text-anchor="middle" x="237" y="-256.5" font-family="Helvetica,sans-Serif" font-size="10.00">SymbolicExpr::integrate</text>
</a>
</g>
</g>
<!-- Node3&#45;&gt;Node5 -->
<g id="edge5_Node000003_Node000005" class="edge">
<title>Node3&#45;&gt;Node5</title>
<g id="a_edge5_Node000003_Node000005"><a xlink:title=" ">
<path fill="none" stroke="#63b8ff" d="M334.23,-259C324.35,-259 314.08,-259 304.09,-259"/>
<polygon fill="#63b8ff" stroke="#63b8ff" points="334.36,-262.5 344.36,-259 334.36,-255.5 334.36,-262.5"/>
</a>
</g>
</g>
<!-- Node6 -->
<g id="Node000006" class="node">
<title>Node6</title>
<g id="a_Node000006"><a xlink:href="../../d8/dbb/classlamina_1_1Integrator.html#a7477aee41552c2e8aa5065d0b8094fc3" target="_top" xlink:title="计算定积分">
<polygon fill="white" stroke="#666666" points="289,-213 185,-213 185,-183 289,-183 289,-213"/>
<text text-anchor="start" x="193" y="-201" font-family="Helvetica,sans-Serif" font-size="10.00">lamina::Integrator</text>
<text text-anchor="middle" x="237" y="-190" font-family="Helvetica,sans-Serif" font-size="10.00">::integrate_def</text>
</a>
</g>
</g>
<!-- Node3&#45;&gt;Node6 -->
<g id="edge6_Node000003_Node000006" class="edge">
<title>Node3&#45;&gt;Node6</title>
<g id="a_edge6_Node000003_Node000006"><a xlink:title=" ">
<path fill="none" stroke="#63b8ff" d="M347.15,-240.27C324.55,-231.52 298.01,-221.24 276.76,-213.01"/>
<polygon fill="#63b8ff" stroke="#63b8ff" points="345.98,-243.57 356.57,-243.92 348.51,-237.05 345.98,-243.57"/>
</a>
</g>
</g>
<!-- Node6&#45;&gt;Node4 -->
<g id="edge7_Node000006_Node000004" class="edge">
<title>Node6&#45;&gt;Node4</title>
<g id="a_edge7_Node000006_Node000004"><a xlink:title=" ">
<path fill="none" stroke="#63b8ff" d="M175.05,-215.78C156.86,-221.08 137.11,-226.84 119.58,-231.95"/>
<polygon fill="#63b8ff" stroke="#63b8ff" points="176.06,-219.13 184.68,-212.97 174.1,-212.41 176.06,-219.13"/>
</a>
</g>
</g>
<!-- Node6&#45;&gt;Node6 -->
<g id="edge8_Node000006_Node000006" class="edge">
<title>Node6&#45;&gt;Node6</title>
<g id="a_edge8_Node000006_Node000006"><a xlink:title=" ">
<path fill="none" stroke="#63b8ff" d="M264.66,-223.6C260.88,-227.97 251.66,-231 237,-231 212.31,-231 203.05,-222.41 209.23,-213.28"/>
<polygon fill="#63b8ff" stroke="#63b8ff" points="268.16,-223.31 264.77,-213.28 261.16,-223.23 268.16,-223.31"/>
</a>
</g>
</g>
<!-- Node7&#45;&gt;Node8 -->
<g id="edge10_Node000007_Node000008" class="edge">
<title>Node7&#45;&gt;Node8</title>
<g id="a_edge10_Node000007_Node000008"><a xlink:title=" ">
<path fill="none" stroke="#63b8ff" d="M658.08,-219.64C641.18,-215.37 622.9,-210.76 606.19,-206.55"/>
<polygon fill="#63b8ff" stroke="#63b8ff" points="657.29,-223.05 667.84,-222.1 659,-216.26 657.29,-223.05"/>
</a>
</g>
</g>
<!-- Node8&#45;&gt;Node3 -->
<g id="edge11_Node000008_Node000003" class="edge">
<title>Node8&#45;&gt;Node3</title>
<g id="a_edge11_Node000008_Node000003"><a xlink:title=" ">
<path fill="none" stroke="#63b8ff" d="M503.83,-211.19C480.73,-221.57 452.61,-234.22 431.08,-243.9"/>
<polygon fill="#63b8ff" stroke="#63b8ff" points="505.38,-214.33 513.06,-207.04 502.51,-207.95 505.38,-214.33"/>
</a>
</g>
</g>
<!-- Node8&#45;&gt;Node9 -->
<g id="edge12_Node000008_Node000009" class="edge">
<title>Node8&#45;&gt;Node9</title>
<g id="a_edge12_Node000008_Node000009"><a xlink:title=" ">
<path fill="none" stroke="#63b8ff" d="M478.97,-181.12C470.45,-179.75 461.8,-178.36 453.48,-177.02"/>
<polygon fill="#63b8ff" stroke="#63b8ff" points="478.46,-184.59 488.89,-182.72 479.58,-177.68 478.46,-184.59"/>
</a>
</g>
</g>
<!-- Node10&#45;&gt;Node8 -->
<g id="edge15_Node000010_Node000008" class="edge">
<title>Node10&#45;&gt;Node8</title>
<g id="a_edge15_Node000010_Node000008"><a xlink:title=" ">
<path fill="none" stroke="#63b8ff" d="M658.08,-164.36C641.18,-168.63 622.9,-173.24 606.19,-177.45"/>
<polygon fill="#63b8ff" stroke="#63b8ff" points="659,-167.74 667.84,-161.9 657.29,-160.95 659,-167.74"/>
</a>
</g>
</g>
</g>
</svg>
