<?xml version="1.0" encoding="UTF-8" standalone="no"?>
<!DOCTYPE svg PUBLIC "-//W3C//DTD SVG 1.1//EN"
 "http://www.w3.org/Graphics/SVG/1.1/DTD/svg11.dtd">
<!-- Generated by graphviz version 2.43.0 (0)
 -->
<!-- Title: lamina::is_even_integer_number Pages: 1 -->
<svg width="564pt" height="91pt"
 viewBox="0.00 0.00 564.00 91.00" xmlns="http://www.w3.org/2000/svg" xmlns:xlink="http://www.w3.org/1999/xlink">
<g id="graph0" class="graph" transform="scale(1 1) rotate(0) translate(4 87)">
<title>lamina::is_even_integer_number</title>
<!-- Node1 -->
<g id="Node000001" class="node">
<title>Node1</title>
<g id="a_Node000001"><a xlink:title="Helper: check if a NumberNode holds an even integer value.">
<polygon fill="#999999" stroke="#666666" points="134,-45.5 0,-45.5 0,-15.5 134,-15.5 134,-45.5"/>
<text text-anchor="start" x="8" y="-33.5" font-family="Helvetica,sans-Serif" font-size="10.00">lamina::is_even_integer</text>
<text text-anchor="middle" x="67" y="-22.5" font-family="Helvetica,sans-Serif" font-size="10.00">_number</text>
</a>
</g>
</g>
<!-- Node2 -->
<g id="Node000002" class="node">
<title>Node2</title>
<g id="a_Node000002"><a xlink:href="../../da/d5b/classBigInt.html#a5f284dcda4f2492d53c1f47dd1505974" target="_top" xlink:title="判断是否为偶数">
<polygon fill="white" stroke="#666666" points="266.5,-83 177.5,-83 177.5,-64 266.5,-64 266.5,-83"/>
<text text-anchor="middle" x="222" y="-71" font-family="Helvetica,sans-Serif" font-size="10.00">BigInt::is_even</text>
</a>
</g>
</g>
<!-- Node1&#45;&gt;Node2 -->
<g id="edge1_Node000001_Node000002" class="edge">
<title>Node1&#45;&gt;Node2</title>
<g id="a_edge1_Node000001_Node000002"><a xlink:title=" ">
<path fill="none" stroke="#63b8ff" d="M121.51,-45.54C139.66,-50.64 159.72,-56.28 177.04,-61.15"/>
<polygon fill="#63b8ff" stroke="#63b8ff" points="176.32,-64.58 186.89,-63.91 178.21,-57.84 176.32,-64.58"/>
</a>
</g>
</g>
<!-- Node4 -->
<g id="Node000004" class="node">
<title>Node4</title>
<g id="a_Node000004"><a xlink:href="../../d1/d42/namespacelamina.html#aeeeb7abf5018ea3dfda0a676e8a3c54f" target="_top" xlink:title="Helper: check if a NumberNode holds an integer value.">
<polygon fill="white" stroke="#666666" points="274,-45.5 170,-45.5 170,-15.5 274,-15.5 274,-45.5"/>
<text text-anchor="start" x="178" y="-33.5" font-family="Helvetica,sans-Serif" font-size="10.00">lamina::is_integer</text>
<text text-anchor="middle" x="222" y="-22.5" font-family="Helvetica,sans-Serif" font-size="10.00">_number</text>
</a>
</g>
</g>
<!-- Node1&#45;&gt;Node4 -->
<g id="edge3_Node000001_Node000004" class="edge">
<title>Node1&#45;&gt;Node4</title>
<g id="a_edge3_Node000001_Node000004"><a xlink:title=" ">
<path fill="none" stroke="#63b8ff" d="M134.22,-30.5C142.72,-30.5 151.39,-30.5 159.8,-30.5"/>
<polygon fill="#63b8ff" stroke="#63b8ff" points="159.9,-34 169.9,-30.5 159.9,-27 159.9,-34"/>
</a>
</g>
</g>
<!-- Node5 -->
<g id="Node000005" class="node">
<title>Node5</title>
<g id="a_Node000005"><a xlink:href="../../d1/d42/namespacelamina.html#a78a46efcff5ce7151a74984c5381cd71" target="_top" xlink:title=" ">
<polygon fill="white" stroke="#666666" points="390.5,-19 312.5,-19 312.5,0 390.5,0 390.5,-19"/>
<text text-anchor="middle" x="351.5" y="-7" font-family="Helvetica,sans-Serif" font-size="10.00">lamina::num</text>
</a>
</g>
</g>
<!-- Node1&#45;&gt;Node5 -->
<g id="edge6_Node000001_Node000005" class="edge">
<title>Node1&#45;&gt;Node5</title>
<g id="a_edge6_Node000001_Node000005"><a xlink:title=" ">
<path fill="none" stroke="#63b8ff" d="M121.58,-15.44C137.08,-11.76 154.1,-8.35 170,-6.5 215.91,-1.17 227.79,-5.59 274,-6.5 283.17,-6.68 292.96,-6.98 302.37,-7.32"/>
<polygon fill="#63b8ff" stroke="#63b8ff" points="302.25,-10.82 312.38,-7.71 302.52,-3.83 302.25,-10.82"/>
</a>
</g>
</g>
<!-- Node3 -->
<g id="Node000003" class="node">
<title>Node3</title>
<g id="a_Node000003"><a xlink:href="../../da/d5b/classBigInt.html#a2c6c5776fd02f5f4e89f2e58ae27cb37" target="_top" xlink:title="判断是否为奇数">
<polygon fill="white" stroke="#666666" points="393,-83 310,-83 310,-64 393,-64 393,-83"/>
<text text-anchor="middle" x="351.5" y="-71" font-family="Helvetica,sans-Serif" font-size="10.00">BigInt::is_odd</text>
</a>
</g>
</g>
<!-- Node2&#45;&gt;Node3 -->
<g id="edge2_Node000002_Node000003" class="edge">
<title>Node2&#45;&gt;Node3</title>
<g id="a_edge2_Node000002_Node000003"><a xlink:title=" ">
<path fill="none" stroke="#63b8ff" d="M266.52,-73.5C277.13,-73.5 288.57,-73.5 299.49,-73.5"/>
<polygon fill="#63b8ff" stroke="#63b8ff" points="299.75,-77 309.75,-73.5 299.75,-70 299.75,-77"/>
</a>
</g>
</g>
<!-- Node4&#45;&gt;Node5 -->
<g id="edge4_Node000004_Node000005" class="edge">
<title>Node4&#45;&gt;Node5</title>
<g id="a_edge4_Node000004_Node000005"><a xlink:title=" ">
<path fill="none" stroke="#63b8ff" d="M274.12,-22.08C283.39,-20.55 293.02,-18.97 302.2,-17.46"/>
<polygon fill="#63b8ff" stroke="#63b8ff" points="303.02,-20.87 312.32,-15.79 301.89,-13.96 303.02,-20.87"/>
</a>
</g>
</g>
<!-- Node6 -->
<g id="Node000006" class="node">
<title>Node6</title>
<g id="a_Node000006"><a xlink:href="../../dc/d25/classSymbolicExpr.html#adeb760bb6f4f28879108394537eca293" target="_top" xlink:title="创建整数数值表达式。">
<polygon fill="white" stroke="#666666" points="556,-19 429,-19 429,0 556,0 556,-19"/>
<text text-anchor="middle" x="492.5" y="-7" font-family="Helvetica,sans-Serif" font-size="10.00">SymbolicExpr::number</text>
</a>
</g>
</g>
<!-- Node5&#45;&gt;Node6 -->
<g id="edge5_Node000005_Node000006" class="edge">
<title>Node5&#45;&gt;Node6</title>
<g id="a_edge5_Node000005_Node000006"><a xlink:title=" ">
<path fill="none" stroke="#63b8ff" d="M390.85,-9.5C399.62,-9.5 409.22,-9.5 418.9,-9.5"/>
<polygon fill="#63b8ff" stroke="#63b8ff" points="418.99,-13 428.99,-9.5 418.99,-6 418.99,-13"/>
</a>
</g>
</g>
</g>
</svg>
