<?xml version="1.0" encoding="UTF-8" standalone="no"?>
<!DOCTYPE svg PUBLIC "-//W3C//DTD SVG 1.1//EN"
 "http://www.w3.org/Graphics/SVG/1.1/DTD/svg11.dtd">
<!-- Generated by graphviz version 2.43.0 (0)
 -->
<!-- Title: lamina::parse_endpoint_value Pages: 1 -->
<svg width="466pt" height="113pt"
 viewBox="0.00 0.00 466.00 112.50" xmlns="http://www.w3.org/2000/svg" xmlns:xlink="http://www.w3.org/1999/xlink">

<svg id="main" version="1.1" xmlns="http://www.w3.org/2000/svg" xmlns:xlink="http://www.w3.org/1999/xlink" xml:space="preserve" onload="init(evt)">
<style type="text/css"><![CDATA[
.node, .edge {opacity: 0.7;}
.node.selected, .edge.selected {opacity: 1;}
.edge:hover path { stroke: red; }
.edge:hover polygon { stroke: red; fill: red; }
]]></style>
<script type="application/ecmascript" xlink:href="../../svg.min.js"/>
<svg id="graph" class="graph">
<g id="graph0" class="graph" transform="scale(1 1) rotate(0) translate(4 108.5)">
<title>lamina::parse_endpoint_value</title>
<!-- Node1 -->
<g id="Node000001" class="node">
<title>Node1</title>
<g id="a_Node000001"><a xlink:title=" ">
<polygon fill="#999999" stroke="#666666" points="131,-61.5 0,-61.5 0,-31.5 131,-31.5 131,-61.5"/>
<text text-anchor="start" x="8" y="-49.5" font-family="Helvetica,sans-Serif" font-size="10.00">lamina::parse_endpoint</text>
<text text-anchor="middle" x="65.5" y="-38.5" font-family="Helvetica,sans-Serif" font-size="10.00">_value</text>
</a>
</g>
</g>
<!-- Node2 -->
<g id="Node000002" class="node">
<title>Node2</title>
<g id="a_Node000002"><a xlink:href="../../d1/d42/namespacelamina.html#ae52c8a98354cb169cc8dd75e0fdbf8c1" target="_top" xlink:title=" ">
<polygon fill="white" stroke="#666666" points="295,-104.5 167,-104.5 167,-74.5 295,-74.5 295,-104.5"/>
<text text-anchor="start" x="175" y="-92.5" font-family="Helvetica,sans-Serif" font-size="10.00">lamina::parse_numeric</text>
<text text-anchor="middle" x="231" y="-81.5" font-family="Helvetica,sans-Serif" font-size="10.00">_value</text>
</a>
</g>
</g>
<!-- Node1&#45;&gt;Node2 -->
<g id="edge1_Node000001_Node000002" class="edge">
<title>Node1&#45;&gt;Node2</title>
<g id="a_edge1_Node000001_Node000002"><a xlink:title=" ">
<path fill="none" stroke="#63b8ff" d="M123.68,-61.54C136.38,-64.88 149.95,-68.45 162.99,-71.88"/>
<polygon fill="#63b8ff" stroke="#63b8ff" points="162.29,-75.31 172.85,-74.47 164.07,-68.54 162.29,-75.31"/>
</a>
</g>
</g>
<!-- Node4 -->
<g id="Node000004" class="node">
<title>Node4</title>
<g id="a_Node000004"><a xlink:href="../../d1/d42/namespacelamina.html#a2ff4fa6163399f67ffb9c3ccd53a3050" target="_top" xlink:title=" ">
<polygon fill="white" stroke="#666666" points="278.5,-56 183.5,-56 183.5,-37 278.5,-37 278.5,-56"/>
<text text-anchor="middle" x="231" y="-44" font-family="Helvetica,sans-Serif" font-size="10.00">lamina::skip_ws</text>
</a>
</g>
</g>
<!-- Node1&#45;&gt;Node4 -->
<g id="edge3_Node000001_Node000004" class="edge">
<title>Node1&#45;&gt;Node4</title>
<g id="a_edge3_Node000001_Node000004"><a xlink:title=" ">
<path fill="none" stroke="#63b8ff" d="M131.12,-46.5C145.06,-46.5 159.7,-46.5 173.31,-46.5"/>
<polygon fill="#63b8ff" stroke="#63b8ff" points="173.49,-50 183.49,-46.5 173.49,-43 173.49,-50"/>
</a>
</g>
</g>
<!-- Node5 -->
<g id="Node000005" class="node">
<title>Node5</title>
<g id="a_Node000005"><a xlink:href="../../d1/d42/namespacelamina.html#a50a3d2b82e8b119925b28ed5114c1cd8" target="_top" xlink:title=" ">
<polygon fill="white" stroke="#666666" points="293.5,-19 168.5,-19 168.5,0 293.5,0 293.5,-19"/>
<text text-anchor="middle" x="231" y="-7" font-family="Helvetica,sans-Serif" font-size="10.00">lamina::starts_with_at</text>
</a>
</g>
</g>
<!-- Node1&#45;&gt;Node5 -->
<g id="edge4_Node000001_Node000005" class="edge">
<title>Node1&#45;&gt;Node5</title>
<g id="a_edge4_Node000001_Node000005"><a xlink:title=" ">
<path fill="none" stroke="#63b8ff" d="M131.12,-31.88C146.64,-28.36 163.02,-24.66 177.89,-21.29"/>
<polygon fill="#63b8ff" stroke="#63b8ff" points="178.93,-24.64 187.91,-19.02 177.39,-17.82 178.93,-24.64"/>
</a>
</g>
</g>
<!-- Node3 -->
<g id="Node000003" class="node">
<title>Node3</title>
<g id="a_Node000003"><a xlink:href="../../dc/d25/classSymbolicExpr.html#adeb760bb6f4f28879108394537eca293" target="_top" xlink:title="创建整数数值表达式。">
<polygon fill="white" stroke="#666666" points="458,-99 331,-99 331,-80 458,-80 458,-99"/>
<text text-anchor="middle" x="394.5" y="-87" font-family="Helvetica,sans-Serif" font-size="10.00">SymbolicExpr::number</text>
</a>
</g>
</g>
<!-- Node2&#45;&gt;Node3 -->
<g id="edge2_Node000002_Node000003" class="edge">
<title>Node2&#45;&gt;Node3</title>
<g id="a_edge2_Node000002_Node000003"><a xlink:title=" ">
<path fill="none" stroke="#63b8ff" d="M295.37,-89.5C303.66,-89.5 312.21,-89.5 320.64,-89.5"/>
<polygon fill="#63b8ff" stroke="#63b8ff" points="320.85,-93 330.85,-89.5 320.85,-86 320.85,-93"/>
</a>
</g>
</g>
</g>
</svg>
</svg>

<style type='text/css'>
<![CDATA[
[data-mouse-over-selected='false'] { opacity: 0.7; }
[data-mouse-over-selected='true']  { opacity: 1.0; }
]]>
</style>
<script type="application/ecmascript"><![CDATA[
document.addEventListener('DOMContentLoaded', (event) => {
  highlightEdges();
  highlightAdjacentNodes();
});
]]></script>
</svg>
