<?xml version="1.0" encoding="UTF-8" standalone="no"?>
<!DOCTYPE svg PUBLIC "-//W3C//DTD SVG 1.1//EN"
 "http://www.w3.org/Graphics/SVG/1.1/DTD/svg11.dtd">
<!-- Generated by graphviz version 2.43.0 (0)
 -->
<!-- Title: lamina::Matcher Pages: 1 -->
<svg width="198pt" height="160pt"
 viewBox="0.00 0.00 198.00 160.00" xmlns="http://www.w3.org/2000/svg" xmlns:xlink="http://www.w3.org/1999/xlink">
<g id="graph0" class="graph" transform="scale(1 1) rotate(0) translate(4 156)">
<title>lamina::Matcher</title>
<!-- Node1 -->
<g id="Node000001" class="node">
<title>Node1</title>
<g id="a_Node000001"><a xlink:title="符号表达式模式匹配器">
<polygon fill="#999999" stroke="transparent" points="190,-152 0,-152 0,0 190,0 190,-152"/>
<text text-anchor="start" x="55" y="-140" font-family="Helvetica,sans-Serif" font-size="10.00">lamina::Matcher</text>
<text text-anchor="start" x="93" y="-125" font-family="Helvetica,sans-Serif" font-size="10.00"> </text>
<text text-anchor="start" x="4" y="-110" font-family="Helvetica,sans-Serif" font-size="10.00">+</text>
<text text-anchor="start" x="17" y="-110" font-family="Helvetica,sans-Serif" font-size="10.00">static bool match(const</text>
<text text-anchor="start" x="17" y="-99" font-family="Helvetica,sans-Serif" font-size="10.00"> SymbolicExpr &amp;pattern,</text>
<text text-anchor="start" x="17" y="-88" font-family="Helvetica,sans-Serif" font-size="10.00"> const SymbolicExpr &amp;target,</text>
<text text-anchor="start" x="17" y="-77" font-family="Helvetica,sans-Serif" font-size="10.00"> const std::unordered_set</text>
<text text-anchor="start" x="17" y="-66" font-family="Helvetica,sans-Serif" font-size="10.00">&lt; std::string &gt; &amp;wildcards,</text>
<text text-anchor="start" x="17" y="-55" font-family="Helvetica,sans-Serif" font-size="10.00"> MatchMap &amp;results)</text>
<text text-anchor="start" x="4" y="-40" font-family="Helvetica,sans-Serif" font-size="10.00">+</text>
<text text-anchor="start" x="17" y="-40" font-family="Helvetica,sans-Serif" font-size="10.00">static SymbolicExpr</text>
<text text-anchor="start" x="17" y="-29" font-family="Helvetica,sans-Serif" font-size="10.00"> replace(const SymbolicExpr</text>
<text text-anchor="start" x="17" y="-18" font-family="Helvetica,sans-Serif" font-size="10.00"> &amp;template_expr, const MatchMap</text>
<text text-anchor="start" x="17" y="-7" font-family="Helvetica,sans-Serif" font-size="10.00"> &amp;bindings, bool use_rest=true)</text>
<polygon fill="#666666" stroke="#666666" points="0,-135 0,-135 190,-135 190,-135 0,-135"/>
<polygon fill="#666666" stroke="#666666" points="0,-120 0,-120 190,-120 190,-120 0,-120"/>
<polygon fill="none" stroke="#666666" points="0,0 0,-152 190,-152 190,0 0,0"/>
</a>
</g>
</g>
</g>
</svg>
