<?xml version="1.0" encoding="UTF-8" standalone="no"?>
<!DOCTYPE svg PUBLIC "-//W3C//DTD SVG 1.1//EN"
 "http://www.w3.org/Graphics/SVG/1.1/DTD/svg11.dtd">
<!-- Generated by graphviz version 2.43.0 (0)
 -->
<!-- Title: lamina::anonymous_namespace{solver::cpp}::compute_spoly_sugar Pages: 1 -->
<svg width="413pt" height="104pt"
 viewBox="0.00 0.00 413.00 104.00" xmlns="http://www.w3.org/2000/svg" xmlns:xlink="http://www.w3.org/1999/xlink">
<g id="graph0" class="graph" transform="scale(1 1) rotate(0) translate(4 100)">
<title>lamina::anonymous_namespace{solver::cpp}::compute_spoly_sugar</title>
<!-- Node1 -->
<g id="Node000001" class="node">
<title>Node1</title>
<g id="a_Node000001"><a xlink:title=" ">
<polygon fill="#999999" stroke="#666666" points="194,-54 0,-54 0,-24 194,-24 194,-54"/>
<text text-anchor="start" x="8" y="-42" font-family="Helvetica,sans-Serif" font-size="10.00">lamina::anonymous_namespace</text>
<text text-anchor="middle" x="97" y="-31" font-family="Helvetica,sans-Serif" font-size="10.00">{solver::cpp}::compute_spoly_sugar</text>
</a>
</g>
</g>
<!-- Node2 -->
<g id="Node000002" class="node">
<title>Node2</title>
<g id="a_Node000002"><a xlink:href="../../d3/d3c/namespacelamina_1_1anonymous__namespace_02solver_8cpp_03.html#a280f27f4afa44004089b995a1c3e1a37" target="_top" xlink:title=" ">
<polygon fill="white" stroke="#666666" points="405,-78 230,-78 230,-48 405,-48 405,-78"/>
<text text-anchor="start" x="238" y="-66" font-family="Helvetica,sans-Serif" font-size="10.00">lamina::anonymous_namespace</text>
<text text-anchor="middle" x="317.5" y="-55" font-family="Helvetica,sans-Serif" font-size="10.00">{solver::cpp}::lcm_mono</text>
</a>
</g>
</g>
<!-- Node1&#45;&gt;Node2 -->
<g id="edge1_Node000001_Node000002" class="edge">
<title>Node1&#45;&gt;Node2</title>
<g id="a_edge1_Node000001_Node000002"><a xlink:title=" ">
<path fill="none" stroke="#63b8ff" d="M194.16,-49.56C202.71,-50.5 211.38,-51.45 219.94,-52.39"/>
<polygon fill="#63b8ff" stroke="#63b8ff" points="219.61,-55.88 229.93,-53.49 220.37,-48.92 219.61,-55.88"/>
</a>
</g>
</g>
<!-- Node3 -->
<g id="Node000003" class="node">
<title>Node3</title>
<g id="a_Node000003"><a xlink:href="../../dc/d69/structlamina_1_1anonymous__namespace_02solver_8cpp_03_1_1Poly.html#a3e2a9510b391265f84a519acd4a61177" target="_top" xlink:title=" ">
<polygon fill="white" stroke="#666666" points="405,-30 230,-30 230,0 405,0 405,-30"/>
<text text-anchor="start" x="238" y="-18" font-family="Helvetica,sans-Serif" font-size="10.00">lamina::anonymous_namespace</text>
<text text-anchor="middle" x="317.5" y="-7" font-family="Helvetica,sans-Serif" font-size="10.00">{solver::cpp}::Poly::LM</text>
</a>
</g>
</g>
<!-- Node1&#45;&gt;Node3 -->
<g id="edge3_Node000001_Node000003" class="edge">
<title>Node1&#45;&gt;Node3</title>
<g id="a_edge3_Node000001_Node000003"><a xlink:title=" ">
<path fill="none" stroke="#63b8ff" d="M194.16,-28.44C202.71,-27.5 211.38,-26.55 219.94,-25.61"/>
<polygon fill="#63b8ff" stroke="#63b8ff" points="220.37,-29.08 229.93,-24.51 219.61,-22.12 220.37,-29.08"/>
</a>
</g>
</g>
<!-- Node2&#45;&gt;Node2 -->
<g id="edge2_Node000002_Node000002" class="edge">
<title>Node2&#45;&gt;Node2</title>
<g id="a_edge2_Node000002_Node000002"><a xlink:title=" ">
<path fill="none" stroke="#63b8ff" d="M278.83,-78.28C270.23,-87.41 283.12,-96 317.5,-96 337.91,-96 350.75,-92.97 356.01,-88.6"/>
<polygon fill="#63b8ff" stroke="#63b8ff" points="359.51,-88.33 356.17,-78.28 352.51,-88.22 359.51,-88.33"/>
</a>
</g>
</g>
</g>
</svg>
