<?xml version="1.0" encoding="UTF-8" standalone="no"?>
<!DOCTYPE svg PUBLIC "-//W3C//DTD SVG 1.1//EN"
 "http://www.w3.org/Graphics/SVG/1.1/DTD/svg11.dtd">
<!-- Generated by graphviz version 2.43.0 (0)
 -->
<!-- Title: lamina::anonymous_namespace{solver::cpp}::to_poly Pages: 1 -->
<svg width="927pt" height="182pt"
 viewBox="0.00 0.00 927.00 182.00" xmlns="http://www.w3.org/2000/svg" xmlns:xlink="http://www.w3.org/1999/xlink">
<g id="graph0" class="graph" transform="scale(1 1) rotate(0) translate(4 178)">
<title>lamina::anonymous_namespace{solver::cpp}::to_poly</title>
<!-- Node1 -->
<g id="Node000001" class="node">
<title>Node1</title>
<g id="a_Node000001"><a xlink:title=" ">
<polygon fill="#999999" stroke="#666666" points="919,-102 744,-102 744,-72 919,-72 919,-102"/>
<text text-anchor="start" x="752" y="-90" font-family="Helvetica,sans-Serif" font-size="10.00">lamina::anonymous_namespace</text>
<text text-anchor="middle" x="831.5" y="-79" font-family="Helvetica,sans-Serif" font-size="10.00">{solver::cpp}::to_poly</text>
</a>
</g>
</g>
<!-- Node2 -->
<g id="Node000002" class="node">
<title>Node2</title>
<g id="a_Node000002"><a xlink:href="../../d5/d6f/classlamina_1_1Solver.html#a98c1deb6c83bba6190f3de6e1f61abfc" target="_top" xlink:title="计算消元理想，消去前 elim_count 个变量。">
<polygon fill="white" stroke="#666666" points="708,-174 559,-174 559,-144 708,-144 708,-174"/>
<text text-anchor="start" x="567" y="-162" font-family="Helvetica,sans-Serif" font-size="10.00">lamina::Solver::elimination</text>
<text text-anchor="middle" x="633.5" y="-151" font-family="Helvetica,sans-Serif" font-size="10.00">_ideal</text>
</a>
</g>
</g>
<!-- Node1&#45;&gt;Node2 -->
<g id="edge1_Node000001_Node000002" class="edge">
<title>Node1&#45;&gt;Node2</title>
<g id="a_edge1_Node000001_Node000002"><a xlink:title=" ">
<path fill="none" stroke="#63b8ff" d="M784.28,-105.84C761.44,-114.96 733.4,-125.89 708,-135 699.66,-137.99 690.74,-141.04 682.08,-143.91"/>
<polygon fill="#63b8ff" stroke="#63b8ff" points="785.74,-109.02 793.72,-102.05 783.14,-102.53 785.74,-109.02"/>
</a>
</g>
</g>
<!-- Node3 -->
<g id="Node000003" class="node">
<title>Node3</title>
<g id="a_Node000003"><a xlink:href="../../d5/d6f/classlamina_1_1Solver.html#a3577f49f32dd47a233ff7159fb4cf328" target="_top" xlink:title="计算多项式集合的 Gröbner 基。">
<polygon fill="white" stroke="#666666" points="702,-126 565,-126 565,-96 702,-96 702,-126"/>
<text text-anchor="start" x="573" y="-114" font-family="Helvetica,sans-Serif" font-size="10.00">lamina::Solver::groebner</text>
<text text-anchor="middle" x="633.5" y="-103" font-family="Helvetica,sans-Serif" font-size="10.00">_basis</text>
</a>
</g>
</g>
<!-- Node1&#45;&gt;Node3 -->
<g id="edge2_Node000001_Node000003" class="edge">
<title>Node1&#45;&gt;Node3</title>
<g id="a_edge2_Node000001_Node000003"><a xlink:title=" ">
<path fill="none" stroke="#63b8ff" d="M733.71,-98.85C723,-100.16 712.27,-101.48 702.03,-102.73"/>
<polygon fill="#63b8ff" stroke="#63b8ff" points="734.46,-102.29 743.96,-97.6 733.61,-95.34 734.46,-102.29"/>
</a>
</g>
</g>
<!-- Node8 -->
<g id="Node000008" class="node">
<title>Node8</title>
<g id="a_Node000008"><a xlink:href="../../d5/d6f/classlamina_1_1Solver.html#ac5414698ae46e391fd33de7368bfe782" target="_top" xlink:title="判断多项式是否属于给定 Gröbner 基生成的理想。">
<polygon fill="white" stroke="#666666" points="692,-78 575,-78 575,-48 692,-48 692,-78"/>
<text text-anchor="start" x="583" y="-66" font-family="Helvetica,sans-Serif" font-size="10.00">lamina::Solver::ideal</text>
<text text-anchor="middle" x="633.5" y="-55" font-family="Helvetica,sans-Serif" font-size="10.00">_membership</text>
</a>
</g>
</g>
<!-- Node1&#45;&gt;Node8 -->
<g id="edge7_Node000001_Node000008" class="edge">
<title>Node1&#45;&gt;Node8</title>
<g id="a_edge7_Node000001_Node000008"><a xlink:title=" ">
<path fill="none" stroke="#63b8ff" d="M733.65,-75.14C719.45,-73.4 705.22,-71.66 692.15,-70.06"/>
<polygon fill="#63b8ff" stroke="#63b8ff" points="733.61,-78.66 743.96,-76.4 734.46,-71.71 733.61,-78.66"/>
</a>
</g>
</g>
<!-- Node9 -->
<g id="Node000009" class="node">
<title>Node9</title>
<g id="a_Node000009"><a xlink:href="../../d5/d6f/classlamina_1_1Solver.html#acde68b23b113ba44f031fd7e2342cd9d" target="_top" xlink:title="计算约化 Gröbner 基。">
<polygon fill="white" stroke="#666666" points="699.5,-30 567.5,-30 567.5,0 699.5,0 699.5,-30"/>
<text text-anchor="start" x="575.5" y="-18" font-family="Helvetica,sans-Serif" font-size="10.00">lamina::Solver::reduced</text>
<text text-anchor="middle" x="633.5" y="-7" font-family="Helvetica,sans-Serif" font-size="10.00">_groebner_basis</text>
</a>
</g>
</g>
<!-- Node1&#45;&gt;Node9 -->
<g id="edge8_Node000001_Node000009" class="edge">
<title>Node1&#45;&gt;Node9</title>
<g id="a_edge8_Node000001_Node000009"><a xlink:title=" ">
<path fill="none" stroke="#63b8ff" d="M784.28,-68.16C761.44,-59.04 733.4,-48.11 708,-39 699.66,-36.01 690.74,-32.96 682.08,-30.09"/>
<polygon fill="#63b8ff" stroke="#63b8ff" points="783.14,-71.47 793.72,-71.95 785.74,-64.98 783.14,-71.47"/>
</a>
</g>
</g>
<!-- Node4 -->
<g id="Node000004" class="node">
<title>Node4</title>
<g id="a_Node000004"><a xlink:href="../../d6/da9/classlamina_1_1ParametricSolver.html#a41d42755b42e64784e9bc7c7f6f5715f" target="_top" xlink:title="求解关于未知数为多项式的含参方程组">
<polygon fill="white" stroke="#666666" points="523,-126 356,-126 356,-96 523,-96 523,-126"/>
<text text-anchor="start" x="364" y="-114" font-family="Helvetica,sans-Serif" font-size="10.00">lamina::ParametricSolver</text>
<text text-anchor="middle" x="439.5" y="-103" font-family="Helvetica,sans-Serif" font-size="10.00">::solve_polynomial_parametric</text>
</a>
</g>
</g>
<!-- Node3&#45;&gt;Node4 -->
<g id="edge3_Node000003_Node000004" class="edge">
<title>Node3&#45;&gt;Node4</title>
<g id="a_edge3_Node000003_Node000004"><a xlink:title=" ">
<path fill="none" stroke="#63b8ff" d="M554.55,-111C544.18,-111 533.51,-111 523.07,-111"/>
<polygon fill="#63b8ff" stroke="#63b8ff" points="554.81,-114.5 564.81,-111 554.81,-107.5 554.81,-114.5"/>
</a>
</g>
</g>
<!-- Node5 -->
<g id="Node000005" class="node">
<title>Node5</title>
<g id="a_Node000005"><a xlink:href="../../d6/da9/classlamina_1_1ParametricSolver.html#a74760afed4b871db5baef1d0c7eef09e" target="_top" xlink:title="求解含参方程组，返回所有解">
<polygon fill="white" stroke="#666666" points="320,-126 180,-126 180,-96 320,-96 320,-126"/>
<text text-anchor="start" x="188" y="-114" font-family="Helvetica,sans-Serif" font-size="10.00">lamina::ParametricSolver</text>
<text text-anchor="middle" x="250" y="-103" font-family="Helvetica,sans-Serif" font-size="10.00">::solve_system</text>
</a>
</g>
</g>
<!-- Node4&#45;&gt;Node5 -->
<g id="edge4_Node000004_Node000005" class="edge">
<title>Node4&#45;&gt;Node5</title>
<g id="a_edge4_Node000004_Node000005"><a xlink:title=" ">
<path fill="none" stroke="#63b8ff" d="M345.83,-111C337.16,-111 328.48,-111 320.08,-111"/>
<polygon fill="#63b8ff" stroke="#63b8ff" points="345.99,-114.5 355.99,-111 345.99,-107.5 345.99,-114.5"/>
</a>
</g>
</g>
<!-- Node6 -->
<g id="Node000006" class="node">
<title>Node6</title>
<g id="a_Node000006"><a xlink:href="../../dc/d25/classSymbolicExpr.html#af7245cd8dd9c4c7f7f00d3772bbbecb3" target="_top" xlink:title="求解含参数的方程组。">
<polygon fill="white" stroke="#666666" points="130,-150 14,-150 14,-120 130,-120 130,-150"/>
<text text-anchor="start" x="22" y="-138" font-family="Helvetica,sans-Serif" font-size="10.00">SymbolicExpr::solve</text>
<text text-anchor="middle" x="72" y="-127" font-family="Helvetica,sans-Serif" font-size="10.00">_system</text>
</a>
</g>
</g>
<!-- Node5&#45;&gt;Node6 -->
<g id="edge5_Node000005_Node000006" class="edge">
<title>Node5&#45;&gt;Node6</title>
<g id="a_edge5_Node000005_Node000006"><a xlink:title=" ">
<path fill="none" stroke="#63b8ff" d="M169.82,-121.8C156.47,-123.62 142.86,-125.47 130.21,-127.2"/>
<polygon fill="#63b8ff" stroke="#63b8ff" points="170.51,-125.24 179.95,-120.42 169.56,-118.3 170.51,-125.24"/>
</a>
</g>
</g>
<!-- Node7 -->
<g id="Node000007" class="node">
<title>Node7</title>
<g id="a_Node000007"><a xlink:href="../../d6/da9/classlamina_1_1ParametricSolver.html#aee41c6cf8efdfc5c7485cd104981d95b" target="_top" xlink:title="求解含参方程组，返回按参数条件分段的解">
<polygon fill="white" stroke="#666666" points="144,-102 0,-102 0,-72 144,-72 144,-102"/>
<text text-anchor="start" x="8" y="-90" font-family="Helvetica,sans-Serif" font-size="10.00">lamina::ParametricSolver</text>
<text text-anchor="middle" x="72" y="-79" font-family="Helvetica,sans-Serif" font-size="10.00">::solve_system_piecewise</text>
</a>
</g>
</g>
<!-- Node5&#45;&gt;Node7 -->
<g id="edge6_Node000005_Node000007" class="edge">
<title>Node5&#45;&gt;Node7</title>
<g id="a_edge6_Node000005_Node000007"><a xlink:title=" ">
<path fill="none" stroke="#63b8ff" d="M169.94,-100.22C161.35,-99.05 152.65,-97.86 144.17,-96.71"/>
<polygon fill="#63b8ff" stroke="#63b8ff" points="169.56,-103.7 179.95,-101.58 170.51,-96.76 169.56,-103.7"/>
</a>
</g>
</g>
</g>
</svg>
