<?xml version="1.0" encoding="UTF-8" standalone="no"?>
<!DOCTYPE svg PUBLIC "-//W3C//DTD SVG 1.1//EN"
 "http://www.w3.org/Graphics/SVG/1.1/DTD/svg11.dtd">
<!-- Generated by graphviz version 2.43.0 (0)
 -->
<!-- Title: lamina::anonymous_namespace{solver::cpp}::coprime_leading_monomials Pages: 1 -->
<svg width="394pt" height="86pt"
 viewBox="0.00 0.00 394.00 86.00" xmlns="http://www.w3.org/2000/svg" xmlns:xlink="http://www.w3.org/1999/xlink">
<g id="graph0" class="graph" transform="scale(1 1) rotate(0) translate(4 82)">
<title>lamina::anonymous_namespace{solver::cpp}::coprime_leading_monomials</title>
<!-- Node1 -->
<g id="Node000001" class="node">
<title>Node1</title>
<g id="a_Node000001"><a xlink:title=" ">
<polygon fill="#999999" stroke="#666666" points="175,-59.5 0,-59.5 0,-18.5 175,-18.5 175,-59.5"/>
<text text-anchor="start" x="8" y="-47.5" font-family="Helvetica,sans-Serif" font-size="10.00">lamina::anonymous_namespace</text>
<text text-anchor="start" x="8" y="-36.5" font-family="Helvetica,sans-Serif" font-size="10.00">{solver::cpp}::coprime_leading</text>
<text text-anchor="middle" x="87.5" y="-25.5" font-family="Helvetica,sans-Serif" font-size="10.00">_monomials</text>
</a>
</g>
</g>
<!-- Node2 -->
<g id="Node000002" class="node">
<title>Node2</title>
<g id="a_Node000002"><a xlink:href="../../dc/d69/structlamina_1_1anonymous__namespace_02solver_8cpp_03_1_1Poly.html#a6252a029b346feeefa2ce3826c77d759" target="_top" xlink:title=" ">
<polygon fill="white" stroke="#666666" points="386,-78 211,-78 211,-48 386,-48 386,-78"/>
<text text-anchor="start" x="219" y="-66" font-family="Helvetica,sans-Serif" font-size="10.00">lamina::anonymous_namespace</text>
<text text-anchor="middle" x="298.5" y="-55" font-family="Helvetica,sans-Serif" font-size="10.00">{solver::cpp}::Poly::is_zero</text>
</a>
</g>
</g>
<!-- Node1&#45;&gt;Node2 -->
<g id="edge1_Node000001_Node000002" class="edge">
<title>Node1&#45;&gt;Node2</title>
<g id="a_edge1_Node000001_Node000002"><a xlink:title=" ">
<path fill="none" stroke="#63b8ff" d="M175.02,-48.93C183.49,-49.91 192.13,-50.9 200.7,-51.88"/>
<polygon fill="#63b8ff" stroke="#63b8ff" points="200.38,-55.37 210.71,-53.03 201.18,-48.42 200.38,-55.37"/>
</a>
</g>
</g>
<!-- Node3 -->
<g id="Node000003" class="node">
<title>Node3</title>
<g id="a_Node000003"><a xlink:href="../../dc/d69/structlamina_1_1anonymous__namespace_02solver_8cpp_03_1_1Poly.html#a3e2a9510b391265f84a519acd4a61177" target="_top" xlink:title=" ">
<polygon fill="white" stroke="#666666" points="386,-30 211,-30 211,0 386,0 386,-30"/>
<text text-anchor="start" x="219" y="-18" font-family="Helvetica,sans-Serif" font-size="10.00">lamina::anonymous_namespace</text>
<text text-anchor="middle" x="298.5" y="-7" font-family="Helvetica,sans-Serif" font-size="10.00">{solver::cpp}::Poly::LM</text>
</a>
</g>
</g>
<!-- Node1&#45;&gt;Node3 -->
<g id="edge2_Node000001_Node000003" class="edge">
<title>Node1&#45;&gt;Node3</title>
<g id="a_edge2_Node000001_Node000003"><a xlink:title=" ">
<path fill="none" stroke="#63b8ff" d="M175.02,-29.07C183.49,-28.09 192.13,-27.1 200.7,-26.12"/>
<polygon fill="#63b8ff" stroke="#63b8ff" points="201.18,-29.58 210.71,-24.97 200.38,-22.63 201.18,-29.58"/>
</a>
</g>
</g>
</g>
</svg>
