<?xml version="1.0" encoding="UTF-8" standalone="no"?>
<!DOCTYPE svg PUBLIC "-//W3C//DTD SVG 1.1//EN"
 "http://www.w3.org/Graphics/SVG/1.1/DTD/svg11.dtd">
<!-- Generated by graphviz version 2.43.0 (0)
 -->
<!-- Title: lamina::anonymous_namespace{solver::cpp}::mul_poly Pages: 1 -->
<svg width="394pt" height="86pt"
 viewBox="0.00 0.00 394.00 86.00" xmlns="http://www.w3.org/2000/svg" xmlns:xlink="http://www.w3.org/1999/xlink">
<g id="graph0" class="graph" transform="scale(1 1) rotate(0) translate(4 82)">
<title>lamina::anonymous_namespace{solver::cpp}::mul_poly</title>
<!-- Node1 -->
<g id="Node000001" class="node">
<title>Node1</title>
<g id="a_Node000001"><a xlink:title=" ">
<polygon fill="#999999" stroke="#666666" points="386,-54 211,-54 211,-24 386,-24 386,-54"/>
<text text-anchor="start" x="219" y="-42" font-family="Helvetica,sans-Serif" font-size="10.00">lamina::anonymous_namespace</text>
<text text-anchor="middle" x="298.5" y="-31" font-family="Helvetica,sans-Serif" font-size="10.00">{solver::cpp}::mul_poly</text>
</a>
</g>
</g>
<!-- Node1&#45;&gt;Node1 -->
<g id="edge1_Node000001_Node000001" class="edge">
<title>Node1&#45;&gt;Node1</title>
<g id="a_edge1_Node000001_Node000001"><a xlink:title=" ">
<path fill="none" stroke="#63b8ff" d="M335.26,-64.6C330.24,-68.97 317.98,-72 298.5,-72 265.69,-72 253.38,-63.41 261.59,-54.28"/>
<polygon fill="#63b8ff" stroke="#63b8ff" points="338.76,-64.33 335.41,-54.28 331.76,-64.22 338.76,-64.33"/>
</a>
</g>
</g>
<!-- Node2 -->
<g id="Node000002" class="node">
<title>Node2</title>
<g id="a_Node000002"><a xlink:href="../../d7/d8e/classlamina_1_1anonymous__namespace_02solver_8cpp_03_1_1PolyBuilder.html#a1664f384d4290c3757b8cee1d58a6766" target="_top" xlink:title=" ">
<polygon fill="white" stroke="#666666" points="175,-78 0,-78 0,-48 175,-48 175,-78"/>
<text text-anchor="start" x="8" y="-66" font-family="Helvetica,sans-Serif" font-size="10.00">lamina::anonymous_namespace</text>
<text text-anchor="middle" x="87.5" y="-55" font-family="Helvetica,sans-Serif" font-size="10.00">{solver::cpp}::PolyBuilder::visit</text>
</a>
</g>
</g>
<!-- Node1&#45;&gt;Node2 -->
<g id="edge2_Node000001_Node000002" class="edge">
<title>Node1&#45;&gt;Node2</title>
<g id="a_edge2_Node000001_Node000002"><a xlink:title=" ">
<path fill="none" stroke="#63b8ff" d="M200.97,-50.08C192.41,-51.07 183.77,-52.06 175.29,-53.03"/>
<polygon fill="#63b8ff" stroke="#63b8ff" points="201.45,-53.55 210.98,-48.93 200.65,-46.6 201.45,-53.55"/>
</a>
</g>
</g>
<!-- Node3 -->
<g id="Node000003" class="node">
<title>Node3</title>
<g id="a_Node000003"><a xlink:href="../../d7/d8e/classlamina_1_1anonymous__namespace_02solver_8cpp_03_1_1PolyBuilder.html#a717479cb18d3c0126bb45fdca5609ecb" target="_top" xlink:title=" ">
<polygon fill="white" stroke="#666666" points="175,-30 0,-30 0,0 175,0 175,-30"/>
<text text-anchor="start" x="8" y="-18" font-family="Helvetica,sans-Serif" font-size="10.00">lamina::anonymous_namespace</text>
<text text-anchor="middle" x="87.5" y="-7" font-family="Helvetica,sans-Serif" font-size="10.00">{solver::cpp}::PolyBuilder::visit</text>
</a>
</g>
</g>
<!-- Node1&#45;&gt;Node3 -->
<g id="edge3_Node000001_Node000003" class="edge">
<title>Node1&#45;&gt;Node3</title>
<g id="a_edge3_Node000001_Node000003"><a xlink:title=" ">
<path fill="none" stroke="#63b8ff" d="M200.97,-27.92C192.41,-26.93 183.77,-25.94 175.29,-24.97"/>
<polygon fill="#63b8ff" stroke="#63b8ff" points="200.65,-31.4 210.98,-29.07 201.45,-24.45 200.65,-31.4"/>
</a>
</g>
</g>
</g>
</svg>
