<?xml version="1.0" encoding="UTF-8" standalone="no"?>
<!DOCTYPE svg PUBLIC "-//W3C//DTD SVG 1.1//EN"
 "http://www.w3.org/Graphics/SVG/1.1/DTD/svg11.dtd">
<!-- Generated by graphviz version 2.43.0 (0)
 -->
<!-- Title: SubstituteVisitor Pages: 1 -->
<!--zoomable 1547 -->

<svg id="main" version="1.1" xmlns="http://www.w3.org/2000/svg" xmlns:xlink="http://www.w3.org/1999/xlink" xml:space="preserve" onload="init(evt)">
<style type="text/css"><![CDATA[
.node, .edge {opacity: 0.7;}
.node.selected, .edge.selected {opacity: 1;}
.edge:hover path { stroke: red; }
.edge:hover polygon { stroke: red; fill: red; }
]]></style>

<defs>
  <circle id="rim" cx="0" cy="0" r="7"/>
  <circle id="rim2" cx="0" cy="0" r="3.5"/>
  <g id="zoomPlus">
    <use xlink:href="#rim" fill="#404040"><set attributeName="fill" to="#808080" begin="zoomplus.mouseover" end="zoomplus.mouseout"/></use>
    <path d="M-4,0h8M0,-4v8" fill="none" stroke="white" stroke-width="1.5" pointer-events="none"/>
  </g>
  <g id="zoomMin">
    <use xlink:href="#rim" fill="#404040"><set attributeName="fill" to="#808080" begin="zoomminus.mouseover" end="zoomminus.mouseout"/></use>
    <path d="M-4,0h8" fill="none" stroke="white" stroke-width="1.5" pointer-events="none"/>
  </g>
  <g id="arrowUp" transform="translate(30 24)">
    <use xlink:href="#rim"/>
    <path pointer-events="none" fill="none" stroke="white" stroke-width="1.5" d="M0,-3.0v7 M-2.5,-0.5L0,-3.0L2.5,-0.5"/>
  </g>
  <g id="arrowRight" transform="rotate(90) translate(36 -43)">
    <use xlink:href="#rim"/>
    <path pointer-events="none" fill="none" stroke="white" stroke-width="1.5" d="M0,-3.0v7 M-2.5,-0.5L0,-3.0L2.5,-0.5"/>
  </g>
  <g id="arrowDown" transform="rotate(180) translate(-30 -48)">
    <use xlink:href="#rim"/>
    <path pointer-events="none" fill="none" stroke="white" stroke-width="1.5" d="M0,-3.0v7 M-2.5,-0.5L0,-3.0L2.5,-0.5"/>
  </g>
  <g id="arrowLeft" transform="rotate(270) translate(-36 17)">
    <use xlink:href="#rim"/>
    <path pointer-events="none" fill="none" stroke="white" stroke-width="1.5" d="M0,-3.0v7 M-2.5,-0.5L0,-3.0L2.5,-0.5"/>
  </g>
  <g id="resetDef">
    <use xlink:href="#rim2" fill="#404040"><set attributeName="fill" to="#808080" begin="reset.mouseover" end="reset.mouseout"/></use>
  </g>
</defs>
<script type="application/ecmascript">
var viewWidth = 572;
var viewHeight = 1547;
var sectionId = 'dynsection-1';
</script>
<script type="application/ecmascript" xlink:href="../../svg.min.js"/>
<svg id="graph" class="graph">
<g id="viewport">
<title>SubstituteVisitor</title>
<!-- Node1 -->
<g id="Node000001" class="node">
<title>Node1</title>
<g id="a_Node000001"><a xlink:title=" ">
<polygon fill="#999999" stroke="transparent" points="273,-342 112,-342 112,0 273,0 273,-342"/>
<text text-anchor="start" x="152" y="-330" font-family="Helvetica,sans-Serif" font-size="10.00">SubstituteVisitor</text>
<text text-anchor="start" x="191" y="-315" font-family="Helvetica,sans-Serif" font-size="10.00"> </text>
<text text-anchor="start" x="116.5" y="-300" font-family="Helvetica,sans-Serif" font-size="10.00">+</text>
<text text-anchor="start" x="129.5" y="-300" font-family="Helvetica,sans-Serif" font-size="10.00">SubstituteVisitor</text>
<text text-anchor="start" x="129.5" y="-289" font-family="Helvetica,sans-Serif" font-size="10.00">(std::string v, std</text>
<text text-anchor="start" x="129.5" y="-278" font-family="Helvetica,sans-Serif" font-size="10.00">::shared_ptr&lt; SymbolicNode</text>
<text text-anchor="start" x="129.5" y="-267" font-family="Helvetica,sans-Serif" font-size="10.00"> &gt; val)</text>
<text text-anchor="start" x="116.5" y="-252" font-family="Helvetica,sans-Serif" font-size="10.00">+</text>
<text text-anchor="start" x="129.5" y="-252" font-family="Helvetica,sans-Serif" font-size="10.00">std::shared_ptr&lt; Symbolic</text>
<text text-anchor="start" x="129.5" y="-241" font-family="Helvetica,sans-Serif" font-size="10.00">Node &gt; get_result() const</text>
<text text-anchor="start" x="116.5" y="-226" font-family="Helvetica,sans-Serif" font-size="10.00">+</text>
<text text-anchor="start" x="129.5" y="-226" font-family="Helvetica,sans-Serif" font-size="10.00">void visit(AddNode</text>
<text text-anchor="start" x="129.5" y="-215" font-family="Helvetica,sans-Serif" font-size="10.00"> &amp;node) override</text>
<text text-anchor="start" x="116.5" y="-200" font-family="Helvetica,sans-Serif" font-size="10.00">+</text>
<text text-anchor="start" x="129.5" y="-200" font-family="Helvetica,sans-Serif" font-size="10.00">void visit(FunctionNode</text>
<text text-anchor="start" x="129.5" y="-189" font-family="Helvetica,sans-Serif" font-size="10.00"> &amp;node) override</text>
<text text-anchor="start" x="116.5" y="-174" font-family="Helvetica,sans-Serif" font-size="10.00">+</text>
<text text-anchor="start" x="129.5" y="-174" font-family="Helvetica,sans-Serif" font-size="10.00">void visit(LogicalNode</text>
<text text-anchor="start" x="129.5" y="-163" font-family="Helvetica,sans-Serif" font-size="10.00"> &amp;node) override</text>
<text text-anchor="start" x="116.5" y="-148" font-family="Helvetica,sans-Serif" font-size="10.00">+</text>
<text text-anchor="start" x="129.5" y="-148" font-family="Helvetica,sans-Serif" font-size="10.00">void visit(MatrixNode</text>
<text text-anchor="start" x="129.5" y="-137" font-family="Helvetica,sans-Serif" font-size="10.00"> &amp;node) override</text>
<text text-anchor="start" x="116.5" y="-122" font-family="Helvetica,sans-Serif" font-size="10.00">+</text>
<text text-anchor="start" x="129.5" y="-122" font-family="Helvetica,sans-Serif" font-size="10.00">void visit(MultiplyNode</text>
<text text-anchor="start" x="129.5" y="-111" font-family="Helvetica,sans-Serif" font-size="10.00"> &amp;node) override</text>
<text text-anchor="start" x="116.5" y="-96" font-family="Helvetica,sans-Serif" font-size="10.00">+</text>
<text text-anchor="start" x="129.5" y="-96" font-family="Helvetica,sans-Serif" font-size="10.00">void visit(NumberNode</text>
<text text-anchor="start" x="129.5" y="-85" font-family="Helvetica,sans-Serif" font-size="10.00"> &amp;node) override</text>
<text text-anchor="start" x="116.5" y="-70" font-family="Helvetica,sans-Serif" font-size="10.00">+</text>
<text text-anchor="start" x="129.5" y="-70" font-family="Helvetica,sans-Serif" font-size="10.00">void visit(PowerNode</text>
<text text-anchor="start" x="129.5" y="-59" font-family="Helvetica,sans-Serif" font-size="10.00"> &amp;node) override</text>
<text text-anchor="start" x="116.5" y="-44" font-family="Helvetica,sans-Serif" font-size="10.00">+</text>
<text text-anchor="start" x="129.5" y="-44" font-family="Helvetica,sans-Serif" font-size="10.00">void visit(RelationalNode</text>
<text text-anchor="start" x="129.5" y="-33" font-family="Helvetica,sans-Serif" font-size="10.00"> &amp;node) override</text>
<text text-anchor="start" x="116.5" y="-18" font-family="Helvetica,sans-Serif" font-size="10.00">+</text>
<text text-anchor="start" x="129.5" y="-18" font-family="Helvetica,sans-Serif" font-size="10.00">void visit(VariableNode</text>
<text text-anchor="start" x="129.5" y="-7" font-family="Helvetica,sans-Serif" font-size="10.00"> &amp;node) override</text>
<polygon fill="#666666" stroke="#666666" points="112.5,-325 112.5,-325 273.5,-325 273.5,-325 112.5,-325"/>
<polygon fill="#666666" stroke="#666666" points="112.5,-310 112.5,-310 273.5,-310 273.5,-310 112.5,-310"/>
<polygon fill="none" stroke="#666666" points="112,0 112,-342 273,-342 273,0 112,0"/>
</a>
</g>
</g>
<!-- Node2 -->
<g id="Node000002" class="node">
<title>Node2</title>
<g id="a_Node000002"><a xlink:href="../../da/dcb/classSymbolicVisitor.html" target="_top" xlink:title="AST 访问者基类（Visitor 模式）。">
<polygon fill="white" stroke="transparent" points="145,-694 0,-694 0,-400 145,-400 145,-694"/>
<text text-anchor="start" x="34.5" y="-682" font-family="Helvetica,sans-Serif" font-size="10.00">SymbolicVisitor</text>
<text text-anchor="start" x="71" y="-667" font-family="Helvetica,sans-Serif" font-size="10.00"> </text>
<text text-anchor="start" x="4.5" y="-652" font-family="Helvetica,sans-Serif" font-size="10.00">+</text>
<text text-anchor="start" x="17.5" y="-652" font-family="Helvetica,sans-Serif" font-size="10.00">virtual ~SymbolicVisitor</text>
<text text-anchor="start" x="17.5" y="-641" font-family="Helvetica,sans-Serif" font-size="10.00">()=default</text>
<text text-anchor="start" x="4.5" y="-626" font-family="Helvetica,sans-Serif" font-size="10.00">+</text>
<text text-anchor="start" x="17.5" y="-626" font-family="Helvetica,sans-Serif" font-size="10.00">virtual void visit</text>
<text text-anchor="start" x="17.5" y="-615" font-family="Helvetica,sans-Serif" font-size="10.00">(AddNode &amp;node)=0</text>
<text text-anchor="start" x="4.5" y="-600" font-family="Helvetica,sans-Serif" font-size="10.00">+</text>
<text text-anchor="start" x="17.5" y="-600" font-family="Helvetica,sans-Serif" font-size="10.00">virtual void visit</text>
<text text-anchor="start" x="17.5" y="-589" font-family="Helvetica,sans-Serif" font-size="10.00">(FunctionNode &amp;node)=0</text>
<text text-anchor="start" x="4.5" y="-574" font-family="Helvetica,sans-Serif" font-size="10.00">+</text>
<text text-anchor="start" x="17.5" y="-574" font-family="Helvetica,sans-Serif" font-size="10.00">virtual void visit</text>
<text text-anchor="start" x="17.5" y="-563" font-family="Helvetica,sans-Serif" font-size="10.00">(LogicalNode &amp;node)</text>
<text text-anchor="start" x="4.5" y="-548" font-family="Helvetica,sans-Serif" font-size="10.00">+</text>
<text text-anchor="start" x="17.5" y="-548" font-family="Helvetica,sans-Serif" font-size="10.00">virtual void visit</text>
<text text-anchor="start" x="17.5" y="-537" font-family="Helvetica,sans-Serif" font-size="10.00">(MatrixNode &amp;node)=0</text>
<text text-anchor="start" x="4.5" y="-522" font-family="Helvetica,sans-Serif" font-size="10.00">+</text>
<text text-anchor="start" x="17.5" y="-522" font-family="Helvetica,sans-Serif" font-size="10.00">virtual void visit</text>
<text text-anchor="start" x="17.5" y="-511" font-family="Helvetica,sans-Serif" font-size="10.00">(MultiplyNode &amp;node)=0</text>
<text text-anchor="start" x="4.5" y="-496" font-family="Helvetica,sans-Serif" font-size="10.00">+</text>
<text text-anchor="start" x="17.5" y="-496" font-family="Helvetica,sans-Serif" font-size="10.00">virtual void visit</text>
<text text-anchor="start" x="17.5" y="-485" font-family="Helvetica,sans-Serif" font-size="10.00">(NumberNode &amp;node)=0</text>
<text text-anchor="start" x="4.5" y="-470" font-family="Helvetica,sans-Serif" font-size="10.00">+</text>
<text text-anchor="start" x="17.5" y="-470" font-family="Helvetica,sans-Serif" font-size="10.00">virtual void visit</text>
<text text-anchor="start" x="17.5" y="-459" font-family="Helvetica,sans-Serif" font-size="10.00">(PowerNode &amp;node)=0</text>
<text text-anchor="start" x="4.5" y="-444" font-family="Helvetica,sans-Serif" font-size="10.00">+</text>
<text text-anchor="start" x="17.5" y="-444" font-family="Helvetica,sans-Serif" font-size="10.00">virtual void visit</text>
<text text-anchor="start" x="17.5" y="-433" font-family="Helvetica,sans-Serif" font-size="10.00">(RelationalNode &amp;node)</text>
<text text-anchor="start" x="4.5" y="-418" font-family="Helvetica,sans-Serif" font-size="10.00">+</text>
<text text-anchor="start" x="17.5" y="-418" font-family="Helvetica,sans-Serif" font-size="10.00">virtual void visit</text>
<text text-anchor="start" x="17.5" y="-407" font-family="Helvetica,sans-Serif" font-size="10.00">(VariableNode &amp;node)=0</text>
<polygon fill="#666666" stroke="#666666" points="0.5,-677 0.5,-677 145.5,-677 145.5,-677 0.5,-677"/>
<polygon fill="#666666" stroke="#666666" points="0.5,-662 0.5,-662 145.5,-662 145.5,-662 0.5,-662"/>
<polygon fill="none" stroke="#666666" points="0,-400 0,-694 145,-694 145,-400 0,-400"/>
</a>
</g>
</g>
<!-- Node2&#45;&gt;Node1 -->
<g id="edge1_Node000001_Node000002" class="edge">
<title>Node2&#45;&gt;Node1</title>
<g id="a_edge1_Node000001_Node000002"><a xlink:title=" ">
<path fill="none" stroke="#63b8ff" d="M122.56,-389.98C127.64,-374.13 132.82,-357.99 137.95,-342.01"/>
<polygon fill="none" stroke="#63b8ff" points="119.13,-389.2 119.41,-399.79 125.8,-391.34 119.13,-389.2"/>
</a>
</g>
</g>
<!-- Node3 -->
<g id="Node000003" class="node">
<title>Node3</title>
<g id="a_Node000003"><a xlink:title=" ">
<polygon fill="white" stroke="transparent" points="84,-1007 61,-1007 61,-958 84,-958 84,-1007"/>
<text text-anchor="start" x="66.5" y="-994.5" font-family="Helvetica,sans-Serif" font-size="10.00">int</text>
<text text-anchor="start" x="71" y="-979.5" font-family="Helvetica,sans-Serif" font-size="10.00"> </text>
<text text-anchor="start" x="71" y="-964.5" font-family="Helvetica,sans-Serif" font-size="10.00"> </text>
<polygon fill="#666666" stroke="#666666" points="61.5,-989.5 61.5,-989.5 84.5,-989.5 84.5,-989.5 61.5,-989.5"/>
<polygon fill="#666666" stroke="#666666" points="61.5,-974.5 61.5,-974.5 84.5,-974.5 84.5,-974.5 61.5,-974.5"/>
<polygon fill="none" stroke="#666666" points="61,-958 61,-1007 84,-1007 84,-958 61,-958"/>
</a>
</g>
</g>
<!-- Node3&#45;&gt;Node2 -->
<g id="edge2_Node000002_Node000003" class="edge">
<title>Node3&#45;&gt;Node2</title>
<g id="a_edge2_Node000002_Node000003"><a xlink:title=" ">
<path fill="none" stroke="#63b8ff" d="M72.5,-957.89C72.5,-910.58 72.5,-800.65 72.5,-706.53"/>
<polygon fill="none" stroke="#63b8ff" points="72.5,-706.25 68.5,-700.25 72.5,-694.25 76.5,-700.25 72.5,-706.25"/>
</a>
</g>
<text text-anchor="middle" x="110.5" y="-726" font-family="Helvetica,sans-Serif" font-size="10.00" fill="grey"> #MAX_DEPTH</text>
<text text-anchor="middle" x="110.5" y="-715" font-family="Helvetica,sans-Serif" font-size="10.00" fill="grey">#current_depth</text>
</g>
<!-- Node4 -->
<g id="Node000004" class="node">
<title>Node4</title>
<g id="a_Node000004"><a xlink:title=" ">
<polygon fill="white" stroke="transparent" points="222,-571.5 163,-571.5 163,-522.5 222,-522.5 222,-571.5"/>
<text text-anchor="start" x="168.5" y="-559" font-family="Helvetica,sans-Serif" font-size="10.00">std::string</text>
<text text-anchor="start" x="191" y="-544" font-family="Helvetica,sans-Serif" font-size="10.00"> </text>
<text text-anchor="start" x="191" y="-529" font-family="Helvetica,sans-Serif" font-size="10.00"> </text>
<polygon fill="#666666" stroke="#666666" points="163.5,-554 163.5,-554 222.5,-554 222.5,-554 163.5,-554"/>
<polygon fill="#666666" stroke="#666666" points="163.5,-539 163.5,-539 222.5,-539 222.5,-539 163.5,-539"/>
<polygon fill="none" stroke="#666666" points="163,-522.5 163,-571.5 222,-571.5 222,-522.5 163,-522.5"/>
</a>
</g>
</g>
<!-- Node4&#45;&gt;Node1 -->
<g id="edge3_Node000001_Node000004" class="edge">
<title>Node4&#45;&gt;Node1</title>
<g id="a_edge3_Node000001_Node000004"><a xlink:title=" ">
<path fill="none" stroke="#63b8ff" d="M192.5,-522.32C192.5,-487.93 192.5,-421.01 192.5,-354.8"/>
<polygon fill="none" stroke="#63b8ff" points="192.5,-354.45 188.5,-348.45 192.5,-342.45 196.5,-348.45 192.5,-354.45"/>
</a>
</g>
<text text-anchor="middle" x="220" y="-368.5" font-family="Helvetica,sans-Serif" font-size="10.00" fill="grey"> &#45;var_name</text>
</g>
<!-- Node5 -->
<g id="Node000005" class="node">
<title>Node5</title>
<g id="a_Node000005"><a xlink:title=" ">
<polygon fill="white" stroke="transparent" points="226.5,-1012.5 128.5,-1012.5 128.5,-952.5 226.5,-952.5 226.5,-1012.5"/>
<text text-anchor="start" x="133.5" y="-1000.5" font-family="Helvetica,sans-Serif" font-size="10.00">std::basic_string&lt;</text>
<text text-anchor="start" x="159" y="-989.5" font-family="Helvetica,sans-Serif" font-size="10.00"> Char &gt;</text>
<text text-anchor="start" x="175.5" y="-974.5" font-family="Helvetica,sans-Serif" font-size="10.00"> </text>
<text text-anchor="start" x="175.5" y="-959.5" font-family="Helvetica,sans-Serif" font-size="10.00"> </text>
<polygon fill="#666666" stroke="#666666" points="128.5,-984.5 128.5,-984.5 226.5,-984.5 226.5,-984.5 128.5,-984.5"/>
<polygon fill="#666666" stroke="#666666" points="128.5,-969.5 128.5,-969.5 226.5,-969.5 226.5,-969.5 128.5,-969.5"/>
<polygon fill="none" stroke="#666666" points="128.5,-952.5 128.5,-1012.5 226.5,-1012.5 226.5,-952.5 128.5,-952.5"/>
</a>
</g>
</g>
<!-- Node5&#45;&gt;Node4 -->
<g id="edge4_Node000004_Node000005" class="edge">
<title>Node5&#45;&gt;Node4</title>
<g id="a_edge4_Node000004_Node000005"><a xlink:title=" ">
<path fill="none" stroke="#63b8ff" d="M178.86,-942.26C181.91,-854.07 189.23,-642.39 191.69,-571.55"/>
<polygon fill="none" stroke="#63b8ff" points="175.36,-942.27 178.51,-952.38 182.35,-942.51 175.36,-942.27"/>
</a>
</g>
</g>
<!-- Node6 -->
<g id="Node000006" class="node">
<title>Node6</title>
<g id="a_Node000006"><a xlink:title=" ">
<polygon fill="white" stroke="transparent" points="418.5,-577 254.5,-577 254.5,-517 418.5,-517 418.5,-577"/>
<text text-anchor="start" x="271.5" y="-565" font-family="Helvetica,sans-Serif" font-size="10.00">std::shared_ptr&lt; Symbolic</text>
<text text-anchor="start" x="318" y="-554" font-family="Helvetica,sans-Serif" font-size="10.00">Node &gt;</text>
<text text-anchor="start" x="334.5" y="-539" font-family="Helvetica,sans-Serif" font-size="10.00"> </text>
<text text-anchor="start" x="258.5" y="-524" font-family="Helvetica,sans-Serif" font-size="10.00">+</text>
<text text-anchor="start" x="271.5" y="-524" font-family="Helvetica,sans-Serif" font-size="10.00">SymbolicNode * operator&#45;&gt;()</text>
<polygon fill="#666666" stroke="#666666" points="254.5,-549 254.5,-549 418.5,-549 418.5,-549 254.5,-549"/>
<polygon fill="#666666" stroke="#666666" points="254.5,-534 254.5,-534 418.5,-534 418.5,-534 254.5,-534"/>
<polygon fill="none" stroke="#666666" points="254.5,-517 254.5,-577 418.5,-577 418.5,-517 254.5,-517"/>
</a>
</g>
</g>
<!-- Node6&#45;&gt;Node1 -->
<g id="edge5_Node000001_Node000006" class="edge">
<title>Node6&#45;&gt;Node1</title>
<g id="a_edge5_Node000001_Node000006"><a xlink:title=" ">
<path fill="none" stroke="#63b8ff" d="M325.32,-516.96C311.51,-481.1 286.85,-417.06 262.5,-353.8"/>
<polygon fill="none" stroke="#63b8ff" points="262.43,-353.62 256.54,-349.46 258.12,-342.42 264.01,-346.59 262.43,-353.62"/>
</a>
</g>
<text text-anchor="middle" x="296" y="-374" font-family="Helvetica,sans-Serif" font-size="10.00" fill="grey"> +result</text>
<text text-anchor="middle" x="296" y="-363" font-family="Helvetica,sans-Serif" font-size="10.00" fill="grey">&#45;new_val</text>
</g>
<!-- Node7 -->
<g id="Node000007" class="node">
<title>Node7</title>
<g id="a_Node000007"><a xlink:href="../../dc/dc3/classSymbolicNode.html" target="_top" xlink:title="符号表达式 AST 节点基类。">
<polygon fill="white" stroke="transparent" points="428.5,-1213 244.5,-1213 244.5,-752 428.5,-752 428.5,-1213"/>
<text text-anchor="start" x="301" y="-1200.5" font-family="Helvetica,sans-Serif" font-size="10.00">SymbolicNode</text>
<text text-anchor="start" x="334.5" y="-1185.5" font-family="Helvetica,sans-Serif" font-size="10.00"> </text>
<text text-anchor="start" x="248.5" y="-1170.5" font-family="Helvetica,sans-Serif" font-size="10.00">+</text>
<text text-anchor="start" x="261.5" y="-1170.5" font-family="Helvetica,sans-Serif" font-size="10.00">virtual ~SymbolicNode</text>
<text text-anchor="start" x="261.5" y="-1159.5" font-family="Helvetica,sans-Serif" font-size="10.00">()=default</text>
<text text-anchor="start" x="248.5" y="-1144.5" font-family="Helvetica,sans-Serif" font-size="10.00">+</text>
<text text-anchor="start" x="261.5" y="-1144.5" font-family="Helvetica,sans-Serif" font-size="10.00">virtual void accept</text>
<text text-anchor="start" x="261.5" y="-1133.5" font-family="Helvetica,sans-Serif" font-size="10.00">(SymbolicVisitor &amp;visitor)=0</text>
<text text-anchor="start" x="248.5" y="-1118.5" font-family="Helvetica,sans-Serif" font-size="10.00">+</text>
<text text-anchor="start" x="261.5" y="-1118.5" font-family="Helvetica,sans-Serif" font-size="10.00">virtual std::shared</text>
<text text-anchor="start" x="261.5" y="-1107.5" font-family="Helvetica,sans-Serif" font-size="10.00">_ptr&lt; SymbolicNode &gt;</text>
<text text-anchor="start" x="261.5" y="-1096.5" font-family="Helvetica,sans-Serif" font-size="10.00"> clone() const =0</text>
<text text-anchor="start" x="248.5" y="-1081.5" font-family="Helvetica,sans-Serif" font-size="10.00">+</text>
<text text-anchor="start" x="261.5" y="-1081.5" font-family="Helvetica,sans-Serif" font-size="10.00">int compare(const Symbolic</text>
<text text-anchor="start" x="261.5" y="-1070.5" font-family="Helvetica,sans-Serif" font-size="10.00">Node &amp;other) const</text>
<text text-anchor="start" x="248.5" y="-1055.5" font-family="Helvetica,sans-Serif" font-size="10.00">+</text>
<text text-anchor="start" x="261.5" y="-1055.5" font-family="Helvetica,sans-Serif" font-size="10.00">bool equals(const Symbolic</text>
<text text-anchor="start" x="261.5" y="-1044.5" font-family="Helvetica,sans-Serif" font-size="10.00">Node &amp;other) const</text>
<text text-anchor="start" x="248.5" y="-1029.5" font-family="Helvetica,sans-Serif" font-size="10.00">+</text>
<text text-anchor="start" x="261.5" y="-1029.5" font-family="Helvetica,sans-Serif" font-size="10.00">std::size_t hash()</text>
<text text-anchor="start" x="261.5" y="-1018.5" font-family="Helvetica,sans-Serif" font-size="10.00"> const</text>
<text text-anchor="start" x="248.5" y="-1003.5" font-family="Helvetica,sans-Serif" font-size="10.00">+</text>
<text text-anchor="start" x="261.5" y="-1003.5" font-family="Helvetica,sans-Serif" font-size="10.00">virtual bool is_number</text>
<text text-anchor="start" x="261.5" y="-992.5" font-family="Helvetica,sans-Serif" font-size="10.00">() const</text>
<text text-anchor="start" x="248.5" y="-977.5" font-family="Helvetica,sans-Serif" font-size="10.00">+</text>
<text text-anchor="start" x="261.5" y="-977.5" font-family="Helvetica,sans-Serif" font-size="10.00">virtual bool is_one</text>
<text text-anchor="start" x="261.5" y="-966.5" font-family="Helvetica,sans-Serif" font-size="10.00">() const</text>
<text text-anchor="start" x="248.5" y="-951.5" font-family="Helvetica,sans-Serif" font-size="10.00">+</text>
<text text-anchor="start" x="261.5" y="-951.5" font-family="Helvetica,sans-Serif" font-size="10.00">virtual bool is_positive</text>
<text text-anchor="start" x="261.5" y="-940.5" font-family="Helvetica,sans-Serif" font-size="10.00">() const</text>
<text text-anchor="start" x="248.5" y="-925.5" font-family="Helvetica,sans-Serif" font-size="10.00">+</text>
<text text-anchor="start" x="261.5" y="-925.5" font-family="Helvetica,sans-Serif" font-size="10.00">virtual bool is_zero</text>
<text text-anchor="start" x="261.5" y="-914.5" font-family="Helvetica,sans-Serif" font-size="10.00">() const</text>
<text text-anchor="start" x="248.5" y="-899.5" font-family="Helvetica,sans-Serif" font-size="10.00">+</text>
<text text-anchor="start" x="261.5" y="-899.5" font-family="Helvetica,sans-Serif" font-size="10.00">virtual int type_priority</text>
<text text-anchor="start" x="261.5" y="-888.5" font-family="Helvetica,sans-Serif" font-size="10.00">() const =0</text>
<text text-anchor="start" x="248.5" y="-873.5" font-family="Helvetica,sans-Serif" font-size="10.00">#</text>
<text text-anchor="start" x="261.5" y="-873.5" font-family="Helvetica,sans-Serif" font-size="10.00">SymbolicNode()=default</text>
<text text-anchor="start" x="248.5" y="-858.5" font-family="Helvetica,sans-Serif" font-size="10.00">#</text>
<text text-anchor="start" x="261.5" y="-858.5" font-family="Helvetica,sans-Serif" font-size="10.00">SymbolicNode(const</text>
<text text-anchor="start" x="261.5" y="-847.5" font-family="Helvetica,sans-Serif" font-size="10.00"> SymbolicNode &amp;)</text>
<text text-anchor="start" x="248.5" y="-832.5" font-family="Helvetica,sans-Serif" font-size="10.00">#</text>
<text text-anchor="start" x="261.5" y="-832.5" font-family="Helvetica,sans-Serif" font-size="10.00">virtual int compare</text>
<text text-anchor="start" x="261.5" y="-821.5" font-family="Helvetica,sans-Serif" font-size="10.00">_same_type(const SymbolicNode</text>
<text text-anchor="start" x="261.5" y="-810.5" font-family="Helvetica,sans-Serif" font-size="10.00"> &amp;other) const =0</text>
<text text-anchor="start" x="248.5" y="-795.5" font-family="Helvetica,sans-Serif" font-size="10.00">#</text>
<text text-anchor="start" x="261.5" y="-795.5" font-family="Helvetica,sans-Serif" font-size="10.00">virtual std::size_t</text>
<text text-anchor="start" x="261.5" y="-784.5" font-family="Helvetica,sans-Serif" font-size="10.00"> compute_hash() const =0</text>
<text text-anchor="start" x="248.5" y="-769.5" font-family="Helvetica,sans-Serif" font-size="10.00">#</text>
<text text-anchor="start" x="261.5" y="-769.5" font-family="Helvetica,sans-Serif" font-size="10.00">SymbolicNode &amp; operator</text>
<text text-anchor="start" x="261.5" y="-758.5" font-family="Helvetica,sans-Serif" font-size="10.00">=(const SymbolicNode &amp;)</text>
<polygon fill="#666666" stroke="#666666" points="244.5,-1195.5 244.5,-1195.5 428.5,-1195.5 428.5,-1195.5 244.5,-1195.5"/>
<polygon fill="#666666" stroke="#666666" points="244.5,-1180.5 244.5,-1180.5 428.5,-1180.5 428.5,-1180.5 244.5,-1180.5"/>
<polygon fill="none" stroke="#666666" points="244.5,-752 244.5,-1213 428.5,-1213 428.5,-752 244.5,-752"/>
</a>
</g>
</g>
<!-- Node7&#45;&gt;Node6 -->
<g id="edge6_Node000006_Node000007" class="edge">
<title>Node7&#45;&gt;Node6</title>
<g id="a_edge6_Node000006_Node000007"><a xlink:title=" ">
<path fill="none" stroke="#63b8ff" d="M336.5,-751.74C336.5,-689.22 336.5,-628.15 336.5,-589.44"/>
<polygon fill="none" stroke="#63b8ff" points="336.5,-589.2 332.5,-583.2 336.5,-577.2 340.5,-583.2 336.5,-589.2"/>
</a>
</g>
<text text-anchor="middle" x="349" y="-720.5" font-family="Helvetica,sans-Serif" font-size="10.00" fill="grey"> +ptr</text>
</g>
<!-- Node8 -->
<g id="Node000008" class="node">
<title>Node8</title>
<g id="a_Node000008"><a xlink:title=" ">
<polygon fill="white" stroke="transparent" points="268,-1309 131,-1309 131,-1260 268,-1260 268,-1309"/>
<text text-anchor="start" x="136.5" y="-1296.5" font-family="Helvetica,sans-Serif" font-size="10.00">std::atomic&lt; std::size_t &gt;</text>
<text text-anchor="start" x="198" y="-1281.5" font-family="Helvetica,sans-Serif" font-size="10.00"> </text>
<text text-anchor="start" x="198" y="-1266.5" font-family="Helvetica,sans-Serif" font-size="10.00"> </text>
<polygon fill="#666666" stroke="#666666" points="131.5,-1291.5 131.5,-1291.5 268.5,-1291.5 268.5,-1291.5 131.5,-1291.5"/>
<polygon fill="#666666" stroke="#666666" points="131.5,-1276.5 131.5,-1276.5 268.5,-1276.5 268.5,-1276.5 131.5,-1276.5"/>
<polygon fill="none" stroke="#666666" points="131,-1260 131,-1309 268,-1309 268,-1260 131,-1260"/>
</a>
</g>
</g>
<!-- Node8&#45;&gt;Node7 -->
<g id="edge7_Node000007_Node000008" class="edge">
<title>Node8&#45;&gt;Node7</title>
<g id="a_edge7_Node000007_Node000008"><a xlink:title=" ">
<path fill="none" stroke="#63b8ff" d="M212.01,-1259.85C219.09,-1246.24 228.01,-1228.77 235.5,-1213 236.74,-1210.39 237.99,-1207.76 239.23,-1205.11"/>
<polygon fill="none" stroke="#63b8ff" points="239.28,-1205 238.2,-1197.87 244.37,-1194.14 245.45,-1201.27 239.28,-1205"/>
</a>
</g>
<text text-anchor="middle" x="264" y="-1234" font-family="Helvetica,sans-Serif" font-size="10.00" fill="grey"> #cached_hash</text>
</g>
<!-- Node9 -->
<g id="Node000009" class="node">
<title>Node9</title>
<g id="a_Node000009"><a xlink:title=" ">
<polygon fill="white" stroke="transparent" points="173,-1443 134,-1443 134,-1394 173,-1394 173,-1443"/>
<text text-anchor="start" x="139.5" y="-1430.5" font-family="Helvetica,sans-Serif" font-size="10.00">size_t</text>
<text text-anchor="start" x="152" y="-1415.5" font-family="Helvetica,sans-Serif" font-size="10.00"> </text>
<text text-anchor="start" x="152" y="-1400.5" font-family="Helvetica,sans-Serif" font-size="10.00"> </text>
<polygon fill="#666666" stroke="#666666" points="134.5,-1425.5 134.5,-1425.5 173.5,-1425.5 173.5,-1425.5 134.5,-1425.5"/>
<polygon fill="#666666" stroke="#666666" points="134.5,-1410.5 134.5,-1410.5 173.5,-1410.5 173.5,-1410.5 134.5,-1410.5"/>
<polygon fill="none" stroke="#666666" points="134,-1394 134,-1443 173,-1443 173,-1394 134,-1394"/>
</a>
</g>
</g>
<!-- Node9&#45;&gt;Node8 -->
<g id="edge8_Node000008_Node000009" class="edge">
<title>Node9&#45;&gt;Node8</title>
<g id="a_edge8_Node000008_Node000009"><a xlink:title=" ">
<path fill="none" stroke="#63b8ff" d="M148.78,-1393.73C146.18,-1374.81 145.11,-1348.1 154.5,-1327 155.83,-1324.01 157.49,-1321.13 159.39,-1318.4"/>
<polygon fill="none" stroke="#63b8ff" points="159.44,-1318.33 160.18,-1311.16 167.09,-1309.09 166.35,-1316.26 159.44,-1318.33"/>
</a>
</g>
<text text-anchor="middle" x="167" y="-1349" font-family="Helvetica,sans-Serif" font-size="10.00" fill="grey"> +ptr</text>
</g>
<!-- Node10 -->
<g id="Node000010" class="node">
<title>Node10</title>
<g id="a_Node000010"><a xlink:title=" ">
<polygon fill="white" stroke="transparent" points="336.5,-1443 242.5,-1443 242.5,-1394 336.5,-1394 336.5,-1443"/>
<text text-anchor="start" x="247.5" y="-1430.5" font-family="Helvetica,sans-Serif" font-size="10.00">std::atomic&lt; T &gt;</text>
<text text-anchor="start" x="287.5" y="-1415.5" font-family="Helvetica,sans-Serif" font-size="10.00"> </text>
<text text-anchor="start" x="287.5" y="-1400.5" font-family="Helvetica,sans-Serif" font-size="10.00"> </text>
<polygon fill="#666666" stroke="#666666" points="242.5,-1425.5 242.5,-1425.5 336.5,-1425.5 336.5,-1425.5 242.5,-1425.5"/>
<polygon fill="#666666" stroke="#666666" points="242.5,-1410.5 242.5,-1410.5 336.5,-1410.5 336.5,-1410.5 242.5,-1410.5"/>
<polygon fill="none" stroke="#666666" points="242.5,-1394 242.5,-1443 336.5,-1443 336.5,-1394 242.5,-1394"/>
</a>
</g>
</g>
<!-- Node10&#45;&gt;Node8 -->
<g id="edge9_Node000008_Node000010" class="edge">
<title>Node10&#45;&gt;Node8</title>
<g id="a_edge9_Node000008_Node000010"><a xlink:title=" ">
<path fill="none" stroke="orange" d="M233.4,-1398.19C223.72,-1392.47 214.77,-1385.2 208.5,-1376 195.16,-1356.43 194.36,-1328.72 195.99,-1309.13"/>
<polygon fill="orange" stroke="orange" points="231.97,-1401.4 242.44,-1403.02 235.27,-1395.22 231.97,-1401.4"/>
</a>
</g>
<text text-anchor="middle" x="246.5" y="-1349" font-family="Helvetica,sans-Serif" font-size="10.00" fill="grey"> &lt; std::size_t &gt;</text>
</g>
<!-- Node12 -->
<g id="Node000012" class="node">
<title>Node12</title>
<g id="a_Node000012"><a xlink:title=" ">
<polygon fill="white" stroke="transparent" points="395,-1309 286,-1309 286,-1260 395,-1260 395,-1309"/>
<text text-anchor="start" x="291.5" y="-1296.5" font-family="Helvetica,sans-Serif" font-size="10.00">std::atomic&lt; bool &gt;</text>
<text text-anchor="start" x="339" y="-1281.5" font-family="Helvetica,sans-Serif" font-size="10.00"> </text>
<text text-anchor="start" x="339" y="-1266.5" font-family="Helvetica,sans-Serif" font-size="10.00"> </text>
<polygon fill="#666666" stroke="#666666" points="286.5,-1291.5 286.5,-1291.5 395.5,-1291.5 395.5,-1291.5 286.5,-1291.5"/>
<polygon fill="#666666" stroke="#666666" points="286.5,-1276.5 286.5,-1276.5 395.5,-1276.5 395.5,-1276.5 286.5,-1276.5"/>
<polygon fill="none" stroke="#666666" points="286,-1260 286,-1309 395,-1309 395,-1260 286,-1260"/>
</a>
</g>
</g>
<!-- Node10&#45;&gt;Node12 -->
<g id="edge13_Node000012_Node000010" class="edge">
<title>Node10&#45;&gt;Node12</title>
<g id="a_edge13_Node000012_Node000010"><a xlink:title=" ">
<path fill="none" stroke="orange" d="M287.5,-1383.25C287.78,-1365.66 290.22,-1344.35 298.5,-1327 301.59,-1320.52 306.13,-1314.49 311.1,-1309.13"/>
<polygon fill="orange" stroke="orange" points="284,-1383.67 287.57,-1393.64 291,-1383.62 284,-1383.67"/>
</a>
</g>
<text text-anchor="middle" x="322" y="-1349" font-family="Helvetica,sans-Serif" font-size="10.00" fill="grey"> &lt; bool &gt;</text>
</g>
<!-- Node11 -->
<g id="Node000011" class="node">
<title>Node11</title>
<g id="a_Node000011"><a xlink:title=" ">
<polygon fill="white" stroke="transparent" points="382,-1539 365,-1539 365,-1490 382,-1490 382,-1539"/>
<text text-anchor="start" x="370.5" y="-1526.5" font-family="Helvetica,sans-Serif" font-size="10.00">T</text>
<text text-anchor="start" x="372" y="-1511.5" font-family="Helvetica,sans-Serif" font-size="10.00"> </text>
<text text-anchor="start" x="372" y="-1496.5" font-family="Helvetica,sans-Serif" font-size="10.00"> </text>
<polygon fill="#666666" stroke="#666666" points="365.5,-1521.5 365.5,-1521.5 382.5,-1521.5 382.5,-1521.5 365.5,-1521.5"/>
<polygon fill="#666666" stroke="#666666" points="365.5,-1506.5 365.5,-1506.5 382.5,-1506.5 382.5,-1506.5 365.5,-1506.5"/>
<polygon fill="none" stroke="#666666" points="365,-1490 365,-1539 382,-1539 382,-1490 365,-1490"/>
</a>
</g>
</g>
<!-- Node11&#45;&gt;Node10 -->
<g id="edge10_Node000010_Node000011" class="edge">
<title>Node11&#45;&gt;Node10</title>
<g id="a_edge10_Node000010_Node000011"><a xlink:title=" ">
<path fill="none" stroke="#63b8ff" d="M364.83,-1503.79C354.05,-1491.73 335.09,-1470.52 318.89,-1452.39"/>
<polygon fill="none" stroke="#63b8ff" points="318.73,-1452.21 311.75,-1450.4 310.73,-1443.26 317.71,-1445.07 318.73,-1452.21"/>
</a>
</g>
<text text-anchor="middle" x="347" y="-1464" font-family="Helvetica,sans-Serif" font-size="10.00" fill="grey"> +ptr</text>
</g>
<!-- Node14 -->
<g id="Node000014" class="node">
<title>Node14</title>
<g id="a_Node000014"><a xlink:title=" ">
<polygon fill="white" stroke="transparent" points="512.5,-1376 400.5,-1376 400.5,-1327 512.5,-1327 512.5,-1376"/>
<text text-anchor="start" x="405.5" y="-1363.5" font-family="Helvetica,sans-Serif" font-size="10.00">std::shared_ptr&lt; T &gt;</text>
<text text-anchor="start" x="454.5" y="-1348.5" font-family="Helvetica,sans-Serif" font-size="10.00"> </text>
<text text-anchor="start" x="407.5" y="-1333.5" font-family="Helvetica,sans-Serif" font-size="10.00">+</text>
<text text-anchor="start" x="423.5" y="-1333.5" font-family="Helvetica,sans-Serif" font-size="10.00">T * operator&#45;&gt;()</text>
<polygon fill="#666666" stroke="#666666" points="400.5,-1358.5 400.5,-1358.5 512.5,-1358.5 512.5,-1358.5 400.5,-1358.5"/>
<polygon fill="#666666" stroke="#666666" points="400.5,-1343.5 400.5,-1343.5 512.5,-1343.5 512.5,-1343.5 400.5,-1343.5"/>
<polygon fill="none" stroke="#666666" points="400.5,-1327 400.5,-1376 512.5,-1376 512.5,-1327 400.5,-1327"/>
</a>
</g>
</g>
<!-- Node11&#45;&gt;Node14 -->
<g id="edge15_Node000014_Node000011" class="edge">
<title>Node11&#45;&gt;Node14</title>
<g id="a_edge15_Node000014_Node000011"><a xlink:title=" ">
<path fill="none" stroke="#63b8ff" d="M382.07,-1496.88C395.39,-1471.04 421.35,-1420.68 438.81,-1386.82"/>
<polygon fill="none" stroke="#63b8ff" points="438.88,-1386.69 438.07,-1379.52 444.37,-1376.02 445.18,-1383.19 438.88,-1386.69"/>
</a>
</g>
<text text-anchor="middle" x="411" y="-1464" font-family="Helvetica,sans-Serif" font-size="10.00" fill="grey"> +ptr</text>
</g>
<!-- Node12&#45;&gt;Node7 -->
<g id="edge11_Node000007_Node000012" class="edge">
<title>Node12&#45;&gt;Node7</title>
<g id="a_edge11_Node000007_Node000012"><a xlink:title=" ">
<path fill="none" stroke="#63b8ff" d="M340.19,-1259.96C340.06,-1250.56 339.9,-1238.77 339.73,-1225.4"/>
<polygon fill="none" stroke="#63b8ff" points="339.72,-1225.26 335.64,-1219.31 339.56,-1213.26 343.64,-1219.2 339.72,-1225.26"/>
</a>
</g>
<text text-anchor="middle" x="384" y="-1234" font-family="Helvetica,sans-Serif" font-size="10.00" fill="grey"> #hash_computed</text>
</g>
<!-- Node13 -->
<g id="Node000013" class="node">
<title>Node13</title>
<g id="a_Node000013"><a xlink:title=" ">
<polygon fill="white" stroke="transparent" points="386.5,-1443 354.5,-1443 354.5,-1394 386.5,-1394 386.5,-1443"/>
<text text-anchor="start" x="359.5" y="-1430.5" font-family="Helvetica,sans-Serif" font-size="10.00">bool</text>
<text text-anchor="start" x="368.5" y="-1415.5" font-family="Helvetica,sans-Serif" font-size="10.00"> </text>
<text text-anchor="start" x="368.5" y="-1400.5" font-family="Helvetica,sans-Serif" font-size="10.00"> </text>
<polygon fill="#666666" stroke="#666666" points="354.5,-1425.5 354.5,-1425.5 386.5,-1425.5 386.5,-1425.5 354.5,-1425.5"/>
<polygon fill="#666666" stroke="#666666" points="354.5,-1410.5 354.5,-1410.5 386.5,-1410.5 386.5,-1410.5 354.5,-1410.5"/>
<polygon fill="none" stroke="#666666" points="354.5,-1394 354.5,-1443 386.5,-1443 386.5,-1394 354.5,-1394"/>
</a>
</g>
</g>
<!-- Node13&#45;&gt;Node12 -->
<g id="edge12_Node000012_Node000013" class="edge">
<title>Node13&#45;&gt;Node12</title>
<g id="a_edge12_Node000012_Node000013"><a xlink:title=" ">
<path fill="none" stroke="#63b8ff" d="M365.14,-1393.9C360.54,-1373.66 353.84,-1344.19 348.59,-1321.09"/>
<polygon fill="none" stroke="#63b8ff" points="348.58,-1321.04 343.35,-1316.08 345.92,-1309.34 351.15,-1314.3 348.58,-1321.04"/>
</a>
</g>
<text text-anchor="middle" x="373" y="-1349" font-family="Helvetica,sans-Serif" font-size="10.00" fill="grey"> +ptr</text>
</g>
<!-- Node14&#45;&gt;Node6 -->
<g id="edge14_Node000006_Node000014" class="edge">
<title>Node14&#45;&gt;Node6</title>
<g id="a_edge14_Node000006_Node000014"><a xlink:title=" ">
<path fill="none" stroke="orange" d="M460.36,-1316.77C469.86,-1224.57 489.98,-961.27 437.5,-752 420.82,-685.49 380.36,-615.43 356.01,-577.18"/>
<polygon fill="orange" stroke="orange" points="456.86,-1316.59 459.28,-1326.9 463.82,-1317.33 456.86,-1316.59"/>
</a>
</g>
<text text-anchor="middle" x="515" y="-1234" font-family="Helvetica,sans-Serif" font-size="10.00" fill="grey"> &lt; SymbolicNode &gt;</text>
</g>
</g>
</svg>

<g id="navigator" transform="translate(0 0)" fill="#404254">
  <rect fill="#f2f5e9" fill-opacity="0.5" stroke="#606060" stroke-width=".5" x="0" y="0" width="60" height="60"/>
  <use id="zoomplus" xlink:href="#zoomPlus" x="17" y="9" onmousedown="handleZoom(evt,'in')"/>
  <use id="zoomminus" xlink:href="#zoomMin" x="42" y="9" onmousedown="handleZoom(evt,'out')"/>
  <use id="reset" xlink:href="#resetDef" x="30" y="36" onmousedown="handleReset()"/>
   <use id="arrowup" xlink:href="#arrowUp" x="0" y="0" onmousedown="handlePan(0,-1)"/>
  <use id="arrowright" xlink:href="#arrowRight" x="0" y="0" onmousedown="handlePan(1,0)"/>
  <use id="arrowdown" xlink:href="#arrowDown" x="0" y="0" onmousedown="handlePan(0,1)"/>
  <use id="arrowleft" xlink:href="#arrowLeft" x="0" y="0" onmousedown="handlePan(-1,0)"/>
</g>
<svg viewBox="0 0 15 15" width="100%" height="30px" preserveAspectRatio="xMaxYMin meet">
 <g id="arrow_out" transform="scale(0.3 0.3)">
  <a xlink:href="classSubstituteVisitor__coll__graph_org.svg" target="_base">
   <rect id="button" ry="5" rx="5" y="6" x="6" height="38" width="38"
        fill="#f2f5e9" fill-opacity="0.5" stroke="#606060" stroke-width="1.0"/>
   <path id="arrow"
     d="M 11.500037,31.436501 C 11.940474,20.09759 22.043105,11.32322 32.158766,21.979434 L 37.068811,17.246167 C 37.068811,17.246167 37.088388,32 37.088388,32 L 22.160133,31.978069 C 22.160133,31.978069 26.997745,27.140456 26.997745,27.140456 C 18.528582,18.264221 13.291696,25.230495 11.500037,31.436501 z"
     style="fill:#404040;"/>
  </a>
 </g>
</svg>

<style type='text/css'>
<![CDATA[
[data-mouse-over-selected='false'] { opacity: 0.7; }
[data-mouse-over-selected='true']  { opacity: 1.0; }
]]>
</style>
<script type="application/ecmascript"><![CDATA[
document.addEventListener('DOMContentLoaded', (event) => {
  highlightEdges();
  highlightAdjacentNodes();
});
]]></script>
</svg>
