<?xml version="1.0" encoding="UTF-8" standalone="no"?>
<!DOCTYPE svg PUBLIC "-//W3C//DTD SVG 1.1//EN"
 "http://www.w3.org/Graphics/SVG/1.1/DTD/svg11.dtd">
<!-- Generated by graphviz version 2.43.0 (0)
 -->
<!-- Title: src/lammp/mul_toom33.c Pages: 1 -->
<svg width="392pt" height="258pt"
 viewBox="0.00 0.00 392.00 258.00" xmlns="http://www.w3.org/2000/svg" xmlns:xlink="http://www.w3.org/1999/xlink">
<g id="graph0" class="graph" transform="scale(1 1) rotate(0) translate(4 254)">
<title>src/lammp/mul_toom33.c</title>
<!-- Node1 -->
<g id="Node000001" class="node">
<title>Node1</title>
<g id="a_Node000001"><a xlink:title=" ">
<polygon fill="#999999" stroke="#666666" points="252,-250 111,-250 111,-231 252,-231 252,-250"/>
<text text-anchor="middle" x="181.5" y="-238" font-family="Helvetica,sans-Serif" font-size="10.00">src/lammp/mul_toom33.c</text>
</a>
</g>
</g>
<!-- Node2 -->
<g id="Node000002" class="node">
<title>Node2</title>
<g id="a_Node000002"><a xlink:href="../../d8/dd0/mparam_8h.html" target="_top" xlink:title=" ">
<polygon fill="white" stroke="#666666" points="107,-195 0,-195 0,-165 107,-165 107,-195"/>
<text text-anchor="start" x="8" y="-183" font-family="Helvetica,sans-Serif" font-size="10.00">../../include/lammp</text>
<text text-anchor="middle" x="53.5" y="-172" font-family="Helvetica,sans-Serif" font-size="10.00">/impl/mparam.h</text>
</a>
</g>
</g>
<!-- Node1&#45;&gt;Node2 -->
<g id="edge1_Node000001_Node000002" class="edge">
<title>Node1&#45;&gt;Node2</title>
<g id="a_edge1_Node000001_Node000002"><a xlink:title=" ">
<path fill="none" stroke="#63b8ff" d="M162.89,-230.99C144.85,-222.75 116.9,-209.98 93.77,-199.4"/>
<polygon fill="#63b8ff" stroke="#63b8ff" points="95.07,-196.15 84.52,-195.18 92.16,-202.52 95.07,-196.15"/>
</a>
</g>
</g>
<!-- Node3 -->
<g id="Node000003" class="node">
<title>Node3</title>
<g id="a_Node000003"><a xlink:href="../../d0/d3c/toom__interp_8h.html" target="_top" xlink:title=" ">
<polygon fill="white" stroke="#666666" points="238,-195 125,-195 125,-165 238,-165 238,-195"/>
<text text-anchor="start" x="133" y="-183" font-family="Helvetica,sans-Serif" font-size="10.00">../../include/lammp</text>
<text text-anchor="middle" x="181.5" y="-172" font-family="Helvetica,sans-Serif" font-size="10.00">/impl/toom_interp.h</text>
</a>
</g>
</g>
<!-- Node1&#45;&gt;Node3 -->
<g id="edge2_Node000001_Node000003" class="edge">
<title>Node1&#45;&gt;Node3</title>
<g id="a_edge2_Node000001_Node000003"><a xlink:title=" ">
<path fill="none" stroke="#63b8ff" d="M181.5,-230.87C181.5,-224.11 181.5,-214.35 181.5,-205.26"/>
<polygon fill="#63b8ff" stroke="#63b8ff" points="185,-205.11 181.5,-195.11 178,-205.11 185,-205.11"/>
</a>
</g>
</g>
<!-- Node11 -->
<g id="Node000011" class="node">
<title>Node11</title>
<g id="a_Node000011"><a xlink:href="../../d6/d39/lmmpn_8h.html" target="_top" xlink:title=" ">
<polygon fill="white" stroke="#666666" points="301,-129 232,-129 232,-110 301,-110 301,-129"/>
<text text-anchor="middle" x="266.5" y="-117" font-family="Helvetica,sans-Serif" font-size="10.00">../lmmpn.h</text>
</a>
</g>
</g>
<!-- Node1&#45;&gt;Node11 -->
<g id="edge14_Node000001_Node000011" class="edge">
<title>Node1&#45;&gt;Node11</title>
<g id="a_edge14_Node000001_Node000011"><a xlink:title=" ">
<path fill="none" stroke="#63b8ff" d="M200.8,-230.94C215.44,-223.48 234.96,-211.29 246.5,-195 258.21,-178.47 263.07,-155.46 265.08,-139.4"/>
<polygon fill="#63b8ff" stroke="#63b8ff" points="268.59,-139.43 266.1,-129.13 261.63,-138.73 268.59,-139.43"/>
</a>
</g>
</g>
<!-- Node4 -->
<g id="Node000004" class="node">
<title>Node4</title>
<g id="a_Node000004"><a xlink:href="../../d8/daa/tmp__alloc_8h.html" target="_top" xlink:title=" ">
<polygon fill="white" stroke="#666666" points="213.5,-129 139.5,-129 139.5,-110 213.5,-110 213.5,-129"/>
<text text-anchor="middle" x="176.5" y="-117" font-family="Helvetica,sans-Serif" font-size="10.00">tmp_alloc.h</text>
</a>
</g>
</g>
<!-- Node3&#45;&gt;Node4 -->
<g id="edge3_Node000003_Node000004" class="edge">
<title>Node3&#45;&gt;Node4</title>
<g id="a_edge3_Node000003_Node000004"><a xlink:title=" ">
<path fill="none" stroke="#63b8ff" d="M180.29,-164.84C179.64,-157.21 178.83,-147.7 178.12,-139.45"/>
<polygon fill="#63b8ff" stroke="#63b8ff" points="181.59,-138.93 177.25,-129.27 174.61,-139.53 181.59,-138.93"/>
</a>
</g>
</g>
<!-- Node3&#45;&gt;Node11 -->
<g id="edge10_Node000003_Node000011" class="edge">
<title>Node3&#45;&gt;Node11</title>
<g id="a_edge10_Node000003_Node000011"><a xlink:title=" ">
<path fill="none" stroke="#63b8ff" d="M202.08,-164.84C215.17,-155.83 232.09,-144.18 245.3,-135.09"/>
<polygon fill="#63b8ff" stroke="#63b8ff" points="247.51,-137.82 253.76,-129.27 243.54,-132.05 247.51,-137.82"/>
</a>
</g>
</g>
<!-- Node5 -->
<g id="Node000005" class="node">
<title>Node5</title>
<g id="a_Node000005"><a xlink:href="../../dd/d90/lmmp_8h.html" target="_top" xlink:title=" ">
<polygon fill="white" stroke="#666666" points="283,-74 220,-74 220,-55 283,-55 283,-74"/>
<text text-anchor="middle" x="251.5" y="-62" font-family="Helvetica,sans-Serif" font-size="10.00">../lmmp.h</text>
</a>
</g>
</g>
<!-- Node4&#45;&gt;Node5 -->
<g id="edge4_Node000004_Node000005" class="edge">
<title>Node4&#45;&gt;Node5</title>
<g id="a_edge4_Node000004_Node000005"><a xlink:title=" ">
<path fill="none" stroke="#63b8ff" d="M188.55,-109.98C199.96,-101.92 217.33,-89.65 230.93,-80.03"/>
<polygon fill="#63b8ff" stroke="#63b8ff" points="233.08,-82.8 239.23,-74.17 229.04,-77.08 233.08,-82.8"/>
</a>
</g>
</g>
<!-- Node10 -->
<g id="Node000010" class="node">
<title>Node10</title>
<g id="a_Node000010"><a xlink:title=" ">
<polygon fill="#e0e0e0" stroke="#999999" points="201.5,-74 151.5,-74 151.5,-55 201.5,-55 201.5,-74"/>
<text text-anchor="middle" x="176.5" y="-62" font-family="Helvetica,sans-Serif" font-size="10.00">stdio.h</text>
</a>
</g>
</g>
<!-- Node4&#45;&gt;Node10 -->
<g id="edge9_Node000004_Node000010" class="edge">
<title>Node4&#45;&gt;Node10</title>
<g id="a_edge9_Node000004_Node000010"><a xlink:title=" ">
<path fill="none" stroke="#63b8ff" d="M176.5,-109.75C176.5,-102.8 176.5,-92.85 176.5,-84.13"/>
<polygon fill="#63b8ff" stroke="#63b8ff" points="180,-84.09 176.5,-74.09 173,-84.09 180,-84.09"/>
</a>
</g>
</g>
<!-- Node6 -->
<g id="Node000006" class="node">
<title>Node6</title>
<g id="a_Node000006"><a xlink:title=" ">
<polygon fill="#e0e0e0" stroke="#999999" points="170.5,-19 114.5,-19 114.5,0 170.5,0 170.5,-19"/>
<text text-anchor="middle" x="142.5" y="-7" font-family="Helvetica,sans-Serif" font-size="10.00">stddef.h</text>
</a>
</g>
</g>
<!-- Node5&#45;&gt;Node6 -->
<g id="edge5_Node000005_Node000006" class="edge">
<title>Node5&#45;&gt;Node6</title>
<g id="a_edge5_Node000005_Node000006"><a xlink:title=" ">
<path fill="none" stroke="#63b8ff" d="M233.99,-54.98C216.53,-46.5 189.49,-33.35 169.33,-23.54"/>
<polygon fill="#63b8ff" stroke="#63b8ff" points="170.86,-20.4 160.33,-19.17 167.79,-26.69 170.86,-20.4"/>
</a>
</g>
</g>
<!-- Node7 -->
<g id="Node000007" class="node">
<title>Node7</title>
<g id="a_Node000007"><a xlink:title=" ">
<polygon fill="#e0e0e0" stroke="#999999" points="242,-19 189,-19 189,0 242,0 242,-19"/>
<text text-anchor="middle" x="215.5" y="-7" font-family="Helvetica,sans-Serif" font-size="10.00">stdint.h</text>
</a>
</g>
</g>
<!-- Node5&#45;&gt;Node7 -->
<g id="edge6_Node000005_Node000007" class="edge">
<title>Node5&#45;&gt;Node7</title>
<g id="a_edge6_Node000005_Node000007"><a xlink:title=" ">
<path fill="none" stroke="#63b8ff" d="M245.56,-54.75C240.52,-47.34 233.16,-36.5 226.99,-27.41"/>
<polygon fill="#63b8ff" stroke="#63b8ff" points="229.85,-25.39 221.33,-19.09 224.06,-29.33 229.85,-25.39"/>
</a>
</g>
</g>
<!-- Node8 -->
<g id="Node000008" class="node">
<title>Node8</title>
<g id="a_Node000008"><a xlink:title=" ">
<polygon fill="#e0e0e0" stroke="#999999" points="313,-19 260,-19 260,0 313,0 313,-19"/>
<text text-anchor="middle" x="286.5" y="-7" font-family="Helvetica,sans-Serif" font-size="10.00">stdlib.h</text>
</a>
</g>
</g>
<!-- Node5&#45;&gt;Node8 -->
<g id="edge7_Node000005_Node000008" class="edge">
<title>Node5&#45;&gt;Node8</title>
<g id="a_edge7_Node000005_Node000008"><a xlink:title=" ">
<path fill="none" stroke="#63b8ff" d="M257.28,-54.75C262.12,-47.42 269.18,-36.73 275.14,-27.7"/>
<polygon fill="#63b8ff" stroke="#63b8ff" points="278.24,-29.36 280.83,-19.09 272.4,-25.5 278.24,-29.36"/>
</a>
</g>
</g>
<!-- Node9 -->
<g id="Node000009" class="node">
<title>Node9</title>
<g id="a_Node000009"><a xlink:title=" ">
<polygon fill="#e0e0e0" stroke="#999999" points="384,-19 331,-19 331,0 384,0 384,-19"/>
<text text-anchor="middle" x="357.5" y="-7" font-family="Helvetica,sans-Serif" font-size="10.00">string.h</text>
</a>
</g>
</g>
<!-- Node5&#45;&gt;Node9 -->
<g id="edge8_Node000005_Node000009" class="edge">
<title>Node5&#45;&gt;Node9</title>
<g id="a_edge8_Node000005_Node000009"><a xlink:title=" ">
<path fill="none" stroke="#63b8ff" d="M268.53,-54.98C285.43,-46.54 311.56,-33.47 331.14,-23.68"/>
<polygon fill="#63b8ff" stroke="#63b8ff" points="332.78,-26.77 340.16,-19.17 329.65,-20.51 332.78,-26.77"/>
</a>
</g>
</g>
<!-- Node11&#45;&gt;Node5 -->
<g id="edge13_Node000011_Node000005" class="edge">
<title>Node11&#45;&gt;Node5</title>
<g id="a_edge13_Node000011_Node000005"><a xlink:title=" ">
<path fill="none" stroke="#63b8ff" d="M264.02,-109.75C262.04,-102.72 259.18,-92.62 256.69,-83.84"/>
<polygon fill="#63b8ff" stroke="#63b8ff" points="260.02,-82.76 253.93,-74.09 253.29,-84.66 260.02,-82.76"/>
</a>
</g>
</g>
<!-- Node11&#45;&gt;Node10 -->
<g id="edge12_Node000011_Node000010" class="edge">
<title>Node11&#45;&gt;Node10</title>
<g id="a_edge12_Node000011_Node000010"><a xlink:title=" ">
<path fill="none" stroke="#63b8ff" d="M252.04,-109.98C238.08,-101.77 216.71,-89.18 200.25,-79.49"/>
<polygon fill="#63b8ff" stroke="#63b8ff" points="201.62,-76.23 191.22,-74.17 198.06,-82.26 201.62,-76.23"/>
</a>
</g>
</g>
<!-- Node12 -->
<g id="Node000012" class="node">
<title>Node12</title>
<g id="a_Node000012"><a xlink:title=" ">
<polygon fill="#e0e0e0" stroke="#999999" points="363.5,-74 301.5,-74 301.5,-55 363.5,-55 363.5,-74"/>
<text text-anchor="middle" x="332.5" y="-62" font-family="Helvetica,sans-Serif" font-size="10.00">stdbool.h</text>
</a>
</g>
</g>
<!-- Node11&#45;&gt;Node12 -->
<g id="edge11_Node000011_Node000012" class="edge">
<title>Node11&#45;&gt;Node12</title>
<g id="a_edge11_Node000011_Node000012"><a xlink:title=" ">
<path fill="none" stroke="#63b8ff" d="M277.1,-109.98C286.96,-102.07 301.85,-90.11 313.72,-80.58"/>
<polygon fill="#63b8ff" stroke="#63b8ff" points="316.1,-83.16 321.7,-74.17 311.71,-77.7 316.1,-83.16"/>
</a>
</g>
</g>
</g>
</svg>
