<?xml version="1.0" encoding="UTF-8" standalone="no"?>
<!DOCTYPE svg PUBLIC "-//W3C//DTD SVG 1.1//EN"
 "http://www.w3.org/Graphics/SVG/1.1/DTD/svg11.dtd">
<!-- Generated by graphviz version 2.43.0 (0)
 -->
<!-- Title: lamina::QueryInterface::is_nan_number Pages: 1 -->
<!--zoomable 278 -->

<svg id="main" version="1.1" xmlns="http://www.w3.org/2000/svg" xmlns:xlink="http://www.w3.org/1999/xlink" xml:space="preserve" onload="init(evt)">
<style type="text/css"><![CDATA[
.node, .edge {opacity: 0.7;}
.node.selected, .edge.selected {opacity: 1;}
.edge:hover path { stroke: red; }
.edge:hover polygon { stroke: red; fill: red; }
]]></style>

<defs>
  <circle id="rim" cx="0" cy="0" r="7"/>
  <circle id="rim2" cx="0" cy="0" r="3.5"/>
  <g id="zoomPlus">
    <use xlink:href="#rim" fill="#404040"><set attributeName="fill" to="#808080" begin="zoomplus.mouseover" end="zoomplus.mouseout"/></use>
    <path d="M-4,0h8M0,-4v8" fill="none" stroke="white" stroke-width="1.5" pointer-events="none"/>
  </g>
  <g id="zoomMin">
    <use xlink:href="#rim" fill="#404040"><set attributeName="fill" to="#808080" begin="zoomminus.mouseover" end="zoomminus.mouseout"/></use>
    <path d="M-4,0h8" fill="none" stroke="white" stroke-width="1.5" pointer-events="none"/>
  </g>
  <g id="arrowUp" transform="translate(30 24)">
    <use xlink:href="#rim"/>
    <path pointer-events="none" fill="none" stroke="white" stroke-width="1.5" d="M0,-3.0v7 M-2.5,-0.5L0,-3.0L2.5,-0.5"/>
  </g>
  <g id="arrowRight" transform="rotate(90) translate(36 -43)">
    <use xlink:href="#rim"/>
    <path pointer-events="none" fill="none" stroke="white" stroke-width="1.5" d="M0,-3.0v7 M-2.5,-0.5L0,-3.0L2.5,-0.5"/>
  </g>
  <g id="arrowDown" transform="rotate(180) translate(-30 -48)">
    <use xlink:href="#rim"/>
    <path pointer-events="none" fill="none" stroke="white" stroke-width="1.5" d="M0,-3.0v7 M-2.5,-0.5L0,-3.0L2.5,-0.5"/>
  </g>
  <g id="arrowLeft" transform="rotate(270) translate(-36 17)">
    <use xlink:href="#rim"/>
    <path pointer-events="none" fill="none" stroke="white" stroke-width="1.5" d="M0,-3.0v7 M-2.5,-0.5L0,-3.0L2.5,-0.5"/>
  </g>
  <g id="resetDef">
    <use xlink:href="#rim2" fill="#404040"><set attributeName="fill" to="#808080" begin="reset.mouseover" end="reset.mouseout"/></use>
  </g>
</defs>
<script type="application/ecmascript">
var viewWidth = 822;
var viewHeight = 278;
var sectionId = 'dynsection-4';
</script>
<script type="application/ecmascript" xlink:href="../../svg.min.js"/>
<svg id="graph" class="graph">
<g id="viewport">
<title>lamina::QueryInterface::is_nan_number</title>
<!-- Node1 -->
<g id="Node000001" class="node">
<title>Node1</title>
<g id="a_Node000001"><a xlink:title="Check if a NumberNode holds NaN.">
<polygon fill="#999999" stroke="#666666" points="814,-150 685,-150 685,-120 814,-120 814,-150"/>
<text text-anchor="start" x="693" y="-138" font-family="Helvetica,sans-Serif" font-size="10.00">lamina::QueryInterface</text>
<text text-anchor="middle" x="749.5" y="-127" font-family="Helvetica,sans-Serif" font-size="10.00">::is_nan_number</text>
</a>
</g>
</g>
<!-- Node2 -->
<g id="Node000002" class="node">
<title>Node2</title>
<g id="a_Node000002"><a xlink:href="../../df/de3/classlamina_1_1QueryInterface.html#accc72fa8a200c3d1ad1312e1416f26e2" target="_top" xlink:title="Query whether the expression is an integer.">
<polygon fill="white" stroke="#666666" points="649,-270 520,-270 520,-240 649,-240 649,-270"/>
<text text-anchor="start" x="528" y="-258" font-family="Helvetica,sans-Serif" font-size="10.00">lamina::QueryInterface</text>
<text text-anchor="middle" x="584.5" y="-247" font-family="Helvetica,sans-Serif" font-size="10.00">::query_integer</text>
</a>
</g>
</g>
<!-- Node1&#45;&gt;Node2 -->
<g id="edge1_Node000001_Node000002" class="edge">
<title>Node1&#45;&gt;Node2</title>
<g id="a_edge1_Node000001_Node000002"><a xlink:title=" ">
<path fill="none" stroke="#63b8ff" d="M729.64,-157.94C711.03,-179.32 680.83,-210.85 649,-231 643.72,-234.34 637.91,-237.33 632.01,-239.96"/>
<polygon fill="#63b8ff" stroke="#63b8ff" points="732.34,-160.17 736.18,-150.29 727.02,-155.62 732.34,-160.17"/>
</a>
</g>
</g>
<!-- Node4 -->
<g id="Node000004" class="node">
<title>Node4</title>
<g id="a_Node000004"><a xlink:href="../../df/de3/classlamina_1_1QueryInterface.html#a02435013d0e45b41448daf38d6e10168" target="_top" xlink:title="Query whether the expression is negative (&lt; 0).">
<polygon fill="white" stroke="#666666" points="649,-222 520,-222 520,-192 649,-192 649,-222"/>
<text text-anchor="start" x="528" y="-210" font-family="Helvetica,sans-Serif" font-size="10.00">lamina::QueryInterface</text>
<text text-anchor="middle" x="584.5" y="-199" font-family="Helvetica,sans-Serif" font-size="10.00">::query_negative</text>
</a>
</g>
</g>
<!-- Node1&#45;&gt;Node4 -->
<g id="edge3_Node000001_Node000004" class="edge">
<title>Node1&#45;&gt;Node4</title>
<g id="a_edge3_Node000001_Node000004"><a xlink:title=" ">
<path fill="none" stroke="#63b8ff" d="M709.62,-154.74C691.39,-163.74 669.26,-174.3 649,-183 641.96,-186.02 634.4,-189.06 627.04,-191.9"/>
<polygon fill="#63b8ff" stroke="#63b8ff" points="711.38,-157.77 718.77,-150.19 708.26,-151.51 711.38,-157.77"/>
</a>
</g>
</g>
<!-- Node8 -->
<g id="Node000008" class="node">
<title>Node8</title>
<g id="a_Node000008"><a xlink:href="../../df/de3/classlamina_1_1QueryInterface.html#a722bd1e182daa18d6ffbb2463ce9f929" target="_top" xlink:title="Query whether the expression is non&#45;negative (&gt;= 0).">
<polygon fill="white" stroke="#666666" points="649,-174 520,-174 520,-144 649,-144 649,-174"/>
<text text-anchor="start" x="528" y="-162" font-family="Helvetica,sans-Serif" font-size="10.00">lamina::QueryInterface</text>
<text text-anchor="middle" x="584.5" y="-151" font-family="Helvetica,sans-Serif" font-size="10.00">::query_nonnegative</text>
</a>
</g>
</g>
<!-- Node1&#45;&gt;Node8 -->
<g id="edge7_Node000001_Node000008" class="edge">
<title>Node1&#45;&gt;Node8</title>
<g id="a_edge7_Node000001_Node000008"><a xlink:title=" ">
<path fill="none" stroke="#63b8ff" d="M674.59,-145.88C666.05,-147.14 657.39,-148.41 649,-149.65"/>
<polygon fill="#63b8ff" stroke="#63b8ff" points="675.16,-149.34 684.55,-144.42 674.14,-142.41 675.16,-149.34"/>
</a>
</g>
</g>
<!-- Node10 -->
<g id="Node000010" class="node">
<title>Node10</title>
<g id="a_Node000010"><a xlink:href="../../df/de3/classlamina_1_1QueryInterface.html#ad15a86049cb3db171108f934bc639453" target="_top" xlink:title="Query whether the expression is non&#45;zero (!= 0).">
<polygon fill="white" stroke="#666666" points="649,-126 520,-126 520,-96 649,-96 649,-126"/>
<text text-anchor="start" x="528" y="-114" font-family="Helvetica,sans-Serif" font-size="10.00">lamina::QueryInterface</text>
<text text-anchor="middle" x="584.5" y="-103" font-family="Helvetica,sans-Serif" font-size="10.00">::query_nonzero</text>
</a>
</g>
</g>
<!-- Node1&#45;&gt;Node10 -->
<g id="edge10_Node000001_Node000010" class="edge">
<title>Node1&#45;&gt;Node10</title>
<g id="a_edge10_Node000001_Node000010"><a xlink:title=" ">
<path fill="none" stroke="#63b8ff" d="M674.59,-124.12C666.05,-122.86 657.39,-121.59 649,-120.35"/>
<polygon fill="#63b8ff" stroke="#63b8ff" points="674.14,-127.59 684.55,-125.58 675.16,-120.66 674.14,-127.59"/>
</a>
</g>
</g>
<!-- Node12 -->
<g id="Node000012" class="node">
<title>Node12</title>
<g id="a_Node000012"><a xlink:href="../../df/de3/classlamina_1_1QueryInterface.html#a8a7a7101f1dd840cfea275e3bbc0a3d3" target="_top" xlink:title="Query whether the expression is positive (&gt; 0).">
<polygon fill="white" stroke="#666666" points="649,-78 520,-78 520,-48 649,-48 649,-78"/>
<text text-anchor="start" x="528" y="-66" font-family="Helvetica,sans-Serif" font-size="10.00">lamina::QueryInterface</text>
<text text-anchor="middle" x="584.5" y="-55" font-family="Helvetica,sans-Serif" font-size="10.00">::query_positive</text>
</a>
</g>
</g>
<!-- Node1&#45;&gt;Node12 -->
<g id="edge12_Node000001_Node000012" class="edge">
<title>Node1&#45;&gt;Node12</title>
<g id="a_edge12_Node000001_Node000012"><a xlink:title=" ">
<path fill="none" stroke="#63b8ff" d="M709.62,-115.26C691.39,-106.26 669.26,-95.7 649,-87 641.96,-83.98 634.4,-80.94 627.04,-78.1"/>
<polygon fill="#63b8ff" stroke="#63b8ff" points="708.26,-118.49 718.77,-119.81 711.38,-112.23 708.26,-118.49"/>
</a>
</g>
</g>
<!-- Node14 -->
<g id="Node000014" class="node">
<title>Node14</title>
<g id="a_Node000014"><a xlink:href="../../df/de3/classlamina_1_1QueryInterface.html#a8598c85338064dd974fa9defba364e1b" target="_top" xlink:title="Query whether the expression is real.">
<polygon fill="white" stroke="#666666" points="649,-30 520,-30 520,0 649,0 649,-30"/>
<text text-anchor="start" x="528" y="-18" font-family="Helvetica,sans-Serif" font-size="10.00">lamina::QueryInterface</text>
<text text-anchor="middle" x="584.5" y="-7" font-family="Helvetica,sans-Serif" font-size="10.00">::query_real</text>
</a>
</g>
</g>
<!-- Node1&#45;&gt;Node14 -->
<g id="edge15_Node000001_Node000014" class="edge">
<title>Node1&#45;&gt;Node14</title>
<g id="a_edge15_Node000001_Node000014"><a xlink:title=" ">
<path fill="none" stroke="#63b8ff" d="M729.64,-112.06C711.03,-90.68 680.83,-59.15 649,-39 643.72,-35.66 637.91,-32.67 632.01,-30.04"/>
<polygon fill="#63b8ff" stroke="#63b8ff" points="727.02,-114.38 736.18,-119.71 732.34,-109.83 727.02,-114.38"/>
</a>
</g>
</g>
<!-- Node3 -->
<g id="Node000003" class="node">
<title>Node3</title>
<g id="a_Node000003"><a xlink:href="../../de/dc6/classlamina_1_1AssumptionContext.html#a1ef00fa71deb1fb5ac6efd691795c532" target="_top" xlink:title="Query whether the expression is an integer. Throws std::invalid_argument if expression has null root.">
<polygon fill="white" stroke="#666666" points="484,-270 332,-270 332,-240 484,-240 484,-270"/>
<text text-anchor="start" x="340" y="-258" font-family="Helvetica,sans-Serif" font-size="10.00">lamina::AssumptionContext</text>
<text text-anchor="middle" x="408" y="-247" font-family="Helvetica,sans-Serif" font-size="10.00">::is_integer</text>
</a>
</g>
</g>
<!-- Node2&#45;&gt;Node3 -->
<g id="edge2_Node000002_Node000003" class="edge">
<title>Node2&#45;&gt;Node3</title>
<g id="a_edge2_Node000002_Node000003"><a xlink:title=" ">
<path fill="none" stroke="#63b8ff" d="M509.44,-255C501.09,-255 492.58,-255 484.22,-255"/>
<polygon fill="#63b8ff" stroke="#63b8ff" points="509.51,-258.5 519.51,-255 509.51,-251.5 509.51,-258.5"/>
</a>
</g>
</g>
<!-- Node5 -->
<g id="Node000005" class="node">
<title>Node5</title>
<g id="a_Node000005"><a xlink:href="../../de/dc6/classlamina_1_1AssumptionContext.html#a3a1efe2122d5b472d84f27dee17c338d" target="_top" xlink:title="Query whether the expression is negative (&lt; 0). Throws std::invalid_argument if expression has null r...">
<polygon fill="white" stroke="#666666" points="484,-222 332,-222 332,-192 484,-192 484,-222"/>
<text text-anchor="start" x="340" y="-210" font-family="Helvetica,sans-Serif" font-size="10.00">lamina::AssumptionContext</text>
<text text-anchor="middle" x="408" y="-199" font-family="Helvetica,sans-Serif" font-size="10.00">::is_negative</text>
</a>
</g>
</g>
<!-- Node4&#45;&gt;Node5 -->
<g id="edge4_Node000004_Node000005" class="edge">
<title>Node4&#45;&gt;Node5</title>
<g id="a_edge4_Node000004_Node000005"><a xlink:title=" ">
<path fill="none" stroke="#63b8ff" d="M509.44,-207C501.09,-207 492.58,-207 484.22,-207"/>
<polygon fill="#63b8ff" stroke="#63b8ff" points="509.51,-210.5 519.51,-207 509.51,-203.5 509.51,-210.5"/>
</a>
</g>
</g>
<!-- Node6 -->
<g id="Node000006" class="node">
<title>Node6</title>
<g id="a_Node000006"><a xlink:href="../../d3/da1/classNormalizationVisitor.html#a81a145ea2be5a0e09d9e407a8b64632a" target="_top" xlink:title="Attempt assumption&#45;based simplification on a node.">
<polygon fill="white" stroke="#666666" points="296,-126 153,-126 153,-96 296,-96 296,-126"/>
<text text-anchor="start" x="161" y="-114" font-family="Helvetica,sans-Serif" font-size="10.00">NormalizationVisitor</text>
<text text-anchor="middle" x="224.5" y="-103" font-family="Helvetica,sans-Serif" font-size="10.00">::try_assumption_simplify</text>
</a>
</g>
</g>
<!-- Node5&#45;&gt;Node6 -->
<g id="edge5_Node000005_Node000006" class="edge">
<title>Node5&#45;&gt;Node6</title>
<g id="a_edge5_Node000005_Node000006"><a xlink:title=" ">
<path fill="none" stroke="#63b8ff" d="M343.84,-188.25C339.79,-186.6 335.8,-184.85 332,-183 299.07,-167.01 264.63,-141.96 244.12,-126.02"/>
<polygon fill="#63b8ff" stroke="#63b8ff" points="342.82,-191.61 353.41,-191.92 345.33,-185.07 342.82,-191.61"/>
</a>
</g>
</g>
<!-- Node7 -->
<g id="Node000007" class="node">
<title>Node7</title>
<g id="a_Node000007"><a xlink:href="../../d3/da1/classNormalizationVisitor.html#a6ecd1e09442542f78ec6f55c51a79ee6" target="_top" xlink:title=" ">
<polygon fill="white" stroke="#666666" points="117,-126 0,-126 0,-96 117,-96 117,-126"/>
<text text-anchor="start" x="8" y="-114" font-family="Helvetica,sans-Serif" font-size="10.00">NormalizationVisitor</text>
<text text-anchor="middle" x="58.5" y="-103" font-family="Helvetica,sans-Serif" font-size="10.00">::visit</text>
</a>
</g>
</g>
<!-- Node6&#45;&gt;Node7 -->
<g id="edge6_Node000006_Node000007" class="edge">
<title>Node6&#45;&gt;Node7</title>
<g id="a_edge6_Node000006_Node000007"><a xlink:title=" ">
<path fill="none" stroke="#63b8ff" d="M142.83,-111C134.15,-111 125.44,-111 117.1,-111"/>
<polygon fill="#63b8ff" stroke="#63b8ff" points="143,-114.5 153,-111 143,-107.5 143,-114.5"/>
</a>
</g>
</g>
<!-- Node9 -->
<g id="Node000009" class="node">
<title>Node9</title>
<g id="a_Node000009"><a xlink:href="../../de/dc6/classlamina_1_1AssumptionContext.html#a058313a1e6c8bc770110df6ac6bec80b" target="_top" xlink:title="Query whether the expression is non&#45;negative (&gt;= 0). Throws std::invalid_argument if expression has n...">
<polygon fill="white" stroke="#666666" points="484,-174 332,-174 332,-144 484,-144 484,-174"/>
<text text-anchor="start" x="340" y="-162" font-family="Helvetica,sans-Serif" font-size="10.00">lamina::AssumptionContext</text>
<text text-anchor="middle" x="408" y="-151" font-family="Helvetica,sans-Serif" font-size="10.00">::is_nonnegative</text>
</a>
</g>
</g>
<!-- Node8&#45;&gt;Node9 -->
<g id="edge8_Node000008_Node000009" class="edge">
<title>Node8&#45;&gt;Node9</title>
<g id="a_edge8_Node000008_Node000009"><a xlink:title=" ">
<path fill="none" stroke="#63b8ff" d="M509.44,-159C501.09,-159 492.58,-159 484.22,-159"/>
<polygon fill="#63b8ff" stroke="#63b8ff" points="509.51,-162.5 519.51,-159 509.51,-155.5 509.51,-162.5"/>
</a>
</g>
</g>
<!-- Node9&#45;&gt;Node6 -->
<g id="edge9_Node000009_Node000006" class="edge">
<title>Node9&#45;&gt;Node6</title>
<g id="a_edge9_Node000009_Node000006"><a xlink:title=" ">
<path fill="none" stroke="#63b8ff" d="M340.26,-141.35C321.21,-136.31 300.63,-130.87 282.23,-126"/>
<polygon fill="#63b8ff" stroke="#63b8ff" points="339.51,-144.77 350.07,-143.94 341.3,-138 339.51,-144.77"/>
</a>
</g>
</g>
<!-- Node11 -->
<g id="Node000011" class="node">
<title>Node11</title>
<g id="a_Node000011"><a xlink:href="../../de/dc6/classlamina_1_1AssumptionContext.html#ab252114dfac3af39873b383a4fd8d5ce" target="_top" xlink:title="Query whether the expression is non&#45;zero (!= 0). Throws std::invalid_argument if expression has null ...">
<polygon fill="white" stroke="#666666" points="484,-126 332,-126 332,-96 484,-96 484,-126"/>
<text text-anchor="start" x="340" y="-114" font-family="Helvetica,sans-Serif" font-size="10.00">lamina::AssumptionContext</text>
<text text-anchor="middle" x="408" y="-103" font-family="Helvetica,sans-Serif" font-size="10.00">::is_nonzero</text>
</a>
</g>
</g>
<!-- Node10&#45;&gt;Node11 -->
<g id="edge11_Node000010_Node000011" class="edge">
<title>Node10&#45;&gt;Node11</title>
<g id="a_edge11_Node000010_Node000011"><a xlink:title=" ">
<path fill="none" stroke="#63b8ff" d="M509.44,-111C501.09,-111 492.58,-111 484.22,-111"/>
<polygon fill="#63b8ff" stroke="#63b8ff" points="509.51,-114.5 519.51,-111 509.51,-107.5 509.51,-114.5"/>
</a>
</g>
</g>
<!-- Node13 -->
<g id="Node000013" class="node">
<title>Node13</title>
<g id="a_Node000013"><a xlink:href="../../de/dc6/classlamina_1_1AssumptionContext.html#a985e1b8c2b537f9eae6544d1d3a451cf" target="_top" xlink:title="Query whether the expression is positive (&gt; 0). Throws std::invalid_argument if expression has null r...">
<polygon fill="white" stroke="#666666" points="484,-78 332,-78 332,-48 484,-48 484,-78"/>
<text text-anchor="start" x="340" y="-66" font-family="Helvetica,sans-Serif" font-size="10.00">lamina::AssumptionContext</text>
<text text-anchor="middle" x="408" y="-55" font-family="Helvetica,sans-Serif" font-size="10.00">::is_positive</text>
</a>
</g>
</g>
<!-- Node12&#45;&gt;Node13 -->
<g id="edge13_Node000012_Node000013" class="edge">
<title>Node12&#45;&gt;Node13</title>
<g id="a_edge13_Node000012_Node000013"><a xlink:title=" ">
<path fill="none" stroke="#63b8ff" d="M509.44,-63C501.09,-63 492.58,-63 484.22,-63"/>
<polygon fill="#63b8ff" stroke="#63b8ff" points="509.51,-66.5 519.51,-63 509.51,-59.5 509.51,-66.5"/>
</a>
</g>
</g>
<!-- Node13&#45;&gt;Node6 -->
<g id="edge14_Node000013_Node000006" class="edge">
<title>Node13&#45;&gt;Node6</title>
<g id="a_edge14_Node000013_Node000006"><a xlink:title=" ">
<path fill="none" stroke="#63b8ff" d="M340.26,-80.65C321.21,-85.69 300.63,-91.13 282.23,-96"/>
<polygon fill="#63b8ff" stroke="#63b8ff" points="341.3,-84 350.07,-78.06 339.51,-77.23 341.3,-84"/>
</a>
</g>
</g>
<!-- Node15 -->
<g id="Node000015" class="node">
<title>Node15</title>
<g id="a_Node000015"><a xlink:href="../../de/dc6/classlamina_1_1AssumptionContext.html#a80501335571adda29c5d63863f3baabc" target="_top" xlink:title="Query whether the expression is real. Throws std::invalid_argument if expression has null root.">
<polygon fill="white" stroke="#666666" points="484,-30 332,-30 332,0 484,0 484,-30"/>
<text text-anchor="start" x="340" y="-18" font-family="Helvetica,sans-Serif" font-size="10.00">lamina::AssumptionContext</text>
<text text-anchor="middle" x="408" y="-7" font-family="Helvetica,sans-Serif" font-size="10.00">::is_real</text>
</a>
</g>
</g>
<!-- Node14&#45;&gt;Node15 -->
<g id="edge16_Node000014_Node000015" class="edge">
<title>Node14&#45;&gt;Node15</title>
<g id="a_edge16_Node000014_Node000015"><a xlink:title=" ">
<path fill="none" stroke="#63b8ff" d="M509.44,-15C501.09,-15 492.58,-15 484.22,-15"/>
<polygon fill="#63b8ff" stroke="#63b8ff" points="509.51,-18.5 519.51,-15 509.51,-11.5 509.51,-18.5"/>
</a>
</g>
</g>
<!-- Node15&#45;&gt;Node6 -->
<g id="edge17_Node000015_Node000006" class="edge">
<title>Node15&#45;&gt;Node6</title>
<g id="a_edge17_Node000015_Node000006"><a xlink:title=" ">
<path fill="none" stroke="#63b8ff" d="M343.84,-33.75C339.79,-35.4 335.8,-37.15 332,-39 299.07,-54.99 264.63,-80.04 244.12,-95.98"/>
<polygon fill="#63b8ff" stroke="#63b8ff" points="345.33,-36.93 353.41,-30.08 342.82,-30.39 345.33,-36.93"/>
</a>
</g>
</g>
</g>
</svg>

<g id="navigator" transform="translate(0 0)" fill="#404254">
  <rect fill="#f2f5e9" fill-opacity="0.5" stroke="#606060" stroke-width=".5" x="0" y="0" width="60" height="60"/>
  <use id="zoomplus" xlink:href="#zoomPlus" x="17" y="9" onmousedown="handleZoom(evt,'in')"/>
  <use id="zoomminus" xlink:href="#zoomMin" x="42" y="9" onmousedown="handleZoom(evt,'out')"/>
  <use id="reset" xlink:href="#resetDef" x="30" y="36" onmousedown="handleReset()"/>
   <use id="arrowup" xlink:href="#arrowUp" x="0" y="0" onmousedown="handlePan(0,-1)"/>
  <use id="arrowright" xlink:href="#arrowRight" x="0" y="0" onmousedown="handlePan(1,0)"/>
  <use id="arrowdown" xlink:href="#arrowDown" x="0" y="0" onmousedown="handlePan(0,1)"/>
  <use id="arrowleft" xlink:href="#arrowLeft" x="0" y="0" onmousedown="handlePan(-1,0)"/>
</g>
<svg viewBox="0 0 15 15" width="100%" height="30px" preserveAspectRatio="xMaxYMin meet">
 <g id="arrow_out" transform="scale(0.3 0.3)">
  <a xlink:href="classlamina_1_1QueryInterface_a82a0d75965613bcf0d3e31f159cea0a7_icgraph_org.svg" target="_base">
   <rect id="button" ry="5" rx="5" y="6" x="6" height="38" width="38"
        fill="#f2f5e9" fill-opacity="0.5" stroke="#606060" stroke-width="1.0"/>
   <path id="arrow"
     d="M 11.500037,31.436501 C 11.940474,20.09759 22.043105,11.32322 32.158766,21.979434 L 37.068811,17.246167 C 37.068811,17.246167 37.088388,32 37.088388,32 L 22.160133,31.978069 C 22.160133,31.978069 26.997745,27.140456 26.997745,27.140456 C 18.528582,18.264221 13.291696,25.230495 11.500037,31.436501 z"
     style="fill:#404040;"/>
  </a>
 </g>
</svg>

<style type='text/css'>
<![CDATA[
[data-mouse-over-selected='false'] { opacity: 0.7; }
[data-mouse-over-selected='true']  { opacity: 1.0; }
]]>
</style>
<script type="application/ecmascript"><![CDATA[
document.addEventListener('DOMContentLoaded', (event) => {
  highlightEdges();
  highlightAdjacentNodes();
});
]]></script>
</svg>
