<?xml version="1.0" encoding="UTF-8" standalone="no"?>
<!DOCTYPE svg PUBLIC "-//W3C//DTD SVG 1.1//EN"
 "http://www.w3.org/Graphics/SVG/1.1/DTD/svg11.dtd">
<!-- Generated by graphviz version 2.43.0 (0)
 -->
<!-- Title: lamina::QueryInterface::get_infinity_sign Pages: 1 -->
<svg width="822pt" height="134pt"
 viewBox="0.00 0.00 822.00 134.00" xmlns="http://www.w3.org/2000/svg" xmlns:xlink="http://www.w3.org/1999/xlink">
<g id="graph0" class="graph" transform="scale(1 1) rotate(0) translate(4 130)">
<title>lamina::QueryInterface::get_infinity_sign</title>
<!-- Node1 -->
<g id="Node000001" class="node">
<title>Node1</title>
<g id="a_Node000001"><a xlink:title="Determine the sign of an infinity expression. Positive infinity: FunctionNode::Infinity directly....">
<polygon fill="#999999" stroke="#666666" points="814,-78 685,-78 685,-48 814,-48 814,-78"/>
<text text-anchor="start" x="693" y="-66" font-family="Helvetica,sans-Serif" font-size="10.00">lamina::QueryInterface</text>
<text text-anchor="middle" x="749.5" y="-55" font-family="Helvetica,sans-Serif" font-size="10.00">::get_infinity_sign</text>
</a>
</g>
</g>
<!-- Node2 -->
<g id="Node000002" class="node">
<title>Node2</title>
<g id="a_Node000002"><a xlink:href="../../df/de3/classlamina_1_1QueryInterface.html#a02435013d0e45b41448daf38d6e10168" target="_top" xlink:title="Query whether the expression is negative (&lt; 0).">
<polygon fill="white" stroke="#666666" points="649,-126 520,-126 520,-96 649,-96 649,-126"/>
<text text-anchor="start" x="528" y="-114" font-family="Helvetica,sans-Serif" font-size="10.00">lamina::QueryInterface</text>
<text text-anchor="middle" x="584.5" y="-103" font-family="Helvetica,sans-Serif" font-size="10.00">::query_negative</text>
</a>
</g>
</g>
<!-- Node1&#45;&gt;Node2 -->
<g id="edge1_Node000001_Node000002" class="edge">
<title>Node1&#45;&gt;Node2</title>
<g id="a_edge1_Node000001_Node000002"><a xlink:title=" ">
<path fill="none" stroke="#63b8ff" d="M687.62,-80.93C670.77,-85.89 652.67,-91.22 636.45,-96"/>
<polygon fill="#63b8ff" stroke="#63b8ff" points="688.77,-84.24 697.37,-78.06 686.79,-77.52 688.77,-84.24"/>
</a>
</g>
</g>
<!-- Node6 -->
<g id="Node000006" class="node">
<title>Node6</title>
<g id="a_Node000006"><a xlink:href="../../df/de3/classlamina_1_1QueryInterface.html#a722bd1e182daa18d6ffbb2463ce9f929" target="_top" xlink:title="Query whether the expression is non&#45;negative (&gt;= 0).">
<polygon fill="white" stroke="#666666" points="649,-78 520,-78 520,-48 649,-48 649,-78"/>
<text text-anchor="start" x="528" y="-66" font-family="Helvetica,sans-Serif" font-size="10.00">lamina::QueryInterface</text>
<text text-anchor="middle" x="584.5" y="-55" font-family="Helvetica,sans-Serif" font-size="10.00">::query_nonnegative</text>
</a>
</g>
</g>
<!-- Node1&#45;&gt;Node6 -->
<g id="edge5_Node000001_Node000006" class="edge">
<title>Node1&#45;&gt;Node6</title>
<g id="a_edge5_Node000001_Node000006"><a xlink:title=" ">
<path fill="none" stroke="#63b8ff" d="M674.31,-63C665.86,-63 657.3,-63 649,-63"/>
<polygon fill="#63b8ff" stroke="#63b8ff" points="674.55,-66.5 684.55,-63 674.55,-59.5 674.55,-66.5"/>
</a>
</g>
</g>
<!-- Node8 -->
<g id="Node000008" class="node">
<title>Node8</title>
<g id="a_Node000008"><a xlink:href="../../df/de3/classlamina_1_1QueryInterface.html#a8a7a7101f1dd840cfea275e3bbc0a3d3" target="_top" xlink:title="Query whether the expression is positive (&gt; 0).">
<polygon fill="white" stroke="#666666" points="649,-30 520,-30 520,0 649,0 649,-30"/>
<text text-anchor="start" x="528" y="-18" font-family="Helvetica,sans-Serif" font-size="10.00">lamina::QueryInterface</text>
<text text-anchor="middle" x="584.5" y="-7" font-family="Helvetica,sans-Serif" font-size="10.00">::query_positive</text>
</a>
</g>
</g>
<!-- Node1&#45;&gt;Node8 -->
<g id="edge8_Node000001_Node000008" class="edge">
<title>Node1&#45;&gt;Node8</title>
<g id="a_edge8_Node000001_Node000008"><a xlink:title=" ">
<path fill="none" stroke="#63b8ff" d="M687.62,-45.07C670.77,-40.11 652.67,-34.78 636.45,-30"/>
<polygon fill="#63b8ff" stroke="#63b8ff" points="686.79,-48.48 697.37,-47.94 688.77,-41.76 686.79,-48.48"/>
</a>
</g>
</g>
<!-- Node3 -->
<g id="Node000003" class="node">
<title>Node3</title>
<g id="a_Node000003"><a xlink:href="../../de/dc6/classlamina_1_1AssumptionContext.html#a3a1efe2122d5b472d84f27dee17c338d" target="_top" xlink:title="Query whether the expression is negative (&lt; 0). Throws std::invalid_argument if expression has null r...">
<polygon fill="white" stroke="#666666" points="484,-126 332,-126 332,-96 484,-96 484,-126"/>
<text text-anchor="start" x="340" y="-114" font-family="Helvetica,sans-Serif" font-size="10.00">lamina::AssumptionContext</text>
<text text-anchor="middle" x="408" y="-103" font-family="Helvetica,sans-Serif" font-size="10.00">::is_negative</text>
</a>
</g>
</g>
<!-- Node2&#45;&gt;Node3 -->
<g id="edge2_Node000002_Node000003" class="edge">
<title>Node2&#45;&gt;Node3</title>
<g id="a_edge2_Node000002_Node000003"><a xlink:title=" ">
<path fill="none" stroke="#63b8ff" d="M509.44,-111C501.09,-111 492.58,-111 484.22,-111"/>
<polygon fill="#63b8ff" stroke="#63b8ff" points="509.51,-114.5 519.51,-111 509.51,-107.5 509.51,-114.5"/>
</a>
</g>
</g>
<!-- Node4 -->
<g id="Node000004" class="node">
<title>Node4</title>
<g id="a_Node000004"><a xlink:href="../../d3/da1/classNormalizationVisitor.html#a81a145ea2be5a0e09d9e407a8b64632a" target="_top" xlink:title="Attempt assumption&#45;based simplification on a node.">
<polygon fill="white" stroke="#666666" points="296,-78 153,-78 153,-48 296,-48 296,-78"/>
<text text-anchor="start" x="161" y="-66" font-family="Helvetica,sans-Serif" font-size="10.00">NormalizationVisitor</text>
<text text-anchor="middle" x="224.5" y="-55" font-family="Helvetica,sans-Serif" font-size="10.00">::try_assumption_simplify</text>
</a>
</g>
</g>
<!-- Node3&#45;&gt;Node4 -->
<g id="edge3_Node000003_Node000004" class="edge">
<title>Node3&#45;&gt;Node4</title>
<g id="a_edge3_Node000003_Node000004"><a xlink:title=" ">
<path fill="none" stroke="#63b8ff" d="M340.26,-93.35C321.21,-88.31 300.63,-82.87 282.23,-78"/>
<polygon fill="#63b8ff" stroke="#63b8ff" points="339.51,-96.77 350.07,-95.94 341.3,-90 339.51,-96.77"/>
</a>
</g>
</g>
<!-- Node5 -->
<g id="Node000005" class="node">
<title>Node5</title>
<g id="a_Node000005"><a xlink:href="../../d3/da1/classNormalizationVisitor.html#a6ecd1e09442542f78ec6f55c51a79ee6" target="_top" xlink:title=" ">
<polygon fill="white" stroke="#666666" points="117,-78 0,-78 0,-48 117,-48 117,-78"/>
<text text-anchor="start" x="8" y="-66" font-family="Helvetica,sans-Serif" font-size="10.00">NormalizationVisitor</text>
<text text-anchor="middle" x="58.5" y="-55" font-family="Helvetica,sans-Serif" font-size="10.00">::visit</text>
</a>
</g>
</g>
<!-- Node4&#45;&gt;Node5 -->
<g id="edge4_Node000004_Node000005" class="edge">
<title>Node4&#45;&gt;Node5</title>
<g id="a_edge4_Node000004_Node000005"><a xlink:title=" ">
<path fill="none" stroke="#63b8ff" d="M142.83,-63C134.15,-63 125.44,-63 117.1,-63"/>
<polygon fill="#63b8ff" stroke="#63b8ff" points="143,-66.5 153,-63 143,-59.5 143,-66.5"/>
</a>
</g>
</g>
<!-- Node7 -->
<g id="Node000007" class="node">
<title>Node7</title>
<g id="a_Node000007"><a xlink:href="../../de/dc6/classlamina_1_1AssumptionContext.html#a058313a1e6c8bc770110df6ac6bec80b" target="_top" xlink:title="Query whether the expression is non&#45;negative (&gt;= 0). Throws std::invalid_argument if expression has n...">
<polygon fill="white" stroke="#666666" points="484,-78 332,-78 332,-48 484,-48 484,-78"/>
<text text-anchor="start" x="340" y="-66" font-family="Helvetica,sans-Serif" font-size="10.00">lamina::AssumptionContext</text>
<text text-anchor="middle" x="408" y="-55" font-family="Helvetica,sans-Serif" font-size="10.00">::is_nonnegative</text>
</a>
</g>
</g>
<!-- Node6&#45;&gt;Node7 -->
<g id="edge6_Node000006_Node000007" class="edge">
<title>Node6&#45;&gt;Node7</title>
<g id="a_edge6_Node000006_Node000007"><a xlink:title=" ">
<path fill="none" stroke="#63b8ff" d="M509.44,-63C501.09,-63 492.58,-63 484.22,-63"/>
<polygon fill="#63b8ff" stroke="#63b8ff" points="509.51,-66.5 519.51,-63 509.51,-59.5 509.51,-66.5"/>
</a>
</g>
</g>
<!-- Node7&#45;&gt;Node4 -->
<g id="edge7_Node000007_Node000004" class="edge">
<title>Node7&#45;&gt;Node4</title>
<g id="a_edge7_Node000007_Node000004"><a xlink:title=" ">
<path fill="none" stroke="#63b8ff" d="M321.84,-63C313.26,-63 304.61,-63 296.21,-63"/>
<polygon fill="#63b8ff" stroke="#63b8ff" points="321.87,-66.5 331.87,-63 321.87,-59.5 321.87,-66.5"/>
</a>
</g>
</g>
<!-- Node9 -->
<g id="Node000009" class="node">
<title>Node9</title>
<g id="a_Node000009"><a xlink:href="../../de/dc6/classlamina_1_1AssumptionContext.html#a985e1b8c2b537f9eae6544d1d3a451cf" target="_top" xlink:title="Query whether the expression is positive (&gt; 0). Throws std::invalid_argument if expression has null r...">
<polygon fill="white" stroke="#666666" points="484,-30 332,-30 332,0 484,0 484,-30"/>
<text text-anchor="start" x="340" y="-18" font-family="Helvetica,sans-Serif" font-size="10.00">lamina::AssumptionContext</text>
<text text-anchor="middle" x="408" y="-7" font-family="Helvetica,sans-Serif" font-size="10.00">::is_positive</text>
</a>
</g>
</g>
<!-- Node8&#45;&gt;Node9 -->
<g id="edge9_Node000008_Node000009" class="edge">
<title>Node8&#45;&gt;Node9</title>
<g id="a_edge9_Node000008_Node000009"><a xlink:title=" ">
<path fill="none" stroke="#63b8ff" d="M509.44,-15C501.09,-15 492.58,-15 484.22,-15"/>
<polygon fill="#63b8ff" stroke="#63b8ff" points="509.51,-18.5 519.51,-15 509.51,-11.5 509.51,-18.5"/>
</a>
</g>
</g>
<!-- Node9&#45;&gt;Node4 -->
<g id="edge10_Node000009_Node000004" class="edge">
<title>Node9&#45;&gt;Node4</title>
<g id="a_edge10_Node000009_Node000004"><a xlink:title=" ">
<path fill="none" stroke="#63b8ff" d="M340.26,-32.65C321.21,-37.69 300.63,-43.13 282.23,-48"/>
<polygon fill="#63b8ff" stroke="#63b8ff" points="341.3,-36 350.07,-30.06 339.51,-29.23 341.3,-36"/>
</a>
</g>
</g>
</g>
</svg>
