<?xml version="1.0" encoding="UTF-8" standalone="no"?>
<!DOCTYPE svg PUBLIC "-//W3C//DTD SVG 1.1//EN"
 "http://www.w3.org/Graphics/SVG/1.1/DTD/svg11.dtd">
<!-- Generated by graphviz version 2.43.0 (0)
 -->
<!-- Title: lamina::detail::GaussianEliminator::add_vector Pages: 1 -->
<svg width="464pt" height="38pt"
 viewBox="0.00 0.00 464.00 38.00" xmlns="http://www.w3.org/2000/svg" xmlns:xlink="http://www.w3.org/1999/xlink">
<g id="graph0" class="graph" transform="scale(1 1) rotate(0) translate(4 34)">
<title>lamina::detail::GaussianEliminator::add_vector</title>
<!-- Node1 -->
<g id="Node000001" class="node">
<title>Node1</title>
<g id="a_Node000001"><a xlink:title="尝试将向量加入行空间">
<polygon fill="#999999" stroke="#666666" points="456,-30 321,-30 321,0 456,0 456,-30"/>
<text text-anchor="start" x="329" y="-18" font-family="Helvetica,sans-Serif" font-size="10.00">lamina::detail::Gaussian</text>
<text text-anchor="middle" x="388.5" y="-7" font-family="Helvetica,sans-Serif" font-size="10.00">Eliminator::add_vector</text>
</a>
</g>
</g>
<!-- Node2 -->
<g id="Node000002" class="node">
<title>Node2</title>
<g id="a_Node000002"><a xlink:href="../../d1/d42/namespacelamina.html#a387809128cf1f5566dde45ba3b8738f6" target="_top" xlink:title="FGLM 算法：将零维理想的 Gröbner 基从源序转换到目标序">
<polygon fill="white" stroke="#666666" points="285,-24.5 164,-24.5 164,-5.5 285,-5.5 285,-24.5"/>
<text text-anchor="middle" x="224.5" y="-12.5" font-family="Helvetica,sans-Serif" font-size="10.00">lamina::fglm_convert</text>
</a>
</g>
</g>
<!-- Node1&#45;&gt;Node2 -->
<g id="edge1_Node000001_Node000002" class="edge">
<title>Node1&#45;&gt;Node2</title>
<g id="a_edge1_Node000001_Node000002"><a xlink:title=" ">
<path fill="none" stroke="#63b8ff" d="M310.67,-15C302.11,-15 293.48,-15 285.17,-15"/>
<polygon fill="#63b8ff" stroke="#63b8ff" points="310.67,-18.5 320.67,-15 310.67,-11.5 310.67,-18.5"/>
</a>
</g>
</g>
<!-- Node3 -->
<g id="Node000003" class="node">
<title>Node3</title>
<g id="a_Node000003"><a xlink:href="../../d1/d42/namespacelamina.html#a4db520f151a16a160e64695caf60f9ac" target="_top" xlink:title="将 GrevLex 序下的 Gröbner 基转换为 Lex 序">
<polygon fill="white" stroke="#666666" points="128,-24.5 0,-24.5 0,-5.5 128,-5.5 128,-24.5"/>
<text text-anchor="middle" x="64" y="-12.5" font-family="Helvetica,sans-Serif" font-size="10.00">lamina::grevlex_to_lex</text>
</a>
</g>
</g>
<!-- Node2&#45;&gt;Node3 -->
<g id="edge2_Node000002_Node000003" class="edge">
<title>Node2&#45;&gt;Node3</title>
<g id="a_edge2_Node000002_Node000003"><a xlink:title=" ">
<path fill="none" stroke="#63b8ff" d="M153.42,-15C145.02,-15 136.48,-15 128.18,-15"/>
<polygon fill="#63b8ff" stroke="#63b8ff" points="153.58,-18.5 163.58,-15 153.58,-11.5 153.58,-18.5"/>
</a>
</g>
</g>
</g>
</svg>
