<?xml version="1.0" encoding="UTF-8" standalone="no"?>
<!DOCTYPE svg PUBLIC "-//W3C//DTD SVG 1.1//EN"
 "http://www.w3.org/Graphics/SVG/1.1/DTD/svg11.dtd">
<!-- Generated by graphviz version 2.43.0 (0)
 -->
<!-- Title: count_factors Pages: 1 -->
<svg width="411pt" height="86pt"
 viewBox="0.00 0.00 411.00 86.00" xmlns="http://www.w3.org/2000/svg" xmlns:xlink="http://www.w3.org/1999/xlink">

<svg id="main" version="1.1" xmlns="http://www.w3.org/2000/svg" xmlns:xlink="http://www.w3.org/1999/xlink" xml:space="preserve" onload="init(evt)">
<style type="text/css"><![CDATA[
.node, .edge {opacity: 0.7;}
.node.selected, .edge.selected {opacity: 1;}
.edge:hover path { stroke: red; }
.edge:hover polygon { stroke: red; fill: red; }
]]></style>
<script type="application/ecmascript" xlink:href="../../svg.min.js"/>
<svg id="graph" class="graph">
<g id="graph0" class="graph" transform="scale(1 1) rotate(0) translate(4 82)">
<title>count_factors</title>
<!-- Node1 -->
<g id="Node000001" class="node">
<title>Node1</title>
<g id="a_Node000001"><a xlink:title=" ">
<polygon fill="#999999" stroke="#666666" points="403,-48.5 320,-48.5 320,-29.5 403,-29.5 403,-48.5"/>
<text text-anchor="middle" x="361.5" y="-36.5" font-family="Helvetica,sans-Serif" font-size="10.00">count_factors</text>
</a>
</g>
</g>
<!-- Node2 -->
<g id="Node000002" class="node">
<title>Node2</title>
<g id="a_Node000002"><a xlink:href="../../d5/d56/multinomial_8c.html#abfed94c16a1b2457fdb2e9b6088abbe9" target="_top" xlink:title=" ">
<polygon fill="white" stroke="#666666" points="284,-78 151,-78 151,-48 284,-48 284,-78"/>
<text text-anchor="start" x="159" y="-66" font-family="Helvetica,sans-Serif" font-size="10.00">lmmp_odd_multinomial</text>
<text text-anchor="middle" x="217.5" y="-55" font-family="Helvetica,sans-Serif" font-size="10.00">_uint_</text>
</a>
</g>
</g>
<!-- Node1&#45;&gt;Node2 -->
<g id="edge1_Node000001_Node000002" class="edge">
<title>Node1&#45;&gt;Node2</title>
<g id="a_edge1_Node000001_Node000002"><a xlink:title=" ">
<path fill="none" stroke="#63b8ff" d="M309.87,-47.56C301.53,-48.97 292.77,-50.45 284.13,-51.91"/>
<polygon fill="#63b8ff" stroke="#63b8ff" points="310.53,-51 319.81,-45.88 309.37,-44.09 310.53,-51"/>
</a>
</g>
</g>
<!-- Node4 -->
<g id="Node000004" class="node">
<title>Node4</title>
<g id="a_Node000004"><a xlink:href="../../d5/d56/multinomial_8c.html#a11c8136051f686246bfc1ac69d98e1bf" target="_top" xlink:title=" ">
<polygon fill="white" stroke="#666666" points="284,-30 151,-30 151,0 284,0 284,-30"/>
<text text-anchor="start" x="159" y="-18" font-family="Helvetica,sans-Serif" font-size="10.00">lmmp_odd_multinomial</text>
<text text-anchor="middle" x="217.5" y="-7" font-family="Helvetica,sans-Serif" font-size="10.00">_ushort_</text>
</a>
</g>
</g>
<!-- Node1&#45;&gt;Node4 -->
<g id="edge3_Node000001_Node000004" class="edge">
<title>Node1&#45;&gt;Node4</title>
<g id="a_edge3_Node000001_Node000004"><a xlink:title=" ">
<path fill="none" stroke="#63b8ff" d="M309.87,-30.44C301.53,-29.03 292.77,-27.55 284.13,-26.09"/>
<polygon fill="#63b8ff" stroke="#63b8ff" points="309.37,-33.91 319.81,-32.12 310.53,-27 309.37,-33.91"/>
</a>
</g>
</g>
<!-- Node3 -->
<g id="Node000003" class="node">
<title>Node3</title>
<g id="a_Node000003"><a xlink:href="../../d5/d56/multinomial_8c.html#afc3b233e0d09b1a7fb4a78f31cff001b" target="_top" xlink:title=" ">
<polygon fill="white" stroke="#666666" points="115,-48.5 0,-48.5 0,-29.5 115,-29.5 115,-48.5"/>
<text text-anchor="middle" x="57.5" y="-36.5" font-family="Helvetica,sans-Serif" font-size="10.00">lmmp_multinomial_</text>
</a>
</g>
</g>
<!-- Node2&#45;&gt;Node3 -->
<g id="edge2_Node000002_Node000003" class="edge">
<title>Node2&#45;&gt;Node3</title>
<g id="a_edge2_Node000002_Node000003"><a xlink:title=" ">
<path fill="none" stroke="#63b8ff" d="M140.78,-51.5C132.14,-50.19 123.45,-48.87 115.13,-47.6"/>
<polygon fill="#63b8ff" stroke="#63b8ff" points="140.45,-54.99 150.87,-53.03 141.51,-48.07 140.45,-54.99"/>
</a>
</g>
</g>
<!-- Node4&#45;&gt;Node3 -->
<g id="edge4_Node000004_Node000003" class="edge">
<title>Node4&#45;&gt;Node3</title>
<g id="a_edge4_Node000004_Node000003"><a xlink:title=" ">
<path fill="none" stroke="#63b8ff" d="M140.78,-26.5C132.14,-27.81 123.45,-29.13 115.13,-30.4"/>
<polygon fill="#63b8ff" stroke="#63b8ff" points="141.51,-29.93 150.87,-24.97 140.45,-23.01 141.51,-29.93"/>
</a>
</g>
</g>
</g>
</svg>
</svg>

<style type='text/css'>
<![CDATA[
[data-mouse-over-selected='false'] { opacity: 0.7; }
[data-mouse-over-selected='true']  { opacity: 1.0; }
]]>
</style>
<script type="application/ecmascript"><![CDATA[
document.addEventListener('DOMContentLoaded', (event) => {
  highlightEdges();
  highlightAdjacentNodes();
});
]]></script>
</svg>
