<?xml version="1.0" encoding="UTF-8" standalone="no"?>
<!DOCTYPE svg PUBLIC "-//W3C//DTD SVG 1.1//EN"
 "http://www.w3.org/Graphics/SVG/1.1/DTD/svg11.dtd">
<!-- Generated by graphviz version 2.43.0 (0)
 -->
<!-- Title: Irrational Pages: 1 -->
<svg width="374pt" height="1117pt"
 viewBox="0.00 0.00 373.50 1117.00" xmlns="http://www.w3.org/2000/svg" xmlns:xlink="http://www.w3.org/1999/xlink">
<g id="graph0" class="graph" transform="scale(1 1) rotate(0) translate(4 1113)">
<title>Irrational</title>
<!-- Node1 -->
<g id="Node000001" class="node">
<title>Node1</title>
<g id="a_Node000001"><a xlink:title="无理数表示类，支持 √n、π、e、log 及其线性组合的精确表示与运算">
<polygon fill="#999999" stroke="transparent" points="192.5,-788 38.5,-788 38.5,0 192.5,0 192.5,-788"/>
<text text-anchor="start" x="93" y="-776" font-family="Helvetica,sans-Serif" font-size="10.00">Irrational</text>
<text text-anchor="start" x="113.5" y="-761" font-family="Helvetica,sans-Serif" font-size="10.00"> </text>
<text text-anchor="start" x="42.5" y="-746" font-family="Helvetica,sans-Serif" font-size="10.00">+</text>
<text text-anchor="start" x="55.5" y="-746" font-family="Helvetica,sans-Serif" font-size="10.00">Irrational()</text>
<text text-anchor="start" x="42.5" y="-731" font-family="Helvetica,sans-Serif" font-size="10.00">+</text>
<text text-anchor="start" x="55.5" y="-731" font-family="Helvetica,sans-Serif" font-size="10.00">Irrational abs() const</text>
<text text-anchor="start" x="42.5" y="-716" font-family="Helvetica,sans-Serif" font-size="10.00">+</text>
<text text-anchor="start" x="55.5" y="-716" font-family="Helvetica,sans-Serif" font-size="10.00">Type get_type() const</text>
<text text-anchor="start" x="42.5" y="-701" font-family="Helvetica,sans-Serif" font-size="10.00">+</text>
<text text-anchor="start" x="55.5" y="-701" font-family="Helvetica,sans-Serif" font-size="10.00">bool is_negative()</text>
<text text-anchor="start" x="55.5" y="-690" font-family="Helvetica,sans-Serif" font-size="10.00"> const</text>
<text text-anchor="start" x="42.5" y="-675" font-family="Helvetica,sans-Serif" font-size="10.00">+</text>
<text text-anchor="start" x="55.5" y="-675" font-family="Helvetica,sans-Serif" font-size="10.00">bool is_positive()</text>
<text text-anchor="start" x="55.5" y="-664" font-family="Helvetica,sans-Serif" font-size="10.00"> const</text>
<text text-anchor="start" x="42.5" y="-649" font-family="Helvetica,sans-Serif" font-size="10.00">+</text>
<text text-anchor="start" x="55.5" y="-649" font-family="Helvetica,sans-Serif" font-size="10.00">bool is_rational()</text>
<text text-anchor="start" x="55.5" y="-638" font-family="Helvetica,sans-Serif" font-size="10.00"> const</text>
<text text-anchor="start" x="42.5" y="-623" font-family="Helvetica,sans-Serif" font-size="10.00">+</text>
<text text-anchor="start" x="55.5" y="-623" font-family="Helvetica,sans-Serif" font-size="10.00">bool is_zero() const</text>
<text text-anchor="start" x="42.5" y="-608" font-family="Helvetica,sans-Serif" font-size="10.00">+</text>
<text text-anchor="start" x="55.5" y="-608" font-family="Helvetica,sans-Serif" font-size="10.00">Irrational operator*</text>
<text text-anchor="start" x="55.5" y="-597" font-family="Helvetica,sans-Serif" font-size="10.00">(const Irrational &amp;other)</text>
<text text-anchor="start" x="55.5" y="-586" font-family="Helvetica,sans-Serif" font-size="10.00"> const</text>
<text text-anchor="start" x="42.5" y="-571" font-family="Helvetica,sans-Serif" font-size="10.00">+</text>
<text text-anchor="start" x="55.5" y="-571" font-family="Helvetica,sans-Serif" font-size="10.00">Irrational operator*</text>
<text text-anchor="start" x="55.5" y="-560" font-family="Helvetica,sans-Serif" font-size="10.00">(lmmc_real_t scalar) const</text>
<text text-anchor="start" x="42.5" y="-545" font-family="Helvetica,sans-Serif" font-size="10.00">+</text>
<text text-anchor="start" x="55.5" y="-545" font-family="Helvetica,sans-Serif" font-size="10.00">Irrational operator</text>
<text text-anchor="start" x="55.5" y="-534" font-family="Helvetica,sans-Serif" font-size="10.00">+(const Irrational &amp;other)</text>
<text text-anchor="start" x="55.5" y="-523" font-family="Helvetica,sans-Serif" font-size="10.00"> const</text>
<text text-anchor="start" x="42.5" y="-508" font-family="Helvetica,sans-Serif" font-size="10.00">+</text>
<text text-anchor="start" x="55.5" y="-508" font-family="Helvetica,sans-Serif" font-size="10.00">Irrational operator</text>
<text text-anchor="start" x="55.5" y="-497" font-family="Helvetica,sans-Serif" font-size="10.00">&#45;() const</text>
<text text-anchor="start" x="42.5" y="-482" font-family="Helvetica,sans-Serif" font-size="10.00">+</text>
<text text-anchor="start" x="55.5" y="-482" font-family="Helvetica,sans-Serif" font-size="10.00">Irrational operator</text>
<text text-anchor="start" x="55.5" y="-471" font-family="Helvetica,sans-Serif" font-size="10.00">&#45;(const Irrational &amp;other)</text>
<text text-anchor="start" x="55.5" y="-460" font-family="Helvetica,sans-Serif" font-size="10.00"> const</text>
<text text-anchor="start" x="42.5" y="-445" font-family="Helvetica,sans-Serif" font-size="10.00">+</text>
<text text-anchor="start" x="55.5" y="-445" font-family="Helvetica,sans-Serif" font-size="10.00">Irrational operator</text>
<text text-anchor="start" x="55.5" y="-434" font-family="Helvetica,sans-Serif" font-size="10.00">/(const Irrational &amp;other)</text>
<text text-anchor="start" x="55.5" y="-423" font-family="Helvetica,sans-Serif" font-size="10.00"> const</text>
<text text-anchor="start" x="42.5" y="-408" font-family="Helvetica,sans-Serif" font-size="10.00">+</text>
<text text-anchor="start" x="55.5" y="-408" font-family="Helvetica,sans-Serif" font-size="10.00">bool operator&lt;(const</text>
<text text-anchor="start" x="55.5" y="-397" font-family="Helvetica,sans-Serif" font-size="10.00"> Irrational &amp;other) const</text>
<text text-anchor="start" x="42.5" y="-382" font-family="Helvetica,sans-Serif" font-size="10.00">+</text>
<text text-anchor="start" x="55.5" y="-382" font-family="Helvetica,sans-Serif" font-size="10.00">bool operator&lt;=(const</text>
<text text-anchor="start" x="55.5" y="-371" font-family="Helvetica,sans-Serif" font-size="10.00"> Irrational &amp;other) const</text>
<text text-anchor="start" x="42.5" y="-356" font-family="Helvetica,sans-Serif" font-size="10.00">+</text>
<text text-anchor="start" x="55.5" y="-356" font-family="Helvetica,sans-Serif" font-size="10.00">bool operator==(const</text>
<text text-anchor="start" x="55.5" y="-345" font-family="Helvetica,sans-Serif" font-size="10.00"> Irrational &amp;other) const</text>
<text text-anchor="start" x="42.5" y="-330" font-family="Helvetica,sans-Serif" font-size="10.00">+</text>
<text text-anchor="start" x="55.5" y="-330" font-family="Helvetica,sans-Serif" font-size="10.00">bool operator&gt;(const</text>
<text text-anchor="start" x="55.5" y="-319" font-family="Helvetica,sans-Serif" font-size="10.00"> Irrational &amp;other) const</text>
<text text-anchor="start" x="42.5" y="-304" font-family="Helvetica,sans-Serif" font-size="10.00">+</text>
<text text-anchor="start" x="55.5" y="-304" font-family="Helvetica,sans-Serif" font-size="10.00">bool operator&gt;=(const</text>
<text text-anchor="start" x="55.5" y="-293" font-family="Helvetica,sans-Serif" font-size="10.00"> Irrational &amp;other) const</text>
<text text-anchor="start" x="42.5" y="-278" font-family="Helvetica,sans-Serif" font-size="10.00">+</text>
<text text-anchor="start" x="55.5" y="-278" font-family="Helvetica,sans-Serif" font-size="10.00">Irrational pow(int</text>
<text text-anchor="start" x="55.5" y="-267" font-family="Helvetica,sans-Serif" font-size="10.00"> exponent) const</text>
<text text-anchor="start" x="42.5" y="-252" font-family="Helvetica,sans-Serif" font-size="10.00">+</text>
<text text-anchor="start" x="55.5" y="-252" font-family="Helvetica,sans-Serif" font-size="10.00">void simplify()</text>
<text text-anchor="start" x="42.5" y="-237" font-family="Helvetica,sans-Serif" font-size="10.00">+</text>
<text text-anchor="start" x="55.5" y="-237" font-family="Helvetica,sans-Serif" font-size="10.00">void to_complex()</text>
<text text-anchor="start" x="42.5" y="-222" font-family="Helvetica,sans-Serif" font-size="10.00">+</text>
<text text-anchor="start" x="55.5" y="-222" font-family="Helvetica,sans-Serif" font-size="10.00">lmmc_real_t to_double</text>
<text text-anchor="start" x="55.5" y="-211" font-family="Helvetica,sans-Serif" font-size="10.00">() const</text>
<text text-anchor="start" x="42.5" y="-196" font-family="Helvetica,sans-Serif" font-size="10.00">+</text>
<text text-anchor="start" x="55.5" y="-196" font-family="Helvetica,sans-Serif" font-size="10.00">std::string to_string</text>
<text text-anchor="start" x="55.5" y="-185" font-family="Helvetica,sans-Serif" font-size="10.00">() const</text>
<text text-anchor="start" x="42.5" y="-170" font-family="Helvetica,sans-Serif" font-size="10.00">+</text>
<text text-anchor="start" x="55.5" y="-170" font-family="Helvetica,sans-Serif" font-size="10.00">std::shared_ptr&lt; Symbolic</text>
<text text-anchor="start" x="55.5" y="-159" font-family="Helvetica,sans-Serif" font-size="10.00">Expr &gt; to_symbolic() const</text>
<text text-anchor="start" x="42.5" y="-144" font-family="Helvetica,sans-Serif" font-size="10.00">+</text>
<text text-anchor="start" x="55.5" y="-144" font-family="Helvetica,sans-Serif" font-size="10.00">static Irrational constant</text>
<text text-anchor="start" x="55.5" y="-133" font-family="Helvetica,sans-Serif" font-size="10.00">(lmmc_real_t value)</text>
<text text-anchor="start" x="42.5" y="-118" font-family="Helvetica,sans-Serif" font-size="10.00">+</text>
<text text-anchor="start" x="55.5" y="-118" font-family="Helvetica,sans-Serif" font-size="10.00">static Irrational e</text>
<text text-anchor="start" x="55.5" y="-107" font-family="Helvetica,sans-Serif" font-size="10.00">(lmmc_real_t coeff=1.0)</text>
<text text-anchor="start" x="42.5" y="-92" font-family="Helvetica,sans-Serif" font-size="10.00">+</text>
<text text-anchor="start" x="55.5" y="-92" font-family="Helvetica,sans-Serif" font-size="10.00">static Irrational pi</text>
<text text-anchor="start" x="55.5" y="-81" font-family="Helvetica,sans-Serif" font-size="10.00">(lmmc_real_t coeff=1.0)</text>
<text text-anchor="start" x="42.5" y="-66" font-family="Helvetica,sans-Serif" font-size="10.00">+</text>
<text text-anchor="start" x="55.5" y="-66" font-family="Helvetica,sans-Serif" font-size="10.00">static Irrational sqrt</text>
<text text-anchor="start" x="55.5" y="-55" font-family="Helvetica,sans-Serif" font-size="10.00">(long long n, lmmc_real</text>
<text text-anchor="start" x="55.5" y="-44" font-family="Helvetica,sans-Serif" font-size="10.00">_t coeff=1.0)</text>
<text text-anchor="start" x="45" y="-29" font-family="Helvetica,sans-Serif" font-size="10.00">&#45;</text>
<text text-anchor="start" x="55.5" y="-29" font-family="Helvetica,sans-Serif" font-size="10.00">static std::pair&lt; long</text>
<text text-anchor="start" x="55.5" y="-18" font-family="Helvetica,sans-Serif" font-size="10.00"> long, long long &gt; simplify</text>
<text text-anchor="start" x="55.5" y="-7" font-family="Helvetica,sans-Serif" font-size="10.00">_sqrt(long long n)</text>
<polygon fill="#666666" stroke="#666666" points="38.5,-771 38.5,-771 192.5,-771 192.5,-771 38.5,-771"/>
<polygon fill="#666666" stroke="#666666" points="38.5,-756 38.5,-756 192.5,-756 192.5,-756 38.5,-756"/>
<polygon fill="none" stroke="#666666" points="38.5,0 38.5,-788 192.5,-788 192.5,0 38.5,0"/>
</a>
</g>
</g>
<!-- Node2 -->
<g id="Node000002" class="node">
<title>Node2</title>
<g id="a_Node000002"><a xlink:title=" ">
<polygon fill="white" stroke="transparent" points="33,-889.5 0,-889.5 0,-840.5 33,-840.5 33,-889.5"/>
<text text-anchor="start" x="5.5" y="-877" font-family="Helvetica,sans-Serif" font-size="10.00">Type</text>
<text text-anchor="start" x="15" y="-862" font-family="Helvetica,sans-Serif" font-size="10.00"> </text>
<text text-anchor="start" x="15" y="-847" font-family="Helvetica,sans-Serif" font-size="10.00"> </text>
<polygon fill="#666666" stroke="#666666" points="0.5,-872 0.5,-872 33.5,-872 33.5,-872 0.5,-872"/>
<polygon fill="#666666" stroke="#666666" points="0.5,-857 0.5,-857 33.5,-857 33.5,-857 0.5,-857"/>
<polygon fill="none" stroke="#666666" points="0,-840.5 0,-889.5 33,-889.5 33,-840.5 0,-840.5"/>
</a>
</g>
</g>
<!-- Node2&#45;&gt;Node1 -->
<g id="edge1_Node000001_Node000002" class="edge">
<title>Node2&#45;&gt;Node1</title>
<g id="a_edge1_Node000001_Node000002"><a xlink:title=" ">
<path fill="none" stroke="#63b8ff" d="M20.36,-840.25C22.13,-829.74 24.32,-817.23 26.5,-806 29.57,-790.21 32.77,-774.1 36.05,-757.83"/>
<polygon fill="none" stroke="#63b8ff" points="36.08,-757.72 33.35,-751.05 38.46,-745.96 41.19,-752.64 36.08,-757.72"/>
</a>
</g>
<text text-anchor="middle" x="41" y="-809" font-family="Helvetica,sans-Serif" font-size="10.00" fill="grey"> &#45;type</text>
</g>
<!-- Node3 -->
<g id="Node000003" class="node">
<title>Node3</title>
<g id="a_Node000003"><a xlink:title=" ">
<polygon fill="white" stroke="transparent" points="120,-1002 49,-1002 49,-953 120,-953 120,-1002"/>
<text text-anchor="start" x="54.5" y="-989.5" font-family="Helvetica,sans-Serif" font-size="10.00">lmmc_real_t</text>
<text text-anchor="start" x="83" y="-974.5" font-family="Helvetica,sans-Serif" font-size="10.00"> </text>
<text text-anchor="start" x="83" y="-959.5" font-family="Helvetica,sans-Serif" font-size="10.00"> </text>
<polygon fill="#666666" stroke="#666666" points="49.5,-984.5 49.5,-984.5 120.5,-984.5 120.5,-984.5 49.5,-984.5"/>
<polygon fill="#666666" stroke="#666666" points="49.5,-969.5 49.5,-969.5 120.5,-969.5 120.5,-969.5 49.5,-969.5"/>
<polygon fill="none" stroke="#666666" points="49,-953 49,-1002 120,-1002 120,-953 49,-953"/>
</a>
</g>
</g>
<!-- Node3&#45;&gt;Node1 -->
<g id="edge2_Node000001_Node000003" class="edge">
<title>Node3&#45;&gt;Node1</title>
<g id="a_edge2_Node000001_Node000003"><a xlink:title=" ">
<path fill="none" stroke="#63b8ff" d="M82.31,-952.99C80.91,-936.72 79.22,-914.57 78.5,-895 77.52,-868.35 77.38,-861.64 78.5,-835 78.98,-823.56 79.53,-811.96 80.14,-800.25"/>
<polygon fill="none" stroke="#63b8ff" points="80.15,-800 76.48,-793.79 80.8,-788.01 84.47,-794.22 80.15,-800"/>
</a>
</g>
<text text-anchor="middle" x="116" y="-868" font-family="Helvetica,sans-Serif" font-size="10.00" fill="grey"> &#45;coefficient</text>
<text text-anchor="middle" x="116" y="-857" font-family="Helvetica,sans-Serif" font-size="10.00" fill="grey">&#45;constant_term</text>
</g>
<!-- Node5 -->
<g id="Node000005" class="node">
<title>Node5</title>
<g id="a_Node000005"><a xlink:title=" ">
<polygon fill="white" stroke="transparent" points="278.5,-895 162.5,-895 162.5,-835 278.5,-835 278.5,-895"/>
<text text-anchor="start" x="167.5" y="-883" font-family="Helvetica,sans-Serif" font-size="10.00">std::map&lt; std::string,</text>
<text text-anchor="start" x="182.5" y="-872" font-family="Helvetica,sans-Serif" font-size="10.00"> lmmc_real_t &gt;</text>
<text text-anchor="start" x="218.5" y="-857" font-family="Helvetica,sans-Serif" font-size="10.00"> </text>
<text text-anchor="start" x="218.5" y="-842" font-family="Helvetica,sans-Serif" font-size="10.00"> </text>
<polygon fill="#666666" stroke="#666666" points="162.5,-867 162.5,-867 278.5,-867 278.5,-867 162.5,-867"/>
<polygon fill="#666666" stroke="#666666" points="162.5,-852 162.5,-852 278.5,-852 278.5,-852 162.5,-852"/>
<polygon fill="none" stroke="#666666" points="162.5,-835 162.5,-895 278.5,-895 278.5,-835 162.5,-835"/>
</a>
</g>
</g>
<!-- Node3&#45;&gt;Node5 -->
<g id="edge7_Node000005_Node000003" class="edge">
<title>Node3&#45;&gt;Node5</title>
<g id="a_edge7_Node000005_Node000003"><a xlink:title=" ">
<path fill="none" stroke="#63b8ff" d="M99.64,-952.84C108.68,-939.98 121,-924.42 134.5,-913 139.91,-908.42 145.84,-904.09 151.97,-900.05"/>
<polygon fill="none" stroke="#63b8ff" points="152.24,-899.88 155.21,-893.31 162.42,-893.52 159.45,-900.09 152.24,-899.88"/>
</a>
</g>
<text text-anchor="middle" x="163.5" y="-921.5" font-family="Helvetica,sans-Serif" font-size="10.00" fill="grey"> +elements</text>
</g>
<!-- Node4 -->
<g id="Node000004" class="node">
<title>Node4</title>
<g id="a_Node000004"><a xlink:title=" ">
<polygon fill="white" stroke="transparent" points="352.5,-889.5 296.5,-889.5 296.5,-840.5 352.5,-840.5 352.5,-889.5"/>
<text text-anchor="start" x="301.5" y="-877" font-family="Helvetica,sans-Serif" font-size="10.00">long long</text>
<text text-anchor="start" x="322.5" y="-862" font-family="Helvetica,sans-Serif" font-size="10.00"> </text>
<text text-anchor="start" x="322.5" y="-847" font-family="Helvetica,sans-Serif" font-size="10.00"> </text>
<polygon fill="#666666" stroke="#666666" points="296.5,-872 296.5,-872 352.5,-872 352.5,-872 296.5,-872"/>
<polygon fill="#666666" stroke="#666666" points="296.5,-857 296.5,-857 352.5,-857 352.5,-857 296.5,-857"/>
<polygon fill="none" stroke="#666666" points="296.5,-840.5 296.5,-889.5 352.5,-889.5 352.5,-840.5 296.5,-840.5"/>
</a>
</g>
</g>
<!-- Node4&#45;&gt;Node1 -->
<g id="edge3_Node000001_Node000004" class="edge">
<title>Node4&#45;&gt;Node1</title>
<g id="a_edge3_Node000001_Node000004"><a xlink:title=" ">
<path fill="none" stroke="#63b8ff" d="M313.99,-840.42C292.59,-792.39 242.18,-679.28 197.53,-579.07"/>
<polygon fill="none" stroke="#63b8ff" points="197.41,-578.82 191.32,-574.97 192.53,-567.86 198.63,-571.71 197.41,-578.82"/>
</a>
</g>
<text text-anchor="middle" x="327" y="-809" font-family="Helvetica,sans-Serif" font-size="10.00" fill="grey"> &#45;radicand</text>
</g>
<!-- Node5&#45;&gt;Node1 -->
<g id="edge4_Node000001_Node000005" class="edge">
<title>Node5&#45;&gt;Node1</title>
<g id="a_edge4_Node000001_Node000005"><a xlink:title=" ">
<path fill="none" stroke="#63b8ff" d="M213.93,-834.66C209.39,-814.39 202.81,-784.99 195.17,-750.86"/>
<polygon fill="none" stroke="#63b8ff" points="195.16,-750.81 189.95,-745.83 192.54,-739.1 197.75,-744.08 195.16,-750.81"/>
</a>
</g>
<text text-anchor="middle" x="241.5" y="-809" font-family="Helvetica,sans-Serif" font-size="10.00" fill="grey"> &#45;coefficients</text>
</g>
<!-- Node6 -->
<g id="Node000006" class="node">
<title>Node6</title>
<g id="a_Node000006"><a xlink:title=" ">
<polygon fill="white" stroke="transparent" points="213,-1002 154,-1002 154,-953 213,-953 213,-1002"/>
<text text-anchor="start" x="159.5" y="-989.5" font-family="Helvetica,sans-Serif" font-size="10.00">std::string</text>
<text text-anchor="start" x="182" y="-974.5" font-family="Helvetica,sans-Serif" font-size="10.00"> </text>
<text text-anchor="start" x="182" y="-959.5" font-family="Helvetica,sans-Serif" font-size="10.00"> </text>
<polygon fill="#666666" stroke="#666666" points="154.5,-984.5 154.5,-984.5 213.5,-984.5 213.5,-984.5 154.5,-984.5"/>
<polygon fill="#666666" stroke="#666666" points="154.5,-969.5 154.5,-969.5 213.5,-969.5 213.5,-969.5 154.5,-969.5"/>
<polygon fill="none" stroke="#666666" points="154,-953 154,-1002 213,-1002 213,-953 154,-953"/>
</a>
</g>
</g>
<!-- Node6&#45;&gt;Node5 -->
<g id="edge5_Node000005_Node000006" class="edge">
<title>Node6&#45;&gt;Node5</title>
<g id="a_edge5_Node000005_Node000006"><a xlink:title=" ">
<path fill="none" stroke="#63b8ff" d="M190.67,-952.9C194.38,-940.91 199.06,-926.14 203.5,-913 204.21,-910.9 204.95,-908.76 205.7,-906.59"/>
<polygon fill="none" stroke="#63b8ff" points="205.79,-906.33 204.02,-899.34 209.79,-895.02 211.56,-902.01 205.79,-906.33"/>
</a>
</g>
<text text-anchor="middle" x="220.5" y="-921.5" font-family="Helvetica,sans-Serif" font-size="10.00" fill="grey"> +keys</text>
</g>
<!-- Node7 -->
<g id="Node000007" class="node">
<title>Node7</title>
<g id="a_Node000007"><a xlink:title=" ">
<polygon fill="white" stroke="transparent" points="232.5,-1109 134.5,-1109 134.5,-1049 232.5,-1049 232.5,-1109"/>
<text text-anchor="start" x="139.5" y="-1097" font-family="Helvetica,sans-Serif" font-size="10.00">std::basic_string&lt;</text>
<text text-anchor="start" x="165" y="-1086" font-family="Helvetica,sans-Serif" font-size="10.00"> Char &gt;</text>
<text text-anchor="start" x="181.5" y="-1071" font-family="Helvetica,sans-Serif" font-size="10.00"> </text>
<text text-anchor="start" x="181.5" y="-1056" font-family="Helvetica,sans-Serif" font-size="10.00"> </text>
<polygon fill="#666666" stroke="#666666" points="134.5,-1081 134.5,-1081 232.5,-1081 232.5,-1081 134.5,-1081"/>
<polygon fill="#666666" stroke="#666666" points="134.5,-1066 134.5,-1066 232.5,-1066 232.5,-1066 134.5,-1066"/>
<polygon fill="none" stroke="#666666" points="134.5,-1049 134.5,-1109 232.5,-1109 232.5,-1049 134.5,-1049"/>
</a>
</g>
</g>
<!-- Node7&#45;&gt;Node6 -->
<g id="edge6_Node000006_Node000007" class="edge">
<title>Node7&#45;&gt;Node6</title>
<g id="a_edge6_Node000006_Node000007"><a xlink:title=" ">
<path fill="none" stroke="#63b8ff" d="M183.5,-1038.8C183.5,-1026.38 183.5,-1013.03 183.5,-1002.06"/>
<polygon fill="none" stroke="#63b8ff" points="180,-1038.95 183.5,-1048.95 187,-1038.95 180,-1038.95"/>
</a>
</g>
</g>
<!-- Node8 -->
<g id="Node000008" class="node">
<title>Node8</title>
<g id="a_Node000008"><a xlink:title=" ">
<polygon fill="white" stroke="transparent" points="326,-1002 231,-1002 231,-953 326,-953 326,-1002"/>
<text text-anchor="start" x="236.5" y="-989.5" font-family="Helvetica,sans-Serif" font-size="10.00">std::map&lt; K, T &gt;</text>
<text text-anchor="start" x="277" y="-974.5" font-family="Helvetica,sans-Serif" font-size="10.00"> </text>
<text text-anchor="start" x="277" y="-959.5" font-family="Helvetica,sans-Serif" font-size="10.00"> </text>
<polygon fill="#666666" stroke="#666666" points="231.5,-984.5 231.5,-984.5 326.5,-984.5 326.5,-984.5 231.5,-984.5"/>
<polygon fill="#666666" stroke="#666666" points="231.5,-969.5 231.5,-969.5 326.5,-969.5 326.5,-969.5 231.5,-969.5"/>
<polygon fill="none" stroke="#666666" points="231,-953 231,-1002 326,-1002 326,-953 231,-953"/>
</a>
</g>
</g>
<!-- Node8&#45;&gt;Node5 -->
<g id="edge8_Node000005_Node000008" class="edge">
<title>Node8&#45;&gt;Node5</title>
<g id="a_edge8_Node000005_Node000008"><a xlink:title=" ">
<path fill="none" stroke="orange" d="M261.25,-943.63C253.17,-928.24 243.63,-910.07 235.81,-895.17"/>
<polygon fill="orange" stroke="orange" points="258.31,-945.57 266.06,-952.79 264.51,-942.31 258.31,-945.57"/>
</a>
</g>
<text text-anchor="start" x="255.5" y="-927" font-family="Helvetica,sans-Serif" font-size="10.00" fill="grey"> &lt; std::string, lmmc</text>
<text text-anchor="middle" x="304" y="-916" font-family="Helvetica,sans-Serif" font-size="10.00" fill="grey">_real_t &gt;</text>
</g>
<!-- Node9 -->
<g id="Node000009" class="node">
<title>Node9</title>
<g id="a_Node000009"><a xlink:title=" ">
<polygon fill="white" stroke="transparent" points="277,-1103.5 260,-1103.5 260,-1054.5 277,-1054.5 277,-1103.5"/>
<text text-anchor="start" x="265.5" y="-1091" font-family="Helvetica,sans-Serif" font-size="10.00">K</text>
<text text-anchor="start" x="267" y="-1076" font-family="Helvetica,sans-Serif" font-size="10.00"> </text>
<text text-anchor="start" x="267" y="-1061" font-family="Helvetica,sans-Serif" font-size="10.00"> </text>
<polygon fill="#666666" stroke="#666666" points="260.5,-1086 260.5,-1086 277.5,-1086 277.5,-1086 260.5,-1086"/>
<polygon fill="#666666" stroke="#666666" points="260.5,-1071 260.5,-1071 277.5,-1071 277.5,-1071 260.5,-1071"/>
<polygon fill="none" stroke="#666666" points="260,-1054.5 260,-1103.5 277,-1103.5 277,-1054.5 260,-1054.5"/>
</a>
</g>
</g>
<!-- Node9&#45;&gt;Node8 -->
<g id="edge9_Node000008_Node000009" class="edge">
<title>Node9&#45;&gt;Node8</title>
<g id="a_edge9_Node000008_Node000009"><a xlink:title=" ">
<path fill="none" stroke="#63b8ff" d="M267.86,-1054.23C267.85,-1043.71 268.2,-1031.2 269.5,-1020 269.72,-1018.08 269.99,-1016.11 270.3,-1014.14"/>
<polygon fill="none" stroke="#63b8ff" points="270.35,-1013.86 267.52,-1007.23 272.55,-1002.07 275.38,-1008.7 270.35,-1013.86"/>
</a>
</g>
<text text-anchor="middle" x="286.5" y="-1023" font-family="Helvetica,sans-Serif" font-size="10.00" fill="grey"> +keys</text>
</g>
<!-- Node10 -->
<g id="Node000010" class="node">
<title>Node10</title>
<g id="a_Node000010"><a xlink:title=" ">
<polygon fill="white" stroke="transparent" points="334,-1103.5 317,-1103.5 317,-1054.5 334,-1054.5 334,-1103.5"/>
<text text-anchor="start" x="322.5" y="-1091" font-family="Helvetica,sans-Serif" font-size="10.00">T</text>
<text text-anchor="start" x="324" y="-1076" font-family="Helvetica,sans-Serif" font-size="10.00"> </text>
<text text-anchor="start" x="324" y="-1061" font-family="Helvetica,sans-Serif" font-size="10.00"> </text>
<polygon fill="#666666" stroke="#666666" points="317.5,-1086 317.5,-1086 334.5,-1086 334.5,-1086 317.5,-1086"/>
<polygon fill="#666666" stroke="#666666" points="317.5,-1071 317.5,-1071 334.5,-1071 334.5,-1071 317.5,-1071"/>
<polygon fill="none" stroke="#666666" points="317,-1054.5 317,-1103.5 334,-1103.5 334,-1054.5 317,-1054.5"/>
</a>
</g>
</g>
<!-- Node10&#45;&gt;Node8 -->
<g id="edge10_Node000008_Node000010" class="edge">
<title>Node10&#45;&gt;Node8</title>
<g id="a_edge10_Node000008_Node000010"><a xlink:title=" ">
<path fill="none" stroke="#63b8ff" d="M317.66,-1054.45C313.82,-1043.75 308.87,-1031.04 303.5,-1020 302.34,-1017.6 301.08,-1015.16 299.76,-1012.73"/>
<polygon fill="none" stroke="#63b8ff" points="299.72,-1012.66 293.28,-1009.42 293.79,-1002.23 300.24,-1005.47 299.72,-1012.66"/>
</a>
</g>
<text text-anchor="middle" x="336.5" y="-1023" font-family="Helvetica,sans-Serif" font-size="10.00" fill="grey"> +elements</text>
</g>
</g>
</svg>
