<?xml version="1.0" encoding="UTF-8" standalone="no"?>
<!DOCTYPE svg PUBLIC "-//W3C//DTD SVG 1.1//EN"
 "http://www.w3.org/Graphics/SVG/1.1/DTD/svg11.dtd">
<!-- Generated by graphviz version 2.43.0 (0)
 -->
<!-- Title: lamina::TrigCombinationStrategy::integrate_tan_power Pages: 1 -->
<svg width="351pt" height="335pt"
 viewBox="0.00 0.00 351.00 335.00" xmlns="http://www.w3.org/2000/svg" xmlns:xlink="http://www.w3.org/1999/xlink">

<svg id="main" version="1.1" xmlns="http://www.w3.org/2000/svg" xmlns:xlink="http://www.w3.org/1999/xlink" xml:space="preserve" onload="init(evt)">
<style type="text/css"><![CDATA[
.node, .edge {opacity: 0.7;}
.node.selected, .edge.selected {opacity: 1;}
.edge:hover path { stroke: red; }
.edge:hover polygon { stroke: red; fill: red; }
]]></style>
<script type="application/ecmascript" xlink:href="../../svg.min.js"/>
<svg id="graph" class="graph">
<g id="graph0" class="graph" transform="scale(1 1) rotate(0) translate(4 331)">
<title>lamina::TrigCombinationStrategy::integrate_tan_power</title>
<!-- Node1 -->
<g id="Node000001" class="node">
<title>Node1</title>
<g id="a_Node000001"><a xlink:title="处理 tan^n(var) 形式：递归地应用 tan^n = tan^(n&#45;2)·(sec²&#45;1)。 基础情形：n=0 → x，n=1 → &#45;ln(cos(x))。">
<polygon fill="#999999" stroke="#666666" points="177,-172.5 0,-172.5 0,-142.5 177,-142.5 177,-172.5"/>
<text text-anchor="start" x="8" y="-160.5" font-family="Helvetica,sans-Serif" font-size="10.00">lamina::TrigCombinationStrategy</text>
<text text-anchor="middle" x="88.5" y="-149.5" font-family="Helvetica,sans-Serif" font-size="10.00">::integrate_tan_power</text>
</a>
</g>
</g>
<!-- Node1&#45;&gt;Node1 -->
<g id="edge3_Node000001_Node000001" class="edge">
<title>Node1&#45;&gt;Node1</title>
<g id="a_edge3_Node000001_Node000001"><a xlink:title=" ">
<path fill="none" stroke="#63b8ff" d="M55.45,-172.78C48.11,-181.91 59.12,-190.5 88.5,-190.5 105.94,-190.5 116.91,-187.47 121.41,-183.1"/>
<polygon fill="#63b8ff" stroke="#63b8ff" points="124.91,-182.82 121.55,-172.78 117.91,-182.73 124.91,-182.82"/>
</a>
</g>
</g>
<!-- Node2 -->
<g id="Node000002" class="node">
<title>Node2</title>
<g id="a_Node000002"><a xlink:href="../../dc/d25/classSymbolicExpr.html#ac8782568f037f8055277e5d8b80ec6d6" target="_top" xlink:title="创建加法表达式。">
<polygon fill="white" stroke="#666666" points="331.5,-327 224.5,-327 224.5,-308 331.5,-308 331.5,-327"/>
<text text-anchor="middle" x="278" y="-315" font-family="Helvetica,sans-Serif" font-size="10.00">SymbolicExpr::add</text>
</a>
</g>
</g>
<!-- Node1&#45;&gt;Node2 -->
<g id="edge1_Node000001_Node000002" class="edge">
<title>Node1&#45;&gt;Node2</title>
<g id="a_edge1_Node000001_Node000002"><a xlink:title=" ">
<path fill="none" stroke="#63b8ff" d="M98.58,-172.94C116.59,-202.18 159.73,-265.76 213,-299.5 215.6,-301.15 218.35,-302.64 221.19,-304.01"/>
<polygon fill="#63b8ff" stroke="#63b8ff" points="219.94,-307.28 230.51,-307.92 222.64,-300.82 219.94,-307.28"/>
</a>
</g>
</g>
<!-- Node3 -->
<g id="Node000003" class="node">
<title>Node3</title>
<g id="a_Node000003"><a xlink:href="../../dc/d25/classSymbolicExpr.html#aab72f8248a52deff206dee781aca74ea" target="_top" xlink:title="创建余弦函数表达式。">
<polygon fill="white" stroke="#666666" points="331,-290 225,-290 225,-271 331,-271 331,-290"/>
<text text-anchor="middle" x="278" y="-278" font-family="Helvetica,sans-Serif" font-size="10.00">SymbolicExpr::cos</text>
</a>
</g>
</g>
<!-- Node1&#45;&gt;Node3 -->
<g id="edge2_Node000001_Node000003" class="edge">
<title>Node1&#45;&gt;Node3</title>
<g id="a_edge2_Node000001_Node000003"><a xlink:title=" ">
<path fill="none" stroke="#63b8ff" d="M103.16,-172.71C124.44,-195.51 167.79,-238.42 213,-262.5 216.45,-264.34 220.12,-266.01 223.87,-267.52"/>
<polygon fill="#63b8ff" stroke="#63b8ff" points="222.73,-270.83 233.33,-270.95 225.12,-264.25 222.73,-270.83"/>
</a>
</g>
</g>
<!-- Node4 -->
<g id="Node000004" class="node">
<title>Node4</title>
<g id="a_Node000004"><a xlink:href="../../dc/d25/classSymbolicExpr.html#ad3021252aa7c5e17c1e8a8523a83ac5b" target="_top" xlink:title="创建自然对数表达式。">
<polygon fill="white" stroke="#666666" points="327,-253 229,-253 229,-234 327,-234 327,-253"/>
<text text-anchor="middle" x="278" y="-241" font-family="Helvetica,sans-Serif" font-size="10.00">SymbolicExpr::ln</text>
</a>
</g>
</g>
<!-- Node1&#45;&gt;Node4 -->
<g id="edge4_Node000001_Node000004" class="edge">
<title>Node1&#45;&gt;Node4</title>
<g id="a_edge4_Node000001_Node000004"><a xlink:title=" ">
<path fill="none" stroke="#63b8ff" d="M113.82,-172.67C138.21,-187.4 177.17,-209.65 213,-224.5 218.49,-226.77 224.34,-228.9 230.2,-230.84"/>
<polygon fill="#63b8ff" stroke="#63b8ff" points="229.4,-234.26 239.99,-233.94 231.51,-227.59 229.4,-234.26"/>
</a>
</g>
</g>
<!-- Node5 -->
<g id="Node000005" class="node">
<title>Node5</title>
<g id="a_Node000005"><a xlink:href="../../d8/dbb/classlamina_1_1Integrator.html#aa929cea6e8170c86885e6a3bee936f9a" target="_top" xlink:title="获取最大递归深度">
<polygon fill="white" stroke="#666666" points="330,-215.5 226,-215.5 226,-185.5 330,-185.5 330,-215.5"/>
<text text-anchor="start" x="234" y="-203.5" font-family="Helvetica,sans-Serif" font-size="10.00">lamina::Integrator</text>
<text text-anchor="middle" x="278" y="-192.5" font-family="Helvetica,sans-Serif" font-size="10.00">::max_depth</text>
</a>
</g>
</g>
<!-- Node1&#45;&gt;Node5 -->
<g id="edge5_Node000001_Node000005" class="edge">
<title>Node1&#45;&gt;Node5</title>
<g id="a_edge5_Node000001_Node000005"><a xlink:title=" ">
<path fill="none" stroke="#63b8ff" d="M155.08,-172.54C174.86,-177.08 196.49,-182.04 215.97,-186.5"/>
<polygon fill="#63b8ff" stroke="#63b8ff" points="215.41,-189.97 225.94,-188.79 216.97,-183.14 215.41,-189.97"/>
</a>
</g>
</g>
<!-- Node6 -->
<g id="Node000006" class="node">
<title>Node6</title>
<g id="a_Node000006"><a xlink:href="../../dc/d25/classSymbolicExpr.html#ad03189fc8a4db7762f7c1ca890674bbc" target="_top" xlink:title="创建乘法表达式。">
<polygon fill="white" stroke="#666666" points="343,-167 213,-167 213,-148 343,-148 343,-167"/>
<text text-anchor="middle" x="278" y="-155" font-family="Helvetica,sans-Serif" font-size="10.00">SymbolicExpr::multiply</text>
</a>
</g>
</g>
<!-- Node1&#45;&gt;Node6 -->
<g id="edge6_Node000001_Node000006" class="edge">
<title>Node1&#45;&gt;Node6</title>
<g id="a_edge6_Node000001_Node000006"><a xlink:title=" ">
<path fill="none" stroke="#63b8ff" d="M177.21,-157.5C185.75,-157.5 194.35,-157.5 202.74,-157.5"/>
<polygon fill="#63b8ff" stroke="#63b8ff" points="202.84,-161 212.84,-157.5 202.84,-154 202.84,-161"/>
</a>
</g>
</g>
<!-- Node7 -->
<g id="Node000007" class="node">
<title>Node7</title>
<g id="a_Node000007"><a xlink:href="../../dc/d25/classSymbolicExpr.html#adeb760bb6f4f28879108394537eca293" target="_top" xlink:title="创建整数数值表达式。">
<polygon fill="white" stroke="#666666" points="341.5,-130 214.5,-130 214.5,-111 341.5,-111 341.5,-130"/>
<text text-anchor="middle" x="278" y="-118" font-family="Helvetica,sans-Serif" font-size="10.00">SymbolicExpr::number</text>
</a>
</g>
</g>
<!-- Node1&#45;&gt;Node7 -->
<g id="edge7_Node000001_Node000007" class="edge">
<title>Node1&#45;&gt;Node7</title>
<g id="a_edge7_Node000001_Node000007"><a xlink:title=" ">
<path fill="none" stroke="#63b8ff" d="M165.76,-142.45C183.4,-138.97 201.88,-135.32 218.61,-132.02"/>
<polygon fill="#63b8ff" stroke="#63b8ff" points="219.64,-135.39 228.77,-130.02 218.29,-128.52 219.64,-135.39"/>
</a>
</g>
</g>
<!-- Node8 -->
<g id="Node000008" class="node">
<title>Node8</title>
<g id="a_Node000008"><a xlink:href="../../dc/d25/classSymbolicExpr.html#ab03922681e30190ba7c73d2c1e58aa40" target="_top" xlink:title="创建幂运算表达式。">
<polygon fill="white" stroke="#666666" points="337.5,-93 218.5,-93 218.5,-74 337.5,-74 337.5,-93"/>
<text text-anchor="middle" x="278" y="-81" font-family="Helvetica,sans-Serif" font-size="10.00">SymbolicExpr::power</text>
</a>
</g>
</g>
<!-- Node1&#45;&gt;Node8 -->
<g id="edge8_Node000001_Node000008" class="edge">
<title>Node1&#45;&gt;Node8</title>
<g id="a_edge8_Node000001_Node000008"><a xlink:title=" ">
<path fill="none" stroke="#63b8ff" d="M120.25,-142.46C144.96,-130.7 180.74,-114.41 213,-102.5 219.06,-100.26 225.53,-98.09 231.92,-96.08"/>
<polygon fill="#63b8ff" stroke="#63b8ff" points="233.31,-99.31 241.85,-93.04 231.27,-92.62 233.31,-99.31"/>
</a>
</g>
</g>
<!-- Node9 -->
<g id="Node000009" class="node">
<title>Node9</title>
<g id="a_Node000009"><a xlink:href="../../dc/d25/classSymbolicExpr.html#a41e4e94e2bacb086f10d867b13b30c14" target="_top" xlink:title="创建正切函数表达式。">
<polygon fill="white" stroke="#666666" points="330.5,-56 225.5,-56 225.5,-37 330.5,-37 330.5,-56"/>
<text text-anchor="middle" x="278" y="-44" font-family="Helvetica,sans-Serif" font-size="10.00">SymbolicExpr::tan</text>
</a>
</g>
</g>
<!-- Node1&#45;&gt;Node9 -->
<g id="edge9_Node000001_Node000009" class="edge">
<title>Node1&#45;&gt;Node9</title>
<g id="a_edge9_Node000001_Node000009"><a xlink:title=" ">
<path fill="none" stroke="#63b8ff" d="M105.82,-142.34C128.33,-122.16 170.93,-86.58 213,-65.5 217.55,-63.22 222.41,-61.17 227.36,-59.33"/>
<polygon fill="#63b8ff" stroke="#63b8ff" points="228.58,-62.61 236.9,-56.04 226.31,-55.99 228.58,-62.61"/>
</a>
</g>
</g>
<!-- Node10 -->
<g id="Node000010" class="node">
<title>Node10</title>
<g id="a_Node000010"><a xlink:href="../../dc/d25/classSymbolicExpr.html#a1718e8c497b928507b31acb089cc64ff" target="_top" xlink:title="创建变量表达式。">
<polygon fill="white" stroke="#666666" points="342.5,-19 213.5,-19 213.5,0 342.5,0 342.5,-19"/>
<text text-anchor="middle" x="278" y="-7" font-family="Helvetica,sans-Serif" font-size="10.00">SymbolicExpr::variable</text>
</a>
</g>
</g>
<!-- Node1&#45;&gt;Node10 -->
<g id="edge10_Node000001_Node000010" class="edge">
<title>Node1&#45;&gt;Node10</title>
<g id="a_edge10_Node000001_Node000010"><a xlink:title=" ">
<path fill="none" stroke="#63b8ff" d="M99.87,-142.32C119.04,-115.38 162.71,-59.18 213,-28.5 216.56,-26.33 220.39,-24.39 224.33,-22.66"/>
<polygon fill="#63b8ff" stroke="#63b8ff" points="225.64,-25.91 233.69,-19.01 223.1,-19.39 225.64,-25.91"/>
</a>
</g>
</g>
</g>
</svg>
</svg>

<style type='text/css'>
<![CDATA[
[data-mouse-over-selected='false'] { opacity: 0.7; }
[data-mouse-over-selected='true']  { opacity: 1.0; }
]]>
</style>
<script type="application/ecmascript"><![CDATA[
document.addEventListener('DOMContentLoaded', (event) => {
  highlightEdges();
  highlightAdjacentNodes();
});
]]></script>
</svg>
