<?xml version="1.0" encoding="UTF-8" standalone="no"?>
<!DOCTYPE svg PUBLIC "-//W3C//DTD SVG 1.1//EN"
 "http://www.w3.org/Graphics/SVG/1.1/DTD/svg11.dtd">
<!-- Generated by graphviz version 2.43.0 (0)
 -->
<!-- Title: include/assumption_context.hpp Pages: 1 -->
<!--zoomable 225 -->

<svg id="main" version="1.1" xmlns="http://www.w3.org/2000/svg" xmlns:xlink="http://www.w3.org/1999/xlink" xml:space="preserve" onload="init(evt)">
<style type="text/css"><![CDATA[
.node, .edge {opacity: 0.7;}
.node.selected, .edge.selected {opacity: 1;}
.edge:hover path { stroke: red; }
.edge:hover polygon { stroke: red; fill: red; }
]]></style>

<defs>
  <circle id="rim" cx="0" cy="0" r="7"/>
  <circle id="rim2" cx="0" cy="0" r="3.5"/>
  <g id="zoomPlus">
    <use xlink:href="#rim" fill="#404040"><set attributeName="fill" to="#808080" begin="zoomplus.mouseover" end="zoomplus.mouseout"/></use>
    <path d="M-4,0h8M0,-4v8" fill="none" stroke="white" stroke-width="1.5" pointer-events="none"/>
  </g>
  <g id="zoomMin">
    <use xlink:href="#rim" fill="#404040"><set attributeName="fill" to="#808080" begin="zoomminus.mouseover" end="zoomminus.mouseout"/></use>
    <path d="M-4,0h8" fill="none" stroke="white" stroke-width="1.5" pointer-events="none"/>
  </g>
  <g id="arrowUp" transform="translate(30 24)">
    <use xlink:href="#rim"/>
    <path pointer-events="none" fill="none" stroke="white" stroke-width="1.5" d="M0,-3.0v7 M-2.5,-0.5L0,-3.0L2.5,-0.5"/>
  </g>
  <g id="arrowRight" transform="rotate(90) translate(36 -43)">
    <use xlink:href="#rim"/>
    <path pointer-events="none" fill="none" stroke="white" stroke-width="1.5" d="M0,-3.0v7 M-2.5,-0.5L0,-3.0L2.5,-0.5"/>
  </g>
  <g id="arrowDown" transform="rotate(180) translate(-30 -48)">
    <use xlink:href="#rim"/>
    <path pointer-events="none" fill="none" stroke="white" stroke-width="1.5" d="M0,-3.0v7 M-2.5,-0.5L0,-3.0L2.5,-0.5"/>
  </g>
  <g id="arrowLeft" transform="rotate(270) translate(-36 17)">
    <use xlink:href="#rim"/>
    <path pointer-events="none" fill="none" stroke="white" stroke-width="1.5" d="M0,-3.0v7 M-2.5,-0.5L0,-3.0L2.5,-0.5"/>
  </g>
  <g id="resetDef">
    <use xlink:href="#rim2" fill="#404040"><set attributeName="fill" to="#808080" begin="reset.mouseover" end="reset.mouseout"/></use>
  </g>
</defs>
<script type="application/ecmascript">
var viewWidth = 868;
var viewHeight = 225;
var sectionId = 'dynsection-1';
</script>
<script type="application/ecmascript" xlink:href="../../svg.min.js"/>
<svg id="graph" class="graph">
<g id="viewport">
<title>include/assumption_context.hpp</title>
<!-- Node1 -->
<g id="Node000001" class="node">
<title>Node1</title>
<g id="a_Node000001"><a xlink:title="AssumptionContext class with scoped push/pop management.">
<polygon fill="#999999" stroke="#666666" points="596,-217 484,-217 484,-187 596,-187 596,-217"/>
<text text-anchor="start" x="492" y="-205" font-family="Helvetica,sans-Serif" font-size="10.00">include/assumption</text>
<text text-anchor="middle" x="540" y="-194" font-family="Helvetica,sans-Serif" font-size="10.00">_context.hpp</text>
</a>
</g>
</g>
<!-- Node2 -->
<g id="Node000002" class="node">
<title>Node2</title>
<g id="a_Node000002"><a xlink:href="../../dd/d5e/normalization__visitor_8hpp.html" target="_top" xlink:title="规范化访问器，合并同类项、化简数值运算、处理矩阵算术。">
<polygon fill="white" stroke="#666666" points="281.5,-151 120.5,-151 120.5,-121 281.5,-121 281.5,-151"/>
<text text-anchor="start" x="128.5" y="-139" font-family="Helvetica,sans-Serif" font-size="10.00">include/visitors/normalization</text>
<text text-anchor="middle" x="201" y="-128" font-family="Helvetica,sans-Serif" font-size="10.00">_visitor.hpp</text>
</a>
</g>
</g>
<!-- Node1&#45;&gt;Node2 -->
<g id="edge1_Node000001_Node000002" class="edge">
<title>Node1&#45;&gt;Node2</title>
<g id="a_edge1_Node000001_Node000002"><a xlink:title=" ">
<path fill="none" stroke="#63b8ff" d="M473.65,-188.47C416.65,-177.71 334.53,-162.21 275.32,-151.03"/>
<polygon fill="#63b8ff" stroke="#63b8ff" points="473.16,-191.94 483.64,-190.36 474.46,-185.07 473.16,-191.94"/>
</a>
</g>
</g>
<!-- Node7 -->
<g id="Node000007" class="node">
<title>Node7</title>
<g id="a_Node000007"><a xlink:href="../../df/d4a/assumption__context_8cpp.html" target="_top" xlink:title="Implementation of the AssumptionContext class.">
<polygon fill="white" stroke="#666666" points="452.5,-145.5 299.5,-145.5 299.5,-126.5 452.5,-126.5 452.5,-145.5"/>
<text text-anchor="middle" x="376" y="-133.5" font-family="Helvetica,sans-Serif" font-size="10.00">src/assumption_context.cpp</text>
</a>
</g>
</g>
<!-- Node1&#45;&gt;Node7 -->
<g id="edge8_Node000001_Node000007" class="edge">
<title>Node1&#45;&gt;Node7</title>
<g id="a_edge8_Node000001_Node000007"><a xlink:title=" ">
<path fill="none" stroke="#63b8ff" d="M494.54,-183.26C463,-170.95 422.4,-155.11 397.83,-145.52"/>
<polygon fill="#63b8ff" stroke="#63b8ff" points="493.42,-186.58 504.01,-186.95 495.97,-180.06 493.42,-186.58"/>
</a>
</g>
</g>
<!-- Node8 -->
<g id="Node000008" class="node">
<title>Node8</title>
<g id="a_Node000008"><a xlink:href="../../d8/def/inference__engine_8cpp.html" target="_top" xlink:title="Implementation of the InferenceEngine class.">
<polygon fill="white" stroke="#666666" points="609,-145.5 471,-145.5 471,-126.5 609,-126.5 609,-145.5"/>
<text text-anchor="middle" x="540" y="-133.5" font-family="Helvetica,sans-Serif" font-size="10.00">src/inference_engine.cpp</text>
</a>
</g>
</g>
<!-- Node1&#45;&gt;Node8 -->
<g id="edge9_Node000001_Node000008" class="edge">
<title>Node1&#45;&gt;Node8</title>
<g id="a_edge9_Node000001_Node000008"><a xlink:title=" ">
<path fill="none" stroke="#63b8ff" d="M540,-176.6C540,-165.8 540,-153.78 540,-145.84"/>
<polygon fill="#63b8ff" stroke="#63b8ff" points="536.5,-176.8 540,-186.8 543.5,-176.8 536.5,-176.8"/>
</a>
</g>
</g>
<!-- Node9 -->
<g id="Node000009" class="node">
<title>Node9</title>
<g id="a_Node000009"><a xlink:href="../../d2/d89/query__interface_8cpp.html" target="_top" xlink:title="Implementation of the QueryInterface class.">
<polygon fill="white" stroke="#666666" points="758.5,-145.5 627.5,-145.5 627.5,-126.5 758.5,-126.5 758.5,-145.5"/>
<text text-anchor="middle" x="693" y="-133.5" font-family="Helvetica,sans-Serif" font-size="10.00">src/query_interface.cpp</text>
</a>
</g>
</g>
<!-- Node1&#45;&gt;Node9 -->
<g id="edge10_Node000001_Node000009" class="edge">
<title>Node1&#45;&gt;Node9</title>
<g id="a_edge10_Node000001_Node000009"><a xlink:title=" ">
<path fill="none" stroke="#63b8ff" d="M583.17,-182.94C612.49,-170.68 649.91,-155.02 672.64,-145.52"/>
<polygon fill="#63b8ff" stroke="#63b8ff" points="581.45,-179.87 573.58,-186.95 584.15,-186.32 581.45,-179.87"/>
</a>
</g>
</g>
<!-- Node10 -->
<g id="Node000010" class="node">
<title>Node10</title>
<g id="a_Node000010"><a xlink:href="../../d6/d94/solver_8cpp.html" target="_top" xlink:title=" ">
<polygon fill="white" stroke="#666666" points="859.5,-145.5 776.5,-145.5 776.5,-126.5 859.5,-126.5 859.5,-145.5"/>
<text text-anchor="middle" x="818" y="-133.5" font-family="Helvetica,sans-Serif" font-size="10.00">src/solver.cpp</text>
</a>
</g>
</g>
<!-- Node1&#45;&gt;Node10 -->
<g id="edge11_Node000001_Node000010" class="edge">
<title>Node1&#45;&gt;Node10</title>
<g id="a_edge11_Node000001_Node000010"><a xlink:title=" ">
<path fill="none" stroke="#63b8ff" d="M606.49,-187.47C652.09,-177.93 713.9,-164.49 768,-151 774.65,-149.34 781.75,-147.43 788.46,-145.57"/>
<polygon fill="#63b8ff" stroke="#63b8ff" points="605.5,-184.1 596.43,-189.56 606.93,-190.95 605.5,-184.1"/>
</a>
</g>
</g>
<!-- Node3 -->
<g id="Node000003" class="node">
<title>Node3</title>
<g id="a_Node000003"><a xlink:href="../../da/dfb/expand__visitor_8hpp.html" target="_top" xlink:title="展开访问器，将乘积和幂展开为多项式形式。">
<polygon fill="white" stroke="#666666" points="130,-85 0,-85 0,-55 130,-55 130,-85"/>
<text text-anchor="start" x="8" y="-73" font-family="Helvetica,sans-Serif" font-size="10.00">include/visitors/expand</text>
<text text-anchor="middle" x="65" y="-62" font-family="Helvetica,sans-Serif" font-size="10.00">_visitor.hpp</text>
</a>
</g>
</g>
<!-- Node2&#45;&gt;Node3 -->
<g id="edge2_Node000002_Node000003" class="edge">
<title>Node2&#45;&gt;Node3</title>
<g id="a_edge2_Node000002_Node000003"><a xlink:title=" ">
<path fill="none" stroke="#63b8ff" d="M162,-116.65C140.61,-106.58 114.51,-94.3 94.78,-85.01"/>
<polygon fill="#63b8ff" stroke="#63b8ff" points="160.62,-119.86 171.15,-120.95 163.6,-113.53 160.62,-119.86"/>
</a>
</g>
</g>
<!-- Node4 -->
<g id="Node000004" class="node">
<title>Node4</title>
<g id="a_Node000004"><a xlink:href="../../d1/db4/symbolic_8cpp.html" target="_top" xlink:title=" ">
<polygon fill="white" stroke="#666666" points="207,-19 109,-19 109,0 207,0 207,-19"/>
<text text-anchor="middle" x="158" y="-7" font-family="Helvetica,sans-Serif" font-size="10.00">src/symbolic.cpp</text>
</a>
</g>
</g>
<!-- Node2&#45;&gt;Node4 -->
<g id="edge7_Node000002_Node000004" class="edge">
<title>Node2&#45;&gt;Node4</title>
<g id="a_edge7_Node000002_Node000004"><a xlink:title=" ">
<path fill="none" stroke="#63b8ff" d="M188.69,-111.81C184.6,-103.5 180.26,-93.98 177,-85 168.61,-61.92 162.47,-33.53 159.67,-19.39"/>
<polygon fill="#63b8ff" stroke="#63b8ff" points="185.65,-113.55 193.3,-120.88 191.89,-110.38 185.65,-113.55"/>
</a>
</g>
</g>
<!-- Node5 -->
<g id="Node000005" class="node">
<title>Node5</title>
<g id="a_Node000005"><a xlink:href="../../da/d7b/limit__visitor_8hpp.html" target="_top" xlink:title="极限访问器，通过代入和 L&#39;Hôpital 法则计算极限。">
<polygon fill="white" stroke="#666666" points="302,-85 186,-85 186,-55 302,-55 302,-85"/>
<text text-anchor="start" x="194" y="-73" font-family="Helvetica,sans-Serif" font-size="10.00">include/visitors/limit</text>
<text text-anchor="middle" x="244" y="-62" font-family="Helvetica,sans-Serif" font-size="10.00">_visitor.hpp</text>
</a>
</g>
</g>
<!-- Node2&#45;&gt;Node5 -->
<g id="edge4_Node000002_Node000005" class="edge">
<title>Node2&#45;&gt;Node5</title>
<g id="a_edge4_Node000002_Node000005"><a xlink:title=" ">
<path fill="none" stroke="#63b8ff" d="M216.29,-112.24C222.36,-103.21 229.14,-93.11 234.48,-85.16"/>
<polygon fill="#63b8ff" stroke="#63b8ff" points="213.21,-110.54 210.54,-120.8 219.03,-114.45 213.21,-110.54"/>
</a>
</g>
</g>
<!-- Node6 -->
<g id="Node000006" class="node">
<title>Node6</title>
<g id="a_Node000006"><a xlink:href="../../d2/dab/solve__visitor_8cpp.html" target="_top" xlink:title=" ">
<polygon fill="white" stroke="#666666" points="436,-79.5 320,-79.5 320,-60.5 436,-60.5 436,-79.5"/>
<text text-anchor="middle" x="378" y="-67.5" font-family="Helvetica,sans-Serif" font-size="10.00">src/solve_visitor.cpp</text>
</a>
</g>
</g>
<!-- Node2&#45;&gt;Node6 -->
<g id="edge6_Node000002_Node000006" class="edge">
<title>Node2&#45;&gt;Node6</title>
<g id="a_edge6_Node000002_Node000006"><a xlink:title=" ">
<path fill="none" stroke="#63b8ff" d="M249.62,-117.42C283.72,-105.09 327.81,-89.15 354.44,-79.52"/>
<polygon fill="#63b8ff" stroke="#63b8ff" points="248.06,-114.26 239.84,-120.95 250.44,-120.85 248.06,-114.26"/>
</a>
</g>
</g>
<!-- Node3&#45;&gt;Node4 -->
<g id="edge3_Node000003_Node000004" class="edge">
<title>Node3&#45;&gt;Node4</title>
<g id="a_edge3_Node000003_Node000004"><a xlink:title=" ">
<path fill="none" stroke="#63b8ff" d="M96.24,-49.35C112.58,-39.07 131.74,-27.02 144.34,-19.09"/>
<polygon fill="#63b8ff" stroke="#63b8ff" points="94.11,-46.55 87.51,-54.84 97.84,-52.48 94.11,-46.55"/>
</a>
</g>
</g>
<!-- Node5&#45;&gt;Node4 -->
<g id="edge5_Node000005_Node000004" class="edge">
<title>Node5&#45;&gt;Node4</title>
<g id="a_edge5_Node000005_Node000004"><a xlink:title=" ">
<path fill="none" stroke="#63b8ff" d="M214.69,-49.06C199.68,-38.85 182.18,-26.95 170.63,-19.09"/>
<polygon fill="#63b8ff" stroke="#63b8ff" points="212.94,-52.11 223.18,-54.84 216.88,-46.32 212.94,-52.11"/>
</a>
</g>
</g>
</g>
</svg>

<g id="navigator" transform="translate(0 0)" fill="#404254">
  <rect fill="#f2f5e9" fill-opacity="0.5" stroke="#606060" stroke-width=".5" x="0" y="0" width="60" height="60"/>
  <use id="zoomplus" xlink:href="#zoomPlus" x="17" y="9" onmousedown="handleZoom(evt,'in')"/>
  <use id="zoomminus" xlink:href="#zoomMin" x="42" y="9" onmousedown="handleZoom(evt,'out')"/>
  <use id="reset" xlink:href="#resetDef" x="30" y="36" onmousedown="handleReset()"/>
   <use id="arrowup" xlink:href="#arrowUp" x="0" y="0" onmousedown="handlePan(0,-1)"/>
  <use id="arrowright" xlink:href="#arrowRight" x="0" y="0" onmousedown="handlePan(1,0)"/>
  <use id="arrowdown" xlink:href="#arrowDown" x="0" y="0" onmousedown="handlePan(0,1)"/>
  <use id="arrowleft" xlink:href="#arrowLeft" x="0" y="0" onmousedown="handlePan(-1,0)"/>
</g>
<svg viewBox="0 0 15 15" width="100%" height="30px" preserveAspectRatio="xMaxYMin meet">
 <g id="arrow_out" transform="scale(0.3 0.3)">
  <a xlink:href="assumption__context_8hpp__dep__incl_org.svg" target="_base">
   <rect id="button" ry="5" rx="5" y="6" x="6" height="38" width="38"
        fill="#f2f5e9" fill-opacity="0.5" stroke="#606060" stroke-width="1.0"/>
   <path id="arrow"
     d="M 11.500037,31.436501 C 11.940474,20.09759 22.043105,11.32322 32.158766,21.979434 L 37.068811,17.246167 C 37.068811,17.246167 37.088388,32 37.088388,32 L 22.160133,31.978069 C 22.160133,31.978069 26.997745,27.140456 26.997745,27.140456 C 18.528582,18.264221 13.291696,25.230495 11.500037,31.436501 z"
     style="fill:#404040;"/>
  </a>
 </g>
</svg>

<style type='text/css'>
<![CDATA[
[data-mouse-over-selected='false'] { opacity: 0.7; }
[data-mouse-over-selected='true']  { opacity: 1.0; }
]]>
</style>
<script type="application/ecmascript"><![CDATA[
document.addEventListener('DOMContentLoaded', (event) => {
  highlightEdges();
  highlightAdjacentNodes();
});
]]></script>
</svg>
