<?xml version="1.0" encoding="UTF-8" standalone="no"?>
<!DOCTYPE svg PUBLIC "-//W3C//DTD SVG 1.1//EN"
 "http://www.w3.org/Graphics/SVG/1.1/DTD/svg11.dtd">
<!-- Generated by graphviz version 2.43.0 (0)
 -->
<!-- Title: src/symbolic_matrix.cpp Pages: 1 -->
<svg width="1471pt" height="368pt"
 viewBox="0.00 0.00 1470.50 368.00" xmlns="http://www.w3.org/2000/svg" xmlns:xlink="http://www.w3.org/1999/xlink">
<g id="graph0" class="graph" transform="scale(1 1) rotate(0) translate(4 364)">
<title>src/symbolic_matrix.cpp</title>
<!-- Node1 -->
<g id="Node000001" class="node">
<title>Node1</title>
<g id="a_Node000001"><a xlink:title=" ">
<polygon fill="#999999" stroke="#666666" points="687,-360 551,-360 551,-341 687,-341 687,-360"/>
<text text-anchor="middle" x="619" y="-348" font-family="Helvetica,sans-Serif" font-size="10.00">src/symbolic_matrix.cpp</text>
</a>
</g>
</g>
<!-- Node2 -->
<g id="Node000002" class="node">
<title>Node2</title>
<g id="a_Node000002"><a xlink:href="../../d4/d7d/symbolic__matrix_8hpp.html" target="_top" xlink:title="符号矩阵运算：乘法、行列式、逆、旋转/反射/缩放矩阵、特征值。">
<polygon fill="white" stroke="#666666" points="168,-305 60,-305 60,-275 168,-275 168,-305"/>
<text text-anchor="start" x="68" y="-293" font-family="Helvetica,sans-Serif" font-size="10.00">../include/symbolic</text>
<text text-anchor="middle" x="114" y="-282" font-family="Helvetica,sans-Serif" font-size="10.00">_matrix.hpp</text>
</a>
</g>
</g>
<!-- Node1&#45;&gt;Node2 -->
<g id="edge1_Node000001_Node000002" class="edge">
<title>Node1&#45;&gt;Node2</title>
<g id="a_edge1_Node000001_Node000002"><a xlink:title=" ">
<path fill="none" stroke="#63b8ff" d="M550.89,-341.61C453.09,-330.28 274.14,-309.55 178.43,-298.46"/>
<polygon fill="#63b8ff" stroke="#63b8ff" points="178.64,-294.96 168.3,-297.29 177.83,-301.92 178.64,-294.96"/>
</a>
</g>
</g>
<!-- Node3 -->
<g id="Node000003" class="node">
<title>Node3</title>
<g id="a_Node000003"><a xlink:href="../../d5/df2/symbolic_8hpp.html" target="_top" xlink:title="符号表达式主类 SymbolicExpr 及其工厂方法、运算接口。">
<polygon fill="white" stroke="#666666" points="1154,-239 1072,-239 1072,-220 1154,-220 1154,-239"/>
<text text-anchor="middle" x="1113" y="-227" font-family="Helvetica,sans-Serif" font-size="10.00">symbolic.hpp</text>
</a>
</g>
</g>
<!-- Node1&#45;&gt;Node3 -->
<g id="edge57_Node000001_Node000003" class="edge">
<title>Node1&#45;&gt;Node3</title>
<g id="a_edge57_Node000001_Node000003"><a xlink:title=" ">
<path fill="none" stroke="#63b8ff" d="M654.53,-340.94C742.45,-319.76 970.13,-264.92 1067.61,-241.43"/>
<polygon fill="#63b8ff" stroke="#63b8ff" points="1068.56,-244.81 1077.46,-239.06 1066.92,-238 1068.56,-244.81"/>
</a>
</g>
</g>
<!-- Node9 -->
<g id="Node000009" class="node">
<title>Node9</title>
<g id="a_Node000009"><a xlink:title=" ">
<polygon fill="#e0e0e0" stroke="#999999" points="143.5,-19 96.5,-19 96.5,0 143.5,0 143.5,-19"/>
<text text-anchor="middle" x="120" y="-7" font-family="Helvetica,sans-Serif" font-size="10.00">vector</text>
</a>
</g>
</g>
<!-- Node1&#45;&gt;Node9 -->
<g id="edge58_Node000001_Node000009" class="edge">
<title>Node1&#45;&gt;Node9</title>
<g id="a_edge58_Node000001_Node000009"><a xlink:title=" ">
<path fill="none" stroke="#63b8ff" d="M550.73,-347.44C409.19,-342.69 93.33,-329.48 51,-305 16.26,-284.91 0,-270.63 0,-230.5 0,-230.5 0,-230.5 0,-118.5 0,-71.36 51.8,-39.54 87.33,-23.26"/>
<polygon fill="#63b8ff" stroke="#63b8ff" points="89.11,-26.31 96.86,-19.09 86.3,-19.89 89.11,-26.31"/>
</a>
</g>
</g>
<!-- Node31 -->
<g id="Node000031" class="node">
<title>Node31</title>
<g id="a_Node000031"><a xlink:title=" ">
<polygon fill="#e0e0e0" stroke="#999999" points="1462.5,-184 1415.5,-184 1415.5,-165 1462.5,-165 1462.5,-184"/>
<text text-anchor="middle" x="1439" y="-172" font-family="Helvetica,sans-Serif" font-size="10.00">cmath</text>
</a>
</g>
</g>
<!-- Node1&#45;&gt;Node31 -->
<g id="edge59_Node000001_Node000031" class="edge">
<title>Node1&#45;&gt;Node31</title>
<g id="a_edge59_Node000001_Node000031"><a xlink:title=" ">
<path fill="none" stroke="#63b8ff" d="M674.67,-340.98C727.63,-332.64 809.47,-319.17 880,-305 1080.61,-264.7 1319.16,-205.7 1405.63,-183.95"/>
<polygon fill="#63b8ff" stroke="#63b8ff" points="1406.56,-187.33 1415.41,-181.49 1404.85,-180.54 1406.56,-187.33"/>
</a>
</g>
</g>
<!-- Node2&#45;&gt;Node3 -->
<g id="edge2_Node000002_Node000003" class="edge">
<title>Node2&#45;&gt;Node3</title>
<g id="a_edge2_Node000002_Node000003"><a xlink:title=" ">
<path fill="none" stroke="#63b8ff" d="M168.06,-285.83C342.84,-275.6 891.13,-243.49 1061.78,-233.5"/>
<polygon fill="#63b8ff" stroke="#63b8ff" points="1062.22,-236.98 1072,-232.9 1061.81,-229.99 1062.22,-236.98"/>
</a>
</g>
</g>
<!-- Node2&#45;&gt;Node9 -->
<g id="edge55_Node000002_Node000009" class="edge">
<title>Node2&#45;&gt;Node9</title>
<g id="a_edge55_Node000002_Node000009"><a xlink:title=" ">
<path fill="none" stroke="#63b8ff" d="M95.63,-274.88C84.64,-265.66 71.1,-252.8 62,-239 45.39,-213.82 38,-205.67 38,-175.5 38,-175.5 38,-175.5 38,-118.5 38,-88.33 44.01,-79.22 62,-55 71.02,-42.86 84.2,-32.38 95.73,-24.65"/>
<polygon fill="#63b8ff" stroke="#63b8ff" points="97.95,-27.38 104.5,-19.05 94.19,-21.48 97.95,-27.38"/>
</a>
</g>
</g>
<!-- Node12 -->
<g id="Node000012" class="node">
<title>Node12</title>
<g id="a_Node000012"><a xlink:title=" ">
<polygon fill="#e0e0e0" stroke="#999999" points="288,-19 244,-19 244,0 288,0 288,-19"/>
<text text-anchor="middle" x="266" y="-7" font-family="Helvetica,sans-Serif" font-size="10.00">string</text>
</a>
</g>
</g>
<!-- Node2&#45;&gt;Node12 -->
<g id="edge56_Node000002_Node000012" class="edge">
<title>Node2&#45;&gt;Node12</title>
<g id="a_edge56_Node000002_Node000012"><a xlink:title=" ">
<path fill="none" stroke="#63b8ff" d="M105.94,-274.82C94.79,-253.82 76,-212.9 76,-175.5 76,-175.5 76,-175.5 76,-118.5 76,-46.82 179.46,-22.12 233.69,-14.1"/>
<polygon fill="#63b8ff" stroke="#63b8ff" points="234.4,-17.53 243.83,-12.71 233.45,-10.6 234.4,-17.53"/>
</a>
</g>
</g>
<!-- Node25 -->
<g id="Node000025" class="node">
<title>Node25</title>
<g id="a_Node000025"><a xlink:title=" ">
<polygon fill="#e0e0e0" stroke="#999999" points="162,-129 104,-129 104,-110 162,-110 162,-129"/>
<text text-anchor="middle" x="133" y="-117" font-family="Helvetica,sans-Serif" font-size="10.00">memory</text>
</a>
</g>
</g>
<!-- Node2&#45;&gt;Node25 -->
<g id="edge54_Node000002_Node000025" class="edge">
<title>Node2&#45;&gt;Node25</title>
<g id="a_edge54_Node000002_Node000025"><a xlink:title=" ">
<path fill="none" stroke="#63b8ff" d="M115.59,-274.92C119,-244.65 127.04,-173.35 130.88,-139.27"/>
<polygon fill="#63b8ff" stroke="#63b8ff" points="134.37,-139.58 132.01,-129.25 127.41,-138.8 134.37,-139.58"/>
</a>
</g>
</g>
<!-- Node4 -->
<g id="Node000004" class="node">
<title>Node4</title>
<g id="a_Node000004"><a xlink:href="../../d8/d09/bigint_8hpp.html" target="_top" xlink:title="任意精度整数 BigInt，底层调用 LAMMP 实现高性能大数运算。">
<polygon fill="white" stroke="#666666" points="938.5,-74 873.5,-74 873.5,-55 938.5,-55 938.5,-74"/>
<text text-anchor="middle" x="906" y="-62" font-family="Helvetica,sans-Serif" font-size="10.00">bigint.hpp</text>
</a>
</g>
</g>
<!-- Node3&#45;&gt;Node4 -->
<g id="edge3_Node000003_Node000004" class="edge">
<title>Node3&#45;&gt;Node4</title>
<g id="a_edge3_Node000003_Node000004"><a xlink:title=" ">
<path fill="none" stroke="#63b8ff" d="M1114.5,-219.99C1117.77,-198.46 1123.07,-141.29 1094,-110 1089,-104.62 1002.78,-85.76 948.86,-74.39"/>
<polygon fill="#63b8ff" stroke="#63b8ff" points="949.37,-70.92 938.87,-72.29 947.94,-77.77 949.37,-70.92"/>
</a>
</g>
</g>
<!-- Node10 -->
<g id="Node000010" class="node">
<title>Node10</title>
<g id="a_Node000010"><a xlink:title=" ">
<polygon fill="#e0e0e0" stroke="#999999" points="1278.5,-19 1229.5,-19 1229.5,0 1278.5,0 1278.5,-19"/>
<text text-anchor="middle" x="1254" y="-7" font-family="Helvetica,sans-Serif" font-size="10.00">cstdlib</text>
</a>
</g>
</g>
<!-- Node3&#45;&gt;Node10 -->
<g id="edge53_Node000003_Node000010" class="edge">
<title>Node3&#45;&gt;Node10</title>
<g id="a_edge53_Node000003_Node000010"><a xlink:title=" ">
<path fill="none" stroke="#63b8ff" d="M1125.79,-219.78C1137.14,-211.55 1153.66,-198.36 1165,-184 1204.96,-133.4 1234.73,-62.05 1247.35,-28.84"/>
<polygon fill="#63b8ff" stroke="#63b8ff" points="1250.75,-29.72 1250.96,-19.12 1244.19,-27.28 1250.75,-29.72"/>
</a>
</g>
</g>
<!-- Node3&#45;&gt;Node12 -->
<g id="edge45_Node000003_Node000012" class="edge">
<title>Node3&#45;&gt;Node12</title>
<g id="a_edge45_Node000003_Node000012"><a xlink:title=" ">
<path fill="none" stroke="#63b8ff" d="M1071.86,-228.52C925.68,-227.81 433.45,-218.69 310,-129 278,-105.75 269.25,-56.49 266.87,-29.38"/>
<polygon fill="#63b8ff" stroke="#63b8ff" points="270.35,-29 266.19,-19.25 263.37,-29.47 270.35,-29"/>
</a>
</g>
</g>
<!-- Node13 -->
<g id="Node000013" class="node">
<title>Node13</title>
<g id="a_Node000013"><a xlink:title=" ">
<polygon fill="#e0e0e0" stroke="#999999" points="1357,-19 1297,-19 1297,0 1357,0 1357,-19"/>
<text text-anchor="middle" x="1327" y="-7" font-family="Helvetica,sans-Serif" font-size="10.00">iostream</text>
</a>
</g>
</g>
<!-- Node3&#45;&gt;Node13 -->
<g id="edge52_Node000003_Node000013" class="edge">
<title>Node3&#45;&gt;Node13</title>
<g id="a_edge52_Node000003_Node000013"><a xlink:title=" ">
<path fill="none" stroke="#63b8ff" d="M1154.14,-222.89C1213.93,-214.33 1318.94,-197.56 1330,-184 1366.6,-139.13 1346.55,-63.84 1334.29,-29.1"/>
<polygon fill="#63b8ff" stroke="#63b8ff" points="1337.42,-27.49 1330.66,-19.33 1330.86,-29.93 1337.42,-27.49"/>
</a>
</g>
</g>
<!-- Node14 -->
<g id="Node000014" class="node">
<title>Node14</title>
<g id="a_Node000014"><a xlink:title=" ">
<polygon fill="#e0e0e0" stroke="#999999" points="1211,-19 1147,-19 1147,0 1211,0 1211,-19"/>
<text text-anchor="middle" x="1179" y="-7" font-family="Helvetica,sans-Serif" font-size="10.00">algorithm</text>
</a>
</g>
</g>
<!-- Node3&#45;&gt;Node14 -->
<g id="edge49_Node000003_Node000014" class="edge">
<title>Node3&#45;&gt;Node14</title>
<g id="a_edge49_Node000003_Node000014"><a xlink:title=" ">
<path fill="none" stroke="#63b8ff" d="M1121.98,-219.84C1130.1,-211.45 1141.72,-197.99 1148,-184 1171.53,-131.53 1177.22,-62.6 1178.58,-29.65"/>
<polygon fill="#63b8ff" stroke="#63b8ff" points="1182.09,-29.34 1178.91,-19.24 1175.1,-29.12 1182.09,-29.34"/>
</a>
</g>
</g>
<!-- Node17 -->
<g id="Node000017" class="node">
<title>Node17</title>
<g id="a_Node000017"><a xlink:title=" ">
<polygon fill="#e0e0e0" stroke="#999999" points="1419,-19 1375,-19 1375,0 1419,0 1419,-19"/>
<text text-anchor="middle" x="1397" y="-7" font-family="Helvetica,sans-Serif" font-size="10.00">limits</text>
</a>
</g>
</g>
<!-- Node3&#45;&gt;Node17 -->
<g id="edge48_Node000003_Node000017" class="edge">
<title>Node3&#45;&gt;Node17</title>
<g id="a_edge48_Node000003_Node000017"><a xlink:title=" ">
<path fill="none" stroke="#63b8ff" d="M1154.11,-223.14C1217.88,-214.48 1334.81,-197.05 1349,-184 1393.42,-143.15 1398.14,-65.21 1397.78,-29.38"/>
<polygon fill="#63b8ff" stroke="#63b8ff" points="1401.27,-29.23 1397.52,-19.32 1394.28,-29.41 1401.27,-29.23"/>
</a>
</g>
</g>
<!-- Node19 -->
<g id="Node000019" class="node">
<title>Node19</title>
<g id="a_Node000019"><a xlink:href="../../d1/de8/rational_8hpp.html" target="_top" xlink:title="精确有理数 Rational，基于 BigInt 分子/分母表示，自动约分。">
<polygon fill="white" stroke="#666666" points="419.5,-129 344.5,-129 344.5,-110 419.5,-110 419.5,-129"/>
<text text-anchor="middle" x="382" y="-117" font-family="Helvetica,sans-Serif" font-size="10.00">rational.hpp</text>
</a>
</g>
</g>
<!-- Node3&#45;&gt;Node19 -->
<g id="edge18_Node000003_Node000019" class="edge">
<title>Node3&#45;&gt;Node19</title>
<g id="a_edge18_Node000003_Node000019"><a xlink:title=" ">
<path fill="none" stroke="#63b8ff" d="M1071.75,-226.72C988.99,-222.68 797.03,-211.02 638,-184 559.65,-170.69 469.88,-146.24 420.18,-131.88"/>
<polygon fill="#63b8ff" stroke="#63b8ff" points="421.08,-128.49 410.5,-129.06 419.12,-135.21 421.08,-128.49"/>
</a>
</g>
</g>
<!-- Node22 -->
<g id="Node000022" class="node">
<title>Node22</title>
<g id="a_Node000022"><a xlink:title=" ">
<polygon fill="#e0e0e0" stroke="#999999" points="995,-74 957,-74 957,-55 995,-55 995,-74"/>
<text text-anchor="middle" x="976" y="-62" font-family="Helvetica,sans-Serif" font-size="10.00">map</text>
</a>
</g>
</g>
<!-- Node3&#45;&gt;Node22 -->
<g id="edge50_Node000003_Node000022" class="edge">
<title>Node3&#45;&gt;Node22</title>
<g id="a_edge50_Node000003_Node000022"><a xlink:title=" ">
<path fill="none" stroke="#63b8ff" d="M1117.79,-219.7C1128.62,-198.46 1152.19,-143.68 1127,-110 1098.97,-72.51 1040.85,-65.27 1005.46,-64.58"/>
<polygon fill="#63b8ff" stroke="#63b8ff" points="1005.27,-61.08 995.26,-64.55 1005.25,-68.08 1005.27,-61.08"/>
</a>
</g>
</g>
<!-- Node24 -->
<g id="Node000024" class="node">
<title>Node24</title>
<g id="a_Node000024"><a xlink:href="../../d9/d89/symbolic__ast_8hpp.html" target="_top" xlink:title="AST 节点定义：NumberNode, VariableNode, AddNode, MultiplyNode, PowerNode, FunctionNode,...">
<polygon fill="white" stroke="#666666" points="749,-184 647,-184 647,-165 749,-165 749,-184"/>
<text text-anchor="middle" x="698" y="-172" font-family="Helvetica,sans-Serif" font-size="10.00">symbolic_ast.hpp</text>
</a>
</g>
</g>
<!-- Node3&#45;&gt;Node24 -->
<g id="edge28_Node000003_Node000024" class="edge">
<title>Node3&#45;&gt;Node24</title>
<g id="a_edge28_Node000003_Node000024"><a xlink:title=" ">
<path fill="none" stroke="#63b8ff" d="M1071.69,-223.22C998.3,-213.85 844.88,-194.26 759.2,-183.32"/>
<polygon fill="#63b8ff" stroke="#63b8ff" points="759.46,-179.82 749.1,-182.03 758.57,-186.76 759.46,-179.82"/>
</a>
</g>
</g>
<!-- Node3&#45;&gt;Node25 -->
<g id="edge44_Node000003_Node000025" class="edge">
<title>Node3&#45;&gt;Node25</title>
<g id="a_edge44_Node000003_Node000025"><a xlink:title=" ">
<path fill="none" stroke="#63b8ff" d="M1071.98,-228.69C901.57,-229.22 254.82,-228.24 176,-184 158.45,-174.15 146.64,-153.8 139.9,-138.78"/>
<polygon fill="#63b8ff" stroke="#63b8ff" points="143.09,-137.34 136.04,-129.43 136.62,-140.01 143.09,-137.34"/>
</a>
</g>
</g>
<!-- Node26 -->
<g id="Node000026" class="node">
<title>Node26</title>
<g id="a_Node000026"><a xlink:title=" ">
<polygon fill="#e0e0e0" stroke="#999999" points="1084.5,-129 1033.5,-129 1033.5,-110 1084.5,-110 1084.5,-129"/>
<text text-anchor="middle" x="1059" y="-117" font-family="Helvetica,sans-Serif" font-size="10.00">variant</text>
</a>
</g>
</g>
<!-- Node3&#45;&gt;Node26 -->
<g id="edge46_Node000003_Node000026" class="edge">
<title>Node3&#45;&gt;Node26</title>
<g id="a_edge46_Node000003_Node000026"><a xlink:title=" ">
<path fill="none" stroke="#63b8ff" d="M1108.58,-219.66C1099.72,-201.93 1079.61,-161.73 1067.91,-138.32"/>
<polygon fill="#63b8ff" stroke="#63b8ff" points="1070.93,-136.54 1063.33,-129.16 1064.67,-139.67 1070.93,-136.54"/>
</a>
</g>
</g>
<!-- Node3&#45;&gt;Node31 -->
<g id="edge47_Node000003_Node000031" class="edge">
<title>Node3&#45;&gt;Node31</title>
<g id="a_edge47_Node000003_Node000031"><a xlink:title=" ">
<path fill="none" stroke="#63b8ff" d="M1154.16,-223.02C1210.19,-215.36 1313.5,-200.53 1401,-184 1402.45,-183.73 1403.94,-183.44 1405.43,-183.14"/>
<polygon fill="#63b8ff" stroke="#63b8ff" points="1406.27,-186.54 1415.33,-181.05 1404.83,-179.69 1406.27,-186.54"/>
</a>
</g>
</g>
<!-- Node32 -->
<g id="Node000032" class="node">
<title>Node32</title>
<g id="a_Node000032"><a xlink:title=" ">
<polygon fill="#e0e0e0" stroke="#999999" points="1320.5,-184 1255.5,-184 1255.5,-165 1320.5,-165 1320.5,-184"/>
<text text-anchor="middle" x="1288" y="-172" font-family="Helvetica,sans-Serif" font-size="10.00">functional</text>
</a>
</g>
</g>
<!-- Node3&#45;&gt;Node32 -->
<g id="edge51_Node000003_Node000032" class="edge">
<title>Node3&#45;&gt;Node32</title>
<g id="a_edge51_Node000003_Node000032"><a xlink:title=" ">
<path fill="none" stroke="#63b8ff" d="M1141.12,-219.98C1170.62,-211.05 1217.19,-196.94 1249.97,-187.02"/>
<polygon fill="#63b8ff" stroke="#63b8ff" points="1251.11,-190.33 1259.66,-184.08 1249.08,-183.63 1251.11,-190.33"/>
</a>
</g>
</g>
<!-- Node5 -->
<g id="Node000005" class="node">
<title>Node5</title>
<g id="a_Node000005"><a xlink:title=" ">
<polygon fill="#e0e0e0" stroke="#999999" points="1129,-19 1037,-19 1037,0 1129,0 1129,-19"/>
<text text-anchor="middle" x="1083" y="-7" font-family="Helvetica,sans-Serif" font-size="10.00">lammp/lmmp.h</text>
</a>
</g>
</g>
<!-- Node4&#45;&gt;Node5 -->
<g id="edge4_Node000004_Node000005" class="edge">
<title>Node4&#45;&gt;Node5</title>
<g id="a_edge4_Node000004_Node000005"><a xlink:title=" ">
<path fill="none" stroke="#63b8ff" d="M934.44,-54.98C964.28,-46.05 1011.38,-31.94 1044.53,-22.02"/>
<polygon fill="#63b8ff" stroke="#63b8ff" points="1045.76,-25.3 1054.34,-19.08 1043.76,-18.6 1045.76,-25.3"/>
</a>
</g>
</g>
<!-- Node6 -->
<g id="Node000006" class="node">
<title>Node6</title>
<g id="a_Node000006"><a xlink:title=" ">
<polygon fill="#e0e0e0" stroke="#999999" points="747,-19 649,-19 649,0 747,0 747,-19"/>
<text text-anchor="middle" x="698" y="-7" font-family="Helvetica,sans-Serif" font-size="10.00">lammp/lmmpn.h</text>
</a>
</g>
</g>
<!-- Node4&#45;&gt;Node6 -->
<g id="edge5_Node000004_Node000006" class="edge">
<title>Node4&#45;&gt;Node6</title>
<g id="a_edge5_Node000004_Node000006"><a xlink:title=" ">
<path fill="none" stroke="#63b8ff" d="M873.04,-55.1C837.42,-46.03 780.51,-31.52 741.3,-21.53"/>
<polygon fill="#63b8ff" stroke="#63b8ff" points="742.05,-18.11 731.49,-19.03 740.32,-24.9 742.05,-18.11"/>
</a>
</g>
</g>
<!-- Node7 -->
<g id="Node000007" class="node">
<title>Node7</title>
<g id="a_Node000007"><a xlink:title=" ">
<polygon fill="#e0e0e0" stroke="#999999" points="860.5,-19 765.5,-19 765.5,0 860.5,0 860.5,-19"/>
<text text-anchor="middle" x="813" y="-7" font-family="Helvetica,sans-Serif" font-size="10.00">lammp/numth.h</text>
</a>
</g>
</g>
<!-- Node4&#45;&gt;Node7 -->
<g id="edge6_Node000004_Node000007" class="edge">
<title>Node4&#45;&gt;Node7</title>
<g id="a_edge6_Node000004_Node000007"><a xlink:title=" ">
<path fill="none" stroke="#63b8ff" d="M891.06,-54.98C876.5,-46.69 854.13,-33.94 837.07,-24.22"/>
<polygon fill="#63b8ff" stroke="#63b8ff" points="838.64,-21.08 828.21,-19.17 835.17,-27.16 838.64,-21.08"/>
</a>
</g>
</g>
<!-- Node8 -->
<g id="Node000008" class="node">
<title>Node8</title>
<g id="a_Node000008"><a xlink:title=" ">
<polygon fill="#e0e0e0" stroke="#999999" points="951,-19 879,-19 879,0 951,0 951,-19"/>
<text text-anchor="middle" x="915" y="-7" font-family="Helvetica,sans-Serif" font-size="10.00">lmmc/init.h</text>
</a>
</g>
</g>
<!-- Node4&#45;&gt;Node8 -->
<g id="edge7_Node000004_Node000008" class="edge">
<title>Node4&#45;&gt;Node8</title>
<g id="a_edge7_Node000004_Node000008"><a xlink:title=" ">
<path fill="none" stroke="#63b8ff" d="M907.49,-54.75C908.67,-47.8 910.36,-37.85 911.84,-29.13"/>
<polygon fill="#63b8ff" stroke="#63b8ff" points="915.32,-29.53 913.54,-19.09 908.42,-28.36 915.32,-29.53"/>
</a>
</g>
</g>
<!-- Node4&#45;&gt;Node9 -->
<g id="edge8_Node000004_Node000009" class="edge">
<title>Node4&#45;&gt;Node9</title>
<g id="a_edge8_Node000004_Node000009"><a xlink:title=" ">
<path fill="none" stroke="#63b8ff" d="M873.18,-61.41C775.82,-55.2 480.15,-36.19 235,-19 207.76,-17.09 176.9,-14.8 154.01,-13.08"/>
<polygon fill="#63b8ff" stroke="#63b8ff" points="154.02,-9.57 143.78,-12.31 153.49,-16.55 154.02,-9.57"/>
</a>
</g>
</g>
<!-- Node4&#45;&gt;Node10 -->
<g id="edge9_Node000004_Node000010" class="edge">
<title>Node4&#45;&gt;Node10</title>
<g id="a_edge9_Node000004_Node000010"><a xlink:title=" ">
<path fill="none" stroke="#63b8ff" d="M938.52,-56.69C941.72,-56.09 944.92,-55.52 948,-55 1065.1,-35.42 1098.47,-41.48 1219.19,-18.94"/>
<polygon fill="#63b8ff" stroke="#63b8ff" points="1220.02,-22.35 1229.19,-17.05 1218.71,-15.47 1220.02,-22.35"/>
</a>
</g>
</g>
<!-- Node11 -->
<g id="Node000011" class="node">
<title>Node11</title>
<g id="a_Node000011"><a xlink:title=" ">
<polygon fill="#e0e0e0" stroke="#999999" points="1019,-19 969,-19 969,0 1019,0 1019,-19"/>
<text text-anchor="middle" x="994" y="-7" font-family="Helvetica,sans-Serif" font-size="10.00">cstring</text>
</a>
</g>
</g>
<!-- Node4&#45;&gt;Node11 -->
<g id="edge10_Node000004_Node000011" class="edge">
<title>Node4&#45;&gt;Node11</title>
<g id="a_edge10_Node000004_Node000011"><a xlink:title=" ">
<path fill="none" stroke="#63b8ff" d="M920.14,-54.98C933.79,-46.77 954.69,-34.18 970.78,-24.49"/>
<polygon fill="#63b8ff" stroke="#63b8ff" points="972.84,-27.33 979.6,-19.17 969.23,-21.33 972.84,-27.33"/>
</a>
</g>
</g>
<!-- Node4&#45;&gt;Node12 -->
<g id="edge11_Node000004_Node000012" class="edge">
<title>Node4&#45;&gt;Node12</title>
<g id="a_edge11_Node000004_Node000012"><a xlink:title=" ">
<path fill="none" stroke="#63b8ff" d="M873.38,-60.8C763.44,-51.69 407.21,-22.19 298.07,-13.16"/>
<polygon fill="#63b8ff" stroke="#63b8ff" points="298.27,-9.66 288.01,-12.32 297.69,-16.64 298.27,-9.66"/>
</a>
</g>
</g>
<!-- Node4&#45;&gt;Node13 -->
<g id="edge12_Node000004_Node000013" class="edge">
<title>Node4&#45;&gt;Node13</title>
<g id="a_edge12_Node000004_Node000013"><a xlink:title=" ">
<path fill="none" stroke="#63b8ff" d="M938.51,-56.61C941.71,-56.02 944.91,-55.47 948,-55 1094.96,-32.4 1136.23,-42.75 1286.75,-19.03"/>
<polygon fill="#63b8ff" stroke="#63b8ff" points="1287.51,-22.45 1296.83,-17.42 1286.4,-15.54 1287.51,-22.45"/>
</a>
</g>
</g>
<!-- Node4&#45;&gt;Node14 -->
<g id="edge13_Node000004_Node000014" class="edge">
<title>Node4&#45;&gt;Node14</title>
<g id="a_edge13_Node000004_Node000014"><a xlink:title=" ">
<path fill="none" stroke="#63b8ff" d="M938.55,-56.87C941.74,-56.23 944.93,-55.6 948,-55 1029.3,-39.07 1052.07,-35.94 1136.97,-19.18"/>
<polygon fill="#63b8ff" stroke="#63b8ff" points="1137.65,-22.61 1146.78,-17.23 1136.29,-15.74 1137.65,-22.61"/>
</a>
</g>
</g>
<!-- Node15 -->
<g id="Node000015" class="node">
<title>Node15</title>
<g id="a_Node000015"><a xlink:title=" ">
<polygon fill="#e0e0e0" stroke="#999999" points="443,-19 387,-19 387,0 443,0 443,-19"/>
<text text-anchor="middle" x="415" y="-7" font-family="Helvetica,sans-Serif" font-size="10.00">iomanip</text>
</a>
</g>
</g>
<!-- Node4&#45;&gt;Node15 -->
<g id="edge14_Node000004_Node000015" class="edge">
<title>Node4&#45;&gt;Node15</title>
<g id="a_edge14_Node000004_Node000015"><a xlink:title=" ">
<path fill="none" stroke="#63b8ff" d="M873.33,-61.74C799.97,-57.47 616.45,-45.1 453.42,-19.03"/>
<polygon fill="#63b8ff" stroke="#63b8ff" points="453.64,-15.52 443.21,-17.37 452.52,-22.43 453.64,-15.52"/>
</a>
</g>
</g>
<!-- Node16 -->
<g id="Node000016" class="node">
<title>Node16</title>
<g id="a_Node000016"><a xlink:title=" ">
<polygon fill="#e0e0e0" stroke="#999999" points="630.5,-19 565.5,-19 565.5,0 630.5,0 630.5,-19"/>
<text text-anchor="middle" x="598" y="-7" font-family="Helvetica,sans-Serif" font-size="10.00">stdexcept</text>
</a>
</g>
</g>
<!-- Node4&#45;&gt;Node16 -->
<g id="edge15_Node000004_Node000016" class="edge">
<title>Node4&#45;&gt;Node16</title>
<g id="a_edge15_Node000004_Node000016"><a xlink:title=" ">
<path fill="none" stroke="#63b8ff" d="M873.4,-57.53C868.57,-56.67 863.66,-55.8 859,-55 764.93,-38.76 738.69,-36.89 640.58,-19.05"/>
<polygon fill="#63b8ff" stroke="#63b8ff" points="641,-15.56 630.54,-17.21 639.74,-22.45 641,-15.56"/>
</a>
</g>
</g>
<!-- Node4&#45;&gt;Node17 -->
<g id="edge16_Node000004_Node000017" class="edge">
<title>Node4&#45;&gt;Node17</title>
<g id="a_edge16_Node000004_Node000017"><a xlink:title=" ">
<path fill="none" stroke="#63b8ff" d="M938.95,-56.46C942,-55.92 945.05,-55.42 948,-55 1129.32,-28.93 1180.65,-50.98 1364.75,-18.89"/>
<polygon fill="#63b8ff" stroke="#63b8ff" points="1365.52,-22.31 1374.76,-17.12 1364.3,-15.42 1365.52,-22.31"/>
</a>
</g>
</g>
<!-- Node18 -->
<g id="Node000018" class="node">
<title>Node18</title>
<g id="a_Node000018"><a xlink:title=" ">
<polygon fill="#e0e0e0" stroke="#999999" points="547,-19 461,-19 461,0 547,0 547,-19"/>
<text text-anchor="middle" x="504" y="-7" font-family="Helvetica,sans-Serif" font-size="10.00">lmmc/config.h</text>
</a>
</g>
</g>
<!-- Node4&#45;&gt;Node18 -->
<g id="edge17_Node000004_Node000018" class="edge">
<title>Node4&#45;&gt;Node18</title>
<g id="a_edge17_Node000004_Node000018"><a xlink:title=" ">
<path fill="none" stroke="#63b8ff" d="M873.13,-59.72C812.7,-52.67 679.64,-36.77 557.05,-19.11"/>
<polygon fill="#63b8ff" stroke="#63b8ff" points="557.51,-15.64 547.11,-17.67 556.51,-22.57 557.51,-15.64"/>
</a>
</g>
</g>
<!-- Node19&#45;&gt;Node4 -->
<g id="edge21_Node000019_Node000004" class="edge">
<title>Node19&#45;&gt;Node4</title>
<g id="a_edge21_Node000019_Node000004"><a xlink:title=" ">
<path fill="none" stroke="#63b8ff" d="M419.61,-111.27C422.44,-110.81 425.26,-110.38 428,-110 587.92,-87.83 779.52,-73.73 863.28,-68.18"/>
<polygon fill="#63b8ff" stroke="#63b8ff" points="863.68,-71.66 873.43,-67.52 863.22,-64.68 863.68,-71.66"/>
</a>
</g>
</g>
<!-- Node19&#45;&gt;Node12 -->
<g id="edge25_Node000019_Node000012" class="edge">
<title>Node19&#45;&gt;Node12</title>
<g id="a_edge25_Node000019_Node000012"><a xlink:title=" ">
<path fill="none" stroke="#63b8ff" d="M369.25,-109.96C356.91,-101.45 337.93,-87.71 323,-74 306.89,-59.21 290.4,-40.35 279.33,-27.04"/>
<polygon fill="#63b8ff" stroke="#63b8ff" points="281.94,-24.71 272.89,-19.2 276.53,-29.15 281.94,-24.71"/>
</a>
</g>
</g>
<!-- Node19&#45;&gt;Node15 -->
<g id="edge22_Node000019_Node000015" class="edge">
<title>Node19&#45;&gt;Node15</title>
<g id="a_edge22_Node000019_Node000015"><a xlink:title=" ">
<path fill="none" stroke="#63b8ff" d="M417.05,-109.88C435.65,-103.33 456.9,-92.24 468,-74 479.28,-55.47 458.79,-36.69 440.1,-24.42"/>
<polygon fill="#63b8ff" stroke="#63b8ff" points="441.83,-21.38 431.48,-19.1 438.15,-27.33 441.83,-21.38"/>
</a>
</g>
</g>
<!-- Node19&#45;&gt;Node16 -->
<g id="edge24_Node000019_Node000016" class="edge">
<title>Node19&#45;&gt;Node16</title>
<g id="a_edge24_Node000019_Node000016"><a xlink:title=" ">
<path fill="none" stroke="#63b8ff" d="M411.43,-109.99C436.68,-102.18 473.68,-89.48 504,-74 531.59,-59.92 560.75,-39.17 579.15,-25.27"/>
<polygon fill="#63b8ff" stroke="#63b8ff" points="581.45,-27.91 587.26,-19.05 577.19,-22.36 581.45,-27.91"/>
</a>
</g>
</g>
<!-- Node19&#45;&gt;Node18 -->
<g id="edge19_Node000019_Node000018" class="edge">
<title>Node19&#45;&gt;Node18</title>
<g id="a_edge19_Node000019_Node000018"><a xlink:title=" ">
<path fill="none" stroke="#63b8ff" d="M419.6,-110.35C441.17,-103.86 467.21,-92.68 484,-74 494.99,-61.78 499.94,-43.54 502.17,-29.75"/>
<polygon fill="#63b8ff" stroke="#63b8ff" points="505.69,-29.79 503.48,-19.43 498.75,-28.91 505.69,-29.79"/>
</a>
</g>
</g>
<!-- Node20 -->
<g id="Node000020" class="node">
<title>Node20</title>
<g id="a_Node000020"><a xlink:title=" ">
<polygon fill="#e0e0e0" stroke="#999999" points="688,-74 592,-74 592,-55 688,-55 688,-74"/>
<text text-anchor="middle" x="640" y="-62" font-family="Helvetica,sans-Serif" font-size="10.00">lmmc/numeric.h</text>
</a>
</g>
</g>
<!-- Node19&#45;&gt;Node20 -->
<g id="edge20_Node000019_Node000020" class="edge">
<title>Node19&#45;&gt;Node20</title>
<g id="a_edge20_Node000019_Node000020"><a xlink:title=" ">
<path fill="none" stroke="#63b8ff" d="M419.52,-110.79C464.1,-101.63 538.73,-86.3 588.65,-76.05"/>
<polygon fill="#63b8ff" stroke="#63b8ff" points="589.5,-79.45 598.59,-74.01 588.09,-72.59 589.5,-79.45"/>
</a>
</g>
</g>
<!-- Node21 -->
<g id="Node000021" class="node">
<title>Node21</title>
<g id="a_Node000021"><a xlink:title=" ">
<polygon fill="#e0e0e0" stroke="#999999" points="388,-74 332,-74 332,-55 388,-55 388,-74"/>
<text text-anchor="middle" x="360" y="-62" font-family="Helvetica,sans-Serif" font-size="10.00">sstream</text>
</a>
</g>
</g>
<!-- Node19&#45;&gt;Node21 -->
<g id="edge23_Node000019_Node000021" class="edge">
<title>Node19&#45;&gt;Node21</title>
<g id="a_edge23_Node000019_Node000021"><a xlink:title=" ">
<path fill="none" stroke="#63b8ff" d="M378.37,-109.75C375.42,-102.65 371.17,-92.4 367.49,-83.56"/>
<polygon fill="#63b8ff" stroke="#63b8ff" points="370.63,-81.98 363.57,-74.09 364.17,-84.67 370.63,-81.98"/>
</a>
</g>
</g>
<!-- Node19&#45;&gt;Node22 -->
<g id="edge26_Node000019_Node000022" class="edge">
<title>Node19&#45;&gt;Node22</title>
<g id="a_edge26_Node000019_Node000022"><a xlink:title=" ">
<path fill="none" stroke="#63b8ff" d="M419.6,-111.19C422.44,-110.75 425.26,-110.35 428,-110 654.58,-81.32 718.36,-114.93 946.91,-73.75"/>
<polygon fill="#63b8ff" stroke="#63b8ff" points="947.65,-77.18 956.86,-71.93 946.39,-70.29 947.65,-77.18"/>
</a>
</g>
</g>
<!-- Node23 -->
<g id="Node000023" class="node">
<title>Node23</title>
<g id="a_Node000023"><a xlink:title=" ">
<polygon fill="#e0e0e0" stroke="#999999" points="459.5,-74 406.5,-74 406.5,-55 459.5,-55 459.5,-74"/>
<text text-anchor="middle" x="433" y="-62" font-family="Helvetica,sans-Serif" font-size="10.00">stdint.h</text>
</a>
</g>
</g>
<!-- Node19&#45;&gt;Node23 -->
<g id="edge27_Node000019_Node000023" class="edge">
<title>Node19&#45;&gt;Node23</title>
<g id="a_edge27_Node000019_Node000023"><a xlink:title=" ">
<path fill="none" stroke="#63b8ff" d="M390.42,-109.75C397.77,-102.11 408.63,-90.82 417.54,-81.56"/>
<polygon fill="#63b8ff" stroke="#63b8ff" points="420.32,-83.72 424.74,-74.09 415.28,-78.87 420.32,-83.72"/>
</a>
</g>
</g>
<!-- Node24&#45;&gt;Node4 -->
<g id="edge38_Node000024_Node000004" class="edge">
<title>Node24&#45;&gt;Node4</title>
<g id="a_edge38_Node000024_Node000004"><a xlink:title=" ">
<path fill="none" stroke="#63b8ff" d="M749.09,-169.66C803.86,-164.36 885.58,-152.65 905,-129 915.16,-116.63 914.12,-97.86 911.31,-83.94"/>
<polygon fill="#63b8ff" stroke="#63b8ff" points="914.66,-82.89 908.86,-74.02 907.86,-84.57 914.66,-82.89"/>
</a>
</g>
</g>
<!-- Node24&#45;&gt;Node9 -->
<g id="edge30_Node000024_Node000009" class="edge">
<title>Node24&#45;&gt;Node9</title>
<g id="a_edge30_Node000024_Node000009"><a xlink:title=" ">
<path fill="none" stroke="#63b8ff" d="M646.77,-170.43C556.05,-164.54 370.97,-150.29 310,-129 240.89,-104.87 170.65,-52.13 138.34,-25.92"/>
<polygon fill="#63b8ff" stroke="#63b8ff" points="140.21,-22.92 130.26,-19.27 135.76,-28.33 140.21,-22.92"/>
</a>
</g>
</g>
<!-- Node24&#45;&gt;Node12 -->
<g id="edge31_Node000024_Node000012" class="edge">
<title>Node24&#45;&gt;Node12</title>
<g id="a_edge31_Node000024_Node000012"><a xlink:title=" ">
<path fill="none" stroke="#63b8ff" d="M646.81,-172.6C559.31,-170.19 385.53,-161.36 335,-129 298.7,-105.76 279.23,-56.12 270.95,-29.05"/>
<polygon fill="#63b8ff" stroke="#63b8ff" points="274.26,-27.92 268.14,-19.27 267.53,-29.85 274.26,-27.92"/>
</a>
</g>
</g>
<!-- Node24&#45;&gt;Node14 -->
<g id="edge33_Node000024_Node000014" class="edge">
<title>Node24&#45;&gt;Node14</title>
<g id="a_edge33_Node000024_Node000014"><a xlink:title=" ">
<path fill="none" stroke="#63b8ff" d="M749.17,-168.82C800.29,-163.11 880.61,-151.33 947,-129 1028.55,-101.56 1117.02,-49.46 1157.09,-24.51"/>
<polygon fill="#63b8ff" stroke="#63b8ff" points="1159.16,-27.34 1165.76,-19.05 1155.43,-21.41 1159.16,-27.34"/>
</a>
</g>
</g>
<!-- Node24&#45;&gt;Node16 -->
<g id="edge41_Node000024_Node000016" class="edge">
<title>Node24&#45;&gt;Node16</title>
<g id="a_edge41_Node000024_Node000016"><a xlink:title=" ">
<path fill="none" stroke="#63b8ff" d="M749.05,-172.38C811.08,-169.02 903.76,-156.36 872,-110 845.18,-70.85 710.63,-35.67 640.56,-19.65"/>
<polygon fill="#63b8ff" stroke="#63b8ff" points="641.24,-16.21 630.72,-17.42 639.7,-23.04 641.24,-16.21"/>
</a>
</g>
</g>
<!-- Node24&#45;&gt;Node18 -->
<g id="edge39_Node000024_Node000018" class="edge">
<title>Node24&#45;&gt;Node18</title>
<g id="a_edge39_Node000024_Node000018"><a xlink:title=" ">
<path fill="none" stroke="#63b8ff" d="M652.27,-164.94C613.69,-155.58 567.72,-138.06 588,-110 619.79,-66.02 730.79,-97.46 697,-55 688.23,-43.97 611.54,-28.82 557.53,-19.35"/>
<polygon fill="#63b8ff" stroke="#63b8ff" points="557.84,-15.85 547.39,-17.59 556.64,-22.75 557.84,-15.85"/>
</a>
</g>
</g>
<!-- Node24&#45;&gt;Node19 -->
<g id="edge37_Node000024_Node000019" class="edge">
<title>Node24&#45;&gt;Node19</title>
<g id="a_edge37_Node000024_Node000019"><a xlink:title=" ">
<path fill="none" stroke="#63b8ff" d="M646.94,-165.39C594.73,-157.02 511.02,-143.43 429.57,-129.25"/>
<polygon fill="#63b8ff" stroke="#63b8ff" points="430.1,-125.79 419.64,-127.52 428.89,-132.68 430.1,-125.79"/>
</a>
</g>
</g>
<!-- Node24&#45;&gt;Node20 -->
<g id="edge40_Node000024_Node000020" class="edge">
<title>Node24&#45;&gt;Node20</title>
<g id="a_edge40_Node000024_Node000020"><a xlink:title=" ">
<path fill="none" stroke="#63b8ff" d="M646.66,-172.06C614.72,-168.18 575.89,-157.37 555,-129 538.52,-106.61 571.02,-88.55 600.47,-77.49"/>
<polygon fill="#63b8ff" stroke="#63b8ff" points="602.02,-80.66 610.27,-74.02 599.68,-74.06 602.02,-80.66"/>
</a>
</g>
</g>
<!-- Node24&#45;&gt;Node22 -->
<g id="edge43_Node000024_Node000022" class="edge">
<title>Node24&#45;&gt;Node22</title>
<g id="a_edge43_Node000024_Node000022"><a xlink:title=" ">
<path fill="none" stroke="#63b8ff" d="M749.42,-172.77C797.15,-170 868.67,-160.33 922,-129 941.04,-117.82 956.57,-97.41 966,-82.74"/>
<polygon fill="#63b8ff" stroke="#63b8ff" points="969.06,-84.44 971.3,-74.09 963.09,-80.79 969.06,-84.44"/>
</a>
</g>
</g>
<!-- Node24&#45;&gt;Node25 -->
<g id="edge29_Node000024_Node000025" class="edge">
<title>Node24&#45;&gt;Node25</title>
<g id="a_edge29_Node000024_Node000025"><a xlink:title=" ">
<path fill="none" stroke="#63b8ff" d="M646.76,-169.01C558.4,-161.21 371.67,-144.52 214,-129 200.45,-127.67 185.64,-126.13 172.43,-124.74"/>
<polygon fill="#63b8ff" stroke="#63b8ff" points="172.55,-121.23 162.23,-123.66 171.81,-128.19 172.55,-121.23"/>
</a>
</g>
</g>
<!-- Node24&#45;&gt;Node26 -->
<g id="edge32_Node000024_Node000026" class="edge">
<title>Node24&#45;&gt;Node26</title>
<g id="a_edge32_Node000024_Node000026"><a xlink:title=" ">
<path fill="none" stroke="#63b8ff" d="M749.05,-167.57C812.52,-159.93 924.1,-145.64 1019,-129 1020.44,-128.75 1021.91,-128.48 1023.39,-128.2"/>
<polygon fill="#63b8ff" stroke="#63b8ff" points="1024.1,-131.63 1033.23,-126.26 1022.74,-124.76 1024.1,-131.63"/>
</a>
</g>
</g>
<!-- Node27 -->
<g id="Node000027" class="node">
<title>Node27</title>
<g id="a_Node000027"><a xlink:title=" ">
<polygon fill="#e0e0e0" stroke="#999999" points="502.5,-129 437.5,-129 437.5,-110 502.5,-110 502.5,-129"/>
<text text-anchor="middle" x="470" y="-117" font-family="Helvetica,sans-Serif" font-size="10.00">typeindex</text>
</a>
</g>
</g>
<!-- Node24&#45;&gt;Node27 -->
<g id="edge34_Node000024_Node000027" class="edge">
<title>Node24&#45;&gt;Node27</title>
<g id="a_edge34_Node000024_Node000027"><a xlink:title=" ">
<path fill="none" stroke="#63b8ff" d="M661.37,-164.98C620.81,-155.56 555.52,-140.38 512.69,-130.42"/>
<polygon fill="#63b8ff" stroke="#63b8ff" points="513.37,-126.99 502.84,-128.13 511.79,-133.81 513.37,-126.99"/>
</a>
</g>
</g>
<!-- Node28 -->
<g id="Node000028" class="node">
<title>Node28</title>
<g id="a_Node000028"><a xlink:title=" ">
<polygon fill="#e0e0e0" stroke="#999999" points="690.5,-129 597.5,-129 597.5,-110 690.5,-110 690.5,-129"/>
<text text-anchor="middle" x="644" y="-117" font-family="Helvetica,sans-Serif" font-size="10.00">unordered_map</text>
</a>
</g>
</g>
<!-- Node24&#45;&gt;Node28 -->
<g id="edge35_Node000024_Node000028" class="edge">
<title>Node24&#45;&gt;Node28</title>
<g id="a_edge35_Node000024_Node000028"><a xlink:title=" ">
<path fill="none" stroke="#63b8ff" d="M689.08,-164.75C681.22,-157.03 669.57,-145.6 660.08,-136.28"/>
<polygon fill="#63b8ff" stroke="#63b8ff" points="662.34,-133.6 652.75,-129.09 657.44,-138.59 662.34,-133.6"/>
</a>
</g>
</g>
<!-- Node29 -->
<g id="Node000029" class="node">
<title>Node29</title>
<g id="a_Node000029"><a xlink:title=" ">
<polygon fill="#e0e0e0" stroke="#999999" points="795,-129 709,-129 709,-110 795,-110 795,-129"/>
<text text-anchor="middle" x="752" y="-117" font-family="Helvetica,sans-Serif" font-size="10.00">unordered_set</text>
</a>
</g>
</g>
<!-- Node24&#45;&gt;Node29 -->
<g id="edge36_Node000024_Node000029" class="edge">
<title>Node24&#45;&gt;Node29</title>
<g id="a_edge36_Node000024_Node000029"><a xlink:title=" ">
<path fill="none" stroke="#63b8ff" d="M706.92,-164.75C714.78,-157.03 726.43,-145.6 735.92,-136.28"/>
<polygon fill="#63b8ff" stroke="#63b8ff" points="738.56,-138.59 743.25,-129.09 733.66,-133.6 738.56,-138.59"/>
</a>
</g>
</g>
<!-- Node30 -->
<g id="Node000030" class="node">
<title>Node30</title>
<g id="a_Node000030"><a xlink:title=" ">
<polygon fill="#e0e0e0" stroke="#999999" points="863,-129 813,-129 813,-110 863,-110 863,-129"/>
<text text-anchor="middle" x="838" y="-117" font-family="Helvetica,sans-Serif" font-size="10.00">atomic</text>
</a>
</g>
</g>
<!-- Node24&#45;&gt;Node30 -->
<g id="edge42_Node000024_Node000030" class="edge">
<title>Node24&#45;&gt;Node30</title>
<g id="a_edge42_Node000024_Node000030"><a xlink:title=" ">
<path fill="none" stroke="#63b8ff" d="M720.49,-164.98C743.52,-156.27 779.54,-142.63 805.63,-132.75"/>
<polygon fill="#63b8ff" stroke="#63b8ff" points="806.98,-135.98 815.1,-129.17 804.51,-129.44 806.98,-135.98"/>
</a>
</g>
</g>
</g>
</svg>
