<?xml version="1.0" encoding="UTF-8" standalone="no"?>
<!DOCTYPE svg PUBLIC "-//W3C//DTD SVG 1.1//EN"
 "http://www.w3.org/Graphics/SVG/1.1/DTD/svg11.dtd">
<!-- Generated by graphviz version 2.43.0 (0)
 -->
<!-- Title: include/matrix_decomposition.hpp Pages: 1 -->
<svg width="1139pt" height="159pt"
 viewBox="0.00 0.00 1138.50 159.00" xmlns="http://www.w3.org/2000/svg" xmlns:xlink="http://www.w3.org/1999/xlink">
<g id="page0,1_graph0" class="graph" transform="scale(1 1) rotate(0) translate(4 155)">
<title>include/matrix_decomposition.hpp</title>
<!-- Node1 -->
<g id="Node000001" class="node">
<title>Node1</title>
<g id="a_Node000001"><a xlink:title="矩阵高级分解算法：LU、QR、Cholesky、SVD、特征分解及矩阵指数。">
<polygon fill="#999999" stroke="#666666" points="668.5,-151 483.5,-151 483.5,-132 668.5,-132 668.5,-151"/>
<text text-anchor="middle" x="576" y="-139" font-family="Helvetica,sans-Serif" font-size="10.00">include/matrix_decomposition.hpp</text>
</a>
</g>
</g>
<!-- Node2 -->
<g id="Node000002" class="node">
<title>Node2</title>
<g id="a_Node000002"><a xlink:href="../../d7/d26/matrix__decomposition__support_8hpp.html" target="_top" xlink:title=" ">
<polygon fill="white" stroke="#666666" points="654.5,-96 497.5,-96 497.5,-66 654.5,-66 654.5,-96"/>
<text text-anchor="start" x="505.5" y="-84" font-family="Helvetica,sans-Serif" font-size="10.00">src/internal/matrix</text>
<text text-anchor="middle" x="576" y="-73" font-family="Helvetica,sans-Serif" font-size="10.00">_decomposition_support.hpp</text>
</a>
</g>
</g>
<!-- Node1&#45;&gt;Node2 -->
<g id="edge1_Node000001_Node000002" class="edge">
<title>Node1&#45;&gt;Node2</title>
<g id="a_edge1_Node000001_Node000002"><a xlink:title=" ">
<path fill="none" stroke="#63b8ff" d="M576,-121.65C576,-113.36 576,-103.78 576,-96.11"/>
<polygon fill="#63b8ff" stroke="#63b8ff" points="572.5,-121.87 576,-131.87 579.5,-121.87 572.5,-121.87"/>
</a>
</g>
</g>
<!-- Node3 -->
<g id="Node000003" class="node">
<title>Node3</title>
<g id="a_Node000003"><a xlink:href="../../d0/d37/matrix__decomposition_8cpp.html" target="_top" xlink:title=" ">
<polygon fill="white" stroke="#666666" points="164,-24.5 0,-24.5 0,-5.5 164,-5.5 164,-24.5"/>
<text text-anchor="middle" x="82" y="-12.5" font-family="Helvetica,sans-Serif" font-size="10.00">src/matrix_decomposition.cpp</text>
</a>
</g>
</g>
<!-- Node2&#45;&gt;Node3 -->
<g id="edge2_Node000002_Node000003" class="edge">
<title>Node2&#45;&gt;Node3</title>
<g id="a_edge2_Node000002_Node000003"><a xlink:title=" ">
<path fill="none" stroke="#63b8ff" d="M486.9,-69.7C405.17,-60.08 280.82,-44.98 173,-30 160.97,-28.33 148.06,-26.42 135.85,-24.55"/>
<polygon fill="#63b8ff" stroke="#63b8ff" points="486.8,-73.22 497.14,-70.91 487.62,-66.26 486.8,-73.22"/>
</a>
</g>
</g>
<!-- Node4 -->
<g id="Node000004" class="node">
<title>Node4</title>
<g id="a_Node000004"><a xlink:href="../../da/d8b/matrix__decomposition__cholesky_8cpp.html" target="_top" xlink:title=" ">
<polygon fill="white" stroke="#666666" points="325.5,-30 182.5,-30 182.5,0 325.5,0 325.5,-30"/>
<text text-anchor="start" x="190.5" y="-18" font-family="Helvetica,sans-Serif" font-size="10.00">src/matrix_decomposition</text>
<text text-anchor="middle" x="254" y="-7" font-family="Helvetica,sans-Serif" font-size="10.00">_cholesky.cpp</text>
</a>
</g>
</g>
<!-- Node2&#45;&gt;Node4 -->
<g id="edge3_Node000002_Node000004" class="edge">
<title>Node2&#45;&gt;Node4</title>
<g id="a_edge3_Node000002_Node000004"><a xlink:title=" ">
<path fill="none" stroke="#63b8ff" d="M495.37,-63.98C442.82,-53.53 374.9,-40.03 324.5,-30.01"/>
<polygon fill="#63b8ff" stroke="#63b8ff" points="494.85,-67.44 505.34,-65.95 496.21,-60.57 494.85,-67.44"/>
</a>
</g>
</g>
<!-- Node5 -->
<g id="Node000005" class="node">
<title>Node5</title>
<g id="a_Node000005"><a xlink:href="../../d1/d07/matrix__decomposition__eigen_8cpp.html" target="_top" xlink:title=" ">
<polygon fill="white" stroke="#666666" points="486.5,-30 343.5,-30 343.5,0 486.5,0 486.5,-30"/>
<text text-anchor="start" x="351.5" y="-18" font-family="Helvetica,sans-Serif" font-size="10.00">src/matrix_decomposition</text>
<text text-anchor="middle" x="415" y="-7" font-family="Helvetica,sans-Serif" font-size="10.00">_eigen.cpp</text>
</a>
</g>
</g>
<!-- Node2&#45;&gt;Node5 -->
<g id="edge4_Node000002_Node000005" class="edge">
<title>Node2&#45;&gt;Node5</title>
<g id="a_edge4_Node000002_Node000005"><a xlink:title=" ">
<path fill="none" stroke="#63b8ff" d="M531.19,-62.19C505.63,-52.02 474.03,-39.47 450.25,-30.01"/>
<polygon fill="#63b8ff" stroke="#63b8ff" points="530.08,-65.51 540.67,-65.95 532.67,-59.01 530.08,-65.51"/>
</a>
</g>
</g>
<!-- Node6 -->
<g id="Node000006" class="node">
<title>Node6</title>
<g id="a_Node000006"><a xlink:href="../../df/d98/matrix__decomposition__lu_8cpp.html" target="_top" xlink:title=" ">
<polygon fill="white" stroke="#666666" points="647.5,-30 504.5,-30 504.5,0 647.5,0 647.5,-30"/>
<text text-anchor="start" x="512.5" y="-18" font-family="Helvetica,sans-Serif" font-size="10.00">src/matrix_decomposition</text>
<text text-anchor="middle" x="576" y="-7" font-family="Helvetica,sans-Serif" font-size="10.00">_lu.cpp</text>
</a>
</g>
</g>
<!-- Node2&#45;&gt;Node6 -->
<g id="edge5_Node000002_Node000006" class="edge">
<title>Node2&#45;&gt;Node6</title>
<g id="a_edge5_Node000002_Node000006"><a xlink:title=" ">
<path fill="none" stroke="#63b8ff" d="M576,-55.54C576,-46.96 576,-37.61 576,-30.16"/>
<polygon fill="#63b8ff" stroke="#63b8ff" points="572.5,-55.8 576,-65.8 579.5,-55.8 572.5,-55.8"/>
</a>
</g>
</g>
<!-- Node7 -->
<g id="Node000007" class="node">
<title>Node7</title>
<g id="a_Node000007"><a xlink:href="../../dc/d96/matrix__decomposition__qr_8cpp.html" target="_top" xlink:title=" ">
<polygon fill="white" stroke="#666666" points="808.5,-30 665.5,-30 665.5,0 808.5,0 808.5,-30"/>
<text text-anchor="start" x="673.5" y="-18" font-family="Helvetica,sans-Serif" font-size="10.00">src/matrix_decomposition</text>
<text text-anchor="middle" x="737" y="-7" font-family="Helvetica,sans-Serif" font-size="10.00">_qr.cpp</text>
</a>
</g>
</g>
<!-- Node2&#45;&gt;Node7 -->
<g id="edge6_Node000002_Node000007" class="edge">
<title>Node2&#45;&gt;Node7</title>
<g id="a_edge6_Node000002_Node000007"><a xlink:title=" ">
<path fill="none" stroke="#63b8ff" d="M620.81,-62.19C646.37,-52.02 677.97,-39.47 701.75,-30.01"/>
<polygon fill="#63b8ff" stroke="#63b8ff" points="619.33,-59.01 611.33,-65.95 621.92,-65.51 619.33,-59.01"/>
</a>
</g>
</g>
<!-- Node8 -->
<g id="Node000008" class="node">
<title>Node8</title>
<g id="a_Node000008"><a xlink:href="../../dd/d55/matrix__decomposition__support_8cpp.html" target="_top" xlink:title=" ">
<polygon fill="white" stroke="#666666" points="969.5,-30 826.5,-30 826.5,0 969.5,0 969.5,-30"/>
<text text-anchor="start" x="834.5" y="-18" font-family="Helvetica,sans-Serif" font-size="10.00">src/matrix_decomposition</text>
<text text-anchor="middle" x="898" y="-7" font-family="Helvetica,sans-Serif" font-size="10.00">_support.cpp</text>
</a>
</g>
</g>
<!-- Node2&#45;&gt;Node8 -->
<g id="edge7_Node000002_Node000008" class="edge">
<title>Node2&#45;&gt;Node8</title>
<g id="a_edge7_Node000002_Node000008"><a xlink:title=" ">
<path fill="none" stroke="#63b8ff" d="M656.63,-63.98C709.18,-53.53 777.1,-40.03 827.5,-30.01"/>
<polygon fill="#63b8ff" stroke="#63b8ff" points="655.79,-60.57 646.66,-65.95 657.15,-67.44 655.79,-60.57"/>
</a>
</g>
</g>
<!-- Node9 -->
<g id="Node000009" class="node">
<title>Node9</title>
<g id="a_Node000009"><a xlink:href="../../d0/d40/matrix__decomposition__svd_8cpp.html" target="_top" xlink:title=" ">
<polygon fill="white" stroke="#666666" points="1130.5,-30 987.5,-30 987.5,0 1130.5,0 1130.5,-30"/>
<text text-anchor="start" x="995.5" y="-18" font-family="Helvetica,sans-Serif" font-size="10.00">src/matrix_decomposition</text>
<text text-anchor="middle" x="1059" y="-7" font-family="Helvetica,sans-Serif" font-size="10.00">_svd.cpp</text>
</a>
</g>
</g>
<!-- Node2&#45;&gt;Node9 -->
<g id="edge8_Node000002_Node000009" class="edge">
<title>Node2&#45;&gt;Node9</title>
<g id="a_edge8_Node000002_Node000009"><a xlink:title=" ">
<path fill="none" stroke="#63b8ff" d="M664.55,-70.3C746.32,-61.03 871.07,-46.13 979,-30 981.79,-29.58 984.63,-29.15 987.5,-28.69"/>
<polygon fill="#63b8ff" stroke="#63b8ff" points="664.09,-66.83 654.55,-71.43 664.87,-73.78 664.09,-66.83"/>
</a>
</g>
</g>
</g>
</svg>
