<?xml version="1.0" encoding="UTF-8" standalone="no"?>
<!DOCTYPE svg PUBLIC "-//W3C//DTD SVG 1.1//EN"
 "http://www.w3.org/Graphics/SVG/1.1/DTD/svg11.dtd">
<!-- Generated by graphviz version 2.43.0 (0)
 -->
<!-- Title: lamina::anonymous_namespace{solver::cpp}::PolyBuilder::visit Pages: 1 -->
<svg width="605pt" height="154pt"
 viewBox="0.00 0.00 605.00 153.50" xmlns="http://www.w3.org/2000/svg" xmlns:xlink="http://www.w3.org/1999/xlink">
<g id="graph0" class="graph" transform="scale(1 1) rotate(0) translate(4 149.5)">
<title>lamina::anonymous_namespace{solver::cpp}::PolyBuilder::visit</title>
<!-- Node1 -->
<g id="Node000001" class="node">
<title>Node1</title>
<g id="a_Node000001"><a xlink:title=" ">
<polygon fill="#999999" stroke="#666666" points="175,-84.5 0,-84.5 0,-54.5 175,-54.5 175,-84.5"/>
<text text-anchor="start" x="8" y="-72.5" font-family="Helvetica,sans-Serif" font-size="10.00">lamina::anonymous_namespace</text>
<text text-anchor="middle" x="87.5" y="-61.5" font-family="Helvetica,sans-Serif" font-size="10.00">{solver::cpp}::PolyBuilder::visit</text>
</a>
</g>
</g>
<!-- Node2 -->
<g id="Node000002" class="node">
<title>Node2</title>
<g id="a_Node000002"><a xlink:href="../../d3/d3c/namespacelamina_1_1anonymous__namespace_02solver_8cpp_03.html#a707222a50f096ad062169440826690fb" target="_top" xlink:title=" ">
<polygon fill="white" stroke="#666666" points="386,-127.5 211,-127.5 211,-97.5 386,-97.5 386,-127.5"/>
<text text-anchor="start" x="219" y="-115.5" font-family="Helvetica,sans-Serif" font-size="10.00">lamina::anonymous_namespace</text>
<text text-anchor="middle" x="298.5" y="-104.5" font-family="Helvetica,sans-Serif" font-size="10.00">{solver::cpp}::add_poly</text>
</a>
</g>
</g>
<!-- Node1&#45;&gt;Node2 -->
<g id="edge1_Node000001_Node000002" class="edge">
<title>Node1&#45;&gt;Node2</title>
<g id="a_edge1_Node000001_Node000002"><a xlink:title=" ">
<path fill="none" stroke="#63b8ff" d="M161.6,-84.54C178.62,-88.04 196.87,-91.8 214.29,-95.38"/>
<polygon fill="#63b8ff" stroke="#63b8ff" points="213.94,-98.88 224.44,-97.47 215.35,-92.03 213.94,-98.88"/>
</a>
</g>
</g>
<!-- Node3 -->
<g id="Node000003" class="node">
<title>Node3</title>
<g id="a_Node000003"><a xlink:href="../../dc/d69/structlamina_1_1anonymous__namespace_02solver_8cpp_03_1_1Poly.html#a3be628f1a751779486b386f318fc10a1" target="_top" xlink:title=" ">
<polygon fill="white" stroke="#666666" points="597,-105.5 422,-105.5 422,-75.5 597,-75.5 597,-105.5"/>
<text text-anchor="start" x="430" y="-93.5" font-family="Helvetica,sans-Serif" font-size="10.00">lamina::anonymous_namespace</text>
<text text-anchor="middle" x="509.5" y="-82.5" font-family="Helvetica,sans-Serif" font-size="10.00">{solver::cpp}::Poly::add_term</text>
</a>
</g>
</g>
<!-- Node1&#45;&gt;Node3 -->
<g id="edge4_Node000001_Node000003" class="edge">
<title>Node1&#45;&gt;Node3</title>
<g id="a_edge4_Node000001_Node000003"><a xlink:title=" ">
<path fill="none" stroke="#63b8ff" d="M175.02,-73.83C243.79,-77.26 339.98,-82.07 411.39,-85.64"/>
<polygon fill="#63b8ff" stroke="#63b8ff" points="411.57,-89.16 421.74,-86.16 411.92,-82.17 411.57,-89.16"/>
</a>
</g>
</g>
<!-- Node4 -->
<g id="Node000004" class="node">
<title>Node4</title>
<g id="a_Node000004"><a xlink:href="../../d7/d8e/classlamina_1_1anonymous__namespace_02solver_8cpp_03_1_1PolyBuilder.html#ad634d3633bbcf1a47851421ddd06c16a" target="_top" xlink:title=" ">
<polygon fill="white" stroke="#666666" points="386,-41 211,-41 211,0 386,0 386,-41"/>
<text text-anchor="start" x="219" y="-29" font-family="Helvetica,sans-Serif" font-size="10.00">lamina::anonymous_namespace</text>
<text text-anchor="start" x="219" y="-18" font-family="Helvetica,sans-Serif" font-size="10.00">{solver::cpp}::PolyBuilder</text>
<text text-anchor="middle" x="298.5" y="-7" font-family="Helvetica,sans-Serif" font-size="10.00">::get_result</text>
</a>
</g>
</g>
<!-- Node1&#45;&gt;Node4 -->
<g id="edge5_Node000001_Node000004" class="edge">
<title>Node1&#45;&gt;Node4</title>
<g id="a_edge5_Node000001_Node000004"><a xlink:title=" ">
<path fill="none" stroke="#63b8ff" d="M152.63,-54.47C167.83,-50.9 184.38,-47.02 200.68,-43.2"/>
<polygon fill="#63b8ff" stroke="#63b8ff" points="201.85,-46.52 210.78,-40.83 200.25,-39.71 201.85,-46.52"/>
</a>
</g>
</g>
<!-- Node2&#45;&gt;Node2 -->
<g id="edge2_Node000002_Node000002" class="edge">
<title>Node2&#45;&gt;Node2</title>
<g id="a_edge2_Node000002_Node000002"><a xlink:title=" ">
<path fill="none" stroke="#63b8ff" d="M261.59,-127.78C253.38,-136.91 265.69,-145.5 298.5,-145.5 317.98,-145.5 330.24,-142.47 335.26,-138.1"/>
<polygon fill="#63b8ff" stroke="#63b8ff" points="338.76,-137.83 335.41,-127.78 331.76,-137.72 338.76,-137.83"/>
</a>
</g>
</g>
<!-- Node2&#45;&gt;Node3 -->
<g id="edge3_Node000002_Node000003" class="edge">
<title>Node2&#45;&gt;Node3</title>
<g id="a_edge3_Node000002_Node000003"><a xlink:title=" ">
<path fill="none" stroke="#63b8ff" d="M386.02,-103.39C394.49,-102.5 403.13,-101.59 411.7,-100.69"/>
<polygon fill="#63b8ff" stroke="#63b8ff" points="412.13,-104.16 421.71,-99.64 411.4,-97.2 412.13,-104.16"/>
</a>
</g>
</g>
</g>
</svg>
