<?xml version="1.0" encoding="UTF-8" standalone="no"?>
<!DOCTYPE svg PUBLIC "-//W3C//DTD SVG 1.1//EN"
 "http://www.w3.org/Graphics/SVG/1.1/DTD/svg11.dtd">
<!-- Generated by graphviz version 2.43.0 (0)
 -->
<!-- Title: lamina::anonymous_namespace{solver::cpp}::PolyBuilder::visit Pages: 1 -->
<svg width="547pt" height="118pt"
 viewBox="0.00 0.00 547.00 118.00" xmlns="http://www.w3.org/2000/svg" xmlns:xlink="http://www.w3.org/1999/xlink">
<g id="graph0" class="graph" transform="scale(1 1) rotate(0) translate(4 114)">
<title>lamina::anonymous_namespace{solver::cpp}::PolyBuilder::visit</title>
<!-- Node1 -->
<g id="Node000001" class="node">
<title>Node1</title>
<g id="a_Node000001"><a xlink:title=" ">
<polygon fill="#999999" stroke="#666666" points="175,-67 0,-67 0,-37 175,-37 175,-67"/>
<text text-anchor="start" x="8" y="-55" font-family="Helvetica,sans-Serif" font-size="10.00">lamina::anonymous_namespace</text>
<text text-anchor="middle" x="87.5" y="-44" font-family="Helvetica,sans-Serif" font-size="10.00">{solver::cpp}::PolyBuilder::visit</text>
</a>
</g>
</g>
<!-- Node2 -->
<g id="Node000002" class="node">
<title>Node2</title>
<g id="a_Node000002"><a xlink:href="../../dc/d69/structlamina_1_1anonymous__namespace_02solver_8cpp_03_1_1Poly.html#a3be628f1a751779486b386f318fc10a1" target="_top" xlink:title=" ">
<polygon fill="white" stroke="#666666" points="386,-110 211,-110 211,-80 386,-80 386,-110"/>
<text text-anchor="start" x="219" y="-98" font-family="Helvetica,sans-Serif" font-size="10.00">lamina::anonymous_namespace</text>
<text text-anchor="middle" x="298.5" y="-87" font-family="Helvetica,sans-Serif" font-size="10.00">{solver::cpp}::Poly::add_term</text>
</a>
</g>
</g>
<!-- Node1&#45;&gt;Node2 -->
<g id="edge1_Node000001_Node000002" class="edge">
<title>Node1&#45;&gt;Node2</title>
<g id="a_edge1_Node000001_Node000002"><a xlink:title=" ">
<path fill="none" stroke="#63b8ff" d="M161.6,-67.04C178.62,-70.54 196.87,-74.3 214.29,-77.88"/>
<polygon fill="#63b8ff" stroke="#63b8ff" points="213.94,-81.38 224.44,-79.97 215.35,-74.53 213.94,-81.38"/>
</a>
</g>
</g>
<!-- Node3 -->
<g id="Node000003" class="node">
<title>Node3</title>
<g id="a_Node000003"><a xlink:href="../../d1/d42/namespacelamina.html#ad31d159f4e943798241e39b1cbf96507" target="_top" xlink:title="判断符号节点是否依赖指定变量">
<polygon fill="white" stroke="#666666" points="366.5,-61.5 230.5,-61.5 230.5,-42.5 366.5,-42.5 366.5,-61.5"/>
<text text-anchor="middle" x="298.5" y="-49.5" font-family="Helvetica,sans-Serif" font-size="10.00">lamina::depends_on_var</text>
</a>
</g>
</g>
<!-- Node1&#45;&gt;Node3 -->
<g id="edge2_Node000001_Node000003" class="edge">
<title>Node1&#45;&gt;Node3</title>
<g id="a_edge2_Node000001_Node000003"><a xlink:title=" ">
<path fill="none" stroke="#63b8ff" d="M175.02,-52C189.98,-52 205.45,-52 220.15,-52"/>
<polygon fill="#63b8ff" stroke="#63b8ff" points="220.19,-55.5 230.19,-52 220.19,-48.5 220.19,-55.5"/>
</a>
</g>
</g>
<!-- Node4 -->
<g id="Node000004" class="node">
<title>Node4</title>
<g id="a_Node000004"><a xlink:href="../../dc/d25/classSymbolicExpr.html#acc2ea5b99b699087717f3ac42433e4b8" target="_top" xlink:title="对表达式进行化简。">
<polygon fill="white" stroke="#666666" points="362.5,-24.5 234.5,-24.5 234.5,-5.5 362.5,-5.5 362.5,-24.5"/>
<text text-anchor="middle" x="298.5" y="-12.5" font-family="Helvetica,sans-Serif" font-size="10.00">SymbolicExpr::simplify</text>
</a>
</g>
</g>
<!-- Node1&#45;&gt;Node4 -->
<g id="edge3_Node000001_Node000004" class="edge">
<title>Node1&#45;&gt;Node4</title>
<g id="a_edge3_Node000001_Node000004"><a xlink:title=" ">
<path fill="none" stroke="#63b8ff" d="M173.51,-36.95C193.63,-33.39 214.74,-29.65 233.73,-26.29"/>
<polygon fill="#63b8ff" stroke="#63b8ff" points="234.51,-29.71 243.75,-24.52 233.29,-22.81 234.51,-29.71"/>
</a>
</g>
</g>
<!-- Node5 -->
<g id="Node000005" class="node">
<title>Node5</title>
<g id="a_Node000005"><a xlink:href="../../d3/da1/classNormalizationVisitor.html#abefa11f3ddef7d3918dec3102f6fbd40" target="_top" xlink:title="获取规范化结果">
<polygon fill="white" stroke="#666666" points="539,-30 422,-30 422,0 539,0 539,-30"/>
<text text-anchor="start" x="430" y="-18" font-family="Helvetica,sans-Serif" font-size="10.00">NormalizationVisitor</text>
<text text-anchor="middle" x="480.5" y="-7" font-family="Helvetica,sans-Serif" font-size="10.00">::get_result</text>
</a>
</g>
</g>
<!-- Node4&#45;&gt;Node5 -->
<g id="edge4_Node000004_Node000005" class="edge">
<title>Node4&#45;&gt;Node5</title>
<g id="a_edge4_Node000004_Node000005"><a xlink:title=" ">
<path fill="none" stroke="#63b8ff" d="M362.71,-15C378.5,-15 395.5,-15 411.5,-15"/>
<polygon fill="#63b8ff" stroke="#63b8ff" points="411.86,-18.5 421.86,-15 411.86,-11.5 411.86,-18.5"/>
</a>
</g>
</g>
</g>
</svg>
