<?xml version="1.0" encoding="UTF-8" standalone="no"?>
<!DOCTYPE svg PUBLIC "-//W3C//DTD SVG 1.1//EN"
 "http://www.w3.org/Graphics/SVG/1.1/DTD/svg11.dtd">
<!-- Generated by graphviz version 2.43.0 (0)
 -->
<!-- Title: lamina::anonymous_namespace{solver::cpp}::PolyBuilder::visit Pages: 1 -->
<svg width="605pt" height="131pt"
 viewBox="0.00 0.00 605.00 131.00" xmlns="http://www.w3.org/2000/svg" xmlns:xlink="http://www.w3.org/1999/xlink">
<g id="graph0" class="graph" transform="scale(1 1) rotate(0) translate(4 127)">
<title>lamina::anonymous_namespace{solver::cpp}::PolyBuilder::visit</title>
<!-- Node1 -->
<g id="Node000001" class="node">
<title>Node1</title>
<g id="a_Node000001"><a xlink:title=" ">
<polygon fill="#999999" stroke="#666666" points="175,-102 0,-102 0,-72 175,-72 175,-102"/>
<text text-anchor="start" x="8" y="-90" font-family="Helvetica,sans-Serif" font-size="10.00">lamina::anonymous_namespace</text>
<text text-anchor="middle" x="87.5" y="-79" font-family="Helvetica,sans-Serif" font-size="10.00">{solver::cpp}::PolyBuilder::visit</text>
</a>
</g>
</g>
<!-- Node2 -->
<g id="Node000002" class="node">
<title>Node2</title>
<g id="a_Node000002"><a xlink:href="../../dc/d69/structlamina_1_1anonymous__namespace_02solver_8cpp_03_1_1Poly.html#a3be628f1a751779486b386f318fc10a1" target="_top" xlink:title=" ">
<polygon fill="white" stroke="#666666" points="597,-123 422,-123 422,-93 597,-93 597,-123"/>
<text text-anchor="start" x="430" y="-111" font-family="Helvetica,sans-Serif" font-size="10.00">lamina::anonymous_namespace</text>
<text text-anchor="middle" x="509.5" y="-100" font-family="Helvetica,sans-Serif" font-size="10.00">{solver::cpp}::Poly::add_term</text>
</a>
</g>
</g>
<!-- Node1&#45;&gt;Node2 -->
<g id="edge1_Node000001_Node000002" class="edge">
<title>Node1&#45;&gt;Node2</title>
<g id="a_edge1_Node000001_Node000002"><a xlink:title=" ">
<path fill="none" stroke="#63b8ff" d="M138.06,-102.01C160.16,-107.95 186.65,-114.06 211,-117 277.66,-125.04 353.31,-122.6 411.63,-118.25"/>
<polygon fill="#63b8ff" stroke="#63b8ff" points="412.25,-121.71 421.95,-117.44 411.7,-114.73 412.25,-121.71"/>
</a>
</g>
</g>
<!-- Node3 -->
<g id="Node000003" class="node">
<title>Node3</title>
<g id="a_Node000003"><a xlink:href="../../d7/d8e/classlamina_1_1anonymous__namespace_02solver_8cpp_03_1_1PolyBuilder.html#ad634d3633bbcf1a47851421ddd06c16a" target="_top" xlink:title=" ">
<polygon fill="white" stroke="#666666" points="386,-107.5 211,-107.5 211,-66.5 386,-66.5 386,-107.5"/>
<text text-anchor="start" x="219" y="-95.5" font-family="Helvetica,sans-Serif" font-size="10.00">lamina::anonymous_namespace</text>
<text text-anchor="start" x="219" y="-84.5" font-family="Helvetica,sans-Serif" font-size="10.00">{solver::cpp}::PolyBuilder</text>
<text text-anchor="middle" x="298.5" y="-73.5" font-family="Helvetica,sans-Serif" font-size="10.00">::get_result</text>
</a>
</g>
</g>
<!-- Node1&#45;&gt;Node3 -->
<g id="edge2_Node000001_Node000003" class="edge">
<title>Node1&#45;&gt;Node3</title>
<g id="a_edge2_Node000001_Node000003"><a xlink:title=" ">
<path fill="none" stroke="#63b8ff" d="M175.02,-87C183.49,-87 192.13,-87 200.7,-87"/>
<polygon fill="#63b8ff" stroke="#63b8ff" points="200.71,-90.5 210.71,-87 200.71,-83.5 200.71,-90.5"/>
</a>
</g>
</g>
<!-- Node4 -->
<g id="Node000004" class="node">
<title>Node4</title>
<g id="a_Node000004"><a xlink:href="../../d3/d3c/namespacelamina_1_1anonymous__namespace_02solver_8cpp_03.html#ae6cd45a660f5379f04c36557a69d101f" target="_top" xlink:title=" ">
<polygon fill="white" stroke="#666666" points="386,-30 211,-30 211,0 386,0 386,-30"/>
<text text-anchor="start" x="219" y="-18" font-family="Helvetica,sans-Serif" font-size="10.00">lamina::anonymous_namespace</text>
<text text-anchor="middle" x="298.5" y="-7" font-family="Helvetica,sans-Serif" font-size="10.00">{solver::cpp}::mul_poly</text>
</a>
</g>
</g>
<!-- Node1&#45;&gt;Node4 -->
<g id="edge3_Node000001_Node000004" class="edge">
<title>Node1&#45;&gt;Node4</title>
<g id="a_edge3_Node000001_Node000004"><a xlink:title=" ">
<path fill="none" stroke="#63b8ff" d="M132.06,-71.99C164.65,-60.77 209.39,-45.36 244.12,-33.39"/>
<polygon fill="#63b8ff" stroke="#63b8ff" points="245.32,-36.68 253.64,-30.11 243.04,-30.06 245.32,-36.68"/>
</a>
</g>
</g>
<!-- Node4&#45;&gt;Node2 -->
<g id="edge4_Node000004_Node000002" class="edge">
<title>Node4&#45;&gt;Node2</title>
<g id="a_edge4_Node000004_Node000002"><a xlink:title=" ">
<path fill="none" stroke="#63b8ff" d="M333.54,-30.15C369.37,-46.09 425.88,-71.24 464.94,-88.62"/>
<polygon fill="#63b8ff" stroke="#63b8ff" points="463.91,-91.99 474.47,-92.86 466.76,-85.59 463.91,-91.99"/>
</a>
</g>
</g>
<!-- Node4&#45;&gt;Node4 -->
<g id="edge7_Node000004_Node000004" class="edge">
<title>Node4&#45;&gt;Node4</title>
<g id="a_edge7_Node000004_Node000004"><a xlink:title=" ">
<path fill="none" stroke="#63b8ff" d="M261.59,-30.28C253.38,-39.41 265.69,-48 298.5,-48 317.98,-48 330.24,-44.97 335.26,-40.6"/>
<polygon fill="#63b8ff" stroke="#63b8ff" points="338.76,-40.33 335.41,-30.28 331.76,-40.22 338.76,-40.33"/>
</a>
</g>
</g>
<!-- Node5 -->
<g id="Node000005" class="node">
<title>Node5</title>
<g id="a_Node000005"><a xlink:href="../../d3/d3c/namespacelamina_1_1anonymous__namespace_02solver_8cpp_03.html#ac9ee0f4b45331d24cd5e111a69078fc1" target="_top" xlink:title=" ">
<polygon fill="white" stroke="#666666" points="597,-30 422,-30 422,0 597,0 597,-30"/>
<text text-anchor="start" x="430" y="-18" font-family="Helvetica,sans-Serif" font-size="10.00">lamina::anonymous_namespace</text>
<text text-anchor="middle" x="509.5" y="-7" font-family="Helvetica,sans-Serif" font-size="10.00">{solver::cpp}::mul_mono</text>
</a>
</g>
</g>
<!-- Node4&#45;&gt;Node5 -->
<g id="edge5_Node000004_Node000005" class="edge">
<title>Node4&#45;&gt;Node5</title>
<g id="a_edge5_Node000004_Node000005"><a xlink:title=" ">
<path fill="none" stroke="#63b8ff" d="M386.02,-15C394.49,-15 403.13,-15 411.7,-15"/>
<polygon fill="#63b8ff" stroke="#63b8ff" points="411.71,-18.5 421.71,-15 411.71,-11.5 411.71,-18.5"/>
</a>
</g>
</g>
<!-- Node5&#45;&gt;Node5 -->
<g id="edge6_Node000005_Node000005" class="edge">
<title>Node5&#45;&gt;Node5</title>
<g id="a_edge6_Node000005_Node000005"><a xlink:title=" ">
<path fill="none" stroke="#63b8ff" d="M472.59,-30.28C464.38,-39.41 476.69,-48 509.5,-48 528.98,-48 541.24,-44.97 546.26,-40.6"/>
<polygon fill="#63b8ff" stroke="#63b8ff" points="549.76,-40.33 546.41,-30.28 542.76,-40.22 549.76,-40.33"/>
</a>
</g>
</g>
</g>
</svg>
