<?xml version="1.0" encoding="UTF-8" standalone="no"?>
<!DOCTYPE svg PUBLIC "-//W3C//DTD SVG 1.1//EN"
 "http://www.w3.org/Graphics/SVG/1.1/DTD/svg11.dtd">
<!-- Generated by graphviz version 2.43.0 (0)
 -->
<!-- Title: check_memory_block_integrity Pages: 1 -->
<svg width="461pt" height="83pt"
 viewBox="0.00 0.00 461.00 83.00" xmlns="http://www.w3.org/2000/svg" xmlns:xlink="http://www.w3.org/1999/xlink">

<svg id="main" version="1.1" xmlns="http://www.w3.org/2000/svg" xmlns:xlink="http://www.w3.org/1999/xlink" xml:space="preserve" onload="init(evt)">
<style type="text/css"><![CDATA[
.node, .edge {opacity: 0.7;}
.node.selected, .edge.selected {opacity: 1;}
.edge:hover path { stroke: red; }
.edge:hover polygon { stroke: red; fill: red; }
]]></style>
<script type="application/ecmascript" xlink:href="../../svg.min.js"/>
<svg id="graph" class="graph">
<g id="graph0" class="graph" transform="scale(1 1) rotate(0) translate(4 79)">
<title>check_memory_block_integrity</title>
<!-- Node1 -->
<g id="Node000001" class="node">
<title>Node1</title>
<g id="a_Node000001"><a xlink:title=" ">
<polygon fill="#999999" stroke="#666666" points="453,-43.5 330,-43.5 330,-13.5 453,-13.5 453,-43.5"/>
<text text-anchor="start" x="338" y="-31.5" font-family="Helvetica,sans-Serif" font-size="10.00">check_memory_block</text>
<text text-anchor="middle" x="391.5" y="-20.5" font-family="Helvetica,sans-Serif" font-size="10.00">_integrity</text>
</a>
</g>
</g>
<!-- Node2 -->
<g id="Node000002" class="node">
<title>Node2</title>
<g id="a_Node000002"><a xlink:href="../../d4/d03/safe__memory_8h.html#abcbc38d6ccd74ed66c4af4336279ba80" target="_top" xlink:title=" ">
<polygon fill="white" stroke="#666666" points="294,-75 155,-75 155,-56 294,-56 294,-75"/>
<text text-anchor="middle" x="224.5" y="-63" font-family="Helvetica,sans-Serif" font-size="10.00">check_memory_overflow</text>
</a>
</g>
</g>
<!-- Node1&#45;&gt;Node2 -->
<g id="edge1_Node000001_Node000002" class="edge">
<title>Node1&#45;&gt;Node2</title>
<g id="a_edge1_Node000001_Node000002"><a xlink:title=" ">
<path fill="none" stroke="#63b8ff" d="M320.22,-44.26C302.43,-48.25 283.87,-52.41 267.94,-55.98"/>
<polygon fill="#63b8ff" stroke="#63b8ff" points="321.01,-47.67 330,-42.07 319.47,-40.84 321.01,-47.67"/>
</a>
</g>
</g>
<!-- Node3 -->
<g id="Node000003" class="node">
<title>Node3</title>
<g id="a_Node000003"><a xlink:href="../../d4/d03/safe__memory_8h.html#ae1e5dfb07da560c8b7b3a3519873a3d4" target="_top" xlink:title=" ">
<polygon fill="white" stroke="#666666" points="277,-38 172,-38 172,-19 277,-19 277,-38"/>
<text text-anchor="middle" x="224.5" y="-26" font-family="Helvetica,sans-Serif" font-size="10.00">lmmp_free_debug</text>
</a>
</g>
</g>
<!-- Node1&#45;&gt;Node3 -->
<g id="edge2_Node000001_Node000003" class="edge">
<title>Node1&#45;&gt;Node3</title>
<g id="a_edge2_Node000001_Node000003"><a xlink:title=" ">
<path fill="none" stroke="#63b8ff" d="M319.68,-28.5C305.35,-28.5 290.55,-28.5 277.04,-28.5"/>
<polygon fill="#63b8ff" stroke="#63b8ff" points="320,-32 330,-28.5 320,-25 320,-32"/>
</a>
</g>
</g>
<!-- Node4 -->
<g id="Node000004" class="node">
<title>Node4</title>
<g id="a_Node000004"><a xlink:href="../../d4/d03/safe__memory_8h.html#a1da283d193d0eeb304f0d78e26ff7542" target="_top" xlink:title=" ">
<polygon fill="white" stroke="#666666" points="119,-19 0,-19 0,0 119,0 119,-19"/>
<text text-anchor="middle" x="59.5" y="-7" font-family="Helvetica,sans-Serif" font-size="10.00">lmmp_realloc_debug</text>
</a>
</g>
</g>
<!-- Node1&#45;&gt;Node4 -->
<g id="edge4_Node000001_Node000004" class="edge">
<title>Node1&#45;&gt;Node4</title>
<g id="a_edge4_Node000001_Node000004"><a xlink:title=" ">
<path fill="none" stroke="#63b8ff" d="M319.87,-13.82C311.19,-12.46 302.41,-11.3 294,-10.5 234.67,-4.89 166.49,-5.39 119.18,-6.84"/>
<polygon fill="#63b8ff" stroke="#63b8ff" points="319.56,-17.31 329.99,-15.49 320.7,-10.41 319.56,-17.31"/>
</a>
</g>
</g>
<!-- Node3&#45;&gt;Node4 -->
<g id="edge3_Node000003_Node000004" class="edge">
<title>Node3&#45;&gt;Node4</title>
<g id="a_edge3_Node000003_Node000004"><a xlink:title=" ">
<path fill="none" stroke="#63b8ff" d="M161.89,-21.32C147.87,-19.68 133.01,-17.95 119.12,-16.33"/>
<polygon fill="#63b8ff" stroke="#63b8ff" points="161.59,-24.81 171.93,-22.49 162.4,-17.85 161.59,-24.81"/>
</a>
</g>
</g>
</g>
</svg>
</svg>

<style type='text/css'>
<![CDATA[
[data-mouse-over-selected='false'] { opacity: 0.7; }
[data-mouse-over-selected='true']  { opacity: 1.0; }
]]>
</style>
<script type="application/ecmascript"><![CDATA[
document.addEventListener('DOMContentLoaded', (event) => {
  highlightEdges();
  highlightAdjacentNodes();
});
]]></script>
</svg>
