<?xml version="1.0" encoding="UTF-8" standalone="no"?>
<!DOCTYPE svg PUBLIC "-//W3C//DTD SVG 1.1//EN"
 "http://www.w3.org/Graphics/SVG/1.1/DTD/svg11.dtd">
<!-- Generated by graphviz version 2.43.0 (0)
 -->
<!-- Title: find_corruption_range Pages: 1 -->
<svg width="777pt" height="83pt"
 viewBox="0.00 0.00 777.00 83.00" xmlns="http://www.w3.org/2000/svg" xmlns:xlink="http://www.w3.org/1999/xlink">
<g id="graph0" class="graph" transform="scale(1 1) rotate(0) translate(4 79)">
<title>find_corruption_range</title>
<!-- Node1 -->
<g id="Node000001" class="node">
<title>Node1</title>
<g id="a_Node000001"><a xlink:title=" ">
<polygon fill="#999999" stroke="#666666" points="769,-38 647,-38 647,-19 769,-19 769,-38"/>
<text text-anchor="middle" x="708" y="-26" font-family="Helvetica,sans-Serif" font-size="10.00">find_corruption_range</text>
</a>
</g>
</g>
<!-- Node2 -->
<g id="Node000002" class="node">
<title>Node2</title>
<g id="a_Node000002"><a xlink:href="../../d4/d03/safe__memory_8h.html#af06d5247dcd2e2e238a3abe2a30bbf00" target="_top" xlink:title=" ">
<polygon fill="white" stroke="#666666" points="611,-43.5 489,-43.5 489,-13.5 611,-13.5 611,-43.5"/>
<text text-anchor="start" x="497" y="-31.5" font-family="Helvetica,sans-Serif" font-size="10.00">check_extra_memory</text>
<text text-anchor="middle" x="550" y="-20.5" font-family="Helvetica,sans-Serif" font-size="10.00">_overflow</text>
</a>
</g>
</g>
<!-- Node1&#45;&gt;Node2 -->
<g id="edge1_Node000001_Node000002" class="edge">
<title>Node1&#45;&gt;Node2</title>
<g id="a_edge1_Node000001_Node000002"><a xlink:title=" ">
<path fill="none" stroke="#63b8ff" d="M636.46,-28.5C628.01,-28.5 619.44,-28.5 611.15,-28.5"/>
<polygon fill="#63b8ff" stroke="#63b8ff" points="636.69,-32 646.69,-28.5 636.69,-25 636.69,-32"/>
</a>
</g>
</g>
<!-- Node3 -->
<g id="Node000003" class="node">
<title>Node3</title>
<g id="a_Node000003"><a xlink:href="../../d4/d03/safe__memory_8h.html#aff6dbe73ba197d8918913c8bf31fb7b7" target="_top" xlink:title=" ">
<polygon fill="white" stroke="#666666" points="453,-43.5 330,-43.5 330,-13.5 453,-13.5 453,-43.5"/>
<text text-anchor="start" x="338" y="-31.5" font-family="Helvetica,sans-Serif" font-size="10.00">check_memory_block</text>
<text text-anchor="middle" x="391.5" y="-20.5" font-family="Helvetica,sans-Serif" font-size="10.00">_integrity</text>
</a>
</g>
</g>
<!-- Node2&#45;&gt;Node3 -->
<g id="edge2_Node000002_Node000003" class="edge">
<title>Node2&#45;&gt;Node3</title>
<g id="a_edge2_Node000002_Node000003"><a xlink:title=" ">
<path fill="none" stroke="#63b8ff" d="M478.94,-28.5C470.34,-28.5 461.62,-28.5 453.17,-28.5"/>
<polygon fill="#63b8ff" stroke="#63b8ff" points="478.94,-32 488.94,-28.5 478.94,-25 478.94,-32"/>
</a>
</g>
</g>
<!-- Node4 -->
<g id="Node000004" class="node">
<title>Node4</title>
<g id="a_Node000004"><a xlink:href="../../d4/d03/safe__memory_8h.html#abcbc38d6ccd74ed66c4af4336279ba80" target="_top" xlink:title=" ">
<polygon fill="white" stroke="#666666" points="294,-75 155,-75 155,-56 294,-56 294,-75"/>
<text text-anchor="middle" x="224.5" y="-63" font-family="Helvetica,sans-Serif" font-size="10.00">check_memory_overflow</text>
</a>
</g>
</g>
<!-- Node3&#45;&gt;Node4 -->
<g id="edge3_Node000003_Node000004" class="edge">
<title>Node3&#45;&gt;Node4</title>
<g id="a_edge3_Node000003_Node000004"><a xlink:title=" ">
<path fill="none" stroke="#63b8ff" d="M320.22,-44.26C302.43,-48.25 283.87,-52.41 267.94,-55.98"/>
<polygon fill="#63b8ff" stroke="#63b8ff" points="321.01,-47.67 330,-42.07 319.47,-40.84 321.01,-47.67"/>
</a>
</g>
</g>
<!-- Node5 -->
<g id="Node000005" class="node">
<title>Node5</title>
<g id="a_Node000005"><a xlink:href="../../d4/d03/safe__memory_8h.html#ae1e5dfb07da560c8b7b3a3519873a3d4" target="_top" xlink:title=" ">
<polygon fill="white" stroke="#666666" points="277,-38 172,-38 172,-19 277,-19 277,-38"/>
<text text-anchor="middle" x="224.5" y="-26" font-family="Helvetica,sans-Serif" font-size="10.00">lmmp_free_debug</text>
</a>
</g>
</g>
<!-- Node3&#45;&gt;Node5 -->
<g id="edge4_Node000003_Node000005" class="edge">
<title>Node3&#45;&gt;Node5</title>
<g id="a_edge4_Node000003_Node000005"><a xlink:title=" ">
<path fill="none" stroke="#63b8ff" d="M319.68,-28.5C305.35,-28.5 290.55,-28.5 277.04,-28.5"/>
<polygon fill="#63b8ff" stroke="#63b8ff" points="320,-32 330,-28.5 320,-25 320,-32"/>
</a>
</g>
</g>
<!-- Node6 -->
<g id="Node000006" class="node">
<title>Node6</title>
<g id="a_Node000006"><a xlink:href="../../d4/d03/safe__memory_8h.html#a1da283d193d0eeb304f0d78e26ff7542" target="_top" xlink:title=" ">
<polygon fill="white" stroke="#666666" points="119,-19 0,-19 0,0 119,0 119,-19"/>
<text text-anchor="middle" x="59.5" y="-7" font-family="Helvetica,sans-Serif" font-size="10.00">lmmp_realloc_debug</text>
</a>
</g>
</g>
<!-- Node3&#45;&gt;Node6 -->
<g id="edge6_Node000003_Node000006" class="edge">
<title>Node3&#45;&gt;Node6</title>
<g id="a_edge6_Node000003_Node000006"><a xlink:title=" ">
<path fill="none" stroke="#63b8ff" d="M319.87,-13.82C311.19,-12.46 302.41,-11.3 294,-10.5 234.67,-4.89 166.49,-5.39 119.18,-6.84"/>
<polygon fill="#63b8ff" stroke="#63b8ff" points="319.56,-17.31 329.99,-15.49 320.7,-10.41 319.56,-17.31"/>
</a>
</g>
</g>
<!-- Node5&#45;&gt;Node6 -->
<g id="edge5_Node000005_Node000006" class="edge">
<title>Node5&#45;&gt;Node6</title>
<g id="a_edge5_Node000005_Node000006"><a xlink:title=" ">
<path fill="none" stroke="#63b8ff" d="M161.89,-21.32C147.87,-19.68 133.01,-17.95 119.12,-16.33"/>
<polygon fill="#63b8ff" stroke="#63b8ff" points="161.59,-24.81 171.93,-22.49 162.4,-17.85 161.59,-24.81"/>
</a>
</g>
</g>
</g>
</svg>
