<?xml version="1.0" encoding="UTF-8" standalone="no"?>
<!DOCTYPE svg PUBLIC "-//W3C//DTD SVG 1.1//EN"
 "http://www.w3.org/Graphics/SVG/1.1/DTD/svg11.dtd">
<!-- Generated by graphviz version 2.43.0 (0)
 -->
<!-- Title: lmmp_free_debug Pages: 1 -->
<!--zoomable 107 -->

<svg id="main" version="1.1" xmlns="http://www.w3.org/2000/svg" xmlns:xlink="http://www.w3.org/1999/xlink" xml:space="preserve" onload="init(evt)">
<style type="text/css"><![CDATA[
.node, .edge {opacity: 0.7;}
.node.selected, .edge.selected {opacity: 1;}
.edge:hover path { stroke: red; }
.edge:hover polygon { stroke: red; fill: red; }
]]></style>

<defs>
  <circle id="rim" cx="0" cy="0" r="7"/>
  <circle id="rim2" cx="0" cy="0" r="3.5"/>
  <g id="zoomPlus">
    <use xlink:href="#rim" fill="#404040"><set attributeName="fill" to="#808080" begin="zoomplus.mouseover" end="zoomplus.mouseout"/></use>
    <path d="M-4,0h8M0,-4v8" fill="none" stroke="white" stroke-width="1.5" pointer-events="none"/>
  </g>
  <g id="zoomMin">
    <use xlink:href="#rim" fill="#404040"><set attributeName="fill" to="#808080" begin="zoomminus.mouseover" end="zoomminus.mouseout"/></use>
    <path d="M-4,0h8" fill="none" stroke="white" stroke-width="1.5" pointer-events="none"/>
  </g>
  <g id="arrowUp" transform="translate(30 24)">
    <use xlink:href="#rim"/>
    <path pointer-events="none" fill="none" stroke="white" stroke-width="1.5" d="M0,-3.0v7 M-2.5,-0.5L0,-3.0L2.5,-0.5"/>
  </g>
  <g id="arrowRight" transform="rotate(90) translate(36 -43)">
    <use xlink:href="#rim"/>
    <path pointer-events="none" fill="none" stroke="white" stroke-width="1.5" d="M0,-3.0v7 M-2.5,-0.5L0,-3.0L2.5,-0.5"/>
  </g>
  <g id="arrowDown" transform="rotate(180) translate(-30 -48)">
    <use xlink:href="#rim"/>
    <path pointer-events="none" fill="none" stroke="white" stroke-width="1.5" d="M0,-3.0v7 M-2.5,-0.5L0,-3.0L2.5,-0.5"/>
  </g>
  <g id="arrowLeft" transform="rotate(270) translate(-36 17)">
    <use xlink:href="#rim"/>
    <path pointer-events="none" fill="none" stroke="white" stroke-width="1.5" d="M0,-3.0v7 M-2.5,-0.5L0,-3.0L2.5,-0.5"/>
  </g>
  <g id="resetDef">
    <use xlink:href="#rim2" fill="#404040"><set attributeName="fill" to="#808080" begin="reset.mouseover" end="reset.mouseout"/></use>
  </g>
</defs>
<script type="application/ecmascript">
var viewWidth = 695;
var viewHeight = 107;
var sectionId = 'dynsection-12';
</script>
<script type="application/ecmascript" xlink:href="../../svg.min.js"/>
<svg id="graph" class="graph">
<g id="viewport">
<title>lmmp_free_debug</title>
<!-- Node1 -->
<g id="Node000001" class="node">
<title>Node1</title>
<g id="a_Node000001"><a xlink:title=" ">
<polygon fill="#999999" stroke="#666666" points="105,-80 0,-80 0,-61 105,-61 105,-80"/>
<text text-anchor="middle" x="52.5" y="-68" font-family="Helvetica,sans-Serif" font-size="10.00">lmmp_free_debug</text>
</a>
</g>
</g>
<!-- Node2 -->
<g id="Node000002" class="node">
<title>Node2</title>
<g id="a_Node000002"><a xlink:href="../../d4/d03/safe__memory_8h.html#a9d05d4e0aaf1e9618cb815cb6259eefe" target="_top" xlink:title=" ">
<polygon fill="white" stroke="#666666" points="548,-99 490,-99 490,-80 548,-80 548,-99"/>
<text text-anchor="middle" x="519" y="-87" font-family="Helvetica,sans-Serif" font-size="10.00">align_up</text>
</a>
</g>
</g>
<!-- Node1&#45;&gt;Node2 -->
<g id="edge1_Node000001_Node000002" class="edge">
<title>Node1&#45;&gt;Node2</title>
<g id="a_edge1_Node000001_Node000002"><a xlink:title=" ">
<path fill="none" stroke="#63b8ff" d="M105.43,-72.62C199.65,-76.48 396.67,-84.54 479.75,-87.94"/>
<polygon fill="#63b8ff" stroke="#63b8ff" points="479.63,-91.43 489.77,-88.35 479.92,-84.44 479.63,-91.43"/>
</a>
</g>
</g>
<!-- Node3 -->
<g id="Node000003" class="node">
<title>Node3</title>
<g id="a_Node000003"><a xlink:href="../../d4/d03/safe__memory_8h.html#aff6dbe73ba197d8918913c8bf31fb7b7" target="_top" xlink:title=" ">
<polygon fill="white" stroke="#666666" points="264,-64.5 141,-64.5 141,-34.5 264,-34.5 264,-64.5"/>
<text text-anchor="start" x="149" y="-52.5" font-family="Helvetica,sans-Serif" font-size="10.00">check_memory_block</text>
<text text-anchor="middle" x="202.5" y="-41.5" font-family="Helvetica,sans-Serif" font-size="10.00">_integrity</text>
</a>
</g>
</g>
<!-- Node1&#45;&gt;Node3 -->
<g id="edge2_Node000001_Node000003" class="edge">
<title>Node1&#45;&gt;Node3</title>
<g id="a_edge2_Node000001_Node000003"><a xlink:title=" ">
<path fill="none" stroke="#63b8ff" d="M105.26,-63.16C113.53,-61.98 122.21,-60.75 130.82,-59.53"/>
<polygon fill="#63b8ff" stroke="#63b8ff" points="131.47,-62.97 140.88,-58.1 130.49,-56.04 131.47,-62.97"/>
</a>
</g>
</g>
<!-- Node4 -->
<g id="Node000004" class="node">
<title>Node4</title>
<g id="a_Node000004"><a xlink:href="../../d4/d03/safe__memory_8h.html#af06d5247dcd2e2e238a3abe2a30bbf00" target="_top" xlink:title=" ">
<polygon fill="white" stroke="#666666" points="422,-64.5 300,-64.5 300,-34.5 422,-34.5 422,-64.5"/>
<text text-anchor="start" x="308" y="-52.5" font-family="Helvetica,sans-Serif" font-size="10.00">check_extra_memory</text>
<text text-anchor="middle" x="361" y="-41.5" font-family="Helvetica,sans-Serif" font-size="10.00">_overflow</text>
</a>
</g>
</g>
<!-- Node3&#45;&gt;Node4 -->
<g id="edge3_Node000003_Node000004" class="edge">
<title>Node3&#45;&gt;Node4</title>
<g id="a_edge3_Node000003_Node000004"><a xlink:title=" ">
<path fill="none" stroke="#63b8ff" d="M264.01,-49.5C272.48,-49.5 281.24,-49.5 289.87,-49.5"/>
<polygon fill="#63b8ff" stroke="#63b8ff" points="289.91,-53 299.91,-49.5 289.91,-46 289.91,-53"/>
</a>
</g>
</g>
<!-- Node6 -->
<g id="Node000006" class="node">
<title>Node6</title>
<g id="a_Node000006"><a xlink:href="../../da/d52/abort_8c.html#a8967c29c5f5ea6c7ce14e2baac50b72f" target="_top" xlink:title="LAMMP 全局退出函数，内部错误或断言失败时调用，若设置了全局退出函数，则会调用该函数，否则会调用默认的退出函数。">
<polygon fill="white" stroke="#666666" points="557,-19 481,-19 481,0 557,0 557,-19"/>
<text text-anchor="middle" x="519" y="-7" font-family="Helvetica,sans-Serif" font-size="10.00">lmmp_abort</text>
</a>
</g>
</g>
<!-- Node3&#45;&gt;Node6 -->
<g id="edge8_Node000003_Node000006" class="edge">
<title>Node3&#45;&gt;Node6</title>
<g id="a_edge8_Node000003_Node000006"><a xlink:title=" ">
<path fill="none" stroke="#63b8ff" d="M257.01,-34.47C270.91,-31.04 285.94,-27.75 300,-25.5 358.28,-16.18 426.21,-12.28 470.55,-10.65"/>
<polygon fill="#63b8ff" stroke="#63b8ff" points="470.87,-14.15 480.75,-10.3 470.63,-7.15 470.87,-14.15"/>
</a>
</g>
</g>
<!-- Node4&#45;&gt;Node2 -->
<g id="edge4_Node000004_Node000002" class="edge">
<title>Node4&#45;&gt;Node2</title>
<g id="a_edge4_Node000004_Node000002"><a xlink:title=" ">
<path fill="none" stroke="#63b8ff" d="M420.53,-64.51C440.43,-69.61 462.13,-75.17 479.99,-79.75"/>
<polygon fill="#63b8ff" stroke="#63b8ff" points="479.2,-83.16 489.75,-82.26 480.94,-76.38 479.2,-83.16"/>
</a>
</g>
</g>
<!-- Node5 -->
<g id="Node000005" class="node">
<title>Node5</title>
<g id="a_Node000005"><a xlink:href="../../d4/d03/safe__memory_8h.html#a30b812d573d911d90d0b0f53c13efd4a" target="_top" xlink:title=" ">
<polygon fill="white" stroke="#666666" points="580,-59 458,-59 458,-40 580,-40 580,-59"/>
<text text-anchor="middle" x="519" y="-47" font-family="Helvetica,sans-Serif" font-size="10.00">find_corruption_range</text>
</a>
</g>
</g>
<!-- Node4&#45;&gt;Node5 -->
<g id="edge5_Node000004_Node000005" class="edge">
<title>Node4&#45;&gt;Node5</title>
<g id="a_edge5_Node000004_Node000005"><a xlink:title=" ">
<path fill="none" stroke="#63b8ff" d="M422.31,-49.5C430.6,-49.5 439.17,-49.5 447.63,-49.5"/>
<polygon fill="#63b8ff" stroke="#63b8ff" points="447.85,-53 457.85,-49.5 447.85,-46 447.85,-53"/>
</a>
</g>
</g>
<!-- Node4&#45;&gt;Node6 -->
<g id="edge6_Node000004_Node000006" class="edge">
<title>Node4&#45;&gt;Node6</title>
<g id="a_edge6_Node000004_Node000006"><a xlink:title=" ">
<path fill="none" stroke="#63b8ff" d="M420.53,-34.49C437.13,-30.24 454.98,-25.66 470.81,-21.6"/>
<polygon fill="#63b8ff" stroke="#63b8ff" points="472.08,-24.89 480.89,-19.01 470.34,-18.11 472.08,-24.89"/>
</a>
</g>
</g>
<!-- Node7 -->
<g id="Node000007" class="node">
<title>Node7</title>
<g id="a_Node000007"><a xlink:href="../../da/d52/abort_8c.html#a11701246f0be69a35468c33d1a136abc" target="_top" xlink:title=" ">
<polygon fill="white" stroke="#666666" points="687,-19 616,-19 616,0 687,0 687,-19"/>
<text text-anchor="middle" x="651.5" y="-7" font-family="Helvetica,sans-Serif" font-size="10.00">type_to_str</text>
</a>
</g>
</g>
<!-- Node6&#45;&gt;Node7 -->
<g id="edge7_Node000006_Node000007" class="edge">
<title>Node6&#45;&gt;Node7</title>
<g id="a_edge7_Node000006_Node000007"><a xlink:title=" ">
<path fill="none" stroke="#63b8ff" d="M557.05,-9.5C572.13,-9.5 589.7,-9.5 605.51,-9.5"/>
<polygon fill="#63b8ff" stroke="#63b8ff" points="605.6,-13 615.6,-9.5 605.6,-6 605.6,-13"/>
</a>
</g>
</g>
</g>
</svg>

<g id="navigator" transform="translate(0 0)" fill="#404254">
  <rect fill="#f2f5e9" fill-opacity="0.5" stroke="#606060" stroke-width=".5" x="0" y="0" width="60" height="60"/>
  <use id="zoomplus" xlink:href="#zoomPlus" x="17" y="9" onmousedown="handleZoom(evt,'in')"/>
  <use id="zoomminus" xlink:href="#zoomMin" x="42" y="9" onmousedown="handleZoom(evt,'out')"/>
  <use id="reset" xlink:href="#resetDef" x="30" y="36" onmousedown="handleReset()"/>
   <use id="arrowup" xlink:href="#arrowUp" x="0" y="0" onmousedown="handlePan(0,-1)"/>
  <use id="arrowright" xlink:href="#arrowRight" x="0" y="0" onmousedown="handlePan(1,0)"/>
  <use id="arrowdown" xlink:href="#arrowDown" x="0" y="0" onmousedown="handlePan(0,1)"/>
  <use id="arrowleft" xlink:href="#arrowLeft" x="0" y="0" onmousedown="handlePan(-1,0)"/>
</g>
<svg viewBox="0 0 15 15" width="100%" height="30px" preserveAspectRatio="xMaxYMin meet">
 <g id="arrow_out" transform="scale(0.3 0.3)">
  <a xlink:href="safe__memory_8h_ae1e5dfb07da560c8b7b3a3519873a3d4_cgraph_org.svg" target="_base">
   <rect id="button" ry="5" rx="5" y="6" x="6" height="38" width="38"
        fill="#f2f5e9" fill-opacity="0.5" stroke="#606060" stroke-width="1.0"/>
   <path id="arrow"
     d="M 11.500037,31.436501 C 11.940474,20.09759 22.043105,11.32322 32.158766,21.979434 L 37.068811,17.246167 C 37.068811,17.246167 37.088388,32 37.088388,32 L 22.160133,31.978069 C 22.160133,31.978069 26.997745,27.140456 26.997745,27.140456 C 18.528582,18.264221 13.291696,25.230495 11.500037,31.436501 z"
     style="fill:#404040;"/>
  </a>
 </g>
</svg>

<style type='text/css'>
<![CDATA[
[data-mouse-over-selected='false'] { opacity: 0.7; }
[data-mouse-over-selected='true']  { opacity: 1.0; }
]]>
</style>
<script type="application/ecmascript"><![CDATA[
document.addEventListener('DOMContentLoaded', (event) => {
  highlightEdges();
  highlightAdjacentNodes();
});
]]></script>
</svg>
