<?xml version="1.0" encoding="UTF-8" standalone="no"?>
<!DOCTYPE svg PUBLIC "-//W3C//DTD SVG 1.1//EN"
 "http://www.w3.org/Graphics/SVG/1.1/DTD/svg11.dtd">
<!-- Generated by graphviz version 2.43.0 (0)
 -->
<!-- Title: check_memory_overflow Pages: 1 -->
<svg width="729pt" height="107pt"
 viewBox="0.00 0.00 729.00 107.00" xmlns="http://www.w3.org/2000/svg" xmlns:xlink="http://www.w3.org/1999/xlink">
<g id="graph0" class="graph" transform="scale(1 1) rotate(0) translate(4 103)">
<title>check_memory_overflow</title>
<!-- Node1 -->
<g id="Node000001" class="node">
<title>Node1</title>
<g id="a_Node000001"><a xlink:title=" ">
<polygon fill="#999999" stroke="#666666" points="139,-80 0,-80 0,-61 139,-61 139,-80"/>
<text text-anchor="middle" x="69.5" y="-68" font-family="Helvetica,sans-Serif" font-size="10.00">check_memory_overflow</text>
</a>
</g>
</g>
<!-- Node2 -->
<g id="Node000002" class="node">
<title>Node2</title>
<g id="a_Node000002"><a xlink:href="../../d4/d03/safe__memory_8h.html#a9d05d4e0aaf1e9618cb815cb6259eefe" target="_top" xlink:title=" ">
<polygon fill="white" stroke="#666666" points="582,-99 524,-99 524,-80 582,-80 582,-99"/>
<text text-anchor="middle" x="553" y="-87" font-family="Helvetica,sans-Serif" font-size="10.00">align_up</text>
</a>
</g>
</g>
<!-- Node1&#45;&gt;Node2 -->
<g id="edge1_Node000001_Node000002" class="edge">
<title>Node1&#45;&gt;Node2</title>
<g id="a_edge1_Node000001_Node000002"><a xlink:title=" ">
<path fill="none" stroke="#63b8ff" d="M139.23,-73.21C242.06,-77.27 432.52,-84.79 513.72,-87.99"/>
<polygon fill="#63b8ff" stroke="#63b8ff" points="513.85,-91.5 523.98,-88.39 514.12,-84.5 513.85,-91.5"/>
</a>
</g>
</g>
<!-- Node3 -->
<g id="Node000003" class="node">
<title>Node3</title>
<g id="a_Node000003"><a xlink:href="../../d4/d03/safe__memory_8h.html#aff6dbe73ba197d8918913c8bf31fb7b7" target="_top" xlink:title=" ">
<polygon fill="white" stroke="#666666" points="298,-64.5 175,-64.5 175,-34.5 298,-34.5 298,-64.5"/>
<text text-anchor="start" x="183" y="-52.5" font-family="Helvetica,sans-Serif" font-size="10.00">check_memory_block</text>
<text text-anchor="middle" x="236.5" y="-41.5" font-family="Helvetica,sans-Serif" font-size="10.00">_integrity</text>
</a>
</g>
</g>
<!-- Node1&#45;&gt;Node3 -->
<g id="edge2_Node000001_Node000003" class="edge">
<title>Node1&#45;&gt;Node3</title>
<g id="a_edge2_Node000001_Node000003"><a xlink:title=" ">
<path fill="none" stroke="#63b8ff" d="M139.04,-61.78C147.57,-60.69 156.3,-59.58 164.86,-58.49"/>
<polygon fill="#63b8ff" stroke="#63b8ff" points="165.33,-61.96 174.81,-57.22 164.44,-55.02 165.33,-61.96"/>
</a>
</g>
</g>
<!-- Node4 -->
<g id="Node000004" class="node">
<title>Node4</title>
<g id="a_Node000004"><a xlink:href="../../d4/d03/safe__memory_8h.html#af06d5247dcd2e2e238a3abe2a30bbf00" target="_top" xlink:title=" ">
<polygon fill="white" stroke="#666666" points="456,-64.5 334,-64.5 334,-34.5 456,-34.5 456,-64.5"/>
<text text-anchor="start" x="342" y="-52.5" font-family="Helvetica,sans-Serif" font-size="10.00">check_extra_memory</text>
<text text-anchor="middle" x="395" y="-41.5" font-family="Helvetica,sans-Serif" font-size="10.00">_overflow</text>
</a>
</g>
</g>
<!-- Node3&#45;&gt;Node4 -->
<g id="edge3_Node000003_Node000004" class="edge">
<title>Node3&#45;&gt;Node4</title>
<g id="a_edge3_Node000003_Node000004"><a xlink:title=" ">
<path fill="none" stroke="#63b8ff" d="M298.01,-49.5C306.48,-49.5 315.24,-49.5 323.87,-49.5"/>
<polygon fill="#63b8ff" stroke="#63b8ff" points="323.91,-53 333.91,-49.5 323.91,-46 323.91,-53"/>
</a>
</g>
</g>
<!-- Node6 -->
<g id="Node000006" class="node">
<title>Node6</title>
<g id="a_Node000006"><a xlink:href="../../da/d52/abort_8c.html#a8967c29c5f5ea6c7ce14e2baac50b72f" target="_top" xlink:title="LAMMP 全局退出函数，内部错误或断言失败时调用，若设置了全局退出函数，则会调用该函数，否则会调用默认的退出函数。">
<polygon fill="white" stroke="#666666" points="591,-19 515,-19 515,0 591,0 591,-19"/>
<text text-anchor="middle" x="553" y="-7" font-family="Helvetica,sans-Serif" font-size="10.00">lmmp_abort</text>
</a>
</g>
</g>
<!-- Node3&#45;&gt;Node6 -->
<g id="edge8_Node000003_Node000006" class="edge">
<title>Node3&#45;&gt;Node6</title>
<g id="a_edge8_Node000003_Node000006"><a xlink:title=" ">
<path fill="none" stroke="#63b8ff" d="M291.01,-34.47C304.91,-31.04 319.94,-27.75 334,-25.5 392.28,-16.18 460.21,-12.28 504.55,-10.65"/>
<polygon fill="#63b8ff" stroke="#63b8ff" points="504.87,-14.15 514.75,-10.3 504.63,-7.15 504.87,-14.15"/>
</a>
</g>
</g>
<!-- Node4&#45;&gt;Node2 -->
<g id="edge4_Node000004_Node000002" class="edge">
<title>Node4&#45;&gt;Node2</title>
<g id="a_edge4_Node000004_Node000002"><a xlink:title=" ">
<path fill="none" stroke="#63b8ff" d="M454.53,-64.51C474.43,-69.61 496.13,-75.17 513.99,-79.75"/>
<polygon fill="#63b8ff" stroke="#63b8ff" points="513.2,-83.16 523.75,-82.26 514.94,-76.38 513.2,-83.16"/>
</a>
</g>
</g>
<!-- Node5 -->
<g id="Node000005" class="node">
<title>Node5</title>
<g id="a_Node000005"><a xlink:href="../../d4/d03/safe__memory_8h.html#a30b812d573d911d90d0b0f53c13efd4a" target="_top" xlink:title=" ">
<polygon fill="white" stroke="#666666" points="614,-59 492,-59 492,-40 614,-40 614,-59"/>
<text text-anchor="middle" x="553" y="-47" font-family="Helvetica,sans-Serif" font-size="10.00">find_corruption_range</text>
</a>
</g>
</g>
<!-- Node4&#45;&gt;Node5 -->
<g id="edge5_Node000004_Node000005" class="edge">
<title>Node4&#45;&gt;Node5</title>
<g id="a_edge5_Node000004_Node000005"><a xlink:title=" ">
<path fill="none" stroke="#63b8ff" d="M456.31,-49.5C464.6,-49.5 473.17,-49.5 481.63,-49.5"/>
<polygon fill="#63b8ff" stroke="#63b8ff" points="481.85,-53 491.85,-49.5 481.85,-46 481.85,-53"/>
</a>
</g>
</g>
<!-- Node4&#45;&gt;Node6 -->
<g id="edge6_Node000004_Node000006" class="edge">
<title>Node4&#45;&gt;Node6</title>
<g id="a_edge6_Node000004_Node000006"><a xlink:title=" ">
<path fill="none" stroke="#63b8ff" d="M454.53,-34.49C471.13,-30.24 488.98,-25.66 504.81,-21.6"/>
<polygon fill="#63b8ff" stroke="#63b8ff" points="506.08,-24.89 514.89,-19.01 504.34,-18.11 506.08,-24.89"/>
</a>
</g>
</g>
<!-- Node7 -->
<g id="Node000007" class="node">
<title>Node7</title>
<g id="a_Node000007"><a xlink:href="../../da/d52/abort_8c.html#a11701246f0be69a35468c33d1a136abc" target="_top" xlink:title=" ">
<polygon fill="white" stroke="#666666" points="721,-19 650,-19 650,0 721,0 721,-19"/>
<text text-anchor="middle" x="685.5" y="-7" font-family="Helvetica,sans-Serif" font-size="10.00">type_to_str</text>
</a>
</g>
</g>
<!-- Node6&#45;&gt;Node7 -->
<g id="edge7_Node000006_Node000007" class="edge">
<title>Node6&#45;&gt;Node7</title>
<g id="a_edge7_Node000006_Node000007"><a xlink:title=" ">
<path fill="none" stroke="#63b8ff" d="M591.05,-9.5C606.13,-9.5 623.7,-9.5 639.51,-9.5"/>
<polygon fill="#63b8ff" stroke="#63b8ff" points="639.6,-13 649.6,-9.5 639.6,-6 639.6,-13"/>
</a>
</g>
</g>
</g>
</svg>
