<?xml version="1.0" encoding="UTF-8" standalone="no"?>
<!DOCTYPE svg PUBLIC "-//W3C//DTD SVG 1.1//EN"
 "http://www.w3.org/Graphics/SVG/1.1/DTD/svg11.dtd">
<!-- Generated by graphviz version 2.43.0 (0)
 -->
<!-- Title: lmmp_odd_nPr_product_ Pages: 1 -->
<svg width="419pt" height="64pt"
 viewBox="0.00 0.00 419.00 64.00" xmlns="http://www.w3.org/2000/svg" xmlns:xlink="http://www.w3.org/1999/xlink">

<svg id="main" version="1.1" xmlns="http://www.w3.org/2000/svg" xmlns:xlink="http://www.w3.org/1999/xlink" xml:space="preserve" onload="init(evt)">
<style type="text/css"><![CDATA[
.node, .edge {opacity: 0.7;}
.node.selected, .edge.selected {opacity: 1;}
.edge:hover path { stroke: red; }
.edge:hover polygon { stroke: red; fill: red; }
]]></style>
<script type="application/ecmascript" xlink:href="../../svg.min.js"/>
<svg id="graph" class="graph">
<g id="graph0" class="graph" transform="scale(1 1) rotate(0) translate(4 60)">
<title>lmmp_odd_nPr_product_</title>
<!-- Node1 -->
<g id="Node000001" class="node">
<title>Node1</title>
<g id="a_Node000001"><a xlink:title="使用累乘函数计算nPr（奇数部分）">
<polygon fill="#999999" stroke="#666666" points="411,-37 274,-37 274,-18 411,-18 411,-37"/>
<text text-anchor="middle" x="342.5" y="-25" font-family="Helvetica,sans-Serif" font-size="10.00">lmmp_odd_nPr_product_</text>
</a>
</g>
</g>
<!-- Node2 -->
<g id="Node000002" class="node">
<title>Node2</title>
<g id="a_Node000002"><a xlink:href="../../dc/d74/nPr_8c.html#a7f1696f78a67b1a57414b3489f3be0cd" target="_top" xlink:title=" ">
<polygon fill="white" stroke="#666666" points="232,-56 113,-56 113,-37 232,-37 232,-56"/>
<text text-anchor="middle" x="172.5" y="-44" font-family="Helvetica,sans-Serif" font-size="10.00">lmmp_odd_nPr_uint_</text>
</a>
</g>
</g>
<!-- Node1&#45;&gt;Node2 -->
<g id="edge1_Node000001_Node000002" class="edge">
<title>Node1&#45;&gt;Node2</title>
<g id="a_edge1_Node000001_Node000002"><a xlink:title=" ">
<path fill="none" stroke="#63b8ff" d="M263.58,-36.31C253.01,-37.51 242.3,-38.72 232.15,-39.87"/>
<polygon fill="#63b8ff" stroke="#63b8ff" points="264.11,-39.77 273.65,-35.17 263.32,-32.82 264.11,-39.77"/>
</a>
</g>
</g>
<!-- Node4 -->
<g id="Node000004" class="node">
<title>Node4</title>
<g id="a_Node000004"><a xlink:href="../../dc/d74/nPr_8c.html#a4de9141c63304b5df03e9c1e46a3b207" target="_top" xlink:title=" ">
<polygon fill="white" stroke="#666666" points="238,-19 107,-19 107,0 238,0 238,-19"/>
<text text-anchor="middle" x="172.5" y="-7" font-family="Helvetica,sans-Serif" font-size="10.00">lmmp_odd_nPr_ushort_</text>
</a>
</g>
</g>
<!-- Node1&#45;&gt;Node4 -->
<g id="edge3_Node000001_Node000004" class="edge">
<title>Node1&#45;&gt;Node4</title>
<g id="a_edge3_Node000001_Node000004"><a xlink:title=" ">
<path fill="none" stroke="#63b8ff" d="M263.66,-19.16C255.09,-18.24 246.44,-17.32 238.06,-16.42"/>
<polygon fill="#63b8ff" stroke="#63b8ff" points="263.34,-22.65 273.65,-20.23 264.08,-15.69 263.34,-22.65"/>
</a>
</g>
</g>
<!-- Node3 -->
<g id="Node000003" class="node">
<title>Node3</title>
<g id="a_Node000003"><a xlink:href="../../dc/d74/nPr_8c.html#af69f80dd939d5c75bbddc2ecc8155a65" target="_top" xlink:title=" ">
<polygon fill="white" stroke="#666666" points="71,-37 0,-37 0,-18 71,-18 71,-37"/>
<text text-anchor="middle" x="35.5" y="-25" font-family="Helvetica,sans-Serif" font-size="10.00">lmmp_nPr_</text>
</a>
</g>
</g>
<!-- Node2&#45;&gt;Node3 -->
<g id="edge2_Node000002_Node000003" class="edge">
<title>Node2&#45;&gt;Node3</title>
<g id="a_edge2_Node000002_Node000003"><a xlink:title=" ">
<path fill="none" stroke="#63b8ff" d="M102.63,-36.81C91.68,-35.27 80.76,-33.73 71.06,-32.36"/>
<polygon fill="#63b8ff" stroke="#63b8ff" points="102.29,-40.29 112.68,-38.22 103.27,-33.36 102.29,-40.29"/>
</a>
</g>
</g>
<!-- Node4&#45;&gt;Node3 -->
<g id="edge4_Node000004_Node000003" class="edge">
<title>Node4&#45;&gt;Node3</title>
<g id="a_edge4_Node000004_Node000003"><a xlink:title=" ">
<path fill="none" stroke="#63b8ff" d="M96.67,-19.48C87.76,-20.66 79.03,-21.83 71.09,-22.89"/>
<polygon fill="#63b8ff" stroke="#63b8ff" points="97.32,-22.92 106.77,-18.13 96.39,-15.98 97.32,-22.92"/>
</a>
</g>
</g>
</g>
</svg>
</svg>

<style type='text/css'>
<![CDATA[
[data-mouse-over-selected='false'] { opacity: 0.7; }
[data-mouse-over-selected='true']  { opacity: 1.0; }
]]>
</style>
<script type="application/ecmascript"><![CDATA[
document.addEventListener('DOMContentLoaded', (event) => {
  highlightEdges();
  highlightAdjacentNodes();
});
]]></script>
</svg>
