<?xml version="1.0" encoding="UTF-8" standalone="no"?>
<!DOCTYPE svg PUBLIC "-//W3C//DTD SVG 1.1//EN"
 "http://www.w3.org/Graphics/SVG/1.1/DTD/svg11.dtd">
<!-- Generated by graphviz version 2.43.0 (0)
 -->
<!-- Title: lmmp_odd_nPr_ushort_ Pages: 1 -->
<svg width="485pt" height="177pt"
 viewBox="0.00 0.00 485.00 177.00" xmlns="http://www.w3.org/2000/svg" xmlns:xlink="http://www.w3.org/1999/xlink">

<svg id="main" version="1.1" xmlns="http://www.w3.org/2000/svg" xmlns:xlink="http://www.w3.org/1999/xlink" xml:space="preserve" onload="init(evt)">
<style type="text/css"><![CDATA[
.node, .edge {opacity: 0.7;}
.node.selected, .edge.selected {opacity: 1;}
.edge:hover path { stroke: red; }
.edge:hover polygon { stroke: red; fill: red; }
]]></style>
<script type="application/ecmascript" xlink:href="../../svg.min.js"/>
<svg id="graph" class="graph">
<g id="graph0" class="graph" transform="scale(1 1) rotate(0) translate(4 173)">
<title>lmmp_odd_nPr_ushort_</title>
<!-- Node1 -->
<g id="Node000001" class="node">
<title>Node1</title>
<g id="a_Node000001"><a xlink:title=" ">
<polygon fill="#999999" stroke="#666666" points="131,-93 0,-93 0,-74 131,-74 131,-93"/>
<text text-anchor="middle" x="65.5" y="-81" font-family="Helvetica,sans-Serif" font-size="10.00">lmmp_odd_nPr_ushort_</text>
</a>
</g>
</g>
<!-- Node2 -->
<g id="Node000002" class="node">
<title>Node2</title>
<g id="a_Node000002"><a xlink:href="../../dc/d74/nPr_8c.html#ae182b866351945f80d74888fd7bc93d6" target="_top" xlink:title=" ">
<polygon fill="white" stroke="#666666" points="277,-169 194,-169 194,-150 277,-150 277,-169"/>
<text text-anchor="middle" x="235.5" y="-157" font-family="Helvetica,sans-Serif" font-size="10.00">count_factors</text>
</a>
</g>
</g>
<!-- Node1&#45;&gt;Node2 -->
<g id="edge1_Node000001_Node000002" class="edge">
<title>Node1&#45;&gt;Node2</title>
<g id="a_edge1_Node000001_Node000002"><a xlink:title=" ">
<path fill="none" stroke="#63b8ff" d="M83.23,-93.05C102.9,-104.07 136.73,-122.36 167,-135.5 176.06,-139.43 185.99,-143.24 195.39,-146.61"/>
<polygon fill="#63b8ff" stroke="#63b8ff" points="194.33,-149.95 204.93,-149.96 196.65,-143.34 194.33,-149.95"/>
</a>
</g>
</g>
<!-- Node3 -->
<g id="Node000003" class="node">
<title>Node3</title>
<g id="a_Node000003"><a xlink:href="../../dc/d42/ele__mul_8h.html#a0ab42521fd450b4c0b0668d967d81d77" target="_top" xlink:title="计算limbs数组的累乘积">
<polygon fill="white" stroke="#666666" points="477,-93 340,-93 340,-74 477,-74 477,-93"/>
<text text-anchor="middle" x="408.5" y="-81" font-family="Helvetica,sans-Serif" font-size="10.00">lmmp_elem_mul_ulong_</text>
</a>
</g>
</g>
<!-- Node1&#45;&gt;Node3 -->
<g id="edge2_Node000001_Node000003" class="edge">
<title>Node1&#45;&gt;Node3</title>
<g id="a_edge2_Node000001_Node000003"><a xlink:title=" ">
<path fill="none" stroke="#63b8ff" d="M107.33,-93.01C125.49,-96.78 147.2,-100.64 167,-102.5 227.62,-108.18 243.36,-108.02 304,-102.5 320.87,-100.96 339.11,-98.05 355.5,-94.95"/>
<polygon fill="#63b8ff" stroke="#63b8ff" points="356.3,-98.36 365.44,-93.01 354.95,-91.49 356.3,-98.36"/>
</a>
</g>
</g>
<!-- Node4 -->
<g id="Node000004" class="node">
<title>Node4</title>
<g id="a_Node000004"><a xlink:href="../../dc/d42/ele__mul_8h.html#aecea1f4f013e3d05ae9d07888505bbed" target="_top" xlink:title="计算因子的累乘，并将结果放入dst中">
<polygon fill="white" stroke="#666666" points="292,-93 179,-93 179,-74 292,-74 292,-93"/>
<text text-anchor="middle" x="235.5" y="-81" font-family="Helvetica,sans-Serif" font-size="10.00">lmmp_factors_mul_</text>
</a>
</g>
</g>
<!-- Node1&#45;&gt;Node4 -->
<g id="edge3_Node000001_Node000004" class="edge">
<title>Node1&#45;&gt;Node4</title>
<g id="a_edge3_Node000001_Node000004"><a xlink:title=" ">
<path fill="none" stroke="#63b8ff" d="M131.45,-83.5C143.64,-83.5 156.4,-83.5 168.62,-83.5"/>
<polygon fill="#63b8ff" stroke="#63b8ff" points="168.73,-87 178.73,-83.5 168.73,-80 168.73,-87"/>
</a>
</g>
</g>
<!-- Node5 -->
<g id="Node000005" class="node">
<title>Node5</title>
<g id="a_Node000005"><a xlink:href="../../dc/d74/nPr_8c.html#a39129bdc76ff8e7a35f30f0aadacab0c" target="_top" xlink:title="使用累乘函数计算nPr（奇数部分）">
<polygon fill="white" stroke="#666666" points="304,-56 167,-56 167,-37 304,-37 304,-56"/>
<text text-anchor="middle" x="235.5" y="-44" font-family="Helvetica,sans-Serif" font-size="10.00">lmmp_odd_nPr_product_</text>
</a>
</g>
</g>
<!-- Node1&#45;&gt;Node5 -->
<g id="edge4_Node000001_Node000005" class="edge">
<title>Node1&#45;&gt;Node5</title>
<g id="a_edge4_Node000001_Node000005"><a xlink:title=" ">
<path fill="none" stroke="#63b8ff" d="M109.76,-73.97C131.53,-69.18 158.11,-63.32 181.13,-58.25"/>
<polygon fill="#63b8ff" stroke="#63b8ff" points="182.08,-61.63 191.09,-56.06 180.57,-54.79 182.08,-61.63"/>
</a>
</g>
</g>
<!-- Node6 -->
<g id="Node000006" class="node">
<title>Node6</title>
<g id="a_Node000006"><a xlink:href="../../d2/d9c/prime__table_8c.html#af5e76d78983e57b2468d365a69354c73" target="_top" xlink:title="计算小于等于 n 的素数数量">
<polygon fill="white" stroke="#666666" points="293.5,-19 177.5,-19 177.5,0 293.5,0 293.5,-19"/>
<text text-anchor="middle" x="235.5" y="-7" font-family="Helvetica,sans-Serif" font-size="10.00">lmmp_prime_cnt16_</text>
</a>
</g>
</g>
<!-- Node1&#45;&gt;Node6 -->
<g id="edge6_Node000001_Node000006" class="edge">
<title>Node1&#45;&gt;Node6</title>
<g id="a_edge6_Node000001_Node000006"><a xlink:title=" ">
<path fill="none" stroke="#63b8ff" d="M81.63,-73.8C100.85,-61.81 135.33,-41.43 167,-28.5 172.77,-26.14 178.93,-23.97 185.1,-22"/>
<polygon fill="#63b8ff" stroke="#63b8ff" points="186.18,-25.33 194.73,-19.08 184.15,-18.63 186.18,-25.33"/>
</a>
</g>
</g>
<!-- Node5&#45;&gt;Node3 -->
<g id="edge5_Node000005_Node000003" class="edge">
<title>Node5&#45;&gt;Node3</title>
<g id="a_edge5_Node000005_Node000003"><a xlink:title=" ">
<path fill="none" stroke="#63b8ff" d="M280.54,-56.03C302.79,-60.84 329.99,-66.73 353.49,-71.81"/>
<polygon fill="#63b8ff" stroke="#63b8ff" points="352.8,-75.25 363.32,-73.94 354.28,-68.4 352.8,-75.25"/>
</a>
</g>
</g>
</g>
</svg>
</svg>

<style type='text/css'>
<![CDATA[
[data-mouse-over-selected='false'] { opacity: 0.7; }
[data-mouse-over-selected='true']  { opacity: 1.0; }
]]>
</style>
<script type="application/ecmascript"><![CDATA[
document.addEventListener('DOMContentLoaded', (event) => {
  highlightEdges();
  highlightAdjacentNodes();
});
]]></script>
</svg>
