<?xml version="1.0" encoding="UTF-8" standalone="no"?>
<!DOCTYPE svg PUBLIC "-//W3C//DTD SVG 1.1//EN"
 "http://www.w3.org/Graphics/SVG/1.1/DTD/svg11.dtd">
<!-- Generated by graphviz version 2.43.0 (0)
 -->
<!-- Title: prime_table_size Pages: 1 -->
<!--zoomable 161 -->

<svg id="main" version="1.1" xmlns="http://www.w3.org/2000/svg" xmlns:xlink="http://www.w3.org/1999/xlink" xml:space="preserve" onload="init(evt)">
<style type="text/css"><![CDATA[
.node, .edge {opacity: 0.7;}
.node.selected, .edge.selected {opacity: 1;}
.edge:hover path { stroke: red; }
.edge:hover polygon { stroke: red; fill: red; }
]]></style>

<defs>
  <circle id="rim" cx="0" cy="0" r="7"/>
  <circle id="rim2" cx="0" cy="0" r="3.5"/>
  <g id="zoomPlus">
    <use xlink:href="#rim" fill="#404040"><set attributeName="fill" to="#808080" begin="zoomplus.mouseover" end="zoomplus.mouseout"/></use>
    <path d="M-4,0h8M0,-4v8" fill="none" stroke="white" stroke-width="1.5" pointer-events="none"/>
  </g>
  <g id="zoomMin">
    <use xlink:href="#rim" fill="#404040"><set attributeName="fill" to="#808080" begin="zoomminus.mouseover" end="zoomminus.mouseout"/></use>
    <path d="M-4,0h8" fill="none" stroke="white" stroke-width="1.5" pointer-events="none"/>
  </g>
  <g id="arrowUp" transform="translate(30 24)">
    <use xlink:href="#rim"/>
    <path pointer-events="none" fill="none" stroke="white" stroke-width="1.5" d="M0,-3.0v7 M-2.5,-0.5L0,-3.0L2.5,-0.5"/>
  </g>
  <g id="arrowRight" transform="rotate(90) translate(36 -43)">
    <use xlink:href="#rim"/>
    <path pointer-events="none" fill="none" stroke="white" stroke-width="1.5" d="M0,-3.0v7 M-2.5,-0.5L0,-3.0L2.5,-0.5"/>
  </g>
  <g id="arrowDown" transform="rotate(180) translate(-30 -48)">
    <use xlink:href="#rim"/>
    <path pointer-events="none" fill="none" stroke="white" stroke-width="1.5" d="M0,-3.0v7 M-2.5,-0.5L0,-3.0L2.5,-0.5"/>
  </g>
  <g id="arrowLeft" transform="rotate(270) translate(-36 17)">
    <use xlink:href="#rim"/>
    <path pointer-events="none" fill="none" stroke="white" stroke-width="1.5" d="M0,-3.0v7 M-2.5,-0.5L0,-3.0L2.5,-0.5"/>
  </g>
  <g id="resetDef">
    <use xlink:href="#rim2" fill="#404040"><set attributeName="fill" to="#808080" begin="reset.mouseover" end="reset.mouseout"/></use>
  </g>
</defs>
<script type="application/ecmascript">
var viewWidth = 591;
var viewHeight = 161;
var sectionId = 'dynsection-13';
</script>
<script type="application/ecmascript" xlink:href="../../svg.min.js"/>
<svg id="graph" class="graph">
<g id="viewport">
<title>prime_table_size</title>
<!-- Node1 -->
<g id="Node000001" class="node">
<title>Node1</title>
<g id="a_Node000001"><a xlink:title=" ">
<polygon fill="#999999" stroke="#666666" points="583,-77 483,-77 483,-58 583,-58 583,-77"/>
<text text-anchor="middle" x="533" y="-65" font-family="Helvetica,sans-Serif" font-size="10.00">prime_table_size</text>
</a>
</g>
</g>
<!-- Node2 -->
<g id="Node000002" class="node">
<title>Node2</title>
<g id="a_Node000002"><a xlink:href="../../d2/d9c/prime__table_8c.html#ae15572db81682838454d6fdf65ad64b6" target="_top" xlink:title="初始化全局素数表">
<polygon fill="white" stroke="#666666" points="447,-82.5 320,-82.5 320,-52.5 447,-52.5 447,-82.5"/>
<text text-anchor="start" x="328" y="-70.5" font-family="Helvetica,sans-Serif" font-size="10.00">lmmp_prime_int_table</text>
<text text-anchor="middle" x="383.5" y="-59.5" font-family="Helvetica,sans-Serif" font-size="10.00">_init_</text>
</a>
</g>
</g>
<!-- Node1&#45;&gt;Node2 -->
<g id="edge1_Node000001_Node000002" class="edge">
<title>Node1&#45;&gt;Node2</title>
<g id="a_edge1_Node000001_Node000002"><a xlink:title=" ">
<path fill="none" stroke="#63b8ff" d="M472.73,-67.5C464.28,-67.5 455.56,-67.5 447.04,-67.5"/>
<polygon fill="#63b8ff" stroke="#63b8ff" points="472.88,-71 482.88,-67.5 472.88,-64 472.88,-71"/>
</a>
</g>
</g>
<!-- Node3 -->
<g id="Node000003" class="node">
<title>Node3</title>
<g id="a_Node000003"><a xlink:href="../../d9/d3a/factorial_8c.html#a9608ffdc19b75bf43b36242eb277cec4" target="_top" xlink:title=" ">
<polygon fill="white" stroke="#666666" points="274.5,-152.5 160.5,-152.5 160.5,-122.5 274.5,-122.5 274.5,-152.5"/>
<text text-anchor="start" x="168.5" y="-140.5" font-family="Helvetica,sans-Serif" font-size="10.00">lmmp_odd_factorial</text>
<text text-anchor="middle" x="217.5" y="-129.5" font-family="Helvetica,sans-Serif" font-size="10.00">_uint_</text>
</a>
</g>
</g>
<!-- Node2&#45;&gt;Node3 -->
<g id="edge2_Node000002_Node000003" class="edge">
<title>Node2&#45;&gt;Node3</title>
<g id="a_edge2_Node000002_Node000003"><a xlink:title=" ">
<path fill="none" stroke="#63b8ff" d="M342.29,-87.23C324.57,-95.67 303.41,-105.43 284,-113.5 276.73,-116.52 268.93,-119.56 261.34,-122.4"/>
<polygon fill="#63b8ff" stroke="#63b8ff" points="344.25,-90.17 351.75,-82.69 341.22,-83.86 344.25,-90.17"/>
</a>
</g>
</g>
<!-- Node5 -->
<g id="Node000005" class="node">
<title>Node5</title>
<g id="a_Node000005"><a xlink:href="../../d5/d56/multinomial_8c.html#abfed94c16a1b2457fdb2e9b6088abbe9" target="_top" xlink:title=" ">
<polygon fill="white" stroke="#666666" points="284,-104.5 151,-104.5 151,-74.5 284,-74.5 284,-104.5"/>
<text text-anchor="start" x="159" y="-92.5" font-family="Helvetica,sans-Serif" font-size="10.00">lmmp_odd_multinomial</text>
<text text-anchor="middle" x="217.5" y="-81.5" font-family="Helvetica,sans-Serif" font-size="10.00">_uint_</text>
</a>
</g>
</g>
<!-- Node2&#45;&gt;Node5 -->
<g id="edge4_Node000002_Node000005" class="edge">
<title>Node2&#45;&gt;Node5</title>
<g id="a_edge4_Node000002_Node000005"><a xlink:title=" ">
<path fill="none" stroke="#63b8ff" d="M309.43,-77.3C301.04,-78.43 292.54,-79.57 284.26,-80.68"/>
<polygon fill="#63b8ff" stroke="#63b8ff" points="310.12,-80.74 319.56,-75.94 309.19,-73.8 310.12,-80.74"/>
</a>
</g>
</g>
<!-- Node7 -->
<g id="Node000007" class="node">
<title>Node7</title>
<g id="a_Node000007"><a xlink:href="../../dd/ded/nCr_8c.html#acf2a5abfcb591c5bfef6480f7b0d99d1" target="_top" xlink:title=" ">
<polygon fill="white" stroke="#666666" points="277,-56 158,-56 158,-37 277,-37 277,-56"/>
<text text-anchor="middle" x="217.5" y="-44" font-family="Helvetica,sans-Serif" font-size="10.00">lmmp_odd_nCr_uint_</text>
</a>
</g>
</g>
<!-- Node2&#45;&gt;Node7 -->
<g id="edge6_Node000002_Node000007" class="edge">
<title>Node2&#45;&gt;Node7</title>
<g id="a_edge6_Node000002_Node000007"><a xlink:title=" ">
<path fill="none" stroke="#63b8ff" d="M309.34,-58.13C298.59,-56.76 287.64,-55.35 277.23,-54.02"/>
<polygon fill="#63b8ff" stroke="#63b8ff" points="309.2,-61.64 319.56,-59.44 310.09,-54.7 309.2,-61.64"/>
</a>
</g>
</g>
<!-- Node9 -->
<g id="Node000009" class="node">
<title>Node9</title>
<g id="a_Node000009"><a xlink:href="../../dc/d74/nPr_8c.html#a7f1696f78a67b1a57414b3489f3be0cd" target="_top" xlink:title=" ">
<polygon fill="white" stroke="#666666" points="277,-19 158,-19 158,0 277,0 277,-19"/>
<text text-anchor="middle" x="217.5" y="-7" font-family="Helvetica,sans-Serif" font-size="10.00">lmmp_odd_nPr_uint_</text>
</a>
</g>
</g>
<!-- Node2&#45;&gt;Node9 -->
<g id="edge8_Node000002_Node000009" class="edge">
<title>Node2&#45;&gt;Node9</title>
<g id="a_edge8_Node000002_Node000009"><a xlink:title=" ">
<path fill="none" stroke="#63b8ff" d="M338.62,-48.39C321.71,-41.37 302.12,-33.64 284,-27.5 275.07,-24.47 265.32,-21.58 256.14,-19.03"/>
<polygon fill="#63b8ff" stroke="#63b8ff" points="337.65,-51.78 348.23,-52.43 340.36,-45.33 337.65,-51.78"/>
</a>
</g>
</g>
<!-- Node4 -->
<g id="Node000004" class="node">
<title>Node4</title>
<g id="a_Node000004"><a xlink:href="../../d9/d3a/factorial_8c.html#a0cd11bd3b5c525a0307a4528ff30bd03" target="_top" xlink:title=" ">
<polygon fill="white" stroke="#666666" points="105.5,-147 9.5,-147 9.5,-128 105.5,-128 105.5,-147"/>
<text text-anchor="middle" x="57.5" y="-135" font-family="Helvetica,sans-Serif" font-size="10.00">lmmp_factorial_</text>
</a>
</g>
</g>
<!-- Node3&#45;&gt;Node4 -->
<g id="edge3_Node000003_Node000004" class="edge">
<title>Node3&#45;&gt;Node4</title>
<g id="a_edge3_Node000003_Node000004"><a xlink:title=" ">
<path fill="none" stroke="#63b8ff" d="M150.12,-137.5C135.16,-137.5 119.57,-137.5 105.59,-137.5"/>
<polygon fill="#63b8ff" stroke="#63b8ff" points="150.35,-141 160.35,-137.5 150.35,-134 150.35,-141"/>
</a>
</g>
</g>
<!-- Node6 -->
<g id="Node000006" class="node">
<title>Node6</title>
<g id="a_Node000006"><a xlink:href="../../d5/d56/multinomial_8c.html#afc3b233e0d09b1a7fb4a78f31cff001b" target="_top" xlink:title=" ">
<polygon fill="white" stroke="#666666" points="115,-99 0,-99 0,-80 115,-80 115,-99"/>
<text text-anchor="middle" x="57.5" y="-87" font-family="Helvetica,sans-Serif" font-size="10.00">lmmp_multinomial_</text>
</a>
</g>
</g>
<!-- Node5&#45;&gt;Node6 -->
<g id="edge5_Node000005_Node000006" class="edge">
<title>Node5&#45;&gt;Node6</title>
<g id="a_edge5_Node000005_Node000006"><a xlink:title=" ">
<path fill="none" stroke="#63b8ff" d="M140.78,-89.5C132.14,-89.5 123.45,-89.5 115.13,-89.5"/>
<polygon fill="#63b8ff" stroke="#63b8ff" points="140.87,-93 150.87,-89.5 140.87,-86 140.87,-93"/>
</a>
</g>
</g>
<!-- Node8 -->
<g id="Node000008" class="node">
<title>Node8</title>
<g id="a_Node000008"><a xlink:href="../../dd/ded/nCr_8c.html#a9df9f98aa994cfd62b54926b1439d4b7" target="_top" xlink:title="计算 nCr 组合数 ( nCr = n! / (r!(n&#45;r)!) )">
<polygon fill="white" stroke="#666666" points="93.5,-56 21.5,-56 21.5,-37 93.5,-37 93.5,-56"/>
<text text-anchor="middle" x="57.5" y="-44" font-family="Helvetica,sans-Serif" font-size="10.00">lmmp_nCr_</text>
</a>
</g>
</g>
<!-- Node7&#45;&gt;Node8 -->
<g id="edge7_Node000007_Node000008" class="edge">
<title>Node7&#45;&gt;Node8</title>
<g id="a_edge7_Node000007_Node000008"><a xlink:title=" ">
<path fill="none" stroke="#63b8ff" d="M147.42,-46.5C128.79,-46.5 109.4,-46.5 93.51,-46.5"/>
<polygon fill="#63b8ff" stroke="#63b8ff" points="147.67,-50 157.67,-46.5 147.67,-43 147.67,-50"/>
</a>
</g>
</g>
<!-- Node10 -->
<g id="Node000010" class="node">
<title>Node10</title>
<g id="a_Node000010"><a xlink:href="../../dc/d74/nPr_8c.html#af69f80dd939d5c75bbddc2ecc8155a65" target="_top" xlink:title=" ">
<polygon fill="white" stroke="#666666" points="93,-19 22,-19 22,0 93,0 93,-19"/>
<text text-anchor="middle" x="57.5" y="-7" font-family="Helvetica,sans-Serif" font-size="10.00">lmmp_nPr_</text>
</a>
</g>
</g>
<!-- Node9&#45;&gt;Node10 -->
<g id="edge9_Node000009_Node000010" class="edge">
<title>Node9&#45;&gt;Node10</title>
<g id="a_edge9_Node000009_Node000010"><a xlink:title=" ">
<path fill="none" stroke="#63b8ff" d="M147.6,-9.5C128.73,-9.5 109.08,-9.5 93.05,-9.5"/>
<polygon fill="#63b8ff" stroke="#63b8ff" points="147.67,-13 157.67,-9.5 147.67,-6 147.67,-13"/>
</a>
</g>
</g>
</g>
</svg>

<g id="navigator" transform="translate(0 0)" fill="#404254">
  <rect fill="#f2f5e9" fill-opacity="0.5" stroke="#606060" stroke-width=".5" x="0" y="0" width="60" height="60"/>
  <use id="zoomplus" xlink:href="#zoomPlus" x="17" y="9" onmousedown="handleZoom(evt,'in')"/>
  <use id="zoomminus" xlink:href="#zoomMin" x="42" y="9" onmousedown="handleZoom(evt,'out')"/>
  <use id="reset" xlink:href="#resetDef" x="30" y="36" onmousedown="handleReset()"/>
   <use id="arrowup" xlink:href="#arrowUp" x="0" y="0" onmousedown="handlePan(0,-1)"/>
  <use id="arrowright" xlink:href="#arrowRight" x="0" y="0" onmousedown="handlePan(1,0)"/>
  <use id="arrowdown" xlink:href="#arrowDown" x="0" y="0" onmousedown="handlePan(0,1)"/>
  <use id="arrowleft" xlink:href="#arrowLeft" x="0" y="0" onmousedown="handlePan(-1,0)"/>
</g>
<svg viewBox="0 0 15 15" width="100%" height="30px" preserveAspectRatio="xMaxYMin meet">
 <g id="arrow_out" transform="scale(0.3 0.3)">
  <a xlink:href="prime__table_8c_a10ed75aa588c6755221e3eaa1da95790_icgraph_org.svg" target="_base">
   <rect id="button" ry="5" rx="5" y="6" x="6" height="38" width="38"
        fill="#f2f5e9" fill-opacity="0.5" stroke="#606060" stroke-width="1.0"/>
   <path id="arrow"
     d="M 11.500037,31.436501 C 11.940474,20.09759 22.043105,11.32322 32.158766,21.979434 L 37.068811,17.246167 C 37.068811,17.246167 37.088388,32 37.088388,32 L 22.160133,31.978069 C 22.160133,31.978069 26.997745,27.140456 26.997745,27.140456 C 18.528582,18.264221 13.291696,25.230495 11.500037,31.436501 z"
     style="fill:#404040;"/>
  </a>
 </g>
</svg>

<style type='text/css'>
<![CDATA[
[data-mouse-over-selected='false'] { opacity: 0.7; }
[data-mouse-over-selected='true']  { opacity: 1.0; }
]]>
</style>
<script type="application/ecmascript"><![CDATA[
document.addEventListener('DOMContentLoaded', (event) => {
  highlightEdges();
  highlightAdjacentNodes();
});
]]></script>
</svg>
