<?xml version="1.0" encoding="UTF-8" standalone="no"?>
<!DOCTYPE svg PUBLIC "-//W3C//DTD SVG 1.1//EN"
 "http://www.w3.org/Graphics/SVG/1.1/DTD/svg11.dtd">
<!-- Generated by graphviz version 2.43.0 (0)
 -->
<!-- Title: lmmp_inv_1_ Pages: 1 -->
<svg width="1489pt" height="511pt"
 viewBox="0.00 0.00 1489.00 511.00" xmlns="http://www.w3.org/2000/svg" xmlns:xlink="http://www.w3.org/1999/xlink">
<g id="graph0" class="graph" transform="scale(1 1) rotate(0) translate(4 507)">
<title>lmmp_inv_1_</title>
<!-- Node1 -->
<g id="Node000001" class="node">
<title>Node1</title>
<g id="a_Node000001"><a xlink:title="1阶逆元计算 (inv1)">
<polygon fill="#999999" stroke="#666666" points="1481,-151 1399,-151 1399,-132 1481,-132 1481,-151"/>
<text text-anchor="middle" x="1440" y="-139" font-family="Helvetica,sans-Serif" font-size="10.00">lmmp_inv_1_</text>
</a>
</g>
</g>
<!-- Node2 -->
<g id="Node000002" class="node">
<title>Node2</title>
<g id="a_Node000002"><a xlink:href="../../d8/df4/generic_2div_8c.html#a0ef4f96c3aafbe15673fa15739a9879f" target="_top" xlink:title="单精度数除法">
<polygon fill="white" stroke="#666666" points="882,-151 800,-151 800,-132 882,-132 882,-151"/>
<text text-anchor="middle" x="841" y="-139" font-family="Helvetica,sans-Serif" font-size="10.00">lmmp_div_1_</text>
</a>
</g>
</g>
<!-- Node1&#45;&gt;Node2 -->
<g id="edge1_Node000001_Node000002" class="edge">
<title>Node1&#45;&gt;Node2</title>
<g id="a_edge1_Node000001_Node000002"><a xlink:title=" ">
<path fill="none" stroke="#63b8ff" d="M1388.87,-141.5C1272.91,-141.5 988.01,-141.5 882.32,-141.5"/>
<polygon fill="#63b8ff" stroke="#63b8ff" points="1388.9,-145 1398.9,-141.5 1388.9,-138 1388.9,-145"/>
</a>
</g>
</g>
<!-- Node16 -->
<g id="Node000016" class="node">
<title>Node16</title>
<g id="a_Node000016"><a xlink:href="../../d8/df4/generic_2div_8c.html#a505b5e7c404058edd27a3ff253dabae0" target="_top" xlink:title=" ">
<polygon fill="white" stroke="#666666" points="1345,-189 1253,-189 1253,-170 1345,-170 1345,-189"/>
<text text-anchor="middle" x="1299" y="-177" font-family="Helvetica,sans-Serif" font-size="10.00">lmmp_div_1_s_</text>
</a>
</g>
</g>
<!-- Node1&#45;&gt;Node16 -->
<g id="edge19_Node000001_Node000016" class="edge">
<title>Node1&#45;&gt;Node16</title>
<g id="a_edge19_Node000001_Node000016"><a xlink:title=" ">
<path fill="none" stroke="#63b8ff" d="M1394.2,-153.75C1375.05,-158.98 1353.01,-165.01 1335.06,-169.91"/>
<polygon fill="#63b8ff" stroke="#63b8ff" points="1395.2,-157.1 1403.92,-151.09 1393.36,-150.35 1395.2,-157.1"/>
</a>
</g>
</g>
<!-- Node17 -->
<g id="Node000017" class="node">
<title>Node17</title>
<g id="a_Node000017"><a xlink:href="../../d9/dfd/inv_8c.html#ac8b4a13ac42e926c4598b6be4567a827" target="_top" xlink:title="近似逆元计算">
<polygon fill="white" stroke="#666666" points="1360,-347 1238,-347 1238,-328 1360,-328 1360,-347"/>
<text text-anchor="middle" x="1299" y="-335" font-family="Helvetica,sans-Serif" font-size="10.00">lmmp_inv_basecase_</text>
</a>
</g>
</g>
<!-- Node1&#45;&gt;Node17 -->
<g id="edge20_Node000001_Node000017" class="edge">
<title>Node1&#45;&gt;Node17</title>
<g id="a_edge20_Node000001_Node000017"><a xlink:title=" ">
<path fill="none" stroke="#63b8ff" d="M1426.17,-159.59C1397.48,-200.04 1328.95,-296.68 1306.93,-327.72"/>
<polygon fill="#63b8ff" stroke="#63b8ff" points="1429.18,-161.4 1432.11,-151.22 1423.47,-157.35 1429.18,-161.4"/>
</a>
</g>
</g>
<!-- Node28 -->
<g id="Node000028" class="node">
<title>Node28</title>
<g id="a_Node000028"><a xlink:href="../../d8/df4/generic_2div_8c.html#a60577cfa820cf758d4ca6d99bf28a8db" target="_top" xlink:title="单精度数取余">
<polygon fill="white" stroke="#666666" points="1027.5,-95 938.5,-95 938.5,-76 1027.5,-76 1027.5,-95"/>
<text text-anchor="middle" x="983" y="-83" font-family="Helvetica,sans-Serif" font-size="10.00">lmmp_mod_1_</text>
</a>
</g>
</g>
<!-- Node1&#45;&gt;Node28 -->
<g id="edge42_Node000001_Node000028" class="edge">
<title>Node1&#45;&gt;Node28</title>
<g id="a_edge42_Node000001_Node000028"><a xlink:title=" ">
<path fill="none" stroke="#63b8ff" d="M1388.9,-131.74C1380.28,-130.22 1371.4,-128.74 1363,-127.5 1242,-109.67 1098.25,-95.7 1027.61,-89.31"/>
<polygon fill="#63b8ff" stroke="#63b8ff" points="1388.39,-135.21 1398.86,-133.55 1389.64,-128.32 1388.39,-135.21"/>
</a>
</g>
</g>
<!-- Node31 -->
<g id="Node000031" class="node">
<title>Node31</title>
<g id="a_Node000031"><a xlink:href="../../da/de8/tiny_8c.html#af2faf81e6b4a58c90c744b977204248d" target="_top" xlink:title=" ">
<polygon fill="white" stroke="#666666" points="1363,-75 1235,-75 1235,-56 1363,-56 1363,-75"/>
<text text-anchor="middle" x="1299" y="-63" font-family="Helvetica,sans-Serif" font-size="10.00">lmmp_mulmod_ulong_</text>
</a>
</g>
</g>
<!-- Node1&#45;&gt;Node31 -->
<g id="edge48_Node000001_Node000031" class="edge">
<title>Node1&#45;&gt;Node31</title>
<g id="a_edge48_Node000001_Node000031"><a xlink:title=" ">
<path fill="none" stroke="#63b8ff" d="M1418.95,-125.84C1404.08,-114.72 1383.01,-99.97 1363,-89.5 1352.42,-83.97 1340.27,-79.03 1329.48,-75.1"/>
<polygon fill="#63b8ff" stroke="#63b8ff" points="1416.85,-128.64 1426.93,-131.9 1421.09,-123.07 1416.85,-128.64"/>
</a>
</g>
</g>
<!-- Node3 -->
<g id="Node000003" class="node">
<title>Node3</title>
<g id="a_Node000003"><a xlink:href="../../da/dbc/bninv_8c.html#a9d1d54a9863ec438e863e842482697ba" target="_top" xlink:title=" ">
<polygon fill="white" stroke="#666666" points="232.5,-196 149.5,-196 149.5,-177 232.5,-177 232.5,-196"/>
<text text-anchor="middle" x="191" y="-184" font-family="Helvetica,sans-Serif" font-size="10.00">lmmp_bninv_</text>
</a>
</g>
</g>
<!-- Node2&#45;&gt;Node3 -->
<g id="edge2_Node000002_Node000003" class="edge">
<title>Node2&#45;&gt;Node3</title>
<g id="a_edge2_Node000002_Node000003"><a xlink:title=" ">
<path fill="none" stroke="#63b8ff" d="M789.96,-144.97C665.91,-153.59 346.02,-175.8 232.61,-183.68"/>
<polygon fill="#63b8ff" stroke="#63b8ff" points="790.22,-148.47 799.95,-144.28 789.74,-141.48 790.22,-148.47"/>
</a>
</g>
</g>
<!-- Node4 -->
<g id="Node000004" class="node">
<title>Node4</title>
<g id="a_Node000004"><a xlink:href="../../d3/db2/div_8c.html#add02162837d61d6b5abb1901937af5b3" target="_top" xlink:title="大数除法和取模操作">
<polygon fill="white" stroke="#666666" points="390,-304 319,-304 319,-285 390,-285 390,-304"/>
<text text-anchor="middle" x="354.5" y="-292" font-family="Helvetica,sans-Serif" font-size="10.00">lmmp_div_</text>
</a>
</g>
</g>
<!-- Node2&#45;&gt;Node4 -->
<g id="edge3_Node000002_Node000004" class="edge">
<title>Node2&#45;&gt;Node4</title>
<g id="a_edge3_Node000002_Node000004"><a xlink:title=" ">
<path fill="none" stroke="#63b8ff" d="M822.46,-157.97C782.47,-194.12 679.91,-279.22 575,-304.5 511.21,-319.87 434.05,-310.07 390.29,-301.99"/>
<polygon fill="#63b8ff" stroke="#63b8ff" points="825.01,-160.37 830.02,-151.04 820.28,-155.21 825.01,-160.37"/>
</a>
</g>
</g>
<!-- Node10 -->
<g id="Node000010" class="node">
<title>Node10</title>
<g id="a_Node000010"><a xlink:href="../../dd/ded/nCr_8c.html#acf2a5abfcb591c5bfef6480f7b0d99d1" target="_top" xlink:title=" ">
<polygon fill="white" stroke="#666666" points="737.5,-95 618.5,-95 618.5,-76 737.5,-76 737.5,-95"/>
<text text-anchor="middle" x="678" y="-83" font-family="Helvetica,sans-Serif" font-size="10.00">lmmp_odd_nCr_uint_</text>
</a>
</g>
</g>
<!-- Node2&#45;&gt;Node10 -->
<g id="edge10_Node000002_Node000010" class="edge">
<title>Node2&#45;&gt;Node10</title>
<g id="a_edge10_Node000002_Node000010"><a xlink:title=" ">
<path fill="none" stroke="#63b8ff" d="M807.86,-128.14C789.58,-120.76 766.18,-111.66 745,-104.5 735.17,-101.18 724.4,-97.92 714.46,-95.07"/>
<polygon fill="#63b8ff" stroke="#63b8ff" points="806.6,-131.41 817.18,-131.94 809.24,-124.92 806.6,-131.41"/>
</a>
</g>
</g>
<!-- Node12 -->
<g id="Node000012" class="node">
<title>Node12</title>
<g id="a_Node000012"><a xlink:href="../../dd/ded/nCr_8c.html#a21ae6f543736e097ce7e5214c531301f" target="_top" xlink:title=" ">
<polygon fill="white" stroke="#666666" points="743.5,-132 612.5,-132 612.5,-113 743.5,-113 743.5,-132"/>
<text text-anchor="middle" x="678" y="-120" font-family="Helvetica,sans-Serif" font-size="10.00">lmmp_odd_nCr_ushort_</text>
</a>
</g>
</g>
<!-- Node2&#45;&gt;Node12 -->
<g id="edge12_Node000002_Node000012" class="edge">
<title>Node2&#45;&gt;Node12</title>
<g id="a_edge12_Node000002_Node000012"><a xlink:title=" ">
<path fill="none" stroke="#63b8ff" d="M789.52,-135.54C775.01,-133.83 758.97,-131.94 743.73,-130.14"/>
<polygon fill="#63b8ff" stroke="#63b8ff" points="789.45,-139.06 799.79,-136.75 790.27,-132.11 789.45,-139.06"/>
</a>
</g>
</g>
<!-- Node13 -->
<g id="Node000013" class="node">
<title>Node13</title>
<g id="a_Node000013"><a xlink:href="../../db/d22/to__str_8c.html#a80f4a74fa16da4cf57c658b4c527dedb" target="_top" xlink:title=" ">
<polygon fill="white" stroke="#666666" points="745,-208 611,-208 611,-189 745,-189 745,-208"/>
<text text-anchor="middle" x="678" y="-196" font-family="Helvetica,sans-Serif" font-size="10.00">lmmp_to_str_basecase_</text>
</a>
</g>
</g>
<!-- Node2&#45;&gt;Node13 -->
<g id="edge14_Node000002_Node000013" class="edge">
<title>Node2&#45;&gt;Node13</title>
<g id="a_edge14_Node000002_Node000013"><a xlink:title=" ">
<path fill="none" stroke="#63b8ff" d="M803.48,-154.43C773.86,-164.92 732.77,-179.46 706.04,-188.93"/>
<polygon fill="#63b8ff" stroke="#63b8ff" points="804.79,-157.68 813.05,-151.04 802.46,-151.08 804.79,-157.68"/>
</a>
</g>
</g>
<!-- Node4&#45;&gt;Node3 -->
<g id="edge4_Node000004_Node000003" class="edge">
<title>Node4&#45;&gt;Node3</title>
<g id="a_edge4_Node000004_Node000003"><a xlink:title=" ">
<path fill="none" stroke="#63b8ff" d="M330.44,-279.08C296.64,-256.48 234.64,-215.01 206.53,-196.22"/>
<polygon fill="#63b8ff" stroke="#63b8ff" points="328.91,-282.27 339.17,-284.92 332.8,-276.45 328.91,-282.27"/>
</a>
</g>
</g>
<!-- Node5 -->
<g id="Node000005" class="node">
<title>Node5</title>
<g id="a_Node000005"><a xlink:href="../../d6/dfd/gcd__basecase_8c.html#a1d75efbaa9483d1df69ca92c456b8f79" target="_top" xlink:title="计算两个无符号整数的最大公约数（不建议使用此算法，更高版本可能被彻底弃用）">
<polygon fill="white" stroke="#666666" points="253,-285 129,-285 129,-266 253,-266 253,-285"/>
<text text-anchor="middle" x="191" y="-273" font-family="Helvetica,sans-Serif" font-size="10.00">lmmp_gcd_basecase_</text>
</a>
</g>
</g>
<!-- Node4&#45;&gt;Node5 -->
<g id="edge5_Node000004_Node000005" class="edge">
<title>Node4&#45;&gt;Node5</title>
<g id="a_edge5_Node000004_Node000005"><a xlink:title=" ">
<path fill="none" stroke="#63b8ff" d="M308.59,-289.22C291.48,-287.2 271.68,-284.87 253.31,-282.71"/>
<polygon fill="#63b8ff" stroke="#63b8ff" points="308.51,-292.73 318.85,-290.42 309.33,-285.78 308.51,-292.73"/>
</a>
</g>
</g>
<!-- Node6 -->
<g id="Node000006" class="node">
<title>Node6</title>
<g id="a_Node000006"><a xlink:href="../../de/d86/gcd__lehmer_8c.html#a1ea89f24b0daddd75fa7ed3f13b851f4" target="_top" xlink:title="计算两个无符号整数的最大公约数（Lehmer算法）">
<polygon fill="white" stroke="#666666" points="247.5,-133 134.5,-133 134.5,-114 247.5,-114 247.5,-133"/>
<text text-anchor="middle" x="191" y="-121" font-family="Helvetica,sans-Serif" font-size="10.00">lmmp_gcd_lehmer_</text>
</a>
</g>
</g>
<!-- Node4&#45;&gt;Node6 -->
<g id="edge6_Node000004_Node000006" class="edge">
<title>Node4&#45;&gt;Node6</title>
<g id="a_edge6_Node000004_Node000006"><a xlink:title=" ">
<path fill="none" stroke="#63b8ff" d="M326.29,-279.64C313.68,-271.71 299.25,-260.99 289,-248.5 264.27,-218.36 277.49,-198.84 253,-168.5 240.93,-153.55 222.79,-141.01 209.42,-133"/>
<polygon fill="#63b8ff" stroke="#63b8ff" points="324.69,-282.77 335.06,-284.92 328.29,-276.77 324.69,-282.77"/>
</a>
</g>
</g>
<!-- Node7 -->
<g id="Node000007" class="node">
<title>Node7</title>
<g id="a_Node000007"><a xlink:href="../../d1/db8/trialdiv_8c.html#a3f93397f659328a5dbf9affb2680fee1" target="_top" xlink:title=" ">
<polygon fill="white" stroke="#666666" points="236,-63 146,-63 146,-44 236,-44 236,-63"/>
<text text-anchor="middle" x="191" y="-51" font-family="Helvetica,sans-Serif" font-size="10.00">lmmp_trialdiv_</text>
</a>
</g>
</g>
<!-- Node4&#45;&gt;Node7 -->
<g id="edge7_Node000004_Node000007" class="edge">
<title>Node4&#45;&gt;Node7</title>
<g id="a_edge7_Node000004_Node000007"><a xlink:title=" ">
<path fill="none" stroke="#63b8ff" d="M324.23,-279.75C311.66,-272.04 297.86,-261.48 289,-248.5 252.05,-194.37 287.58,-161.18 253,-105.5 241.69,-87.29 221.92,-72.17 207.95,-63.02"/>
<polygon fill="#63b8ff" stroke="#63b8ff" points="322.66,-282.89 333.07,-284.85 326.16,-276.82 322.66,-282.89"/>
</a>
</g>
</g>
<!-- Node8 -->
<g id="Node000008" class="node">
<title>Node8</title>
<g id="a_Node000008"><a xlink:href="../../d2/dd7/remove_8c.html#a247b77acd679e675a3715ea686b3b001" target="_top" xlink:title="qp 为商，rp 为余数，divp 为被除数，divn 为被除数长度，numb 为除数，nb 为除数长度 如果无法整除，则返回0，否则返回除数 qp 的长度">
<polygon fill="white" stroke="#666666" points="219,-322 163,-322 163,-303 219,-303 219,-322"/>
<text text-anchor="middle" x="191" y="-310" font-family="Helvetica,sans-Serif" font-size="10.00">try_div_</text>
</a>
</g>
</g>
<!-- Node4&#45;&gt;Node8 -->
<g id="edge8_Node000004_Node000008" class="edge">
<title>Node4&#45;&gt;Node8</title>
<g id="a_edge8_Node000004_Node000008"><a xlink:title=" ">
<path fill="none" stroke="#63b8ff" d="M308.64,-299.5C279.9,-302.7 243.53,-306.76 219.11,-309.48"/>
<polygon fill="#63b8ff" stroke="#63b8ff" points="309.3,-302.95 318.85,-298.36 308.53,-295.99 309.3,-302.95"/>
</a>
</g>
</g>
<!-- Node9 -->
<g id="Node000009" class="node">
<title>Node9</title>
<g id="a_Node000009"><a xlink:href="../../d2/dd7/remove_8c.html#a1cc1a46280105160a8cbd99a0f9f1571" target="_top" xlink:title="除去[np,nn]中的[dp,dn]的因子">
<polygon fill="white" stroke="#666666" points="93,-322 0,-322 0,-303 93,-303 93,-322"/>
<text text-anchor="middle" x="46.5" y="-310" font-family="Helvetica,sans-Serif" font-size="10.00">lmmp_remove_</text>
</a>
</g>
</g>
<!-- Node8&#45;&gt;Node9 -->
<g id="edge9_Node000008_Node000009" class="edge">
<title>Node8&#45;&gt;Node9</title>
<g id="a_edge9_Node000008_Node000009"><a xlink:title=" ">
<path fill="none" stroke="#63b8ff" d="M152.62,-312.5C134.37,-312.5 112.26,-312.5 93.04,-312.5"/>
<polygon fill="#63b8ff" stroke="#63b8ff" points="152.86,-316 162.86,-312.5 152.86,-309 152.86,-316"/>
</a>
</g>
</g>
<!-- Node11 -->
<g id="Node000011" class="node">
<title>Node11</title>
<g id="a_Node000011"><a xlink:href="../../dd/ded/nCr_8c.html#a9df9f98aa994cfd62b54926b1439d4b7" target="_top" xlink:title="计算 nCr 组合数 ( nCr = n! / (r!(n&#45;r)!) )">
<polygon fill="white" stroke="#666666" points="551.5,-111 479.5,-111 479.5,-92 551.5,-92 551.5,-111"/>
<text text-anchor="middle" x="515.5" y="-99" font-family="Helvetica,sans-Serif" font-size="10.00">lmmp_nCr_</text>
</a>
</g>
</g>
<!-- Node10&#45;&gt;Node11 -->
<g id="edge11_Node000010_Node000011" class="edge">
<title>Node10&#45;&gt;Node11</title>
<g id="a_edge11_Node000010_Node000011"><a xlink:title=" ">
<path fill="none" stroke="#63b8ff" d="M608.05,-92.37C588.55,-94.32 568.13,-96.35 551.54,-98.01"/>
<polygon fill="#63b8ff" stroke="#63b8ff" points="608.54,-95.84 618.15,-91.37 607.85,-88.88 608.54,-95.84"/>
</a>
</g>
</g>
<!-- Node12&#45;&gt;Node11 -->
<g id="edge13_Node000012_Node000011" class="edge">
<title>Node12&#45;&gt;Node11</title>
<g id="a_edge13_Node000012_Node000011"><a xlink:title=" ">
<path fill="none" stroke="#63b8ff" d="M601.9,-112.67C584.33,-110.38 566.43,-108.03 551.59,-106.09"/>
<polygon fill="#63b8ff" stroke="#63b8ff" points="601.81,-116.19 612.18,-114.02 602.72,-109.25 601.81,-116.19"/>
</a>
</g>
</g>
<!-- Node14 -->
<g id="Node000014" class="node">
<title>Node14</title>
<g id="a_Node000014"><a xlink:href="../../db/d22/to__str_8c.html#a6322ab8e9cf460abc363e7d6efd5ed78" target="_top" xlink:title="大数转字符串操作 [numa,na,B] to [dst,return value,base]">
<polygon fill="white" stroke="#666666" points="396,-239 313,-239 313,-220 396,-220 396,-239"/>
<text text-anchor="middle" x="354.5" y="-227" font-family="Helvetica,sans-Serif" font-size="10.00">lmmp_to_str_</text>
</a>
</g>
</g>
<!-- Node13&#45;&gt;Node14 -->
<g id="edge15_Node000013_Node000014" class="edge">
<title>Node13&#45;&gt;Node14</title>
<g id="a_edge15_Node000013_Node000014"><a xlink:title=" ">
<path fill="none" stroke="#63b8ff" d="M600.64,-203.21C558.02,-206.13 503.99,-210.32 456,-215.5 436.21,-217.64 414.31,-220.62 396.02,-223.28"/>
<polygon fill="#63b8ff" stroke="#63b8ff" points="600.92,-206.7 610.66,-202.53 600.45,-199.72 600.92,-206.7"/>
</a>
</g>
</g>
<!-- Node15 -->
<g id="Node000015" class="node">
<title>Node15</title>
<g id="a_Node000015"><a xlink:href="../../db/d22/to__str_8c.html#ae7015bf876ce4a9726e4584583e137ce" target="_top" xlink:title=" ">
<polygon fill="white" stroke="#666666" points="575,-277 456,-277 456,-258 575,-258 575,-277"/>
<text text-anchor="middle" x="515.5" y="-265" font-family="Helvetica,sans-Serif" font-size="10.00">lmmp_to_str_divide_</text>
</a>
</g>
</g>
<!-- Node13&#45;&gt;Node15 -->
<g id="edge16_Node000013_Node000015" class="edge">
<title>Node13&#45;&gt;Node15</title>
<g id="a_edge16_Node000013_Node000015"><a xlink:title=" ">
<path fill="none" stroke="#63b8ff" d="M644.91,-212.05C634.12,-216.62 622.03,-221.77 611,-226.5 586.18,-237.15 557.76,-249.5 538.63,-257.84"/>
<polygon fill="#63b8ff" stroke="#63b8ff" points="646.53,-215.17 654.38,-208.04 643.8,-208.72 646.53,-215.17"/>
</a>
</g>
</g>
<!-- Node15&#45;&gt;Node14 -->
<g id="edge17_Node000015_Node000014" class="edge">
<title>Node15&#45;&gt;Node14</title>
<g id="a_edge17_Node000015_Node000014"><a xlink:title=" ">
<path fill="none" stroke="#63b8ff" d="M464.42,-255.53C442.14,-250.21 416.27,-244.02 395.33,-239.02"/>
<polygon fill="#63b8ff" stroke="#63b8ff" points="463.84,-258.99 474.38,-257.91 465.47,-252.18 463.84,-258.99"/>
</a>
</g>
</g>
<!-- Node15&#45;&gt;Node15 -->
<g id="edge18_Node000015_Node000015" class="edge">
<title>Node15&#45;&gt;Node15</title>
<g id="a_edge18_Node000015_Node000015"><a xlink:title=" ">
<path fill="none" stroke="#63b8ff" d="M545.37,-285.82C544.12,-291.01 534.16,-295 515.5,-295 487.06,-295 478.84,-285.73 490.84,-277.08"/>
<polygon fill="#63b8ff" stroke="#63b8ff" points="548.29,-283.88 540.16,-277.08 542.27,-287.47 548.29,-283.88"/>
</a>
</g>
</g>
<!-- Node18 -->
<g id="Node000018" class="node">
<title>Node18</title>
<g id="a_Node000018"><a xlink:href="../../d9/dfd/inv_8c.html#a098d9000e629aea1666d7eed5ce2576c" target="_top" xlink:title="近似逆元计算 (invappr)">
<polygon fill="white" stroke="#666666" points="1029,-375 937,-375 937,-356 1029,-356 1029,-375"/>
<text text-anchor="middle" x="983" y="-363" font-family="Helvetica,sans-Serif" font-size="10.00">lmmp_invappr_</text>
</a>
</g>
</g>
<!-- Node17&#45;&gt;Node18 -->
<g id="edge21_Node000017_Node000018" class="edge">
<title>Node17&#45;&gt;Node18</title>
<g id="a_edge21_Node000017_Node000018"><a xlink:title=" ">
<path fill="none" stroke="#63b8ff" d="M1270.1,-351.38C1250.69,-360.23 1223.93,-370.88 1199,-375.5 1141.13,-386.22 1073.09,-379.97 1029.29,-373.57"/>
<polygon fill="#63b8ff" stroke="#63b8ff" points="1271.69,-354.5 1279.26,-347.08 1268.72,-348.16 1271.69,-354.5"/>
</a>
</g>
</g>
<!-- Node27 -->
<g id="Node000027" class="node">
<title>Node27</title>
<g id="a_Node000027"><a xlink:href="../../d9/dfd/inv_8c.html#a8e77d4aa54d6c0e211003cf1fe70c88e" target="_top" xlink:title="近似逆元计算（牛顿迭代法）">
<polygon fill="white" stroke="#666666" points="1199,-366 1065,-366 1065,-347 1199,-347 1199,-366"/>
<text text-anchor="middle" x="1132" y="-354" font-family="Helvetica,sans-Serif" font-size="10.00">lmmp_invappr_newton_</text>
</a>
</g>
</g>
<!-- Node17&#45;&gt;Node27 -->
<g id="edge40_Node000017_Node000027" class="edge">
<title>Node17&#45;&gt;Node27</title>
<g id="a_edge40_Node000017_Node000027"><a xlink:title=" ">
<path fill="none" stroke="#63b8ff" d="M1227.77,-345.59C1218.27,-346.68 1208.55,-347.8 1199.12,-348.89"/>
<polygon fill="#63b8ff" stroke="#63b8ff" points="1228.43,-349.03 1237.96,-344.41 1227.63,-342.08 1228.43,-349.03"/>
</a>
</g>
</g>
<!-- Node19 -->
<g id="Node000019" class="node">
<title>Node19</title>
<g id="a_Node000019"><a xlink:href="../../d9/dfd/inv_8c.html#ad9cb3f61b28ef836332304d207e26a6e" target="_top" xlink:title="大数求逆操作 [dst,na+nf+1] = (B^(2*(na+nf)) &#45; 1) / ([numa,na]*B^nf) + [0|&#45;1]">
<polygon fill="white" stroke="#666666" points="876.5,-408 805.5,-408 805.5,-389 876.5,-389 876.5,-408"/>
<text text-anchor="middle" x="841" y="-396" font-family="Helvetica,sans-Serif" font-size="10.00">lmmp_inv_</text>
</a>
</g>
</g>
<!-- Node18&#45;&gt;Node19 -->
<g id="edge22_Node000018_Node000019" class="edge">
<title>Node18&#45;&gt;Node19</title>
<g id="a_edge22_Node000018_Node000019"><a xlink:title=" ">
<path fill="none" stroke="#63b8ff" d="M931.62,-377.37C913.41,-381.67 893.28,-386.41 876.71,-390.32"/>
<polygon fill="#63b8ff" stroke="#63b8ff" points="932.58,-380.75 941.51,-375.04 930.97,-373.93 932.58,-380.75"/>
</a>
</g>
</g>
<!-- Node20 -->
<g id="Node000020" class="node">
<title>Node20</title>
<g id="a_Node000020"><a xlink:href="../../d8/d4f/div__mulinv_8c.html#a3f10aa3f16917894bbc7e987c3b990f6" target="_top" xlink:title="除法前的逆元预计算，[dst,ni] = invappr( (ni+1 MSLs of numa) + 1 ) / B">
<polygon fill="white" stroke="#666666" points="894.5,-371 787.5,-371 787.5,-352 894.5,-352 894.5,-371"/>
<text text-anchor="middle" x="841" y="-359" font-family="Helvetica,sans-Serif" font-size="10.00">lmmp_inv_prediv_</text>
</a>
</g>
</g>
<!-- Node18&#45;&gt;Node20 -->
<g id="edge23_Node000018_Node000020" class="edge">
<title>Node18&#45;&gt;Node20</title>
<g id="a_edge23_Node000018_Node000020"><a xlink:title=" ">
<path fill="none" stroke="#63b8ff" d="M926.63,-363.92C916.15,-363.62 905.2,-363.31 894.79,-363.01"/>
<polygon fill="#63b8ff" stroke="#63b8ff" points="926.84,-367.43 936.93,-364.21 927.04,-360.43 926.84,-367.43"/>
</a>
</g>
</g>
<!-- Node20&#45;&gt;Node4 -->
<g id="edge24_Node000020_Node000004" class="edge">
<title>Node20&#45;&gt;Node4</title>
<g id="a_edge24_Node000020_Node000004"><a xlink:title=" ">
<path fill="none" stroke="#63b8ff" d="M777.31,-364.07C700.49,-365.74 566.86,-363.85 456,-337.5 425.35,-330.22 392.19,-314.3 372.67,-304.01"/>
<polygon fill="#63b8ff" stroke="#63b8ff" points="777.4,-367.57 787.31,-363.82 777.23,-360.57 777.4,-367.57"/>
</a>
</g>
</g>
<!-- Node20&#45;&gt;Node14 -->
<g id="edge39_Node000020_Node000014" class="edge">
<title>Node20&#45;&gt;Node14</title>
<g id="a_edge39_Node000020_Node000014"><a xlink:title=" ">
<path fill="none" stroke="#63b8ff" d="M813.56,-347.05C766.93,-322.33 666.37,-272.38 575,-249.5 513.94,-234.21 440.72,-230.31 396.18,-229.48"/>
<polygon fill="#63b8ff" stroke="#63b8ff" points="812.2,-350.29 822.67,-351.92 815.5,-344.12 812.2,-350.29"/>
</a>
</g>
</g>
<!-- Node21 -->
<g id="Node000021" class="node">
<title>Node21</title>
<g id="a_Node000021"><a xlink:href="../../d3/db2/div_8c.html#a09787f526eeb74b44652734d1a125385" target="_top" xlink:title="除法运算">
<polygon fill="white" stroke="#666666" points="718.5,-409 637.5,-409 637.5,-390 718.5,-390 718.5,-409"/>
<text text-anchor="middle" x="678" y="-397" font-family="Helvetica,sans-Serif" font-size="10.00">lmmp_div_s_</text>
</a>
</g>
</g>
<!-- Node20&#45;&gt;Node21 -->
<g id="edge25_Node000020_Node000021" class="edge">
<title>Node20&#45;&gt;Node21</title>
<g id="a_edge25_Node000020_Node000021"><a xlink:title=" ">
<path fill="none" stroke="#63b8ff" d="M789.48,-373.42C766.58,-378.83 739.9,-385.13 718.5,-390.18"/>
<polygon fill="#63b8ff" stroke="#63b8ff" points="790.44,-376.79 799.37,-371.09 788.84,-369.98 790.44,-376.79"/>
</a>
</g>
</g>
<!-- Node21&#45;&gt;Node15 -->
<g id="edge38_Node000021_Node000015" class="edge">
<title>Node21&#45;&gt;Node15</title>
<g id="a_edge38_Node000021_Node000015"><a xlink:title=" ">
<path fill="none" stroke="#63b8ff" d="M657.41,-383.39C623.7,-355.66 555.7,-299.74 528.32,-277.22"/>
<polygon fill="#63b8ff" stroke="#63b8ff" points="655.25,-386.14 665.2,-389.79 659.7,-380.74 655.25,-386.14"/>
</a>
</g>
</g>
<!-- Node21&#45;&gt;Node21 -->
<g id="edge30_Node000021_Node000021" class="edge">
<title>Node21&#45;&gt;Node21</title>
<g id="a_edge30_Node000021_Node000021"><a xlink:title=" ">
<path fill="none" stroke="#63b8ff" d="M708.24,-417.82C706.98,-423.01 696.9,-427 678,-427 649.21,-427 640.88,-417.73 653.03,-409.08"/>
<polygon fill="#63b8ff" stroke="#63b8ff" points="711.13,-415.84 702.97,-409.08 705.14,-419.45 711.13,-415.84"/>
</a>
</g>
</g>
<!-- Node22 -->
<g id="Node000022" class="node">
<title>Node22</title>
<g id="a_Node000022"><a xlink:href="../../d6/d35/div__divide_8c.html#af7cdacfcced180d298d3c7689dd6481e" target="_top" xlink:title="分治除法运算">
<polygon fill="white" stroke="#666666" points="568.5,-409 462.5,-409 462.5,-390 568.5,-390 568.5,-409"/>
<text text-anchor="middle" x="515.5" y="-397" font-family="Helvetica,sans-Serif" font-size="10.00">lmmp_div_divide_</text>
</a>
</g>
</g>
<!-- Node21&#45;&gt;Node22 -->
<g id="edge26_Node000021_Node000022" class="edge">
<title>Node21&#45;&gt;Node22</title>
<g id="a_edge26_Node000021_Node000022"><a xlink:title=" ">
<path fill="none" stroke="#63b8ff" d="M627.3,-393.2C608.71,-392.62 587.55,-392.6 568.74,-393.13"/>
<polygon fill="#63b8ff" stroke="#63b8ff" points="627.2,-396.7 637.33,-393.58 627.47,-389.71 627.2,-396.7"/>
</a>
</g>
</g>
<!-- Node23 -->
<g id="Node000023" class="node">
<title>Node23</title>
<g id="a_Node000023"><a xlink:href="../../dd/de3/sqrt_8c.html#acf69ca7583fe7a1266e3c31256ab270b" target="_top" xlink:title=" ">
<polygon fill="white" stroke="#666666" points="420,-447 289,-447 289,-428 420,-428 420,-447"/>
<text text-anchor="middle" x="354.5" y="-435" font-family="Helvetica,sans-Serif" font-size="10.00">lmmp_invsqrt_newton_</text>
</a>
</g>
</g>
<!-- Node21&#45;&gt;Node23 -->
<g id="edge31_Node000021_Node000023" class="edge">
<title>Node21&#45;&gt;Node23</title>
<g id="a_edge31_Node000021_Node000023"><a xlink:title=" ">
<path fill="none" stroke="#63b8ff" d="M627.39,-409.75C610.79,-412.91 592.15,-416.17 575,-418.5 523.08,-425.57 463.86,-430.51 420.03,-433.58"/>
<polygon fill="#63b8ff" stroke="#63b8ff" points="628.27,-413.14 637.43,-407.8 626.94,-406.27 628.27,-413.14"/>
</a>
</g>
</g>
<!-- Node26 -->
<g id="Node000026" class="node">
<title>Node26</title>
<g id="a_Node000026"><a xlink:href="../../dd/de3/sqrt_8c.html#a22ca68231196ab9e635c48d8c74f33f9" target="_top" xlink:title=" ">
<polygon fill="white" stroke="#666666" points="570.5,-485 460.5,-485 460.5,-466 570.5,-466 570.5,-485"/>
<text text-anchor="middle" x="515.5" y="-473" font-family="Helvetica,sans-Serif" font-size="10.00">lmmp_sqrt_divide_</text>
</a>
</g>
</g>
<!-- Node21&#45;&gt;Node26 -->
<g id="edge34_Node000021_Node000026" class="edge">
<title>Node21&#45;&gt;Node26</title>
<g id="a_edge34_Node000021_Node000026"><a xlink:title=" ">
<path fill="none" stroke="#63b8ff" d="M650.15,-413.95C629.75,-424.74 600.89,-439.62 575,-451.5 564.03,-456.54 551.68,-461.68 541.17,-465.9"/>
<polygon fill="#63b8ff" stroke="#63b8ff" points="651.98,-416.94 659.16,-409.16 648.69,-410.76 651.98,-416.94"/>
</a>
</g>
</g>
<!-- Node22&#45;&gt;Node4 -->
<g id="edge27_Node000022_Node000004" class="edge">
<title>Node22&#45;&gt;Node4</title>
<g id="a_edge27_Node000022_Node000004"><a xlink:title=" ">
<path fill="none" stroke="#63b8ff" d="M477.03,-386.02C469.87,-382.92 462.56,-379.38 456,-375.5 419.73,-354.06 382.53,-320.43 365.33,-304.07"/>
<polygon fill="#63b8ff" stroke="#63b8ff" points="476.05,-389.4 486.63,-389.96 478.71,-382.93 476.05,-389.4"/>
</a>
</g>
</g>
<!-- Node22&#45;&gt;Node17 -->
<g id="edge29_Node000022_Node000017" class="edge">
<title>Node22&#45;&gt;Node17</title>
<g id="a_edge29_Node000022_Node000017"><a xlink:title=" ">
<path fill="none" stroke="#63b8ff" d="M548.33,-385.98C605.59,-362.94 730.22,-318.5 840,-318.5 984,-318.5 984,-318.5 984,-318.5 1072.47,-318.5 1174.71,-326.11 1237.87,-331.7"/>
<polygon fill="#63b8ff" stroke="#63b8ff" points="546.7,-382.87 538.77,-389.89 549.35,-389.35 546.7,-382.87"/>
</a>
</g>
</g>
<!-- Node22&#45;&gt;Node21 -->
<g id="edge28_Node000022_Node000021" class="edge">
<title>Node22&#45;&gt;Node21</title>
<g id="a_edge28_Node000022_Node000021"><a xlink:title=" ">
<path fill="none" stroke="#63b8ff" d="M578.86,-406.1C598.52,-406.44 619.7,-406.21 637.33,-405.42"/>
<polygon fill="#63b8ff" stroke="#63b8ff" points="578.82,-402.6 568.74,-405.87 578.66,-409.6 578.82,-402.6"/>
</a>
</g>
</g>
<!-- Node24 -->
<g id="Node000024" class="node">
<title>Node24</title>
<g id="a_Node000024"><a xlink:href="../../dd/de3/sqrt_8c.html#ad190ea42b780f8fa43a1f402935b24df" target="_top" xlink:title=" ">
<polygon fill="white" stroke="#666666" points="249,-447 133,-447 133,-428 249,-428 249,-447"/>
<text text-anchor="middle" x="191" y="-435" font-family="Helvetica,sans-Serif" font-size="10.00">lmmp_sqrt_newton_</text>
</a>
</g>
</g>
<!-- Node23&#45;&gt;Node24 -->
<g id="edge32_Node000023_Node000024" class="edge">
<title>Node23&#45;&gt;Node24</title>
<g id="a_edge32_Node000023_Node000024"><a xlink:title=" ">
<path fill="none" stroke="#63b8ff" d="M278.54,-437.5C268.68,-437.5 258.71,-437.5 249.21,-437.5"/>
<polygon fill="#63b8ff" stroke="#63b8ff" points="278.74,-441 288.74,-437.5 278.74,-434 278.74,-441"/>
</a>
</g>
</g>
<!-- Node25 -->
<g id="Node000025" class="node">
<title>Node25</title>
<g id="a_Node000025"><a xlink:href="../../dd/de3/sqrt_8c.html#ae0b4726620c46767b8fa9dd6a2b9ae28" target="_top" xlink:title="大数平方根和取余操作">
<polygon fill="white" stroke="#666666" points="83.5,-466 9.5,-466 9.5,-447 83.5,-447 83.5,-466"/>
<text text-anchor="middle" x="46.5" y="-454" font-family="Helvetica,sans-Serif" font-size="10.00">lmmp_sqrt_</text>
</a>
</g>
</g>
<!-- Node24&#45;&gt;Node25 -->
<g id="edge33_Node000024_Node000025" class="edge">
<title>Node24&#45;&gt;Node25</title>
<g id="a_edge33_Node000024_Node000025"><a xlink:title=" ">
<path fill="none" stroke="#63b8ff" d="M122.66,-446.48C109.24,-448.27 95.63,-450.08 83.75,-451.67"/>
<polygon fill="#63b8ff" stroke="#63b8ff" points="123.41,-449.91 132.86,-445.12 122.49,-442.97 123.41,-449.91"/>
</a>
</g>
</g>
<!-- Node26&#45;&gt;Node23 -->
<g id="edge35_Node000026_Node000023" class="edge">
<title>Node26&#45;&gt;Node23</title>
<g id="a_edge35_Node000026_Node000023"><a xlink:title=" ">
<path fill="none" stroke="#63b8ff" d="M464.42,-463.53C442.14,-458.21 416.27,-452.02 395.33,-447.02"/>
<polygon fill="#63b8ff" stroke="#63b8ff" points="463.84,-466.99 474.38,-465.91 465.47,-460.18 463.84,-466.99"/>
</a>
</g>
</g>
<!-- Node26&#45;&gt;Node25 -->
<g id="edge36_Node000026_Node000025" class="edge">
<title>Node26&#45;&gt;Node25</title>
<g id="a_edge36_Node000026_Node000025"><a xlink:title=" ">
<path fill="none" stroke="#63b8ff" d="M450.25,-472.89C350.74,-468.84 162.62,-461.18 83.74,-457.97"/>
<polygon fill="#63b8ff" stroke="#63b8ff" points="450.34,-476.39 460.47,-473.3 450.62,-469.4 450.34,-476.39"/>
</a>
</g>
</g>
<!-- Node26&#45;&gt;Node26 -->
<g id="edge37_Node000026_Node000026" class="edge">
<title>Node26&#45;&gt;Node26</title>
<g id="a_edge37_Node000026_Node000026"><a xlink:title=" ">
<path fill="none" stroke="#63b8ff" d="M545.37,-493.82C544.12,-499.01 534.16,-503 515.5,-503 487.06,-503 478.84,-493.73 490.84,-485.08"/>
<polygon fill="#63b8ff" stroke="#63b8ff" points="548.29,-491.88 540.16,-485.08 542.27,-495.47 548.29,-491.88"/>
</a>
</g>
</g>
<!-- Node27&#45;&gt;Node18 -->
<g id="edge41_Node000027_Node000018" class="edge">
<title>Node27&#45;&gt;Node18</title>
<g id="a_edge41_Node000027_Node000018"><a xlink:title=" ">
<path fill="none" stroke="#63b8ff" d="M1054.62,-361.18C1045.93,-361.71 1037.3,-362.24 1029.21,-362.73"/>
<polygon fill="#63b8ff" stroke="#63b8ff" points="1055.04,-364.66 1064.81,-360.55 1054.62,-357.67 1055.04,-364.66"/>
</a>
</g>
</g>
<!-- Node28&#45;&gt;Node2 -->
<g id="edge43_Node000028_Node000002" class="edge">
<title>Node28&#45;&gt;Node2</title>
<g id="a_edge43_Node000028_Node000002"><a xlink:title=" ">
<path fill="none" stroke="#63b8ff" d="M948.64,-98.85C923.1,-109.06 888.52,-122.89 865.75,-132"/>
<polygon fill="#63b8ff" stroke="#63b8ff" points="949.95,-102.09 957.93,-95.13 947.35,-95.59 949.95,-102.09"/>
</a>
</g>
</g>
<!-- Node29 -->
<g id="Node000029" class="node">
<title>Node29</title>
<g id="a_Node000029"><a xlink:href="../../dc/d07/gcd__1_8c.html#a6a87be71b380b3f53e53447c376423c8" target="_top" xlink:title="计算两个无符号整数的最大公约数">
<polygon fill="white" stroke="#666666" points="396.5,-108 312.5,-108 312.5,-89 396.5,-89 396.5,-108"/>
<text text-anchor="middle" x="354.5" y="-96" font-family="Helvetica,sans-Serif" font-size="10.00">lmmp_gcd_1_</text>
</a>
</g>
</g>
<!-- Node28&#45;&gt;Node29 -->
<g id="edge44_Node000028_Node000029" class="edge">
<title>Node28&#45;&gt;Node29</title>
<g id="a_edge44_Node000028_Node000029"><a xlink:title=" ">
<path fill="none" stroke="#63b8ff" d="M928.22,-79.96C880.23,-75.3 808.02,-69.02 745,-66.5 616.46,-61.36 583.55,-65.78 456,-82.5 436.56,-85.05 415.08,-88.4 396.99,-91.37"/>
<polygon fill="#63b8ff" stroke="#63b8ff" points="928.09,-83.46 938.38,-80.95 928.77,-76.49 928.09,-83.46"/>
</a>
</g>
</g>
<!-- Node30 -->
<g id="Node000030" class="node">
<title>Node30</title>
<g id="a_Node000030"><a xlink:href="../../d1/db8/trialdiv_8c.html#abaef6d72954c5779c131f95aae07d835" target="_top" xlink:title=" ">
<polygon fill="white" stroke="#666666" points="901,-19 781,-19 781,0 901,0 901,-19"/>
<text text-anchor="middle" x="841" y="-7" font-family="Helvetica,sans-Serif" font-size="10.00">lmmp_trialdiv_short_</text>
</a>
</g>
</g>
<!-- Node28&#45;&gt;Node30 -->
<g id="edge46_Node000028_Node000030" class="edge">
<title>Node28&#45;&gt;Node30</title>
<g id="a_edge46_Node000028_Node000030"><a xlink:title=" ">
<path fill="none" stroke="#63b8ff" d="M960.12,-69.88C944.18,-58.91 921.83,-44.31 901,-33.5 890.6,-28.1 878.69,-23.06 868.31,-19"/>
<polygon fill="#63b8ff" stroke="#63b8ff" points="958.5,-73.02 968.7,-75.87 962.5,-67.28 958.5,-73.02"/>
</a>
</g>
</g>
<!-- Node29&#45;&gt;Node6 -->
<g id="edge45_Node000029_Node000006" class="edge">
<title>Node29&#45;&gt;Node6</title>
<g id="a_edge45_Node000029_Node000006"><a xlink:title=" ">
<path fill="none" stroke="#63b8ff" d="M302.36,-106.42C284.97,-109.11 265.45,-112.13 247.72,-114.87"/>
<polygon fill="#63b8ff" stroke="#63b8ff" points="302.98,-109.86 312.33,-104.87 301.91,-102.94 302.98,-109.86"/>
</a>
</g>
</g>
<!-- Node30&#45;&gt;Node7 -->
<g id="edge47_Node000030_Node000007" class="edge">
<title>Node30&#45;&gt;Node7</title>
<g id="a_edge47_Node000030_Node000007"><a xlink:title=" ">
<path fill="none" stroke="#63b8ff" d="M770.65,-14.21C636.98,-23.29 347.1,-42.97 236.29,-50.49"/>
<polygon fill="#63b8ff" stroke="#63b8ff" points="771.04,-17.69 780.78,-13.52 770.56,-10.71 771.04,-17.69"/>
</a>
</g>
</g>
</g>
</svg>
