<?xml version="1.0" encoding="UTF-8" standalone="no"?>
<!DOCTYPE svg PUBLIC "-//W3C//DTD SVG 1.1//EN"
 "http://www.w3.org/Graphics/SVG/1.1/DTD/svg11.dtd">
<!-- Generated by graphviz version 2.43.0 (0)
 -->
<!-- Title: lmmp_mul_1_ Pages: 1 -->
<svg width="715pt" height="655pt"
 viewBox="0.00 0.00 715.00 655.42" xmlns="http://www.w3.org/2000/svg" xmlns:xlink="http://www.w3.org/1999/xlink">
<g id="graph0" class="graph" transform="scale(1 1) rotate(0) translate(4 651.42)">
<title>lmmp_mul_1_</title>
<!-- Node1 -->
<g id="Node000001" class="node">
<title>Node1</title>
<g id="a_Node000001"><a xlink:title="大数乘以单limb操作 [dst,na] = [numa,na] * x">
<polygon fill="#999999" stroke="#666666" points="707,-280.42 621,-280.42 621,-261.42 707,-261.42 707,-280.42"/>
<text text-anchor="middle" x="664" y="-268.42" font-family="Helvetica,sans-Serif" font-size="10.00">lmmp_mul_1_</text>
</a>
</g>
</g>
<!-- Node2 -->
<g id="Node000002" class="node">
<title>Node2</title>
<g id="a_Node000002"><a xlink:href="../../d3/da4/pow__1_8c.html#a89211e3da9898ea24335c0c84bc81898" target="_top" xlink:title=" ">
<polygon fill="white" stroke="#666666" points="557.5,-589.42 464.5,-589.42 464.5,-570.42 557.5,-570.42 557.5,-589.42"/>
<text text-anchor="middle" x="511" y="-577.42" font-family="Helvetica,sans-Serif" font-size="10.00">lmmp_3pow_1_</text>
</a>
</g>
</g>
<!-- Node1&#45;&gt;Node2 -->
<g id="edge1_Node000001_Node000002" class="edge">
<title>Node1&#45;&gt;Node2</title>
<g id="a_edge1_Node000001_Node000002"><a xlink:title=" ">
<path fill="none" stroke="#63b8ff" d="M660.32,-290.81C651.95,-349.99 624.49,-523.22 585,-561.92 577.64,-569.14 567.86,-573.62 557.87,-576.36"/>
<polygon fill="#63b8ff" stroke="#63b8ff" points="663.83,-290.96 661.74,-280.57 656.9,-290 663.83,-290.96"/>
</a>
</g>
</g>
<!-- Node8 -->
<g id="Node000008" class="node">
<title>Node8</title>
<g id="a_Node000008"><a xlink:href="../../db/d80/ele__mul_8c.html#acce24a83c7351bdeb653845f6e6e089f" target="_top" xlink:title=" ">
<polygon fill="white" stroke="#666666" points="579.5,-534.42 442.5,-534.42 442.5,-515.42 579.5,-515.42 579.5,-534.42"/>
<text text-anchor="middle" x="511" y="-522.42" font-family="Helvetica,sans-Serif" font-size="10.00">lmmp_elem_mul_ulong_</text>
</a>
</g>
</g>
<!-- Node1&#45;&gt;Node8 -->
<g id="edge10_Node000001_Node000008" class="edge">
<title>Node1&#45;&gt;Node8</title>
<g id="a_edge10_Node000001_Node000008"><a xlink:title=" ">
<path fill="none" stroke="#63b8ff" d="M662.02,-290.85C658.76,-334.98 644.79,-441.68 585,-500.92 578.65,-507.21 570.62,-511.85 562.23,-515.28"/>
<polygon fill="#63b8ff" stroke="#63b8ff" points="665.51,-291.02 662.65,-280.82 658.53,-290.59 665.51,-291.02"/>
</a>
</g>
</g>
<!-- Node9 -->
<g id="Node000009" class="node">
<title>Node9</title>
<g id="a_Node000009"><a xlink:href="../../de/d1f/from__str_8c.html#a74090a2da889ea471ac0dbb166ce121a" target="_top" xlink:title="字符串转大数操作 [src,len,base] to [dst,return value,B]">
<polygon fill="white" stroke="#666666" points="226.5,-458.42 129.5,-458.42 129.5,-439.42 226.5,-439.42 226.5,-458.42"/>
<text text-anchor="middle" x="178" y="-446.42" font-family="Helvetica,sans-Serif" font-size="10.00">lmmp_from_str_</text>
</a>
</g>
</g>
<!-- Node1&#45;&gt;Node9 -->
<g id="edge12_Node000001_Node000009" class="edge">
<title>Node1&#45;&gt;Node9</title>
<g id="a_edge12_Node000001_Node000009"><a xlink:title=" ">
<path fill="none" stroke="#63b8ff" d="M660.41,-290.61C654.46,-327.01 636.16,-404.28 585,-438.92 467.07,-518.78 282.46,-478.84 209.83,-458.43"/>
<polygon fill="#63b8ff" stroke="#63b8ff" points="663.87,-291.12 661.88,-280.72 656.95,-290.09 663.87,-291.12"/>
</a>
</g>
</g>
<!-- Node10 -->
<g id="Node000010" class="node">
<title>Node10</title>
<g id="a_Node000010"><a xlink:href="../../de/d1f/from__str_8c.html#abbfed5beba9f5b823319af7c1c3fda50" target="_top" xlink:title=" ">
<polygon fill="white" stroke="#666666" points="585,-429.42 437,-429.42 437,-410.42 585,-410.42 585,-429.42"/>
<text text-anchor="middle" x="511" y="-417.42" font-family="Helvetica,sans-Serif" font-size="10.00">lmmp_from_str_basecase_</text>
</a>
</g>
</g>
<!-- Node1&#45;&gt;Node10 -->
<g id="edge13_Node000001_Node000010" class="edge">
<title>Node1&#45;&gt;Node10</title>
<g id="a_edge13_Node000001_Node000010"><a xlink:title=" ">
<path fill="none" stroke="#63b8ff" d="M656.88,-290.35C646.74,-319.26 623.66,-373.27 585,-401.92 580.39,-405.34 575.2,-408.12 569.78,-410.37"/>
<polygon fill="#63b8ff" stroke="#63b8ff" points="660.29,-291.19 660.14,-280.6 653.65,-288.98 660.29,-291.19"/>
</a>
</g>
</g>
<!-- Node12 -->
<g id="Node000012" class="node">
<title>Node12</title>
<g id="a_Node000012"><a xlink:href="../../de/d86/gcd__lehmer_8c.html#aafacb514e01a9781e7617b03bb8c5c82" target="_top" xlink:title="/ a \ = / A B \ * / a \ \ b / \ C D / \ b /">
<polygon fill="white" stroke="#666666" points="568,-392.42 454,-392.42 454,-373.42 568,-373.42 568,-392.42"/>
<text text-anchor="middle" x="511" y="-380.42" font-family="Helvetica,sans-Serif" font-size="10.00">lmmp_lehmer_mul_</text>
</a>
</g>
</g>
<!-- Node1&#45;&gt;Node12 -->
<g id="edge18_Node000001_Node000012" class="edge">
<title>Node1&#45;&gt;Node12</title>
<g id="a_edge18_Node000001_Node000012"><a xlink:title=" ">
<path fill="none" stroke="#63b8ff" d="M652.64,-289.48C639.66,-310.97 615.38,-345.87 585,-364.92 579.58,-368.32 573.56,-371.07 567.37,-373.31"/>
<polygon fill="#63b8ff" stroke="#63b8ff" points="655.78,-291.05 657.79,-280.65 649.73,-287.52 655.78,-291.05"/>
</a>
</g>
</g>
<!-- Node14 -->
<g id="Node000014" class="node">
<title>Node14</title>
<g id="a_Node000014"><a xlink:href="../../dd/d6c/mullo_8c.html#a013529b9bc76f33ed13fda0001a227d2" target="_top" xlink:title=" ">
<polygon fill="white" stroke="#666666" points="561,-337.42 461,-337.42 461,-318.42 561,-318.42 561,-337.42"/>
<text text-anchor="middle" x="511" y="-325.42" font-family="Helvetica,sans-Serif" font-size="10.00">lmmp_mullo_dc_</text>
</a>
</g>
</g>
<!-- Node1&#45;&gt;Node14 -->
<g id="edge20_Node000001_Node000014" class="edge">
<title>Node1&#45;&gt;Node14</title>
<g id="a_edge20_Node000001_Node000014"><a xlink:title=" ">
<path fill="none" stroke="#63b8ff" d="M632.32,-284.59C618.05,-290.77 600.77,-298 585,-303.92 571.39,-309.03 556.13,-314.14 543.1,-318.32"/>
<polygon fill="#63b8ff" stroke="#63b8ff" points="633.91,-287.72 641.67,-280.51 631.11,-281.3 633.91,-287.72"/>
</a>
</g>
</g>
<!-- Node16 -->
<g id="Node000016" class="node">
<title>Node16</title>
<g id="a_Node000016"><a xlink:href="../../dd/d6c/mullo_8c.html#a9dc5ab6a8219bb58ebd8134ce3b26428" target="_top" xlink:title=" ">
<polygon fill="white" stroke="#666666" points="383,-289.42 287,-289.42 287,-270.42 383,-270.42 383,-289.42"/>
<text text-anchor="middle" x="335" y="-277.42" font-family="Helvetica,sans-Serif" font-size="10.00">lmmp_sqrlo_dc_</text>
</a>
</g>
</g>
<!-- Node1&#45;&gt;Node16 -->
<g id="edge30_Node000001_Node000016" class="edge">
<title>Node1&#45;&gt;Node16</title>
<g id="a_edge30_Node000001_Node000016"><a xlink:title=" ">
<path fill="none" stroke="#63b8ff" d="M610.84,-272.36C548.09,-274.08 443.66,-276.96 383.21,-278.62"/>
<polygon fill="#63b8ff" stroke="#63b8ff" points="611.02,-275.85 620.92,-272.08 610.83,-268.86 611.02,-275.85"/>
</a>
</g>
</g>
<!-- Node17 -->
<g id="Node000017" class="node">
<title>Node17</title>
<g id="a_Node000017"><a xlink:href="../../dd/ded/nCr_8c.html#acf2a5abfcb591c5bfef6480f7b0d99d1" target="_top" xlink:title=" ">
<polygon fill="white" stroke="#666666" points="570.5,-261.42 451.5,-261.42 451.5,-242.42 570.5,-242.42 570.5,-261.42"/>
<text text-anchor="middle" x="511" y="-249.42" font-family="Helvetica,sans-Serif" font-size="10.00">lmmp_odd_nCr_uint_</text>
</a>
</g>
</g>
<!-- Node1&#45;&gt;Node17 -->
<g id="edge25_Node000001_Node000017" class="edge">
<title>Node1&#45;&gt;Node17</title>
<g id="a_edge25_Node000001_Node000017"><a xlink:title=" ">
<path fill="none" stroke="#63b8ff" d="M610.83,-264.36C597.9,-262.73 583.97,-260.98 570.76,-259.31"/>
<polygon fill="#63b8ff" stroke="#63b8ff" points="610.58,-267.85 620.94,-265.63 611.45,-260.91 610.58,-267.85"/>
</a>
</g>
</g>
<!-- Node19 -->
<g id="Node000019" class="node">
<title>Node19</title>
<g id="a_Node000019"><a xlink:href="../../dd/ded/nCr_8c.html#a21ae6f543736e097ce7e5214c531301f" target="_top" xlink:title=" ">
<polygon fill="white" stroke="#666666" points="576.5,-224.42 445.5,-224.42 445.5,-205.42 576.5,-205.42 576.5,-224.42"/>
<text text-anchor="middle" x="511" y="-212.42" font-family="Helvetica,sans-Serif" font-size="10.00">lmmp_odd_nCr_ushort_</text>
</a>
</g>
</g>
<!-- Node1&#45;&gt;Node19 -->
<g id="edge27_Node000001_Node000019" class="edge">
<title>Node1&#45;&gt;Node19</title>
<g id="a_edge27_Node000001_Node000019"><a xlink:title=" ">
<path fill="none" stroke="#63b8ff" d="M636.35,-256.74C621.52,-249.25 602.56,-240.31 585,-233.92 575.15,-230.34 564.33,-227.14 554.11,-224.44"/>
<polygon fill="#63b8ff" stroke="#63b8ff" points="634.95,-259.96 645.44,-261.42 638.15,-253.73 634.95,-259.96"/>
</a>
</g>
</g>
<!-- Node20 -->
<g id="Node000020" class="node">
<title>Node20</title>
<g id="a_Node000020"><a xlink:href="../../dc/da6/pow_8c.html#a75134c248a97c57502abbde45013cac0" target="_top" xlink:title=" ">
<polygon fill="white" stroke="#666666" points="549,-187.42 473,-187.42 473,-168.42 549,-168.42 549,-187.42"/>
<text text-anchor="middle" x="511" y="-175.42" font-family="Helvetica,sans-Serif" font-size="10.00">lmmp_pow_</text>
</a>
</g>
</g>
<!-- Node1&#45;&gt;Node20 -->
<g id="edge29_Node000001_Node000020" class="edge">
<title>Node1&#45;&gt;Node20</title>
<g id="a_edge29_Node000001_Node000020"><a xlink:title=" ">
<path fill="none" stroke="#63b8ff" d="M649.22,-253.07C634.99,-235.86 611.2,-210.36 585,-195.92 574.03,-189.87 561.02,-185.83 549.04,-183.14"/>
<polygon fill="#63b8ff" stroke="#63b8ff" points="646.77,-255.6 655.76,-261.21 652.23,-251.22 646.77,-255.6"/>
</a>
</g>
</g>
<!-- Node21 -->
<g id="Node000021" class="node">
<title>Node21</title>
<g id="a_Node000021"><a xlink:href="../../db/d22/to__str_8c.html#a6322ab8e9cf460abc363e7d6efd5ed78" target="_top" xlink:title="大数转字符串操作 [numa,na,B] to [dst,return value,base]">
<polygon fill="white" stroke="#666666" points="552.5,-150.42 469.5,-150.42 469.5,-131.42 552.5,-131.42 552.5,-150.42"/>
<text text-anchor="middle" x="511" y="-138.42" font-family="Helvetica,sans-Serif" font-size="10.00">lmmp_to_str_</text>
</a>
</g>
</g>
<!-- Node1&#45;&gt;Node21 -->
<g id="edge31_Node000001_Node000021" class="edge">
<title>Node1&#45;&gt;Node21</title>
<g id="a_edge31_Node000001_Node000021"><a xlink:title=" ">
<path fill="none" stroke="#63b8ff" d="M655.11,-252.15C643.53,-226.95 619.5,-182.63 585,-158.92 575.53,-152.41 563.95,-148.25 552.82,-145.6"/>
<polygon fill="#63b8ff" stroke="#63b8ff" points="651.94,-253.63 659.18,-261.37 658.34,-250.81 651.94,-253.63"/>
</a>
</g>
</g>
<!-- Node22 -->
<g id="Node000022" class="node">
<title>Node22</title>
<g id="a_Node000022"><a xlink:href="../../d3/da4/pow__1_8c.html#aed38db7c7db0320b679fb5e50156a919" target="_top" xlink:title=" ">
<polygon fill="white" stroke="#666666" points="233,-112.42 123,-112.42 123,-93.42 233,-93.42 233,-112.42"/>
<text text-anchor="middle" x="178" y="-100.42" font-family="Helvetica,sans-Serif" font-size="10.00">lmmp_u32_pow_1_</text>
</a>
</g>
</g>
<!-- Node1&#45;&gt;Node22 -->
<g id="edge32_Node000001_Node000022" class="edge">
<title>Node1&#45;&gt;Node22</title>
<g id="a_edge32_Node000001_Node000022"><a xlink:title=" ">
<path fill="none" stroke="#63b8ff" d="M659.29,-251.57C651.8,-218.43 631.45,-151.54 585,-121.92 528.18,-85.69 330.14,-92.95 233.24,-98.97"/>
<polygon fill="#63b8ff" stroke="#63b8ff" points="655.88,-252.34 661.36,-261.41 662.73,-250.9 655.88,-252.34"/>
</a>
</g>
</g>
<!-- Node23 -->
<g id="Node000023" class="node">
<title>Node23</title>
<g id="a_Node000023"><a xlink:href="../../d3/da4/pow__1_8c.html#a631181b12c418796d668fcdbb49a3db3" target="_top" xlink:title=" ">
<polygon fill="white" stroke="#666666" points="233,-74.42 123,-74.42 123,-55.42 233,-55.42 233,-74.42"/>
<text text-anchor="middle" x="178" y="-62.42" font-family="Helvetica,sans-Serif" font-size="10.00">lmmp_u64_pow_1_</text>
</a>
</g>
</g>
<!-- Node1&#45;&gt;Node23 -->
<g id="edge34_Node000001_Node000023" class="edge">
<title>Node1&#45;&gt;Node23</title>
<g id="a_edge34_Node000001_Node000023"><a xlink:title=" ">
<path fill="none" stroke="#63b8ff" d="M660.95,-251.13C655.83,-212.99 638.77,-129.75 585,-91.92 529.75,-53.05 330.46,-57.19 233.18,-61.77"/>
<polygon fill="#63b8ff" stroke="#63b8ff" points="657.52,-251.9 662.18,-261.42 664.47,-251.07 657.52,-251.9"/>
</a>
</g>
</g>
<!-- Node24 -->
<g id="Node000024" class="node">
<title>Node24</title>
<g id="a_Node000024"><a xlink:href="../../d3/da4/pow__1_8c.html#ab64c619deca4f7e6267b3a562cccc636" target="_top" xlink:title=" ">
<polygon fill="white" stroke="#666666" points="230,-37.42 126,-37.42 126,-18.42 230,-18.42 230,-37.42"/>
<text text-anchor="middle" x="178" y="-25.42" font-family="Helvetica,sans-Serif" font-size="10.00">lmmp_u8_pow_1_</text>
</a>
</g>
</g>
<!-- Node1&#45;&gt;Node24 -->
<g id="edge36_Node000001_Node000024" class="edge">
<title>Node1&#45;&gt;Node24</title>
<g id="a_edge36_Node000001_Node000024"><a xlink:title=" ">
<path fill="none" stroke="#63b8ff" d="M662.43,-251.1C660.01,-207.86 647.6,-105.19 585,-57.92 474.31,25.66 294.73,-1.27 216.94,-18.4"/>
<polygon fill="#63b8ff" stroke="#63b8ff" points="658.94,-251.34 662.87,-261.18 665.93,-251.04 658.94,-251.34"/>
</a>
</g>
</g>
<!-- Node3 -->
<g id="Node000003" class="node">
<title>Node3</title>
<g id="a_Node000003"><a xlink:href="../../d3/da4/pow__1_8c.html#ad9bec594342ac506df9bba9ff78f59ed" target="_top" xlink:title=" ">
<polygon fill="white" stroke="#666666" points="384.5,-647.42 285.5,-647.42 285.5,-628.42 384.5,-628.42 384.5,-647.42"/>
<text text-anchor="middle" x="335" y="-635.42" font-family="Helvetica,sans-Serif" font-size="10.00">lmmp_12pow_1_</text>
</a>
</g>
</g>
<!-- Node2&#45;&gt;Node3 -->
<g id="edge2_Node000002_Node000003" class="edge">
<title>Node2&#45;&gt;Node3</title>
<g id="a_edge2_Node000002_Node000003"><a xlink:title=" ">
<path fill="none" stroke="#63b8ff" d="M471.71,-592.68C439.45,-603.44 394.01,-618.58 364.78,-628.33"/>
<polygon fill="#63b8ff" stroke="#63b8ff" points="472.89,-595.98 481.27,-589.5 470.67,-589.34 472.89,-595.98"/>
</a>
</g>
</g>
<!-- Node4 -->
<g id="Node000004" class="node">
<title>Node4</title>
<g id="a_Node000004"><a xlink:href="../../d3/da4/pow__1_8c.html#a580e3e46ae8cb359d3772c06c73ce3ff" target="_top" xlink:title=" ">
<polygon fill="white" stroke="#666666" points="230,-571.42 126,-571.42 126,-552.42 230,-552.42 230,-571.42"/>
<text text-anchor="middle" x="178" y="-559.42" font-family="Helvetica,sans-Serif" font-size="10.00">lmmp_u4_pow_1_</text>
</a>
</g>
</g>
<!-- Node2&#45;&gt;Node4 -->
<g id="edge9_Node000002_Node000004" class="edge">
<title>Node2&#45;&gt;Node4</title>
<g id="a_edge9_Node000002_Node000004"><a xlink:title=" ">
<path fill="none" stroke="#63b8ff" d="M454.03,-583.56C405.08,-585.94 332.13,-587.51 269,-580.92 251.21,-579.06 231.76,-575.19 215.51,-571.43"/>
<polygon fill="#63b8ff" stroke="#63b8ff" points="454.29,-587.06 464.1,-583.05 453.93,-580.07 454.29,-587.06"/>
</a>
</g>
</g>
<!-- Node6 -->
<g id="Node000006" class="node">
<title>Node6</title>
<g id="a_Node000006"><a xlink:href="../../d3/da4/pow__1_8c.html#a5f672a9815399a1eff0b6281c4724154" target="_top" xlink:title=" ">
<polygon fill="white" stroke="#666666" points="381.5,-571.42 288.5,-571.42 288.5,-552.42 381.5,-552.42 381.5,-571.42"/>
<text text-anchor="middle" x="335" y="-559.42" font-family="Helvetica,sans-Serif" font-size="10.00">lmmp_6pow_1_</text>
</a>
</g>
</g>
<!-- Node2&#45;&gt;Node6 -->
<g id="edge5_Node000002_Node000006" class="edge">
<title>Node2&#45;&gt;Node6</title>
<g id="a_edge5_Node000002_Node000006"><a xlink:title=" ">
<path fill="none" stroke="#63b8ff" d="M454.15,-574.14C430.76,-571.72 403.9,-568.94 381.71,-566.65"/>
<polygon fill="#63b8ff" stroke="#63b8ff" points="453.98,-577.64 464.28,-575.19 454.7,-570.68 453.98,-577.64"/>
</a>
</g>
</g>
<!-- Node7 -->
<g id="Node000007" class="node">
<title>Node7</title>
<g id="a_Node000007"><a xlink:href="../../d3/da4/pow__1_8c.html#a3f954798f0c29844ed34afa1a9a89bf3" target="_top" xlink:title=" ">
<polygon fill="white" stroke="#666666" points="381.5,-534.42 288.5,-534.42 288.5,-515.42 381.5,-515.42 381.5,-534.42"/>
<text text-anchor="middle" x="335" y="-522.42" font-family="Helvetica,sans-Serif" font-size="10.00">lmmp_9pow_1_</text>
</a>
</g>
</g>
<!-- Node2&#45;&gt;Node7 -->
<g id="edge7_Node000002_Node000007" class="edge">
<title>Node2&#45;&gt;Node7</title>
<g id="a_edge7_Node000002_Node000007"><a xlink:title=" ">
<path fill="none" stroke="#63b8ff" d="M454.4,-567.58C448.47,-565.86 442.57,-563.97 437,-561.92 420.21,-555.74 417.65,-550.46 401,-543.92 392.03,-540.4 382.13,-537.18 372.83,-534.44"/>
<polygon fill="#63b8ff" stroke="#63b8ff" points="453.79,-571.05 464.36,-570.32 455.64,-564.3 453.79,-571.05"/>
</a>
</g>
</g>
<!-- Node3&#45;&gt;Node4 -->
<g id="edge3_Node000003_Node000004" class="edge">
<title>Node3&#45;&gt;Node4</title>
<g id="a_edge3_Node000003_Node000004"><a xlink:title=" ">
<path fill="none" stroke="#63b8ff" d="M295.16,-624.81C286.44,-621.53 277.31,-617.82 269,-613.92 241.56,-601.04 211.37,-582.67 193.86,-571.56"/>
<polygon fill="#63b8ff" stroke="#63b8ff" points="294.18,-628.18 304.77,-628.32 296.58,-621.6 294.18,-628.18"/>
</a>
</g>
</g>
<!-- Node5 -->
<g id="Node000005" class="node">
<title>Node5</title>
<g id="a_Node000005"><a xlink:href="../../d3/da4/pow__1_8c.html#aba33231012cccaf77cfb662d570d99ef" target="_top" xlink:title=" ">
<polygon fill="white" stroke="#666666" points="87,-93.42 0,-93.42 0,-74.42 87,-74.42 87,-93.42"/>
<text text-anchor="middle" x="43.5" y="-81.42" font-family="Helvetica,sans-Serif" font-size="10.00">lmmp_pow_1_</text>
</a>
</g>
</g>
<!-- Node4&#45;&gt;Node5 -->
<g id="edge4_Node000004_Node000005" class="edge">
<title>Node4&#45;&gt;Node5</title>
<g id="a_edge4_Node000004_Node000005"><a xlink:title=" ">
<path fill="none" stroke="#63b8ff" d="M164.23,-543.8C151.91,-525.48 133.6,-495.95 123,-467.92 68.97,-325.03 49.33,-137.44 45.32,-93.44"/>
<polygon fill="#63b8ff" stroke="#63b8ff" points="161.51,-546.03 170.06,-552.29 167.29,-542.06 161.51,-546.03"/>
</a>
</g>
</g>
<!-- Node6&#45;&gt;Node4 -->
<g id="edge6_Node000006_Node000004" class="edge">
<title>Node6&#45;&gt;Node4</title>
<g id="a_edge6_Node000006_Node000004"><a xlink:title=" ">
<path fill="none" stroke="#63b8ff" d="M278.22,-561.92C262.49,-561.92 245.47,-561.92 230.04,-561.92"/>
<polygon fill="#63b8ff" stroke="#63b8ff" points="278.33,-565.42 288.33,-561.92 278.33,-558.42 278.33,-565.42"/>
</a>
</g>
</g>
<!-- Node7&#45;&gt;Node4 -->
<g id="edge8_Node000007_Node000004" class="edge">
<title>Node7&#45;&gt;Node4</title>
<g id="a_edge8_Node000007_Node000004"><a xlink:title=" ">
<path fill="none" stroke="#63b8ff" d="M284.33,-536.78C263.24,-541.81 238.97,-547.6 219.05,-552.36"/>
<polygon fill="#63b8ff" stroke="#63b8ff" points="285.17,-540.18 294.08,-534.45 283.54,-533.37 285.17,-540.18"/>
</a>
</g>
</g>
<!-- Node8&#45;&gt;Node8 -->
<g id="edge11_Node000008_Node000008" class="edge">
<title>Node8&#45;&gt;Node8</title>
<g id="a_edge11_Node000008_Node000008"><a xlink:title=" ">
<path fill="none" stroke="#63b8ff" d="M539.37,-543.24C538.19,-548.43 528.73,-552.42 511,-552.42 483.98,-552.42 476.18,-543.15 487.57,-534.5"/>
<polygon fill="#63b8ff" stroke="#63b8ff" points="542.4,-541.48 534.43,-534.5 536.31,-544.93 542.4,-541.48"/>
</a>
</g>
</g>
<!-- Node10&#45;&gt;Node9 -->
<g id="edge14_Node000010_Node000009" class="edge">
<title>Node10&#45;&gt;Node9</title>
<g id="a_edge14_Node000010_Node000009"><a xlink:title=" ">
<path fill="none" stroke="#63b8ff" d="M426.6,-427.62C417.95,-428.41 409.3,-429.18 401,-429.92 340.89,-435.25 271.6,-441.14 226.64,-444.93"/>
<polygon fill="#63b8ff" stroke="#63b8ff" points="427.07,-431.1 436.72,-426.71 426.44,-424.12 427.07,-431.1"/>
</a>
</g>
</g>
<!-- Node11 -->
<g id="Node000011" class="node">
<title>Node11</title>
<g id="a_Node000011"><a xlink:href="../../de/d1f/from__str_8c.html#ac2dfed02cc33ee66938d34c1df1c7147" target="_top" xlink:title=" ">
<polygon fill="white" stroke="#666666" points="401,-402.42 269,-402.42 269,-383.42 401,-383.42 401,-402.42"/>
<text text-anchor="middle" x="335" y="-390.42" font-family="Helvetica,sans-Serif" font-size="10.00">lmmp_from_str_divide_</text>
</a>
</g>
</g>
<!-- Node10&#45;&gt;Node11 -->
<g id="edge15_Node000010_Node000011" class="edge">
<title>Node10&#45;&gt;Node11</title>
<g id="a_edge15_Node000010_Node000011"><a xlink:title=" ">
<path fill="none" stroke="#63b8ff" d="M438.77,-408.87C425.04,-406.74 410.76,-404.52 397.38,-402.44"/>
<polygon fill="#63b8ff" stroke="#63b8ff" points="438.24,-412.33 448.65,-410.4 439.31,-405.41 438.24,-412.33"/>
</a>
</g>
</g>
<!-- Node11&#45;&gt;Node9 -->
<g id="edge16_Node000011_Node000009" class="edge">
<title>Node11&#45;&gt;Node9</title>
<g id="a_edge16_Node000011_Node000009"><a xlink:title=" ">
<path fill="none" stroke="#63b8ff" d="M297.81,-406C269.47,-416.23 230.73,-430.23 205.3,-439.42"/>
<polygon fill="#63b8ff" stroke="#63b8ff" points="299.14,-409.24 307.35,-402.55 296.76,-402.65 299.14,-409.24"/>
</a>
</g>
</g>
<!-- Node11&#45;&gt;Node11 -->
<g id="edge17_Node000011_Node000011" class="edge">
<title>Node11&#45;&gt;Node11</title>
<g id="a_edge17_Node000011_Node000011"><a xlink:title=" ">
<path fill="none" stroke="#63b8ff" d="M364.12,-411.24C362.9,-416.43 353.2,-420.42 335,-420.42 307.27,-420.42 299.26,-411.15 310.96,-402.5"/>
<polygon fill="#63b8ff" stroke="#63b8ff" points="367.09,-409.39 359.04,-402.5 361.04,-412.91 367.09,-409.39"/>
</a>
</g>
</g>
<!-- Node13 -->
<g id="Node000013" class="node">
<title>Node13</title>
<g id="a_Node000013"><a xlink:href="../../de/d86/gcd__lehmer_8c.html#a1ea89f24b0daddd75fa7ed3f13b851f4" target="_top" xlink:title="计算两个无符号整数的最大公约数（Lehmer算法）">
<polygon fill="white" stroke="#666666" points="391.5,-365.42 278.5,-365.42 278.5,-346.42 391.5,-346.42 391.5,-365.42"/>
<text text-anchor="middle" x="335" y="-353.42" font-family="Helvetica,sans-Serif" font-size="10.00">lmmp_gcd_lehmer_</text>
</a>
</g>
</g>
<!-- Node12&#45;&gt;Node13 -->
<g id="edge19_Node000012_Node000013" class="edge">
<title>Node12&#45;&gt;Node13</title>
<g id="a_edge19_Node000012_Node000013"><a xlink:title=" ">
<path fill="none" stroke="#63b8ff" d="M443.98,-372.68C426.71,-370 408.27,-367.14 391.61,-364.55"/>
<polygon fill="#63b8ff" stroke="#63b8ff" points="443.57,-376.15 453.99,-374.23 444.64,-369.24 443.57,-376.15"/>
</a>
</g>
</g>
<!-- Node14&#45;&gt;Node14 -->
<g id="edge22_Node000014_Node000014" class="edge">
<title>Node14&#45;&gt;Node14</title>
<g id="a_edge22_Node000014_Node000014"><a xlink:title=" ">
<path fill="none" stroke="#63b8ff" d="M539.37,-346.24C538.19,-351.43 528.73,-355.42 511,-355.42 483.98,-355.42 476.18,-346.15 487.57,-337.5"/>
<polygon fill="#63b8ff" stroke="#63b8ff" points="542.4,-344.48 534.43,-337.5 536.31,-347.93 542.4,-344.48"/>
</a>
</g>
</g>
<!-- Node15 -->
<g id="Node000015" class="node">
<title>Node15</title>
<g id="a_Node000015"><a xlink:href="../../dd/d6c/mullo_8c.html#a6d09898adb951f7bdd13bdc6f5e9fc3a" target="_top" xlink:title=" ">
<polygon fill="white" stroke="#666666" points="219.5,-308.42 136.5,-308.42 136.5,-289.42 219.5,-289.42 219.5,-308.42"/>
<text text-anchor="middle" x="178" y="-296.42" font-family="Helvetica,sans-Serif" font-size="10.00">lmmp_mullo_</text>
</a>
</g>
</g>
<!-- Node14&#45;&gt;Node15 -->
<g id="edge21_Node000014_Node000015" class="edge">
<title>Node14&#45;&gt;Node15</title>
<g id="a_edge21_Node000014_Node000015"><a xlink:title=" ">
<path fill="none" stroke="#63b8ff" d="M450.45,-322.7C383.73,-316.86 277.38,-307.54 219.59,-302.48"/>
<polygon fill="#63b8ff" stroke="#63b8ff" points="450.54,-326.22 460.8,-323.61 451.15,-319.25 450.54,-326.22"/>
</a>
</g>
</g>
<!-- Node14&#45;&gt;Node16 -->
<g id="edge23_Node000014_Node000016" class="edge">
<title>Node14&#45;&gt;Node16</title>
<g id="a_edge23_Node000014_Node000016"><a xlink:title=" ">
<path fill="none" stroke="#63b8ff" d="M465.19,-315.56C435.77,-307.44 397.86,-296.99 370.73,-289.5"/>
<polygon fill="#63b8ff" stroke="#63b8ff" points="464.64,-319.04 475.21,-318.32 466.5,-312.29 464.64,-319.04"/>
</a>
</g>
</g>
<!-- Node16&#45;&gt;Node15 -->
<g id="edge24_Node000016_Node000015" class="edge">
<title>Node16&#45;&gt;Node15</title>
<g id="a_edge24_Node000016_Node000015"><a xlink:title=" ">
<path fill="none" stroke="#63b8ff" d="M276.62,-286.95C257.65,-289.28 236.95,-291.82 219.52,-293.95"/>
<polygon fill="#63b8ff" stroke="#63b8ff" points="277.15,-290.42 286.65,-285.72 276.3,-283.47 277.15,-290.42"/>
</a>
</g>
</g>
<!-- Node18 -->
<g id="Node000018" class="node">
<title>Node18</title>
<g id="a_Node000018"><a xlink:href="../../dd/ded/nCr_8c.html#a9df9f98aa994cfd62b54926b1439d4b7" target="_top" xlink:title="计算 nCr 组合数 ( nCr = n! / (r!(n&#45;r)!) )">
<polygon fill="white" stroke="#666666" points="371,-233.42 299,-233.42 299,-214.42 371,-214.42 371,-233.42"/>
<text text-anchor="middle" x="335" y="-221.42" font-family="Helvetica,sans-Serif" font-size="10.00">lmmp_nCr_</text>
</a>
</g>
</g>
<!-- Node17&#45;&gt;Node18 -->
<g id="edge26_Node000017_Node000018" class="edge">
<title>Node17&#45;&gt;Node18</title>
<g id="a_edge26_Node000017_Node000018"><a xlink:title=" ">
<path fill="none" stroke="#63b8ff" d="M440.99,-240.81C417.08,-236.97 391.28,-232.82 371.24,-229.59"/>
<polygon fill="#63b8ff" stroke="#63b8ff" points="440.66,-244.31 451.09,-242.44 441.77,-237.4 440.66,-244.31"/>
</a>
</g>
</g>
<!-- Node19&#45;&gt;Node18 -->
<g id="edge28_Node000019_Node000018" class="edge">
<title>Node19&#45;&gt;Node18</title>
<g id="a_edge28_Node000019_Node000018"><a xlink:title=" ">
<path fill="none" stroke="#63b8ff" d="M435.08,-218.8C412.83,-219.95 389.5,-221.15 371.07,-222.11"/>
<polygon fill="#63b8ff" stroke="#63b8ff" points="435.4,-222.28 445.21,-218.27 435.04,-215.29 435.4,-222.28"/>
</a>
</g>
</g>
<!-- Node22&#45;&gt;Node5 -->
<g id="edge33_Node000022_Node000005" class="edge">
<title>Node22&#45;&gt;Node5</title>
<g id="a_edge33_Node000022_Node000005"><a xlink:title=" ">
<path fill="none" stroke="#63b8ff" d="M112.62,-93.69C103.97,-92.45 95.28,-91.2 87.13,-90.03"/>
<polygon fill="#63b8ff" stroke="#63b8ff" points="112.33,-97.18 122.72,-95.14 113.32,-90.25 112.33,-97.18"/>
</a>
</g>
</g>
<!-- Node23&#45;&gt;Node5 -->
<g id="edge35_Node000023_Node000005" class="edge">
<title>Node23&#45;&gt;Node5</title>
<g id="a_edge35_Node000023_Node000005"><a xlink:title=" ">
<path fill="none" stroke="#63b8ff" d="M112.62,-74.15C103.97,-75.39 95.28,-76.64 87.13,-77.81"/>
<polygon fill="#63b8ff" stroke="#63b8ff" points="113.32,-77.59 122.72,-72.7 112.33,-70.66 113.32,-77.59"/>
</a>
</g>
</g>
<!-- Node24&#45;&gt;Node5 -->
<g id="edge37_Node000024_Node000005" class="edge">
<title>Node24&#45;&gt;Node5</title>
<g id="a_edge37_Node000024_Node000005"><a xlink:title=" ">
<path fill="none" stroke="#63b8ff" d="M136.71,-40.71C132.06,-42.38 127.4,-44.13 123,-45.92 101.82,-54.53 78.32,-66.21 62.6,-74.33"/>
<polygon fill="#63b8ff" stroke="#63b8ff" points="137.89,-44.01 146.19,-37.43 135.6,-37.39 137.89,-44.01"/>
</a>
</g>
</g>
</g>
</svg>
