<?xml version="1.0" encoding="UTF-8" standalone="no"?>
<!DOCTYPE svg PUBLIC "-//W3C//DTD SVG 1.1//EN"
 "http://www.w3.org/Graphics/SVG/1.1/DTD/svg11.dtd">
<!-- Generated by graphviz version 2.43.0 (0)
 -->
<!-- Title: lmmp_invappr_newton_ Pages: 1 -->
<svg width="1141pt" height="338pt"
 viewBox="0.00 0.00 1141.00 338.48" xmlns="http://www.w3.org/2000/svg" xmlns:xlink="http://www.w3.org/1999/xlink">
<g id="graph0" class="graph" transform="scale(1 1) rotate(0) translate(4 334.48)">
<title>lmmp_invappr_newton_</title>
<!-- Node1 -->
<g id="Node000001" class="node">
<title>Node1</title>
<g id="a_Node000001"><a xlink:title="近似逆元计算（牛顿迭代法）">
<polygon fill="#999999" stroke="#666666" points="1133,-64 999,-64 999,-45 1133,-45 1133,-64"/>
<text text-anchor="middle" x="1066" y="-52" font-family="Helvetica,sans-Serif" font-size="10.00">lmmp_invappr_newton_</text>
</a>
</g>
</g>
<!-- Node2 -->
<g id="Node000002" class="node">
<title>Node2</title>
<g id="a_Node000002"><a xlink:href="../../d9/dfd/inv_8c.html#a098d9000e629aea1666d7eed5ce2576c" target="_top" xlink:title="近似逆元计算 (invappr)">
<polygon fill="white" stroke="#666666" points="963,-102 871,-102 871,-83 963,-83 963,-102"/>
<text text-anchor="middle" x="917" y="-90" font-family="Helvetica,sans-Serif" font-size="10.00">lmmp_invappr_</text>
</a>
</g>
</g>
<!-- Node1&#45;&gt;Node2 -->
<g id="edge1_Node000001_Node000002" class="edge">
<title>Node1&#45;&gt;Node2</title>
<g id="a_edge1_Node000001_Node000002"><a xlink:title=" ">
<path fill="none" stroke="#63b8ff" d="M1018.15,-66.61C997.67,-71.9 974.01,-78.02 954.83,-82.98"/>
<polygon fill="#63b8ff" stroke="#63b8ff" points="1019.1,-69.98 1027.91,-64.09 1017.35,-63.2 1019.1,-69.98"/>
</a>
</g>
</g>
<!-- Node3 -->
<g id="Node000003" class="node">
<title>Node3</title>
<g id="a_Node000003"><a xlink:href="../../d9/dfd/inv_8c.html#ad9cb3f61b28ef836332304d207e26a6e" target="_top" xlink:title="大数求逆操作 [dst,na+nf+1] = (B^(2*(na+nf)) &#45; 1) / ([numa,na]*B^nf) + [0|&#45;1]">
<polygon fill="white" stroke="#666666" points="817,-121 746,-121 746,-102 817,-102 817,-121"/>
<text text-anchor="middle" x="781.5" y="-109" font-family="Helvetica,sans-Serif" font-size="10.00">lmmp_inv_</text>
</a>
</g>
</g>
<!-- Node2&#45;&gt;Node3 -->
<g id="edge2_Node000002_Node000003" class="edge">
<title>Node2&#45;&gt;Node3</title>
<g id="a_edge2_Node000002_Node000003"><a xlink:title=" ">
<path fill="none" stroke="#63b8ff" d="M860.73,-100.37C845.96,-102.47 830.41,-104.68 817.1,-106.58"/>
<polygon fill="#63b8ff" stroke="#63b8ff" points="861.4,-103.81 870.8,-98.93 860.41,-96.88 861.4,-103.81"/>
</a>
</g>
</g>
<!-- Node4 -->
<g id="Node000004" class="node">
<title>Node4</title>
<g id="a_Node000004"><a xlink:href="../../d8/d4f/div__mulinv_8c.html#a3f10aa3f16917894bbc7e987c3b990f6" target="_top" xlink:title="除法前的逆元预计算，[dst,ni] = invappr( (ni+1 MSLs of numa) + 1 ) / B">
<polygon fill="white" stroke="#666666" points="835,-158 728,-158 728,-139 835,-139 835,-158"/>
<text text-anchor="middle" x="781.5" y="-146" font-family="Helvetica,sans-Serif" font-size="10.00">lmmp_inv_prediv_</text>
</a>
</g>
</g>
<!-- Node2&#45;&gt;Node4 -->
<g id="edge3_Node000002_Node000004" class="edge">
<title>Node2&#45;&gt;Node4</title>
<g id="a_edge3_Node000002_Node000004"><a xlink:title=" ">
<path fill="none" stroke="#63b8ff" d="M886.78,-106.54C871.49,-113.71 852.38,-122.4 835,-129.5 827.01,-132.76 818.24,-136.05 810.18,-138.96"/>
<polygon fill="#63b8ff" stroke="#63b8ff" points="888.68,-109.52 896.22,-102.08 885.69,-103.19 888.68,-109.52"/>
</a>
</g>
</g>
<!-- Node5 -->
<g id="Node000005" class="node">
<title>Node5</title>
<g id="a_Node000005"><a xlink:href="../../d3/db2/div_8c.html#add02162837d61d6b5abb1901937af5b3" target="_top" xlink:title="大数除法和取模操作">
<polygon fill="white" stroke="#666666" points="390,-121 319,-121 319,-102 390,-102 390,-121"/>
<text text-anchor="middle" x="354.5" y="-109" font-family="Helvetica,sans-Serif" font-size="10.00">lmmp_div_</text>
</a>
</g>
</g>
<!-- Node4&#45;&gt;Node5 -->
<g id="edge4_Node000004_Node000005" class="edge">
<title>Node4&#45;&gt;Node5</title>
<g id="a_edge4_Node000004_Node000005"><a xlink:title=" ">
<path fill="none" stroke="#63b8ff" d="M717.66,-142.98C676.98,-139.41 622.86,-134.67 575,-130.5 509.65,-124.81 433.35,-118.22 390.1,-114.48"/>
<polygon fill="#63b8ff" stroke="#63b8ff" points="717.44,-146.47 727.71,-143.86 718.05,-139.5 717.44,-146.47"/>
</a>
</g>
</g>
<!-- Node12 -->
<g id="Node000012" class="node">
<title>Node12</title>
<g id="a_Node000012"><a xlink:href="../../d3/db2/div_8c.html#a09787f526eeb74b44652734d1a125385" target="_top" xlink:title="除法运算">
<polygon fill="white" stroke="#666666" points="692,-177 611,-177 611,-158 692,-158 692,-177"/>
<text text-anchor="middle" x="651.5" y="-165" font-family="Helvetica,sans-Serif" font-size="10.00">lmmp_div_s_</text>
</a>
</g>
</g>
<!-- Node4&#45;&gt;Node12 -->
<g id="edge11_Node000004_Node000012" class="edge">
<title>Node4&#45;&gt;Node12</title>
<g id="a_edge11_Node000004_Node000012"><a xlink:title=" ">
<path fill="none" stroke="#63b8ff" d="M717.62,-157.83C708.99,-159.12 700.33,-160.4 692.27,-161.6"/>
<polygon fill="#63b8ff" stroke="#63b8ff" points="718.32,-161.27 727.7,-156.34 717.29,-154.34 718.32,-161.27"/>
</a>
</g>
</g>
<!-- Node20 -->
<g id="Node000020" class="node">
<title>Node20</title>
<g id="a_Node000020"><a xlink:href="../../db/d22/to__str_8c.html#a6322ab8e9cf460abc363e7d6efd5ed78" target="_top" xlink:title="大数转字符串操作 [numa,na,B] to [dst,return value,base]">
<polygon fill="white" stroke="#666666" points="396,-318 313,-318 313,-299 396,-299 396,-318"/>
<text text-anchor="middle" x="354.5" y="-306" font-family="Helvetica,sans-Serif" font-size="10.00">lmmp_to_str_</text>
</a>
</g>
</g>
<!-- Node4&#45;&gt;Node20 -->
<g id="edge29_Node000004_Node000020" class="edge">
<title>Node4&#45;&gt;Node20</title>
<g id="a_edge29_Node000004_Node000020"><a xlink:title=" ">
<path fill="none" stroke="#63b8ff" d="M766.52,-166.29C736.32,-203.11 660.75,-286.77 575,-317.5 513.43,-339.57 435.84,-328.03 391.33,-318.01"/>
<polygon fill="#63b8ff" stroke="#63b8ff" points="769.34,-168.37 772.89,-158.39 763.89,-163.98 769.34,-168.37"/>
</a>
</g>
</g>
<!-- Node6 -->
<g id="Node000006" class="node">
<title>Node6</title>
<g id="a_Node000006"><a xlink:href="../../da/dbc/bninv_8c.html#a9d1d54a9863ec438e863e842482697ba" target="_top" xlink:title=" ">
<polygon fill="white" stroke="#666666" points="232.5,-130 149.5,-130 149.5,-111 232.5,-111 232.5,-130"/>
<text text-anchor="middle" x="191" y="-118" font-family="Helvetica,sans-Serif" font-size="10.00">lmmp_bninv_</text>
</a>
</g>
</g>
<!-- Node5&#45;&gt;Node6 -->
<g id="edge5_Node000005_Node000006" class="edge">
<title>Node5&#45;&gt;Node6</title>
<g id="a_edge5_Node000005_Node000006"><a xlink:title=" ">
<path fill="none" stroke="#63b8ff" d="M308.65,-114C284.82,-115.33 255.74,-116.95 232.58,-118.24"/>
<polygon fill="#63b8ff" stroke="#63b8ff" points="309.06,-117.48 318.85,-113.43 308.67,-110.49 309.06,-117.48"/>
</a>
</g>
</g>
<!-- Node7 -->
<g id="Node000007" class="node">
<title>Node7</title>
<g id="a_Node000007"><a xlink:href="../../d6/dfd/gcd__basecase_8c.html#a1d75efbaa9483d1df69ca92c456b8f79" target="_top" xlink:title="计算两个无符号整数的最大公约数（不建议使用此算法，更高版本可能被彻底弃用）">
<polygon fill="white" stroke="#666666" points="253,-93 129,-93 129,-74 253,-74 253,-93"/>
<text text-anchor="middle" x="191" y="-81" font-family="Helvetica,sans-Serif" font-size="10.00">lmmp_gcd_basecase_</text>
</a>
</g>
</g>
<!-- Node5&#45;&gt;Node7 -->
<g id="edge6_Node000005_Node000007" class="edge">
<title>Node5&#45;&gt;Node7</title>
<g id="a_edge6_Node000005_Node000007"><a xlink:title=" ">
<path fill="none" stroke="#63b8ff" d="M308.88,-103.76C289.71,-100.44 267.11,-96.52 246.92,-93.02"/>
<polygon fill="#63b8ff" stroke="#63b8ff" points="308.4,-107.23 318.85,-105.49 309.6,-100.34 308.4,-107.23"/>
</a>
</g>
</g>
<!-- Node8 -->
<g id="Node000008" class="node">
<title>Node8</title>
<g id="a_Node000008"><a xlink:href="../../de/d86/gcd__lehmer_8c.html#a1ea89f24b0daddd75fa7ed3f13b851f4" target="_top" xlink:title="计算两个无符号整数的最大公约数（Lehmer算法）">
<polygon fill="white" stroke="#666666" points="247.5,-56 134.5,-56 134.5,-37 247.5,-37 247.5,-56"/>
<text text-anchor="middle" x="191" y="-44" font-family="Helvetica,sans-Serif" font-size="10.00">lmmp_gcd_lehmer_</text>
</a>
</g>
</g>
<!-- Node5&#45;&gt;Node8 -->
<g id="edge7_Node000005_Node000008" class="edge">
<title>Node5&#45;&gt;Node8</title>
<g id="a_edge7_Node000005_Node000008"><a xlink:title=" ">
<path fill="none" stroke="#63b8ff" d="M308.92,-99.88C302.09,-97.48 295.24,-94.69 289,-91.5 271.19,-82.41 270.87,-73.47 253,-64.5 246.39,-61.18 239.06,-58.37 231.84,-56.02"/>
<polygon fill="#63b8ff" stroke="#63b8ff" points="308.24,-103.34 318.83,-103.13 310.42,-96.69 308.24,-103.34"/>
</a>
</g>
</g>
<!-- Node9 -->
<g id="Node000009" class="node">
<title>Node9</title>
<g id="a_Node000009"><a xlink:href="../../d1/db8/trialdiv_8c.html#a3f93397f659328a5dbf9affb2680fee1" target="_top" xlink:title=" ">
<polygon fill="white" stroke="#666666" points="236,-19 146,-19 146,0 236,0 236,-19"/>
<text text-anchor="middle" x="191" y="-7" font-family="Helvetica,sans-Serif" font-size="10.00">lmmp_trialdiv_</text>
</a>
</g>
</g>
<!-- Node5&#45;&gt;Node9 -->
<g id="edge8_Node000005_Node000009" class="edge">
<title>Node5&#45;&gt;Node9</title>
<g id="a_edge8_Node000005_Node000009"><a xlink:title=" ">
<path fill="none" stroke="#63b8ff" d="M308.91,-102.57C301.77,-99.82 294.83,-96.21 289,-91.5 263.61,-70.99 278.53,-47.83 253,-27.5 247.99,-23.51 242.12,-20.4 236.04,-17.99"/>
<polygon fill="#63b8ff" stroke="#63b8ff" points="308.07,-105.99 318.67,-105.83 310.29,-99.35 308.07,-105.99"/>
</a>
</g>
</g>
<!-- Node10 -->
<g id="Node000010" class="node">
<title>Node10</title>
<g id="a_Node000010"><a xlink:href="../../d2/dd7/remove_8c.html#a247b77acd679e675a3715ea686b3b001" target="_top" xlink:title="qp 为商，rp 为余数，divp 为被除数，divn 为被除数长度，numb 为除数，nb 为除数长度 如果无法整除，则返回0，否则返回除数 qp 的长度">
<polygon fill="white" stroke="#666666" points="219,-167 163,-167 163,-148 219,-148 219,-167"/>
<text text-anchor="middle" x="191" y="-155" font-family="Helvetica,sans-Serif" font-size="10.00">try_div_</text>
</a>
</g>
</g>
<!-- Node5&#45;&gt;Node10 -->
<g id="edge9_Node000005_Node000010" class="edge">
<title>Node5&#45;&gt;Node10</title>
<g id="a_edge9_Node000005_Node000010"><a xlink:title=" ">
<path fill="none" stroke="#63b8ff" d="M310.15,-123.85C281.14,-132.11 243.85,-142.73 219,-149.81"/>
<polygon fill="#63b8ff" stroke="#63b8ff" points="311.38,-127.14 320.04,-121.03 309.46,-120.4 311.38,-127.14"/>
</a>
</g>
</g>
<!-- Node11 -->
<g id="Node000011" class="node">
<title>Node11</title>
<g id="a_Node000011"><a xlink:href="../../d2/dd7/remove_8c.html#a1cc1a46280105160a8cbd99a0f9f1571" target="_top" xlink:title="除去[np,nn]中的[dp,dn]的因子">
<polygon fill="white" stroke="#666666" points="93,-167 0,-167 0,-148 93,-148 93,-167"/>
<text text-anchor="middle" x="46.5" y="-155" font-family="Helvetica,sans-Serif" font-size="10.00">lmmp_remove_</text>
</a>
</g>
</g>
<!-- Node10&#45;&gt;Node11 -->
<g id="edge10_Node000010_Node000011" class="edge">
<title>Node10&#45;&gt;Node11</title>
<g id="a_edge10_Node000010_Node000011"><a xlink:title=" ">
<path fill="none" stroke="#63b8ff" d="M152.62,-157.5C134.37,-157.5 112.26,-157.5 93.04,-157.5"/>
<polygon fill="#63b8ff" stroke="#63b8ff" points="152.86,-161 162.86,-157.5 152.86,-154 152.86,-161"/>
</a>
</g>
</g>
<!-- Node12&#45;&gt;Node12 -->
<g id="edge18_Node000012_Node000012" class="edge">
<title>Node12&#45;&gt;Node12</title>
<g id="a_edge18_Node000012_Node000012"><a xlink:title=" ">
<path fill="none" stroke="#63b8ff" d="M675.68,-186.19C674.36,-191.2 666.3,-195 651.5,-195 628.39,-195 621.72,-185.73 631.46,-177.08"/>
<polygon fill="#63b8ff" stroke="#63b8ff" points="678.86,-184.73 671.54,-177.08 672.49,-187.63 678.86,-184.73"/>
</a>
</g>
</g>
<!-- Node13 -->
<g id="Node000013" class="node">
<title>Node13</title>
<g id="a_Node000013"><a xlink:href="../../d6/d35/div__divide_8c.html#af7cdacfcced180d298d3c7689dd6481e" target="_top" xlink:title="分治除法运算">
<polygon fill="white" stroke="#666666" points="568.5,-159 462.5,-159 462.5,-140 568.5,-140 568.5,-159"/>
<text text-anchor="middle" x="515.5" y="-147" font-family="Helvetica,sans-Serif" font-size="10.00">lmmp_div_divide_</text>
</a>
</g>
</g>
<!-- Node12&#45;&gt;Node13 -->
<g id="edge12_Node000012_Node000013" class="edge">
<title>Node12&#45;&gt;Node13</title>
<g id="a_edge12_Node000012_Node000013"><a xlink:title=" ">
<path fill="none" stroke="#63b8ff" d="M611.88,-156.13C598.42,-153.75 583.09,-151.55 568.72,-149.91"/>
<polygon fill="#63b8ff" stroke="#63b8ff" points="611.28,-159.58 621.75,-157.98 612.57,-152.7 611.28,-159.58"/>
</a>
</g>
</g>
<!-- Node15 -->
<g id="Node000015" class="node">
<title>Node15</title>
<g id="a_Node000015"><a xlink:href="../../dd/de3/sqrt_8c.html#acf69ca7583fe7a1266e3c31256ab270b" target="_top" xlink:title=" ">
<polygon fill="white" stroke="#666666" points="420,-243 289,-243 289,-224 420,-224 420,-243"/>
<text text-anchor="middle" x="354.5" y="-231" font-family="Helvetica,sans-Serif" font-size="10.00">lmmp_invsqrt_newton_</text>
</a>
</g>
</g>
<!-- Node12&#45;&gt;Node15 -->
<g id="edge19_Node000012_Node000015" class="edge">
<title>Node12&#45;&gt;Node15</title>
<g id="a_edge19_Node000012_Node000015"><a xlink:title=" ">
<path fill="none" stroke="#63b8ff" d="M633.84,-184.13C619.56,-197.18 597.75,-214.46 575,-222.5 525.18,-240.11 465.02,-241.89 420.29,-239.81"/>
<polygon fill="#63b8ff" stroke="#63b8ff" points="636.48,-186.45 641.32,-177.03 631.66,-181.37 636.48,-186.45"/>
</a>
</g>
</g>
<!-- Node18 -->
<g id="Node000018" class="node">
<title>Node18</title>
<g id="a_Node000018"><a xlink:href="../../dd/de3/sqrt_8c.html#a22ca68231196ab9e635c48d8c74f33f9" target="_top" xlink:title=" ">
<polygon fill="white" stroke="#666666" points="570.5,-196 460.5,-196 460.5,-177 570.5,-177 570.5,-196"/>
<text text-anchor="middle" x="515.5" y="-184" font-family="Helvetica,sans-Serif" font-size="10.00">lmmp_sqrt_divide_</text>
</a>
</g>
</g>
<!-- Node12&#45;&gt;Node18 -->
<g id="edge22_Node000012_Node000018" class="edge">
<title>Node12&#45;&gt;Node18</title>
<g id="a_edge22_Node000012_Node000018"><a xlink:title=" ">
<path fill="none" stroke="#63b8ff" d="M600.73,-174.56C590.98,-175.94 580.71,-177.4 570.82,-178.8"/>
<polygon fill="#63b8ff" stroke="#63b8ff" points="601.25,-178.02 610.66,-173.15 600.27,-171.09 601.25,-178.02"/>
</a>
</g>
</g>
<!-- Node19 -->
<g id="Node000019" class="node">
<title>Node19</title>
<g id="a_Node000019"><a xlink:href="../../db/d22/to__str_8c.html#ae7015bf876ce4a9726e4584583e137ce" target="_top" xlink:title=" ">
<polygon fill="white" stroke="#666666" points="575,-290 456,-290 456,-271 575,-271 575,-290"/>
<text text-anchor="middle" x="515.5" y="-278" font-family="Helvetica,sans-Serif" font-size="10.00">lmmp_to_str_divide_</text>
</a>
</g>
</g>
<!-- Node12&#45;&gt;Node19 -->
<g id="edge26_Node000012_Node000019" class="edge">
<title>Node12&#45;&gt;Node19</title>
<g id="a_edge26_Node000012_Node000019"><a xlink:title=" ">
<path fill="none" stroke="#63b8ff" d="M639.1,-185.52C625.81,-205.27 602.17,-236.76 575,-256.5 566.74,-262.5 556.76,-267.31 547.4,-271"/>
<polygon fill="#63b8ff" stroke="#63b8ff" points="642.05,-187.4 644.6,-177.12 636.2,-183.56 642.05,-187.4"/>
</a>
</g>
</g>
<!-- Node13&#45;&gt;Node5 -->
<g id="edge13_Node000013_Node000005" class="edge">
<title>Node13&#45;&gt;Node5</title>
<g id="a_edge13_Node000013_Node000005"><a xlink:title=" ">
<path fill="none" stroke="#63b8ff" d="M464.33,-137.51C440.21,-131.75 411.91,-124.98 390.21,-119.8"/>
<polygon fill="#63b8ff" stroke="#63b8ff" points="463.84,-140.99 474.38,-139.91 465.47,-134.18 463.84,-140.99"/>
</a>
</g>
</g>
<!-- Node13&#45;&gt;Node12 -->
<g id="edge14_Node000013_Node000012" class="edge">
<title>Node13&#45;&gt;Node12</title>
<g id="a_edge14_Node000013_Node000012"><a xlink:title=" ">
<path fill="none" stroke="#63b8ff" d="M555.18,-160.88C572.59,-163.96 593.12,-166.73 610.66,-168.38"/>
<polygon fill="#63b8ff" stroke="#63b8ff" points="555.81,-157.44 545.34,-159.04 554.52,-164.32 555.81,-157.44"/>
</a>
</g>
</g>
<!-- Node14 -->
<g id="Node000014" class="node">
<title>Node14</title>
<g id="a_Node000014"><a xlink:href="../../d9/dfd/inv_8c.html#ac8b4a13ac42e926c4598b6be4567a827" target="_top" xlink:title="近似逆元计算">
<polygon fill="white" stroke="#666666" points="415.5,-83 293.5,-83 293.5,-64 415.5,-64 415.5,-83"/>
<text text-anchor="middle" x="354.5" y="-71" font-family="Helvetica,sans-Serif" font-size="10.00">lmmp_inv_basecase_</text>
</a>
</g>
</g>
<!-- Node13&#45;&gt;Node14 -->
<g id="edge15_Node000013_Node000014" class="edge">
<title>Node13&#45;&gt;Node14</title>
<g id="a_edge15_Node000013_Node000014"><a xlink:title=" ">
<path fill="none" stroke="#63b8ff" d="M492.67,-134.11C474.05,-121.55 446.22,-104.04 420,-92.5 411.77,-88.88 402.66,-85.72 393.94,-83.07"/>
<polygon fill="#63b8ff" stroke="#63b8ff" points="490.79,-137.07 501.02,-139.84 494.75,-131.29 490.79,-137.07"/>
</a>
</g>
</g>
<!-- Node14&#45;&gt;Node1 -->
<g id="edge17_Node000014_Node000001" class="edge">
<title>Node14&#45;&gt;Node1</title>
<g id="a_edge17_Node000014_Node000001"><a xlink:title=" ">
<path fill="none" stroke="#63b8ff" d="M410.87,-62.06C469.95,-50.87 566.42,-35.5 650.5,-35.5 782.5,-35.5 782.5,-35.5 782.5,-35.5 856.73,-35.5 941.67,-42.11 998.87,-47.53"/>
<polygon fill="#63b8ff" stroke="#63b8ff" points="410.16,-58.64 401,-63.96 411.48,-65.51 410.16,-58.64"/>
</a>
</g>
</g>
<!-- Node14&#45;&gt;Node2 -->
<g id="edge16_Node000014_Node000002" class="edge">
<title>Node14&#45;&gt;Node2</title>
<g id="a_edge16_Node000014_Node000002"><a xlink:title=" ">
<path fill="none" stroke="#63b8ff" d="M426.15,-75.9C542.96,-79.85 773.08,-87.66 870.61,-90.96"/>
<polygon fill="#63b8ff" stroke="#63b8ff" points="426.01,-72.39 415.9,-75.55 425.77,-79.38 426.01,-72.39"/>
</a>
</g>
</g>
<!-- Node16 -->
<g id="Node000016" class="node">
<title>Node16</title>
<g id="a_Node000016"><a xlink:href="../../dd/de3/sqrt_8c.html#ad190ea42b780f8fa43a1f402935b24df" target="_top" xlink:title=" ">
<polygon fill="white" stroke="#666666" points="249,-243 133,-243 133,-224 249,-224 249,-243"/>
<text text-anchor="middle" x="191" y="-231" font-family="Helvetica,sans-Serif" font-size="10.00">lmmp_sqrt_newton_</text>
</a>
</g>
</g>
<!-- Node15&#45;&gt;Node16 -->
<g id="edge20_Node000015_Node000016" class="edge">
<title>Node15&#45;&gt;Node16</title>
<g id="a_edge20_Node000015_Node000016"><a xlink:title=" ">
<path fill="none" stroke="#63b8ff" d="M278.54,-233.5C268.68,-233.5 258.71,-233.5 249.21,-233.5"/>
<polygon fill="#63b8ff" stroke="#63b8ff" points="278.74,-237 288.74,-233.5 278.74,-230 278.74,-237"/>
</a>
</g>
</g>
<!-- Node17 -->
<g id="Node000017" class="node">
<title>Node17</title>
<g id="a_Node000017"><a xlink:href="../../dd/de3/sqrt_8c.html#ae0b4726620c46767b8fa9dd6a2b9ae28" target="_top" xlink:title="大数平方根和取余操作">
<polygon fill="white" stroke="#666666" points="83.5,-224 9.5,-224 9.5,-205 83.5,-205 83.5,-224"/>
<text text-anchor="middle" x="46.5" y="-212" font-family="Helvetica,sans-Serif" font-size="10.00">lmmp_sqrt_</text>
</a>
</g>
</g>
<!-- Node16&#45;&gt;Node17 -->
<g id="edge21_Node000016_Node000017" class="edge">
<title>Node16&#45;&gt;Node17</title>
<g id="a_edge21_Node000016_Node000017"><a xlink:title=" ">
<path fill="none" stroke="#63b8ff" d="M122.66,-224.52C109.24,-222.73 95.63,-220.92 83.75,-219.33"/>
<polygon fill="#63b8ff" stroke="#63b8ff" points="122.49,-228.03 132.86,-225.88 123.41,-221.09 122.49,-228.03"/>
</a>
</g>
</g>
<!-- Node18&#45;&gt;Node15 -->
<g id="edge23_Node000018_Node000015" class="edge">
<title>Node18&#45;&gt;Node15</title>
<g id="a_edge23_Node000018_Node000015"><a xlink:title=" ">
<path fill="none" stroke="#63b8ff" d="M472.56,-198.9C446.06,-206.73 412.34,-216.7 387.9,-223.92"/>
<polygon fill="#63b8ff" stroke="#63b8ff" points="473.73,-202.2 482.32,-196.01 471.74,-195.49 473.73,-202.2"/>
</a>
</g>
</g>
<!-- Node18&#45;&gt;Node17 -->
<g id="edge24_Node000018_Node000017" class="edge">
<title>Node18&#45;&gt;Node17</title>
<g id="a_edge24_Node000018_Node000017"><a xlink:title=" ">
<path fill="none" stroke="#63b8ff" d="M450.25,-190.35C350.74,-196.32 162.62,-207.6 83.74,-212.33"/>
<polygon fill="#63b8ff" stroke="#63b8ff" points="450.7,-193.83 460.47,-189.74 450.28,-186.84 450.7,-193.83"/>
</a>
</g>
</g>
<!-- Node18&#45;&gt;Node18 -->
<g id="edge25_Node000018_Node000018" class="edge">
<title>Node18&#45;&gt;Node18</title>
<g id="a_edge25_Node000018_Node000018"><a xlink:title=" ">
<path fill="none" stroke="#63b8ff" d="M540.8,-205.19C539.42,-210.2 530.99,-214 515.5,-214 491.33,-214 484.34,-204.73 494.54,-196.08"/>
<polygon fill="#63b8ff" stroke="#63b8ff" points="543.92,-203.61 536.46,-196.08 537.6,-206.62 543.92,-203.61"/>
</a>
</g>
</g>
<!-- Node19&#45;&gt;Node19 -->
<g id="edge28_Node000019_Node000019" class="edge">
<title>Node19&#45;&gt;Node19</title>
<g id="a_edge28_Node000019_Node000019"><a xlink:title=" ">
<path fill="none" stroke="#63b8ff" d="M540.8,-299.19C539.42,-304.2 530.99,-308 515.5,-308 491.33,-308 484.34,-298.73 494.54,-290.08"/>
<polygon fill="#63b8ff" stroke="#63b8ff" points="543.92,-297.61 536.46,-290.08 537.6,-300.62 543.92,-297.61"/>
</a>
</g>
</g>
<!-- Node19&#45;&gt;Node20 -->
<g id="edge27_Node000019_Node000020" class="edge">
<title>Node19&#45;&gt;Node20</title>
<g id="a_edge27_Node000019_Node000020"><a xlink:title=" ">
<path fill="none" stroke="#63b8ff" d="M450.28,-291.81C432.12,-295.01 412.86,-298.4 396.48,-301.28"/>
<polygon fill="#63b8ff" stroke="#63b8ff" points="450.98,-295.24 460.23,-290.06 449.77,-288.35 450.98,-295.24"/>
</a>
</g>
</g>
</g>
</svg>
