<?xml version="1.0" encoding="UTF-8" standalone="no"?>
<!DOCTYPE svg PUBLIC "-//W3C//DTD SVG 1.1//EN"
 "http://www.w3.org/Graphics/SVG/1.1/DTD/svg11.dtd">
<!-- Generated by graphviz version 2.43.0 (0)
 -->
<!-- Title: lmmp_addmul_1_ Pages: 1 -->
<!--zoomable 224 -->

<svg id="main" version="1.1" xmlns="http://www.w3.org/2000/svg" xmlns:xlink="http://www.w3.org/1999/xlink" xml:space="preserve" onload="init(evt)">
<style type="text/css"><![CDATA[
.node, .edge {opacity: 0.7;}
.node.selected, .edge.selected {opacity: 1;}
.edge:hover path { stroke: red; }
.edge:hover polygon { stroke: red; fill: red; }
]]></style>

<defs>
  <circle id="rim" cx="0" cy="0" r="7"/>
  <circle id="rim2" cx="0" cy="0" r="3.5"/>
  <g id="zoomPlus">
    <use xlink:href="#rim" fill="#404040"><set attributeName="fill" to="#808080" begin="zoomplus.mouseover" end="zoomplus.mouseout"/></use>
    <path d="M-4,0h8M0,-4v8" fill="none" stroke="white" stroke-width="1.5" pointer-events="none"/>
  </g>
  <g id="zoomMin">
    <use xlink:href="#rim" fill="#404040"><set attributeName="fill" to="#808080" begin="zoomminus.mouseover" end="zoomminus.mouseout"/></use>
    <path d="M-4,0h8" fill="none" stroke="white" stroke-width="1.5" pointer-events="none"/>
  </g>
  <g id="arrowUp" transform="translate(30 24)">
    <use xlink:href="#rim"/>
    <path pointer-events="none" fill="none" stroke="white" stroke-width="1.5" d="M0,-3.0v7 M-2.5,-0.5L0,-3.0L2.5,-0.5"/>
  </g>
  <g id="arrowRight" transform="rotate(90) translate(36 -43)">
    <use xlink:href="#rim"/>
    <path pointer-events="none" fill="none" stroke="white" stroke-width="1.5" d="M0,-3.0v7 M-2.5,-0.5L0,-3.0L2.5,-0.5"/>
  </g>
  <g id="arrowDown" transform="rotate(180) translate(-30 -48)">
    <use xlink:href="#rim"/>
    <path pointer-events="none" fill="none" stroke="white" stroke-width="1.5" d="M0,-3.0v7 M-2.5,-0.5L0,-3.0L2.5,-0.5"/>
  </g>
  <g id="arrowLeft" transform="rotate(270) translate(-36 17)">
    <use xlink:href="#rim"/>
    <path pointer-events="none" fill="none" stroke="white" stroke-width="1.5" d="M0,-3.0v7 M-2.5,-0.5L0,-3.0L2.5,-0.5"/>
  </g>
  <g id="resetDef">
    <use xlink:href="#rim2" fill="#404040"><set attributeName="fill" to="#808080" begin="reset.mouseover" end="reset.mouseout"/></use>
  </g>
</defs>
<script type="application/ecmascript">
var viewWidth = 665;
var viewHeight = 224;
var sectionId = 'dynsection-9';
</script>
<script type="application/ecmascript" xlink:href="../../svg.min.js"/>
<svg id="graph" class="graph">
<g id="viewport">
<title>lmmp_addmul_1_</title>
<!-- Node1 -->
<g id="Node000001" class="node">
<title>Node1</title>
<g id="a_Node000001"><a xlink:title="大数乘以单limb并累加操作 [numa,n] += [numb,n] * b">
<polygon fill="#999999" stroke="#666666" points="657,-139.5 553,-139.5 553,-120.5 657,-120.5 657,-139.5"/>
<text text-anchor="middle" x="605" y="-127.5" font-family="Helvetica,sans-Serif" font-size="10.00">lmmp_addmul_1_</text>
</a>
</g>
</g>
<!-- Node2 -->
<g id="Node000002" class="node">
<title>Node2</title>
<g id="a_Node000002"><a xlink:href="../../df/d18/mul__toom62_8c.html#a16ddf626cc5a87f9fa899b82f3bf8e33" target="_top" xlink:title=" ">
<polygon fill="white" stroke="#666666" points="343,-215.5 226,-215.5 226,-196.5 343,-196.5 343,-215.5"/>
<text text-anchor="middle" x="284.5" y="-203.5" font-family="Helvetica,sans-Serif" font-size="10.00">lmmp_mul_toom62_</text>
</a>
</g>
</g>
<!-- Node1&#45;&gt;Node2 -->
<g id="edge1_Node000001_Node000002" class="edge">
<title>Node1&#45;&gt;Node2</title>
<g id="a_edge1_Node000001_Node000002"><a xlink:title=" ">
<path fill="none" stroke="#63b8ff" d="M576.98,-144.33C560.16,-152.7 537.82,-162.79 517,-169 459.08,-186.28 390.46,-195.96 343.04,-201.05"/>
<polygon fill="#63b8ff" stroke="#63b8ff" points="578.87,-147.3 586.2,-139.65 575.7,-141.06 578.87,-147.3"/>
</a>
</g>
</g>
<!-- Node3 -->
<g id="Node000003" class="node">
<title>Node3</title>
<g id="a_Node000003"><a xlink:href="../../df/d18/mul__toom62_8c.html#a77bb59eb2f556ec65430b1fa53731e82" target="_top" xlink:title=" ">
<polygon fill="white" stroke="#666666" points="360,-178.5 209,-178.5 209,-159.5 360,-159.5 360,-178.5"/>
<text text-anchor="middle" x="284.5" y="-166.5" font-family="Helvetica,sans-Serif" font-size="10.00">lmmp_mul_toom62_cache_</text>
</a>
</g>
</g>
<!-- Node1&#45;&gt;Node3 -->
<g id="edge2_Node000001_Node000003" class="edge">
<title>Node1&#45;&gt;Node3</title>
<g id="a_edge2_Node000001_Node000003"><a xlink:title=" ">
<path fill="none" stroke="#63b8ff" d="M555.09,-141.84C542.72,-144.51 529.42,-147.12 517,-149 464.85,-156.91 405.58,-161.96 360.07,-165"/>
<polygon fill="#63b8ff" stroke="#63b8ff" points="556.22,-145.17 565.22,-139.59 554.7,-138.34 556.22,-145.17"/>
</a>
</g>
</g>
<!-- Node5 -->
<g id="Node000005" class="node">
<title>Node5</title>
<g id="a_Node000005"><a xlink:href="../../df/d18/mul__toom62_8c.html#ae925f984602b8c730f735419c22c183b" target="_top" xlink:title=" ">
<polygon fill="white" stroke="#666666" points="357.5,-30 211.5,-30 211.5,0 357.5,0 357.5,-30"/>
<text text-anchor="start" x="219.5" y="-18" font-family="Helvetica,sans-Serif" font-size="10.00">lmmp_mul_toom62_cache</text>
<text text-anchor="middle" x="284.5" y="-7" font-family="Helvetica,sans-Serif" font-size="10.00">_init_</text>
</a>
</g>
</g>
<!-- Node1&#45;&gt;Node5 -->
<g id="edge4_Node000001_Node000005" class="edge">
<title>Node1&#45;&gt;Node5</title>
<g id="a_edge4_Node000001_Node000005"><a xlink:title=" ">
<path fill="none" stroke="#63b8ff" d="M549.38,-118.2C497,-106.32 422.14,-87.7 396,-73 376.82,-62.21 378.94,-50.21 360,-39 354.27,-35.61 348,-32.64 341.62,-30.05"/>
<polygon fill="#63b8ff" stroke="#63b8ff" points="548.68,-121.63 559.2,-120.41 550.22,-114.8 548.68,-121.63"/>
</a>
</g>
</g>
<!-- Node6 -->
<g id="Node000006" class="node">
<title>Node6</title>
<g id="a_Node000006"><a xlink:href="../../dd/de3/sqrt_8c.html#ae0b4726620c46767b8fa9dd6a2b9ae28" target="_top" xlink:title="大数平方根和取余操作">
<polygon fill="white" stroke="#666666" points="493.5,-63.5 419.5,-63.5 419.5,-44.5 493.5,-44.5 493.5,-63.5"/>
<text text-anchor="middle" x="456.5" y="-51.5" font-family="Helvetica,sans-Serif" font-size="10.00">lmmp_sqrt_</text>
</a>
</g>
</g>
<!-- Node1&#45;&gt;Node6 -->
<g id="edge6_Node000001_Node000006" class="edge">
<title>Node1&#45;&gt;Node6</title>
<g id="a_edge6_Node000001_Node000006"><a xlink:title=" ">
<path fill="none" stroke="#63b8ff" d="M580.83,-114.8C563.61,-103.85 539.34,-89.1 517,-78 506.33,-72.7 494.18,-67.63 483.66,-63.54"/>
<polygon fill="#63b8ff" stroke="#63b8ff" points="579.31,-117.99 589.61,-120.45 583.1,-112.1 579.31,-117.99"/>
</a>
</g>
</g>
<!-- Node7 -->
<g id="Node000007" class="node">
<title>Node7</title>
<g id="a_Node000007"><a xlink:href="../../d3/d50/mul__toom__interp7_8c.html#ac98c4398ab96bdf8294b73757bcc8e38" target="_top" xlink:title="Toom插值计算（7点插值）：用于Toom&#45;44、Toom&#45;53、Toom&#45;62 乘法算法">
<polygon fill="white" stroke="#666666" points="517,-139.5 396,-139.5 396,-120.5 517,-120.5 517,-139.5"/>
<text text-anchor="middle" x="456.5" y="-127.5" font-family="Helvetica,sans-Serif" font-size="10.00">lmmp_toom_interp7_</text>
</a>
</g>
</g>
<!-- Node1&#45;&gt;Node7 -->
<g id="edge7_Node000001_Node000007" class="edge">
<title>Node1&#45;&gt;Node7</title>
<g id="a_edge7_Node000001_Node000007"><a xlink:title=" ">
<path fill="none" stroke="#63b8ff" d="M542.65,-130C534.24,-130 525.62,-130 517.25,-130"/>
<polygon fill="#63b8ff" stroke="#63b8ff" points="542.76,-133.5 552.76,-130 542.76,-126.5 542.76,-133.5"/>
</a>
</g>
</g>
<!-- Node4 -->
<g id="Node000004" class="node">
<title>Node4</title>
<g id="a_Node000004"><a xlink:href="../../df/d18/mul__toom62_8c.html#aa79b2cbdf2b098e975b7a90d02c4e3f4" target="_top" xlink:title=" ">
<polygon fill="white" stroke="#666666" points="173,-101.5 0,-101.5 0,-82.5 173,-82.5 173,-101.5"/>
<text text-anchor="middle" x="86.5" y="-89.5" font-family="Helvetica,sans-Serif" font-size="10.00">lmmp_mul_toom62_unbalance_</text>
</a>
</g>
</g>
<!-- Node3&#45;&gt;Node4 -->
<g id="edge3_Node000003_Node000004" class="edge">
<title>Node3&#45;&gt;Node4</title>
<g id="a_edge3_Node000003_Node000004"><a xlink:title=" ">
<path fill="none" stroke="#63b8ff" d="M227.48,-156.85C221.19,-155.08 214.92,-153.12 209,-151 170.16,-137.06 127.29,-114.4 104.3,-101.6"/>
<polygon fill="#63b8ff" stroke="#63b8ff" points="226.77,-160.28 237.34,-159.49 228.58,-153.52 226.77,-160.28"/>
</a>
</g>
</g>
<!-- Node5&#45;&gt;Node4 -->
<g id="edge5_Node000005_Node000004" class="edge">
<title>Node5&#45;&gt;Node4</title>
<g id="a_edge5_Node000005_Node000004"><a xlink:title=" ">
<path fill="none" stroke="#63b8ff" d="M224.75,-33.32C219.4,-35.17 214.08,-37.08 209,-39 172.84,-52.67 131.81,-71.23 107.88,-82.36"/>
<polygon fill="#63b8ff" stroke="#63b8ff" points="226.02,-36.58 234.37,-30.06 223.77,-29.95 226.02,-36.58"/>
</a>
</g>
</g>
<!-- Node7&#45;&gt;Node2 -->
<g id="edge10_Node000007_Node000002" class="edge">
<title>Node7&#45;&gt;Node2</title>
<g id="a_edge10_Node000007_Node000002"><a xlink:title=" ">
<path fill="none" stroke="#63b8ff" d="M434.24,-145.56C415.53,-158.59 387.12,-176.81 360,-188 352.01,-191.3 343.27,-194.08 334.68,-196.4"/>
<polygon fill="#63b8ff" stroke="#63b8ff" points="436.46,-148.28 442.6,-139.64 432.41,-142.57 436.46,-148.28"/>
</a>
</g>
</g>
<!-- Node7&#45;&gt;Node3 -->
<g id="edge11_Node000007_Node000003" class="edge">
<title>Node7&#45;&gt;Node3</title>
<g id="a_edge11_Node000007_Node000003"><a xlink:title=" ">
<path fill="none" stroke="#63b8ff" d="M404,-141.82C379.32,-147.48 350.17,-154.16 326.95,-159.49"/>
<polygon fill="#63b8ff" stroke="#63b8ff" points="404.95,-145.19 413.91,-139.54 403.38,-138.37 404.95,-145.19"/>
</a>
</g>
</g>
<!-- Node7&#45;&gt;Node5 -->
<g id="edge12_Node000007_Node000005" class="edge">
<title>Node7&#45;&gt;Node5</title>
<g id="a_edge12_Node000007_Node000005"><a xlink:title=" ">
<path fill="none" stroke="#63b8ff" d="M410.94,-116.12C405.56,-113.3 400.41,-109.95 396,-106 370.82,-83.44 385.97,-60.64 360,-39 355.93,-35.61 351.37,-32.69 346.56,-30.19"/>
<polygon fill="#63b8ff" stroke="#63b8ff" points="409.6,-119.35 420.14,-120.38 412.54,-113 409.6,-119.35"/>
</a>
</g>
</g>
<!-- Node8 -->
<g id="Node000008" class="node">
<title>Node8</title>
<g id="a_Node000008"><a xlink:href="../../df/d32/mul__toom44_8c.html#a4a99958cb80a78e2b391c0e5d56b277d" target="_top" xlink:title=" ">
<polygon fill="white" stroke="#666666" points="343,-141.5 226,-141.5 226,-122.5 343,-122.5 343,-141.5"/>
<text text-anchor="middle" x="284.5" y="-129.5" font-family="Helvetica,sans-Serif" font-size="10.00">lmmp_mul_toom44_</text>
</a>
</g>
</g>
<!-- Node7&#45;&gt;Node8 -->
<g id="edge8_Node000007_Node000008" class="edge">
<title>Node7&#45;&gt;Node8</title>
<g id="a_edge8_Node000007_Node000008"><a xlink:title=" ">
<path fill="none" stroke="#63b8ff" d="M385.45,-130.82C371.39,-130.99 356.76,-131.16 343.18,-131.32"/>
<polygon fill="#63b8ff" stroke="#63b8ff" points="385.61,-134.32 395.56,-130.71 385.52,-127.32 385.61,-134.32"/>
</a>
</g>
</g>
<!-- Node9 -->
<g id="Node000009" class="node">
<title>Node9</title>
<g id="a_Node000009"><a xlink:href="../../d1/d29/mul__toom53_8c.html#a1343e525e4b4e9ccb2d898d41b420d7d" target="_top" xlink:title=" ">
<polygon fill="white" stroke="#666666" points="343,-104.5 226,-104.5 226,-85.5 343,-85.5 343,-104.5"/>
<text text-anchor="middle" x="284.5" y="-92.5" font-family="Helvetica,sans-Serif" font-size="10.00">lmmp_mul_toom53_</text>
</a>
</g>
</g>
<!-- Node7&#45;&gt;Node9 -->
<g id="edge9_Node000007_Node000009" class="edge">
<title>Node7&#45;&gt;Node9</title>
<g id="a_edge9_Node000007_Node000009"><a xlink:title=" ">
<path fill="none" stroke="#63b8ff" d="M399.24,-118.42C377.4,-113.92 352.69,-108.83 331.9,-104.55"/>
<polygon fill="#63b8ff" stroke="#63b8ff" points="398.55,-121.85 409.05,-120.44 399.96,-114.99 398.55,-121.85"/>
</a>
</g>
</g>
<!-- Node10 -->
<g id="Node000010" class="node">
<title>Node10</title>
<g id="a_Node000010"><a xlink:href="../../dd/d32/sqr__toom4_8c.html#ac4778f4604ea4b584d79b6f9b2674c7b" target="_top" xlink:title=" ">
<polygon fill="white" stroke="#666666" points="338,-67.5 231,-67.5 231,-48.5 338,-48.5 338,-67.5"/>
<text text-anchor="middle" x="284.5" y="-55.5" font-family="Helvetica,sans-Serif" font-size="10.00">lmmp_sqr_toom4_</text>
</a>
</g>
</g>
<!-- Node7&#45;&gt;Node10 -->
<g id="edge13_Node000007_Node000010" class="edge">
<title>Node7&#45;&gt;Node10</title>
<g id="a_edge13_Node000007_Node000010"><a xlink:title=" ">
<path fill="none" stroke="#63b8ff" d="M417.17,-116.48C409.95,-113.4 402.6,-109.88 396,-106 378.28,-95.6 378.37,-86.19 360,-77 352.36,-73.18 343.88,-70.08 335.47,-67.58"/>
<polygon fill="#63b8ff" stroke="#63b8ff" points="416.26,-119.89 426.85,-120.41 418.89,-113.41 416.26,-119.89"/>
</a>
</g>
</g>
</g>
</svg>

<g id="navigator" transform="translate(0 0)" fill="#404254">
  <rect fill="#f2f5e9" fill-opacity="0.5" stroke="#606060" stroke-width=".5" x="0" y="0" width="60" height="60"/>
  <use id="zoomplus" xlink:href="#zoomPlus" x="17" y="9" onmousedown="handleZoom(evt,'in')"/>
  <use id="zoomminus" xlink:href="#zoomMin" x="42" y="9" onmousedown="handleZoom(evt,'out')"/>
  <use id="reset" xlink:href="#resetDef" x="30" y="36" onmousedown="handleReset()"/>
   <use id="arrowup" xlink:href="#arrowUp" x="0" y="0" onmousedown="handlePan(0,-1)"/>
  <use id="arrowright" xlink:href="#arrowRight" x="0" y="0" onmousedown="handlePan(1,0)"/>
  <use id="arrowdown" xlink:href="#arrowDown" x="0" y="0" onmousedown="handlePan(0,1)"/>
  <use id="arrowleft" xlink:href="#arrowLeft" x="0" y="0" onmousedown="handlePan(-1,0)"/>
</g>
<svg viewBox="0 0 15 15" width="100%" height="30px" preserveAspectRatio="xMaxYMin meet">
 <g id="arrow_out" transform="scale(0.3 0.3)">
  <a xlink:href="lmmpn_8h_ac665827dbfcf2cb4f0c7de1734d4f0d2_icgraph_org.svg" target="_base">
   <rect id="button" ry="5" rx="5" y="6" x="6" height="38" width="38"
        fill="#f2f5e9" fill-opacity="0.5" stroke="#606060" stroke-width="1.0"/>
   <path id="arrow"
     d="M 11.500037,31.436501 C 11.940474,20.09759 22.043105,11.32322 32.158766,21.979434 L 37.068811,17.246167 C 37.068811,17.246167 37.088388,32 37.088388,32 L 22.160133,31.978069 C 22.160133,31.978069 26.997745,27.140456 26.997745,27.140456 C 18.528582,18.264221 13.291696,25.230495 11.500037,31.436501 z"
     style="fill:#404040;"/>
  </a>
 </g>
</svg>

<style type='text/css'>
<![CDATA[
[data-mouse-over-selected='false'] { opacity: 0.7; }
[data-mouse-over-selected='true']  { opacity: 1.0; }
]]>
</style>
<script type="application/ecmascript"><![CDATA[
document.addEventListener('DOMContentLoaded', (event) => {
  highlightEdges();
  highlightAdjacentNodes();
});
]]></script>
</svg>
