<?xml version="1.0" encoding="UTF-8" standalone="no"?>
<!DOCTYPE svg PUBLIC "-//W3C//DTD SVG 1.1//EN"
 "http://www.w3.org/Graphics/SVG/1.1/DTD/svg11.dtd">
<!-- Generated by graphviz version 2.43.0 (0)
 -->
<!-- Title: lmmp_add_n_sub_n_ Pages: 1 -->
<!--zoomable 565 -->

<svg id="main" version="1.1" xmlns="http://www.w3.org/2000/svg" xmlns:xlink="http://www.w3.org/1999/xlink" xml:space="preserve" onload="init(evt)">
<style type="text/css"><![CDATA[
.node, .edge {opacity: 0.7;}
.node.selected, .edge.selected {opacity: 1;}
.edge:hover path { stroke: red; }
.edge:hover polygon { stroke: red; fill: red; }
]]></style>

<defs>
  <circle id="rim" cx="0" cy="0" r="7"/>
  <circle id="rim2" cx="0" cy="0" r="3.5"/>
  <g id="zoomPlus">
    <use xlink:href="#rim" fill="#404040"><set attributeName="fill" to="#808080" begin="zoomplus.mouseover" end="zoomplus.mouseout"/></use>
    <path d="M-4,0h8M0,-4v8" fill="none" stroke="white" stroke-width="1.5" pointer-events="none"/>
  </g>
  <g id="zoomMin">
    <use xlink:href="#rim" fill="#404040"><set attributeName="fill" to="#808080" begin="zoomminus.mouseover" end="zoomminus.mouseout"/></use>
    <path d="M-4,0h8" fill="none" stroke="white" stroke-width="1.5" pointer-events="none"/>
  </g>
  <g id="arrowUp" transform="translate(30 24)">
    <use xlink:href="#rim"/>
    <path pointer-events="none" fill="none" stroke="white" stroke-width="1.5" d="M0,-3.0v7 M-2.5,-0.5L0,-3.0L2.5,-0.5"/>
  </g>
  <g id="arrowRight" transform="rotate(90) translate(36 -43)">
    <use xlink:href="#rim"/>
    <path pointer-events="none" fill="none" stroke="white" stroke-width="1.5" d="M0,-3.0v7 M-2.5,-0.5L0,-3.0L2.5,-0.5"/>
  </g>
  <g id="arrowDown" transform="rotate(180) translate(-30 -48)">
    <use xlink:href="#rim"/>
    <path pointer-events="none" fill="none" stroke="white" stroke-width="1.5" d="M0,-3.0v7 M-2.5,-0.5L0,-3.0L2.5,-0.5"/>
  </g>
  <g id="arrowLeft" transform="rotate(270) translate(-36 17)">
    <use xlink:href="#rim"/>
    <path pointer-events="none" fill="none" stroke="white" stroke-width="1.5" d="M0,-3.0v7 M-2.5,-0.5L0,-3.0L2.5,-0.5"/>
  </g>
  <g id="resetDef">
    <use xlink:href="#rim2" fill="#404040"><set attributeName="fill" to="#808080" begin="reset.mouseover" end="reset.mouseout"/></use>
  </g>
</defs>
<script type="application/ecmascript">
var viewWidth = 742;
var viewHeight = 565;
var sectionId = 'dynsection-7';
</script>
<script type="application/ecmascript" xlink:href="../../svg.min.js"/>
<svg id="graph" class="graph">
<g id="viewport">
<title>lmmp_add_n_sub_n_</title>
<!-- Node1 -->
<g id="Node000001" class="node">
<title>Node1</title>
<g id="a_Node000001"><a xlink:title="同时执行n位加法和减法 ([dsta,n],[dstb,n]) = ([numa,n]+[numb,n],[numa,n]&#45;[numb,n])">
<polygon fill="#999999" stroke="#666666" points="734,-284 615,-284 615,-265 734,-265 734,-284"/>
<text text-anchor="middle" x="674.5" y="-272" font-family="Helvetica,sans-Serif" font-size="10.00">lmmp_add_n_sub_n_</text>
</a>
</g>
</g>
<!-- Node2 -->
<g id="Node000002" class="node">
<title>Node2</title>
<g id="a_Node000002"><a xlink:href="../../d4/d6a/mul__toom32_8c.html#abfccccebf9165652a90994eb257c758f" target="_top" xlink:title=" ">
<polygon fill="white" stroke="#666666" points="557,-557 440,-557 440,-538 557,-538 557,-557"/>
<text text-anchor="middle" x="498.5" y="-545" font-family="Helvetica,sans-Serif" font-size="10.00">lmmp_mul_toom32_</text>
</a>
</g>
</g>
<!-- Node1&#45;&gt;Node2 -->
<g id="edge1_Node000001_Node000002" class="edge">
<title>Node1&#45;&gt;Node2</title>
<g id="a_edge1_Node000001_Node000002"><a xlink:title=" ">
<path fill="none" stroke="#63b8ff" d="M672.34,-294.17C668.39,-342.19 651.34,-466.15 579,-529.5 572.72,-535 565.11,-538.92 557.12,-541.7"/>
<polygon fill="#63b8ff" stroke="#63b8ff" points="675.83,-294.37 673.05,-284.15 668.85,-293.87 675.83,-294.37"/>
</a>
</g>
</g>
<!-- Node3 -->
<g id="Node000003" class="node">
<title>Node3</title>
<g id="a_Node000003"><a xlink:href="../../de/d4d/mul__toom33_8c.html#ab6ead21a9ce3278c0de9d25545d9f31d" target="_top" xlink:title=" ">
<polygon fill="white" stroke="#666666" points="557,-520 440,-520 440,-501 557,-501 557,-520"/>
<text text-anchor="middle" x="498.5" y="-508" font-family="Helvetica,sans-Serif" font-size="10.00">lmmp_mul_toom33_</text>
</a>
</g>
</g>
<!-- Node1&#45;&gt;Node3 -->
<g id="edge2_Node000001_Node000003" class="edge">
<title>Node1&#45;&gt;Node3</title>
<g id="a_edge2_Node000001_Node000003"><a xlink:title=" ">
<path fill="none" stroke="#63b8ff" d="M670.95,-294.19C664.29,-337.23 642.26,-440.06 579,-492.5 572.68,-497.74 565.14,-501.53 557.27,-504.25"/>
<polygon fill="#63b8ff" stroke="#63b8ff" points="674.43,-294.55 672.39,-284.16 667.5,-293.56 674.43,-294.55"/>
</a>
</g>
</g>
<!-- Node4 -->
<g id="Node000004" class="node">
<title>Node4</title>
<g id="a_Node000004"><a xlink:href="../../d0/de5/mul__toom42_8c.html#a53c7b72024324dba1d4a952b3c59d689" target="_top" xlink:title=" ">
<polygon fill="white" stroke="#666666" points="557,-483 440,-483 440,-464 557,-464 557,-483"/>
<text text-anchor="middle" x="498.5" y="-471" font-family="Helvetica,sans-Serif" font-size="10.00">lmmp_mul_toom42_</text>
</a>
</g>
</g>
<!-- Node1&#45;&gt;Node4 -->
<g id="edge3_Node000001_Node000004" class="edge">
<title>Node1&#45;&gt;Node4</title>
<g id="a_edge3_Node000001_Node000004"><a xlink:title=" ">
<path fill="none" stroke="#63b8ff" d="M668.92,-294.22C659.19,-331.58 632.78,-412.68 579,-454.5 572.61,-459.47 565.13,-463.16 557.36,-465.91"/>
<polygon fill="#63b8ff" stroke="#63b8ff" points="672.42,-294.67 671.42,-284.12 665.62,-292.99 672.42,-294.67"/>
</a>
</g>
</g>
<!-- Node5 -->
<g id="Node000005" class="node">
<title>Node5</title>
<g id="a_Node000005"><a xlink:href="../../d0/de5/mul__toom42_8c.html#a6a0c45b8d6687ad0e75da7156dc1dd7d" target="_top" xlink:title=" ">
<polygon fill="white" stroke="#666666" points="574,-397 423,-397 423,-378 574,-378 574,-397"/>
<text text-anchor="middle" x="498.5" y="-385" font-family="Helvetica,sans-Serif" font-size="10.00">lmmp_mul_toom42_cache_</text>
</a>
</g>
</g>
<!-- Node1&#45;&gt;Node5 -->
<g id="edge4_Node000001_Node000005" class="edge">
<title>Node1&#45;&gt;Node5</title>
<g id="a_edge4_Node000001_Node000005"><a xlink:title=" ">
<path fill="none" stroke="#63b8ff" d="M659.56,-291.79C642.55,-311.8 611.95,-344.45 579,-363.5 568.39,-369.63 556.06,-374.34 544.33,-377.89"/>
<polygon fill="#63b8ff" stroke="#63b8ff" points="662.29,-293.99 665.99,-284.06 656.9,-289.51 662.29,-293.99"/>
</a>
</g>
</g>
<!-- Node7 -->
<g id="Node000007" class="node">
<title>Node7</title>
<g id="a_Node000007"><a xlink:href="../../d0/de5/mul__toom42_8c.html#a7b31e05a88a3c9b904fb9edfe3ac6804" target="_top" xlink:title=" ">
<polygon fill="white" stroke="#666666" points="571.5,-445.5 425.5,-445.5 425.5,-415.5 571.5,-415.5 571.5,-445.5"/>
<text text-anchor="start" x="433.5" y="-433.5" font-family="Helvetica,sans-Serif" font-size="10.00">lmmp_mul_toom42_cache</text>
<text text-anchor="middle" x="498.5" y="-422.5" font-family="Helvetica,sans-Serif" font-size="10.00">_init_</text>
</a>
</g>
</g>
<!-- Node1&#45;&gt;Node7 -->
<g id="edge6_Node000001_Node000007" class="edge">
<title>Node1&#45;&gt;Node7</title>
<g id="a_edge6_Node000001_Node000007"><a xlink:title=" ">
<path fill="none" stroke="#63b8ff" d="M664.96,-293.45C651.07,-322.18 620.84,-376.55 579,-406.5 574.19,-409.94 568.89,-412.9 563.37,-415.43"/>
<polygon fill="#63b8ff" stroke="#63b8ff" points="668.26,-294.66 669.34,-284.12 661.92,-291.69 668.26,-294.66"/>
</a>
</g>
</g>
<!-- Node8 -->
<g id="Node000008" class="node">
<title>Node8</title>
<g id="a_Node000008"><a xlink:href="../../d6/d0e/mul__toom43_8c.html#a93d041d8a21bcd8ada7bd30d9ebdb466" target="_top" xlink:title=" ">
<polygon fill="white" stroke="#666666" points="354,-358 237,-358 237,-339 354,-339 354,-358"/>
<text text-anchor="middle" x="295.5" y="-346" font-family="Helvetica,sans-Serif" font-size="10.00">lmmp_mul_toom43_</text>
</a>
</g>
</g>
<!-- Node1&#45;&gt;Node8 -->
<g id="edge8_Node000001_Node000008" class="edge">
<title>Node1&#45;&gt;Node8</title>
<g id="a_edge8_Node000001_Node000008"><a xlink:title=" ">
<path fill="none" stroke="#63b8ff" d="M653.45,-290.23C635.18,-303.58 606.88,-321.9 579,-330.5 503.86,-353.68 412.3,-354.92 354.19,-352.59"/>
<polygon fill="#63b8ff" stroke="#63b8ff" points="655.66,-292.94 661.56,-284.14 651.46,-287.34 655.66,-292.94"/>
</a>
</g>
</g>
<!-- Node9 -->
<g id="Node000009" class="node">
<title>Node9</title>
<g id="a_Node000009"><a xlink:href="../../d9/d32/mul__toom52_8c.html#a6e486c83153cc33617f91c3a1ea7b3ff" target="_top" xlink:title=" ">
<polygon fill="white" stroke="#666666" points="354,-194 237,-194 237,-175 354,-175 354,-194"/>
<text text-anchor="middle" x="295.5" y="-182" font-family="Helvetica,sans-Serif" font-size="10.00">lmmp_mul_toom52_</text>
</a>
</g>
</g>
<!-- Node1&#45;&gt;Node9 -->
<g id="edge9_Node000001_Node000009" class="edge">
<title>Node1&#45;&gt;Node9</title>
<g id="a_edge9_Node000001_Node000009"><a xlink:title=" ">
<path fill="none" stroke="#63b8ff" d="M647.65,-260.1C629.08,-250.35 603.16,-237.93 579,-230.5 503.13,-207.15 411.94,-195.03 354.1,-189.22"/>
<polygon fill="#63b8ff" stroke="#63b8ff" points="646.18,-263.28 656.65,-264.92 649.48,-257.11 646.18,-263.28"/>
</a>
</g>
</g>
<!-- Node10 -->
<g id="Node000010" class="node">
<title>Node10</title>
<g id="a_Node000010"><a xlink:href="../../d1/d29/mul__toom53_8c.html#a1343e525e4b4e9ccb2d898d41b420d7d" target="_top" xlink:title=" ">
<polygon fill="white" stroke="#666666" points="354,-231 237,-231 237,-212 354,-212 354,-231"/>
<text text-anchor="middle" x="295.5" y="-219" font-family="Helvetica,sans-Serif" font-size="10.00">lmmp_mul_toom53_</text>
</a>
</g>
</g>
<!-- Node1&#45;&gt;Node10 -->
<g id="edge10_Node000001_Node000010" class="edge">
<title>Node1&#45;&gt;Node10</title>
<g id="a_edge10_Node000001_Node000010"><a xlink:title=" ">
<path fill="none" stroke="#63b8ff" d="M616.35,-263C604.06,-260.69 591.12,-258.4 579,-256.5 501.37,-244.31 411.2,-233.76 354.01,-227.52"/>
<polygon fill="#63b8ff" stroke="#63b8ff" points="616.02,-266.5 626.5,-264.92 617.33,-259.62 616.02,-266.5"/>
</a>
</g>
</g>
<!-- Node11 -->
<g id="Node000011" class="node">
<title>Node11</title>
<g id="a_Node000011"><a xlink:href="../../df/d18/mul__toom62_8c.html#a16ddf626cc5a87f9fa899b82f3bf8e33" target="_top" xlink:title=" ">
<polygon fill="white" stroke="#666666" points="354,-71 237,-71 237,-52 354,-52 354,-71"/>
<text text-anchor="middle" x="295.5" y="-59" font-family="Helvetica,sans-Serif" font-size="10.00">lmmp_mul_toom62_</text>
</a>
</g>
</g>
<!-- Node1&#45;&gt;Node11 -->
<g id="edge11_Node000001_Node000011" class="edge">
<title>Node1&#45;&gt;Node11</title>
<g id="a_edge11_Node000001_Node000011"><a xlink:title=" ">
<path fill="none" stroke="#63b8ff" d="M670.92,-254.64C664.31,-212.76 642.53,-115.75 579,-73.5 503.79,-23.48 390.75,-39.17 333.12,-51.94"/>
<polygon fill="#63b8ff" stroke="#63b8ff" points="667.48,-255.3 672.38,-264.69 674.41,-254.29 667.48,-255.3"/>
</a>
</g>
</g>
<!-- Node12 -->
<g id="Node000012" class="node">
<title>Node12</title>
<g id="a_Node000012"><a xlink:href="../../df/d18/mul__toom62_8c.html#ae925f984602b8c730f735419c22c183b" target="_top" xlink:title=" ">
<polygon fill="white" stroke="#666666" points="368.5,-119.5 222.5,-119.5 222.5,-89.5 368.5,-89.5 368.5,-119.5"/>
<text text-anchor="start" x="230.5" y="-107.5" font-family="Helvetica,sans-Serif" font-size="10.00">lmmp_mul_toom62_cache</text>
<text text-anchor="middle" x="295.5" y="-96.5" font-family="Helvetica,sans-Serif" font-size="10.00">_init_</text>
</a>
</g>
</g>
<!-- Node1&#45;&gt;Node12 -->
<g id="edge12_Node000001_Node000012" class="edge">
<title>Node1&#45;&gt;Node12</title>
<g id="a_edge12_Node000001_Node000012"><a xlink:title=" ">
<path fill="none" stroke="#63b8ff" d="M669.31,-254.83C660.23,-217.79 634.91,-138.43 579,-105.5 508.85,-64.18 410.89,-76.03 350.69,-89.46"/>
<polygon fill="#63b8ff" stroke="#63b8ff" points="665.97,-255.91 671.62,-264.87 672.79,-254.34 665.97,-255.91"/>
</a>
</g>
</g>
<!-- Node14 -->
<g id="Node000014" class="node">
<title>Node14</title>
<g id="a_Node000014"><a xlink:href="../../d0/de3/sqr__toom3_8c.html#aee6506e602bb62291d5374741bb9de94" target="_top" xlink:title=" ">
<polygon fill="white" stroke="#666666" points="552,-19 445,-19 445,0 552,0 552,-19"/>
<text text-anchor="middle" x="498.5" y="-7" font-family="Helvetica,sans-Serif" font-size="10.00">lmmp_sqr_toom3_</text>
</a>
</g>
</g>
<!-- Node1&#45;&gt;Node14 -->
<g id="edge14_Node000001_Node000014" class="edge">
<title>Node1&#45;&gt;Node14</title>
<g id="a_edge14_Node000001_Node000014"><a xlink:title=" ">
<path fill="none" stroke="#63b8ff" d="M671.48,-254.37C665.78,-208.35 645.38,-94.74 579,-33.5 571.48,-26.56 562.01,-21.62 552.26,-18.11"/>
<polygon fill="#63b8ff" stroke="#63b8ff" points="668.03,-254.99 672.63,-264.54 674.98,-254.21 668.03,-254.99"/>
</a>
</g>
</g>
<!-- Node15 -->
<g id="Node000015" class="node">
<title>Node15</title>
<g id="a_Node000015"><a xlink:href="../../d1/d0a/mul__toom__eval_8c.html#af98b9b08c790968117333768ab32372a" target="_top" xlink:title="Toom&#45;3 专用：3次多项式在 x = +1 和 x = &#45;1 处求值 计算 P(+1) 和 P(&#45;1)，其中 P(x) 是一个3次多项式（4段系数）。">
<polygon fill="white" stroke="#666666" points="579,-284 418,-284 418,-265 579,-265 579,-284"/>
<text text-anchor="middle" x="498.5" y="-272" font-family="Helvetica,sans-Serif" font-size="10.00">lmmp_toom_eval_dgr3_pm1_</text>
</a>
</g>
</g>
<!-- Node1&#45;&gt;Node15 -->
<g id="edge15_Node000001_Node000015" class="edge">
<title>Node1&#45;&gt;Node15</title>
<g id="a_edge15_Node000001_Node000015"><a xlink:title=" ">
<path fill="none" stroke="#63b8ff" d="M604.51,-274.5C596.14,-274.5 587.53,-274.5 579.02,-274.5"/>
<polygon fill="#63b8ff" stroke="#63b8ff" points="604.59,-278 614.59,-274.5 604.59,-271 604.59,-278"/>
</a>
</g>
</g>
<!-- Node18 -->
<g id="Node000018" class="node">
<title>Node18</title>
<g id="a_Node000018"><a xlink:href="../../d1/d0a/mul__toom__eval_8c.html#af0a96e41664eba816be8cf105824a32a" target="_top" xlink:title="Toom&#45;3 专用：3次多项式在 x = +2 和 x = &#45;2 处求值 计算 P(+2) 和 P(&#45;2)，其中 P(x) 是一个3次多项式（4段系数）。">
<polygon fill="white" stroke="#666666" points="579,-321 418,-321 418,-302 579,-302 579,-321"/>
<text text-anchor="middle" x="498.5" y="-309" font-family="Helvetica,sans-Serif" font-size="10.00">lmmp_toom_eval_dgr3_pm2_</text>
</a>
</g>
</g>
<!-- Node1&#45;&gt;Node18 -->
<g id="edge19_Node000001_Node000018" class="edge">
<title>Node1&#45;&gt;Node18</title>
<g id="a_edge19_Node000001_Node000018"><a xlink:title=" ">
<path fill="none" stroke="#63b8ff" d="M618.7,-286.15C594.8,-291.23 567.13,-297.12 544.46,-301.94"/>
<polygon fill="#63b8ff" stroke="#63b8ff" points="619.64,-289.53 628.69,-284.03 618.18,-282.68 619.64,-289.53"/>
</a>
</g>
</g>
<!-- Node19 -->
<g id="Node000019" class="node">
<title>Node19</title>
<g id="a_Node000019"><a xlink:href="../../d1/d0a/mul__toom__eval_8c.html#ad5101b25e1eb55014d6a66e6376eb797" target="_top" xlink:title="通用高阶 Toom 求值：k次多项式在 x = +1 和 x = &#45;1 处求值">
<polygon fill="white" stroke="#666666" points="565.5,-170 431.5,-170 431.5,-151 565.5,-151 565.5,-170"/>
<text text-anchor="middle" x="498.5" y="-158" font-family="Helvetica,sans-Serif" font-size="10.00">lmmp_toom_eval_pm1_</text>
</a>
</g>
</g>
<!-- Node1&#45;&gt;Node19 -->
<g id="edge23_Node000001_Node000019" class="edge">
<title>Node1&#45;&gt;Node19</title>
<g id="a_edge23_Node000001_Node000019"><a xlink:title=" ">
<path fill="none" stroke="#63b8ff" d="M659.6,-257.01C642.63,-236.76 612.07,-203.75 579,-184.5 568.41,-178.34 556.09,-173.62 544.35,-170.07"/>
<polygon fill="#63b8ff" stroke="#63b8ff" points="656.97,-259.31 666.01,-264.83 662.38,-254.88 656.97,-259.31"/>
</a>
</g>
</g>
<!-- Node21 -->
<g id="Node000021" class="node">
<title>Node21</title>
<g id="a_Node000021"><a xlink:href="../../d1/d0a/mul__toom__eval_8c.html#a4ebbdc3171082a4955bb5049a0b4b50a" target="_top" xlink:title="通用高阶 Toom 求值：k次多项式在 x = +2 和 x = &#45;2 处求值">
<polygon fill="white" stroke="#666666" points="565.5,-133 431.5,-133 431.5,-114 565.5,-114 565.5,-133"/>
<text text-anchor="middle" x="498.5" y="-121" font-family="Helvetica,sans-Serif" font-size="10.00">lmmp_toom_eval_pm2_</text>
</a>
</g>
</g>
<!-- Node1&#45;&gt;Node21 -->
<g id="edge30_Node000001_Node000021" class="edge">
<title>Node1&#45;&gt;Node21</title>
<g id="a_edge30_Node000001_Node000021"><a xlink:title=" ">
<path fill="none" stroke="#63b8ff" d="M665.18,-255.24C651.56,-226.11 621.7,-171.22 579,-142.5 573.23,-138.62 566.76,-135.53 560.06,-133.07"/>
<polygon fill="#63b8ff" stroke="#63b8ff" points="662.15,-257.04 669.45,-264.71 668.53,-254.16 662.15,-257.04"/>
</a>
</g>
</g>
<!-- Node6 -->
<g id="Node000006" class="node">
<title>Node6</title>
<g id="a_Node000006"><a xlink:href="../../d0/de5/mul__toom42_8c.html#a8c86ba69ee0658ecf28793a92f6ef0c9" target="_top" xlink:title=" ">
<polygon fill="white" stroke="#666666" points="382,-418 209,-418 209,-399 382,-399 382,-418"/>
<text text-anchor="middle" x="295.5" y="-406" font-family="Helvetica,sans-Serif" font-size="10.00">lmmp_mul_toom42_unbalance_</text>
</a>
</g>
</g>
<!-- Node5&#45;&gt;Node6 -->
<g id="edge5_Node000005_Node000006" class="edge">
<title>Node5&#45;&gt;Node6</title>
<g id="a_edge5_Node000005_Node000006"><a xlink:title=" ">
<path fill="none" stroke="#63b8ff" d="M412.86,-396.34C402.7,-397.4 392.31,-398.49 382.13,-399.55"/>
<polygon fill="#63b8ff" stroke="#63b8ff" points="413.36,-399.81 422.94,-395.29 412.63,-392.85 413.36,-399.81"/>
</a>
</g>
</g>
<!-- Node7&#45;&gt;Node6 -->
<g id="edge7_Node000007_Node000006" class="edge">
<title>Node7&#45;&gt;Node6</title>
<g id="a_edge7_Node000007_Node000006"><a xlink:title=" ">
<path fill="none" stroke="#63b8ff" d="M414.96,-421.47C404.14,-420.28 393.04,-419.07 382.18,-417.88"/>
<polygon fill="#63b8ff" stroke="#63b8ff" points="414.9,-424.98 425.22,-422.59 415.66,-418.02 414.9,-424.98"/>
</a>
</g>
</g>
<!-- Node13 -->
<g id="Node000013" class="node">
<title>Node13</title>
<g id="a_Node000013"><a xlink:href="../../df/d18/mul__toom62_8c.html#aa79b2cbdf2b098e975b7a90d02c4e3f4" target="_top" xlink:title=" ">
<polygon fill="white" stroke="#666666" points="173,-135 0,-135 0,-116 173,-116 173,-135"/>
<text text-anchor="middle" x="86.5" y="-123" font-family="Helvetica,sans-Serif" font-size="10.00">lmmp_mul_toom62_unbalance_</text>
</a>
</g>
</g>
<!-- Node12&#45;&gt;Node13 -->
<g id="edge13_Node000012_Node000013" class="edge">
<title>Node12&#45;&gt;Node13</title>
<g id="a_edge13_Node000012_Node000013"><a xlink:title=" ">
<path fill="none" stroke="#63b8ff" d="M212.22,-112.85C199.4,-114.15 186.12,-115.5 173.22,-116.8"/>
<polygon fill="#63b8ff" stroke="#63b8ff" points="212.8,-116.31 222.39,-111.82 212.09,-109.34 212.8,-116.31"/>
</a>
</g>
</g>
<!-- Node15&#45;&gt;Node8 -->
<g id="edge16_Node000015_Node000008" class="edge">
<title>Node15&#45;&gt;Node8</title>
<g id="a_edge16_Node000015_Node000008"><a xlink:title=" ">
<path fill="none" stroke="#63b8ff" d="M430.4,-287.56C426.1,-289.3 421.92,-291.27 418,-293.5 398.05,-304.84 402.1,-319.43 382,-330.5 373.5,-335.18 363.9,-338.65 354.29,-341.21"/>
<polygon fill="#63b8ff" stroke="#63b8ff" points="431.76,-290.79 439.98,-284.11 429.39,-284.21 431.76,-290.79"/>
</a>
</g>
</g>
<!-- Node16 -->
<g id="Node000016" class="node">
<title>Node16</title>
<g id="a_Node000016"><a xlink:href="../../df/d32/mul__toom44_8c.html#a4a99958cb80a78e2b391c0e5d56b277d" target="_top" xlink:title=" ">
<polygon fill="white" stroke="#666666" points="354,-284 237,-284 237,-265 354,-265 354,-284"/>
<text text-anchor="middle" x="295.5" y="-272" font-family="Helvetica,sans-Serif" font-size="10.00">lmmp_mul_toom44_</text>
</a>
</g>
</g>
<!-- Node15&#45;&gt;Node16 -->
<g id="edge17_Node000015_Node000016" class="edge">
<title>Node15&#45;&gt;Node16</title>
<g id="a_edge17_Node000015_Node000016"><a xlink:title=" ">
<path fill="none" stroke="#63b8ff" d="M407.72,-274.5C389.52,-274.5 370.85,-274.5 354.12,-274.5"/>
<polygon fill="#63b8ff" stroke="#63b8ff" points="407.77,-278 417.77,-274.5 407.77,-271 407.77,-278"/>
</a>
</g>
</g>
<!-- Node17 -->
<g id="Node000017" class="node">
<title>Node17</title>
<g id="a_Node000017"><a xlink:href="../../dd/d32/sqr__toom4_8c.html#ac4778f4604ea4b584d79b6f9b2674c7b" target="_top" xlink:title=" ">
<polygon fill="white" stroke="#666666" points="349,-321 242,-321 242,-302 349,-302 349,-321"/>
<text text-anchor="middle" x="295.5" y="-309" font-family="Helvetica,sans-Serif" font-size="10.00">lmmp_sqr_toom4_</text>
</a>
</g>
</g>
<!-- Node15&#45;&gt;Node17 -->
<g id="edge18_Node000015_Node000017" class="edge">
<title>Node15&#45;&gt;Node17</title>
<g id="a_edge18_Node000015_Node000017"><a xlink:title=" ">
<path fill="none" stroke="#63b8ff" d="M435.68,-285.88C407.73,-291.02 375.09,-297.03 348.44,-301.94"/>
<polygon fill="#63b8ff" stroke="#63b8ff" points="436.54,-289.28 445.74,-284.03 435.27,-282.4 436.54,-289.28"/>
</a>
</g>
</g>
<!-- Node18&#45;&gt;Node8 -->
<g id="edge20_Node000018_Node000008" class="edge">
<title>Node18&#45;&gt;Node8</title>
<g id="a_edge20_Node000018_Node000008"><a xlink:title=" ">
<path fill="none" stroke="#63b8ff" d="M435.68,-322.88C407.73,-328.02 375.09,-334.03 348.44,-338.94"/>
<polygon fill="#63b8ff" stroke="#63b8ff" points="436.54,-326.28 445.74,-321.03 435.27,-319.4 436.54,-326.28"/>
</a>
</g>
</g>
<!-- Node18&#45;&gt;Node16 -->
<g id="edge21_Node000018_Node000016" class="edge">
<title>Node18&#45;&gt;Node16</title>
<g id="a_edge21_Node000018_Node000016"><a xlink:title=" ">
<path fill="none" stroke="#63b8ff" d="M435.68,-300.12C407.73,-294.98 375.09,-288.97 348.44,-284.06"/>
<polygon fill="#63b8ff" stroke="#63b8ff" points="435.27,-303.6 445.74,-301.97 436.54,-296.72 435.27,-303.6"/>
</a>
</g>
</g>
<!-- Node18&#45;&gt;Node17 -->
<g id="edge22_Node000018_Node000017" class="edge">
<title>Node18&#45;&gt;Node17</title>
<g id="a_edge22_Node000018_Node000017"><a xlink:title=" ">
<path fill="none" stroke="#63b8ff" d="M407.71,-311.5C387.74,-311.5 367.19,-311.5 349.28,-311.5"/>
<polygon fill="#63b8ff" stroke="#63b8ff" points="407.77,-315 417.77,-311.5 407.77,-308 407.77,-315"/>
</a>
</g>
</g>
<!-- Node19&#45;&gt;Node9 -->
<g id="edge24_Node000019_Node000009" class="edge">
<title>Node19&#45;&gt;Node9</title>
<g id="a_edge24_Node000019_Node000009"><a xlink:title=" ">
<path fill="none" stroke="#63b8ff" d="M421.31,-169.6C399.05,-172.25 375.1,-175.11 354.19,-177.61"/>
<polygon fill="#63b8ff" stroke="#63b8ff" points="421.89,-173.05 431.41,-168.39 421.06,-166.1 421.89,-173.05"/>
</a>
</g>
</g>
<!-- Node19&#45;&gt;Node10 -->
<g id="edge25_Node000019_Node000010" class="edge">
<title>Node19&#45;&gt;Node10</title>
<g id="a_edge25_Node000019_Node000010"><a xlink:title=" ">
<path fill="none" stroke="#63b8ff" d="M465.26,-173.98C442.33,-183.19 410.64,-195.2 382,-203.5 371.07,-206.67 359.21,-209.52 347.9,-211.98"/>
<polygon fill="#63b8ff" stroke="#63b8ff" points="466.88,-177.1 474.83,-170.09 464.25,-170.61 466.88,-177.1"/>
</a>
</g>
</g>
<!-- Node19&#45;&gt;Node11 -->
<g id="edge26_Node000019_Node000011" class="edge">
<title>Node19&#45;&gt;Node11</title>
<g id="a_edge26_Node000019_Node000011"><a xlink:title=" ">
<path fill="none" stroke="#63b8ff" d="M423.8,-146.29C421.79,-145.12 419.85,-143.86 418,-142.5 392.32,-123.63 407.71,-99.32 382,-80.5 373.78,-74.48 364,-70.32 354.05,-67.44"/>
<polygon fill="#63b8ff" stroke="#63b8ff" points="422.45,-149.53 432.96,-150.84 425.56,-143.26 422.45,-149.53"/>
</a>
</g>
</g>
<!-- Node19&#45;&gt;Node12 -->
<g id="edge29_Node000019_Node000012" class="edge">
<title>Node19&#45;&gt;Node12</title>
<g id="a_edge29_Node000019_Node000012"><a xlink:title=" ">
<path fill="none" stroke="#63b8ff" d="M441.18,-148.66C433.36,-146.75 425.45,-144.68 418,-142.5 401.67,-137.72 398.17,-134.78 382,-129.5 371.71,-126.14 360.65,-122.75 350.02,-119.59"/>
<polygon fill="#63b8ff" stroke="#63b8ff" points="440.47,-152.09 451.01,-150.99 442.09,-145.28 440.47,-152.09"/>
</a>
</g>
</g>
<!-- Node20 -->
<g id="Node000020" class="node">
<title>Node20</title>
<g id="a_Node000020"><a xlink:href="../../df/d18/mul__toom62_8c.html#a77bb59eb2f556ec65430b1fa53731e82" target="_top" xlink:title=" ">
<polygon fill="white" stroke="#666666" points="371,-157 220,-157 220,-138 371,-138 371,-157"/>
<text text-anchor="middle" x="295.5" y="-145" font-family="Helvetica,sans-Serif" font-size="10.00">lmmp_mul_toom62_cache_</text>
</a>
</g>
</g>
<!-- Node19&#45;&gt;Node20 -->
<g id="edge27_Node000019_Node000020" class="edge">
<title>Node19&#45;&gt;Node20</title>
<g id="a_edge27_Node000019_Node000020"><a xlink:title=" ">
<path fill="none" stroke="#63b8ff" d="M421.34,-155.57C404.96,-154.51 387.66,-153.4 371.33,-152.34"/>
<polygon fill="#63b8ff" stroke="#63b8ff" points="421.2,-159.07 431.41,-156.23 421.65,-152.09 421.2,-159.07"/>
</a>
</g>
</g>
<!-- Node20&#45;&gt;Node13 -->
<g id="edge28_Node000020_Node000013" class="edge">
<title>Node20&#45;&gt;Node13</title>
<g id="a_edge28_Node000020_Node000013"><a xlink:title=" ">
<path fill="none" stroke="#63b8ff" d="M209.7,-138.49C197.6,-137.2 185.14,-135.88 173.02,-134.59"/>
<polygon fill="#63b8ff" stroke="#63b8ff" points="209.45,-141.98 219.77,-139.56 210.19,-135.02 209.45,-141.98"/>
</a>
</g>
</g>
<!-- Node21&#45;&gt;Node9 -->
<g id="edge31_Node000021_Node000009" class="edge">
<title>Node21&#45;&gt;Node9</title>
<g id="a_edge31_Node000021_Node000009"><a xlink:title=" ">
<path fill="none" stroke="#63b8ff" d="M436,-135.88C429.82,-137.81 423.72,-140.01 418,-142.5 400.37,-150.19 399.73,-159.05 382,-166.5 373.33,-170.14 363.84,-173.08 354.45,-175.43"/>
<polygon fill="#63b8ff" stroke="#63b8ff" points="437.1,-139.2 445.74,-133.06 435.16,-132.48 437.1,-139.2"/>
</a>
</g>
</g>
<!-- Node21&#45;&gt;Node10 -->
<g id="edge32_Node000021_Node000010" class="edge">
<title>Node21&#45;&gt;Node10</title>
<g id="a_edge32_Node000021_Node000010"><a xlink:title=" ">
<path fill="none" stroke="#63b8ff" d="M426.06,-137.4C423.25,-138.93 420.54,-140.62 418,-142.5 392.68,-161.2 407.57,-185.14 382,-203.5 373.87,-209.34 364.24,-213.36 354.44,-216.12"/>
<polygon fill="#63b8ff" stroke="#63b8ff" points="427.79,-140.45 435.38,-133.05 424.84,-134.11 427.79,-140.45"/>
</a>
</g>
</g>
<!-- Node21&#45;&gt;Node11 -->
<g id="edge33_Node000021_Node000011" class="edge">
<title>Node21&#45;&gt;Node11</title>
<g id="a_edge33_Node000021_Node000011"><a xlink:title=" ">
<path fill="none" stroke="#63b8ff" d="M465.23,-110.12C442.29,-100.95 410.6,-88.96 382,-80.5 370.04,-76.96 356.97,-73.74 344.73,-71"/>
<polygon fill="#63b8ff" stroke="#63b8ff" points="464.22,-113.49 474.8,-113.99 466.84,-107 464.22,-113.49"/>
</a>
</g>
</g>
<!-- Node21&#45;&gt;Node12 -->
<g id="edge35_Node000021_Node000012" class="edge">
<title>Node21&#45;&gt;Node12</title>
<g id="a_edge35_Node000021_Node000012"><a xlink:title=" ">
<path fill="none" stroke="#63b8ff" d="M421.34,-116.3C404.02,-114.66 385.67,-112.93 368.52,-111.31"/>
<polygon fill="#63b8ff" stroke="#63b8ff" points="421.12,-119.8 431.41,-117.25 421.78,-112.83 421.12,-119.8"/>
</a>
</g>
</g>
<!-- Node21&#45;&gt;Node20 -->
<g id="edge34_Node000021_Node000020" class="edge">
<title>Node21&#45;&gt;Node20</title>
<g id="a_edge34_Node000021_Node000020"><a xlink:title=" ">
<path fill="none" stroke="#63b8ff" d="M421.34,-132.59C404.96,-134.55 387.66,-136.62 371.33,-138.56"/>
<polygon fill="#63b8ff" stroke="#63b8ff" points="421.89,-136.05 431.41,-131.39 421.06,-129.1 421.89,-136.05"/>
</a>
</g>
</g>
</g>
</svg>

<g id="navigator" transform="translate(0 0)" fill="#404254">
  <rect fill="#f2f5e9" fill-opacity="0.5" stroke="#606060" stroke-width=".5" x="0" y="0" width="60" height="60"/>
  <use id="zoomplus" xlink:href="#zoomPlus" x="17" y="9" onmousedown="handleZoom(evt,'in')"/>
  <use id="zoomminus" xlink:href="#zoomMin" x="42" y="9" onmousedown="handleZoom(evt,'out')"/>
  <use id="reset" xlink:href="#resetDef" x="30" y="36" onmousedown="handleReset()"/>
   <use id="arrowup" xlink:href="#arrowUp" x="0" y="0" onmousedown="handlePan(0,-1)"/>
  <use id="arrowright" xlink:href="#arrowRight" x="0" y="0" onmousedown="handlePan(1,0)"/>
  <use id="arrowdown" xlink:href="#arrowDown" x="0" y="0" onmousedown="handlePan(0,1)"/>
  <use id="arrowleft" xlink:href="#arrowLeft" x="0" y="0" onmousedown="handlePan(-1,0)"/>
</g>
<svg viewBox="0 0 15 15" width="100%" height="30px" preserveAspectRatio="xMaxYMin meet">
 <g id="arrow_out" transform="scale(0.3 0.3)">
  <a xlink:href="lmmpn_8h_accedf10c55a5675d82795f37a9fdf356_icgraph_org.svg" target="_base">
   <rect id="button" ry="5" rx="5" y="6" x="6" height="38" width="38"
        fill="#f2f5e9" fill-opacity="0.5" stroke="#606060" stroke-width="1.0"/>
   <path id="arrow"
     d="M 11.500037,31.436501 C 11.940474,20.09759 22.043105,11.32322 32.158766,21.979434 L 37.068811,17.246167 C 37.068811,17.246167 37.088388,32 37.088388,32 L 22.160133,31.978069 C 22.160133,31.978069 26.997745,27.140456 26.997745,27.140456 C 18.528582,18.264221 13.291696,25.230495 11.500037,31.436501 z"
     style="fill:#404040;"/>
  </a>
 </g>
</svg>

<style type='text/css'>
<![CDATA[
[data-mouse-over-selected='false'] { opacity: 0.7; }
[data-mouse-over-selected='true']  { opacity: 1.0; }
]]>
</style>
<script type="application/ecmascript"><![CDATA[
document.addEventListener('DOMContentLoaded', (event) => {
  highlightEdges();
  highlightAdjacentNodes();
});
]]></script>
</svg>
