<?xml version="1.0" encoding="UTF-8" standalone="no"?>
<!DOCTYPE svg PUBLIC "-//W3C//DTD SVG 1.1//EN"
 "http://www.w3.org/Graphics/SVG/1.1/DTD/svg11.dtd">
<!-- Generated by graphviz version 2.43.0 (0)
 -->
<!-- Title: lmmp_mul_toom33_ Pages: 1 -->
<svg width="257pt" height="101pt"
 viewBox="0.00 0.00 257.00 101.00" xmlns="http://www.w3.org/2000/svg" xmlns:xlink="http://www.w3.org/1999/xlink">
<g id="graph0" class="graph" transform="scale(1 1) rotate(0) translate(4 97)">
<title>lmmp_mul_toom33_</title>
<!-- Node1 -->
<g id="Node000001" class="node">
<title>Node1</title>
<g id="a_Node000001"><a xlink:title="Toom&#45;33乘法运算 [dst,na+nb] = [numa,na] * [numb,nb]">
<polygon fill="#999999" stroke="#666666" points="249,-56 132,-56 132,-37 249,-37 249,-56"/>
<text text-anchor="middle" x="190.5" y="-44" font-family="Helvetica,sans-Serif" font-size="10.00">lmmp_mul_toom33_</text>
</a>
</g>
</g>
<!-- Node2 -->
<g id="Node000002" class="node">
<title>Node2</title>
<g id="a_Node000002"><a xlink:href="../../d1/de6/inlines_8h.html#a0618416262e27aea72e85dbf66bf1348" target="_top" xlink:title=" ">
<polygon fill="white" stroke="#666666" points="96,-93 0,-93 0,-74 96,-74 96,-93"/>
<text text-anchor="middle" x="48" y="-81" font-family="Helvetica,sans-Serif" font-size="10.00">__lmmp_mul_n_</text>
</a>
</g>
</g>
<!-- Node1&#45;&gt;Node2 -->
<g id="edge1_Node000001_Node000002" class="edge">
<title>Node1&#45;&gt;Node2</title>
<g id="a_edge1_Node000001_Node000002"><a xlink:title=" ">
<path fill="none" stroke="#63b8ff" d="M143.48,-58.62C124.68,-63.57 103.24,-69.22 85.55,-73.88"/>
<polygon fill="#63b8ff" stroke="#63b8ff" points="144.54,-61.96 153.32,-56.03 142.76,-55.19 144.54,-61.96"/>
</a>
</g>
</g>
<!-- Node3 -->
<g id="Node000003" class="node">
<title>Node3</title>
<g id="a_Node000003"><a xlink:href="../../d0/df9/mul_8c.html#aeae364ad322d3bbb2d5ff2aa4c84232a" target="_top" xlink:title=" ">
<polygon fill="white" stroke="#666666" points="85,-56 11,-56 11,-37 85,-37 85,-56"/>
<text text-anchor="middle" x="48" y="-44" font-family="Helvetica,sans-Serif" font-size="10.00">lmmp_mul_</text>
</a>
</g>
</g>
<!-- Node1&#45;&gt;Node3 -->
<g id="edge2_Node000001_Node000003" class="edge">
<title>Node1&#45;&gt;Node3</title>
<g id="a_edge2_Node000001_Node000003"><a xlink:title=" ">
<path fill="none" stroke="#63b8ff" d="M121.89,-46.5C109.27,-46.5 96.54,-46.5 85.33,-46.5"/>
<polygon fill="#63b8ff" stroke="#63b8ff" points="121.95,-50 131.95,-46.5 121.95,-43 121.95,-50"/>
</a>
</g>
</g>
<!-- Node4 -->
<g id="Node000004" class="node">
<title>Node4</title>
<g id="a_Node000004"><a xlink:href="../../d0/df9/mul_8c.html#a060ae185499be37acc4fbb32e1ea2075" target="_top" xlink:title=" ">
<polygon fill="white" stroke="#666666" points="91,-19 5,-19 5,0 91,0 91,-19"/>
<text text-anchor="middle" x="48" y="-7" font-family="Helvetica,sans-Serif" font-size="10.00">lmmp_mul_n_</text>
</a>
</g>
</g>
<!-- Node1&#45;&gt;Node4 -->
<g id="edge3_Node000001_Node000004" class="edge">
<title>Node1&#45;&gt;Node4</title>
<g id="a_edge3_Node000001_Node000004"><a xlink:title=" ">
<path fill="none" stroke="#63b8ff" d="M143.48,-34.38C124.68,-29.43 103.24,-23.78 85.55,-19.12"/>
<polygon fill="#63b8ff" stroke="#63b8ff" points="142.76,-37.81 153.32,-36.97 144.54,-31.04 142.76,-37.81"/>
</a>
</g>
</g>
</g>
</svg>
