<?xml version="1.0" encoding="UTF-8" standalone="no"?>
<!DOCTYPE svg PUBLIC "-//W3C//DTD SVG 1.1//EN"
 "http://www.w3.org/Graphics/SVG/1.1/DTD/svg11.dtd">
<!-- Generated by graphviz version 2.43.0 (0)
 -->
<!-- Title: include/solver.hpp Pages: 1 -->
<svg width="1619pt" height="302pt"
 viewBox="0.00 0.00 1619.00 302.00" xmlns="http://www.w3.org/2000/svg" xmlns:xlink="http://www.w3.org/1999/xlink">
<g id="graph0" class="graph" transform="scale(1 1) rotate(0) translate(4 298)">
<title>include/solver.hpp</title>
<!-- Node1 -->
<g id="Node000001" class="node">
<title>Node1</title>
<g id="a_Node000001"><a xlink:title="多项式方程组求解器 Solver，包含 Gröbner 基、线性系统求解。">
<polygon fill="#999999" stroke="#666666" points="109.5,-294 4.5,-294 4.5,-275 109.5,-275 109.5,-294"/>
<text text-anchor="middle" x="57" y="-282" font-family="Helvetica,sans-Serif" font-size="10.00">include/solver.hpp</text>
</a>
</g>
</g>
<!-- Node2 -->
<g id="Node000002" class="node">
<title>Node2</title>
<g id="a_Node000002"><a xlink:href="../../d5/df2/symbolic_8hpp.html" target="_top" xlink:title="符号表达式主类 SymbolicExpr 及其工厂方法、运算接口。">
<polygon fill="white" stroke="#666666" points="1145,-239 1063,-239 1063,-220 1145,-220 1145,-239"/>
<text text-anchor="middle" x="1104" y="-227" font-family="Helvetica,sans-Serif" font-size="10.00">symbolic.hpp</text>
</a>
</g>
</g>
<!-- Node1&#45;&gt;Node2 -->
<g id="edge1_Node000001_Node000002" class="edge">
<title>Node1&#45;&gt;Node2</title>
<g id="a_edge1_Node000001_Node000002"><a xlink:title=" ">
<path fill="none" stroke="#63b8ff" d="M109.64,-280.84C289.04,-271.75 875.23,-242.08 1052.66,-233.1"/>
<polygon fill="#63b8ff" stroke="#63b8ff" points="1052.96,-236.59 1062.77,-232.59 1052.6,-229.6 1052.96,-236.59"/>
</a>
</g>
</g>
<!-- Node8 -->
<g id="Node000008" class="node">
<title>Node8</title>
<g id="a_Node000008"><a xlink:title=" ">
<polygon fill="#e0e0e0" stroke="#999999" points="251.5,-19 204.5,-19 204.5,0 251.5,0 251.5,-19"/>
<text text-anchor="middle" x="228" y="-7" font-family="Helvetica,sans-Serif" font-size="10.00">vector</text>
</a>
</g>
</g>
<!-- Node1&#45;&gt;Node8 -->
<g id="edge53_Node000001_Node000008" class="edge">
<title>Node1&#45;&gt;Node8</title>
<g id="a_edge53_Node000001_Node000008"><a xlink:title=" ">
<path fill="none" stroke="#63b8ff" d="M48.59,-274.8C32.73,-257.44 0,-216.63 0,-175.5 0,-175.5 0,-175.5 0,-118.5 0,-88.33 1.16,-74.71 24,-55 49.17,-33.27 143.02,-19.83 194.2,-13.96"/>
<polygon fill="#63b8ff" stroke="#63b8ff" points="194.88,-17.41 204.43,-12.82 194.11,-10.45 194.88,-17.41"/>
</a>
</g>
</g>
<!-- Node11 -->
<g id="Node000011" class="node">
<title>Node11</title>
<g id="a_Node000011"><a xlink:title=" ">
<polygon fill="#e0e0e0" stroke="#999999" points="561,-19 517,-19 517,0 561,0 561,-19"/>
<text text-anchor="middle" x="539" y="-7" font-family="Helvetica,sans-Serif" font-size="10.00">string</text>
</a>
</g>
</g>
<!-- Node1&#45;&gt;Node11 -->
<g id="edge54_Node000001_Node000011" class="edge">
<title>Node1&#45;&gt;Node11</title>
<g id="a_edge54_Node000001_Node000011"><a xlink:title=" ">
<path fill="none" stroke="#63b8ff" d="M54.44,-274.91C49.25,-256.74 38,-213 38,-175.5 38,-175.5 38,-175.5 38,-118.5 38,-85.38 48.9,-72.54 77,-55 113.32,-32.33 407.76,-16.63 506.71,-11.95"/>
<polygon fill="#63b8ff" stroke="#63b8ff" points="507.16,-15.44 516.99,-11.47 506.83,-8.44 507.16,-15.44"/>
</a>
</g>
</g>
<!-- Node21 -->
<g id="Node000021" class="node">
<title>Node21</title>
<g id="a_Node000021"><a xlink:title=" ">
<polygon fill="#e0e0e0" stroke="#999999" points="124,-74 86,-74 86,-55 124,-55 124,-74"/>
<text text-anchor="middle" x="105" y="-62" font-family="Helvetica,sans-Serif" font-size="10.00">map</text>
</a>
</g>
</g>
<!-- Node1&#45;&gt;Node21 -->
<g id="edge55_Node000001_Node000021" class="edge">
<title>Node1&#45;&gt;Node21</title>
<g id="a_edge55_Node000001_Node000021"><a xlink:title=" ">
<path fill="none" stroke="#63b8ff" d="M58.88,-274.95C65.94,-242.88 90.97,-129.2 100.9,-84.12"/>
<polygon fill="#63b8ff" stroke="#63b8ff" points="104.35,-84.74 103.08,-74.22 97.51,-83.24 104.35,-84.74"/>
</a>
</g>
</g>
<!-- Node3 -->
<g id="Node000003" class="node">
<title>Node3</title>
<g id="a_Node000003"><a xlink:href="../../d8/d09/bigint_8hpp.html" target="_top" xlink:title="任意精度整数 BigInt，底层调用 LAMMP 实现高性能大数运算。">
<polygon fill="white" stroke="#666666" points="1193.5,-74 1128.5,-74 1128.5,-55 1193.5,-55 1193.5,-74"/>
<text text-anchor="middle" x="1161" y="-62" font-family="Helvetica,sans-Serif" font-size="10.00">bigint.hpp</text>
</a>
</g>
</g>
<!-- Node2&#45;&gt;Node3 -->
<g id="edge2_Node000002_Node000003" class="edge">
<title>Node2&#45;&gt;Node3</title>
<g id="a_edge2_Node000002_Node000003"><a xlink:title=" ">
<path fill="none" stroke="#63b8ff" d="M1112.38,-219.71C1119.98,-211.23 1130.9,-197.71 1137,-184 1151.75,-150.88 1157.52,-108.5 1159.72,-84.44"/>
<polygon fill="#63b8ff" stroke="#63b8ff" points="1163.22,-84.47 1160.53,-74.22 1156.25,-83.91 1163.22,-84.47"/>
</a>
</g>
</g>
<!-- Node9 -->
<g id="Node000009" class="node">
<title>Node9</title>
<g id="a_Node000009"><a xlink:title=" ">
<polygon fill="#e0e0e0" stroke="#999999" points="1470.5,-19 1421.5,-19 1421.5,0 1470.5,0 1470.5,-19"/>
<text text-anchor="middle" x="1446" y="-7" font-family="Helvetica,sans-Serif" font-size="10.00">cstdlib</text>
</a>
</g>
</g>
<!-- Node2&#45;&gt;Node9 -->
<g id="edge52_Node000002_Node000009" class="edge">
<title>Node2&#45;&gt;Node9</title>
<g id="a_edge52_Node000002_Node000009"><a xlink:title=" ">
<path fill="none" stroke="#63b8ff" d="M1114.8,-219.8C1148.32,-193.05 1254.08,-110.45 1350,-55 1371.13,-42.79 1396.18,-31.27 1415.39,-23.01"/>
<polygon fill="#63b8ff" stroke="#63b8ff" points="1417.01,-26.12 1424.86,-19 1414.28,-19.68 1417.01,-26.12"/>
</a>
</g>
</g>
<!-- Node2&#45;&gt;Node11 -->
<g id="edge44_Node000002_Node000011" class="edge">
<title>Node2&#45;&gt;Node11</title>
<g id="a_edge44_Node000002_Node000011"><a xlink:title=" ">
<path fill="none" stroke="#63b8ff" d="M1062.81,-226.91C899.15,-220.19 301.15,-191.46 247,-129 171.75,-42.21 416.36,-18.07 506.77,-12.2"/>
<polygon fill="#63b8ff" stroke="#63b8ff" points="507.23,-15.68 517,-11.57 506.8,-8.69 507.23,-15.68"/>
</a>
</g>
</g>
<!-- Node12 -->
<g id="Node000012" class="node">
<title>Node12</title>
<g id="a_Node000012"><a xlink:title=" ">
<polygon fill="#e0e0e0" stroke="#999999" points="1549,-19 1489,-19 1489,0 1549,0 1549,-19"/>
<text text-anchor="middle" x="1519" y="-7" font-family="Helvetica,sans-Serif" font-size="10.00">iostream</text>
</a>
</g>
</g>
<!-- Node2&#45;&gt;Node12 -->
<g id="edge51_Node000002_Node000012" class="edge">
<title>Node2&#45;&gt;Node12</title>
<g id="a_edge51_Node000002_Node000012"><a xlink:title=" ">
<path fill="none" stroke="#63b8ff" d="M1145.01,-228.14C1194.78,-226.12 1279.99,-217.51 1344,-184 1418.81,-144.84 1482.28,-62.94 1507.44,-27.47"/>
<polygon fill="#63b8ff" stroke="#63b8ff" points="1510.4,-29.35 1513.24,-19.14 1504.65,-25.35 1510.4,-29.35"/>
</a>
</g>
</g>
<!-- Node13 -->
<g id="Node000013" class="node">
<title>Node13</title>
<g id="a_Node000013"><a xlink:title=" ">
<polygon fill="#e0e0e0" stroke="#999999" points="831,-19 767,-19 767,0 831,0 831,-19"/>
<text text-anchor="middle" x="799" y="-7" font-family="Helvetica,sans-Serif" font-size="10.00">algorithm</text>
</a>
</g>
</g>
<!-- Node2&#45;&gt;Node13 -->
<g id="edge48_Node000002_Node000013" class="edge">
<title>Node2&#45;&gt;Node13</title>
<g id="a_edge48_Node000002_Node000013"><a xlink:title=" ">
<path fill="none" stroke="#63b8ff" d="M1105.62,-219.74C1110.6,-189.72 1122.14,-90.85 1066,-55 982.95,-1.97 942.6,-35.1 841.21,-19.04"/>
<polygon fill="#63b8ff" stroke="#63b8ff" points="841.65,-15.56 831.2,-17.32 840.47,-22.46 841.65,-15.56"/>
</a>
</g>
</g>
<!-- Node16 -->
<g id="Node000016" class="node">
<title>Node16</title>
<g id="a_Node000016"><a xlink:title=" ">
<polygon fill="#e0e0e0" stroke="#999999" points="1611,-19 1567,-19 1567,0 1611,0 1611,-19"/>
<text text-anchor="middle" x="1589" y="-7" font-family="Helvetica,sans-Serif" font-size="10.00">limits</text>
</a>
</g>
</g>
<!-- Node2&#45;&gt;Node16 -->
<g id="edge47_Node000002_Node000016" class="edge">
<title>Node2&#45;&gt;Node16</title>
<g id="a_edge47_Node000002_Node000016"><a xlink:title=" ">
<path fill="none" stroke="#63b8ff" d="M1145.24,-227.56C1228.36,-225.02 1412.65,-215.85 1466,-184 1528.04,-146.96 1567.1,-65.17 1582.07,-28.69"/>
<polygon fill="#63b8ff" stroke="#63b8ff" points="1585.36,-29.88 1585.79,-19.29 1578.85,-27.3 1585.36,-29.88"/>
</a>
</g>
</g>
<!-- Node18 -->
<g id="Node000018" class="node">
<title>Node18</title>
<g id="a_Node000018"><a xlink:href="../../d1/de8/rational_8hpp.html" target="_top" xlink:title="精确有理数 Rational，基于 BigInt 分子/分母表示，自动约分。">
<polygon fill="white" stroke="#666666" points="872.5,-129 797.5,-129 797.5,-110 872.5,-110 872.5,-129"/>
<text text-anchor="middle" x="835" y="-117" font-family="Helvetica,sans-Serif" font-size="10.00">rational.hpp</text>
</a>
</g>
</g>
<!-- Node2&#45;&gt;Node18 -->
<g id="edge17_Node000002_Node000018" class="edge">
<title>Node2&#45;&gt;Node18</title>
<g id="a_edge17_Node000002_Node000018"><a xlink:title=" ">
<path fill="none" stroke="#63b8ff" d="M1082.44,-219.84C1034.91,-200.76 920.95,-155.01 865.86,-132.89"/>
<polygon fill="#63b8ff" stroke="#63b8ff" points="866.87,-129.52 856.29,-129.05 864.26,-136.02 866.87,-129.52"/>
</a>
</g>
</g>
<!-- Node2&#45;&gt;Node21 -->
<g id="edge49_Node000002_Node000021" class="edge">
<title>Node2&#45;&gt;Node21</title>
<g id="a_edge49_Node000002_Node000021"><a xlink:title=" ">
<path fill="none" stroke="#63b8ff" d="M1062.72,-227.94C882.82,-225.32 174.67,-213.21 138,-184 107.89,-160.02 103.82,-111.06 104.05,-84.19"/>
<polygon fill="#63b8ff" stroke="#63b8ff" points="107.55,-84.26 104.35,-74.16 100.55,-84.05 107.55,-84.26"/>
</a>
</g>
</g>
<!-- Node23 -->
<g id="Node000023" class="node">
<title>Node23</title>
<g id="a_Node000023"><a xlink:href="../../d9/d89/symbolic__ast_8hpp.html" target="_top" xlink:title="AST 节点定义：NumberNode, VariableNode, AddNode, MultiplyNode, PowerNode, FunctionNode,...">
<polygon fill="white" stroke="#666666" points="742,-184 640,-184 640,-165 742,-165 742,-184"/>
<text text-anchor="middle" x="691" y="-172" font-family="Helvetica,sans-Serif" font-size="10.00">symbolic_ast.hpp</text>
</a>
</g>
</g>
<!-- Node2&#45;&gt;Node23 -->
<g id="edge27_Node000002_Node000023" class="edge">
<title>Node2&#45;&gt;Node23</title>
<g id="a_edge27_Node000002_Node000023"><a xlink:title=" ">
<path fill="none" stroke="#63b8ff" d="M1062.89,-223.22C989.96,-213.86 837.58,-194.31 752.25,-183.36"/>
<polygon fill="#63b8ff" stroke="#63b8ff" points="752.55,-179.87 742.19,-182.07 751.66,-186.81 752.55,-179.87"/>
</a>
</g>
</g>
<!-- Node24 -->
<g id="Node000024" class="node">
<title>Node24</title>
<g id="a_Node000024"><a xlink:title=" ">
<polygon fill="#e0e0e0" stroke="#999999" points="1025,-129 967,-129 967,-110 1025,-110 1025,-129"/>
<text text-anchor="middle" x="996" y="-117" font-family="Helvetica,sans-Serif" font-size="10.00">memory</text>
</a>
</g>
</g>
<!-- Node2&#45;&gt;Node24 -->
<g id="edge43_Node000002_Node000024" class="edge">
<title>Node2&#45;&gt;Node24</title>
<g id="a_edge43_Node000002_Node000024"><a xlink:title=" ">
<path fill="none" stroke="#63b8ff" d="M1095.16,-219.66C1076.96,-201.46 1035.05,-159.55 1011.97,-136.47"/>
<polygon fill="#63b8ff" stroke="#63b8ff" points="1014.2,-133.75 1004.66,-129.16 1009.25,-138.7 1014.2,-133.75"/>
</a>
</g>
</g>
<!-- Node25 -->
<g id="Node000025" class="node">
<title>Node25</title>
<g id="a_Node000025"><a xlink:title=" ">
<polygon fill="#e0e0e0" stroke="#999999" points="1094.5,-129 1043.5,-129 1043.5,-110 1094.5,-110 1094.5,-129"/>
<text text-anchor="middle" x="1069" y="-117" font-family="Helvetica,sans-Serif" font-size="10.00">variant</text>
</a>
</g>
</g>
<!-- Node2&#45;&gt;Node25 -->
<g id="edge45_Node000002_Node000025" class="edge">
<title>Node2&#45;&gt;Node25</title>
<g id="a_edge45_Node000002_Node000025"><a xlink:title=" ">
<path fill="none" stroke="#63b8ff" d="M1101.14,-219.66C1095.44,-202.09 1082.59,-162.45 1074.98,-138.95"/>
<polygon fill="#63b8ff" stroke="#63b8ff" points="1078.22,-137.59 1071.81,-129.16 1071.56,-139.75 1078.22,-137.59"/>
</a>
</g>
</g>
<!-- Node30 -->
<g id="Node000030" class="node">
<title>Node30</title>
<g id="a_Node000030"><a xlink:title=" ">
<polygon fill="#e0e0e0" stroke="#999999" points="1335.5,-184 1288.5,-184 1288.5,-165 1335.5,-165 1335.5,-184"/>
<text text-anchor="middle" x="1312" y="-172" font-family="Helvetica,sans-Serif" font-size="10.00">cmath</text>
</a>
</g>
</g>
<!-- Node2&#45;&gt;Node30 -->
<g id="edge46_Node000002_Node000030" class="edge">
<title>Node2&#45;&gt;Node30</title>
<g id="a_edge46_Node000002_Node000030"><a xlink:title=" ">
<path fill="none" stroke="#63b8ff" d="M1137.42,-219.98C1176.21,-210.1 1239.81,-193.89 1278.6,-184.01"/>
<polygon fill="#63b8ff" stroke="#63b8ff" points="1279.54,-187.38 1288.37,-181.52 1277.81,-180.6 1279.54,-187.38"/>
</a>
</g>
</g>
<!-- Node31 -->
<g id="Node000031" class="node">
<title>Node31</title>
<g id="a_Node000031"><a xlink:title=" ">
<polygon fill="#e0e0e0" stroke="#999999" points="1457.5,-184 1392.5,-184 1392.5,-165 1457.5,-165 1457.5,-184"/>
<text text-anchor="middle" x="1425" y="-172" font-family="Helvetica,sans-Serif" font-size="10.00">functional</text>
</a>
</g>
</g>
<!-- Node2&#45;&gt;Node31 -->
<g id="edge50_Node000002_Node000031" class="edge">
<title>Node2&#45;&gt;Node31</title>
<g id="a_edge50_Node000002_Node000031"><a xlink:title=" ">
<path fill="none" stroke="#63b8ff" d="M1145.35,-222.02C1199.03,-213.56 1295.59,-198.14 1378,-184 1379.46,-183.75 1380.94,-183.49 1382.43,-183.23"/>
<polygon fill="#63b8ff" stroke="#63b8ff" points="1383.16,-186.66 1392.4,-181.47 1381.94,-179.77 1383.16,-186.66"/>
</a>
</g>
</g>
<!-- Node4 -->
<g id="Node000004" class="node">
<title>Node4</title>
<g id="a_Node000004"><a xlink:title=" ">
<polygon fill="#e0e0e0" stroke="#999999" points="1213,-19 1121,-19 1121,0 1213,0 1213,-19"/>
<text text-anchor="middle" x="1167" y="-7" font-family="Helvetica,sans-Serif" font-size="10.00">lammp/lmmp.h</text>
</a>
</g>
</g>
<!-- Node3&#45;&gt;Node4 -->
<g id="edge3_Node000003_Node000004" class="edge">
<title>Node3&#45;&gt;Node4</title>
<g id="a_edge3_Node000003_Node000004"><a xlink:title=" ">
<path fill="none" stroke="#63b8ff" d="M1161.99,-54.75C1162.78,-47.8 1163.9,-37.85 1164.89,-29.13"/>
<polygon fill="#63b8ff" stroke="#63b8ff" points="1168.38,-29.42 1166.03,-19.09 1161.42,-28.63 1168.38,-29.42"/>
</a>
</g>
</g>
<!-- Node5 -->
<g id="Node000005" class="node">
<title>Node5</title>
<g id="a_Node000005"><a xlink:title=" ">
<polygon fill="#e0e0e0" stroke="#999999" points="1329,-19 1231,-19 1231,0 1329,0 1329,-19"/>
<text text-anchor="middle" x="1280" y="-7" font-family="Helvetica,sans-Serif" font-size="10.00">lammp/lmmpn.h</text>
</a>
</g>
</g>
<!-- Node3&#45;&gt;Node5 -->
<g id="edge4_Node000003_Node000005" class="edge">
<title>Node3&#45;&gt;Node5</title>
<g id="a_edge4_Node000003_Node000005"><a xlink:title=" ">
<path fill="none" stroke="#63b8ff" d="M1180.12,-54.98C1199.35,-46.42 1229.23,-33.11 1251.31,-23.28"/>
<polygon fill="#63b8ff" stroke="#63b8ff" points="1252.82,-26.44 1260.53,-19.17 1249.97,-20.04 1252.82,-26.44"/>
</a>
</g>
</g>
<!-- Node6 -->
<g id="Node000006" class="node">
<title>Node6</title>
<g id="a_Node000006"><a xlink:title=" ">
<polygon fill="#e0e0e0" stroke="#999999" points="944.5,-19 849.5,-19 849.5,0 944.5,0 944.5,-19"/>
<text text-anchor="middle" x="897" y="-7" font-family="Helvetica,sans-Serif" font-size="10.00">lammp/numth.h</text>
</a>
</g>
</g>
<!-- Node3&#45;&gt;Node6 -->
<g id="edge5_Node000003_Node000006" class="edge">
<title>Node3&#45;&gt;Node6</title>
<g id="a_edge5_Node000003_Node000006"><a xlink:title=" ">
<path fill="none" stroke="#63b8ff" d="M1128.36,-56.95C1083.65,-47.97 1002.83,-31.75 949.54,-21.05"/>
<polygon fill="#63b8ff" stroke="#63b8ff" points="950.09,-17.59 939.6,-19.05 948.71,-24.45 950.09,-17.59"/>
</a>
</g>
</g>
<!-- Node7 -->
<g id="Node000007" class="node">
<title>Node7</title>
<g id="a_Node000007"><a xlink:title=" ">
<polygon fill="#e0e0e0" stroke="#999999" points="1035,-19 963,-19 963,0 1035,0 1035,-19"/>
<text text-anchor="middle" x="999" y="-7" font-family="Helvetica,sans-Serif" font-size="10.00">lmmc/init.h</text>
</a>
</g>
</g>
<!-- Node3&#45;&gt;Node7 -->
<g id="edge6_Node000003_Node000007" class="edge">
<title>Node3&#45;&gt;Node7</title>
<g id="a_edge6_Node000003_Node000007"><a xlink:title=" ">
<path fill="none" stroke="#63b8ff" d="M1134.97,-54.98C1107.89,-46.13 1065.29,-32.19 1034.99,-22.28"/>
<polygon fill="#63b8ff" stroke="#63b8ff" points="1035.82,-18.87 1025.23,-19.08 1033.65,-25.52 1035.82,-18.87"/>
</a>
</g>
</g>
<!-- Node3&#45;&gt;Node8 -->
<g id="edge7_Node000003_Node000008" class="edge">
<title>Node3&#45;&gt;Node8</title>
<g id="a_edge7_Node000003_Node000008"><a xlink:title=" ">
<path fill="none" stroke="#63b8ff" d="M1128.43,-61.03C1104.52,-59.25 1071.25,-56.84 1042,-55 739.56,-35.93 373.59,-17.63 261.94,-12.15"/>
<polygon fill="#63b8ff" stroke="#63b8ff" points="261.81,-8.64 251.65,-11.65 261.47,-15.63 261.81,-8.64"/>
</a>
</g>
</g>
<!-- Node3&#45;&gt;Node9 -->
<g id="edge8_Node000003_Node000009" class="edge">
<title>Node3&#45;&gt;Node9</title>
<g id="a_edge8_Node000003_Node000009"><a xlink:title=" ">
<path fill="none" stroke="#63b8ff" d="M1193.63,-58.46C1239.82,-51.16 1327.12,-36.77 1411.19,-19.04"/>
<polygon fill="#63b8ff" stroke="#63b8ff" points="1412.11,-22.43 1421.16,-16.92 1410.65,-15.58 1412.11,-22.43"/>
</a>
</g>
</g>
<!-- Node10 -->
<g id="Node000010" class="node">
<title>Node10</title>
<g id="a_Node000010"><a xlink:title=" ">
<polygon fill="#e0e0e0" stroke="#999999" points="1103,-19 1053,-19 1053,0 1103,0 1103,-19"/>
<text text-anchor="middle" x="1078" y="-7" font-family="Helvetica,sans-Serif" font-size="10.00">cstring</text>
</a>
</g>
</g>
<!-- Node3&#45;&gt;Node10 -->
<g id="edge9_Node000003_Node000010" class="edge">
<title>Node3&#45;&gt;Node10</title>
<g id="a_edge9_Node000003_Node000010"><a xlink:title=" ">
<path fill="none" stroke="#63b8ff" d="M1147.66,-54.98C1134.91,-46.84 1115.45,-34.41 1100.33,-24.76"/>
<polygon fill="#63b8ff" stroke="#63b8ff" points="1101.89,-21.6 1091.58,-19.17 1098.12,-27.5 1101.89,-21.6"/>
</a>
</g>
</g>
<!-- Node3&#45;&gt;Node11 -->
<g id="edge10_Node000003_Node000011" class="edge">
<title>Node3&#45;&gt;Node11</title>
<g id="a_edge10_Node000003_Node000011"><a xlink:title=" ">
<path fill="none" stroke="#63b8ff" d="M1128.4,-61.13C1014.85,-52.87 640.26,-25.52 571.26,-18.38"/>
<polygon fill="#63b8ff" stroke="#63b8ff" points="571.59,-14.89 561.24,-17.15 570.73,-21.84 571.59,-14.89"/>
</a>
</g>
</g>
<!-- Node3&#45;&gt;Node12 -->
<g id="edge11_Node000003_Node000012" class="edge">
<title>Node3&#45;&gt;Node12</title>
<g id="a_edge11_Node000003_Node000012"><a xlink:title=" ">
<path fill="none" stroke="#63b8ff" d="M1193.62,-59.7C1251.36,-52.81 1375.23,-37.26 1479,-19 1479.1,-18.98 1479.2,-18.96 1479.3,-18.95"/>
<polygon fill="#63b8ff" stroke="#63b8ff" points="1479.73,-22.43 1488.9,-17.13 1478.43,-15.55 1479.73,-22.43"/>
</a>
</g>
</g>
<!-- Node3&#45;&gt;Node13 -->
<g id="edge12_Node000003_Node000013" class="edge">
<title>Node3&#45;&gt;Node13</title>
<g id="a_edge12_Node000003_Node000013"><a xlink:title=" ">
<path fill="none" stroke="#63b8ff" d="M1128.42,-57.4C1123.59,-56.55 1118.67,-55.73 1114,-55 995.84,-36.56 962.83,-39.32 841.26,-19.1"/>
<polygon fill="#63b8ff" stroke="#63b8ff" points="841.63,-15.61 831.19,-17.41 840.47,-22.52 841.63,-15.61"/>
</a>
</g>
</g>
<!-- Node14 -->
<g id="Node000014" class="node">
<title>Node14</title>
<g id="a_Node000014"><a xlink:title=" ">
<polygon fill="#e0e0e0" stroke="#999999" points="1403,-19 1347,-19 1347,0 1403,0 1403,-19"/>
<text text-anchor="middle" x="1375" y="-7" font-family="Helvetica,sans-Serif" font-size="10.00">iomanip</text>
</a>
</g>
</g>
<!-- Node3&#45;&gt;Node14 -->
<g id="edge13_Node000003_Node000014" class="edge">
<title>Node3&#45;&gt;Node14</title>
<g id="a_edge13_Node000003_Node000014"><a xlink:title=" ">
<path fill="none" stroke="#63b8ff" d="M1193.5,-55.45C1232.09,-45.89 1296.34,-29.98 1337.14,-19.88"/>
<polygon fill="#63b8ff" stroke="#63b8ff" points="1338.11,-23.24 1346.98,-17.44 1336.43,-16.45 1338.11,-23.24"/>
</a>
</g>
</g>
<!-- Node15 -->
<g id="Node000015" class="node">
<title>Node15</title>
<g id="a_Node000015"><a xlink:title=" ">
<polygon fill="#e0e0e0" stroke="#999999" points="644.5,-19 579.5,-19 579.5,0 644.5,0 644.5,-19"/>
<text text-anchor="middle" x="612" y="-7" font-family="Helvetica,sans-Serif" font-size="10.00">stdexcept</text>
</a>
</g>
</g>
<!-- Node3&#45;&gt;Node15 -->
<g id="edge14_Node000003_Node000015" class="edge">
<title>Node3&#45;&gt;Node15</title>
<g id="a_edge14_Node000003_Node000015"><a xlink:title=" ">
<path fill="none" stroke="#63b8ff" d="M1128.41,-61.12C1034.56,-54.2 764.01,-33.69 654.99,-18.94"/>
<polygon fill="#63b8ff" stroke="#63b8ff" points="655.34,-15.46 644.95,-17.53 654.37,-22.39 655.34,-15.46"/>
</a>
</g>
</g>
<!-- Node3&#45;&gt;Node16 -->
<g id="edge15_Node000003_Node000016" class="edge">
<title>Node3&#45;&gt;Node16</title>
<g id="a_edge15_Node000003_Node000016"><a xlink:title=" ">
<path fill="none" stroke="#63b8ff" d="M1193.68,-61.57C1260.28,-57.26 1416.6,-45.27 1556.69,-18.97"/>
<polygon fill="#63b8ff" stroke="#63b8ff" points="1557.58,-22.36 1566.75,-17.05 1556.27,-15.48 1557.58,-22.36"/>
</a>
</g>
</g>
<!-- Node17 -->
<g id="Node000017" class="node">
<title>Node17</title>
<g id="a_Node000017"><a xlink:title=" ">
<polygon fill="#e0e0e0" stroke="#999999" points="749,-19 663,-19 663,0 749,0 749,-19"/>
<text text-anchor="middle" x="706" y="-7" font-family="Helvetica,sans-Serif" font-size="10.00">lmmc/config.h</text>
</a>
</g>
</g>
<!-- Node3&#45;&gt;Node17 -->
<g id="edge16_Node000003_Node000017" class="edge">
<title>Node3&#45;&gt;Node17</title>
<g id="a_edge16_Node000003_Node000017"><a xlink:title=" ">
<path fill="none" stroke="#63b8ff" d="M1128.28,-60.47C1061.17,-54.13 902.87,-38.53 759.41,-19.13"/>
<polygon fill="#63b8ff" stroke="#63b8ff" points="759.49,-15.61 749.1,-17.72 758.54,-22.54 759.49,-15.61"/>
</a>
</g>
</g>
<!-- Node18&#45;&gt;Node3 -->
<g id="edge20_Node000018_Node000003" class="edge">
<title>Node18&#45;&gt;Node3</title>
<g id="a_edge20_Node000018_Node000003"><a xlink:title=" ">
<path fill="none" stroke="#63b8ff" d="M872.71,-112.37C933.84,-102.43 1054.15,-82.87 1118.32,-72.44"/>
<polygon fill="#63b8ff" stroke="#63b8ff" points="1119.19,-75.84 1128.5,-70.78 1118.07,-68.93 1119.19,-75.84"/>
</a>
</g>
</g>
<!-- Node18&#45;&gt;Node11 -->
<g id="edge24_Node000018_Node000011" class="edge">
<title>Node18&#45;&gt;Node11</title>
<g id="a_edge24_Node000018_Node000011"><a xlink:title=" ">
<path fill="none" stroke="#63b8ff" d="M830.6,-109.84C822.98,-95.8 805.92,-68.31 783,-55 702.73,-8.39 666.2,-37.62 571.28,-18.99"/>
<polygon fill="#63b8ff" stroke="#63b8ff" points="571.79,-15.52 561.28,-16.9 570.35,-22.37 571.79,-15.52"/>
</a>
</g>
</g>
<!-- Node18&#45;&gt;Node14 -->
<g id="edge21_Node000018_Node000014" class="edge">
<title>Node18&#45;&gt;Node14</title>
<g id="a_edge21_Node000018_Node000014"><a xlink:title=" ">
<path fill="none" stroke="#63b8ff" d="M872.62,-115.32C953.25,-108.27 1140.43,-90.65 1202,-74 1222.56,-68.44 1226.14,-62.7 1246,-55 1276.81,-43.05 1312.34,-30.91 1338.3,-22.34"/>
<polygon fill="#63b8ff" stroke="#63b8ff" points="1339.69,-25.57 1348.1,-19.12 1337.51,-18.92 1339.69,-25.57"/>
</a>
</g>
</g>
<!-- Node18&#45;&gt;Node15 -->
<g id="edge23_Node000018_Node000015" class="edge">
<title>Node18&#45;&gt;Node15</title>
<g id="a_edge23_Node000018_Node000015"><a xlink:title=" ">
<path fill="none" stroke="#63b8ff" d="M835.02,-109.67C834.55,-95.9 831.53,-69.39 816,-55 813.01,-52.23 713.69,-31.42 654.76,-19.26"/>
<polygon fill="#63b8ff" stroke="#63b8ff" points="655.11,-15.76 644.61,-17.17 653.7,-22.62 655.11,-15.76"/>
</a>
</g>
</g>
<!-- Node18&#45;&gt;Node17 -->
<g id="edge18_Node000018_Node000017" class="edge">
<title>Node18&#45;&gt;Node17</title>
<g id="a_edge18_Node000018_Node000017"><a xlink:title=" ">
<path fill="none" stroke="#63b8ff" d="M841.98,-109.86C851.62,-96.81 866.5,-71.81 854,-55 842.43,-39.44 796.72,-27.26 759.13,-19.61"/>
<polygon fill="#63b8ff" stroke="#63b8ff" points="759.76,-16.16 749.27,-17.66 758.41,-23.03 759.76,-16.16"/>
</a>
</g>
</g>
<!-- Node19 -->
<g id="Node000019" class="node">
<title>Node19</title>
<g id="a_Node000019"><a xlink:title=" ">
<polygon fill="#e0e0e0" stroke="#999999" points="774,-74 678,-74 678,-55 774,-55 774,-74"/>
<text text-anchor="middle" x="726" y="-62" font-family="Helvetica,sans-Serif" font-size="10.00">lmmc/numeric.h</text>
</a>
</g>
</g>
<!-- Node18&#45;&gt;Node19 -->
<g id="edge19_Node000018_Node000019" class="edge">
<title>Node18&#45;&gt;Node19</title>
<g id="a_edge19_Node000018_Node000019"><a xlink:title=" ">
<path fill="none" stroke="#63b8ff" d="M817.49,-109.98C800.03,-101.5 772.99,-88.35 752.83,-78.54"/>
<polygon fill="#63b8ff" stroke="#63b8ff" points="754.36,-75.4 743.83,-74.17 751.29,-81.69 754.36,-75.4"/>
</a>
</g>
</g>
<!-- Node20 -->
<g id="Node000020" class="node">
<title>Node20</title>
<g id="a_Node000020"><a xlink:title=" ">
<polygon fill="#e0e0e0" stroke="#999999" points="962,-74 906,-74 906,-55 962,-55 962,-74"/>
<text text-anchor="middle" x="934" y="-62" font-family="Helvetica,sans-Serif" font-size="10.00">sstream</text>
</a>
</g>
</g>
<!-- Node18&#45;&gt;Node20 -->
<g id="edge22_Node000018_Node000020" class="edge">
<title>Node18&#45;&gt;Node20</title>
<g id="a_edge22_Node000018_Node000020"><a xlink:title=" ">
<path fill="none" stroke="#63b8ff" d="M850.91,-109.98C866.55,-101.61 890.66,-88.7 908.88,-78.95"/>
<polygon fill="#63b8ff" stroke="#63b8ff" points="910.64,-81.98 917.8,-74.17 907.34,-75.8 910.64,-81.98"/>
</a>
</g>
</g>
<!-- Node18&#45;&gt;Node21 -->
<g id="edge25_Node000018_Node000021" class="edge">
<title>Node18&#45;&gt;Node21</title>
<g id="a_edge25_Node000018_Node000021"><a xlink:title=" ">
<path fill="none" stroke="#63b8ff" d="M797.29,-115.76C668.74,-106.43 249.32,-75.98 134.37,-67.63"/>
<polygon fill="#63b8ff" stroke="#63b8ff" points="134.44,-64.13 124.21,-66.89 133.93,-71.11 134.44,-64.13"/>
</a>
</g>
</g>
<!-- Node22 -->
<g id="Node000022" class="node">
<title>Node22</title>
<g id="a_Node000022"><a xlink:title=" ">
<polygon fill="#e0e0e0" stroke="#999999" points="1033.5,-74 980.5,-74 980.5,-55 1033.5,-55 1033.5,-74"/>
<text text-anchor="middle" x="1007" y="-62" font-family="Helvetica,sans-Serif" font-size="10.00">stdint.h</text>
</a>
</g>
</g>
<!-- Node18&#45;&gt;Node22 -->
<g id="edge26_Node000018_Node000022" class="edge">
<title>Node18&#45;&gt;Node22</title>
<g id="a_edge26_Node000018_Node000022"><a xlink:title=" ">
<path fill="none" stroke="#63b8ff" d="M862.63,-109.98C891.85,-100.98 938.09,-86.73 970.34,-76.8"/>
<polygon fill="#63b8ff" stroke="#63b8ff" points="971.76,-80.02 980.28,-73.73 969.7,-73.33 971.76,-80.02"/>
</a>
</g>
</g>
<!-- Node23&#45;&gt;Node3 -->
<g id="edge37_Node000023_Node000003" class="edge">
<title>Node23&#45;&gt;Node3</title>
<g id="a_edge37_Node000023_Node000003"><a xlink:title=" ">
<path fill="none" stroke="#63b8ff" d="M742.06,-166.63C787.99,-159.68 856.97,-147.34 915,-129 934.92,-122.7 938.14,-116.49 958,-110 1012.22,-92.28 1076.9,-79.47 1118.43,-72.27"/>
<polygon fill="#63b8ff" stroke="#63b8ff" points="1119.2,-75.69 1128.47,-70.56 1118.03,-68.79 1119.2,-75.69"/>
</a>
</g>
</g>
<!-- Node23&#45;&gt;Node8 -->
<g id="edge29_Node000023_Node000008" class="edge">
<title>Node23&#45;&gt;Node8</title>
<g id="a_edge29_Node000023_Node000008"><a xlink:title=" ">
<path fill="none" stroke="#63b8ff" d="M639.77,-171.83C529.05,-167.72 275.12,-155.5 247,-129 219.92,-103.48 221.38,-55.9 224.73,-29.46"/>
<polygon fill="#63b8ff" stroke="#63b8ff" points="228.24,-29.65 226.26,-19.25 221.32,-28.62 228.24,-29.65"/>
</a>
</g>
</g>
<!-- Node23&#45;&gt;Node11 -->
<g id="edge30_Node000023_Node000011" class="edge">
<title>Node23&#45;&gt;Node11</title>
<g id="a_edge30_Node000023_Node000011"><a xlink:title=" ">
<path fill="none" stroke="#63b8ff" d="M682.83,-164.74C658.5,-138.65 586.25,-61.17 554.39,-27"/>
<polygon fill="#63b8ff" stroke="#63b8ff" points="556.59,-24.23 547.21,-19.31 551.47,-29.01 556.59,-24.23"/>
</a>
</g>
</g>
<!-- Node23&#45;&gt;Node13 -->
<g id="edge32_Node000023_Node000013" class="edge">
<title>Node23&#45;&gt;Node13</title>
<g id="a_edge32_Node000023_Node000013"><a xlink:title=" ">
<path fill="none" stroke="#63b8ff" d="M742.16,-165.53C781.08,-158.51 835.51,-146.63 881,-129 897.14,-122.74 899.01,-116.63 915,-110 969.2,-87.54 1006.62,-120.8 1042,-74 1080.11,-23.58 1116.78,-71.36 841.15,-19.17"/>
<polygon fill="#63b8ff" stroke="#63b8ff" points="841.69,-15.71 831.21,-17.27 840.38,-22.58 841.69,-15.71"/>
</a>
</g>
</g>
<!-- Node23&#45;&gt;Node15 -->
<g id="edge40_Node000023_Node000015" class="edge">
<title>Node23&#45;&gt;Node15</title>
<g id="a_edge40_Node000023_Node000015"><a xlink:title=" ">
<path fill="none" stroke="#63b8ff" d="M686.75,-164.74C674.27,-138.98 637.51,-63.13 620.64,-28.33"/>
<polygon fill="#63b8ff" stroke="#63b8ff" points="623.78,-26.78 616.27,-19.31 617.48,-29.83 623.78,-26.78"/>
</a>
</g>
</g>
<!-- Node23&#45;&gt;Node17 -->
<g id="edge38_Node000023_Node000017" class="edge">
<title>Node23&#45;&gt;Node17</title>
<g id="a_edge38_Node000023_Node000017"><a xlink:title=" ">
<path fill="none" stroke="#63b8ff" d="M691.3,-164.71C691.5,-152.29 691.06,-129.02 686,-110 679.43,-85.27 660.3,-79.06 669,-55 672.94,-44.09 680.86,-33.96 688.36,-26.14"/>
<polygon fill="#63b8ff" stroke="#63b8ff" points="690.84,-28.61 695.56,-19.13 685.95,-23.6 690.84,-28.61"/>
</a>
</g>
</g>
<!-- Node23&#45;&gt;Node18 -->
<g id="edge36_Node000023_Node000018" class="edge">
<title>Node23&#45;&gt;Node18</title>
<g id="a_edge36_Node000023_Node000018"><a xlink:title=" ">
<path fill="none" stroke="#63b8ff" d="M714.14,-164.98C737.82,-156.27 774.87,-142.63 801.71,-132.75"/>
<polygon fill="#63b8ff" stroke="#63b8ff" points="803.27,-135.91 811.44,-129.17 800.85,-129.34 803.27,-135.91"/>
</a>
</g>
</g>
<!-- Node23&#45;&gt;Node19 -->
<g id="edge39_Node000023_Node000019" class="edge">
<title>Node23&#45;&gt;Node19</title>
<g id="a_edge39_Node000023_Node000019"><a xlink:title=" ">
<path fill="none" stroke="#63b8ff" d="M699.92,-164.92C707.89,-156.6 719.07,-143.17 724,-129 729.05,-114.5 729.19,-96.99 728.28,-84.03"/>
<polygon fill="#63b8ff" stroke="#63b8ff" points="731.76,-83.62 727.3,-74.01 724.79,-84.3 731.76,-83.62"/>
</a>
</g>
</g>
<!-- Node23&#45;&gt;Node21 -->
<g id="edge42_Node000023_Node000021" class="edge">
<title>Node23&#45;&gt;Node21</title>
<g id="a_edge42_Node000023_Node000021"><a xlink:title=" ">
<path fill="none" stroke="#63b8ff" d="M639.91,-171.52C533.65,-166.95 292.21,-154.08 214,-129 180.03,-118.11 145.16,-95.37 124.29,-80.27"/>
<polygon fill="#63b8ff" stroke="#63b8ff" points="126.11,-77.26 115.99,-74.13 121.95,-82.89 126.11,-77.26"/>
</a>
</g>
</g>
<!-- Node23&#45;&gt;Node24 -->
<g id="edge28_Node000023_Node000024" class="edge">
<title>Node23&#45;&gt;Node24</title>
<g id="a_edge28_Node000023_Node000024"><a xlink:title=" ">
<path fill="none" stroke="#63b8ff" d="M742.28,-165.21C795.15,-156.56 879.94,-142.42 953,-129 954.26,-128.77 955.55,-128.53 956.84,-128.29"/>
<polygon fill="#63b8ff" stroke="#63b8ff" points="957.71,-131.68 966.88,-126.37 956.4,-124.81 957.71,-131.68"/>
</a>
</g>
</g>
<!-- Node23&#45;&gt;Node25 -->
<g id="edge31_Node000023_Node000025" class="edge">
<title>Node23&#45;&gt;Node25</title>
<g id="a_edge31_Node000023_Node000025"><a xlink:title=" ">
<path fill="none" stroke="#63b8ff" d="M742.12,-168.63C807.41,-162.02 924.04,-148.9 1033.56,-128.88"/>
<polygon fill="#63b8ff" stroke="#63b8ff" points="1034.26,-132.31 1043.46,-127.04 1032.99,-125.42 1034.26,-132.31"/>
</a>
</g>
</g>
<!-- Node26 -->
<g id="Node000026" class="node">
<title>Node26</title>
<g id="a_Node000026"><a xlink:title=" ">
<polygon fill="#e0e0e0" stroke="#999999" points="605.5,-129 540.5,-129 540.5,-110 605.5,-110 605.5,-129"/>
<text text-anchor="middle" x="573" y="-117" font-family="Helvetica,sans-Serif" font-size="10.00">typeindex</text>
</a>
</g>
</g>
<!-- Node23&#45;&gt;Node26 -->
<g id="edge33_Node000023_Node000026" class="edge">
<title>Node23&#45;&gt;Node26</title>
<g id="a_edge33_Node000023_Node000026"><a xlink:title=" ">
<path fill="none" stroke="#63b8ff" d="M672.04,-164.98C652.97,-156.42 623.34,-143.11 601.45,-133.28"/>
<polygon fill="#63b8ff" stroke="#63b8ff" points="602.86,-130.07 592.3,-129.17 599.99,-136.46 602.86,-130.07"/>
</a>
</g>
</g>
<!-- Node27 -->
<g id="Node000027" class="node">
<title>Node27</title>
<g id="a_Node000027"><a xlink:title=" ">
<polygon fill="#e0e0e0" stroke="#999999" points="349.5,-129 256.5,-129 256.5,-110 349.5,-110 349.5,-129"/>
<text text-anchor="middle" x="303" y="-117" font-family="Helvetica,sans-Serif" font-size="10.00">unordered_map</text>
</a>
</g>
</g>
<!-- Node23&#45;&gt;Node27 -->
<g id="edge34_Node000023_Node000027" class="edge">
<title>Node23&#45;&gt;Node27</title>
<g id="a_edge34_Node000023_Node000027"><a xlink:title=" ">
<path fill="none" stroke="#63b8ff" d="M639.77,-166.91C576.56,-158.73 465.52,-144.14 359.94,-129.11"/>
<polygon fill="#63b8ff" stroke="#63b8ff" points="360.14,-125.6 349.74,-127.66 359.15,-132.53 360.14,-125.6"/>
</a>
</g>
</g>
<!-- Node28 -->
<g id="Node000028" class="node">
<title>Node28</title>
<g id="a_Node000028"><a xlink:title=" ">
<polygon fill="#e0e0e0" stroke="#999999" points="454,-129 368,-129 368,-110 454,-110 454,-129"/>
<text text-anchor="middle" x="411" y="-117" font-family="Helvetica,sans-Serif" font-size="10.00">unordered_set</text>
</a>
</g>
</g>
<!-- Node23&#45;&gt;Node28 -->
<g id="edge35_Node000023_Node000028" class="edge">
<title>Node23&#45;&gt;Node28</title>
<g id="a_edge35_Node000023_Node000028"><a xlink:title=" ">
<path fill="none" stroke="#63b8ff" d="M646.01,-164.98C596.45,-155.6 516.8,-140.53 464.18,-130.57"/>
<polygon fill="#63b8ff" stroke="#63b8ff" points="464.51,-127.07 454.04,-128.65 463.21,-133.94 464.51,-127.07"/>
</a>
</g>
</g>
<!-- Node29 -->
<g id="Node000029" class="node">
<title>Node29</title>
<g id="a_Node000029"><a xlink:title=" ">
<polygon fill="#e0e0e0" stroke="#999999" points="522,-129 472,-129 472,-110 522,-110 522,-129"/>
<text text-anchor="middle" x="497" y="-117" font-family="Helvetica,sans-Serif" font-size="10.00">atomic</text>
</a>
</g>
</g>
<!-- Node23&#45;&gt;Node29 -->
<g id="edge41_Node000023_Node000029" class="edge">
<title>Node23&#45;&gt;Node29</title>
<g id="a_edge41_Node000023_Node000029"><a xlink:title=" ">
<path fill="none" stroke="#63b8ff" d="M659.83,-164.98C624.88,-155.44 568.34,-139.99 531.92,-130.04"/>
<polygon fill="#63b8ff" stroke="#63b8ff" points="532.79,-126.65 522.22,-127.39 530.94,-133.4 532.79,-126.65"/>
</a>
</g>
</g>
</g>
</svg>
