<?xml version="1.0" encoding="UTF-8" standalone="no"?>
<!DOCTYPE svg PUBLIC "-//W3C//DTD SVG 1.1//EN"
 "http://www.w3.org/Graphics/SVG/1.1/DTD/svg11.dtd">
<!-- Generated by graphviz version 2.43.0 (0)
 -->
<!-- Title: lmmp_odd_nCr_uint_ Pages: 1 -->
<svg width="605pt" height="335pt"
 viewBox="0.00 0.00 605.00 334.50" xmlns="http://www.w3.org/2000/svg" xmlns:xlink="http://www.w3.org/1999/xlink">
<g id="graph0" class="graph" transform="scale(1 1) rotate(0) translate(4 330.5)">
<title>lmmp_odd_nCr_uint_</title>
<!-- Node1 -->
<g id="Node000001" class="node">
<title>Node1</title>
<g id="a_Node000001"><a xlink:title=" ">
<polygon fill="#999999" stroke="#666666" points="119,-178.5 0,-178.5 0,-159.5 119,-159.5 119,-178.5"/>
<text text-anchor="middle" x="59.5" y="-166.5" font-family="Helvetica,sans-Serif" font-size="10.00">lmmp_odd_nCr_uint_</text>
</a>
</g>
</g>
<!-- Node2 -->
<g id="Node000002" class="node">
<title>Node2</title>
<g id="a_Node000002"><a xlink:href="../../dd/ded/nCr_8c.html#a7af35af2a899e19e014ef477aa4ea590" target="_top" xlink:title=" ">
<polygon fill="white" stroke="#666666" points="269,-326.5 186,-326.5 186,-307.5 269,-307.5 269,-326.5"/>
<text text-anchor="middle" x="227.5" y="-314.5" font-family="Helvetica,sans-Serif" font-size="10.00">count_factors</text>
</a>
</g>
</g>
<!-- Node1&#45;&gt;Node2 -->
<g id="edge1_Node000001_Node000002" class="edge">
<title>Node1&#45;&gt;Node2</title>
<g id="a_edge1_Node000001_Node000002"><a xlink:title=" ">
<path fill="none" stroke="#63b8ff" d="M64.61,-178.61C75.52,-202.87 107.61,-266.97 155,-299 161.34,-303.29 168.62,-306.55 176.06,-309.04"/>
<polygon fill="#63b8ff" stroke="#63b8ff" points="175.27,-312.46 185.85,-311.89 177.22,-305.74 175.27,-312.46"/>
</a>
</g>
</g>
<!-- Node3 -->
<g id="Node000003" class="node">
<title>Node3</title>
<g id="a_Node000003"><a xlink:href="../../dd/ded/nCr_8c.html#a352349f8bed333eaeba3b6323b996e58" target="_top" xlink:title=" ">
<polygon fill="white" stroke="#666666" points="271.5,-289.5 183.5,-289.5 183.5,-270.5 271.5,-270.5 271.5,-289.5"/>
<text text-anchor="middle" x="227.5" y="-277.5" font-family="Helvetica,sans-Serif" font-size="10.00">factor_size_int</text>
</a>
</g>
</g>
<!-- Node1&#45;&gt;Node3 -->
<g id="edge2_Node000001_Node000003" class="edge">
<title>Node1&#45;&gt;Node3</title>
<g id="a_edge2_Node000001_Node000003"><a xlink:title=" ">
<path fill="none" stroke="#63b8ff" d="M67.37,-178.58C81.52,-197.56 115.87,-240.01 155,-262 160.85,-265.29 167.3,-267.98 173.86,-270.19"/>
<polygon fill="#63b8ff" stroke="#63b8ff" points="172.91,-273.56 183.49,-273.09 174.93,-266.86 172.91,-273.56"/>
</a>
</g>
</g>
<!-- Node6 -->
<g id="Node000006" class="node">
<title>Node6</title>
<g id="a_Node000006"><a xlink:href="../../d8/df4/generic_2div_8c.html#a0ef4f96c3aafbe15673fa15739a9879f" target="_top" xlink:title="单精度数除法">
<polygon fill="white" stroke="#666666" points="268.5,-252.5 186.5,-252.5 186.5,-233.5 268.5,-233.5 268.5,-252.5"/>
<text text-anchor="middle" x="227.5" y="-240.5" font-family="Helvetica,sans-Serif" font-size="10.00">lmmp_div_1_</text>
</a>
</g>
</g>
<!-- Node1&#45;&gt;Node6 -->
<g id="edge5_Node000001_Node000006" class="edge">
<title>Node1&#45;&gt;Node6</title>
<g id="a_edge5_Node000001_Node000006"><a xlink:title=" ">
<path fill="none" stroke="#63b8ff" d="M73.93,-178.67C91.69,-191.03 124.32,-212.36 155,-225 161.75,-227.78 169.05,-230.22 176.31,-232.32"/>
<polygon fill="#63b8ff" stroke="#63b8ff" points="175.56,-235.75 186.13,-234.99 177.4,-228.99 175.56,-235.75"/>
</a>
</g>
</g>
<!-- Node9 -->
<g id="Node000009" class="node">
<title>Node9</title>
<g id="a_Node000009"><a xlink:href="../../dc/d42/ele__mul_8h.html#aecea1f4f013e3d05ae9d07888505bbed" target="_top" xlink:title="计算因子的累乘，并将结果放入dst中">
<polygon fill="white" stroke="#666666" points="284,-215.5 171,-215.5 171,-196.5 284,-196.5 284,-215.5"/>
<text text-anchor="middle" x="227.5" y="-203.5" font-family="Helvetica,sans-Serif" font-size="10.00">lmmp_factors_mul_</text>
</a>
</g>
</g>
<!-- Node1&#45;&gt;Node9 -->
<g id="edge9_Node000001_Node000009" class="edge">
<title>Node1&#45;&gt;Node9</title>
<g id="a_edge9_Node000001_Node000009"><a xlink:title=" ">
<path fill="none" stroke="#63b8ff" d="M103.25,-178.53C124.76,-183.32 151.02,-189.18 173.77,-194.25"/>
<polygon fill="#63b8ff" stroke="#63b8ff" points="173.09,-197.68 183.61,-196.44 174.61,-190.85 173.09,-197.68"/>
</a>
</g>
</g>
<!-- Node10 -->
<g id="Node000010" class="node">
<title>Node10</title>
<g id="a_Node000010"><a xlink:href="../../d6/d39/lmmpn_8h.html#ac837c3ce41191aecaaa2f226de50331c" target="_top" xlink:title="大数乘以单limb操作 [dst,na] = [numa,na] * x">
<polygon fill="white" stroke="#666666" points="270.5,-178.5 184.5,-178.5 184.5,-159.5 270.5,-159.5 270.5,-178.5"/>
<text text-anchor="middle" x="227.5" y="-166.5" font-family="Helvetica,sans-Serif" font-size="10.00">lmmp_mul_1_</text>
</a>
</g>
</g>
<!-- Node1&#45;&gt;Node10 -->
<g id="edge10_Node000001_Node000010" class="edge">
<title>Node1&#45;&gt;Node10</title>
<g id="a_edge10_Node000001_Node000010"><a xlink:title=" ">
<path fill="none" stroke="#63b8ff" d="M119.03,-169C137.05,-169 156.77,-169 174.33,-169"/>
<polygon fill="#63b8ff" stroke="#63b8ff" points="174.4,-172.5 184.4,-169 174.4,-165.5 174.4,-172.5"/>
</a>
</g>
</g>
<!-- Node11 -->
<g id="Node000011" class="node">
<title>Node11</title>
<g id="a_Node000011"><a xlink:href="../../d2/d9c/prime__table_8c.html#a0cc98f86f82fe1e5696a2fec6da664c5" target="_top" xlink:title="释放素数表缓存">
<polygon fill="white" stroke="#666666" points="299,-141.5 156,-141.5 156,-122.5 299,-122.5 299,-141.5"/>
<text text-anchor="middle" x="227.5" y="-129.5" font-family="Helvetica,sans-Serif" font-size="10.00">lmmp_prime_cache_free_</text>
</a>
</g>
</g>
<!-- Node1&#45;&gt;Node11 -->
<g id="edge11_Node000001_Node000011" class="edge">
<title>Node1&#45;&gt;Node11</title>
<g id="a_edge11_Node000001_Node000011"><a xlink:title=" ">
<path fill="none" stroke="#63b8ff" d="M103.25,-159.47C124.76,-154.68 151.02,-148.82 173.77,-143.75"/>
<polygon fill="#63b8ff" stroke="#63b8ff" points="174.61,-147.15 183.61,-141.56 173.09,-140.32 174.61,-147.15"/>
</a>
</g>
</g>
<!-- Node13 -->
<g id="Node000013" class="node">
<title>Node13</title>
<g id="a_Node000013"><a xlink:href="../../d2/d9c/prime__table_8c.html#afe62da8724ab642c14401be9bab13c5f" target="_top" xlink:title="初始化素数表缓存">
<polygon fill="white" stroke="#666666" points="297,-104.5 158,-104.5 158,-85.5 297,-85.5 297,-104.5"/>
<text text-anchor="middle" x="227.5" y="-92.5" font-family="Helvetica,sans-Serif" font-size="10.00">lmmp_prime_cache_init_</text>
</a>
</g>
</g>
<!-- Node1&#45;&gt;Node13 -->
<g id="edge13_Node000001_Node000013" class="edge">
<title>Node1&#45;&gt;Node13</title>
<g id="a_edge13_Node000001_Node000013"><a xlink:title=" ">
<path fill="none" stroke="#63b8ff" d="M74.29,-159.37C92.18,-147.28 124.67,-126.59 155,-114 160.84,-111.58 167.08,-109.38 173.34,-107.42"/>
<polygon fill="#63b8ff" stroke="#63b8ff" points="174.56,-110.71 183.16,-104.53 172.58,-104 174.56,-110.71"/>
</a>
</g>
</g>
<!-- Node14 -->
<g id="Node000014" class="node">
<title>Node14</title>
<g id="a_Node000014"><a xlink:href="../../d2/d9c/prime__table_8c.html#a6b0071d242388d9ed82ccae17a240fb7" target="_top" xlink:title="素数表缓存更新（从小到大遍历全局质数表）">
<polygon fill="white" stroke="#666666" points="300,-67.5 155,-67.5 155,-48.5 300,-48.5 300,-67.5"/>
<text text-anchor="middle" x="227.5" y="-55.5" font-family="Helvetica,sans-Serif" font-size="10.00">lmmp_prime_cache_next_</text>
</a>
</g>
</g>
<!-- Node1&#45;&gt;Node14 -->
<g id="edge14_Node000001_Node000014" class="edge">
<title>Node1&#45;&gt;Node14</title>
<g id="a_edge14_Node000001_Node000014"><a xlink:title=" ">
<path fill="none" stroke="#63b8ff" d="M67.64,-159.28C82.01,-140.45 116.36,-98.91 155,-77 158.94,-74.77 163.15,-72.79 167.48,-71.03"/>
<polygon fill="#63b8ff" stroke="#63b8ff" points="168.9,-74.25 177.11,-67.55 166.51,-67.66 168.9,-74.25"/>
</a>
</g>
</g>
<!-- Node15 -->
<g id="Node000015" class="node">
<title>Node15</title>
<g id="a_Node000015"><a xlink:href="../../d2/d9c/prime__table_8c.html#ae15572db81682838454d6fdf65ad64b6" target="_top" xlink:title="初始化全局素数表">
<polygon fill="white" stroke="#666666" points="291,-30 164,-30 164,0 291,0 291,-30"/>
<text text-anchor="start" x="172" y="-18" font-family="Helvetica,sans-Serif" font-size="10.00">lmmp_prime_int_table</text>
<text text-anchor="middle" x="227.5" y="-7" font-family="Helvetica,sans-Serif" font-size="10.00">_init_</text>
</a>
</g>
</g>
<!-- Node1&#45;&gt;Node15 -->
<g id="edge15_Node000001_Node000015" class="edge">
<title>Node1&#45;&gt;Node15</title>
<g id="a_edge15_Node000001_Node000015"><a xlink:title=" ">
<path fill="none" stroke="#63b8ff" d="M64.93,-159.26C76.35,-135.23 109.11,-72.67 155,-39 156.89,-37.62 158.86,-36.31 160.9,-35.07"/>
<polygon fill="#63b8ff" stroke="#63b8ff" points="163,-37.91 170.17,-30.1 159.7,-31.74 163,-37.91"/>
</a>
</g>
</g>
<!-- Node4 -->
<g id="Node000004" class="node">
<title>Node4</title>
<g id="a_Node000004"><a xlink:href="../../d1/d98/prime__table_8h.html#abe42e35d952690561e872515a36de632" target="_top" xlink:title="估计 n 范围内的素数数量">
<polygon fill="white" stroke="#666666" points="445,-290.5 336,-290.5 336,-271.5 445,-271.5 445,-290.5"/>
<text text-anchor="middle" x="390.5" y="-278.5" font-family="Helvetica,sans-Serif" font-size="10.00">lmmp_prime_size_</text>
</a>
</g>
</g>
<!-- Node3&#45;&gt;Node4 -->
<g id="edge3_Node000003_Node000004" class="edge">
<title>Node3&#45;&gt;Node4</title>
<g id="a_edge3_Node000003_Node000004"><a xlink:title=" ">
<path fill="none" stroke="#63b8ff" d="M271.65,-280.27C288.23,-280.37 307.53,-280.49 325.66,-280.6"/>
<polygon fill="#63b8ff" stroke="#63b8ff" points="325.85,-284.1 335.87,-280.67 325.89,-277.1 325.85,-284.1"/>
</a>
</g>
</g>
<!-- Node5 -->
<g id="Node000005" class="node">
<title>Node5</title>
<g id="a_Node000005"><a xlink:href="../../d2/d9c/prime__table_8c.html#af5e76d78983e57b2468d365a69354c73" target="_top" xlink:title="计算小于等于 n 的素数数量">
<polygon fill="white" stroke="#666666" points="597,-290.5 481,-290.5 481,-271.5 597,-271.5 597,-290.5"/>
<text text-anchor="middle" x="539" y="-278.5" font-family="Helvetica,sans-Serif" font-size="10.00">lmmp_prime_cnt16_</text>
</a>
</g>
</g>
<!-- Node4&#45;&gt;Node5 -->
<g id="edge4_Node000004_Node000005" class="edge">
<title>Node4&#45;&gt;Node5</title>
<g id="a_edge4_Node000004_Node000005"><a xlink:title=" ">
<path fill="none" stroke="#63b8ff" d="M445.22,-281C453.46,-281 462.06,-281 470.56,-281"/>
<polygon fill="#63b8ff" stroke="#63b8ff" points="470.84,-284.5 480.84,-281 470.84,-277.5 470.84,-284.5"/>
</a>
</g>
</g>
<!-- Node7 -->
<g id="Node000007" class="node">
<title>Node7</title>
<g id="a_Node000007"><a xlink:href="../../df/db6/generic_2inv_8c.html#ae11829952d48fa25384c7bbfffbc440b" target="_top" xlink:title="1阶逆元计算 (inv1)">
<polygon fill="white" stroke="#666666" points="580,-233.5 498,-233.5 498,-214.5 580,-214.5 580,-233.5"/>
<text text-anchor="middle" x="539" y="-221.5" font-family="Helvetica,sans-Serif" font-size="10.00">lmmp_inv_1_</text>
</a>
</g>
</g>
<!-- Node6&#45;&gt;Node7 -->
<g id="edge6_Node000006_Node000007" class="edge">
<title>Node6&#45;&gt;Node7</title>
<g id="a_edge6_Node000006_Node000007"><a xlink:title=" ">
<path fill="none" stroke="#63b8ff" d="M268.64,-240.54C324.77,-237.09 426.65,-230.84 487.75,-227.08"/>
<polygon fill="#63b8ff" stroke="#63b8ff" points="488.16,-230.57 497.93,-226.46 487.73,-223.58 488.16,-230.57"/>
</a>
</g>
</g>
<!-- Node8 -->
<g id="Node000008" class="node">
<title>Node8</title>
<g id="a_Node000008"><a xlink:href="../../d8/df4/generic_2div_8c.html#a60577cfa820cf758d4ca6d99bf28a8db" target="_top" xlink:title="单精度数取余">
<polygon fill="white" stroke="#666666" points="435,-214.5 346,-214.5 346,-195.5 435,-195.5 435,-214.5"/>
<text text-anchor="middle" x="390.5" y="-202.5" font-family="Helvetica,sans-Serif" font-size="10.00">lmmp_mod_1_</text>
</a>
</g>
</g>
<!-- Node6&#45;&gt;Node8 -->
<g id="edge7_Node000006_Node000008" class="edge">
<title>Node6&#45;&gt;Node8</title>
<g id="a_edge7_Node000006_Node000008"><a xlink:title=" ">
<path fill="none" stroke="#63b8ff" d="M268.71,-233.51C290.13,-228.45 316.68,-222.19 339.42,-216.82"/>
<polygon fill="#63b8ff" stroke="#63b8ff" points="340.31,-220.21 349.24,-214.5 338.71,-213.39 340.31,-220.21"/>
</a>
</g>
</g>
<!-- Node8&#45;&gt;Node7 -->
<g id="edge8_Node000008_Node000007" class="edge">
<title>Node8&#45;&gt;Node7</title>
<g id="a_edge8_Node000008_Node000007"><a xlink:title=" ">
<path fill="none" stroke="#63b8ff" d="M435.06,-210.65C451.54,-212.79 470.44,-215.24 487.51,-217.45"/>
<polygon fill="#63b8ff" stroke="#63b8ff" points="487.5,-220.98 497.86,-218.79 488.4,-214.04 487.5,-220.98"/>
</a>
</g>
</g>
<!-- Node12 -->
<g id="Node000012" class="node">
<title>Node12</title>
<g id="a_Node000012"><a xlink:href="../../df/dd5/memory_8c.html#a9addf0b27643f70bce967ca4ef842ae9" target="_top" xlink:title="内存释放函数（调用lmmp_heap_free_fn）">
<polygon fill="white" stroke="#666666" points="425.5,-141.5 355.5,-141.5 355.5,-122.5 425.5,-122.5 425.5,-141.5"/>
<text text-anchor="middle" x="390.5" y="-129.5" font-family="Helvetica,sans-Serif" font-size="10.00">lmmp_free</text>
</a>
</g>
</g>
<!-- Node11&#45;&gt;Node12 -->
<g id="edge12_Node000011_Node000012" class="edge">
<title>Node11&#45;&gt;Node12</title>
<g id="a_edge12_Node000011_Node000012"><a xlink:title=" ">
<path fill="none" stroke="#63b8ff" d="M299.12,-132C314.6,-132 330.58,-132 344.72,-132"/>
<polygon fill="#63b8ff" stroke="#63b8ff" points="345.13,-135.5 355.13,-132 345.13,-128.5 345.13,-135.5"/>
</a>
</g>
</g>
<!-- Node16 -->
<g id="Node000016" class="node">
<title>Node16</title>
<g id="a_Node000016"><a xlink:href="../../d2/d9c/prime__table_8c.html#a10ed75aa588c6755221e3eaa1da95790" target="_top" xlink:title=" ">
<polygon fill="white" stroke="#666666" points="440.5,-24.5 340.5,-24.5 340.5,-5.5 440.5,-5.5 440.5,-24.5"/>
<text text-anchor="middle" x="390.5" y="-12.5" font-family="Helvetica,sans-Serif" font-size="10.00">prime_table_size</text>
</a>
</g>
</g>
<!-- Node15&#45;&gt;Node16 -->
<g id="edge16_Node000015_Node000016" class="edge">
<title>Node15&#45;&gt;Node16</title>
<g id="a_edge16_Node000015_Node000016"><a xlink:title=" ">
<path fill="none" stroke="#63b8ff" d="M291.21,-15C304.1,-15 317.63,-15 330.38,-15"/>
<polygon fill="#63b8ff" stroke="#63b8ff" points="330.42,-18.5 340.42,-15 330.42,-11.5 330.42,-18.5"/>
</a>
</g>
</g>
</g>
</svg>
