<?xml version="1.0" encoding="UTF-8" standalone="no"?>
<!DOCTYPE svg PUBLIC "-//W3C//DTD SVG 1.1//EN"
 "http://www.w3.org/Graphics/SVG/1.1/DTD/svg11.dtd">
<!-- Generated by graphviz version 2.43.0 (0)
 -->
<!-- Title: factor_size_int Pages: 1 -->
<svg width="393pt" height="27pt"
 viewBox="0.00 0.00 393.00 27.00" xmlns="http://www.w3.org/2000/svg" xmlns:xlink="http://www.w3.org/1999/xlink">
<g id="graph0" class="graph" transform="scale(1 1) rotate(0) translate(4 23)">
<title>factor_size_int</title>
<!-- Node1 -->
<g id="Node000001" class="node">
<title>Node1</title>
<g id="a_Node000001"><a xlink:title=" ">
<polygon fill="#999999" stroke="#666666" points="88,-19 0,-19 0,0 88,0 88,-19"/>
<text text-anchor="middle" x="44" y="-7" font-family="Helvetica,sans-Serif" font-size="10.00">factor_size_int</text>
</a>
</g>
</g>
<!-- Node2 -->
<g id="Node000002" class="node">
<title>Node2</title>
<g id="a_Node000002"><a xlink:href="../../d1/d98/prime__table_8h.html#abe42e35d952690561e872515a36de632" target="_top" xlink:title="估计 n 范围内的素数数量">
<polygon fill="white" stroke="#666666" points="233,-19 124,-19 124,0 233,0 233,-19"/>
<text text-anchor="middle" x="178.5" y="-7" font-family="Helvetica,sans-Serif" font-size="10.00">lmmp_prime_size_</text>
</a>
</g>
</g>
<!-- Node1&#45;&gt;Node2 -->
<g id="edge1_Node000001_Node000002" class="edge">
<title>Node1&#45;&gt;Node2</title>
<g id="a_edge1_Node000001_Node000002"><a xlink:title=" ">
<path fill="none" stroke="#63b8ff" d="M88.02,-9.5C96.17,-9.5 104.85,-9.5 113.48,-9.5"/>
<polygon fill="#63b8ff" stroke="#63b8ff" points="113.56,-13 123.56,-9.5 113.56,-6 113.56,-13"/>
</a>
</g>
</g>
<!-- Node3 -->
<g id="Node000003" class="node">
<title>Node3</title>
<g id="a_Node000003"><a xlink:href="../../d2/d9c/prime__table_8c.html#af5e76d78983e57b2468d365a69354c73" target="_top" xlink:title="计算小于等于 n 的素数数量">
<polygon fill="white" stroke="#666666" points="385,-19 269,-19 269,0 385,0 385,-19"/>
<text text-anchor="middle" x="327" y="-7" font-family="Helvetica,sans-Serif" font-size="10.00">lmmp_prime_cnt16_</text>
</a>
</g>
</g>
<!-- Node2&#45;&gt;Node3 -->
<g id="edge2_Node000002_Node000003" class="edge">
<title>Node2&#45;&gt;Node3</title>
<g id="a_edge2_Node000002_Node000003"><a xlink:title=" ">
<path fill="none" stroke="#63b8ff" d="M233.22,-9.5C241.46,-9.5 250.06,-9.5 258.56,-9.5"/>
<polygon fill="#63b8ff" stroke="#63b8ff" points="258.84,-13 268.84,-9.5 258.84,-6 258.84,-13"/>
</a>
</g>
</g>
</g>
</svg>
