<?xml version="1.0" encoding="UTF-8" standalone="no"?>
<!DOCTYPE svg PUBLIC "-//W3C//DTD SVG 1.1//EN"
 "http://www.w3.org/Graphics/SVG/1.1/DTD/svg11.dtd">
<!-- Generated by graphviz version 2.43.0 (0)
 -->
<!-- Title: src/interval.cpp Pages: 1 -->
<svg width="1462pt" height="357pt"
 viewBox="0.00 0.00 1461.50 357.00" xmlns="http://www.w3.org/2000/svg" xmlns:xlink="http://www.w3.org/1999/xlink">
<g id="graph0" class="graph" transform="scale(1 1) rotate(0) translate(4 353)">
<title>src/interval.cpp</title>
<!-- Node1 -->
<g id="Node000001" class="node">
<title>Node1</title>
<g id="a_Node000001"><a xlink:title=" ">
<polygon fill="#999999" stroke="#666666" points="877,-349 785,-349 785,-330 877,-330 877,-349"/>
<text text-anchor="middle" x="831" y="-337" font-family="Helvetica,sans-Serif" font-size="10.00">src/interval.cpp</text>
</a>
</g>
</g>
<!-- Node2 -->
<g id="Node000002" class="node">
<title>Node2</title>
<g id="a_Node000002"><a xlink:href="../../dc/de2/interval_8hpp.html" target="_top" xlink:title="区间与区间并集 IntervalUnion，用于不等式解集表示。">
<polygon fill="white" stroke="#666666" points="892,-294 770,-294 770,-275 892,-275 892,-294"/>
<text text-anchor="middle" x="831" y="-282" font-family="Helvetica,sans-Serif" font-size="10.00">../include/interval.hpp</text>
</a>
</g>
</g>
<!-- Node1&#45;&gt;Node2 -->
<g id="edge1_Node000001_Node000002" class="edge">
<title>Node1&#45;&gt;Node2</title>
<g id="a_edge1_Node000001_Node000002"><a xlink:title=" ">
<path fill="none" stroke="#63b8ff" d="M831,-329.75C831,-322.8 831,-312.85 831,-304.13"/>
<polygon fill="#63b8ff" stroke="#63b8ff" points="834.5,-304.09 831,-294.09 827.5,-304.09 834.5,-304.09"/>
</a>
</g>
</g>
<!-- Node12 -->
<g id="Node000012" class="node">
<title>Node12</title>
<g id="a_Node000012"><a xlink:title=" ">
<polygon fill="#e0e0e0" stroke="#999999" points="180,-19 136,-19 136,0 180,0 180,-19"/>
<text text-anchor="middle" x="158" y="-7" font-family="Helvetica,sans-Serif" font-size="10.00">string</text>
</a>
</g>
</g>
<!-- Node1&#45;&gt;Node12 -->
<g id="edge62_Node000001_Node000012" class="edge">
<title>Node1&#45;&gt;Node12</title>
<g id="a_edge62_Node000001_Node000012"><a xlink:title=" ">
<path fill="none" stroke="#63b8ff" d="M784.6,-337.26C656.91,-333.53 302.31,-320.97 189,-294 118.17,-277.14 38,-303.3 38,-230.5 38,-230.5 38,-230.5 38,-118.5 38,-70.85 90.93,-38.85 126.48,-22.74"/>
<polygon fill="#63b8ff" stroke="#63b8ff" points="128.21,-25.81 135.99,-18.62 125.42,-19.38 128.21,-25.81"/>
</a>
</g>
</g>
<!-- Node14 -->
<g id="Node000014" class="node">
<title>Node14</title>
<g id="a_Node000014"><a xlink:title=" ">
<polygon fill="#e0e0e0" stroke="#999999" points="1295,-19 1231,-19 1231,0 1295,0 1295,-19"/>
<text text-anchor="middle" x="1263" y="-7" font-family="Helvetica,sans-Serif" font-size="10.00">algorithm</text>
</a>
</g>
</g>
<!-- Node1&#45;&gt;Node14 -->
<g id="edge58_Node000001_Node000014" class="edge">
<title>Node1&#45;&gt;Node14</title>
<g id="a_edge58_Node000001_Node000014"><a xlink:title=" ">
<path fill="none" stroke="#63b8ff" d="M877.47,-339.1C1009.26,-339.57 1376,-331.78 1376,-230.5 1376,-230.5 1376,-230.5 1376,-118.5 1376,-72.68 1326.85,-40.32 1293.38,-23.6"/>
<polygon fill="#63b8ff" stroke="#63b8ff" points="1294.52,-20.27 1283.99,-19.11 1291.5,-26.58 1294.52,-20.27"/>
</a>
</g>
</g>
<!-- Node17 -->
<g id="Node000017" class="node">
<title>Node17</title>
<g id="a_Node000017"><a xlink:title=" ">
<polygon fill="#e0e0e0" stroke="#999999" points="98,-19 54,-19 54,0 98,0 98,-19"/>
<text text-anchor="middle" x="76" y="-7" font-family="Helvetica,sans-Serif" font-size="10.00">limits</text>
</a>
</g>
</g>
<!-- Node1&#45;&gt;Node17 -->
<g id="edge60_Node000001_Node000017" class="edge">
<title>Node1&#45;&gt;Node17</title>
<g id="a_edge60_Node000001_Node000017"><a xlink:title=" ">
<path fill="none" stroke="#63b8ff" d="M784.88,-337.84C628.51,-335.31 124.56,-324.85 59,-294 24.14,-277.6 0,-269.02 0,-230.5 0,-230.5 0,-230.5 0,-118.5 0,-79.47 33.61,-44.58 56.13,-25.6"/>
<polygon fill="#63b8ff" stroke="#63b8ff" points="58.56,-28.14 64.12,-19.12 54.15,-22.7 58.56,-28.14"/>
</a>
</g>
</g>
<!-- Node21 -->
<g id="Node000021" class="node">
<title>Node21</title>
<g id="a_Node000021"><a xlink:title=" ">
<polygon fill="#e0e0e0" stroke="#999999" points="449,-74 393,-74 393,-55 449,-55 449,-74"/>
<text text-anchor="middle" x="421" y="-62" font-family="Helvetica,sans-Serif" font-size="10.00">sstream</text>
</a>
</g>
</g>
<!-- Node1&#45;&gt;Node21 -->
<g id="edge61_Node000001_Node000021" class="edge">
<title>Node1&#45;&gt;Node21</title>
<g id="a_edge61_Node000001_Node000021"><a xlink:title=" ">
<path fill="none" stroke="#63b8ff" d="M784.6,-339.32C643.25,-340.71 222.48,-336.48 138,-239 60.51,-149.59 289.32,-92 382.98,-72.7"/>
<polygon fill="#63b8ff" stroke="#63b8ff" points="383.82,-76.1 392.92,-70.69 382.43,-69.24 383.82,-76.1"/>
</a>
</g>
</g>
<!-- Node31 -->
<g id="Node000031" class="node">
<title>Node31</title>
<g id="a_Node000031"><a xlink:title=" ">
<polygon fill="#e0e0e0" stroke="#999999" points="1347.5,-184 1300.5,-184 1300.5,-165 1347.5,-165 1347.5,-184"/>
<text text-anchor="middle" x="1324" y="-172" font-family="Helvetica,sans-Serif" font-size="10.00">cmath</text>
</a>
</g>
</g>
<!-- Node1&#45;&gt;Node31 -->
<g id="edge59_Node000001_Node000031" class="edge">
<title>Node1&#45;&gt;Node31</title>
<g id="a_edge59_Node000001_Node000031"><a xlink:title=" ">
<path fill="none" stroke="#63b8ff" d="M877.37,-333.08C979.57,-320.38 1220.35,-286.21 1286,-239 1301.61,-227.77 1311.96,-207.97 1317.86,-193.45"/>
<polygon fill="#63b8ff" stroke="#63b8ff" points="1321.16,-194.61 1321.38,-184.02 1314.61,-192.16 1321.16,-194.61"/>
</a>
</g>
</g>
<!-- Node34 -->
<g id="Node000034" class="node">
<title>Node34</title>
<g id="a_Node000034"><a xlink:title=" ">
<polygon fill="#e0e0e0" stroke="#999999" points="1453.5,-294 1404.5,-294 1404.5,-275 1453.5,-275 1453.5,-294"/>
<text text-anchor="middle" x="1429" y="-282" font-family="Helvetica,sans-Serif" font-size="10.00">cctype</text>
</a>
</g>
</g>
<!-- Node1&#45;&gt;Node34 -->
<g id="edge63_Node000001_Node000034" class="edge">
<title>Node1&#45;&gt;Node34</title>
<g id="a_edge63_Node000001_Node000034"><a xlink:title=" ">
<path fill="none" stroke="#63b8ff" d="M877.25,-336.93C973.26,-333.22 1201,-321.99 1390,-294 1391.46,-293.78 1392.94,-293.55 1394.44,-293.29"/>
<polygon fill="#63b8ff" stroke="#63b8ff" points="1395.17,-296.71 1404.34,-291.4 1393.86,-289.84 1395.17,-296.71"/>
</a>
</g>
</g>
<!-- Node3 -->
<g id="Node000003" class="node">
<title>Node3</title>
<g id="a_Node000003"><a xlink:href="../../d5/df2/symbolic_8hpp.html" target="_top" xlink:title="符号表达式主类 SymbolicExpr 及其工厂方法、运算接口。">
<polygon fill="white" stroke="#666666" points="468,-239 386,-239 386,-220 468,-220 468,-239"/>
<text text-anchor="middle" x="427" y="-227" font-family="Helvetica,sans-Serif" font-size="10.00">symbolic.hpp</text>
</a>
</g>
</g>
<!-- Node2&#45;&gt;Node3 -->
<g id="edge2_Node000002_Node000003" class="edge">
<title>Node2&#45;&gt;Node3</title>
<g id="a_edge2_Node000002_Node000003"><a xlink:title=" ">
<path fill="none" stroke="#63b8ff" d="M769.64,-275.45C690.06,-265.01 552.65,-246.98 478.32,-237.23"/>
<polygon fill="#63b8ff" stroke="#63b8ff" points="478.63,-233.74 468.26,-235.91 477.72,-240.68 478.63,-233.74"/>
</a>
</g>
</g>
<!-- Node9 -->
<g id="Node000009" class="node">
<title>Node9</title>
<g id="a_Node000009"><a xlink:title=" ">
<polygon fill="#e0e0e0" stroke="#999999" points="1162.5,-19 1115.5,-19 1115.5,0 1162.5,0 1162.5,-19"/>
<text text-anchor="middle" x="1139" y="-7" font-family="Helvetica,sans-Serif" font-size="10.00">vector</text>
</a>
</g>
</g>
<!-- Node2&#45;&gt;Node9 -->
<g id="edge54_Node000002_Node000009" class="edge">
<title>Node2&#45;&gt;Node9</title>
<g id="a_edge54_Node000002_Node000009"><a xlink:title=" ">
<path fill="none" stroke="#63b8ff" d="M892.21,-283C991.69,-278.46 1185.96,-253.21 1272,-129 1304.37,-82.27 1221.67,-41.54 1172.47,-22.3"/>
<polygon fill="#63b8ff" stroke="#63b8ff" points="1173.41,-18.92 1162.82,-18.63 1170.93,-25.46 1173.41,-18.92"/>
</a>
</g>
</g>
<!-- Node2&#45;&gt;Node12 -->
<g id="edge55_Node000002_Node000012" class="edge">
<title>Node2&#45;&gt;Node12</title>
<g id="a_edge55_Node000002_Node000012"><a xlink:title=" ">
<path fill="none" stroke="#63b8ff" d="M769.85,-280.17C602.94,-270.27 152,-237.76 152,-175.5 152,-175.5 152,-175.5 152,-118.5 152,-87.14 154.55,-50.74 156.33,-29.22"/>
<polygon fill="#63b8ff" stroke="#63b8ff" points="159.82,-29.43 157.19,-19.17 152.85,-28.83 159.82,-29.43"/>
</a>
</g>
</g>
<!-- Node25 -->
<g id="Node000025" class="node">
<title>Node25</title>
<g id="a_Node000025"><a xlink:title=" ">
<polygon fill="#e0e0e0" stroke="#999999" points="1263,-129 1205,-129 1205,-110 1263,-110 1263,-129"/>
<text text-anchor="middle" x="1234" y="-117" font-family="Helvetica,sans-Serif" font-size="10.00">memory</text>
</a>
</g>
</g>
<!-- Node2&#45;&gt;Node25 -->
<g id="edge56_Node000002_Node000025" class="edge">
<title>Node2&#45;&gt;Node25</title>
<g id="a_edge56_Node000002_Node000025"><a xlink:title=" ">
<path fill="none" stroke="#63b8ff" d="M852.1,-274.97C918.73,-248.02 1124.86,-164.65 1203.28,-132.92"/>
<polygon fill="#63b8ff" stroke="#63b8ff" points="1204.66,-136.14 1212.62,-129.15 1202.04,-129.65 1204.66,-136.14"/>
</a>
</g>
</g>
<!-- Node33 -->
<g id="Node000033" class="node">
<title>Node33</title>
<g id="a_Node000033"><a xlink:title=" ">
<polygon fill="#e0e0e0" stroke="#999999" points="859,-239 803,-239 803,-220 859,-220 859,-239"/>
<text text-anchor="middle" x="831" y="-227" font-family="Helvetica,sans-Serif" font-size="10.00">optional</text>
</a>
</g>
</g>
<!-- Node2&#45;&gt;Node33 -->
<g id="edge57_Node000002_Node000033" class="edge">
<title>Node2&#45;&gt;Node33</title>
<g id="a_edge57_Node000002_Node000033"><a xlink:title=" ">
<path fill="none" stroke="#63b8ff" d="M831,-274.75C831,-267.8 831,-257.85 831,-249.13"/>
<polygon fill="#63b8ff" stroke="#63b8ff" points="834.5,-249.09 831,-239.09 827.5,-249.09 834.5,-249.09"/>
</a>
</g>
</g>
<!-- Node4 -->
<g id="Node000004" class="node">
<title>Node4</title>
<g id="a_Node000004"><a xlink:href="../../d8/d09/bigint_8hpp.html" target="_top" xlink:title="任意精度整数 BigInt，底层调用 LAMMP 实现高性能大数运算。">
<polygon fill="white" stroke="#666666" points="626.5,-74 561.5,-74 561.5,-55 626.5,-55 626.5,-74"/>
<text text-anchor="middle" x="594" y="-62" font-family="Helvetica,sans-Serif" font-size="10.00">bigint.hpp</text>
</a>
</g>
</g>
<!-- Node3&#45;&gt;Node4 -->
<g id="edge3_Node000003_Node000004" class="edge">
<title>Node3&#45;&gt;Node4</title>
<g id="a_edge3_Node000003_Node000004"><a xlink:title=" ">
<path fill="none" stroke="#63b8ff" d="M415.38,-219.8C389.3,-199.24 330.68,-146.66 361,-110 373.03,-95.46 487.28,-78.93 551.21,-70.71"/>
<polygon fill="#63b8ff" stroke="#63b8ff" points="551.91,-74.15 561.39,-69.42 551.03,-67.2 551.91,-74.15"/>
</a>
</g>
</g>
<!-- Node10 -->
<g id="Node000010" class="node">
<title>Node10</title>
<g id="a_Node000010"><a xlink:title=" ">
<polygon fill="#e0e0e0" stroke="#999999" points="325.5,-19 276.5,-19 276.5,0 325.5,0 325.5,-19"/>
<text text-anchor="middle" x="301" y="-7" font-family="Helvetica,sans-Serif" font-size="10.00">cstdlib</text>
</a>
</g>
</g>
<!-- Node3&#45;&gt;Node10 -->
<g id="edge53_Node000003_Node000010" class="edge">
<title>Node3&#45;&gt;Node10</title>
<g id="a_edge53_Node000003_Node000010"><a xlink:title=" ">
<path fill="none" stroke="#63b8ff" d="M385.74,-223.05C361.13,-217.51 331.54,-206.38 315,-184 280.62,-137.5 289.82,-63.57 296.65,-29.2"/>
<polygon fill="#63b8ff" stroke="#63b8ff" points="300.13,-29.67 298.81,-19.16 293.29,-28.2 300.13,-29.67"/>
</a>
</g>
</g>
<!-- Node3&#45;&gt;Node12 -->
<g id="edge45_Node000003_Node000012" class="edge">
<title>Node3&#45;&gt;Node12</title>
<g id="a_edge45_Node000003_Node000012"><a xlink:title=" ">
<path fill="none" stroke="#63b8ff" d="M385.71,-223.28C354.57,-217.69 312.05,-206.4 281,-184 222.93,-142.1 182.25,-64.11 165.94,-28.76"/>
<polygon fill="#63b8ff" stroke="#63b8ff" points="168.96,-26.93 161.67,-19.24 162.57,-29.8 168.96,-26.93"/>
</a>
</g>
</g>
<!-- Node13 -->
<g id="Node000013" class="node">
<title>Node13</title>
<g id="a_Node000013"><a xlink:title=" ">
<polygon fill="#e0e0e0" stroke="#999999" points="258,-19 198,-19 198,0 258,0 258,-19"/>
<text text-anchor="middle" x="228" y="-7" font-family="Helvetica,sans-Serif" font-size="10.00">iostream</text>
</a>
</g>
</g>
<!-- Node3&#45;&gt;Node13 -->
<g id="edge52_Node000003_Node000013" class="edge">
<title>Node3&#45;&gt;Node13</title>
<g id="a_edge52_Node000003_Node000013"><a xlink:title=" ">
<path fill="none" stroke="#63b8ff" d="M385.92,-222.79C358.84,-217.1 324.21,-205.88 301,-184 255.29,-140.9 237.06,-64.67 230.82,-29.39"/>
<polygon fill="#63b8ff" stroke="#63b8ff" points="234.21,-28.41 229.14,-19.1 227.3,-29.54 234.21,-28.41"/>
</a>
</g>
</g>
<!-- Node3&#45;&gt;Node14 -->
<g id="edge49_Node000003_Node000014" class="edge">
<title>Node3&#45;&gt;Node14</title>
<g id="a_edge49_Node000003_Node000014"><a xlink:title=" ">
<path fill="none" stroke="#63b8ff" d="M468.2,-226.87C630.48,-220.02 1219.26,-191.04 1272,-129 1295.96,-100.81 1281.94,-53.98 1271.39,-28.45"/>
<polygon fill="#63b8ff" stroke="#63b8ff" points="1274.56,-26.96 1267.34,-19.21 1268.15,-29.78 1274.56,-26.96"/>
</a>
</g>
</g>
<!-- Node3&#45;&gt;Node17 -->
<g id="edge48_Node000003_Node000017" class="edge">
<title>Node3&#45;&gt;Node17</title>
<g id="a_edge48_Node000003_Node000017"><a xlink:title=" ">
<path fill="none" stroke="#63b8ff" d="M385.94,-223.75C349.69,-218.23 296.33,-206.79 255,-184 180.55,-142.95 114.96,-62.74 88.47,-27.64"/>
<polygon fill="#63b8ff" stroke="#63b8ff" points="91.1,-25.31 82.32,-19.37 85.48,-29.48 91.1,-25.31"/>
</a>
</g>
</g>
<!-- Node19 -->
<g id="Node000019" class="node">
<title>Node19</title>
<g id="a_Node000019"><a xlink:href="../../d1/de8/rational_8hpp.html" target="_top" xlink:title="精确有理数 Rational，基于 BigInt 分子/分母表示，自动约分。">
<polygon fill="white" stroke="#666666" points="629.5,-129 554.5,-129 554.5,-110 629.5,-110 629.5,-129"/>
<text text-anchor="middle" x="592" y="-117" font-family="Helvetica,sans-Serif" font-size="10.00">rational.hpp</text>
</a>
</g>
</g>
<!-- Node3&#45;&gt;Node19 -->
<g id="edge18_Node000003_Node000019" class="edge">
<title>Node3&#45;&gt;Node19</title>
<g id="a_edge18_Node000003_Node000019"><a xlink:title=" ">
<path fill="none" stroke="#63b8ff" d="M440.97,-219.94C455.35,-211.08 478.37,-196.78 498,-184 523.39,-167.47 552.21,-147.88 571.17,-134.87"/>
<polygon fill="#63b8ff" stroke="#63b8ff" points="573.36,-137.61 579.62,-129.06 569.4,-131.84 573.36,-137.61"/>
</a>
</g>
</g>
<!-- Node22 -->
<g id="Node000022" class="node">
<title>Node22</title>
<g id="a_Node000022"><a xlink:title=" ">
<polygon fill="#e0e0e0" stroke="#999999" points="505,-74 467,-74 467,-55 505,-55 505,-74"/>
<text text-anchor="middle" x="486" y="-62" font-family="Helvetica,sans-Serif" font-size="10.00">map</text>
</a>
</g>
</g>
<!-- Node3&#45;&gt;Node22 -->
<g id="edge50_Node000003_Node000022" class="edge">
<title>Node3&#45;&gt;Node22</title>
<g id="a_edge50_Node000003_Node000022"><a xlink:title=" ">
<path fill="none" stroke="#63b8ff" d="M385.81,-221C364.7,-214.85 340.79,-203.78 328,-184 310.14,-156.39 308.09,-136.18 328,-110 362.45,-64.71 396.75,-88.02 456.87,-74"/>
<polygon fill="#63b8ff" stroke="#63b8ff" points="457.95,-77.33 466.74,-71.42 456.18,-70.56 457.95,-77.33"/>
</a>
</g>
</g>
<!-- Node24 -->
<g id="Node000024" class="node">
<title>Node24</title>
<g id="a_Node000024"><a xlink:href="../../d9/d89/symbolic__ast_8hpp.html" target="_top" xlink:title="AST 节点定义：NumberNode, VariableNode, AddNode, MultiplyNode, PowerNode, FunctionNode,...">
<polygon fill="white" stroke="#666666" points="848,-184 746,-184 746,-165 848,-165 848,-184"/>
<text text-anchor="middle" x="797" y="-172" font-family="Helvetica,sans-Serif" font-size="10.00">symbolic_ast.hpp</text>
</a>
</g>
</g>
<!-- Node3&#45;&gt;Node24 -->
<g id="edge28_Node000003_Node000024" class="edge">
<title>Node3&#45;&gt;Node24</title>
<g id="a_edge28_Node000003_Node000024"><a xlink:title=" ">
<path fill="none" stroke="#63b8ff" d="M468.01,-222.63C532.88,-213.33 659.57,-195.19 735.41,-184.32"/>
<polygon fill="#63b8ff" stroke="#63b8ff" points="736.35,-187.72 745.76,-182.84 735.36,-180.79 736.35,-187.72"/>
</a>
</g>
</g>
<!-- Node3&#45;&gt;Node25 -->
<g id="edge44_Node000003_Node000025" class="edge">
<title>Node3&#45;&gt;Node25</title>
<g id="a_edge44_Node000003_Node000025"><a xlink:title=" ">
<path fill="none" stroke="#63b8ff" d="M468.01,-225.08C544.6,-218.52 714.55,-203.08 857,-184 1006.11,-164.03 1042.97,-155.81 1191,-129 1192.26,-128.77 1193.55,-128.54 1194.84,-128.3"/>
<polygon fill="#63b8ff" stroke="#63b8ff" points="1195.71,-131.69 1204.88,-126.39 1194.4,-124.82 1195.71,-131.69"/>
</a>
</g>
</g>
<!-- Node26 -->
<g id="Node000026" class="node">
<title>Node26</title>
<g id="a_Node000026"><a xlink:title=" ">
<polygon fill="#e0e0e0" stroke="#999999" points="421.5,-129 370.5,-129 370.5,-110 421.5,-110 421.5,-129"/>
<text text-anchor="middle" x="396" y="-117" font-family="Helvetica,sans-Serif" font-size="10.00">variant</text>
</a>
</g>
</g>
<!-- Node3&#45;&gt;Node26 -->
<g id="edge46_Node000003_Node000026" class="edge">
<title>Node3&#45;&gt;Node26</title>
<g id="a_edge46_Node000003_Node000026"><a xlink:title=" ">
<path fill="none" stroke="#63b8ff" d="M424.46,-219.66C419.42,-202.09 408.04,-162.45 401.3,-138.95"/>
<polygon fill="#63b8ff" stroke="#63b8ff" points="404.61,-137.8 398.49,-129.16 397.88,-139.74 404.61,-137.8"/>
</a>
</g>
</g>
<!-- Node3&#45;&gt;Node31 -->
<g id="edge47_Node000003_Node000031" class="edge">
<title>Node3&#45;&gt;Node31</title>
<g id="a_edge47_Node000003_Node000031"><a xlink:title=" ">
<path fill="none" stroke="#63b8ff" d="M468.19,-226.42C584.67,-220.47 926.38,-202.63 1210,-184 1237.01,-182.23 1267.6,-179.93 1290.29,-178.17"/>
<polygon fill="#63b8ff" stroke="#63b8ff" points="1290.73,-181.65 1300.43,-177.38 1290.19,-174.67 1290.73,-181.65"/>
</a>
</g>
</g>
<!-- Node32 -->
<g id="Node000032" class="node">
<title>Node32</title>
<g id="a_Node000032"><a xlink:title=" ">
<polygon fill="#e0e0e0" stroke="#999999" points="489.5,-184 424.5,-184 424.5,-165 489.5,-165 489.5,-184"/>
<text text-anchor="middle" x="457" y="-172" font-family="Helvetica,sans-Serif" font-size="10.00">functional</text>
</a>
</g>
</g>
<!-- Node3&#45;&gt;Node32 -->
<g id="edge51_Node000003_Node000032" class="edge">
<title>Node3&#45;&gt;Node32</title>
<g id="a_edge51_Node000003_Node000032"><a xlink:title=" ">
<path fill="none" stroke="#63b8ff" d="M431.95,-219.75C436.06,-212.49 442.03,-201.95 447.1,-192.98"/>
<polygon fill="#63b8ff" stroke="#63b8ff" points="450.26,-194.52 452.14,-184.09 444.17,-191.07 450.26,-194.52"/>
</a>
</g>
</g>
<!-- Node5 -->
<g id="Node000005" class="node">
<title>Node5</title>
<g id="a_Node000005"><a xlink:title=" ">
<polygon fill="#e0e0e0" stroke="#999999" points="594,-19 502,-19 502,0 594,0 594,-19"/>
<text text-anchor="middle" x="548" y="-7" font-family="Helvetica,sans-Serif" font-size="10.00">lammp/lmmp.h</text>
</a>
</g>
</g>
<!-- Node4&#45;&gt;Node5 -->
<g id="edge4_Node000004_Node000005" class="edge">
<title>Node4&#45;&gt;Node5</title>
<g id="a_edge4_Node000004_Node000005"><a xlink:title=" ">
<path fill="none" stroke="#63b8ff" d="M586.4,-54.75C579.84,-47.18 570.18,-36.05 562.19,-26.84"/>
<polygon fill="#63b8ff" stroke="#63b8ff" points="564.65,-24.35 555.45,-19.09 559.37,-28.94 564.65,-24.35"/>
</a>
</g>
</g>
<!-- Node6 -->
<g id="Node000006" class="node">
<title>Node6</title>
<g id="a_Node000006"><a xlink:title=" ">
<polygon fill="#e0e0e0" stroke="#999999" points="710,-19 612,-19 612,0 710,0 710,-19"/>
<text text-anchor="middle" x="661" y="-7" font-family="Helvetica,sans-Serif" font-size="10.00">lammp/lmmpn.h</text>
</a>
</g>
</g>
<!-- Node4&#45;&gt;Node6 -->
<g id="edge5_Node000004_Node000006" class="edge">
<title>Node4&#45;&gt;Node6</title>
<g id="a_edge5_Node000004_Node000006"><a xlink:title=" ">
<path fill="none" stroke="#63b8ff" d="M604.76,-54.98C614.77,-47.07 629.89,-35.11 641.93,-25.58"/>
<polygon fill="#63b8ff" stroke="#63b8ff" points="644.37,-28.12 650.04,-19.17 640.03,-22.63 644.37,-28.12"/>
</a>
</g>
</g>
<!-- Node7 -->
<g id="Node000007" class="node">
<title>Node7</title>
<g id="a_Node000007"><a xlink:title=" ">
<polygon fill="#e0e0e0" stroke="#999999" points="823.5,-19 728.5,-19 728.5,0 823.5,0 823.5,-19"/>
<text text-anchor="middle" x="776" y="-7" font-family="Helvetica,sans-Serif" font-size="10.00">lammp/numth.h</text>
</a>
</g>
</g>
<!-- Node4&#45;&gt;Node7 -->
<g id="edge6_Node000004_Node000007" class="edge">
<title>Node4&#45;&gt;Node7</title>
<g id="a_edge6_Node000004_Node000007"><a xlink:title=" ">
<path fill="none" stroke="#63b8ff" d="M623.24,-54.98C654.06,-46.01 702.78,-31.82 736.89,-21.89"/>
<polygon fill="#63b8ff" stroke="#63b8ff" points="737.91,-25.24 746.53,-19.08 735.95,-18.52 737.91,-25.24"/>
</a>
</g>
</g>
<!-- Node8 -->
<g id="Node000008" class="node">
<title>Node8</title>
<g id="a_Node000008"><a xlink:title=" ">
<polygon fill="#e0e0e0" stroke="#999999" points="416,-19 344,-19 344,0 416,0 416,-19"/>
<text text-anchor="middle" x="380" y="-7" font-family="Helvetica,sans-Serif" font-size="10.00">lmmc/init.h</text>
</a>
</g>
</g>
<!-- Node4&#45;&gt;Node8 -->
<g id="edge7_Node000004_Node000008" class="edge">
<title>Node4&#45;&gt;Node8</title>
<g id="a_edge7_Node000004_Node000008"><a xlink:title=" ">
<path fill="none" stroke="#63b8ff" d="M561.5,-55.45C524.96,-46.4 465.4,-31.65 424.54,-21.53"/>
<polygon fill="#63b8ff" stroke="#63b8ff" points="425.13,-18.07 414.59,-19.07 423.45,-24.87 425.13,-18.07"/>
</a>
</g>
</g>
<!-- Node4&#45;&gt;Node9 -->
<g id="edge8_Node000004_Node000009" class="edge">
<title>Node4&#45;&gt;Node9</title>
<g id="a_edge8_Node000004_Node000009"><a xlink:title=" ">
<path fill="none" stroke="#63b8ff" d="M626.61,-56.35C629.44,-55.85 632.27,-55.39 635,-55 837.59,-26.17 891.17,-46.03 1094,-19 1097.68,-18.51 1101.52,-17.91 1105.34,-17.27"/>
<polygon fill="#63b8ff" stroke="#63b8ff" points="1106.04,-20.7 1115.26,-15.48 1104.79,-13.81 1106.04,-20.7"/>
</a>
</g>
</g>
<!-- Node4&#45;&gt;Node10 -->
<g id="edge9_Node000004_Node000010" class="edge">
<title>Node4&#45;&gt;Node10</title>
<g id="a_edge9_Node000004_Node000010"><a xlink:title=" ">
<path fill="none" stroke="#63b8ff" d="M561.39,-57.56C556.57,-56.69 551.66,-55.82 547,-55 455.99,-39.04 430.23,-38.62 335.81,-19.03"/>
<polygon fill="#63b8ff" stroke="#63b8ff" points="336.34,-15.56 325.83,-16.94 334.9,-22.42 336.34,-15.56"/>
</a>
</g>
</g>
<!-- Node11 -->
<g id="Node000011" class="node">
<title>Node11</title>
<g id="a_Node000011"><a xlink:title=" ">
<polygon fill="#e0e0e0" stroke="#999999" points="484,-19 434,-19 434,0 484,0 484,-19"/>
<text text-anchor="middle" x="459" y="-7" font-family="Helvetica,sans-Serif" font-size="10.00">cstring</text>
</a>
</g>
</g>
<!-- Node4&#45;&gt;Node11 -->
<g id="edge10_Node000004_Node000011" class="edge">
<title>Node4&#45;&gt;Node11</title>
<g id="a_edge10_Node000004_Node000011"><a xlink:title=" ">
<path fill="none" stroke="#63b8ff" d="M572.31,-54.98C550.2,-46.3 515.68,-32.75 490.55,-22.88"/>
<polygon fill="#63b8ff" stroke="#63b8ff" points="491.67,-19.57 481.08,-19.17 489.11,-26.08 491.67,-19.57"/>
</a>
</g>
</g>
<!-- Node4&#45;&gt;Node12 -->
<g id="edge11_Node000004_Node000012" class="edge">
<title>Node4&#45;&gt;Node12</title>
<g id="a_edge11_Node000004_Node000012"><a xlink:title=" ">
<path fill="none" stroke="#63b8ff" d="M561.44,-57.27C556.61,-56.44 551.68,-55.66 547,-55 391.89,-33.21 348.01,-47.63 190.3,-18.94"/>
<polygon fill="#63b8ff" stroke="#63b8ff" points="190.72,-15.46 180.25,-17.08 189.44,-22.34 190.72,-15.46"/>
</a>
</g>
</g>
<!-- Node4&#45;&gt;Node13 -->
<g id="edge12_Node000004_Node000013" class="edge">
<title>Node4&#45;&gt;Node13</title>
<g id="a_edge12_Node000004_Node000013"><a xlink:title=" ">
<path fill="none" stroke="#63b8ff" d="M561.42,-57.39C556.59,-56.54 551.67,-55.72 547,-55 426.15,-36.32 392.34,-40.16 268.08,-19.05"/>
<polygon fill="#63b8ff" stroke="#63b8ff" points="268.63,-15.59 258.18,-17.35 267.45,-22.49 268.63,-15.59"/>
</a>
</g>
</g>
<!-- Node4&#45;&gt;Node14 -->
<g id="edge13_Node000004_Node000014" class="edge">
<title>Node4&#45;&gt;Node14</title>
<g id="a_edge13_Node000004_Node000014"><a xlink:title=" ">
<path fill="none" stroke="#63b8ff" d="M626.6,-56.32C629.44,-55.82 632.26,-55.37 635,-55 871.56,-22.69 933,-37.98 1171,-19 1187.11,-17.72 1204.79,-16.12 1220.31,-14.67"/>
<polygon fill="#63b8ff" stroke="#63b8ff" points="1221.03,-18.12 1230.66,-13.69 1220.37,-11.15 1221.03,-18.12"/>
</a>
</g>
</g>
<!-- Node15 -->
<g id="Node000015" class="node">
<title>Node15</title>
<g id="a_Node000015"><a xlink:title=" ">
<polygon fill="#e0e0e0" stroke="#999999" points="898,-19 842,-19 842,0 898,0 898,-19"/>
<text text-anchor="middle" x="870" y="-7" font-family="Helvetica,sans-Serif" font-size="10.00">iomanip</text>
</a>
</g>
</g>
<!-- Node4&#45;&gt;Node15 -->
<g id="edge14_Node000004_Node000015" class="edge">
<title>Node4&#45;&gt;Node15</title>
<g id="a_edge14_Node000004_Node000015"><a xlink:title=" ">
<path fill="none" stroke="#63b8ff" d="M626.66,-56.66C629.48,-56.09 632.29,-55.53 635,-55 722.36,-37.96 744.78,-36.72 832,-19 832.1,-18.98 832.2,-18.96 832.3,-18.94"/>
<polygon fill="#63b8ff" stroke="#63b8ff" points="832.74,-22.42 841.8,-16.94 831.3,-15.57 832.74,-22.42"/>
</a>
</g>
</g>
<!-- Node16 -->
<g id="Node000016" class="node">
<title>Node16</title>
<g id="a_Node000016"><a xlink:title=" ">
<polygon fill="#e0e0e0" stroke="#999999" points="1085.5,-19 1020.5,-19 1020.5,0 1085.5,0 1085.5,-19"/>
<text text-anchor="middle" x="1053" y="-7" font-family="Helvetica,sans-Serif" font-size="10.00">stdexcept</text>
</a>
</g>
</g>
<!-- Node4&#45;&gt;Node16 -->
<g id="edge15_Node000004_Node000016" class="edge">
<title>Node4&#45;&gt;Node16</title>
<g id="a_edge15_Node000004_Node000016"><a xlink:title=" ">
<path fill="none" stroke="#63b8ff" d="M626.62,-56.4C629.44,-55.89 632.27,-55.41 635,-55 797.75,-30.41 843.19,-43.16 1010.36,-18.92"/>
<polygon fill="#63b8ff" stroke="#63b8ff" points="1011.12,-22.35 1020.5,-17.43 1010.1,-15.42 1011.12,-22.35"/>
</a>
</g>
</g>
<!-- Node4&#45;&gt;Node17 -->
<g id="edge16_Node000004_Node000017" class="edge">
<title>Node4&#45;&gt;Node17</title>
<g id="a_edge16_Node000004_Node000017"><a xlink:title=" ">
<path fill="none" stroke="#63b8ff" d="M561.31,-59.93C546.82,-58.37 529.57,-56.55 514,-55 342.11,-37.87 298.31,-41.21 127,-19 120.9,-18.21 114.41,-17.23 108.17,-16.23"/>
<polygon fill="#63b8ff" stroke="#63b8ff" points="108.48,-12.73 98.04,-14.53 107.33,-19.63 108.48,-12.73"/>
</a>
</g>
</g>
<!-- Node18 -->
<g id="Node000018" class="node">
<title>Node18</title>
<g id="a_Node000018"><a xlink:title=" ">
<polygon fill="#e0e0e0" stroke="#999999" points="1002,-19 916,-19 916,0 1002,0 1002,-19"/>
<text text-anchor="middle" x="959" y="-7" font-family="Helvetica,sans-Serif" font-size="10.00">lmmc/config.h</text>
</a>
</g>
</g>
<!-- Node4&#45;&gt;Node18 -->
<g id="edge17_Node000004_Node000018" class="edge">
<title>Node4&#45;&gt;Node18</title>
<g id="a_edge17_Node000004_Node000018"><a xlink:title=" ">
<path fill="none" stroke="#63b8ff" d="M626.63,-56.51C629.46,-55.97 632.28,-55.46 635,-55 752.06,-35.15 784.66,-36.74 905.84,-19.13"/>
<polygon fill="#63b8ff" stroke="#63b8ff" points="906.5,-22.57 915.89,-17.65 905.48,-15.64 906.5,-22.57"/>
</a>
</g>
</g>
<!-- Node19&#45;&gt;Node4 -->
<g id="edge21_Node000019_Node000004" class="edge">
<title>Node19&#45;&gt;Node4</title>
<g id="a_edge21_Node000019_Node000004"><a xlink:title=" ">
<path fill="none" stroke="#63b8ff" d="M592.33,-109.75C592.59,-102.8 592.97,-92.85 593.3,-84.13"/>
<polygon fill="#63b8ff" stroke="#63b8ff" points="596.8,-84.21 593.68,-74.09 589.8,-83.95 596.8,-84.21"/>
</a>
</g>
</g>
<!-- Node19&#45;&gt;Node12 -->
<g id="edge25_Node000019_Node000012" class="edge">
<title>Node19&#45;&gt;Node12</title>
<g id="a_edge25_Node000019_Node000012"><a xlink:title=" ">
<path fill="none" stroke="#63b8ff" d="M584.41,-109.67C571.56,-95.39 543.96,-67.55 514,-55 382.97,-0.1 333.95,-44.22 190.31,-18.91"/>
<polygon fill="#63b8ff" stroke="#63b8ff" points="190.72,-15.43 180.25,-17.05 189.45,-22.31 190.72,-15.43"/>
</a>
</g>
</g>
<!-- Node19&#45;&gt;Node15 -->
<g id="edge22_Node000019_Node000015" class="edge">
<title>Node19&#45;&gt;Node15</title>
<g id="a_edge22_Node000019_Node000015"><a xlink:title=" ">
<path fill="none" stroke="#63b8ff" d="M614.28,-109.84C663.51,-90.72 781.66,-44.82 838.46,-22.75"/>
<polygon fill="#63b8ff" stroke="#63b8ff" points="839.95,-25.93 848,-19.05 837.41,-19.41 839.95,-25.93"/>
</a>
</g>
</g>
<!-- Node19&#45;&gt;Node16 -->
<g id="edge24_Node000019_Node000016" class="edge">
<title>Node19&#45;&gt;Node16</title>
<g id="a_edge24_Node000019_Node000016"><a xlink:title=" ">
<path fill="none" stroke="#63b8ff" d="M629.8,-110.12C669.49,-101.29 733.68,-86.9 789,-74 867.12,-55.78 958.02,-33.73 1010.2,-20.99"/>
<polygon fill="#63b8ff" stroke="#63b8ff" points="1011.23,-24.34 1020.11,-18.57 1009.56,-17.54 1011.23,-24.34"/>
</a>
</g>
</g>
<!-- Node19&#45;&gt;Node18 -->
<g id="edge19_Node000019_Node000018" class="edge">
<title>Node19&#45;&gt;Node18</title>
<g id="a_edge19_Node000019_Node000018"><a xlink:title=" ">
<path fill="none" stroke="#63b8ff" d="M621.63,-109.93C652.46,-101.01 702.14,-86.59 745,-74 806.44,-55.95 877.73,-34.74 920.55,-21.98"/>
<polygon fill="#63b8ff" stroke="#63b8ff" points="921.7,-25.29 930.29,-19.07 919.7,-18.58 921.7,-25.29"/>
</a>
</g>
</g>
<!-- Node20 -->
<g id="Node000020" class="node">
<title>Node20</title>
<g id="a_Node000020"><a xlink:title=" ">
<polygon fill="#e0e0e0" stroke="#999999" points="1028,-74 932,-74 932,-55 1028,-55 1028,-74"/>
<text text-anchor="middle" x="980" y="-62" font-family="Helvetica,sans-Serif" font-size="10.00">lmmc/numeric.h</text>
</a>
</g>
</g>
<!-- Node19&#45;&gt;Node20 -->
<g id="edge20_Node000019_Node000020" class="edge">
<title>Node19&#45;&gt;Node20</title>
<g id="a_edge20_Node000019_Node000020"><a xlink:title=" ">
<path fill="none" stroke="#63b8ff" d="M629.68,-111.52C632.83,-110.98 635.97,-110.47 639,-110 738.04,-94.59 853.83,-80.25 921.81,-72.21"/>
<polygon fill="#63b8ff" stroke="#63b8ff" points="922.37,-75.67 931.89,-71.02 921.55,-68.72 922.37,-75.67"/>
</a>
</g>
</g>
<!-- Node19&#45;&gt;Node21 -->
<g id="edge23_Node000019_Node000021" class="edge">
<title>Node19&#45;&gt;Node21</title>
<g id="a_edge23_Node000019_Node000021"><a xlink:title=" ">
<path fill="none" stroke="#63b8ff" d="M564.53,-109.98C535.82,-101.09 490.58,-87.07 458.58,-77.15"/>
<polygon fill="#63b8ff" stroke="#63b8ff" points="459.28,-73.7 448.69,-74.08 457.2,-80.39 459.28,-73.7"/>
</a>
</g>
</g>
<!-- Node19&#45;&gt;Node22 -->
<g id="edge26_Node000019_Node000022" class="edge">
<title>Node19&#45;&gt;Node22</title>
<g id="a_edge26_Node000019_Node000022"><a xlink:title=" ">
<path fill="none" stroke="#63b8ff" d="M574.97,-109.98C558.07,-101.54 531.94,-88.47 512.36,-78.68"/>
<polygon fill="#63b8ff" stroke="#63b8ff" points="513.85,-75.51 503.34,-74.17 510.72,-81.77 513.85,-75.51"/>
</a>
</g>
</g>
<!-- Node23 -->
<g id="Node000023" class="node">
<title>Node23</title>
<g id="a_Node000023"><a xlink:title=" ">
<polygon fill="#e0e0e0" stroke="#999999" points="697.5,-74 644.5,-74 644.5,-55 697.5,-55 697.5,-74"/>
<text text-anchor="middle" x="671" y="-62" font-family="Helvetica,sans-Serif" font-size="10.00">stdint.h</text>
</a>
</g>
</g>
<!-- Node19&#45;&gt;Node23 -->
<g id="edge27_Node000019_Node000023" class="edge">
<title>Node19&#45;&gt;Node23</title>
<g id="a_edge27_Node000019_Node000023"><a xlink:title=" ">
<path fill="none" stroke="#63b8ff" d="M604.69,-109.98C616.83,-101.84 635.36,-89.41 649.75,-79.76"/>
<polygon fill="#63b8ff" stroke="#63b8ff" points="651.72,-82.65 658.08,-74.17 647.82,-76.84 651.72,-82.65"/>
</a>
</g>
</g>
<!-- Node24&#45;&gt;Node4 -->
<g id="edge38_Node000024_Node000004" class="edge">
<title>Node24&#45;&gt;Node4</title>
<g id="a_edge38_Node000024_Node000004"><a xlink:title=" ">
<path fill="none" stroke="#63b8ff" d="M745.91,-171.95C679.81,-168.75 570.13,-158.95 545,-129 531.17,-112.51 551.89,-92.79 570.49,-79.75"/>
<polygon fill="#63b8ff" stroke="#63b8ff" points="572.62,-82.54 579.02,-74.1 568.75,-76.7 572.62,-82.54"/>
</a>
</g>
</g>
<!-- Node24&#45;&gt;Node9 -->
<g id="edge30_Node000024_Node000009" class="edge">
<title>Node24&#45;&gt;Node9</title>
<g id="a_edge30_Node000024_Node000009"><a xlink:title=" ">
<path fill="none" stroke="#63b8ff" d="M848.11,-165.59C924.86,-153.64 1061.49,-132.03 1066,-129 1102.32,-104.61 1123.78,-55.45 1133.23,-28.75"/>
<polygon fill="#63b8ff" stroke="#63b8ff" points="1136.6,-29.71 1136.46,-19.12 1129.96,-27.49 1136.6,-29.71"/>
</a>
</g>
</g>
<!-- Node24&#45;&gt;Node12 -->
<g id="edge31_Node000024_Node000012" class="edge">
<title>Node24&#45;&gt;Node12</title>
<g id="a_edge31_Node000024_Node000012"><a xlink:title=" ">
<path fill="none" stroke="#63b8ff" d="M745.78,-168.13C688.34,-161.51 592.65,-148.65 512,-129 390.02,-99.28 249.95,-46.69 189.01,-22.85"/>
<polygon fill="#63b8ff" stroke="#63b8ff" points="190.17,-19.55 179.58,-19.15 187.61,-26.06 190.17,-19.55"/>
</a>
</g>
</g>
<!-- Node24&#45;&gt;Node14 -->
<g id="edge33_Node000024_Node000014" class="edge">
<title>Node24&#45;&gt;Node14</title>
<g id="a_edge33_Node000024_Node000014"><a xlink:title=" ">
<path fill="none" stroke="#63b8ff" d="M848.27,-165.72C849.86,-165.48 851.44,-165.24 853,-165 958.77,-148.97 991.52,-168.35 1091,-129 1154.22,-103.99 1217.1,-52.05 1246.22,-26.04"/>
<polygon fill="#63b8ff" stroke="#63b8ff" points="1248.77,-28.46 1253.83,-19.15 1244.07,-23.27 1248.77,-28.46"/>
</a>
</g>
</g>
<!-- Node24&#45;&gt;Node16 -->
<g id="edge41_Node000024_Node000016" class="edge">
<title>Node24&#45;&gt;Node16</title>
<g id="a_edge41_Node000024_Node000016"><a xlink:title=" ">
<path fill="none" stroke="#63b8ff" d="M848.08,-165.08C919.65,-153.18 1041.51,-132.49 1045,-129 1071.18,-102.88 1064.6,-55.18 1058.32,-28.97"/>
<polygon fill="#63b8ff" stroke="#63b8ff" points="1061.67,-27.96 1055.74,-19.18 1054.9,-29.74 1061.67,-27.96"/>
</a>
</g>
</g>
<!-- Node24&#45;&gt;Node18 -->
<g id="edge39_Node000024_Node000018" class="edge">
<title>Node24&#45;&gt;Node18</title>
<g id="a_edge39_Node000024_Node000018"><a xlink:title=" ">
<path fill="none" stroke="#63b8ff" d="M847.27,-165C911.89,-153.87 1016.6,-135.06 1023,-129 1047.31,-105.99 1053.81,-83.94 1037,-55 1028.46,-40.29 1013.03,-30.04 998.14,-23.11"/>
<polygon fill="#63b8ff" stroke="#63b8ff" points="999.08,-19.71 988.5,-19.03 996.34,-26.15 999.08,-19.71"/>
</a>
</g>
</g>
<!-- Node24&#45;&gt;Node19 -->
<g id="edge37_Node000024_Node000019" class="edge">
<title>Node24&#45;&gt;Node19</title>
<g id="a_edge37_Node000024_Node000019"><a xlink:title=" ">
<path fill="none" stroke="#63b8ff" d="M764.06,-164.98C729.05,-155.93 673.53,-141.58 635.07,-131.64"/>
<polygon fill="#63b8ff" stroke="#63b8ff" points="635.75,-128.2 625.19,-129.08 634,-134.97 635.75,-128.2"/>
</a>
</g>
</g>
<!-- Node24&#45;&gt;Node20 -->
<g id="edge40_Node000024_Node000020" class="edge">
<title>Node24&#45;&gt;Node20</title>
<g id="a_edge40_Node000024_Node000020"><a xlink:title=" ">
<path fill="none" stroke="#63b8ff" d="M848.15,-169.83C903.51,-164.68 986.51,-153.08 1006,-129 1017.3,-115.04 1006.28,-95.51 995.31,-81.81"/>
<polygon fill="#63b8ff" stroke="#63b8ff" points="997.86,-79.41 988.68,-74.13 992.56,-83.98 997.86,-79.41"/>
</a>
</g>
</g>
<!-- Node24&#45;&gt;Node22 -->
<g id="edge43_Node000024_Node000022" class="edge">
<title>Node24&#45;&gt;Node22</title>
<g id="a_edge43_Node000024_Node000022"><a xlink:title=" ">
<path fill="none" stroke="#63b8ff" d="M745.76,-169.06C680.35,-162.65 571.54,-149.32 537,-129 518.58,-118.16 504.14,-97.99 495.39,-83.28"/>
<polygon fill="#63b8ff" stroke="#63b8ff" points="498.22,-81.16 490.27,-74.16 492.11,-84.59 498.22,-81.16"/>
</a>
</g>
</g>
<!-- Node24&#45;&gt;Node25 -->
<g id="edge29_Node000024_Node000025" class="edge">
<title>Node24&#45;&gt;Node25</title>
<g id="a_edge29_Node000024_Node000025"><a xlink:title=" ">
<path fill="none" stroke="#63b8ff" d="M848.18,-169.08C923.51,-162.27 1068.56,-147.98 1191,-129 1192.27,-128.8 1193.56,-128.6 1194.86,-128.38"/>
<polygon fill="#63b8ff" stroke="#63b8ff" points="1195.68,-131.79 1204.91,-126.59 1194.45,-124.9 1195.68,-131.79"/>
</a>
</g>
</g>
<!-- Node24&#45;&gt;Node26 -->
<g id="edge32_Node000024_Node000026" class="edge">
<title>Node24&#45;&gt;Node26</title>
<g id="a_edge32_Node000024_Node000026"><a xlink:title=" ">
<path fill="none" stroke="#63b8ff" d="M745.98,-168.62C675.87,-161.59 545.92,-147.42 436,-129 434.56,-128.76 433.08,-128.5 431.6,-128.23"/>
<polygon fill="#63b8ff" stroke="#63b8ff" points="432.24,-124.79 421.76,-126.32 430.91,-131.66 432.24,-124.79"/>
</a>
</g>
</g>
<!-- Node27 -->
<g id="Node000027" class="node">
<title>Node27</title>
<g id="a_Node000027"><a xlink:title=" ">
<polygon fill="#e0e0e0" stroke="#999999" points="781.5,-129 716.5,-129 716.5,-110 781.5,-110 781.5,-129"/>
<text text-anchor="middle" x="749" y="-117" font-family="Helvetica,sans-Serif" font-size="10.00">typeindex</text>
</a>
</g>
</g>
<!-- Node24&#45;&gt;Node27 -->
<g id="edge34_Node000024_Node000027" class="edge">
<title>Node24&#45;&gt;Node27</title>
<g id="a_edge34_Node000024_Node000027"><a xlink:title=" ">
<path fill="none" stroke="#63b8ff" d="M789.07,-164.75C782.15,-157.11 771.93,-145.82 763.55,-136.56"/>
<polygon fill="#63b8ff" stroke="#63b8ff" points="766.09,-134.15 756.78,-129.09 760.9,-138.85 766.09,-134.15"/>
</a>
</g>
</g>
<!-- Node28 -->
<g id="Node000028" class="node">
<title>Node28</title>
<g id="a_Node000028"><a xlink:title=" ">
<polygon fill="#e0e0e0" stroke="#999999" points="892.5,-129 799.5,-129 799.5,-110 892.5,-110 892.5,-129"/>
<text text-anchor="middle" x="846" y="-117" font-family="Helvetica,sans-Serif" font-size="10.00">unordered_map</text>
</a>
</g>
</g>
<!-- Node24&#45;&gt;Node28 -->
<g id="edge35_Node000024_Node000028" class="edge">
<title>Node24&#45;&gt;Node28</title>
<g id="a_edge35_Node000024_Node000028"><a xlink:title=" ">
<path fill="none" stroke="#63b8ff" d="M805.09,-164.75C812.16,-157.11 822.59,-145.82 831.15,-136.56"/>
<polygon fill="#63b8ff" stroke="#63b8ff" points="833.84,-138.81 838.06,-129.09 828.7,-134.06 833.84,-138.81"/>
</a>
</g>
</g>
<!-- Node29 -->
<g id="Node000029" class="node">
<title>Node29</title>
<g id="a_Node000029"><a xlink:title=" ">
<polygon fill="#e0e0e0" stroke="#999999" points="997,-129 911,-129 911,-110 997,-110 997,-129"/>
<text text-anchor="middle" x="954" y="-117" font-family="Helvetica,sans-Serif" font-size="10.00">unordered_set</text>
</a>
</g>
</g>
<!-- Node24&#45;&gt;Node29 -->
<g id="edge36_Node000024_Node000029" class="edge">
<title>Node24&#45;&gt;Node29</title>
<g id="a_edge36_Node000024_Node000029"><a xlink:title=" ">
<path fill="none" stroke="#63b8ff" d="M822.22,-164.98C848.36,-156.16 889.4,-142.31 918.73,-132.41"/>
<polygon fill="#63b8ff" stroke="#63b8ff" points="920.22,-135.6 928.58,-129.08 917.98,-128.96 920.22,-135.6"/>
</a>
</g>
</g>
<!-- Node30 -->
<g id="Node000030" class="node">
<title>Node30</title>
<g id="a_Node000030"><a xlink:title=" ">
<polygon fill="#e0e0e0" stroke="#999999" points="698,-129 648,-129 648,-110 698,-110 698,-129"/>
<text text-anchor="middle" x="673" y="-117" font-family="Helvetica,sans-Serif" font-size="10.00">atomic</text>
</a>
</g>
</g>
<!-- Node24&#45;&gt;Node30 -->
<g id="edge42_Node000024_Node000030" class="edge">
<title>Node24&#45;&gt;Node30</title>
<g id="a_edge42_Node000024_Node000030"><a xlink:title=" ">
<path fill="none" stroke="#63b8ff" d="M777.08,-164.98C756.95,-156.38 725.62,-142.99 702.59,-133.15"/>
<polygon fill="#63b8ff" stroke="#63b8ff" points="703.86,-129.88 693.29,-129.17 701.1,-136.32 703.86,-129.88"/>
</a>
</g>
</g>
</g>
</svg>
