<?xml version="1.0" encoding="UTF-8" standalone="no"?>
<!DOCTYPE svg PUBLIC "-//W3C//DTD SVG 1.1//EN"
 "http://www.w3.org/Graphics/SVG/1.1/DTD/svg11.dtd">
<!-- Generated by graphviz version 2.43.0 (0)
 -->
<!-- Title: fac_t Pages: 1 -->
<svg width="58pt" height="164pt"
 viewBox="0.00 0.00 58.00 164.00" xmlns="http://www.w3.org/2000/svg" xmlns:xlink="http://www.w3.org/1999/xlink">

<svg id="main" version="1.1" xmlns="http://www.w3.org/2000/svg" xmlns:xlink="http://www.w3.org/1999/xlink" xml:space="preserve" onload="init(evt)">
<style type="text/css"><![CDATA[
.node, .edge {opacity: 0.7;}
.node.selected, .edge.selected {opacity: 1;}
.edge:hover path { stroke: red; }
.edge:hover polygon { stroke: red; fill: red; }
]]></style>
<script type="application/ecmascript" xlink:href="../../svg.min.js"/>
<svg id="graph" class="graph">
<g id="graph0" class="graph" transform="scale(1 1) rotate(0) translate(4 160)">
<title>fac_t</title>
<!-- Node1 -->
<g id="Node000001" class="node">
<title>Node1</title>
<g id="a_Node000001"><a xlink:title=" ">
<polygon fill="#999999" stroke="transparent" points="42.5,-49 7.5,-49 7.5,0 42.5,0 42.5,-49"/>
<text text-anchor="start" x="13" y="-36.5" font-family="Helvetica,sans-Serif" font-size="10.00">fac_t</text>
<text text-anchor="start" x="23.5" y="-21.5" font-family="Helvetica,sans-Serif" font-size="10.00"> </text>
<text text-anchor="start" x="23.5" y="-6.5" font-family="Helvetica,sans-Serif" font-size="10.00"> </text>
<polygon fill="#666666" stroke="#666666" points="8,-31.5 8,-31.5 43,-31.5 43,-31.5 8,-31.5"/>
<polygon fill="#666666" stroke="#666666" points="8,-16.5 8,-16.5 43,-16.5 43,-16.5 8,-16.5"/>
<polygon fill="none" stroke="#666666" points="7.5,0 7.5,-49 42.5,-49 42.5,0 7.5,0"/>
</a>
</g>
</g>
<!-- Node2 -->
<g id="Node000002" class="node">
<title>Node2</title>
<g id="a_Node000002"><a xlink:title=" ">
<polygon fill="white" stroke="transparent" points="50,-156 0,-156 0,-107 50,-107 50,-156"/>
<text text-anchor="start" x="5" y="-143.5" font-family="Helvetica,sans-Serif" font-size="10.00">uint32_t</text>
<text text-anchor="start" x="23" y="-128.5" font-family="Helvetica,sans-Serif" font-size="10.00"> </text>
<text text-anchor="start" x="23" y="-113.5" font-family="Helvetica,sans-Serif" font-size="10.00"> </text>
<polygon fill="#666666" stroke="#666666" points="0,-138.5 0,-138.5 50,-138.5 50,-138.5 0,-138.5"/>
<polygon fill="#666666" stroke="#666666" points="0,-123.5 0,-123.5 50,-123.5 50,-123.5 0,-123.5"/>
<polygon fill="none" stroke="#666666" points="0,-107 0,-156 50,-156 50,-107 0,-107"/>
</a>
</g>
</g>
<!-- Node2&#45;&gt;Node1 -->
<g id="edge1_Node000001_Node000002" class="edge">
<title>Node2&#45;&gt;Node1</title>
<g id="a_edge1_Node000001_Node000002"><a xlink:title=" ">
<path fill="none" stroke="#63b8ff" d="M25,-106.94C25,-93.52 25,-76.44 25,-61.39"/>
<polygon fill="none" stroke="#63b8ff" points="25,-61.35 21,-55.35 25,-49.35 29,-55.35 25,-61.35"/>
</a>
</g>
<text text-anchor="middle" x="33" y="-81" font-family="Helvetica,sans-Serif" font-size="10.00" fill="grey"> +f</text>
<text text-anchor="middle" x="33" y="-70" font-family="Helvetica,sans-Serif" font-size="10.00" fill="grey">+j</text>
</g>
</g>
</svg>
</svg>

<style type='text/css'>
<![CDATA[
[data-mouse-over-selected='false'] { opacity: 0.7; }
[data-mouse-over-selected='true']  { opacity: 1.0; }
]]>
</style>
<script type="application/ecmascript"><![CDATA[
document.addEventListener('DOMContentLoaded', (event) => {
  highlightEdges();
  highlightAdjacentNodes();
});
]]></script>
</svg>
