<?xml version="1.0" encoding="UTF-8" standalone="no"?>
<!DOCTYPE svg PUBLIC "-//W3C//DTD SVG 1.1//EN"
 "http://www.w3.org/Graphics/SVG/1.1/DTD/svg11.dtd">
<!-- Generated by graphviz version 2.43.0 (0)
 -->
<!-- Title: Value::as_symbolic Pages: 1 -->
<svg width="971pt" height="397pt"
 viewBox="0.00 0.00 971.00 397.00" xmlns="http://www.w3.org/2000/svg" xmlns:xlink="http://www.w3.org/1999/xlink">
<g id="graph0" class="graph" transform="scale(1 1) rotate(0) translate(4 393)">
<title>Value::as_symbolic</title>
<!-- Node1 -->
<g id="Node000001" class="node">
<title>Node1</title>
<g id="a_Node000001"><a xlink:title="将值转换为符号表达式">
<polygon fill="#999999" stroke="#666666" points="110,-295 0,-295 0,-276 110,-276 110,-295"/>
<text text-anchor="middle" x="55" y="-283" font-family="Helvetica,sans-Serif" font-size="10.00">Value::as_symbolic</text>
</a>
</g>
</g>
<!-- Node2 -->
<g id="Node000002" class="node">
<title>Node2</title>
<g id="a_Node000002"><a xlink:href="../../dc/dcb/classValue.html#ae7b7109f4c925d915530caa9f14339a4" target="_top" xlink:title="将值转换为无理数表示">
<polygon fill="white" stroke="#666666" points="264,-389 154,-389 154,-370 264,-370 264,-389"/>
<text text-anchor="middle" x="209" y="-377" font-family="Helvetica,sans-Serif" font-size="10.00">Value::as_irrational</text>
</a>
</g>
</g>
<!-- Node1&#45;&gt;Node2 -->
<g id="edge1_Node000001_Node000002" class="edge">
<title>Node1&#45;&gt;Node2</title>
<g id="a_edge1_Node000001_Node000002"><a xlink:title=" ">
<path fill="none" stroke="#63b8ff" d="M64.74,-295.15C79.81,-311.21 112.29,-343.44 146,-361.5 149.31,-363.27 152.81,-364.89 156.4,-366.36"/>
<polygon fill="#63b8ff" stroke="#63b8ff" points="155.44,-369.73 166.03,-369.92 157.86,-363.17 155.44,-369.73"/>
</a>
</g>
</g>
<!-- Node3 -->
<g id="Node000003" class="node">
<title>Node3</title>
<g id="a_Node000003"><a xlink:href="../../dc/dcb/classValue.html#a3068ad7ca6eb73a6adf25906fa6bf328" target="_top" xlink:title="将值转换为有理数">
<polygon fill="white" stroke="#666666" points="261,-352 157,-352 157,-333 261,-333 261,-352"/>
<text text-anchor="middle" x="209" y="-340" font-family="Helvetica,sans-Serif" font-size="10.00">Value::as_rational</text>
</a>
</g>
</g>
<!-- Node1&#45;&gt;Node3 -->
<g id="edge2_Node000001_Node000003" class="edge">
<title>Node1&#45;&gt;Node3</title>
<g id="a_edge2_Node000001_Node000003"><a xlink:title=" ">
<path fill="none" stroke="#63b8ff" d="M81.44,-295.04C106.54,-304.45 145.1,-318.91 173.07,-329.4"/>
<polygon fill="#63b8ff" stroke="#63b8ff" points="171.88,-332.69 182.48,-332.93 174.34,-326.14 171.88,-332.69"/>
</a>
</g>
</g>
<!-- Node4 -->
<g id="Node000004" class="node">
<title>Node4</title>
<g id="a_Node000004"><a xlink:href="../../dc/d25/classSymbolicExpr.html#a07be18833add0e27e3e46cbfbb45a7b8" target="_top" xlink:title="创建无穷大表达式。">
<polygon fill="white" stroke="#666666" points="270.5,-276 147.5,-276 147.5,-257 270.5,-257 270.5,-276"/>
<text text-anchor="middle" x="209" y="-264" font-family="Helvetica,sans-Serif" font-size="10.00">SymbolicExpr::infinity</text>
</a>
</g>
</g>
<!-- Node1&#45;&gt;Node4 -->
<g id="edge3_Node000001_Node000004" class="edge">
<title>Node1&#45;&gt;Node4</title>
<g id="a_edge3_Node000001_Node000004"><a xlink:title=" ">
<path fill="none" stroke="#63b8ff" d="M110.02,-278.75C118.92,-277.64 128.25,-276.47 137.48,-275.31"/>
<polygon fill="#63b8ff" stroke="#63b8ff" points="137.94,-278.78 147.43,-274.07 137.07,-271.84 137.94,-278.78"/>
</a>
</g>
</g>
<!-- Node6 -->
<g id="Node000006" class="node">
<title>Node6</title>
<g id="a_Node000006"><a xlink:href="../../dc/d25/classSymbolicExpr.html#adeb760bb6f4f28879108394537eca293" target="_top" xlink:title="创建整数数值表达式。">
<polygon fill="white" stroke="#666666" points="436.5,-314 309.5,-314 309.5,-295 436.5,-295 436.5,-314"/>
<text text-anchor="middle" x="373" y="-302" font-family="Helvetica,sans-Serif" font-size="10.00">SymbolicExpr::number</text>
</a>
</g>
</g>
<!-- Node1&#45;&gt;Node6 -->
<g id="edge7_Node000001_Node000006" class="edge">
<title>Node1&#45;&gt;Node6</title>
<g id="a_edge7_Node000001_Node000006"><a xlink:title=" ">
<path fill="none" stroke="#63b8ff" d="M110.32,-288.77C162.51,-291.9 241.72,-296.67 299.32,-300.13"/>
<polygon fill="#63b8ff" stroke="#63b8ff" points="299.25,-303.63 309.45,-300.74 299.68,-296.64 299.25,-303.63"/>
</a>
</g>
</g>
<!-- Node7 -->
<g id="Node000007" class="node">
<title>Node7</title>
<g id="a_Node000007"><a xlink:href="../../dc/d25/classSymbolicExpr.html#a2330e01df216a468e92c026b029855b0" target="_top" xlink:title="从二维元素列表创建矩阵表达式。">
<polygon fill="white" stroke="#666666" points="270,-202 148,-202 148,-183 270,-183 270,-202"/>
<text text-anchor="middle" x="209" y="-190" font-family="Helvetica,sans-Serif" font-size="10.00">SymbolicExpr::matrix</text>
</a>
</g>
</g>
<!-- Node1&#45;&gt;Node7 -->
<g id="edge6_Node000001_Node000007" class="edge">
<title>Node1&#45;&gt;Node7</title>
<g id="a_edge6_Node000001_Node000007"><a xlink:title=" ">
<path fill="none" stroke="#63b8ff" d="M65.07,-275.92C80.36,-260.3 112.85,-229.3 146,-211.5 150.18,-209.25 154.67,-207.23 159.24,-205.42"/>
<polygon fill="#63b8ff" stroke="#63b8ff" points="160.48,-208.7 168.69,-202 158.1,-202.12 160.48,-208.7"/>
</a>
</g>
</g>
<!-- Node8 -->
<g id="Node000008" class="node">
<title>Node8</title>
<g id="a_Node000008"><a xlink:href="../../d8/df2/classIrrational.html#abae13f4d9561baaa42d240270879417b" target="_top" xlink:title="将无理数转换为符号表达式">
<polygon fill="white" stroke="#666666" points="272,-239 146,-239 146,-220 272,-220 272,-239"/>
<text text-anchor="middle" x="209" y="-227" font-family="Helvetica,sans-Serif" font-size="10.00">Irrational::to_symbolic</text>
</a>
</g>
</g>
<!-- Node1&#45;&gt;Node8 -->
<g id="edge8_Node000001_Node000008" class="edge">
<title>Node1&#45;&gt;Node8</title>
<g id="a_edge8_Node000001_Node000008"><a xlink:title=" ">
<path fill="none" stroke="#63b8ff" d="M77.6,-275.96C95.7,-268.12 122.3,-256.98 146,-248.5 152.05,-246.33 158.49,-244.19 164.84,-242.16"/>
<polygon fill="#63b8ff" stroke="#63b8ff" points="166.17,-245.41 174.67,-239.09 164.08,-238.73 166.17,-245.41"/>
</a>
</g>
</g>
<!-- Node5 -->
<g id="Node000005" class="node">
<title>Node5</title>
<g id="a_Node000005"><a xlink:href="../../dc/d25/classSymbolicExpr.html#ad03189fc8a4db7762f7c1ca890674bbc" target="_top" xlink:title="创建乘法表达式。">
<polygon fill="white" stroke="#666666" points="438,-277 308,-277 308,-258 438,-258 438,-277"/>
<text text-anchor="middle" x="373" y="-265" font-family="Helvetica,sans-Serif" font-size="10.00">SymbolicExpr::multiply</text>
</a>
</g>
</g>
<!-- Node4&#45;&gt;Node5 -->
<g id="edge4_Node000004_Node000005" class="edge">
<title>Node4&#45;&gt;Node5</title>
<g id="a_edge4_Node000004_Node000005"><a xlink:title=" ">
<path fill="none" stroke="#63b8ff" d="M270.78,-266.88C279.59,-266.93 288.74,-266.99 297.77,-267.04"/>
<polygon fill="#63b8ff" stroke="#63b8ff" points="297.88,-270.54 307.9,-267.1 297.92,-263.54 297.88,-270.54"/>
</a>
</g>
</g>
<!-- Node4&#45;&gt;Node6 -->
<g id="edge5_Node000004_Node000006" class="edge">
<title>Node4&#45;&gt;Node6</title>
<g id="a_edge5_Node000004_Node000006"><a xlink:title=" ">
<path fill="none" stroke="#63b8ff" d="M250.88,-276.09C272.35,-281.13 298.86,-287.34 321.6,-292.68"/>
<polygon fill="#63b8ff" stroke="#63b8ff" points="320.88,-296.1 331.41,-294.98 322.48,-289.29 320.88,-296.1"/>
</a>
</g>
</g>
<!-- Node8&#45;&gt;Node5 -->
<g id="edge23_Node000008_Node000005" class="edge">
<title>Node8&#45;&gt;Node5</title>
<g id="a_edge23_Node000008_Node000005"><a xlink:title=" ">
<path fill="none" stroke="#63b8ff" d="M250.88,-239.09C272.35,-244.13 298.86,-250.34 321.6,-255.68"/>
<polygon fill="#63b8ff" stroke="#63b8ff" points="320.88,-259.1 331.41,-257.98 322.48,-252.29 320.88,-259.1"/>
</a>
</g>
</g>
<!-- Node8&#45;&gt;Node6 -->
<g id="edge24_Node000008_Node000006" class="edge">
<title>Node8&#45;&gt;Node6</title>
<g id="a_edge24_Node000008_Node000006"><a xlink:title=" ">
<path fill="none" stroke="#63b8ff" d="M251.65,-239.01C258.72,-241.52 265.78,-244.64 272,-248.5 291.77,-260.76 288.09,-274.47 308,-286.5 310.82,-288.2 313.8,-289.75 316.87,-291.15"/>
<polygon fill="#63b8ff" stroke="#63b8ff" points="315.73,-294.46 326.31,-294.95 318.34,-287.97 315.73,-294.46"/>
</a>
</g>
</g>
<!-- Node9 -->
<g id="Node000009" class="node">
<title>Node9</title>
<g id="a_Node000009"><a xlink:href="../../dc/d25/classSymbolicExpr.html#ac8782568f037f8055277e5d8b80ec6d6" target="_top" xlink:title="创建加法表达式。">
<polygon fill="white" stroke="#666666" points="426.5,-203 319.5,-203 319.5,-184 426.5,-184 426.5,-203"/>
<text text-anchor="middle" x="373" y="-191" font-family="Helvetica,sans-Serif" font-size="10.00">SymbolicExpr::add</text>
</a>
</g>
</g>
<!-- Node8&#45;&gt;Node9 -->
<g id="edge9_Node000008_Node000009" class="edge">
<title>Node8&#45;&gt;Node9</title>
<g id="a_edge9_Node000008_Node000009"><a xlink:title=" ">
<path fill="none" stroke="#63b8ff" d="M252.99,-219.95C273.3,-215.43 297.73,-210 319.17,-205.24"/>
<polygon fill="#63b8ff" stroke="#63b8ff" points="320.09,-208.62 329.09,-203.03 318.57,-201.79 320.09,-208.62"/>
</a>
</g>
</g>
<!-- Node10 -->
<g id="Node000010" class="node">
<title>Node10</title>
<g id="a_Node000010"><a xlink:href="../../d8/df2/classIrrational.html#a26d19cb0ec234fe8b6dca2701c2da363" target="_top" xlink:title="构造 e 的倍数">
<polygon fill="white" stroke="#666666" points="409.5,-166 336.5,-166 336.5,-147 409.5,-147 409.5,-166"/>
<text text-anchor="middle" x="373" y="-154" font-family="Helvetica,sans-Serif" font-size="10.00">Irrational::e</text>
</a>
</g>
</g>
<!-- Node8&#45;&gt;Node10 -->
<g id="edge10_Node000008_Node000010" class="edge">
<title>Node8&#45;&gt;Node10</title>
<g id="a_edge10_Node000008_Node000010"><a xlink:title=" ">
<path fill="none" stroke="#63b8ff" d="M253.53,-219.91C259.95,-217.64 266.31,-214.87 272,-211.5 291.48,-199.98 288.56,-187.08 308,-175.5 313.82,-172.03 320.32,-169.16 326.89,-166.79"/>
<polygon fill="#63b8ff" stroke="#63b8ff" points="328.05,-170.09 336.48,-163.66 325.89,-163.43 328.05,-170.09"/>
</a>
</g>
</g>
<!-- Node11 -->
<g id="Node000011" class="node">
<title>Node11</title>
<g id="a_Node000011"><a xlink:href="../../d8/da7/classRational.html#ac7a93fda9943083585843c9bd56e3fce" target="_top" xlink:title="从 double 构造有理数">
<polygon fill="white" stroke="#666666" points="435.5,-129 310.5,-129 310.5,-110 435.5,-110 435.5,-129"/>
<text text-anchor="middle" x="373" y="-117" font-family="Helvetica,sans-Serif" font-size="10.00">Rational::from_double</text>
</a>
</g>
</g>
<!-- Node8&#45;&gt;Node11 -->
<g id="edge11_Node000008_Node000011" class="edge">
<title>Node8&#45;&gt;Node11</title>
<g id="a_edge11_Node000008_Node000011"><a xlink:title=" ">
<path fill="none" stroke="#63b8ff" d="M258.43,-219.86C263.32,-217.63 267.96,-214.88 272,-211.5 299.72,-188.26 280.35,-161.82 308,-138.5 310.02,-136.8 312.18,-135.25 314.45,-133.84"/>
<polygon fill="#63b8ff" stroke="#63b8ff" points="316.37,-136.79 323.63,-129.06 313.14,-130.58 316.37,-136.79"/>
</a>
</g>
</g>
<!-- Node22 -->
<g id="Node000022" class="node">
<title>Node22</title>
<g id="a_Node000022"><a xlink:href="../../dc/d25/classSymbolicExpr.html#a521dfd712070d4f40d313de79d3f637c" target="_top" xlink:title="创建平方根表达式，等价于 operand^(1/2)。">
<polygon fill="white" stroke="#666666" points="427,-92 319,-92 319,-73 427,-73 427,-92"/>
<text text-anchor="middle" x="373" y="-80" font-family="Helvetica,sans-Serif" font-size="10.00">SymbolicExpr::sqrt</text>
</a>
</g>
</g>
<!-- Node8&#45;&gt;Node22 -->
<g id="edge25_Node000008_Node000022" class="edge">
<title>Node8&#45;&gt;Node22</title>
<g id="a_edge25_Node000008_Node000022"><a xlink:title=" ">
<path fill="none" stroke="#63b8ff" d="M259.84,-219.96C264.3,-217.71 268.45,-214.93 272,-211.5 308.98,-175.74 271.13,-137.37 308,-101.5 309.5,-100.05 311.1,-98.7 312.78,-97.46"/>
<polygon fill="#63b8ff" stroke="#63b8ff" points="315.02,-100.2 321.8,-92.06 311.43,-94.19 315.02,-100.2"/>
</a>
</g>
</g>
<!-- Node23 -->
<g id="Node000023" class="node">
<title>Node23</title>
<g id="a_Node000023"><a xlink:href="../../dc/d25/classSymbolicExpr.html#a1718e8c497b928507b31acb089cc64ff" target="_top" xlink:title="创建变量表达式。">
<polygon fill="white" stroke="#666666" points="437.5,-240 308.5,-240 308.5,-221 437.5,-221 437.5,-240"/>
<text text-anchor="middle" x="373" y="-228" font-family="Helvetica,sans-Serif" font-size="10.00">SymbolicExpr::variable</text>
</a>
</g>
</g>
<!-- Node8&#45;&gt;Node23 -->
<g id="edge26_Node000008_Node000023" class="edge">
<title>Node8&#45;&gt;Node23</title>
<g id="a_edge26_Node000008_Node000023"><a xlink:title=" ">
<path fill="none" stroke="#63b8ff" d="M272.17,-229.88C280.7,-229.94 289.52,-229.99 298.24,-230.04"/>
<polygon fill="#63b8ff" stroke="#63b8ff" points="298.37,-233.55 308.39,-230.11 298.41,-226.55 298.37,-233.55"/>
</a>
</g>
</g>
<!-- Node12 -->
<g id="Node000012" class="node">
<title>Node12</title>
<g id="a_Node000012"><a xlink:href="../../d8/da7/classRational.html#a3bbd6ff67c590da76ddfcbd48cd3de0a" target="_top" xlink:title="默认构造，值为 0">
<polygon fill="white" stroke="#666666" points="578,-147 474,-147 474,-128 578,-128 578,-147"/>
<text text-anchor="middle" x="526" y="-135" font-family="Helvetica,sans-Serif" font-size="10.00">Rational::Rational</text>
</a>
</g>
</g>
<!-- Node11&#45;&gt;Node12 -->
<g id="edge12_Node000011_Node000012" class="edge">
<title>Node11&#45;&gt;Node12</title>
<g id="a_edge12_Node000011_Node000012"><a xlink:title=" ">
<path fill="none" stroke="#63b8ff" d="M435.85,-126.87C444.97,-127.96 454.35,-129.08 463.46,-130.16"/>
<polygon fill="#63b8ff" stroke="#63b8ff" points="463.25,-133.66 473.59,-131.37 464.08,-126.71 463.25,-133.66"/>
</a>
</g>
</g>
<!-- Node13 -->
<g id="Node000013" class="node">
<title>Node13</title>
<g id="a_Node000013"><a xlink:href="../../d8/da7/classRational.html#a3d410504846bf492103a5c2a8b53d7c6" target="_top" xlink:title=" ">
<polygon fill="white" stroke="#666666" points="577,-110 475,-110 475,-91 577,-91 577,-110"/>
<text text-anchor="middle" x="526" y="-98" font-family="Helvetica,sans-Serif" font-size="10.00">Rational::simplify</text>
</a>
</g>
</g>
<!-- Node11&#45;&gt;Node13 -->
<g id="edge13_Node000011_Node000013" class="edge">
<title>Node11&#45;&gt;Node13</title>
<g id="a_edge13_Node000011_Node000013"><a xlink:title=" ">
<path fill="none" stroke="#63b8ff" d="M435.85,-111.72C445.3,-110.53 455.05,-109.3 464.47,-108.12"/>
<polygon fill="#63b8ff" stroke="#63b8ff" points="465.05,-111.57 474.54,-106.85 464.18,-104.63 465.05,-111.57"/>
</a>
</g>
</g>
<!-- Node14 -->
<g id="Node000014" class="node">
<title>Node14</title>
<g id="a_Node000014"><a xlink:href="../../da/d5b/classBigInt.html#a4bff1a207fd14cd96badb54d0a470c1a" target="_top" xlink:title="取绝对值">
<polygon fill="white" stroke="#666666" points="838.5,-148 769.5,-148 769.5,-129 838.5,-129 838.5,-148"/>
<text text-anchor="middle" x="804" y="-136" font-family="Helvetica,sans-Serif" font-size="10.00">BigInt::Abs</text>
</a>
</g>
</g>
<!-- Node13&#45;&gt;Node14 -->
<g id="edge14_Node000013_Node000014" class="edge">
<title>Node13&#45;&gt;Node14</title>
<g id="a_edge14_Node000013_Node000014"><a xlink:title=" ">
<path fill="none" stroke="#63b8ff" d="M566.23,-110.07C581.12,-113.44 598.27,-117 614,-119.5 663.42,-127.35 720.65,-132.57 759.08,-135.52"/>
<polygon fill="#63b8ff" stroke="#63b8ff" points="759.16,-139.04 769.39,-136.29 759.68,-132.06 759.16,-139.04"/>
</a>
</g>
</g>
<!-- Node15 -->
<g id="Node000015" class="node">
<title>Node15</title>
<g id="a_Node000015"><a xlink:href="../../da/d5b/classBigInt.html#a4804d5bec19a3d92f9c34713c83ef7e1" target="_top" xlink:title="计算最大公约数">
<polygon fill="white" stroke="#666666" points="700,-110 632,-110 632,-91 700,-91 700,-110"/>
<text text-anchor="middle" x="666" y="-98" font-family="Helvetica,sans-Serif" font-size="10.00">BigInt::gcd</text>
</a>
</g>
</g>
<!-- Node13&#45;&gt;Node15 -->
<g id="edge15_Node000013_Node000015" class="edge">
<title>Node13&#45;&gt;Node15</title>
<g id="a_edge15_Node000013_Node000015"><a xlink:title=" ">
<path fill="none" stroke="#63b8ff" d="M577.21,-100.5C591.7,-100.5 607.4,-100.5 621.45,-100.5"/>
<polygon fill="#63b8ff" stroke="#63b8ff" points="621.83,-104 631.83,-100.5 621.83,-97 621.83,-104"/>
</a>
</g>
</g>
<!-- Node21 -->
<g id="Node000021" class="node">
<title>Node21</title>
<g id="a_Node000021"><a xlink:href="../../da/d5b/classBigInt.html#ae5d874ccb625319e093bec91b29e5a24" target="_top" xlink:title="判断是否为负数">
<polygon fill="white" stroke="#666666" points="718,-73 614,-73 614,-54 718,-54 718,-73"/>
<text text-anchor="middle" x="666" y="-61" font-family="Helvetica,sans-Serif" font-size="10.00">BigInt::IsNegative</text>
</a>
</g>
</g>
<!-- Node13&#45;&gt;Node21 -->
<g id="edge22_Node000013_Node000021" class="edge">
<title>Node13&#45;&gt;Node21</title>
<g id="a_edge22_Node000013_Node000021"><a xlink:title=" ">
<path fill="none" stroke="#63b8ff" d="M562.54,-90.97C579.87,-86.33 600.91,-80.68 619.41,-75.72"/>
<polygon fill="#63b8ff" stroke="#63b8ff" points="620.35,-79.1 629.1,-73.12 618.54,-72.33 620.35,-79.1"/>
</a>
</g>
</g>
<!-- Node15&#45;&gt;Node14 -->
<g id="edge16_Node000015_Node000014" class="edge">
<title>Node15&#45;&gt;Node14</title>
<g id="a_edge16_Node000015_Node000014"><a xlink:title=" ">
<path fill="none" stroke="#63b8ff" d="M700.27,-109.8C718.08,-114.77 740.24,-120.96 759.41,-126.32"/>
<polygon fill="#63b8ff" stroke="#63b8ff" points="758.56,-129.72 769.13,-129.04 760.44,-122.97 758.56,-129.72"/>
</a>
</g>
</g>
<!-- Node16 -->
<g id="Node000016" class="node">
<title>Node16</title>
<g id="a_Node000016"><a xlink:href="../../da/d5b/classBigInt.html#a6ae37e804e0989cb245f32f90a2d5f64" target="_top" xlink:title="判断是否为零">
<polygon fill="white" stroke="#666666" points="847,-111 761,-111 761,-92 847,-92 847,-111"/>
<text text-anchor="middle" x="804" y="-99" font-family="Helvetica,sans-Serif" font-size="10.00">BigInt::is_zero</text>
</a>
</g>
</g>
<!-- Node15&#45;&gt;Node16 -->
<g id="edge17_Node000015_Node000016" class="edge">
<title>Node15&#45;&gt;Node16</title>
<g id="a_edge17_Node000015_Node000016"><a xlink:title=" ">
<path fill="none" stroke="#63b8ff" d="M700.27,-100.74C715.38,-100.86 733.61,-100.99 750.5,-101.11"/>
<polygon fill="#63b8ff" stroke="#63b8ff" points="750.78,-104.62 760.8,-101.19 750.83,-97.62 750.78,-104.62"/>
</a>
</g>
</g>
<!-- Node17 -->
<g id="Node000017" class="node">
<title>Node17</title>
<g id="a_Node000017"><a xlink:href="../../da/d5b/classBigInt.html#a3b10bb8ac846314c6e4ad6167e5ec5bf" target="_top" xlink:title=" ">
<polygon fill="white" stroke="#666666" points="854,-74 754,-74 754,-55 854,-55 854,-74"/>
<text text-anchor="middle" x="804" y="-62" font-family="Helvetica,sans-Serif" font-size="10.00">BigInt::normalize</text>
</a>
</g>
</g>
<!-- Node15&#45;&gt;Node17 -->
<g id="edge18_Node000015_Node000017" class="edge">
<title>Node15&#45;&gt;Node17</title>
<g id="a_edge18_Node000015_Node000017"><a xlink:title=" ">
<path fill="none" stroke="#63b8ff" d="M700.27,-91.69C717.33,-87.18 738.39,-81.6 756.98,-76.68"/>
<polygon fill="#63b8ff" stroke="#63b8ff" points="757.96,-80.04 766.73,-74.1 756.17,-73.28 757.96,-80.04"/>
</a>
</g>
</g>
<!-- Node18 -->
<g id="Node000018" class="node">
<title>Node18</title>
<g id="a_Node000018"><a xlink:href="../../da/d5b/classBigInt.html#ad0b220e3ad54190c7cc069355f8d134d" target="_top" xlink:title=" ">
<polygon fill="white" stroke="#666666" points="853.5,-37 754.5,-37 754.5,-18 853.5,-18 853.5,-37"/>
<text text-anchor="middle" x="804" y="-25" font-family="Helvetica,sans-Serif" font-size="10.00">BigInt::realloc_to</text>
</a>
</g>
</g>
<!-- Node15&#45;&gt;Node18 -->
<g id="edge19_Node000015_Node000018" class="edge">
<title>Node15&#45;&gt;Node18</title>
<g id="a_edge19_Node000015_Node000018"><a xlink:title=" ">
<path fill="none" stroke="#63b8ff" d="M700.11,-91.25C706.29,-88.85 712.52,-85.95 718,-82.5 737.14,-70.44 735.04,-58.86 754,-46.5 756.92,-44.6 760.05,-42.84 763.28,-41.23"/>
<polygon fill="#63b8ff" stroke="#63b8ff" points="764.82,-44.37 772.49,-37.06 761.94,-37.99 764.82,-44.37"/>
</a>
</g>
</g>
<!-- Node19 -->
<g id="Node000019" class="node">
<title>Node19</title>
<g id="a_Node000019"><a xlink:href="../../d8/d09/bigint_8hpp.html#a9026e394fc1db1b74fe5802cac9d3793" target="_top" xlink:title="为 BigInt 分配内存">
<polygon fill="white" stroke="#666666" points="963,-56 890,-56 890,-37 963,-37 963,-56"/>
<text text-anchor="middle" x="926.5" y="-44" font-family="Helvetica,sans-Serif" font-size="10.00">bigint_alloc</text>
</a>
</g>
</g>
<!-- Node18&#45;&gt;Node19 -->
<g id="edge20_Node000018_Node000019" class="edge">
<title>Node18&#45;&gt;Node19</title>
<g id="a_edge20_Node000018_Node000019"><a xlink:title=" ">
<path fill="none" stroke="#63b8ff" d="M853.66,-35.17C862.4,-36.55 871.47,-37.98 880.1,-39.34"/>
<polygon fill="#63b8ff" stroke="#63b8ff" points="879.57,-42.8 889.99,-40.9 880.66,-35.89 879.57,-42.8"/>
</a>
</g>
</g>
<!-- Node20 -->
<g id="Node000020" class="node">
<title>Node20</title>
<g id="a_Node000020"><a xlink:href="../../d8/d09/bigint_8hpp.html#a6fd664dfe6c832ce148d818c5663fa93" target="_top" xlink:title="释放 BigInt 内部分配的内存">
<polygon fill="white" stroke="#666666" points="961,-19 892,-19 892,0 961,0 961,-19"/>
<text text-anchor="middle" x="926.5" y="-7" font-family="Helvetica,sans-Serif" font-size="10.00">bigint_free</text>
</a>
</g>
</g>
<!-- Node18&#45;&gt;Node20 -->
<g id="edge21_Node000018_Node000020" class="edge">
<title>Node18&#45;&gt;Node20</title>
<g id="a_edge21_Node000018_Node000020"><a xlink:title=" ">
<path fill="none" stroke="#63b8ff" d="M853.66,-20.23C862.97,-18.84 872.65,-17.39 881.79,-16.03"/>
<polygon fill="#63b8ff" stroke="#63b8ff" points="882.44,-19.47 891.82,-14.53 881.41,-12.55 882.44,-19.47"/>
</a>
</g>
</g>
</g>
</svg>
