<?xml version="1.0" encoding="UTF-8" standalone="no"?>
<!DOCTYPE svg PUBLIC "-//W3C//DTD SVG 1.1//EN"
 "http://www.w3.org/Graphics/SVG/1.1/DTD/svg11.dtd">
<!-- Generated by graphviz version 2.43.0 (0)
 -->
<!-- Title: Value::vector_add Pages: 1 -->
<svg width="252pt" height="138pt"
 viewBox="0.00 0.00 252.00 138.00" xmlns="http://www.w3.org/2000/svg" xmlns:xlink="http://www.w3.org/1999/xlink">

<svg id="main" version="1.1" xmlns="http://www.w3.org/2000/svg" xmlns:xlink="http://www.w3.org/1999/xlink" xml:space="preserve" onload="init(evt)">
<style type="text/css"><![CDATA[
.node, .edge {opacity: 0.7;}
.node.selected, .edge.selected {opacity: 1;}
.edge:hover path { stroke: red; }
.edge:hover polygon { stroke: red; fill: red; }
]]></style>
<script type="application/ecmascript" xlink:href="../../svg.min.js"/>
<svg id="graph" class="graph">
<g id="graph0" class="graph" transform="scale(1 1) rotate(0) translate(4 134)">
<title>Value::vector_add</title>
<!-- Node1 -->
<g id="Node000001" class="node">
<title>Node1</title>
<g id="a_Node000001"><a xlink:title="向量加法">
<polygon fill="#999999" stroke="#666666" points="104,-74 0,-74 0,-55 104,-55 104,-74"/>
<text text-anchor="middle" x="52" y="-62" font-family="Helvetica,sans-Serif" font-size="10.00">Value::vector_add</text>
</a>
</g>
</g>
<!-- Node2 -->
<g id="Node000002" class="node">
<title>Node2</title>
<g id="a_Node000002"><a xlink:href="../../dc/dcb/classValue.html#abc2a5a2e6484fac66dae2539cc955667" target="_top" xlink:title="默认构造，初始化为 Null">
<polygon fill="white" stroke="#666666" points="230.5,-130 153.5,-130 153.5,-111 230.5,-111 230.5,-130"/>
<text text-anchor="middle" x="192" y="-118" font-family="Helvetica,sans-Serif" font-size="10.00">Value::Value</text>
</a>
</g>
</g>
<!-- Node1&#45;&gt;Node2 -->
<g id="edge1_Node000001_Node000002" class="edge">
<title>Node1&#45;&gt;Node2</title>
<g id="a_edge1_Node000001_Node000002"><a xlink:title=" ">
<path fill="none" stroke="#63b8ff" d="M73.92,-74.15C91.43,-82.1 117.15,-93.49 140,-102.5 144.24,-104.17 148.71,-105.86 153.17,-107.49"/>
<polygon fill="#63b8ff" stroke="#63b8ff" points="152.21,-110.87 162.81,-110.96 154.58,-104.28 152.21,-110.87"/>
</a>
</g>
</g>
<!-- Node3 -->
<g id="Node000003" class="node">
<title>Node3</title>
<g id="a_Node000003"><a xlink:href="../../dc/dcb/classValue.html#af76f4225286acc277e54c788c210db8f" target="_top" xlink:title="将值转换为浮点数">
<polygon fill="white" stroke="#666666" points="244,-93 140,-93 140,-74 244,-74 244,-93"/>
<text text-anchor="middle" x="192" y="-81" font-family="Helvetica,sans-Serif" font-size="10.00">Value::as_number</text>
</a>
</g>
</g>
<!-- Node1&#45;&gt;Node3 -->
<g id="edge2_Node000001_Node000003" class="edge">
<title>Node1&#45;&gt;Node3</title>
<g id="a_edge2_Node000001_Node000003"><a xlink:title=" ">
<path fill="none" stroke="#63b8ff" d="M104.39,-71.57C112.56,-72.7 121.08,-73.87 129.46,-75.03"/>
<polygon fill="#63b8ff" stroke="#63b8ff" points="129.19,-78.52 139.57,-76.42 130.14,-71.59 129.19,-78.52"/>
</a>
</g>
</g>
<!-- Node4 -->
<g id="Node000004" class="node">
<title>Node4</title>
<g id="a_Node000004"><a xlink:href="../../dc/dcb/classValue.html#afc05cae2f32b1c756bf29aea93d6adaf" target="_top" xlink:title=" ">
<polygon fill="white" stroke="#666666" points="236.5,-56 147.5,-56 147.5,-37 236.5,-37 236.5,-56"/>
<text text-anchor="middle" x="192" y="-44" font-family="Helvetica,sans-Serif" font-size="10.00">Value::is_array</text>
</a>
</g>
</g>
<!-- Node1&#45;&gt;Node4 -->
<g id="edge3_Node000001_Node000004" class="edge">
<title>Node1&#45;&gt;Node4</title>
<g id="a_edge3_Node000001_Node000004"><a xlink:title=" ">
<path fill="none" stroke="#63b8ff" d="M104.39,-57.8C115.07,-56.4 126.36,-54.93 137.13,-53.53"/>
<polygon fill="#63b8ff" stroke="#63b8ff" points="137.8,-56.97 147.26,-52.2 136.9,-50.03 137.8,-56.97"/>
</a>
</g>
</g>
<!-- Node5 -->
<g id="Node000005" class="node">
<title>Node5</title>
<g id="a_Node000005"><a xlink:href="../../dc/dcb/classValue.html#a1d54cb15aaeac30b8689c3440149c1e5" target="_top" xlink:title=" ">
<polygon fill="white" stroke="#666666" points="243.5,-19 140.5,-19 140.5,0 243.5,0 243.5,-19"/>
<text text-anchor="middle" x="192" y="-7" font-family="Helvetica,sans-Serif" font-size="10.00">Value::is_numeric</text>
</a>
</g>
</g>
<!-- Node1&#45;&gt;Node5 -->
<g id="edge4_Node000001_Node000005" class="edge">
<title>Node1&#45;&gt;Node5</title>
<g id="a_edge4_Node000001_Node000005"><a xlink:title=" ">
<path fill="none" stroke="#63b8ff" d="M75.44,-54.95C92.96,-47.57 117.94,-37.17 140,-28.5 144.88,-26.58 150.03,-24.61 155.12,-22.68"/>
<polygon fill="#63b8ff" stroke="#63b8ff" points="156.59,-25.87 164.72,-19.08 154.13,-19.32 156.59,-25.87"/>
</a>
</g>
</g>
</g>
</svg>
</svg>

<style type='text/css'>
<![CDATA[
[data-mouse-over-selected='false'] { opacity: 0.7; }
[data-mouse-over-selected='true']  { opacity: 1.0; }
]]>
</style>
<script type="application/ecmascript"><![CDATA[
document.addEventListener('DOMContentLoaded', (event) => {
  highlightEdges();
  highlightAdjacentNodes();
});
]]></script>
</svg>
