<?xml version="1.0" encoding="UTF-8" standalone="no"?>
<!DOCTYPE svg PUBLIC "-//W3C//DTD SVG 1.1//EN"
 "http://www.w3.org/Graphics/SVG/1.1/DTD/svg11.dtd">
<!-- Generated by graphviz version 2.43.0 (0)
 -->
<!-- Title: include/visitors/normalization_visitor.hpp Pages: 1 -->
<svg width="444pt" height="159pt"
 viewBox="0.00 0.00 444.00 159.00" xmlns="http://www.w3.org/2000/svg" xmlns:xlink="http://www.w3.org/1999/xlink">
<g id="graph0" class="graph" transform="scale(1 1) rotate(0) translate(4 155)">
<title>include/visitors/normalization_visitor.hpp</title>
<!-- Node1 -->
<g id="Node000001" class="node">
<title>Node1</title>
<g id="a_Node000001"><a xlink:title="规范化访问器，合并同类项、化简数值运算、处理矩阵算术。">
<polygon fill="#999999" stroke="#666666" points="281.5,-151 120.5,-151 120.5,-121 281.5,-121 281.5,-151"/>
<text text-anchor="start" x="128.5" y="-139" font-family="Helvetica,sans-Serif" font-size="10.00">include/visitors/normalization</text>
<text text-anchor="middle" x="201" y="-128" font-family="Helvetica,sans-Serif" font-size="10.00">_visitor.hpp</text>
</a>
</g>
</g>
<!-- Node2 -->
<g id="Node000002" class="node">
<title>Node2</title>
<g id="a_Node000002"><a xlink:href="../../da/dfb/expand__visitor_8hpp.html" target="_top" xlink:title="展开访问器，将乘积和幂展开为多项式形式。">
<polygon fill="white" stroke="#666666" points="130,-85 0,-85 0,-55 130,-55 130,-85"/>
<text text-anchor="start" x="8" y="-73" font-family="Helvetica,sans-Serif" font-size="10.00">include/visitors/expand</text>
<text text-anchor="middle" x="65" y="-62" font-family="Helvetica,sans-Serif" font-size="10.00">_visitor.hpp</text>
</a>
</g>
</g>
<!-- Node1&#45;&gt;Node2 -->
<g id="edge1_Node000001_Node000002" class="edge">
<title>Node1&#45;&gt;Node2</title>
<g id="a_edge1_Node000001_Node000002"><a xlink:title=" ">
<path fill="none" stroke="#63b8ff" d="M162,-116.65C140.61,-106.58 114.51,-94.3 94.78,-85.01"/>
<polygon fill="#63b8ff" stroke="#63b8ff" points="160.62,-119.86 171.15,-120.95 163.6,-113.53 160.62,-119.86"/>
</a>
</g>
</g>
<!-- Node3 -->
<g id="Node000003" class="node">
<title>Node3</title>
<g id="a_Node000003"><a xlink:href="../../d1/db4/symbolic_8cpp.html" target="_top" xlink:title=" ">
<polygon fill="white" stroke="#666666" points="207,-19 109,-19 109,0 207,0 207,-19"/>
<text text-anchor="middle" x="158" y="-7" font-family="Helvetica,sans-Serif" font-size="10.00">src/symbolic.cpp</text>
</a>
</g>
</g>
<!-- Node1&#45;&gt;Node3 -->
<g id="edge6_Node000001_Node000003" class="edge">
<title>Node1&#45;&gt;Node3</title>
<g id="a_edge6_Node000001_Node000003"><a xlink:title=" ">
<path fill="none" stroke="#63b8ff" d="M188.69,-111.81C184.6,-103.5 180.26,-93.98 177,-85 168.61,-61.92 162.47,-33.53 159.67,-19.39"/>
<polygon fill="#63b8ff" stroke="#63b8ff" points="185.65,-113.55 193.3,-120.88 191.89,-110.38 185.65,-113.55"/>
</a>
</g>
</g>
<!-- Node4 -->
<g id="Node000004" class="node">
<title>Node4</title>
<g id="a_Node000004"><a xlink:href="../../da/d7b/limit__visitor_8hpp.html" target="_top" xlink:title="极限访问器，通过代入和 L&#39;Hôpital 法则计算极限。">
<polygon fill="white" stroke="#666666" points="302,-85 186,-85 186,-55 302,-55 302,-85"/>
<text text-anchor="start" x="194" y="-73" font-family="Helvetica,sans-Serif" font-size="10.00">include/visitors/limit</text>
<text text-anchor="middle" x="244" y="-62" font-family="Helvetica,sans-Serif" font-size="10.00">_visitor.hpp</text>
</a>
</g>
</g>
<!-- Node1&#45;&gt;Node4 -->
<g id="edge3_Node000001_Node000004" class="edge">
<title>Node1&#45;&gt;Node4</title>
<g id="a_edge3_Node000001_Node000004"><a xlink:title=" ">
<path fill="none" stroke="#63b8ff" d="M216.29,-112.24C222.36,-103.21 229.14,-93.11 234.48,-85.16"/>
<polygon fill="#63b8ff" stroke="#63b8ff" points="213.21,-110.54 210.54,-120.8 219.03,-114.45 213.21,-110.54"/>
</a>
</g>
</g>
<!-- Node5 -->
<g id="Node000005" class="node">
<title>Node5</title>
<g id="a_Node000005"><a xlink:href="../../d2/dab/solve__visitor_8cpp.html" target="_top" xlink:title=" ">
<polygon fill="white" stroke="#666666" points="436,-79.5 320,-79.5 320,-60.5 436,-60.5 436,-79.5"/>
<text text-anchor="middle" x="378" y="-67.5" font-family="Helvetica,sans-Serif" font-size="10.00">src/solve_visitor.cpp</text>
</a>
</g>
</g>
<!-- Node1&#45;&gt;Node5 -->
<g id="edge5_Node000001_Node000005" class="edge">
<title>Node1&#45;&gt;Node5</title>
<g id="a_edge5_Node000001_Node000005"><a xlink:title=" ">
<path fill="none" stroke="#63b8ff" d="M249.62,-117.42C283.72,-105.09 327.81,-89.15 354.44,-79.52"/>
<polygon fill="#63b8ff" stroke="#63b8ff" points="248.06,-114.26 239.84,-120.95 250.44,-120.85 248.06,-114.26"/>
</a>
</g>
</g>
<!-- Node2&#45;&gt;Node3 -->
<g id="edge2_Node000002_Node000003" class="edge">
<title>Node2&#45;&gt;Node3</title>
<g id="a_edge2_Node000002_Node000003"><a xlink:title=" ">
<path fill="none" stroke="#63b8ff" d="M96.24,-49.35C112.58,-39.07 131.74,-27.02 144.34,-19.09"/>
<polygon fill="#63b8ff" stroke="#63b8ff" points="94.11,-46.55 87.51,-54.84 97.84,-52.48 94.11,-46.55"/>
</a>
</g>
</g>
<!-- Node4&#45;&gt;Node3 -->
<g id="edge4_Node000004_Node000003" class="edge">
<title>Node4&#45;&gt;Node3</title>
<g id="a_edge4_Node000004_Node000003"><a xlink:title=" ">
<path fill="none" stroke="#63b8ff" d="M214.69,-49.06C199.68,-38.85 182.18,-26.95 170.63,-19.09"/>
<polygon fill="#63b8ff" stroke="#63b8ff" points="212.94,-52.11 223.18,-54.84 216.88,-46.32 212.94,-52.11"/>
</a>
</g>
</g>
</g>
</svg>
