<?xml version="1.0" encoding="UTF-8" standalone="no"?>
<!DOCTYPE svg PUBLIC "-//W3C//DTD SVG 1.1//EN"
 "http://www.w3.org/Graphics/SVG/1.1/DTD/svg11.dtd">
<!-- Generated by graphviz version 2.43.0 (0)
 -->
<!-- Title: src/lammp/NumTh/gcd_2.c Pages: 1 -->
<svg width="392pt" height="203pt"
 viewBox="0.00 0.00 392.00 203.00" xmlns="http://www.w3.org/2000/svg" xmlns:xlink="http://www.w3.org/1999/xlink">

<svg id="main" version="1.1" xmlns="http://www.w3.org/2000/svg" xmlns:xlink="http://www.w3.org/1999/xlink" xml:space="preserve" onload="init(evt)">
<style type="text/css"><![CDATA[
.node, .edge {opacity: 0.7;}
.node.selected, .edge.selected {opacity: 1;}
.edge:hover path { stroke: red; }
.edge:hover polygon { stroke: red; fill: red; }
]]></style>
<script type="application/ecmascript" xlink:href="../../svg.min.js"/>
<svg id="graph" class="graph">
<g id="graph0" class="graph" transform="scale(1 1) rotate(0) translate(4 199)">
<title>src/lammp/NumTh/gcd_2.c</title>
<!-- Node1 -->
<g id="Node000001" class="node">
<title>Node1</title>
<g id="a_Node000001"><a xlink:title=" ">
<polygon fill="#999999" stroke="#666666" points="265,-195 119,-195 119,-176 265,-176 265,-195"/>
<text text-anchor="middle" x="192" y="-183" font-family="Helvetica,sans-Serif" font-size="10.00">src/lammp/NumTh/gcd_2.c</text>
</a>
</g>
</g>
<!-- Node2 -->
<g id="Node000002" class="node">
<title>Node2</title>
<g id="a_Node000002"><a xlink:href="../../d1/d59/longlong_8h.html" target="_top" xlink:title=" ">
<polygon fill="white" stroke="#666666" points="116,-140 0,-140 0,-110 116,-110 116,-140"/>
<text text-anchor="start" x="8" y="-128" font-family="Helvetica,sans-Serif" font-size="10.00">../../../include/lammp</text>
<text text-anchor="middle" x="58" y="-117" font-family="Helvetica,sans-Serif" font-size="10.00">/impl/longlong.h</text>
</a>
</g>
</g>
<!-- Node1&#45;&gt;Node2 -->
<g id="edge1_Node000001_Node000002" class="edge">
<title>Node1&#45;&gt;Node2</title>
<g id="a_edge1_Node000001_Node000002"><a xlink:title=" ">
<path fill="none" stroke="#63b8ff" d="M172.52,-175.99C153.48,-167.68 123.91,-154.78 99.59,-144.16"/>
<polygon fill="#63b8ff" stroke="#63b8ff" points="100.78,-140.86 90.22,-140.06 97.98,-147.27 100.78,-140.86"/>
</a>
</g>
</g>
<!-- Node4 -->
<g id="Node000004" class="node">
<title>Node4</title>
<g id="a_Node000004"><a xlink:href="../../d6/d39/lmmpn_8h.html" target="_top" xlink:title=" ">
<polygon fill="white" stroke="#666666" points="384,-140 268,-140 268,-110 384,-110 384,-140"/>
<text text-anchor="start" x="276" y="-128" font-family="Helvetica,sans-Serif" font-size="10.00">../../../include/lammp</text>
<text text-anchor="middle" x="326" y="-117" font-family="Helvetica,sans-Serif" font-size="10.00">/lmmpn.h</text>
</a>
</g>
</g>
<!-- Node1&#45;&gt;Node4 -->
<g id="edge3_Node000001_Node000004" class="edge">
<title>Node1&#45;&gt;Node4</title>
<g id="a_edge3_Node000001_Node000004"><a xlink:title=" ">
<path fill="none" stroke="#63b8ff" d="M211.48,-175.99C230.52,-167.68 260.09,-154.78 284.41,-144.16"/>
<polygon fill="#63b8ff" stroke="#63b8ff" points="286.02,-147.27 293.78,-140.06 283.22,-140.86 286.02,-147.27"/>
</a>
</g>
</g>
<!-- Node11 -->
<g id="Node000011" class="node">
<title>Node11</title>
<g id="a_Node000011"><a xlink:href="../../de/da4/numth_8h.html" target="_top" xlink:title=" ">
<polygon fill="white" stroke="#666666" points="250,-140 134,-140 134,-110 250,-110 250,-140"/>
<text text-anchor="start" x="142" y="-128" font-family="Helvetica,sans-Serif" font-size="10.00">../../../include/lammp</text>
<text text-anchor="middle" x="192" y="-117" font-family="Helvetica,sans-Serif" font-size="10.00">/numth.h</text>
</a>
</g>
</g>
<!-- Node1&#45;&gt;Node11 -->
<g id="edge11_Node000001_Node000011" class="edge">
<title>Node1&#45;&gt;Node11</title>
<g id="a_edge11_Node000001_Node000011"><a xlink:title=" ">
<path fill="none" stroke="#63b8ff" d="M192,-175.87C192,-169.11 192,-159.35 192,-150.26"/>
<polygon fill="#63b8ff" stroke="#63b8ff" points="195.5,-150.11 192,-140.11 188.5,-150.11 195.5,-150.11"/>
</a>
</g>
</g>
<!-- Node3 -->
<g id="Node000003" class="node">
<title>Node3</title>
<g id="a_Node000003"><a xlink:title=" ">
<polygon fill="#e0e0e0" stroke="#999999" points="118.5,-19 65.5,-19 65.5,0 118.5,0 118.5,-19"/>
<text text-anchor="middle" x="92" y="-7" font-family="Helvetica,sans-Serif" font-size="10.00">stdint.h</text>
</a>
</g>
</g>
<!-- Node2&#45;&gt;Node3 -->
<g id="edge2_Node000002_Node000003" class="edge">
<title>Node2&#45;&gt;Node3</title>
<g id="a_edge2_Node000002_Node000003"><a xlink:title=" ">
<path fill="none" stroke="#63b8ff" d="M62.31,-109.63C68.45,-89.12 79.73,-51.47 86.48,-28.93"/>
<polygon fill="#63b8ff" stroke="#63b8ff" points="89.87,-29.81 89.39,-19.23 83.16,-27.8 89.87,-29.81"/>
</a>
</g>
</g>
<!-- Node5 -->
<g id="Node000005" class="node">
<title>Node5</title>
<g id="a_Node000005"><a xlink:title=" ">
<polygon fill="#e0e0e0" stroke="#999999" points="223,-74 161,-74 161,-55 223,-55 223,-74"/>
<text text-anchor="middle" x="192" y="-62" font-family="Helvetica,sans-Serif" font-size="10.00">stdbool.h</text>
</a>
</g>
</g>
<!-- Node4&#45;&gt;Node5 -->
<g id="edge4_Node000004_Node000005" class="edge">
<title>Node4&#45;&gt;Node5</title>
<g id="a_edge4_Node000004_Node000005"><a xlink:title=" ">
<path fill="none" stroke="#63b8ff" d="M293.9,-109.99C271.75,-100.31 242.52,-87.56 221.05,-78.18"/>
<polygon fill="#63b8ff" stroke="#63b8ff" points="222.35,-74.93 211.79,-74.14 219.55,-81.35 222.35,-74.93"/>
</a>
</g>
</g>
<!-- Node6 -->
<g id="Node000006" class="node">
<title>Node6</title>
<g id="a_Node000006"><a xlink:title=" ">
<polygon fill="#e0e0e0" stroke="#999999" points="363,-74 313,-74 313,-55 363,-55 363,-74"/>
<text text-anchor="middle" x="338" y="-62" font-family="Helvetica,sans-Serif" font-size="10.00">stdio.h</text>
</a>
</g>
</g>
<!-- Node4&#45;&gt;Node6 -->
<g id="edge5_Node000004_Node000006" class="edge">
<title>Node4&#45;&gt;Node6</title>
<g id="a_edge5_Node000004_Node000006"><a xlink:title=" ">
<path fill="none" stroke="#63b8ff" d="M328.9,-109.84C330.49,-102.13 332.46,-92.49 334.17,-84.17"/>
<polygon fill="#63b8ff" stroke="#63b8ff" points="337.62,-84.77 336.2,-74.27 330.76,-83.36 337.62,-84.77"/>
</a>
</g>
</g>
<!-- Node7 -->
<g id="Node000007" class="node">
<title>Node7</title>
<g id="a_Node000007"><a xlink:href="../../dd/d90/lmmp_8h.html" target="_top" xlink:title=" ">
<polygon fill="white" stroke="#666666" points="295,-74 241,-74 241,-55 295,-55 295,-74"/>
<text text-anchor="middle" x="268" y="-62" font-family="Helvetica,sans-Serif" font-size="10.00">lmmp.h</text>
</a>
</g>
</g>
<!-- Node4&#45;&gt;Node7 -->
<g id="edge6_Node000004_Node000007" class="edge">
<title>Node4&#45;&gt;Node7</title>
<g id="a_edge6_Node000004_Node000007"><a xlink:title=" ">
<path fill="none" stroke="#63b8ff" d="M311.96,-109.84C303.45,-101.26 292.59,-90.3 283.78,-81.42"/>
<polygon fill="#63b8ff" stroke="#63b8ff" points="286.22,-78.9 276.69,-74.27 281.25,-83.83 286.22,-78.9"/>
</a>
</g>
</g>
<!-- Node7&#45;&gt;Node3 -->
<g id="edge8_Node000007_Node000003" class="edge">
<title>Node7&#45;&gt;Node3</title>
<g id="a_edge8_Node000007_Node000003"><a xlink:title=" ">
<path fill="none" stroke="#63b8ff" d="M240.89,-55.33C210.74,-46.26 161.89,-31.55 128.42,-21.47"/>
<polygon fill="#63b8ff" stroke="#63b8ff" points="129.15,-18.03 118.57,-18.5 127.13,-24.74 129.15,-18.03"/>
</a>
</g>
</g>
<!-- Node8 -->
<g id="Node000008" class="node">
<title>Node8</title>
<g id="a_Node000008"><a xlink:title=" ">
<polygon fill="#e0e0e0" stroke="#999999" points="223,-19 167,-19 167,0 223,0 223,-19"/>
<text text-anchor="middle" x="195" y="-7" font-family="Helvetica,sans-Serif" font-size="10.00">stddef.h</text>
</a>
</g>
</g>
<!-- Node7&#45;&gt;Node8 -->
<g id="edge7_Node000007_Node000008" class="edge">
<title>Node7&#45;&gt;Node8</title>
<g id="a_edge7_Node000007_Node000008"><a xlink:title=" ">
<path fill="none" stroke="#63b8ff" d="M256.27,-54.98C245.27,-47 228.58,-34.88 215.4,-25.31"/>
<polygon fill="#63b8ff" stroke="#63b8ff" points="217.09,-22.21 206.94,-19.17 212.98,-27.88 217.09,-22.21"/>
</a>
</g>
</g>
<!-- Node9 -->
<g id="Node000009" class="node">
<title>Node9</title>
<g id="a_Node000009"><a xlink:title=" ">
<polygon fill="#e0e0e0" stroke="#999999" points="294.5,-19 241.5,-19 241.5,0 294.5,0 294.5,-19"/>
<text text-anchor="middle" x="268" y="-7" font-family="Helvetica,sans-Serif" font-size="10.00">stdlib.h</text>
</a>
</g>
</g>
<!-- Node7&#45;&gt;Node9 -->
<g id="edge9_Node000007_Node000009" class="edge">
<title>Node7&#45;&gt;Node9</title>
<g id="a_edge9_Node000007_Node000009"><a xlink:title=" ">
<path fill="none" stroke="#63b8ff" d="M268,-54.75C268,-47.8 268,-37.85 268,-29.13"/>
<polygon fill="#63b8ff" stroke="#63b8ff" points="271.5,-29.09 268,-19.09 264.5,-29.09 271.5,-29.09"/>
</a>
</g>
</g>
<!-- Node10 -->
<g id="Node000010" class="node">
<title>Node10</title>
<g id="a_Node000010"><a xlink:title=" ">
<polygon fill="#e0e0e0" stroke="#999999" points="365.5,-19 312.5,-19 312.5,0 365.5,0 365.5,-19"/>
<text text-anchor="middle" x="339" y="-7" font-family="Helvetica,sans-Serif" font-size="10.00">string.h</text>
</a>
</g>
</g>
<!-- Node7&#45;&gt;Node10 -->
<g id="edge10_Node000007_Node000010" class="edge">
<title>Node7&#45;&gt;Node10</title>
<g id="a_edge10_Node000007_Node000010"><a xlink:title=" ">
<path fill="none" stroke="#63b8ff" d="M279.41,-54.98C290.11,-47 306.34,-34.88 319.16,-25.31"/>
<polygon fill="#63b8ff" stroke="#63b8ff" points="321.47,-27.96 327.39,-19.17 317.28,-22.35 321.47,-27.96"/>
</a>
</g>
</g>
<!-- Node11&#45;&gt;Node5 -->
<g id="edge13_Node000011_Node000005" class="edge">
<title>Node11&#45;&gt;Node5</title>
<g id="a_edge13_Node000011_Node000005"><a xlink:title=" ">
<path fill="none" stroke="#63b8ff" d="M192,-109.84C192,-102.21 192,-92.7 192,-84.45"/>
<polygon fill="#63b8ff" stroke="#63b8ff" points="195.5,-84.27 192,-74.27 188.5,-84.27 195.5,-84.27"/>
</a>
</g>
</g>
<!-- Node11&#45;&gt;Node7 -->
<g id="edge14_Node000011_Node000007" class="edge">
<title>Node11&#45;&gt;Node7</title>
<g id="a_edge14_Node000011_Node000007"><a xlink:title=" ">
<path fill="none" stroke="#63b8ff" d="M210.4,-109.84C221.88,-101 236.65,-89.63 248.36,-80.62"/>
<polygon fill="#63b8ff" stroke="#63b8ff" points="250.82,-83.14 256.61,-74.27 246.55,-77.59 250.82,-83.14"/>
</a>
</g>
</g>
<!-- Node12 -->
<g id="Node000012" class="node">
<title>Node12</title>
<g id="a_Node000012"><a xlink:title=" ">
<polygon fill="#e0e0e0" stroke="#999999" points="142.5,-74 91.5,-74 91.5,-55 142.5,-55 142.5,-74"/>
<text text-anchor="middle" x="117" y="-62" font-family="Helvetica,sans-Serif" font-size="10.00">math.h</text>
</a>
</g>
</g>
<!-- Node11&#45;&gt;Node12 -->
<g id="edge12_Node000011_Node000012" class="edge">
<title>Node11&#45;&gt;Node12</title>
<g id="a_edge12_Node000011_Node000012"><a xlink:title=" ">
<path fill="none" stroke="#63b8ff" d="M173.84,-109.84C162.51,-101 147.94,-89.63 136.38,-80.62"/>
<polygon fill="#63b8ff" stroke="#63b8ff" points="138.28,-77.66 128.24,-74.27 133.97,-83.18 138.28,-77.66"/>
</a>
</g>
</g>
</g>
</svg>
</svg>

<style type='text/css'>
<![CDATA[
[data-mouse-over-selected='false'] { opacity: 0.7; }
[data-mouse-over-selected='true']  { opacity: 1.0; }
]]>
</style>
<script type="application/ecmascript"><![CDATA[
document.addEventListener('DOMContentLoaded', (event) => {
  highlightEdges();
  highlightAdjacentNodes();
});
]]></script>
</svg>
