<?xml version="1.0" encoding="UTF-8" standalone="no"?>
<!DOCTYPE svg PUBLIC "-//W3C//DTD SVG 1.1//EN"
 "http://www.w3.org/Graphics/SVG/1.1/DTD/svg11.dtd">
<!-- Generated by graphviz version 2.43.0 (0)
 -->
<!-- Title: lamina::RewriteVisitor::get_result Pages: 1 -->
<svg width="645pt" height="38pt"
 viewBox="0.00 0.00 645.00 38.00" xmlns="http://www.w3.org/2000/svg" xmlns:xlink="http://www.w3.org/1999/xlink">
<g id="graph0" class="graph" transform="scale(1 1) rotate(0) translate(4 34)">
<title>lamina::RewriteVisitor::get_result</title>
<!-- Node1 -->
<g id="Node000001" class="node">
<title>Node1</title>
<g id="a_Node000001"><a xlink:title=" ">
<polygon fill="#999999" stroke="#666666" points="637,-30 512,-30 512,0 637,0 637,-30"/>
<text text-anchor="start" x="520" y="-18" font-family="Helvetica,sans-Serif" font-size="10.00">lamina::RewriteVisitor</text>
<text text-anchor="middle" x="574.5" y="-7" font-family="Helvetica,sans-Serif" font-size="10.00">::get_result</text>
</a>
</g>
</g>
<!-- Node2 -->
<g id="Node000002" class="node">
<title>Node2</title>
<g id="a_Node000002"><a xlink:href="../../d2/dbd/classlamina_1_1RewriteEngine.html#a1f88f14776c6af915bab80d06f05f149" target="_top" xlink:title="对表达式应用一步重写">
<polygon fill="white" stroke="#666666" points="476,-30 349,-30 349,0 476,0 476,-30"/>
<text text-anchor="start" x="357" y="-18" font-family="Helvetica,sans-Serif" font-size="10.00">lamina::RewriteEngine</text>
<text text-anchor="middle" x="412.5" y="-7" font-family="Helvetica,sans-Serif" font-size="10.00">::apply_step</text>
</a>
</g>
</g>
<!-- Node1&#45;&gt;Node2 -->
<g id="edge1_Node000001_Node000002" class="edge">
<title>Node1&#45;&gt;Node2</title>
<g id="a_edge1_Node000001_Node000002"><a xlink:title=" ">
<path fill="none" stroke="#63b8ff" d="M501.46,-15C493.05,-15 484.52,-15 476.25,-15"/>
<polygon fill="#63b8ff" stroke="#63b8ff" points="501.64,-18.5 511.64,-15 501.64,-11.5 501.64,-18.5"/>
</a>
</g>
</g>
<!-- Node3 -->
<g id="Node000003" class="node">
<title>Node3</title>
<g id="a_Node000003"><a xlink:href="../../d2/dbd/classlamina_1_1RewriteEngine.html#a1741a601fcc26bfe559fe7afceb448aa" target="_top" xlink:title="反复应用规则直到不动点或达到最大迭代次数">
<polygon fill="white" stroke="#666666" points="313,-30 186,-30 186,0 313,0 313,-30"/>
<text text-anchor="start" x="194" y="-18" font-family="Helvetica,sans-Serif" font-size="10.00">lamina::RewriteEngine</text>
<text text-anchor="middle" x="249.5" y="-7" font-family="Helvetica,sans-Serif" font-size="10.00">::apply</text>
</a>
</g>
</g>
<!-- Node2&#45;&gt;Node3 -->
<g id="edge2_Node000002_Node000003" class="edge">
<title>Node2&#45;&gt;Node3</title>
<g id="a_edge2_Node000002_Node000003"><a xlink:title=" ">
<path fill="none" stroke="#63b8ff" d="M338.78,-15C330.19,-15 321.47,-15 313.04,-15"/>
<polygon fill="#63b8ff" stroke="#63b8ff" points="338.79,-18.5 348.79,-15 338.79,-11.5 338.79,-18.5"/>
</a>
</g>
</g>
<!-- Node4 -->
<g id="Node000004" class="node">
<title>Node4</title>
<g id="a_Node000004"><a xlink:href="../../dc/d25/classSymbolicExpr.html#a924742ae29dfeb8394a8e86bb7b84061" target="_top" xlink:title="对表达式进行三角恒等式化简。">
<polygon fill="white" stroke="#666666" points="150,-24.5 0,-24.5 0,-5.5 150,-5.5 150,-24.5"/>
<text text-anchor="middle" x="75" y="-12.5" font-family="Helvetica,sans-Serif" font-size="10.00">SymbolicExpr::simplify_trig</text>
</a>
</g>
</g>
<!-- Node3&#45;&gt;Node4 -->
<g id="edge3_Node000003_Node000004" class="edge">
<title>Node3&#45;&gt;Node4</title>
<g id="a_edge3_Node000003_Node000004"><a xlink:title=" ">
<path fill="none" stroke="#63b8ff" d="M175.58,-15C167.17,-15 158.58,-15 150.15,-15"/>
<polygon fill="#63b8ff" stroke="#63b8ff" points="175.74,-18.5 185.74,-15 175.74,-11.5 175.74,-18.5"/>
</a>
</g>
</g>
</g>
</svg>
