<?xml version="1.0" encoding="UTF-8" standalone="no"?>
<!DOCTYPE svg PUBLIC "-//W3C//DTD SVG 1.1//EN"
 "http://www.w3.org/Graphics/SVG/1.1/DTD/svg11.dtd">
<!-- Generated by graphviz version 2.43.0 (0)
 -->
<!-- Title: lamina::RewriteVisitor::try_match Pages: 1 -->
<!--zoomable 228 -->

<svg id="main" version="1.1" xmlns="http://www.w3.org/2000/svg" xmlns:xlink="http://www.w3.org/1999/xlink" xml:space="preserve" onload="init(evt)">
<style type="text/css"><![CDATA[
.node, .edge {opacity: 0.7;}
.node.selected, .edge.selected {opacity: 1;}
.edge:hover path { stroke: red; }
.edge:hover polygon { stroke: red; fill: red; }
]]></style>

<defs>
  <circle id="rim" cx="0" cy="0" r="7"/>
  <circle id="rim2" cx="0" cy="0" r="3.5"/>
  <g id="zoomPlus">
    <use xlink:href="#rim" fill="#404040"><set attributeName="fill" to="#808080" begin="zoomplus.mouseover" end="zoomplus.mouseout"/></use>
    <path d="M-4,0h8M0,-4v8" fill="none" stroke="white" stroke-width="1.5" pointer-events="none"/>
  </g>
  <g id="zoomMin">
    <use xlink:href="#rim" fill="#404040"><set attributeName="fill" to="#808080" begin="zoomminus.mouseover" end="zoomminus.mouseout"/></use>
    <path d="M-4,0h8" fill="none" stroke="white" stroke-width="1.5" pointer-events="none"/>
  </g>
  <g id="arrowUp" transform="translate(30 24)">
    <use xlink:href="#rim"/>
    <path pointer-events="none" fill="none" stroke="white" stroke-width="1.5" d="M0,-3.0v7 M-2.5,-0.5L0,-3.0L2.5,-0.5"/>
  </g>
  <g id="arrowRight" transform="rotate(90) translate(36 -43)">
    <use xlink:href="#rim"/>
    <path pointer-events="none" fill="none" stroke="white" stroke-width="1.5" d="M0,-3.0v7 M-2.5,-0.5L0,-3.0L2.5,-0.5"/>
  </g>
  <g id="arrowDown" transform="rotate(180) translate(-30 -48)">
    <use xlink:href="#rim"/>
    <path pointer-events="none" fill="none" stroke="white" stroke-width="1.5" d="M0,-3.0v7 M-2.5,-0.5L0,-3.0L2.5,-0.5"/>
  </g>
  <g id="arrowLeft" transform="rotate(270) translate(-36 17)">
    <use xlink:href="#rim"/>
    <path pointer-events="none" fill="none" stroke="white" stroke-width="1.5" d="M0,-3.0v7 M-2.5,-0.5L0,-3.0L2.5,-0.5"/>
  </g>
  <g id="resetDef">
    <use xlink:href="#rim2" fill="#404040"><set attributeName="fill" to="#808080" begin="reset.mouseover" end="reset.mouseout"/></use>
  </g>
</defs>
<script type="application/ecmascript">
var viewWidth = 839;
var viewHeight = 228;
var sectionId = 'dynsection-3';
</script>
<script type="application/ecmascript" xlink:href="../../svg.min.js"/>
<svg id="graph" class="graph">
<g id="viewport">
<title>lamina::RewriteVisitor::try_match</title>
<!-- Node1 -->
<g id="Node000001" class="node">
<title>Node1</title>
<g id="a_Node000001"><a xlink:title=" ">
<polygon fill="#999999" stroke="#666666" points="125,-144.5 0,-144.5 0,-114.5 125,-114.5 125,-144.5"/>
<text text-anchor="start" x="8" y="-132.5" font-family="Helvetica,sans-Serif" font-size="10.00">lamina::RewriteVisitor</text>
<text text-anchor="middle" x="62.5" y="-121.5" font-family="Helvetica,sans-Serif" font-size="10.00">::try_match</text>
</a>
</g>
</g>
<!-- Node2 -->
<g id="Node000002" class="node">
<title>Node2</title>
<g id="a_Node000002"><a xlink:href="../../d2/dbd/classlamina_1_1RewriteEngine.html#a6627e6120e03c15b237992c67c4caed8" target="_top" xlink:title="获取当前所有规则">
<polygon fill="white" stroke="#666666" points="291,-187.5 164,-187.5 164,-157.5 291,-157.5 291,-187.5"/>
<text text-anchor="start" x="172" y="-175.5" font-family="Helvetica,sans-Serif" font-size="10.00">lamina::RewriteEngine</text>
<text text-anchor="middle" x="227.5" y="-164.5" font-family="Helvetica,sans-Serif" font-size="10.00">::get_rules</text>
</a>
</g>
</g>
<!-- Node1&#45;&gt;Node2 -->
<g id="edge1_Node000001_Node000002" class="edge">
<title>Node1&#45;&gt;Node2</title>
<g id="a_edge1_Node000001_Node000002"><a xlink:title=" ">
<path fill="none" stroke="#63b8ff" d="M120.51,-144.54C133.17,-147.88 146.69,-151.45 159.7,-154.88"/>
<polygon fill="#63b8ff" stroke="#63b8ff" points="158.96,-158.3 169.52,-157.47 160.75,-151.53 158.96,-158.3"/>
</a>
</g>
</g>
<!-- Node3 -->
<g id="Node000003" class="node">
<title>Node3</title>
<g id="a_Node000003"><a xlink:href="../../d5/d68/classlamina_1_1Matcher.html#a756d9e2d855dfed07d5c7fed79761bfc" target="_top" xlink:title="将模式与目标表达式进行匹配">
<polygon fill="white" stroke="#666666" points="294,-97 161,-97 161,-78 294,-78 294,-97"/>
<text text-anchor="middle" x="227.5" y="-85" font-family="Helvetica,sans-Serif" font-size="10.00">lamina::Matcher::match</text>
</a>
</g>
</g>
<!-- Node1&#45;&gt;Node3 -->
<g id="edge2_Node000001_Node000003" class="edge">
<title>Node1&#45;&gt;Node3</title>
<g id="a_edge2_Node000001_Node000003"><a xlink:title=" ">
<path fill="none" stroke="#63b8ff" d="M121.89,-114.46C140.85,-109.57 161.63,-104.22 179.64,-99.58"/>
<polygon fill="#63b8ff" stroke="#63b8ff" points="180.52,-102.96 189.33,-97.08 178.77,-96.18 180.52,-102.96"/>
</a>
</g>
</g>
<!-- Node10 -->
<g id="Node000010" class="node">
<title>Node10</title>
<g id="a_Node000010"><a xlink:href="../../d5/d68/classlamina_1_1Matcher.html#a1e55632a78e0381ed1df6d935d2d42f9" target="_top" xlink:title="将绑定结果代入模板表达式">
<polygon fill="white" stroke="#666666" points="468,-149 330,-149 330,-130 468,-130 468,-149"/>
<text text-anchor="middle" x="399" y="-137" font-family="Helvetica,sans-Serif" font-size="10.00">lamina::Matcher::replace</text>
</a>
</g>
</g>
<!-- Node1&#45;&gt;Node10 -->
<g id="edge13_Node000001_Node000010" class="edge">
<title>Node1&#45;&gt;Node10</title>
<g id="a_edge13_Node000001_Node000010"><a xlink:title=" ">
<path fill="none" stroke="#63b8ff" d="M125.24,-131.35C180.03,-132.98 260.34,-135.38 319.64,-137.16"/>
<polygon fill="#63b8ff" stroke="#63b8ff" points="319.61,-140.66 329.71,-137.46 319.82,-133.66 319.61,-140.66"/>
</a>
</g>
</g>
<!-- Node4 -->
<g id="Node000004" class="node">
<title>Node4</title>
<g id="a_Node000004"><a xlink:href="../../d1/d42/namespacelamina.html#aa1229a5af14e9c134f19472e208efff2" target="_top" xlink:title=" ">
<polygon fill="white" stroke="#666666" points="467.5,-89 330.5,-89 330.5,-70 467.5,-70 467.5,-89"/>
<text text-anchor="middle" x="399" y="-77" font-family="Helvetica,sans-Serif" font-size="10.00">lamina::match_recursive</text>
</a>
</g>
</g>
<!-- Node3&#45;&gt;Node4 -->
<g id="edge3_Node000003_Node000004" class="edge">
<title>Node3&#45;&gt;Node4</title>
<g id="a_edge3_Node000003_Node000004"><a xlink:title=" ">
<path fill="none" stroke="#63b8ff" d="M294.03,-84.41C302.6,-84 311.45,-83.58 320.2,-83.17"/>
<polygon fill="#63b8ff" stroke="#63b8ff" points="320.58,-86.66 330.4,-82.69 320.25,-79.67 320.58,-86.66"/>
</a>
</g>
</g>
<!-- Node4&#45;&gt;Node4 -->
<g id="edge12_Node000004_Node000004" class="edge">
<title>Node4&#45;&gt;Node4</title>
<g id="a_edge12_Node000004_Node000004"><a xlink:title=" ">
<path fill="none" stroke="#63b8ff" d="M372.8,-89.08C360.05,-97.73 368.79,-107 399,-107 419.3,-107 429.9,-102.82 430.81,-97.45"/>
<polygon fill="#63b8ff" stroke="#63b8ff" points="433.68,-95.44 425.2,-89.08 427.86,-99.34 433.68,-95.44"/>
</a>
</g>
</g>
<!-- Node5 -->
<g id="Node000005" class="node">
<title>Node5</title>
<g id="a_Node000005"><a xlink:href="../../d6/db0/classSymbolicFactory.html#ab9193b63564a64ab94045fa10e45f149" target="_top" xlink:title="创建加法节点，自动扁平化嵌套加法并消除零项。">
<polygon fill="white" stroke="#666666" points="661,-171 505,-171 505,-152 661,-152 661,-171"/>
<text text-anchor="middle" x="583" y="-159" font-family="Helvetica,sans-Serif" font-size="10.00">SymbolicFactory::create_add</text>
</a>
</g>
</g>
<!-- Node4&#45;&gt;Node5 -->
<g id="edge4_Node000004_Node000005" class="edge">
<title>Node4&#45;&gt;Node5</title>
<g id="a_edge4_Node000004_Node000005"><a xlink:title=" ">
<path fill="none" stroke="#63b8ff" d="M415.95,-89.08C429.74,-97.37 450.21,-109.7 468,-120.5 484.03,-130.23 486.68,-135.31 504,-142.5 509.91,-144.96 516.21,-147.14 522.58,-149.08"/>
<polygon fill="#63b8ff" stroke="#63b8ff" points="522,-152.55 532.58,-151.91 523.91,-145.82 522,-152.55"/>
</a>
</g>
</g>
<!-- Node7 -->
<g id="Node000007" class="node">
<title>Node7</title>
<g id="a_Node000007"><a xlink:href="../../d6/db0/classSymbolicFactory.html#a3c8860af8deed80da97fcb7256d270be" target="_top" xlink:title="创建乘法节点，自动扁平化嵌套乘法并消除单位元。">
<polygon fill="white" stroke="#666666" points="649.5,-133.5 516.5,-133.5 516.5,-103.5 649.5,-103.5 649.5,-133.5"/>
<text text-anchor="start" x="524.5" y="-121.5" font-family="Helvetica,sans-Serif" font-size="10.00">SymbolicFactory::create</text>
<text text-anchor="middle" x="583" y="-110.5" font-family="Helvetica,sans-Serif" font-size="10.00">_multiply</text>
</a>
</g>
</g>
<!-- Node4&#45;&gt;Node7 -->
<g id="edge6_Node000004_Node000007" class="edge">
<title>Node4&#45;&gt;Node7</title>
<g id="a_edge6_Node000004_Node000007"><a xlink:title=" ">
<path fill="none" stroke="#63b8ff" d="M444.52,-89.04C463.15,-93.03 485.32,-97.78 506.37,-102.29"/>
<polygon fill="#63b8ff" stroke="#63b8ff" points="505.75,-105.74 516.26,-104.41 507.22,-98.9 505.75,-105.74"/>
</a>
</g>
</g>
<!-- Node8 -->
<g id="Node000008" class="node">
<title>Node8</title>
<g id="a_Node000008"><a xlink:href="../../d1/d42/namespacelamina.html#aeb0f885705caf1e05230c85abbe59724" target="_top" xlink:title=" ">
<polygon fill="white" stroke="#666666" points="638.5,-19 527.5,-19 527.5,0 638.5,0 638.5,-19"/>
<text text-anchor="middle" x="583" y="-7" font-family="Helvetica,sans-Serif" font-size="10.00">lamina::is_wildcard</text>
</a>
</g>
</g>
<!-- Node4&#45;&gt;Node8 -->
<g id="edge8_Node000004_Node000008" class="edge">
<title>Node4&#45;&gt;Node8</title>
<g id="a_edge8_Node000004_Node000008"><a xlink:title=" ">
<path fill="none" stroke="#63b8ff" d="M416.8,-69.84C436.96,-58.59 472.05,-40.07 504,-28.5 511.02,-25.96 518.51,-23.65 525.97,-21.59"/>
<polygon fill="#63b8ff" stroke="#63b8ff" points="526.95,-24.95 535.73,-19.02 525.16,-18.18 526.95,-24.95"/>
</a>
</g>
</g>
<!-- Node9 -->
<g id="Node000009" class="node">
<title>Node9</title>
<g id="a_Node000009"><a xlink:href="../../d1/d42/namespacelamina.html#ae9e55d487db3d0012e65fd5470d8108f" target="_top" xlink:title=" ">
<polygon fill="white" stroke="#666666" points="662,-67.5 504,-67.5 504,-37.5 662,-37.5 662,-67.5"/>
<text text-anchor="start" x="512" y="-55.5" font-family="Helvetica,sans-Serif" font-size="10.00">lamina::match_commutative</text>
<text text-anchor="middle" x="583" y="-44.5" font-family="Helvetica,sans-Serif" font-size="10.00">_recursive</text>
</a>
</g>
</g>
<!-- Node4&#45;&gt;Node9 -->
<g id="edge9_Node000004_Node000009" class="edge">
<title>Node4&#45;&gt;Node9</title>
<g id="a_edge9_Node000004_Node000009"><a xlink:title=" ">
<path fill="none" stroke="#63b8ff" d="M429.65,-69.96C447.19,-66.25 470.44,-62.26 493.48,-58.88"/>
<polygon fill="#63b8ff" stroke="#63b8ff" points="494.26,-62.31 503.67,-57.43 493.27,-55.38 494.26,-62.31"/>
</a>
</g>
</g>
<!-- Node6 -->
<g id="Node000006" class="node">
<title>Node6</title>
<g id="a_Node000006"><a xlink:href="../../d6/db0/classSymbolicFactory.html#ae5389b9fe65a2b6c15996a29c0314396" target="_top" xlink:title="创建大整数数值节点。">
<polygon fill="white" stroke="#666666" points="831,-154.5 698,-154.5 698,-124.5 831,-124.5 831,-154.5"/>
<text text-anchor="start" x="706" y="-142.5" font-family="Helvetica,sans-Serif" font-size="10.00">SymbolicFactory::create</text>
<text text-anchor="middle" x="764.5" y="-131.5" font-family="Helvetica,sans-Serif" font-size="10.00">_number</text>
</a>
</g>
</g>
<!-- Node5&#45;&gt;Node6 -->
<g id="edge5_Node000005_Node000006" class="edge">
<title>Node5&#45;&gt;Node6</title>
<g id="a_edge5_Node000005_Node000006"><a xlink:title=" ">
<path fill="none" stroke="#63b8ff" d="M661.17,-152.04C670.07,-150.95 679.15,-149.84 688.03,-148.75"/>
<polygon fill="#63b8ff" stroke="#63b8ff" points="688.46,-152.22 697.96,-147.53 687.61,-145.28 688.46,-152.22"/>
</a>
</g>
</g>
<!-- Node7&#45;&gt;Node6 -->
<g id="edge7_Node000007_Node000006" class="edge">
<title>Node7&#45;&gt;Node6</title>
<g id="a_edge7_Node000007_Node000006"><a xlink:title=" ">
<path fill="none" stroke="#63b8ff" d="M649.57,-126.17C661.97,-127.62 675.05,-129.15 687.74,-130.64"/>
<polygon fill="#63b8ff" stroke="#63b8ff" points="687.47,-134.13 697.81,-131.82 688.29,-127.18 687.47,-134.13"/>
</a>
</g>
</g>
<!-- Node9&#45;&gt;Node4 -->
<g id="edge11_Node000009_Node000004" class="edge">
<title>Node9&#45;&gt;Node4</title>
<g id="a_edge11_Node000009_Node000004"><a xlink:title=" ">
<path fill="none" stroke="#63b8ff" d="M523.57,-67.52C508.92,-70.07 492.97,-72.54 477.55,-74.68"/>
<polygon fill="#63b8ff" stroke="#63b8ff" points="476.96,-71.23 467.51,-76.03 477.89,-78.17 476.96,-71.23"/>
</a>
</g>
</g>
<!-- Node9&#45;&gt;Node9 -->
<g id="edge10_Node000009_Node000009" class="edge">
<title>Node9&#45;&gt;Node9</title>
<g id="a_edge10_Node000009_Node000009"><a xlink:title=" ">
<path fill="none" stroke="#63b8ff" d="M551.36,-67.78C544.33,-76.91 554.88,-85.5 583,-85.5 599.7,-85.5 610.2,-82.47 614.51,-78.1"/>
<polygon fill="#63b8ff" stroke="#63b8ff" points="618.01,-77.82 614.64,-67.78 611.01,-77.73 618.01,-77.82"/>
</a>
</g>
</g>
<!-- Node10&#45;&gt;Node5 -->
<g id="edge14_Node000010_Node000005" class="edge">
<title>Node10&#45;&gt;Node5</title>
<g id="a_edge14_Node000010_Node000005"><a xlink:title=" ">
<path fill="none" stroke="#63b8ff" d="M468.03,-147.72C476.76,-148.78 485.79,-149.87 494.77,-150.96"/>
<polygon fill="#63b8ff" stroke="#63b8ff" points="494.53,-154.45 504.87,-152.18 495.37,-147.5 494.53,-154.45"/>
</a>
</g>
</g>
<!-- Node10&#45;&gt;Node7 -->
<g id="edge15_Node000010_Node000007" class="edge">
<title>Node10&#45;&gt;Node7</title>
<g id="a_edge15_Node000010_Node000007"><a xlink:title=" ">
<path fill="none" stroke="#63b8ff" d="M468.03,-131.65C480.54,-130.21 493.66,-128.69 506.38,-127.23"/>
<polygon fill="#63b8ff" stroke="#63b8ff" points="506.94,-130.68 516.47,-126.06 506.13,-123.73 506.94,-130.68"/>
</a>
</g>
</g>
<!-- Node11 -->
<g id="Node000011" class="node">
<title>Node11</title>
<g id="a_Node000011"><a xlink:href="../../d5/ddd/classlamina_1_1ReplacementVisitor.html#aacff3809d6ac55e22b60dac895f9a061" target="_top" xlink:title=" ">
<polygon fill="white" stroke="#666666" points="659,-219.5 507,-219.5 507,-189.5 659,-189.5 659,-219.5"/>
<text text-anchor="start" x="515" y="-207.5" font-family="Helvetica,sans-Serif" font-size="10.00">lamina::ReplacementVisitor</text>
<text text-anchor="middle" x="583" y="-196.5" font-family="Helvetica,sans-Serif" font-size="10.00">::get_result</text>
</a>
</g>
</g>
<!-- Node10&#45;&gt;Node11 -->
<g id="edge16_Node000010_Node000011" class="edge">
<title>Node10&#45;&gt;Node11</title>
<g id="a_edge16_Node000010_Node000011"><a xlink:title=" ">
<path fill="none" stroke="#63b8ff" d="M422.94,-149.13C443.89,-157.79 475.79,-170.62 504,-180.5 509.57,-182.45 515.39,-184.4 521.23,-186.3"/>
<polygon fill="#63b8ff" stroke="#63b8ff" points="520.46,-189.73 531.05,-189.44 522.59,-183.06 520.46,-189.73"/>
</a>
</g>
</g>
</g>
</svg>

<g id="navigator" transform="translate(0 0)" fill="#404254">
  <rect fill="#f2f5e9" fill-opacity="0.5" stroke="#606060" stroke-width=".5" x="0" y="0" width="60" height="60"/>
  <use id="zoomplus" xlink:href="#zoomPlus" x="17" y="9" onmousedown="handleZoom(evt,'in')"/>
  <use id="zoomminus" xlink:href="#zoomMin" x="42" y="9" onmousedown="handleZoom(evt,'out')"/>
  <use id="reset" xlink:href="#resetDef" x="30" y="36" onmousedown="handleReset()"/>
   <use id="arrowup" xlink:href="#arrowUp" x="0" y="0" onmousedown="handlePan(0,-1)"/>
  <use id="arrowright" xlink:href="#arrowRight" x="0" y="0" onmousedown="handlePan(1,0)"/>
  <use id="arrowdown" xlink:href="#arrowDown" x="0" y="0" onmousedown="handlePan(0,1)"/>
  <use id="arrowleft" xlink:href="#arrowLeft" x="0" y="0" onmousedown="handlePan(-1,0)"/>
</g>
<svg viewBox="0 0 15 15" width="100%" height="30px" preserveAspectRatio="xMaxYMin meet">
 <g id="arrow_out" transform="scale(0.3 0.3)">
  <a xlink:href="classlamina_1_1RewriteVisitor_ad4525a1d56870715e59dda9c7e5aa927_cgraph_org.svg" target="_base">
   <rect id="button" ry="5" rx="5" y="6" x="6" height="38" width="38"
        fill="#f2f5e9" fill-opacity="0.5" stroke="#606060" stroke-width="1.0"/>
   <path id="arrow"
     d="M 11.500037,31.436501 C 11.940474,20.09759 22.043105,11.32322 32.158766,21.979434 L 37.068811,17.246167 C 37.068811,17.246167 37.088388,32 37.088388,32 L 22.160133,31.978069 C 22.160133,31.978069 26.997745,27.140456 26.997745,27.140456 C 18.528582,18.264221 13.291696,25.230495 11.500037,31.436501 z"
     style="fill:#404040;"/>
  </a>
 </g>
</svg>

<style type='text/css'>
<![CDATA[
[data-mouse-over-selected='false'] { opacity: 0.7; }
[data-mouse-over-selected='true']  { opacity: 1.0; }
]]>
</style>
<script type="application/ecmascript"><![CDATA[
document.addEventListener('DOMContentLoaded', (event) => {
  highlightEdges();
  highlightAdjacentNodes();
});
]]></script>
</svg>
