<?xml version="1.0" encoding="UTF-8" standalone="no"?>
<!DOCTYPE svg PUBLIC "-//W3C//DTD SVG 1.1//EN"
 "http://www.w3.org/Graphics/SVG/1.1/DTD/svg11.dtd">
<!-- Generated by graphviz version 2.43.0 (0)
 -->
<!-- Title: lamina::RewriteVisitor::visit Pages: 1 -->
<!--zoomable 228 -->

<svg id="main" version="1.1" xmlns="http://www.w3.org/2000/svg" xmlns:xlink="http://www.w3.org/1999/xlink" xml:space="preserve" onload="init(evt)">
<style type="text/css"><![CDATA[
.node, .edge {opacity: 0.7;}
.node.selected, .edge.selected {opacity: 1;}
.edge:hover path { stroke: red; }
.edge:hover polygon { stroke: red; fill: red; }
]]></style>

<defs>
  <circle id="rim" cx="0" cy="0" r="7"/>
  <circle id="rim2" cx="0" cy="0" r="3.5"/>
  <g id="zoomPlus">
    <use xlink:href="#rim" fill="#404040"><set attributeName="fill" to="#808080" begin="zoomplus.mouseover" end="zoomplus.mouseout"/></use>
    <path d="M-4,0h8M0,-4v8" fill="none" stroke="white" stroke-width="1.5" pointer-events="none"/>
  </g>
  <g id="zoomMin">
    <use xlink:href="#rim" fill="#404040"><set attributeName="fill" to="#808080" begin="zoomminus.mouseover" end="zoomminus.mouseout"/></use>
    <path d="M-4,0h8" fill="none" stroke="white" stroke-width="1.5" pointer-events="none"/>
  </g>
  <g id="arrowUp" transform="translate(30 24)">
    <use xlink:href="#rim"/>
    <path pointer-events="none" fill="none" stroke="white" stroke-width="1.5" d="M0,-3.0v7 M-2.5,-0.5L0,-3.0L2.5,-0.5"/>
  </g>
  <g id="arrowRight" transform="rotate(90) translate(36 -43)">
    <use xlink:href="#rim"/>
    <path pointer-events="none" fill="none" stroke="white" stroke-width="1.5" d="M0,-3.0v7 M-2.5,-0.5L0,-3.0L2.5,-0.5"/>
  </g>
  <g id="arrowDown" transform="rotate(180) translate(-30 -48)">
    <use xlink:href="#rim"/>
    <path pointer-events="none" fill="none" stroke="white" stroke-width="1.5" d="M0,-3.0v7 M-2.5,-0.5L0,-3.0L2.5,-0.5"/>
  </g>
  <g id="arrowLeft" transform="rotate(270) translate(-36 17)">
    <use xlink:href="#rim"/>
    <path pointer-events="none" fill="none" stroke="white" stroke-width="1.5" d="M0,-3.0v7 M-2.5,-0.5L0,-3.0L2.5,-0.5"/>
  </g>
  <g id="resetDef">
    <use xlink:href="#rim2" fill="#404040"><set attributeName="fill" to="#808080" begin="reset.mouseover" end="reset.mouseout"/></use>
  </g>
</defs>
<script type="application/ecmascript">
var viewWidth = 1000;
var viewHeight = 228;
var sectionId = 'dynsection-5';
</script>
<script type="application/ecmascript" xlink:href="../../svg.min.js"/>
<svg id="graph" class="graph">
<g id="viewport">
<title>lamina::RewriteVisitor::visit</title>
<!-- Node1 -->
<g id="Node000001" class="node">
<title>Node1</title>
<g id="a_Node000001"><a xlink:title=" ">
<polygon fill="#999999" stroke="#666666" points="125,-61 0,-61 0,-31 125,-31 125,-61"/>
<text text-anchor="start" x="8" y="-49" font-family="Helvetica,sans-Serif" font-size="10.00">lamina::RewriteVisitor</text>
<text text-anchor="middle" x="62.5" y="-38" font-family="Helvetica,sans-Serif" font-size="10.00">::visit</text>
</a>
</g>
</g>
<!-- Node2 -->
<g id="Node000002" class="node">
<title>Node2</title>
<g id="a_Node000002"><a xlink:href="../../d6/db0/classSymbolicFactory.html#ab9193b63564a64ab94045fa10e45f149" target="_top" xlink:title="创建加法节点，自动扁平化嵌套加法并消除零项。">
<polygon fill="white" stroke="#666666" points="822,-67.5 666,-67.5 666,-48.5 822,-48.5 822,-67.5"/>
<text text-anchor="middle" x="744" y="-55.5" font-family="Helvetica,sans-Serif" font-size="10.00">SymbolicFactory::create_add</text>
</a>
</g>
</g>
<!-- Node1&#45;&gt;Node2 -->
<g id="edge1_Node000001_Node000002" class="edge">
<title>Node1&#45;&gt;Node2</title>
<g id="a_edge1_Node000001_Node000002"><a xlink:title=" ">
<path fill="none" stroke="#63b8ff" d="M125.13,-45.39C177.5,-44.9 254.68,-44.26 322,-44 381.11,-43.77 395.91,-42.56 455,-44 522.39,-45.64 598.58,-49.43 655.65,-52.65"/>
<polygon fill="#63b8ff" stroke="#63b8ff" points="655.54,-56.15 665.72,-53.22 655.94,-49.16 655.54,-56.15"/>
</a>
</g>
</g>
<!-- Node4 -->
<g id="Node000004" class="node">
<title>Node4</title>
<g id="a_Node000004"><a xlink:href="../../d5/dd7/classlamina_1_1RewriteVisitor.html#ad4525a1d56870715e59dda9c7e5aa927" target="_top" xlink:title=" ">
<polygon fill="white" stroke="#666666" points="286,-104 161,-104 161,-74 286,-74 286,-104"/>
<text text-anchor="start" x="169" y="-92" font-family="Helvetica,sans-Serif" font-size="10.00">lamina::RewriteVisitor</text>
<text text-anchor="middle" x="223.5" y="-81" font-family="Helvetica,sans-Serif" font-size="10.00">::try_match</text>
</a>
</g>
</g>
<!-- Node1&#45;&gt;Node4 -->
<g id="edge3_Node000001_Node000004" class="edge">
<title>Node1&#45;&gt;Node4</title>
<g id="a_edge3_Node000001_Node000004"><a xlink:title=" ">
<path fill="none" stroke="#63b8ff" d="M119.11,-61.04C131.34,-64.35 144.39,-67.88 156.96,-71.28"/>
<polygon fill="#63b8ff" stroke="#63b8ff" points="156.35,-74.74 166.92,-73.97 158.18,-67.98 156.35,-74.74"/>
</a>
</g>
</g>
<!-- Node3 -->
<g id="Node000003" class="node">
<title>Node3</title>
<g id="a_Node000003"><a xlink:href="../../d6/db0/classSymbolicFactory.html#ae5389b9fe65a2b6c15996a29c0314396" target="_top" xlink:title="创建大整数数值节点。">
<polygon fill="white" stroke="#666666" points="992,-94 859,-94 859,-64 992,-64 992,-94"/>
<text text-anchor="start" x="867" y="-82" font-family="Helvetica,sans-Serif" font-size="10.00">SymbolicFactory::create</text>
<text text-anchor="middle" x="925.5" y="-71" font-family="Helvetica,sans-Serif" font-size="10.00">_number</text>
</a>
</g>
</g>
<!-- Node2&#45;&gt;Node3 -->
<g id="edge2_Node000002_Node000003" class="edge">
<title>Node2&#45;&gt;Node3</title>
<g id="a_edge2_Node000002_Node000003"><a xlink:title=" ">
<path fill="none" stroke="#63b8ff" d="M822.17,-67.03C830.98,-68.06 839.95,-69.11 848.74,-70.14"/>
<polygon fill="#63b8ff" stroke="#63b8ff" points="848.62,-73.65 858.96,-71.33 849.43,-66.69 848.62,-73.65"/>
</a>
</g>
</g>
<!-- Node5 -->
<g id="Node000005" class="node">
<title>Node5</title>
<g id="a_Node000005"><a xlink:href="../../d2/dbd/classlamina_1_1RewriteEngine.html#a6627e6120e03c15b237992c67c4caed8" target="_top" xlink:title="获取当前所有规则">
<polygon fill="white" stroke="#666666" points="452,-83 325,-83 325,-53 452,-53 452,-83"/>
<text text-anchor="start" x="333" y="-71" font-family="Helvetica,sans-Serif" font-size="10.00">lamina::RewriteEngine</text>
<text text-anchor="middle" x="388.5" y="-60" font-family="Helvetica,sans-Serif" font-size="10.00">::get_rules</text>
</a>
</g>
</g>
<!-- Node4&#45;&gt;Node5 -->
<g id="edge4_Node000004_Node000005" class="edge">
<title>Node4&#45;&gt;Node5</title>
<g id="a_edge4_Node000004_Node000005"><a xlink:title=" ">
<path fill="none" stroke="#63b8ff" d="M286.12,-81.06C295.56,-79.85 305.37,-78.58 315.01,-77.34"/>
<polygon fill="#63b8ff" stroke="#63b8ff" points="315.51,-80.8 324.98,-76.06 314.61,-73.86 315.51,-80.8"/>
</a>
</g>
</g>
<!-- Node6 -->
<g id="Node000006" class="node">
<title>Node6</title>
<g id="a_Node000006"><a xlink:href="../../d5/d68/classlamina_1_1Matcher.html#a756d9e2d855dfed07d5c7fed79761bfc" target="_top" xlink:title="将模式与目标表达式进行匹配">
<polygon fill="white" stroke="#666666" points="455,-158.5 322,-158.5 322,-139.5 455,-139.5 455,-158.5"/>
<text text-anchor="middle" x="388.5" y="-146.5" font-family="Helvetica,sans-Serif" font-size="10.00">lamina::Matcher::match</text>
</a>
</g>
</g>
<!-- Node4&#45;&gt;Node6 -->
<g id="edge5_Node000004_Node000006" class="edge">
<title>Node4&#45;&gt;Node6</title>
<g id="a_edge5_Node000004_Node000006"><a xlink:title=" ">
<path fill="none" stroke="#63b8ff" d="M265.29,-104.09C282.75,-110.54 303.37,-118.15 322,-125 331.62,-128.54 342.03,-132.36 351.67,-135.89"/>
<polygon fill="#63b8ff" stroke="#63b8ff" points="350.76,-139.29 361.36,-139.44 353.17,-132.71 350.76,-139.29"/>
</a>
</g>
</g>
<!-- Node11 -->
<g id="Node000011" class="node">
<title>Node11</title>
<g id="a_Node000011"><a xlink:href="../../d5/d68/classlamina_1_1Matcher.html#a1e55632a78e0381ed1df6d935d2d42f9" target="_top" xlink:title="将绑定结果代入模板表达式">
<polygon fill="white" stroke="#666666" points="629,-91.5 491,-91.5 491,-72.5 629,-72.5 629,-91.5"/>
<text text-anchor="middle" x="560" y="-79.5" font-family="Helvetica,sans-Serif" font-size="10.00">lamina::Matcher::replace</text>
</a>
</g>
</g>
<!-- Node4&#45;&gt;Node11 -->
<g id="edge15_Node000004_Node000011" class="edge">
<title>Node4&#45;&gt;Node11</title>
<g id="a_edge15_Node000004_Node000011"><a xlink:title=" ">
<path fill="none" stroke="#63b8ff" d="M286.13,-91.18C298.03,-91.52 310.4,-91.82 322,-92 381.1,-92.91 395.96,-94.83 455,-92 463.33,-91.6 472.03,-91.02 480.69,-90.34"/>
<polygon fill="#63b8ff" stroke="#63b8ff" points="481.14,-93.82 490.82,-89.5 480.56,-86.84 481.14,-93.82"/>
</a>
</g>
</g>
<!-- Node7 -->
<g id="Node000007" class="node">
<title>Node7</title>
<g id="a_Node000007"><a xlink:href="../../d1/d42/namespacelamina.html#aa1229a5af14e9c134f19472e208efff2" target="_top" xlink:title=" ">
<polygon fill="white" stroke="#666666" points="628.5,-158.5 491.5,-158.5 491.5,-139.5 628.5,-139.5 628.5,-158.5"/>
<text text-anchor="middle" x="560" y="-146.5" font-family="Helvetica,sans-Serif" font-size="10.00">lamina::match_recursive</text>
</a>
</g>
</g>
<!-- Node6&#45;&gt;Node7 -->
<g id="edge6_Node000006_Node000007" class="edge">
<title>Node6&#45;&gt;Node7</title>
<g id="a_edge6_Node000006_Node000007"><a xlink:title=" ">
<path fill="none" stroke="#63b8ff" d="M455.03,-149C463.6,-149 472.45,-149 481.2,-149"/>
<polygon fill="#63b8ff" stroke="#63b8ff" points="481.4,-152.5 491.4,-149 481.4,-145.5 481.4,-152.5"/>
</a>
</g>
</g>
<!-- Node7&#45;&gt;Node2 -->
<g id="edge7_Node000007_Node000002" class="edge">
<title>Node7&#45;&gt;Node2</title>
<g id="a_edge7_Node000007_Node000002"><a xlink:title=" ">
<path fill="none" stroke="#63b8ff" d="M574.65,-139.35C601.74,-120.24 660.09,-79.2 665,-77 670.46,-74.55 676.28,-72.38 682.18,-70.48"/>
<polygon fill="#63b8ff" stroke="#63b8ff" points="683.57,-73.72 692.16,-67.52 681.58,-67.01 683.57,-73.72"/>
</a>
</g>
</g>
<!-- Node7&#45;&gt;Node7 -->
<g id="edge14_Node000007_Node000007" class="edge">
<title>Node7&#45;&gt;Node7</title>
<g id="a_edge14_Node000007_Node000007"><a xlink:title=" ">
<path fill="none" stroke="#63b8ff" d="M533.8,-158.58C521.05,-167.23 529.79,-176.5 560,-176.5 580.3,-176.5 590.9,-172.32 591.81,-166.95"/>
<polygon fill="#63b8ff" stroke="#63b8ff" points="594.68,-164.94 586.2,-158.58 588.86,-168.84 594.68,-164.94"/>
</a>
</g>
</g>
<!-- Node8 -->
<g id="Node000008" class="node">
<title>Node8</title>
<g id="a_Node000008"><a xlink:href="../../d6/db0/classSymbolicFactory.html#a3c8860af8deed80da97fcb7256d270be" target="_top" xlink:title="创建乘法节点，自动扁平化嵌套乘法并消除单位元。">
<polygon fill="white" stroke="#666666" points="810.5,-116 677.5,-116 677.5,-86 810.5,-86 810.5,-116"/>
<text text-anchor="start" x="685.5" y="-104" font-family="Helvetica,sans-Serif" font-size="10.00">SymbolicFactory::create</text>
<text text-anchor="middle" x="744" y="-93" font-family="Helvetica,sans-Serif" font-size="10.00">_multiply</text>
</a>
</g>
</g>
<!-- Node7&#45;&gt;Node8 -->
<g id="edge8_Node000007_Node000008" class="edge">
<title>Node7&#45;&gt;Node8</title>
<g id="a_edge8_Node000007_Node000008"><a xlink:title=" ">
<path fill="none" stroke="#63b8ff" d="M597.39,-139.4C619.84,-133.48 649.31,-125.71 675.87,-118.7"/>
<polygon fill="#63b8ff" stroke="#63b8ff" points="677.11,-122 685.89,-116.06 675.32,-115.23 677.11,-122"/>
</a>
</g>
</g>
<!-- Node9 -->
<g id="Node000009" class="node">
<title>Node9</title>
<g id="a_Node000009"><a xlink:href="../../d1/d42/namespacelamina.html#aeb0f885705caf1e05230c85abbe59724" target="_top" xlink:title=" ">
<polygon fill="white" stroke="#666666" points="799.5,-219.5 688.5,-219.5 688.5,-200.5 799.5,-200.5 799.5,-219.5"/>
<text text-anchor="middle" x="744" y="-207.5" font-family="Helvetica,sans-Serif" font-size="10.00">lamina::is_wildcard</text>
</a>
</g>
</g>
<!-- Node7&#45;&gt;Node9 -->
<g id="edge10_Node000007_Node000009" class="edge">
<title>Node7&#45;&gt;Node9</title>
<g id="a_edge10_Node000007_Node000009"><a xlink:title=" ">
<path fill="none" stroke="#63b8ff" d="M582.18,-158.61C602.96,-167.78 635.71,-181.57 665,-191 672.73,-193.49 680.99,-195.83 689.13,-197.96"/>
<polygon fill="#63b8ff" stroke="#63b8ff" points="688.41,-201.39 698.96,-200.45 690.13,-194.6 688.41,-201.39"/>
</a>
</g>
</g>
<!-- Node10 -->
<g id="Node000010" class="node">
<title>Node10</title>
<g id="a_Node000010"><a xlink:href="../../d1/d42/namespacelamina.html#ae9e55d487db3d0012e65fd5470d8108f" target="_top" xlink:title=" ">
<polygon fill="white" stroke="#666666" points="823,-164 665,-164 665,-134 823,-134 823,-164"/>
<text text-anchor="start" x="673" y="-152" font-family="Helvetica,sans-Serif" font-size="10.00">lamina::match_commutative</text>
<text text-anchor="middle" x="744" y="-141" font-family="Helvetica,sans-Serif" font-size="10.00">_recursive</text>
</a>
</g>
</g>
<!-- Node7&#45;&gt;Node10 -->
<g id="edge11_Node000007_Node000010" class="edge">
<title>Node7&#45;&gt;Node10</title>
<g id="a_edge11_Node000007_Node000010"><a xlink:title=" ">
<path fill="none" stroke="#63b8ff" d="M628.51,-142.45C637.02,-142.3 645.82,-142.24 654.59,-142.25"/>
<polygon fill="#63b8ff" stroke="#63b8ff" points="654.83,-145.75 664.85,-142.31 654.87,-138.75 654.83,-145.75"/>
</a>
</g>
</g>
<!-- Node8&#45;&gt;Node3 -->
<g id="edge9_Node000008_Node000003" class="edge">
<title>Node8&#45;&gt;Node3</title>
<g id="a_edge9_Node000008_Node000003"><a xlink:title=" ">
<path fill="none" stroke="#63b8ff" d="M810.57,-92.96C822.97,-91.44 836.05,-89.84 848.74,-88.29"/>
<polygon fill="#63b8ff" stroke="#63b8ff" points="849.31,-91.74 858.81,-87.05 848.46,-84.79 849.31,-91.74"/>
</a>
</g>
</g>
<!-- Node10&#45;&gt;Node7 -->
<g id="edge13_Node000010_Node000007" class="edge">
<title>Node10&#45;&gt;Node7</title>
<g id="a_edge13_Node000010_Node000007"><a xlink:title=" ">
<path fill="none" stroke="#63b8ff" d="M664.85,-155.69C656.15,-155.77 647.3,-155.77 638.61,-155.68"/>
<polygon fill="#63b8ff" stroke="#63b8ff" points="638.56,-152.18 628.51,-155.55 638.46,-159.18 638.56,-152.18"/>
</a>
</g>
</g>
<!-- Node10&#45;&gt;Node10 -->
<g id="edge12_Node000010_Node000010" class="edge">
<title>Node10&#45;&gt;Node10</title>
<g id="a_edge12_Node000010_Node000010"><a xlink:title=" ">
<path fill="none" stroke="#63b8ff" d="M712.36,-164.28C705.33,-173.41 715.88,-182 744,-182 760.7,-182 771.2,-178.97 775.51,-174.6"/>
<polygon fill="#63b8ff" stroke="#63b8ff" points="779.01,-174.32 775.64,-164.28 772.01,-174.23 779.01,-174.32"/>
</a>
</g>
</g>
<!-- Node11&#45;&gt;Node2 -->
<g id="edge16_Node000011_Node000002" class="edge">
<title>Node11&#45;&gt;Node2</title>
<g id="a_edge16_Node000011_Node000002"><a xlink:title=" ">
<path fill="none" stroke="#63b8ff" d="M629.03,-73.03C639.36,-71.67 650.11,-70.25 660.7,-68.85"/>
<polygon fill="#63b8ff" stroke="#63b8ff" points="661.33,-72.3 670.79,-67.52 660.42,-65.36 661.33,-72.3"/>
</a>
</g>
</g>
<!-- Node11&#45;&gt;Node8 -->
<g id="edge17_Node000011_Node000008" class="edge">
<title>Node11&#45;&gt;Node8</title>
<g id="a_edge17_Node000011_Node000008"><a xlink:title=" ">
<path fill="none" stroke="#63b8ff" d="M629.03,-89.1C641.54,-90.41 654.66,-91.78 667.38,-93.11"/>
<polygon fill="#63b8ff" stroke="#63b8ff" points="667.16,-96.6 677.47,-94.16 667.89,-89.64 667.16,-96.6"/>
</a>
</g>
</g>
<!-- Node12 -->
<g id="Node000012" class="node">
<title>Node12</title>
<g id="a_Node000012"><a xlink:href="../../d5/ddd/classlamina_1_1ReplacementVisitor.html#aacff3809d6ac55e22b60dac895f9a061" target="_top" xlink:title=" ">
<polygon fill="white" stroke="#666666" points="820,-30 668,-30 668,0 820,0 820,-30"/>
<text text-anchor="start" x="676" y="-18" font-family="Helvetica,sans-Serif" font-size="10.00">lamina::ReplacementVisitor</text>
<text text-anchor="middle" x="744" y="-7" font-family="Helvetica,sans-Serif" font-size="10.00">::get_result</text>
</a>
</g>
</g>
<!-- Node11&#45;&gt;Node12 -->
<g id="edge18_Node000011_Node000012" class="edge">
<title>Node11&#45;&gt;Node12</title>
<g id="a_edge18_Node000011_Node000012"><a xlink:title=" ">
<path fill="none" stroke="#63b8ff" d="M583.54,-72.34C604.48,-63.5 636.62,-50.26 665,-40 671.29,-37.73 677.9,-35.44 684.5,-33.23"/>
<polygon fill="#63b8ff" stroke="#63b8ff" points="685.73,-36.51 694.13,-30.05 683.54,-29.87 685.73,-36.51"/>
</a>
</g>
</g>
</g>
</svg>

<g id="navigator" transform="translate(0 0)" fill="#404254">
  <rect fill="#f2f5e9" fill-opacity="0.5" stroke="#606060" stroke-width=".5" x="0" y="0" width="60" height="60"/>
  <use id="zoomplus" xlink:href="#zoomPlus" x="17" y="9" onmousedown="handleZoom(evt,'in')"/>
  <use id="zoomminus" xlink:href="#zoomMin" x="42" y="9" onmousedown="handleZoom(evt,'out')"/>
  <use id="reset" xlink:href="#resetDef" x="30" y="36" onmousedown="handleReset()"/>
   <use id="arrowup" xlink:href="#arrowUp" x="0" y="0" onmousedown="handlePan(0,-1)"/>
  <use id="arrowright" xlink:href="#arrowRight" x="0" y="0" onmousedown="handlePan(1,0)"/>
  <use id="arrowdown" xlink:href="#arrowDown" x="0" y="0" onmousedown="handlePan(0,1)"/>
  <use id="arrowleft" xlink:href="#arrowLeft" x="0" y="0" onmousedown="handlePan(-1,0)"/>
</g>
<svg viewBox="0 0 15 15" width="100%" height="30px" preserveAspectRatio="xMaxYMin meet">
 <g id="arrow_out" transform="scale(0.3 0.3)">
  <a xlink:href="classlamina_1_1RewriteVisitor_a1174973396ded627bf4e267a3f17387d_cgraph_org.svg" target="_base">
   <rect id="button" ry="5" rx="5" y="6" x="6" height="38" width="38"
        fill="#f2f5e9" fill-opacity="0.5" stroke="#606060" stroke-width="1.0"/>
   <path id="arrow"
     d="M 11.500037,31.436501 C 11.940474,20.09759 22.043105,11.32322 32.158766,21.979434 L 37.068811,17.246167 C 37.068811,17.246167 37.088388,32 37.088388,32 L 22.160133,31.978069 C 22.160133,31.978069 26.997745,27.140456 26.997745,27.140456 C 18.528582,18.264221 13.291696,25.230495 11.500037,31.436501 z"
     style="fill:#404040;"/>
  </a>
 </g>
</svg>

<style type='text/css'>
<![CDATA[
[data-mouse-over-selected='false'] { opacity: 0.7; }
[data-mouse-over-selected='true']  { opacity: 1.0; }
]]>
</style>
<script type="application/ecmascript"><![CDATA[
document.addEventListener('DOMContentLoaded', (event) => {
  highlightEdges();
  highlightAdjacentNodes();
});
]]></script>
</svg>
