<?xml version="1.0" encoding="UTF-8" standalone="no"?>
<!DOCTYPE svg PUBLIC "-//W3C//DTD SVG 1.1//EN"
 "http://www.w3.org/Graphics/SVG/1.1/DTD/svg11.dtd">
<!-- Generated by graphviz version 2.43.0 (0)
 -->
<!-- Title: lamina::MonomialOrder::operator() Pages: 1 -->
<svg width="476pt" height="107pt"
 viewBox="0.00 0.00 476.00 107.00" xmlns="http://www.w3.org/2000/svg" xmlns:xlink="http://www.w3.org/1999/xlink">
<g id="graph0" class="graph" transform="scale(1 1) rotate(0) translate(4 103)">
<title>lamina::MonomialOrder::operator()</title>
<!-- Node1 -->
<g id="Node000001" class="node">
<title>Node1</title>
<g id="a_Node000001"><a xlink:title="比较两个单项式的大小">
<polygon fill="#999999" stroke="#666666" points="132,-78 0,-78 0,-48 132,-48 132,-78"/>
<text text-anchor="start" x="8" y="-66" font-family="Helvetica,sans-Serif" font-size="10.00">lamina::MonomialOrder</text>
<text text-anchor="middle" x="66" y="-55" font-family="Helvetica,sans-Serif" font-size="10.00">::operator()</text>
</a>
</g>
</g>
<!-- Node2 -->
<g id="Node000002" class="node">
<title>Node2</title>
<g id="a_Node000002"><a xlink:href="../../da/d68/classlamina_1_1MonomialOrder.html#a680ad731b5125301d48eaadc5053f524" target="_top" xlink:title=" ">
<polygon fill="white" stroke="#666666" points="300,-78 168,-78 168,-48 300,-48 300,-78"/>
<text text-anchor="start" x="176" y="-66" font-family="Helvetica,sans-Serif" font-size="10.00">lamina::MonomialOrder</text>
<text text-anchor="middle" x="234" y="-55" font-family="Helvetica,sans-Serif" font-size="10.00">::compare_deglex</text>
</a>
</g>
</g>
<!-- Node1&#45;&gt;Node2 -->
<g id="edge1_Node000001_Node000002" class="edge">
<title>Node1&#45;&gt;Node2</title>
<g id="a_edge1_Node000001_Node000002"><a xlink:title=" ">
<path fill="none" stroke="#63b8ff" d="M132.13,-63C140.46,-63 149.04,-63 157.52,-63"/>
<polygon fill="#63b8ff" stroke="#63b8ff" points="157.78,-66.5 167.78,-63 157.78,-59.5 157.78,-66.5"/>
</a>
</g>
</g>
<!-- Node3 -->
<g id="Node000003" class="node">
<title>Node3</title>
<g id="a_Node000003"><a xlink:href="../../da/d68/classlamina_1_1MonomialOrder.html#a6afb955ceecb2261d24f1ad5a8dc32b7" target="_top" xlink:title=" ">
<polygon fill="white" stroke="#666666" points="468,-99 336,-99 336,-69 468,-69 468,-99"/>
<text text-anchor="start" x="344" y="-87" font-family="Helvetica,sans-Serif" font-size="10.00">lamina::MonomialOrder</text>
<text text-anchor="middle" x="402" y="-76" font-family="Helvetica,sans-Serif" font-size="10.00">::compare_lex</text>
</a>
</g>
</g>
<!-- Node1&#45;&gt;Node3 -->
<g id="edge6_Node000001_Node000003" class="edge">
<title>Node1&#45;&gt;Node3</title>
<g id="a_edge6_Node000001_Node000003"><a xlink:title=" ">
<path fill="none" stroke="#63b8ff" d="M120.05,-78.06C135.39,-81.74 152.25,-85.15 168,-87 220.48,-93.15 280.07,-92.24 325.84,-89.88"/>
<polygon fill="#63b8ff" stroke="#63b8ff" points="326.19,-93.37 335.99,-89.32 325.81,-86.38 326.19,-93.37"/>
</a>
</g>
</g>
<!-- Node5 -->
<g id="Node000005" class="node">
<title>Node5</title>
<g id="a_Node000005"><a xlink:href="../../da/d68/classlamina_1_1MonomialOrder.html#ac3f4a9b3b681cac4e12357c4d74729b4" target="_top" xlink:title=" ">
<polygon fill="white" stroke="#666666" points="300,-30 168,-30 168,0 300,0 300,-30"/>
<text text-anchor="start" x="176" y="-18" font-family="Helvetica,sans-Serif" font-size="10.00">lamina::MonomialOrder</text>
<text text-anchor="middle" x="234" y="-7" font-family="Helvetica,sans-Serif" font-size="10.00">::compare_grevlex</text>
</a>
</g>
</g>
<!-- Node1&#45;&gt;Node5 -->
<g id="edge4_Node000001_Node000005" class="edge">
<title>Node1&#45;&gt;Node5</title>
<g id="a_edge4_Node000001_Node000005"><a xlink:title=" ">
<path fill="none" stroke="#63b8ff" d="M119.07,-47.94C135.6,-43.16 154.04,-37.83 171.19,-32.87"/>
<polygon fill="#63b8ff" stroke="#63b8ff" points="172.48,-36.14 181.12,-30 170.54,-29.42 172.48,-36.14"/>
</a>
</g>
</g>
<!-- Node2&#45;&gt;Node3 -->
<g id="edge2_Node000002_Node000003" class="edge">
<title>Node2&#45;&gt;Node3</title>
<g id="a_edge2_Node000002_Node000003"><a xlink:title=" ">
<path fill="none" stroke="#63b8ff" d="M300.13,-71.24C308.55,-72.3 317.23,-73.4 325.8,-74.49"/>
<polygon fill="#63b8ff" stroke="#63b8ff" points="325.42,-77.97 335.78,-75.75 326.3,-71.02 325.42,-77.97"/>
</a>
</g>
</g>
<!-- Node4 -->
<g id="Node000004" class="node">
<title>Node4</title>
<g id="a_Node000004"><a xlink:href="../../d1/d42/namespacelamina.html#a33c68aed536f8284ccb988c65de34e2b" target="_top" xlink:title="计算单项式的全次数">
<polygon fill="white" stroke="#666666" points="461,-48.5 343,-48.5 343,-29.5 461,-29.5 461,-48.5"/>
<text text-anchor="middle" x="402" y="-36.5" font-family="Helvetica,sans-Serif" font-size="10.00">lamina::total_degree</text>
</a>
</g>
</g>
<!-- Node2&#45;&gt;Node4 -->
<g id="edge3_Node000002_Node000004" class="edge">
<title>Node2&#45;&gt;Node4</title>
<g id="a_edge3_Node000002_Node000004"><a xlink:title=" ">
<path fill="none" stroke="#63b8ff" d="M300.13,-53.58C310.8,-52.04 321.88,-50.44 332.63,-48.89"/>
<polygon fill="#63b8ff" stroke="#63b8ff" points="333.41,-52.31 342.8,-47.41 332.4,-45.38 333.41,-52.31"/>
</a>
</g>
</g>
<!-- Node5&#45;&gt;Node4 -->
<g id="edge5_Node000005_Node000004" class="edge">
<title>Node5&#45;&gt;Node4</title>
<g id="a_edge5_Node000005_Node000004"><a xlink:title=" ">
<path fill="none" stroke="#63b8ff" d="M300.13,-24.42C310.8,-25.96 321.88,-27.56 332.63,-29.11"/>
<polygon fill="#63b8ff" stroke="#63b8ff" points="332.4,-32.62 342.8,-30.59 333.41,-25.69 332.4,-32.62"/>
</a>
</g>
</g>
</g>
</svg>
