<?xml version="1.0" encoding="UTF-8" standalone="no"?>
<!DOCTYPE svg PUBLIC "-//W3C//DTD SVG 1.1//EN"
 "http://www.w3.org/Graphics/SVG/1.1/DTD/svg11.dtd">
<!-- Generated by graphviz version 2.43.0 (0)
 -->
<!-- Title: lmmp_mat22_t Pages: 1 -->
<svg width="120pt" height="186pt"
 viewBox="0.00 0.00 120.00 186.00" xmlns="http://www.w3.org/2000/svg" xmlns:xlink="http://www.w3.org/1999/xlink">
<g id="graph0" class="graph" transform="scale(1 1) rotate(0) translate(4 182)">
<title>lmmp_mat22_t</title>
<!-- Node1 -->
<g id="Node000001" class="node">
<title>Node1</title>
<g id="a_Node000001"><a xlink:title=" ">
<polygon fill="#999999" stroke="transparent" points="99.5,-49 14.5,-49 14.5,0 99.5,0 99.5,-49"/>
<text text-anchor="start" x="20" y="-36.5" font-family="Helvetica,sans-Serif" font-size="10.00">lmmp_mat22_t</text>
<text text-anchor="start" x="55.5" y="-21.5" font-family="Helvetica,sans-Serif" font-size="10.00"> </text>
<text text-anchor="start" x="55.5" y="-6.5" font-family="Helvetica,sans-Serif" font-size="10.00"> </text>
<polygon fill="#666666" stroke="#666666" points="15,-31.5 15,-31.5 100,-31.5 100,-31.5 15,-31.5"/>
<polygon fill="#666666" stroke="#666666" points="15,-16.5 15,-16.5 100,-16.5 100,-16.5 15,-16.5"/>
<polygon fill="none" stroke="#666666" points="14.5,0 14.5,-49 99.5,-49 99.5,0 14.5,0"/>
</a>
</g>
</g>
<!-- Node2 -->
<g id="Node000002" class="node">
<title>Node2</title>
<g id="a_Node000002"><a xlink:title=" ">
<polygon fill="white" stroke="transparent" points="50,-178 0,-178 0,-129 50,-129 50,-178"/>
<text text-anchor="start" x="5" y="-165.5" font-family="Helvetica,sans-Serif" font-size="10.00">uint64_t</text>
<text text-anchor="start" x="23" y="-150.5" font-family="Helvetica,sans-Serif" font-size="10.00"> </text>
<text text-anchor="start" x="23" y="-135.5" font-family="Helvetica,sans-Serif" font-size="10.00"> </text>
<polygon fill="#666666" stroke="#666666" points="0,-160.5 0,-160.5 50,-160.5 50,-160.5 0,-160.5"/>
<polygon fill="#666666" stroke="#666666" points="0,-145.5 0,-145.5 50,-145.5 50,-145.5 0,-145.5"/>
<polygon fill="none" stroke="#666666" points="0,-129 0,-178 50,-178 50,-129 0,-129"/>
</a>
</g>
</g>
<!-- Node2&#45;&gt;Node1 -->
<g id="edge1_Node000001_Node000002" class="edge">
<title>Node2&#45;&gt;Node1</title>
<g id="a_edge1_Node000001_Node000002"><a xlink:title=" ">
<path fill="none" stroke="#63b8ff" d="M26.81,-128.89C28.57,-111.5 31.9,-87.43 38,-67 38.64,-64.87 39.36,-62.71 40.15,-60.55"/>
<polygon fill="none" stroke="#63b8ff" points="40.24,-60.31 38.81,-53.24 44.78,-49.2 46.22,-56.27 40.24,-60.31"/>
</a>
</g>
<text text-anchor="middle" x="53" y="-103" font-family="Helvetica,sans-Serif" font-size="10.00" fill="grey"> +a00</text>
<text text-anchor="middle" x="53" y="-92" font-family="Helvetica,sans-Serif" font-size="10.00" fill="grey">+a01</text>
<text text-anchor="middle" x="53" y="-81" font-family="Helvetica,sans-Serif" font-size="10.00" fill="grey">+a10</text>
<text text-anchor="middle" x="53" y="-70" font-family="Helvetica,sans-Serif" font-size="10.00" fill="grey">+a11</text>
</g>
<!-- Node3 -->
<g id="Node000003" class="node">
<title>Node3</title>
<g id="a_Node000003"><a xlink:title=" ">
<polygon fill="white" stroke="transparent" points="112,-178 68,-178 68,-129 112,-129 112,-178"/>
<text text-anchor="start" x="73" y="-165.5" font-family="Helvetica,sans-Serif" font-size="10.00">int64_t</text>
<text text-anchor="start" x="88" y="-150.5" font-family="Helvetica,sans-Serif" font-size="10.00"> </text>
<text text-anchor="start" x="88" y="-135.5" font-family="Helvetica,sans-Serif" font-size="10.00"> </text>
<polygon fill="#666666" stroke="#666666" points="68,-160.5 68,-160.5 112,-160.5 112,-160.5 68,-160.5"/>
<polygon fill="#666666" stroke="#666666" points="68,-145.5 68,-145.5 112,-145.5 112,-145.5 68,-145.5"/>
<polygon fill="none" stroke="#666666" points="68,-129 68,-178 112,-178 112,-129 68,-129"/>
</a>
</g>
</g>
<!-- Node3&#45;&gt;Node1 -->
<g id="edge2_Node000001_Node000003" class="edge">
<title>Node3&#45;&gt;Node1</title>
<g id="a_edge2_Node000001_Node000003"><a xlink:title=" ">
<path fill="none" stroke="#63b8ff" d="M83.98,-128.9C79.58,-111.72 73.46,-87.91 68,-67 67.48,-65.02 66.95,-62.98 66.41,-60.93"/>
<polygon fill="none" stroke="#63b8ff" points="66.37,-60.8 60.98,-56.02 63.31,-49.19 68.71,-53.97 66.37,-60.8"/>
</a>
</g>
<text text-anchor="middle" x="93" y="-103" font-family="Helvetica,sans-Serif" font-size="10.00" fill="grey"> +n00</text>
<text text-anchor="middle" x="93" y="-92" font-family="Helvetica,sans-Serif" font-size="10.00" fill="grey">+n01</text>
<text text-anchor="middle" x="93" y="-81" font-family="Helvetica,sans-Serif" font-size="10.00" fill="grey">+n10</text>
<text text-anchor="middle" x="93" y="-70" font-family="Helvetica,sans-Serif" font-size="10.00" fill="grey">+n11</text>
</g>
</g>
</svg>
