<?xml version="1.0" encoding="UTF-8" standalone="no"?>
<!DOCTYPE svg PUBLIC "-//W3C//DTD SVG 1.1//EN"
 "http://www.w3.org/Graphics/SVG/1.1/DTD/svg11.dtd">
<!-- Generated by graphviz version 2.43.0 (0)
 -->
<!-- Title: lamina::Endpoint::pos_inf Pages: 1 -->
<svg width="890pt" height="258pt"
 viewBox="0.00 0.00 890.00 258.00" xmlns="http://www.w3.org/2000/svg" xmlns:xlink="http://www.w3.org/1999/xlink">
<g id="graph0" class="graph" transform="scale(1 1) rotate(0) translate(4 254)">
<title>lamina::Endpoint::pos_inf</title>
<!-- Node1 -->
<g id="Node000001" class="node">
<title>Node1</title>
<g id="a_Node000001"><a xlink:title="构造正无穷端点">
<polygon fill="#999999" stroke="#666666" points="882,-148.5 742,-148.5 742,-129.5 882,-129.5 882,-148.5"/>
<text text-anchor="middle" x="812" y="-136.5" font-family="Helvetica,sans-Serif" font-size="10.00">lamina::Endpoint::pos_inf</text>
</a>
</g>
</g>
<!-- Node2 -->
<g id="Node000002" class="node">
<title>Node2</title>
<g id="a_Node000002"><a xlink:href="../../db/d26/classlamina_1_1InequalitySolver.html#a9af1d18fde887233edcaa36e76226f94" target="_top" xlink:title=" ">
<polygon fill="white" stroke="#666666" points="346,-250 197,-250 197,-220 346,-220 346,-250"/>
<text text-anchor="start" x="205" y="-238" font-family="Helvetica,sans-Serif" font-size="10.00">lamina::InequalitySolver</text>
<text text-anchor="middle" x="271.5" y="-227" font-family="Helvetica,sans-Serif" font-size="10.00">::build_parametric_solution</text>
</a>
</g>
</g>
<!-- Node1&#45;&gt;Node2 -->
<g id="edge1_Node000001_Node000002" class="edge">
<title>Node1&#45;&gt;Node2</title>
<g id="a_edge1_Node000001_Node000002"><a xlink:title=" ">
<path fill="none" stroke="#63b8ff" d="M781.73,-152.75C761,-161.98 732.3,-173.74 706,-181 582.63,-215.06 433.54,-227.68 346.25,-232.33"/>
<polygon fill="#63b8ff" stroke="#63b8ff" points="783.27,-155.89 790.94,-148.58 780.39,-149.52 783.27,-155.89"/>
</a>
</g>
</g>
<!-- Node4 -->
<g id="Node000004" class="node">
<title>Node4</title>
<g id="a_Node000004"><a xlink:href="../../db/d26/classlamina_1_1InequalitySolver.html#a7d51c2516b711ff1af4d1f85895b57f1" target="_top" xlink:title=" ">
<polygon fill="white" stroke="#666666" points="518,-202 382,-202 382,-172 518,-172 518,-202"/>
<text text-anchor="start" x="390" y="-190" font-family="Helvetica,sans-Serif" font-size="10.00">lamina::InequalitySolver</text>
<text text-anchor="middle" x="450" y="-179" font-family="Helvetica,sans-Serif" font-size="10.00">::build_sign_chart</text>
</a>
</g>
</g>
<!-- Node1&#45;&gt;Node4 -->
<g id="edge4_Node000001_Node000004" class="edge">
<title>Node1&#45;&gt;Node4</title>
<g id="a_edge4_Node000001_Node000004"><a xlink:title=" ">
<path fill="none" stroke="#63b8ff" d="M748.7,-150.24C734.68,-152.61 719.85,-155 706,-157 642.47,-166.18 569.73,-174.52 518.24,-180.07"/>
<polygon fill="#63b8ff" stroke="#63b8ff" points="749.48,-153.65 758.75,-148.52 748.3,-146.75 749.48,-153.65"/>
</a>
</g>
</g>
<!-- Node7 -->
<g id="Node000007" class="node">
<title>Node7</title>
<g id="a_Node000007"><a xlink:href="../../de/d2c/classlamina_1_1IntervalUnion.html#aa23445cfef2515c76137ac931141397e" target="_top" xlink:title="求补集">
<polygon fill="white" stroke="#666666" points="332.5,-78 210.5,-78 210.5,-48 332.5,-48 332.5,-78"/>
<text text-anchor="start" x="218.5" y="-66" font-family="Helvetica,sans-Serif" font-size="10.00">lamina::IntervalUnion</text>
<text text-anchor="middle" x="271.5" y="-55" font-family="Helvetica,sans-Serif" font-size="10.00">::complement</text>
</a>
</g>
</g>
<!-- Node1&#45;&gt;Node7 -->
<g id="edge8_Node000001_Node000007" class="edge">
<title>Node1&#45;&gt;Node7</title>
<g id="a_edge8_Node000001_Node000007"><a xlink:title=" ">
<path fill="none" stroke="#63b8ff" d="M751.13,-127.65C736.4,-125 720.65,-122.29 706,-120 573.06,-99.24 416.4,-79.91 332.59,-69.97"/>
<polygon fill="#63b8ff" stroke="#63b8ff" points="750.68,-131.13 761.14,-129.47 751.93,-124.24 750.68,-131.13"/>
</a>
</g>
</g>
<!-- Node8 -->
<g id="Node000008" class="node">
<title>Node8</title>
<g id="a_Node000008"><a xlink:href="../../db/d7f/structlamina_1_1Interval.html#ab8d0ef3adfd59eaf374ec9058cacd5b6" target="_top" xlink:title="构造整条实数轴 (&#45;∞, +∞)">
<polygon fill="white" stroke="#666666" points="706,-148.5 554,-148.5 554,-129.5 706,-129.5 706,-148.5"/>
<text text-anchor="middle" x="630" y="-136.5" font-family="Helvetica,sans-Serif" font-size="10.00">lamina::Interval::entire_line</text>
</a>
</g>
</g>
<!-- Node1&#45;&gt;Node8 -->
<g id="edge9_Node000001_Node000008" class="edge">
<title>Node1&#45;&gt;Node8</title>
<g id="a_edge9_Node000001_Node000008"><a xlink:title=" ">
<path fill="none" stroke="#63b8ff" d="M731.67,-139C723.2,-139 714.6,-139 706.18,-139"/>
<polygon fill="#63b8ff" stroke="#63b8ff" points="731.92,-142.5 741.92,-139 731.92,-135.5 731.92,-142.5"/>
</a>
</g>
</g>
<!-- Node10 -->
<g id="Node000010" class="node">
<title>Node10</title>
<g id="a_Node000010"><a xlink:href="../../db/d26/classlamina_1_1InequalitySolver.html#a2244f0ce0ad6b3b5781a8c7ced636447" target="_top" xlink:title="求解有理不等式 numerator/denominator ≷ 0">
<polygon fill="white" stroke="#666666" points="344.5,-30 198.5,-30 198.5,0 344.5,0 344.5,-30"/>
<text text-anchor="start" x="206.5" y="-18" font-family="Helvetica,sans-Serif" font-size="10.00">lamina::InequalitySolver</text>
<text text-anchor="middle" x="271.5" y="-7" font-family="Helvetica,sans-Serif" font-size="10.00">::solve_rational_inequality</text>
</a>
</g>
</g>
<!-- Node1&#45;&gt;Node10 -->
<g id="edge19_Node000001_Node000010" class="edge">
<title>Node1&#45;&gt;Node10</title>
<g id="a_edge19_Node000001_Node000010"><a xlink:title=" ">
<path fill="none" stroke="#63b8ff" d="M781.7,-125.11C760.96,-115.75 732.26,-103.74 706,-96 581.34,-59.25 431.4,-35.62 344.51,-23.87"/>
<polygon fill="#63b8ff" stroke="#63b8ff" points="780.37,-128.35 790.92,-129.34 783.29,-121.99 780.37,-128.35"/>
</a>
</g>
</g>
<!-- Node3 -->
<g id="Node000003" class="node">
<title>Node3</title>
<g id="a_Node000003"><a xlink:href="../../db/d26/classlamina_1_1InequalitySolver.html#a52f3cb8d15f7d98c4cfe1d8c39f910fc" target="_top" xlink:title="求解含参数的不等式，返回分段结果">
<polygon fill="white" stroke="#666666" points="161,-202 0,-202 0,-172 161,-172 161,-202"/>
<text text-anchor="start" x="8" y="-190" font-family="Helvetica,sans-Serif" font-size="10.00">lamina::InequalitySolver</text>
<text text-anchor="middle" x="80.5" y="-179" font-family="Helvetica,sans-Serif" font-size="10.00">::solve_parametric_inequality</text>
</a>
</g>
</g>
<!-- Node2&#45;&gt;Node3 -->
<g id="edge2_Node000002_Node000003" class="edge">
<title>Node2&#45;&gt;Node3</title>
<g id="a_edge2_Node000002_Node000003"><a xlink:title=" ">
<path fill="none" stroke="#63b8ff" d="M201.28,-217.42C181.36,-212.36 159.82,-206.89 140.57,-202"/>
<polygon fill="#63b8ff" stroke="#63b8ff" points="200.66,-220.87 211.22,-219.94 202.39,-214.09 200.66,-220.87"/>
</a>
</g>
</g>
<!-- Node3&#45;&gt;Node3 -->
<g id="edge3_Node000003_Node000003" class="edge">
<title>Node3&#45;&gt;Node3</title>
<g id="a_edge3_Node000003_Node000003"><a xlink:title=" ">
<path fill="none" stroke="#63b8ff" d="M113.76,-212.6C109.21,-216.97 98.13,-220 80.5,-220 50.81,-220 39.68,-211.41 47.1,-202.28"/>
<polygon fill="#63b8ff" stroke="#63b8ff" points="117.26,-212.32 113.9,-202.28 110.26,-212.23 117.26,-212.32"/>
</a>
</g>
</g>
<!-- Node5 -->
<g id="Node000005" class="node">
<title>Node5</title>
<g id="a_Node000005"><a xlink:href="../../db/d26/classlamina_1_1InequalitySolver.html#ad7aab28f2d96ad0eb07ff291a650afb8" target="_top" xlink:title="求解单个不等式">
<polygon fill="white" stroke="#666666" points="339.5,-202 203.5,-202 203.5,-172 339.5,-172 339.5,-202"/>
<text text-anchor="start" x="211.5" y="-190" font-family="Helvetica,sans-Serif" font-size="10.00">lamina::InequalitySolver</text>
<text text-anchor="middle" x="271.5" y="-179" font-family="Helvetica,sans-Serif" font-size="10.00">::solve_inequality</text>
</a>
</g>
</g>
<!-- Node4&#45;&gt;Node5 -->
<g id="edge5_Node000004_Node000005" class="edge">
<title>Node4&#45;&gt;Node5</title>
<g id="a_edge5_Node000004_Node000005"><a xlink:title=" ">
<path fill="none" stroke="#63b8ff" d="M371.61,-187C360.92,-187 350.02,-187 339.54,-187"/>
<polygon fill="#63b8ff" stroke="#63b8ff" points="371.77,-190.5 381.77,-187 371.77,-183.5 371.77,-190.5"/>
</a>
</g>
</g>
<!-- Node5&#45;&gt;Node3 -->
<g id="edge7_Node000005_Node000003" class="edge">
<title>Node5&#45;&gt;Node3</title>
<g id="a_edge7_Node000005_Node000003"><a xlink:title=" ">
<path fill="none" stroke="#63b8ff" d="M193.26,-187C182.64,-187 171.71,-187 161.05,-187"/>
<polygon fill="#63b8ff" stroke="#63b8ff" points="193.33,-190.5 203.33,-187 193.33,-183.5 193.33,-190.5"/>
</a>
</g>
</g>
<!-- Node6 -->
<g id="Node000006" class="node">
<title>Node6</title>
<g id="a_Node000006"><a xlink:href="../../db/d26/classlamina_1_1InequalitySolver.html#ac97e2561a906111e54c90d494d0fef92" target="_top" xlink:title="求解不等式组（取交集）">
<polygon fill="white" stroke="#666666" points="148.5,-138 12.5,-138 12.5,-108 148.5,-108 148.5,-138"/>
<text text-anchor="start" x="20.5" y="-126" font-family="Helvetica,sans-Serif" font-size="10.00">lamina::InequalitySolver</text>
<text text-anchor="middle" x="80.5" y="-115" font-family="Helvetica,sans-Serif" font-size="10.00">::solve_inequalities</text>
</a>
</g>
</g>
<!-- Node5&#45;&gt;Node6 -->
<g id="edge6_Node000005_Node000006" class="edge">
<title>Node5&#45;&gt;Node6</title>
<g id="a_edge6_Node000005_Node000006"><a xlink:title=" ">
<path fill="none" stroke="#63b8ff" d="M216.7,-168.78C187.97,-159.05 153.02,-147.22 125.86,-138.02"/>
<polygon fill="#63b8ff" stroke="#63b8ff" points="215.59,-172.1 226.19,-171.99 217.84,-165.47 215.59,-172.1"/>
</a>
</g>
</g>
<!-- Node8&#45;&gt;Node4 -->
<g id="edge10_Node000008_Node000004" class="edge">
<title>Node8&#45;&gt;Node4</title>
<g id="a_edge10_Node000008_Node000004"><a xlink:title=" ">
<path fill="none" stroke="#63b8ff" d="M583.74,-151.2C560.36,-157.51 531.61,-165.26 506.86,-171.94"/>
<polygon fill="#63b8ff" stroke="#63b8ff" points="584.66,-154.58 593.41,-148.6 582.84,-147.82 584.66,-154.58"/>
</a>
</g>
</g>
<!-- Node9 -->
<g id="Node000009" class="node">
<title>Node9</title>
<g id="a_Node000009"><a xlink:href="../../de/d2c/classlamina_1_1IntervalUnion.html#add405122c217357d94361266e2584436" target="_top" xlink:title="构造全实数轴">
<polygon fill="white" stroke="#666666" points="511,-154 389,-154 389,-124 511,-124 511,-154"/>
<text text-anchor="start" x="397" y="-142" font-family="Helvetica,sans-Serif" font-size="10.00">lamina::IntervalUnion</text>
<text text-anchor="middle" x="450" y="-131" font-family="Helvetica,sans-Serif" font-size="10.00">::entire_line</text>
</a>
</g>
</g>
<!-- Node8&#45;&gt;Node9 -->
<g id="edge11_Node000008_Node000009" class="edge">
<title>Node8&#45;&gt;Node9</title>
<g id="a_edge11_Node000008_Node000009"><a xlink:title=" ">
<path fill="none" stroke="#63b8ff" d="M543.7,-139C532.7,-139 521.61,-139 511.13,-139"/>
<polygon fill="#63b8ff" stroke="#63b8ff" points="543.77,-142.5 553.77,-139 543.77,-135.5 543.77,-142.5"/>
</a>
</g>
</g>
<!-- Node8&#45;&gt;Node10 -->
<g id="edge18_Node000008_Node000010" class="edge">
<title>Node8&#45;&gt;Node10</title>
<g id="a_edge18_Node000008_Node000010"><a xlink:title=" ">
<path fill="none" stroke="#63b8ff" d="M593.13,-126.02C539.51,-106.67 435.18,-69.31 346,-39 337.36,-36.06 328.12,-32.99 319.21,-30.07"/>
<polygon fill="#63b8ff" stroke="#63b8ff" points="591.95,-129.31 602.54,-129.41 594.33,-122.72 591.95,-129.31"/>
</a>
</g>
</g>
<!-- Node9&#45;&gt;Node2 -->
<g id="edge12_Node000009_Node000002" class="edge">
<title>Node9&#45;&gt;Node2</title>
<g id="a_edge12_Node000009_Node000002"><a xlink:title=" ">
<path fill="none" stroke="#63b8ff" d="M387.81,-159.1C385.8,-160.33 383.86,-161.63 382,-163 360.54,-178.83 367.68,-195.47 346,-211 341.2,-214.44 335.88,-217.4 330.35,-219.96"/>
<polygon fill="#63b8ff" stroke="#63b8ff" points="389.83,-161.99 396.95,-154.14 386.49,-155.84 389.83,-161.99"/>
</a>
</g>
</g>
<!-- Node9&#45;&gt;Node3 -->
<g id="edge16_Node000009_Node000003" class="edge">
<title>Node9&#45;&gt;Node3</title>
<g id="a_edge16_Node000009_Node000003"><a xlink:title=" ">
<path fill="none" stroke="#63b8ff" d="M378.75,-143.61C328.06,-147.44 258.08,-153.77 197,-163 180.9,-165.43 163.66,-168.67 147.54,-171.97"/>
<polygon fill="#63b8ff" stroke="#63b8ff" points="379.23,-147.08 388.95,-142.85 378.71,-140.1 379.23,-147.08"/>
</a>
</g>
</g>
<!-- Node9&#45;&gt;Node5 -->
<g id="edge15_Node000009_Node000005" class="edge">
<title>Node9&#45;&gt;Node5</title>
<g id="a_edge15_Node000009_Node000005"><a xlink:title=" ">
<path fill="none" stroke="#63b8ff" d="M383.85,-156.72C365.39,-161.74 345.47,-167.15 327.66,-172"/>
<polygon fill="#63b8ff" stroke="#63b8ff" points="384.91,-160.06 393.64,-154.06 383.07,-153.3 384.91,-160.06"/>
</a>
</g>
</g>
<!-- Node9&#45;&gt;Node6 -->
<g id="edge14_Node000009_Node000006" class="edge">
<title>Node9&#45;&gt;Node6</title>
<g id="a_edge14_Node000009_Node000006"><a xlink:title=" ">
<path fill="none" stroke="#63b8ff" d="M378.86,-132.3C367.87,-131.41 356.63,-130.6 346,-130 278.93,-126.19 202.16,-124.44 148.67,-123.65"/>
<polygon fill="#63b8ff" stroke="#63b8ff" points="378.61,-135.79 388.86,-133.13 379.19,-128.81 378.61,-135.79"/>
</a>
</g>
</g>
<!-- Node9&#45;&gt;Node7 -->
<g id="edge13_Node000009_Node000007" class="edge">
<title>Node9&#45;&gt;Node7</title>
<g id="a_edge13_Node000009_Node000007"><a xlink:title=" ">
<path fill="none" stroke="#63b8ff" d="M403.37,-119.65C396.19,-116.49 388.87,-113.2 382,-110 365.79,-102.44 362.34,-99.29 346,-92 335.23,-87.19 323.4,-82.34 312.44,-78.02"/>
<polygon fill="#63b8ff" stroke="#63b8ff" points="402.46,-123.07 413.02,-123.86 405.26,-116.66 402.46,-123.07"/>
</a>
</g>
</g>
<!-- Node9&#45;&gt;Node10 -->
<g id="edge17_Node000009_Node000010" class="edge">
<title>Node9&#45;&gt;Node10</title>
<g id="a_edge17_Node000009_Node000010"><a xlink:title=" ">
<path fill="none" stroke="#63b8ff" d="M393.62,-118.91C389.45,-116.26 385.51,-113.3 382,-110 356.23,-85.75 372.86,-62.02 346,-39 342.02,-35.59 337.56,-32.67 332.83,-30.16"/>
<polygon fill="#63b8ff" stroke="#63b8ff" points="392.01,-122.02 402.44,-123.91 395.47,-115.93 392.01,-122.02"/>
</a>
</g>
</g>
</g>
</svg>
