<?xml version="1.0" encoding="UTF-8" standalone="no"?>
<!DOCTYPE svg PUBLIC "-//W3C//DTD SVG 1.1//EN"
 "http://www.w3.org/Graphics/SVG/1.1/DTD/svg11.dtd">
<!-- Generated by graphviz version 2.43.0 (0)
 -->
<!-- Title: src/lammp Pages: 1 -->
<svg width="519pt" height="125pt"
 viewBox="0.00 0.00 519.00 125.00" xmlns="http://www.w3.org/2000/svg" xmlns:xlink="http://www.w3.org/1999/xlink">
<g id="graph0" class="graph" transform="scale(1 1) rotate(0) translate(4 121)">
<title>src/lammp</title>
<g id="clust1" class="cluster">
<title>clusterdir_68267d1309a1af8e8297ef4c3efbcdba</title>
<g id="a_clust1"><a xlink:href="dir_68267d1309a1af8e8297ef4c3efbcdba.html" target="_top" xlink:title="src">
<polygon fill="#edf0f7" stroke="#404040" stroke-dasharray="5,2" points="8,-39 8,-109 503,-109 503,-39 8,-39"/>
<text text-anchor="middle" x="255.5" y="-97" font-family="Helvetica,sans-Serif" font-size="10.00">src</text>
</a>
</g>
</g>
<g id="clust2" class="cluster">
<title>clusterdir_d77cbddddf37de395302ec58cb811daa</title>
<g id="a_clust2"><a xlink:href="dir_d77cbddddf37de395302ec58cb811daa.html" target="_top">
<polygon fill="#edf0f7" stroke="#404040" stroke-width="2" points="16,-47 16,-82 495,-82 495,-47 16,-47"/>
</a>
</g>
</g>
<!-- dir_d77cbddddf37de395302ec58cb811daa -->
<g id="node1" class="node">
<title>dir_d77cbddddf37de395302ec58cb811daa</title>
<text text-anchor="middle" x="461" y="-62" font-family="Helvetica,sans-Serif" font-size="10.00">lammp</text>
</g>
<!-- dir_d44c64559bbebec7f509842c48db8b23 -->
<g id="node8" class="node">
<title>dir_d44c64559bbebec7f509842c48db8b23</title>
<g id="a_node8"><a xlink:href="dir_d44c64559bbebec7f509842c48db8b23.html" target="_top" xlink:title="include">
<polygon fill="#edf0f7" stroke="red" points="283,-19 231,-19 231,0 283,0 283,-19"/>
<text text-anchor="middle" x="257" y="-7" font-family="Helvetica,sans-Serif" font-size="10.00">include</text>
</a>
</g>
</g>
<!-- dir_d77cbddddf37de395302ec58cb811daa&#45;&gt;dir_d44c64559bbebec7f509842c48db8b23 -->
<g id="edge1" class="edge">
<title>dir_d77cbddddf37de395302ec58cb811daa&#45;&gt;dir_d44c64559bbebec7f509842c48db8b23</title>
<g id="a_edge1"><a xlink:href="dir_000005_000003.html" target="_top">
<path fill="none" stroke="#63b8ff" d="M451.61,-54.91C445.16,-49.49 436.13,-42.81 427,-39 383.32,-20.78 328.74,-14.19 293.39,-11.82"/>
<polygon fill="#63b8ff" stroke="#63b8ff" points="293.25,-8.31 283.07,-11.21 292.84,-15.3 293.25,-8.31"/>
</a>
</g>
<g id="a_edge1&#45;headlabel"><a xlink:href="dir_000005_000003.html" target="_top" xlink:title="196">
<text text-anchor="middle" x="297.01" y="-3.19" font-family="Helvetica,sans-Serif" font-size="10.00" fill="#63b8ff">196</text>
</a>
</g>
</g>
<!-- dir_01ca3e8e58958dd0d35511304afb1d83 -->
<g id="node2" class="node">
<title>dir_01ca3e8e58958dd0d35511304afb1d83</title>
<g id="a_node2"><a xlink:href="dir_01ca3e8e58958dd0d35511304afb1d83.html" target="_top" xlink:title="generic">
<polygon fill="#eaeef6" stroke="#404040" points="417.5,-74 364.5,-74 364.5,-55 417.5,-55 417.5,-74"/>
<text text-anchor="middle" x="391" y="-62" font-family="Helvetica,sans-Serif" font-size="10.00">generic</text>
</a>
</g>
</g>
<!-- dir_01ca3e8e58958dd0d35511304afb1d83&#45;&gt;dir_d44c64559bbebec7f509842c48db8b23 -->
<g id="edge2" class="edge">
<title>dir_01ca3e8e58958dd0d35511304afb1d83&#45;&gt;dir_d44c64559bbebec7f509842c48db8b23</title>
<g id="a_edge2"><a xlink:href="dir_000000_000003.html" target="_top">
<path fill="none" stroke="#63b8ff" d="M380.54,-54.79C373.86,-49.6 364.84,-43.22 356,-39 336.03,-29.46 312.23,-22.49 292.97,-17.82"/>
<polygon fill="#63b8ff" stroke="#63b8ff" points="293.61,-14.38 283.08,-15.53 292.03,-21.2 293.61,-14.38"/>
</a>
</g>
<g id="a_edge2&#45;headlabel"><a xlink:href="dir_000000_000003.html" target="_top" xlink:title="16">
<text text-anchor="middle" x="297.75" y="-9.92" font-family="Helvetica,sans-Serif" font-size="10.00" fill="#63b8ff">16</text>
</a>
</g>
</g>
<!-- dir_f654bad577ca2e72bad462f6f4e25d99 -->
<g id="node3" class="node">
<title>dir_f654bad577ca2e72bad462f6f4e25d99</title>
<g id="a_node3"><a xlink:href="dir_f654bad577ca2e72bad462f6f4e25d99.html" target="_top" xlink:title="global">
<polygon fill="#eaeef6" stroke="#404040" points="346.5,-74 299.5,-74 299.5,-55 346.5,-55 346.5,-74"/>
<text text-anchor="middle" x="323" y="-62" font-family="Helvetica,sans-Serif" font-size="10.00">global</text>
</a>
</g>
</g>
<!-- dir_f654bad577ca2e72bad462f6f4e25d99&#45;&gt;dir_d44c64559bbebec7f509842c48db8b23 -->
<g id="edge3" class="edge">
<title>dir_f654bad577ca2e72bad462f6f4e25d99&#45;&gt;dir_d44c64559bbebec7f509842c48db8b23</title>
<g id="a_edge3"><a xlink:href="dir_000001_000003.html" target="_top">
<path fill="none" stroke="#63b8ff" d="M312.4,-54.98C302.54,-47.07 287.65,-35.11 275.78,-25.58"/>
<polygon fill="#63b8ff" stroke="#63b8ff" points="277.79,-22.7 267.8,-19.17 273.4,-28.16 277.79,-22.7"/>
</a>
</g>
<g id="a_edge3&#45;headlabel"><a xlink:href="dir_000001_000003.html" target="_top" xlink:title="4">
<text text-anchor="middle" x="282.37" y="-20.24" font-family="Helvetica,sans-Serif" font-size="10.00" fill="#63b8ff">4</text>
</a>
</g>
</g>
<!-- dir_dfe7be8ad73326dde801e6f3f79f21c6 -->
<g id="node4" class="node">
<title>dir_dfe7be8ad73326dde801e6f3f79f21c6</title>
<g id="a_node4"><a xlink:href="dir_dfe7be8ad73326dde801e6f3f79f21c6.html" target="_top" xlink:title="matrix">
<polygon fill="#eaeef6" stroke="#404040" points="281.5,-74 232.5,-74 232.5,-55 281.5,-55 281.5,-74"/>
<text text-anchor="middle" x="257" y="-62" font-family="Helvetica,sans-Serif" font-size="10.00">matrix</text>
</a>
</g>
</g>
<!-- dir_dfe7be8ad73326dde801e6f3f79f21c6&#45;&gt;dir_d44c64559bbebec7f509842c48db8b23 -->
<g id="edge4" class="edge">
<title>dir_dfe7be8ad73326dde801e6f3f79f21c6&#45;&gt;dir_d44c64559bbebec7f509842c48db8b23</title>
<g id="a_edge4"><a xlink:href="dir_000006_000003.html" target="_top">
<path fill="none" stroke="#63b8ff" d="M257,-54.75C257,-47.8 257,-37.85 257,-29.13"/>
<polygon fill="#63b8ff" stroke="#63b8ff" points="260.5,-29.09 257,-19.09 253.5,-29.09 260.5,-29.09"/>
</a>
</g>
<g id="a_edge4&#45;headlabel"><a xlink:href="dir_000006_000003.html" target="_top" xlink:title="9">
<text text-anchor="middle" x="263.34" y="-30.18" font-family="Helvetica,sans-Serif" font-size="10.00" fill="#63b8ff">9</text>
</a>
</g>
</g>
<!-- dir_1d8ae41853895313c9c5d90f4a178d72 -->
<g id="node5" class="node">
<title>dir_1d8ae41853895313c9c5d90f4a178d72</title>
<g id="a_node5"><a xlink:href="dir_1d8ae41853895313c9c5d90f4a178d72.html" target="_top" xlink:title="mprand">
<polygon fill="#eaeef6" stroke="#404040" points="214,-74 160,-74 160,-55 214,-55 214,-74"/>
<text text-anchor="middle" x="187" y="-62" font-family="Helvetica,sans-Serif" font-size="10.00">mprand</text>
</a>
</g>
</g>
<!-- dir_1d8ae41853895313c9c5d90f4a178d72&#45;&gt;dir_d44c64559bbebec7f509842c48db8b23 -->
<g id="edge5" class="edge">
<title>dir_1d8ae41853895313c9c5d90f4a178d72&#45;&gt;dir_d44c64559bbebec7f509842c48db8b23</title>
<g id="a_edge5"><a xlink:href="dir_000007_000003.html" target="_top">
<path fill="none" stroke="#63b8ff" d="M198.25,-54.98C208.8,-47 224.8,-34.88 237.44,-25.31"/>
<polygon fill="#63b8ff" stroke="#63b8ff" points="239.69,-28 245.55,-19.17 235.46,-22.42 239.69,-28"/>
</a>
</g>
<g id="a_edge5&#45;headlabel"><a xlink:href="dir_000007_000003.html" target="_top" xlink:title="3">
<text text-anchor="middle" x="238.54" y="-29.93" font-family="Helvetica,sans-Serif" font-size="10.00" fill="#63b8ff">3</text>
</a>
</g>
</g>
<!-- dir_12d1bb9023a1e50bd298345c814b04b6 -->
<g id="node6" class="node">
<title>dir_12d1bb9023a1e50bd298345c814b04b6</title>
<g id="a_node6"><a xlink:href="dir_12d1bb9023a1e50bd298345c814b04b6.html" target="_top" xlink:title="NumTh">
<polygon fill="#eaeef6" stroke="#404040" points="142,-74 90,-74 90,-55 142,-55 142,-74"/>
<text text-anchor="middle" x="116" y="-62" font-family="Helvetica,sans-Serif" font-size="10.00">NumTh</text>
</a>
</g>
</g>
<!-- dir_12d1bb9023a1e50bd298345c814b04b6&#45;&gt;dir_d44c64559bbebec7f509842c48db8b23 -->
<g id="edge6" class="edge">
<title>dir_12d1bb9023a1e50bd298345c814b04b6&#45;&gt;dir_d44c64559bbebec7f509842c48db8b23</title>
<g id="a_edge6"><a xlink:href="dir_000008_000003.html" target="_top">
<path fill="none" stroke="#63b8ff" d="M126.13,-54.97C132.83,-49.72 141.99,-43.2 151,-39 173.26,-28.61 199.98,-21.46 221.02,-16.92"/>
<polygon fill="#63b8ff" stroke="#63b8ff" points="221.76,-20.34 230.85,-14.89 220.35,-13.48 221.76,-20.34"/>
</a>
</g>
<g id="a_edge6&#45;headlabel"><a xlink:href="dir_000008_000003.html" target="_top" xlink:title="79">
<text text-anchor="middle" x="218.81" y="-21.34" font-family="Helvetica,sans-Serif" font-size="10.00" fill="#63b8ff">79</text>
</a>
</g>
</g>
<!-- dir_fe61a00416800728820111c320734607 -->
<g id="node7" class="node">
<title>dir_fe61a00416800728820111c320734607</title>
<g id="a_node7"><a xlink:href="dir_fe61a00416800728820111c320734607.html" target="_top" xlink:title="secret">
<polygon fill="#eaeef6" stroke="#404040" points="71.5,-74 24.5,-74 24.5,-55 71.5,-55 71.5,-74"/>
<text text-anchor="middle" x="48" y="-62" font-family="Helvetica,sans-Serif" font-size="10.00">secret</text>
</a>
</g>
</g>
<!-- dir_fe61a00416800728820111c320734607&#45;&gt;dir_d44c64559bbebec7f509842c48db8b23 -->
<g id="edge7" class="edge">
<title>dir_fe61a00416800728820111c320734607&#45;&gt;dir_d44c64559bbebec7f509842c48db8b23</title>
<g id="a_edge7"><a xlink:href="dir_000009_000003.html" target="_top">
<path fill="none" stroke="#63b8ff" d="M57.06,-54.89C63.31,-49.45 72.06,-42.78 81,-39 126.68,-19.71 184.1,-13.4 220.69,-11.38"/>
<polygon fill="#63b8ff" stroke="#63b8ff" points="221.06,-14.87 230.88,-10.9 220.73,-7.88 221.06,-14.87"/>
</a>
</g>
<g id="a_edge7&#45;headlabel"><a xlink:href="dir_000009_000003.html" target="_top" xlink:title="2">
<text text-anchor="middle" x="217.6" y="-15.37" font-family="Helvetica,sans-Serif" font-size="10.00" fill="#63b8ff">2</text>
</a>
</g>
</g>
</g>
</svg>
