<?xml version="1.0" encoding="UTF-8" standalone="no"?>
<!DOCTYPE svg PUBLIC "-//W3C//DTD SVG 1.1//EN"
 "http://www.w3.org/Graphics/SVG/1.1/DTD/svg11.dtd">
<!-- Generated by graphviz version 2.43.0 (0)
 -->
<!-- Title: src/lammp/sqrt.c Pages: 1 -->
<svg width="394pt" height="203pt"
 viewBox="0.00 0.00 394.00 203.00" xmlns="http://www.w3.org/2000/svg" xmlns:xlink="http://www.w3.org/1999/xlink">

<svg id="main" version="1.1" xmlns="http://www.w3.org/2000/svg" xmlns:xlink="http://www.w3.org/1999/xlink" xml:space="preserve" onload="init(evt)">
<style type="text/css"><![CDATA[
.node, .edge {opacity: 0.7;}
.node.selected, .edge.selected {opacity: 1;}
.edge:hover path { stroke: red; }
.edge:hover polygon { stroke: red; fill: red; }
]]></style>
<script type="application/ecmascript" xlink:href="../../svg.min.js"/>
<svg id="graph" class="graph">
<g id="graph0" class="graph" transform="scale(1 1) rotate(0) translate(4 199)">
<title>src/lammp/sqrt.c</title>
<!-- Node1 -->
<g id="Node000001" class="node">
<title>Node1</title>
<g id="a_Node000001"><a xlink:title=" ">
<polygon fill="#999999" stroke="#666666" points="227.5,-195 129.5,-195 129.5,-176 227.5,-176 227.5,-195"/>
<text text-anchor="middle" x="178.5" y="-183" font-family="Helvetica,sans-Serif" font-size="10.00">src/lammp/sqrt.c</text>
</a>
</g>
</g>
<!-- Node2 -->
<g id="Node000002" class="node">
<title>Node2</title>
<g id="a_Node000002"><a xlink:href="../../d8/dd0/mparam_8h.html" target="_top" xlink:title=" ">
<polygon fill="white" stroke="#666666" points="107,-140 0,-140 0,-110 107,-110 107,-140"/>
<text text-anchor="start" x="8" y="-128" font-family="Helvetica,sans-Serif" font-size="10.00">../../include/lammp</text>
<text text-anchor="middle" x="53.5" y="-117" font-family="Helvetica,sans-Serif" font-size="10.00">/impl/mparam.h</text>
</a>
</g>
</g>
<!-- Node1&#45;&gt;Node2 -->
<g id="edge1_Node000001_Node000002" class="edge">
<title>Node1&#45;&gt;Node2</title>
<g id="a_edge1_Node000001_Node000002"><a xlink:title=" ">
<path fill="none" stroke="#63b8ff" d="M160.32,-175.99C142.79,-167.79 115.66,-155.09 93.13,-144.55"/>
<polygon fill="#63b8ff" stroke="#63b8ff" points="94.33,-141.25 83.79,-140.18 91.37,-147.59 94.33,-141.25"/>
</a>
</g>
</g>
<!-- Node3 -->
<g id="Node000003" class="node">
<title>Node3</title>
<g id="a_Node000003"><a xlink:href="../../d8/daa/tmp__alloc_8h.html" target="_top" xlink:title=" ">
<polygon fill="white" stroke="#666666" points="232,-140 125,-140 125,-110 232,-110 232,-140"/>
<text text-anchor="start" x="133" y="-128" font-family="Helvetica,sans-Serif" font-size="10.00">../../include/lammp</text>
<text text-anchor="middle" x="178.5" y="-117" font-family="Helvetica,sans-Serif" font-size="10.00">/impl/tmp_alloc.h</text>
</a>
</g>
</g>
<!-- Node1&#45;&gt;Node3 -->
<g id="edge2_Node000001_Node000003" class="edge">
<title>Node1&#45;&gt;Node3</title>
<g id="a_edge2_Node000001_Node000003"><a xlink:title=" ">
<path fill="none" stroke="#63b8ff" d="M178.5,-175.87C178.5,-169.11 178.5,-159.35 178.5,-150.26"/>
<polygon fill="#63b8ff" stroke="#63b8ff" points="182,-150.11 178.5,-140.11 175,-150.11 182,-150.11"/>
</a>
</g>
</g>
<!-- Node10 -->
<g id="Node000010" class="node">
<title>Node10</title>
<g id="a_Node000010"><a xlink:href="../../d6/d39/lmmpn_8h.html" target="_top" xlink:title=" ">
<polygon fill="white" stroke="#666666" points="357,-140 250,-140 250,-110 357,-110 357,-140"/>
<text text-anchor="start" x="258" y="-128" font-family="Helvetica,sans-Serif" font-size="10.00">../../include/lammp</text>
<text text-anchor="middle" x="303.5" y="-117" font-family="Helvetica,sans-Serif" font-size="10.00">/lmmpn.h</text>
</a>
</g>
</g>
<!-- Node1&#45;&gt;Node10 -->
<g id="edge9_Node000001_Node000010" class="edge">
<title>Node1&#45;&gt;Node10</title>
<g id="a_edge9_Node000001_Node000010"><a xlink:title=" ">
<path fill="none" stroke="#63b8ff" d="M196.68,-175.99C214.21,-167.79 241.34,-155.09 263.87,-144.55"/>
<polygon fill="#63b8ff" stroke="#63b8ff" points="265.63,-147.59 273.21,-140.18 262.67,-141.25 265.63,-147.59"/>
</a>
</g>
</g>
<!-- Node4 -->
<g id="Node000004" class="node">
<title>Node4</title>
<g id="a_Node000004"><a xlink:href="../../dd/d90/lmmp_8h.html" target="_top" xlink:title=" ">
<polygon fill="white" stroke="#666666" points="285,-74 222,-74 222,-55 285,-55 285,-74"/>
<text text-anchor="middle" x="253.5" y="-62" font-family="Helvetica,sans-Serif" font-size="10.00">../lmmp.h</text>
</a>
</g>
</g>
<!-- Node3&#45;&gt;Node4 -->
<g id="edge3_Node000003_Node000004" class="edge">
<title>Node3&#45;&gt;Node4</title>
<g id="a_edge3_Node000003_Node000004"><a xlink:title=" ">
<path fill="none" stroke="#63b8ff" d="M196.66,-109.84C207.99,-101 222.56,-89.63 234.12,-80.62"/>
<polygon fill="#63b8ff" stroke="#63b8ff" points="236.53,-83.18 242.26,-74.27 232.22,-77.66 236.53,-83.18"/>
</a>
</g>
</g>
<!-- Node9 -->
<g id="Node000009" class="node">
<title>Node9</title>
<g id="a_Node000009"><a xlink:title=" ">
<polygon fill="#e0e0e0" stroke="#999999" points="203.5,-74 153.5,-74 153.5,-55 203.5,-55 203.5,-74"/>
<text text-anchor="middle" x="178.5" y="-62" font-family="Helvetica,sans-Serif" font-size="10.00">stdio.h</text>
</a>
</g>
</g>
<!-- Node3&#45;&gt;Node9 -->
<g id="edge8_Node000003_Node000009" class="edge">
<title>Node3&#45;&gt;Node9</title>
<g id="a_edge8_Node000003_Node000009"><a xlink:title=" ">
<path fill="none" stroke="#63b8ff" d="M178.5,-109.84C178.5,-102.21 178.5,-92.7 178.5,-84.45"/>
<polygon fill="#63b8ff" stroke="#63b8ff" points="182,-84.27 178.5,-74.27 175,-84.27 182,-84.27"/>
</a>
</g>
</g>
<!-- Node5 -->
<g id="Node000005" class="node">
<title>Node5</title>
<g id="a_Node000005"><a xlink:title=" ">
<polygon fill="#e0e0e0" stroke="#999999" points="172.5,-19 116.5,-19 116.5,0 172.5,0 172.5,-19"/>
<text text-anchor="middle" x="144.5" y="-7" font-family="Helvetica,sans-Serif" font-size="10.00">stddef.h</text>
</a>
</g>
</g>
<!-- Node4&#45;&gt;Node5 -->
<g id="edge4_Node000004_Node000005" class="edge">
<title>Node4&#45;&gt;Node5</title>
<g id="a_edge4_Node000004_Node000005"><a xlink:title=" ">
<path fill="none" stroke="#63b8ff" d="M235.99,-54.98C218.53,-46.5 191.49,-33.35 171.33,-23.54"/>
<polygon fill="#63b8ff" stroke="#63b8ff" points="172.86,-20.4 162.33,-19.17 169.79,-26.69 172.86,-20.4"/>
</a>
</g>
</g>
<!-- Node6 -->
<g id="Node000006" class="node">
<title>Node6</title>
<g id="a_Node000006"><a xlink:title=" ">
<polygon fill="#e0e0e0" stroke="#999999" points="244,-19 191,-19 191,0 244,0 244,-19"/>
<text text-anchor="middle" x="217.5" y="-7" font-family="Helvetica,sans-Serif" font-size="10.00">stdint.h</text>
</a>
</g>
</g>
<!-- Node4&#45;&gt;Node6 -->
<g id="edge5_Node000004_Node000006" class="edge">
<title>Node4&#45;&gt;Node6</title>
<g id="a_edge5_Node000004_Node000006"><a xlink:title=" ">
<path fill="none" stroke="#63b8ff" d="M247.56,-54.75C242.52,-47.34 235.16,-36.5 228.99,-27.41"/>
<polygon fill="#63b8ff" stroke="#63b8ff" points="231.85,-25.39 223.33,-19.09 226.06,-29.33 231.85,-25.39"/>
</a>
</g>
</g>
<!-- Node7 -->
<g id="Node000007" class="node">
<title>Node7</title>
<g id="a_Node000007"><a xlink:title=" ">
<polygon fill="#e0e0e0" stroke="#999999" points="315,-19 262,-19 262,0 315,0 315,-19"/>
<text text-anchor="middle" x="288.5" y="-7" font-family="Helvetica,sans-Serif" font-size="10.00">stdlib.h</text>
</a>
</g>
</g>
<!-- Node4&#45;&gt;Node7 -->
<g id="edge6_Node000004_Node000007" class="edge">
<title>Node4&#45;&gt;Node7</title>
<g id="a_edge6_Node000004_Node000007"><a xlink:title=" ">
<path fill="none" stroke="#63b8ff" d="M259.28,-54.75C264.12,-47.42 271.18,-36.73 277.14,-27.7"/>
<polygon fill="#63b8ff" stroke="#63b8ff" points="280.24,-29.36 282.83,-19.09 274.4,-25.5 280.24,-29.36"/>
</a>
</g>
</g>
<!-- Node8 -->
<g id="Node000008" class="node">
<title>Node8</title>
<g id="a_Node000008"><a xlink:title=" ">
<polygon fill="#e0e0e0" stroke="#999999" points="386,-19 333,-19 333,0 386,0 386,-19"/>
<text text-anchor="middle" x="359.5" y="-7" font-family="Helvetica,sans-Serif" font-size="10.00">string.h</text>
</a>
</g>
</g>
<!-- Node4&#45;&gt;Node8 -->
<g id="edge7_Node000004_Node000008" class="edge">
<title>Node4&#45;&gt;Node8</title>
<g id="a_edge7_Node000004_Node000008"><a xlink:title=" ">
<path fill="none" stroke="#63b8ff" d="M270.53,-54.98C287.43,-46.54 313.56,-33.47 333.14,-23.68"/>
<polygon fill="#63b8ff" stroke="#63b8ff" points="334.78,-26.77 342.16,-19.17 331.65,-20.51 334.78,-26.77"/>
</a>
</g>
</g>
<!-- Node10&#45;&gt;Node4 -->
<g id="edge12_Node000010_Node000004" class="edge">
<title>Node10&#45;&gt;Node4</title>
<g id="a_edge12_Node000010_Node000004"><a xlink:title=" ">
<path fill="none" stroke="#63b8ff" d="M291.4,-109.84C284.21,-101.43 275.07,-90.74 267.57,-81.96"/>
<polygon fill="#63b8ff" stroke="#63b8ff" points="270.15,-79.59 260.99,-74.27 264.83,-84.14 270.15,-79.59"/>
</a>
</g>
</g>
<!-- Node10&#45;&gt;Node9 -->
<g id="edge11_Node000010_Node000009" class="edge">
<title>Node10&#45;&gt;Node9</title>
<g id="a_edge11_Node000010_Node000009"><a xlink:title=" ">
<path fill="none" stroke="#63b8ff" d="M273.56,-109.99C253.08,-100.4 226.12,-87.79 206.15,-78.44"/>
<polygon fill="#63b8ff" stroke="#63b8ff" points="207.5,-75.21 196.96,-74.14 204.53,-81.55 207.5,-75.21"/>
</a>
</g>
</g>
<!-- Node11 -->
<g id="Node000011" class="node">
<title>Node11</title>
<g id="a_Node000011"><a xlink:title=" ">
<polygon fill="#e0e0e0" stroke="#999999" points="365.5,-74 303.5,-74 303.5,-55 365.5,-55 365.5,-74"/>
<text text-anchor="middle" x="334.5" y="-62" font-family="Helvetica,sans-Serif" font-size="10.00">stdbool.h</text>
</a>
</g>
</g>
<!-- Node10&#45;&gt;Node11 -->
<g id="edge10_Node000010_Node000011" class="edge">
<title>Node10&#45;&gt;Node11</title>
<g id="a_edge10_Node000010_Node000011"><a xlink:title=" ">
<path fill="none" stroke="#63b8ff" d="M311,-109.84C315.23,-101.87 320.54,-91.84 325.05,-83.33"/>
<polygon fill="#63b8ff" stroke="#63b8ff" points="328.27,-84.74 329.85,-74.27 322.08,-81.46 328.27,-84.74"/>
</a>
</g>
</g>
</g>
</svg>
</svg>

<style type='text/css'>
<![CDATA[
[data-mouse-over-selected='false'] { opacity: 0.7; }
[data-mouse-over-selected='true']  { opacity: 1.0; }
]]>
</style>
<script type="application/ecmascript"><![CDATA[
document.addEventListener('DOMContentLoaded', (event) => {
  highlightEdges();
  highlightAdjacentNodes();
});
]]></script>
</svg>
