<?xml version="1.0" encoding="UTF-8" standalone="no"?>
<!DOCTYPE svg PUBLIC "-//W3C//DTD SVG 1.1//EN"
 "http://www.w3.org/Graphics/SVG/1.1/DTD/svg11.dtd">
<!-- Generated by graphviz version 2.43.0 (0)
 -->
<!-- Title: RelationalNode::clone Pages: 1 -->
<svg width="320pt" height="86pt"
 viewBox="0.00 0.00 320.00 86.00" xmlns="http://www.w3.org/2000/svg" xmlns:xlink="http://www.w3.org/1999/xlink">
<g id="graph0" class="graph" transform="scale(1 1) rotate(0) translate(4 82)">
<title>RelationalNode::clone</title>
<!-- Node1 -->
<g id="Node000001" class="node">
<title>Node1</title>
<g id="a_Node000001"><a xlink:title="深拷贝当前节点及其子树。">
<polygon fill="#999999" stroke="#666666" points="312,-48.5 188,-48.5 188,-29.5 312,-29.5 312,-48.5"/>
<text text-anchor="middle" x="250" y="-36.5" font-family="Helvetica,sans-Serif" font-size="10.00">RelationalNode::clone</text>
</a>
</g>
</g>
<!-- Node2 -->
<g id="Node000002" class="node">
<title>Node2</title>
<g id="a_Node000002"><a xlink:href="../../d5/ddd/classlamina_1_1ReplacementVisitor.html#ae477855732e497cfb0c3ed7e3517046e" target="_top" xlink:title=" ">
<polygon fill="white" stroke="#666666" points="152,-78 0,-78 0,-48 152,-48 152,-78"/>
<text text-anchor="start" x="8" y="-66" font-family="Helvetica,sans-Serif" font-size="10.00">lamina::ReplacementVisitor</text>
<text text-anchor="middle" x="76" y="-55" font-family="Helvetica,sans-Serif" font-size="10.00">::visit</text>
</a>
</g>
</g>
<!-- Node1&#45;&gt;Node2 -->
<g id="edge1_Node000001_Node000002" class="edge">
<title>Node1&#45;&gt;Node2</title>
<g id="a_edge1_Node000001_Node000002"><a xlink:title=" ">
<path fill="none" stroke="#63b8ff" d="M177.96,-48.91C169.42,-50.1 160.68,-51.32 152.08,-52.52"/>
<polygon fill="#63b8ff" stroke="#63b8ff" points="178.45,-52.38 187.87,-47.53 177.49,-45.44 178.45,-52.38"/>
</a>
</g>
</g>
<!-- Node3 -->
<g id="Node000003" class="node">
<title>Node3</title>
<g id="a_Node000003"><a xlink:href="../../d5/dd7/classlamina_1_1RewriteVisitor.html#adbcb8cb7d3d205ca3714db568fc3f690" target="_top" xlink:title=" ">
<polygon fill="white" stroke="#666666" points="138.5,-30 13.5,-30 13.5,0 138.5,0 138.5,-30"/>
<text text-anchor="start" x="21.5" y="-18" font-family="Helvetica,sans-Serif" font-size="10.00">lamina::RewriteVisitor</text>
<text text-anchor="middle" x="76" y="-7" font-family="Helvetica,sans-Serif" font-size="10.00">::visit</text>
</a>
</g>
</g>
<!-- Node1&#45;&gt;Node3 -->
<g id="edge2_Node000001_Node000003" class="edge">
<title>Node1&#45;&gt;Node3</title>
<g id="a_edge2_Node000001_Node000003"><a xlink:title=" ">
<path fill="none" stroke="#63b8ff" d="M177.59,-29.04C164.61,-27.22 151.17,-25.35 138.51,-23.58"/>
<polygon fill="#63b8ff" stroke="#63b8ff" points="177.49,-32.56 187.87,-30.47 178.45,-25.62 177.49,-32.56"/>
</a>
</g>
</g>
</g>
</svg>
