<?xml version="1.0" encoding="UTF-8" standalone="no"?>
<!DOCTYPE svg PUBLIC "-//W3C//DTD SVG 1.1//EN"
 "http://www.w3.org/Graphics/SVG/1.1/DTD/svg11.dtd">
<!-- Generated by graphviz version 2.43.0 (0)
 -->
<!-- Title: include/visitors/print_visitor.hpp Pages: 1 -->
<svg width="1177pt" height="258pt"
 viewBox="0.00 0.00 1176.50 258.00" xmlns="http://www.w3.org/2000/svg" xmlns:xlink="http://www.w3.org/1999/xlink">
<g id="graph0" class="graph" transform="scale(1 1) rotate(0) translate(4 254)">
<title>include/visitors/print_visitor.hpp</title>
<!-- Node1 -->
<g id="Node000001" class="node">
<title>Node1</title>
<g id="a_Node000001"><a xlink:title="打印访问器，将 AST 转换为可读字符串。">
<polygon fill="#999999" stroke="#666666" points="116,-250 0,-250 0,-220 116,-220 116,-250"/>
<text text-anchor="start" x="8" y="-238" font-family="Helvetica,sans-Serif" font-size="10.00">include/visitors/print</text>
<text text-anchor="middle" x="58" y="-227" font-family="Helvetica,sans-Serif" font-size="10.00">_visitor.hpp</text>
</a>
</g>
</g>
<!-- Node2 -->
<g id="Node000002" class="node">
<title>Node2</title>
<g id="a_Node000002"><a xlink:title=" ">
<polygon fill="#e0e0e0" stroke="#999999" points="86,-74 30,-74 30,-55 86,-55 86,-74"/>
<text text-anchor="middle" x="58" y="-62" font-family="Helvetica,sans-Serif" font-size="10.00">sstream</text>
</a>
</g>
</g>
<!-- Node1&#45;&gt;Node2 -->
<g id="edge1_Node000001_Node000002" class="edge">
<title>Node1&#45;&gt;Node2</title>
<g id="a_edge1_Node000001_Node000002"><a xlink:title=" ">
<path fill="none" stroke="#63b8ff" d="M58,-219.92C58,-189.65 58,-118.35 58,-84.27"/>
<polygon fill="#63b8ff" stroke="#63b8ff" points="61.5,-84.25 58,-74.25 54.5,-84.25 61.5,-84.25"/>
</a>
</g>
</g>
<!-- Node3 -->
<g id="Node000003" class="node">
<title>Node3</title>
<g id="a_Node000003"><a xlink:title=" ">
<polygon fill="#e0e0e0" stroke="#999999" points="53,-19 9,-19 9,0 53,0 53,-19"/>
<text text-anchor="middle" x="31" y="-7" font-family="Helvetica,sans-Serif" font-size="10.00">string</text>
</a>
</g>
</g>
<!-- Node1&#45;&gt;Node3 -->
<g id="edge2_Node000001_Node000003" class="edge">
<title>Node1&#45;&gt;Node3</title>
<g id="a_edge2_Node000001_Node000003"><a xlink:title=" ">
<path fill="none" stroke="#63b8ff" d="M53.51,-219.63C45.1,-191.85 27.24,-128.67 21,-74 19.26,-58.73 22.28,-41.52 25.45,-28.87"/>
<polygon fill="#63b8ff" stroke="#63b8ff" points="28.86,-29.67 28.15,-19.1 22.11,-27.8 28.86,-29.67"/>
</a>
</g>
</g>
<!-- Node4 -->
<g id="Node000004" class="node">
<title>Node4</title>
<g id="a_Node000004"><a xlink:href="../../d9/d89/symbolic__ast_8hpp.html" target="_top" xlink:title="AST 节点定义：NumberNode, VariableNode, AddNode, MultiplyNode, PowerNode, FunctionNode,...">
<polygon fill="white" stroke="#666666" points="643.5,-184 532.5,-184 532.5,-165 643.5,-165 643.5,-184"/>
<text text-anchor="middle" x="588" y="-172" font-family="Helvetica,sans-Serif" font-size="10.00">../symbolic_ast.hpp</text>
</a>
</g>
</g>
<!-- Node1&#45;&gt;Node4 -->
<g id="edge3_Node000001_Node000004" class="edge">
<title>Node1&#45;&gt;Node4</title>
<g id="a_edge3_Node000001_Node000004"><a xlink:title=" ">
<path fill="none" stroke="#63b8ff" d="M116.24,-227.57C215.78,-216.58 417.98,-194.27 522.37,-182.74"/>
<polygon fill="#63b8ff" stroke="#63b8ff" points="522.91,-186.21 532.47,-181.63 522.14,-179.25 522.91,-186.21"/>
</a>
</g>
</g>
<!-- Node4&#45;&gt;Node3 -->
<g id="edge6_Node000004_Node000003" class="edge">
<title>Node4&#45;&gt;Node3</title>
<g id="a_edge6_Node000004_Node000003"><a xlink:title=" ">
<path fill="none" stroke="#63b8ff" d="M532.35,-172.52C432.26,-169.96 226.38,-160.87 163,-129 123.1,-108.93 128.65,-84.37 95,-55 82.12,-43.76 66.37,-32.77 53.71,-24.53"/>
<polygon fill="#63b8ff" stroke="#63b8ff" points="55.44,-21.48 45.13,-19.05 51.67,-27.38 55.44,-21.48"/>
</a>
</g>
</g>
<!-- Node5 -->
<g id="Node000005" class="node">
<title>Node5</title>
<g id="a_Node000005"><a xlink:title=" ">
<polygon fill="#e0e0e0" stroke="#999999" points="813,-129 755,-129 755,-110 813,-110 813,-129"/>
<text text-anchor="middle" x="784" y="-117" font-family="Helvetica,sans-Serif" font-size="10.00">memory</text>
</a>
</g>
</g>
<!-- Node4&#45;&gt;Node5 -->
<g id="edge4_Node000004_Node000005" class="edge">
<title>Node4&#45;&gt;Node5</title>
<g id="a_edge4_Node000004_Node000005"><a xlink:title=" ">
<path fill="none" stroke="#63b8ff" d="M619.49,-164.98C653.62,-155.76 708.11,-141.02 744.94,-131.06"/>
<polygon fill="#63b8ff" stroke="#63b8ff" points="746.09,-134.38 754.83,-128.39 744.26,-127.62 746.09,-134.38"/>
</a>
</g>
</g>
<!-- Node6 -->
<g id="Node000006" class="node">
<title>Node6</title>
<g id="a_Node000006"><a xlink:title=" ">
<polygon fill="#e0e0e0" stroke="#999999" points="1168.5,-19 1121.5,-19 1121.5,0 1168.5,0 1168.5,-19"/>
<text text-anchor="middle" x="1145" y="-7" font-family="Helvetica,sans-Serif" font-size="10.00">vector</text>
</a>
</g>
</g>
<!-- Node4&#45;&gt;Node6 -->
<g id="edge5_Node000004_Node000006" class="edge">
<title>Node4&#45;&gt;Node6</title>
<g id="a_edge5_Node000004_Node000006"><a xlink:title=" ">
<path fill="none" stroke="#63b8ff" d="M643.57,-168.49C699.93,-162.49 789.24,-150.45 864,-129 961.84,-100.92 1071.21,-48.18 1119.61,-23.66"/>
<polygon fill="#63b8ff" stroke="#63b8ff" points="1121.4,-26.67 1128.72,-19.01 1118.22,-20.44 1121.4,-26.67"/>
</a>
</g>
</g>
<!-- Node7 -->
<g id="Node000007" class="node">
<title>Node7</title>
<g id="a_Node000007"><a xlink:title=" ">
<polygon fill="#e0e0e0" stroke="#999999" points="996.5,-129 945.5,-129 945.5,-110 996.5,-110 996.5,-129"/>
<text text-anchor="middle" x="971" y="-117" font-family="Helvetica,sans-Serif" font-size="10.00">variant</text>
</a>
</g>
</g>
<!-- Node4&#45;&gt;Node7 -->
<g id="edge7_Node000004_Node000007" class="edge">
<title>Node4&#45;&gt;Node7</title>
<g id="a_edge7_Node000004_Node000007"><a xlink:title=" ">
<path fill="none" stroke="#63b8ff" d="M643.75,-167.66C711.79,-160.21 830.23,-146.22 931,-129 932.44,-128.75 933.91,-128.49 935.4,-128.22"/>
<polygon fill="#63b8ff" stroke="#63b8ff" points="936.1,-131.65 945.24,-126.29 934.75,-124.78 936.1,-131.65"/>
</a>
</g>
</g>
<!-- Node8 -->
<g id="Node000008" class="node">
<title>Node8</title>
<g id="a_Node000008"><a xlink:title=" ">
<polygon fill="#e0e0e0" stroke="#999999" points="135,-19 71,-19 71,0 135,0 135,-19"/>
<text text-anchor="middle" x="103" y="-7" font-family="Helvetica,sans-Serif" font-size="10.00">algorithm</text>
</a>
</g>
</g>
<!-- Node4&#45;&gt;Node8 -->
<g id="edge8_Node000004_Node000008" class="edge">
<title>Node4&#45;&gt;Node8</title>
<g id="a_edge8_Node000004_Node000008"><a xlink:title=" ">
<path fill="none" stroke="#63b8ff" d="M573.01,-164.94C546.11,-149.66 490.53,-118.49 470,-110 391.12,-77.39 368.38,-77.31 286,-55 237.97,-41.99 182.37,-28.72 145.18,-20.1"/>
<polygon fill="#63b8ff" stroke="#63b8ff" points="145.73,-16.64 135.19,-17.8 144.15,-23.46 145.73,-16.64"/>
</a>
</g>
</g>
<!-- Node9 -->
<g id="Node000009" class="node">
<title>Node9</title>
<g id="a_Node000009"><a xlink:title=" ">
<polygon fill="#e0e0e0" stroke="#999999" points="245.5,-129 180.5,-129 180.5,-110 245.5,-110 245.5,-129"/>
<text text-anchor="middle" x="213" y="-117" font-family="Helvetica,sans-Serif" font-size="10.00">typeindex</text>
</a>
</g>
</g>
<!-- Node4&#45;&gt;Node9 -->
<g id="edge9_Node000004_Node000009" class="edge">
<title>Node4&#45;&gt;Node9</title>
<g id="a_edge9_Node000004_Node000009"><a xlink:title=" ">
<path fill="none" stroke="#63b8ff" d="M532.44,-167.23C468.27,-159.72 359.29,-146.19 255.54,-128.98"/>
<polygon fill="#63b8ff" stroke="#63b8ff" points="255.96,-125.5 245.52,-127.3 254.8,-132.41 255.96,-125.5"/>
</a>
</g>
</g>
<!-- Node10 -->
<g id="Node000010" class="node">
<title>Node10</title>
<g id="a_Node000010"><a xlink:title=" ">
<polygon fill="#e0e0e0" stroke="#999999" points="356.5,-129 263.5,-129 263.5,-110 356.5,-110 356.5,-129"/>
<text text-anchor="middle" x="310" y="-117" font-family="Helvetica,sans-Serif" font-size="10.00">unordered_map</text>
</a>
</g>
</g>
<!-- Node4&#45;&gt;Node10 -->
<g id="edge10_Node000004_Node000010" class="edge">
<title>Node4&#45;&gt;Node10</title>
<g id="a_edge10_Node000004_Node000010"><a xlink:title=" ">
<path fill="none" stroke="#63b8ff" d="M543.33,-164.98C494.84,-155.74 417.35,-140.97 365.11,-131.01"/>
<polygon fill="#63b8ff" stroke="#63b8ff" points="365.49,-127.52 355.02,-129.08 364.18,-134.39 365.49,-127.52"/>
</a>
</g>
</g>
<!-- Node11 -->
<g id="Node000011" class="node">
<title>Node11</title>
<g id="a_Node000011"><a xlink:title=" ">
<polygon fill="#e0e0e0" stroke="#999999" points="461,-129 375,-129 375,-110 461,-110 461,-129"/>
<text text-anchor="middle" x="418" y="-117" font-family="Helvetica,sans-Serif" font-size="10.00">unordered_set</text>
</a>
</g>
</g>
<!-- Node4&#45;&gt;Node11 -->
<g id="edge11_Node000004_Node000011" class="edge">
<title>Node4&#45;&gt;Node11</title>
<g id="a_edge11_Node000004_Node000011"><a xlink:title=" ">
<path fill="none" stroke="#63b8ff" d="M560.69,-164.98C532.15,-156.09 487.17,-142.07 455.36,-132.15"/>
<polygon fill="#63b8ff" stroke="#63b8ff" points="456.12,-128.72 445.53,-129.08 454.03,-135.4 456.12,-128.72"/>
</a>
</g>
</g>
<!-- Node12 -->
<g id="Node000012" class="node">
<title>Node12</title>
<g id="a_Node000012"><a xlink:href="../../d1/de8/rational_8hpp.html" target="_top" xlink:title="精确有理数 Rational，基于 BigInt 分子/分母表示，自动约分。">
<polygon fill="white" stroke="#666666" points="592.5,-129 517.5,-129 517.5,-110 592.5,-110 592.5,-129"/>
<text text-anchor="middle" x="555" y="-117" font-family="Helvetica,sans-Serif" font-size="10.00">rational.hpp</text>
</a>
</g>
</g>
<!-- Node4&#45;&gt;Node12 -->
<g id="edge12_Node000004_Node000012" class="edge">
<title>Node4&#45;&gt;Node12</title>
<g id="a_edge12_Node000004_Node000012"><a xlink:title=" ">
<path fill="none" stroke="#63b8ff" d="M582.55,-164.75C577.99,-157.42 571.33,-146.73 565.71,-137.7"/>
<polygon fill="#63b8ff" stroke="#63b8ff" points="568.6,-135.73 560.35,-129.09 562.66,-139.43 568.6,-135.73"/>
</a>
</g>
</g>
<!-- Node13 -->
<g id="Node000013" class="node">
<title>Node13</title>
<g id="a_Node000013"><a xlink:title=" ">
<polygon fill="#e0e0e0" stroke="#999999" points="1103,-19 1017,-19 1017,0 1103,0 1103,-19"/>
<text text-anchor="middle" x="1060" y="-7" font-family="Helvetica,sans-Serif" font-size="10.00">lmmc/config.h</text>
</a>
</g>
</g>
<!-- Node4&#45;&gt;Node13 -->
<g id="edge37_Node000004_Node000013" class="edge">
<title>Node4&#45;&gt;Node13</title>
<g id="a_edge37_Node000004_Node000013"><a xlink:title=" ">
<path fill="none" stroke="#63b8ff" d="M643.68,-168.1C707.45,-161.15 807.33,-147.71 840,-129 877.48,-107.53 866.66,-78.34 903,-55 920.73,-43.62 970.84,-30.44 1009.73,-21.4"/>
<polygon fill="#63b8ff" stroke="#63b8ff" points="1010.89,-24.72 1019.85,-19.08 1009.32,-17.9 1010.89,-24.72"/>
</a>
</g>
</g>
<!-- Node14 -->
<g id="Node000014" class="node">
<title>Node14</title>
<g id="a_Node000014"><a xlink:title=" ">
<polygon fill="#e0e0e0" stroke="#999999" points="277,-74 181,-74 181,-55 277,-55 277,-74"/>
<text text-anchor="middle" x="229" y="-62" font-family="Helvetica,sans-Serif" font-size="10.00">lmmc/numeric.h</text>
</a>
</g>
</g>
<!-- Node4&#45;&gt;Node14 -->
<g id="edge38_Node000004_Node000014" class="edge">
<title>Node4&#45;&gt;Node14</title>
<g id="a_edge38_Node000004_Node000014"><a xlink:title=" ">
<path fill="none" stroke="#63b8ff" d="M532.3,-171.62C424.26,-167.4 194.73,-155.4 171,-129 155.38,-111.63 180.51,-91.77 202.42,-78.96"/>
<polygon fill="#63b8ff" stroke="#63b8ff" points="204.14,-82.01 211.18,-74.09 200.74,-75.89 204.14,-82.01"/>
</a>
</g>
</g>
<!-- Node15 -->
<g id="Node000015" class="node">
<title>Node15</title>
<g id="a_Node000015"><a xlink:href="../../d8/d09/bigint_8hpp.html" target="_top" xlink:title="任意精度整数 BigInt，底层调用 LAMMP 实现高性能大数运算。">
<polygon fill="white" stroke="#666666" points="655.5,-74 590.5,-74 590.5,-55 655.5,-55 655.5,-74"/>
<text text-anchor="middle" x="623" y="-62" font-family="Helvetica,sans-Serif" font-size="10.00">bigint.hpp</text>
</a>
</g>
</g>
<!-- Node4&#45;&gt;Node15 -->
<g id="edge36_Node000004_Node000015" class="edge">
<title>Node4&#45;&gt;Node15</title>
<g id="a_edge36_Node000004_Node000015"><a xlink:title=" ">
<path fill="none" stroke="#63b8ff" d="M590.86,-164.66C596.56,-147.09 609.41,-107.45 617.02,-83.95"/>
<polygon fill="#63b8ff" stroke="#63b8ff" points="620.44,-84.75 620.19,-74.16 613.78,-82.59 620.44,-84.75"/>
</a>
</g>
</g>
<!-- Node24 -->
<g id="Node000024" class="node">
<title>Node24</title>
<g id="a_Node000024"><a xlink:title=" ">
<polygon fill="#e0e0e0" stroke="#999999" points="998.5,-19 933.5,-19 933.5,0 998.5,0 998.5,-19"/>
<text text-anchor="middle" x="966" y="-7" font-family="Helvetica,sans-Serif" font-size="10.00">stdexcept</text>
</a>
</g>
</g>
<!-- Node4&#45;&gt;Node24 -->
<g id="edge39_Node000004_Node000024" class="edge">
<title>Node4&#45;&gt;Node24</title>
<g id="a_edge39_Node000004_Node000024"><a xlink:title=" ">
<path fill="none" stroke="#63b8ff" d="M619.31,-164.98C644.28,-157.47 679.64,-145.2 708,-129 753.27,-103.15 752.56,-78.68 799,-55 820.61,-43.98 881.53,-29.13 923.49,-19.69"/>
<polygon fill="#63b8ff" stroke="#63b8ff" points="924.45,-23.06 933.45,-17.46 922.93,-16.22 924.45,-23.06"/>
</a>
</g>
</g>
<!-- Node26 -->
<g id="Node000026" class="node">
<title>Node26</title>
<g id="a_Node000026"><a xlink:title=" ">
<polygon fill="#e0e0e0" stroke="#999999" points="846,-74 808,-74 808,-55 846,-55 846,-74"/>
<text text-anchor="middle" x="827" y="-62" font-family="Helvetica,sans-Serif" font-size="10.00">map</text>
</a>
</g>
</g>
<!-- Node4&#45;&gt;Node26 -->
<g id="edge41_Node000004_Node000026" class="edge">
<title>Node4&#45;&gt;Node26</title>
<g id="a_edge41_Node000004_Node000026"><a xlink:title=" ">
<path fill="none" stroke="#63b8ff" d="M643.72,-170.51C705.29,-165.95 798.82,-154.87 822,-129 832.72,-117.04 832.88,-98.22 831.02,-84.17"/>
<polygon fill="#63b8ff" stroke="#63b8ff" points="834.44,-83.39 829.26,-74.15 827.55,-84.6 834.44,-83.39"/>
</a>
</g>
</g>
<!-- Node28 -->
<g id="Node000028" class="node">
<title>Node28</title>
<g id="a_Node000028"><a xlink:title=" ">
<polygon fill="#e0e0e0" stroke="#999999" points="699,-129 649,-129 649,-110 699,-110 699,-129"/>
<text text-anchor="middle" x="674" y="-117" font-family="Helvetica,sans-Serif" font-size="10.00">atomic</text>
</a>
</g>
</g>
<!-- Node4&#45;&gt;Node28 -->
<g id="edge40_Node000004_Node000028" class="edge">
<title>Node4&#45;&gt;Node28</title>
<g id="a_edge40_Node000004_Node000028"><a xlink:title=" ">
<path fill="none" stroke="#63b8ff" d="M601.82,-164.98C615.15,-156.77 635.58,-144.18 651.31,-134.49"/>
<polygon fill="#63b8ff" stroke="#63b8ff" points="653.25,-137.4 659.93,-129.17 649.58,-131.44 653.25,-137.4"/>
</a>
</g>
</g>
<!-- Node12&#45;&gt;Node2 -->
<g id="edge31_Node000012_Node000002" class="edge">
<title>Node12&#45;&gt;Node2</title>
<g id="a_edge31_Node000012_Node000002"><a xlink:title=" ">
<path fill="none" stroke="#63b8ff" d="M517.24,-114.47C424.97,-104.63 188.88,-79.46 96.18,-69.57"/>
<polygon fill="#63b8ff" stroke="#63b8ff" points="96.43,-66.08 86.12,-68.5 95.69,-73.04 96.43,-66.08"/>
</a>
</g>
</g>
<!-- Node12&#45;&gt;Node3 -->
<g id="edge33_Node000012_Node000003" class="edge">
<title>Node12&#45;&gt;Node3</title>
<g id="a_edge33_Node000012_Node000003"><a xlink:title=" ">
<path fill="none" stroke="#63b8ff" d="M522.04,-109.9C471.49,-96.91 371.67,-71.97 286,-55 190.18,-36.02 162.27,-40.08 63.1,-19.04"/>
<polygon fill="#63b8ff" stroke="#63b8ff" points="63.79,-15.6 53.28,-16.92 62.32,-22.45 63.79,-15.6"/>
</a>
</g>
</g>
<!-- Node12&#45;&gt;Node13 -->
<g id="edge13_Node000012_Node000013" class="edge">
<title>Node12&#45;&gt;Node13</title>
<g id="a_edge13_Node000012_Node000013"><a xlink:title=" ">
<path fill="none" stroke="#63b8ff" d="M584.48,-109.95C630.15,-96.91 720.9,-71.79 799,-55 818.92,-50.72 936.42,-31.03 1006.79,-19.32"/>
<polygon fill="#63b8ff" stroke="#63b8ff" points="1007.53,-22.75 1016.82,-17.65 1006.38,-15.84 1007.53,-22.75"/>
</a>
</g>
</g>
<!-- Node12&#45;&gt;Node14 -->
<g id="edge14_Node000012_Node000014" class="edge">
<title>Node12&#45;&gt;Node14</title>
<g id="a_edge14_Node000012_Node000014"><a xlink:title=" ">
<path fill="none" stroke="#63b8ff" d="M517.29,-112.37C460.77,-103.18 353.66,-85.77 287.11,-74.95"/>
<polygon fill="#63b8ff" stroke="#63b8ff" points="287.62,-71.48 277.19,-73.33 286.5,-78.39 287.62,-71.48"/>
</a>
</g>
</g>
<!-- Node12&#45;&gt;Node15 -->
<g id="edge15_Node000012_Node000015" class="edge">
<title>Node12&#45;&gt;Node15</title>
<g id="a_edge15_Node000012_Node000015"><a xlink:title=" ">
<path fill="none" stroke="#63b8ff" d="M565.93,-109.98C576.08,-102.07 591.42,-90.11 603.65,-80.58"/>
<polygon fill="#63b8ff" stroke="#63b8ff" points="606.14,-83.08 611.88,-74.17 601.84,-77.56 606.14,-83.08"/>
</a>
</g>
</g>
<!-- Node23 -->
<g id="Node000023" class="node">
<title>Node23</title>
<g id="a_Node000023"><a xlink:title=" ">
<polygon fill="#e0e0e0" stroke="#999999" points="209,-19 153,-19 153,0 209,0 209,-19"/>
<text text-anchor="middle" x="181" y="-7" font-family="Helvetica,sans-Serif" font-size="10.00">iomanip</text>
</a>
</g>
</g>
<!-- Node12&#45;&gt;Node23 -->
<g id="edge30_Node000012_Node000023" class="edge">
<title>Node12&#45;&gt;Node23</title>
<g id="a_edge30_Node000012_Node000023"><a xlink:title=" ">
<path fill="none" stroke="#63b8ff" d="M546.15,-109.8C531.22,-95.71 499.49,-68.14 467,-55 366.28,-14.26 329.98,-38.09 219.12,-19.02"/>
<polygon fill="#63b8ff" stroke="#63b8ff" points="219.69,-15.56 209.23,-17.24 218.45,-22.45 219.69,-15.56"/>
</a>
</g>
</g>
<!-- Node12&#45;&gt;Node24 -->
<g id="edge32_Node000012_Node000024" class="edge">
<title>Node12&#45;&gt;Node24</title>
<g id="a_edge32_Node000012_Node000024"><a xlink:title=" ">
<path fill="none" stroke="#63b8ff" d="M576.07,-109.96C618.29,-92.87 709.51,-55.99 713,-55 801.5,-29.97 828.68,-35.99 923.45,-19.02"/>
<polygon fill="#63b8ff" stroke="#63b8ff" points="924.25,-22.43 933.46,-17.19 922.99,-15.55 924.25,-22.43"/>
</a>
</g>
</g>
<!-- Node12&#45;&gt;Node26 -->
<g id="edge34_Node000012_Node000026" class="edge">
<title>Node12&#45;&gt;Node26</title>
<g id="a_edge34_Node000012_Node000026"><a xlink:title=" ">
<path fill="none" stroke="#63b8ff" d="M592.69,-111.21C638.08,-102.43 716.63,-87.2 784,-74 788.49,-73.12 793.24,-72.18 797.89,-71.27"/>
<polygon fill="#63b8ff" stroke="#63b8ff" points="798.61,-74.69 807.74,-69.32 797.25,-67.83 798.61,-74.69"/>
</a>
</g>
</g>
<!-- Node27 -->
<g id="Node000027" class="node">
<title>Node27</title>
<g id="a_Node000027"><a xlink:title=" ">
<polygon fill="#e0e0e0" stroke="#999999" points="572.5,-74 519.5,-74 519.5,-55 572.5,-55 572.5,-74"/>
<text text-anchor="middle" x="546" y="-62" font-family="Helvetica,sans-Serif" font-size="10.00">stdint.h</text>
</a>
</g>
</g>
<!-- Node12&#45;&gt;Node27 -->
<g id="edge35_Node000012_Node000027" class="edge">
<title>Node12&#45;&gt;Node27</title>
<g id="a_edge35_Node000012_Node000027"><a xlink:title=" ">
<path fill="none" stroke="#63b8ff" d="M553.51,-109.75C552.33,-102.8 550.64,-92.85 549.16,-84.13"/>
<polygon fill="#63b8ff" stroke="#63b8ff" points="552.58,-83.36 547.46,-74.09 545.68,-84.53 552.58,-83.36"/>
</a>
</g>
</g>
<!-- Node15&#45;&gt;Node3 -->
<g id="edge23_Node000015_Node000003" class="edge">
<title>Node15&#45;&gt;Node3</title>
<g id="a_edge23_Node000015_Node000003"><a xlink:title=" ">
<path fill="none" stroke="#63b8ff" d="M590.4,-56.33C587.56,-55.83 584.74,-55.38 582,-55 355.75,-23.86 292.18,-56.86 63.2,-18.85"/>
<polygon fill="#63b8ff" stroke="#63b8ff" points="63.68,-15.38 53.23,-17.16 62.51,-22.28 63.68,-15.38"/>
</a>
</g>
</g>
<!-- Node15&#45;&gt;Node6 -->
<g id="edge20_Node000015_Node000006" class="edge">
<title>Node15&#45;&gt;Node6</title>
<g id="a_edge20_Node000015_Node000006"><a xlink:title=" ">
<path fill="none" stroke="#63b8ff" d="M655.57,-62.35C732.96,-59.24 934.05,-48.88 1111.28,-18.82"/>
<polygon fill="#63b8ff" stroke="#63b8ff" points="1112.05,-22.24 1121.31,-17.09 1110.86,-15.34 1112.05,-22.24"/>
</a>
</g>
</g>
<!-- Node15&#45;&gt;Node8 -->
<g id="edge25_Node000015_Node000008" class="edge">
<title>Node15&#45;&gt;Node8</title>
<g id="a_edge25_Node000015_Node000008"><a xlink:title=" ">
<path fill="none" stroke="#63b8ff" d="M590.39,-56.36C587.56,-55.86 584.73,-55.39 582,-55 391.89,-27.59 339.07,-46.23 145.11,-18.98"/>
<polygon fill="#63b8ff" stroke="#63b8ff" points="145.56,-15.5 135.16,-17.56 144.57,-22.43 145.56,-15.5"/>
</a>
</g>
</g>
<!-- Node15&#45;&gt;Node13 -->
<g id="edge29_Node000015_Node000013" class="edge">
<title>Node15&#45;&gt;Node13</title>
<g id="a_edge29_Node000015_Node000013"><a xlink:title=" ">
<path fill="none" stroke="#63b8ff" d="M655.52,-60.26C720.27,-53.7 870.16,-37.96 1006.67,-19.13"/>
<polygon fill="#63b8ff" stroke="#63b8ff" points="1007.47,-22.55 1016.89,-17.71 1006.51,-15.62 1007.47,-22.55"/>
</a>
</g>
</g>
<!-- Node16 -->
<g id="Node000016" class="node">
<title>Node16</title>
<g id="a_Node000016"><a xlink:title=" ">
<polygon fill="#e0e0e0" stroke="#999999" points="799,-19 707,-19 707,0 799,0 799,-19"/>
<text text-anchor="middle" x="753" y="-7" font-family="Helvetica,sans-Serif" font-size="10.00">lammp/lmmp.h</text>
</a>
</g>
</g>
<!-- Node15&#45;&gt;Node16 -->
<g id="edge16_Node000015_Node000016" class="edge">
<title>Node15&#45;&gt;Node16</title>
<g id="a_edge16_Node000015_Node000016"><a xlink:title=" ">
<path fill="none" stroke="#63b8ff" d="M643.89,-54.98C665.08,-46.34 698.13,-32.87 722.3,-23.02"/>
<polygon fill="#63b8ff" stroke="#63b8ff" points="723.79,-26.19 731.73,-19.17 721.15,-19.7 723.79,-26.19"/>
</a>
</g>
</g>
<!-- Node17 -->
<g id="Node000017" class="node">
<title>Node17</title>
<g id="a_Node000017"><a xlink:title=" ">
<polygon fill="#e0e0e0" stroke="#999999" points="915,-19 817,-19 817,0 915,0 915,-19"/>
<text text-anchor="middle" x="866" y="-7" font-family="Helvetica,sans-Serif" font-size="10.00">lammp/lmmpn.h</text>
</a>
</g>
</g>
<!-- Node15&#45;&gt;Node17 -->
<g id="edge17_Node000015_Node000017" class="edge">
<title>Node15&#45;&gt;Node17</title>
<g id="a_edge17_Node000015_Node000017"><a xlink:title=" ">
<path fill="none" stroke="#63b8ff" d="M655.52,-56.41C696.93,-47.37 768.88,-31.68 816.96,-21.2"/>
<polygon fill="#63b8ff" stroke="#63b8ff" points="817.82,-24.59 826.84,-19.04 816.33,-17.75 817.82,-24.59"/>
</a>
</g>
</g>
<!-- Node18 -->
<g id="Node000018" class="node">
<title>Node18</title>
<g id="a_Node000018"><a xlink:title=" ">
<polygon fill="#e0e0e0" stroke="#999999" points="322.5,-19 227.5,-19 227.5,0 322.5,0 322.5,-19"/>
<text text-anchor="middle" x="275" y="-7" font-family="Helvetica,sans-Serif" font-size="10.00">lammp/numth.h</text>
</a>
</g>
</g>
<!-- Node15&#45;&gt;Node18 -->
<g id="edge18_Node000015_Node000018" class="edge">
<title>Node15&#45;&gt;Node18</title>
<g id="a_edge18_Node000015_Node000018"><a xlink:title=" ">
<path fill="none" stroke="#63b8ff" d="M590.36,-56.54C587.54,-56 584.72,-55.48 582,-55 474.56,-36.15 444.74,-35.31 332.6,-19.07"/>
<polygon fill="#63b8ff" stroke="#63b8ff" points="332.98,-15.59 322.58,-17.61 331.97,-22.52 332.98,-15.59"/>
</a>
</g>
</g>
<!-- Node19 -->
<g id="Node000019" class="node">
<title>Node19</title>
<g id="a_Node000019"><a xlink:title=" ">
<polygon fill="#e0e0e0" stroke="#999999" points="413,-19 341,-19 341,0 413,0 413,-19"/>
<text text-anchor="middle" x="377" y="-7" font-family="Helvetica,sans-Serif" font-size="10.00">lmmc/init.h</text>
</a>
</g>
</g>
<!-- Node15&#45;&gt;Node19 -->
<g id="edge19_Node000015_Node000019" class="edge">
<title>Node15&#45;&gt;Node19</title>
<g id="a_edge19_Node000015_Node000019"><a xlink:title=" ">
<path fill="none" stroke="#63b8ff" d="M590.33,-56.46C547.38,-47.21 471.68,-30.9 422.97,-20.4"/>
<polygon fill="#63b8ff" stroke="#63b8ff" points="423.51,-16.94 413,-18.26 422.04,-23.78 423.51,-16.94"/>
</a>
</g>
</g>
<!-- Node20 -->
<g id="Node000020" class="node">
<title>Node20</title>
<g id="a_Node000020"><a xlink:title=" ">
<polygon fill="#e0e0e0" stroke="#999999" points="480.5,-19 431.5,-19 431.5,0 480.5,0 480.5,-19"/>
<text text-anchor="middle" x="456" y="-7" font-family="Helvetica,sans-Serif" font-size="10.00">cstdlib</text>
</a>
</g>
</g>
<!-- Node15&#45;&gt;Node20 -->
<g id="edge21_Node000015_Node000020" class="edge">
<title>Node15&#45;&gt;Node20</title>
<g id="a_edge21_Node000015_Node000020"><a xlink:title=" ">
<path fill="none" stroke="#63b8ff" d="M596.17,-54.98C567.38,-45.85 521.58,-31.31 490.22,-21.36"/>
<polygon fill="#63b8ff" stroke="#63b8ff" points="491.18,-17.99 480.59,-18.3 489.06,-24.66 491.18,-17.99"/>
</a>
</g>
</g>
<!-- Node21 -->
<g id="Node000021" class="node">
<title>Node21</title>
<g id="a_Node000021"><a xlink:title=" ">
<polygon fill="#e0e0e0" stroke="#999999" points="549,-19 499,-19 499,0 549,0 549,-19"/>
<text text-anchor="middle" x="524" y="-7" font-family="Helvetica,sans-Serif" font-size="10.00">cstring</text>
</a>
</g>
</g>
<!-- Node15&#45;&gt;Node21 -->
<g id="edge22_Node000015_Node000021" class="edge">
<title>Node15&#45;&gt;Node21</title>
<g id="a_edge22_Node000015_Node000021"><a xlink:title=" ">
<path fill="none" stroke="#63b8ff" d="M607.09,-54.98C591.45,-46.61 567.34,-33.7 549.12,-23.95"/>
<polygon fill="#63b8ff" stroke="#63b8ff" points="550.66,-20.8 540.2,-19.17 547.36,-26.98 550.66,-20.8"/>
</a>
</g>
</g>
<!-- Node22 -->
<g id="Node000022" class="node">
<title>Node22</title>
<g id="a_Node000022"><a xlink:title=" ">
<polygon fill="#e0e0e0" stroke="#999999" points="627,-19 567,-19 567,0 627,0 627,-19"/>
<text text-anchor="middle" x="597" y="-7" font-family="Helvetica,sans-Serif" font-size="10.00">iostream</text>
</a>
</g>
</g>
<!-- Node15&#45;&gt;Node22 -->
<g id="edge24_Node000015_Node000022" class="edge">
<title>Node15&#45;&gt;Node22</title>
<g id="a_edge24_Node000015_Node000022"><a xlink:title=" ">
<path fill="none" stroke="#63b8ff" d="M618.71,-54.75C615.19,-47.57 610.09,-37.18 605.72,-28.27"/>
<polygon fill="#63b8ff" stroke="#63b8ff" points="608.76,-26.53 601.21,-19.09 602.48,-29.61 608.76,-26.53"/>
</a>
</g>
</g>
<!-- Node15&#45;&gt;Node23 -->
<g id="edge26_Node000015_Node000023" class="edge">
<title>Node15&#45;&gt;Node23</title>
<g id="a_edge26_Node000015_Node000023"><a xlink:title=" ">
<path fill="none" stroke="#63b8ff" d="M590.38,-56.41C587.55,-55.9 584.73,-55.42 582,-55 424.59,-30.97 380.24,-44.66 219.46,-19.03"/>
<polygon fill="#63b8ff" stroke="#63b8ff" points="219.64,-15.51 209.21,-17.37 218.52,-22.42 219.64,-15.51"/>
</a>
</g>
</g>
<!-- Node15&#45;&gt;Node24 -->
<g id="edge27_Node000015_Node000024" class="edge">
<title>Node15&#45;&gt;Node24</title>
<g id="a_edge27_Node000015_Node000024"><a xlink:title=" ">
<path fill="none" stroke="#63b8ff" d="M655.66,-57.69C661.11,-56.77 666.71,-55.84 672,-55 780.58,-37.83 810.81,-38.19 923.42,-19"/>
<polygon fill="#63b8ff" stroke="#63b8ff" points="924.21,-22.42 933.48,-17.28 923.03,-15.52 924.21,-22.42"/>
</a>
</g>
</g>
<!-- Node25 -->
<g id="Node000025" class="node">
<title>Node25</title>
<g id="a_Node000025"><a xlink:title=" ">
<polygon fill="#e0e0e0" stroke="#999999" points="689,-19 645,-19 645,0 689,0 689,-19"/>
<text text-anchor="middle" x="667" y="-7" font-family="Helvetica,sans-Serif" font-size="10.00">limits</text>
</a>
</g>
</g>
<!-- Node15&#45;&gt;Node25 -->
<g id="edge28_Node000015_Node000025" class="edge">
<title>Node15&#45;&gt;Node25</title>
<g id="a_edge28_Node000015_Node000025"><a xlink:title=" ">
<path fill="none" stroke="#63b8ff" d="M630.27,-54.75C636.54,-47.18 645.79,-36.05 653.43,-26.84"/>
<polygon fill="#63b8ff" stroke="#63b8ff" points="656.17,-29.02 659.87,-19.09 650.79,-24.55 656.17,-29.02"/>
</a>
</g>
</g>
</g>
</svg>
