<?xml version="1.0" encoding="UTF-8" standalone="no"?>
<!DOCTYPE svg PUBLIC "-//W3C//DTD SVG 1.1//EN"
 "http://www.w3.org/Graphics/SVG/1.1/DTD/svg11.dtd">
<!-- Generated by graphviz version 2.43.0 (0)
 -->
<!-- Title: lamina::ParametricSolver::solve_linear_parametric Pages: 1 -->
<!--zoomable 255 -->

<svg id="main" version="1.1" xmlns="http://www.w3.org/2000/svg" xmlns:xlink="http://www.w3.org/1999/xlink" xml:space="preserve" onload="init(evt)">
<style type="text/css"><![CDATA[
.node, .edge {opacity: 0.7;}
.node.selected, .edge.selected {opacity: 1;}
.edge:hover path { stroke: red; }
.edge:hover polygon { stroke: red; fill: red; }
]]></style>

<defs>
  <circle id="rim" cx="0" cy="0" r="7"/>
  <circle id="rim2" cx="0" cy="0" r="3.5"/>
  <g id="zoomPlus">
    <use xlink:href="#rim" fill="#404040"><set attributeName="fill" to="#808080" begin="zoomplus.mouseover" end="zoomplus.mouseout"/></use>
    <path d="M-4,0h8M0,-4v8" fill="none" stroke="white" stroke-width="1.5" pointer-events="none"/>
  </g>
  <g id="zoomMin">
    <use xlink:href="#rim" fill="#404040"><set attributeName="fill" to="#808080" begin="zoomminus.mouseover" end="zoomminus.mouseout"/></use>
    <path d="M-4,0h8" fill="none" stroke="white" stroke-width="1.5" pointer-events="none"/>
  </g>
  <g id="arrowUp" transform="translate(30 24)">
    <use xlink:href="#rim"/>
    <path pointer-events="none" fill="none" stroke="white" stroke-width="1.5" d="M0,-3.0v7 M-2.5,-0.5L0,-3.0L2.5,-0.5"/>
  </g>
  <g id="arrowRight" transform="rotate(90) translate(36 -43)">
    <use xlink:href="#rim"/>
    <path pointer-events="none" fill="none" stroke="white" stroke-width="1.5" d="M0,-3.0v7 M-2.5,-0.5L0,-3.0L2.5,-0.5"/>
  </g>
  <g id="arrowDown" transform="rotate(180) translate(-30 -48)">
    <use xlink:href="#rim"/>
    <path pointer-events="none" fill="none" stroke="white" stroke-width="1.5" d="M0,-3.0v7 M-2.5,-0.5L0,-3.0L2.5,-0.5"/>
  </g>
  <g id="arrowLeft" transform="rotate(270) translate(-36 17)">
    <use xlink:href="#rim"/>
    <path pointer-events="none" fill="none" stroke="white" stroke-width="1.5" d="M0,-3.0v7 M-2.5,-0.5L0,-3.0L2.5,-0.5"/>
  </g>
  <g id="resetDef">
    <use xlink:href="#rim2" fill="#404040"><set attributeName="fill" to="#808080" begin="reset.mouseover" end="reset.mouseout"/></use>
  </g>
</defs>
<script type="application/ecmascript">
var viewWidth = 534;
var viewHeight = 255;
var sectionId = 'dynsection-2';
</script>
<script type="application/ecmascript" xlink:href="../../svg.min.js"/>
<svg id="graph" class="graph">
<g id="viewport">
<title>lamina::ParametricSolver::solve_linear_parametric</title>
<!-- Node1 -->
<g id="Node000001" class="node">
<title>Node1</title>
<g id="a_Node000001"><a xlink:title="求解关于未知数为线性的含参方程组">
<polygon fill="#999999" stroke="#666666" points="140,-138.5 0,-138.5 0,-108.5 140,-108.5 140,-138.5"/>
<text text-anchor="start" x="8" y="-126.5" font-family="Helvetica,sans-Serif" font-size="10.00">lamina::ParametricSolver</text>
<text text-anchor="middle" x="70" y="-115.5" font-family="Helvetica,sans-Serif" font-size="10.00">::solve_linear_parametric</text>
</a>
</g>
</g>
<!-- Node2 -->
<g id="Node000002" class="node">
<title>Node2</title>
<g id="a_Node000002"><a xlink:href="../../dc/d25/classSymbolicExpr.html#ac8782568f037f8055277e5d8b80ec6d6" target="_top" xlink:title="创建加法表达式。">
<polygon fill="white" stroke="#666666" points="313,-247 206,-247 206,-228 313,-228 313,-247"/>
<text text-anchor="middle" x="259.5" y="-235" font-family="Helvetica,sans-Serif" font-size="10.00">SymbolicExpr::add</text>
</a>
</g>
</g>
<!-- Node1&#45;&gt;Node2 -->
<g id="edge1_Node000001_Node000002" class="edge">
<title>Node1&#45;&gt;Node2</title>
<g id="a_edge1_Node000001_Node000002"><a xlink:title=" ">
<path fill="none" stroke="#63b8ff" d="M84.78,-138.82C103.55,-158.79 139.04,-193.51 176,-213.5 184.37,-218.03 193.7,-221.79 202.99,-224.89"/>
<polygon fill="#63b8ff" stroke="#63b8ff" points="202.01,-228.25 212.6,-227.88 204.09,-221.57 202.01,-228.25"/>
</a>
</g>
</g>
<!-- Node3 -->
<g id="Node000003" class="node">
<title>Node3</title>
<g id="a_Node000003"><a xlink:href="../../dc/d25/classSymbolicExpr.html#aea4c251b3fd9994c77fb8b26dae96d5f" target="_top" xlink:title="执行符号除法。">
<polygon fill="white" stroke="#666666" points="319,-171 200,-171 200,-152 319,-152 319,-171"/>
<text text-anchor="middle" x="259.5" y="-159" font-family="Helvetica,sans-Serif" font-size="10.00">SymbolicExpr::divide</text>
</a>
</g>
</g>
<!-- Node1&#45;&gt;Node3 -->
<g id="edge2_Node000001_Node000003" class="edge">
<title>Node1&#45;&gt;Node3</title>
<g id="a_edge2_Node000001_Node000003"><a xlink:title=" ">
<path fill="none" stroke="#63b8ff" d="M140.02,-137.49C160.29,-141.6 182.23,-146.04 201.65,-149.98"/>
<polygon fill="#63b8ff" stroke="#63b8ff" points="201.06,-153.43 211.55,-151.99 202.45,-146.57 201.06,-153.43"/>
</a>
</g>
</g>
<!-- Node4 -->
<g id="Node000004" class="node">
<title>Node4</title>
<g id="a_Node000004"><a xlink:href="../../dc/d25/classSymbolicExpr.html#ad03189fc8a4db7762f7c1ca890674bbc" target="_top" xlink:title="创建乘法表达式。">
<polygon fill="white" stroke="#666666" points="517.5,-208 387.5,-208 387.5,-189 517.5,-189 517.5,-208"/>
<text text-anchor="middle" x="452.5" y="-196" font-family="Helvetica,sans-Serif" font-size="10.00">SymbolicExpr::multiply</text>
</a>
</g>
</g>
<!-- Node1&#45;&gt;Node4 -->
<g id="edge10_Node000001_Node000004" class="edge">
<title>Node1&#45;&gt;Node4</title>
<g id="a_edge10_Node000001_Node000004"><a xlink:title=" ">
<path fill="none" stroke="#63b8ff" d="M92.32,-138.69C112.72,-152.32 144.91,-171.52 176,-180.5 242.11,-199.6 320.71,-202.94 377.01,-202.19"/>
<polygon fill="#63b8ff" stroke="#63b8ff" points="377.32,-205.68 387.25,-202 377.19,-198.68 377.32,-205.68"/>
</a>
</g>
</g>
<!-- Node5 -->
<g id="Node000005" class="node">
<title>Node5</title>
<g id="a_Node000005"><a xlink:href="../../dc/d25/classSymbolicExpr.html#adeb760bb6f4f28879108394537eca293" target="_top" xlink:title="创建整数数值表达式。">
<polygon fill="white" stroke="#666666" points="516,-133 389,-133 389,-114 516,-114 516,-133"/>
<text text-anchor="middle" x="452.5" y="-121" font-family="Helvetica,sans-Serif" font-size="10.00">SymbolicExpr::number</text>
</a>
</g>
</g>
<!-- Node1&#45;&gt;Node5 -->
<g id="edge11_Node000001_Node000005" class="edge">
<title>Node1&#45;&gt;Node5</title>
<g id="a_edge11_Node000001_Node000005"><a xlink:title=" ">
<path fill="none" stroke="#63b8ff" d="M140.35,-123.5C207.83,-123.5 309.98,-123.5 378.64,-123.5"/>
<polygon fill="#63b8ff" stroke="#63b8ff" points="378.94,-127 388.94,-123.5 378.94,-120 378.94,-127"/>
</a>
</g>
</g>
<!-- Node7 -->
<g id="Node000007" class="node">
<title>Node7</title>
<g id="a_Node000007"><a xlink:href="../../d1/d42/namespacelamina.html#a9afa2916ffcef78f8e70ea03ea80f784" target="_top" xlink:title=" ">
<polygon fill="white" stroke="#666666" points="526,-76 379,-76 379,-57 526,-57 526,-76"/>
<text text-anchor="middle" x="452.5" y="-64" font-family="Helvetica,sans-Serif" font-size="10.00">lamina::extract_coefficient</text>
</a>
</g>
</g>
<!-- Node1&#45;&gt;Node7 -->
<g id="edge6_Node000001_Node000007" class="edge">
<title>Node1&#45;&gt;Node7</title>
<g id="a_edge6_Node000001_Node000007"><a xlink:title=" ">
<path fill="none" stroke="#63b8ff" d="M91.42,-108.38C111.68,-94.39 144.24,-74.57 176,-66.5 239.72,-50.32 314.43,-51.51 369.97,-56.09"/>
<polygon fill="#63b8ff" stroke="#63b8ff" points="369.84,-59.59 380.1,-56.98 370.45,-52.62 369.84,-59.59"/>
</a>
</g>
</g>
<!-- Node8 -->
<g id="Node000008" class="node">
<title>Node8</title>
<g id="a_Node000008"><a xlink:href="../../d1/d42/namespacelamina.html#a47884d3034fc73d31bbdd721f7960798" target="_top" xlink:title=" ">
<polygon fill="white" stroke="#666666" points="343,-95 176,-95 176,-76 343,-76 343,-95"/>
<text text-anchor="middle" x="259.5" y="-83" font-family="Helvetica,sans-Serif" font-size="10.00">lamina::extract_constant_term</text>
</a>
</g>
</g>
<!-- Node1&#45;&gt;Node8 -->
<g id="edge7_Node000001_Node000008" class="edge">
<title>Node1&#45;&gt;Node8</title>
<g id="a_edge7_Node000001_Node000008"><a xlink:title=" ">
<path fill="none" stroke="#63b8ff" d="M140.02,-109.51C160.29,-105.4 182.23,-100.96 201.65,-97.02"/>
<polygon fill="#63b8ff" stroke="#63b8ff" points="202.45,-100.43 211.55,-95.01 201.06,-93.57 202.45,-100.43"/>
</a>
</g>
</g>
<!-- Node9 -->
<g id="Node000009" class="node">
<title>Node9</title>
<g id="a_Node000009"><a xlink:href="../../dc/d25/classSymbolicExpr.html#a1718e8c497b928507b31acb089cc64ff" target="_top" xlink:title="创建变量表达式。">
<polygon fill="white" stroke="#666666" points="324,-19 195,-19 195,0 324,0 324,-19"/>
<text text-anchor="middle" x="259.5" y="-7" font-family="Helvetica,sans-Serif" font-size="10.00">SymbolicExpr::variable</text>
</a>
</g>
</g>
<!-- Node1&#45;&gt;Node9 -->
<g id="edge12_Node000001_Node000009" class="edge">
<title>Node1&#45;&gt;Node9</title>
<g id="a_edge12_Node000001_Node000009"><a xlink:title=" ">
<path fill="none" stroke="#63b8ff" d="M84.78,-108.18C103.55,-88.21 139.04,-53.49 176,-33.5 184.37,-28.97 193.7,-25.21 202.99,-22.11"/>
<polygon fill="#63b8ff" stroke="#63b8ff" points="204.09,-25.43 212.6,-19.12 202.01,-18.75 204.09,-25.43"/>
</a>
</g>
</g>
<!-- Node3&#45;&gt;Node4 -->
<g id="edge3_Node000003_Node000004" class="edge">
<title>Node3&#45;&gt;Node4</title>
<g id="a_edge3_Node000003_Node000004"><a xlink:title=" ">
<path fill="none" stroke="#63b8ff" d="M309.69,-171.03C334.88,-175.91 365.74,-181.89 392.23,-187.02"/>
<polygon fill="#63b8ff" stroke="#63b8ff" points="391.66,-190.47 402.15,-188.94 393,-183.6 391.66,-190.47"/>
</a>
</g>
</g>
<!-- Node3&#45;&gt;Node5 -->
<g id="edge4_Node000003_Node000005" class="edge">
<title>Node3&#45;&gt;Node5</title>
<g id="a_edge4_Node000003_Node000005"><a xlink:title=" ">
<path fill="none" stroke="#63b8ff" d="M308.7,-151.91C334.47,-146.78 366.39,-140.43 393.51,-135.04"/>
<polygon fill="#63b8ff" stroke="#63b8ff" points="394.52,-138.4 403.65,-133.02 393.16,-131.54 394.52,-138.4"/>
</a>
</g>
</g>
<!-- Node6 -->
<g id="Node000006" class="node">
<title>Node6</title>
<g id="a_Node000006"><a xlink:href="../../dc/d25/classSymbolicExpr.html#ab03922681e30190ba7c73d2c1e58aa40" target="_top" xlink:title="创建幂运算表达式。">
<polygon fill="white" stroke="#666666" points="512,-171 393,-171 393,-152 512,-152 512,-171"/>
<text text-anchor="middle" x="452.5" y="-159" font-family="Helvetica,sans-Serif" font-size="10.00">SymbolicExpr::power</text>
</a>
</g>
</g>
<!-- Node3&#45;&gt;Node6 -->
<g id="edge5_Node000003_Node000006" class="edge">
<title>Node3&#45;&gt;Node6</title>
<g id="a_edge5_Node000003_Node000006"><a xlink:title=" ">
<path fill="none" stroke="#63b8ff" d="M319.1,-161.5C339.18,-161.5 361.82,-161.5 382.63,-161.5"/>
<polygon fill="#63b8ff" stroke="#63b8ff" points="382.68,-165 392.68,-161.5 382.68,-158 382.68,-165"/>
</a>
</g>
</g>
<!-- Node8&#45;&gt;Node5 -->
<g id="edge9_Node000008_Node000005" class="edge">
<title>Node8&#45;&gt;Node5</title>
<g id="a_edge9_Node000008_Node000005"><a xlink:title=" ">
<path fill="none" stroke="#63b8ff" d="M308.7,-95.09C334.47,-100.22 366.39,-106.57 393.51,-111.96"/>
<polygon fill="#63b8ff" stroke="#63b8ff" points="393.16,-115.46 403.65,-113.98 394.52,-108.6 393.16,-115.46"/>
</a>
</g>
</g>
<!-- Node8&#45;&gt;Node7 -->
<g id="edge8_Node000008_Node000007" class="edge">
<title>Node8&#45;&gt;Node7</title>
<g id="a_edge8_Node000008_Node000007"><a xlink:title=" ">
<path fill="none" stroke="#63b8ff" d="M343.16,-77.28C351.72,-76.43 360.41,-75.56 368.96,-74.71"/>
<polygon fill="#63b8ff" stroke="#63b8ff" points="369.31,-78.19 378.91,-73.72 368.61,-71.23 369.31,-78.19"/>
</a>
</g>
</g>
</g>
</svg>

<g id="navigator" transform="translate(0 0)" fill="#404254">
  <rect fill="#f2f5e9" fill-opacity="0.5" stroke="#606060" stroke-width=".5" x="0" y="0" width="60" height="60"/>
  <use id="zoomplus" xlink:href="#zoomPlus" x="17" y="9" onmousedown="handleZoom(evt,'in')"/>
  <use id="zoomminus" xlink:href="#zoomMin" x="42" y="9" onmousedown="handleZoom(evt,'out')"/>
  <use id="reset" xlink:href="#resetDef" x="30" y="36" onmousedown="handleReset()"/>
   <use id="arrowup" xlink:href="#arrowUp" x="0" y="0" onmousedown="handlePan(0,-1)"/>
  <use id="arrowright" xlink:href="#arrowRight" x="0" y="0" onmousedown="handlePan(1,0)"/>
  <use id="arrowdown" xlink:href="#arrowDown" x="0" y="0" onmousedown="handlePan(0,1)"/>
  <use id="arrowleft" xlink:href="#arrowLeft" x="0" y="0" onmousedown="handlePan(-1,0)"/>
</g>
<svg viewBox="0 0 15 15" width="100%" height="30px" preserveAspectRatio="xMaxYMin meet">
 <g id="arrow_out" transform="scale(0.3 0.3)">
  <a xlink:href="classlamina_1_1ParametricSolver_a7362939d396c32a024a21ffd86f11fb0_cgraph_org.svg" target="_base">
   <rect id="button" ry="5" rx="5" y="6" x="6" height="38" width="38"
        fill="#f2f5e9" fill-opacity="0.5" stroke="#606060" stroke-width="1.0"/>
   <path id="arrow"
     d="M 11.500037,31.436501 C 11.940474,20.09759 22.043105,11.32322 32.158766,21.979434 L 37.068811,17.246167 C 37.068811,17.246167 37.088388,32 37.088388,32 L 22.160133,31.978069 C 22.160133,31.978069 26.997745,27.140456 26.997745,27.140456 C 18.528582,18.264221 13.291696,25.230495 11.500037,31.436501 z"
     style="fill:#404040;"/>
  </a>
 </g>
</svg>

<style type='text/css'>
<![CDATA[
[data-mouse-over-selected='false'] { opacity: 0.7; }
[data-mouse-over-selected='true']  { opacity: 1.0; }
]]>
</style>
<script type="application/ecmascript"><![CDATA[
document.addEventListener('DOMContentLoaded', (event) => {
  highlightEdges();
  highlightAdjacentNodes();
});
]]></script>
</svg>
