<?xml version="1.0" encoding="UTF-8" standalone="no"?>
<!DOCTYPE svg PUBLIC "-//W3C//DTD SVG 1.1//EN"
 "http://www.w3.org/Graphics/SVG/1.1/DTD/svg11.dtd">
<!-- Generated by graphviz version 2.43.0 (0)
 -->
<!-- Title: lmmp_sqrlo_n_ Pages: 1 -->
<svg width="253pt" height="45pt"
 viewBox="0.00 0.00 253.00 45.00" xmlns="http://www.w3.org/2000/svg" xmlns:xlink="http://www.w3.org/1999/xlink">
<g id="graph0" class="graph" transform="scale(1 1) rotate(0) translate(4 41)">
<title>lmmp_sqrlo_n_</title>
<!-- Node1 -->
<g id="Node000001" class="node">
<title>Node1</title>
<g id="a_Node000001"><a xlink:title=" ">
<polygon fill="#999999" stroke="#666666" points="245,-19 154,-19 154,0 245,0 245,-19"/>
<text text-anchor="middle" x="199.5" y="-7" font-family="Helvetica,sans-Serif" font-size="10.00">lmmp_sqrlo_n_</text>
</a>
</g>
</g>
<!-- Node2 -->
<g id="Node000002" class="node">
<title>Node2</title>
<g id="a_Node000002"><a xlink:href="../../dd/d93/binvert_8c.html#a3fd1bd013e0538b438fc6a69e6e29a74" target="_top" xlink:title=" ">
<polygon fill="white" stroke="#666666" points="118,-19 0,-19 0,0 118,0 118,-19"/>
<text text-anchor="middle" x="59" y="-7" font-family="Helvetica,sans-Serif" font-size="10.00">lmmp_binvert_n_dc_</text>
</a>
</g>
</g>
<!-- Node1&#45;&gt;Node2 -->
<g id="edge1_Node000001_Node000002" class="edge">
<title>Node1&#45;&gt;Node2</title>
<g id="a_edge1_Node000001_Node000002"><a xlink:title=" ">
<path fill="none" stroke="#63b8ff" d="M143.82,-9.5C135.39,-9.5 126.66,-9.5 118.16,-9.5"/>
<polygon fill="#63b8ff" stroke="#63b8ff" points="143.92,-13 153.92,-9.5 143.92,-6 143.92,-13"/>
</a>
</g>
</g>
<!-- Node2&#45;&gt;Node2 -->
<g id="edge2_Node000002_Node000002" class="edge">
<title>Node2&#45;&gt;Node2</title>
<g id="a_edge2_Node000002_Node000002"><a xlink:title=" ">
<path fill="none" stroke="#63b8ff" d="M85.04,-28.19C83.62,-33.2 74.94,-37 59,-37 34.12,-37 26.92,-27.73 37.42,-19.08"/>
<polygon fill="#63b8ff" stroke="#63b8ff" points="88.12,-26.52 80.58,-19.08 81.84,-29.6 88.12,-26.52"/>
</a>
</g>
</g>
</g>
</svg>
