<?xml version="1.0" encoding="UTF-8" standalone="no"?>
<!DOCTYPE svg PUBLIC "-//W3C//DTD SVG 1.1//EN"
 "http://www.w3.org/Graphics/SVG/1.1/DTD/svg11.dtd">
<!-- Generated by graphviz version 2.43.0 (0)
 -->
<!-- Title: binvert_mulhi_ Pages: 1 -->
<!--zoomable 664 -->

<svg id="main" version="1.1" xmlns="http://www.w3.org/2000/svg" xmlns:xlink="http://www.w3.org/1999/xlink" xml:space="preserve" onload="init(evt)">
<style type="text/css"><![CDATA[
.node, .edge {opacity: 0.7;}
.node.selected, .edge.selected {opacity: 1;}
.edge:hover path { stroke: red; }
.edge:hover polygon { stroke: red; fill: red; }
]]></style>

<defs>
  <circle id="rim" cx="0" cy="0" r="7"/>
  <circle id="rim2" cx="0" cy="0" r="3.5"/>
  <g id="zoomPlus">
    <use xlink:href="#rim" fill="#404040"><set attributeName="fill" to="#808080" begin="zoomplus.mouseover" end="zoomplus.mouseout"/></use>
    <path d="M-4,0h8M0,-4v8" fill="none" stroke="white" stroke-width="1.5" pointer-events="none"/>
  </g>
  <g id="zoomMin">
    <use xlink:href="#rim" fill="#404040"><set attributeName="fill" to="#808080" begin="zoomminus.mouseover" end="zoomminus.mouseout"/></use>
    <path d="M-4,0h8" fill="none" stroke="white" stroke-width="1.5" pointer-events="none"/>
  </g>
  <g id="arrowUp" transform="translate(30 24)">
    <use xlink:href="#rim"/>
    <path pointer-events="none" fill="none" stroke="white" stroke-width="1.5" d="M0,-3.0v7 M-2.5,-0.5L0,-3.0L2.5,-0.5"/>
  </g>
  <g id="arrowRight" transform="rotate(90) translate(36 -43)">
    <use xlink:href="#rim"/>
    <path pointer-events="none" fill="none" stroke="white" stroke-width="1.5" d="M0,-3.0v7 M-2.5,-0.5L0,-3.0L2.5,-0.5"/>
  </g>
  <g id="arrowDown" transform="rotate(180) translate(-30 -48)">
    <use xlink:href="#rim"/>
    <path pointer-events="none" fill="none" stroke="white" stroke-width="1.5" d="M0,-3.0v7 M-2.5,-0.5L0,-3.0L2.5,-0.5"/>
  </g>
  <g id="arrowLeft" transform="rotate(270) translate(-36 17)">
    <use xlink:href="#rim"/>
    <path pointer-events="none" fill="none" stroke="white" stroke-width="1.5" d="M0,-3.0v7 M-2.5,-0.5L0,-3.0L2.5,-0.5"/>
  </g>
  <g id="resetDef">
    <use xlink:href="#rim2" fill="#404040"><set attributeName="fill" to="#808080" begin="reset.mouseover" end="reset.mouseout"/></use>
  </g>
</defs>
<script type="application/ecmascript">
var viewWidth = 1200;
var viewHeight = 664;
var sectionId = 'dynsection-1';
</script>
<script type="application/ecmascript" xlink:href="../../svg.min.js"/>
<svg id="graph" class="graph">
<g id="viewport">
<title>binvert_mulhi_</title>
<!-- Node1 -->
<g id="Node000001" class="node">
<title>Node1</title>
<g id="a_Node000001"><a xlink:title=" ">
<polygon fill="#999999" stroke="#666666" points="89,-447 0,-447 0,-428 89,-428 89,-447"/>
<text text-anchor="middle" x="44.5" y="-435" font-family="Helvetica,sans-Serif" font-size="10.00">binvert_mulhi_</text>
</a>
</g>
</g>
<!-- Node2 -->
<g id="Node000002" class="node">
<title>Node2</title>
<g id="a_Node000002"><a xlink:href="../../db/dfa/mul__fft_8c.html#aab5be2d356cd6c7236cacb11d9315666" target="_top" xlink:title="计算满足 &gt;=n 的最小费马/梅森乘法可行尺寸">
<polygon fill="white" stroke="#666666" points="425,-656 307,-656 307,-637 425,-637 425,-656"/>
<text text-anchor="middle" x="366" y="-644" font-family="Helvetica,sans-Serif" font-size="10.00">lmmp_fft_next_size_</text>
</a>
</g>
</g>
<!-- Node1&#45;&gt;Node2 -->
<g id="edge1_Node000001_Node000002" class="edge">
<title>Node1&#45;&gt;Node2</title>
<g id="a_edge1_Node000001_Node000002"><a xlink:title=" ">
<path fill="none" stroke="#63b8ff" d="M57.69,-447.2C92.51,-474.64 195.89,-554.44 289,-609.5 303.27,-617.94 319.74,-626.13 333.69,-632.65"/>
<polygon fill="#63b8ff" stroke="#63b8ff" points="332.34,-635.89 342.89,-636.89 335.27,-629.53 332.34,-635.89"/>
</a>
</g>
</g>
<!-- Node4 -->
<g id="Node000004" class="node">
<title>Node4</title>
<g id="a_Node000004"><a xlink:href="../../db/dfa/mul__fft_8c.html#a1d4cd32c506207c7617dadfa39a9236c" target="_top" xlink:title="梅森数模乘法 [dst,rn] = [numa,na]*[numb,nb] mod B^rn&#45;1">
<polygon fill="white" stroke="#666666" points="253,-428 125,-428 125,-409 253,-409 253,-428"/>
<text text-anchor="middle" x="189" y="-416" font-family="Helvetica,sans-Serif" font-size="10.00">lmmp_mul_mersenne_</text>
</a>
</g>
</g>
<!-- Node1&#45;&gt;Node4 -->
<g id="edge3_Node000001_Node000004" class="edge">
<title>Node1&#45;&gt;Node4</title>
<g id="a_edge3_Node000001_Node000004"><a xlink:title=" ">
<path fill="none" stroke="#63b8ff" d="M89.03,-431.7C97.24,-430.6 106.02,-429.43 114.85,-428.25"/>
<polygon fill="#63b8ff" stroke="#63b8ff" points="115.35,-431.72 124.8,-426.93 114.43,-424.78 115.35,-431.72"/>
</a>
</g>
</g>
<!-- Node3 -->
<g id="Node000003" class="node">
<title>Node3</title>
<g id="a_Node000003"><a xlink:href="../../db/dfa/mul__fft_8c.html#ab61c9a502be62250e0470f0464a544a2" target="_top" xlink:title="查找对于 m&gt;=n 的模 B^m+1 FFT运算的最优k值">
<polygon fill="white" stroke="#666666" points="616,-618 512,-618 512,-599 616,-599 616,-618"/>
<text text-anchor="middle" x="564" y="-606" font-family="Helvetica,sans-Serif" font-size="10.00">lmmp_fft_best_k_</text>
</a>
</g>
</g>
<!-- Node2&#45;&gt;Node3 -->
<g id="edge2_Node000002_Node000003" class="edge">
<title>Node2&#45;&gt;Node3</title>
<g id="a_edge2_Node000002_Node000003"><a xlink:title=" ">
<path fill="none" stroke="#63b8ff" d="M416.21,-636.96C442.77,-631.81 475.75,-625.42 503.72,-619.99"/>
<polygon fill="#63b8ff" stroke="#63b8ff" points="504.62,-623.38 513.77,-618.04 503.29,-616.51 504.62,-623.38"/>
</a>
</g>
</g>
<!-- Node4&#45;&gt;Node3 -->
<g id="edge17_Node000004_Node000003" class="edge">
<title>Node4&#45;&gt;Node3</title>
<g id="a_edge17_Node000004_Node000003"><a xlink:title=" ">
<path fill="none" stroke="#63b8ff" d="M194.76,-428.37C210.21,-460.02 259.72,-557.99 289,-576.5 353.07,-616.99 442.63,-619.65 501.68,-615.78"/>
<polygon fill="#63b8ff" stroke="#63b8ff" points="502.26,-619.24 511.98,-615.02 501.75,-612.26 502.26,-619.24"/>
</a>
</g>
</g>
<!-- Node5 -->
<g id="Node000005" class="node">
<title>Node5</title>
<g id="a_Node000005"><a xlink:href="../../d6/d39/lmmpn_8h.html#a1eb04fffd70d523647b7b4ed64a438c5" target="_top" xlink:title="大数加法静态内联函数 [dst,na]=[numa,na]+[numb,nb]">
<polygon fill="white" stroke="#666666" points="778.5,-542 704.5,-542 704.5,-523 778.5,-523 778.5,-542"/>
<text text-anchor="middle" x="741.5" y="-530" font-family="Helvetica,sans-Serif" font-size="10.00">lmmp_add_</text>
</a>
</g>
</g>
<!-- Node4&#45;&gt;Node5 -->
<g id="edge4_Node000004_Node000005" class="edge">
<title>Node4&#45;&gt;Node5</title>
<g id="a_edge4_Node000004_Node000005"><a xlink:title=" ">
<path fill="none" stroke="#63b8ff" d="M210.42,-428.02C230.15,-436.85 261.05,-449.77 289,-457.5 434.05,-497.63 611.61,-519.43 694.18,-528.06"/>
<polygon fill="#63b8ff" stroke="#63b8ff" points="693.93,-531.56 704.24,-529.1 694.65,-524.59 693.93,-531.56"/>
</a>
</g>
</g>
<!-- Node7 -->
<g id="Node000007" class="node">
<title>Node7</title>
<g id="a_Node000007"><a xlink:href="../../d6/d39/lmmpn_8h.html#a344093e8760ed368490d9a527ea2c6e9" target="_top" xlink:title="大数加单精度数静态内联函数 [dst,na]=[numa,na]+x">
<polygon fill="white" stroke="#666666" points="784,-505 699,-505 699,-486 784,-486 784,-505"/>
<text text-anchor="middle" x="741.5" y="-493" font-family="Helvetica,sans-Serif" font-size="10.00">lmmp_add_1_</text>
</a>
</g>
</g>
<!-- Node4&#45;&gt;Node7 -->
<g id="edge6_Node000004_Node000007" class="edge">
<title>Node4&#45;&gt;Node7</title>
<g id="a_edge6_Node000004_Node000007"><a xlink:title=" ">
<path fill="none" stroke="#63b8ff" d="M252.03,-428.03C264.28,-429.88 277.04,-431.77 289,-433.5 433.71,-454.4 604.76,-477.43 688.72,-488.63"/>
<polygon fill="#63b8ff" stroke="#63b8ff" points="688.39,-492.11 698.77,-489.97 689.32,-485.18 688.39,-492.11"/>
</a>
</g>
</g>
<!-- Node8 -->
<g id="Node000008" class="node">
<title>Node8</title>
<g id="a_Node000008"><a xlink:href="../../db/dfa/mul__fft_8c.html#a48408af2d6418df0a0dddb77f1a689f7" target="_top" xlink:title=" ">
<polygon fill="white" stroke="#666666" points="597,-239 531,-239 531,-220 597,-220 597,-239"/>
<text text-anchor="middle" x="564" y="-227" font-family="Helvetica,sans-Serif" font-size="10.00">lmmp_fft_</text>
</a>
</g>
</g>
<!-- Node4&#45;&gt;Node8 -->
<g id="edge7_Node000004_Node000008" class="edge">
<title>Node4&#45;&gt;Node8</title>
<g id="a_edge7_Node000004_Node000008"><a xlink:title=" ">
<path fill="none" stroke="#63b8ff" d="M192.45,-408.88C200.47,-379.56 228.95,-291.05 289,-253.5 360.46,-208.81 463.64,-214.34 520.83,-222.08"/>
<polygon fill="#63b8ff" stroke="#63b8ff" points="520.55,-225.58 530.95,-223.54 521.55,-218.65 520.55,-225.58"/>
</a>
</g>
</g>
<!-- Node15 -->
<g id="Node000015" class="node">
<title>Node15</title>
<g id="a_Node000015"><a xlink:href="../../db/dfa/mul__fft_8c.html#ab86dddce92e755f642487e90ed84acd0" target="_top" xlink:title="[dst,lenw+1] = [(bit*)numa+bitoffset, bits]">
<polygon fill="white" stroke="#666666" points="630,-163 498,-163 498,-144 630,-144 630,-163"/>
<text text-anchor="middle" x="564" y="-151" font-family="Helvetica,sans-Serif" font-size="10.00">lmmp_fft_extract_coef_</text>
</a>
</g>
</g>
<!-- Node4&#45;&gt;Node15 -->
<g id="edge18_Node000004_Node000015" class="edge">
<title>Node4&#45;&gt;Node15</title>
<g id="a_edge18_Node000004_Node000015"><a xlink:title=" ">
<path fill="none" stroke="#63b8ff" d="M190.46,-408.81C192.85,-370.93 207.08,-232.06 289,-172.5 354.26,-125.05 452.96,-132.02 512.38,-142.21"/>
<polygon fill="#63b8ff" stroke="#63b8ff" points="511.82,-145.66 522.28,-144 513.06,-138.78 511.82,-145.66"/>
</a>
</g>
</g>
<!-- Node17 -->
<g id="Node000017" class="node">
<title>Node17</title>
<g id="a_Node000017"><a xlink:href="../../db/dfa/mul__fft_8c.html#a5ce52e4a7c8996c34d424460c197b393" target="_top" xlink:title="FFT内存栈的分配/释放接口">
<polygon fill="white" stroke="#666666" points="625.5,-580 502.5,-580 502.5,-561 625.5,-561 625.5,-580"/>
<text text-anchor="middle" x="564" y="-568" font-family="Helvetica,sans-Serif" font-size="10.00">lmmp_fft_memstack_</text>
</a>
</g>
</g>
<!-- Node4&#45;&gt;Node17 -->
<g id="edge20_Node000004_Node000017" class="edge">
<title>Node4&#45;&gt;Node17</title>
<g id="a_edge20_Node000004_Node000017"><a xlink:title=" ">
<path fill="none" stroke="#63b8ff" d="M194.04,-428.07C205.06,-452.78 238.21,-518.76 289,-546.5 351.46,-580.62 434.07,-583.14 492.2,-579.3"/>
<polygon fill="#63b8ff" stroke="#63b8ff" points="492.68,-582.77 502.39,-578.54 492.16,-575.79 492.68,-582.77"/>
</a>
</g>
</g>
<!-- Node23 -->
<g id="Node000023" class="node">
<title>Node23</title>
<g id="a_Node000023"><a xlink:href="../../db/dfa/mul__fft_8c.html#a06fb79c7196215e9f12f030d0e730906" target="_top" xlink:title="对模 2^n+1 的系数执行右移操作 右移shr位 = 左移(2n &#45; shr)位（mod 2^n+1的循环特性）">
<polygon fill="white" stroke="#666666" points="798,-429 685,-429 685,-410 798,-410 798,-429"/>
<text text-anchor="middle" x="741.5" y="-417" font-family="Helvetica,sans-Serif" font-size="10.00">lmmp_fft_shr_coef_</text>
</a>
</g>
</g>
<!-- Node4&#45;&gt;Node23 -->
<g id="edge26_Node000004_Node000023" class="edge">
<title>Node4&#45;&gt;Node23</title>
<g id="a_edge26_Node000004_Node000023"><a xlink:title=" ">
<path fill="none" stroke="#63b8ff" d="M253.15,-418.61C358.21,-418.81 567.87,-419.19 674.68,-419.38"/>
<polygon fill="#63b8ff" stroke="#63b8ff" points="674.68,-422.88 684.69,-419.4 674.69,-415.88 674.68,-422.88"/>
</a>
</g>
</g>
<!-- Node26 -->
<g id="Node000026" class="node">
<title>Node26</title>
<g id="a_Node000026"><a xlink:href="../../d1/d49/shl_8c.html#a6d5aca3454f13e3fcaedba3a15b03823" target="_top" xlink:title="大数左移操作 [dst,na] = [numa,na]&lt;&lt;shl，dst的低shl位填充0">
<polygon fill="white" stroke="#666666" points="1075,-391 1005,-391 1005,-372 1075,-372 1075,-391"/>
<text text-anchor="middle" x="1040" y="-379" font-family="Helvetica,sans-Serif" font-size="10.00">lmmp_shl_</text>
</a>
</g>
</g>
<!-- Node4&#45;&gt;Node26 -->
<g id="edge57_Node000004_Node000026" class="edge">
<title>Node4&#45;&gt;Node26</title>
<g id="a_edge57_Node000004_Node000026"><a xlink:title=" ">
<path fill="none" stroke="#63b8ff" d="M199.82,-408.99C216.69,-393.16 252.86,-361.38 289,-343.5 402.27,-287.46 436.62,-267.5 563,-267.5 563,-267.5 563,-267.5 742.5,-267.5 840.19,-267.5 871.76,-261.54 959,-305.5 986.79,-319.5 1011.52,-346.33 1025.88,-364.07"/>
<polygon fill="#63b8ff" stroke="#63b8ff" points="1023.15,-366.25 1032.07,-371.96 1028.65,-361.93 1023.15,-366.25"/>
</a>
</g>
</g>
<!-- Node28 -->
<g id="Node000028" class="node">
<title>Node28</title>
<g id="a_Node000028"><a xlink:href="../../db/dfa/mul__fft_8c.html#ab6e97b1ed8faf0ee601396f22ede83c7" target="_top" xlink:title=" ">
<polygon fill="white" stroke="#666666" points="598.5,-201 529.5,-201 529.5,-182 598.5,-182 598.5,-201"/>
<text text-anchor="middle" x="564" y="-189" font-family="Helvetica,sans-Serif" font-size="10.00">lmmp_ifft_</text>
</a>
</g>
</g>
<!-- Node4&#45;&gt;Node28 -->
<g id="edge31_Node000004_Node000028" class="edge">
<title>Node4&#45;&gt;Node28</title>
<g id="a_edge31_Node000004_Node000028"><a xlink:title=" ">
<path fill="none" stroke="#63b8ff" d="M191.34,-408.58C196.51,-374.52 218.57,-261.74 289,-213.5 358.09,-166.18 461.19,-173.39 519.22,-182.61"/>
<polygon fill="#63b8ff" stroke="#63b8ff" points="518.73,-186.08 529.17,-184.28 519.89,-179.18 518.73,-186.08"/>
</a>
</g>
</g>
<!-- Node33 -->
<g id="Node000033" class="node">
<title>Node33</title>
<g id="a_Node000033"><a xlink:href="../../db/dfa/mul__fft_8c.html#a3142a363cdd553a9a69ba6318c1b6726" target="_top" xlink:title="费马变换乘法递归函数（核心乘法逻辑）">
<polygon fill="white" stroke="#666666" points="443,-372 289,-372 289,-353 443,-353 443,-372"/>
<text text-anchor="middle" x="366" y="-360" font-family="Helvetica,sans-Serif" font-size="10.00">lmmp_mul_fermat_recurse_</text>
</a>
</g>
</g>
<!-- Node4&#45;&gt;Node33 -->
<g id="edge41_Node000004_Node000033" class="edge">
<title>Node4&#45;&gt;Node33</title>
<g id="a_edge41_Node000004_Node000033"><a xlink:title=" ">
<path fill="none" stroke="#63b8ff" d="M220.08,-408.87C249.18,-399.56 293.45,-385.4 325.4,-375.17"/>
<polygon fill="#63b8ff" stroke="#63b8ff" points="326.85,-378.38 335.31,-372 324.72,-371.72 326.85,-378.38"/>
</a>
</g>
</g>
<!-- Node6 -->
<g id="Node000006" class="node">
<title>Node6</title>
<g id="a_Node000006"><a xlink:href="../../da/dc7/add__n_8c.html#afa05758121cca6aa6b21256d5a959871" target="_top" xlink:title="无进位的n位加法 [dst,n] = [numa,n] + [numb,n]">
<polygon fill="white" stroke="#666666" points="939,-542 854,-542 854,-523 939,-523 939,-542"/>
<text text-anchor="middle" x="896.5" y="-530" font-family="Helvetica,sans-Serif" font-size="10.00">lmmp_add_n_</text>
</a>
</g>
</g>
<!-- Node5&#45;&gt;Node6 -->
<g id="edge5_Node000005_Node000006" class="edge">
<title>Node5&#45;&gt;Node6</title>
<g id="a_edge5_Node000005_Node000006"><a xlink:title=" ">
<path fill="none" stroke="#63b8ff" d="M778.76,-532.5C798.12,-532.5 822.3,-532.5 843.62,-532.5"/>
<polygon fill="#63b8ff" stroke="#63b8ff" points="843.82,-536 853.82,-532.5 843.82,-529 843.82,-536"/>
</a>
</g>
</g>
<!-- Node9 -->
<g id="Node000009" class="node">
<title>Node9</title>
<g id="a_Node000009"><a xlink:href="../../db/dfa/mul__fft_8c.html#aebf81a382d8bbc6a4455c2a24231cdae" target="_top" xlink:title=" ">
<polygon fill="white" stroke="#666666" points="780,-166 703,-166 703,-147 780,-147 780,-166"/>
<text text-anchor="middle" x="741.5" y="-154" font-family="Helvetica,sans-Serif" font-size="10.00">lmmp_fft_4_</text>
</a>
</g>
</g>
<!-- Node8&#45;&gt;Node9 -->
<g id="edge8_Node000008_Node000009" class="edge">
<title>Node8&#45;&gt;Node9</title>
<g id="a_edge8_Node000008_Node000009"><a xlink:title=" ">
<path fill="none" stroke="#63b8ff" d="M597.19,-224.12C613.11,-220.89 632.43,-216.11 649,-209.5 673.98,-199.54 700.33,-183.63 718.3,-171.84"/>
<polygon fill="#63b8ff" stroke="#63b8ff" points="720.52,-174.56 726.88,-166.1 716.63,-168.74 720.52,-174.56"/>
</a>
</g>
</g>
<!-- Node14 -->
<g id="Node000014" class="node">
<title>Node14</title>
<g id="a_Node000014"><a xlink:href="../../db/dfa/mul__fft_8c.html#ae87deedb27e07c640e7bc408a0c954bf" target="_top" xlink:title="FFT递归函数">
<polygon fill="white" stroke="#666666" points="783,-221 700,-221 700,-202 783,-202 783,-221"/>
<text text-anchor="middle" x="741.5" y="-209" font-family="Helvetica,sans-Serif" font-size="10.00">lmmp_fft_b1_</text>
</a>
</g>
</g>
<!-- Node8&#45;&gt;Node14 -->
<g id="edge14_Node000008_Node000014" class="edge">
<title>Node8&#45;&gt;Node14</title>
<g id="a_edge14_Node000008_Node000014"><a xlink:title=" ">
<path fill="none" stroke="#63b8ff" d="M597.19,-226.2C623.04,-223.55 659.81,-219.78 689.63,-216.72"/>
<polygon fill="#63b8ff" stroke="#63b8ff" points="690.27,-220.17 699.86,-215.67 689.56,-213.21 690.27,-220.17"/>
</a>
</g>
</g>
<!-- Node9&#45;&gt;Node9 -->
<g id="edge9_Node000009_Node000009" class="edge">
<title>Node9&#45;&gt;Node9</title>
<g id="a_edge9_Node000009_Node000009"><a xlink:title=" ">
<path fill="none" stroke="#63b8ff" d="M717.76,-166.08C706.22,-174.73 714.13,-184 741.5,-184 759.46,-184 769.04,-180.01 770.25,-174.82"/>
<polygon fill="#63b8ff" stroke="#63b8ff" points="773.25,-173.02 765.24,-166.08 767.17,-176.5 773.25,-173.02"/>
</a>
</g>
</g>
<!-- Node10 -->
<g id="Node000010" class="node">
<title>Node10</title>
<g id="a_Node000010"><a xlink:href="../../db/dfa/mul__fft_8c.html#aa7779e95f5780bfdd9a590bf3ec78d4b" target="_top" xlink:title="FFT蝶形运算（Butterfly Operation） (a,b) = (a + b, (a&#45;b) &lt;&lt; w ) mod 2^n+1 a=[coef[0],ms&#45;&gt;lenw+1],...">
<polygon fill="white" stroke="#666666" points="939.5,-166 853.5,-166 853.5,-147 939.5,-147 939.5,-166"/>
<text text-anchor="middle" x="896.5" y="-154" font-family="Helvetica,sans-Serif" font-size="10.00">lmmp_fft_bfy_</text>
</a>
</g>
</g>
<!-- Node9&#45;&gt;Node10 -->
<g id="edge10_Node000009_Node000010" class="edge">
<title>Node9&#45;&gt;Node10</title>
<g id="a_edge10_Node000009_Node000010"><a xlink:title=" ">
<path fill="none" stroke="#63b8ff" d="M780.32,-156.5C799.25,-156.5 822.46,-156.5 843.07,-156.5"/>
<polygon fill="#63b8ff" stroke="#63b8ff" points="843.26,-160 853.26,-156.5 843.26,-153 843.26,-160"/>
</a>
</g>
</g>
<!-- Node11 -->
<g id="Node000011" class="node">
<title>Node11</title>
<g id="a_Node000011"><a xlink:href="../../da/dc7/add__n_8c.html#aa06f92c7f9a675b88556524c8e09ecbd" target="_top" xlink:title="带进位的n位加法 [dst,n] = [numa,n] + [numb,n] + c">
<polygon fill="white" stroke="#666666" points="1085,-120 995,-120 995,-101 1085,-101 1085,-120"/>
<text text-anchor="middle" x="1040" y="-108" font-family="Helvetica,sans-Serif" font-size="10.00">lmmp_add_nc_</text>
</a>
</g>
</g>
<!-- Node10&#45;&gt;Node11 -->
<g id="edge11_Node000010_Node000011" class="edge">
<title>Node10&#45;&gt;Node11</title>
<g id="a_edge11_Node000010_Node000011"><a xlink:title=" ">
<path fill="none" stroke="#63b8ff" d="M926.82,-146.97C948.07,-140.06 977.02,-130.65 1000.18,-123.12"/>
<polygon fill="#63b8ff" stroke="#63b8ff" points="1001.29,-126.44 1009.72,-120.02 999.13,-119.78 1001.29,-126.44"/>
</a>
</g>
</g>
<!-- Node12 -->
<g id="Node000012" class="node">
<title>Node12</title>
<g id="a_Node000012"><a xlink:href="../../d1/d49/shl_8c.html#a38dbc610a5ef592b21e4f79bbf29181d" target="_top" xlink:title="带进位的大数左移操作 [dst,na] = [numa,na]&lt;&lt;shl，dst的低shl位填充c的低shl位">
<polygon fill="white" stroke="#666666" points="1080,-194 1000,-194 1000,-175 1080,-175 1080,-194"/>
<text text-anchor="middle" x="1040" y="-182" font-family="Helvetica,sans-Serif" font-size="10.00">lmmp_shl_c_</text>
</a>
</g>
</g>
<!-- Node10&#45;&gt;Node12 -->
<g id="edge12_Node000010_Node000012" class="edge">
<title>Node10&#45;&gt;Node12</title>
<g id="a_edge12_Node000010_Node000012"><a xlink:title=" ">
<path fill="none" stroke="#63b8ff" d="M939.57,-164.83C955.36,-167.95 973.44,-171.53 989.81,-174.77"/>
<polygon fill="#63b8ff" stroke="#63b8ff" points="989.26,-178.23 999.75,-176.73 990.62,-171.36 989.26,-178.23"/>
</a>
</g>
</g>
<!-- Node13 -->
<g id="Node000013" class="node">
<title>Node13</title>
<g id="a_Node000013"><a xlink:href="../../d3/d44/sub__n_8c.html#af53a20c46d5cd5ee5f6a599b04aec190" target="_top" xlink:title="带借位的n位减法 [dst,n] = [numa,n] &#45; [numb,n] &#45; c">
<polygon fill="white" stroke="#666666" points="1084.5,-157 995.5,-157 995.5,-138 1084.5,-138 1084.5,-157"/>
<text text-anchor="middle" x="1040" y="-145" font-family="Helvetica,sans-Serif" font-size="10.00">lmmp_sub_nc_</text>
</a>
</g>
</g>
<!-- Node10&#45;&gt;Node13 -->
<g id="edge13_Node000010_Node000013" class="edge">
<title>Node10&#45;&gt;Node13</title>
<g id="a_edge13_Node000010_Node000013"><a xlink:title=" ">
<path fill="none" stroke="#63b8ff" d="M939.57,-153.82C953.87,-152.91 970.05,-151.89 985.14,-150.93"/>
<polygon fill="#63b8ff" stroke="#63b8ff" points="985.62,-154.4 995.37,-150.27 985.17,-147.42 985.62,-154.4"/>
</a>
</g>
</g>
<!-- Node14&#45;&gt;Node10 -->
<g id="edge16_Node000014_Node000010" class="edge">
<title>Node14&#45;&gt;Node10</title>
<g id="a_edge16_Node000014_Node000010"><a xlink:title=" ">
<path fill="none" stroke="#63b8ff" d="M770.78,-201.96C779.52,-198.98 789.17,-195.64 798,-192.5 818.75,-185.12 841.88,-176.59 860.4,-169.69"/>
<polygon fill="#63b8ff" stroke="#63b8ff" points="861.76,-172.92 869.9,-166.14 859.31,-166.36 861.76,-172.92"/>
</a>
</g>
</g>
<!-- Node14&#45;&gt;Node14 -->
<g id="edge15_Node000014_Node000014" class="edge">
<title>Node14&#45;&gt;Node14</title>
<g id="a_edge15_Node000014_Node000014"><a xlink:title=" ">
<path fill="none" stroke="#63b8ff" d="M717.76,-221.08C706.22,-229.73 714.13,-239 741.5,-239 759.46,-239 769.04,-235.01 770.25,-229.82"/>
<polygon fill="#63b8ff" stroke="#63b8ff" points="773.25,-228.02 765.24,-221.08 767.17,-231.5 773.25,-228.02"/>
</a>
</g>
</g>
<!-- Node16 -->
<g id="Node000016" class="node">
<title>Node16</title>
<g id="a_Node000016"><a xlink:href="../../de/d50/shr_8c.html#a5a6e9b6e715cedac419406deab5b44bb" target="_top" xlink:title="大数右移操作 [dst,na] = [numa,na]&gt;&gt;shr，dst的高shr位填充0">
<polygon fill="white" stroke="#666666" points="777,-19 706,-19 706,0 777,0 777,-19"/>
<text text-anchor="middle" x="741.5" y="-7" font-family="Helvetica,sans-Serif" font-size="10.00">lmmp_shr_</text>
</a>
</g>
</g>
<!-- Node15&#45;&gt;Node16 -->
<g id="edge19_Node000015_Node000016" class="edge">
<title>Node15&#45;&gt;Node16</title>
<g id="a_edge19_Node000015_Node000016"><a xlink:title=" ">
<path fill="none" stroke="#63b8ff" d="M571.63,-143.73C588.05,-120.25 633.1,-60.16 685,-27.5 688.57,-25.25 692.44,-23.26 696.43,-21.5"/>
<polygon fill="#63b8ff" stroke="#63b8ff" points="697.82,-24.72 705.85,-17.8 695.26,-18.2 697.82,-24.72"/>
</a>
</g>
</g>
<!-- Node18 -->
<g id="Node000018" class="node">
<title>Node18</title>
<g id="a_Node000018"><a xlink:href="../../df/dd5/memory_8c.html#a70ee66fd54cf1444186464c5dc05caf3" target="_top" xlink:title="内存分配函数（调用lmmp_heap_alloc_fn）">
<polygon fill="white" stroke="#666666" points="778.5,-579 704.5,-579 704.5,-560 778.5,-560 778.5,-579"/>
<text text-anchor="middle" x="741.5" y="-567" font-family="Helvetica,sans-Serif" font-size="10.00">lmmp_alloc</text>
</a>
</g>
</g>
<!-- Node17&#45;&gt;Node18 -->
<g id="edge21_Node000017_Node000018" class="edge">
<title>Node17&#45;&gt;Node18</title>
<g id="a_edge21_Node000017_Node000018"><a xlink:title=" ">
<path fill="none" stroke="#63b8ff" d="M625.89,-570.15C648.25,-570.03 673.18,-569.88 694.07,-569.76"/>
<polygon fill="#63b8ff" stroke="#63b8ff" points="694.3,-573.26 704.28,-569.71 694.26,-566.26 694.3,-573.26"/>
</a>
</g>
</g>
<!-- Node22 -->
<g id="Node000022" class="node">
<title>Node22</title>
<g id="a_Node000022"><a xlink:href="../../df/dd5/memory_8c.html#a9addf0b27643f70bce967ca4ef842ae9" target="_top" xlink:title="内存释放函数（调用lmmp_heap_free_fn）">
<polygon fill="white" stroke="#666666" points="776.5,-616 706.5,-616 706.5,-597 776.5,-597 776.5,-616"/>
<text text-anchor="middle" x="741.5" y="-604" font-family="Helvetica,sans-Serif" font-size="10.00">lmmp_free</text>
</a>
</g>
</g>
<!-- Node17&#45;&gt;Node22 -->
<g id="edge25_Node000017_Node000022" class="edge">
<title>Node17&#45;&gt;Node22</title>
<g id="a_edge25_Node000017_Node000022"><a xlink:title=" ">
<path fill="none" stroke="#63b8ff" d="M611.57,-580.05C637.84,-585.44 670.47,-592.13 696.33,-597.44"/>
<polygon fill="#63b8ff" stroke="#63b8ff" points="695.75,-600.89 706.24,-599.47 697.15,-594.04 695.75,-600.89"/>
</a>
</g>
</g>
<!-- Node19 -->
<g id="Node000019" class="node">
<title>Node19</title>
<g id="a_Node000019"><a xlink:href="../../df/dd5/memory_8c.html#af02754e1eb2ea2812eb3a7b35f05e640" target="_top" xlink:title=" ">
<polygon fill="white" stroke="#666666" points="959,-579 834,-579 834,-560 959,-560 959,-579"/>
<text text-anchor="middle" x="896.5" y="-567" font-family="Helvetica,sans-Serif" font-size="10.00">lmmp_chech_memory</text>
</a>
</g>
</g>
<!-- Node18&#45;&gt;Node19 -->
<g id="edge22_Node000018_Node000019" class="edge">
<title>Node18&#45;&gt;Node19</title>
<g id="a_edge22_Node000018_Node000019"><a xlink:title=" ">
<path fill="none" stroke="#63b8ff" d="M778.76,-569.5C792.24,-569.5 808.06,-569.5 823.62,-569.5"/>
<polygon fill="#63b8ff" stroke="#63b8ff" points="823.78,-573 833.78,-569.5 823.78,-566 823.78,-573"/>
</a>
</g>
</g>
<!-- Node20 -->
<g id="Node000020" class="node">
<title>Node20</title>
<g id="a_Node000020"><a xlink:href="../../da/d52/abort_8c.html#a8967c29c5f5ea6c7ce14e2baac50b72f" target="_top" xlink:title="LAMMP 全局退出函数，内部错误或断言失败时调用，若设置了全局退出函数，则会调用该函数，否则会调用默认的退出函数。">
<polygon fill="white" stroke="#666666" points="1078,-579 1002,-579 1002,-560 1078,-560 1078,-579"/>
<text text-anchor="middle" x="1040" y="-567" font-family="Helvetica,sans-Serif" font-size="10.00">lmmp_abort</text>
</a>
</g>
</g>
<!-- Node19&#45;&gt;Node20 -->
<g id="edge23_Node000019_Node000020" class="edge">
<title>Node19&#45;&gt;Node20</title>
<g id="a_edge23_Node000019_Node000020"><a xlink:title=" ">
<path fill="none" stroke="#63b8ff" d="M959.15,-569.5C970.1,-569.5 981.34,-569.5 991.81,-569.5"/>
<polygon fill="#63b8ff" stroke="#63b8ff" points="991.98,-573 1001.98,-569.5 991.98,-566 991.98,-573"/>
</a>
</g>
</g>
<!-- Node21 -->
<g id="Node000021" class="node">
<title>Node21</title>
<g id="a_Node000021"><a xlink:href="../../da/d52/abort_8c.html#a11701246f0be69a35468c33d1a136abc" target="_top" xlink:title=" ">
<polygon fill="white" stroke="#666666" points="1192,-579 1121,-579 1121,-560 1192,-560 1192,-579"/>
<text text-anchor="middle" x="1156.5" y="-567" font-family="Helvetica,sans-Serif" font-size="10.00">type_to_str</text>
</a>
</g>
</g>
<!-- Node20&#45;&gt;Node21 -->
<g id="edge24_Node000020_Node000021" class="edge">
<title>Node20&#45;&gt;Node21</title>
<g id="a_edge24_Node000020_Node000021"><a xlink:title=" ">
<path fill="none" stroke="#63b8ff" d="M1078.17,-569.5C1088.57,-569.5 1099.97,-569.5 1110.75,-569.5"/>
<polygon fill="#63b8ff" stroke="#63b8ff" points="1110.84,-573 1120.84,-569.5 1110.84,-566 1110.84,-573"/>
</a>
</g>
</g>
<!-- Node24 -->
<g id="Node000024" class="node">
<title>Node24</title>
<g id="a_Node000024"><a xlink:href="../../db/dfa/mul__fft_8c.html#a6157b12f018658620a268327ec505083" target="_top" xlink:title="对模 2^n+1 的系数执行左移操作">
<polygon fill="white" stroke="#666666" points="952.5,-429 840.5,-429 840.5,-410 952.5,-410 952.5,-429"/>
<text text-anchor="middle" x="896.5" y="-417" font-family="Helvetica,sans-Serif" font-size="10.00">lmmp_fft_shl_coef_</text>
</a>
</g>
</g>
<!-- Node23&#45;&gt;Node24 -->
<g id="edge27_Node000023_Node000024" class="edge">
<title>Node23&#45;&gt;Node24</title>
<g id="a_edge27_Node000023_Node000024"><a xlink:title=" ">
<path fill="none" stroke="#63b8ff" d="M798.17,-419.5C808.59,-419.5 819.58,-419.5 830.26,-419.5"/>
<polygon fill="#63b8ff" stroke="#63b8ff" points="830.38,-423 840.38,-419.5 830.38,-416 830.38,-423"/>
</a>
</g>
</g>
<!-- Node25 -->
<g id="Node000025" class="node">
<title>Node25</title>
<g id="a_Node000025"><a xlink:href="../../d6/d39/lmmpn_8h.html#adfce4345fbfcf25e2861add91f6d2c53" target="_top" xlink:title="大数按位取反操作 [dst,na] = ~[numa,na] (对每个limb执行按位非操作)">
<polygon fill="white" stroke="#666666" points="1075.5,-465 1004.5,-465 1004.5,-446 1075.5,-446 1075.5,-465"/>
<text text-anchor="middle" x="1040" y="-453" font-family="Helvetica,sans-Serif" font-size="10.00">lmmp_not_</text>
</a>
</g>
</g>
<!-- Node24&#45;&gt;Node25 -->
<g id="edge28_Node000024_Node000025" class="edge">
<title>Node24&#45;&gt;Node25</title>
<g id="a_edge28_Node000024_Node000025"><a xlink:title=" ">
<path fill="none" stroke="#63b8ff" d="M935.05,-429.05C953.23,-433.68 975.2,-439.27 994.25,-444.11"/>
<polygon fill="#63b8ff" stroke="#63b8ff" points="993.64,-447.57 1004.19,-446.64 995.37,-440.79 993.64,-447.57"/>
</a>
</g>
</g>
<!-- Node24&#45;&gt;Node26 -->
<g id="edge29_Node000024_Node000026" class="edge">
<title>Node24&#45;&gt;Node26</title>
<g id="a_edge29_Node000024_Node000026"><a xlink:title=" ">
<path fill="none" stroke="#63b8ff" d="M933.21,-409.91C951.98,-404.87 975.15,-398.65 995.02,-393.31"/>
<polygon fill="#63b8ff" stroke="#63b8ff" points="996.02,-396.67 1004.77,-390.69 994.2,-389.91 996.02,-396.67"/>
</a>
</g>
</g>
<!-- Node27 -->
<g id="Node000027" class="node">
<title>Node27</title>
<g id="a_Node000027"><a xlink:href="../../d6/d39/lmmpn_8h.html#a039adbf1c47f184d7fedb63b094d279c" target="_top" xlink:title="左移后按位取反操作 [dst,na] = ~([numa,na] &lt;&lt; shl)，dst的低shl位填充1">
<polygon fill="white" stroke="#666666" points="1083,-428 997,-428 997,-409 1083,-409 1083,-428"/>
<text text-anchor="middle" x="1040" y="-416" font-family="Helvetica,sans-Serif" font-size="10.00">lmmp_shlnot_</text>
</a>
</g>
</g>
<!-- Node24&#45;&gt;Node27 -->
<g id="edge30_Node000024_Node000027" class="edge">
<title>Node24&#45;&gt;Node27</title>
<g id="a_edge30_Node000024_Node000027"><a xlink:title=" ">
<path fill="none" stroke="#63b8ff" d="M952.61,-419.11C963.9,-419.03 975.75,-418.95 986.93,-418.87"/>
<polygon fill="#63b8ff" stroke="#63b8ff" points="986.99,-422.37 996.97,-418.8 986.94,-415.37 986.99,-422.37"/>
</a>
</g>
</g>
<!-- Node29 -->
<g id="Node000029" class="node">
<title>Node29</title>
<g id="a_Node000029"><a xlink:href="../../db/dfa/mul__fft_8c.html#aa2ffc110bd3efbe452be4fbae82e5f26" target="_top" xlink:title=" ">
<polygon fill="white" stroke="#666666" points="781.5,-111 701.5,-111 701.5,-92 781.5,-92 781.5,-111"/>
<text text-anchor="middle" x="741.5" y="-99" font-family="Helvetica,sans-Serif" font-size="10.00">lmmp_ifft_4_</text>
</a>
</g>
</g>
<!-- Node28&#45;&gt;Node29 -->
<g id="edge32_Node000028_Node000029" class="edge">
<title>Node28&#45;&gt;Node29</title>
<g id="a_edge32_Node000028_Node000029"><a xlink:title=" ">
<path fill="none" stroke="#63b8ff" d="M598.75,-187.59C614.7,-184.73 633.57,-179.84 649,-171.5 668.36,-161.04 667.7,-151.1 685,-137.5 694.54,-130 705.66,-122.56 715.43,-116.41"/>
<polygon fill="#63b8ff" stroke="#63b8ff" points="717.27,-119.38 723.94,-111.15 713.59,-113.43 717.27,-119.38"/>
</a>
</g>
</g>
<!-- Node32 -->
<g id="Node000032" class="node">
<title>Node32</title>
<g id="a_Node000032"><a xlink:href="../../db/dfa/mul__fft_8c.html#a82bdabf7a8985648e73ed992959403a9" target="_top" xlink:title=" ">
<polygon fill="white" stroke="#666666" points="784.5,-56 698.5,-56 698.5,-37 784.5,-37 784.5,-56"/>
<text text-anchor="middle" x="741.5" y="-44" font-family="Helvetica,sans-Serif" font-size="10.00">lmmp_ifft_b1_</text>
</a>
</g>
</g>
<!-- Node28&#45;&gt;Node32 -->
<g id="edge38_Node000028_Node000032" class="edge">
<title>Node28&#45;&gt;Node32</title>
<g id="a_edge38_Node000028_Node000032"><a xlink:title=" ">
<path fill="none" stroke="#63b8ff" d="M598.55,-190.6C615.4,-188.52 635.13,-183.42 649,-171.5 681.36,-143.68 657.84,-115.41 685,-82.5 691.96,-74.06 701.43,-66.92 710.57,-61.28"/>
<polygon fill="#63b8ff" stroke="#63b8ff" points="712.57,-64.16 719.5,-56.14 709.08,-58.09 712.57,-64.16"/>
</a>
</g>
</g>
<!-- Node29&#45;&gt;Node29 -->
<g id="edge33_Node000029_Node000029" class="edge">
<title>Node29&#45;&gt;Node29</title>
<g id="a_edge33_Node000029_Node000029"><a xlink:title=" ">
<path fill="none" stroke="#63b8ff" d="M717.76,-111.08C706.22,-119.73 714.13,-129 741.5,-129 759.46,-129 769.04,-125.01 770.25,-119.82"/>
<polygon fill="#63b8ff" stroke="#63b8ff" points="773.25,-118.02 765.24,-111.08 767.17,-121.5 773.25,-118.02"/>
</a>
</g>
</g>
<!-- Node30 -->
<g id="Node000030" class="node">
<title>Node30</title>
<g id="a_Node000030"><a xlink:href="../../db/dfa/mul__fft_8c.html#a36d81ef9448da2d3f7d7afdea2e76641" target="_top" xlink:title="FFT蝶形运算（Butterfly Operation） (a,b) = (a+(b&gt;&gt;w), a&#45;(b&gt;&gt;w)) mod 2^n+1 a=[coef[0],ms&#45;&gt;lenw+1],...">
<polygon fill="white" stroke="#666666" points="941,-111 852,-111 852,-92 941,-92 941,-111"/>
<text text-anchor="middle" x="896.5" y="-99" font-family="Helvetica,sans-Serif" font-size="10.00">lmmp_ifft_bfy_</text>
</a>
</g>
</g>
<!-- Node29&#45;&gt;Node30 -->
<g id="edge34_Node000029_Node000030" class="edge">
<title>Node29&#45;&gt;Node30</title>
<g id="a_edge34_Node000029_Node000030"><a xlink:title=" ">
<path fill="none" stroke="#63b8ff" d="M781.5,-101.5C799.82,-101.5 821.96,-101.5 841.83,-101.5"/>
<polygon fill="#63b8ff" stroke="#63b8ff" points="841.98,-105 851.98,-101.5 841.98,-98 841.98,-105"/>
</a>
</g>
</g>
<!-- Node30&#45;&gt;Node11 -->
<g id="edge35_Node000030_Node000011" class="edge">
<title>Node30&#45;&gt;Node11</title>
<g id="a_edge35_Node000030_Node000011"><a xlink:title=" ">
<path fill="none" stroke="#63b8ff" d="M941.11,-104.27C954.83,-105.15 970.16,-106.12 984.54,-107.04"/>
<polygon fill="#63b8ff" stroke="#63b8ff" points="984.6,-110.55 994.8,-107.69 985.05,-103.56 984.6,-110.55"/>
</a>
</g>
</g>
<!-- Node30&#45;&gt;Node13 -->
<g id="edge37_Node000030_Node000013" class="edge">
<title>Node30&#45;&gt;Node13</title>
<g id="a_edge37_Node000030_Node000013"><a xlink:title=" ">
<path fill="none" stroke="#63b8ff" d="M926.82,-111.03C948.07,-117.94 977.02,-127.35 1000.18,-134.88"/>
<polygon fill="#63b8ff" stroke="#63b8ff" points="999.13,-138.22 1009.72,-137.98 1001.29,-131.56 999.13,-138.22"/>
</a>
</g>
</g>
<!-- Node31 -->
<g id="Node000031" class="node">
<title>Node31</title>
<g id="a_Node000031"><a xlink:href="../../de/d50/shr_8c.html#a234ed4a1e0108443f3f951979dc8d51e" target="_top" xlink:title="带进位的大数右移操作 [dst,na] = [numa,na]&gt;&gt;shr，dst的高shr位填充c的高shr位">
<polygon fill="white" stroke="#666666" points="1080.5,-83 999.5,-83 999.5,-64 1080.5,-64 1080.5,-83"/>
<text text-anchor="middle" x="1040" y="-71" font-family="Helvetica,sans-Serif" font-size="10.00">lmmp_shr_c_</text>
</a>
</g>
</g>
<!-- Node30&#45;&gt;Node31 -->
<g id="edge36_Node000030_Node000031" class="edge">
<title>Node30&#45;&gt;Node31</title>
<g id="a_edge36_Node000030_Node000031"><a xlink:title=" ">
<path fill="none" stroke="#63b8ff" d="M941.11,-92.87C956.3,-89.87 973.45,-86.47 989.11,-83.37"/>
<polygon fill="#63b8ff" stroke="#63b8ff" points="990.02,-86.76 999.15,-81.39 988.66,-79.89 990.02,-86.76"/>
</a>
</g>
</g>
<!-- Node32&#45;&gt;Node30 -->
<g id="edge40_Node000032_Node000030" class="edge">
<title>Node32&#45;&gt;Node30</title>
<g id="a_edge40_Node000032_Node000030"><a xlink:title=" ">
<path fill="none" stroke="#63b8ff" d="M769.15,-56.08C794.08,-65.04 831.53,-78.51 859.19,-88.45"/>
<polygon fill="#63b8ff" stroke="#63b8ff" points="858.3,-91.85 868.9,-91.94 860.67,-85.26 858.3,-91.85"/>
</a>
</g>
</g>
<!-- Node32&#45;&gt;Node32 -->
<g id="edge39_Node000032_Node000032" class="edge">
<title>Node32&#45;&gt;Node32</title>
<g id="a_edge39_Node000032_Node000032"><a xlink:title=" ">
<path fill="none" stroke="#63b8ff" d="M717.76,-56.08C706.22,-64.73 714.13,-74 741.5,-74 759.46,-74 769.04,-70.01 770.25,-64.82"/>
<polygon fill="#63b8ff" stroke="#63b8ff" points="773.25,-63.02 765.24,-56.08 767.17,-66.5 773.25,-63.02"/>
</a>
</g>
</g>
<!-- Node33&#45;&gt;Node3 -->
<g id="edge43_Node000033_Node000003" class="edge">
<title>Node33&#45;&gt;Node3</title>
<g id="a_edge43_Node000033_Node000003"><a xlink:title=" ">
<path fill="none" stroke="#63b8ff" d="M368.7,-372.1C375.44,-407.28 403.76,-530.2 479,-589.5 485.75,-594.82 493.71,-598.71 501.99,-601.54"/>
<polygon fill="#63b8ff" stroke="#63b8ff" points="501.22,-604.97 511.8,-604.41 503.18,-598.25 501.22,-604.97"/>
</a>
</g>
</g>
<!-- Node33&#45;&gt;Node8 -->
<g id="edge42_Node000033_Node000008" class="edge">
<title>Node33&#45;&gt;Node8</title>
<g id="a_edge42_Node000033_Node000008"><a xlink:title=" ">
<path fill="none" stroke="#63b8ff" d="M381.1,-352.93C414.63,-330.18 499.43,-272.64 540.29,-244.91"/>
<polygon fill="#63b8ff" stroke="#63b8ff" points="542.46,-247.67 548.77,-239.16 538.53,-241.88 542.46,-247.67"/>
</a>
</g>
</g>
<!-- Node33&#45;&gt;Node15 -->
<g id="edge44_Node000033_Node000015" class="edge">
<title>Node33&#45;&gt;Node15</title>
<g id="a_edge44_Node000033_Node000015"><a xlink:title=" ">
<path fill="none" stroke="#63b8ff" d="M369.71,-352.74C379.01,-321.12 412.8,-220.8 479,-172.5 482.02,-170.3 485.24,-168.35 488.61,-166.62"/>
<polygon fill="#63b8ff" stroke="#63b8ff" points="490.09,-169.79 497.81,-162.53 487.25,-163.39 490.09,-169.79"/>
</a>
</g>
</g>
<!-- Node33&#45;&gt;Node17 -->
<g id="edge45_Node000033_Node000017" class="edge">
<title>Node33&#45;&gt;Node17</title>
<g id="a_edge45_Node000033_Node000017"><a xlink:title=" ">
<path fill="none" stroke="#63b8ff" d="M376.19,-372.25C406.98,-404.93 506.81,-510.87 546.5,-552.99"/>
<polygon fill="#63b8ff" stroke="#63b8ff" points="544.2,-555.65 553.6,-560.53 549.29,-550.85 544.2,-555.65"/>
</a>
</g>
</g>
<!-- Node33&#45;&gt;Node24 -->
<g id="edge46_Node000033_Node000024" class="edge">
<title>Node33&#45;&gt;Node24</title>
<g id="a_edge46_Node000033_Node000024"><a xlink:title=" ">
<path fill="none" stroke="#63b8ff" d="M393.89,-372.14C416.42,-379.98 449.52,-390.93 479,-398.5 617.4,-434.04 655.77,-452.23 798,-438.5 813.77,-436.98 830.78,-434.1 846.11,-431.04"/>
<polygon fill="#63b8ff" stroke="#63b8ff" points="846.82,-434.46 855.91,-429.01 845.4,-427.61 846.82,-434.46"/>
</a>
</g>
</g>
<!-- Node33&#45;&gt;Node28 -->
<g id="edge47_Node000033_Node000028" class="edge">
<title>Node33&#45;&gt;Node28</title>
<g id="a_edge47_Node000033_Node000028"><a xlink:title=" ">
<path fill="none" stroke="#63b8ff" d="M371.14,-352.8C383.3,-325.58 421.66,-247.99 479,-210.5 490.87,-202.74 505.47,-198.12 519.15,-195.38"/>
<polygon fill="#63b8ff" stroke="#63b8ff" points="520.11,-198.77 529.37,-193.63 518.92,-191.87 520.11,-198.77"/>
</a>
</g>
</g>
<!-- Node33&#45;&gt;Node33 -->
<g id="edge55_Node000033_Node000033" class="edge">
<title>Node33&#45;&gt;Node33</title>
<g id="a_edge55_Node000033_Node000033"><a xlink:title=" ">
<path fill="none" stroke="#63b8ff" d="M338.87,-372.08C325.68,-380.73 334.72,-390 366,-390 387.02,-390 398,-385.82 398.93,-380.45"/>
<polygon fill="#63b8ff" stroke="#63b8ff" points="401.7,-378.3 393.13,-372.08 395.95,-382.29 401.7,-378.3"/>
</a>
</g>
</g>
<!-- Node34 -->
<g id="Node000034" class="node">
<title>Node34</title>
<g id="a_Node000034"><a xlink:href="../../db/dfa/mul__fft_8c.html#a784cb29d6f67382fb1100584e5db6698" target="_top" xlink:title="费马变换 模 B^n+1 乘法的结果合并">
<polygon fill="white" stroke="#666666" points="649,-390 479,-390 479,-371 649,-371 649,-390"/>
<text text-anchor="middle" x="564" y="-378" font-family="Helvetica,sans-Serif" font-size="10.00">lmmp_mul_fermat_recombine_</text>
</a>
</g>
</g>
<!-- Node33&#45;&gt;Node34 -->
<g id="edge48_Node000033_Node000034" class="edge">
<title>Node33&#45;&gt;Node34</title>
<g id="a_edge48_Node000033_Node000034"><a xlink:title=" ">
<path fill="none" stroke="#63b8ff" d="M443.06,-369.49C451.49,-370.26 460.15,-371.05 468.77,-371.85"/>
<polygon fill="#63b8ff" stroke="#63b8ff" points="468.57,-375.34 478.85,-372.77 469.21,-368.37 468.57,-375.34"/>
</a>
</g>
</g>
<!-- Node36 -->
<g id="Node000036" class="node">
<title>Node36</title>
<g id="a_Node000036"><a xlink:href="../../d3/d44/sub__n_8c.html#ae0e05032a43c35021a6d6859ed51f467" target="_top" xlink:title="无借位的n位减法 [dst,n] = [numa,n] &#45; [numb,n]">
<polygon fill="white" stroke="#666666" points="938.5,-334 854.5,-334 854.5,-315 938.5,-315 938.5,-334"/>
<text text-anchor="middle" x="896.5" y="-322" font-family="Helvetica,sans-Serif" font-size="10.00">lmmp_sub_n_</text>
</a>
</g>
</g>
<!-- Node33&#45;&gt;Node36 -->
<g id="edge56_Node000033_Node000036" class="edge">
<title>Node33&#45;&gt;Node36</title>
<g id="a_edge56_Node000033_Node000036"><a xlink:title=" ">
<path fill="none" stroke="#63b8ff" d="M428.36,-352.97C492.26,-343.56 595.36,-329.84 685,-324.5 739.26,-321.27 801.53,-321.79 844.18,-322.8"/>
<polygon fill="#63b8ff" stroke="#63b8ff" points="844.23,-326.3 854.32,-323.06 844.41,-319.3 844.23,-326.3"/>
</a>
</g>
</g>
<!-- Node34&#45;&gt;Node5 -->
<g id="edge49_Node000034_Node000005" class="edge">
<title>Node34&#45;&gt;Node5</title>
<g id="a_edge49_Node000034_Node000005"><a xlink:title=" ">
<path fill="none" stroke="#63b8ff" d="M571,-390.18C586.67,-414.66 631.35,-479.57 685,-514.5 688.11,-516.53 691.47,-518.34 694.94,-519.96"/>
<polygon fill="#63b8ff" stroke="#63b8ff" points="693.72,-523.24 704.3,-523.82 696.39,-516.77 693.72,-523.24"/>
</a>
</g>
</g>
<!-- Node34&#45;&gt;Node7 -->
<g id="edge50_Node000034_Node000007" class="edge">
<title>Node34&#45;&gt;Node7</title>
<g id="a_edge50_Node000034_Node000007"><a xlink:title=" ">
<path fill="none" stroke="#63b8ff" d="M579.66,-390.11C610.04,-410.01 680.09,-455.91 716.91,-480.04"/>
<polygon fill="#63b8ff" stroke="#63b8ff" points="715.23,-483.12 725.51,-485.68 719.06,-477.27 715.23,-483.12"/>
</a>
</g>
</g>
<!-- Node34&#45;&gt;Node23 -->
<g id="edge51_Node000034_Node000023" class="edge">
<title>Node34&#45;&gt;Node23</title>
<g id="a_edge51_Node000034_Node000023"><a xlink:title=" ">
<path fill="none" stroke="#63b8ff" d="M607.93,-390.04C632.03,-395.4 662.29,-402.12 687.82,-407.79"/>
<polygon fill="#63b8ff" stroke="#63b8ff" points="687.19,-411.24 697.71,-409.99 688.7,-404.4 687.19,-411.24"/>
</a>
</g>
</g>
<!-- Node34&#45;&gt;Node26 -->
<g id="edge52_Node000034_Node000026" class="edge">
<title>Node34&#45;&gt;Node26</title>
<g id="a_edge52_Node000034_Node000026"><a xlink:title=" ">
<path fill="none" stroke="#63b8ff" d="M649.2,-380.68C750.27,-380.89 915.99,-381.24 994.75,-381.41"/>
<polygon fill="#63b8ff" stroke="#63b8ff" points="994.82,-384.91 1004.82,-381.43 994.83,-377.91 994.82,-384.91"/>
</a>
</g>
</g>
<!-- Node35 -->
<g id="Node000035" class="node">
<title>Node35</title>
<g id="a_Node000035"><a xlink:href="../../d6/d39/lmmpn_8h.html#ab6382940233ad6954ef892141066bc8a" target="_top" xlink:title="大数减法静态内联函数 [dst,na]=[numa,na]&#45;[numb,nb]">
<polygon fill="white" stroke="#666666" points="778,-353 705,-353 705,-334 778,-334 778,-353"/>
<text text-anchor="middle" x="741.5" y="-341" font-family="Helvetica,sans-Serif" font-size="10.00">lmmp_sub_</text>
</a>
</g>
</g>
<!-- Node34&#45;&gt;Node35 -->
<g id="edge53_Node000034_Node000035" class="edge">
<title>Node34&#45;&gt;Node35</title>
<g id="a_edge53_Node000034_Node000035"><a xlink:title=" ">
<path fill="none" stroke="#63b8ff" d="M610.2,-370.97C636.2,-365.49 668.78,-358.62 694.85,-353.12"/>
<polygon fill="#63b8ff" stroke="#63b8ff" points="695.8,-356.5 704.86,-351.01 694.36,-349.65 695.8,-356.5"/>
</a>
</g>
</g>
<!-- Node35&#45;&gt;Node36 -->
<g id="edge54_Node000035_Node000036" class="edge">
<title>Node35&#45;&gt;Node36</title>
<g id="a_edge54_Node000035_Node000036"><a xlink:title=" ">
<path fill="none" stroke="#63b8ff" d="M778.37,-339.05C798.04,-336.6 822.77,-333.53 844.42,-330.84"/>
<polygon fill="#63b8ff" stroke="#63b8ff" points="844.95,-334.3 854.45,-329.6 844.09,-327.36 844.95,-334.3"/>
</a>
</g>
</g>
</g>
</svg>

<g id="navigator" transform="translate(0 0)" fill="#404254">
  <rect fill="#f2f5e9" fill-opacity="0.5" stroke="#606060" stroke-width=".5" x="0" y="0" width="60" height="60"/>
  <use id="zoomplus" xlink:href="#zoomPlus" x="17" y="9" onmousedown="handleZoom(evt,'in')"/>
  <use id="zoomminus" xlink:href="#zoomMin" x="42" y="9" onmousedown="handleZoom(evt,'out')"/>
  <use id="reset" xlink:href="#resetDef" x="30" y="36" onmousedown="handleReset()"/>
   <use id="arrowup" xlink:href="#arrowUp" x="0" y="0" onmousedown="handlePan(0,-1)"/>
  <use id="arrowright" xlink:href="#arrowRight" x="0" y="0" onmousedown="handlePan(1,0)"/>
  <use id="arrowdown" xlink:href="#arrowDown" x="0" y="0" onmousedown="handlePan(0,1)"/>
  <use id="arrowleft" xlink:href="#arrowLeft" x="0" y="0" onmousedown="handlePan(-1,0)"/>
</g>
<svg viewBox="0 0 15 15" width="100%" height="30px" preserveAspectRatio="xMaxYMin meet">
 <g id="arrow_out" transform="scale(0.3 0.3)">
  <a xlink:href="binvert_8c_a7a117714be10e35005a968c5c3ab878d_cgraph_org.svg" target="_base">
   <rect id="button" ry="5" rx="5" y="6" x="6" height="38" width="38"
        fill="#f2f5e9" fill-opacity="0.5" stroke="#606060" stroke-width="1.0"/>
   <path id="arrow"
     d="M 11.500037,31.436501 C 11.940474,20.09759 22.043105,11.32322 32.158766,21.979434 L 37.068811,17.246167 C 37.068811,17.246167 37.088388,32 37.088388,32 L 22.160133,31.978069 C 22.160133,31.978069 26.997745,27.140456 26.997745,27.140456 C 18.528582,18.264221 13.291696,25.230495 11.500037,31.436501 z"
     style="fill:#404040;"/>
  </a>
 </g>
</svg>

<style type='text/css'>
<![CDATA[
[data-mouse-over-selected='false'] { opacity: 0.7; }
[data-mouse-over-selected='true']  { opacity: 1.0; }
]]>
</style>
<script type="application/ecmascript"><![CDATA[
document.addEventListener('DOMContentLoaded', (event) => {
  highlightEdges();
  highlightAdjacentNodes();
});
]]></script>
</svg>
