<?xml version="1.0" encoding="UTF-8" standalone="no"?>
<!DOCTYPE svg PUBLIC "-//W3C//DTD SVG 1.1//EN"
 "http://www.w3.org/Graphics/SVG/1.1/DTD/svg11.dtd">
<!-- Generated by graphviz version 2.43.0 (0)
 -->
<!-- Title: NormalizationVisitor::get_result Pages: 1 -->
<!--zoomable 739 -->

<svg id="main" version="1.1" xmlns="http://www.w3.org/2000/svg" xmlns:xlink="http://www.w3.org/1999/xlink" xml:space="preserve" onload="init(evt)">
<style type="text/css"><![CDATA[
.node, .edge {opacity: 0.7;}
.node.selected, .edge.selected {opacity: 1;}
.edge:hover path { stroke: red; }
.edge:hover polygon { stroke: red; fill: red; }
]]></style>

<defs>
  <circle id="rim" cx="0" cy="0" r="7"/>
  <circle id="rim2" cx="0" cy="0" r="3.5"/>
  <g id="zoomPlus">
    <use xlink:href="#rim" fill="#404040"><set attributeName="fill" to="#808080" begin="zoomplus.mouseover" end="zoomplus.mouseout"/></use>
    <path d="M-4,0h8M0,-4v8" fill="none" stroke="white" stroke-width="1.5" pointer-events="none"/>
  </g>
  <g id="zoomMin">
    <use xlink:href="#rim" fill="#404040"><set attributeName="fill" to="#808080" begin="zoomminus.mouseover" end="zoomminus.mouseout"/></use>
    <path d="M-4,0h8" fill="none" stroke="white" stroke-width="1.5" pointer-events="none"/>
  </g>
  <g id="arrowUp" transform="translate(30 24)">
    <use xlink:href="#rim"/>
    <path pointer-events="none" fill="none" stroke="white" stroke-width="1.5" d="M0,-3.0v7 M-2.5,-0.5L0,-3.0L2.5,-0.5"/>
  </g>
  <g id="arrowRight" transform="rotate(90) translate(36 -43)">
    <use xlink:href="#rim"/>
    <path pointer-events="none" fill="none" stroke="white" stroke-width="1.5" d="M0,-3.0v7 M-2.5,-0.5L0,-3.0L2.5,-0.5"/>
  </g>
  <g id="arrowDown" transform="rotate(180) translate(-30 -48)">
    <use xlink:href="#rim"/>
    <path pointer-events="none" fill="none" stroke="white" stroke-width="1.5" d="M0,-3.0v7 M-2.5,-0.5L0,-3.0L2.5,-0.5"/>
  </g>
  <g id="arrowLeft" transform="rotate(270) translate(-36 17)">
    <use xlink:href="#rim"/>
    <path pointer-events="none" fill="none" stroke="white" stroke-width="1.5" d="M0,-3.0v7 M-2.5,-0.5L0,-3.0L2.5,-0.5"/>
  </g>
  <g id="resetDef">
    <use xlink:href="#rim2" fill="#404040"><set attributeName="fill" to="#808080" begin="reset.mouseover" end="reset.mouseout"/></use>
  </g>
</defs>
<script type="application/ecmascript">
var viewWidth = 1672;
var viewHeight = 739;
var sectionId = 'dynsection-4';
</script>
<script type="application/ecmascript" xlink:href="../../svg.min.js"/>
<svg id="graph" class="graph">
<g id="viewport">
<title>NormalizationVisitor::get_result</title>
<!-- Node1 -->
<g id="Node000001" class="node">
<title>Node1</title>
<g id="a_Node000001"><a xlink:title="获取规范化结果">
<polygon fill="#999999" stroke="#666666" points="1664,-280 1547,-280 1547,-250 1664,-250 1664,-280"/>
<text text-anchor="start" x="1555" y="-268" font-family="Helvetica,sans-Serif" font-size="10.00">NormalizationVisitor</text>
<text text-anchor="middle" x="1605.5" y="-257" font-family="Helvetica,sans-Serif" font-size="10.00">::get_result</text>
</a>
</g>
</g>
<!-- Node2 -->
<g id="Node000002" class="node">
<title>Node2</title>
<g id="a_Node000002"><a xlink:href="../../dc/d25/classSymbolicExpr.html#a12ea2bce8fc0fa5da98a0cfae9030c2f" target="_top" xlink:title="对表达式关于指定变量求导。">
<polygon fill="white" stroke="#666666" points="1511,-649.5 1362,-649.5 1362,-630.5 1511,-630.5 1511,-649.5"/>
<text text-anchor="middle" x="1436.5" y="-637.5" font-family="Helvetica,sans-Serif" font-size="10.00">SymbolicExpr::differentiate</text>
</a>
</g>
</g>
<!-- Node1&#45;&gt;Node2 -->
<g id="edge1_Node000001_Node000002" class="edge">
<title>Node1&#45;&gt;Node2</title>
<g id="a_edge1_Node000001_Node000002"><a xlink:title=" ">
<path fill="none" stroke="#63b8ff" d="M1593.54,-289.61C1560.62,-363.53 1463.53,-581.55 1441.83,-630.27"/>
<polygon fill="#63b8ff" stroke="#63b8ff" points="1596.88,-290.72 1597.75,-280.16 1590.48,-287.88 1596.88,-290.72"/>
</a>
</g>
</g>
<!-- Node16 -->
<g id="Node000016" class="node">
<title>Node16</title>
<g id="a_Node000016"><a xlink:href="../../dc/d25/classSymbolicExpr.html#acc2ea5b99b699087717f3ac42433e4b8" target="_top" xlink:title="对表达式进行化简。">
<polygon fill="white" stroke="#666666" points="1127,-210.5 999,-210.5 999,-191.5 1127,-191.5 1127,-210.5"/>
<text text-anchor="middle" x="1063" y="-198.5" font-family="Helvetica,sans-Serif" font-size="10.00">SymbolicExpr::simplify</text>
</a>
</g>
</g>
<!-- Node1&#45;&gt;Node16 -->
<g id="edge24_Node000001_Node000016" class="edge">
<title>Node1&#45;&gt;Node16</title>
<g id="a_edge24_Node000001_Node000016"><a xlink:title=" ">
<path fill="none" stroke="#63b8ff" d="M1585.43,-287.68C1568.18,-306.29 1540.96,-331.25 1511,-342 1448.67,-364.36 1426.61,-356.51 1362,-342 1245.01,-315.72 1119.92,-238.02 1078.34,-210.66"/>
<polygon fill="#63b8ff" stroke="#63b8ff" points="1588.11,-289.94 1592.19,-280.16 1582.9,-285.26 1588.11,-289.94"/>
</a>
</g>
</g>
<!-- Node33 -->
<g id="Node000033" class="node">
<title>Node33</title>
<g id="a_Node000033"><a xlink:href="../../dc/d25/classSymbolicExpr.html#a6c3512f5d73f0e72f241b086a5ca6f03" target="_top" xlink:title="将表达式中指定变量替换为给定值。">
<polygon fill="white" stroke="#666666" points="1320.5,-409.5 1182.5,-409.5 1182.5,-390.5 1320.5,-390.5 1320.5,-409.5"/>
<text text-anchor="middle" x="1251.5" y="-397.5" font-family="Helvetica,sans-Serif" font-size="10.00">SymbolicExpr::substitute</text>
</a>
</g>
</g>
<!-- Node1&#45;&gt;Node33 -->
<g id="edge47_Node000001_Node000033" class="edge">
<title>Node1&#45;&gt;Node33</title>
<g id="a_edge47_Node000001_Node000033"><a xlink:title=" ">
<path fill="none" stroke="#63b8ff" d="M1591.85,-289.07C1576.56,-315.43 1548.19,-356.56 1511,-376 1452.08,-406.8 1375.24,-410.07 1320.69,-407.32"/>
<polygon fill="#63b8ff" stroke="#63b8ff" points="1595.05,-290.52 1596.88,-280.09 1588.94,-287.1 1595.05,-290.52"/>
</a>
</g>
</g>
<!-- Node34 -->
<g id="Node000034" class="node">
<title>Node34</title>
<g id="a_Node000034"><a xlink:href="../../dd/d23/classLimitVisitor.html#aec5cf0381c03243c9a3282ac3b7147e9" target="_top" xlink:title=" ">
<polygon fill="white" stroke="#666666" points="1486.5,-333.5 1386.5,-333.5 1386.5,-314.5 1486.5,-314.5 1486.5,-333.5"/>
<text text-anchor="middle" x="1436.5" y="-321.5" font-family="Helvetica,sans-Serif" font-size="10.00">LimitVisitor::visit</text>
</a>
</g>
</g>
<!-- Node1&#45;&gt;Node34 -->
<g id="edge49_Node000001_Node000034" class="edge">
<title>Node1&#45;&gt;Node34</title>
<g id="a_edge49_Node000001_Node000034"><a xlink:title=" ">
<path fill="none" stroke="#63b8ff" d="M1563.36,-284.19C1547.25,-291.29 1528.46,-299.05 1511,-305 1500.77,-308.49 1489.55,-311.69 1479.03,-314.43"/>
<polygon fill="#63b8ff" stroke="#63b8ff" points="1564.81,-287.38 1572.52,-280.11 1561.96,-280.99 1564.81,-287.38"/>
</a>
</g>
</g>
<!-- Node35 -->
<g id="Node000035" class="node">
<title>Node35</title>
<g id="a_Node000035"><a xlink:href="../../dd/d23/classLimitVisitor.html#ab0a3fb0309e64deed65cb1fc3189d1a8" target="_top" xlink:title=" ">
<polygon fill="white" stroke="#666666" points="1486.5,-296.5 1386.5,-296.5 1386.5,-277.5 1486.5,-277.5 1486.5,-296.5"/>
<text text-anchor="middle" x="1436.5" y="-284.5" font-family="Helvetica,sans-Serif" font-size="10.00">LimitVisitor::visit</text>
</a>
</g>
</g>
<!-- Node1&#45;&gt;Node35 -->
<g id="edge50_Node000001_Node000035" class="edge">
<title>Node1&#45;&gt;Node35</title>
<g id="a_edge50_Node000001_Node000035"><a xlink:title=" ">
<path fill="none" stroke="#63b8ff" d="M1536.35,-273.98C1519.73,-276.17 1502.28,-278.47 1486.73,-280.51"/>
<polygon fill="#63b8ff" stroke="#63b8ff" points="1537.1,-277.41 1546.56,-272.63 1536.19,-270.47 1537.1,-277.41"/>
</a>
</g>
</g>
<!-- Node36 -->
<g id="Node000036" class="node">
<title>Node36</title>
<g id="a_Node000036"><a xlink:href="../../d3/da1/classNormalizationVisitor.html#a6ecd1e09442542f78ec6f55c51a79ee6" target="_top" xlink:title=" ">
<polygon fill="white" stroke="#666666" points="1495,-259 1378,-259 1378,-229 1495,-229 1495,-259"/>
<text text-anchor="start" x="1386" y="-247" font-family="Helvetica,sans-Serif" font-size="10.00">NormalizationVisitor</text>
<text text-anchor="middle" x="1436.5" y="-236" font-family="Helvetica,sans-Serif" font-size="10.00">::visit</text>
</a>
</g>
</g>
<!-- Node1&#45;&gt;Node36 -->
<g id="edge51_Node000001_Node000036" class="edge">
<title>Node1&#45;&gt;Node36</title>
<g id="a_edge51_Node000001_Node000036"><a xlink:title=" ">
<path fill="none" stroke="#63b8ff" d="M1536.24,-256.42C1522.56,-254.7 1508.32,-252.91 1495.06,-251.24"/>
<polygon fill="#63b8ff" stroke="#63b8ff" points="1536.2,-259.94 1546.56,-257.71 1537.08,-252.99 1536.2,-259.94"/>
</a>
</g>
</g>
<!-- Node37 -->
<g id="Node000037" class="node">
<title>Node37</title>
<g id="a_Node000037"><a xlink:href="../../dd/d23/classLimitVisitor.html#a855a101268eef2498d340d147fe79c7e" target="_top" xlink:title=" ">
<polygon fill="white" stroke="#666666" points="1486.5,-210.5 1386.5,-210.5 1386.5,-191.5 1486.5,-191.5 1486.5,-210.5"/>
<text text-anchor="middle" x="1436.5" y="-198.5" font-family="Helvetica,sans-Serif" font-size="10.00">LimitVisitor::visit</text>
</a>
</g>
</g>
<!-- Node1&#45;&gt;Node37 -->
<g id="edge52_Node000001_Node000037" class="edge">
<title>Node1&#45;&gt;Node37</title>
<g id="a_edge52_Node000001_Node000037"><a xlink:title=" ">
<path fill="none" stroke="#63b8ff" d="M1567.87,-245.32C1550.9,-236.74 1530.27,-227.05 1511,-220 1501.22,-216.42 1490.48,-213.24 1480.3,-210.56"/>
<polygon fill="#63b8ff" stroke="#63b8ff" points="1566.39,-248.49 1576.89,-249.94 1569.59,-242.26 1566.39,-248.49"/>
</a>
</g>
</g>
<!-- Node38 -->
<g id="Node000038" class="node">
<title>Node38</title>
<g id="a_Node000038"><a xlink:href="../../d3/da1/classNormalizationVisitor.html#a7026607e231a8b38c0ba77245c3497e3" target="_top" xlink:title=" ">
<polygon fill="white" stroke="#666666" points="1495,-173 1378,-173 1378,-143 1495,-143 1495,-173"/>
<text text-anchor="start" x="1386" y="-161" font-family="Helvetica,sans-Serif" font-size="10.00">NormalizationVisitor</text>
<text text-anchor="middle" x="1436.5" y="-150" font-family="Helvetica,sans-Serif" font-size="10.00">::visit</text>
</a>
</g>
</g>
<!-- Node1&#45;&gt;Node38 -->
<g id="edge53_Node000001_Node000038" class="edge">
<title>Node1&#45;&gt;Node38</title>
<g id="a_edge53_Node000001_Node000038"><a xlink:title=" ">
<path fill="none" stroke="#63b8ff" d="M1584.08,-242.29C1566.35,-223.78 1539.17,-198.16 1511,-182 1505.18,-178.66 1498.83,-175.71 1492.37,-173.12"/>
<polygon fill="#63b8ff" stroke="#63b8ff" points="1581.67,-244.84 1591.07,-249.73 1586.78,-240.05 1581.67,-244.84"/>
</a>
</g>
</g>
<!-- Node39 -->
<g id="Node000039" class="node">
<title>Node39</title>
<g id="a_Node000039"><a xlink:href="../../dd/d23/classLimitVisitor.html#afd43b96190b598ecbf2c4c3f8aacf4c6" target="_top" xlink:title=" ">
<polygon fill="white" stroke="#666666" points="1486.5,-124.5 1386.5,-124.5 1386.5,-105.5 1486.5,-105.5 1486.5,-124.5"/>
<text text-anchor="middle" x="1436.5" y="-112.5" font-family="Helvetica,sans-Serif" font-size="10.00">LimitVisitor::visit</text>
</a>
</g>
</g>
<!-- Node1&#45;&gt;Node39 -->
<g id="edge54_Node000001_Node000039" class="edge">
<title>Node1&#45;&gt;Node39</title>
<g id="a_edge54_Node000001_Node000039"><a xlink:title=" ">
<path fill="none" stroke="#63b8ff" d="M1593.6,-240.53C1579.07,-210.76 1550.52,-161.15 1511,-134 1503.72,-129 1495.22,-125.32 1486.63,-122.6"/>
<polygon fill="#63b8ff" stroke="#63b8ff" points="1590.55,-242.25 1597.99,-249.8 1596.87,-239.26 1590.55,-242.25"/>
</a>
</g>
</g>
<!-- Node40 -->
<g id="Node000040" class="node">
<title>Node40</title>
<g id="a_Node000040"><a xlink:href="../../d0/d2d/classIntegrationVisitor.html#aa57bed042f329c6cb058f11fc96b530f" target="_top" xlink:title=" ">
<polygon fill="white" stroke="#666666" points="1487,-87 1386,-87 1386,-57 1487,-57 1487,-87"/>
<text text-anchor="start" x="1394" y="-75" font-family="Helvetica,sans-Serif" font-size="10.00">IntegrationVisitor</text>
<text text-anchor="middle" x="1436.5" y="-64" font-family="Helvetica,sans-Serif" font-size="10.00">::visit</text>
</a>
</g>
</g>
<!-- Node1&#45;&gt;Node40 -->
<g id="edge55_Node000001_Node000040" class="edge">
<title>Node1&#45;&gt;Node40</title>
<g id="a_edge55_Node000001_Node000040"><a xlink:title=" ">
<path fill="none" stroke="#63b8ff" d="M1597.2,-240.01C1585.19,-203.22 1557.82,-134.68 1511,-96 1504.07,-90.27 1495.73,-85.9 1487.19,-82.56"/>
<polygon fill="#63b8ff" stroke="#63b8ff" points="1593.97,-241.43 1600.31,-249.92 1600.65,-239.33 1593.97,-241.43"/>
</a>
</g>
</g>
<!-- Node3 -->
<g id="Node000003" class="node">
<title>Node3</title>
<g id="a_Node000003"><a xlink:href="../../dc/d25/classSymbolicExpr.html#ad4b5445c6f1a8e7ea99ff66667fac87a" target="_top" xlink:title=" ">
<polygon fill="white" stroke="#666666" points="1326,-655 1177,-655 1177,-625 1326,-625 1326,-655"/>
<text text-anchor="start" x="1185" y="-643" font-family="Helvetica,sans-Serif" font-size="10.00">SymbolicExpr::differentiate</text>
<text text-anchor="middle" x="1251.5" y="-632" font-family="Helvetica,sans-Serif" font-size="10.00">_legacy</text>
</a>
</g>
</g>
<!-- Node2&#45;&gt;Node3 -->
<g id="edge2_Node000002_Node000003" class="edge">
<title>Node2&#45;&gt;Node3</title>
<g id="a_edge2_Node000002_Node000003"><a xlink:title=" ">
<path fill="none" stroke="#63b8ff" d="M1351.61,-640C1343.16,-640 1334.62,-640 1326.29,-640"/>
<polygon fill="#63b8ff" stroke="#63b8ff" points="1351.86,-643.5 1361.86,-640 1351.86,-636.5 1351.86,-643.5"/>
</a>
</g>
</g>
<!-- Node4 -->
<g id="Node000004" class="node">
<title>Node4</title>
<g id="a_Node000004"><a xlink:href="../../d5/df5/classlamina_1_1SubstitutionStrategy.html#aa5741eb5f049e1715a540334ca94f7c8" target="_top" xlink:title="尝试对表达式进行积分">
<polygon fill="white" stroke="#666666" points="1141,-716 985,-716 985,-686 1141,-686 1141,-716"/>
<text text-anchor="start" x="993" y="-704" font-family="Helvetica,sans-Serif" font-size="10.00">lamina::SubstitutionStrategy</text>
<text text-anchor="middle" x="1063" y="-693" font-family="Helvetica,sans-Serif" font-size="10.00">::try_integrate</text>
</a>
</g>
</g>
<!-- Node2&#45;&gt;Node4 -->
<g id="edge3_Node000002_Node000004" class="edge">
<title>Node2&#45;&gt;Node4</title>
<g id="a_edge3_Node000002_Node000004"><a xlink:title=" ">
<path fill="none" stroke="#63b8ff" d="M1385.82,-651.72C1367.13,-655.91 1345.65,-660.47 1326,-664 1264.06,-675.15 1193.38,-684.96 1141.05,-691.67"/>
<polygon fill="#63b8ff" stroke="#63b8ff" points="1386.62,-655.13 1395.6,-649.5 1385.07,-648.3 1386.62,-655.13"/>
</a>
</g>
</g>
<!-- Node5 -->
<g id="Node000005" class="node">
<title>Node5</title>
<g id="a_Node000005"><a xlink:href="../../d1/d83/classlamina_1_1IBPStrategy.html#a14c65c71e2ba58e0e2986d8e97cb201d" target="_top" xlink:title="尝试对表达式进行积分">
<polygon fill="white" stroke="#666666" points="707,-673 594,-673 594,-643 707,-643 707,-673"/>
<text text-anchor="start" x="602" y="-661" font-family="Helvetica,sans-Serif" font-size="10.00">lamina::IBPStrategy</text>
<text text-anchor="middle" x="650.5" y="-650" font-family="Helvetica,sans-Serif" font-size="10.00">::try_integrate</text>
</a>
</g>
</g>
<!-- Node2&#45;&gt;Node5 -->
<g id="edge4_Node000002_Node000005" class="edge">
<title>Node2&#45;&gt;Node5</title>
<g id="a_edge4_Node000002_Node000005"><a xlink:title=" ">
<path fill="none" stroke="#63b8ff" d="M1408.43,-654.21C1386.68,-665.11 1355.06,-679.8 1326,-689 1246.14,-714.27 1224.38,-716.96 1141,-725 977.73,-740.74 934.64,-719.19 774,-686 752.1,-681.48 728.1,-676.09 707.19,-671.25"/>
<polygon fill="#63b8ff" stroke="#63b8ff" points="1410.08,-657.3 1417.4,-649.65 1406.9,-651.06 1410.08,-657.3"/>
</a>
</g>
</g>
<!-- Node6 -->
<g id="Node000006" class="node">
<title>Node6</title>
<g id="a_Node000006"><a xlink:href="../../d1/d42/namespacelamina.html#ae1ead7a217c0cba5a6362056a695f9b9" target="_top" xlink:title=" ">
<polygon fill="white" stroke="#666666" points="1324,-582.5 1179,-582.5 1179,-563.5 1324,-563.5 1324,-582.5"/>
<text text-anchor="middle" x="1251.5" y="-570.5" font-family="Helvetica,sans-Serif" font-size="10.00">lamina::valid_dependency</text>
</a>
</g>
</g>
<!-- Node2&#45;&gt;Node6 -->
<g id="edge5_Node000002_Node000006" class="edge">
<title>Node2&#45;&gt;Node6</title>
<g id="a_edge5_Node000002_Node000006"><a xlink:title=" ">
<path fill="none" stroke="#63b8ff" d="M1399.76,-626.92C1364.19,-613.89 1310.45,-594.22 1278.67,-582.58"/>
<polygon fill="#63b8ff" stroke="#63b8ff" points="1398.69,-630.25 1409.28,-630.4 1401.09,-623.68 1398.69,-630.25"/>
</a>
</g>
</g>
<!-- Node6&#45;&gt;Node4 -->
<g id="edge22_Node000006_Node000004" class="edge">
<title>Node6&#45;&gt;Node4</title>
<g id="a_edge22_Node000006_Node000004"><a xlink:title=" ">
<path fill="none" stroke="#63b8ff" d="M1219.18,-587.14C1205.23,-594.44 1189.22,-604.28 1177,-616 1155.64,-636.48 1164.01,-653.4 1141,-672 1134.11,-677.57 1126.04,-682.14 1117.77,-685.87"/>
<polygon fill="#63b8ff" stroke="#63b8ff" points="1221.06,-590.11 1228.44,-582.5 1217.93,-583.85 1221.06,-590.11"/>
</a>
</g>
</g>
<!-- Node6&#45;&gt;Node5 -->
<g id="edge23_Node000006_Node000005" class="edge">
<title>Node6&#45;&gt;Node5</title>
<g id="a_edge23_Node000006_Node000005"><a xlink:title=" ">
<path fill="none" stroke="#63b8ff" d="M1225.02,-587.58C1210.8,-595.79 1192.83,-606.32 1177,-616 1160.8,-625.91 1159.12,-633.32 1141,-639 989.85,-686.36 799.54,-674.87 707.05,-665.09"/>
<polygon fill="#63b8ff" stroke="#63b8ff" points="1226.83,-590.57 1233.75,-582.55 1223.34,-584.51 1226.83,-590.57"/>
</a>
</g>
</g>
<!-- Node7 -->
<g id="Node000007" class="node">
<title>Node7</title>
<g id="a_Node000007"><a xlink:href="../../d8/dbb/classlamina_1_1Integrator.html#a933c2400bb71a25a6f1e81c5cab0130b" target="_top" xlink:title=" ">
<polygon fill="white" stroke="#666666" points="913.5,-458 809.5,-458 809.5,-428 913.5,-428 913.5,-458"/>
<text text-anchor="start" x="817.5" y="-446" font-family="Helvetica,sans-Serif" font-size="10.00">lamina::Integrator</text>
<text text-anchor="middle" x="861.5" y="-435" font-family="Helvetica,sans-Serif" font-size="10.00">::apply_linearity</text>
</a>
</g>
</g>
<!-- Node6&#45;&gt;Node7 -->
<g id="edge6_Node000006_Node000007" class="edge">
<title>Node6&#45;&gt;Node7</title>
<g id="a_edge6_Node000006_Node000007"><a xlink:title=" ">
<path fill="none" stroke="#63b8ff" d="M1239.7,-554.64C1222.64,-527.61 1186.67,-478.07 1141,-457 1067.7,-423.18 971.73,-427.48 913.72,-434.59"/>
<polygon fill="#63b8ff" stroke="#63b8ff" points="1236.72,-556.47 1244.93,-563.17 1242.69,-552.82 1236.72,-556.47"/>
</a>
</g>
</g>
<!-- Node12 -->
<g id="Node000012" class="node">
<title>Node12</title>
<g id="a_Node000012"><a xlink:href="../../d8/dbb/classlamina_1_1Integrator.html#aa964c6f76a91b1a15966f67fab623474" target="_top" xlink:title=" ">
<polygon fill="white" stroke="#666666" points="1115,-496 1011,-496 1011,-466 1115,-466 1115,-496"/>
<text text-anchor="start" x="1019" y="-484" font-family="Helvetica,sans-Serif" font-size="10.00">lamina::Integrator</text>
<text text-anchor="middle" x="1063" y="-473" font-family="Helvetica,sans-Serif" font-size="10.00">::check_cycle</text>
</a>
</g>
</g>
<!-- Node6&#45;&gt;Node12 -->
<g id="edge14_Node000006_Node000012" class="edge">
<title>Node6&#45;&gt;Node12</title>
<g id="a_edge14_Node000006_Node000012"><a xlink:title=" ">
<path fill="none" stroke="#63b8ff" d="M1227.12,-558.06C1205.34,-544.52 1171.72,-524.5 1141,-510 1130.41,-505 1118.7,-500.23 1107.68,-496.05"/>
<polygon fill="#63b8ff" stroke="#63b8ff" points="1225.35,-561.09 1235.68,-563.44 1229.07,-555.16 1225.35,-561.09"/>
</a>
</g>
</g>
<!-- Node13 -->
<g id="Node000013" class="node">
<title>Node13</title>
<g id="a_Node000013"><a xlink:href="../../d8/dbb/classlamina_1_1Integrator.html#af8e2012a43068412619b9afa2a5188c7" target="_top" xlink:title="递归积分入口">
<polygon fill="white" stroke="#666666" points="920,-539 803,-539 803,-509 920,-509 920,-539"/>
<text text-anchor="start" x="811" y="-527" font-family="Helvetica,sans-Serif" font-size="10.00">lamina::Integrator</text>
<text text-anchor="middle" x="861.5" y="-516" font-family="Helvetica,sans-Serif" font-size="10.00">::integrate_recursive</text>
</a>
</g>
</g>
<!-- Node6&#45;&gt;Node13 -->
<g id="edge18_Node000006_Node000013" class="edge">
<title>Node6&#45;&gt;Node13</title>
<g id="a_edge18_Node000006_Node000013"><a xlink:title=" ">
<path fill="none" stroke="#63b8ff" d="M1211.84,-560.38C1191.07,-554.12 1164.88,-547.04 1141,-543 1065.38,-530.19 976.83,-525.96 920.23,-524.59"/>
<polygon fill="#63b8ff" stroke="#63b8ff" points="1210.99,-563.78 1221.57,-563.38 1213.05,-557.09 1210.99,-563.78"/>
</a>
</g>
</g>
<!-- Node14 -->
<g id="Node000014" class="node">
<title>Node14</title>
<g id="a_Node000014"><a xlink:href="../../d8/dbb/classlamina_1_1Integrator.html#acc7ce748ee8a3a60eb901a29f0fd0556" target="_top" xlink:title=" ">
<polygon fill="white" stroke="#666666" points="1115,-630 1011,-630 1011,-600 1115,-600 1115,-630"/>
<text text-anchor="start" x="1019" y="-618" font-family="Helvetica,sans-Serif" font-size="10.00">lamina::Integrator</text>
<text text-anchor="middle" x="1063" y="-607" font-family="Helvetica,sans-Serif" font-size="10.00">::resolve_cycle</text>
</a>
</g>
</g>
<!-- Node6&#45;&gt;Node14 -->
<g id="edge19_Node000006_Node000014" class="edge">
<title>Node6&#45;&gt;Node14</title>
<g id="a_edge19_Node000006_Node000014"><a xlink:title=" ">
<path fill="none" stroke="#63b8ff" d="M1198.14,-584.79C1172.17,-590.64 1140.92,-597.68 1115.11,-603.49"/>
<polygon fill="#63b8ff" stroke="#63b8ff" points="1199.19,-588.14 1208.18,-582.53 1197.66,-581.31 1199.19,-588.14"/>
</a>
</g>
</g>
<!-- Node15 -->
<g id="Node000015" class="node">
<title>Node15</title>
<g id="a_Node000015"><a xlink:href="../../d0/df8/classlamina_1_1PowerRuleStrategy.html#ae0337060b7dfc01c06fc82077df55bc9" target="_top" xlink:title="尝试对表达式进行积分">
<polygon fill="white" stroke="#666666" points="1137.5,-582 988.5,-582 988.5,-552 1137.5,-552 1137.5,-582"/>
<text text-anchor="start" x="996.5" y="-570" font-family="Helvetica,sans-Serif" font-size="10.00">lamina::PowerRuleStrategy</text>
<text text-anchor="middle" x="1063" y="-559" font-family="Helvetica,sans-Serif" font-size="10.00">::try_integrate</text>
</a>
</g>
</g>
<!-- Node6&#45;&gt;Node15 -->
<g id="edge21_Node000006_Node000015" class="edge">
<title>Node6&#45;&gt;Node15</title>
<g id="a_edge21_Node000006_Node000015"><a xlink:title=" ">
<path fill="none" stroke="#63b8ff" d="M1168.66,-570.37C1158.3,-570.03 1147.76,-569.69 1137.54,-569.37"/>
<polygon fill="#63b8ff" stroke="#63b8ff" points="1168.82,-573.87 1178.93,-570.7 1169.05,-566.88 1168.82,-573.87"/>
</a>
</g>
</g>
<!-- Node8 -->
<g id="Node000008" class="node">
<title>Node8</title>
<g id="a_Node000008"><a xlink:href="../../d8/dbb/classlamina_1_1Integrator.html#ad041f93ff9d1cca47ad39439338ec2e5" target="_top" xlink:title="计算不定积分">
<polygon fill="white" stroke="#666666" points="702.5,-458 598.5,-458 598.5,-428 702.5,-428 702.5,-458"/>
<text text-anchor="start" x="606.5" y="-446" font-family="Helvetica,sans-Serif" font-size="10.00">lamina::Integrator</text>
<text text-anchor="middle" x="650.5" y="-435" font-family="Helvetica,sans-Serif" font-size="10.00">::integrate</text>
</a>
</g>
</g>
<!-- Node7&#45;&gt;Node8 -->
<g id="edge7_Node000007_Node000008" class="edge">
<title>Node7&#45;&gt;Node8</title>
<g id="a_edge7_Node000007_Node000008"><a xlink:title=" ">
<path fill="none" stroke="#63b8ff" d="M799.24,-436.79C768.6,-435.98 731.96,-436.08 702.82,-437.1"/>
<polygon fill="#63b8ff" stroke="#63b8ff" points="799.27,-440.29 809.37,-437.1 799.48,-433.3 799.27,-440.29"/>
</a>
</g>
</g>
<!-- Node8&#45;&gt;Node7 -->
<g id="edge8_Node000008_Node000007" class="edge">
<title>Node8&#45;&gt;Node7</title>
<g id="a_edge8_Node000008_Node000007"><a xlink:title=" ">
<path fill="none" stroke="#63b8ff" d="M712.97,-449.21C743.63,-450.02 780.27,-449.92 809.37,-448.9"/>
<polygon fill="#63b8ff" stroke="#63b8ff" points="712.93,-445.71 702.82,-448.9 712.71,-452.71 712.93,-445.71"/>
</a>
</g>
</g>
<!-- Node9 -->
<g id="Node000009" class="node">
<title>Node9</title>
<g id="a_Node000009"><a xlink:href="../../d0/d72/classlamina_1_1MultipleIntegralEngine.html#a491641f4d1657cf6aab03b05edef3ec8" target="_top" xlink:title="计算迭代积分。">
<polygon fill="white" stroke="#666666" points="329.5,-427 195.5,-427 195.5,-397 329.5,-397 329.5,-427"/>
<text text-anchor="start" x="203.5" y="-415" font-family="Helvetica,sans-Serif" font-size="10.00">lamina::MultipleIntegral</text>
<text text-anchor="middle" x="262.5" y="-404" font-family="Helvetica,sans-Serif" font-size="10.00">Engine::evaluate</text>
</a>
</g>
</g>
<!-- Node8&#45;&gt;Node9 -->
<g id="edge9_Node000008_Node000009" class="edge">
<title>Node8&#45;&gt;Node9</title>
<g id="a_edge9_Node000008_Node000009"><a xlink:title=" ">
<path fill="none" stroke="#63b8ff" d="M588.37,-439.51C532.31,-436.15 446.99,-430.59 373,-424 359,-422.75 344.01,-421.23 329.76,-419.7"/>
<polygon fill="#63b8ff" stroke="#63b8ff" points="588.3,-443.01 598.49,-440.12 588.72,-436.03 588.3,-443.01"/>
</a>
</g>
</g>
<!-- Node10 -->
<g id="Node000010" class="node">
<title>Node10</title>
<g id="a_Node000010"><a xlink:href="../../dc/d25/classSymbolicExpr.html#a3cea51734e44db6a4a48a77206ca4055" target="_top" xlink:title="计算不定积分。">
<polygon fill="white" stroke="#666666" points="517,-490.5 383,-490.5 383,-471.5 517,-471.5 517,-490.5"/>
<text text-anchor="middle" x="450" y="-478.5" font-family="Helvetica,sans-Serif" font-size="10.00">SymbolicExpr::integrate</text>
</a>
</g>
</g>
<!-- Node8&#45;&gt;Node10 -->
<g id="edge10_Node000008_Node000010" class="edge">
<title>Node8&#45;&gt;Node10</title>
<g id="a_edge10_Node000008_Node000010"><a xlink:title=" ">
<path fill="none" stroke="#63b8ff" d="M588.29,-454.72C560.25,-460.09 527.43,-466.37 500.92,-471.44"/>
<polygon fill="#63b8ff" stroke="#63b8ff" points="589.22,-458.1 598.38,-452.79 587.9,-451.23 589.22,-458.1"/>
</a>
</g>
</g>
<!-- Node11 -->
<g id="Node000011" class="node">
<title>Node11</title>
<g id="a_Node000011"><a xlink:href="../../d8/dbb/classlamina_1_1Integrator.html#a7477aee41552c2e8aa5065d0b8094fc3" target="_top" xlink:title="计算定积分">
<polygon fill="white" stroke="#666666" points="502,-397 398,-397 398,-367 502,-367 502,-397"/>
<text text-anchor="start" x="406" y="-385" font-family="Helvetica,sans-Serif" font-size="10.00">lamina::Integrator</text>
<text text-anchor="middle" x="450" y="-374" font-family="Helvetica,sans-Serif" font-size="10.00">::integrate_def</text>
</a>
</g>
</g>
<!-- Node8&#45;&gt;Node11 -->
<g id="edge11_Node000008_Node000011" class="edge">
<title>Node8&#45;&gt;Node11</title>
<g id="a_edge11_Node000008_Node000011"><a xlink:title=" ">
<path fill="none" stroke="#63b8ff" d="M591.1,-425.05C562.13,-416.15 527.53,-405.52 499.97,-397.05"/>
<polygon fill="#63b8ff" stroke="#63b8ff" points="590.1,-428.41 600.69,-428 592.16,-421.72 590.1,-428.41"/>
</a>
</g>
</g>
<!-- Node11&#45;&gt;Node9 -->
<g id="edge12_Node000011_Node000009" class="edge">
<title>Node11&#45;&gt;Node9</title>
<g id="a_edge12_Node000011_Node000009"><a xlink:title=" ">
<path fill="none" stroke="#63b8ff" d="M387.73,-391.91C369.17,-394.91 348.7,-398.22 329.82,-401.27"/>
<polygon fill="#63b8ff" stroke="#63b8ff" points="388.51,-395.33 397.82,-390.28 387.39,-388.42 388.51,-395.33"/>
</a>
</g>
</g>
<!-- Node11&#45;&gt;Node11 -->
<g id="edge13_Node000011_Node000011" class="edge">
<title>Node11&#45;&gt;Node11</title>
<g id="a_edge13_Node000011_Node000011"><a xlink:title=" ">
<path fill="none" stroke="#63b8ff" d="M482.56,-407.6C478.11,-411.97 467.26,-415 450,-415 420.94,-415 410.04,-406.41 417.3,-397.28"/>
<polygon fill="#63b8ff" stroke="#63b8ff" points="486.06,-407.32 482.7,-397.28 479.06,-407.23 486.06,-407.32"/>
</a>
</g>
</g>
<!-- Node12&#45;&gt;Node13 -->
<g id="edge15_Node000012_Node000013" class="edge">
<title>Node12&#45;&gt;Node13</title>
<g id="a_edge15_Node000012_Node000013"><a xlink:title=" ">
<path fill="none" stroke="#63b8ff" d="M1000.89,-494.17C975.21,-499.71 945.48,-506.11 920.18,-511.57"/>
<polygon fill="#63b8ff" stroke="#63b8ff" points="1001.84,-497.55 1010.88,-492.02 1000.37,-490.7 1001.84,-497.55"/>
</a>
</g>
</g>
<!-- Node13&#45;&gt;Node5 -->
<g id="edge17_Node000013_Node000005" class="edge">
<title>Node13&#45;&gt;Node5</title>
<g id="a_edge17_Node000013_Node000005"><a xlink:title=" ">
<path fill="none" stroke="#63b8ff" d="M828.39,-544.59C786.04,-571.74 712.5,-618.89 674.98,-642.94"/>
<polygon fill="#63b8ff" stroke="#63b8ff" points="830.4,-547.45 836.93,-539.11 826.62,-541.56 830.4,-547.45"/>
</a>
</g>
</g>
<!-- Node13&#45;&gt;Node8 -->
<g id="edge16_Node000013_Node000008" class="edge">
<title>Node13&#45;&gt;Node8</title>
<g id="a_edge16_Node000013_Node000008"><a xlink:title=" ">
<path fill="none" stroke="#63b8ff" d="M812.11,-505.25C775.14,-490.92 724.86,-471.43 690.47,-458.1"/>
<polygon fill="#63b8ff" stroke="#63b8ff" points="811.09,-508.6 821.68,-508.95 813.62,-502.08 811.09,-508.6"/>
</a>
</g>
</g>
<!-- Node14&#45;&gt;Node13 -->
<g id="edge20_Node000014_Node000013" class="edge">
<title>Node14&#45;&gt;Node13</title>
<g id="a_edge20_Node000014_Node000013"><a xlink:title=" ">
<path fill="none" stroke="#63b8ff" d="M1001.48,-597.39C995.85,-595.38 990.28,-593.24 985,-591 949.52,-575.94 910.86,-553.74 886.65,-539.08"/>
<polygon fill="#63b8ff" stroke="#63b8ff" points="1000.36,-600.71 1010.95,-600.66 1002.64,-594.09 1000.36,-600.71"/>
</a>
</g>
</g>
<!-- Node16&#45;&gt;Node7 -->
<g id="edge25_Node000016_Node000007" class="edge">
<title>Node16&#45;&gt;Node7</title>
<g id="a_edge25_Node000016_Node000007"><a xlink:title=" ">
<path fill="none" stroke="#63b8ff" d="M1052.69,-219.64C1035.33,-253.26 995.54,-325.29 949,-376 930.25,-396.43 904.75,-415.35 886.3,-427.84"/>
<polygon fill="#63b8ff" stroke="#63b8ff" points="1055.92,-221 1057.34,-210.5 1049.69,-217.83 1055.92,-221"/>
</a>
</g>
</g>
<!-- Node16&#45;&gt;Node11 -->
<g id="edge38_Node000016_Node000011" class="edge">
<title>Node16&#45;&gt;Node11</title>
<g id="a_edge38_Node000016_Node000011"><a xlink:title=" ">
<path fill="none" stroke="#63b8ff" d="M1045.3,-217.68C1024.5,-237.54 987.04,-270.34 949,-289 798.38,-362.89 595.73,-378.3 502.21,-381.36"/>
<polygon fill="#63b8ff" stroke="#63b8ff" points="1047.93,-220 1052.67,-210.52 1043.05,-214.98 1047.93,-220"/>
</a>
</g>
</g>
<!-- Node17 -->
<g id="Node000017" class="node">
<title>Node17</title>
<g id="a_Node000017"><a xlink:href="../../dc/d25/classSymbolicExpr.html#a7777100ca36b7a1a7285ece2380dcf4b" target="_top" xlink:title="计算矩阵的特征向量。">
<polygon fill="white" stroke="#666666" points="152,-130.5 0,-130.5 0,-111.5 152,-111.5 152,-130.5"/>
<text text-anchor="middle" x="76" y="-118.5" font-family="Helvetica,sans-Serif" font-size="10.00">SymbolicExpr::eigenvectors</text>
</a>
</g>
</g>
<!-- Node16&#45;&gt;Node17 -->
<g id="edge26_Node000016_Node000017" class="edge">
<title>Node16&#45;&gt;Node17</title>
<g id="a_edge26_Node000016_Node000017"><a xlink:title=" ">
<path fill="none" stroke="#63b8ff" d="M1050.59,-182.86C1032.65,-156.13 995.09,-106.95 949,-85 829.14,-27.91 784.27,-58 651.5,-58 651.5,-58 651.5,-58 449,-58 322.58,-58 175.34,-93.81 110.53,-111.43"/>
<polygon fill="#63b8ff" stroke="#63b8ff" points="1047.7,-184.84 1056.1,-191.3 1053.56,-181.01 1047.7,-184.84"/>
</a>
</g>
</g>
<!-- Node18 -->
<g id="Node000018" class="node">
<title>Node18</title>
<g id="a_Node000018"><a xlink:href="../../dc/d25/classSymbolicExpr.html#a884244959506063b172228ad99ab0730" target="_top" xlink:title="对表达式进行因式分解。">
<polygon fill="white" stroke="#666666" points="920.5,-280.5 802.5,-280.5 802.5,-261.5 920.5,-261.5 920.5,-280.5"/>
<text text-anchor="middle" x="861.5" y="-268.5" font-family="Helvetica,sans-Serif" font-size="10.00">SymbolicExpr::factor</text>
</a>
</g>
</g>
<!-- Node16&#45;&gt;Node18 -->
<g id="edge27_Node000016_Node000018" class="edge">
<title>Node16&#45;&gt;Node18</title>
<g id="a_edge27_Node000016_Node000018"><a xlink:title=" ">
<path fill="none" stroke="#63b8ff" d="M1032.14,-214.71C1009.6,-224.75 977.75,-238.25 949,-248 934.14,-253.04 917.54,-257.68 902.89,-261.46"/>
<polygon fill="#63b8ff" stroke="#63b8ff" points="1033.81,-217.8 1041.49,-210.51 1030.94,-211.42 1033.81,-217.8"/>
</a>
</g>
</g>
<!-- Node27 -->
<g id="Node000027" class="node">
<title>Node27</title>
<g id="a_Node000027"><a xlink:href="../../dc/d25/classSymbolicExpr.html#a924742ae29dfeb8394a8e86bb7b84061" target="_top" xlink:title="对表达式进行三角恒等式化简。">
<polygon fill="white" stroke="#666666" points="936.5,-113.5 786.5,-113.5 786.5,-94.5 936.5,-94.5 936.5,-113.5"/>
<text text-anchor="middle" x="861.5" y="-101.5" font-family="Helvetica,sans-Serif" font-size="10.00">SymbolicExpr::simplify_trig</text>
</a>
</g>
</g>
<!-- Node16&#45;&gt;Node27 -->
<g id="edge39_Node000016_Node000027" class="edge">
<title>Node16&#45;&gt;Node27</title>
<g id="a_edge39_Node000016_Node000027"><a xlink:title=" ">
<path fill="none" stroke="#63b8ff" d="M1043.7,-184.98C1022.41,-167.18 985.47,-138.86 949,-123 940.12,-119.14 930.37,-116.02 920.72,-113.53"/>
<polygon fill="#63b8ff" stroke="#63b8ff" points="1041.44,-187.65 1051.32,-191.46 1045.97,-182.32 1041.44,-187.65"/>
</a>
</g>
</g>
<!-- Node28 -->
<g id="Node000028" class="node">
<title>Node28</title>
<g id="a_Node000028"><a xlink:href="../../d3/db9/namespacelamina_1_1anonymous__namespace_02integration_8cpp_03.html#aa5349da60e47da2e1ce84ea3841f2363" target="_top" xlink:title=" ">
<polygon fill="white" stroke="#666666" points="949,-221.5 774,-221.5 774,-180.5 949,-180.5 949,-221.5"/>
<text text-anchor="start" x="782" y="-209.5" font-family="Helvetica,sans-Serif" font-size="10.00">lamina::anonymous_namespace</text>
<text text-anchor="start" x="782" y="-198.5" font-family="Helvetica,sans-Serif" font-size="10.00">{integration::cpp}::trig</text>
<text text-anchor="middle" x="861.5" y="-187.5" font-family="Helvetica,sans-Serif" font-size="10.00">_extract_nonneg_int</text>
</a>
</g>
</g>
<!-- Node16&#45;&gt;Node28 -->
<g id="edge40_Node000016_Node000028" class="edge">
<title>Node16&#45;&gt;Node28</title>
<g id="a_edge40_Node000016_Node000028"><a xlink:title=" ">
<path fill="none" stroke="#63b8ff" d="M988.74,-201C975.9,-201 962.44,-201 949.28,-201"/>
<polygon fill="#63b8ff" stroke="#63b8ff" points="988.88,-204.5 998.88,-201 988.88,-197.5 988.88,-204.5"/>
</a>
</g>
</g>
<!-- Node30 -->
<g id="Node000030" class="node">
<title>Node30</title>
<g id="a_Node000030"><a xlink:href="../../de/d21/classlamina_1_1TableLookupStrategy.html#adb653c8d927ce8cb6842fd4e443e15f5" target="_top" xlink:title="尝试对表达式进行积分">
<polygon fill="white" stroke="#666666" points="940.5,-162 782.5,-162 782.5,-132 940.5,-132 940.5,-162"/>
<text text-anchor="start" x="790.5" y="-150" font-family="Helvetica,sans-Serif" font-size="10.00">lamina::TableLookupStrategy</text>
<text text-anchor="middle" x="861.5" y="-139" font-family="Helvetica,sans-Serif" font-size="10.00">::try_integrate</text>
</a>
</g>
</g>
<!-- Node16&#45;&gt;Node30 -->
<g id="edge44_Node000016_Node000030" class="edge">
<title>Node16&#45;&gt;Node30</title>
<g id="a_edge44_Node000016_Node000030"><a xlink:title=" ">
<path fill="none" stroke="#63b8ff" d="M1016.84,-188.78C987.56,-180.85 949.21,-170.47 918.06,-162.04"/>
<polygon fill="#63b8ff" stroke="#63b8ff" points="1016.23,-192.24 1026.79,-191.47 1018.05,-185.48 1016.23,-192.24"/>
</a>
</g>
</g>
<!-- Node32 -->
<g id="Node000032" class="node">
<title>Node32</title>
<g id="a_Node000032"><a xlink:href="../../d7/d8e/classlamina_1_1anonymous__namespace_02solver_8cpp_03_1_1PolyBuilder.html#a56d320425e8a4983e99dadd57ea85165" target="_top" xlink:title=" ">
<polygon fill="white" stroke="#666666" points="949,-30 774,-30 774,0 949,0 949,-30"/>
<text text-anchor="start" x="782" y="-18" font-family="Helvetica,sans-Serif" font-size="10.00">lamina::anonymous_namespace</text>
<text text-anchor="middle" x="861.5" y="-7" font-family="Helvetica,sans-Serif" font-size="10.00">{solver::cpp}::PolyBuilder::visit</text>
</a>
</g>
</g>
<!-- Node16&#45;&gt;Node32 -->
<g id="edge46_Node000016_Node000032" class="edge">
<title>Node16&#45;&gt;Node32</title>
<g id="a_edge46_Node000016_Node000032"><a xlink:title=" ">
<path fill="none" stroke="#63b8ff" d="M1053.23,-181.89C1037.17,-148.99 999.98,-81.58 949,-44 941.35,-38.36 932.53,-33.77 923.52,-30.05"/>
<polygon fill="#63b8ff" stroke="#63b8ff" points="1050.23,-183.75 1057.69,-191.28 1056.56,-180.74 1050.23,-183.75"/>
</a>
</g>
</g>
<!-- Node19 -->
<g id="Node000019" class="node">
<title>Node19</title>
<g id="a_Node000019"><a xlink:href="../../dc/d25/classSymbolicExpr.html#a3b4cc1669b1b117b15cc82783a22b4fc" target="_top" xlink:title="计算矩阵行列式。">
<polygon fill="white" stroke="#666666" points="725,-230.5 576,-230.5 576,-211.5 725,-211.5 725,-230.5"/>
<text text-anchor="middle" x="650.5" y="-218.5" font-family="Helvetica,sans-Serif" font-size="10.00">SymbolicExpr::determinant</text>
</a>
</g>
</g>
<!-- Node18&#45;&gt;Node19 -->
<g id="edge28_Node000018_Node000019" class="edge">
<title>Node18&#45;&gt;Node19</title>
<g id="a_edge28_Node000018_Node000019"><a xlink:title=" ">
<path fill="none" stroke="#63b8ff" d="M810.77,-259.1C774.31,-250.38 725.46,-238.69 691.51,-230.57"/>
<polygon fill="#63b8ff" stroke="#63b8ff" points="810.16,-262.55 820.7,-261.48 811.79,-255.75 810.16,-262.55"/>
</a>
</g>
</g>
<!-- Node23 -->
<g id="Node000023" class="node">
<title>Node23</title>
<g id="a_Node000023"><a xlink:href="../../dc/d25/classSymbolicExpr.html#ae608271a617ef878c81d04375538537f" target="_top" xlink:title="计算两个多项式关于指定变量的结式。">
<polygon fill="white" stroke="#666666" points="705.5,-334 595.5,-334 595.5,-304 705.5,-304 705.5,-334"/>
<text text-anchor="start" x="603.5" y="-322" font-family="Helvetica,sans-Serif" font-size="10.00">SymbolicExpr::poly</text>
<text text-anchor="middle" x="650.5" y="-311" font-family="Helvetica,sans-Serif" font-size="10.00">_resultant</text>
</a>
</g>
</g>
<!-- Node18&#45;&gt;Node23 -->
<g id="edge34_Node000018_Node000023" class="edge">
<title>Node18&#45;&gt;Node23</title>
<g id="a_edge34_Node000018_Node000023"><a xlink:title=" ">
<path fill="none" stroke="#63b8ff" d="M809.09,-282.81C777.68,-290.02 737.56,-299.24 705.66,-306.56"/>
<polygon fill="#63b8ff" stroke="#63b8ff" points="810,-286.19 818.96,-280.54 808.43,-279.37 810,-286.19"/>
</a>
</g>
</g>
<!-- Node24 -->
<g id="Node000024" class="node">
<title>Node24</title>
<g id="a_Node000024"><a xlink:href="../../dc/d25/classSymbolicExpr.html#ae41c16b68c56de8d4c70a98c85722ff1" target="_top" xlink:title="计算矩阵的行最简阶梯形（RREF）。">
<polygon fill="white" stroke="#666666" points="704,-285.5 597,-285.5 597,-266.5 704,-266.5 704,-285.5"/>
<text text-anchor="middle" x="650.5" y="-273.5" font-family="Helvetica,sans-Serif" font-size="10.00">SymbolicExpr::rref</text>
</a>
</g>
</g>
<!-- Node18&#45;&gt;Node24 -->
<g id="edge35_Node000018_Node000024" class="edge">
<title>Node18&#45;&gt;Node24</title>
<g id="a_edge35_Node000018_Node000024"><a xlink:title=" ">
<path fill="none" stroke="#63b8ff" d="M791.95,-272.64C763.37,-273.32 730.69,-274.11 704.05,-274.74"/>
<polygon fill="#63b8ff" stroke="#63b8ff" points="792.37,-276.13 802.28,-272.39 792.2,-269.13 792.37,-276.13"/>
</a>
</g>
</g>
<!-- Node19&#45;&gt;Node19 -->
<g id="edge32_Node000019_Node000019" class="edge">
<title>Node19&#45;&gt;Node19</title>
<g id="a_edge32_Node000019_Node000019"><a xlink:title=" ">
<path fill="none" stroke="#63b8ff" d="M688,-238.19C687.99,-243.92 675.49,-248.5 650.5,-248.5 614.95,-248.5 604.68,-239.23 619.67,-230.58"/>
<polygon fill="#63b8ff" stroke="#63b8ff" points="690.55,-235.79 681.33,-230.58 685.29,-240.41 690.55,-235.79"/>
</a>
</g>
</g>
<!-- Node20 -->
<g id="Node000020" class="node">
<title>Node20</title>
<g id="a_Node000020"><a xlink:href="../../dc/d25/classSymbolicExpr.html#a6e8c5c20af88337d449cbf5771d5d28d" target="_top" xlink:title="计算矩阵的特征多项式。">
<polygon fill="white" stroke="#666666" points="515.5,-162.5 384.5,-162.5 384.5,-143.5 515.5,-143.5 515.5,-162.5"/>
<text text-anchor="middle" x="450" y="-150.5" font-family="Helvetica,sans-Serif" font-size="10.00">SymbolicExpr::charpoly</text>
</a>
</g>
</g>
<!-- Node19&#45;&gt;Node20 -->
<g id="edge29_Node000019_Node000020" class="edge">
<title>Node19&#45;&gt;Node20</title>
<g id="a_edge29_Node000019_Node000020"><a xlink:title=" ">
<path fill="none" stroke="#63b8ff" d="M588.3,-209.13C579.73,-207.01 571.09,-204.63 563,-202 529.29,-191.04 491.9,-173.53 469.98,-162.68"/>
<polygon fill="#63b8ff" stroke="#63b8ff" points="587.75,-212.6 598.28,-211.49 589.36,-205.78 587.75,-212.6"/>
</a>
</g>
</g>
<!-- Node22 -->
<g id="Node000022" class="node">
<title>Node22</title>
<g id="a_Node000022"><a xlink:href="../../d1/d42/namespacelamina.html#a35783093777191a0254b7f3a2340e0f5" target="_top" xlink:title="计算符号矩阵的行列式">
<polygon fill="white" stroke="#666666" points="527,-230.5 373,-230.5 373,-211.5 527,-211.5 527,-230.5"/>
<text text-anchor="middle" x="450" y="-218.5" font-family="Helvetica,sans-Serif" font-size="10.00">lamina::matrix_determinant</text>
</a>
</g>
</g>
<!-- Node19&#45;&gt;Node22 -->
<g id="edge33_Node000019_Node000022" class="edge">
<title>Node19&#45;&gt;Node22</title>
<g id="a_edge33_Node000019_Node000022"><a xlink:title=" ">
<path fill="none" stroke="#63b8ff" d="M565.71,-221C552.92,-221 539.78,-221 527.17,-221"/>
<polygon fill="#63b8ff" stroke="#63b8ff" points="565.87,-224.5 575.87,-221 565.87,-217.5 565.87,-224.5"/>
</a>
</g>
</g>
<!-- Node21 -->
<g id="Node000021" class="node">
<title>Node21</title>
<g id="a_Node000021"><a xlink:href="../../dc/d25/classSymbolicExpr.html#a83879d764986be80edbedc769b96224a" target="_top" xlink:title="计算矩阵的特征值。">
<polygon fill="white" stroke="#666666" points="337,-146.5 188,-146.5 188,-127.5 337,-127.5 337,-146.5"/>
<text text-anchor="middle" x="262.5" y="-134.5" font-family="Helvetica,sans-Serif" font-size="10.00">SymbolicExpr::eigenvalues</text>
</a>
</g>
</g>
<!-- Node20&#45;&gt;Node21 -->
<g id="edge30_Node000020_Node000021" class="edge">
<title>Node20&#45;&gt;Node21</title>
<g id="a_edge30_Node000020_Node000021"><a xlink:title=" ">
<path fill="none" stroke="#63b8ff" d="M374.22,-146.55C361.98,-145.49 349.31,-144.4 337.1,-143.35"/>
<polygon fill="#63b8ff" stroke="#63b8ff" points="374.12,-150.05 384.38,-147.43 374.72,-143.08 374.12,-150.05"/>
</a>
</g>
</g>
<!-- Node21&#45;&gt;Node17 -->
<g id="edge31_Node000021_Node000017" class="edge">
<title>Node21&#45;&gt;Node17</title>
<g id="a_edge31_Node000021_Node000017"><a xlink:title=" ">
<path fill="none" stroke="#63b8ff" d="M177.8,-129.74C169.23,-129 160.57,-128.25 152.11,-127.51"/>
<polygon fill="#63b8ff" stroke="#63b8ff" points="177.52,-133.23 187.79,-130.61 178.13,-126.26 177.52,-133.23"/>
</a>
</g>
</g>
<!-- Node25 -->
<g id="Node000025" class="node">
<title>Node25</title>
<g id="a_Node000025"><a xlink:href="../../dc/d25/classSymbolicExpr.html#afa1c1c57bb6c77da5d016f69eaa60703" target="_top" xlink:title="计算矩阵的逆。">
<polygon fill="white" stroke="#666666" points="512.5,-285.5 387.5,-285.5 387.5,-266.5 512.5,-266.5 512.5,-285.5"/>
<text text-anchor="middle" x="450" y="-273.5" font-family="Helvetica,sans-Serif" font-size="10.00">SymbolicExpr::inverse</text>
</a>
</g>
</g>
<!-- Node24&#45;&gt;Node25 -->
<g id="edge36_Node000024_Node000025" class="edge">
<title>Node24&#45;&gt;Node25</title>
<g id="a_edge36_Node000024_Node000025"><a xlink:title=" ">
<path fill="none" stroke="#63b8ff" d="M586.58,-276C562.99,-276 536.22,-276 512.73,-276"/>
<polygon fill="#63b8ff" stroke="#63b8ff" points="586.83,-279.5 596.83,-276 586.83,-272.5 586.83,-279.5"/>
</a>
</g>
</g>
<!-- Node26 -->
<g id="Node000026" class="node">
<title>Node26</title>
<g id="a_Node000026"><a xlink:href="../../d1/d42/namespacelamina.html#a972455b000c18e71aefd4a84a5708edf" target="_top" xlink:title="计算符号矩阵的逆矩阵">
<polygon fill="white" stroke="#666666" points="327.5,-285.5 197.5,-285.5 197.5,-266.5 327.5,-266.5 327.5,-285.5"/>
<text text-anchor="middle" x="262.5" y="-273.5" font-family="Helvetica,sans-Serif" font-size="10.00">lamina::matrix_inverse</text>
</a>
</g>
</g>
<!-- Node25&#45;&gt;Node26 -->
<g id="edge37_Node000025_Node000026" class="edge">
<title>Node25&#45;&gt;Node26</title>
<g id="a_edge37_Node000025_Node000026"><a xlink:title=" ">
<path fill="none" stroke="#63b8ff" d="M377.43,-276C361.06,-276 343.75,-276 327.7,-276"/>
<polygon fill="#63b8ff" stroke="#63b8ff" points="377.49,-279.5 387.49,-276 377.49,-272.5 377.49,-279.5"/>
</a>
</g>
</g>
<!-- Node28&#45;&gt;Node28 -->
<g id="edge43_Node000028_Node000028" class="edge">
<title>Node28&#45;&gt;Node28</title>
<g id="a_edge43_Node000028_Node000028"><a xlink:title=" ">
<path fill="none" stroke="#63b8ff" d="M895.91,-231.46C890.79,-236.24 879.32,-239.5 861.5,-239.5 832.98,-239.5 820.73,-231.15 824.74,-221.6"/>
<polygon fill="#63b8ff" stroke="#63b8ff" points="899.35,-232.14 898.26,-221.6 892.54,-230.51 899.35,-232.14"/>
</a>
</g>
</g>
<!-- Node29 -->
<g id="Node000029" class="node">
<title>Node29</title>
<g id="a_Node000029"><a xlink:href="../../d3/db9/namespacelamina_1_1anonymous__namespace_02integration_8cpp_03.html#a75df8f775ee90cf7fa1e27b0e20221e9" target="_top" xlink:title=" ">
<polygon fill="white" stroke="#666666" points="738,-175.5 563,-175.5 563,-134.5 738,-134.5 738,-175.5"/>
<text text-anchor="start" x="571" y="-163.5" font-family="Helvetica,sans-Serif" font-size="10.00">lamina::anonymous_namespace</text>
<text text-anchor="start" x="571" y="-152.5" font-family="Helvetica,sans-Serif" font-size="10.00">{integration::cpp}::trig</text>
<text text-anchor="middle" x="650.5" y="-141.5" font-family="Helvetica,sans-Serif" font-size="10.00">_extract_factor</text>
</a>
</g>
</g>
<!-- Node28&#45;&gt;Node29 -->
<g id="edge41_Node000028_Node000029" class="edge">
<title>Node28&#45;&gt;Node29</title>
<g id="a_edge41_Node000028_Node000029"><a xlink:title=" ">
<path fill="none" stroke="#63b8ff" d="M763.97,-179.75C755.41,-177.87 746.77,-175.97 738.29,-174.1"/>
<polygon fill="#63b8ff" stroke="#63b8ff" points="763.46,-183.23 773.98,-181.96 764.97,-176.39 763.46,-183.23"/>
</a>
</g>
</g>
<!-- Node29&#45;&gt;Node29 -->
<g id="edge42_Node000029_Node000029" class="edge">
<title>Node29&#45;&gt;Node29</title>
<g id="a_edge42_Node000029_Node000029"><a xlink:title=" ">
<path fill="none" stroke="#63b8ff" d="M684.91,-185.46C679.79,-190.24 668.32,-193.5 650.5,-193.5 621.98,-193.5 609.73,-185.15 613.74,-175.6"/>
<polygon fill="#63b8ff" stroke="#63b8ff" points="688.35,-186.14 687.26,-175.6 681.54,-184.51 688.35,-186.14"/>
</a>
</g>
</g>
<!-- Node31 -->
<g id="Node000031" class="node">
<title>Node31</title>
<g id="a_Node000031"><a xlink:href="../../d6/d86/classlamina_1_1LinearSubstitutionStrategy.html#a81a69fc739ab7b461f1c0b7263842f8c" target="_top" xlink:title="尝试对表达式进行积分">
<polygon fill="white" stroke="#666666" points="723,-116 578,-116 578,-86 723,-86 723,-116"/>
<text text-anchor="start" x="586" y="-104" font-family="Helvetica,sans-Serif" font-size="10.00">lamina::LinearSubstitution</text>
<text text-anchor="middle" x="650.5" y="-93" font-family="Helvetica,sans-Serif" font-size="10.00">Strategy::try_integrate</text>
</a>
</g>
</g>
<!-- Node30&#45;&gt;Node31 -->
<g id="edge45_Node000030_Node000031" class="edge">
<title>Node30&#45;&gt;Node31</title>
<g id="a_edge45_Node000030_Node000031"><a xlink:title=" ">
<path fill="none" stroke="#63b8ff" d="M782.13,-129.75C761.61,-125.24 739.67,-120.41 719.73,-116.02"/>
<polygon fill="#63b8ff" stroke="#63b8ff" points="781.55,-133.21 792.07,-131.94 783.05,-126.37 781.55,-133.21"/>
</a>
</g>
</g>
<!-- Node33&#45;&gt;Node11 -->
<g id="edge48_Node000033_Node000011" class="edge">
<title>Node33&#45;&gt;Node11</title>
<g id="a_edge48_Node000033_Node000011"><a xlink:title=" ">
<path fill="none" stroke="#63b8ff" d="M1171.91,-398.23C1008.94,-394.56 638.11,-386.21 502.17,-383.15"/>
<polygon fill="#63b8ff" stroke="#63b8ff" points="1172.26,-401.74 1182.34,-398.47 1172.42,-394.74 1172.26,-401.74"/>
</a>
</g>
</g>
</g>
</svg>

<g id="navigator" transform="translate(0 0)" fill="#404254">
  <rect fill="#f2f5e9" fill-opacity="0.5" stroke="#606060" stroke-width=".5" x="0" y="0" width="60" height="60"/>
  <use id="zoomplus" xlink:href="#zoomPlus" x="17" y="9" onmousedown="handleZoom(evt,'in')"/>
  <use id="zoomminus" xlink:href="#zoomMin" x="42" y="9" onmousedown="handleZoom(evt,'out')"/>
  <use id="reset" xlink:href="#resetDef" x="30" y="36" onmousedown="handleReset()"/>
   <use id="arrowup" xlink:href="#arrowUp" x="0" y="0" onmousedown="handlePan(0,-1)"/>
  <use id="arrowright" xlink:href="#arrowRight" x="0" y="0" onmousedown="handlePan(1,0)"/>
  <use id="arrowdown" xlink:href="#arrowDown" x="0" y="0" onmousedown="handlePan(0,1)"/>
  <use id="arrowleft" xlink:href="#arrowLeft" x="0" y="0" onmousedown="handlePan(-1,0)"/>
</g>
<svg viewBox="0 0 15 15" width="100%" height="30px" preserveAspectRatio="xMaxYMin meet">
 <g id="arrow_out" transform="scale(0.3 0.3)">
  <a xlink:href="classNormalizationVisitor_abefa11f3ddef7d3918dec3102f6fbd40_icgraph_org.svg" target="_base">
   <rect id="button" ry="5" rx="5" y="6" x="6" height="38" width="38"
        fill="#f2f5e9" fill-opacity="0.5" stroke="#606060" stroke-width="1.0"/>
   <path id="arrow"
     d="M 11.500037,31.436501 C 11.940474,20.09759 22.043105,11.32322 32.158766,21.979434 L 37.068811,17.246167 C 37.068811,17.246167 37.088388,32 37.088388,32 L 22.160133,31.978069 C 22.160133,31.978069 26.997745,27.140456 26.997745,27.140456 C 18.528582,18.264221 13.291696,25.230495 11.500037,31.436501 z"
     style="fill:#404040;"/>
  </a>
 </g>
</svg>

<style type='text/css'>
<![CDATA[
[data-mouse-over-selected='false'] { opacity: 0.7; }
[data-mouse-over-selected='true']  { opacity: 1.0; }
]]>
</style>
<script type="application/ecmascript"><![CDATA[
document.addEventListener('DOMContentLoaded', (event) => {
  highlightEdges();
  highlightAdjacentNodes();
});
]]></script>
</svg>
