<?xml version="1.0" encoding="UTF-8" standalone="no"?>
<!DOCTYPE svg PUBLIC "-//W3C//DTD SVG 1.1//EN"
 "http://www.w3.org/Graphics/SVG/1.1/DTD/svg11.dtd">
<!-- Generated by graphviz version 2.43.0 (0)
 -->
<!-- Title: NormalizationVisitor::visit Pages: 1 -->
<svg width="448pt" height="320pt"
 viewBox="0.00 0.00 448.00 319.84" xmlns="http://www.w3.org/2000/svg" xmlns:xlink="http://www.w3.org/1999/xlink">

<svg id="main" version="1.1" xmlns="http://www.w3.org/2000/svg" xmlns:xlink="http://www.w3.org/1999/xlink" xml:space="preserve" onload="init(evt)">
<style type="text/css"><![CDATA[
.node, .edge {opacity: 0.7;}
.node.selected, .edge.selected {opacity: 1;}
.edge:hover path { stroke: red; }
.edge:hover polygon { stroke: red; fill: red; }
]]></style>
<script type="application/ecmascript" xlink:href="../../svg.min.js"/>
<svg id="graph" class="graph">
<g id="graph0" class="graph" transform="scale(1 1) rotate(0) translate(4 315.84)">
<title>NormalizationVisitor::visit</title>
<!-- Node1 -->
<g id="Node000001" class="node">
<title>Node1</title>
<g id="a_Node000001"><a xlink:title=" ">
<polygon fill="#999999" stroke="#666666" points="117,-165.5 0,-165.5 0,-135.5 117,-135.5 117,-165.5"/>
<text text-anchor="start" x="8" y="-153.5" font-family="Helvetica,sans-Serif" font-size="10.00">NormalizationVisitor</text>
<text text-anchor="middle" x="58.5" y="-142.5" font-family="Helvetica,sans-Serif" font-size="10.00">::visit</text>
</a>
</g>
</g>
<!-- Node2 -->
<g id="Node000002" class="node">
<title>Node2</title>
<g id="a_Node000002"><a xlink:href="../../dd/d5e/normalization__visitor_8hpp.html#aa5d9f41fd71bafcf711c447fb9dbc61f" target="_top" xlink:title="两个数值节点相加">
<polygon fill="white" stroke="#666666" points="429,-290 346,-290 346,-271 429,-271 429,-290"/>
<text text-anchor="middle" x="387.5" y="-278" font-family="Helvetica,sans-Serif" font-size="10.00">add_numbers</text>
</a>
</g>
</g>
<!-- Node1&#45;&gt;Node2 -->
<g id="edge1_Node000001_Node000002" class="edge">
<title>Node1&#45;&gt;Node2</title>
<g id="a_edge1_Node000001_Node000002"><a xlink:title=" ">
<path fill="none" stroke="#63b8ff" d="M64.11,-165.72C74.32,-196.4 102.07,-265.06 153,-292.5 216.05,-326.48 303.12,-307.92 351.14,-293.1"/>
<polygon fill="#63b8ff" stroke="#63b8ff" points="352.31,-296.4 360.77,-290.01 350.18,-289.73 352.31,-296.4"/>
</a>
</g>
</g>
<!-- Node3 -->
<g id="Node000003" class="node">
<title>Node3</title>
<g id="a_Node000003"><a xlink:href="../../d3/da1/classNormalizationVisitor.html#a6daa7a65d8c26c7b3431604010bc7607" target="_top" xlink:title="展开两个节点的乘积（分配律）">
<polygon fill="white" stroke="#666666" points="284.5,-265.5 167.5,-265.5 167.5,-235.5 284.5,-235.5 284.5,-265.5"/>
<text text-anchor="start" x="175.5" y="-253.5" font-family="Helvetica,sans-Serif" font-size="10.00">NormalizationVisitor</text>
<text text-anchor="middle" x="226" y="-242.5" font-family="Helvetica,sans-Serif" font-size="10.00">::expand_product</text>
</a>
</g>
</g>
<!-- Node1&#45;&gt;Node3 -->
<g id="edge2_Node000001_Node000003" class="edge">
<title>Node1&#45;&gt;Node3</title>
<g id="a_edge2_Node000001_Node000003"><a xlink:title=" ">
<path fill="none" stroke="#63b8ff" d="M76.45,-165.6C94.47,-181.1 124.28,-205.2 153,-221.5 159.28,-225.07 166.1,-228.41 172.94,-231.47"/>
<polygon fill="#63b8ff" stroke="#63b8ff" points="171.67,-234.74 182.24,-235.46 174.43,-228.3 171.67,-234.74"/>
</a>
</g>
</g>
<!-- Node4 -->
<g id="Node000004" class="node">
<title>Node4</title>
<g id="a_Node000004"><a xlink:href="../../dd/d5e/normalization__visitor_8hpp.html#abfa1a6e4e7ce307edd898a8527939164" target="_top" xlink:title="两个数值节点相乘">
<polygon fill="white" stroke="#666666" points="440,-235 335,-235 335,-216 440,-216 440,-235"/>
<text text-anchor="middle" x="387.5" y="-223" font-family="Helvetica,sans-Serif" font-size="10.00">multiply_numbers</text>
</a>
</g>
</g>
<!-- Node1&#45;&gt;Node4 -->
<g id="edge10_Node000001_Node000004" class="edge">
<title>Node1&#45;&gt;Node4</title>
<g id="a_edge10_Node000001_Node000004"><a xlink:title=" ">
<path fill="none" stroke="#63b8ff" d="M91.32,-165.55C109.11,-173.43 131.9,-182.62 153,-188.5 210.1,-204.4 277.08,-214.13 324.62,-219.6"/>
<polygon fill="#63b8ff" stroke="#63b8ff" points="324.43,-223.1 334.76,-220.74 325.21,-216.15 324.43,-223.1"/>
</a>
</g>
</g>
<!-- Node5 -->
<g id="Node000005" class="node">
<title>Node5</title>
<g id="a_Node000005"><a xlink:href="../../d8/da7/classRational.html#afa11edc5ce710fc3cd2a49c824b3e37a" target="_top" xlink:title="获取分母">
<polygon fill="white" stroke="#666666" points="299,-179 153,-179 153,-160 299,-160 299,-179"/>
<text text-anchor="middle" x="226" y="-167" font-family="Helvetica,sans-Serif" font-size="10.00">Rational::get_denominator</text>
</a>
</g>
</g>
<!-- Node1&#45;&gt;Node5 -->
<g id="edge6_Node000001_Node000005" class="edge">
<title>Node1&#45;&gt;Node5</title>
<g id="a_edge6_Node000001_Node000005"><a xlink:title=" ">
<path fill="none" stroke="#63b8ff" d="M117.38,-157.15C125.62,-158.09 134.23,-159.08 142.82,-160.07"/>
<polygon fill="#63b8ff" stroke="#63b8ff" points="142.55,-163.56 152.89,-161.22 143.35,-156.6 142.55,-163.56"/>
</a>
</g>
</g>
<!-- Node6 -->
<g id="Node000006" class="node">
<title>Node6</title>
<g id="a_Node000006"><a xlink:href="../../d8/da7/classRational.html#a1e6492b4eed41d7a0491c5b69f7ff15f" target="_top" xlink:title="获取分子">
<polygon fill="white" stroke="#666666" points="293.5,-142 158.5,-142 158.5,-123 293.5,-123 293.5,-142"/>
<text text-anchor="middle" x="226" y="-130" font-family="Helvetica,sans-Serif" font-size="10.00">Rational::get_numerator</text>
</a>
</g>
</g>
<!-- Node1&#45;&gt;Node6 -->
<g id="edge7_Node000001_Node000006" class="edge">
<title>Node1&#45;&gt;Node6</title>
<g id="a_edge7_Node000001_Node000006"><a xlink:title=" ">
<path fill="none" stroke="#63b8ff" d="M117.38,-144.2C127.41,-143.11 137.98,-141.96 148.42,-140.83"/>
<polygon fill="#63b8ff" stroke="#63b8ff" points="148.8,-144.31 158.36,-139.75 148.04,-137.35 148.8,-144.31"/>
</a>
</g>
</g>
<!-- Node7 -->
<g id="Node000007" class="node">
<title>Node7</title>
<g id="a_Node000007"><a xlink:href="../../d3/da1/classNormalizationVisitor.html#abefa11f3ddef7d3918dec3102f6fbd40" target="_top" xlink:title="获取规范化结果">
<polygon fill="white" stroke="#666666" points="284.5,-104.5 167.5,-104.5 167.5,-74.5 284.5,-74.5 284.5,-104.5"/>
<text text-anchor="start" x="175.5" y="-92.5" font-family="Helvetica,sans-Serif" font-size="10.00">NormalizationVisitor</text>
<text text-anchor="middle" x="226" y="-81.5" font-family="Helvetica,sans-Serif" font-size="10.00">::get_result</text>
</a>
</g>
</g>
<!-- Node1&#45;&gt;Node7 -->
<g id="edge8_Node000001_Node000007" class="edge">
<title>Node1&#45;&gt;Node7</title>
<g id="a_edge8_Node000001_Node000007"><a xlink:title=" ">
<path fill="none" stroke="#63b8ff" d="M97.6,-135.5C114.52,-128.92 134.71,-121.2 153,-114.5 158.87,-112.35 165.03,-110.14 171.16,-107.97"/>
<polygon fill="#63b8ff" stroke="#63b8ff" points="172.47,-111.22 180.75,-104.6 170.15,-104.62 172.47,-111.22"/>
</a>
</g>
</g>
<!-- Node8 -->
<g id="Node000008" class="node">
<title>Node8</title>
<g id="a_Node000008"><a xlink:href="../../da/d5b/classBigInt.html#a6ae37e804e0989cb245f32f90a2d5f64" target="_top" xlink:title="判断是否为零">
<polygon fill="white" stroke="#666666" points="269,-56 183,-56 183,-37 269,-37 269,-56"/>
<text text-anchor="middle" x="226" y="-44" font-family="Helvetica,sans-Serif" font-size="10.00">BigInt::is_zero</text>
</a>
</g>
</g>
<!-- Node1&#45;&gt;Node8 -->
<g id="edge9_Node000001_Node000008" class="edge">
<title>Node1&#45;&gt;Node8</title>
<g id="a_edge9_Node000001_Node000008"><a xlink:title=" ">
<path fill="none" stroke="#63b8ff" d="M72.1,-135.2C88.68,-116.07 119.66,-83.63 153,-65.5 159.33,-62.06 166.31,-59.22 173.36,-56.88"/>
<polygon fill="#63b8ff" stroke="#63b8ff" points="174.39,-60.22 182.96,-53.99 172.38,-53.52 174.39,-60.22"/>
</a>
</g>
</g>
<!-- Node9 -->
<g id="Node000009" class="node">
<title>Node9</title>
<g id="a_Node000009"><a xlink:href="../../da/d5b/classBigInt.html#acd9ec152950d6a11a2843f6f0cb9487b" target="_top" xlink:title="转换为浮点数">
<polygon fill="white" stroke="#666666" points="275.5,-19 176.5,-19 176.5,0 275.5,0 275.5,-19"/>
<text text-anchor="middle" x="226" y="-7" font-family="Helvetica,sans-Serif" font-size="10.00">BigInt::to_double</text>
</a>
</g>
</g>
<!-- Node1&#45;&gt;Node9 -->
<g id="edge11_Node000001_Node000009" class="edge">
<title>Node1&#45;&gt;Node9</title>
<g id="a_edge11_Node000001_Node000009"><a xlink:title=" ">
<path fill="none" stroke="#63b8ff" d="M66.66,-135.37C79.88,-109.15 110.68,-55.41 153,-27.5 157.26,-24.69 161.93,-22.32 166.77,-20.32"/>
<polygon fill="#63b8ff" stroke="#63b8ff" points="168.02,-23.59 176.24,-16.91 165.65,-17 168.02,-23.59"/>
</a>
</g>
</g>
<!-- Node3&#45;&gt;Node2 -->
<g id="edge3_Node000003_Node000002" class="edge">
<title>Node3&#45;&gt;Node2</title>
<g id="a_edge3_Node000003_Node000002"><a xlink:title=" ">
<path fill="none" stroke="#63b8ff" d="M284.58,-261.33C301.43,-264.5 319.71,-267.94 336.08,-271.02"/>
<polygon fill="#63b8ff" stroke="#63b8ff" points="335.52,-274.47 345.99,-272.88 336.81,-267.59 335.52,-274.47"/>
</a>
</g>
</g>
<!-- Node3&#45;&gt;Node3 -->
<g id="edge4_Node000003_Node000003" class="edge">
<title>Node3&#45;&gt;Node3</title>
<g id="a_edge4_Node000003_Node000003"><a xlink:title=" ">
<path fill="none" stroke="#63b8ff" d="M197.88,-265.78C191.62,-274.91 201,-283.5 226,-283.5 240.84,-283.5 250.18,-280.47 254.01,-276.1"/>
<polygon fill="#63b8ff" stroke="#63b8ff" points="257.51,-275.82 254.12,-265.78 250.51,-275.73 257.51,-275.82"/>
</a>
</g>
</g>
<!-- Node3&#45;&gt;Node4 -->
<g id="edge5_Node000003_Node000004" class="edge">
<title>Node3&#45;&gt;Node4</title>
<g id="a_edge5_Node000003_Node000004"><a xlink:title=" ">
<path fill="none" stroke="#63b8ff" d="M284.58,-241.47C297.67,-239.42 311.62,-237.24 324.86,-235.16"/>
<polygon fill="#63b8ff" stroke="#63b8ff" points="325.49,-238.61 334.83,-233.6 324.4,-231.69 325.49,-238.61"/>
</a>
</g>
</g>
<!-- Node10 -->
<g id="Node000010" class="node">
<title>Node10</title>
<g id="a_Node000010"><a xlink:href="../../da/d5b/classBigInt.html#a1c516f24b4bc5b93f574e70d1ff45756" target="_top" xlink:title=" ">
<polygon fill="white" stroke="#666666" points="423.5,-19 351.5,-19 351.5,0 423.5,0 423.5,-19"/>
<text text-anchor="middle" x="387.5" y="-7" font-family="Helvetica,sans-Serif" font-size="10.00">BigInt::zero</text>
</a>
</g>
</g>
<!-- Node9&#45;&gt;Node10 -->
<g id="edge12_Node000009_Node000010" class="edge">
<title>Node9&#45;&gt;Node10</title>
<g id="a_edge12_Node000009_Node000010"><a xlink:title=" ">
<path fill="none" stroke="#63b8ff" d="M275.72,-9.5C296.57,-9.5 320.77,-9.5 341.22,-9.5"/>
<polygon fill="#63b8ff" stroke="#63b8ff" points="341.23,-13 351.23,-9.5 341.23,-6 341.23,-13"/>
</a>
</g>
</g>
</g>
</svg>
</svg>

<style type='text/css'>
<![CDATA[
[data-mouse-over-selected='false'] { opacity: 0.7; }
[data-mouse-over-selected='true']  { opacity: 1.0; }
]]>
</style>
<script type="application/ecmascript"><![CDATA[
document.addEventListener('DOMContentLoaded', (event) => {
  highlightEdges();
  highlightAdjacentNodes();
});
]]></script>
</svg>
