<?xml version="1.0" encoding="UTF-8" standalone="no"?>
<!DOCTYPE svg PUBLIC "-//W3C//DTD SVG 1.1//EN"
 "http://www.w3.org/Graphics/SVG/1.1/DTD/svg11.dtd">
<!-- Generated by graphviz version 2.43.0 (0)
 -->
<!-- Title: lamina::ModInt::ModInt Pages: 1 -->
<svg width="496pt" height="214pt"
 viewBox="0.00 0.00 496.00 214.00" xmlns="http://www.w3.org/2000/svg" xmlns:xlink="http://www.w3.org/1999/xlink">
<g id="graph0" class="graph" transform="scale(1 1) rotate(0) translate(4 210)">
<title>lamina::ModInt::ModInt</title>
<!-- Node1 -->
<g id="Node000001" class="node">
<title>Node1</title>
<g id="a_Node000001"><a xlink:title="默认构造，值为 0，模为 2">
<polygon fill="#999999" stroke="#666666" points="488,-111 358,-111 358,-92 488,-92 488,-111"/>
<text text-anchor="middle" x="423" y="-99" font-family="Helvetica,sans-Serif" font-size="10.00">lamina::ModInt::ModInt</text>
</a>
</g>
</g>
<!-- Node2 -->
<g id="Node000002" class="node">
<title>Node2</title>
<g id="a_Node000002"><a xlink:href="../../dc/d15/classlamina_1_1ModInt.html#aad166c2a3dc94a51a30dcee26f65910b" target="_top" xlink:title="求模逆元">
<polygon fill="white" stroke="#666666" points="315,-206 183,-206 183,-187 315,-187 315,-206"/>
<text text-anchor="middle" x="249" y="-194" font-family="Helvetica,sans-Serif" font-size="10.00">lamina::ModInt::inverse</text>
</a>
</g>
</g>
<!-- Node1&#45;&gt;Node2 -->
<g id="edge1_Node000001_Node000002" class="edge">
<title>Node1&#45;&gt;Node2</title>
<g id="a_edge1_Node000001_Node000002"><a xlink:title=" ">
<path fill="none" stroke="#63b8ff" d="M402.96,-117.64C383.62,-133.38 352.27,-157.14 322,-172.5 310.6,-178.28 297.51,-183.13 285.63,-186.92"/>
<polygon fill="#63b8ff" stroke="#63b8ff" points="405.24,-120.29 410.72,-111.23 400.78,-114.9 405.24,-120.29"/>
</a>
</g>
</g>
<!-- Node4 -->
<g id="Node000004" class="node">
<title>Node4</title>
<g id="a_Node000004"><a xlink:href="../../dc/d15/classlamina_1_1ModInt.html#a6053ad360ad27bc39e464b603f3f10e0" target="_top" xlink:title="模幂运算">
<polygon fill="white" stroke="#666666" points="128,-169 12,-169 12,-150 128,-150 128,-169"/>
<text text-anchor="middle" x="70" y="-157" font-family="Helvetica,sans-Serif" font-size="10.00">lamina::ModInt::pow</text>
</a>
</g>
</g>
<!-- Node1&#45;&gt;Node4 -->
<g id="edge8_Node000001_Node000004" class="edge">
<title>Node1&#45;&gt;Node4</title>
<g id="a_edge8_Node000001_Node000004"><a xlink:title=" ">
<path fill="none" stroke="#63b8ff" d="M391.77,-115.13C372.26,-123.31 346.11,-133.13 322,-138.5 256.59,-153.05 179.54,-157.71 128.23,-159.1"/>
<polygon fill="#63b8ff" stroke="#63b8ff" points="393.23,-118.31 401.05,-111.16 390.48,-111.88 393.23,-118.31"/>
</a>
</g>
</g>
<!-- Node5 -->
<g id="Node000005" class="node">
<title>Node5</title>
<g id="a_Node000005"><a xlink:href="../../dc/d15/classlamina_1_1ModInt.html#ab69331f18365a1a4010d965548ecae21" target="_top" xlink:title="模乘法">
<polygon fill="white" stroke="#666666" points="320.5,-130 177.5,-130 177.5,-111 320.5,-111 320.5,-130"/>
<text text-anchor="middle" x="249" y="-118" font-family="Helvetica,sans-Serif" font-size="10.00">lamina::ModInt::operator*</text>
</a>
</g>
</g>
<!-- Node1&#45;&gt;Node5 -->
<g id="edge4_Node000001_Node000005" class="edge">
<title>Node1&#45;&gt;Node5</title>
<g id="a_edge4_Node000001_Node000005"><a xlink:title=" ">
<path fill="none" stroke="#63b8ff" d="M347.88,-109.69C338.88,-110.68 329.7,-111.7 320.75,-112.69"/>
<polygon fill="#63b8ff" stroke="#63b8ff" points="348.4,-113.15 357.95,-108.57 347.63,-106.19 348.4,-113.15"/>
</a>
</g>
</g>
<!-- Node6 -->
<g id="Node000006" class="node">
<title>Node6</title>
<g id="a_Node000006"><a xlink:href="../../dc/d15/classlamina_1_1ModInt.html#abdde468f840a4a77b03d528d389bdf64" target="_top" xlink:title="模加法">
<polygon fill="white" stroke="#666666" points="322,-93 176,-93 176,-74 322,-74 322,-93"/>
<text text-anchor="middle" x="249" y="-81" font-family="Helvetica,sans-Serif" font-size="10.00">lamina::ModInt::operator+</text>
</a>
</g>
</g>
<!-- Node1&#45;&gt;Node6 -->
<g id="edge5_Node000001_Node000006" class="edge">
<title>Node1&#45;&gt;Node6</title>
<g id="a_edge5_Node000001_Node000006"><a xlink:title=" ">
<path fill="none" stroke="#63b8ff" d="M348.01,-93.76C339.45,-92.86 330.73,-91.95 322.2,-91.06"/>
<polygon fill="#63b8ff" stroke="#63b8ff" points="347.64,-97.24 357.95,-94.8 348.37,-90.28 347.64,-97.24"/>
</a>
</g>
</g>
<!-- Node7 -->
<g id="Node000007" class="node">
<title>Node7</title>
<g id="a_Node000007"><a xlink:href="../../dc/d15/classlamina_1_1ModInt.html#af413fa4ad397c2ac98e458d7245066ac" target="_top" xlink:title="取负">
<polygon fill="white" stroke="#666666" points="319.5,-56 178.5,-56 178.5,-37 319.5,-37 319.5,-56"/>
<text text-anchor="middle" x="249" y="-44" font-family="Helvetica,sans-Serif" font-size="10.00">lamina::ModInt::operator&#45;</text>
</a>
</g>
</g>
<!-- Node1&#45;&gt;Node7 -->
<g id="edge6_Node000001_Node000007" class="edge">
<title>Node1&#45;&gt;Node7</title>
<g id="a_edge6_Node000001_Node000007"><a xlink:title=" ">
<path fill="none" stroke="#63b8ff" d="M388.86,-88.2C369.53,-80.71 344.59,-71.48 322,-64.5 312.15,-61.46 301.43,-58.56 291.34,-56.01"/>
<polygon fill="#63b8ff" stroke="#63b8ff" points="387.82,-91.55 398.41,-91.94 390.37,-85.03 387.82,-91.55"/>
</a>
</g>
</g>
<!-- Node8 -->
<g id="Node000008" class="node">
<title>Node8</title>
<g id="a_Node000008"><a xlink:href="../../dc/d15/classlamina_1_1ModInt.html#ad003531c5e83d9260c9a5cd13c314123" target="_top" xlink:title="模减法">
<polygon fill="white" stroke="#666666" points="319.5,-19 178.5,-19 178.5,0 319.5,0 319.5,-19"/>
<text text-anchor="middle" x="249" y="-7" font-family="Helvetica,sans-Serif" font-size="10.00">lamina::ModInt::operator&#45;</text>
</a>
</g>
</g>
<!-- Node1&#45;&gt;Node8 -->
<g id="edge7_Node000001_Node000008" class="edge">
<title>Node1&#45;&gt;Node8</title>
<g id="a_edge7_Node000001_Node000008"><a xlink:title=" ">
<path fill="none" stroke="#63b8ff" d="M404.26,-84.94C385.29,-68.11 353.64,-42.44 322,-27.5 314.89,-24.14 307.08,-21.37 299.31,-19.08"/>
<polygon fill="#63b8ff" stroke="#63b8ff" points="402.04,-87.66 411.81,-91.77 406.74,-82.47 402.04,-87.66"/>
</a>
</g>
</g>
<!-- Node3 -->
<g id="Node000003" class="node">
<title>Node3</title>
<g id="a_Node000003"><a xlink:href="../../dc/d15/classlamina_1_1ModInt.html#a18c2b788799657a170a6c525344a0875" target="_top" xlink:title="模除法（乘以逆元）">
<polygon fill="white" stroke="#666666" points="140,-206 0,-206 0,-187 140,-187 140,-206"/>
<text text-anchor="middle" x="70" y="-194" font-family="Helvetica,sans-Serif" font-size="10.00">lamina::ModInt::operator/</text>
</a>
</g>
</g>
<!-- Node2&#45;&gt;Node3 -->
<g id="edge2_Node000002_Node000003" class="edge">
<title>Node2&#45;&gt;Node3</title>
<g id="a_edge2_Node000002_Node000003"><a xlink:title=" ">
<path fill="none" stroke="#63b8ff" d="M172.62,-196.5C161.85,-196.5 150.82,-196.5 140.18,-196.5"/>
<polygon fill="#63b8ff" stroke="#63b8ff" points="172.85,-200 182.85,-196.5 172.85,-193 172.85,-200"/>
</a>
</g>
</g>
<!-- Node2&#45;&gt;Node4 -->
<g id="edge3_Node000002_Node000004" class="edge">
<title>Node2&#45;&gt;Node4</title>
<g id="a_edge3_Node000002_Node000004"><a xlink:title=" ">
<path fill="none" stroke="#63b8ff" d="M192.58,-184.92C168.2,-179.82 139.89,-173.9 116.73,-169.06"/>
<polygon fill="#63b8ff" stroke="#63b8ff" points="191.91,-188.35 202.42,-186.97 193.35,-181.5 191.91,-188.35"/>
</a>
</g>
</g>
</g>
</svg>
