<?xml version="1.0" encoding="UTF-8" standalone="no"?>
<!DOCTYPE svg PUBLIC "-//W3C//DTD SVG 1.1//EN"
 "http://www.w3.org/Graphics/SVG/1.1/DTD/svg11.dtd">
<!-- Generated by graphviz version 2.43.0 (0)
 -->
<!-- Title: lamina::detail::MonomialEnumerator::push Pages: 1 -->
<svg width="689pt" height="86pt"
 viewBox="0.00 0.00 689.00 86.00" xmlns="http://www.w3.org/2000/svg" xmlns:xlink="http://www.w3.org/1999/xlink">
<g id="graph0" class="graph" transform="scale(1 1) rotate(0) translate(4 82)">
<title>lamina::detail::MonomialEnumerator::push</title>
<!-- Node1 -->
<g id="Node000001" class="node">
<title>Node1</title>
<g id="a_Node000001"><a xlink:title=" ">
<polygon fill="#999999" stroke="#666666" points="681,-54 542,-54 542,-24 681,-24 681,-54"/>
<text text-anchor="start" x="550" y="-42" font-family="Helvetica,sans-Serif" font-size="10.00">lamina::detail::Monomial</text>
<text text-anchor="middle" x="611.5" y="-31" font-family="Helvetica,sans-Serif" font-size="10.00">Enumerator::push</text>
</a>
</g>
</g>
<!-- Node2 -->
<g id="Node000002" class="node">
<title>Node2</title>
<g id="a_Node000002"><a xlink:href="../../de/d7c/classlamina_1_1detail_1_1MonomialEnumerator.html#a4807e00b923c46b63a47f80d676fb6db" target="_top" xlink:title="构造单项式枚举器">
<polygon fill="white" stroke="#666666" points="506,-78 321,-78 321,-48 506,-48 506,-78"/>
<text text-anchor="start" x="329" y="-66" font-family="Helvetica,sans-Serif" font-size="10.00">lamina::detail::Monomial</text>
<text text-anchor="middle" x="413.5" y="-55" font-family="Helvetica,sans-Serif" font-size="10.00">Enumerator::MonomialEnumerator</text>
</a>
</g>
</g>
<!-- Node1&#45;&gt;Node2 -->
<g id="edge1_Node000001_Node000002" class="edge">
<title>Node1&#45;&gt;Node2</title>
<g id="a_edge1_Node000001_Node000002"><a xlink:title=" ">
<path fill="none" stroke="#63b8ff" d="M531.76,-48.64C523.32,-49.68 514.67,-50.73 506.09,-51.78"/>
<polygon fill="#63b8ff" stroke="#63b8ff" points="532.45,-52.08 541.95,-47.39 531.6,-45.14 532.45,-52.08"/>
</a>
</g>
</g>
<!-- Node3 -->
<g id="Node000003" class="node">
<title>Node3</title>
<g id="a_Node000003"><a xlink:href="../../de/d7c/classlamina_1_1detail_1_1MonomialEnumerator.html#a8e799c348524df75b7c87bfd81005517" target="_top" xlink:title="获取下一个单项式">
<polygon fill="white" stroke="#666666" points="483,-30 344,-30 344,0 483,0 483,-30"/>
<text text-anchor="start" x="352" y="-18" font-family="Helvetica,sans-Serif" font-size="10.00">lamina::detail::Monomial</text>
<text text-anchor="middle" x="413.5" y="-7" font-family="Helvetica,sans-Serif" font-size="10.00">Enumerator::next</text>
</a>
</g>
</g>
<!-- Node1&#45;&gt;Node3 -->
<g id="edge2_Node000001_Node000003" class="edge">
<title>Node1&#45;&gt;Node3</title>
<g id="a_edge2_Node000001_Node000003"><a xlink:title=" ">
<path fill="none" stroke="#63b8ff" d="M531.97,-29.38C515.77,-27.4 498.83,-25.33 483.01,-23.39"/>
<polygon fill="#63b8ff" stroke="#63b8ff" points="531.6,-32.86 541.95,-30.61 532.45,-25.92 531.6,-32.86"/>
</a>
</g>
</g>
<!-- Node4 -->
<g id="Node000004" class="node">
<title>Node4</title>
<g id="a_Node000004"><a xlink:href="../../d1/d42/namespacelamina.html#a387809128cf1f5566dde45ba3b8738f6" target="_top" xlink:title="FGLM 算法：将零维理想的 Gröbner 基从源序转换到目标序">
<polygon fill="white" stroke="#666666" points="285,-24.5 164,-24.5 164,-5.5 285,-5.5 285,-24.5"/>
<text text-anchor="middle" x="224.5" y="-12.5" font-family="Helvetica,sans-Serif" font-size="10.00">lamina::fglm_convert</text>
</a>
</g>
</g>
<!-- Node3&#45;&gt;Node4 -->
<g id="edge3_Node000003_Node000004" class="edge">
<title>Node3&#45;&gt;Node4</title>
<g id="a_edge3_Node000003_Node000004"><a xlink:title=" ">
<path fill="none" stroke="#63b8ff" d="M333.87,-15C317.55,-15 300.62,-15 285.12,-15"/>
<polygon fill="#63b8ff" stroke="#63b8ff" points="333.93,-18.5 343.93,-15 333.93,-11.5 333.93,-18.5"/>
</a>
</g>
</g>
<!-- Node5 -->
<g id="Node000005" class="node">
<title>Node5</title>
<g id="a_Node000005"><a xlink:href="../../d1/d42/namespacelamina.html#a4db520f151a16a160e64695caf60f9ac" target="_top" xlink:title="将 GrevLex 序下的 Gröbner 基转换为 Lex 序">
<polygon fill="white" stroke="#666666" points="128,-24.5 0,-24.5 0,-5.5 128,-5.5 128,-24.5"/>
<text text-anchor="middle" x="64" y="-12.5" font-family="Helvetica,sans-Serif" font-size="10.00">lamina::grevlex_to_lex</text>
</a>
</g>
</g>
<!-- Node4&#45;&gt;Node5 -->
<g id="edge4_Node000004_Node000005" class="edge">
<title>Node4&#45;&gt;Node5</title>
<g id="a_edge4_Node000004_Node000005"><a xlink:title=" ">
<path fill="none" stroke="#63b8ff" d="M153.42,-15C145.02,-15 136.48,-15 128.18,-15"/>
<polygon fill="#63b8ff" stroke="#63b8ff" points="153.58,-18.5 163.58,-15 153.58,-11.5 153.58,-18.5"/>
</a>
</g>
</g>
</g>
</svg>
