<?xml version="1.0" encoding="UTF-8" standalone="no"?>
<!DOCTYPE svg PUBLIC "-//W3C//DTD SVG 1.1//EN"
 "http://www.w3.org/Graphics/SVG/1.1/DTD/svg11.dtd">
<!-- Generated by graphviz version 2.43.0 (0)
 -->
<!-- Title: lmmp_sqr_toom2_ Pages: 1 -->
<svg width="356pt" height="140pt"
 viewBox="0.00 0.00 356.00 140.00" xmlns="http://www.w3.org/2000/svg" xmlns:xlink="http://www.w3.org/1999/xlink">

<svg id="main" version="1.1" xmlns="http://www.w3.org/2000/svg" xmlns:xlink="http://www.w3.org/1999/xlink" xml:space="preserve" onload="init(evt)">
<style type="text/css"><![CDATA[
.node, .edge {opacity: 0.7;}
.node.selected, .edge.selected {opacity: 1;}
.edge:hover path { stroke: red; }
.edge:hover polygon { stroke: red; fill: red; }
]]></style>
<script type="application/ecmascript" xlink:href="../../svg.min.js"/>
<svg id="graph" class="graph">
<g id="graph0" class="graph" transform="scale(1 1) rotate(0) translate(4 136)">
<title>lmmp_sqr_toom2_</title>
<!-- Node1 -->
<g id="Node000001" class="node">
<title>Node1</title>
<g id="a_Node000001"><a xlink:title=" ">
<polygon fill="#999999" stroke="#666666" points="107,-75 0,-75 0,-56 107,-56 107,-75"/>
<text text-anchor="middle" x="53.5" y="-63" font-family="Helvetica,sans-Serif" font-size="10.00">lmmp_sqr_toom2_</text>
</a>
</g>
</g>
<!-- Node2 -->
<g id="Node000002" class="node">
<title>Node2</title>
<g id="a_Node000002"><a xlink:href="../../d6/d39/lmmpn_8h.html#a1eb04fffd70d523647b7b4ed64a438c5" target="_top" xlink:title="大数加法静态内联函数 [dst,na]=[numa,na]+[numb,nb]">
<polygon fill="white" stroke="#666666" points="222,-132 148,-132 148,-113 222,-113 222,-132"/>
<text text-anchor="middle" x="185" y="-120" font-family="Helvetica,sans-Serif" font-size="10.00">lmmp_add_</text>
</a>
</g>
</g>
<!-- Node1&#45;&gt;Node2 -->
<g id="edge1_Node000001_Node000002" class="edge">
<title>Node1&#45;&gt;Node2</title>
<g id="a_edge1_Node000001_Node000002"><a xlink:title=" ">
<path fill="none" stroke="#63b8ff" d="M76.18,-75.04C97.19,-84.29 129.27,-98.41 152.98,-108.85"/>
<polygon fill="#63b8ff" stroke="#63b8ff" points="151.69,-112.1 162.25,-112.93 154.51,-105.7 151.69,-112.1"/>
</a>
</g>
</g>
<!-- Node3 -->
<g id="Node000003" class="node">
<title>Node3</title>
<g id="a_Node000003"><a xlink:href="../../da/dc7/add__n_8c.html#afa05758121cca6aa6b21256d5a959871" target="_top" xlink:title="无进位的n位加法 [dst,n] = [numa,n] + [numb,n]">
<polygon fill="white" stroke="#666666" points="348,-113 263,-113 263,-94 348,-94 348,-113"/>
<text text-anchor="middle" x="305.5" y="-101" font-family="Helvetica,sans-Serif" font-size="10.00">lmmp_add_n_</text>
</a>
</g>
</g>
<!-- Node1&#45;&gt;Node3 -->
<g id="edge3_Node000001_Node000003" class="edge">
<title>Node1&#45;&gt;Node3</title>
<g id="a_edge3_Node000001_Node000003"><a xlink:title=" ">
<path fill="none" stroke="#63b8ff" d="M107.21,-73.51C149.96,-80.01 209.89,-89.12 252.46,-95.59"/>
<polygon fill="#63b8ff" stroke="#63b8ff" points="252.2,-99.09 262.61,-97.13 253.25,-92.17 252.2,-99.09"/>
</a>
</g>
</g>
<!-- Node4 -->
<g id="Node000004" class="node">
<title>Node4</title>
<g id="a_Node000004"><a xlink:href="../../d6/d39/lmmpn_8h.html#a27b630fe59d53b8174b5ddb04202e556" target="_top" xlink:title="大数比较函数（内联）">
<polygon fill="white" stroke="#666666" points="223.5,-56 146.5,-56 146.5,-37 223.5,-37 223.5,-56"/>
<text text-anchor="middle" x="185" y="-44" font-family="Helvetica,sans-Serif" font-size="10.00">lmmp_cmp_</text>
</a>
</g>
</g>
<!-- Node1&#45;&gt;Node4 -->
<g id="edge4_Node000001_Node000004" class="edge">
<title>Node1&#45;&gt;Node4</title>
<g id="a_edge4_Node000001_Node000004"><a xlink:title=" ">
<path fill="none" stroke="#63b8ff" d="M107.17,-57.77C116.84,-56.35 126.88,-54.88 136.39,-53.49"/>
<polygon fill="#63b8ff" stroke="#63b8ff" points="137.07,-56.92 146.46,-52.01 136.05,-50 137.07,-56.92"/>
</a>
</g>
</g>
<!-- Node5 -->
<g id="Node000005" class="node">
<title>Node5</title>
<g id="a_Node000005"><a xlink:href="../../d3/d44/sub__n_8c.html#ae0e05032a43c35021a6d6859ed51f467" target="_top" xlink:title="无借位的n位减法 [dst,n] = [numa,n] &#45; [numb,n]">
<polygon fill="white" stroke="#666666" points="227,-19 143,-19 143,0 227,0 227,-19"/>
<text text-anchor="middle" x="185" y="-7" font-family="Helvetica,sans-Serif" font-size="10.00">lmmp_sub_n_</text>
</a>
</g>
</g>
<!-- Node1&#45;&gt;Node5 -->
<g id="edge5_Node000001_Node000005" class="edge">
<title>Node1&#45;&gt;Node5</title>
<g id="a_edge5_Node000001_Node000005"><a xlink:title=" ">
<path fill="none" stroke="#63b8ff" d="M76.76,-55.87C97.74,-46.8 129.36,-33.13 152.84,-22.98"/>
<polygon fill="#63b8ff" stroke="#63b8ff" points="154.24,-26.18 162.03,-19 151.46,-19.76 154.24,-26.18"/>
</a>
</g>
</g>
<!-- Node2&#45;&gt;Node3 -->
<g id="edge2_Node000002_Node000003" class="edge">
<title>Node2&#45;&gt;Node3</title>
<g id="a_edge2_Node000002_Node000003"><a xlink:title=" ">
<path fill="none" stroke="#63b8ff" d="M222.2,-116.7C231.79,-115.16 242.35,-113.47 252.6,-111.82"/>
<polygon fill="#63b8ff" stroke="#63b8ff" points="253.39,-115.24 262.71,-110.2 252.28,-108.33 253.39,-115.24"/>
</a>
</g>
</g>
</g>
</svg>
</svg>

<style type='text/css'>
<![CDATA[
[data-mouse-over-selected='false'] { opacity: 0.7; }
[data-mouse-over-selected='true']  { opacity: 1.0; }
]]>
</style>
<script type="application/ecmascript"><![CDATA[
document.addEventListener('DOMContentLoaded', (event) => {
  highlightEdges();
  highlightAdjacentNodes();
});
]]></script>
</svg>
