<?xml version="1.0" encoding="UTF-8" standalone="no"?>
<!DOCTYPE svg PUBLIC "-//W3C//DTD SVG 1.1//EN"
 "http://www.w3.org/Graphics/SVG/1.1/DTD/svg11.dtd">
<!-- Generated by graphviz version 2.43.0 (0)
 -->
<!-- Title: lmmp_factors_mul_ Pages: 1 -->
<svg width="441pt" height="235pt"
 viewBox="0.00 0.00 441.00 234.50" xmlns="http://www.w3.org/2000/svg" xmlns:xlink="http://www.w3.org/1999/xlink">

<svg id="main" version="1.1" xmlns="http://www.w3.org/2000/svg" xmlns:xlink="http://www.w3.org/1999/xlink" xml:space="preserve" onload="init(evt)">
<style type="text/css"><![CDATA[
.node, .edge {opacity: 0.7;}
.node.selected, .edge.selected {opacity: 1;}
.edge:hover path { stroke: red; }
.edge:hover polygon { stroke: red; fill: red; }
]]></style>
<script type="application/ecmascript" xlink:href="../../svg.min.js"/>
<svg id="graph" class="graph">
<g id="graph0" class="graph" transform="scale(1 1) rotate(0) translate(4 230.5)">
<title>lmmp_factors_mul_</title>
<!-- Node1 -->
<g id="Node000001" class="node">
<title>Node1</title>
<g id="a_Node000001"><a xlink:title="计算因子的累乘，并将结果放入dst中">
<polygon fill="#999999" stroke="#666666" points="433,-111 320,-111 320,-92 433,-92 433,-111"/>
<text text-anchor="middle" x="376.5" y="-99" font-family="Helvetica,sans-Serif" font-size="10.00">lmmp_factors_mul_</text>
</a>
</g>
</g>
<!-- Node2 -->
<g id="Node000002" class="node">
<title>Node2</title>
<g id="a_Node000002"><a xlink:href="../../d5/d56/multinomial_8c.html#abfed94c16a1b2457fdb2e9b6088abbe9" target="_top" xlink:title=" ">
<polygon fill="white" stroke="#666666" points="284,-226.5 151,-226.5 151,-196.5 284,-196.5 284,-226.5"/>
<text text-anchor="start" x="159" y="-214.5" font-family="Helvetica,sans-Serif" font-size="10.00">lmmp_odd_multinomial</text>
<text text-anchor="middle" x="217.5" y="-203.5" font-family="Helvetica,sans-Serif" font-size="10.00">_uint_</text>
</a>
</g>
</g>
<!-- Node1&#45;&gt;Node2 -->
<g id="edge1_Node000001_Node000002" class="edge">
<title>Node1&#45;&gt;Node2</title>
<g id="a_edge1_Node000001_Node000002"><a xlink:title=" ">
<path fill="none" stroke="#63b8ff" d="M361.06,-118.74C344.26,-137.84 314.87,-168.45 284,-187.5 278.64,-190.81 272.76,-193.76 266.78,-196.37"/>
<polygon fill="#63b8ff" stroke="#63b8ff" points="363.77,-120.95 367.65,-111.09 358.47,-116.38 363.77,-120.95"/>
</a>
</g>
</g>
<!-- Node4 -->
<g id="Node000004" class="node">
<title>Node4</title>
<g id="a_Node000004"><a xlink:href="../../d5/d56/multinomial_8c.html#a11c8136051f686246bfc1ac69d98e1bf" target="_top" xlink:title=" ">
<polygon fill="white" stroke="#666666" points="284,-178.5 151,-178.5 151,-148.5 284,-148.5 284,-178.5"/>
<text text-anchor="start" x="159" y="-166.5" font-family="Helvetica,sans-Serif" font-size="10.00">lmmp_odd_multinomial</text>
<text text-anchor="middle" x="217.5" y="-155.5" font-family="Helvetica,sans-Serif" font-size="10.00">_ushort_</text>
</a>
</g>
</g>
<!-- Node1&#45;&gt;Node4 -->
<g id="edge3_Node000001_Node000004" class="edge">
<title>Node1&#45;&gt;Node4</title>
<g id="a_edge3_Node000001_Node000004"><a xlink:title=" ">
<path fill="none" stroke="#63b8ff" d="M343.82,-115.04C326.27,-122.45 304.01,-131.68 284,-139.5 276.44,-142.45 268.35,-145.5 260.53,-148.4"/>
<polygon fill="#63b8ff" stroke="#63b8ff" points="345.2,-118.26 353.05,-111.14 342.47,-111.81 345.2,-118.26"/>
</a>
</g>
</g>
<!-- Node5 -->
<g id="Node000005" class="node">
<title>Node5</title>
<g id="a_Node000005"><a xlink:href="../../dd/ded/nCr_8c.html#acf2a5abfcb591c5bfef6480f7b0d99d1" target="_top" xlink:title=" ">
<polygon fill="white" stroke="#666666" points="277,-130 158,-130 158,-111 277,-111 277,-130"/>
<text text-anchor="middle" x="217.5" y="-118" font-family="Helvetica,sans-Serif" font-size="10.00">lmmp_odd_nCr_uint_</text>
</a>
</g>
</g>
<!-- Node1&#45;&gt;Node5 -->
<g id="edge5_Node000001_Node000005" class="edge">
<title>Node1&#45;&gt;Node5</title>
<g id="a_edge5_Node000001_Node000005"><a xlink:title=" ">
<path fill="none" stroke="#63b8ff" d="M309.5,-109.49C298.72,-110.79 287.62,-112.14 277.04,-113.42"/>
<polygon fill="#63b8ff" stroke="#63b8ff" points="310.2,-112.93 319.71,-108.25 309.36,-105.98 310.2,-112.93"/>
</a>
</g>
</g>
<!-- Node7 -->
<g id="Node000007" class="node">
<title>Node7</title>
<g id="a_Node000007"><a xlink:href="../../dd/ded/nCr_8c.html#a21ae6f543736e097ce7e5214c531301f" target="_top" xlink:title=" ">
<polygon fill="white" stroke="#666666" points="283,-93 152,-93 152,-74 283,-74 283,-93"/>
<text text-anchor="middle" x="217.5" y="-81" font-family="Helvetica,sans-Serif" font-size="10.00">lmmp_odd_nCr_ushort_</text>
</a>
</g>
</g>
<!-- Node1&#45;&gt;Node7 -->
<g id="edge7_Node000001_Node000007" class="edge">
<title>Node1&#45;&gt;Node7</title>
<g id="a_edge7_Node000001_Node000007"><a xlink:title=" ">
<path fill="none" stroke="#63b8ff" d="M309.59,-93.94C300.87,-92.94 291.93,-91.92 283.23,-90.92"/>
<polygon fill="#63b8ff" stroke="#63b8ff" points="309.37,-97.44 319.71,-95.1 310.17,-90.49 309.37,-97.44"/>
</a>
</g>
</g>
<!-- Node8 -->
<g id="Node000008" class="node">
<title>Node8</title>
<g id="a_Node000008"><a xlink:href="../../dc/d74/nPr_8c.html#a7f1696f78a67b1a57414b3489f3be0cd" target="_top" xlink:title=" ">
<polygon fill="white" stroke="#666666" points="277,-56 158,-56 158,-37 277,-37 277,-56"/>
<text text-anchor="middle" x="217.5" y="-44" font-family="Helvetica,sans-Serif" font-size="10.00">lmmp_odd_nPr_uint_</text>
</a>
</g>
</g>
<!-- Node1&#45;&gt;Node8 -->
<g id="edge9_Node000001_Node000008" class="edge">
<title>Node1&#45;&gt;Node8</title>
<g id="a_edge9_Node000001_Node000008"><a xlink:title=" ">
<path fill="none" stroke="#63b8ff" d="M343.11,-87.91C325.73,-80.83 303.85,-72.27 284,-65.5 274.25,-62.18 263.56,-58.92 253.7,-56.06"/>
<polygon fill="#63b8ff" stroke="#63b8ff" points="342.2,-91.32 352.78,-91.88 344.86,-84.85 342.2,-91.32"/>
</a>
</g>
</g>
<!-- Node10 -->
<g id="Node000010" class="node">
<title>Node10</title>
<g id="a_Node000010"><a xlink:href="../../dc/d74/nPr_8c.html#a4de9141c63304b5df03e9c1e46a3b207" target="_top" xlink:title=" ">
<polygon fill="white" stroke="#666666" points="283,-19 152,-19 152,0 283,0 283,-19"/>
<text text-anchor="middle" x="217.5" y="-7" font-family="Helvetica,sans-Serif" font-size="10.00">lmmp_odd_nPr_ushort_</text>
</a>
</g>
</g>
<!-- Node1&#45;&gt;Node10 -->
<g id="edge11_Node000001_Node000010" class="edge">
<title>Node1&#45;&gt;Node10</title>
<g id="a_edge11_Node000001_Node000010"><a xlink:title=" ">
<path fill="none" stroke="#63b8ff" d="M358.77,-84.33C341.5,-67.55 313.05,-42.41 284,-27.5 277.49,-24.16 270.3,-21.38 263.13,-19.09"/>
<polygon fill="#63b8ff" stroke="#63b8ff" points="356.74,-87.25 366.3,-91.82 361.67,-82.29 356.74,-87.25"/>
</a>
</g>
</g>
<!-- Node3 -->
<g id="Node000003" class="node">
<title>Node3</title>
<g id="a_Node000003"><a xlink:href="../../d5/d56/multinomial_8c.html#afc3b233e0d09b1a7fb4a78f31cff001b" target="_top" xlink:title=" ">
<polygon fill="white" stroke="#666666" points="115,-197 0,-197 0,-178 115,-178 115,-197"/>
<text text-anchor="middle" x="57.5" y="-185" font-family="Helvetica,sans-Serif" font-size="10.00">lmmp_multinomial_</text>
</a>
</g>
</g>
<!-- Node2&#45;&gt;Node3 -->
<g id="edge2_Node000002_Node000003" class="edge">
<title>Node2&#45;&gt;Node3</title>
<g id="a_edge2_Node000002_Node000003"><a xlink:title=" ">
<path fill="none" stroke="#63b8ff" d="M140.78,-200C132.14,-198.69 123.45,-197.37 115.13,-196.1"/>
<polygon fill="#63b8ff" stroke="#63b8ff" points="140.45,-203.49 150.87,-201.53 141.51,-196.57 140.45,-203.49"/>
</a>
</g>
</g>
<!-- Node4&#45;&gt;Node3 -->
<g id="edge4_Node000004_Node000003" class="edge">
<title>Node4&#45;&gt;Node3</title>
<g id="a_edge4_Node000004_Node000003"><a xlink:title=" ">
<path fill="none" stroke="#63b8ff" d="M140.78,-175C132.14,-176.31 123.45,-177.63 115.13,-178.9"/>
<polygon fill="#63b8ff" stroke="#63b8ff" points="141.51,-178.43 150.87,-173.47 140.45,-171.51 141.51,-178.43"/>
</a>
</g>
</g>
<!-- Node6 -->
<g id="Node000006" class="node">
<title>Node6</title>
<g id="a_Node000006"><a xlink:href="../../dd/ded/nCr_8c.html#a9df9f98aa994cfd62b54926b1439d4b7" target="_top" xlink:title="计算 nCr 组合数 ( nCr = n! / (r!(n&#45;r)!) )">
<polygon fill="white" stroke="#666666" points="93.5,-102 21.5,-102 21.5,-83 93.5,-83 93.5,-102"/>
<text text-anchor="middle" x="57.5" y="-90" font-family="Helvetica,sans-Serif" font-size="10.00">lmmp_nCr_</text>
</a>
</g>
</g>
<!-- Node5&#45;&gt;Node6 -->
<g id="edge6_Node000005_Node000006" class="edge">
<title>Node5&#45;&gt;Node6</title>
<g id="a_edge6_Node000005_Node000006"><a xlink:title=" ">
<path fill="none" stroke="#63b8ff" d="M152.55,-109.17C132.52,-105.62 111.15,-101.83 93.85,-98.76"/>
<polygon fill="#63b8ff" stroke="#63b8ff" points="152.11,-112.64 162.57,-110.94 153.33,-105.75 152.11,-112.64"/>
</a>
</g>
</g>
<!-- Node7&#45;&gt;Node6 -->
<g id="edge8_Node000007_Node000006" class="edge">
<title>Node7&#45;&gt;Node6</title>
<g id="a_edge8_Node000007_Node000006"><a xlink:title=" ">
<path fill="none" stroke="#63b8ff" d="M141.5,-87.77C124.9,-88.72 108.07,-89.68 93.94,-90.48"/>
<polygon fill="#63b8ff" stroke="#63b8ff" points="141.99,-91.25 151.78,-87.19 141.6,-84.26 141.99,-91.25"/>
</a>
</g>
</g>
<!-- Node9 -->
<g id="Node000009" class="node">
<title>Node9</title>
<g id="a_Node000009"><a xlink:href="../../dc/d74/nPr_8c.html#af69f80dd939d5c75bbddc2ecc8155a65" target="_top" xlink:title=" ">
<polygon fill="white" stroke="#666666" points="93,-47 22,-47 22,-28 93,-28 93,-47"/>
<text text-anchor="middle" x="57.5" y="-35" font-family="Helvetica,sans-Serif" font-size="10.00">lmmp_nPr_</text>
</a>
</g>
</g>
<!-- Node8&#45;&gt;Node9 -->
<g id="edge10_Node000008_Node000009" class="edge">
<title>Node8&#45;&gt;Node9</title>
<g id="a_edge10_Node000008_Node000009"><a xlink:title=" ">
<path fill="none" stroke="#63b8ff" d="M147.6,-42.58C128.73,-41.5 109.08,-40.38 93.05,-39.47"/>
<polygon fill="#63b8ff" stroke="#63b8ff" points="147.48,-46.07 157.67,-43.15 147.88,-39.09 147.48,-46.07"/>
</a>
</g>
</g>
<!-- Node10&#45;&gt;Node9 -->
<g id="edge12_Node000010_Node000009" class="edge">
<title>Node10&#45;&gt;Node9</title>
<g id="a_edge12_Node000010_Node000009"><a xlink:title=" ">
<path fill="none" stroke="#63b8ff" d="M152.47,-20.85C132.28,-24.42 110.73,-28.24 93.37,-31.32"/>
<polygon fill="#63b8ff" stroke="#63b8ff" points="153.33,-24.25 162.57,-19.06 152.11,-17.36 153.33,-24.25"/>
</a>
</g>
</g>
</g>
</svg>
</svg>

<style type='text/css'>
<![CDATA[
[data-mouse-over-selected='false'] { opacity: 0.7; }
[data-mouse-over-selected='true']  { opacity: 1.0; }
]]>
</style>
<script type="application/ecmascript"><![CDATA[
document.addEventListener('DOMContentLoaded', (event) => {
  highlightEdges();
  highlightAdjacentNodes();
});
]]></script>
</svg>
