<?xml version="1.0" encoding="UTF-8" standalone="no"?>
<!DOCTYPE svg PUBLIC "-//W3C//DTD SVG 1.1//EN"
 "http://www.w3.org/Graphics/SVG/1.1/DTD/svg11.dtd">
<!-- Generated by graphviz version 2.43.0 (0)
 -->
<!-- Title: lmmp_addshl1_n_ Pages: 1 -->
<!--zoomable 523 -->

<svg id="main" version="1.1" xmlns="http://www.w3.org/2000/svg" xmlns:xlink="http://www.w3.org/1999/xlink" xml:space="preserve" onload="init(evt)">
<style type="text/css"><![CDATA[
.node, .edge {opacity: 0.7;}
.node.selected, .edge.selected {opacity: 1;}
.edge:hover path { stroke: red; }
.edge:hover polygon { stroke: red; fill: red; }
]]></style>

<defs>
  <circle id="rim" cx="0" cy="0" r="7"/>
  <circle id="rim2" cx="0" cy="0" r="3.5"/>
  <g id="zoomPlus">
    <use xlink:href="#rim" fill="#404040"><set attributeName="fill" to="#808080" begin="zoomplus.mouseover" end="zoomplus.mouseout"/></use>
    <path d="M-4,0h8M0,-4v8" fill="none" stroke="white" stroke-width="1.5" pointer-events="none"/>
  </g>
  <g id="zoomMin">
    <use xlink:href="#rim" fill="#404040"><set attributeName="fill" to="#808080" begin="zoomminus.mouseover" end="zoomminus.mouseout"/></use>
    <path d="M-4,0h8" fill="none" stroke="white" stroke-width="1.5" pointer-events="none"/>
  </g>
  <g id="arrowUp" transform="translate(30 24)">
    <use xlink:href="#rim"/>
    <path pointer-events="none" fill="none" stroke="white" stroke-width="1.5" d="M0,-3.0v7 M-2.5,-0.5L0,-3.0L2.5,-0.5"/>
  </g>
  <g id="arrowRight" transform="rotate(90) translate(36 -43)">
    <use xlink:href="#rim"/>
    <path pointer-events="none" fill="none" stroke="white" stroke-width="1.5" d="M0,-3.0v7 M-2.5,-0.5L0,-3.0L2.5,-0.5"/>
  </g>
  <g id="arrowDown" transform="rotate(180) translate(-30 -48)">
    <use xlink:href="#rim"/>
    <path pointer-events="none" fill="none" stroke="white" stroke-width="1.5" d="M0,-3.0v7 M-2.5,-0.5L0,-3.0L2.5,-0.5"/>
  </g>
  <g id="arrowLeft" transform="rotate(270) translate(-36 17)">
    <use xlink:href="#rim"/>
    <path pointer-events="none" fill="none" stroke="white" stroke-width="1.5" d="M0,-3.0v7 M-2.5,-0.5L0,-3.0L2.5,-0.5"/>
  </g>
  <g id="resetDef">
    <use xlink:href="#rim2" fill="#404040"><set attributeName="fill" to="#808080" begin="reset.mouseover" end="reset.mouseout"/></use>
  </g>
</defs>
<script type="application/ecmascript">
var viewWidth = 771;
var viewHeight = 523;
var sectionId = 'dynsection-1';
</script>
<script type="application/ecmascript" xlink:href="../../svg.min.js"/>
<svg id="graph" class="graph">
<g id="viewport">
<title>lmmp_addshl1_n_</title>
<!-- Node1 -->
<g id="Node000001" class="node">
<title>Node1</title>
<g id="a_Node000001"><a xlink:title="加法结合左移1位操作 [dst,n] = [numa,n] + ([numb,n] &lt;&lt; 1)">
<polygon fill="#999999" stroke="#666666" points="763,-281 658,-281 658,-262 763,-262 763,-281"/>
<text text-anchor="middle" x="710.5" y="-269" font-family="Helvetica,sans-Serif" font-size="10.00">lmmp_addshl1_n_</text>
</a>
</g>
</g>
<!-- Node2 -->
<g id="Node000002" class="node">
<title>Node2</title>
<g id="a_Node000002"><a xlink:href="../../de/d4d/mul__toom33_8c.html#ab6ead21a9ce3278c0de9d25545d9f31d" target="_top" xlink:title=" ">
<polygon fill="white" stroke="#666666" points="605,-515 488,-515 488,-496 605,-496 605,-515"/>
<text text-anchor="middle" x="546.5" y="-503" font-family="Helvetica,sans-Serif" font-size="10.00">lmmp_mul_toom33_</text>
</a>
</g>
</g>
<!-- Node1&#45;&gt;Node2 -->
<g id="edge1_Node000001_Node000002" class="edge">
<title>Node1&#45;&gt;Node2</title>
<g id="a_edge1_Node000001_Node000002"><a xlink:title=" ">
<path fill="none" stroke="#63b8ff" d="M707.47,-291.18C701.99,-333.8 682.91,-434.99 622,-487.5 617.06,-491.76 611.28,-495.04 605.17,-497.58"/>
<polygon fill="#63b8ff" stroke="#63b8ff" points="710.97,-291.36 708.66,-281.02 704.02,-290.55 710.97,-291.36"/>
</a>
</g>
</g>
<!-- Node3 -->
<g id="Node000003" class="node">
<title>Node3</title>
<g id="a_Node000003"><a xlink:href="../../d0/de5/mul__toom42_8c.html#a53c7b72024324dba1d4a952b3c59d689" target="_top" xlink:title=" ">
<polygon fill="white" stroke="#666666" points="605,-478 488,-478 488,-459 605,-459 605,-478"/>
<text text-anchor="middle" x="546.5" y="-466" font-family="Helvetica,sans-Serif" font-size="10.00">lmmp_mul_toom42_</text>
</a>
</g>
</g>
<!-- Node1&#45;&gt;Node3 -->
<g id="edge2_Node000001_Node000003" class="edge">
<title>Node1&#45;&gt;Node3</title>
<g id="a_edge2_Node000001_Node000003"><a xlink:title=" ">
<path fill="none" stroke="#63b8ff" d="M705.67,-291.07C697.36,-328.16 674.06,-408.69 622,-450.5 617.02,-454.5 611.29,-457.63 605.26,-460.08"/>
<polygon fill="#63b8ff" stroke="#63b8ff" points="709.15,-291.56 707.79,-281.05 702.3,-290.11 709.15,-291.56"/>
</a>
</g>
</g>
<!-- Node4 -->
<g id="Node000004" class="node">
<title>Node4</title>
<g id="a_Node000004"><a xlink:href="../../d0/de5/mul__toom42_8c.html#a6a0c45b8d6687ad0e75da7156dc1dd7d" target="_top" xlink:title=" ">
<polygon fill="white" stroke="#666666" points="622,-441 471,-441 471,-422 622,-422 622,-441"/>
<text text-anchor="middle" x="546.5" y="-429" font-family="Helvetica,sans-Serif" font-size="10.00">lmmp_mul_toom42_cache_</text>
</a>
</g>
</g>
<!-- Node1&#45;&gt;Node4 -->
<g id="edge3_Node000001_Node000004" class="edge">
<title>Node1&#45;&gt;Node4</title>
<g id="a_edge3_Node000001_Node000004"><a xlink:title=" ">
<path fill="none" stroke="#63b8ff" d="M702.99,-290.67C691.59,-321.28 665.02,-380.96 622,-412.5 616.72,-416.37 610.74,-419.45 604.51,-421.91"/>
<polygon fill="#63b8ff" stroke="#63b8ff" points="706.33,-291.74 706.4,-281.14 699.73,-289.38 706.33,-291.74"/>
</a>
</g>
</g>
<!-- Node6 -->
<g id="Node000006" class="node">
<title>Node6</title>
<g id="a_Node000006"><a xlink:href="../../d0/de5/mul__toom42_8c.html#a7b31e05a88a3c9b904fb9edfe3ac6804" target="_top" xlink:title=" ">
<polygon fill="white" stroke="#666666" points="619.5,-403.5 473.5,-403.5 473.5,-373.5 619.5,-373.5 619.5,-403.5"/>
<text text-anchor="start" x="481.5" y="-391.5" font-family="Helvetica,sans-Serif" font-size="10.00">lmmp_mul_toom42_cache</text>
<text text-anchor="middle" x="546.5" y="-380.5" font-family="Helvetica,sans-Serif" font-size="10.00">_init_</text>
</a>
</g>
</g>
<!-- Node1&#45;&gt;Node6 -->
<g id="edge5_Node000001_Node000006" class="edge">
<title>Node1&#45;&gt;Node6</title>
<g id="a_edge5_Node000001_Node000006"><a xlink:title=" ">
<path fill="none" stroke="#63b8ff" d="M697.02,-289.49C681.65,-310.37 653.67,-344.48 622,-364.5 616.6,-367.91 610.67,-370.88 604.59,-373.45"/>
<polygon fill="#63b8ff" stroke="#63b8ff" points="700,-291.34 702.99,-281.18 694.31,-287.26 700,-291.34"/>
</a>
</g>
</g>
<!-- Node7 -->
<g id="Node000007" class="node">
<title>Node7</title>
<g id="a_Node000007"><a xlink:href="../../df/d32/mul__toom44_8c.html#a4a99958cb80a78e2b391c0e5d56b277d" target="_top" xlink:title=" ">
<polygon fill="white" stroke="#666666" points="605,-355 488,-355 488,-336 605,-336 605,-355"/>
<text text-anchor="middle" x="546.5" y="-343" font-family="Helvetica,sans-Serif" font-size="10.00">lmmp_mul_toom44_</text>
</a>
</g>
</g>
<!-- Node1&#45;&gt;Node7 -->
<g id="edge7_Node000001_Node000007" class="edge">
<title>Node1&#45;&gt;Node7</title>
<g id="a_edge7_Node000001_Node000007"><a xlink:title=" ">
<path fill="none" stroke="#63b8ff" d="M689.38,-287.14C672.31,-299.71 646.72,-316.95 622,-327.5 614.17,-330.84 605.59,-333.64 597.14,-335.95"/>
<polygon fill="#63b8ff" stroke="#63b8ff" points="691.59,-289.86 697.48,-281.05 687.39,-284.26 691.59,-289.86"/>
</a>
</g>
</g>
<!-- Node8 -->
<g id="Node000008" class="node">
<title>Node8</title>
<g id="a_Node000008"><a xlink:href="../../d1/d29/mul__toom53_8c.html#a1343e525e4b4e9ccb2d898d41b420d7d" target="_top" xlink:title=" ">
<polygon fill="white" stroke="#666666" points="605,-318 488,-318 488,-299 605,-299 605,-318"/>
<text text-anchor="middle" x="546.5" y="-306" font-family="Helvetica,sans-Serif" font-size="10.00">lmmp_mul_toom53_</text>
</a>
</g>
</g>
<!-- Node1&#45;&gt;Node8 -->
<g id="edge8_Node000001_Node000008" class="edge">
<title>Node1&#45;&gt;Node8</title>
<g id="a_edge8_Node000001_Node000008"><a xlink:title=" ">
<path fill="none" stroke="#63b8ff" d="M657.89,-283.29C635.77,-288.34 610.27,-294.16 589.36,-298.94"/>
<polygon fill="#63b8ff" stroke="#63b8ff" points="658.81,-286.67 667.78,-281.03 657.25,-279.84 658.81,-286.67"/>
</a>
</g>
</g>
<!-- Node9 -->
<g id="Node000009" class="node">
<title>Node9</title>
<g id="a_Node000009"><a xlink:href="../../df/d18/mul__toom62_8c.html#a16ddf626cc5a87f9fa899b82f3bf8e33" target="_top" xlink:title=" ">
<polygon fill="white" stroke="#666666" points="605,-281 488,-281 488,-262 605,-262 605,-281"/>
<text text-anchor="middle" x="546.5" y="-269" font-family="Helvetica,sans-Serif" font-size="10.00">lmmp_mul_toom62_</text>
</a>
</g>
</g>
<!-- Node1&#45;&gt;Node9 -->
<g id="edge9_Node000001_Node000009" class="edge">
<title>Node1&#45;&gt;Node9</title>
<g id="a_edge9_Node000001_Node000009"><a xlink:title=" ">
<path fill="none" stroke="#63b8ff" d="M647.78,-271.5C633.79,-271.5 618.99,-271.5 605.18,-271.5"/>
<polygon fill="#63b8ff" stroke="#63b8ff" points="647.8,-275 657.8,-271.5 647.8,-268 647.8,-275"/>
</a>
</g>
</g>
<!-- Node10 -->
<g id="Node000010" class="node">
<title>Node10</title>
<g id="a_Node000010"><a xlink:href="../../df/d18/mul__toom62_8c.html#a77bb59eb2f556ec65430b1fa53731e82" target="_top" xlink:title=" ">
<polygon fill="white" stroke="#666666" points="622,-244 471,-244 471,-225 622,-225 622,-244"/>
<text text-anchor="middle" x="546.5" y="-232" font-family="Helvetica,sans-Serif" font-size="10.00">lmmp_mul_toom62_cache_</text>
</a>
</g>
</g>
<!-- Node1&#45;&gt;Node10 -->
<g id="edge10_Node000001_Node000010" class="edge">
<title>Node1&#45;&gt;Node10</title>
<g id="a_edge10_Node000001_Node000010"><a xlink:title=" ">
<path fill="none" stroke="#63b8ff" d="M657.89,-259.71C635.77,-254.66 610.27,-248.84 589.36,-244.06"/>
<polygon fill="#63b8ff" stroke="#63b8ff" points="657.25,-263.16 667.78,-261.97 658.81,-256.33 657.25,-263.16"/>
</a>
</g>
</g>
<!-- Node12 -->
<g id="Node000012" class="node">
<title>Node12</title>
<g id="a_Node000012"><a xlink:href="../../df/d18/mul__toom62_8c.html#ae925f984602b8c730f735419c22c183b" target="_top" xlink:title=" ">
<polygon fill="white" stroke="#666666" points="619.5,-206.5 473.5,-206.5 473.5,-176.5 619.5,-176.5 619.5,-206.5"/>
<text text-anchor="start" x="481.5" y="-194.5" font-family="Helvetica,sans-Serif" font-size="10.00">lmmp_mul_toom62_cache</text>
<text text-anchor="middle" x="546.5" y="-183.5" font-family="Helvetica,sans-Serif" font-size="10.00">_init_</text>
</a>
</g>
</g>
<!-- Node1&#45;&gt;Node12 -->
<g id="edge12_Node000001_Node000012" class="edge">
<title>Node1&#45;&gt;Node12</title>
<g id="a_edge12_Node000001_Node000012"><a xlink:title=" ">
<path fill="none" stroke="#63b8ff" d="M688.2,-256.09C670.97,-244.13 645.75,-227.75 622,-216.5 614.36,-212.88 606.04,-209.54 597.84,-206.57"/>
<polygon fill="#63b8ff" stroke="#63b8ff" points="686.24,-258.99 696.43,-261.89 690.27,-253.27 686.24,-258.99"/>
</a>
</g>
</g>
<!-- Node13 -->
<g id="Node000013" class="node">
<title>Node13</title>
<g id="a_Node000013"><a xlink:href="../../d0/de3/sqr__toom3_8c.html#aee6506e602bb62291d5374741bb9de94" target="_top" xlink:title=" ">
<polygon fill="white" stroke="#666666" points="600,-158 493,-158 493,-139 600,-139 600,-158"/>
<text text-anchor="middle" x="546.5" y="-146" font-family="Helvetica,sans-Serif" font-size="10.00">lmmp_sqr_toom3_</text>
</a>
</g>
</g>
<!-- Node1&#45;&gt;Node13 -->
<g id="edge14_Node000001_Node000013" class="edge">
<title>Node1&#45;&gt;Node13</title>
<g id="a_edge14_Node000001_Node000013"><a xlink:title=" ">
<path fill="none" stroke="#63b8ff" d="M699.03,-253.05C684.71,-229.54 656.78,-189.33 622,-167.5 615.33,-163.31 607.78,-160.05 600.1,-157.5"/>
<polygon fill="#63b8ff" stroke="#63b8ff" points="696.05,-254.9 704.15,-261.73 702.08,-251.34 696.05,-254.9"/>
</a>
</g>
</g>
<!-- Node14 -->
<g id="Node000014" class="node">
<title>Node14</title>
<g id="a_Node000014"><a xlink:href="../../dd/d32/sqr__toom4_8c.html#ac4778f4604ea4b584d79b6f9b2674c7b" target="_top" xlink:title=" ">
<polygon fill="white" stroke="#666666" points="600,-121 493,-121 493,-102 600,-102 600,-121"/>
<text text-anchor="middle" x="546.5" y="-109" font-family="Helvetica,sans-Serif" font-size="10.00">lmmp_sqr_toom4_</text>
</a>
</g>
</g>
<!-- Node1&#45;&gt;Node14 -->
<g id="edge15_Node000001_Node000014" class="edge">
<title>Node1&#45;&gt;Node14</title>
<g id="a_edge15_Node000001_Node000014"><a xlink:title=" ">
<path fill="none" stroke="#63b8ff" d="M702.99,-252.33C691.59,-221.72 665.02,-162.04 622,-130.5 615.54,-125.77 608.02,-122.21 600.28,-119.53"/>
<polygon fill="#63b8ff" stroke="#63b8ff" points="699.73,-253.62 706.4,-261.86 706.33,-251.26 699.73,-253.62"/>
</a>
</g>
</g>
<!-- Node15 -->
<g id="Node000015" class="node">
<title>Node15</title>
<g id="a_Node000015"><a xlink:href="../../dd/d6c/mullo_8c.html#a9dc5ab6a8219bb58ebd8134ce3b26428" target="_top" xlink:title=" ">
<polygon fill="white" stroke="#666666" points="594.5,-84 498.5,-84 498.5,-65 594.5,-65 594.5,-84"/>
<text text-anchor="middle" x="546.5" y="-72" font-family="Helvetica,sans-Serif" font-size="10.00">lmmp_sqrlo_dc_</text>
</a>
</g>
</g>
<!-- Node1&#45;&gt;Node15 -->
<g id="edge16_Node000001_Node000015" class="edge">
<title>Node1&#45;&gt;Node15</title>
<g id="a_edge16_Node000001_Node000015"><a xlink:title=" ">
<path fill="none" stroke="#63b8ff" d="M705.47,-251.57C696.92,-214.56 673.37,-135.19 622,-93.5 614.12,-87.11 604.36,-82.84 594.52,-79.99"/>
<polygon fill="#63b8ff" stroke="#63b8ff" points="702.11,-252.58 707.66,-261.61 708.95,-251.09 702.11,-252.58"/>
</a>
</g>
</g>
<!-- Node17 -->
<g id="Node000017" class="node">
<title>Node17</title>
<g id="a_Node000017"><a xlink:href="../../dd/de3/sqrt_8c.html#a22ca68231196ab9e635c48d8c74f33f9" target="_top" xlink:title=" ">
<polygon fill="white" stroke="#666666" points="601.5,-29 491.5,-29 491.5,-10 601.5,-10 601.5,-29"/>
<text text-anchor="middle" x="546.5" y="-17" font-family="Helvetica,sans-Serif" font-size="10.00">lmmp_sqrt_divide_</text>
</a>
</g>
</g>
<!-- Node1&#45;&gt;Node17 -->
<g id="edge18_Node000001_Node000017" class="edge">
<title>Node1&#45;&gt;Node17</title>
<g id="a_edge18_Node000001_Node000017"><a xlink:title=" ">
<path fill="none" stroke="#63b8ff" d="M706.3,-251.74C698.7,-210.58 675.99,-114.67 622,-56.5 610.31,-43.9 593.39,-35.02 578.63,-29.13"/>
<polygon fill="#63b8ff" stroke="#63b8ff" points="702.85,-252.36 708.02,-261.61 709.75,-251.16 702.85,-252.36"/>
</a>
</g>
</g>
<!-- Node5 -->
<g id="Node000005" class="node">
<title>Node5</title>
<g id="a_Node000005"><a xlink:href="../../d0/de5/mul__toom42_8c.html#a8c86ba69ee0658ecf28793a92f6ef0c9" target="_top" xlink:title=" ">
<polygon fill="white" stroke="#666666" points="435,-419 262,-419 262,-400 435,-400 435,-419"/>
<text text-anchor="middle" x="348.5" y="-407" font-family="Helvetica,sans-Serif" font-size="10.00">lmmp_mul_toom42_unbalance_</text>
</a>
</g>
</g>
<!-- Node4&#45;&gt;Node5 -->
<g id="edge4_Node000004_Node000005" class="edge">
<title>Node4&#45;&gt;Node5</title>
<g id="a_edge4_Node000004_Node000005"><a xlink:title=" ">
<path fill="none" stroke="#63b8ff" d="M460.7,-421.98C451.99,-421 443.15,-420.01 434.44,-419.03"/>
<polygon fill="#63b8ff" stroke="#63b8ff" points="460.51,-425.48 470.84,-423.12 461.29,-418.53 460.51,-425.48"/>
</a>
</g>
</g>
<!-- Node6&#45;&gt;Node5 -->
<g id="edge6_Node000006_Node000005" class="edge">
<title>Node6&#45;&gt;Node5</title>
<g id="a_edge6_Node000006_Node000005"><a xlink:title=" ">
<path fill="none" stroke="#63b8ff" d="M463.33,-397.3C454,-398.3 444.48,-399.32 435.11,-400.33"/>
<polygon fill="#63b8ff" stroke="#63b8ff" points="463.78,-400.78 473.35,-396.23 463.04,-393.82 463.78,-400.78"/>
</a>
</g>
</g>
<!-- Node11 -->
<g id="Node000011" class="node">
<title>Node11</title>
<g id="a_Node000011"><a xlink:href="../../df/d18/mul__toom62_8c.html#aa79b2cbdf2b098e975b7a90d02c4e3f4" target="_top" xlink:title=" ">
<polygon fill="white" stroke="#666666" points="435,-222 262,-222 262,-203 435,-203 435,-222"/>
<text text-anchor="middle" x="348.5" y="-210" font-family="Helvetica,sans-Serif" font-size="10.00">lmmp_mul_toom62_unbalance_</text>
</a>
</g>
</g>
<!-- Node10&#45;&gt;Node11 -->
<g id="edge11_Node000010_Node000011" class="edge">
<title>Node10&#45;&gt;Node11</title>
<g id="a_edge11_Node000010_Node000011"><a xlink:title=" ">
<path fill="none" stroke="#63b8ff" d="M460.7,-224.98C451.99,-224 443.15,-223.01 434.44,-222.03"/>
<polygon fill="#63b8ff" stroke="#63b8ff" points="460.51,-228.48 470.84,-226.12 461.29,-221.53 460.51,-228.48"/>
</a>
</g>
</g>
<!-- Node12&#45;&gt;Node11 -->
<g id="edge13_Node000012_Node000011" class="edge">
<title>Node12&#45;&gt;Node11</title>
<g id="a_edge13_Node000012_Node000011"><a xlink:title=" ">
<path fill="none" stroke="#63b8ff" d="M463.33,-200.3C454,-201.3 444.48,-202.32 435.11,-203.33"/>
<polygon fill="#63b8ff" stroke="#63b8ff" points="463.78,-203.78 473.35,-199.23 463.04,-196.82 463.78,-203.78"/>
</a>
</g>
</g>
<!-- Node16 -->
<g id="Node000016" class="node">
<title>Node16</title>
<g id="a_Node000016"><a xlink:href="../../dd/d6c/mullo_8c.html#a6d09898adb951f7bdd13bdc6f5e9fc3a" target="_top" xlink:title=" ">
<polygon fill="white" stroke="#666666" points="390,-84 307,-84 307,-65 390,-65 390,-84"/>
<text text-anchor="middle" x="348.5" y="-72" font-family="Helvetica,sans-Serif" font-size="10.00">lmmp_mullo_</text>
</a>
</g>
</g>
<!-- Node15&#45;&gt;Node16 -->
<g id="edge17_Node000015_Node000016" class="edge">
<title>Node15&#45;&gt;Node16</title>
<g id="a_edge17_Node000015_Node000016"><a xlink:title=" ">
<path fill="none" stroke="#63b8ff" d="M487.71,-74.5C456.38,-74.5 418.42,-74.5 390.21,-74.5"/>
<polygon fill="#63b8ff" stroke="#63b8ff" points="488.05,-78 498.05,-74.5 488.05,-71 488.05,-78"/>
</a>
</g>
</g>
<!-- Node17&#45;&gt;Node17 -->
<g id="edge23_Node000017_Node000017" class="edge">
<title>Node17&#45;&gt;Node17</title>
<g id="a_edge23_Node000017_Node000017"><a xlink:title=" ">
<path fill="none" stroke="#63b8ff" d="M577.11,-37.82C575.83,-43.01 565.63,-47 546.5,-47 517.35,-47 508.93,-37.73 521.22,-29.08"/>
<polygon fill="#63b8ff" stroke="#63b8ff" points="579.98,-35.79 571.78,-29.08 574,-39.44 579.98,-35.79"/>
</a>
</g>
</g>
<!-- Node18 -->
<g id="Node000018" class="node">
<title>Node18</title>
<g id="a_Node000018"><a xlink:href="../../dd/de3/sqrt_8c.html#acf69ca7583fe7a1266e3c31256ab270b" target="_top" xlink:title=" ">
<polygon fill="white" stroke="#666666" points="414,-38 283,-38 283,-19 414,-19 414,-38"/>
<text text-anchor="middle" x="348.5" y="-26" font-family="Helvetica,sans-Serif" font-size="10.00">lmmp_invsqrt_newton_</text>
</a>
</g>
</g>
<!-- Node17&#45;&gt;Node18 -->
<g id="edge19_Node000017_Node000018" class="edge">
<title>Node17&#45;&gt;Node18</title>
<g id="a_edge19_Node000017_Node000018"><a xlink:title=" ">
<path fill="none" stroke="#63b8ff" d="M481.39,-22.44C459.84,-23.43 435.79,-24.54 414.19,-25.53"/>
<polygon fill="#63b8ff" stroke="#63b8ff" points="481.59,-25.94 491.42,-21.98 481.27,-18.95 481.59,-25.94"/>
</a>
</g>
</g>
<!-- Node20 -->
<g id="Node000020" class="node">
<title>Node20</title>
<g id="a_Node000020"><a xlink:href="../../dd/de3/sqrt_8c.html#ae0b4726620c46767b8fa9dd6a2b9ae28" target="_top" xlink:title="大数平方根和取余操作">
<polygon fill="white" stroke="#666666" points="74,-19 0,-19 0,0 74,0 74,-19"/>
<text text-anchor="middle" x="37" y="-7" font-family="Helvetica,sans-Serif" font-size="10.00">lmmp_sqrt_</text>
</a>
</g>
</g>
<!-- Node17&#45;&gt;Node20 -->
<g id="edge22_Node000017_Node000020" class="edge">
<title>Node17&#45;&gt;Node20</title>
<g id="a_edge22_Node000017_Node000020"><a xlink:title=" ">
<path fill="none" stroke="#63b8ff" d="M481.06,-12.68C465.96,-11.36 449.93,-10.17 435,-9.5 302.11,-3.5 143.95,-6.55 74.15,-8.41"/>
<polygon fill="#63b8ff" stroke="#63b8ff" points="481.05,-16.2 491.33,-13.62 481.69,-9.22 481.05,-16.2"/>
</a>
</g>
</g>
<!-- Node19 -->
<g id="Node000019" class="node">
<title>Node19</title>
<g id="a_Node000019"><a xlink:href="../../dd/de3/sqrt_8c.html#ad190ea42b780f8fa43a1f402935b24df" target="_top" xlink:title=" ">
<polygon fill="white" stroke="#666666" points="226,-38 110,-38 110,-19 226,-19 226,-38"/>
<text text-anchor="middle" x="168" y="-26" font-family="Helvetica,sans-Serif" font-size="10.00">lmmp_sqrt_newton_</text>
</a>
</g>
</g>
<!-- Node18&#45;&gt;Node19 -->
<g id="edge20_Node000018_Node000019" class="edge">
<title>Node18&#45;&gt;Node19</title>
<g id="a_edge20_Node000018_Node000019"><a xlink:title=" ">
<path fill="none" stroke="#63b8ff" d="M272.67,-28.5C257.09,-28.5 240.91,-28.5 226.09,-28.5"/>
<polygon fill="#63b8ff" stroke="#63b8ff" points="272.81,-32 282.81,-28.5 272.8,-25 272.81,-32"/>
</a>
</g>
</g>
<!-- Node19&#45;&gt;Node20 -->
<g id="edge21_Node000019_Node000020" class="edge">
<title>Node19&#45;&gt;Node20</title>
<g id="a_edge21_Node000019_Node000020"><a xlink:title=" ">
<path fill="none" stroke="#63b8ff" d="M99.69,-18.59C90.85,-17.28 82.08,-15.99 74.04,-14.81"/>
<polygon fill="#63b8ff" stroke="#63b8ff" points="99.26,-22.06 109.67,-20.06 100.28,-15.14 99.26,-22.06"/>
</a>
</g>
</g>
</g>
</svg>

<g id="navigator" transform="translate(0 0)" fill="#404254">
  <rect fill="#f2f5e9" fill-opacity="0.5" stroke="#606060" stroke-width=".5" x="0" y="0" width="60" height="60"/>
  <use id="zoomplus" xlink:href="#zoomPlus" x="17" y="9" onmousedown="handleZoom(evt,'in')"/>
  <use id="zoomminus" xlink:href="#zoomMin" x="42" y="9" onmousedown="handleZoom(evt,'out')"/>
  <use id="reset" xlink:href="#resetDef" x="30" y="36" onmousedown="handleReset()"/>
   <use id="arrowup" xlink:href="#arrowUp" x="0" y="0" onmousedown="handlePan(0,-1)"/>
  <use id="arrowright" xlink:href="#arrowRight" x="0" y="0" onmousedown="handlePan(1,0)"/>
  <use id="arrowdown" xlink:href="#arrowDown" x="0" y="0" onmousedown="handlePan(0,1)"/>
  <use id="arrowleft" xlink:href="#arrowLeft" x="0" y="0" onmousedown="handlePan(-1,0)"/>
</g>
<svg viewBox="0 0 15 15" width="100%" height="30px" preserveAspectRatio="xMaxYMin meet">
 <g id="arrow_out" transform="scale(0.3 0.3)">
  <a xlink:href="shl_8c_a95add671de39d53ba0f2431f74c7a12a_icgraph_org.svg" target="_base">
   <rect id="button" ry="5" rx="5" y="6" x="6" height="38" width="38"
        fill="#f2f5e9" fill-opacity="0.5" stroke="#606060" stroke-width="1.0"/>
   <path id="arrow"
     d="M 11.500037,31.436501 C 11.940474,20.09759 22.043105,11.32322 32.158766,21.979434 L 37.068811,17.246167 C 37.068811,17.246167 37.088388,32 37.088388,32 L 22.160133,31.978069 C 22.160133,31.978069 26.997745,27.140456 26.997745,27.140456 C 18.528582,18.264221 13.291696,25.230495 11.500037,31.436501 z"
     style="fill:#404040;"/>
  </a>
 </g>
</svg>

<style type='text/css'>
<![CDATA[
[data-mouse-over-selected='false'] { opacity: 0.7; }
[data-mouse-over-selected='true']  { opacity: 1.0; }
]]>
</style>
<script type="application/ecmascript"><![CDATA[
document.addEventListener('DOMContentLoaded', (event) => {
  highlightEdges();
  highlightAdjacentNodes();
});
]]></script>
</svg>
